<?xml version="1.0" encoding="UTF-8" standalone="no"?>
<svg
   xmlns:mapsvg="http://mapsvg.com"  
   xmlns:dc="http://purl.org/dc/elements/1.1/"
   xmlns:rdf="http://www.w3.org/1999/02/22-rdf-syntax-ns#"
   xmlns:svg="http://www.w3.org/2000/svg"
   xmlns="http://www.w3.org/2000/svg"
   version="1.1"
   width="662.04279"
   height="594.41541"
   mapsvg:geoViewBox="-80.474946 27.933781 -72.712069 20.912131"
   >
  <path
     d="m 300.48089,65.8877 0,0 0.1,-0.07 0.21,0.84 -0.09,1.09 -1.88,3.28 -0.22,-0.21 0.01,-0.35 0.2,-0.49 0.2,-0.31 0.19,0.15 0.11,0.02 -0.03,-0.39 0.19,-1.02 1.01,-2.54 z"
     title="Hope Town"
     id="BS-HT" />
  <path
     d="m 81.96089,355.0677 0,0 -0.3,0.15 -1.63,-1.17 -0.16,-0.34 2.09,1.36 z m -3.33,-3.56 0,0 -0.14,0.05 -3.41,-3.87 0.49,0.3 2.17,2.31 0.89,1.21 z m -11.68,-15.14 0,0 0.11,0.65 -0.25,-0.39 0.14,-0.26 z m -61.46,-0.74 0,0 -0.17,0.46 -0.29,-0.15 0.3,-0.16 0.11,-0.1 0.01,-0.1 -0.12,-0.17 -0.57,-0.05 0.88,-0.11 -0.15,0.38 z m 56.53,-10.71 0,0 -0.24,0.2 -0.16,-0.14 0.4,-0.06 z m -61.25,-12.47 0,0 -0.57,0.48 0.4,-0.54 0.35,-0.3 -0.18,0.36 z m 8.5,-3.11 0,0 -0.58,0.21 0.32,-0.43 0.26,0.22 z m 1.25,-0.3 0,0 -0.55,0.33 0.12,-0.48 0.43,0.15 z m 5.24,-2.41 0,0 -0.03,0.52 -0.59,-0.15 0.62,-0.37 z m 2.84,0.27 0,0 -0.37,0.14 0.17,-0.67 0.2,0.53 z m 6.3,-2 0,0 0.01,0.07 0.04,-0.02 0.03,0.17 -0.11,0.05 -0.03,-0.05 -0.02,0 -0.08,-0.13 0.16,-0.09 z m 87.98,-113.57 0,0 -0.03,0.18 -0.1,-0.18 0.13,0 z m 0.21,-3.25 0,0 0.03,0.7 -0.25,-0.58 0.22,-0.12 z m -0.26,-0.78 0,0 -0.03,0.19 -0.08,-0.12 0.11,-0.07 z m -1.48,-3.27 0,0 0,0.09 -0.2,-0.09 0.2,0 z m 0.19,-0.79 0,0 -0.08,0 0,-0.06 0.11,-0.05 -0.03,0.11 z m -1.81,-4.92 0,0 0.13,0.49 -0.33,-0.3 0.2,-0.19 z m -0.83,-2.29 0,0 0,0.24 -0.24,-0.12 0.03,-0.29 0.21,0.17 z m -0.75,-1.92 0,0 0,0.15 -0.12,-0.11 0.07,-0.18 0.05,0.14 z m -0.21,-0.52 0,0 0,0.07 0.04,-0.02 0.03,0.17 -0.11,0.06 -0.04,-0.06 -0.01,0.01 -0.08,-0.14 0.17,-0.09 z m -4.32,-9.49 0,0 0,0.47 -0.06,-0.56 0.06,0.09 z m -0.45,-1.34 0,0 0.37,0.93 -0.18,-0.07 -0.38,-0.93 0.19,0.07 z m -1.11,-1.31 0,0 -0.04,0.36 -0.77,-1.08 0.04,-0.36 0.77,1.08 z m -1.67,-2.86 0,0 0.13,0.95 -0.49,-1.17 -0.28,-0.17 0.64,0.39 z m -1.1,-2.14 0,0 0.01,0.07 0.04,-0.02 0.02,0.16 -0.1,0.06 -0.04,-0.05 -0.01,0 -0.09,-0.14 0.17,-0.08 z m 0.58,-8.11 0,0 -0.04,0.08 -0.13,-0.03 0.08,-0.15 0.09,0.1 z m 5.05,-7.06 0,0 0.24,1.99 -0.23,0.79 -0.18,-0.41 -0.56,0.27 -1.06,0.34 -0.15,-0.87 0.6,-1.43 -0.33,-0.47 -1.16,1.11 -0.61,0.8 -0.46,0.73 -0.2,1.25 0.91,0.75 1.3,0.55 0.86,0.76 -0.32,0.5 -2.34,-0.37 -0.99,-0.02 -0.31,-0.42 0.26,-1.38 0.64,-1.83 1.15,-2.01 1.65,-1.4 0.95,-0.27 0.34,1.04 z m 34.61,-18.16 0,0 -0.05,0.09 -0.12,-0.07 0.07,-0.23 0.1,0.21 z m -0.66,-0.44 0,0 0.13,0.24 -0.16,-0.03 0.03,-0.21 z m -3.02,-1.44 0,0 0.01,0.07 0.03,-0.02 0.03,0.17 -0.11,0.06 -0.03,-0.06 -0.01,0.01 -0.09,-0.15 0.17,-0.08 z m -20.94,-0.57 0,0 -0.13,0.12 -0.01,-0.27 0.14,0.15 z m 10.3,-4.6 0,0 -0.08,0.09 -0.06,-0.31 0.14,0.22 z m -6.56,-0.12 0,0 -0.57,0.21 -0.15,-0.35 0.48,-0.07 0.24,0.21 z m 2,-1.29 0,0 -0.22,0.19 -0.05,-0.09 0.12,-0.25 0.15,0.15 z"
     title="Bimini"
     id="BS-BI" />
  <path
     d="m 637.13089,571.7077 0,0 -5.46,6.92 -2.76,8.05 -1.83,1.06 -6.37,2.72 -3.72,-0.58 -1.08,0.34 -0.82,0.41 -1.66,1.19 -0.58,0 0,-0.68 0.57,-0.5 -1.27,-1 -1.84,-0.22 -4.46,2.57 -2.95,-0.17 -5.07,1.21 -3.79,-1.54 -5.48,-0.49 -1.24,0.18 -1.38,0.73 -0.36,0.68 -0.5,0.82 -0.32,0.72 -0.55,-0.12 -1.01,-0.67 -1.09,-1.29 -0.25,-1 -0.21,-1.58 -0.07,-2.07 -1.51,-2.62 -0.28,-0.5 0.28,-0.65 2.55,-0.27 1.44,-0.92 0.54,-1.99 0.16,-1.74 -1.01,-1.24 -0.93,-1.01 0,-0.94 2.94,1.42 1.75,-0.66 1.47,-0.52 1.01,-0.8 2.68,-0.82 0.6,-1.79 1.9,-1.7 0.78,-1.71 1.88,0.44 1.7,-0.98 2.5,-0.02 0.88,-0.03 0.87,-0.43 0.88,-0.66 1.26,-1.81 0.71,-0.78 0.31,0.4 0.55,1.91 1.37,1.65 1.72,2.28 2.21,1.04 5.38,1.75 1.89,-1.19 1.89,-0.93 4.29,-1.08 1.99,-2.55 1.75,-3.59 4.21,-6.73 1.3,-1.78 1.65,-1.03 1.85,0.77 0.65,1.62 -0.1,2.12 -1.7,9.82 -0.71,2.56 z m -0.84,-24.77 0,0 -0.8,0.11 -0.17,-0.97 0.24,-1.14 -0.61,-1.77 -1.12,-1.78 -0.33,-1.88 0.86,-0.68 2,-0.66 1.61,-1 1.5,-1.83 1.29,-0.91 0.8,0.5 1.04,1.35 0.91,0.81 1.7,0.92 1.7,0.76 0.8,0.92 -0.37,1.82 -1.6,1.07 -3.2,0.37 -1.5,1.41 -0.97,0.22 -2.92,1.46 -0.86,0.9 z"
     title="Inagua"
     id="BS-IN" />
  <path
     d="m 628.11089,460.3977 0,0 -1.48,-0.4 -0.82,-0.61 0.2,-0.88 1.57,-1.22 -0.49,-0.65 -0.04,-0.43 0.53,-0.93 0.4,-1.2 -0.15,-1 0.02,-0.84 0.9,-0.75 1.47,1.94 0.73,0.47 1.3,0.18 0,-0.2 0.49,-0.41 0.69,-0.44 0.59,-0.22 0.6,0.05 1.28,0.42 0.71,0.11 2.12,0.79 4.41,3.04 2.04,0.07 -0.42,-0.52 -0.75,-1.49 2.85,1.46 1.43,0.35 0.93,-0.48 1.34,1.04 1.32,0.57 1.54,0.23 1.99,0.06 0.58,0.25 0.66,0.63 1.13,1.36 0.82,0.59 1.68,0 0.74,0.33 0.76,1.7 -0.41,1.86 -1.1,1.51 -1.34,0.62 -1.53,-0.5 -3.98,-3.93 -1.74,-1.29 -1.37,-0.77 -1.5,-0.37 -2.17,-0.1 -0.97,0.11 -1.28,0.48 -0.68,0.1 -1.01,-0.2 -0.55,-0.46 -0.44,-0.45 -0.68,-0.21 -1.85,0.39 -3.39,1.79 -2.07,0.41 -0.91,-0.2 -0.57,-0.44 -0.43,-0.43 -0.46,-0.2 -3.24,-0.69 z"
     title="Mayaguana"
     id="BS-MG" />
  <path
     d="m 587.98089,440.5677 0,0 -1.54,0.28 0.63,-2.51 1.05,-0.76 1.04,0.69 -1.18,2.3 z m 11.89,-0.97 0,0 -0.55,0.14 -3.62,-1.12 -1.6,-0.48 -1.74,-0.28 -0.21,-0.49 1.54,-0.21 1.46,-0.21 1.94,0.49 1.95,0.91 0.83,1.25 z m -32.22,-12.3 0,0 -2.02,3.6 -0.96,0.89 -0.05,-0.93 -0.3,-0.74 -0.56,-0.52 -0.79,-0.28 0.29,1.26 0.71,1.21 0.93,0.59 0.99,-0.59 0.58,1.36 0.79,6.93 0.47,1.43 1.09,2.38 -1.47,0.36 -0.62,1.57 -0.3,2.03 -0.54,1.73 -0.83,1.08 -1.24,1.24 -1.3,1.05 -1.04,0.44 -0.98,0.82 -2.85,5.56 -4.47,3.71 -0.79,0.4 -0.91,0.07 -5.21,2.14 -2.14,0.47 -1.31,1.2 -2.14,3.45 -0.69,0.76 -2.26,1.99 -0.87,0.41 -1.94,0.3 -1.53,0.82 -2.76,2.67 -0.11,-0.84 0.11,-3.27 0.39,-0.91 0.9,-0.25 3.38,0.27 0.72,-0.34 2.58,-2.3 0.07,-0.59 -0.91,-0.68 0,-0.57 1.68,-1.07 0.61,-0.25 -0.5,-0.15 -0.39,-0.17 -0.26,-0.34 -0.07,-0.61 1.72,-0.68 2.52,-1.54 1.98,-0.3 0.46,-0.31 0.93,-1.3 1.14,-0.8 -0.09,-1.17 -0.33,-1.28 0.02,-0.84 1.58,-0.64 2.34,-0.25 2.12,-0.52 0.92,-1.47 0.36,-2.24 0.98,-1.08 1.51,-0.43 1.88,-0.33 3.4,-1.27 2.35,-2.18 0.81,-3 -1.29,-3.74 -2.36,-1.75 -6.09,-0.1 -2.72,-1.37 -1.29,-1.24 0.15,-0.35 1.04,-1.67 0.56,-0.54 0.62,-0.36 0.68,-0.22 -0.55,-0.61 -1.21,-1.93 2.83,0.83 0.68,0.38 0.29,-1.03 0.63,-0.79 0.77,-0.37 0.7,0.29 0.52,-0.39 0.23,-0.13 0.37,-0.05 0,-0.7 -0.7,-0.2 -0.29,-0.19 -0.23,-0.33 -0.53,-0.6 4.42,0.05 2.11,-0.34 2.29,-0.93 0.09,0.36 0.04,0.3 0.13,0.29 0.33,0.27 z"
     title="Acklins"
     id="BS-AK" />
  <path
     d="m 523.97089,441.8577 0,0 -2.64,2.03 0.76,-3.98 2.49,-2.65 3.05,-2.36 2.42,-3.11 -0.44,2.61 -2.45,3.83 -3.19,3.63 z m 13.79,-18.37 0,0 0.31,0.09 1.04,-0.14 0.35,0.05 0.18,0.27 0.41,1.06 1.67,0.58 3.08,0.21 1.79,0.47 -0.64,-1.26 1.91,0.46 5.11,2.02 -6.38,5.82 -0.29,-0.76 -0.04,-0.2 -0.89,-0.37 0.07,-1.53 -1.57,0.29 -2.23,0.69 -6.32,-1.66 -0.88,-0.73 -1.41,-1.55 -0.47,1.09 -1.03,0.92 -1.01,0.5 -0.47,-0.21 0.49,-2.01 -0.01,-1.05 -0.75,-0.46 -5.57,-8.3 0.32,-0.3 0.14,-0.31 0.06,-0.31 0.11,-0.34 0.94,-0.06 1.43,-0.5 0.56,-0.09 1.02,0.3 2.43,1.61 0.86,0.23 1.86,0.16 0.84,0.24 2.4,1.97 0.26,0.79 0.1,1.64 0.22,0.68 z m 32.28,-31.87 0,0 6.44,0.63 4.81,-0.51 1.67,0.51 0,0.7 -7.63,1.54 -3.61,-0.08 -1.68,-2.79 z"
     title="Crooked Island and Long Cay"
     id="BS-CK" />
  <path
     d="m 406.83089,475.2777 0,0 0.33,0.63 0.3,1.19 -0.62,0.7 -1.07,0.03 -0.71,-0.76 -0.5,-1.24 -0.1,-0.73 0.4,-0.11 0.51,0.17 0.52,0.38 -0.09,-0.57 -0.47,-1.56 0.28,-0.18 0.41,0.61 0.81,1.44 z m -2.05,-3.09 0,0 -0.32,0.11 -0.32,-0.24 0.13,-2.39 0.37,0.17 0.23,1.55 -0.09,0.8 z m -1.22,-7.05 0,0 -0.03,0.82 -0.54,-0.35 0.16,-0.68 -0.14,-0.7 0.55,0.91 z m -3.64,-3.8 0,0 -0.24,0.52 -0.66,-0.8 -0.6,-1.4 -0.29,-1.33 0.34,-0.25 0.51,0.97 0.17,0.59 0.33,0.54 0.44,1.16 z m -2.81,-10.04 0,0 -0.57,0.05 -0.37,-0.62 0.03,-0.67 0.21,-0.45 0.39,0.31 0.32,0.75 -0.01,0.63 z"
     title="Ragged Island"
     id="BS-RI" />
  <path
     d="m 480.76089,403.1177 0,0 1.03,0.94 0.74,2.4 0.43,2.81 0.12,3.65 -0.17,0.99 -0.51,0.4 -1.06,-0.34 -0.49,-0.64 -0.63,-3.16 -0.31,0.22 -0.85,0.4 -0.56,-2.42 -2.45,-4.37 -0.89,-3.81 -0.81,-1.3 -2.89,-3.55 -0.89,-0.85 -1.07,-0.52 -9.8,-1.95 -2.13,-1.35 -1.1,-0.9 -6.11,-3.9 -1.35,-0.55 0.26,-0.91 0.4,-0.83 0.53,-0.76 0.68,-0.75 0.53,0 0.85,1.35 2.42,1.19 0.87,1.29 -2.2,-0.32 -0.72,-0.26 0.59,1.08 0.88,0.92 1.02,0.54 1.02,-0.06 1.05,0.7 1.63,1.39 0.78,0.45 0.96,0.24 1.39,0.12 0.87,-0.28 -0.57,-1 -4.89,-5.46 -0.63,-1.57 0.32,-2.51 0.72,-1.82 0.78,-1.48 0.46,-1.51 -0.07,-2.21 -0.56,-2.51 -0.97,-2.22 -1.27,-1.4 -0.31,0.43 -0.91,0.85 0.14,-2.2 -3.24,-2.76 0.17,-2.05 -1.15,-0.29 -1.05,-0.42 -0.54,-0.7 0.4,-1.14 -1.74,-1.39 -0.65,-1.48 -0.53,-4.2 -1.76,-4.47 -0.83,-0.44 -0.56,0.21 -0.61,0.46 -0.98,0.34 0.59,-4.5 -0.49,-1.35 -1.79,1.45 0.8,-1.24 0.36,-0.41 0.53,-0.32 -1.07,-0.34 -0.7,0.67 -0.69,1 -1.05,0.64 0,-0.7 0.87,-0.94 0.67,-1.09 0.36,-1.36 -0.08,-1.71 0.51,0.13 0.44,0.27 0.38,0.39 0.36,0.48 5.03,8.36 1.16,0.73 1.55,1.78 1.43,2.13 0.83,1.79 1.04,6.32 1.03,1.62 1.5,1.67 5.07,9.89 -0.13,0.96 0.67,0.86 0.23,2.02 0,4.12 0.7,4.49 1.45,2.8 2.43,1.71 7.3,2.76 3.15,2.46 5.55,6.25 -0.36,0.48 -0.48,0.91 -0.38,0.46 z"
     title="Long Island"
     id="BS-LI" />
  <path
     d="m 486.91089,337.4477 0,0 -0.55,1.2 -0.86,0.68 -1.81,-0.09 0,0.59 0.53,0.71 -1.55,0.02 -2.05,-0.66 -1.03,-1.35 -1.55,0.71 -2.83,0.03 -1.52,0.54 -0.32,-2.14 0.58,-1.2 1.33,-0.64 1.97,-0.49 4.31,-1.28 3.2,0.04 1.09,0.48 1.92,1.4 -0.86,1.45 z m -27.71,-12.59 0,0 -0.57,0.33 -0.53,-1.49 0.54,-1.35 0.71,-0.14 0.25,0.43 0.03,1.02 -0.43,1.2 z"
     title="Rum Cay"
     id="BS-RC" />
  <path
     d="m 514.21089,305.8177 0,0 -0.71,1.1 -1.23,3.83 -0.09,0.83 -5.63,0.64 0,-0.64 1.45,-1.85 0.98,-2.9 0.36,-3.26 -0.4,-2.87 0.04,-2.26 0.94,-1.36 1.49,-0.84 1.68,-0.67 0.47,-0.39 0.47,-0.52 0.51,-0.3 0.57,0.24 1.28,2.31 0.21,0.23 0.17,0.98 0.78,1.32 0.22,0.61 -0.05,0.86 -0.47,1.85 -0.12,0.84 -3.51,6.12 -0.25,-1.08 0.15,-0.93 0.69,-1.89 z"
     title="San Salvador"
     id="BS-SS" />
  <path
     d="m 441.73089,287.4577 0,0 0.66,1.39 1.42,5.43 -3.89,-1.29 -1.77,-0.16 -2.01,0.17 -3.87,0.79 -1.36,0.74 -1.49,1.33 -2.12,0.21 -2.3,-1.54 -0.97,-1.92 1.85,-0.94 1.26,-0.34 1.83,-0.89 1.69,-1.23 0.85,-1.4 1.65,0.05 0.77,-2.55 -0.37,-3.07 -1.77,-1.48 -2.51,-0.56 -1.76,-1.39 -4.58,-7.51 -0.68,-2.65 -1.64,-2.44 -0.38,-1.28 -0.52,-2.99 -1.45,-2.25 -2.22,-1.31 -2.82,-0.23 0.33,-0.98 0.07,-1.14 -0.13,-1.19 -0.27,-1.13 -0.46,-1.15 -0.44,-0.43 -0.59,-0.29 -3.78,-3.33 -2.76,-1.4 -0.75,-0.53 -0.58,-0.8 -0.08,-0.72 0.39,-0.76 1.78,-2.14 0.71,-0.3 1.29,0.16 0.57,0.42 2.3,2.21 2.23,0.87 1.03,0.57 0.94,1.13 0.66,6.01 0.51,1.77 0.84,0.99 1.37,1.26 1.27,1.49 1.03,2.95 2.38,4.38 4.81,6.99 1.54,1.25 3.35,1.83 1.6,1.35 2.12,4.47 0.51,0.72 0.95,0.64 3.76,4.14 z"
     title="Cat Island"
     id="BS-CI" />
  <path
     d="m 369.78089,215.4677 0,0 -0.3,1.82 0.38,1.68 1.09,2.43 0.33,1.56 -0.33,4.5 -0.45,1.91 -2.02,3.25 -0.45,1.31 -0.22,6.61 0.3,3.63 1.09,3.05 -2.85,-1.26 -1.48,-3.01 -0.93,-3.46 -1.18,-2.63 -1.42,-1.03 -3.74,-1.53 -1.59,-1.01 -1.81,-2.1 0.22,-0.87 1.4,-0.1 8.4,1.43 0.57,-0.25 0.4,-0.61 0.35,-0.73 0.44,-0.64 1.41,-1.42 0.41,-0.84 0.23,-1.31 -0.07,-2.17 -0.7,0.49 -0.99,1.51 -0.9,0.87 -0.52,-1.07 0.1,-2.42 0.74,-4.31 0.48,-1.58 0.24,-0.38 0.5,-0.62 1.51,-1.4 1.36,0.7 z"
     title="South Eleuthera"
     id="BS-SE" />
  <path
     d="m 369.20089,198.0377 0,0 2.57,1.69 1.11,1.31 0.46,1.81 -0.72,8.02 -0.36,1.51 -0.09,0.83 -0.34,0.99 -0.79,0.6 -0.81,0.37 -0.45,0.3 -1.36,-0.7 0.95,-0.89 0.41,-0.67 0.67,-5.4 -0.03,-2.02 -1.54,-4.36 -2.69,-2.31 -3.07,-1.58 -2.7,-2.15 -5.89,-8.68 1.58,-1.35 2.56,3.57 5.18,5.1 5.35,4.01 z"
     title="Central Eleuthera"
     id="BS-CE" />
  <path
     d="m 356.11089,185.3577 0,0 -1.58,1.35 -1.18,-1.73 -2.17,-1.79 -3.25,-1.21 -6.86,-1.52 -3.53,-1.82 -5.17,-4.94 -3.37,-1.02 -1.87,-0.2 -3.54,-0.89 -1.64,-0.2 -1.84,0.48 -3.01,1.69 -1.29,-0.23 2.14,-2.24 1.2,-3.72 1.34,-7.06 -0.59,0 2.95,-0.03 1.33,0.18 0.99,0.5 -0.94,1.47 -0.41,1.46 -0.03,1.62 0.21,1.99 1.34,-1.78 0.96,0.89 0.77,1.83 0.78,1.01 1.66,0.46 10.87,8.44 3.15,1.8 3.97,0.95 3.97,0.17 1.42,0.39 1.36,1.09 1.86,2.61 z"
     title="North Eleuthera"
     id="BS-NE" />
  <path
     d="m 317.03089,161.4777 0,0 1.01,0.22 1.07,0.37 -0.33,0.53 -0.94,-0.08 -2.28,-0.15 0.53,-0.59 0.94,-0.3 z"
     title="Harbour Island"
     id="BS-HI" />
  <path
     d="m 312.00089,163.3377 0,0 0.94,-0.08 0.74,0.3 -0.14,0.52 -1.54,0.67 -1.68,0 -1.07,0.82 -0.94,0.15 -0.07,-0.74 1.34,-0.9 1.08,-0.22 1.34,-0.52 z"
     title="Spanish Wells"
     id="BS-16" />
  <path
     d="m 422.44089,361.4177 0,0 1.37,2.13 -3.08,-1.01 -3.61,-0.72 -3.03,-1.13 -1.39,-2.24 2.87,0.22 3.69,1.05 3.18,1.7 z m -37.46,-23.35 0,0 0.76,1.17 0.94,0.95 1.05,0.56 1.34,0.28 1.82,0.08 -0.29,0.39 -0.15,0.31 -0.23,0.26 -0.5,0.31 5.61,5.99 4.05,2.37 0.92,0.31 1.35,2.91 3.22,2.31 7.19,2.82 -1.23,1.31 -1.96,-0.53 -3.84,-2.12 -4.35,-0.34 -1.62,-0.84 0.71,-1.95 -1.59,-1.12 -1.62,-1.5 -1.48,-0.85 -1.21,0.86 -2.98,-3.18 -3.2,-2.4 -3.62,-1.19 -4.24,0.39 0,-0.64 2.53,-0.77 0.4,-0.21 -0.17,-0.84 -0.57,-0.85 0.09,-0.52 -0.91,-0.61 -0.71,-1.08 -0.17,-1.2 0.68,-1 1.05,0.21 0.74,-0.3 0.56,-0.41 0.52,-0.13 0.67,0.3 0.44,0.49 z"
     title="Exuma"
     id="BS-EX" />
  <path
     d="m 355.69089,309.7177 0,0 -0.53,0.58 -1.29,-1.33 -1.58,-3.33 -1.4,-2.15 -1.05,-2.79 -0.89,-1.52 -0.33,-0.97 0,-1.36 2.12,1.5 4.95,11.37 z m -13.08,-23.22 0,0 0.74,1.31 -1.61,-0.01 -0.97,-0.48 -3.61,-4.65 -0.8,-1.38 -0.03,-1.18 1.32,0.77 0.78,1.17 0.6,1.32 0.82,1.24 1.01,0.8 0.92,0.46 0.83,0.63 z m -25.78,-27.42 0,0 -0.55,0.45 -0.88,-0.39 -0.5,-1.22 0.23,-1.67 0.66,-0.36 0.62,0.86 0.27,0.49 0.11,0.65 0.04,1.19 z"
     title="Black Point"
     id="BS-BP" />
  <path
     d="m 235.59089,338.2877 0,0 -0.48,0.19 -0.28,-0.26 -0.5,-0.27 0.67,-0.22 -0.3,-0.28 0.06,-0.55 1.13,-0.17 0.5,0.46 -0.3,0.54 -0.5,0.56 z m -8.12,-8.09 0,0 -0.47,0.58 -0.4,-0.04 -0.76,-0.48 0.3,-0.59 1.33,0.53 z m 55.6,-26.15 0,0 -0.47,0.99 -0.51,-0.18 -0.6,-0.66 -0.38,-0.18 0.58,-0.26 0.98,-0.17 0.4,0.46 z m -31.92,0.63 0,0 -0.44,1.8 -0.1,0.97 0.28,0.52 1.2,1.78 0.28,0.89 -0.28,1.11 -0.6,0.75 -0.6,0.46 -0.28,0.28 -0.88,0.41 -1.87,0.04 -1.67,0.7 -0.31,2.37 3,-2.14 1.77,-0.81 1.72,0.33 0.72,1.33 -0.52,3.55 0.44,1.57 -1.46,3.34 -1.15,0.59 -2.12,-0.67 0.28,1.18 1.55,1.28 0.5,1.38 -0.12,1.26 -0.49,1.38 -0.62,1.17 -0.52,0.66 -2.69,0.94 -2.05,-0.88 -1.86,-1.39 -2.17,-0.59 1.47,1.8 -0.03,0.82 -0.8,1.22 -0.64,0 -1.43,-1.99 -2.54,-0.69 -5.44,0.18 2.92,-1.34 -0.43,-1.6 1.83,0.05 4.5,1.55 0.52,-1.69 0.87,-1.2 1.19,-0.88 4.61,-2.2 1.29,-1.02 0,-1.06 -1.53,-0.59 -1.51,0.87 -1.45,1.3 -1.38,0.66 -5,3.26 0.33,0.26 0.25,0.32 -2.05,-0.24 -2.06,-2.96 -1.74,-0.64 5.63,-2.05 2.85,-1.72 0.41,-1.99 -1.23,1.33 -1.68,0.54 -4.54,0.05 -1.22,0.25 -1.05,0.45 -0.99,0.28 -1.1,-0.27 -0.7,-0.76 -0.52,-1.12 -1.25,-6.3 -0.11,-2.37 0.53,-1.03 3.51,-2.64 3.22,-2.54 1.59,0.45 1.36,-1.23 2.66,-5.44 1.79,-2.04 0.84,-1.36 0.34,-1.84 0.1,-2.37 0.31,-2.23 1.01,-1.37 1.7,0.27 1.27,1.88 1.04,2.35 0.96,1.68 1.09,1.34 0.61,1.42 0.28,1.65 0.16,3.1 0.44,1.98 0.1,0.82 -0.1,1.08 z"
     title="South Andros"
     id="BS-SA" />
  <path
     d="m 233.60089,304.5377 0,0 -3.22,2.54 -3.51,2.64 -1.25,-0.43 -0.05,-1.04 0.37,-1.29 0,-1.14 -0.98,-1.09 -1.18,-0.71 -0.67,-0.62 0.55,-0.79 0,-0.63 -1.68,-1.06 -5.34,-2.15 0.51,-0.71 0.6,-0.63 1.23,0.81 0.48,-0.26 0.07,-0.68 -0.02,-0.45 0.05,-0.88 -0.25,-0.43 -0.01,-0.42 0.74,-0.84 0.87,-0.46 2.32,-0.78 0.96,-0.74 0.34,-0.79 0.56,-2.31 0.32,-0.74 2.93,-0.21 1.11,-0.44 0.87,-0.75 0.3,-0.58 0.18,-0.73 0.51,-1.14 1.29,-1.09 3.54,-1.48 0.97,-1.28 2.39,-1.34 0.8,1.26 0.63,1.51 0.71,1.25 1.05,0.52 0.58,0.52 -0.82,1.11 -5.29,4.42 -2.1,1.17 -2.63,0.49 0,0.63 1.52,0.13 0.64,0.7 -0.38,0.79 -1.52,0.36 -0.33,0.37 0.89,0.85 2.11,1.35 1.36,-0.6 0.46,1.03 -0.22,1.7 -1.41,2.67 -0.28,1.21 -0.45,1 -1.22,0.68 z"
     title="Mangrove Cay"
     id="BS-MC" />
  <path
     d="m 228.60089,284.9177 0,0 -0.52,0.47 -1.5,0.44 -0.71,0.01 -0.36,-0.31 -0.44,-0.17 -0.88,0.47 -0.6,0.89 -0.82,2.57 -0.88,1.09 -1.11,0.81 -4.36,2.2 -1.54,0.19 -0.56,-0.69 -0.44,-1.25 -0.17,-1.31 0.24,-0.88 0.79,-0.09 1.07,0.3 0.95,0.03 0.41,-0.89 0.85,-0.31 4.7,-3.24 0.41,-0.17 1.39,-0.82 0.89,-0.3 3.51,0 -0.32,0.96 z m -11.95,0.37 0,0 0.52,1.24 -1.24,-0.31 -2.17,0.32 -1.27,-0.01 -0.93,-0.39 -1,-0.77 -0.34,-0.83 1.04,-0.58 2.23,-0.43 2.22,-1.06 1.77,-0.49 0.91,1.28 -1.27,0.05 -0.53,0.79 0.06,1.19 z m 7.99,-8.19 0,0 -1.6,0.76 -1.4,-0.73 0,-1.3 1.24,-0.54 2.52,-0.3 0.59,0.05 -0.36,0.69 -0.99,1.37 z m 14.24,-2.37 0,0 -0.02,0.83 -0.66,0.52 -0.88,-0.29 -0.91,-0.56 -0.74,-0.31 -1.51,0.1 -0.9,0.36 -1.69,1.81 -1.64,1.13 -1.11,-0.25 -0.39,-0.93 0.49,-0.93 1.88,-0.95 1.6,-1.15 1.61,-0.73 1.72,-0.43 1.38,0.11 0.59,0.33 0.69,0.59 0.49,0.75 z m -28.73,7.31 0,0 -0.83,0.21 -0.82,-0.29 -0.73,-0.57 -0.55,-0.63 -0.97,-2.59 -0.55,-3.21 -0.89,-2.74 -2,-1.15 -2.63,-1.15 -0.58,-2.78 0.56,-6.41 2.96,-4.33 2.4,-4.61 3.59,-1.98 7.49,-1.98 9.29,-0.99 7.9,1.35 -0.51,1.29 -0.5,1.79 0.7,2.3 1.88,4.01 0.41,3.32 -0.79,2.41 -1.98,1.48 -3.23,0.5 -1.32,0.41 -0.89,0.95 -0.75,1.07 -0.87,0.78 -2.6,0.34 -0.68,0.81 1,2.06 -1.03,1.05 -3.12,2.16 -1.55,0.47 -2.98,0.03 -1.03,0.47 -3.37,2.47 -0.43,0.76 0.17,0.82 0.29,0.77 0.06,0.69 -0.52,0.64 z"
     title="Central Andros"
     id="BS-CS" />
  <path
     d="m 233.79089,248.1877 0,0 -7.9,-1.35 -9.29,0.99 -7.49,1.98 -3.59,1.98 -2.4,4.61 -2.96,4.33 -1.55,1.21 -1.06,1.26 -1.3,0.98 -2.27,0.41 -1.71,-0.46 -10.72,-6.12 -5.13,-4.76 -1.63,-1.96 -1.07,-2.14 1.15,-0.28 1.78,-0.82 1.63,-0.99 0.71,-0.83 0.26,-1.31 0.63,0.12 0.8,0.63 0.7,0.21 0.92,-0.58 0.67,-0.7 0.15,-0.88 -0.63,-1.06 1.13,-1.63 1.37,0.05 1.16,1.25 0.49,1.97 -0.1,1.62 -0.32,1.42 -0.55,1.26 -0.78,1.2 -1.5,1.06 -0.26,0.23 0.17,0.92 0.42,0.83 0.62,0.34 2.31,-1.47 1.27,-0.37 0.7,-0.75 -0.22,-2.08 1.67,0.8 0.01,1.7 -0.45,1.98 0.26,1.66 1.42,0.87 0.81,-1.18 0.19,-2.08 -0.4,-1.82 0.82,0.37 0.89,0.53 0.77,0.24 0.45,-0.49 -0.06,-1.36 -0.63,-0.94 -0.86,-0.75 -0.74,-0.82 -0.11,-0.56 0.19,-1.43 -0.08,-0.58 -0.53,-0.71 -1.34,-1.23 -0.52,-0.69 -0.34,-1.32 -0.24,-1.49 -0.53,-0.88 -1.24,0.46 0.91,0.79 0.32,1.46 -0.05,3.61 -0.81,-1 -0.55,-1.54 -0.67,-1.41 -1.19,-0.62 -0.15,-0.71 0.25,-1.61 0.77,-2.83 1.31,-1.38 1.88,-1.56 1.31,-1.88 -0.35,-2.32 0.81,-0.58 2.24,-0.44 0.46,-0.57 0.26,-1.19 1.17,-2.3 0.27,-1.31 0.77,-0.09 -0.3,-0.74 -0.69,-0.99 -0.36,-0.83 0.18,-0.75 0.46,-1.31 0.66,-1.25 0.77,-0.56 0.67,-1.19 -0.19,-2.65 -0.8,-4.25 -0.92,-3 -1.79,-3.93 -1.15,-3.62 0.99,-2.09 1.45,0.08 3.11,0.6 1.3,0.56 1.04,0.99 0.59,1.06 0.71,0.85 1.42,0.34 1.31,-0.56 1.26,-1.04 1.31,-0.64 1.47,0.65 1.1,0.8 1.2,0.65 1.16,0.82 0.92,1.31 -1.27,1.48 -0.22,1.67 0.68,1.55 1.41,1.11 -1.08,3.74 -0.35,2.32 0.52,1.04 1.56,0.24 1.29,0.78 1.12,1.41 5.21,13 3.79,5.7 1.42,1.54 1.46,0.66 1.03,0.63 3.17,3.18 0.8,1.35 0.09,1.69 -0.14,2.31 -0.35,2.17 z"
     title="North Andros"
     id="BS-NS" />
  <path
     d="m 225.20089,173.6277 0,0 -0.85,1 -1.04,0.46 -1.32,0 -0.76,-0.08 -1.57,-0.03 0.08,-0.18 0.5,-0.43 0.65,-0.3 0.52,-0.05 0.99,0.08 1.34,-0.09 1.02,-0.62 0.65,-0.87 0.24,0.04 -0.45,1.07 z m 1.82,-27.86 0,0 0.14,0.86 -1.05,-0.11 -1.08,-1.27 -1.37,-2.51 -1.75,-1.95 -0.58,-1.19 0.56,-0.77 1.09,0.21 0.83,0.96 3.21,5.77 z"
     title="Berry Islands"
     id="BS-BY" />
  <path
     d="m 251.25089,89.5277 0,0 -0.37,0.73 -2.6,2.89 0.48,-2.13 -0.44,-1.33 -0.61,-1.25 -0.02,-1.87 0.79,0.46 2.3,1.94 0.47,0.56 z"
     title="Moore's Island"
     id="BS-MI" />
  <path
     d="m 252.34089,110.1377 0,0 -0.54,1.13 -0.28,-0.04 -0.31,-0.49 -0.48,-0.36 -0.4,-0.47 0.01,-0.25 0.7,-0.44 0.37,-0.67 0.36,0.01 0.57,1.58 z m 43.59,-21.1 0,0 -0.7,0.79 -0.69,0.57 -0.71,0.35 -1.53,0.32 0.18,-0.4 0.41,-1.43 -2.78,0.33 -2.64,1.5 -2.35,2.12 -1.91,2.18 -0.81,2.37 -0.75,7.29 0.13,1.81 -0.9,5.37 0.43,7.68 -0.31,6.87 -3.08,2.98 -2.25,-1.19 -1.99,-2.71 -1.41,-2.98 -0.54,-1.97 -1.38,-1.24 -6.26,-1.38 -1.72,-2.31 1.38,-0.01 1.56,-0.54 1.27,-0.99 0.96,-2.36 1.05,-0.29 1.25,-0.15 1.04,-0.52 3.13,-3.59 2.01,-1.69 2.19,-0.94 -0.55,-0.78 -0.35,-0.79 -0.17,-0.9 -0.04,-1.14 -0.35,-0.66 -0.72,-0.57 -0.65,-0.7 -0.14,-1.04 0.53,-1.07 0.8,-0.82 0.74,-0.91 0.32,-1.4 -0.04,-2.52 17.05,-6.71 0.19,1.04 0.42,0.66 0.43,0.46 0.19,0.49 0.09,0.77 0.12,0.37 -0.15,0.38 z"
     title="South Abaco"
     id="BS-SO" />
  <path
     d="m 271.71089,84.8177 0,0 0.29,0.28 0.52,-0.17 0.19,0.3 -0.04,0.44 0.05,0.35 0.31,0.48 0.1,0.59 -0.27,2.19 -0.23,0.3 -0.45,-0.33 0.42,-2.01 -0.63,-1.51 -0.34,-0.25 -0.45,-0.01 -1.01,0.71 -0.2,-0.33 0.51,-0.44 1.23,-0.59 z m 0.58,-4.99 0,0 -0.22,0.04 0.14,-0.45 1.16,-1.08 0.88,-0.78 0.67,-0.03 -0.2,0.66 -0.91,0.85 -1.52,0.79 z m 4.7,-6.32 0,0 0.13,0.36 -0.04,0.09 -0.16,-0.07 -0.32,-0.05 -0.07,0.15 0.19,0.16 0.02,0.07 -0.17,0.04 -0.09,1.13 0.21,1.11 -0.48,0.4 -0.33,0.04 -0.34,0.01 -0.75,-0.39 -0.36,-1.06 -0.42,-0.71 -0.5,-0.49 0.13,-0.4 0.37,0.05 0.41,-0.29 0.49,-0.51 0.69,-0.21 0.82,0.15 0.57,0.42 z m -16.76,-14.12 0,0 0.33,0.2 0.29,-0.14 0.17,0.4 -0.03,0.83 0.05,0.27 0.25,0.18 -0.26,0.16 -0.76,-0.3 -0.12,-0.51 0.14,-0.53 -0.25,-0.56 0.19,0 z m 14.91,-5.29 0,0 -1.15,0.36 -2.8,-0.1 1.26,2.59 1.77,2.1 2.23,1.4 5.24,0.97 2.35,1.17 4.12,3.01 3.14,1.74 1,0.88 0.78,1.24 0.64,1.76 0.01,1.55 -1.13,0.67 -0.27,0.67 -0.03,4.26 0.3,1.57 0.78,1.01 1.14,0.62 1.35,0.37 -1.1,2.22 -0.13,0.71 -17.05,6.71 -0.24,-1.23 -1.45,-1.44 2.71,-4.04 -0.1,-0.92 -0.75,-1.15 -0.13,-6.74 1.26,-0.03 0.93,-0.53 0.72,-0.92 0.59,-1.14 0.1,-0.48 -0.1,-1.83 0.24,-0.67 0.54,-0.4 0.61,-0.26 0.42,-0.28 0.87,-1.5 0.38,-1.73 -0.61,-1.41 -3.04,-0.81 -2.01,-0.93 -7.93,-1.18 -1.51,-0.94 -0.96,-1.63 -1.03,-2.35 0.39,-0.59 0.1,-0.78 -0.24,-0.83 -0.97,-1.28 -0.44,-1.02 -0.3,-0.47 -0.45,-0.16 4.06,-0.92 1.78,1.22 2.01,0.65 2.83,0.19 -0.73,1.05 z"
     title="Central Abaco"
     id="BS-CO" />
  <path
     d="m 269.25089,50.9877 0,0 -4.06,0.92 -0.4,0.37 -0.42,0.51 -0.51,0.26 -1.75,-0.17 -1.35,-0.55 -0.6,-0.99 0.51,-1.5 -1.42,-3.26 -3.9,-6.54 -2.34,-2.78 -1.45,-1.05 -1.87,-0.71 -1.91,-0.06 -1.58,0.88 -1.49,0.53 -2.03,-0.33 -5.04,-1.67 -1.55,-0.2 -3.4,-0.01 -1.01,-0.32 -2.42,-1.62 -1.51,-0.68 -1.57,-0.25 -6.78,0.51 -2.71,1.01 -1.81,0.05 0.25,-0.38 0.26,-0.14 0.61,-0.14 3.09,-2.02 3.88,-0.72 8.02,0.11 7.89,1.81 4.51,0.41 1.96,-1.56 4.57,2.15 3.62,2.74 15.71,15.39 z"
     title="North Abaco"
     id="BS-NO" />
  <path
     d="m 183.35089,1.5977 0,0 -0.89,-0.91 0.8,-0.4 0.69,0.45 -0.6,0.86 z"
     title="Grand Cay"
     id="BS-GC" />
  <path
     d="m 224.77089,61.9377 0,0 0,0.42 -0.41,0.69 -0.32,1.01 -0.54,0.83 -0.55,0.02 -0.18,-0.27 -0.21,-0.37 -1.17,-1.44 -0.39,-0.81 -0.17,-0.82 0.45,-0.38 2.59,-0.49 0.39,0.45 -0.8,1 -0.18,0.28 0.64,-0.4 0.27,-0.28 0.46,-0.46 0.94,-0.76 0.25,0.28 -0.77,0.94 -0.3,0.56 z m -6.31,-11.7 0,0 1.53,3.39 0.06,1.84 -0.71,1.54 -1.59,0.68 -0.62,-0.24 -1.45,-1.25 -0.8,-0.47 -1.1,-0.2 -5.6,0.32 -5.1,1.19 -11.77,2.37 -4.77,0 -10.09,2.59 -2.98,-6.41 -2.44,-4.95 3.13,1.24 1.78,-0.47 3.95,0.98 4.37,0.77 2.82,0.1 1.15,-1.74 1.77,-0.89 2.68,1.21 1.63,0.3 3.05,-1.27 4.12,0.58 2.72,-0.84 2.72,-1.24 1.74,-0.24 5.44,-0.1 1.32,-0.56 0.81,-1.07 0.58,-1.24 0.76,-1.06 1.35,-0.57 0.2,1.78 -0.43,1.96 -0.23,1.97 z"
     title="East Grand Bahama"
     id="BS-EG" />
  <path
     d="m 171.34089,45.4777 0,0 -0.21,0.28 -0.03,0.15 0.09,0.31 -0.24,0.14 -0.37,0.11 -0.59,0.01 -0.65,-0.74 -0.12,-0.76 0.34,0.03 0.67,0.69 0.11,-0.08 0.09,-0.42 0.23,-0.43 0.33,-0.22 0.28,0.34 0.07,0.59 z m -2.8,18.55 0,0 -1.54,0.26 -1.6,0.51 -2.6,2.25 -1.68,0.51 -0.69,0.46 -1.26,-1.42 -1.98,0 -1.78,2.45 0.88,1.51 -0.8,0.68 -1.79,0.16 -0.81,0.4 -3.5,-0.33 -3.41,-1.22 -2.08,-2.06 -3.73,-2.3 -9,-9.31 -4.08,-3.39 -0.91,-1.45 0.92,-0.02 0.75,0.2 0.64,0.44 0.56,0.69 11.02,7.01 2.55,3.52 1.69,-0.32 1.36,-0.21 2.76,1.2 2.05,0.03 1.93,-0.91 1.75,-1.24 1.18,-0.54 1.01,-0.63 0.66,-0.44 0.32,-0.78 1.09,-0.88 0.22,-1.19 1.25,-1.06 1.05,-2.16 1.59,-1.06 -0.2,-1.02 -2.06,-1.29 -3.56,-0.65 0.59,-1.25 2.33,-2.68 0.51,-1.18 0.66,-4.06 1.63,1.18 1.51,1.89 1.1,2.07 0.44,1.71 1.62,0.98 3.93,1.55 2.44,4.95 2.98,6.41 -7.91,2.03 z"
     title="West Grand Bahama"
     id="BS-WG" />
  <path
     d="m 160.43089,68.0177 0,0 -0.81,0.55 -1.83,0.92 -1.5,1.07 -0.88,-1.51 1.78,-2.45 1.98,0 1.26,1.42 z"
     title="City of Freeport"
     id="BS-FP" />
  <path
     d="m 256.22089,214.5277 0,0 -1.29,-0.76 -1.66,-0.17 -1.58,0.04 -1.08,-0.11 -1.4,-1.6 0.93,-1.81 2.04,-1.55 1.94,-0.84 1.26,-0.22 2.89,-1.08 1.31,-0.14 3.66,0.14 3.64,-0.67 1.34,0.03 1.19,0.42 2.05,1.25 3.28,0.76 -0.93,1.13 -8.98,4.22 -2.07,-0.06 -2.74,-1.21 -0.49,0.79 -0.98,1.13 -1.2,0.72 -1.13,-0.41 z"
     title="New Providence"
     id="BS-NP" />
</svg>
