<?xml version="1.0" encoding="UTF-8" standalone="no"?>
<svg
   xmlns:mapsvg="http://mapsvg.com"
   xmlns:dc="http://purl.org/dc/elements/1.1/"
   xmlns:rdf="http://www.w3.org/1999/02/22-rdf-syntax-ns#"
   xmlns:svg="http://www.w3.org/2000/svg"
   xmlns="http://www.w3.org/2000/svg"
   width="612.58966"
   height="588.53467"
   mapsvg:geoViewBox="15.714400 45.275910 19.625600 42.560878"
   >
  
  <path
     d="m 456.61635,43.181189 -3.6,2.45 0.05,1.57 7.86,1.52 -0.25,-5.85 3.19,-2.19 1.8,3.47 -2.91,3.2 10.58,9.95 -1.27,4.85 4.58,-1.04 5.71,1.26 -1.31,6.12 -3.25,0.41 0,0 -0.33,1.31 0,0 -6.56,2.3 0,0 -1.97,-0.33 0,0 -4.27,-1.64 0,0 -21.66,-12.8 0,0 -8.69,-10.31 5.59,0.46 1.38,3.55 0.55,-4.02 2.14,-2.36 -3.11,-2.74 0.61,-1.48 4.77,2.39 1.41,3.4 1.33,-2.41 -1.64,-3.73 5.93,2.92 3.16,-3.18 0.18,2.95 z m -54.24,-7.18 3.44,-0.38 2.85,3.12 14.8,-1.77 7.79,9.64 0,0 -4.67,0.97 -1.97,3.28 -1.64,0 0.33,4.27 -5.25,-2.3 -1.31,3.28 -4.92,-1.31 0,0 -2.95,5.25 -4.59,0.98 1.31,-5.58 -12.14,-7.22 0,0 -4.3,-4.48 0,0 3.45,-3.98 -1.88,-3.93 2.41,-3.6 6.2,-1.66 3.04,5.42 z m -368.990003,-25.2 -0.42,3.21 1.75,2.17 5.76,-4.34 7.1,3.5 1.13,3.78 -2.1,3.5 4.85,0.38 1,4.53 2.14,0.24 2.49,5.68 0.85,5.9 10.31,4.88 11.24,10.83 1.27,4.24 5.65,-0.28 0,0 1.05,3.49 -16.08,3.61 10.83,25.6 5.58,-1.31 5.91,9.52 4.27,0.980001 7.880003,-11.490001 13.46,5.25 9.19,-1.97 3.94,2.3 3.94,-1.97 4.59,8.210001 12.14,-0.98 5.58,3.28 3.28,3.94 4.27,13.78 -1.97,8.2 8.53,3.94 0,9.19 1.97,4.27 3.28,2.3 -2.3,6.89 3.28,3.61 -1.31,3.94 -2.3,2.63 -4.92,1.64 -6.89,0.66 -41.68,-4.59 -12.14,3.28 -0.33,6.24 3.45,8.06 13.88,10.48 6.24,9.52 9.19,6.24 10.17,2.63 12.14,12.14 3.28,0.33 5.58,4.92 4.59,-0.33 2.63,2.63 -1.97,2.3 4.27,3.28 1.97,4.92 17.07,13.13 5.25,9.52 3.28,0 6.89,4.92 16.41,-1.31 5.09,-3.47 3.97,-6.38 -0.66,-20.68 -5.25,-5.25 -5.25,-19.36 -5.25,-4.92 0,-4.92 6.56,-5.25 -1.64,-12.14 1.97,-2.3 3.94,0.33 5.58,3.28 6.24,-1.97 1.31,-3.28 12.47,6.56 4.59,4.92 0.66,5.25 9.19,2.63 1.97,4.27 8.2,-0.98 11.49,1.97 7.22,-6.24 3.61,0.33 6.89,-6.24 4.27,-1.31 1.31,-3.94 14.11,-2.63 8.21,-3.94 4.27,-4.92 1.64,-9.19 -1.97,-8.53 -4.59,-6.56 -5.91,-14.11 3.35,-6.87 6.5,-7.24 1.97,2.3 10.83,-1.31 4.59,3.61 3.61,0 -0.33,8.2 2.95,5.58 -1.64,1.31 3.61,2.95 -1.31,4.27 0.98,5.91 8.86,-4.92 12.47,-0.66 1.31,2.3 7.22,1.64 16.74,-2.63 4.59,-5.25 -5.58,-4.92 -5.25,0.33 -4.92,-4.59 0.99,-1.64 -2.3,-3.28 -4.92,-0.98 -6.89,-4.27 -5.58,0.33 -4.92,-4.27 -2.63,1.64 -1.97,-2.63 1.64,-3.28 -1.31,-3.94 2.63,-2.3 12.14,-3.28 3.28,1.31 7.22,-0.66 7.22,-8.86 -1.64,-2.950001 1.64,-6.56 8.21,-10.83 -1.31,-2.63 6.89,0.66 0.98,-1.31 3.94,1.97 0.98,4.27 6.24,6.89 1.31,6.89 7.32,0.5 0,0 -0.43,0.16 0,0 -4.59,3.280001 -4.92,-0.33 -0.33,3.28 4.27,2.3 0.66,1.31 -2.63,1.31 3.61,2.3 0.98,1.64 -1.31,1.64 4.92,5.91 9.19,-0.98 2.63,2.95 5.58,-0.33 5.58,-5.91 8.86,-1.64 0.98,3.61 1.64,-2.95 1.97,0 0,0 0.31,-0.37 0,0 2.65,4.96 -0.66,4.27 -9.19,3.94 -2.63,2.95 -2.3,7.22 2.63,7.55 2.95,3.28 4.92,1.64 0.33,5.91 6.89,1.31 5.25,4.27 4.92,-0.33 2.63,-2.3 2.63,-10.17 4.92,-6.24 1.97,-0.66 1.97,1.97 1.97,-1.97 2.3,1.31 2.3,1.64 -2.3,5.25 1.13,6.07 -3.98,6.29 2.15,1.82 -1.66,5.96 -2.98,-0.66 0,5.8 -4.31,0.83 -5.3,12.59 -4.97,-1.66 -3.98,1.66 -1.16,5.3 -2.98,3.15 -4.8,1.66 -0.17,2.82 -7.45,3.48 -2.32,3.64 2.32,8.94 -0.33,6.63 2.98,7.78 4.31,3.64 -1.99,2.48 1.33,6.54 -5.96,4.47 0.33,1.99 -9.11,2.32 -2.98,4.64 -6.29,2.82 -7.79,6.29 -1.16,5.13 -3.81,2.82 -3.48,7.62 -2.65,1.66 -8.45,18.55 1.16,4.97 -2.82,2.15 -2.65,6.29 -8.61,-4.14 -3.31,1.66 -7.29,9.61 0.5,3.64 5.13,2.15 1.66,3.31 -0.83,1.99 6.29,6.13 23.52,-0.33 2.65,5.13 8.12,4.71 4.11,-2.39 5.47,1.66 9.61,-17.06 1.99,0.17 3.81,-3.48 12.09,1.32 5.63,-2.48 2.98,1.66 0.33,6.79 3.97,1.66 4.47,9.28 2.32,-0.83 3.64,4.97 -15.9,11.76 -2.65,3.31 0.5,1.49 -17.23,5.8 -9.61,-3.48 -11.43,-7.79 -5.63,-0.83 -2.82,2.82 -3.64,0.17 -8.38,-8.85 -2.51,1.4 -5.47,-2.48 -1.33,-3.81 -2.98,-0.66 -8.12,10.1 -1.66,3.64 0.46,5.05 -6.96,7.95 2.32,2.82 -1.99,12.26 -2.98,-1.49 -5.63,3.15 -6.96,-2.82 -6.29,2.18 -5.14,-3.92 -2.32,3.31 -21.04,-2.15 -6.63,6.13 1.66,6.63 -5.13,7.95 1.33,5.96 7.79,4.31 -0.99,13.75 -3.97,9.11 -3.48,3.64 -5.3,2.32 -3.98,5.96 1.66,4.64 4.64,3.81 -0.17,6.13 5.96,-0.33 4.47,8.45 -10.27,9.61 0.33,4.31 -2.82,6.79 3.15,4.64 1.99,7.79 3.15,2.82 -0.83,4.97 2.82,2.98 -0.5,2.65 4.31,0.66 5.3,7.37 2.65,0.99 7.79,8.45 1.99,3.31 -0.83,1.99 8.94,2.98 0.66,3.48 5.96,6.63 0.83,3.15 3.48,1.16 4.14,4.8 -0.17,1.99 3.64,2.48 0,0 -0.76,1.63 -7.03,2.22 -11.02,-13.16 -4.24,0.53 -1.86,-4.94 -6.46,-1.78 0.17,-5.16 -10.06,-7.54 -5.21,-1.15 -1.94,-4.67 -3.41,-0.74 -3.66,-3.7 -9.14,-2.46 0.83,-5.02 -3.65,-1.17 -2.97,-6.02 -0.33,-6.49 -5.51,-4.6 -4.44,6.07 -9.15,-6.45 -5.35,-0.92 -6.53,8.05 -2.93,-3.17 -12.58,-6.6 11.19,4.13 -7.1,-5.49 5.48,-0.36 0.88,-1.9 2.07,0.51 12.49,-5.63 -11.3,-24.42 -32.44,-19.76 0.5,-4.83 -3.02,-5.8 -4.57,-3.68 -8.11,-1.52 -1.27,-6.77 -12.05,-22.62 4.13,-8.52 -0.67,-9.06 -7.95,-7.3 -12.69,0.49 -11.67,-11.23 -2.8,-1.12 -1.94,1.44 -12.35,-16.3 -5.77,-5.21 -3.4,-6.47 -12.33,-10.85 -4.3,-7.53 -6.87,-1.55 -2.57,-2.66 -4.08,-6.7 -1.33,-8.97 -12.74,-9.11 -5.21,-7.36 -7.31,-4.55 -0.88,-5.59 -5.51,-9.54 -9.75,-1.13 -1.91,-11.06 -9.03,0.2 -1.71,-3.95 -4.160003,-3.65 -1.1,-4.76 -8.68,-7.41 -5.63,-9.14 -2.97,-14.8 -0.59,-10.72 1.21,-2.99 -1.33,-2.75 -13.21,-4.63 -0.77,-3.82 3.71,0.83 3.8,-1.94 -3.22,-4.06 -0.11,-5.77 -1.58,-1.09 1.94,-6.12 -2.61,-7.3 -15.21,-8.2 -3.39,-6.93 0.78,-1.29 4.04,0.11 -0.41,-4.03 2.94,-0.35 -3.72,-9.14 -8.83,-4.41 -3.02,-8.56 -5.4,-2.28 -3.87,-5.42 -5.98,2.31 -1.3,2.42 -5.35,0.81 -1.64,-3.38 -4.63,-2.37 -9.76000008,-15.45 1.09999998,-2.220001 5.38,-0.15 4.4800001,-3.98 -5.2700001,-5.04 -1.79,-11.04 1.89,-10.24 5.4800001,-1.28 -0.28,-7.06 -6.0600001,-12.95 5.7000001,-11.09 -3.2800001,-11.74 2.9300001,-4.89 4.51,-4.71 2.82,0.51 2.18,-3.99 8.21,1.57 -0.06,-2.44 5.16,0.18 z"
     title="Federacija Bosna i Hercegovina"
     id="BA-BIH" />
  <path
     d="m 547.96635,83.931189 6.46,-3.59 3.97,2.07 3.9,-1.08 6.62,4.25 2.85,-0.07 1.27,4.64 2.05,0.9 -2.61,3.34 -2.74,-0.7 1.61,3.1 -2.75,3.670001 -3.96,-0.11 -0.3,5.74 -3.25,1.98 4.24,0.31 0.92,2.02 -4.26,1.8 3.87,5.89 -1.27,2.04 -2.75,-0.92 1.64,8.27 -5.4,2.68 -4.43,10.06 0.53,1.84 -4.9,4.56 0.42,3.53 -5.02,2.45 -1.66,3.68 2.32,3.28 -3.71,5.89 -6.93,0.46 -1.56,4.57 2.02,1.77 2.44,8.44 0.03,8.13 -5.98,4.89 -0.99,5.35 2.19,1.2 -1.27,2.42 0.92,2.62 3.07,1.11 -0.55,4.71 5.04,6.52 2.74,1.05 4.63,-1.9 1.72,4.6 2.68,1.72 6.59,-3.14 6.96,1.11 0.63,4.12 3.19,4.16 -0.75,2.85 2.46,2.92 0.14,5.11 7.45,3.02 1.74,5.39 3.99,2.41 4.85,-3.54 0.92,1.83 -1.71,4.54 3.33,0.87 2.64,6.86 6.96,2.8 2.99,4.99 1.44,-0.41 0.97,-4.51 2.07,0.46 0.55,3.8 2.99,0.24 -1.41,3.38 0.95,4.1 -8.81,3.66 0.31,3.1 -3.18,1.5 -3.57,4.81 -14.85,-0.46 -3.97,-1.86 -2.33,1.41 -5.67,-4.75 -2.24,0.19 -4.54,-3.21 -6.34,-0.59 -3.52,-3.86 -1.96,0.52 0.55,6.09 3.15,5.76 5.88,4.72 0.55,3.36 4.1,1.82 0.61,5.28 4.18,2.42 5.46,7.89 1.8,10.87 8.28,4.34 1.3,4.51 6.92,5.85 3.04,18.52 -2.13,2.05 -1.94,-2.31 -1.77,1.49 1.83,3.47 -1.28,4.01 2.39,2 -1.74,1.77 -6.74,-0.65 -5.95,3.27 -6.68,-8.29 -5.79,2.69 -9.51,-2 -3.18,1.85 -1.06,13.56 -4.99,-2.19 -7.4,-0.45 -6.29,4.71 -11.61,-8.84 -4.76,-0.34 -1.56,1.68 -1.52,-1.85 -3.9,5.98 -5.52,1.87 0.5,4.8 2.61,-3.29 1.5,0.82 0.83,12.44 3.38,3.54 2.04,-0.86 4.19,14.79 8.36,12.57 -0.27,7.84 -7.07,1.46 -5.43,6.77 -4.21,-4.05 -0.08,-3.64 -4.58,-2.18 0.61,-8.46 -2.24,-0.26 -5.46,-6.3 -10.84,2.55 2.44,6.11 -9.76,2.76 -15.65,10.75 -0.27,2.48 4.18,4.41 -9.51,13.22 -1.66,7.91 8.18,22.78 -7.73,2.45 -15.41,-2.47 -2.91,3.18 -5.21,12.89 -2.22,1.68 1.17,6.2 2.88,4 -4.66,9.02 1.61,9.59 -3.82,1.87 1.75,4.02 -0.67,3.25 3.16,1.27 3.51,6.11 6.48,-0.55 2.03,2.61 -1.67,4.14 1.57,9.71 -10.22,2.08 -1.33,2.03 6.9,7.84 -6.09,0.87 -3.44,4.79 -6.53,0.89 -9.26,-8.41 -2.57,-4.39 -9.48,1.15 0,0 -3.64,-2.48 0.17,-1.99 -4.14,-4.8 -3.48,-1.16 -0.83,-3.15 -5.96,-6.63 -0.66,-3.48 -8.94,-2.98 0.83,-1.99 -1.99,-3.31 -7.79,-8.45 -2.65,-0.99 -5.3,-7.37 -4.31,-0.66 0.5,-2.65 -2.82,-2.98 0.83,-4.97 -3.15,-2.82 -1.99,-7.79 -3.15,-4.64 2.82,-6.79 -0.33,-4.31 10.27,-9.61 -4.47,-8.45 -5.96,0.33 0.17,-6.13 -4.64,-3.81 -1.66,-4.64 3.98,-5.96 5.3,-2.32 3.48,-3.64 3.97,-9.11 0.99,-13.75 -7.79,-4.31 -1.33,-5.96 5.13,-7.95 -1.66,-6.63 6.63,-6.13 21.04,2.15 2.32,-3.31 5.14,3.92 6.29,-2.18 6.96,2.82 5.63,-3.15 2.98,1.49 1.99,-12.26 -2.32,-2.82 6.96,-7.95 -0.46,-5.05 1.66,-3.64 8.12,-10.1 2.98,0.66 1.33,3.81 5.47,2.48 2.51,-1.4 8.38,8.85 3.64,-0.17 2.82,-2.82 5.63,0.83 11.43,7.79 9.61,3.48 17.23,-5.8 -0.5,-1.49 2.65,-3.31 15.9,-11.76 -3.64,-4.97 -2.32,0.83 -4.47,-9.28 -3.97,-1.66 -0.33,-6.79 -2.98,-1.66 -5.63,2.48 -12.09,-1.32 -3.81,3.48 -1.99,-0.17 -9.61,17.06 -5.47,-1.66 -4.11,2.39 -8.12,-4.71 -2.65,-5.13 -23.52,0.33 -6.29,-6.13 0.83,-1.99 -1.66,-3.31 -5.13,-2.15 -0.5,-3.64 7.29,-9.61 3.31,-1.66 8.61,4.14 2.65,-6.29 2.82,-2.15 -1.16,-4.97 8.45,-18.55 2.65,-1.66 3.48,-7.62 3.81,-2.82 1.16,-5.13 7.79,-6.29 6.29,-2.82 2.98,-4.64 9.11,-2.32 -0.33,-1.99 5.96,-4.47 -1.33,-6.54 1.99,-2.48 -4.31,-3.64 -2.98,-7.78 0.33,-6.63 -2.32,-8.94 2.32,-3.64 7.45,-3.48 0.17,-2.82 4.8,-1.66 2.98,-3.15 1.16,-5.3 3.98,-1.66 4.97,1.66 5.3,-12.59 4.31,-0.83 0,-5.8 2.98,0.66 1.66,-5.96 -2.15,-1.82 3.98,-6.29 -1.13,-6.07 2.3,-5.25 -2.3,-1.64 -2.3,-1.31 -1.97,1.97 -1.97,-1.97 -1.97,0.66 -4.92,6.24 -2.63,10.17 -2.63,2.3 -4.92,0.33 -5.25,-4.27 -6.89,-1.31 -0.33,-5.91 -4.92,-1.64 -2.95,-3.28 -2.63,-7.55 2.3,-7.22 2.63,-2.95 9.19,-3.94 0.66,-4.27 -2.65,-4.96 0,0 1.33,-1.6 0,0 0,-3.28 2.95,-0.66 4.92,0.66 1.64,1.97 0,-1.64 3.94,1.31 3.61,-2.3 3.28,-9.52 4.27,-1.970001 2.95,3.940001 2.95,-3.940001 -3.61,-1.64 -0.18,-3.44 0,0 12.21,-2.08 3.25,-3.9 4.71,-1.63 9.4,-7.64 3.3,0.55 2.36,4.92 z m -356.13,-73.79 0.77,1.22 2.75,-1.2 2.36,1.02 0.02,-2.2800001 -1.91,-1.33 1.14,-1.57 2.07,1.55 1.47,4.8900001 1.72,-1.04 0.17,-2.6800001 2.41,0.51 -1.67,4.6300001 4.04,-2.26 2.3,5.29 20.09,12.1 10.63,0.07 4.18,-9.36 1.91,2.77 3.68,-0.49 0.19,2.72 2.71,-0.15 0.09,3.14 5.29,3.16 8.47,0.73 4.96,-5.62 1.28,3.12 -0.84,4.16 6.51,-1.97 -1.28,6.01 2.97,-1.35 4.26,1.39 2.86,-4.62 0.88,4.64 3.38,-1.46 3.41,1.92 11.22,-6.19 13.52,10.63 4.58,0.91 9.91,8.35 7.43,-3 6.48,-5.17 -0.59,-5.92 5.13,-1.7 2.82,-6.12 3.19,-1.77 2.36,0.51 2.47,5.33 1.96,-3.67 3.4,0.04 2.52,4.71 -2.3,2.81 6.43,5.55 13.53,0.67 0,0 4.3,4.48 0,0 12.14,7.22 -1.31,5.58 4.59,-0.98 2.95,-5.25 0,0 4.92,1.31 1.31,-3.28 5.25,2.3 -0.33,-4.27 1.64,0 1.97,-3.28 4.67,-0.97 0,0 3.05,0.83 8.69,10.31 0,0 21.66,12.8 0,0 3.74,1.44 0,0 -2.43,5.78 -6.56,2.95 -0.99,3.28 -2.3,0.98 0.33,2.63 -5.58,9.85 0,0 -3.18,1.16 0,0 -7.32,-0.5 -1.31,-6.89 -6.24,-6.89 -0.98,-4.27 -3.94,-1.97 -0.98,1.31 -6.89,-0.66 1.31,2.63 -8.21,10.83 -1.64,6.56 1.64,2.950001 -7.22,8.86 -7.22,0.66 -3.28,-1.31 -12.14,3.28 -2.63,2.3 1.31,3.94 -1.64,3.28 1.97,2.63 2.63,-1.64 4.92,4.27 5.58,-0.33 6.89,4.27 4.92,0.98 2.3,3.28 -0.99,1.64 4.92,4.59 5.25,-0.33 5.58,4.92 -4.59,5.25 -16.74,2.63 -7.22,-1.64 -1.31,-2.3 -12.47,0.66 -8.86,4.92 -0.98,-5.91 1.31,-4.27 -3.61,-2.95 1.64,-1.31 -2.95,-5.58 0.33,-8.2 -3.61,0 -4.59,-3.61 -10.83,1.31 -1.97,-2.3 -6.5,7.24 -3.35,6.87 5.91,14.11 4.59,6.56 1.97,8.53 -1.64,9.19 -4.27,4.92 -8.21,3.94 -14.11,2.63 -1.31,3.94 -4.27,1.31 -6.89,6.24 -3.61,-0.33 -7.22,6.24 -11.49,-1.97 -8.2,0.98 -1.97,-4.27 -9.19,-2.63 -0.66,-5.25 -4.59,-4.92 -12.47,-6.56 -1.31,3.28 -6.24,1.97 -5.58,-3.28 -3.94,-0.33 -1.97,2.3 1.64,12.14 -6.56,5.25 0,4.92 5.25,4.92 5.25,19.36 5.25,5.25 0.66,20.68 -3.97,6.38 -5.09,3.47 -16.41,1.31 -6.89,-4.92 -3.28,0 -5.25,-9.52 -17.07,-13.13 -1.97,-4.92 -4.27,-3.28 1.97,-2.3 -2.63,-2.63 -4.59,0.33 -5.58,-4.92 -3.28,-0.33 -12.14,-12.14 -10.17,-2.63 -9.19,-6.24 -6.24,-9.52 -13.88,-10.48 -3.45,-8.06 0.33,-6.24 12.14,-3.28 41.68,4.59 6.89,-0.66 4.92,-1.64 2.3,-2.63 1.31,-3.94 -3.28,-3.61 2.3,-6.89 -3.28,-2.3 -1.97,-4.27 0,-9.19 -8.53,-3.94 1.97,-8.2 -4.27,-13.78 -3.28,-3.94 -5.58,-3.28 -12.14,0.98 -4.59,-8.210001 -3.94,1.97 -3.94,-2.3 -9.19,1.97 -13.46,-5.25 -7.880003,11.490001 -4.27,-0.980001 -5.91,-9.52 -5.58,1.31 -10.83,-25.6 16.08,-3.61 -1.05,-3.49 0,0 2.19,2.33 12.110003,-0.44 0.42,-6.29 4.04,-4.44 0.81,-5.74 2.39,-2.94 -1.25,-4.82 10.59,-6.7 1.69,-8.74 2.77,-5.98 3.18,-2.79 10.77,-0.35 2.93,-1.53 7.12,4.8 7.76,2.7 5.71,-2.35 13.05,5 4.49,-2.12 -1.3,-4.8 1.97,-1.35 -0.97,-2.06 5.87,-0.22 8.33,-9.77000013 3.44,4.25000003 -2.58,2.59 -0.07,2.9100001 z"
     title="Republika Srpska"
     id="BA-SRP" />
  <path
     d="m 512.72635,93.691189 0.18,3.45 3.61,1.64 -2.96,3.930001 -2.95,-3.930001 -4.27,1.960001 -3.28,9.52 -3.61,2.3 -3.94,-1.31 0,1.64 -1.64,-1.97 -4.92,-0.66 -2.95,0.66 0,3.28 0,0 -1.64,1.97 0,0 -1.97,0 -1.64,2.95 -0.99,-3.61 -8.86,1.64 -5.58,5.91 -5.58,0.33 -2.62,-2.95 -9.19,0.98 -4.93,-5.91 1.32,-1.64 -0.99,-1.64 -3.61,-2.3 2.63,-1.31 -0.66,-1.31 -4.26,-2.3 0.32,-3.28 4.93,0.33 4.59,-3.280001 0,0 3.61,-1.32 0,0 5.58,-9.84 -0.33,-2.63 2.3,-0.98 0.98,-3.28 6.57,-2.96 2.43,-5.78 0,0 0.52,0.2 0,0 1.97,0.33 0,0 6.56,-2.3 0,0 0.33,-1.31 0,0 3.25,-0.41 3.13,5.1 -2.22,1.77 -6.15,-1.44 3.16,4.56 -1.29,3.29 9.24,6.56 3.2,4.2 z"
     title="BrÄko distrikt"
     id="BA-BRC" />
</svg>
