<?xml version="1.0" encoding="UTF-8" standalone="no"?>
<svg
   xmlns:mapsvg="http://mapsvg.com"
   xmlns:dc="http://purl.org/dc/elements/1.1/"
   xmlns:rdf="http://www.w3.org/1999/02/22-rdf-syntax-ns#"
   xmlns:svg="http://www.w3.org/2000/svg"
   xmlns="http://www.w3.org/2000/svg"
   width="612.56665"
   height="588.48553"
   mapsvg:geoViewBox="15.714400 45.275910 19.625600 42.560878"
   >
  <path
     d="m 86.310364,59.022094 1.05,3.49 -16.08,3.61 10.83,25.6 5.58,-1.31 5.91,9.51 4.26,0.989996 7.879996,-11.489996 13.45,5.25 9.19,-1.97 3.94,2.3 3.94,-1.97 4.59,8.209996 12.15,-0.99 5.58,3.28 3.28,3.94 4.26,13.79 -1.96,8.2 8.53,3.94 0,9.19 1.97,4.26 3.28,2.3 -2.3,6.89 3.28,3.61 -1.31,3.94 -2.3,2.63 -4.92,1.64 -6.89,0.66 -41.68,-4.6 -12.14,3.28 -0.33,6.24 3.45,8.06 0,0 -3.19,-2.32 0,0 -4.59,-1.64 -11.159996,-0.33 -4.92,-4.92 -3.94,6.56 3.61,10.5 -0.33,2.96 -1.97,0.33 3.28,8.2 -0.33,10.5 -6.89,4.27 0.66,8.2 -3.73,1.76 0,0 -2.19,-18.18 1.21,-3.23 -1.33,-2.74 -7.36,-3.56 -5.47,-0.63 -1.26,-3.82 3.82,0.39 3.8,-1.94 -3.22,-4.06 -0.11,-5.77 -1.58,-1.09 1.94,-6.12 -2.61,-7.3 -15.21,-8.21 -3.38,-6.92 0.78,-1.29 4.04,0.11 -0.41,-4.03 2.94,-0.35 -3.72,-9.14 -8.83,-4.4 -3.02,-8.56 -5.4,-2.28 -3.86,-5.42 -5.98,2.3 -1.3,2.42 -5.35,0.81 -1.64,-3.38 -4.6400002,-2.37 -9.68000003,-15.17 1.02000003,-2.499996 5.38,-0.16 4.4700002,-3.98 -5.2700002,-5.04 -1.88,-12.88 2.21,-8.7 5.2600002,-0.97 -0.28,-7.06 -6.0600002,-12.95 5.7000002,-11.09 -3.1700002,-12.03 7.3300002,-9.31 2.81,0.5 2.38,-4.07 8.02,1.66 -0.22,-2.35 4.68,-0.55 0.21,3.85 1.99,2.19 6.31,-4.18 6.74,3.74 0.71,3.37 -2.1,3.49 4.85,0.38 1,4.53 2.15,0.25 2.48,5.68 0.85,5.9 10.31,4.88 11.24,10.82 1.26,4.24 z"
     title="Unsko-sanski kanton"
     id="BA-01" />
  <path
     d="m 456.53036,43.182094 -3.6,2.45 0.05,1.57 7.86,1.52 -0.25,-5.85 3.19,-2.19 1.8,3.47 -2.91,3.2 10.58,9.95 -1.27,4.85 4.58,-1.04 5.71,1.26 -1.31,6.12 -3.25,0.41 0,0 -0.33,1.31 0,0 -6.56,2.3 0,0 -1.97,-0.33 0,0 -4.27,-1.64 0,0 -21.66,-12.8 0,0 -8.69,-10.31 5.59,0.46 1.38,3.55 0.55,-4.02 2.14,-2.36 -3.11,-2.74 0.61,-1.48 4.77,2.39 1.41,3.4 1.33,-2.41 -1.64,-3.73 5.93,2.92 3.16,-3.18 0.18,2.95 z m -54.24,-7.18 3.44,-0.38 2.85,3.12 14.8,-1.77 7.79,9.64 0,0 -4.67,0.97 -1.97,3.28 -1.64,0 0.33,4.27 -5.25,-2.3 -1.31,3.28 -4.92,-1.31 0,0 -2.95,5.25 -4.59,0.98 1.31,-5.58 -12.14,-7.22 0,0 -4.3,-4.48 0,0 3.45,-3.98 -1.88,-3.93 2.41,-3.6 6.2,-1.66 3.04,5.42 z"
     title="Posavski kanton"
     id="BA-02" />
  <path
     d="m 408.78036,153.58209 10.83,-1.31 4.6,-5.25 -5.58,-4.92 -5.25,0.32 -4.93,-4.59 0.99,-1.64 -2.3,-3.28 -4.92,-0.99 -6.89,-4.26 -5.58,0.32 -4.92,-4.26 -2.63,1.64 -1.97,-2.63 1.64,-3.28 -1.31,-3.94 2.63,-2.29 12.14,-3.29 3.28,1.32 7.22,-0.66 7.22,-8.86 -1.64,-2.949996 1.64,-6.57 8.2,-10.83 -1.31,-2.62 6.89,0.65 0.99,-1.31 3.94,1.97 0.98,4.27 6.24,6.89 1.31,6.89 7.32,0.5 0,0 -0.43,0.16 0,0 -4.59,3.279996 -4.93,-0.33 -0.32,3.28 4.26,2.3 0.66,1.31 -2.63,1.31 3.61,2.3 0.99,1.64 -1.32,1.64 4.93,5.91 9.19,-0.98 2.62,2.95 5.58,-0.33 5.58,-5.91 8.86,-1.64 0.99,3.61 1.64,-2.95 1.97,0 0,0 0.3,-0.37 0,0 2.65,4.96 -0.66,4.27 -9.19,3.94 -2.62,2.95 -2.3,7.22 2.63,7.55 2.95,3.28 4.92,1.64 0.33,5.91 6.89,1.31 5.25,4.27 4.93,-0.33 2.62,-2.3 2.63,-10.17 6.89,-6.89 1.97,1.97 1.97,-1.97 4.59,2.95 -2.3,5.25 0,0 0.92,2.44 0,0 0.22,3.63 -3.98,6.29 2.16,1.83 -1.66,5.96 -2.98,-0.66 0,5.79 -4.31,0.83 -5.3,12.59 -4.97,-1.66 -3.97,1.66 -1.16,5.3 -2.98,3.15 -4.81,1.65 -0.16,2.82 -7.46,3.48 -2.32,3.64 2.32,8.95 -0.33,6.62 4.8,9.78 0,0 0.3,0.19 0,0 -3.24,6.76 -3.65,-1.49 -5.96,2.82 0.99,1.82 -5.3,-0.5 -2.48,-3.64 -7.95,0.33 -5.14,-2.32 -3.48,-5.47 -5.13,-2.65 0.66,-14.9 -12.25,-11.93 -10.11,0.5 0.66,-5.14 5.64,0.5 0.82,-2.32 -9.6,-9.11 -2.16,1.49 -8.11,-4.3 0.49,-2.99 -1.82,-1.32 1.99,-4.64 -0.99,-3.48 -5.8,-6.46 4.14,-0.83 -2.32,-4.3 2.82,-2.82 -2.49,-4.69 0,0 z"
     title="Tuzlanski kanton"
     id="BA-03" />
  <path
     d="m 484.07036,242.98209 0.51,3.4 -5.97,4.47 0.34,1.99 -9.11,2.32 -2.99,4.64 -6.29,2.81 -5.14,4.97 0,0 -2.31,-0.99 0,0 -3.98,-3.15 -0.66,4.47 -5.63,-2.15 -0.67,-3.98 -6.95,-5.79 -4.31,1.98 -0.5,2.49 -5.3,2.32 1.99,3.14 -0.83,3.48 -2.15,0.17 -3.48,-4.64 -0.33,2.32 -5.14,2.82 0.67,9.11 -5.8,0.33 0.99,2.65 -2.98,4.63 -9.27,-1.82 -2.49,1.66 -1.82,-1.66 -2.65,3.32 4.64,10.1 -1,4.14 -7.12,-2.82 -1.49,1.33 0,0 -1.99,-0.5 0,0 -7.45,-2.98 0.5,-4.14 -5.64,-1.16 -0.33,-1.49 2.65,-1.99 -6.79,-2.65 -1.49,-10.93 -7.95,-6.46 -2.82,-0.17 0.67,-1.49 -2.82,-0.16 5.8,-2.98 -2.15,-2.82 -1.5,-1.32 -2.15,2.15 -5.96,-1.49 -2.65,-2.98 0.99,-3.32 -1.99,-1.82 0.67,-1.99 -4.81,-5.13 -4.14,1.32 -4.47,-3.97 -0.66,-4.8 -4.31,-0.34 -2.32,-4.14 1.49,-1.98 -1.98,-1.16 1.49,-1.99 -0.5,-3.64 5.63,-3.48 -1.16,-4.81 -3.81,-3.31 1.33,-2.32 -4.64,-3.81 -0.17,-3.48 -4.63,-1.49 -3.28,-5.25 0,0 3.05,-3.61 0,0 4.27,-1.31 1.31,-3.94 14.11,-2.62 8.21,-3.94 4.27,-4.92 1.64,-9.19 -1.97,-8.53 -4.6,-6.57 -5.9,-14.11 3.61,-6.56 0,0 -0.26,-0.31 0,0 6.49,-7.24 1.97,2.3 10.83,-1.32 4.6,3.61 3.6,0 -0.32,8.21 2.95,5.58 -1.64,1.31 3.61,2.95 -1.31,4.27 0.98,5.91 8.86,-4.93 4.92,-0.32 7.55,-0.33 1.32,2.29 7.22,1.65 0,0 0.4,-0.09 0,0 2.49,4.69 -2.82,2.82 2.32,4.3 -4.14,0.83 5.8,6.46 0.99,3.48 -1.99,4.64 1.82,1.32 -0.49,2.99 8.11,4.3 2.16,-1.49 9.6,9.11 -0.82,2.32 -5.64,-0.5 -0.66,5.14 10.11,-0.5 12.25,11.93 -0.66,14.9 5.13,2.65 3.48,5.47 5.14,2.32 7.95,-0.33 2.48,3.64 5.3,0.5 -0.99,-1.82 5.96,-2.82 3.65,1.49 3.24,-6.76 0,0 2.19,1.46 0,0 -1.99,2.49 0.66,3.14 0,0 z"
     title="Zeni훾ko-dobojski kanton"
     id="BA-04" />
  <path
     d="m 440.38036,357.62209 0.47,-0.26 0,0 3.15,-2.65 0.33,1.82 4.63,1.49 1.16,-1.49 4.15,0.83 2.65,-5.3 0,0 -0.17,-0.09 0,0 4.11,-2.4 5.46,1.66 9.61,-17.06 1.99,0.16 3.81,-3.48 12.09,1.33 5.63,-2.48 2.98,1.65 0.33,6.79 3.98,1.66 0,0 4.47,9.27 2.32,-0.82 3.64,4.97 -15.9,11.76 -2.65,3.31 0.5,1.49 -11.26,4.64 -3.15,-0.5 -2.82,1.66 -6.29,-1.99 -14.74,-9.28 -5.63,-0.82 -2.82,2.81 -3.64,0.17 z"
     title="Bosansko-podrinjski kanton"
     id="BA-05" />
  <path
     d="m 384.99036,300.57209 0.87,3.53 -1.16,1.5 2.98,1.65 -2.15,1.82 -0.83,4.31 -4.64,1.82 -0.66,1.82 -2.49,-1.32 -7.29,7.95 -6.95,0 0,0 -3.81,2.15 0,0 -1.82,-3.31 -3.48,-0.66 -1.99,3.97 -4.8,-1.16 -4.14,-7.62 -0.17,-3.81 -3.98,-2.15 -0.16,-3.31 -2.65,-1.66 -2.32,1.82 -2.48,-0.82 0.16,-2.49 -4.97,2.82 1.66,3.14 -2.82,1 -2.32,-1.49 -5.13,3.48 -1.16,-2.16 -1.49,3.15 -6.3,0.66 -0.99,3.15 -9.34,-7.95 -11.93,1.16 -0.83,-1.99 -6.62,2.82 -2.98,-3.81 -6.08,-1.03 0,0 0.1,-0.05 0,0 -1.97,-2.63 1.31,-2.29 -3.28,0.33 0.33,-5.91 -4.59,-3.28 -1.32,-3.29 -4.26,4.6 -4.27,-2.63 1.31,-1.97 -2.62,-2.62 -2.63,-9.52 -2.95,-5.25 -1.97,-0.33 -0.33,-4.26 -1.97,-0.33 -1.7,-4.92 0,0 -0.17,0.14 0,0 3.97,-6.38 -0.65,-20.68 -5.25,-5.25 -5.26,-19.36 -5.25,-4.92 0,-4.92 6.57,-5.26 -1.64,-12.14 1.97,-2.3 3.93,0.33 5.58,3.28 6.24,-1.96 1.31,-3.29 7.22,3.29 9.85,8.2 0.65,5.25 9.19,2.63 1.97,4.26 8.21,-0.98 11.48,1.97 7.22,-6.24 3.61,0.33 3.28,-1.97 0,0 0.56,-0.66 0,0 3.28,5.25 4.63,1.49 0.17,3.48 4.64,3.81 -1.33,2.32 3.81,3.31 1.16,4.81 -5.63,3.48 0.5,3.64 -1.49,1.99 1.98,1.16 -1.49,1.98 2.32,4.14 4.31,0.34 0.66,4.8 4.47,3.97 4.14,-1.32 4.81,5.13 -0.67,1.99 1.99,1.82 -0.99,3.32 2.65,2.98 5.96,1.49 2.15,-2.15 1.5,1.32 2.15,2.82 -5.8,2.98 2.82,0.16 -0.67,1.49 2.82,0.17 7.95,6.46 1.49,10.93 6.79,2.65 -2.65,1.99 0.33,1.49 5.64,1.16 -0.5,4.14 7.45,2.98 0,0 z"
     title="Srednjobosanski kanton"
     id="BA-06" />
  <path
     d="m 390.30036,394.90209 -5.14,-3.92 -2.32,3.31 -21.03,-2.15 -6.63,6.13 1.66,6.62 -5.14,7.96 1.33,5.96 7.78,4.3 -0.99,13.75 -3.98,9.11 -3.47,3.65 -5.31,2.32 -3.97,5.96 1.66,4.64 4.63,3.81 -0.16,6.12 5.96,-0.33 4.47,8.45 -10.27,9.61 0.33,4.31 -2.81,6.79 3.15,4.63 1.98,7.79 3.15,2.81 -0.83,4.97 2.82,2.99 -0.5,2.65 4.31,0.66 5.3,7.37 2.65,0.99 7.78,8.45 1.99,3.31 -0.83,1.99 8.95,2.98 0.66,3.48 5.96,6.63 0.83,3.14 3.48,1.16 4.14,4.81 -0.16,1.98 3.63,2.48 0,0 -0.75,1.63 -7.03,2.23 -11.02,-13.16 -4.24,0.53 -1.86,-4.94 -6.46,-1.79 0.17,-5.15 -10.06,-7.54 -5.21,-1.14 -1.94,-4.68 -3.42,-0.74 -3.66,-3.7 -9.14,-2.46 0.83,-5.02 -3.64,-1.17 -2.98,-6.02 -0.32,-6.49 -5.51,-4.6 -4.45,6.07 -9.15,-6.45 -5.35,-0.91 -6.53,8.04 -2.92,-3.17 -12.18,-6.19 10.78,3.72 -7.1,-5.49 5.48,-0.36 0.87,-1.9 2.07,0.51 12.55,-5.43 -7.47,-13.84 -1.98,-7.79 -4.2,-4.54 0,0 0.95,-1.24 -1.83,-2.16 1.83,-3.31 3.64,-1.82 -3.15,-2.32 0,-5.8 3.81,-0.16 0,-1.16 -4.47,-3.32 -2.32,-4.47 -3.48,0 -4.8,-3.48 0,-3.14 2.32,0.66 0.16,-1.49 -1.98,-5.3 2.98,-3.15 1.99,0.66 2.98,-1.98 8.45,4.3 2.48,-1.82 2.32,1.49 4.47,-5.47 -7.12,-5.96 1.82,-5.13 -4.47,-3.98 6.96,-3.64 -1.83,-2.65 -9.27,-5.14 -4.14,0.66 0.33,-4.3 -2.32,-3.98 -4.47,-3.14 -1,-4.15 -5.46,-2.15 1.16,-1.16 -7.79,-4.64 -0.66,-2.31 5.96,-0.83 0.66,-2.82 5.64,1.66 3.81,-4.31 -5.97,-3.48 4.14,-7.78 -7.43,-5.61 0,0 0.49,-1.21 0,0 -6.89,-0.65 -2.3,-8.54 -2.3,-3.61 -3.94,-1.97 -0.98,-4.92 -12.14,-2.62 3.93,-2.3 -0.32,-4.27 -2.3,-2.62 1.31,-3.94 -0.98,-3.61 9.51,-6.56 0,0 2.2,-0.94 0,0 6.08,1.03 2.98,3.81 6.62,-2.82 0.83,1.99 11.93,-1.16 9.34,7.95 0.99,-3.15 6.3,-0.66 1.49,-3.15 1.16,2.16 5.13,-3.48 2.32,1.49 2.82,-1 -1.66,-3.14 4.97,-2.82 -0.16,2.49 2.48,0.82 2.32,-1.82 2.65,1.66 0.16,3.31 3.98,2.15 0.17,3.81 4.14,7.62 4.8,1.16 1.99,-3.97 3.48,0.66 1.82,3.31 0,0 0.04,-0.02 0,0 5.76,11.87 2.65,-0.17 1.82,3.98 -5.14,1.98 2.98,1.33 0.5,3.15 1.99,0.99 2.81,-1.99 5.31,1.82 2.15,-3.14 3.97,1.49 -0.16,1.98 4.3,5.47 2.49,0 2.98,3.48 -3.15,4.97 2.32,3.31 2.16,-2.98 1.98,0.99 3.98,6.46 5.3,-5.79 0.83,-3.98 6.62,1.82 -1.16,4.14 3.15,3.81 0,0 3.57,-1.67 0,0 -4.1,7.88 -2.98,1.83 2.32,2.81 -1.99,12.26 -2.98,-1.49 -5.63,3.15 -6.96,-2.82 -6.29,2.15 0,0 z"
     title="Hercegova훾ko-neretvanski kanton"
     id="BA-07" />
  <path
     d="m 299.54036,474.63209 -30.15,-18.21 0.5,-4.83 -3.02,-5.8 -4.57,-3.68 -8.11,-1.52 -1.27,-6.77 -12.05,-22.62 4.65,-12.77 -0.73,-4 -3.38,-4.64 -5.01,-3.4 -13.15,0.28 -11.04,-10.88 0,0 0.52,-2 5.58,1.64 1.64,-1.31 4.26,2.3 5.25,-2.3 5.26,1.64 2.95,-2.29 2.3,1.31 -0.33,2.95 2.95,0.66 0.99,-1.97 4.92,1.64 16.41,-12.14 1.97,3.94 4.59,1.64 4.27,-6.24 1.97,-0.33 1.97,-5.25 4.59,-3.94 0,0 0.17,-0.43 0,0 7.43,5.61 -4.14,7.78 5.97,3.48 -3.81,4.31 -5.64,-1.66 -0.66,2.82 -5.96,0.83 0.66,2.31 7.79,4.64 -1.16,1.16 5.46,2.15 1,4.15 4.47,3.14 2.32,3.98 -0.33,4.3 4.14,-0.66 9.27,5.14 1.83,2.65 -6.96,3.64 4.47,3.98 -1.82,5.13 7.12,5.96 -4.47,5.47 -2.32,-1.49 -2.48,1.82 -8.45,-4.3 -2.98,1.98 -1.99,-0.66 -2.98,3.15 1.98,5.3 -0.16,1.49 -2.32,-0.66 0,3.14 4.8,3.48 3.48,0 2.32,4.47 4.47,3.32 0,1.16 -3.81,0.16 0,5.8 3.15,2.32 -3.64,1.82 -1.83,3.31 1.83,2.16 z"
     title="Zapadnohercegova훾ki kanton"
     id="BA-08" />
  <path
     d="m 455.25036,267.51209 -2.48,1.4 -1.15,5.13 -3.81,2.82 -3.48,7.62 -2.65,1.65 -8.45,18.55 1.16,4.97 -2.82,2.16 -2.65,6.29 -8.61,-4.14 -3.31,1.66 -7.29,9.6 0.5,3.65 5.13,2.15 1.66,3.31 -0.83,1.99 6.29,6.13 23.52,-0.33 2.65,5.13 3.81,2.32 0,0 4.48,2.49 0,0 -2.65,5.3 -4.15,-0.83 -1.16,1.49 -4.63,-1.49 -0.33,-1.82 -3.15,2.65 0,0 -2.98,1.65 -5.47,-2.48 0,0 -1.32,-3.81 -2.99,-0.66 -8.11,10.1 -1.66,3.64 0.66,2.99 0,0 -3.64,1.98 0,0 -3.15,-3.81 1.16,-4.14 -6.62,-1.82 -0.83,3.98 -5.3,5.79 -3.98,-6.46 -1.98,-0.99 -2.16,2.98 -2.32,-3.31 3.15,-4.97 -2.98,-3.48 -2.49,0 -4.3,-5.47 0.16,-1.98 -3.97,-1.49 -2.15,3.14 -5.31,-1.82 -2.81,1.99 -1.99,-0.99 -0.5,-3.15 -2.98,-1.33 5.14,-1.98 -1.82,-3.98 -2.65,0.17 -5.76,-11.87 0,0 3.77,-2.13 0,0 6.95,0 7.29,-7.95 2.49,1.32 0.66,-1.82 4.64,-1.82 0.83,-4.31 2.15,-1.82 -2.98,-1.65 1.16,-1.5 -0.87,-3.53 0,0 1.86,0.47 0,0 1.49,-1.33 7.12,2.82 1,-4.14 -4.64,-10.1 2.65,-3.32 1.82,1.66 2.49,-1.66 9.27,1.82 2.98,-4.63 -0.99,-2.65 5.8,-0.33 -0.67,-9.11 5.14,-2.82 0.33,-2.32 3.48,4.64 2.15,-0.17 0.83,-3.48 -1.99,-3.14 5.3,-2.32 0.5,-2.49 4.31,-1.98 6.95,5.79 0.67,3.98 5.63,2.15 0.66,-4.47 3.98,3.15 0,0 z"
     title="Kanton Sarajevo"
     id="BA-09" />
  <path
     d="m 212.21036,375.79209 -2.98,-1.25 -1.94,1.44 -12.34,-16.3 -5.78,-5.21 -3.39,-6.47 -12.33,-10.85 -4.31,-7.53 -7.79,-2.16 -5.54,-8.24 -0.72,-8.49 -13.54,-10.11 -5.21,-7.36 -7.31,-4.54 -0.87,-5.6 -5.51,-9.54 -10.06,-1.51 -1.6,-10.68 -9.03,0.19 -1.7,-3.95 -4.169996,-3.65 -1.09,-4.75 -8.47,-7.13 -5.61,-8.66 -1.62,-7.87 0,0 3.73,-1.76 -0.66,-8.2 6.89,-4.27 0.33,-10.5 -3.28,-8.2 1.97,-0.33 0.33,-2.96 -3.61,-10.5 3.94,-6.56 4.92,4.92 11.159996,0.33 4.59,1.64 0,0 3.61,2.63 0,0 13.46,10.17 6.23,9.52 9.19,6.23 10.18,2.63 12.14,12.14 3.28,0.33 5.58,4.92 4.59,-0.33 2.63,2.63 -1.97,2.3 4.27,3.28 1.97,4.92 17.06,13.13 5.25,9.52 3.28,0 6.9,4.92 19.03,-2.63 0,0 2.63,-2.29 0,0 1.7,4.92 1.97,0.33 0.33,4.26 1.97,0.33 2.95,5.25 2.63,9.52 2.62,2.62 -1.31,1.97 4.27,2.63 4.26,-4.6 1.32,3.29 4.59,3.28 -0.33,5.91 3.28,-0.33 -1.31,2.29 1.97,2.63 0,0 -2.3,0.99 0,0 -9.51,6.56 0.98,3.61 -1.31,3.94 2.3,2.62 0.32,4.27 -3.93,2.3 12.14,2.62 0.98,4.92 3.94,1.97 2.3,3.61 2.3,8.54 6.89,0.65 0,0 -0.66,1.64 0,0 -4.59,3.94 -1.97,5.25 -1.97,0.33 -4.27,6.24 -4.59,-1.64 -1.97,-3.94 -16.41,12.14 -4.92,-1.64 -0.99,1.97 -2.95,-0.66 0.33,-2.95 -2.3,-1.31 -2.95,2.29 -5.26,-1.64 -5.25,2.3 -4.26,-2.3 -1.64,1.31 -5.58,-1.64 z"
     title="Kanton br. 10"
     id="BA-10" />
  <path
     d="m 512.64036,93.692094 0.18,3.45 3.61,1.64 -2.96,3.929996 -2.95,-3.929996 -4.27,1.959996 -3.28,9.52 -3.61,2.3 -3.94,-1.31 0,1.64 -1.64,-1.97 -4.92,-0.66 -2.95,0.66 0,3.28 0,0 -1.64,1.97 0,0 -1.97,0 -1.64,2.95 -0.99,-3.61 -8.86,1.64 -5.58,5.91 -5.58,0.33 -2.62,-2.95 -9.19,0.98 -4.93,-5.91 1.32,-1.64 -0.99,-1.64 -3.61,-2.3 2.63,-1.31 -0.66,-1.31 -4.26,-2.3 0.32,-3.28 4.93,0.33 4.59,-3.279996 0,0 3.61,-1.32 0,0 5.58,-9.84 -0.33,-2.63 2.3,-0.98 0.98,-3.28 6.57,-2.96 2.43,-5.78 0,0 0.52,0.2 0,0 1.97,0.33 0,0 6.56,-2.3 0,0 0.33,-1.31 0,0 3.25,-0.41 3.13,5.1 -2.22,1.77 -6.15,-1.44 3.16,4.56 -1.29,3.29 9.24,6.56 3.2,4.2 z"
     title="Br훾ko"
     id="BA-BR-BR" />
  <path
     d="m 543.30036,154.99209 -4.23,-2.06 0.66,-2.63 -7.55,-3.28 -4.59,1.97 -3.94,5.25 -3.94,0 0,0 -0.99,-2.63 0,0 2.3,-5.25 -4.59,-2.95 -1.97,1.97 -1.97,-1.97 -6.89,6.89 -2.63,10.17 -2.62,2.3 -4.93,0.33 -5.25,-4.27 -6.89,-1.31 -0.33,-5.91 -4.92,-1.64 -2.95,-3.28 -2.63,-7.55 2.3,-7.22 2.62,-2.95 9.19,-3.94 0.66,-4.27 -2.65,-4.96 0,0 1.34,-1.6 0,0 0,-3.28 2.95,-0.66 4.92,0.66 1.64,1.97 0,-1.64 3.94,1.31 3.61,-2.3 3.28,-9.52 4.27,-1.959996 2.95,3.929996 2.96,-3.929996 -3.61,-1.64 -0.18,-3.45 0,0 12.21,-2.07 3.25,-3.9 4.72,-1.63 9.81,-7.71 3.31,1.04 1.94,4.51 6.47,-3.59 3.97,2.07 4.13,-1.01 6.39,4.18 2.85,-0.06 1.26,4.64 1.99,0.33 -2.55,3.9 -2.74,-0.71 1.61,3.11 -2.75,3.669996 -3.96,-0.11 -0.3,5.73 -3.25,1.98 4.24,0.31 0.92,2.02 -4.25,1.8 3.86,5.89 -1.27,2.04 -2.75,-0.92 1.64,8.27 -5.4,2.68 -4.42,10.06 0.53,1.85 -4.9,4.55 0.42,3.53 -4.62,1.97 z"
     title="Bijeljina"
     id="BA-SR-BI" />
  <path
     d="m 322.43036,42.662094 0.7,3.28 -4.6,5.25 0.66,4.27 2.95,1.31 -1.64,5.91 1.97,3.28 -1.64,9.84 4.27,9.85 -0.33,3.94 -1.64,8.86 -2.63,0 -5.91,5.249996 1.32,2.62 -1.32,1.97 3.61,3.29 -1.64,3.28 1.97,2.29 -0.33,2.3 2.3,3.28 2.96,-0.98 4.26,2.62 0.66,7.22 3.94,3.61 -0.33,-3.28 3.28,-1.64 0,-3.28 1.97,2.63 2.3,-0.66 0,0 1.97,2.3 0,0 -3.61,6.56 5.9,14.11 4.6,6.57 1.97,8.53 -1.64,9.19 -4.27,4.92 -8.21,3.94 -14.11,2.62 -1.31,3.94 -4.27,1.31 0,0 -3.61,4.27 0,0 -3.28,1.97 -3.61,-0.33 -7.22,6.24 -11.48,-1.97 -8.21,0.98 -1.97,-4.26 -9.19,-2.63 -0.65,-5.25 -9.85,-8.2 -7.22,-3.29 -1.31,3.29 -6.24,1.96 -5.58,-3.28 -3.93,-0.33 -1.97,2.3 1.64,12.14 -6.57,5.26 0,4.92 5.25,4.92 5.26,19.36 5.25,5.25 0.65,20.68 -3.97,6.38 0,0 -2.46,2.15 0,0 -19.03,2.63 -6.9,-4.92 -3.28,0 -5.25,-9.52 -17.06,-13.13 -1.97,-4.92 -4.27,-3.28 1.97,-2.3 -2.63,-2.63 -4.59,0.33 -5.58,-4.92 -3.28,-0.33 -12.14,-12.14 -10.18,-2.63 -9.19,-6.23 -6.23,-9.52 -13.46,-10.17 0,0 -0.42,-0.31 0,0 -3.45,-8.06 0.33,-6.24 12.14,-3.28 41.68,4.6 6.89,-0.66 4.92,-1.64 2.3,-2.63 1.31,-3.94 -3.28,-3.61 2.3,-6.89 -3.28,-2.3 -1.97,-4.26 0,-9.19 -8.53,-3.94 1.96,-8.2 -4.26,-13.79 -3.28,-3.94 -5.58,-3.28 -12.15,0.99 -4.59,-8.209996 -3.94,1.97 -3.94,-2.3 -9.19,1.97 -13.45,-5.25 -7.879996,11.489996 -4.26,-0.989996 -5.91,-9.51 -5.58,1.31 -10.83,-25.6 16.08,-3.61 -1.05,-3.49 0,0 2.19,2.33 12.119996,-0.44 0.42,-6.29 4.04,-4.44 0.81,-5.74 2.39,-2.94 -1.25,-4.81 10.6,-6.7 1.69,-8.74 5.51,-8.52 3.48,-1.4 7.72,0.8 2.93,-1.53 7.12,4.81 7.76,2.7 5.71,-2.35 13.88,4.92 3.72,-2.22 -1.36,-4.62 1.97,-1.35 -0.97,-2.06 5.87,-0.23 8.3,-9.8099998 3.44,4.25 -2.68,2.82 0.55,3.8499998 5.51,-0.29 -2.04,-3.4499998 1.15,-1.57 2.06,1.55 1.47,4.8899998 1.72,-1.04 0.18,-2.6799998 2.41,0.51 -1.79,4.5399998 4.15,-2.17 2.3,5.29 19.8,12.04 10.92,0.13 4.18,-9.36 1.91,2.77 3.67,-0.49 0.19,2.72 2.71,-0.15 0.09,3.14 5.29,3.16 8.47,0.73 4.96,-5.62 1.28,3.12 -0.84,4.16 6.51,-1.97 -1.44,5.97 3.13,-1.31 4.25,1.4 2.87,-4.62 0.87,4.64 3.38,-1.46 3.41,1.92 10.93,-6.25 13.81,10.69 z"
     title="Banja-Luka"
     id="BA-SR-BJ" />
  <path
     d="m 447.61036,98.622094 -7.32,-0.5 -1.31,-6.89 -6.24,-6.89 -0.98,-4.27 -3.94,-1.97 -0.99,1.31 -6.89,-0.65 1.31,2.62 -8.2,10.83 -1.64,6.57 1.64,2.949996 -7.22,8.86 -7.22,0.66 -3.28,-1.32 -12.14,3.29 -2.63,2.29 1.31,3.94 -1.64,3.28 1.97,2.63 2.63,-1.64 4.92,4.26 5.58,-0.32 6.89,4.26 4.92,0.99 2.3,3.28 -0.99,1.64 4.93,4.59 5.25,-0.32 5.58,4.92 -4.6,5.25 -10.83,1.31 0,0 -5.9,1.32 0,0 -7.22,-1.65 -1.32,-2.29 -7.55,0.33 -4.92,0.32 -8.86,4.93 -0.98,-5.91 1.31,-4.27 -3.61,-2.95 1.64,-1.31 -2.95,-5.58 0.32,-8.21 -3.6,0 -4.6,-3.61 -10.83,1.32 -1.97,-2.3 -6.49,7.24 0,0 -1.71,-1.99 0,0 -2.3,0.66 -1.97,-2.63 0,3.28 -3.28,1.64 0.33,3.28 -3.94,-3.61 -0.66,-7.22 -4.26,-2.62 -2.96,0.98 -2.3,-3.28 0.33,-2.3 -1.97,-2.29 1.64,-3.28 -3.61,-3.29 1.32,-1.97 -1.32,-2.62 5.91,-5.249996 2.63,0 1.64,-8.86 0.33,-3.94 -4.27,-9.85 1.64,-9.84 -1.97,-3.28 1.64,-5.91 -2.95,-1.31 -0.66,-4.27 4.6,-5.25 -0.7,-3.28 0,0 8.64,7.5 5.7,1.04 11.38,-7.86 -0.6,-5.93 4.98,-1.56 3.3,-6.66 3.69,-1.44 4.01,5.91 2.39,-3.96 3.24,0.6 2.24,4.6 -2.3,2.65 6.43,5.54 13.53,0.67 0,0 4.3,4.48 0,0 12.14,7.22 -1.31,5.58 4.59,-0.99 2.96,-5.25 0,0 4.92,1.31 1.31,-3.28 5.25,2.3 -0.32,-4.27 1.64,0 1.97,-3.28 4.67,-0.97 0,0 3.04,0.84 8.69,10.3 0,0 21.67,12.8 0,0 3.74,1.44 0,0 -2.43,5.78 -6.57,2.96 -0.98,3.28 -2.3,0.98 0.33,2.63 -5.58,9.84 0,0 z"
     title="Doboj"
     id="BA-SR-DO" />
  <path
     d="m 466.82036,439.72209 -3.81,-1.95 -0.16,-3.64 -5.8,-5.3 -2.98,0.83 -7.29,-5.8 -5.8,1.33 -10.1,-4.81 0,4.47 -3.48,-0.33 -3.98,4.81 -4.14,2.15 -13.08,-10.1 -2.49,-7.79 -5.96,-2.48 -3.15,3.47 -0.16,3.98 -8.45,-4.8 1.32,-5.97 7.62,-1.32 -4.3,-10.44 0,0 -0.33,-1.16 0,0 6.29,-2.15 6.96,2.82 5.63,-3.15 2.98,1.49 1.99,-12.26 -2.32,-2.81 2.98,-1.83 4.1,-7.88 0,0 2.23,1.01 0,0 4.47,-1.32 -1.49,-1.83 0.99,-2.48 12.43,-2.15 -0.07,-3.5 0,0 2.91,-1.21 0,0 8.39,8.85 3.64,-0.17 2.82,-2.81 5.63,0.82 14.74,9.28 6.29,1.99 2.82,-1.66 3.15,0.5 11.26,-4.64 -0.5,-1.49 2.65,-3.31 15.9,-11.76 -3.64,-4.97 -2.32,0.82 -4.47,-9.27 0,0 1.66,-1.33 8.11,3.48 4.81,-2.81 8.11,2.48 6.63,6.3 6.29,-1.5 -0.16,-2.48 -4.48,-3.48 -0.66,-7.45 -4.14,-8.12 7.79,2.49 4.8,-5.3 -2.49,-2.65 6.8,-3.98 -2.65,-2.65 -0.17,-2.48 2.65,-0.17 -1.99,-3.15 0.66,-1.98 -6.79,-9.94 1.33,-2.16 3.81,0.67 1.65,-1.5 0,0 0.2,0.25 0,0 1.33,-2.15 5.96,-0.91 0,0 4.82,4.2 0.55,3.36 4.1,1.81 0.61,5.29 4.18,2.42 5.46,7.89 1.8,10.87 8.28,4.34 1.3,4.52 6.91,5.85 3.04,18.52 -2.13,2.04 -1.94,-2.3 -1.77,1.49 1.83,3.46 -1.28,4.01 2.39,2 -1.73,1.77 -6.75,-0.65 -5.94,3.27 -6.69,-8.29 -5.79,2.7 -9.51,-2.01 -3.18,1.86 -0.69,13.32 -13.3,-2.35 -5.08,4.63 -12.29,-8.82 -4.75,-0.35 -1.57,1.68 -2.36,-1.7 -3.05,5.83 -5.53,1.87 0,3.85 1.11,1.14 2.01,-3.48 1.5,0.81 0.83,12.45 3.38,3.54 2.03,-0.86 4.2,14.79 8.35,12.57 -0.26,7.84 -7.08,1.46 -5.43,6.76 -4.21,-4.04 -0.07,-3.64 -4.59,-2.19 0.61,-8.46 -2.24,-0.26 -5.46,-6.3 -10.84,2.55 2.44,6.11 -9.77,2.76 z"
     title="Foca"
     id="BA-SR-FO" />
  <path
     d="m 437.47036,358.83209 0.06,3.49 -12.42,2.15 -0.99,2.48 1.49,1.82 -4.47,1.33 0,0 -2.15,-1.33 0,0 -0.66,-2.98 1.66,-3.64 8.12,-10.1 2.98,0.66 1.33,3.81 0,0 5.05,2.31 z m 48.27,-115.85 13.75,8.78 2.98,0.99 3.15,-2.32 0.17,-1.99 7.78,8.45 2.32,-2.15 2.32,4.14 2.65,0.33 -0.66,2.32 9.94,4.8 2.98,5.63 6.29,4.31 2.15,7.12 4.47,5.8 0,0 2.28,2.89 0,0 -1.65,1.5 -3.81,-0.66 -1.33,2.15 6.79,9.94 -0.66,1.99 1.99,3.15 -2.65,0.17 0.17,2.48 2.65,2.65 -6.79,3.98 2.48,2.65 -4.8,5.3 -7.79,-2.48 4.14,8.12 0.66,7.45 4.47,3.48 0.17,2.48 -6.29,1.49 -6.63,-6.29 -8.12,-2.48 -4.8,2.82 -8.12,-3.48 -1.66,1.33 0,0 -3.97,-1.66 -0.33,-6.79 -2.98,-1.66 -5.63,2.48 -12.09,-1.32 -3.81,3.48 -1.99,-0.17 -9.61,17.06 -5.47,-1.66 -4.11,2.39 0,0 -4.31,-2.39 0,0 -3.81,-2.32 -2.65,-5.13 -23.52,0.33 -6.29,-6.13 0.83,-1.99 -1.66,-3.31 -5.13,-2.15 -0.5,-3.64 7.29,-9.61 3.31,-1.66 8.61,4.14 2.65,-6.29 2.82,-2.15 -1.16,-4.97 8.45,-18.55 2.65,-1.66 3.48,-7.62 3.81,-2.82 1.16,-5.13 2.48,-1.4 0,0 0.17,0.07 0,0 5.13,-4.97 6.29,-2.82 2.98,-4.64 9.11,-2.32 -0.33,-1.99 5.96,-4.47 -0.5,-3.4 0,0 1.68,0 z"
     title="Sarajevo-Romanija"
     id="BA-SR-SR" />
  <path
     d="m 390.30036,394.90209 0.33,1.13 0,0 4.3,10.44 -7.62,1.32 -1.32,5.97 8.45,4.8 0.16,-3.98 3.15,-3.47 5.96,2.48 2.49,7.79 13.08,10.1 4.14,-2.15 3.98,-4.81 3.48,0.33 0,-4.47 10.1,4.81 5.8,-1.33 7.29,5.8 2.98,-0.83 5.8,5.3 0.16,3.64 3.81,1.95 0,0 -0.48,2.73 4.18,4.41 -9.52,13.21 -1.66,7.91 8.19,22.78 -7.73,2.45 -15.42,-2.47 -2.91,3.17 -5.21,12.9 -2.22,1.68 1.17,6.2 2.88,4 -4.66,9.02 1.61,9.58 -3.82,1.87 1.76,4.02 -0.68,3.25 3.16,1.27 3.51,6.12 6.48,-0.55 2.03,2.61 -1.67,4.13 1.56,9.71 -10.21,2.08 -1.33,2.04 6.9,7.84 -6.09,0.86 -3.44,4.79 -6.53,0.89 -9.26,-8.41 -2.57,-4.38 -9.48,1.14 0,0 -3.63,-2.48 0.16,-1.98 -4.14,-4.81 -3.48,-1.16 -0.83,-3.14 -5.96,-6.63 -0.66,-3.48 -8.95,-2.98 0.83,-1.99 -1.99,-3.31 -7.78,-8.45 -2.65,-0.99 -5.3,-7.37 -4.31,-0.66 0.5,-2.65 -2.82,-2.99 0.83,-4.97 -3.15,-2.81 -1.98,-7.79 -3.15,-4.63 2.81,-6.79 -0.33,-4.31 10.27,-9.61 -4.47,-8.45 -5.96,0.33 0.16,-6.12 -4.63,-3.81 -1.66,-4.64 3.97,-5.96 5.31,-2.32 3.47,-3.65 3.98,-9.11 0.99,-13.75 -7.78,-4.3 -1.33,-5.96 5.14,-7.96 -1.66,-6.62 6.63,-6.13 21.03,2.15 2.32,-3.31 z"
     title="Trebinje"
     id="BA-SR-TR" />
  <path
     d="m 555.80036,289.28209 -5.96,0.91 -1.33,2.15 0,0 -2.48,-3.14 0,0 -4.47,-5.8 -2.16,-7.12 -6.29,-4.31 -2.98,-5.63 -9.94,-4.8 0.66,-2.32 -2.65,-0.33 -2.32,-4.15 -2.32,2.16 -7.78,-8.45 -0.17,1.99 -3.14,2.32 -2.99,-1 -13.74,-8.78 0,0 -1.83,0 0,0 -0.66,-3.14 1.99,-2.49 0,0 -2.49,-1.65 0,0 -4.8,-9.78 0.33,-6.62 -2.32,-8.95 2.32,-3.64 7.46,-3.48 0.16,-2.82 4.81,-1.65 2.98,-3.15 1.16,-5.3 3.97,-1.66 4.97,1.66 5.3,-12.59 4.31,-0.83 0,-5.79 2.98,0.66 1.66,-5.96 -2.16,-1.83 3.98,-6.29 -0.22,-3.63 0,0 0.07,0.19 0,0 3.94,0 3.94,-5.25 4.59,-1.97 7.55,3.28 -0.66,2.63 4.23,2.06 0,0 1.96,4.56 -3.71,5.89 -6.42,-0.24 -2.03,4.7 1.97,2.34 2.71,12.04 -0.46,5.61 -5.76,3.8 -0.95,4.52 0.41,1.9 1.75,0.13 -1.27,2.42 0.92,2.62 3.07,1.11 -0.55,4.71 5.65,7.01 7.2,-1.13 1.28,4.38 2.48,1.68 6.79,-3.1 6.96,1.11 0.63,4.12 3.19,4.16 -0.75,2.85 2.46,2.91 0.14,5.11 7.44,3.03 1.74,5.39 3.99,2.41 4.85,-3.54 0.93,1.82 -1.71,4.54 3.33,0.87 2.65,6.86 6.96,2.81 2.99,4.99 1.44,-0.42 0.97,-4.51 2.07,0.46 0.54,3.79 3.04,0.44 -1.46,3.19 0.96,4.1 -8.81,3.66 0.31,3.1 -4.07,2.36 -2.25,3.86 -15.27,-0.37 -3.98,-1.86 -2.33,1.4 -5.66,-4.74 -2.24,0.19 -4.54,-3.2 -6.34,-0.59 -4.82,-4.05 -0.11,6.8 z"
     title="Vlasenica"
     id="BA-SR-VL" />
</svg>
