<?xml version="1.0" encoding="UTF-8" standalone="no"?>
<!-- Created for MapSVG plugin: http://mapsvg.com -->
<svg
   xmlns:mapsvg="http://mapsvg.com"
   xmlns:dc="http://purl.org/dc/elements/1.1/"
   xmlns:rdf="http://www.w3.org/1999/02/22-rdf-syntax-ns#"
   xmlns:svg="http://www.w3.org/2000/svg"
   xmlns="http://www.w3.org/2000/svg"
   width="972.25623"
   height="792.52155"
   mapsvg:geoViewBox="114.121199 5.044250 115.370668 4.021968"
   >
 <path
     d="m 572.43669,566.3093 -4.27,3.47 -2.17,4.91 -9.27,14.44 -7.12,8.3 -2.78,2.46 -1.55,2.45 0.62,3.08 3.09,2.45 3.1,-1.84 1.23,-3.07 3.1,-2.46 8.35,-2.15 2.78,-6.45 4.64,-5.22 4.33,-2.16 3.09,0.62 0.93,3.07 -0.31,3.38 -14.23,27.96 -2.78,4.91 -1.86,2.15 -1.23,4.92 -2.17,1.23 -1.85,3.38 -3.1,2.46 -8.66,11.12 -2.16,1.53 -1.24,6.46 -4.64,3.07 -1.54,7.99 -2.17,2.15 -1.86,0.92 0.31,3.07 1.24,1.84 3.4,0 4.02,-3.38 2.79,0 1.23,1.85 0.31,3.07 -0.61,4.61 -3.72,3.38 -0.92,1.53 -0.62,3.69 -4.95,3.69 -1.24,5.83 -10.51,4.31 -2.17,1.84 -1.24,2.46 -0.61,3.07 -12.99,11.67 -7.74,8.91 -1.54,3.07 -5.88,7.99 -1.55,4 -9.89,12.29 -9.28,5.22 -8.97,6.45 -14.23,8.6 -20.41,7.07 -12.37,1.84 -10.21,2.46 -12.37,-0.92 0.93,-3.38 1.85,-0.92 2.17,-3.38 6.8,-2.46 0.62,-2.15 -0.93,-2.46 0.93,-2.15 -0.93,-3.99 -2.16,-2.46 -3.4,-1.23 -2.17,-3.69 -3.09,-1.84 -9.59,-1.84 -6.49,0.92 -8.35,-1.84 -1.55,-1.54 -0.62,-3.69 -1.85,-2.76 -0.62,-3.07 -5.01,-3.38 -3.1,-4 -3.4,-2.76 -10.82,-4 -0.62,-1.53 0,-2.15 1.85,-1.23 0,-4 -1.54,-2.76 -2.48,-2.77 -3.09,-0.3 -2.78,-1.23 0.62,-1.85 1.85,-2.45 0.62,-5.23 -2.47,-4.3 -2.79,-3.07 -6.18,-2.46 -2.48,-1.53 -9.59,-6.76 -1.85,-2.46 -2.48,-0.31 -2.78,1.54 -7.11,1.53 -2.17,-0.92 -3.09,-2.45 -4.95,-9.22 -3.09,-3.69 -3.71,-3.07 -2.17,-5.84 -0.62,-5.22 -4.64,-7.68 -3.09,-7.68 -4.95,-5.22 -2.78,-9.22 0.31,-5.84 -1.86,-1.53 -3.09,-6.15 -2.17,-2.15 1.86,-5.53 -0.31,-3.99 0.93,-8.61 -2.48,-2.45 -1.54,-2.77 0,-3.38 -1.24,-0.92 -5.57,-0.61 -2.47,1.53 -0.31,3.69 -2.47,-0.62 -3.41,0.62 -0.31,1.84 -3.09,3.07 0,2.77 -1.85,5.22 -2.48,1.85 -8.04,-4.31 -2.78,-0.92 -2.48,-2.76 -2.78,-0.92 -0.62,0.92 -7.73,0 -3.09,-1.54 -4.64,-0.61 -7.12,2.15 -4.64,5.83 -10.82,-4.6 -5.88,0.3 -11.44,1.85 -4.02,-1.54 -2.79,-3.07 -1.23,-2.46 0.31,-3.07 1.54,-4.3 1.24,-13.83 2.47,-16.28 1.55,-4.61 1.55,-1.23 4.02,-11.37 0.93,-4.6 -0.31,-3.08 -3.41,-1.22 -2.47,-2.46 -2.16,-0.62 -4.64,-3.38 -2.48,-2.76 -3.4,-1.66 0.31,-3.07 1.24,-4 2.47,-7.06 2.17,-4 0.61,-3.68 -3.09,-10.45 -0.62,-4.91 -6.49,-14.44 -3.71,-6.76 -5.26,-7.38 -0.62,-2.45 0.62,-6.15 -6.5,-12.6 -3.09,-7.06 -1.24,-4.3 -3.4,-4.92 -1.55,-3.68 -8.35,-5.54 -10.51,-9.21 -10.21,-6.76 -2.16,0 -5.26,3.07 -3.09,-0.31 -0.62,-3.99 -1.24,-1.54 -1.24,-4.3 -10.21,-13.83 -8.36,-7.78 -5.21,-0.69 -9.92,-2.42 -18.73,-1.38 -14.33,-3.11 -3.65,-2.08 -1.91,-2.07 8.7,0.69 13.39,-0.52 1.57,1.38 1.91,0.18 13.22,-1.9 10.79,0.51 12.53,-1.21 9.74,0.35 8.21,-0.4 17.82,-3.12 6.05,-1.72 0.43,0.43 32.83,-9.26 0.66,0.22 2.37,-1.29 6.48,-1.94 1.08,0 0,0.86 1.73,0.43 -0.22,-1.51 1.73,-1.29 19.87,-6.67 6.26,-2.37 0.87,-0.86 1.51,0.43 1.73,-1.51 2.16,-0.43 1.29,-1.07 10.79,-3.69 9.95,-4.28 3.02,-0.43 2.38,-1.5 12.1,-3.66 10.58,-4.31 2.16,-0.21 6.26,-2.8 1.52,0.86 0.42,-1.08 1.52,-1.29 1.51,-0.43 1.29,-1.51 1.09,0.43 1.5,-1.07 8.86,-3.66 6.91,-3.88 1.08,-1.29 1.29,0 4.76,-2.37 8.21,-4.73 2.59,-2.16 7.56,-3.87 14.25,-9.04 12.75,-9.69 0,0 2.39,4.88 2.74,3.64 0.46,5.46 3.67,8.19 0.45,7.73 2.29,4.55 -0.91,8.19 29.76,39.58 21.99,-6.82 15.57,25.93 -0.92,14.1 -1.83,5.91 -2.29,3.64 0.46,8.65 5.49,3.64 11.91,6.09 88.85,92.35 6.87,20.02 5.49,25.47 3.67,10.01 10.53,3.19 19.23,8.18 z"
     title="Belait"
     id="BN-BE" />
  <path
     d="m 725.09669,117.2293 -3.02,0.64 -3.3,2.95 -5,1.87 -0.71,-0.34 0.2,-2.22 2.22,-3.31 1.31,0.44 6.67,-5.19 1.57,-0.1 2.17,0.63 0.36,0.57 -0.31,2.51 -2.16,1.55 z m -8.56,-6.26 -1.08,-0.24 -0.77,-1.25 0.25,-2.18 3.29,-2.88 1.01,-2.99 1.15,-0.62 0.95,0.55 0.39,1.19 0.18,4.37 -2.35,2.21 -3.02,1.84 z m 5.21,-10.01 -1.14,-0.46 -0.09,-1.469998 1.72,-5.43 1.61,-1.12 0.91,0.8 -0.03,1.98 -2.98,5.699998 z m 9.26,-46.919998 -0.91,-0.3 -0.39,-1.39 1.31,-3.56 1.67,-1.08 1.43,1.16 -0.01,1.07 -1.41,2.85 -1.69,1.25 z m 25.01,-26.53 4.2,0.81 10.04,-0.58 1.75,-0.46 0.47,-1.04 2.45,-0.7 1.63,1.74 1.52,3.83 2.8,3.25 1.52,3.02 0,1.04 1.75,0.46 0.47,0.46 -0.12,1.04 -0.58,1.04 -2.1,0.35 -12.14,-2.09 -7.94,0.46 -7.47,-1.16 -2.57,-1.97 -0.47,-1.74 -1.87,-2.2 -2.57,-1.74 -2.92,-1.04 -1.75,-2.78 -0.35,-5.57 0.7,-1.28 1.63,-0.7 1.98,1.74 9.94,5.81 z m 20.43,-22.8399999 4.09,0.23 3.62,-0.7 3.62,0.46 1.99,0.81 -1.29,0.46 -6.89,-0.23 -2.1,0.81 -12.14,0.46 -8.87,1.97 -1.28,-0.7 2.34,-1.74 10.86,-2.78 6.05,0.95 z m -51.61,-3.02 0.93,4.75 4.67,1.39 22.18,-0.58 1.63,-1.04 1.75,-2.32 0,1.51 -2.45,4.18 -4.44,2.0899999 -0.8,1.04 -6.07,2.32 -6.19,3.6 -1.87,3.48 0.23,9.97 -2.57,3.02 -6.07,0.66 -2.28,-0.41 -1.04,-1.04 -6.64,-0.82 -2.07,0.82 0.62,2.27 -0.42,1.03 -2.49,1.86 0,1.24 2.08,0.82 4.77,3.92 0.42,2.27 -0.42,0.82 -4.36,1.24 -0.42,3.3 1.87,1.86 4.57,-1.03 2.67,1.14 -0.46,1.59 -2.3,4.22 -6.63,4.05 -2.48,3.68 -4.11,2.64 -2.64,6.66 -5.06,7.25 -2.22,4.99 -4.4,7 -2.45,6.319998 -1.57,1.56 -6.65,2.14 -3.82,3.3 -4.31,2.63 -0.2,0.97 1.76,-0.19 3.33,-1.56 6.75,-0.1 7.24,-6.12 3.42,-7.099998 3.32,-5.15 1.58,-0.49 2.35,0.19 1.27,2.24 0.59,2.43 -0.13,4.649998 1.41,1.24 0.68,1.46 -0.29,1.75 -0.98,1.56 -2.35,1.75 -11.65,6.8 -12.33,9.82 -1.47,3.69 0.29,3.4 0.78,2.43 3.19,3.81 -0.13,1.99 -1.55,1.23 -5.23,2.11 -0.56,2.75 0.84,1.9 1.86,0.61 1.24,1.84 0.62,2.46 -1.55,1.54 -4.02,7.37 -3.71,4.92 -2.17,7.99 -2.17,-0.31 -4.02,-1.84 -13.61,-0.92 -4.95,-0.92 -22.27,0.31 -9.3,-0.86 -7.34,1.36 -9.95,5.65 -2.78,2.46 -8.04,3.07 -7.04,1.94 -6.57,6.36 -4.33,7.99 -0.93,3.99 -5.88,12.6 -0.79,4.14 -2,2.62 -7.11,3.38 -17.63,2.77 -7.42,3.38 -4.64,0.61 -4.64,3.07 -2.17,2.15 -3.4,1.23 0,0 2.75,-44.33 17.24,-40.4 8.13,-39.75 0,-11.96 -2.1,-21.319998 0,0 0.87,0.65 1.73,-2.15 0.43,0.43 1.29,-0.86 -2.81,-2.59 -2.38,-5.6 -0.43,-2.58 1.3,-2.59 0.87,0.65 -1.09,0.86 0,2.8 0.43,1.94 1.95,3.66 1.08,0.22 1.95,-1.08 1.94,-2.15 1.3,0.43 -0.65,2.15 1.08,0.43 3.24,-2.8 -1.51,-3.44 -1.73,-1.94 -3.89,-2.37 -1.29,-0.22 -2.16,0.65 -0.65,-0.65 1.08,-0.86 2.59,0 4.11,2.15 3.89,4.31 0.65,1.51 1.73,-0.65 0.87,0.22 3.02,-2.8 -0.65,-1.08 -0.86,0 0.43,-1.29 2.16,-0.86 0.43,0.65 -0.65,0.86 1.3,0.86 0.65,-0.43 0.65,-0.64 -1.08,-1.29 0.87,-0.54 1.29,0.11 0.65,-1.72 2.37,-1.07 0.87,-1.73 1.3,0.86 1.51,-1.51 -0.87,-1.72 1.3,-1.08 0.65,0.22 1.29,-1.51 0.65,0.22 1.3,-1.51 -0.65,-0.65 0.43,-0.43 3.25,3.23 1.08,0.22 1.08,-1.29 -0.22,-2.37 2.16,-1.08 1.08,0.86 -1.73,1.08 -0.21,2.8 1.94,-1.08 2.17,0 -0.22,-0.65 1.51,-2.37 -0.43,-1.08 0.43,-1.51 1.29,0 1.3,2.8 2.16,0 1.51,-1.08 0.43,-2.8 -1.51,-0.65 0.21,-1.08 2.38,-0.22 0.65,0.64 -0.65,3.45 2.48,-0.75 6.59,-3.12 1.29,-1.3 1.08,0.22 5.18,-2.8 5.4,-1.94 0.86,-1.08 0.44,0.43 0.86,-0.22 8.64,-4.52 2.37,-0.43 6.05,-2.8 2.16,-1.72 3.89,-1.08 5.81,-2.77 10.17,-3.26 2.38,-1.29 1.95,-0.22 1.67,-1.08 2.6,-0.43 12.79,-5.82 1.2,0 1.78,-1.24 8.95,-2.8 8.38,-3.5 2.81,-0.22 1.08,-0.8599999 1.29,0 7.78,-2.8 2.81,-1.51 1.51,0 8.98,-2.7 2.12,-2.09 1.86,0.34 1.05,1.04 z"
     title="Brunei-Muara"
     id="BN-BM" />
  <path
     d="m 808.05669,102.3993 0,5.99 2.59,2.89 0,1.33 1.57,3.11 0,3.33 -0.45,2.22 -1.34,0.22 -1.34,-1.55 -1.56,0 -1.12,1.11 0.22,3.77 -1.34,2.89 0,2.22 1.56,1.55 4.25,1.11 4.02,0.22 2.46,-1.55 4.25,0.44 0.44,3.33 1.79,0.45 3.13,-0.89 2.91,0 2.23,1.11 0.67,2 -2.9,3.77 2.23,2.88 0.23,3.34 0.89,1.77 1.79,1.55 5.58,7.11 6.93,5.1 2.68,2.89 9.84,6.22 3.35,3.77 7.15,4.88 3.13,2.89 -0.23,31.57 6.04,7.99 2.68,6.44 8.94,8.65 1.12,2 -5.14,20.42 0,4.89 2.01,2.88 7.6,0.67 2.01,1.11 2.23,7.55 -4.69,12.65 -0.45,5.33 1.79,2 10.5,7.1 2.68,2.44 3.58,3.33 2.01,4.22 2.24,11.76 0.67,7.77 -0.9,7.33 -4.02,13.67 -4.69,7.77 -1.12,3.11 -4.02,14.65 2.23,5.33 -0.89,4 -2.01,3.33 1.34,6.65 2.23,7.33 2.01,4.22 0.45,3.33 0,3.55 -1.34,2.89 -0.22,4.66 0.67,3.33 1.34,3.11 2.01,2.21 0.45,1.56 -1.35,4.88 -4.02,9.55 -0.45,2.44 2.02,5.77 0.67,4.22 5.14,4.93 6.92,8.43 4.03,3.11 1.34,3.33 0.22,5.55 0.67,2 6.93,3.77 8.94,2.67 2.46,3.99 2.68,0.22 1.79,0.89 1.34,2 1.11,4.88 3.58,5.33 1.56,5.55 3.58,6.88 2.23,1.56 3.13,0.66 2.46,1.56 2.01,2.44 -0.44,4.22 -1.79,4.66 -3.35,3.33 0.44,1.99 -0.89,3.11 -2.01,1.56 -4.25,1.99 -1.56,2.22 -0.23,2 -1.56,1.78 -3.58,1.77 -0.89,1.78 -5.36,3.77 -2.91,0.67 -2.01,-0.44 -0.89,-2 -3.13,-2 -2.68,-2.66 -3.36,-4.22 -0.67,-2 -4.49,-2.58 -2.01,-1.99 -2.01,-3.55 -0.23,-1.78 1.34,-5.77 -0.89,-2 -6.03,1.11 -5.81,-0.89 -3.13,-3.99 -1.34,-0.23 -2.24,0 -4.24,4.44 -3.13,1.34 -2.91,0 -2.68,-0.89 -3.13,-2.44 -2.01,-2.22 -0.89,-7.11 0.67,-4.21 -0.67,-3.11 -1.57,-2.67 -3.35,-0.88 -6.03,1.55 -2.24,-0.22 -5.36,1.55 -6.93,0.67 -2.9,-0.67 -8.5,-3.77 -2.23,-1.56 -4.02,-0.88 -2.69,0.66 -8.71,0 -3.8,-1.55 -6.93,-4.22 -6.93,-2.22 -15.19,4.44 -3.13,1.55 -5.36,0.89 -3.58,0 -5.36,-2.66 -10.28,-7.33 -2.24,0.22 -1.78,-2.44 1.11,-3.77 2.68,-3.11 2.91,-5.55 0.15,-2.54 1.19,-3.16 0.34,-6.06 -7.15,-9.77 -0.67,-3.78 0.22,-4.21 2.23,-9.77 1.34,-3.33 0.45,-4.22 -0.45,-3.11 -3.12,-5.1 -0.23,-10.44 -4.47,-6.21 -2.45,-7.99 0.22,-5.55 1.12,-3.55 0.22,-7.33 -1.34,-3.77 -3.8,-4.89 -5.14,-9.32 -0.45,-5.11 -2.68,-12.6 -2.46,-5.11 -6.7,-5.77 -2.01,-3.78 -2.46,-5.1 -0.9,-4.66 -4.69,-10.66 -0.44,-3.77 -1.12,-3.11 -1.34,-1.55 -0.9,-2.45 1.12,-3.55 5.81,-5.1 1.12,-2.22 -6.93,-3.78 -3.8,-3.33 0.45,-3.77 0.89,-2.22 4.7,-0.22 0,-2 -3.13,-2.22 -0.67,-7.77 -5.81,-4.66 0,-1.78 1.34,-1.77 2.23,0.44 2.46,-1.11 0.67,-1.55 -0.89,-1.56 -2.24,-1.55 -2.46,2.22 -2.23,-0.45 -0.67,-1.77 0,-1.56 3.8,-7.99 0.44,-4.22 -2.01,-0.88 -1.56,-2.36 2.9,-2.88 1.79,-0.89 1.34,-2.44 -1.34,-1.78 -4.24,-1.55 -2.02,-1.56 -1.34,1.56 -1.78,0.89 -1.57,-0.23 -1.12,-1.55 -0.67,-3.55 -1.34,-2.89 0.9,-2.88 1.11,-1.33 2.02,0.22 4.46,-3.33 0.23,-2.44 -2.24,-6.89 2.01,-4.44 5.37,-4.21 9.38,-5.11 1.57,-2.22 -1.34,-4.44 -4.25,-0.44 -3.35,0.89 -2.46,-0.45 -2.23,-1.33 -2.46,-2.66 -1.12,-4 1.79,-1.78 0.89,-9.1 1.57,-0.66 0.89,0.88 3.58,-0.44 5.58,-4 3.35,-3.55 3.36,-1.11 3.13,-4.22 6.92,-4.21 2.68,0.44 2.46,-0.67 2.24,-1.77 3.8,-0.89 3.35,0 1.79,1.33 2.46,-1.55 3.35,-3.33 3.13,0.44 2.45,2.44 2.02,0.23 3.12,-0.89 0.45,-4.66 -2.46,-2.44 -0.22,-2.22 1.12,-1.34 2.9,2.45 1.57,-0.45 -0.23,-2.66 -5.14,-4.22 -2.23,0 -2.91,-0.89 -6.92,-8.66 -1.57,-5.77 0.45,-2.66 1.56,-2.67 5.37,-1.11 4.91,-3.33 1.12,-1.33 7.82,0 8.94,-1.55 1.56,-1.56 2.24,-0.22 1.34,1.34 2.01,-0.23 6.26,-2.66 z"
     title="Temburong"
     id="BN-TE" />
  <path
     d="m 534.80669,83.649302 2.1,21.329998 0,11.95 -8.13,39.75 -17.25,40.4 -2.74,44.34 0,0 -1.86,1.84 2.17,1.84 5.87,1.54 2.17,1.23 0,5.83 -1.24,3.08 -2.47,1.23 -1.24,2.45 0.31,6.76 3.4,0 2.78,0.92 1.55,1.23 0.93,5.23 1.37,2.97 2.78,1.21 3.48,-0.17 3.13,1.21 0.35,1.73 -1.53,3.49 -1.85,2.46 0,3.07 0.62,1.85 2.47,2.15 -0.93,16.89 1.24,2.46 4.64,3.38 0.98,2.71 -0.05,10.56 0.62,3.38 1.23,0.92 -2.47,3.69 0.93,2.46 4.33,1.53 1.23,1.23 -0.3,2.46 -1.55,1.23 1.85,2.76 0.62,3.08 -0.31,5.83 -1.23,3.08 0.31,3.99 2.78,9.83 -0.93,6.15 2.48,5.83 -0.93,21.2 0.31,9.22 -1.24,11.67 0.93,3.69 1.54,2.77 0.62,3.68 -0.31,5.84 4.64,8.91 -0.62,3.69 1.86,8.29 3.71,3.69 9.28,4.3 3.71,0.31 3.09,-1.54 3.1,2.15 9.89,-0.31 3.41,-2.15 4.33,-1.53 3.71,0.92 1.85,5.22 -0.92,4.49 -0.31,7.06 -2.17,5.23 -1.24,1.53 1.86,4.92 0,2.15 -1.24,11.67 -4.02,20.28 -2.78,6.14 -5.88,8.61 -4.64,3.99 -2.78,4.92 -2.17,1.53 0,4.3 -1.6,1.45 0,0 -26.89,-10.19 -19.23,-8.18 -10.53,-3.19 -3.67,-10.01 -5.49,-25.47 -6.87,-20.02 -88.85,-92.35 -11.91,-6.09 -5.49,-3.64 -0.46,-8.65 2.29,-3.64 1.83,-5.91 0.92,-14.1 -15.57,-25.93 -21.99,6.82 -29.76,-39.58 0.91,-8.19 -2.29,-4.55 -0.45,-7.73 -3.67,-8.19 -0.46,-5.46 -2.74,-3.64 -2.39,-4.88 0,0 9.51,-7.75 6.47,-4.52 0.22,-0.86 1.73,-0.86 8.2,-6.89 0.65,-1.08 4.97,-3.66 6.05,-5.17 6.69,-7.1 1.3,-0.65 0.86,0.65 1.73,-0.22 0.87,-0.43 1.08,-1.72 1.29,0.21 0.87,0.87 2.59,-1.73 3.45,0 4.11,-4.52 0.21,-3.87 -2.15,0.21 -6.49,6.03 -2.16,0.86 -0.21,-1.29 2.16,-2.8 3.02,-1.94 5.18,-5.38 8.66,-6.47 5.38,-4.72 0.44,-1.08 6.2,-4.16 16.04,-14.79 3.89,-4.31 7.13,-6.02 1.29,-1.73 6.7,-4.09 3.67,-3.44 0.44,0.21 6.26,-4.31 1.95,-0.43 4.74,-3.66 11.02,-6.67 2.16,-1.94 1.3,-0.21 2.8,-2.37 1.08,-0.22 5.4,-3.88 1.51,-0.43 1.95,-1.72 4.97,-2.37 4.75,-3.66 7.99,-4.95 2.16,-2.15 5.18,-3.02 5.83,-4.95 6.92,-4.099998 3.02,-2.58 0.43,-2.37 0.65,-0.21 1.09,1.07 0.86,-0.64 0.64,-0.97 0,-1.62 0.92,0.97 1.46,-0.75 0.65,-0.65 -0.65,-1.29 0.65,-1.08 1.08,1.08 1.08,-0.21 0.21,-1.08 -0.43,-0.43 0.65,-1.29 1.08,0.64 0.65,-0.67 -0.22,-2.13 z"
     title="Tutong"
     id="BN-TU" />
</svg>
