<?xml version="1.0" encoding="UTF-8" standalone="no"?>
<!-- Created for MapSVG plugin: http://mapsvg.com -->
<svg
   xmlns:mapsvg="http://mapsvg.com"
   xmlns:dc="http://purl.org/dc/elements/1.1/"
   xmlns:rdf="http://www.w3.org/1999/02/22-rdf-syntax-ns#"
   xmlns:svg="http://www.w3.org/2000/svg"
   xmlns="http://www.w3.org/2000/svg"
   mapsvg:geoViewBox="14.421468 11.007742 27.464488 2.219468" 
   width="1174.9122"
   height="792.64313">
   <path
     d="m 419.18288,221.6015 0.15,4.22 -1.43,0.93 -0.17,1.13 1.47,1.63 -1.2,1.28 -0.32,1.61 0.9,2.76 0.8,0.53 -0.4,0.88 -1.62999,0.18 0.48,3.24 -1.9,0.98 0.72,1.7 -0.35,2.21 -2.05,1.03 -0.35,2.66 0.6,1.84 1.88,1.25 1.3,0.03 0.05,1.73 0.62,0.6 -0.5,2.59 0.68,1.78 -1.8,1.81 1.15,3.11 -1.78,1.83 1.63,2.06 -1.2,1.33 -0.08,1.73 -1.27,0.4 -0.43,0.88 0.43,2.63 -0.98,2.16 1.15,1.31 -0.27,1 -1.2,1.33 -2.65,1.05 1.87,2.49 -2.82,2.73 1.5,2.21 -1.43,2.35 0.3,2.66 0.95,0.9 1.88,-0.37 0.92,0.73 -23.61,11.1 -2.7,1.46 -1.02,1.75 11.55,31.6 -0.85,1.35 -5.45,2.28 -0.63,0.75 -0.17,3.93 -0.98,1.1 -4.22,2.21 0.07,1.55 3.23,0.67 -0.08,1.81 -2.82,1.6 -1.58,6.11 -3.7,2.3 -0.43,2.38 5.16,4.63 1.72,6.45 2.7,0.23 -1.65,3.38 0.63,2.2 5.5,4.18 5,1.65 1.23,1.87 -0.25,1.58 -1.05,1.15 -4.95,2.2 -2.91,2.28 -1.35,3 -0.62,3.5 0,0 -0.98,1.75 0.08,1.67 10.93,10.8 -0.4,6.08 0.45,4.75 1.2,1.6 3.02,0.95 0.25,1.25 -0.82,1.42 -4.33,1.33 -1.42,2.27 -3.63,1.75 -2.8,3.47 -2.13,1.8 -3.95,1.75 -0.77,1.5 -6.51,2.52 0.1,1.92 1.2,2.8 -2.52,5.65 1.87,4.67 -0.57,3.59 1.05,5.21 0,0 -0.95,-0.69 -0.98,0.4 0.3,4.22 -1.75,3.8 -8.45,4.39 -8.61,3.25 -0.97,-1.33 0.12,-5.36 -2.45,-4.7 2.91,-2.72 -0.33,-1.92 -4.8,-1.87 -4.08,-0.03 -2.22,1.22 -0.88,-1.14 -0.23,-2.95 -2.17,-1.2 -8.23,0.67 -2.15,0.85 -3.38,-2.44 -5.27,1.59 -1.88,-1.39 -0.3,-3.67 -1.45,0.19 -7.28,-4.82 -2.3,0.06 -2.47,1.29 -2.03,3.15 -2.4,1.9 -18.51,10.56 -51.29,0.7 -5.06,-8.79 0.78,-2.92 -0.3,-1.78 0,0 -1.23,-1.57 0.05,-2.65 -2.92,-3.79 0.27,-1.68 -1.27,-4.72 0.57,-1.82 -1.3,-1.77 -0.82,-4.55 0.65,-1.2 1.82,0.7 2,-1.7 -1.12,-2.37 -0.38,-5.33 1.55,-6.97 1.43,-1.03 1.42,1.05 0.85,-0.9 1.8,0.03 -0.25,-1.42 1.41,-1.03 -1.1,-1.38 0.32,-1.44 0.62,-0.61 1.31,0.38 2.17,-2.8 2.35,0.22 0.85,-4.97 -5.5,-3.38 -1.9,1.15 -5.13,-0.92 -0.72,0.55 -0.5,2.07 -1,-0.3 -2.13,0.65 -2.05,-1.07 -1,-1.5 -1.55,-0.1 -1.03,-0.88 -2,-4.62 -2.67,-0.55 -0.58,-0.65 -0.32,-3.86 1.99,-2.07 -2.17,1.8 -1.8,-0.6 -0.5,-1 -0.75,-2.65 0.15,-4.98 -2.65,-5.85 -0.08,-9.99 -1.05,-1.4 -0.2,-2.95 -2.22,-1.48 0.25,-1.98 -1.13,-2 2.33,-1.37 -0.45,-3.03 2.78,-0.63 1.14,-2.6 1.76,-1.36 0.85,-3 -1.53,-6.69 0.75,-3.05 1.58,-2.83 0.35,-8.39 1.22,-1.23 -0.37,-1.9 2.92,-1.98 0.75,-1.76 -0.05,-1.6 -1.87,-2.43 0.98,-5.03 0,0 1.94,0.26 2.16,-0.79 0.57,-1.6 1.96,0.55 1.09,-0.72 -0.06,-1.01 -1.06,-0.47 0.91,-2.04 -0.43,-1.74 2.47,-0.57 2.58,-1.19 2.71,0.04 4.79,0.04 0.8,-1.81 1.63,0.33 2.1,-0.81 0.06,-2.86 2.19,0.41 1.48,2.2 2.56,-0.32 0.21,-1.3 1.02,-0.66 -0.76,-1.29 4.76,-2.15 -0.14,-1.41 1.4,-1.91 2.71,1.48 0.61,-1.32 -0.43,-2.03 1.73,-1.76 2.23,-2.18 3.31,-1.2 2.1,-0.78 3.61,-1.49 2.19,-1 2.38,-0.59 0.73,-0.93 4.26,2.29 0.76,-2.01 1.2,0.34 0.93,-3.08 1.31,-0.12 0.7,1.31 2.44,-2.22 1.8,0.53 1.5,-1.67 1.41,-0.03 0.85,-2.57 1.2,-0.78 2.01,0.1 3.53,0.3 16.97,1.78 2.1,-0.38 4.56,-2.7 3.28,-1.5 21.46,-1.06 30.88,-2.63 1.01,-0.86 1.12,-2.83 -0.8,-4.53 3.47,-5.84 3.95,-2.33 8.45,-2.63 2.95,-2.56 1.8,-3.15 -0.6,-2.12 2.32,0.56 1.03,-1.43 1.07,-0.65 1,-2.07 1.19,-0.31 0.28,-0.99 -0.87,-0.45 0.39,-1.61 0.78,-0.15 0.18,-0.97 2.23,-2.11 1.2,-0.39 0.22,-1.58 2.2,-1.65 -0.7,-1.18 3.56,-1.76 1.41,-3.41 0,0 z"
     title="Ouham"
     id="CF-AC" />
  <path
     d="m 574.92288,142.5015 3.72,5.49 2.08001,-0.2 1.79999,0.71 4.23,-5.27 2.52,-1.15 1.6,0.37 2.23001,-1.48 3.5,-6.07 5.35,-2.68 3.35,0.16 2.46,-1.24 3.62,0.25 4.45,-1.66 3.28,-3 1.5,-3.68 2.4,-1.28 1.5,-2.27 6.58,-3.28 2.08,-3.71 4.12,0.38 1.18,3.46 -0.58,2.69 1.25,4.26 0.38,4.79 1.8,1.21 3.13,-0.65 3.87,0.25 1.95,3.68 5.86,5.06 1.27,4.18 5.1,4.08 1.38,9.4 2.97,3.55 2.2,7.27 4.61,2.24 2.75,4.23 6.05,3.62 1.85,5.76 6.3,3.35 -0.67,3.07 3.65,15.61 1.42,1.41 4.48,2.01 2.05,2.16 6.41,1.86 3.95,-0.02 4.85,1.33 1.22,1.46 -0.2,5.35 0,0 -1.7,2.16 -1.67,0.23 -16.66,-1.51 -3.18,-0.85 -3.6,-2.64 -1.62,-0.25 -7.5,2.38 -1.78,1.94 -1.45,4.65 0.65,3.87 2.6,4.02 0.85,2.81 -0.12,1.73 -3.78,8.77 0.37,1.95 2.93,2.99 -0.48,1.51 -8.15,2.03 -3.47,-0.58 -2.23,-5.52 -4.3,-2.84 -1.55,-3.46 -1.48,-0.38 -7.73,4.45 -4.47,0.6 -1.9,4.37 -5.11,-2.06 -5.5,0.3 -0.5,3.16 -2.62,2.16 -4.63,2.14 -1.38,1.8 2,5.07 4.68,8.43 -29.79,0.08 0.68,8.78 -2.5,4.97 2.15,4.38 0.47,8.63 0,0 -1.95,1.45 -1.35001,5.72 -3.5,2.61 -0.02,2.88 2.27,4.49 -5.48,4.73 -5.85,8.85 -2.87,3.25 -1.08,2.73 -1.95,1.13 -1.03,1.48 -3.2,1.03 -4.15,2.75 -6.55,-2.08 -3.6,0.58 -1.2,1.93 -1.15,5.05 -1.4,3.01 -6.63,5.73 -1.98,0.48 -2.97,-0.33 -2,2.38 -1.91,0.5 -1.7,1.38 -2.05,-0.05 -1.8,-1.93 -1.2,1.33 -2.5,-0.43 -1.9,1.15 -2.98,-1.5 -7.3,0.15 -1.82,-2.45 -4.06,-1.1 -0.67,-1.81 0,0 -0.63,-0.57 -1.22,0.62 -0.78,-0.35 -0.37,-2.37 -2.02999,0.37 -2.4,-1.38 -0.27,-0.95 -3.48,-2.15 -0.2,-1.63 -1.43,-0.52 -1.02,-1.41 -2.53,-0.72 -1.37,-1.13 -2.18,0.07 -0.17,-1 -3.36,-2.93 -0.67,-3.38 0.3,-2.73 -1.38,-1.15 -0.62,-1.76 -0.83,-0.35 -0.72,1.13 -1.43,-0.4 -2.72,-3.48 -0.85,-2.81 -1.68,0.65 -1.7,-0.82 0.02,-5.27 -0.77,-1 -1.93,-0.15 -0.07,-2.83 -1.38,0.15 -1.27,-1.8 -2.78,1.5 -1.4,-1.68 -2,-0.1 -0.5,-0.7 -4.18,-0.18 -0.27,-3.16 1.27,-1.25 0.23,-2.66 -2.78,-1.2 1.88,-1.88 0.17,-1.1 -2.67,0.72 -2.95,-1.85 0.12,-0.9 -1.68,-1.48 -3.6,1.1 -2.75,-2.86 -0.45,1.81 -0.77,0.47 -3.35,-3.48 -1.6,2.21 -3.43,-3.94 -0.9,-2.13 2.72,-2.19 -0.3,-0.9 -1.7,-0.83 -0.6,-1.83 2.88,-3.26 -1.75,-2.58 2.22,-2.66 -1.27,-4.17 3.15,-2.33 -2.55,-1.88 1.33,-4.07 -1.13,-0.75 0.2,-1.38 -1.2,-0.68 -0.45,-2.56 -5.2,-4.21 -1.53,-3.12 -1.65,-0.63 0.45,-1.48 -1.32,-0.57 1.05,-2.11 -1.46,-1.08 -0.8,-2.74 -2.7,-2.86 -2.7,-1.13 -1.35,-1.76 -1.9,-4.82 -1.72,-0.86 -1.5,-8.21 -1.28,-0.88 0,0 0,0 0,0 -2.7,-0.09 0,0 0.12,-2.44 1.56,-1.83 0.22,-1.81 4.93,-2.84 0.08,-0.6 -1.48,-2.11 -5.7,-2.6 -2.46,-3.47 -4.87,-2.02 -1.24,-2.23 -2.12,1.11 -1.2,-0.59 -0.31,-3.6 -0.49,-0.35 -1.1,-0.07 -0.65,0.99 -1.7,-1.1 0.52,-2.09 2.2,-1.26 1.14,-0.75 1.56,-2.54 3.39,-0.15 1.41,-1.26 1.04,-3.05 2,-0.26 1.22,-1.54 3.18,-0.06 2.98,-2.24 1.16,1.08 2.75,0.37 3.59,-1.81 1.57,0.26 2.33,-0.9 3.09,0.51 2.02,1.27 3.07,0.37 2.58,-1.14 2.51,0.66 6.61,-1.64 1.81,1.22 1.79,0.3 1.35,-0.36 0.43,-1.23 0.71,-0.2 1.46,1.62 2.82,-1.72 2.1,-0.43 2.19,1.87 6.31,-0.13 2.69,-0.61 1.76,-1.53 9.09,-1.8 0.93,1.75 0.83,0.09 2.03,-1.86 1.95,0.32 1.69,-0.66 2,0.68 1.1,-2.38 3.68,-0.45 1.59,-2.21 1.31,-0.87 2.1,-0.2 1.52,-1.3 2.59,0.84 1.8,-2.11 2.63,1.67 5.45,-0.09 2.71,-1.15 4.72,2.69 4,-0.13 3.16,-0.42 3.57,-2.02 3.72,-0.31 1.45,-1.06 4.3,-9.65 -0.59,-1.82 0.39,-1.35 2.53,-0.05 0.42,-2.67 3.49,0.62 1.22,-1.14 2.11,2.39 3.02,-0.12 0.24,-0.48 0.65,-1.74 1.35,-4.81 8.83,-0.53 0.66,-0.61 0,-1.83 z"
     title="Bamingui-Bangoran"
     id="CF-BB" />
  <path
     d="m 382.52289,601.2815 -3.75,0.42 -1.72001,-0.92 -3.44999,1.99 0,0 -2.02,-3.58 0.81,-2.42 1.42,-1.61 5.86,-0.61 1.61,2.22 z"
     title="Bangui"
     id="CF-BGF" />
  <path
     d="m 543.23288,585.2615 4.3,-1.39 6.68,-3.96 7.55,-7.98 4.75,-6.48 3.48,-0.92 5.35,-3.54 5.2,0.9 2.81,-1.45 0.7,-1.12 0.12,-3.84 -1.22,-6.91 1.1,-2.87 2.77,-3.96 0.18,-1.42 -3.43,-8.08 1.4,-3.75 2.23,-1.97 1.2,-2.59 0.87,-9.06 -0.95,-5.94 3.23,-3.89 -0.9,-5.69 -3.03,-1.37 -0.64999,-1.37 0.95,-1.25 4.35,-0.45 2.63,-1.35 -0.5,-4.32 2.88,-2.99 0.47,-1.55 -2.53,-3.95 0.43,-1.94 2.7,-0.03 1.48,0.68 1.27,0.99 2.53,4.15 3.65,-0.43 1.42,-1.39 5.01,2.37 5.41999,-2.5 3.81,-3.84 1.1,0.6 0.77,1.59 0.98,0.03 2.57,-3.55 1.78,3.1 2.98,0.82 1.22001,3.4 1.6,1.55 0.65,3.02 -0.70001,1.44 2.25,3.77 0.55,3.17 2.88,0.48 1.55,2.92 2.08,0.35 4.62,-1.67 2.38,-6.02 0,0 8,0.67 4.58,2.5 1.67,-0.08 7.13,3.35 0,0 0.43,1.97 -1.13,3.15 1.3,4.91 -1.42,4.42 0.2,7.43 -0.55,3.72 -2.58,4.71 -5.9,4.42 0.25,1.94 2.67,3.4 0.53,3.09 -5,7.16 -0.48,9.57 -2.15,3.94 0.18,3.19 -0.78,1.02 -0.07,2.05 0.37,0.82 3.28,0.25 1,-0.72 0.72,1.09 1.83,-0.37 1.9,2.62 1.45,0.37 1.85,-0.5 0.98,2.05 2.37,-0.53 -0.55,1.87 0.43,1.42 3.82,3.44 -1.37,2.62 1.05,0.8 4.48,0.94 3.62,-1.87 1.58,0.25 1.47,-0.74 4.15,0.34 2.16,1.52 0,0 0.52,1.28 0,0 -1.47,2.19 -0.16,1.64 -3,3.69 -0.42,2.02 -2.83,3.89 0.95,6 -3.25,2.84 -0.25,3.42 0,0 -3.82,-1.69 -3.03,1.5 -2.17,-0.8 -6.85,-0.66 -4.91999,-2.69 -2.96001,-0.01 -3.35,-3.03 -5.2,0.74 -1.47,-1.21 -0.89,0 -7.72,5.54 -6.26,-0.95 -2.4,-0.98 -3.67,0.74 -8.42,-2.99 -4.7,-3.94 -2.85,0.77 -1.22,3.04 -2.31,0.75 -1.77,-1.56 -1.46,0.19 -5.09,-3.03 -1.6,-3.07 -2.32,-1.98 -4.59,-0.87 -4.93,-2.33 -7.64,-0.85 -1.74,-0.74 -6.39,2.86 -3.34,0.05 -2.63,-0.69 -10.4,1.74 -5.18,-3.24 -2,-0.42 -2.18,-3.03 -2.78,-0.83 -1.42999,-1.56 z"
     title="Basse-Kotto"
     id="CF-BK" />
  <path
     d="m 817.89288,186.0415 2.54,-0.13 3.45,-4.05 1.5,0.99 0.22001,5.71 -0.69001,2.85 -3.11,5.07 -2.92,1.87 -0.5,1.02 -0.03,3.89 1.04999,1.17 0.03,2.89 2.2,0.84 1.17,0.14 1.79,-2.21 4.7,-0.36 4.25,1.75 5.59,0.82 3.98,-1.53 3.14,-0.35 4.99,1.85 6.04,-1.23 2.48,0.47 2.37,1.53 3.89,-0.18 8.48,1.59 2.94001,-1.4 3.73,1.78 2.55,-2.03 1.65999,-0.1 0.75,0.78 -0.1,1.75 -2.5,4.7 1.09,1.95 2.3,1.95 -3.29,2.97 -5.58,6.72 -1.74,8.5 0.13,1.59 4.52,5.97 6.61,2.84 0,0 1.3,3.22 6.33,5.27 4.77,1.48 0.5,4.44 5.23,3.74 0.53,1.2 -1.38,8.84 -1.78,2.38 1.18,2.16 0.45,6.57 1.9,3.71 -0.57,4.46 1.8,3.09 -0.78,4.51 0.25,2.66 0.68,2.33 2.37,3.06 1.08,3.81 2.1,0.9 -0.9,1.28 3.67,1.78 -0.07,0.52 -0.98,0.13 -1.67,5.56 -1.38,0.43 -0.25,2.15 -1.12,0.58 -2.35,6.08 1.07,3.69 -0.97,1.32 0.07,1.03 2.8,0.1 -0.57,2.36 2.37,1.92 -0.95,1.33 0.2,4.91 -1.3,3.48 1.05,2 0.38,3.51 -1.23,2.4 -2.27,-0.58 -2.18,3.26 -3.48,0.55 -3.7,-0.78 -2.8,1.48 -2.85,-0.23 -0.48,1.93 -2.3,0.75 1.13,3.61 1.38,0.42 0.25,0.83 -2.13,0.7 0.2,2.93 -4.1,1.97 0.22,0.95 0.98,0.25 0.25,1.56 0.92,0.05 0.13,1 -1.73,0.72 -2.05,-0.85 -0.68,2.22 0,0 -62.47,34.02 -7.78,5.32 -3.35,1.55 -2.47,3.58 -0.48,3.12 -1.57,1.3 -3.83,0.33 -1.4,-1.05 -1.7,0.72 -0.43,2.35 -1.4,0.45 -0.42,0.78 0.6,1.82 -0.53,1.27 0.33,2.65 -2.13,2.13 -35.84,-9.45 -3.17,-6.55 -2.35,-1.25 -5.66,1.25 -6.2,-1.3 -12.26,2.55 -3.32,5.83 -1.1,5.02 -2.55,3.92 -7.86,4.15 -3.02,-0.92 -5.18,0.87 -1.8,-2.55 -2.54999,0.1 -1,1.78 -6.10001,1.97 -4.98,4.32 1.3,1.17 0.17,1.53 -4.37,5.34 -0.53,6.9 0.33,4.49 -2.2,2.65 0.55,2.49 2.15,2.73 0.42,2.94 -0.75,0.53 -3.82,-0.45 -0.85,1.57 1.7,0.12 0.42,0.78 -0.95,1.47 -6.23,4.09 -1.82,3.05 -3.13,1.75 -0.95,1.47 0,0 -7.13,-3.35 -1.67,0.08 -4.58,-2.5 -8,-0.67 0,0 -0.08,-4.32 9.08,-7.14 1.55,0.1 7.05,5.37 0.73,-2.25 3.13,-2.77 0.47,-4.44 1.68,-2.82 1.37,-6.15 0.45,-7.99 -0.32,-1 -2.9,-2.72 -1.95,-7.75 -5.51,-0.54 -0.72,-0.6 0.22,-3.65 -1.75,-2.68 -1.07,-5.37 -3.9,-2.22 -0.85,-1.4 5.17,-7.6 1.55,-3.4 -0.22,-2.4 -2.2,-3.4 -0.98,-3.1 1.85,-10.78 -2,-2.12 -5.2,-0.18 -1.2,-0.57 -0.85,-2.75 -2.25,-1.51 -2.45,-4.2 -0.53,-5.33 -2.37,-2.05 0.05,-1.57 3.22,-2.26 0.23,-1.82 -0.75,-1.78 1.45,-2.58 -1.9,-4.05 0.22,-5.01 -2.77,-1 -0.85,-9.56 -1.73,-7.06 0.68,-8.17 -0.71,-2.73 -1.97,-1.32 -5.05,0.85 -4.53,-0.18 -2.4,-0.8 -1.03,-2.63 1.33,-12.2 -2.83,-5.72 -6.37,-4.93 -6.91,-1.01 -2.8,-1.17 -4.58,-5.72 -2.9,-1.83 0,0 -0.47,-8.63 -2.15,-4.38 2.5,-4.97 -0.68,-8.78 29.79,-0.08 -4.68,-8.43 -2,-5.07 1.38,-1.8 4.63,-2.14 2.62,-2.16 0.5,-3.16 5.5,-0.3 5.11,2.06 1.9,-4.37 4.47,-0.6 7.73,-4.45 1.48,0.38 1.55,3.46 4.3,2.84 2.23,5.52 3.47,0.58 8.15,-2.03 0.48,-1.51 -2.93,-2.99 -0.37,-1.95 3.78,-8.77 0.12,-1.73 -0.85,-2.81 -2.6,-4.02 -0.65,-3.87 1.45,-4.65 1.78,-1.94 7.5,-2.38 1.62,0.25 3.6,2.64 3.18,0.85 16.66,1.51 1.67,-0.23 1.7,-2.16 0,0 3.93,-0.75 4.33,1.58 3.52,-0.33 5.33,-5.37 8.13,-4.93 12.93,-0.1 11.1,-4.55 6.33,-1.01 2.65,0.99 1.7,-0.21 1.4,-1.2 0.7,-1.86 0,-8.43 1.11,-2.06 9.75,-7.12 6.18,-0.85 4.57,-3.25 2.43,-13.21 2.27,-3.75 3.91,-2.24 2.42,-0.23 2.43,0.63 -1.08,1.34 -0.8,3.65 0.93,2.84 1.32,1.8 0,0 0.11,3.12 -1.07,2.52 0.12,1.89 -1.5,2.59 1.4,1.12 0.19,2.12 z"
     title="Haute-Kotto"
     id="CF-HK" />
  <path
     d="m 903.16288,248.2615 2.29,-0.09 1.6,3.4 0.89,-0.1 1.15,1.42 3.42,1.7 8.38,-1.98 3.13,0.59 1.85,1.16 3.36,-0.19 1.95,2.28 6.35,-0.64 1.26,1.24 0.66,-0.6 1.04,0.29 2.16,3.87 1.54,7.78 3.58,2.11 2.35,4.02 7.84,5.08 3.1,3.95 7.82,-1.74 3.01,3.24 1.57001,-0.06 -0.10001,1 3.31,3.98 0.04,1.18 2.03,-0.02 0.33,4.88 -1.08,1.9 0.5,1 -0.59,1.41 2.26,2.3 -0.04,0.64 -1.43,0.25 -0.11,2.13 -2.82,1.6 -1.76,0.04 -0.46,0.93 -1.57,0.08 -0.34,1.08 -3.17,1.65 -0.13,0.87 1.18,0.77 0.93,2.26 0.27,4.25 2.34,0.44 1.12,1.08 2.84,0.42 0.48,-0.71 1.05,1.31 -0.35,0.74 2.11,1.58 0.29,1.12 1.22,-0.39 1.16,0.48 2.21,6.96 1.51,0.36 1.04,1.49 1.32,-0.79 3.05,2.7 1.24,-0.31 0.1,2.1 1.12,-0.38 1.1,1.62 1.37,-0.64 0.58,0.81 0.68,-0.04 0.33,-0.99 1.45002,0.16 2.07,2.27 0.81,-0.6 1.12,0.76 -0.17,1.54 0.89,0.43 0.85,-1.11 0.69,0.45 0.18,1.52 4.49,0.64 1.58,1.58 3.17,0.07 1.73,2.13 1.95,-0.74 0.85,0.34 0.02,1.36 6.03,0.88 0.6,0.65 -1.19,2.46 0.48,0.35 4.14,0.34 1.12,0.91 1.24,0.01 1.57,1.24 -1.12,1.57 2.59,0.63 0.58,1.49 4.37,0.47 0.7,2.71 4.06,-0.05 1.61,0.62 0.5,1.37 -0.82,1.8 0.89,1.85 -1.27,1.78 1.97,0.12 -0.19,1.21 0.66,0.87 1.58,-0.68 0.33,0.37 -0.32,4.49 1.71,2.74 0.91,0.77 4.76,0.19 1.08,1.13 -0.25,1.32 2.85,2.08 -0.11,1.41 4.54,1.19 0.47,2.25 4.59,0.53 1.51,1.12 2.42,0.15 3.06,2.99 1.41,0.36 0.72,1.31 -1.02,2.31 -1.99,1.51 0.01,1.45 -2.61,0.32 -0.27,2.26 -1.24,0.91 -1.4,2.5 0.58,1.28 -2.67,0.37 -0.96,2.83 1.53,-0.26 0.43,0.52 -0.7,1.67 1.36,1.02 -1.95,2.5 0.35,1.28 4.11,2.77 3.7,4.02 4.73,1.15 3.45,2 -0.28,3.62 1.47,2.03 2.61,-1.07 1.59,1.02 -0.15,1.84 -2.16,3.3 -4.56,3.07 -0.71,3.42 0.82,0.72 2.36,-2.25 2.93,-1.15 1.13,1.27 0.67,3.37 1.18,0.65 0.72,2.11 1.8,0.6 2.28,-0.3 1.32,1.18 3.14,1.07 2.57,-1.26 1.86,0.17 1.4,1 2.88,-0.66 1.59,1.31 2.09,0.46 0.6,0.9 1.01,-0.35 1.61,2.28 0.42,5.23 0.82,1 2.79,0.94 1.64,-0.89 2.21,-0.12 1.13,2.12 2.73,1.99 3.44,-0.94 1.71,0.9 0.87,0.97 -0.26,1.53 2.25,1.08 0.29,1.64 0.97,-0.37 0.93,0.73 0.73,-0.97 2.13,-0.33 1.38,0.71 0.08,1.57 3.64,0.72 0.3,0.52 -1.69,1.11 3.9,1.96 2.63,3.56 -0.44,1.59 2.21,2.41 -0.61,2.93 0.67,1.97 1.95,-1.05 2.15,1.21 -1.04,1.86 0.42,3.24 -1.62,2.11 -2.28,7.18 0.6,4.12 1.57,1.76 -1.04,1.28 0.28,1.82 2.36,4.35 1.59,1.33 0.73,3.19 1.36,1.82 0.7,0.77 2.38,0.52 0.88,1.49 3.3,2.19 0.84,3.02 4.44,4.23 -0.05,3.22 0.79,1.78 -2.02,-0.53 0.14,-3.72 -2.52,-2.19 -16.46,-5.79 -6.7,-4.25 -4.07,-0.64 -3.02,0.24 -4.46,1.53 -8.46,4.75 0.08,1.15 -1.07,0.83 -1.07,2.88 -1.9,0.58 -0.55,2.52 -1.16,1.05 -3.66,-2.28 -0.93,1.03 -1.17,-0.12 -1.35,-2.1 -1.97,-1.18 0.1,-1.45 -1.67,0.4 -1.92,0.23 -0.99,0.27 -1.1,-0.16 -1.69,0.54 -0.15,-0.85 -0.68,0.06 -0.02,1.1 -1.03,0.6 -1.28,0.1 -1.3,-1.11 -0.25,0.64 -0.97,0.11 0.54,1.01 -0.41,0.5 -1.29,-1.51 -1.63,0.58 -0.62,-0.78 -1.3,0.15 -0.06,1.57 -0.91,-0.02 -0.64,-1.16 -0.62,1.12 0.37,0.49 -1.28,1.08 0.12,-1.92 -0.7,0.06 -0.64,2.07 -1.59,0.02 -1.9,-0.22 -2.19,-1.09 -0.7,-0.64 -0.27,-0.66 0.8,-0.37 -0.25,-1.62 -1.63,0.36 0.02,-2.05 -1.53,0.09 -0.15,-0.85 -0.95,-0.1 0.2,-0.85 -0.78,0.03 -0.54,1.03 -0.78,-0.99 0.01,-1.36 -2.21,0.41 -1.36,-1.13 -0.83,0.77 -1.24,-0.14 -0.1,1.09 -1.01,-1.53 -1.14,1.12 -0.73,-1.79 -1.09,0.43 0.23,-1.2 -2.79,-0.2 0.53,-1.28 -0.6,-1.09 -0.72,0.21 -0.23,1.09 -1,-1.32 0.48,-0.93 -1.28,0.15 -0.19,1.16 -1.03,-1.31 0.78,-0.51 -0.93,-2.05 -1.92,1.72 0.43,-0.82 -0.42,-1.31 -2.04,1.15 -0.58,-0.79 0.51,-1.65 -2.02,-0.64 -0.6,0.09 -0.04,1.03 -1.55,1.86 -1.22,-0.8 -1.09,0.21 0.89,1.01 -0.12,1.53 -2.05,-0.45 -0.8,1.72 -1.26,-0.72 -0.03,-1.01 -1.38,0.99 -2.46,-0.53 -0.15,-1.82 -0.74,-0.12 -0.76,0.87 -0.67,-1.76 -1.67,1.5 -0.24,2.81 -1.95,-1.34 -1.42,0.85 -1.53,-0.28 0.71,2.29 -0.8,0.89 -0.9,-2.66 -1.66,-1.03 0.64,-0.69 -0.31,-0.45 -1.96,-0.1 -1.34,0.71 -1.01,2.25 -1.37,-2.72 -1.06,0.17 1.01,-2.75 -2.71,0.73 0.97,-1.39 -0.75,-1.75 -2.02,0.81 1.34,0.41 -0.14,0.68 -3.07,1.33 -0.84,-2.54 -1.78,-0.18 -1.02,-2.7 -3.1,-1.36 -1.22,0.54 -0.19,-1.96 -1.24,0.09 -0.7,0.91 0.25,1.26 -0.85,-0.06 -0.6,-1.61 -1.99,-0.12 2.05,-1.35 -0.17,-0.87 -2.3,0.18 -1.41,-2.67 -2.38,-0.11 -0.81,-0.87 -0.96,0.85 1.1,1.98 -3.26002,0.96 -1.25,-1.81 -0.95,-0.16 -0.95,1.63 -1.44,-0.12 -2.81,2.56 -1.28,-0.04 -0.98,-1.94 -0.82,1.82 -2.45,0.61 0.16,0.95 1.08,-0.27 0.25,0.72 -1.19,1.33 -1.25,-0.1 -1.19,2.32 -0.72,4.48 -1.26,1.39 0.92,3.47 2.07,0.66 -0.36,3.14 -1.95,2.9 0.09,2.68 -1.13,1.41 -6.34,1.04 -1.46,0.93 -2.67,-0.28 -0.95,1.23 -1.01,-0.1 -1.47,-1.98 -0.85,-0.12 -1.6,2.54 -12.28,0 0.03,0.61 -4.23,0.62 -1.77,2.25 -3.87,-0.04 -1.1,2.15 -5,-0.14 -2.82,2.9 -1.05,-0.1 -0.24,-1.36 -1.58,1.29 -2.25,0.23 -1.25,-1.58 -5.66,0.39 1.37,-2.75 0.06,-1.74 -3.7,-0.5 -1.74,-4.97 -4.34,-0.52 -1.53,-1.15 -1.26,-2.82 -5.05,-1.64 0,0 2.16,-2.26 1.03,0.05 2.1,1.55 1.87,-1.15 -0.02,-1.35 -1.83,-0.22 -0.42,-1.4 1.2,-1.07 -0.95,-0.87 1.07,-1.92 1.95,1.67 0.38,-0.25 -0.08,-2.57 1.35,-1.72 -0.02,-1.82 1.12,-0.68 0.68,-1.77 1.3,1.17 3.88,-0.4 2.8,0.6 1.72,-0.75 1.58,-2.04 1.82,-0.65 2.43,1.22 0.63,-0.62 0.05,-1.62 2.67,-1 1.78,-2.55 1.2,1.03 1.87,0.42 0.8,-2.84 -0.77,-2.8 1.9,0.78 -0.18,-1.63 2.16,-0.92 -0.63,-2.17 2.98,0.87 0.82,-0.97 2.2,-0.8 -1.37,-2.4 1.05,-0.79 1.45,-0.03 2.25,-1.9 1.12,-3.81 2.18,-1.45 -2.68,-0.83 2.46,-1.72 -1.31,-0.55 -0.35,-1.45 0.03,-1.12 1.3,-1.05 -0.9,-2.67 0.98,-2.05 -0.28,-2.07 1,-2.07 -1.5,-1.97 2.73,-1.4 2.55,-0.28 1.4,-2.24 0.85,-0.35 2.45,3.37 0.95,-3.27 -0.28,-1.9 0.75,-3.85 2.63,-3.27 0,-0.9 -3.18,-4.52 -5.1,0.77 -1.32,-3.57 -3.1,-2.55 0.45,-1.72 -0.68,-1.3 -3.65,0 -2.08,-3.6 -12.4,-10.57 0.9,-1 6.53,2.13 1.4,-0.28 1.65,-1.82 2.9,-0.68 0.65,-0.45 1.05,-4.37 3.93,-0.08 1.6,-0.8 0.15,-3.72 -1.08,-2.37 -7.93,-6.38 -3.6,-1.05 -3.05,-3.33 -2,-0.95 -8.83,0.98 -7.25,8.05 -5.98,-0.62 -3.35,1.8 -12.36,-12.93 -10,-12.06 -7.91,-8.26 0,0 0.68,-2.22 2.05,0.85 1.73,-0.72 -0.13,-1 -0.92,-0.05 -0.25,-1.56 -0.98,-0.25 -0.22,-0.95 4.1,-1.97 -0.2,-2.93 2.13,-0.7 -0.25,-0.83 -1.38,-0.42 -1.13,-3.61 2.3,-0.75 0.48,-1.93 2.85,0.23 2.8,-1.48 3.7,0.78 3.48,-0.55 2.18,-3.26 2.27,0.58 1.23,-2.4 -0.38,-3.51 -1.05,-2 1.3,-3.48 -0.2,-4.91 0.95,-1.33 -2.37,-1.92 0.57,-2.36 -2.8,-0.1 -0.07,-1.03 0.97,-1.32 -1.07,-3.69 2.35,-6.08 1.12,-0.58 0.25,-2.15 1.38,-0.43 1.67,-5.56 0.98,-0.13 0.07,-0.52 -3.67,-1.78 0.9,-1.28 -2.1,-0.9 -1.08,-3.81 -2.37,-3.06 -0.68,-2.33 -0.25,-2.66 0.78,-4.51 -1.8,-3.09 0.57,-4.46 -1.9,-3.71 -0.45,-6.57 -1.18,-2.16 1.78,-2.38 1.38,-8.84 -0.53,-1.2 -5.23,-3.74 -0.5,-4.44 -4.77,-1.48 -6.33,-5.27 -1.3,-3.22 0,0 2.09,0.64 3.45,-0.51 1,1.33 1.97,0.45 3.85,-2.64 z"
     title="Haut-Mbomou"
     id="CF-HM" />
  <path
     d="m 189.54288,518.5215 4.3,-2.13 12.53,-8.33 6.98,3.94 4.47,-0.37 4.88,-1.87 2.4,0.1 10.51,7.28 1.9,1.92 2.67,5.37 3.2,3.86 -0.6,1.78 -0.85,0.52 -3.37,0.75 -3.86,2.89 -2.87,0.78 3.97,6.06 0,0 0.41,2.64 -1.35,2.39 -4.48,0.95 -1.15,0.7 -1,1.77 -2.68,1.12 -0.85,1.07 -4.63,2.3 -2.63,0.29 0.51,3.37 -0.83,1.62 0.53,1.28 -0.68,7.05 1.63,6.66 3.35,3.39 3.83,7.05 0.22,2.17 4.8,2.91 3.33,7.63 2.25,2.61 2.43,0.4 0.2,2.15 -7.78,-0.8 -3.73,-3.66 -5.07,-2.97 -1.76,0.2 -8.22,7.35 -3.71,8.23 0,0 -6.57,-1.87 -5.81,10.98 -0.39,4.21 0.42,4.88 -1.23,3.59 -3.55,4.75 -6.47,5.46 -0.86,3.56 -1.95,1.86 -1.2,-0.47 -4.15,-4.86 -2,-0.57 -5.03,0.28 -2.4,-2.34 -4.8,-2.39 -9.55,-2.3 -3.08,-2.11 -14.53,1.27 -4.08,0.57 -11.68,4.33 -9.4,4.81 -3.75,3.51 -2.3,5.85 -1.65,1.54 -2.899995,0.83 -2.51,-0.08 -1.35,-3.43 -3.47,-0.35 -2.1,0.87 -2.38,2.41 -10.41,6.01 0,0 -2.99,-3.25 -8.75,-14.05 -3.92,-6.66 -1.51,-4.56 -2.93,-0.12 0.88,-1.41 7.07,-1.84 3.37,-1.86 -0.89,-1.3 -2.21,0.26 -1,-3.06 -2.12,-1.66 -0.68,-1.57 0.62,-1.17 -0.07,-2.04 -0.6,-0.54 0.09,-3.47 -0.94,-1.71 0.42,-1.84 -1.37,-4.54 -1.67,-1.35 -1.91,-3.78 -1.2,0.08 -1.54,-4.81 -2.62,-0.48 -0.47,-0.91 -1.11,-0.32 -1.88,0.12 -0.48,-0.97 -4.72,-1.95 -1.54,-2.2 -1.37,-0.54 -0.28,-0.97 -1.67,-0.21 -1.94,-1.26 -3.91,-4.86 -1.26,-0.23 -0.87,-1.66 -1.46,-0.85 0.25,-0.84 -0.97,-2.03 -0.33,-8.88 -1.58,-2.13 1.07,-0.55 0.6,-1.59 -1.26,-5.99 0.78,-0.76 -2.73,-5.79 0.92,-2.97 -1.55,-2.36 0.49,-2.7 0,0 16.43,2.32 6.6,-1.77 2.03,1.32 3.95,4.47 1.43,0.6 1.87,-0.9 3.23,-4.39 21.13,-0.12 1.08,-1.5 1.15,-0.1 3.25,1.92 2.8,-0.3 1.83,-0.57 6.43,-4.39 5.419995,2.89 8.43,0.6 1.6,-0.82 2.63,0.77 0.27,-1.55 -1.3,-8.25 -1.75,-2.35 3.73,-5.41 -0.28,-1.27 2.45,-0.93 3.88,0.48 0.05,1.62 1.95,4.89 -0.53,3.34 2.61,5.54 5.67,-1.75 5.11,-2.94 0.97,0.82 0.63,2.07 1.75,1.62 2.82,0.3 6.08,-2.02 16.73,-7.85 14.33,-4.99 z"
     title="Haute-Sangha"
     id="CF-HS" />
  <path
     d="m 419.18288,221.6015 1.28,0.88 1.5,8.21 1.72,0.86 1.9,4.82 1.35,1.76 2.7,1.13 2.7,2.86 0.8,2.74 1.46,1.08 -1.05,2.11 1.32,0.57 -0.45,1.48 1.65,0.63 1.53,3.12 5.2,4.21 0.45,2.56 1.2,0.68 -0.2,1.38 1.13,0.75 -1.33,4.07 2.55,1.88 -3.15,2.33 1.27,4.17 -2.22,2.66 1.75,2.58 -2.88,3.26 0.6,1.83 1.7,0.83 0.3,0.9 -2.72,2.19 0.9,2.13 3.43,3.94 1.6,-2.21 3.35,3.48 0.77,-0.47 0.45,-1.81 2.75,2.86 3.6,-1.1 1.68,1.48 -0.12,0.9 2.95,1.85 2.67,-0.72 -0.17,1.1 -1.88,1.88 2.78,1.2 -0.23,2.66 -1.27,1.25 0.27,3.16 4.18,0.18 0.5,0.7 2,0.1 1.4,1.68 2.78,-1.5 1.27,1.8 1.38,-0.15 0.07,2.83 1.93,0.15 0.77,1 -0.02,5.27 1.7,0.82 1.68,-0.65 0.85,2.81 2.72,3.48 1.43,0.4 0.72,-1.13 0.83,0.35 0.62,1.76 1.38,1.15 -0.3,2.73 0.67,3.38 3.36,2.93 0.17,1 2.18,-0.07 1.37,1.13 2.53,0.72 1.02,1.41 1.43,0.52 0.2,1.63 3.48,2.15 0.27,0.95 2.4,1.38 2.03,-0.37 0.37,2.37 0.78,0.35 1.22,-0.62 0.63,0.57 0,0 -1.15,3.13 0.65,4.48 -0.93,3.48 -1.72,2.33 -1.48,5.58 -5.1,4.16 -0.35,2.15 -1.35,2.23 -1.53,0.32 -5.45,5.91 -1.9,1.02 -6.18,7.48 -0.6,3.3 1.98,12.08 -1.65,0.45 -4.05,-2.9 -4.31,-0.25 -2.3,0.57 0,0 -21.18,-2.67 -5.68,1.02 -9.8,3.08 -4.93,0.68 -3.32,-0.38 -4.33,1.8 -2.98,0.33 -3.75,-1 -3.32,-1.81 -1.18,-1.15 -2.93,-5.65 -2.17,-1.17 -2.55,0.02 -14.61,3.1 -6.45,0.33 0,0 0.62,-3.5 1.35,-3 2.91,-2.28 4.95,-2.2 1.05,-1.15 0.25,-1.58 -1.23,-1.87 -5,-1.65 -5.5,-4.18 -0.63,-2.2 1.65,-3.38 -2.7,-0.23 -1.72,-6.45 -5.16,-4.63 0.43,-2.38 3.7,-2.3 1.58,-6.11 2.82,-1.6 0.08,-1.81 -3.23,-0.67 -0.07,-1.55 4.22,-2.21 0.98,-1.1 0.17,-3.93 0.63,-0.75 5.45,-2.28 0.85,-1.35 -11.55,-31.6 1.02,-1.75 2.7,-1.46 23.61,-11.1 -0.92,-0.73 -1.88,0.37 -0.95,-0.9 -0.3,-2.66 1.43,-2.35 -1.5,-2.21 2.82,-2.73 -1.87,-2.49 2.65,-1.05 1.2,-1.33 0.27,-1 -1.15,-1.31 0.98,-2.16 -0.43,-2.63 0.43,-0.88 1.27,-0.4 0.08,-1.73 1.2,-1.33 -1.63,-2.06 1.78,-1.83 -1.15,-3.11 1.8,-1.81 -0.68,-1.78 0.5,-2.59 -0.62,-0.6 -0.05,-1.73 -1.3,-0.03 -1.88,-1.25 -0.6,-1.84 0.35,-2.66 2.05,-1.03 0.35,-2.21 -0.72,-1.7 1.9,-0.98 -0.48,-3.24 1.63,-0.18 0.4,-0.88 -0.8,-0.53 -0.9,-2.76 0.32,-1.61 1.2,-1.28 -1.47,-1.63 0.17,-1.13 1.43,-0.93 z"
     title="Gribingui"
     id="CF-KB" />
  <path
     d="m 390.17288,406.9715 6.45,-0.33 14.61,-3.1 2.55001,-0.02 2.17,1.17 2.93,5.65 1.18,1.15 3.32,1.81 3.75,1 2.98,-0.33 4.33,-1.8 3.32,0.38 4.93,-0.68 9.8,-3.08 5.68,-1.02 21.18,2.67 0,0 -0.55,2.45 1.43,2.58 2.75,2.15 4.73,1.52 1.85,1.43 1.72,2.55 -3.12,8.92 2.1,3.93 -3.33,2.9 0.05,1.42 1.53,2.02 -1.8,1.43 -3.61,5.97 -0.49,0.37 -3.56,-0.65 -1.77,0.58 -1.7,3.49 -8.36,5.23 -1.35,1.45 -0.22,0.87 2.92,10.44 -1.52,1.25 -0.18,1.02 0.7,0.8 5.11,1.75 0.62,1.45 -0.4,3.59 -1.52,2.77 -8.81,7.09 -7.53,1.25 -0.72,1.72 2.57,2.58 1.58,2.97 45.39,-0.7 -0.35,5.11 -2.15,2.65 -3.02,7.41 0.52,5.04 -1.07,2.97 0.42,2.94 -1.32,6.69 -2.38,3.31 -5.12,2.24 0,0 -2.64,-2.64 -4.47,-0.76 -7.12,-2.8 -7.55001,0.46 -5.19,-1.6 -5.88,2.1 -5.37999,-0.69 -3.42001,1.55 -2.98,3.57 -10.58,5.94 -3.5,5.81 -4.88,0.03 -2.92,0.71 0,0 -1.06,-1.1 0.49,-4.14 -1.58,-2.27 -0.1,-2.52 -3.3,-2.14 -1.18,-3.59 -3.12,-2.57 -1.58,-2.57 -0.32,-1.85 0.65,-4.39 3.27,-9.15 -1.3,-3.47 -3.2,-5.24 -2.5,-0.98 -3.68,-2.59 -2.57,-3.1 -0.2,-8.93 -0.78,-1.75 -1.22,-0.7 -10.08,-1.67 -4.9,-0.2 -2.01,-1.67 -3.12,-5.01 0,0 -1.05,-5.21 0.57,-3.59 -1.87,-4.67 2.52,-5.65 -1.2,-2.8 -0.1,-1.92 6.51,-2.52 0.77,-1.5 3.95,-1.75 2.13,-1.8 2.8,-3.47 3.63,-1.75 1.42,-2.27 4.33,-1.33 0.82,-1.42 -0.25,-1.25 -3.02,-0.95 -1.2,-1.6 -0.45,-4.75 0.4,-6.08 -10.93,-10.8 -0.08,-1.67 z"
     title="Kémo-Gribingui"
     id="CF-KG" />
  <path
     d="m 235.80288,541.0715 8.73,-1.53 2.13,4.19 6.03,2.3 2.2,3.76 3.6,1.45 1.33,3.14 6.57,3.64 6.66,2.39 1.75,1.98 0.07,1.29 3.53,2.87 2.57,13.86 1.53,1.87 0.45,1.72 2.53,1.79 5.95,1.42 1.4,-1.64 4.68,0.27 3.3,-1.35 5.42,2.3 1.1,3.96 0.63,0.4 2.48,-0.75 3.07,2.12 2.2,-2.22 2.2,-0.37 4.76,1.32 3.62,0.15 0.08,1.64 1.62,0.65 5.25,-2.32 1.36,0.9 2.4,2.89 3.2,6.88 2.87,1.27 5.31,0.57 2.02,2.69 3.03,6.25 -0.5,3.49 0.97,4.11 -1.27,3.59 0.25,1.79 1.1,1.75 4.5,3.48 1.4,3.54 1.18,-0.08 0.72,0.9 2.43,0.82 0.05,2.02 1,1.17 2.8,2.07 2.02,-0.38 4.25,2.35 1.79,2.36 0,0 0.12,4.71 -0.96,4.63 0.38,4.27 1.33,3.99 1.11,11.28 1.5,5.58 -3.61,-0.54 -1.77,-4.81 -2.17,-2.94 -1.41,-4.17 -4.4,-3.87 -2.85,2.66 -0.58,2.01 -2.61,-0.71 -0.51,0.46 -0.31,2.33 -5.82,-2.66 -3.35,1.85 -3.69,-0.41 -2.36,8.17 -0.9,0.87 -3.83,0.85 -1.16,-0.63 -1.14,-3.52 -1.69,-2.31 -3.56,-1.63 -3.09,-0.35 -1.98,0.64 -4.39,-0.95 -0.39,2.48 -2.37,-0.83 -2.85,-3.77 -1.66,2.6 -5.42,3.63 -2.71,-8.4 -2.99,-0.22 -5.65,-1.98 -2.52,1.5 -1.57,-0.62 -7.32,0.02 -1.69,-1.53 -2.7,-0.98 -1.25,-1.49 -3.34,-0.55 -1.33999,-0.91 -2.68,0.26 -1.88,1.69 -2.34,0.71 0,0 -4.26,-7.99 -4.37,-5.01 -13.96,-6.32 -6.68,-1.27 -5.12,-3.39 -5.63,-0.52 -3.03,-2.49 -1.5,-1.6 -1.8,-4.31 -3.98,-5.15 -2.72,-5.13 -3.65,-3.07 -1.95,-3.48 -2.36,-1.54 0,0 3.71,-8.23 8.22,-7.35 1.76,-0.2 5.07,2.97 3.72999,3.66 7.78,0.8 -0.19999,-2.15 -2.43,-0.4 -2.25,-2.61 -3.33001,-7.63 -4.8,-2.91 -0.22,-2.17 -3.83,-7.05 -3.35,-3.39 -1.63,-6.66 0.68,-7.05 -0.53,-1.28 0.83,-1.62 -0.50999,-3.37 2.63,-0.29 4.62999,-2.3 0.85,-1.07 2.68,-1.12 1,-1.77 1.15001,-0.7 4.48,-0.95 1.35,-2.39 z"
     title="Lobaye"
     id="CF-LB" />
  <path
     d="m 886.11288,385.5515 7.91,8.26 10,12.06 12.36,12.93 3.35,-1.8 5.98001,0.62 7.25,-8.05 8.83,-0.98 2,0.95 3.05,3.33 3.6,1.05 7.92999,6.38 1.08001,2.37 -0.15,3.72 -1.6,0.8 -3.93,0.08 -1.05,4.37 -0.65,0.45 -2.9,0.68 -1.65,1.82 -1.4,0.28 -6.53,-2.13 -0.9,1 12.4,10.57 2.08,3.6 3.65,0 0.68,1.3 -0.45,1.72 3.1,2.55 1.32,3.57 5.1,-0.77 3.18,4.52 0,0.9 -2.63,3.27 -0.75,3.85 0.28,1.9 -0.95,3.27 -2.45,-3.37 -0.85,0.35 -1.4,2.24 -2.55,0.28 -2.73,1.4 1.5,1.97 -1,2.07 0.28,2.07 -0.98,2.05 0.9,2.67 -1.3,1.05 -0.03,1.12 0.35,1.45 1.31,0.55 -2.46,1.72 2.68,0.83 -2.18,1.45 -1.12,3.81 -2.25,1.9 -1.45,0.03 -1.05,0.79 1.37,2.4 -2.2,0.8 -0.82001,0.97 -2.98,-0.87 0.63,2.17 -2.16,0.92 0.18,1.63 -1.9,-0.78 0.77,2.8 -0.8,2.84 -1.87,-0.42 -1.2,-1.03 -1.78,2.55 -2.67,1 -0.05,1.62 -0.63,0.62 -2.43,-1.22 -1.82,0.65 -1.58001,2.04 -1.72,0.75 -2.79999,-0.6 -3.88,0.4 -1.3,-1.17 -0.68,1.77 -1.12,0.68 0.02,1.82 -1.35,1.72 0.08,2.57 -0.38,0.25 -1.95,-1.67 -1.07,1.92 0.95,0.87 -1.2,1.07 0.41999,1.4 1.83001,0.22 0.02,1.35 -1.87001,1.15 -2.1,-1.55 -1.02999,-0.05 -2.16,2.26 0,0 -2.18,-0.47 -1.34,0.61 0.75,2.95 -1.2,0.46 -2.44001,-4.67 -1.59,0.19 -1.25,3.31 -1.23,0.32 -0.35,0.78 0.42,0.98 0.99,0.35 2.22,-0.75 0.99,0.8 0.14,1.2 -3.19,2.06 -6.94,0.48 -2.1,1.95 -0.21,0.84 0.99,1.97 -0.7,1.16 -2.11,0.19 0.1,-1.51 -1.55,-0.7 -4.07,2.58 -2.76,3.22 -2.13,0.14 -2.33,-1.61 -1.86,0.09 -4.63,2.97 -5.64,1.89 -0.85,-1.84 -0.62,-0.04 -0.82,0.93 0.41,3.96 -0.49,1.18 -3.04,-0.68 -0.81,-1.05 -1.34,-0.35 -3.7,1.96 -1.59,-1.67 -5.66,4.47 -5.53,-0.25 -8.04,3.75 -3.41,0.68 -2.76,2.65 -4.56,2.71 -3.23,-0.01 -3.05,2.08 -0.54,1.62 0.38,2.81 -0.74,1.07 -3.45,0 -2.01,-1.7 -2.62,0.51 -3.27,-2.26 -1.3,0.16 -1.57,-3.42 -2.23,-0.41 -2.69,-2.15 -1.16,-2.5 -2.15,-1.62 -5.25,2.71 -2.99,-0.68 -4.12,-3.03 -1.94,-0.37 -2.62,-6.27 -1.49,-1.3 -2.33,2.01 -3.12,-0.22 -1.03,0.97 -0.68,2.02 1.35,2.46 -2.5,1.7 -0.82,2.73 -1.81,0.54 -1.54,-1.76 -1.75,-0.34 -2.31,1.86 -1.9,4.82 -2.06,2.31 -0.52,6.18 -2.45,3.62 0.06,2.19 -0.74,1.75 -1.69,0.9 -1.57,-1.69 -3.2,-0.37 -2.52,1.16 -0.11,4.24 -1.12,2.21 0.4,0.95 2.71,1.05 -0.06,2.43 -4,1.95 -2.61,4.51 -0.41,2.15 0.95,1.46 -0.14,2.04 -8.67,7.85 -10.26,1.28 -6.65,-0.06 -4.25,-1.09 -4.99,-2.48 -3.35,-3.38 -2.81,-1.78 -5.38,-0.89 0,0 0.25,-3.42 3.25,-2.84 -0.95,-6 2.83,-3.89 0.42,-2.02 3,-3.69 0.16,-1.64 1.47,-2.19 0,0 -0.52,-1.28 0,0 -2.16,-1.52 -4.15,-0.34 -1.47,0.74 -1.58,-0.25 -3.62,1.87 -4.48,-0.94 -1.05,-0.8 1.37,-2.62 -3.82,-3.44 -0.43,-1.42 0.55,-1.87 -2.37,0.53 -0.98,-2.05 -1.85,0.5 -1.45,-0.37 -1.9,-2.62 -1.83,0.37 -0.72,-1.09 -1,0.72 -3.28,-0.25 -0.37,-0.82 0.07,-2.05 0.78,-1.02 -0.18,-3.19 2.15,-3.94 0.48,-9.57 5,-7.16 -0.53,-3.09 -2.67,-3.4 -0.25,-1.94 5.9,-4.42 2.58,-4.71 0.55,-3.72 -0.2,-7.43 1.42,-4.42 -1.3,-4.91 1.13,-3.15 -0.43,-1.97 0,0 0.95,-1.47 3.13,-1.75 1.82,-3.05 6.23,-4.09 0.95,-1.47 -0.42,-0.78 -1.7,-0.12 0.85,-1.57 3.82001,0.45 0.75,-0.53 -0.42,-2.94 -2.15,-2.73 -0.55,-2.49 2.2,-2.65 -0.33,-4.49 0.53,-6.9 4.37,-5.34 -0.17,-1.53 -1.3,-1.17 4.98,-4.32 6.1,-1.97 1,-1.78 2.55,-0.1 1.8,2.55 5.18,-0.87 3.02,0.92 7.86,-4.15 2.55,-3.92 1.1,-5.02 3.32,-5.83 12.26,-2.55 6.2,1.3 5.66,-1.25 2.35,1.25 3.17,6.55 35.84,9.45 2.13,-2.13 -0.33,-2.65 0.53,-1.27 -0.6,-1.82 0.41999,-0.78 1.4,-0.45 0.43,-2.35 1.7,-0.72 1.4,1.05 3.83,-0.33 1.57001,-1.3 0.48,-3.12 2.47,-3.58 3.35,-1.55 7.78,-5.32 z"
     title="Mbomou"
     id="CF-MB" />
  <path
     d="m 230.43288,465.9915 0.3,1.78 -0.78,2.92 5.06,8.79 51.29001,-0.7 18.51,-10.56 2.4,-1.9 2.02999,-3.15 2.47001,-1.29 2.3,-0.06 7.27999,4.82 1.45,-0.19 0.3,3.67 1.88,1.39 5.27,-1.59 3.38,2.44 2.15,-0.85 8.23,-0.67 2.17,1.2 0.23001,2.95 0.87999,1.14 2.22001,-1.22 4.08,0.03 4.8,1.87 0.33,1.92 -2.91001,2.72 2.45,4.7 -0.12,5.36 0.97,1.33 8.61001,-3.25 8.44999,-4.39 1.75,-3.8 -0.3,-4.22 0.98,-0.4 0.95,0.69 0,0 3.12,5.01 2.01,1.67 4.9,0.2 10.08,1.67 1.22,0.7 0.78,1.75 0.2,8.93 2.57,3.1 3.68,2.59 2.5,0.98 3.2,5.24 1.3,3.47 -3.27,9.15 -0.65,4.39 0.32,1.85 1.58,2.57 3.12,2.57 1.18,3.59 3.3,2.14 0.1,2.52 1.58,2.27 -0.49,4.14 1.06,1.1 0,0 -3.54,3.5 -1.54,4.58 -3.62,5.15 -0.85,2.98 -5.61,5.14 -1.39,2.69 -2.35,0.9 -1.93,3.76 -4.74,5.01 -1.86,8.74 -1.84,3.92 -5.17,4.81 -2.74,0.98 -3.18,0.05 0,0 -1.24,-4.51 -1.61,-2.22 -5.86,0.61 -1.42,1.61 -0.81,2.42 2.02,3.58 0,0 -1.75,1.72 -0.26,1.32 6.51,12.1 2.74,8.09 0.3,8.83 -1.46,3.48 -2.54,2.68 -1.02,4.81 0,0 -1.79,-2.36 -4.25,-2.35 -2.02,0.38 -2.8,-2.07 -1,-1.17 -0.05,-2.02 -2.43,-0.82 -0.72,-0.9 -1.18,0.08 -1.4,-3.54 -4.5,-3.48 -1.1,-1.75 -0.25,-1.79 1.27,-3.59 -0.97,-4.11 0.5,-3.49 -3.03,-6.25 -2.02,-2.69 -5.31,-0.57 -2.87,-1.27 -3.2,-6.88 -2.4,-2.89 -1.36,-0.9 -5.25,2.32 -1.62,-0.65 -0.08,-1.64 -3.62,-0.15 -4.76,-1.32 -2.2,0.37 -2.2,2.22 -3.07,-2.12 -2.48,0.75 -0.63,-0.4 -1.1,-3.96 -5.42,-2.3 -3.3,1.35 -4.68,-0.27 -1.4,1.64 -5.95,-1.42 -2.53,-1.79 -0.45,-1.72 -1.53,-1.87 -2.57,-13.86 -3.53,-2.87 -0.07,-1.29 -1.75,-1.98 -6.66,-2.39 -6.57,-3.64 -1.33,-3.14 -3.6,-1.45 -2.2,-3.76 -6.03,-2.3 -2.13,-4.19 -8.73,1.53 0,0 -3.97,-6.06 2.87,-0.78 3.86,-2.89 3.37,-0.75 0.85,-0.52 0.6,-1.78 -3.2,-3.86 -2.67,-5.37 -1.9,-1.92 -10.51,-7.28 -2.4,-0.1 -4.88,1.87 -4.47,0.37 -6.98,-3.94 -12.53,8.33 -4.3,2.13 0,0 -0.48,-4.67 -2.65,-5.86 2.63,-10.98 -0.35,-4.92 0,0 3,-0.93 2.37,-2.69 3.05,-1.35 2.33,-3.69 4.13,-2.95 -0.1,-2.8 0.82,-1.2 3.51,-1.77 3.27,-3.22 3.35,0.23 6.53,-2.63 5.45,-0.42 1.93,-2.12 z"
     title="Ombella-Mpoko"
     id="CF-MP" />
  <path
     d="m 47.112885,391.2815 4.42,0.43 8.01,-3.9 2.7,-0.38 5.97,-2.3 1,0.2 0.48,0.9 -0.65,3.93 0.52,1.28 8.21,5.93 1.95,4.2 2.07,13.7 2,2.3 0.33,2.65 2.93,3.85 3.6,2.6 4.37,-2.35 5.960005,1.52 1.9,-2.82 2.5,-0.5 6.13,-3.05 4.52,-0.92 4.1,-3.6 2.23,1.57 1.27,1.6 -0.25,2.08 -6.82,6.34 -1.08,2.43 6.08,6.55 2.1,4.2 0.22,11.44 2.08,2.57 -0.47,5.42 0.45,0.55 4.9,4.27 6.38,2.15 3.66999,4.67 1.25,0.68 3.30001,-0.21 2.91,1.2 3.44999,-0.8 4.85,-3.19 3.03,-7.02 2.4,-0.23 3.12,0.66 0.53,0.67 -0.22999,3.75 1.19999,2.14 4.2,5.32 5.43,2.4 1.08001,1.97 5.75,4.02 0.94999,3.95 3.75,4.12 0.83001,1.87 0,0 0.34999,4.92 -2.62999,10.98 2.65,5.86 0.47999,4.67 0,0 -9.21,4.49 -14.33,4.99 -16.73,7.85 -6.08,2.02 -2.82,-0.3 -1.75,-1.62 -0.63,-2.07 -0.97,-0.82 -5.11,2.94 -5.66999,1.75 -2.61001,-5.54 0.53,-3.34 -1.94999,-4.89 -0.05,-1.62 -3.88,-0.48 -2.44999,0.93 0.28,1.27 -3.73,5.41 1.75,2.35 1.3,8.25 -0.27,1.55 -2.63,-0.77 -1.6,0.82 -8.43,-0.6 -5.420005,-2.89 -6.43,4.39 -1.83,0.57 -2.8,0.3 -3.25,-1.92 -1.15,0.1 -1.08,1.5 -21.13,0.12 -3.23,4.39 -1.87,0.9 -1.43,-0.6 -3.95,-4.47 -2.03,-1.32 -6.6,1.77 -16.43,-2.32 0,0 0.7,-0.44 -1.3,-4.42 0.21,-1.03 1.41,-1.2 -2.24,-8.72 -1.62,-1.61 -6.63,-1.32 -4.17,-3.58 -0.43,-1.12 2.32,-2.14 -0.43,-0.89 2.61,-5.08 0.01,-1.67 2.15,-1.17 0.22,-5.89 2.4,-3.69 -1.71,-2.82 -1.52,-4.45 2.96,-9.97 -0.6,-17.78 -1.01,-1.88 -0.91,-0.32 -3.19,1.97 -0.81,-0.58 -3.66,0.63 -1.92,-1.46 -2.01,-4.88 -3.16,-3.05 -1.28,-2.63 0.79,-3.58 -0.45,-1.2 4.2,-1.16 2.99,-2.64 2.61,-3.72 2.47,-1.94 14.61,-4.89 2.38,-1.49 5.87,-8.94 -0.62,-2.17 0.39,-2.21 z"
     title=" Nana-Mambéré"
     id="CF-NM" />
  <path
     d="m 195.86288,285.5015 -0.96,2.55 1.27,2.61 -0.3,3.25 1.61,0.97 1.7,-0.37 3.31,2.17 -0.07,6.28 2.06,1.61 3.30001,0.05 6.05,5.86 0.21,2.13 2.34,2.62 0,0 -0.98,5.03 1.87,2.43 0.05,1.6 -0.75,1.76 -2.92,1.98 0.37,1.9 -1.22,1.23 -0.35,8.39 -1.58,2.83 -0.75,3.05 1.53,6.69 -0.85,3 -1.76,1.36 -1.14,2.6 -2.78,0.63 0.45,3.03 -2.33,1.37 1.13,2 -0.25,1.98 2.22,1.48 0.2,2.95 1.05,1.4 0.08,9.99 2.65,5.85 -0.15,4.98 0.75,2.65 0.5,1 1.8,0.6 2.17,-1.8 -1.99,2.07 0.32,3.86 0.58,0.65 2.67,0.55 2,4.62 1.03,0.88 1.55,0.1 1,1.5 2.05,1.07 2.13,-0.65 1,0.3 0.5,-2.07 0.72,-0.55 5.13,0.92 1.9,-1.15 5.5,3.38 -0.85,4.97 -2.35,-0.22 -2.17,2.8 -1.31,-0.38 -0.62,0.61 -0.32,1.44 1.1,1.38 -1.41,1.03 0.25,1.42 -1.8,-0.03 -0.85,0.9 -1.42,-1.05 -1.43,1.03 -1.55,6.97 0.38,5.33 1.12,2.37 -2,1.7 -1.82,-0.7 -0.65,1.2 0.82,4.55 1.3,1.77 -0.57,1.82 1.27,4.72 -0.27,1.68 2.92,3.79 -0.05,2.65 1.23,1.57 0,0 -2.1,0.56 -1.93,2.12 -5.45,0.42 -6.53,2.63 -3.34999,-0.23 -3.27001,3.22 -3.51,1.77 -0.81999,1.2 0.1,2.8 -4.13,2.95 -2.33001,3.69 -3.05,1.35 -2.37,2.69 -3,0.93 0,0 -0.83,-1.87 -3.75,-4.12 -0.95,-3.95 -5.75,-4.02 -1.08,-1.97 -5.43,-2.4 -4.2,-5.32 -1.2,-2.14 0.23,-3.75 -0.53,-0.67 -3.12,-0.66 -2.4,0.23 -3.03,7.02 -4.85,3.19 -3.45,0.8 -2.91,-1.2 -3.3,0.21 -1.25,-0.68 -3.67,-4.67 -6.38,-2.15 -4.9,-4.27 -0.44999,-0.55 0.47,-5.42 -2.08001,-2.57 -0.22,-11.44 -2.1,-4.2 -6.08,-6.55 1.08,-2.43 6.82,-6.34 0.25,-2.08 -1.27,-1.6 -2.23,-1.57 -4.1,3.6 -4.52,0.92 -6.13,3.05 -2.5,0.5 -1.9,2.82 -5.959995,-1.52 -4.37,2.35 -3.6,-2.6 -2.93,-3.85 -0.33,-2.65 -2,-2.3 -2.07,-13.7 -1.95,-4.2 -8.21,-5.93 -0.52,-1.28 0.65,-3.93 -0.48,-0.9 -1,-0.2 -5.97,2.3 -2.7,0.38 -8.01,3.9 -4.42,-0.43 0,0 2.57,-5.4 4.55,-1.53 2.72,0.44 1.35,-1.36 0.75,-3.54 1.37,-1.94 2.63,-6.82 2.25,-3.06 -0.41,-1.82 0.8,-5.51 1.9,-3.49 2.42,-0.34 2.58,-6.04 -0.82,-0.63 -0.26,-2.81 2.27,-3.45 -2.01,-0.98 0.77,-1.35 1.21,-0.78 1.23,-2.36 0.95,-0.2 14.9,-12.46 2.85,-3.59 0.57,-2.3 2.82,-2.33 0.51,-1.72 5.179995,1.32 15.09,-0.78 -0.03,1.28 1.38,2.39 1.12,0.35 0.99,1.52 1.7,-0.37 1.32,0.63 0.87,1.24 8.98,-2.34 1.95,-1.05 3.94,-0.42 5.79,-4.55 0.92,-3.33 1.52,-1.01 3.46,-0.88 5.31,-0.27 1.98,-1.79 4.49,0.71 4.59,-2.35 1.36,-1.73 8.22,-1.74 3.4,-4.3 -1.18,-0.81 -0.06,-1.16 0.85,-0.56 -1.23,-1.91 2.38,-3.36 1.47,0.25 0.4,1.58 2.64,-0.49 0.59,-1.65 1.66,-1.69 0.43,-1.66 2.1,-0.92 1.65,0.11 0.28,-1.24 2.91,-1.07 z"
     title="Ouham-Pendé"
     id="CF-OP" />
  <path
     d="m 208.74288,610.9415 2.36001,1.54 1.94999,3.48 3.65,3.07 2.72,5.13 3.98,5.15 1.8,4.31 1.5,1.6 3.03,2.49 5.63001,0.52 5.12,3.39 6.68,1.27 13.96,6.32 4.37,5.01 4.26,7.99 0,0 -1.88,0.97 -2.84,4.9 -1.26,0.18 -4.49,-2.26 -4.17,1.74 -0.38,2.46 -0.8,0.37 -6.05,1.24 -1.36001,-0.88 -8.91,2.42 -0.5,1.59 -1.55,1.52 -2.21,-1.41 -0.57,-1.56 -2.56,0.55 -1.69,-1.74 -4.25,0.88 -3.28,-0.67 -0.02,2.72 -1.14,1.4 -0.8,0.08 -2.81,-0.97 -1.62,-1.96 -4.33,-1.23 -7.43,1.37 -5.53,3.99 -1.56,2.74 -1.46,11.11 -2.03,3.31 -0.39,2.07 0.74,2.61 -4.74,8.39 0.59,3.52 2.9,4.91 -4.6,5.5 -0.29,8.51 3.11,2.58 -0.42,3.42 -29.53999,55.66 -2.45,-2.23 0.57,-2.52 -2.02001,-6.8 -2.97,-3.9 -1.12,-3.15 -1.75,-1.43 -0.74,-1.87 0.85,-2.34 -1.6,-3.18 1.58,-6.3 -1.56999,-3.81 0.69999,-3.17 1.31,-2.25 -2.47999,-0.97 0.24,-3.64 -1.24,-3.51 2,-1 1.43,-1.73 0.11,-1.17 -1.55,-6.16 -1.25,-1.1 -2.03,-3.86 -0.07,-1.4 -1.67,-0.63 -1.11,-1.73 -2.04,0.07 -1.2,1.11 -3.84,-4.28 -3.44,-5.46 -1.5,-0.13 -0.93,-0.99 -4.41,0.62 -0.63,0.76 -0.64,-0.59 -26.190005,-30.5 -20.37,-21.26 0,0 10.41,-6.01 2.38,-2.41 2.1,-0.87 3.47,0.35 1.35,3.43 2.51,0.08 2.900005,-0.83 1.65,-1.54 2.3,-5.85 3.75,-3.51 9.4,-4.81 11.68,-4.33 4.08,-0.57 14.53,-1.27 3.08,2.11 9.55,2.3 4.8,2.39 2.4,2.34 5.03,-0.28 2,0.57 4.15,4.86 1.2,0.47 1.95,-1.86 0.86,-3.56 6.47,-5.46 3.55,-4.75 1.23,-3.59 -0.42,-4.88 0.39,-4.21 5.81,-10.98 z"
     title="Sangha"
     id="CF-SE" />
  <path
     d="m 604.30288,299.8315 2.9,1.83 4.58,5.72 2.8,1.17 6.91,1.01 6.37,4.93 2.83,5.72 -1.33,12.2 1.03,2.63 2.4,0.8 4.53,0.18 5.05,-0.85 1.97,1.32 0.71,2.73 -0.68,8.17 1.73,7.06 0.85,9.56 2.77,1 -0.22,5.01 1.9,4.05 -1.45,2.58 0.75,1.78 -0.23,1.82 -3.22,2.26 -0.05,1.57 2.37,2.05 0.53,5.33 2.45,4.2 2.25,1.51 0.85,2.75 1.2,0.57 5.2,0.18 2,2.12 -1.85,10.78 0.98,3.1 2.2,3.4 0.22001,2.4 -1.55,3.4 -5.17,7.6 0.85,1.4 3.9,2.22 1.07,5.37 1.75,2.68 -0.22,3.65 0.72,0.6 5.51,0.54 1.95,7.75 2.9,2.72 0.32,1 -0.45,7.99 -1.37,6.15 -1.68,2.82 -0.47,4.44 -3.13,2.77 -0.73,2.25 -7.05,-5.37 -1.55,-0.1 -9.08,7.14 0.08,4.32 0,0 -2.38,6.02 -4.62,1.67 -2.08,-0.35 -1.55,-2.92 -2.88,-0.48 -0.55,-3.17 -2.25,-3.77 0.7,-1.44 -0.65,-3.02 -1.6,-1.55 -1.22,-3.4 -2.98,-0.82 -1.78,-3.1 -2.57,3.55 -0.98,-0.03 -0.77,-1.59 -1.1,-0.6 -3.81,3.84 -5.42,2.5 -5.01,-2.37 -1.42,1.39 -3.65,0.43 -2.53,-4.15 -1.27,-0.99 -1.48,-0.68 -2.7,0.03 -0.43,1.94 2.53,3.95 -0.47,1.55 -2.88,2.99 0.5,4.32 -2.63,1.35 -4.35,0.45 -0.95,1.25 0.65,1.37 3.03,1.37 0.9,5.69 -3.23,3.89 0.95,5.94 -0.87,9.06 -1.2,2.59 -2.23,1.97 -1.4,3.75 3.43,8.08 -0.18,1.42 -2.77,3.96 -1.1,2.87 1.22,6.91 -0.12,3.84 -0.7,1.12 -2.81,1.45 -5.2,-0.9 -5.35,3.54 -3.48,0.92 -4.75,6.48 -7.55,7.98 -6.68,3.96 -4.3,1.39 0,0 -0.25,-3 1.04,-3.14 -0.71,-2.54 -6.21,-6.02 -3.72,-5.09 -3.19,-1.98 -2.42,-0.18 -7.61,-4.67 -3.55,-4.36 -5.82,-2.74 -6.14,-5.34 -4.7,-1.17 -2.77,0.61 -2.34,-0.67 -3.71,-3.37 -1.74,-4.21 0,0 5.12,-2.24 2.38,-3.31 1.32,-6.69 -0.42,-2.94 1.07,-2.97 -0.52,-5.04 3.02,-7.41 2.15,-2.65 0.35,-5.11 -45.39,0.7 -1.58,-2.97 -2.57,-2.58 0.72,-1.72 7.53,-1.25 8.81,-7.09 1.52,-2.77 0.4,-3.59 -0.62,-1.45 -5.11,-1.75 -0.7,-0.8 0.18,-1.02 1.52,-1.25 -2.92,-10.44 0.22,-0.87 1.35,-1.45 8.36,-5.23 1.7,-3.49 1.77,-0.58 3.56,0.65 0.49,-0.37 3.61,-5.97 1.8,-1.43 -1.53,-2.02 -0.05,-1.42 3.33,-2.9 -2.1,-3.93 3.12,-8.92 -1.72,-2.55 -1.85,-1.43 -4.73,-1.52 -2.75,-2.15 -1.43,-2.58 0.55,-2.45 0,0 2.3,-0.57 4.31,0.25 4.05,2.9 1.65,-0.45 -1.98,-12.08 0.6,-3.3 6.18,-7.48 1.9,-1.02 5.45,-5.91 1.53,-0.32 1.35,-2.23 0.35,-2.15 5.1,-4.16 1.48,-5.58 1.72,-2.33 0.93,-3.48 -0.65,-4.48 1.15,-3.13 0,0 0.67,1.81 4.05999,1.1 1.82001,2.45 7.29999,-0.15 2.98001,1.5 1.89999,-1.15 2.5,0.43 1.20001,-1.33 1.79999,1.93 2.05,0.05 1.7,-1.38 1.91,-0.5 2,-2.38 2.97,0.33 1.98,-0.48 6.63,-5.73 1.4,-3.01 1.15,-5.05 1.2,-1.93 3.60001,-0.58 6.54999,2.08 4.15,-2.75 3.2,-1.03 1.03,-1.48 1.95001,-1.13 1.08,-2.73 2.87,-3.25 5.85,-8.85 5.48,-4.73 -2.27,-4.49 0.02,-2.88 3.5,-2.61 1.35,-5.72 z"
     title="Ouaka"
     id="CF-UK" />
  <path
     d="m 731.41288,1.1014993 2.35,1.27 3.93,-1.17 3.91,1.6 7.08,0.46 1.95,1.14 1.14,1.62 10.14,1.21 -0.37,1.22 0.73,2.0699997 3.19001,2.93 0.07,1.49 4.93,6.2 2,4.86 11.84,7.72 2.66,3.9 2.84,2.34 1.65,2.35 2.87,1.72 2.03,2.92 3.42999,1.81 32.98,53.000001 2.67,20.31 -6.24,11.4 2.44,0.51 -1.27999,1.88 -0.71001,3.8 0.93,2.55 2.16,-1.01 0.86,1.64 -1.24,2.93 -1.16,1.13 -1.05,4.6 0.05,1.77 1.41,3.45 -0.37,1.15 -1.69,0.13 -1.1,1.11 -0.84,2.61 -5.86,4.79 -1.64,0.35 -2,0.05 -1.21,0.05 -0.17,2.06 -1.46,1.92 0,0 -1.32,-1.8 -0.93,-2.84 0.8,-3.65 1.08,-1.34 -2.43,-0.63 -2.42,0.23 -3.91,2.24 -2.27,3.75 -2.43,13.21 -4.57,3.25 -6.18,0.85 -9.75,7.12 -1.11,2.06 0,8.43 -0.7,1.86 -1.4,1.2 -1.7,0.21 -2.65,-0.99 -6.33,1.01 -11.1,4.55 -12.93,0.1 -8.13,4.93 -5.33,5.37 -3.52,0.33 -4.33,-1.58 -3.93,0.75 0,0 0.2,-5.35 -1.22,-1.46 -4.85,-1.33 -3.95,0.02 -6.41,-1.86 -2.05,-2.16 -4.48,-2.01 -1.42,-1.41 -3.65,-15.61 0.67,-3.07 -6.3,-3.35 -1.85,-5.76 -6.05,-3.62 -2.75,-4.23 -4.61,-2.24 -2.2,-7.27 -2.97,-3.55 -1.38,-9.4 -5.1,-4.08 -1.27,-4.18 -5.86,-5.06 -1.95,-3.68 -3.87,-0.25 -3.13,0.65 -1.8,-1.21 -0.38,-4.79 -1.25,-4.26 0.58,-2.69 -1.18,-3.46 -4.12,-0.38 -2.08,3.71 -6.58,3.28 -1.5,2.27 -2.4,1.28 -1.5,3.68 -3.28,3 -4.45,1.66 -3.62,-0.25 -2.46,1.24 -3.35,-0.16 -5.35,2.68 -3.5,6.07 -2.23,1.48 -1.6,-0.37 -2.52,1.15 -4.23,5.27 -1.8,-0.71 -2.08,0.2 -3.72,-5.49 0,0 1.16,1.32 0.9,-0.22 -0.04,-2.94 1.6,-1.95 1.96,-0.28 -0.22,-1.04 1.13,-1.47 -0.18,-0.75 3.67,-0.19 1.09,-4.14 1.51,0.69 0.67,-0.4 -0.01,-4.4 3.29,-0.39 -0.06,-1.23 -1.4,-0.13 -0.42,-0.62 2.39,-0.28 -0.01,-0.83 -1.1,-0.96 1.55,-1.78 -2.77,-1.57 3.29,-0.31 -1.03,-1.95 0.18,-1.8 1.38,1.34 1.82,0.34 0.72,-0.82 -1.23,-1.91 0.51,-1.4 0.79,-0.24 2.16,1.02 0.98,-1.2 1.66,0.17 2.05,-1.38 0.19,-2.43 1.41,-2.65 4.56,-3.98 1.37,-0.33 0.34,-3.210001 0.81,-0.45 0.28,-1.42 2.49,-1.28 1.04,-2.27 0.79,-0.3 1.78,0.73 1.37,1.6 1.05,-2 1.02,1.62 1.4,0.63 1.65,-0.45 0.69,-1.7 1.34,0.34 1.49,-1.45 1.26,-3.63 1.14,-0.82 1.89,-2.79 1.22,-0.55 -0.44,-3.34 1.7,-1.13 -0.08,-1.46 1.76,-1.13 0.56,-2.03 1.46,-0.26 1.16,-2.34 1.89,-1.12 1.56,1.59 2.47,-0.08 2,-0.63 1.03,-1.2 1.3,0.43 1.14,-0.66 1.7,0.19 0.66,-0.52 -1.35,-1.41 1.98,-1.02 -0.56,-1.25 2.62,0.16 2.04,-2.31 0.83,-1.68 -1.29,-2.44 0.44,-0.88 1.15,0.22 0.2,-2.49 2.52,-2.73 -1.52,-1.38 0.4,-1.55 -0.69,-1.82 -1.64,-1.27 -1.36,-2.73 1.38,-4.22 -0.53,-3.9 0.57,-1.33 0.03,-3.85 0.62,-0.17 1.63,1.24 2.7,-2.47 -0.49,-3.09 0.59,-2.6 -0.49,-1.83 0.38,-3.88 2.3,-1.43 1.67,-2.66 1.06,-0.73 1.87,0.09 1.41,-2.13 1.66,0.66 1.96,-0.84 1.85,0.24 1.01,1.1 0.67,-0.09 0.18,-1.19 1.83,0.69 1.73,-0.89 1.33,-1.06 1.76,0.18 3.43,-1.16 2.77,1.38 4.22,0.43 2.06,-0.71 1.88,-2.2599997 3.66,-0.82 2.64,-0.5 2.19,-0.76 3.33,-2.22 3.9,-0.24 1.28,-0.32 1.62,-0.8 1.97,0 1.67,-1.62 1.24,0.06 1.08,-1.04 2.29,0.18 1.35,-0.91 z"
     title="Vakaga"
     id="CF-VK" />
</svg>
