<?xml version="1.0" encoding="UTF-8" standalone="no"?>
<!-- Created for MapSVG plugin: http://mapsvg.com -->
<svg
   xmlns:mapsvg="http://mapsvg.com"
   xmlns:dc="http://purl.org/dc/elements/1.1/"
   xmlns:rdf="http://www.w3.org/1999/02/22-rdf-syntax-ns#"
   xmlns:svg="http://www.w3.org/2000/svg"
   xmlns="http://www.w3.org/2000/svg"
   mapsvg:geoViewBox="12.205166 5.387119 31.307673 -13.457585"
   width="612.58331"
   height="604.7099">
 
  <path
     d="m 9.1832843,362.74826 0.04,0.41 -0.16,0.28 -0.47,0.37 0.07,-0.35 -0.89,0.6 -0.42,-0.29 0.04,0.18 -0.44,0.12 -0.11,-0.59 0.47,-0.44 1.87,-0.29 z m 61.5299997,-53.04 -0.5,0.57 1.65,2.28 1.39,0.78 -0.41,0.29 -0.31,0.77 -0.87,0.74 -0.04,0.86 -0.26,-0.2 -0.38,-0.01 -0.97,0.35 -0.73,0.6 -0.31,0.66 0.25,0.6 0.78,0.42 -0.11,0.63 0.24,0.71 0.92,-0.03 0.48,0.59 -0.62,2.2 -0.06,1.35 0.28,0.54 -0.5,0.74 0.06,1.74 0.42,1.17 2.36,-1.58 0.6,0.31 1.58,0.24 1.1,1.22 1.74,0.63 1.42,-0.19 1.57,-1.32 1.97,-1.05 0.83,-0.21 0.74,-0.59 0.28,-0.81 0.35,-0.27 0.2,-0.9 1.18,-2.35 2.25,-2.1 0.38,-0.74 1.38,-1.49 2.23,-1.7 1.37,-2.22 0,0 3.23,4.86 2.309996,2.24 1.14,0.51 1.15,-0.37 0.5,-1.09 -0.17,-1.52 0.57,-0.7 0.71,-0.43 1.57,-0.22 3.08,0.88 2.26,-0.31 0.77,0.18 0.13,0.72 -1.05,1.87 0.28,0.4 2.28,0.78 0.4,0.33 0.2,1.11 -0.73,1.81 -0.36,2.73 -1.03,0.75 -1.96,0.27 -0.37,0.75 0.71,1.14 2.72,1.98 2.79,0.79 1.65,-0.19 0.73,-1.03 0.11,-2.33 0.2,-0.39 3.54,2.92 8.81,0.09 0,0 -0.83,2.29 -0.04,1.7 0.38,2.86 -1.3,6.11 0.54,6.39 -0.25,2.2 -1.41,3.4 -2.34,1.59 -0.65,1.3 0,0 -7.56,0.23 -5.99,-0.34 -4.62,0.22 -18.039996,-0.11 -8.46,0.25 -3.33,0.94 -2.76,-0.63 -1.62,0.35 -2.97,-0.16 -2.27,-0.44 -2.04,0.22 -1.74,-0.88 -0.42,0.23 -2.72,-0.08 -1.31,0.58 -1.66,-1.36 -1.12,0.52 -1.81,-0.08 -2.1,0.63 -8.21,-0.03 -0.83,0.06 -1.33,-0.33 -3.56,0.06 -0.45,0.18 -0.73,0.79 -3.57,-1.14 -2.04,0.31 -1.97,0.83 -0.64,-0.21 -0.74,-0.69 -1.04,-0.07 -0.93,0.2 -3.96,2.24 -2.18,0.82 -2.33,0.17 -1.74,1.03 -2.52,0.25 -2.52,1.2 -2.8499997,0.8 -0.15,-0.72 -0.4,-0.12 -0.01,-0.55 0.51,-0.27 0.52,0.04 0.92,-1.07 -0.16,-0.22 -0.04,-0.2 0.13,-0.15 -0.15,-0.09 -0.08,-0.04 -2.13,0.21 -0.44,0.24 -0.2,-0.02 -0.16,0.12 0.27,1.12 -0.32,-0.88 -1.61,-1.83 -0.11,-0.56 -0.15,0.09 -1.34,-1.12 -2.18000004,-2.58 -0.62,-1.35 1.89000004,-0.83 8.6299997,-0.3 0.08,-19.08 -1.3899997,-0.51 -0.74,-1.03 0.27,-0.62 1.5999997,-0.04 0.74,-0.56 0.72,0.02 0.73,-0.34 0.56,-0.59 0.45,0.01 0.37,-0.96 -0.25,-0.97 0.22,-0.34 1.03,0.26 1.47,-0.3 0.4,-1.49 0.79,-0.85 0.77,-0.23 0.69,-0.74 -0.2,-0.62 1.46,-2.28 0.68,-0.45 0.62,-0.29 1.4,0 2.01,-0.93 1.57,-0.3 0.77,-0.48 1.24,0.34 0.39,-0.66 -0.27,-0.89 0.03,-1.27 0.77,-0.45 2.67,2.63 0.74,0.35 1.01,1.51 -0.32,0.36 0.96,1.06 0.92,0.49 1.01,-0.04 0.46,0.39 0.43,0.04 0.47,1.56 -0.21,0.13 -0.05,0.5 1.78,1.69 0.12,-0.45 -0.54,-0.99 0.12,-0.18 0.76,-0.17 1.26,0.22 0.27,-0.9 0.46,-0.39 1.28,-0.51 0.77,0.26 0.63,-0.26 1.31,-2.37 0.46,0.04 0.75,0.7 0.54,0.18 0.27,-0.86 -0.44,-0.95 1.42,-0.08 0.03,-0.87 -0.51,-0.2 -0.15,-0.78 0.34,-0.6 -0.16,-0.43 0.65,-0.82 0.47,-1.12 0,-0.82 -0.7,-1.42 0.07,-0.95 0.26,-0.29 0.77,-0.12 0.62,-0.63 1.21,-0.08 1.08,0.82 0.98,1.69 2.44,0.54 1.33,-1.41 0.8,-1.57 0.35,0.05 1.28,-0.61 0.72,0.12 1.73,-0.55 0.81,0.19 2.51,-1.33 1.08,-1.05 0.6,0.06 0.4,-0.4 1.18,0 0.27,-0.79 1.3,-0.33 0.24,0.31 -0.43,0.99 z"
     title="Bas-Congo"
     id="CD-BC" />
  <path
     d="m 138.53328,230.97826 1.95,2.2 1.38,2.48 8.89,0 -0.11,-3.49 -0.54,-0.76 -2.18,-1.04 -0.14,-0.73 0.33,-0.7 5.03,0.66 1.5,0.39 1.76,-0.39 2.98,-2.45 11.68,-6.82 1.78,-0.75 2.88,-0.64 2.72,-1.71 4.04,-0.91 1.27,-0.58 2.8,-1.99 1.72,-1.73 1.26,-1.53 1.19,-2.59 2.37,0.17 4.43,0.74 2.11,2.2 1.43,0.84 1.25,0.41 2.26,-0.02 1.67,-0.68 1.73,-0.35 2.64,0.2 1.31,-0.28 0.66,-0.59 0.54,-1.12 0.76,-0.55 0.31,-0.91 -2.06,-2.35 -0.62,-1.11 -0.07,-2.9 0.78,-1.12 2.04,-0.8 1.66,-1.12 0.66,-0.8 0.66,-2.12 0.35,-0.26 0.42,0.04 0.96,1.05 1.02,2.38 0.15,2.2 0.55,2.62 1.58,2.03 1.3,2.4 1.27,1.72 3.16,2.59 0.6,2.47 1.18,2.77 3.43,5.13 1.18,4.36 0.11,1.77 1.87,0.49 0.92,-0.18 0.75,-0.67 1.86,-2.77 0.84,-0.76 0.88,-0.41 2.28,1.31 0.24,0.34 0.73,2.4 1.6,3.88 0.9,1.05 2.79,0.44 3.05,-0.29 2.79,0.23 1.71,0.89 1.38,2.04 1.63,0.07 2.72,1.51 1.28,-0.24 2.85,-1.53 2.76,0.41 0.42,-0.13 0.42,-0.79 0.66,-0.54 10.15,12.15 0.26,0.85 -0.02,1.92 0.21,0.64 0,0 -0.5,0.69 -1.18,2.84 0.09,1.81 -0.21,1.16 -0.5,0.78 -2.33,2.33 -1.17,1.86 -4.38,11.1 -1.17,3.51 -0.45,7.25 0.67,5.71 -0.1,4.84 0.34,2.27 0.15,6.27 -1.31,1.03 -0.17,0.75 -0.47,0.41 -3.36,1.68 -0.94,0.15 -0.57,-0.3 -0.33,0.06 -0.31,1.03 -0.98,-0.2 -1.2,0.57 -0.3,0.37 -0.28,1.24 0.02,0.94 -0.62,0.72 -1.12,-0.46 -0.87,0.44 -0.4,-0.05 -0.68,-0.63 -0.04,-0.7 -0.51,-0.6 -0.63,-0.24 -0.87,0.17 -1.18,-1.47 -1.17,-0.36 0,0 -1.09,0.24 -1.01,-0.13 0,0 -0.18,0.69 0.2,1.67 0.73,0.79 0.83,1.6 0.13,1.39 0.86,0.94 -0.62,1.16 -0.66,0.44 -0.54,1.44 0.12,2.24 -0.41,0.73 0.04,2.56 0.88,1.31 0.86,4 1.27,1.81 0.03,0.37 -0.33,0.54 0.09,0.57 0.72,0.84 0.88,3.02 0,1.68 -0.22,0.68 0.37,1.3 -0.66,0.44 -0.15,0.89 -0.79,1.23 -0.07,5.41 0.2,1.13 0.96,2.51 -0.2,0.63 0.18,0.9 -0.46,0.37 0.3,0.25 0.87,7.35 2.6,2.16 2.16,0.87 1.74,2.16 3.03,2.16 2.16,3.9 0.87,2.16 2.6,2.16 2.6,0 1.73,3.03 1.73,3.9 0,4.33 -1.73,5.2 -3.03,0.87 -3.03,-0.67 0,0 0.19,-0.84 -9.94,-0.02 -0.49,2.73 -24.28,0.04 0.11,0.99 0.5,0.87 -0.95,0.99 -1.21,2.88 0.31,1 -0.58,3.35 0.24,1.75 0.85,1.82 0.76,1.04 -0.73,0.54 -0.33,0.49 -0.83,0.43 0.26,0.98 -0.65,1.08 -2.97,0.06 -0.04,0.27 -0.35,0.19 0.29,1.09 0.64,1.09 0.37,1.61 -0.27,0.42 -0.46,2.21 -0.8,0.93 -0.18,2.17 0.02,1.07 0.52,2.66 -18.35,0.15 -0.71,-1.17 0.17,-0.2 -0.12,-1.15 -7.92,-0.04 0.11,1.27 -0.27,1.29 -4.37,0 0.24,0.42 -0.73,0.46 -0.7,-0.03 -1.11,-0.28 -0.48,-0.13 0.11,-0.64 -0.44,-0.18 -1.05,0.18 -1.42,-0.14 -2.04,0.61 -0.58,0.85 -1.18,0.17 -0.35,0.9 0.52,0.62 -0.1,0.37 -3.22,-0.04 -0.58,0.48 -1.35,-0.97 -1.76,-0.11 -1.91,0.4 -0.91,0.63 -2.43,-0.46 -1.15,0.15 -2.36,0.87 -1.64,-0.03 -0.99,-0.83 -0.04,-0.3 -0.73,-0.31 -0.02,-0.45 0.4,-0.71 0.49,-0.09 -0.8,-0.99 -0.76,-0.42 0.13,-1.58 -0.95,-0.22 -0.51,-0.54 0.41,-1.41 -0.97,-0.44 0.21,-0.87 -0.91,-0.03 -0.52,-0.67 0.05,-0.91 -1.42,-0.46 -0.72,-0.63 0.31,-1.34 -0.44,-0.51 -0.85,-0.37 0.33,-1.95 -2.04,-1.05 -0.55,-0.58 -0.72,-1.44 0.23,-0.67 -0.17,-0.41 -1.4,-0.78 0.12,-0.68 0.9,-0.3 -0.09,-0.4 -0.78,-0.23 -0.5,-0.63 -0.39,0.62 -0.73,-0.07 0.21,-1.86 -0.23,-0.59 -1.06,-0.11 -1.01,-0.69 -0.47,-0.75 -0.8,0.07 -0.05,-1.18 -0.49,-1.05 -1.12,-0.88 0.04,-0.47 0.5,-0.59 -0.54,-0.56 -0.09,-0.85 -0.72,-1.67 0.34,-0.43 0.44,0.55 0.49,-0.11 0.09,-0.98 0.38,-0.66 -0.31,-1.19 -0.73,-0.18 -0.37,-0.47 0.27,-1.14 -0.33,-0.49 0.03,-1.45 -0.71,-0.55 -0.64,0.17 -0.62,-0.36 -0.14,-1.33 -1.12,-1.09 -0.19,-1.79 -0.96,-0.52 -0.23,-0.53 -0.55,-2.84 -0.81,-0.48 -0.07,-0.42 0.44,-1.2 -1.15,-0.89 0.24,-0.86 -0.75,-0.89 0.68,-0.66 -0.61,-0.57 -0.64,0.08 -0.19,-1.58 0.08,-0.17 0.83,0.19 0.2,-0.18 0.09,-0.55 -0.49,-1.53 0.29,-1.01 -0.26,-0.76 0.65,-1.34 -0.3,-0.89 -1.02,-0.85 -0.61,-0.05 -0.8,-0.34 0.07,-0.88 -1.32,-0.45 -0.24,-0.86 0.27,-0.59 -0.29,-1.24 -0.3,-1.12 0.37,-0.78 -0.03,-0.76 -2.82,-1.29 -2.19,0.57 -1.25,-0.25 -0.64,-0.66 -9.34,0.19 0,0 0.65,-1.3 2.34,-1.59 1.4,-3.4 0.25,-2.21 -0.53,-6.38 1.3,-6.11 -0.38,-2.86 0.05,-1.71 0.83,-2.29 0,0 -0.04,-2.9 -0.58,-3.74 2.01,-2.58 3.48,-6.21 0.38,-0.36 1.64,-0.04 0,-0.57 0.71,-0.84 0.37,-1.64 0.51,-0.38 -0.22,-0.43 0.46,-0.66 0,-0.39 -0.51,-1.04 0.31,-0.38 0,-0.56 -0.42,-0.92 -0.75,-0.89 -1.37,-0.75 -2.23,-3.57 -2.41,-1.07 -3.6,-2.23 -1.29,-0.48 -1.61,-0.19 -5.01,0.35 -1.85,-1.14 0,0 0.57,-0.72 0.76,-2.75 1.84,-3.27 1.83,-4.14 1.75,-2.32 0.63,-1.89 1.75,-2.6 1.13,-3.16 -1.06,-0.92 -0.17,-0.54 0.28,-1.64 -0.46,-3.09 0.54,-2.74 -0.52,-2.82 0.04,-1.68 0.77,-2.61 0.08,-2.12 0.83,-1.84 0.15,-1.4 -1.7,-7.71 0.23,-5.02 1.62,-3.27 3.75,-2.68 2.49,-2.61 z"
     title="Bandundu"
     id="CD-BN" />
  <path
     d="m 237.31328,8.41826 3.02,-0.04 2.54,0.99 1.59,0.27 0.73,0.61 0.82,1.83 1.33,1.2 0.83,0.24 0.98,-0.22 1.67,0.42 2.19,1.9 2.07,0.97 1.27,1.55 2.7,1.67 0.86,0.06 1.14,0.71 1.33,1.81 2.2,2.14 0.26,0.9 -0.35,1.73 0.37,1.34 0.51,0.56 0.98,0.3 0.78,1.07 0.72,0.15 1.63,1.1 3.91,-0.56 0.93,0.24 1.2,-0.02 2.27,-1.01 0.62,0.26 2.72,0.3 1.75,0.83 1.63,0.31 0.83,0.71 0.57,1.09 1.81,1.08 0.52,-0.07 0.63,0.56 0.82,-0.27 0.44,-1.08 1.01,-0.28 1.67,1.41 3,1.06 1.31,-0.27 0.85,0.35 2.23,0.34 2.75,-1.97 0.31,0 0.53,0.43 1.85,-0.26 1.19,1.07 1.05,0.01 1.75,0.96 2.44,0.23 0.78,0.28 0.72,-0.42 0.79,-0.06 0.79,0.55 2.05,0.32 1,0.64 1.19,1.2 1.77,0.88 1.52,0.39 2.36,0.02 2.22,-0.38 1.15,0.03 0.57,-0.37 0,0 3.14,1.11 4.04,3.3 0.87,0.33 1.42,-0.12 0.23,2.76 2.8,1.41 1.34,0.35 1.42,-0.55 0.82,-0.04 0.83,-0.48 0.71,0.18 0.73,0.54 0.67,-0.2 0.89,-0.65 1.2,0 0.81,-0.28 0.81,0.48 0.95,-0.03 0.52,0.57 0.56,0.11 0.96,0.72 2.99,0.92 0.52,-0.09 0.77,-0.74 0.97,0.3 0.48,-0.09 0.9,0.42 1.36,-0.33 -0.38,1.7 -0.52,1.09 -1.47,1.21 -1.51,2.06 -0.78,0.64 -0.78,0.26 -1.43,-1.05 -2.28,-0.04 -0.7,-0.78 -1.17,-0.37 -1.1,0.78 -2,2.35 -1.18,1.03 -1.42,0.42 -1.24,-0.09 -0.83,-0.35 -2.11,1.29 -4.33,1.15 -1.93,0.77 -1.4,1.87 0.09,1.29 0.96,1 3.09,0.75 0.75,0.39 0.64,0.7 0.13,1.37 -0.63,3.22 -0.03,1.64 0.42,1.58 0.7,0.58 0.79,0.07 0.8,-0.58 2.87,-3.55 1.51,-1.22 1.59,-0.34 1,0.8 0.09,0.81 -0.3,1.42 -1.48,3.2 -0.12,1.58 -1.3,2.22 -0.06,0.8 0.52,1.23 0.15,1.17 -1.41,2.71 0.45,1.22 2.06,2.42 1.25,1.16 1.59,0.61 5.81,-1.05 0.79,0.02 0.85,0.35 2.03,2.29 3.82,1.86 2.74,2 0.42,1.24 0.35,3.16 -0.38,0.33 -1.11,-0.1 -2.7,-1.14 -5.66,-0.96 -4.6,3.32 -3.02,1.63 -0.51,0.07 -1.12,-0.46 -2.17,-2.36 -0.38,-0.06 -0.09,0.79 -1.23,0.34 0.09,0.97 -0.61,0.67 -1.01,0 0.02,0.8 -0.74,0.31 -0.11,0.53 -0.4,0 -0.35,0.5 -0.84,-0.04 -1.73,0.67 -0.88,-0.63 -0.97,-0.13 -1.27,-2.16 -1.65,-0.59 -0.79,0 -0.37,0.32 -0.05,0.4 0.57,1.57 -2.3,4.21 -0.94,5.85 -0.47,1.23 -1.73,1.92 -2.7,1.71 -0.75,0.72 -0.79,1.72 1.21,-0.04 0.66,0.21 0.63,-0.21 0.4,0.25 1.83,0.22 0.54,0.55 1.21,0.24 1.74,1.12 0.7,0.85 0.57,0.28 0.48,0.83 0.85,0.21 0.82,1.38 0.05,0.96 0.52,0.56 0.2,1.05 0.79,0.75 0.96,1.46 0.87,2.39 0.45,0.2 0.13,0.31 0.09,0.95 1.23,1.62 0.11,0.76 -0.22,1.1 0.44,0.8 -0.3,0.52 1.36,3.01 -0.18,3.36 0.63,1.34 1.35,1.48 0.67,1.18 -0.02,1.17 0.35,1.77 0.87,2.07 1.55,2.4 1.98,1.88 1.75,3.88 3.49,3.86 1.3,2.31 3.89,5.46 0.06,1.32 -0.51,0.45 -1.94,0.34 -1.28,1.35 -1.31,-0.19 -2.76,-1.04 -0.83,-0.06 -1.57,0.92 -3.91,3.18 7.95,0.62 0.33,0.35 0.48,1.59 0.83,0.3 1.67,-0.39 3.62,-1.4 0.73,-0.08 0.64,0.32 2.72,4.26 2.16,1.76 -0.15,0.39 -0.74,0.53 -2.16,0.46 -1.55,0.63 -4.05,3.1 -0.1,0.35 2.26,2.48 3.2,2.89 4.46,2.16 2.05,1.26 0.63,0.8 0.22,1.16 0.53,1.09 2.02,0.74 2.08,2.16 1.54,1.16 3.52,1.94 1.51,0.54 1.52,0.18 4.08,-0.28 0.75,0.37 0.96,2.35 1.34,2.29 0.88,3.45 0.55,4.36 0,0 -0.24,0.14 -12.1,-1.77 -1.6,1.16 -3.43,-0.25 -1.72,0.22 -0.76,0.43 -0.57,0.79 0,2.1 -0.27,1.43 -2.45,0.44 -0.24,0.74 0.1,2.05 -3.64,-0.43 -2.57,0.15 -7.07,1.38 -1.87,1.02 -0.66,-0.63 -2.08,-3.23 -0.84,-0.59 -1.13,-0.44 -1.32,-0.12 -1.21,0.23 -1.87,0.85 -0.88,-1.53 -1.25,-0.95 -1.6,-0.82 -1.83,-0.15 -2.68,-1.5 -1.18,0.33 -0.55,-0.51 -1.14,2.34 -1.84,2.27 -0.73,0.42 -6.04,-0.6 -3.47,-1.08 -0.9,-0.09 -0.66,0.85 0.07,0.39 1.16,2.6 0.97,5.54 1.86,5.88 0.16,1.2 -0.28,0.81 -0.33,0.39 -0.82,0.29 -1.69,-0.61 -0.5,-1.16 0.37,-1.64 -0.13,-1.48 -0.46,-0.72 -0.77,-0.46 -0.4,0 -0.77,0.5 -2.15,2.51 -3.1,1.42 -1.69,2.39 0,0 -2.32,1.23 -2.44,-1.5 -2.08,-0.74 -1.26,-1.18 -1.45,-0.33 -1.47,-1.41 -1.09,-0.23 -1.65,-0.78 -0.25,0.22 -0.26,4.09 -0.41,0.31 -2,-0.07 -2.46,0.9 -1.8,0.2 -2.5,0 -5.04,-0.76 0,0 -0.21,-0.64 0.02,-1.92 -0.26,-0.85 -10.15,-12.15 -0.66,0.54 -0.42,0.79 -0.42,0.13 -2.76,-0.41 -2.85,1.53 -1.28,0.24 -2.72,-1.51 -1.63,-0.07 -1.38,-2.04 -1.71,-0.89 -2.79,-0.23 -3.05,0.29 -2.79,-0.44 -0.9,-1.05 -1.6,-3.88 -0.73,-2.4 -0.24,-0.34 -2.28,-1.31 -0.88,0.41 -0.84,0.76 -1.86,2.77 -0.75,0.67 -0.92,0.18 -1.87,-0.49 -0.11,-1.77 -1.18,-4.36 -3.43,-5.13 -1.18,-2.77 -0.6,-2.47 -3.16,-2.59 -1.27,-1.72 -1.3,-2.4 -1.58,-2.03 -0.55,-2.62 -0.15,-2.2 -1.02,-2.38 -0.96,-1.05 -0.42,-0.04 -0.35,0.26 -0.66,2.12 -0.66,0.8 -1.66,1.12 -2.04,0.8 -0.78,1.12 0.07,2.9 0.62,1.11 2.06,2.35 -0.31,0.91 -0.76,0.55 -0.54,1.12 -0.66,0.59 -1.31,0.28 -2.64,-0.2 -1.73,0.35 -1.67,0.68 -2.26,0.02 -1.25,-0.41 -1.43,-0.84 -2.11,-2.2 -4.43,-0.74 -2.37,-0.17 -1.19,2.59 -1.26,1.53 -1.72,1.73 -2.8,1.99 -1.27,0.58 -4.04,0.91 -2.72,1.71 -2.88,0.64 -1.78,0.75 -11.68,6.82 -2.98,2.45 -1.76,0.39 -1.5,-0.39 -5.03,-0.66 -0.33,0.7 0.14,0.73 2.18,1.04 0.54,0.76 0.11,3.49 -8.89,0 -1.38,-2.48 -1.95,-2.2 0,0 2.23,-3.45 6.62,-13.19 1.61,-2.14 1.62,-1.59 2.57,-1.98 2.07,-0.9 2.25,-1.56 1.69,-0.72 2.35,-0.14 3.32,-1.81 4.85,-4.82 6.12,-7.76 0.84,-1.74 1.03,-5.08 -0.14,-1.99 -0.71,-2.72 -0.05,-3.34 1.84,-4.07 -0.42,-0.58 0.55,-2.85 1.47,-3.44 1.08,-1.41 2.19,-1.78 0.99,-1.57 0.19,-0.75 -0.16,-3.22 -0.34,-0.7 -1.87,-1.92 -0.32,-0.7 -0.05,-2.08 0.54,-0.81 -0.21,-1.71 0.33,-1.15 -0.38,-2.01 -0.71,-1.05 -0.52,-1.53 0.17,-2.97 0.43,-1.27 0.62,-1.01 1.03,-0.98 0.85,-1.58 1.11,-5.53 1.52,-3.66 1.42,-2.17 0.33,-4.23 0.31,-0.76 -0.96,-4.56 0.3,-1.89 0.8,-2.6 -0.26,-1.36 -0.61,-0.7 0.76,-2 0.18,-4.73 0.37,-0.91 1.53,-1.2 1.01,-1.29 0.16,-0.8 0.54,-0.63 0.63,-1.61 0.48,-2.12 3.11,-2.93 0.14,-0.75 1.63,-2.8 0.22,-0.73 0.63,-0.61 0.39,-0.82 0.4,-1.42 -0.19,-1.91 0.91,-2.41 1.57,-1.78 0.51,-1.8 1.67,-0.87 0.53,-0.53 0.78,-1.42 0.51,-1.6 -0.22,-1.64 0.48,-2.23 -0.55,-1.77 0.23,-1.99 -0.68,-2.71 -0.25,-3.16 -0.62,-2.27 -0.14,-1.52 0.34,-1.65 0.13,-2.96 1.1,-1.38 0.52,-1.24 -0.11,-3.14 -0.97,-2.88 -2.17,-3.91 -0.06,-0.87 0.94,-0.89 0.91,-0.43 0.98,0.35 2.56,-0.3 1.82,-1.33 0.66,-0.8 0.53,-1.21 0.66,-3.12 1.69,-1.78 0.69,-1.33 0.84,-0.33 0.49,-0.95 1.99,-1.83 0.31,-1.06 1.29,-1.84 0.55,-1.62 0.94,-1.09 0.96,-0.38 2.13,-0.05 1.25,-2.06 3.76,-2.12 1.43,-1.53 0.85,-0.29 1.45,0.24 1.04,-0.08 0.64,-0.46 0.88,-0.2 z"
     title="Équateur"
     id="CD-EQ" />
  <path
     d="m 450.86328,331.32826 65.73,0 0,0 16.78,0 0,0 16.97,0.01 0,0 2.16,6.46 2.92,6.79 1.47,4.5 0.74,3.47 0.28,3.33 -0.23,2.79 -0.71,3.44 0.04,5.88 0.5,3.38 1.93,5.16 2.93,4.49 1.44,1.78 3.68,3.18 5.73,4.1 3.16,3.34 1.75,2.61 3.86,7.25 2.05,5.47 3.76,7.81 3.57,10.26 0.9,0.62 1.89,3.53 0.57,2.41 0.57,1.27 -20.86,2.83 -3.95,0.13 -35.19,5.1 1.49,3.02 0.5,2.19 -0.67,2.65 -1.49,2.45 -4.77,6.09 -1.67,1.62 -1.55,1.21 -5.26,3.2 -2.09,1.65 -0.76,0.74 -0.97,2.03 -0.08,2.21 0.75,0.94 1.03,0.46 1.51,-0.54 1.37,-1.59 0.65,0.23 0.22,0.71 -0.58,1.96 0.63,0.64 0.75,0.55 0.35,0.34 0.51,2.86 0.94,0.71 -0.08,1.04 0.54,1.06 -0.17,2.04 0.6,0.72 0.82,0.13 0.17,0.7 0.75,0.91 -0.82,0.48 -0.56,2.45 -0.93,1.95 0.37,2.1 -0.39,1.64 -0.08,2.72 -1.27,1.78 -0.16,0.6 1.17,1.76 0.73,0.68 -0.48,2.26 0.68,1.99 -0.28,2.63 0.08,0.33 1.11,1.03 -0.17,1.9 0.68,0.6 0.31,0.81 -0.26,0.57 -0.67,0.46 -0.18,0.8 -1.02,-0.12 -0.65,0.33 -0.21,1.36 -1.6,2.1 -0.51,3.59 -0.94,1.03 -0.02,1.82 -0.4,0.73 -0.62,1.68 0.65,1.47 0.02,1.03 -0.48,1.24 0.16,0.77 -0.54,1.34 -0.46,0.26 -0.23,1.03 0.32,1.49 -1.01,0.45 0.08,0.91 -0.32,1.07 -0.81,0.93 0.15,0.95 -0.56,2.65 1.6,1.96 -0.43,1.04 0.54,0.72 -0.65,0.85 0.66,0.56 0.39,0.85 -0.33,1.23 0.06,0.76 1.38,-0.11 0.64,1.03 0.07,0.67 2.33,1.02 1.22,0.06 0.81,1.29 2.6,1.25 0.89,-0.21 0.34,0.2 0.61,2.12 1.73,1.48 0.74,1.21 2.93,2.41 1.66,2.46 0.19,1.14 1.35,2.03 0.62,0.14 1.32,-0.32 0.7,0.52 1.98,-0.81 1.34,0.14 1.09,-0.34 0.93,0.82 -0.01,0.64 1.2,0.31 1.06,-0.19 3.48,1.91 0.79,-0.05 0.88,-0.85 0.34,-0.7 -0.1,-0.66 -1.24,-0.26 -1.27,-1.97 0.37,-1.97 0.69,-1.13 2.76,-1.49 0.67,0.01 1.2,0.44 1.07,0.02 1.8,-0.55 1.25,-0.98 1.44,-0.12 0.06,42.4 -1.03,-0.59 -2.07,0.61 -1.04,-0.81 -1.07,0.21 -1.15,-0.93 -0.08,-0.49 0.2,-0.38 -0.31,-0.62 1.53,-0.43 0.35,-1.31 -0.31,-0.71 0.92,-0.78 -0.38,-1.25 -1.13,0.39 -1.48,-0.81 -0.91,0.46 -1.04,0 -2.77,2.82 -2.45,0.41 -0.53,0.71 -1.05,-0.53 -0.54,1.42 -1.63,0.58 -2.1,1.64 -0.71,-1.37 -0.57,-0.66 -0.68,-0.37 -1.09,0.25 -2.16,1.32 -0.53,-0.06 -0.88,-1.3 -0.25,-1.09 -0.73,-1.26 -0.13,-1.06 -1.21,-3.6 -0.91,0.02 -0.59,-0.2 -0.32,-0.37 -0.01,-1.29 -0.02,-0.81 -0.36,-0.79 -0.24,-1.5 -1.16,-1.52 -1.13,-0.85 -0.94,-2.02 -2.36,-1.88 -0.84,0.05 -0.7,0.72 -0.52,1.38 -0.51,0.27 -0.16,-0.51 -0.75,-0.69 -0.5,-1.81 -2.02,-2.18 -0.3,-1.16 0.68,-0.47 1.01,-0.16 0.46,-1.47 -0.23,-0.52 -0.84,-0.82 -1.43,-0.97 0.14,-1.08 -0.26,-0.46 -1.21,-0.5 -2.85,-2.67 -1.78,-0.2 -0.77,0.32 -0.7,-0.53 -0.78,-0.17 -0.47,-0.6 -0.87,0.78 -0.04,0.7 -0.69,0.24 -1.21,-2.5 -0.35,-0.2 -2.03,-0.1 -0.74,-0.35 -1.09,0.49 -0.22,-0.45 0.16,-0.85 -1.14,-2.4 -1.67,0.12 -1.52,-0.46 -0.15,0.13 0.12,0.84 -1.34,0.46 -0.56,0.51 -1.49,-0.26 -1.77,0.18 -0.8,-0.38 -0.58,-1.67 -1.56,-0.46 -1.59,-1.71 -0.57,-2.95 -0.95,-1.05 0.15,-2.44 -0.29,-1.03 -0.91,-0.76 -1.21,-0.92 -3.41,-2.16 -1.41,-0.3 -0.46,-0.46 -0.19,-4.25 -0.66,-2.84 -1.56,1.02 -1.2,-0.15 -0.97,0.34 -1.44,-0.09 -0.51,0.27 -0.12,1.32 0.65,0.93 0.12,0.59 -1.3,2.24 -0.3,1.6 0.28,0.98 -1.16,1.08 -0.57,1.28 -1.45,1.16 -0.79,0.96 -0.88,-0.13 -0.91,0.42 -0.95,-0.86 -0.75,-0.12 -0.64,0.34 -1.17,1.14 -0.34,0.01 -0.51,-0.55 -1.79,-0.21 -1.09,-0.46 -1.37,0.25 -2.32,-1.63 -1.35,-0.46 -1.15,0.16 -2.52,1.5 -3.78,-1.25 -0.65,0.37 -6.47,0.05 -0.36,-0.25 0.39,-0.75 -0.12,-0.38 -0.88,-0.67 -0.83,0.09 -0.47,-0.19 -0.66,-0.89 -0.26,-1.11 -0.31,-0.41 -0.57,0.06 -1.25,0.84 -3.37,-0.4 -0.66,-0.79 -0.66,-0.32 -0.72,-1.58 -0.64,0.15 -1.32,-0.04 -0.52,0.82 -1.45,0.49 -1.12,0.27 -0.43,-0.41 0.37,-0.93 -0.04,-1.02 -0.54,-0.81 -1.6,-0.37 -2.91,-1.6 -0.34,-1.37 -0.67,-0.62 0.17,-1.06 -0.67,-0.53 1.19,-0.58 -0.72,-0.95 -0.06,-1.75 -0.77,-1.48 0.06,-0.31 1,-0.4 0.03,-0.68 -0.54,-0.59 0.09,-0.25 0.74,-0.17 0.45,-0.43 -0.5,-0.88 1.03,-1.95 -1.54,-0.15 -2.5,1.18 -2.84,0.33 -2.14,0.55 -2.72,-0.14 -0.83,0.29 -0.94,-0.1 -0.78,0.44 -1.04,-0.25 -0.65,1 -1.77,0.37 -0.79,-0.16 -1.13,0.21 -0.17,0.74 -1.08,0.16 -1.06,0.79 -1.01,1.49 -1.15,0.48 -0.21,0.97 -0.27,0.26 -1.06,-0.33 -0.89,0.51 -1.64,-0.04 -0.84,0.49 -0.27,-0.27 -0.04,-0.69 -1.7,-1.21 -2.04,-0.05 -0.97,-0.6 0.23,-0.47 1.72,-0.26 1.4,-2.62 0.25,-2.96 -0.46,-0.62 0.15,-2.02 -0.27,-0.68 -2.01,-1.29 -1.19,-0.33 -0.93,0.09 -2.15,-0.52 -0.73,0.51 -0.73,-0.27 -0.33,-0.41 0.48,-1.52 -0.78,-1.04 0.28,-0.75 -0.18,-0.37 -0.24,-0.19 -0.73,0.03 -1.15,-0.52 -1.56,-0.14 -0.97,0.38 -0.62,1.35 -0.5,0.53 -1.77,1.08 -0.55,0.95 -0.65,0.33 -1.17,0.01 -2.25,-1.16 -1.2,0.51 -1.15,0.01 -1.38,-0.57 -1.4,0.08 -1.44,-1.09 -1.11,-0.43 -2.25,-0.26 -4.69,3.01 -2.75,2.31 -1.64,-0.29 -2.18,1 -2.24,-0.78 -1.78,-0.06 -1.76,-0.55 -1.17,-0.63 -1.09,0.62 -0.72,0.07 -0.55,0.92 -2.25,-0.05 -2.23,-0.88 -2.19,-1.52 -0.74,-0.18 -1.67,0.39 -0.4,0.29 -0.28,0.55 0.29,0.96 -0.1,0.73 -1.85,1.77 -2.75,0.05 -0.54,1 -1.11,1.19 -0.31,0.23 -0.58,-0.16 -0.42,-0.62 0.35,-1.03 -0.2,-0.95 -1.37,-2 -0.03,-2.24 -0.42,-1.21 -0.02,-1.72 -0.78,-1.22 -0.24,-1.06 0.21,-0.74 1.62,-1.27 2.25,-0.66 0.84,-0.64 0.19,-0.48 -0.63,-2.64 0.08,-4.29 -1.25,-0.89 0.59,-1.6 0.86,-1.51 0.16,-1.14 -0.68,-1.86 -0.79,-0.84 -0.06,-1.32 -1.41,-1.66 -0.43,-1.64 0.07,-2.84 -0.86,-2.33 -0.21,-2.33 -1.97,-1.05 -1.83,-0.54 -0.91,-1.33 -1.03,-0.67 -1.15,-1.67 -1.18,-1.66 -0.17,-0.84 -1.87,-1.08 -0.25,-2.82 -1.23,-2.21 0.16,-1.05 -1.34,-1.43 0.3,-0.52 0.41,-2.16 0.53,-1.41 0.92,-1.7 0.02,-2.22 -0.58,-2.93 0.24,-1.89 0.51,-3.09 0.07,-1.89 0.4,-1.18 0.75,-2.09 0.38,-3.03 0.2,-2.34 0.64,-2.23 0.55,-1.08 -0.54,-2.27 -0.75,-2.26 0.54,-1.02 -1.29,-1.08 -0.58,-3.02 -0.74,-1.71 -1.31,-2.83 -0.83,-0.8 -1.36,-3.31 0.8,-1.11 -0.2,-2.01 0.12,-1.72 0.88,-1.5 0.5,-1.56 0.48,-1.14 0,0 4.46,1.68 1.52,1.44 2.07,1.03 2.06,0.28 1.45,0.6 2.07,0.23 4.34,-0.57 3.65,0.02 0.76,-0.37 2.33,-2.01 0.6,-0.07 0.7,0.45 0.53,0.76 0.44,2.28 0.52,1.13 0.4,0.3 2.08,0.52 1.62,-0.19 1.98,0.8 2.26,-0.43 4.36,-1.48 0.83,-0.35 1.11,-1.02 0.54,-0.21 0,0 0.59,1.57 0.32,2.02 0.52,0.73 0.7,0.28 0.83,-0.18 0.74,-1.19 0.4,-0.26 1.15,0.61 1.92,-0.18 1.68,0.66 1.33,0.16 1.26,-0.21 1.19,-0.56 4.13,0.1 0.78,-0.4 0.89,-1.07 0.35,0.17 0.13,0.88 0.4,0.35 0.79,-0.03 0.82,-0.48 0.28,-1.15 0.73,-0.57 1.55,-0.29 2.05,0.18 0.13,-1.08 -0.16,-0.52 -1.09,-1.79 0.2,-1.08 -0.09,-2.21 0.27,-0.62 -0.22,-1.06 0.27,-0.79 -0.17,-0.5 0.74,-0.6 0.65,-2.01 0.26,-1.89 0.77,-0.8 -0.18,-0.49 -0.84,-0.27 -0.36,-0.49 0.63,-2.24 -0.54,-1.47 0.31,-0.57 1.27,-0.97 0.58,-1.38 0.69,-0.64 0.37,-0.82 1.78,-0.45 0.7,-0.62 0.29,-1.06 -0.54,-0.53 0.45,-0.59 -0.22,-0.44 -0.44,-0.1 -0.13,-0.29 1.08,-0.69 -0.66,-1.02 0.55,-0.77 0.37,-0.13 1.23,0.4 0.66,0.74 0.31,0.69 -0.14,1.65 0.5,0.59 4.03,1.98 1.58,0.51 1.1,0 0.76,-0.32 0.34,-0.39 0.54,-1.53 0.87,-0.22 2.03,-0.01 1.69,-1.82 3.48,-1.18 3.04,-2.47 1.93,-1.21 0.14,-0.41 -0.41,-1.15 0.09,-0.52 0.66,-1.18 0.73,-0.6 3.48,-0.25 3.13,0.48 2,0.83 1.1,0.8 1.06,1.23 0.52,0.06 4.31,-1.63 0.39,-0.57 0.13,-0.99 0.53,-0.76 -0.17,-1.19 0.25,-0.3 1.59,-0.62 -0.16,-1.15 -0.4,-0.18 -2.59,0.44 -0.48,-0.16 -0.27,0.2 -0.27,-0.39 -0.31,-0.13 -0.38,0.27 -0.45,-0.4 -1.31,-1.57 -0.76,-0.55 -1.14,-1.88 0.5,-1.24 1.19,-0.99 2.27,-0.1 3.77,0.83 0.79,-0.09 1.5,-1.05 2.63,-0.43 2.85,-2.75 1.56,-1 1.91,0.26 2.47,0.86 0.66,0.67 0.08,1.47 0.61,0.51 0.79,-0.15 1.42,-1.38 1.17,-0.15 2.11,0.26 0.7,-0.43 0.66,-1.54 -1.4,-2.8 -0.05,-0.86 1.23,-1.93 -0.37,-5.07 0.46,-2.86 -0.09,-0.48 -2.84,-2.65 -0.57,-1.19 -0.02,-0.87 0.45,-1.25 2.07,-2.35 -2.1,-3.68 1.12,-3.18 2.91,-3.89 1.78,-3.63 z"
     title="Katanga"
     id="CD-KA" />
  <path
     d="m 310.91328,251.26826 1.69,-2.39 3.1,-1.42 2.15,-2.51 0.77,-0.5 0.4,0 0.77,0.46 0.46,0.72 0.13,1.48 -0.37,1.64 0.5,1.16 1.69,0.61 0.82,-0.29 0.33,-0.39 0.28,-0.81 -0.16,-1.2 -1.86,-5.88 -0.97,-5.54 -1.16,-2.6 -0.07,-0.39 0.66,-0.85 0.9,0.09 3.47,1.08 6.04,0.6 0.73,-0.42 1.84,-2.27 1.14,-2.34 0.55,0.51 1.18,-0.33 2.68,1.5 1.83,0.15 1.6,0.82 1.25,0.95 0.88,1.53 1.87,-0.85 1.21,-0.23 1.32,0.12 1.13,0.44 0.84,0.59 2.08,3.23 0.66,0.63 1.87,-1.02 7.07,-1.38 2.57,-0.15 3.64,0.43 -0.1,-2.05 0.24,-0.74 2.45,-0.44 0.27,-1.43 0,-2.1 0.57,-0.79 0.76,-0.43 1.72,-0.22 3.43,0.25 1.6,-1.16 12.1,1.77 0.24,-0.14 0,0 0.97,4.93 0,0 0.33,2.46 0.63,2.19 1.63,2.55 2.54,3.22 2.82,6.03 1.45,0.43 1.93,0.03 9.57,-0.73 -0.39,3.37 -0.48,1.71 0.39,1.4 0.01,1.46 0.71,1.73 0.11,0.94 -1.14,2.16 -0.59,2.26 -1.59,2.99 0.05,0.59 0.7,1.04 -0.26,0.39 -0.53,-0.34 -0.29,0.15 0.05,0.35 0.48,0.39 -0.35,0.77 0.44,0.63 -0.59,0.72 -0.13,0.91 -0.86,0.46 -0.02,0.53 -0.42,0.46 0.16,0.71 -0.16,0.29 -1.38,0.08 -0.51,0.38 0.04,0.34 0.42,0.24 -0.22,0.66 0.03,1.35 -1.35,0.48 -0.43,1.07 -0.46,0.22 -0.35,1.18 -0.99,0.08 -0.51,0.37 -0.03,0.52 0.78,0.99 0.02,0.4 -0.5,0.58 -0.71,0.09 0.24,0.42 -0.11,0.76 0.4,0.46 0.09,1.33 0.54,0.33 -0.19,0.67 0.11,0.54 -1.24,1.2 0.08,0.48 -0.97,0.99 0.26,0.56 -0.09,0.38 1.05,0.45 -0.19,0.7 0.97,-0.14 0.54,0.33 0.03,0.33 -0.4,0.07 -0.07,0.28 1.06,1.59 0.74,-0.18 -0.04,0.97 0.55,0.11 0.9,0.87 -0.13,1.17 0.79,0.99 0.45,0.13 0.52,-0.37 0.79,0.52 0.09,1.6 0.78,0.76 -0.48,0.39 -0.02,0.37 0.83,0.72 -0.35,0.89 -0.04,1.21 0.44,0.87 0,0.59 -0.66,1.11 -0.06,1.2 -0.64,0.91 1.16,1.7 0.02,0.72 -2.1,1.86 -0.42,0.7 -0.16,0.89 -0.5,-0.02 -0.22,0.44 -0.84,0.5 -0.61,1.59 0.35,1.68 0.66,0.43 0.62,1.62 0.72,0.35 0.27,0.63 0.79,0.33 0.39,0.92 1.03,0.95 0.27,0.62 0.01,1.18 0.53,0.56 0.09,0.74 0.66,0.66 0.24,0.76 38.61,-0.02 0,0 -0.18,1.76 -1.78,3.63 -2.91,3.89 -1.12,3.18 2.1,3.68 -2.07,2.35 -0.45,1.25 0.02,0.87 0.57,1.19 2.84,2.65 0.09,0.48 -0.46,2.86 0.37,5.07 -1.23,1.93 0.05,0.86 1.4,2.8 -0.66,1.54 -0.7,0.43 -2.11,-0.26 -1.17,0.15 -1.42,1.38 -0.79,0.15 -0.61,-0.51 -0.08,-1.47 -0.66,-0.67 -2.47,-0.86 -1.91,-0.26 -1.56,1 -2.85,2.75 -2.63,0.43 -1.5,1.05 -0.79,0.09 -3.77,-0.83 -2.27,0.1 -1.19,0.99 -0.5,1.24 1.14,1.88 0.76,0.55 1.31,1.57 0.45,0.4 0.38,-0.27 0.31,0.13 0.27,0.39 0.27,-0.2 0.48,0.16 2.59,-0.44 0.4,0.18 0.16,1.15 -1.59,0.62 -0.25,0.3 0.17,1.19 -0.53,0.76 -0.13,0.99 -0.39,0.57 -4.31,1.63 -0.52,-0.06 -1.06,-1.23 -1.1,-0.8 -2,-0.83 -3.13,-0.48 -3.48,0.25 -0.73,0.6 -0.66,1.18 -0.09,0.52 0.41,1.15 -0.14,0.41 -1.93,1.21 -3.04,2.47 -3.48,1.18 -1.69,1.82 -2.03,0.01 -0.87,0.22 -0.54,1.53 -0.34,0.39 -0.76,0.32 -1.1,0 -1.58,-0.51 -4.03,-1.98 -0.5,-0.59 0.14,-1.65 -0.31,-0.69 -0.66,-0.74 -1.23,-0.4 -0.37,0.13 -0.55,0.77 0.66,1.02 -1.08,0.69 0.13,0.29 0.44,0.1 0.22,0.44 -0.45,0.59 0.54,0.53 -0.29,1.06 -0.7,0.62 -1.78,0.45 -0.37,0.82 -0.69,0.64 -0.58,1.38 -1.27,0.97 -0.31,0.57 0.54,1.47 -0.63,2.24 0.36,0.49 0.84,0.27 0.18,0.49 -0.77,0.8 -0.26,1.89 -0.65,2.01 -0.74,0.6 0.17,0.5 -0.27,0.79 0.22,1.06 -0.27,0.62 0.09,2.21 -0.2,1.08 1.09,1.79 0.16,0.52 -0.13,1.08 -2.05,-0.18 -1.55,0.29 -0.73,0.57 -0.28,1.15 -0.82,0.48 -0.79,0.03 -0.4,-0.35 -0.13,-0.88 -0.35,-0.17 -0.89,1.07 -0.78,0.4 -4.13,-0.1 -1.19,0.56 -1.26,0.21 -1.33,-0.16 -1.68,-0.66 -1.92,0.18 -1.15,-0.61 -0.4,0.26 -0.74,1.19 -0.83,0.18 -0.7,-0.28 -0.52,-0.73 -0.32,-2.02 -0.59,-1.57 0,0 0.6,-4.07 0.17,-3.89 1,-5.36 0,-1.73 -0.34,-1.77 0.22,-2.49 -0.63,-2.31 1.84,-5.17 -0.03,-0.39 -1.48,-1.92 -0.8,-0.62 -2.91,-1.39 -2.03,-3.28 -0.77,-0.69 -1.56,-0.81 -0.35,-0.37 -0.4,-1.11 0.05,-1.5 2.46,-4.46 0.64,-1.57 0.59,-3.62 1.67,-2.64 -0.39,-1.2 -1.98,-1.24 -0.93,-1.2 -0.61,-1.24 -0.57,-2.39 0.04,-4.09 0.8,-1.94 1.12,-0.68 4.14,-0.17 4.35,-0.57 3.25,-1.44 0.4,0.19 -0.53,1.58 0.26,0.46 0.42,0.12 2.46,-1.05 0.68,-1.12 0.86,-0.66 3.02,-1.05 1.68,-1.02 1.86,0.19 0.4,-0.69 -0.16,-6.41 -0.28,-0.73 -2.57,-0.76 -3.23,-1.79 -2.94,-0.87 -0.42,-0.35 -0.13,-0.79 -0.55,-0.72 -1.19,0.23 -2.65,1.02 -1.96,-0.02 -2.81,-3.53 -5.55,-4.46 -0.59,-0.69 -0.12,-3.41 1.02,-1.78 4.85,-1.33 0.76,-0.44 0.53,-0.79 -0.07,-1.57 -0.63,-3.27 -0.64,-1.57 -0.39,-0.39 -2.87,-0.2 -2.82,-0.59 -2.24,-0.06 -0.85,-0.33 -1.87,-2.36 -3.76,-3.89 -1.99,-1.45 -3.16,-1.31 -3.32,-2.47 -1.1,-1.67 -2.5,-2.78 -1.36,0.14 -2.62,1.37 -0.79,-0.04 -0.81,-0.3 -1.38,-1.49 -2.07,-0.29 0.35,-0.95 0.69,-0.63 1.6,-0.42 3.01,0.02 0.3,-0.9 -1.23,-3.61 -0.99,-2.06 -0.67,-0.57 -2.73,-0.61 -0.73,-0.4 -0.85,-1.14 -0.3,-1.96 0.17,-1.73 0.49,-0.81 1.55,-1.5 0.55,-1.48 0.2,-1.69 1.1,-1.49 0.79,-1.67 1.82,-4.97 0.57,-2.62 -0.92,-2.81 -1.65,-2.7 -1.47,-1.88 -2.54,-2.51 -0.51,-3.29 -0.45,-1.23 z"
     title="Kasai-Oriental"
     id="CD-KE" />
  <path
     d="m 118.75328,297.79826 1.85,1.14 5.01,-0.35 1.61,0.19 1.29,0.48 3.6,2.23 2.41,1.07 2.23,3.57 1.37,0.75 0.75,0.89 0.42,0.92 0,0.56 -0.31,0.38 0.51,1.04 0,0.39 -0.46,0.66 0.22,0.43 -0.51,0.38 -0.37,1.64 -0.71,0.84 0,0.57 -1.64,0.04 -0.38,0.36 -3.48,6.21 -2.01,2.58 0.58,3.74 0.04,2.9 0,0 -8.81,-0.08 -3.53,-2.92 -0.2,0.39 -0.1,2.33 -0.73,1.03 -1.65,0.19 -2.78,-0.78 -2.73,-1.98 -0.7,-1.14 0.37,-0.75 1.96,-0.27 1.03,-0.75 0.37,-2.73 0.73,-1.81 -0.2,-1.11 -0.4,-0.33 -2.28,-0.78 -0.28,-0.39 1.05,-1.88 -0.14,-0.72 -0.76,-0.17 -2.26,0.31 -3.08,-0.88 -1.58,0.22 -0.7,0.44 -0.57,0.7 0.17,1.52 -0.5,1.09 -1.15,0.38 -1.14,-0.51 -2.299996,-2.24 -3.23,-4.86 0,0 0.91,-0.94 0.51,-1.5 1.1,-0.65 1.2,-0.35 1.15,-1.1 2.239996,0.24 0.81,0.34 1,-0.27 1.13,-0.7 1.29,-2.19 -0.13,-1.65 0.46,-1.36 0.89,-1.39 0.62,-0.51 4.88,-1.69 4.58,-0.68 z"
     title="Kinshasa"
     id="CD-KN" />
  <path
     d="m 269.96328,393.40826 3.03,0.67 3.03,-0.87 1.73,-5.2 0,-4.33 -1.73,-3.9 -1.73,-3.03 -2.6,0 -2.6,-2.16 -0.87,-2.16 -2.16,-3.9 -3.03,-2.16 -1.74,-2.16 -2.16,-0.87 -2.6,-2.16 -0.87,-7.35 -0.3,-0.25 0.46,-0.37 -0.18,-0.9 0.2,-0.63 -0.96,-2.51 -0.2,-1.13 0.07,-5.41 0.79,-1.23 0.15,-0.89 0.66,-0.44 -0.37,-1.3 0.22,-0.68 0,-1.68 -0.88,-3.02 -0.72,-0.84 -0.09,-0.57 0.33,-0.54 -0.03,-0.37 -1.27,-1.81 -0.86,-4 -0.88,-1.31 -0.04,-2.56 0.41,-0.73 -0.12,-2.24 0.54,-1.44 0.66,-0.44 0.62,-1.16 -0.86,-0.94 -0.13,-1.39 -0.83,-1.6 -0.73,-0.79 -0.2,-1.67 0.18,-0.69 0,0 0.57,0.13 1.53,-0.24 0,0 1.17,0.36 1.18,1.47 0.87,-0.17 0.63,0.24 0.51,0.6 0.04,0.7 0.68,0.63 0.4,0.05 0.87,-0.44 1.12,0.46 0.62,-0.72 -0.02,-0.94 0.28,-1.24 0.3,-0.37 1.2,-0.57 0.98,0.2 0.31,-1.03 0.33,-0.06 0.57,0.3 0.94,-0.15 3.36,-1.68 0.47,-0.41 0.17,-0.75 1.31,-1.03 -0.15,-6.27 -0.34,-2.27 0.1,-4.84 -0.67,-5.71 0.45,-7.25 1.17,-3.51 4.38,-11.1 1.17,-1.86 2.33,-2.33 0.5,-0.78 0.21,-1.16 -0.09,-1.81 1.18,-2.84 0.5,-0.69 0,0 5.04,0.76 2.5,0 1.8,-0.2 2.46,-0.9 2,0.07 0.41,-0.31 0.26,-4.09 0.25,-0.22 1.65,0.78 1.09,0.23 1.47,1.41 1.45,0.33 1.26,1.18 2.08,0.74 2.44,1.5 2.32,-1.23 0,0 1.93,1.53 0.45,1.23 0.51,3.29 2.54,2.51 1.47,1.88 1.65,2.7 0.92,2.81 -0.57,2.62 -1.82,4.97 -0.79,1.67 -1.1,1.49 -0.2,1.69 -0.55,1.48 -1.55,1.5 -0.49,0.81 -0.17,1.73 0.3,1.96 0.85,1.14 0.73,0.4 2.73,0.61 0.67,0.57 0.99,2.06 1.23,3.61 -0.3,0.9 -3.01,-0.02 -1.6,0.42 -0.69,0.63 -0.35,0.95 2.07,0.29 1.38,1.49 0.81,0.3 0.79,0.04 2.62,-1.37 1.36,-0.14 2.5,2.78 1.1,1.67 3.32,2.47 3.16,1.31 1.99,1.45 3.76,3.89 1.87,2.36 0.85,0.33 2.24,0.06 2.82,0.59 2.87,0.2 0.39,0.39 0.64,1.57 0.63,3.27 0.07,1.57 -0.53,0.79 -0.76,0.44 -4.85,1.33 -1.02,1.78 0.12,3.41 0.59,0.69 5.55,4.46 2.81,3.53 1.96,0.02 2.65,-1.02 1.19,-0.23 0.55,0.72 0.13,0.79 0.42,0.35 2.94,0.87 3.23,1.79 2.57,0.76 0.28,0.73 0.16,6.41 -0.4,0.69 -1.86,-0.19 -1.68,1.02 -3.02,1.05 -0.86,0.66 -0.68,1.12 -2.46,1.05 -0.42,-0.12 -0.26,-0.46 0.53,-1.58 -0.4,-0.19 -3.25,1.44 -4.35,0.57 -4.14,0.17 -1.12,0.68 -0.8,1.94 -0.04,4.09 0.57,2.39 0.61,1.24 0.93,1.2 1.98,1.24 0.39,1.2 -1.67,2.64 -0.59,3.62 -0.64,1.57 -2.46,4.46 -0.05,1.5 0.4,1.11 0.35,0.37 1.56,0.81 0.77,0.69 2.03,3.28 2.91,1.39 0.8,0.62 1.48,1.92 0.03,0.39 -1.84,5.17 0.63,2.31 -0.22,2.49 0.34,1.77 0,1.73 -1,5.36 -0.17,3.89 -0.6,4.07 0,0 -0.54,0.21 -1.11,1.02 -0.83,0.35 -4.36,1.48 -2.26,0.43 -1.98,-0.8 -1.62,0.19 -2.08,-0.52 -0.4,-0.3 -0.52,-1.13 -0.44,-2.28 -0.53,-0.76 -0.7,-0.45 -0.6,0.07 -2.33,2.01 -0.76,0.37 -3.65,-0.02 -4.34,0.57 -2.07,-0.23 -1.45,-0.6 -2.06,-0.28 -2.07,-1.03 -1.52,-1.44 -4.46,-1.68 0,0 0.07,-0.79 0.65,-0.72 0.15,-1.48 -0.54,-1.08 0.66,-1.45 -0.04,-1.04 -0.56,-1.82 -0.59,-1.87 -1.05,-0.79 -0.21,-0.61 -39.7,-0.08 -0.17,-1.99 0.24,-2.42 0.25,-1 0.76,-1.39 0.46,-2.04 0.92,-0.97 z"
     title="Kasai-Occidental"
     id="CD-KW" />
  <path
     d="m 498.83328,189.58826 0.39,1.29 0.44,3.45 -0.87,3.44 -0.43,3.01 -1.73,2.15 -3.47,2.15 -7.36,-0.43 -2.16,1.72 1.29,2.15 0,2.58 -3.03,0.86 -2.16,1.3 2.6,1.72 2.16,3.44 4.76,4.73 9.1,10.33 -1.3,3.87 0,0 -0.87,0 0,0 -2.16,0.43 -3.03,0 -2.17,0.87 -2.16,2.15 -0.44,3.01 -4.33,1.72 -6.93,-2.15 -2.59,0 -2.6,0.86 -1.3,6.89 0.86,4.74 8.67,20.67 -2.17,12.07 0.87,6.46 2.16,2.16 3.47,1.72 3.03,0.44 5.63,0 6.49,1.29 2.6,3.45 3.47,1.29 1.73,1.3 7.36,-0.87 2.16,2.59 3.04,2.59 3.46,4.32 3.46,7.76 4.71,8.22 0,0 -12.89,0 0,0 -65.73,0 0,0 -38.61,0.02 -0.24,-0.76 -0.66,-0.66 -0.09,-0.74 -0.53,-0.56 -0.01,-1.18 -0.27,-0.62 -1.03,-0.95 -0.39,-0.92 -0.79,-0.33 -0.27,-0.63 -0.72,-0.35 -0.62,-1.62 -0.66,-0.43 -0.35,-1.68 0.61,-1.59 0.84,-0.5 0.22,-0.44 0.5,0.02 0.16,-0.89 0.42,-0.7 2.1,-1.86 -0.02,-0.72 -1.16,-1.7 0.64,-0.91 0.06,-1.2 0.66,-1.11 0,-0.59 -0.44,-0.87 0.04,-1.21 0.35,-0.89 -0.83,-0.72 0.02,-0.37 0.48,-0.39 -0.78,-0.76 -0.09,-1.6 -0.79,-0.52 -0.52,0.37 -0.45,-0.13 -0.79,-0.99 0.13,-1.17 -0.9,-0.87 -0.55,-0.11 0.04,-0.97 -0.74,0.18 -1.06,-1.59 0.07,-0.28 0.4,-0.07 -0.03,-0.33 -0.54,-0.33 -0.97,0.14 0.19,-0.7 -1.05,-0.45 0.09,-0.38 -0.26,-0.56 0.97,-0.99 -0.08,-0.48 1.24,-1.2 -0.11,-0.54 0.19,-0.67 -0.54,-0.33 -0.09,-1.33 -0.4,-0.46 0.11,-0.76 -0.24,-0.42 0.71,-0.09 0.5,-0.58 -0.02,-0.4 -0.78,-0.99 0.03,-0.52 0.51,-0.37 0.99,-0.08 0.35,-1.18 0.46,-0.22 0.43,-1.07 1.35,-0.48 -0.03,-1.35 0.22,-0.66 -0.42,-0.24 -0.04,-0.34 0.51,-0.38 1.38,-0.08 0.16,-0.29 -0.16,-0.71 0.42,-0.46 0.02,-0.53 0.86,-0.46 0.13,-0.91 0.59,-0.72 -0.44,-0.63 0.35,-0.77 -0.48,-0.39 -0.05,-0.35 0.29,-0.15 0.53,0.34 0.26,-0.39 -0.7,-1.04 -0.05,-0.59 1.59,-2.99 0.59,-2.26 1.14,-2.16 -0.11,-0.94 -0.71,-1.73 -0.01,-1.46 -0.39,-1.4 0.48,-1.71 0.39,-3.37 -9.57,0.73 -1.93,-0.03 -1.45,-0.43 -2.82,-6.03 -2.54,-3.22 -1.63,-2.55 -0.63,-2.19 -0.33,-2.46 0,0 1.93,0.24 5.88,-0.02 3.65,0.42 3.75,-0.68 2.72,-0.15 0.4,0.95 1.16,0.59 0.46,0.66 -0.01,0.76 -0.55,1.22 0.08,0.57 0.42,0.48 0.88,-0.11 1.78,0.52 1.91,0.03 1.93,-0.24 1.14,-0.37 0.73,-0.51 4.8,-5.39 2.27,-1.65 1.53,-0.33 2.31,1.02 0.87,0.12 1.74,-0.76 1.87,0.12 0.81,-1.48 0.13,-3.29 0.6,-2.49 0,-1.68 -0.36,-2.07 0.23,-1.09 0.04,-2.86 1.09,1.09 0.38,0.74 0.99,0.57 -0.05,0.61 2.09,0.22 0.55,-0.4 0.16,-0.8 0.52,-0.57 -0.49,-1.07 0.05,-0.39 1.49,-0.72 0.22,-1.44 -0.26,-0.77 0.09,-0.52 0.48,-0.39 1.25,-0.31 0.09,-0.34 -0.28,-0.6 0.58,-1.28 -0.04,-1.33 0.99,-0.81 -0.73,-0.59 -0.22,-0.74 0.25,-2.44 0.53,-1.66 2.74,-1 0.83,-0.63 0.51,-0.73 0.11,-1.26 -0.94,-6.08 0.08,-1.18 0.83,-1.18 3.26,-2.75 0.37,-0.84 -0.34,-1.16 -0.91,-1.09 -3.49,-2.29 -1.73,-1.97 -3.83,-3.1 1.67,-1.9 0.46,-0.24 0.55,-0.06 0.49,0.42 0.37,0.02 0.26,0.61 0.85,0.23 1.17,0.97 0.48,0.85 0.55,-0.09 0.42,0.26 0.77,1.83 0.5,-0.1 0.31,0.59 0.81,0.72 1.17,0.37 0.5,1.46 0.92,0.83 3.28,-0.18 1.38,-0.8 0.83,-0.92 2.49,-0.35 2.15,-1.51 1.49,0.2 0.37,-0.5 -0.39,-0.94 0.42,-0.46 1.42,0.98 0.77,-0.16 1.23,0.99 1.58,0.15 0.64,0.69 1.14,0.58 0.42,0.5 -0.12,0.67 0.33,0.55 1.32,0.85 0.6,0.97 1.51,0.65 3.45,0.37 1.01,0.3 0.68,0.44 0.61,0.9 0.47,0.19 1.19,0.02 1.29,-0.67 0.76,-0.09 0.58,0.31 0.7,1.04 2.57,-0.06 3.89,1.52 1.51,-0.43 0,0 z"
     title="Maniema"
     id="CD-MA" />
  <path
     d="m 497.06328,237.34826 1.3,-3.87 -9.1,-10.33 -4.76,-4.73 -2.16,-3.44 -2.6,-1.72 2.16,-1.3 3.03,-0.86 0,-2.58 -1.29,-2.15 2.16,-1.72 7.36,0.43 3.47,-2.15 1.73,-2.15 0.43,-3.01 0.87,-3.44 -0.44,-3.45 -0.39,-1.29 0,0 0.46,-0.34 0,0 3.04,-2.9 1.9,-3.53 0.82,-0.66 2.83,-1.05 1.19,-0.72 0.74,-1.13 0.53,-2.38 -0.38,-0.77 -0.72,-4.75 0.51,-2.86 0.96,-0.56 0.29,-1 -0.29,-0.6 -0.51,-0.38 0.09,-1.03 -1.07,-0.44 -0.62,-0.72 -0.54,-1.86 0.11,-1.69 -0.11,-0.33 -0.49,-0.18 0.27,-1.31 -0.57,-0.28 -0.24,-0.85 -0.51,-0.1 -0.22,-0.45 -1.1,0.2 -1.51,-0.66 -0.36,0.31 -0.35,-0.26 -0.5,0.37 -1.18,-0.33 -1.68,-1.17 -1.6,-0.57 -0.11,-0.71 0.24,-0.21 1.14,-0.37 1.23,0.16 2.46,-0.49 0.83,-0.52 1.37,-1.56 3.23,-1.25 9.22,-1.26 1.27,0.41 2.57,2.84 1.17,0.98 0.9,0.5 1.15,0.26 4.91,-1.25 2.94,-0.28 3.64,0.22 2.64,0.42 1.32,-0.31 1.47,-1.25 1.64,-0.8 1.92,0.19 1.64,1.12 1.47,-0.48 2.53,1.4 0.77,0.01 1.18,-0.52 1.18,-1.13 -0.41,-0.79 -2.77,-0.95 -0.79,-1.07 0.18,-1.2 1.2,-2.01 0.82,-0.11 2.65,1.24 1.7,0.18 0.57,-0.68 -0.24,-0.69 0.35,-0.73 1.76,0.09 1.18,-0.24 0.84,0.3 0.76,-0.06 0.75,-0.55 0.99,-1.22 2.19,-0.95 0.35,0.01 0.82,1.73 0.62,0.74 2.62,1.29 0,0 -0.1,0.15 -0.47,0.8 -0.25,1.08 0.43,1.15 -0.28,0.92 -0.16,1.09 -0.22,1.23 0.56,1.36 -0.09,1.04 0.31,1.55 -3.43,4.2 -1.56,6.78 -0.27,0.29 -0.83,-0.21 -0.64,0.2 -1.09,1.24 -0.01,1.13 -0.57,0.49 -0.05,1.23 0.31,1.23 0.08,1.17 0.07,1.69 -2.52,11.76 0.63,0.36 -0.13,2.21 0.52,0.62 -0.46,0.89 -0.18,1.05 -1.2,2.59 0.17,1.15 -0.18,1.62 0.46,1.18 -0.44,1.03 0.36,1.21 -1.8,0.16 0.17,1.19 -0.04,1.25 -0.09,1.22 0.23,1.05 -0.45,2.41 0.31,0.85 -0.42,0.98 1.13,1.13 -0.49,1.55 0.45,1.49 -0.53,2.27 -0.82,0.27 -1.41,0.82 -0.67,0.89 -1.41,1.71 -2.28,0.02 -0.7,0.39 -1.57,2.54 -1.51,1.4 -0.67,2.1 -1.36,1.48 -1.99,3.11 0,0 -3.87,-0.35 -3.03,-1.29 -0.43,-1.73 -3.46,-0.42 -2.17,3.44 -3.46,3.44 -1.3,2.15 -3.03,0.43 -1.3,-2.15 -1.74,-1.29 -1.73,2.15 -3.03,3.01 -4.33,1.3 -2.6,0 -1.3,-0.43 -1.73,-1.73 -5.2,0 0,0 z"
     title="Nord-Kivu"
     id="CD-NK" />
  <path
     d="m 428.06328,0.58826 0.85,0.05 0.5,0.94 0.82,-0.06 0.05,0.31 -0.02,0.52 0.43,0.15 0.25,-0.33 0.44,-0.03 0.5,0.51 1.11,0.48 0.36,0.96 0.63,0.07 0.3,0.9 1.1,-0.47 -0.43,-0.39 0.72,-0.29 0.26,0.63 0.62,0.23 0.02,0.92 0.49,0.97 0.36,-0.8 0.47,-0.26 0.7,0.04 0.11,0.16 0.37,0.61 0.2,0.94 0.4,-0.31 -0.25,-0.82 0.54,0.11 0.51,-0.31 0.69,0.48 0.09,-1 0.59,-0.53 0.51,0.31 0.26,0.05 0.06,0.64 0.87,0.19 0.5,0.01 0.45,0.25 0.29,-0.61 0.73,0.16 0.04,-0.54 0.51,-0.15 0.55,-0.66 0.08,-0.43 0.78,0.17 -0.02,0.85 0.28,0.1 0.58,-0.4 0.67,0.14 0.34,0.73 0.15,0.23 0.46,-0.05 0.52,0.34 0.21,0.39 -0.19,0.46 1,0.07 0.31,0.27 0.66,0.24 0.84,0.2 0.78,0.13 0.78,-0.15 0.47,0.47 0.54,0.33 0.6,0.28 0.57,0.6 0.09,0.57 0.06,0.6 0.78,0.38 0.68,0.08 0.57,0 0.22,-0.74 0.25,-0.02 0.73,0.13 0.33,0.01 0.02,-0.56 0.46,-0.05 0.22,0.28 0.58,-0.21 0.76,-0.04 0.55,0.17 0.46,-0.04 0.66,-0.32 1.11,-0.4 0.8,-0.11 0.72,0.06 0.45,0.5 0.21,0.43 0.48,0.75 0.42,0.04 0.33,-0.37 1.3,0.82 0.42,-0.38 0.19,-0.89 0.68,-0.21 0.38,-1.02 0.38,-0.3 -0.03,-0.41 3.01,-1.69 1.21,-0.44 1.46,-0.19 1.44,0.23 2.39,1.51 2.77,0.83 0.72,0.5 2.91,1.05 0.47,0.8 -0.17,0.99 0.72,0.18 1.21,1.13 0.58,0.2 0.43,1.55 0.82,0.5 0.5,0.67 2.68,-0.06 0.85,0.73 0.81,1.8 -0.18,0.48 0.32,0.36 1.44,-0.16 0.5,0.62 0.42,1.12 0.03,0.99 -0.48,0.41 -0.01,0.26 0.42,1.78 -0.07,1.01 0.3,0.12 1.25,0.27 0.37,0.37 0.78,0.81 1.99,0.12 0.29,-0.77 1.16,0.4 1.42,0.33 0.71,-0.08 -0.32,2.24 0.28,0.76 0.59,0.24 0.51,1.14 1.06,-0.97 0.77,0.16 0.34,0.49 -0.34,0.85 1.38,0.6 0.83,0.88 1.67,0.2 0.5,-0.39 1.58,0.02 1.05,0.11 0.48,0.8 0.04,1.33 0.37,0.26 1.06,0.09 1.48,-0.43 0.82,-0.81 0.07,-0.7 0.78,-1.16 1.32,-0.3 0.83,0.12 0.8,-1.27 0.78,0.11 1.14,-0.28 1.1,-2.03 -0.25,-0.65 0.68,-0.2 0.23,-0.33 -0.14,-0.38 1.44,-0.23 0.66,-0.6 0.27,0 0.6,0.85 0.03,1.31 0.76,0.54 0.87,-0.1 1.77,-0.02 2.02,0.07 1.09,-0.56 0.8,0.33 0.42,0.84 1.05,0.11 -0.09,0.77 1.8,0.14 -0.01,0.58 1.8,1.49 0.48,0.67 1.31,-0.21 0.24,-0.67 -0.21,-0.66 0.55,-0.21 1.03,0.45 0.83,-0.18 0.54,-0.53 0.63,-1.92 1.62,-0.7 0.94,-1.3 0.05,-1.12 1.04,-1.06 -0.27,-2.37 0.67,-0.16 0.45,-0.57 0.83,1.11 0.93,-0.37 0.65,0.12 0.69,0.46 0.62,-0.41 2.99,1.42 1,1.46 0.94,-0.39 0.5,0.62 1.16,0.15 0.02,0.69 -0.48,1.47 -0.33,1.72 0.09,2.2 1.32,1.01 1.72,-0.3 1.56,1 0.69,1.19 -0.62,1.15 0.12,0.22 1.26,0.26 1.63,1.2 0.36,1.35 0.95,1.08 1.52,-0.02 0.94,0.52 0.09,1.34 1.36,1.52 0.03,1.39 0.66,0.84 1.64,-0.6 0.82,0.81 1.72,0.51 1.09,0.2 1.85,0.78 0.9,0.79 0.65,0.08 0.88,-0.39 0.83,0.03 0.23,0.31 -0.03,1.18 0.54,1.57 0.49,2.94 -0.32,1.24 -0.59,1.11 0.07,0.33 1.07,0.06 2.42,-1.35 1.65,0.51 0.5,-0.12 0.66,-1.34 0.52,-0.27 0.4,0.58 0.06,1.15 0.43,0.96 2.01,0.87 -0.51,1.75 0.24,0.7 0.29,0.18 0.51,-0.11 0.46,-0.58 1.41,-0.22 0.2,1.29 -0.26,0.78 0.09,1.27 -0.63,1 -0.98,1.01 0.16,0.85 -0.7,1.08 -1.04,0.55 0.09,0.77 -0.36,1.12 -0.89,2.19 -0.24,2.11 -0.85,0.55 0.41,0.93 0.69,0.51 0.74,0.58 1.04,0.86 0.29,1.26 0.24,0.99 0.41,0.33 0.09,0.71 -0.19,1.41 -0.8,1.29 -0.7,0.21 -0.46,0.55 0.12,0.66 -0.51,1.09 -0.77,1.58 0.13,0.33 -0.41,1 -0.89,0.55 0.37,2.43 -0.1,0.39 -0.39,0.21 -0.18,1.31 0.35,0.97 0.84,-0.61 0.89,0.44 0.86,0.25 0.51,1.05 0.78,0.49 0.29,0.89 0.94,0.29 0.66,-0.1 0.32,-0.28 0.24,-0.59 -0.24,-0.39 0.4,-0.82 1.14,-0.19 0.57,0.17 0.6,0.44 1.49,1.3 -0.11,0.41 0.5,0.71 -0.51,0.18 1.79,1.24 0.25,0.03 0.27,-0.57 0.73,0.17 1.25,-0.51 0,2.33 1.45,0.68 1.84,1.36 0,1.29 -3.4,4.76 -2.96,3.65 -2.54,3.28 -8.91,7.07 -6.41,8.32 -0.96,0 -1.42,1.71 -0.73,0.34 -1.04,0.28 -0.97,0.08 -0.96,-0.47 -0.6,0.81 -0.18,0.83 -0.75,-0.06 -0.12,-0.47 -0.51,-0.17 -0.6,0.2 -0.42,0.66 -0.81,0.44 0.14,1.1 -0.38,0.39 -0.01,0.92 -0.27,1.3 -0.59,1.23 -0.42,0.9 -0.57,0.75 -0.47,1.27 -0.96,-0.06 -0.99,0.13 -1.37,0.5 -0.93,0.1 -0.56,0.34 -0.58,0.34 0,0 -2.62,-1.29 -0.62,-0.74 -0.82,-1.73 -0.35,-0.01 -2.19,0.95 -0.99,1.22 -0.75,0.55 -0.76,0.06 -0.84,-0.3 -1.18,0.24 -1.76,-0.09 -0.35,0.73 0.24,0.69 -0.57,0.68 -1.7,-0.18 -2.65,-1.24 -0.82,0.11 -1.2,2.01 -0.18,1.2 0.79,1.07 2.77,0.95 0.41,0.79 -1.18,1.13 -1.18,0.52 -0.77,-0.01 -2.53,-1.4 -1.47,0.48 -1.64,-1.12 -1.92,-0.19 -1.64,0.8 -1.47,1.25 -1.32,0.31 -2.64,-0.42 -3.64,-0.22 -2.94,0.28 -4.91,1.25 -1.15,-0.26 -0.9,-0.5 -1.17,-0.98 -2.57,-2.84 -1.27,-0.41 -9.22,1.26 -3.23,1.25 -1.37,1.56 -0.83,0.52 -2.46,0.49 -1.23,-0.16 -1.14,0.37 -0.24,0.21 0.11,0.71 1.6,0.57 1.68,1.17 1.18,0.33 0.5,-0.37 0.35,0.26 0.36,-0.31 1.51,0.66 1.1,-0.2 0.22,0.45 0.51,0.1 0.24,0.85 0.57,0.28 -0.27,1.31 0.49,0.18 0.11,0.33 -0.11,1.69 0.54,1.86 0.62,0.72 1.07,0.44 -0.09,1.03 0.51,0.38 0.29,0.6 -0.29,1 -0.96,0.56 -0.51,2.86 0.72,4.75 0.38,0.77 -0.53,2.38 -0.74,1.13 -1.19,0.72 -2.83,1.05 -0.82,0.66 -1.9,3.53 -3.04,2.9 0,0 -0.48,0.35 0,0 -1.51,0.43 -3.89,-1.52 -2.57,0.06 -0.7,-1.04 -0.58,-0.31 -0.76,0.09 -1.29,0.67 -1.19,-0.02 -0.47,-0.19 -0.61,-0.9 -0.68,-0.44 -1.01,-0.3 -3.45,-0.37 -1.51,-0.65 -0.6,-0.97 -1.32,-0.85 -0.33,-0.55 0.12,-0.67 -0.42,-0.5 -1.14,-0.58 -0.64,-0.69 -1.58,-0.15 -1.23,-0.99 -0.77,0.16 -1.42,-0.98 -0.42,0.46 0.39,0.94 -0.37,0.5 -1.49,-0.2 -2.15,1.51 -2.49,0.35 -0.83,0.92 -1.38,0.8 -3.28,0.18 -0.92,-0.83 -0.5,-1.46 -1.17,-0.37 -0.81,-0.72 -0.31,-0.59 -0.5,0.1 -0.77,-1.83 -0.42,-0.26 -0.55,0.09 -0.48,-0.85 -1.17,-0.97 -0.85,-0.23 -0.26,-0.61 -0.37,-0.02 -0.49,-0.42 -0.55,0.06 -0.46,0.24 -1.67,1.9 3.83,3.1 1.73,1.97 3.49,2.29 0.91,1.09 0.34,1.16 -0.37,0.84 -3.26,2.75 -0.83,1.18 -0.08,1.18 0.94,6.08 -0.11,1.26 -0.51,0.73 -0.83,0.63 -2.74,1 -0.53,1.66 -0.25,2.44 0.22,0.74 0.73,0.59 -0.99,0.81 0.04,1.33 -0.58,1.28 0.28,0.6 -0.09,0.34 -1.25,0.31 -0.48,0.39 -0.09,0.52 0.26,0.77 -0.22,1.44 -1.49,0.72 -0.05,0.39 0.49,1.07 -0.52,0.57 -0.16,0.8 -0.55,0.4 -2.09,-0.22 0.05,-0.61 -0.99,-0.57 -0.38,-0.74 -1.09,-1.09 -0.04,2.86 -0.23,1.09 0.36,2.07 0,1.68 -0.6,2.49 -0.13,3.29 -0.81,1.48 -1.87,-0.12 -1.74,0.76 -0.87,-0.12 -2.31,-1.02 -1.53,0.33 -2.27,1.65 -4.8,5.39 -0.73,0.51 -1.14,0.37 -1.93,0.24 -1.91,-0.03 -1.78,-0.52 -0.88,0.11 -0.42,-0.48 -0.08,-0.57 0.55,-1.22 0.01,-0.76 -0.46,-0.66 -1.16,-0.59 -0.4,-0.95 -2.72,0.15 -3.75,0.68 -3.65,-0.42 -5.88,0.02 -1.93,-0.24 0,0 -0.97,-4.93 0,0 -0.55,-4.36 -0.88,-3.45 -1.34,-2.29 -0.96,-2.35 -0.75,-0.37 -4.08,0.28 -1.52,-0.18 -1.51,-0.54 -3.52,-1.94 -1.54,-1.16 -2.08,-2.16 -2.02,-0.74 -0.53,-1.09 -0.22,-1.16 -0.63,-0.8 -2.05,-1.26 -4.46,-2.16 -3.2,-2.89 -2.26,-2.48 0.1,-0.35 4.05,-3.1 1.55,-0.63 2.16,-0.46 0.74,-0.53 0.15,-0.39 -2.16,-1.76 -2.72,-4.26 -0.64,-0.32 -0.73,0.08 -3.62,1.4 -1.67,0.39 -0.83,-0.3 -0.48,-1.59 -0.33,-0.35 -7.95,-0.62 3.91,-3.18 1.57,-0.92 0.83,0.06 2.76,1.04 1.31,0.19 1.28,-1.35 1.94,-0.34 0.51,-0.45 -0.06,-1.32 -3.89,-5.46 -1.3,-2.31 -3.49,-3.86 -1.75,-3.88 -1.98,-1.88 -1.55,-2.4 -0.87,-2.07 -0.35,-1.77 0.02,-1.17 -0.67,-1.18 -1.35,-1.48 -0.63,-1.34 0.18,-3.36 -1.36,-3.01 0.3,-0.52 -0.44,-0.8 0.22,-1.1 -0.11,-0.76 -1.23,-1.62 -0.09,-0.95 -0.13,-0.31 -0.45,-0.2 -0.87,-2.39 -0.96,-1.46 -0.79,-0.75 -0.2,-1.05 -0.52,-0.56 -0.05,-0.96 -0.82,-1.38 -0.85,-0.21 -0.48,-0.83 -0.57,-0.28 -0.7,-0.85 -1.74,-1.12 -1.21,-0.24 -0.54,-0.55 -1.83,-0.22 -0.4,-0.25 -0.63,0.21 -0.66,-0.21 -1.21,0.04 0.79,-1.72 0.75,-0.72 2.7,-1.71 1.73,-1.92 0.47,-1.23 0.94,-5.85 2.3,-4.21 -0.57,-1.57 0.05,-0.4 0.37,-0.32 0.79,0 1.65,0.59 1.27,2.16 0.97,0.13 0.88,0.63 1.73,-0.67 0.84,0.04 0.35,-0.5 0.4,0 0.11,-0.53 0.74,-0.31 -0.02,-0.8 1.01,0 0.61,-0.67 -0.09,-0.97 1.23,-0.34 0.09,-0.79 0.38,0.06 2.17,2.36 1.12,0.46 0.51,-0.07 3.02,-1.63 4.6,-3.32 5.66,0.96 2.7,1.14 1.11,0.1 0.38,-0.33 -0.35,-3.16 -0.42,-1.24 -2.74,-2 -3.82,-1.86 -2.03,-2.29 -0.85,-0.35 -0.79,-0.02 -5.81,1.05 -1.59,-0.61 -1.25,-1.16 -2.06,-2.42 -0.45,-1.22 1.41,-2.71 -0.15,-1.17 -0.52,-1.23 0.06,-0.8 1.3,-2.22 0.12,-1.58 1.48,-3.2 0.3,-1.42 -0.09,-0.81 -1,-0.8 -1.59,0.34 -1.51,1.22 -2.87,3.55 -0.8,0.58 -0.79,-0.07 -0.7,-0.58 -0.42,-1.58 0.03,-1.64 0.63,-3.22 -0.13,-1.37 -0.64,-0.7 -0.75,-0.39 -3.09,-0.75 -0.96,-1 -0.09,-1.29 1.4,-1.87 1.93,-0.77 4.33,-1.15 2.11,-1.29 0.83,0.35 1.24,0.09 1.42,-0.42 1.18,-1.03 2,-2.35 1.1,-0.78 1.17,0.37 0.7,0.78 2.28,0.04 1.43,1.05 0.78,-0.26 0.78,-0.64 1.51,-2.06 1.47,-1.21 0.52,-1.09 0.38,-1.7 -1.36,0.33 -0.9,-0.42 -0.48,0.09 -0.97,-0.3 -0.77,0.74 -0.52,0.09 -2.99,-0.92 -0.96,-0.72 -0.56,-0.11 -0.52,-0.57 -0.95,0.03 -0.81,-0.48 -0.81,0.28 -1.2,0 -0.89,0.65 -0.67,0.2 -0.73,-0.54 -0.71,-0.18 -0.83,0.48 -0.82,0.04 -1.42,0.55 -1.34,-0.35 -2.8,-1.41 -0.23,-2.76 -1.42,0.12 -0.87,-0.33 -4.04,-3.3 -3.14,-1.11 0,0 2.8,-2.53 0.05,-0.73 -0.34,-0.52 0.02,-0.44 0.87,-1.73 1.61,-0.89 0.02,-0.87 -0.96,-0.37 -0.14,-0.34 0.39,-0.78 0.04,-1.51 0.9,-0.41 1.14,0.13 0.56,0.6 0.6,-0.32 0.26,-0.63 -0.02,-0.77 0.87,-1.29 0.19,-2.2 0.73,-0.83 0.68,-1.71 0.82,-0.66 0.62,0.12 0.55,0.62 0.65,-0.19 0.29,-0.97 0.89,-0.6 -0.48,-0.88 0.24,-0.72 0.37,-0.34 1.11,0.07 0.83,-0.71 0.53,0.46 0.93,2.24 0.69,0.13 1.46,1.08 1.07,0.24 1.86,-0.97 0.77,0.58 0.41,0.89 0.96,0.76 0.79,0.15 0.56,1.22 0.47,-0.06 1.16,0.8 0.93,-0.18 0.72,0.61 1.23,0 0.26,-0.39 -0.13,-0.99 0.19,-0.58 1.08,-0.74 1.15,0 1.62,-0.96 0.99,-0.94 1.21,-0.25 2.86,-1.33 1.97,0.09 2.01,-1.59 0.57,0.59 1.32,-0.7 0.48,0.13 0.28,0.37 1.08,0.24 0.18,-0.41 -0.15,-1.42 0.3,-0.33 0.22,0.02 0.3,0.65 2.01,-0.67 1.64,-1.06 0.66,-0.03 0.83,0.58 0.76,-0.06 0.98,-1.14 1.45,-0.92 0.55,0.25 -0.03,0.54 0.75,-0.07 0.25,-0.41 -0.35,-0.7 0.07,-0.3 0.75,-0.7 2.47,-0.17 1.13,-0.73 -0.05,-0.43 -0.35,-0.28 -0.79,0.26 -0.35,-0.12 -0.15,-0.35 0.12,-0.28 0.44,-0.11 0.21,-0.78 0.45,-0.51 0.35,0.04 0.87,1.67 0.43,-0.17 -0.27,-1.05 0.48,-0.21 2.57,0.74 0.45,1.01 0.55,0.41 1.54,0.18 0.62,1.77 1.31,0.18 -0.01,0.62 -0.49,0.98 2.01,-0.14 0.44,0.56 0.81,-0.08 0.64,0.02 0.38,0.04 1,-1.03 1.78,0.05 0.39,-0.77 1.38,0.02 0.63,-0.81 1.49,-0.43 4.37,0 0.57,-0.91 0.31,0.05 0.52,0.7 0.36,0.04 0.34,-0.44 0.95,0.1 0.52,-0.33 2.25,-0.37 0.41,-0.5 -0.04,-0.96 0.7,-1.03 0.13,-1.12 -0.74,-0.23 -0.33,-1.24 0.45,-0.49 0.26,-1.6 0.42,-0.82 0.56,-0.03 0.31,-0.41 -0.09,-0.26 -0.38,0.1 -0.06,-0.34 0.87,-0.21 0.64,0.04 0.46,0.01 0.99,-0.91 0.52,0.04 0.34,-0.58 0.33,0.06 0.45,0.65 1.16,-0.35 -0.34,-0.9 0.29,-0.1 z"
     title="Orientale"
     id="CD-OR" />
  <path
     d="m 542.93328,230.81826 -0.43,1.09 0.1,1.35 1.5,5.44 -0.25,1.66 -2.59,4.21 -0.91,0.37 -1.6,-0.04 -1.61,2.68 -1.39,-0.08 -0.75,0.29 -0.7,1.21 -0.12,0.72 0.2,0.75 0.57,0.56 -1.09,1.5 1.22,1.33 0.26,2.09 -0.23,0.84 2.19,1.29 1.09,0.16 0.58,0.47 0.55,1.11 -1.02,0.79 0.14,1.05 0.79,0.33 0.62,-0.22 0.6,0.94 0.77,0.85 -0.13,0.8 0.26,0.62 1.01,0.3 1.26,0.94 0,1.17 1.13,0.85 1.06,0.08 0.58,0.85 0.16,0.5 0.05,1.5 -0.45,0.27 -0.58,1.13 -0.2,1.24 0.11,1.13 0.45,1.14 -1.02,0.68 -0.23,0.59 0.11,1.7 0.91,4.02 0.28,2.32 0.13,2.59 -0.44,4.73 0.41,2.71 0.63,2.15 0.65,0.97 1.37,1.24 0.66,0.94 0.64,1.87 0.36,2.42 0.49,10.52 -0.25,1.13 -1.63,3.53 -0.27,1.52 0.32,4.94 1.09,4.69 0,0 -16.97,-0.01 0,0 -3.89,0 0,0 -4.71,-8.22 -3.46,-7.76 -3.46,-4.32 -3.04,-2.59 -2.16,-2.59 -7.36,0.87 -1.73,-1.3 -3.47,-1.29 -2.6,-3.45 -6.49,-1.29 -5.63,0 -3.03,-0.44 -3.47,-1.72 -2.16,-2.16 -0.87,-6.46 2.17,-12.07 -8.67,-20.67 -0.86,-4.74 1.3,-6.89 2.6,-0.86 2.59,0 6.93,2.15 4.33,-1.72 0.44,-3.01 2.16,-2.15 2.17,-0.87 3.03,0 2.16,-0.43 0,0 3.03,0 0,0 5.2,0 1.73,1.73 1.3,0.43 2.6,0 4.33,-1.3 3.03,-3.01 1.73,-2.15 1.74,1.29 1.3,2.15 3.03,-0.43 1.3,-2.15 3.46,-3.44 2.17,-3.44 3.46,0.42 0.43,1.73 3.03,1.29 z"
     title="Sud-Kivu"
     id="CD-SK" />
</svg>
