<?xml version="1.0" encoding="UTF-8" standalone="no"?>
<!-- Created for MapSVG plugin: http://mapsvg.com -->
<svg
   xmlns:mapsvg="http://mapsvg.com"
   xmlns:dc="http://purl.org/dc/elements/1.1/"
   xmlns:rdf="http://www.w3.org/1999/02/22-rdf-syntax-ns#"
   xmlns:svg="http://www.w3.org/2000/svg"
   xmlns="http://www.w3.org/2000/svg"
   mapsvg:geoViewBox="-84.951889 23.276752 -74.132223 19.825899"
   width="774.25848"
   height="264.93973">
 
  <path
     d="m 233.86335,8.7083 0,0 -0.1,0.63 -0.72,0.95 0.91,4.08 0.13,0.99 0.02,0.54 -0.11,0.03 -0.19,-0.07 -0.69,-0.41 -0.37,0.01 -0.37,0.21 -0.5,0.71 -0.14,0.39 0.04,0.29 0.61,0.5 0.32,0.42 0.02,0.22 -0.18,0.23 -0.28,0.12 -0.66,0.93 -1.45,1 -0.4,0.35 -0.04,0.06 -0.08,0.16 -0.12,0.28 -0.18,0.6 0.12,0.25 0.25,0.14 0.79,0.1 0.52,0.2 0.52,0.41 0.56,0.52 1.17,1.52 0.83,1.23 0.06,0.24 0.05,0.53 -0.07,0.32 -0.18,2.22 -0.92,2.9 1.17,2.1 1.1,1.04 0.92,0.66 0.3,0.43 0,0.48 -0.78,1.96 -0.03,1.19 0.42,0.73 2.7,1.67 1.17,1.04 0.13,1.16 -0.55,3.92 -0.14,0.54 -0.23,0.57 -0.41,0.68 -0.61,0.8 -0.92,1.49 -0.24,0.23 -0.31,0.23 -0.24,0.11 -0.06,0.05 -0.08,0.13 -0.11,0.16 -0.5,-0.17 -1.07,-0.03 -1.96,-1.7 -1.34,-1.09 -2.47,-1.89 -2.51,-0.93 -6.37,-2.3 -2.5,0.09 -5.73,0.53 -7.6,1.3 -2.3,-1 -4.86,-1.39 -5.43,0.01 -3.03,0.36 -1.56,0.18 -1.49,-0.17 -2.27,-0.59 0.26,-1.64 -0.24,-0.98 -0.94,-0.59 -0.9,-0.53 -1.46,-2.06 -1.46,-3.01 0,-2.86 0.58,-2.53 0.88,-1.91 0,-2.06 0.1,-2.69 1.16,-0.47 0.55,-0.17 0.5,0.33 0.77,0.95 0.4,0.09 0.49,-0.21 0.94,-0.84 0.28,-0.55 0.64,-0.64 2.81,0.26 1.84,-0.12 0.75,0.34 0.71,0.09 0.85,0 0.63,-0.25 0.43,-0.6 0.54,-1 2.44,-2.72 0.06,-0.28 -0.1,-0.37 -0.6,-1.25 -0.11,-0.68 0.03,-0.5 0.17,-0.65 0.05,-0.39 -0.01,-0.38 -0.11,-0.3 -0.05,-0.22 0.08,-0.11 0.41,-0.03 0.4,0.43 0.51,0.73 0.24,0.04 0.41,-0.28 0.47,-0.44 0.36,-0.97 0.08,-0.42 0.12,-0.25 0.25,-0.24 0.3,-0.1 0.63,0.32 0.42,0.3 2.51,2.97 0.69,-1.27 0.09,-1.32 0.09,-0.35 0.17,-0.22 0.39,-0.33 0.07,-0.33 -0.2,-0.7 -0.03,-0.44 0.17,-0.27 0.68,-0.04 0.37,-0.31 -1.21,-1.52 -0.4,-0.69 0.13,-0.78 -0.23,-0.76 0,0 0.84,-0.22 1.67,-0.17 0.72,-0.17 0.78,-0.3 0.77,-0.14 0.7,0.35 2.69,1.91 2.12,0.61 4.59,0.45 2.12,0.53 1.6,-0.53 11.17,0.07 z"
     title="Mayabeque"
     id="CU-16" />
  <path
     d="m 385.07335,36.1183 0,0 3.72,4.23 1.55,1.28 3.29,1.02 2.68,2.22 2.92,1.14 1.44,1.5 1.17,1.75 0.62,1.41 -1.62,-1.46 -0.57,-0.18 -0.63,-0.13 -0.66,-0.3 -0.96,-0.63 -1.06,-0.95 -2.4,-2.7 -1.29,0.47 -1.32,-0.15 -1.22,-0.6 -1.63,-1.27 -0.46,-0.18 -0.28,-0.33 -0.11,-0.89 -0.24,-0.3 -1.14,-0.86 -0.35,-0.18 -0.59,-0.5 -0.37,-1.09 -0.62,-1.09 -1.35,-0.5 -2.12,0.9 -0.95,-0.06 -0.12,-1.42 2.03,-0.62 1.46,-0.08 1.18,0.55 z m -7.88,-4.29 0,0 0.99,0.57 0.39,0.54 -0.64,0.69 -1.11,0.2 -0.5,-0.51 0,-0.54 -0.21,-0.26 -0.28,-0.15 -0.39,0.05 -0.5,-0.13 -1.38,-0.98 -0.64,-0.75 0.08,-0.78 0.9,-0.25 -0.15,-0.49 0.05,-0.67 0.38,-0.25 0.48,0.86 -0.2,1.25 0.5,0.17 1.38,0.3 0.44,0.67 0.41,0.46 z m -16.51,-8.31 0,0 1.11,0.56 0.59,-0.04 -0.05,1.04 -0.76,0.75 -1.53,-0.98 -0.68,0.22 -0.74,1.06 -0.71,0.34 -0.55,-1.91 1.03,-0.63 1.12,-0.4 1.17,-0.01 z m 5.44,4.24 0,0 -0.83,0.11 -0.82,-0.51 -0.47,-0.7 0.22,-0.46 0.44,-0.37 0.17,-0.39 -0.64,-0.1 -0.66,-0.37 0.72,-1.15 1.61,-0.43 0.88,0.27 0.56,0.8 0.1,0.55 -0.44,0.37 -0.85,0.27 -0.51,0.56 0.32,0.44 0.62,0.11 0.12,0.43 -0.54,0.57 z m -29.81,-5.8 0,0 0.65,0.3 0.46,0.46 0.26,0.6 0.05,0.76 -7.21,-1.25 -1.09,-0.87 0.44,-0.35 0.42,-0.18 0.49,0.08 0.6,0.45 3.48,-1.73 1.59,-0.17 1.28,0.84 -0.37,0.22 -0.7,0.61 -0.35,0.23 z m -14.55,1.12 0,0 0.74,0.91 0.94,0.81 1.3,0.34 4.04,-0.01 0.89,0.28 1.08,0.95 1.15,0.66 1.19,0.44 1.22,0.28 2.35,0.08 2.22,-0.47 4.27,-1.68 -0.54,-1.85 1.2,-0.04 3.8,1.9 1.69,0.53 1.43,-0.27 0.27,-1.86 0.77,0.42 0.78,0.55 0.61,0.67 0.24,0.75 1.62,2.94 0.16,0.5 2.71,1.59 0.39,0.07 1.27,-0.07 0.49,0.18 0.21,0.38 0.04,0.38 -0.01,0.17 1.49,-0.45 2.33,-2.22 4.39,-1.24 0.63,0.15 0,0.59 -0.67,0.62 -1.33,0.91 -1.64,-0.79 -0.8,0.63 -0.93,2.82 0.78,1.2 0.45,0.52 0.68,0.44 0.76,0.21 2.94,0.27 1.27,0.43 4.2,3.01 0.23,0.37 0.27,0.34 0.43,0.14 0.39,-0.18 0.43,-0.38 0.32,-0.38 0.08,-0.17 1.63,-0.21 0.61,0.4 1.77,7.85 0.04,0.05 1.07,0.35 0.87,0.45 0.77,0.62 0.81,0.89 0.82,1.23 0.98,2.4 0.66,1.13 1.82,2.05 0.4,0.35 1.07,0.21 2.06,0.04 0.83,0.23 1.9,2.96 0.37,0.89 0.57,0.48 -0.04,0.08 0.03,1.78 -1.32,2.48 0.83,0.65 0.6,0.97 2.4,4.82 2.03,2.81 0.05,0.57 -0.28,0.96 -0.18,0.93 0.08,1.23 -0.22,1.39 -1.84,-0.3 -1.78,-0.94 -0.7,-0.16 -0.88,0.06 -1.26,0.47 -0.85,0.45 -1.28,1.32 -0.39,1.39 -0.37,0.97 -0.53,1.08 -0.61,0.82 -0.64,0.59 -0.8,0.34 -1.01,0.13 -1.01,-0.42 -0.62,-0.42 -0.97,-0.44 -1.46,0.47 -2.93,-0.89 -0.66,-0.05 -0.95,0.1 -1.02,0.7 -0.52,0.28 -0.62,0.04 -0.74,-0.19 -0.75,-0.66 -0.36,-0.53 -0.26,-0.5 -0.83,-0.69 -2.37,-0.06 -0.78,0.7 -0.15,0.53 0.03,0.8 0.46,1.33 1.04,2.05 0.32,0.87 0.26,0.5 0.22,0.23 0.31,0.07 0.36,-0.04 0.42,0.02 0.32,0.16 0.27,0.42 -0.06,1.01 -0.38,1.42 -1.18,2.38 -1.41,2.32 -1.77,1.52 -2.13,-0.16 -1.02,-0.54 -0.35,-0.27 -0.52,-0.22 -4.15,-1 -0.68,0.09 -0.73,0.31 -0.71,0.91 -0.27,0.61 -0.15,0.65 -0.2,0.4 -0.36,0.23 -1.06,-0.09 -0.49,0.14 -1.33,1.09 -2.54,1.19 0.06,-1.05 -0.11,-0.16 -1.45,-1.11 -0.24,-0.67 -0.11,-0.73 0.05,-1.16 -0.12,-2.05 -0.18,-0.63 -0.38,-0.53 -1.34,-1.12 -0.48,-0.95 -0.37,-1.05 -0.75,-3.06 -0.05,-0.65 0.05,-1.52 -0.27,-2.99 0.08,-0.7 0.28,-0.64 0.26,-0.45 0.78,-2.49 -1.8,-0.83 -0.88,-1.16 -0.62,-1.15 -0.4,-0.88 -0.19,-0.7 -0.23,-1.73 -0.12,-0.28 -0.17,-0.14 -0.3,-0.07 -0.37,0.04 -1.07,0.33 -0.51,0.04 -0.51,-0.1 -0.88,-0.46 -2.6,-2.55 -0.44,-0.61 -0.25,-0.5 -0.03,-0.83 1.36,-1.49 0.23,-1.02 -0.2,-0.33 -0.27,-0.3 -0.51,-0.27 -0.29,-0.56 -0.04,-0.44 0.12,-0.56 0.28,-0.67 -0.22,-0.79 -1.36,-0.77 -0.25,-0.4 -0.8,-1.87 -0.08,-0.68 0.02,-0.4 0.22,-0.19 0.23,-0.11 0.28,-0.08 0.21,-0.11 0.17,-0.38 0.11,-0.65 0,-1.37 -0.1,-0.51 -0.15,-0.23 -0.19,0.15 -0.33,0.38 -0.21,0.14 -0.43,0.08 -0.46,0 -1,-0.09 -0.42,0.01 -0.25,0.1 -0.24,0.29 -0.26,0.51 -0.54,1.72 -0.14,0.21 -0.23,0.13 -0.39,0.02 -0.55,-0.02 -0.39,0.03 -0.33,0.13 -0.8,0.53 -0.46,0.23 -0.81,0.28 -0.39,0.01 -0.32,-0.1 -0.11,-0.18 -0.05,-0.21 0.06,-0.34 0.35,-1.03 0.14,-0.73 0.04,-1.12 -0.34,-0.42 -0.6,-0.12 -1.77,0.35 -1.71,-1.42 -0.37,-0.13 -0.6,-0.05 -0.34,0.19 -0.27,0.25 -0.2,0.3 -0.87,1.01 -2.97,1.74 -1.04,-1.79 -0.44,-0.49 -0.32,-0.77 -0.2,-0.78 -0.17,-1.53 -0.35,-0.6 -0.32,-0.37 -0.17,-0.32 -0.07,-0.57 0.37,-3.64 -0.03,-0.67 -0.12,-0.51 -0.33,-0.53 -0.52,-0.55 -0.12,-0.34 0.09,-0.44 0.4,-0.59 0.67,-0.29 0.37,-0.22 0.1,-0.4 -0.19,-0.58 -1.08,-1.86 -0.51,-1.6 -0.31,-0.68 -0.08,-0.26 -0.3,-0.68 -0.2,-0.3 -0.53,-0.23 -0.69,0.01 -1.4,0.54 -1.41,1.04 -0.53,0.23 -1.15,0.08 -1.44,-1.26 -1.2,-0.79 -0.29,-0.27 -0.21,-0.3 -0.21,-0.43 -0.45,-0.65 -0.74,-0.81 -0.24,-0.37 -0.14,-0.36 -0.08,-0.51 -0.14,-0.25 -0.26,-0.19 -0.27,-0.15 -0.12,-0.22 0.09,-0.29 0.51,-0.29 0.36,-0.37 0.39,-0.56 0.18,-1.13 -0.08,-0.63 -0.29,-1.18 -0.04,-0.87 0.05,-0.61 0.2,-0.74 0.24,-0.33 0.38,-0.2 1.78,0.05 0.3,-0.04 1.01,-0.38 0.34,-0.09 0.39,-0.02 0.27,0.05 0.29,0.14 0.62,0.43 0.33,0.07 0.42,-0.04 0.72,-0.23 0.52,-0.42 0.35,-0.61 0.04,-1.3 -0.05,-0.8 0.21,-1.78 1.14,-2.21 0.44,-0.19 0.01,0 2.59,4.72 1.47,1.04 1.14,0.08 2.9,0.56 1.09,0.42 0.68,0.64 z m 27.93,-6.68 0,0 0.23,0.64 0.27,0.57 0.29,1.03 -0.2,0.2 -0.4,-0.59 -0.33,-0.36 -0.3,0.02 -0.47,0.1 -0.58,-0.08 -0.41,-0.35 -0.26,-0.43 0.02,-0.18 0.25,0.05 0.11,-0.42 0.13,-0.93 0.78,-0.19 0.87,0.92 z m -5.57,-1.39 0,0 -1.43,0.67 -1.45,-0.29 -3.02,-1.44 0.16,-0.8 0.38,-0.57 0.47,-0.57 0.45,-0.76 0.54,0 0.45,1 0.78,0.87 0.95,0.6 0.99,0.23 1.15,0.04 0.38,0.16 -0.2,0.32 -0.6,0.54 z m -7.31,-0.73 0,0 -0.41,0.03 -0.48,-0.34 -0.34,-0.54 -0.29,-0.59 -0.56,-0.19 -1.06,-0.61 -0.32,-0.14 -0.12,-0.35 -0.13,-0.17 -0.46,-0.3 -0.2,-0.63 0.7,-0.46 0.53,-0.1 0.53,-0.05 0.62,0.18 -0.01,0.44 0.51,0.54 1.04,0.95 0.45,0.6 0.18,0.25 0.28,0.52 -0.09,0.52 -0.37,0.44 z m -9.54,-4.85 0,0 -0.58,0.14 -0.56,-0.05 -1.84,0.24 -0.69,0.56 -1.08,0.47 -0.98,0.26 -0.12,-0.14 -0.17,-0.51 0.27,-0.16 0.64,0.08 -0.12,-0.69 0.36,-0.43 1.02,-0.15 0.53,-0.02 1.64,-0.14 0.82,0.01 0.98,0.18 -0.12,0.35 z"
     title="Villa Clara"
     id="CU-05" />
  <path
     d="m 243.48335,93.8283 0,0 0.17,1.07 -0.57,0.04 -0.75,-0.45 -0.74,0.06 -0.43,-0.12 -0.32,-0.48 -0.18,-0.58 0,-0.64 0.45,-0.3 0.79,0.19 0.74,0.38 0.35,0.24 0.49,0.59 z m 50.48,-86.78 0,0 1.1,1.01 0,-1.06 0.54,0 0.69,1.13 0.45,0.53 0,0.36 -0.66,0.63 -1.19,0.71 -0.85,-0.08 -0.76,-0.39 -0.88,-0.24 -2.31,0.24 -1.75,0.61 -3.54,1.81 0.81,-0.9 4.33,-2.88 1.28,-0.28 1.39,0.05 1.52,0.34 -0.28,-0.42 -0.4,-0.81 -0.3,-0.41 0.49,-0.49 0.32,0.54 z m 22.72,-1.12 0,0 0.62,0.06 1.83,-0.06 0.38,-0.09 0.51,-0.2 0.43,0.03 0.18,0.55 -0.16,0.57 -0.42,0.32 -0.56,0.28 -0.6,0.43 -0.72,-0.11 -1.27,-0.54 -1.44,-0.43 -1.22,0.26 -0.28,-0.46 -0.31,-0.03 -0.87,0.49 0.26,-1.07 0.47,-0.64 0.76,-0.33 1.17,-0.09 0.29,0.15 0.57,0.69 0.38,0.22 z m -9.84,-0.68 0,0 -0.18,0.54 -0.31,-0.03 -0.23,0.06 -0.07,0.56 -0.37,0.1 -0.82,-0.17 -0.54,0.3 -0.14,0.52 -0.25,-0.24 -0.05,-0.99 0.72,-0.85 1.24,-0.49 0.65,-0.16 0.19,0.24 0.16,0.61 z m -37.29,11.61 0,0 2.56,1.34 1.42,0.03 0.61,-0.35 0.51,-0.8 1.08,-1.3 0.34,-0.64 0.76,-1.9 0.36,-0.4 0.81,-0.09 1.47,-0.38 0.45,-0.06 2.98,0.53 0.49,-0.02 0.28,-0.14 0.13,0.28 0.03,1.23 0.54,1.71 1.31,0.42 1.62,-0.3 1.46,-0.48 11.23,-2.17 1.76,-0.05 3.34,0.7 1.78,-0.07 1.5,-0.64 1.34,-1.18 0.39,-1.46 -1.32,-1.5 0.93,-0.45 0.98,-0.11 0.9,0.16 0.7,0.4 0,0.48 -0.61,0.57 -1.88,3.73 1.99,1.51 0.09,0.16 -0.44,0.19 -1.14,2.21 -0.21,1.78 0.05,0.8 -0.04,1.3 -0.35,0.61 -0.52,0.42 -0.72,0.23 -0.42,0.04 -0.33,-0.07 -0.62,-0.43 -0.29,-0.14 -0.27,-0.05 -0.39,0.02 -0.34,0.09 -1.01,0.38 -0.3,0.04 -1.78,-0.05 -0.38,0.2 -0.24,0.33 -0.2,0.74 -0.05,0.61 0.04,0.87 0.29,1.18 0.08,0.63 -0.18,1.13 -0.39,0.56 -0.36,0.37 -0.51,0.29 -0.09,0.29 0.12,0.22 0.27,0.15 0.26,0.19 0.14,0.25 0.08,0.51 0.14,0.36 0.24,0.37 0.74,0.81 0.45,0.65 0.21,0.43 0.21,0.3 0.29,0.27 1.2,0.79 1.44,1.26 1.15,-0.08 0.53,-0.23 1.41,-1.04 1.4,-0.54 0.69,-0.01 0.53,0.23 0.2,0.3 0.3,0.68 0.08,0.26 0.31,0.68 0.51,1.6 1.08,1.86 0.19,0.58 -0.1,0.4 -0.37,0.22 -0.67,0.29 -0.4,0.59 -0.09,0.44 0.12,0.34 0.52,0.55 0.33,0.53 0.12,0.51 0.03,0.67 -0.37,3.64 0.07,0.57 0.17,0.32 0.32,0.37 0.35,0.6 0.17,1.53 0.2,0.78 0.32,0.77 0.44,0.49 1.04,1.79 -1.44,0.99 -0.25,0.31 -1.57,2.97 -0.46,0.64 -0.32,0.33 -0.29,0.06 -0.6,0.07 -0.44,0.1 -0.49,0.17 -1.58,0.75 -0.46,0.02 -0.35,-0.04 -0.69,-0.24 -6.6,-0.71 -1.68,0.14 -0.53,-0.03 -3.61,-0.96 -0.79,-0.03 -0.56,0.1 -0.62,0.43 -0.28,0.23 -0.86,0.54 -1.51,0.71 -0.44,0.28 -0.84,0.81 -0.22,0.25 -0.38,0.35 -0.86,0.62 -0.54,0.65 0.02,0.14 0.21,0.11 0.37,0.07 0.28,0.13 0.11,0.18 -0.04,0.32 -0.45,1.27 -0.25,0.53 -1.11,1.82 -0.16,0.4 0.07,0.16 0.18,0.04 0.28,-0.02 0.35,-0.12 0.33,-0.16 0.23,-0.08 0.2,0.01 0.22,0.08 0.25,0.15 0.09,0.32 -0.09,0.4 -0.56,0.84 -0.22,0.45 -0.09,0.41 0.09,0.31 0.22,0.51 0,0.4 -0.09,0.61 -0.38,1.08 -0.15,0.67 -0.07,0.58 0.08,0.7 0.11,0.4 0.13,0.26 0.2,0.15 0.3,0.09 1.15,-0.14 0.29,0.01 0.15,0.08 0.07,0.18 0.04,0.35 0.1,0.29 0.07,0.64 -0.3,1.44 3.02,2.13 0.88,0.85 0.77,1.19 2.25,1.29 2.49,1.03 0.99,0.61 0.52,0.2 0.26,0 0.21,-0.19 0.19,-0.23 0.2,-0.17 0.28,-0.1 1.14,-0.04 0.53,-0.09 0.66,-0.01 0.37,0.16 0.46,0.46 0.34,0.14 0.66,-0.04 1.02,-0.27 1.5,-0.19 0.77,0.06 0.47,0.18 0.51,0.56 0.2,0.31 0.15,0.35 0.07,0.4 0.03,1.35 0.13,0.87 0.15,0.48 0.53,0.85 0.01,0 -3.2,0.09 -8.8,-0.62 -10.32,1.16 -6.21,-0.63 -1.39,-0.48 -2.69,-1.39 -2.81,-0.57 -1.09,-0.77 -0.72,-1.19 -1.84,-3.9 -0.25,-0.76 -0.05,-1.22 0.54,-3.28 -0.33,-0.22 -1.89,-2.95 -0.96,-0.62 -0.96,-0.21 -0.8,0.27 -0.47,0.8 0.01,0.96 1,3.31 0.05,9.36 -0.55,2.39 -1.49,-0.1 1.02,-1.69 -0.3,-2.43 -1.03,-2.23 -0.67,-0.55 -2,0.73 -0.44,0.32 -0.23,0.66 0.09,1.44 -0.31,0.59 -0.84,0.39 -0.57,-0.29 -0.49,-0.47 -0.58,-0.17 -0.52,0.37 -0.09,0.54 -0.2,0.47 -0.88,0.21 -2.59,-1.17 -1.58,-5.14 -2.71,-1.17 -3.44,0 -0.82,-0.23 -1.37,-1.02 -0.77,-0.23 -0.55,0.23 -1.05,1.02 -0.84,0.23 -0.18,0.09 -0.14,0.2 -0.22,0.2 -0.43,0.09 -0.22,-0.14 -0.18,-0.67 -0.31,-0.25 -2.98,-1 -0.36,-0.23 -0.84,-0.37 -0.85,-0.02 -0.39,0.85 -0.7,0.32 -1.57,0.08 -1.67,-0.18 -0.99,-0.45 -0.44,0 -0.19,0.94 -0.46,0.25 -1.35,-0.19 0.21,0.31 0.12,0.21 0.2,0.54 -0.79,-0.01 -3.34,-0.41 -1.02,-0.4 -1.8,-2.01 -0.65,-1.08 -0.26,-1.13 -1.24,-1.3 -10.13,-4.09 -1.04,-0.6 -1.08,-0.89 -0.64,-0.37 -1.43,-0.15 -0.6,-0.23 -0.35,-0.43 -0.82,-1.42 -0.07,-0.31 -0.97,0.01 -1.32,-0.16 -1.21,-0.6 -0.67,-1.32 0.4,-1.21 0.85,-0.74 1.09,-0.46 0.89,-0.29 8.24,0.28 2.68,-0.69 1.91,0.3 2.17,-0.17 1.32,-0.24 1.91,0.46 1.63,0.14 3.68,-0.58 2.83,-1.22 0.81,0.15 0.74,-0.39 1.41,0 0.78,-0.18 1.03,-0.32 0.94,-0.95 0.67,-0.64 0.67,-0.28 -0.09,-1.63 0.29,-0.73 -0.18,-1.21 0.62,-2.17 -0.05,-0.84 -0.53,-0.18 0.11,-0.16 0.08,-0.13 0.06,-0.05 0.24,-0.11 0.31,-0.23 0.24,-0.23 0.92,-1.49 0.61,-0.8 0.41,-0.68 0.23,-0.57 0.14,-0.54 0.55,-3.92 -0.13,-1.16 -1.17,-1.04 -2.7,-1.67 -0.42,-0.73 0.03,-1.19 0.78,-1.96 0,-0.48 -0.3,-0.43 -0.92,-0.66 -1.1,-1.04 -1.17,-2.1 0.92,-2.9 0.18,-2.22 0.07,-0.32 -0.05,-0.53 -0.06,-0.24 -0.83,-1.23 -1.17,-1.52 -0.56,-0.52 -0.52,-0.41 -0.52,-0.2 -0.79,-0.1 -0.25,-0.14 -0.12,-0.25 0.18,-0.6 0.12,-0.28 0.08,-0.16 0.04,-0.06 0.4,-0.35 1.45,-1 0.66,-0.93 0.28,-0.12 0.18,-0.23 -0.02,-0.22 -0.32,-0.42 -0.61,-0.5 -0.04,-0.29 0.14,-0.39 0.5,-0.71 0.37,-0.21 0.37,-0.01 0.69,0.41 0.19,0.07 0.11,-0.03 -0.02,-0.54 -0.13,-0.99 -0.91,-4.08 0.72,-0.95 0.1,-0.63 0,0 1.84,0.01 1.13,-0.16 0.96,-0.5 0.81,0.44 0.8,0.06 0.85,-0.04 0.96,0.12 0.49,0.3 1.25,1.02 1.52,0.89 0.25,1.56 -0.23,1.79 -0.35,1.34 -0.43,0.61 -0.45,0.3 -0.01,0.24 0.89,0.44 0.81,0.11 0.8,-0.2 1.07,-0.43 0.28,-0.4 0.45,-1.9 0.25,-0.65 0.59,-0.55 0.53,-0.18 0.65,-0.02 6.02,-1.05 0.8,-0.35 0.77,-0.84 1.77,-0.51 3.37,-0.51 1.06,-0.37 2.66,-1.31 1.75,-1.35 3.16,-1.87 1.18,-0.36 1.33,0.53 -1.02,0.88 -1.98,0.83 -3.25,0.85 -3.88,2.39 -1.01,0.89 0,0.49 3.17,0.82 4.08,4.79 z m 33.8,-11.5 0,0 0.1,0.23 -0.06,0.48 -0.42,0.15 -0.53,-0.3 -0.51,-0.02 -0.33,0.49 -0.28,0.19 -1.52,-0.69 -0.84,-0.27 -0.5,-0.08 -1.32,0.14 -0.77,-0.06 -2.04,-0.75 -0.7,-0.17 -0.52,-0.72 -0.42,-0.21 0.29,-0.42 1.39,0.17 2,0.76 2.5,0.56 4.48,0.52 z m -14.35,-5.11 0,0 1.96,1.21 0.49,-0.03 0.33,0.11 0.23,0.67 -0.55,0.65 -0.82,-0.14 -0.8,-0.26 -0.85,-0.12 -0.81,-0.34 -0.35,-0.55 -0.31,-0.33 -0.64,-0.22 0.49,-0.46 1.63,-0.19 z"
     title="Matanzas"
     id="CU-04" />
  <path
     d="m 162.67335,53.4183 0,0 -0.75,0.61 -0.64,-0.95 0.53,-0.45 0.33,-0.43 0.53,0.82 0,0.4 z m 11.47,1.18 0,0 -0.3,0.5 -0.32,-0.32 0.15,-4.88 -0.18,-0.65 -0.04,-0.4 0.27,-0.07 0.35,0.33 0.27,0.58 0.1,0.31 0.27,0.93 0.22,1.79 -0.42,1.36 -0.37,0.52 z m -1.12,-38.88 0,0 1.23,0.55 0.85,-0.45 0.39,-0.35 0.49,-0.13 0.57,0.16 0.72,0.99 0.1,0.71 -0.61,0.91 -1.43,1.21 -0.06,0.17 0.23,0.34 0.53,0.4 2.63,1.13 0.18,-0.02 0.16,-0.08 0.25,0.19 0.16,0.19 0.65,2.59 -0.1,2.69 0,2.06 -0.88,1.91 -0.58,2.53 0,2.86 1.46,3.01 1.46,2.06 0.9,0.53 0.94,0.59 0.24,0.98 -0.26,1.64 -4.71,0.63 -3.77,-0.93 -0.83,0.17 -1.39,0.72 -0.7,0.17 -3.33,-0.72 -2.54,0.6 -7.55,-2.03 -1.53,0.03 -1.49,0.77 -0.73,1.26 -0.24,1.5 -0.02,1.53 -0.44,1.4 -1.05,0.72 -0.66,0.22 0,0 -0.03,-0.31 -0.21,-0.45 -0.56,-0.84 -2.37,-2.68 -0.32,-0.61 -1.41,-3.3 -0.54,-0.96 -0.46,-0.63 -0.4,-0.31 -0.66,-0.37 -0.25,-0.19 -0.87,-1.17 -1.18,-2.04 -0.36,-0.49 -0.29,-0.27 -0.79,-0.36 -0.16,-0.12 -0.11,-0.14 0.1,-0.15 0.33,-0.14 1.74,-0.2 0.57,-0.21 0.37,-0.32 1.33,-1.58 0.09,-0.69 -0.32,-1.89 -1.81,-3.51 0.26,-1.54 0,-0.36 -0.33,-2.8 0.07,-0.43 0,0 0.14,-0.1 0.77,-1.92 1.01,-1.66 2.32,-0.05 2.56,0.41 1.72,-0.29 1.57,-0.57 6.48,0.31 6.64,-0.88 1.71,-0.71 1.47,0.1 2.63,-1.52 0,0 0.31,0.53 z"
     title="Artemisa"
     id="CU-15" />
  <path
     d="m 204.09335,6.3183 0,0 0.23,0.76 -0.13,0.78 0.4,0.69 1.21,1.52 -0.37,0.31 -0.68,0.04 -0.17,0.27 0.03,0.44 0.2,0.7 -0.07,0.33 -0.39,0.33 -0.17,0.22 -0.09,0.35 -0.09,1.32 -0.69,1.27 -2.51,-2.97 -0.42,-0.3 -0.63,-0.32 -0.3,0.1 -0.25,0.24 -0.12,0.25 -0.08,0.42 -0.36,0.97 -0.47,0.44 -0.41,0.28 -0.24,-0.04 -0.51,-0.73 -0.4,-0.43 -0.41,0.03 -0.08,0.11 0.05,0.22 0.11,0.3 0.01,0.38 -0.05,0.39 -0.17,0.65 -0.03,0.5 0.11,0.68 0.6,1.25 0.1,0.37 -0.06,0.28 -2.44,2.72 -0.54,1 -0.43,0.6 -0.63,0.25 -0.85,0 -0.71,-0.09 -0.75,-0.34 -1.84,0.12 -2.81,-0.26 -0.64,0.64 -0.28,0.55 -0.94,0.84 -0.49,0.21 -0.4,-0.09 -0.77,-0.95 -0.5,-0.33 -0.55,0.17 -1.16,0.47 -0.65,-2.59 -0.16,-0.19 -0.25,-0.19 -0.16,0.08 -0.18,0.02 -2.63,-1.13 -0.53,-0.4 -0.23,-0.34 0.06,-0.17 1.43,-1.21 0.61,-0.91 -0.1,-0.71 -0.72,-0.99 -0.57,-0.16 -0.49,0.13 -0.39,0.35 -0.85,0.45 -1.23,-0.55 -0.31,-0.53 0,0 0.47,-0.27 1.58,-0.49 0.4,-0.24 0.71,-1.1 0.36,-0.25 0.88,-0.11 0.68,-0.26 1.12,-0.69 2.12,-1.67 1.11,-0.66 2.85,-0.44 3.29,-1.43 5.01,-0.83 2.27,-0.95 4.93,1.2 1.57,-0.17 2.03,-0.51 z"
     title="Ciudad de la Habana"
     id="CU-03" />
  <path
     d="m 643.84335,213.3583 0,0 0.88,-0.02 0.49,0.09 0.18,0.2 -0.07,0.52 -0.18,0.36 -0.18,0.32 -0.18,0.22 -0.09,0.16 0.24,0.32 0.53,0.45 2.12,1.45 1.19,0.31 0.29,1.24 0.1,0.26 0.1,0.2 0.26,0.26 1.2,0.63 2.26,0.19 5.17,-2.4 0.58,-0.15 0.8,-0.08 2.27,0.32 3.04,-0.28 3.1,-2.16 0.22,-0.55 0.21,-0.68 -0.38,-0.84 -0.07,-0.23 0.02,-0.24 0.09,-0.31 0.2,-0.27 0.16,-0.08 0.53,0.26 0.46,0.18 0.92,0.49 0.33,-0.09 0.53,-0.34 1.08,-0.86 1.42,-1.47 0.27,-0.35 0.23,-0.17 0.27,-0.13 0.43,-0.15 0.27,-0.15 0.24,-0.21 0.3,-0.07 0.41,0.1 1.14,0.92 1.33,0.42 3.13,-0.6 0.88,0 0.3,-0.06 0.36,-0.13 0.66,-0.32 0.14,0.24 0.04,0.51 -0.23,1.88 -0.12,0.36 -0.12,0.1 -0.48,0.21 -0.27,0.15 -0.18,0.22 -0.14,0.28 -0.07,0.26 -0.12,0.25 -0.17,0.27 -0.26,0.22 -0.3,0.17 0.08,0.28 0.45,0.6 1.12,0.98 1.86,2.54 -0.66,0.54 -0.33,0.64 -0.3,0.24 -0.35,0.07 -0.67,-0.24 -0.26,-0.13 -0.37,-0.07 -0.19,0.09 -0.12,0.24 -0.05,0.28 -0.01,0.38 -0.09,0.49 -0.28,0.62 -0.72,1.1 -0.83,0.68 -0.81,0.51 -0.9,0.37 -0.34,0.29 -0.13,0.22 0.28,0.65 0.76,1.55 0.17,1.26 -0.1,2.46 -0.12,0.42 -0.15,0.16 -0.24,0.18 -0.19,0.18 -0.19,0.29 -0.32,0.62 -0.07,0.34 0.03,0.48 0.41,1.83 0.36,1.1 0.18,0.32 0.36,1.01 0.06,0.11 0.13,0.16 0.68,0.49 -0.05,2.03 0.23,0.86 0.18,0.16 0.22,0.06 0.29,0.02 0.45,0.26 0.18,0.34 0.06,0.68 -0.12,0.41 -0.2,0.27 -1.7,0.85 -0.84,1.06 -0.3,0.18 -0.23,0 -0.97,0.42 0.1,2.83 0.33,1.14 0.94,1.58 0.45,0.54 1.54,1.44 4.34,6.1 0,0.01 -0.09,0 -0.78,-0.08 -2.39,-0.54 -0.7,-0.38 -0.5,-0.08 -0.21,0.15 -0.59,0.7 -0.45,0.23 -1.93,0.26 -2.29,-0.04 -2.14,-0.42 -1.49,-0.88 -2.37,0.35 -2.92,-1.56 -2.96,-2.11 -2.49,-1.31 -1.57,-0.18 -5.12,0.18 -1.36,-0.17 -2.79,-0.74 -1.46,-0.18 -2.75,0.32 -1.43,0.41 -0.95,0.6 -1.05,0.15 -9.44,-2.29 -6.45,-0.75 -3.28,0.13 -5.71,1.56 -2.73,0.39 -5.19,0 -1.55,0.22 -3,1.05 -1.58,0.34 -9.1,-0.55 -9.26,0.79 -1.48,0.76 -1.57,-0.06 -1.57,-0.36 -1.49,-0.11 -1.1,0.48 -2.31,1.88 -1.52,0.76 -1.68,0.43 -5.42,0.25 0,-0.01 -0.04,-1.73 -0.64,-1.33 -0.22,-0.36 -0.05,-0.23 0.01,-0.23 0.62,-0.2 4.16,-0.46 0.51,-0.15 0.37,-0.26 2.71,-3.66 0.35,-0.18 0.53,-0.12 1.71,-0.11 1,0.09 1.56,-0.03 1.11,-0.21 0.69,-0.31 1.19,-1.23 1.16,-0.71 0.71,0.66 0.15,0.19 0.3,0.27 0.24,0.15 0.24,0.08 0.25,0.06 0.19,0.09 0.19,0.14 0.18,0.22 0.27,0.17 0.24,-0.01 0.26,-0.28 0.13,-0.24 0.26,-0.18 0.38,-0.15 1.36,-0.35 0.42,-0.01 0.44,0.36 0.62,0.73 0.45,0.32 0.57,0.22 1.18,0.28 0.26,0.11 0.14,0.08 0.39,0.04 0.62,-0.01 1.27,-0.2 1.68,-0.02 0.25,-0.14 0.25,-0.67 0.14,-0.12 0.43,0.11 0.59,0.22 1.99,0.48 0.5,-0.13 0.09,-0.36 -0.57,-1.53 -0.09,-0.43 -0.02,-0.21 0.48,-0.29 2.02,0.34 1.68,0.11 0.5,-0.05 0.69,-0.17 0.86,-0.34 1.02,-0.55 1.08,-0.75 2.05,-1.95 0.74,-1.42 -0.25,-6.42 -0.4,-2.25 -0.22,-0.53 0.06,-0.38 0.46,-0.28 0.63,-0.7 1.09,-1.13 -0.1,-0.75 0.02,-0.23 -0.01,-0.36 1.5,-6.13 0.45,-0.76 0.55,-0.48 1.14,-0.03 0.7,0.06 1.55,0.3 0.67,0 0.38,-0.15 0.24,-0.52 0.07,-0.34 0.06,-0.72 0.12,-0.31 0.25,-0.34 0.43,-0.45 0.34,-0.45 0.24,-0.52 0.12,-0.66 -0.02,-0.69 -0.27,-1.42 0.07,-0.34 0.31,-0.11 0.54,-0.04 0.72,0.44 0.37,0.4 0.16,0.47 0,0.47 -0.06,0.46 0,0.47 0.07,0.41 0.36,0.72 0.35,1.01 0.26,0.33 0.55,-0.05 1,-0.81 1.86,-2.53 1.73,-0.1 0.64,0.03 0.59,0.13 0.56,0.2 0.64,0.33 0.37,0.11 0.32,-0.03 0.36,-0.11 0.04,0.15 -0.06,0.32 -0.55,1.21 0.24,0.58 1.34,-1.28 0.15,-0.24 0.44,-1.64 0.19,-1.71 -0.47,-1.15 -0.14,-0.71 -0.19,-0.24 -0.25,-0.11 -0.04,-0.2 0.17,-0.26 1.12,-0.74 0.9,-0.81 0.36,-0.23 1.28,-0.52 0.17,-0.39 -0.06,-0.52 -0.5,-1.23 -0.18,-0.65 0.16,-0.48 0.18,-0.1 0.98,0.44 3.39,2.53 0.67,1.12 -0.31,0.8 0.24,0.29 0.53,0.22 1.24,0.12 z"
     title="Santiago de Cuba"
     id="CU-13" />
  <path
     d="m 618.01335,155.8983 0,0 -0.05,0.1 -0.27,4.33 -0.55,1.28 -0.37,0.24 -0.28,0.26 -0.37,0.5 -0.02,0.48 0.24,1.37 -0.12,0.48 -0.38,0.51 -1.93,1.21 -1.55,0.65 -3.18,2.06 -1.15,0.98 -0.41,0.22 -1.77,1.41 -1.35,1.39 -0.86,2.14 -0.2,1.14 -0.25,0.22 -0.49,0.07 -0.36,-0.06 -0.42,-0.16 -0.67,0.05 -0.93,0.24 -3.77,1.64 -1.16,0.27 -0.5,0.05 -0.43,-0.04 -0.32,-0.13 -0.4,-0.28 -0.71,-0.64 -0.85,-0.39 -0.91,2.62 0.07,5.41 -0.11,1.07 -0.24,0.73 -1.31,1.71 -0.52,1.01 -0.2,0.7 -0.11,1 0.02,0.6 0.16,0.43 0.78,0.86 0.37,0.54 0.27,0.75 -0.05,0.47 -0.19,0.34 -0.73,0.49 -0.68,0.26 -2.88,1.17 -0.3,0.2 -1.18,1.02 -0.76,-0.33 -1.33,-2.85 -0.66,-0.55 -1.06,-0.27 -1.62,0.02 -3.04,-0.37 -1.43,0.02 -0.57,0.08 -2.99,-0.53 -1.59,0.54 -1.06,0.15 -0.97,0.04 -1.18,0.38 -0.63,0.02 -0.47,-0.16 -1.04,-0.75 -2.6,-0.98 -7.02,-0.21 -1.67,-0.46 -0.18,-0.46 -0.27,-0.46 -0.46,0 -0.55,0.25 -1.11,0.8 -0.46,0.23 -0.29,0 -0.29,-0.73 -0.38,-0.44 -0.26,0.09 -0.2,0.35 -0.09,0.81 -0.14,0.45 -0.17,0.37 -0.72,0.82 -0.25,0.44 -0.17,0.48 -0.08,0.18 -0.14,0.17 -0.3,0.18 -1.11,0.52 -0.3,0.22 -0.01,0 -0.46,-0.16 -2.04,0.18 -2.25,0.53 -1.88,0.82 -0.93,1.08 -0.68,-0.43 -0.41,0.01 -0.36,0.22 -0.5,0.2 -0.76,0.2 -0.46,0.19 -0.48,0.14 -0.79,-0.01 -1.25,-0.21 -3.63,-1.35 -2.79,1.49 -0.63,0.07 -1.04,-0.79 -0.48,-0.25 -0.54,-0.11 -2.11,0.11 -0.56,-0.07 -1.39,-0.41 -0.48,-0.28 -0.26,0.17 -0.92,0.07 -3.52,-0.21 -1.22,-0.4 -1.9,-1.31 -0.65,-0.19 0.01,-0.01 0.95,-6.25 3.72,-5.27 1.69,0.12 4.36,-0.85 1.08,-0.44 0.57,-0.41 -0.04,-0.44 0.01,-0.54 0.07,-0.6 0.3,-1.24 0.05,-0.44 -0.06,-0.48 -0.12,-0.5 0,-0.61 0.55,-0.38 0.48,-0.08 0.39,0.17 0.4,0.53 0.28,0.48 0.36,0.49 0.27,0.23 0.39,0.07 0.82,0.05 0.37,0.09 0.54,0.07 0.23,-0.19 0.14,-0.24 -0.01,-0.97 0.38,-1.03 0.72,-0.4 1.45,-0.43 1.04,-0.15 0.2,-1.12 0.18,-0.25 0.19,-0.01 0.92,0.07 0.96,-0.1 1.3,-0.26 0.47,-0.61 0.23,-0.53 0.07,-0.53 0.3,-0.67 0,-0.11 -0.16,-0.58 -0.05,-0.33 -0.01,-0.44 0.13,-0.26 0.26,-0.18 1.03,-0.51 0.5,-0.6 0.24,-0.17 0.11,-0.01 0.03,0.16 0.09,0.19 0.11,0.19 0.31,0.41 0.21,0.24 0.62,0.96 0.15,0.35 0.06,0.35 -0.04,0.46 0.06,0.19 0.17,0.16 1.25,0.32 1.19,0.09 0.61,0.12 0.35,0.11 0.14,0.2 0.03,0.17 -0.06,0.21 -0.48,0.72 -0.05,0.22 -0.01,0.24 0.23,0.51 0.72,0.75 0.73,-1.6 0.48,-0.38 0.43,-0.23 0.33,0.08 0.34,0.25 0.72,0.69 0.42,0.22 0.59,0.17 0.59,-0.3 2.06,-4.97 1.01,-1.42 0.85,-0.4 0.67,-0.43 0.35,-0.15 2.1,-0.45 0.46,-0.15 0.92,-0.81 0.47,-0.56 2.61,-4.34 -0.32,-4.96 0.05,-0.52 0.37,-0.9 4.04,-3.75 0.11,-0.28 -0.15,-0.27 -0.41,-0.11 -2.74,0.01 -0.32,-0.22 -0.35,-0.45 -0.32,-1.26 0.06,-0.72 0.44,-1 0.59,-0.71 1.14,-3.52 1.41,0.17 1.67,0.41 1.28,-0.06 1.94,-0.49 0.9,-0.42 2.04,-1.6 1.14,-0.46 0.58,-0.57 0.17,-0.15 1.07,0.76 2.59,1.25 3.95,0.85 0.93,0.72 -0.49,1.05 1.47,0 -0.42,1.58 -0.57,0.79 -0.87,0.27 -2.53,0.16 -1.02,0.42 -0.72,0.73 -0.27,1.08 1,1.9 3.66,-1.93 -0.21,1.91 0.69,-0.5 0.31,-0.79 0.18,-0.94 0.28,-0.92 -0.49,0 1,-1.5 0.3,-0.77 0.12,-0.92 4.4,1.52 0.41,-0.02 0.56,-0.34 0.32,0.13 1.2,0.81 1.93,0.47 0.77,0.05 1.11,0.49 0.97,1.08 0.42,1.09 -0.52,0.49 -1.16,0.26 -4.01,1.84 0.28,-1.15 -0.66,-0.68 -0.71,-0.03 0.11,0.81 -0.35,1.21 0.96,0.5 1.44,0.24 1.14,0.46 1.08,0.84 1.21,0.54 1.35,0.3 1.52,0.1 0,-0.48 -1.56,-0.55 -0.47,-0.34 -0.42,-0.68 -0.48,-1.1 0.04,-0.49 1.38,-0.55 1.25,-0.04 1.7,0.54 1.59,0.95 0.92,1.22 0.45,0 0,-1.62 0.48,0 -0.25,3.07 -0.82,1.01 -3.81,0.16 0,0.52 1.46,0 -0.69,0.42 -0.28,0.11 0.57,0.98 0.71,-0.03 0.79,-0.39 0.86,-0.04 0.61,0.51 0.72,1.34 0.66,0.24 0.37,-0.16 0.49,-0.37 0.43,-0.43 0.18,-0.37 0.17,-0.25 0.4,-0.01 0.47,0.05 0.38,-0.03 2.11,-1.24 0.82,-0.33 -1.11,-0.39 -2.33,-0.32 -0.91,-0.34 -0.87,-1.02 -0.23,-1.23 0.48,-1.03 1.31,-0.43 8.56,0.25 1.76,0.56 1.02,0.85 2.31,0.9 0.21,0.18 z"
     title="Las Tunas"
     id="CU-10" />
  <path
     d="m 677.23335,194.3683 0,0 0.25,0.92 -1.34,-0.01 -2.37,-0.65 -1.27,-0.2 -1.13,-0.59 -0.73,-0.97 -0.05,-1.37 3.53,-0.65 0.86,0.12 0.64,0.59 1.03,1.95 0.58,0.86 z m -45.85,-26.98 0,0 0.71,0.82 0.49,-0.06 0.72,-0.76 1.14,-0.64 0.8,-0.19 1.03,0.26 0.73,0.44 0.5,0.55 0.28,0.72 0,0.96 0.45,0 0.14,-0.37 0.23,-0.38 0.15,-0.35 0.49,1.18 0.61,0.26 0.43,-0.59 -0.06,-1.37 0.6,0.1 1.92,0.05 0.89,-0.15 0.45,-0.3 1.12,-1.01 0.61,-0.21 0.89,0.04 0.9,0.19 0.69,0.38 0.59,1.34 0.61,0.12 0.37,-0.33 -0.36,-0.7 3.69,-2.66 0.39,0.09 1.07,0.49 0.22,0.2 0.3,0.58 0.7,0.04 1.25,-0.36 2.47,0 2.02,0.33 1.41,1.22 0.64,2.64 2.82,-0.59 1.63,1.05 2.48,3.78 -1.46,3.14 -0.43,0.53 -0.8,0.66 -0.29,0.43 -0.13,0.49 -0.16,1.14 -0.15,0.45 -0.61,0.88 -1,1.01 -1.17,0.71 -1.17,-0.03 -0.36,-0.73 -0.27,-1.16 -0.43,-0.75 -0.9,0.55 -0.58,-0.37 -0.47,-0.06 -0.42,0.15 -0.43,0.28 0.58,0.09 0.43,0.16 0.27,0.32 0.14,0.52 -2.03,0.15 0.04,0.93 0.93,1.32 0.62,1.31 0.44,0 0.8,-1.21 1.88,-0.56 2.14,-0.1 1.57,0.21 2.96,1.52 0.46,0.38 0.08,1.06 0.29,0.81 0.6,0.46 0.99,0 -0.57,1.82 -1.01,0 -1.14,-0.76 -0.97,-0.5 -0.54,-0.18 -0.23,-0.46 -0.16,-0.55 -0.32,-0.47 -0.52,-0.43 -0.23,-0.12 -3.92,0.61 -1.38,0.49 -4.69,-0.55 0.38,0.88 -0.1,0.98 -0.72,1.85 0.05,0.46 -0.06,0.97 -0.2,0.9 -0.33,0.8 0.67,0.68 0.83,1.65 2.75,1.57 1.12,0.37 0.49,-0.8 0.79,-1.67 3.42,-2.89 0.72,-1.52 1.13,0.91 0.69,1.19 0.14,1.31 -0.49,1.34 1.84,-0.23 0.67,0.23 -0.31,0.8 -0.12,0.75 0.73,0.52 1.59,0.54 -0.4,-1.69 4.21,1 1.11,-1.4 0.45,0 0.34,0.42 0.47,0.43 0.56,0.39 0.63,0.33 0.53,-1.57 -1.18,-0.48 -0.63,-0.1 -0.72,0.06 0.89,-1.19 1.71,-0.5 1.87,-0.04 1.39,0.16 1.25,0.52 1.47,0.94 0.49,0.87 -1.7,0.33 0.62,0.98 0.35,1.06 0.49,0 0.08,-0.33 0.41,-0.71 0.61,1.64 1.74,0.38 4.04,-0.46 -1.24,-0.83 -2.71,-1.36 -1.42,-0.37 0.91,-0.99 1.75,-0.46 1.88,-0.01 1.32,0.37 -0.49,-0.57 1.1,0.09 3.34,0.7 0.88,0.49 0.25,0.53 -1.17,0.33 0,0.52 2,0.52 0.13,-0.16 0.02,-0.1 0.06,-0.11 0.23,-0.15 0.84,0.62 1.23,-0.33 1.18,0.06 0.66,1.78 0.14,-0.41 0.33,-0.69 0.06,-0.51 0.66,0.51 0.65,0.31 0.6,0.03 0.53,-0.33 -1.01,-1.04 5.75,-0.73 1.39,0.47 0.69,0.38 0.73,0.17 0.57,0.29 0.23,0.72 0.51,0.44 1.15,0.03 1.76,-0.21 1.18,0.86 1.02,1.04 1.32,0.86 5.65,0.68 1.48,0.47 1.11,0.79 -0.72,0.41 -0.3,0.11 1.02,1.83 0.05,0.83 0.17,0.21 0.3,0.03 0.46,0.28 0.48,0.36 -0.9,0.48 -0.7,0.56 -0.24,0.14 -0.22,0.05 -0.56,-0.01 -0.3,0.03 -0.25,0.13 -0.55,0.48 -0.38,0.44 -0.51,0.75 -0.36,0.73 -0.4,1.19 -0.09,1.49 0.6,2.04 -2.89,1.19 -0.2,0.15 -0.2,0.22 -0.1,0.23 -0.11,0.3 -0.08,0.44 -0.11,0.24 -0.28,0.13 -0.45,-0.1 -0.96,-0.45 -0.73,-0.54 -0.79,-0.48 -2.61,-1.22 -2.41,-1.75 -0.69,-0.38 -0.67,-0.06 -1.93,0.29 -0.39,0.12 -0.15,0.14 0.28,0.6 0.08,0.22 0.02,0.2 -0.15,0.54 -0.04,0.24 0.01,0.12 0.09,0.03 0.56,0.06 0.43,0.35 0.26,0.34 0.18,0.33 0.09,0.22 0.06,0.21 -0.01,0.22 -0.06,0.28 -0.29,0.07 -0.47,-0.09 -1.93,-1.37 -2.32,-0.19 -1.59,-1.31 -2.03,-2.17 -0.44,-0.37 -0.39,-0.05 -0.46,0.12 -1.65,0.63 -1.32,0.72 -0.44,0.06 -0.35,-0.07 -0.6,-0.51 -0.37,-0.07 -0.48,0.12 -1.62,0.95 -0.96,0.88 -0.18,0.43 -0.22,2.29 -0.65,1.17 -1.05,-0.79 -0.1,-0.24 -0.26,-0.18 -0.27,0.03 -1.31,0.65 -0.32,0.03 -0.31,-0.13 -0.64,-0.4 -0.48,-0.43 -0.09,-0.13 -0.25,-0.42 -0.39,-0.39 -0.68,-0.46 -0.31,-0.29 -0.46,-0.14 -0.54,0.1 -1.38,0.98 -0.82,0.22 -1.86,-2.54 -1.12,-0.98 -0.45,-0.6 -0.08,-0.28 0.3,-0.17 0.26,-0.22 0.17,-0.27 0.12,-0.25 0.07,-0.26 0.14,-0.28 0.18,-0.22 0.27,-0.15 0.48,-0.21 0.12,-0.1 0.12,-0.36 0.23,-1.88 -0.04,-0.51 -0.14,-0.24 -0.66,0.32 -0.36,0.13 -0.3,0.06 -0.88,0 -3.13,0.6 -1.33,-0.42 -1.14,-0.92 -0.41,-0.1 -0.3,0.07 -0.24,0.21 -0.27,0.15 -0.43,0.15 -0.27,0.13 -0.23,0.17 -0.27,0.35 -1.42,1.47 -1.08,0.86 -0.53,0.34 -0.33,0.09 -0.92,-0.49 -0.46,-0.18 -0.53,-0.26 -0.16,0.08 -0.2,0.27 -0.09,0.31 -0.02,0.24 0.07,0.23 0.38,0.84 -0.21,0.68 -0.22,0.55 -3.1,2.16 -3.04,0.28 -2.27,-0.32 -0.8,0.08 -0.58,0.15 -5.17,2.4 -2.26,-0.19 -1.2,-0.63 -0.26,-0.26 -0.1,-0.2 -0.1,-0.26 -0.29,-1.24 -1.19,-0.31 -2.12,-1.45 -0.53,-0.45 -0.24,-0.32 0.09,-0.16 0.18,-0.22 0.18,-0.32 0.18,-0.36 0.07,-0.52 -0.18,-0.2 -0.49,-0.09 -0.88,0.02 -1.24,-0.12 -0.53,-0.22 -0.24,-0.29 0.31,-0.8 -0.67,-1.12 -3.39,-2.53 -0.98,-0.44 -0.18,0.1 -0.16,0.48 0.18,0.65 0.5,1.23 0.06,0.52 -0.17,0.39 -1.28,0.52 -0.36,0.23 -0.9,0.81 -1.12,0.74 -0.17,0.26 0.04,0.2 0.25,0.11 0.19,0.24 0.14,0.71 0.47,1.15 -0.19,1.71 -0.44,1.64 -0.15,0.24 -1.34,1.28 -0.24,-0.58 0.55,-1.21 0.06,-0.32 -0.04,-0.15 -0.36,0.11 -0.32,0.03 -0.37,-0.11 -0.64,-0.33 -0.56,-0.2 -0.59,-0.13 -0.64,-0.03 -1.73,0.1 -1.77,-2.8 -2.12,-2.18 -0.75,-0.51 -0.62,-0.31 -1.93,-0.46 -1.46,-0.68 -0.88,-0.28 -1.8,-0.32 -1.6,-0.63 -0.87,-0.09 0.4,-1.61 -0.06,-0.39 -0.21,-0.51 -0.27,-0.2 -0.24,-0.09 -0.21,-0.02 -0.32,0.07 -0.15,0.11 -0.2,0.17 -0.21,0.12 -0.22,0.01 -0.62,-0.27 -2.49,-0.76 -3.31,-1.98 -1.28,-0.57 -3.35,-0.81 -0.66,-0.33 -0.33,-0.28 0,-0.33 0.12,-1.13 -0.04,-0.89 -0.08,-0.57 -0.42,-1.26 -0.78,-0.04 -1.92,1.01 -0.73,0.16 -0.69,-0.05 -0.53,-0.19 -1.04,-0.22 -0.58,-0.25 -0.46,-0.39 -0.66,-1.11 -0.25,-0.19 -0.23,0 -0.68,0.4 -0.71,0.26 -0.53,-0.13 -0.4,-0.26 -0.3,-0.38 -0.35,-0.59 0.68,-0.26 0.73,-0.49 0.19,-0.34 0.05,-0.47 -0.27,-0.75 -0.37,-0.54 -0.78,-0.86 -0.16,-0.43 -0.02,-0.6 0.11,-1 0.2,-0.7 0.52,-1.01 1.31,-1.71 0.24,-0.73 0.11,-1.07 -0.07,-5.41 0.91,-2.62 0.85,0.39 0.71,0.64 0.4,0.28 0.32,0.13 0.43,0.04 0.5,-0.05 1.16,-0.27 3.77,-1.64 0.93,-0.24 0.67,-0.05 0.42,0.16 0.36,0.06 0.49,-0.07 0.25,-0.22 0.2,-1.14 0.86,-2.14 1.35,-1.39 1.77,-1.41 0.41,-0.22 1.15,-0.98 3.18,-2.06 1.55,-0.65 1.93,-1.21 0.38,-0.51 0.12,-0.48 -0.24,-1.37 0.02,-0.48 0.37,-0.5 0.28,-0.26 0.37,-0.24 0.55,-1.28 0.27,-4.33 0.05,-0.1 1.66,1.4 1.03,0.66 7.6,2.91 2.28,1.53 0.31,1.8 0.25,0.63 -0.05,1.64 0.29,0.92 z"
     title="Holguín"
     id="CU-11" />
  <path
     d="m 565.55335,195.2183 0,0 0.63,-0.02 1.18,-0.38 0.97,-0.04 1.06,-0.15 1.59,-0.54 2.99,0.53 0.57,-0.08 1.43,-0.02 3.04,0.37 1.62,-0.02 1.06,0.27 0.66,0.55 1.33,2.85 0.76,0.33 1.18,-1.02 0.3,-0.2 2.88,-1.17 0.35,0.59 0.3,0.38 0.4,0.26 0.53,0.13 0.71,-0.26 0.68,-0.4 0.23,0 0.25,0.19 0.66,1.11 0.46,0.39 0.58,0.25 1.04,0.22 0.53,0.19 0.69,0.05 0.73,-0.16 1.92,-1.01 0.78,0.04 0.42,1.26 0.08,0.57 0.04,0.89 -0.12,1.13 0,0.33 0.33,0.28 0.66,0.33 3.35,0.81 1.28,0.57 3.31,1.98 2.49,0.76 0.62,0.27 0.22,-0.01 0.21,-0.12 0.2,-0.17 0.15,-0.11 0.32,-0.07 0.21,0.02 0.24,0.09 0.27,0.2 0.21,0.51 0.06,0.39 -0.4,1.61 0.87,0.09 1.6,0.63 1.8,0.32 0.88,0.28 1.46,0.68 1.93,0.46 0.62,0.31 0.75,0.51 2.12,2.18 1.77,2.8 -1.86,2.53 -1,0.81 -0.55,0.05 -0.26,-0.33 -0.35,-1.01 -0.36,-0.72 -0.07,-0.41 0,-0.47 0.06,-0.46 0,-0.47 -0.16,-0.47 -0.37,-0.4 -0.72,-0.44 -0.54,0.04 -0.31,0.11 -0.07,0.34 0.27,1.42 0.02,0.69 -0.12,0.66 -0.24,0.52 -0.34,0.45 -0.43,0.45 -0.25,0.34 -0.12,0.31 -0.06,0.72 -0.07,0.34 -0.24,0.52 -0.38,0.15 -0.67,0 -1.55,-0.3 -0.7,-0.06 -1.14,0.03 -0.55,0.48 -0.45,0.76 -1.5,6.13 0.01,0.36 -0.02,0.23 0.1,0.75 -1.09,1.13 -0.63,0.7 -0.46,0.28 -0.06,0.38 0.22,0.53 0.4,2.25 0.25,6.42 -0.74,1.42 -2.05,1.95 -1.08,0.75 -1.02,0.55 -0.86,0.34 -0.69,0.17 -0.5,0.05 -1.68,-0.11 -2.02,-0.34 -0.48,0.29 0.02,0.21 0.09,0.43 0.57,1.53 -0.09,0.36 -0.5,0.13 -1.99,-0.48 -0.59,-0.22 -0.43,-0.11 -0.14,0.12 -0.25,0.67 -0.25,0.14 -1.68,0.02 -1.27,0.2 -0.62,0.01 -0.39,-0.04 -0.14,-0.08 -0.26,-0.11 -1.18,-0.28 -0.57,-0.22 -0.45,-0.32 -0.62,-0.73 -0.44,-0.36 -0.42,0.01 -1.36,0.35 -0.38,0.15 -0.26,0.18 -0.13,0.24 -0.26,0.28 -0.24,0.01 -0.27,-0.17 -0.18,-0.22 -0.19,-0.14 -0.19,-0.09 -0.25,-0.06 -0.24,-0.08 -0.24,-0.15 -0.3,-0.27 -0.15,-0.19 -0.71,-0.66 -1.16,0.71 -1.19,1.23 -0.69,0.31 -1.11,0.21 -1.56,0.03 -1,-0.09 -1.71,0.11 -0.53,0.12 -0.35,0.18 -2.71,3.66 -0.37,0.26 -0.51,0.15 -4.16,0.46 -0.62,0.2 -0.01,0.23 0.05,0.23 0.22,0.36 0.64,1.33 0.04,1.73 0,0.01 -3.82,0.18 -1.82,-0.3 -3.57,-1.43 -1.83,-0.34 -0.99,0.74 -0.49,0 -0.53,-0.51 -0.73,-0.11 -0.71,0.32 -0.47,0.77 -1.82,-0.6 -2.08,-0.16 -1.85,0.49 -1.13,1.35 1.95,0 0,0.52 -1.27,0.06 -2.01,0.79 -1.34,0.19 -6.63,0.18 -4.54,1.12 -2.57,0.26 -3.01,-0.24 -4.42,1.19 -1.38,0.09 -0.97,-0.17 -0.97,-0.44 -0.78,-0.68 -0.48,-0.83 0.09,-1.41 1.33,-2.51 0.09,-0.71 0.52,-0.16 0.91,-0.1 0.52,-0.26 0.48,-0.47 0.49,-0.79 0.5,-0.3 -0.22,-0.83 0.33,-0.58 1.35,-1.24 1.6,-2.21 0.11,-0.38 0.26,-0.58 3.41,-3.1 -0.14,-0.67 -0.96,-0.96 0.12,-0.46 0.64,0.04 1.89,0.62 0.71,-0.68 1.37,-0.44 0.32,-0.3 0.2,-0.45 1.27,-1.91 1.24,-0.87 3.07,-1.64 1.18,-1.73 1.35,-0.99 7.2,-3.4 1.38,-0.22 1.06,-0.58 1.13,-2.75 1.03,-0.88 0.21,-0.03 0.25,-0.01 0.47,0.04 -0.4,0.89 0.43,0.44 0.92,0.04 1.05,-0.28 0.97,-0.64 0.76,-0.94 0.49,-1.14 0.18,-1.23 0.52,-0.44 2.94,-1.86 0.23,-3.66 0.48,-0.55 0.55,-0.5 0.96,-2.68 -2.22,-3.6 -0.7,-0.65 -1.92,-1.3 -2.56,-0.99 -0.7,-0.1 0.46,0.86 -0.44,0.52 -1.33,-0.92 -1.11,-0.52 -0.74,-0.77 -0.28,-1.7 0.24,-0.52 0.57,-0.3 0.65,-0.21 0.49,-0.28 1.51,-2.09 0,-0.52 -2.6,-1.66 -1.38,-0.29 -0.5,1.43 -1.44,-1.43 -1.22,-1.91 -1.41,-1.68 -1.56,-0.56 0.01,0 0.3,-0.22 1.11,-0.52 0.3,-0.18 0.14,-0.17 0.08,-0.18 0.17,-0.48 0.25,-0.44 0.72,-0.82 0.17,-0.37 0.14,-0.45 0.09,-0.81 0.2,-0.35 0.26,-0.09 0.38,0.44 0.29,0.73 0.29,0 0.46,-0.23 1.11,-0.8 0.55,-0.25 0.46,0 0.27,0.46 0.18,0.46 1.67,0.46 7.02,0.21 2.6,0.98 1.04,0.75 0.47,0.16 z"
     title="Granma"
     id="CU-12" />
  <path
     d="m 772.08335,230.7583 0,0 0.87,1.08 0.56,1.29 0.33,1.41 0.16,1.47 -0.65,1.67 -1.5,0.92 -1.51,0.6 -1.01,1.05 -1.45,0.84 -0.48,0.17 -0.37,0.41 -0.41,2.71 -2.25,2.01 -2.65,-0.08 -3.01,-0.78 -3.32,-0.11 -4.5,0.94 -3.04,0.23 -5.87,1.37 -2.73,-0.52 -2.26,0.94 -4.5,-0.73 -5.39,0.93 -1.75,0.17 -1.79,0.83 -1.23,1.04 -1.11,1.2 -1.22,0.98 -1.59,0.41 -1.68,0.04 -0.99,0.17 -0.59,0.62 -0.43,1.58 -1.17,1.83 -2.3,0.87 -2.55,0.3 -0.38,-0.89 -0.52,-0.28 -0.37,0.11 -0.21,0.55 0.01,0.72 -1.83,0.59 -0.23,-0.01 0.01,-5.66 -3.01,0 0.13,-0.36 0.39,-0.37 1.05,-0.72 0.93,-0.17 0.85,-1.62 0.38,-0.89 -0.43,-0.73 -0.11,-1.96 -1.46,0.28 -0.68,1.04 -0.45,0.79 -0.51,0.93 -0.58,-0.36 -0.75,-0.39 -1.08,0.42 -0.43,0.9 -0.14,0.75 0.24,0.8 0.38,0.11 0.47,0.12 0.29,-0.07 0.19,-0.28 0.15,-0.32 0.15,0.35 0.31,0.79 -0.87,0.49 -0.08,0.54 -1.33,0 -3.59,2.53 -0.28,2.85 0,0 -3.7,0.89 -6.97,0.44 0,-0.01 -4.34,-6.1 -1.54,-1.44 -0.45,-0.54 -0.94,-1.58 -0.33,-1.14 -0.1,-2.83 0.97,-0.42 0.23,0 0.3,-0.18 0.84,-1.06 1.7,-0.85 0.2,-0.27 0.12,-0.41 -0.06,-0.68 -0.18,-0.34 -0.45,-0.26 -0.29,-0.02 -0.22,-0.06 -0.18,-0.16 -0.23,-0.86 0.05,-2.03 -0.68,-0.49 -0.13,-0.16 -0.06,-0.11 -0.36,-1.01 -0.18,-0.32 -0.36,-1.1 -0.41,-1.83 -0.03,-0.48 0.07,-0.34 0.32,-0.62 0.19,-0.29 0.19,-0.18 0.24,-0.18 0.15,-0.16 0.12,-0.42 0.1,-2.46 -0.17,-1.26 -0.76,-1.55 -0.28,-0.65 0.13,-0.22 0.34,-0.29 0.9,-0.37 0.81,-0.51 0.83,-0.68 0.72,-1.1 0.28,-0.62 0.09,-0.49 0.01,-0.38 0.05,-0.28 0.12,-0.24 0.19,-0.09 0.37,0.07 0.26,0.13 0.67,0.24 0.35,-0.07 0.3,-0.24 0.33,-0.64 0.66,-0.54 0.82,-0.22 1.38,-0.98 0.54,-0.1 0.46,0.14 0.31,0.29 0.68,0.46 0.39,0.39 0.25,0.42 0.09,0.13 0.48,0.43 0.64,0.4 0.31,0.13 0.32,-0.03 1.31,-0.65 0.27,-0.03 0.26,0.18 0.1,0.24 1.05,0.79 0.65,-1.17 0.22,-2.29 0.18,-0.43 0.96,-0.88 1.62,-0.95 0.48,-0.12 0.37,0.07 0.6,0.51 0.35,0.07 0.44,-0.06 1.32,-0.72 1.65,-0.63 0.46,-0.12 0.39,0.05 0.44,0.37 2.03,2.17 1.59,1.31 2.32,0.19 1.93,1.37 0.47,0.09 0.29,-0.07 0.06,-0.28 0.01,-0.22 -0.06,-0.21 -0.09,-0.22 -0.18,-0.33 -0.26,-0.34 -0.43,-0.35 -0.56,-0.06 -0.09,-0.03 -0.01,-0.12 0.04,-0.24 0.15,-0.54 -0.02,-0.2 -0.08,-0.22 -0.28,-0.6 0.15,-0.14 0.39,-0.12 1.93,-0.29 0.67,0.06 0.69,0.38 2.41,1.75 2.61,1.22 0.79,0.48 0.73,0.54 0.96,0.45 0.45,0.1 0.28,-0.13 0.11,-0.24 0.08,-0.44 0.11,-0.3 0.1,-0.23 0.2,-0.22 0.2,-0.15 2.89,-1.19 -0.6,-2.04 0.09,-1.49 0.4,-1.19 0.36,-0.73 0.51,-0.75 0.38,-0.44 0.55,-0.48 0.25,-0.13 0.3,-0.03 0.56,0.01 0.22,-0.05 0.24,-0.14 0.7,-0.56 0.9,-0.48 0.01,0.01 0.38,0.29 2.6,0.86 0.25,1.01 1.38,1.12 3.25,2.09 0.57,0.68 0.77,1.6 2.27,3.16 0.54,0.33 0.23,0.5 3.5,3.69 0.67,0.33 0.97,0.13 1.56,0.46 1.92,1.19 1.6,1.55 0.58,1.58 0.53,0 0.96,-1.07 1.45,0.01 1.59,0.39 1.38,0.1 1.19,-0.53 1.25,-0.79 1.36,-0.64 1.52,-0.12 0.89,0.3 0.71,0.48 1.43,1.3 2.43,1.57 z"
     title="Guantánamo"
     id="CU-14" />
  <path
     d="m 469.89335,208.7183 0,0 1.21,0.57 0.2,-1.19 0.66,-0.24 0.84,0.46 0.75,0.97 0.5,1.5 -0.16,1.05 -0.76,0.25 -1.31,-0.95 -0.84,-0.46 -1.06,-0.31 -0.92,-0.45 -0.94,-2.08 -1.29,-0.92 -2.55,-1.28 1.02,-0.8 1.12,0.26 1.05,0.8 0.77,0.79 1.05,1.43 0.66,0.6 z m -13.9,-7.3 0,0 0.02,0.71 -0.53,0.36 -0.59,0.06 -0.51,-0.18 -0.38,-0.38 -0.38,-0.26 -0.12,-0.33 0.31,-0.21 0.35,0.18 1.73,0.33 -0.06,-0.26 -0.04,-0.12 -0.03,-0.2 0.23,0.3 z m -3.77,0.35 0,0 -1.09,0.06 -0.69,-0.47 0.1,-0.41 0.23,-0.09 0.56,0.13 1,0.34 -0.11,0.44 z m 10.93,-5.82 0,0 0.14,0.25 0.76,-0.4 0.72,-0.05 1.41,0.45 -0.93,1.09 -3.34,0.8 -1.15,0.77 -1.14,-0.62 -1.26,-0.38 0.87,-0.66 2.5,-0.56 1.03,-0.92 0.38,0.16 0.01,0.07 z m 29.57,-104.33 0,0 0.68,0.74 0.95,2.03 1.36,1.3 0.39,0.52 0.47,1.41 1.29,2.28 0.57,0.75 0.85,0.3 0.86,0.61 3.29,3.39 0.24,0.64 1.21,2.24 0.5,0.54 0.86,-0.13 0.41,-0.77 0.34,-5.76 0.39,-0.76 0.79,-0.34 1.92,0.31 1.15,0.03 -0.63,0.8 -2.29,0.41 -0.5,0.66 0.1,1.38 0.29,1.03 0.46,0.82 0.62,0.74 0.82,0.78 0.62,0.29 1.76,-0.01 0.77,0.51 0.54,1.19 0.31,1.33 0.11,0.91 0.26,0.94 0.66,0.67 0.95,0.46 2.02,0.65 0.4,0.07 1.06,-0.51 0.6,0.33 0.58,0.53 0.61,0.28 4.35,-0.66 1.25,0.14 1.2,0.56 3.19,2.06 0.04,-1.06 0.56,-0.54 1.85,-0.5 0.11,0.76 0.42,0.39 0.65,0.09 0.82,-0.14 -0.15,-0.29 -0.19,-0.55 -0.15,-0.26 1,0.33 0.96,0.79 1.45,1.55 -1.03,0.14 -0.71,-0.43 -0.45,-0.03 -0.25,1.33 0.17,1.41 1.05,2.4 0.25,1.23 0.38,0.79 0.91,0.3 2.17,0.28 1.7,0.91 0.48,0.13 0.68,-0.16 0.36,-0.36 0.2,-0.36 0.2,-0.16 -0.02,-0.42 -0.43,-0.92 -0.68,-0.93 -1.86,-0.84 -0.77,-1.03 -0.88,-2.27 -0.4,-1.79 -0.33,-0.53 -0.5,-0.29 -1.41,-0.59 -0.29,-0.22 -0.09,-0.81 -0.37,-1.05 -0.74,-0.57 -1.24,0.64 -1.02,-1.1 -0.97,0.9 -1.02,-0.64 -1.92,-2.41 -2.69,-2.32 -0.76,-1.19 -0.49,-0.13 -0.99,0.48 0.61,-1.32 1.14,-1.39 1.31,-0.89 1.11,0.18 2.49,2.11 0.27,0.63 0.46,1.95 0.25,0.4 7.6,5.55 1.45,0.72 3.65,1.14 1.02,0.73 1.01,1.04 2.42,1.99 0.97,0.36 4.21,3.2 1.05,0.54 1,0.32 1.06,0 1.28,-0.34 -0.55,1.46 0.39,0.93 0.72,0.67 0.42,0.67 -0.25,1.53 -1.72,1.86 -0.47,1.34 -0.63,-0.42 -1.23,-1.39 -0.36,-0.29 -4.6,-2.15 -1.16,-0.34 -1.34,-0.14 0.03,0.14 -0.17,0.28 -0.24,0.27 -0.11,0.07 -0.16,0.28 -0.36,-0.11 -0.42,-0.26 -0.64,-0.29 -0.77,-0.71 -0.63,-0.24 -1.64,0.14 -0.58,0.76 0.24,0.84 0.81,0.41 0.83,0.19 0.59,0.46 0.55,0.52 0.67,0.4 0.71,0.16 2,-0.16 1.41,0.59 0.36,1.27 -0.51,1.28 -1.26,0.58 -0.2,0.64 0.45,1.38 0.63,1.33 0.32,0.52 0.81,0.16 1.6,-0.27 1.13,0.13 -0.57,1.36 0.71,-0.19 1.78,-0.9 0.06,-0.09 0.68,-0.4 0.68,-0.09 0.63,-1.16 0.88,-4.09 1.81,-3.44 0.58,-0.76 1.36,-0.24 1.31,0.8 7.68,9.47 1.13,1.04 0.14,0.1 0,0 -0.17,0.15 -0.58,0.57 -1.14,0.46 -2.04,1.6 -0.9,0.42 -1.94,0.49 -1.28,0.06 -1.67,-0.41 -1.41,-0.17 -1.14,3.52 -0.59,0.71 -0.44,1 -0.06,0.72 0.32,1.26 0.35,0.45 0.32,0.22 2.74,-0.01 0.41,0.11 0.15,0.27 -0.11,0.28 -4.04,3.75 -0.37,0.9 -0.05,0.52 0.32,4.96 -2.61,4.34 -0.47,0.56 -0.92,0.81 -0.46,0.15 -2.1,0.45 -0.35,0.15 -0.67,0.43 -0.85,0.4 -1.01,1.42 -2.06,4.97 -0.59,0.3 -0.59,-0.17 -0.42,-0.22 -0.72,-0.69 -0.34,-0.25 -0.33,-0.08 -0.43,0.23 -0.48,0.38 -0.73,1.6 -0.72,-0.75 -0.23,-0.51 0.01,-0.24 0.05,-0.22 0.48,-0.72 0.06,-0.21 -0.03,-0.17 -0.14,-0.2 -0.35,-0.11 -0.61,-0.12 -1.19,-0.09 -1.25,-0.32 -0.17,-0.16 -0.06,-0.19 0.04,-0.46 -0.06,-0.35 -0.15,-0.35 -0.62,-0.96 -0.21,-0.24 -0.31,-0.41 -0.11,-0.19 -0.09,-0.19 -0.03,-0.16 -0.11,0.01 -0.24,0.17 -0.5,0.6 -1.03,0.51 -0.26,0.18 -0.13,0.26 0.01,0.44 0.05,0.33 0.16,0.58 0,0.11 -0.3,0.67 -0.07,0.53 -0.23,0.53 -0.47,0.61 -1.3,0.26 -0.96,0.1 -0.92,-0.07 -0.19,0.01 -0.18,0.25 -0.2,1.12 -1.04,0.15 -1.45,0.43 -0.72,0.4 -0.38,1.03 0.01,0.97 -0.14,0.24 -0.23,0.19 -0.54,-0.07 -0.37,-0.09 -0.82,-0.05 -0.39,-0.07 -0.27,-0.23 -0.36,-0.49 -0.28,-0.48 -0.4,-0.53 -0.39,-0.17 -0.48,0.08 -0.55,0.38 0,0.61 0.12,0.5 0.06,0.48 -0.05,0.44 -0.3,1.24 -0.07,0.6 -0.01,0.54 0.04,0.44 -0.57,0.41 -1.08,0.44 -4.36,0.85 -1.69,-0.12 -3.72,5.27 -0.95,6.25 -0.01,0.01 -0.69,-0.21 -2.62,-0.3 -1.56,0.38 -1.07,0.83 -0.9,0.88 -1.09,0.53 -4.65,0.13 -2.44,-0.63 -0.77,-1.64 -0.53,0 -0.44,1.09 -2.35,-2.79 -0.85,-0.39 -1.56,-0.32 -0.86,-0.83 -1.27,-2.46 -0.75,-0.87 -1.32,-1.21 -1.45,-0.91 -1.14,0.04 -0.77,0.43 -0.26,-0.39 -0.04,-0.72 -0.13,-0.55 -0.86,-1.04 -0.45,-0.73 -0.2,-0.65 -0.52,-1.11 -5.05,-3.69 -0.98,-0.28 -2.51,0.14 -0.89,-0.52 -0.79,-1.16 -1.07,-2.04 -0.88,-0.87 -2.63,-2.03 -0.64,-0.08 -0.49,-0.71 -0.44,-2.62 -0.25,-4.99 -0.56,-2.15 -1.09,-2.16 -0.76,-2.17 0.46,-2.21 0.65,0.77 0.8,0.12 0.67,-0.52 0.28,-1.1 -0.53,-0.79 -2.32,-0.78 -0.53,-0.56 -0.15,-1.34 -0.67,-2.49 -0.15,-1.46 -0.31,-1.3 -1.34,-2.34 -0.31,-1.1 -0.43,-2.58 -1.1,-2.45 -1.46,-2.11 -0.96,-0.98 0.01,0 2.62,-1.16 3.73,-2.35 0.49,-0.44 0.24,-0.31 0.84,-0.77 0.8,-0.49 1.62,-0.75 1.23,-0.38 0.18,0.05 0.16,0.12 0.36,0.46 0.14,0.2 0.14,0.19 0.18,0.09 0.29,0 0.4,-0.44 0.21,-0.33 0.82,-2.26 0.71,-1.89 0.64,-0.33 0.39,0.08 1.66,0.11 0.96,0.18 1.34,-0.05 0.52,-0.09 0.2,-0.2 -0.14,-0.16 -0.32,-0.21 -0.23,-0.36 -0.11,-0.55 0.86,-1.3 0.35,-0.42 0.45,-0.72 0.24,-0.15 0.38,-0.05 0.17,-0.11 0.13,-0.29 0.05,-0.47 -0.02,-0.61 -0.07,-0.47 -0.37,-1.23 -0.23,-1.44 0.23,-0.43 0.44,-0.63 1.07,-1.06 0.74,-0.45 0.6,-0.23 0.31,0.03 0.19,0.08 0.12,0.16 0.07,0.26 0.01,0.46 0.1,0.37 0.21,0.4 0.44,0.44 0.23,0.42 1.09,1.51 0.75,0.35 0.98,0.04 2.78,-0.38 0.41,-0.15 -0.03,-0.26 -0.3,-1.57 0.01,-0.31 0.11,-0.22 0.23,-0.21 1.02,-0.55 0.9,-0.65 -1.44,-2.44 -1.21,-1.27 -3.51,-2.96 -0.26,-0.27 -0.44,-1.35 0.83,-2.24 0.38,-0.22 0.49,-0.25 0.49,-0.02 0.43,-0.07 1.16,-0.37 1.11,-0.03 0.88,-0.18 0.62,-0.32 0.79,-0.57 1.73,-1.82 1.27,-1.09 0.84,-0.47 0.96,-0.35 0.4,-0.28 0.26,-0.36 0.26,-0.82 0.07,-0.45 -0.01,-0.44 -0.15,-0.41 -0.15,-0.29 -0.61,-0.39 0.12,-0.68 0,0 0.14,0.04 1.06,-0.37 z m 12.66,0.85 0,0 1.17,0.03 0.81,-0.41 0.69,-0.6 0.79,-0.55 1.23,-0.36 1,0.07 0.87,0.35 0.81,0.47 0.27,0.32 0.67,1.04 0.3,0.22 0.62,-0.16 1.03,-0.73 0.53,-0.17 0.78,0.36 2.3,1.51 0.83,0.29 0.92,-0.51 0.59,-0.65 0.7,-0.07 1.25,1.23 0.55,0.94 0.15,0.95 -0.19,1.05 -1.54,3.47 0.22,0.75 0.81,1.27 -1.1,0.04 -0.85,0.33 -1.51,1.16 0.34,-1.38 -0.46,-0.63 -0.77,0.24 -0.58,1.25 0.19,0.23 0.31,0.51 0.05,0.55 -0.55,0.33 -0.41,-0.1 -0.27,-0.37 -0.23,-0.47 -0.88,-1.21 -0.35,-0.73 -0.44,-0.69 -0.88,-0.69 -1.02,0.49 -1.54,-0.33 -1.53,-0.73 -0.99,-0.74 -0.19,-0.67 0.29,-0.82 0.42,-0.86 0.21,-0.81 -0.34,-0.56 -0.78,-0.37 -1.37,-0.39 0.36,0.66 0.14,0.67 -0.11,0.66 -0.39,0.64 -0.49,-1.58 -0.44,0 -0.72,1.1 -1.17,0.32 -1.09,-0.47 -0.49,-1.23 -0.61,-0.92 -1.24,-1.01 -0.9,-1.28 0.36,-1.78 -0.53,-0.52 1.38,0.04 0.99,0.64 0.91,0.81 1.11,0.56 z m 9.32,-7.9 0,0 -1.71,0.04 -1.82,-1.91 -2.86,-4.47 0.54,-1.03 -0.8,-1.17 -1.27,-1 -0.87,-0.54 1.76,-0.28 1.56,1.28 1.13,1.91 0.91,3.32 1.11,1.29 1.3,1.19 1.02,1.37 z m -16.43,-4.51 0,0 0.63,0.27 1.77,-0.26 0.85,0.28 0.49,0.69 0.33,0.79 0.51,0.57 1.06,0.11 -0.93,-0.58 0.29,-0.49 0.31,-0.42 0.37,-0.36 0.41,-0.31 0.54,0.93 0.71,0.47 0.7,-0.11 0.54,-0.81 0.57,1.32 -0.78,0.57 -1.3,0.3 -0.98,0.49 0.83,0.22 0.61,0.46 0.52,0.51 0.53,0.39 0.75,0.26 1.48,0.31 0.74,0.49 -1.61,3.23 -1.07,1.3 -0.78,-0.8 -0.33,0.15 -0.82,0.23 -0.32,0.16 -0.23,-0.6 -0.19,-0.32 -0.56,-0.67 -0.3,-1.55 -1.51,-0.54 -1.2,0.62 0.62,1.96 -0.92,-0.42 -2.52,-1.51 -0.51,-0.43 -0.49,-1.15 -2.28,-1.63 -0.7,-1.2 1.17,-0.43 0.93,-1 0.61,-1.27 0.22,-1.25 0.11,-2.81 -0.25,-0.87 -0.79,-1.33 1.08,0.17 1.11,0.37 0.88,0.69 0.35,1.09 -0.4,0.71 -0.78,0.78 -0.49,0.96 0.42,1.27 z m -15.03,-15.51 0,0 0.57,0.97 1.42,-0.8 1.83,0.47 1.8,1.18 1.34,1.3 0.68,0.96 0.63,1.15 0.46,1.21 0.28,2.56 0.33,0.81 1.52,1.72 0.61,0.01 0.99,0.39 0.89,0.13 -1.19,1.18 -1.72,-0.47 -3.48,-2.3 -1.56,-0.31 -1.73,0 -1.81,-0.37 -1.78,-1.43 1.51,-0.96 -0.68,-1.29 -1.45,-0.75 -0.81,0.65 -0.09,0.72 -0.27,0.8 -0.48,0.5 -0.66,-0.2 -0.45,-0.82 -0.03,-0.96 0.32,-0.61 0.64,0.28 0.02,-1.35 -1.14,-1.53 -1.67,-0.74 -1.6,1.02 -0.37,-0.4 -0.32,-0.09 -0.34,0.02 -0.44,-0.1 0.99,-1.25 1.41,-0.39 2.53,0.06 2.3,-0.92 1,-0.05 z"
     title="Camagüey"
     id="CU-09" />
  <path
     d="m 443.66335,196.1983 0,0 -1.23,1.05 -1.73,-0.59 -1.61,-1.34 -0.84,-1.21 1.4,-0.3 1.5,0.63 2.51,1.76 z m -12.53,-7.25 0,0 0.02,0.98 3.52,-0.1 1.29,0.74 0.82,2.02 -0.53,0 -1.22,-0.9 -5.01,-0.59 -1.63,-1.65 0.88,-1.32 0.7,-0.63 0.68,0.05 0.34,0.6 0.14,0.8 z m -4.05,-1.83 0,0 -0.44,0.42 -0.2,-0.48 -0.25,-0.29 -1.7,-0.45 -3.6,-2.37 -0.76,-0.86 0.92,-0.15 1.3,0.09 1.18,0.33 0.51,0.54 0.83,0.34 1.69,0.2 1.34,0.47 -0.2,1.12 -0.62,1.09 z m -14.27,-12.51 0,0 3.18,1.94 2.77,2.73 1.82,2.24 -0.36,-0.04 -1.11,0.04 0.2,0.43 0.29,1.14 -2.03,-1.04 -1.35,-1.24 -2.48,-2.9 0,-0.57 1.25,0.48 0.92,0.87 0.81,0.99 0.93,0.84 -0.94,-1.54 -1.58,-1.98 -1.81,-1.55 -1.58,-0.21 0,0.57 0.24,0.27 0.07,0.15 0.04,0.19 0.19,0.39 -0.82,-0.24 -0.69,-0.41 -0.57,-0.6 -0.41,-0.79 3.02,-0.16 z m -10.71,-8.07 0,0 2.81,2.95 -1.1,0.46 -1.2,0.03 -1.14,-0.35 -0.96,-0.71 0.48,0.04 1.47,-0.04 -0.31,-0.83 -0.52,-0.52 -0.59,-0.11 -0.53,0.41 -1.87,-1.38 -0.62,-0.72 2.26,-0.33 1.82,1.1 z m 28.95,-99.01 0,0 7.05,0.81 3.35,-0.18 0.36,0.78 1.37,4.5 0.26,-0.19 0.67,-0.34 0.72,1 0.66,-0.61 1.11,-2.46 -0.92,-1.3 -0.49,-0.49 -0.59,-0.36 0,-0.53 2.12,0.29 2.29,2.31 7.81,2.78 1.01,0.71 0.61,0.99 1.42,1.22 1.64,1.11 1.26,0.66 1.7,0.52 4.31,0.74 1.31,-0.2 -0.03,0.52 0.07,1.08 -0.04,0.51 0.74,-0.36 0.28,-0.21 0.49,0.77 0.67,1.48 0.51,0.67 0.65,0.49 1.28,0.67 0.56,0.47 0.55,0.31 0.71,0.01 0.75,-0.07 0.67,0.04 2.45,1.01 1.11,0.31 3.55,0.26 0.62,0.33 0.14,0.76 0.06,0.88 0.37,0.66 0.6,0.15 1.83,-0.02 -0.24,0.12 -0.23,0.29 0.75,0.7 0.89,0.35 0.92,0.21 0.76,0.27 -0.12,0.68 0.61,0.39 0.15,0.29 0.15,0.41 0.01,0.44 -0.07,0.45 -0.26,0.82 -0.26,0.36 -0.4,0.28 -0.96,0.35 -0.84,0.47 -1.27,1.09 -1.73,1.82 -0.79,0.57 -0.62,0.32 -0.88,0.18 -1.11,0.03 -1.16,0.37 -0.43,0.07 -0.49,0.02 -0.49,0.25 -0.38,0.22 -0.83,2.24 0.44,1.35 0.26,0.27 3.51,2.96 1.21,1.27 1.44,2.44 -0.9,0.65 -1.02,0.55 -0.23,0.21 -0.11,0.22 -0.01,0.31 0.3,1.57 0.03,0.26 -0.41,0.15 -2.78,0.38 -0.98,-0.04 -0.75,-0.35 -1.09,-1.51 -0.23,-0.42 -0.44,-0.44 -0.21,-0.4 -0.1,-0.37 -0.01,-0.46 -0.07,-0.26 -0.12,-0.16 -0.19,-0.08 -0.31,-0.03 -0.6,0.23 -0.74,0.45 -1.07,1.06 -0.44,0.63 -0.23,0.43 0.23,1.44 0.37,1.23 0.07,0.47 0.02,0.61 -0.05,0.47 -0.13,0.29 -0.17,0.11 -0.38,0.05 -0.24,0.15 -0.45,0.72 -0.35,0.42 -0.86,1.3 0.11,0.55 0.23,0.36 0.32,0.21 0.14,0.16 -0.2,0.2 -0.52,0.09 -1.34,0.05 -0.96,-0.18 -1.66,-0.11 -0.39,-0.08 -0.64,0.33 -0.71,1.89 -0.82,2.26 -0.21,0.33 -0.4,0.44 -0.29,0 -0.18,-0.09 -0.14,-0.19 -0.14,-0.2 -0.36,-0.46 -0.16,-0.12 -0.18,-0.05 -1.23,0.38 -1.62,0.75 -0.8,0.49 -0.84,0.77 -0.24,0.31 -0.49,0.44 -3.73,2.35 -2.62,1.16 -0.01,0 -0.53,-0.54 -1.17,-0.79 -1.12,-0.42 -3.79,-0.59 -0.88,-0.29 -0.34,-0.57 0.46,-1.06 0.81,0.46 0.91,0.16 1.96,-0.05 0.29,-0.35 -0.36,-0.79 -0.9,-1.23 -0.5,-0.46 -0.73,-0.53 -1.48,-0.85 -1.05,-0.31 -0.52,0.07 -0.46,0.31 -0.9,0.41 -3.31,0.77 -3.33,0.33 -0.36,0.14 -0.4,0.35 -0.32,0.42 -0.14,0.38 -0.24,0.29 -0.55,0.06 -2.19,-0.13 -0.86,-0.18 -0.77,-0.06 -0.35,-1.6 -0.21,-2.35 0.21,-2.02 -0.42,-1.01 -1.56,-1.12 -1.77,-0.78 -1.04,1.57 0,1.23 -0.84,1.01 -2.08,0.89 -1.98,0 -0.62,-0.89 0.41,-1.35 0.32,-2.13 -0.53,-1.23 -1.14,-1.79 0.52,-1.24 1.56,-3.36 0.73,-3.03 0.73,-1.68 1.04,-2.02 0.83,-1.69 0.42,-1.57 0.83,-0.56 1.15,0.11 1.04,0.23 0.42,-0.9 1.25,-1.91 1.04,-1.91 0,-1.8 -0.31,-1.35 -0.94,-0.45 -1.56,-0.78 -2.19,-1.8 -1.15,-1.01 -0.1,-1.58 1.04,-2.47 -0.1,-2.14 0.93,-0.9 0.63,-1.8 0.94,-1.68 1.04,-1.8 0.73,-1.47 0.62,-2.47 0.73,-1.58 0.42,-0.9 0.62,-0.56 0.52,-0.56 0.21,-2.37 0.3,-1.09 z m 14.19,-11.06 0,0 -0.53,0.86 -0.18,0.48 -1.3,0.45 -0.65,-0.02 -0.13,-0.5 -0.02,-1.27 0.42,-0.15 1,0.29 0.67,-0.09 0.09,-0.58 0.16,-0.22 0.51,0.26 -0.04,0.49 z m 26.95,-0.11 0,0 0.82,1.13 -0.26,-0.11 -0.67,-0.37 0.32,1.05 4.79,4.93 0.26,0.68 -0.21,0.76 -0.52,-0.01 -0.64,-0.32 -0.58,-0.17 -8.88,2.06 0,-0.47 0.15,-0.24 0.18,-0.19 0.14,-0.32 0.06,-0.6 0.21,-0.29 0.47,0.04 0.5,0.11 0.29,-0.1 0.06,-0.73 -0.25,-0.74 -0.59,-0.35 -0.95,0.48 -1.4,0.62 -1.93,0.26 -3.24,-0.07 -1.63,-0.49 -1.96,-1.38 -2.96,-0.56 -2.06,-0.66 -1.26,-0.86 1.03,-0.85 -1.1,-1.23 -1.46,1.11 -1.16,0.63 -0.19,-2.63 0.27,0.21 0.67,0.32 0.24,-1.53 0.65,-0.17 0.76,0.36 0.56,0.02 0.78,-0.13 3.18,0.66 1.74,1.11 2.01,0.17 2.03,-0.17 1.81,0.16 1.74,-0.11 1.14,-0.92 0.98,-1.06 1.27,-0.5 1.62,0.16 1.72,0.49 1.45,0.81 z"
     title="Ciego de Ávila"
     id="CU-08" />
  <path
     d="m 401.39335,66.4183 0,0 2.1,0.99 1.9,-0.31 0.73,0.73 1.34,0.97 1.3,0.46 0.59,-0.84 0.77,-0.09 3.74,0.81 1.35,0.02 0.77,-0.55 0.16,-0.49 0.18,-0.35 0.89,-0.1 0.72,0.18 1.11,0.69 0.83,0.15 1.54,-0.23 2.68,-1.02 1.37,-0.34 1.63,-0.02 3.96,0.45 -0.3,1.09 -0.21,2.37 -0.52,0.56 -0.62,0.56 -0.42,0.9 -0.73,1.58 -0.62,2.47 -0.73,1.47 -1.04,1.8 -0.94,1.68 -0.63,1.8 -0.93,0.9 0.1,2.14 -1.04,2.47 0.1,1.58 1.15,1.01 2.19,1.8 1.56,0.78 0.94,0.45 0.31,1.35 0,1.8 -1.04,1.91 -1.25,1.91 -0.42,0.9 -1.04,-0.23 -1.15,-0.11 -0.83,0.56 -0.42,1.57 -0.83,1.69 -1.04,2.02 -0.73,1.68 -0.73,3.03 -1.56,3.36 -0.52,1.24 1.14,1.79 0.53,1.23 -0.32,2.13 -0.41,1.35 0.62,0.89 1.98,0 2.08,-0.89 0.84,-1.01 0,-1.23 1.04,-1.57 1.77,0.78 1.56,1.12 0.42,1.01 -0.21,2.02 0.21,2.35 0.35,1.6 -0.76,0.31 -0.49,-0.58 -1.23,0.69 -1.3,0.31 -3.09,0.06 -1.4,0.24 -3.77,1.86 -2.94,0.79 -2.83,0.25 -2.9,-0.27 -5.73,-1.67 -1.19,-0.73 -1.32,-1.24 -1.01,-0.15 -3.71,0.45 -1.41,-0.01 -1.57,-0.5 -0.68,-0.41 -0.68,-0.67 -1.09,-1.83 -0.63,-0.68 -0.28,0.65 -0.21,0.78 -0.54,0.51 -0.71,0.11 -0.72,-0.38 -0.68,-0.62 -0.41,-0.22 -3.06,-0.86 -0.43,-0.17 -0.57,-0.49 -0.42,-0.72 -0.34,-0.87 -0.5,-0.73 -0.91,-0.3 -5.06,-0.14 -4.82,-1.4 -1.83,0.03 -0.81,1.24 -0.49,1.35 -1.21,-0.19 -1.58,-0.83 -1.61,-0.59 0,-0.53 1.47,-0.57 0,-0.48 -1.11,-0.26 -0.23,-0.86 0.07,-1.09 -0.2,-0.94 -1.21,0.89 -1.26,0.39 -1.39,0.02 -1.59,-0.26 -1.46,-0.53 -0.83,-0.19 -0.65,0.15 -0.19,0.55 0.45,0.52 0.71,0.38 0.59,0.13 -0.88,0.96 -1.33,-0.64 -1.22,-1.38 -0.53,-1.26 -0.16,-1.65 -0.49,-1.45 -0.85,-1.03 -1.22,-0.39 -1.2,-0.2 0,-0.01 0.16,-3.2 0.08,-0.39 0.26,-0.38 0.49,-0.54 1.94,-1.57 2.58,-2.68 2.54,-1.19 1.33,-1.09 0.49,-0.14 1.06,0.09 0.36,-0.23 0.2,-0.4 0.15,-0.65 0.27,-0.61 0.71,-0.91 0.73,-0.31 0.68,-0.09 4.15,1 0.52,0.22 0.35,0.27 1.02,0.54 2.13,0.16 1.77,-1.52 1.41,-2.32 1.18,-2.38 0.38,-1.42 0.06,-1.01 -0.27,-0.42 -0.32,-0.16 -0.42,-0.02 -0.36,0.04 -0.31,-0.07 -0.22,-0.23 -0.26,-0.5 -0.32,-0.87 -1.04,-2.05 -0.46,-1.33 -0.03,-0.8 0.15,-0.53 0.78,-0.7 2.37,0.06 0.83,0.69 0.26,0.5 0.36,0.53 0.75,0.66 0.74,0.19 0.62,-0.04 0.52,-0.28 1.02,-0.7 0.95,-0.1 0.66,0.05 2.93,0.89 1.46,-0.47 0.97,0.44 0.62,0.42 1.01,0.42 1.01,-0.13 0.8,-0.34 0.64,-0.59 0.61,-0.82 0.53,-1.08 0.37,-0.97 0.39,-1.39 1.28,-1.32 0.85,-0.45 1.26,-0.47 0.88,-0.06 0.7,0.16 1.78,0.94 1.84,0.3 0.22,-1.39 -0.08,-1.23 0.18,-0.93 0.28,-0.96 -0.05,-0.57 -2.03,-2.81 -2.4,-4.82 -0.6,-0.97 -0.83,-0.65 1.32,-2.48 -0.03,-1.78 0.04,-0.08 5.36,4.6 z m 9.69,-16.36 0,0 -0.49,0 0,-0.52 -0.23,-0.43 -0.58,-0.24 0.63,-0.26 2.78,-0.12 -0.92,0.78 -1.19,0.79 z m 17.54,-1.92 0,0 -1.65,0.89 -0.4,-1.07 -1.05,-0.41 -4.29,-0.28 -0.73,-0.3 -0.9,-0.59 1.21,-0.17 6.71,0.43 1.12,0.65 -0.02,0.85 z"
     title="Sancti Spíritus"
     id="CU-07" />
  <path
     d="m 99.08335,100.9383 0,0 1.09,0.38 0.18,-0.01 0.36,0.02 -0.38,0.14 -1.4,0.04 -1.61,-0.1 -1.08,-0.49 0.71,-0.4 2.13,0.42 z m 38.41,-80.86 0,0 0.75,0.24 0.37,-0.21 0.43,-0.44 0.53,-0.25 0.67,0.37 0.45,0.8 -0.46,0.25 -0.72,0.11 -0.29,0.43 0.29,0.81 0.44,0.26 0.56,-0.27 0.66,-0.8 -0.15,1.54 1.25,0.1 1.42,-0.95 -0.07,0.43 0.33,2.8 0,0.36 -0.26,1.54 1.81,3.51 0.32,1.89 -0.09,0.69 -1.33,1.58 -0.37,0.32 -0.57,0.21 -1.74,0.2 -0.33,0.14 -0.1,0.15 0.11,0.14 0.16,0.12 0.79,0.36 0.29,0.27 0.36,0.49 1.18,2.04 0.87,1.17 0.25,0.19 0.66,0.37 0.4,0.31 0.46,0.63 0.54,0.96 1.41,3.3 0.32,0.61 2.37,2.68 0.56,0.84 0.21,0.45 0.03,0.31 0,0 -1.76,0.59 -4.3,3.67 -0.85,0.56 -1.63,0.14 -1.1,0.35 -4.77,2.5 -2.34,1.57 -1.95,2.06 -4.09,7.86 -1.69,1.68 -2.32,0.27 -2.36,-0.68 -0.97,-0.08 -1.02,0.28 -0.04,0.19 0.04,1.09 -0.12,0.29 -0.28,-0.02 -0.33,-0.1 -0.51,0.19 -0.33,-0.1 -0.27,-0.03 -0.12,0.31 0.04,1.09 -0.04,0.21 -2.58,1.68 -0.88,0.96 -0.38,0.65 -0.06,0.37 0.04,0.27 -0.09,0.34 -0.47,1.12 -0.35,0.49 -0.64,0.5 -0.23,-0.23 -0.11,-0.25 -0.04,0.91 -0.51,0.53 -0.4,-0.79 -0.59,-0.25 -0.63,0.09 -0.06,1.27 -1.18,1.29 -3.56,0.31 -3.69,-0.47 -3.17,-1.3 0.6,-0.65 -0.19,-0.79 -0.53,-0.87 -0.41,-0.91 -0.49,0 -1.01,2.07 -1.77,1.86 -2.1,1.35 -1.95,0.52 0.14,-0.27 0.16,-0.53 0.14,-0.3 -7.92,1.17 -0.38,-0.07 -0.28,-0.3 -0.2,-0.53 -0.09,-0.52 0.08,-0.23 -0.82,0.25 -0.85,1.09 -1.04,0.24 -5.56,-0.32 -1.58,0.32 -2.94,2.91 -0.09,0.58 -0.54,2.13 -0.34,0.76 0.37,0.5 0.11,0.46 0.05,1.15 -0.81,-0.69 -0.79,0.18 -0.49,0.83 0.09,1.26 0.54,1.02 0.7,0.37 0.83,-0.2 0.91,-0.71 -0.41,1.67 -2.47,1.84 -0.59,1.56 0.26,0.37 0.48,0.44 0.29,0.57 -0.32,0.73 -0.67,0.66 -0.77,0.6 -0.84,0.44 -0.87,0.17 -1.35,-0.33 -2.7,-1.45 -1.59,-0.33 -1.56,0.36 -2.76,1.7 -1.32,0.57 -0.72,0.06 -1.49,-0.11 -0.72,0.05 -0.79,0.33 -1.62,1.03 -2.24,0.67 -8.44,7.11 -3.07,1.68 -3.02,0.28 -0.93,-1.52 2.86,-6.06 0.56,-3.04 -1.62,-2.25 -2.85,-0.49 -3.19,0.48 -5.68,1.69 -2.77,1.33 -7.22,4.83 -2.88,0.71 -3.11,-0.05 -3,-0.94 -0.98,-0.8 -0.59,-1.09 -0.17,-1.27 0.26,-1.29 0.24,-0.5 0.37,-0.63 0.45,-0.51 0.48,-0.19 0.34,0.19 0.23,0.4 0.19,0.45 0.22,0.37 0.52,0.41 0.58,0.24 0.63,0.07 0.65,-0.06 1.22,-0.51 0.84,-0.88 0.04,-0.98 -1.18,-0.83 1.22,-0.67 1.09,0 0.68,0.75 -0.01,1.54 5.86,-3.16 5.2,-1.54 6.09,-2.75 3.89,-2.84 0.54,-0.29 0.95,-0.08 0.87,0.13 0.45,0.35 -0.32,0.61 2.25,1 1.67,-0.47 1.62,-1 2.1,-0.54 1.04,0.32 1.21,0.76 1.01,0.95 0.42,0.87 0.35,0.45 1.94,-1.41 1.09,0.17 1.02,-4.27 -0.86,0.98 -0.75,1.34 -0.81,0.72 -1,-0.88 -0.42,-1.47 0.09,-1.14 -0.25,-0.89 -1.41,-0.71 0.66,-1.65 0.35,-0.51 -1.33,-0.15 -1.44,-0.53 -1.31,-0.71 -0.89,-0.72 -0.58,-1.09 -0.47,-1.29 -0.66,-1.01 -1.18,-0.25 0.72,-0.67 0.8,-1.2 0.65,-1.41 0.28,-1.28 0.13,-1.8 0.31,-1.66 1.02,-3.4 0.18,-0.19 1.04,-1.97 0.37,-0.2 0.77,-0.08 0.35,-0.23 0.29,-0.49 0.28,-0.98 0.19,-0.37 1.52,-2.25 1.06,-1.2 1.28,-0.79 0,-0.57 -1.47,0 1.24,-1.01 3.06,-0.57 1.34,-0.78 0.85,-1.17 0.9,-1.73 0.33,-1.68 -0.84,-0.99 0,-0.58 0.76,0.23 0.71,0.35 1.02,-0.78 0.97,-0.15 0.83,0.43 0.6,0.98 0.63,-2.9 0.39,-0.75 0.7,-0.29 1.85,-0.17 0.38,-0.36 0.05,-0.78 0.23,-1.32 0.51,-0.93 0.92,0.38 0.95,0.62 0.76,-0.4 0.68,-0.85 0.78,-0.72 -0.54,-0.88 -0.74,-0.55 -0.95,-0.21 -1.18,0.11 0.32,-0.61 0.52,-0.54 0.65,-0.39 0.68,-0.15 1.15,0.42 0.62,0.95 0.47,0.94 0.69,0.43 0.96,-0.17 0.86,-0.42 4.35,-3.17 0.98,1.02 0.68,-1.65 1.09,-0.72 3.12,-0.23 1.18,-0.23 4.93,-2.52 2.48,-0.89 1.17,-0.12 0.8,0.14 0.9,0.43 0.78,0.01 0.5,-0.16 0.99,-0.65 0.52,-0.25 0,-0.58 -0.52,0.25 -0.51,0.33 -0.09,-0.28 0.02,-0.18 -0.06,-0.08 -0.36,-0.04 1.53,-0.97 1.57,-0.47 3.57,-0.14 0.3,-0.47 0.89,-2.45 0.46,-0.25 2.96,-0.02 -0.18,0.54 -0.11,0.22 -0.2,0.3 1.4,0.26 0.84,-0.8 0.57,-1.19 0.62,-0.92 1.06,-0.44 0.82,0.33 0.87,0.65 1.2,0.52 -0.51,0.8 0.78,-0.24 1.14,-0.72 0.58,-0.61 0.43,-1.27 1.07,-1.69 1.34,-1.47 1.29,-0.63 0.97,-0.32 3.69,-2.38 1.45,-0.61 1.33,-0.07 1.16,0.41 0.95,0.85 0,0.48 -0.66,0.5 -0.28,0.93 0.14,1.09 0.55,0.98 0.87,0.4 0.74,-0.48 0.62,-0.78 0.5,-0.52 -1.3,-1.08 0.08,-1.01 1.05,-0.89 1.59,-0.68 2.98,-0.58 0.56,-0.29 0.93,-0.64 0.42,-0.13 0.74,0.13 0.99,0.69 z"
     title="Pinar del Río"
     id="CU-01" />
  <path
     d="m 204.92335,131.5983 0,0 -1.54,0.06 -0.31,-0.22 0.87,-0.32 1.43,-1.2 0.78,-0.23 0.67,-0.41 0.53,-0.6 0.44,-0.35 2.04,-0.8 0.85,-0.03 0.81,-0.39 0.64,-0.64 0.25,-0.54 0.09,-0.34 0.12,-0.11 0.54,0.61 0.06,1.35 -1.22,1.03 -2.83,1.06 -2.08,1.05 -0.48,0.13 -0.37,0.25 -0.28,0.33 -1.01,0.31 z m 15.62,-5.48 0,0 -2.24,1.83 -1.25,0.01 -0.97,-1 -0.23,-1.03 0.2,0.13 0.76,0.84 1.19,-0.13 0.96,-0.78 0.29,-0.46 -0.28,-0.02 0.21,-0.15 2.14,-0.94 0.47,-0.16 0.97,-0.2 0.09,0.39 -1.06,0.86 -1.25,0.81 z m 32.37,-2.19 0,0 -5.66,3.8 -2.22,0.97 -2.36,0.22 -0.01,-1.49 0.68,-0.4 1.99,0.32 0.79,-0.57 0.67,-1.14 0.69,-0.88 0.81,0.25 0.93,0.44 1.05,-0.28 0.84,-0.63 0.35,-0.61 0.44,-1.32 1.03,-0.94 2.24,-1.44 0.59,-0.23 0.43,0.32 0.17,0.48 -0.21,0.24 -0.31,0.18 -2.93,2.71 z m -103.11,-20.48 0,0 5.83,1.45 4.01,1.14 1.27,0.56 0.97,0.85 0.39,1.21 -0.25,1.42 -0.38,0.95 0.07,0.87 1.05,1.25 3.21,2.64 0.96,-0.06 0.71,0.37 0.48,0.85 0.36,0.96 0.38,0.72 0.01,0.59 -0.38,0.9 -0.81,1.45 -0.53,0 0.38,0.65 0.12,0.66 -0.14,0.66 -0.36,0.65 1.62,1.03 0.85,0.41 0.99,0.14 0,0.57 -0.51,0.91 0.58,0.98 1.03,0.82 0.85,0.45 -0.72,1.17 -1.47,1.58 -1.66,1.38 -1.29,0.59 -1.34,0.26 -9.14,4.62 -5.46,1.99 -5.06,0.56 -0.85,-0.32 -0.65,-0.72 -4.68,-0.09 -0.69,-0.22 -1.4,-0.62 -0.84,-0.21 -2.57,0.05 -0.64,-0.31 -2.34,-3.12 -0.89,-0.82 -2.01,-1.34 -0.74,-0.87 -0.66,-1.47 -0.49,-2.09 -0.81,-1.91 -0.17,-0.77 0.49,0 0.79,0.79 3.6,2.65 0.47,1.07 1.13,0.92 1.38,0.64 1.2,0.23 2.95,0 0.24,-0.31 2,-1.74 1.13,-0.75 0.55,-0.49 0.23,-0.62 0.23,0.07 0.36,0.46 0.08,0.78 -0.67,1.07 0.49,0.49 1.29,-2.39 -0.36,-0.89 -2.13,-0.35 -0.84,-0.82 -6.14,-10.84 -0.87,-3.06 0.75,-3.3 3.03,-2.4 0.39,-1 0.62,-0.8 1.44,-1.03 1.63,-0.83 1.19,-0.26 -0.79,-0.37 -0.78,-0.15 -0.83,0 -0.86,-0.44 -0.04,-0.15 0.46,-0.18 0.67,-0.51 9.33,1.14 z m 18.32,0.91 0,0 -1.95,0.09 -1.98,-0.87 -0.73,-1.32 1.64,-0.42 2.67,1.22 1.19,0.93 -0.84,0.37 z"
     title="Isla de la Juventud"
     id="CU-99" />
  <path
     d="m 324.47335,54.5483 0,0 1.77,-0.35 0.6,0.12 0.34,0.42 -0.04,1.12 -0.14,0.73 -0.35,1.03 -0.06,0.34 0.05,0.21 0.11,0.18 0.32,0.1 0.39,-0.01 0.81,-0.28 0.46,-0.23 0.8,-0.53 0.33,-0.13 0.39,-0.03 0.55,0.02 0.39,-0.02 0.23,-0.13 0.14,-0.21 0.54,-1.72 0.26,-0.51 0.24,-0.29 0.25,-0.1 0.42,-0.01 1,0.09 0.46,0 0.43,-0.08 0.21,-0.14 0.33,-0.38 0.19,-0.15 0.15,0.23 0.1,0.51 0,1.37 -0.11,0.65 -0.17,0.38 -0.21,0.11 -0.28,0.08 -0.23,0.11 -0.22,0.19 -0.02,0.4 0.08,0.68 0.8,1.87 0.25,0.4 1.36,0.77 0.22,0.79 -0.28,0.67 -0.12,0.56 0.04,0.44 0.29,0.56 0.51,0.27 0.27,0.3 0.2,0.33 -0.23,1.02 -1.36,1.49 0.03,0.83 0.25,0.5 0.44,0.61 2.6,2.55 0.88,0.46 0.51,0.1 0.51,-0.04 1.07,-0.33 0.37,-0.04 0.3,0.07 0.17,0.14 0.12,0.28 0.23,1.73 0.19,0.7 0.4,0.88 0.62,1.15 0.88,1.16 1.8,0.83 -0.78,2.49 -0.26,0.45 -0.28,0.64 -0.08,0.7 0.27,2.99 -0.05,1.52 0.05,0.65 0.75,3.06 0.37,1.05 0.48,0.95 1.34,1.12 0.38,0.53 0.18,0.63 0.12,2.05 -0.05,1.16 0.11,0.73 0.24,0.67 1.45,1.11 0.11,0.16 -0.06,1.05 -2.58,2.68 -1.94,1.57 -0.49,0.54 -0.26,0.38 -0.08,0.39 -0.16,3.2 0,0.01 -0.27,-0.05 -2.94,-1.12 -3.02,-0.66 -2.11,-1.77 -3.74,-1.2 -2.2,-1.9 -7.81,-8.41 -0.14,-0.34 0,-0.4 -0.05,-0.43 -0.3,-0.41 -0.31,-0.06 -0.87,0.14 -0.29,-0.08 -0.77,-0.7 -0.22,-0.49 0.01,-0.92 1.02,0.2 1.24,-0.06 1.23,-0.38 0.96,-0.82 -1.1,0.29 -0.41,0.19 0.29,-0.67 0.4,-0.65 0.29,-0.64 -0.01,-0.63 -0.57,-0.23 -0.86,0.23 -0.65,-0.04 0.09,-1.01 -1.41,0 -0.91,-0.56 -0.08,-0.95 1.02,-1.17 -1.71,-1.06 -0.67,-0.66 -0.55,-0.92 -0.49,0.79 -0.88,0.28 -1.06,-0.13 -1.03,-0.46 -0.39,1.65 0.67,1.05 2.16,1.57 1.05,1.44 0.94,1.76 0.44,1.88 -0.44,1.82 -3.07,-1.17 -5.69,0.16 -0.01,0 -0.53,-0.85 -0.15,-0.48 -0.13,-0.87 -0.03,-1.35 -0.07,-0.4 -0.15,-0.35 -0.2,-0.31 -0.51,-0.56 -0.47,-0.18 -0.77,-0.06 -1.5,0.19 -1.02,0.27 -0.66,0.04 -0.34,-0.14 -0.46,-0.46 -0.37,-0.16 -0.66,0.01 -0.53,0.09 -1.14,0.04 -0.28,0.1 -0.2,0.17 -0.19,0.23 -0.21,0.19 -0.26,0 -0.52,-0.2 -0.99,-0.61 -2.49,-1.03 -2.25,-1.29 -0.77,-1.19 -0.88,-0.85 -3.02,-2.13 0.3,-1.44 -0.07,-0.64 -0.1,-0.29 -0.04,-0.35 -0.07,-0.18 -0.15,-0.08 -0.29,-0.01 -1.15,0.14 -0.3,-0.09 -0.2,-0.15 -0.13,-0.26 -0.11,-0.4 -0.08,-0.7 0.07,-0.58 0.15,-0.67 0.38,-1.08 0.09,-0.61 0,-0.4 -0.22,-0.51 -0.09,-0.31 0.09,-0.41 0.22,-0.45 0.56,-0.84 0.09,-0.4 -0.09,-0.32 -0.25,-0.15 -0.22,-0.08 -0.2,-0.01 -0.23,0.08 -0.33,0.16 -0.35,0.12 -0.28,0.02 -0.18,-0.04 -0.07,-0.16 0.16,-0.4 1.11,-1.82 0.25,-0.53 0.45,-1.27 0.04,-0.32 -0.11,-0.18 -0.28,-0.13 -0.37,-0.07 -0.21,-0.11 -0.02,-0.14 0.54,-0.65 0.86,-0.62 0.38,-0.35 0.22,-0.25 0.84,-0.81 0.44,-0.28 1.51,-0.71 0.86,-0.54 0.28,-0.23 0.62,-0.43 0.56,-0.1 0.79,0.03 3.61,0.96 0.53,0.03 1.68,-0.14 6.6,0.71 0.69,0.24 0.35,0.04 0.46,-0.02 1.58,-0.75 0.49,-0.17 0.44,-0.1 0.6,-0.07 0.29,-0.06 0.32,-0.33 0.46,-0.64 1.57,-2.97 0.25,-0.31 1.44,-0.99 2.97,-1.74 0.87,-1.01 0.2,-0.3 0.27,-0.25 0.34,-0.19 0.6,0.05 0.37,0.13 1.71,1.42 z"
     title="Cienfuegos"
     id="CU-06" />
</svg>
