<?xml version="1.0" encoding="UTF-8" standalone="no"?>
<!-- Created for MapSVG plugin: http://mapsvg.com -->
<svg
   xmlns:mapsvg="http://mapsvg.com"
   xmlns:dc="http://purl.org/dc/elements/1.1/"
   xmlns:rdf="http://www.w3.org/1999/02/22-rdf-syntax-ns#"
   xmlns:svg="http://www.w3.org/2000/svg"
   xmlns="http://www.w3.org/2000/svg"
   mapsvg:geoViewBox="32.368821 35.695073 34.589764 34.565124"
   width="607.74274"
   height="360.26913">
 
  <path
     d="m 174.86107,137.54181 3.27,0.51 6.23,3.09 3.79,0.51 0.89,-1.24 7.19,-0.29 1.15,1.08 4,-1.95 1.62,-1.95 -0.18,3.57 2.33,0.26 0.97,1.63 3.92,1.95 2.25,-1.63 5.21,0.45 2.46,-0.96 4.5,0.19 2.96,1.59 0.84,-0.48 -0.71,-0.96 0.97,-0.22 2.93,2.01 -0.18,-2.36 0.97,-0.77 0.71,-0.16 0.18,1.56 2.67,0.32 -1.2,-1.79 0.86,-0.86 3.03,1.44 0.21,1.37 4.45,0.38 1.33,-0.92 1.49,1.75 1.57,0.35 1.07,3.63 3.92,-0.7 0.86,1.31 0.63,-3.48 2.33,0.35 0.39,-2.42 1.57,1.02 0.99,-1.56 1.28,1.05 0.81,-1.15 1.99,0.51 3.56,3.22 0.81,-1.53 6.59,1.21 2.17,2.39 1.33,-1.4 10.12,-0.19 2.43,0.73 8.03,-1.18 6.54,-3.16 1.78,0.16 0.92,-2.1 -0.84,-1.98 0.39,-1.85 3.48,-3.92 8.61,0.64 3.22,-0.41 0.86,-1.31 3.82,0.89 -1.1,1.15 -2.22,0.16 1.94,0.7 5.07,-2.23 3.35,1.53 2.07,-0.86 0,0 -0.24,3.48 1.67,5.01 -0.26,2.87 2.8,1.28 1.41,3.35 -0.44,1.31 -2.64,0.16 -1.15,1.34 1.05,8.51 2.25,2.33 0.13,4.01 -0.94,2.68 -3.95,4.4 -1.86,0.38 -0.73,1.75 0.76,2.96 1.73,1.72 1.52,-0.54 0.21,1.37 2.62,0.76 3.5,-0.89 1.6,0.83 1.73,4.23 0,0 -3.74,6.65 -3.82,-0.35 -1.75,-1.78 -3.56,0 -1.46,-2.67 -3.82,-1.05 -1.52,1.81 -2.51,0.51 -1.36,2.35 1.31,1.18 0,3.06 -2.33,0.99 0.13,1.53 -3.22,1.59 -1.18,5.76 0.52,0.64 2.96,-0.64 0.94,5.82 2.56,6.3 2.17,0.64 -0.21,2.61 -1.96,-0.67 0.92,3.59 -1.18,0.41 0.6,1.62 -2.09,0.73 -1.31,1.75 -0.55,2.61 1.13,2.06 -7.72,-3.72 -5.86,4.61 -1.13,-1.62 -1.46,0.64 -3.61,-3.02 -3.66,-0.6 -0.03,4 1.33,3.37 -2.41,5.27 -2.41,1.33 -5.94,-1.94 -4.66,0.7 -3.92,1.97 -0.86,-2.45 -3.92,-2.41 -1.15,1.87 -3.56,2.29 -0.99,3.94 -3.48,3.37 -5.26,2.19 -2.35,2.7 -3.9,-0.06 1.44,-0.83 -0.05,-2.92 -3.74,-0.22 0.58,-1.9 -2.15,0 -3.5,2.13 -4.47,0.25 -0.84,-2.83 -2.2,-0.25 -1.2,1.56 -0.76,-1.49 -1.28,0.38 -0.68,-1.68 -2.04,1.94 0.58,2.35 -4.55,0.57 -4.68,4.76 0,0 -2.25,-1.11 -2.33,0.32 -1.44,-2.6 -3.61,-1.02 -3.74,0.41 -1.23,1.94 -1.96,0.6 -3.4,-2.67 -1.88,-3.27 -0.63,-3.33 -2.15,-0.16 -3.84,-2.79 -2.56,-0.29 -5.05,-7.02 -5.83,-0.1 -3.69,-1.4 -10.36,6.93 -5.86,-1.56 -2.46,0.92 -4.84,-0.25 -2.15,-2.67 -3.32,0.25 -4.11,-2.6 -7.9,-2.8 -1.2,0.89 -0.5,2.54 -3.98,-0.06 -1.07,1.46 0.76,3.08 -1.78,4.19 -0.21,5.43 0,0 -2.85,0.92 -0.13,-2.64 -4.71,-1.87 -1.86,1.37 -0.71,4 -1.28,0.41 -1.12,3.43 -6.46,-2.54 2.2,-0.79 1.41,-2.13 -5.18,-0.83 0.31,2.7 -1.33,2.79 -2.48,-4.7 -2.64,-1.62 -1.23,-7.34 0.78,-1.08 2.3,0.16 -0.18,-4.35 1.91,-3.21 -0.81,-5.47 -2.33,-0.57 2.35,-3.05 -0.24,-2.19 -1.86,-3.88 -1.96,-0.76 -0.31,-3.94 -1.39,-1.72 -7.009998,-2.29 -2.93,-7.03 -2.25,-0.6 1.83,-2.26 0.39,-2.23 3.11,0.29 1.7,-1.85 -0.63,-1.13 0.63,-9.64 -5.91,-2.39 0.05,-5.19 -4.81,-2.36 -3.4,-4.87 -3.19,-1.46 -1.18,-1.53 0,0 3.74,-0.92 2.3,-1.82 3.95,0.16 4.68,-4.56 1.88,1.15 2.04,-0.45 1.39,-1.43 2.299998,-0.22 2.9,1.18 1.33,-0.73 0.97,1.75 1.62,0.57 5.02,1.18 4.05,-0.19 4.58,1.85 2.12,-0.61 1.57,2.17 9.94,3.66 3.17,3.18 5.39,1.75 2.54,1.94 3.87,-0.8 7.82,-5.29 3.35,-0.76 4.53,-4.87 3.82,-7.65 5.7,-21.35 z"
     title="Nicosia"
     id="CY-01" />
  <path
     d="m 131.67107,252.07181 0.21,-5.43 1.78,-4.2 -0.76,-3.08 1.08,-1.46 3.97,0.07 0.5,-2.55 1.2,-0.89 7.9,2.8 4.11,2.6 3.32,-0.25 2.14,2.67 4.84,0.25 2.46,-0.92 5.86,1.56 10.36,-6.93 3.69,1.4 5.83,0.1 5.05,7.02 2.56,0.28 3.85,2.8 2.14,0.16 0.63,3.33 1.88,3.27 3.4,2.67 1.97,-0.61 1.23,-1.93 3.74,-0.42 3.61,1.02 1.43,2.6 2.33,-0.31 2.25,1.11 0,0 -1.59,7.42 2.38,0.96 1.7,-0.42 0,1.46 0.96,0.32 5.05,-0.38 4.5,1.71 0.39,1.05 5.97,0.54 4.31,3.24 0.87,2.69 1.65,0.48 1.49,4.37 3.5,1.15 1.78,1.84 4.16,7.48 -0.68,7.99 -1.26,4.05 1.21,2.03 -0.71,2.5 1.52,2.16 0,0 -1.21,3.13 -2.95,0.95 -17.13,-0.25 -11.96,-2.22 -21.71,7.98 -3.27,2.41 -2.61,3.71 0.02,-0.64 -2.72,0.57 -2.59,2.63 0.47,3.01 -2.01,-1.4 -1.39,3.17 -1.46,6.55 0.65,9.36 4.61,4.18 2.56,3.89 -2.25,1.52 -6.8,-2.37 -7.22,-0.98 -2.54,1.67 -4.47,-0.85 -3.66,1.29 -0.08,-0.91 2.01,-1.58 -0.6,-3.2 -0.76,-0.22 0.66,-1.61 -3.82,-8.86 -3.51,-5.95 -9.28,-9.02 -2.96,0.41 -3.84,-1.3 -1.47,1.9 -4.79,-1.2 -1.28,1.64 -7.37,-0.79 -4.56,2.35 -3.61,0 -0.81,1.77 -1.75,0.13 -1.31,1.26 -6.12,-0.98 -1.04,0.63 -0.42,1.93 -3.27,0.32 -6.59,-3.58 -8.109998,-1.99 0,0 -0.68,-7.16 0.97,-2.88 -2.04,-4.21 2.45,-0.51 2.279998,-1.74 -0.47,-2.15 1.23,-2.38 1.75,0.54 2.88,-1.08 2.35,-2.85 1.28,0.03 1.1,-2.28 1.89,-0.25 0.83,-1.3 2.23,0.22 1.2,-6.62 1.28,-0.57 -1.99,-2.86 -3.37,-0.7 0.26,-2.4 -1.62,-0.99 2.95,-3.11 2.18,0.77 0.39,-3.78 1.57,-2.06 5.7,-2.28 -0.26,-2.79 1.49,-4.41 4.11,-3.5 2.77,-1.04 1.2,-2.95 2.38,-0.73 -0.42,-3.72 -4.44,-1.17 z"
     title="Limassol"
     id="CY-02" />
  <path
     d="m 347.05107,187.53181 4.06,-0.25 3.06,-1.31 0.94,2.29 7.22,4.3 -0.37,4.58 1.36,7.99 5.55,-0.77 0.99,-2.41 0.94,-0.67 2.46,0.44 3.19,-4.04 1.23,0.16 1.15,1.21 -2.9,6.81 2.17,3.69 1.23,0.25 5.55,-4.55 3.5,2.1 0.21,3.37 3.98,2.45 0.1,2.61 2.56,-0.38 1.05,0.79 -0.86,1.98 8,0.06 2.83,2.48 11.64,-0.35 0.23,3.24 3.48,8.77 2.88,1.12 2.72,-0.86 0,0 -0.24,1.87 -2.56,3.02 -5.91,3.15 -2.75,0.38 -7.3,-6.39 -13.91,-5.37 -1.44,0.51 -5.57,-1.02 -1.42,0.83 -2.85,-1.08 -0.86,0.98 -6.12,0.04 -6.85,2.12 -6.02,4.17 -2.85,4.44 -1.31,3.94 1.31,2.04 -1.07,-0.67 -0.26,0.63 0.36,0.67 -0.63,2.6 0.84,-0.22 -1.36,0.92 0.24,6.32 -1.08,5.37 0.87,3.65 -7.82,9.64 -1.52,6.09 -5.28,-1.55 -8.19,0.44 -8.97,8.02 -4.58,2.35 -1.15,2.82 -6.33,0.41 -11.28,3.78 -3.32,3.45 -5.78,1.46 -6.17,5.04 -6.18,0.06 -5.72,3.77 -2.46,0.06 0.94,1.11 -3.48,-1.74 0.58,-0.63 -0.95,-0.35 -4.21,-0.16 -3.16,1.84 0,0 -1.52,-2.16 0.71,-2.5 -1.21,-2.03 1.26,-4.05 0.68,-7.99 -4.16,-7.48 -1.78,-1.84 -3.5,-1.15 -1.49,-4.37 -1.65,-0.48 -0.87,-2.69 -4.31,-3.24 -5.97,-0.54 -0.39,-1.05 -4.5,-1.71 -5.05,0.38 -0.96,-0.32 0,-1.46 -1.7,0.42 -2.38,-0.96 1.59,-7.42 0,0 4.68,-4.76 4.56,-0.58 -0.58,-2.35 2.04,-1.93 0.68,1.68 1.28,-0.38 0.76,1.49 1.2,-1.55 2.2,0.25 0.84,2.83 4.47,-0.26 3.51,-2.13 2.14,0 -0.57,1.91 3.74,0.22 0.05,2.92 -1.44,0.83 3.9,0.06 2.35,-2.7 5.26,-2.19 3.48,-3.36 0.99,-3.94 3.56,-2.29 1.15,-1.87 3.92,2.41 0.87,2.45 3.92,-1.97 4.66,-0.7 5.93,1.94 2.41,-1.34 2.41,-5.27 -1.34,-3.37 0.03,-4 3.66,0.6 3.61,3.02 1.47,-0.63 1.12,1.62 5.86,-4.61 7.72,3.72 -1.13,-2.07 0.55,-2.61 1.31,-1.74 2.09,-0.73 -0.6,-1.62 1.18,-0.42 -0.92,-3.59 1.96,0.67 0.21,-2.61 -2.17,-0.63 -2.56,-6.3 -0.94,-5.82 -2.96,0.64 -0.52,-0.64 1.17,-5.76 3.22,-1.59 -0.13,-1.53 2.33,-0.98 0,-3.06 -1.31,-1.17 1.36,-2.36 2.51,-0.51 1.52,-1.81 3.82,1.05 1.46,2.67 3.56,0 1.75,1.78 3.82,0.35 z"
     title="Larnaca"
     id="CY-03" />
  <path
     d="m 607.21107,0.3218074 -2.93,4.17 0.24,2.92 -1.52,0.99 0.47,4.7799996 -1.07,0.42 0.05,1.79 -1.02,0.22 -0.99,1.96 -7.19,0.77 -1.05,1.75 -4.71,0.13 -1.94,2.47 -1.39,-0.42 -1.26,1.7 -7.51,1.44 -10.96,8.17 -0.08,2.85 -1.83,0.26 -0.71,1.31 -1.55,6.94 -2.59,0.51 -5.44,5.15 -5.54,1.73 -17.92,16.63 -11.59,4.38 -6.62,4.09 -7.35,2.91 -14.12,9.43 -14.81,15.970003 0,3.7 -1.75,2.78 0.26,2.46 -2.85,3.99 -13.52,2.2 -3.84,-2.2 -3.27,1.12 -2.38,-0.32 -5.15,2.97 -3.71,3.67 -3.48,7.5 -2.12,2.01 -4.39,7.43 0.18,9.85 -1.18,2.33 0.03,3.47 3.11,8.63 -0.42,2.42 1.05,2.33 1.99,0.32 4.03,8.34 2.35,0.99 0.78,-0.54 0.37,1.15 -1.75,-0.38 1.05,1.31 1.6,-0.35 0.08,1.31 0.79,0.06 0.76,4.27 7.11,10.18 2.62,1.34 4.58,5.25 2.72,1.27 6.46,7.89 1.07,3.24 2.56,1.11 -0.68,1.46 0.6,1.65 3.9,5.05 -2.35,1.14 0.16,0.73 1.6,1.88 0.08,2.29 1.36,1.14 0.94,-0.6 0.5,1.56 -0.58,1.65 -1.62,-0.48 0.39,-1.37 -1.33,-0.86 -2.48,1.88 -3.11,-2.96 -6.72,-2.03 -3.48,-2.77 -2.17,-0.19 -1.31,1.02 -3.69,-1.43 -1.54,0.99 -0.71,-1.4 -1.99,0.19 -0.47,-0.73 -2.01,0.95 -1.41,-0.35 -0.39,1.97 -1.83,-0.64 -12.29,3.53 -0.13,0.51 0,0 -2.72,0.86 -2.88,-1.11 -3.48,-8.77 -0.24,-3.24 -11.64,0.35 -2.83,-2.48 -8,-0.06 0.86,-1.97 -1.05,-0.79 -2.56,0.38 -0.1,-2.61 -3.98,-2.45 -0.21,-3.37 -3.5,-2.1 -5.54,4.55 -1.23,-0.25 -2.17,-3.69 2.9,-6.81 -1.15,-1.21 -1.23,-0.16 -3.19,4.04 -2.46,-0.45 -0.94,0.67 -0.99,2.42 -5.55,0.76 -1.36,-7.99 0.37,-4.58 -7.22,-4.3 -0.94,-2.29 -3.06,1.31 -4.05,0.25 0,0 -1.73,-4.23 -1.6,-0.83 -3.5,0.89 -2.62,-0.76 -0.21,-1.37 -1.52,0.54 -1.73,-1.72 -0.76,-2.96 0.73,-1.75 1.86,-0.38 3.95,-4.4 0.94,-2.68 -0.13,-4.01 -2.25,-2.33 -1.05,-8.51 1.15,-1.34 2.64,-0.16 0.44,-1.31 -1.41,-3.35 -2.8,-1.28 0.26,-2.87 -1.67,-5.01 0.24,-3.48 0,0 -2.09,-3.8 0.44,-0.54 2.67,-0.32 10.57,-5.97 4.66,-1.18 1.78,-2.62 2.54,0.77 6.36,-1.79 0.81,-2.3 2.41,-0.64 0.37,-2.23 -2.41,0.19 -1.7,-1.44 -0.76,-3.29 0,0 1.05,-1.47 1.44,-0.32 0.99,0.83 1.91,-1.63 0.94,0.61 2.54,-1.37 5.26,-4.02 0.73,-1.820003 2.72,-0.42 1.52,-1.76 1.8,-0.32 0.79,-1.69 1.99,-0.16 3.11,-2.24 2.88,-0.29 1.83,-1.34 4.5,0.67 4.03,-1.05 3.37,1.02 8.61,-0.42 7.77,-2.46 2.56,-2.36 2.56,0.58 0.99,-1.05 3.95,-0.7 0.47,-1.41 3.87,0.19 3.06,-1.57 1.2,-1.66 3.17,0.61 3.35,-0.99 3.06,-2.84 5.21,-1.02 5.05,-3.96 1.2,0.64 3.66,-1.57 1.91,-2.62 1.57,0.22 3.09,-1.95 2.59,-2.94 2.07,0.54 9.81,-3.55 4.11,-6.85 2.67,-1.54 0.92,-2.82 3.74,-1.79 0.79,-4.29 1.25,-1.09 1.94,0.1 1.94,1.66 3.32,-0.06 1.2,-1.54 1.36,1.92 1.78,-1.73 0.37,1.22 2.17,0.03 3.19,-1.63 1.81,-2.88 3.19,0.16 1.1,-1.54 0.52,0.77 1.2,-0.45 1.67,-1.82 0.39,1.02 2.28,0.16 4.87,-4.03 3.01,-1.09 1.78,-4.07 1.8,1.15 3.17,-3.07 0.18,-4.1 2.54,-0.29 0.21,-0.8 2.98,0.16 1.18,-2.02 3.17,-1.28 3.11,-0.71 0.5,1.19 2.77,-0.35 1.25,-2.15 1.52,0.1 0.37,-1.44 1.18,0 3.71,-3.08 3.9,-0.22 0.63,1.19 1.39,0.03 4.84,-2.47 2.62,0.38 3.61,-3.1099996 0.24,-2.4 1.52,-0.26 0.73,2.02 2.69,0 1.94,-2.24 1.67,-0.1 -0.29,-0.83 2.07,-1.44 -0.05,-0.99 3.45,-1.35 7.86,-1.03 z"
     title="Famagusta"
     id="CY-04" />
  <path
     d="m 76.171072,168.46181 2.12,0.19 0,0 1.18,1.53 3.19,1.46 3.4,4.87 4.81,2.36 -0.05,5.19 5.91,2.39 -0.63,9.64 0.63,1.11 -1.7,1.85 -3.11,-0.29 -0.39,2.23 -1.83,2.26 2.25,0.6 2.93,7.03 7.009998,2.29 1.39,1.72 0.31,3.94 1.96,0.76 1.86,3.88 0.24,2.19 -2.35,3.05 2.33,0.57 0.81,5.47 -1.91,3.21 0.18,4.35 -2.3,-0.16 -0.78,1.08 1.23,7.34 2.64,1.62 2.48,4.7 1.33,-2.79 -0.31,-2.7 5.18,0.83 -1.41,2.13 -2.2,0.79 6.46,2.54 1.12,-3.43 1.28,-0.41 0.71,-4 1.86,-1.37 4.71,1.87 0.13,2.64 2.85,-0.92 0,0 0.86,4.92 4.45,1.17 0.42,3.71 -2.38,0.73 -1.2,2.95 -2.77,1.05 -4.11,3.49 -1.49,4.41 0.26,2.79 -5.7,2.28 -1.57,2.06 -0.39,3.77 -2.17,-0.76 -2.96,3.11 1.62,0.98 -0.26,2.41 3.37,0.7 1.99,2.85 -1.28,0.57 -1.2,6.62 -2.22,-0.22 -0.84,1.3 -1.88,0.25 -1.1,2.28 -1.28,-0.03 -2.35,2.85 -2.88,1.08 -1.75,-0.54 -1.23,2.38 0.47,2.15 -2.279998,1.74 -2.46,0.51 2.04,4.21 -0.97,2.88 0.68,7.16 0,0 -3.92,-2.18 -5.52,-0.98 -5.49,-4.59 -4.26,-1.14 -5.36,-3.77 -1.46,0.41 -2.41,-1.14 -2.3,0.76 -4.05,-3.1 -5.39,1.3 -2.01,-2.19 -1.67,0.03 -1.99,-2.82 -6.33,-4.78 -3.71,-0.32 -0.21,-1.27 -2.3,-1.52 -2.43,-3.77 -1.65,0.79 -2.41,-0.52 1.73,-3.68 -1.46,-5.93 -1.86,-1.59 -0.08,-8.63 -1.75,-1.97 0.78,-0.32 -0.55,-0.86 0.81,-1.27 -0.65,-2.63 -1.78,-2.32 -3.3,-0.1 0.55,-1.21 -0.97,-1.14 -1.52,1.02 -0.34,-1.84 -3.19,0.16 -1.57,-4.95 -2.15,-1.4 -0.26,-2.25 -4.16,-4.83 -0.21,-0.98 2.54,-2.25 0.05,-4.64 -3.37,-7.27 -2.7200002,-0.86 0.03,-2.64 1.7500002,0.57 1.28,-1.91 -1.13,-2.13 1.13,-3.53 -0.68,-2.45 0.68,-2.23 -4.6800002,-6.87 -1.62,0.25 0.24,-1.43 -2.72,-4.36 -1.18,-0.38 0.63,-1.53 -1.59999996,-2.26 0.49999996,-1.88 -1.19999996,-5.1 1.22999996,-3.18 -0.13,-2.77 0.92,-1.11 -0.1,-2.04 1.15,-0.19 1.26,-1.81 4.55,4.58 -0.55,0.7 0.99,1.78 10.8500002,7.64 3.32,3.85 5.21,2 5.81,0.64 7.93,-1.94 6.57,-3.94 6.28,-5.57 6.98,-10.85 4.42,-10.79 0.97,0.1 3.32,-2.93 2.83,-6.63 1.26,-0.51 0.84,1.97 z"
     title="Paphos"
     id="CY-05" />
  <path
     d="m 173.87107,96.751807 5,2.43 4.03,0.73 7.35,6.450003 0.92,-0.67 7.11,1.44 1.62,-0.89 4.55,3.19 4.24,1.05 8.5,0.35 3.06,-2.14 1.41,-2.43 1.1,1.56 3.45,-0.35 1.1,1.5 8.4,2.71 3.82,0.42 3.06,-2.52 2.64,0 10.07,4.44 3.01,-0.73 0.86,-1.28 4.53,1.92 3.48,-1.18 3.69,2.07 4.55,-0.13 2.69,0.22 4.6,2.17 3.56,-0.83 2.59,1.05 1.81,-1.4 1.28,1.28 0.76,-0.57 5.15,1.02 1.05,-0.8 0.99,1.05 2.96,0.06 2.48,-1.28 4.84,0.41 2.35,-0.8 1.7,1.34 2.88,0.1 2.28,-1.15 0.86,0.48 0.76,-1.09 4.71,-0.35 5.1,-2.36 1.96,0.8 7.01,-0.8 9.44,-3.06 1.23,-1.4 1.44,1.69 6.25,-1.56 0.79,0.96 3.01,-0.77 0,0 0.76,3.29 1.7,1.44 2.41,-0.19 -0.37,2.23 -2.41,0.64 -0.81,2.3 -6.36,1.79 -2.54,-0.77 -1.78,2.62 -4.66,1.18 -10.57,5.97 -2.67,0.32 -0.44,0.54 2.09,3.8 0,0 -2.07,0.86 -3.35,-1.53 -5.07,2.23 -1.94,-0.7 2.22,-0.16 1.1,-1.15 -3.82,-0.89 -0.86,1.31 -3.22,0.41 -8.61,-0.64 -3.48,3.92 -0.39,1.85 0.84,1.98 -0.92,2.1 -1.78,-0.16 -6.54,3.16 -8.03,1.18 -2.43,-0.73 -10.12,0.19 -1.33,1.4 -2.17,-2.39 -6.59,-1.21 -0.81,1.53 -3.56,-3.22 -1.99,-0.51 -0.81,1.15 -1.28,-1.05 -0.99,1.56 -1.57,-1.02 -0.39,2.42 -2.33,-0.35 -0.63,3.48 -0.86,-1.31 -3.92,0.7 -1.07,-3.63 -1.57,-0.35 -1.49,-1.75 -1.33,0.92 -4.45,-0.38 -0.21,-1.37 -3.03,-1.44 -0.86,0.86 1.2,1.79 -2.67,-0.32 -0.18,-1.56 -0.71,0.16 -0.97,0.77 0.18,2.36 -2.93,-2.01 -0.97,0.22 0.71,0.96 -0.84,0.48 -2.96,-1.59 -1.73,0.48 -1.07,-0.67 -4.16,0.96 -5.21,-0.45 -2.25,1.63 -3.92,-1.95 -0.97,-1.63 -2.33,-0.26 0.18,-3.57 -1.62,1.95 -4,1.95 -1.15,-1.08 -7.19,0.29 -0.89,1.24 -3.79,-0.51 -6.23,-3.09 -3.27,-0.51 0,0 0.86,-11.68 -1.2,-4.79 0.1,-6.8 -0.5,-1.76 -1.94,-0.45 -0.92,-2.78 -0.37,-14.470003 2.99,1.91 z"
     title="Kyrenia"
     id="CY-06" />
</svg>
