<?xml version="1.0" encoding="UTF-8" standalone="no"?>
<!-- Created for MapSVG plugin: http://mapsvg.com -->
<svg
   xmlns:mapsvg="http://mapsvg.com"
   xmlns:dc="http://purl.org/dc/elements/1.1/"
   xmlns:rdf="http://www.w3.org/1999/02/22-rdf-syntax-ns#"
   xmlns:svg="http://www.w3.org/2000/svg"
   xmlns="http://www.w3.org/2000/svg"
   mapsvg:geoViewBox="24.697924 31.667680 36.894654 21.724740"
   width="548.58221"
   height="498.86664">
  
  <path
     d="m 242.07971,17.9318 0,0.09 0.1,0.06 -0.02,0.07 -0.06,0 -0.04,-0.12 -0.08,0 -0.21,0.16 0.02,0.15 0.13,0.03 -0.1,0.17 0.11,0.06 -0.26,0.06 0.01,0.09 0.11,0.07 -0.09,0.28 0.21,0.29 -0.01,0.22 0.12,0.21 0.26,0.16 0.05,0.48 0.12,0.1 0,0 -0.02,2.23 -1.11,1.81 0,0 0,0 0,0 -1.19,3.14 -4.56,2.63 0,0 -3.2,2.64 2.3,2.03 -0.7,2.76 0,0 -1.17,2.09 2.28,3.74 5.62,6.44 -5.06,7.56 -4.91,2.33 -3.9,1.27 -1.79,0.26 -1.42,2.08 -1.43,4.22 0,0 -0.91,-30.57 0.02,-3.08 0,0 0.18,-0.12 0.1,-0.17 0.3,-0.07 0.11,-0.17 0.22,-0.09 0.8,-0.67 0.16,-0.04 0.37,-0.29 0.08,-0.25 0.06,0 0,0.06 0.11,-0.06 0.4,-0.39 0.39,-0.28 0.35,-0.42 0.67,-0.55 0.1,-0.01 0.06,-0.12 0.35,-0.12 0.54,-0.44 0.27,-0.1 0.15,-0.23 0.42,-0.28 0.05,-0.13 0.24,-0.07 0.03,-0.13 0.19,-0.1 0.57,-0.68 0.15,-0.36 -0.02,-0.26 0.17,-0.06 0.15,-0.16 0.21,-0.01 -0.11,0.16 -0.21,0.06 0.01,0.12 0.12,0 0.04,0.1 0.11,-0.06 0.1,-0.22 0.15,0.06 -0.02,0.15 -0.15,0.17 -0.05,0.26 0.09,-0.04 0.05,-0.19 0.19,-0.23 0.07,0.1 -0.04,0.31 0.25,0.03 0.06,-0.19 0.09,-0.04 0,0.36 0.26,-0.16 0.17,0.03 0.13,-0.15 0.14,-0.03 0.21,-0.17 0.14,-0.29 0.09,0.06 0.11,-0.06 0.21,-0.33 0.31,-0.17 0.17,-0.25 0.08,-0.45 0.11,0 0,0.13 0.07,-0.01 0.3,-0.28 -0.01,-0.09 0.06,-0.01 0.07,0.09 0.26,-0.39 -0.06,-0.15 -0.12,0.03 0.01,0.09 -0.07,0.03 -0.13,-0.17 0.21,-0.33 0.25,-0.17 -0.04,-0.06 -0.04,0.09 -0.05,-0.01 -0.09,-0.17 -0.15,0 -0.12,0.23 -0.09,0.04 -0.01,0.12 -0.2,-0.01 -0.05,0.22 -0.12,-0.1 0.06,0.2 -0.22,-0.15 0.47,-0.49 0.02,-0.12 -0.06,-0.06 0.26,-0.06 0.05,-0.12 0.39,-0.07 0,-0.17 -0.1,-0.15 0.11,-0.07 0.22,0.01 0.13,-0.12 0.05,0.07 -0.14,0.09 -0.02,0.19 0.17,0.26 0.2,0.12 0.37,-0.05 0.31,-0.39 -0.21,-0.26 0.16,0.01 0.24,0.22 0.35,-0.19 0.25,-0.26 0.41,-0.25 0.15,-0.22 0.22,-0.1 0.19,-0.28 0.15,0 0.05,-0.16 0.14,0.03 -0.02,-0.15 0.07,-0.09 0.24,0.01 0.11,-0.15 0.09,-0.01 0.05,-0.16 0.13,-0.03 0.05,-0.17 0.15,-0.17 0.21,-0.1 0.15,-0.23 0.26,-0.16 0.01,-0.13 -0.06,-0.09 0.06,-0.15 0.5,-0.03 0.19,-0.19 0.03,-0.2 0.26,-0.03 0.1,-0.22 -0.13,-0.16 0.06,-0.09 0.13,0.01 -0.01,-0.13 0.17,-0.03 0.21,0.17 0.04,-0.13 -0.12,0.03 -0.02,-0.06 0.1,-0.25 0.07,0.16 0.14,0.1 0.2,-0.01 0.32,-0.17 0.24,-0.31 0.01,-0.1 0.3,-0.32 -0.01,-0.13 -0.22,-0.16 0.19,-0.12 -0.03,-0.09 0.49,-0.13 0.27,-0.36 0.22,-0.09 0.02,-0.07 0.1,0.03 0.4,-0.1 z"
     title="Al Iskandarīyah"
     id="EG-ALX" />
  <path
     d="m 373.73971,374.6618 -1.02,3.55 -0.01,6.03 0.79,1.85 0.32,2.99 0.92,1.14 1.17,2.13 0.2,1.85 0.33,1.42 0.98,1.77 1.63,0.93 1.44,1.63 0.2,4.53 1.07,0.41 -0.16,1.84 -0.72,0.73 -0.59,0.99 -0.39,2.2 0.07,2.34 0.98,3.4 1.57,0.36 0.83,1.91 0.77,1.45 -0.23,1.37 -0.79,1.13 -0.65,2.2 -1.05,2.05 -1.56,1.62 -1.11,1.35 -1.25,2.04 -1.3,1.42 -0.07,1.2 0.98,0.85 2.48,2.47 3.03,0.24 1.02,0.98 3.32,2.35 0,0 2.23,3.52 0.21,3.31 0,0 -1.19,2.02 -2.71,-0.4 -2.76,-2.94 -1.45,-1.91 -2.88,0.43 0,0 -2.57,-0.78 -1.83,-1.17 -2.62,-1.84 -3.16,0.33 0,0 -2.99,1.64 0.26,5.53 -1.18,3.42 -2.31,2.58 -2.73,1.59 -3.72,2.45 -3.14,2.75 -2.62,0.78 0,0 -2.94,0.88 -3.43,-1.52 0,0 -2.35,-2.28 -1.47,-1.9 -2.11,-1.33 -2.75,0.66 -1.18,4.45 -0.39,2.35 -1.18,2.88 -1.04,1.96 -1.39,1.74 -2.71,1.16 -4.28,-0.67 -1.44,3.14 -1.96,1.96 -2.75,1.44 -8.11,2.75 0,0 -1.19,4.65 -5.17,-0.01 -0.06,-0.24 0.09,-0.7 0.6,-1.7 0.42,-0.88 1.35,-2.13 0.41,-0.47 0.65,-0.52 0.28,-0.47 0.53,-0.63 0.26,-0.58 -0.02,-0.28 -0.17,-0.26 -0.52,-0.27 -0.6,-1.05 -0.41,-0.28 -0.26,0.11 -0.89,0.76 -3.81,2.33 -1.44,-0.13 0,0 -2.67,0.26 -1.51,-2.22 0.78,-2.75 4.32,-2.23 3.01,-0.91 4,0.12 2.96,-2.73 1.92,-2.16 0.83,-1.57 0.48,-1.58 -0.23,-1.6 0,-4.33 -0.21,-2.22 0.84,-1.83 1.47,-1.74 1.17,-0.5 2.77,-0.02 2.05,0.23 1.61,-0.23 2.26,-0.74 8.64,-2.42 5.49,-1.62 0.98,0.38 2.59,0.26 2.57,0.51 1.94,1.22 1.5,0.66 1.64,-0.92 1.7,-3.32 0.95,-2.01 1.23,-2.18 0.79,-2.37 1.25,-2.8 1.69,-2.7 1.32,-2.27 1.54,-3.24 1.69,-2.53 1.42,-2.36 0.3,-0.96 -0.48,-1.98 -2.07,0.11 -1.72,0.39 -2.68,-0.36 -5.18,-1.23 -1.39,-1.65 0.36,-3.28 1.71,-5.93 1.41,-2.01 1.56,-1.02 2.29,-1.36 2.19,-0.91 2.01,-0.56 2.12,-1.72 -0.32,-1.26 -1.49,-1.21 -2.11,-2.04 -0.17,-3.14 1.39,-1.39 1.28,-0.49 1.84,-0.92 3.74,-3.91 0.39,-6.45 0,-2.96 0.59,-4.2 0.02,-3.42 0.75,-3.48 0.66,-3.49 0,-2.88 0.56,-3.32 -1.8,-3.48 -0.56,-2.19 -1.17,-3.56 -0.06,-2.17 0.03,-2.6 -0.39,-1.85 -1.6,-2.01 -2.68,-2.52 -3.49,-1.62 0,0 0.96,-3.51 -0.07,-3.57 0,0 1.91,1.73 0,0 2.39,1.48 1.83,1.77 4.35,3.02 3.29,5.5 0.47,3.34 0.14,9.58 1.92,4.53 3.06,5.11 0.23,1.55 -0.39,4.01 -3.2,2.66 -1.99,2.97 -0.13,2.37 0,0 z"
     title="Aswān"
     id="EG-ASN" />
  <path
     d="m 311.44971,248.2418 -2.22,-0.02 -0.85,-1.85 -1.04,-0.98 -0.89,-1.98 -0.86,-1.15 -1.78,-0.19 -0.57,1.09 -1.15,1.66 -0.86,0.64 -1.72,0.96 -1.19,0.98 -0.65,0.2 0,0 -2.24,-3.71 -1.84,-4.29 -1.8,-3.71 -1.71,-2.81 -2.69,-1.55 -1.65,-0.39 -2.16,-0.24 -0.99,-0.53 -2.11,-1.88 -3.94,-3.85 -1.39,-0.78 -1.13,-1.65 -0.52,-2.14 -1.39,-1.85 -0.95,-2.04 -0.45,-2.55 -1.03,-0.47 -0.17,-1.94 -0.78,-0.78 0.09,-2.24 1.04,-0.1 0,0 3.03,0 1.83,0.49 2.43,0.39 1.56,-1.37 2.78,0.19 0,0 -0.67,3.4 0.58,4.71 0.61,1.55 1.47,1.76 0.94,0.46 3.4,1.19 1.39,1.07 3.89,1.52 1.15,0.1 2.1,1.05 1.34,0.75 1.37,4.42 2.84,2.18 0,0 2.56,2.18 1.28,0.9 0,0 1.4,3.08 2.3,3.78 1.49,3.84 z"
     title="Asyūţ"
     id="EG-AST" />
  <path
     d="m 499.55971,395.4018 0.08,0.65 0.11,0.33 -0.09,0.19 -0.19,0.03 -0.17,-0.07 -0.01,-0.11 0.04,-0.05 0.06,0.03 0.01,-0.1 0.2,-0.16 -0.04,-0.58 -0.06,-0.11 0.06,-0.05 z m -82.61,-144.54 0.16,0.14 0.04,0.17 0.2,0.07 0.04,0.15 0.5,-0.04 0.09,0.08 0.03,0.21 -0.14,0.83 0.09,0.24 0.17,0.15 0.12,0.33 0,0.15 -0.1,0.13 0.05,0.56 -0.07,0.07 0.05,0.07 -0.05,0.08 -0.09,-0.03 -0.35,-0.51 -0.13,-0.38 -0.13,-0.1 -0.07,0.01 -0.25,-0.38 0.09,-0.28 -0.05,-0.25 -0.24,-0.11 -0.14,-0.28 -0.12,-0.01 0,-0.18 -0.23,-0.24 0.01,-0.22 0.09,-0.11 0.19,-0.07 0.15,-0.26 0.09,0 z m -2.85,-24.54 0.17,0.15 0.04,-0.11 0.2,0.07 0.29,0.35 0.13,0.28 0.11,0.07 0.06,0.39 -0.08,0.2 0.01,0.2 0.14,0.18 0.06,0.27 0.22,0.1 0.08,0.53 0.11,0.07 0.05,0.27 -0.06,0.11 -0.26,-0.07 -0.04,0.06 -0.23,0.03 -0.05,-0.1 -0.26,-0.14 -0.26,-0.6 -0.45,-0.38 -0.26,-0.03 0.05,-0.15 -0.08,-0.04 -0.02,-0.14 -0.22,-0.17 -0.13,-0.22 0.06,-0.17 0.35,0.15 0.2,-0.1 -0.01,-0.18 -0.19,-0.46 0.05,-0.18 0.09,-0.06 0.05,-0.15 0.08,-0.03 z m 1.01,-13.62 0.08,0.1 0.5,0.03 0.2,-0.06 0.64,0.07 0.11,0.24 0.3,0.11 0.4,0.49 0.54,0.25 0.16,0.01 0.4,0.28 0.05,0.15 0.46,0.01 0.13,0.06 0.25,0.38 0.01,0.2 0.25,0.53 0.04,0.34 0.19,0.2 0.21,0.78 -0.15,0.32 -0.31,0.07 -0.32,-0.01 0,-0.11 0.15,-0.03 0,-0.1 -0.42,-0.46 -0.15,-0.36 -0.25,-0.17 -0.36,0.03 -0.04,-0.25 -0.33,-0.36 -0.15,-0.08 -0.07,-0.14 -0.23,-0.1 -0.15,-0.21 -0.41,0.04 -0.16,-0.1 -0.24,0.01 -0.02,-0.1 -0.3,-0.29 -0.17,0.01 -0.22,-0.17 -0.22,0.11 -0.25,0.03 -0.15,-0.06 -0.57,-0.66 -0.09,-0.35 0.01,-0.08 0.14,0 0.11,0.13 0.09,-0.06 0.1,-0.48 0.21,-0.19 z m -6.52,-1.08 0.11,0.06 0.04,0.11 -0.11,0.18 0.04,0.35 -0.15,-0.07 0,-0.11 -0.13,-0.06 -0.1,-0.22 0.11,-0.2 0.19,-0.04 z m -1.58,-0.43 0.21,0.08 0.02,0.14 0.13,0.03 0.05,0.13 0.27,0.24 0.11,0.27 -0.07,0.03 -0.39,-0.31 -0.37,-0.53 0.04,-0.08 z m 0.71,-3 0.21,0.2 0.05,0.17 0.26,0.14 -0.09,0.66 -0.14,0.22 0.14,0.04 0,0.14 0.1,0.17 0.17,0.03 0.55,0.36 0.27,0.03 0.11,0.24 -0.14,0.34 -0.41,0.25 -0.08,0.17 -0.35,0.04 -0.21,0.11 0.04,0.5 0.21,0.28 -0.06,0.13 -0.12,-0.11 -0.26,-0.5 -0.01,0.24 -0.35,-0.53 0.07,-0.24 0.51,-0.01 0.04,-0.21 -0.13,-0.01 -0.24,-0.18 -0.22,0.01 -0.26,-0.08 0,-0.07 -0.13,-0.06 -0.08,-0.13 -0.46,-0.07 -0.13,-0.06 -0.05,-0.1 0.28,-0.49 0.09,-0.31 0.15,-0.14 0,-0.2 0.3,-0.84 0.05,-0.08 0.32,-0.05 z m 0.68,-0.29 0.06,0.03 0.08,0.35 0.14,0.11 0.01,0.21 -0.16,-0.07 -0.15,-0.27 -0.06,-0.31 0.08,-0.05 z m 0.77,-1.63 0.14,0.13 0.16,0.34 0.39,0.17 0.16,0.67 -0.03,0.36 -0.27,0.38 -0.08,0.31 -0.15,-0.03 -0.46,-0.41 -0.03,-0.15 -0.15,-0.13 -0.17,-0.62 -0.11,-0.07 -0.08,-0.2 -0.01,-0.13 0.14,-0.04 -0.06,-0.22 0.09,-0.15 0.23,-0.04 0.09,-0.11 0.2,-0.06 z m 0.39,-0.9 0.05,0.14 -0.06,0.06 -0.13,-0.04 -0.15,0.1 -0.19,0.31 -0.05,0.22 -0.21,-0.04 -0.24,0.07 -0.05,0.07 0,-0.08 -0.09,-0.06 0.06,-0.18 0.09,0.06 0.09,-0.15 0.19,-0.04 0.02,-0.31 0.29,0.03 0.14,-0.07 0.08,0.04 0.16,-0.13 z m -8.93,-4.36 0.03,0.07 -0.11,0.07 -0.03,-0.08 0.11,-0.06 z m -0.53,-0.86 0.26,0.1 0.17,0.17 0.01,0.1 -0.09,0.11 0.15,0.13 0.06,0.22 -0.15,-0.13 -0.1,0.24 0.08,0.03 0.05,0.13 0.04,0.48 -0.37,-0.13 -0.08,-0.28 -0.61,-0.48 0.24,-0.29 0.06,-0.24 0.16,-0.03 0.04,-0.13 0.08,0 z m -93.42,-64.48 4.44,0.63 4.47,1.76 6.48,1.58 1.24,0 0,0 1.09,2.1 5.16,-0.98 6.63,-0.1 8.03,-4.94 4.28,-1.17 3.94,-2.34 5.38,-0.19 0,0 0.13,-0.01 0.09,0.24 -0.05,0.16 0.19,0.13 0.14,0.24 -0.04,0.36 0.09,0.2 -0.03,0.27 -0.24,0.58 0.03,0.07 -0.18,0.11 -0.15,0.26 -0.07,-0.04 -0.56,0.47 0,0.1 0.11,0.06 -0.01,0.11 -0.08,-0.1 -0.4,0.07 -0.35,0.43 -0.07,0.2 0,0.06 0.01,0.07 0.33,0.41 0.05,0.57 -0.28,0.37 -0.11,0.47 -0.1,1.14 0.05,0.36 0.51,0.82 0.29,0.28 0.42,0.57 0.37,0.31 0.28,0.34 0.17,0.55 0.24,0.35 0.13,0.68 0.17,0.48 0.13,0.07 -0.08,0.52 0.41,0.45 0.08,0.28 -0.06,0.1 0.51,0.38 0.25,0.38 0.14,0.01 0.06,0.1 0.27,0.1 0.36,0.28 0.36,0.75 0.14,0.57 0.34,0.42 0.2,0.08 0.05,0.16 0.13,0.03 0.2,0.21 0.77,0.07 0.54,0.18 0.22,0.14 0.46,0.4 0.25,0.54 0.12,0.13 0.33,0.78 0.08,0.44 0.17,0.42 0.1,0.21 0.14,0.04 0.19,0.23 -0.15,0.5 0.02,0.54 0.26,0.53 0.2,0.08 -0.03,0.27 0.29,0.71 -0.1,0.06 0.01,0.67 0.14,0.16 0.01,0.24 0.35,0.18 0,0.37 0.13,0.11 0.05,0.17 0.01,0.3 0.24,0.75 0.04,0.66 0.16,0.88 -0.01,0.37 -0.16,0.27 0.16,0.27 0.06,0.08 0.61,0.24 0.12,0.17 0.29,0 0.42,0.21 0.39,-0.03 0.14,0.1 0.5,0.1 0.17,0.14 0.1,0 0.03,0.11 0.13,0.1 -0.04,0.14 0.3,0.13 0.1,0.27 0.14,0.14 0,0.13 0.11,0.08 0.07,0.28 0.2,0.23 0.29,0.2 0.29,-0.01 0.03,-0.08 0.05,0.01 0,0.08 -0.13,0.1 -0.04,0.3 0.09,0.17 0.14,0.08 0.02,0.15 0.19,0.3 0.09,0.01 0.03,0.01 0.04,0.06 0.17,-0.03 0.06,0.11 0.42,-0.03 0.26,0.08 0.06,0.13 -0.06,0.07 0.03,0.32 0.14,0.2 0.97,0.66 0.25,0.83 0.49,0.75 0.14,0.45 0,0.23 0.29,0.61 0.09,0.07 -0.01,0.2 0.18,0.1 0.17,0.25 0.01,0.14 0.14,0 0.05,0.11 0.15,-0.04 0.1,0.45 0.44,0.64 0.27,0.18 0.31,0.01 0.36,0.2 0.35,0.1 0.14,0.18 0.09,0.21 -0.05,0.3 0.08,0.75 -0.01,0.2 0.02,0.52 0.28,0.2 0.26,0.32 0.04,0.49 -0.05,0.21 0.31,0.14 0.21,0.28 0.26,0.16 0.38,0.06 -0.01,0.24 0.34,0.24 0.04,0.44 0.13,0.25 0.05,0.45 0.14,0.07 0.21,0.39 0.21,0.1 0.3,0.28 0.16,0.61 0.36,0.1 0.1,0.14 0.29,0.14 0.26,0.23 0.41,0.69 0.45,0.3 0.36,0.56 0.29,0.24 0.1,0.24 -0.09,0.25 0.15,1 0.19,-0.02 0.27,0.16 0.34,0 0.15,-0.11 0.11,0 0.19,0.14 0.39,0.07 0.05,0.21 -0.06,0.25 0.52,0.48 0.2,0.35 0.11,0.16 0.31,0.31 0.1,0 0.21,0.17 0.06,0.2 0.31,0.03 0.03,0.1 0.24,0.08 0.35,0.37 0.01,0.1 -0.1,0.11 0.02,0.69 0.33,0.75 0.37,-0.01 0.11,0.18 0.1,-0.04 0.13,0.1 0.4,-0.03 0.11,0.46 0.1,-0.01 0.14,0.08 -0.06,0.16 0.24,0.22 0.32,0 0.99,-0.2 0.44,0.1 0.08,0.21 0.06,0.14 0.2,0.23 0.36,0 0.17,0.11 0.3,0.52 0.06,-0.01 0.51,0.46 0.44,0.08 0.46,0.25 0.13,0.14 0.22,0.07 0.37,0.49 0.15,0.39 0.12,0.1 0.29,0.56 0.56,0.7 0.15,0.07 0.16,0.53 0.13,0.04 0.2,0.35 0.14,0.1 0.02,0.27 0.24,0.45 0.07,0.18 0,0.15 0.08,0.01 0.14,0.2 0.08,0 0.01,-0.15 0.08,0.01 0.07,0.08 -0.06,0.17 0.2,0 0.11,0.1 0.11,0.28 -0.03,0.36 0.06,0.46 0.14,0.27 0.11,0.06 0.24,0.31 0.11,0.34 0.52,0.25 0.02,0.16 -0.06,0 -0.04,0.1 0.08,0.34 -0.16,0 -0.05,0.25 0.19,0.45 -0.16,0.49 0.09,0.13 0,0.35 0.25,0.35 -0.03,0.18 -0.04,0.03 -0.17,0.07 -0.2,-0.15 -0.16,0.15 -0.02,0.11 -0.11,0.01 -0.04,-0.41 -0.06,-0.13 -0.16,-0.11 0.04,-0.34 -0.05,-0.13 -0.17,-0.1 -0.17,-0.22 -0.19,0.01 -0.11,0.25 -0.46,-0.06 -0.47,-0.44 -0.09,-0.01 -0.14,-0.25 -0.45,-0.03 -0.17,-0.27 -0.65,-0.01 -0.25,-0.21 -0.29,-0.1 -0.2,0.17 -0.09,0 -0.2,0.6 -0.11,0.1 -0.11,0.39 0.01,0.25 0.42,0.42 0.45,0.04 0,0.13 0.14,0.22 0.17,0.08 0.05,0.17 0.17,0.2 0.05,0.66 0.26,0.17 0.14,-0.01 0.36,0.86 0.45,0.01 0.26,-0.15 0.1,0.01 0.74,-0.55 0.19,0.34 0.06,-0.01 0.01,0.11 -0.15,0.24 -0.01,0.22 -0.13,0.1 -0.03,0.21 -0.17,0.29 -0.01,0.13 0.08,0.11 -0.29,0.29 -0.1,0.39 -0.17,0.18 0,0.28 0.09,0.01 0.11,0.18 0.16,-0.07 0.09,0.03 0.01,0.07 -0.09,0.04 0.04,0.37 -0.09,0.13 0.2,0.34 1.2,0.13 0.06,0.15 0,0.52 0.15,0.03 0.06,0.2 0.16,0 -0.1,0.27 0.45,0.29 0.06,-0.01 0.02,0.11 -0.06,0.39 -0.1,0.1 -0.04,-0.06 -0.17,0.03 -0.11,-0.37 -0.24,-0.29 0.03,-0.29 -0.49,-0.53 -0.19,-0.08 -0.23,-0.24 -0.07,0 -0.08,0.14 -0.15,0.06 0.06,0.18 0.35,0.43 0.04,0.14 -0.09,0 -0.25,-0.32 -0.22,-0.06 -0.09,-0.17 -0.19,-0.04 -0.02,-0.25 -0.21,-0.18 0.02,-0.11 -0.37,-0.13 -0.85,0.63 -0.3,0.41 -0.19,0.13 -0.15,0.28 -0.03,0.25 -0.05,0.01 -0.04,-0.08 -0.15,0.07 0.05,0.36 0.34,0.04 0.15,0.11 0.13,0 0.05,0.11 0.22,-0.03 0.14,0.31 0.25,0.08 0.09,0.25 0.47,0.41 0.51,0.76 0.28,0.77 0.24,0.1 0.03,0.92 0.14,0.18 -0.03,0.48 -0.21,0.57 0.04,0.56 0.11,0.35 0.21,0.08 0.45,-0.08 0.67,0.22 0.07,-0.03 0.06,0.08 -0.02,0.2 0.31,0.31 0.24,0.49 0.09,0.06 0.49,-0.03 0.22,0.17 0.01,0.22 0.17,0.15 0.08,0.42 0.06,0.07 0.03,0.62 0.09,0.1 0.01,0.13 0.11,0.06 0.14,0.39 0.15,0.17 0.13,0 0.2,0.18 0.27,0.13 0.15,0.15 0.13,0.43 0.09,0.03 0.01,-0.11 0.11,-0.03 0.06,0.27 0.54,0.5 0.02,0.46 0.17,0.21 0.06,0.21 0.15,0.01 -0.04,0.15 0.14,0.39 -0.06,0.06 -0.01,0.28 -0.13,0.31 -0.11,-0.01 -0.05,0.17 -0.06,0.02 0.08,-0.38 0,-0.07 -0.06,-0.01 -0.03,0.18 -0.17,0.06 -0.02,0.25 0.1,0.11 0.1,0 0.2,-0.14 0.08,0.91 0.24,0.03 0.05,0.11 0.16,0.07 -0.05,0.43 -0.09,0.1 0.15,0.38 0.42,0.17 0.1,0.1 0.3,0.66 0.04,0.04 0.17,-0.04 0.15,0.08 0.04,0.27 1.35,0.31 0.07,0.14 0.03,0.31 0.15,0.06 0.13,-0.06 0.4,0.43 0.14,0 0.04,0.17 0.34,0.11 0.04,0.2 0.19,0.11 0.14,-0.01 0.07,0.08 0.44,0.07 0.09,0.14 0.16,0.03 0.06,0.22 0.46,0.01 0.16,-0.07 0.1,0.18 0.26,-0.04 0.15,0.06 0.4,0.61 0.19,0.04 0.16,0.15 -0.03,0.48 -0.05,0.1 -0.29,0.2 -0.06,0.18 0.11,0.22 0,0.33 0.29,0.33 0.13,0.33 -0.13,0.15 -0.14,-0.06 0,0.14 -0.13,-0.04 -0.15,0.07 -0.26,0.27 0.05,0.15 -0.07,0.1 -0.15,0.03 -0.16,0.2 0.1,0.14 -0.09,0.1 0.05,0.14 -0.1,0.29 0.11,0.1 0.14,0.07 0.04,0.47 -0.05,0.46 -0.03,0.17 0.06,0.96 -0.13,0.04 -0.06,0.11 0.04,0.45 0.09,0 0.1,0.11 -0.01,0.28 0.05,0.08 0.13,0.06 0.2,-0.03 0.14,0.03 -0.01,0.13 0.21,0.03 0.05,0.14 0.19,0.1 0.04,0.25 0.31,0.15 0.06,0 0.01,-0.07 0.24,0.01 0.05,0.11 0.12,0.08 0.11,0.06 0.16,-0.04 0.19,0.06 0.54,0.6 0.04,0.18 0.15,0.08 0.09,0.33 0.14,0.14 0.02,0.18 -0.09,0.14 0.07,0.13 -0.4,-0.18 -0.12,0 -0.31,0.28 -0.05,0.18 0.01,0.32 0.19,0.31 0.33,0.36 0.07,0.17 0.28,0.26 0.27,0.11 0.01,0.15 0.08,0.04 -0.08,0.26 -0.45,0.17 -0.07,0.13 0.31,0.26 0.29,0.08 0.09,-0.03 0.1,0.21 0.19,0.06 0.22,0.66 -0.22,0.08 0.04,0.03 0.22,0.03 0.55,1.67 0.23,0.06 0.39,0.58 0.26,0.14 0.33,0.82 -0.1,0.13 0.17,0.11 0.14,0.26 0.18,-0.1 -0.01,-0.14 0.11,-0.01 0.06,-0.15 0.26,-0.13 0.31,-0.08 0.29,0.07 -0.36,0.89 0.01,0.29 0.39,0.81 0.31,0.19 -0.01,0.33 -0.09,0.22 -0.19,0.13 -0.09,-0.06 -0.17,0.06 -0.17,-0.11 -0.1,0.03 -0.2,-0.29 -0.02,-0.17 -0.25,-0.08 -0.15,-0.28 -0.26,-0.04 -0.22,0.2 -0.35,0.83 -0.05,0.32 -0.29,0.14 -0.15,0.26 -0.02,0.17 0.09,0.4 0.05,0.1 0.13,0.04 0.06,0.28 -0.21,0.54 -0.34,0.22 -0.08,0.15 0.15,0.15 -0.04,0.38 0.22,0.64 0.2,0.1 0.13,0.21 0,0.07 -0.14,0.08 0.05,0.26 0.32,0.04 -0.3,0.32 -0.11,-0.03 -0.1,0.1 0.04,0.14 -0.04,0.15 -0.1,0.08 0,0.13 0.14,0.07 -0.07,0.15 -0.09,-0.13 -0.06,0.04 0.04,0.15 -0.16,0.28 0.07,0.49 -0.05,0.45 0.04,0.11 0.1,0.04 -0.04,0.24 -0.19,0.32 -0.01,0.29 -0.13,0.18 0.15,0.25 -0.03,0.28 0.17,0.21 0.15,0.07 0.06,0.31 0.06,0.13 0.07,0.1 0.49,0.15 0.22,0.17 0.39,0.08 -0.09,-0.19 0.05,-0.03 0.1,0.19 0.36,0.32 0.02,0.14 0.4,0.06 0.27,0.14 0,0.18 -0.01,0.13 0.2,0.15 0,0.14 0.15,0.1 0.4,0.08 0.04,0.14 0.1,0 0.13,0.17 0.09,0 -0.01,0.69 0.36,0.49 0.12,0.28 0.09,0.33 -0.11,0.15 0.22,0.01 0.09,0.11 -0.09,0.33 0.15,0.28 -0.11,0.06 0,0.07 0.19,-0.03 0.08,0.14 0.04,0.08 0.19,0.25 0.24,0.18 0.11,0.54 0.27,0.17 0.15,0.18 0.14,0.36 0.11,-0.01 0.02,0.13 0.07,0.07 -0.04,0.17 -0.2,0.07 0,0.07 0.2,0 0.07,0.07 -0.01,0.4 0.31,0.63 0.1,0.36 0.01,0.71 0.1,0.26 0.04,0.11 0.17,0.25 0.07,0.22 0.31,0.24 0.2,0.67 0.16,0.13 -0.08,0.15 0.16,0.3 0.09,0.49 0.74,0.46 0.02,0.11 0.11,0.04 0.01,0.08 -0.08,0.01 0.04,0.22 0.26,0.21 -0.01,0.24 0.06,0.15 0.55,0.6 0.06,0.29 0.26,0.17 0.03,0.28 0.22,0.29 0.34,0.11 0.26,0.41 0.14,0.07 0.16,0.4 0.16,0.14 0.05,0.37 0.17,0.37 -0.14,0.58 0.07,0.64 0.31,0.62 0.39,0.33 0.09,0.17 -0.02,0.08 0.09,0.14 -0.19,0.15 -0.03,0.11 0.27,0.17 0.01,0.11 0.09,0.01 0.11,0.25 0.2,1.41 0.77,1.29 0.21,0.18 0.15,0.65 0.06,0.07 0,0.23 0.42,0.29 0.17,0.29 0.29,0.15 0.13,0.24 0.09,0.61 0.19,0.28 0.36,0.3 0.2,0.04 0.11,0.11 0,0.13 0.09,0.1 -0.09,0.26 0.04,0.24 -0.08,-0.07 -0.1,0.01 -0.06,0.21 0.15,0.19 0.24,0.01 0.38,0.28 0.21,0.28 0.21,0.72 0.14,0.03 0.08,0.14 0.12,0.57 0.01,0.39 0.41,1.08 0.24,0.62 0.42,0.69 0.08,0.47 0.14,0.25 0.3,0.39 0.81,0.37 0.08,0.12 0.24,0.11 0.31,0.81 -0.26,0.12 0.19,0.1 0.05,0.18 0.36,-0.17 0.15,0.03 0.05,0.07 -0.05,0.1 0.09,0.07 -0.05,0.25 0.09,0.12 -0.03,0.08 0.2,-0.01 0.29,0.65 0.02,0.22 0.21,0.36 -0.06,0.43 0.09,0.63 0.15,0.1 0.08,0.21 0.2,0.21 -0.02,0.18 -0.24,-0.07 -0.11,0.1 0.03,0.13 0.19,-0.03 0.01,-0.05 0.09,0.03 0.27,0.87 0.11,0.14 0.16,0 0.1,0.22 -0.14,0.19 0.26,0 0.26,0.17 0.63,-0.03 0.49,0.34 0.25,0.51 0.03,0.23 0.27,0.58 0.16,0.21 0,0.25 0.15,0.23 -0.1,0.11 0.01,0.11 0.19,-0.15 0.11,0 0.44,0.55 0.35,0.06 0.11,0.14 0.17,0.08 0.33,0.55 0.36,0.32 0.19,0.03 0.15,0.14 0.06,0.12 -0.09,0.06 -0.01,0.14 0.25,0.23 -0.03,0.18 0.1,0.36 -0.24,0.26 -0.02,0.15 0.2,-0.1 0.14,0.04 0.29,0.77 0.47,0.14 0.05,0.21 -0.05,0.43 0.09,0.07 -0.19,0.28 -0.04,0.18 0.05,0.1 0.17,-0.01 0.01,0.32 0.19,0.15 0.46,0.17 0.06,0.08 -0.02,0.11 -0.11,0.08 0,0.18 0.04,0.21 0.15,0.25 0.07,0.54 0.16,0.15 -0.05,0.21 0.16,0.25 0.09,0 0.08,0.1 0.17,0.44 1.06,0.83 0.17,0.33 0.42,0.5 0.05,0.65 0.16,0.34 -0.01,0.45 -0.08,0.18 0.1,0.08 0.05,0.37 -0.09,0.15 0.01,0.05 0.1,0.1 0.13,0.43 0.27,0.3 -0.13,0.23 0.11,0.19 0.36,0.1 0.2,0.14 0.34,0.55 0.21,0.21 -0.04,0.34 0.14,0.3 -0.05,0.47 0.21,0.28 0.14,0.34 0.13,-0.03 0.1,0.07 0.06,0.29 -0.05,0.15 0.04,0.3 0.05,0.07 0.1,0 0.02,0.1 -0.02,0.07 -0.08,0 0.04,0.73 0.36,0.84 0.11,0.01 0.66,0.84 0.38,0.29 0.24,0.33 0.41,1.15 -0.06,0.01 -0.01,0.19 -0.13,0.21 0.21,0.03 0.09,0.4 0.12,0.03 -0.14,0.58 0.2,0.55 0.22,0.36 0.15,-0.01 0.11,0.07 0.79,0.93 0.66,1.04 0.04,0.32 0.21,0.21 -0.06,0.17 0.01,0.33 0.27,0.44 0.14,0.51 0.15,0.1 0.17,0.29 -0.01,0.11 -0.24,0.22 0.22,-0.11 0.15,0 0.17,0.23 0.11,0.33 0.3,0.21 0.21,0.29 0.15,0.05 0.36,0.34 0.02,0.16 0.2,0.22 0.25,0.59 -0.04,0.14 0.05,0.21 0.35,0.44 0.13,0.33 0.11,0.1 0.25,0.47 -0.01,0.42 0.34,0.67 -0.04,0.42 0.1,0.05 0.06,0.21 0.34,0.44 0.26,0.07 0.05,0.18 0.14,0.12 -0.05,0.11 0.14,0.19 0.01,0.29 0.51,0.86 0.06,0.59 0.4,0.34 0.1,0.36 0.2,0.27 0.57,0.45 0.01,0.42 0.12,0.42 -0.35,0.53 -0.17,0.47 0.02,0.23 0.15,0.11 -0.08,0.07 0,0.14 0.14,-0.04 0.06,0.29 0.09,0.01 0.04,0.12 0.06,0.01 0.08,0.16 0.22,0.15 0.32,0.3 0.1,0.21 0.14,-0.05 0.06,0.07 0.08,0.4 0.16,0.34 0.19,0.18 0.1,0.25 0.38,0.33 0.04,0.38 -0.11,0.22 0.11,0.44 -0.02,0.51 0.35,0.25 -0.08,0.97 0.1,0.71 0.21,0.14 0.1,0.27 0.17,0.12 0.01,0.08 0.41,0.45 0.5,0.3 0.11,0.16 0.36,0.27 0.27,0.4 0.1,0.41 0.19,0 0.11,0.1 0.46,0.6 0.06,0.18 0.06,0.05 0.22,0 0.17,0.42 0.2,0.23 0.02,0.31 0.42,1.03 -0.03,0.51 -0.1,0.3 -0.14,0.19 0.04,0.11 -0.13,0.44 0.09,0.05 -0.01,0.07 0.29,0.52 0.37,0.12 0.4,-0.03 0.11,0.11 -0.03,0.16 -0.22,0.12 -0.19,0.6 -0.01,0.26 0.05,0.31 0.3,0.11 0.04,0.15 0.51,0.52 0,0.12 -0.32,0.29 0.01,0.1 0.26,0.07 -0.08,-0.14 0.05,-0.1 0.59,0.02 0.2,0.23 0.11,0.71 0.32,0.64 0.16,0.07 0.17,0.22 0.13,0 0.14,0.14 0.24,0.08 0.15,0.16 0.02,0.3 -0.26,-0.05 -0.1,0.15 -0.33,0.08 -0.21,0.19 0.14,0.72 -0.19,0.3 -0.17,0.08 -0.21,0.22 -0.08,0.3 0.04,0.22 0.21,0.33 0.51,0.33 0.15,0.23 0.15,0.05 0.16,0.31 0.29,0.29 0.07,0.05 0.57,0.04 0.46,0.35 0.09,0.15 0,0.26 0.07,0.15 0.1,0.14 0.21,0.04 0.07,0.08 0,0.15 0.06,0.01 -0.17,0.27 -0.07,-0.01 0,0.07 0.29,0.22 0.06,0.27 0.21,0.18 0.24,0.46 0.11,0.46 0.46,0.65 0.59,0.44 0.64,0.14 0.05,0.41 0.17,0.27 0.41,0.22 0.13,0.14 0.5,0.16 0.09,0.16 0.3,0.18 0.25,-0.03 0.19,0.05 0.02,-0.08 -0.09,-0.01 0.02,-0.11 0.61,0.07 0.01,0.42 -0.05,0.01 0.19,0.26 0.11,0.49 0.16,0.04 0.06,0.16 0.16,0.03 0.35,0.48 0.15,0.09 0.06,0 0,-0.09 0.15,0.01 0.3,0.19 0.15,0.23 0.17,0.03 0.08,0.29 -0.11,0.04 0.29,0.53 0.72,0.79 0.15,0.26 0.11,0.04 0.57,0.78 0.5,0.84 0.08,0.73 0.3,0.1 0.05,0.16 0.11,0.11 -0.08,0.2 0.3,0.25 0,0.08 -0.19,0.12 -0.12,0.34 0.05,0.16 0.16,0.19 0.04,0.2 0.09,0.01 0.16,0.27 0.25,0.23 -0.01,0.08 0.24,0.45 0.25,0.14 0.11,0.2 0.17,0.04 0.08,0.23 0.25,0.19 0.04,0.11 0.14,0 0.13,0.11 0.04,0.15 0.3,0.14 0.19,0.12 0.03,0.14 0.15,0.03 0.24,0.18 0.02,0.07 -0.07,0 -0.11,0.16 0.13,0.27 -0.07,0.14 0.09,0.11 0,0.14 0.26,0.18 0.14,-0.04 0.25,0.04 0.22,-0.14 0.02,-0.22 -0.14,-0.12 -0.09,-0.42 -0.2,-0.11 -0.24,-0.25 -0.19,-0.11 -0.15,0.05 -0.13,-0.15 0.74,-0.14 0.26,0.37 0.14,0.07 0.04,0.18 0.16,0.05 0.26,0.31 0.11,0 0.15,0.18 0.69,0.01 0.31,0.3 0.19,-0.01 0.18,0.09 0.16,0.29 0.5,0.24 0.42,0.48 0.02,0.19 0.21,0.16 0.06,0.37 0.24,0.34 0.06,0.38 0.13,0.3 -0.03,0.48 0.1,0.27 -0.09,0.3 0.06,0.29 -0.13,0.14 0.01,0.2 0.11,0.07 0.5,0.07 0.46,0.31 0.15,0.01 0.16,0.2 0.19,-0.03 0.11,0.14 0.3,-0.01 0.41,-0.19 0.7,-0.03 0.39,0.22 0.39,-0.01 0.4,0.12 0.56,0.16 1.15,0.57 0.72,0.48 0.15,0.2 0.13,0.04 0.21,0.23 0.29,0.44 -0.06,0.15 0.21,0.25 0.06,0.23 -0.01,0.3 0.11,0.24 0.05,0.35 0.31,0.3 0.09,0.23 0.37,0.15 0.14,0.15 0,0.37 -0.1,0.3 -0.07,0.01 -0.15,-0.49 -0.21,-0.25 -0.19,-0.11 -0.49,-0.96 -0.3,-0.22 -0.47,-0.14 -0.29,-0.01 -0.11,0.14 -0.26,0.12 -0.05,0.09 -0.24,0 -0.22,-0.04 -0.27,0.22 -0.16,0.23 -0.55,0.23 -0.37,0.41 -0.16,0.03 -0.57,-0.1 -0.14,-0.22 -1.11,-0.43 -0.3,-0.29 -0.49,0.12 -0.99,0.08 -0.94,-0.27 -0.19,-0.16 -0.06,-0.18 -0.24,-0.07 0.01,-0.18 -0.18,-0.18 -0.07,-0.19 -0.17,-0.08 -0.04,-0.11 -0.16,-0.05 -0.6,0.11 -0.67,0.43 -0.5,0.22 -0.04,-0.05 0.06,-0.08 0.31,-0.16 0.15,-0.16 0.3,-0.08 0.44,-0.24 0.3,-0.04 0.09,-0.09 -0.09,-0.15 -0.22,-0.14 -0.19,-0.03 -0.21,-0.19 -0.44,-0.12 -0.16,0.01 -0.55,-0.27 -0.34,-0.04 -0.4,0.08 -0.23,0.18 0.05,0.2 -0.05,0.05 0.13,0.16 -0.09,0.11 0.01,0.14 -0.01,0.11 -0.03,0.14 0.19,0.04 0.03,0.26 -0.11,0 -0.21,-0.04 -0.07,0.3 0.04,0.05 -0.14,0.05 0.03,0.1 -0.09,0.18 -0.12,0.01 -0.03,0.15 -0.09,-0.04 -0.13,0.29 -0.13,-0.01 -0.13,-0.33 -0.13,0.11 0.09,0.11 -0.1,0.16 0.34,0.23 -0.04,0.18 -0.12,0.07 0.16,0.12 -0.04,0.16 0.14,-0.04 -0.01,0.11 -0.08,0.04 0.04,0.12 0,0.12 0.11,0.18 -0.13,0.18 0.06,0.38 -0.08,0.24 0.08,0.23 -0.08,0.04 -0.02,0.34 0.14,0.2 0.1,0.33 0.09,-0.01 0.01,-0.56 -0.1,-0.29 0.07,-0.05 0.08,0.07 0.04,0.23 0.03,0.52 -0.21,0.54 -0.06,0.03 -0.14,-0.12 0,0.3 -0.15,0.05 0,0.27 0.11,0.29 0,0.35 0.06,0.18 -0.05,0.14 0.05,0.11 -0.13,0.09 -0.03,0.12 -0.1,0.01 -0.13,0.37 -0.05,0.62 0.08,0.23 0.11,0.04 -0.11,0.27 0.25,0.15 0.08,0.19 -0.01,0.19 0.1,0.15 0.35,0.11 0.1,-0.1 -0.08,-0.16 0.08,-0.03 0.21,-0.56 0.22,-0.11 0.29,0.04 0.24,0.69 -0.1,0.34 0.02,0.41 -0.22,0.22 -0.13,0.01 -0.01,-0.28 0.09,-0.3 -0.11,-0.07 -0.24,0.03 -0.1,0.14 0.09,0.09 -0.51,-0.01 -0.11,0.12 0.01,0.12 0.15,0.22 0.25,0.08 0.01,0.12 0.34,0.16 -0.04,0.31 0.14,0.57 -0.03,0.16 0.16,0.37 -0.06,0.15 0.09,0.27 -0.06,0.35 0.03,0.6 0.14,-0.09 0.14,0.2 -0.22,0.76 -0.03,1.31 0.08,0.41 -0.32,0.01 0,-0.08 -0.19,-0.19 -0.16,-0.64 -0.2,0.07 -0.12,0.2 0.09,0.31 -0.11,0.18 0.08,0.04 0.04,0.14 0,0.33 0.11,0.09 0.09,-0.01 -0.01,-0.33 -0.06,-0.09 0.21,0.08 0.04,0.6 0.2,0.72 -0.06,0.26 0.09,0.1 0,0.2 0.29,0.2 0.01,0.13 -0.06,0.11 -0.15,1.18 -0.1,0.22 0,0.43 -0.16,0.3 0.04,0.11 0.11,-0.18 0.04,0.22 -0.5,0.91 0.01,0.26 -0.09,0.01 0,-0.24 -0.12,0.16 0.01,0.14 0.21,0.01 -0.08,0.26 -0.29,0.14 -0.09,-0.04 -0.01,0.07 0.16,0.41 0.08,-0.07 -0.06,-0.18 0.12,0.07 0.08,0.66 0.14,0.42 0.04,0.42 0.45,0.3 -0.05,0.08 0.22,0.16 -0.01,0.12 0.08,0.13 0.08,0.07 0.15,-0.01 0.17,0.37 0.34,0.43 0.29,0.24 0.05,0.28 0.33,0.79 -0.09,0.24 0.16,0.26 0.13,0.04 -0.08,0.24 0.09,0.19 0.03,0.34 0.1,0.03 -0.08,0.15 0.16,0.3 0.05,-0.2 0.11,0.16 0.06,0.37 -0.1,1.51 0.1,0.35 -0.11,0.08 -0.05,0.38 0.16,0.65 0.04,0.69 0.19,0.08 0.05,0.27 0.44,0.99 -0.15,0.69 0.01,0.24 0.14,0.34 -0.01,0.97 0.25,0.11 0.31,0.32 0.26,0.08 0.01,0.27 0.17,0.36 0.1,0.46 0.72,0.77 0.13,0.5 0.17,-0.01 -0.04,0.18 0.2,0.27 -16.2,15.3 0,0 -2.18,2.06 -10.54,-3.13 -1.18,-0.28 -11.66,27.08 -5.51,1.02 -1.01,0.11 -0.1,0.08 -1.37,0.25 -0.79,0.08 -0.33,0.11 -4.12,0.76 -0.97,0.12 -0.26,0.09 -9.41,1.76 -3.3,9.78 0,0 -41.37,-0.09 0,0 -28.08,0.09 -19.54,0.03 -0.9,-0.04 -2.85,0.07 -3.62,-0.17 -2.62,0.04 -0.51,-0.05 -15.54,-0.05 0.53,-2.3 0.65,-2.36 0,0 8.11,-2.75 2.75,-1.44 1.96,-1.96 1.44,-3.14 4.27,0.68 2.71,-1.17 1.39,-1.73 1.05,-1.96 1.18,-2.88 0.39,-2.36 1.18,-4.45 2.75,-0.65 2.11,1.33 1.46,1.9 2.35,2.28 0,0 3.44,1.52 2.94,-0.88 0,0 2.62,-0.79 3.14,-2.75 3.72,-2.45 2.73,-1.59 2.31,-2.58 1.18,-3.41 -0.26,-5.54 2.99,-1.64 0,0 3.16,-0.32 2.62,1.83 1.83,1.18 2.57,0.77 0,0 2.88,-0.43 1.46,1.92 2.76,2.94 2.71,0.4 1.19,-2.02 0,0 -0.21,-3.31 -2.23,-3.52 0,0 -3.32,-2.34 -1.02,-0.98 0,0 0,0 0,0 -3.02,-0.25 -2.48,-2.47 -0.98,-0.85 0.07,-1.2 1.31,-1.41 1.24,-2.05 1.11,-1.34 1.57,-1.63 1.05,-2.05 0.65,-2.19 0.78,-1.13 0.24,-1.37 -0.78,-1.46 -0.83,-1.91 0,0 0,0 0,0 -1.57,-0.36 -0.98,-3.4 -0.07,-2.34 0.39,-2.2 0.59,-0.99 0.72,-0.73 0,0 0,0 0,0 0.16,-1.84 0,0 0,0 0,0 -1.07,-0.41 -0.2,-4.53 -1.44,-1.63 -1.63,-0.92 -0.98,-1.78 -0.33,-1.42 -0.2,-1.85 -1.18,-2.13 -0.92,-1.14 -0.33,-2.99 -0.78,-1.85 0,-6.03 0,0 0,0 0,0 1.02,-3.55 0.13,-2.37 1.99,-2.97 3.19,-2.65 0.39,-4.01 -0.23,-1.56 -3.06,-5.11 -1.91,-4.52 -0.15,-9.58 0,0 0.09,0.21 -0.09,-0.21 0,0 -0.46,-3.34 -3.3,-5.5 0,0 0,0 0,0 -4.34,-3.02 -1.83,-1.77 -2.39,-1.49 0,0 -2.62,-2.38 0,0 -1.55,-2.46 -0.8,-2.53 0,-5.38 0.8,-1.83 1.72,-1.83 1.89,-3.1 5.77,-3.76 1.97,-3.15 1.74,-5.5 0,0 0.19,-1.09 -0.03,-3.62 0,0 -0.35,-3.43 0,0 0,0 0,0 -1.13,-2.48 -0.62,-2.18 -1.43,-2.29 -3.39,-2.29 -4.48,-0.96 -6.08,0.06 -2.47,0.83 -2.93,2.04 -2.07,1.53 -1.43,0.76 -1.69,0.12 0,0 -1.96,-0.88 0.19,-1.64 -0.34,-0.13 -2.05,-2.8 -1.04,-2.59 -1.81,-1.33 -4.03,-1.21 -2.73,-1.72 -0.81,-0.85 -1.16,-1.77 -1.21,-3.6 -0.43,-2.98 0,0 0,0 0,0 -1.64,-0.53 -0.98,-1.28 -0.46,-1.6 -2.01,-2.56 -5.82,-4.86 -2.58,-0.95 0,0 0,0 0,0 -0.5,-0.33 0,0 -0.52,-2.5 -1.49,-3.84 -2.3,-3.78 -1.4,-3.08 0,0 -1.29,-0.91 -2.56,-2.17 0,0 -2.84,-2.18 0,0 0,0 0,0 -1.37,-4.42 -1.34,-0.75 -2.09,-1.05 -1.15,-0.1 -3.89,-1.52 -1.39,-1.07 -3.4,-1.19 -0.94,-0.46 -1.48,-1.75 -0.61,-1.56 -0.58,-4.71 0.67,-3.39 0,0 0.37,-3.35 -0.25,-4.74 -1.12,-3.63 -0.5,-5.87 -3.35,-7.7 -0.62,-6.03 -0.12,-2.24 0.75,-2.81 1.24,-2.25 1.12,-1.83 1.17,-1.71 0.04,-2.48 0,0 0.07,-4.29 1.28,-3.71 0,0 0.46,-1.62 0,0 0,0 0,0 -3.73,-0.5 0,0 2.75,-0.89 0.62,-3.66 2.98,-5.08 2.11,-0.85 1.37,-2.12 0.87,-1.69 1.49,-2.12 2.23,-2.83 0.75,-0.71 0.12,-3.25 1.74,-1.42 0.12,-3.11 0.12,-1.42 0,0 2.7,2.52 2.04,2.11 3.12,4.75 3.34,2.34 0,0 0,0 z"
     title="Al Baḩr al Aḩmar"
     id="EG-BA" />
  <path
     d="m 256.09971,9.9518 0.1,0.17 -0.04,0.06 -0.3,-0.07 -0.13,0.09 -0.34,0.04 -0.08,0.07 -0.07,0.57 0.01,0.06 0.16,0.06 0.01,0.1 0.14,0 0.06,-0.09 -0.06,-0.1 0.16,-0.17 0.22,-0.03 0.41,0.23 0.06,0.1 0.16,0.01 0.01,-0.1 -0.13,-0.09 -0.05,-0.19 -0.16,-0.16 0.02,-0.06 0.45,0.51 0.39,0.1 0.04,-0.06 -0.11,-0.06 -0.01,-0.09 -0.25,-0.13 0.04,-0.13 -0.26,-0.22 -0.04,0.07 -0.06,-0.04 0.03,-0.09 0.06,0 0.32,0.07 0.03,0.12 0.5,-0.12 0.02,0.1 0.42,0.13 0.24,0.23 0.41,0.09 0.93,0.42 0.41,4.9 2.79,3.22 0,6.9 3.66,-0.35 5.37,5.06 0,0 -0.01,2.83 0.78,0.45 0.78,0.75 -0.13,2.63 0.84,0.3 0,2.63 -0.58,0.68 0.97,0.45 0.39,0.45 0.06,0.68 0.78,0.9 -0.52,0.9 -0.84,0.83 0,1.65 0.65,0.23 -0.13,1.65 -0.32,1.13 0.32,1.28 0.88,-0.11 0,0 -0.26,4.66 0.13,0.4 1.07,0.07 -0.46,1.82 1.18,0.88 -0.26,1.73 0.58,1.54 0.1,4.03 -0.08,1.85 0,0 0,0 0,0 -1.39,0.16 -0.14,1.82 0,0 -6.92,7.08 -2.66,0.35 -7.4,7.47 0,0 -4.74,6.53 -0.74,1.31 -0.75,0.45 -1.55,-3.11 0,0 -1.68,-1.06 -2.83,-0.55 -7.56,-5.6 -1.96,-0.96 -6.37,-5.04 -4.26,-0.14 0,0 -3.16,-1.54 -1.27,-2.03 0,0 0,-5.72 0,0 1.43,-4.22 1.42,-2.08 1.79,-0.26 0,0 0,0 0,0 3.9,-1.27 4.91,-2.33 5.06,-7.56 -5.62,-6.44 -2.28,-3.74 1.17,-2.09 0,0 0.7,-2.76 -2.3,-2.03 3.2,-2.64 0,0 4.56,-2.63 1.19,-3.14 1.11,-1.81 0.02,-2.23 0,0 0.41,0.16 1.09,0.17 0.09,0.17 0.82,-0.06 0.13,0.07 0.29,0.03 0.05,-0.13 0.15,-0.03 -0.08,0.09 0.14,0 0.07,0.12 0.1,0 0.06,-0.12 0.06,0.22 0.29,-0.13 0.33,-0.03 0.05,0.13 0.04,-0.2 0.7,-0.09 0.02,-0.07 1.1,-0.41 1.24,-0.67 0.21,-0.26 0.61,-0.41 1.04,-0.96 0.35,-0.41 0.06,-0.2 0.16,-0.06 0.04,-0.15 0.16,-0.13 0.04,-0.15 0.21,-0.22 0.29,-0.51 -0.01,-0.12 0.08,-0.03 0.08,-0.23 0.16,-0.2 0.11,-0.36 0.34,-0.64 0.05,-0.29 0.19,-0.32 0.27,-0.76 0,-0.15 0.1,-0.14 0.29,-1.09 0.14,-0.33 0.09,-0.07 -0.04,-0.09 0.1,-0.5 0.05,-0.16 0.14,-0.15 -0.03,-0.07 0.46,-0.48 0.77,-0.19 z"
     title="Al Buḩayrah"
     id="EG-BH" />
  <path
     d="m 227.04971,151.2518 1.82,-2.37 0.39,-3.14 0.59,-5.6 1.18,-4.97 0.07,0.01 0.17,-1.08 0,0 2.86,0.42 5.71,0.71 10.68,1.98 2.11,1.13 -0.17,1.69 1,0.4 1.43,-0.09 22.49,-6.28 5.66,-8.87 3.47,-5.24 2.82,-2.04 0,0 0.06,0.35 0,0 0.53,-0.78 2.31,0.97 0,0 2.27,0.52 0,0 0.95,0.63 0,1.65 0.13,2.69 0,0 -0.13,1.42 -0.12,3.11 -1.74,1.41 -0.12,3.26 -0.75,0.7 -2.23,2.83 -1.49,2.12 -0.87,1.69 -1.37,2.12 -2.11,0.84 -2.98,5.08 -0.62,3.66 -2.75,0.89 0,0 -2.89,-2.01 -2.43,-1.41 -33.41,1.11 -1.52,-0.03 -8.49,0.29 z"
     title="Banī Suwayf"
     id="EG-BNS" />
  <path
     d="m 323.00971,74.2918 0.15,3.56 0,0 1.23,4.26 0.65,4.88 1.28,8.59 -0.04,4.35 -2.19,25.47 -0.78,14.24 0,0 -1.23,0 -6.48,-1.58 -4.48,-1.76 -4.44,-0.63 -3.24,-2.34 -3.12,-4.76 -2.04,-2.11 -2.7,-2.52 0,0 -0.13,-2.69 0,-1.65 -0.95,-0.63 0,0 -0.53,-0.12 0,0 -0.21,-1.52 0.18,-1.48 0.3,-0.75 0.76,-0.54 0.3,-0.67 0.06,-1.62 0.29,-0.61 0.53,-0.81 0,-1.82 0.12,-2.03 0.18,-1.14 0.77,-0.61 0.11,-0.95 0,-1.01 -1.06,-0.95 -0.12,-1.96 0.06,-0.75 1.22,-0.14 0.04,-0.76 0.1,-7.68 -2.65,-0.91 -0.17,-1.82 -0.93,-1.64 0.91,-0.71 -0.16,-5.75 0,0 1.93,0.2 0,0 1.86,-1.69 4.4,-1.77 4.51,-0.3 0,0 4.59,0 3.15,-1.9 6.29,-4.4 0,0 0.01,0.29 0.28,0.1 z"
     title="Al Qāhirah"
     id="EG-C" />
  <path
     d="m 299.46971,7.6818 0.25,0.1 0.06,0.1 0.3,0.13 0.04,0.08 0.85,0.33 0.54,0.44 1.09,0.57 0.99,0.65 1.14,0.53 0.73,0.46 0.25,0.03 0.16,0.13 0.17,-0.03 0.3,0.21 0.51,0.17 0.5,0.28 0.43,0.1 0.17,-0.04 0.18,0.1 0.29,-0.05 0.12,0.02 0.17,0.1 0.21,-0.09 0,0 0,1.81 -1.56,0.82 -1.56,0.63 0,1.55 2.43,-0.04 1.78,-0.24 0.1,2.02 0.99,0.2 1.2,0.63 0.96,0.92 -0.34,2.48 -0.76,3.9 4.1,-2 3.13,-1.74 0,0 1.72,-0.39 1.85,0.27 0.5,-0.26 0.21,-0.48 0.09,-0.63 0.42,-0.03 -0.03,0.27 -0.3,0.69 -0.03,0.47 2.78,-0.05 0.21,-0.42 0.33,0.36 0.71,0.41 1.38,0.27 0.44,0.72 0.18,0.77 -0.36,1.14 0.54,0.51 0.39,0.8 0.49,0.44 -0.25,0.31 -0.18,0.48 0.06,0.74 0.39,0.21 -0.18,0.06 0,0 -3.35,1.29 -4.16,0.56 -0.93,0.19 -3.59,-0.07 -1.09,1.81 -0.15,1.98 -2.88,2.98 -0.14,2.89 -2.27,0.18 -0.16,1.63 -1.32,0.72 -0.21,1.47 -8.82,0.24 -1.32,1.17 0,6.49 0.84,0.77 -0.92,2.37 -2.02,1.99 0,0 -1.17,-0.07 -1.07,-1.79 -0.91,-0.59 0,0 0.01,-0.12 0,0 1.24,-1.27 -0.13,-3.45 -0.67,-0.28 0.09,-1.01 -0.98,-1.05 -0.31,-3.34 0.24,-2.52 0.62,-2.71 0.31,-2.26 1.01,-1.17 0.78,-0.45 0.97,-2.36 -2.18,0.28 -1.91,0.13 -0.23,-0.11 0.32,-1.53 0.63,-1.07 0,0 -0.1,-2.98 0,0 1.64,0.31 0.7,-0.54 -0.24,-1.7 -0.07,-10.62 -0.46,-1 -0.08,-2.9 -1.09,0.09 -0.08,-2.09 1.01,-0.91 0,0 1.23,0.1 -0.02,-2.7 0.54,0.19 0.47,0.34 0.64,0.28 z"
     title="Ad Daqahlīyah"
     id="EG-DK" />
  <path
     d="m 327.79971,12.5318 0.29,0.26 0.04,0.22 0.51,0.89 0.54,0.39 0.36,0.42 0.09,0.01 0.21,0.25 0.4,0.26 0.21,0.26 0.3,0.16 0.24,0.29 0.36,0.2 0.21,0.22 0.31,0.15 0.06,0.1 0.38,0.17 0.21,0.2 0.13,-0.01 0.57,0.25 0.32,0.26 0.08,-0.01 0.31,0.23 0.16,0.03 0.44,0.32 0.13,0 0.15,0.19 0.47,0.28 0.05,0.13 0.29,0.13 0.04,0.09 0.09,0 0.2,0.22 0.11,0.06 0.1,-0.06 0.16,0.04 0.29,0.48 -0.66,0.11 -2.21,-1.4 -1.34,-0.66 -0.72,-0.54 -0.96,-0.9 -0.78,-0.63 -0.9,-0.42 -0.87,-0.24 -0.63,0.12 0.15,0.33 0.81,0.36 0.09,0.27 -0.48,-0.03 -0.57,-0.24 -0.48,-0.6 0.81,-0.72 0.09,-1.13 -0.54,0.03 0.09,-0.51 0.29,-0.28 z m -4.19,-2.77 0.15,0.75 -0.16,-0.09 -0.1,-0.23 -0.01,-0.34 0.12,-0.09 z m -0.19,-1 -0.1,0.1 -0.33,-0.31 -0.07,-0.15 0.08,-0.09 0.39,0.3 0.03,0.15 z m 1.24,0.06 0.12,0.44 0.21,0.29 -0.29,0.46 -0.36,-0.11 -0.09,-0.39 -0.27,-0.6 -0.49,-0.39 -0.09,-0.17 0.03,-0.17 0.22,-0.07 0.47,0.86 0.25,0.25 0.07,-0.07 -0.25,-0.44 -0.13,-0.68 0.05,-0.14 0.23,0.11 0.08,0.49 0.24,0.33 z m 0.24,-1.06 0.29,0.1 0.05,0.09 0.14,0.01 0.08,0.1 0.29,0.15 0.04,0.08 0.17,0.06 0.74,0.89 0.41,0.36 0.67,0.41 0.16,0.25 0.15,0.33 0.1,0.64 -0.17,0.29 -0.16,0.06 0.16,-0.29 -0.02,-0.09 -0.1,0 0.11,-0.09 0.04,-0.22 -0.05,0 -0.05,0.16 -0.09,-0.01 0.09,-0.31 -0.19,-0.28 -0.08,0 -0.06,-0.33 -0.1,0.06 -0.05,-0.23 -0.08,-0.04 0.09,0.63 -0.06,0.58 0.01,-0.67 -0.17,-0.63 -0.04,0.06 0.11,0.32 0,0.2 -0.09,-0.01 0,-0.29 -0.16,-0.41 -0.16,-0.16 -0.2,-0.06 -0.21,-0.32 -0.16,0.06 0.04,0.25 0.05,0 0.04,0.19 0.08,0.07 0.1,0.45 0.14,0.28 0.08,0.44 0.17,0.22 0.06,0.2 0.13,0.09 0.06,0.31 0.13,-0.52 -0.05,0.54 0.11,0.32 0.22,0.32 -0.05,0.06 -0.4,-0.65 -0.25,-0.21 -0.16,-0.39 -0.25,-0.17 -0.31,-0.83 -0.4,-0.17 -0.15,-0.32 -0.03,-0.28 0.06,-0.13 -0.74,-0.77 -0.21,-0.1 -0.21,-0.43 -0.18,-0.18 0.47,-0.04 z m -2.44,11.16 -0.46,0.49 0.13,-0.05 0.33,-0.44 0.16,0.08 -0.46,0.6 -0.24,0.62 -0.14,0.05 -0.46,-0.17 -0.16,0.35 0.11,0.43 -0.08,0.31 -0.13,0.05 -0.41,-0.34 0,0.31 0.35,0.4 0.46,0.01 0.06,0.15 -0.14,0.1 -0.49,0.03 -0.06,0.25 0.05,0.2 0.29,0.17 -1.78,0.4 0,0 -3.13,1.74 -4.1,2.01 0.76,-3.91 0.34,-2.48 -0.96,-0.91 -1.2,-0.63 -0.99,-0.2 -0.1,-2.02 -1.78,0.24 -2.42,0.03 0,-1.54 1.56,-0.64 1.56,-0.82 0,-1.81 0,0 0.48,0.03 0.2,-0.07 0.15,0.04 1.95,-0.44 0.3,-0.01 0.15,-0.1 0.08,0.03 2.12,-0.61 0.46,-0.07 0.6,-0.23 0.41,-0.06 0.21,-0.12 0.34,-0.06 0.13,-0.1 0.6,-0.2 0.05,-0.07 0.09,0.01 0.16,-0.51 -0.1,0.92 -0.17,0.58 0.14,0.1 0.16,-0.09 0.52,0.6 0.15,0.04 0.01,-0.13 -0.26,-0.23 0.11,-0.41 -0.26,-0.07 -0.04,-0.1 -0.09,-0.03 -0.1,-0.32 0.13,-0.23 0.19,-0.07 -0.09,-0.33 0.05,0.1 0.3,-0.03 0.71,-0.41 0.86,-0.38 0.66,-0.52 0.74,-0.44 0.35,-0.35 0.09,0.03 0.05,0.14 0.13,0.03 0.54,0.09 0.24,-0.09 0.25,0.06 -0.42,0.13 -0.49,0.48 -0.2,0.72 0.25,0.04 0.29,-0.21 0.01,0.24 -0.34,0.62 0.34,0.4 0.04,0.32 0.46,0.5 -0.02,1.06 0.23,0.37 0.03,0.34 -0.17,-0.04 -0.24,-0.57 -0.85,-1 -0.33,0.06 -0.03,-0.44 0.07,-0.17 -0.08,-0.12 -0.26,0.16 -0.36,0.47 -0.08,0.86 0.05,0.17 0.87,-0.52 0.1,0.06 0.03,0.12 -0.1,0.16 0.41,0.05 0.13,0.32 -0.22,0.4 0.26,0.28 0.17,0.44 0.24,0 0.13,-0.08 0.52,0.07 -0.56,0.5 -0.41,-0.02 -0.71,-0.22 -0.23,0.4 0.18,0.42 -0.12,0.36 0.16,0.03 0.22,-0.15 0.09,0.19 -0.2,0.25 -0.71,0.1 -0.21,0.15 0.56,0.3 0.38,-0.07 0.1,0.43 0.55,0.18 0.22,0.16 0.34,0.09 0.29,-0.22 0.17,0.29 -0.17,0.19 -0.6,1.97 z"
     title="Dumyāţ"
     id="EG-DT" />
  <path
     d="m 231.26971,134.1018 6.34,-7.21 2.11,-1 6.95,-8.21 1.49,-0.14 6.2,-7.1 3.73,-0.99 3.97,-2.56 3.97,-2.7 1.62,-0.28 2.51,-1.51 1.45,-1.24 0.13,-1.09 14,-0.13 -0.18,1.4 -0.1,2.78 0.77,0.96 1.33,2.8 0.77,5.03 0.76,3.43 0,0 0.24,1.57 0,0 -2.82,2.04 -3.47,5.24 -5.66,8.87 -22.49,6.28 -1.43,0.09 -1,-0.4 0.17,-1.69 -2.11,-1.13 -10.68,-1.98 -5.71,-0.71 z"
     title="Al Fayyūm"
     id="EG-FYM" />
  <path
     d="m 288.18971,52.9018 -0.47,-1.21 -4.43,0.05 -0.38,-0.81 -1.16,-0.05 -0.07,-0.9 -2.42,0 -0.15,0.99 -3.52,0.44 0,0 -0.88,0.11 -0.33,-1.27 0.33,-1.13 0.12,-1.65 -0.64,-0.23 0,-1.65 0.84,-0.83 0.52,-0.9 -0.78,-0.9 -0.06,-0.68 -0.39,-0.45 -0.98,-0.45 0.59,-0.68 0,-2.63 -0.85,-0.3 0.13,-2.63 -0.77,-0.76 -0.78,-0.45 0.01,-2.82 0,0 0.56,0.52 1.92,3.49 1.23,0.01 0,0 0.3,1.05 4.67,0 0.16,-1.01 0.23,-0.89 5.22,0.09 0,-5.61 0.95,0.07 5.2,-0.43 0,0 1.5,0.07 1.21,-0.03 0.1,3.08 0,0 -0.63,1.07 -0.32,1.53 0.23,0.11 1.91,-0.13 2.18,-0.28 -0.97,2.36 -0.78,0.45 -1.01,1.17 -0.31,2.26 -0.62,2.71 -0.24,2.52 0.31,3.34 0.98,1.05 -0.09,1.01 0.67,0.28 0.13,3.45 -1.24,1.27 0,0 -3.78,-1.74 0,0 -3.09,-0.02 -0.06,-1.03 0,0 z"
     title="Al Gharbīyah"
     id="EG-GH" />
  <path
     d="m 294.59971,80.2218 0.16,5.75 -0.91,0.71 0.93,1.64 0.17,1.82 2.65,0.91 -0.1,7.68 -0.04,0.76 -1.22,0.14 -0.06,0.75 0.12,1.96 1.06,0.95 0,1.01 -0.11,0.95 -0.77,0.61 -0.18,1.14 -0.12,2.03 0,1.82 -0.53,0.81 -0.29,0.61 -0.06,1.62 -0.3,0.67 -0.76,0.54 -0.3,0.75 -0.18,1.48 0.21,1.52 0,0 -1.74,-0.4 0,0 -2.31,-0.97 -0.53,0.78 0,0 -0.3,-1.92 0,0 -0.76,-3.43 -0.77,-5.03 -1.33,-2.8 -0.77,-0.96 0.1,-2.78 0.18,-1.4 -14,0.13 -0.13,1.09 -1.45,1.24 -2.51,1.51 -1.62,0.28 -3.97,2.7 -3.97,2.56 -3.73,0.99 -6.2,7.1 -1.49,0.14 -6.95,8.21 -2.11,1 -6.34,7.21 0,0 -0.17,1.08 -0.07,-0.01 -1.18,4.97 -0.59,5.6 -0.39,3.14 -1.82,2.37 0,0 -1.14,4.34 -1.58,2.9 -1.18,3.35 -1.58,5.36 -1.18,5.57 -2.37,2.23 -2.56,2.01 -4.73,3.11 -3.75,3.34 -2.56,0.67 -2.57,2 -3.74,1.33 -4.14,3.11 -3.16,1.55 -5.32,1.12 -1.58,0.88 -1.58,1.11 -0.78,1.78 -0.4,2.22 -0.59,1.77 -0.99,2.21 -1.38,2.76 0,0 -56.78,0.14 0,0 -0.68,0 0,0 -1.28,0 0,0 20.39,-45.43 41.89,-10.06 32.28,-31.75 6.46,-8.29 6.62,-1.63 22.68,-15 3.07,-0.4 0,0 0.76,-0.45 0.73,-1.31 4.74,-6.52 0.89,0.04 -0.89,-0.04 0,0 7.4,-7.47 2.66,-0.35 6.92,-7.08 0,0 1.44,-0.12 0.68,-0.58 2.09,0.14 0.09,3.18 1.42,-0.07 0.91,0.89 0.07,1.8 0.9,0.89 1.63,0.3 0.8,-0.9 0.89,0.52 0,0 0.76,0.19 1.95,-0.66 0,-0.08 0,0 1.65,2.78 2.41,1.48 0,0 z"
     title="Al Jīzah"
     id="EG-GZ" />
  <path
     d="m 337.64971,29.5218 0.06,0.2 2.68,-0.49 0.72,-0.76 0.99,0.19 0.56,1.61 2.2,0.17 1.94,0.97 3.19,1.16 0,0 3,1.94 3.08,0.81 0,0 0.24,6.82 1.05,17.58 3.21,5.05 1.67,2.97 1.41,3.85 0.77,2.79 0,0 -5.74,-0.27 0,0 -4.61,0.52 -1.73,1.41 -6.14,-0.43 -2.64,-0.81 -18.62,0.11 -1.91,0.18 0,0 -0.03,-0.79 0,0 -1.38,-3.54 -0.28,-0.1 -0.02,-0.29 0,0 -1,-4.9 -0.42,-4.56 -1.68,-0.87 -0.17,-1.65 2.27,0.1 0.42,0.87 3.78,0.19 0.59,-0.87 5.04,-0.29 0.26,-0.94 4.74,-6.74 -0.08,-2.71 -0.91,-3.85 1.81,-4.11 0.23,-1.84 1.7,-0.05 -0.2,-5.64 -1.96,-0.09 -0.67,-1.21 0,0 -0.67,-0.86 -0.04,-0.29 0.29,-0.3 0.77,-0.4 -0.03,-0.31 -0.23,-0.25 0.03,-0.5 1.28,-0.01 -0.01,-1.85 0.4,-0.5 0.48,-0.04 0.23,0.39 0.03,0.68 0.14,0.43 -0.28,0.44 0.05,0.2 0.4,0.05 0.16,0.19 -0.08,0.6 -0.34,0.64 z m 1.99,-6.68 0.38,0.49 0.57,-0.33 -0.03,0.3 0.18,0.26 0.32,1.14 -0.14,0.37 -0.31,-0.18 -0.44,-0.06 -0.53,-0.38 -0.26,-0.06 -0.16,0.42 -0.42,0.28 -0.37,-0.44 -0.47,0.08 -0.52,-0.23 -0.56,0.27 -0.68,0.06 -0.31,-0.23 -0.13,-0.37 -0.53,-0.49 0.08,-0.35 0.48,0.08 0.02,-0.44 0.4,-0.15 1.93,0.05 0.39,0.3 0.43,-0.26 0.68,-0.13 z m -1.45,-2.65 0.06,0.09 0.15,0.04 0.56,0.09 0.36,0.13 0.37,0.03 0.27,0.16 0.64,0.01 0.4,0.17 0,0 -0.32,0.37 0,0 -0.53,-0.22 -1.01,-0.22 -1.1,-0.62 0.15,-0.03 z"
     title="Al Ismāٰīlīyah"
     id="EG-IS" />
  <path
     d="m 456.90971,114.7118 0.02,0.11 -0.08,0.06 -0.04,-0.14 0.1,-0.03 z m -89.91,-23.09 1.87,0.07 0.24,-0.28 0.02,0.12 6.61,-0.43 9.77,0.29 8.36,1.18 1.02,0.29 4.26,-0.07 8.2,1.92 1.77,0.86 0.05,0.11 7.97,5.01 3.34,2.21 3.6,1.18 3.86,0.88 6.04,3.68 0.08,-0.03 0.91,0.28 2.63,0.88 2.62,1.07 1.43,-0.12 0.31,0.27 3.86,0.59 3.47,0.29 3.73,0.73 3.74,-0.15 2.39,0.58 0,0 -0.31,0.33 -0.2,0.1 -0.2,-0.07 -0.3,0 -0.45,0.26 -0.39,0.13 -0.16,0.4 -0.33,0.16 -0.06,0.38 -0.11,0.17 0.06,0.37 -0.16,0.47 -0.5,0.63 -0.25,0.03 -0.09,0.16 -0.26,-0.14 0.2,0.27 0.02,0.18 -0.15,0.11 -0.25,0.07 -0.15,0.13 0,0.07 -0.09,0.01 -0.01,0.16 -0.09,0 -0.04,0.3 0.09,0.3 -0.14,-0.01 -0.08,-0.08 -0.2,0.06 0.1,0.54 -0.06,0.31 -0.21,0.23 -0.09,0.21 -0.12,0.04 -0.3,-0.04 -0.2,0.07 -0.12,0.2 -0.08,0.17 0,0.31 -0.1,0.13 0.03,0.43 -0.15,0.34 -0.17,0.11 0.01,0.04 0.15,-0.03 -0.1,0.08 -0.2,-0.03 -0.39,0.1 -0.19,0.3 -0.04,0.18 -0.22,0.14 -0.06,0.44 -0.42,0.19 -0.06,0.1 0.01,0.41 0.19,0.37 -0.01,0.23 -0.21,0.43 0.08,0.85 -0.11,0.26 -0.3,0.28 -0.03,0.13 0.1,0.21 0.08,0.65 0.09,0.09 0.09,0.34 -0.05,0.17 0.06,0.26 -0.09,0.07 -0.04,0.27 0.06,0.13 -0.06,0.11 -0.1,0.03 -0.1,0.5 -0.17,0.28 -0.38,0.27 -0.16,0.77 -0.76,0.13 -0.24,0.13 -0.17,0.21 -0.09,0.4 0.1,0.18 0.01,0.2 -0.13,0.23 0.04,0.18 -0.15,0.24 0,0.21 -0.11,0.1 0.1,0.24 -0.17,0.11 -0.17,0.64 -0.17,0.16 0.25,0.41 0,0.1 -0.06,0.27 -0.17,0.16 -0.02,0.13 -0.09,0.07 0,0.18 -0.1,0.11 0.04,0.26 -0.08,0.06 0,0.1 0.14,0.28 0.02,0.36 -0.14,0.28 -0.27,0.28 -0.04,0.2 0.05,0.06 -0.08,0.01 0.04,0.07 0.09,-0.06 0.1,0.27 0.13,0.06 0.01,0.08 0.07,-0.01 -0.02,0.16 0.1,0.04 0.01,0.13 -0.05,0.27 0.46,0.47 0.04,0.41 0.05,0.06 -0.09,0.2 0.09,0.95 -0.2,0.23 -0.61,0.17 0,0.16 -0.24,-0.07 -0.44,0.13 -0.19,0.36 -0.35,0.2 0.03,0.17 -0.13,0.31 0.05,0.5 0.35,0.4 0.01,0.31 -0.25,0.26 0.09,0.43 0.13,0.24 -0.05,0.26 0.14,0.4 -0.1,0.2 0.02,0.31 -0.16,0.27 0.1,0.16 -0.07,0.23 0.14,0.35 0.01,0.27 -0.14,0.26 -0.6,0.14 -0.16,0.27 -0.27,0.24 -0.05,0.18 -0.03,0.48 0.16,0.34 -0.13,0.33 0.21,0.23 -0.08,0.35 0.05,0.18 -0.05,0.45 0.06,0.07 -0.06,0.3 0.05,0.13 -0.08,0.31 0.16,0.38 0.01,0.2 -0.07,0.2 -0.09,0.04 -0.03,0.23 -0.12,0.11 0.02,0.4 -0.05,0.11 0.24,0.41 0.08,0.28 -0.2,0.21 -0.25,0.68 -0.17,0.18 0,0.14 -0.21,0.3 -0.07,0.33 -0.27,0.27 -0.08,0.25 -0.27,0.23 -0.11,0.27 -0.28,0.2 0.11,0.33 -0.04,0.21 -0.14,0.14 -0.28,0.11 -0.09,0.13 -0.03,0.24 0.24,0.27 0.01,0.18 -0.11,-0.03 -0.15,0.3 -0.01,0.2 0.09,0.28 -0.24,0.07 -0.17,0.21 -0.14,0 -0.13,0.08 -0.09,0.24 -0.28,0.06 -0.22,0.67 -0.06,0.04 -0.05,0.88 -0.22,0.31 -0.17,0.08 -0.04,0.14 -0.16,0.1 -0.27,0.44 -0.31,0.3 -0.05,0.31 -0.09,0.11 -0.02,0.69 -0.13,0.72 0.32,0.47 0.08,0.41 -0.17,0.1 0.01,0.23 -0.19,0.69 -0.25,0.45 -0.41,-0.14 0.29,-0.03 0.05,-0.06 -0.04,-0.16 -0.2,0.06 -0.14,-0.13 -0.2,0 -0.38,0.13 -0.07,0.34 -0.22,0.13 -0.05,0.24 -0.1,0.03 -0.15,0.28 -0.01,0.48 -0.09,0.24 -0.25,0.21 -0.22,0.03 -0.13,0.16 -0.04,0.42 0.11,0.2 0,0.17 -0.27,0.54 -0.06,0.48 -0.17,0.23 0,0.47 0.09,0.13 0.01,0.17 -0.06,0.2 -0.21,0.25 -0.08,0.39 0.03,0.21 -0.21,0.2 -0.29,0.13 -0.11,0.27 -0.19,0.08 -0.09,0.11 -0.1,0.52 -0.31,0.38 -0.13,0.28 0.11,0.28 -0.13,0.14 -0.04,0.41 0.07,0.11 -0.15,0.41 0.08,0.18 0,0.97 0.07,0.18 0,0.32 0.14,0.18 0.14,0.44 -0.05,0.3 -0.17,0.24 0.01,0.39 0.13,0.42 0.27,0.45 -0.1,0.2 0.14,0.1 0.04,-0.1 0.1,-0.01 0.21,0.18 -0.19,0.07 -0.06,0.27 0.31,0.11 0.17,0.21 0.03,-0.24 0.39,0.45 -0.06,0.16 0.2,0 0.16,0.59 -0.03,0.66 -0.06,0.17 0.05,0.31 -0.06,0.13 -0.21,0.11 -0.01,0.16 -0.14,0.18 0,0.2 0.09,0.21 -0.02,0.27 0.1,0.11 -0.09,0.31 0.06,0.13 -0.09,0.16 -0.14,0.06 -0.04,0.25 0.01,0.2 -0.05,0.13 -0.04,0.37 -0.19,0.17 -0.01,0.13 -0.16,0.16 0.06,0.56 0.09,0.1 0,0.11 0.22,0.11 0.19,0.24 0.01,0.27 -0.11,0.31 -0.04,0.59 0.22,0.31 0.04,0.2 -0.46,2.12 -0.32,0.14 -0.09,0.28 0.16,0.2 -0.07,0.14 -0.14,0.03 -0.01,0.1 -0.24,0.27 -0.19,-0.01 -0.19,0.13 -0.39,0 -0.09,0.14 0.01,0.11 -0.14,0.08 -0.06,0.14 -0.39,0.04 -0.01,0.27 0.09,0.34 -0.14,0.07 -0.06,0.16 -0.14,0.08 -0.17,0.07 -0.22,-0.01 -0.08,0.07 -0.09,0.14 0.1,0.21 -0.01,0.22 -0.13,0.21 -0.23,0.07 -0.17,-0.13 -0.11,0 -0.26,0.15 -0.03,0.17 -0.07,0.07 -0.19,-0.04 -0.19,-0.15 -0.23,-0.04 -0.24,0.11 -0.02,0.11 0.17,0.16 -0.2,0.63 0.03,0.22 0.11,0.2 -0.39,0.21 -0.05,0.22 0.14,0.2 0.06,0.28 -0.22,0.23 -0.15,0.79 -0.28,-0.11 -0.09,0 -0.1,0.13 -0.14,-0.01 -0.17,-0.21 -0.13,-0.52 -0.19,-0.07 -0.14,0.1 0.03,0.14 0.16,0 0.05,0.08 -0.16,0.14 -0.1,0.27 -0.12,-0.07 0.06,-0.28 -0.09,-0.08 -0.11,0.13 -0.44,0.07 0.06,0.27 0.1,0.04 0.02,0.44 -0.24,0.36 -0.08,0.28 -0.31,0.07 0.01,0.11 0.13,-0.01 0.09,0.1 0.03,0.24 -0.2,0.2 -0.09,0.6 -0.19,0.46 -0.17,0.04 -0.26,0.01 -0.37,0.18 -0.24,-0.41 -0.09,-0.01 -0.24,0.24 -0.16,0.07 -0.29,-0.14 -0.17,-0.21 -0.06,0.04 0.01,0.18 -0.16,0.06 -0.15,-0.03 -0.03,0.28 0.1,0.27 0.33,0.32 0.06,0.24 0.22,0.18 0.11,0.01 0.1,-0.1 0.61,0.1 0.27,-0.15 0.46,0.07 -0.06,0.18 -0.12,0.1 0.07,0.21 -0.06,0.11 0.15,0.27 0.06,0.52 0.2,0.37 -0.05,0.07 -0.08,0.13 -0.17,-0.01 -0.31,-0.44 -0.03,0.21 0.2,0.11 0.06,0.2 -0.13,0.14 -0.14,0 -0.24,-0.15 0.05,-0.32 -0.1,-0.15 0.01,-0.11 -0.19,-0.06 -0.36,-0.31 -0.27,-0.32 -0.21,-0.45 -0.19,-0.15 -0.06,-0.24 -0.31,-0.27 -0.08,-0.21 -0.14,-0.1 -0.2,0 -0.11,-0.17 -1.14,-0.32 -0.25,0.13 -0.03,0.13 -0.61,-0.32 -0.21,-0.01 -0.25,-0.21 -0.35,0.03 -0.6,-0.11 -0.63,0.07 -0.47,0.34 -0.13,-0.38 -0.49,-0.16 -0.14,-0.14 -0.26,-0.01 -0.71,-0.42 -0.05,-0.1 -0.29,-0.15 -0.16,-0.42 -0.16,-0.2 -0.4,-0.27 -0.21,-0.42 -0.22,-0.1 -0.07,-0.14 -0.16,-0.03 -0.26,-0.22 -0.01,-0.14 -0.31,-0.48 -0.17,-0.08 -0.17,-0.22 -0.08,-0.22 -0.07,-0.24 -0.14,-0.41 -0.94,-0.13 -0.05,-0.21 -0.1,-0.03 -0.46,-0.04 -0.04,0.13 -0.06,-0.01 0,-0.14 -0.2,-0.35 -0.62,-0.65 -0.5,-0.63 -0.01,-0.32 -0.22,-0.24 -0.35,-0.1 -0.66,0.31 -0.41,-0.13 -0.15,0.06 -0.05,0.13 -0.19,-0.07 -0.1,-0.32 -0.21,-0.21 -0.19,-0.35 -0.27,-0.32 -0.67,-0.29 -0.49,-0.34 -0.19,-0.06 -0.11,-0.13 -0.17,-0.01 -0.46,-0.77 -0.14,0.01 -0.11,-0.1 -0.1,0.01 -0.02,-0.29 -0.56,-0.72 -0.31,-0.06 -0.14,0.07 -0.06,-0.17 -0.6,-0.31 -0.16,-0.01 -0.1,-0.42 0.32,-0.49 -0.16,-0.24 -0.14,-0.38 -0.06,-0.06 -0.2,0.01 -0.21,-0.14 -0.26,0.06 0,-0.2 -0.36,-0.17 -0.1,-0.1 -0.11,-0.14 -0.36,-0.23 -0.44,0.08 -0.19,-0.32 0.19,-0.29 -0.01,-0.15 -0.15,-0.18 -0.01,-0.18 -0.25,-0.17 -0.22,-0.34 -0.3,-0.29 -0.1,-0.31 -0.21,-0.22 -0.13,-0.56 -0.11,-0.14 -0.31,-0.08 -0.14,-0.11 -0.09,-0.76 0.04,-0.49 -0.13,-0.28 -0.19,-0.11 -0.47,-0.03 -0.13,0.25 -0.02,-0.39 -0.29,-0.04 -0.17,-0.1 -0.29,-0.2 -0.21,-0.28 -0.06,-0.37 0.04,-1.01 -0.11,-0.52 -0.01,-0.41 -0.26,-0.3 -0.04,-0.16 -0.21,-0.17 -0.1,0 -0.17,0.07 0.13,0.25 -0.01,0.08 -0.08,0 -0.34,-0.34 -0.11,-0.2 -0.19,-0.16 0.04,-0.39 -0.26,-0.1 -0.05,-0.15 0,-0.58 -0.47,-0.16 -0.1,-0.44 -0.31,-0.69 -0.29,-0.14 -0.49,-0.06 -0.77,-0.76 -0.52,-0.14 -0.24,-0.14 -0.27,-0.04 -0.35,-0.18 -0.31,-0.34 -0.26,-0.41 -0.31,-0.21 -0.31,-0.1 -0.08,-0.17 -0.54,-0.14 -0.11,-0.16 -0.24,-0.16 -0.24,-0.04 -0.74,-0.4 -0.01,-0.13 -0.13,-0.07 -0.06,-0.17 -0.17,-0.14 -0.11,-0.07 -0.25,-0.21 0.01,-0.1 -0.1,-0.18 -0.31,-0.23 -0.14,0.04 -0.16,-0.66 -0.2,-0.04 -0.01,-0.18 -0.17,-0.07 -0.54,-0.54 -0.3,-0.42 -0.08,-0.25 -0.2,-0.28 0.04,-0.55 -0.11,-0.3 -0.1,-0.1 -0.17,0 -0.16,-0.27 -0.24,-0.23 -0.7,-0.14 -0.03,-0.08 -0.26,-0.2 -0.19,-0.01 -0.05,-0.27 -0.2,-0.2 -0.19,-0.06 -0.11,-0.18 -0.14,-0.03 -0.37,-0.31 -0.32,-0.58 -0.44,-0.21 -0.17,-0.61 -0.09,-0.1 -0.05,-0.33 -0.86,-0.58 -0.05,-0.24 0.3,0.01 0.09,0.21 0.2,-0.03 0.03,-0.11 -0.1,-0.14 0.12,-0.08 0,-0.13 -0.07,-0.06 -0.03,-0.52 -0.24,-0.37 -0.07,-0.34 -0.24,-0.24 -0.62,0.04 -0.31,0.08 -0.04,0.23 0.19,0.1 0.09,0.25 0.1,-0.01 0.01,0.11 -0.07,0.04 0.09,0.14 -0.08,0.08 0.14,0.06 0.06,0.13 -0.06,0.1 -0.15,0 -0.08,-0.11 -0.15,-0.18 -0.22,-0.68 -0.29,-0.37 -0.11,-0.25 0.06,-0.55 -0.07,-0.21 0.04,-0.23 -0.22,-0.48 0.02,-0.16 0.08,-0.1 0.05,-0.38 -0.07,-0.21 -0.51,-0.55 0.06,-0.1 -0.2,-0.25 -0.08,-0.3 -0.13,-0.35 -0.06,-0.28 -0.11,-0.1 0.11,-0.42 0.13,-0.2 -0.05,-0.14 0.2,-0.41 0.09,-0.27 -0.04,-0.44 0.05,-0.44 0.34,-0.34 0.05,-0.21 0.11,-0.1 -0.06,-0.25 0.15,-0.14 0.02,-0.31 0.29,-0.59 0.01,-0.23 0.17,-0.47 -0.16,-0.25 -0.46,-0.42 -0.11,-0.51 -0.09,-0.2 -0.12,-0.08 -0.08,-0.5 -0.2,-0.03 -0.32,-0.31 -0.1,-0.08 -0.19,-0.13 -0.11,-0.17 -0.05,-0.13 -0.29,0.07 0,-0.23 0.08,-0.01 0.02,-0.1 -0.11,-0.3 -0.16,-0.01 0.03,-0.23 -0.19,-0.43 -0.06,-0.28 0.01,-1.08 0.29,-0.52 -0.03,-0.3 -0.09,-0.14 -0.17,-0.08 0.06,-0.26 0.21,-0.24 0.14,-0.34 0.15,-0.04 0.14,-0.45 -0.05,-0.21 -0.19,-0.23 -0.09,-0.14 -0.02,-0.16 -0.15,-0.14 -0.01,-0.13 -0.15,-0.08 -0.13,0.03 -0.14,0.21 -0.1,0.01 0.24,-0.3 -0.02,-0.06 -0.13,0 -0.08,-0.04 0.2,-0.07 0,-0.65 0.13,-0.37 -0.03,-0.25 0.08,-0.34 0.14,-0.18 0.13,-0.4 0.05,-0.58 -0.39,-0.34 -0.22,0.06 -0.32,-0.07 -0.2,-0.28 0,-0.27 -0.14,-0.24 -0.49,-0.17 -0.2,-0.23 -0.17,0.06 -0.09,-0.16 -0.2,-0.03 -0.09,-0.35 -0.19,-0.23 -0.06,-0.01 -0.11,0.13 -0.09,-0.14 -0.46,0.07 -0.35,-0.14 -0.06,-0.54 -0.5,-0.16 -0.24,-0.27 -0.21,-0.08 -0.04,-0.3 0.11,-0.21 -0.01,-0.47 -0.23,-0.17 -0.12,-0.19 -0.16,0.06 0,-0.21 -0.16,-0.23 -0.22,-0.08 -0.05,-0.21 -0.08,0 -0.21,-0.28 -0.51,-0.33 -0.15,-0.18 -0.16,-0.41 -0.19,-0.23 -0.16,-0.03 -0.13,0.07 -0.19,-0.13 -0.03,-0.27 -0.25,-0.17 -0.25,-0.4 -0.04,-0.24 -0.11,-0.03 -0.19,-0.27 -0.29,-0.14 -0.66,-0.06 -0.15,-0.23 -0.04,-0.17 -0.24,-0.2 0,-0.11 -0.11,-0.26 -0.4,-0.6 -0.08,-0.3 -0.71,-0.23 -0.59,0.14 -0.28,-0.39 -0.48,-0.48 -0.21,-0.11 -0.21,0 -0.24,-0.23 -0.14,-0.03 -0.05,-0.1 -0.19,-0.1 -0.11,-0.51 -0.22,-0.2 -0.03,-0.29 -0.08,-0.08 0.27,-0.74 -0.12,-0.11 -0.01,-0.21 -0.19,-0.13 0,-0.13 -0.17,-0.17 0.03,-0.27 -0.24,-0.31 -0.38,-0.27 -0.13,0.06 -0.3,-0.04 -0.04,-0.28 -0.24,-0.36 -0.17,0 -0.31,-0.14 -0.01,-0.47 -0.07,-0.19 0.16,-0.28 0,-0.27 -0.09,-0.33 -0.22,-0.27 -0.41,-0.3 0,-0.13 0.1,-0.06 -0.04,-0.34 0.09,-0.36 0.06,-0.04 0.02,-0.3 0.21,-0.16 -0.31,-0.93 -0.31,-0.24 -0.06,-0.14 -0.42,-0.03 -0.14,-0.13 -0.14,-0.3 -0.14,-0.13 -0.12,-0.17 0.01,-0.21 -0.29,-0.3 -0.22,-0.1 -0.29,0.04 -0.12,-0.16 -0.82,-0.38 -0.01,-0.06 0.1,-0.06 -0.02,-0.23 -0.1,-0.14 -0.14,-0.06 -0.1,-0.47 -0.15,-0.04 -0.02,0.31 0.04,0.08 -0.09,0.1 -0.08,-0.04 -0.13,0.11 -0.13,-0.3 0.15,-0.13 0.02,-0.27 0.08,-0.01 0.09,-0.14 -0.11,-0.31 -0.09,0 -0.1,0.14 0.02,0.14 0.15,0.01 0,0.06 -0.49,0.24 -0.09,0.1 0.02,-0.21 0.22,-0.21 0.24,-0.56 -0.04,-0.4 -0.17,-0.38 -0.31,-0.39 -0.13,-0.09 -0.14,0 0.26,-0.33 0,-0.2 -0.09,-0.14 0.04,-0.47 -0.09,-0.37 0.2,-0.27 0.04,-0.41 -0.24,-0.14 0.03,-0.27 -0.05,-0.1 -0.17,-0.01 -0.01,-0.41 -0.16,-0.13 0.09,-0.44 -0.07,-0.19 -0.1,-0.07 -0.01,-0.13 -0.08,-0.08 -0.19,0 -0.29,-0.11 -0.77,-0.23 -0.06,-0.11 0.01,-0.19 0.44,-0.43 0.13,-0.46 -0.2,-0.64 -0.07,-0.97 -0.16,-0.16 -0.06,-0.3 0.05,-0.13 0.1,-0.01 -0.01,-0.14 0.1,-0.1 0.06,-0.24 -0.05,-0.14 0.17,-0.37 -0.13,-0.67 0.47,-0.84 -0.09,-1.06 -0.05,-0.1 -0.1,-0.01 -0.09,-0.29 -0.11,-0.09 -0.01,-0.17 -0.39,-0.66 -0.09,0 -0.21,-0.17 -0.06,0 0.03,0.09 -0.08,0.04 -0.19,-0.03 -0.21,-0.73 -0.16,-0.27 -0.42,-0.42 0,0 6.93,-5.2 2.57,-0.59 0,0 0,-0.84 z"
     title="Janūb Sīnā'"
     id="EG-JS" />
  <path
     d="m 293.73971,80.1318 -2.41,-1.48 -1.65,-2.78 0,0 -0.17,-4.63 0,0 -0.88,-1.74 -0.4,-1.88 0,0 1.28,-2.66 2.27,-1.57 0,0 2.41,-1.84 0.52,-1.23 0,0 0.4,-4.51 0,0 0.91,0.59 1.07,1.79 1.17,0.07 0,0 -1.27,1.3 -0.08,2.48 -0.66,0.04 0,2.62 1.12,1.06 1.12,1.47 1.21,2.39 1.02,2.69 2.13,1.66 2.45,1.34 0.2,0.27 1.8,1.08 0,0 -4.51,0.3 -4.4,1.77 -1.86,1.69 0,0 z"
     title="Al Qalyūbīyah"
     id="EG-KB" />
  <path
     d="m 288.07971,3.6818 0.28,0.09 0.15,-0.03 0.43,0.07 0.06,0.08 0.13,-0.05 0.06,0.13 0.08,-0.01 0.2,0.16 0.26,0.09 0.79,0.14 0.97,0.3 0.51,0.01 0.14,0.09 0.22,0.03 0.19,0.13 0.17,0 0.37,0.26 0.94,0.16 0.87,0.34 0.65,0.12 1.83,0.79 0.02,2.71 -1.25,-0.11 0,0 -1.01,0.91 0.08,2.09 1.09,-0.09 0.08,2.9 0.46,1 0.07,10.62 0.24,1.7 -0.7,0.54 -1.64,-0.31 0,0 0,-0.1 -1.19,0.03 -1.52,-0.07 0,0 -5.2,0.43 -0.95,-0.07 0,5.61 -5.22,-0.09 -0.23,0.89 -0.16,1.01 -4.67,0 -0.3,-1.05 0,0 -1.21,-0.01 -1.92,-3.49 -5.93,-5.58 -3.66,0.35 0,-6.9 -2.8,-3.22 -0.41,-4.9 1.97,-0.01 2.51,-0.54 6.87,-2.33 3.01,-0.76 1.94,-1.27 0.62,0.2 1.07,-0.49 3.34,-0.83 1.49,-0.79 0.17,0.6 -0.17,0.65 -1.08,-0.3 -1.08,0.24 -2.38,0.72 -1.53,0.85 -0.57,0.58 -1.07,0.48 -0.78,0.48 -1.67,0.66 -1.61,0.53 -1.08,1.02 -0.36,0.84 -0.59,-0.06 -0.78,0.36 -1.49,0.05 -0.36,0.54 -0.78,0.12 -1.07,-0.24 -0.84,0.3 -0.18,0.66 -0.07,1.31 0.61,0 1.43,0.24 2.94,-0.08 0.11,-0.58 0.48,-1.37 1.07,0.3 0.88,0.72 0.84,0.5 0.67,-0.8 0.24,-0.72 0.72,-0.42 1.13,-0.83 0.54,-0.12 0.28,0.54 0.68,0.59 1.13,-0.3 1.72,0.25 1.27,0.09 1.12,-0.68 2.27,-0.6 0.85,-1.23 0.6,-1.41 0.65,-0.9 1.5,0.06 0.89,0.12 0.07,1.03 0.68,0.27 0.68,-1.84 -0.77,-1.01 -1.91,-1.2 -1.38,-0.59 -1.08,-0.14 -0.78,-0.22 0.91,-0.46 1.51,-0.39 0.36,-0.03 0.14,0.09 0.2,-0.09 z"
     title="Kafr ash Shaykh"
     id="EG-KFS" />
  <path
     d="m 358.96971,332.1218 -2.43,-1.21 -2.47,-2.19 -1.25,-0.96 -1.22,-3.2 -0.41,-3 0.18,-1.55 -0.76,-1.52 -0.15,-3.12 -1.15,-2.49 -0.64,-1.07 0.11,-2.34 0.92,-2.03 1.78,-1.84 2.64,-1.14 2.64,-2.47 1.66,-1.97 0.69,-1.52 0,-2.67 0.52,-1.59 1.55,-2.73 1.33,-1.97 -0.25,-2.25 -1.22,-2.27 -0.92,-0.76 -2.58,-0.13 -2.58,1.02 -1.89,1.4 -4.19,1.72 -1.15,0.7 -1.89,0.63 -1.84,0.13 -2.07,0.38 -1.43,0.44 -4.82,0.12 -1.6,-0.63 -4.86,-4.24 0,0 -2.18,-2.66 0,0 0.69,-1.13 0.98,-0.95 1.43,-0.96 1.32,0 1.21,-0.45 1.32,-0.95 0.69,-1.15 0.86,-0.13 1.21,0.64 0.23,1.4 0.64,1.72 0.94,0.45 0.72,0.5 0.98,1.34 1.21,0 0.46,-0.64 0.92,-1.01 0,0 1.69,-0.12 1.43,-0.76 2.07,-1.53 2.93,-2.04 2.47,-0.83 6.08,-0.06 4.48,0.96 3.39,2.29 1.43,2.29 0.62,2.18 0,0 0,0 0,0 1.13,2.48 0.35,3.43 0,0 0.03,3.95 -0.2,0.77 0,0 -1.74,5.5 -1.97,3.15 -5.77,3.76 -1.89,3.1 -1.72,1.83 -0.8,1.83 0,5.38 0.8,2.53 1.55,2.46 0,0 0.71,0.64 0,0 0.07,3.57 -1.02,3.54 z m -4.02,-24.12 1.84,0.34 1.45,-0.25 0.92,-1.35 0.61,-1.44 0.31,-1.6 -2.68,-0.25 -1.38,3.29 -1.07,1.26 z"
     title="Qinā"
     id="EG-KN" />
  <path
     d="m 360.07971,303.7018 -0.3,1.6 -0.62,1.44 -0.91,1.35 -1.46,0.25 -1.84,-0.34 1.08,-1.26 1.38,-3.3 z"
     title="Al Uqşur"
     id="EG-LX" />
  <path
     d="m 178.18971,205.9718 1.38,-2.76 0.99,-2.21 0.59,-1.77 0.4,-2.22 0.78,-1.78 1.58,-1.11 1.58,-0.88 5.32,-1.12 3.16,-1.55 4.14,-3.11 3.74,-1.33 2.57,-2 2.56,-0.67 3.75,-3.34 4.73,-3.11 2.56,-2.01 2.37,-2.23 1.18,-5.57 1.58,-5.36 1.18,-3.35 1.58,-2.9 1.14,-4.34 0,0 2.51,-0.23 8.49,-0.29 1.52,0.03 33.41,-1.11 2.43,1.41 2.89,2.01 0,0 3.73,0.5 -0.46,1.61 0,0 -1.29,3.72 -0.06,4.29 0,0 -0.04,2.48 -1.18,1.7 -1.11,1.83 -1.24,2.24 -0.75,2.81 0.13,2.24 0.62,6.03 3.35,7.69 0.49,5.87 1.12,3.63 0.25,4.75 -0.37,3.34 0,0 -2.78,-0.19 -1.56,1.37 -2.43,-0.39 -1.83,-0.49 -3.03,0 0,0 -0.09,-1.95 -90.13,-0.18 0,0 z"
     title="Al Minyā"
     id="EG-MN" />
  <path
     d="m 283.28971,51.7418 0,0 0,0 4.43,-0.05 0.47,1.21 0,0 -0.17,-0.06 0.17,0.06 0,0 0.06,1.03 3.09,0.02 0,0 3.78,1.74 -0.41,4.63 0,0 -0.52,1.23 -2.41,1.84 0,0 -2.27,1.57 -1.28,2.66 0,0 0.4,1.88 0.88,1.74 0,0 0.17,4.71 -1.95,0.66 -0.76,-0.19 0,0 -0.89,-0.52 0,0 0,0 0,0 -0.8,0.9 -1.63,-0.3 -0.9,-0.89 -0.07,-1.8 -0.91,-0.89 -1.42,0.07 -0.09,-3.18 0,0 0,0 0,0 -2.09,-0.14 -0.68,0.58 -1.44,0.12 0,0 0.14,-1.83 1.38,-0.15 0.08,-1.85 -0.1,-4.03 -0.58,-1.54 0.26,-1.73 -1.17,-0.88 0.46,-1.81 -1.07,-0.08 -0.13,-0.4 0.27,-4.66 0,0 3.52,-0.44 0.15,-0.99 2.42,0 0.07,0.9 1.16,0.05 z"
     title="Al Minūfīyah"
     id="EG-MNF" />
  <path
     d="m 20.489711,0.2718 0.08,0.28 -0.01,0.35 -0.06,0.04 0.04,0.16 -0.07,0.1 0.01,0.12 -0.11,0.18 0.09,0.31 -0.05,0.12 0.25,0.2 0.05,0.1 -0.06,0.07 0.16,0.12 -0.07,0.15 -0.06,0 0.06,0.16 -0.08,0.26 0.09,-0.03 0.07,0.07 -0.02,0.13 0.24,0.25 0.26,0.6 0.1,0.06 0.01,0.17 -0.06,0.04 0.16,0.41 -0.03,0.1 0.15,0.17 0.02,0.17 0.15,0.19 0.14,0.01 -0.05,0.17 -0.41,0.1 -0.07,0.25 -0.1,0.07 -0.08,0.01 -0.07,-0.13 -0.11,0.09 0,0.39 0.16,0.34 0.15,0.16 -0.01,0.13 0.37,0.41 0.09,0 0.2,0.17 1.32,0.54 1.36,0.35 1.27,0.17 1.06,0.25 0.39,0 0.16,0.06 0.05,-0.04 1.41,0.04 1.17,-0.09 0.06,-0.07 0.05,0.12 0.37,0.03 0.07,-0.04 0.05,0.06 0.77,0.04 1.51,-0.29 0.89,-0.32 0.51,-0.07 0.01,-0.09 0.19,0.1 0.69,-0.01 1.2,-0.25 1.49,-0.47 1.06,-0.45 1.52,-0.42 0.01,-0.07 0.21,0.03 1.77,-0.67 0.15,0.06 0.01,-0.06 0.16,-0.01 0.2,-0.15 0.14,0 0.39,-0.2 0.34,-0.03 0.1,-0.09 0.51,-0.13 0.13,-0.1 0.22,0 0.06,-0.07 0.3,-0.07 0.15,-0.13 0.24,-0.03 0.24,-0.16 0.24,0 0.35,-0.2 0.51,-0.13 0.51,-0.28 1.01,-0.32 0.25,-0.16 0.19,0.01 0.39,-0.22 0.34,-0.04 0.26,-0.13 0.06,0.03 0.06,-0.07 0.14,-0.01 0.03,-0.09 0.09,0.07 0.15,-0.13 0.41,0 0.1,-0.09 0.1,0.03 0.12,-0.09 0.1,0.01 0.06,-0.1 0.21,0.03 0.02,-0.06 0.13,-0.01 0.09,0.04 0.19,-0.12 0.1,0.03 0.15,-0.12 0.22,0 0.35,-0.17 0.19,0.03 0.14,-0.07 0.31,-0.01 0.06,-0.09 0.31,0.01 0.07,-0.06 0.05,0.07 0.54,-0.03 0.06,0.06 0.15,-0.04 0.06,0.07 0.15,-0.01 0.24,0.13 0.21,-0.01 0.25,0.13 0.2,-0.04 0.13,0.15 0.24,0.06 0.21,0.03 0.21,-0.06 0.27,0.19 0.4,0.01 0.02,0.06 0.29,0 0.04,0.06 0.2,-0.03 0.1,0.07 0.11,-0.01 0.06,0.09 0.08,-0.1 0.19,0.01 0.06,0.12 0.1,-0.06 0.21,0.03 0.27,0.2 0.08,-0.06 0.09,0.07 0.16,-0.04 0.06,0.09 0.02,-0.09 0.11,0 0.01,0.12 0.25,0.09 0.26,-0.05 0.19,0.09 0.32,0 0.32,0.18 0.26,-0.04 0.08,0.12 0.17,-0.03 0.05,0.07 0.07,-0.03 0.19,0.09 0.1,-0.06 0.09,0.12 0.14,-0.03 0.17,0.09 0.05,-0.07 0.05,0.09 0.61,0.1 0.24,0.25 0.12,-0.01 0.01,0.07 0.2,-0.07 0.06,0.1 0.1,-0.04 0.06,0.06 0.22,0.01 0.08,0.12 0.11,-0.01 0.26,0.13 0.09,-0.05 0.11,0.09 0.14,0 0.07,0.09 0.15,-0.06 0.25,0.23 0.4,0.16 0.07,-0.03 0.92,0.28 0.15,-0.04 0.11,0.1 0.16,-0.01 0.05,0.1 0.4,0.01 0.15,0.13 0.09,-0.06 0.31,0.01 0.22,0.13 0.34,0.09 0.04,0.07 0.74,0.13 0.76,0.31 0.22,-0.04 0.12,0.1 0.11,-0.01 0.14,0.13 0.85,0.22 0.5,0.36 0.37,-0.04 0.11,0.04 0.02,0.1 0.23,-0.03 0.16,0.19 0.27,-0.04 0.1,0.19 0.24,-0.04 0.16,0.12 0.37,-0.04 0.36,0.19 0.3,-0.06 0.47,0.03 0.11,0.18 0.29,0.15 0.19,0 0.05,-0.07 0.41,0.13 0.81,-0.06 0.16,0.1 0.37,-0.01 0.07,0.09 0.14,-0.06 0.22,0.14 0.74,0.03 0.05,0.07 0.35,0.03 0.26,0.12 0.04,0.09 0.29,0.06 0.52,0.31 0.17,-0.03 0.42,0.22 0.8,-0.03 1.48,-0.25 0.54,-0.33 0.06,0.45 0.41,0.22 0.36,0.01 0.05,0.15 0.16,0.04 0.15,-0.04 0.17,0.12 0.66,0.03 0.61,-0.15 0.05,0 -0.02,0.09 0.11,0.03 1.2,-0.09 0.27,0.01 0.36,0.12 0.36,-0.06 0.47,0.25 0.9,0.03 0.3,0.12 1.91,-0.1 0.12,0.04 0.16,0.22 0.59,0.23 0.44,0.07 0.12,0.25 -0.01,0.16 0.24,0.15 0.08,0.13 1.31,0.36 0.31,0.19 0.06,0.15 0.34,0.07 0.19,0.15 0.37,0.07 1.1,-0.06 0.85,0 0.3,0.06 0.08,-0.06 0.69,0.04 0.15,0.09 0.2,-0.09 0.289999,0.06 0.05,-0.07 0.74,-0.06 0.19,-0.03 0.7,-0.07 0.1,0.07 0.17,-0.09 0.09,0.07 0.15,-0.03 0.14,0.12 0.25,-0.07 0.04,0.2 0.19,0.09 0.1,0.2 0.14,0.03 0.27,0.23 0.16,0 0.04,0.1 -0.05,0.26 0.34,0.5 0.32,0.17 0.8,0.06 0.11,0.13 0.13,-0.09 0.46,0 0.06,0.17 0.26,0.17 0.29,-0.19 0.14,0.41 0,0.09 -0.07,0.03 0.05,0.26 0.22,0.22 0.5,0.22 0.29,-0.03 0.5,0.19 0.09,0.13 0.7,-0.07 0.71,0.04 0.9,-0.02 0,-0.06 0.89,0.03 0.13,0.06 1.5,0.12 0.09,0.07 0.41,0 0.31,0.12 -0.24,0.13 -0.22,0 -0.09,-0.15 -0.1,-0.04 -0.37,0.07 -0.14,-0.13 -0.31,0 -0.11,0.04 -0.1,0.17 -0.34,-0.22 -0.15,0.16 -0.1,0 -0.06,0.28 0.06,0.16 0.76,0.04 0.04,-0.1 0.44,0.01 0.05,-0.06 0.49,0.04 0.04,-0.13 0.14,-0.07 0.14,0.32 0.27,0.09 0.42,0.03 0.24,-0.19 0,-0.07 0.19,0.04 0.1,0.1 0.11,-0.06 0.04,-0.15 -0.1,-0.12 -0.47,-0.04 -0.04,-0.07 0.44,0.06 0.15,-0.04 0.2,0.04 0.09,-0.06 0.54,0.05 1.26,-0.19 0.66,-0.03 0.61,-0.13 0.15,0.04 0.46,-0.04 0,0.26 0.37,0.12 0.14,0.12 0.02,0.45 -0.1,0.01 -0.16,0.29 0.01,0.38 -0.05,0.12 0.3,0.47 0,0.16 0.17,0.1 0.04,0.13 0.09,0.03 0.16,0.26 0.15,0.09 0.06,0.35 -0.04,0.17 0.41,0.67 0.09,0.46 0.11,0.13 0.02,0.22 -0.09,0.1 0.07,0.07 -0.01,0.13 0.13,0.01 0.05,0.15 -0.02,0.36 0.17,0.15 0.2,0.38 0.35,0.31 -0.04,0.09 0.24,0.22 0.54,0.39 0.27,0.31 0.36,0.19 0.31,0.26 0.49,0.22 1.75,0.36 3.06,0.01 0.02,0.1 -0.07,-0.06 -0.15,0.01 0.02,0.13 0.14,0.17 0.25,0.09 0.12,0.2 0.32,0.22 0.81,0 0.31,-0.06 0.07,-0.13 0.34,0 0.21,-0.09 1.22,-0.03 0.04,0.06 -0.19,0.26 0.09,0.29 0.06,0.13 0.39,0.17 0.02,0.07 0.61,-0.06 0.19,0.03 0.09,0.1 0.2,0.06 0.86,0.1 0.06,-0.15 0.15,-0.1 -0.04,-0.17 -0.15,0.03 -0.22,0.25 -0.21,-0.01 0,-0.28 0.21,0.03 0.02,-0.06 0.41,0 0.34,-0.12 0.19,-0.03 0.16,-0.06 0.65,-0.07 0.39,-0.12 1.02,-0.42 0.26,0 0.01,-0.06 0.62,-0.2 0.11,-0.1 0.27,-0.04 0.11,-0.15 0.44,-0.07 0.02,-0.09 0.11,-0.04 0.6,-0.15 0.11,-0.09 0.11,0.07 0.08,-0.12 0.21,-0.06 0.16,-0.17 0.15,-0.04 0.11,0.04 0.05,-0.1 0.29,-0.16 0,-0.15 0.15,0.06 -0.04,-0.17 0.14,-0.15 0.11,0.01 0.06,-0.22 0.1,-0.01 0.1,-0.31 -0.06,-0.15 0.2,0.04 0.37,0.2 0.02,0.19 0.07,0.03 -0.11,0.17 0.04,0.13 -0.09,0.12 0.01,0.23 0.11,0.16 0.11,-0.04 -0.05,0.1 0.1,0.13 -0.09,0 -0.1,-0.1 -0.04,0.13 0.1,0.09 -0.11,0.01 -0.04,0.17 0.1,0.23 0.11,0.94 0.35,0.45 0.06,0.19 0.16,0.06 0,0.06 0.37,0.3 0.02,0.19 -0.13,0.36 0.2,0.33 -0.11,0.01 -0.11,0.12 0.16,0.48 -0.13,0.04 -0.02,0.16 0.2,0.39 0.11,0.07 -0.14,0.06 0.12,0.54 0.13,0.25 0.21,0.22 0.8,0.46 0.21,0.06 0.01,0.07 1.2,0.26 1.2,0.1 0.31,-0.04 0.84,0.07 0.11,-0.05 0.06,0.13 0.16,0.07 0.52,-0.04 0.76,0.06 0,-0.06 0.06,0 0.08,0.1 0.35,-0.07 0.11,0.06 0.21,-0.06 0.69,0.03 0.15,-0.04 0.3,0.06 0.37,-0.15 0.35,0.04 0.44,-0.1 0.56,0.04 0.39,-0.04 0.39,-0.13 0.85,0.01 0.35,0.12 0.67,0.54 0.8,0.2 0.26,0.2 0.17,-0.04 0.02,0.07 0.19,-0.07 0.54,-0.04 0.52,0.03 0.16,-0.06 0.32,0.03 0.04,0.06 0.12,-0.06 0.26,0.06 0.89,-0.09 0.86,0.09 1.11,0.35 0.51,-0.06 0.87,-0.35 0.35,-0.04 0.41,-0.2 0.41,-0.07 0.02,-0.09 0.34,-0.03 0.42,-0.13 1.86,-0.13 0.13,0.16 0.39,0.2 0.26,-0.09 0.06,0.25 0.11,0.15 0.45,0.19 0.16,0.32 0.16,0.04 0.02,0.07 0.19,0.06 0.25,0.19 0.26,0.09 0.17,-0.06 0.32,0.12 0.16,-0.01 0.29,0.25 0.34,0.12 0.17,-0.09 0.22,0 0.09,0.12 0.24,-0.03 0.17,0.06 0.16,-0.12 0.39,-0.03 0.09,-0.15 0.14,0 -0.06,0.09 0.01,0.13 0.34,0 0.02,0.29 0.09,-0.01 0.05,0.09 0.27,0.01 0.04,0.06 0.18,0.01 0.07,0.1 0.34,-0.03 0.29,0.1 0.05,0.06 -0.04,0.35 0.27,0.22 -0.07,0.13 0.04,0.1 0.56,0.3 1.96,0.54 0.51,-0.01 0.31,0.09 0.81,-0.06 0.81,0.06 -0.05,0.17 0.23,0.09 0.07,0.12 0.07,-0.04 0.04,0.15 -0.05,0 -0.05,0.26 0.19,0.17 0.06,-0.01 0,-0.22 0.11,0 0.07,0.17 0.49,0.1 0.62,-0.04 0.6,0.04 0,0.07 -0.11,-0.01 -0.07,0.1 -0.04,0.23 0.17,0.2 0.05,0.19 0.27,0.2 0.52,0.22 0.02,0.06 0.32,0.07 0.24,0.16 0.32,0.03 0.49,-0.06 0.81,0.16 -0.05,0.29 0.19,0.19 -0.02,0.13 0.06,0.06 -0.05,0.2 0.08,0.19 -0.09,0.07 0,0.23 0.19,0.2 0,0.09 0.06,0 0.26,0.3 0.45,0.26 0.17,0.22 0.51,0.27 0.44,0.12 0.21,0.17 0.35,0.15 0.16,0.25 0,0.15 0.51,0.54 0.64,0.33 0.3,0.04 0.9,0.32 0.1,0.07 0.05,0.19 0.13,-0.01 0.67,0.2 0.3,0.27 0.22,0.01 0.1,-0.09 0,0.07 -0.2,0.13 0.01,0.09 0.31,0.23 0.09,-0.01 0.1,0.2 0.1,-0.06 0.81,0.25 0.45,0.04 0.06,0.17 -0.86,-0.19 -0.24,-0.13 -0.15,0.06 -0.19,-0.07 -0.13,-0.17 -0.29,-0.1 -0.13,-0.19 -0.1,-0.01 0.16,0.27 -0.1,0 -0.13,-0.17 -0.02,0.04 0.09,0.14 0.21,0.07 -0.01,0.13 -0.22,-0.09 -0.06,-0.16 0.18,0.09 0.24,0.25 0.47,0.07 0.15,0.17 0.2,-0.04 0.16,0.17 0.24,-0.06 0.11,-0.12 0.16,0.03 0.43,0.3 0.31,-0.04 0.01,-0.1 -0.21,-0.08 0.05,-0.07 0.94,0.26 0.62,0.03 0.26,0.12 0.51,0.04 1.34,-0.09 1.14,0.03 0.65,-0.07 0.35,-0.14 0.1,0.04 1.26,-0.39 1.36,-0.27 0.06,-0.09 0.97,-0.27 1.29,-0.58 0.49,-0.17 0.07,0.03 0.82,-0.33 1.1,-0.27 0.72,-0.27 0.32,-0.2 0.14,0.03 0.5,-0.29 2.13,-1 0.94,-0.62 0.8,-0.42 0.09,0.06 0.85,-0.39 0.56,-0.32 0.15,-0.16 0.67,-0.33 0,-0.06 0.19,-0.07 0.19,-0.19 1.36,-0.72 0.05,-0.09 0.17,-0.06 0.09,-0.12 0.08,0.03 0.19,-0.17 0.07,0.03 0.01,-0.12 0.13,-0.1 0.11,0.01 0.14,-0.19 0.27,-0.16 0.03,-0.09 0.35,-0.19 0.27,-0.42 0.09,0 0.15,-0.15 0.06,0.03 0.14,-0.15 0.13,-0.01 0.51,-0.42 0.06,-0.12 0.17,-0.07 0.49,-0.43 0,0 -0.02,3.08 0.93,30.57 0,0 0,5.72 0,0 1.28,2.03 3.16,1.54 0,0 4.26,0.14 6.37,5.04 1.96,0.96 0,0 0,0 0,0 7.56,5.6 2.83,0.55 1.68,1.06 0,0 1.55,3.12 0,0 -3.07,0.4 -22.68,15 -6.62,1.63 -6.46,8.29 -32.28,31.75 -41.89,10.06 -20.39,45.43 0,0 -104.819999,-0.01 0,0 -0.81,0 0,0 -0.02,-80.41 -0.49,-0.91 -1.42,-3.99 -2.1,-4.35 -0.48,-1.51 -0.74,-1.08 -1.02,-2.73 -0.12,-0.72 0.77,-1.99 0.91,-1.12 0.12,-0.73 -0.09,-0.43 -1.74,-4.32 -1.69,-3.79 -0.13,-1.35 0.16,-3.66 -0.31,-1.69 -2.69,-9.13 -2.48,-2.75 0.51,-1.71 1.13,-2.27 1.13,-2.02 0.45,-1.19 0.61,-2.26 2.31,-1.95 1.07,-1.35 0.77,-1.72 0.67,-1.06 1.63,-1.7 0.96,-3.33 0.1,-0.79 -0.04,-0.87 0.26,-1.1 1.06,-2.38 0.48,-2.37 0.14,-1.19 1.06,-2.71 0.1,-0.67 -1.27,-4.36 0.02,-1.03 -0.44,-1.64 -0.79,-1.25 -0.52,-1.46 -0.29,-1.77 -1.17,-3.5 -0.66,-1.29 -0.95,-2.25 -0.24,-1.73 0.06,-1.34 0.41,-3.63 -0.06,-2.19 -0.26,-1.04 -0.63,-1.01 -0.26,-1.51 -0.11,-1.27 0.1,-0.52 3.49,-2.78 1.11,-1.11 4.45,-3.23 0.39,-0.8 0.33,-2.05 0.25,-0.74 0.27,-0.5 0.55,-0.67 0.69,-0.61 0.62,-1.19 0.72,-0.08 z"
     title="Maţrūḩ"
     id="EG-MT" />
  <path
     d="m 345.36971,23.8818 1.29,0.68 0.52,0.39 0.28,0.09 0.1,0.13 0.35,0.13 0.15,0.17 0.04,0.2 0.44,0.25 0.11,0.16 0.65,0.49 0.5,0.6 0.3,0.51 0.56,0.6 0.09,0.09 0.06,0.1 0.29,0.36 0.06,0.39 0,0.1 0.44,0.45 0.64,0.45 0.79,0.77 0.66,0.48 0.74,0.39 1.01,0.32 0.66,0.09 0,0 0,3.04 0,0 -3.08,-0.81 -3,-1.94 0,0 -3.19,-1.16 -1.94,-0.97 -2.2,-0.17 -0.23,-0.65 0.93,-0.75 1.31,-1.97 0.44,-0.96 0.48,-0.57 -0.25,-1.48 z m 0,0 -0.96,-0.15 -0.09,-0.09 0.04,-0.15 0.06,-0.07 0,-0.13 0.15,-0.03 0.2,0.07 0.2,0.16 0.08,-0.03 0.07,0.03 0.19,0.15 0.08,-0.03 -0.02,0.27 z m -0.96,-1.2 -0.01,0.61 -0.05,0.01 -0.02,0.12 -0.03,0.13 -0.5,-0.64 0.16,-0.03 0.1,0.25 0.01,-0.07 0.21,0 0.17,-0.83 0.08,-0.04 -0.12,0.49 z m -0.67,-3.11 0.03,0.07 -0.66,0.97 -0.14,0.1 -0.05,0.17 -0.22,0.2 -0.09,0.23 0.11,0.15 0.28,0.06 0.04,0.15 0.15,0.12 -0.14,0.29 0.19,0.28 0.33,0.17 0.21,0.01 -0.05,0.26 0.08,0.1 -0.61,0.75 -0.31,0.48 -0.26,0.7 -0.09,-1.44 0.18,-0.39 -0.26,-0.44 -0.22,-0.74 -0.31,0.57 0.13,0.39 -0.39,0.22 0.09,0.52 -0.3,0.72 -0.4,-0.54 -0.22,-0.79 -0.35,-0.66 0.26,-0.48 -0.04,-0.48 0,0 0.32,-0.37 0,0 0.14,0.03 0.14,-0.15 0.39,0.17 0.82,0.04 0.17,-0.1 0.13,0.01 0.92,-1.35 z"
     title="Būr Saٰīd"
     id="EG-PTS" />
  <path
     d="m 320.33971,254.3818 2.02,2.56 0.46,1.59 0.97,1.28 1.64,0.53 0.44,2.99 1.2,3.6 1.16,1.77 0.81,0.85 2.73,1.72 4.03,1.21 1.81,1.33 1.04,2.59 2.04,2.8 0.34,0.13 -0.19,1.64 1.96,0.88 0,0 -0.92,1.01 -0.46,0.63 -1.21,0 -0.97,-1.33 -0.73,-0.5 -0.93,-0.45 -0.64,-1.72 -0.23,-1.4 -1.21,-0.64 -0.86,0.13 -0.69,1.14 -1.32,0.96 -1.2,0.44 -1.32,0 -1.44,0.96 -0.97,0.95 -0.69,1.13 0,0 -0.23,-0.27 0,0 -0.81,-0.99 -1.62,-2.35 -0.9,-0.38 -1.44,-1.59 -2.87,-3.76 -2.32,-3.47 -1.07,-1.24 -0.14,-0.27 -2.21,-2.84 -1.95,-2.93 -2.13,-3.05 -1.09,-1.87 -2.01,-1.53 -2.51,-0.47 -3,-3.46 -2.52,-3.26 -0.52,-1.83 0,0 0.65,-0.2 1.19,-0.98 1.72,-0.96 0.86,-0.64 1.15,-1.66 0.57,-1.09 1.78,0.19 0.86,1.15 0.89,1.98 1.04,0.98 0.85,1.85 2.22,0.02 0,0 0.5,0.33 2.58,0.95 5.81,4.86 0,0 z"
     title="Sūhāj"
     id="EG-SHG" />
  <path
     d="m 329.66971,30.6818 0.66,0.06 0.69,-0.18 0.98,0.38 0.06,0.45 0.36,0.27 0.3,-0.18 0.15,-0.39 -0.24,-0.27 -0.06,-0.47 0.22,-0.07 0.64,0.1 0.24,0.38 0.78,0.52 0.64,-0.06 0,0 0.67,1.21 1.96,0.08 0.19,5.65 -1.7,0.05 -0.23,1.84 -1.81,4.11 0.91,3.84 0.07,2.71 -4.74,6.73 -0.26,0.94 -5.04,0.3 -0.59,0.87 -3.78,-0.19 -0.42,-0.88 -2.26,-0.1 0.17,1.65 1.68,0.88 0.41,4.55 1.01,4.9 0,0 -6.29,4.4 -3.15,1.9 -4.59,0 0,0 -1.8,-1.08 -0.2,-0.27 -2.45,-1.34 -2.13,-1.66 -1.02,-2.69 -1.21,-2.39 -1.12,-1.47 -1.12,-1.06 0,-2.62 0.66,-0.04 0.08,-2.48 1.27,-1.3 0,0 2.02,-1.99 0.92,-2.37 -0.84,-0.77 0,-6.49 1.32,-1.17 8.82,-0.24 0.21,-1.47 1.32,-0.72 0.16,-1.63 2.27,-0.18 0.14,-2.89 2.88,-2.98 0.15,-1.98 1.09,-1.81 3.59,0.07 0.93,-0.19 4.16,-0.56 3.35,-1.29 0,0 -0.21,0.45 -0.87,0.42 z"
     title="Ash Sharqīyah"
     id="EG-SHR" />
  <path
     d="m 368.12971,29.4018 0.24,0.15 0,0.15 0.1,0.09 0.05,0.22 -0.08,0.04 -0.06,0.2 -0.22,-0.22 -0.09,0 0.01,0.12 0.27,0.25 -0.03,0.12 -0.41,-0.51 0.05,-0.28 -0.13,-0.2 0.3,-0.13 z m 25.38,-2.22 0.86,0.52 -0.03,0.09 -0.37,-0.23 -0.36,-0.04 -0.04,-0.1 -0.09,-0.03 -0.06,0.04 0.07,0.03 0.01,0.13 -0.06,0 -0.2,-0.35 0.12,-0.04 0.1,0.07 0.05,-0.09 z m -13.74,-4.02 0.17,0.06 1.04,-0.04 0.49,0.06 0.19,0.09 0.84,0.06 0.35,0.13 0.14,-0.04 0.11,0.1 0.31,0.07 0.06,-0.12 0.35,0.19 0.09,-0.03 1.05,0.2 0.14,-0.03 0.19,0.07 0.2,-0.1 0.02,0.06 -0.15,0.3 -0.1,-0.03 -0.19,0.15 -0.2,-0.19 -0.11,0.03 -0.03,-0.1 -0.09,0.09 -0.16,-0.15 -0.22,0.06 -0.71,-0.25 -0.34,0.01 -0.13,-0.09 -0.67,-0.17 -0.17,-0.01 -0.1,0.07 -0.17,-0.13 -0.26,-0.06 -0.56,0 -0.26,-0.07 -0.49,0.01 -0.51,0.12 -0.34,-0.09 -0.64,0 -0.09,0.07 -0.35,-0.04 -0.55,0.12 -0.16,0 0.03,-0.09 -0.15,0.07 -0.04,-0.06 -0.14,0.01 0.04,0.31 -0.11,-0.01 -0.04,0.13 -0.06,-0.07 -0.17,-0.03 -0.09,0.12 0.47,0.19 0.05,0.19 0.21,0 0.11,-0.13 -0.04,0.12 0.14,-0.01 0,0.06 -0.62,0.1 -0.69,0.2 -0.72,-0.03 -2.02,1.14 -0.66,0.57 -0.16,0.01 -0.14,0.12 -0.41,0.12 -1.42,0.61 0.01,0.07 -0.14,0.09 -0.04,0.29 -0.08,0.07 -0.22,0 -0.06,0.16 -0.16,0.16 -0.26,0 -0.07,-0.09 0.02,-0.15 0.25,-0.15 0.59,-0.55 1.55,-0.87 0.71,-0.32 0.08,-0.13 1.26,-0.7 2.2,-1.39 0.84,-0.32 0.61,-0.12 1.55,-0.07 z m 50.5,0.4 3.71,12.31 2.56,7.51 3.96,8.31 1.3,5.41 -0.13,2.83 1.95,2.29 -0.93,2.62 0.11,1.59 3.14,2.05 0.92,3.44 5.33,14.97 -0.09,0.78 4.6,12.9 -0.03,2.48 0.81,1.4 0.2,0.97 -0.21,1.4 -0.42,1.41 0.18,1.5 0.21,0.86 0.59,1.12 1.13,1.33 0,0 -2.39,-0.58 -3.74,0.15 -3.73,-0.73 -3.47,-0.29 -3.86,-0.59 -0.31,-0.27 -1.43,0.12 -2.62,-1.07 -2.63,-0.88 -0.91,-0.28 -0.08,0.03 -6.04,-3.68 -3.86,-0.88 -3.6,-1.18 -3.34,-2.21 -7.97,-5.01 -0.05,-0.11 -1.77,-0.86 -8.2,-1.92 -4.26,0.07 -1.02,-0.29 -8.36,-1.18 -9.77,-0.29 -6.61,0.43 -0.02,-0.12 -0.24,0.28 -1.87,-0.07 0,0 0,-1.84 0,0 -1.54,-0.15 0.13,-11.38 -1.04,-3.86 0,0 -0.12,-0.01 0,0 -0.77,-2.79 -1.41,-3.85 -1.67,-2.97 -3.21,-5.05 -1.05,-17.58 -0.24,-6.82 0,0 0,-3.04 0,0 1.68,0.01 1.67,-0.17 0.36,-0.06 0.16,-0.09 0.74,-0.09 0.05,-0.06 1.67,-0.41 0.97,-0.36 0.38,-0.22 0.22,-0.06 0.05,0.06 0.3,-0.22 0.5,-0.1 0.04,-0.09 1.01,-0.54 0.26,-0.22 1.02,-0.6 0.62,-0.26 0.81,-0.46 0.81,-0.54 0.25,-0.23 0.16,-0.06 0.26,0.55 -0.05,0.1 -0.15,0.03 -0.16,-0.13 -0.14,0 -0.39,0.17 -1.14,0.68 -0.71,0.25 -0.15,0.13 -0.52,0.19 -1,0.68 -0.5,0.2 -0.13,0.16 -0.2,0.06 -0.15,0.15 -0.3,0.04 -0.15,0.17 -0.13,-0.04 -0.11,0.22 -0.06,-0.06 -0.24,0.03 -0.04,0.09 -0.15,0.07 -0.14,-0.03 -0.16,0.04 -0.15,0.06 -0.06,0.1 -0.26,0.16 -0.1,-0.04 -0.13,0.04 -0.24,0.2 -0.25,-0.04 -0.28,0.09 -0.04,0.07 -0.4,0 -0.24,0.13 -0.37,0 -0.15,0.12 -1,0.1 -0.46,0.25 -0.05,-0.06 -0.19,0.01 -0.04,0.06 -0.16,-0.03 -0.2,0.19 -0.2,0.06 0,0.06 0.24,0.01 0.05,0.07 0.22,0.06 0.24,-0.1 -0.09,-0.15 0.08,-0.16 0.14,0.13 0.11,0.01 0.31,-0.06 0.35,0.04 0.1,-0.12 0.47,0.07 0.05,0.07 -0.1,0.25 0.05,0.39 -0.44,0.01 -0.3,0.19 0.04,0.07 0.31,0.03 0.14,0.07 0.4,0 0.11,-0.15 0.51,-0.03 0.4,-0.38 0.06,-0.16 0.25,-0.17 0.29,0.01 0.51,0.26 0.79,-0.06 0.31,-0.13 0.36,-0.45 0.08,-0.01 0.55,-0.57 0.13,-0.1 0.17,-0.13 0.54,-0.15 0.29,-0.29 0.17,-0.03 0.06,-0.1 0.44,-0.01 0.11,-0.1 0.16,-0.01 0.09,-0.2 0.14,0.1 0.31,-0.35 0.16,0.01 0.1,0.15 0.22,-0.06 0.29,0.06 0.05,0.07 0.15,-0.07 0.14,-0.17 0.36,0.17 0.26,0.01 0.03,0.06 0.21,-0.01 0.02,-0.1 0.19,0.09 0.21,-0.12 0.17,0.09 0.14,-0.01 -0.04,0.13 0.12,0.07 0.06,-0.12 0.2,-0.13 -0.04,-0.35 0.04,-0.1 -0.03,-0.06 -0.11,-0.01 -0.04,0.09 -0.22,0.03 -0.05,0.12 -0.09,-0.07 0.05,-0.1 -0.16,0.01 -0.09,0.09 -0.1,0 0.01,0.16 -0.07,-0.04 0.06,-0.28 0.36,-0.26 0.17,0 0.38,0.26 0.4,0 -0.04,0.06 0.06,0.06 0.31,0 0.3,0.28 0.19,0.03 0.05,0.17 0.15,0.03 -0.06,0.09 0.07,0.06 0.2,0.01 0.16,-0.19 0.19,0.01 0.06,0.15 -0.1,0.06 -0.01,0.13 0.14,0.06 0.09,0.22 0.14,0.04 0.03,0.06 -0.08,0.04 0.09,0.1 -0.15,0 -0.15,-0.16 -0.05,-0.15 0.06,-0.04 -0.03,-0.1 -0.6,-0.03 -0.04,0.04 0.1,0.1 0.24,0.06 -0.08,0.04 0.05,0.06 -0.17,0.03 -0.11,0.1 0.17,0.06 0.02,0.16 0.17,0.09 -0.06,0.09 0.07,0.12 -0.14,0.09 -0.29,0.01 -0.11,0.12 0.2,-0.03 0.16,0.2 0.46,0.1 0.15,0.13 0.91,0 0.36,-0.46 0.27,-0.09 0.16,-0.19 0,-0.12 -0.39,-0.25 -0.1,0 -0.06,0.12 -0.2,0.06 -0.04,-0.19 0.14,-0.35 -0.01,-0.13 0.22,-0.12 0.11,0.13 0.16,-0.13 0.21,-0.04 0.1,-0.26 0.06,-0.03 0.69,0.14 0.36,-0.22 -0.07,-0.29 -0.25,0.1 -0.08,-0.26 0.21,-0.42 0.02,-0.17 0.11,-0.06 0.22,0.03 0.15,-0.12 -0.03,-0.09 0.06,0.01 0.06,-0.19 -0.06,-0.16 -0.1,0.07 -0.08,-0.1 -0.11,-0.01 -0.3,0.13 -0.09,-0.03 -0.21,0.15 -0.49,0.01 -0.04,0.17 -0.21,0.06 -0.06,0.1 0.06,0.12 -0.11,0.12 -0.04,0.22 0.15,0.01 0.04,0.09 -0.06,0.07 -0.1,-0.03 0.07,0.19 -0.19,0.09 0.11,0.13 0.05,0.07 -0.01,0.13 -0.47,-0.32 -0.19,-0.04 -0.52,0.09 -0.79,-0.09 0,0.1 -0.29,0.09 -0.05,0.09 -0.17,-0.16 -0.21,-0.01 0.01,-0.25 -0.06,-0.09 -0.24,0.07 -0.19,-0.12 0.01,-0.1 0.15,-0.09 0.59,0.06 0.72,-0.15 0.49,-0.46 0.04,-0.13 0.09,0 0.1,-0.1 0.36,-0.78 0.66,-0.97 0.23,-0.16 0.14,0 0.4,-0.35 0.31,0.04 0.26,-0.09 2.27,-1.41 0.24,-0.09 0.1,0.2 0.19,-0.03 -0.03,0.12 -0.16,-0.01 -0.14,-0.15 -0.05,0.06 -0.17,0 0.05,0.1 0.2,0 -0.01,0.04 -0.24,0.06 -0.1,-0.1 -0.09,0 0.02,0.09 -0.15,0.06 -0.04,0.13 -0.08,0.01 -0.01,-0.09 -0.09,0.01 0.01,0.13 0.54,0.15 0.2,0.19 0.02,0.15 -0.11,0.04 0.14,0.14 0.05,0.18 0.49,0.39 0,0.3 0.17,0.15 0.01,0.29 0.11,0.26 0.69,0.22 0.1,0.16 0.02,0.22 0.44,0.64 -0.42,-0.49 -0.15,-0.3 -0.2,-0.13 -0.31,0.15 -0.17,-0.2 -0.47,0 -0.09,-0.15 0.09,-0.22 -0.11,-0.22 -0.16,0.03 0.06,0.33 -0.2,0.04 -0.27,-0.04 0.01,0.17 0.09,0.15 0,0.16 -0.09,0.13 0.22,0.06 0.05,0.13 0.1,0.04 -0.1,0.06 -0.03,0.13 0.2,0.03 0.06,0.22 0.25,0.12 0.08,0.19 0.16,0.01 0.21,-0.1 0.17,0.06 0,0.04 -0.21,0.01 -0.15,0.19 -0.16,0 -0.07,-0.2 -0.16,-0.04 -0.19,0.26 0.21,0.04 0.01,0.42 0.1,-0.03 0.38,0.28 0.32,0.06 0.4,0.26 0.17,0 0.34,-0.13 0.17,0.06 -0.01,0.09 -0.05,-0.06 -0.38,0.06 -0.09,0.2 -0.17,-0.04 -0.13,0.1 0.11,0.13 -0.01,0.22 0.22,0.2 -0.02,0.07 -0.19,0.01 -0.1,0.15 0.25,0.01 0.04,0.1 -0.14,0.26 -0.05,-0.1 -0.25,0.01 -0.01,0.29 0.11,-0.15 0.06,0.12 -0.15,0.15 -0.05,0.15 0.05,0.04 0.49,-0.09 0.04,0.1 0.14,-0.12 0.35,-0.04 0.12,-0.12 0.15,0.07 0.34,-0.09 0.33,-0.14 0.36,-0.32 0.21,-0.09 0.03,-0.45 0.14,-0.1 0.16,0 0.67,-0.23 0.29,0.1 0.19,0 0.26,-0.04 0.14,-0.06 0.52,-0.78 0.25,-0.01 0.17,0.19 -0.32,-0.04 -0.14,0.12 0.04,0.12 -0.1,0.01 0.13,0.16 0.2,0.07 0.2,-0.03 0.02,-0.17 0.09,-0.1 0.24,-0.07 0.12,0.01 -0.01,0.06 0.09,0.03 0.32,-0.16 0.13,-0.19 0.29,-0.17 0.27,0.04 -0.04,0.15 -0.09,0 -0.13,0.12 0.09,0 0,0.06 0.17,0.09 0,-0.19 0.36,0.04 0.08,-0.06 0.06,-0.28 -0.17,0.04 -0.07,-0.09 0.09,-0.19 0.49,0 0.13,0.1 0.15,0 0.01,-0.19 0.2,-0.09 -0.25,-0.1 -0.13,0.03 -0.24,-0.07 -0.05,0.13 -0.4,0.03 -0.34,0.28 -0.55,0.13 0,0.09 -0.24,0.09 -0.1,0.12 -0.16,0.03 0.06,0.09 -0.26,0.01 -0.1,-0.07 -0.07,0.12 0,-0.16 0.15,0.01 0.03,-0.09 0.36,-0.22 0.25,0.01 0.02,-0.1 0.35,-0.07 0.01,-0.07 0.15,-0.03 0.15,-0.13 0.19,-0.01 0.3,-0.15 0.13,-0.12 0.01,-0.13 0.21,-0.1 0.47,-0.06 0.47,0.09 0.66,-0.15 0.51,0.03 0.51,-0.16 0.13,-0.15 0,-0.12 0.09,-0.01 0.01,-0.15 -0.13,-0.75 0.45,-0.42 0.26,-0.55 -0.2,-0.32 0.01,-0.13 0.2,-0.06 0.21,0.07 0.11,-0.09 0.27,0.06 0.1,-0.09 0,-0.06 -0.27,-0.03 -1.19,-0.61 -0.13,-0.16 -0.42,-0.12 -0.1,0.03 -0.06,-0.09 -0.35,-0.12 -0.9,-0.55 -0.81,-0.12 -0.05,-0.06 -0.84,-0.09 -0.09,0 0.01,0.12 -0.19,0.04 -0.17,-0.09 -0.06,-0.13 -0.09,0 -0.04,0.07 -0.1,-0.09 -0.05,0.03 -0.15,-0.17 0.19,-0.36 0.08,0.16 0.3,0.09 0.46,0.28 1.15,0.15 1.02,0.3 0.34,0.03 0.42,0.19 0.3,0.03 0.49,0.16 1.11,0.46 1.07,0.6 0.15,0.19 0.8,0.42 -0.2,0.13 -0.09,-0.1 0.04,-0.09 -0.12,-0.09 -0.49,-0.22 -0.07,0.06 -0.03,0.13 0.4,-0.03 0.04,0.07 -0.09,0.06 0.17,0.04 0.06,0.15 -0.04,0.06 -0.15,0 -0.01,0.06 0.14,0.04 0.16,-0.1 0.16,0.12 0.21,0.25 -0.01,0.12 -0.13,0.09 0.22,-0.04 0.17,0.06 0,0.23 0.24,0.22 0.49,0.17 0.01,-0.09 -0.21,-0.1 -0.13,-0.26 0.04,-0.06 0.14,0.01 0.01,-0.06 -0.11,0 -0.17,-0.12 0.14,-0.06 0.08,0.09 0.11,-0.01 0.01,0.22 0.07,0 0.16,0.23 0.05,0.2 0.3,0.06 0.29,0.2 0.06,-0.03 -0.62,-0.6 0.14,-0.01 0.17,0.26 0.21,0.1 0.38,0.35 0.22,0.01 0.56,0.2 1.27,0.23 1.37,0.09 1.69,0 2.38,-0.15 0.34,-0.09 0.61,0.01 0.11,-0.07 0.75,-0.09 0.77,-0.19 0.25,0.01 0.08,-0.09 1.6,-0.36 0.2,-0.12 0.3,-0.03 1.87,-0.64 0.22,-0.01 0.03,-0.06 0.25,0.03 0.26,-0.42 0.05,0 -0.05,0.16 0.25,0.1 1.09,-0.35 0.39,-0.09 0.74,-0.2 0.81,-0.36 0.69,-0.19 0.13,-0.12 1.58,-0.61 0.11,-0.13 0.16,-0.01 0.08,-0.09 0.51,-0.22 0.37,-0.04 0.51,-0.22 0.15,0.01 0.05,-0.15 0.79,-0.33 1.83,-0.96 2.15,-1.25 1.54,-1 1.4,-0.99 0.65,-0.6 0.34,-0.19 1.6,-1.47 1.85,5.89 z"
     title="Shamāl Sīnā'"
     id="EG-SIN" />
  <path
     d="m 422.13971,485.1818 -3.68,11.17 -19.82,2.26 -0.23,-0.08 -17.63,-13.44 0,0 z"
     title="Disputed Territory"
     id="EG-TER" />
  <path
     d="m 536.99971,471.9218 0.05,0.19 0.46,0.15 0.04,0.2 0.13,0.09 0.24,0.04 0.11,0.21 -1.12,-0.11 0.09,0.5 -0.1,-0.03 -0.09,-0.15 -0.15,0.05 0,0.12 -0.1,0.04 -0.11,0.24 -0.08,0.01 -0.13,-0.12 0.1,0.03 0.24,-0.44 -0.01,-0.11 -0.12,-0.11 -0.01,-0.23 0.1,-0.01 0.16,-0.23 0.05,-0.35 0.25,0 z m -40.08,-30.76 0.15,0.08 0.24,0.27 0.1,0.23 -0.08,0.08 -0.01,0.26 0.08,0.04 -0.04,0.11 0.16,0.24 0,0.08 -0.08,0.01 -0.01,0.23 -0.11,0 -0.05,0.16 -0.29,0.2 0.05,-0.38 -0.07,-0.27 0.1,-0.21 -0.1,-0.38 -0.09,-0.13 -0.26,-0.03 -0.08,-0.08 0.09,-0.46 0.14,-0.03 0.39,0.27 -0.23,-0.29 z m -0.58,-0.33 0.06,0.09 -0.07,0.19 0.07,0.51 -0.05,0.07 -0.15,-0.16 -0.14,-0.01 -0.08,0.07 -0.15,-0.13 -0.16,0.03 -0.31,-0.11 -0.01,-0.22 0.09,-0.12 0.36,0.03 0.25,-0.19 0.17,0.05 0.04,-0.09 0.08,0 z m -5.24,-10.85 0.16,0.13 0.09,0.9 0.32,0.22 0.1,0.16 -0.19,0.32 0.11,0.62 0.26,0.24 -0.04,0.38 -0.11,-0.01 -0.03,0.08 0.38,0.26 0.14,-0.03 0.01,-0.2 0.05,0.01 0.32,0.7 -0.07,0.7 0.31,1.36 -0.07,0.16 0.14,0.19 -0.15,0.43 0.01,0.43 0.59,1.09 0.01,0.12 0.09,0.07 -0.03,0.11 0.1,0.05 -0.05,0.11 0.09,0.08 -0.09,0.3 -0.15,0.01 -0.04,-0.13 0.19,-0.09 -0.02,-0.2 -0.08,-0.03 -0.08,0.12 -0.15,-0.15 0.04,-0.26 -0.31,0 -0.2,0.32 0.1,0.65 0.42,0.27 0.14,0.24 0.11,-0.01 0.02,-0.31 -0.09,-0.18 0.11,0.04 0.09,-0.09 0.13,-0.01 0.1,0.05 -0.27,0.11 0.01,0.15 0.11,-0.07 0.08,0.04 -0.03,-0.12 0.16,0.03 0.14,0.3 0.04,0.38 0.08,0.09 -0.08,0.08 0.31,0.23 0.1,0.2 0.11,0.08 0,0.09 0.25,0.17 -0.05,0.16 0.21,0.03 0.01,0.13 -0.1,0.11 -0.11,-0.03 0,0.09 0.21,0.13 0.1,0.4 0.16,0.08 -0.09,-0.13 -0.01,-0.31 -0.17,-0.27 0.21,-0.03 0.15,0.07 -0.09,0.05 -0.04,0.16 0.29,0.32 0,0.27 0.39,0.28 -0.04,0.32 0.2,0.11 0.05,0.09 0.14,0.03 0.1,0.35 0.14,0.04 0.1,0.17 0.16,0.08 0.13,0.35 0.17,0.15 0.1,0.2 0.14,0.04 0.05,-0.2 -0.06,0.01 -0.08,-0.15 -0.03,-0.32 -0.17,-0.3 -0.01,-0.31 0.1,-0.12 0.16,0 0.15,0.08 0.25,-0.05 0.17,-0.13 0,-0.09 0.14,0.01 0.17,0.23 0,0.22 0.3,0.97 -0.16,0.31 -0.13,-0.08 -0.04,-0.19 -0.26,-0.01 -0.14,0.27 0.04,0.24 -0.05,0.07 0.15,0.04 0.06,0.17 0.16,0.04 0.15,0.19 0.34,0.08 0.3,-0.03 0.04,-0.08 -0.09,-0.05 -0.01,-0.13 -0.21,-0.22 -0.19,0.03 0,0.19 -0.08,-0.08 0.1,-0.61 0.09,-0.07 0.06,0.03 0.11,0.35 0.16,0.13 0.05,0.16 0.29,0.39 -0.13,0.11 0,0.08 0.15,0.16 0.11,0 0.06,0.08 -0.16,0.32 0.09,-0.01 0.04,-0.09 0.17,0.47 0.4,0.43 0.15,0.38 0.29,0.19 0.32,0.42 0.2,0.09 0.05,0.19 0.07,-0.01 0.22,0.35 0.45,0.43 0.15,0.04 0.29,0.34 0.35,0 0.62,0.39 0.06,0.22 -0.24,0.15 0.07,0.08 0.1,0 0.01,0.12 0.41,0.09 -0.01,-0.2 -0.07,-0.08 0.14,-0.03 0.24,0.38 -0.08,0.03 -0.11,-0.08 0.05,0.16 0.19,0.03 0.04,-0.05 0.31,0.15 0.26,0.01 0.31,0.11 0.36,-0.13 0.09,0.09 0.6,0.2 0.01,0.15 -0.22,-0.05 -0.1,0.08 0.03,-0.19 -0.08,0.03 -0.09,-0.08 -0.2,0.03 0.04,0.08 0.16,-0.07 0.09,0.12 -0.11,0.35 0.09,0.46 -0.13,0.08 0.02,0.19 0.74,-0.17 0.03,-0.05 -0.13,0.01 -0.01,-0.08 0.35,-0.16 0.09,-0.28 -0.05,-0.11 0.12,-0.07 -0.04,-0.09 0.09,-0.01 0.19,0.08 0.14,0.42 0.07,0 0.03,-0.07 0.19,0.19 0.02,0.16 0.21,0.08 0.32,-0.09 0.39,0.01 0.25,0.13 0.42,0.13 0.14,0.13 0.08,-0.11 0.14,-0.01 0.5,0.13 0.08,0.24 0.08,-0.01 0.05,-0.15 0.1,-0.03 0.67,-0.03 0.2,0.07 0.13,0.16 0.15,-0.03 0.04,0.09 0.51,0.03 0.17,0.07 0.06,0.09 0.17,-0.01 0.15,0.07 0.04,0.12 0.15,0.08 0.26,0.05 1.2,-0.05 0.05,0.07 0.39,-0.04 0.24,-0.13 -0.04,0.13 0.29,0.07 0.07,0.15 0.17,0.11 0.29,-0.03 0.29,0.07 0.08,-0.13 0.15,0.08 0.24,-0.16 0.19,0.03 0.05,0.09 0.13,-0.04 0.09,0.05 0.08,0.13 -0.05,0.23 0.15,0.3 0.16,0.08 0.04,0.16 0.1,-0.03 0.05,0.07 0,0.13 0.13,-0.04 0.13,0.09 0.49,-0.01 0.13,0.17 0.16,0.07 0.13,-0.07 0.29,0.04 0.2,0.31 -0.04,0.17 0.3,0.25 0.11,0.19 0.1,-0.01 0.08,0.11 0.26,0.03 0.16,-0.08 0.01,0.57 0.31,0.55 0.55,0.25 0.2,0.27 0.19,0.56 0.09,0.09 0.06,0.66 0.16,0.24 0,0.52 0.15,0.48 0.06,0.5 0.22,0.5 0.11,0.03 0.09,0.22 0.11,0.05 -0.06,0.15 0.17,0.17 0.07,0.19 0.49,0.36 0.2,0.28 0.13,0.03 0.26,0.2 -0.04,0.05 0.08,0.13 0.11,0.01 0.2,0.25 0.35,0.12 0.1,0.15 0.16,0.03 0.1,0.13 0.61,0.32 0.11,0.16 0.24,0.15 0.37,0.08 0.51,0.31 0.1,0 0.15,-0.19 0.21,-0.01 0.56,0.51 -0.05,0.42 -0.12,0.19 0.01,0.6 0.29,0.79 0,0.25 0.56,1.01 0.2,0.08 0.39,0.35 0.24,0.01 0.72,0.46 0.29,0.04 0.09,0.16 0.13,0.03 0.62,0.43 0.15,0.07 0.49,-0.01 0.28,0.23 0.6,0.21 0.47,0.32 0.44,0.11 0.06,0.16 0.14,0.01 0.21,0.21 0.29,0.04 0.03,0.08 0.26,0.13 0.19,0.39 0.25,0.01 0.04,0.08 0.15,0.01 0.24,0.25 0.07,0 -0.07,0.2 0.67,0.4 -0.01,0.08 0.39,0.31 0.01,0.23 0.25,0.08 -0.04,0.12 0.15,0.15 0.13,0.07 0.11,-0.07 0.3,0.16 0.15,-0.04 0.02,0.11 0.11,0.01 0.05,0.11 -0.08,0.07 -0.01,0.35 0.21,0.38 0.86,0.44 0.19,0.32 -0.03,0.07 0.19,0.2 0.11,0 0.11,0.25 0.13,0.01 0.26,-0.11 0.3,0.08 0.21,0.29 -0.06,0.13 0.04,0.12 0.29,0.13 0.13,0.33 0.24,0.05 0.01,0.11 0.16,0.11 0.09,0.07 0.05,0.13 0.22,0 0.76,0.32 0.14,-0.01 0.05,-0.11 0.36,0.08 0.3,-0.13 0.21,0.05 0.06,0.08 0.14,-0.12 -0.04,-0.12 0.05,-0.17 -0.17,-0.04 0,-0.12 0.01,-0.05 0.14,0 0.19,0.32 0.29,0.29 0.57,0.38 -0.08,0.75 0.05,0.04 0.1,-0.11 0.14,0.6 0.34,0.24 0.55,0.25 0.3,0.29 0.11,0.03 0.15,0.36 0.38,0.42 0.13,0.27 0.35,0.08 0.29,0.19 0.4,0.03 0.12,0.05 0,0.05 0.2,0.01 0.03,0.08 0.51,0.36 0.08,0.12 0.29,-0.04 0.05,0.4 -126.12,2.59 0,0 3.3,-9.78 9.41,-1.76 0.26,-0.09 0.97,-0.12 4.12,-0.76 0.33,-0.11 0.79,-0.08 1.37,-0.25 0.1,-0.08 1.01,-0.11 5.51,-1.02 11.66,-27.08 1.18,0.28 10.54,3.13 2.18,-2.06 0,0 16.19,-15.2 z"
     title="Hala'Ib Triangle"
     id="EG-HT" />
  <path
     d="m 323.30971,139.6418 0.78,-14.24 2.19,-25.47 0.04,-4.35 -1.28,-8.59 -0.65,-4.88 -1.23,-4.26 0,0 -0.12,-2.77 0,0 1.91,-0.18 18.62,-0.11 2.64,0.81 6.14,0.43 1.73,-1.41 4.61,-0.52 0,0 5.85,0.28 0,0 1.05,3.86 -0.13,11.39 1.54,0.14 0,0 0,2.66 0,0 -2.57,0.59 -6.93,5.2 0,0 -0.24,-0.34 -0.15,-0.1 -0.12,-0.46 -0.13,-0.22 -0.15,-0.01 -0.05,-0.19 -0.4,-0.37 -0.43,-0.04 -0.13,-0.12 0.1,-0.15 0.68,-0.62 -0.01,-0.08 0.27,-0.4 -0.12,-0.36 0.18,-0.28 0.06,-0.31 0,-0.19 -0.09,-0.17 -0.22,-0.18 -0.13,0.04 -0.3,-0.47 -0.52,-0.56 -0.51,-0.3 -0.13,0.08 -0.13,-0.57 -0.26,-0.33 -0.37,-0.14 -0.05,0.05 0.05,0.26 -0.25,0.06 0.05,0.08 -0.05,0.08 -0.23,-0.46 -0.14,0.01 -0.1,-0.07 0.07,-0.16 0.25,-0.15 -0.31,-0.13 0.21,-0.26 -0.03,-0.19 -0.18,0.06 -0.06,-0.1 -0.01,0.17 -0.09,0 0,-0.14 0.07,-0.09 0.05,-0.04 0,-0.1 -0.1,0.06 -0.06,-0.13 0.38,-0.25 0.16,-0.2 -0.11,-0.26 -0.29,-0.31 -0.1,-0.06 0,0.19 -0.31,0.04 -0.23,0.13 -0.43,0.03 0,0.16 -0.07,0.04 0.33,0.5 -0.16,-0.06 -0.2,-0.4 -0.19,-0.2 -0.1,-0.06 -0.29,0.03 0.19,7.82 -1.22,1.39 -1.92,1.4 -1.4,2.44 -0.35,3.14 -0.7,3.67 0.11,3.01 0.62,0.29 0.18,0.18 0.29,0.16 0.13,0.17 0.09,0.01 0.08,0.13 0.56,0.19 0.18,0.28 0.12,0.43 0.37,0.19 0.24,0.31 0.3,0.16 0.11,0.1 0.05,0.15 0.12,0.06 -0.05,0.17 0.09,0.07 0.08,0.23 0.1,0.07 0.17,-0.04 0.09,0.13 0.25,0.01 0.31,0.2 0.01,0.34 -0.06,0.13 0.28,0.37 0.1,-0.01 0.31,0.13 0.06,0.2 0.55,0.2 0.17,0.25 0.44,0.27 0.08,0.19 0.22,0.06 0.13,0.11 0.06,0.16 0.3,0.23 0.02,0.08 0.25,0.06 0.13,0.33 0.26,0.22 -0.11,0.19 0.05,0.2 0.18,0.1 0.14,0.04 0.08,0.43 0.14,0.27 0.34,0.24 0.09,0.19 -0.05,0.25 0.15,0.26 0.24,0.92 -0.05,0.2 0.07,0.19 -0.05,0.1 0.04,0.18 0.21,0.38 0.09,0 0.07,0.11 -0.03,0.11 -0.14,0.05 -0.05,0.08 0.04,0.44 0.47,0.34 -0.01,0.13 0.1,0.09 0.01,0.17 -0.11,0.03 -0.02,0.28 0.07,0.14 0.21,0.13 0.09,0.13 0.08,0.03 0.03,0.31 0.19,0.26 -0.08,0.21 -0.15,0.03 0.1,0.14 -0.04,0.21 -0.13,0.23 0.17,0.19 -0.07,0.13 0.1,0.04 0,0.17 0.16,0.36 -0.09,0.04 -0.14,-0.19 -0.01,0.17 0.03,0.07 0.16,0.03 0.26,0.26 0.06,0.3 0.13,0.23 -0.08,0.34 0.1,0 0.04,0.15 0.2,0.03 0,0.1 -0.01,0.09 0.02,0.14 -0.11,0.08 0.03,0.2 0.15,0.19 -0.09,0.11 0.04,0.19 -0.07,0.1 0.12,0.15 -0.02,0.23 0.12,0.1 -0.08,0.13 0,0.11 0.09,0.1 -0.01,0.41 0.13,0.03 0.04,0.1 0,0 -5.37,0.19 -3.94,2.34 -4.28,1.17 -8.03,4.94 -6.63,0.1 -5.16,0.98 0,0 0,0 0,0 z"
     title="As Suways"
     id="EG-SUZ" />
  <path
     d="m 179.63971,205.9718 90.13,0.18 0.09,1.95 0,0 -1.04,0.1 -0.09,2.24 0.78,0.78 0.17,1.94 1.03,0.47 0.45,2.55 0.95,2.04 1.39,1.85 0.52,2.14 1.13,1.65 1.39,0.78 3.94,3.85 2.11,1.88 0.99,0.53 2.16,0.24 1.65,0.39 2.69,1.55 1.71,2.81 1.8,3.71 1.84,4.29 2.24,3.71 0,0 0.52,1.83 2.52,3.26 3,3.46 2.51,0.47 2.01,1.53 1.09,1.87 2.13,3.05 1.95,2.93 2.21,2.84 0.14,0.27 1.07,1.24 2.32,3.47 2.87,3.76 1.44,1.59 0.9,0.38 1.62,2.35 0.81,0.99 0,0 2.41,2.93 0,0 4.86,4.24 1.6,0.63 4.82,-0.13 1.43,-0.44 2.07,-0.38 1.84,-0.13 1.89,-0.64 1.15,-0.7 4.19,-1.71 1.9,-1.4 2.58,-1.02 2.58,0.13 0.92,0.76 1.22,2.27 0.25,2.26 -1.33,1.97 -1.55,2.73 -0.51,1.58 0,2.67 -0.69,1.52 -1.67,1.97 -2.64,2.47 -2.64,1.14 -1.78,1.83 -0.92,2.03 -0.11,2.34 0.64,1.08 1.15,2.49 0.15,3.12 0.77,1.52 -0.19,1.55 0.42,2.99 1.22,3.2 1.26,0.97 2.46,2.19 2.44,1.2 0,0 3.49,1.62 2.68,2.52 1.6,2.01 0.39,1.85 -0.03,2.6 0.06,2.17 1.17,3.56 0.56,2.19 1.8,3.48 -0.56,3.32 0,2.88 -0.66,3.49 -0.75,3.48 -0.02,3.42 -0.59,4.2 0,2.96 -0.39,6.45 -3.74,3.91 -1.84,0.92 -1.28,0.49 -1.39,1.39 0.17,3.14 2.11,2.04 1.49,1.21 0.32,1.26 -2.12,1.72 -2.01,0.56 -2.19,0.91 -2.29,1.36 -1.56,1.02 -1.41,2.01 -1.71,5.93 -0.36,3.28 1.39,1.65 5.18,1.23 2.68,0.36 1.72,-0.39 2.07,-0.11 0.48,1.98 -0.3,0.96 -1.42,2.36 -1.69,2.53 -1.54,3.24 -1.32,2.27 -1.69,2.7 -1.25,2.8 -0.79,2.37 -1.23,2.18 -0.95,2.01 -1.7,3.32 -1.64,0.92 -1.5,-0.66 -1.94,-1.22 -2.57,-0.51 -2.59,-0.26 -0.98,-0.38 -5.49,1.62 -8.64,2.42 -2.26,0.74 -1.61,0.23 -2.05,-0.23 -2.77,0.02 -1.17,0.5 -1.47,1.74 -0.84,1.83 0.21,2.22 0,4.33 0.23,1.6 -0.48,1.58 -0.83,1.57 -1.92,2.16 -2.96,2.73 -4,-0.12 -3.01,0.91 -4.32,2.23 -0.78,2.75 1.51,2.22 2.67,-0.26 0,0 0.93,0.08 0.18,2.16 -0.41,0.9 -0.07,0.86 -1.24,3.47 -2.63,-0.06 -10.05,0.04 -2.64,-0.08 -6.38,0.09 -0.48,-0.07 -37.07,0.14 0,0.29 -5.51,-0.26 -9.48,-0.05 -15.69,0.06 -0.24,-0.08 -2.89,0.03 -21.58,-0.11 -4.12,0.05 -24.72,-0.04 -0.83,0.07 -2.04,0.02 -1.89,-0.09 -9.94,0.02 -1.54,-0.05 -4.01,0.08 -1.83,-0.06 -30.85,0.12 -18.589999,-0.09 -1.72,0.05 -0.87,-0.06 -4.52,0.07 -55.55,0.07 -6.26,0.25 0,-279.33 0,0 0.81,-0.01 0,0 106.099999,0.02 0,0 0.68,0 0,0 z"
     title="Al Wādī al Jadīd"
     id="EG-WAD" />
</svg>
