<?xml version="1.0" encoding="UTF-8" standalone="no"?>
<!-- Created for MapSVG plugin: http://mapsvg.com -->
<svg
   xmlns:mapsvg="http://mapsvg.com"
   xmlns:dc="http://purl.org/dc/elements/1.1/"
   xmlns:rdf="http://www.w3.org/1999/02/22-rdf-syntax-ns#"
   xmlns:svg="http://www.w3.org/2000/svg"
   xmlns="http://www.w3.org/2000/svg"
   mapsvg:geoViewBox="-7.681426 62.400788 -6.258475 61.394739"
   width="529.10907"
   height="792.95703">
 
  <path
     d="m 367.09341,204.60858 0,0.15 1.88,0.76 10.3,4.18 2.09,2.42 0.54,2.67 0.24,1.18 2.08,2.46 0.08,0 2.85,-0.11 2.85,3.7 4.42,5.72 0.17,0.22 -1.91,1.31 -6.83,4.68 -0.74,0.51 -4.74,0.91 -1.82,-0.05 -2.33,-0.06 -0.39,-0.01 -3.08,-2.93 2.11,14.74 0.01,0.08 -0.64,1.48 -0.38,0.89 -2.72,6.27 1.33,4.51 0.94,3.17 -0.75,3.39 -0.29,1.28 -2.08,2.3 -2.04,-0.14 -2.49,-0.17 -12.39,-24.39 -0.12,-0.24 -0.16,-0.31 -0.73,-1.43 0.55,-4.98 0.01,-0.09 -0.04,-0.08 -2.37,-4.36 2.39,-5.76 0.2,-0.51 4.36,0.16 -0.61,-8.78 -3.25,-10.97 0.27,-2.76 -15.24,-27.73 -1.01,-0.8 -4.83,-3.8 -3.36,-2.64 -4.24,-4.78 -2.74,-3.09 -3.42,-3.89 -5.27,-1.99 1.15,3.56 1.37,4.24 12.15,13.59 3.73,4.13 0.41,0.49 2.94,3.5 0.05,0.09 0.39,0.72 4.15,7.76 1.98,3.69 3.14,5.84 1,18.17 -4.75,12.03 0.51,5.24 0.16,1.68 -4.6,-3.01 -6.39,-10.62 -8.58,-8.96 -5.53,-2.54 -7.43,-11.51 -4.26,-9.2 -3.87,-3.9 -5.76,-1.67 -2.97,-2.41 -0.74,-0.61 -1.41,0.39 -9.4,2.57 -1.66,-3.44 -0.58,-1.3 -0.25,-0.49 -0.08,-0.16 -7.64,-9.13 -1.11,-1.32 -1.41,-3.5 -0.8,-1.99 -5.15,-3.57 -1.96,-0.27 -3.31,-0.46 -0.41,-4.37 -4.2,-11.75 0.57,-3.1 0.1,-0.56 -0.9,-0.69 -3.93,-3.04 -0.12,-0.22 -3.05,-5.61 -2.55,-2.77 -2.56,-5.73 -3.6,-1.91 0.02,-4.44 0.02,-3.21 -3.99,-8.76 -1.1,-2.4 -0.34,-0.76 -0.76,-6.12 -2.5,-8.28 -3.01,-3.19 0.2,-6.19 -2.12,-3.59 -4.66,0.2 -6.29,0.28 0.71,-3.22 1.41,-6.44 2.97,-8.14 0.2,-0.16 1.1,-0.89 2.52,2.13 1.94,1.64 2.96,4.67 0.42,0.67 3.27,-0.96 9.77,-3.03 8.06,-7.67 -0.1,-1.03 -0.07,-0.68 -0.05,-0.52 1.86,-3.18 7.18,-1.79 1.15,-1.44 2.74,0.27 1.34,-2.4 3.8,0.15 4.41,0.17 0.47,3.27 5.05,2.15 2.36,4.72 0.04,0.08 6.75,3.98 5.99,3.53 2.45,3.19 -9.06,3.91 -6.25,5.28 -7.83,6.61 3.73,11.22 0.06,0.2 -1.78,13.47 5.24,16.22 0.9,1.33 2.46,-0.86 0.13,-0.05 -0.1,-0.1 -2.89,-2.87 -3.53,-9.41 0.68,-4.36 3.27,-5.73 1.4,-6.98 0.53,-2.66 1.08,0.8 2.95,-0.85 1.71,-1.97 3.24,0.67 3.78,-3.41 1.13,-1.02 10.43,-1.15 6.27,-2.93 0.04,-0.02 2.21,1.41 5.67,3.62 1.49,4.06 -6.51,1.46 -0.66,0.15 -0.12,0.42 -2.63,8.99 -0.42,2.61 -0.03,0.18 0.13,1.22 0.06,0.54 12.47,-5.13 3.24,-1.33 2.75,1.55 11.22,6.34 2.61,2.68 0.73,0.75 1.7,4.07 -0.51,4.37 -1.05,2.1 -1.1,2.21 -4.59,3.42 -2.69,2 -3.31,0.24 -5.24,-6.85 -0.18,-0.23 -1.45,0.16 0.14,0.32 4.47,10.1 0.25,0.57 0.97,1.04 0.32,0.24 2.66,2.06 5.17,3.79 2.44,-0.74 3.99,-1.22 4.49,-3.18 3.45,-0.08 2.53,1.04 8.44,8.63 27.88,10.06 0.19,2.05 1.12,12.34 -2.84,2.65 -13.57,-6.65 -5.54,-2.68 -17.91,-3.88 -1.37,-2.25 -1.34,1.97 0.07,3.29 -2,-0.08 0.3,6.6 5.56,8.16 3.64,1.12 0.31,0.1 2.75,-0.64 0.14,0.11 3.52,2.91 6.26,5.16 0.92,0.36 8.73,3.38 10.12,8.69 1.54,1.32 0.72,0.38 2.03,1.05 10.62,5.4 0.68,4.39 -9.62,-3.2 -9.97,-5.61 -19.01,-1.72 -0.3,3.52 z"
     title="Østerø"
     id="FO-OS" />
  <path
     d="m 405.31341,11.53858 -0.08,-1.45 2.35,-1.33 2.89,-1.63 1.45,-2.8 2.09,-4.03 5.61,1.67 4.83,3.29 1.96,1.33 6.29,11.83 2.76,5.19 -0.06,2.67 -0.2,9.4 7.2,12.89 3.57,1.81 4.13,7.24 -1.23,8.19 0.56,9.01 2.86,1.36 0.51,-0.4 3.47,-2.71 3.83,-13.65 2.92,2.69 11.09,10.21 2.37,2.18 -8.8,11.01 -1.87,5.67 0.16,0.79 0.6,3.01 0.44,2.18 -32.26,-10.26 -5.44,-18.38 -1,-4.55 -1.2,-2.32 -3.73,-7.18 -3.42,-11.27 0.08,-0.35 0.05,-0.22 2.47,-10.31 -0.7,-5.92 -0.61,-0.93 -1.47,-2.26 -11.51,-5.52 -2.79,-3.6 -0.17,-2.55 z m 113.76,71.18 -3.23,-1.83 -2.85,0.55 -1.39,0.27 -0.33,0.06 -5.87,-4.55 -0.22,-2.95 -6.13,2.15 -4.58,6.15 -0.06,0.08 -5.06,10.33 -0.29,0.6 -5.75,-0.59 -2.08,-0.21 -3.8,1.27 -0.03,0.03 -0.15,0.16 -2.2,2.37 -1.34,3.17 -0.48,1.13 0.5,3.07 0.24,1.47 3.57,2.55 3.8,5.25 1.83,4.63 -0.24,5.82 0.38,1.01 2.26,6.05 0.49,1.3 1,-0.43 10.14,-4.42 3.87,-0.73 3.67,-0.7 1.58,-2.02 1.28,-1.64 -0.8,-2.43 1.25,-3.78 -0.45,-2.94 3.19,-6.27 -10.77,-7.92 -0.09,-4.53 1.84,-1.09 6.91,0.31 2.64,0.12 8.32,2.12 -0.02,-0.56 -0.55,-12.43 z m -112.77,32.45 -0.16,-8.89 -0.01,-0.42 -3.42,-7.53 -0.82,-1.8 -3.38,-17.31 -8,-14.26 -10.38,-18.5 0.87,-4.4 -1.47,-2.95 0.2,-0.15 1.45,-1.25 -1.73,-8.1 -2.43,-0.34 -1.58,-0.22 -1.19,-2.76 -5.45,-1.09 -3.94,8.13 1.29,10.1 -2.14,8.9 3.47,10.68 0.26,5.74 0.03,0.73 0.4,0.7 5.23,9.12 2.47,4.31 3.64,10.37 0.23,0.44 1.71,3.31 2.35,4.6 4.24,8.3 2.25,4.39 12.28,2.73 3.73,-2.58 z m 53.76,-3.45 -4.66,-6.93 -7.4,-2.08 -6.91,-5.18 -6.85,-7.15 -2.6,-3.99 0.92,-4.04 -4.17,-11.95 -4.66,-6.92 -6.92,-9.96 -2.73,-5.53 -1.89,-12.94 -1.14,-2.24 -1.42,-2.8 -2.37,0.17 -3.12,0.23 -3.98,4.07 -0.97,3.34 -1.77,6.09 4.14,9.61 0.13,0.3 -0.35,4.16 -0.02,0.31 6.76,14.13 -0.82,22.66 2.82,8.7 0.23,0.71 0.6,5.5 -1.15,7.25 -0.72,1.2 -2.81,4.7 0.24,0.87 2.51,9.08 -0.07,0.8 -0.14,1.55 -0.08,0.92 -4.12,-2.15 -1.63,-8.6 -0.2,0 -1.39,0.01 -7.61,0.06 -0.12,0 -0.49,3.05 1.42,5.29 0.67,2.49 -0.03,0.77 -0.19,5.36 1.3,3.9 3.23,1.56 3.9,6.92 0.86,1.53 7.72,13.69 2.88,2.37 2.43,2 5.29,8.87 0.06,0.02 1.3,0.35 1.71,0.46 0.42,-1.33 0.4,-1.29 -0.57,-7.58 -0.02,-0.28 -0.37,-0.68 -4.09,-7.49 -1.85,-3.36 0.72,-4.73 -1.76,-2.19 -3.09,-9.45 -2.82,-2.83 1.22,-3.39 1.52,-0.34 1.41,-0.32 4.33,4.99 2.66,3.07 1.41,4.83 1.97,6.78 4.49,6.36 4.61,3.66 3.2,6.63 1.82,0.1 15.42,0.87 3.03,-3.15 0.48,-2.46 0.24,-1.1 0.21,-0.96 -1.39,-1.67 -1.92,-2.31 1.45,-9.94 -0.13,-1.21 -0.94,-8.49 -14.25,-3.78 -6.82,-7.54 -7.06,-10.66 -2.16,-6.4 -0.64,-1.9 0.73,0.24 2.49,0.82 2.89,0.95 6.31,7.01 8.21,6.73 2.94,2.43 14.11,-2.79 0.51,-0.64 1.79,-2.23 0.97,-9.75 0.26,-2.59 -3.86,-3.98 -4.1,0.75 z m -86.29,5.36 -3.26,-5.32 -0.09,-0.15 -2.59,-8 -0.25,-0.78 -1.62,-5.07 -1.69,-5.29 -0.67,-2.09 -11.06,-19.12 -1.98,-3.42 -3.86,-6.67 -0.26,-1.14 -1,-4.38 -3.94,-8.14 -3.3,-15.87 -2.53,-0.43 -0.46,-0.7 -7.76,-11.86 -4.2,0.08 -1.15,7.46 3.02,10.85 0.56,2.03 0.32,1.17 0.54,3.28 0.09,0.56 8.03,20.38 3.05,7.73 0.69,1.76 2.53,4.54 8.65,15.49 2.3,2.15 4.61,4.13 3.09,5.58 -0.72,20.96 2.04,4.09 8.67,7.23 5.02,2.53 5.38,-2.53 0.99,-4.58 0.31,-1.43 -2.13,-11.77 -5.37,-3.26 z m 152.58,-74.61 -3.88,1.73 -4.34,0.63 -2.64,0.39 -1.58,-1.15 1.35,-2.23 0.59,-0.97 -0.36,-0.72 -1.65,-3.28 -6.18,-0.63 -2.4,-0.25 -1.57,2.98 -0.59,1.12 -0.62,1.18 -0.1,1.92 -0.6,11.43 5.67,9.92 0.31,0.55 1.11,-0.15 5.92,-0.77 3.96,-0.52 2.08,-1.2 0.85,-1.42 2.39,-4 0.14,-0.25 3.01,0.95 0.54,-1.38 0.3,-0.77 0.79,-6 -2.5,-7.11 z"
     title="Norderøerne"
     id="FO-NO" />
  <path
     d="m 350.83341,562.26858 0.43,0.91 -1.3,0.86 -4.01,-1.15 -4.1,-1.18 -0.06,-0.02 -0.38,-6.24 -0.18,-2.99 0.15,-0.9 0.38,-2.25 0.38,-2.35 3.34,1.54 3.1,3.88 -0.33,4.44 2.58,5.45 z m -19.11,-52.62 -1.08,-4.88 -0.2,-0.55 -5.23,-14.51 -3.3,-3.37 -5.87,-1.8 -3.23,0.63 -1.07,-0.83 -2.08,-1.6 -0.21,0.71 -1.8,6.11 0.54,10.75 5.29,5.78 3.42,3.73 2.16,2.36 1.82,1.99 11.33,-2.35 -0.44,-2.01 -0.05,-0.16 z m 58.08,-60.94 -1.43,0.65 -6.09,0.16 -3.82,-8.49 -2.6,-2.47 -2.76,-2.61 -1.78,-5.46 -4.67,-5.73 -6.8,-1.15 -7.1,-3.41 -1.15,-2.28 -0.52,-1.03 -0.53,-0.02 -6.11,-0.22 -0.53,-0.3 -10.51,-6.06 -0.06,-0.21 -0.25,-0.87 -2.21,-7.58 -1.72,0.26 -1.36,0.21 -1.51,-2.71 -1.38,-2.48 -0.79,-0.31 -2.22,-0.87 -4.2,1.18 -4.95,-1.62 -1.29,-0.42 -0.53,0.22 -4.41,1.83 -0.74,-1.2 -4.95,-8.09 -0.95,-0.26 -2.89,-0.79 -7.47,1.33 -0.2,0.04 -2.46,-0.77 -10.92,-3.42 -1.22,0.31 -1.34,0.34 1.86,4.57 2.12,0.63 2.37,5.47 3.31,3.51 0.22,4.41 3.16,2.73 -2.04,4.27 -0.27,0.56 2.75,3.85 0.33,6.86 2.19,4 0.74,5.82 2.99,1.89 1.47,4.87 -3.85,-1.15 -0.9,-0.27 0.4,0.94 4.73,11.16 2.84,1.14 1.79,6.55 0.73,0.14 2.64,0.49 0.77,-1.56 -0.82,-2.04 3.01,-4.64 2.52,0.3 9.27,-3.31 0.27,0.06 1.9,0.21 1.28,4.51 1.49,1.4 2.88,2.73 -0.16,-2.77 -0.3,-5.12 -0.06,-1.09 -0.06,-0.99 0.3,-0.02 2.97,-0.22 10.29,5.19 1.57,0.79 0.01,0.35 0.07,2.71 5.06,14.72 0.51,6.48 4.61,6.87 0.06,0.15 0.2,0.52 2.39,6.35 4.2,3.53 2.71,4.63 3.2,0.63 2.44,6.74 3.91,1.37 1.14,3.26 2.08,1.73 3.08,-0.08 2.3,-4.62 2.72,-0.24 -0.67,-1.88 2.79,-2.59 -1.84,-3.53 -4.55,-8.71 -2.64,-2.03 3.86,-2.47 4.24,-2.71 -0.08,-3.35 -0.21,-8.65 -0.01,-0.25 -0.05,-0.05 -3.29,-3.09 -1.15,-1.13 -0.19,-0.19 2.45,-2.61 1.56,-0.85 6.85,-3.74 0.39,-3.89 0.07,-0.16 0.45,-1.07 1.62,-3.88 -0.57,0.16 z"
     title="Sandø"
     id="FO-SA" />
  <path
     d="m 398.32341,350.31858 -1.41,4.34 -2.82,2.6 -1.78,-1.64 -2.75,-2.54 -0.26,-0.36 -1.45,-2 -0.79,-6.32 -0.22,-1.73 -0.74,0.21 -1.26,0.35 -3.73,-6.14 -1.21,-1.99 -2.97,-1 -0.08,-0.03 -1.47,-5.26 -0.27,-0.98 0.12,-0.71 1.92,-11.14 -0.44,-3.32 -6.33,-12.34 -0.28,-0.54 1.3,-0.48 6.17,4.74 0.28,2.05 0.22,1.61 0.35,2.51 3.2,4.82 5.79,5.93 0.22,0.25 0.8,4.85 0.1,0.58 1.11,0.4 1.59,0.55 0.68,0.24 -0.21,3.8 -0.23,4.17 2.16,3.2 0.18,0.27 4.16,6.16 0.37,4.82 -0.02,0.07 z m -45.13,-6.16 -0.58,-3.83 2.07,-6.98 -0.4,-2.59 -0.05,-0.33 -8.55,-5.38 -1.74,-1.09 -0.17,-0.41 -2.17,-5.28 -0.03,-0.03 -3.38,-3.13 0.11,-0.25 3.64,-7.98 1.19,0.16 1.4,-2.63 0.04,-0.07 2.62,-1.29 -1.69,-8.74 3.24,-1.61 0.25,-0.13 -0.78,-0.51 -2.38,-1.55 -2.7,-11.12 -0.49,-2.01 -6.35,-0.24 -0.97,-0.46 -5.27,-2.47 -13.48,2.85 -13.56,-6.57 -6.46,-1.19 -4.35,-3.48 0.25,0 2.27,0.02 6.29,0.06 4.68,1.78 0.37,0.14 6.33,2.41 0.06,0.02 0.07,-0.03 7.75,-3.51 0.44,-0.2 7.78,-5.37 -11.52,-22.77 -3.78,-7.49 -5.75,-1.81 -4.23,-3.74 -5.22,-1.43 -3.69,2.07 -5.26,5.66 -9.16,2.44 -0.1,-0.23 -1.57,-3.58 6.38,-0.94 4.73,-4.53 3.31,-3.25 5.68,-1.11 3.71,-2.78 0.65,-5.54 0.1,-0.81 -1.75,-1.7 -2.82,-2.75 -1.98,-4.23 -1.25,-2.68 -3.12,-2.41 -3.46,-2.67 -2.66,-2.06 -6.08,-1.28 -3.35,-0.71 0.02,-3.23 0.01,-0.75 -4.8,-5.4 -2.61,-2.53 -4.18,-3.21 -0.07,-0.06 -6.79,-5.23 -0.84,-0.65 -6.24,-2.62 -5.76,-2.54 -0.09,-2.22 -0.06,-1.6 5.87,-0.48 0.2,-0.3 1.47,-2.18 0.15,-0.22 0.22,-4.33 -6.57,-11.27 -5.87,-4.61 -0.56,-0.97 -2.67,-4.61 -6.8,-11.77 -0.95,-2.47 -5.74,-19.21 -9.07,-16.06 -0.03,-0.05 -0.07,-0.03 -1.01,-0.41 -6.27,-2.55 -0.26,0.2 -4.17,3.28 -2.01,1.51 0.26,-6.06 -0.31,-0.54 -0.88,-1.53 -3.39,-1.84 -5.07,-2.75 -2.61,0.8 -0.16,0.05 -4.74,6.86 -1.31,0.3 -1,-3.13 -6.71,-1.99 -0.35,1.02 -1.23,3.52 -2.19,-0.07 -0.65,3.63 -1.69,2.13 1.37,2.47 0.26,2.41 0.64,5.97 -1.52,1.59 -0.19,6.38 -2.45,3.27 -0.28,4 0.74,3.33 0.7,3.17 0.02,0.1 8.13,3.11 -4.61,1.19 -1.49,7.43 -0.39,1.97 -3.35,16.72 -3.08,5.81 2.2,2.95 -3.94,7.39 -1.46,7.4 -1.07,0.47 5.68,4.01 4.05,5.21 6.75,12.35 4.09,3.38 6.32,1.55 2.72,0.67 2.86,5.13 1.78,3.2 1.86,6.36 0.2,0.17 9.16,7.91 0.18,0.16 0.1,0 8.79,-0.11 7.19,2.22 3.78,1.15 1.06,-1.85 0.67,-1.18 0.48,0.23 4.52,1.93 7.11,-2.42 0.79,-0.31 -0.02,0.84 -0.11,3.88 1.9,1.83 1.3,1.25 7.71,7.4 2.19,6.66 0.29,0.44 2.79,4.31 0.24,2.14 1.47,13.3 -0.6,3.5 -1.37,8.06 2.23,3.88 1.69,-1.75 0.78,2.99 1,3.78 3.06,0.99 0.31,-0.12 5.38,-2.09 7.76,-0.16 2.05,0.91 1.18,0.52 0.99,2.15 4.25,9.24 0.48,3.39 1.9,13.45 2.18,1.84 3.62,3.06 4.64,1.97 2.24,3.68 2.87,0.81 5.83,6.8 10.64,12.4 5.46,6.47 5.6,5.2 4.43,2.48 5.58,5.97 5.59,0.17 2.85,1.57 0.62,-0.64 5.73,-5.91 -3.94,-11.68 1.31,-2.35 z m -86.37,-20 -0.03,-0.07 -0.7,-1.72 -5.59,-5.95 -0.96,-1.02 -0.18,-0.19 -2.18,-2.32 -5.65,-0.83 -0.29,-0.04 2.63,7.15 0.86,2.33 7.79,5.45 7.33,8.52 1.63,0.08 -0.44,-1.07 -4.22,-10.32 z m 29.63,25.29 -1.87,-1.5 -0.35,-1.29 -0.63,-2.34 -4.42,-3.02 -3.23,-0.64 -3.98,0.07 -1.5,1.23 0.12,0.33 2.22,6.22 3.43,2.82 4.93,7.19 1.38,0.58 1.81,0.76 0.45,0.91 0.63,1.27 2.66,5.37 0.16,0.33 0.3,0.04 2.93,0.43 1.81,2.26 0.28,0.34 0.13,-0.3 0.65,-1.51 1.53,-1.41 0.7,-0.64 -6.39,-14.51 -3.75,-2.99 z"
     title="Strømø"
     id="FO-ST" />
  <path
     d="m 376.11341,776.17858 -2.16,16.12 -1.69,-2.36 -1.95,-0.06 -2.04,2.41 -2.86,-4.71 -4.65,-3.53 -4.3,-1.97 -9.15,-4.32 -4.59,-5.99 -0.34,-1.26 -2.66,-9.68 -0.45,-0.22 -1.96,-0.94 -10.2,-9.69 -3.15,-2.99 -0.1,-0.09 -3.78,-3.59 -1.62,-0.46 -1.91,-0.55 -0.74,-1.12 -1.29,-1.94 1.33,-2.45 -0.55,-0.3 -1.89,-1.02 -3.91,-0.07 -1.23,-2.13 -3.16,-5.48 -3.16,-0.55 -0.89,-0.15 0.4,-0.72 1.85,-3.3 -1.75,-0.58 -0.46,-2.86 0.99,-2.84 -5.12,-6.87 -2.62,-0.13 -0.58,-0.03 -0.08,-0.37 -0.59,-2.8 -0.88,-4.16 -0.45,-2.85 3.05,-5.83 0.81,-5.31 0.16,-1.04 0.41,-2.67 -5.02,-4.99 -6.27,-4.82 -0.33,-3.19 -0.85,-4.12 -3.31,-2.8 -0.22,-3.74 -1.71,-3.69 -0.13,-0.29 -3.48,-3.29 -1.37,-1.32 -5.26,-2.63 -3.07,-4.58 -3.17,-1.52 2.4,-2.79 1.01,-3.9 2.76,-2.42 -7.73,-3.42 -0.66,-2.53 -3.8,-3.47 2.6,-1.52 0.95,-0.55 1.16,-0.67 1.67,-2.27 -4.89,-3.01 -0.6,-4.12 -3.29,-3.45 4.2,-2.65 1.41,-2.97 0.26,-0.55 0.26,-0.55 4.12,-1.09 -2.26,-7.42 0.27,-0.34 1.22,-1.53 6.61,-1.41 14.97,-3.04 1.33,1.02 7.22,5.54 -0.27,3.54 -8.2,5.28 -1.04,4.84 3.31,0 1.67,0 5.24,-1.87 3.75,0.7 1.33,1.07 0.42,0.33 -4.38,2.19 -11.36,9.36 -1.89,4.21 -7.8,2.5 2.19,4.31 5.31,-3.22 1.73,1.32 13.12,-2.67 4.95,1.04 7.39,-1.4 2.31,2.14 3.93,3.63 -1.05,4.41 2.54,1.89 0.93,0.7 0.03,0.02 0.29,2.85 0.1,0.94 0.13,1.28 3.38,0.92 4.94,1.42 3.31,-2.57 8.88,0.86 6.71,2.49 1.06,0.39 0.37,1.91 0.08,0.42 0.45,2.34 -2.12,4.75 3.77,3.01 1.18,0.94 1.29,1.03 0.42,2.47 0.22,1.27 0.11,0.63 -2.62,1.69 -0.27,0.18 -1.51,3.91 -0.05,0.14 -2.92,-0.49 -2.45,-0.41 -1.93,-0.33 -0.5,-0.09 -0.19,0.17 -0.55,0.49 -1.92,1.71 -0.84,0.75 -1.89,-2.6 -3.71,-5.1 -9.97,-5.62 -1.98,-1.12 -2.06,-1.16 -0.11,0.33 -0.99,2.51 14.75,10.82 0.62,2.48 1.19,1.64 6.8,3.16 0.57,0.27 5.68,0.7 4.49,3.89 0.23,0.4 2.85,4.99 0.78,1.37 -0.51,2.95 -0.16,0.94 0.23,0.46 0.56,1.11 2.1,4.14 0.86,1.69 -12.15,0.47 0.85,2.65 0.19,0.58 0.04,0.11 0.24,0.31 0.86,1.11 0.95,1.23 2.04,2.64 1.9,1.79 2.9,2.28 6.53,-2.31 2.12,0.6 0.79,1.91 0.33,0.78 -1.82,2.1 -3.79,1.16 -0.73,1.14 -0.57,0.88 -2.3,-0.16 -1.24,-0.09 -1.3,1.38 -2.67,0.28 -2.25,3.63 -2.13,1.3 -1.32,0.8 -0.34,0 -5,0 -3.12,-1.55 -5.87,-0.54 -2.71,1.24 5.09,4.04 4.23,5.31 0.81,1.02 1.2,1.51 -0.76,1.9 0.55,3.65 0.45,2.97 0.03,0.16 2.84,-0.08 1.29,-6.36 1.47,-1.75 11.52,-4.08 3,0.45 1.08,1.13 0.42,0.46 -3.5,12.03 -0.06,0.22 1.93,0.78 9.2,-2.85 0.31,-0.1 1.26,14.43 -0.76,2.83 -0.24,0.89 4.38,2.68 0.82,0.5 2.61,6.44 z m -9.59,-172.47 0.23,-2.56 -4.56,-1.71 -1.27,-0.48 -2.34,1.56 -0.55,2.54 -0.45,2.07 8.88,-0.62 0.06,-0.8 z"
     title="Suderø"
     id="FO-SU" />
  <path
     d="m 93.203411,250.84858 6.06,4.31 -9.83,1.96 0.09,-3.98 3.68,-2.29 z m 138.789999,2.07 -5.27,-12.28 -4.64,-2.52 -17.39,-0.97 -6.94,-10.4 -4.28,-6.41 -1.19,-1.73 -0.09,-0.13 -0.06,-0.09 -2.65,-1.72 -6.78,-4.41 -14.15,-6.75 -2.64,-3.89 -0.13,-1.13 -0.76,-6.5 1.67,-1.27 -0.45,-2.94 -1.65,-0.36 -2.88,-0.63 -22.31,10.88 -5.11,2.49 -5.64,0.24 -0.19,7.78 -1.56,4.21 -0.84,1.35 -0.49,0.79 -1.64,-0.29 -5.97,-1.04 -0.86,-0.15 -7.42,-1.3 -3.86,-5.87 -3.79,0.24 -11.439999,-8.57 -1.86,1.83 -3.79,-1.43 -1.48,2.54 0.28,1.02 1.05,3.75 -1.15,1.59 1.38,3.65 -1.67,1.83 1.89,3.89 4.41,3.38 0.04,0.03 0.12,0.73 0.51,3 1.82,1.19 3.78,8.4 3.9,3.53 6.169999,-0.04 -1.87,2.33 5.22,1 2.82,3.33 2.71,-1.69 3.17,1.73 3.34,1.82 4.69,1.37 8.27,2.41 2.76,5.29 0.14,0.74 0.42,2.18 0.25,1.29 -4.82,-1.91 -5.41,-2.14 -2.25,0.98 -1.34,0.58 -2.75,1.2 -0.43,0.19 -0.78,-0.9 -4.46,-5.11 -0.3,-0.07 -3.53,-0.68 -8.47,5.09 2.31,2.38 -0.45,2.93 6.13,1.2 -0.09,3.96 -0.02,0.94 2.69,1.11 8.41,3.48 5.65,-0.79 3.14,3.49 0.21,0.23 4.05,-3.17 4.24,5.38 8.66,0.71 4.38,5.22 5.24,1 0.28,0.77 1.06,2.91 3.61,3.14 3.22,2.8 1.1,1.2 0.22,0.23 2.03,2.21 0.54,-0.3 2.69,-1.52 0.34,-0.19 7.01,1.46 1.71,-1.19 2.86,-1.98 2.02,-1.4 3.56,-2.47 0.74,0.13 3.96,0.72 6.15,-6.7 -4.57,-4.51 -2.84,-0.76 -1.86,-0.5 -2.67,-0.71 -3.92,-2.62 2.02,-0.17 0.04,0 4.57,-0.4 3.17,-0.27 3.06,-5.74 0.35,2.02 0.6,3.3 1.92,1.85 3.95,0.85 2.69,-0.27 2.88,-0.29 3.28,-0.35 2.59,-0.28 2.49,2.77 4.72,-0.24 0.98,-2.47 1.37,-3.46 0.85,-10.69 5.97,-6.33 -0.67,-3.17 z m -178.909999,-15.93 -7.79,-8.53 -3.94,-1.69 -3.01,-3.73 -6.54,-0.32 -5.87,3.17 -2.17,-0.01 -1.37,1.75 -1.43,1.83 -4.7,0.22 -0.39,0.02 -4.42,3.41 -9.3100003,3.83 -1.69000002,2.83 5.09000002,-0.24 2.05,-1.19 3.4300003,-1.98 4,-0.66 7.71,3.31 0.11,0.06 0.1,0.01 9.34,0.65 1.33,0.09 0.38,0.03 6.02,-1.35 3.57,2.62 3.59,0.74 11.92,2.47 -1.31,-6.19 -4.7,-1.15 z"
     title="Vågø"
     id="FO-VG" />
</svg>
