<?xml version="1.0" encoding="UTF-8" standalone="no"?>
<!-- Created for MapSVG plugin: http://mapsvg.com -->
<svg
   xmlns:mapsvg="http://mapsvg.com"
   xmlns:dc="http://purl.org/dc/elements/1.1/"
   xmlns:rdf="http://www.w3.org/1999/02/22-rdf-syntax-ns#"
   xmlns:svg="http://www.w3.org/2000/svg"
   xmlns="http://www.w3.org/2000/svg"
   mapsvg:geoViewBox="-4.796120 51.089515 9.560553 41.363289"
   width="596.41547"
   height="584.5448">
 
  <path
     d="m 483.13497,208.49393 3.46,-1.71 -0.96,-2.53 1.36,-1.17 -0.72,-0.59 1.33,-4.97 2.35,-1.35 3.18,-5.46 -0.72,-2.22 5.8,-10.26 -0.8,-1.83 -2.62,0.4 -1.7,-1.19 1.34,-1.57 -0.97,-1.29 1.34,-4.75 -1.14,-1.82 1.84,0.36 -2.86,-1.66 4.16,-0.2 2.21,-1.55 3.58,-6.74 -1.62,-0.15 -0.96,-1.86 3,-4.72 -2.73,-2.55 0.45,-0.9 -4.43,-1.45 -1.12,2.72 -2,1.1 0.45,-1.69 -1.54,-0.28 -0.04,-1.77 1.83,-1.16 -1.85,0.22 -0.08,-0.98 -3.9,-1.19 -0.45,-2.51 1.44,0.01 0.49,-1.77 1.74,0.32 1.46,-6.89 1.28,-0.76 1.17,4.51 6.98,2.02 -0.14,1.15 1.46,0.77 5.24,-1.58 3.52,2.27 1.73,-1.55 2.42,-6.09 0,0 3.96,-0.19 0.12,0.82 2.44,-1.41 3,2.04 2.8,-1.54 6.61,4.29 5.79,1.51 -3.46,3.88 -2.47,6.42 -4.88,2.84 -0.33,2.21 -5.18,5.07 -1.62,3.57 0.25,4.34 -1.56,1.53 -1.49,5.98 0.51,4.19 -2.14,1.58 -1.11,4.98 -3.72,6.28 -0.3,5.36 2.19,3.85 -2.73,5.74 -1.12,6.16 0.76,2.8 -1.51,2.24 3.31,5.71 -0.34,1.76 -3.5,2.22 1.31,0.71 -1.37,0.45 0.56,1.37 -0.94,0.96 -2.37,-0.79 -0.44,0.91 1.44,0.57 -2.87,2.38 -2.4,-0.56 -3.54,1.22 -0.46,-1.1 -2.58,-0.28 1.32,-3.07 -2.88,-0.55 0,0 0.44,-1.33 -2.37,-4.18 -3.35,-0.57 1.68,-4.27 -0.39,-3.14 -4.01,-2.96 -3.07,-0.71 z"
     title="Alsace"
     id="FR-A" />
  <path
     d="m 225.50497,336.11393 0.97,1.29 2.81,-0.43 2.24,1.67 -0.97,2.94 2.51,2.53 2.36,-2.83 1.18,1.28 5.02,-0.57 2.79,4.71 1.27,-0.99 2.1,1.3 -1.89,2.95 7.17,2.5 -1.54,1.83 2.82,1.37 -2.46,3.29 -1.18,0.06 -0.39,2.91 2.1,1.07 -2.08,2.93 2.54,0.92 -1.2,1.32 0,0 -0.21,0.02 0,0 2.2,1.92 4.3,0.48 -1.41,1.16 2.91,5.01 0,0 -1.57,0.9 0,0 0.17,0.69 0,0 1.17,4.49 -1.2,0.35 1.16,1.86 -3.25,2.08 0.17,1.9 -2.81,0.88 0.73,3.25 -3.81,3.28 -3.13,0.8 0.25,1.8 -2.45,2.64 0.4,1.17 -3.69,2.11 -1.4,-0.41 1.47,2.16 0.02,3.55 1.57,1.04 0.24,3.53 -4.55,0.23 -0.44,0.95 -0.87,-2.25 -1,0.17 -1.12,4.1 3.38,2.06 -1.83,4.82 -2.21,0.38 1.33,0.52 0.36,2.14 -1.33,0.65 -3.03,-0.98 0.37,1.87 -1.72,0.21 -0.73,2.63 -3.17,2.15 -2.94,-3.22 -1.54,1.45 -3.94,-0.05 -0.78,1.57 -5.31,1.13 -0.59,1.08 -2.89,-1.8 -1.63,0.4 -1.46,2.43 -1.23,-1.66 -2.96,2.32 0.85,2.57 -0.71,1.18 -3.32,-1.89 1.15,-1.43 -1.79,-1.74 -2.47,3.21 -3.47,-0.62 -2.49,2.39 2.21,1.68 -0.92,0.61 0.63,2.74 -1.37,0.1 1.32,4.06 -2.29,1.72 0.32,3 -1.65,0.67 0.09,1.41 1.34,0.15 0.36,1.89 2.55,-0.78 3.35,0.82 0.12,2.2 1.13,-0.27 1.99,4.33 -1.97,0.51 -0.06,2.97 2.76,-1.96 -0.12,4.16 1.38,1.48 -3.15,2.55 1.2,1.76 -1.33,2.95 -0.99,-0.24 0.22,2.61 -2.06,-0.17 -1.19,2.9 -1.95,0.83 0.54,3.53 -3.35,0.83 -1.13,1.8 0.28,4.03 -1.92,0.94 0.59,3.83 0,0 -3.38,2.85 -2,0.2 -2.64,-1.8 -1.9,2.79 -5.25,-6.04 -2.23,-0.67 -0.92,-4.04 -7.86,0.83 -7.1,-4 -1.16,0.91 -0.89,-1.54 -2.7,-1.13 -1.4,0.66 -1.93,-1.41 1.59,-2.83 -3.04,1.35 -0.4,3.74 -3.57,-1 -1.37,-2.38 2.44,-2.23 1.35,-3.49 -0.27,-3.9 -6.08,-2.04 -1.15,0.32 -0.56,2.19 -1.33,-0.13 -0.66,-3.13 -4.36,0.6 -0.34,-1.94 -2.05,-1.16 -0.07,-1.33 5.03,-0.85 2.79,-2.55 6.38,-12.24 6.21,-32.32 1.66,-19.24 2.62,-6.67 7.87,1.33 -0.57,-2.49 -2.14,-1.01 1.48,-0.02 -5.54,-4.62 -2.71,4.81 -0.59,4.55 -0.63,-1.04 4.34,-49.39 2.59,-4.77 1.39,-1.02 0.88,2.21 -1.6,0.28 1.05,0.07 -0.56,1.1 10.89,9.76 4.74,15.92 3.95,3.85 -3.05,-7.07 -1.94,-11.61 0,0 4.97,0.42 0.34,-1.52 0.93,2.95 5.81,1.06 0.96,5.41 0,0 0.05,0.26 0,0 0.74,2.25 0.85,-1.55 1.05,0.2 0.99,1.67 1.41,-0.28 0.89,1.63 2.82,1.2 1.96,0.28 2.31,-1.88 1.82,1.35 0.3,-2.43 1.7,-0.75 -0.96,-0.7 1.13,-2.22 1.98,-1.44 3.28,1.23 1.68,-3.22 3.77,-2.14 -0.78,-4.26 1.19,-3.41 1.7,-0.57 -0.61,-1.33 1.17,1.02 2.08,-2.58 2.12,-0.01 0.72,-2.23 2.3,-1.64 0.27,-4.8 2.26,-0.03 2.64,-4.48 z m -29.29,139.42 0,0 -0.24,-3.57 0,0 -0.39,-0.19 0,0 0.16,2.15 -1.21,0.49 1,0.96 0.68,0.16 z m -1.59,-0.13 0,0 -0.29,0.22 0,0 -0.81,1.93 0.78,1.75 1.73,-1.24 -1.03,-2.52 0,0 -0.24,-0.16 -0.14,0.02 z"
     title="Aquitaine"
     id="FR-B" />
  <path
     d="m 294.01497,293.77393 0.74,-3.03 1.03,-0.01 1.56,-2.77 5.24,-0.96 2.06,0.81 3.24,-2.06 -0.45,-2.48 -1.55,-0.86 1.22,-1.84 -1.07,-1.19 1.45,-0.75 0.95,0.77 -0.15,-1.91 3.21,-1.71 0.59,-1.61 1.88,1.71 1.56,-1.08 1.98,0.55 3.09,-4.06 4.59,-0.12 0,0 1.11,2.64 5.88,4.51 2.88,-2.45 3.23,1.99 1.34,-1.73 1.72,-0.08 1.5,3.77 4.32,-2.26 -0.55,-2.04 2.05,-0.09 -0.34,-2.26 1.51,0.42 0.56,2.89 4.08,6.33 0.23,3.82 2.64,1.2 1.39,-0.76 1.25,2.6 3.36,-0.29 2.06,1.87 -0.98,3.8 0.36,4.18 0.82,0.08 -2.41,0.35 -1.97,2.74 0,0 -0.27,0.07 0,0 -0.36,0.05 0,0 -4.82,2.08 1.69,4.56 -0.65,3.05 1.18,1.39 -0.67,2.1 1.07,3.23 -1.8,1.54 -3.58,0.22 -0.33,2.35 2.56,2.62 -1.62,0.94 0.29,3.36 -1.39,1.33 3.81,3.92 -0.15,1.99 1.94,3.54 4.57,3.16 2.12,4.86 -0.89,3.53 -3.08,2.41 0.63,3.59 1.81,-2.47 1.56,0.24 1.35,2.59 0.1,-1.26 2.1,0.79 0.42,-1.32 3.01,-0.39 -0.37,-1.12 1.4,-0.52 2.26,0.21 1.62,1.83 2.59,-0.6 1.36,1.88 -1.49,1.09 1.63,0.96 -0.9,1.58 1.51,1.09 2.08,-1.09 2.27,3.05 -1.79,3.66 0.41,2.45 -0.9,0.53 -0.53,-1.55 -2.04,-0.44 1.04,1.75 0,0 0,0.53 0,0 -1.14,-0.08 -1.02,1.75 1.37,2.34 -3.46,1.01 0.72,2.71 -3.69,0.58 -2.84,5.27 -5.06,0.04 -0.26,2.26 -1.17,0.8 -0.73,-0.76 0.24,1.25 -1.62,-0.9 -1.07,3.4 -2.58,1.42 0,0 -1.07,-0.21 0.3,-1.42 -1.39,0.44 -2.01,-2.11 -0.74,-2.18 -3.19,0.55 0.28,-1.63 -1.8,-1.44 -1.51,0.32 -0.21,2.9 -4.59,0.97 -2.54,-5.19 -0.07,-2.54 -1.83,-1.95 -3.55,2.82 -1.82,-0.51 -0.24,2.8 -1.83,1.47 -2.51,-2.4 -0.92,2.21 0,0 -0.24,0 0,0 -0.19,1.87 -1.1,-0.23 -1.09,2.19 -0.29,4.92 -2.38,4.15 0,0 -1.87,-2.07 -1.04,-4.74 1.06,-0.74 -0.69,-1.14 -1.34,0.25 -1.19,-4.96 -3.6,1.08 0.06,-3.28 -1.55,-1.71 -5.49,5.58 -0.18,3.14 -2.1,2.25 0.43,1.94 -2.52,1.81 -0.65,2.23 -5.46,0.59 -1.07,-1.74 -1.31,0.12 -3.25,1.06 -0.52,1.88 -1.4,-1.21 -0.49,-3.32 -1.21,-0.06 1.74,-5.35 -3.34,-4.95 0.49,-2.74 -1.72,-3.23 0,0 1.65,-0.43 0,0 0.35,0.09 0,0 1.38,-1.15 -1.84,-3.43 3.09,-1.3 0.27,-3.22 2.19,-1.67 -1.31,-0.93 -0.28,-2.37 6.88,-6.78 -0.46,-4.43 5.48,2.47 1.98,-1.3 -1.69,-1.6 1.26,-7.98 -2.34,-2.47 1.03,-2.65 1.48,-0.08 0.08,-4.03 -5.62,-6.83 2.83,-2.43 0,0 0.18,-0.04 0,0 1.32,0.18 2.66,-2.96 0.32,-2.56 1.96,-0.91 -0.41,-3.75 -2.14,-3.05 0.65,-4.13 -3.47,-7.46 -2.11,-0.96 -0.42,0.78 -1.4,-2.9 -0.95,1.27 -2.6,-1.97 1.31,-1.74 -1.93,-0.55 z"
     title="Auvergne"
     id="FR-C" />
  <path
     d="m 404.46497,205.71393 0,0 -1.55,-3.37 -1.4,0.21 -0.37,1.32 -1.2,-0.77 1.4,-1.95 -0.82,-1.25 -2.53,-0.11 1.02,-1.62 -0.67,-1.07 -3.86,-1.11 -5.04,-0.32 -1.77,1.4 0.77,2.38 -9.97,0.42 -0.9,2.25 -2,-0.32 -0.76,-2.59 -1.31,0.29 0.31,1.6 -1.46,-1.12 0,0 -0.52,0.28 0,0 -1.85,1.8 -2.08,-1.22 -0.64,1.27 -1.67,-1.07 -4.55,0.82 0.77,-3.12 -0.78,-1.35 -0.6,1.41 -1.18,-0.26 -0.52,-1.29 1.36,-0.69 -2.06,-1.8 -1.29,-4.57 -2.14,-0.91 0.36,-2.07 -1.41,-0.52 0.35,1.12 -2.31,1 -1.53,-3.1 -2.14,0.33 1.76,-2.55 -0.86,-0.43 0.76,-2.25 -1.73,-0.95 0.41,-1.03 -3.47,-4.11 -1.55,-0.61 -1.59,1.1 -0.58,-1.97 0,0 -1.6,-0.61 -0.46,1.72 -1.2,0.16 -8.1,-0.18 -1.54,1.48 -2.33,-0.65 -1.33,3.38 1.33,3.44 -1.78,2.66 -2.78,1.46 -0.01,1.26 0,0 3.84,1.85 -0.56,1.07 0.82,-0.06 0.58,2.71 3.11,2.69 -1.05,0.64 1.19,2.89 -1.38,1.61 0,0 -0.25,0.21 0,0 -3.3,2.3 -0.56,2.4 1.53,1.08 -0.3,3.88 -7.21,1.82 -0.16,2.49 1.27,-0.21 1.98,2.37 1.13,2.26 -0.7,2.84 1.66,1.81 -4.81,1.37 0,0 0,-0.22 0,0 -0.52,0.77 3.43,6.12 -2.62,6.09 4.73,4.68 2.03,8.56 -0.53,3.46 2.49,2.46 0.07,4.13 -1.25,2.92 0.82,3.38 -1.57,3.44 0,0 1.11,2.64 5.88,4.51 2.88,-2.45 3.23,1.99 1.34,-1.73 1.72,-0.08 1.5,3.77 4.32,-2.26 -0.55,-2.04 2.05,-0.09 -0.34,-2.26 1.51,0.42 0.56,2.89 4.08,6.33 0.23,3.82 2.64,1.2 1.39,-0.76 1.25,2.6 3.36,-0.29 2.06,1.87 -0.98,3.8 0.36,4.18 0.82,0.08 -2.41,0.35 -1.97,2.74 0,0 -0.36,3.68 3.42,0.7 0.69,2 4.71,-1.77 3.13,1.49 1.22,-1.23 0.75,1 1.19,-0.59 -0.19,1.74 1.06,0.13 4.04,-1.77 1.37,-6.57 2.2,-0.08 1.88,1.77 2.68,-1.58 2.07,1.7 0.79,-2.12 1.77,-0.31 1.27,1.65 -1.29,1.18 2.35,1.53 -0.69,2.31 1.61,1.34 0.9,-0.24 6.69,-20.52 0.4,1.07 1.39,-0.84 3.02,1.84 4.56,-1.19 0.05,-0.91 1.58,0.81 1.23,2.86 3.26,0.7 0,0 0.39,-1.01 3.87,-0.83 0.16,-1.53 -2.56,-1.04 -0.05,-2.56 1.91,-1.17 -0.35,-1.73 1.89,-1.64 -1.92,-2.85 -0.11,-2.62 -1.33,-0.08 1.27,-2.45 -2.65,-2.72 5.75,-1.52 -2.62,-1.69 -0.14,-1.45 -2.9,0.3 -1.46,-3.16 -1.24,0.66 -0.4,-3 2.65,-2.11 -1.78,-0.84 0.35,-1.36 4.2,-2.01 2.25,-3.79 0,0 -0.02,-0.31 0,0 2.04,-8.45 1.3,-0.89 -1.93,-0.81 0,0 -0.14,0 0,0 1.09,-1.5 -0.48,-3.19 0,0 -0.16,-0.1 0,0 -1.72,0.12 0,0 -0.26,0 0,0 0.27,-3.54 -2.98,-0.86 1.71,-0.78 -0.85,-0.24 0.48,-1.09 2.05,0.08 2.02,-3.54 -2.32,-4.58 -1.93,2.17 -0.93,-0.64 0,0 -0.71,0.86 -2.01,-1.13 -2.28,2.01 0.32,-2.79 -3.56,-1.84 0.21,-1.73 -2.53,2.08 -2.65,-1.34 0.3,-1.66 -1.32,0.18 -0.03,-1.12 -2.5,1.5 -0.4,-4.68 -1.8,-0.32 3.18,-2.52 -1.6,-3.62 z"
     title="Bourgogne"
     id="FR-D" />
  <path
     d="m 64.514973,235.16393 1.24,1.49 2.52,-0.06 0.73,2.13 3.24,0.92 -0.56,1.7 -6.78,-1 -1.03,-3.02 0.64,-2.16 z m 0.96,-91.82 0.21,2.23 5.57,-2.26 0,3.04 3.06,-0.19 0.32,1.47 -1.64,1.23 4.77,1.54 -0.69,2.18 5.32,4.52 -0.2,3.35 4.49,2.47 -1.11,1.95 1.17,-0.49 1.61,2.8 -0.36,-2.8 2.29,0.66 3.02,-4.87 3.36,-1.43 -0.62,-1.41 2.13,-0.48 0.72,1.47 4.209997,-3.72 1.45,1.27 -2.22,3.03 0.96,0.63 2.93,-2.15 1.36,3.59 -0.57,2.31 1.17,-3.8 0.7,2.17 1.19,-2.62 1.08,1.09 -1.14,-2.05 4.34,-0.34 0.44,2.45 1.66,1.08 -0.75,0.68 1.75,1.74 -0.52,3.04 0.85,-1.92 1.09,0.37 -2,-3.99 1.63,0.87 -0.56,-1.33 -2.15,-0.45 0.63,-1.06 -1.48,-1.21 1.73,-3.06 6.15,-1.81 0.32,2.06 -1.36,2.59 3.75,2.13 8.54,-1.9 0,0 3.46,9.09 2.79,1.76 2.8,-0.5 4.16,-4.69 7.63,2.23 0,0 -0.46,5.85 1.49,5.35 -2.32,3.9 0.93,3.91 0,0 0.17,0.16 0,0 2.41,12.26 -5.75,2.37 -3.8,11.62 -4.84,-1.39 -1.03,-1.79 -3.76,-0.44 0.24,1.99 -6.19,2.43 -1.57,3.32 -8.31,0.06 -3.94,2.29 -0.76,-1.38 -4.51,2.7 -0.68,7.18 -2.46,0.69 -0.26,1.95 -0.89,-1.4 -2.49,1.11 -2.23,-1.33 -0.78,3.38 -3.499997,0.29 -0.9,-1.27 -1.43,1.77 0,0 -1.56,-0.12 -0.26,-2.58 2.52,-0.38 -2.85,-1.59 -12.7,2.33 -3.98,-4.1 -2.15,-0.01 -1.1,-1.61 -0.63,0.81 -0.84,-1.58 0.2,1.53 -4.29,-0.13 -0.19,3.42 2,2.76 -2.14,-0.27 -1.3,-3.44 1.14,-0.95 -0.6,-3.12 -5.67,-5.52 -3.09,-0.04 -0.22,-1.53 -3.64,0.92 -3.06,-4.18 -6.3,-0.76 -2.02,-1.78 -5.28,0.88 -1.96,-2.7 0.85,-1.49 -1.2,0.53 -1.48,-3.23 -1.78,1.18 0.6,1.78 -2.77,0.72 -2.67,-1.76 -1.69,0.91 -1.86,3.72 -7.31,0.01 0.39,-5.65 -2.61,-4.61 -3.72,-2.65 -2.42,0.33 -2.63,-1.78 -4.34,-0.64 1.25,-0.28 -0.32,-1.3 12.37,-2.63 4.63,1.1 1.57,-2.52 -2.01,-4.6 -6.14,-2.18 -1.46,0.42 -2.49,3.84 -0.55,-3.99 1.2,-0.91 -3.25,-0.33 -0.28,-1.57 2.43,-0.16 -0.07,-3.02 1.63,-0.64 -0.97,2.36 0.85,1.16 1.49,-1.7 -0.13,1.9 2.11,-0.98 2.22,1.36 3.78,-1.44 1.93,1.1 1.62,-2.09 -1.08,0.9 -3.72,-0.98 1.43,-0.97 -1.2,-0.57 0.56,-1.41 -2.28,2.25 -1.81,0.1 0.82,-1.1 -2.53,0.98 2.41,-3.53 -0.98,-0.78 -7.63,3.58 -3.06,-1.06 -1.1,1.49 -2.71,0.13 -0.73,-1.99 1.19,-1.31 -1.39,-1.93 1.42,-3.36 -0.66,-3.01 1.95,-2.54 4.96,-1.27 0.19,-1.73 1.75,0.39 0.89,-2.44 1.79,0.99 4.06,-1.01 -1.47,-1.08 3.76,-1.42 2.08,0.79 0.01,1.94 4.18,-1.14 -1.13,-0.43 1.5,-1.77 3.59,-0.53 1.69,1.2 0.25,-1.86 1.89,-1.35 0.26,0.99 1.28,-0.98 -0.07,3.34 1.67,0.71 0.25,-2.26 0.08,1.55 3.21,0.85 -0.37,-1.82 0.98,-1.57 0.45,0.86 -0.12,-1.16 5.96,2.08 1.49,-0.61 -0.61,2.33 1.47,-1.72 1.71,1 -0.07,-3.41 1.45,-1.3 -1.49,-0.76 0.73,-2.39 -0.83,-0.69 1.34,0.91 2.09,-3 0.54,1.19 0.45,-1.08 0.88,1.38 1.29,-0.33 -0.53,1.43 1.77,-0.13 3.24,-2.4 2.36,0.25 1.63,-2.1 z"
     title="Bretagne"
     id="FR-E" />
  <path
     d="m 261.68497,138.79393 2.57,3.15 -0.72,1.27 2.18,1.94 -0.7,4.93 1.88,0.9 -2.07,2.76 1.46,0.88 -0.42,1.49 2.65,3.19 2.03,-0.02 -0.25,2.34 3.24,1.47 -0.47,2.52 1.07,2.91 2.83,1.64 2.51,-1.04 -0.1,3.18 2.06,0.28 0.44,2.37 -1.26,3.3 0.61,1.36 7.93,-0.65 -0.49,-1.09 1.23,0.29 0.9,-2.04 1.77,0.76 -0.02,2.08 2.22,-0.86 0,0 0.22,-0.41 0,0 0.99,-0.88 1.3,1.57 1.88,-0.49 0.81,3.48 3.88,2.1 0.02,3.64 -1.43,0.15 -1.64,2.53 4.8,-1.06 6.07,1.09 2.02,-1.36 -0.74,-1.33 1.1,0.83 1.5,-0.95 0.85,2.41 1.94,-1.63 2.94,-0.43 0,0 3.84,1.85 -0.56,1.07 0.82,-0.06 0.58,2.71 3.11,2.69 -1.05,0.64 1.19,2.89 -1.38,1.61 0,0 -0.25,0.21 0,0 -3.3,2.3 -0.56,2.4 1.53,1.08 -0.3,3.88 -7.21,1.82 -0.16,2.49 1.27,-0.21 1.98,2.37 1.13,2.26 -0.7,2.84 1.66,1.81 -4.81,1.37 0,0 0,-0.22 0,0 -0.52,0.77 3.43,6.12 -2.62,6.09 4.73,4.68 2.03,8.56 -0.53,3.46 2.49,2.46 0.07,4.13 -1.25,2.92 0.82,3.38 -1.57,3.44 0,0 -4.59,0.12 -3.09,4.06 -1.98,-0.55 -1.56,1.08 -1.88,-1.71 -0.59,1.61 -3.21,1.71 0.15,1.91 -0.95,-0.77 -1.45,0.75 1.07,1.19 -1.22,1.84 1.55,0.86 0.45,2.48 -3.24,2.06 -2.06,-0.81 -5.24,0.96 -1.56,2.77 -1.03,0.01 -0.74,3.03 0,0 -3.48,-0.52 -4.49,1.11 -4.55,-1.99 -5.8,1.04 -2.33,-1.85 -1.47,0.38 0.52,1.49 -1.29,2.11 -1.8,-1.69 -2.37,1.82 -0.79,-2 -2.68,1.73 -0.79,-2.05 -4.59,4.84 -2.55,-3.22 -1.69,0.29 -0.4,1.41 -3.53,0.34 -0.39,-1.46 -1.29,0.31 0,0 0,0 0,0 0.76,-1.01 0,0 0.64,-1.92 -2.54,-0.89 -0.27,-3.52 -2.13,-1.77 -3.04,0.03 -0.22,-1.85 -4.31,-2.06 -0.75,-1.7 1.46,-3.9 -0.61,-1.98 -4.05,-3.76 -0.78,-3.66 -3.81,-3.24 -0.53,-4.28 -3.07,-2.05 -2.07,0.09 1.27,2.97 -3.85,-0.1 -2.78,1.78 -3.04,-1.21 -1.73,1.14 -1.34,-3.64 0.89,-0.48 -0.4,-3.21 -1.44,0.52 -0.96,-1.76 -2.77,0.76 0.9,-1.98 -0.76,-1.44 -0.82,0.86 -1.13,-0.38 0.22,-1.08 -2.49,0.36 -1.09,-2.73 0,0 0.95,-7.16 4.36,-6.11 -1.22,-1.08 2.85,-6.17 0.19,-1.66 -1.33,-0.73 1.65,-3.52 0,0 -0.05,-0.52 0,0 6.29,2.14 0.8,-0.51 -1.6,-2.52 0.78,-1.47 2.74,1.5 0.61,-1.58 5.48,-1.66 0.95,-1.3 -0.96,0.29 -0.42,-1.81 1.7,-2.09 3.11,-0.93 -0.38,-1 3.16,-3.01 -0.34,-4.22 1.21,-0.69 0.89,1.45 0.17,-2.7 1.39,-0.49 -1.26,-2.84 0.98,-2.7 -1.87,-0.46 -0.15,-2.07 2.05,-0.15 0.09,-1.37 -1.32,-0.29 1.15,-0.27 0.41,-1.83 2.69,-0.34 -4.9,-3.44 0,0 1.35,-1.2 -1.75,-2.94 0.75,-1.75 -2.11,-0.66 0.61,-1.42 5.98,-3.14 2.57,-4.22 -1.66,-2.26 1.27,-2.94 -6.12,-5.53 -0.14,-3.63 0,0 2,-1.11 0.53,-1.74 4.67,-0.62 0,0 0.86,0 0,0 2.23,-2.07 2.16,0.74 0.26,-2.69 4.19,1.97 4.56,-0.2 1.66,-1.25 -0.43,-3.35 4.08,-2.36 -0.51,-3.25 z"
     title="Centre"
     id="FR-F" />
  <path
     d="m 400.08497,61.323928 2.52,1.13 -1.19,1.1 0.18,2.05 -0.87,-0.88 -1.29,2.36 0.88,1.74 -2.14,4.46 4.1,3.81 -1.71,2.75 1.15,3.02 -0.96,1.71 5.97,-0.45 4.11,2.39 2.99,4.45 4.33,-0.16 2.54,2.68 -0.73,2.73 1.41,-1.26 1.99,0.92 0,0 -5.54,4.770002 -1.14,-1.760002 -2.96,0.41 -0.84,-1.77 -1.28,-0.1 -0.93,3.180002 0,0 -0.07,0.38 0,0 -1.22,2.28 2.16,2.72 0.17,2.45 -1.59,1.07 1,1.55 -1.96,0.69 -1.2,3.65 1.3,1.02 -0.24,1.25 -4.13,2.35 1.7,1.78 -2.19,1.53 2.7,7.35 -1.62,2.98 1.8,-0.89 1.15,0.76 -0.09,1.92 -1.65,0.59 1.87,0.63 -0.96,2.18 -3.24,1.34 0,0 -0.18,0.18 0,0 -0.89,2.95 1.04,1.62 -1.94,2.76 4.96,3.56 -0.45,7.93 2.42,-1.06 0.58,2.28 1.99,0.03 3.85,4.2 4.82,1.17 5.83,5.39 -3.14,1.99 2.01,0.74 -0.63,2.99 2.18,-1.55 1.88,0.52 2.67,4.6 0.94,-1.11 1.75,1.49 -0.51,1.63 1.91,0.48 1.76,2.25 -2.04,1.16 -0.41,4.41 -1.77,1.42 2.85,0.54 1.06,2.03 2.27,0.64 0.45,5 2.47,-1.43 1.57,3.07 0,0 -0.02,1.59 -1.4,-0.39 -1.19,2.18 0.25,1.16 -2.79,-0.45 -0.79,2.43 -2.1,-0.05 -0.62,2.57 1.36,1.99 -0.75,3.82 -3.9,0.77 -1.22,-2.17 -1.74,2.12 -4.78,-0.09 -1.58,4.29 0,0 -0.71,0.86 -2.01,-1.13 -2.28,2.01 0.32,-2.79 -3.56,-1.84 0.21,-1.73 -2.53,2.08 -2.65,-1.34 0.3,-1.66 -1.32,0.18 -0.03,-1.12 -2.5,1.5 -0.4,-4.68 -1.8,-0.32 3.18,-2.52 -1.6,-3.62 0,0 -0.55,0 0,0 -1.55,-3.37 -1.4,0.21 -0.37,1.32 -1.2,-0.77 1.4,-1.95 -0.82,-1.25 -2.53,-0.11 1.02,-1.62 -0.67,-1.07 -3.86,-1.11 -5.04,-0.32 -1.77,1.4 0.77,2.38 -9.97,0.42 -0.9,2.25 -2,-0.32 -0.76,-2.59 -1.31,0.29 0.31,1.6 -1.46,-1.12 0,0 -0.52,0.28 0,0 -1.85,1.8 -2.08,-1.22 -0.64,1.27 -1.67,-1.07 -4.55,0.82 0.77,-3.12 -0.78,-1.35 -0.6,1.41 -1.18,-0.26 -0.52,-1.29 1.36,-0.69 -2.06,-1.8 -1.29,-4.57 -2.14,-0.91 0.36,-2.07 -1.41,-0.52 0.35,1.12 -2.31,1 -1.53,-3.1 -2.14,0.33 1.76,-2.55 -0.86,-0.43 0.76,-2.25 -1.73,-0.95 0.41,-1.03 -3.47,-4.11 -1.55,-0.61 -1.59,1.1 -0.58,-1.97 0,0 -1.31,-5.61 2.26,-0.67 -1.3,-2.34 3.09,-0.86 -0.67,-1.8 2.04,-1.21 -0.51,-0.93 2.41,-0.74 -1.63,-1.02 0.58,-0.84 -3.45,0.7 0.71,-6.44 -3.06,-1.27 2.03,-2 -1.66,-1.15 3.48,-0.33 -0.08,-2.4 0,0 1.78,-3.77 1.76,-0.16 0.14,-1.56 1.22,-0.22 -0.54,-1.09 3.64,-3.4 -1.12,-1.83 -2.72,0.39 0.07,-1.47 2.13,-1.07 -1.55,-2.68 0.89,-1.95 3.44,0.52 1.8,-1.05 0.03,-1.41 -1.42,0.27 -0.66,-1.9 -0.69,0.62 -1.18,-1 1.01,-1.39 -1.37,-5 5.51,-2.72 3.05,0.73 0.18,-2.25 2.83,-1.69 1.49,1.87 3.2,1.09 0.06,-4.97 1.27,-0.46 -1.13,-3.91 1.58,-1.13 -1.23,-1.3 1.17,-1.680002 -2.26,-3.25 0.73,-1.01 3.07,0.3 0.47,-2.88 2.44,-1.34 2.69,-3.72 -1.82,-1.47 1.96,-5.67 0.1,-2.29 -1.58,-0.63 0.6,-2.9 0,0 3.23,-0.67 5.66,2.04 6.29,-3.17 3.93,-0.57 -0.53,-4.55 0.92,-1.86 5.07,-4.73 z"
     title="Champagne-Ardenne"
     id="FR-G" />
  <path
     d="m 563.65497,571.65393 1.21,-2.68 2.83,-0.29 1.79,-2.26 -4.31,-1.47 -1.27,0.8 -0.28,-2.29 -2.82,1.09 -0.1,-0.98 -1.9,-0.07 2.98,-2 -0.77,-1.43 2.48,-0.52 0.49,-1.16 -1.36,-0.7 1.56,-0.3 -0.41,-1.8 1.02,-0.7 -2.28,-2.11 -1.21,1.4 -4.62,0.79 0.64,-2.29 -1.27,-1.68 2.32,-0.19 0.49,-2.44 3.62,-2.07 -1.97,-3.49 -1.69,0.66 -1.96,-1.91 -1.3,0.37 0.18,-1.31 -1.15,0.33 1.49,-1.26 -1.35,-0.18 0.83,-1.91 -1.7,-1.78 6.43,-1.64 -1.43,-2 -2.32,-0.18 0.44,-2.47 -2.58,0.89 -0.34,-2.31 2.67,-0.63 -0.14,-1.67 2.06,0.06 -0.28,-1.52 1.31,-1.49 -1.29,-0.54 0.74,-2.08 2.23,-0.54 -0.58,-2.48 0.81,-0.85 0.07,1.31 1.15,-0.57 1.4,1 0.55,-2.74 2.69,-0.33 2.71,-2.15 3.44,0.3 1.88,-1.13 -0.11,-1.98 2.78,-1.98 4.03,-0.21 3.19,3.3 1.91,-3.34 -0.1,-3.32 -1.37,-2.15 1.28,-1.84 -0.76,-1.93 1.63,-1.36 -0.88,-3.95 3.45,-0.98 1.68,1.41 1.22,10.14 -1.95,7.42 3.6,7.14 1.08,19.75 -0.39,5.13 -5.7,8.35 -1.05,17.06 -1.83,0.74 0.52,0.85 -1.93,-0.65 -1.22,1.78 0.37,1.18 1.27,-1.66 2.12,0.59 -1.07,1.95 -2.89,1.58 0.2,3.66 -2.3,1.2 -0.58,1.61 2.34,-0.82 -0.25,0.81 -1.6,2.61 -1.71,0.13 -0.95,-1.55 -2.64,-0.1 1.13,-2.4 -2.1,-0.36 0.39,-2.03 -1.66,1.35 -1.7,-1.84 -0.63,0.89 -2.62,-0.84 -1.83,-1.94 -1.39,0.36 0.46,-1.61 -2.76,-0.49 0.71,-1.06 -1.22,-1.01 z"
     title="Corse"
     id="FR-H" />
  <path
     d="m 443.66497,202.06393 2.01,-3.18 1.13,0.57 -1.34,1.86 0.9,0.14 2.21,-1.27 1.54,-2.91 3.96,-0.98 0,0 0.1,0.07 0,0 0.46,3.2 2.3,1.81 0,0 0,0.32 0,0 7.68,-1.77 1.91,1.17 1.78,3.47 5.19,-3.73 1.78,2.6 7.86,5.06 0,0 1.25,2.43 3.07,0.71 4.01,2.96 0.39,3.14 -1.68,4.27 3.35,0.57 2.37,4.18 -0.44,1.33 0,0 -6.21,0.55 0.78,2.48 -2.56,1.27 -2.54,4.9 5.7,-1.23 1.35,0.65 0.28,1.74 -1.88,0.56 -0.57,1.83 -2.22,0.46 0.51,2.72 -4.73,4.32 0.73,0.43 -0.83,0.96 -5.65,4.07 0.68,1.89 -4.07,3.52 -5.17,1.13 -2.7,2.8 1.34,2.37 -1.38,4.64 0.89,2.25 -14.19,11.96 1.92,1.89 -3.49,4.96 -0.33,2.8 0,0 -8.1,9.07 -5.99,0.23 -0.48,-2.9 -2.79,-0.89 -0.15,-1.23 -4.32,4.56 -2.71,0.25 0.07,-3.07 -1.59,0.01 -0.53,-1.95 -0.85,2.24 -1.76,-3.58 0.65,-0.72 -3.23,-1.85 0.64,-1.99 0,0 0.39,-1.01 3.87,-0.83 0.16,-1.53 -2.56,-1.04 -0.05,-2.56 1.91,-1.17 -0.35,-1.73 1.89,-1.64 -1.92,-2.85 -0.11,-2.62 -1.33,-0.08 1.27,-2.45 -2.65,-2.72 5.75,-1.52 -2.62,-1.69 -0.14,-1.45 -2.9,0.3 -1.46,-3.16 -1.24,0.66 -0.4,-3 2.65,-2.11 -1.78,-0.84 0.35,-1.36 4.2,-2.01 2.25,-3.79 0,0 -0.02,-0.31 0,0 2.04,-8.45 1.3,-0.89 -1.93,-0.81 0,0 -0.14,0 0,0 1.09,-1.5 -0.48,-3.19 0,0 -0.16,-0.1 0,0 -1.72,0.12 0,0 -0.26,0 0,0 0.27,-3.54 -2.98,-0.86 1.71,-0.78 -0.85,-0.24 0.48,-1.09 2.05,0.08 2.02,-3.54 -2.32,-4.58 -1.93,2.17 -0.93,-0.64 0,0 1.58,-4.29 4.78,0.09 1.74,-2.12 1.22,2.17 3.9,-0.77 0.75,-3.82 -1.36,-1.99 0.62,-2.57 2.1,0.05 0.79,-2.43 2.79,0.45 -0.25,-1.16 1.19,-2.18 1.4,0.39 z"
     title="Franche-Comté"
     id="FR-I" />
  <path
     d="m 270.07497,120.40393 1.5,0.48 -0.52,1.86 0,0 0.38,-0.01 0,0 0.75,1.23 2.03,-0.62 3.31,1.43 4.93,-0.83 3.28,-2.18 3.72,2.96 1.99,-1 0.6,1.78 2.18,-0.54 1.17,-1.69 1.82,2.43 0.72,-0.74 2.7,0.83 -0.24,0.82 1.07,-0.47 1.82,1.46 -0.56,0.72 1.74,0.41 0.84,-1.56 1.29,2.82 2.05,-1.81 4.2,3 3.08,-2.27 1.81,1.67 4.86,-1.34 0.78,1.29 0.89,-1.29 2.39,0.4 0.14,-2.01 2.84,0.69 2.16,3.54 -0.97,2.39 3.48,2.51 0.55,2.12 1.67,-0.62 1,2.56 1.6,-1.28 0.64,3.55 2.6,0.73 0.64,1.43 1,-0.92 0,0 0.08,2.4 -3.48,0.33 1.66,1.15 -2.03,2 3.06,1.27 -0.71,6.44 3.45,-0.7 -0.58,0.84 1.63,1.02 -2.41,0.74 0.51,0.93 -2.04,1.21 0.67,1.8 -3.09,0.86 1.3,2.34 -2.26,0.67 1.31,5.61 0,0 -1.6,-0.61 -0.46,1.72 -1.2,0.16 -8.1,-0.18 -1.54,1.48 -2.33,-0.65 -1.33,3.38 1.33,3.44 -1.78,2.66 -2.78,1.46 -0.01,1.26 0,0 -2.94,0.43 -1.94,1.63 -0.85,-2.41 -1.5,0.95 -1.1,-0.83 0.74,1.33 -2.02,1.36 -6.07,-1.09 -4.8,1.06 1.64,-2.53 1.43,-0.15 -0.02,-3.64 -3.88,-2.1 -0.81,-3.48 -1.88,0.49 -1.3,-1.57 -0.99,0.88 0,0 -0.22,0.41 0,0 -2.22,0.86 0.02,-2.08 -1.77,-0.76 -0.9,2.04 -1.23,-0.29 0.49,1.09 -7.93,0.65 -0.61,-1.36 1.26,-3.3 -0.44,-2.37 -2.06,-0.28 0.1,-3.18 -2.51,1.04 -2.83,-1.64 -1.07,-2.91 0.47,-2.52 -3.24,-1.47 0.25,-2.34 -2.03,0.02 -2.65,-3.19 0.42,-1.49 -1.46,-0.88 2.07,-2.76 -1.88,-0.9 0.7,-4.93 -2.18,-1.94 0.72,-1.27 -2.57,-3.15 0,0 -0.36,-1.69 1.1,-0.72 -2.02,0.17 0.34,-2.41 -1.26,-2.49 1.67,0.18 0.88,-2.2 0.45,1.02 0,0 0.22,0 0,0 4,-1.02 z"
     title="Île-de-France"
     id="FR-J" />
  <path
     d="m 323.13497,398.65393 2.38,-4.14 0.29,-4.92 1.09,-2.19 1.1,0.23 0.19,-1.87 0,0 0.24,0 0,0 0.92,-2.21 2.5,2.4 1.84,-1.47 0.24,-2.79 1.82,0.51 3.54,-2.82 1.83,1.95 0.07,2.55 2.54,5.18 4.59,-0.96 0.2,-2.9 1.51,-0.32 1.8,1.44 -0.27,1.62 3.19,-0.54 0.73,2.18 2.01,2.11 1.39,-0.44 -0.3,1.42 1.07,0.21 0,0 1.73,8.71 2.06,1.37 1.48,5.72 3.35,3.87 -1.18,0.81 0.32,4.18 3.4,-1.02 5.29,4.14 2.87,-4.24 2.73,-0.47 0.15,3.24 1.76,0.42 0.63,-3.19 2.16,-0.31 5.98,4.23 0,0 0.98,3.18 1.42,0.07 0.59,1.55 -0.04,6.1 2.74,0.91 2.41,4.41 -1.27,0.06 0.01,1.44 -7.16,5.54 1.07,1.25 -2.27,6.83 0.63,2.29 -3.65,-1.24 -2.27,0.57 -2.47,4.19 1.9,0.66 -0.43,1.32 -5.32,3.08 -0.83,-1.11 0.41,1.55 -3.4,1.65 -0.44,2.25 0,0 -3.96,-1.47 -0.66,-1.33 0.83,-1.29 -1.33,-1.19 -5.6,0.42 -10.28,8.28 -3.35,0.97 -5.7,6.6 0.2,-0.99 -0.27,0.92 -7.15,-1.17 0.37,1.2 -6.67,5.42 -4.08,6.59 -1.57,5.17 0.7,2.63 -1.32,12.07 0.76,9.2 3.89,1.35 -0.46,1.89 1.83,2.66 -3.67,0.52 -1.89,-2.67 -3.06,0.43 -0.83,-0.94 -1.22,1.45 -3.25,-0.14 -2.54,2.63 -1.86,-0.68 -2.44,1.09 -0.95,1.03 0.83,2.57 -3.95,-0.99 -1.93,1.43 -2,-0.41 -2.04,-2.98 -7.31,-2.5 -2.3,1.25 -1.91,-0.44 -2.91,3.43 -2.86,0.79 -2.2,-1.91 -1.22,-3.96 -2.22,0.21 -2.4,-2.13 -3.92,-0.45 0.39,-3.41 2,-1.04 0,0 3.43,-0.35 1.31,-1.97 3.03,-0.1 1.01,-2.49 6.89,-0.11 0.54,-1.01 -3.81,-3.96 -3.35,1.01 -3.77,-1.38 0.52,-0.99 -2.78,-2.69 0.67,-1.64 4.62,-1.02 -0.26,-3.34 -1.91,-0.72 0.98,-1.24 2.03,0.09 -1.54,-2.59 0.66,-1.39 -1.82,-1.02 0.9,-0.99 -0.46,-2.5 -1.54,-1.16 -1.05,1.01 -1.61,-2.51 -0.01,0.79 -2.79,-0.32 -3.14,-2.21 0.66,-1.92 -1.47,-2.76 1.93,-2.32 -0.56,-1.56 3.79,0.02 -0.5,-2.92 2.1,-2.85 1.76,2.65 0.96,-1.42 0,0 0.24,0.02 0,0 2.7,0.67 2.02,-1.54 1.46,2.27 4.06,-1.18 1.84,1.86 0.28,-2.72 1.52,-1.61 5.74,2.48 1.47,-1.11 7.29,0.27 2.51,-2.23 0.26,-2.62 -2.44,-2.89 1.25,-5.35 3.09,0.87 1.46,1.75 6.27,-2.32 0.67,-2 2.6,-1.09 3.15,0.92 0.12,-8.13 6.22,1.2 1.49,-0.91 -0.58,-1.9 1.22,-1.82 3.28,0.03 0.6,-3.17 3.45,-2.85 0.28,-1.52 -2.47,-1.86 -1.55,0.47 -0.9,-1.62 -1.48,0.58 -1.31,-1.44 2.47,-0.87 0.54,-2.89 1.57,-0.65 -0.42,-1.8 -6.55,0.59 1.08,-2.34 -2.88,-0.83 -0.37,-1.76 -1.3,0.74 1.38,-2.64 -1.44,-3.19 1.04,-4.34 -3.24,-3.74 0.79,-3.27 -4.27,-4.99 z m -42.93,124.78 2.22,0.59 -1,-2.23 -1.22,1.64 z"
     title="Languedoc-Roussillon"
     id="FR-K" />
  <path
     d="m 248.25497,295.86393 1.29,-0.31 0.39,1.46 3.53,-0.34 0.4,-1.41 1.69,-0.29 2.55,3.22 4.59,-4.84 0.79,2.05 2.68,-1.73 0.79,2 2.37,-1.82 1.8,1.69 1.29,-2.11 -0.52,-1.49 1.47,-0.38 2.33,1.85 5.8,-1.04 4.55,1.99 4.49,-1.11 3.48,0.52 0,0 0.29,2.3 1.93,0.55 -1.31,1.74 2.6,1.97 0.95,-1.27 1.4,2.9 0.42,-0.78 2.11,0.96 3.47,7.46 -0.65,4.13 2.14,3.05 0.41,3.75 -1.96,0.91 -0.32,2.56 -2.66,2.96 -1.32,-0.18 0,0 -0.18,0.04 0,0 -2.83,2.43 5.62,6.83 -0.08,4.03 -1.48,0.08 -1.03,2.65 2.34,2.47 -1.26,7.98 1.69,1.6 -1.98,1.3 -5.48,-2.47 0.46,4.43 -6.88,6.78 0.28,2.37 1.31,0.93 -2.19,1.67 -0.27,3.22 -3.09,1.3 1.84,3.43 -1.38,1.15 0,0 -0.35,-0.09 0,0 -1.65,0.43 0,0 -3.13,0.1 -1.57,1.28 -1.65,-1.48 -4.4,3.21 -2.14,-0.85 -4.32,-5.34 -4.18,-0.07 -0.32,-1.02 -3.74,1.58 0,0 -2.91,-5.01 1.41,-1.16 -4.3,-0.48 -2.21,-1.91 0,0 0.21,-0.03 0,0 1.21,-1.32 -2.55,-0.92 2.08,-2.92 -2.1,-1.08 0.39,-2.91 1.18,-0.06 2.46,-3.29 -2.82,-1.37 1.53,-1.83 -7.17,-2.5 1.89,-2.95 -2.1,-1.3 -1.26,0.99 -2.8,-4.71 -5.02,0.57 -1.18,-1.28 -2.35,2.83 -2.52,-2.53 0.97,-2.94 -2.24,-1.67 -2.81,0.43 -0.96,-1.29 0,0 3.51,-3.09 -0.13,-2.49 2.94,0.75 1.82,-5.42 -0.62,-2.9 2.91,0.53 2.7,-2.83 -0.92,-2.41 -1.68,-1.33 -1.08,0.83 -1.82,-1.91 0.85,-2.73 -1.02,-1.61 1.54,-0.84 -2.24,-4.48 2.41,-1.12 2.14,-3.43 4.28,0.5 1.78,-4.94 3.38,0.9 1.14,-2.52 z"
     title="Limousin"
     id="FR-L" />
  <path
     d="m 424.30497,96.883928 1.53,2.11 0.72,4.450002 3.48,-2.05 2.28,1.45 1.28,-2.73 4.3,0.72 1.13,-1.550002 2.66,1.310002 1.31,2.8 4.05,0.34 0.64,2.71 2.49,0.22 1.3,-1.24 1.12,0.86 1.12,-2.52 4.64,-1.33 5.22,3.44 2.66,-1.05 5.31,3.5 -0.7,1.21 2.54,2.33 -1.4,1.18 4.27,4.26 -0.38,1.34 1.19,0.58 0.27,2.14 1.17,-0.15 -0.5,1.96 1.12,1.46 4.02,0.7 1.1,-1.75 -0.99,-2.02 4.16,-0.64 3.95,2.04 0.72,4.86 1.98,-2.63 2.4,2.24 3.69,-0.6 1.99,0.95 1.34,-1.81 1.51,0.02 0.1,-1.78 3.31,-0.77 -0.37,1.2 2.42,-0.27 1.42,4.51 4.29,1.53 0.23,1.22 0,0 -2.42,6.09 -1.73,1.55 -3.52,-2.27 -5.24,1.58 -1.46,-0.77 0.14,-1.15 -6.98,-2.02 -1.17,-4.51 -1.28,0.76 -1.46,6.89 -1.74,-0.32 -0.49,1.77 -1.44,-0.01 0.45,2.51 3.9,1.19 0.08,0.98 1.85,-0.22 -1.83,1.16 0.04,1.77 1.54,0.28 -0.45,1.69 2,-1.1 1.12,-2.72 4.43,1.45 -0.45,0.9 2.73,2.55 -3,4.72 0.96,1.86 1.62,0.15 -3.58,6.74 -2.21,1.55 -4.16,0.2 2.86,1.66 -1.84,-0.36 1.14,1.82 -1.34,4.75 0.97,1.29 -1.34,1.57 1.7,1.19 2.62,-0.4 0.8,1.83 -5.8,10.26 0.72,2.22 -3.18,5.46 -2.35,1.35 -1.33,4.97 0.72,0.59 -1.36,1.17 0.96,2.53 -3.46,1.71 0,0 -7.86,-5.06 -1.78,-2.6 -5.19,3.73 -1.78,-3.47 -1.91,-1.17 -7.68,1.77 0,0 0,-0.32 0,0 -2.3,-1.81 -0.46,-3.2 0,0 -0.1,-0.07 0,0 -3.96,0.98 -1.54,2.91 -2.21,1.27 -0.9,-0.14 1.34,-1.86 -1.13,-0.57 -2.01,3.18 0,0 -1.57,-3.07 -2.47,1.43 -0.45,-5 -2.27,-0.64 -1.06,-2.03 -2.85,-0.54 1.77,-1.42 0.41,-4.41 2.04,-1.16 -1.76,-2.25 -1.91,-0.48 0.51,-1.63 -1.75,-1.49 -0.94,1.11 -2.67,-4.6 -1.88,-0.52 -2.18,1.55 0.63,-2.99 -2.01,-0.74 3.14,-1.99 -5.83,-5.39 -4.82,-1.17 -3.85,-4.2 -1.99,-0.03 -0.58,-2.28 -2.42,1.06 0.45,-7.93 -4.96,-3.56 1.94,-2.76 -1.04,-1.62 0.89,-2.95 0,0 0.18,-0.18 0,0 3.24,-1.34 0.96,-2.18 -1.87,-0.63 1.65,-0.59 0.09,-1.92 -1.15,-0.76 -1.8,0.89 1.62,-2.98 -2.7,-7.35 2.19,-1.53 -1.7,-1.78 4.13,-2.35 0.24,-1.25 -1.3,-1.02 1.2,-3.65 1.96,-0.69 -1,-1.55 1.59,-1.07 -0.17,-2.45 -2.16,-2.72 1.22,-2.28 0,0 0.07,-0.38 0,0 0.93,-3.180002 1.28,0.1 0.84,1.77 2.96,-0.41 1.14,1.760002 5.54,-4.770002 0,0 z"
     title="Lorraine"
     id="FR-M" />
  <path
     d="m 194.75497,475.38393 0.24,0.16 0,0 1.03,2.52 -1.73,1.24 -0.78,-1.75 0.81,-1.93 0,0 0.29,-0.22 0,0 0.14,-0.02 z m 1.22,-3.42 0.24,3.57 0,0 -0.69,-0.17 0,0 -1,-0.96 1.21,-0.49 -0.16,-2.15 0,0 0.4,0.2 z m 63.5,-95.21 3.74,-1.58 0.32,1.02 4.18,0.07 4.32,5.35 2.14,0.85 4.4,-3.21 1.65,1.48 1.58,-1.28 3.12,-0.1 0,0 1.72,3.23 -0.49,2.74 3.34,4.94 -1.74,5.36 1.22,0.05 0.49,3.32 1.39,1.21 0.53,-1.88 3.25,-1.06 1.32,-0.12 1.06,1.74 5.46,-0.59 0.65,-2.22 2.52,-1.81 -0.42,-1.94 2.1,-2.26 0.17,-3.13 5.5,-5.58 1.55,1.71 -0.06,3.28 3.6,-1.08 1.19,4.96 1.34,-0.26 0.69,1.14 -1.06,0.74 1.05,4.74 1.86,2.06 0,0 4.31,4.95 -0.79,3.27 3.24,3.74 -1.04,4.34 1.44,3.19 -1.38,2.64 1.3,-0.74 0.37,1.76 2.88,0.83 -1.08,2.34 6.55,-0.59 0.42,1.8 -1.57,0.65 -0.54,2.89 -2.47,0.87 1.31,1.44 1.48,-0.58 0.9,1.62 1.55,-0.47 2.47,1.86 -0.28,1.52 -3.45,2.85 -0.6,3.17 -3.28,-0.03 -1.22,1.82 0.58,1.9 -1.49,0.91 -6.22,-1.2 -0.12,8.13 -3.15,-0.92 -2.6,1.09 -0.67,2 -6.27,2.32 -1.46,-1.75 -3.09,-0.87 -1.25,5.35 2.44,2.89 -0.26,2.62 -2.51,2.23 -7.29,-0.27 -1.47,1.11 -5.74,-2.48 -1.52,1.61 -0.28,2.72 -1.84,-1.86 -4.06,1.18 -1.46,-2.27 -2.02,1.54 -2.7,-0.67 0,0 -0.24,-0.02 0,0 -0.96,1.42 -1.76,-2.65 -2.1,2.85 0.5,2.92 -3.79,-0.02 0.56,1.56 -1.93,2.32 1.47,2.76 -0.66,1.92 3.14,2.21 2.79,0.32 0.01,-0.79 1.61,2.51 1.05,-1.01 1.54,1.16 0.46,2.5 -0.9,0.99 1.82,1.02 -0.66,1.39 1.54,2.59 -2.03,-0.09 -0.98,1.24 1.91,0.72 0.26,3.34 -4.62,1.02 -0.67,1.64 2.78,2.69 -0.52,0.99 3.77,1.38 3.35,-1.01 3.81,3.96 -0.54,1.01 -6.89,0.11 -1.01,2.49 -3.03,0.1 -1.31,1.97 -3.43,0.35 0,0 0.24,-0.77 -2.77,-0.13 0.41,-1.5 -5.67,-0.55 -2.02,-1.64 -2.93,0.23 -0.09,2.1 -1.67,0.64 -3.35,-6.54 -5.21,-0.48 -2.54,1.08 -3.74,-4.49 -3.96,0.1 -0.98,-1.08 -1.42,0.93 -9.05,-4.09 -2.05,1.26 0.46,1.92 -1.05,1.23 0.9,0.43 -1.02,1.15 1.49,1.6 -0.1,1.99 -3.26,-0.82 -7.26,0.84 -2.59,-1.87 -2.73,2.85 -1.44,-2.38 -3.46,-1.19 -7.4,2.93 -2.27,-0.41 -0.49,-1.42 -1.81,-0.47 -1.99,-4.06 -1.14,0.62 -5.19,-3.52 0,0 -0.59,-3.83 1.92,-0.94 -0.28,-4.03 1.13,-1.8 3.35,-0.83 -0.54,-3.53 1.95,-0.83 1.19,-2.9 2.06,0.17 -0.22,-2.61 0.99,0.24 1.33,-2.95 -1.2,-1.76 3.15,-2.55 -1.38,-1.48 0.12,-4.16 -2.76,1.96 0.06,-2.97 1.97,-0.51 -1.99,-4.33 -1.13,0.27 -0.12,-2.2 -3.35,-0.82 -2.55,0.78 -0.36,-1.89 -1.34,-0.15 -0.09,-1.41 1.65,-0.67 -0.32,-3 2.29,-1.72 -1.32,-4.06 1.37,-0.1 -0.63,-2.74 0.92,-0.61 -2.21,-1.68 2.49,-2.39 3.47,0.62 2.47,-3.21 1.79,1.74 -1.15,1.43 3.32,1.89 0.71,-1.18 -0.85,-2.57 2.96,-2.32 1.23,1.66 1.46,-2.43 1.63,-0.4 2.89,1.8 0.59,-1.08 5.31,-1.13 0.78,-1.57 3.94,0.05 1.54,-1.45 2.94,3.22 3.17,-2.15 0.73,-2.63 1.72,-0.21 -0.37,-1.87 3.03,0.98 1.33,-0.65 -0.36,-2.14 -1.33,-0.52 2.21,-0.38 1.83,-4.82 -3.38,-2.06 1.12,-4.1 1,-0.17 0.87,2.25 0.44,-0.95 4.55,-0.23 -0.24,-3.53 -1.57,-1.04 -0.02,-3.55 -1.47,-2.16 1.4,0.41 3.69,-2.11 -0.4,-1.17 2.45,-2.64 -0.25,-1.8 3.13,-0.8 3.82,-3.29 -0.73,-3.25 2.81,-0.88 -0.17,-1.9 3.25,-2.08 -1.16,-1.86 1.2,-0.35 -1.17,-4.49 0,0 -0.17,-0.69 0,0 1.51,-0.9 z"
     title="Midi-Pyrénées"
     id="FR-N" />
  <path
     d="m 305.69497,2.5739281 0.53,3.46 2.41,3.63 -1.73,1.8199999 0.39,4.6 1.48,2.44 3.64,0.14 2.96,5.64 2.17,0.1 2.48,2.01 1.91,-3.91 8.24,-2.49 1.66,4.24 2.88,1.54 -0.89,2.85 2.17,8.71 3.51,2.16 2.96,-1 1.14,-1.74 1.83,0.63 -0.76,2.36 4.48,-0.57 2.16,2.56 -0.07,5.63 2.07,4.18 1.64,-2.99 4.26,-0.06 2.15,1.63 5.09,-2.08 2.15,3.12 1.69,0.48 0.86,2.95 1.23,-0.02 -0.2,-2 1.92,1.11 0.53,1.25 -2.92,2.58 0.18,3.22 -1.1,1.91 2.98,0.04 1.25,4.11 -2.91,1.36 -0.76,4.41 0,0 -2.32,0.68 -4.43,-1.56 0.07,-3.27 -3.93,2.24 -0.64,-1.82 -6.54,-2.08 -2.11,1.03 -0.18,1.55 -1.89,0.29 -2.91,-1.91 -2.2,2.36 -5.28,-1.2 -1.42,1.34 -2.14,0.1 -0.79,-1.17 -3.58,1.35 -3.25,-2.66 -3.32,-0.41 -1.8,1.13 -2.11,-0.48 -2.34,1.84 -0.26,-3.67 -4.59,2.17 1.38,-4.35 -2.12,-0.94 -0.93,-0.07 -0.15,2.96 -5.31,-2.07 0.08,-1.73 -1.05,-0.17 -0.8,1.86 -0.77,-1.75 -1.39,0.17 -2.59,3.29 -1.77,-1.43 0.49,-2.84 4.44,-2.64 -1.81,-2.32 -1.87,-0.27 -1.98,1.82 -1.09,-2.1 -0.22,1.68 -2.37,-1.02 -5.01,2.49 -0.83,-1.25 -1.84,0.58 -0.37,-3.33 -5.41,-2.31 -0.6,-0.75 1.39,-1.43 -0.75,-0.62 -1.61,1.27 -4.3,-3.19 -5.8,2 -0.97,-1.44 0,0 -3.64,-3.14 1.34,-8.96 2.01,1.63 -2.44,-3.65 -0.57,-10.23 0.17,-0.96 0.38,1.57 0.75,-1.03 0.82,-4.67 -1.35,-4.42 3.33,-0.98 3.47,-3.8299999 5.23,-1.7 -1.22,-0.23 10.54,-2.72 0.53,0.68 2.2,-2.26 -0.46,1.18 1.28,1.22 0.69,-2.4 0.34,0.77 6.16,-2.11 1.15,0.83 6.8,-2.79 0.72,2.24 z"
     title="Nord-Pas-de-Calais"
     id="FR-O" />
  <path
     d="m 119.06497,88.843928 1.98,1.33 1.46,-0.76 1.14,1.75 8.57,2.03 -0.2,1.48 0.52,-1.41 5.03,-0.71 0.58,-1.84 8.64,0.05 1.5,5.71 -1.08,-0.38 -0.73,2.66 0.02,-0.89 -1.07,0.2 -0.48,2.210002 5.93,8.96 -1.45,4.62 1.95,-1.78 1.62,1.19 1.71,-2.92 4.54,-0.48 8.72,3.08 15,1.01 4.77,2.57 1.49,-0.53 0.86,1.29 9.19,-2.8 5.33,-4.86 4.01,-1.69 -4.68,-0.2 7.24,-0.11 0,0 1.69,5.9 -1.22,1.53 1.16,1.23 -0.58,0.83 2.21,-0.87 0.87,0.74 0,1.35 -2.62,1.01 3.07,2.39 -0.39,3.58 1.99,0.81 -1.35,2.18 0.79,1.95 -2.17,1.43 3.34,2.34 -2.65,6.54 2.87,2.1 4.06,0.28 1.24,-1.17 0.37,1.32 1.08,-0.37 -0.22,1.45 1.09,0.02 -1.12,1.4 6.12,4.08 0.66,1.86 -1.91,1.93 1.73,0.73 0.08,1.62 1.86,-0.03 0,0 0.15,3.63 6.12,5.53 -1.27,2.94 1.66,2.25 -2.56,4.23 -5.99,3.14 -0.61,1.42 2.11,0.65 -0.75,1.75 1.75,2.94 -1.35,1.2 0,0 -2.48,0.37 -3.5,-4.7 -0.61,1.91 -4.29,-0.98 -1.91,-3.82 -0.42,0.72 -3.62,-1.45 -0.41,-6.42 -3.38,-3.5 -6.49,1.45 0.52,1 -3.56,2.05 -0.55,1.93 -2.45,-1.23 -2.08,1.42 0.01,-4.78 -3.99,-0.36 -1.12,-3.35 1.17,-1.09 -2.57,-2.23 -1.74,-0.04 0.32,1.75 -1.25,1.81 -2.07,-0.94 -1.33,2.39 -1.81,-1.61 -4.7,0.06 -1.71,2.24 -4.16,1.81 -0.5,-2.57 -1.05,1.06 -1.72,-0.32 0.7,1.47 -1.92,0.87 -0.78,-1.83 -1.45,0.63 -1.31,-2.75 -2.64,0.17 -1.94,-1.29 -2.01,1.75 -2.72,-1.18 0,0 -7.63,-2.23 -4.16,4.69 -2.8,0.5 -2.79,-1.76 -3.46,-9.09 0,0 2.47,0.9 0.05,-1.1 0.85,0.93 2.69,-1.26 2.99,0.66 -2.41,-1.68 1.05,-1.03 -2.54,1.28 -5.05,-5.76 -0.18,-4.7 -1.66,-0.84 3.05,-6.09 -0.91,-0.59 0.21,-5.37 2.2,0.38 -2.32,-1.12 -0.74,2.4 -0.9,-2.41 -0.62,-11.37 1.94,-0.19 -1.95,-0.82 -0.51,1.57 -3.34,-7.57 -4.26,-2.8 -1.59,-8.36 -1.65,-1.93 1.96,-2.350002 -0.33,-3.85 -1.11,-1.78 -2.99,-1.02 0.54,-3.28 z"
     title="Basse-Normandie"
     id="FR-P" />
  <path
     d="m 256.55497,67.143928 2.96,-0.37 0.15,1.97 10.78,9.83 0.92,4.61 2.15,3.37 -1.52,-0.06 -2.5,4.39 0.71,0.9 1.88,-0.9 -2.25,3.24 0.99,1.34 -0.85,2.61 0,0 -0.18,0 0,0 2.17,2.830002 -1.29,2.19 1.14,0.92 0.61,-1.42 1.28,0.5 -0.76,2.16 0,0 -0.4,0.26 0,0 -2.01,3.72 1.07,0.11 -0.76,0.78 1.64,1.74 0.47,4.74 1.31,1.09 -0.62,1.81 -1.29,-1.67 -2.02,0.49 -0.23,2.09 0,0 -3.38,9.23 -4,1.02 0,0 -0.22,0.01 0,0 -0.45,-1.02 -0.88,2.21 -1.67,-0.18 1.26,2.49 -0.34,2.4 2.02,-0.16 -1.11,0.72 0.37,1.69 0,0 -2.21,1.05 0.51,3.26 -4.08,2.35 0.43,3.35 -1.66,1.26 -4.56,0.2 -4.2,-1.97 -0.25,2.69 -2.16,-0.74 -2.23,2.07 0,0 -0.86,0 0,0 -4.67,0.61 -0.53,1.74 -2,1.12 0,0 -1.86,0.03 -0.08,-1.62 -1.73,-0.73 1.91,-1.93 -0.66,-1.86 -6.12,-4.08 1.12,-1.4 -1.09,-0.02 0.22,-1.45 -1.08,0.37 -0.37,-1.32 -1.24,1.17 -4.06,-0.28 -2.87,-2.1 2.65,-6.54 -3.34,-2.34 2.17,-1.43 -0.79,-1.95 1.35,-2.18 -1.99,-0.81 0.39,-3.58 -3.07,-2.39 2.62,-1.01 0,-1.35 -0.87,-0.74 -2.21,0.87 0.58,-0.83 -1.16,-1.23 1.22,-1.53 -1.69,-5.9 0,0 0.41,-1.13 -0.98,0.76 -6.53,-2.01 -1.98,-2.54 3.59,-8.660002 -1.21,-1.61 1.31,0.6 2.15,-3.35 5.39,-2.16 10.37,-7.04 7.72,-1.18 7.77,-3.29 2.45,0.71 2.71,-1.22 0.42,1.14 -0.27,-1.26 4.45,-2.12 7.6,-6.15 z"
     title="Haute-Normandie"
     id="FR-Q" />
  <path
     d="m 105.66497,257.03393 1.64,1.15 -0.59,2.05 3.11,1.57 0.3,3.31 -2.43,-3.85 -2.21,-0.09 -1.61,-1.93 -0.28,-2.03 2.07,-0.18 z m 49.26,-91.14 2.72,1.18 2.01,-1.75 1.94,1.29 2.64,-0.17 1.31,2.75 1.45,-0.63 0.78,1.83 1.92,-0.87 -0.7,-1.47 1.72,0.32 1.05,-1.06 0.5,2.57 4.16,-1.81 1.71,-2.24 4.7,-0.06 1.81,1.61 1.33,-2.39 2.07,0.94 1.25,-1.81 -0.32,-1.75 1.74,0.04 2.57,2.23 -1.17,1.09 1.12,3.35 3.99,0.36 -0.01,4.78 2.08,-1.42 2.45,1.23 0.55,-1.93 3.56,-2.05 -0.52,-1 6.49,-1.45 3.38,3.5 0.41,6.42 3.62,1.45 0.42,-0.72 1.91,3.82 4.29,0.98 0.61,-1.91 3.5,4.7 2.48,-0.37 0,0 4.9,3.44 -2.69,0.34 -0.4,1.83 -1.16,0.27 1.32,0.29 -0.09,1.38 -2.05,0.15 0.15,2.07 1.86,0.46 -0.98,2.7 1.26,2.84 -1.39,0.49 -0.17,2.7 -0.89,-1.45 -1.2,0.69 0.33,4.23 -3.16,3.01 0.39,1 -3.11,0.93 -1.7,2.09 0.42,1.81 0.96,-0.29 -0.94,1.3 -5.49,1.65 -0.61,1.58 -2.74,-1.5 -0.78,1.47 1.6,2.52 -0.81,0.52 -6.28,-2.14 0,0 0.05,0.52 0,0 -1.65,3.52 1.33,0.72 -0.19,1.67 -2.85,6.16 1.22,1.09 -4.36,6.11 -0.95,7.16 0,0 -1.48,-0.67 -1.1,0.91 -1.21,4.48 -2.08,-0.86 -1.79,2.83 -2.07,-0.98 1.52,-2.02 -1.72,-0.3 -0.85,0.86 -2.54,-0.7 -5.43,0.88 -0.46,1.49 -3.06,0.81 0.9,-1.71 -1.46,-0.12 -2.56,1.18 0.53,1.92 -2.29,2.16 -2.96,-0.38 -1.83,1.17 -3.02,-1.3 -2.7,2.16 -1.81,-0.28 1.35,0.76 -0.61,0.98 1.26,0.04 -0.48,0.66 2.15,0.81 -0.96,2.19 2.31,2.72 0,0 0.17,0 0,0 1.65,1.11 0,0 0.29,0 0,0 1.09,0.71 -0.83,0.77 0,0 0.04,0.25 0,0 -0.1,2.25 2.64,3.33 -0.97,0.84 1.77,1.38 -0.9,1.63 1.78,0.88 -0.54,2.78 0.97,2.59 -1.81,0.72 1.63,3.94 -1.36,3.45 0.87,0.38 0.61,-1.34 2.76,1.74 -4.49,4.09 -2.09,-0.51 -1,1.4 -4.38,-2.12 0,0 -0.18,-0.26 0,0 -0.78,1.48 -1.52,-0.56 -1.86,0.99 -1.23,-0.74 1.31,-2.91 -5.14,1.27 -0.88,1.95 -1.7,0.04 0,0 -3.56,0.1 -0.17,2.7 -4.55,-3.84 0.84,2.57 -1.99,-3.06 -5.16,-0.01 -1.94,-3.69 -5.58,-0.97 -6.83,-4.49 -1.8,-7 -3.78,-5.28 -8.06,-7.51 -0.41,-4.08 1.72,-0.15 -0.37,-1.03 3.58,-3.63 0.2,-2.45 2.1,-1.21 -5.02,-5.23 -6.12,-1.09 3.36,-2.17 -0.21,-5.83 -1.67,-0.36 -3.64,2.28 -3.16,-2.77 -2.329997,1.22 -4.7,-1.94 1.5,-1.12 0.12,-1.81 -2.23,-2.2 4.18,-3.01 0.02,-1.49 0,0 1.43,-1.77 0.9,1.27 3.499997,-0.29 0.78,-3.38 2.23,1.33 2.49,-1.11 0.89,1.4 0.26,-1.95 2.46,-0.69 0.68,-7.18 4.51,-2.7 0.76,1.38 3.94,-2.29 8.31,-0.06 1.57,-3.32 6.19,-2.43 -0.24,-1.99 3.76,0.44 1.03,1.79 4.84,1.39 3.8,-11.62 5.75,-2.37 -2.41,-12.26 0,0 -0.17,-0.16 0,0 -0.93,-3.91 2.32,-3.9 -1.49,-5.35 0.46,-5.85 z"
     title="Pays de la Loire"
     id="FR-R" />
  <path
     d="m 266.91497,48.063928 0.59,0.47 0,0 0.97,1.44 5.8,-2 4.3,3.19 1.61,-1.27 0.75,0.62 -1.39,1.43 0.6,0.75 5.41,2.31 0.37,3.33 1.84,-0.58 0.83,1.25 5.01,-2.49 2.37,1.02 0.22,-1.68 1.09,2.1 1.98,-1.82 1.87,0.27 1.81,2.32 -4.44,2.64 -0.49,2.84 1.77,1.43 2.59,-3.29 1.39,-0.17 0.77,1.75 0.8,-1.86 1.05,0.17 -0.08,1.73 5.31,2.07 0.15,-2.96 0.93,0.07 2.12,0.94 -1.38,4.35 4.59,-2.17 0.26,3.67 2.34,-1.84 2.11,0.48 1.8,-1.13 3.32,0.41 3.25,2.66 3.58,-1.35 0.79,1.17 2.14,-0.1 1.42,-1.34 5.28,1.2 2.2,-2.36 2.91,1.91 1.89,-0.29 0.18,-1.55 2.11,-1.03 6.54,2.08 0.64,1.82 3.93,-2.24 -0.07,3.27 4.43,1.56 2.32,-0.68 0,0 3.7,1.32 0,0 -0.6,2.89 1.58,0.64 -0.1,2.29 -1.96,5.67 1.82,1.47 -2.69,3.71 -2.45,1.34 -0.46,2.88 -3.08,-0.3 -0.73,1.01 2.26,3.25 -1.17,1.680002 1.22,1.3 -1.57,1.13 1.13,3.91 -1.27,0.46 -0.06,4.97 -3.21,-1.09 -1.48,-1.86 -2.83,1.69 -0.18,2.25 -3.05,-0.73 -5.5,2.72 1.36,5 -1,1.39 1.17,1 0.69,-0.63 0.67,1.91 1.42,-0.27 -0.03,1.41 -1.81,1.05 -3.44,-0.51 -0.89,1.95 1.55,2.68 -2.13,1.07 -0.07,1.47 2.72,-0.39 1.13,1.82 -3.64,3.41 0.54,1.08 -1.22,0.23 -0.14,1.56 -1.76,0.16 -1.77,3.76 0,0 -1,0.92 -0.65,-1.43 -2.6,-0.73 -0.64,-3.55 -1.61,1.27 -1,-2.56 -1.67,0.62 -0.55,-2.12 -3.49,-2.51 0.97,-2.39 -2.16,-3.54 -2.84,-0.69 -0.14,2.01 -2.39,-0.4 -0.89,1.3 -0.78,-1.3 -4.85,1.35 -1.81,-1.67 -3.09,2.26 -4.19,-3 -2.05,1.81 -1.29,-2.82 -0.84,1.56 -1.74,-0.41 0.56,-0.72 -1.81,-1.46 -1.08,0.47 0.25,-0.82 -2.7,-0.83 -0.72,0.73 -1.82,-2.42 -1.17,1.69 -2.18,0.54 -0.6,-1.78 -1.99,1 -3.72,-2.96 -3.28,2.19 -4.93,0.82 -3.3,-1.42 -2.03,0.62 -0.75,-1.23 0,0 -0.38,0.01 0,0 0.52,-1.86 -1.5,-0.48 0,0 0.23,-2.09 2.02,-0.49 1.29,1.67 0.62,-1.81 -1.31,-1.09 -0.47,-4.74 -1.64,-1.74 0.76,-0.78 -1.07,-0.11 2.01,-3.72 0,0 0.4,-0.26 0,0 0.76,-2.16 -1.28,-0.5 -0.61,1.42 -1.14,-0.92 1.29,-2.19 -2.17,-2.830002 0,0 0.18,0 0,0 0.85,-2.61 -0.99,-1.34 2.25,-3.24 -1.88,0.9 -0.71,-0.9 2.5,-4.39 1.52,0.06 -2.15,-3.37 -0.92,-4.61 -10.78,-9.83 -0.15,-1.97 -2.96,0.37 0,0 3.08,-2.85 2.93,-6.36 1.91,-0.63 0.8,1.92 2.96,0.79 1.21,-0.88 -6.2,-5.56 0.68,-5.65 2.96,0.15 z"
     title="Picardie"
     id="FR-S" />
  <path
     d="m 140.92497,316.03393 3.82,3.21 3.22,0.61 0.07,3.28 2.07,4.11 -1.85,3.58 -1.58,-4.83 -4.89,-4.34 -0.86,-5.62 z m -4.29,-12.52 1.52,1.4 -1.94,0.28 0.8,1.51 3.66,-1.56 -1.1,0.99 0.59,0.74 2.49,-0.45 4.75,2.76 -2.4,1.19 -6.33,-3.54 -2.98,0.01 -1.17,-2.49 2.11,-0.84 z m 16.37,-3.54 1.7,-0.04 0.88,-1.95 5.14,-1.27 -1.31,2.91 1.23,0.74 1.86,-0.99 1.52,0.56 0.78,-1.48 0,0 0.18,0.26 0,0 4.38,2.12 1,-1.4 2.09,0.51 4.49,-4.09 -2.76,-1.74 -0.61,1.34 -0.87,-0.38 1.36,-3.45 -1.63,-3.94 1.81,-0.72 -0.97,-2.59 0.54,-2.78 -1.78,-0.88 0.9,-1.63 -1.77,-1.38 0.97,-0.84 -2.64,-3.33 0.1,-2.25 0,0 -0.04,-0.25 0,0 0.83,-0.77 -1.09,-0.71 0,0 -0.29,0 0,0 -1.65,-1.11 0,0 -0.17,0 0,0 -2.31,-2.72 0.96,-2.19 -2.15,-0.81 0.48,-0.66 -1.26,-0.04 0.61,-0.98 -1.35,-0.76 1.81,0.28 2.7,-2.16 3.02,1.3 1.83,-1.17 2.96,0.38 2.29,-2.16 -0.53,-1.92 2.56,-1.18 1.46,0.12 -0.9,1.71 3.06,-0.81 0.46,-1.49 5.43,-0.88 2.54,0.7 0.85,-0.86 1.72,0.3 -1.52,2.02 2.07,0.98 1.79,-2.83 2.08,0.86 1.21,-4.48 1.1,-0.91 1.48,0.67 0,0 1.09,2.73 2.49,-0.36 -0.22,1.08 1.13,0.38 0.82,-0.86 0.76,1.44 -0.9,1.98 2.77,-0.75 0.96,1.76 1.44,-0.52 0.39,3.21 -0.88,0.49 1.34,3.63 1.73,-1.14 3.04,1.21 2.79,-1.78 3.84,0.1 -1.26,-2.97 2.07,-0.08 3.07,2.05 0.53,4.27 3.81,3.24 0.78,3.66 4.05,3.76 0.6,1.98 -1.46,3.9 0.75,1.7 4.31,2.05 0.23,1.85 3.03,-0.02 2.14,1.76 0.27,3.52 2.54,0.9 -0.64,1.91 0,0 -0.76,1.01 0,0 0,0 0,0 -0.86,-0.29 -1.14,2.52 -3.37,-0.89 -1.78,4.94 -4.28,-0.5 -2.14,3.43 -2.41,1.12 2.24,4.48 -1.54,0.84 1.03,1.61 -0.85,2.73 1.82,1.91 1.08,-0.83 1.68,1.33 0.91,2.41 -2.7,2.83 -2.91,-0.54 0.62,2.9 -1.82,5.42 -2.94,-0.75 0.12,2.5 -3.51,3.09 0,0 -2.69,4.53 -2.26,0.03 -0.27,4.8 -2.3,1.64 -0.72,2.23 -2.12,0.01 -2.08,2.58 -1.17,-1.02 0.61,1.33 -1.7,0.57 -1.19,3.41 0.78,4.26 -3.77,2.14 -1.68,3.22 -3.28,-1.23 -1.98,1.44 -1.13,2.22 0.96,0.7 -1.7,0.75 -0.3,2.43 -1.82,-1.35 -2.31,1.88 -1.96,-0.28 -2.82,-1.2 -0.89,-1.63 -1.41,0.28 -0.99,-1.67 -1.05,-0.2 -0.85,1.55 -0.74,-2.25 0,0 -0.05,-0.26 0,0 -0.96,-5.41 -5.81,-1.06 -0.93,-2.95 -0.34,1.52 -4.97,-0.42 0,0 -1.65,-5.77 -2.68,-3.92 -6.24,-4.03 -2.22,-3.68 -7.56,-4.38 -1.13,0.24 0.48,1.21 -0.61,-1.2 -0.06,-5.54 4.3,-1 -1.88,-2.99 2.64,-0.34 1.66,-2.9 -1.05,-2.23 0.91,-0.25 -0.22,-1.77 -1.5,-1.42 2.81,0.02 -2.03,-5.5 -1.73,-0.69 0.59,-1.22 -1.87,-0.65 0.98,-1.15 -2.36,0.71 -1.29,-1.1 1.55,-2.87 3.74,-2.89 -0.96,-2.54 0.74,-0.87 z"
     title="Poitou-Charentes"
     id="FR-T" />
  <path
     d="m 406.53497,411.59393 0.41,0.46 0,0 2.91,1.77 0,0 0.03,0.34 0,0 -1.98,0.93 -1.51,3.92 -4.05,-0.68 -0.65,-2.61 1.51,-2.73 0,0 0.36,-0.64 0,0 0.32,-0.17 0,0 0.69,-0.16 0,0 1.28,-1.03 0,0 0.17,0.44 0,0 0.43,0.05 0,0 0.08,0.11 z m 14.56,69.2 1.41,-2.37 -1.23,-1.43 1.15,-0.76 -2.69,-3.76 -3.35,1.86 -7.41,0.22 -3.32,-5.71 -2.07,-0.39 -1.09,1.55 0.5,-1.4 -1,0.59 -0.86,-2.03 0.69,2.52 -2.05,-1.09 1.37,1.6 -2.3,0.9 1.91,-0.13 -0.67,0.68 1.78,1.14 1.6,-1.39 -3.34,3.01 -10.56,-1.85 -1,-1.16 1.35,-2.36 -2.38,-1.71 -12.58,-0.46 0,0 0.44,-2.25 3.4,-1.65 -0.41,-1.55 0.83,1.11 5.32,-3.08 0.43,-1.32 -1.9,-0.66 2.47,-4.19 2.27,-0.57 3.65,1.24 -0.63,-2.29 2.27,-6.83 -1.07,-1.25 7.16,-5.54 -0.01,-1.44 1.27,-0.06 -2.41,-4.41 -2.74,-0.91 0.04,-6.1 -0.59,-1.55 -1.42,-0.07 -0.98,-3.18 0,0 0.05,-3.44 5.73,0.97 1.26,4.96 10,-4.63 2.02,1.74 1.76,-1.85 0,0 0.66,-0.31 0,0 -0.61,4.8 3.22,1.2 0.81,-1.16 2.03,1.4 2.37,-0.42 1.23,0.81 -0.08,2.6 2.18,0.2 0.81,1.87 3.59,-0.77 2.5,-3.39 1.57,1.36 -0.35,1 1.96,0.24 0.17,-0.99 -1.64,-0.46 1.79,-1.42 0.01,-4.09 -1.64,0 -0.44,-1.95 -1.19,-0.32 0.88,-1.58 -3.38,0.19 -1.1,-1.19 -1.17,0.76 -2.61,-2.15 -0.47,-2.91 2.4,0.34 0.87,-1.03 -1.39,-0.61 -0.27,-2.98 6.48,1.61 0.6,-1.66 1.47,-0.13 -2.78,-2.41 2.11,-3.94 -0.2,-2.32 3.57,0.74 0.84,-1.34 1.67,0.5 1.7,-2.15 -1.31,-0.93 1.17,-3.09 2.32,0.76 2.84,-0.82 1.21,-1.23 -1.28,-1.36 2.83,-1.8 1.61,1.14 3.22,-2.82 4.71,0.72 1.83,-1.28 2.67,1.11 0.1,-4.94 -1.47,-0.85 0.05,-2.63 -4.96,-1.02 1.71,-6.12 2.01,0.73 1.63,-0.89 1.31,3.11 3.58,1.07 1.48,-0.18 -0.26,-2.22 1.25,-0.96 1.3,0.56 1.51,-1.41 2.19,0.87 0,0 1.76,5.3 2.94,0.33 0.28,6.37 4.67,3.22 1.94,0.37 1.05,-1.06 3.6,2.26 -0.94,2 3.16,6.16 -4.73,0.35 0.22,3.35 -4.66,5.23 0.94,2.8 2.92,2.92 -2.31,0.48 -0.22,3.42 4.45,4.76 0.5,2.56 7.49,1.99 3.81,3.49 2.64,-0.31 0.6,1.78 2.79,0.18 0.25,-1.05 7.8,-1.11 0.76,-1.57 1.96,0.12 -0.73,2.51 2,2.72 -0.38,2.4 -1.77,0.79 -0.44,3.13 -3.54,1.86 -0.36,2.63 -2.54,1.34 1.44,5.18 -5.16,3.65 -2.79,0.37 -0.24,2.08 -0.74,-1.74 -0.45,1.21 -2.58,-0.22 -1.38,2.2 -2.16,-0.14 -1.46,3.78 0.97,1.99 -1,0.58 -0.95,-1.66 -2.48,2.04 -0.93,-0.91 -2.21,0.51 -1.07,1.6 0.82,0.97 -2.71,3.88 -4.23,1.15 -1.83,-0.81 -1.19,4.26 -5.88,4.3 5.09,0.32 -1.33,1.35 0.66,2.46 -1.63,0.74 0.21,1.08 -1.08,0.54 -2.47,-1.77 -2.69,2.17 -4.65,0.37 -0.85,3.29 -3.73,-1.97 -3.62,0.35 -1.52,2.81 0.21,2.18 -2.49,-0.12 1.42,-0.87 -0.21,-1.98 -4.28,0.06 -0.82,-1.57 -3.06,0.21 -0.2,-1.27 -1.66,1.26 2.76,1.95 -2.35,-0.62 -1.32,1.83 -1.29,-0.18 -1.47,-1.07 0.63,-2.63 -1.73,-0.05 0.23,-1.29 -3.2,-0.27 -0.38,-2.05 -2.68,-0.38 -0.74,1.51 -2.84,-3.09 -1.52,1 -6.59,-1.02 z"
     title="Provence-Alpes-Côte d'Azur"
     id="FR-U" />
  <path
     d="m 361.22497,302.40393 -0.36,3.68 3.42,0.7 0.69,2 4.71,-1.76 3.13,1.49 1.22,-1.23 0.75,1 1.18,-0.59 -0.19,1.73 1.06,0.14 4.04,-1.77 1.37,-6.58 2.2,-0.08 1.88,1.77 2.67,-1.57 2.07,1.7 0.79,-2.13 1.77,-0.31 1.28,1.65 -1.29,1.18 2.35,1.53 -0.69,2.31 1.62,1.34 0.89,-0.25 6.69,-20.51 0.4,1.06 1.39,-0.84 3.01,1.85 4.56,-1.2 0.05,-0.91 1.59,0.81 1.22,2.86 3.26,0.7 0,0 -0.64,1.99 3.23,1.85 -0.66,0.72 1.76,3.58 0.85,-2.24 0.53,1.95 1.59,-0.01 -0.06,3.07 2.71,-0.25 4.32,-4.56 0.15,1.23 2.79,0.89 0.48,2.9 5.99,-0.23 8.11,-9.06 0,0 4.37,2.95 -2.81,4.91 0.93,2.04 -5.99,2.06 -0.64,1.2 1.25,0.9 -1.54,3.17 3.92,-1.4 3.17,0.72 6.93,-5.1 0.59,-1.85 -2.03,0.28 -0.53,-3.12 -1.14,-0.5 1.33,-2.89 11.07,-5.82 6.77,0.14 5.73,1.65 -2.05,4.3 3.9,4.46 -2.52,4.58 -0.29,3.95 4.21,0.78 -0.95,4.55 2.45,-0.97 4.26,6.58 0.27,1.85 -1.98,3.06 -3.46,1.86 -3.85,0.23 -0.55,6.61 4.49,4.38 3.51,0.7 -0.95,3.07 0.96,4.9 2.26,0.61 -0.22,1.32 2.1,0.15 0.61,2.15 3.02,1.61 -3.2,4.62 1.03,4.21 -2.71,2.6 -2.84,-0.49 -2.33,2.97 -2.18,0.08 -0.01,1.86 -1.83,0.56 -3.37,-1.9 -5.67,2.91 0,0 -2.19,-0.87 -1.51,1.41 -1.3,-0.56 -1.25,0.96 0.26,2.22 -1.48,0.18 -3.58,-1.07 -1.31,-3.11 -1.63,0.89 -2.01,-0.73 -1.71,6.12 4.96,1.02 -0.05,2.63 1.47,0.85 -0.1,4.94 -2.67,-1.11 -1.83,1.28 -4.71,-0.72 -3.22,2.82 -1.61,-1.14 -2.83,1.8 1.28,1.36 -1.21,1.23 -2.84,0.82 -2.32,-0.76 -1.17,3.09 1.31,0.93 -1.7,2.15 -1.67,-0.5 -0.84,1.34 -3.57,-0.74 0.2,2.32 -2.11,3.94 2.78,2.41 -1.47,0.13 -0.6,1.66 -6.48,-1.61 0.27,2.98 1.39,0.61 -0.87,1.03 -2.4,-0.34 0.47,2.91 2.61,2.15 1.17,-0.76 1.1,1.19 3.38,-0.19 -0.88,1.58 1.19,0.32 0.44,1.95 1.64,0 -0.01,4.09 -1.79,1.42 1.64,0.46 -0.17,0.99 -1.96,-0.24 0.35,-1 -1.57,-1.36 -2.5,3.39 -3.59,0.77 -0.81,-1.87 -2.18,-0.2 0.08,-2.6 -1.23,-0.81 -2.37,0.42 -2.03,-1.4 -0.81,1.16 -3.22,-1.2 0.61,-4.8 0,0 -0.66,0.31 0,0 -1.76,1.85 -2.02,-1.74 -10,4.63 -1.26,-4.96 -5.73,-0.97 -0.05,3.44 0,0 -5.98,-4.23 -2.16,0.31 -0.63,3.19 -1.76,-0.42 -0.15,-3.24 -2.73,0.47 -2.87,4.24 -5.29,-4.14 -3.4,1.02 -0.32,-4.18 1.18,-0.81 -3.35,-3.87 -1.48,-5.72 -2.06,-1.37 -1.73,-8.71 0,0 2.58,-1.42 1.07,-3.4 1.62,0.89 -0.24,-1.24 0.73,0.76 1.17,-0.8 0.27,-2.26 5.06,-0.05 2.83,-5.27 3.69,-0.58 -0.72,-2.71 3.46,-1.01 -1.37,-2.34 1.02,-1.75 1.14,0.08 0,0 0,-0.53 0,0 -1.04,-1.75 2.03,0.44 0.53,1.55 0.9,-0.53 -0.41,-2.45 1.79,-3.65 -2.27,-3.06 -2,1.09 -1.6,-1.09 0.9,-1.58 -1.63,-0.96 1.49,-1.09 -1.36,-1.88 -2.59,0.6 -1.62,-1.83 -2.27,-0.21 -1.39,0.51 0.37,1.13 -3.01,0.39 -0.42,1.32 -2.09,-0.78 -0.1,1.25 -1.36,-2.58 -1.56,-0.25 -1.8,2.47 -0.63,-3.59 3.08,-2.4 0.89,-3.53 -2.12,-4.87 -4.57,-3.16 -1.95,-3.53 0.15,-1.99 -3.81,-3.93 1.39,-1.33 -0.29,-3.36 1.63,-0.95 -2.56,-2.62 0.32,-2.34 3.59,-0.22 1.8,-1.54 -1.07,-3.23 0.67,-2.1 -1.18,-1.39 0.65,-3.05 -1.69,-4.56 4.82,-2.08 0,0 0.36,-0.05 0,0 0.32,-0.03 z m 42.64,109.76 0,0 -0.32,0.17 0,0 -0.36,0.64 0,0 -1.51,2.73 0.65,2.61 4.05,0.68 1.51,-3.92 1.98,-0.93 0,0 -0.03,-0.34 0,0 -2.91,-1.77 0,0 -0.5,-0.58 0,0 -0.43,-0.05 0,0 -0.17,-0.44 0,0 -1.28,1.03 -0.68,0.17 z"
     title="Rhône-Alpes"
     id="FR-V" />
</svg>
