<?xml version="1.0" encoding="UTF-8" standalone="no"?>
<!-- Created for MapSVG plugin: http://mapsvg.com -->
<svg
   xmlns:mapsvg="http://mapsvg.com"
   xmlns:dc="http://purl.org/dc/elements/1.1/"
   xmlns:rdf="http://www.w3.org/1999/02/22-rdf-syntax-ns#"
   xmlns:svg="http://www.w3.org/2000/svg"
   xmlns="http://www.w3.org/2000/svg"
   mapsvg:geoViewBox="40.010579 43.584829 46.721888 41.064411"
   width="792.50702"
   height="401.40411">
 
  <path
     d="m 32.241216,1.8516165 1.25,1.14 1.6,-0.26 0.82,0.35 2.6,2.34 2.4,-0.45 0.98,0.31 1.28,0.75 0.82,0.16 1.23,-0.01 0.74,0.09 1.91,0.32 1.11,-0.04 0.84,-0.54 0.85,-0.7 0.57,-0.33 2.28,1.46 2.38,0.31 1.14,0.71 1,1.42 1.21,0.52 1.27,0.45 2.09,0.3799995 2.89,1.04 0.94,0.08 1.8,-0.99 2.93,-3.5299995 0.95,-0.63 1.05,-0.21 0.77,-0.28 0.81,-0.48 1.18,-0.91 1.25,0.02 0.71,0.17 1.01,0.91 0.64,1.03 0.61,1.25 0.67,0.57 1.07,0.43 0.98,0.23 2.03,0.09 1.39,0.65 1.77,0.9699995 1.18,0.84 1.07,1.07 1.43,0.78 2.41,1.07 1.42,0.78 1.55,1.14 4.160004,-0.07 1.42,0.13 1.53,0.94 0.61,0.61 0.15,0.82 -0.42,1.52 0.07,0.48 0.51,0.63 1.06,0.38 1.08,0.68 0.88,0.84 1.21,2.75 1.57,0.55 1.85,-0.15 1.06,-0.36 0.67,-0.88 0.49,-0.38 0.73,-0.12 0.87,0.34 1.27,1.05 1.33,0.86 1.35,0.65 0.76,1.02 0.62,1.08 0.12,1.98 0.27,0.25 1.87,1.11 3.39,0.81 1.33,-0.06 0.59,-0.52 0.37,-0.91 0.54,-0.75 0.67,-0.62 0.74,-0.06 1.56,0.12 1.49,0.49 1.46,0.75 1.75,0.52 2.63,1.01 2.12,0.68 1.94,1 2.03,1.49 3.68,0.71 0.93,0.42 1.1,1 1.25,1.74 1.45,-0.08 0.89,0.06 -0.03,0.22 0.26,-0.51 1.04,-0.61 0.95,-0.91 1.3,-2.1 0.83,-0.54 0.52,0.14 0.68,0.36 0.44,0 1.23,-0.55 1.02,-0.13 0.74,0.21 1.47,1.35 0.31,7.04 0.31,0.61 0.59,0.32 0.85,0.19 2.79,0.45 0.79,-0.05 1.26,0.53 0.6,0.66 0.41,0.66 0.83,0.87 1.12,0.84 2.58,1.28 2.32,1.51 0.64,0.79 0.42,1.15 2.24,0.85 1.09,1.32 1.96,0.34 2.81,1.42 0.91,0.25 1.19,-0.16 1.09,-0.91 0.89,-0.09 0.51,0.19 3.09,1.65 0.46,0.33 0.92,0.22 0.9,0.04 0.98,-0.52 0.8,-0.91 0.6,-1.21 0.43,-0.25 0.57,0.03 1.42,0.93 1.76,1.83 2.22,0.64 1.42,0.13 2.48,1.15 0.63,-0.01 1.25,-0.28 2.55,-0.85 1.3,-0.79 0.55,-1.15 -0.69,-1.52 -0.14,-0.78 0.24,-0.8 0.39,-0.59 0.67,-0.2 0.74,0.14 1.46,1.5 3.12,1.37 2.37,0.22 0.66,0.27 0.46,0.53 0.91,1.53 0.59,0.45 0.92,-0.08 1.52,-0.76 2.46,-0.14 1.99,0.21 1.47,1.32 1.01,1.52 1.13,0.35 1.11,0.1 2.76,-1.67 2.7,-0.15 1.06,-0.35 2.82,-2.13 1.02,-0.07 1.14,0.37 0,0 -0.34,0.77 -0.29,1.16 -0.98,2 -0.26,1.01 -1.01,2.15 -0.13,0.62 -0.01,4.03 1.11,2.26 0.1,0.96 -0.47,1.16 -0.28,1.68 -1,2.07 -0.2,0.89 -1.91,3.93 -0.25,0.39 -1.66,1.71 -0.94,0.79 -1.13,0.65 -0.52,0.48 -0.33,0.48 -0.54,1.13 -0.17,0.61 -0.14,1.2 -0.46,0.95 -0.24,0.28 -0.41,0.18 -1.2,0.17 -0.95,0.34 -0.85,0.1 -2.22,0.05 -1.53,0.5 -1.96,0.17 -3.29,1.58 -1.76,0.31 -1.05,0.39 -1.8,0.14 -0.56,0.14 -2.45,1.14 -0.35,0.32 -0.21,0.43 0.05,0.55 0.4,1.060004 0.17,1.31 0.6,1.03 0.22,0.17 0.42,0.1 1.86,0.04 0.46,0.27 0.16,0.75 -0.1,0.63 -0.4,0.91 -0.14,0.65 0,3.78 0.28,0.68 0.41,0.41 0.59,0.29 0.4,0.48 0.15,0.46 0.08,1.8 0.17,0.57 0.87,0.9 0.16,0.51 -0.07,0.68 -0.68,1.47 -0.66,0.9 -1.03,0.39 -1.64,0.81 -0.7,0.74 -0.41,0.75 -0.66,0.84 -0.16,0.45 0.17,0.48 1.44,1.44 0,0.65 0.56,1.6 0.12,2.88 0.09,0.48 0.36,0.74 0.08,0.48 0.04,6.92 0.1,1.16 0.39,0.89 0.26,1.02 0.4,0.68 2.36,2.42 0.52,0.94 0.66,0.86 0.3,0.62 0.1,0.73 -0.02,2.54 -0.08,0.56 -0.39,0.96 -0.26,1.62 -0.37,0.91 -0.26,1.01 -0.6,0.67 -1.12,0.58 -2,0.68 -1.11,1.36 -0.89,1.83 -1.56,1.81 -0.57,1.02 -2.43,2.5 -0.85,1.37 -1.74,1.72 -0.9,0.48 -1.02,0.77 -0.99,0.54 -1.75,1.47 -1.01,0.54 -1.04,0.8 -7.51,3.66 -1.86,0.29 -0.87,0.35 -0.9,0.2 -1.42,0.63 -0.44,0.32 -0.5,0.55 -0.8,1.3 -2.25,2.3 -0.33,0.44 -0.33,0.67 -0.75,0.86 -2.9,1.47 -3.07,1.43 -2.46,1.33 0,0 -0.29,-1.1 -0.13,-1.33 -0.3,-1.46 -0.26,-1.68 -0.3,-2.08 -0.45,-4.03 -0.07,-1.29 -0.23,-1.46 -0.16,-2.13 -0.13,-1.06 -0.99,-6.29 -0.19,-0.98 -0.3,-1.15 -0.2,-0.49 -0.26,-1.46 -0.16,-0.76 -0.13,-0.85 -0.43,-0.97 -0.3,-1.02 -0.68,-2.44 -0.27,-2 -2.88,-8.62 -0.79,-2.31 -0.92,-1.86 -0.26,-0.58 -0.2,-0.62 -0.39,-0.76 -0.92,-1.56 -0.95,-1.06 -0.46,-0.05 -1.21,0.27 -0.1,0.04 -0.29,-0.71 -0.4,-0.31 -0.39,-0.67 -0.75,-0.93 -1.41,-0.85 -1.81,-0.58 -0.88,0.05 -0.53,0 -0.72,-0.22 -0.52,-0.14 -0.59,-0.13 -0.4,-0.27 -0.95,-0.4 -0.49,-0.13 -0.52,-0.14 -0.53,-0.04 -0.33,0.13 -0.32,0 -0.79,-0.13 -0.52,-0.22 -0.73,-0.54 -0.59,-0.53 -1.05,-0.8 -0.91,-0.22 -0.66,-0.27 -0.82,-0.27 -0.59,-0.13 -1.7,-0.45 -0.69,-0.22 -0.69,-0.18 -0.62,-0.4 -1.25,-0.35 -1.74,-0.09 -1.14,0.35 -0.3,0.14 -0.56,0.44 -0.62,0.54 -0.59,0.31 -0.56,0 -0.46,-0.12 -0.52,-0.11 -0.79,-0.26 -0.95,-0.14 -0.36,-0.08 -0.52,-0.54 -0.1,-0.22 -0.36,-0.94 -0.07,-0.71 -0.19,-0.27 -0.3,-0.17 -0.43,-0.58 -0.36,-0.45 -0.75,-0.53 -0.16,-0.27 -0.07,-0.53 -0.79,-0.98 -0.69,-0.5 -0.29,-0.53 -0.43,-1.34 -0.06,-1.07 -0.2,-1.24 -0.29,-1.07 -0.23,-1.56 -0.23,-1.92 -0.72,-4.06 -0.37,-1.83 -0.42,-2.01 -0.43,-1.11 -0.52,-1.16 -0.23,-0.89 -0.23,-0.5 -0.43,-0.890004 -0.23,-0.4 -0.36,-0.54 -0.36,-0.58 -0.23,-0.8 -0.36,-0.58 -0.85,-0.81 -0.56,-0.53 -1.15,-0.45 -0.91,0.05 -0.2,0.35 -0.75,0.27 -1.48,-0.22 -0.95,0.04 -0.66,0.72 -0.23,0.22 -0.46,0.49 -0.29,0.32 -0.49,0.49 -0.66,0.18 -0.56,-0.23 -0.22,-0.18 -0.2,-0.22 -0.36,-1.16 -0.59,-0.63 -0.89,-0.98 -0.29,-0.36 -0.92,-0.44 -0.13,-0.18 -0.33,-0.9 -0.29,-0.76 -0.17,-0.35 -1.08,-1.39 -0.49,-0.45 -1.12,-0.66 -0.39,-0.76 -0.52,-0.23 -0.27,-0.71 -0.26,-0.45 -0.39,-0.63 -0.63,-1.07 -0.72,-0.89 -0.36,-0.41 -1.41,-1.2 -0.69,-0.23 -1.670004,-0.09 -1.15,-0.58 -1.57,-0.36 -1.44,-0.04 -0.33,-0.18 -0.43,0 -0.45,0.13 -0.56,0.32 -0.33,0 -0.39,-0.14 -0.23,-0.22 -0.89,-0.22 -2.95,-0.41 -2.23,0.05 -0.65,0.22 -0.89,0.09 -0.39,0 -1.38,-0.18 -0.56,-0.13 -0.46,0 -0.36,0.18 -0.72,-0.05 -0.78,-0.13 -1.74,-0.76 -1.22,-0.99 -1.14,-0.26 -0.43,-0.18 -0.36,0 -1.25,0.62 -2.39,0.67 -1.44,0.32 -1.31,0.09 -0.76,-0.05 -0.36,-0.13 -0.49,-0.32 -1.38,-1.65 -0.59,-1.16 -0.49,-0.63 -0.88,-1.16 -0.23,-0.54 -0.43,-0.67 -0.33,-0.27 -0.75,-0.49 -0.39,-0.41 -0.37,-0.4 -0.52,-0.36 -0.75,-0.31 -0.53,-0.05 -0.59,0 -0.46,0.05 -0.26,0.22 -0.52,0 -0.89,-0.04 -0.39,-0.18 -0.33,0 -0.33,0.09 -0.33,0.27 -0.26,0.18 -0.26,0.13 -0.49,-0.54 -0.2,-0.49 -0.43,-0.36 -0.79,-0.45 -0.32,-0.18 -0.3,-0.13 -0.45,0 -0.27,0.13 -0.85,-0.35 -0.36,-0.27 -0.52,-0.58 -0.43,-0.23 -0.26,-0.04 -0.46,-0.18 -0.63,-0.54 -0.22,-0.36 -0.4,-0.27 -1.28,-0.67 -1.05,-0.09 -1.44,0.36 -1.08,0.63 -0.43,0.36 -0.42,0.4 -0.59,0.81 -0.33,0.4 -0.59,0.54 0.06,0.4 0.04,0.27 -0.17,0.31 -0.13,0.14 -0.39,-0.09 -0.66,-0.54 -0.46,-0.72 -0.55,-0.36 -0.63,-0.58 -0.45,-0.4 -0.89,-1.3 -0.39,-0.31 -0.79,0 -0.36,-0.18 -0.76,-0.81 -0.39,-0.45 -0.26,-0.22 -0.76,-0.72 -0.16,-0.36 -0.43,-2.24 -0.39,-5.94 -0.46,-3.97 -0.66,-3.14 -0.52,-1.97 -0.49,-1.48 -0.49,-1.04 -0.46,-0.67 -0.33,-0.31 -0.75,-0.45 -1.02,-0.41 -0.49,-0.09 -0.26,-0.04 -0.3,-0.23 -0.29,-0.36 -0.63,-0.31 -0.52,-0.27 -1.94,-0.31 -0.65,-0.27 -1.51,-0.36 -1.15,-0.54 -1.08,-0.72 -2.36,-1.93 -0.72,-0.36 -1.18,0.04 -0.13,-0.13 -0.03,-0.18 -1.54,-1.04 -0.79,-0.49 -0.17,-0.09 -1.5700001,-1.03 -0.82,-0.23 -1.47,0 -1.48,-0.09 -1.93,-0.45 -1.09,-0.31 -0.64999997,-0.23 -0.64,0.05 -0.1,-2.24 0.57,-2.59 -0.15,-1.26 0.26,-0.88 0.56999997,-0.77 2.03,-3.86 0.33,-1.17 0.52,-2.91 0.71,-0.82 1.34,-1.78 0.12,-0.94 0.38,-0.85 0.78,-0.67 2.5000001,-2.5999995 0.4,-0.95 -0.04,-0.71 -0.6200001,-1.68 0.03,-1.2 0.4000001,-1.04 0.58,-0.71 0.57,-0.13 2.12,0.48 1.18,-0.19 1.47,-0.57 1.72,-0.8 1.7,-0.39 0.78,0.01 1.16,0.44 2.31,-0.04 0.86,-0.33 0.86,-0.69 1.13,-0.41 1.45,-0.12 1.72,0.27 z"
     title="Abkhazia"
     id="GE-AB" />
  <path
     d="m 207.90122,269.58162 0.31,-0.21 0.88,0.07 0.63,0.09 0.91,0.38 0.49,0.1 6.16,0.05 0.66,0.13 0.92,0.39 0.5,0.09 5.14,0.03 1.04,0.15 2.6,1.24 0.57,0.82 0.07,0.73 -0.07,3.03 0.09,0.44 0.28,0.35 0.45,0.12 0.8,0.03 3.21,-0.06 0.92,0.2 0.5,0.34 0.35,0.38 0.72,1.19 0.44,0.54 0.5,0.32 1.2,0.35 0.59,0.28 1.96,0.32 0.82,0.44 0.29,0.25 0.17,0.54 0.09,1.23 0.35,0.47 0.41,0.07 0.52,-0.16 3.16,-1.58 0.99,-0.22 1.2,-0.45 0.5,-0.06 4.1,0.03 0.83,0.03 0.48,0.14 2.52,1.19 0.59,0.6 0.64,1.2 0.54,1.52 1.39,-0.41 0.9,-0.39 2.26,-0.24 0.76,-0.32 0.85,-0.2 6.04,0.1 2.84,-2.72 2.3,-1.17 1.74,-1.46 0.44,-0.15 0.47,-0.05 2.61,0.01 0.79,0.09 0.42,0.2 1.73,1.65 0.47,0.62 1.46,3.01 0.48,0.49 0.42,0.16 0.47,0.05 4.09,0.03 0,0 0.28,1.16 1.63,3.21 0.12,0.45 0.03,0.65 0.02,3.42 -0.11,0.81 -0.39,0.64 -1.7,1.68 -0.33,0.68 -0.05,1.5 0.14,0.58 0.41,0.85 0.18,0.83 1.38,2.77 1.51,1.73 0.47,0.85 0.42,0.35 1.92,0.91 0.85,0.75 1.24,2.39 2.22,2.21 0.38,0.47 0.24,0.56 0.19,1.45 0.35,0.72 0.48,1.31 0.82,2.69 0,0 -0.61,0.35 -0.5,0.65 -0.22,0.69 0.08,1.79 -0.14,0.94 -1.46,2.99 0.36,0.5 0.15,1.76 -0.79,0.33 -0.75,0.68 -0.89,1.73 -1.54,-0.13 -0.5,0.43 -0.14,0.83 -0.47,0.46 -0.86,0.3 -0.36,0.36 -0.71,1.65 1.27,2.15 0.29,1.25 -0.03,0.58 -0.32,0.5 -0.79,0.04 -1.08,-0.89 -0.93,0.04 -2.98,0.91 -2.87,-0.16 -0.9,-0.39 -1.15,-1.14 -1.77,-1.1 -0.83,-1.47 -2.62,0.05 -1.68,0.27 -1.05,-0.61 -1.19,-0.71 -1.36,0.12 -0.79,0.18 -1.04,-0.42 -0.87,-1.07 -0.87,-0.53 -0.86,-0.28 -1.7,-1.32 -0.83,-0.17 -2.08,0.34 -1.69,-0.64 -4.77,0.22 -0.65,0.33 -0.66,-1.93 -0.36,-0.36 -0.61,-0.21 -0.73,-0.78 -1.47,-0.06 -2.29,0.88 -0.76,0.01 -1,0.15 -0.9,0.3 -1.07,0.08 -0.23,-1.11 -0.79,-0.14 -1.14,0.7 -1.77,-0.38 -0.96,0.37 -3,2.18 -0.64,0.15 -0.8,-0.24 -2.71,-1.48 -0.97,-0.13 -1.58,0.02 -0.5,-0.07 -0.37,-0.64 -0.04,-0.86 -1.42,-1.43 -2.58,0.11 -0.92,1.26 -2.89,2.01 -0.57,0.23 -1.25,0.3 -0.49,1.37 -0.82,0.73 -0.06,1.22 -1.23,1.44 -0.81,1.42 -3.15,1.01 -0.24,0.83 -1.01,1.44 -1.61,0.89 -0.54,-0.02 -0.95,-1.25 -0.48,-0.96 -1.3,-0.59 -1.15,-0.31 -0.3,-1.11 -0.76,-0.42 -1.59,-0.7 -1.63,-0.8 -3.01,0.11 -1.52,-0.33 -0.25,-0.5 0.27,-0.76 0.57,-0.44 0.1,-0.61 -0.33,-0.71 -1.16,-0.53 -3.89,1.71 -1.43,0.35 -1.04,0.16 -1.05,-0.45 -2.97,-1.97 -1.53,-1.41 -2.97,-1.1 -0.48,-0.79 -0.9,-0.34 -1.58,-0.12 -1.12,-0.52 0.1,-1.17 0.13,-0.22 0.23,-0.26 0.06,-0.57 0.2,-0.18 0.26,-0.04 0.23,-0.17 0.4,-0.35 0.23,-1.01 0.16,-1.35 0.1,-1.83 -0.03,-1.53 0.32,-1.84 0.59,-1.74 0.63,-0.88 0.42,-0.39 0.2,-0.35 0.29,-0.61 0.56,-0.74 0.49,-0.4 0.66,-0.87 0.23,-0.44 1.02,-1.27 1.14,-1.09 1.08,-0.96 0.5,-0.31 0.19,-0.08 0.43,0 0.39,0.17 0,0.44 0.13,0.39 0.27,0.66 0.68,-0.13 0.43,0.13 -0.06,-0.31 0.06,-0.3 0.3,-0.27 0.19,0.35 0.53,0.05 0.52,-0.35 0.17,-0.13 0.36,-0.48 0.29,-0.31 0.53,-0.88 0.65,-0.69 0.72,-1.05 0.69,-1.23 0.49,-0.87 0.27,-0.48 0.16,-0.57 0.23,-0.18 0.39,-0.04 0.26,-0.57 0.46,-0.66 0.43,-1.18 0.43,-1 1.21,-3.37 0.82,-2.98 0.46,-0.26 0.23,-0.27 0.32,-0.79 0.53,-0.74 0.75,-2.01 0.14,-0.66 0.81,-2.24 0.23,-0.96 0.56,-3.86 0.13,-2.15 0.17,-2.45 -0.1,-0.92 -0.63,-2.72 -0.03,-0.84 -0.13,-0.65 z"
     title="Ajaria"
     id="GE-AJ" />
  <path
     d="m 206.09122,233.21162 0.59,-0.37 0.42,-0.12 1.35,-0.2 0.9,-0.35 0.63,-0.09 8.01,0.07 0.61,-0.07 1.41,-0.42 2.21,-0.25 0.91,-0.35 1.77,-0.31 1.85,-0.85 0.66,-0.2 5.67,0.01 0.67,-0.12 0.76,-0.33 2.42,-0.41 1.45,0.79 1.68,0.25 0.92,0.38 1.63,0.26 0.89,0.38 1.07,0.28 0.82,0.65 2.88,2.9 0.92,0.6 1.63,0.23 0.76,0.35 0.47,0.09 5.26,0.06 1.11,0.13 0.9,0.42 0.97,0.22 1.09,0.6 0.3,0.42 0.35,0.95 0,0 -0.98,0.53 -0.74,0.54 -0.91,0.97 -0.17,0.28 -0.11,0.44 -0.06,1.48 0.16,0.47 1.26,2.5 0.58,0.58 1.12,0.56 0.45,0.13 3.21,0.06 0.81,0.13 1.39,0.71 1.11,0.84 0.61,0.2 0.49,0.05 0.64,0 0.7,-0.22 0.58,-0.86 0.38,-0.89 0.47,-0.78 0.17,-0.19 0.42,-0.17 0.98,-0.05 2.95,0.08 0.49,0.11 0.89,0.38 1.04,0.19 0.67,0.23 1.74,3.5 0.24,1.59 0.39,0.89 0.28,1.14 0.66,1.39 0.63,0.97 0.69,0.2 1.96,0 0.78,0.09 2.81,1.34 1.53,0.84 2.59,2.45 0.43,0.21 0.87,0.19 0.91,0.38 1.26,0.36 0.62,0.48 1.37,1.34 0.67,0.4 0.94,0.11 5.69,-0.04 0.84,0.06 0.62,0.21 0.48,0.47 1.13,1.7 0.2,0.65 0.04,8.48 0.18,0.98 0.36,0.91 0.14,2.12 0,0 -3.19,-0.03 -0.61,0.13 -0.57,0.35 -0.81,0.77 -0.49,0.64 -0.59,1.26 -0.18,1.44 -0.13,0.44 -0.54,0.87 -0.35,0.22 -1.23,0.19 -1.06,0.41 -0.73,0 -0.71,-0.31 -1.45,-1.28 -0.46,-0.18 -0.5,-0.06 -2.22,0 -0.65,0.14 -0.74,0.34 -0.31,0.05 -2.31,0.1 0,0 -4.09,-0.03 -0.47,-0.05 -0.42,-0.16 -0.48,-0.49 -1.46,-3.01 -0.47,-0.62 -1.73,-1.65 -0.42,-0.2 -0.79,-0.09 -2.61,-0.01 -0.47,0.05 -0.44,0.15 -1.74,1.46 -2.3,1.17 -2.84,2.72 -6.04,-0.1 -0.85,0.2 -0.76,0.32 -2.26,0.24 -0.9,0.39 -1.39,0.41 -0.54,-1.52 -0.64,-1.2 -0.59,-0.6 -2.52,-1.19 -0.48,-0.14 -0.83,-0.03 -4.1,-0.03 -0.5,0.06 -1.2,0.45 -0.99,0.22 -3.16,1.58 -0.52,0.16 -0.41,-0.07 -0.35,-0.47 -0.09,-1.23 -0.17,-0.54 -0.29,-0.25 -0.82,-0.44 -1.96,-0.32 -0.59,-0.28 -1.2,-0.35 -0.5,-0.32 -0.44,-0.54 -0.72,-1.19 -0.35,-0.38 -0.5,-0.34 -0.92,-0.2 -3.21,0.06 -0.8,-0.03 -0.45,-0.12 -0.28,-0.35 -0.09,-0.44 0.07,-3.03 -0.07,-0.73 -0.57,-0.82 -2.6,-1.24 -1.04,-0.15 -5.14,-0.03 -0.5,-0.09 -0.92,-0.39 -0.66,-0.13 -6.16,-0.05 -0.49,-0.1 -0.91,-0.38 -0.63,-0.09 -0.88,-0.07 -0.31,0.21 0,0 -0.07,-0.85 -0.19,-0.97 -0.17,-0.39 -0.23,-3.43 -0.19,-3.12 -0.46,-3.82 -0.04,-2.29 0.07,-0.83 -0.3,-0.66 -0.36,-1.58 0.04,-0.57 0.19,-0.22 0.2,-1.23 -0.13,-0.05 -0.26,0.62 -0.1,0.7 -0.23,0.09 -0.62,-0.97 -0.2,-0.7 -0.56,-0.18 -0.23,-0.57 -0.42,-0.62 -0.2,-0.44 -0.82,-1.89 -0.26,-1.1 -1.08,-1.89 -0.27,-0.48 -0.06,-0.44 -0.36,-0.57 -0.17,-0.45 -0.39,-0.48 0,-0.26 0.16,-0.31 0.27,0 0.23,0.04 -0.07,-0.44 0.03,-0.13 0.17,-0.13 0.16,0 0,0.44 0.33,0.83 0.1,0.31 0,0.53 0.23,0.31 0.16,0.44 0,0.22 -0.13,0.17 -0.1,0.49 0.43,0.26 0.23,0.05 0.09,-0.22 0.37,0.08 0.29,0.75 0.13,0 0.23,-0.39 0.13,-0.14 0,-0.3 -0.19,-0.36 -0.07,-0.17 0,-0.22 0.13,-0.27 0.23,0.05 0.13,-0.13 -0.1,-0.22 -0.26,-0.05 -0.03,-0.13 0.13,-0.17 0.39,-0.23 0.13,-0.13 0,-0.13 -0.13,-0.22 -0.46,0.04 -0.19,-0.08 -0.13,-0.44 -0.13,-0.44 -0.66,-0.14 -0.13,-0.3 -0.4,-0.09 -0.09,-0.35 -0.27,0.08 -0.13,-0.3 0.2,-0.36 0.2,0 0.16,0 0.43,0.18 0.32,0.13 0.37,-0.17 0.19,-0.09 0.23,-0.09 0.89,-0.31 0.65,-0.31 0.56,0 0.33,-0.04 0.23,-0.13 0.23,-0.31 0.16,-0.44 -0.13,-0.62 0,-0.75 0.13,-0.26 0.3,-0.09 0.23,-0.09 0.39,-0.13 0.29,-0.13 0,-0.18 -0.32,-0.26 -0.27,-0.09 -0.39,-0.09 -0.16,-0.04 -0.23,-0.18 z"
     title="Guria"
     id="GE-GU" />
  <path
     d="m 307.52122,170.92162 1.28,1.52 0.28,0.75 -0.01,1.47 -0.12,0.46 -0.44,1.04 -0.08,1.78 0.17,0.94 0.9,1.23 0.19,0.6 0.03,2.93 -0.12,1.42 1.27,0.16 1.19,-0.09 0.89,-0.38 1.14,-0.29 0.75,-0.33 1.15,-0.27 1.14,-0.53 0.63,-0.53 1.07,-2.1 0.31,-0.28 0.42,-0.17 1.21,0.03 1.17,0.49 1.5,0.21 0.52,0.3 1.27,1.16 0.23,0.16 0.62,0.17 0.99,0 1.23,-0.45 1.07,-0.16 0.26,-0.11 0.22,-0.25 0.31,-1.59 0.42,-1.23 0.2,-0.36 0.49,-0.16 0.42,0.03 2.23,0.9 0.19,0.18 0.55,0.98 0.66,0.68 0.27,0.17 1.51,0.28 0.17,0.1 0.06,0.16 1.42,0.44 1.27,0.91 1.03,0.59 5.31,5.22 0.55,0.75 0.29,1.13 0.38,0.89 0.17,2.75 0.38,0.88 0.21,0.77 0.15,0.22 0.36,0.18 0.42,0.05 2.82,-0.01 0.72,0.17 2.53,1.28 1.5,1.32 1.15,0.67 1.1,1.03 0.46,0.28 0.28,0 0.24,-0.11 1.19,-1.09 0.53,-0.29 1.98,-0.15 1.03,-0.42 0.59,-0.11 1.09,0.02 0.91,0.25 1.21,-0.75 1.79,-0.26 1.39,-0.67 1.13,-0.86 0.9,-0.47 1.57,-1.45 0.64,-0.81 0.86,-1.77 0.35,-0.41 4.23,-2.13 1.02,-0.96 0.09,-0.44 0.13,-0.21 0.57,-0.25 1.82,-0.01 1.95,0.13 1.4,-0.16 1.04,-0.41 0.64,-0.11 6.03,0.01 0.81,0.14 0.75,0.35 1,0.25 1.04,0.43 1.95,0.19 1.22,0.47 1.3,0.11 0.81,-0.09 0.9,-0.39 1.14,-0.29 0.76,-0.33 1.62,-0.25 1.06,-0.43 1.15,-0.06 0.62,0.16 5.67,2.85 1.62,0.26 1.19,0.46 1.6,0.15 0,0 1.78,1.76 0.77,0.54 1.63,0.26 0.89,0.38 0.46,0.1 2.93,0.13 1.03,0.43 0.59,0.1 0.72,-0.13 2.39,-1.19 1.86,-1.56 1.55,-0.73 0.97,-0.1 1.49,0.05 0.59,0.16 0.82,0.46 0.29,0.26 0.62,1.03 0.6,1.26 0.09,0.59 -0.1,0.58 -0.35,0.73 -0.29,1.13 -0.36,0.74 -0.28,1.13 -0.95,1.85 -0.14,0.41 -0.04,0.75 0.08,0.6 0.41,0.88 0.34,1.04 -1.26,0.24 -1.05,0.41 -1.62,0.24 -1.27,0.61 -1.1,0.82 -0.43,0.2 -0.82,0.1 -2.72,-0.03 -0.77,0.19 -0.52,0.38 -0.69,0.7 -0.4,0.5 -0.49,0.93 -1,1.06 -0.65,0.47 -1.79,0.83 -0.51,0.46 -0.69,1.35 -0.24,1 -0.4,0.87 -0.08,0.43 0.08,0.73 0.36,0.73 0.3,1.12 0.4,0.89 0.09,0.77 -0.02,3.36 -0.13,0.6 -0.42,1.02 -0.13,1.69 -2.41,1.17 -0.59,0.57 -0.61,1.24 -0.27,1.14 -0.35,0.73 -0.23,1.62 -0.39,0.88 -0.33,1.25 -0.64,1.25 -1.42,1.59 -0.73,1.22 -0.87,0.73 -4.33,2.06 -0.69,0.5 -0.11,1.04 -0.38,0.88 -0.13,0.79 0.02,8.55 -0.1,0.96 -0.4,0.57 -1.13,0.66 -1.98,1.77 -0.93,0.5 -0.52,0.39 -1.21,1.16 -0.61,0.76 -0.63,1.24 -0.13,0.95 0.07,1.13 0.47,1.18 0.11,1.05 0,0 -1.07,0.09 -1.03,0.41 -1.35,0.15 -0.42,0.12 -1.4,0.71 -1.74,1.63 -0.64,0.43 -1.64,0.24 -1.03,0.4 -1.35,0.15 -0.42,0.12 -1.4,0.7 -1.61,1.4 -2.54,1.23 -0.42,0.12 -1.49,0.19 -0.75,0.34 -1.15,0.27 -0.75,0.34 -1.15,0.27 -0.75,0.34 -1.01,0.22 -0.89,0.39 -1.14,0.26 -7.06,3.43 -1.58,0.68 -1.49,-0.69 -1.29,-0.73 -0.69,0.15 -1.49,0.13 -1.55,0.5 -3.98,0.05 -1.7,0.53 -3.21,0.05 -0.63,0.11 -1.07,0.39 -1.78,0.13 -0.46,0.15 -0.4,0.27 -1.32,1.31 -1.42,0.06 -1.01,-0.1 -0.27,-0.09 -3.01,-1.52 -0.44,-0.13 -0.83,-0.08 -3.12,0.03 -0.84,-0.06 -0.62,-0.16 -2.02,-0.98 -0.67,-0.1 -2.22,0 -0.7,0.15 -3.75,1.79 -0.65,0.49 -1.56,1.49 -0.42,0.25 -1.32,0.16 -1.21,-0.02 -1.01,-0.14 -2.3,-1.06 -0.75,-0.09 -1.29,0.02 -0.64,-0.47 -0.71,-1.21 -2.03,-2.08 0,0 -0.14,-2.12 -0.36,-0.91 -0.18,-0.98 -0.04,-8.48 -0.2,-0.65 -1.13,-1.7 -0.48,-0.47 -0.62,-0.21 -0.84,-0.06 -5.69,0.04 -0.94,-0.11 -0.67,-0.4 -1.37,-1.34 -0.62,-0.48 -1.26,-0.36 -0.91,-0.38 -0.87,-0.19 -0.43,-0.21 -2.59,-2.45 -1.53,-0.84 -2.81,-1.34 -0.78,-0.09 -1.96,0 -0.69,-0.2 -0.63,-0.97 -0.66,-1.39 -0.28,-1.14 -0.39,-0.89 -0.24,-1.59 -1.74,-3.5 -0.67,-0.23 -1.04,-0.19 -0.89,-0.38 -0.49,-0.11 -2.95,-0.08 -0.98,0.05 -0.42,0.17 -0.17,0.19 -0.47,0.78 -0.38,0.89 -0.58,0.86 -0.7,0.22 -0.64,0 -0.49,-0.05 -0.61,-0.2 -1.11,-0.84 -1.39,-0.71 -0.81,-0.13 -3.21,-0.06 -0.45,-0.13 -1.12,-0.56 -0.58,-0.58 -1.26,-2.5 -0.16,-0.47 0.06,-1.48 0.11,-0.44 0.17,-0.28 0.91,-0.97 0.74,-0.54 0.98,-0.53 0,0 0.9,-0.15 0.69,0.02 0.49,0.1 0.9,0.38 0.84,0.01 0.47,-0.2 0.95,-0.69 0.64,-0.35 0.36,-0.32 0.18,-0.28 0.13,-0.49 0.1,-1.53 0.45,-1.23 0.11,-1.21 -0.01,-11.22 -0.12,-0.85 -0.47,-1.18 0.09,-0.6 0.33,-0.29 1.5,-0.48 1.37,-0.2 0.34,-0.27 0.16,-0.57 0.01,-0.99 -0.09,-1.02 -0.21,-0.76 1.08,-2.02 1.03,-1.57 1.11,-1.38 1.03,-2.03 0.94,-1.21 2.93,-5.77 1.3,-1.29 1.04,-0.56 0.49,-0.38 2.2,-2.13 0.74,-0.82 0.67,-1.15 1.57,-1.59 0.38,-0.49 0.15,-0.43 0.06,-0.61 -0.04,-6.69 0.05,-0.77 0.16,-0.41 0.39,-0.39 1.89,-0.88 0.33,-0.25 0.24,-0.34 0.15,-0.79 -0.01,-3.01 0.18,-0.61 0.74,-0.79 1.17,-0.64 0.58,-0.52 0.37,-0.5 0.84,-1.76 0.26,-0.32 0.34,-0.24 0.97,-0.15 4.6,0.05 0.77,-0.21 0.98,-0.73 0.55,-0.24 1.43,-0.07 z"
     title="Imereti"
     id="GE-IM" />
  <path
     d="m 782.44122,394.45162 -2.41,-0.06 -0.95,0.81 -1.34,-0.14 -1.88,-2.15 -2.7,-1.08 -2.82,-0.67 -2.29,1.62 -3.36,4.84 -1.62,3.1 -1.61,0.4 -2.69,-3.57 -0.54,-3.36 -2.69,-1.08 -2.56,1.35 -2.15,0 -3.69,-4.65 -1.7,-2.48 -3.76,-4.58 -3.5,-3.23 -6.87,-0.27 -4.71,0.54 -2.69,-1.34 -1.88,0 -0.61,0.72 -2.21,0.59 -0.83,3.05 -1.61,0.9 -1.9,-0.71 -1.46,-0.27 -3.04,0.17 -2.64,-0.28 -1.09,0.32 -2.33,0.38 -3.82,-0.25 -3.05,-1.72 -2.49,-2.24 -2.74,-1.46 -2,-0.93 -1.42,-0.37 -2.83,0.11 -1.74,-0.34 -2.19,-0.83 -2.41,-1.87 -2.56,-1.28 -3.32,-2.26 -3.11,-4.38 -1.24,-1.83 -0.47,-0.85 0.03,-0.53 0.35,-0.68 0.64,-0.14 0.61,-0.89 0.57,-1.29 0.74,-0.57 0.49,-0.67 0.52,-0.24 0.61,-0.13 1.82,-0.06 0.62,-0.2 0.27,-0.42 -0.16,-0.48 -1.81,-1.78 -0.72,-0.84 -0.68,-0.05 -2.48,1.54 -0.87,-0.09 -1.17,-0.4 -3.16,-1.91 -1.32,-0.32 -2.09,0.18 -2.14,0.62 -1.97,-0.77 -0.66,-0.5 -0.63,-0.75 -0.4,-2.34 -0.56,-1.3 -1.58,-0.73 -3.93,-0.96 -2.27,-0.79 -1.06,-0.64 -0.66,-0.63 -1.97,-2.36 -0.85,-0.46 -0.93,-0.13 -0.93,0 -0.54,-0.12 -1.86,2.28 -0.96,0.9 -0.7,0.45 -0.9,0.12 -0.9,-0.07 -2.96,-1.85 -2.56,-1.87 -1.78,-1.88 0,0 -0.33,-1.22 -2.21,-4.28 0.01,-0.56 0.85,-1.74 -0.05,-0.37 -0.42,-0.54 -1.87,-1.79 -0.75,-0.46 -1.01,-0.23 -1.04,-0.42 -2.93,-0.11 -1.5,-0.51 -1.53,-0.09 -0.58,-0.12 -0.35,-0.24 -0.26,-0.31 -1.24,-2.47 -0.11,-0.58 0.02,-0.75 0.11,-0.43 0.41,-0.85 0.03,-0.72 -0.11,-0.41 -1.62,-3.05 -0.09,-0.43 0.05,-0.59 0.29,-0.53 1.68,-1.67 0.78,-1.25 1.43,-1.57 0.63,-1.22 0.07,-0.4 -0.08,-0.41 -0.32,-0.72 -0.22,-1.46 -0.39,-0.88 -0.29,-1.12 -0.34,-0.73 -0.25,-1.6 -0.47,-1.17 -0.05,-3.02 -0.09,-0.77 -1.68,-3.36 -0.27,-1.13 -0.33,-0.74 -0.21,-0.76 -0.15,-0.22 -0.24,-0.14 -0.88,-0.1 -2.61,0.07 -0.45,0.11 -0.73,0.35 -0.44,0.09 -0.59,-0.05 -0.38,-0.2 -0.36,-0.41 -0.92,-1.89 -1.4,-1.58 -0.51,-0.91 -0.85,-1.09 -1.74,-3.4 -1.34,-1.38 -0.91,-0.66 0,0 0,-1.79 -0.08,-0.74 -0.82,-1.65 -0.79,-0.76 -0.92,-0.49 -1.11,-0.84 -1.58,-0.61 5.7,-5.51 0.26,-0.12 0.44,-0.04 1.38,0.63 0.82,0.66 1.73,1.73 0.7,0.54 1.28,0.6 1.64,0.25 1.01,0.4 0.55,-0.07 2,-0.96 1.99,-0.14 1.17,-0.45 1.94,-0.24 -0.35,-1.04 -0.8,-1.51 -1.93,-1.99 -1.01,-0.78 -1.14,-0.3 -1.04,-0.41 -2.32,-0.12 -1.48,-0.51 -1.98,-0.18 -1.04,-0.42 -1.65,-0.25 -0.74,-0.33 -0.78,-0.22 -0.3,-0.25 -0.25,-1.35 -0.38,-0.88 -0.1,-0.44 -0.05,-0.91 0.07,-0.76 0.24,-0.55 0.76,-0.95 0.51,-0.88 1.33,-1.44 0.13,-0.26 0.04,-0.43 -1.01,-2.08 -0.28,-1.14 -0.61,-1.25 -0.48,-0.63 -1.38,-1.34 -0.27,-0.47 0.06,-0.47 1.2,-2.39 0.08,-0.47 -0.45,-1.09 -1.58,-2.93 -0.13,-0.54 0.05,-0.28 0.22,-0.39 1.69,-1.66 0.39,-0.66 0.15,-2.58 0.42,-1.01 0.13,-0.6 0.08,-3.36 0.46,-1.17 0.21,-1.47 0.37,-0.88 0.3,-1.12 0.56,-0.76 1.99,-1.93 0.4,-0.67 0.1,-0.93 -0.04,-3.68 0.05,-0.46 0.16,-0.44 0.49,-0.61 3.36,-3.31 0.59,-1.03 0.84,-1.1 0.58,-0.95 0.48,-0.29 0.99,-0.23 0.75,-0.32 1.65,-0.22 0.9,-0.37 1.13,-0.28 0.52,-0.43 1.27,-2.47 0.17,-0.72 0,-0.61 -0.08,-0.44 -0.39,-0.89 -0.24,-1.39 -0.45,-0.91 -0.23,-0.7 -0.95,-1.86 -0.13,-0.42 -0.08,-3.53 0.09,-0.94 0.3,-0.54 0.32,-0.34 0.49,-0.37 1.05,-0.56 1.89,-1.72 1.11,-0.64 0.39,-0.57 0.11,-0.9 -0.05,-5.11 -0.12,-0.63 -0.35,-0.74 -0.26,-0.99 -0.43,-1.01 -0.01,-0.89 1.95,-3.88 0.93,-1.22 1.02,-2.03 1.45,-1.61 0.45,-0.88 0.57,-0.67 0,0 1.02,2.21 1.27,1.5 1.07,0.91 1.01,0.43 1.16,0.15 1.29,-0.3 1.33,-0.54 2.43,-0.7 0.82,-0.41 0.77,-0.16 2.97,-0.2 2.95,0.34 3.69,0.12 3,-0.16 3.15,-1.33 2.01,-0.05 1.53,0.27 0.9,0.43 1.66,1.77 1.24,1.1 3.3,1.9 3.57,1.47 5.72,3.45 0.44,0.12 3.4,-0.29 1.21,0.05 1.1,0.76 0.84,1.09 0.5,1.33 0.35,1.55 -0.06,1.68 -0.2,1.49 -0.78,1.54 -4.13,6.5 -0.4,1.15 -0.19,1.02 0.56,3.04 -0.05,1.42 -0.73,2.09 0.35,0.48 1.45,1.26 0.45,0.59 0.19,1.76 -0.42,0.64 -0.79,0.63 -2.51,1.08 -1.32,0.25 -0.77,0.3 -1.46,-0.01 -1.26,0.61 -0.8,-0.03 -0.67,-0.68 -0.71,-0.38 -0.91,-0.11 -0.7,0.23 -0.39,0.76 -1.62,5.22 -1.2,3.24 -0.87,1.97 0.27,0.7 0.49,0.49 0.87,0.21 0.61,0.27 2.03,2.18 2.7,0.85 3.05,2.03 1.01,0.43 0.77,0.68 2.56,1.65 1.48,1.29 0.53,1.61 0.68,0.17 0.78,0.54 0.88,0.9 0.48,0.78 1.78,0.97 1.3,0.22 0.95,0.8 0.72,0.32 1.12,0.14 2.23,-0.53 1.52,0.09 2.62,0.92 1.38,0.78 2.64,2.27 0.15,1.02 -0.03,1.82 0.17,1.27 0.47,1.11 1.35,1.61 0.3,1.75 0.49,0.49 1.06,0.69 0.79,0.17 0.85,-0.54 2.14,-1.85 0.77,-0.11 1,0.39 1.22,0.3 0.89,-0.54 1.17,-0.29 0.5,0.2 0.34,0.67 0.23,1.46 0.2,0.51 0.57,0.24 0.73,-0.11 0.67,-0.34 0.71,-0.66 1.37,-1.77 0.9,0.33 0.63,0.6 0.26,2.55 0.28,1.1 0.57,1.18 1.18,1.32 1.32,0.74 0.66,-0.2 0.27,-0.53 0.28,-2.56 0.54,-0.85 0.48,-0.2 0.61,0.2 0.67,0.43 3.79,4.1 1.33,0.23 1.78,-0.07 1.35,-0.38 2.72,-1.82 1.14,-0.24 0.64,0.17 0.52,0.57 0.43,1.17 1.16,1.57 3.6,3.34 0.7,1.33 1.04,0.3 0.45,0.45 0.2,0.48 -0.14,0.75 0.06,0.29 1.88,0.15 0.48,-0.41 0.25,-0.71 0.13,-1.38 0.43,-0.63 0.65,-0.05 0.57,0.28 0.78,1.16 0.67,0.39 0.56,-0.38 1.16,-1.65 0.52,-0.34 0.54,0.02 0.24,0.37 0.23,1.5 -0.14,1.51 0.41,2.16 0.33,0.81 3.18,1.94 -0.41,4.4 -0.59,1.93 -1.27,2.58 -0.69,0.95 -1.93,1.98 -1.84,0.94 -2.57,1.73 -5.14,4.63 -5.92,1.23 -5.26,1.92 -3.11,4.06 1.68,8.62 1.67,5.02 0.24,7.42 2.15,2.63 3.35,-3.35 2.05,0.3 -0.07,0.23 3.48,1.51 0.92,1.83 -0.51,1.34 0.28,1.7 0.82,1.77 1.37,1.72 0.31,0.54 1.56,2.17 0.26,1.38 -0.31,2.25 0.51,0.91 1.14,0.99 3.99,1.47 3.04,1.34 0.19,0.66 0.05,1.44 0.31,0.23 2.65,0.14 0.74,0.39 1.07,1.09 0.96,1.8 0.9,0.73 2.27,1.57 1.73,0.57 6.81,2.67 0.12,0.09 0.17,0.64 0.88,0.35 2.66,0.79 0.15,0.41 0.48,0.34 0.09,-0.4 0.34,-0.65 0.4,0.02 0.4,0.49 -0.1,0.57 -0.26,0.64 0.07,0.65 0.65,0.01 0.49,-0.39 0.32,0.41 0.22,0.58 0.57,0.17 0.43,-1.12 0.64,0.34 0.39,0.74 -0.6,1.28 -0.58,0.23 -0.56,0.07 -0.34,0.47 -0.09,0.41 0.88,0.18 0.57,0.02 0.63,0.66 0.34,-0.32 0.25,-0.56 -0.06,-0.65 0.1,-0.8 0.17,-0.32 0.56,0.17 0.3,0.9 -0.03,1.46 -0.42,0.64 0.32,0.17 0.65,-0.15 0.32,0.25 0.06,0.65 -0.18,0.73 0.07,0.4 0.81,0.18 1.22,-0.37 0.56,0.18 0.15,0.41 -0.41,0.39 0.14,0.65 0.31,0.58 -0.27,0.96 0.47,0.82 0.79,0.75 0.15,0.49 -0.26,0.64 0.32,0.13 2.77,0.23 0.64,0.85 0.04,0.69 -0.57,0.61 -1.13,0.6 -1.2,1.73 -0.67,0.65 -0.11,3.19 -2.07,2.09 -0.44,1.16 -0.83,0.93 -1.24,1.88 0.26,1.55 0.66,1.06 0.35,0.88 -0.43,0.4 0,1.83 -0.77,0.41 -0.39,1.22 0.23,4.68 -0.84,1.32 -0.08,1.12 z"
     title="K'akheti"
     id="GE-KA" />
  <path
     d="m 576.36122,290.57162 0.38,-0.12 0.59,-0.43 1.71,-1.63 0.58,-0.7 0.19,-0.72 0.01,-2.3 0.17,-0.87 0.65,-1.24 0.87,-1.07 0.41,-0.77 0.83,-1.1 0.38,-0.74 0.4,-0.36 0.41,-0.1 0.41,0.08 0.73,0.33 1,0.26 2.16,1.04 0.79,0.09 3.09,0.07 2.11,0.92 0.39,-0.06 1.07,-0.76 1.21,-0.51 0,0 0.91,0.66 1.34,1.38 1.74,3.4 0.85,1.09 0.51,0.91 1.4,1.58 0.92,1.89 0.36,0.41 0.38,0.2 0.59,0.05 0.44,-0.09 0.73,-0.35 0.45,-0.11 2.61,-0.07 0.88,0.1 0.24,0.14 0.15,0.22 0.21,0.76 0.33,0.74 0.27,1.13 1.68,3.36 0.09,0.77 0.05,3.02 0.47,1.17 0.25,1.6 0.34,0.73 0.29,1.12 0.39,0.88 0.22,1.46 0.32,0.72 0.08,0.41 -0.07,0.4 -0.63,1.22 -1.43,1.57 -0.78,1.25 -1.68,1.67 -0.29,0.53 -0.05,0.59 0.09,0.43 1.62,3.05 0.11,0.41 -0.03,0.72 -0.41,0.85 -0.11,0.43 -0.02,0.75 0.11,0.58 1.24,2.47 0.26,0.31 0.35,0.24 0.58,0.12 1.53,0.09 1.5,0.51 2.93,0.11 1.04,0.42 1.01,0.23 0.75,0.46 1.87,1.79 0.42,0.54 0.05,0.37 -0.85,1.74 -0.01,0.56 2.21,4.28 0.33,1.22 0,0 -1.51,-0.83 -1.22,-0.22 -0.87,0.26 -1.25,0.94 -0.89,-0.06 -0.91,0.26 -1.54,0.02 -0.78,0.88 -0.98,2.85 -0.98,0.44 -1.65,1.17 -0.86,1.02 -1.14,1.01 -3.28,0.66 -0.77,0.45 -1.71,2.1 -1.54,1.32 -1.57,2.54 -2.21,3.24 -1.11,1.26 -1.42,0.86 -1.62,0.46 -0.98,0.37 -2.67,1.98 -2.57,1.08 -1.7,0.56 -0.74,0.45 -0.98,-0.06 -0.91,0.44 -3.66,3.24 -0.41,0.6 -0.22,1.32 -0.67,1.16 -1.11,0.12 -1.25,-0.06 -2.67,-0.71 -0.54,-0.02 -0.93,0.3 -0.54,0.03 -0.81,-0.56 -1.54,-1.36 -0.5,-0.12 -0.61,0.02 -0.86,-0.13 -2.09,-0.94 -1.5,-2.83 -0.39,-0.4 -0.47,0.06 -0.36,0.21 -0.68,1.77 -0.17,0.75 0.49,0.62 0.13,0.54 -0.91,0.8 -0.23,2.07 2.07,3.52 0.84,0.42 2.24,0.58 1.73,0.98 0.74,0.48 0.49,0.58 -0.16,0.68 -2.29,0.19 -1.18,-0.13 -2.86,-1.39 -1.11,-0.28 -0.86,0.09 -0.9,0.48 -0.96,-0.38 -2.31,0.77 -1.64,0 -0.93,0.16 -1.1,0.94 -1.29,0.37 -0.64,-0.34 -0.11,-1.32 -0.35,-0.37 -0.53,-0.22 -1.11,0.04 -1.19,0.41 -0.68,-0.05 -0.68,-0.2 -0.66,-0.83 -0.34,-0.9 -0.6,-0.3 -3.58,0.07 -1.28,-0.39 -0.78,-0.12 -0.36,0.24 -0.9,2.02 -0.36,1.75 -0.26,2.03 -0.15,0.57 -0.44,0.56 -0.4,0.25 -0.83,0.3 0.01,-2.18 -0.38,-0.65 -0.57,0.06 -1.84,0.57 -2.64,1.38 -0.43,0.06 -0.74,-0.26 -2.67,-0.56 -0.79,0.06 -1.55,0.44 -2.34,1.17 -0.86,0.13 -0.79,-0.02 -1.42,-0.53 -3.53,-2.38 -2.21,-2.08 -4.07,-2.51 -0.68,-0.22 -0.57,0.06 -0.69,0.38 -0.37,0.68 -0.16,1.46 0.02,0.54 -0.3,0.71 -0.47,0.27 -0.78,-0.19 -2.31,-1 -2.28,-0.22 -2.4,0.32 -1.32,-0.31 -0.39,-0.33 -0.46,-2.54 -0.59,-0.8 -0.74,-0.55 -0.4,-0.15 -1.34,1.45 -0.5,0.1 -0.97,-0.02 -0.82,-0.22 -1.44,-1.32 -0.68,0.03 -0.48,0.53 -0.19,0.5 0.1,0.71 0.76,1.59 0.14,0.58 -1.3,3.09 -0.58,0.56 -0.8,0.52 -1.51,0.45 -1.11,0.09 -4.89,-0.18 -2.28,-0.22 -1,0.06 -1.11,0.23 -1.91,1.01 -1.22,0.38 -1.14,0.13 -1.47,0.51 -1.16,0.85 -1.92,2.26 -0.25,0.04 0,0 -0.77,-3.02 -0.18,-1.02 -0.38,-0.86 -0.11,-0.45 -0.02,-4.05 -0.14,-0.93 -0.7,-1.37 -1.41,-1.55 -0.51,-0.9 -0.83,-1.09 -0.38,-1.23 -0.42,-1.03 -0.07,-1.52 0.16,-1.16 0.33,-0.73 0.37,-1.25 0.65,-1.22 0.81,-1.05 0.18,-0.46 0.07,-1.01 -0.08,-3.78 -0.45,-1.21 -0.26,-1.58 -0.57,-1.26 -0.55,-0.88 -0.32,-0.26 -0.29,-0.09 -2.08,-0.1 -0.26,-0.15 -0.21,-0.39 -0.02,-8.39 -0.14,-0.81 -0.38,-0.9 -0.11,-1 0.04,-1.04 0.26,-0.91 -1.64,-0.73 -1.12,-0.82 -0.75,-0.39 -0.45,-0.52 -0.14,-0.63 0.03,-0.64 0.12,-0.47 0.42,-0.87 0.1,-0.63 -0.01,-0.49 -0.2,-0.59 -0.62,-0.53 -4.67,-2.29 -0.7,-0.19 -0.74,0.07 -0.74,0.33 -1.14,0.3 -2.16,0.99 -1.96,0.15 -1.53,0.5 -9.55,-0.02 -0.07,-2.09 0.17,-0.94 0.45,-0.5 1.87,-0.87 0.42,-0.36 0.26,-0.53 0.19,-1.41 0.4,-1.05 0.09,-1.03 -0.02,-4.52 -0.09,-0.67 -0.45,-1.03 -0.08,-0.98 0.13,-0.63 0.38,-0.88 0.23,-1.42 0.37,-0.89 0.1,-0.46 0.07,-5.79 0.15,-0.56 0.63,-1.61 0.88,-0.56 0.39,-0.15 1.56,-0.08 1.08,0.09 1.18,0.46 1.64,0.26 0.75,0.34 1.14,0.29 0.89,0.39 1.5,0.22 1,0.39 0.43,-0.03 0.27,-0.13 0.59,-0.48 4.81,-4.72 0.5,-0.6 0.46,-0.87 0.89,-1.09 0,0 4.54,0.05 0.88,0.07 0.48,0.15 1.85,0.91 0.68,0.13 9.92,0.09 0.68,0.13 1.07,0.41 3.49,0.12 0.5,0.11 0.91,0.38 1.41,0.13 1.43,-0.02 0.68,-0.12 3.76,-1.77 2.41,0.08 0.92,0.18 1.15,0.56 0.79,0.53 1.92,0.03 1.47,0.54 1.23,0.08 1.03,-0.19 5.55,-2.7 1.4,-0.37 1.28,-0.62 1.22,-0.94 0.85,-0.38 0.37,-0.08 0.53,0.24 0.68,0.65 0.5,0.64 0.48,0.91 1.07,1.18 0.82,0.75 0.56,0.28 0.97,0.11 8.4,0.05 0.97,-0.09 0.39,-0.2 0.37,-0.4 0.33,-0.62 0.61,-0.81 0.13,-0.37 -0.03,-0.24 -0.66,-1.74 0,0 1.89,0.2 1.03,0.42 0.46,0.1 2.44,0.14 0.9,0.39 1.15,0.29 0.75,0.34 1.15,0.27 0.95,0.51 0.29,0.26 0.55,0.9 1.7,3.39 1.1,1.16 1.34,1.2 0.97,-0.07 0.84,0.04 0.48,0.11 0.9,0.39 0.64,0.11 0.82,0.02 0.64,-0.1 0.59,-0.39 0.66,-1.08 1.02,-1.38 0.53,-0.53 0,0 0.76,0.14 1.06,0.32 0.79,0.45 0.27,0.24 0.09,0.24 -0.05,0.37 -0.94,2.29 0.03,0.37 0.31,0.27 0.58,0.08 4.62,-0.01 0.6,0.12 1.03,0.42 1.98,0.16 0.77,0.47 2.25,2.18 1.05,0.6 1.25,0.89 0.79,0.15 3.03,0 0.98,0.1 6.1,2.97 0.81,0.1 0.99,-0.04 1.52,-0.52 2.12,-0.07 0.76,-0.16 2.54,-1.2 0.91,-0.54 0.26,-0.28 0.55,-0.9 0.59,-1.25 0.24,-1.61 0.42,-1.01 0.24,-1.46 0.37,-0.78 -0.02,-0.37 -0.3,-0.27 -0.57,-0.08 -1.46,0.03 -0.75,0.21 -0.47,0.48 -0.84,1.75 -0.55,0.72 -1.02,0.91 -0.42,0.19 -0.47,0.08 -2.13,-0.01 -0.94,-0.14 -2.53,-1.24 -1.13,-0.83 -0.99,-0.56 -0.34,-0.43 -0.12,-0.44 0,-2.23 -0.09,-0.78 -1.28,-2.64 -0.37,-0.49 -0.58,-0.52 -1.84,-0.95 -0.17,-0.21 -0.1,-0.39 0.09,-0.56 0.36,-0.5 0.59,-0.5 0.93,-0.46 0.74,-0.58 1.36,-1.35 z"
     title="Kvemo Kartli"
     id="GE-KK" />
  <path
     d="m 594.45122,143.06162 4.42,0.63 2.44,-0.71 3.17,-0.72 3.03,0.3 1.3,0.62 1.11,1.13 1.19,1.94 2.39,2.37 2.85,3.93 2.93,3.71 1,1.01 2.93,2.35 0.8,1.23 0.66,3.68 0.19,0.42 0,0 -0.57,0.67 -0.45,0.88 -1.45,1.61 -1.02,2.03 -0.93,1.22 -1.95,3.88 0.01,0.89 0.43,1.01 0.26,0.99 0.35,0.74 0.12,0.63 0.05,5.11 -0.11,0.9 -0.39,0.57 -1.11,0.64 -1.89,1.72 -1.05,0.56 -0.49,0.37 -0.32,0.34 -0.3,0.54 -0.09,0.94 0.08,3.53 0.13,0.42 0.95,1.86 0.23,0.7 0.45,0.91 0.24,1.39 0.39,0.89 0.08,0.44 0,0.61 -0.17,0.72 -1.27,2.47 -0.52,0.43 -1.13,0.28 -0.9,0.37 -1.65,0.22 -0.75,0.32 -0.99,0.23 -0.48,0.29 -0.58,0.95 -0.84,1.1 -0.59,1.03 -3.36,3.31 -0.49,0.61 -0.16,0.44 -0.05,0.46 0.04,3.68 -0.1,0.93 -0.4,0.67 -1.99,1.93 -0.56,0.76 -0.3,1.12 -0.37,0.88 -0.21,1.47 -0.46,1.17 -0.08,3.36 -0.13,0.6 -0.42,1.01 -0.15,2.58 -0.39,0.66 -1.69,1.66 -0.22,0.39 -0.05,0.28 0.13,0.54 1.58,2.93 0.45,1.09 -0.08,0.47 -1.2,2.39 -0.06,0.47 0.27,0.47 1.38,1.34 0.48,0.63 0.61,1.25 0.28,1.14 1.01,2.08 -0.04,0.43 -0.13,0.26 -1.33,1.44 -0.51,0.88 -0.76,0.95 -0.24,0.55 -0.07,0.76 0.05,0.91 0.1,0.44 0.38,0.88 0.25,1.35 0.3,0.25 0.78,0.22 0.74,0.33 1.65,0.25 1.04,0.42 1.98,0.18 1.48,0.51 2.32,0.12 1.04,0.41 1.14,0.3 1.01,0.78 1.93,1.99 0.8,1.51 0.35,1.04 -1.94,0.24 -1.17,0.45 -1.99,0.14 -2,0.96 -0.55,0.07 -1.01,-0.4 -1.64,-0.25 -1.28,-0.6 -0.7,-0.54 -1.73,-1.73 -0.82,-0.66 -1.38,-0.63 -0.44,0.04 -0.26,0.12 -5.7,5.51 1.58,0.61 1.11,0.84 0.92,0.49 0.79,0.76 0.82,1.65 0.08,0.74 0,1.79 0,0 -1.21,0.51 -1.07,0.76 -0.39,0.06 -2.11,-0.92 -3.09,-0.07 -0.79,-0.09 -2.16,-1.04 -1,-0.26 -0.73,-0.33 -0.41,-0.08 -0.41,0.1 -0.4,0.36 -0.38,0.74 -0.83,1.1 -0.41,0.77 -0.87,1.07 -0.65,1.24 -0.17,0.87 -0.01,2.3 -0.19,0.72 -0.58,0.7 -1.71,1.63 -0.59,0.43 -0.38,0.12 0,0 -1.16,-0.43 -1.37,-0.15 -0.42,-0.12 -1.39,-0.71 -1.78,-1.69 -0.59,-0.44 -1.28,-0.61 -1.01,-0.25 -0.82,-0.37 -0.38,0.01 -0.29,0.23 -0.52,0.89 -0.58,1.26 -0.26,1.13 -0.69,1.35 -0.39,0.38 -0.87,0.46 -1.01,0.78 -0.99,0.45 -0.35,0.08 -0.36,-0.1 -1.59,-0.78 -0.74,-0.11 -0.57,0.12 -0.91,0.53 -0.22,0.36 -0.06,0.61 0.1,0.63 0.42,0.87 0.12,0.47 0.02,0.62 -0.12,0.43 -0.27,0.3 -0.69,0.38 -1.41,0.35 -1.16,0.61 -0.7,0.76 -0.67,1.82 0,0 -0.53,0.53 -1.02,1.38 -0.66,1.08 -0.59,0.39 -0.64,0.1 -0.82,-0.02 -0.64,-0.11 -0.9,-0.39 -0.48,-0.11 -0.84,-0.04 -0.97,0.07 -1.34,-1.2 -1.1,-1.16 -1.7,-3.39 -0.55,-0.9 -0.29,-0.26 -0.95,-0.51 -1.15,-0.27 -0.75,-0.34 -1.15,-0.29 -0.9,-0.39 -2.44,-0.14 -0.46,-0.1 -1.03,-0.42 -1.89,-0.2 0,0 -0.22,-0.33 -0.2,-1.19 -0.45,-1.04 -0.08,-0.63 0.03,-0.47 0.27,-0.49 2.49,-1.29 0.2,-0.17 0.17,-0.39 0.06,-0.76 -0.06,-2.96 -0.12,-0.62 -0.43,-1.03 -0.08,-1.44 0.1,-1.12 0.66,-1.74 0.34,-0.25 0.44,-0.08 3.6,0.05 1,0.12 1.01,0.44 0.42,0.04 0.52,-0.15 0.65,-0.95 0.72,-1.7 0.08,-1.33 -0.07,-1.66 -0.17,-0.46 -1.38,-1.58 -0.51,-0.9 -0.41,-0.51 -2.87,-2.83 -0.83,-1 -1.83,-3.61 -0.13,-0.44 -0.06,-0.65 0.02,-5.66 -0.14,-0.73 -0.33,-0.51 -0.42,-0.44 -3.09,-2.93 -2,0.07 -2.36,-0.06 -0.47,-0.1 -0.91,-0.38 -1.46,-0.22 -1.06,-0.42 -2.11,-0.23 -1.21,-0.46 -0.82,-0.08 -0.98,0.06 -1.07,0.4 -0.98,0.24 -0.37,0.2 -0.37,0.4 -0.9,1.88 -0.64,0.99 -1.01,0.62 -0.78,0.35 -1.2,0.78 0.05,-4.22 -0.05,-0.49 -0.21,-0.41 -0.6,-0.24 -1.06,-0.01 -0.89,0.11 -0.85,0.34 -0.39,0.04 -0.23,-0.1 -0.17,-0.24 -0.09,-0.92 0.04,-1.75 0.11,-0.99 0.39,-0.89 0.29,-1.12 0.95,-1.84 0.16,-0.56 -0.03,-1.05 -0.43,-1.02 -0.13,-0.61 -0.04,-2.98 0.15,-1.28 0.95,-1.83 0.12,-0.41 -0.04,-0.73 -0.46,-1.14 0.06,-0.88 1.24,-2.48 0.37,-0.5 0.58,-0.51 1.73,-0.91 0.37,-0.35 0.48,-0.79 0.6,-1.26 0.37,-1.39 0.62,-1.01 1.16,-0.64 1.28,-0.3 0.8,-0.45 0.27,-0.28 0.25,-1.37 0.45,-1.19 0.07,-0.82 -0.02,-2.51 -0.14,-0.63 -0.23,-0.4 -0.67,-0.84 -0.43,-0.77 -0.94,-1.22 -0.62,-1.26 -0.12,-0.62 -0.03,-3.8 0.07,-0.79 0.34,-0.62 1.03,-0.63 0.35,-0.42 0.17,-0.93 -0.11,-1.3 -0.71,-1.54 -0.59,-1.11 -0.26,-0.33 -0.45,-0.32 -1.92,-0.89 -0.86,-0.58 -0.21,-0.69 -0.04,-1.75 -0.1,-0.46 -0.41,-1.06 -0.06,-1.91 -0.13,-0.57 -0.28,-0.29 -0.68,-0.38 -1.14,-0.36 -0.19,-0.18 -0.14,-0.53 0.08,-0.87 0.42,-0.88 0.41,-1.22 0.62,-0.76 1.08,-0.62 0.38,-0.39 0.18,-0.55 0.06,-1.67 0.14,-0.42 0.57,-0.7 1,-0.95 1.06,-0.85 -0.72,-1.11 -0.33,-1.26 -0.66,-1.15 -1.03,-0.61 -1.13,-0.28 -0.37,-0.2 -0.29,-0.29 -0.49,-0.87 -0.77,-0.98 -0.74,-1.55 -0.08,-2.22 -0.2,-0.52 -0.34,-0.2 -1.71,-0.58 -2.61,-0.06 -0.78,-0.14 -0.78,-0.57 -1.98,-2.03 -0.34,-0.48 -1.24,-2.52 -0.24,-1.63 -0.48,-1.26 0,0 2.5,-0.56 0.97,-0.65 0.48,-0.46 1.01,-3.58 1.13,-2.1 1.13,-1.85 0.9,-1.27 2.63,-1.83 2.44,-1.09 2.76,-1.02 2.5,-0.43 1.76,0.03 3.88,0.54 1.53,0.07 0.96,-0.28 1.33,-0.6 1.3,-0.78 2.49,-2.04 2.08,-1.36 2.04,-0.91 1.76,-0.37 2.02,0.07 9.36,1.18 3.09,-0.31 1.95,-0.5 1.99,-0.22 2.95,0.69 1.2,0.57 1.12,0.69 0.71,0.93 0.93,0.9 0.79,0.97 2.25,12.25 0.77,1.7 0.64,0.56 1.12,0.69 1.13,0.13 0.7,-0.09 1.74,-1.03 2.33,-5.62 1.67,-5.56 2.25,-3.73 1.06,-1.48 1.06,-1.18 1.08,-0.86 1.59,-0.47 1.69,-0.33 2.54,-0.12 3.24,0.67 1.9,0.63 2.91,2.35 4.64,4.59 z"
     title="Mtskheta-Mtianeti"
     id="GE-MM" />
  <path
     d="m 395.16122,112.44162 0.35,0.02 1.51,-0.4 1.21,-0.51 2.35,-0.13 3.05,0.24 4.3,0.57 2.85,1.24 0.95,0.92 1.06,0.74 1.32,0.38 3.09,0.21 0.99,0.15 1.13,0.34 1.9,1.08 2.41,1.97 0.76,0.74 0.44,0.88 0.46,1.66 0.51,0.74 0.94,0.74 0.95,0.93 1.45,1.88 0.58,0.26 0.66,0.15 1.77,-0.49 1.13,0.23 1.06,0.41 1.24,1 1.05,1.48 1.67,1.23 6.1,2.48 1.97,1.23 0.97,1.26 0.54,1.1 0.17,1.1 -0.16,1.61 -4.35,8.68 -1.36,1.19 -0.78,0.51 -0.77,0.28 -0.56,0.87 -0.52,0.62 -0.26,0.51 -0.08,0.59 0.14,1.28 3.53,5.27 1.05,1.1 0.69,0.05 0.59,-0.07 2.27,-0.89 0.73,-0.1 0.77,0.12 1.69,2.21 0.91,0.3 0.88,-0.28 0.97,-0.94 0.84,-0.21 0.73,0.26 1.41,1.48 0.73,0.12 1.28,0.01 1.84,0.77 0,0 0.12,0.95 0.38,0.89 0.26,0.99 0.39,0.87 0.08,0.44 -0.08,0.73 -0.42,1.01 -0.18,1.34 -0.37,0.89 -0.3,1.12 -0.44,0.51 -2.03,1 -1.25,0.92 -3.19,1.52 -1.02,0.61 -0.67,1.14 -0.18,1.49 -0.12,0.42 -0.45,0.81 -0.26,0.29 -1.06,0.57 -1.65,0.21 -0.89,0.38 -1.01,0.24 -1.22,0.46 -3.47,0.08 -0.51,0.1 -0.92,0.37 -0.7,0.09 -7.43,0.01 -0.44,0.09 -0.91,0.37 -1.62,0.25 -0.75,0.33 -1,0.24 -1.06,0.41 -1.63,0.22 -0.92,0.5 -0.33,0.43 -0.19,1.22 -0.37,0.9 -0.1,0.47 0.01,2.06 0,0 -1.6,-0.15 -1.19,-0.46 -1.62,-0.26 -5.67,-2.85 -0.62,-0.16 -1.15,0.06 -1.06,0.43 -1.62,0.25 -0.76,0.33 -1.14,0.29 -0.9,0.39 -0.81,0.09 -1.3,-0.11 -1.22,-0.47 -1.95,-0.19 -1.04,-0.43 -1,-0.25 -0.75,-0.35 -0.81,-0.14 -6.03,-0.01 -0.64,0.11 -1.04,0.41 -1.4,0.16 -1.95,-0.13 -1.82,0.01 -0.57,0.25 -0.13,0.21 -0.09,0.44 -1.02,0.96 -4.23,2.13 -0.35,0.41 -0.86,1.77 -0.64,0.81 -1.57,1.45 -0.9,0.47 -1.13,0.86 -1.39,0.67 -1.79,0.26 -1.21,0.75 -0.91,-0.25 -1.09,-0.02 -0.59,0.11 -1.03,0.42 -1.98,0.15 -0.53,0.29 -1.19,1.09 -0.24,0.11 -0.28,0 -0.46,-0.28 -1.1,-1.03 -1.15,-0.67 -1.5,-1.32 -2.53,-1.28 -0.72,-0.17 -2.82,0.01 -0.42,-0.05 -0.36,-0.18 -0.15,-0.22 -0.21,-0.77 -0.38,-0.88 -0.17,-2.75 -0.38,-0.89 -0.29,-1.13 -0.55,-0.75 -5.31,-5.22 -1.03,-0.59 -1.27,-0.91 -1.42,-0.44 -0.06,-0.16 -0.17,-0.1 -1.51,-0.28 -0.27,-0.17 -0.66,-0.68 -0.55,-0.98 -0.19,-0.18 -2.23,-0.9 -0.42,-0.03 -0.49,0.16 -0.2,0.36 -0.42,1.23 -0.31,1.59 -0.22,0.25 -0.26,0.11 -1.07,0.16 -1.23,0.45 -0.99,0 -0.62,-0.17 -0.23,-0.16 -1.27,-1.16 -0.52,-0.3 -1.5,-0.21 -1.17,-0.49 -1.21,-0.03 -0.42,0.17 -0.31,0.28 -1.07,2.1 -0.63,0.53 -1.14,0.53 -1.15,0.27 -0.75,0.33 -1.14,0.29 -0.89,0.38 -1.19,0.09 -1.27,-0.16 0.12,-1.42 -0.03,-2.93 -0.19,-0.6 -0.9,-1.23 -0.17,-0.94 0.08,-1.78 0.44,-1.04 0.12,-0.46 0.01,-1.47 -0.28,-0.75 -1.28,-1.52 0,0 -0.82,-1.45 -0.28,-1.77 -1.25,-2.52 -0.94,-1.23 -1.03,-2.05 -0.86,-1.1 -0.41,-0.79 -0.86,-1.1 -0.4,-0.78 -1.52,-1.74 -0.74,-1.53 -0.09,-0.94 -0.01,-4.02 0.15,-1.08 0.34,-0.52 0.46,-0.43 1.15,-0.62 1.26,-0.9 -1.09,-1.05 -0.63,-1.12 -1.32,-1.5 -0.55,-1.02 -0.81,-0.81 -3.31,-1.65 -1.24,-0.96 -1.26,-0.64 -1.28,-0.34 -0.9,-0.39 -1.64,-0.24 -1.73,-1.02 -2.56,-2.38 -0.89,-0.47 -1.13,-0.88 -2.28,-1.16 -0.69,-0.74 -0.7,-1.23 -1.05,-0.95 0.74,-1.21 2.67,-5.42 0.33,-0.45 0.34,-0.24 0.64,-0.13 4.46,0 0.48,-0.1 0.9,-0.37 1.78,-0.12 0.59,-0.19 0.4,-0.36 1.29,-2 0.26,-1.62 0.36,-0.91 0.15,-1.08 0.22,-0.53 0.24,-0.15 0.6,-0.1 2.52,0.06 0.81,0.14 4.69,2.33 0.98,0.1 4.49,0.04 0.59,0.12 1.04,0.42 1.98,0.18 1.42,0.65 3.13,1.62 0.74,0.18 4.21,0.04 0.76,0.15 0.88,0.39 0.89,0.02 2.8,-1.36 1.74,-1.5 0.78,-0.41 0.96,-0.75 0.56,-0.17 0.53,0.13 3,1.54 1.14,0.29 0.9,0.38 1.64,0.25 1.27,0.61 0.73,0.57 1.98,2 0.4,0.29 0.44,0.15 0.74,-0.03 0.88,-0.37 0.49,-0.11 2.23,-0.11 1.56,-0.51 6.16,-0.02 0.67,-0.09 1.22,-0.48 0.95,-0.02 0.51,0.26 0.54,0.91 0.11,0.43 0.12,1.36 0.53,1.08 0.43,0.31 0.69,0.01 0.88,-0.39 1,-0.25 0.42,-0.2 0.98,-0.87 0.57,-0.78 0.14,-1.06 -0.05,-6.02 0.05,-0.47 0.2,-0.4 0.22,-0.14 2.54,-0.86 0.64,-0.99 0.37,-1.4 0.55,-1.15 0.37,-0.5 0.7,-0.6 1.02,-0.55 1.82,-1.72 1.23,-0.69 1.08,-1 0.68,0.51 0.94,0.48 0,0 0.45,0.39 1.44,0.41 6.79,1.6 6.93,3.27 1.06,1.11 1.61,0.74 z"
     title="Rach'a-Lechkhumi-Kvemo Svaneti"
     id="GE-RL" />
  <path
     d="m 403.33122,267.39162 1.06,-0.11 1.21,-0.46 0.66,-0.04 0.66,0.08 2.31,1.09 2.27,0.11 0.63,0.14 0.53,0.35 1.08,0.98 0.41,0.25 0.47,0.12 1.3,0.07 0.64,0.11 2.53,1.21 0.41,0.36 0.25,0.54 0.01,2.5 0.14,0.8 0.25,0.4 0.43,0.44 1.43,0.83 0.73,0.8 0.15,0.45 0.16,1.28 0.35,0.91 0.18,1.2 0.19,0.38 0.39,0.2 0.45,0.05 5.99,-0.01 -0.07,1.14 0.06,0.99 0.43,1.21 0.16,1.04 0.1,0.26 0.2,0.2 0.51,0.14 2.14,0.09 1.41,0.64 0.64,0.48 2.22,2.16 0.71,0.34 2.92,0.07 0.8,-0.06 0.43,-0.13 2.09,-1.05 4.66,0.02 1.34,0.15 0.89,0.38 1,0.26 0.76,0.33 1.14,0.29 1.44,0.65 0.86,0.54 0.17,0.22 0.15,0.75 -0.14,2.64 0,0 -0.89,1.09 -0.46,0.87 -0.5,0.6 -4.81,4.72 -0.59,0.48 -0.27,0.13 -0.43,0.03 -1,-0.39 -1.5,-0.22 -0.89,-0.39 -1.14,-0.29 -0.75,-0.34 -1.64,-0.26 -1.18,-0.46 -1.08,-0.09 -1.56,0.08 -0.39,0.15 -0.88,0.56 -0.63,1.61 -0.15,0.56 -0.07,5.79 -0.1,0.46 -0.37,0.89 -0.23,1.42 -0.38,0.88 -0.13,0.63 0.08,0.98 0.45,1.03 0.09,0.67 0.02,4.52 -0.09,1.03 -0.4,1.05 -0.19,1.41 -0.26,0.53 -0.42,0.36 -1.87,0.87 -0.45,0.5 -0.17,0.94 0.07,2.09 9.55,0.02 1.53,-0.5 1.96,-0.15 2.16,-0.99 1.14,-0.3 0.74,-0.33 0.74,-0.07 0.7,0.19 4.67,2.29 0.62,0.53 0.2,0.59 0.01,0.49 -0.1,0.63 -0.42,0.87 -0.12,0.47 -0.03,0.64 0.14,0.63 0.45,0.52 0.75,0.39 1.12,0.82 1.64,0.73 -0.26,0.91 -0.04,1.04 0.11,1 0.38,0.9 0.14,0.81 0.02,8.39 0.21,0.39 0.26,0.15 2.08,0.1 0.29,0.09 0.32,0.26 0.55,0.88 0.57,1.26 0.26,1.58 0.45,1.21 0.08,3.78 -0.07,1.01 -0.18,0.46 -0.81,1.05 -0.65,1.22 -0.37,1.25 -0.33,0.73 -0.16,1.16 0.07,1.52 0.42,1.03 0.38,1.23 0.83,1.09 0.51,0.9 1.41,1.55 0.7,1.37 0.14,0.93 0.02,4.05 0.11,0.45 0.38,0.86 0.18,1.02 0.77,3.02 0,0 -0.43,0.06 -1.28,-0.23 -2.27,-1.21 -5.51,0.11 -1.57,0.13 -3.89,-0.37 -1.04,0.13 -2.55,1.12 -3.99,2.74 -1.43,0.56 -0.83,0.67 -0.55,0.85 -1.73,2.16 -0.68,0.31 -1.78,-0.34 -1.57,-0.83 -1.2,-0.44 -1.67,-1.45 -1.95,-1.09 -1,0.1 -1.73,1.16 -1.86,0.74 -2.75,-0.03 -1.49,-1.01 -1.35,-1.26 -1.74,-1.16 -1.06,-0.29 -1.43,-0.08 -1.43,0.16 -4.48,2.19 -1.54,0.84 -0.65,0.1 -1.63,-0.1 -0.96,-1.84 -0.38,-1.76 -0.49,-1.32 -0.53,-0.97 -1.63,-1.9 -1.53,-0.62 -2.25,-0.76 -0.82,-0.51 -1.67,-1.26 -1.11,-0.36 -1.1,-0.08 -1.18,0.17 -4.44,1.3 -5.12,1.77 -3.11,0.66 -2.54,0.21 0.83,-1.75 -0.21,-0.86 -3.97,-8.56 -0.71,-0.72 -0.79,-0.25 -1.11,-0.15 -0.89,0.32 -1.79,1.1 -2.58,-0.65 -0.89,-0.68 0.5,-0.54 1.47,-0.85 1.22,-0.53 1,-0.29 1.83,-1.07 1.54,-1.57 1.01,-0.67 0.07,-0.47 0.47,-0.36 0.22,-0.42 -0.07,-0.47 -0.4,-0.5 -0.89,-0.47 -0.79,-0.29 -1.14,-0.18 -1,0.06 -0.79,-0.21 -0.57,-0.79 -3.01,-0.37 -0.6,-0.97 -2.18,-4.05 -0.53,-0.72 -4.16,-2.23 -2.25,-0.15 -1.26,-0.82 -1.39,-0.51 -0.97,-1.43 -0.82,-1.55 -1.9,-1.54 -0.46,-0.83 0.03,-0.93 -0.68,-1.33 -0.86,-0.64 -0.39,-0.43 0,-1.98 -0.46,-0.82 -2.91,-1.05 -1.61,-2.26 -3.16,-1.29 -0.25,-0.61 0.1,-1.15 -0.14,-1.12 -0.79,-0.71 -2.3,0.14 -1.15,0.58 -0.57,2.37 -0.61,1.36 -0.5,0.4 -0.58,0.03 -0.68,-0.53 -0.65,-0.72 -0.61,-0.43 -0.93,-0.22 -1.55,-1.25 0.04,-0.9 -0.32,-0.75 -1.52,-1.44 -0.1,-0.65 0.5,-1.36 0.82,-0.58 0.87,-0.29 1.04,-0.82 -0.29,-3.42 0.25,-0.43 1.4,-0.72 0.75,-0.9 -0.29,-1.91 -0.82,-0.79 -4.25,-0.1 -0.49,0.6 -0.26,0.51 -0.4,0.51 -0.43,-0.11 -0.86,-0.61 -1.15,-0.25 -2.7,-1.54 -0.79,-0.03 -1.41,-0.43 -1.54,-0.14 -3.59,0.11 -4.07,1.2 -0.61,0.08 -1.19,0.4 -0.79,0.36 -1.68,-0.24 -0.58,0.32 -0.64,1.18 -0.9,0.6 0,0 -0.82,-2.69 -0.48,-1.31 -0.35,-0.72 -0.19,-1.45 -0.24,-0.56 -0.38,-0.47 -2.22,-2.21 -1.24,-2.39 -0.85,-0.75 -1.92,-0.91 -0.42,-0.35 -0.47,-0.85 -1.51,-1.73 -1.38,-2.77 -0.18,-0.83 -0.41,-0.85 -0.14,-0.58 0.05,-1.5 0.33,-0.68 1.7,-1.68 0.39,-0.64 0.11,-0.81 -0.02,-3.42 -0.03,-0.65 -0.12,-0.45 -1.63,-3.21 -0.28,-1.16 0,0 2.31,-0.1 0.31,-0.05 0.74,-0.34 0.65,-0.14 2.22,0 0.5,0.06 0.46,0.18 1.45,1.28 0.71,0.31 0.73,0 1.06,-0.41 1.23,-0.19 0.35,-0.22 0.54,-0.87 0.13,-0.44 0.18,-1.44 0.59,-1.26 0.49,-0.64 0.81,-0.77 0.57,-0.35 0.61,-0.13 3.19,0.03 0,0 2.03,2.08 0.71,1.21 0.64,0.47 1.29,-0.02 0.75,0.09 2.3,1.06 1.01,0.14 1.21,0.02 1.32,-0.16 0.42,-0.25 1.56,-1.49 0.65,-0.49 3.75,-1.79 0.7,-0.15 2.22,0 0.67,0.1 2.02,0.98 0.62,0.16 0.84,0.06 3.12,-0.03 0.83,0.08 0.44,0.13 3.01,1.52 0.27,0.09 1.01,0.1 1.42,-0.06 1.32,-1.31 0.4,-0.27 0.46,-0.15 1.78,-0.13 1.07,-0.39 0.63,-0.11 3.21,-0.05 1.7,-0.53 3.98,-0.05 1.55,-0.5 1.49,-0.13 0.69,-0.15 1.29,0.73 1.49,0.69 1.58,-0.68 7.06,-3.43 1.14,-0.26 0.89,-0.39 1.01,-0.22 0.75,-0.34 1.15,-0.27 0.75,-0.34 1.15,-0.27 0.75,-0.34 1.49,-0.19 0.42,-0.12 2.54,-1.23 1.61,-1.4 1.4,-0.7 0.42,-0.12 1.35,-0.15 1.03,-0.4 1.64,-0.24 0.64,-0.43 1.74,-1.63 1.4,-0.71 0.42,-0.12 1.35,-0.15 1.03,-0.41 z"
     title="Samtskhe-Javakheti"
     id="GE-SJ" />
  <path
     d="m 493.22122,155.10162 0.48,1.26 0.24,1.63 1.24,2.52 0.34,0.48 1.98,2.03 0.78,0.57 0.78,0.14 2.61,0.06 1.71,0.58 0.34,0.2 0.2,0.52 0.08,2.22 0.74,1.55 0.77,0.98 0.49,0.87 0.29,0.29 0.37,0.2 1.13,0.28 1.03,0.61 0.66,1.15 0.33,1.26 0.72,1.11 -1.06,0.85 -1,0.95 -0.57,0.7 -0.14,0.42 -0.06,1.67 -0.18,0.55 -0.38,0.39 -1.08,0.62 -0.62,0.76 -0.41,1.22 -0.42,0.88 -0.08,0.87 0.14,0.53 0.19,0.18 1.14,0.36 0.68,0.38 0.28,0.29 0.13,0.57 0.06,1.91 0.41,1.06 0.1,0.46 0.04,1.75 0.21,0.69 0.86,0.58 1.92,0.89 0.45,0.32 0.26,0.33 0.59,1.11 0.71,1.54 0.11,1.3 -0.17,0.93 -0.35,0.42 -1.03,0.63 -0.34,0.62 -0.07,0.79 0.03,3.8 0.12,0.62 0.62,1.26 0.94,1.22 0.43,0.77 0.67,0.84 0.23,0.4 0.14,0.63 0.02,2.51 -0.07,0.82 -0.45,1.19 -0.25,1.37 -0.27,0.28 -0.8,0.45 -1.28,0.3 -1.16,0.64 -0.62,1.01 -0.37,1.39 -0.6,1.26 -0.48,0.79 -0.37,0.35 -1.73,0.91 -0.58,0.51 -0.37,0.5 -1.24,2.48 -0.06,0.88 0.46,1.14 0.04,0.73 -0.12,0.41 -0.95,1.83 -0.15,1.28 0.04,2.98 0.13,0.61 0.43,1.02 0.03,1.05 -0.16,0.56 -0.95,1.84 -0.29,1.12 -0.39,0.89 -0.11,0.99 -0.04,1.75 0.09,0.92 0.17,0.24 0.23,0.1 0.39,-0.04 0.85,-0.34 0.89,-0.11 1.06,0.01 0.6,0.24 0.21,0.41 0.05,0.49 -0.05,4.22 1.2,-0.78 0.78,-0.35 1.01,-0.62 0.64,-0.99 0.9,-1.88 0.37,-0.4 0.37,-0.2 0.98,-0.24 1.07,-0.4 0.98,-0.06 0.82,0.08 1.21,0.46 2.11,0.23 1.06,0.42 1.46,0.22 0.91,0.38 0.47,0.1 2.36,0.06 2,-0.07 3.09,2.93 0.42,0.44 0.33,0.51 0.14,0.73 -0.02,5.66 0.06,0.65 0.13,0.44 1.83,3.61 0.83,1 2.87,2.83 0.41,0.51 0.51,0.9 1.38,1.58 0.17,0.46 0.07,1.66 -0.08,1.33 -0.72,1.7 -0.65,0.95 -0.52,0.15 -0.42,-0.04 -1.01,-0.44 -1,-0.12 -3.6,-0.05 -0.44,0.08 -0.34,0.25 -0.66,1.74 -0.1,1.12 0.08,1.44 0.43,1.03 0.12,0.62 0.06,2.96 -0.06,0.76 -0.17,0.39 -0.2,0.17 -2.49,1.29 -0.27,0.49 -0.03,0.47 0.08,0.63 0.45,1.04 0.2,1.19 0.22,0.33 0,0 0.66,1.74 0.03,0.24 -0.13,0.37 -0.61,0.81 -0.33,0.62 -0.37,0.4 -0.39,0.2 -0.97,0.09 -8.4,-0.05 -0.97,-0.11 -0.56,-0.28 -0.82,-0.75 -1.07,-1.18 -0.48,-0.91 -0.5,-0.64 -0.68,-0.65 -0.53,-0.24 -0.37,0.08 -0.85,0.38 -1.22,0.94 -1.28,0.62 -1.4,0.37 -5.55,2.7 -1.03,0.19 -1.23,-0.08 -1.47,-0.54 -1.92,-0.03 -0.79,-0.53 -1.15,-0.56 -0.92,-0.18 -2.41,-0.08 -3.76,1.77 -0.68,0.12 -1.43,0.02 -1.41,-0.13 -0.91,-0.38 -0.5,-0.11 -3.49,-0.12 -1.07,-0.41 -0.68,-0.13 -9.92,-0.09 -0.68,-0.13 -1.85,-0.91 -0.48,-0.15 -0.88,-0.07 -4.54,-0.05 0,0 0.14,-2.64 -0.15,-0.75 -0.17,-0.22 -0.86,-0.54 -1.44,-0.65 -1.14,-0.29 -0.76,-0.33 -1,-0.26 -0.89,-0.38 -1.34,-0.15 -4.66,-0.02 -2.09,1.05 -0.43,0.13 -0.8,0.06 -2.92,-0.07 -0.71,-0.34 -2.22,-2.16 -0.64,-0.48 -1.41,-0.64 -2.14,-0.09 -0.51,-0.14 -0.2,-0.2 -0.1,-0.26 -0.16,-1.04 -0.43,-1.21 -0.06,-0.99 0.07,-1.14 -5.99,0.01 -0.45,-0.05 -0.39,-0.2 -0.19,-0.38 -0.18,-1.2 -0.35,-0.91 -0.16,-1.28 -0.15,-0.45 -0.73,-0.8 -1.43,-0.83 -0.43,-0.44 -0.25,-0.4 -0.14,-0.8 -0.01,-2.5 -0.25,-0.54 -0.41,-0.36 -2.53,-1.21 -0.64,-0.11 -1.3,-0.07 -0.47,-0.12 -0.41,-0.25 -1.08,-0.98 -0.53,-0.35 -0.63,-0.14 -2.27,-0.11 -2.31,-1.09 -0.66,-0.08 -0.66,0.04 -1.21,0.46 -1.06,0.11 0,0 -0.11,-1.05 -0.47,-1.18 -0.07,-1.13 0.13,-0.95 0.63,-1.24 0.61,-0.76 1.21,-1.16 0.52,-0.39 0.93,-0.5 1.98,-1.77 1.13,-0.66 0.4,-0.57 0.1,-0.96 -0.02,-8.55 0.13,-0.79 0.38,-0.88 0.11,-1.04 0.69,-0.5 4.33,-2.06 0.87,-0.73 0.73,-1.22 1.42,-1.59 0.64,-1.25 0.33,-1.25 0.39,-0.88 0.23,-1.62 0.35,-0.73 0.27,-1.14 0.61,-1.24 0.59,-0.57 2.41,-1.17 0.13,-1.69 0.42,-1.02 0.13,-0.6 0.02,-3.36 -0.09,-0.77 -0.4,-0.89 -0.3,-1.12 -0.36,-0.73 -0.08,-0.73 0.08,-0.43 0.4,-0.87 0.24,-1 0.69,-1.35 0.51,-0.46 1.79,-0.83 0.65,-0.47 1,-1.06 0.49,-0.93 0.4,-0.5 0.69,-0.7 0.52,-0.38 0.77,-0.19 2.72,0.03 0.82,-0.1 0.43,-0.2 1.1,-0.82 1.27,-0.61 1.62,-0.24 1.05,-0.41 1.26,-0.24 -0.34,-1.04 -0.41,-0.88 -0.08,-0.6 0.04,-0.75 0.14,-0.41 0.95,-1.85 0.28,-1.13 0.36,-0.74 0.29,-1.13 0.35,-0.73 0.1,-0.58 -0.09,-0.59 -0.6,-1.26 -0.62,-1.03 -0.29,-0.26 -0.82,-0.46 -0.59,-0.16 -1.49,-0.05 -0.97,0.1 -1.55,0.73 -1.86,1.56 -2.39,1.19 -0.72,0.13 -0.59,-0.1 -1.03,-0.43 -2.93,-0.13 -0.46,-0.1 -0.89,-0.38 -1.63,-0.26 -0.77,-0.54 -1.78,-1.76 0,0 -0.01,-2.06 0.1,-0.47 0.37,-0.9 0.19,-1.22 0.33,-0.43 0.92,-0.5 1.63,-0.22 1.06,-0.41 1,-0.24 0.75,-0.33 1.62,-0.25 0.91,-0.37 0.44,-0.09 7.43,-0.01 0.7,-0.09 0.92,-0.37 0.51,-0.1 3.47,-0.08 1.22,-0.46 1.01,-0.24 0.89,-0.38 1.65,-0.21 1.06,-0.57 0.26,-0.29 0.45,-0.81 0.12,-0.42 0.18,-1.49 0.67,-1.14 1.02,-0.61 3.19,-1.52 1.25,-0.92 2.03,-1 0.44,-0.51 0.3,-1.12 0.37,-0.89 0.18,-1.34 0.42,-1.01 0.08,-0.73 -0.08,-0.44 -0.39,-0.87 -0.26,-0.99 -0.38,-0.89 -0.12,-0.95 0,0 2.67,0.82 1.99,1.02 0.92,0.01 1.8,-0.53 1.14,-1.04 1.08,-1.27 3.11,-3.1 1.15,-1.01 1.03,-0.5 2.99,0.37 3.16,-0.98 2.03,-0.82 1.1,-0.16 0.77,0.04 1.74,0.69 1.69,-0.16 1.14,-0.38 1.29,-0.86 0.7,-0.32 z"
     title="Shida Kartli"
     id="GE-SK" />
  <path
     d="m 191.70122,221.17162 0.52,0.18 0.1,0.22 0.33,0.18 0,-0.22 0.52,0 0.36,0.35 0,0.22 -0.03,0.18 0.23,0.44 0,0.09 -0.2,0.13 -0.46,1.1 -0.62,0.57 -0.36,-0.04 -0.03,-0.09 0,-1.06 -0.13,-0.53 0,-0.4 -0.13,-0.31 -0.16,-0.31 -0.1,-0.35 0,-0.26 0.16,-0.09 z m 96.81,-163.060004 -0.31,0.53 -0.14,0.67 0.19,0.7 0.37,0.4 0.55,0.22 0.96,0.18 1.03,0.07 2.37,0.99 2.4,0.76 2,1.02 1.85,1.21 1.92,0.84 1.41,0.81 1.26,1.14 1.11,0.59 1.81,0.44 1.48,0.62 1.26,1.1 3.58,1.72 1.99,0.51 0.37,-0.26 0.15,-0.67 -0.15,-0.85 -1.45,-3.21 0.22,-0.78 0.52,-0.19 1.66,0.29 0.92,0.03 1.48,-0.6 1.14,-0.11 4.87,-1.45 1.74,-0.04 1.33,0.26 0.74,0.55 0.78,0.41 0.67,0.63 1.03,0.15 2.62,-0.63 2.62,0.92 3.51,0.22 0.33,0.66 0.11,1.33 0.33,0.92 0.48,0.48 0.81,0.44 1.55,0.63 0.88,0.66 0.11,0.78 -0.37,1.73 -0.41,1.18 1.44,0 1.33,0.15 2.36,0.33 1.99,0.41 1.92,0.85 1.84,1.18 1.73,0.67 0.77,0.41 0.11,0.59 -0.59,1.18 -0.59,0.85 -0.63,1.18 0.07,1.58 0.22,1.18 1.1,1.84 0.77,1.07 2.06,1.95 6.28,4.32 6.46,5.870004 1.14,1.18 0.95,1.66 0.32,0.28 0,0 -0.94,-0.48 -0.69,-0.51 -1.08,0.99 -1.24,0.7 -1.82,1.72 -1.02,0.55 -0.7,0.6 -0.37,0.5 -0.55,1.15 -0.37,1.4 -0.64,0.99 -2.55,0.86 -0.22,0.15 -0.2,0.4 -0.05,0.47 0.06,6.02 -0.15,1.06 -0.57,0.78 -0.98,0.86 -0.42,0.21 -1,0.25 -0.87,0.39 -0.7,0 -0.42,-0.32 -0.53,-1.08 -0.12,-1.36 -0.12,-0.42 -0.54,-0.91 -0.51,-0.26 -0.95,0.02 -1.22,0.48 -0.68,0.1 -6.15,0.01 -1.56,0.51 -2.23,0.11 -0.48,0.11 -0.88,0.38 -0.74,0.03 -0.44,-0.15 -0.4,-0.29 -1.98,-2 -0.73,-0.57 -1.27,-0.61 -1.64,-0.24 -0.9,-0.39 -1.15,-0.29 -2.99,-1.54 -0.54,-0.13 -0.56,0.17 -0.96,0.75 -0.78,0.42 -1.75,1.49 -2.79,1.36 -0.89,-0.01 -0.88,-0.4 -0.76,-0.14 -4.21,-0.05 -0.74,-0.18 -3.12,-1.62 -1.42,-0.65 -1.98,-0.18 -1.03,-0.42 -0.59,-0.12 -4.5,-0.04 -0.98,-0.1 -4.68,-2.33 -0.81,-0.14 -2.53,-0.05 -0.59,0.09 -0.25,0.15 -0.22,0.53 -0.15,1.08 -0.35,0.92 -0.26,1.62 -1.29,2 -0.41,0.37 -0.59,0.18 -1.78,0.12 -0.9,0.37 -0.48,0.1 -4.46,0 -0.64,0.14 -0.35,0.24 -0.33,0.45 -2.67,5.42 -0.74,1.21 1.05,0.96 0.69,1.23 0.69,0.73 2.28,1.16 1.12,0.88 0.89,0.46 2.57,2.39 1.73,1.02 1.64,0.24 0.89,0.39 1.28,0.33 1.26,0.64 1.24,0.96 3.31,1.65 0.81,0.82 0.55,1.02 1.32,1.5 0.64,1.12 1.09,1.05 -1.26,0.9 -1.15,0.62 -0.46,0.43 -0.35,0.52 -0.14,1.08 0.01,4.02 0.09,0.93 0.74,1.54 1.51,1.73 0.4,0.78 0.85,1.1 0.41,0.78 0.86,1.1 1.03,2.05 0.94,1.23 1.24,2.52 0.29,1.77 0.81,1.46 0,0 -1.71,-0.17 -1.43,0.07 -0.56,0.24 -0.98,0.73 -0.78,0.21 -4.6,-0.05 -0.96,0.15 -0.34,0.24 -0.26,0.32 -0.84,1.77 -0.36,0.5 -0.58,0.52 -1.18,0.64 -0.73,0.8 -0.19,0.61 0.01,3.01 -0.15,0.79 -0.24,0.34 -0.32,0.25 -1.9,0.88 -0.38,0.39 -0.16,0.41 -0.06,0.77 0.05,6.69 -0.06,0.61 -0.16,0.43 -0.38,0.49 -1.57,1.58 -0.67,1.15 -0.74,0.82 -2.19,2.13 -0.49,0.38 -1.04,0.56 -1.3,1.3 -2.92,5.76 -0.94,1.22 -1.03,2.02 -1.06,1.34 -1.03,1.58 -1.07,2.02 0.21,0.75 0.08,1.02 -0.01,0.99 -0.16,0.57 -0.34,0.27 -1.37,0.2 -1.49,0.48 -0.34,0.29 -0.09,0.6 0.47,1.18 0.12,0.86 0.01,11.22 -0.11,1.21 -0.45,1.23 -0.1,1.54 -0.13,0.49 -0.18,0.28 -0.37,0.32 -0.64,0.35 -0.95,0.69 -0.47,0.2 -0.84,-0.01 -0.9,-0.38 -0.49,-0.11 -0.69,-0.01 -0.9,0.15 0,0 -0.35,-0.95 -0.3,-0.42 -1.05,-0.58 -1,-0.24 -0.9,-0.42 -1.11,-0.13 -5.27,-0.07 -0.47,-0.09 -0.76,-0.35 -1.63,-0.23 -0.92,-0.6 -2.89,-2.9 -0.82,-0.65 -1.07,-0.28 -0.89,-0.38 -1.63,-0.26 -0.92,-0.38 -1.68,-0.25 -1.45,-0.79 -2.42,0.41 -0.76,0.33 -0.67,0.12 -5.67,-0.01 -0.66,0.2 -1.84,0.86 -1.77,0.31 -0.92,0.35 -2.2,0.25 -1.41,0.41 -0.59,0.07 -8.03,-0.07 -0.63,0.1 -0.9,0.35 -1.35,0.19 -0.42,0.13 -0.58,0.36 0,0 -0.2,-0.49 -0.36,-0.26 -0.66,-0.31 -0.46,-0.18 -0.16,-0.09 -0.82,-0.13 -0.1,0.04 -0.39,0.04 -0.56,0.13 -0.56,0 -0.26,0 -0.69,0.09 -0.3,-0.04 -0.49,-0.18 -0.13,-0.18 -0.2,-0.04 -0.1,0.13 -0.33,0.09 -0.46,0 -0.16,0.13 0.07,0.57 0.26,0.13 0.49,0.79 0.2,0 0.03,0.44 -0.16,0.22 0.2,0.75 0.16,0.79 0.13,0.88 0.33,0.79 0.29,0.53 0.13,0.26 0.03,0.4 -0.2,0.44 -0.23,0.22 -0.13,0.13 -0.13,0.09 -0.39,0.13 -0.23,0 -0.13,-0.09 -0.26,-0.35 -0.07,-0.22 -1.15,-1.58 -0.59,-0.53 -0.26,-0.7 -0.43,-0.44 -0.72,-1.06 -0.2,-0.31 -0.49,-0.66 -0.36,-0.31 -0.23,-0.44 -0.16,-1.72 -0.23,-0.44 -0.13,-0.09 -0.69,-0.13 0.16,-0.18 0.13,-0.26 0.18,-0.13 0.25,-0.04 -0.03,-0.22 -0.43,0.09 0.07,-0.22 0.23,-0.22 0.36,-0.04 0.1,-0.13 -0.07,-0.26 -0.43,-0.13 0.07,-0.79 -0.29,-0.75 -0.33,-0.57 -0.69,-0.97 0.07,-0.44 0.33,-0.79 0.52,-0.62 0.13,-0.4 0.33,-0.44 0.23,-0.13 0.13,0.09 0.2,0 0.1,-0.09 0.36,0.04 0.03,-0.13 -0.95,-0.31 -0.59,-0.75 -0.62,-0.31 -0.52,-0.04 -0.2,-0.26 -0.16,-0.18 -0.43,-0.26 -0.2,-0.13 0,-0.31 0.26,-0.09 0.43,-0.62 0.46,-1.37 0.16,-2.52 -0.46,-3.31 -0.17,-0.75 -0.65,-1.94 -0.46,-1.99 -0.43,-1.63 -0.69,-2.12 -0.66,-1.86 -0.39,-1.5 -0.59,-1.64 -0.13,-0.62 -0.2,-0.62 -0.36,-0.53 -0.49,-1.19 -0.29,-1.02 -0.56,-0.22 -0.89,-0.88 -0.92,-0.44 -0.59,-0.49 -0.52,-0.27 -0.36,-0.18 0.13,-0.62 0,-0.49 0.2,-0.49 0.16,-0.53 0.39,-0.04 0.36,-0.09 0.85,0 0.36,-0.09 0.36,-0.13 -0.07,-0.35 -0.2,0.04 -0.23,0.04 -0.23,0.22 -0.23,0.09 -0.75,-0.09 -0.2,0 -0.59,0.31 -0.26,0.75 -0.16,0.22 -0.1,0.44 0.07,0.53 -0.13,0 -0.07,-0.09 -0.16,-0.44 -0.03,-0.4 -0.43,-1.51 0,0 2.45,-1.33 3.07,-1.43 2.9,-1.47 0.75,-0.86 0.33,-0.67 0.33,-0.45 2.25,-2.3 0.8,-1.3 0.5,-0.54 0.45,-0.32 1.42,-0.63 0.89,-0.19 0.87,-0.35 1.87,-0.29 7.51,-3.66 1.04,-0.8 1.02,-0.55 1.75,-1.47 0.99,-0.54 1.02,-0.77 0.9,-0.48 1.74,-1.72 0.85,-1.37 2.44,-2.5 0.56,-1.02 1.56,-1.81 0.89,-1.82 1.11,-1.37 2,-0.67 1.12,-0.59 0.6,-0.67 0.26,-1.01 0.37,-0.9 0.26,-1.63 0.38,-0.96 0.08,-0.57 0.02,-2.54 -0.1,-0.72 -0.3,-0.63 -0.66,-0.85 -0.52,-0.94 -2.36,-2.43 -0.4,-0.67 -0.26,-1.03 -0.39,-0.89 -0.1,-1.16 -0.03,-6.92 -0.09,-0.48 -0.35,-0.73 -0.09,-0.49 -0.12,-2.88 -0.57,-1.6 0,-0.65 -1.44,-1.44 -0.17,-0.48 0.17,-0.45 0.65,-0.84 0.41,-0.76 0.71,-0.74 1.63,-0.81 1.04,-0.39 0.66,-0.9 0.68,-1.47 0.07,-0.67 -0.17,-0.51 -0.87,-0.9 -0.17,-0.58 -0.08,-1.79 -0.15,-0.46 -0.4,-0.48 -0.59,-0.29 -0.41,-0.42 -0.28,-0.68 0,-3.78 0.14,-0.64 0.4,-0.91 0.09,-0.63 -0.16,-0.74 -0.46,-0.27 -1.86,-0.04 -0.42,-0.1 -0.22,-0.17 -0.59,-1.03 -0.18,-1.31 -0.39,-1.060004 -0.06,-0.55 0.21,-0.43 0.35,-0.32 2.46,-1.14 0.55,-0.13 1.81,-0.14 1.05,-0.39 1.76,-0.32 3.29,-1.58 1.96,-0.17 1.54,-0.5 2.22,-0.05 0.85,-0.1 0.95,-0.34 1.2,-0.17 0.41,-0.18 0.24,-0.28 0.47,-0.94 0.14,-1.2 0.17,-0.61 0.54,-1.13 0.33,-0.48 0.52,-0.48 1.13,-0.64 0.94,-0.8 1.66,-1.71 0.25,-0.39 1.91,-3.93 0.2,-0.89 1,-2.07 0.27,-1.69 0.47,-1.15 -0.09,-0.96 -1.11,-2.26 0.01,-4.02 0.13,-0.62 1.02,-2.16 0.26,-1 0.97,-2 0.3,-1.17 0.34,-0.76 0,0 0.05,-0.18 3.04,0.47 0.74,-0.15 3.01,-1.91 0.96,-0.01 1.22,0.25 1.11,0.4 0.93,0.69 1.79,1.87 1.11,0.18 1.77,0.1 0.99,-0.49 1.65,-1.75 0.85,-0.67 0.78,-0.01 1.89,0.28 0.66,-0.19 0.37,-0.48 0.33,-1 0.37,-0.63 0.44,-0.3 0.85,-0.23 3.29,-0.32 1.33,-0.38 2.47,-1.2 1.22,-0.04 0.7,0.29 1.63,1.1 1,0.88 0.19,0.78 -0.74,0.48 -0.63,0.56 -0.16,0.27 z"
     title="Samegrelo-Zemo Svaneti"
     id="GE-SZ" />
  <path
     d="m 551.40122,300.69162 0.67,-1.82 0.7,-0.76 1.16,-0.61 1.41,-0.35 0.69,-0.38 0.27,-0.3 0.12,-0.43 -0.02,-0.62 -0.12,-0.47 -0.42,-0.87 -0.1,-0.63 0.06,-0.61 0.22,-0.36 0.91,-0.53 0.57,-0.12 0.74,0.11 1.59,0.78 0.36,0.1 0.35,-0.08 0.99,-0.45 1.01,-0.78 0.87,-0.46 0.39,-0.38 0.69,-1.35 0.26,-1.13 0.58,-1.26 0.52,-0.89 0.29,-0.23 0.38,-0.01 0.82,0.37 1.01,0.25 1.28,0.61 0.59,0.44 1.78,1.69 1.39,0.71 0.42,0.12 1.37,0.15 1.16,0.43 0,0 -0.7,1.06 -1.36,1.35 -0.74,0.58 -0.93,0.46 -0.59,0.5 -0.36,0.5 -0.09,0.56 0.1,0.39 0.17,0.21 1.84,0.95 0.58,0.52 0.37,0.49 1.28,2.64 0.09,0.78 0,2.23 0.12,0.44 0.34,0.43 0.99,0.56 1.13,0.83 2.53,1.24 0.94,0.14 2.13,0.01 0.47,-0.08 0.42,-0.19 1.02,-0.91 0.55,-0.72 0.84,-1.75 0.47,-0.48 0.75,-0.21 1.46,-0.03 0.57,0.08 0.3,0.27 0.02,0.37 -0.37,0.78 -0.24,1.46 -0.42,1.01 -0.24,1.61 -0.59,1.25 -0.55,0.9 -0.26,0.28 -0.91,0.54 -2.54,1.2 -0.76,0.16 -2.12,0.07 -1.52,0.52 -0.99,0.04 -0.81,-0.1 -6.1,-2.97 -0.98,-0.1 -3.03,0 -0.79,-0.15 -1.25,-0.89 -1.05,-0.6 -2.25,-2.18 -0.77,-0.47 -1.98,-0.16 -1.03,-0.42 -0.6,-0.12 -4.62,0.01 -0.58,-0.08 -0.31,-0.27 -0.03,-0.37 0.94,-2.29 0.05,-0.37 -0.09,-0.24 -0.27,-0.24 -0.79,-0.45 -1.06,-0.32 z"
     title="Tbilisi"
     id="GE-TB" />
</svg>
