<?xml version="1.0" encoding="UTF-8" standalone="no"?>
<!-- Created for MapSVG plugin: http://mapsvg.com -->
<svg
   xmlns:mapsvg="http://mapsvg.com"
   xmlns:dc="http://purl.org/dc/elements/1.1/"
   xmlns:rdf="http://www.w3.org/1999/02/22-rdf-syntax-ns#"
   xmlns:svg="http://www.w3.org/2000/svg"
   xmlns="http://www.w3.org/2000/svg"
   mapsvg:geoViewBox="-15.079287 12.679208 -7.634996 7.188055"
   width="1224.7562"
   height="911.37109">

  <path
     d="m 219.53669,471.84104 -2.02,2.61 -2.29,4.89 -1.65,0.78 -2.61,-0.97 0.14,-2.21 -0.09,-1.29 8.52,-3.81 z m -46.56,-25.11 -5.21,-4.89 -0.78,-2.68 1.65,-2.81 4.07,-7.43 3.39,2.15 1,3.92 3.21,3.04 -0.55,2.38 2.71,1.29 1.97,1.56 1.19,1.15 0.96,2.63 -0.62,3.04 -6.09,-0.02 -5.17,-3.6 -1.73,0.27 z m -3.43,-17.78 -4.12,6.52 -6.45,2.31 -4.16,0.09 -5.26,-3.32 -2.93,-3.74 2.01,-3.14 3.34,-4.15 6.06,-1.61 -1.42,-4.61 0.77,-1.34 3.74,2.66 3.15,4.68 5.27,5.65 z m -24.25,-13.37 4.46,2.13 1.21,2.08 0.04,1.21 -1.4,1.89 -3.15,3.88 -2.06,2.86 -4.53,-1.98 -3.52,-4.38 1.42,-2.81 1.74,-3.74 4.73,0.68 1.06,-1.82 z m -16.97,-3.27 1.01,0.43 1.5,-0.37 1.17,0.04 0.96,0.75 1.79,-0.42 1.08,-0.08 0.5,1.33 2.33,1.54 -0.73,1.02 -0.69,0.51 -1.78,3.23 -3.2,-0.83 -4.79,-4.05 0.85,-3.1 z m -51.020002,-87.37 -3.66,5.5 0,2.77 -3.7,1.48 -3.89,4.67 -3.75,2.17 -1.1,-7.4 0.87,-1.43 -2.74,-2.13 2.06,-6.1 0.69,-3.79 4.8,-1.48 3.5,-5.11 4.25,0.44 1.81,-0.25 7.06,0.88 -6.2,9.78 z m -0.01,-23.06 2.25,3.65 3.58,1.88 2.38,2.46 -0.61,2.63 -2.47,0.79 -4.48,-1.16 -0.65,-5.14 -3.33,-2.21 0.58,-1.87 2.75,-1.03 z m -46.63,-8.21 1.19,2.55 -2.51,3.38 2.74,2.54 -0.41,3.29 1.19,1.3 -1.69,1.67 0.09,2.36 -2.47,1.53 -2.29,-0.6 0,-1.53 -1.83,-1.39 -1.37,-5.83 7.36,-9.27 z m 1.28,-4.35 4.21,2.5 1.1,5.41 -1.42,0.28 -2.88,-0.97 0.64,-1.99 -2.51,-2.36 0.86,-2.87 z m -11.71,-4.81 7.32,5.74 1.42,2.55 -7.96,10.87 -2.15,-1.02 -2.06,-0.51 -1.19,0.97 2.52,1.3 1.14,4.03 -5.44,-1.3 0,0.88 3.38,3.1 2.01,1.48 2.33,0.32 1.33,2.17 -3.84,3.79 -8.87,-2.03 -8.6000003,-11.01 -1.32000001,-4.12 0.41,-2.41 3.61000001,-3.7 6.2200003,-3.24 1.46,-3.75 8.28,-4.11 z m 34.77,-6.6 3.06,0.38 1.22,1.18 -4.76,5.97 -8.46,-1.16 0.37,-1.67 2.01,-0.92 1.05,-1.52 5.51,-2.26 z m -31.02,-6.96 4.25,5.6 1.69,3.7 -0.32,6.02 -2.14,1.44 -6.83,-4.8 -3.97,1.33 3.92,-4.85 3.4,-8.44 z m 241.230002,-269.17 19.07,1.19 2.04,0.8 2.38,2.19 3.2,-0.12 2.77,-1.68 8.34,2.11 3.92,-1.49 4.23,3.52 2.61,-1.83 4.4,0.63 1.8,-1.24 6.07,2.78 3.92,-2.22 2.76,3.3 0.96,6.24 -4.23,8.77 0.89,6.43 1.75,2.26 7.27,0.08 7.87,2.62 4.79,-4.32 1.42,-7.21 4.23,-1.91 2.89,0.22 3.1,2.95 3.82,1.25 1.88,4.81 5.6,2.36 3.06,-0.58 1.6,0.9 2.7,6 2.94,0.95 17.07,-0.31 2.01,0.84 2.6,3.53 3.55,1.64 4.11,4.55 0,0 -1.13,0 -0.79,2.13 -30.47,16.78 -12.6,17.86 2.89,2.13 -1.05,2.13 2.1,3.73 -2.1,6.13 -1.84,1.06 1.06,8.8 7.89,4 -6.04,6.92 6.84,7.2 1.06,5.59 -1.05,3.2 -5.78,1.86 0.8,9.06 2.89,3.73 -0.78,5.32 -4.99,2.66 0,2.13 2.89,1.87 2.89,-1.06 0,3.19 2.1,1.07 0,2.93 2.89,0.8 0,1.86 3.94,1.07 1.05,2.13 2.1,-2.13 0.79,3.19 -0.79,1.86 2.9,5.06 -1.05,1.06 -1.05,-1.06 -8.67,5.85 -1.05,6.12 -3.15,0.8 -0.79,2.13 -13.66,5.84 -6.04,5.85 1.05,1.33 -7.88,3.72 -2.89,2.92 -2.89,4.25 3.68,6.65 -4.46,3.98 1.85,9.04 -2.89,3.72 0,0 -4.99,0 -1.84,1.06 -4.2,0 0,-1.06 -1.05,0 -5.52,3.18 -1.05,-1.06 -3.15,0 -0.79,2.13 -5.78,2.92 -2.1,0 -2.1,1.86 -3.68,0 -1.05,1.06 3.95,11.16 -2.89,0.8 -3.16,-6.91 0,-7.17 -3.68,-6.91 -1.06,-7.71 -2.9,-7.97 1.83,-8.77 -0.79,-2.39 -4.2,-0.8 -4.73,2.12 -3.15,0 -13.4,7.7 -2.89,0 -1.32,-2.92 4.2,-7.97 -1.05,-2.92 -1.05,-0.8 -6.83,0.79 -11.56,-1.87 -4.2,1.06 -2.89,3.72 -6.83,4.25 -7.88,0.79 -2.89,-1.86 -13.92,3.71 -5.78,3.98 -3.94,-1.07 3.16,4.26 2.89,0.8 0.79,2.92 2.1,-0.79 2.1,2.66 0.79,3.19 -2.89,3.98 5.78,0.8 2.9,6.11 -0.78,6.11 -2.89,3.72 -6.04,2.12 -1.05,5.05 -1.84,0.8 -1.05,2.12 8.94,9.83 -0.83,2.31 0.83,1.68 -7.88,6.9 -6.04,1.85 -3.68,3.18 -7.88,2.91 -3.67,9.82 -6.04,10.87 0,3.18 1.84,0 7.89,8.76 2.89,1.06 0.79,-1.85 -0.79,-2.39 0.79,-0.79 2.37,1.86 0.79,-1.06 0,-4.77 1.84,-3.98 7.88,0.8 3.94,-3.71 3.15,0.8 4.73,4.25 4.99,-1.32 1.84,6.1 2.1,-1.06 1.84,1.06 0.79,4.25 4.21,0.8 14.45,-11.93 7.88,-9.01 4.2,-1.85 4.55,0 -0.87,0.8 6.05,6.11 0,3.98 -1.84,3.18 0,5.57 8.41,-1.85 2.37,1.86 1.84,0 2.89,4.25 -1.05,2.92 -2.89,1.85 0,2.12 -3.94,2.91 -1.05,2.92 3.16,3.98 -2.1,9.01 -2.89,1.85 0,1.06 -4.73,-1.06 -2.36,2.91 -3.68,-1.06 -2.92,2.82 0,1.85 -1.31,0 -1.84,4.24 3.16,3.71 0,2.38 -1.31,0 0,1.85 -2.62,3.71 -4.73,3.18 0,2.12 -5.25,11.65 -1.84,1.06 -4.99,0 -7.89,-6.1 -7.62,3.17 -3.94,-1.86 -3.94,0 -6.82,9.8 -3.94,8.74 -11.82,5.82 0,5.03 5.79,5.83 3.95,6.09 16.83,9.81 6.83,0.8 3.68,2.12 0.2,2.39 0,0 -2.06,2.31 -0.5,3.37 -3.25,5.9 -11.16,5.16 -2.93,0.51 -4.07,-2.21 -2.33,-4.52 -5.4,-5.21 -12.39,-9.09 2.15,-1.71 0.82,-5.63 2.47,0 1.14,-1.52 -2.51,-0.37 -0.59,-3.6 -1.1,0 -1.51,3.14 -1.28,-1.02 0.23,-2.08 -3.66,-0.46 0,-2.4 -3.15,-2.72 -1.05,-4.15 -7.59,-3.78 0.09,-1.57 -2.15,-2.45 -1.74,-0.23 -1.92,-4.43 -1.92,0.09 -5.44,-3.65 -2.56,1.34 1.51,4.94 -2.61,0.6 -0.96,-0.97 1.24,-1.98 -4.25,-2.49 -1.01,-0.23 -3.66,-1.89 2.01,-3 -0.73,-2.22 -1.69,0.88 -0.41,3.19 -2.79,-0.05 0.69,1.85 -1.42,0.65 -1.83,-1.43 -2.51,-2.4 -2.47,0.97 -1.55,-0.83 -0.87,-1.06 -1.1,1.43 -3.38,-1.66 -0.04,3.79 -12.85,-6.05 -1.92,0.28 -1.51,2.12 -3.48,-0.41 -2.06,2.59 -2.06,0.46 -1.28,-3.79 -1.1,-4.15 2.7,-7.48 -1.1,-6.37 -14.450002,-15.29 -2.74,-1.76 -1.37,-2.12 -3.52,-0.18 -3.11,-2.17 -2.93,1.8 -1.28,-2.17 -2.47,1.9 -1.6,-1.06 0.64,-2.26 -1.55,-6.33 3.43,-3.28 -1.6,-2.03 0.28,-2.17 0.87,-0.46 1.51,0.79 2.52,-0.69 0.37,-1.39 5.03,-3.23 0.5,-0.92 -3.61,0.56 -2.15,-5.04 1.6,-3.7 1.19,-10.03 2.15,-1.02 4.85,-5.83 2.29,-6.01 1.33,-7.49 -3.38,-2.17 2.06,-1.25 -0.91,-2.64 -2.65,0.28 -1.05,1.8 -4.48,-4.81 -4.53,1.53 -0.73,4.16 3.71,1.71 0.27,3.98 -2.01,0.83 -3.47,-1.16 -1.78,0.65 -1.83,4.12 -6.13,2.68 -2.74,2.96 -2.06,1.39 -1.19,4.07 1.14,3.24 -1.87,0.46 -4.57,-4.02 -2.38,-6.98 2.33,0.28 2.33,-2.87 1.69,-9.44 0.82,-2.54 -1.42,-0.56 -2.61,4.86 -5.99,0.37 0.18,-8.97 -1.1,-1.25 -0.59,-7.63 3.48,-2.31 4.71,-3.01 4.89,-0.09 3.89,-5.09 3.93,-1.2 0,-4.35 3.7,-0.74 0.09,-0.88 -1.97,-1.2 -2.1,0.32 -5.21,3.43 -4.85,-0.83 -5.3,3.1 -2.24,-1.25 -1.78,1.71 -0.14,2.17 -6.36,4.12 -3.52,0.93 -2.33,-3.42 0.23,-4.17 -1.78,-4.35 -1.37,0.32 -2.97,-3.89 1.01,-4.27 14.85,-28.45 9.04,-22.14 10.64,-14.95 6.27,-5.8 8.94,-0.37 15.61,1.7 32.380002,-17.41 8.47,-12.58 3.25,1.96 5.21,-1.21 6.56,2.28 6.45,-0.68 4.74,4.68 3.28,0.97 8.49,-4.27 6.17,1.86 3.76,-0.57 5.74,-2.51 1.69,-3.59 5.72,2.83 2.87,-0.11 4.22,-9.37 -0.55,-1.49 -1.8,0.98 0.85,-4 2.93,0.36 1.9,1.64 -1.4,2.82 2.09,2.4 4.67,-1.77 -0.51,3.81 2.12,1.14 1.5,0.53 5.61,-1.43 3.09,-2.37 2.65,-0.1 -1.08,-9.45 1.39,-7.85 -1.45,-11.37 2.43,-20.56 -14.09,-4.69 -2.72,-3.05 -1.66,-4.79 -8.81,-3.5 -3.55,-4.74 -8.06,-1.23 -2.35,-3.31 -1.48,-5.99 3.98,-2.27 3.03,-5.18 10.69,-1.31 0.33,-2.13 -1.57,-3.84 4.12,-0.15 1.79,4.03 4.55,-6.39 0.75,1.84 -1.92,5.02 0.7,0.5 5.16,-0.23 1.66,-3.9 6.24,4.96 1.84,-1.32 1.54,-5.05 2.4,-3.14 4.41,-2.12 1.32,-7.6 -1.3,-7.5 4.37,-7.43 -3.24,-9.61 -3.85,-4.17 -3.31,-12 -1.53,-12.17 39.85,1.52 z"
     title="Boké"
     id="GN-B" />
  <path
     d="m 211.20669,534.87104 1.83,0.09 -0.05,0.87 -2.61,0.74 0.83,-1.7 z m 5.67,-6.45 1.63,3.74 1.38,1.42 0.14,2.58 -1.83,3.32 0.27,-5.25 -3.15,-4.24 1.56,-1.57 z m -7.05,-1.47 2.15,1.15 -5.53,4.61 -1.05,5.3 -1.78,-2.99 0.64,-1.89 5.57,-6.18 z m 40.47,-41.02 0.41,2.82 3.47,0.98 7.91,-0.84 4.3,1.7 -6.24,6.56 -0.42,2.1 1.94,0.7 4.17,6.35 -7.88,10.57 2.06,4.23 -3.59,9.91 0,0 -4.88,-1.8 -7.22,-10.73 -2.01,-1.01 -8.87,4.84 -8,6.96 -1.28,0.18 -1.01,-1.61 1.33,-1.75 0.87,0.78 2.67,-1.44 0.66,-2.01 3.75,-3.96 -0.09,-3.59 1.42,-1.1 0.46,-2.99 4.98,-5.07 -0.59,-3.46 2.29,-12.54 2.06,0.05 2.06,-2.95 5.27,-1.88 z"
     title="Conakry"
     id="GN-C" />
  <path
     d="m 271.51669,566.36104 1.97,0.14 -0.09,1.84 -2.24,0 0.36,-1.98 z m -38.23,-90.85 4.02,4.06 0.41,2.77 -3.48,4.01 -4.3,2.54 0.32,0.92 -1.51,0.55 -1.97,-1.06 -3.52,-0.32 -5.94,-4.1 1.1,-4.24 2.1,-3.09 5.49,-0.92 2.24,-0.09 2.88,-0.28 2.16,-0.75 z m -3.57,-15.6 1.42,3.88 0.71,1.21 0,2.18 1.51,3.74 0.35,2.02 -1.4,1.4 -2.33,0.58 -8.62,-0.71 6.9,-10.92 1.46,-3.38 z m 0.01,-3.63 -0.2,-2.39 -3.68,-2.12 -6.83,-0.8 -16.82,-9.81 -3.95,-6.09 -5.78,-5.83 0,-5.03 11.82,-5.81 3.94,-8.74 6.83,-9.79 3.94,0 3.94,1.86 7.62,-3.17 7.89,6.1 4.99,0 1.84,-1.06 5.25,-11.65 0,-2.12 4.73,-3.17 2.63,-3.71 0,-1.85 1.31,0 0,-2.38 -3.16,-3.71 1.84,-4.24 1.31,0 -0.03,-1.86 2.89,-2.91 3.68,1.06 2.36,-2.91 4.73,1.06 0,-1.06 2.89,-1.85 2.1,-9.01 -3.16,-3.98 1.05,-2.91 3.94,-2.91 0,-2.12 2.89,-1.85 1.05,-2.92 -2.89,-4.25 -1.84,0 -2.37,-1.86 -8.41,1.85 0,-5.57 1.84,-3.18 0,-3.98 -6.05,-6.11 0.87,-0.79 -4.55,0 -4.2,1.85 -7.88,9.01 -14.44,11.93 -4.2,-0.8 -0.79,-4.24 -1.84,-1.06 -2.1,1.06 -1.84,-6.1 -4.99,1.32 -4.73,-4.25 -3.15,-0.8 -3.94,3.71 -7.88,-0.8 -1.84,3.98 0,4.77 -0.79,1.06 -2.37,-1.86 -0.79,0.8 0.79,2.39 -0.79,1.86 -2.89,-1.06 -7.89,-8.76 -1.84,0 0,-3.18 6.04,-10.87 3.67,-9.82 7.88,-2.91 3.68,-3.18 6.04,-1.85 7.88,-6.9 -0.83,-1.68 0.83,-2.31 -8.94,-9.83 1.05,-2.12 1.84,-0.79 1.05,-5.04 6.04,-2.12 2.89,-3.72 0.78,-6.11 -2.89,-6.11 -5.78,-0.8 2.89,-3.98 -0.79,-3.19 -2.1,-2.66 -2.1,0.8 -0.79,-2.92 -2.89,-0.8 -3.16,-4.25 3.94,1.07 5.78,-3.98 13.92,-3.71 2.89,1.86 7.88,-0.79 6.83,-4.25 2.89,-3.72 4.2,-1.06 11.56,1.87 6.83,-0.79 1.05,0.8 1.05,2.93 -4.2,7.97 1.32,2.92 2.89,0 13.4,-7.7 3.15,0 4.73,-2.12 4.21,0.8 0.79,2.39 -1.83,8.77 2.9,7.98 1.06,7.71 3.68,6.91 0.01,7.17 3.16,6.91 2.89,-0.79 -3.95,-11.16 1.05,-1.06 3.68,0 2.1,-1.86 2.1,0 5.78,-2.92 0.79,-2.12 3.15,0 1.05,1.06 5.52,-3.18 1.05,0 0,1.06 11.04,-1.05 0,0 2.89,1.06 2.63,5.05 0.01,7.17 1.05,0.8 4.99,1.07 7.09,-7.17 5.52,0 2.37,2.13 7.62,3.19 0,0 0,2.66 -3.94,2.92 -2.88,9.82 -3.94,-1.86 -1.05,2.92 -6.83,4.24 -1.05,3.72 -4.73,2.12 -2.1,2.92 0,5.84 -2.1,6.1 -0.78,10.61 1.85,7.17 4.21,5.04 -4.2,5.83 0,3.98 2.37,1.86 -3.41,3.98 -0.79,3.98 -1.84,-0.8 -1.05,1.85 4.74,6.9 1.06,6.89 3.94,0.8 7.09,-5.56 4.73,2.65 5.78,-0.79 2.89,2.92 2.89,0 6.05,5.84 2.89,0 2.1,-0.79 2.89,-2.91 0,-1.32 7.88,-6.62 1.84,-1.06 2.89,1.06 2.1,-1.06 5.78,-3.97 1.84,-2.91 10.24,-6.09 1.84,3.18 -3.15,1.85 0,6.89 3.16,3.19 3.68,0 4.21,2.65 -2.36,4.24 6.05,1.86 2.89,1.86 1.05,2.12 -2.1,2.65 -2.62,12.19 -2.89,2.91 0,6.89 2.89,2.92 0.79,6.09 8.94,0.8 3.68,-3.97 9.72,2.13 4.2,-0.79 3.68,0.8 1.05,1.06 0.01,6.89 2.1,3.98 3.94,3.71 0.79,5.03 4.21,1.86 4.74,10.06 1.06,8.74 -2.1,3.18 -3.68,1.06 -2.1,3.7 3.16,7.15 1.71,9.81 0,0 -13.16,-7.9 -33.69,7.14 -4.14,4.48 -3.82,-0.14 -3.11,1.96 1.27,5.37 -1.49,0.54 -0.18,3.13 -2.84,5.43 1.88,1.75 -3.43,1.58 1.43,4.84 -1.03,0.23 -1.73,-2.43 -5.02,2.96 -1.46,7.1 -1.91,-0.53 -0.72,1.49 1.01,4.19 -1.05,4.81 -3.82,-1.05 -1.03,0.84 -2.49,5.92 0.32,2.86 -2.25,0.05 -2.05,2.64 1.53,1.25 0.09,2.59 -4.58,7.49 -1.37,9.04 -2.75,-1.06 -1.43,4.31 -6.6,-1.15 -0.98,3.24 0.85,5.17 -3.95,0.52 -2.06,6.94 -3.72,2.3 -3.16,-0.71 -1.56,0.96 -5.28,-2.15 -1.35,3.36 -1.97,1.27 -6.91,-2.7 -3.91,8.52 0.44,8.79 -2.31,1.73 -3.52,9.77 -3.33,3.64 -6.42,1.37 -1.23,4 -1.82,1.04 -6.28,0.42 -7.23,-6 -3.74,-1.08 -5.38,3.27 -6.7,-0.41 -3.34,1.28 -5.91,4.56 -2.33,-3.54 0.09,-2.12 3.11,-1.24 1.37,-4.37 4.53,-5.38 2.84,-1.15 2.74,-3.18 -2.29,-1.29 -5.4,3.13 -5.9,0.41 -1.28,-0.97 -0.32,-4.37 2.15,-1.47 -1.05,-1.98 1.14,-3.36 -0.46,-4.46 -2.56,-4.28 -0.05,-6.21 3.02,-2.9 -1.42,-1.15 -3.47,0.6 -1.69,2.67 -0.69,7 -9.44,-0.08 0.12,-2.08 -2.79,-10.4 0.37,-5.43 1.92,-2.12 -0.27,-1.56 -2.97,1.06 -0.64,-1.38 -5.53,1.01 -5.94,-6.22 -2.53,-8.06 0,0 3.6,-9.91 -2.06,-4.23 7.88,-10.57 -4.17,-6.35 -1.94,-0.7 0.42,-2.1 6.24,-6.56 -4.3,-1.69 -7.91,0.84 -3.47,-0.98 -0.41,-2.82 0,0 1.2,-2.17 -2.83,1.06 -4.98,0.83 -3.34,-1.34 -0.37,-3.73 -0.73,-1.47 -4.71,-3.97 2.74,-5.49 -3.38,-1.61 -0.5,-1.8 1.28,-3.46 -1.37,-1.94 -0.37,-2.03 -3.28,-2.66 z"
     title="Kindia"
     id="GN-D" />
  <path
     d="m 782.00669,76.74104 2.98,0.07 2.6,4.67 1.31,-0.65 -0.53,-1.62 0.97,-1.38 2.61,0.93 3.09,-1.37 0.83,2.66 7.93,-0.23 1.88,2.28 5.72,2.42 9.91,-1.01 0,0 -3.94,4.6 -12.87,6.12 -2.89,2.67 -1.84,3.99 4.74,8 1.84,9.86 3.16,6.13 -0.79,1.87 -4.2,1.86 1.06,7.19 -1.84,2.66 -2.89,1.33 0.79,4 -4.99,4.79 -0.79,2.13 0.01,2.93 3.94,0.8 0,2.13 -2.1,2.13 0.79,3.72 -1.84,2.13 -2.89,0.8 -0.78,6.12 0.79,1.86 -1.83,9.05 3.94,1.86 3.94,6.13 7.62,0.8 4.21,2.13 2.63,3.99 4.2,-0.79 3.69,1.86 5.25,0.01 0.79,1.86 2.89,0 0,1.06 2.89,1.87 0.8,8.77 -2.63,-1.86 -3.94,4.25 0,3.72 -3.94,2.93 -2.1,-0.01 2.89,-2.92 0,-3.72 -0.79,1.86 -2.1,1.06 -2.63,0 -3.15,-2.13 -2.89,3.99 1.84,2.92 -4.73,0 -1.84,-2.13 1.83,-4.78 -4.99,2.12 -1.84,-6.12 -1.05,1.86 -2.89,0 0,-1.86 -3.94,-1.86 -2.11,0.79 2.11,2.93 -3.94,1.32 -3.95,-3.19 -2.1,5.05 1.06,1.06 -3.68,1.86 -2.1,-1.86 2.88,-4.25 -0.79,-4.79 -2.1,6.12 -2.1,-2.4 -1.05,1.06 -0.79,4.26 1.84,1.86 -5.77,7.97 -15.77,3.71 1.06,4.25 4.99,2.93 -11.82,9.82 -3.94,1.86 -8.67,-0.01 -6.04,-1.06 -2.89,-1.87 1.05,3.99 -1.05,-1.06 -3.68,-0.01 0.79,1.07 -0.79,3.98 -6.04,-0.8 -2.89,2.65 -1.31,2.13 2.37,5.84 -1.05,6.11 -3.15,1.06 -1.84,3.72 -3.94,1.85 -3.94,4.25 0.01,5.84 -3.94,3.98 1.05,0 0,1.06 -4.21,0.79 -1.83,2.13 -3.68,0.79 -1.05,2.39 -3.15,-0.01 -1.84,2.66 1.05,0 0.79,2.12 7.1,1.86 2.63,3.19 2.36,0.8 -0.91,0.92 6.43,2.53 3.15,-0.53 1.06,1.07 2.89,0 3.68,3.19 2.36,0 6.58,7.7 11.82,-1.06 2.1,1.07 5.78,-2.92 6.84,-1.05 3.95,12.73 3.94,7.17 3.17,12.73 0,1.06 -4.21,2.12 0,2.65 8.94,2.92 2.62,-5.57 2.37,2.66 1.84,-1.86 3.68,1.86 -0.79,2.92 2.89,0 1.05,-2.92 3.94,-0.79 1.84,-2.91 1.05,1.06 0.01,3.71 2.1,1.06 6.57,0.01 3.15,-2.12 1.05,1.06 -3.15,1.85 -1.05,5.04 1.84,-0.8 2.37,0.8 3.68,6.1 1.05,0 -1.84,-2.12 2.63,-1.85 -0.01,-2.92 2.37,0.8 1.84,-1.86 1.83,-6.89 1.05,0 0.8,3.72 -0.79,2.38 4.99,0.8 -2.1,1.85 0,3.98 -1.05,0.79 -1.84,-1.85 -1.84,0 -1.05,1.85 0.01,2.39 1.84,2.91 2.89,0.8 -1.84,2.91 -2.89,-1.06 1.05,2.39 -2.1,2.91 1.05,3.71 -1.83,0 0,2.12 -4.99,2.91 -3.95,-2.92 -3.15,0 0,2.12 1.84,0.79 0,2.92 -1.84,1.85 0,1.06 1.84,-1.06 0,1.06 -1.83,5.03 6.05,9.01 -2.89,3.71 -3.15,1.32 1.84,2.91 -4.73,0 -0.79,0.79 0.79,1.86 -1.84,2.11 -1.84,0 -2.1,3.97 -2.1,1.06 -2.62,-1.06 -1.05,1.85 1.05,5.29 -1.05,2.65 -6.04,7.14 2.9,5.56 0,3.18 3.16,9 -4.2,4.75 -2.63,0 -1.05,1.85 1.06,12.17 -2.89,0.79 -1.31,2.91 -1.84,0 -1.84,3.96 0.79,5.82 1.05,0 0.01,10.05 -3.94,6.87 2.11,6.08 2.63,-1.32 3.15,1.32 1.05,1.85 4.74,1.06 3.15,-1.05 7.88,1.06 1.84,-2.9 4.73,-2.38 3.15,-3.7 0,-1.85 6.56,-7.13 1.05,-5.02 2.1,-2.91 2.89,0.01 7.1,6.08 0.79,5.82 4.73,3.17 4.21,-2.37 5.51,-5.55 5.25,-1.85 7.89,1.86 9.73,6.88 -2.89,3.96 2.89,1.86 2.9,5.02 3.94,3.7 29.44,10.86 8.68,17.71 -0.78,2.11 -5.26,3.16 -2.62,3.7 0,7.92 -1.84,1.85 -3.41,-0.8 -6.57,1.85 -3.15,2.11 -0.79,3.96 3.95,5.81 0,4.75 5.78,1.06 4.21,2.11 0,2.11 -9.98,4.75 0,1.85 3.95,5.01 6.83,1.85 2.89,1.85 1.84,3.17 -1.05,7.13 -3.67,1.84 5.78,7.92 0.8,2.9 0,0 -6.58,-2.91 -6.04,0 -2.63,1.84 -5.25,0 -3.68,-1.85 -6.04,3.69 -1.84,3.95 -8.93,1.31 -2.63,-2.37 -3.16,1.05 -2.1,3.16 -3.67,1.85 -1.06,-1.06 -2.1,2.11 -1.05,-2.11 -1.84,2.11 -2.89,-2.11 -0.79,-9.76 -1.06,-1.85 1.05,-8.97 -1.05,-0.79 -3.16,0.79 0.01,4.75 -1.84,4.22 -4.99,1.05 -1.84,1.84 -5.78,-1.85 -0.01,-7.12 -3.15,-0.79 -6.57,7.9 -3.15,0 0,-5.27 -3.94,-0.8 -1.85,-4.75 -4.99,0 -1.05,-1.32 -2.63,-0.01 -1.05,-2.9 -1.32,0 1.32,-1.85 -0.01,-7.91 -3.16,-5.02 -1.84,-1.05 -2.89,-0.01 -1.05,1.06 -1.04,6.86 -3.94,3.16 -12.61,2.9 -0.79,1.05 -4.21,0 1.05,-2.91 -1.05,-2.37 6.04,-5.54 0,-3.16 -3.16,-3.97 0,-3.69 -1.84,4.75 -2.1,1.84 -12.61,0 -3.94,3.16 -1.84,-2.11 -1.75,1.09 0,0 -10.45,-4.11 -7.88,1.01 -4.15,-1.46 1.2,-7.76 1.91,-2.13 0.04,-3.23 -1.51,-3.32 0.84,-2.32 3.81,0.58 5.18,-2.65 0.04,-2.74 -1.93,-3.93 1.96,-8.34 -4.3,-3.97 -3.65,-1.68 0.08,-2.29 -3.27,-5.26 -2.85,-0.77 -3.58,0.52 -4.8,-1.49 -1.72,1.63 -0.84,-0.95 2.11,-4.61 -6.82,-4.7 -0.91,-1.98 1.34,-2.7 -1.25,-4.05 2.93,-1.97 0.5,-1.76 -4.88,-1.11 -2.74,-2.14 2.37,-3.43 -8.49,-7.26 -1.71,-7.97 -6.83,-2.33 -2.39,-8.28 -10.1,-13.9 -9.65,-8.33 -9.39,-5.2 -3.39,-16.04 -5.23,-4.09 -44.04,0.13 0,0 1.02,-9.22 4.99,-5.02 0.79,-4.77 3.93,-5.02 1.84,-6.09 1.31,-9.8 1.83,-2.91 -0.01,-12.72 -1.85,-16.96 -1.31,-3.18 -7.62,-0.8 -11.04,-5.84 -2.9,0 0,-3.98 2.1,-6.89 -1.05,-2.12 1.05,0 0.78,-5.83 3.15,-0.79 1.84,-4.25 0,-4.77 3.94,-6.1 0.78,-3.71 -1.84,-1.33 3.15,-4.77 -1.32,-6.1 2.36,-4.78 -3.15,-3.98 -6.57,-4.78 -4.21,0.79 -1.05,-5.05 2.88,-6.63 8.93,-7.96 11.04,3.73 6.57,0 12.09,-2.64 7.35,-5.31 13.13,-5.56 2.63,-4.25 -11.56,-3.73 -4.21,-2.92 -3.68,-5.05 -3.68,0.79 -5.26,-5.85 -5,-14.88 0,0 -0.01,-6.91 12.08,-15.94 6.83,-2.92 5.78,0 0.79,-1.86 4.2,-1.86 5.78,-6.11 -1.06,-3.72 1.84,0 -0.79,-2.4 -2.1,-1.86 -5.78,-1.87 -3.95,0.8 -2.89,-4.79 0,-2.13 1.05,-1.86 6.83,-2.92 3.94,-4.26 -1.05,-1.86 -2.9,-0.8 0,-1.07 3.94,-6.12 6.83,-0.79 1.84,-2.13 2.89,-6.92 -0.8,-17.84 0.78,-1.86 4.21,-2.93 -6.05,-1.87 -2.89,-4.26 -5,0 -3.68,-1.87 -1.05,-1.87 1.05,-2.39 -0.01,-8.53 -1.98,-4.14 0,0 4.5,-4.37 -1,-3.24 0.78,-2.38 4.96,-0.3 0.81,-3.96 5.2,-2.8 4.61,-14.36 4.84,2.59 4.89,-0.53 3.05,-2.07 3.84,0.63 2.51,-0.85 3.42,1.63 0.81,1.97 2.04,-0.23 2.25,6.89 5.22,4.94 9.04,3.72 0.86,7.28 -1.66,4.72 2.86,4.46 3.51,2.87 1.8,5.18 -0.97,3.15 3.3,4.58 2.35,0.16 4.41,3.78 2.96,-0.15 5.29,-3.22 -0.03,-2.73 4.53,-7.9 2.19,0.43 6.01,-3.94 -2.64,-2.71 0.12,-1.34 7.5,-1.63 1.61,-1.59 0.23,-5.83 2.7,-1.3 -1.87,-4.85 2.2,-1.49 8.91,0.27 5.76,-3.51 0.54,-5.27 2.4,-0.63 4.13,1.46 1.73,-1.34 0.4,-2.77 3.81,0.83 0.47,-2.54 -1.49,-3.01 0.31,-0.85 z"
     title="Faranah"
     id="GN-F" />
  <path
     d="m 960.27669,30.00104 7.14,1.97 7.7,0.41 11.29,7.53 6.62,1.79 3.4,2.61 2.69,4.82 6.55001,5.97 1.85,4.63 -4.83,6.7 -0.97,9.93 2.46,1.61 2.2,3.92 3.88,0.46 0.75,-2.23 1.97,0.06 -0.02,1.92 1.73,0.29 1.86,2.79 1.01,2.82 -1.08,8.53 -1.94,0.98 -0.71,5.88 1.05,3.13 2.77,0.18 4.05,2.81 2.57,-3.13 3.88,0.5 4.44,5.66 -1.78,5.44 3.5,8.15 -9.78,49.38 5.3,0.36 4.02,1.95 2.05,-1.21 4.14,2.5 4.35,-3.92 6.93,-0.89 1.52,1.82 -1.07,8.1 2.59,1.87 3.13,10.97 6.83,7.76 2.74,-0.65 3.23,2.23 1.76,-2.62 4.99,-3.14 1.6,1.37 1.3,4.42 -1.5,0.63 0.02,1.35 2.94,2.06 1.12,3.27 7.53,2.96 9.79,-0.12 3.45,2.47 -5.74,1.24 -1.81,4.08 0.59,1.35 2.72,0.95 6.02,0.15 -1.96,6.96 -7.46,1.45 -9.36,-3.06 -3.31,4.34 2.11,6.81 -13.15,2.89 -1.14,3.13 1.48,5.16 -1.11,2.52 -1.67,2.32 -4.98,-0.33 -1.82,1.33 0.29,5.14 -4.03,4.21 -0.85,5.01 -5.11,4.32 0.68,8.75 2.67,1.02 6.35,-2.69 5.26,2.51 8.98,-4.35 3.44,0.72 1.98,-9.9 3.39,-5.6 1.58,-0.6 7.79,-0.57 3.28,1.64 4.69,-2.18 4.83,1.21 3.99,3.31 6,8.84 -0.69,3.94 2.02,7.65 0.56,12.07 -1.06,2.75 -3.97,2.45 -3.75,9.99 5.5,1.82 -1.87,5.76 1.72,4.54 -0.83,8.79 1.84,3.43 0.19,3.75 2.61,2.56 -0.56,9.48 2.38,3.32 0.07,3.98 2.81,1.9 3.19,9.22 8.58,1.82 5.36,-3.69 3.33,-0.15 1.02,4.87 3.72,5.78 15.87,3.29 4.39,4.11 1.26,3.11 2.26,8.93 -0.86,5.19 -4.23,5.03 -6.31,13.72 -4.71,3.95 -10.14,4.39 -4.66,6.5 -0.38,2.58 -2.39,2.07 2.19,1.86 2.8,-1.26 0.61,3.06 -5.69,3.4 -2.16,1.73 0.77,2.42 1.29,0.51 2.95,-0.08 1.73,1.44 -0.68,3.08 -1.98,-0.52 -0.45,2.63 4.95,0.4 0.94,1.92 -0.88,2.82 1.9,1.01 -1.3,5.79 -1.84,1.12 1.16,4.36 -1.66,1.93 -0.98,1.93 1.04,5.47 -2.17,2.99 1.14,3.22 0.27,2.71 -0.95,3 -2.99,1.87 1.34,2.07 -0.63,4.78 0,0 -33.39,1.03 -5.52,1.84 -7.88,6.08 -4.2,-1.86 -3.68,0 -1.05,0.79 1.05,3.97 -2.1,3.96 -3.15,-0.8 -2.63,3.7 -1.05,-1.85 -1.84,0.79 -1.04,6.08 -5,1.05 -1.05,-3.17 -1.84,-1.06 -0.79,-4.76 -1.32,-1.85 -1.05,1.06 0,2.64 -1.83,2.91 1.85,14 0.01,11.62 -2.89,2.9 -0.79,7.13 -2.88,5.02 0,4.75 -4.99,3.96 -2.89,3.95 -1.05,6.87 -2.09,4.74 0,5.02 1.32,3.96 3.68,5.02 0,3.69 -2.89,3.16 -12.87,4.74 -3.68,4.22 -2.88,6.59 -1.32,0 -15.49,12.12 -2.1,0.79 -9.73001,-3.96 -8.93,-1.07 -16.29,6.06 -6.05,-0.01 -8.93,-3.17 -11.57,-10.82 -12.88,-7.92 -4.73,-0.01 -17.87,5 -12.87,-0.8 0,0 -0.8,-2.9 -5.78,-7.92 3.67,-1.84 1.05,-7.13 -1.84,-3.17 -2.89,-1.85 -6.83,-1.85 -3.95,-5.01 0,-1.85 9.98,-4.75 0,-2.11 -4.21,-2.11 -5.78,-1.06 0,-4.75 -3.95,-5.81 0.79,-3.96 3.15,-2.11 6.57,-1.85 3.41,0.8 1.84,-1.85 0,-7.92 2.62,-3.7 5.26,-3.16 0.78,-2.11 -8.68,-17.71 -29.44,-10.86 -3.94,-3.7 -2.9,-5.02 -2.89,-1.86 2.89,-3.96 -9.73,-6.88 -7.89,-1.86 -5.25,1.85 -5.51,5.55 -4.21,2.37 -4.73,-3.17 -0.79,-5.82 -7.1,-6.08 -2.89,-0.01 -2.1,2.91 -1.05,5.02 -6.56,7.13 0,1.85 -3.15,3.7 -4.73,2.38 -1.84,2.9 -7.88,-1.06 -3.15,1.05 -4.74,-1.06 -1.05,-1.85 -3.15,-1.32 -2.63,1.32 -2.11,-6.08 3.94,-6.87 -0.01,-10.05 -1.05,0 -0.79,-5.82 1.84,-3.96 1.84,0 1.31,-2.91 2.89,-0.79 -1.06,-12.17 1.05,-1.85 2.63,0 4.2,-4.75 -3.16,-9 0,-3.18 -2.9,-5.56 6.04,-7.14 1.05,-2.65 -1.05,-5.29 1.05,-1.85 2.62,1.06 2.1,-1.06 2.1,-3.97 1.84,0 1.84,-2.11 -0.79,-1.86 0.79,-0.79 4.73,0 -1.84,-2.91 3.15,-1.32 2.89,-3.71 -6.05,-9.01 1.83,-5.03 0,-1.06 -1.84,1.06 0,-1.06 1.84,-1.85 0,-2.92 -1.84,-0.79 0,-2.12 3.15,0 3.95,2.92 4.99,-2.91 0,-2.12 1.83,0 -1.05,-3.71 2.1,-2.91 -1.05,-2.39 2.89,1.06 1.84,-2.91 -2.89,-0.8 -1.84,-2.91 -0.01,-2.39 1.05,-1.85 1.84,0 1.84,1.85 1.05,-0.79 0,-3.98 2.1,-1.85 -4.99,-0.8 0.79,-2.38 -0.8,-3.72 -1.05,0 -1.83,6.89 -1.84,1.86 -2.37,-0.8 0.01,2.92 -2.63,1.85 1.84,2.12 -1.05,0 -3.68,-6.1 -2.37,-0.8 -1.84,0.8 1.05,-5.04 3.15,-1.85 -1.05,-1.06 -3.15,2.12 -6.57,-0.01 -2.1,-1.06 -0.01,-3.71 -1.05,-1.06 -1.84,2.91 -3.94,0.79 -1.05,2.92 -2.89,0 0.79,-2.92 -3.68,-1.86 -1.84,1.86 -2.37,-2.66 -2.62,5.57 -8.94,-2.92 0,-2.65 4.21,-2.12 0,-1.06 -3.17,-12.73 -3.94,-7.17 -3.95,-12.73 -6.84,1.05 -5.78,2.92 -2.1,-1.07 -11.82,1.06 -6.58,-7.7 -2.36,0 -3.68,-3.19 -2.89,0 -1.06,-1.07 -3.15,0.53 -6.43,-2.53 0.91,-0.92 -2.36,-0.8 -2.63,-3.19 -7.1,-1.86 -0.79,-2.12 -1.05,0 1.84,-2.66 3.15,0.01 1.05,-2.39 3.68,-0.79 1.83,-2.13 4.21,-0.79 0,-1.06 -1.05,0 3.94,-3.98 -0.01,-5.84 3.94,-4.25 3.94,-1.85 1.84,-3.72 3.15,-1.06 1.05,-6.11 -2.37,-5.84 1.31,-2.13 2.89,-2.65 6.04,0.8 0.79,-3.98 -0.79,-1.07 3.68,0.01 1.05,1.06 -1.05,-3.99 2.89,1.87 6.04,1.06 8.67,0.01 3.94,-1.86 11.82,-9.82 -4.99,-2.93 -1.06,-4.25 15.77,-3.71 5.77,-7.97 -1.84,-1.86 0.79,-4.26 1.05,-1.06 2.1,2.4 2.1,-6.12 0.79,4.79 -2.88,4.25 2.1,1.86 3.68,-1.86 -1.06,-1.06 2.1,-5.05 3.95,3.19 3.94,-1.32 -2.11,-2.93 2.11,-0.79 3.94,1.86 0,1.86 2.89,0 1.05,-1.86 1.84,6.12 4.99,-2.12 -1.83,4.78 1.84,2.13 4.73,0 -1.84,-2.92 2.89,-3.99 3.15,2.13 2.63,0 2.1,-1.06 0.79,-1.86 0,3.72 -2.89,2.92 2.1,0.01 3.94,-2.93 0,-3.72 3.94,-4.25 2.63,1.86 -0.8,-8.77 -2.89,-1.87 0,-1.06 -2.89,0 -0.79,-1.86 -5.25,-0.01 -3.69,-1.86 -4.2,0.79 -2.63,-3.99 -4.21,-2.13 -7.62,-0.8 -3.94,-6.13 -3.94,-1.86 1.83,-9.05 -0.79,-1.86 0.78,-6.12 2.89,-0.8 1.84,-2.13 -0.79,-3.72 2.1,-2.13 0,-2.13 -3.94,-0.8 -0.01,-2.93 0.79,-2.13 4.99,-4.79 -0.79,-4 2.89,-1.33 1.84,-2.66 -1.06,-7.19 4.2,-1.86 0.79,-1.87 -3.16,-6.13 -1.84,-9.86 -4.74,-8 1.84,-3.99 2.89,-2.67 12.87,-6.12 3.94,-4.6 0,0 3.57,6.62 2.35,-0.22 2.23,-0.22 2.45,2.17 3.74,0.1 5.09,4.99 2.93,-1.29 1.84,1.44 4.5,-0.17 1.02,2.82 4.17,4.1 12.02,0.07 6.63,4.15 11.5,1.35 0.63,-5.64 2.67,-1.52 0.67,-2.04 -0.34,-7.51 7.79,-8.22 10.03,-3.05 4.62,-0.27 5.96,-4.04 4.27,-4.85 10.64,-2.43 1.49,1.67 2.36,-0.75 8.37,1.99 -0.24,-3.35 1.97,-0.02 1.66,-1.64 -0.44,-7.32 2.28,-1.1 0.27,-4.2 1.55,-1.72 -6.02,-3.09 -1.09,-3.71 -2.88,-0.99 -1.91,-2.09 -2.39,-4.99 -3.16,0.47 -0.17,-2.85 5.75,-2 1.27,-3.72 3.69,0.45 0.63,2.7 1.71,-0.99 0.95,-2.99 5.83,3.13 1.6,-2.3 3.48,-1.17 z"
     title="Kankan"
     id="GN-K" />
  <path
     d="m 601.93669,42.30104 6.88,1.89 0.96,4.05 -6.44,1.93 -0.57,-2.93 -3.84,2.81 -0.37,3.51 -1.34,1.19 1.69,2.66 0.81,8.01 -2.47,2.62 -0.54,3.04 -3.85,2.42 -3.5,4.85 0.54,5.2 4.19,6.66 4.85,2.81 10.47,3.01 2.57,4.15 -0.23,3.2 8.13,6.47 9.04,4.81 3.15,-0.58 4.24,-3.65 4.67,0.06 3.09,-2.66 0,0 1.98,4.14 0.01,8.53 -1.05,2.39 1.05,1.87 3.68,1.87 5,0 2.89,4.26 6.05,1.87 -4.21,2.93 -0.78,1.86 0.8,17.84 -2.89,6.92 -1.84,2.13 -6.83,0.79 -3.94,6.12 0,1.07 2.9,0.8 1.05,1.86 -3.94,4.26 -6.83,2.92 -1.05,1.86 0,2.13 2.89,4.79 3.95,-0.8 5.78,1.87 2.1,1.86 0.79,2.4 -1.84,0 1.06,3.72 -5.78,6.11 -4.2,1.86 -0.79,1.86 -5.78,0 -6.83,2.92 -12.08,15.94 0.01,6.91 0,0 -1.84,0 1.05,2.13 -7.62,-2.14 0.79,6.12 -9.72,1.85 -9.98,5.84 -11.82,14.86 -5.51,2.92 -7.1,-0.8 -5.78,6.9 -2.89,1.06 0.01,2.65 -6.05,5.31 -14.45,-2.93 -6.05,-3.19 -5,-9.83 0,-2.92 3.15,-7.97 0.79,0.8 -0.79,-5.85 -6.05,-4.79 -7.88,-2.13 -1.85,-1.86 -1.05,-3.99 -2.89,-1.06 -3.16,-5.05 -5.52,-1.07 -4.2,0 -7.88,2.38 -1.84,1.86 -4.72,13.55 -7.88,4.24 0,1.07 -4.2,2.65 -1.84,-0.8 -4.74,-7.97 -3.15,0 -11.56,3.97 -5,-2.13 -4.72,9.03 -2.1,-1.06 -0.79,-1.86 -6.05,-1.07 -1.05,-1.86 -2.63,-10.9 0.78,-8.76 -2.11,-2.4 -2.89,1.06 -1.05,-2.92 -3.68,-1.07 -2.1,-3.72 -9.99,2.91 -1.84,-1.06 -0.78,1.86 -2.9,0 2.9,2.13 -2.1,3.98 -3.94,2.92 -3.94,0 -0.79,2.92 -4.2,2.12 0,2.93 -3.68,2.92 -1.04,7.97 -3.94,6.1 0,0 -7.62,-3.19 -2.37,-2.13 -5.52,0 -7.09,7.17 -4.99,-1.07 -1.05,-0.8 -0.01,-7.17 -2.63,-5.05 -2.89,-1.07 0,0 2.89,-3.71 -1.85,-9.04 4.47,-3.98 -3.69,-6.65 2.89,-4.25 2.89,-2.92 7.88,-3.72 -1.05,-1.33 6.04,-5.85 13.66,-5.84 0.78,-2.12 3.16,-0.8 1.04,-6.12 8.67,-5.84 1.05,1.06 1.05,-1.06 -2.89,-5.06 0.79,-1.86 -0.79,-3.19 -2.1,2.12 -1.06,-2.13 -3.94,-1.06 0,-1.87 -2.89,-0.8 0,-2.92 -2.11,-1.07 0,-3.19 -2.89,1.06 -2.89,-1.87 0,-2.13 4.99,-2.66 0.78,-5.32 -2.89,-3.73 -0.79,-9.05 5.78,-1.86 1.04,-3.2 -1.05,-5.59 -6.84,-7.2 6.04,-6.92 -7.88,-4 -1.06,-8.8 1.84,-1.06 2.09,-6.13 -2.1,-3.74 1.05,-2.13 -2.89,-2.14 12.6,-17.85 30.47,-16.79 0.79,-2.13 1.13,0 0,0 2.58,-0.54 6.18,-4.34 5.28,-0.29 11.54,5.08 7.24,9.6 2.7,0.68 17.92,-7.99 12.44,-2.18 10.27,-8.92 3.48,0.64 4.29,-0.95 4.06,3.96 4.32,0.45 15.71,-5.7 8.87,5.61 14.46,1.6 8.09,-0.94 8,-5.02 10.45,-0.59 11.36,-2.66 11.8,0.22 z"
     title="Labé"
     id="GN-L" />
  <path
     d="m 376.54669,261.54104 3.94,-6.1 1.04,-7.97 3.68,-2.92 0,-2.93 4.2,-2.12 0.79,-2.92 3.94,0 3.94,-2.92 2.1,-3.98 -2.9,-2.13 2.9,0 0.78,-1.86 1.84,1.06 9.99,-2.91 2.1,3.72 3.68,1.07 1.05,2.92 2.89,-1.06 2.11,2.4 -0.78,8.76 2.63,10.9 1.05,1.86 6.05,1.07 0.79,1.86 2.1,1.06 4.72,-9.03 5,2.13 11.56,-3.97 3.15,0 4.74,7.97 1.84,0.8 4.2,-2.65 0,-1.07 7.88,-4.24 4.72,-13.55 1.84,-1.86 7.88,-2.38 4.2,0 5.52,1.07 3.16,5.05 2.89,1.06 1.05,3.99 1.85,1.86 7.88,2.13 6.05,4.79 0.79,5.85 -0.79,-0.8 -3.15,7.97 0,2.92 5,9.83 6.05,3.19 14.45,2.93 6.05,-5.31 -0.01,-2.65 2.89,-1.06 5.78,-6.9 7.1,0.8 5.51,-2.92 11.82,-14.86 9.98,-5.84 9.72,-1.85 -0.79,-6.12 7.62,2.14 -1.05,-2.13 1.84,0 0,0 5,14.88 5.26,5.85 3.68,-0.79 3.68,5.05 4.21,2.92 11.56,3.73 -2.63,4.25 -13.13,5.56 -7.35,5.31 -12.09,2.64 -6.57,0 -11.04,-3.73 -8.93,7.96 -2.88,6.63 1.05,5.05 4.21,-0.79 6.57,4.78 3.15,3.98 -2.36,4.78 1.32,6.1 -3.15,4.77 1.84,1.33 -0.78,3.71 -3.94,6.1 0,4.77 -1.84,4.25 -3.15,0.79 -0.78,5.83 -1.05,0 1.05,2.12 -2.1,6.89 0,3.98 2.9,0 11.04,5.84 7.62,0.8 1.31,3.18 1.85,16.96 0.01,12.72 -1.83,2.91 -1.31,9.8 -1.84,6.09 -3.93,5.02 -0.79,4.77 -4.99,5.02 -1.02,9.22 0,0 -67.76,0.37 -2.04,8.59 -1.37,1.65 -35.14,10.61 -4.46,-0.86 0,0 -1.72,-9.82 -3.15,-7.14 2.1,-3.71 3.67,-1.05 2.1,-3.18 -1.05,-8.73 -4.74,-10.06 -4.21,-1.86 -0.79,-5.03 -3.94,-3.71 -2.11,-3.98 0,-6.88 -1.05,-1.06 -3.68,-0.8 -4.21,0.79 -9.72,-2.13 -3.68,3.97 -8.93,-0.8 -0.79,-6.09 -2.9,-2.92 0,-6.89 2.89,-2.91 2.62,-12.19 2.1,-2.64 -1.06,-2.13 -2.89,-1.85 -6.04,-1.86 2.36,-4.24 -4.21,-2.66 -3.68,0 -3.15,-3.18 -0.01,-6.9 3.16,-1.85 -1.85,-3.19 -10.24,6.1 -1.84,2.91 -5.78,3.97 -2.1,1.06 -2.89,-1.06 -1.84,1.06 -7.88,6.62 0,1.33 -2.88,2.91 -2.11,0.79 -2.89,0 -6.04,-5.84 -2.89,0 -2.9,-2.92 -5.78,0.79 -4.73,-2.65 -7.09,5.56 -3.94,-0.8 -1.06,-6.89 -4.73,-6.9 1.05,-1.85 1.84,0.79 0.78,-3.97 3.42,-3.98 -2.37,-1.86 0,-3.98 4.2,-5.83 -4.21,-5.04 -1.85,-7.17 0.79,-10.61 2.09,-6.1 0,-5.84 2.1,-2.92 4.73,-2.12 1.05,-3.72 6.83,-4.24 1.04,-2.92 3.95,1.86 2.88,-9.82 3.94,-2.92 z"
     title="Mamou"
     id="GN-M" />
  <path
     d="m 1141.9367,524.64104 1.36,0.86 -0.2,3.51 3.7,6.29 8.44,10.63 15.18,0.95 8.62,-3.89 3.96,0.43 1.41,-3.11 5.46,-0.35 -2.72,10.35 -3.61,5.47 0.16,8.57 -6.3,12.15 0.96,5.04 6.26,4.84 4.75,-3.34 3.27,0.5 -0.77,4.02 4.24,1.66 0.02,1.88 3.94,3.82 8.48,4.65 -4.68,1.96 -7.92,-2.65 -4.59,1.88 -3.98,5.05 -6.78,3.65 -1.97,2.37 0.19,6.13 -6.21,16.16 -1.07,9.76 3.44,5.14 4.04,2.29 9,-2.01 6.14,1.94 5.52,-1.23 3.71,1.88 7.23,16.93 5.99,19 4.36,6.44 0.14,3.38 -3.49,6.11 2.53,6.52 4.11,5.22 -17.13,0.68 -7.13,-14.94 -6.39,-4.38 -1.72,3.58 0.79,5.9 -3.21,2.12 -5.63,0.5 0.31,-2.96 -3.99,-0.13 -2.02,-1.93 0.3,-2.53 1.03,-3.41 -4.1,-2.94 -2,1.23 -3.4,-0.84 -2.35,2.47 -9.85,-1.91 -3.32,-1.86 -2.75,1.44 -2.23,-1.32 -4.21,2.84 -2.16,0.12 -3.9,-1.38 -1.94,0.66 -1.43,-1.34 -3.3,-0.19 -1.26,3.28 -2.87,2.25 -1.98,0.39 -1.68,3.84 3.28,14.48 -2.02,4.49 1.27,7.84 -2.66,3.31 -0.27,4.01 2.92,1.66 1.85,-1.32 6.5,5.65 8.76,0.6 6.14,4.8 3.32,0.93 4.82,-7.27 3.57,3.16 3.21,-2.01 0.85,2.47 -2.58,3.27 -0.91,10.16 0.63,1.38 4.86,2.41 2.93,5.31 2.76,0.79 0.16,4.86 -0.43,0.94 -4.03,-1.6 -1.91,0.99 -1.24,-1.19 0.45,-2.76 -1.84,-0.71 -1.57,1.2 -5.09,-0.14 -2.79,1.66 -0.97,1.93 1.68,1.82 -2.04,6.88 -8.47,16.45 0.42,2.31 7.06,6.01 0.07,2.99 -2.42,3.57 -1.32,7.68 -4.88,1.86 -2.66,2.89 -0.63,6.23 -4.65,5.87 -0.12,6.32 -3.44,6.04 -3.52,1.87 -6.97,-5.59 -5.29,-1.56 -2.2,-4.02 -3.25,0.32 -3.95,3.4 -3.76,1.01 -1.7,-1.03 -0.83,-4.62 -1.37,-0.86 -4.02,0.67 -9.01,8.83 -15.32,-11.76 1.73,-3.92 -0.82,-7.09 -16.4,-0.59 -4.65,6.73 -3.16,2.54 0.44,3.67 -3.05,10.82 0.52,1.14 1.29,-0.22 0.43,6.32 -7.93,8.9 -2.99,1.04 -0.75,5.91 -2.77,0.17 -2.39,1.62 -5.69,8.91 2.09,5.83 -0.84,2.54 0.78,2.16 -2.4,3.32 -2.54,0.86 -6.48,-0.49 -2.1,-4.44 -3.52,0.4 0.6,2.01 -1.26,1.78 -2,-1.19 -1.76,2.99 -8.72001,1.32 -8.1,7.04 -3.02,-0.28 -3.31,1.5 1.7,-5.32 -3.2,-5.09 -0.41,-2.81 -6.21,0.05 -6,-4.91 -1.8,-2.88 -0.82,-5.04 0.67,-4.84 -4.15,-1.45 -7.78,1.62 -2.31,-1.41 -1.1,-5.69 -2.35,-1.06 -3.38,0.82 -3.29,-0.85 -5.03,5.96 -2.69,0.75 -2.29,-5.76 -7.52,5.23 -3.5,4.91 -0.15,-2.27 3.68,-9.57 6.2,-6.26 6.97,-18.26 3.17,-4.91 0.42,-2.23 -2.9,-3.3 0.25,-5.99 4.4,-11 -0.85,-4.21 -1.36,-0.15 -0.33,-3.47 -5.11,-2.16 -5.44,-8.77 -1.48,-14.14 3.74,-5.21 -1.91,-3.39 -0.05,-2.82 -1.58,-1.52 0.59,-3.56 -4.26,2.62 -1.06,-0.69 2.51,-5.82 -2.39,-5.63 -0.7,-9.98 -9.28,-2.22 1.65,-8.49 -1.12,-1.98 4.69,-4.07 -2.49,-3.01 0.37,-4.21 -3.15,-2.5 5.59,-3.71 1.37,-2.42 -0.36,-2.24 -8.77,-1.09 -4.57,-3.29 -3.05,-4.88 -4.35,4.3 -8.02,0.75 -0.17,-3.04 5.08,-5.06 -0.52,-1.22 -5.33,-4.97 -5.16,-0.48 -2.1,1.77 -0.75,5.2 -1.37,0.82 -0.94,-3.23 -3.61,-4.96 1.61,-4.28 -3.96,-4.88 -2.24,-0.4 -3.04,3.06 -1.4,-0.2 -0.73,1.37 1.69,2.29 -1.68,1.62 -4.67,0.2 -2.33,2.3 -2,-2.18 -9.95,0.44 -8.92,5.41 -3.51,3.97 -3.53,-0.1 -6.4,3.46 -2.01,-1.38 2.08,-11 -5.26,-3.67 -2.28,0.44 -4.1,-1.65 -3.38,1.01 -2.89,0.74 -4.88,2.52 -3.18,3.15 -2.79,-0.21 -1.97,-0.93 -4.59,-0.7 -2.88,1.12 -7.33,-2.99 -5.36,2.44 -3.62,-0.79 -3.7,7.07 -3.77,3.36 -3.52,5.72 -9.79,9.79 -6.81,4.68 -4.29,-0.05 -1.13,-2.97 -1.75,-1.04 -12.66,-1.43 -3.89,6.21 -0.5,4.97 -3,0.37 1.1,-1.89 -0.67,-3.68 3.33,-9.07 7.07,-4.68 -0.66,-6 1.24,-8.62 1.67,-1.13 1.45,-1.25 1.36,-8.42 3.31,-1.32 3.16,-3.64 0.58,-3.99 2.17,0.01 3.65,-2.64 3.5,0.24 6.78,-4.57 0.01,-2.4 2.03,-3.68 -2.21,-0.92 -1.84,-3.62 -2.13,-2.21 -1.77,-2.4 -0.91,-1.26 -2.07,-5.78 -5.15,-4.73 -3.27,-0.55 0.58,-2.85 -2.09,-11.26 0.67,-7.11 -1.05,-6.81 2.44,-10.38 -2.19,-3.37 0,0 1.75,-1.09 1.84,2.11 3.94,-3.16 12.61,0 2.1,-1.84 1.84,-4.75 0,3.69 3.16,3.97 0,3.16 -6.04,5.54 1.05,2.37 -1.05,2.91 4.21,0 0.79,-1.05 12.61,-2.9 3.94,-3.16 1.04,-6.86 1.05,-1.06 2.89,0.01 1.84,1.05 3.16,5.02 0.01,7.91 -1.32,1.85 1.32,0 1.05,2.9 2.63,0.01 1.05,1.32 4.99,0 1.85,4.75 3.94,0.8 0,5.27 3.15,0 6.57,-7.9 3.15,0.79 0.01,7.12 5.78,1.85 1.84,-1.84 4.99,-1.05 1.84,-4.22 -0.01,-4.75 3.16,-0.79 1.05,0.79 -1.05,8.97 1.06,1.85 0.79,9.76 2.89,2.11 1.84,-2.11 1.05,2.11 2.1,-2.11 1.06,1.06 3.67,-1.85 2.1,-3.16 3.16,-1.05 2.63,2.37 8.93,-1.31 1.84,-3.95 6.04,-3.69 3.68,1.85 5.25,0 2.63,-1.84 6.04,0 6.58,2.91 0,0 12.87,0.8 17.87,-5 4.73,0.01 12.88,7.92 11.57,10.82 8.93,3.17 6.05,0.01 16.29,-6.06 8.93,1.07 9.73001,3.96 2.1,-0.79 15.49,-12.12 1.32,0 2.88,-6.59 3.68,-4.22 12.87,-4.74 2.89,-3.16 0,-3.69 -3.68,-5.02 -1.32,-3.96 0,-5.02 2.09,-4.74 1.05,-6.87 2.89,-3.95 4.99,-3.96 0,-4.75 2.88,-5.02 0.79,-7.13 2.89,-2.9 -0.01,-11.62 -1.85,-14 1.83,-2.91 0,-2.64 1.05,-1.06 1.32,1.85 0.79,4.76 1.84,1.06 1.05,3.17 5,-1.05 1.04,-6.08 1.84,-0.79 1.05,1.85 2.63,-3.7 3.15,0.8 2.1,-3.96 -1.05,-3.97 1.05,-0.79 3.68,0 4.2,1.86 7.88,-6.08 5.52,-1.84 33.39,-1.03 0,0 -0.4,7.87 z"
     title="Nzérékoré"
     id="GN-N3" />
</svg>
