<?xml version="1.0" encoding="UTF-8" standalone="no"?>
<!-- Created for MapSVG plugin: http://mapsvg.com -->
<svg
   xmlns:mapsvg="http://mapsvg.com"
   xmlns:dc="http://purl.org/dc/elements/1.1/"
   xmlns:rdf="http://www.w3.org/1999/02/22-rdf-syntax-ns#"
   xmlns:svg="http://www.w3.org/2000/svg"
   xmlns="http://www.w3.org/2000/svg"
   mapsvg:geoViewBox="16.113807 48.586431 22.897693 45.736783"
   width="612.70709"
   height="377.70581">
 
  <path
     d="m 257.78152,209.00412 0.72,-1.85 -1.69,-2.87 6,1.35 0.21,0.75 3.84,1.88 2.27,-1.24 0.76,-2.72 3.15,-1.05 2.39,-3.28 3.31,0.13 0.81,1.25 2.03,-4.66 2.39,-0.65 1.03,-1.32 1.64,0.31 5.37,5.38 -2.73,3.25 -1.92,4.33 3.71,5.28 2.77,-3.48 -0.18,-1.35 1.33,-0.01 4.31,-4.08 4.39,1.28 2.67,-8.76 5.08,1.89 2.21,-2.05 2.97,5.17 2.08,6.73 4.04,4.57 0,0 -3.22,1.34 -7.57,-2.3 -3.62,4.87 -1,-1.05 -2.54,2.45 5.06,6.18 0.54,3.86 2.04,0.02 2.17,2.54 1.28,0.07 3.18,3.79 -0.38,1.73 1.91,-0.75 1.98,0.51 1.83,-1.76 -0.12,-1.31 1.17,-0.66 0.9,0.8 2.96,-1.31 -0.41,-0.99 1.43,-1.22 3.39,2.96 1.35,-2.52 2.79,-2.3 0.23,-1.17 -2.36,-6.76 0,0 0.83,-0.06 3.23,-6.86 4.83,3 4.88,1.43 -0.12,-2.41 1.41,-2.41 6.4,-2.56 2.29,1.5 0,0 3.29,1.85 0.89,1.29 -0.93,0.94 0.41,1.92 -2.46,1.16 0.01,1.41 3.28,0.44 1.54,2.83 -3.17,1.59 -0.23,1.32 -3.15,2.39 -1.83,-0.79 -0.78,0.5 -1.13,2.53 -0.94,-0.88 -2.65,2.16 -0.88,-0.25 1.5,2.02 1.58,0.29 0.57,-0.71 0.34,1.13 -3.13,0.57 -0.12,2.18 2.67,1.76 0.51,-1.37 -0.73,-1.67 1.06,-0.51 1.54,1.58 0.03,1.01 0,0 -3.33,3.01 -5.13,7.01 3.91,4.22 -2.77,7.7 1.21,1.66 -0.49,2.79 0.49,1.53 -4.71,5.5 -4.7,-3.9 -10.01,6.3 2.64,3.28 3.62,-0.68 4.11,4 0.53,2.52 -1.52,2.22 1.58,3.15 -1.83,4.52 -2.11,1.79 -3.44,-2.32 -6.8,5.25 -2,-1.55 -5.95,1.9 0.68,2.21 2.51,3.24 -4.93,5.3 3.88,5.55 1.6,4.4 0,0 -1.25,0.86 -1.76,-1.21 -2.64,2.59 -6.15,-0.99 -0.92,1.95 -4.5,2.43 1.81,3.23 -5.38,3.11 0.04,1.86 -4.53,4.51 -3.1,1.33 -1.48,-1.99 -7.35,4.67 1.77,2.92 -0.52,0.48 -1.02,-1.07 -12.42,0.03 -1.08,-5.04 -2.66,-0.46 -3.67,5.07 1.26,4.61 -6.01,0.12 -1.65,2.05 1.18,3.04 -1.17,0.12 -0.79,-1.14 -2.23,0.76 -4.98,-1.15 -2.46,2.45 -1.46,-0.55 0.37,1.31 -3.55,0.8 -0.76,-1.27 -0.61,0.69 0,0 -1.4,-1.25 0.69,-1.66 2.84,-1.56 1.49,0.06 -2.31,-2.09 3.52,-7.59 -2.05,-1.61 0.08,-1.3 2.18,-0.87 -2.51,-1.26 -0.88,-4.43 1.25,-1.39 -2.7,-1.12 0,0 -0.09,-1.41 1.24,0.56 0.79,-2.16 -3.62,-1.08 0.08,-2.29 1.01,-1.2 1.34,-0.25 -0.34,2.02 0.62,1.31 2,-5.62 1.75,-0.6 -0.53,-1.5 0.74,-2.01 -3.32,2.31 -1.17,-0.8 2.92,-3.43 0.76,0.65 1.04,-1.17 -0.84,-3.97 0.95,-0.13 1.76,1.34 1.47,-0.17 0.99,-5.91 -2.12,-3.58 -1.21,-8.24 0.42,-2.07 2.83,-4.83 0.04,-3.79 -2.38,-5.66 -0.25,-5.59 -2.67,-4.07 -0.26,-2.01 2.08,-3.23 4.13,-0.62 3.46,-1.98 3.25,-4.96 0.16,-2.36 -1.73,-3.17 -1.23,-5.01 -1.69,-3.27 -2.52,-2.34 -0.16,-5.42 0,0 2.97,-8.05 0,0 0.87,-2.18 -1.39,-5.84 0.85,-3.06 0,0 z"
     title="Bács-Kiskun"
     id="HU-BK" />
  <path
     d="m 175.27152,304.82412 2.1,0.76 0.58,-1.05 1.69,-0.16 1.94,2.54 0.68,-0.94 -1.46,-0.66 -0.09,-2.97 1.75,-0.86 1.56,1 4.53,-2.97 -0.02,-2.06 -1.38,-1.6 -0.02,-3.81 3.76,-1.6 3.68,0.84 4.25,-2.01 2.83,2.49 -0.24,2.79 0.71,2.07 3.28,1.69 0.13,1.46 -1.34,1.41 0.17,4.15 2.2,0.87 1.32,-0.47 0.56,1.5 -1.75,4.83 -1.88,1.34 -1.73,0.16 0.79,1.52 1.25,0.05 5.6,-3.46 -0.07,-1.13 1.88,-0.3 -0.39,-0.73 1.67,-1.13 -0.13,-3.97 0.71,0.98 1.89,0.35 1.46,2.56 0.8,0.23 0.17,-1.22 0.53,0.81 -0.62,1.01 0.76,1.64 -0.99,2.86 1.99,1.39 1.85,-0.23 -0.69,1.31 2.17,3.72 1.94,-1.01 0.77,1.99 2.4,1.51 3.64,4.7 0.7,-0.64 5.07,3.04 1.53,-0.82 1.18,0.77 3.22,-0.17 0,0 2.7,1.12 -1.25,1.39 0.88,4.43 2.51,1.26 -2.18,0.87 -0.08,1.31 2.06,1.61 -3.53,7.59 2.32,2.1 -1.5,-0.06 -2.83,1.57 -0.69,1.66 1.4,1.25 0,0 -0.39,3.84 -1.3,0.18 -2.95,-1.47 -1.12,-1.4 -2.44,-0.59 -1.52,-1.62 -3.07,0.8 -0.92,-0.68 0.14,2.56 -1.9,1.1 1.11,1.64 -1.36,1.03 -0.69,-1.12 -0.68,2.83 -0.77,0.09 0.7,1.79 -1.94,0.71 -0.72,1.74 -1.77,0.72 0.01,1.83 -1.42,-0.35 -0.49,1.24 -1.71,0.01 -1.2,0.66 0.07,0.67 -2.75,-1.43 -0.84,3.65 -2.26,-0.42 -0.94,0.97 0.13,3.15 -3.66,-0.42 -0.86,-0.59 -0.24,-1.77 -2.74,-1.86 0.19,0.86 -0.81,-0.13 -1.78,2.68 -0.35,-0.85 -3.33,-0.95 -1.78,0.7 -3,-0.86 -1.28,-2.19 -3.9,-1.11 -1.62,1.39 -1.67,-1.48 -2.53,-0.18 -1.69,2.63 -1.94,0.49 -5.13,-1.66 -2.47,-2.12 -6.26,1.34 -2.07,-0.82 -2.62,1.5 -1.4,1.87 -1.06,-2.09 -1.32,-0.7 -1,-2.91 -1.05,0.75 -3.07,-1.65 -1.88,0.62 -1.72,-2.32 -2.53,-0.17 -1.51,-0.93 -2.24,0.44 -1.57,-1.65 0,0 1.59,-0.52 -0.23,-1.15 1.7,-1.63 0.81,1.85 0.72,-1.07 2.17,0.39 0.64,-1.73 -0.76,-1.98 0.63,-0.75 -1.17,-0.89 0.28,-1.23 -2.25,-1.36 0.04,-1.84 -2.84,-0.1 -0.72,-1.6 -0.69,0.3 0.82,1.91 -1.44,-0.15 -1.78,-6.37 2.72,-0.78 0.08,-1.93 -1.98,-2.72 -0.39,-2.2 2.49,-1.02 0.13,-1.09 1.42,-0.23 0.53,-3.67 -1.36,-1.49 1.86,-0.99 0.16,-6.19 1.55,-2.83 0.02,-1.77 1.89,-1.88 -0.91,-1.88 1.75,-1.33 1.25,3.55 1.81,0.6 1.59,-1.79 -0.2,-1.16 0.87,-0.39 0.6,1.07 1.32,-0.34 0.11,1.18 2.51,0.35 1.21,-1.36 1.26,0.31 0.51,-1.03 2.05,0.34 0.54,-0.71 1.08,0.65 1.11,-0.96 -0.35,-3.6 2.18,-6.25 4.68,-0.23 0.45,1.34 1.37,-0.55 2.13,1 0.62,-0.56 z m 17.17,21.41 -3.77,-1 -3.12,2.18 0.66,2.23 -3.79,0.12 0.28,2.15 1.41,2.2 -0.52,2.63 3.66,2.11 2.98,3.69 5.16,-2.02 0.79,-4.37 1.45,-0.78 0.3,-2.8 1.35,-1 2.71,0.93 1.89,-1.58 -1.41,-3.94 -3.12,-4.11 -5.84,2.65 -1.07,0.71 z"
     title="Baranya"
     id="HU-BA" />
  <path
     d="m 439.02152,182.32412 1.25,1.01 0.73,-1.17 1.94,0.85 2.87,4.46 1.16,-0.41 0.03,-1.68 5.66,4.47 6.5,0.86 2.71,2.34 6.55,-0.34 -0.79,2.49 0.67,1.76 -1.37,1.04 0.62,3.21 -5.23,3.9 0.88,3.08 -1.19,0.59 -0.01,1.27 1.54,1.64 9.73,3.96 5.06,0.05 1.31,1.31 1.16,-0.33 0.15,1.61 -0.99,0.26 -0.69,2.1 1.99,-1.84 2.45,0.8 0.88,1.12 1.58,-1.75 6.15,-0.94 -0.76,-2.48 0.86,-2.9 3.17,0.55 1.89,-1.63 0.46,-1.58 0.94,-0.55 0.25,1.31 1.49,-1.07 0,0 1.76,0.77 0.91,2.26 -1.05,0.58 -0.86,3.26 1.23,0.41 0.01,0.69 -0.7,1.34 -1.31,-0.36 -1.89,2.99 -3.41,0.79 -0.08,2.36 1.42,3.09 -0.96,0.24 -0.24,2.63 -7.21,3.59 -0.12,4.75 -0.97,2.37 -2.24,2.26 0.07,0.92 3.73,2.64 0.17,2.48 -1.42,1.13 -1.78,3.38 -1.88,-1.25 -2.08,0.87 -1.53,-0.67 0.33,2.18 1.81,1.91 -1.5,1.64 -1.7,0.54 -0.89,3.04 -3.9,-1.92 -1.48,1.01 -2.13,0.09 -1.18,1.47 -1.02,3.52 1.56,1.14 -2.59,4.74 -1.43,0.52 -1.33,5.32 1.2,3.17 1.99,0.16 1.81,3.07 -0.35,1.38 -2.08,3.43 0.5,1.11 -6.48,-0.89 -0.67,1.38 -0.86,0.1 -0.69,7.26 -2.2,2.28 0.58,3.14 -0.96,0.9 -1.99,-0.1 -0.24,-0.85 -2.82,0.61 -1.06,4.93 -2.8,1.15 -0.73,1.27 -2.45,-0.74 -1.16,-2.18 -2.78,0.92 -3.69,-0.61 -0.61,-1.79 -1.77,0.27 -0.73,1.77 -2.42,-1.21 -1.52,-2.04 -7.35,1.87 -1.35,-0.27 0,0 -2.44,-1.87 0.98,-3.8 -0.13,-4.17 -1.75,-4.43 -4.2,0.65 -0.91,3.7 -5.14,-0.52 -0.14,0.57 -4.2,-2.08 -2.66,-3.44 0,0 2.08,-1.88 1.01,0.05 -0.07,-4.29 0,0 0,-1.74 2.22,-0.7 -0.5,-2.66 1.33,-6.36 -0.27,-1.2 -2.45,-0.93 -1.17,-1.58 0.73,-1.33 -0.23,-9.63 -0.61,-0.43 0.63,-4.68 1.23,-0.03 -0.96,-5.95 1.47,-4.37 -2.99,-2.34 -5.13,0.05 -4.94,-4.81 -2.73,1.08 0,0 -1.37,-7.23 4.53,-5.05 5.03,0.21 2.6,-1.13 0.75,-1.78 2.57,0.62 1.66,-0.72 3.97,2.32 2.86,-1.87 1.66,0.46 1.05,-0.74 1.96,-3.03 0.17,-2.1 -2.08,-0.32 0.72,-0.74 1.25,0.47 -0.27,-1.96 -1.25,-0.45 0.66,-2.78 -0.97,-0.95 0.33,-3.47 1.48,0.13 0.3,-1.41 2.5,-1.35 0.23,2.18 4.44,-0.03 -0.13,-1.03 0.89,-0.22 -0.55,-0.36 2.42,-1.04 0.74,-1.5 1.52,0.58 -1.14,-1.43 0.42,-2.07 -1.12,-2.38 0.24,-1.31 2.01,-0.46 -1.77,-3.58 4.32,-3.35 1.44,0.03 1.9,-1.85 1.22,0.03 2.71,-5.8 z m 5.69,65.26 -5.51,2.4 -2.21,-1.51 -3.7,3.32 2.11,2.57 1.43,-0.03 2.74,4.19 -2.15,5.29 15.11,-4.14 1.21,-0.52 2.01,-2.86 2.16,0.85 2.29,-1.39 -0.69,-1.34 0.41,-1.28 -2.42,-2.89 -2.18,-0.1 -1.47,-1.64 -2.77,0.17 -1.61,1.8 -1.35,0 -1.45,-3.16 -0.99,0.92 -0.97,-0.65 z"
     title="Békés"
     id="HU-BE" />
  <path
     d="m 447.16152,248.15412 0.95,2.33 1.36,0 1.6,-1.8 2.77,-0.17 1.48,1.64 2.18,0.11 2.42,2.88 -0.41,1.29 0.69,1.34 -2.3,1.38 -2.15,-0.85 -2.01,2.86 -1.21,0.53 -15.11,4.13 2.15,-5.29 -2.74,-4.19 -1.43,0.02 -2.11,-2.57 3.7,-3.32 2.21,1.51 5.51,-2.4 0.96,0.66 0.99,-0.92 z"
     title="Békéscsaba"
     id="HU-BC" />
  <path
     d="m 481.04152,0.3341243 0.87,1.43 3.35,2.23 1.12,-0.22 1.46,1.44 -0.03,1.43 2.46,4.2799997 1.66,-0.49 1.62,1.03 1.23,-1.4 1.08,0.85 0.75,-0.3 0.9,2.39 -0.04,3.26 3.57,7.03 0.11,2.76 0.82,1.05 1.03,-0.22 1.84,1.09 -0.13,1.64 1.16,0.55 -0.18,1.55 1.25,0.77 3.65,1.23 2.98,-0.2 2.07,1.3 0.94,-0.5 0.4,-3.94 1.69,0.01 0.66,1.45 1.35,-1.15 0.74,0.53 -0.43,-0.93 0.54,-0.66 0.28,0.98 0.49,-0.95 0.23,0.69 0.85,-0.5 1.63,0.95 0.06,-1.3 1.86,-0.99 3.37,0.31 3.83,-2.2 2.53,2.04 1.84,-1.22 0.93,1.93 0.84,-1.24 0.27,0.72 1.76,-0.32 0,0 -0.42,1.6 0.9,0.9 -1.77,0.06 1.67,1.1 -1.44,0.33 -2.34,3.27 0.86,2.3 -2.22,-0.27 0.05,1.39 -1.56,-0.93 1.09,1.18 -0.69,0.97 -0.47,-1.26 -1.34,-0.77 0.09,1.19 -2.02,0.03 1.04,-1.92 -1.13,0.15 -2.67,2.43 -0.63,1.3 0.48,1.01 -0.96,-0.4 -2.25,2.63 -0.66,-0.67 0.09,1.16 -1.21,0.58 -0.62,1.49 -2.1,-0.87 -2,1.18 -2.04,-0.38 -0.91,2.13 -1.02,-2.48 -0.4,1.37 -1.09,-1.09 0.15,1.82 -1.38,0.26 0.19,1.36 -1.03,0.26 -0.51,1.28 -1.17,-0.63 -0.35,1.69 -1.5,0.63 0.08,-1.75 -1.7,0.91 -0.76,-0.7 -0.33,1.58 -0.83,-0.7 -4.2,0.61 -4.82,-0.56 -3.15,-1.85 -0.54,1.02 -1.51,0.09 -3.46,2.05 0.36,1.32 -1.57,0.41 -0.11,-0.61 -2.03,-0.42 -0.83,1.85 -1.28,-1.66 -1.23,0.07 -1.73,2.79 0.47,2.85 -1.31,1.92 0.76,2.01 2.49,2.21 -0.24,0.7 -1.33,-0.36 0.38,1.44 1.43,-0.19 0.84,0.92 -2.23,0.83 -0.09,2.5 -0.65,0.34 -1.47,-1.02 -0.53,2.58 -4.83,0.01 -1.57,1.56 -1.64,-1.29 -1.88,0.23 -0.11,-1.26 -2.71,0.08 -1.06,-2.22 -2.73,2.14 0.48,1.57 -0.92,0.62 -2.45,-0.86 -1.98,0.4 0.26,-1.8 -0.63,-0.63 -1.27,0.48 -1.75,-0.86 -0.32,1.16 -4.52,4.48 2.58,3.88 -0.49,0.74 1.8,1.26 0,0 -0.98,4.06 -1.73,1.46 1.34,0.69 1.58,-0.44 0.1,0.73 -3.77,2.96 0.01,3.55 -2.5,1.54 2.1,4.449996 -1,1.47 -0.22,2.36 -1.45,1.92 -0.56,3.26 -0.64,0.66 -1.55,-1.53 -1.81,0.7 -0.56,2.43 0.59,1.85 -4.49,0.93 -1.48,1.6 0.19,1.25 -1.03,-0.21 -1.96,1.33 -1.49,-1.73 0.15,2.56 1.36,0.38 -1.08,0.69 0,0 -1.48,-0.27 0,0 -2.02,0 0.54,2.13 1.75,1.07 -0.58,0.82 -1.11,-0.52 -0.44,-1.51 -1.21,-0.08 -0.11,-1.41 -0.93,0.13 0,0 -3.04,-1.76 -2.76,2.04 0.61,1.61 0,0 -5.88,-4.64 -1.25,0.48 -1.3,-1.03 -0.39,0.9 -3,-0.07 -5.26,-3.17 -0.82,-1.08 2.07,-2.78 -5.88,-4.98 -1.13,-2.54 -1.14,-0.78 -0.37,-2.43 1.11,-2.45 -0.77,-3.289996 -3.5,-1.55 -1.58,-2.76 0,0 1.54,-2.04 0,0 0.67,-0.09 0,0 0.64,0.67 1.91,-0.07 -0.77,-1.26 2.4,-1.79 -0.46,-1.42 -3.71,-1.89 -2.02,-2.13 3.58,-7.23 0.04,-2.6 -1.03,-2.15 1.59,-0.29 0.76,-1.07 0,0 11.15,-0.87 3.68,2.97 3.3,0.81 1.48,3.12 3.52,-1.86 1.34,-0.22 1.35,0.86 1.78,-0.73 1.5,-1.87 1.69,-0.26 1.13,-3.66 -1.2,-0.52 0.34,-4.17 -1.63,-1.53 0.08,-1.05 -4.18,-1.23 -2.27,0.62 -2.35,-2.41 -1.01,1.16 -6.06,-0.34 -5.02,3.06 -7.09,-0.26 -3.83,1.92 0,0 -2.63,-4.64 -3.36,0.19 -0.9,-0.59 -1.37,0.56 0.33,1.71 -2.36,2.83 -0.65,3.18 -2.91,-2.19 -0.72,-1.93 -1.55,0.67 -1.21,-0.62 -0.73,3.35 -3.13,1.07 -2.81,-0.6 -1.13,-1.62 -2.7,-1.01 -0.72,-2.92 -3.36,-1.1 -2.39,0.71 -0.65,-0.68 0,0 -0.48,-1.23 -2.12,-0.33 -1.14,-1.85 0,0 2.57,-2 -0.91,-0.86 0.78,-0.96 1.01,0.03 3.92,-3.61 0.78,-2.74 -0.42,-1.38 3.77,0.67 2.72,-0.38 -0.4,-1.3 2.3,-0.18 0.63,-1.25 -0.73,-0.77 1.23,-0.44 4.09,2.53 2.37,-0.4 -0.44,-1.13 1.67,0.07 1.06,-3.62 2.56,-2.48 0.73,-1.21 -0.49,-0.73 3.81,-4.63 -0.61,-2.1 1.31,-1.78 -0.06,-3.45 2.87,-3.67 1.93,-1.14 -0.55,-1.17 1.81,-1.16 0.97,-1.98 1.14,-0.24 0.25,-3.26 -0.75,-2.2699997 1.46,-0.95 1.6,1.29 1.03,-2.26 3.44,1.33 6.46,-3.57 2.16,0.01 3.01,-1.3 1.54,0.62 10.21,-2.48 -0.6,1.06 0.78,-0.22 0,1.85 1.71,1.66 4.66,-0.85 1.46,2.67 0.6,-0.52 0.12,0.93 1.28,0.25 0.11,1.46 1.53,-0.07 0.66,0.77 2.92,-2.02 3.46,0.72 0.01,0.69 1.14,-0.61 2.55,1.25 0.57,2.5699997 1.88,0.88 0.99,-0.26 1.61,-3.0699997 2.02,-0.88 0.64,0.6 0.67,-0.86 2,-0.36 -0.02,-0.85 0.72,0.21 0.38,-0.75 1.04,0.45 0.64,-0.7 2.51,1.86 3.48,0.39 0.95,-1.32 -0.5,-0.99 0.61,0.09 0.39,-1.03 -0.63,-0.64 1.07,-0.39 -0.91,-0.28 0.4,-0.66 5.13,0.35 1.96,-0.71 1.42,0.66 0.7,-2.76 z"
     title="Borsod-Abaúj-Zemplén"
     id="HU-BZ" />
  <path
     d="m 270.65152,131.76412 -0.28,0.54 1.08,0.78 2.12,0.44 1.2,1.68 -0.02,0.89 -0.76,0.09 2.6,1.74 -1.17,0.68 2.13,2.24 2.21,0.28 1,1.05 2.22,-0.61 1.69,3.8 4.96,-0.91 -0.39,2.99 1.79,3.9 -3,0.91 -1.84,2.79 -1.39,-0.28 -1.41,2.58 -0.6,-0.23 -3.36,3.29 -2.4,4.58 -2.72,0.57 -0.89,0.97 -3.83,-3.88 0.63,-1.03 -1.94,-2.39 -4.64,2.92 -1.01,-1.17 -5.68,2.11 -0.58,-2.22 0.98,-1.06 -0.43,-2.62 1.72,-1.59 0.16,-2.16 -0.7,-0.45 1.08,-1.34 -1.73,-2.84 -1.45,0.01 -1.01,-1.21 0.88,-1 -1.08,-1.03 0.8,-1.59 -1.44,-0.47 0.78,-0.12 0.05,-2.69 -0.87,0.02 1.29,-1.04 -1,-2.78 1.91,-1 2.41,0.83 1.11,-1.59 4.03,-0.25 -0.79,-2.35 1.54,-0.78 3.18,0.41 -0.32,2.65 1.98,-3.04 z"
     title="Budapest"
     id="HU-BU" />
  <path
     d="m 359.33152,321.02412 2.06,-3.99 1.95,0.59 3.55,-1.49 1.59,2.05 3.76,9.17 0,0 -2.44,-1.37 -0.09,-0.93 -2.34,-2.19 -3.73,1.84 -2.83,-2.12 -0.46,-1.96 -1.02,0.4 z m 41.1,-28.58 2.66,3.44 4.21,2.09 0.14,-0.57 5.14,0.52 0.91,-3.7 4.21,-0.65 1.75,4.43 0.13,4.17 -0.98,3.8 2.44,1.87 0,0 -2.27,3.54 0.83,5.53 -2.75,-0.32 -1.4,5.5 -3.31,2.84 -1.9,-0.95 -1.51,3.17 -8.52,-6.87 -4.11,-1.68 -0.41,2.87 -2.81,3.17 -2.5,0.22 -3.28,-1.86 -0.52,0.91 -1.2,-1.08 -1.23,1.18 -1.17,-2.51 -3.75,2.64 -0.37,-0.91 -1.82,1.36 -3,3.8 -0.53,-0.66 0,0 1.41,-0.71 0.36,-2.12 -0.66,-0.82 1.6,-5.87 -3.87,0.81 -1.47,-0.68 -0.82,-0.84 -0.18,-4.35 2.08,0 0.75,0.73 5.28,-0.26 0.6,-4.43 -0.72,-4.06 0,0 5.72,-0.18 2.47,-0.86 3.28,-2.32 2.52,-3.39 8.59,-4.95 -0.02,-0.99 z m -11.39,-53.75 2.73,-1.08 4.95,4.81 5.13,-0.05 2.99,2.34 -1.47,4.37 0.96,5.95 -1.23,0.03 -0.63,4.68 0.61,0.43 0.23,9.64 -0.73,1.33 1.17,1.58 2.45,0.93 0.27,1.2 -1.33,6.36 0.51,2.66 -2.22,0.71 0,1.74 0,0 -6.36,-0.13 -4.8,-6.7 -1.56,0.21 -1.46,-2.42 -3.96,2.18 -1.29,-2.27 -6.06,0.24 0.57,2.88 -3.99,0.95 1.52,2.7 -4.01,3.97 -2.03,-0.81 0.69,-2.99 -0.72,-1.14 -1.67,0.82 -1.7,5.25 0.14,2.4 0,0 0,0 0,0 -1.03,-0.18 -1.15,1.02 0.11,3.86 2.4,1.79 -0.97,2.61 -0.48,-0.64 -2.83,0.04 -1.43,-1.16 -3.26,-0.33 -0.97,2.55 0.48,3.23 -3.27,-1.74 -1.26,0.08 -4.53,4.21 3.24,2.64 4.35,0.85 1.63,1.13 -2.15,3.56 0.38,2.12 1.15,0.31 0,2.04 -1.28,1.42 -2.65,0.49 0,0 -8.33,-0.65 -1.79,1.53 -5.31,1.82 -3.22,2.79 -5.18,-2.35 -2.54,-3.1 -1.29,0.03 -1.93,-2.29 0,0 -1.61,-4.41 -3.88,-5.55 4.94,-5.3 -2.51,-3.24 -0.69,-2.2 5.96,-1.9 1.99,1.55 6.8,-5.25 3.44,2.32 2.11,-1.79 1.83,-4.53 -1.58,-3.14 1.52,-2.22 -0.53,-2.52 -4.11,-4 -3.62,0.68 -2.64,-3.28 10.01,-6.3 4.71,3.9 4.7,-5.49 -0.49,-1.53 0.5,-2.79 -1.22,-1.66 2.77,-7.69 -3.91,-4.22 5.13,-7.01 3.32,-3.01 0,0 0.39,1.85 1.55,0.66 0.67,2.99 1.53,-0.55 -0.51,-1.86 0.86,-0.54 5.67,4.18 2.38,-3.76 1.72,0.37 -0.29,-1.59 1.51,-0.97 2.12,0.56 3.2,3.49 3.27,0.85 1.29,-0.83 0.62,-2.28 4.68,-0.12 1.81,-2.32 z"
     title="Csongrád"
     id="HU-CS" />
  <path
     d="m 480.67152,142.89412 -0.18,-2.73 2.88,-7 8.74,-1.49 6.42,-3.2 0.63,0.39 -1.84,3.87 0.75,0.19 2.33,-3.27 2.49,1.26 0,0 3.21,-0.56 0,0 0.91,1.02 -2.04,6.57 4.36,0.54 2.43,-2.67 3.31,-1.33 4.55,3.8 -0.86,1.06 -0.25,5.97 -3.35,6.1 -2.16,-0.28 -3.47,3.26 -3.57,0.46 -3.44,1.84 -1.02,-0.98 -0.18,-2.41 -1.56,-0.69 -3.61,0.3 -1.9,2.02 -2.96,1.35 -0.95,-6.59 -1.34,-1.9 -0.25,-3.61 -3.14,-0.51 0,0 z"
     title="Debrecen"
     id="HU-DE" />
  <path
     d="m 256.81152,223.41412 -3.36,1.23 -3.39,-0.31 -2.92,-3.23 0.67,-0.57 -1.36,-2.14 -1.65,-0.62 -1.21,-3.21 4.48,-1.87 9.07,-0.36 0,0 -0.85,3.06 1.39,5.84 z"
     title="Dunaújváros"
     id="HU-DU" />
  <path
     d="m 391.40152,93.774124 -2.35,0.55 -0.49,3.97 -4.15,1.17 -1.74,-0.5 0.29,-1.77 -2.11,-1.56 -1.27,-2.14 0,0 0.19,-0.79 0,0 0.68,-0.16 -0.36,-2.66 -1.83,-6.42 2.51,-4.96 3.65,1.21 1.22,1.22 -0.58,2.65 2.01,3.87 2.6,1.69 1.73,-1.4 1.35,0.77 -0.29,0.83 1.15,2.3 0,0 0,0 0,0 -0.67,0.09 0,0 z"
     title="Eger"
     id="HU-EG" />
  <path
     d="m 232.69152,136.08412 0.93,1.96 -0.72,1.37 0.33,2.83 2.94,5.33 2.21,0.04 2.98,4.5 0.33,3.99 -2.82,3.3 5.36,7.36 4.08,3.61 0.37,1.39 -0.61,0.76 1.73,0.41 -0.48,1.3 0.64,1.65 3.56,0.72 -1.03,5.82 -2.35,4.26 -0.78,6.09 2.36,10.18 4.29,3.61 1.76,2.47 0,0 -0.64,3.34 0,0 -9.07,0.36 -4.48,1.87 1.21,3.2 1.64,0.62 1.36,2.15 -0.67,0.57 2.92,3.23 3.38,0.32 3.37,-1.24 0,0 -2.97,8.06 0,0 -2.01,-0.28 -0.1,0.62 -3.6,0.96 1.42,1.32 -1.25,2.19 -5.99,4.26 -0.1,2.38 -4.26,0.47 -2.72,2.09 1.26,3.03 -4.8,4.37 -2.35,0.76 -2.14,-0.26 0.29,-2.03 -1.5,-3.21 -0.07,-2.02 -1.01,0.09 -2.67,-1.73 -1.63,-3.19 -4.48,2.48 0.55,2.31 -2.01,0.34 -0.68,-0.59 -1.44,0.97 -3.59,-0.91 -0.05,-2.91 -0.87,-1.46 0.55,-1.12 -1.36,-1.97 -0.18,4.58 -0.71,0.04 -0.25,-2.09 -0.57,1.3 -0.64,-1.97 -1.41,1.72 -2.46,-1.54 -2.08,-0.18 -0.8,-0.83 0.55,-1.76 -0.56,-1.02 -5.04,3.82 -0.08,0.74 -3.53,0.72 0,0 -1.29,-5.44 1.06,-2.12 -0.88,-3.73 0.96,-0.49 -1.83,-0.64 2.3,-1.96 -1.91,-5.69 -2.79,-3.65 0,0 4.02,-3.48 0.6,-1.83 1.89,-1.13 0.15,-0.94 2.37,-0.71 -0.29,-0.73 -2.08,0.44 -2.12,-3.96 -0.74,-3.49 2.75,-2.18 -1.03,-1.48 0.19,-2.31 -1.16,-4.36 1.07,-2.99 0.02,-4.82 -0.62,-1.18 -1.79,-0.05 -1.99,-1.91 -1.57,-3.43 -1.18,0.01 -3.39,2.16 -2.86,-4.19 -1.6,0.41 -0.89,-3.62 1.66,-1.98 -1.93,-0.29 -0.72,-1.67 0,0 -0.28,-0.73 1.83,-1.46 2.97,-0.94 -0.67,-1.86 2.5,-3.65 -0.25,-2.71 1.4,-1.17 -0.37,-2.18 2.11,-1 1.27,1.65 1.66,-1.06 1,0.65 1.07,-1.21 -0.59,-3.22 4.92,2.4 0.5,3.05 2.43,1.21 1.67,2.57 1.71,0.88 1.61,-1.94 1.18,0.55 2.97,-0.9 -2.31,-2.53 0.42,-1.12 1.68,-1.94 1.66,1.3 2.57,-2.95 0.47,-1.66 2.25,-1.04 0,0 2.65,-1.69 -0.2,-1.02 0.84,0.12 -1.16,-1.85 1.6,-0.31 -0.64,-2.93 3.68,-0.68 0,0 0.85,0.44 1.16,-2.33 1.27,0.29 1.11,-0.93 3.66,1.32 0.79,-0.89 3.46,0.11 2.41,-1.13 z m -25.57,42.63 -1.52,0.65 -0.32,1.42 -2.4,1.55 -3.26,4.28 4.02,7.17 1.68,0.89 0.32,5.83 3.09,-0.51 2.27,-1.55 1.07,1.39 3.41,-4.11 2.36,-1.51 0.98,0.87 1.33,-0.73 -1.85,-4.39 -1.89,0.12 -0.04,-1.24 1.15,-1.59 -1.74,-1.79 -0.15,-1.72 1.55,-2.16 -2.74,-3.1 -2.99,0.2 -2.08,-3.5 -1.8,0.92 -0.45,2.61 z"
     title="Fejér"
     id="HU-FE" />
  <path
     d="m 135.88152,118.08412 1.03,0.13 -0.11,-0.69 3.79,-2.69 2.45,1.87 6.38,-0.71 3.75,2.38 1.92,5.29 -12.38,6.55 -2.89,-0.9 -2.59,3.5 -0.43,1.81 -2.17,0.34 -7.3,-2.64 -0.85,-1.57 0.19,-0.92 1.59,0.14 2.77,-1.16 0.92,-6.24 0,0 1.51,-2.67 0,0 1.06,0 0,0 z"
     title="Győr"
     id="HU-GY" />
  <path
     d="m 102.56152,77.274124 0.66,2.26 1.19,0.54 6.11,0.32 8.44,9.11 2.62,5.65 6.7,2.84 3.07,5.999996 3.98,-0.56 9.29,8.74 4.82,1.08 1.59,1.2 6.94,-0.88 3.13,0.9 0,0 0.84,5.14 -0.93,1.84 -0.08,1.27 0.83,0.87 -1.26,4.59 1.71,2.15 2.15,0.56 -0.76,3.46 -0.98,0.95 0.76,0.44 -1.4,2.77 1.92,1.28 0.07,-0.8 0.9,1.09 -2.54,0.92 -2.34,-1 0.11,2.47 2.41,3.38 -0.04,1.04 -0.56,-0.35 -1.48,1.21 0.14,1.76 -1.41,-0.03 1.17,1.93 -1.39,0.83 0,0 -1.2,-2.78 -2.41,-1.89 -1.87,2.49 -1.01,-0.19 -0.32,-2.17 -3.75,4.64 -1.73,-2.51 -0.76,0.23 0.35,0.59 -0.77,0.88 0.7,1.25 -2.35,0.43 0.6,-1.62 -0.79,-1.25 -1.79,0.72 -0.74,-0.82 -0.93,0.53 -0.23,1.5 -1.85,0.65 -0.44,-1.37 -0.83,0.37 -0.59,-0.76 -1.44,1.13 -3.27,-4.1 -2.86,2.72 -5.82,-2.57 -2.87,-0.31 -1.82,1.46 -3.09,-0.78 -0.36,3.25 -1.5,2.18 -6.98,1.42 0,0 -1.07,0 0,0 -4.2,-0.85 -0.69,0.07 -0.13,0.9 -2.239998,-1.69 -1.89,1.58 0,0 -2.63,-0.74 -1.75,2.73 -5.23,1.56 -1.6,1.52 -0.5,-0.36 2.28,-5.8 -1.51,-2.67 -5.33,4.89 -2.63,0.98 -1.94,2.78 -1.38,-2.17 -1.41,-0.05 -0.2,-0.92 -2.44,0.69 -1.59,-1.41 -1.55,-3.24 -3.46,1.88 -0.56,-1.17 -1.4,0.94 -0.54,-0.89 -2.59,1.08 -3.6,3.11 -2.28,-1.5 -1,0.39 -2.86,-3.48 0,0 1.42,-1.29 0.72,-2.39 -1.58,-3.45 0.86,-1.16 0.91,0.59 1.57,-0.81 2.37,-3.93 -1.57,-1.01 -0.71,-1.57 -1.58,-0.09 -0.78,-1.07 1.07,-1.44 -0.73,-2.09 0.35,-1.4 -1.06,-0.28 -0.59,-2.07 -2.26,-0.79 -3.37,1.43 -1.89,-0.85 0,0 4.19,-2.23 6.49,-1.19 2.03,1.06 3.29,-5.7 0,0 7.33,0.2 1.06,-2.89 2.43,-2.21 0.54,4.14 1.04,0.2 18.71,-2.66 -1.82,-2.54 -0.33,-5.56 -1.33,-3.21 1.99,-2.09 -2.37,-2.61 0.42,-1.34 -3.73,-2.839996 0.65,-1.22 2.09,0.12 3.25,-1.35 0.69,0.43 1.44,-2.66 -0.38,-1.68 1.6,-2.6 -1.97,-1.24 2.18,-3.38 -1.93,-1.42 6.92,-5.54 2.62,-1.05 2.219998,0.46 1.53,-0.79 0.26,0.61 z m 31.96,42.629996 0,0 -1.06,0 0,0 -1.51,2.67 0,0 -0.92,6.24 -2.77,1.16 -1.59,-0.13 -0.19,0.92 0.85,1.56 7.3,2.64 2.17,-0.33 0.43,-1.81 2.59,-3.5 2.89,0.9 12.39,-6.54 -1.92,-5.29 -3.75,-2.38 -6.38,0.71 -2.44,-1.87 -3.79,2.69 0.11,0.7 -1.04,-0.13 -1.37,1.79 z"
     title="Győr-Moson-Sopron"
     id="HU-GS" />
  <path
     d="m 452.15152,84.774124 2.19,0.98 0.83,-1.36 3.55,0.9 3.28,2.19 0.49,1.18 2.13,0.91 1.06,2.97 4.42,-2.13 2.89,-0.33 1.99,0.74 4.59,-0.71 0.38,-0.79 6.02,0.44 0.13,-1.29 1.13,-0.01 0.65,-1.05 2.27,0.89 0,0 1.98,0.83 -0.81,1.72 0,0 -0.04,3.57 0.88,0.27 -2,9.339996 -0.02,3.59 3.92,2.44 1.32,0.07 3.4,5.98 3.92,0.54 0.1,-0.8 2.08,-0.15 1.21,3.28 4.76,0.31 -0.43,2.17 2.59,0.54 0.62,1.46 2.64,0.87 2.16,-1.09 0.4,-1.27 2.23,-1.88 0.3,-3.5 3.28,-0.94 3.74,3.41 1.78,0.46 -0.46,3.66 2.61,1.56 -0.69,2.62 1.6,3.06 1.94,-1.6 2.05,-4.86 0.91,-0.19 2.58,1.62 1.29,7.18 1.1,1.05 0,0 -0.05,1.15 -2.92,3.77 -1.62,-0.15 -2.05,1.64 1.35,1.63 -0.83,1.08 -1.43,-1.37 -2.23,3.05 -1.23,5.34 1.12,2.82 1.11,0.52 -0.6,1.16 0.79,4.02 -2.22,4.7 -1.65,-0.52 -4.66,0.97 -5.48,11.35 0.79,1.9 -3.28,4.81 -0.32,1.8 0.95,0.76 0,3.97 -3.71,2.16 -2.35,6.4 0.04,2.13 -2.27,-0.16 -3.63,1.35 -1.02,3.17 -2.97,3.76 -2.92,0.59 0.86,2.3 0,0 -1.49,1.07 -0.25,-1.31 -0.94,0.55 -0.46,1.58 -1.89,1.64 -3.17,-0.55 -0.86,2.9 0.76,2.48 -6.15,0.94 -1.58,1.75 -0.87,-1.12 -2.45,-0.8 -1.99,1.85 0.69,-2.1 0.99,-0.26 -0.15,-1.61 -1.15,0.33 -1.31,-1.3 -5.06,-0.05 -9.73,-3.96 -1.54,-1.64 0.01,-1.27 1.19,-0.59 -0.88,-3.08 5.23,-3.9 -0.62,-3.21 1.37,-1.04 -0.67,-1.76 0.79,-2.49 -6.55,0.34 -2.71,-2.34 -6.5,-0.86 -5.66,-4.47 -0.03,1.68 -1.16,0.41 -2.87,-4.46 -1.94,-0.85 -0.73,1.17 -1.25,-1.01 0,0 3.98,-2.85 1.05,-12.03 -3.45,-17.12 1.06,-2.46 -1.52,-2.3 0.1,-7.87 -1.53,-2.47 -2.61,-1.45 -4.78,1.92 -4.4,-2 -1.71,-5.63 0.49,-3.99 0,0 0.93,-0.13 0.11,1.42 1.21,0.08 0.44,1.51 1.11,0.52 0.58,-0.83 -1.75,-1.07 -0.54,-2.12 2.02,0 0,0 1.48,0.27 0,0 1.08,-0.69 -1.36,-0.37 -0.14,-2.57 1.49,1.74 1.96,-1.34 1.03,0.21 -0.19,-1.26 1.48,-1.59 4.49,-0.94 -0.6,-1.85 0.56,-2.43 1.81,-0.7 1.55,1.53 0.64,-0.66 0.56,-3.26 1.44,-1.91 0.23,-2.36 1,-1.47 -2.1,-4.449996 2.5,-1.54 -0.01,-3.55 3.76,-2.95 -0.09,-0.74 -1.59,0.44 -1.33,-0.68 1.73,-1.46 0.9,-4.16 z m 33.46,58.899996 0,0 3.15,0.51 0.24,3.61 1.35,1.9 0.95,6.59 2.96,-1.34 1.9,-2.02 3.62,-0.31 1.56,0.69 0.18,2.41 1.02,0.98 3.44,-1.83 3.56,-0.47 3.48,-3.26 2.16,0.28 3.36,-6.1 0.24,-5.97 0.87,-1.07 -4.56,-3.8 -3.3,1.33 -2.44,2.67 -4.36,-0.53 2.04,-6.58 -0.91,-1.01 0,0 -3.21,0.56 0,0 -2.48,-1.27 -2.34,3.27 -0.75,-0.19 1.84,-3.87 -0.63,-0.39 -6.42,3.2 -8.74,1.48 -2.88,7 0.18,2.73 4.92,0.8 z"
     title="Hajdú-Bihar"
     id="HU-HB" />
  <path
     d="m 359.29152,60.324124 0.65,0.68 2.39,-0.71 3.36,1.1 0.72,2.92 2.7,1.01 1.13,1.62 2.81,0.6 3.13,-1.07 0.73,-3.35 1.21,0.62 1.55,-0.67 0.72,1.93 2.91,2.19 0.65,-3.18 2.36,-2.83 -0.33,-1.71 1.37,-0.56 0.9,0.59 3.36,-0.19 2.63,4.64 0,0 0.17,3.27 2.13,3.19 0,0 -0.76,1.07 -1.59,0.29 1.03,2.15 -0.04,2.6 -3.58,7.23 2.02,2.13 3.71,1.89 0.46,1.42 -2.4,1.79 0.77,1.26 -1.91,0.07 -0.64,-0.67 0,0 -1.15,-2.3 0.29,-0.83 -1.35,-0.77 -1.73,1.4 -2.6,-1.69 -2.01,-3.87 0.58,-2.65 -1.22,-1.22 -3.65,-1.21 -2.51,4.96 1.83,6.42 0.36,2.66 -0.68,0.16 0,0 -0.19,0.79 0,0 1.27,2.14 2.11,1.56 -0.29,1.77 1.74,0.5 4.15,-1.17 0.49,-3.97 2.35,-0.55 0,0 1.58,2.76 3.5,1.55 0.77,3.289996 -1.11,2.45 0.37,2.43 1.14,0.78 1.13,2.54 5.88,4.98 -2.07,2.78 0.82,1.08 5.26,3.17 3,0.07 0.39,-0.9 1.3,1.03 1.25,-0.48 5.88,4.64 0,0 -1.08,1.69 -2.21,-0.07 -1.72,1.26 0.11,3.28 -1.72,1.19 1.05,1.67 -0.52,1.61 -2.51,1.08 -0.87,1.96 -5.12,2.55 -2.91,2.55 -5.02,1.75 -1.76,4.43 -1.58,0.64 -2.16,-1.01 -0.35,-1.49 1.15,-1.39 -2.87,1.08 -0.45,0.81 1.07,4.78 -1.29,1.49 -2.59,1.06 -2.07,-0.66 0.21,-2.56 -2.7,0.97 -1.42,-0.31 -1.2,-1.61 -2.95,-4.28 1.25,-2.96 -1.28,-4.16 -3.12,-1.08 0.32,-1.03 -2.55,-0.93 -2.06,-6.16 -3.5,0.4 -6.02,2.07 2.9,3.25 -2.04,1.57 -8.03,-3.61 -1.3,-1.76 1.09,-2.95 -1.13,-1.6 -0.16,-4.29 -0.77,-1.76 -2.18,-0.48 -0.73,1.02 -4.43,1.87 -3.52,-1.62 -0.53,4.93 -2.27,1.01 -0.56,1.86 -1.85,1.84 -5.87,-3.46 -4.24,1.73 -0.36,3.27 -1.48,-0.98 -1.72,0.33 0,0 -1.21,-1.28 0.36,-2.17 -1.64,-4.29 -1.72,-0.49 -2.59,-5.09 1.38,-3.34 -3.15,-3.12 0,0 3.89,-3.49 1.12,0.77 1.53,-1.17 -0.59,-0.49 0.84,-1.51 -1.32,-3.47 1.87,-0.93 0.93,1.94 0.18,-1.38 1.47,-0.3 0.55,-1.08 2.89,0.15 -0.47,-0.89 1.34,-2.59 2.91,-2.839996 0.56,-5.03 0.84,-0.21 4.64,4.17 1.48,-0.7 0.74,-2.06 -1.32,-1.28 -2.71,-0.82 -0.38,-1.75 6.18,-1.05 2.24,1.77 2.65,-0.08 1.34,-3.25 2.34,-1.28 -0.25,-2.71 1.9,-0.99 -0.91,-1.37 0.55,-1.15 4.39,-1.58 -1.51,-1.54 -0.55,-4.15 0.81,-0.27 -2.71,-2.02 0.16,-0.59 -1.54,-0.42 -0.22,-1.77 6.19,-2.16 0.68,-2.21 2.34,0.25 0.62,-2.1 z"
     title="Heves"
     id="HU-HE" />
  <path
     d="m 366.74152,291.46412 -0.14,-2.4 1.7,-5.24 1.66,-0.83 0.73,1.14 -0.69,2.99 2.03,0.81 4.02,-3.97 -1.53,-2.7 3.99,-0.96 -0.57,-2.87 6.06,-0.24 1.3,2.28 3.96,-2.19 1.46,2.42 1.56,-0.21 4.8,6.7 6.36,0.13 0,0 0.07,4.29 -1.01,-0.05 -2.07,1.88 0,0 0.01,0.98 -8.59,4.95 -2.52,3.39 -3.29,2.32 -2.47,0.86 -5.72,0.18 0,0 0.49,-2.15 -5.13,-1.33 z"
     title="Hódmezővásárhely"
     id="HU-HV" />
  <path
     d="m 425.68152,124.05412 -0.48,4 1.71,5.63 4.4,2 4.79,-1.92 2.6,1.45 1.54,2.47 -0.1,7.87 1.51,2.31 -1.05,2.46 3.45,17.12 -1.05,12.03 -3.98,2.85 0,0 -2.8,5.7 -1.22,-0.02 -1.9,1.85 -1.44,-0.03 -4.33,3.35 1.77,3.58 -2.01,0.47 -0.23,1.3 1.11,2.38 -0.41,2.08 1.14,1.42 -1.53,-0.58 -0.74,1.51 -2.42,1.04 0.55,0.36 -0.88,0.22 0.13,1.03 -4.44,0.03 -0.24,-2.18 -2.5,1.35 -0.29,1.41 -1.48,-0.13 -0.34,3.47 0.98,0.95 -0.66,2.78 1.25,0.45 0.27,1.96 -1.25,-0.47 -0.72,0.73 2.08,0.32 -0.17,2.09 -1.96,3.03 -1.05,0.74 -1.66,-0.46 -2.86,1.87 -3.97,-2.32 -1.66,0.73 -2.57,-0.62 -0.75,1.78 -2.6,1.13 -5.02,-0.21 -4.53,5.05 1.37,7.23 0,0 -1.81,2.29 -4.69,0.12 -0.62,2.28 -1.29,0.83 -3.27,-0.86 -3.2,-3.49 -2.12,-0.56 -1.51,0.97 0.29,1.59 -1.72,-0.37 -2.38,3.76 -5.67,-4.18 -0.86,0.54 0.52,1.86 -1.54,0.55 -0.67,-2.99 -1.55,-0.66 -0.38,-1.85 0,0 -0.03,-1.01 -1.54,-1.58 -1.06,0.51 0.73,1.67 -0.51,1.37 -2.67,-1.76 0.12,-2.18 3.13,-0.57 -0.34,-1.13 -0.57,0.71 -1.58,-0.29 -1.5,-2.02 0.88,0.25 2.65,-2.16 0.94,0.88 1.13,-2.53 0.78,-0.5 1.83,0.79 3.15,-2.39 0.23,-1.32 3.17,-1.59 -1.54,-2.83 -3.28,-0.44 -0.01,-1.41 2.46,-1.16 -0.41,-1.92 0.93,-0.94 -0.89,-1.29 -3.29,-1.85 0,0 1.58,-3.49 -2.02,-1.11 -0.88,-4.5 -2.26,-3.98 -0.57,-2.57 1.4,-3.34 0,0 4.98,3.2 -0.64,0.82 1.42,1.55 4.46,0.3 1.1,1.98 2.11,1.12 2.87,0.03 1.22,-2.13 1.13,0.66 1.32,-2.08 -1.44,-4.15 -2.9,-1.46 1.39,-5.44 1.13,-0.96 -2.77,0.34 0.03,-0.78 1.41,-0.41 -1.74,-2.41 -1.98,0.08 -3.44,-3.05 -2.27,-0.6 -1.94,3.02 -3.57,2.77 0,0 -0.42,-1.61 -3.16,-2.39 -5.13,-1.81 2.72,-6.75 -2.43,-3.6 -0.19,-2.28 -2.72,-3 -4.13,-1.91 -7.51,-5.8 -2.76,-4.33 -4.59,-3.9 3.77,-5.64 -0.99,-0.65 -1.28,0.87 -2.54,-0.61 -3.08,2.47 -4.6,-4.08 0.48,-1.28 -0.59,-0.69 1.41,-3.52 0,0 1.72,-0.33 1.48,0.98 0.36,-3.27 4.24,-1.73 5.87,3.46 1.85,-1.84 0.56,-1.86 2.27,-1.01 0.53,-4.93 3.52,1.62 4.43,-1.87 0.73,-1.02 2.18,0.48 0.77,1.76 0.16,4.29 1.13,1.6 -1.09,2.95 1.3,1.76 8.03,3.61 2.04,-1.57 -2.9,-3.25 6.02,-2.07 3.5,-0.4 2.06,6.16 2.55,0.93 -0.32,1.03 3.12,1.08 1.28,4.16 -1.25,2.96 2.95,4.28 1.2,1.61 1.42,0.31 2.7,-0.97 -0.21,2.56 2.07,0.66 2.59,-1.06 1.29,-1.49 -1.07,-4.78 0.45,-0.81 2.87,-1.08 -1.15,1.39 0.35,1.49 2.16,1.01 1.58,-0.64 1.76,-4.43 5.02,-1.75 2.91,-2.55 5.12,-2.55 0.87,-1.96 2.51,-1.08 0.52,-1.61 -1.05,-1.67 1.72,-1.19 -0.11,-3.28 1.72,-1.26 2.21,0.07 1.08,-1.69 0,0 -0.61,-1.61 2.76,-2.04 z"
     title="Jász-Nagykun-Szolnok"
     id="HU-JN" />
  <path
     d="m 151.07152,288.62412 0.13,0.68 2.51,-2.78 3.48,4.5 1.15,6.74 -0.82,0.73 -1.76,-0.17 -0.53,1.25 0.77,1.19 -1.2,6.31 -1.59,-0.43 -0.7,-2.71 -0.37,0.63 -1.85,-0.13 -0.47,2.28 -1.92,-0.73 -0.22,-3.14 -2.46,-6.38 -0.04,-2.23 1.05,-1.16 -0.73,-5.19 1.13,-1.94 z"
     title="Kaposvár"
     id="HU-KV" />
  <path
     d="m 335.73152,220.20412 2.36,6.76 -0.23,1.17 -2.79,2.3 -1.35,2.52 -3.39,-2.96 -1.43,1.22 0.41,0.99 -2.96,1.31 -0.9,-0.8 -1.17,0.66 0.12,1.31 -1.83,1.76 -1.98,-0.51 -1.91,0.75 0.38,-1.73 -3.18,-3.79 -1.28,-0.07 -2.17,-2.54 -2.04,-0.02 -0.54,-3.86 -5.06,-6.18 2.54,-2.45 1,1.05 3.62,-4.87 7.57,2.3 3.22,-1.34 0,0 8.41,6.25 1.96,-0.78 z"
     title="Kecskemét"
     id="HU-KM" />
  <path
     d="m 243.36152,103.45412 3.31,0.63 0,0 5.17,2.25 0.8,3.78 0.92,1.04 -0.11,3.42 1.99,1.86 -1.79,1.98 -2.02,-1.48 -4.31,1.1 -0.34,2.74 1.33,2.96 0.02,2.46 -4.12,-0.56 -3.58,-2.02 0.09,1.39 -2.74,-0.01 3.01,2.92 -3.59,2.14 -0.34,1.13 -1.52,0.75 -0.01,1.87 -2.84,2.28 0,0 -2.43,1.02 -3.46,-0.1 -0.78,0.89 -3.67,-1.32 -1.11,0.93 -1.27,-0.29 -1.16,2.33 -0.85,-0.44 0,0 -0.25,-2.24 -3.87,-3.42 -1.3,0.37 -3.22,-1.91 -3.81,0.03 -0.97,0.83 -2.41,4.33 1.6,3.17 1.35,-0.49 0.43,2.34 4.49,2.8 1.19,2.56 0,0 -2.24,1.04 -0.47,1.66 -2.58,2.96 -1.66,-1.31 -1.67,1.94 -0.43,1.12 2.31,2.53 -2.97,0.9 -1.18,-0.54 -1.61,1.94 -1.71,-0.88 -1.67,-2.57 -2.43,-1.21 -0.49,-3.04 -4.92,-2.4 0.59,3.22 -1.08,1.21 -1,-0.65 -1.66,1.07 -1.27,-1.65 -2.11,0.99 0.37,2.19 -1.4,1.16 0.25,2.72 -2.5,3.65 0.67,1.86 -2.97,0.94 -1.83,1.46 0.28,0.73 0,0 -1.7,-0.66 -5.04,0.74 -0.22,-2.08 -2.54,-1.7 1.6,-0.59 0.04,-1.5 -1.36,-1.14 -1.86,-0.2 -0.64,0.76 -2.6,-1.37 2.1,-4.33 -2.66,-4.19 0,0 1.39,-0.83 -1.17,-1.93 1.4,0.03 -0.13,-1.76 1.48,-1.21 0.56,0.35 0.03,-1.04 -2.41,-3.38 -0.1,-2.47 2.33,1 2.54,-0.92 -0.9,-1.09 -0.08,0.8 -1.92,-1.28 1.4,-2.78 -0.76,-0.44 0.99,-0.94 0.75,-3.46 -2.14,-0.56 -1.71,-2.15 1.26,-4.59 -0.83,-0.87 0.09,-1.27 0.93,-1.84 -0.84,-5.14 0,0 4.75,-0.68 2.32,-1.75 2.81,1.51 2.42,-1.37 4,0.02 8.85,2.06 4.85,-0.11 5.85,1.43 11.27,-2.89 3.23,-1.56 3.98,1.66 4.06,-1.66 9.44,0.76 3.29,-1.14 3.52,-2.38 1.55,-3.68 z"
     title="Komárom-Esztergom"
     id="HU-KE" />
  <path
     d="m 394.24152,63.954124 3.83,-1.92 7.09,0.26 5.02,-3.06 6.06,0.34 1.01,-1.16 2.35,2.41 2.27,-0.62 4.18,1.23 -0.08,1.05 1.63,1.53 -0.34,4.17 1.2,0.52 -1.13,3.66 -1.69,0.26 -1.5,1.87 -1.78,0.73 -1.35,-0.86 -1.34,0.22 -3.52,1.86 -1.48,-3.12 -3.3,-0.81 -3.68,-2.97 -11.15,0.87 0,0 -2.13,-3.19 z"
     title="Miskolc"
     id="HU-MI" />
  <path
     d="m 83.131522,292.31412 -3.59,2.61 -0.33,3.53 -3.31,-0.73 -1.1,0.96 -2.46,-3.57 2.73,-14.65 2.69,0.21 0.46,-2.42 -0.84,-0.73 0.18,-1.93 1.16,-0.46 0.74,1.12 1.95,-1.06 1.02,-1.75 1.99,0.56 0.64,2.58 -0.77,4.41 3.15,2.59 -0.4,2.43 1.43,0.63 0.25,2.17 0,0 -0.93,0.11 -0.49,1.83 -0.84,0.4 -1.38,-1.96 -1.29,0.07 z"
     title="Nagykanizsa"
     id="HU-NK" />
  <path
     d="m 319.60152,47.394124 1.87,-0.16 0.9,3.51 1.36,1.27 2.68,0.19 1.03,-1.67 0.95,-0.13 1.3,0.34 2.5,2.78 0.97,-0.21 0.61,1.45 -2.03,2.57 1.18,1.49 2.13,-2.18 2.1,0.98 1.07,-2.13 0.43,1.12 3.42,0.52 1.36,2.56 -1.16,2.99 3.4,-1.11 1.19,-2.49 1.17,-0.2 1,-1.65 1.16,0.38 1.32,-1.23 2.41,-0.67 1.63,1.2 0,0 1.14,1.85 2.12,0.33 0.48,1.23 0,0 -1.3,1 -0.62,2.1 -2.34,-0.25 -0.68,2.21 -6.19,2.16 0.22,1.77 1.54,0.42 -0.16,0.59 2.71,2.02 -0.81,0.27 0.55,4.15 1.51,1.54 -4.39,1.58 -0.55,1.15 0.91,1.37 -1.9,0.99 0.25,2.71 -2.34,1.28 -1.34,3.25 -2.65,0.08 -2.24,-1.77 -6.18,1.05 0.38,1.75 2.71,0.82 1.32,1.28 -0.74,2.06 -1.48,0.7 -4.64,-4.17 -0.84,0.21 -0.56,5.03 -2.91,2.839996 -1.34,2.59 0.47,0.89 -2.89,-0.15 -0.55,1.08 -1.47,0.3 -0.18,1.38 -0.93,-1.94 -1.87,0.93 1.32,3.47 -0.84,1.51 0.59,0.49 -1.53,1.17 -1.12,-0.77 -3.89,3.49 0,0 -2.75,-1.39 -2.22,3.11 -2.32,1.25 -0.17,0.99 1.46,0.21 0.66,0.96 -2.93,1.3 -2.65,-5.11 -0.39,-5.6 -2.88,-0.36 1.19,-3.39 1.66,-0.8 -1.93,-1.97 -2.94,-0.63 -2.99,0.4 -3.12,-1.81 -8.45,0.95 -1,-1.31 -3.95,-2.109996 -0.94,1.099996 -5.07,-0.909996 -1.03,1.099996 -1.53,-0.2 -1.49,-2.249996 -0.85,0.49 -1.08,-3.25 -3.01,-1.76 -6,-6.08 0.56,-2.49 3.91,-2.82 -0.33,-0.87 1.45,-1.27 0.29,-2.08 -0.54,-0.15 0.58,-0.79 -1.68,-1.76 -1.31,0.76 -1.49,-0.83 -2.5,-3.77 0,0 4.79,0.22 3.07,-2.87 1.63,1.7 1.11,-0.34 1.11,1.14 2.03,-1.72 2.21,0.98 2.5,-1.19 4.86,1.91 2.81,-0.6 2.03,1.28 1.16,-2.15 2.05,-0.57 1.96,-1.76 6.64,0.04 1.16,-0.67 1.3,1.19 2.09,-0.59 1.87,-1.86 1.02,0.13 0.04,1.34 1.27,0.92 0.13,-1.52 1.76,-0.7 0.46,-5.35 1.58,-1.58 -0.44,-2.86 1.89,-2.35 -0.19,-1.74 4.91,-1.98 4.58,-4.38 z"
     title="Nógrád"
     id="HU-NO" />
  <path
     d="m 490.14152,88.294124 4.56,-9.4 2.98,1.14 0.57,-0.73 3.32,0.19 0.09,-2.01 1.36,-0.23 0.03,-1.48 -1.8,-1.95 0.38,-1.5 3.35,-0.37 1.12,1.48 1.53,0.41 1.95,-0.76 1.79,0.27 1.31,3.45 -1.07,2.75 1.63,0.17 0.19,1.35 4.34,-0.18 0.95,7.27 1.13,1.54 -0.86,0.39 0.21,1.48 -2.21,0.19 -0.59,1.96 -3.1,-1.6 -0.13,5.79 2.16,0.42 -1.11,2.589996 -1.76,0.55 -1.76,-1.769996 -0.35,-1.54 -7.33,0.6 -2.07,-2.82 -1.42,-0.78 -2.04,0.13 -0.76,-2.02 -5.42,-2.43 0,0 0.81,-1.71 z"
     title="Nyíregyháza"
     id="HU-NY" />
  <path
     d="m 201.46152,325.94412 2.41,5 -1.89,1.58 -2.71,-0.93 -1.35,0.99 -0.3,2.8 -1.45,0.78 -1.08,4.72 -4.87,1.67 -2.98,-3.69 -3.66,-2.12 0.52,-2.63 -1.4,-2.2 -0.28,-2.15 3.79,-0.12 -0.66,-2.23 1.23,-1.3 1.89,-0.88 3.77,1 3.83,-2.4 3.07,-0.95 z"
     title="Pécs"
     id="HU-PS" />
  <path
     d="m 252.52152,72.514124 2,-0.7 0,0 2.5,3.77 1.49,0.83 1.31,-0.77 1.68,1.76 -0.58,0.79 0.54,0.15 -0.29,2.08 -1.45,1.26 0.33,0.87 -3.92,2.82 -0.56,2.48 6,6.08 3.01,1.76 1.07,3.26 0.86,-0.5 1.49,2.249996 1.53,0.2 1.04,-1.099996 5.07,0.909996 0.94,-1.099996 3.94,2.099996 1,1.31 8.46,-0.95 3.12,1.81 2.99,-0.4 2.94,0.63 1.92,1.97 -1.65,0.8 -1.19,3.39 2.88,0.36 0.39,5.61 2.65,5.11 2.93,-1.3 -0.66,-0.96 -1.46,-0.21 0.16,-0.99 2.33,-1.24 2.22,-3.12 2.74,1.39 0,0 3.15,3.12 -1.38,3.34 2.59,5.09 1.72,0.49 1.64,4.29 -0.36,2.17 1.21,1.28 0,0 -1.41,3.52 0.59,0.69 -0.48,1.28 4.6,4.08 3.08,-2.46 2.55,0.6 1.28,-0.87 0.98,0.65 -3.77,5.63 4.59,3.9 2.76,4.34 7.51,5.8 4.13,1.91 2.73,3 0.19,2.28 2.43,3.6 -2.73,6.75 5.14,1.82 3.16,2.38 0.42,1.62 0,0 1.45,3.57 -3.34,4.02 0,0 -1.4,3.35 0.57,2.56 2.27,3.98 0.88,4.5 2.02,1.11 -1.58,3.5 0,0 -2.29,-1.5 -6.4,2.56 -1.41,2.41 0.12,2.41 -4.88,-1.44 -4.83,-2.99 -3.23,6.85 -0.83,0.07 0,0 -2.62,-1.55 -1.97,0.78 -8.41,-6.25 0,0 -4.03,-4.56 -2.08,-6.73 -2.97,-5.17 -2.21,2.05 -5.08,-1.89 -2.67,8.76 -4.38,-1.28 -4.31,4.08 -1.33,0.01 0.17,1.35 -2.76,3.48 -3.71,-5.28 1.91,-4.33 2.73,-3.25 -5.37,-5.38 -1.64,-0.32 -1.03,1.32 -2.39,0.65 -2.03,4.67 -0.81,-1.25 -3.31,-0.13 -2.39,3.29 -3.15,1.04 -0.76,2.72 -2.26,1.24 -3.84,-1.87 -0.21,-0.75 -6,-1.35 1.69,2.87 -0.72,1.85 0,0 -1.76,-2.47 -4.29,-3.6 -2.36,-10.18 0.78,-6.09 2.35,-4.26 1.03,-5.82 -3.56,-0.72 -0.64,-1.64 0.48,-1.3 -1.73,-0.41 0.61,-0.76 -0.37,-1.39 -4.08,-3.61 -5.36,-7.36 2.82,-3.3 -0.33,-3.99 -2.98,-4.5 -2.21,-0.04 -2.94,-5.33 -0.33,-2.82 0.72,-1.37 -0.93,-1.96 0,0 2.84,-2.28 0.01,-1.87 1.53,-0.75 0.34,-1.13 3.58,-2.14 -3,-2.92 2.73,0.01 -0.09,-1.39 3.58,2.02 4.12,0.56 -0.02,-2.46 -1.33,-2.97 0.34,-2.74 4.3,-1.1 2.02,1.48 1.8,-1.98 -1.99,-1.86 0.11,-3.42 -0.92,-1.04 -0.79,-3.78 -5.17,-2.25 0,0 0.79,-1.18 -1.83,-1.21 -0.77,-2.039996 -2.7,-1.9 -2.69,-0.76 0.38,-5.12 -0.7,-1.41 1.48,-1.73 -0.6,-2.65 0.81,-0.12 -1.77,-2.83 1.37,-1.84 2.59,0.35 1.32,-1.17 0.04,-3.84 1.04,-1.17 -0.54,-0.93 0.79,-1.24 1.13,-0.63 0.98,0.65 2.55,-0.39 0.42,-1.31 1.73,0.91 z m 14.95,62.309996 0.33,-2.65 -3.18,-0.41 -1.54,0.79 0.79,2.35 -4.03,0.25 -1.11,1.59 -2.41,-0.83 -1.9,1 0.99,2.77 -1.29,1.04 0.88,-0.01 -0.05,2.69 -0.78,0.12 1.44,0.47 -0.79,1.59 1.07,1.04 -0.87,1 1.01,1.21 1.45,-0.01 1.72,2.83 -1.07,1.34 0.7,0.45 -0.16,2.15 -1.71,1.6 0.43,2.62 -0.98,1.06 0.58,2.22 5.69,-2.11 1.01,1.17 4.64,-2.92 1.94,2.39 -0.63,1.04 3.83,3.88 0.88,-0.97 2.72,-0.57 2.41,-4.58 3.36,-3.28 0.6,0.23 1.42,-2.58 1.39,0.28 1.84,-2.79 3,-0.9 -1.79,-3.9 0.39,-3 -4.96,0.92 -1.69,-3.81 -2.22,0.61 -1,-1.05 -1.61,0.11 -2.72,-2.62 1.17,-0.68 -2.6,-1.73 0.76,-0.09 0.02,-0.89 -1.2,-1.68 -2.12,-0.44 -1.41,-1.32 -2.64,3.01 z"
     title="Pest"
     id="HU-PE" />
  <path
     d="m 118.09152,245.63412 6.3,-0.31 16.49,-8.03 3.57,-2.67 8.48,-3.26 4.06,-2.53 3.2,0.21 2.19,-2.01 -0.05,-3.37 13.64,-6.3 8.08,1.53 0.58,-1.05 0.43,0.4 0,0 2.79,3.65 1.91,5.69 -2.3,1.96 1.83,0.65 -0.96,0.49 0.88,3.74 -1.06,2.12 1.29,5.44 0,0 -3.87,1.43 0.4,3.26 -2.19,-0.17 -3.14,1.75 1.44,3.42 0.98,-0.5 0.34,0.87 -1.13,1.19 -0.3,2.07 -2.62,2.52 0.67,1.17 -3.05,3.56 1.3,3.56 -1.25,3.89 -1.94,1.27 -1.19,-0.65 0.02,6.93 -0.71,0.78 0.88,0.71 2.64,7.89 -0.19,1.41 -1.3,0.18 -0.64,0.97 -0.53,-0.55 -1.63,2.04 -1.54,0.44 0.83,2.2 3.41,-1.2 1.16,3.57 1.5,-0.33 0.51,4.96 -1.06,2.85 -1.98,1.38 0,0 -0.6,0.53 -2.13,-1 -1.37,0.55 -0.45,-1.34 -4.68,0.23 -2.18,6.25 0.35,3.6 -1.11,0.96 -1.08,-0.65 -0.54,0.72 -2.05,-0.34 -0.5,1.03 -1.26,-0.31 -1.21,1.37 -2.51,-0.35 -0.11,-1.18 -1.32,0.34 -0.6,-1.07 -0.87,0.39 0.2,1.16 -1.59,1.79 -1.8,-0.6 -1.25,-3.55 -1.75,1.33 0.91,1.89 -1.89,1.88 -0.02,1.77 -1.55,2.83 -0.16,6.19 -1.86,0.99 1.36,1.49 -0.53,3.67 -1.42,0.23 -0.13,1.09 -2.49,1.02 0.39,2.2 1.99,2.72 -0.08,1.93 -2.72,0.78 1.78,6.37 1.44,0.16 -0.82,-1.91 0.69,-0.3 0.72,1.6 2.84,0.1 -0.04,1.84 2.25,1.36 -0.28,1.23 1.17,0.89 -0.63,0.75 0.76,1.98 -0.64,1.73 -2.17,-0.39 -0.72,1.07 -0.81,-1.85 -1.7,1.63 0.23,1.15 -1.59,0.52 0,0 -2.72,-7.26 -5.03,-4.32 -3.48,0.34 -8.38,-2.07 -0.67,0.98 0.81,1.37 -0.89,0.65 -1.32,-0.43 -0.24,-1.19 -1.31,1.14 -0.77,-0.27 -0.32,-1.91 -3.45,0.66 -0.04,-2.42 0.67,1.03 0.95,-0.78 2.29,-0.08 -0.05,-0.5 -2.55,0.27 0.02,-1.12 1.24,-0.03 -0.62,-0.66 0.47,-1.76 -0.7,-0.13 -0.1,1.49 -0.83,0.6 -1.35,-2.63 -0.78,-0.12 -0.27,0.63 0.95,0.82 -0.31,1.58 -2.01,0.56 1.06,-2.81 -0.96,-0.06 -0.42,1.1 -0.87,-0.3 -0.26,-1.02 1.07,-1.41 -2.19,0.13 -2.12,-1.63 2.95,-1.24 0.31,-0.93 -3.59,0.13 0.26,-2.15 1.18,-1.36 -3.53,-0.45 0.14,-0.76 1.71,0.31 -1.02,-0.3 -0.48,-1.69 -2.909998,0.18 0.12,-0.63 1.279998,0.05 1.21,-2.23 -2.009998,0.03 0.799998,-1.15 -0.539998,-0.79 -0.3,0.6 -2.85,0.23 -0.32,-2.83 0.88,-0.57 -0.13,-2.14 -2.08,-1.1 0.1,-1.4 -1.99,-0.48 -1.09,0.6 -0.38,-1.23 -0.88,0.3 -0.93,-0.84 0.1,-0.7 -1.08,-0.42 -0.65,0.66 -1.71,-2 -4.88,-2.52 -3.19,-0.49 -0.32,-2.38 -1.78,0.33 -2.32,-2.51 -3.77,-2.12 -0.98,-6.56 0,0 2.49,1.93 3.01,-0.61 0.47,3.32 1.45,-0.49 2.62,-2.71 2.58,1.33 0.96,-0.52 1.48,-0.94 -0.39,-1.76 0.96,-1.47 0.96,0 0.11,-1.12 -1.38,-5.03 -1.06,-0.7 0,0 0.66,-3.05 1.29,-0.06 1.38,1.96 0.84,-0.4 0.49,-1.83 0.93,-0.1 0,0 1.64,0.8 0.11,0.94 1.23,0.14 1.19,-0.4 0.14,-2.56 4.08,-0.29 0.27,-7.14 1.03,0.08 2.169998,-3.49 -0.699998,-14.35 0.459998,-5.87 3.15,-2.96 1.07,-5.94 8.55,0.39 2.56,-1.86 2.31,-0.82 z m 28.14,47.44 -1.06,1.16 0.05,2.23 2.45,6.38 -0.17,2.51 2.32,1.35 0.47,-2.28 1.85,0.13 0.37,-0.62 0.7,2.71 1.59,0.43 1.2,-6.31 -0.77,-1.19 0.53,-1.25 1.76,0.17 0.82,-0.73 -1.15,-6.74 -3.48,-4.5 -2.51,2.78 -0.49,-1.28 -3.83,-2.23 -1.37,2.09 0.72,5.19 z"
     title="Somogy"
     id="HU-SO" />
  <path
     d="m 46.001522,112.30412 1.3,-0.32 0.42,1.31 1.68,1.04 5.65,1.13 2.42,6.48 0,0 -3.29,5.7 -2.03,-1.05 -6.49,1.19 -4.19,2.23 0,0 -4.9,-2.94 -0.76,0.87 -1.74,-0.1 -0.52,-1.33 -3.85,-0.8 -1.42,-1.24 1.8,-1.07 0.38,-3.12 1.19,1.81 1.26,0.31 0.22,-1.21 1.85,-1.64 2.08,-1.22 1.85,0.02 0.97,-1.45 -1.31,-1.83 0.93,-0.76 0.05,-1.3 5.34,-1.33 z"
     title="Sopron"
     id="HU-SN" />
  <path
     d="m 552.88152,24.124124 2.52,0.14 -0.89,2.34 -1.29,0.8 2.41,3.59 4.73,1.23 -0.65,3.44 2.11,2.38 0.27,3.73 1.87,1.89 1.9,4.03 1.8,-1.95 2.57,0.28 0.31,-0.55 2.35,1.37 2.89,-1.59 0.99,0.71 -0.39,1.15 1.64,0.34 -0.05,1.54 1.5,2.31 0.61,-0.29 2.9,1.96 -0.62,2.6 0.98,2.59 0.76,-0.14 1.32,2.15 -0.87,0.33 0.98,3.15 -0.7,1.29 2.58,0.26 1.48,1.29 3.17,0.7 5.96,-3.81 1.88,0.04 1.04,1.44 0.77,-0.52 -0.34,-1.2 1.66,0.59 0.91,-0.65 0.44,2.11 0.87,-1.54 0.87,0.19 0.49,0.98 -0.66,1.5 0.91,0.63 0.33,1.71 0.61,-0.27 1.54,1.5 0.61,2.9 0.51,-0.71 0.67,0.35 -1.42,5.65 -2.63,2.95 0.36,1.04 2.61,0.42 1.79,1.29 0.56,2.26 -1.05,0.21 -3.8,5.74 -1.61,0.05 -3.07,2.28 -3.15,-0.17 0.85,1.69 -0.45,1.69 1.52,1.97 -0.27,1.299996 -2.35,1.11 -3.37,-0.12 -2.86,6.31 -5.79,1.38 -0.53,0.75 -5.48,-0.07 -6.09,-5.12 -3.02,0.93 -2.01,7.11 0.35,1.25 -6.74,-1.12 -3.46,-2.35 -0.04,3.21 -2.83,1.8 -1.89,-0.13 -0.55,4.24 -2.75,1.11 -0.58,3.84 -1.62,0.93 -1.25,5.67 -1.36,2.57 -4.09,-0.53 0,0 -1.1,-1.05 -1.29,-7.19 -2.59,-1.61 -0.91,0.19 -2.04,4.86 -1.94,1.6 -1.6,-3.06 0.68,-2.62 -2.6,-1.56 0.46,-3.66 -1.78,-0.46 -3.75,-3.41 -3.28,0.94 -0.3,3.5 -2.23,1.89 -0.39,1.27 -2.16,1.09 -2.63,-0.87 -0.63,-1.45 -2.59,-0.54 0.44,-2.16 -4.76,-0.31 -1.21,-3.28 -2.08,0.15 -0.1,0.8 -3.92,-0.53 -3.4,-5.98 -1.32,-0.07 -3.91,-2.43 0.01,-3.59 2.01,-9.349996 -0.88,-0.27 0.04,-3.57 0,0 5.42,2.43 0.76,2.02 2.04,-0.13 1.42,0.78 2.07,2.82 7.33,-0.6 0.35,1.54 1.76,1.769996 1.76,-0.55 1.11,-2.589996 -2.16,-0.42 0.13,-5.79 3.1,1.6 0.59,-1.96 2.21,-0.19 -0.21,-1.48 0.86,-0.39 -1.13,-1.54 -0.95,-7.27 -4.34,0.18 -0.19,-1.35 -1.63,-0.17 1.07,-2.75 -1.31,-3.45 -1.79,-0.27 -1.95,0.76 -1.53,-0.41 -1.12,-1.48 -3.35,0.37 -0.38,1.5 1.8,1.95 -0.03,1.48 -1.36,0.23 -0.09,2.01 -3.32,-0.19 -0.57,0.73 -2.98,-1.14 -4.56,9.4 0,0 -2.27,-0.88 -0.65,1.04 -1.13,0.02 -0.12,1.29 -6.02,-0.45 -0.38,0.8 -4.59,0.71 -1.99,-0.74 -2.89,0.33 -4.42,2.14 -1.06,-2.97 -2.13,-0.91 -0.49,-1.18 -3.28,-2.19 -3.55,-0.9 -0.83,1.36 -2.19,-0.99 0,0 -1.8,-1.26 0.49,-0.74 -2.58,-3.88 4.52,-4.48 0.32,-1.16 1.75,0.86 1.27,-0.48 0.63,0.63 -0.26,1.8 1.98,-0.4 2.45,0.86 0.92,-0.62 -0.48,-1.57 2.73,-2.14 1.06,2.22 2.71,-0.08 0.11,1.26 1.88,-0.23 1.64,1.29 1.57,-1.56 4.83,-0.01 0.53,-2.58 1.47,1.02 0.65,-0.34 0.09,-2.5 2.23,-0.83 -0.84,-0.92 -1.43,0.19 -0.38,-1.44 1.33,0.36 0.24,-0.7 -2.49,-2.21 -0.76,-2.01 1.31,-1.92 -0.47,-2.85 1.73,-2.79 1.23,-0.07 1.28,1.66 0.83,-1.85 2.03,0.42 0.11,0.61 1.57,-0.41 -0.36,-1.32 3.46,-2.05 1.51,-0.09 0.54,-1.02 3.15,1.85 4.82,0.56 4.2,-0.61 0.83,0.7 0.33,-1.58 0.76,0.7 1.7,-0.91 -0.08,1.75 1.5,-0.63 0.35,-1.69 1.17,0.63 0.51,-1.28 1.03,-0.26 -0.19,-1.36 1.38,-0.26 -0.15,-1.82 1.09,1.09 0.4,-1.37 1.02,2.48 0.91,-2.13 2.04,0.38 2,-1.18 2.1,0.87 0.62,-1.49 1.21,-0.58 -0.09,-1.16 0.66,0.67 2.25,-2.63 0.96,0.4 -0.48,-1.01 0.63,-1.3 2.67,-2.43 1.13,-0.15 -1.04,1.92 2.02,-0.03 -0.09,-1.19 1.34,0.77 0.47,1.26 0.69,-0.97 -1.09,-1.18 1.56,0.93 -0.05,-1.39 2.22,0.27 -0.86,-2.3 2.34,-3.27 1.44,-0.33 -1.67,-1.1 1.77,-0.06 -0.9,-0.9 0.42,-1.6 0,0 1.62,-0.35 -0.48,-1.37 1.87,-0.8 0.37,-1.87 4.26,-2.07 z"
     title="Szabolcs-Szatmár-Bereg"
     id="HU-SZ" />
  <path
     d="m 366.74152,291.46412 6.47,10.18 5.13,1.33 -0.49,2.15 0,0 0.72,4.06 -0.6,4.43 -5.28,0.26 -0.75,-0.72 -2.08,0 0.18,4.35 0.82,0.84 1.47,0.68 3.87,-0.81 -1.6,5.88 0.66,0.81 -0.36,2.12 -1.41,0.71 0,0 -0.13,-1.1 -1.13,0.71 0,0 -3.76,-9.16 -1.59,-2.06 -3.55,1.5 -1.95,-0.59 -2.05,3.99 0,0 -2.49,3.58 -2.45,-0.16 -1.19,-3.1 0,0 2.65,-0.49 1.28,-1.41 0,-2.04 -1.14,-0.32 -0.38,-2.11 2.15,-3.57 -1.64,-1.13 -4.35,-0.84 -3.24,-2.65 4.53,-4.2 1.27,-0.08 3.27,1.75 -0.48,-3.23 0.97,-2.56 3.26,0.33 1.43,1.16 2.84,-0.04 0.47,0.64 0.98,-2.61 -2.4,-1.78 -0.11,-3.86 1.15,-1.02 z"
     title="Szeged"
     id="HU-SD" />
  <path
     d="m 210.67152,177.29412 0.76,1.38 2.98,-0.2 2.75,3.1 -1.56,2.16 0.16,1.72 1.74,1.79 -1.15,1.59 0.05,1.24 1.89,-0.11 1.85,4.39 -1.32,0.72 -0.98,-0.87 -2.36,1.51 -3.41,4.11 -1.08,-1.39 -2.26,1.55 -3.09,0.51 -0.31,-5.83 -1.68,-0.88 -4.03,-7.17 3.26,-4.28 2.4,-1.55 0.33,-1.42 1.51,-0.65 1.09,-3.25 1.14,-0.29 z"
     title="Székesfehérvár"
     id="HU-SF" />
  <path
     d="m 358.61152,185.24412 3.57,-2.77 1.94,-3.02 2.27,0.6 3.44,3.05 1.98,-0.08 1.74,2.41 -1.41,0.41 -0.03,0.78 2.77,-0.34 -1.13,0.96 -1.39,5.44 2.9,1.46 1.44,4.15 -1.32,2.08 -1.13,-0.66 -1.22,2.13 -2.87,-0.03 -2.11,-1.12 -1.1,-1.98 -4.46,-0.3 -1.42,-1.55 0.64,-0.82 -4.98,-3.2 0,0 3.34,-4.02 z"
     title="Szolnok"
     id="HU-SK" />
  <path
     d="m 46.421522,177.63412 3.18,2.04 1.44,-1.59 0.87,0.09 1.1,3.21 -2.32,2.13 1.16,2.06 -0.06,6.69 -0.75,0.38 -1.94,-2.26 -0.72,0.04 -2.04,3.25 -1.27,0.4 -3.4,-2.55 0.03,-2.04 -1.63,-2.85 -0.47,-4.67 -2.95,-1.72 -0.14,-1.2 1.89,-0.71 1.61,1.26 1.17,-0.16 2.53,-0.53 -0.2,-1.17 1.66,0.52 z"
     title="Szombathely"
     id="HU-SH" />
  <path
     d="m 211.19152,147.47412 -1.19,-2.56 -4.49,-2.8 -0.43,-2.34 -1.35,0.49 -1.6,-3.17 2.41,-4.33 0.97,-0.83 3.81,-0.03 3.22,1.91 1.3,-0.37 3.87,3.42 0.25,2.24 0,0 -3.68,0.68 0.64,2.94 -1.6,0.3 1.17,1.85 -0.84,-0.12 0.19,1.03 z"
     title="Tatabánya"
     id="HU-TB" />
  <path
     d="m 189.46152,241.95412 3.52,-0.72 0.08,-0.74 5.05,-3.82 0.56,1.02 -0.55,1.76 0.8,0.83 2.08,0.19 2.46,1.53 1.41,-1.72 0.64,1.97 0.57,-1.3 0.25,2.09 0.71,-0.04 0.18,-4.58 1.36,1.97 -0.55,1.11 0.88,1.46 0.05,2.92 3.59,0.9 1.45,-0.97 0.67,0.59 2.02,-0.34 -0.55,-2.31 4.48,-2.48 1.63,3.19 2.68,1.73 1.01,-0.09 0.07,2.02 1.5,3.21 -0.29,2.04 2.14,0.26 2.34,-0.76 4.8,-4.37 -1.26,-3.03 2.71,-2.09 4.26,-0.47 0.1,-2.38 5.99,-4.26 1.25,-2.19 -1.42,-1.32 3.6,-0.96 0.1,-0.62 2.01,0.28 0,0 0.16,5.42 2.52,2.34 1.69,3.27 1.23,5.01 1.73,3.17 -0.16,2.36 -3.25,4.96 -3.46,1.98 -4.13,0.62 -2.08,3.23 0.26,2.01 2.67,4.07 0.25,5.59 2.38,5.66 -0.04,3.79 -2.83,4.83 -0.42,2.07 1.21,8.24 2.12,3.58 -0.99,5.91 -1.47,0.17 -1.76,-1.34 -0.95,0.13 0.84,3.97 -1.04,1.17 -0.76,-0.65 -2.92,3.43 1.17,0.8 3.32,-2.31 -0.74,2.01 0.53,1.5 -1.75,0.6 -2,5.62 -0.62,-1.31 0.34,-2.02 -1.34,0.25 -1.01,1.2 -0.08,2.29 3.62,1.08 -0.79,2.16 -1.24,-0.56 0.09,1.41 0,0 -3.22,0.17 -1.18,-0.76 -1.52,0.81 -5.07,-3.03 -0.71,0.63 -3.63,-4.7 -2.41,-1.5 -0.76,-1.99 -1.94,1.01 -2.18,-3.71 0.69,-1.32 -1.85,0.24 -1.99,-1.39 1,-2.86 -0.76,-1.64 0.62,-1.02 -0.53,-0.81 -0.17,1.23 -0.81,-0.24 -1.46,-2.56 -1.88,-0.35 -0.72,-0.98 0.13,3.97 -1.67,1.13 0.39,0.73 -1.88,0.3 0.07,1.13 -5.6,3.46 -1.25,-0.05 -0.79,-1.52 1.73,-0.16 1.88,-1.34 1.75,-4.82 -0.56,-1.5 -1.31,0.47 -2.21,-0.87 -0.17,-4.16 1.35,-1.4 -0.13,-1.46 -3.28,-1.7 -0.71,-2.07 0.25,-2.79 -2.83,-2.49 -4.25,2.01 -3.68,-0.84 -3.76,1.61 0.02,3.8 1.38,1.61 0.01,2.06 -4.53,2.96 -1.56,-1 -1.75,0.86 0.09,2.97 1.46,0.66 -0.67,0.94 -1.94,-2.54 -1.69,0.16 -0.58,1.05 -2.1,-0.75 0,0 1.98,-1.38 1.05,-2.85 -0.51,-4.97 -1.5,0.33 -1.16,-3.57 -3.41,1.2 -0.83,-2.21 1.54,-0.44 1.63,-2.04 0.53,0.55 0.64,-0.97 1.3,-0.18 0.19,-1.41 -2.63,-7.88 -0.88,-0.71 0.72,-0.78 -0.02,-6.93 1.19,0.65 1.94,-1.27 1.25,-3.88 -1.3,-3.57 3.05,-3.56 -0.66,-1.17 2.61,-2.51 0.3,-2.07 1.13,-1.2 -0.34,-0.86 -0.99,0.5 -1.44,-3.43 3.14,-1.74 2.19,0.17 -0.4,-3.26 z"
     title="Tolna"
     id="HU-TO" />
  <path
     d="m 48.321522,153.70412 2.86,3.48 1,-0.38 2.28,1.5 3.6,-3.11 2.59,-1.08 0.54,0.89 1.4,-0.94 0.56,1.17 3.46,-1.87 1.55,3.25 1.59,1.41 2.44,-0.69 0.2,0.92 1.41,0.05 1.38,2.17 1.94,-2.78 2.63,-0.98 5.33,-4.89 1.51,2.67 -2.28,5.8 0.5,0.36 1.6,-1.51 5.23,-1.55 1.75,-2.73 2.63,0.75 0,0 0.91,3.39 2.12,1.91 -1.77,1.38 2.27,2.72 0.509998,-0.31 0.64,1.17 2.99,1.71 0.92,-0.34 2.25,2.26 -6.23,2.44 -0.859998,1.21 0.2,2.23 -1.54,1.26 0.52,8.2 0.6,0.58 -0.41,4.04 -1.12,1.46 -0.01,2.91 1.59,4.19 0.17,4.08 -2.46,2.05 -1.97,-1.45 -0.74,0.69 -1.27,-1.03 -3.34,1.65 -2.87,0.09 -0.2,2.44 0,0 0.05,3.01 -1.61,-0.88 -1.33,0.98 -0.31,-2.33 -1.49,0.5 -0.36,-0.66 -1.27,0.9 1.25,4.51 -2.58,2.68 0.29,1.16 -0.99,1.4 -5.06,-0.25 -0.36,-1 -1.96,-0.65 -1.62,0.8 -2.73,-0.14 -0.42,-1 -3.45,3.69 -1.84,0.36 -0.82,2.98 -3.87,-0.97 -3.15,0.42 -1.31,-1 -1.5,0.21 -1.64,2 -1.82,-0.67 -3.63,4.53 -0.52,2.71 -1.57,1.87 -5.9,3.04 -0.04,3.88 -1.28,1.18 -3.9,1.83 -0.23,0.78 -3.46,-1.65 -3.46,1.12 -0.01,1.43 3.52,-1.06 0.23,1.01 -1.41,1.01 0.25,2.53 -2.21,2.46 0,0 -1.15,1.01 -0.66,-2.44 -2.81,-2.95 0.97,-2.86 -1.61,-0.42 0.39,-2.26 2.23,-0.95 0.64,-4.35 -4.02,-2.87 -0.77,-1.56 -5.12,-0.5 -7.2899999,2.8 -2.49,-0.42 -1.30999997,-1.42 1.63999997,-0.89 2.79,-3.71 1.41,-0.46 1.62,-4.25 1.79,-0.17 0.4499999,0.62 2.08,-1.33 0.75,-2.1 1.9,-0.01 0.22,-3.22 1.39,-3.52 0.88,2.02 1.98,-0.47 1.58,0.86 0.74,-1.87 1.45,0.42 0.63,1.1 3.57,-0.9 1.68,1.64 1.47,-0.24 0.19,-1.41 3.19,1.45 0.45,-0.91 2.05,-0.01 -4.1,-3.88 -1.68,1.03 -0.81,-0.91 0.29,-1.07 7.06,-2.59 -1.19,-1.31 -3.09,-0.82 0.15,-1.51 -1.11,-1.19 1.06,-1.49 0.46,0.57 0.42,-0.96 1.47,-0.2 0.13,-1.82 2.52,-0.41 -1.18,-2.84 -5.6,0.75 -0.42,-1.19 1.22,-2.23 -0.87,-2.62 -2.3,0.41 -1.12,-2.71 0.31,-0.7 0.3,0.56 1.2,-0.45 0.27,-1.01 0.21,-3.56 -0.87,-1.01 3.25,-0.12 1.16,-1.22 -0.12,-1.95 0.95,-0.49 -2.3,-7.27 -1.33,-0.42 -1.36,-1.88 1.69,-0.56 0.5,-1.43 -0.68,-1.1 0.3,-0.85 0.74,0.04 -1.37,-3.41 0.86,-0.56 2.67,0.7 -0.23,1.21 1.08,0.23 0.19,0.84 1.16,-0.98 0.07,-1.62 5.63,0.47 1.31,-2.3 2.96,-1.05 0.62,-1.48 1.54,-0.65 z m -4.81,24.03 0.2,1.17 -3.7,0.69 -1.61,-1.26 -1.89,0.72 0.14,1.19 2.95,1.72 0.48,4.68 1.62,2.85 -0.03,2.04 3.4,2.55 1.26,-0.4 2.04,-3.25 0.72,-0.04 1.94,2.26 0.75,-0.38 0.06,-6.68 -1.16,-2.07 2.33,-2.13 -1.1,-3.21 -0.87,-0.09 -1.44,1.59 -3.18,-2.04 -1.25,0.62 -1.66,-0.53 z"
     title="Vas"
     id="HU-VA" />
  <path
     d="m 96.001522,155.57412 1.89,-1.58 2.239998,1.69 0.13,-0.9 0.7,-0.07 4.2,0.85 0,0 1.07,0 0,0 6.98,-1.42 1.5,-2.18 0.36,-3.25 3.1,0.79 1.82,-1.46 2.87,0.31 5.82,2.57 2.86,-2.71 3.27,4.1 1.44,-1.13 0.59,0.76 0.83,-0.37 0.44,1.37 1.85,-0.65 0.24,-1.5 0.93,-0.53 0.74,0.83 1.79,-0.72 0.79,1.25 -0.6,1.62 2.35,-0.43 -0.7,-1.25 0.77,-0.88 -0.35,-0.58 0.76,-0.23 1.73,2.52 3.75,-4.64 0.32,2.17 1.01,0.19 1.87,-2.49 2.41,1.89 1.2,2.78 0,0 2.66,4.19 -2.1,4.33 2.6,1.37 0.64,-0.76 1.86,0.2 1.36,1.14 -0.04,1.5 -1.61,0.58 2.54,1.7 0.22,2.08 5.04,-0.74 1.7,0.66 0,0 0.72,1.67 1.93,0.29 -1.66,1.98 0.89,3.62 1.6,-0.41 2.86,4.19 3.39,-2.16 1.18,-0.01 1.57,3.43 1.99,1.91 1.79,0.05 0.62,1.18 -0.02,4.82 -1.06,2.99 1.16,4.36 -0.19,2.31 1.03,1.48 -2.75,2.18 0.74,3.49 2.12,3.96 2.08,-0.44 0.29,0.73 -2.37,0.71 -0.15,0.94 -1.89,1.13 -0.6,1.83 -4.02,3.48 0,0 -0.43,-0.39 -0.58,1.05 -8.08,-1.53 -13.64,6.3 0.05,3.37 -2.19,2.01 -3.2,-0.21 -4.06,2.53 -8.48,3.26 -3.57,2.67 -16.48,8.03 -6.3,0.32 0,0 -5.38,-5.58 -0.97,-2.92 -2.19,-2.47 -0.01,-1.92 1.34,-1 -1.91,-2.18 0.71,-1.35 -0.44,-1.32 -1.08,-0.37 -2.35,-3.11 -2.44,0.67 -2.57,-1.18 1.06,-3.89 1.1,-0.75 -0.21,-1.44 -1.76,-1.37 -0.46,-1.5 -1.709998,-1.5 -1.99,1.06 -2.82,-0.71 -7.1,-6.28 0,0 0.2,-2.44 2.87,-0.09 3.34,-1.65 1.27,1.03 0.74,-0.69 1.97,1.45 2.46,-2.05 -0.17,-4.08 -1.59,-4.19 0.01,-2.91 1.12,-1.46 0.42,-4.04 -0.59,-0.58 -0.52,-8.2 1.539998,-1.26 -0.199998,-2.23 0.859998,-1.21 6.24,-2.44 -2.25,-2.26 -0.92,0.35 -2.99,-1.71 -0.64,-1.17 -0.499998,0.31 -2.26,-2.72 1.77,-1.38 -2.12,-1.91 -1.01,-3.45 z m 57.559998,35.4 0.45,1.31 3.18,1.36 0.5,3.5 -3.7,3.91 5.14,5.45 0.2,2.92 2.12,0.29 1.16,-0.57 1.61,-3.71 3.78,-0.12 1.25,-4.95 -0.52,-1.06 0.85,-1.03 -4.24,-7.26 -3.52,-3.32 -2.08,-0.63 -3.17,3.64 -3.01,0.27 z"
     title="Veszprém"
     id="HU-VE" />
  <path
     d="m 164.20152,189.70412 4.88,7.33 0.16,3.34 -1.45,5.18 -3.57,-0.1 -1.61,3.71 -2.68,0.69 -1.07,-1.46 0.27,-1.87 -5.15,-5.46 3.7,-3.91 -0.49,-3.5 -3.18,-1.37 -0.45,-1.31 3.01,-0.26 3.16,-3.64 2.08,0.64 z"
     title="Veszprém"
     id="HU-VM" />
  <path
     d="m 86.881522,206.50412 7.1,6.28 2.83,0.71 1.99,-1.05 1.709998,1.5 0.46,1.5 1.76,1.37 0.21,1.44 -1.1,0.75 -1.06,3.89 2.57,1.19 2.44,-0.67 2.36,3.11 1.08,0.37 0.44,1.32 -0.71,1.36 1.91,2.18 -1.33,1 0.01,1.92 2.19,2.47 0.98,2.92 5.38,5.58 0,0 -2.44,0.67 -2.56,1.86 -8.54,-0.39 -1.06,5.94 -3.15,2.96 -0.459998,5.87 0.699998,14.35 -2.169998,3.49 -1.03,-0.08 -0.27,7.14 -4.08,0.29 -0.14,2.56 -1.19,0.4 -1.23,-0.14 -0.11,-0.94 -1.64,-0.8 0,0 -0.25,-2.18 -1.42,-0.63 0.4,-2.43 -3.15,-2.59 0.77,-4.42 -0.63,-2.57 -1.99,-0.56 -1.02,1.75 -1.95,1.06 -0.74,-1.12 -1.16,0.46 -0.18,1.94 0.84,0.73 -0.46,2.42 -2.69,-0.21 -2.72,14.65 2.45,3.57 1.1,-0.96 3.31,0.73 0.33,-3.53 3.59,-2.61 0,0 1.06,0.71 1.38,5.03 -0.11,1.12 -0.96,0 -0.96,1.47 0.39,1.76 -1.48,0.94 -0.96,0.52 -2.58,-1.33 -2.62,2.71 -1.45,0.5 -0.47,-3.32 -3,0.61 -2.49,-1.93 0,0 0.42,-1.11 -1.48,-1.5 0.35,-0.98 -1.28,-0.1 -0.37,-1.09 -1.01,-0.35 0,-1.19 -0.92,0.95 -2.83,-2.49 -1.45,0.93 -0.86,-0.83 -0.77,0.77 -0.63,-1.13 -1.2,0.1 -0.63,-1.71 -1.26,1.06 -4.21,-7.28 -1.31,0.39 0.6,-1.7 -1.26,-0.67 -1.95,0.27 -0.41,-0.93 -2.51,0.52 -1.72,-2.46 -4.98,-2.66 0.89,-1.18 -0.69,-0.76 0.63,-1.65 -1.22,-0.54 -0.59,-3.28 -2.56,-0.82 -0.26,-1.92 -3.19,-3.78 -2.15,-0.5 -0.69,-1.74 -1.89,-0.86 -0.66,-1.49 0.6,-2.5 2.42,0.71 0.91,-4.76 -4.96,-0.76 -0.43,-0.41 0.9,-1.09 -0.9,-1.33 0,0 2.2,-2.49 -0.25,-2.53 1.41,-1.01 -0.23,-1.01 -3.52,1.06 0.01,-1.43 3.47,-1.12 3.46,1.66 0.23,-0.77 3.9,-1.83 1.28,-1.18 0.04,-3.88 5.9,-3.04 1.57,-1.87 0.52,-2.71 3.63,-4.53 1.82,0.67 1.64,-2 1.5,-0.21 1.31,1 3.15,-0.42 3.87,0.98 0.82,-2.98 1.84,-0.36 3.45,-3.69 0.42,1 2.73,0.14 1.62,-0.8 1.96,0.65 0.36,1 5.06,0.25 0.99,-1.4 -0.29,-1.16 2.58,-2.68 -1.25,-4.51 1.27,-0.9 0.36,0.66 1.49,-0.5 0.26,2.28 1.34,-0.98 1.62,0.88 -0.06,-3 z m -25.63,20.87 -0.78,2.65 -0.21,1.92 1.24,1.16 -0.63,3.8 1.63,2.46 -1.66,2.65 1.7,2.23 1.34,-0.29 0.92,-1.33 3.7,0.34 3.39,-0.89 -0.63,-3.44 0.89,-0.72 0.04,-2.43 -1.71,-2.76 0.46,-1.5 -1.07,-1.3 -1.95,-0.28 -0.87,-2.13 -2.37,-0.26 -0.33,0.67 -3.1,-0.55 z"
     title="Zala"
     id="HU-ZA" />
  <path
     d="m 65.661522,227.67412 1.39,-0.17 0.87,2.13 1.95,0.28 1.07,1.3 -0.46,1.5 1.72,2.76 -0.04,2.43 -0.89,0.73 0.63,3.44 -3.39,0.89 -3.7,-0.34 -0.92,1.33 -1.35,0.28 -1.69,-2.23 1.66,-2.65 -1.64,-2.46 0.64,-3.8 -1.24,-1.16 0.21,-1.92 0.77,-2.64 z"
     title="Zalaegerszeg"
     id="HU-ZE" />
</svg>
