<?xml version="1.0" encoding="UTF-8" standalone="no"?>
<!-- Created for MapSVG plugin: http://mapsvg.com -->
<svg
   xmlns:mapsvg="http://mapsvg.com"
   xmlns:dc="http://purl.org/dc/elements/1.1/"
   xmlns:rdf="http://www.w3.org/1999/02/22-rdf-syntax-ns#"
   xmlns:svg="http://www.w3.org/2000/svg"
   xmlns="http://www.w3.org/2000/svg"
   mapsvg:geoViewBox="-24.531109 66.574598 -13.490355 63.377379"
   width="612.70581"
   height="419.48148">
 
  <path
     d="m 265.38418,231.70704 -0.91,4.92 -2.86,2.05 0,1.14 1.39,0.41 0.74,1.23 -0.33,3.85 -1.15,1.15 -3.11,1.47 -1.23,1.64 1.97,0.57 -0.08,1.97 -2.46,2.78 1.06,2.7 -0.08,1.56 -2.29,1.64 -0.16,2.78 -2.46,1.64 0,1.14 1.72,0.33 0.33,1.31 -2.79,2.7 -9,5 -4.02,4.67 -1.96,0.32 -1.39,-0.41 -0.74,-1.72 -0.08,-2.45 -1.15,-1.31 -3.28,1.06 -0.08,4.26 -1.06,2.05 -1.15,0.49 -1.31,-0.74 -2.95,-5.24 0.09,-2.78 -0.58,-1.31 -3.52,-0.41 -0.33,-1.39 1.48,-0.82 -1.15,-0.9 -1.31,0 -0.65,1.06 -0.88,-0.04 0,0 -0.02,-0.12 0,0 -3.26,-3.18 6.37,-5.2 -0.55,-3.88 3.84,-2.95 5.19,-1.78 4.04,0.38 4.19,-1.01 0.77,-1.62 -1.01,-2.02 4.27,-3.18 1.32,-0.31 1.01,0.46 1.78,2.02 1.09,-3.57 -0.39,-5.35 0.31,-2.25 2.87,-2.41 2.41,-3.02 1.78,-1.4 1.79,-0.23 1,-2.56 3.94,-0.54 0,0 0.88,0.69 2.13,0.24 1.31,1.81 z"
     title="Glacier 1"
     id="GL1" />
  <path
     d="m 300.21418,242.22704 0.48,-0.09 0.29,-2.33 -2.48,-3.78 -0.14,-4.37 4.66,0.15 1.31,-3.93 2.33,-0.29 0.43,-1.02 -1.16,-1.31 0.58,-2.33 2.77,-2.04 1.74,-2.19 2.04,-1.31 5.24,-0.29 3.06,2.62 2.18,0.73 1.89,-0.14 0,-1.61 2.19,-0.29 2.33,2.77 7.13,3.93 -0.6,4.99 0,0 -0.71,1.27 0.58,12.52 -3.05,5.53 -2.48,1.89 -2.33,1.02 -3.2,-2.47 -1.17,2.62 0.15,2.04 2.62,3.2 -1.31,0.87 -0.87,1.6 -2.48,-1.74 -2.76,-0.29 -0.73,-3.93 -3.64,-0.3 -1.02,6.26 -2.62,-0.43 -2.62,-1.46 -5.53,-5.24 0,-1.45 -0.88,-0.59 -2.03,0.15 -1.75,-4.08 1.75,-3.78 z"
     title="Glacier 2"
     id="GL2" />
  <path
     d="m 133.17418,68.977043 -1.95,0 -6.83,-5.71 -3.62,-4.04 -1.95,-0.42 -1.67,-7.39 3.34,-3.48 2.23,-0.7 4.32,1.4 1.53,2.23 2.23,1.39 0.98,4.32 1.95,1.53 2.23,3.35 1.53,3.62 -2.51,3.06 z"
     title="Glacier 3"
     id="GL3" />
  <path
     d="m 43.444176,235.12704 0,1.12 1.4,-0.14 0.69,1.53 0,1.67 -1.11,1.26 0,1.25 -1.81,0.84 -1.26,-1.12 -1.11,0 -2.51,-2.09 0,-1.25 1.12,-0.84 0.27,-1.53 1.12,-0.7 z"
     title="Glacier 4"
     id="GL4" />
  <path
     d="m 232.67418,246.90704 -0.98,0.83 -4.87,-0.42 -0.84,-1.39 0.84,-0.84 0,-1.25 2.23,-1.67 0.41,-1.39 1.4,0 1.39,1.53 1.81,0.28 0.42,2.09 -1.25,0.83 z"
     title="Glacier 5"
     id="GL5" />
  <path
     d="m 368.98418,249.03704 -1.12,0.43 -2.66,-0.43 -2.15,-2.75 1.89,-1.8 2.06,-0.78 0.35,-0.94 4.12,-2.06 2.07,0.94 0.51,1.29 -0.86,1.81 -2.06,1.37 z"
     title="Glacier 6"
     id="GL6" />
  <path
     d="m 274.05418,385.44704 1.32,0.71 0,0 1.83,-0.4 3.85,0.4 1.42,1.02 0.81,1.62 -0.5,1.32 -2.64,2.94 -1.83,0.61 -6.59,0.2 -4.77,-4.16 -0.71,-1.62 2.94,-3.04 3.76,-0.31 0,0 z"
     title="Glacier 7"
     id="GL7" />
  <path
     d="m 307.63418,369.01704 2.13,1.22 0,0 2.33,0.3 2.24,0.91 3.75,3.25 0.2,1.42 -0.91,1.62 -3.65,1.02 -0.61,1.42 1.52,1.01 1.42,0.1 1.52,1.32 0,1.83 -2.23,0.2 -1.32,3.75 1.62,2.34 1.43,1.11 3.44,0.81 0.61,0.92 -0.3,1.52 -1.22,1.32 -3.85,2.43 -1.02,-1.01 -2.94,-0.2 -0.81,-1.32 -0.81,-0.21 0.1,1.53 -1.02,1.31 -8.11,-0.1 -1.02,0.81 -2.43,-0.3 -0.41,1.32 -0.91,-0.21 -1.01,-3.85 -1.12,-1.01 -0.71,0.3 -0.1,1.93 -2.54,2.23 -1.42,0.61 -0.3,-1.73 0.91,-0.6 0.71,-1.63 0.31,-3.65 -4.57,-1.42 -0.91,-1.52 0.3,-1.73 1.02,-1.11 2.23,-0.41 0.91,-1.62 0.31,-4.57 0.5,-0.91 1.83,0.51 0.4,0.81 1.63,-0.2 -0.92,-2.03 -1.31,0 -3.05,-1.32 0.41,-2.44 1.11,-2.53 1.63,0.51 0.6,1.01 5.59,-3.35 0.3,-0.91 1.42,0.1 1.12,-0.91 3.04,-1.02 1.42,0.21 0,0 z"
     title="Glacier 8"
     id="GL8" />
  <path
     d="m 376.53418,260.58704 0.75,0.23 0,1.36 3.49,-0.38 1.36,-3.5 5.82,-4.85 0.59,-1.36 2.13,-0.39 0.58,-2.72 5.25,-5.24 4.27,-2.13 1.94,0.97 1.94,0.19 0.77,1.56 2.33,-0.39 1.36,-1.94 3.3,-2.72 3.3,-0.58 3.88,-2.14 5.24,1.55 2.14,0.2 2.91,0.19 0.78,-0.97 1.16,0 3.5,2.91 0.21,-0.46 0,0 0.17,4.73 -2.13,1.75 -1.36,3.88 0.39,7.38 2.13,-0.58 1.17,-1.56 0.19,-4.65 1.75,-0.59 1.55,0.59 -0.58,4.46 1.75,0.78 -0.59,3.68 -2.52,1.75 0,2.52 6.21,-2.32 1.94,-3.11 0.97,-4.46 4.47,-4.27 6.6,-2.53 2.52,-1.55 5.24,-4.66 2.14,-0.97 2.13,0.97 5.44,0 5.43,0.97 3.3,3.5 -0.19,7.76 2.52,2.13 2.91,1.56 2.53,2.33 1.74,0.19 0.2,-5.05 0.77,-1.55 4.47,-2.33 2.71,0.97 -0.97,2.53 -2.13,1.16 0,2.52 2.13,0 1.36,-0.58 1.36,1.55 1.75,-1.74 4.85,0 0,2.52 -0.77,1.75 0.38,1.74 2.91,-0.19 1.36,0.39 2.33,3.1 -2.52,1.17 -1.94,2.91 -0.78,3.3 -1.55,1.55 -2.14,0 -1.74,1.75 -1.56,-1.94 -1.35,0 -0.98,1.75 -0.97,2.32 -0.38,2.53 1.16,1.55 1.94,0.19 1.55,1.56 0.2,3.1 -1.94,0 -1.94,-0.77 -0.78,-2.53 -2.33,-2.52 -1.36,0.19 0,2.72 -2.33,-0.77 -1.94,0.38 0.78,2.72 -2.14,0.97 -1.94,1.55 0.58,1.95 2.14,1.94 3.69,2.13 1.36,2.52 2.91,1.94 -2.52,0.78 -1.75,-0.58 -0.39,-1.94 -9.32,-6.6 -0.77,1.55 -5.63,1.75 1.74,2.72 1.95,1.74 6.79,4.08 -8.54,-1.36 2.33,3.11 1.94,0.77 3.3,0.39 -0.78,2.14 -1.94,0.19 -1.75,0.78 -1.55,-0.97 -3.1,-0.39 -4.86,1.36 -2.33,-0.39 -1.94,-0.97 -6.6,0.58 1.56,3.49 2.52,2.14 -0.19,1.75 -1.17,2.32 -1.94,0.59 -4.27,-4.08 0.58,-4.66 -1.94,0 -0.58,4.47 0.19,3.88 2.53,5.24 1.94,1.75 0.77,2.52 -0.38,2.72 -2.53,2.52 -4.27,-1.75 -1.16,0.98 -3.5,-0.2 -1.36,-1.16 -2.91,-0.39 -2.52,1.36 -0.78,2.13 6.41,3.3 0.39,1.75 -5.63,0.58 -1.94,2.91 0.19,1.75 -1.16,0.58 -0.59,1.94 -7.57,0.2 -4.07,-6.41 1.16,-1.55 -0.19,-2.33 0.58,-2.14 -1.36,-1.74 -2.52,-0.58 -2.14,0.77 -0.58,4.27 -1.94,0 -0.78,-3.69 3.3,-3.1 1.94,-0.78 -0.97,-1.94 -1.74,-0.97 -1.56,1.94 -1.35,0 0,-2.13 -1.36,-0.59 -5.44,-0.38 -1.94,-1.36 -3.11,0.19 1.56,1.55 -0.78,1.75 -2.52,-0.19 -1.17,1.74 0.97,1.75 4.47,3.69 -0.97,5.05 -1.75,1.16 -6.21,0.97 -3.11,-0.39 -1.16,-1.55 -1.78,0 0,0 0.01,-0.68 -0.97,-0.39 -0.39,-1.55 1.36,-0.78 1.56,-4.66 0.97,-6.98 -0.59,-3.3 0.78,-1.94 0.19,-3.3 -4.46,-3.11 -1.75,-1.94 -1.94,0.78 0.97,3.3 -0.58,1.94 -1.36,-0.2 -0.97,-1.74 -1.36,-0.98 -1.74,0.2 -0.2,1.94 -1.55,0.97 -0.97,1.36 -3.3,0 -0.97,-3.11 0,-2.71 -2.53,0.19 0.39,4.66 0.97,1.75 -0.58,5.62 -1.55,1.95 -0.97,2.32 -7.77,-0.19 -1.94,-0.97 -1.55,-2.52 -1.94,-0.39 -1.75,-2.33 0.2,-4.85 2.13,-0.2 1.17,-0.58 -0.2,-2.13 -4.85,-0.59 -0.19,-4.66 -1.17,-0.77 -3.11,-0.78 -2.52,-5.82 0,-2.72 9.12,-9.12 0.59,-3.11 1.74,-2.91 0,-2.72 5.05,-1.55 1.55,-0.97 0.2,-1.75 -2.91,-0.77 -2.72,-1.36 -0.39,-3.69 0.97,-3.49 5.82,-5.44 2.53,-3.49 z"
     title="Glacier 9"
     id=" GL9" />
  <path
     d="m 216.46418,271.77704 -0.46,4.32 -1.23,0.57 -3.28,1.15 -2.54,-1.97 -0.52,-1.05 0,0 0.68,-1.9 2.48,-2.56 2.79,0.08 z"
     title="Glacier10"
     id="GL10" />
  <path
     d="m 159.18418,344.64704 -0.97,-1.17 -1.32,-0.66 -8.72,0.17 -5.1,1.97 -2.96,0.49 -5.76,-6.91 -1.18,-0.75 0,0 0.35,-1.14 1.27,-0.12 0.79,-0.6 2.43,-0.16 0.45,0 1.51,-0.33 0.78,-1.03 0.03,-0.86 0.75,0.6 0.67,-0.61 0.84,0.25 0.07,-0.53 -0.66,-0.02 -0.44,-1.09 -1.2,-0.59 -0.75,-1.05 -1.21,-0.31 -0.56,-0.33 0.64,-0.5 0.1,-1.33 1.06,-0.93 1.24,-0.44 -0.68,1.33 0.31,0.29 0.59,-0.99 1.14,-0.1 0.38,0.68 0,0.99 -0.97,-0.73 -0.31,0.66 -1.42,0.13 0.85,0.85 2.26,-0.64 -0.11,0.89 0.85,-0.01 0.64,-0.39 -0.24,-1.01 -0.26,-0.4 -0.37,-0.93 2.08,-0.5 -2.46,-0.38 -0.69,-0.82 -0.34,-1.51 -2.59,-2.16 -0.92,1.1 -0.39,-0.69 0.33,-0.09 0.99,-1.12 2.37,1.82 1.42,-0.67 1.55,1.19 1.36,-0.29 0.23,-0.74 0.59,-0.19 1.8,1.31 0.16,2.5 0.66,-0.86 2.03,0.43 -1.86,-1.6 0.17,-0.61 0.74,0.27 -0.21,-0.37 -0.71,-0.52 0.56,-0.87 0.2,0.41 0.89,-0.71 -1.3,-0.8 -0.14,-1.09 1.01,0 0.74,0.63 0.52,1.18 -0.51,0.03 -0.09,0.48 0.73,0.04 1.69,-0.97 -0.29,-0.7 2.44,-0.62 0.19,-1.1 -0.59,-0.17 -0.94,0.93 -1.57,-0.24 -0.67,0.65 -0.2,-0.39 1.04,-1.15 -0.53,-1.04 1.24,-0.12 0.2,-0.6 1.23,0.03 0.12,-0.43 0.5,0.05 -0.08,-0.55 -0.76,-0.23 -2.1,0.86 -1.66,-1.04 -2.03,0.54 -0.18,-0.6 0.58,-0.09 0.51,-1.27 -0.44,-1.51 -0.85,-0.6 -1.15,0.12 -0.37,0.73 -1.24,0.62 -0.44,-0.17 -0.78,-0.49 1.01,-0.75 -1.21,-0.49 1.42,-0.24 2.74,-5.76 1.25,-0.58 1.92,-2.87 2.48,-2.27 0.12,-1.22 0.88,1.02 1.76,-0.53 0.69,0.66 2,0.04 1.19,-1.11 -1,-0.41 -1.72,0.18 -0.71,-1.23 3.4,-2.02 1.09,-0.12 0.5,-0.65 1.59,0.1 -0.56,0.55 0.18,1 1.71,0.29 1.99,-0.65 0.61,0.95 2.33,0.51 1.98,-0.46 -0.5,-1.29 1.88,-1.58 1.54,-0.26 0,0 4.61,1.12 2.71,2.02 1.79,0.7 1.16,1.39 0,0 0.19,-0.2 0,0 0.04,0.84 -1.32,1.32 -1.97,1.31 -2.14,0.33 -1.81,1.97 -0.33,1.65 -5.1,5.43 0.33,4.61 0.99,1.31 0.16,2.31 -0.66,2.96 -1.15,1.31 -0.49,2.31 -1.65,1.15 -0.49,2.47 -4.61,6.74 -0.82,2.47 -1.48,0.99 -0.99,4.61 -4.11,0.16 0,0 z"
     title="Höfuðborgarsvæði utan Reykjavíkur"
     id="IS-1" />
  <path
     d="m 101.76418,330.91704 3.08,1.28 2.59,3.55 0.6,0.16 0.21,0.96 1.59,1.2 0.19,0.73 -0.37,0.34 0.6,1.28 -0.39,0.44 0.76,0.55 -0.23,0.75 0.54,1.09 -0.41,0.88 0.6,0.84 1.13,-1 0.63,0.68 2.66,0.48 2.68,-0.11 0.89,-0.77 -0.7,-0.46 0.9,-1.99 1.69,-1.56 1.55,0.52 0.2,-0.57 3.22,-2.18 1.56,0.12 0.14,0.51 1.05,0.2 0.35,0.86 1.27,0.32 0.5,-0.59 1.15,-0.16 0.6,-1.24 0.58,-0.24 0,0 1.18,0.75 5.76,6.91 2.96,-0.49 5.1,-1.97 8.72,-0.17 1.32,0.66 0.97,1.17 0,0 -1.63,1.63 0,0 -1.81,1.48 -1.97,2.96 -4.12,3.29 -0.66,1.97 -4.77,3.95 -0.1,2.12 0,0 -2.09,0.4 -1.97,-0.32 -3.54,0.85 -3.45,-0.91 -2.11,0.76 -2.87,-0.14 -1.82,-1.2 -2.3,-0.16 -1.43,-1.36 -1.2,-0.23 -1.53,1.3 -0.3,0.81 -0.8,-0.02 0.1,1.37 -0.59,0.52 -0.87,-0.45 -0.34,-1.25 -1.99,1.57 -1.51,-0.04 -0.94,-0.54 -0.2,1.38 -0.65,-0.06 -0.65,0.89 -1.68,0.1 -3.21,-1.35 -3.6,2.46 -1.13,0.17 -0.46,-1.48 -1.440004,-0.83 0.29,-1.01 1.340004,-1.38 0.65,-2.5 -2.090004,-1.9 -0.31,-1.72 0.48,-0.92 1.340004,-0.32 0.01,-1.75 0.53,-0.5 -0.21,-0.54 0.63,-0.82 0.01,-1.16 1.48,-0.49 1.07,0.28 0.74,-0.6 -0.67,-0.19 0.63,-0.59 -0.2,-0.52 -2.26,0.95 -1.05,-0.63 -0.53,0.32 -1.23,-1.17 -0.350004,-1.28 -0.8,-0.04 -0.29,-0.81 0.61,-2.71 1.500004,-0.61 0.44,-0.91 -0.32,-3.23 0.42,-2.68 -0.4,-0.75 0.59,-1.17 -0.58,-0.5 0.98,-0.7 -0.82,-0.73 z"
     title="Suðurnes"
     id="IS-2" />
  <path
     d="m 196.41418,219.41704 -0.04,-0.29 0,0 0.7,0.78 2.56,1.16 2.64,2.25 6.96,0.08 6.28,3.8 1.09,-0.85 1.47,-2.33 2.02,-1.47 4.19,0 0.47,-2.33 1.47,-0.85 2.56,0.85 7.14,3.65 7.22,-1.94 3.41,1.47 4.58,0.31 2.1,-0.54 1.79,0.54 2.02,-0.54 1.94,0.16 1.55,0.62 -0.1,2.4 0,0 -3.93,0.54 -1.01,2.56 -1.78,0.23 -1.78,1.4 -2.4,3.03 -2.87,2.4 -0.31,2.25 0.39,5.35 -1.09,3.57 -1.78,-2.02 -1.01,-0.47 -1.32,0.31 -4.27,3.18 1.01,2.02 -0.78,1.63 -4.19,1.01 -4.03,-0.39 -5.2,1.79 -3.83,2.95 0.54,3.88 -6.36,5.2 3.26,3.18 0,0 0.16,1.16 0,0 -1.34,0.66 0,0 0,0 0,0 -2.07,-1.35 -2.79,-0.08 -2.48,2.56 -0.68,1.89 0,0 -2.27,0.2 -1.24,2.4 -3.49,3.88 -8.07,7.68 -2.33,5.04 -2.17,2.17 0,0 -2.25,2.4 0,0 -1.16,-1.4 -1.78,-0.7 -2.71,-2.02 -4.61,-1.13 0,0 -0.69,-0.55 -1.66,-0.05 -1.2,0.59 -0.58,1.34 -1.35,0.24 -0.64,-0.14 0.13,-0.5 2.2,-0.92 -0.08,-0.83 -0.98,-0.92 -3.76,0.18 -1.34,0.56 -3.3,-1.67 -2.5,0.19 -5.08,3.02 -0.45,1.42 -2.08,1.02 -1.36,2.56 -5.59,4.13 -3.97,0.6 -0.9,0.55 -1.13,-0.73 -1.21,0.22 -0.62,-1.33 -1.1,-0.65 -0.99,0.26 -0.65,1.06 0.06,-1.12 1.01,-1.49 1.34,-0.7 1.6,-2.51 0.79,-0.08 0.24,-0.97 0.49,0.15 0.51,-1.05 0.83,-0.34 0.06,1.62 2.23,0.14 1.67,-0.42 1.39,-1.11 0.14,-1.11 -2.65,-2.37 -1.39,-0.14 -0.56,1.39 -1.05,0.11 -1.07,1.34 -0.13,-0.98 -1.47,-1.04 -1.11,-1.79 0.68,-0.42 0.09,-1.29 0.69,-0.54 0.38,-3.55 0.32,-0.74 1,-0.54 0.18,-2.47 1.26,-2.9 1.67,-1.3 1.48,-0.39 1.05,-1.71 0.65,0.39 2.22,-0.28 0.95,-0.39 0.36,-0.4 1.45,0.04 -0.5,-1.59 -2.1,0.15 1.64,-0.68 1.93,-4.02 -1.45,-0.17 -0.66,0.7 -0.21,-0.77 -1.12,0.97 -0.53,-0.09 -0.79,0.98 -0.79,-0.21 0.55,1.38 -0.98,0.5 -0.61,-0.08 0.61,-0.85 -0.61,-0.27 -0.43,1.8 -0.71,0.26 -1.06,2.06 -0.4,-0.67 0.76,-0.62 0.42,-1.58 -0.65,-0.12 -0.07,0.76 -0.95,0.46 -0.71,-0.54 -0.09,0.84 -0.61,-0.22 0.04,1.24 -0.61,1.33 -1.12,-0.44 -0.42,0.71 -0.73,0 -0.41,-0.39 -0.89,0.39 -0.12,-0.54 1.74,-3.77 -0.33,-1.16 -0.86,0.98 -0.14,0.48 -0.96,1.8 0.54,0.52 -0.59,1.49 0.47,0.85 -0.3,1.4 -1.57,0.72 0.41,0.93 -0.43,2.83 -1.03,0.66 -0.58,-0.26 -0.46,-0.14 -1.2,0.13 0.12,-0.44 -0.64,-0.13 -1.24,1.16 -0.93,-0.32 0.03,-0.81 -0.6,-0.14 -0.31,-0.82 0.17,-1.64 -0.93,-0.12 -0.33,-1.34 -0.19,1.65 -0.49,0.13 -0.32,-0.99 0.53,-0.1 -0.22,-1.67 0.49,0.18 -0.04,-1.29 0.72,-0.4 0.37,-0.94 -1.21,0.01 0.27,-1.15 0.38,-0.85 -0.63,-1.09 -0.29,1.19 -0.51,-0.27 -0.85,0.64 0.69,-1.55 0.67,-0.3 -1.23,-0.46 -0.2,-0.84 -0.2,-0.26 -0.63,-0.3 -1.81,3.24 0.17,-1.62 -0.62,0.49 -1.61,-0.05 0.37,-3.75 -0.78,0 0.37,-1.75 -0.72,-0.05 0.92,-2.4 -0.49,-0.45 -0.65,0.61 -1.49,-1.81 0.44,-0.59 -0.48,-0.66 -3.51,-2.24 0.22,-0.98 1.75,-0.92 0.32,-1.73 1.51,-0.85 0.28,-3.23 0.5,-0.25 0.5,0.88 0.74,0.08 0.27,-1.19 0.69,-0.52 -0.28,-1.14 -0.56,0 0.18,-0.62 1.67,-1.17 -0.1,-1.15 -2.25,-1.39 -0.75,-0.08 -0.3,0.86 -0.83,-0.08 -0.16,-0.53 -1.3,0.09 -0.48,1.21 -1.32,-0.48 0.04,-0.53 1.39,-0.64 0.2,-0.55 0.18,-0.82 0.34,-0.62 -0.15,-0.55 -0.75,0.83 -1.75,0.12 0.39,-0.66 0.47,0.39 1.56,-1.31 0.25,-0.65 -0.47,-1.57 -0.57,1.64 -1.86,0.17 0.25,-1 -0.58,-0.58 -1.06,0.73 0.5,0.34 -0.12,0.43 -0.48,0.2 -0.22,-0.66 -0.8,0.85 -1.08,-1.72 -3.92,3.67 0.93,0.61 0.98,-0.52 0.31,0.55 -1.31,0.47 -1.2,-0.53 -1.1,0.13 -1.14,1.01 -2.57,-1.78 1.94,0.68 0.66,-0.01 0.76,-0.7 -0.5,-1.01 -0.84,0.73 -1.09,-0.43 0.84,-1.16 -1.14,-1.31 -0.72,0.48 -0.59,-0.71 -3.360004,1.24 0.21,1.11 -3.7,-0.7 -1.15,-0.77 -3.6,1.24 -4.31,-1.7 -2.02,1.37 -1.24,-0.88 -3.27,-0.05 -8.65,-2.77 -5.78,-0.22 -0.65,0.36 -0.78,2.84 -1.51,1.31 -2.56,-0.52 -1.82,-1.17 -3.72,0.03 -1.58,0.46 -0.59,1.31 -0.86,0.33 -0.37,1.6 0.75,1.3 -0.66,0.22 -0.83,1.49 -0.05,1.6 -2.84,-0.83 -4.05,0.58 -1.45,1.1 -0.98,-0.58 -0.18,-0.73 -2.81,-1.04 -0.02,-0.48 -2.4,-0.29 -0.43,-1.51 -0.84,-0.83 0.21,-0.81 -1.8,-2.22 -0.61,-2.69 -0.82,-0.21 -1.18,-1.25 -1.69,-3.22 -0.49,-3.09 0.14,-1.2 0.93,0.77 2.33,-0.4 0.37,-1.07 1.24,-1.62 0.88,-0.42 1.15,-2.08 1.26,0.51 0.49,-0.71 2.51,-0.69 1.38,0.2 0.58,0.41 -0.27,0.35 0.37,0.55 2.05,1.7 3.68,1.04 -0.25,0.29 0.48,0.48 3.58,0.34 1.3,-1.49 0.59,-1.58 2.8,0.13 0.15,-0.63 1.02,-0.17 1.15,-2.89 1.25,-1.36 2.96,0.68 1.97,-0.81 -0.9,0.93 1.46,0.34 0.47,0.59 0.61,-0.16 -1.76,-2.63 2.11,-0.99 1.19,0.6 0.46,1.48 -1.01,2.13 1.26,0.57 -0.15,-1.88 1.14,-0.48 0.67,1.49 -1,1.8 0.7,0.24 0.62,0.09 1.36,-0.8 0.52,0.88 0.85,-0.08 1.44,-0.73 0.45,-2.35 -0.89,-2.24 -0.45,-4.29 1.75,-1.98 1.31,-0.29 1.64,0.96 3.41,0.18 -1.76,1.68 -0.84,2.45 0.42,0.73 -0.85,0.21 -1.36,2.59 1.98,1.18 0.14,2.14 1.52,0.95 0.55,-0.31 -0.03,-1.45 -1.34,-4.76 0.52,-0.14 -0.41,-0.75 3.73,1.62 0.75,-0.33 1.01,1.58 1.01,-0.27 0.22,-0.33 -1.07,-1.12 -1.32,-0.78 -1.16,0.39 -0.27,-0.44 0.93,-3.22 1.18,-1.57 1.69,-0.63 1.79,0.39 0.38,0.88 1.01,0.42 -0.52,0.6 0.82,0.04 0.49,0.67 0.41,-1.77 1.2,0.21 0.59,-0.9 1.99,-0.14 0.96,-1.1 2.77,-0.85 -0.03,-0.96 -0.44,-0.04 -1.01,0.5 -0.49,-0.63 -2.43,0.3 -0.94,-0.35 -0.14,-0.43 0.74,-0.5 0.54,0.73 1.67,-1.89 1.5,-0.64 0.69,-1.27 1.5,-0.76 1.170004,-1.88 1.23,0.6 -0.49,0.47 0.3,0.21 0.69,0.08 -0.14,0.74 0.73,0.21 0.42,0.39 -1.62,1.59 0.85,0.24 0.95,-1.08 -0.99,2.43 -0.49,0.32 -1.910004,0.96 0.07,1.08 1.900004,-1.28 0.28,0.79 0.65,-0.46 -0.33,-0.45 1.02,-0.55 -0.74,2.28 0.76,0.39 0.07,1.17 0.79,0.21 0.22,0.54 1.01,-0.3 0.39,0.68 0.84,0.25 0.43,1.41 1.87,1.37 0.04,-0.58 -2.69,-3.82 -0.11,-0.8 0.62,-0.28 0.93,-2.82 1.34,-0.18 1.14,-1.74 1.09,-0.52 1.26,0.14 -0.04,0.42 1.14,-0.1 0.13,0.64 2.18,-0.41 0.63,0.34 0.5,-0.83 1.35,-0.09 1.39,-0.94 1.04,0.05 1.74,-0.8 2.22,2.42 1.11,-0.35 1.55,0.72 0.75,-0.45 0.45,0.46 -0.53,0.41 0.18,0.51 1.06,0.1 0,0.49 0.67,0.33 0.85,-0.35 1.33,-0.41 1.38,1.08 0.68,-0.59 -1.12,-0.37 0.11,-0.29 0.89,-0.14 -0.3,-0.6 1.07,0 0.23,0.81 1.78,-0.51 4.39,1.73 1.26,-0.24 0.21,-0.5 2.32,0.81 1.82,-0.69 3.45,0.24 0.87,0.2 -0.32,0.89 0.37,0.18 1.09,-1.57 0.41,-1.05 0.27,-0.93 -0.54,-0.31 0.43,-0.85 -0.78,-1.08 -2.48,-0.62 0.05,-0.62 0.8,-1.16 2.57,-1.8 0.06,-2.41 2.13,-3.17 -0.09,-1.05 1.42,-1.5 0.24,-2.15 -1.03,-1.36 0.3,-1.81 -1.4,-1.24 -3.96,0.17 0.02,1.35 -0.69,1.39 0.38,1.17 -0.3,0.84 -1.07,-0.45 -0.47,1.66 -1.77,0.71 -1.01,1.78 -4.5,3.12 -3.17,1 -0.83,-0.2 -0.68,0.07 -1.55,0.16 -0.18,-0.51 -1.96,-0.97 -6.05,-0.49 -1.01,-0.93 -0.78,0.26 -0.27,-0.67 -3.59,-1.74 -0.38,-0.79 -1.2,-0.07 -0.37,-1.5 0.39,-0.2 -1.3,-0.69 -0.69,0.4 0.13,0.69 -0.81,0.7 -0.89,-0.34 0.02,0.83 -0.64,0.36 -0.45,-0.66 -0.68,0.09 0.09,-0.71 -1.34,0.32 -0.95,0.08 -1.31,-0.03 -0.81,-0.72 -0.36,0.54 -0.1,-0.58 0.93,-0.71 -0.59,-1.12 1.26,-0.3 1.43,-0.28 2.94,-0.18 0.21,-0.42 -1.34,-0.84 -0.81,0.48 -0.04,-0.67 -1.54,-1.25 0.07,-0.7 1.68,-1.97 -0.49,-0.28 0.99,-1.48 0.9,-0.63 0.58,0.4 1.84,-1.39 0.73,-0.81 -0.62,-0.04 -0.12,-1.02 1.63,-1.18 0.75,-0.37 0.39,0.57 0.83,-0.93 0.47,-0.89 -1.37,-0.29 0.04,-0.52 0.48,-0.16 1.13,-0.66 2.61,-0.6 2.05,-1.4 1.24,0.24 4.28,-2.12 0.28,-0.86 0.82,0 0.51,-1.33 4.45,-3 1.87,-2.05 2.13,-0.09 2.02,-3.34 0.81,-0.03 1,-2.21 1.54,1.17 5.96,-1.09 4.76,-4 -0.4,-0.66 0,0 1.91,-3.07 1.44,0.22 1.11,1.44 -1,2.77 -1.77,2 1.66,1.22 0.11,2.22 -2.33,1 -0.78,2.33 0.33,1.77 2.22,1.44 1.77,2.55 1.77,-0.55 3.21,-2.22 1.77,1.44 0.55,1.33 4.32,5.65 0.67,5.1 3.55,2.66 0.89,1.66 0.33,5.1 1.77,2 0.44,4.54 -2.22,3.66 -0.44,2.33 1.66,3.66 2.11,0.22 0.22,1.22 -1,0.89 0,1.66 2.22,2.77 0.22,2.88 4.32,2.22 2.33,0.44 4.84,1.9 z m -152.970004,15.71 0,1.12 1.39,-0.14 0.7,1.53 0,1.67 -1.11,1.25 0,1.25 -1.81,0.84 -1.25,-1.11 -1.11,0 -2.51,-2.09 0,-1.25 1.12,-0.84 0.28,-1.53 1.12,-0.7 3.18,0 z m 189.230004,11.78 -0.97,0.84 -4.88,-0.42 -0.84,-1.39 0.84,-0.84 0,-1.25 2.23,-1.67 0.42,-1.39 1.39,0 1.39,1.53 1.81,0.28 0.42,2.09 -1.25,0.84 -0.56,1.38 z"
     title="Vesturland"
     id="IS-3" />
  <path
     d="m 191.86418,193.11704 -1.88,6.9 0.44,2.88 5.1,9.42 0.55,4.99 0,0 0.33,2.11 0,0 -4.99,-2.11 -2.33,-0.44 -4.32,-2.22 -0.22,-2.88 -2.22,-2.77 0,-1.66 1,-0.89 -0.22,-1.22 -2.11,-0.22 -1.66,-3.66 0.44,-2.33 2.22,-3.66 -0.44,-4.54 -1.77,-1.99 -0.33,-5.1 -0.89,-1.66 -3.55,-2.66 -0.66,-5.1 -4.32,-5.65 -0.55,-1.33 -1.77,-1.44 -3.21,2.22 -1.77,0.55 -1.77,-2.55 -2.22,-1.44 -0.33,-1.77 0.78,-2.33 2.33,-1 -0.11,-2.22 -1.66,-1.22 1.77,-1.99 1,-2.77 -1.11,-1.44 -1.44,-0.22 -1.91,3.07 0,0 -0.76,-0.18 -3.54,2.36 -0.96,0.07 -5.38,-2.05 -2.78,1.6 -0.1,-0.77 -0.91,-0.27 1.63,-1.37 -0.03,-1.19 -0.61,0.24 -0.79,-0.68 -1.34,-1.96 -0.69,-0.59 -0.06,-1.48 -2.25,-0.72 -0.43,0.64 0.55,1.06 0.04,2.48 -0.74,-0.21 -0.54,0.63 -0.74,-0.04 0.46,-2.11 -1.27,-1.98 -0.33,-2.58 -1.76,-1.02 -0.67,0.76 0.58,1.03 0.23,2.56 -0.98,1.04 0.04,1.43 -1.3,0.79 -0.84,2.79 -0.64,-0.01 -0.08,1.49 -1.56,1.6 -0.7,-0.44 -0.52,0.12 -0.74,0.37 -0.08,-1.37 -1.25,1.04 0.49,-1.53 -0.48,-0.23 -0.84,1.17 -0.88,-0.57 -0.09,-1.28 -0.24,-0.93 -0.49,-0.29 -0.62,-0.96 -2.75,-0.39 -1.21,-0.76 -0.18,-1.23 -0.25,-0.83 0.59,-0.75 0.81,0.09 0.8,-0.96 2.08,-1.16 3.93,-0.45 2.44,-1.04 1.35,-2.1 1.08,-0.63 1.32,-5.05 1.96,-1.58 0.75,-1.23 -0.61,-0.2 -2.56,2.04 -3.44,6.32 -2.27,2.18 -3.61,0.51 -0.8,-0.21 -0.8,-0.75 0.45,-1.07 2.03,-1.07 0.74,-0.95 0.1,-3.12 -0.67,0.25 -0.54,1.89 -2.82,2.4 -0.81,1.86 -0.79,-0.53 -0.38,-2.17 -1.59,-1.11 -0.27,0.39 0.86,1.34 0.34,2.78 -2.32,2.06 -1.41,0.33 -0.8,-0.85 -0.22,-2.54 0.8,-3.37 -0.95,-2.05 -0.45,-2.73 -0.78,-0.96 0.15,-2.05 -2.17,-4.8 -0.09,3.46 0.58,1.48 -0.07,2.08 1.03,2.92 -0.38,3.43 -2.08,2.54 -1.39,-2.01 0.58,-3.29 -1.62,-6.92 -0.44,-0.2 -0.25,1.44 0.9,5.13 -0.95,4.23 0.2,1.11 0.46,0.11 -1.23,1.72 -2.43,-1.54 -0.04,-1.54 -0.49,-1.51 -0.52,-0.12 -0.32,-3.48 -0.44,-0.78 0.29,-1.27 2.13,-3.11 -0.03,-2.32 -1.61,2.59 -1.29,0.71 -1.170004,-1.96 -1.05,-0.66 -0.76,0.39 0.44,0.22 0.1,2.8 1.790004,4.46 -0.290004,2.68 1.580004,7.29 -1.730004,-0.97 -1.26,-0.33 0.46,-0.79 -1.56,-2 -2.47,0.16 -0.86,-1.2 -1.47,0.47 -0.04,-1.14 1.1,-0.7 0.01,-0.95 0.92,-0.99 -0.34,-0.4 1.16,-0.71 2.55,-3.75 -1.71,-1.59 -1.45,0.07 -0.5,-2.16 -0.64,-0.48 0.59,4.92 -0.67,0.29 -1.75,2.8 -1.27,1.04 -0.39,-3.58 -0.93,-1.15 -0.47,-2.45 -1.21,3.65 0.59,0.66 -0.7,0.95 0.14,1.26 -0.49,0.31 -0.16,1.49 -1.54,1.83 -2.56,0.46 -1.51,-1.3 -3.49,-0.29 -0.42,-3.41 0.97,-1.89 -0.8,0.01 -2.08,2.81 0.2,0.94 -0.81,0.57 -0.55,1.31 1.29,4.75 -1.92,3.45 -1.56,0.49 -6.61,-1.29 -0.54,-1.63 -0.51,-0.55 -0.62,-0.37 -0.27,-0.92 -0.93,-0.09 -0.03,0.92 -1.4,0.53 3.22,1.64 -0.18,0.29 -2.36,-0.23 -2.43,1.83 -1.66,0.23 -1.46,0.92 -1.69,-0.05 -1.44,1.17 -2.02,-0.52 -0.3,-0.29 -1.86,-0.88 -0.12,0.63 1.15,0.51 -0.71,0.93 0.01,1.25 -1.55,1.16 -0.35,2.1 -1.34,1.88 -4.03,0.19 -5.39,0.96 -3.79,-0.84 -0.82,-1.16 0.47,-2.25 0.12,-0.63 0.69,-1.56 -0.23,-1.41 -0.09,-0.53 -3.68,-1.03 0,0.84 0.15,0.48 1.06,1.48 -0.28,0.13 -5.01,-3.51 -5.59,-2.62 -2.88,-0.51 -1.15,0.85 -8.5800001,0.49 -3.26,1 -2.05,-0.89 -1.27999997,-1.22 3.21999997,-2.24 0.85,-1.1 -0.18,-1.02 0.64,-1.03 3.05,-0.25 1.55,-1.32 0.42,-1.7 -0.68,-4.05 2.7600001,-3.04 -0.14,-2.37 0.43,-0.48 9.04,4.24 1.41,1.64 0.54,1.8 1.03,0.54 0.76,-0.43 2.14,2.14 1.84,0.88 1.84,-0.25 1.75,0.7 0.35,1.49 3.56,3.58 2.16,0.72 1.02,-1.59 2.81,-0.95 -1.25,-0.8 -1.33,0.78 -3.09,-0.68 -1.2,-2.06 -2.8,-3.1 -0.78,-0.29 -1.24,-2.06 -1.34,-0.25 -3.83,-5.86 -0.39,-1.11 0.91,-0.35 7.34,0.99 0.3,0.85 1.68,1.32 4.31,1.66 0.29,0.97 2.13,1.56 -1.92,-3.73 -1.97,-0.4 -1.01,-1.3 -2.62,-2.66 -1.77,-0.71 -1.11,-1.03 -2.14,-0.52 -1.99,-1.51 -1.29,-1.75 -0.95,-3.5 -0.8,-1.32 -1.53,-6.43 0.17,-1.55 1.08,-2.17 3.71,0.92 1.23,1.09 2.11,0.99 1.05,0.99 2.14,1.82 3.07,0.62 2.42,2.89 1.16,0 2.33,1.83 1.6,0.2 2.37,1.71 1.61,0.23 2.83,1.78 0.24,0.79 -0.65,1.9 0.28,0.27 1.48,-1.28 0.69,2.49 1.14,1.48 0.12,1.24 -1.55,2.28 0.52,0.87 -0.25,1.99 1.48,0.51 2.13,-4.91 0.98,1.76 0.55,0.15 -0.15,-2.63 4.36,3.5 1.5,-1.73 -1.4,-0.66 -1.23,-2.52 2.87,-0.51 1.21,-1.05 2.19,-0.19 0.73,-0.81 1.72,-0.54 -0.86,-0.39 -2.08,0.65 -1.85,-0.17 -2.21,0.91 -3.73,-1.13 -0.37,-0.59 -1.42,-0.34 -0.09,-0.86 -1.59,-1.4 -1.16,-2.41 3.62,-1.25 5.25,-0.16 2.39,-1.33 3.53,-0.17 2.88,0.78 0.21,-1.66 -1.59,-1.2 0.89,-1 2.69,-1.23 0.03,-0.63 -0.85,-0.92 -0.78,-0.22 -1.29,0.45 -3.35,2.55 -2.12,-0.24 -4.71,1.23 -5.35,-0.57 -1.41,0.84 -9.67,-3.32 -6.33,-6.93 -2.52,-7.529997 1.49,-4 1.92,-1.15 3.49,0.99 5.68,2.52 0.44,1.82 1.41,0.47 0.96,0.96 2.06,0.07 1.3,-1.29 1.96,-0.07 1.04,2.07 1.44,1.14 1.75,-0.11 1.43,0.76 2.67,-0.39 1.72,1.12 0.87,-0.18 0.56,0.639997 2.13,0.77 3.58,0.16 -7.37,-2.809997 -0.96,-1.2 -3.95,-0.25 -1.58,-0.85 -0.65,0.41 -0.23,-2.33 -0.6,-0.6 -1.7,-1.06 -1.8,0.65 -2.78,-1.23 -0.95,-0.75 -1.03,-2.23 -1.46,-1.03 -0.5,0.1 -3.01,-2.64 -0.56,-1.36 -2.1,-1.4 -2.49,-3.96 -0.98,-0.56 0.21,-0.97 -1.02,-2.15 0.11,-0.67 1.53,-3.79 1.65,-1.3 2.91,1.64 1.46,-0.35 1.15,0.42 5.71,3.4 3.67,0.91 2.23,1.21 0.87,-0.12 0.19,-1.74 -0.95,-1.25 -3.13,-1.76 -0.82,-0.46 -6.72,-5.67 -1.28,-2 0.52,-0.96 4.16,-0.41 1.41,-1.59 1.45,0.15 0.46,0.63 2.33,0.94 2.17,2.59 4.2,2.53 -1.35,-1.69 -2.9,-2.12 -2.05,-3.11 -3.84,-1.48 -2.79,-0.03 -0.53,-0.49 3.54,-4.36 1.21,-0.31 1.37,0.43 0.78,-0.44 -0.34,-1.63 0.69,-0.62 6.44,0.66 2.92,0.97 2.01,0.99 1.01,1.08 0.22,1.97 0.44,0.48 1.09,0.27 0.85,-0.48 2.66,1.41 0.82,0.93 1.1,1.77 0.11,1.66 0.64,0.57 0.09,1.04 -1.04,3.01 -0.03,0.57 -2.56,1.49 0.61,1.19 -0.05,1.42 0.48,0.14 0.42,-1.43 1.64,-1.08 3.9,-5.1 0.85,-0.01 2.06,1.97 0.54,2.06 -0.04,6.97 -0.42,-0.05 -2.19,2.26 -2.9,5.47 0.56,0.25 1.63,-1.48 0.34,0.61 0.67,-1.5 -0.24,-0.48 3.35,-3.72 1.63,-5.52 1.41,4.55 -0.07,1.12 -0.74,0.53 -0.6,2.21 0.94,2.78 0.79,0.03 -0.78,-2.94 2.5,-4.29 -0.35,-2.4 1.26,0 0.13,4.5 -1.54,4.7 -4.86,6.81 -0.63,1.62 0.38,0.5 2.96,-4.48 2.62,-2.38 2.65,-6.72 0.12,0.75 0.85,0.74 0.05,0.97 -0.35,5.94 -1.7,3.88 -0.33,2.01 0.1,2.02 0.88,-0.53 3.16,-8.23 -0.33,-1.85 0.76,-3.11 -0.83,-2.4 1,-6.61 0.69,-0.75 1.61,2.2 0.440004,0.06 0.3,-1.02 1.79,0.4 1.12,3.7 1.5,1.02 0.75,-0.45 0.63,2.94 1.14,0.45 -0.45,0.59 0.46,1.58 0.9,-0.12 -0.6,2.82 0.45,0.75 -0.68,4.08 0.24,1.14 -3.23,7.9 0.62,0.75 -1.36,3.079997 0.47,0.33 0.74,-0.2 1.4,-2.8 -0.05,-2.909997 1.31,-1.8 0.2,-2.16 0.65,-0.47 0.56,-1.48 -0.04,-2.31 0.94,-0.54 0.79,-1.52 0.04,-2.99 0.46,-2.52 0.48,-0.14 1.2,3.18 -0.02,2.3 0.69,0.27 0.79,-0.62 -0.47,-0.42 0.42,-0.73 1.24,2.07 -0.43,2.31 0.13,3.95 1.38,-1 0.08,-1.34 -0.76,-1.55 0.35,-1.28 0.51,-0.22 0.38,3.58 -0.87,2.58 0.27,1.22 -1.73,2.99 -1.22,3.549997 -1.96,3 -3.64,3.24 2.31,-0.61 0.22,-0.65 1.24,-0.51 1.94,-2.15 0.58,-1.73 2.65,-2.25 0.49,-2.639997 1.53,-3.06 -0.12,-2.14 1.03,-1.11 1.06,0.24 0.64,-0.52 -1.23,-1.9 -0.71,-0.33 -0.02,0.53 -0.72,-6.24 -1.25,-3.58 -3,-3.68 -1.16,-0.33 -0.29,-1.36 0.23,-0.86 0.59,0.25 0.65,-1.47 -0.37,-1.83 4.15,-3.13 0.7,-1.48 -0.7,-0.19 -1.57,0.75 -1.46,1.27 -0.76,0.52 -2.84,-0.41 -3.34,-1.93 -0.44,-1.26 -0.84,-0.72 -3.33,-0.98 -5.030004,-2.91 -1.48,0.01 -1.09,-1.23 -2.85,-0.67 -2.32,-1.59 -2.99,-2.99 -1.65,-2.29 -0.8,-3.17 0.54,-1.65 3.4,-1.25 1.64,0.18 -0.44,-1.06 1.08,-0.96 2.66,-0.89 3.31,-0.23 4.760004,2.82 2.77,0.23 0.21,-0.56 0.72,0.14 2.03,3.01 1.31,1.07 0.9,0.1 -0.41,-1.92 -1.42,-1.07 0.1,-1.77 2.38,1.32 0.25,-1.62 4.39,-0.72 1.44,-1.23 1.35,-0.04 1.3,-0.99 -1.64,0.08 -0.61,-0.54 -4.65,1.36 -3.96,-0.12 -0.68,-0.4 0.92,-2.23 2.01,-0.61 1.63,-2.1 1.62,-0.88 -1.5,-0.4 -0.11,-1.32 0.63,-0.9 -0.89,-0.04 -0.9,-0.83 0.19,2.15 -1.2,2.08 -3.14,2.65 -4.53,-0.34 -2.46,-1.32 1.93,-4.58 0.16,-2.72 3.2,-0.95 0.25,-1.52 -4.44,1.02 -1.98,4.38 -2.310004,1.78 -3.83,0.88 -0.23,-1.31 0.65,-2.95 2.04,-1.28 0.58,-2.53 -1.43,2.24 -3.59,1.91 -0.61,1.57 0.18,1.09 -1.02,1.12 -2.83,1.31 -0.95,1.17 -0.55,-0.54 -2.82,0.39 -0.7,-0.41 -2.49,-2.11 -4.3,-2.19 -1.61,-1.89 -0.43,-1.24 0.92,-1.17 2.12,1.12 1.45,0.19 0.94,1.11 0.62,0.08 1.34,-0.57 0.35,-1.04 1.7,-0.57 0.56,-1.52 -0.34,-2.85 -2.12,-0.19 -4.31,-5.65 2.15,-1.18 2.77,2.52 0.69,-1.55 0.88,-0.73 3.89,0.11 0.88,-1 0.44,-1.47 -1.64,-1.19 0.03,-0.8 1.42,-0.67 4.76,1.57 2.15,2.41 0.52,-0.29 1.52,0.79 1.83,0.15 1.050004,3.12 1.58,0.32 1.35,-0.3 1.81,-3.16 1.19,-0.87 -0.67,-2.68 0.79,-0.49 1.44,0.13 2.96,2.5 0.49,2.26 1.57,-0.11 0.29,0.98 1.9,-0.32 0.52,-0.5 0.08,-2.01 -1.83,-2.82 1.01,-0.08 2.84,1.22 0.14,1.25 0.63,0.39 0.02,4.18 1.11,0.94 0.54,2.01 0.68,0.15 0.48,0.8 1.12,0.14 0.85,1.05 0.93,0 1.15,0.77 -0.34,1.26 2.06,1.04 -0.99,1.41 0.63,1.41 1.02,0.29 2.21,-0.97 -0.56,1.56 -2.1,2.69 0.38,1.02 1.74,1.16 -2.16,3.71 0.72,1.13 0.91,0.28 2.87,-2.75 0.65,0.08 0.34,1.96 -1.14,2.22 0.17,0.62 0.4,-0.15 1.43,-2.21 0.23,-0.56 0.96,-1.64 0.17,-1.43 0.96,-0.73 -0.49,4.09 1.13,1.43 0.66,0.04 0.92,-0.83 1.52,0.21 2.99,-2.3 -0.2,3.4 1.34,1 1.05,0 -0.79,2.04 0.25,0.8 -3.63,2.49 -0.81,1.3 3.99,-2.5 1.43,0.01 0.16,1 1.24,0.52 1.01,1.74 1.92,0.01 2.06,1.02 3.27,0.04 -1.34,1.48 -0.1,1.08 2.49,1.27 0.06,0.45 -1.57,3.92 -0.56,-0.21 -0.81,0.93 1.75,0.57 0.77,1.03 -1.12,2.64 1.04,1.69 -0.3,1.28 0.53,1.16 1.63,1.05 1.75,-2.54 1.78,2.48 -0.52,2.09 -1.98,2.54 0.29,0.4 2.73,-1.77 0.87,-1.66 0.1,-2.62 -1.22,-1.83 0.57,-1.91 1.27,0.27 2.7,-0.81 2.75,6.02 -0.71,0.25 -2.74,-1.31 -0.63,0.68 1.41,1.06 -0.18,1.5 1.6,1.17 0.06,0.9 2.52,-0.07 1.34,-1.02 0.67,0.34 0.15,-0.6 0.45,0.41 0.47,-0.79 1.04,-0.18 4.42,3.57 0.2,1.57 -0.56,0.54 -2.31,-0.26 -3.73,0.87 -2.74,1.48 -2.1,-0.15 -3.48,1.63 -0.89,-0.14 -0.2,0.63 0.66,0.91 -0.32,0.86 0.41,0.5 1.3,-0.83 0.7,0.33 2.37,-1.52 2.15,0.38 2.22,-1.24 2.53,-0.29 1.01,0.49 -0.15,1.01 -1.45,1.12 -2.51,0.73 -0.6,0.61 0.09,0.57 4.03,-0.46 3.27,-1 0.7,0.18 1.31,1.81 0.15,2.4 0.49,0.12 -0.2,2.67 -0.62,1.03 -1.77,1.18 0.21,0.56 0.64,-0.28 0.12,0.57 1.67,1.17 -1,1.79 0.1,2.379997 -0.83,0.6 -1.46,3.72 -2.54,2.27 -3.56,0.49 -0.74,0.84 -1.72,-0.32 1.14,0.95 -0.04,0.61 0.88,0.41 1.94,-0.3 0.82,-1.02 0.33,2.24 3.21,0.94 -0.23,1.48 -1.62,1.4 -0.56,-0.01 -1.5,2.92 -0.85,0.24 -0.56,1.66 -1.62,0.3 -3.27,-0.36 -2.14,-0.51 -0.15,-0.81 -1.14,0.98 -0.71,-1.63 -0.29,-0.79 -1.32,-1.59 -1.16,-0.62 -0.13,-1.45 -1.55,-3.36 -2.21,-1.11 -0.15,-0.89 -0.59,0.41 -2.64,0.39 -0.42,0.81 2.54,0.77 3.14,2.67 0.13,0.96 0.98,3.54 -0.8,0.31 -1.08,1.56 1.42,0.93 0.51,1.91 -0.34,0.86 1.06,0.56 -0.16,1.4 0.5,0.19 0.4,0.74 0.99,-0.4 1.05,0.9 0.97,-0.25 0.9,0.44 2.71,0.03 1.63,-1.09 4.93,2.17 0.17,1.21 -0.11,1.01 0.04,0.99 -1.38,0.86 -2.41,2.99 -1,1.77 0.3,0.99 0.79,0.25 2.64,-2.49 1.28,-2.1 0.63,-0.08 1.21,-1.58 0.93,0.38 2.76,0.62 -0.02,7.31 -1.59,4.71 -3.07,2.88 -0.01,1.08 -5.33,4.49 0.49,0.4 0.65,-0.21 3.89,-2.15 3.81,-2.92 1.66,-0.53 0.91,1.95 -0.03,1.2 1.58,1.11 -0.04,0.92 0.37,0.55 0.36,0.11 0.83,0.15 -0.27,0.79 0.55,0.4 0.4,-0.85 0.52,0.33 -0.51,2.17 -0.52,0.41 1.6,2.29 -0.37,2.82 0.64,4.9 -1.06,4.59 0.77,1.64 0.5,1.15 0.6,1.56 1.89,3.55 -0.44,0.58 2.47,4.4 0.09,6.91 0.52,0.35 z m -58.69,-124.139997 -1.95,0 -6.83,-5.71 -3.62,-4.04 -1.95,-0.42 -1.67,-7.38 3.34,-3.48 2.23,-0.7 4.32,1.39 1.53,2.23 2.23,1.39 0.98,4.32 1.95,1.53 2.23,3.34 1.53,3.62 -2.51,3.07 -1.81,0.84 z m -25.5,85.969997 -1.11,0.84 -1.95,-0.14 -0.56,-0.97 2.93,-2.65 1.11,0.56 0.14,1.25 -0.56,1.11 z"
     title="Vestfirðir"
     id="IS-4" />
  <path
     d="m 303.31418,57.857043 3.2,3.04 -1.16,2.77 1.75,1.6 0.58,2.33 2.04,2.04 3.35,2.18 -0.15,1.89 -2.33,5.53 -0.44,2.77 2.91,4.8 0.15,5.82 -3.93,2.48 -2.18,2.18 -0.15,3.489997 5.97,5.97 3.93,2.62 0,12.96 -2.04,5.68 -3.2,4.66 0.58,5.1 1.46,1.75 2.18,1.17 5.68,1.31 1.75,4.95 -2.18,3.49 -0.29,1.75 1.31,0.73 0.15,5.82 1.16,3.35 2.48,2.18 1.31,2.77 4.95,3.2 0.73,8.44 4.95,3.93 4.08,2.48 0.15,6.41 1.75,4.08 0.15,5.24 -0.29,2.48 -1.75,5.24 0,5.24 1.75,1.46 2.04,3.93 0,5.39 -1.31,1.75 -3.93,-0.58 -2.04,1.46 -0.29,1.6 -0.71,0.59 0,0 -0.91,0.76 0,0 0.6,-4.99 -7.13,-3.93 -2.33,-2.77 -2.18,0.29 0,1.6 -1.89,0.15 -2.18,-0.73 -3.06,-2.62 -5.24,0.29 -2.04,1.31 -1.75,2.18 -2.77,2.04 -0.58,2.33 1.17,1.31 -0.44,1.02 -2.33,0.29 -1.31,3.93 -4.66,-0.15 0.15,4.37 2.48,3.79 -0.29,2.33 -0.48,0.09 0,0 0,0 0,0 0,0 0,0 -7.52,0.2 -0.87,-1.6 -2.33,-0.73 -2.04,0.73 -2.47,0 -4.66,-2.18 -6.11,-1.02 -2.62,-1.02 -2.91,0 -1.46,-3.35 -1.83,-1.55 0,0 0,0 0,0 -0.65,-2.62 -1.31,-1.8 -2.13,-0.25 -0.88,-0.69 0,0 0.1,-2.4 -1.55,-0.62 -1.94,-0.15 -2.02,0.54 -1.78,-0.54 -2.1,0.54 -4.58,-0.31 -3.41,-1.47 -7.21,1.94 -7.14,-3.65 -2.56,-0.85 -1.47,0.85 -0.46,2.33 -4.19,0 -2.02,1.47 -1.47,2.33 -1.09,0.85 -6.28,-3.8 -6.96,-0.08 -2.64,-2.25 -2.56,-1.16 -0.7,-0.78 0,0 -0.29,-1.82 0,0 -0.55,-4.99 -5.1,-9.42 -0.44,-2.88 1.88,-6.9 0,0 0.55,0.33 0.28,-1.5 -0.13,-4.02 -1.12,-5.43 -0.7,-2.41 -0.68,-0.33 0.27,-0.3 -0.53,-1.44 0.6,-0.77 -0.12,-0.56 0.98,-0.83 -0.65,-1.55 1.23,-1.56 0.59,-3.06 -1.17,-10.46 0.33,-1.73 -0.83,-3.81 2.13,-1.11 3.84,10.99 1.96,3.84 1.38,0.05 0.26,0.44 0.17,1.7 0.42,0.58 0.23,-0.61 -0.01,-0.56 -2.66,-11.07 -1.1,-2.9 -0.82,-5.53 1.14,-6.37 1.13,-2.23 0.62,-4.3 2.74,-3.82 0.49,0.12 1.92,-1.69 1.08,-1.66 0.89,-0.47 2.13,-3.11 0.91,-0.79 0.56,0.19 1.71,-2.51 0.43,0.74 0.82,-0.31 0.09,-0.85 0.64,-0.43 0.92,0.46 0.13,1.39 1.73,-0.07 -0.86,3.24 0.55,0.99 0.16,1.93 -0.56,3.22 0.24,1.21 6.22,0.42 7.52,-2 3.49,-2.33 1.11,-4.79 0.28,-0.32 -0.12,-3.39 1.15,-2.41 0.01,-1.56 0.78,-1.21 0.01,-2.13 -0.89,-3.36 0.3,-2.27 -1.27,-2.21 -0.78,-2.57 0.24,-1.01 -0.42,-0.46 -0.51,0.3 -0.17,-1.18 0.99,-1.15 -0.63,-1.229997 0.37,-1.92 -2.07,-4.5 -1.1,-5.82 -1.09,-2.51 -0.13,-4.19 -1.09,-2.1 -0.29,-1.69 -1.05,-0.33 -0.1,-0.59 0.8,-0.76 0.93,-4.34 -0.71,-3.71 2.56,-1.11 1.99,0.23 1.85,-2.71 3.09,0.77 1.74,-0.38 3.58,-3.19 1.27,0.12 0.28,0.73 0.9,0.42 1.38,-0.16 0.28,2.07 0.98,0.92 0.74,1.82 1.1,0.86 -0.63,1.23 0.25,1.72 1.36,1.53 -0.21,1.68 1.26,1.69 0.51,1.94 2.23,2.3 0.27,1.81 0.54,1.16 -0.03,0.78 -0.32,0.67 0.95,2.6 2.07,1.24 0.41,0.9 0.7,4.49 1.16,0.18 0.59,-1.11 2.6,2.29 1.66,0.73 0.87,-0.39 0.48,1.46 1.34,1.71 1.07,2.759997 0.72,4.07 0.87,0.65 -0.3,5.27 0.87,1.61 -0.02,0.85 1.84,1.08 2.88,-0.44 0.63,-0.63 -0.04,-2.08 0.53,-0.77 1.99,2.89 2.17,2.04 2.15,-0.86 2,-1.68 -0.34,-2.45 1.46,-1.38 0.28,-1.67 -0.95,-2.65 0.62,-1.16 0.02,-0.08 0.87,-1.03 -1.91,-5.519997 -0.26,-2.67 -1.91,-1.91 -0.28,-1.22 -0.18,-1.66 -2.27,-3.59 -1.29,-0.43 -0.45,-1.88 0.84,-0.88 4.05,-0.53 0.84,-1.59 0.2,-2.29 -1.95,-4.54 0.16,-1.8 3.43,-2.37 1.1,-1.32 1.19,0.46 1.11,-0.53 3.55,0.12 2.46,-0.87 1.22,0.25 0.87,1.63 1.45,-0.12 0.54,-0.9 -0.69,-0.52 0.21,-1.17 2.22,0.14 0.58,-0.78 0.13,-3.43 1.2,-4.68 z"
     title="Norðurland vestra"
     id="IS-5" />
  <path
     d="m 362.82418,2.1270429 0.98,1.57 -0.19,2.38 -0.62,0.01 -1.14,-1.57 -0.59,-0.08 -0.28,-1.78 0.82,-1.06 -0.42,-1.45 1.44,1.98 z m 187.58,82.8200001 -3.86,0.6 -1.75,-0.97 -1.36,0.39 -2.72,2.33 -0.78,3.11 -3.49,4.08 -1.16,-1.16 -5.05,0.39 -2.13,1.36 -2.91,-0.78 -1.94,0 -3.49,1.17 -4.66,0.78 -1.75,-0.19 -3.1,1.36 0.58,4.659997 -3.49,2.72 -2.52,0.97 -1.55,1.17 -0.78,1.75 -2.72,1.75 -7.18,1.55 -1.16,0.97 -1.75,6.02 0,2.33 0.97,3.69 0.97,7.96 -3.3,5.44 -3.49,0.78 -0.97,1.55 -3.3,-1.94 -4.46,0.39 -4.66,-1.16 -2.13,1.55 -0.78,1.36 0,3.11 -2.91,6.41 -0.19,3.49 -1.55,3.49 0.58,3.11 4.66,3.69 3.3,3.49 -1.36,2.52 -0.39,3.11 -2.72,2.91 -1.75,3.11 -3.1,2.91 -0.97,3.69 0.19,13.39 -1.36,1.36 0.39,4.85 1.55,1.75 -3.1,5.05 -4.46,0.78 -1.36,1.94 -2.52,2.33 -1.75,3.3 -6.6,3.11 -3.69,2.52 -0.97,2.72 -1.36,7.57 -1.54,3.42 0,0 -0.21,0.47 -3.49,-2.91 -1.16,0 -0.78,0.97 -2.91,-0.19 -2.13,-0.19 -5.24,-1.55 -3.88,2.13 -3.3,0.58 -3.3,2.72 -1.36,1.94 -2.33,0.39 -0.78,-1.55 -1.94,-0.19 -1.94,-0.97 -4.27,2.13 -5.24,5.24 -0.58,2.72 -2.14,0.39 -0.58,1.36 -5.82,4.85 -1.36,3.49 -3.49,0.39 0,-1.36 -0.75,-0.23 0,0 0,0 0,0 0,0 0,0 0.73,-0.06 -1.94,-2.52 -3.88,-3.1 -7.38,0.39 -2.52,-0.78 -3.1,-2.33 -0.39,-2.52 -2.33,-4.85 -1.16,-2.13 -1.75,-0.97 -2.52,-0.39 -2.33,0.39 -1.16,0.97 -2.52,0 0,-2.13 0.97,-1.55 -0.78,-1.55 -5.24,-4.66 -1.94,-0.97 0.12,-2.47 0,0 0.71,-0.59 0.29,-1.6 2.04,-1.46 3.93,0.58 1.31,-1.75 0,-5.39 -2.04,-3.93 -1.75,-1.46 0,-5.24 1.75,-5.24 0.29,-2.47 -0.15,-5.24 -1.75,-4.08 -0.15,-6.41 -4.08,-2.47 -4.95,-3.93 -0.73,-8.44 -4.95,-3.2 -1.31,-2.77 -2.47,-2.18 -1.16,-3.35 -0.15,-5.82 -1.31,-0.73 0.29,-1.75 2.18,-3.49 -1.75,-4.95 -5.68,-1.31 -2.18,-1.16 -1.46,-1.75 -0.58,-5.09 3.2,-4.66 2.04,-5.68 0,-12.96 -3.93,-2.62 -5.97,-5.97 0.15,-3.489997 2.18,-2.18 3.93,-2.47 -0.15,-5.82 -2.91,-4.8 0.44,-2.77 2.33,-5.53 0.15,-1.89 -3.35,-2.18 -2.04,-2.04 -0.58,-2.33 -1.75,-1.6 1.17,-2.77 -3.2,-3.04 0,0 0.9,-1.1 1.61,-0.68 2.83,-3.22 2.62,-0.26 1.14,1.06 0.23,0.89 0.1,1.19 -0.53,1.23 -0.25,0.84 -0.55,1.67 0.62,0.08 3.02,-4.32 0.89,-2.8 -0.98,-1.52 0.81,0.45 0.72,-0.41 1.86,0.88 0.55,-0.21 1.56,1.84 0.14,1.59 -0.9,1.66 -0.79,3.49 0.91,-0.04 1.21,-2.75 2.76,-1.49 1.35,0.27 1.95,2.01 1.91,4.46 -0.53,1.3 -2.71,2.88 0.08,0.83 0.78,0.57 4.26,-2.94 0.99,0.47 1.27,1.91 0.77,4.26 -0.05,2.4 0.63,0.64 -1.17,7.56 1.6,0.98 2.69,-0.18 2.38,2.58 1.49,-0.65 1.13,0.73 2.36,0.26 1.21,2.89 -0.31,0.26 0.29,0.88 1.45,1.43 0.07,2.21 0.72,1.14 -0.02,1.98 0.82,1 1.2,-1.3 1.83,2.22 -0.01,8.019997 0.48,0.7 1.17,1.15 0.64,2.15 -0.59,0.85 0.59,2.06 -0.56,1.71 1.76,1.66 1.3,3.3 1.2,0.2 0.39,0.54 0.1,0.63 -0.67,0.31 0.09,1.14 0.88,0.59 0.58,-0.58 0,-1.48 -1.94,-9.06 0.68,-3.63 1.35,-2.86 -0.38,-1.08 0.69,-1.46 -0.81,-1.64 0.39,-1.57 -1.41,-5.389997 -2.26,-3.43 0.01,-1.36 -0.81,-0.31 0.31,1.47 -1.46,-0.45 -0.45,0.41 -1.94,-1.94 -0.13,-2.36 1.3,-2.25 -3.38,-3.48 -2.32,-5.71 0.05,-1.94 -1.1,-3.59 0.22,-2.99 -0.45,-3.01 -0.95,-2.68 0.64,-4.94 1.33,-0.92 0.47,-1.08 0.66,-0.64 6.21,0.75 0.65,2.17 0.8,0.41 0.77,-1.75 1.19,-0.16 1.07,1.04 -0.32,1.26 0.78,0.97 2.15,-1.31 1.44,-0.25 1.57,0.27 1.1,0.9 1.18,-0.05 1.04,1.36 1.14,0.57 -0.42,1.16 1.54,2.5 2.76,0.55 0.65,1.87 3.58,3.4 1.79,3.67 1.44,1.64 -0.04,2.98 1.39,2.45 1.76,0.83 4.47,0.49 5.16,-0.88 1.67,-0.84 0.31,-0.9 1.83,-1.37 -0.34,-1.27 0.47,-1.24 2.18,-2.4 -0.25,-0.83 -1.24,-0.03 0.94,-2.91 -0.95,-0.2 -0.05,-0.44 1.29,-0.49 0.39,-0.76 -1.29,-1.02 0.82,-0.41 1.74,0.26 3.56,-3.36 -0.08,-3.81 -1.06,-0.82 0.01,-0.79 0.59,-0.96 -0.25,-0.26 1.61,-0.78 1.5,-2.03 1.42,-0.52 0.99,0.96 1.7,-0.01 0.77,-1.82 5.33,-0.56 1.77,1.39 0.67,1.34 0.47,4.35 1.51,2.31 -0.42,1.49 0.39,1.66 -0.51,1.16 1.14,0.66 0.48,0.33 0.89,-1.05 -1.16,-0.6 0.37,-1.91 5.66,-0.53 2.72,-0.98 2.79,-2.45 6.22,-2.84 5.16,-3.02 2.56,-2.59 0.05,-0.99 1.73,-1.43 0.8,-1.62 -0.33,-2.19 0.68,-2.49 -1.31,-1.34 0.31,-1.29 -0.57,-0.55 -0.74,0.12 -0.52,-0.96 -0.43,-1.46 0.18,-1.83 -0.97,-2.32 -1.2,-0.9 -0.11,-1.74 0.47,-1.23 -0.76,-1.01 0.64,-1.38 -0.98,-2.86 1.5,-0.51 -2.08,-4.43 -0.42,-2.45 -1.47,-1.57 0.78,-1.24 -0.29,-0.4 0.82,-1.21 0.06,-1.2200001 0.48,-0.31 1.39,0.7000001 0.85,-0.6900001 1,0.7800001 0.02,-1.2800001 1.65,-0.19 0.69,-0.58 0.73,1.14 -0.32,0.81 0.38,0.9000001 1.56,-0.67 0.24,-0.9200001 0.74,-0.26 1.45,0.75 1.2,2.5700001 1.37,0.07 0.21,-0.49 2.82,-0.74 -0.42,-0.69 0.58,-0.6200001 -0.41,-1.19 0.79,-0.26 -0.09,0.6 0.37,0.9900001 1.38,-0.6400001 0.91,-4.25 0.65,1.17 2.15,-0.71 1.54,0.22 0.78,0.96 0.85,-0.26 1.26,1.82 0.12,-1.86 1.8,0.36 0.29,-1.54 0.26,-0.28 1.19,2.66 1.56,-0.08 0.05,0.97 1.15,-0.33 -0.64,1.33 0.29,0.9300001 1.15,-0.5100001 1.06,0.4700001 -0.6,1.46 1.86,-0.15 0.24,0.57 -1.01,0.28 0.03,0.58 -1.83,0.94 0.16,1.43 0.48,-0.01 0.31,0.68 -0.69,0.35 0.14,0.71 -0.66,1.15 1.58,0.78 -1.01,1.21 0.08,0.91 0.78,-0.29 1.02,1.07 -0.05,-1.36 0.62,-0.42 0.64,0.21 -0.27,0.89 0.36,0.31 2.36,-1.19 0.9,0.18 -1.07,2.38 0.28,0.53 0.47,0.21 1.18,-0.84 2.26,1.09 3.05,0.39 1.16,1.85 0.68,5.68 -0.32,2.14 -1.28,2.43 -3.2,3.39 0.22,1.49 1.44,2.11 0.65,0.01 1.7,-1.2 0.21,0.39 -0.54,2.44 -0.56,0.66 -0.01,1.97 0.65,0.69 2.92,-0.58 0.14,0.69 0.74,0.3 1.11,-1.28 1.17,-0.51 0.34,1.81 1.8,0.69 1.33,-0.19 0.22,2.17 0.75,0.28 0.62,1.18 2.47,0.14 1.44,3.68 1.51,0.41 0.23,-0.09 2.56,-0.61 0.72,-0.78 0.6,-2.08 -1.1,-2.94 0.02,-3.49 0.84,-3.22 1.16,-0.3 0.73,0.72 1.58,0.39 2.33,-0.58 2.84,-1.58 0.73,0.29 1.93,-0.83 1.34,-1.44 -0.3,-1.69 1.32,0.25 2.17,-1.53 0.16,-1.17 1.54,-1.9 0.37,-3.66 1.58,-0.29 2.3,-2.69 0.98,-0.12 2.72,-1.75 2.04,-0.17 0.56,1.13 1.21,0.5 1.5,1.65 2.29,0.47 2.78,-0.4 3.59,-2.18 4.21,-0.55 -2.05,2.56 -5.98,2 -3.99,2.58 -1.16,0.14 -2.92,3.2 -1.48,0.99 -1.29,-0.07 -0.84,0.69 -1.3,0.1 -0.84,0.9 -1.25,0.17 -2.15,3.77 1.3,1.17 2.63,4.11 -0.73,4.71 -7.18,5.91 -2,0.86 -2.79,0.3 -2.11,3.05 0.21,0.63 1.31,0.81 0.41,1.26 2.43,-0.23 2.4,-0.9 0.43,0.23 -0.74,2.4 0.47,1.63 -2.11,3.56 0.69,0.57 2.66,-0.76 1.57,0.29 0.38,1.42 1.74,-0.26 0.13,0.61 0.63,0.18 2.81,-0.67 0.79,1.66 -0.15,0.95 0.94,0.61 1.14,0.12 1.38,-0.64 0.93,-1.24 0.51,-2.15 2.03,-0.6 0.67,-1.47 0.76,-0.5 0.75,-0.3 1.69,1.31 1.13,-0.14 1.24,3.49 0.28,2.55 1.71,1.21 0.79,5.46 z m -181.42,164.089997 -1.12,0.43 -2.66,-0.43 -2.15,-2.75 1.89,-1.8 2.06,-0.77 0.34,-0.94 4.13,-2.06 2.06,0.95 0.52,1.29 -0.86,1.81 -2.06,1.38 -2.15,2.89 z"
     title="Norðurland eystra"
     id="IS-6" />
  <path
     d="m 550.40418,84.947043 0.25,1.78 -1.49,4.86 -0.9,0.96 -0.86,2.51 -3.56,2.68 -0.61,1.58 0.81,0.26 0.01,0.729997 -0.86,-0.26 -0.28,0.51 -2.55,0.41 -0.52,0.6 -0.45,2.23 -1.06,1.2 0.29,1.51 0.94,1.49 -0.67,0.16 -0.8,-0.62 -0.12,2.17 -1.09,0.12 -1.05,0.93 -1.05,0.72 -1.18,1.27 0.48,1.02 4.62,-4.1 1.31,-1.73 1.44,-0.89 -0.93,2.93 -1.31,0.81 -2.58,4.11 1.04,1.35 1.85,0.42 0.86,-0.26 0.23,-0.81 1.12,-0.94 1.45,0.22 0.28,-0.7 0.99,-0.24 2.2,-1.7 0.22,0.69 0.54,-0.36 0.46,0.46 0.59,-0.05 0.16,-0.97 0.44,-0.16 5.02,0.15 2.72,-1.11 2.5,-2 6.64,-1.43 0.09,2.05 -3.02,7.19 0.43,1.66 2.25,2.63 3.54,2.74 3.7,3.87 3.85,2.62 3.9,1.77 3.72,0.94 1.39,-0.48 1.68,-1.84 2.1,0.28 0.56,-0.44 1.75,0.93 -0.14,0.78 1.06,2.31 -2,0.9 -0.36,0.86 0.42,0.55 2.43,0.2 1.09,0.74 0.1,5.51 0.8,0.01 0.33,0.84 1.08,-0.16 0.23,-1.38 1.86,-3.06 2.86,-0.08 0.34,0.35 -0.71,2.9 0.89,0.5 0.67,-1.06 0.52,0.05 1.4,2.89 1.34,0.29 -0.88,3.03 0.36,0.87 -0.18,2.03 -1.81,0.09 -0.51,0.93 0.02,0.72 0.7,0.53 -0.22,1.23 0.98,1.01 -0.43,2.3 -1.78,0.67 0.47,0.45 -0.34,0.71 0.95,0.24 0.31,1.58 -1.03,0.69 -0.54,1.26 -1.47,0.47 -1.47,1.26 -1.47,-0.58 -2.11,0.32 -2.72,-0.44 -1.46,0.82 0.7,0.13 0.52,0.69 6.45,1.97 0.51,0.31 -0.12,0.68 -2.64,2.77 -3.98,-0.19 -1.78,0.42 -2.01,1.87 -5.06,2.07 -0.56,1.71 0.41,0.78 2.11,-2.22 2.94,-0.53 3.45,-1.79 2.42,0.12 1.94,0.94 2.9,-0.15 0.93,-1.62 0.68,-0.08 2.69,1.11 0.85,0.82 0.71,0.33 2.4,1.11 -0.63,1.96 -0.71,0.4 -0.29,1.75 -1.6,1.96 -0.36,1.43 -1.42,0.87 -6.55,1.16 -5.51,-0.54 -7.63,2.4 0.65,0.33 1.98,-0.32 5.08,-1.29 3.16,0.71 1.89,1.02 4.21,-0.59 2.58,0.2 1.03,-0.66 1.44,0.79 -0.07,3.19 -1.13,1.81 -1.37,0.62 -1.44,-0.29 -1.65,0.34 -0.49,0.58 0,0.5 -0.59,0.12 -0.95,0.98 0.98,0.2 0.99,-0.35 0.1,-0.46 1.27,-0.09 3.18,0.5 -0.39,1.29 -2.52,1.67 1.1,0.14 3.1,-0.89 -0.92,3.28 0.52,0.22 1.94,-2.37 1.7,-4.92 1.29,-0.97 1.41,-2.32 0.07,1.4 -0.64,1.88 0,3.91 -1,2.16 0.51,1.24 1.85,0.14 0.35,0.96 -0.38,1.45 -2.44,3.27 -3.08,0.76 -0.38,0.49 -0.4,1.34 1.16,1.43 -0.37,1.97 -1.24,0.76 -2.28,0.43 -6.39,-0.1 -1.65,-2.46 -0.07,-0.93 -2.08,-1.63 -0.49,-0.96 -3.25,-1.82 -2.64,-0.59 -3.71,-3.41 -0.55,0.67 2.79,3.99 -4.73,0.41 -2.1,1.35 -1.98,0.22 -4.55,-1.18 0.23,0.98 -0.42,0.35 0.17,0.51 3.07,0.94 6.62,-0.72 1.74,1.05 2,0.07 0.69,0.87 1.75,-0.59 1.34,0.14 2.62,2.9 0.01,1.3 0.91,0.64 0.37,-0.31 0.61,0.85 1.83,0.96 1.5,2.22 4.39,1.15 1.27,-0.78 -0.4,0.76 0.13,2.93 -1.4,0.5 -2.01,-0.25 -0.43,-0.03 -1.51,-0.21 -0.42,0.44 -4.25,-1.96 -1.27,0.64 -4.48,-0.08 -4.35,-2.12 -0.28,1.16 2.02,1.49 4.56,1.38 4.46,0.46 1.97,2.02 1.87,1.08 0.93,-0.13 0.88,1.49 -1.23,2.25 -1.75,1.16 -1.41,1.98 -0.3,-0.49 -0.57,0.33 -0.69,-0.83 -2.53,-0.85 -2.37,-0.38 -0.58,0.34 0.04,0.69 2.69,1.17 2.41,1.87 1.8,0.22 -0.42,1.26 -1.57,-0.62 -2.44,1.42 -1.71,0.31 -1.45,-0.9 -0.82,0.22 -0.15,0.66 -0.45,-0.57 -0.83,0.49 -0.75,0.72 -0.54,-0.22 -0.68,1.42 -0.01,-2.25 -1.65,0.47 0.5,1.26 -0.42,0.58 0.53,0.7 0.68,-0.26 0.04,0.71 0.75,-0.14 1.4,1.94 -0.04,0.94 1.3,0.74 0.28,0.78 -0.9,1.45 -1.95,0.84 -2.87,2.28 -0.88,-0.53 -0.6,0.57 -2.52,-0.01 -0.98,1.44 -0.43,0.05 -0.23,-0.69 -0.74,0.58 -0.03,-0.57 -0.55,-0.09 -0.7,0.96 -0.55,-0.97 -1.01,0.61 -0.69,-0.95 -0.42,0.32 -0.58,-1.02 -2.8,-0.73 -0.8,-3.59 -0.56,0.48 -0.69,-0.34 -0.23,-2.27 -0.42,-0.34 -0.42,0.9 -0.98,-2.4 -1.89,-0.69 0.06,-1.94 -0.44,-0.38 -1.49,0.22 0.03,-0.84 -1.76,0.57 2.41,1.16 0.52,1.35 -1.23,1.22 0.14,0.96 1.9,1.18 0.77,-0.1 0.65,1.87 0.16,-0.44 0.49,0.08 0.35,3.55 1.05,1.45 1.79,0.58 0.13,1.9 0.56,-0.05 0.94,0.88 1.22,-0.13 -0.09,1 0.47,-0.19 0.21,0.79 1.28,-1.19 -0.4,0.83 0.29,0.56 0.28,-0.19 0.12,0.92 -0.44,0.7 0.41,-0.15 0.73,0.04 -0.7,1 -2.74,-0.1 -0.17,-0.52 -0.75,0.22 -0.14,-1.11 -0.45,-0.23 -1.33,0.32 -0.79,-0.34 -1.02,-0.23 -0.6,-0.61 -3.52,0.75 -1.26,-0.37 -1.9,1.14 -0.07,0.4 1.57,0.39 0.84,0.98 2.3,-0.1 0.48,1.45 0.85,-0.27 -0.21,2.8 0.33,0.41 -1.27,1.39 -0.9,0.39 0.15,-0.44 -0.47,-0.21 -1.3,0.4 -0.25,-0.36 -0.77,1.15 -1.25,-1.19 -1.55,0.46 -1.04,-0.41 -0.32,1.21 -1.01,0.99 0.94,2.42 -0.93,1.79 0.56,0.81 0.94,0.4 1.74,-1.09 1.4,1.21 1.85,-1.58 1.71,-2.78 2.63,-2.54 2.47,-2.13 0.47,0.84 -3.32,2.63 -4.6,7.02 -0.27,1.8 1.04,1.44 -1.23,1.98 -1.1,3.4 -0.06,1.21 0.69,0.76 -0.18,0.83 -1.75,1.55 0.2,1.51 -0.73,1.4 -0.84,-0.36 -5.97,1.06 -4.06,1.5 -1.37,1.23 0.51,-1.13 2.51,-1.23 5.48,-1.56 3.19,-0.26 -4.41,-2.85 -2.25,0.62 -1.04,-0.62 -0.75,0.19 -0.54,0.68 -0.25,3.05 -0.74,-0.15 -2.03,1.91 -0.74,0 -0.36,1.41 -1.84,-1 -0.19,1.79 -0.9,0.05 -1.05,1.92 -0.65,-0.32 -0.24,0.73 -0.49,-0.38 -0.47,-0.47 -0.65,1.2 -0.59,-0.06 0.42,1.39 -1.61,0.87 -1.58,1.75 -0.81,1.88 1.97,0.59 2.52,-0.52 -0.52,0.97 0.62,1.12 -1.76,0.23 -0.56,0.74 -0.22,1.75 -0.57,-0.38 -0.75,0.37 -0.53,1.25 0.03,0.54 0.65,0.27 -0.28,0.56 -2.05,0.24 -0.54,-0.37 -0.64,0.47 -0.29,-0.34 -4.76,-0.32 -3.89,1.02 0.95,-0.9 3.67,-1.08 3.1,0.18 0.81,0.48 2.71,-0.31 1.05,-1.89 -0.89,0.18 -1.37,1.57 -1.12,0.2 -0.73,-0.65 0.38,-0.37 0.32,0.51 0.81,-0.88 -1.5,-2.47 -2.02,-1.65 -1.59,-0.42 -0.44,0 -0.22,1.65 -1.09,1.02 -0.95,-0.33 -0.39,-0.22 -1,-0.87 -1.4,0.41 0.49,-0.55 -0.86,0.03 0.34,-0.62 0.62,-1.12 -1.65,0.88 -0.76,1.43 0.35,-1.82 -1.31,-0.28 -1.31,-4.65 -0.29,0.78 -0.69,-0.33 -0.54,-0.59 0.13,-1.14 -1.01,-1.02 -1.72,0.22 -1.02,0.64 -0.27,1.04 0.8,4.47 -0.47,0.7 0.31,1.56 -0.33,0.63 -0.42,-0.17 -0.82,0.36 -0.33,0.65 1.05,-0.1 -0.16,1.03 -0.9,0.43 0.03,0.34 -0.08,0.63 -0.35,0.51 -2.56,2.76 -0.89,-0.48 -1.1,-1.96 -1.01,-0.5 -0.25,0.97 1.11,1.69 -0.28,1.16 -1.4,-0.19 -0.52,-0.67 -0.78,1.27 -2.28,0.65 -0.52,0.11 -3.35,1.1 -1.44,0.02 -0.31,-1.45 -0.47,1.57 -3.81,3.69 -2.15,0.13 -0.32,0.73 -4.58,1.63 -5.26,3.33 -18.84,18.07 -0.15,-0.59 4.05,-4.37 -3.25,2.89 -2.55,0.14 1.27,1.21 -1.35,1.35 -1.49,3.7 -1.91,2.62 -3.03,1.51 -0.41,2.09 -1.34,1.32 -2.07,1.46 -3.12,0.42 -2.04,1.95 1,0.34 -1.63,0.74 -1.63,-0.05 -1.06,-0.82 -0.83,0 0.69,1.16 -2.63,-0.92 0.59,1.96 -0.67,-0.09 0.19,2.77 -0.67,1.41 -0.21,-4.23 -0.79,-0.21 -0.08,0.75 -0.48,-0.01 0.41,2.1 -0.66,3.91 -11.67,1.32 -8.75,-0.58 -5.28,0.11 -6.09,0.89 0,0 0.54,-29.22 0,0 1.78,0 1.17,1.55 3.11,0.39 6.21,-0.97 1.75,-1.16 0.97,-5.05 -4.46,-3.69 -0.97,-1.75 1.16,-1.75 2.52,0.19 0.78,-1.75 -1.55,-1.55 3.11,-0.19 1.94,1.36 5.44,0.39 1.36,0.58 0,2.13 1.36,0 1.55,-1.94 1.75,0.97 0.97,1.94 -1.94,0.78 -3.3,3.11 0.78,3.69 1.94,0 0.58,-4.27 2.13,-0.78 2.52,0.58 1.36,1.75 -0.58,2.13 0.19,2.33 -1.16,1.55 4.08,6.41 7.57,-0.19 0.58,-1.94 1.16,-0.58 -0.19,-1.75 1.94,-2.91 5.63,-0.58 -0.39,-1.75 -6.4,-3.3 0.78,-2.13 2.52,-1.36 2.91,0.39 1.36,1.17 3.49,0.19 1.16,-0.97 4.27,1.75 2.52,-2.52 0.39,-2.72 -0.78,-2.52 -1.94,-1.75 -2.52,-5.24 -0.19,-3.88 0.58,-4.46 1.94,0 -0.58,4.66 4.27,4.08 1.94,-0.58 1.17,-2.33 0.19,-1.75 -2.52,-2.13 -1.55,-3.49 6.6,-0.58 1.94,0.97 2.33,0.39 4.85,-1.36 3.11,0.39 1.55,0.97 1.75,-0.78 1.94,-0.19 0.78,-2.13 -3.3,-0.39 -1.94,-0.78 -2.33,-3.1 8.54,1.36 -6.79,-4.08 -1.94,-1.75 -1.75,-2.72 5.63,-1.75 0.78,-1.55 9.32,6.6 0.39,1.94 1.75,0.58 2.52,-0.78 -2.91,-1.94 -1.36,-2.52 -3.69,-2.13 -2.13,-1.94 -0.58,-1.94 1.94,-1.55 2.14,-0.97 -0.78,-2.72 1.94,-0.39 2.33,0.78 0,-2.72 1.36,-0.19 2.33,2.52 0.78,2.52 1.94,0.78 1.94,0 -0.19,-3.1 -1.55,-1.55 -1.94,-0.19 -1.16,-1.55 0.39,-2.52 0.97,-2.33 0.97,-1.75 1.36,0 1.55,1.94 1.75,-1.75 2.14,0 1.55,-1.55 0.78,-3.3 1.94,-2.91 2.52,-1.16 -2.33,-3.11 -1.36,-0.39 -2.91,0.19 -0.39,-1.75 0.78,-1.75 0,-2.52 -4.85,0 -1.75,1.75 -1.36,-1.55 -1.36,0.58 -2.13,0 0,-2.52 2.13,-1.16 0.97,-2.52 -2.72,-0.97 -4.46,2.33 -0.78,1.55 -0.19,5.05 -1.75,-0.19 -2.52,-2.33 -2.91,-1.55 -2.52,-2.13 0.19,-7.76 -3.3,-3.49 -5.43,-0.97 -5.44,0 -2.13,-0.97 -2.13,0.97 -5.24,4.66 -2.52,1.55 -6.6,2.52 -4.46,4.27 -0.97,4.46 -1.94,3.11 -6.21,2.33 0,-2.52 2.52,-1.75 0.58,-3.69 -1.75,-0.78 0.58,-4.46 -1.55,-0.58 -1.75,0.58 -0.19,4.66 -1.16,1.55 -2.14,0.58 -0.39,-7.38 1.36,-3.88 2.13,-1.75 -0.18,-4.74 0,0 1.54,-3.41 1.36,-7.57 0.97,-2.72 3.69,-2.52 6.6,-3.11 1.75,-3.3 2.52,-2.33 1.36,-1.94 4.47,-0.78 3.11,-5.05 -1.55,-1.75 -0.39,-4.85 1.36,-1.36 -0.19,-13.39 0.97,-3.69 3.11,-2.91 1.75,-3.1 2.72,-2.91 0.39,-3.1 1.36,-2.52 -3.3,-3.49 -4.66,-3.69 -0.58,-3.11 1.55,-3.49 0.19,-3.49 2.91,-6.41 0,-3.1 0.78,-1.36 2.13,-1.55 4.66,1.17 4.46,-0.39 3.3,1.94 0.97,-1.55 3.49,-0.78 3.3,-5.43 -0.97,-7.96 -0.97,-3.69 0,-2.33 1.75,-6.02 1.16,-0.97 7.18,-1.55 2.72,-1.75 0.78,-1.75 1.55,-1.16 2.52,-0.97 3.49,-2.72 -0.58,-4.659997 3.11,-1.36 1.75,0.19 4.66,-0.78 3.49,-1.16 1.94,0 2.91,0.78 2.13,-1.36 5.05,-0.39 1.16,1.17 3.49,-4.08 0.78,-3.1 2.72,-2.33 1.36,-0.39 1.75,0.97 3.74,-0.71 z m -40.21,213.229997 0.48,0.95 -0.65,-0.13 0.65,1.25 -0.19,2.06 -0.37,1.34 -0.68,0.23 -1.17,-3.65 -0.12,-1.84 2.05,-0.21 z m 1.72,1.85 0.56,0.4 0.65,2.11 -0.32,0.23 0.8,2.59 -0.51,0.33 -2.79,-0.57 1.61,-5.09 z m 6.54,6.84 0.83,1.44 -0.64,0.17 -0.4,0.2 -0.4,0.28 0.14,1.07 -0.94,0.12 0.05,-1.38 -0.36,-0.33 0.8,-0.47 -0.49,-0.28 0.38,-0.79 1.03,-0.03 z m -1.13,5.13 0.62,0.76 -5.08,-0.37 -8.83,1.1 -1.15,0.56 -0.34,0.67 -7.12,1.15 -3.43,1.09 -2.56,1.67 0.26,-0.84 1.31,-0.79 4.31,-1.4 6.73,-1.27 1.86,-1.07 5.36,-1.03 5.94,-0.25 1.15,-0.79 0.97,0.81 z m -72.02,44.14 -5.26,6.65 -0.31,1.21 -1.6,2.23 -0.07,0.88 -4.62,0.82 2.01,-0.93 3.9,-3.66 0.51,-1.79 5.44,-5.41 z"
     title="Austurland"
     id="IS-7" />
  <path
     d="m 398.21418,340.98704 -0.54,29.22 0,0 -2.7,0.58 -7.43,2.78 -5.79,2.78 -3.09,2.19 -3.02,3.06 -8.03,16.65 -6.23,7.4 -9.19,5.29 -7.19,1.23 -12.53,3.74 -5.6,2.13 -5.28,1.19 -7.16,-1.14 -5.32,-1.82 -3.05,0.25 -0.85,1.56 -2.89,-0.65 -2.07,0.53 -0.25,0.43 -0.63,-0.78 -4.56,-2 -3.29,-2.07 -7.31,-2.59 -11.22,-5.37 -6,-2.21 -9.1,-1.84 -6.75,-0.22 -4.2,0.67 -0.28,0.37 -5.38,-0.96 -5.26,-3.64 -8.91,-9.09 -11.53,-10.23 -7.42,-5.57 -2.75,-1.43 -4.24,-5.11 -2.36,-2.11 -0.95,-0.43 -0.6,0.34 -0.65,-0.67 -3.81,-0.88 -3.39,-2.02 -4.71,-3.83 -0.35,0.44 -2.13,-0.65 -2.61,-0.05 -2.99,0.62 -1.6,1.6 1.05,1.62 -0.34,0.59 -1.16,0.45 -3.99,-0.38 -2.15,0.98 -4.78,0.65 -2.47,1.34 -1.34,0.16 -1.91,-0.71 -1.28,-1.17 -1.4,-2.9 -2.07,-0.82 -2.2,-0.09 -0.39,1.25 -2.61,1.6 -2.51,0.85 -1.36,-0.05 0,0 0.1,-2.11 4.77,-3.95 0.66,-1.97 4.11,-3.29 1.98,-2.96 1.81,-1.48 0,0 1.65,-1.64 0,0 4.11,-0.16 0.99,-4.61 1.48,-0.99 0.82,-2.47 4.61,-6.75 0.49,-2.47 1.65,-1.15 0.49,-2.3 1.15,-1.32 0.66,-2.96 -0.16,-2.3 -0.99,-1.32 -0.33,-4.61 5.1,-5.43 0.33,-1.65 1.81,-1.97 2.14,-0.33 1.97,-1.32 1.32,-1.32 -0.04,-0.84 0,0 2.06,-2.2 0,0 2.17,-2.17 2.33,-5.04 8.07,-7.68 3.49,-3.88 1.24,-2.4 2.27,-0.2 0,0 0.53,1.06 2.54,1.97 3.28,-1.15 1.23,-0.57 0.46,-4.32 0,0 1.34,-0.66 0,0 -0.14,-1.04 0,0 0.88,0.04 0.66,-1.06 1.31,0 1.15,0.9 -1.47,0.82 0.33,1.39 3.52,0.41 0.57,1.31 -0.08,2.78 2.95,5.24 1.31,0.74 1.15,-0.49 1.06,-2.05 0.08,-4.26 3.28,-1.06 1.15,1.31 0.08,2.46 0.74,1.72 1.39,0.41 1.97,-0.33 4.01,-4.67 9.01,-4.99 2.78,-2.7 -0.33,-1.31 -1.72,-0.33 0,-1.15 2.46,-1.64 0.16,-2.78 2.29,-1.64 0.08,-1.56 -1.06,-2.7 2.46,-2.78 0.08,-1.96 -1.96,-0.57 1.23,-1.64 3.11,-1.47 1.15,-1.15 0.33,-3.85 -0.74,-1.23 -1.39,-0.41 0,-1.15 2.87,-2.05 0.9,-4.92 0,0 1.83,1.55 1.46,3.35 2.91,0 2.62,1.02 6.11,1.02 4.66,2.18 2.48,0 2.04,-0.73 2.33,0.73 0.87,1.6 7.53,-0.2 0,0 0.19,1.08 -1.75,3.79 1.75,4.08 2.04,-0.15 0.87,0.58 0,1.46 5.53,5.24 2.62,1.46 2.62,0.44 1.02,-6.26 3.64,0.29 0.73,3.93 2.77,0.29 2.48,1.75 0.87,-1.6 1.31,-0.87 -2.62,-3.2 -0.15,-2.04 1.16,-2.62 3.2,2.48 2.33,-1.02 2.48,-1.89 3.06,-5.53 -0.58,-12.52 0.71,-1.27 0,0 0.91,-0.76 0,0 -0.12,2.47 1.94,0.97 5.24,4.66 0.78,1.55 -0.97,1.55 0,2.13 2.52,0 1.17,-0.97 2.33,-0.39 2.52,0.39 1.75,0.97 1.17,2.13 2.33,4.85 0.39,2.52 3.11,2.33 2.52,0.78 7.38,-0.39 3.88,3.11 1.94,2.52 -0.73,0.06 0,0 -1.79,0.14 -2.52,3.49 -5.89,5.4 -0.97,3.49 0.39,3.69 2.72,1.36 2.91,0.78 -0.19,1.75 -1.55,0.97 -5.05,1.55 0,2.72 -1.75,2.91 -0.58,3.11 -9.12,9.12 0,2.72 2.52,5.82 3.11,0.78 1.17,0.78 0.19,4.66 4.85,0.58 0.19,2.13 -1.16,0.58 -2.14,0.19 -0.19,4.85 1.75,2.33 1.94,0.39 1.55,2.52 1.94,0.97 7.76,0.19 0.97,-2.33 1.55,-1.94 0.58,-5.63 -0.97,-1.75 -0.39,-4.66 2.52,-0.19 0,2.72 0.97,3.11 3.3,0 0.97,-1.36 1.55,-0.97 0.19,-1.94 1.75,-0.19 1.36,0.97 0.97,1.75 1.36,0.19 0.58,-1.94 -0.97,-3.3 1.94,-0.78 1.75,1.94 4.46,3.11 -0.19,3.3 -0.78,1.94 0.58,3.3 -0.97,6.99 -1.55,4.66 -1.36,0.78 0.39,1.55 0.97,0.39 0,0.67 z m -122.84,45.17 1.83,-0.41 3.85,0.41 1.42,1.01 0.81,1.62 -0.51,1.32 -2.64,2.94 -1.83,0.61 -6.59,0.2 -4.77,-4.16 -0.71,-1.62 2.94,-3.04 3.75,-0.3 0,0 2.45,1.42 z m 34.39,-15.92 2.33,0.3 2.23,0.91 3.75,3.25 0.2,1.42 -0.91,1.62 -3.65,1.01 -0.61,1.42 1.52,1.01 1.42,0.1 1.52,1.32 0,1.83 -2.23,0.2 -1.32,3.75 1.62,2.33 1.42,1.12 3.45,0.81 0.61,0.91 -0.3,1.52 -1.22,1.32 -3.85,2.44 -1.01,-1.01 -2.94,-0.2 -0.81,-1.32 -0.81,-0.2 0.1,1.52 -1.01,1.32 -8.11,-0.1 -1.01,0.81 -2.43,-0.3 -0.41,1.32 -0.91,-0.2 -1.01,-3.85 -1.12,-1.01 -0.71,0.31 -0.1,1.93 -2.54,2.23 -1.42,0.61 -0.3,-1.72 0.91,-0.61 0.71,-1.62 0.3,-3.65 -4.57,-1.42 -0.91,-1.52 0.31,-1.72 1.01,-1.12 2.23,-0.41 0.91,-1.62 0.3,-4.57 0.51,-0.91 1.83,0.51 0.41,0.81 1.62,-0.2 -0.91,-2.03 -1.32,0 -3.04,-1.32 0.41,-2.43 1.12,-2.54 1.62,0.51 0.61,1.01 5.58,-3.35 0.3,-0.91 1.42,0.1 1.12,-0.91 3.04,-1.01 1.42,0.2 0,0 3.63,2 z m -71.2,42.97 -0.49,1.58 -1.9,1.11 0.46,0.79 -1.02,1.52 -0.72,0.09 -0.01,-0.77 0.74,-0.33 -1.05,-1.47 -0.19,-2.29 -0.74,-0.69 0.59,-0.53 2.23,-0.2 1.07,-0.8 0,1.04 1.03,0.95 z"
     title="Suðurland"
     id="IS-8" />
</svg>
