<?xml version="1.0" encoding="UTF-8" standalone="no"?>
<!-- Created for MapSVG plugin: http://mapsvg.com -->
<svg
   xmlns:mapsvg="http://mapsvg.com"
   xmlns:dc="http://purl.org/dc/elements/1.1/"
   xmlns:rdf="http://www.w3.org/1999/02/22-rdf-syntax-ns#"
   xmlns:svg="http://www.w3.org/2000/svg"
   xmlns="http://www.w3.org/2000/svg"
   mapsvg:geoViewBox="46.489440 55.432742 87.315881 40.549293"
   width="792.54694"
   height="434.92221">
 
  <path
     d="m 379.81694,99.882712 3.13,0.189998 1.65,3.46 2.9,-1.29 3.7,-0.57 0.14,3.08 6.23,0 1.97,1.06 2.15,0.27 1.24,-0.71 4.11,1.46 -0.22,-6.69 4.32,-0.12 1.14,1.42 2.77,1.12 2.05,1.88 0.53,0.3 1.13,-1.12 -0.5,-0.7 0.59,-1.03 0.77,0.59 2.43,-2.649998 -0.22,-0.95 -1.19,-0.48 -0.43,-2.18 2.83,0.06 0.76,-1.69 0.83,-0.48 2.14,0.29 0.49,-1.58 0.54,-0.09 0.37,-1.86 1.39,-0.84 0.81,-0.08 0.33,-1.19 0.67,0.05 0.86,-0.88 0.53,0.18 1.66,-0.83 -1.65,-1.88 1.07,0.22 -0.92,-3.19 2.99,-2.76 -1.14,-1.58 0.69,-0.22 0.07,-1.36 -0.34,-1.11 -1.35,-0.11 0.25,-2.3 -2.17,-0.17 -0.61,-1.27 -1.07,-0.36 -0.09,-1.1 -1.4,-2.03 0.59,-0.91 0.82,-0.08 0.56,-0.23 0.04,-0.82 0.99,-0.75 0.51,0.59 0.6,-1.19 -0.95,0.06 -0.06,-1.65 2.86,0.08 0.44,-0.52 -0.52,-0.59 0.16,-0.54 -0.64,-1.01 1.5,0.11 0.17,-0.81 1.91,0.14 0.09,0.98 2.74,-0.2 -0.06,-1.67 1.91,0.15 0.06,1.39 1.22,0.24 0.23,0.84 0.81,0.21 0.35,1.13 0.05,1.52 1.34,0.38 0.63,-1.46 -1.08,-0.23 -0.33,-1.54 0.82,-0.08 0.36,-1.63 1.08,0.23 0.46,-0.93 0.95,-0.06 0.73,-0.78 4.22,0.07 0.19,1.54 1.07,0.37 0.22,3.33 -0.47,1.06 0.66,0.33 0.44,-0.65 2.41,0.61 1.39,-0.57 0.17,1.8 -0.84,0.48 0.22,0.85 -0.82,0.07 0.08,0.96 -0.58,0.51 3.8,-0.1 0.3,-0.52 0.68,0.05 0.1,0.56 1.98,2.5 0.29,1.54 1.89,-0.25 -0.36,-2.36 1.76,-0.26 0.47,-2.71 8.21,-0.23 -0.08,0.96 0.26,0.02 -0.29,1.9 3.14,0.56 0.21,0.58 1.72,0.02 0.73,-0.76 0.54,-0.09 0.46,-0.64 1.21,-0.17 0.65,-1.31 1.98,0.05 -0.12,1.23 4.03,4.38 -0.78,1.17 -0.63,2.28 0.62,1.71 -1.24,0.56 0.02,1.1 0.94,1.06 0.26,1.26 5.67,0.71 4.6,-0.35 0.91,-2.38 3.75,-0.83 0.83,0.78 1.81,-0.9 2.1,-0.02 0.63,-0.9 0.66,-0.06 0.41,1.03 0.01,2.37 0.82,0.93 0.54,5.75 2.49,-1.06 3.72,1.89 2.64,-0.06 0.24,1.28 1.45,-0.07 1.39,2.67 7.52,0.56 0,0 0.06,0.56 1.02,0.15 0.45,19.959998 0.41,0.87 -1.19,0.23 -2.73,2.15 -0.61,0.72 -0.1,5.89 3.56,-1.75 0.99,2.29 2.29,0.21 1.9,1.09 -0.48,0.73 -1.04,0.11 -0.76,0.95 -1.98,-0.56 -4.33,2.83 -0.29,2.22 -2.1,2.48 0,0 -3.33,-0.99 -1.26,1.94 -0.56,-1.66 -0.53,0.19 0.31,0.57 -1.59,0.45 -0.53,-0.87 -0.94,0.4 -0.32,1.55 0.85,0.38 1.2,2.67 -0.2,0.63 0.7,0.49 1.04,-2.23 1,0.14 2.53,1.14 -2.89,2.76 -5.16,1.67 0.69,1.67 -1.08,0.51 -1.67,0.17 -0.79,1.34 -3.14,-1.33 -1.14,2.08 -0.77,0.17 -0.19,0.5 0.56,0.59 -1.31,1.53 -2.81,0.17 -0.12,1.03 -0.71,-0.35 -0.99,0.92 0.55,0.72 -1.41,1.25 2.11,1.43 -1.61,0.84 -2.23,-1.44 -0.77,1.2 -1.44,0.48 0.43,2.9 -1.3,0.36 0.27,0.94 -2.43,-1.85 -4.08,0.43 -0.48,0.98 -1.21,-0.4 1.78,-2.51 -0.35,-1.46 0.59,-0.84 -0.18,-0.67 -0.59,-0.33 1.33,-1.79 -2.2,-1.95 -1.4,0.1 -0.26,-1.07 -1.32,0.5 -0.28,-0.94 -0.9,0.16 0.04,0.78 -2.91,1.24 -0.55,2.92 -1.39,-0.02 -0.63,1.23 -1.74,-0.19 -1.52,1.26 0.41,0.94 -2.57,1.8 -1.38,-0.02 -0.3,0.48 -1.28,0.26 -0.25,6.4 -1.4,-2.45 -4.19,1.88 1.21,3.07 -0.62,1.22 -2.15,0.29 -2.79,1.78 -1.57,0.74 -1.2,-0.62 0.08,-2.17 1.73,-2.52 -0.41,-0.93 -0.91,0.3 -0.59,-1.72 -6.05,1.75 -0.87,-0.08 -0.66,0.33 -0.86,-0.21 -1.15,0.28 0.47,-2.51 -1.13,-0.1 -0.57,-0.69 -0.73,-1.74 -0.51,0.09 -0.59,0.97 -0.36,-1.7 -2.64,1.44 0.69,2.24 -1.6,1.01 -0.87,-0.07 -0.57,-0.69 -0.2,0.88 0.57,0.69 -0.24,1.38 -0.51,0.08 -0.83,-0.7 -2.5,1.32 -2.52,-1.61 -1.13,-0.09 -0.32,-0.79 -1.56,0.51 -0.67,-1.2 1.39,-1.55 0.81,-3.78 0.86,-1.34 -0.43,-2.61 0.94,-0.57 0.27,-6.81 -6.03,0.17 -0.6,1.11 -2.37,0.85 -4.22,3.17 -1.83,-1.43 -2.75,0.58 -1.15,-0.21 1.3,1.76 0.14,1.69 0,0 -2.31,1.76 -8.47,1.1 -4.58,2.91 -2.76,-4.27 2.16,-1.28 -1.27,-3.16 -1.67,-0.61 -4.81,1.4 -5.18,-1.84 -1.54,-1.11 -2.41,0.64 -1.01,-4.06 -1.49,0.7 -0.64,-0.55 -0.94,0.46 0.04,-1.16 -0.68,0.61 0.05,-1.29 -0.22,-1.18 -3.64,-2.14 -1.21,3.95 -3.87,0.44 -0.74,-1.59 1.28,-6.04 -4.14,-4.01 1.1,-0.99 -1.67,-2.18 2.77,-2.47 -0.92,-0.71 1.64,-4.77 -1.77,-3.67 -2.43,-0.13 -0.98,-3.37 3.38,0.33 5.1,-2.62 0.8,-3.53 0.86,-5.01 2.38,-1.99 z"
     title="Aqmola oblysy"
     id="KZ-AKM" />
  <path
     d="m 243.32694,290.21271 -1.66,0.88 -2.03,0.43 -0.96,0.64 -0.86,1.18 -0.96,2.03 -0.75,2.14 -0.11,1.92 -0.85,0.43 -0.64,1.07 -0.05,0.83 -7.92,2.24 -28.04,8.87 0,0 -2.79,-20.57 -1.75,-4.85 0,0 -1.6,-3.13 0.36,-1.18 -2.29,-2.96 -0.24,-3.7 -11.41,-3.4 -3.95,-1.64 -5.83,-5.87 -1.21,-4.7 -2.9,-3.66 1.53,-11.71 0.74,-4.55 -1.32,-2.25 -0.43,-5.41 -3.03,-3.39 0.7,-2.66 -1.08,-4.64 -0.74,-1.26 0.64,-4.64 0.57,-0.45 -0.09,-4.69 -3.49,-0.3 -0.01,-1.24 -1.46,-1.06 -0.64,1.08 -1.27,-0.33 0.06,1.73 -0.48,2.55 -2.12,-0.21 -1.17,-0.59 -4.63,-0.49 0.78,-1.98 -0.83,-1.89 0.56,-1.7 -1.35,-6.85 -1.02,-0.24 -0.88,2.26 -1.19,-0.59 0.29,-0.79 -2.36,-1.07 -1.54,-1.42 0,0 -0.18,-2.77 1.28,-4.37 -0.68,-1.56 1.21,0.6 0.79,-2.02 1.5,-1.35 1.9,0.01 0.35,-1.45 2.4,-0.05 1.66,0.3 1.91,-1.13 -0.45,-0.83 1.35,-1.7 0.41,-1.07 2.15,0 -1.14,-1.39 1.87,-3.29 -0.07,-0.89 0.87,-1.76 -0.25,-1.52 -1.31,-0.62 -0.06,-0.77 -0.92,-0.28 -0.07,-2.57 0.36,-2.11 -1.46,-2.03 2.07,-2.2 -0.33,-0.87 2.45,-2.92 -0.3,-0.43 0,0 0.6,0.4 0.36,-0.13 1.13,-1.77 0.7,-0.39 0.38,-0.64 -0.32,-1.37 -0.78,-1.79 -0.32,-2.22 0.59,-1.25 0.4,-1.32 0.58,0.21 0.47,-0.06 0.67,0.37 0.32,-0.01 0.25,-0.18 0.17,0.16 0.1,0.58 0.45,0.14 0.32,0.5 0.41,-0.16 -0.03,-0.59 0.45,-0.11 0.12,-0.27 0.32,0.03 0.16,-0.23 0.49,-0.04 0.25,0.12 0.47,-0.6 -0.1,-0.61 0.83,-0.41 0.63,0.37 0.36,0.43 0.1,0.72 -0.13,0.35 -0.63,0.79 -0.15,0.39 0.15,0.38 0.55,0.5 0.93,0.59 4.07,3.81 0.35,0.14 0.6,-0.57 1.58,0.09 0.4,0.94 1.25,0.65 2,1.55 0.37,0.01 0.42,-0.35 0.39,-0.91 1.56,-0.91 0.96,-0.28 2.12,-1.13 1.02,-0.95 1.1,-0.8 0.73,-0.28 0.25,-0.27 0.1,-0.33 -0.12,-0.98 0.05,-1.01 0.76,-2.52 0.31,-0.44 0.4,-0.14 1.62,0.83 1.19,0.01 0.55,-0.49 0.21,-1.35 0.28,-0.14 0.9,0.19 0.35,-0.24 0.11,-0.48 -0.29,-1.3 -0.01,-0.93 0.65,-0.74 0.1,-0.03 0.49,0.62 0.17,0.63 1.03,0.56 0.92,1.25 0.92,0.05 0.92,0.5 0.24,-0.2 0.15,-0.83 -0.39,-1.07 -0.18,-1.09 0.12,-0.09 1.13,-0.03 0.39,-0.14 0.48,0.06 1,0.8 0.4,0.08 1.05,-0.67 0.37,0.18 0.42,0.44 0.47,0.1 1.97,-0.74 1.15,-0.6 0.37,0.42 0.34,1.18 0.63,0.5 0.75,0.31 0.5,0.84 0.04,1.07 0.6,0.78 1.76,1.2 1.34,0.39 0.33,-0.12 0.06,-0.22 -0.27,-0.66 0.08,-0.24 1.61,-0.77 0.99,0.01 0.53,0.98 0.82,-0.36 0.3,-1.09 0.13,-3.89 0.16,-1.39 0.47,-0.24 0.77,-0.06 0.45,0.7 0.6,0.44 0.31,-0.05 0.24,-0.31 0.5,-0.12 0.36,0.72 0.85,-0.02 0.25,0.37 0.95,-0.89 0.28,-0.03 0.47,-0.4 0.22,0.34 -0.08,0.66 0.18,0.45 1.46,0.34 0.11,-0.1 -0.12,-0.33 0.09,-0.27 0.51,-0.12 0.2,-0.27 -0.14,-0.89 0.47,-0.22 0.33,-0.34 0.16,0.09 0.17,-0.18 0.16,0.1 0.22,-0.33 0.66,0.27 0.6,1.89 0.28,0.38 0.5,0.09 1.13,-0.26 0.97,0.11 0.78,0.16 0.38,0.44 0.75,1.56 -0.04,0.42 -0.4,0.54 -0.29,1.17 0.14,2.01 0.49,1.49 0.45,0.27 0.6,0.06 1.7,-0.64 0.75,0.06 0.23,0.33 -0.23,0.98 0.15,0.65 1.34,0.64 0.4,1.08 0.62,0.48 1.08,0.15 0.84,-0.24 0.46,0.03 1.39,0.5 2.23,0.25 0.51,0.21 0.33,0.53 0.37,0.11 0.46,-0.39 1.67,0.4 1.32,-0.36 0.38,0.01 1.23,1.69 0,0.24 -0.42,0.19 -0.05,0.18 0.03,1.84 0.03,0.24 0.22,0.05 1.53,-0.78 3.41,-0.87 0.91,-0.48 1.27,-2.12 2.05,-5.36 0.58,-0.84 0.68,-0.28 1.32,0.19 0.87,0.45 0.19,0.28 0.05,1.4 2.37,2.96 0.75,0.42 2.35,0.29 2.11,0.16 2.02,-0.11 1.2,0.24 1.5,-0.02 1.93,-0.69 1.56,-0.08 8.13,-3.31 0.46,-0.39 0.3,-0.81 0.58,-3.81 1.76,-8.88 1.63,-0.55 0,0 1.29,0.63 1.43,-0.63 0.87,-1.52 1.36,2.1 0.17,1.97 0.96,3.23 1.58,0.62 1.03,-1.44 0.52,-0.38 2.88,1.73 0,1.2 -0.65,0.11 -0.65,2.25 3.5,3.41 -2.2,1.53 0.39,1.72 -0.01,1.84 2.72,-0.85 1.78,9.06 2.57,4.09 0.39,1.56 4.23,6.32 0.38,1.56 -0.94,3.3 -3.08,-2.53 -3.1,2.75 -0.28,3.2 -3.07,1.87 0.63,3.45 0.63,0.9 -2.29,-0.79 -1.65,2.15 1.01,1.15 3.55,6.01 -0.64,0.49 -0.38,-0.38 -2.91,0.47 -0.5,1.39 2.52,-0.23 1.39,4.81 5.42,5.36 4.2,-2.29 2.02,1.8 0.12,1.12 -1.29,1.72 0.74,2.51 6.34,2.15 1.13,1.27 3.17,1.2 3.15,2.2 4.19,8 0,0 3.56,6.23 1.77,0.79 -4.31,4.75 -22.92,16.02 0,0 -1.46,0.47 -0.85,-1.22 -5.59,-0.87 0.84,-1.94 -5.36,-6.82 -2.43,0.37 -1.6,-3.05 -3.32,-5 -11.81,2.72 -6.69,17.89 -8.13,-0.67 -0.56,6.16 -5.96,0.49 -7.83,7.27 -1.64,2.56 -2.24,2.45 -4.27,6.41 z"
     title="Aqtöbe oblysy"
     id="KZ-AKT" />
  <path
     d="m 620.77694,255.05271 2.32,1.51 0.97,1.14 2.45,0.22 0.95,2.44 8.65,-0.97 6.1,8.55 9.25,-3.23 4.15,1.72 -0.08,2 6.65,2.92 5.65,3.16 6.04,0.15 1.09,1.66 0,0 0.92,-0.03 1.09,-0.71 0,0 0.57,1.43 0.63,0.73 0.87,-1.23 0,0 0.57,0.01 -0.73,1.14 0.65,0.14 0,0 0.68,0.03 0.68,0.51 0.63,-1.16 0.46,-0.02 -0.36,0.98 0,0 -0.98,0.73 0.27,0.3 0.85,-0.17 -0.69,0.91 6.44,7.55 0,0 1.52,5.75 3.15,3.43 -0.6,4.2 0.24,1.58 0.71,0.62 2.01,-0.72 0,0 0.33,0.45 1.71,1.03 0.72,0.64 3.36,0.72 0.27,0.38 0.52,1.98 -0.74,3.53 -2.06,3.04 -1.03,-0.72 -2.46,-2.19 -1.04,-0.26 -1.57,0.33 -1.12,0.45 -1.86,1.28 -1.24,0.12 -0.57,-0.33 -0.34,-1.01 -0.19,-0.1 -1.04,0.27 -0.5,-0.15 -0.13,-1.11 -0.22,-0.43 -0.24,-1.26 -0.72,-0.55 -0.37,-0.65 -0.82,-0.45 -0.19,0.3 -0.4,0.2 -0.64,-0.15 -0.93,0.74 -0.28,0.55 -0.72,0.17 -0.29,0.4 -0.52,0.31 -0.96,0.16 -0.3,-0.53 -0.12,0.02 -0.93,0.88 -0.61,-0.14 -0.21,-0.18 -0.59,0.56 -0.97,0.16 -0.38,-0.12 -0.14,0.2 -0.73,0.23 -0.28,0.53 -0.21,0.05 -0.93,-0.28 -0.04,0.33 -0.29,0.31 -0.05,0.35 -0.21,0.23 -0.4,-0.02 -0.76,0.26 -1.24,-0.04 -1.18,1.01 -0.71,0.07 -0.72,-0.46 -1.27,-0.36 -0.44,-0.44 -0.14,0.06 -0.11,0.59 -0.38,0.35 -1.75,0.74 -0.92,-0.12 -0.88,0.13 -0.39,-0.31 -0.45,0.1 -0.48,0.41 -0.35,0.96 -0.9,0.63 -0.76,0 -0.39,-0.52 -0.26,-0.08 -0.55,0.21 -0.73,0.61 -0.46,0.15 -0.85,0.05 -0.48,-0.44 -0.67,0.06 -0.65,-0.17 -0.16,0.27 0.24,0.55 -0.06,0.25 -0.29,-0.16 -0.29,0.06 -1.12,1.23 -1.97,1.25 -0.31,0.35 -0.5,0.15 -0.22,0.35 0.22,0.24 0.52,-0.37 0.43,-0.01 0.64,0.43 0.51,0.07 0.57,1.69 0.79,0.43 1.57,-0.24 0.62,-0.56 1.46,0.21 0.69,-0.52 0.49,0.06 0.3,0.34 -0.11,0.34 0.17,0.09 0.83,-0.24 0.46,0.91 1.6,0.8 0.69,0.67 0.1,0.72 -1.66,0.56 -0.79,0.8 0.83,1.28 -0.25,0.56 -0.52,2.17 -0.42,0.74 0.4,1.31 0.38,3.06 0.39,1.15 0,2.14 0.28,1.84 0.58,1.45 -0.13,0.56 0.03,0.27 0.28,0.36 -0.05,0.76 1.02,2.25 -0.06,0.82 0.32,1.47 0.36,0.26 1,2.23 2.46,6.2 0.3,0.4 0.26,0.94 -0.23,0.81 0.03,0.52 -0.49,0.5 -0.96,2.06 0.04,0.19 0.23,0.29 1.36,-0.09 0.27,0.12 0.04,0.74 0.4,0.8 0.02,0.67 0.34,0.81 -0.44,0.82 -0.61,0.05 -0.45,0.38 -0.5,-0.3 -0.54,-0.1 -1.47,0.42 -1.77,1.46 -1.79,0.51 -0.41,0.47 -0.01,0.83 0.31,0.58 0.64,0.63 0.89,0.58 1.66,0.43 0.43,0.75 -0.05,0.12 -0.21,-0.04 -0.55,0.3 -0.22,-0.23 -0.08,0.23 -0.34,0.13 -0.32,-0.14 -0.13,0.28 -1.42,0.6 0.01,0.26 -0.43,0.29 -0.3,-0.11 -0.52,0.21 -0.01,-0.22 -0.54,0.21 -0.1,-0.29 -0.18,-0.01 -1.06,0.18 -0.06,0.8 -0.32,0.8 -0.39,1.66 -0.69,0.67 -0.3,1.12 0.2,1.05 0.62,1.29 0.58,0.54 0.53,0.05 0.21,0.24 -0.37,0.43 -0.82,0.41 -0.12,0.59 -0.03,0.88 0.41,0.57 -0.03,1.42 0.91,0.65 -0.23,0.79 0.47,0.65 -0.17,0.96 -0.64,0.37 -0.36,0.02 -0.35,-0.28 -0.23,-0.01 -0.56,0.46 -0.3,-0.06 -0.52,0.36 -0.15,-0.09 -0.13,-0.45 0.16,-1.3 -0.36,-0.55 -0.32,-0.91 -0.45,-0.29 -0.76,-0.19 -0.78,-0.75 -0.32,-0.92 -0.28,-0.5 -0.23,-0.15 -1.16,-0.08 -0.18,0.39 -0.26,0.07 -0.15,-0.19 0,-0.36 -0.14,-0.05 -0.86,-0.07 -0.31,-0.2 -0.47,0.07 -0.26,-0.42 -1.56,-0.25 -0.94,0.66 -0.83,-0.14 -1.23,0.02 -0.49,-0.82 -1.74,-1.4 -0.47,-1.03 -0.24,-0.23 -1.14,-0.88 -0.92,-0.25 -0.36,-0.47 -0.29,-0.11 -0.8,-1.4 -0.2,-1.09 0.09,-0.49 0.23,-0.32 -0.12,-0.11 -0.47,0.01 -1.04,0.34 -0.31,0.67 -0.2,0.13 -0.59,-0.77 -0.35,-0.2 -0.76,0.09 -0.56,-0.21 -0.55,0.16 -0.53,-0.36 -1.02,-0.2 -0.5,-0.27 -0.51,0.05 -0.58,-0.5 -0.59,0.03 -0.28,-0.21 -0.72,0.26 -0.55,-0.74 -1.99,-0.46 -0.44,-0.7 -0.75,-0.28 -1.69,0.7 -0.62,-0.23 -0.33,0.65 -0.48,0.15 -2.97,-0.68 -0.4,0.62 -0.97,-0.17 -0.47,0.15 -0.47,0.53 -0.38,-0.55 -0.35,-0.21 -0.3,0.01 -0.73,0.45 -0.62,-0.67 -0.61,0.19 -0.72,-0.35 -0.67,0.04 -0.35,-0.15 -0.58,-0.66 -1.59,0.1 -1.19,-0.26 -1.16,-0.02 -1.02,-0.38 -0.94,0.11 -0.6,-0.22 -2.06,0.54 -1.63,0.05 -0.71,-0.22 -0.57,-0.79 -0.35,-0.21 -1.73,-0.18 -0.85,0.14 -2.21,-0.58 -1.61,0.02 -0.85,0.83 -0.91,0.13 -0.32,0.83 -0.31,0.25 -2.24,-0.2 -0.8,0.08 -1.01,-0.24 -0.56,0.79 -0.79,0.08 -1.89,0.54 -0.47,-0.02 -0.15,-0.13 -0.3,-0.91 -0.61,-0.36 -2.6,-0.11 -1.92,0.36 -0.24,-0.11 -0.31,-0.43 -0.9,-0.1 -0.65,-0.54 -0.61,0.3 -0.65,-0.19 -0.94,0.48 0,0 -0.15,0.02 -0.2,-0.94 -1.01,0.44 -1.08,-0.68 -1.88,0.21 0,0 -0.22,-0.43 1.12,-0.34 0,0 0.52,-1.06 -3.66,-1.73 -1.88,-0.39 -0.46,-1.9 -0.75,-0.33 0.27,-1.15 -0.74,-0.44 0.22,-2.26 2.58,-3.13 -0.7,-1.18 -2.91,0.36 0.29,-0.93 -1.1,-0.14 -0.66,0.45 -3.28,-1.15 -0.01,-1.72 4.25,-4.04 0.74,-0.35 0.46,-1.25 -0.45,-1.93 0.86,-0.99 0.44,-1.16 -0.09,-3.34 -2.02,-1.38 -1.1,-1.49 -1.21,-0.17 0,0 -1.86,-1.71 -0.33,-0.04 0,0 -4.34,-0.47 -3.71,-3.55 -0.63,-0.99 0.89,-3.28 -1.86,-3.21 -6.24,-4.37 -0.38,-1.19 -0.76,-0.91 -0.16,-3.34 -5.45,-0.14 -0.35,-5.11 5.87,0.43 -1.06,-2.79 -0.84,-10.2 1.85,-3.12 0,0 1.56,-3.41 1.7,-2.81 0,0 2.23,-2.51 4.13,-4.24 5.29,-4.78 11.11,-6.39 4.63,0.93 5.94,-1.1 6.63,1.17 -0.02,0.82 0,0 1.12,0.3 1.33,-1.57 0,0 0.54,1.63 0.6,-0.73 1.77,0.64 0.61,-1.44 1.26,0.2 1.79,0.53 2.95,1.31 -2.1,-2.12 1.35,-0.25 2.05,1.05 1.93,-0.27 1.94,1.03 0.64,1.64 1.46,-0.22 -0.03,-1.78 5.89,-0.66 -0.84,-14.68 0,0 0.53,-0.98 5.02,1.12 2.85,-3.2 2.48,2.61 0,0 3.13,-3.99 z"
     title="Almaty oblysy"
     id="KZ-ALM" />
  <path
     d="m 64.86694,284.05271 -0.14,0.12 -0.3,-0.07 -0.6,-1.25 -0.2,-0.11 0.16,-0.19 -0.54,-1.2 -0.1,-0.8 -0.45,-0.49 -0.07,-0.23 0.11,-0.16 0.3,-0.11 1.06,0.42 0.96,1.08 0.33,1.24 -0.52,1.75 z m 74.76,-85.62 1.53,1.43 2.36,1.06 -0.29,0.8 1.18,0.59 0.88,-2.26 1.02,0.24 1.35,6.85 -0.56,1.7 0.82,1.89 -0.77,1.98 4.62,0.49 1.17,0.59 2.12,0.21 0.48,-2.55 -0.05,-1.73 1.27,0.33 0.63,-1.08 1.47,1.06 0,1.24 3.49,0.3 0.09,4.69 -0.57,0.44 -0.64,4.64 0.74,1.26 1.08,4.64 -0.7,2.66 3.03,3.39 0.43,5.41 1.32,2.25 -0.74,4.56 -1.53,11.7 2.9,3.67 1.21,4.7 5.83,5.86 3.95,1.64 11.41,3.4 0.24,3.7 2.29,2.95 -0.36,1.18 1.59,3.13 0,0 -1.74,-1.04 -1.52,0.11 -0.91,-0.85 -1.34,0.69 -2.06,-0.62 -0.51,-1.56 -0.86,-0.38 -0.99,0.68 -1,-0.59 -1.45,-0.42 -0.32,-0.89 0.31,-1.54 -0.67,-2.01 -0.95,-0.13 -0.56,0.3 -0.3,0.5 -0.57,0.18 -1.26,-0.78 -2.35,-3.33 -4.58,4.54 -2.15,-0.3 -7.68,0.8 -3.72,1.45 -2.94,0.07 -1.8,0.72 -1.26,0.3 -1.19,-0.06 -1.38,0.32 -0.39,0.64 -3,-0.37 0.27,1.24 -1.05,2.01 -4.42,3.29 2.04,1.2 -1.26,1.21 -1.97,1.19 -2.35,1.01 -1.39,0.19 -1.3,0.86 -3,-0.4 -0.62,1.55 -2.62,-0.14 -4.45,-1.1 0,0 -0.03,-0.25 0.73,0.12 0.35,-0.15 -0.74,-0.26 -0.12,-0.25 0.07,-0.67 0.41,-0.18 -0.06,-0.46 0.19,-0.16 1.5,-0.15 -0.79,-0.46 -0.13,-0.42 0.26,-0.27 0.79,-0.21 -0.43,-0.48 -0.27,-0.69 -0.47,-0.38 -0.11,-0.35 0.17,-0.18 0.85,-0.01 0.28,-0.52 -1.08,-0.95 -0.39,-0.15 -0.59,-0.7 0.41,-0.54 0.68,0.01 -0.69,-0.34 -0.08,-0.39 -0.27,-0.09 0.21,-0.34 -0.04,-0.39 0.55,-0.42 0.85,0.11 -0.31,-0.52 0.3,-0.2 -0.41,-0.14 -0.06,-0.27 0.68,-0.37 0.48,-0.8 0.39,0.45 -0.06,-0.4 0.13,-0.38 -0.12,-0.13 -0.27,0.09 -0.19,-0.32 0.26,-0.42 0.06,-0.56 0.44,-0.63 0.07,-0.76 1.2,-1.29 0.54,-0.18 -0.51,-0.19 -0.05,-0.17 0.62,-0.09 0.11,-0.15 -0.41,-0.23 -0.39,-0.63 -0.83,-0.74 0.28,-1.52 -0.23,-1.02 0.73,-0.71 -0.77,-0.29 0.27,-0.66 -0.38,-1.39 -0.2,-0.06 -0.27,0.14 -0.29,-0.14 -0.44,0.3 -0.26,-0.12 0.23,-0.45 0.35,-0.11 -0.63,-0.64 -0.21,0.08 -0.16,-0.11 0.16,-0.69 0.37,-0.28 -0.24,-0.5 -0.4,-0.16 -0.12,0.07 -0.47,0.77 -0.96,0.57 -0.53,0.84 -0.02,0.72 -0.33,-0.03 -0.34,-0.24 0.04,-0.5 -0.17,-0.3 0.08,-0.33 0.26,-0.26 -0.12,-0.43 -0.35,-0.23 -0.37,0.15 -0.25,0.32 -0.2,-0.06 0.04,-0.75 0.16,-0.25 -0.35,-0.12 -0.07,-0.28 -0.8,-0.32 -0.11,-0.18 0.09,-0.17 0.36,0.1 0.42,-0.47 -0.17,-0.24 0.1,-0.48 -0.22,-0.38 -0.45,-0.31 -2.88,0.56 -0.75,0.82 -0.45,0.22 -0.24,-0.04 -0.35,-0.78 -0.44,-0.08 -0.53,2.41 -0.23,0.27 -0.58,0.24 -0.85,0 -1.44,-0.79 -1.92,-0.35 -1.42,-0.79 -1.02,0.11 -0.44,-0.23 -0.02,-0.22 -0.24,0.1 -0.11,-0.24 -1.25,-0.44 -1.4,-0.21 -0.71,0.04 -0.74,-0.53 0.12,1.08 0.45,0.44 0.5,0.25 0.27,0.46 -0.07,1.15 -0.26,0.53 -0.13,-0.09 0.11,0.32 -0.13,0.01 -0.34,-0.92 0.17,-0.83 -0.41,-0.43 -0.35,-0.05 -0.1,-0.39 -0.39,-0.35 -0.47,-1.76 -0.16,0.01 -0.03,0.33 -0.21,0.02 -0.25,0.36 -0.49,0.09 -0.66,0.68 -0.21,0.1 -0.12,-0.17 0.52,-0.54 0.49,-0.28 0.2,-0.8 0.18,-0.01 0.05,-0.16 -0.16,-0.27 0.33,-0.27 0.07,-0.54 -0.89,0.47 -0.72,0.88 0.43,-0.84 -0.01,-0.31 -1.11,-1.28 -2.54,-0.75 -0.78,0.12 -0.26,-0.21 -0.52,0.23 -0.96,-0.32 -0.44,0.21 -0.39,-0.02 -1.37,1.18 -0.31,0.02 -0.28,0.21 -0.15,0.73 -0.32,-0.08 -0.31,0.18 -0.95,-0.03 -0.45,-0.22 -0.48,-0.01 -1.08,-0.53 -0.92,0.22 -0.4,0.26 -0.42,0.59 -0.16,0.08 -0.18,-0.19 -0.3,0.06 -0.89,1.66 -0.52,0.5 -0.39,0.02 -0.17,-0.19 0.19,-0.77 -0.08,-0.36 -0.25,-0.13 -0.28,0.13 -0.64,0.47 -0.5,0.66 -0.14,1.04 -0.53,1.4 -0.24,0.24 -0.34,-0.08 -0.21,-0.3 0.25,-0.88 -0.13,-0.19 -0.65,0.53 -0.29,-0.01 -0.18,-1.17 -0.48,-0.73 -0.96,1.62 -0.2,0.58 -0.35,0.37 -0.14,0.05 -0.24,-0.3 0.16,-0.89 -0.23,-0.01 -0.55,0.33 -0.29,0.39 0.18,0.24 -0.66,0.54 -0.5,1.04 -0.23,0.88 -0.35,0.54 -0.26,-0.3 -0.08,-2.05 -1.31,1.39 -0.58,0.41 -1.4,2.09 -0.24,0.86 -1.33,-0.36 -0.7,0.33 -0.77,1.22 0.1,0.95 -0.27,0.39 -0.51,0.25 -0.32,0.46 -0.84,-0.28 -0.53,-0.43 0.25,0.77 -0.15,0.61 0.94,0.76 -0.2,0.09 -0.59,-0.28 -0.14,0.16 0.81,0.66 0.31,0.52 -0.09,0.22 -0.53,-0.15 -1.25,-0.73 -0.42,-0.05 -0.51,0.83 -0.34,-0.05 -0.27,-0.29 -0.22,0.06 -0.18,0.81 0.26,0.48 -0.36,0.38 -0.24,-0.15 -0.33,-0.71 -0.51,-0.61 -0.17,0.01 0.1,0.77 0.34,0.54 0.02,0.3 0.58,0.59 0.12,0.52 -0.13,0.15 -1.32,-0.77 -0.65,-0.52 -0.1,-0.23 -0.46,-0.01 -0.81,-0.6 -0.22,0.01 -0.18,0.34 -0.56,-1.16 -0.24,-0.13 0.06,-0.4 -0.13,-0.27 0.21,-0.35 0.62,0.18 -0.79,-0.88 0.05,-0.36 -0.11,-0.21 -1.01,-0.36 -0.44,0.06 -0.15,0.12 0.35,0.41 0.37,0 0.19,0.2 0.09,0.32 -0.11,0.4 0.24,0.91 1.02,1.12 0.11,0.4 -0.14,0.41 0.42,0.26 0.12,0.23 0,0.28 -0.16,0.18 -0.34,0.02 -0.19,0.35 -0.19,0 -0.6,-0.46 0.06,-0.25 -0.33,-1.14 0.09,-0.42 -0.26,-0.1 0.11,-0.28 -0.57,-1.4 -0.63,-0.59 -0.84,-0.48 -0.03,-0.21 -0.23,-0.18 -0.38,-0.07 0.15,0.23 -0.09,0.12 -0.5,-0.37 -0.06,0.1 0.45,0.96 0.5,0.22 0.07,-0.37 0.23,0.17 0.12,0.42 0.3,0.33 -0.09,0.31 0.15,0.45 -0.25,-0.04 -0.41,-0.56 -0.61,-0.38 -0.08,0.18 0.28,0.21 0.23,0.59 -0.46,0.18 0.04,-0.64 -0.43,-0.38 -0.32,-0.56 0.05,-0.22 0.19,-0.11 -0.4,-0.37 -0.35,-0.01 -0.09,0.13 0.24,0.53 -0.29,0.18 0.41,0.39 0.05,0.39 0.39,0.51 0.53,0.46 -0.06,0.23 -1.07,-0.58 -1.93,-0.54 -0.34,-0.54 -0.77,-0.47 -0.55,-0.11 -1,-0.5 -0.81,-0.78 -0.68,0.06 -0.69,-0.97 -0.26,-0.72 -0.67,-0.36 -0.33,0.01 -0.38,-0.3 -0.62,-0.09 -0.66,-1.31 -0.41,0.26 -1.14,-0.24 -0.3,-0.32 0.1,-0.52 -0.08,-0.2 -0.66,-0.08 -0.56,-0.27 0.01,-0.59 0.58,-1.54 1.35,-1.15 1.47,0.08 0.61,0.47 0.12,0.82 1.1,1.07 0.96,0.11 2.2,-0.26 0.81,-0.67 0.96,-1.42 -0.67,-1.92 -3.68,-4.98 -0.93,-2.15 -1.4,-3.48 -0.35,-1.21 -0.69,-4.65 -2.61,-0.05 -1.79,-0.5 -2,-3.2 -0.86,-2.05 -1,-1.75 -2.52,-2.44 -0.99,-0.12 -0.79,0.25 -3.33,0.33 -1.98,0.04 -2.6,-0.82 -2.81,-1.2 0.04,0.79 -0.21,1.58 -0.44,1.63 -3.5,-2.08 -1.12,-1.14 -0.45,-0.78 0.83,-0.43 0.08,-0.18 -1.77,-3.17 -1.03,-1.54 2.36,-1.16 0.39,-0.6 0.71,0.07 0.22,-0.58 -2.15,-0.77 -0.04,-0.53 0.46,-0.95 -0.05,-0.84 -0.19,-0.51 -0.18,-0.25 -1.16,-0.52 -0.41,-0.67 0,0 2.94,0.98 2.28,-0.12 9.89,1.55 17.14,1.91 5.38,1.51 9.52,3.77 -0.15,-3 6.05,0.33 1.06,-0.86 3.27,0.08 3.94,-4.04 10.68,-7.17 1.22,-0.03 1.82,-1.73 0.8,0.4 1.79,-1.1 1.08,-3.39 4.02,-0.28 2.31,-1.06 8.22,1.42 0.52,1.06 -0.67,0.47 -0.15,2.4 6.23,1.42 0.69,-1.22 0.85,-0.12 4.27,2.42 2.09,-0.05 1.37,-0.83 -0.44,-1.44 1.35,-5.73 2.35,-0.1 -0.3,-7.15 1.72,0.76 1.16,-2.7 1.2,0.58 6.75,0.01 3.01,-0.95 -0.51,-1.19 3.76,-3.19 0.67,-0.97 z"
     title="Atyraū oblysy"
     id="KZ-ATY" />
  <path
     d="m 528.45694,135.75271 6.7,2.43 0.08,2.26 0.85,1.31 -0.86,2.64 -0.43,2.31 0.11,3.03 -1.04,0.24 -0.53,1.1 0.84,1.3 -1.44,1.36 2.86,3.15 2.87,-0.75 2.8,-0.23 1.57,-1.32 0.26,0.82 3.18,0.62 1.07,1.34 -1.12,0.87 1.29,3.31 1.36,-3.41 2.72,2.9 1.12,0.05 1.5,2.58 -0.68,0.4 0.53,1.51 2.24,0.89 0.32,1.21 -0.66,0.28 0.29,0.56 -1.05,0.34 -0.2,-0.29 -2.65,1.12 0.03,0.65 -1.24,0.83 0.67,2.29 1.25,-0.06 0.37,0.83 1.95,-0.58 4.02,-2.93 0.94,-1.26 5.7,0.19 0.69,-0.39 0.27,-0.98 0.93,-0.36 0.86,0.92 6.83,-1.88 2.52,1.48 0.92,-0.22 0.9,-2.42 0.45,0.34 1.53,-0.88 2.19,-0.24 2.18,1.3 0.73,-1.28 -0.12,-2.99 1.21,-4.82 2,-1.95 3.75,-0.97 3.44,3.64 4.06,0.16 3.2,2.05 1.15,4.09 -1.55,2.13 2.24,1.6 0,0 -0.44,1.71 -2.86,2.38 -1.53,2.13 -2.75,1.26 -0.86,0.6 -1.77,0.05 -0.54,2.31 0.59,0.88 -0.45,1.82 0.51,1.37 -0.4,1.57 -1.73,2.72 -5.06,1.86 -4.59,2.21 -0.29,1.71 1.56,1.79 -0.05,1 1.64,0.54 2.92,2.41 0.05,1.88 1.57,0.91 1.88,1.96 -1.86,0.79 -0.4,-0.57 -1.62,0.84 0.17,1.15 -0.45,1.92 1.37,2.73 7.96,-1.31 0.8,2.38 -0.82,3.2 0.02,1.24 -3.58,3.68 -1.49,-0.51 -0.99,0.08 -1.01,0.93 0.22,1.52 -1.54,0.47 0.72,1.48 1.68,0.78 0.27,1.28 3.04,-0.08 0.92,0.28 -0.42,1.03 -1.71,0.07 -0.51,1.5 2.5,2.28 1.96,-0.15 1.38,1.1 -3.62,1.32 1.16,1.67 -1.33,0.01 -0.18,2.4 -0.96,-0.04 -0.96,4.09 -1.17,2.59 0.4,1.15 0.44,0.2 1.02,4.4 0.21,1.48 -1.77,-0.78 -1.84,0.29 0.1,2.19 -0.83,2.02 -1.53,0.58 1.74,0.9 1.01,1.72 1.89,1.4 2.89,1.08 0.94,-2.59 1.21,-0.75 2.29,1.12 1.94,-0.87 0,0 0.84,14.68 -5.89,0.66 0.03,1.78 -1.46,0.22 -0.64,-1.64 -1.94,-1.03 -1.93,0.27 -2.05,-1.05 -1.35,0.25 2.1,2.12 -2.95,-1.31 -1.79,-0.53 -1.26,-0.2 -0.61,1.44 -1.77,-0.64 -0.6,0.73 -0.54,-1.63 0,0 -1.33,1.57 -1.12,-0.3 0,0 0.02,-0.82 -6.63,-1.17 -5.94,1.1 -4.63,-0.93 -11.11,6.39 -5.29,4.78 -4.13,4.24 -2.23,2.51 0,0 -1.7,2.81 0,0 -32.12,-0.37 -18.61,0.69 -3.44,-0.25 -15.58,0.4 -27.53,0.06 0,0 -36.76,-0.58 0,0 -0.31,-2.7 -0.94,-0.28 -7.71,0.43 -25.37,-6.89 -3.59,-2 -3.54,-4 -4.05,-0.35 -9.77,-5.26 -2,-0.06 -9.75,-3.81 -0.85,-0.86 -1.88,1.16 -5.76,-3.23 -2.58,0.2 -2.93,-1.97 -2.32,-2.19 -8.03,1.49 5.35,-4.18 0,0 22.92,-16.02 4.31,-4.75 -1.77,-0.79 -3.56,-6.23 0,0 5.49,-4.99 -1.08,-3.48 7.25,-1.6 -1.49,-1.91 0.67,-1.08 -0.73,-1.77 4.12,0.16 1,-7.53 14.99,2.48 1.44,-0.81 1.41,0.19 2.21,-0.78 1.29,-3.17 6.05,-0.22 5.84,-6.44 2.96,-0.35 1.26,-4.43 2.55,0.26 1.04,-2.58 2.97,-2.71 4.1,-2.4 6.47,-7.42 4.32,-5.55 -0.91,-1.84 0.55,-0.6 -0.68,-1.32 0.69,-0.85 3.24,-0.42 3.57,-1.53 1.36,-1.18 0.62,-1.49 1.11,-1.2 -0.33,-0.8 -2.1,-1.18 -0.09,-0.64 -1.11,-0.72 0,0 -0.14,-1.69 -1.3,-1.76 1.15,0.21 2.75,-0.58 1.83,1.43 4.22,-3.17 2.37,-0.85 0.6,-1.11 6.03,-0.17 -0.27,6.81 -0.94,0.57 0.43,2.61 -0.86,1.34 -0.81,3.78 -1.39,1.55 0.67,1.2 1.56,-0.51 0.32,0.79 1.13,0.09 2.52,1.61 2.5,-1.32 0.83,0.7 0.51,-0.08 0.24,-1.38 -0.57,-0.69 0.2,-0.88 0.57,0.69 0.87,0.07 1.6,-1.01 -0.69,-2.24 2.64,-1.44 0.36,1.7 0.59,-0.97 0.51,-0.09 0.73,1.74 0.57,0.69 1.13,0.1 -0.47,2.51 1.15,-0.28 0.86,0.21 0.66,-0.33 0.87,0.08 6.05,-1.75 0.59,1.72 0.91,-0.3 0.41,0.93 -1.73,2.52 -0.08,2.17 1.2,0.62 1.57,-0.74 2.79,-1.78 2.15,-0.29 0.62,-1.22 -1.21,-3.07 4.19,-1.88 1.4,2.45 0.25,-6.4 1.28,-0.26 0.3,-0.48 1.38,0.02 2.57,-1.8 -0.41,-0.94 1.52,-1.26 1.74,0.19 0.63,-1.23 1.39,0.02 0.55,-2.92 2.91,-1.24 -0.04,-0.78 0.9,-0.16 0.28,0.94 1.32,-0.5 0.26,1.07 1.4,-0.1 2.2,1.95 -1.33,1.79 0.59,0.33 0.18,0.67 -0.59,0.84 0.35,1.46 -1.78,2.51 1.21,0.4 0.48,-0.98 4.08,-0.43 2.43,1.85 -0.27,-0.94 1.3,-0.36 -0.43,-2.9 1.44,-0.48 0.77,-1.2 2.23,1.44 1.61,-0.84 -2.11,-1.43 1.41,-1.25 -0.55,-0.72 0.99,-0.92 0.71,0.35 0.12,-1.03 2.81,-0.17 1.31,-1.53 -0.56,-0.59 0.19,-0.5 0.77,-0.17 1.14,-2.08 3.14,1.33 0.79,-1.34 1.67,-0.17 1.08,-0.51 -0.69,-1.67 5.16,-1.67 2.89,-2.76 -2.53,-1.14 -1,-0.14 -1.04,2.23 -0.7,-0.49 0.2,-0.63 -1.2,-2.67 -0.85,-0.38 0.32,-1.55 0.94,-0.4 0.53,0.87 1.59,-0.45 -0.31,-0.57 0.53,-0.19 0.56,1.66 1.26,-1.94 z"
     title="Qaraghandy oblysy"
     id="KZ-KAR" />
  <path
     d="m 378.46694,27.802712 0.71,-0.07 1.53,-0.54 0,0 1,3.79 0.41,0.6 -0.56,0.8 2.21,6.08 -3.73,1.33 3.67,2.3 1.36,0.13 1.06,2.81 -0.55,0.53 -1.76,0.17 -5.08,2.68 2.03,6.52 2.49,-0.54 0.04,5.26 -1.58,1.55 -0.87,1.18 0.85,2.54 3.28,0.35 0.2,8.66 2.93,1.83 -0.49,2.16 -2.85,-0.6 -1.27,1.01 -2.05,-0.14 -0.86,1.04 0.7,3.18 0.96,0.06 0.16,3 -0.41,-0.03 0.13,3.67 -2.07,0.54 -0.24,10.23 0,0 -0.14,7.479998 -2.38,1.99 -0.86,5.01 -0.8,3.53 -5.1,2.62 -3.38,-0.33 0.98,3.37 2.43,0.13 1.77,3.67 -1.64,4.77 0.92,0.71 -2.77,2.47 1.67,2.18 -1.1,0.99 4.14,4.01 -1.28,6.04 0.74,1.59 3.87,-0.44 1.21,-3.95 3.64,2.14 0.22,1.18 -0.05,1.29 0.68,-0.61 -0.04,1.16 0.94,-0.46 0.64,0.55 1.49,-0.7 1.01,4.06 2.41,-0.64 1.54,1.11 5.18,1.84 4.81,-1.4 1.67,0.61 1.27,3.16 -2.16,1.28 2.76,4.27 4.58,-2.91 8.47,-1.1 2.31,-1.76 0,0 1.11,0.72 0.09,0.64 2.1,1.18 0.33,0.8 -1.11,1.2 -0.62,1.49 -1.36,1.18 -3.57,1.53 -3.24,0.42 -0.69,0.85 0.68,1.32 -0.55,0.6 0.91,1.84 -4.32,5.55 -6.47,7.42 -4.1,2.4 -2.97,2.71 -1.04,2.58 -2.55,-0.26 -1.26,4.43 -2.96,0.35 -5.84,6.44 -6.05,0.22 -1.29,3.17 -2.21,0.78 -1.41,-0.19 -1.44,0.81 -14.99,-2.48 -1,7.53 -4.12,-0.16 0.73,1.77 -0.67,1.08 1.49,1.91 -7.25,1.6 1.08,3.48 -5.49,4.99 0,0 -4.19,-8 -3.15,-2.2 -3.17,-1.2 -1.13,-1.27 -6.34,-2.15 -0.74,-2.51 1.29,-1.72 -0.12,-1.12 -2.02,-1.8 -4.2,2.29 -5.42,-5.36 -1.39,-4.81 -2.52,0.23 0.5,-1.39 2.91,-0.47 0.38,0.38 0.64,-0.49 -3.55,-6.01 -1.01,-1.15 1.65,-2.15 2.29,0.79 -0.63,-0.9 -0.63,-3.45 3.07,-1.87 0.28,-3.2 3.1,-2.75 3.08,2.53 0.94,-3.3 -0.38,-1.56 -4.23,-6.32 -0.39,-1.56 -2.57,-4.09 -1.78,-9.06 -2.72,0.85 0.01,-1.84 -0.39,-1.72 2.2,-1.53 -3.5,-3.41 0.65,-2.25 0.65,-0.11 0,-1.2 -2.88,-1.73 -0.52,0.38 -1.03,1.44 -1.58,-0.62 -0.96,-3.23 -0.17,-1.97 -1.36,-2.1 -0.87,1.52 -1.43,0.63 -1.29,-0.63 0,0 0.11,-0.03 -1.79,-1.62 -0.61,-0.72 -0.82,-2.28 -0.53,-0.43 -0.62,-0.17 -1.34,1 -0.6,0.04 -1.21,-0.32 -2.09,-1.45 -0.91,-0.05 -0.26,0.16 -0.45,-0.41 -1.84,0.04 -0.2,-0.88 -0.57,-0.09 -0.23,-0.84 -0.43,-0.63 -0.3,-1.01 0.23,-0.85 -0.12,-0.23 -1.57,-0.17 -4.33,0.06 -1.48,-0.37 -0.92,-0.39 -1.73,-1.45 -0.23,-0.41 2.32,-2.32 0.24,-0.3 -0.06,-0.52 -0.84,-0.26 -1.4,-0.2 -4.33,-2.83 -0.15,0.2 0.19,0.45 0.01,0.56 -0.6,0.05 -0.22,-0.1 -0.76,-0.48 -0.81,-1.16 -0.12,-0.4 -0.02,-0.68 0.25,-1.17 1.29,-0.25 1.88,-0.06 0.82,-0.36 1.04,-0.87 0.97,-1.33 2.48,-2.32 0.74,-0.4 2.07,0.35 0.35,-0.2 0.64,0.02 0.45,-0.19 0.92,-0.83 0.5,-1.15 0.88,-0.07 2.4,-1.26 0.64,-0.88 1.29,-0.89 0.16,-0.26 -0.99,-2.399998 -0.81,-1.4 0,-1.25 -0.1,-0.21 -1.55,-0.14 -0.87,-0.3 -0.11,-0.29 -0.05,-2.94 -0.25,-0.27 -1.55,-0.32 -0.08,-0.34 -0.57,-0.19 0.04,-2.8 0.24,-0.32 1.88,-0.35 0.55,-0.34 0.41,-0.48 0.4,-0.96 2.34,-1.67 1.11,-1.35 -0.23,-0.49 -0.56,-0.56 -0.16,-1.12 0.83,-0.06 0.94,0.37 0.26,-0.61 2.08,-1.37 0.67,0.19 1,1.12 0.94,0.14 0.6,-0.37 1.11,-1.18 0.83,0.25 0.22,0.24 0.43,0.03 0.58,0.37 1.47,1.42 0.41,0.06 1.02,-1.16 0.5,0.13 0.37,-0.18 1.06,-0.03 0.26,0.14 0.95,-0.5 0.31,0.01 1.31,1.62 0.92,0.28 1.01,-0.57 1.5,-1.17 0.04,-1.91 -0.56,-1.67 -0.62,-0.12 -0.89,-0.42 -2.07,0.1 -2.46,-0.98 -0.77,-0.76 -0.66,-1.36 -1.13,-0.82 -0.5,0.16 -0.13,0.79 -0.25,0.19 -2.02,0.09 -1.06,-0.32 -0.6,-0.83 -0.72,-0.57 -0.84,-0.21 -0.96,0.1 -1.16,-0.09 -1.16,-0.74 -0.28,-0.68 -0.21,-2.25 0.33,-0.49 1.18,-1.17 0.2,-1.73 0.23,-0.41 0.85,-0.13 0.52,0.47 0.96,-0.01 0.23,0.33 0.11,0.54 0.46,0.25 0.5,0.03 0.71,-0.11 0.73,-0.37 0.5,-0.55 0.67,-0.35 0.18,-0.8 -0.63,-1.63 -1.03,-0.54 -1.71,0.08 -0.37,0.53 -0.78,0.44 -1.14,-0.21 -2.71,-0.11 -0.67,-0.81 -0.37,-0.17 -0.6,-0.03 -0.74,-0.39 -2.3,-0.15 -0.12,-0.2 0.02,-0.95 0.16,-0.49 1.56,-0.09 0.21,0.28 0.17,0.65 0.2,0.12 0.22,-0.12 0.13,-1.87 0.2,-0.21 1.03,-0.37 0.81,-1.47 0.96,-0.71 0.32,-0.46 0,-0.63 -0.22,-0.54 -1.18,-0.96 -0.19,-0.63 -0.76,-0.23 -0.74,0.19 -0.58,-0.46 -0.76,-0.04 -0.13,-0.52 0.31,-0.6 0.73,-0.75 1.23,0.03 1.11,-0.27 0.57,1.24 0.54,0.27 0.81,-0.06 0.09,-0.22 -0.17,-0.64 0.48,-1.18 -0.62,-1.11 0.22,-0.69 0.84,-0.88 0.13,-0.42 0.48,-0.21 0.76,0.04 0.47,-0.35 1.29,0.17 0.27,0.4 0.4,1.73 0.45,0.4 0.7,0.09 0.52,0.3 0.3,1.09 0.31,0.27 0.54,-1.4 0.34,-0.5 0.85,-0.22 0.69,-0.36 0.24,0.65 0.81,0.84 0.39,-0.3 0.2,-0.55 -0.04,-0.42 0.66,-0.32 0.11,0.19 -0.3,0.4 0.12,0.17 0.57,-0.28 0.54,0.32 -0.62,1.09 -0.03,0.3 1.11,0.3 0.35,0.37 0.63,-0.01 0.88,-0.08 0.29,-0.22 0,-0.51 -0.58,-1.2 -0.18,-0.71 0.29,-0.37 0.43,0.01 0.64,-0.53 0.58,0 0.67,0.53 1.32,0.22 0.37,-0.24 0.26,0.13 1.89,0.05 0.74,-0.39 0.56,-0.04 0.35,-0.28 0.33,0.04 1,0.95 -0.35,0.46 -1.12,0.55 -0.04,0.28 0.59,1.66 0.24,0.35 0.86,0.36 0.64,0.48 0.37,0.02 0.23,-0.45 -0.26,-0.66 0.18,-0.45 0.38,-0.43 0.31,-0.81 0.79,-0.32 0.26,-0.4 0.03,-0.3 0.88,-0.67 0.3,-0.07 0.42,-0.76 0.7,-0.26 0.24,-0.3 0.37,-0.09 0.36,-0.53 -0.13,-0.39 0.09,-0.23 0.68,0.12 1.52,-0.17 0.8,0.31 0.93,0 0.84,0.25 1.15,-0.24 0.51,-0.27 0.28,-0.36 0.15,-0.92 -0.31,-0.69 0.13,-0.4 0.16,-0.16 0.68,-0.13 0.23,-0.23 0.53,-0.03 0.11,0.25 0.26,0.12 0.89,-0.34 2.02,0.32 0.35,-0.19 1.05,-0.18 0.17,-0.26 0.46,0.24 0.2,-0.36 0.31,0.15 1.91,-0.77 0.22,-0.24 0.8,-0.16 0.83,-0.48 1.29,-0.3 0.16,-0.26 0.64,0.11 0.7,-0.36 0.53,0.47 0.29,-0.2 0.28,0.03 0.14,-0.16 0.32,0.22 0.28,-0.11 0.08,-0.6 0.33,-0.48 0.16,0.21 0.28,-0.07 -0.17,0.62 0.06,0.16 0.34,0.06 0.57,-0.49 0.37,-0.71 0.49,0.21 0.34,-0.14 0.39,0.29 0.52,-0.1 0.31,0.08 0.65,-0.54 0.8,0.09 0.64,-0.32 0.73,0.03 0.44,-0.16 1.58,0.19 0.45,-0.23 0.21,-0.38 -0.02,-0.35 0.16,-0.17 0.35,-0.07 0.27,0.22 0.41,0.07 0.37,-0.27 0.38,-0.04 0.57,-0.31 0.08,-0.36 0.41,-0.33 0.5,-0.07 0.24,0.17 1.6,-0.4 0.14,0.22 -0.1,0.15 0,1.11 0.2,0.07 1.06,-0.29 0.93,-0.52 1.2,-0.92 0.8,-0.37 0.33,0.05 0.94,0.69 0.79,0.76 0.87,1.2 2.15,-0.06 0.33,-0.43 0.01,-0.43 -0.53,-2.11 -0.45,-0.68 0.39,-1.25 -0.17,-1.18 0.25,-0.32 1.46,-1.02 1.33,-0.54 0.59,0 1.4,0.39 0.42,-0.12 0.05,-0.53 -0.68,-0.93 0.07,-0.55 0.29,-0.36 0.65,-0.25 1.64,0.45 0.9,-0.02 0.75,0.32 1.14,0.78 0.5,0.06 0.42,-0.22 0.5,-0.64 0.3,-0.82 0.06,-0.61 0.36,-0.72 1.19,-0.56 0.86,-0.08 0.29,0.07 0.21,0.34 -0.39,1.43 0.02,0.89 z"
     title="Qostanay oblysy"
     id="KZ-KUS" />
  <path
     d="m 244.32694,301.88271 0.68,-0.5 0.32,-0.73 0.36,-0.45 0.68,0.36 0.36,0.41 0.63,0.23 0.91,0 0.41,0.77 -0.23,0.91 0.18,1.54 -0.09,1 -0.5,0.63 0.59,1.22 0.41,1.59 0.73,0.45 0.59,0.59 0.32,0.86 0.03,0.77 -9.64,-6.98 0.1,-0.99 0.41,-0.27 0,-0.95 0.23,-0.45 0.63,0 0.54,0.27 0.81,0.03 0.54,-0.31 z m 15.81,-0.72 -2.07,0 0.14,-3.51 1.65,-0.41 3.24,-0.21 2.48,0.28 0.48,1.03 1.86,0.34 2,0.07 0.28,0.48 -5.17,0 -2.76,1.52 -2.13,0.41 z m 40.91,-57.74 1.6,3.05 2.42,-0.37 5.36,6.82 -0.84,1.94 5.59,0.88 0.85,1.22 1.47,-0.47 -5.35,4.19 8.03,-1.5 2.31,2.2 2.93,1.97 2.59,-0.2 5.76,3.22 1.88,-1.16 0.85,0.86 9.75,3.82 2,0.05 9.77,5.26 4.05,0.35 3.54,4 3.59,1.99 25.38,6.89 7.7,-0.43 0.94,0.28 0.31,2.7 -0.27,2.31 3.07,2.37 0.59,1.89 -0.56,1.24 -1.18,1.67 -0.61,2.05 -0.18,2.87 -1.24,4.54 3.69,3.06 3.09,1.32 0.12,19.1 -0.38,0.54 -0.23,1.68 2.07,2.03 1.18,-0.38 2.23,1.25 0.05,0.9 2.23,2.71 5.33,3.81 -1.37,1.36 -0.75,-0.61 -1.18,0.48 -1,1.06 0.41,0.58 0.57,1.48 -0.23,2.88 -0.83,0.4 -1.92,-1.67 0.01,4.22 -1.85,1.89 0.16,0.89 -0.4,2.19 -1.97,0.56 0.58,2.57 0.83,-0.51 -0.31,-1.67 1.07,-0.61 -0.21,1.21 1.13,-0.05 -0.34,1.42 0.75,1.8 1.38,-0.37 -0.08,0.88 -1.9,1.22 -6.44,3.22 -5.19,1.92 -4.86,3.66 -5.47,5.52 -2.73,-1.68 -7.85,8.15 -1.69,-0.41 -0.15,-15.78 -5.28,2.48 -2.79,-8.98 -0.63,-2.55 -4.57,-4.06 -2.36,-2.37 -2.4,-5.3 -0.42,-0.48 -0.67,-0.38 -1.16,0.02 -0.86,0.22 -9.19,4.37 -0.44,0.08 -11.68,-0.74 -7.57,-0.77 -2.73,-0.44 -8.58,1.51 -17.66,3.47 -0.35,-0.03 -0.68,-0.65 -13.56,-16.74 -2.55,-2.57 -0.93,-2.96 -9.1,-6.57 0.97,-0.86 0.59,-0.32 0.68,-1.95 0.27,-1.95 -0.45,-2.08 -0.82,-2.67 -0.77,-0.95 -1.18,-0.09 -0.41,-1.27 -0.86,-0.73 -0.5,-1.68 0,-1.18 0.5,-1.13 -0.05,-3.67 -0.45,-1.63 -0.91,-0.68 0.23,-1 0.73,-1.68 0.09,-1.63 -0.73,-2.9 -0.95,-1.04 -0.14,-1.95 1,-0.68 0.54,-2.85 0.41,-0.54 0.23,-0.97 2.76,-0.68 0.68,-0.95 0.32,-1.22 1.81,-1.68 2.04,-0.36 1.4,-1.27 1.81,-0.68 1.9,-1.13 1.22,-2.08 0.32,-3.31 -0.06,-1.68 -0.75,-0.11 -1.07,0.86 -2.99,-0.53 -2.67,0.11 -1.92,-2.35 0.11,-3.31 0.32,-1.39 -1.39,-0.43 -0.96,-0.85 -2.67,0.11 -0.11,0.96 1.07,0.53 0.96,0.11 1.28,0.96 0,1.28 -0.75,0.43 -0.75,0.86 -1.07,0.53 -1.28,-0.64 -1.5,-0.43 0,3.1 -0.72,0.51 -0.27,-0.94 0.13,-2.67 -0.53,-1.07 -0.94,-0.94 -1.34,0 -4.41,2.94 -0.8,1.07 -0.12,2 0.58,0.72 0.68,1.5 0.45,0.68 1.36,0.59 1.09,0 0.91,-0.45 1.13,-0.32 2.4,-0.18 0.54,1.04 0.86,0.68 1.18,0.41 1.5,-1.04 0.73,-0.91 0.86,-0.18 0.18,1.77 1.54,2.58 -0.04,1.99 -0.41,1.45 -2.08,1.31 -1.09,0 -2.58,0.5 -1.22,-0.41 -1.13,-1.22 -1.04,-0.59 -3.08,-0.63 -1.54,-0.18 -0.86,0.5 -1.77,1.63 -1.36,0.09 -0.63,-0.36 0.36,-1.9 -0.41,-0.68 -0.14,-1.22 0.05,-1.5 -0.77,-0.95 -1.18,-0.23 -3.26,0 -0.63,0.14 0.05,1.09 2.13,3.4 0.5,1.13 -0.36,1.31 0.45,3.44 -0.23,1.36 -0.54,0.91 -0.63,0.32 -0.68,-0.36 -0.82,2.4 -0.72,0.59 -0.86,-0.32 -1.09,0.09 -1.09,0.41 -1.04,0 -0.14,-0.73 0.05,-0.95 0.23,-1.09 1.13,-1.72 0.82,-0.91 0.36,-0.82 -0.82,-0.59 -0.95,-0.5 -0.86,0.5 -1.04,1.04 -1.22,0.09 -1.18,-0.18 -0.54,-0.45 -0.39,-0.15 5.3,-6.52 4.27,-6.41 2.23,-2.45 1.64,-2.56 7.83,-7.27 5.96,-0.49 0.56,-6.16 8.14,0.67 6.68,-17.89 11.81,-2.73 3.31,5.01 z"
     title="Qyzylorda oblysy"
     id="KZ-KZY" />
  <path
     d="m 79.86694,322.54271 0.08,0.11 0.48,-0.29 0.29,0.13 -0.97,0.62 -0.33,0.41 0.09,0.37 -0.15,0.04 -0.16,-0.44 0.22,-0.79 -0.18,-1.13 0.1,-0.12 0.41,0.55 0.12,0.54 z m 1.33,-3.33 0.28,0.08 0.28,-0.16 0.26,-0.24 0.16,-0.53 0.17,0.7 0.26,-0.21 0.08,0.17 -0.14,1.24 0.11,0.41 0.88,0.45 -1.03,-0.22 -0.14,0.27 -0.62,0.14 -0.02,-0.22 0.45,-0.39 -0.53,-0.2 0.3,-0.52 -0.06,-0.31 -0.66,-0.04 -0.82,-0.98 -0.03,-0.22 0.5,-0.46 0.08,0.12 -0.3,0.4 0.54,0.72 z m -12.02,-3.33 0.72,0.18 0.39,0.36 -1.02,0.14 -0.48,0.64 -0.05,0.76 0.28,0.7 0.1,0.86 0.24,0.37 0.23,0.03 0.12,-0.3 0.09,0.1 -0.24,0.75 0.48,0.69 1.16,0.58 1.04,-0.4 0.16,0.04 0.06,0.15 -0.38,0.82 -0.12,0.02 -0.28,-0.33 -1.4,-0.2 -0.63,-0.37 -0.76,-1.21 -0.65,-2.19 0.43,-1.33 0.03,-0.65 0.48,-0.21 z m 5.2,-0.4 0.78,0.13 0.26,0.7 -0.15,0.74 0.17,0.54 -0.51,0.9 -0.02,0.49 -0.19,0.4 -0.44,0.31 -0.29,0.03 -0.4,0.44 -0.13,0.3 0.16,0.42 -0.14,0.11 -0.23,-0.19 -0.13,-0.56 0.1,-0.27 -0.14,-0.59 0.27,-0.58 -0.03,-0.46 -0.11,-0.27 -0.46,-0.39 0.09,-0.54 -0.3,-0.61 0.43,-0.52 0.69,0.05 0.72,-0.58 z m 44.97,-12.35 0.14,0.02 0.15,-0.28 0.21,-0.06 0.23,0.17 0.53,1.42 0.02,0.61 0.24,0.56 -0.11,0.38 0.11,0.6 -0.04,0.13 -0.67,0.06 0.27,0.4 -0.05,0.11 -1,-0.4 -0.21,-0.61 -0.51,-0.77 -0.67,-0.65 -0.27,-0.47 0.21,-0.31 0.92,-0.72 0.05,-0.12 -0.32,-0.3 -0.03,-0.26 0.49,0.2 0.31,0.29 z m 3.35,-7.15 4.45,1.1 2.62,0.14 0.62,-1.55 3,0.4 1.3,-0.86 1.39,-0.19 2.35,-1.01 1.97,-1.19 1.26,-1.21 -2.04,-1.2 4.42,-3.29 1.05,-2.01 -0.27,-1.24 3,0.37 0.39,-0.64 1.38,-0.32 1.19,0.06 1.26,-0.3 1.8,-0.72 2.94,-0.07 3.72,-1.45 7.68,-0.8 2.15,0.3 4.58,-4.54 2.35,3.33 1.26,0.78 0.57,-0.18 0.3,-0.5 0.56,-0.3 0.95,0.13 0.67,2.01 -0.31,1.54 0.32,0.89 1.45,0.42 1,0.59 0.99,-0.68 0.86,0.38 0.51,1.56 2.06,0.62 1.34,-0.69 0.91,0.85 1.52,-0.11 1.74,1.04 0,0 1.76,4.85 2.78,20.57 0,0 -13.76,4.52 0.05,97.63 -2.58,-0.1 -1.14,1.14 -0.56,-0.43 -0.28,-0.06 -1.88,0.35 -0.73,0.37 -0.2,0.55 -0.23,0.19 -0.28,-0.22 -0.15,-0.46 -0.35,-0.44 -0.2,0.09 -0.01,0.54 -0.37,0.26 -0.4,-0.1 -0.98,-0.58 -1.14,-1.04 -1.3,-1.66 -1.11,-0.9 -0.88,-1.2 -1.79,-2.95 -1.45,-3.42 -0.91,-1.34 -1.08,-1.06 -0.3,-0.48 -0.08,-0.53 0.18,-1.79 -0.88,-1.27 -1.49,-1.66 -7.42,-5.25 -3.23,-2.13 -0.95,-0.57 -0.95,-0.37 -4.57,0.14 -7.13,1.14 -3.22,0.88 -5.6,2.47 -1.92,0.66 -1.42,0.93 -6.42,5.76 -3.63,3.01 0.03,-0.52 0.83,-1.96 0.11,-1.22 -0.03,-0.84 -0.26,-1 -0.79,-1.06 0.15,-1.13 -0.47,-0.5 0.29,-2.04 0.36,-0.72 1.38,-1.68 0.87,-1.51 1.75,-4.42 0.42,-2.08 -0.22,-1.19 -0.48,-0.93 -1.64,-1.87 -0.11,-0.34 0.37,-0.56 -0.08,0.5 0.23,0.51 1.03,0.82 0.73,0.98 0.6,1.63 0.49,-0.53 0.25,-0.68 0.11,-1.39 -0.18,-1.36 -0.39,-0.32 -0.86,-0.01 -0.42,-0.37 -0.67,0.28 0.29,-0.48 -0.42,-1.14 -2.68,-0.79 -0.8,-0.13 -1.55,0.23 -0.69,0.5 -0.41,0.64 -0.12,-0.01 -1.07,-1.75 -0.57,-0.4 -0.41,-0.1 -0.69,0.03 -0.32,-0.12 -1.11,0.17 -1.53,0.46 -1.18,0.59 -0.4,-0.01 -0.35,-0.33 -1.26,-2.04 -0.14,-0.51 -0.72,-1.12 -0.32,-1.18 -2.24,-2.12 0.24,-0.26 0.05,-0.48 -0.4,-1.25 -0.98,-0.09 -1.86,0.38 -0.24,0.26 -1.09,-0.05 -2.63,0.43 -0.54,-0.16 -0.08,-0.42 0.14,-1.16 0.78,-3.27 0.07,-2.13 -0.15,-1.46 -0.32,-0.56 -0.13,-0.93 -0.39,-0.96 -0.9,-0.85 -0.15,-0.47 -0.62,-0.4 -0.23,-0.08 -0.15,0.18 -0.11,-0.09 -0.75,-1.27 -0.96,-2.24 -0.85,-1.04 -0.73,-3.94 -0.94,-1.38 -0.25,-0.24 -0.79,-0.19 -0.38,-0.46 0.15,-1.78 -0.28,-1.27 -0.62,-1.56 -1,-0.98 -2.09,-0.94 -1.47,-0.37 -3.62,-0.28 -1.2,-0.5 -1.39,-0.96 -0.58,-0.93 -0.09,-0.38 -0.05,-3.89 -0.26,-1.15 0.02,-0.1 0.5,0.82 0.02,0.38 0.24,-0.05 0.95,-2.76 0.74,0.12 0.38,-0.09 0.22,0.22 0.6,-0.05 0.87,0.35 1.09,-0.09 0.9,0.15 0.64,-0.33 0.71,0.57 2.02,0.17 0.9,-0.16 0.36,-0.6 0.26,-0.06 0.41,0.28 1.37,0.4 0.55,0.85 0.19,0.03 0.2,0.44 0.45,0.21 0.52,-0.1 -0.24,0.46 0.23,0.56 1.74,1.2 2.07,0.04 0.61,-0.49 0.44,-0.62 0.45,-0.25 0.16,-0.45 1.68,-0.44 0.23,-0.01 0.09,0.19 -0.27,0.43 0.03,0.19 0.21,-0.08 0.54,0.6 0.43,-0.1 0.21,-0.2 0.02,-0.32 1.04,0.46 0.64,-0.23 0.14,-0.22 -0.19,-0.44 -0.74,-0.59 -1.15,-0.51 -2.42,0.02 -0.76,0.21 0.02,-0.34 0.33,-0.33 -0.07,-0.37 -0.5,0.34 -0.09,-0.1 0.04,-0.93 -0.56,-1.14 -1.06,-1.54 -0.64,-0.23 -1.04,-0.98 -0.95,-0.49 -0.03,-0.17 -0.59,-0.5 -0.36,-0.14 -0.05,0.34 -0.44,0.23 -0.79,-0.08 -0.8,0.13 -0.69,-0.4 -0.05,-0.27 0.73,0.25 -0.2,-0.3 0.11,-0.49 0.28,-0.41 -0.33,-0.25 -0.01,-0.45 1.58,-2.19 0.26,-0.17 0.83,-0.38 0.3,-0.03 0.51,0.24 0.2,-0.08 1.59,-1.64 0.67,-0.35 0.35,0.03 0.67,0.38 0.37,0 0.14,-0.77 -0.23,-2.15 0.2,-0.99 0.14,-0.33 0.28,-0.22 0.23,-0.99 0.64,-1.08 0.47,-0.36 0.26,-0.52 0.4,-0.1 0.67,-0.95 0.31,-0.2 0.4,0.56 0.23,0.11 1.65,-0.09 0.65,-0.17 0.22,-0.34 0.69,-0.19 1.35,-0.82 0.18,-0.44 0.67,-0.85 0.39,0.03 0.13,0.26 0.4,0.23 0.25,-0.19 0.62,0.42 1.07,0.12 0.72,0.54 0.37,0.07 1,-0.1 1.05,-0.42 0.74,-0.02 0.99,0.32 1.45,-0.21 1.29,0.02 0.58,-0.11 0.87,-0.41 0.57,0.02 1.15,-0.3 0.86,0.33 1.71,0.08 0.26,0.27 0.32,0.76 0.78,0.59 0.89,0.1 0.28,-0.05 -0.01,-0.26 1.24,0.6 0.7,0.04 0.01,-0.27 -1.33,-0.61 0.27,-0.1 0.08,-0.28 -0.23,-0.36 -0.03,-0.51 -0.4,-0.51 -0.11,-0.39 -0.01,-0.73 0.18,-0.26 1.03,0.44 0.95,0.72 1.01,0.16 0.81,0.96 0.94,0.66 0.13,-0.16 -0.89,-0.81 -0.95,-1.46 -0.29,-0.12 -0.73,0.08 -0.39,-0.61 -1.22,-0.58 0.12,-0.32 0.45,-0.27 -0.19,-0.31 0.34,-0.22 0.74,-0.3 0.58,-0.08 0.69,0.16 0.11,-0.12 -0.42,-0.78 0,-0.45 -0.34,0.1 -0.41,0.7 -0.92,0.43 -0.43,0.35 -0.15,-0.09 0.11,-0.32 -0.22,-0.15 0.09,-0.5 -0.6,-0.08 0.51,-0.14 -0.35,-0.18 -0.01,-0.17 0.63,-0.55 0.41,-0.08 -0.04,-0.41 0.69,-0.07 0.22,0.41 0.69,0.42 0.16,-0.04 -1.09,-1.48 -0.95,-0.75 0.48,-0.13 0.4,-0.39 -0.05,-0.24 -0.34,-0.01 0.01,-0.25 0.53,-0.13 0.07,0.16 0.23,-0.1 0.02,0.14 0.19,0.03 0.33,-0.16 0.2,-0.29 -0.5,0.1 -0.86,-0.55 z"
     title="Mangghystaū oblysy"
     id="KZ-MAN" />
  <path
     d="m 588.01694,36.022712 0.88,-0.04 0.42,0.23 0.22,0.36 0.18,1.44 -0.62,0.95 0.14,1.1 -0.08,0.43 -0.8,0.91 -0.85,0.47 -0.17,1.08 -0.6,0.23 -1.23,0.9 -0.37,-0.18 -0.52,-0.96 -0.66,0.26 -0.45,-0.05 -0.81,-0.48 -1.02,-0.12 -0.41,0.01 -0.18,0.13 -0.07,0.55 0.16,0.66 1.29,1.74 0.17,1.38 0.79,1.47 4.17,4.05 15.68,12.69 5.6,5.37 1.02,1.2 3.51,5.81 3.06,4.64 3.63,6.59 0.14,-0.14 2.2,4.26 -0.16,0.11 6.29,11.119998 1.15,2.68 1.72,2.66 0.24,0.67 0.78,1.07 1.32,2.62 0.17,-0.1 0.19,0.37 -0.15,0.12 1.54,3.24 0.38,0.38 -0.02,0.27 1.94,4.05 0,0 -1.46,0.17 -0.52,3.05 -2.98,0.76 0.52,1.7 -2.51,2.46 -0.54,-0.65 -3.89,0.57 0.09,1.86 1,-0.17 -0.3,1.25 0.18,1.48 -1.01,-0.35 -3.98,2.53 -2.46,0.77 -0.44,-1.01 -1.19,0.53 -0.25,1.12 -2.1,1.12 -0.45,-0.36 -1.66,1.61 2.33,3.37 0.53,3.1 1.48,0.45 0.9,1.36 1.58,1.24 1.3,0.67 4.02,2.67 -0.7,6.81 1.84,0.52 0.56,3.96 -1.33,1.38 -3.34,6.07 -2.68,1.23 -3.15,-0.78 -8.35,-3.48 -1.15,-2.02 -1.29,0.76 0,0 -2.24,-1.6 1.55,-2.13 -1.15,-4.09 -3.2,-2.05 -4.06,-0.16 -3.44,-3.64 -3.75,0.97 -2,1.95 -1.21,4.82 0.12,2.99 -0.73,1.28 -2.18,-1.3 -2.19,0.24 -1.53,0.88 -0.45,-0.34 -0.9,2.42 -0.92,0.22 -2.52,-1.48 -6.83,1.88 -0.86,-0.92 -0.93,0.36 -0.27,0.98 -0.69,0.39 -5.7,-0.19 -0.94,1.26 -4.02,2.93 -1.95,0.58 -0.37,-0.83 -1.25,0.06 -0.67,-2.29 1.24,-0.83 -0.03,-0.65 2.65,-1.12 0.2,0.29 1.05,-0.34 -0.29,-0.56 0.66,-0.28 -0.32,-1.21 -2.24,-0.89 -0.53,-1.51 0.68,-0.4 -1.5,-2.58 -1.12,-0.05 -2.72,-2.9 -1.36,3.41 -1.29,-3.31 1.12,-0.87 -1.07,-1.34 -3.18,-0.62 -0.26,-0.82 -1.57,1.32 -2.8,0.23 -2.87,0.75 -2.86,-3.15 1.44,-1.36 -0.84,-1.3 0.53,-1.1 1.04,-0.24 -0.11,-3.03 0.43,-2.31 0.86,-2.64 -0.85,-1.31 -0.08,-2.26 -6.7,-2.43 0,0 2.1,-2.48 0.29,-2.22 4.33,-2.83 1.98,0.56 0.76,-0.95 1.04,-0.11 0.48,-0.73 -1.9,-1.09 -2.29,-0.21 -0.99,-2.29 -3.56,1.75 0.1,-5.89 0.61,-0.72 2.73,-2.15 1.19,-0.23 -0.41,-0.87 -0.45,-19.959998 -1.02,-0.15 -0.06,-0.56 0,0 -0.11,-1.26 -3.63,-0.27 -0.99,-2.62 0.4,-1.19 0.9,1.24 1.42,0.21 0.83,1.78 0.96,-0.41 -0.27,-3.08 1.24,-0.5 -0.19,-1.69 0.99,-0.53 -1.09,-2.95 -1.92,0.67 -0.89,-0.28 -1.17,3.16 -2.63,0.04 -0.49,-2.57 1.38,-1.62 -0.64,-1.35 -2.15,1.51 -0.47,-0.49 1.16,-0.95 0.74,-1.85 1.11,-1.66 -0.13,-1.15 1.12,-0.54 -0.06,-0.71 1,-0.54 -0.91,-1.42 -1.01,0.68 -0.31,-0.75 -1.11,0.41 -0.07,0.7 -2.78,2.43 -0.48,-2.89 0.45,-3.07 1.64,0.8 0.74,-0.76 -1.6,-2.53 -1.01,-2.26 0,0 2.52,-2.47 0.33,-1.46 1,0.25 0.49,-2.12 1.36,0.16 1.72,1.08 1.35,-2.03 3.32,0.75 -0.2,2.26 1.7,0.16 0.36,-1.69 1.4,0.3 -0.2,0.67 0.7,0.28 -0.01,1.29 0.35,0.21 0.06,0.23 -0.13,0.75 2.37,0.89 1.57,-3.87 -0.84,-0.49 0.58,-2.89 3.29,0.54 0.87,-2.93 1.1,0.18 0.56,-0.28 0.32,-0.56 0.29,-1.28 0.17,-0.14 0.66,0.24 2.63,-0.02 0.27,0.16 0.42,0.79 0.44,-0.21 2.31,-1.83 1.14,-1.08 0.87,-0.39 2.36,-1.83 1.36,-0.73 0.56,-0.68 -0.01,-0.68 -1.65,-2.36 2.58,-1.33 1.37,0.58 0.22,-0.04 11.93,-5.56 0.08,-0.29 -0.5,-0.62 0,-0.19 0.55,-1.62 0.17,-0.05 2.03,0.91 2.1,0.17 0.94,-0.05 1.05,-0.69 1.82,0.04 1.1,-1.13 0.52,-1.23 1.03,-0.09 1.36,-0.82 1.06,-0.44 0.35,0.05 0.13,0.86 -0.08,0.15 -2.94,1.6 z"
     title="Pavlodar oblysy"
     id="KZ-PAV" />
  <path
     d="m 440.10694,2.2427119 0.49,1.17 0.25,0.13 1.26,-0.33 1.3,-0.6 0.83,-0.12 0.65,0.11 1.6,0.74 0.56,-0.23 1.45,-0.09 1.46,0.26 2,1 1.17,0.38 0.59,0.39 0.43,0.54 0.69,2.02 0.43,0.41 0.99,0.38 1.14,0.15 1.59,1.6600001 0.33,0.15 1.31,0.04 0.33,-0.17 1,-1.1300001 2.13,-0.92 0.29,-0.35 0.68,-1.92 0.48,-0.51 0.76,0.01 1.26,0.73 1.03,0.02 0.38,-0.16 0.6,-0.68 0.45,-0.2 1.94,-0.38 0.36,0.07 0.19,1.38 0.46,0.93 0.7,1.39 0.8,0.73 0.26,1.2000001 0.69,0.7 0.67,1.3 0.14,0.84 -0.16,2.3 0.13,1.21 -0.42,1.02 -0.07,0.85 0.08,0.33 0.92,1.31 0.07,1.63 0.16,0.59 0.65,1.27 0.87,0.93 1.93,0.5 1.18,0.93 0.09,0.27 0.02,1.34 -1.52,0.47 -0.35,0.28 -0.15,0.32 -0.2,1.51 0.11,1.4 0.27,1.82 0.47,1.63 -0.17,1.34 -0.4,1.02 -0.17,0.14 -0.31,-0.02 -1.69,-0.33 -1.19,-0.63 -0.16,0.03 -0.12,0.24 0.01,1.27 0.14,0.3 0.35,0.28 1.01,0.25 0.2,0.33 0.12,0.74 -0.71,0.96 -0.07,0.29 0.22,0.34 0.58,0.35 0.3,0.36 0.28,0.63 0.12,1.11 0.3,0.26 0.71,0.21 0.23,-0.08 1.46,-1.27 0.45,-0.95 0.87,-0.18 2.86,0.9 0.19,0.44 -0.13,0.77 0.2,0.36 1.36,-0.26 1.37,0.46 0.45,-0.34 0.82,-0.23 0.5,-0.61 -0.02,-0.62 -0.39,-1.15 0.35,-1.2 0.46,-0.67 2.53,0.32 2.44,0.54 0.69,0.57 0.05,0.65 0.69,0.39 -0.06,0.63 1.36,0.77 0.15,-0.05 0.31,-0.5 0.13,-1.22 -0.64,-0.68 -1.51,-0.8 0.28,-1 0.57,-0.96 -0.49,-0.79 -0.91,-0.71 -0.33,-0.75 0.09,-0.15 0.42,-0.1 1.42,0.02 0.76,0.17 1.67,1.28 0.39,1.2 -0.14,0.92 0.9,0.57 -0.46,1.43 0.19,0.22 1.73,1.13 1.84,0.51 0.06,0.94 -1.19,-0.26 -0.32,0.41 -0.94,0.05 -0.12,0.54 0.37,0.55 -0.02,0.37 0.73,0.57 0.02,0.16 -0.82,2.81 1.01,1.09 0.99,0.34 0.25,-0.13 0.79,-1.91 0.39,-0.59 3.26,1.32 -0.21,-1.42 -0.9,-1.77 -0.94,-0.19 -0.83,0.05 -0.36,0.26 -0.67,-0.13 0.46,-2.07 0.86,-0.43 0.24,-0.38 3.52,0.31 0.65,0.11 0.49,0.49 2.71,0.27 -0.06,1.47 1.26,0.2 0.52,1.7 0.29,0.18 2.26,0.48 1.53,0.51 0.18,0.24 2.18,-0.08 0.15,-0.25 -0.13,-0.67 0.14,-0.21 0.62,0.23 0.79,0.67 0.87,0.43 0.16,-0.08 0.04,-0.26 -0.51,-1.18 0.01,-0.34 1.5,-0.5 0.82,-0.69 0.2,-0.46 -0.27,-0.51 0.11,-0.1 1.15,0.12 0.04,0.36 1.08,0.19 -0.51,3.43 -0.64,2.89 -4.39,-0.66 -0.65,1.21 0.48,1.05 -0.66,0.31 -1.43,0.29 0.23,0.95 -0.6,2.56 -1.36,0.22 0.02,1.03 0.42,0.08 0.02,0.12 -0.7,2.31 2.06,0.74 0.21,0.38 0.71,0.22 0.01,0.56 -0.42,1.22 0.34,0.41 1.05,0.59 0,0 1.01,2.26 1.6,2.53 -0.74,0.76 -1.64,-0.8 -0.45,3.07 0.48,2.89 2.78,-2.43 0.07,-0.7 1.11,-0.41 0.31,0.75 1.01,-0.68 0.91,1.42 -1,0.54 0.06,0.71 -1.12,0.54 0.13,1.15 -1.11,1.66 -0.74,1.85 -1.16,0.95 0.47,0.49 2.15,-1.51 0.64,1.35 -1.38,1.62 0.49,2.57 2.63,-0.04 1.17,-3.16 0.89,0.28 1.92,-0.67 1.09,2.95 -0.99,0.53 0.19,1.69 -1.24,0.5 0.27,3.08 -0.96,0.41 -0.83,-1.78 -1.42,-0.21 -0.9,-1.24 -0.4,1.19 0.99,2.62 3.63,0.27 0.11,1.26 0,0 -7.52,-0.56 -1.39,-2.67 -1.45,0.07 -0.24,-1.28 -2.64,0.06 -3.72,-1.89 -2.49,1.06 -0.54,-5.75 -0.82,-0.93 -0.01,-2.37 -0.41,-1.03 -0.66,0.06 -0.63,0.9 -2.1,0.02 -1.81,0.9 -0.83,-0.78 -3.75,0.83 -0.91,2.38 -4.6,0.35 -5.67,-0.71 -0.26,-1.26 -0.94,-1.06 -0.02,-1.1 1.24,-0.56 -0.62,-1.71 0.63,-2.28 0.78,-1.17 -4.03,-4.38 0.12,-1.23 -1.98,-0.05 -0.65,1.31 -1.21,0.17 -0.46,0.64 -0.54,0.09 -0.73,0.76 -1.72,-0.02 -0.21,-0.58 -3.14,-0.56 0.29,-1.9 -0.26,-0.02 0.08,-0.96 -8.21,0.23 -0.47,2.71 -1.76,0.26 0.36,2.36 -1.89,0.25 -0.29,-1.54 -1.98,-2.5 -0.1,-0.56 -0.68,-0.05 -0.3,0.52 -3.8,0.1 0.58,-0.51 -0.08,-0.96 0.82,-0.07 -0.22,-0.85 0.84,-0.48 -0.17,-1.8 -1.39,0.57 -2.41,-0.61 -0.44,0.65 -0.66,-0.33 0.47,-1.06 -0.22,-3.33 -1.07,-0.37 -0.19,-1.54 -4.22,-0.07 -0.73,0.78 -0.95,0.06 -0.46,0.93 -1.08,-0.23 -0.36,1.63 -0.82,0.08 0.33,1.54 1.08,0.23 -0.63,1.46 -1.34,-0.38 -0.05,-1.52 -0.35,-1.13 -0.81,-0.21 -0.23,-0.84 -1.22,-0.24 -0.06,-1.39 -1.91,-0.15 0.06,1.67 -2.74,0.2 -0.09,-0.98 -1.91,-0.14 -0.17,0.81 -1.5,-0.11 0.64,1.01 -0.16,0.54 0.52,0.59 -0.44,0.52 -2.86,-0.08 0.06,1.65 0.95,-0.06 -0.6,1.19 -0.51,-0.59 -0.99,0.75 -0.04,0.82 -0.56,0.23 -0.82,0.08 -0.59,0.91 1.4,2.03 0.09,1.1 1.07,0.36 0.61,1.27 2.17,0.17 -0.25,2.3 1.35,0.11 0.34,1.11 -0.07,1.36 -0.69,0.22 1.14,1.58 -2.99,2.76 0.92,3.19 -1.07,-0.22 1.65,1.88 -1.66,0.83 -0.53,-0.18 -0.86,0.88 -0.67,-0.05 -0.33,1.19 -0.81,0.08 -1.39,0.84 -0.37,1.86 -0.54,0.09 -0.49,1.58 -2.14,-0.29 -0.83,0.48 -0.76,1.69 -2.83,-0.06 0.43,2.18 1.19,0.48 0.22,0.95 -2.43,2.649998 -0.77,-0.59 -0.59,1.03 0.5,0.7 -1.13,1.12 -0.53,-0.3 -2.05,-1.88 -2.77,-1.12 -1.14,-1.42 -4.32,0.12 0.22,6.69 -4.11,-1.46 -1.24,0.71 -2.15,-0.27 -1.97,-1.06 -6.23,0 -0.14,-3.08 -3.7,0.57 -2.9,1.29 -1.65,-3.46 -3.13,-0.189998 0,0 0.24,-10.23 2.07,-0.54 -0.13,-3.67 0.41,0.03 -0.16,-3 -0.96,-0.06 -0.7,-3.18 0.86,-1.04 2.05,0.14 1.27,-1.01 2.85,0.6 0.49,-2.16 -2.93,-1.83 -0.2,-8.66 -3.28,-0.35 -0.85,-2.54 0.87,-1.18 1.58,-1.55 -0.04,-5.26 -2.49,0.54 -2.03,-6.52 5.08,-2.68 1.76,-0.17 0.55,-0.53 -1.06,-2.81 -1.36,-0.13 -3.67,-2.3 3.73,-1.33 -2.21,-6.08 0.56,-0.8 -0.41,-0.6 -1,-3.79 0,0 4.77,-1.83 6.06,-1.49 1.52,0.28 0.9,-1.19 0.31,-0.17 2.99,-0.44 1.88,0.15 0.79,-0.84 1.39,-0.16 2.32,-0.56 0.22,-0.23 0.19,-1.06 0.24,-0.26 0.43,0.05 0.86,0.5 2.05,-0.07 1.29,0.48 0.51,-0.16 0.41,-0.32 0.73,-0.01 2.43,-1.01 0.3,-0.59 0.29,-1.41 0.3,-0.44 0.64,-0.53 0.5,-0.2 0.8,0.04 2.22,1.1 1.48,-0.38 1.98,-0.12 0.29,-0.3 -0.21,-0.7 0.26,-1.18 0.53,-0.81 0.8,-0.76 -0.55,-0.49 -0.24,-0.47 -0.85,-0.99 -0.16,-0.32 0.15,-0.7700001 -0.5,-0.79 0.02,-0.17 1.48,-0.03 0.72,-0.32 0.28,0.07 0.73,0.6 0.25,-0.1 0.29,-0.41 0.33,-0.12 1.83,0.21 1.87,-0.4 0.41,0.41 0.34,0.03 0.32,-0.59 0.26,-1.51 0.19,-0.32 0.55,-0.26 0.36,-0.4 0.16,-0.76 0.3,-0.45 -0.06,-0.85 0.44,-0.51 0.36,-0.12 0.93,0.2 3.1,2.07 0.41,0.13 0.22,-0.2 0.16,-0.46 -0.29,-1.15 -0.55,-0.62 -0.31,-0.06 -0.48,0.23 -0.18,-0.13 -0.09,-1.41 0.16,-0.65 0.49,-0.44 0.71,0.02 1.35,0.41 1.62,1.02 z"
     title="Soltüstik Qazaqstan oblysy"
     id="KZ-SEV" />
  <path
     d="m 641.68694,130.35271 0.39,0.62 1.33,3.15 3.03,6.03 0.18,0.62 2.44,4.91 0.35,1.02 0.15,-0.39 0.25,0.7 1.32,2.31 0.82,1.79 -0.27,-1.93 0.09,-0.9 0.3,0 0.14,0.55 1.95,-0.01 -0.04,-1.71 0.18,-0.56 0.75,-0.09 0.24,-0.55 1.38,-0.04 0.05,-0.2 0.27,-0.07 0.74,0.03 1.03,-1.17 0.76,-0.01 -0.07,-0.59 0.26,-1.16 -0.01,-1.52 -0.07,-0.63 -0.75,-0.79 0.09,-2.44 0.62,-0.14 2.91,0.11 0.16,-0.48 0.01,-1.35 0.3,-0.84 0.48,-0.46 2.2,0.65 0.69,0.28 0.57,0.45 1.05,0.22 -0.12,0.36 0.23,0.29 1.75,0.65 1,0.76 0.48,-0.32 0.5,-0.8 0.44,0.16 0.39,0.59 0.01,1.19 -0.42,1.94 -0.91,1.45 -0.11,1.03 -0.28,0.73 0.09,1.12 1.88,0.06 3.19,-1.21 1.33,0.02 0.08,0.41 0.17,0.02 0.07,0.16 0.03,0.8 0.31,0.13 0.18,0.84 -0.42,0.57 0.25,0.5 0.44,0.08 0.57,1.49 0.03,0.38 -0.57,1.18 -0.01,0.6 0.58,0.14 2.71,0.12 2.8,-0.54 0.13,-0.09 0.09,-1.21 0.11,-0.09 0.28,0.15 -0.03,0.51 1.34,-0.78 2.43,0.35 0.39,0.17 1.58,1.38 1.01,0.31 1.08,-0.11 0.38,-0.21 0.59,-0.73 0.29,-0.08 0.9,0.09 0.92,-0.16 0.81,0.23 0.8,0 1.14,0.43 0.63,0.03 0.36,-0.11 1.97,-1.26 0.83,-0.85 0.19,-0.44 0.02,-1.49 0.3,-1.33 0.78,-0.22 1.72,0.7 1.12,0.27 1.05,0.07 0.51,-0.31 0.33,-0.56 1.41,-1.38 0.21,-0.54 -0.13,-0.74 0.26,-0.15 0.52,0.07 0.22,0.24 0.36,0.1 0.27,0.65 0.12,0.11 0.17,-0.05 0.22,0.37 0.88,-0.67 1.13,-0.11 1.72,0.41 0.54,-0.42 -0.39,0.54 0.14,0.34 1.42,0.62 0.7,-0.09 1.06,0.25 1.12,0.52 1.37,1.19 1.45,0.16 0.55,0.2 0.38,0.26 2.56,2.9 0.31,1.88 0.2,0.36 1.26,1.37 0.6,1.14 0.15,0 0.91,0.84 1,1.42 0.9,0.86 0.28,0.52 0.11,0.42 -0.53,0.91 -0.03,0.57 0.92,2.87 -0.03,0.44 -0.41,0.9 0.01,0.35 0.53,0.99 1.2,1.37 0.23,0.14 1.44,-0.06 0.96,-0.83 0.34,-0.03 1.59,1.45 0.64,0.3 1.45,0.3 0.52,0.34 0.81,0.82 0.38,0.18 1.15,0.11 0.29,0.41 0.09,0.73 1.41,0.03 0.49,0.15 1.28,1.05 0.54,0.86 0.16,0.74 -0.23,0.28 -0.45,-0.3 -0.21,0.24 0.06,0.44 -0.27,0.66 0.07,1.15 0.29,0.58 0.39,0.28 1.72,0.52 0.26,0.67 0,0.67 1.52,2.77 0.17,0.59 0.06,0.73 -0.27,1.15 0.09,0.38 0.26,0.46 0.82,0.36 0.46,0.75 0.92,-0.09 0.54,0.36 0.21,0.41 0.66,-0.21 0.43,0.31 0.38,-0.31 0.25,-0.51 0.75,-0.32 1.16,-0.05 1.22,0.42 0.72,0.84 0.45,0.13 1.53,-0.41 0.63,0.16 0.79,0.51 1.8,-0.18 0.23,0.05 0.23,0.3 -0.26,1.1 0.1,0.25 0.87,0.33 1.05,-0.8 0.55,-0.15 0.84,0.04 1.07,1.62 0.17,0.03 0.68,-0.6 -0.21,-0.96 0.81,-1.05 -0.06,-0.84 0.12,-0.18 2.35,-0.84 1.3,-0.82 1.16,-1.61 1.08,-0.73 0.4,-0.64 0.44,-0.1 0.45,-0.42 0.29,-0.52 -0.3,-0.51 0.11,-0.4 3.68,0.01 0.05,0.27 -0.74,1.53 0.02,0.49 0.28,0.47 -0.57,0.49 -1.07,0.6 -0.58,-0.18 -0.92,1.17 -0.03,0.83 0.28,0.95 0.44,0.45 1.02,-0.17 1.79,0.84 0.05,0.14 -0.38,0.38 0.75,0.62 -0.31,1.01 0.11,0.67 1.85,1.05 0.15,1.23 -0.26,0.36 -0.02,0.3 0.57,0.68 0.21,0.72 0.47,0.22 0.67,-0.05 0.71,1.22 2.95,0.26 1.53,0.93 0.25,0.38 0.61,2.58 0,0.49 -0.31,-0.05 -0.53,-0.41 -0.92,0.03 -0.59,-0.59 -1.1,-0.49 -3.22,1.49 -0.89,0.02 -0.72,-0.44 -0.27,0 -0.52,0.54 -0.31,1.36 -1.47,0.93 -0.45,0.56 -0.14,0.27 -0.05,0.84 0.26,1.4 1.49,1.89 0.01,0.65 -1.01,0.76 -0.14,0.24 -0.1,0.61 0.44,0.84 -0.12,0.88 -1.2,1.36 -0.31,0.87 -0.27,0.21 -0.73,0.2 -0.24,0.88 -0.37,0.44 -0.27,1.07 -0.91,0.19 -2.1,1.23 -0.85,-0.45 -0.45,0.2 -0.94,0.06 -0.82,1.07 -1.19,0.84 -0.96,-0.01 -2.91,-0.39 -0.95,0.54 -0.97,-0.25 -0.8,0.33 -0.68,0.07 -2.11,1.73 -0.56,1.07 -0.09,1.11 -1.04,2.64 -0.65,1.26 -0.08,0.99 0.11,1.14 -0.38,0.97 -0.08,0.67 -0.78,1.54 -0.12,0.98 0.99,5.47 0.55,4.08 -0.34,2.52 0.71,1.88 1.13,1.61 0.17,0.64 -0.32,1.45 0.24,0.86 -0.12,1.81 -0.12,0.36 -0.25,0.19 -1.55,0.15 -0.41,0.45 -0.28,1.56 -0.57,1.23 -0.06,0.94 -1.63,-0.16 -1.22,0.33 -0.56,-0.21 -0.61,0.4 -0.6,-0.44 -1.33,0.24 -0.64,1.33 -1.93,1.33 -0.4,0.76 -0.54,0.26 -0.77,0.01 -0.52,0.26 -0.26,1.21 -0.87,0.49 -0.9,-0.02 -1.26,0.8 -0.16,-0.02 -0.24,-0.34 -1.6,0.15 -0.15,-0.16 0.07,-0.16 0.74,-0.4 0.37,-0.88 0.58,-0.5 -0.28,-0.26 -0.04,-0.46 -0.5,-0.22 -0.17,-0.72 -0.59,-0.83 -0.36,-0.24 -0.43,0 -0.59,0.24 -1.35,-0.02 -1.1,0.54 -0.88,-0.27 -0.33,-0.53 -0.3,-0.12 -1.1,0.37 -0.71,-0.19 -2.35,0.12 -0.65,0.14 -1.02,0.5 -1.37,0.36 -0.39,-0.02 -1.19,-0.86 -1.31,-0.02 -1.12,-0.52 -1.76,-0.43 -1.15,-0.01 -2.35,-0.8 -0.49,-0.29 -0.69,-0.78 -1.2,-1.02 -0.95,0.27 -1.12,-1.47 -2.07,-0.12 -1.36,-1.29 -1.91,-0.05 -0.45,0.09 -0.42,0.29 -0.72,4.43 -0.36,0.85 -0.76,0.39 -0.39,2.11 -0.5,1.74 -1.61,3.59 -0.34,1.22 -0.49,3.26 -0.81,2.91 -2.8,5.76 -0.53,1.4 -0.6,2.24 -0.31,4.68 -0.61,1.4 -1.05,1.86 -0.7,2.17 -1.45,3.23 -0.37,1.08 -0.33,1.71 0.05,0.61 0,0 -2.01,0.72 -0.71,-0.62 -0.24,-1.58 0.6,-4.2 -3.15,-3.43 -1.52,-5.75 0,0 -6.44,-7.55 0.69,-0.91 -0.85,0.17 -0.27,-0.3 0.98,-0.73 0,0 0.36,-0.98 -0.46,0.02 -0.63,1.16 -0.68,-0.51 -0.68,-0.03 0,0 -0.65,-0.14 0.73,-1.14 -0.57,-0.01 0,0 -0.87,1.23 -0.63,-0.73 -0.57,-1.43 0,0 -1.09,0.71 -0.92,0.03 0,0 -1.09,-1.66 -6.04,-0.15 -5.65,-3.16 -6.65,-2.92 0.08,-2 -4.15,-1.72 -9.25,3.23 -6.1,-8.55 -8.65,0.97 -0.95,-2.44 -2.45,-0.22 -0.97,-1.14 -2.32,-1.51 0,0 -3.28,-2.76 -3.13,3.99 0,0 -2.48,-2.61 -2.85,3.2 -5.02,-1.12 -0.53,0.98 0,0 -1.94,0.87 -2.29,-1.12 -1.21,0.75 -0.94,2.59 -2.89,-1.08 -1.89,-1.4 -1.01,-1.72 -1.74,-0.9 1.53,-0.58 0.83,-2.02 -0.1,-2.19 1.84,-0.29 1.77,0.78 -0.21,-1.48 -1.02,-4.4 -0.44,-0.2 -0.4,-1.15 1.17,-2.59 0.96,-4.09 0.96,0.04 0.18,-2.4 1.33,-0.01 -1.16,-1.67 3.62,-1.32 -1.38,-1.1 -1.96,0.15 -2.5,-2.28 0.51,-1.5 1.71,-0.07 0.42,-1.03 -0.92,-0.28 -3.04,0.08 -0.27,-1.28 -1.68,-0.78 -0.72,-1.48 1.54,-0.47 -0.22,-1.52 1.01,-0.93 0.99,-0.08 1.49,0.51 3.58,-3.68 -0.02,-1.24 0.82,-3.2 -0.8,-2.38 -7.96,1.31 -1.37,-2.73 0.45,-1.92 -0.17,-1.15 1.62,-0.84 0.4,0.57 1.86,-0.79 -1.88,-1.96 -1.57,-0.91 -0.05,-1.88 -2.92,-2.41 -1.64,-0.54 0.05,-1 -1.56,-1.79 0.29,-1.71 4.59,-2.21 5.06,-1.86 1.73,-2.72 0.4,-1.57 -0.51,-1.37 0.45,-1.82 -0.59,-0.88 0.54,-2.31 1.77,-0.05 0.86,-0.6 2.75,-1.26 1.53,-2.13 2.86,-2.38 0.44,-1.71 0,0 1.29,-0.76 1.15,2.02 8.35,3.48 3.15,0.78 2.68,-1.23 3.34,-6.07 1.33,-1.38 -0.56,-3.96 -1.84,-0.52 0.7,-6.81 -4.02,-2.67 -1.3,-0.67 -1.58,-1.24 -0.9,-1.36 -1.48,-0.45 -0.53,-3.1 -2.33,-3.37 1.66,-1.61 0.45,0.36 2.1,-1.12 0.25,-1.12 1.19,-0.53 0.44,1.01 2.46,-0.77 3.98,-2.53 1.01,0.35 -0.18,-1.48 0.3,-1.25 -1,0.17 -0.09,-1.86 3.89,-0.57 0.54,0.65 2.51,-2.46 -0.52,-1.7 2.98,-0.76 0.52,-3.05 1.46,-0.17 0,0 z"
     title="Shyghys Qazaqstan oblysy"
     id="KZ-VOS" />
  <path
     d="m 403.54694,290.98271 36.76,0.58 0,0 3.52,5.75 1.73,5.7 2.67,6.8 2.4,10.39 1.11,1.58 1.49,8.19 1.75,11.86 -0.73,0.49 -0.35,2.31 -1.35,2.11 -0.32,3.09 -2.44,6.09 0.05,0.56 -2.62,3.75 2.04,0.72 -0.54,0.84 0.84,2.6 1.05,-0.46 0.44,0.03 -0.22,0.97 1.35,-0.21 2.06,1.5 0.6,-1.48 0.44,0.04 0.38,1.57 1.75,0.16 0.48,0.7 0.69,-0.27 0.48,0.6 -0.35,1.17 0.99,0.96 0.72,-0.48 0.5,0.38 -0.7,1.24 0.61,0.49 0.63,0.28 -0.5,0.5 0.66,0.93 -0.26,2.16 0.06,1.3 0.38,0.47 -0.48,1.26 2.04,1.26 1.43,-0.08 0.22,0.88 1.15,0.43 0.11,0.86 0.63,0.17 0.24,0.66 0.56,0.79 1.06,0.2 1.32,2.31 1.55,-0.41 0.35,0.63 -0.35,0.99 0.84,0.04 0.01,0.61 1.09,0.99 0,0 -0.25,0.5 -0.02,0.65 0.18,0.44 -0.09,0.38 0.25,0.21 0.99,-0.08 -0.78,0.98 -1.17,0.71 -0.29,0.01 -0.55,-0.42 -0.64,0.6 -0.35,0.58 -1.31,1.44 -0.06,0.53 -0.91,2.29 -0.49,0.1 -0.51,-0.47 -0.32,-0.09 -0.02,-0.94 -0.23,-0.38 -1.06,-0.59 -1.13,-0.99 -0.44,-0.01 -0.16,0.19 -0.22,1.05 -0.54,0.65 -0.79,0.61 0.16,1.53 -1.04,0.67 -0.72,0.23 -0.82,0.92 -0.74,1.59 -1.9,1.07 -0.44,1.03 -0.29,0 -0.21,-0.64 -0.45,0.06 -0.8,1.8 -1.23,0.5 -0.5,-0.43 -0.52,-0.14 -0.7,0.44 -1.32,0.14 -0.72,0.63 -1.37,0.37 -1.58,1.57 -0.48,1 -1.12,0.33 -0.7,0.6 -0.31,0.54 0.17,0.37 0.49,0.32 -0.14,0.43 -0.17,0.08 -0.93,-0.15 -1.12,0.27 -0.85,-0.32 -1.24,0.15 -0.48,0.29 -0.46,1 -0.93,0.53 -0.48,1.2 -0.28,0.19 -0.58,-0.32 -0.22,0.07 -0.83,1.29 -0.08,1.14 -0.67,0.64 -0.13,0.76 -0.45,0 -0.28,0.19 -0.87,0.94 -1.84,2.67 -0.31,0.7 -0.13,0.77 -0.56,0.51 -0.77,0.3 -0.6,0.5 -0.22,-0.68 0.75,-0.51 -0.55,-0.25 -0.34,0.16 -0.28,-0.11 -0.21,-0.64 -0.99,0.62 -0.13,-0.25 -2.07,-0.13 0.01,0.54 1.52,0.1 0.37,0.58 -0.36,0.38 0.41,1.06 -0.36,3.12 1.38,1.91 0.47,1.38 1.01,0.54 0.36,0.88 -1.81,0.72 -1.01,-0.07 -0.34,0.47 -2.05,-0.6 0.23,-0.48 -0.8,-0.66 -0.79,0.21 -1.72,-1.47 -1.59,-0.56 -1.51,-1.69 -2.42,-1.43 -1.03,-0.28 -0.6,-0.84 0.31,-0.96 1.71,-0.06 -0.04,-2.19 0.62,-0.62 -0.58,-1.45 0.59,-0.62 1.04,-0.22 -0.33,-0.2 -0.25,0.11 -0.58,-0.54 -1.28,0.83 -0.35,-0.5 -0.62,0.55 -1.39,-1.3 -0.86,-1.04 -0.37,-0.1 -0.59,-0.54 -6.47,-0.2 -1.05,0.26 -0.37,-0.05 -0.36,-0.24 -13.68,-1.02 -1.46,-16.66 -10.13,-1.23 0.09,-7.88 0.39,-0.46 0.04,-2.77 1.36,0.59 0.03,-0.39 1.69,0.41 7.85,-8.14 2.73,1.68 5.47,-5.52 4.86,-3.65 5.19,-1.92 6.45,-3.22 1.9,-1.22 0.08,-0.88 -1.38,0.37 -0.75,-1.8 0.34,-1.42 -1.13,0.05 0.21,-1.2 -1.06,0.6 0.31,1.68 -0.83,0.51 -0.58,-2.57 1.97,-0.57 0.4,-2.19 -0.16,-0.89 1.85,-1.9 -0.01,-4.22 1.92,1.67 0.83,-0.4 0.22,-2.88 -0.57,-1.48 -0.41,-0.58 1,-1.06 1.18,-0.48 0.75,0.6 1.37,-1.36 -5.34,-3.81 -2.23,-2.71 -0.05,-0.91 -2.23,-1.25 -1.18,0.38 -2.07,-2.02 0.23,-1.68 0.39,-0.55 -0.12,-19.1 -3.09,-1.32 -3.69,-3.06 1.23,-4.54 0.19,-2.87 0.6,-2.05 1.18,-1.67 0.56,-1.24 -0.59,-1.89 -3.07,-2.37 z"
     title="Ongtüstik Qazaqstan oblysy"
     id="KZ-YUZ" />
  <path
     d="m 85.61694,122.58271 2.27,0.07 0.31,-0.22 0.76,0.55 1.09,-0.26 0.14,0.14 0.45,-0.1 0.11,0.14 0.4,-0.03 0.02,-0.21 1.77,-0.36 0.47,0.39 0.08,0.44 1.23,0.3 0.14,1.23 -0.03,1.16 -0.24,0.33 -1.66,0.09 -0.37,0.06 -0.1,0.17 0.08,0.42 0.43,0.29 0.15,0.3 -0.01,0.72 0.74,0.31 1.47,-0.06 0.77,0.3 1.75,-0.88 0.49,-0.69 -0.01,-0.72 0.43,-0.15 0.39,0.84 0.55,-0.11 0.25,0.1 0.36,0.61 -0.54,1.07 0.19,0.31 0.41,0.05 1.21,-0.63 0.56,-0.55 0.97,-0.37 0.09,-0.14 -0.72,-1.72 -0.03,-0.39 0.37,-0.88 1.59,-2 1.8,0.12 1.5,0.85 0.75,-0.23 0.81,0.1 0.65,-0.37 0.38,-0.56 0.25,-1.04 0.65,-0.13 1.05,0.19 0.82,-0.59 -0.04,-0.69 0.51,-0.24 0.51,0.2 0.16,0.19 0.4,3.02 1.14,1.51 0.54,1.28 0.67,0.63 0.19,1.19 0.78,0.53 0.01,0.31 -0.17,0.13 0.09,0.41 0.39,0.15 0.03,-0.14 0.59,-0.33 -0.03,0.54 0.62,0.05 -0.2,-0.45 0.18,-0.1 0.24,0.25 0.15,-0.04 0.06,-0.76 0.18,-0.03 0.21,0.8 0.35,0.22 -0.14,-0.62 0.94,-0.29 0.34,0.11 -0.1,-0.68 0.46,0.25 0,-0.52 0.16,-0.31 0.14,0.23 -0.04,0.3 0.2,-0.15 0.15,0.26 0.27,-0.14 0.05,0.35 0.49,-0.21 0.53,0.26 0.52,-0.2 -0.02,0.19 -0.55,0.33 0.1,0.35 0.17,0 0.25,-0.27 0.25,0.16 0.14,-0.61 0.31,0.01 -0.04,0.39 0.26,0.22 0.28,0.57 0.15,-0.12 -0.12,-0.39 0.53,0.21 -0.08,-0.48 0.55,0.26 0.98,-0.42 0.35,-0.34 0.22,-0.02 0.17,0.27 0.37,0.14 0.9,-0.09 0.01,-0.3 -0.39,-0.43 0.07,-0.33 0.52,0.14 0.38,-0.47 0.16,0.11 -0.23,0.48 0.11,0.14 0.43,0.15 0.64,-0.13 0.26,0.12 0.32,0.66 0.25,0.01 0.22,-0.49 0.49,-0.28 0.62,-0.19 0.3,0.11 0.37,0.56 0.51,0.11 0.44,0.42 0.01,0.44 0.88,0.43 0.1,0.35 0.69,0.29 0.87,0.05 0.11,0.46 0.41,0.47 0.57,0.3 0.11,0.37 -0.16,0.21 -0.56,0.08 0.53,0.67 -0.13,0.62 -0.23,0.13 -0.07,0.48 0.13,0.42 0.76,0.71 0.17,0.49 -0.07,0.4 0.35,0.44 0.42,-0.13 0.85,0.42 0.14,0.43 0.29,-0.2 0.39,0.06 0.47,-0.17 0.57,0.63 0.23,0.05 0.69,-0.13 0.2,-0.2 1.34,0.65 0.24,0.31 1.08,0.26 0.37,0.36 -0.07,0.32 0.2,0.17 1.18,0.38 0.39,0.38 0.26,0.67 -0.29,0.75 0.06,0.36 0.09,0.03 0.15,-0.38 0.16,-0.07 0.55,0.81 0.03,0.28 -0.34,0.1 -0.17,0.23 0.32,0.29 -0.02,0.44 0.49,0.19 -0.1,0.52 0.71,0.56 0.69,1.53 0.46,0.63 0.35,0.19 2.48,0.2 1.35,0.73 0.06,0.56 -0.93,1.57 -0.3,1.29 0.23,1.11 -0.74,1.47 -0.06,0.87 1.65,2.55 0.6,-0.04 0.51,-0.31 0,0 0.3,0.43 -2.45,2.92 0.33,0.87 -2.07,2.2 1.46,2.03 -0.36,2.11 0.07,2.57 0.92,0.28 0.06,0.77 1.31,0.62 0.25,1.52 -0.87,1.76 0.07,0.89 -1.87,3.29 1.14,1.39 -2.15,0 -0.41,1.07 -1.35,1.7 0.45,0.83 -1.91,1.13 -1.66,-0.3 -2.4,0.05 -0.35,1.45 -1.9,-0.01 -1.5,1.35 -0.79,2.02 -1.21,-0.6 0.68,1.56 -1.28,4.37 0.18,2.77 0,0 -0.64,0.97 -3.76,3.19 0.51,1.19 -3.01,0.95 -6.75,-0.01 -1.2,-0.58 -1.15,2.7 -1.73,-0.75 0.3,7.14 -2.34,0.1 -1.36,5.72 0.44,1.44 -1.37,0.83 -2.09,0.05 -4.27,-2.42 -0.85,0.11 -0.69,1.22 -6.23,-1.42 0.15,-2.4 0.67,-0.47 -0.52,-1.06 -8.22,-1.42 -2.31,1.06 -4.02,0.28 -1.09,3.39 -1.79,1.1 -0.8,-0.4 -1.81,1.73 -1.22,0.03 -10.68,7.17 -3.94,4.04 -3.27,-0.08 -1.06,0.87 -6.05,-0.33 0.15,3 -9.51,-3.77 -5.39,-1.51 -17.14,-1.91 -9.89,-1.55 -2.28,0.12 -2.94,-0.98 0,0 -1.7400004,-2.06 0.09,-0.33 -0.13,-0.1 -0.94,0.02 -1.37,-0.31 -2.48,-1.19 -3.03000002,-1.15 -0.58,-0.44 2.12000002,-5.95 1.32,-3.09 0.97,-2.88 1.15,-2.6 3.09,-1.92 1.2800004,-1.68 0.68,-1.74 0.27,-1.35 -0.15,-0.66 -0.45,-0.64 -3.0500004,-2.73 -1.59,-0.94 -0.05,-0.39 0.43,-2.57 0.34,-3.71 0.77,-1.53 0.29,-2.13 -0.01,-1.99 0.37,-2.8 0.28,-0.65 0.21,-0.23 1.07,-0.02 2.6300004,-1.01 1.03,-0.69 1.21,-1.21 0.81,-1.24 1.3,-2.61 0.12,-0.34 -0.25,-0.81 -1.27,-2.02 1.28,-1.31 -0.08,-0.36 -0.39,-0.17 -0.01,-1.55 0.34,-0.63 1.5,-0.11 0.21,-0.13 0.02,-1.15 0.37,-0.23 0.31,-0.93 1.27,-1.22 0.82,-0.2 1.4,0.74 0.74,0.95 1.6,0.85 -0.17,0.34 0.64,0.85 0.19,0.16 0.74,0.1 0.07,0.5 0.59,0.84 1.03,0.97 0.82,1.1 0.25,0.82 0.52,0.43 0.09,0.85 0.7,0.6 0.31,0.57 0.83,0.26 0.22,0.31 0.64,2.93 0.37,0.37 0.06,0.5 0.22,0.37 0.52,0.38 0.53,0.93 0.15,0.7 -0.13,0.39 0.23,0.17 0.83,0.16 0.42,-0.27 0.34,0.08 0.26,0.51 0.29,0.12 0.15,0.56 0.57,-0.26 0.32,0.32 0.02,0.35 0.58,0.24 0.16,-0.14 0.01,-0.79 5.85,-2.66 2.48,-2.43 0.29,-0.48 -0.44,-1.27 -0.06,-0.61 -1.22,-0.24 -0.53,-0.25 -0.13,-0.26 0.05,-0.54 0.22,-0.28 0.15,-0.64 0.05,-0.64 -0.28,-0.77 -0.93,-1.52 -0.32,-1.03 -0.29,-2.62 -0.96,-5.04 0.28,-0.93 -0.29,-0.78 -1.26,-0.7 -0.22,-0.42 -0.02,-0.41 0.39,-0.47 0.42,-0.12 0.64,0.15 1.31,1.21 1.5,0.12 0.66,0.56 0.25,0.02 0.84,-0.99 1.37,-0.79 0.86,-1.27 2.14,-2.54 0.98,-0.55 1.65,-0.37 0.87,-0.75 1.18,-0.1 1.49,-0.53 0.2,-0.59 -0.18,-0.57 -0.82,-1.9 -0.33,-0.54 -0.55,-0.43 -0.02,-0.25 1.07,-1.79 -0.14,-1.26 0.25,-0.25 0.6,-0.15 0.1,-0.61 0.75,0.17 0.87,0.49 0.41,-0.02 1.34,-0.48 1.96,0.36 0.79,-0.06 1.98,-1.77 0.58,-0.76 1.29,-1.16 4.3,-1.62 1.25,-0.23 2.86,-1.43 0.09,-0.12 -0.36,-0.26 -0.39,-0.97 0.75,-0.77 -0.02,-0.31 -0.42,-0.45 2.15,-0.19 0.06,-1.1 0.93,0 0.05,-0.46 -0.46,-1.05 0.19,-1.55 0.27,-0.88 0.29,-0.07 0.19,0.2 0.17,-0.14 0.39,-1.27 1.08,0.01 0.44,0.23 1.37,0.2 0.02,0.59 -0.95,0.93 -0.06,0.25 1.73,-0.2 0.16,-0.32 0.27,-0.12 0.31,-2.16 -0.71,-0.39 -0.36,-0.42 -0.13,-1.2 0.23,-1.22 0.55,-0.05 1.77,0.84 z"
     title="Batys Qazaqstan oblysy"
     id="KZ-ZAP" />
  <path
     d="m 537.58694,291.03271 -1.56,3.41 0,0 -1.85,3.12 0.84,10.2 1.06,2.79 -5.87,-0.43 0.35,5.11 5.45,0.14 0.16,3.34 0.76,0.91 0.38,1.19 6.24,4.37 1.86,3.21 -0.89,3.28 0.63,0.99 3.71,3.55 4.34,0.47 0,0 0.33,0.04 1.86,1.71 0,0 1.21,0.17 1.1,1.49 2.02,1.38 0.09,3.34 -0.44,1.16 -0.86,0.99 0.45,1.93 -0.46,1.25 -0.74,0.35 -4.25,4.04 0.01,1.72 3.28,1.15 0.66,-0.45 1.1,0.14 -0.29,0.93 2.91,-0.36 0.7,1.18 -2.58,3.13 -0.22,2.26 0.74,0.44 -0.27,1.15 0.75,0.33 0.46,1.9 1.88,0.39 3.66,1.73 -0.52,1.06 0,0 -1.12,0.34 0.22,0.43 0,0 1.88,-0.21 1.08,0.68 1.01,-0.44 0.2,0.94 0.15,-0.02 0,0 -0.48,0.84 -0.35,1.68 -0.24,0.42 -0.82,0.62 -1.99,-0.63 -2.39,-0.11 -0.76,0.15 -0.46,-0.07 -2.05,-0.9 -0.92,0.13 -0.82,0.36 -0.59,-0.1 -0.17,-0.18 -0.7,-0.04 -0.55,-0.76 -0.87,-0.37 -0.1,-0.26 -0.87,-0.43 -0.56,-0.55 -0.8,-0.1 -0.58,-0.44 -0.17,0.1 -0.08,-0.48 -0.18,-0.22 -1.44,-0.61 -0.38,0.3 -1.5,0 -0.66,-0.89 -0.24,-0.84 -0.55,-0.49 -0.78,-0.39 -0.25,-0.76 -0.42,-0.2 -0.8,-0.72 -0.31,0.08 -0.39,-0.25 -0.18,0.11 -0.37,-0.67 -0.94,-0.09 -0.28,-0.34 -0.32,0.18 -0.39,-0.21 -0.85,-0.1 -0.16,-0.2 -0.5,-0.09 -0.27,-0.58 -1.94,0.13 -0.48,-0.12 -0.27,0.16 0.42,0.87 -0.07,0.21 -0.3,0.16 -0.33,0.01 -0.81,0.45 -0.92,0.25 -0.95,-0.29 -0.39,-0.45 -0.56,-0.16 -0.95,1.55 -0.28,0.96 -1.38,-0.39 -0.8,0.09 -2.72,1.43 -1.3,0.54 -0.25,0.3 -0.08,0.17 0.19,0.35 -0.05,0.32 -0.39,0.84 -0.52,0.67 -0.28,0.71 0.07,3.27 -0.81,1.54 -0.74,2.58 -0.04,1.47 0.33,1.58 1.46,1.88 -0.06,0.58 -0.38,0.19 -0.31,0.04 -0.46,-0.32 -2.05,-0.19 -0.7,-0.58 0.01,-1.24 -0.24,-0.25 -1.12,-0.06 -2.59,-0.71 -1.39,0.14 -0.55,-0.14 -0.61,0.21 -0.46,-0.17 -0.79,-0.03 -0.61,-0.46 -0.78,-0.13 -0.49,-0.27 -1.35,-1.87 -1.5,-0.47 -1.17,-0.65 -0.37,-0.06 -0.74,0.18 -0.98,-0.21 -4.21,-1.95 -0.97,-0.03 -0.8,0.26 -0.48,-0.11 -0.41,0.39 -0.48,0.09 -0.61,-0.21 -0.62,-0.65 -1.4,-0.4 -0.6,-0.38 -0.29,-0.41 -1.46,-0.49 -0.88,0.04 -1.12,0.62 -1.65,0.47 -0.93,0.66 -1.1,-0.26 -0.27,-0.38 -0.76,-0.53 -0.35,-0.01 -0.58,0.27 -1.54,0.06 -0.47,0.53 -1.73,-0.09 -0.15,0.2 0.02,0.46 -0.83,1.64 -1.03,0.55 0.05,1 -0.23,0.65 -2.41,0.28 -0.61,0.54 -0.05,0.24 0.36,0.55 1.28,0.94 0.02,0.5 -0.31,0.66 -0.34,0.11 -0.44,-0.13 -0.81,-0.69 -0.32,0.27 -0.41,0.65 -0.12,0.87 -0.31,0.86 -0.39,0.6 -0.29,0.16 -0.29,0.67 0,0 -1.09,-0.99 -0.01,-0.61 -0.84,-0.04 0.35,-0.99 -0.35,-0.63 -1.55,0.41 -1.32,-2.31 -1.06,-0.2 -0.56,-0.79 -0.24,-0.66 -0.63,-0.17 -0.11,-0.86 -1.15,-0.43 -0.22,-0.88 -1.43,0.08 -2.04,-1.26 0.48,-1.26 -0.38,-0.47 -0.06,-1.3 0.26,-2.16 -0.66,-0.93 0.5,-0.5 -0.63,-0.28 -0.61,-0.49 0.7,-1.24 -0.5,-0.38 -0.72,0.48 -0.99,-0.96 0.35,-1.17 -0.48,-0.6 -0.69,0.27 -0.48,-0.7 -1.75,-0.16 -0.38,-1.57 -0.44,-0.04 -0.6,1.48 -2.06,-1.5 -1.35,0.21 0.22,-0.97 -0.44,-0.03 -1.05,0.46 -0.84,-2.6 0.54,-0.84 -2.04,-0.72 2.62,-3.75 -0.05,-0.56 2.44,-6.09 0.32,-3.09 1.35,-2.11 0.35,-2.31 0.73,-0.49 -1.75,-11.86 -1.49,-8.19 -1.11,-1.58 -2.4,-10.39 -2.67,-6.8 -1.73,-5.7 -3.52,-5.75 0,0 27.53,-0.06 15.58,-0.4 3.44,0.25 18.61,-0.69 z"
     title="Zhambyl oblysy"
     id="KZ-ZHA" />
  <path
     d="m 277.79694,268.86271 -0.32,1.39 0,1.6 -0.11,1.71 1.92,2.35 2.67,-0.11 2.99,0.53 1.07,-0.86 0.75,0.11 0.06,1.68 -0.32,3.31 -1.22,2.08 -1.9,1.13 -1.81,0.68 -1.4,1.27 -2.04,0.36 -1.81,1.68 0,0 -0.32,1.22 -0.68,0.95 0,0 -1.54,0.32 -1.22,0.36 0,0 -0.23,0.97 -0.41,0.54 0,0 -0.27,1.54 0,0 -0.27,1.31 -1,0.68 0.09,0.86 0,0 0.05,1.09 0.95,1.04 0.41,1.59 0.32,1.31 0,0 -0.09,1.63 -0.73,1.68 0,0 -0.23,1 0.91,0.68 0.45,1.63 0.05,3.67 -0.5,1.13 0,1.18 0.5,1.68 0.86,0.73 0.41,1.27 1.18,0.09 0.77,0.95 0.82,2.67 0.45,2.08 -0.27,1.95 -0.68,1.95 -0.59,0.32 -0.45,0.45 0,0 -0.52,0.41 -7.16,-5.17 -0.02,0 0,-0.01 -16.66,-12.03 -0.02,0.01 0,0 -0.03,-0.77 -0.32,-0.86 -0.59,-0.59 -0.73,-0.45 -0.23,-0.77 -0.18,-0.82 -0.59,-1.22 0.5,-0.63 0.09,-1 -0.18,-1.54 0.23,-0.91 -0.41,-0.77 -0.91,0 -0.63,-0.23 -0.36,-0.41 -0.68,-0.36 -0.36,0.45 -0.32,0.73 -0.68,0.5 0,0 -0.55,0.31 0,0 -0.81,-0.03 -0.54,-0.27 -0.63,0 -0.23,0.45 0,0.95 -0.41,0.27 -0.1,0.99 0,0 -4.81,-3.47 -1.79,0.69 0,0 0.05,-0.84 0.64,-1.07 0.86,-0.43 0.11,-1.92 0.75,-2.14 0.96,-2.03 0.85,-1.18 0.96,-0.64 2.03,-0.43 1.63,-0.87 0.03,-0.01 0,0 0,0.09 0.36,0.06 0.54,0.45 1.18,0.18 0,0 1.22,-0.09 0.41,-0.36 0.63,-0.68 0.86,-0.5 0.95,0.5 0.82,0.59 0,0 -0.36,0.82 -0.82,0.91 0,0 -0.59,0.86 -0.54,0.86 -0.23,1.09 -0.05,0.95 0,0 0.14,0.73 1.04,0 1.09,-0.41 1.09,-0.09 0,0 0.86,0.32 0.72,-0.59 0.41,-1.09 0.41,-1.31 0.68,0.36 0.63,-0.32 0.54,-0.91 0,0 0.23,-1.36 -0.18,-1.86 0,0 -0.23,-0.77 -0.04,-0.82 0.36,-1.31 -0.5,-1.13 -1.45,-2.4 -0.68,-1 -0.05,-1.09 0.63,-0.14 1.9,-0.05 1.36,0.05 0,0 1.18,0.23 0.77,0.95 0,0 -0.05,1.5 0.14,1.22 0.41,0.68 0,0 -0.14,1.13 -0.23,0.77 0.63,0.36 0,0 1.36,-0.09 0.77,-0.77 1,-0.86 0.86,-0.5 1.54,0.18 2.04,0.41 1.04,0.23 1.04,0.59 1.13,1.22 1.22,0.41 2.58,-0.5 1.09,0 0.95,-0.63 1.13,-0.68 0.41,-1.45 0.04,-1.99 -0.59,-1.13 -0.95,-1.45 -0.14,-0.86 -0.05,-0.91 -0.86,0.18 -0.73,0.91 -1.5,1.04 -1.18,-0.41 -0.86,-0.68 -0.54,-1.04 -1.13,0 -1.27,0.18 -1.13,0.32 -0.91,0.45 -1.09,0 -1.36,-0.59 -0.45,-0.68 0,0 -0.68,-1.5 0,0 -0.58,-0.72 0.12,-2 0.8,-1.07 4.41,-2.94 1.34,0 0,0 0.94,0.94 0.53,1.07 0,0 -0.13,2.67 0.27,0.94 0.72,-0.51 0,-3.1 1.5,0.43 1.28,0.64 1.07,-0.53 0.75,-0.86 0.75,-0.43 0,-1.24 -1.28,-0.96 -0.96,-0.11 -1.07,-0.53 0.11,-0.96 1.71,-0.11 0.96,0 0,0 0.96,0.85 1.46,0.43 z m -15.53,31.89 0.96,-0.62 0.96,-0.41 0.83,-0.48 5.17,0 -0.28,-0.48 -2,-0.07 -1.86,-0.34 -0.48,-1.03 -2.48,-0.28 -1.65,0.14 -1.58,0.07 -1.65,0.41 -0.07,1.45 -0.07,2.07 2.07,0 2.13,-0.43 z"
     class="water"
     title="Aral Sea"
     id="KZ-AS" />
</svg>
