<?xml version="1.0" encoding="UTF-8" standalone="no"?>
<!-- Created for MapSVG plugin: http://mapsvg.com -->
<svg
   xmlns:mapsvg="http://mapsvg.com"
   xmlns:dc="http://purl.org/dc/elements/1.1/"
   xmlns:rdf="http://www.w3.org/1999/02/22-rdf-syntax-ns#"
   xmlns:svg="http://www.w3.org/2000/svg"
   xmlns="http://www.w3.org/2000/svg"
   mapsvg:geoViewBox="9.472461 47.271742 9.637517 47.047365"
   width="397.85312"
   height="792.69513">
 
  <path
     d="m 115.3908,647.83437 1.13,1.13 2.94,5.14 4.48,4.99 1.37,4.34 1.58,3.6 1.11,2.27 1.07,1.12 3.23,2.17 4.95,1.69 2.54,0.65 2.59,0.09 1.18,0.47 2.72,0.08 0.96,0.75 0.26,1.79 -0.37,6.56 -0.59,2.92 -1.5,4.16 -0.05,5.84 2.01,4.18 1.82,6.2 0.78,1.43 5.4,5.31 16.18,21.01 0,0 -1.58,-0.71 -1.8,-0.23 -3.54,0.73 -3.05,1.98 -4.97,2.12 -2.35,1.81 -6.48,3.48 -16.87,2.51 -3.7,0.83 -11.24,4.58 -4.38,3.97 -3.63,4.17 -3.26,1.98 -10.12,2.54 -14.15,0.86 -3.9,0.56 -3.12,1.41 -2.56,3.48 -1.55,0.98 -1.96,0.26 -2.99,-0.75 -1.76,-0.85 -3.06,-2.23 -3.01,-1.15 -2.33,-0.3 -2.31,0.5 -1.1,0.63 -1.63,1.71 -2.91,5.27 -2.48,5.66 -2.41,4.05 -1.48,1.57 -2.08,0.87 -2.22,0.05 -2.09,-0.71 -3.36,-3.41 -1.04,-1.8 -1.79,-6.34 -0.99,-1.96 -1.48,-1.64 -2.16,-0.89 -2.35,0 -3.41,0.83 -3.44,1.48 -3.07,-1.54 -2.4600002,-2.77 -4.26,-10.52 -2.76999998,-15.28 -0.28,-5.14 0.59,-5.01 2.47999998,-8 5.24,-3.94 5.0500002,-2.66 2.4,-1.72 5.22,-1.61 3.99,-2.24 4.43,-1.26 3.99,-2.31 4.41,-1.33 3.98,-2.34 4.41,-1.34 3.97,-2.35 5.09,-1.84 6.61,-5.61 10.04,-5.86 6.61,-5.63 5.75,-2.37 7.25,-6.1 9.4,-5.5 4.39,-3.86 3.83,-4.21 2,-4.8 2.52,-3.82 1.49,-4.83 z m 120.11,-7.73 9.36,3.07 2.23,-0.62 3.6,-2.04 2.2,0.08 2.53,1.04 0,0 -0.71,2.22 -1.88,3.22 -0.12,2.56 4.75,5.93 0.56,3.35 0.05,4.45 0.48,1.67 0.03,4.65 1.11,3.54 3.8,4.61 2.42,1.9 4.21,4.29 0.72,3.21 -2.83,2.5 -3.99,1.36 -3.54,2.37 -6.77,3.73 -5.08,1.21 -4.4,-0.01 -7.95,-1.73 -0.81,-0.59 -5.34,-5.44 -3.22,-3.85 -3.66,-6.2 -0.73,-2.33 1.07,-4.87 -0.01,-5.36 -0.92,-11.21 2.77,-6.04 2.7,-3.21 7.37,-7.46 z m 134.48,-198.82 -1.15,28.66 11.04,23.18 11.98,15.36 -20.92,31.1 -2.76,4.87 0,0 0.33,-3.22 -1.15,-0.22 -4.15,-3.04 -15.69,-7.17 -5.38,-1.33 -1.15,-0.63 -1.18,-4.49 -0.12,-3.07 -0.94,-2.91 -0.1,-5.22 -1.41,-3.15 -0.22,-2.4 -1.53,-2.13 0,0 -0.05,-1.75 -1.62,-5.88 -1.96,-3.4 -0.59,-3.66 0.01,-9.96 -1.14,-3.08 -4.83,-6.11 -3.5,-2.44 -4.78,-5.13 -5.52,-4.85 0,0 -3.13,-2.56 -3.04,-3.59 -6.64,-0.16 -2.74,-0.67 -6.34,-2.77 -4.06,-2.96 -6.55,-3.89 -4.15,-1.2 -5.42,-0.11 -1.29,-0.67 -1.16,-1.14 0,0 -0.29,-1.6 0.27,-1.64 1.6,-3.15 -0.5,-2.45 0.46,-1.21 0.1,-3.69 0.53,-1.72 -1.02,-2.67 0.44,-1.62 0.09,-2.79 1.98,-2.83 1.12,-2.58 0.21,-4.11 2.09,-5.05 0,0 1.46,-1.78 0.88,-1.84 1.86,-1.36 3.89,-3.96 1.03,-3.11 0.18,-2.81 0.59,-1.18 1.89,-1.91 1.1,-1.72 0.65,-2.44 0,0 4.73,3.72 16.43,15.02 10.48,22.81 21.32,12.9 29.43,6.56 z"
     title="Balzers"
     id="LI-01" />
  <path
     d="m 196.2508,275.77437 -2.4,-3.34 0.48,-2.05 0.05,-4.47 1.14,-2.09 2.17,-1.16 0.47,0.24 4.41,6.58 3.22,2.18 3.66,1.68 7.09,2.26 2.2,0.36 0,0 -0.82,9.51 -1.86,3.89 -6.11,-1.76 -3.57,1.28 0,0 -3.6,-7.2 -6.53,-5.91 z m -133.27,-57.89 2.55,2.41 7.21,4.49 0.96,-0.17 3.14,-3.13 0.96,-0.39 1.56,1.31 1.09,2.21 -8.47,9.6 -5.92,8.65 -4.55,7.71 -3.56,4.15 -0.15,3.44 0.47,1.25 0.16,1.97 5.7,4.06 0.71,-0.09 2.8,-1.94 4.95,-0.03 0.72,-0.26 0.6,-1.31 0.6,-8.1 0.51,-1.43 0.05,-3.45 0.51,-1.44 0.03,-3.21 0.46,-0.71 0.8,-0.12 13.65,8.48 0.61,1.85 0.07,2.83 0.98,5.28 0.06,2.68 0.48,1.32 -0.05,2.04 0,0 -5.41,-0.03 -2.15,-0.54 -2.89,0.04 0,0 -1.2,0.57 -22.41,20.75 -1.61,1.11 -0.88,-0.5 -6.05,-12.87 -4.39,-3.35 -4.33,-2.49 0,0 0.47,-7.79 2.79,-3.29 2.05,-5.34 2.14,-3.03 1.87,-4.91 2.14,-2.96 1.9,-4.91 2.05,-3.05 0.67,-1.78 1.32,-7 2.45,-3.87 1.78,-4.71 z m 120.8,-67.13 -7.46,5.02 -4.99,3.86 -2.17,2.18 -1.78,2.7 -2.95,-0.44 -0.95,-0.44 -2.2,-0.01 -1.91,0.65 -1.69,1.7 -6,9.36 0.83,1.54 4.21,4.29 0.25,1.08 -8.88,5.77 -2.21,3.1 -1.75,5.28 -0.13,2.39 -0.51,1.55 0.11,1.4 1.58,2.75 14.56,12.66 19.18,14.26 0.86,-0.28 5.2,-5.93 2.36,-0.12 1.49,0.43 0.67,-0.48 1.39,-5.66 0.6,-1.17 0.75,-0.48 17.72,-4.38 4.82,0.07 2.77,3.34 3.19,6.32 3.32,11.01 -0.97,0.85 -6.83,2.37 -6.47,3.18 -0.33,0.94 0.86,1.36 4.45,4.46 2.43,1.73 3.25,1.19 4.19,0.81 8.76,5.77 6.41,1.77 1.24,-0.05 2.79,-1.02 3.8,0.7 4.73,3.6 5.87,5.89 0.98,0.66 1.11,-0.65 0,0 -2.63,3.42 -12.83,20.02 0,0 -9.98,-5.96 -7.92,2.53 -1.3,-0.08 -0.59,-0.66 -2.11,-4.92 -1.4,-6.04 0,0 -0.9,-10.81 -1.65,-3.91 -3.75,-6.23 -0.69,-0.43 -12.3,-2.94 -0.43,-2.47 -3.75,-3.8 -7.76,-4.85 -1.53,0.89 -2.61,2.31 -1.15,1.55 2.61,5.66 4.99,1.35 0.56,0.43 0.06,4.68 -1.69,0.73 -4.07,0.71 -4.12,1.58 -9.98,6.78 -1.74,0.11 -1.54,-0.55 -1.78,0.08 -0.76,1.35 -0.1,3.49 -0.71,2.87 0,0 -3.76,1.28 -2.37,0.09 -6.9,-1.63 -2.96,-0.23 0,0 -0.86,-0.75 0,0 -1.31,-5.04 -0.68,-1.02 -43.61,-17.37 -13.9,-40.85 -0.67,-4.49 0.32,-0.59 0.98,-0.13 4.9,1.16 4.95,-0.15 0.68,-1.93 0.15,-3.02 0.69,-0.31 2.45,0.04 0.53,-0.52 0.04,-8.67 -0.51,-1.75 -0.02,-3.38 0.53,-2.04 0.19,-3.01 3.54,-2.12 3.6,-0.81 2.26,-1.63 3.26,-3.25 2.65,-3.95 2.49,-2.22 8.09,-0.16 4.21,-3.59 3.62,-0.09 1.61,0.84 0.74,2.17 1.61,2.87 2.08,1.11 1.41,0.05 1.67,-1.16 0.81,-1.86 1.14,-1.44 1.24,-0.81 2.17,-0.2 2.99,-3.48 6.05,-0.21 2.78,-3.57 0,0 0.33,-1.02 2.69,-3.25 4.07,-3.49 3.02,-3.6 3.47,-2.05 0.53,0 0.61,0.61 2.02,3.53 0.8,2.54 0.58,0.78 z"
     title="Eschen"
     id="LI-02" />
  <path
     d="m 166.7108,274.50437 0.71,-2.87 0.1,-3.49 0.76,-1.35 1.78,-0.08 1.54,0.55 1.74,-0.11 9.98,-6.78 4.12,-1.58 4.07,-0.71 1.69,-0.73 -0.06,-4.68 -0.56,-0.43 -4.99,-1.35 -2.61,-5.66 1.15,-1.55 2.61,-2.31 1.53,-0.89 7.76,4.85 3.75,3.8 0.43,2.47 12.3,2.94 0.69,0.43 3.75,6.23 1.65,3.91 0.9,10.81 0,0 -2.77,0.04 0,0 -2.2,-0.36 -7.09,-2.26 -3.66,-1.68 -3.22,-2.18 -4.4,-6.58 -0.47,-0.24 -2.17,1.16 -1.14,2.09 -0.05,4.47 -0.48,2.05 2.4,3.34 0,0 -3.75,2.57 0,0 -0.93,-1.55 -2.22,-1.7 -6.4,-3.96 -6.71,0.03 -6.37,2.48 -3.16,0.86 z m -65.33,-146.66 0.49,0.31 -0.1,0.54 3.83,2.41 2.51,1.08 3.76,-2.16 3.53,-2.98 3.22,-2.14 0.82,0.01 3.74,3.83 1.67,2.25 0.3,0.92 -0.26,2.12 0.22,1.04 1.66,1.05 3.8,1.29 1.7,1.71 1.17,4.15 0.06,4.41 0.63,0.94 2.4,2.24 6.92,0.07 0,0 -0.8,1.44 0,3.13 0.63,0.76 2.18,1.16 2.01,0.05 5.77,-1.58 1.35,0.09 2.94,1.04 3.24,0 1.6,-0.51 3.18,0.12 0,0 -2.78,3.57 -6.05,0.22 -2.99,3.48 -2.17,0.2 -1.24,0.81 -1.14,1.44 -0.81,1.86 -1.67,1.16 -1.41,-0.05 -2.08,-1.1 -1.6,-2.87 -0.74,-2.17 -1.6,-0.84 -3.62,0.09 -4.2,3.59 -8.09,0.16 -2.49,2.23 -2.65,3.95 -3.26,3.25 -2.26,1.63 -3.6,0.81 -3.54,2.12 -0.19,3.01 -0.53,2.04 0.03,3.38 0.51,1.75 -0.04,8.67 -0.53,0.53 -2.45,-0.04 -0.69,0.31 -0.15,3.02 -0.68,1.93 -4.95,0.15 -4.9,-1.16 -0.98,0.14 -0.32,0.59 0.67,4.49 13.9,40.85 43.61,17.37 0.68,1.02 1.31,5.04 0,0 -3.8,-0.24 -1.18,-0.47 -2.58,-0.09 -1.18,-0.47 -2.72,-0.12 -1.19,-0.47 -2.96,-0.07 -1.74,-0.53 0,0 -2.02,-0.04 -1.21,-0.47 -2.53,-0.09 -1.23,-0.47 -2.87,-0.12 -2.08,-0.5 -8.54,0.03 0,0 -3.3,-0.65 -9.07,-0.07 -2.75,-0.55 -4.24,-0.04 0,0 0.05,-2.03 -0.48,-1.32 -0.06,-2.68 -0.98,-5.28 -0.07,-2.83 -0.61,-1.85 -13.68,-8.5 -0.8,0.12 -0.45,0.71 -0.03,3.21 -0.5,1.44 -0.05,3.45 -0.5,1.43 -0.6,8.1 -0.6,1.31 -0.72,0.26 -4.95,0.03 -2.8,1.94 -0.71,0.09 -5.7,-4.06 -0.16,-1.97 -0.47,-1.25 0.15,-3.44 3.56,-4.15 4.55,-7.71 5.93,-8.65 8.47,-9.6 -1.09,-2.21 -1.56,-1.31 -0.96,0.39 -3.13,3.13 -0.96,0.18 -7.21,-4.49 -2.55,-2.41 0,0 1.74,-2.45 0.91,-2.78 0.94,-6.55 2.57,-6.97 1.28,-9.06 2.54,-6.97 1.07,-7.94 0.95,-3.18 3.87,-7.98 3.35,-5.57 2.75,-3.6 2.05,-4.79 6.09,-7.01 1.55,-4.11 2.49,-3.78 1.99,-4.86 2.24,-2.44 z"
     title="Gamprin"
     id="LI-03" />
  <path
     d="m 183.7808,150.75437 2.22,-0.11 1.11,-0.6 3.51,-5.67 4.41,-3.84 10.59,-5.33 3.47,-0.11 0.61,-0.79 -0.38,-1.13 0.38,-0.57 2.27,-0.26 1.9,1.53 3.74,1.62 0,0 -5.37,6.17 -11.46,19.42 10.88,10.91 18.61,9.21 17.74,12.45 11.99,17.41 16.25,26.35 -4.94,15.88 -11.03,14.31 0,0 -1.1,0.65 -0.98,-0.66 -5.87,-5.89 -4.73,-3.6 -3.8,-0.7 -2.79,1.02 -1.24,0.05 -6.41,-1.76 -8.76,-5.77 -4.19,-0.81 -3.25,-1.18 -2.43,-1.73 -4.45,-4.46 -0.86,-1.36 0.33,-0.94 6.47,-3.18 6.83,-2.38 0.98,-0.85 -3.32,-11.01 -3.19,-6.32 -2.78,-3.34 -4.82,-0.07 -17.71,4.38 -0.75,0.49 -0.6,1.17 -1.38,5.66 -0.67,0.48 -1.49,-0.43 -2.36,0.12 -5.19,5.94 -0.87,0.28 -19.17,-14.26 -14.56,-12.66 -1.58,-2.75 -0.11,-1.4 0.52,-1.55 0.13,-2.39 1.74,-5.31 2.21,-3.1 8.88,-5.77 -0.24,-1.08 -4.21,-4.29 -0.83,-1.53 6,-9.36 1.69,-1.7 1.91,-0.65 2.2,0.02 0.95,0.44 2.95,0.44 1.78,-2.69 2.17,-2.19 4.98,-3.85 z"
     title="Mauren"
     id="LI-04" />
  <path
     d="m 152.3808,305.45437 -0.6,-0.05 -2.57,-2.12 -1.55,-2.38 -0.13,-1.64 1.26,-2.34 1.15,0.11 5.54,3.05 0.48,3.91 -0.5,0.5 -3.08,0.96 z m 69.14,-29.52 1.4,6.04 2.11,4.92 0.59,0.66 1.3,0.08 7.92,-2.53 9.98,5.96 0,0 1,21.19 5.32,27.33 5.98,15.28 15.67,13.79 14.74,11.6 0,0 -0.64,2.44 -1.1,1.72 -1.88,1.91 -0.58,1.19 -0.18,2.82 -1.03,3.11 -3.89,3.96 -1.86,1.36 -0.88,1.85 -1.46,1.78 0,0 -1.43,-0.09 -7.36,-2.19 -7.16,-3.93 -8.06,-6.54 -14.76,-12.83 -6.45,-4.89 -12.86,-6.48 0,0 5.87,-8.11 4.23,-3.39 1.53,-3.39 2.84,-4.35 -19.45,-12.11 -6.23,-4.69 -10.2,-0.63 -0.87,0.71 -1.83,3.62 -1.3,0.5 -14.28,-3.44 -1.07,-0.51 -0.39,-0.66 0.02,-6.1 -0.5,-1.99 -0.1,-5.62 -2.19,-4.45 -3.37,-4.19 -4.93,-3.39 3.5,-7.18 2.45,-6.31 2.19,-3.85 0.91,-0.07 4.26,1.63 3.7,-2.35 3.44,-2.98 8.37,-1.24 2.3,-1.24 0,0 1.8,1.74 5.09,3.02 1.51,1.95 1.25,3.33 1.89,-0.81 0,0 3.57,-1.28 6.11,1.77 1.86,-3.89 0.82,-9.51 0,0 2.77,-0.05 z m -34.29,44.02 0.75,0.36 0.3,3.03 0.76,0.46 1.91,-0.07 1.32,-0.48 3.79,-0.08 1.26,-0.67 0.63,-1.44 -0.21,-0.98 -3.46,-4.23 -5.63,-0.28 -2.56,-3.08 -3.85,-0.11 -0.44,0.77 0.09,4.43 0.92,1.13 2.02,1.2 2.4,0.04 z m -54.73,-49.16 1.74,0.53 2.97,0.07 1.19,0.47 2.72,0.12 1.19,0.47 2.58,0.09 1.18,0.47 3.8,0.24 0,0 0.86,0.75 0,0 10.22,10.83 -0.07,1.62 -2.22,3.88 -1.09,1.24 -1.33,-0.69 -12.28,-11.64 -9.38,-4.27 -1.85,-2.94 -0.23,-1.24 z"
     title="Planken"
     id="LI-05" />
  <path
     d="m 140.2508,10.534367 2.02,-3.3900001 5.45,-6.75 7.33,8.81 11.32,11.7400001 14.21,18.65 20.07,17.74 4.97,6.42 0,0 -1.63,-0.93 -5.84,6.95 -5.38,5.42 -10.81,10.23 -8.92,7.26 -6.16,6.48 -1.62,2.300003 0.22,0.7 7.53,7.63 5,3.43 1.28,0.42 9.04,-5.92 12.69,-12.130003 5.48,-4.41 1.37,-0.49 -0.02,1.38 -1.7,3.71 -5.48,10.360003 -6.99,7.04 -6.2,4.56 -4.66,5.74 -6.63,3.44 -7.86,5.07 -6.09,3.44 -4.25,4.14 -2.9,0.07 -2.51,-0.57 -2.59,0.29 -6.55,11.58 0,0 -6.91,-0.07 -2.41,-2.24 -0.62,-0.94 -0.06,-4.41 -1.17,-4.15 -1.7,-1.72 -3.8,-1.29 -1.65,-1.05 -0.22,-1.04 0.25,-2.12 -0.29,-0.92 -1.67,-2.25 -3.74,-3.83 -0.83,-0.01 -3.21,2.14 -3.54,2.98 -3.76,2.16 -2.51,-1.08 -3.83,-2.41 0.1,-0.54 -0.49,-0.31 0,0 3.84,-4.6 1.55,-4.1 2.5,-3.76 1.54,-4.16 2.74,-3.64 3.19,-5.65 2.16,-6.560003 2.35,-4.03 1.63,-7.82 2.36,-4.04 1.7,-5.65 2.14,-4.65 1.71,-5.64 2.45,-3.95 1.71,-5.62 2.45,-5.69 1.57,-6.17 2.32,-5.87 0.38,-2.24 0.14,-11.78 -0.36,-4.75 z"
     title="Ruggell"
     id="LI-06" />
  <path
     d="m 281.6608,634.19437 6.01,0.18 1.5,0.58 6.1,4.1 11.43,3.89 6.41,1.29 3.34,1.03 1.69,-0.07 1.98,-0.77 0,0 1.34,3.22 0.59,2.62 0.08,2.77 1.63,3.94 3.38,4.22 2.82,2.69 2.16,3.38 0.76,2.41 1.67,3.39 1.33,1.79 1.27,3.31 1.12,0.79 0,0 -3,20.06 -9.42,40.52 2,2.31 -1.65,-0.01 -2.26,0.98 0,0 -5.16,-3.47 -3.1,-4.74 -3.42,-2.38 -3.77,-3.29 -3.24,-4.44 -4.15,-8.74 -6.4,-5.06 0.33,-0.74 5.95,-5.83 0.4,-0.93 -7.28,-13.96 -5.54,-18.14 -5.67,-15.06 -1.02,-4.36 3.01,-8.47 -2.96,-7.07 -0.26,-1.94 z m -14.7,-194.71 1.16,1.15 1.3,0.67 5.42,0.11 4.15,1.2 6.55,3.89 4.06,2.96 6.34,2.77 2.74,0.67 6.64,0.16 3.04,3.6 3.13,2.56 0,0 -1.18,2.22 -7.63,10.86 -4.51,4.74 -1.01,0.69 -6.92,2.14 -7.11,0.67 -1.23,0.69 -0.02,1.14 4.64,7.03 1.32,3.92 5.46,4.98 8.13,0.15 2.31,0.53 3.83,0.07 3.7,-1.06 2.78,0.05 3.02,0.71 3.78,5.72 2.32,0.14 6.15,1.6 4.09,0 2.08,-0.71 0,0 1.53,2.13 0.22,2.4 1.41,3.15 0.1,5.22 0.94,2.91 0.12,3.07 1.18,4.5 1.15,0.63 5.39,1.33 15.69,7.17 4.15,3.04 1.15,0.22 -0.33,3.22 0,0 -7.9,13.89 3.87,3.81 0,0 -2.43,2.97 -1.77,3.26 -4.49,-0.93 -16.76,-5.33 -2.2,0.44 -7,-0.03 -2.06,0.5 -2.07,-0.52 -5,-0.08 -4.55,-1.05 -4.05,-0.04 -1.94,0.78 -2.84,2.72 -3.26,2.17 -2.1,0.7 -2.66,0.14 -2.41,1.53 0,0 -0.92,-0.19 -3.1,-1.92 -4.2,-1.28 -2.9,-1.52 -5.98,-0.12 -3.29,-1.04 -2.72,-0.07 0,0 0.53,-2.81 0.08,-4.43 0.48,-1.91 0.05,-6.11 0.52,-1.63 0.08,-3.7 3.63,-9.2 2.77,-8.98 0.11,-3.31 0.52,-1.74 -0.19,-5.09 -0.71,-0.81 -8.58,-1.28 -6.46,-2.6 -5.7,-0.73 -3.44,-1.18 -6.01,-4.7 -2.59,-2.93 -2.5,-3.58 -9.82,-6.22 -0.59,-0.66 -0.62,-1.74 0.17,-2.77 2.45,-3.62 1.39,-3.7 3.08,-4.44 1.13,-0.08 2.45,2.06 1.09,-0.16 1.69,-2.38 -0.03,-4.24 0.34,-1.01 3.95,-3.72 3.57,-4.63 2.38,-1.8 4.83,-4.87 2.78,-6.18 0.6,-2.42 0.07,-4.5 z m -77.91,-123.84 4.38,0 1.2,0.47 3.23,4.16 0.04,1.2 -0.57,1.02 -1.66,0.75 -3.67,0.03 -1.9,0.53 -1.55,-0.15 -0.3,-0.58 -0.03,-2.37 -0.42,-0.58 -3.25,-0.31 -2.54,-1.98 -0.12,-5.11 0.63,-0.42 3.6,0.16 0.96,0.86 1.37,2.1 0.6,0.22 z m -106.86,-48.35 1.27,1.82 4.51,15.88 0.53,1.09 6.65,8.49 3.45,10.46 0.61,1.16 0.79,0.22 6.47,0 2.51,-0.51 6.63,0.03 3.33,-0.5 0.51,-0.4 -7.42,-35.88 0,0 8.54,-0.03 2.09,0.5 2.88,0.12 1.23,0.47 2.53,0.1 1.21,0.47 2.02,0.04 0,0 0.21,1.25 1.85,2.94 9.38,4.27 12.28,11.64 1.33,0.69 1.1,-1.24 2.22,-3.88 0.07,-1.62 -10.22,-10.83 0,0 2.96,0.23 6.9,1.63 2.38,-0.09 3.76,-1.28 0,0 3.17,-0.86 6.37,-2.48 6.71,-0.03 6.4,3.96 2.23,1.7 0.93,1.55 0,0 2.32,1.28 0,0 -2.3,1.24 -8.37,1.24 -3.44,2.98 -3.69,2.35 -4.26,-1.63 -0.91,0.07 -2.19,3.85 -2.45,6.31 -3.5,7.18 4.93,3.4 3.37,4.19 2.19,4.45 0.1,5.62 0.5,1.99 -0.02,6.1 0.39,0.66 1.07,0.51 14.28,3.44 1.3,-0.5 1.84,-3.62 0.87,-0.71 10.2,0.63 6.23,4.69 19.45,12.11 -2.84,4.35 -1.53,3.39 -4.23,3.4 -5.87,8.11 0,0 -1.42,1.58 -3.44,5.58 -5.66,6.75 -0.5,1.48 0,0 -9.86,-4.9 -3.06,-0.09 -1.4,-0.48 -3.46,-0.08 -3.08,-0.55 -8.84,0.5 -7.27,-0.04 -6.92,1.01 -5.06,-0.04 -15.06,-4.86 -8.21,-1.28 -1.2,-0.47 -2.57,-0.01 -0.5,0.36 -3.99,8.08 -2.09,0.67 -3.32,0.01 -0.84,0.73 0.48,3.31 0.01,6.3 0.5,2.36 -0.2,3.91 -7.51,1.85 -7.08,3.03 -0.91,0.07 -9.96,-5.63 -1.62,-1.05 -1.11,-1.24 -4.3,-20.44 -0.01,-3.57 1.03,-2.48 -0.01,-1.28 -1.4,-0.65 -1.9,-0.16 -11.68,-2.65 -2.15,-0.12 -1.07,-0.44 -8.85,-0.01 -0.3,0.46 0,1.48 2.07,9.36 0.11,2.33 0.64,1.85 25.96,22.68 0,0.84 -1.91,2.41 -0.2,0.89 0.67,0.96 3.06,2.64 2.28,12.39 3.23,9.35 1.63,2.84 9.54,11.94 -0.12,0.66 -1.77,1.02 -5.19,2.14 -1.78,0.07 -2.07,-6.88 -3.11,-3.76 -6.08,-8.87 -5.75,-7.23 -1.32,-0.57 -6.14,-0.01 -3.23,0.51 3.46,6.14 13.95,20.43 5.61,22.28 0,0 -3.01,-6.04 -4.1,-6.31 -7.87,-7.51 -2.24,-2.54 -2.05,-5.22 -3.06,-4.52 -2.04,-5.79 -2.3,-4.82 -1.97,-5.78 -2.2,-3.34 -2.15,-5.04 -2.66,-3.98 -1.74,-4.23 -2.67,-3.99 -1.73,-4.24 -2.97,-5 -4.17,-13.74 -1.81,-10.36 -2.79,-7.21 -1.52,-9.2 -3.43,-15.14 -1.5,-16.73 0.7,-10.33 0.54,-3.35 2.6,-9.77 0.82,-11.96 2.92,-12.19 0,0 4.33,2.49 4.39,3.36 6.05,12.87 0.88,0.5 1.61,-1.1 22.37,-20.77 1.21,-0.59 z m 44.78,59.89 1.41,0.67 3.56,7.38 1.1,1.06 4.59,2.17 1.04,-0.63 4.31,-6.57 -0.07,-0.63 -0.53,-0.57 -6.98,-5.44 -9.43,-4.54 -1.08,0.28 -1.67,4.96 -0.15,1.35 0.71,0.49 3.19,0.02 z m 21.53,-29.96 -1.06,2.68 0.21,1 1.56,2.38 2.75,2.2 3.69,-1.13 0.37,-1.13 -0.68,-3.37 -5.96,-2.98 -0.88,0.35 z"
     title="Schaan"
     id="LI-07" />
  <path
     d="m 217.6108,135.49437 -3.74,-1.62 -1.9,-1.53 -2.27,0.26 -0.38,0.57 0.38,1.13 -0.61,0.79 -3.47,0.11 -10.59,5.33 -4.41,3.84 -3.51,5.67 -1.11,0.6 -2.22,0.11 0,0 -0.73,-0.85 -0.8,-2.53 -2.02,-3.54 -0.61,-0.6 -0.52,0 -3.47,2.05 -3.02,3.6 -4.07,3.49 -2.68,3.25 -0.33,1.02 0,0 -3.18,-0.12 -1.6,0.51 -3.24,0 -2.94,-1.03 -1.35,-0.1 -5.76,1.58 -2.01,-0.05 -2.18,-1.16 -0.63,-0.76 0,-3.13 0.8,-1.44 0,0 6.55,-11.58 2.59,-0.29 2.51,0.57 2.9,-0.07 4.25,-4.14 6.09,-3.44 7.86,-5.07 6.63,-3.44 4.66,-5.74 6.2,-4.56 6.99,-7.04 5.48,-10.360003 1.7,-3.71 0.02,-1.38 -1.37,0.49 -5.48,4.41 -12.69,12.130003 -9.04,5.92 -1.28,-0.42 -5,-3.43 -7.53,-7.63 -0.22,-0.7 1.62,-2.300003 6.16,-6.48 8.92,-7.26 10.81,-10.23 5.38,-5.42 5.84,-6.95 1.63,0.93 0,0 11.41,14.71 19.85,29.490003 -11.47,18.59 z"
     title="Schellenberg"
     id="LI-08" />
  <path
     d="m 146.3408,511.43437 4.53,6.64 0.26,6.55 5.08,7.02 0,0.82 -1.48,3.3 0.08,1.11 3.15,4.27 0.94,0.62 3.56,1.2 1.71,-0.47 2.58,0.12 2.33,7.33 0.04,9 -0.51,1.91 -0.1,2.46 -2.22,10.96 -2.63,6.17 0.14,0.89 3.18,5.45 1.14,1.15 2.38,0.1 1.84,-0.53 2.63,-0.05 1.13,-0.46 2.52,-0.02 5.21,-0.98 1.09,0.26 10.65,8.18 0.76,2.05 0.67,4.34 0.79,2.28 13.19,14.28 5.7,4.36 1.23,0 9.45,-5.56 1.12,-0.05 6.5,7.86 0,13.73 0.52,2.38 0,0 -7.38,7.45 -2.7,3.21 -2.77,6.04 0.92,11.22 0.01,5.36 -1.06,4.87 0.73,2.33 3.62,6.16 3.22,3.84 5.34,5.45 0.81,0.59 7.95,1.73 4.41,0.02 5.08,-1.21 6.77,-3.73 3.55,-2.36 3.99,-1.36 2.83,-2.5 -0.72,-3.22 -4.21,-4.29 -2.42,-1.89 -3.8,-4.61 -1.11,-3.54 -0.02,-4.65 -0.48,-1.67 -0.04,-4.45 -0.57,-3.35 -4.75,-5.93 0.12,-2.56 1.88,-3.21 0.72,-2.22 0,0 1.5,-1.2 1.03,-1.41 1.69,-3.04 1.2,-3.91 -1.15,-5.21 -2.55,-7.91 0.02,-14.11 -0.52,-1.75 0.03,-2.19 0.63,-0.42 5,0.04 1.44,-0.49 3.94,-0.02 1.42,-0.48 2.76,-0.1 0,0 -0.16,7.54 0.46,1.18 0.09,2.74 1.61,7.19 2.68,7.41 2.43,3.99 1.85,3.93 0.84,0.79 0,0 0.23,1.94 2.97,7.08 -3.01,8.47 1.02,4.36 5.66,15.06 5.55,18.14 7.28,13.95 -0.4,0.93 -5.95,5.83 -0.33,0.74 6.4,5.06 4.15,8.74 3.24,4.43 3.78,3.3 3.41,2.38 3.1,4.74 5.17,3.47 0,0 -4.25,2.46 -3.85,3.02 -4.28,1.89 -4.74,3.14 -4,1.65 -7.01,2.26 -2.03,1.55 -7.3,7.32 -5.75,1.82 -6.13,2.75 -6.43,2.01 -12.8,1.37 -12.96,2.17 -2.49,0.69 -9.31,4.62 -10.8,6.82 -4.96,4.04 -5.89,-3.27 -1.56,-1.46 -3.65,-4.95 -0.46,-2.04 -0.41,-10.59 -1.33,-9.17 -0.68,-2.87 -2.03,-4.36 -3.9,-4 -4.41,-3.38 -5.64,-2.19 -7.29,-5.6 -4.14,-1.47 -2.28,-1.33 0,0 -16.19,-21.01 -5.4,-5.31 -0.78,-1.42 -1.82,-6.2 -2.01,-4.18 0.05,-5.84 1.51,-4.15 0.58,-2.92 0.37,-6.56 -0.26,-1.79 -0.96,-0.75 -2.72,-0.09 -1.17,-0.47 -2.59,-0.09 -2.54,-0.65 -4.95,-1.69 -3.23,-2.17 -1.06,-1.11 -1.11,-2.27 -1.58,-3.61 -1.38,-4.34 -4.48,-4.99 -2.94,-5.14 -1.12,-1.13 0,0 2.79,-6.41 1.66,-6.07 2.14,-4.72 0.72,-3.2 0.33,-5.58 -0.1,-25.12 -0.39,-3.24 -2.59,-9.39 -1.9,-10.84 -4.2,-10.2 -2.83,-5.79 1.07,-4.15 0.51,-5.2 -0.11,-6.54 -0.56,-5.1 -1.16,-5.14 -1.41,-9.08 -2.76,-9.58 0,0 8.37,-1.67 6.1,-0.61 1.71,-0.47 5.67,0.07 6.76,1.57 4,0.11 3.27,0.54 z"
     title="Triesen"
     id="LI-09" />
  <path
     d="m 296.5408,569.37437 2.41,-1.53 2.66,-0.13 2.1,-0.7 3.26,-2.17 2.84,-2.72 1.94,-0.78 4.05,0.04 4.55,1.05 5,0.08 2.07,0.52 2.06,-0.5 7,0.03 2.2,-0.44 16.76,5.33 4.49,0.93 1.77,-3.26 2.43,-2.97 0,0 14.52,14.29 10.76,17.95 8.18,23.76 -6.47,22.04 -3.46,23.33 -25.77,0.51 -22.94,10.27 -0.7,4.65 0,0 -1.12,-0.79 -1.27,-3.31 -1.33,-1.79 -1.67,-3.39 -0.76,-2.41 -2.16,-3.37 -2.81,-2.69 -3.38,-4.22 -1.63,-3.94 -0.08,-2.77 -0.59,-2.62 -1.34,-3.21 0,0 2.27,-1.38 0.7,-1.25 0.62,-3.11 0.09,-2.6 0.46,-1.18 0.09,-2.61 0.47,-1.18 0.11,-2.73 2.02,-5.62 1.28,-4.78 1.98,-4.22 0.03,-2.68 -3.03,-3.25 -1.61,-2.62 -1.12,-5.17 -0.13,-3.26 -1.08,-4.28 -0.7,-1.51 -2.87,-2.49 -2.81,-3.67 -2.44,-2 -0.85,-1.86 -1.59,-2.19 -2.69,-2.73 -5.38,-3.79 -4.42,-1.39 -2.97,-1.52 z m -22.52,-167 -2.09,5.05 -0.21,4.11 -1.12,2.59 -1.97,2.83 -0.09,2.79 -0.44,1.62 1.02,2.67 -0.53,1.72 -0.1,3.69 -0.46,1.21 0.5,2.45 -1.6,3.15 -0.27,1.64 0.29,1.6 0,0 -0.1,4.46 -0.6,2.42 -2.78,6.18 -4.83,4.87 -2.38,1.8 -3.57,4.63 -3.95,3.72 -0.34,1.01 0.03,4.24 -1.69,2.38 -1.09,0.16 -2.45,-2.06 -1.13,0.08 -3.08,4.44 -1.39,3.7 -2.45,3.62 -0.17,2.77 0.63,1.74 0.59,0.66 9.82,6.22 2.5,3.58 2.6,2.93 6.01,4.7 3.44,1.19 5.71,0.73 6.46,2.6 8.58,1.28 0.71,0.81 0.2,5.09 -0.52,1.74 -0.11,3.31 -2.77,8.98 -3.63,9.2 -0.08,3.7 -0.51,1.63 -0.05,6.11 -0.48,1.91 -0.08,4.43 -0.53,2.81 0,0 -2.62,6.66 -1.64,6.5 -0.15,2.54 -0.5,1.6 0.03,7.6 0.43,1.02 0.69,4.64 2.18,5.62 0,0 -2.76,0.1 -1.41,0.48 -3.95,0.01 -1.43,0.5 -5.01,-0.04 -0.63,0.42 -0.02,2.19 0.52,1.75 -0.02,14.11 2.55,7.91 1.15,5.21 -1.2,3.91 -1.68,3.04 -1.04,1.41 -1.5,1.2 0,0 -2.53,-1.04 -2.2,-0.08 -3.6,2.04 -2.22,0.62 -9.36,-3.07 0,0 -0.52,-2.38 0,-13.73 -6.5,-7.85 -1.12,0.05 -9.44,5.56 -1.23,0 -5.71,-4.36 -13.19,-14.28 -0.78,-2.27 -0.67,-4.34 -0.77,-2.04 -10.65,-8.18 -1.09,-0.27 -5.2,0.98 -2.52,0.03 -1.13,0.46 -2.63,0.05 -1.84,0.53 -2.38,-0.09 -1.14,-1.16 -3.18,-5.45 -0.14,-0.89 2.63,-6.18 2.22,-10.95 0.1,-2.46 0.51,-1.91 -0.04,-9 -2.33,-7.33 -2.58,-0.12 -1.71,0.47 -3.56,-1.2 -0.94,-0.62 -3.15,-4.27 -0.08,-1.12 1.49,-3.3 0,-0.82 -5.08,-7.02 -0.27,-6.54 -4.53,-6.65 0,0 5.64,-2.33 1.15,-4.36 0.1,-2.48 0.53,-1.87 -0.33,-1.6 -2.66,-2.17 -2.24,-2.58 -0.65,-2.48 -0.09,-3.69 -3.57,-4.79 -0.12,-2.91 -0.5,-1.59 0.05,-8.14 2.27,-8.52 2.3,-3.7 4.46,-2.07 1.52,-0.98 0.26,-0.59 -0.09,-2.34 -2.46,-5.4 -1.63,-4.81 0.04,-3.37 2,-1.31 2.58,0.71 4.51,7.73 2.86,1.28 0.88,0.07 1.35,-1.12 0.23,-0.86 -0.07,-4.86 -2.06,-5.47 0.11,-2.06 1.14,-1.72 2.94,-0.66 6.35,0.14 3.32,2.25 3.51,5.37 0.97,0.43 6.27,-2.8 4.18,-4.05 3.78,-1.59 2.37,-0.27 0.02,-2.19 -3.07,-12.1 -0.04,-1.87 4.21,-11 1.86,-5.97 2.5,-5.37 2.17,-5.95 0.12,-3.34 -0.34,-1.28 0,0 0.5,-1.48 5.67,-6.75 3.44,-5.58 1.42,-1.58 0,0 12.86,6.48 6.45,4.89 14.76,12.84 8.06,6.55 7.16,3.93 7.36,2.19 1.31,0.05 z"
     title="Triesenberg"
     id="LI-10" />
  <path
     d="m 273.4408,563.23437 2.72,0.07 3.29,1.04 5.98,0.12 2.9,1.52 4.2,1.28 3.1,1.93 0.92,0.19 0,0 2.94,1.51 4.42,1.39 5.38,3.8 2.69,2.73 1.59,2.19 0.85,1.86 2.44,2.01 2.81,3.67 2.87,2.49 0.71,1.51 1.08,4.28 0.13,3.26 1.12,5.17 1.61,2.62 3.03,3.26 -0.03,2.68 -1.98,4.22 -1.28,4.78 -2.02,5.62 -0.11,2.73 -0.47,1.18 -0.08,2.57 -0.46,1.18 -0.08,2.6 -0.62,3.11 -0.69,1.25 -2.27,1.39 0,0 -1.98,0.77 -1.69,0.07 -3.34,-1.03 -6.41,-1.29 -11.43,-3.89 -6.1,-4.1 -1.5,-0.58 -6.01,-0.17 0,0 -0.84,-0.79 -1.85,-3.93 -2.43,-3.99 -2.68,-7.41 -1.62,-7.18 -0.09,-2.74 -0.46,-1.18 0.16,-7.53 0,0 -2.18,-5.62 -0.69,-4.64 -0.43,-1.02 -0.02,-7.6 0.5,-1.6 0.15,-2.54 1.64,-6.5 2.61,-6.72 z m 38.04,-104.02 5.52,4.85 4.78,5.13 3.5,2.44 4.83,6.11 1.14,3.08 0,9.96 0.59,3.66 1.96,3.41 1.62,5.88 0.05,1.75 0,0 -2.08,0.71 -4.09,0 -6.15,-1.6 -2.32,-0.13 -3.78,-5.72 -3.02,-0.71 -2.78,-0.06 -3.7,1.06 -3.83,-0.07 -2.31,-0.52 -8.12,-0.15 -5.46,-4.98 -1.31,-3.92 -4.64,-7.03 0.02,-1.14 1.23,-0.69 7.11,-0.67 6.92,-2.14 1.01,-0.69 4.51,-4.74 7.63,-10.86 1.17,-2.22 z m -217.72,9.64 -5.61,-22.28 -13.95,-20.42 -3.46,-6.14 3.23,-0.51 6.14,0.01 1.32,0.57 5.75,7.23 6.07,8.87 2.99,3.65 2.07,6.88 1.78,-0.07 5.19,-2.14 1.77,-1.02 0.12,-0.66 -9.54,-11.94 -1.63,-2.84 -3.23,-9.35 -2.28,-12.39 -3.06,-2.64 -0.67,-0.96 0.2,-0.89 1.91,-2.41 0,-0.83 -25.96,-22.68 -0.64,-1.84 -0.11,-2.33 -2.07,-9.36 0,-1.48 0.3,-0.46 8.86,0.01 1.07,0.44 2.15,0.12 11.68,2.65 1.9,0.16 1.4,0.65 0.01,1.28 -1.03,2.48 0.01,3.57 4.3,20.44 1.11,1.24 1.62,1.05 9.96,5.63 0.91,-0.07 7.08,-3.03 7.51,-1.84 0.2,-3.91 -0.5,-2.36 -0.01,-6.3 -0.48,-3.31 0.84,-0.73 3.32,-0.01 2.09,-0.67 3.99,-8.08 0.5,-0.36 2.57,0.01 1.2,0.47 8.21,1.28 15.06,4.86 5.06,0.04 6.92,-1.01 7.27,0.04 8.84,-0.5 3.08,0.55 3.46,0.08 1.4,0.49 3.07,0.09 9.86,4.9 0,0 0.34,1.28 -0.12,3.34 -2.17,5.95 -2.5,5.37 -1.86,5.97 -4.21,11 0.04,1.87 3.07,12.11 -0.02,2.19 -2.37,0.27 -3.78,1.59 -4.18,4.05 -6.27,2.8 -0.97,-0.43 -3.51,-5.37 -3.32,-2.25 -6.35,-0.13 -2.93,0.66 -1.14,1.72 -0.11,2.06 2.06,5.47 0.07,4.86 -0.23,0.86 -1.35,1.12 -0.88,-0.07 -2.86,-1.28 -4.51,-7.73 -2.58,-0.71 -2,1.31 -0.04,3.37 1.63,4.81 2.46,5.4 0.09,2.34 -0.26,0.59 -1.52,0.98 -4.45,2.07 -2.3,3.7 -2.27,8.52 -0.05,8.14 0.5,1.59 0.12,2.91 3.57,4.79 0.09,3.69 0.65,2.48 2.24,2.58 2.66,2.17 0.33,1.6 -0.53,1.87 -0.1,2.48 -1.15,4.36 -5.64,2.33 0,0 -3.85,0.59 -3.27,-0.54 -4,-0.11 -6.76,-1.57 -5.67,-0.07 -1.71,0.47 -6.1,0.61 -8.36,1.67 0,0 -2.09,-10.7 -2.76,-7.42 -2.1,-10.11 -2.1,-4.95 -2.24,-7.32 -1.5,-3.12 z m 44.6,-141.76 4.01,2.98 0.63,0.98 -4.34,6.79 -0.82,0.65 -5.47,-2.75 -4,-7.88 -1.4,-0.67 -3.45,-0.07 -0.46,-0.65 1.82,-6.1 1.08,-0.28 8.58,4.01 3.82,2.99 z m 68.02,-38.2 -1.89,0.81 -1.24,-3.33 -1.54,-1.99 -5.09,-3.02 -1.8,-1.74 0,0 -2.32,-1.28 0,0 3.75,-2.57 0,0 6.54,5.93 3.59,7.19 z m -94.38,-19.77 7.42,35.88 -0.51,0.4 -3.32,0.5 -6.63,-0.03 -2.51,0.51 -6.47,0 -0.79,-0.21 -0.61,-1.16 -3.45,-10.46 -6.65,-8.49 -0.53,-1.09 -4.5,-15.87 -1.27,-1.82 0,0 2.89,-0.04 2.15,0.54 5.41,0.03 0,0 4.24,0.04 2.75,0.55 9.07,0.07 3.31,0.65 z"
     title="Vaduz"
     id="LI-11" />
</svg>
