<?xml version="1.0" encoding="UTF-8" standalone="no"?>
<!-- Created for MapSVG plugin: http://mapsvg.com -->
<svg
   xmlns:mapsvg="http://mapsvg.com"
   xmlns:dc="http://purl.org/dc/elements/1.1/"
   xmlns:rdf="http://www.w3.org/1999/02/22-rdf-syntax-ns#"
   xmlns:svg="http://www.w3.org/2000/svg"
   xmlns="http://www.w3.org/2000/svg"
   mapsvg:geoViewBox="-87.690700 15.026288 -82.737853 10.707073"
   width="594.9704"
   height="529.08319">
  
  <path
     d="m 493.9455,171.948 -0.85,0.21 -0.28,-0.39 0.85,-0.96 -0.48,-0.96 2.04,-1.47 0.29,0.18 0.03,1.16 -1.6,2.23 z m 100.46,-95.460002 0.31,4.42 -1.75,2.91 -2.75,0.14 -0.61,-0.77 -1.6,-0.4 -2.28,0.75 -0.19,-0.29 0.5,-0.75 1.51,-0.76 0.33,-1.07 1.31,-1.67 0.17,-1.44 0.78,-0.86 1.11,-0.43 1.46,0.43 1.23,-0.43 0.47,0.22 z m -51.14,-67.6899996 -1.68,0.36 -1.8,-0.23 -0.21,-0.31 0.21,-0.21 1.87,0.4 1.85,-0.49 -0.24,0.48 z m 1.87,-3.6 -1,1.95 -0.36,-0.23 0.18,-0.92 -0.23,-0.17 -0.34,0.78 -0.59,-0.11 0.09,-1.07 2.53,-1.34 0.21,0.55 -0.49,0.56 z m -25.05,-1.7 0.52,0.48 0.71,-0.17 0.25,-1.54 0.34,-0.11 1.69,0.4 3.31,1.59 2.67,-0.53 0.29,0.23 -0.11,0.71 -1.59,1.39 1.07,0.75 0.39,0.01 0.75,-1.19 2.52,-0.08 1.97,0.48 3.33,-1.54 2.15,0.36 2.15,1.54 -0.12,1.43 -0.99,0.27 -0.19,-0.21 0.76,-0.61 -0.15,-0.23 -0.61,0.42 -0.43,-0.74 -0.94,0.08 -0.92,-0.89 -0.44,0 -1.08,1.88 0.5,0.09 0.42,-0.56 0.32,0.04 0.14,0.39 -0.46,0.77 -3.15,3.5999996 -0.69,0.32 -3.36,4.05 -1.12,2.67 -0.4,3.71 -3.42,7.89 -2.75,0.16 -0.37,-0.42 0.95,-0.55 -0.12,-0.88 1.44,-1.17 -0.12,-0.59 -1.23,0.78 -0.29,-0.19 -0.15,-1.57 0.74,-1.08 0.7,-0.34 0.46,0.51 1.41,0.31 0.75,0.82 0.25,-0.27 -0.28,-1.61 -1.55,-2.96 -0.49,-4.29 -0.41,-0.99 -0.67,-0.49 -2.77,0.2 -2.01,1.21 -1.1,1.32 -2.61,5.07 -0.65,0.09 -1.76,-1.07 -0.59,0.09 1.29,1.25 0.06,2.44 -0.47,0.7 -1.52,0.5 -0.55,0.86 0.08,0.58 0.82,0.14 0.85,-1.27 0.31,0.05 0.28,1.42 1.33,-0.62 0.44,2.61 1.16,2.04 -0.01,1.21 3.46,2.86 2.92,-0.22 0.31,-1.5 -1.03,-1.64 -3.36,-0.66 0.11,-0.66 3.11,0.2 1.08,1 0.68,1.22 0.69,0.21 0.01,-0.48 -0.83,-0.99 0.38,-0.56 -0.26,-0.94 0.72,-0.95 0.55,0.08 2.6,13.87 1.39,4.73 0.53,3.61 3.89,12.35 0.72,0.86 0.37,2.54 -0.82,-1.54 -2.15,0.18 -1.54,-1.23 -0.1,-0.63 0.41,-0.47 -0.63,-1.89 -2.31,-3.58 -0.9,-0.04 0.35,0.91 -0.32,0.45 0.08,0.29 1.28,0.38 -0.33,2.35 0.23,0.11 0.58,-0.86 0.55,0.22 -0.29,1.02 1.05,3.35 -0.19,1.94 0.73,0.12 1.13,-0.87 0.86,0.04 0.48,-1.06 0.4,-0.01 0.51,1 0.69,0.29 0.63,1.63 0.42,0.26 0.43,-0.5 0.37,0.06 0.3,0.77 -0.2,1.47 2.1,12.83 -2.42,7.57 -4.2,9.170002 -3.12,5.59 0.06,-0.9 1.26,-2.11 0.09,-1.42 1.14,-1.61 -0.02,-2.49 0.82,-1.330002 1.65,-4.69 -0.02,-1.65 -1.49,-2.49 -1.62,-1.38 0.26,-0.72 1.18,1.16 0.22,-0.77 -2.12,-4.47 -2.55,-3.68 -1.13,-0.3 -1.04,2.06 1.5,1 1.49,2.67 -1.04,-0.38 -1.2,-1.27 -1.78,-0.32 -0.7,-0.92 -0.67,0 2.04,4.27 -1.75,0.28 -0.36,-1.35 -0.66,0.48 -0.88,0.1 -0.27,1.16 0.77,0.38 0.92,1.61 0.84,-1.37 0.87,-0.18 0.24,1.91 -0.67,2.42 0.88,1.34 0.27,1.53 1.46,0.76 0.19,-0.18 -0.55,-1 0.45,-0.24 0.94,0.36 1.59,1.32 -0.11,-1.4 0.92,0.39 0.16,1.32 -0.6,0.27 -0.27,0.82 1.91,1.42 -0.73,0.790002 0.18,1.74 -1.44,3.06 -1.35,-0.71 -0.78,1.5 -1.02,0.32 -0.17,0.35 0.9,0.2 1.71,-1.43 0.73,0.3 -1.37,2.33 -0.14,2.62 -0.62,0.39 -0.65,1.8 -2.38,1.99 -3.09,3.68 -1.12,2.72 -2.21,2.19 -1.13,1.62 -1.16,0.07 -2.49,2.25 -1.16,1.82 -0.42,1.35 -1.03,0.86 0.3,0.88 -1.2,2.39 -0.28,-1.1 -1.28,-1.48 0.12,-1.82 0.35,-0.7 2.19,-1.45 0.52,-2.06 -2.22,1.75 -0.96,-1.84 -2.58,-2.51 1.1,-2.83 -1.81,-1.32 0.18,-1.58 -2.25,-0.28 -0.16,-0.39 0.66,0.02 0.09,-0.38 -0.24,-1.65 -0.7,-1.13 0.11,-1.47 -0.45,-0.5 -2.46,-0.18 -1.52,-0.76 -0.26,-1.8 -1.08,-0.85 0.07,-1.95 -0.65,-1.77 0.62,0.46 0.34,-0.28 1.11,0.06 -0.64,-0.59 1.19,-2.99 -4.73,-3.500002 -0.36,-0.93 0.35,-1.52 -1.48,-0.25 -1.26,-2.89 -0.22,-1.59 -1.32,-0.23 -1.09,1.14 -0.69,-0.62 -2.1,-0.55 -1.78,0.91 -0.89,-0.1 -2.56,-1.52 -2.2,-0.62 -3.01,-1.66 0.35,0.88 0.72,0.42 3.26,0.89 3.86,2.42 0.91,0.01 0.83,-0.88 1.55,0.28 1.18,0.99 1.83,-1.09 0.71,0.67 0.06,1.54 1,2.26 0.75,0.51 0.77,0.02 -0.3,1.29 0.49,0.93 3.23,2.190002 1.27,1.5 -1.14,2.08 -0.83,0.01 -0.35,0.35 0.4,1.75 0,2.35 1.08,1.13 0.52,1.72 4.09,1.34 1.11,2.78 -0.78,1.2 0.15,0.97 0.37,0.37 1.6,0.05 -0.19,1.37 1.7,1.27 -0.06,0.73 -0.91,1.29 0.1,0.52 1.48,1.89 2.26,2.04 -0.12,0.94 -0.47,0.59 -1.57,0.55 -0.17,-1.25 -0.41,-0.35 -3.19,-1.61 -0.57,0.03 -0.8,0.97 -0.88,2.23 -0.11,1.15 0.37,0.35 3.34,-0.75 0.87,0.62 0.09,0.71 -1.3,1.79 0,1.01 0.62,0.81 1.28,0.05 1.61,-0.61 1.09,0.21 0.41,0.44 -0.55,2.52 0.17,1.38 -0.7,1.96 -0.05,0.86 0.59,0.93 -1.51,2.32 -1.82,4.23 -2.26,10.35 -2.88,19.99 -0.79,-0.64 -0.68,-3.61 0.12,-1.71 1.35,-4.03 -0.73,-2.2 0.57,-1.34 1.64,-1.88 0.18,-0.72 -1.44,-2.86 -0.84,-0.23 0.44,0.71 -2.9,0.31 -0.58,0.57 0.71,1.41 1.38,0.52 -0.33,0.83 -1.72,0.78 -3.1,-0.61 -1.95,0.72 -0.43,0.59 0.09,1.61 -0.39,0.51 -1.72,-1.6 -1.38,-2.3 -0.31,-1.14 0.12,-1.69 -0.46,-0.97 -0.89,-0.81 -1.99,-0.34 -2.7,-3.22 -0.43,-2.51 -0.62,0.57 0.14,1.52 1.1,2.78 4.71,2.83 0.27,2.13 0.73,1.62 2.84,3.42 -0.05,0.28 -1.41,-0.22 -0.18,0.41 1.15,0.51 0.53,-0.33 0.67,0.35 1.76,2.28 1.2,2.92 1.76,0.59 -0.44,0.72 0.18,0.28 1.01,-0.07 0.73,0.44 0.68,-0.59 0.31,0.31 0.36,1.79 -0.94,0.65 -0.38,-0.89 -0.54,-0.29 0.04,1.24 0.41,0.48 1.54,-0.08 1.54,1.31 -0.09,1.26 -0.78,-0.44 -0.87,-0.07 -0.23,0.31 1.9,1.41 0.36,0.63 -0.83,1.11 -0.16,1.21 -1.64,3.64 -0.12,1.11 -1.34,-1.81 -1.02,-0.66 -1.67,-0.8 -1.4,0.27 1.15,1.18 2.73,1.49 -1.01,1.03 0.14,0.47 0.27,0.18 1.31,-1.34 -0.89,6.42 -0.73,0.76 -0.33,-0.13 0.63,-2.07 -1.69,0.27 -1.64,1.75 -0.6,1.27 -1.23,-0.39 -0.87,0.35 -0.88,2.75 -1.76,-0.42 -1.01,1 -3.89,2.41 -0.94,-0.27 -0.55,-1.79 0.37,-0.66 -0.26,-0.63 -3.34,-0.61 -1.4,-0.75 -2.52,0.65 -1.01,-0.1 -0.82,-0.96 -0.52,-1.96 -1.91,-1.49 -1.21,-1.71 -2.3,-0.79 -0.28,-0.5 0.1,-2.49 -3.73,-4.24 -0.12,-1.37 2.18,-2.09 -1.06,-3.96 -2.62,-2.94 -1.52,-0.19 -2.89,-1.35 -1.29,0.37 -1.46,1.39 -2.38,-0.23 0.74,1.02 1.1,0.04 1.51,-0.68 1.35,-1.42 1.17,0.42 0.71,0.86 1.66,0.61 1.14,-0.11 2.17,3.19 0.09,1.85 0.43,0.89 -0.14,0.62 -1.41,0.84 0.13,0.95 -0.47,1.41 1.61,1.83 0.34,0.88 1.11,0.17 -0.37,0.72 1.12,0.17 0.24,0.5 0.06,3.07 -0.5,0.79 -2.16,0.55 -2.93,2.59 -1.33,-0.06 -1.44,0.49 -1.59,-1.72 -0.98,-0.27 -2.14,0.18 -3.75,-0.33 -1.09,0.78 -0.93,-0.03 -1.55,-0.69 -0.18,-0.62 -0.81,-0.57 -2.46,-0.49 -0.38,-0.88 -1.32,-0.51 0.68,-1.17 -2.23,-0.37 -0.8,0.72 -0.27,-0.09 -0.06,-0.92 -2.18,-0.78 -0.8,0.76 -1.1,-0.23 -1.07,0.42 -1.11,-1.43 -2.06,1.45 -2.29,0.29 -6.38,-2.63 -1.2,-0.21 -0.41,0.68 -1.37,0.91 -0.57,1.86 0.71,0.31 0.55,-0.17 0.12,-1.63 1.54,-0.95 5.91,2.58 3.47,-0.1 1.8,-1.33 0.66,1 0.69,0.2 0.9,-0.5 2.4,-0.46 1.7,1.48 1.89,-0.66 0.08,1.22 1.73,1.01 0.78,0.91 2.39,0.72 3.3,1.83 2.04,-0.72 2.85,-0.24 2.63,0.55 2.56,1.69 1.3,-0.64 0.93,0.02 2.89,-2.01 2.83,-0.9 0.65,-0.76 0.47,-0.04 1.55,0.65 2.6,2.59 1.12,2.81 2.01,0.63 2.21,-0.71 2.44,0.96 1.85,-0.01 0.51,2.58 1.53,1.2 1.29,-0.17 1.39,-0.77 1.4,-1.5 1.58,-0.72 1.02,0.38 0.89,-0.39 0.59,-0.95 -0.09,-1.4 0.56,-0.46 0.67,0.33 2.39,3.24 1.65,-1.95 0.88,-2.47 0.32,0.01 0.24,0.61 -0.52,1.58 -1.22,14.94 1.44,15.57 2.1,14.27 0,0 -5.02,-0.73 -7.03,0.24 -21.45,-14.34 -0.67,-0.93 0.08,-0.71 1.27,-3.03 2.53,-4.44 -0.21,-0.86 -0.73,-0.44 -1.51,-0.35 -1.67,0.1 -3.01,-2.3 -5.2,0.03 -11.76,-2.39 -7.79,-0.91 -3.56,-1.36 -8.48,0.48 -1.51,0.6 -2.54,0.12 -3.27,2.47 -0.98,0.27 -1.12,-0.21 -0.81,-1.71 -0.65,-0.42 -1.03,0.57 -0.95,-0.14 -0.62,0.36 -0.94,-0.61 -0.72,-0.01 -1.13,0.61 -2.51,2.68 -25.39,0.67 -25.33,3.64 -6.78,9.49 -1.35,0.56 -5.23,0.91 -2.23,1.13 -2.11,3.52 -1.67,1.48 -10.68,-0.68 -5.45,-1.25 -5.99,4.13 0,0 -0.75,-1.36 -1.25,-1.11 -0.5,-1.19 0,-1.02 0.75,-1.7 3.76,-1.87 0.58,-0.85 -0.42,-1.02 1.59,-2.47 0.08,-1.02 -0.5,-0.68 -2.5,-0.17 -2.59,0.77 -1.25,1.11 -0.42,1.96 -0.83,-0.43 -0.92,-1.53 -2.59,0.17 -0.25,2.64 -0.33,0.43 -1.92,-2.6 -1.64,1.67 -1.52,-0.23 -1.23,1.72 -2.18,0.03 -0.47,0.27 -0.78,1.56 -0.81,0.07 -1.23,-0.94 -1.02,-0.1 -0.67,-1.21 -1.42,-0.34 -1,-2.28 -1.89,-0.39 -0.92,-1.34 -1.31,-0.78 -0.76,-1.1 -0.51,-0.22 -1.07,0.82 -1.77,0.2 -2.8,-1.9 -1.75,-2.31 -0.86,-2.08 -2.89,-1.47 -1.73,-3.21 -1.76,-1.23 -3.6,-4.53 -1.16,-2.81 -0.35,-2.17 -0.8,-1.63 0,0 -0.73,-2.19 0.11,-1.19 0.78,-1.34 1.52,-1.53 2.66,-1.65 3.69,-3.27 3.49,-1.17 1.53,-2.51 -0.13,-3.1 1.21,-2.6 0.7,-3.38 -0.59,-1.43 -2.15,-1.7 -1.19,-1.56 -0.17,-0.76 0.63,-1.66 2.9,-1.72 0.8,-0.93 1.43,-6.72 9.23,-0.22 16.5,-10.72 11.78,5.86 24.82,-40.27 -1.53,-7.17 4.67,-23.980002 -14.2,-0.84 -0.61,-1.51 -1.26,-0.23 -0.86,-2.01 -1.55,-0.89 -0.65,-1.99 -1.28,-0.72 -0.34,-0.76 0.2,-0.74 1.07,-0.28 0.89,-0.76 -0.06,-3.32 -0.7,-0.95 0.46,-1.75 0.52,-0.15 1.25,-1.37 0.1,-1.23 -1.2,-2.01 -1.84,-0.23 -1.68,-2.02 0.76,-1.67 -0.91,-0.78 0.03,-0.86 0.81,-1.52 0.16,-1.33 1.04,-1.56 -0.42,-1.54 -1.92,-0.88 -0.63,-0.9 -1.55,0.09 0,0 -1.52,-0.17 -0.22,-0.43 1.63,-1.65 0.29,-0.82 -0.55,-1.14 -2.22,-1.5 -0.3,-0.94 0.23,-0.68 0.8,-0.58 1.37,0.14 1.03,-1.89 -0.65,-0.55 0.07,-1.13 1.98,-1.99 1.65,-1 1.21,-1.52 1.28,-0.33 1.89,-1.74 3.91,-0.81 0.3,-1.73 1.2,-1.71 0.51,-1.41 1.59,-1.5 2.2,-0.1 2.48,0.39 2.58,-1.56 2.27,-0.44 1.14,0.69 0.87,0.01 0.54,0.84 0.67,0.17 0.41,1.94 0.85,1.24 3.33,2.14 0.3,1.11 -0.52,0.74 -1.06,-0.21 -0.72,0.74 0.58,0.84 0.67,0.17 1.43,-0.69 0.38,0.88 -0.57,1.45 0.45,1.74 2.89,2.53 1.26,0.29 0.86,3.33 1.1,0.09 1.78,-3.21 0.67,0.21 -0.13,0.67 0.7,0.76 1.33,0.73 2.65,-0.56 0.58,1.27 2.09,0.11 2,0.82 0.99,-0.38 1.01,0.92 1.51,-0.41 1.05,0.88 0.8,-0.54 3.52,-0.38 0.15,0.44 -0.56,0.74 -1.07,0.34 0.3,1.58 1.58,-0.17 1.23,-0.53 0.47,0.13 0.15,0.83 0.94,0.7 3.48,0.8 0.36,-0.12 1,-1.81 2.96,-0.2 2.78,-1.41 0.19,-1.29 3.03,-2.89 0.7,-1.67 1.18,-1.38 -0.08,-0.82 0.44,-0.38 1.29,0.93 1.3,0.31 -0.94,1.96 -0.01,0.82 0.33,0.39 0.86,0.45 1.73,0.17 0.73,-0.23 0.45,-0.76 0.92,-0.32 0.71,0.59 0.36,1.55 0.48,0.49 2.11,0.66 2.93,-2.41 -0.95,-0.88 0.37,-1.97 -1.16,-2.62 0.17,-1.63 0.49,-0.67 2.97,-2.07 1.15,0.11 0.81,0.64 -0.75,2.11 1.2,0.55 1.52,1.37 3.12,0.96 4.06,-0.71 0.79,-0.95 1.31,-0.56 3.65,0.44 -0.08,-1.89 -0.89,-0.68 -1.39,-3.34 0.06,-1.01 0.49,-0.67 1.74,-0.17 1.44,0.41 0.28,0.44 0.01,2.75 0.28,0.34 0.58,0.11 3.06,-1.54 0.43,0.06 0.58,2.71 1.97,0.51 2.86,-1.35 2.77,1.15 3.06,-1.3 0.58,0.01 1.19,0.89 0.96,0.06 0.2,-0.48 -0.97,-2.33 0.25,-0.33 1.54,0.07 0.68,-0.57 2.29,1.63 1.11,-0.42 -0.33,-0.58 0.41,-1.58 0.39,-0.09 0.57,0.54 0.45,1.79 1.65,-0.74 1.44,0.12 1.91,-2.09 4.73,-0.4 -2.67,-1.68 -0.14,-0.39 0.53,-0.28 2.39,1 0.83,-0.52 0.02,-1.2 0.34,-0.33 1.33,1.32 1.3,0.21 0.25,-0.62 -0.17,-1.11 0.69,-0.9 2.54,0.96 -0.08,-0.87 -0.66,-0.88 0.39,-0.19 1.25,0.17 0.97,-0.27 1.1,0.79 0.72,0.01 -0.13,-0.63 0.35,-0.86 -1.72,-0.7 0.44,-0.57 0.97,-0.08 0.73,-0.57 -0.12,-1.59 0.44,-0.09 0.9,0.79 2.19,-1.31 1.44,0.07 0.64,-0.57 0.82,0.01 1.63,0.27 0.43,0.44 -0.07,1.16 0.66,0.64 0.44,-0.23 -0.36,-1.31 1.19,-1.62 -0.57,-0.68 0.01,-0.53 2.47,-0.73 -0.36,-1.5 1.16,-0.07 1,0.6 1.07,-0.61 1.15,0.45 0.3,-3.22 0.49,-0.28 1.39,0.31 0.25,-0.48 -0.89,-1.51 0.29,-0.19 1.48,0.8 0.29,-0.24 -0.75,-0.9799996 -0.45,-1.89 0.45,-0.81 1.43,0.99 0.48,-0.14 -0.56,-1.07 -0.17,-1.3 0.35,-0.43 1.33,1.18 0.51,-1.29 0.84,-1 1.75,-0.64 1,0.49 -0.03,1.6 1.9,1.48 1.5,-0.31 1.9,-1.31 1.78,-0.06 1.96,-1.8 0.18,-3.23 0.91,0.17 0.97,1.17 1.44,0.03 1.29,0.54 0.78,1.29 z"
     title="Atlántico Norte"
     id="NI-AN" />
  <path
     d="m 477.3255,388.448 0.11,0.65 -0.78,-0.91 -2.12,-1.14 -0.86,-3.56 0.6,-2.59 -0.62,-2.19 0.15,-0.99 1.35,-1.52 0.2,-2.17 1.43,-1.44 0.93,0.11 -2.07,3.96 -0.4,4.37 0.47,4.04 0.57,1.41 0.99,1.22 0.05,0.75 z m -164.84,-146.73 5.99,-4.13 5.45,1.25 10.68,0.68 1.67,-1.48 2.11,-3.52 2.23,-1.13 5.23,-0.91 1.35,-0.56 6.79,-9.49 25.33,-3.64 25.39,-0.67 2.52,-2.68 1.14,-0.61 0.72,0.01 0.94,0.61 0.62,-0.36 0.95,0.14 1.03,-0.57 0.65,0.42 0.81,1.71 1.12,0.21 0.98,-0.27 3.27,-2.47 2.54,-0.12 1.52,-0.6 8.48,-0.48 3.56,1.36 7.79,0.91 11.76,2.39 5.2,-0.03 3.01,2.3 1.67,-0.1 1.51,0.35 0.73,0.44 0.21,0.86 -2.53,4.44 -1.27,3.03 -0.08,0.71 0.67,0.93 21.45,14.34 7.03,-0.23 5.02,0.73 0,0 2.29,8.78 0.4,3.16 0.97,2.52 -0.23,0.91 -0.89,0.82 -0.64,0.08 -0.54,-0.52 -0.09,-1.69 0.72,-2 -0.13,-0.96 -0.41,-0.37 -0.46,-0.03 -0.41,0.46 0.85,0.53 -0.91,2.12 0.39,0.75 0.21,2.1 -1.11,-0.44 -2.13,-0.05 -2.98,-1.64 -1.5,0.17 -0.39,0.32 0.18,0.56 1.83,1.14 0.03,0.36 -0.59,0.14 -1.2,-0.27 -2.77,-1.66 -0.74,0.1 -1.03,0.82 -0.97,-0.8 -4.31,-0.96 0.59,-0.83 -0.19,-1.07 -3.53,-1.54 -0.94,0.67 -0.96,-1.38 -0.57,0.06 -0.61,1.02 -0.36,0.06 -0.45,-1.53 -2.26,-1.61 -0.58,-2.3 -4.34,-1.51 -3.99,-2.02 -0.32,-0.77 -0.07,-2.36 -3.21,-3.81 1.36,-1.31 -1.09,-2.18 -0.66,-2.39 -0.65,-0.4 -1.58,-0.11 -0.08,-0.3 0.85,-0.42 0.18,-0.49 -0.67,-1.12 0.26,-1.13 -0.71,-0.5 -0.95,0.03 -0.42,-0.3 -0.56,-1.29 -1.6,-1.26 0.41,-3.08 -2.95,-2.2 -1.61,-0.68 -2.32,-2.14 -1.94,-0.72 -0.16,0.64 0.66,1.6 -0.35,0.51 -1.9,-0.09 -1.11,0.61 -1.11,-0.21 -2.77,1.96 -0.86,-0.35 -1.17,-1.48 -1.01,0.01 -0.52,0.47 0.36,0.97 -0.31,0.81 -5.85,1.42 -0.82,1.75 0,1.12 0.99,1.15 2.29,0.5 0.33,0.48 -0.47,0.36 -0.88,-0.31 -0.43,0.42 -1.46,2.88 -1.16,0.56 -3.95,0.02 -4.94,0.63 -2.75,1.96 -5.42,2.3 -4.24,6.18 -4.04,2.88 -2.08,0.45 -1.2,1.83 -1.23,-0.83 -1.52,-2.91 -5.79,-1.55 -2.28,-2.25 -4.28,0.2 -2.45,-0.49 -0.92,0.55 -0.5,1.39 1.45,-1.36 3.06,0.56 1.45,-0.43 1.31,-0.04 1.21,0.72 1.57,1.73 1.19,0.01 2.5,1.07 1.67,0.06 1.83,3.26 1.04,0.76 1.29,-0.03 1.29,-1.59 2.3,-0.66 4.09,-3.15 3.36,-5.6 3.67,-1.25 3.98,-2.83 0.92,-0.33 8.39,-0.68 1.93,-1.05 1.14,-2.52 1.62,0.28 0.4,-1.86 -2.35,-0.69 -1,-0.76 -0.07,-0.73 0.72,-1.9 3.49,-0.79 2.81,0.03 -0.65,-1.96 0.39,-0.51 0.74,0.03 0.59,1.17 0.79,0.55 2.37,-0.98 1.25,-1.23 1.44,0.88 0.36,-0.94 0.43,-0.19 2.17,0.05 0.29,-0.58 -0.66,-1.57 0.35,-0.38 1.47,1.52 2.76,1.3 1.3,1.26 1.51,0.71 0.37,0.58 -0.39,1.5 0.1,1.37 2.69,3.23 1.41,0.04 0.14,0.3 -0.96,1.15 0.4,0.37 0.61,-0.04 0.09,0.62 -1.19,1.19 0.23,0.32 2.17,0.27 0.52,1.38 0.9,1 0.56,1.6 -1.25,0.95 -0.31,0.7 1.63,1.29 1.69,2.42 -0.13,2.1 0.81,1.75 0.95,0.76 2.3,1 1.35,0.04 3.62,1.29 0.43,2.4 2.21,1.98 1.18,1.9 0.59,-0.08 0.19,-0.7 0.32,-0.1 1.72,1.39 0.89,-1.03 2.5,1.27 -0.48,1.53 0.91,0.76 3.52,0.37 0.95,0.83 2.48,-0.24 3.54,1.31 1.75,0.05 0.23,-0.89 -2.08,-1.63 0.83,-0.12 4.81,2.18 2.54,-0.04 0.29,2.2 0.98,-0.18 0.48,-2.66 0.67,-0.47 0.29,0.7 -1.39,4.03 -2.73,17.68 -0.71,5.64 -0.36,6.74 0.45,5.4 2.62,8.7 2.54,2.8 1.23,2.32 0.19,3.77 -0.65,5.35 -0.66,0.86 -0.67,0.05 -3.69,-0.88 -2.22,-0.12 -6.03,1.56 -0.98,1.36 -0.84,0.35 -0.95,-0.61 -0.28,-0.74 3.12,-4.28 0.54,-1.27 -2.36,-5.44 -1.3,-1.37 -0.48,-1.05 -0.3,-5.53 0.49,-3.85 0.75,-1.37 0.31,0.43 -0.28,1.17 0.2,0.53 2.31,-0.44 2.91,0.48 0.92,-0.54 0.39,-1.4 1.34,-1.45 0.27,-4.38 -0.83,-7.19 1.13,-2.39 0.28,-2.23 0.78,-1.55 -0.05,-0.53 -0.4,-0.05 -1.14,0.69 -0.5,-0.33 0.56,-1.38 1.44,-1.15 0.49,-0.89 0.24,-3.11 -0.67,-2.14 -3.21,-0.98 -2.44,-1.27 -2.44,-0.48 -0.58,0.31 -1.03,1.65 -1.46,0.02 -0.49,1.13 -0.99,-0.25 0.24,-3.95 -0.85,-4.31 -2.77,-1.79 -1.15,-0.29 -0.73,0.31 -0.92,3.22 0.34,0.94 1.19,1.49 2.28,0.25 -0.53,0.93 -1.51,0.34 -1.79,-0.11 -7.93,-3.81 -1.66,-0.32 -1.42,0.3 -3.48,1.64 -0.42,3.2 -2.93,-0.1 -1.39,2.31 -1.53,-0.62 -1.6,0.58 -0.62,-0.65 -1.51,-0.53 -1.85,-1.29 -0.64,-1.25 -0.62,-0.46 -0.7,0.1 -0.34,0.99 -2.13,-0.23 -0.22,-1.07 -1.67,-1.65 0.16,-1.22 -1.59,-0.08 -2.52,-1.96 -2.09,-0.11 -2.58,-0.89 -0.73,0.44 0.06,0.86 -0.54,0.64 -1.02,0.44 -1.03,-0.14 0.81,0.56 1.21,-0.37 0.69,-0.53 0.72,-1.53 0.76,0.14 0.66,0.74 2.43,0.09 1.18,1.17 0.95,0.06 0.69,0.61 1.17,0.21 -0.06,1.48 0.92,0.44 1.22,2.05 2.58,0.61 0.98,-1.23 0.81,1.34 1.7,1.43 1.47,0.4 1.6,1.05 2,-0.74 0.74,0.93 0.47,-0.27 1.33,-2.4 1.64,0.37 1.68,-0.51 0.22,-0.3 -0.26,-1.27 0.53,-0.96 -0.17,-0.75 3.63,-1.53 2,0.26 6.42,3.27 2.77,0.74 3.32,-0.36 1.32,1.19 -0.13,0.96 -4.44,-0.55 -4.38,-2.11 -2.33,-0.46 -0.88,-1.17 -0.83,0.14 -1.5,1.09 0.18,2.14 0.69,0.14 1.82,-1.24 1.99,-0.21 0.37,0.48 -0.66,1.81 -1.02,0.18 -0.18,0.45 2.17,0.86 0.17,0.64 -0.57,1.08 3.67,-0.02 0.85,-2.15 0.59,-0.65 1.89,-0.38 2.21,1.31 1.3,0.34 0.37,0.56 0.22,1.63 -0.66,1.98 0.09,0.64 2.06,0.52 0.65,-0.67 0.62,0.54 0.75,2.51 -0.72,0.87 0,1.07 1.99,1.73 0.95,1.89 -0.73,4.11 0.84,1.33 -0.21,1 0.24,1.41 -1.13,-0.46 -0.45,0.23 -1.7,2.39 -2.15,-0.17 0.16,1.28 -0.26,0.51 -3.27,2.56 -1.85,0.55 -1.62,1.51 -1.06,0.31 -2.3,-0.26 -2.41,0.74 -3.02,2.5 -0.19,3.87 0.27,2.77 0.86,0.33 1.41,-1.67 0.7,-0.16 0.36,0.77 1.23,-0.22 0.75,2.56 0.15,3.83 0.97,3.13 -1.39,3.32 0.2,2.49 0.58,1.47 2.01,1.84 1,-0.1 0.97,-0.94 1.53,-0.26 1.33,-0.75 0.58,0.54 -0.11,2.18 -1.01,2.75 -0.06,2.62 0.66,-0.07 0.1,-2.15 0.97,-1.92 0.04,-1.78 0.41,-1.23 1.91,-2.36 0.92,-0.63 0.54,-0.06 0.72,0.91 -1.04,1.81 -2.06,2.13 -0.72,1.39 -3.77,9.8 -0.19,5.25 -0.51,0.36 -0.12,0.56 -0.01,2.22 -0.51,2.4 -0.09,4.01 0.85,4.59 -0.29,3.95 0.33,2.28 -0.23,0.22 -1.33,-1.47 -1.66,-1.15 -1.61,-2.86 -0.3,-2.09 -0.68,0.27 0.26,-1.24 1.81,-1.38 0.13,0.91 1.4,-0.05 0.82,0.55 -0.24,-1.65 0.48,-0.52 -1.1,-1.19 -0.01,-0.84 0.58,0.74 0.4,0.02 -0.04,-0.36 -2.01,-4.49 -3.02,-2.68 -0.47,-0.05 -0.18,0.57 0.86,1.36 1,0.09 0.77,0.68 0.07,0.57 1.36,1.93 0.03,0.57 -1.36,2.17 -0.55,2.15 -0.95,0.94 -0.65,1.87 -0.5,-0.62 -0.17,-1.08 0,-4.56 -0.38,-1.08 -1.63,-2.15 0.09,-0.27 1.88,-0.47 0.23,-0.65 -0.48,-0.45 -0.65,0.86 -1.85,0.47 -4.87,-1.18 -4.54,0.45 -0.29,-0.49 -0.01,-1.69 -0.53,0.21 -0.01,1.4 -0.42,0.61 -0.84,-0.11 -1.51,-1.39 0.15,0.54 1.41,1.32 1.48,0.2 -0.27,0.72 -1.52,0.96 -2.48,0.4 -0.64,0.4 -0.39,2.26 -2.69,-0.17 -1.62,0.39 -0.99,1.77 -0.6,0.23 -0.33,0.82 -0.81,0.14 -0.47,1.24 -0.49,0.02 -2.24,-2.09 -1.1,-0.05 -0.37,-0.38 -0.47,0.15 -0.18,0.78 -0.73,-0.05 -0.39,0.38 -0.78,-0.03 -1.26,-1.51 -0.63,0.84 -1.54,-0.07 -0.71,0.61 -2.15,-2.49 -1.04,-0.64 -1.14,0.03 -0.91,-0.98 -2.31,0.3 -1.56,0.86 -0.52,-0.45 -0.69,-2.31 -0.9,-1.49 -2.49,-1.12 -1.81,0.6 -0.3,-0.83 -0.54,-0.34 -3.69,0.5 -1.41,-0.22 -2.04,-2.46 -1.69,-0.06 -1.68,-1.29 -2.08,-3.35 -0.77,-3.24 -0.89,-0.84 1.55,-1.03 0.59,-1.01 0.73,-0.48 0.16,-1.44 -1.44,-3.31 -0.76,-0.79 -0.21,-1.83 -1.09,-1.97 -0.77,-0.6 -2.75,0.06 -0.93,-0.53 1.11,1.17 1.46,-0.22 1.26,0.42 1.34,2.27 0.27,1.73 0.99,0.66 0.72,3.19 -2.93,4.21 1.05,1.22 0.2,1.47 1.71,3.86 1.93,1.42 0.13,0.57 -0.49,0.34 -3.91,0.18 -4.11,3.34 -5.02,0.75 -1.84,1.03 -2.58,0.66 1.1,0.3 3.09,-1.27 6.21,-1.01 1.8,-0.98 2.24,-1.96 4.99,-1.04 1.08,0.05 1.6,2.24 1.32,0.44 -0.32,1.29 0.38,1.13 -0.16,0.74 1.11,1.5 -1.37,1.9 -0.12,1.42 -1.27,1.94 0.09,1.76 -1.44,1.22 -0.05,0.47 2.17,-1.89 1.07,-4.36 1.48,-2.04 -0.02,-0.95 -1.09,-1.22 -0.01,-2.46 3.28,-0.95 1.54,1.07 1.41,-0.58 2.44,0.85 0.69,1.13 0.89,3.04 1.02,0.75 0.87,-0.29 1.43,-1.26 1.62,-0.05 0.47,0.94 2.06,0.52 2.81,3.37 0.34,-0.04 0.23,-0.82 1.33,0.07 0.73,-0.65 1.42,0.96 1.49,-0.12 1.05,-0.78 0.69,0.64 0.28,-0.48 0.38,0.07 1.16,1.49 1.68,0.77 0.73,-0.44 0.23,-0.91 1.09,-0.65 0.08,-0.7 0.84,-0.65 0.23,-1.12 0.5,-0.48 1.5,0.31 3.38,-0.57 0.29,-0.63 -0.74,-0.85 0.24,-0.55 3.1,-0.42 5.26,-2.41 2.78,0.07 3.28,1.25 1.1,1.11 1.15,3.2 -0.27,2.93 0.54,1.8 0.3,3.38 -0.56,0.36 -0.56,-0.95 -0.42,0.93 -0.64,0.12 -2,-2.04 -1.9,-0.56 -1.49,0.24 0.29,0.42 2.59,0.06 2.98,3.14 0.31,2.24 -0.37,0.99 -0.02,1.54 -1.08,1.09 -0.21,2.08 0.8,0.97 -2.31,2.76 -1.56,0.62 -0.19,2.17 -0.45,0.76 -2.85,1.56 -1.35,1.34 -0.09,0.94 0.32,0.68 2.62,0.73 -0.41,2.01 0.23,0.78 1.36,1.84 2.48,1 0.1,1.24 0.53,0.36 1.78,-0.45 2.5,0.17 0.34,-0.27 -0.15,-0.97 -1,-1.92 1.3,-5.37 0.56,0 0.34,0.57 2.77,1.38 0.69,4.04 2.77,7.72 0.37,4.68 0.89,3.29 -1.09,-0.68 -0.08,-0.78 -1.05,0.1 0.02,0.34 1.46,1.34 1.01,0.33 0.36,0.68 -0.23,2.04 1,4.16 -0.2,0.45 0.58,0.51 0.59,0.04 -0.16,0.98 0.3,0.54 -0.7,1.64 -1.22,-0.66 -0.81,0.07 -0.88,-0.77 -1.49,0.45 -1.15,1.63 -0.82,0.41 -1.49,2.27 -1,-0.32 -3.57,0.78 -2.46,5.66 -2.83,-0.35 -0.11,0.4 0.72,0.01 0.36,0.68 1.3,-0.36 0.13,1.85 -0.82,2.59 -0.53,-0.06 -1.71,4 -0.44,-0.37 -2.88,0.04 -0.21,0.78 -1.64,1.21 -0.49,1.36 -1.05,0.91 0.04,0.84 -1.03,1.44 -0.33,1.81 -0.46,6.29 0.2,3.25 -0.29,0.92 0.56,1.6 0.58,4.2 1.56,4.02 0.67,3.87 -0.1,1.26 1.59,3.88 2.38,7.5 2.38,5.12 5.96,8.53 2.14,2.21 -0.12,0.22 -0.87,-0.24 -2.52,-2.09 -3.4,-5.57 -3.62,-4.76 -1.16,-0.43 -1.05,0.53 0,0 -3.46,-0.68 -1.09,0.36 -1.03,0.85 -0.67,-0.4 -0.54,-0.86 0.05,-1.71 -1.25,-1.87 0.38,-2.63 -0.91,-1.37 -0.91,-0.07 -1.41,1.24 -1.24,-0.74 -1.27,0.3 0.03,0.88 -2.19,0.65 -0.33,-0.48 -1.15,0.16 -0.33,-0.61 -0.36,0.04 -1.33,1.47 -1.04,-0.11 -0.79,0.68 -2,0.4 -0.85,0.58 -0.97,-0.51 -1.2,-1.81 -0.6,-2.2 0.68,-0.41 -0.12,-0.69 -1.19,0.22 -0.52,-0.57 -1.13,0.72 -1.87,0.48 -3.71,-0.92 -1.34,0.32 -1.26,-0.77 -0.53,0.29 -0.86,-0.55 -0.57,0.12 -0.6,-0.74 -0.98,0.03 -1.66,-0.83 -4.8,-8.02 -1.46,-1.37 -7.67,-3.9 -4.77,-1.74 -0.93,-0.8 -0.98,-1.67 -0.08,-2.23 0.5,-3.08 -0.04,-0.71 -0.74,-1.31 -6.76,-2.81 -4.24,-2.57 -3.85,-2.88 -6.85,-1.76 -1.72,-1.22 -0.54,-1.42 -0.06,-4.26 -0.96,-4.46 -0.02,-3.67 0.85,-3.5 2.9,-4.82 0.25,-2.56 -0.57,-1.49 -2.95,-3.7 -0.42,-1.12 0.09,-2.32 1.19,-3.57 -0.02,-1.2 -0.73,-0.61 -1.48,0.12 -0.58,-0.7 -2.18,-6.07 -1.02,-4.65 0,0 6.93,-0.23 0.48,-1.94 -2.39,-2.91 -0.57,-2.8 -5.51,-2.68 -10.75,-4.21 -1.76,-1.37 -0.96,-1.3 -1.47,-12.53 -3.27,-5.44 -1.72,-5.2 -0.34,-2.7 -0.95,-2.69 -0.06,-1.28 1.71,-2.86 0.01,-1.15 -2.82,-3.92 -1.87,-3.96 -1.95,-1.44 -1.43,-2.1 -1.52,-2.85 -0.92,-3.04 0.03,-1.36 1.56,-2.64 1.16,-1.1 -0.1,-1.84 1.39,-0.86 -1.58,-0.99 -1.82,-0.5 -1.1,-0.99 -2,-4.18 -0.65,-3 -1.19,-0.65 -0.47,-2.7 -4.24,-3.49 -1.64,-2.49 -0.74,-1.91 -0.46,-0.15 0,0 -1.38,-0.54 -0.47,-0.69 0.11,-4.26 -1.81,-5.55 -0.97,-1.31 -1.71,-1.08 -1.69,-2.13 -1.93,-1.17 -0.99,-0.24 -4.63,2.05 -0.43,0.46 0,0 -2.41,-2.36 -2.5,-0.08 -2.78,0.6 -0.05,-2.81 -0.33,-1.28 -1,-1.28 -0.67,-2.64 0.67,-1.36 0.5,-3.83 -0.42,-1.62 -1.92,-2.55 -0.83,-1.79 1.67,-2.64 0.83,-2.55 1.09,-1.96 1.25,-0.09 1.5,3.41 0.75,-2.04 0.25,-3.57 1.17,-1.11 1.84,-1.02 2.84,-3.32 -0.46,-1.22 z"
     title="Atlántico Sur"
     id="NI-AS" />
  <path
     d="m 311.1455,278.368 0.43,-0.45 4.62,-2.06 1,0.24 1.92,1.18 1.69,2.13 1.72,1.08 0.96,1.31 1.81,5.55 -0.11,4.26 0.47,0.69 1.39,0.54 0,0 -5.18,8.78 -1.96,2.72 -0.68,2.35 0.09,3.86 -0.36,1.94 -5.07,6.97 -3.2,0.69 -1.89,1.57 -0.82,-0.09 -1.85,-1.42 -4.15,1.53 -2.42,1.46 -3.78,4.27 -6.48,4.04 -1.22,-0.27 -0.92,-0.85 -2.02,1.58 -10.67,1.74 -3.74,0.19 -1,-1.07 -0.8,-0.12 -2.12,1.16 -2.18,-0.87 -2.07,0.48 -3.14,-0.1 -1.52,0.17 -2.75,1.21 -1.81,2.08 -0.96,2.07 -1.06,7.69 -3.97,2.31 -0.72,1.21 -0.45,2.14 0.4,1.63 -0.12,0.92 -2.54,4.2 -0.64,1.74 -1.23,1.58 0.86,4.71 0,0 -3.16,-0.91 -1.1,-1.9 -0.04,-1.1 -2.17,0.42 -2.1,-0.41 -2.44,-1.27 -1.61,-2.02 -0.66,-0.05 -0.09,0.72 -0.43,0.14 -0.25,-0.49 0,0 -0.08,-1.58 -0.4,-0.47 -1.65,-0.44 -1.9,-1.17 -1.7,0.07 -1.15,-0.46 -0.43,-0.78 -0.01,-2.9 0.67,-0.77 -1.01,-1.32 0,0 -0.27,-1.99 0.2,-0.56 0.96,-0.53 -0.75,-1.16 2.51,-3.97 -9.38,-7.6 -2.9,-3.44 0.88,-3.54 1.29,-1.16 -1.08,-0.95 -0.34,-1.55 -2.23,-1.22 -2.55,-4.18 -1.38,-0.99 -0.45,-1.52 0.68,-0.62 -1.53,-2.82 0.02,-0.42 0.88,-0.27 -0.36,-0.78 1.08,-1.45 0,0 0.86,-0.5 1.47,-1.95 2.08,-1.48 4.13,-1.51 1.7,-1.27 0.6,-1.09 0.21,-1.51 -0.53,-3.19 1.02,-0.4 5.3,-0.68 7.54,-0.12 3.65,-0.62 3.21,-1.4 1.96,-0.42 1.47,0.19 1.47,0.75 1.15,-0.01 0.82,0.56 0.49,0.03 0.54,-0.52 1.42,0.49 0.39,-0.92 1.69,-0.41 0.71,-0.58 0.51,-0.16 1.32,0.57 0.38,-0.66 1.1,-0.61 2.4,-0.01 0.67,-0.71 0.89,-2.2 1.18,-0.73 2.17,-0.38 1.38,0.38 1.52,-1.02 3.41,0.7 1.94,1.65 1.01,0.28 1.44,-1.8 1.62,-0.64 1.1,-1.4 1.61,-0.51 2.34,1.51 1.84,0.74 1.08,2.8 1.21,-1.08 2.72,0.28 0.49,0.2 0.93,1.4 4.48,1 0.36,0.6 -0.96,1.88 0.41,0.26 2.52,0.16 0.68,-1.13 0.43,0.07 1.47,1.55 1.97,3.61 0.55,0.18 1.02,-0.86 0.66,-0.11 3.14,0.33 0.66,-0.77 0.14,-0.76 -0.15,-2.28 0.35,-0.25 1.41,0.61 0.78,-0.05 0.66,-0.89 0.1,-1.11 -0.93,-2.96 1.01,-0.96 0.72,-1.57 2.23,-2 0.04,-1.22 -0.92,-1.09 -0.16,-0.69 1.19,-0.66 -0.25,-1.5 z"
     title="Boaco"
     id="NI-BO" />
  <path
     d="m 169.0855,377.518 4.04,2.08 6.35,1.89 1.18,2.68 3.34,1.49 0.18,0.17 -1.22,1.59 0.22,1.42 -0.66,0.81 1.54,0.25 -0.48,1.3 3.23,0.13 1.4,0.68 2.26,0.31 0.55,-0.37 0.55,0.24 0.8,1.31 0,0 -0.45,0.73 -0.71,-0.13 0.24,2.31 -0.92,0.68 1.04,1.48 -0.31,0.75 0.86,1.92 -0.61,1.48 -0.48,0.33 0.54,2.02 -0.28,1.25 -0.88,0.84 -2.83,0.28 -0.46,0.9 0.58,3.73 -0.7,3.3 1.46,1.93 1.09,2.41 0,0 -3.98,4.1 -0.48,1.89 -0.82,0.65 0.19,0.99 -0.72,0.81 -0.02,0.94 -1.87,1.36 0,0 -2.71,-2.19 -1.45,-1.64 -3.65,-1.9 -1.45,-1.63 -3.33,-1.2 -7.98,-4.78 -0.38,-0.98 -1.06,-0.82 -2.81,-3.66 -3.68,-3.38 -1.81,-0.85 -1.47,-1.21 0,0 1.47,-0.95 0.22,-0.68 -1.46,-3.46 0.57,-1.17 2.14,-1.81 2.85,-1.03 2.43,-2.76 0.97,-2.94 z"
     title="Carazo"
     id="NI-CA" />
  <path
     d="m 62.505504,315.108 1.38,1.35 0.28,1.1 1.21,0.2 1.64,1.2 5.09,2.19 0.37,-0.41 0,0 0.22,0.73 1.73,1.17 2.11,2.61 0,0 -2.33,-0.84 -7.87,-5.57 -2,-0.82 -2.86,-1.92 0.41,-0.47 0.53,0.29 -0.38,-0.75 0.16,-0.25 0.31,0.19 z m -19.96,-57.23 -5.15,-0.22 -1.29,-0.65 -0.33,-0.9 4.03,-2.77 3.26,-1.12 1.51,-0.87 5.59,0.83 2.04,1.38 -0.33,0.39 -2.59,0.81 -1.77,0.97 -1.42,1.81 -3.55,0.34 z m 69.179996,-41.4 1.51,0.11 0,0 1.28,0.51 1.92,-0.55 0.66,0.39 1.11,3.89 -1.22,3.27 0.23,0.59 0,0 -1.72,1.71 -1.94,4.23 0.02,3.87 1.05,3.19 0,0 0.82,2.7 1.42,2.31 0.51,3.98 2.03,2.13 3.37,5.94 -0.69,2.49 0,3.21 2.22,8.66 -0.56,3.51 -1.48,3.27 -1.05,1.31 -2.57,1.57 -4.04,-0.08 -3.81,0.43 -2.31,0.75 -2.22,-0.06 -0.87,0.45 -0.57,0.95 0.24,3.05 -0.65,1.53 -1.5,0.86 -1.78,1.82 -2.929996,0.85 -4.36,6.46 -3.36,2.27 -0.24,7.54 -1.09,2.21 -5.07,3.17 -5.25,2.13 -2.72,2.29 -3.71,0.68 -1.02,-0.33 -2.39,0.88 0,0 -0.95,0.26 -0.81,-0.22 -0.54,0.31 -1.37,-1.09 0.03,-0.31 1.14,-0.46 -1.74,-0.66 -0.4,-0.51 -1.24,-2.62 0.04,-1.06 -0.38,-1.8 -0.51,0 -0.06,1.04 -1.57,-0.51 -0.37,0.19 1.71,1.46 0.7,1.59 0.1,1.03 -0.25,0.63 -0.43,0.04 -0.64,-0.49 -2.59,-3.86 -1.83,-1.79 -0.94,-1.91 -3.74,-3.12 -3.69,-1.75 3.24,0.12 0.56,-1.19 -3.56,0.17 -1.02,-1.46 -0.28,0.28 -0.83,-0.16 -1.16,-0.73 -0.39,0.32 0.2,0.24 2.13,1.4 0.14,0.3 -0.54,0.3 -4.36,-3.4 1.75,0.32 0.27,-0.39 0.04,-0.88 -0.88,-1.05 0.01,-1.03 1.28,-0.63 0.96,-1 -0.16,-0.32 -0.62,0.39 -0.1,-0.26 -0.25,-1.77 0.35,-1.13 -0.7,0.49 0.09,1.88 -0.31,0.74 -1.85,1.77 -0.43,2.4 -2.62,-1.89 -0.15,-0.44 0.37,-0.63 -0.93,-0.86 -0.77,-2.34 -1.99,-2.64 -1.56,-1.19 -3.14,-1.59 0.04,-0.35 0.8,-0.1 -0.09,-0.46 -6.62,-4.94 0.68,-0.45 1.92,0.86 0.46,0.82 2.41,0.46 0.74,-0.34 -0.4,-0.42 -1.61,-0.48 -1.13,-1.24 -0.01,-1.24 1.22,-1.33 -0.12,-0.53 -2.46,1.1 -1.02,-1.62 -0.71,-0.37 0.13,-1.01 -1.02,0.61 -0.26,-0.21 -1.43,-2.82 0.76,-1.03 -1.02,-0.21 0.09,-0.83 0.85,-1.45 -0.3,-0.87 -0.37,-0.04 -0.38,0.49 -0.37,-0.4 -0.35,0.54 -1.33,0.07 -1.24,0.68 -1.36,-0.05 -0.83,1.07 0.45,0.39 0.92,-0.76 1.93,1.62 -0.18,2.22 2.02,0.71 1.08,1.92 1.73,1.45 0.37,1.19 -0.37,0.67 -4.43,-3.83 -15.2900004,-9.37 -4.69,-4.09 -0.39,-2.08 0.56,-0.39 -0.31,-0.87 1.33,-3.71 1.35,-1.43 0.56,-1.66 4,-1.71 2.23,-2.19 1.5000004,-2.61 1.02,-3.54 0.68,-1.24 0.68,-0.51 0.39,0.51 -0.28,0.93 -0.59,0.28 -0.06,1.13 -0.71,1.55 1.69,-0.47 2.08,0.37 4.75,3.39 3.71,3.78 1.35,2.87 -1.29,-0.31 -0.34,0.31 -0.2,1.35 2.44,2.93 1.72,0.26 2.98,1.41 2.98,0.72 1.1,-0.54 2.09,-0.18 1.68,3.94 0.34,-0.49 -0.04,-0.99 -0.87,-2.45 2.62,-0.13 0.9,0.55 0.06,0.89 2.44,1.16 -0.09,0.77 0.98,1.82 0.67,-0.11 -0.82,-1.35 0.18,-0.56 -0.45,-0.58 0.1,-0.58 -2.5,-1.17 0.89,-1.44 1.54,-0.54 1.07,0.02 3.28,3.39 2.18,-0.26 1.64,-1.04 2.16,-0.11 1.07,1.95 1.13,0.16 1.52,-0.51 1,0.26 2.21,3.56 3.94,2.13 2.23,0.83 0.74,-0.82 0.1,-2.13 0.3,-0.43 3.96,0.47 0.28,-0.1 -0.21,-0.47 -0.81,-0.56 -1.83,0.42 -1.32,-0.22 -0.59,0.43 -0.67,1.79 -1.2,0.46 -4.42,-2.07 -0.65,-1.65 -1.61,-2.18 -3.55,-0.32 -1.22,-2.19 0.62,-1.85 0.5,-0.47 1.23,0.25 1.33,1.06 2.34,0.5 1.2,-0.36 0.52,-0.76 -0.13,-0.34 -1.8,0.65 -0.79,-0.11 -2.27,-1.2 -1.86,-0.4 -0.85,0.32 -0.31,2.27 -0.61,0.71 -4.18,1.84 -1.3,-0.1 -0.53,-1.31 -1.91,-1.78 -0.24,-0.89 0.78,-0.97 4.15,-1.6 0.78,-1.14 -3.29,-2.11 19.03,-1.6 4.5,-0.03 2.23,0.17 2.15,1.54 2.53,-0.52 0.7,-2.11 1.15,0.43 2.6,-1.9 1.6,0.29 -0.03,-0.53 2.23,-1.48 0.77,-3.26 4.1,-3.73 -1.79,-3.89 1.19,-1.54 -0.31,-0.96 0.92,-0.49 -1.23,-3.09 -0.05,-1.41 1.51,-2.54 0.01,-1.53 0.65,-0.84 0.68,-2.93 -0.31,-1.24 3.72,-2.27 0.76,-1.68 0.72,-0.68 5.449996,-1.49 2.82,1.56 4,2.94 z"
     title="Chinandega"
     id="NI-CI" />
  <path
     d="m 309.9455,416.708 -0.49,0.59 0.17,1.14 -0.38,0 -1.57,-4.5 -2.54,-1.43 -0.02,-2.4 -1.44,-1.74 -0.54,-0.24 -0.85,0.69 -0.57,-0.85 -0.56,-0.15 0.05,-1.37 -1.03,-0.89 -0.28,-1.67 -0.88,-1.19 -1.06,-0.75 -1.05,-0.24 -1.93,0.07 -1.91,-1.41 -2.34,-0.59 -2.66,-2.85 -2.51,-3.76 -1.75,-1.79 -3.12,-1.78 -1.41,-1.22 0,0 -0.87,-0.47 -1.68,-0.05 0,0 -1.78,-0.18 -3.14,-1.3 -0.45,0.24 -0.31,1.37 -0.39,0.3 -2.74,-2.23 -1.5,0.02 -1.12,-1.17 -5.72,-9.34 -5.03,-5.45 0,0 -1.9,-1.24 0,0 -2.36,-0.47 -1.77,0.97 0,0 -0.98,0.26 0,0 -1.1,-0.22 -0.83,0.64 -1.76,-1.14 0.98,-0.43 0.05,-0.61 -1.96,-0.82 0,0 -0.86,-4.71 1.23,-1.58 0.64,-1.74 2.54,-4.2 0.12,-0.92 -0.4,-1.62 0.45,-2.14 0.72,-1.21 3.97,-2.31 1.06,-7.69 0.96,-2.07 1.81,-2.08 2.75,-1.21 1.53,-0.17 3.13,0.1 2.08,-0.48 2.17,0.87 2.12,-1.15 0.81,0.12 0.99,1.07 3.75,-0.19 10.66,-1.74 2.03,-1.58 0.92,0.85 1.22,0.27 6.48,-4.04 3.79,-4.27 2.42,-1.46 4.15,-1.53 1.85,1.42 0.82,0.09 1.89,-1.57 3.2,-0.68 5.07,-6.97 0.36,-1.94 -0.09,-3.87 0.68,-2.35 1.96,-2.72 5.18,-8.78 0,0 0.46,0.15 0.74,1.91 1.64,2.49 4.24,3.49 0.47,2.7 1.19,0.65 0.65,3 2,4.18 1.1,0.99 1.83,0.5 1.58,1 -1.39,0.87 0.11,1.84 -1.16,1.1 -1.56,2.64 -0.03,1.37 0.92,3.04 1.52,2.85 1.43,2.1 1.95,1.44 1.87,3.96 2.82,3.92 -0.01,1.15 -1.71,2.86 0.06,1.28 0.95,2.69 0.34,2.71 1.72,5.2 3.27,5.44 1.47,12.53 0.96,1.3 1.76,1.37 10.75,4.21 5.51,2.69 0.57,2.8 2.39,2.91 -0.48,1.94 -6.93,0.23 0,0 -4.07,-0.13 -5.12,-1.24 -2.43,0.39 -1.11,-0.37 -2.59,-0.1 -3.63,1.29 -3.05,-0.02 -3.2,1.1 -7.15,3.84 -2.03,2.65 -1.08,0.12 -0.94,0.56 -0.99,-0.18 -0.92,0.97 -4.17,1.26 -0.63,1.85 -1.3,0.67 0.55,2.05 -0.98,0.82 -0.16,0.57 -2,0.32 -1.48,2.65 -1.14,0.18 -0.55,1.05 -1.31,-0.87 -1.43,-0.2 0.01,0.65 -0.61,0.08 0,1.01 -2.01,1.65 -2.87,0.49 -0.26,1.45 -0.98,0.71 0.09,0.8 -0.59,0.26 z"
     title="Chontales"
     id="NI-CO" />
  <path
     d="m 117.2055,224.698 1.26,-0.81 9.85,-9.9 3.17,-7.2 4.44,-7.69 1.23,-1.54 1.11,-0.63 2.66,-0.11 5.93,1.91 2.84,1.29 1.26,0.15 16.15,-3.63 4.94,0.33 2.39,0.93 2.21,4.42 0,0 -0.09,1.11 -1.36,1.59 0.4,1.03 -0.69,0.57 0.48,1.2 -1.03,1.72 0.94,5.23 -0.15,2.83 0.56,1.61 -1.92,0.81 0.82,1.54 -0.09,0.6 -2.76,4.64 -0.05,0.68 1.37,1.85 2.23,1.41 0.27,1.13 1.26,2.04 4.13,4.11 4.27,2.24 4.15,1.64 0.65,1.5 -0.14,2.34 0,0 -0.46,0.54 -1.47,0.32 -0.82,1.37 -1.37,0.6 0.65,1.46 -2.17,5.32 -1.08,1.32 -2.12,0.75 -3.3,0.49 -6.22,3.55 -1.03,6.5 0,0 -2.39,0.11 -7.26,-1.57 -7.78,-3.39 -1.59,-1.47 -0.55,-0.96 -0.26,-1.8 2.65,-5.56 0.85,-4.87 -1.71,-2.65 -2.82,-3.22 -2.12,-4.81 -1.54,-1.51 -7.72,-0.95 -1.66,0.17 -4.72,1.33 -3.98,2.58 -2.37,0.75 -1.81,-0.3 -2.4,-1.89 -1.3,-0.48 -2.27,-0.2 -2.03,0.58 -1.11,-0.06 0,0 -1.05,-3.18 -0.02,-3.88 1.94,-4.22 z"
     title="Estelí"
     id="NI-ES" />
  <path
     d="m 221.4755,402.008 0.46,0.6 0.99,0.32 3.11,0.06 0.23,-1.04 1.01,0.34 0.74,1.09 -0.03,1.8 0.89,1.35 -0.29,2.17 -1.72,0.63 -5.57,-0.75 -2.12,1.14 -0.91,-0.03 -0.35,-0.43 0.32,-1.34 0.32,0.04 0.33,0.78 0.62,-0.17 -0.04,-0.43 -0.66,-1.11 -1.48,-1.19 0.73,-0.5 0.07,-0.55 1.23,-1.23 -0.28,-1.27 1,-0.01 0.65,-0.65 0.75,0.38 z m -14.35,-36.94 1.26,-2.4 -0.43,-1.46 0.35,-0.8 4.98,0.18 2.65,-0.8 0.36,0.12 -0.37,1.07 1.45,-0.04 0.48,0.36 0.05,0.94 -4.17,6.93 -2.83,6.48 -0.25,2.58 -0.06,3.15 0.75,2.42 0.61,0.53 1.37,-0.37 1.96,0.82 1.45,2.54 -0.35,0.83 -0.65,-0.12 -1.3,-1.35 -1.39,-0.67 -0.66,0.17 -0.2,0.53 0.42,3.1 0.34,0.29 0.37,-0.44 0.63,0.49 1.32,2.57 0.52,2.24 1.12,1.32 0.34,1.51 -1.06,1.29 0.83,2.52 -0.12,0.92 -0.77,0.68 -0.53,1.15 -1.23,-0.17 -0.22,0.56 -1.74,1.47 0.7,1.05 -0.26,1.59 1.1,1.58 1.37,0.24 0.17,0.36 -0.43,0.59 0,0 -2.23,1.48 -3.1,0.36 -1.96,0.63 -0.33,0.68 -1.88,-0.15 -1.66,-0.81 -1.17,0.2 -1.46,1.07 -0.95,2.49 -0.98,0.66 -4.27,0.46 -2.09,1.49 -1.8,-0.65 -1.59,0.17 0,0 -1.09,-2.41 -1.46,-1.94 0.7,-3.3 -0.58,-3.73 0.46,-0.9 2.83,-0.28 0.88,-0.84 0.28,-1.25 -0.55,-2.02 0.48,-0.33 0.61,-1.49 -0.85,-1.92 0.31,-0.74 -1.04,-1.49 0.92,-0.68 -0.24,-2.31 0.72,0.14 0.44,-0.73 0,0 2.11,-6.22 2.81,-4.07 0.38,-2.69 1.01,-0.59 1.75,-0.27 0.83,-1.8 5.54,-7.19 0.29,-5.58 z m -4.83,-9.52 2.3,-0.02 2.48,-1.08 5.34,-1.59 1.48,-1.07 0.56,-0.77 0.21,-1.33 1.61,-1.32 0.49,0.4 1.77,0.03 0.59,0.84 2.08,0.72 0,0 1.01,1.32 -0.67,0.77 0.01,2.9 0.44,0.78 1.14,0.47 1.7,-0.07 1.9,1.17 1.65,0.44 0.4,0.47 0.09,1.58 0,0 -2.09,0.62 -0.8,0.95 -0.49,0.04 -0.67,-0.53 -0.24,0.28 0.46,0.78 -0.56,0.63 -2.5,0.68 -2.48,-0.65 -0.43,-0.55 0.03,-0.96 -1.97,-1.99 -5.17,0.36 -3.19,-0.25 -2.31,-0.69 -2.28,-1.17 0,0 -1.89,-2.19 z"
     title="Granada"
     id="NI-GR" />
  <path
     d="m 319.8755,52.107998 1.56,-0.09 0.63,0.91 1.92,0.88 0.42,1.54 -1.04,1.56 -0.16,1.33 -0.81,1.52 -0.03,0.87 0.92,0.78 -0.76,1.67 1.67,2.02 1.84,0.23 1.21,2.01 -0.1,1.22 -1.25,1.38 -0.52,0.15 -0.46,1.75 0.7,0.95 0.06,3.33 -0.89,0.76 -1.07,0.28 -0.2,0.74 0.34,0.76 1.28,0.72 0.64,1.99 1.56,0.89 0.86,2.02 1.26,0.23 0.61,1.51 14.2,0.84 -4.67,23.980002 1.54,7.18 -24.83,40.26 -11.78,-5.85 -16.49,10.72 -9.23,0.22 -1.43,6.72 -0.8,0.92 -2.89,1.73 -0.63,1.66 0.16,0.76 1.19,1.56 2.15,1.69 0.59,1.44 -0.71,3.37 -1.21,2.6 0.13,3.1 -1.53,2.51 -3.49,1.17 -3.69,3.28 -2.66,1.65 -1.53,1.53 -0.77,1.34 -0.12,1.19 0.74,2.2 0,0 -6.82,5.41 -5.03,0.72 -2.72,1.36 -4.57,8.44 -2.65,3.07 -5.71,5.34 -3.52,5.79 -0.92,0.59 -2.15,0.1 -1.14,0.53 -9.72,8.58 -4.73,4.87 -2.27,0.76 -4.37,-0.42 -1.98,-0.61 -0.46,0.36 0.03,2.53 -4.46,-0.23 -0.92,-3.27 -1.2,-1.32 -1.32,-0.49 -1.75,-0.16 -0.52,0.61 -1.21,-0.53 -1,0.2 -1.3,-0.38 0,0 0.14,-2.34 -0.65,-1.5 -4.15,-1.64 -4.27,-2.24 -4.13,-4.11 -1.26,-2.04 -0.27,-1.13 -2.23,-1.41 -1.37,-1.85 0.05,-0.68 2.76,-4.64 0.09,-0.6 -0.82,-1.54 1.92,-0.81 -0.56,-1.61 0.15,-2.83 -0.94,-5.23 1.03,-1.72 -0.48,-1.2 0.69,-0.57 -0.4,-1.03 1.36,-1.59 0.09,-1.11 0,0 2.63,-4.21 2.31,-1.86 6.94,0.07 4.41,-2.65 0.41,-1.46 0.63,-0.74 0.37,-1.88 1.33,-0.88 0,0 0.68,0.37 3.84,-0.38 0.6,-0.51 0.41,-1.28 0.71,-0.43 1.38,0.69 2.39,-0.12 4.77,3.23 1.06,1.68 0.36,0.24 1.05,-0.21 1.06,0.86 0.73,-0.86 0.14,-1.8 2.08,-1.43 0.66,-0.62 0.11,-0.59 1.2,0.34 0.68,-0.32 1.39,0.03 1.09,-1.18 1.1,-0.39 1.16,0.78 0.5,-1.01 -1.13,-1.66 0.48,-0.89 1.25,-0.59 0.39,-0.98 -0.39,-0.5 -0.77,0.2 -0.87,-0.29 0.29,-1.88 0.49,-0.39 0.19,-0.79 -0.1,-0.69 -1.06,-1.68 0.1,-0.88 1.45,-1.78 0,-4.73 2.89,-5.62 0.29,-1.28 -0.39,-1.78 1.35,-2.37 -1.25,-3.55 0.09,-0.79 0.97,-1.28 1.44,-0.69 1.99,-3.44 0,0 1.42,-0.97 0.58,-1.78 -0.52,-1.56 -2.64,-1.8 0.87,-3.86 -0.15,-5.56 0.63,-0.82 1.52,-0.07 0.97,-0.5 1.62,-1.79 0.86,-0.47 1.58,0.21 2.02,0.97 1.79,-1.45 0.73,-2.77 0.98,-0.27 2.54,0.45 1.25,-1.24 1.67,-0.49 1.27,-1.97 1.13,-0.09 0.67,-0.44 0.7,-2.06 1.81,-0.34 -0.06,1.61 0.65,0.48 4.02,0.22 0.41,-1.71 0.85,-0.22 0.41,-2.4 0.46,-0.59 0.56,0.91 0.67,0.12 0.28,-1.89 1.34,1.54 0.35,-1.5 1.05,0.15 0.29,-1.1 1.08,-0.55 0.29,-0.85 0.65,-0.1 0.95,1.08 0.74,-0.39 0.99,0.15 0.4,-1.1 0.85,-0.04 0.37,-0.65 1.14,-0.5 0.26,-0.93 0.74,-0.47 -0.37,-2.44 2.48,-2.4 0.2,-0.51 -0.41,-1.11 0.63,-0.78 0.13,-1.7 -0.84,-1.02 0.26,-0.710002 1.08,-0.24 0.32,1.170002 1.26,0.18 1.92,-2.270002 0.33,-1.51 1.23,-0.33 1.33,-0.9 1.2,0.01 1.28,0.7 2.19,-1.06 3.81,-0.05 1.72,0.57 1.29,-0.42 1.35,0.46 1.59,-0.52 0.61,1.11 0.62,0.06 0.4,-0.37 3.08,-5.28 -0.73,-0.9 -1.49,-0.31 -0.22,-0.31 -0.34,-2.72 -1.11,0.33 -1.32,-1.38 -0.31,-2.46 -1.89,-0.36 -0.7,-0.91 2.25,-2.81 1.36,-3.61 0.93,-1.29 1.13,-3.89 3.31,-3.49 0.66,-2.09 0.74,-0.78 -0.04,-1.85 -0.59,-1.27 0.44,-1.25 -1.25,-2.28 0.26,-0.45 1.36,-0.13 1.31,-1.09 1.52,0.72 2.32,3 0.59,0.09 1,-0.75 1.5,0.13 1.03,-1.35 1.83,-0.89 2.39,-3.65 z"
     title="Jinotega"
     id="NI-JI" />
  <path
     d="m 145.6155,329.988 -0.26,0.08 0,0 -0.62,-1.17 0,0 -0.05,-0.9 0,0 0.79,-0.42 1.32,0.33 0.3,0.66 -0.79,0.67 0,0 -0.69,0.75 z m -31,-92.3 1.11,0.06 2.03,-0.58 2.28,0.2 1.29,0.48 2.41,1.89 1.81,0.3 2.37,-0.75 3.98,-2.58 4.72,-1.33 1.66,-0.17 7.72,0.95 1.54,1.5 2.11,4.81 2.83,3.22 1.7,2.65 -0.85,4.87 -2.65,5.55 0.26,1.8 0.55,0.96 1.59,1.47 7.78,3.39 7.26,1.57 2.39,-0.12 0,0 -0.2,4.06 0.5,4.65 -0.77,6.22 0.17,0.6 -0.66,2.08 0.12,1.8 0.54,1.68 -1.07,3.26 -0.02,2.32 0,0 -4.47,1.09 -1.6,2.27 -1.95,1.1 -0.98,2.01 -1.43,5.05 -0.52,0.68 0.61,1.13 -0.98,0.28 -0.02,0.35 1,0.35 -0.62,0.84 0.7,1.11 0,0 0.25,0.32 0,0 1.47,0.38 0.36,0.47 -0.62,0.9 0.47,0.71 -0.75,0.71 0.27,0.62 -0.26,0.22 -2.32,-0.87 -3.64,1.27 -0.28,0.39 -3.46,0.69 -2.26,1.03 -1.78,1.36 -0.88,1.3 -1.07,2.72 -1.92,1.71 -0.7,0.25 -3.42,-0.2 -5.77,-2.57 -0.5,-0.44 0.11,-0.29 0.77,-0.1 0.1,-0.35 -0.8,-1.05 -1.84,0.7 -1.72,1.62 0.2,1.03 0.71,0.92 -0.65,3.66 1.52,2.24 0.8,2.7 1.15,0.7 1.94,0.12 2.46,0.66 3,2.02 2.35,0.51 2.42,1 0,0 -4.13,3.37 0,0 -2.77,6.45 0.48,0.71 2.54,0.69 0.85,1.03 0.03,1 -0.81,1.63 0.29,1.8 -2.4,1.14 -1.08,1.7 -2.41,1.01 -1.98,1.37 -1.53,1.73 -4.33,-0.82 -2.14,1.07 -1.6,0.34 -0.6,1.32 1.39,3.52 -0.01,1.45 -3.3,2.6 0,0 -2.93,-5.6 -3.18,-4.61 -0.25,-0.62 0.26,-0.78 -1,-1.35 0.03,-1.01 -0.75,-2.05 -1.03,-0.79 0.06,-1.29 -1.53,-2.62 0.69,-0.1 -0.84,-2.28 -0.9,-0.03 -0.84,-0.9 -2.58,-1.36 -2.38,-1.89 -13.669996,-8.45 -8.91,-6.04 -0.39,-0.34 0.11,-0.39 -0.84,-0.26 -3.62,-2.93 0,0 -2.11,-2.61 -1.73,-1.17 -0.22,-0.73 0,0 -3.21,-3.13 -0.26,-0.98 0,0 2.39,-0.88 1.02,0.33 3.71,-0.68 2.72,-2.29 5.25,-2.13 5.07,-3.17 1.09,-2.21 0.24,-7.54 3.36,-2.27 4.36,-6.46 2.929996,-0.85 1.78,-1.82 1.5,-0.86 0.66,-1.53 -0.24,-3.05 0.57,-0.95 0.87,-0.45 2.22,0.07 2.31,-0.75 3.81,-0.43 4.04,0.08 2.57,-1.57 1.05,-1.31 1.47,-3.27 0.56,-3.51 -2.22,-8.66 0,-3.21 0.69,-2.49 -3.37,-5.94 -2.03,-2.13 -0.51,-3.98 -1.42,-2.31 -0.87,-2.71 z"
     title="León"
     id="NI-LE" />
  <path
     d="m 111.6755,170.288 2.93,-1.4 3.06,0.55 4.71,0.24 2.75,0.86 1.94,1.64 0.22,3.37 0.91,1.15 3.3,1.67 1.74,-0.27 1.35,1.3 1.44,-0.33 1.56,-1.27 2.62,-0.96 2.26,-0.49 2.27,-0.03 12.33,2.26 1.17,0.9 1.92,-1 2.38,-0.1 1.37,-0.53 4.02,-3.03 1.68,-0.77 4,0.06 2.78,0.71 0.71,0.77 0.96,-0.57 2.19,0.22 1.6,-0.9 3.47,3.1 4.24,3.12 1.12,1.54 0.34,2.67 3.39,2.51 1.27,1.33 0,0 -1.33,0.88 -0.37,1.88 -0.63,0.74 -0.41,1.46 -4.41,2.65 -6.94,-0.07 -2.31,1.86 -2.63,4.21 0,0 -2.21,-4.42 -2.39,-0.93 -4.94,-0.33 -16.15,3.63 -1.26,-0.15 -2.84,-1.29 -5.93,-1.91 -2.66,0.11 -1.11,0.63 -1.23,1.54 -4.44,7.69 -3.17,7.2 -9.85,9.9 -1.26,0.81 0,0 -0.23,-0.59 1.22,-3.28 -1.11,-3.89 -0.65,-0.38 -1.92,0.54 -1.28,-0.51 0,0 1.04,-0.4 4.08,-2.98 0.47,-1.55 0.01,-2.06 -0.94,-5.47 -0.31,-0.37 -2.8,-0.93 -0.79,-1.58 0.35,-1.2 2.11,-2.77 0.03,-1.08 -0.38,-2.18 -1.44,-3.24 -1.01,-8.89 -0.64,-1.46 -1.92,-0.92 -0.15,-0.35 0.11,-1.36 1.91,-6.36 z"
     title="Madriz"
     id="NI-MD" />
  <path
     d="m 144.3855,337.978 2.23,0.63 3.36,2.62 2.62,1.12 2.62,-2.99 2.99,-1.87 3.36,-0.37 3.37,0.37 2.61,4.86 1.13,0.75 -0.38,2.99 -1.87,1.87 -1.49,0.75 -1.13,3.74 8.61,0.37 3.73,-2.24 11.22,0 0.38,-9.72 1.49,-2.62 0,-2.24 0.75,-2.62 -2.99,-0.75 -2.62,-1.5 -2.24,0.75 -2.25,3.37 -0.74,0.37 -0.75,1.12 -2.62,0.38 0,-5.61 -2.24,-3.37 -1.5,-3.36 -2.99,-4.11 -1.12,-6.36 -2.25,-3.74 -6.61,0.49 0,0 -0.22,-0.27 0,0 -0.69,-1.11 0.62,-0.84 -1,-0.35 0.03,-0.35 0.98,-0.29 -0.61,-1.13 0.52,-0.67 1.42,-5.06 0.98,-2 1.95,-1.1 1.6,-2.27 4.47,-1.1 0,0 2.35,0.81 4.02,-0.28 4.11,1.04 2.04,1.06 2.76,2.49 0.92,-0.02 1.54,-0.69 2.05,0.55 2.51,1.66 3.89,4.03 2.26,0.79 4.38,2.26 4.53,1.41 0,0 -1.08,1.45 0.36,0.78 -0.88,0.27 -0.02,0.42 1.53,2.82 -0.68,0.62 0.45,1.52 1.38,0.99 2.55,4.18 2.23,1.22 0.34,1.55 1.08,0.95 -1.29,1.16 -0.88,3.54 2.9,3.44 9.38,7.6 -2.51,3.97 0.75,1.16 -0.96,0.53 -0.2,0.56 0.27,1.99 0,0 -2.07,-0.72 -0.59,-0.84 -1.77,-0.03 -0.48,-0.4 -1.61,1.32 -0.21,1.33 -0.56,0.77 -1.48,1.07 -5.35,1.6 -2.48,1.08 -2.3,0.02 0,0 0,0 0,0 -3.61,-1.13 -1.38,0.31 -2.34,1.44 -1.26,0.26 -2.3,-0.19 -2.45,0.68 -2.38,3.2 -3.51,1.13 -3.8,5.32 4.07,4.47 -2.13,3.57 -5.26,2.33 -4.09,-3.66 -2.77,4.24 0,0 -9.83,13.89 -0.97,2.94 -2.43,2.76 -2.85,1.03 -2.14,1.81 -0.57,1.17 1.46,3.46 -0.22,0.68 -1.47,0.95 0,0 -5.04,-3.48 -4.09,-3.72 -0.39,-2.22 -1.72,-3.2 -4.54,-5.47 -4.85,-4.03 -0.7,-1.69 -0.18,-1.74 -1.92,-3.34 -3.49,-3.52 -0.08,-0.59 -1.43,-0.85 -0.62,-1.41 0,0 3.3,-2.59 0.01,-1.45 -1.39,-3.52 0.6,-1.32 1.6,-0.34 2.14,-1.07 4.34,0.82 1.53,-1.72 1.98,-1.37 2.4,-1.01 1.09,-1.7 2.4,-1.14 -0.29,-1.8 0.81,-1.63 -0.03,-1 -0.85,-1.03 -2.54,-0.7 -0.48,-0.7 2.77,-6.45 0,0 z"
     title="Managua"
     id="NI-MN" />
  <path
     d="m 202.2955,355.548 1.85,2.17 0,0 0.67,0.79 -0.13,0.51 0.63,1.05 -0.15,2.16 0.54,0.38 1.52,-0.2 0.23,0.24 -1.49,1.7 0.22,0.89 0.94,-0.17 0,0 -0.34,5.61 -5.54,7.18 -0.83,1.81 -1.75,0.26 -1,0.59 -0.38,2.69 -2.81,4.07 -2.11,6.22 0,0 -0.8,-1.31 -0.55,-0.24 -0.55,0.37 -2.26,-0.31 -1.4,-0.68 -3.23,-0.13 0.48,-1.3 -1.54,-0.25 0.66,-0.81 -0.22,-1.42 1.22,-1.59 -0.18,-0.17 -3.34,-1.49 -1.18,-2.68 -6.35,-1.89 -4.04,-2.08 0,0 2.77,-4.24 4.09,3.66 5.26,-2.33 2.13,-3.57 -4.07,-4.47 3.8,-5.32 3.51,-1.13 2.38,-3.2 2.45,-0.68 2.3,0.19 1.26,-0.26 2.34,-1.44 1.38,-0.31 z"
     title="Masaya"
     id="NI-MS" />
  <path
     d="m 262.3055,203.788 0.8,1.63 0.35,2.17 1.16,2.81 3.6,4.53 1.76,1.23 1.73,3.22 2.89,1.46 0.86,2.08 1.76,2.3 2.79,1.91 1.77,-0.2 1.07,-0.82 0.51,0.23 0.76,1.1 1.32,0.77 0.92,1.34 1.89,0.4 1,2.28 1.42,0.34 0.67,1.21 1.02,0.1 1.23,0.95 0.81,-0.07 0.78,-1.56 0.47,-0.27 2.18,-0.03 1.23,-1.72 1.53,0.23 1.63,-1.66 1.93,2.6 0.33,-0.43 0.25,-2.64 2.59,-0.17 0.92,1.53 0.83,0.43 0.42,-1.96 1.25,-1.11 2.59,-0.76 2.5,0.17 0.5,0.68 -0.08,1.02 -1.58,2.47 0.41,1.02 -0.58,0.86 -3.76,1.87 -0.75,1.7 0,1.03 0.5,1.19 1.25,1.11 0.75,1.36 0,0 0.09,0.76 -2.84,3.33 -1.84,1.02 -1.17,1.1 -0.25,3.58 -0.75,2.04 -1.5,-3.4 -1.25,0.08 -1.09,1.96 -0.83,2.55 -1.67,2.64 0.83,1.79 1.92,2.55 0.42,1.62 -0.5,3.83 -0.67,1.36 0.67,2.64 1,1.27 0.33,1.28 0.06,2.81 2.78,-0.6 2.51,0.08 2.41,2.36 0,0 -1.45,2.69 0.25,1.5 -1.19,0.66 0.16,0.69 0.92,1.09 -0.04,1.22 -2.23,2 -0.72,1.57 -1.01,0.96 0.93,2.96 -0.1,1.11 -0.66,0.89 -0.78,0.05 -1.41,-0.61 -0.35,0.25 0.15,2.28 -0.14,0.76 -0.66,0.77 -3.14,-0.33 -0.66,0.11 -1.02,0.86 -0.55,-0.18 -1.97,-3.61 -1.47,-1.55 -0.43,-0.07 -0.68,1.13 -2.52,-0.16 -0.41,-0.26 0.96,-1.88 -0.36,-0.6 -4.48,-1 -0.93,-1.4 -0.49,-0.2 -2.72,-0.28 -1.21,1.08 -1.08,-2.8 -1.84,-0.74 -2.34,-1.51 -1.61,0.51 -1.1,1.4 -1.62,0.64 -1.44,1.8 -1.01,-0.28 -1.94,-1.65 -3.41,-0.7 -1.52,1.02 -1.38,-0.38 -2.17,0.38 -1.18,0.73 -0.89,2.2 -0.67,0.71 -2.4,0.01 -1.1,0.61 -0.38,0.66 -1.32,-0.57 -0.51,0.16 -0.71,0.58 -1.69,0.41 -0.39,0.92 -1.42,-0.49 -0.54,0.52 -0.49,-0.03 -0.82,-0.56 -1.15,0.01 -1.47,-0.75 -1.47,-0.19 -1.96,0.42 -3.21,1.4 -3.65,0.62 -7.54,0.12 -5.3,0.68 -1.02,0.4 0.53,3.19 -0.21,1.51 -0.6,1.09 -1.7,1.27 -4.13,1.51 -2.08,1.48 -1.47,1.95 -0.86,0.5 0,0 -4.53,-1.41 -4.38,-2.26 -2.26,-0.79 -3.89,-4.03 -2.51,-1.66 -2.05,-0.55 -1.54,0.69 -0.92,0.02 -2.76,-2.49 -2.04,-1.06 -4.11,-1.04 -4.02,0.28 -2.35,-0.81 0,0 0.02,-2.32 1.07,-3.26 -0.55,-1.68 -0.11,-1.8 0.65,-2.07 -0.16,-0.6 0.77,-6.22 -0.5,-4.65 0.2,-4.06 0,0 1.03,-6.5 6.22,-3.55 3.3,-0.49 2.12,-0.75 1.08,-1.32 2.17,-5.32 -0.65,-1.46 1.37,-0.6 0.82,-1.37 1.47,-0.32 0.46,-0.54 0,0 1.3,0.38 1,-0.2 1.21,0.53 0.52,-0.61 1.75,0.16 1.32,0.49 1.2,1.32 0.92,3.27 4.46,0.23 -0.03,-2.53 0.46,-0.36 1.98,0.61 4.37,0.42 2.27,-0.76 4.73,-4.87 9.72,-8.58 1.14,-0.53 2.15,-0.1 0.92,-0.59 3.52,-5.79 5.71,-5.34 2.65,-3.07 4.57,-8.44 2.72,-1.36 5.03,-0.72 z"
     title="Matagalpa"
     id="NI-MT" />
  <path
     d="m 202.3955,117.998 0.19,1.43 -0.55,1.84 -1.39,2.62 -0.27,1.89 0.94,2.19 8.15,6.27 2.31,2.2 1,1.6 2.28,0.97 0.6,-0.44 0.18,-1.33 0.79,-0.95 2.91,0.33 1.49,0.75 0.89,1.25 -0.08,3.19 1.41,1.31 0.55,1.53 0.7,0.28 0.5,1.05 0.85,0.38 2.4,0.1 2.43,-0.66 0.93,0.32 0.92,1.25 0,0 -1.99,3.44 -1.44,0.69 -0.97,1.28 -0.09,0.79 1.25,3.55 -1.35,2.37 0.39,1.78 -0.29,1.28 -2.89,5.62 0,4.73 -1.45,1.78 -0.1,0.88 1.06,1.68 0.1,0.69 -0.19,0.79 -0.49,0.39 -0.29,1.88 0.87,0.29 0.77,-0.2 0.39,0.5 -0.39,0.98 -1.25,0.59 -0.48,0.89 1.13,1.66 -0.5,1.01 -1.16,-0.78 -1.1,0.39 -1.09,1.18 -1.39,-0.03 -0.68,0.32 -1.2,-0.34 -0.11,0.59 -0.66,0.62 -2.08,1.43 -0.14,1.8 -0.73,0.86 -1.06,-0.86 -1.05,0.21 -0.36,-0.24 -1.06,-1.68 -4.77,-3.23 -2.39,0.12 -1.38,-0.69 -0.71,0.43 -0.41,1.28 -0.6,0.51 -3.84,0.38 -0.68,-0.37 0,0 -1.27,-1.33 -3.39,-2.51 -0.34,-2.67 -1.12,-1.54 -4.24,-3.12 -3.47,-3.1 -1.6,0.9 -2.19,-0.22 -0.96,0.57 -0.71,-0.77 -2.78,-0.71 -4,-0.06 -1.68,0.77 -4.02,3.03 -1.37,0.53 -2.38,0.1 -1.92,1 -1.17,-0.9 -12.33,-2.26 -2.27,0.03 -2.26,0.49 -2.62,0.96 -1.56,1.27 -1.44,0.33 -1.35,-1.3 -1.74,0.27 -3.3,-1.67 -0.91,-1.15 -0.22,-3.37 -1.94,-1.64 -2.75,-0.86 -4.71,-0.24 -3.06,-0.55 -2.93,1.4 0,0 -2.51,-0.97 -0.25,-1.47 2.67,-6.08 0.13,-0.75 -0.76,-3.57 0.65,-2.86 2.55,-0.13 2.06,-1.28 1.09,-0.3 5.81,0.52 1.59,0.61 1.44,-0.09 1.22,-0.6 2.45,0.3 4.08,-0.94 1.96,-1.48 1.58,0.04 1.58,0.31 1.43,2.06 2.82,1.46 3.01,-0.26 2.74,-1.42 0.76,0.46 0.74,2.08 0.71,0.44 1.59,-0.37 3.06,0.32 0.84,-0.19 1.29,-1.13 0.46,0.05 0.93,1.02 1.51,0.19 0.71,-0.27 2.98,-2.38 1.01,-2.42 1.4,-1.61 0.34,-1.59 -0.52,-1.8 0.29,-0.48 2.43,-1.22 0.52,-1.67 2.85,-1.87 1.18,-2.17 1.5,-1.13 0.91,-2.02 2.41,-1.24 0.8,-1.56 1.14,-0.6 -0.49,-2.21 0.19,-0.78 0.28,-0.33 3.29,-0.5 2.55,-1.8 0.18,-0.94 -1.91,-1.48 0.17,-1.47 3.43,-1.44 2.29,-1.85 1.24,-0.58 2.46,-0.18 0.97,-0.47 3.54,0.06 2.67,-1.02 z"
     title="Nueva Segovia"
     id="NI-NS" />
  <path
     d="m 265.7455,436.018 0.19,1.28 1.28,1.4 0.39,1.62 0.16,1.89 -0.56,2.35 -1.05,1.15 -1.69,0.76 -2.19,0.84 -1.47,0.09 -1.61,-0.33 -1.39,-0.75 -1.06,-1.52 -1.66,-1.4 -0.96,-2.85 0.65,-2.35 -0.39,-0.78 -2.38,-1.9 -1.28,-0.46 -2.6,0.06 -0.05,1.21 -1.13,0.55 -0.72,-0.78 -0.9,-0.13 -2.32,1.45 -1.1,0.12 -2.82,-1.6 -2.15,-2.01 0.15,-0.89 2.14,-3.42 0.14,-1.74 1.1,-1.02 3.53,-1.78 3.46,-1 1.65,0.05 1.28,-0.87 2.29,-0.1 2.42,1.92 0.32,0.65 0,0 0.02,0.76 0,0 -0.62,2.12 0,0 0.5,4.04 0,0 0.52,1.84 1.49,1.52 1.77,-0.21 0.94,0.35 1.96,-0.65 2.17,0.84 0.55,-0.37 0.05,-0.71 0.71,0.2 0,0 0.27,0.56 z m -50.73,-24.39 0.12,0.5 1.77,1.47 1.28,1.84 0.4,0.06 -0.01,-0.8 -0.8,-1.17 -0.51,-3.52 1.68,0.87 0.56,4.96 1.06,4.45 1.88,5.56 5.18,7.83 0.39,1.6 0.05,2.52 1.1,3.92 0.21,2.06 2.03,4.65 1.92,3.01 2.35,2.58 2.03,0.86 3.99,5.82 2.39,1.92 2.95,3.08 1.57,0.08 0.33,-0.81 0.42,-0.06 1.96,0.36 1.47,1.19 3.33,1.23 2.78,3.07 0.75,0.45 1.09,-0.03 0.76,1.06 1.95,1.51 1,0.41 1.14,-0.39 0.52,0.24 0,0 0.77,0.57 0,0 3.12,1.54 3.11,-0.12 6.56,1.07 2.51,1.33 1.75,-0.51 1.43,0.09 7.19,4.47 0.74,0.11 1.06,-0.52 2.56,1.5 2.62,0.17 0.55,-0.33 0,0 0.77,3.17 -0.38,1.45 0,0 -2.05,-0.74 -18.1,-9.07 -6.85,0.03 -12.71,-4.67 -0.64,-0.41 -3.94,-5.14 -6.12,-1.05 -1.06,0.43 -0.9,2.48 -8.68,14.47 -1.74,-0.15 -1.5,-1.35 -2.57,-0.05 -0.55,-0.9 -1.28,-0.07 -0.69,-1.04 -0.62,0.25 -0.78,-0.48 -0.23,0.36 -1.42,-1.02 -0.13,-0.76 -0.89,-0.9 0.15,-1.17 -0.13,-0.78 -0.42,-0.28 0.14,-0.56 -2.04,-3.71 -2.44,-2.76 -0.56,0.08 -0.71,-1.68 -0.59,-0.11 -1.27,-1.58 -0.59,0 -0.41,-0.84 -0.72,-0.28 -0.19,-0.87 0.48,-0.14 0.12,-0.73 -1.65,-0.32 -0.5,-0.56 0.62,-0.47 -0.11,-0.36 -1.68,-0.1 -0.29,-1.74 -0.5,-0.87 -0.84,-0.29 -0.02,-0.67 -0.61,-0.53 -0.33,-0.11 -0.29,0.36 -0.95,-0.51 -0.08,-0.73 -0.59,-0.2 -1.52,-1.94 -2.34,-1.44 -0.61,-0.2 -0.51,0.39 -0.69,-0.73 -0.73,0.47 -0.33,-0.17 -0.1,-0.78 -1.44,-1.33 -0.08,-0.9 -1.25,-0.68 -0.67,0.08 -1.53,-1.1 0.59,-0.64 -0.28,-0.64 -1.58,-1.52 -2.26,-0.8 -2.19,-3.4 -5.12,-3.87 -3.44,-1.03 -1.3,-2 0.18,-1.62 -0.9,-1.34 0,0 1.87,-1.35 0.02,-0.94 0.73,-0.81 -0.19,-0.99 0.83,-0.65 0.48,-1.89 3.98,-4.09 0,0 1.59,-0.17 1.8,0.65 2.09,-1.49 4.27,-0.46 0.98,-0.66 0.95,-2.48 1.46,-1.06 1.17,-0.2 1.66,0.81 1.89,0.15 0.33,-0.68 1.96,-0.63 3.1,-0.36 2.13,-1.59 z"
     title="Rivas"
     id="NI-RI" />
  <path
     d="m 330.9155,476.648 0,0 -0.39,1.37 1.54,0.77 -0.36,0.68 -1.25,-0.06 -3.46,-2.82 -0.65,-1.28 2.05,1.29 0,0 2.52,0.05 z m -5.67,-1.58 0.17,0.25 0,0 -0.15,0.21 0,0 -1.33,-0.25 0,0 -0.59,0.31 -0.15,-0.25 0.37,-0.87 -0.33,-1.37 1.17,-0.29 0.45,-0.5 -0.02,2.32 0,0 0.41,0.44 z m -10.1,-1.92 -0.48,1.35 0.01,1.56 -0.44,0.15 -0.9,-1.45 0.62,-1.04 0.07,-0.98 1.23,-0.79 0,0 -0.11,1.2 z m 3.64,-3.2 0.98,1.41 0.66,0.02 0.35,1.56 0.75,1.25 -0.64,0.39 -1.57,0.08 -2.7,1.93 -1.23,-2.53 0.93,-1.95 -0.52,-1.64 0.51,-0.27 1.88,0.38 0.15,-0.56 0.45,-0.07 z m -8.84,-53.24 0.55,-0.35 -0.09,-0.8 0.98,-0.71 0.26,-1.45 2.87,-0.48 2.01,-1.65 0,-1.01 0.61,-0.08 -0.01,-0.65 1.43,0.2 1.31,0.87 0.55,-1.05 1.14,-0.18 1.48,-2.65 2.01,-0.32 0.16,-0.57 0.98,-0.82 -0.55,-2.05 1.3,-0.67 0.63,-1.85 4.17,-1.26 0.92,-0.96 0.99,0.18 0.94,-0.56 1.08,-0.12 2.03,-2.65 7.15,-3.84 3.2,-1.1 3.05,0.02 3.63,-1.29 2.59,0.1 1.11,0.37 2.43,-0.38 5.12,1.24 4.07,0.13 0,0 1.02,4.66 2.18,6.07 0.58,0.7 1.48,-0.12 0.73,0.62 0.02,1.2 -1.19,3.58 -0.09,2.32 0.42,1.12 2.95,3.7 0.57,1.5 -0.25,2.56 -2.9,4.82 -0.85,3.5 0.03,3.67 0.96,4.46 0.06,4.26 0.54,1.42 1.72,1.22 6.85,1.77 3.85,2.88 4.24,2.57 6.76,2.81 0.74,1.31 0.04,0.71 -0.5,3.08 0.08,2.23 0.98,1.67 0.94,0.8 4.77,1.74 7.67,3.9 1.46,1.37 4.81,8.02 1.66,0.84 0.98,-0.03 0.6,0.74 0.57,-0.12 0.86,0.55 0.53,-0.29 1.26,0.77 1.34,-0.32 3.71,0.92 1.87,-0.48 1.13,-0.72 0.52,0.57 1.19,-0.22 0.12,0.69 -0.68,0.41 0.6,2.21 1.2,1.81 0.97,0.51 0.86,-0.58 2,-0.4 0.79,-0.68 1.04,0.12 1.33,-1.47 0.36,-0.04 0.33,0.61 1.15,-0.15 0.33,0.48 2.19,-0.65 -0.03,-0.88 1.27,-0.3 1.24,0.75 1.42,-1.24 0.91,0.07 0.91,1.37 -0.37,2.63 1.25,1.87 -0.05,1.72 0.54,0.86 0.67,0.4 1.03,-0.85 1.09,-0.36 3.47,0.68 0,0 1.02,0.09 2.83,2.35 5.06,7.81 2.1,2.05 1.66,1 0.14,0.67 -0.32,0.52 0.36,0.36 2.01,0.08 -0.14,-0.94 -1.56,-1.44 1.15,0.1 0.93,-0.35 2.01,0.35 -0.1,0.72 2.03,2.48 -0.45,1.85 1.08,1.37 0.15,0.85 -0.36,3.71 1.13,3.27 -0.28,1.26 -1.32,1.96 -1.01,0.51 -2.12,0.41 -1.79,-0.39 -0.82,0.69 -1.54,0.12 -1.27,0.57 -1.9,1.23 -3.33,-0.06 -2.72,2.82 -1.99,-0.16 -1.41,0.48 -0.4,0.87 -2.38,2.07 -4.13,-0.28 -0.79,0.73 -2.47,0.86 -0.9,-0.11 -0.87,-1.66 -3,-0.86 -0.6,-0.64 -0.39,-1.43 -3.78,-2.16 -2.04,-3.06 -1.25,0.17 -0.38,1.52 -1.11,-0.49 -1.05,0.03 -0.57,0.57 -0.34,1.13 -0.73,0.21 -1.2,-0.09 -2.71,-1.25 -1.76,0.8 -1.08,-0.24 -0.78,-2.18 -5.03,0.5 -1.98,-0.47 -1.3,1.02 -0.69,-1.77 -1.03,-0.66 -1.44,-0.34 -0.31,-0.65 -0.88,-0.41 -0.23,-0.74 2.18,-0.91 -0.02,-0.65 0.53,-0.87 -0.54,-1.69 0.32,-0.73 -0.29,-0.87 -0.51,-0.64 -2.04,-0.69 -0.87,-0.9 -4,-0.78 -1.81,-2.51 -2.08,-0.51 -1.2,0.06 -0.61,-0.61 -1.2,-2.7 -1.19,-0.82 -0.07,-0.64 0.89,-2.56 -1.63,-2.37 -0.65,0.02 -1.79,1.79 -3.03,0.89 -1.81,1.62 -0.85,0.29 -1.66,-0.19 -1.74,-0.96 -4.04,-4.42 -2.33,-1.29 -6.56,-2.47 -1.21,-2.22 -4.26,1.4 -8.43,-4.92 -0.37,-0.06 -27.98,16.77 -8.97,-3.74 -24.12,-8.69 0,0 0.38,-1.45 -0.77,-3.17 0,0 1.12,-0.52 0.49,-0.85 1.32,0.81 1.54,0.27 1.32,1.47 0.97,0.46 1.74,-0.18 0.76,-0.45 1.35,0.58 3.22,-0.08 0.48,0.43 0.4,1.18 1.48,-0.06 0.89,0.7 4.92,-0.62 0.68,0.5 0.1,1.69 0.74,0.58 1.57,-0.06 3.95,-1.09 1.77,1.96 0.48,1.03 0.78,0.33 1.98,-0.24 4.28,-2.02 3.87,0.13 1.75,-1.03 1.11,-1.42 1.73,-1.01 2.02,0.13 -1.25,-0.75 1.44,-3.53 -0.96,-1.84 -0.96,-0.58 -0.42,-1.78 0.18,-2.79 -0.45,-4 0.58,-1.31 -0.59,-0.91 0.82,-1.7 -1.19,-0.98 -1.05,-5.69 -2.16,-1.19 -1.56,-0.23 -1.7,-1.69 -2.28,-0.82 0.01,-0.52 1.02,-0.23 -0.45,-2.17 -2.25,-1.32 -1.14,-0.07 -0.78,-1.9 0.1,-1.15 -0.7,-4.42 0.56,-0.94 -0.82,-1.74 -0.63,-0.36 -1.09,1 -0.67,1.25 -0.63,-0.05 -1.46,-2.06 0,-1.09 -1.11,-1.39 0.17,-1.59 -0.82,-0.13 -0.98,-1.41 -2.68,-2.12 -3.11,-4.75 -0.96,-0.43 -0.99,-1.25 -1.6,-0.69 -1,-1.46 -0.44,-2.4 -2.33,-2.65 -0.7,-1.67 -1.72,-0.29 -0.29,-1.5 z"
     title="Río San Juan"
     id="NI-SJ" />
</svg>
