<?xml version="1.0" encoding="UTF-8" standalone="no"?>
<!-- Created for MapSVG plugin: http://mapsvg.com -->
<svg
   xmlns:mapsvg="http://mapsvg.com"
   xmlns:dc="http://purl.org/dc/elements/1.1/"
   xmlns:rdf="http://www.w3.org/1999/02/22-rdf-syntax-ns#"
   xmlns:svg="http://www.w3.org/2000/svg"
   xmlns="http://www.w3.org/2000/svg"
   mapsvg:geoViewBox="51.880933 26.388573 59.840216 16.641322"
   width="461.53455"
   height="604.98627">
  
  <path
     d="m 254.3307,93.720268 -0.22,1.29 0,0 -0.43,0.86 0,0 -0.19,-0.09 0,0 -2.07,-0.55 -2.37,-0.32 -0.86,-1.08 0,-0.97 1.19,-0.97 0.11,-2.05 -0.86,-1.73 -0.86,-1.08 -0.11,-0.97 0,0 0.03,-0.71 0,0 1.05,-0.15 1.29,0.54 0.97,1.4 0,0 0.56,0.56 -0.03,0.59 0,0 -0.09,0.93 1.5,1.48 0,0 0.19,0.01 -0.84,0.96 0,0 0.11,1.19 0,0 0.97,0.32 0.96,0.54 z m 2.05,-23.07 0,0.97 -0.97,0.54 -0.97,-0.43 0,-0.86 0.97,-0.65 0.97,0.43 z m 2.23,-7.35 1.34,-1.2 0,0 0.15,0.96 -0.11,0.97 -0.31,0.67 -0.11,0.6 -0.43,0.09 -0.11,0.41 0.1,0.53 0.16,0.27 0.29,0.25 0.19,0.09 0.11,-0.14 0.18,-0.04 -0.19,-0.41 0.19,-0.14 0.15,0.41 0.45,0.28 -0.13,0.39 0.42,0.39 -0.02,0.09 -0.26,0.11 0,0.16 0.23,0.21 0.08,0.21 -0.23,0.11 -0.15,0.23 -0.29,0.21 0,0.14 0.11,0.11 0,0 -1.35,0.85 -0.61,0.46 -0.27,0.32 0,0 -0.09,-1.76 0,0 -0.43,-1.4 0.32,-1.62 -0.18,-1.81 0,0 0.8,-1 z m 1.47,24.18 0.11,0.07 0.02,0.9 -0.06,0.05 -0.35,-0.19 0.28,-0.83 z m -0.4,-3.9 0.21,2.98 0.27,0.6 -0.35,1.04 -0.11,0.05 0,0.09 0.26,0.07 0.13,0.26 0,0.39 0.21,0.37 0.27,1.06 0,0 -1.22,0.13 0,0 -0.62,0.23 -0.29,0.46 -0.11,0.48 0,0 -0.76,-0.45 0,0 -1.44,-0.19 0,0 0.14,-1.96 0,-1.51 -1.19,-2.05 0,-1.19 0.86,-0.86 1.83,-0.11 1.91,0.11 z"
     title="Ash Shāriqah"
     id="AE-SH" />
  <path
     d="m 250.0707,100.21027 -0.28,0.56 -0.17,0.74 -0.01,0.7 0,0 -0.2,0.81 -0.15,0.23 -1.28,0.38 -0.21,0.55 -0.24,1.08 -0.32,0.25 -1.44,0.46 -1.27,-0.16 -0.51,0.04 -1.24,-0.34 -0.53,-0.46 0,0 1.78,-2.02 0.96,-2.52 0,0 0.32,-0.04 0,0 0.36,-0.17 0.4,-0.07 1.06,0.12 0.92,-0.18 z"
     title="Dubayy"
     id="AE-DU" />
  <path
     d="m 260.4807,69.300268 0.1,0.07 -0.14,0.32 -0.06,2.16 -0.39,1.31 -0.27,1.84 -0.13,2.32 0.08,0.67 -0.21,1.22 0.06,1.22 -0.05,0.9 0.15,0.65 -0.05,1.13 0.02,0.16 0.1,0 0,0.3 0,0 -1.9,-0.1 -1.83,0.11 -0.86,0.86 0,1.19 1.19,2.05 0,1.51 -0.15,1.96 0,0 -0.18,-0.02 0,0 -0.86,-0.32 0,0 -2.16,-0.11 0,0 -1.5,-1.48 0.09,-0.93 0,0 0.03,-0.59 -0.56,-0.56 0,0 -0.97,-1.4 -1.29,-0.54 -1.05,0.15 0,0 0.08,-1.88 0,0 0,-4.53 0.75,-2.48 0.11,-1.19 2.13,-1.1 0,0 0.06,0.21 0.19,0.19 0.6,0.27 0,0 2.08,0.41 0.42,0 0.4,-0.12 0,0 0.79,-0.78 1.14,-0.65 0,0 0.39,-0.28 0,0 0.63,-0.28 0.19,-0.25 0,0 0.19,-0.3 0.08,-0.39 0,0 0.06,-0.87 0.23,-0.43 0,0 0.27,-0.32 0.61,-0.46 1.35,-0.85 0,0 0.04,0.03 z m -5.04,28.76 -0.25,0.32 0,0 -0.6,-1.37 -0.1,-0.49 -0.4,-0.46 0,0 -0.4,-0.19 0,0 0.43,-0.86 0,0 0.18,-1.07 1.55,-0.22 1.51,0.11 0,0 0.97,0.22 0.28,0.21 0,0 0.07,0.8 0,0 -0.04,0.5 0,0 -0.33,0.42 -0.46,0.24 0,0 -1.79,0.47 0,0 0,0 0,0 -0.26,0.78 -0.2,0.34 0,0 -0.16,0.25 z m -7.56,-50.93 0.75,-0.23 0.81,0 0.97,0.81 0.24,0.73 0.41,0.57 0.57,0.49 0.65,0.32 0.79,0.07 0,0 1.35,-1.21 0.1,0.53 0.31,0.59 0.79,0.67 0.15,-0.04 -0.05,-0.3 0.19,-0.12 0.05,0.05 -0.16,0.12 0.03,0.12 0.45,-0.16 -0.02,-0.14 -0.26,-0.12 0.08,-0.05 0.4,0.3 0.29,0.02 1.3,0.57 0.13,-0.04 0.56,0.14 0.21,0.25 0.34,-0.11 0.14,0.12 0.08,0.69 -0.19,1.44 0.13,0.96 0.32,0.41 -0.06,0.3 0.23,0.27 0.27,0.09 0.06,0.28 0,0.51 -0.42,1.13 -0.04,0.53 -0.15,0.11 -0.03,0.2 0.18,0.25 0.05,0.3 -0.08,0.18 0.13,0.28 -0.11,0.18 -0.02,0.23 0.1,0.18 -0.19,0.85 -0.06,0.76 0.11,0.51 0.27,0.09 -0.06,0.3 0,0 -1.34,1.2 0,0 -0.95,1.2 -0.43,0.34 -0.51,0.28 -1.7,0.56 -0.48,0.32 -0.27,0.39 -0.13,0.58 0,0 -0.08,1.19 -0.19,0.44 -1.45,0.71 -0.71,0.18 -0.97,0 0,0 -0.56,-0.18 -0.11,-0.21 0.35,-0.6 -0.05,-0.14 -2.22,-0.62 -0.76,0.07 -1,0.9 -0.52,0.21 -0.23,0.35 -0.03,0.19 0.13,0.07 0.34,0.04 0.82,-0.16 0.27,0.02 0.19,0.09 0.31,0.55 0.6,0.16 0.84,-0.09 0.11,0.07 0.03,0.14 -0.42,0.81 -0.18,0.19 -0.6,0.25 -1.26,0.27 -0.11,0.18 0,0.34 0.37,1.08 -0.08,0.65 -0.15,0.12 -0.48,0.05 -0.37,0.92 -0.42,0.23 -0.53,0.11 -0.72,-0.16 -0.53,-0.21 -0.48,-0.48 -0.29,-0.02 -0.6,0.14 -0.56,0.51 -0.29,0.02 -0.4,-0.11 -0.39,-0.27 -0.66,-0.27 -1.48,0.11 -0.6,-0.07 0,0 0.03,-0.57 0.31,-1.03 -0.29,-0.97 -0.56,-1.04 0.66,-0.62 0.23,-0.11 0.31,0.02 0.58,-0.64 0.03,-0.32 -0.18,-0.73 -0.13,-0.18 -1.16,-0.6 0.32,-1.06 0.6,-1.28 0,-0.34 0.13,-0.46 0,0 0.42,0.27 0.31,0.35 0.11,0.43 0.31,0.39 0.39,0.19 1.64,0.28 1.24,0.6 0.66,0.09 0.97,-0.35 0.26,-0.27 0.21,-0.62 0.21,-0.3 0.13,-0.05 0.89,0.37 0.31,-0.11 0.21,-0.48 0.11,-0.57 -0.11,-1.68 -0.1,-0.11 -0.29,0.02 -1.3,0.39 -0.39,-0.02 -0.56,-0.28 -0.03,-0.44 -0.32,-0.43 0,-0.32 1.63,-1.58 0.45,-0.64 0.23,-0.58 -0.02,-0.35 -0.32,-0.27 -0.71,-1.05 -0.68,-0.66 -0.35,-0.03 -0.32,0.14 -0.8,0.67 -0.74,0.28 -1.22,-0.16 -1.5,0.23 -0.47,-0.02 -0.52,-0.28 -0.69,-0.05 -0.24,-0.11 -0.32,-2.09 -0.47,-1.4 0.21,-0.43 -0.5,-1.49 0.06,-0.91 0.29,-0.39 0.29,-0.21 0.4,-0.07 0.48,0.11 0.4,0.27 0.56,-0.04 0.43,-0.25 0.4,-0.05 0.56,-0.27 0.24,-0.32 0.24,-0.89 0.34,-0.34 0.53,-0.3 0.69,-0.67 0.24,-0.04 0.42,0.53 0.39,0.11 0.39,-0.11 0.34,-0.2 0.32,-0.32 0.37,-0.18 1.35,0.07 0.74,-0.23 0.55,-0.58 0,0 0.01,0.11 z"
     title="Al Fujayrah"
     id="AE-FU" />
  <path
     d="m 241.3007,29.500268 -0.34,0.78 0.08,0.28 -0.64,1.51 -0.1,0.07 -0.11,-0.09 -0.06,-0.21 0.32,-0.64 0.6,-1.6 0.25,-0.1 z m -3.26,45.26 0.6,0.07 1.48,-0.11 0.66,0.27 0.39,0.27 0.4,0.11 0.29,-0.02 0.56,-0.51 0.6,-0.14 0.31,0.04 0.48,0.48 0.53,0.21 0.72,0.16 0.53,-0.11 0.42,-0.23 0.37,-0.92 0.48,-0.05 0.15,-0.12 0.08,-0.65 -0.37,-1.08 0,-0.34 0.11,-0.18 1.26,-0.27 0.6,-0.25 0.18,-0.19 0.42,-0.81 -0.03,-0.14 -0.11,-0.07 -0.84,0.09 -0.6,-0.16 -0.31,-0.55 -0.19,-0.09 -0.27,-0.02 -0.82,0.16 -0.34,-0.04 -0.13,-0.07 0.03,-0.19 0.23,-0.35 0.52,-0.21 1,-0.9 0.76,-0.07 2.22,0.62 0.05,0.14 -0.35,0.6 0.11,0.21 0.56,0.18 0,0 -0.5,1.31 0.4,3.08 0,0 0.08,0.29 0,0 -2.13,1.1 -0.11,1.19 -0.75,2.48 0,4.53 0,0 -0.11,2.59 0,0 0.11,0.97 0.86,1.08 0.86,1.73 -0.11,2.05 -1.19,0.97 0,0.97 0.86,1.08 2.37,0.32 2.07,0.55 0,0 0.6,0.28 0,0 0.4,0.46 0.1,0.49 0.6,1.37 0,0 -0.33,0.35 0,0 -0.42,0.12 0,0 0,0 0,0 -1.36,0.56 0,0 0,0 0,0 -0.5,0.13 0,0 -0.46,0.09 -1.01,-0.08 -0.36,0.1 0,0 -0.67,0.560002 0,0 -2.05,-0.04 -0.92,0.18 -1.06,-0.12 -0.4,0.07 -0.35,0.18 0,0 -0.32,0.04 -0.29,-0.09 0,0 -0.9,-1.020002 0,0 -1.29,-1.02 -0.55,-0.71 0,0 0.1,-0.16 -0.14,-0.27 0,0 -0.26,-0.47 -0.27,-0.88 0,0 -0.03,-0.99 0,0 -0.04,-0.86 -0.25,-1.31 -0.62,-1.34 0,0 -0.59,-0.37 0,0 -1.25,-0.57 -1.1,-0.07 0,-0.78 -0.24,-0.64 -0.74,-1.5 -0.47,-0.44 -0.18,-0.39 0.13,-1.06 -0.26,-1.52 1.37,-2.97 0.16,-0.55 0.19,-0.3 0.26,-0.07 0.06,-0.14 -0.61,-1.11 -0.92,-0.78 -0.23,-0.34 0.06,-1.29 0.18,-0.34 1.67,-0.76 0.13,-0.32 -0.02,-0.37 z m 3.97,-46.97 0.11,0.3 -0.08,0.07 -0.13,-0.04 -0.06,0.21 -0.11,0.07 -0.16,-0.05 -0.18,0.78 -0.23,0.36 -0.06,-0.07 0.63,-1.82 0.27,0.19 z m 6.01,-7.35 0.61,0.8 0.31,1.45 0,0 -0.25,1.39 0.02,1.34 0,0 0.25,1.14 -0.64,4.67 0,0 -0.35,0.83 0.08,0.76 -0.82,2.66 0,0 -0.13,1.03 0.02,1.16 0.9,2.31 -0.44,1.15 -0.18,1.73 0.09,3.36 0,0 0.14,0.53 0,0 0.23,0.33 0,0 -0.55,0.58 -0.74,0.23 -1.35,-0.07 -0.37,0.18 -0.32,0.32 -0.34,0.2 -0.39,0.11 -0.39,-0.11 -0.42,-0.53 -0.24,0.04 -0.7,0.66 -0.53,0.3 -0.34,0.34 -0.24,0.89 -0.24,0.32 -0.56,0.27 -0.4,0.05 -0.43,0.25 -0.56,0.04 -0.4,-0.27 -0.48,-0.11 -0.4,0.07 -0.29,0.21 -0.29,0.39 -0.06,0.91 0.5,1.49 -0.21,0.43 0.47,1.4 0.32,2.09 0.24,0.11 0.69,0.05 0.52,0.28 0.47,0.02 1.5,-0.23 1.22,0.16 0.74,-0.28 0.8,-0.67 0.32,-0.14 0.35,0.03 0.68,0.66 0.71,1.05 0.32,0.27 0.02,0.35 -0.23,0.58 -0.45,0.64 -1.63,1.58 0,0.32 0.32,0.43 0.03,0.44 0.56,0.28 0.39,0.02 1.3,-0.39 0.29,-0.02 0.1,0.11 0.11,1.68 -0.11,0.57 -0.21,0.48 -0.31,0.11 -0.89,-0.37 -0.13,0.05 -0.21,0.3 -0.21,0.62 -0.26,0.27 -0.97,0.35 -0.66,-0.09 -1.24,-0.6 -1.64,-0.28 -0.39,-0.19 -0.31,-0.39 -0.11,-0.43 -0.31,-0.35 -0.42,-0.27 0,0 -0.68,-0.34 -0.31,-0.3 -0.31,-0.07 -0.71,0.07 -0.19,0.2 -0.15,0.73 -0.03,1.52 -0.61,1.24 -0.32,0.46 -0.68,-0.87 -0.69,-1.29 -0.6,-0.71 -1.24,-0.99 -0.95,-0.39 -0.16,-0.3 0.34,-0.41 0.52,-0.35 0.63,-0.74 -0.06,-0.51 -2.58,-2.32 -0.55,-0.64 -0.32,-0.83 -0.02,-1.08 0.18,-1.77 -0.1,-0.96 -0.32,-0.98 -1.19,-2.11 -0.26,-1.9 -0.13,-0.44 -0.26,-0.32 -0.5,-0.07 -0.98,0.16 -0.48,-0.12 -0.96,-1.33 1.17,-1.47 0.27,-0.55 0.32,-0.04 0.31,0.23 0.23,0 -0.03,-0.18 -0.21,-0.02 0.05,-0.34 0.55,0.09 0.1,-0.3 -0.5,-0.09 -0.19,-0.18 -0.15,0.2 0.03,0.25 -0.19,0.05 -0.13,0.21 -0.11,-0.02 0.34,-0.73 0.13,-0.07 0.13,0.05 0.66,-0.94 0.11,-0.34 0.15,-0.02 0.08,0.23 -0.24,0.3 -0.03,0.18 0.29,0.14 -0.1,-0.27 1.88,0.11 0.55,-0.16 0.1,-0.12 0.68,-0.02 0.89,-0.52 1.53,-1.28 0.61,-0.68 0.42,-0.68 1.17,-1.21 0.23,-0.48 0.11,-0.14 0.19,-0.05 0.23,-0.53 -0.05,-0.25 0.08,-0.14 0.06,0 0.1,0.36 0.02,0.36 -0.06,0.09 0.11,0.57 -0.27,0.16 -0.26,0.41 -0.26,0.16 -0.06,0.44 0.27,0.05 -0.05,-0.27 0.06,-0.07 0.08,0.02 0.1,0.21 0.08,-0.04 -0.03,-0.28 0.16,-0.02 0.37,-0.32 0.23,0.27 0.32,-0.07 -0.08,-0.41 -0.52,-0.14 -0.06,-0.18 0.08,-0.09 0.61,0.18 0.08,-0.3 -0.82,-0.07 -0.05,-0.09 0.14,-0.41 -0.13,-0.41 0.19,-0.02 0.29,-0.37 0.18,-0.09 -0.02,-0.12 0.15,-0.14 0.39,-0.18 0.76,-1.32 0.56,-0.73 0.39,-0.85 0.15,-0.12 0.06,0.07 -0.08,0.05 0.02,0.18 -0.16,0.14 -0.1,0.34 -0.77,0.94 -0.32,0.77 -0.39,0.46 -0.03,0.18 -0.37,0.09 -0.05,0.14 0.19,0.02 0.56,-0.21 0.05,-0.16 -0.06,-0.14 0.37,-0.23 0.18,-0.25 0.13,-0.46 0.68,-1.03 0.03,-0.34 0.13,-0.05 0.02,0.11 0.21,-0.04 0.03,-0.2 -0.13,-0.11 0.06,-0.09 0.16,0.12 0.08,-0.37 -0.08,-0.11 -0.11,0 0,-0.11 0.26,-0.6 0.37,-0.02 0.16,0.16 0.53,0.05 0.23,-0.2 0.18,0.04 0.1,0.18 0.24,-0.18 0.03,-0.32 -0.18,-0.04 0.29,-0.34 -0.11,-0.55 0.05,-0.11 0.37,-0.05 0.05,-0.23 -0.16,-0.32 -0.1,-0.52 0.06,-0.14 0.11,0.05 0.08,-0.11 -0.16,-0.25 0.15,-0.16 0.05,-0.3 0.14,0.02 0.11,-0.09 0.06,-0.28 -0.05,-0.44 -0.1,-0.11 0,-0.34 0.08,-0.11 -0.47,-0.37 0.05,-0.45 -0.34,-0.09 -0.03,-0.6 0.08,-0.02 0.06,0.18 0.02,0.36 0.34,0 0.32,-0.48 0.27,-0.18 0.13,-0.27 0.24,-0.05 0.55,-2.12 0,-0.3 0.19,-0.48 -0.02,-0.43 0.37,-1.71 0.34,-0.39 0.11,-0.03 0,0 0.85,0.18 0,0 1.16,-0.44 1.5,0.23 z"
     title="Ra’s al Khaymah"
     id="AE-RK" />
  <path
     d="m 242.2207,105.05027 -0.23,-0.22 -0.07,-0.53 -0.13,-0.1 0.16,-0.31 -0.08,-0.18 -0.37,-0.28 -0.37,-0.49 -0.66,-1.35 -0.11,-0.36 0.06,-1.2 -0.12,-0.200002 -1.57,-1.31 -0.66,-0.98 -0.24,-0.78 0.09,-0.28 0.24,-0.26 0.65,-0.27 0.41,-0.01 0.52,0.13 0.67,0.36 0.28,0.37 1.24,0.87 0,0 0,0 0,0 0.55,0.71 1.29,1.02 0,0 0.9,1.020002 0,0 0.29,0.09 0,0 -0.96,2.52 z"
     title="Neutral Zone"
     id="AE-NZ1" />
  <path
     d="m 258.5907,94.250268 -0.27,-0.21 -0.97,-0.21 0,0 -1.51,-0.11 -1.55,0.22 0.04,-0.22 -0.97,-0.54 -0.97,-0.32 0,0 -0.11,-1.19 0,0 0.84,-0.96 1.96,0.1 0,0 0.87,0.32 0,0 1.61,0.22 0,0 0.77,0.45 0,0 -0.01,0.04 0,0 0.22,1.96 0,0 z"
     title="Neutral Zone"
     id="AE-NZ2" />
  <path
     d="m 326.2107,163.19027 -1.91,2.71 -2.7,3.41 -2.15,2.54 -1.38,0.77 -1.76,0.05 -3.41,0.72 -0.94,0.88 -0.94,1.49 -0.82,0.83 -1.16,0.05 -1.6,-0.16 -0.55,0.49 -0.38,0.94 -0.83,0.27 -1.76,0.06 -1.32,0.16 -1.55,1.6 -2.62,2.21 0,0 -1.26,-0.51 -6.69,-0.25 -1.13,-1.01 -0.38,-1.39 -0.76,-1.01 -1.23,-0.74 -0.54,-2.03 1.27,-0.76 -0.76,-0.89 -1.07,-0.49 -1.83,0.12 -1.26,-0.76 -1.65,-0.38 -1.64,0.38 -2.27,0.25 -1.01,0.51 -1.89,-0.26 -1.14,-1.26 -0.88,-0.63 -0.88,-1.26 -0.38,-2.27 -0.38,-1.14 -2.9,-1.51 -0.63,-1.64 -0.26,-3.79 -0.75,-1.51 -1.39,-0.26 -0.89,-1.01 -1.26,-0.38 -0.88,-1 -1.26,-2.02 -1.14,-0.51 0,0 -0.25,-1.51 1.01,-1.01 0.76,-1.01 -0.38,-1.64 -1.01,-0.63 -1.52,-0.76 -1.01,-0.25 -1.17,-1.53 -0.81,-1.33 -0.96,-1.12 0.16,-1.28 0.64,-1.11 0.89,-4.69 0.86,-1.69 0,-1.92 1.92,-1.91 1.91,0 -0.79,-1.76 -1.44,-1.43 -1.44,-0.48 -3.75,-0.09 0.4,-2.79 0.32,-3.82 1.28,-1.76 -1.12,-1.91 -1.11,-1.12 -0.8,-1.6 -0.48,-2.07 -0.96,-1.28 0.96,-1.91 1.12,-0.48 -0.64,-1.59 -0.32,-1.76 -1.12,0 -0.85,-1.35 0,0 0.01,-0.7 0.17,-0.74 0.28,-0.56 0,0 0.67,-0.560002 0,0 0.36,-0.11 1.01,0.09 0.46,-0.1 0,0 2.28,-0.8 0,0 0.75,-0.92 0,0 0.2,-0.35 0.26,-0.78 1.78,-0.48 0,0 0.46,-0.24 0.33,-0.42 0,0 0.04,-0.5 0,0 -0.13,-1.24 0,0 -0.22,-1.96 0,0 0.12,-0.52 0.29,-0.46 0.61,-0.24 0,0 1.23,-0.12 0,0 0.85,3.03 0.24,0.71 0.14,0.19 0.23,0.88 0.21,0.15 0.05,0.56 0.13,0.37 0.19,0.14 1.05,2.7 0.78,1.220002 0.84,1.58 0.34,1.29 0.34,0.79 0.29,1.8 1.3,2.66 0.39,1.02 2.02,3.75 0.23,0.66 0.21,0.19 0.87,1.5 0.69,0.91 3.39,5.31 1.79,1.9 1.69,1.64 0.9,0.68 0.1,0.21 0.39,0.07 0.32,0.23 0.91,1.6 0.62,0.79 0.25,0.49 3.33,4.9 0.84,1.46 1.95,2.67 1.03,1.1 0.71,1.56 0.25,0.15 0.2,0.43 0.69,1.04 1.75,2.1 1.02,1.07 2.14,1.86 1.86,1.49 0.31,0.14 0.15,-0.03 1.4,1.29 1.59,1.28 0.72,0.84 1.79,1.61 0.68,0.53 1.51,0.93 3.02,1.47 3.56,1.38 11.22,3.45 z"
     title="Al Bāţinah North"
     id="OM-BAN" />
  <path
     d="m 298.4307,182.21027 2.62,-2.21 1.55,-1.6 1.32,-0.16 1.76,-0.06 0.83,-0.27 0.38,-0.94 0.55,-0.49 1.6,0.16 1.16,-0.05 0.82,-0.83 0.94,-1.49 0.94,-0.88 3.41,-0.72 1.76,-0.05 1.38,-0.77 2.15,-2.54 2.7,-3.41 1.91,-2.71 0,0 1.54,0.59 3.08,1.41 3.76,1.11 1.98,0.45 2.3,0.28 1.45,0 1.37,-0.37 0.97,-0.61 0.03,0.77 0.34,0.68 0.98,1.05 2.59,1.58 1.05,0.4 2.18,0.28 2.21,0 3.64,-0.35 0,0 -0.08,4.36 -1.26,4.42 1.14,0.38 1.39,1.64 0,0 0.35,-0.03 -0.35,1.17 -0.51,1.13 -0.63,1.14 0,0 -1.39,1.01 0,1.26 0,0 0.76,0.88 0,1.01 0,0 -3.03,0.13 0,0 -1.14,1.01 -1.01,0.25 0,0 -0.88,-0.5 0,0 -1.13,-0.13 -0.51,1.89 0,0 -0.38,1.39 -0.88,1.39 -1.14,0.88 -1.13,0.38 0.38,0.88 0.88,0.89 -0.38,1.01 -0.63,0.88 -1.01,0.25 -0.76,0.76 -0.39,1.21 -1.07,1.99 -0.85,2.53 -2.53,1.06 -2.32,-1.27 -3.8,0.21 -2.74,-1.68 -2.53,0.42 -3.59,0.42 -3.38,0.21 -1.9,-1.27 -1.9,-0.21 -2.53,-0.84 -1.26,-1.05 -0.21,-2.54 -2.54,-1.47 -0.21,-1.9 -3.79,-1.48 -1.56,-1.14 -0.94,-0.97 -1.79,-0.65 0,0 -0.36,-0.62 0,0 -1.05,-1.68 -0.42,-2.11 -2.11,-0.85 1.23,-2.46 0.62,-0.83 z"
     title="Al Bāţinah South"
     id="OM-BAS" />
  <path
     d="m 241.3607,95.890268 0.28,0.88 0.25,0.47 0,0 0.15,0.27 -0.11,0.16 0,0 -1.24,-0.87 -0.28,-0.37 -0.67,-0.36 -0.52,-0.13 -0.41,0.01 -0.65,0.27 -0.24,0.26 -0.09,0.28 0.24,0.78 0.66,0.98 1.57,1.31 0.12,0.200002 -0.06,1.2 0.11,0.36 0.66,1.35 0.37,0.49 0.37,0.28 0.08,0.18 -0.16,0.31 0.13,0.1 0.07,0.53 0.23,0.22 0,0 0.53,0.46 1.24,0.34 0.51,-0.04 1.27,0.16 1.44,-0.46 0.32,-0.25 0.24,-1.08 0.21,-0.55 1.28,-0.38 0.15,-0.23 0.2,-0.81 0,0 0.85,1.35 1.12,0 0.32,1.76 0.64,1.59 -1.12,0.48 -0.96,1.91 0.96,1.28 0.48,2.07 0.8,1.6 1.11,1.12 1.12,1.91 -1.28,1.76 -0.32,3.82 -0.4,2.79 3.75,0.09 1.44,0.48 1.44,1.43 0.79,1.76 -1.91,0 -1.92,1.91 0,1.92 -0.86,1.69 -0.89,4.69 -0.64,1.11 -0.16,1.28 0.96,1.12 0.81,1.33 1.17,1.53 1.01,0.25 1.52,0.76 1.01,0.63 0.38,1.64 -0.76,1.01 -1.01,1.01 0.25,1.51 0,0 -2.31,0.22 -1.75,1.12 -2.71,0 -1.92,0.95 -2.23,-0.16 -1.76,-0.64 -3.55,0.12 -3.33,2.26 2.1,3.85 1.27,3.19 -2.55,0.16 -2.39,0.64 -2.24,1.11 -0.79,2.56 0.31,2.71 0.96,1.59 0.8,2.24 1.6,2.55 1.43,2.07 -0.96,1.28 0,2.07 -1.11,0.96 -3.35,0.32 -3.19,0.96 -2.56,0.95 -3.03,2.24 -2.55,1.43 -2.39,2.24 -2.4,1.27 -3.99,0.32 -4.14,0 -3.35,-0.16 -4.42,-0.41 0,0 0.81,-3.19 0.69,-4 0.33,-0.59 0.94,-1.18 1.36,-1.29 0.87,-0.64 0.46,-0.56 0.31,-0.57 0.24,-1.13 0.49,-1.57 0.25,-1.97 0.06,-1.36 0.29,-1.07 0.69,-1.68 0.42,-0.74 2.04,-2.48 0.79,-1.2 0.2,-0.65 0.02,-0.6 -0.42,-2.68 0.24,-3.22 -0.18,-0.64 -0.28,-0.53 -0.57,-0.3 -0.5,-0.42 -0.87,-0.29 -0.74,-0.44 -1.22,-0.8 -0.47,-0.42 -0.19,-0.81 -0.11,-1.19 0.69,-0.2 2.17,-0.18 0.79,-0.23 0.49,-0.36 0.7,-0.22 2.18,-1 -0.76,-0.01 1.67,-1.25 0.7,-0.35 0.73,-0.2 3.96,0.15 0.87,0.26 0.57,0.04 0.7,-0.11 1.75,-0.75 0.6,0.08 0.31,0.49 1.36,0.99 0.56,0.07 0.58,-0.22 3.72,-1.93 6.23,-1.6 0.58,-0.23 0.32,-0.25 -0.18,-0.8 -1.34,-2.42 -1.13,-1.42 -0.37,-2.89 -0.41,-0.36 -0.18,-0.29 -0.2,-0.64 0.08,-0.62 -0.55,-0.65 -2.15,0.12 -1.78,0.9 -0.59,0.4 -0.42,0.09 -0.41,-0.02 -0.85,-0.52 -0.89,-0.42 -0.9,0.14 -0.86,0.01 -0.49,-0.12 -0.32,-0.19 -0.21,-0.27 0.02,-0.35 0.64,-2.13 1.32,-2.09 1.24,-1.75 0.09,-1.19 -0.08,-2.28 -0.14,-0.73 -0.61,-0.81 -1.08,-0.95 -0.37,-0.2 -0.13,-1.02 0.15,-0.95 -0.06,-3.26 -0.37,-0.94 -0.02,-0.72 -0.27,-0.96 0.13,-0.94 1.55,-0.95 0.09,-0.51 -0.18,-1.08 0.03,-0.8 1.52,-1.43 0.21,-0.7 -1.16,-2.76 -0.37,-1.51 0.4,-1.81 0.03,-0.95 -0.35,-1.06 -0.29,-1.85 -0.32,-1.400002 -0.09,-0.72 0.09,-1.3 0.18,-0.58 0.3,-0.45 2.92,-3.82 2.19,-1.43 1.8,-0.85 1.32,-0.23 1.07,0.23 1.1,0.06 1.25,0.57 0,0 0.59,0.37 0,0 0.62,1.34 0.25,1.31 0.04,0.86 0,0 z"
     title="Al Buraymī"
     id="OM-BU" />
  <path
     d="m 358.3807,181.13027 2.9,-0.25 1.25,5.26 3.21,-0.43 0.21,1.48 0.76,0.51 0.5,1.26 1.39,1.51 0.76,1.64 0,0 0.63,1.64 1.31,1.41 0,0 1.09,3.83 1.01,2.65 0,0 0.63,3.03 0,0 0.25,3.28 -0.76,1.52 -1.38,0.12 -0.51,-0.75 -1.89,0.5 -1.77,1.01 -1.39,0.63 -2.27,0.5 -1.51,1.52 -1.64,0.5 -2.15,0.26 -2.02,1.26 -1.51,1.89 -1.9,2.02 -1.51,2.02 0.13,5.3 -1.9,0.51 -1.13,1.38 4.52,96.32 0,0 0,0 0,0 0.91,21.78 0,0 0,0 0,0 -82.92,-31.44 0,0 4.34,-29.05 3.04,-15.89 1.06,-9.29 1.9,-9.49 0.63,-4.43 -1.06,-1.06 0.22,-3.37 4.22,-16.04 1.26,-5.27 1.69,-2.33 1.05,-4.85 1.9,-5.06 1.69,1.47 2.11,1.06 6.33,-6.33 0.85,-2.53 -1.48,-2.96 0.42,-5.27 0,0 -1.33,-2.34 0,0 1.79,0.65 0.94,0.97 1.56,1.14 3.79,1.48 0.21,1.9 2.54,1.47 0.21,2.54 1.26,1.05 2.53,0.84 1.9,0.21 1.9,1.27 3.38,-0.21 3.59,-0.42 2.53,-0.42 2.74,1.68 0,0 0,0 0,0 3.8,-0.21 0,0 0,0 0,0 2.32,1.27 2.53,-1.06 0.85,-2.53 1.07,-1.99 0.39,-1.21 0.76,-0.76 1.01,-0.25 0.63,-0.88 0.38,-1.01 -0.88,-0.89 -0.38,-0.88 1.13,-0.38 1.14,-0.88 0.88,-1.39 0.38,-1.39 0,0 0.51,-1.89 1.13,0.13 0,0 0.88,0.5 0,0 1.01,-0.25 1.14,-1.01 0,0 3.03,-0.13 0,0 0,-1.01 -0.76,-0.88 0,0 0,-1.26 1.39,-1.01 0,0 0.63,-1.14 0.51,-1.13 0.35,-1.17 z"
     title="Ad Dākhilīyah"
     id="OM-DA" />
  <path
     d="m 357.4307,170.39027 2.7,0.1 0.65,0.12 1.27,0.34 2.41,0.87 1.52,0.68 3.12,2.59 1.53,0.98 0.61,0.29 2.17,0.72 1.11,0.23 1.64,-0.06 1.32,0.2 1.71,-0.16 1.08,-0.25 1.73,-0.68 0.58,-0.33 0.02,-0.47 0.26,-0.12 0,-0.18 0.21,0 0.13,-0.14 0.04,-0.29 0.1,-0.02 0.18,0.16 0.27,-0.25 0.45,0.35 0.03,0.4 0.37,0.19 0.63,-0.03 0.1,-0.14 0.34,-0.02 0.43,0.12 0.5,-0.07 0.08,-0.12 0.27,0.02 0.49,-0.14 -0.02,0.28 0.32,0.12 0.08,0.14 -0.24,-0.03 -0.19,0.1 -0.1,0.39 0.34,-0.02 0.16,-0.11 0.29,0.06 0.11,-0.3 0.24,0.3 0.1,0.01 0.06,-0.24 0.09,-0.04 0.38,0.56 0.19,0.07 0.07,-0.15 -0.03,-0.25 -0.15,-0.17 0.02,-0.16 0.29,0.16 0.06,0.42 -0.11,0.24 0.13,0.16 -0.08,0.1 0.03,0.11 0.23,-0.02 0.04,0.14 -0.43,0.4 0,0.12 0.26,0.05 0.16,0.18 0.08,0.31 -0.15,0.2 0.28,0.21 -0.07,0.13 0.21,0.23 0.07,0.42 0.09,0.11 0.49,0.03 0.22,0.12 0.27,0.33 0.12,0 0.16,-0.15 0.42,0.07 0.03,0.07 -0.15,0.12 0.07,0.16 0.5,-0.14 0.11,0.15 -0.4,0.13 -0.08,0.1 0.29,0.52 0.46,-0.2 0.15,-0.46 0.08,0.32 0.08,0.1 0.16,0 0.13,0.17 -0.03,0.23 0.91,0.68 0.26,0.02 0.55,-0.17 1.43,0.1 0.16,0.16 -0.05,0.22 -0.16,0.02 -0.03,0.28 0.35,0.3 -0.27,0.19 0.08,0.24 0.11,0.07 0.08,-0.29 0.1,0 0.03,0.31 0.13,-0.09 0.02,-0.26 -0.2,-0.24 0.1,-0.18 0.29,-0.03 0.16,0.26 0.52,-0.38 0.11,0.12 0.35,-0.07 0.07,0.24 -0.2,0.25 0.7,0.26 -0.07,0.17 -0.32,-0.03 0.15,0.38 0.41,0.26 0.2,0.34 -0.07,0.26 0.08,0.03 0.15,-0.12 0.38,0.91 -0.03,0.68 -0.08,0.19 0.15,0.44 0.01,0.68 0.23,1.36 0.82,0.73 0.05,0.43 0.29,0.63 0.69,0.53 1.11,0.64 0.32,0.07 0.4,0.28 0.24,0.57 0.57,0.42 0.29,0.33 0.22,0 0.28,0.16 0.37,0.45 0.08,0.25 0.27,0.24 0.9,0.28 0.47,0.3 0.14,0.29 -0.08,0.32 0.13,0.33 0.24,0.17 0,0.14 -0.11,0.11 0,0.59 0.29,1.1 0.39,1.06 0.33,0.57 0.34,0.39 0.92,0.48 0.53,0.4 1.46,1.42 0.15,0.38 0.08,0.64 -0.23,1.17 0.34,1.18 0.9,1.79 1.1,1.31 0.9,0.5 0.72,0.61 0.15,0.91 0.35,1.18 0.61,0.78 1.12,0.99 0.64,0.72 0.48,0.27 0.24,0.32 1.03,0.5 1.37,0.91 1.45,0.62 0.05,0.21 0.42,0.42 0.64,0.87 0.69,1.96 -15.94,1.49 0,0 -0.13,-3.41 0,0 0.76,-4.42 -1.27,-1.38 -1.51,0.25 -0.76,1.01 0,0 -1.39,2.02 -1.13,-0.63 -1.77,-1.27 -1.64,-0.63 0,0 -1.89,-0.75 -1.77,-1.14 0,0 -1.64,-1.39 0,0 -3.66,-1.51 -1.01,-1.26 -1.51,-0.64 -1.39,-2.01 -1.14,-1.39 0,0 -0.5,-0.76 -0.25,-1.39 0,0 -4.8,-0.25 -1.51,-1.39 -1.64,-0.76 0,0 -1.27,-0.88 -1.64,-0.88 -1.26,-0.89 -1.01,-0.88 0,0 -1.39,-0.38 -1.26,-1.39 -0.63,-1.64 0,0 -0.76,-1.64 -1.39,-1.51 -0.5,-1.26 -0.76,-0.51 -0.21,-1.48 -3.21,0.43 -1.25,-5.26 -2.9,0.25 0,0 -1.51,0.13 0,0 -1.39,-1.64 -1.14,-0.38 1.26,-4.42 0.08,-4.36 0,0 z"
     title="Masqaţ"
     id="OM-MA" />
  <path
     d="m 269.4307,0.3802682 0.05,0.25 0.19,0.13 0.21,0.32 -0.06,0.36 -0.08,0.07 0.11,0.21 0.21,-0.23 0.1,0.02 0.02,0.18 -0.29,0.25 -0.56,-0.04 -0.29,0.11 -0.23,0.27 -0.29,-0.05 0.05,-0.27 0.26,0.02 0.27,-0.25 0.03,-0.23 0.13,-0.13 -0.19,-0.39 0,-0.28 0.1,-0.18 0.26,-0.14 z m -4.42,0.68 0.19,0.07 0.08,0.25 0.35,0.05 0.19,-0.14 0.06,0.04 -0.03,0.21 -0.21,0.18 -0.06,0.29 -0.13,-0.14 -0.58,-0.05 -0.23,-0.27 -0.02,-0.11 0.16,-0.25 0.23,-0.13 z m -6.91,68.0799998 0.09,1.76 -0.23,0.42 -0.06,0.87 0,0 -0.08,0.39 -0.19,0.3 0,0 -0.19,0.25 -0.63,0.28 0,0 -0.39,0.28 0,0 -1.14,0.65 -0.79,0.78 0,0 -0.4,0.12 -0.42,0 -2.08,-0.41 0,0 -0.6,-0.27 -0.19,-0.19 -0.14,-0.5 0,0 -0.4,-3.08 0.5,-1.31 0,0 0.97,0 0.71,-0.18 1.45,-0.71 0.19,-0.44 0.08,-1.19 0,0 0.13,-0.58 0.27,-0.39 0.48,-0.32 1.67,-0.57 0.52,-0.28 0.59,-0.54 0,0 0.18,1.81 -0.32,1.62 0.42,1.43 z m -1.72,1.51 -0.97,-0.43 -0.97,0.65 0,0.86 0.97,0.43 0.97,-0.54 0,-0.97 z m 4.43,-70.3399998 0.06,0.16 -0.45,1.2 0.11,0.11 0.27,-0.04 0.11,-0.21 -0.02,-0.3 0.47,-0.16 0.02,0.57 -0.29,0.61 0.42,-0.11 0.13,-0.21 0.06,-0.41 0.11,-0.05 0.18,0.04 -0.13,0.89 0.31,-0.07 0.53,-0.98 0.23,0.25 0.16,0.3 -0.05,0.3 -0.4,-0.05 -0.05,0.09 0.06,0.23 0.18,0.11 -0.03,0.14 -0.18,0.04 0.06,0.29 -0.13,0.43 0.11,0.11 1,-0.75 0,-0.21 0.08,-0.02 0.27,0.48 0.1,-0.21 0.26,-0.2 -0.03,0.2 -0.23,0.34 0.26,1.04 0.21,0.04 0.08,-0.18 0.21,0.04 0.05,0.11 0.15,-0.07 0.05,-0.32 0.15,-0.14 0.27,-0.09 -0.11,0.79 0.34,0.05 0.23,0.2 0.15,-0.32 0.13,-0.05 0.05,0.09 0.87,0.23 0.56,-0.25 -0.02,-0.25 -0.37,-0.3 -0.11,-0.21 0.1,-0.29 -0.24,-0.11 -0.32,0.04 -0.37,-0.38 0.02,-0.21 0.27,0.05 0.11,0.16 0.24,-0.02 0.35,0.2 0.15,0 0.06,-0.05 -0.06,-0.25 0.26,-0.05 0.06,-0.13 0,-0.1 -0.14,-0.05 0.06,-0.13 0.39,0.04 0.02,0.13 -0.16,0.14 -0.03,0.75 0.32,0.52 -0.24,0.57 0.03,0.16 0.63,0.04 0.02,-0.11 0.18,-0.02 0.13,0.27 -0.11,0.29 -0.29,0.3 -0.24,0.02 -0.37,-0.23 -0.37,0.25 0.14,-0.45 -0.06,-0.18 -0.19,-0.04 -0.82,0.21 -0.48,-0.11 -0.56,0.13 -0.43,0.3 -0.24,0.36 -0.11,-0.11 0.03,-0.25 -0.08,-0.04 -0.16,0.14 -0.58,-0.02 -0.02,0.14 -0.42,0.13 -0.08,-0.18 -0.18,0.02 -0.05,0.39 0.16,0.04 0.4,0.93 -0.58,-0.05 -0.21,-0.36 -0.21,0 -0.4,0.07 0.03,0.32 -0.26,-0.2 -0.26,-0.02 -0.21,0.2 -0.08,0.23 0.14,0.39 0.31,-0.11 0.06,0.21 0.42,0.37 0.02,0.11 -0.06,0.29 -0.56,0.02 -0.03,0.16 -0.29,-0.04 -0.05,0.16 0.52,0.38 0.19,0.02 0.29,-0.14 -0.06,0.2 -0.45,0.14 0.43,0.45 0.5,-0.11 0.15,-0.2 0.1,0.09 0.11,0.14 -0.06,0.21 0.05,0.4099998 -0.1,0.18 0.06,0.09 0.51,-0.21 0.29,0.52 0.4,0.2 0.35,-0.21 0.29,-0.07 -0.05,-0.39 0.31,0.04 0.03,-0.16 -0.19,-0.1799998 0.08,-0.09 -0.11,-0.5 0.29,0.02 -0.02,0.34 0.18,0.2699998 0.74,0.04 0.11,-0.1399998 0.08,0.02 -0.01,0.4199998 0.69,-0.11 -0.23,0.2 -0.63,0.21 -0.23,0.27 0.03,0.14 0.18,0.09 -0.03,0.73 0.15,0.16 -0.02,0.13 0.35,0.36 0.06,0.32 -0.06,0.2 -0.53,0.12 -0.02,0.18 -0.16,0.01 -0.13,-0.11 0.13,-0.5 -0.31,-0.14 -0.11,0.09 -0.08,-0.04 0.45,-0.5 0,-0.39 -0.08,-0.21 -0.16,-0.14 -0.45,-0.14 -0.43,0.21 0.02,0.23 -0.21,0.08 0.02,0.41 -0.37,-0.07 -0.15,0.05 0.31,0.54 -0.14,0.32 -0.19,-0.11 -0.02,-0.11 -0.27,-0.07 -0.1,0.14 0.26,0.14 0.05,0.11 0.11,0.87 -0.03,0.46 -0.19,0.37 0.5,0.45 0.26,-0.11 0,-0.2 0.11,-0.05 0.05,-0.3 0.35,-0.14 -0.06,0.36 0.64,-0.13 -0.06,0.27 0.29,0.43 -0.03,0.73 0.24,0.02 0.16,-0.18 0.23,-0.07 0.06,0.14 -0.06,0.16 0.27,0.29 -0.03,0.32 -0.35,-0.21 -0.48,0.39 -0.05,-0.09 0.1,-0.39 -0.24,-0.2 -0.35,0.16 -0.5,0 -0.19,-0.18 -0.19,0.04 0.02,0.2 -0.26,0.05 0,-0.23 -0.42,0 -0.16,0.27 -0.29,0.18 -0.26,-0.13 -0.02,-0.3 -0.18,-0.02 -0.13,-0.2 0.03,-0.27 -0.24,-0.45 -0.29,0.09 0.1,-0.43 0.16,-0.02 0,-0.21 -0.32,-0.12 0.05,-0.3 0.16,-0.34 0.15,0.11 0.16,-0.09 -0.15,-0.3 0.21,-0.39 -0.24,-0.34 -0.39,0.16 -0.38,0.39 0.05,0.25 -0.23,0 -0.05,-0.16 -0.34,0.07 -0.03,0.21 -0.26,0.07 0.1,0.21 -0.05,0.43 0.23,-0.04 0.02,0.21 -0.35,0.09 -0.18,0.57 -0.37,0.04 0.16,-0.45 0.13,-0.09 0.02,-0.5 0.1,-0.09 -0.16,-0.21 -0.24,-0.13 -0.08,-0.23 0.05,-0.09 0.32,-0.04 0.14,-0.16 -0.14,-0.07 0.14,-0.25 0.25,0.04 0.2,0.18 0.27,-0.05 0.11,-0.11 -0.06,-0.11 0.08,-0.18 -0.23,-0.09 -0.05,-0.37 -0.31,-0.07 -0.32,-0.23 -0.27,-0.04 -0.29,0.13 -0.11,0.39 -0.34,-0.23 -0.15,0.05 0.05,0.45 -0.37,0.02 -0.32,0.68 0.06,0.09 0.34,-0.02 0.13,0.18 -0.27,0.37 -0.89,0.43 -0.61,-0.18 -0.37,0.48 0,0.18 0.5,0.32 0.02,0.18 -0.13,0.18 0.02,0.54 0.08,0.09 0.61,-0.59 0.03,-0.2 0.11,0.09 -0.24,0.66 -0.24,0.39 -0.16,-0.05 -0.1,0.11 0.06,0.14 0.19,0.04 0.15,0.2 -0.34,0.32 0,0.46 -0.11,0.07 -0.02,0.16 0.19,0.05 -0.27,0.36 0,0.23 0.35,0.04 0.5,-0.25 0.11,-0.3 -0.11,-0.11 0.02,-0.18 0.06,-0.09 0.18,-0.02 0.19,-0.68 0.13,-0.14 0.08,0.14 0.9,-0.84 0.29,0.39 -0.05,0.45 -0.16,0.04 -0.06,0.13 0.13,0.16 -0.19,0.34 -0.19,0.11 0.11,0.23 -0.03,0.16 -0.32,0.52 0.14,0.16 0.39,-0.12 0.03,0.34 0.18,0.18 0.48,-0.23 0.03,-0.11 -0.11,-0.11 -0.02,-0.16 0.05,-0.3 0.32,-0.25 0.26,-0.34 0.15,1.03 0.66,-0.62 0.13,0.05 -0.08,0.57 0.06,0.14 -0.03,0.16 -0.11,0.07 0.34,0.48 0.42,-0.11 0.76,-0.68 0.1,0.04 -0.04,0.33 0.08,0.09 0.34,-0.23 0.1,-0.32 0.1,0.02 0.05,0.3 0.34,0.09 0.11,-0.14 0.18,0.37 0.31,0 0.23,-0.25 0.29,-0.04 0.02,0.18 0.15,0.09 0.02,0.09 -0.45,0.02 -0.29,0.18 -0.52,0.53 -0.1,-0.16 -0.26,0.21 -0.45,-0.07 0.06,0.21 -0.37,0.61 0,0.09 0.24,0.18 -0.16,0.32 0.13,0.3 -0.05,0.11 -0.47,0.05 -0.21,-0.25 -0.16,0.09 0.05,0.16 -0.1,0.05 -0.21,-0.05 -0.11,0.11 -0.37,0.02 -0.05,-0.53 -0.08,-0.02 -0.23,0.27 -0.23,-0.02 -0.27,0.07 -0.08,0.16 -0.26,0 -0.13,0.25 -0.15,0 -0.03,0.07 0.14,0.23 0.21,-0.04 0.14,0.09 -0.16,0.16 -0.16,0.04 0,0.09 0.15,0.05 0.02,0.16 -0.06,0.07 -0.27,0 -0.03,0.07 0.03,0.11 0.29,0.14 0.16,-0.02 0.29,-0.57 0.08,0.09 0.37,-0.11 -0.02,0.27 0.32,0.29 0.58,-0.16 0.21,-0.23 0.13,-0.02 -0.02,0.46 -0.16,0 -0.05,0.75 -0.1,0.16 0.11,0.18 0.23,0.02 -0.1,0.37 0.23,0.09 0.26,0.55 -0.13,0.05 -0.16,-0.09 -0.27,-0.37 -0.27,0.04 0.06,0.43 -0.24,0.11 -0.27,-0.07 -0.18,0.14 0.05,0.18 0.13,0.02 0.02,0.14 -0.4,0.05 -0.23,0.43 0.77,0.43 0.13,-0.13 0.13,0.05 0.05,0.16 0.39,-0.16 0.1,0.64 -0.18,0.14 -0.02,0.27 0.13,0.43 0.27,0.27 0.37,0.02 0.15,-0.23 0.27,-0.16 0.29,-0.02 0.37,-0.21 0.13,0.02 -0.24,0.14 0,0.12 -0.77,0.39 0,0.27 0.18,0.43 -0.03,0.12 -0.11,0 -0.32,-0.23 -0.1,-0.21 -0.58,0 -0.26,0.41 -0.13,0 -0.08,-0.18 0.06,-0.25 -0.06,-0.05 -0.71,-0.04 -0.15,-0.29 -0.35,-0.02 -0.1,0.11 0.03,1.21 -0.1,0.44 0.1,0.36 0.05,0.07 0.47,0.04 0.34,0.14 0.03,0.12 -0.06,0.23 -0.47,0.62 0.05,0.12 0.13,0.04 -0.19,0.75 -0.61,0.75 -0.69,-0.07 -0.05,-0.2 -0.58,0.27 0.05,0.41 0.29,-0.07 0.26,0.07 0.45,0.3 0.03,0.25 -0.05,0.14 -0.56,0.25 -0.22,0 -0.52,-0.3 -0.08,0.05 -0.05,0.18 0.19,0.36 0.27,0.02 0.26,0.14 -0.16,0.3 0.06,0.21 -0.05,0.2 -0.14,0.11 0.16,0.59 -0.55,0.36 -0.05,0.34 -0.43,0.59 -0.24,-0.39 -0.06,-0.53 -0.1,-0.02 -0.11,0.84 0.21,0.37 0.05,0.27 -0.24,0.36 -0.16,0.02 -0.06,0.43 -0.6,1.05 -0.56,0.37 -0.56,0.6 -0.21,0.09 0.03,-0.32 0.42,-0.57 0.06,-0.48 0.31,-0.44 0.02,-0.3 -0.19,0.04 -0.4,0.44 -0.03,0.16 0.16,0.09 -0.07,0.27 -0.55,0.37 0.03,0.3 -0.43,0.18 -1.14,1.55 -0.06,0.37 -0.15,0.2 0.02,0.23 0.71,0.12 -0.16,0.25 -0.24,0.09 0.02,0.16 0.18,0 0.08,0.62 -0.34,0.39 -0.21,-0.04 -0.27,0.8 -0.05,0.64 0.02,0.07 0.19,0 0.02,0.14 -0.18,0.09 -0.02,0.94 -1.33,1.21 0,0 -0.79,-0.07 -0.65,-0.32 -0.57,-0.49 -0.41,-0.57 -0.24,-0.73 -0.97,-0.81 -0.81,0 -0.75,0.23 0,0 -0.26,-0.38 0,0 -0.14,-0.53 0,0 -0.09,-3.36 0.18,-1.73 0.44,-1.15 -0.9,-2.31 -0.02,-1.16 0.13,-1.03 0,0 0.82,-2.66 -0.08,-0.76 0.35,-0.83 0,0 0.64,-4.67 -0.25,-1.14 0,0 -0.02,-1.34 0.25,-1.39 0,0 -0.31,-1.45 -0.61,-0.8 -1.5,-0.24 -1.16,0.44 0,0 -0.85,-0.18 0,0 0.29,-0.88 0.5,-0.71 0,-0.2 0.45,-0.3 0.9,-1.84 0.53,-0.86 0.23,-0.05 0.02,0.34 0.43,-0.07 0.27,-0.36 0.16,-0.39 0.35,-0.25 0.23,-0.79 0.16,-0.25 0.06,-0.59 -0.08,-0.27 0.16,-0.84 0.15,-0.11 0.13,-0.37 0.1,-0.48 -0.03,-0.41 0.18,-0.34 0.32,-0.29 0.26,-0.3899998 0.26,-0.21 0.19,-0.02 -0.06,-0.16 0.05,-0.23 0.42,-0.36 0.21,0 0.21,0.18 -0.08,0.61 0.06,0.4499998 -0.24,0.29 -0.05,0.23 0.32,-0.13 0.29,0.96 -0.19,0.3 0,0.14 0.18,0.21 -0.03,0.32 -0.13,0.11 0.06,0.23 0.31,-0.23 0.08,-0.77 0.19,-0.18 0.18,-0.02 0.53,0.16 -0.06,0.37 0.08,0.3 0.24,0.16 0.21,0 0.15,-0.09 0.02,-0.54 0.11,-0.3 0.26,-0.25 0.16,-0.07 0.43,0.14 0.11,0.23 0.11,0.04 0.08,-0.2 0.37,-0.16 0.08,-0.21 0.16,0.07 0,0.13 -0.29,0.8 0.05,0.43 0.15,0.05 0.19,-0.54 0.1,-0.14 0.16,0 0.08,0.61 -0.19,0.41 0.05,0.2 0.37,0.39 0.6,0.05 0.21,-0.09 0.02,-0.14 -0.1,-0.11 -0.37,0.09 -0.08,-0.11 -0.02,-0.21 0.14,-0.11 0.63,0.18 0.45,0.27 0.16,0 0.05,-0.32 0.42,-0.07 -0.02,0.45 0.13,0.23 0.37,0.09 0.14,-0.11 0.19,-0.59 -0.16,-0.25 0.26,0.04 0.05,-0.27 0.31,-0.45 0.03,-0.27 0.11,0.02 0.21,0.32 0.24,-0.02 0.69,-0.29 0.18,0.07 0.06,0.13 0.47,-0.09 -0.05,0.21 0.06,0.2 0.34,0.11 0.15,0.25 0.4,-0.05 0.05,-0.07 -0.39,-0.64 0.27,-0.04 0.29,0.11 0.13,0.16 0.18,-0.09 0.03,-0.2 -0.11,-0.14 -0.6,-0.39 -0.23,-0.05 0.02,-0.07 0.64,-0.13 -0.13,-0.61 -0.23,-0.18 -0.27,0.02 -0.06,0.11 -0.56,0.21 0.18,-0.55 -0.24,-0.3799998 -0.27,0.25 -0.02,0.2899998 -0.13,0.3 -0.08,0 0.06,-0.32 -0.11,-0.2 0.11,-0.2699998 -0.13,-0.05 -0.19,0.3199998 0.02,0.41 -0.08,0.23 -0.18,-0.13 -0.13,0.02 -0.1,-0.45 -0.11,0 -0.23,0.12 -0.11,0.34 -0.31,0.18 0,0.16 -0.35,0.29 -0.13,0.3 -0.16,-0.05 0,-0.13 -0.23,-0.18 -0.11,0.36 -0.27,0.45 0,0.14 -0.79,0.34 -0.6,0.07 -0.37,-0.46 0.14,-0.46 -0.24,-0.3 0.08,-0.84 0.34,-0.43 -0.03,-0.2699998 0.14,-0.18 0.15,-0.05 0.02,0.23 0.16,0 0.16,-0.27 0,-0.25 -0.32,-0.61 0.03,-0.07 0.23,-0.02 -0.02,-0.13 -0.23,-0.2 0,-0.13 0.26,-1.18 0.11,-0.14 0.24,0.16 0.27,0.52 0.39,-0.05 0.29,0.62 0.43,0.11 0.02,0.14 -0.16,0.3 0.02,0.45 0.32,0.14 0.35,0.02 0.16,-0.18 0.24,0.05 0,0.14 0.23,0.11 0.37,-0.52 -0.06,-0.41 -0.29,-0.02 -0.43,-0.45 0.27,-0.09 0.15,-0.16 -0.08,-0.2 -0.45,0.04 -0.43,-0.11 -0.1,0.16 -0.1,0.02 0,-0.79 -0.53,0 -0.05,-0.39 -0.16,-0.18 -0.74,-0.38 0.11,-0.43 0.63,-0.55 0.11,0.04 0.13,0.41 0.39,-0.29 0.26,-0.34 0.18,0 0.13,0.14 0.08,0.29 0.18,-0.16 0.16,-0.02 -0.05,-0.61 0.19,-0.46 -0.21,0.02 -0.16,-0.09 0.13,-0.18 0.08,-0.43 0.27,-0.39 0.05,-0.79 -0.11,-0.09 0.02,-0.25 0.16,-0.2 0.1,-0.5 0.27,-0.59 0.07,-0.02 z m -1.37,0.8 0.19,0.23 0.34,0.14 0,0.16 -0.23,-0.02 -0.18,0.29 0.08,0.73 -0.21,1.07 -0.21,0.04 -0.16,0.25 -0.24,0.04 -0.14,-0.16 -0.03,-0.21 0.08,-1.13 0.16,-0.18 0.23,-0.55 0.39,-0.21 -0.05,-0.09 -0.21,0.05 -0.02,-0.38 0.21,-0.07 z m 3.8,-0.59 0.06,0.04 -0.03,0.09 -0.21,0.05 -0.05,0.39 -0.23,-0.11 0.18,-0.43 0.28,-0.03 z"
     title="Musandam"
     id="OM-MU" />
  <path
     d="m 406.8707,358.12027 0.1,0.12 0.22,0 0.18,0.19 0.21,-0.02 0.02,0.19 0.24,0.24 -0.11,0.12 0.05,0.53 -0.16,0.21 0.02,0.39 -0.15,0.17 -0.13,0.38 0,0.36 -0.4,1.57 0,0.46 0.15,0.67 0.51,1.16 0.66,0.29 0.11,0.24 0.29,0.22 0.19,-0.05 0.24,0.19 -0.11,0.36 0.1,0.22 -0.16,0.14 0,0.14 0.1,0.29 0.23,0.21 -0.19,0.27 0.1,0.58 0.19,0.17 0.22,0.58 0.82,0.32 0.13,0.12 -0.02,0.15 -0.31,0.41 -0.37,0.32 0,0.15 -0.19,0.22 -0.05,0.22 -0.53,0.07 -0.55,0.39 -0.34,0.12 -0.35,0.02 -0.24,0.17 -0.39,0.08 -0.06,0.12 0.13,0.19 -0.13,0.12 -0.37,0.12 -0.31,0.21 -0.29,0.05 -0.31,0.27 -1.09,0.56 -0.71,0.53 -0.18,0 -0.42,0.5 0.1,0.14 -0.03,0.17 -0.35,0.1 -0.56,0.5 -0.39,0.87 0,0.48 0.16,0.31 -0.26,0.26 0.03,0.15 -0.1,0.27 -0.27,0.22 -0.02,0.22 -0.76,0.97 0.16,0.31 -0.05,0.41 0.08,0.26 -0.16,0.22 -0.22,0.72 0.13,0.46 -0.43,0.39 -0.47,0.8 -0.29,0.29 0.05,0.36 0.26,0.17 -0.21,0.14 0,0.27 0.23,0.03 0.02,0.34 0.11,0.12 -0.13,0.09 -0.19,-0.05 -0.05,0.1 -0.11,-0.03 -0.23,0.31 -0.22,0.02 -0.11,0.12 -0.05,0.36 -0.51,-0.03 -0.11,0.08 -0.08,0.24 -0.26,0.02 -0.23,0.27 -0.18,0.07 -0.21,0.26 -0.18,0.44 -0.21,0.1 -0.19,0.34 -0.1,0.34 -0.18,0.25 0.02,0.43 -0.34,0.12 -0.39,0.27 -0.27,0.43 -0.32,-0.1 -0.23,0.19 -0.26,0.03 -1.3,0.6 -0.21,0.26 0.05,0.34 -0.56,0.72 -0.82,0.03 -0.5,0.43 0.06,-0.29 -0.18,-1.02 -0.23,-0.26 0.08,-0.29 0.18,-0.24 -0.02,-0.29 -0.26,-0.46 0.16,-0.15 0,-0.39 -0.13,-0.38 -0.21,-0.19 0.08,-0.32 -0.15,-0.44 0.05,-0.26 0.13,-0.14 0,-0.2 -0.18,-0.32 0.13,-0.24 0,-0.2 -0.23,-0.48 0.11,-0.43 0.21,-0.31 -0.15,-0.68 0.19,0 0.11,-0.19 0.1,-0.97 -0.1,-0.87 0.1,-0.46 -0.11,-0.29 0.11,-0.14 0.02,-0.36 0.24,-0.12 -0.02,-0.15 0.39,-0.61 0.32,-0.21 0.05,-0.46 0.32,-0.14 0.18,-0.48 0.24,-0.12 -0.02,-0.14 0.29,0.05 0.17,-0.09 0,-0.12 0.19,-0.19 0.47,-0.1 0.1,-0.34 -0.05,-0.56 0.35,-0.48 0.52,-0.26 0.24,-0.31 0.06,-0.44 0.19,0.03 0.13,-0.1 0,-0.14 0.45,-0.65 0.15,0.07 0.08,-0.14 0.23,-0.08 0,0.1 -0.23,0.15 -0.05,0.17 -0.18,-0.07 -0.11,0.21 0.02,0.24 0.26,0.26 0.03,0.19 0.19,0.22 0.42,-0.15 0.4,0.03 0.32,0.14 0.11,-0.1 0.29,0.08 0.45,-0.51 0.45,-0.14 0.21,-0.36 0.28,-0.18 -0.03,-0.22 0.15,-0.38 0.03,-0.51 -0.08,-0.21 0.11,0.03 0.08,-0.14 0.1,0 0.21,-0.38 -0.16,-0.75 0.02,-0.36 0.18,-0.34 0.05,-1.57 0.61,-1.16 0.61,-0.87 0.34,-0.27 0.26,-0.63 0.06,-0.38 0.39,-0.43 0.42,-0.73 0.87,-0.92 0.69,-0.33 0.35,-0.29 -0.1,-1.23 0.19,-0.5 -0.27,-0.27 0.15,0 0.06,0.14 0.16,0.07 0.13,-0.32 0.03,-0.67 0.19,-0.38 0.03,-0.51 -0.03,-0.43 -0.13,-0.12 -0.02,-0.19 0.06,-0.07 0.42,-0.03 0.72,-0.41 0.26,0.09 0.2,-0.09 z m -6.34,-144.43 1.64,0.63 1.77,1.26 1.14,0.63 1.39,-2.02 0,0 0.76,-1.01 1.51,-0.25 1.26,1.39 -0.76,4.42 0,0 0.13,3.41 0,0 15.96,-1.46 0.39,0.92 -0.21,0.21 0.06,0.35 0.66,1.46 0.24,0.94 1.03,1.28 0.45,0.21 0.13,0.87 1.42,2.99 0.98,0.62 0.74,-0.1 0.18,0.05 0.26,0.26 0.39,-0.03 0.37,0.5 0.11,0.59 0.47,0.95 0.37,0.54 0.45,0.24 0.64,0.05 0.26,0.23 -0.11,0.4 0.02,0.24 0.13,0.52 0.19,0.31 0.34,0.33 2,1.18 0.27,0.42 2.72,2.57 3.01,1.92 0.14,0.29 0.4,0.23 0.02,0.23 -0.16,0.28 -0.13,-0.02 -0.24,-0.23 -0.16,0 -0.1,0.1 -0.34,-0.03 -0.23,0.19 0,-0.21 0.23,-0.31 -0.02,-0.16 -0.21,0.04 -0.58,0.62 0.13,0.14 0.26,0.02 -0.13,0.26 0.06,0.07 0.8,0.24 0.19,-0.12 0.02,-0.26 0.11,-0.12 0.14,0.12 0.31,-0.02 0.18,-0.24 0,-0.16 -0.09,-0.07 0.09,-0.19 0.13,-0.07 -0.13,-0.17 0.07,-0.05 0.27,0.1 1.71,0.16 0.88,-0.04 0.19,0.24 1.01,0.03 1.27,0.17 0.85,-0.02 3.3,1.11 0,0 -0.52,0.74 -1.38,0.69 -1.31,0.34 -2.27,0.83 -1.38,0.96 -1.65,0.21 -1.72,-0.55 -3.17,0 -0.89,0.34 -0.48,1.72 -2.07,2.89 -0.69,0.76 -1.38,0.21 -1.72,-0.28 -1.03,-1.1 -1.31,-1.03 -0.83,-0.41 -1.03,-0.28 -0.48,0.48 -0.28,1.31 0.62,1.1 0.21,1.45 0.48,2.07 0.07,1.31 0.28,0.96 -0.21,1.38 -1.93,1.45 -0.55,1.72 -0.83,0.96 -1.1,0.69 -1.24,-0.21 -1.79,-1.65 -2.55,-2.55 -1.79,-1.38 -1.79,-3.99 -1.45,-2 -1.24,-0.69 -1.65,-0.48 -1.65,-0.62 -1.65,-1.1 -1.51,-1.38 -1.17,-1.38 -0.34,-1.17 -0.28,-5.16 -1.51,-2.2 -1.79,-2.27 -1.79,-1.52 -1.65,-0.76 -1.79,-0.21 -0.55,1.17 -0.21,1.45 0.41,2.07 0,1.58 -0.96,1.65 -0.69,1.86 -0.48,1.03 -0.55,0.9 -0.69,2 -0.48,3.72 -0.9,0.83 -0.69,0.83 -1.24,0.41 -1.79,-0.07 -1.31,-0.62 -0.55,-1.51 0.21,-5.16 -0.21,-1.31 -0.69,-1.58 -1.65,-1.86 -1.38,-1.38 -1.24,-0.9 -1.24,-0.62 -2.13,-0.55 -1.38,-0.9 -1.03,-1.17 -1.38,-1.31 -0.69,-0.96 -0.34,-1.1 0.62,-3.3 0.41,-0.83 0.34,-1.03 -0.41,-1.45 -1.17,-1.38 -1.79,-3.51 -0.55,-1.51 0,-4.68 2.62,0.14 0.96,-0.62 0.62,-1.03 0.14,-1.52 0.96,-1.86 1.93,-3.03 0,-1.31 -0.69,-0.9 -1.31,-0.41 -1.27,-0.08 0,0 -0.54,-2.61 0,0 -1.01,-2.65 -1.09,-3.83 0,0 1.34,0.36 0,0 1.01,0.88 1.26,0.88 1.64,0.88 1.26,0.88 0,0 1.64,0.76 1.51,1.39 4.8,0.25 0,0 0.25,1.39 0.5,0.76 0,0 1.14,1.39 1.39,2.02 1.51,0.63 1.01,1.26 3.66,1.51 0,0 1.64,1.39 0,0 1.77,1.14 1.91,0.76 z"
     title="Ash Sharqīyah North"
     id="OM-SHN" />
  <path
     d="m 453.5407,243.87027 1.38,0.28 0.15,0.14 -0.02,0.33 -0.27,0.26 0.14,0.19 -0.88,0.91 0,0.46 0.09,0.12 0.62,0.24 0.33,0.28 -0.19,0.1 0.07,0.31 0.83,0.31 0.08,0.14 0.23,0.09 0.17,-0.24 0.71,-0.44 0.44,0.07 0.14,-0.26 -0.34,-0.17 -0.27,0 0.02,-0.14 -0.24,-0.19 -0.55,-0.02 -0.18,-0.12 -0.26,-0.41 -0.01,-0.39 -0.29,-0.17 -0.07,-0.22 -0.19,-0.04 -0.25,-0.38 0.17,-0.17 0.16,-0.54 0.52,0.03 0.16,0.14 0.54,0 0.07,0.11 -0.13,0.07 0.02,0.12 0.33,0.34 0.17,0.02 0.49,0.42 0.53,-0.04 0.21,-0.15 -0.16,-0.18 0.08,-0.34 -0.17,-0.12 -0.41,0 -0.29,0.07 -0.25,0.24 -0.1,0 -0.06,-0.37 -0.12,-0.05 0.05,-0.1 1.05,-0.19 0.29,-0.16 0.56,-0.02 0.21,0.11 0.1,0.22 -0.02,0.56 0.45,1.49 0.11,0.17 0.55,0.35 0.05,0.34 0.11,0.11 0,0.27 0.21,0.37 0.15,0 0.06,0.62 0.18,0.3 -0.08,0.41 0.14,0.35 0.05,0.43 0.19,0.31 0.18,0.68 -0.02,0.17 -0.7,0.45 -0.6,2.06 0,0.31 0.11,0.31 0.15,0.23 0.14,0.05 0.08,0.29 -0.34,0.92 -0.11,0.61 0.03,0.46 0.38,0.4 -0.12,1.06 0.13,0.93 -0.42,1.06 -0.35,1.33 -0.18,1.48 0.13,0.28 -1,0.69 -1.25,1.12 -0.2,0.42 0.02,0.22 0.16,0.12 0,0.14 -0.29,0.49 -0.64,0.79 -0.76,0.45 -0.82,1.45 -0.85,1.04 -0.34,0.77 -1.14,1.15 -0.53,0.77 -0.47,1.57 0.16,0.43 0.16,0.07 0.03,0.18 -0.27,0.57 -0.31,0.95 -0.46,0.6 0.03,0.43 -0.13,0.43 -0.59,1 -0.09,0.52 0.37,0.4 0.09,0.38 -0.07,0.32 -0.3,0.61 -0.26,0.26 -1.08,0.74 -1,0.91 -1.24,1.61 -0.82,1.24 -0.03,0.17 0.1,0.26 0.32,0.33 -0.07,0.43 -0.33,0.24 -2.23,2.2 -1.77,2.02 -0.4,0.57 -0.59,1.57 -0.04,0.48 0.25,0.38 -0.07,0.82 -1.45,2.45 -0.29,0.62 0,0.22 0.12,0.09 0.09,0.31 -0.24,0.52 -0.88,1.54 -0.86,1.05 -0.38,1.09 -1.13,1.87 -0.43,0.38 -0.33,0.45 -0.35,0.72 -0.08,0.67 -1.9,2.41 -0.35,1.03 0.05,0.17 0.22,0.21 0.39,0.09 0.04,0.32 -0.25,0.6 -0.21,0.24 -0.32,0.11 -1.6,0.87 -3.28,1.46 -2.54,0.93 -0.79,0.4 -1.76,1.15 -1.73,1.49 -3.96,3.06 -1.58,1.34 -2.45,2.47 -1.81,2.37 -1.24,1.25 -0.81,0.53 -0.84,0.76 -1.04,1.35 -2.69,3.05 -1.45,2.35 -1.16,1.6 -0.54,0.94 -0.13,1.34 0.3,0.56 0.23,0.07 0,0.21 -0.26,0.46 0.03,0.34 -2.01,2.04 -0.9,1.23 -0.51,1.54 0,0.72 0.08,0.33 -0.23,-0.04 -0.13,0.26 0,0.45 0.23,0.58 -0.52,0.25 -0.46,0.52 -0.34,0.08 0.01,-0.25 0.47,-0.79 -0.16,-0.53 0.19,-0.1 0,-0.16 -0.16,-0.19 -0.21,-0.03 -0.43,0.53 -0.82,0.6 -0.11,0.22 -0.29,0.28 -0.04,0.15 0.18,0.24 0,0.17 -0.19,0.24 0.01,0.19 -0.37,0.2 -0.25,0.57 -0.45,0.05 -0.15,-0.39 0.03,-0.19 -0.19,0.07 -0.19,0.24 0.22,0.18 -0.03,0.14 -0.18,0.03 -0.08,0.12 0.02,0.42 0.38,0.2 -0.04,0.16 -0.21,0.08 -0.1,0.21 -0.72,0.12 -0.25,0.15 0.21,0.15 0.44,0.02 -0.13,0.14 0.56,-0.05 -0.32,0.25 0.31,0.02 0.21,-0.2 0.09,-0.35 -0.01,-0.37 0.09,-0.11 0.23,0.77 0.22,0.06 0.32,0.23 0.41,-0.13 0.08,-0.14 0.22,-0.12 0.15,0 0.16,0.22 0.24,0.09 -0.29,0.19 -0.58,-0.07 -0.4,0.1 -0.32,0.58 0.43,0 0.03,0.12 0.25,-0.07 0.04,-0.29 0.18,0.04 0.03,0.17 0.2,-0.19 0.43,-0.12 0.45,-0.34 0.81,-0.31 -0.05,-0.29 0.24,-0.46 -0.05,-0.24 -0.39,-0.43 -0.04,-0.44 0.11,-0.45 0.19,-0.27 -0.26,0.01 -0.08,-0.1 0.18,-0.26 0.23,-0.06 0.25,-0.31 0.34,0.48 0.08,0.46 -0.14,1.42 0.03,1.21 -0.19,0.26 -1.56,0.34 -0.81,0.79 -0.95,1.3 -1.03,0.55 -2.01,1.3 -2.22,2.58 0,0.1 0.11,0.02 0.31,-0.14 0.51,0.05 0.18,0.16 -0.13,0 -0.13,0.27 0.2,0.03 0.16,0.23 -0.15,0.24 -0.76,0.65 -0.12,0.29 -0.29,0.13 -0.15,0.26 -0.19,0.61 -0.45,0.83 0.08,0.59 -0.05,0.21 -0.14,0.15 -0.02,0.27 -0.19,0.16 -0.13,0 -0.18,0.34 0.03,0.17 0.13,0.02 -0.03,0.37 -0.24,0.35 -0.16,0.47 -0.44,0.04 -0.06,0.44 -0.31,0.33 -0.11,0.41 0,0.15 0.16,0.05 -0.05,0.28 -0.08,0.17 -0.3,0.15 -0.02,0.12 0.1,0.19 0.27,-0.1 0.06,0.25 -0.69,0.97 -0.18,0.57 -0.14,2.05 -0.34,0.22 -0.13,0.17 0.02,0.2 -0.08,0.11 -0.56,0.27 -0.1,0.44 -0.19,0.19 -0.18,0.07 -0.58,-0.02 -0.15,0.09 -0.17,0.36 -0.5,0.08 -0.13,0.21 0.02,0.42 -0.42,0.14 -0.44,0.7 -0.33,0.22 -0.42,0.45 0,0.39 -0.16,0.1 -0.86,-0.17 -1.33,-0.03 -0.39,-0.23 -0.3,-0.37 -0.33,0.03 -0.4,-0.13 -0.56,-0.48 -0.77,-0.48 -0.41,-0.12 -1.88,0.02 -1.24,0.34 -0.72,0.34 -0.78,-0.08 -0.25,0.13 -0.21,-0.02 -0.21,-0.15 -0.05,-0.1 0.08,-0.19 -0.14,-0.19 -0.23,-0.07 -0.21,-0.22 -1.46,-0.66 -0.89,-0.12 -0.61,-0.48 -0.18,-0.44 0.02,-0.17 0.18,-0.16 -0.2,-0.9 0.2,-0.21 0.17,0.05 0.34,-0.34 0.03,-0.27 0.34,-0.46 0.1,-0.4 0.17,-0.3 0,-0.33 0.13,-0.36 0.44,-0.75 0.22,-0.15 0.33,-0.72 -0.1,-0.05 0.11,-0.19 0.13,0.04 0.08,-0.12 0.15,-0.99 0,0 2.91,0.26 0.43,-3.37 1.05,-2.54 0,-2.32 -1.05,-6.12 -17.73,-8.65 0,0 -0.91,-21.78 -4.52,-96.32 1.13,-1.38 1.9,-0.51 -0.13,-5.3 1.51,-2.02 1.9,-2.02 1.51,-1.89 2.02,-1.26 2.15,-0.26 1.64,-0.5 1.51,-1.52 2.27,-0.5 1.39,-0.63 1.77,-1.01 1.89,-0.5 0.51,0.75 1.38,-0.12 0.76,-1.52 -0.25,-3.28 0,0 -0.09,-0.42 0,0 1.27,0.08 1.31,0.42 0.69,0.89 0,1.31 -1.93,3.03 -0.96,1.86 -0.14,1.51 -0.62,1.03 -0.97,0.62 -2.61,-0.13 0,4.68 0.55,1.51 1.79,3.51 1.17,1.38 0.41,1.45 -0.34,1.03 -0.41,0.83 -0.62,3.3 0.34,1.1 0.69,0.97 1.38,1.3 1.03,1.18 1.37,0.89 2.14,0.55 1.24,0.62 1.24,0.9 1.37,1.37 1.66,1.86 0.69,1.58 0.2,1.31 -0.2,5.17 0.55,1.51 1.3,0.62 1.79,0.07 1.24,-0.41 0.69,-0.83 0.9,-0.83 0.48,-3.71 0.69,-2 0.55,-0.9 0.48,-1.03 0.69,-1.86 0.96,-1.65 0,-1.58 -0.41,-2.07 0.21,-1.44 0.55,-1.17 1.79,0.2 1.65,0.76 1.79,1.51 1.79,2.28 1.52,2.2 0.27,5.16 0.34,1.17 1.18,1.38 1.51,1.38 1.65,1.1 1.65,0.62 1.66,0.48 1.24,0.69 1.44,2 1.79,3.99 1.79,1.38 2.55,2.54 1.79,1.66 1.24,0.2 1.1,-0.69 0.83,-0.96 0.55,-1.72 1.93,-1.45 0.2,-1.37 -0.27,-0.97 -0.07,-1.31 -0.48,-2.06 -0.21,-1.45 -0.62,-1.1 0.28,-1.31 0.48,-0.48 1.03,0.28 0.83,0.41 1.3,1.03 1.04,1.1 1.72,0.28 1.38,-0.21 0.68,-0.75 2.07,-2.9 0.48,-1.72 0.9,-0.34 3.16,0 1.72,0.55 1.66,-0.21 1.37,-0.96 2.28,-0.83 1.3,-0.34 1.38,-0.69 z"
     title="Ash Sharqīyah South"
     id="OM-SHS" />
  <path
     d="m 354.6007,346.24027 17.73,8.65 1.05,6.12 0,2.32 -1.05,2.54 -0.43,3.37 -2.91,-0.26 0,0 0.67,-1.27 0.07,-1.38 0.35,-0.67 0.23,0.07 -0.12,-0.34 0.13,-0.51 -0.79,-0.38 -1.32,-0.44 -0.45,-0.29 -0.98,-0.31 -0.48,0 -0.18,-0.1 -0.27,0 -0.23,0.25 -0.75,0.09 -0.42,0.17 -0.53,0.75 -0.87,0.32 -0.28,0.19 -0.75,0.81 -0.57,0.01 -1.53,0.63 -0.48,0.36 -0.37,0.65 0.1,0.28 0,1.06 -0.57,1.28 0.15,0.41 -0.18,1.17 0.15,0.72 -0.44,0.38 -0.25,-0.05 -0.57,0.63 -0.42,-0.05 -0.82,0.24 -1.53,0.63 -0.98,0.53 -1.2,0.85 -0.65,0.73 -0.24,0.4 -0.22,0.66 0,0.75 0.12,0.65 0.39,0.63 0.18,0.09 0.88,0.08 0.26,0.17 -0.42,1.01 -0.53,0.92 -0.27,0.24 -1.15,0.53 -2.02,1.16 -1.11,0.77 -1.71,1.72 -0.14,0.27 -0.02,0.53 -0.24,0.44 -1.02,1.04 -0.17,0.36 -0.15,0.86 -0.19,0.42 -0.07,0.39 0.17,1.84 0.17,0.36 0.29,0.12 0.36,-0.02 0.16,0.55 -0.16,0.56 -0.04,0.8 -0.77,2.59 0.03,0.29 0.31,0.31 -0.08,0.37 -0.21,0.29 -0.05,0.53 -0.32,0.61 -0.14,0.6 0.06,1.68 -0.44,0.6 -0.69,1.21 -0.25,1.38 -1.05,1.97 -0.16,0.73 0.22,0.33 -0.69,1.76 -0.3,0.57 0.09,0.32 -0.89,1.15 -0.09,0.53 0.11,0.29 -0.46,0.7 -2.37,2.68 -0.42,0.75 -0.25,0.68 -0.12,0.48 0,1.29 0.4,1.36 0.26,0.32 0.44,0.32 0.32,0.02 0.3,-0.17 0.13,0.41 0.26,0.22 0.26,0.02 0.13,-0.16 0.19,0 -0.19,1.4 -0.49,0.93 0.2,1.07 -0.97,3.02 -0.14,1.87 0.24,0.44 0.11,0.49 0.44,0.22 0.16,0.23 0.01,0.23 0.26,0.12 0.23,0.29 0.19,1.2 0.26,0.33 0.24,0.15 0.4,0.93 0.45,0.21 0.03,0.71 0.37,0.64 0.42,2.17 -0.16,1.6 -0.35,0.76 -0.49,1.43 -0.21,1.2 0,3.2 0.2,1.22 0.38,0.66 0.42,1.82 0.2,0.59 0.3,0.49 0.5,0.49 0.58,-0.15 0.45,0.05 0.59,0.79 -0.09,1.02 -0.4,1.25 0.06,0.73 -0.1,0.92 0.12,1.28 0.46,0.54 0.52,-0.03 -0.07,0.2 0.1,1.24 0.23,0.84 0.28,0.6 0.42,0.54 0.6,0.17 0.08,0.29 -0.74,0.62 -0.37,0.14 -0.32,0.39 -0.26,-0.19 -0.18,0.22 -0.05,0.49 -0.16,0.14 -0.35,0.08 -1.5,-0.05 -1.83,0.29 -0.5,0.37 -0.58,0.59 -0.58,0.15 -0.47,0.34 -1.41,0.2 -11.15,-0.15 -4.77,0.26 -5.47,0.66 -2.7,0.57 -2.27,0.71 -1.95,0.42 -1.67,0.53 -6.65,1.64 -1.11,0.37 -0.74,0.39 -0.71,0.17 -1.21,0.52 -2.25,1.1 -2.74,0.93 -1.62,0.71 -2.49,1.52 -1.34,0.98 -0.93,0.69 -1.05,1.03 -0.6,0.71 -0.19,0.42 -1.3,1.41 -3.74,4.55 -0.69,0.53 -0.42,0.44 -0.22,0.33 -0.34,0.31 -0.29,0.47 -0.34,1.25 0.42,-0.32 0.42,-1.23 0.45,-0.59 -0.39,0.77 -0.37,1.13 -0.53,1.01 -0.17,0.61 0.09,0.76 0,0.98 0.34,3.07 -0.13,0.52 -0.45,0.71 -0.85,1.9 -0.19,1.96 0.12,1.18 -0.12,0.99 -0.34,1.29 -0.07,0.58 -0.19,0.44 -0.34,0.41 -0.43,1.11 -1.44,2.46 -0.51,2.42 -0.27,0.42 0.01,0.78 0.18,0.18 0.16,0.46 -0.03,0.47 0.13,0.76 -0.04,0.59 -0.45,0.26 -1.03,0.32 -0.24,0.24 -0.4,0.79 -0.29,0.32 -0.27,0.19 -0.41,0.1 -1.06,0.49 -0.53,0.42 -0.53,0.26 -1.35,1.08 -0.4,0.64 -0.05,0.84 0.06,0.44 -0.17,0.34 -1.15,1.06 -0.77,0.5 -0.63,0.69 -0.9,0.27 -0.43,0.35 -0.31,0.36 -0.14,0.31 -0.02,0.46 0,0 -20.59,-35.35 -19.2,-31.02 -20.47,-31.86 -18.14,-26.77 0,0 15.76,-50.16 6.68,-21.63 1.99,-6.11 -0.02,-0.23 0.13,-0.2 0,0 66.23,-7.79 0,0 z"
     title="Al Wusţá"
     id="OM-WU" />
  <path
     d="m 202.8107,192.81027 4.42,0.41 3.35,0.16 4.14,0 3.99,-0.32 2.4,-1.27 2.39,-2.24 2.55,-1.43 3.03,-2.24 2.56,-0.95 3.19,-0.96 3.35,-0.32 1.11,-0.96 0,-2.07 0.96,-1.28 -1.43,-2.07 -1.6,-2.55 -0.8,-2.24 -0.96,-1.59 -0.31,-2.71 0.79,-2.56 2.24,-1.11 2.39,-0.64 2.55,-0.16 -1.27,-3.19 -2.1,-3.85 3.33,-2.26 3.55,-0.12 1.76,0.64 2.23,0.16 1.92,-0.95 2.71,0 1.75,-1.12 2.31,-0.22 0,0 1.14,0.51 1.26,2.02 0.88,1 1.26,0.38 0.89,1.01 1.39,0.26 0.75,1.51 0.26,3.79 0.63,1.64 2.9,1.51 0.38,1.14 0.38,2.27 0.88,1.26 0.88,0.63 1.14,1.26 1.89,0.26 1.01,-0.51 2.27,-0.25 1.64,-0.38 1.65,0.38 1.26,0.76 1.83,-0.12 1.07,0.49 0.76,0.89 -1.27,0.76 0.54,2.03 1.23,0.74 0.76,1.01 0.38,1.39 1.13,1.01 6.69,0.25 1.26,0.51 0,0 0,1.01 -0.62,0.83 -1.23,2.46 2.11,0.85 0.42,2.11 1.05,1.68 0,0 1.69,2.96 0,0 -0.42,5.27 1.48,2.96 -0.85,2.53 -6.33,6.33 -2.11,-1.06 -1.69,-1.47 -1.9,5.06 -1.05,4.85 -1.69,2.33 -1.26,5.27 -4.22,16.04 -0.22,3.37 1.06,1.06 -0.63,4.43 -1.9,9.49 -1.06,9.29 -3.04,15.89 -4.34,29.05 0,0 -66.23,7.79 0,0 14.08,-44.81 -0.87,-1.59 -7.44,-12.44 -1.93,-3.36 -16.12,-26.29 -0.06,-0.7 -0.21,-0.93 0.04,-0.39 0.61,-2.81 0.35,-2.25 -0.09,-0.52 -0.21,-5.03 -0.23,-1.82 0.05,-0.74 0.22,-1.23 -0.05,-3.21 0.12,-0.64 0.82,-1.99 0.44,-0.71 -0.1,-0.55 0.01,-0.77 0.19,-0.4 0.03,-0.69 0.29,-0.94 0.66,-1.18 0.5,-0.55 1.29,-2.39 1.24,-1.67 0.46,-1.34 1.18,-1.64 0.3,-0.56 1.53,-4.21 z"
     title="Az̧ Z̧āhirah"
     id="OM-ZA" />
  <path
     d="m 180.9107,400.92027 18.14,26.77 20.47,31.86 19.2,31.02 20.59,35.35 0,0 -0.13,0.42 0.27,0.44 0,0.72 -0.18,0.2 -0.5,0.13 -1.11,-0.03 -1.11,-0.17 -0.9,-0.4 -0.39,-0.08 -0.31,-0.34 -1.38,-0.13 -0.34,-0.24 -1.01,0 -0.53,-0.15 -1.8,0.13 -0.42,-0.07 -0.27,-0.25 -0.97,0.37 -0.03,0.18 -0.29,0.32 -0.39,0.17 -0.63,0.13 -0.43,-0.15 -0.34,0.1 -0.68,0.02 -0.26,0.32 -0.27,0.05 -1.4,-0.27 -2.41,-0.32 -1.27,-0.02 -0.61,0.08 -0.35,-0.1 -0.29,0.12 -0.5,-0.13 -0.43,0.05 -0.69,0.29 -0.24,0.24 -0.29,0.05 -0.6,0.3 -0.21,-0.02 -0.72,0.76 -0.63,0.17 -0.08,0.15 -0.42,0.1 -0.26,-0.18 -0.4,0.29 -0.19,-0.1 -0.53,0.1 -4.28,-0.33 -0.72,-0.12 -2.99,-0.02 -0.13,0.1 -5.94,0.76 -3.35,0.62 -2.88,0.76 -3.12,1.24 -1.45,0.81 -1.67,0.67 -0.31,0.25 -0.11,0.57 -0.19,0.08 0.11,0.4 -0.18,0.24 -0.29,1.02 0.16,0.17 0.1,0.29 -0.23,0.6 -0.58,0.47 -0.63,0.3 -0.72,1.19 -0.02,1.19 0.15,0.64 -0.06,0.34 -0.21,0.27 0.03,0.39 -0.06,0.1 -0.9,0.42 -0.34,0.25 -2.17,1.14 -0.43,0.62 -0.47,0.33 -0.02,0.39 -2.17,1.36 -0.4,0.49 0.11,0.59 -0.53,0.82 -0.48,0.38 -0.23,0.4 -0.35,0.72 -0.42,1.21 -0.1,0.67 0.06,0.96 0.24,0.13 0.1,0.22 -0.03,1.22 0.26,0.75 0.37,0.54 0.42,0.27 0.42,-0.07 0.34,0.2 0.43,-0.03 0.08,-0.12 0.11,0.05 0.39,0.44 0.03,0.23 0.21,0.29 0.58,1.42 0.23,0.18 0.02,0.45 0.51,0.17 -0.13,0.22 -0.16,0 -0.19,0.22 0.11,0.67 -0.24,0.18 -0.16,0.32 0.11,0.74 -0.24,0.15 -0.11,0.25 -0.45,0.18 -0.08,0.65 0.11,0.32 -0.82,0.97 -0.1,0.45 -0.14,0.22 0.05,0.25 -0.85,0.54 -0.42,0.84 -0.05,0.6 0.72,1.11 0.5,0.32 0.1,0.33 -0.51,0.39 -0.18,0.67 -0.84,0.59 -0.24,0.57 -0.21,0.15 -0.66,0.18 -0.55,0.47 -0.4,1.05 -0.52,0.62 0.03,0.69 0.18,0.25 -0.03,0.13 -0.34,0.22 -1.74,0.18 -0.39,0.12 -0.35,0.25 -0.76,1.21 -0.35,0.3 -0.24,0.67 -0.77,1 -0.6,0.59 0.06,0.2 -0.48,0.3 -0.1,-0.1 -0.24,0.12 0.08,0.33 -0.31,0.43 -0.19,0.07 -0.6,0.5 -0.6,0.17 -0.55,0.33 -0.16,0.25 -0.03,0.22 -0.97,0.3 -0.26,0.7 -0.35,0.28 -0.02,-0.43 0.08,-0.25 -0.18,-0.3 -0.66,-0.33 -0.8,0.07 -0.45,1.19 -0.27,0.37 -1.29,0.55 -0.18,-0.02 -0.4,-0.27 -0.27,0.07 0,0.54 -0.16,0.15 -0.8,0.17 -0.13,-0.47 -0.52,-0.37 -0.13,0 -0.02,0.69 -0.21,0.15 -0.23,0.35 -0.03,0.22 -1.05,0.13 -0.26,-0.15 -0.18,0 -0.23,0.08 0,0.2 -0.14,0.13 -0.45,-0.03 -0.23,-0.17 -0.27,-0.07 -0.92,0.08 -0.39,0.2 -0.1,-0.1 -0.34,-0.02 0.06,0.18 -0.69,0.13 0,0.12 0.19,0.2 -0.18,0.18 -0.76,0.05 -0.43,0.13 -0.32,-0.12 -0.39,-0.42 -0.32,-0.12 -0.21,0 -0.26,0.38 -0.23,0.07 -0.11,-0.35 -0.18,0 -0.05,-0.17 -0.27,-0.22 -0.34,0 -0.11,0.08 0.02,0.3 -0.55,-0.13 -0.53,0.22 -0.1,-0.07 0,-0.12 0.15,-0.1 0,-0.27 -0.52,0.12 -0.06,-0.45 -0.74,-0.1 -0.37,-0.03 -0.05,0.27 -0.26,-0.17 0,-0.47 -0.19,0 -0.06,0.12 -0.29,-0.1 -0.18,-0.2 -0.06,-0.13 0.51,-0.72 0,-0.25 -0.24,-0.17 -0.05,-0.2 0.11,-0.23 -0.29,-0.35 -0.63,-0.35 -1.67,-0.5 -0.76,-0.13 -0.53,0 -0.13,0.08 -2.01,-0.05 -0.08,-0.12 -3.28,-0.22 -4.44,0.05 -0.19,0.12 -0.02,0.18 -0.19,0.05 -0.39,-0.4 -0.08,0.38 -0.31,-0.07 -0.02,-0.17 -0.11,-0.05 -1.3,-0.08 -3.36,-0.02 -4.65,0.5 -2.24,0.44 -9.3,1.4 -2.66,0.65 -0.6,0.4 -0.53,0.55 -0.45,0.95 0.13,0.12 0.15,-0.05 0.06,0.1 -0.1,0.42 0.06,0.3 0.18,0.03 0.31,-0.23 0.24,0.08 -0.02,0.2 -0.32,0.4 -0.43,0.07 -0.26,-0.08 -0.21,0.07 -0.19,0.2 -0.23,0.03 -0.18,0.13 -0.19,0.54 -0.45,0.13 -0.02,0.22 -0.35,-0.25 -0.76,0.13 -0.11,0.65 -0.1,0.03 -1.82,-0.03 -0.76,0.29 -0.51,-0.18 -0.89,0.03 -0.79,0.15 -0.14,0.18 -0.66,0.23 -0.85,0.15 -0.1,-0.12 -1.08,0 -2.46,0.48 -1.06,0.45 -0.08,0.08 0.06,0.28 -0.79,0.65 -0.21,0.28 -1.27,0.92 -0.19,0.23 0,0.23 -0.55,0.02 -0.08,0.28 -0.31,0.15 -0.13,0.17 -0.11,0.03 -0.19,-0.1 -0.24,0.1 -0.02,0.25 -0.4,0.27 -0.23,0.55 0.19,0.79 -0.16,0.22 -4.170004,1.34 -0.82,0.4 -0.18,0.2 -0.32,-0.2 -4.14,-0.6 -2.56,0.38 -0.92,0.3 -3.35,0.79 -2.33,0.28 -0.95,0.25 -0.45,0.35 -0.61,0.13 -0.69,0.02 -6.31,1.74 -1.06,0.72 -0.68,0.13 -1.92,0.97 -0.6,0.43 -2.08,0.76 -21.42,-26.35 2.07,-15.38 -50.18999971,-75.26 6.88000001,-25.76 2.3,-0.8 0.21,-0.16 1.0999997,-0.32 0.24,-0.16 0.96,-0.28 0.31,-0.18 1.02,-0.29 0.28,-0.19 1.06,-0.29 0.21,-0.17 0.25,0.01 0.86,-0.32 0.21,-0.17 0.63,-0.13 0.65,-0.34 0.24,0.01 0.86,-0.32 0.18,-0.16 0.24,0.01 0.98,-0.4 0.33,0.08 1.08,-0.62 0.24,0.01 0.88,-0.33 0.18,-0.14 1.06,-0.3 0.22,-0.17 2.4,-0.79 0.21,-0.16 0.78,-0.2 6.98,-2.57 16.59,-5.82 0.33,-0.18 32.66,-11.41 1.06,-0.45 1.14,-0.33 0.18,-0.14 0.49,-0.03 1.57,-0.62 6.14,-2.11 0.18,-0.14 4.08,-1.37 1.08,-0.47 5.300004,-1.78 1.08,-0.38 0.18,-0.14 0,0.06 0.77,-0.22 1.82,-0.72 1.09,-0.31 0.24,-0.18 0,0.07 0.63,-0.2 0.65,-0.34 0.2,0.04 0.95,-0.34 0.14,-0.14 0.2,0.03 0.94,-0.32 0.15,-0.16 0.24,0.01 1.12,-0.48 0.46,-0.07 0.77,-0.38 0.22,0.03 0.93,-0.32 0.18,-0.17 0.24,0.01 1.07,-0.45 2.4,-0.76 0.18,-0.17 0.22,0.04 1.08,-0.48 1.17,-0.34 0.18,-0.15 0.18,0.04 1.08,-0.46 0.17,0.03 1.25,-0.53 9.29,-3.16 1.07,-0.45 0.14,0.04 2.24,-0.78 0.24,-0.15 1.04,-0.29 0.3,-0.17 1.15,-0.33 14.27,-4.99 1.31,-0.53 22.58,-7.67 z m 49.29,151.53 0.71,0.42 0.21,0.18 0.03,0.15 0.23,0.1 0.55,-0.07 0.15,0.12 0.02,0.54 -0.27,0.3 -0.05,0.17 -0.19,0.08 -0.27,-0.02 -0.29,0.3 -0.4,-0.47 -0.15,0.25 -0.26,-0.27 0.21,-0.18 -0.13,-0.27 -0.23,0.07 -0.14,0.17 -0.24,0.05 -0.21,-0.12 -0.21,0.05 -0.03,-0.15 -0.13,-0.1 -0.06,0.29 -0.08,0 -0.19,-0.57 0,-0.08 0.13,0 0.02,-0.18 0.15,-0.03 0.03,0.17 0.18,-0.02 0.32,-0.5 0.14,0.02 0.24,-0.32 0.21,-0.08 z m 11.6,-2.7 0.11,0.07 0.03,0.18 0.19,0.27 -0.05,0.76 0.16,0.2 -0.05,0.37 0.19,0.47 0.58,0.07 0.19,0.15 1.19,0 0.05,0.27 -0.06,0.1 -0.16,0.03 -0.19,0.39 -0.98,0.25 -1.27,0.75 -0.31,0.1 -0.69,-0.07 -0.24,-0.13 -0.19,0 -0.02,0.22 -0.18,-0.03 -0.48,0.13 -0.11,-0.03 0,-0.15 -0.1,-0.1 -0.65,0.08 -0.96,-0.38 -0.24,0 -0.11,0.1 -0.74,-0.47 -0.13,-0.37 0.16,0 0,-0.15 -0.05,-0.07 -0.31,0.03 -0.03,-0.13 0.37,-0.55 1.32,-0.52 0.36,-0.05 0.03,-0.07 -0.1,-0.12 0.15,-0.13 0.29,-0.03 0.16,0.13 0.45,-0.03 0.26,-0.05 0.39,-0.27 0.39,-0.08 0.39,-0.2 0.55,-0.49 0.26,-0.39 0.18,-0.06 z"
     title="Z̧ufār"
     id="OM-ZU" />
</svg>
