<?xml version="1.0" encoding="UTF-8" standalone="no"?>
<!-- Created for MapSVG plugin: http://mapsvg.com -->
<svg
   xmlns:mapsvg="http://mapsvg.com"
   xmlns:dc="http://purl.org/dc/elements/1.1/"
   xmlns:rdf="http://www.w3.org/1999/02/22-rdf-syntax-ns#"
   xmlns:svg="http://www.w3.org/2000/svg"
   xmlns="http://www.w3.org/2000/svg"
   mapsvg:geoViewBox="-31.265662 42.156380 -6.189321 30.138063"
   width="792.35907"
   height="470.56802">
  
  <path
     d="m 196.07297,210.79425 0.28,0.16 -0.02,0.95 1.22,0.98 -0.13,0.22 0.3,0.91 -0.48,-0.12 -1.37,0.24 -0.55,-0.64 -0.54,-0.19 -1.24,0.52 -0.22,-0.23 -0.35,0.22 -0.37,-0.18 -0.62,-1.47 0.07,-0.42 0.42,-0.35 0.82,-0.39 0.37,0.38 0.2,-0.24 0.41,0.15 0.27,-0.39 0.66,-0.12 0.49,0.2 0.38,-0.19 z m -23.01,-35.41 2.06,0.87 0.67,0.96 0.18,0.72 0.4,-0.02 0.15,0.37 1.15,0.3 0.36,-0.22 1.42,0.79 0.11,-0.21 0.67,0.16 1.09,-0.37 1.43,-1.12 0.45,1.1 0.6,-0.11 0.28,0.17 0.24,-0.35 0.23,0.29 0.62,-0.04 0.28,-0.33 0.4,0.09 1.5,-0.7 0.4,-0.57 0.75,0.45 1.09,-0.26 0.7,0.32 2.19,-0.21 0.94,0.36 0.33,0.99 0.03,0.67 -0.31,0.56 0.16,0.86 -0.98,1.22 -1.29,0.28 -1.27,-0.37 -0.77,0.23 -0.41,0.5 -0.29,-0.09 -0.72,0.33 -0.95,-0.06 -0.62,0.39 -1.77,-0.18 -0.5,0.19 -1.3,-0.27 -0.94,0.37 -1.75,-1.42 -0.51,0.1 -1.36,-0.43 -0.46,0.33 -0.53,0.23 -1.37,0.02 -4.45,-3.64 -0.44,-0.98 -0.04,-0.38 0.28,-0.5 0.55,-0.32 0.17,-0.69 0.55,0.11 0.6,-0.49 z m -82.560003,-26.17 0.59,0.06 1.94,0.89 1.07,1.22 1.75,0.34 0.26,0.43 0.94,0.46 0.31,0.53 4.190003,0.78 0.71,0.55 0.2,0.74 -1.67,0.48 -3.080003,-0.38 -0.52,0.51 -1.29,0.55 -0.5,-0.16 -0.11,-0.71 -0.51,-0.35 -2.96,-0.01 -1.58,-0.67 -0.33,0.28 -0.59,0.03 -2.24,-1.26 -0.74,-1.36 0.01,-1.4 0.15,-0.56 1.25,-0.88 0.59,-0.19 0.88,0.21 1.28,-0.13 z m -9.48,-3.46 1.42,0.54 0.47,0.53 0.84,0.26 0.74,0.73 -0.4,1.23 0.27,0.66 -0.73,0.37 0.07,0.89 -0.29,-0.1 0.01,-0.29 -2.39,0.27 -1.42,-0.18 0.05,-0.73 -0.37,-0.99 -0.58,-0.02 -1.54,-1.08 -0.06,-0.52 1.37,-0.33 1.11,0.06 0.83,-1.09 0.6,-0.21 z m 12.67,-4.37 1.35,0.39 5.790003,2.59 0.66,0.21 0.45,0.15 0.67,0.03 1.45,1.12 0.42,0.04 0.96,0.73 0.47,0.36 1.02,0.31 2,1.2 0.76,0.17 1.43,1.12 -0.65,0.5 -1.72,0.08 -3.63,-2.27 -2.52,-0.47 -1.42,-1.07 -1.11,-0.18 -2.670003,-1.38 -0.45,-0.38 -0.56,-0.1 0.1,-0.46 -0.28,-0.04 -0.02,-0.37 -1.55,-0.89 -1.28,-1.31 0.33,-0.08 z m 33.270003,-1.9 0.61,0.13 0.15,0.27 0.34,-0.12 0.08,-0.27 0.4,0.21 0.17,-0.02 1.67,0.29 0.24,0.05 0.21,0.23 0.84,-0.18 1.28,0.98 0.15,0.71 0.45,0.29 -0.44,0.17 -0.11,0.31 0.61,1.14 -0.45,0.44 0,0.31 -0.59,0.25 -0.1,1.11 -0.62,-0.17 -1.39,0.17 -0.82,-0.39 -1.22,-0.01 -0.43,0.05 0.11,0.4 -0.32,0.19 -0.25,-0.23 0.16,-0.43 -1.19,-0.06 -0.28,0.18 -2.34,-1.37 -0.55,-0.78 -0.27,-0.87 -0.06,-0.79 0.23,-0.52 0.08,-0.25 0.24,-0.62 0.95,-0.49 2.46,-0.31 z m -24.64,-11.86 1.2,0.41 1.25,2 0.15,0.98 -0.64,0.17 -0.76,-0.15 -0.44,-0.48 -0.75,0.04 -0.45,-0.4 -0.79,-1.45 0.56,-0.58 0.12,-0.44 0.55,-0.1 z m -97.4400033,-14.63 -0.63,0.77 0.21,0.44 -0.4,0.15 0.03,0.62 -0.64,1.2 -0.73,0.18 -1.84000003,-0.17 -0.28,-0.83 0.23,-0.29 -0.37,-0.59 0.09,-0.78 -0.26,-0.51 0.34,-0.46 -0.06,-1.07 0.79000003,-0.86 -0.1,-0.45 0.89,-0.17 0.22,0.62 0.28,0 -0.07,0.21 0.92,0.23 0.23,-0.22 0.36,1.19 0.39,0.44 0.27,-0.02 0.13,0.37 z m 0.65,-10.99 0.45,0.23 0.16,0.9 -0.19,0.47 -0.95,0.67 -0.32,-1.32 0.2,-0.95 0.65,0 z"
     title="Açores"
     id="PT-Aç" />
  <path
     d="m 711.65297,153.22425 0.4,-0.08 -0.19,0.39 -0.33,-0.05 -0.15,-0.36 0.27,0.1 z m 37.98,-48.77 0.32,0.24 0.02,0.9 0.52,0.68 0.34,1.15 1,0.49 1.17,1.74 1.23,0.18 0.05,1.11 0.35,0.29 -0.1,0.2 0.52,0.38 0.52,-0.26 0.16,0.35 0.66,0.18 0.85,0.6 -0.27,0.88 0.11,1 -0.74,1.4 0.37,0.43 0.14,1.41 2.36,2.31 -0.51,1.11 0.25,1.58 0.82,0.8 2.57,0.93 -0.15,0.77 0.15,0.22 -0.41,0.99 0.29,0.54 0.97,0.36 0.21,-0.25 1.54,-0.52 0.62,0.06 1.4,0.94 0.85,1.6 0.29,1.19 -2.43,4.14 -0.59,0.59 0.57,1.14 -0.2,0.62 -0.9,0.42 -0.99,1.48 -1.06,0.13 -0.71,0.66 -0.37,0.71 -1.02,0.61 -0.44,0.76 -1.57,0.89 -0.39,3.44 0.18,0.42 0.71,0.17 -0.47,0.5 -0.18,0.9 -0.35,0.55 -0.29,0.01 -0.16,0.68 -0.43,0.58 0.02,0.75 -0.42,0.48 -0.21,1.36 0.29,0.19 0.34,-0.35 0.18,0.28 -0.57,0.66 -0.01,0.41 -0.53,0.21 -0.07,0.24 0.58,-0.14 1.15,0.79 0.24,1.11 2.19,2.62 1,1.87 0.54,0.15 0.51,1.91 0.86,1.57 0.82,0.75 0.5,-0.29 0.03,-0.3 0.32,0.01 0.06,0.27 0.36,-0.31 0.45,0.14 0.57,-0.59 -0.04,-0.22 1.02,-0.27 0.27,0.29 0.51,-0.54 0.65,-0.07 -0.04,0.42 0.21,0.14 -1.07,1.33 -0.05,0.55 0.47,0.29 -0.63,1.65 -0.46,0.34 -0.15,1.78 -0.31,0.4 -0.2,1.07 -0.48,-0.1 -1.23,0.25 -0.33,-0.57 -0.94,-0.4 -0.78,0.56 0.06,0.85 -0.19,0.19 -1.24,0.26 -1.04,-0.24 -0.72,0.49 -0.63,0 -0.45,0.32 0.3,0.74 -0.06,0.84 -0.14,0.65 -0.82,1.16 -0.2,1.37 -1.12,1.88 -1.34,0.93 -0.92,1.06 -0.37,-0.08 -0.49,0.37 0.06,0.43 -0.82,1.93 -0.01,1.25 -0.23,0.17 -0.04,0.52 -0.32,0.06 -0.28,0.79 -0.32,0.07 -0.27,0.65 -0.39,0.15 0.23,0.56 -0.53,0.85 0.19,0.39 -0.48,0.18 0.33,1.07 0,0 -0.4,-0.05 -0.57,0.36 -0.99,-0.33 -0.26,0.54 -0.44,0.06 -0.03,0.44 -0.56,0.09 -0.11,0.35 -0.58,-0.36 -0.39,-0.06 -0.38,-0.16 -1.39,0.38 -0.2,-0.12 -0.28,0.35 -0.66,0.07 -0.36,0.44 -0.24,0.01 -0.36,-0.02 -0.41,0.43 -0.25,-0.07 -0.75,0.69 -0.37,0.15 -0.71,0.02 -0.12,0.47 -1.09,0.16 -0.11,0.22 0.22,0.46 -0.36,-0.04 -0.36,0.23 -0.31,0.12 -0.54,0.14 -0.53,0.03 -0.19,-0.25 -0.36,0.31 -0.4,-0.15 -0.07,0.37 -0.41,-0.02 -0.16,0.4 -0.08,0.36 0.22,0.28 0.21,-0.06 0.11,0.37 -1.19,0.41 -0.27,0.61 -0.95,0.66 -0.46,-0.3 -2.1,-0.15 -1.41,-0.41 -1.86,-1.59 -0.82,-0.21 -0.02,-0.35 0,0 0.22,-0.43 0,0 -0.44,-0.9 -0.97,-0.14 -0.88,0.33 -0.55,-0.21 -1.79,0.47 -0.21,0.42 0.07,0.61 -0.27,0.38 -0.59,0.01 -0.14,0.36 -1.51,-0.41 0,0 -0.39,0.21 0,0 -1.79,-1.24 -0.59,0.32 -1.03,0.1 -0.61,0.88 -0.71,-0.93 -0.82,0.16 -1.22,-0.2 -0.12,0.2 -0.56,-1.37 -1.23,-0.15 -0.37,-0.32 0,0 0.06,-1.85 0.38,-1.63 -0.2,-1.08 -0.84,-1.56 0.73,-3 0.03,-1.19 0.42,-0.63 -0.31,0.04 -0.18,-0.7 -0.45,-0.42 0.64,-3.57 -0.21,-2.35 -0.39,-1.29 -1.11,-0.33 -0.67,-0.65 -0.49,0.12 -0.16,-0.25 0.67,-0.76 0.74,-1.49 1.5,-4.57 0.6,-3.44 -0.01,-2.38 -0.34,-2.59 -1.06,-3.02 -2.73,-3.1 0.1,-0.18 0.24,0.14 0.43,0.74 -0.07,-0.59 1.07,1.23 0.62,0.34 0.32,0.99 0.65,0.7 0.35,-0.09 -0.71,-0.86 -0.22,-0.72 0.68,0.18 -0.02,0.27 0.47,-0.1 0.08,-0.13 0.61,0.15 -0.35,0.63 0.28,-0.02 0.24,-0.59 0.77,0.71 1.26,0.13 1.19,0.49 -1.34,-1.52 -0.69,0.1 -0.3,-2.94 0,0 0.83,-0.26 0.77,-0.91 1.23,-0.19 -0.48,-2.43 1.34,-1.44 0.59,-0.23 0.53,-0.86 1.46,-0.91 0.65,-1.36 0.08,-0.64 0.5,-0.69 -1.69,-0.11 0.42,-0.83 1,-0.94 0.91,0.46 0.87,-0.61 0.47,-0.93 0.28,-0.04 0.38,0.46 0.83,-0.68 -0.24,-0.25 0.39,-0.37 1.12,0.69 0.55,-0.69 0.48,0.18 0.26,-0.66 0.25,0.51 0.81,0.55 -0.01,0.42 0.51,0.42 0.61,-0.02 0.35,-0.34 0.67,0.79 -0.15,0.46 0.38,0.18 0.21,-0.31 0.37,0.05 -0.07,0.7 0.35,0.28 0.67,0.05 0.64,-1.17 -0.83,-0.62 -0.26,0.52 -0.24,-0.94 -0.64,-0.35 0.09,-0.47 0.78,-0.68 -0.72,-0.5 -1.31,-0.31 -1.56,-0.76 0.88,-1.3 0.27,-0.78 -0.15,-0.63 0.67,-0.83 -0.24,-0.45 -0.54,0.24 -0.22,-0.43 -0.28,-0.06 -0.29,-1.65 -0.38,0.09 -0.3,-0.4 0.01,-0.83 -1.44,-0.66 -0.26,-0.55 0.38,-0.26 1.04,-1.78 1.42,-0.85 0.68,-0.14 1.14,-1.19 0.43,-0.15 0.13,-0.41 0.91,-0.86 -0.15,-0.71 0.7,-0.78 0.56,-0.05 0.21,0.43 0.97,-0.05 0.3,-0.81 0.64,-0.58 0.27,-0.73 0.44,-0.43 -0.09,-0.9 0.88,-0.18 0.38,-0.65 0.63,0.02 -0.06,0.28 0.36,0.55 1.87,1.16 4.42,-1.99 -0.08,-0.23 0.51,-0.97 -0.66,-0.4 -0.3,0.25 -0.02,-0.26 -0.92,-0.71 -0.08,-0.37 -0.66,-0.08 -0.13,-0.58 -0.59,-0.02 -0.7,-0.64 -0.05,-0.49 0.42,-0.07 0.47,-0.57 0,0 0.42,-0.25 0.46,-0.95 0.83,-0.23 0.82,-0.8 0.43,-0.9 1.05,-0.23 0.34,-0.62 0,0 -0.11,-0.65 0.27,-0.33 0,0 1.18,-0.71 0.73,0.98 0.31,0.1 1.31,-0.73 0.04,-0.41 0.41,-0.31 0.96,-0.01 0.39,-0.29 0,0 -0.1,-0.17 z"
     title="Alentejo"
     id="PT-ALE" />
  <path
     d="m 736.79297,212.18425 1.64,0.39 0.55,-0.33 0.05,0.39 -0.71,0.08 -1.21,-0.31 -0.32,-0.22 z m 3.26,-0.51 -0.89,0.72 -0.02,-0.28 0.45,-0.48 0.49,-0.31 -0.03,0.35 z m 0.71,-0.55 0.08,0.19 -0.54,0.3 0.46,-0.49 z m -0.91,-0.36 0.23,0.22 -0.6,0.12 0.04,-0.29 0.27,-0.22 0.06,0.17 z m 1.06,-0.56 -0.15,0.3 -0.22,-0.21 0.01,0.35 -0.44,0.31 -0.18,-0.39 0.49,-0.34 0.49,-0.02 z m 2.77,-1.17 -2.17,1.6 -0.4,0.04 -0.12,-0.37 0.62,0.04 2.07,-1.31 z m -34,-15.36 0.37,0.32 1.23,0.15 0.56,1.37 0.12,-0.2 1.22,0.2 0.82,-0.16 0.71,0.93 0.61,-0.87 1.03,-0.09 0.59,-0.32 1.79,1.24 0,0 0.39,-0.21 0,0 1.51,0.41 0.14,-0.36 0.59,-0.01 0.27,-0.38 -0.07,-0.6 0.21,-0.42 1.79,-0.47 0.55,0.21 0.88,-0.33 0.97,0.14 0.44,0.9 0,0 -0.21,0.43 0,0 0.02,0.35 0.82,0.21 1.86,1.59 1.41,0.41 2.1,0.15 0.46,0.3 0.95,-0.66 0.27,-0.6 1.19,-0.41 -0.11,-0.37 -0.21,0.06 -0.21,-0.28 0.08,-0.36 0.16,-0.4 0.41,0.02 0.07,-0.37 0.4,0.15 0.36,-0.31 0.19,0.25 0.53,-0.03 0.54,-0.14 0.32,-0.12 0.36,-0.23 0.36,0.04 -0.21,-0.45 0.11,-0.22 1.09,-0.16 0.12,-0.47 0.71,-0.02 0.37,-0.15 0.75,-0.69 0.25,0.07 0.41,-0.43 0.36,0.02 0.24,-0.01 0.36,-0.44 0.66,-0.07 0.28,-0.35 0.2,0.12 1.39,-0.38 0.39,0.16 0.39,0.06 0.58,0.37 0.11,-0.35 0.56,-0.09 0.03,-0.44 0.44,-0.06 0.26,-0.53 0.99,0.33 0.57,-0.36 0.4,0.05 0,0 0.1,0.23 0.59,0.04 0.24,0.97 0.66,0.44 -0.19,0.69 0.41,0.69 -0.02,0.9 0.38,0.41 -0.57,0.37 0.71,0.77 0.12,1.13 -0.28,0.62 0.2,0.61 -0.07,0.79 0.65,1.45 -0.36,0.95 0.62,0.91 0.48,2.55 -0.26,-0.38 -1.98,-0.11 -1.15,0.31 -0.76,0.27 -0.41,0.13 -2.16,1.11 -0.72,0.66 -0.25,0.41 -0.62,0.1 -1.18,0.73 -0.55,0.7 -1.17,0.72 -3.07,0.81 -0.06,0.19 -0.77,-0.07 -0.23,0.42 -0.83,-0.08 -0.23,0.39 -0.62,-0.44 -0.26,0.31 -0.73,0.03 -1.85,-1.02 2.42,2.1 -3.72,-2.83 -1.64,-0.85 0.08,-0.26 -0.25,0.18 -1.78,-0.64 -1.55,0.32 -0.66,-0.14 -1.03,0.55 -0.5,-0.01 -1.93,-1.13 -1.7,0.56 -0.81,0.03 -1.98,-0.58 -0.91,-0.61 -0.85,-0.14 -0.39,0.16 -1.42,-0.31 -1.41,0.64 -0.19,0.24 0.03,0.87 -1.78,-0.29 -2.06,0.95 -0.91,-0.13 -0.72,0.23 -0.71,0.72 -0.22,-0.16 -0.73,0.15 -0.35,0.72 -0.6,0.17 -0.18,0.7 -0.31,-0.12 -0.33,0.46 0.08,-0.5 -0.51,-0.77 -0.62,-0.06 -0.07,0.33 -0.33,-0.2 0.54,-0.8 -0.15,-0.19 0.15,-0.27 0.53,-0.55 0.14,-0.96 0.61,-0.53 1.12,-2.27 -0.3,-0.7 0.11,-0.26 -0.26,-0.26 0.64,-0.32 1.14,-2.52 -0.12,-0.98 -0.35,-0.13 0.13,-0.59 -0.16,-0.4 1.01,-1.19 1.04,-2.24 0.26,-1.54 z"
     title="Algarve"
     id="PT-ALG" />
  <path
     d="m 714.28297,50.724249 1.49,-0.39 0.23,0.44 -0.13,0.75 0.68,1.5 0.05,0.9 0.44,0.64 0.5,-0.09 0.63,-0.66 0.31,0.03 -0.29,1.23 -0.62,0.47 0.3,0.7 0.34,0.09 -0.09,0.45 -0.57,0.47 0.17,0.85 0.97,0.5 -0.3,0.42 0.46,0.46 0.31,-0.11 0.23,-0.77 1.82,-0.18 0.12,0.4 0.47,0.14 0.03,-0.26 0.53,-0.33 0.15,-0.73 0.62,-0.06 1.09,0.93 0.62,-0.41 0.34,0.29 0.86,-0.05 0.27,0.62 0.11,-0.63 0.32,-0.24 0.04,-0.5 0.67,-1.03 -0.52,-1.3 0.79,-0.25 0.72,0.57 0.43,0.07 0.78,-0.81 1.08,0.73 0.8,-0.32 0.13,-0.47 -0.2,-0.65 -0.55,-0.64 0.22,-0.9 -0.36,-1.06 1.41,-1.79 0.71,0.24 0.53,-0.13 0.86,0.85 0.89,-0.15 0.18,-0.23 0.68,-0.03 0.7,-1.52 0.7,-0.39 1.39,-0.14 -0.77,1.17 0.81,0.08 0.8,0.44 0.79,0.99 0.38,0 0.8,-0.82 1.06,0.34 -0.18,0.52 0.25,0.71 1.96,0.12 -0.2,1.27 -0.45,0.96 0.72,1.24 0.3,-0.12 0.54,0.2 -0.04,-0.44 1.01,-0.38 0.77,1.39 0.48,0.4 0.25,-1.1 0.72,-0.69 1.35,0.11 0.2,0.41 0.6,0.26 0.44,0.86 0.46,0.25 0.38,0.58 0.5,-0.43 0.99,-2.14 -0.08,-0.26 -0.66,-0.4 0.22,-1.06 0.39,-0.19 0.58,0.54 0.47,0.03 0.58,-0.83 0.76,-0.38 0.24,-1.37 -0.34,-0.4 -1.23,-0.53 -0.07,-0.83 1.08,0.01 0.33,-0.46 0.71,0.29 1.6,-0.08 0.51,0.37 0.67,-1.05 0.52,-0.13 0.69,0.23 0,0 0.55,0.97 0,0 -0.44,-0.04 -0.12,0.3 0.06,0.72 0.47,0.63 -0.51,1.42 1.45,0.53 0.4,-1.07 0.82,-1.05 1.6,0.3 1.23,-0.46 0.49,-0.38 0.51,-1.29 -0.17,-0.34 0.28,-0.35 1.37,0.22 0,0 0.33,1.09 0.47,0.25 1.5,1.92 0.34,1.07 0.01,0.95 0.56,0.68 0.66,0.11 0.25,0.92 0.01,0.6 -0.81,0.15 0.31,1.55 -0.45,2.2 0.2,0.94 0.41,0.53 0.2,2.03 0.31,0.34 -0.5,1.43 -0.83,1.37 -0.19,0.99 1.32,0.76 -0.12,0.52 0.28,1.06 -0.58,0.49 -1.04,2.11 0.36,1.63 1.73,1.83 -0.38,0.4 0.04,1.04 -2.19,1.34 -0.26,1.45 -1.26,0.4 -1.34,-0.14 -0.41,0.83 -0.43,-0.12 -1,0.57 -0.6,1.64 0.38,0.39 0.02,1.4 0.57,1.03 0.75,-0.08 1.15,0.46 0.56,0.88 0.16,0.72 0.75,0.35 -0.1,0.39 0.44,0.39 0.19,0.98 0.39,0.19 -0.65,1.41 -0.06,1.57 -0.61,0.69 0.24,0.76 -0.22,1.43 -0.19,0.4 -0.61,0.36 -0.67,1.14 -0.68,0.04 -0.37,0.44 -0.13,0.76 0.42,0.88 -0.35,0.380001 -0.19,1.64 -0.77,2.16 -1.58,0.5 -1.85,-0.22 -0.71,0.42 -3.26,-0.56 -1.11,0.23 -1.54,0.83 -1.3,-0.4 -0.85,0.19 -1.68,-0.66 -2.65,-0.09 0,0 -0.39,0.29 -0.96,0.01 -0.41,0.31 -0.04,0.4 -1.3,0.73 -0.32,-0.1 -0.73,-0.98 -1.18,0.7 0,0 -0.26,0.31 0.1,0.67 0,0 -0.34,0.62 -1.05,0.23 -0.43,0.9 -0.82,0.8 -0.83,0.23 -0.46,0.95 -0.43,0.25 0,0 -1.91,-1.59 0,0 -0.8,-0.3 0,0 -0.44,0.29 -0.51,-0.13 -0.52,1.53 -0.68,0.76 0.18,0.7 -0.3,0.25 -0.41,-0.26 -0.69,0.4 -0.67,-0.16 0.19,-2.03 -0.82,-1.09 0.03,-1.79 -0.35,-0.08 -0.01,-0.34 -0.37,-0.43 -1.11,0.13 -0.66,-0.61 -1.75,-0.43 -0.53,-0.4 0.33,-2.38 -0.42,-0.1 0.23,-0.77 -0.22,-0.28 0.31,-0.44 -0.48,-1.430001 -0.7,0.420001 -0.55,-0.390001 -0.06,-0.73 -0.66,0.1 -0.86,-0.29 0.18,0.72 -0.15,0.41 0.27,0.570001 -0.25,0.02 -0.49,-0.680001 -1.04,0.920001 -0.44,-0.36 -0.86,0.29 -0.28,0.58 -0.69,0.37 0.06,-0.87 -0.44,-0.840001 0.02,-1.22 -0.51,-1.39 -0.88,0.76 -0.48,-0.38 -0.65,1.09 -1.38,0.92 -1.52,-0.39 -0.98,0.39 -0.42,0.510001 0.07,1.39 0.36,0.28 -0.3,0.11 -0.15,0.45 1.23,0.5 0.16,0.3 -0.28,0.36 -0.13,0.85 -1.73,0.91 0.47,1.13 0.06,1.39 0.45,0.64 -1.32,1.69 -0.67,-0.64 -0.29,0.36 0.45,1.78 -0.11,0.2 -1.23,0.13 -0.55,-0.21 -1.82,0.35 -0.68,-0.13 -0.48,0.13 -0.16,0.28 -0.44,-0.02 0.49,-2.73 0.69,-1.3 -0.59,-0.62 -0.6,0.4 -0.83,-1.51 -0.09,-0.8 0.66,-0.46 0.04,-0.61 -0.13,-0.31 -0.73,-0.49 0.08,-1.16 -0.43,-0.9 -0.58,-0.23 -0.59,0.65 -0.31,-0.02 -1.39,-1.13 0,0 2.63,-6.900001 2.8,-8.29 0.16,-1.07 -0.24,-0.2 -0.02,-0.18 -0.1,-0.59 -1.03,-0.75 -0.05,-0.37 1.01,-2.64 1.53,-5.22 2.38,-9.97 0.12,-0.78 -0.25,-0.32 1.57,-5.6 z"
     title="Centro"
     id="PT-C" />
  <path
     d="m 702.10297,101.24425 1.39,1.13 0.31,0.02 0.59,-0.66 0.58,0.23 0.43,0.9 -0.08,1.17 0.74,0.48 0.13,0.32 -0.04,0.61 -0.66,0.46 0.1,0.8 0.83,1.51 0.6,-0.4 0.59,0.62 -0.7,1.31 -0.49,2.73 0.44,0.02 0.16,-0.28 0.48,-0.13 0.68,0.13 1.82,-0.35 0.55,0.21 1.23,-0.14 0.12,-0.2 -0.45,-1.78 0.29,-0.37 0.67,0.65 1.32,-1.69 -0.44,-0.63 -0.06,-1.39 -0.47,-1.13 1.73,-0.91 0.14,-0.86 0.28,-0.35 -0.17,-0.31 -1.23,-0.49 0.15,-0.46 0.31,-0.11 -0.36,-0.28 -0.07,-1.39 0.42,-0.520001 0.99,-0.39 1.52,0.39 1.38,-0.92 0.65,-1.09 0.48,0.37 0.88,-0.76 0.46,1.41 -0.02,1.22 0.44,0.840001 -0.07,0.87 0.7,-0.38 0.28,-0.58 0.86,-0.29 0.44,0.36 1.03,-0.920001 0.49,0.680001 0.25,-0.02 -0.27,-0.570001 0.15,-0.42 -0.18,-0.72 0.87,0.29 0.66,-0.09 0.06,0.73 0.55,0.390001 0.69,-0.420001 0.48,1.430001 -0.31,0.44 0.21,0.28 -0.23,0.77 0.42,0.1 -0.32,2.38 0.53,0.41 1.75,0.43 0.66,0.6 1.11,-0.13 0.38,0.43 0.01,0.34 0.35,0.08 -0.03,1.8 0.82,1.09 -0.18,2.03 0.66,0.17 0.69,-0.4 0.41,0.26 0.3,-0.25 -0.18,-0.69 0.67,-0.76 0.53,-1.53 0.51,0.13 0.45,-0.29 0,0 0.8,0.29 0,0 1.91,1.6 0,0 -0.47,0.57 -0.42,0.07 0.05,0.49 0.7,0.64 0.59,0.02 0.13,0.58 0.66,0.08 0.08,0.38 0.92,0.71 0.03,0.27 0.3,-0.24 0.66,0.4 -0.5,0.97 0.09,0.23 -4.41,1.99 -1.87,-1.16 -0.36,-0.55 0.06,-0.28 -0.63,-0.02 -0.38,0.65 -0.87,0.18 0.09,0.9 -0.44,0.44 -0.27,0.73 -0.64,0.59 -0.3,0.81 -0.97,0.05 -0.21,-0.43 -0.56,0.05 -0.7,0.78 0.15,0.72 -0.91,0.87 -0.13,0.41 -0.43,0.15 -1.14,1.19 -0.68,0.14 -1.42,0.85 -1.04,1.78 -0.38,0.26 0.26,0.55 1.44,0.66 -0.01,0.83 0.3,0.4 0.39,-0.09 0.29,1.65 0.28,0.06 0.22,0.43 0.54,-0.24 0.24,0.45 -0.67,0.83 0.15,0.63 -0.27,0.79 -0.87,1.3 1.56,0.76 1.31,0.31 0.72,0.5 -0.78,0.68 -0.08,0.47 0.64,0.36 0.24,0.94 0.26,-0.52 0.83,0.62 -0.64,1.17 -0.67,-0.05 -0.35,-0.28 0.07,-0.7 -0.37,-0.05 -0.21,0.31 -0.38,-0.18 0.15,-0.46 -0.67,-0.79 -0.35,0.34 -0.61,0.02 -0.51,-0.42 0.01,-0.42 -0.81,-0.55 -0.25,-0.51 -0.26,0.66 -0.48,-0.18 -0.55,0.69 -1.12,-0.69 -0.38,0.37 0.24,0.25 -0.83,0.68 -0.38,-0.46 -0.28,0.04 -0.46,0.93 -0.87,0.61 -0.91,-0.46 -1,0.94 -0.42,0.84 1.7,0.11 -0.49,0.69 -0.08,0.65 -0.65,1.36 -1.46,0.91 -0.53,0.86 -0.59,0.23 -1.34,1.45 0.48,2.43 -1.23,0.19 -0.77,0.91 -0.83,0.27 0,0 -0.31,-0.26 -0.19,-0.88 -0.62,0.62 -0.73,-0.54 -0.17,0.51 0.47,0.16 -0.27,0.45 -0.85,0.1 0.76,0.05 0.34,-0.25 0.29,0.07 -0.21,0.21 0.71,0.31 -1,0.4 0.27,0.73 -0.28,-0.02 -0.12,0 -0.3,0.02 -0.1,-0.28 0.23,-0.32 -0.37,-0.01 -0.12,-0.01 -2.09,-1.1 -0.69,-0.15 -0.8,0.45 -0.33,0.78 -1.47,0.37 -0.38,0.62 -1.13,0.7 -0.43,-0.02 -0.76,0.45 -1.39,-0.26 -0.14,0.19 -0.04,0.19 -1.77,0.19 -0.75,0.76 -0.84,-0.17 1.08,-2.44 0.17,-2.19 -1.1,-3.48 -1.28,-1.94 0.64,-0.42 1.85,-0.23 1.09,-0.37 -0.05,0.9 1.38,0.66 -0.38,0.18 -0.43,-0.3 -0.14,0.12 0.26,0.23 -0.6,0.06 0.9,0.21 0.26,0.65 0,-0.93 0.43,-0.23 0.52,0.08 0.3,1.07 0.57,0.77 -0.13,-1.05 -0.4,-0.25 0.01,-0.56 -0.81,-0.28 0.01,-0.16 1.02,-0.63 -0.1,-0.24 0.16,-0.11 0.11,0.26 0.45,0 -0.1,-0.32 0.19,-0.02 0.17,-0.03 0.38,-0.02 0.08,0.32 0.2,-0.55 0.52,-0.15 -0.47,-0.11 -0.38,0.33 -0.88,0.02 0.16,-1.06 0.65,-0.36 0.11,-0.29 1.39,-0.6 0.39,-0.42 0.69,-0.02 0.66,-0.33 -0.37,-1.5 -0.63,-1.16 0.42,-0.93 -0.89,0.97 -0.62,-0.86 0.3,-0.56 -0.51,-0.61 0.21,-1.3 -0.17,-0.65 0.49,-0.91 -0.14,-0.13 -1.03,1.7 -0.21,1.1 -0.57,0.86 -0.75,0.44 -0.67,1.35 -0.41,3.14 -0.86,1.36 -3.01,0.78 -0.77,-0.26 -1.21,0.14 -0.98,0.42 -0.31,0.43 -2.1,-1.1 -0.65,-0.04 -0.55,0.46 -1.06,-0.22 -0.78,-0.56 0.4,-0.96 0,-0.64 -0.66,-0.71 -0.19,-0.58 1.56,-3.2 1.11,-3.45 -0.12,-1.65 -0.27,-0.66 0.36,-1.8 -0.16,-1.11 1.97,-3.94 0.6,-2.21 0.11,-2.31 -0.7,-1.59 -0.08,-0.74 -0.34,-0.55 -0.61,0.07 -0.55,-0.35 0.33,-0.37 0.62,0.06 0.25,0.22 0.49,0.12 0.49,-0.3 0.16,-0.23 0.7,-0.25 2.69,-2.3 0.76,-1.51 1,-1.12 0.59,-0.35 0.22,0.02 0.02,0.24 0.28,-0.07 -0.26,-0.67 0.5,-0.26 1.6,-2.41 0.13,-0.46 -0.32,-0.3 -0.01,-0.44 1.35,-5.24 z"
     title="Lisboa"
     id="PT-L" />
  <path
     d="m 486.96297,470.25425 -0.55,0.04 0.11,-0.49 0.42,0.08 0.02,0.37 z m -19.14,-83.03 -0.71,-0.53 -0.26,-0.74 0.04,-0.98 0.22,1.31 0.71,0.94 z m -2.45,-6.31 1.26,1.97 0.27,1.65 -0.81,-1.9 -0.62,-0.47 -0.1,-1.25 z m -20.59,-11.08 0.88,0.1 0.43,0.74 0.84,0.7 0.6,0.01 0.41,0.46 1.22,0.28 1.17,-0.28 0.88,-0.55 1.73,0.12 1.02,-0.42 0.92,1.03 0.58,0.1 -0.12,0.36 0.72,0.43 0.45,0.71 1.05,0.05 0.23,0.3 0.38,-0.06 1.54,0.51 0.94,-0.29 0.33,0.55 -0.41,-0.29 -0.33,0.37 -0.57,-0.17 -0.74,0.3 -0.58,0.69 0.12,0.3 -0.4,0.62 -0.53,0.14 -0.42,0.92 -0.86,0.87 -0.65,0.12 -0.6,-0.29 -1.2,-0.07 -1.17,0.53 -0.43,-0.37 -1.47,-0.47 -0.61,0.03 -1.3,-0.48 -0.3,-0.31 -0.95,-0.07 -0.88,-0.8 -2.56,-1.37 -1.05,-1.39 -0.05,-0.79 -0.59,-0.74 2.33,-2.13 z m 25.59,-5.32 0.01,0.58 -0.41,-0.36 0.33,-0.58 0.07,0.36 z m 1.92,-3.52 0.49,0.31 0.34,-0.11 0.07,1.5 -1,-0.06 -1.83,1.41 -0.51,-0.59 0.28,-0.08 0.41,-0.66 -0.01,-0.62 0.73,-0.64 1.03,-0.46 z"
     title="Madeira"
     id="PT-M" />
  <path
     d="m 728.95297,1.6242488 0.24,2.79 0.25,0.05 0.68,-0.51 1.24,-0.06 0.52,0.36 0.41,1 -0.13,1.37 -1.29,0.43 -1.04,1.01 -0.41,1.1 -0.63,0.61 -0.66,1.2800002 0.06,0.49 0.46,0.6 -0.06,0.5 0.99,-0.12 0.26,0.86 -0.07,1.52 1.17,0.41 2.28,-0.32 0.56,-0.56 0.76,-0.04 0.3,-0.73 0.84,-1.03 0.93,0.07 0.86,-0.29 0.52,-2.05 0.63,0.2 -0.18,2.56 0.39,0.46 0.49,-0.42 0.51,-0.11 0.06,-0.48 0.31,-0.2 1.43,-0.16 0.99,-0.65 0.66,0.26 1.16,-0.62 1.33,1.03 2.36,0.16 -0.53,0.48 -0.35,1.6 1.37,-0.08 1.31,-0.37 0.63,-0.4 -0.12,-0.64 0.59,-0.25 0.32,0.35 1.05,0.05 0.06,0.76 0.6,0.55 0.02,0.88 0.91,-0.79 0.22,-0.56 0.77,-0.47 0.32,0.44 1.32,-0.09 2.05,-1 0.57,-0.04 0.63,-0.47 0.43,-0.02 0.67,-1.64 -0.41,-0.9600002 0.2,-0.5 -0.19,-0.15 0.04,-0.52 0.28,-0.45 0.67,0.11 0.51,-0.54 1.66,0.69 0.34,0.88 0.28,0.19 0.54,0.01 0.26,-0.3 1.14,0.24 0.29,-0.54 0.62,-0.46 0.68,0.3 0.42,0.94 1.64,0.2 0.8,-0.33 1.24,0.15 0.8,-1.98 0.92,0.22 0.69,1.75 0.71,0.28 1.04,0.1900002 2.41,-0.3000002 0.61,-0.31 0.4,-0.81 1.18,0.95 0.18,0.5300002 -0.8,1.98 1.75,0.63 -0.27,0.43 -0.22,1.07 0.12,0.63 -0.25,0.09 -0.3,1.66 -0.34,1 -0.39,0.38 0.39,0.29 -0.05,0.44 0.27,0.14 -0.17,0.25 0.36,0.73 -0.09,0.2 -0.26,-0.1 0.12,0.54 1.57,1.23 1.32,-0.46 0.44,-0.68 2.08,0.44 0.79,-0.05 1.27,0.48 1.75,1.24 0.72,1.2 0.92,0.39 0.41,0.91 -0.65,0.7 -0.76,1.5 -0.64,0.35 0.15,0.64 -0.44,0.06 0.05,0.4 -0.6,0.31 -0.08,0.5 -0.64,0.74 0.28,0.69 -0.48,0.63 -0.69,0.34 0.47,0.52 0.03,0.47 -1.09,0.35 -0.52,-0.62 -0.68,0.36 -0.09,0.65 0.5,0.42 -0.44,0.35 -0.75,0.12 -0.37,0.56 0.24,0.33 -0.53,0.35 -0.05,0.5 -0.29,0.26 -0.75,-0.02 -0.55,0.41 -0.1,0.26 0.39,0.34 -0.44,0.34 -0.59,0.16 -0.33,-0.45 -0.76,0.7 -0.18,0.53 -0.69,0.3 -0.3,-0.07 -0.23,-0.61 -0.3,0.46 -0.23,-0.21 -0.69,0.26 -0.62,-0.17 -0.13,0.48 -1.2,1.1 0.08,0.38 -0.34,0.35 0.02,0.42 -2.22,2.06 -0.06,0.31 0.48,0.99 -1.04,1.77 -0.65,0.63 0.03,0.32 -1.62,0.4 -1.73,-0.47 -0.52,0.38 0,0 -1.36,-0.22 -0.28,0.35 0.17,0.35 -0.52,1.28 -0.49,0.38 -1.23,0.47 -1.59,-0.3 -0.83,1.05 -0.4,1.07 -1.45,-0.53 0.51,-1.42 -0.47,-0.62 -0.06,-0.72 0.13,-0.3 0.44,0.04 0,0 -0.55,-0.97 0,0 -0.69,-0.22 -0.52,0.13 -0.68,1.05 -0.5,-0.37 -1.6,0.09 -0.71,-0.3 -0.33,0.46 -1.08,-0.01 0.07,0.83 1.23,0.53 0.34,0.4 -0.25,1.37 -0.75,0.38 -0.58,0.82 -0.47,-0.03 -0.58,-0.54 -0.39,0.19 -0.23,1.06 0.67,0.4 0.07,0.26 -0.98,2.14 -0.5,0.42 -0.39,-0.58 -0.46,-0.24 -0.44,-0.86 -0.6,-0.26 -0.2,-0.41 -1.35,-0.11 -0.71,0.69 -0.25,1.09 -0.48,-0.4 -0.77,-1.39 -1.01,0.38 0.03,0.44 -0.53,-0.2 -0.31,0.12 -0.72,-1.24 0.46,-0.96 0.2,-1.27 -1.96,-0.12 -0.26,-0.71 0.19,-0.52 -1.07,-0.33 -0.8,0.82 -0.38,0 -0.79,-0.99 -0.8,-0.44 -0.81,-0.08 0.77,-1.17 -1.39,0.13 -0.7,0.39 -0.69,1.53 -0.68,0.03 -0.19,0.23 -0.89,0.15 -0.86,-0.85 -0.52,0.13 -0.71,-0.25 -1.42,1.8 0.36,1.06 -0.22,0.9 0.55,0.64 0.2,0.65 -0.13,0.47 -0.8,0.32 -1.08,-0.74 -0.78,0.82 -0.43,-0.07 -0.72,-0.57 -0.79,0.25 0.52,1.3 -0.67,1.03 -0.04,0.5 -0.32,0.24 -0.11,0.63 -0.27,-0.62 -0.86,0.05 -0.34,-0.29 -0.62,0.41 -1.09,-0.93 -0.62,0.05 -0.14,0.73 -0.53,0.33 -0.02,0.26 -0.47,-0.13 -0.12,-0.4 -1.82,0.18 -0.24,0.77 -0.31,0.1 -0.46,-0.46 0.3,-0.42 -0.97,-0.49 -0.17,-0.85 0.57,-0.47 0.09,-0.46 -0.33,-0.08 -0.31,-0.7 0.62,-0.48 0.29,-1.23 -0.31,-0.02 -0.63,0.66 -0.5,0.09 -0.44,-0.64 -0.05,-0.91 -0.68,-1.49 0.13,-0.75 -0.23,-0.44 -1.52,0.35 0,0 0.32,-2.27 -0.4,-1.35 -0.38,-3.73 -0.56,-0.75 -0.15,-0.66 -0.4,-0.08 -0.1,0.16 -0.2,-0.2 0.22,-0.47 -0.69,-2.22 0.13,-0.67 -0.52,-2.16 0.03,-1.02 -0.44,-0.33 -0.4,-1.19 -0.07,-0.36 -0.61,-1.45 0.37,-2.69 -0.42,-0.98 -0.17,-2.26 -0.99,-3.91 0.01,-0.95 -0.25,-0.36 -0.39,0.17 -1.04,-3.06 0.15,-2.1 0.28,-0.61 -0.35,-1 0.18,-1.24 0.82,-0.78 0.72,-1.19 1.19,-0.29 1,-0.8500002 0.34,-1.24 2.4,-1.44 0.26,-1.18 0.78,-0.83 0.96,-0.27 1.77,0.04 0.62,-0.35 -0.04,-0.5 0.2,-0.2 2.43,-0.11 0.6,0.42 0.76,-0.35 0.57,0.17 0.58,-0.58 1.01,0.25 0.43,-0.81 0.56,-0.07 0.86,-0.78 0.48,0.07 0.38,-0.73 0.73,0.25 0.62,-0.44 0.2,-0.47 0.28,0.9 z"
     title="Norte"
     id="PT-N" />
</svg>
