<?xml version="1.0" encoding="UTF-8" standalone="no"?>
<!-- Created for MapSVG plugin: http://mapsvg.com -->
<svg
   xmlns:mapsvg="http://mapsvg.com"
   xmlns:dc="http://purl.org/dc/elements/1.1/"
   xmlns:rdf="http://www.w3.org/1999/02/22-rdf-syntax-ns#"
   xmlns:svg="http://www.w3.org/2000/svg"
   xmlns="http://www.w3.org/2000/svg"
   mapsvg:geoViewBox="-31.270171 42.155925 -6.187163 32.400528"
   width="792.6142"
   height="387.41196">
  
  <path
     d="m 714.77803,48.33988 1.23,-0.41 0.14,0.72 1.4,-0.29 0.91,-1.04 0.42,1.03 0.65,0.22 0.09,-0.5 0.79,-0.33 -0.82,-0.39 0.2,-0.55 0.93,0.43 0.25,-0.46 0.59,1.29 1.29,0.88 0.19,-0.9 -0.55,-0.38 0.06,-0.84 1.62,0.49 1.68,-1.65 0.95,0.6 0,0 0.85,0.34 0.2,1.26 -0.32,0.09 0.2,0.56 0.96,0.07 -0.28,0.67 0.59,-0.17 1.92,0.82 1.09,-1.45 0.25,0.19 0.06,0.89 -1.37,1.65 0.15,2.07 0.79,1.3 -0.84,0.75 -1.19,-0.72 -0.73,0.83 -1.28,-0.77 -0.76,0.37 0.57,1.27 -1.13,2.85 -1.88,0.71 0.19,1.19 0.92,0.75 0.08,2.41 1.55,0.78 -1.99,0.83 0.74,2.38 1.1,1.16 -2.7,1.04 0.57,1.85 -1.18,1.34 -0.04,1.72 0,0 -0.05,0.82 -0.55,0.25 -0.94,-0.44 -0.14,1.16 -1.24,0.26 -0.18,1.58 -1.07,-0.54 -1.12,0.07 -0.2,-1.04 1.42,0.01 0.12,-2.9 -0.74,-0.59 0,-0.92 -2.14,0.91 -0.07,-2.67 -0.29,-0.59 -0.98,-0.27 -0.53,0.82 -0.11,1.63 -0.88,-0.09 0,0 -1.23,-1.27 0,0 -2.6,-2.53 0,0 1.01,-4.22 0.07,-0.74 -0.44,-0.14 2.58,-8.59 1.19,-6.92 z"
     title="Aveiro"
     id="PT-01" />
  <path
     d="m 729.94803,158.52988 0.39,-0.38 0.66,0.66 2.4,-0.62 1.44,1.16 0.89,-0.75 4.5,2.66 2.52,0.21 2.83,1.85 1.09,-0.37 1.44,0.23 0.7,0.6 2.19,0.01 0.06,-0.73 1.01,-0.41 0,0 0.82,-1.04 0,0 0.18,-0.7 0.73,-0.27 0.39,-0.92 -0.31,-0.33 1.61,-0.04 0.59,-0.86 1.57,-0.41 1.36,2.72 1.71,0.67 -0.28,0.9 1.24,2.57 0.3,0.12 -0.06,-0.67 0.69,0.08 0,0 0.71,-0.66 0,0 0,0 0,0 0.74,0.75 0.57,-0.69 0.22,0.35 0.97,-0.19 0.55,-0.88 0.97,-0.27 0.27,0.37 1.14,-0.72 0.06,0.73 -1.11,1.42 0.53,0.55 -0.58,1.68 -0.54,0.34 -0.45,3.18 -1.41,0.33 -1.64,-1.18 -0.94,0.57 0.24,0.99 -1.66,0.47 -0.91,-0.42 -1.91,0.94 0.45,1 -0.21,1.28 -0.86,1 -0.04,1.14 -1.29,2.12 -2.28,2.06 -0.78,0.2 -0.84,2.45 0.14,1.3 -0.39,0.1 0.04,0.62 -0.4,-0.12 -0.68,1.81 -0.48,-0.04 -0.09,1.91 -0.5,0.04 0.32,1.17 0,0 -1.95,-0.11 -1.39,1.47 -1.81,-0.55 -2.47,1.03 -0.36,-0.31 0.06,0.34 -1.55,0.92 -0.33,-0.25 -0.32,0.55 -0.63,-0.03 -0.1,0.46 -1.12,0.11 0.02,0.77 -0.36,-0.09 -0.17,0.52 -0.53,-0.37 -0.48,0.4 -1.34,-0.13 -0.78,1.17 0.51,0.57 -1.16,0.32 -1.21,1.42 -3.88,-0.9 -1.9,-1.71 -0.83,-0.08 0.32,-0.82 -0.4,-0.69 -1.34,-0.54 -0.29,0.61 -0.24,-0.38 -2.57,0.54 -0.12,1 -0.92,0.69 -2.02,-0.08 -1.74,-1.29 -1.45,0.37 -0.74,1.04 -0.78,-1 -2.19,0.22 -0.51,-1.45 -1.47,-0.44 0,0 0.33,-3.56 -1.07,-2.64 1.06,-4.55 -0.84,-1.39 0.62,-2.81 0,0 0.53,0.58 1.29,-0.39 1.64,2.44 0.71,-0.6 1.38,0.76 0.33,-0.43 0.62,0.13 0.11,-1.69 0.55,-0.77 0.54,0.11 -0.07,-1.25 0.44,-0.24 3.06,-0.27 0.19,-0.43 3.28,0.95 -0.14,-0.77 1.13,-1.3 -0.31,-0.5 0.49,-3.26 -0.8,-1.31 -1.42,0.17 -1.44,-2.03 0.66,-1.69 0.8,0.45 0.24,-1.39 0.55,-0.1 0.15,-0.57 0.72,0.69 0.62,-0.04 0.21,-1.9 1.41,0.29 0.61,-0.93 2.86,-0.86 0.01,-1.69 z"
     title="Beja"
     id="PT-02" />
  <path
     d="m 733.52803,14.62988 -0.34,2.48 -0.83,2.02 -0.99,0.99 2.6,-0.49 1.52,0.67 -0.26,3.43 3.66,0.65 0.96,-1.14 1.27,1.76 -0.31,0.72 -0.59,0.12 0.07,0.71 -0.85,0.5 0.08,0.53 -1.01,-0.07 -0.29,1.02 -1.12,0.48 -0.1,1.98 -1.26,1.5 0.43,0.12 -0.21,0.71 0,0 -0.46,1.17 -1.33,1.19 -1.09,-1.02 -0.67,0.58 -1.05,-0.58 -0.84,-0.72 0.21,-0.73 -0.6,-0.14 -0.22,-0.81 -1.51,-0.48 -0.28,0.77 -0.75,-0.03 -1,1.04 -0.3,1.19 -0.92,-0.43 -0.3,-1.07 -2.15,0.63 0.31,-0.8 -0.48,-0.14 -1.01,0.89 -0.77,-0.53 -1.44,0.3 -0.54,0.95 -2.91,0.2 0,0 -0.4,-1.75 0.41,-0.36 0,0 0.62,-0.37 -0.46,-0.52 -1.42,-0.3 -0.62,-1.07 -0.98,0.13 -1.42,-1.11 -0.93,-0.11 0,0 -1.09,-5.93 0,0 1.67,-0.09 1.9,-1.11 1.03,-0.07 0.41,0.47 0.25,-0.98 1.23,0.85 0.85,-0.36 0.46,0.81 0.7,-0.32 -0.21,-1.35 0.81,-0.68 0.1,-1.96 0.53,-0.53 0.46,-0.05 0.04,0.53 0.77,-0.22 1.17,-1.05 1.56,-0.55 0.77,0.44 1.39,-0.06 0.39,-0.83 0.71,0.41 2.39,-1.74 0.91,0.21 0.07,-0.45 0,0 2.25,0.43 z"
     title="Braga"
     id="PT-03" />
  <path
     d="m 773.03803,7.44988 0.99,0.22 0.57,1.71 0.76,0.28 3.32,-0.12 1.05,-1.17 1.22,0.97 -0.68,2.58 1.75,0.5 -0.88,3.94 -0.8,1.47 0.41,0.26 0.45,2.4 1.33,0.98 1.33,-0.4 0.41,-0.77 4.49,0.97 1.51,1.22 0.59,1.09 1.08,0.52 0.39,0.84 -1.51,2.24 -0.66,0.31 0.22,0.58 -0.47,0.08 0.13,0.49 -0.71,0.32 -0.67,1.23 0.17,0.88 -1.05,0.77 0.49,1.04 -1.1,0.31 -0.44,-0.64 -0.73,0.37 -0.12,0.62 0.52,0.44 -1.21,0.48 -0.71,1.79 -1.55,0.58 0.27,0.65 -0.57,0.41 -0.83,-0.4 -1.54,1.53 -0.64,-0.68 -0.26,0.49 -1.53,-0.17 -1.36,1.59 -0.56,1.55 -1.86,1.58 0.44,1.28 -1.73,2.82 -1.88,0.4 -1.51,-0.48 -0.48,0.38 0,0 -1.19,-0.29 -0.72,0.47 -0.19,-0.49 -1.44,-0.31 -0.47,-0.78 -1.37,-0.73 -0.02,-1.01 0.59,-0.89 -1.47,-0.49 0.49,-0.55 -0.08,-1.19 -1.47,2.22 -2.71,-0.79 -1.73,0.23 0,0 -1.68,-0.35 -1.04,-1.98 -1.31,-0.65 0,0 0.56,-1.57 0.85,0.16 -0.13,-1.73 0.93,-0.76 -0.42,-0.44 0.61,-0.7 1.31,-0.3 -1.48,-1.11 0.28,-0.49 -0.45,-1.62 0,0 0.05,-1.06 0,0 2.11,-1.01 -0.1,-0.97 0.56,-1.18 1.73,-0.3 -0.93,-1.7 -0.01,-1.18 1.58,-5.09 1.16,-1.37 0.03,-1.06 -0.72,-0.52 0,0 -0.52,-1.34 0,0 0.31,-2.77 0,0 0.86,-1.67 -0.51,-0.95 0.13,-1.3 1.39,-0.78 1.7,0.73 0.49,1 2.08,-0.03 0.85,-0.99 0.68,0.21 0.42,1.03 1.65,0.2 2.23,-0.26 0.32,-1.97 z"
     title="Bragança"
     id="PT-04" />
  <path
     d="m 742.01803,80.91988 1.53,-0.29 0.76,-0.99 1.7,-0.53 1.17,-1.07 0.32,-0.99 0.87,0.51 1.39,-0.27 0.7,-2.1 0.88,-1.08 0.8,-0.29 0.46,0.62 0.68,-0.21 0.99,0.46 1.1,-0.48 0.46,0.44 0.55,-1.2 0.66,0.31 0.43,-0.53 0.71,0.34 -0.1,2.5 -1.04,1.79 -0.82,0.42 0.43,0.54 2.49,0.92 0.87,-1.14 1.62,0.72 0.8,-0.59 0.17,-1.21 0.59,-0.51 0.89,1.9 1.67,0.01 0.53,-0.49 1.98,1.35 0,0 -0.38,0.79 -1.56,0.53 -0.54,1.61 0.42,0.41 -0.15,1.34 0.89,1.29 1.65,0 0.75,1.91 0.78,0.24 0.9,1.98 -0.72,1.34 0.06,1.59 -0.69,0.69 0.1,2.18 -1.42,1.77 -1.22,0.71 0.33,1.54 -1.23,4.17 -4.29,0.71 -3.16,-0.56 -2.59,1.06 -3.85,-0.88 -2.72,-0.05 0,0 -1.29,0.25 -1.74,1.42 -1.08,-1.07 -1,0.51 -0.6,1.77 -1.03,0.2 -0.47,0.98 -1.74,1.1 0,0 0.46,-1.35 0,0 -0.38,-0.76 0,0 -1.33,-2.01 -0.87,-0.21 -0.71,-1.03 -1.36,0.29 0.13,-2.26 -0.52,-1.17 -0.64,0.69 -0.51,-0.62 -0.97,-0.17 -0.55,0.49 -0.11,2.61 -0.6,0.54 0.69,1.69 -2.51,0.25 -3.21,-1.38 0.23,-4.42 -0.44,-1.05 -0.71,0.41 -0.62,-1.07 0,0 0,-0.03 0,0 -0.25,-0.53 0.66,-0.44 -0.1,-0.94 1.51,-0.56 0.55,0.21 0.75,-1.25 0.56,0.25 0.61,-0.41 0.96,-2 0,0 0.12,-0.6 1.02,0.07 -0.11,-0.75 0.64,0.44 0.3,-0.62 0.74,0.37 0.05,-0.99 0.45,0.56 0.38,-0.06 -0.27,-0.69 0.51,0.46 0.64,-0.45 0.44,0.49 0.33,-1.04 1.61,-0.01 -0.44,-1.23 1.63,-1.04 1.24,0.3 0.53,0.62 0.06,-1.42 0,0 0.31,-0.29 -0.66,0.03 0,0 0.96,-0.38 0.43,0.89 0.96,-1.15 -0.27,-0.32 0.62,-0.25 -0.14,-0.76 -1.9,-1.52 -0.4,-0.84 z"
     title="Castelo Branco"
     id="PT-05" />
  <path
     d="m 710.37803,68.91988 2.6,2.53 0,0 1.23,1.27 0,0 0.88,0.09 0.11,-1.63 0.53,-0.82 0.97,0.27 0.29,0.59 0.08,2.67 2.13,-0.91 0,0.92 0.74,0.59 -0.11,2.9 -1.42,-0.01 0.2,1.04 1.12,-0.07 1.06,0.54 0.18,-1.58 1.24,-0.27 0.14,-1.16 0.94,0.44 0.55,-0.25 0.05,-0.82 0,0 0.42,-0.11 0.44,0.63 0.93,-0.14 1.54,1.44 1.83,-0.83 0.25,0.4 0.45,-0.47 1.16,0.49 2.89,-2.16 2.17,-0.81 2.83,-2.81 1.76,-1.05 0,0 0.04,0.69 0.96,1.01 -0.44,0.74 -1.18,0.44 0.09,0.61 0.58,0.45 0.94,-0.08 -0.25,2.3 1.48,0.73 -0.23,0.63 -1.23,0.36 -0.68,1.73 1.38,1.48 0,0 -0.85,1.98 0.4,0.84 1.9,1.52 0.14,0.76 -0.62,0.25 0.27,0.32 -0.96,1.15 -0.43,-0.89 -0.96,0.38 0,0 0.66,-0.03 -0.31,0.29 0,0 -0.06,1.42 -0.53,-0.62 -1.24,-0.3 -1.63,1.04 0.44,1.23 -1.61,0.01 -0.33,1.04 -0.44,-0.49 -0.64,0.45 -0.51,-0.46 0.27,0.69 -0.38,0.06 -0.45,-0.56 -0.05,0.99 -0.74,-0.37 -0.3,0.62 -0.64,-0.44 0.11,0.75 -1.02,-0.07 -0.12,0.6 0,0 -0.43,-0.24 0.71,-1.3 -1.45,-2.07 0.38,-2.09 -1.11,-0.69 -0.97,1.54 -1.03,-0.62 -1.06,0.9 -0.7,1.48 0.87,0.83 -0.28,1.22 -1.09,-1.2 -1.89,2.66 -1.11,-0.33 0.92,-0.97 -1.46,-2.92 -0.34,0.44 0.31,0.75 -0.96,-0.83 -1.05,1.3 -1,0.07 -0.52,1.46 -0.73,-3.25 -0.94,0.02 -0.74,1.45 -0.88,0.08 0.06,-0.85 -1.09,-0.78 -2.87,-0.45 -1.08,1.17 -1.23,-0.66 -0.92,0.21 -0.8,-0.86 0,0 1.02,-3.83 -1.51,-2.06 2.05,-5.9 z"
     title="Coimbra"
     id="PT-06" />
  <path
     d="m 727.94803,131.64988 0.29,0.37 1.38,-1.72 0.36,0.23 0.36,-0.48 0.61,0.6 0.06,-0.44 0.85,0.01 0.17,0.4 -0.69,0.36 0.55,1.41 0.5,-0.29 0.03,-1.21 0.5,-0.39 1.79,1.39 -0.27,1.64 1.12,-0.14 1.96,-1.23 0.94,1.75 0.57,0.21 0.03,0.72 2.72,0.51 0.14,-0.46 1.05,-0.04 0.61,-1.25 1.1,1.08 0.46,-0.69 1.45,0.73 1.05,-1.71 1.25,0.05 0.71,-0.63 -0.34,-0.99 0.62,-0.64 0.65,0.91 0.87,-0.08 -0.09,0.5 1.11,0.45 -0.42,1.55 1.37,0.91 -0.15,1.07 0.73,1.14 -0.62,0.03 0.6,0.45 0.43,1.43 0.73,-0.4 0.42,0.55 0.85,-0.25 0.08,-0.86 0.6,-0.21 0,0 0.38,-0.41 0,0 0.47,0.52 1.1,-0.81 0.58,0.77 0.6,-0.1 -0.79,1.96 0.91,1.26 0,0 -1.77,1.12 -0.4,3.43 0.91,0.58 -2.24,4.43 -0.22,1.43 0.67,-0.18 0.05,0.53 -1.17,1.36 0.59,-0.18 1.18,0.83 0.26,1 3.21,4.63 0.61,0.14 1.35,3.51 0,0 0,0 0,0 -0.71,0.66 0,0 -0.69,-0.08 0.06,0.67 -0.3,-0.12 -1.24,-2.57 0.28,-0.9 -1.71,-0.67 -1.36,-2.72 -1.57,0.41 -0.59,0.86 -1.61,0.04 0.31,0.33 -0.39,0.92 -0.73,0.27 -0.18,0.7 0,0 -0.82,1.04 0,0 -1.01,0.41 -0.06,0.73 -2.19,-0.01 -0.7,-0.6 -1.44,-0.23 -1.09,0.37 -2.83,-1.85 -2.52,-0.21 -4.5,-2.66 -0.89,0.75 -1.44,-1.16 -2.4,0.62 -0.66,-0.66 -0.39,0.38 0,0 -1.05,-0.91 -2.26,-0.44 -0.25,-0.72 -1.43,-0.03 1.22,-1.6 -0.57,-0.49 0.57,-0.06 -0.24,-0.53 -1,0.09 0.4,-0.87 -1.85,-3.51 -1.71,1 -0.71,-0.26 -0.96,0.43 -0.9,-1.24 -0.49,0.19 0.44,0.95 -0.71,0.32 -0.12,-0.68 -1.27,-0.14 -0.08,-0.66 -2.02,-0.06 -0.45,-2.52 4.81,-4.16 -0.31,-0.82 0.63,-1.03 -1.76,-0.09 0,0 1.46,-1.77 0.95,0.5 1.27,-1.58 0.35,-0.14 0.32,0.59 0.99,-1.35 1.14,0.71 0.64,-0.82 0.35,0.58 0.29,-0.93 1.28,0.99 -0.21,0.33 0.51,0.67 0.9,-0.44 0.79,0.87 -0.24,0.35 0.99,-0.07 -0.13,0.51 1.14,0.62 0.51,-1.23 -0.79,-0.66 -0.3,0.53 -0.2,-0.87 -0.67,-0.37 0.91,-1.17 -0.73,-0.53 -0.82,0.2 -0.08,-0.41 -1.95,-0.92 0.93,-1.24 0,-1.43 z"
     title=" Évora"
     id="PT-07" />
  <path
     d="m 740.65803,210.78988 0.55,0.1 -1.95,1.54 0.45,-1.02 0.95,-0.62 z m -3.7,-0.07 2.27,1.68 -1.73,-0.23 -1.68,-1.24 1.14,-0.21 z m 3.92,-0.63 0.37,0.36 -1.61,0.47 1.24,-0.83 z m -13.05,-2.4 -2.1,0.43 -2.13,-1.16 -2.25,0.64 -3.12,-1.28 -2.55,-0.2 -1.53,0.64 -0.09,1.1 -1.87,-0.3 -1.93,0.93 -1.64,0.09 -0.75,0.73 -0.96,-0.02 -1.69,1.93 -0.5,-1.25 -1.05,0.11 2.95,-5.64 -0.47,-1.23 0.71,-0.4 1.12,-2.47 -0.56,-2.06 1.05,-1.23 1.53,-3.6 0,0 1.47,0.44 0.51,1.45 2.19,-0.22 0.78,1 0.74,-1.04 1.45,-0.37 1.73,1.29 2.02,0.09 0.92,-0.69 0.12,-1 2.57,-0.54 0.24,0.38 0.29,-0.61 1.33,0.54 0.41,0.69 -0.32,0.82 0.83,0.08 1.91,1.71 3.87,0.89 1.21,-1.41 1.16,-0.33 -0.51,-0.57 0.78,-1.17 1.35,0.13 0.47,-0.4 0.53,0.38 0.17,-0.52 0.37,0.09 -0.02,-0.77 1.13,-0.11 0.09,-0.46 0.64,0.03 0.32,-0.55 0.33,0.26 1.55,-0.92 -0.06,-0.34 0.36,0.31 2.48,-1.03 1.8,0.56 1.4,-1.48 1.95,0.11 0,0 0.64,0.16 0.25,0.95 0.64,0.44 -0.16,0.74 0.74,1.95 -0.54,0.41 0.7,0.71 -0.05,3.15 0.65,1.48 -0.38,0.94 0.64,0.98 0.19,2.12 -1.64,-0.22 -3.2,1.01 -7.37,5.39 -1.02,-0.48 -1.39,0.82 0.01,0.84 -0.46,0.15 -1.78,-1.13 -1.33,0.25 -4.04,-2.62 -2.27,-0.8 -1.56,0.28 z"
     title="Faro"
     id="PT-08" />
  <path
     d="m 753.52803,52.25988 1.23,0.85 -0.62,0.88 -1.01,-0.59 0.4,-1.14 z m 3.58,-9.08 1.74,-0.23 2.7,0.79 1.47,-2.22 0.09,1.19 -0.49,0.55 1.46,0.49 -0.59,0.89 0.02,1.02 1.37,0.72 0.47,0.78 1.44,0.32 0.19,0.49 0.73,-0.47 1.19,0.29 0,0 0.31,1.12 1.97,2.2 0.32,1.96 1.27,0.85 0.23,0.9 0,0.63 -0.79,0.22 0.32,1.8 -0.45,1.84 1.17,3.8 -1.62,3.95 1.41,0.65 0.18,1.61 -1.72,2.48 0.48,1.81 1.69,1.78 -0.41,1.49 -2.12,1.19 -0.3,1.53 -2.54,0.2 0,0 -1.98,-1.34 -0.52,0.49 -1.68,-0.01 -0.89,-1.9 -0.6,0.51 -0.17,1.21 -0.8,0.59 -1.61,-0.72 -0.87,1.14 -2.49,-0.92 -0.43,-0.55 0.82,-0.42 1.04,-1.79 0.1,-2.5 -0.71,-0.33 -0.44,0.52 -0.66,-0.3 -0.55,1.19 -0.46,-0.43 -1.1,0.48 -0.98,-0.47 -0.68,0.21 -0.45,-0.62 -0.8,0.29 -0.88,1.07 -0.7,2.1 -1.39,0.27 -0.87,-0.51 -0.31,0.98 -1.18,1.08 -1.7,0.53 -0.76,0.99 -1.54,0.29 0,0 -1.37,-1.48 0.68,-1.72 1.23,-0.36 0.23,-0.63 -1.48,-0.72 0.25,-2.3 -0.94,0.08 -0.58,-0.45 -0.1,-0.61 1.18,-0.43 0.44,-0.75 -0.96,-1.01 -0.03,-0.69 0,0 5.14,-2.53 2.67,-0.57 -0.26,-0.5 0.73,-2.48 0.75,-0.58 -0.29,-0.73 0.51,-0.55 -1.76,-0.98 -0.18,-0.62 0.82,-0.85 -1.81,-1.34 1.33,-2.96 0.79,-0.82 1.49,0.12 1.91,2.37 1.59,-2.75 0.74,0.41 0.18,-1.82 0,0 1.2,-0.9 0,0 0.35,-1.58 -1.69,-0.8 -0.01,-0.92 1.31,-0.04 -0.26,-1.34 1.25,-3.92 z"
     title="Guarda"
     id="PT-09" />
  <path
     d="m 713.46803,107.60988 0,0 0,0 0.48,0.63 -0.77,1.27 -0.6,0.47 -0.61,-0.63 -0.4,0.3 0.55,1.99 -2.31,-0.12 -3.19,0.69 -1.33,3.05 -0.72,-0.13 -0.7,0.72 -0.11,3.25 0,0 -1.01,0.14 -0.41,-0.69 -0.85,0.02 -0.18,0.42 0,0 -1.15,0.95 0,0 -1.08,1.9 -1.11,0.72 -0.77,-1.47 0.49,-0.86 -0.42,-1.36 -1.42,-0.1 -0.32,-0.52 -1.3,1.39 -1.4,-0.34 0,0 -0.76,-2.32 -1.39,-0.44 0.39,-0.44 1.59,0.29 3.33,-2.53 0.93,0.76 -0.36,0.26 1.25,-0.04 -0.55,-0.07 -0.83,-1.33 1.77,-2.64 1.08,-0.15 -0.26,-0.7 2.19,-2.7 0.05,-0.59 -0.39,-0.08 1.14,-4.73 4.95,-13.29 0,0 0.8,0.86 0.92,-0.21 1.24,0.66 1.07,-1.16 2.87,0.44 1.09,0.78 -0.05,0.85 0.88,-0.08 0.74,-1.45 0.94,-0.01 0.72,3.25 0.52,-1.46 1,-0.06 1.05,-1.3 0.96,0.83 -0.31,-0.75 0.34,-0.44 1.46,2.92 -0.91,0.97 1.11,0.33 1.89,-2.66 1.09,1.2 0.28,-1.21 -0.86,-0.83 0.7,-1.48 1.06,-0.9 1.03,0.63 0.97,-1.55 1.12,0.7 -0.39,2.09 1.45,2.07 -0.71,1.3 0.44,0.24 0,0 -0.96,2 -0.61,0.42 -0.56,-0.25 -0.75,1.25 -0.55,-0.21 -1.51,0.56 0.1,0.94 -0.66,0.44 0.25,0.53 0,0 0,0 0,0 -1.49,-0.28 0.11,1.67 -0.5,-0.51 -1.1,0.92 -0.76,-0.34 -1.54,1.2 -0.77,-4.39 -0.91,0.94 -0.43,-0.53 -0.69,1.08 -1.62,1.02 -1.33,-0.53 -1.31,0.66 -0.13,1.11 0.52,0.89 -0.47,0.66 1.43,0.6 -0.49,1.37 -1.67,0.92 0.4,2.34 z"
     title="Leiria"
     id="PT-10" />
  <path
     d="m 698.98803,143.04988 -2.24,0.55 -2.05,-0.29 -1.35,1.03 -2.16,-1.16 -1.09,0.51 -1.88,-0.76 0.45,-1.68 -0.9,-1.24 2.6,-6.54 0.25,0.18 -0.55,-2.59 0.18,-2.93 2.41,-5.21 0.14,-3.6 0,0 1.4,0.34 1.31,-1.39 0.32,0.52 1.42,0.11 0.43,1.36 -0.48,0.86 0.77,1.47 1.11,-0.72 1.08,-1.9 0,0 1.15,-0.95 0,0 0.19,-0.42 0.85,-0.02 0.41,0.69 1.01,-0.14 0,0 0.61,0.39 -0.19,1.52 0.59,-0.23 1.61,0.83 1.15,-0.64 0.42,0.83 0.93,0.29 0.2,1.51 -1.7,-0.02 -1.03,0.59 1.44,1.77 2.19,1.3 0.51,1.54 -1.32,1.23 -1.16,-0.03 0.6,0.48 -1.13,1.9 0.84,0.29 -1.28,0.74 -0.63,2.27 -1.82,2.5 0,0 -0.66,-1.03 0.36,-0.62 -0.52,-0.66 -0.02,-2.33 -0.77,2.15 -2.05,2.76 -0.57,3.53 -1.38,1.06 z"
     title="Lisboa"
     id="PT-11" />
  <path
     d="m 749.75803,104.23988 1.19,2.93 1.21,0.69 0.98,1.56 1.25,0.2 0.27,1.57 0.62,0.4 0.46,-0.27 1.69,1.27 -0.9,3.07 0.48,1.84 2.4,2.35 -0.52,1.01 0.21,1.84 1.06,0.85 2.31,0.65 -0.29,2.54 1.22,0.38 2.29,-0.73 1.64,1.19 0.67,1.35 -0.26,0.61 0.53,0.64 -3.19,4.72 0.6,1.14 -0.2,0.57 -0.92,0.42 -0.88,1.55 -1.39,0.4 -2,2.2 0,0 -0.91,-1.26 0.79,-1.96 -0.6,0.1 -0.58,-0.77 -1.1,0.81 -0.47,-0.52 0,0 -0.38,0.41 0,0 -0.6,0.21 -0.08,0.86 -0.85,0.25 -0.42,-0.55 -0.73,0.4 -0.43,-1.43 -0.6,-0.45 0.62,-0.03 -0.73,-1.14 0.15,-1.07 -1.37,-0.91 0.42,-1.55 -1.11,-0.45 0.09,-0.5 -0.87,0.08 -0.65,-0.91 -0.62,0.64 0.34,0.99 -0.71,0.63 -1.25,-0.05 -1.05,1.71 -1.45,-0.73 -0.46,0.69 -1.1,-1.08 -0.61,1.25 -1.05,0.04 -0.14,0.46 -2.72,-0.51 -0.03,-0.72 -0.57,-0.21 -0.94,-1.75 -1.96,1.23 -1.12,0.14 0.27,-1.64 -1.79,-1.39 -0.5,0.39 -0.03,1.21 -0.5,0.29 -0.55,-1.41 0.69,-0.36 -0.17,-0.4 -0.85,-0.01 -0.06,0.44 -0.61,-0.6 -0.36,0.48 -0.36,-0.23 -1.38,1.72 -0.29,-0.37 0,0 0.03,-0.7 -0.71,0.05 -0.58,-1.92 -0.73,-0.32 0,-0.88 -1.38,-0.59 -0.28,-0.6 1.42,-2.16 1.9,-0.74 1.65,-1.5 1.1,-1.29 -0.14,-0.7 0.64,-0.78 1.79,0.35 1.65,-2.59 -0.11,-0.91 1.94,-0.76 0.92,-1.11 -1.71,-1.54 -0.49,-1.04 1.69,-3.72 3.29,2.19 0.83,-1.08 0,0 1.74,-1.1 0.47,-0.98 1.03,-0.2 0.6,-1.77 1,-0.51 1.08,1.07 1.74,-1.42 1.29,-0.25 0,0 z"
     title="Portalegre"
     id="PT-12" />
  <path
     d="m 713.33803,41.93988 -0.84,-1.46 -0.7,-5.37 -1.5,-3.47 0.37,-2.35 0,0 0.93,0.11 1.42,1.11 0.97,-0.13 0.63,1.08 1.42,0.29 0.46,0.53 -0.62,0.37 0,0 -0.41,0.36 0.4,1.75 0,0 2.91,-0.19 0.54,-0.95 1.45,-0.3 0.76,0.53 1.01,-0.89 0.48,0.14 -0.31,0.8 2.15,-0.63 0.3,1.07 0.92,0.43 0.3,-1.19 1,-1.04 0.75,0.03 0.28,-0.77 1.5,0.48 0.22,0.8 0.61,0.15 -0.22,0.73 0.85,0.72 1.05,0.58 0.67,-0.58 1.09,1.02 1.34,-1.19 0.46,-1.17 0,0 0.05,0.62 0.8,0.32 -0.52,0.97 1.78,1.13 -0.43,0.5 0.16,0.75 1.28,1.28 -1.15,5.11 0,0 -1.26,-0.12 -3.19,1.38 -1.36,-0.46 -1.25,0.71 -2.18,-0.43 -1.88,1.18 0,0 -0.95,-0.59 -1.68,1.65 -1.62,-0.49 -0.06,0.84 0.55,0.39 -0.19,0.9 -1.29,-0.88 -0.59,-1.29 -0.25,0.46 -0.93,-0.43 -0.2,0.55 0.82,0.39 -0.79,0.33 -0.09,0.5 -0.65,-0.22 -0.41,-1.03 -0.91,1.04 -1.4,0.29 -0.14,-0.72 -1.23,0.41 0,0 -0.73,-5.16 -0.75,-1.28 z"
     title="Porto"
     id="PT-13" />
  <path
     d="m 703.73803,119.09988 0.11,-3.25 0.7,-0.72 0.72,0.13 1.34,-3.05 3.19,-0.69 2.31,0.12 -0.54,-2 0.4,-0.29 0.61,0.63 1.36,-1.71 -0.97,-3.08 1.67,-0.92 0.49,-1.37 -1.43,-0.6 0.47,-0.66 -0.52,-0.89 0.13,-1.11 1.31,-0.65 1.34,0.53 1.62,-1.02 0.69,-1.08 0.43,0.53 0.91,-0.94 0.77,4.39 1.54,-1.2 0.76,0.34 1.1,-0.92 0.5,0.51 -0.1,-1.67 1.5,0.28 0,0 0.01,0.04 0,0 0.61,1.07 0.72,-0.42 0.44,1.06 -0.23,4.42 3.21,1.38 2.51,-0.24 -0.69,-1.7 0.6,-0.53 0.1,-2.61 0.55,-0.49 0.98,0.17 0.5,0.62 0.64,-0.69 0.53,1.17 -0.13,2.27 1.36,-0.29 0.71,1.02 0.87,0.21 1.33,2.01 0,0 0.38,0.75 0,0 -0.46,1.35 0,0 -0.83,1.08 -3.29,-2.19 -1.69,3.72 0.49,1.04 1.71,1.53 -0.92,1.11 -1.94,0.76 0.11,0.92 -1.65,2.58 -1.79,-0.34 -0.63,0.78 0.14,0.7 -1.1,1.28 -1.65,1.51 -1.89,0.73 -1.43,2.16 0.29,0.61 1.37,0.59 0.01,0.88 0.73,0.32 0.58,1.92 0.71,-0.05 -0.03,0.7 0,0 -0.46,0.56 -0.01,1.42 -0.93,1.25 1.96,0.92 0.08,0.42 0.83,-0.2 0.73,0.53 -0.91,1.17 0.67,0.37 0.2,0.88 0.3,-0.54 0.79,0.66 -0.51,1.23 -1.15,-0.62 0.14,-0.51 -0.99,0.07 0.24,-0.35 -0.8,-0.87 -0.9,0.45 -0.51,-0.67 0.21,-0.33 -1.28,-0.99 -0.29,0.93 -0.35,-0.58 -0.64,0.82 -1.14,-0.71 -1,1.35 -0.32,-0.59 -0.35,0.14 -1.27,1.59 -0.95,-0.5 -1.47,1.78 0,0 -2.09,-0.79 0.53,-2.33 -1.04,0.41 -0.31,0.86 -2.17,-1.45 -1.44,4.14 -1.2,0.35 -1.5,-1.11 -1.69,0.83 -0.37,-0.22 -0.11,0.43 -0.58,-0.95 0,0 -0.6,-0.74 0.45,-0.27 -0.14,-0.77 -1.06,-0.91 0,0 1.82,-2.5 0.63,-2.27 1.28,-0.73 -0.84,-0.29 1.14,-1.9 -0.6,-0.48 1.16,0.03 1.32,-1.23 -0.51,-1.54 -2.19,-1.3 -1.44,-1.77 1.03,-0.59 1.71,0.02 -0.2,-1.51 -0.93,-0.29 -0.42,-0.83 -1.15,0.64 -1.6,-0.83 -0.59,0.23 0.2,-1.52 -0.67,-0.45 z"
     title="Santarém"
     id="PT-14" />
  <path
     d="m 710.51803,154.44988 3.4,0.11 -0.89,-0.95 -0.67,0.05 0,-2.97 -0.57,-0.31 -0.09,-1.48 -0.66,1.32 -0.81,-0.64 0.22,1.13 -0.92,0.22 1.7,0.16 0.06,0.75 -0.77,0.58 -0.59,0.14 0.12,-0.69 -3.29,-1.38 -0.96,0.47 -0.16,0.81 -1.48,0.37 -1.51,1.33 -1.12,0.45 -1.39,-0.33 -0.82,0.55 -1.1,-0.02 -0.86,0.81 -0.85,-0.18 1.3,-3.69 1.19,-0.74 -1.2,0.31 -0.93,-3.58 -1.62,-2.32 3.69,-1.03 -0.01,0.91 1.46,0.68 -0.85,-0.13 0.67,1.27 -0.04,-0.88 0.77,-0.08 1.02,1.63 -0.47,-1.8 -0.82,-0.44 1.57,-0.78 0.11,0.71 0.55,-0.36 0.82,0.77 -0.46,-1.27 1.28,-0.69 -1.98,-0.02 -0.54,0.44 0.14,-1.04 2.6,-1.67 1.16,-0.11 0,0 0.58,0.95 0.11,-0.43 0.37,0.23 1.69,-0.82 1.5,1.11 1.2,-0.35 1.44,-4.14 2.17,1.46 0.31,-0.86 1.04,-0.41 -0.53,2.33 2.09,0.79 0,0 1.76,0.09 -0.63,1.03 0.31,0.82 -4.81,4.16 0.45,2.53 2.02,0.06 0.08,0.66 1.27,0.14 0.12,0.68 0.71,-0.32 -0.44,-0.95 0.49,-0.18 0.9,1.24 0.96,-0.43 0.71,0.26 1.71,-1 1.86,3.51 -0.4,0.87 1,-0.09 0.24,0.53 -0.57,0.06 0.57,0.49 -1.23,1.6 1.43,0.03 0.26,0.72 2.26,0.44 1.05,0.91 0,0 1.1,2.15 0,1.7 -2.86,0.86 -0.61,0.92 -1.4,-0.29 -0.22,1.9 -0.65,0.01 -0.72,-0.68 -0.14,0.56 -0.55,0.11 -0.25,1.38 -0.8,-0.45 -0.66,1.69 1.45,2.03 1.42,-0.17 0.8,1.31 -0.49,3.26 0.31,0.5 -1.13,1.3 0.14,0.78 -3.28,-0.95 -0.19,0.43 -3.06,0.26 -0.44,0.24 0.07,1.25 -0.54,-0.11 -0.56,0.77 -0.1,1.69 -0.62,-0.13 -0.33,0.43 -1.38,-0.75 -0.71,0.6 -1.64,-2.45 -1.29,0.39 -0.53,-0.58 0,0 -0.48,-4.31 -1.41,-0.32 -0.45,-0.73 -0.66,0.08 1.58,-2.76 1.56,-4.99 0.44,-3.72 -0.32,-3.94 -1.31,-3.37 -2.55,-2.86 2.59,1.92 0.82,2.23 -0.26,-2.13 0.86,0.83 z"
     title="Setúbal"
     id="PT-15" />
  <path
     d="m 729.09803,0.94988 0.29,3.29 2.01,-0.73 0.69,0.42 0.44,1.87 -0.33,0.7 -1.09,0.26 -1.11,0.97 -1.7,2.93 0.53,1.67 0.97,-0.11 0.13,2.46 0,0 -0.07,0.45 -0.91,-0.21 -2.39,1.74 -0.71,-0.41 -0.39,0.83 -1.39,0.06 -0.77,-0.44 -1.56,0.55 -1.17,1.05 -0.77,0.22 -0.04,-0.53 -0.46,0.05 -0.53,0.53 -0.1,1.96 -0.81,0.68 0.21,1.35 -0.7,0.32 -0.46,-0.81 -0.85,0.36 -1.23,-0.85 -0.25,0.98 -0.41,-0.47 -1.03,0.07 -1.9,1.11 -1.67,0.09 0,0 -0.51,-2.47 -0.44,-0.54 -0.15,0.43 -1.13,-3.22 0.18,-2.01 0.46,-0.54 -0.45,-0.45 0.04,-2.08 1.73,-1.73 1.96,-0.93 0.38,-1.38 2.59,-1.55 0.15,-1.17 0.68,-0.75 2.84,-0.27 0.83,-1.08 2.42,-0.12 0.45,0.43 1.49,-0.17 0.59,-0.6 0.98,0.28 0.47,-0.87 1.85,-0.73 0.15,-0.64 0.94,0.14 0.8,-0.89 z"
     title="Viana do Castelo"
     id="PT-16" />
  <path
     d="m 738.11803,10.07988 0.67,0.12 -0.24,2.74 0.61,0.61 0.99,-0.91 -0.12,-0.62 1.68,-0.08 0.9,-0.67 0.95,0.28 1.03,-0.65 1.48,1.12 2.15,-0.03 -0.81,2.23 2.85,-0.54 0.6,-1.16 1.57,0.18 0.28,1.09 0.57,0.38 -0.08,0.97 1.97,-1.92 0.3,0.52 1.3,-0.09 3.62,-1.56 0,0 -0.31,2.77 0,0 0.52,1.34 0,0 0.72,0.52 -0.03,1.06 -1.16,1.37 -1.58,5.09 0.01,1.18 0.93,1.7 -1.73,0.3 -0.56,1.18 0.1,0.97 -2.11,1.01 0,0 -0.05,1.06 0,0 0.45,1.62 -0.28,0.49 1.48,1.11 -1.31,0.3 -0.61,0.7 0.42,0.44 -0.93,0.76 0.13,1.73 -0.85,-0.16 -0.56,1.57 0,0 -2.24,0.48 -0.65,0.82 -0.77,-0.36 -1.33,1.34 -2.36,-0.27 -1.05,0.89 -3.13,-0.85 -0.53,0.67 -1.9,-0.47 -1.19,1.55 0,0 1.14,-5.11 -1.28,-1.28 -0.16,-0.75 0.43,-0.5 -1.78,-1.13 0.53,-0.97 -0.8,-0.32 -0.05,-0.62 0,0 0.21,-0.71 -0.43,-0.12 1.26,-1.5 0.1,-1.98 1.12,-0.48 0.29,-1.02 1.01,0.07 -0.08,-0.53 0.85,-0.5 -0.07,-0.71 0.59,-0.12 0.31,-0.72 -1.27,-1.76 -0.96,1.14 -3.66,-0.65 0.26,-3.43 -1.52,-0.67 -2.6,0.49 0.99,-0.99 0.83,-2.02 0.34,-2.48 0,0 1.2,-0.43 1.22,-1.93 1.68,-0.11 z"
     title="Vila Real"
     id="PT-17" />
  <path
     d="m 753.07803,40.19988 1.31,0.65 1.04,1.98 1.67,0.35 0,0 -1.3,3.89 0.26,1.34 -1.31,0.04 0.01,0.92 1.69,0.8 -0.34,1.58 0,0 -1.2,0.9 0,0 -0.18,1.82 -0.73,-0.41 -1.59,2.75 -1.91,-2.37 -1.49,-0.12 -0.79,0.82 -1.33,2.96 1.81,1.34 -0.82,0.85 0.18,0.62 1.77,0.98 -0.51,0.55 0.29,0.73 -0.75,0.58 -0.73,2.48 0.26,0.5 -2.67,0.57 -5.14,2.53 0,0 -1.77,1.05 -2.83,2.81 -2.17,0.81 -2.89,2.16 -1.16,-0.49 -0.45,0.47 -0.25,-0.4 -1.83,0.83 -1.54,-1.44 -0.93,0.14 -0.44,-0.62 -0.42,0.11 0,0 0.04,-1.72 1.18,-1.34 -0.57,-1.85 2.7,-1.04 -1.1,-1.16 -0.74,-2.37 1.99,-0.83 -1.55,-0.78 -0.08,-2.41 -0.92,-0.75 -0.19,-1.19 1.88,-0.71 1.13,-2.85 -0.57,-1.27 0.76,-0.37 1.28,0.77 0.73,-0.83 1.19,0.72 0.84,-0.75 -0.79,-1.3 -0.15,-2.07 1.37,-1.65 -0.06,-0.89 -0.25,-0.19 -1.08,1.45 -1.92,-0.82 -0.59,0.17 0.28,-0.67 -0.96,-0.07 -0.2,-0.56 0.32,-0.09 -0.2,-1.26 -0.85,-0.34 0,0 1.88,-1.18 2.18,0.43 1.25,-0.71 1.36,0.47 3.19,-1.38 1.26,0.12 0,0 1.2,-1.55 1.9,0.47 0.53,-0.67 3.13,0.85 1.05,-0.89 2.35,0.27 1.33,-1.34 0.77,0.36 0.65,-0.83 2.23,-0.46 z m 0.05,13.2 1.01,0.59 0.62,-0.88 -1.23,-0.85 -0.4,1.14 z"
     title="Viseu"
     id="PT-18" />
  <path
     d="m 195.46803,210.34988 0.12,0.03 0.1,0.19 0.24,0.06 0.29,-0.04 0,-0.2 0.07,-0.03 0.35,0.21 -0.06,0.33 0.1,0.18 -0.16,0.23 0.05,0.2 0.09,0.08 0.17,0.06 0.22,0.1 -0.02,0.14 0.39,0.22 -0.12,0.07 0.05,0.19 0.25,-0.04 0.08,0.22 0.13,0.06 -0.08,0.27 -0.04,0.17 0.18,0.31 -0.13,0.28 0.09,0.17 -0.09,0.06 -0.04,-0.08 -0.21,0.02 -0.19,-0.01 -0.46,0.02 -0.34,-0.09 -0.4,0.08 -0.38,-0.39 -0.04,-0.21 -0.27,-0.2 -0.35,-0.09 -0.31,-0.01 -0.3,0.27 -0.15,-0.06 -0.44,0.29 -0.2,-0.27 -0.14,0.15 -0.17,0.1 -0.33,-0.2 -0.14,-0.25 -0.06,-0.68 -0.35,-0.64 0.13,-0.49 0.24,-0.02 0.11,-0.24 0.19,-0.09 0.22,0.06 0.37,-0.3 -0.02,0.2 0.33,0.21 0.21,-0.25 0.36,0.18 0.23,-0.11 0.04,-0.27 0.19,0.11 0.16,-0.15 0.09,0.07 0.15,-0.18 z m -11.04,-32.06 0.11,-0.06 0.02,-0.18 0.14,0 0.07,0.09 -0.05,0.22 0.08,0.09 0.22,-0.09 0.51,-0.09 0.33,-0.32 0.26,0.1 0.46,-0.26 0.31,-0.05 0.25,-0.23 0.29,-0.02 0.45,-0.26 0.15,-0.36 0.24,-0.17 0.06,0.22 0.56,0.25 0.22,0 0.39,-0.21 0.28,0.05 0.2,-0.14 0.17,0.19 0.54,0.18 0.33,0.01 1.14,-0.24 0.41,0.1 0.22,-0.05 0.79,0.31 0.3,0.94 0.06,0.3 0.11,0.47 -0.24,0.29 -0.06,0.26 0.15,0.49 -0.1,0.44 -0.24,0.49 -0.37,0.44 -0.29,0.2 -0.61,0.01 -0.3,0.24 -0.2,0.04 -0.37,-0.06 -0.79,-0.36 -0.79,0 -0.64,0.29 -0.12,0.1 -0.38,0.12 -0.29,0.11 -0.18,0.23 -0.23,-0.08 -0.8,0.09 -0.52,0.43 -0.71,-0.12 -0.35,0.07 -0.28,-0.07 -0.22,0.11 -0.28,-0.12 -0.14,0.13 -0.39,0.07 -0.41,-0.19 -0.2,0.03 -0.28,-0.01 -0.34,-0.1 -0.13,0.12 -0.29,0.05 -0.15,0.23 -0.29,0.08 -0.25,-0.28 -0.39,-0.09 -0.26,-0.34 -0.76,-0.54 -0.14,-0.23 -0.56,0.14 -0.37,-0.22 -0.36,0.08 -0.31,-0.26 -0.43,0.01 -0.21,0.28 -0.35,0.07 -0.71,0.17 -0.45,0.18 -0.31,-0.09 -0.51,-0.34 -0.23,-0.31 -0.33,-0.12 -0.24,-0.35 -0.71,-0.45 -0.51,-0.34 -0.16,-0.37 -0.19,-0.09 -0.35,-0.25 -0.57,-0.37 -0.15,-0.28 -0.62,-0.43 -0.05,-0.31 -0.35,-0.67 -0.05,-0.27 0.25,-0.21 0.1,-0.26 0.12,-0.26 0.26,-0.01 0.23,-0.3 -0.05,-0.24 0.08,-0.12 0.07,-0.23 0.57,0.16 0.42,-0.31 0.09,-0.2 0.18,-0.05 0.57,0.2 0.4,0.26 0.43,0.21 0.11,0.14 0.48,0.12 0.32,0.4 0.14,0.48 0.18,0.06 0.18,0.77 0.14,0.12 0.2,-0.05 0.09,0.24 0.5,0.19 0.41,0 0.34,0.15 0.4,-0.09 0.25,0.1 0.03,-0.05 0.21,0.23 0.23,0.1 0.58,0.29 0.34,-0.07 0.24,-0.09 0.19,0.12 0.27,-0.02 0.86,-0.32 0.2,-0.25 0.56,-0.35 0.28,-0.17 0.08,-0.17 0.08,-0.01 0.17,0.34 0.11,0.21 0.08,0.13 0.16,0.23 0.22,-0.06 0.3,0.15 0.05,-0.19 0.11,-0.02 0.09,0.16 0.2,0.06 -0.01,-0.29 z m -94.010005,-29.46 0.78,0.12 0.28,0.22 0.39,0.07 0.79,0.48 0.23,0.04 0.23,0.09 0.23,0.19 -0.02,0.13 0.16,0.15 0.21,0 0.16,0.18 0.09,0.31 0.25,0.26 0.39,-0.05 0.39,0.32 0.39,0.09 0.45,-0.1 0.35,0.49 0.34,0.13 0.08,0.13 0.36,0.02 0.21,0.18 0.29,0.53 0.3,-0.03 0.33,0.27 0.83,0.01 0.12,0.14 0.28,0.08 1.640005,0.21 0.22,-0.05 0.51,0.15 0.04,0.2 0.67,0.4 0.16,0.26 0.02,0.4 -0.46,0.15 -0.32,0 -0.13,0.14 -0.15,-0.03 -0.14,0.13 -0.33,-0.09 -0.14,0.18 -0.39,0 -0.760005,-0.26 -1.01,-0.09 -0.2,0.07 -0.67,-0.12 -0.3,0.11 -0.02,0.15 -0.14,0.07 -0.15,0.25 -0.34,0.04 -0.65,0.38 -0.36,0.1 -0.35,-0.21 -0.16,-0.1 0,-0.31 -0.02,-0.26 -0.51,-0.33 -0.99,0.08 -0.86,-0.16 -0.34,0.06 -0.32,-0.12 -0.5,0.14 -1.11,-0.55 -0.38,-0.08 -0.19,0.05 -0.16,0.21 -0.59,0.05 -0.62,-0.5 -0.49,-0.11 -1.16,-0.67 -0.14,-0.52 -0.25,-0.21 -0.35,-0.65 -0.05,-0.22 0.08,-0.25 -0.08,-0.46 0.06,-0.37 0.16,-0.61 0.2,-0.01 -0.02,-0.12 0.26,-0.08 0.04,-0.22 0.42,-0.3 0.07,0.04 0.87,-0.36 0.91,0.22 0.19,-0.16 0.33,0.07 0.56,-0.18 z m -9.46,-3.31 0.32,0 0.98,0.36 0.33,0.18 0.05,0.15 0.46,0.41 0.81,0.2 0.71,0.69 -0.17,0.19 -0.15,0.4 0.15,0.4 -0.25,0.32 0.29,0.59 -0.09,0.12 -0.46,0.04 -0.18,0.22 0,0.38 0.09,0.02 0.05,0.12 -0.09,0.07 0.14,0.15 -0.11,0.15 -0.12,-0.17 -0.06,0.05 -0.11,0.03 0.04,-0.13 0.17,-0.1 -0.08,-0.12 -0.09,0.08 -0.26,-0.04 -0.35,0.13 -0.68,-0.05 -0.25,0.12 -0.7,0.01 -0.35,0.12 -0.39,-0.02 -0.55,-0.25 -0.31,0.09 -0.02,-0.11 0.17,0 0.03,-0.12 -0.08,-0.07 -0.08,-0.73 -0.25,-0.6 -0.22,-0.16 -0.19,0.12 -0.1,-0.07 -0.14,0.04 -0.47,-0.29 -0.61,-0.38 -0.31,-0.4 -0.11,0.03 0,-0.27 -0.19,-0.07 0.05,-0.18 0.43,0.01 0.2,-0.2 0.32,-0.09 0.81,0.02 0.29,-0.11 0.43,0.09 0.38,-0.28 0.47,-0.76 0.4,-0.33 z m 12.54,-4.53 0.91,0.16 0.81,0.29 0.95,0.57 0.14,-0.03 1.63,0.72 1.01,0.3 0.3,0.29 0.25,0.09 0.19,-0.06 0.11,0.22 0.750005,0.15 0.48,0.33 0.6,0.19 0.29,-0.2 -0.04,0.19 0.18,0.17 0.35,0.08 0.33,-0.06 0.6,0.47 0.42,0.12 0.46,0.54 0.41,0.04 0.11,0.24 0.57,0.22 0.24,0.21 0.21,-0.06 0.35,0.48 0.45,0.06 0.56,0.23 1.61,0.9 0.29,0.14 0.19,0.13 0.59,0.23 0.1,-0.04 0.09,0.21 0.53,0.19 0.81,0.7 -0.17,0.08 -0.12,0.15 -0.36,0.27 -0.27,-0.08 -1.5,0.15 -0.99,-0.5 -0.25,-0.3 -0.29,-0.09 -0.36,-0.27 -0.69,-0.27 -1.01,-0.81 -0.4,-0.02 -0.49,-0.27 -0.35,0.12 -0.86,-0.32 -0.19,0.08 -0.29,-0.06 -0.3,-0.19 -0.4,-0.44 -0.6,-0.39 -1.23,-0.21 -0.280005,-0.23 -0.26,-0.02 -0.02,-0.12 -0.19,-0.15 -0.15,0.03 -0.51,-0.23 -0.61,-0.42 -0.71,-0.28 -0.31,-0.53 -0.29,0.14 -0.11,-0.16 -0.28,0.04 -0.06,-0.1 0.12,-0.1 0.05,-0.22 -0.32,-0.04 0.1,-0.16 -0.13,-0.23 -1.24,-0.61 -0.78,-0.73 -0.32,-0.46 -0.38,-0.28 -0.03,-0.18 z m 33.440005,-1.9 0.21,0.09 0.13,-0.04 0.17,0.19 0.26,-0.06 0.26,0.22 0.3,-0.01 -0.03,-0.16 0.09,-0.13 0.17,0.1 0.27,-0.11 0.18,0.13 0.17,0.14 0.2,-0.1 0.17,0.14 0.41,0.07 0.45,0.23 0.44,-0.07 0.3,0.17 0.07,0.07 0.67,-0.16 1.3,1 0.09,0.65 0.17,0.2 0.32,0.15 -0.24,0.21 -0.28,0.05 -0.05,0.58 0.35,0.25 0.25,0.23 -0.05,0.16 0.09,0.14 -0.22,0.33 -0.28,0.13 0.06,0.28 -0.37,0.06 -0.27,0.2 0.05,0.34 -0.02,0.2 -0.12,0.33 0.05,0.23 -0.38,0.05 -0.26,-0.24 -0.22,0.18 -0.4,-0.17 -0.47,0.18 -0.32,-0.03 -0.85,-0.41 -0.35,0.09 -0.2,-0.09 -0.26,0.13 -0.36,-0.14 -0.19,0.16 -0.26,-0.11 -0.05,0.12 0.16,0.32 -0.29,0.15 -0.23,-0.19 0.2,-0.26 -0.06,-0.23 -0.37,-0.02 -0.24,-0.02 -0.21,0.1 -0.38,0 -0.29,0.09 -0.31,-0.11 -0.66,-0.51 -0.58,-0.31 -0.22,-0.14 -0.58,-0.32 -0.58,-0.84 -0.14,-0.72 -0.14,-0.21 -0.03,-0.66 0.25,-0.52 -0.19,-0.3 0.23,0.06 0.14,-0.28 -0.04,-0.13 0.15,-0.22 0.15,0 0.79,-0.52 1.42,-0.29 0.54,-0.05 0.36,-0.02 z m -24.36,-11.86 0.52,0.17 0.24,0.24 0.17,-0.1 0.19,0.1 -0.13,0.09 0.3,0.17 0.34,0.6 0.06,0.26 0.17,0.03 0.02,0.15 0,0.18 0.44,0.4 0.13,0.47 -0.05,0.1 0.18,0.16 0,0.17 -0.13,0.08 0.09,0.13 -0.28,0 -0.37,0.17 -0.66,-0.21 -0.12,0.07 -0.12,-0.09 -0.02,-0.14 -0.25,-0.09 -0.01,-0.16 -0.87,0.06 -0.36,-0.44 -0.33,-0.85 -0.31,-0.28 -0.01,-0.19 -0.17,-0.02 0.05,-0.17 0.55,-0.51 -0.04,-0.2 0.09,-0.2 0.07,-0.06 0.17,-0.04 0.2,0.02 0.09,-0.08 0.16,0.01 z m -100.3800045,-17.36 0.12,0.04 -0.07,0.2 0.17,0.41 0.59,0.41 0.15,-0.16 0.14,0.05 -0.03,0.09 0.1,0.05 0.27,-0.07 0.14,-0.19 0.06,0.06 0.14,0.22 -0.05,0.22 0.2,0.22 -0.06,0.06 0.07,0.43 0.28,0.19 0.11,0.27 0.28,-0.04 0.09,0.39 -0.09,0.24 -0.35,0.2 -0.19,0.29 -0.01,0.14 0.24,0.33 -0.17,-0.04 -0.2,0.1 -0.06,0.22 0.08,0.4 -0.14,0.37 -0.21,0.22 -0.03,0.33 -0.34,0.21 0.06,0.11 -0.74,0.19 -0.89,-0.12 -0.13,0.15 -0.24,0.04 -0.21,-0.15 -0.29000004,-0.01 -0.08,-0.23 -0.18,-0.11 0.08,-0.08 -0.12,-0.1 -0.04,-0.21 0.09,-0.08 -0.11,-0.16 0.23,-0.16 0.01,-0.11 -0.16,-0.11 0.01,-0.17 -0.21,-0.25 -0.05,-0.38 0.15,-0.38 -0.12,-0.4 -0.16,-0.18 0.13,-0.16 -0.04,-0.14 0.18,0 0.09,-0.19 -0.01,-1.03 0.28,-0.24 0.03,-0.15 0.20000004,-0.08 0.27,-0.46 -0.11,-0.37 0.74,0.02 0.11,-0.16 z m 3.22,-8.24 0.63,0.28 0.19,0.5 -0.01,0.33 -0.15,0.52 -0.51,0.46 -0.21,0.09 -0.08,0.13 -0.19,0.01 -0.12,-0.05 -0.05,-0.16 0.21,-0.21 -0.05,-0.21 -0.25,-0.33 -0.07,-0.37 0.3,-0.67 -0.06,-0.28 0.19,0.05 0.23,-0.09 z"
     title="Açores"
     id="PT-20" />
  <path
     d="m 467.04803,385.03988 0.33,0.95 0.49,0.83 -0.51,-0.25 -0.17,-0.31 -0.28,-0.84 0.14,-0.38 z m -0.62,-2.95 0.49,1.05 0.06,0.99 -0.77,-1.89 -0.67,-0.54 -0.09,-1.18 0.59,0.7 0.39,0.87 z m -20.74,-12.62 0.5,0.79 0.77,0.74 0.61,0.03 0.39,0.43 1.32,0.26 1.12,-0.26 0.83,-0.56 0.82,0.14 1.89,-0.41 0.63,0.4 0.64,0.73 0.87,0.75 0.43,0.71 0.77,0.21 0.63,0.18 1.05,0.08 0.55,0.15 0.6,-0.02 0.3,0.14 -0.14,0.35 -0.84,0.04 -0.5,0.12 -0.32,0.56 -0.26,0.11 0.09,0.35 -0.38,0.62 -0.62,0.21 -0.32,0.83 -0.88,0.84 -0.59,0.15 -0.9,-0.34 -0.87,-0.05 -0.35,0.19 -0.92,0.32 -0.27,-0.32 -0.98,-0.36 -0.96,-0.04 -2.19,-1.01 -0.59,0.05 -1.08,-0.94 -2.34,-1.26 -1.03,-1.35 0.06,-0.32 -0.26,-0.75 -0.46,-0.49 2.09,-2.01 1.09,0.01 z m 27.27,-8.58 0.28,-0.04 -0.17,0.41 0.31,0.41 -0.27,0.24 0.16,0.36 -0.62,-0.14 -0.47,0.11 -1.64,1.38 -0.15,-0.26 -0.28,-0.05 -0.15,-0.32 0.3,-0.02 0.31,-0.5 0.15,-0.58 -0.11,-0.16 0.23,-0.3 0.32,-0.02 0.2,-0.37 0.6,-0.18 0.4,-0.36 0.6,0.39 z"
     title="Madeira"
     id="PT-30" />
</svg>
