<?xml version="1.0" encoding="UTF-8" standalone="no"?>
<!-- Created for MapSVG plugin: http://mapsvg.com -->
<svg
   xmlns:mapsvg="http://mapsvg.com"
   xmlns:dc="http://purl.org/dc/elements/1.1/"
   xmlns:rdf="http://www.w3.org/1999/02/22-rdf-syntax-ns#"
   xmlns:svg="http://www.w3.org/2000/svg"
   xmlns="http://www.w3.org/2000/svg"
   mapsvg:geoViewBox="16.834315 49.614067 22.568332 47.731105"
   width="612.6908"
   height="304.02798">
 
  <path
     d="m 212.74829,142.25235 0.44,-0.9 1.64,-0.75 1.33,-1.82 1.96,-1.03 0.8,0.19 0.11,1.5 0.71,0.06 -0.07,1.25 1.84,0.27 1.12,1.07 1,0.06 1.45,-1.1 2.41,0.65 2.84,-0.37 0.87,-1.63 1.63,-1.31 0.47,-3.63 -2.45,-2.12 -0.51,-0.95 -0.13,-1.44 0.9,-1.62 -0.84,-3.7 0.46,-0.49 0.68,0.41 1.13,-0.12 1.35,-1.71 0.79,-2.87 1.85,-0.82 0.6,0.03 0.87,0.89 1.32,0.08 0.69,-0.32 2.11,0.4 4.92,-0.77 1.1,0.43 1.33,-0.73 1.41,0.52 1.97,-1.91 3.67,-1.03 2.04,0.94 0.63,1.57 0.07,2.23 -1.61,1.36 0.21,0.61 6.92,-1.1 2.08,-4.51 5.07,-5.85 6.74,0 1.65,-0.42 3.64,-1.95 3.09,0.41 1.51,-1.04 1.41,0.83 1.56,0.05 2.24,0.84 0.79,1.04 2.75,1.99 1.48,0.55 3.12,2.53 3.04,0 4.78,-1.75 1.52,1.8 1.82,-1.11 1.22,-0.04 2.3,-1.45 2.36,0.09 0.61,0.85 1.13,0.44 4.77,-0.66 8.11,0.37 2.54,-1.43 1.91,1.98 0,0 5.28,0.49 1.22,1.53 8.93,1.3 1.94,-1.33 1.53,-2.59 2.2,2.06 1.54,-0.21 1.31,0.4 2.79,3.08 1.48,0.47 0,0 -1.4,0.64 -1.09,3.94 -4.43,4.07 0.21,3.67 -0.89,0.87 0.84,0.66 0.61,2.62 -2.47,1.6 -0.13,0.97 0.28,2.11 0.85,0.26 -0.31,2 0.48,1.16 2.07,-0.29 4.39,3.75 1.07,2.3 1.29,1.19 1.48,3.37 1.32,1.08 -1.02,1.94 0.38,3.38 0.53,0.95 0,0 -0.57,0.59 0.04,0.79 0,0 2,0.98 2.29,-0.49 0.66,1.48 1.35,0.22 -0.6,3.22 -2.3,4.53 0.01,1.84 -0.86,1.62 -1.37,1.19 -0.54,2.91 0.94,1.44 -0.21,1.93 0.51,0.78 0.33,-0.48 0.77,0.45 0.57,-0.21 0.01,1.14 0.55,0.52 -0.28,0.58 3.62,-0.1 2.16,-0.69 0.97,-0.71 1.46,-2.36 1.22,-0.37 0.65,2.06 1.56,-0.02 1.74,-0.91 0.94,0.75 0.02,0.71 0,0 0.64,1.39 -0.91,0.95 -1.36,0.4 -0.83,1.86 -2.58,2.47 -0.32,1.4 0.54,1.09 -0.14,1.6 -1.55,2.1 0.85,1.88 -0.13,0.61 -2.33,2.22 -0.45,1.2 -1.73,2.05 0.59,0.87 -0.87,1.44 -3.03,2.93 -0.41,0.83 0.19,1.09 -0.32,-0.34 -0.42,0.27 -0.29,2.43 -1.98,-0.08 0.52,1.33 -2.81,0.48 -2.73,-2.13 -2.1,-0.86 -1.46,0.51 0.87,0.91 -0.75,1.49 -1.24,0.43 -1.48,-0.22 0.47,1.53 -3.21,0.45 -0.73,-0.53 -1.62,0.15 -1.02,-0.66 -1.1,0.26 -0.21,0.69 0.72,0.94 -0.74,2.91 -3.27,2.55 -1.56,2.05 -1.01,-0.15 -0.87,0.9 -0.21,0.49 1.1,0.54 -0.05,0.34 -1.88,0.94 -0.77,1.31 -0.53,0.16 -0.71,-1.02 -1.08,-0.45 -2.85,0.8 -1.18,0.61 -0.38,0.84 -1.37,-0.44 -1.19,1.94 -1.39,0.24 -1.55,3.03 -3.05,0.59 -0.94,0.61 0.32,-1.82 1.17,-1.69 -1.54,-2.94 -1.23,0.21 -0.9,-0.8 -1.98,-0.11 -0.51,-1.32 -1.27,2.52 -0.94,0 -1.38,-1.21 -1.5,1.29 -0.1,1 -1.3,0.24 -1.18,-1.67 0.61,-0.53 0.18,-0.96 1.61,-1.55 -0.72,-1.72 -1.14,0.26 -0.79,-1.36 -1.69,-0.88 -0.48,-1.05 -1.55,-0.4 -1.12,0.14 -1.22,1.98 -1.95,0.26 -1.22,-0.48 -1.61,-1.5 -1.06,-4.16 -1.07,-0.35 -1.28,0.53 -1.79,-1.81 -2.45,1.9 -0.67,1.23 -0.88,0.37 -1.5,1.71 -1.42,0.4 -2.01,1.41 -0.84,-0.47 -1.52,1.01 0.21,2.06 -2.23,2.78 0.52,3.38 -1.87,1.87 0.33,2.61 -1.27,2.46 0.4,1.26 -1.04,0.89 -1.05,-0.07 -0.15,1.8 -0.65,0.12 -0.86,-1.2 -0.04,-1.59 -1.21,-0.15 -2.21,2.2 -2.47,0.7 -1.54,-1.41 -1.26,0.27 -0.11,0.52 -1.53,-0.51 -1.76,0.45 -1.09,-0.53 -3.13,0.43 -1.85,1.07 -0.82,1.13 -2.43,0.67 -0.55,1.91 -0.81,0.64 -1.44,-0.53 -0.96,-0.98 -1.1,-0.11 -2.23,0.81 -5.75,-2.27 -0.79,0.07 -0.73,1.24 -1.45,0.11 -1.93,-1.27 -0.67,0.11 -0.33,0.69 -2.07,1.35 -1.32,-1.35 -1.31,0.39 -2.14,-1.92 0,0 -0.02,-2.55 1.09,-0.51 0.38,-1.63 2.21,-1.58 1.83,-2.82 -0.41,-2.39 -1.37,-2.09 0.8,-0.54 0.3,-1.98 1.07,-0.96 -0.76,-0.8 0.94,-1.04 -2.37,-1.63 -1.6,1.94 -1.32,0.43 -1.15,-0.43 -0.31,0.47 -3.97,1.35 -0.97,-0.9 -1.3,2.14 -0.96,-1.58 -0.92,-0.27 -0.64,1.79 0.79,2.34 -4.45,-0.25 -3.41,-0.94 -0.96,-0.98 -2.34,-0.75 -0.61,0.35 0.12,1.3 -0.35,0.25 -1.74,-0.33 -0.56,-3.1 1.02,-1.34 0.77,0.17 1.67,-1.96 -2.12,-3.24 0.07,-0.8 0.86,-0.05 0.05,-0.42 -1.42,-1.74 0.69,-1.92 1.18,-0.99 1.72,-0.57 -0.06,-3.18 1.12,-3 -0.65,-2.21 -1.31,-0.16 -0.73,-1.23 -0.19,-2.58 -1.47,-4.03 -2.34,-1.25 -0.53,0.21 -0.94,-2.22 -2.05,-1.9 0.19,-1.09 -1.2,-1.06 -1.55,0.05 -1.55,2.29 -1.86,1.28 0.26,0.58 -0.8,0.98 -0.69,0.09 0.14,1.33 -1.05,0.39 0.08,2.13 -0.73,0.75 -2.08,1.38 -0.33,-0.84 -1.84,-0.41 -0.72,0.91 -2.74,1.38 -2.88,-1.01 -1.67,2.61 -1.48,1.34 -0.51,1.27 -0.52,-0.4 0.12,-0.87 -0.91,-1 -0.15,-1.11 -1.07,-1.71 -0.14,-6.44 0.31,-1.25 1.03,-0.9 0.07,-1.2 1.74,-4.25 -0.82,-1.05 -0.19,-2.08 -1.46,-0.08 2.47,-3.73 -1.24,0.15 0.73,-3.74 -0.74,-1.35 -0.33,0.27 -1.12,-0.55 -1.53,-0.01 -0.92,0.37 -0.23,1.07 -1.18,-0.19 0.44,-2.1 1.49,-1.43 -0.11,-1 -0.79,-1.06 -0.2,-2.01 0,0 0.5,-3.65 1.69,-0.07 3.05,0.82 3.8,-0.04 1.08,-0.95 1.21,-0.13 0.47,-1.16 -0.13,-1.71 0.79,-1.35 1.39,-0.93 1.97,-3.9 1.66,-1.7 2.02,1.04 1.5,0.36 1.08,-0.26 2.12,0.98 0.18,-1.32 -0.49,-2.14 2.86,-2.32 1.09,-4.77 1.21,-0.99 1.72,0.57 1.43,-0.97 1.47,-2.31 1.2,-3.06 0.64,-0.49 z"
     title="Banskobystrický"
     id="SK-BC" />
  <path
     d="m 12.348286,175.80235 2.98,0.02 0.21,-1.72 3.29,-0.37 3.39,-1.4 0.3,0.55 1.48,0.12 0,-0.62 -1.13,-1.32 0.11,-0.64 3.95,2.38 2.06,-1.16 0.71,1.41 0.96,0.26 7.37,-1.66 2.62,-1.41 2.47,-0.44 0.52,-1.81 2.46,-1.55 6.83,-10.1 1.51,1.34 1.49,0.63 1.36,2.69 0.22,1.75 -0.39,0.86 -1.71,1.03 -1.3,2.06 -2.05,0.16 -0.74,2.65 -3.94,2.71 -0.33,1.01 3.36,2.39 0.45,1.98 2.17,0.34 0.07,1.41 1.94,0.92 -0.22,0.72 -0.81,0.52 0.09,1.02 -0.57,1.26 -1.91,0.66 -0.03,0.69 -1.08,1.42 0.17,0.71 1.5,1.75 2.81,0.13 1.74,1.89 3.32,0.03 -0.53,3.07 1.7,0.24 -0.05,1.33 1.44,0.64 1.41,4.95 0.58,0.74 1.72,-0.67 1.88,1.78 0.62,2.43 -1.56,4 -1.24,0.55 1.11,1.13 -0.59,1.61 1.11,0.11 0.57,1.28 1.77,1.42 0.46,0.19 1.13,-0.89 1.34,1.53 -3.48,4.38 -0.98,3.74 0.61,0.64 1.38,0.13 2.99,1.41 0,1.07 -1.27,1.82 0.17,0.72 1.2,0.55 0.1,2.57 -0.37,0.58 -1.52,0.16 -0.34,0.84 -1.77,0.07 -1.14,1.16 -0.78,1.76 -2.94,1.05 -1.91,-1.29 -1.66,-0.08 0.09,-2.3 -1.95,-0.64 -1.29,1.15 0.46,1.72 1.09,0.61 -1.11,1.92 -1.13,-0.29 -2.88,2.26 -0.65,-0.22 -1.63,0.97 -1.24,-0.76 -0.62,0.11 -0.19,0.75 0.5,0.6 -0.34,1.61 0.8,1.52 1.12,0.84 0.96,0 1.09,-1.31 1.12,0.59 0.07,0.8 -1.48,0.3 -0.49,3.05 -2.07,0.3 -1.02,-1.04 -0.53,0.21 0.12,1.54 0.68,1.28 -2.7,1.37 -1.54,2.08 -0.98,0.04 0.11,1.05 -1.16,1.22 0,0 -0.48,-1.48 -1.8,0.94 -2.63,-0.54 -4.26,2.04 -2.14,-2.28 -1.54,-0.05 -1.49,-1.49 -2.24,1.6 -2.32,-1.7 1.85,-2.18 -0.36,-0.84 -1.58,-0.69 1.85,-1.69 -1.38,-0.84 0.65,-1.2 -0.58,-0.81 1.99,-1.35 -0.48,-0.78 0.45,-0.48 -1.71,-1.12 -0.44,-0.59 0.33,-0.71 -0.77,-0.15 -0.74,-0.95 0.64,-0.42 -1.28,-3.01 -1.73,0.51 -1.26,-0.18 -3.51,-3.48 -2.12,-1.43 0.05,-2.62 -1.45,-5.57 -1.51,-2.21 1.05,-4.41 -1.06,-0.98 -2.4599998,-0.35 -1.6,-2.48 0.44,-0.69 -0.53,0.26 -1.35,-3.02 1.04,-0.18 -0.56,-0.75 0.89,-1.75 -3.86,-1.92 0.06,-1.69 -2.2,0.11 -1.01,-0.79 -0.16,-2.86 -0.83000003,-1.69 0.25,-0.37 1.57000003,0.02 0.02,-1.27 0.82,-1.62 -0.64,-0.36 -0.14,-1.27 1.22,-1.28 -1.02,-1.96 -0.29,-2.73 1.38,-0.78 -0.38,-0.76 0.42,-1.11 0.89,-0.37 0.54,-1.06 2.03,-1.7 -0.53,-1.01 0.35,-0.74 1.02,-0.43 0.82,0.54 0.61,-0.17 -0.52,-2.61 0.95,-0.2 -0.13,-1.03 1.0599998,-0.65 0.24,0.45 1.11,-0.04 -0.24,-1.1 z"
     title="Bratislavský"
     id="SK-BL" />
  <path
     d="m 366.23829,121.29235 1.78,1.44 1.49,-0.41 0.24,-1.52 -0.54,-0.61 -0.03,-1.07 0.76,-1.14 0.04,-4.11 1.41,-0.87 0.16,-0.55 -0.1,-0.94 -1.11,-0.83 -0.24,-0.89 3.59,-3.73 1.25,-0.44 0.67,-0.99 1.5,-0.94 1.94,-0.5 1.6,-2.03 3.58,1.48 3.15,2.24 1.18,1.36 1.88,0.73 0.86,0.94 1.67,0.05 -3.45,-4.4 0.48,-1.36 2.45,-2.35 0.66,0.42 1.16,2.34 1.99,1.68 0.26,1.09 2.47,1.33 1.26,-0.75 2.41,-0.18 3.63,5.77 0.95,0.2 2.13,1.62 -0.35,-0.91 0.31,-2.38 1.21,-1.04 -0.02,-1.52 0.47,-0.42 3.27,-1.1 0.79,0.3 0.95,1.88 2.18,-1.65 0.55,0.29 0.49,1.35 0.75,0.06 1.12,-0.79 0.19,-0.29 -1.16,-1.72 0.12,-1.32 -1.03,-1.31 0.54,-0.44 1.2,0.75 1.23,0.1 2.25,1.68 2.92,-1.12 -0.2,0.85 -1.85,1.23 0.76,0.83 1.57,-0.02 0.29,0.71 5.79,-1.83 2.36,0.63 1.75,1.28 1.24,2.61 0.52,0.23 3.06,-2.3 2.41,4.02 1.57,0.92 0.44,2.82 4.49,0.26 3.02,1.23 3.02,0.21 1.39,-1.36 0.92,0.81 1.66,0.5 0.95,2.46 1.6,1.49 1.99,-2.1 2.67,1.57 0.29,-0.94 1.34,0.05 -0.06,1.81 2.18,-0.94 0.54,1.76 -1.63,5.57 1.28,1.58 2.45,1.46 1.99,-0.89 -0.1,-1.83 1.46,-1.31 0.85,-0.35 1,0.63 0.94,-0.84 3.08,0.01 0.34,-1.19 0.97,-0.97 -0.11,-2.4 0.32,-0.39 -0.72,-1.73 0.46,-0.52 1.69,-0.43 2.08,1.91 0.32,-3.53 0.61,0.9 0.57,2.71 2.22,0.4 0.6,-0.29 0,-0.76 1.24,-0.19 1.86,-1.43 0.07,2.91 1.28,0.33 0.61,0.69 -1.03,1.17 0.16,1.42 1.23,1.57 1.57,0.78 0.89,1.78 -0.22,1.79 1.3,2.23 3.79,0.99 0.75,0.72 -0.1,0.97 1.95,-0.06 2.26,1.35 4.22,-1.3 1.12,1.69 1.72,1.37 2.43,-0.38 4.21,-2.31 0.98,0.1 0.01,0.75 0.57,-2.48 1.95,-0.62 2.07,-1.74 0.2,-1.73 -1.12,-1.68 -0.69,-9.97 0.37,-2.23 1.1,-0.78 1.73,0.21 1.09,2.01 0.63,-0.26 0.61,0.44 0.78,-0.55 1.86,-0.23 5.4,2.1 2.84,1.94 1.86,3.13 3.67,0.39 0.75,1.4 3.54,0.02 4.43,-1.02 6.17,0.11 0.45,-0.82 -0.3,-5.44 0.81,-0.89 1.98,-0.79 0.95,-2.17 3.09,-3.14 3.4,0.43 1.15,0.81 1.05,4.33 1.03,1.49 0.26,2.39 5.13,-0.18 2.2,-0.89 1.66,0.89 3.5,0.17 0.73,0.51 0,0 -0.93,4.78 0.93,2.02 0.28,3.62 -0.84,0.9 -0.6,1.71 -2.74,2.75 -0.48,2.6 1.89,1.5 0.04,2.07 -1.1,1.24 -1.22,5.94 -3.88,1.25 -2.59,2.58 -2.95,2.13 -0.73,2.54 -1.5,1.5 -1.67,0.05 -1.49,1.93 -1.21,0 -0.08,0.98 -0.67,0.12 -2.08,4.66 -0.76,8.77 -1.96,13.72 0.23,3.84 0.48,1.18 1,-0.04 -0.41,1.25 -2.03,0.73 0.53,1.67 -1.24,0 -0.4,0.45 -0.9,-0.3 -1.22,0.6 -0.52,-0.86 -0.99,1.47 -0.29,-1.46 -0.81,-0.83 -0.35,0.8 -1.42,-0.14 -0.41,0.78 -2.98,-2.4 -1.3,1.3 -2.87,0.83 -0.37,0.47 -0.19,-0.58 -3.79,0.21 -1.57,1.23 -0.63,-0.06 0.47,0.73 -0.55,0.81 -0.96,-0.21 -0.97,-0.92 -1,0.6 -0.27,-0.82 -0.05,1.19 -0.54,-0.07 0.22,-0.85 -0.55,-0.3 -0.64,0.78 0.51,1.09 -0.5,0.23 0.02,-0.77 -0.39,-0.08 -0.42,0.97 -0.82,-0.33 -0.35,0.72 -0.52,-0.27 -0.27,-1.45 -2,-0.01 -0.39,0.5 -0.08,4.16 -1.11,0.59 -0.69,0.03 0.14,-0.7 -1.45,-0.19 -0.45,-0.68 -3.53,0.24 -0.88,-0.89 -3.44,-0.56 -1.47,-0.92 0.21,-1.82 -0.78,0.03 -0.6,-0.69 0.61,-1.07 -0.46,-0.87 -2.17,-1.28 -1.21,0.26 -0.97,-1.25 -0.14,-3.26 -0.3,0.13 -1.7,-4.89 -0.81,-0.39 -0.67,-1.25 0.25,-0.59 -0.99,-1.34 0.3,-0.8 -0.42,-0.22 0.16,-2.83 -0.34,-0.88 -0.52,0.09 -0.2,-2.04 -0.89,0.36 -1.27,-1 -0.79,0.39 -0.67,1.27 -1.35,-0.2 -0.56,-1.03 -0.77,0.57 -1.2,0.01 -0.25,-1.01 -1.5,-1.33 -1.16,-2.72 0.03,-1.69 -0.89,-0.32 -0.06,-0.55 -0.62,0 -0.15,-0.83 -1.32,0.25 -0.63,-1.02 -0.69,0.11 -1.36,-1.42 -1.29,-0.3 -1.13,-1.71 -1.06,0.16 -0.68,0.85 -0.24,2.71 -0.58,0.56 -1.68,-0.77 -2.32,0.83 -3.08,-0.29 -2.85,0.42 -0.14,-0.54 -0.48,0.78 1.08,0.33 -1.27,0.46 0.75,0.76 -0.46,1.22 -0.73,-0.11 0.6,1.17 -1.28,0.84 0.15,0.72 -0.97,0.14 -2.66,-0.96 -0.48,0.37 -2.97,-2.2 -0.69,0.06 -0.06,0.76 -1.24,-0.53 -0.45,0.88 -0.84,-0.24 0.02,1 -1.43,0.56 -0.35,-0.31 -0.11,0.5 -0.48,-0.32 -0.79,1.01 -0.76,-0.7 -2.39,1.04 -1.9,3.63 -1.18,0.31 -1.17,-0.15 -1.05,-0.9 -0.09,-1.99 -0.59,-1.04 -1.9,-0.62 -1.11,-0.86 -1.36,0.72 -0.01,-0.82 -0.82,0.26 -1.16,-0.29 -0.75,-0.72 -0.39,0.38 -0.97,-0.48 -2.26,0.95 -1.2,1.44 -0.77,-0.91 -0.91,0.46 -0.9,-0.38 -0.13,-1.72 -1.51,-0.31 -0.15,-1.09 -0.71,0.61 -0.68,-2.22 -1.05,-0.93 -4.07,1.09 -1.44,-0.09 -1.53,-2.06 -0.49,0.09 0,-2.18 -0.92,0.25 0.7,-1.25 -4.26,1.45 -7.35,0.82 -0.47,0.67 -0.59,-0.64 -1.69,-0.03 -3.1,1.48 -2.81,0.08 -1.08,1.28 -0.39,-0.41 -0.71,0.7 -1.4,0.28 -0.71,0.96 -1.53,-0.01 -1.23,0.62 -0.34,0.71 -4.07,-1.58 -1.07,2.64 -1.15,-0.43 -0.72,-1.02 -1.17,0.42 -0.76,0.92 0.1,1.49 0.82,0.93 -0.42,1.05 0.13,2.81 -1.36,0.29 -1.14,2.34 -2.14,1.37 0,0 -0.02,-0.71 -0.94,-0.75 -1.74,0.91 -1.56,0.02 -0.65,-2.06 -1.22,0.37 -1.46,2.36 -0.97,0.71 -2.16,0.69 -3.62,0.1 0.28,-0.58 -0.55,-0.52 -0.01,-1.14 -0.57,0.21 -0.77,-0.45 -0.33,0.48 -0.51,-0.78 0.21,-1.93 -0.94,-1.44 0.54,-2.91 1.37,-1.19 0.86,-1.62 -0.01,-1.84 2.3,-4.53 0.6,-3.22 -1.35,-0.22 -0.66,-1.48 -2.29,0.49 -2,-0.98 0,0 -0.13,-0.56 0.66,-0.82 0,0 -0.53,-0.95 -0.38,-3.38 1.02,-1.94 -1.32,-1.08 -1.48,-3.37 -1.29,-1.19 -1.07,-2.3 -4.39,-3.75 -2.07,0.29 -0.48,-1.16 0.31,-2 -0.85,-0.26 -0.28,-2.11 0.13,-0.97 2.47,-1.6 -0.61,-2.62 -0.84,-0.66 0.89,-0.87 -0.21,-3.67 4.43,-4.07 1.09,-3.94 z"
     title="Košický"
     id="SK-KI" />
  <path
     d="m 122.16829,162.38235 1.48,-0.53 0.53,-0.95 0.81,0.16 1.15,-1.03 0.33,-1.16 -0.05,-2.54 -0.73,-0.58 -0.85,-3 -0.77,-0.71 -0.51,-3.48 1.43,-1.47 1.33,-0.13 1.2,1.45 4.97,-0.11 1.93,1.11 1.46,-0.51 3.55,3.24 1.37,4.32 1.66,1.61 1.42,-0.78 1.6,0.86 1.09,-0.28 1.27,0.68 1.44,4.04 1.15,1.71 -0.31,1.88 -2.42,2.34 1.64,1.35 -0.84,0.96 -0.03,1.05 0.36,0.51 3.14,-0.04 1.17,0.93 2,3.39 1.55,1.67 0.53,2.62 0.66,0.92 3.17,0.96 0.88,-0.53 0.27,-1.24 0.32,1.3 1.37,1.27 0.45,-1.56 1.96,-1.12 3.24,-3.29 2.86,-1.34 2.9,-2.71 1.95,-0.1 0,0 0.2,2.01 0.79,1.06 0.11,1 -1.49,1.43 -0.44,2.1 1.18,0.19 0.23,-1.07 0.92,-0.37 1.53,0.01 1.12,0.55 0.33,-0.27 0.74,1.35 -0.73,3.74 1.24,-0.15 -2.47,3.73 1.46,0.08 0.19,2.08 0.82,1.05 -1.74,4.25 -0.07,1.2 -1.03,0.9 -0.31,1.25 0.14,6.44 1.07,1.71 0.15,1.11 0.91,1 -0.12,0.87 0.52,0.4 0.51,-1.27 1.48,-1.34 1.67,-2.61 2.88,1.01 2.74,-1.38 0.72,-0.91 1.84,0.41 0.33,0.84 2.08,-1.38 0.73,-0.75 -0.08,-2.13 1.05,-0.39 -0.14,-1.33 0.69,-0.09 0.8,-0.98 -0.26,-0.58 1.86,-1.28 1.55,-2.29 1.55,-0.05 1.2,1.06 -0.19,1.09 2.05,1.9 0.94,2.22 0.53,-0.21 2.34,1.25 1.47,4.03 0.19,2.58 0.73,1.23 1.31,0.16 0.65,2.21 -1.12,3 0.06,3.18 -1.72,0.57 -1.18,0.99 -0.69,1.92 1.42,1.74 -0.05,0.42 -0.86,0.05 -0.07,0.8 2.12,3.24 -1.67,1.96 -0.77,-0.17 -1.02,1.34 0.56,3.1 1.74,0.33 0.35,-0.25 -0.12,-1.3 0.61,-0.35 2.34,0.75 0.96,0.98 3.41,0.94 4.45,0.25 -0.79,-2.34 0.64,-1.79 0.92,0.27 0.96,1.58 1.3,-2.14 0.97,0.9 3.97,-1.35 0.31,-0.47 1.15,0.43 1.32,-0.43 1.6,-1.94 2.37,1.63 -0.94,1.04 0.76,0.8 -1.07,0.96 -0.3,1.98 -0.8,0.54 1.37,2.09 0.41,2.39 -1.83,2.82 -2.21,1.58 -0.38,1.63 -1.09,0.51 0.02,2.55 0,0 -0.52,0.2 -0.18,0.88 -1.02,0.11 -1.7,2.12 -4.92,-0.54 -3.12,1.11 -1.72,-0.49 -0.37,-0.59 -0.64,1.05 0.15,0.49 -1.98,-0.03 -1.04,0.5 -1.16,-0.77 -1.33,0.75 -0.93,1.46 0.51,0.27 0.13,0.83 -1.23,1.39 0.44,2.29 -0.51,2.3 -0.27,-0.52 -0.49,0.72 0.48,0.15 -1.25,0.99 -1.94,-0.38 -0.85,0.44 -0.27,-0.47 -0.58,0.49 0.44,0.33 -0.95,0.42 -0.54,0.94 0.44,0.93 1.11,0.67 0.55,1.75 -0.96,0.14 0.7,3.13 -1.75,2.05 0.83,1.67 -0.47,0.33 0.37,0.45 -0.51,1.03 0.4,2.05 -0.37,0.2 0.22,2.18 3.06,0.71 0.78,1.11 2.45,1.16 0.9,2.41 2.09,1.22 -0.21,1.58 -5.89,-0.87 -5.87,1.62 -1.32,3.88 -4.68,3.3 -1.89,0.8 -5.05,0.78 -5.28,-1.27 -2.84,0.13 -2.46,1.5 -2.34,0.46 -0.73,-0.09 -1.65,-1.3 -2.32,-0.57 -3.84,1.85 -2.85,0.37 -5.38,2.1 -5.09,0.95 -6.93,-1.69 -5.73,0.12 -3.61,-1.18 -6.86,-1.25 -4.73,-0.02 -2.88,1.62 -3.32,-1.79 -2.74,2.07 -3.59,0.17 -1.6,0.64 -4.14,-1.06 -1.44,0.66 -3.8,-0.13 -2.55,0.56 -2.300004,-1.47 -5.7,-1.29 -1.76,-2.04 0,0 1.9,-1.8 1.05,-4.71 1.93,-0.05 0.4,0.67 1.23,0.01 0.67,0.56 0.870004,-1.9 2.89,-1.9 0.44,-1.29 -0.47,-3.04 1.16,-2.34 2.35,-0.79 1.85,-2.78 3.04,-1.76 1.39,-1.7 -2.48,-2.46 1.18,-2.05 -0.65,-3.96 0.76,-3.97 -1.27,-2.37 0.26,-2.13 -0.43,-1.01 1.57,-1.21 -0.5,-1.01 0.08,-1.45 -0.85,-0.96 -1.4,-0.11 -1.78,-1.16 1.15,-1.53 -0.72,-1.23 -2.74,2.09 -1.14,-0.21 -0.46,-2.18 1.27,-3.14 -0.15,-2.14 -2.95,-3.41 -3.970004,-2.47 2.540004,-1.85 1.42,-0.05 0.86,1.26 0.86,0.03 1.44,-1.78 -1.89,-3.74 2.03,0.26 1.27,-0.34 1.18,1.07 0.47,-1.07 2.36,-1.07 1.09,-1.18 0.28,-1.8 -0.37,-1.32 -2.89,-0.92 -1.21,-1.98 0.35,-1.09 0.99,0.59 1.24,-0.8 -0.1,-1.09 -0.6,-0.59 1.66,-2.67 -0.61,-1.4 -2.31,-0.24 -0.74,-1.49 1.47,-1.19 0.29,-4.16 1.17,-0.91 -0.46,-2.1 1.63,-1.26 -0.45,-0.68 1.03,-0.54 0.4,-1.35 2.61,-3.97 1.72,-3.98 -0.06,-0.82 1.13,-1.81 1.59,-0.03 -0.31,-0.97 1.27,-1.9 -0.38,-1.06 -2.56,-1.8 -3.09,-3.82 -0.98,-0.76 -3.47,-0.77 -0.41,-0.71 -0.77,0.03 -0.1,-1.04 1.85,-1.46 0.99,-5.2 1.94,-2.33 0.63,-2.49 2.14,0.75 0.75,0.82 2.98,-0.24 -0.28,-1.09 1.33,-0.11 1.34,-1.23 z"
     title="Nitriansky"
     id="SK-NI" />
  <path
     d="m 477.77829,27.46235 3.01,-0.49 1.3,0.21 0.53,0.84 1.58,0.77 0.61,1.37 1.28,-0.39 2.03,0.21 0.44,1.08 2.87,2.32 1.44,-0.03 1.19,-0.6 1.82,0.29 1.35,-2.32 0.54,-0.2 2.82,1.9 0.38,-0.41 -0.45,-0.88 1.28,-1.53 2.19,0.32 1.5,-1.33 0.96,0.87 1.66,0.39 0.54,-0.46 0.78,0.18 1.25,-1.44 1.91,-0.62 1.22,2.77 1.59,1.22 0.03,1.05 2.45,0.98 1.93,-1.29 2.33,1.08 0.5,2.26 0.95,-0.04 0.8,1.18 2.19,1.33 0.48,2.92 0.96,1.46 1.33,0.39 -0.14,-2.27 0.93,-1.65 1.65,-0.62 1.4,-1.33 1.66,-0.11 0.75,0.88 0.01,1.19 1.18,1.54 0.62,0.05 0.79,-0.69 1.2,0.36 1.08,2.26 1.03,1.09 0.39,-0.49 1.15,-0.05 1.45,1.21 2.57,-0.57 0.75,0.26 2.41,6.11 1.71,2.12 3.4,2.83 -0.1,2.72 1.22,1.22 -1.01,4.88 1.65,1.35 6.01,2.15 4.11,0.72 0.19,1.27 3.65,1.68 1.09,1.07 0.93,-0.31 1.27,-1.33 1.47,0.24 0.77,0.74 0.35,1.35 -0.91,1.8 0.02,1.06 2.4,0.15 7.47,2.68 1.64,-1.69 3.59,0.25 1.24,2.13 1.05,0.52 0.2,1.41 3.36,3.29 0.61,0.13 1.73,-0.86 1.36,0.04 3.89,2.77 0.61,0.11 1.41,-1.05 3.17,-0.44 2.51,1.44 -1.35,1.4 -0.23,8.02 -1.41,1.19 0.87,2.34 -2.64,1.6 -2.07,-0.48 -2.47,1.2 -0.49,2.58 -0.85,0.63 -4.44,7 0.69,1.38 -0.69,1.2 -0.43,4.51 -2.55,1.46 -1.3,1.94 0,0 -0.73,-0.51 -3.5,-0.17 -1.66,-0.89 -2.2,0.89 -5.13,0.18 -0.26,-2.39 -1.03,-1.49 -1.05,-4.33 -1.15,-0.81 -3.4,-0.43 -3.09,3.14 -0.95,2.17 -1.98,0.79 -0.81,0.89 0.3,5.44 -0.45,0.82 -6.17,-0.11 -4.43,1.02 -3.54,-0.02 -0.75,-1.4 -3.67,-0.39 -1.86,-3.13 -2.84,-1.94 -5.4,-2.1 -1.86,0.23 -0.78,0.55 -0.61,-0.44 -0.63,0.26 -1.09,-2.01 -1.73,-0.21 -1.1,0.78 -0.37,2.23 0.69,9.97 1.12,1.68 -0.2,1.73 -2.07,1.74 -1.95,0.62 -0.57,2.48 -0.01,-0.75 -0.98,-0.1 -4.21,2.31 -2.43,0.38 -1.72,-1.37 -1.12,-1.69 -4.22,1.3 -2.26,-1.35 -1.95,0.06 0.1,-0.97 -0.75,-0.72 -3.79,-0.99 -1.3,-2.23 0.22,-1.79 -0.89,-1.78 -1.57,-0.78 -1.23,-1.57 -0.16,-1.42 1.03,-1.17 -0.61,-0.69 -1.28,-0.33 -0.07,-2.91 -1.86,1.43 -1.24,0.19 0,0.76 -0.6,0.29 -2.22,-0.4 -0.57,-2.71 -0.61,-0.9 -0.32,3.53 -2.08,-1.91 -1.69,0.43 -0.46,0.52 0.72,1.73 -0.32,0.39 0.11,2.4 -0.97,0.97 -0.34,1.19 -3.08,-0.01 -0.94,0.84 -1,-0.63 -0.85,0.35 -1.46,1.31 0.1,1.83 -1.99,0.89 -2.45,-1.46 -1.28,-1.58 1.63,-5.57 -0.54,-1.76 -2.18,0.94 0.06,-1.81 -1.34,-0.05 -0.29,0.94 -2.67,-1.57 -1.99,2.1 -1.6,-1.49 -0.95,-2.46 -1.66,-0.5 -0.92,-0.81 -1.39,1.36 -3.02,-0.21 -3.02,-1.23 -4.49,-0.26 -0.44,-2.82 -1.57,-0.92 -2.41,-4.02 -3.06,2.3 -0.52,-0.23 -1.24,-2.61 -1.75,-1.28 -2.36,-0.63 -5.79,1.83 -0.29,-0.71 -1.57,0.02 -0.76,-0.83 1.85,-1.23 0.2,-0.85 -2.92,1.12 -2.25,-1.68 -1.23,-0.1 -1.2,-0.75 -0.54,0.44 1.03,1.31 -0.12,1.32 1.16,1.72 -0.19,0.29 -1.12,0.79 -0.75,-0.06 -0.49,-1.35 -0.55,-0.29 -2.18,1.65 -0.95,-1.88 -0.79,-0.3 -3.27,1.1 -0.47,0.42 0.02,1.52 -1.21,1.04 -0.31,2.38 0.35,0.91 -2.13,-1.62 -0.95,-0.2 -3.63,-5.77 -2.41,0.18 -1.26,0.75 -2.47,-1.33 -0.26,-1.09 -1.99,-1.68 -1.16,-2.34 -0.66,-0.42 -2.45,2.35 -0.48,1.36 3.45,4.4 -1.67,-0.05 -0.86,-0.94 -1.88,-0.73 -1.18,-1.36 -3.15,-2.24 -3.58,-1.48 -1.6,2.03 -1.94,0.5 -1.5,0.94 -0.67,0.99 -1.25,0.44 -3.59,3.73 0.24,0.89 1.11,0.83 0.1,0.94 -0.16,0.55 -1.41,0.87 -0.04,4.11 -0.76,1.14 0.03,1.07 0.54,0.61 -0.24,1.52 -1.49,0.41 -1.78,-1.44 0,0 -1.48,-0.47 -2.79,-3.08 -1.31,-0.4 -1.54,0.21 -2.2,-2.06 -1.53,2.59 -1.94,1.33 -8.93,-1.3 -1.22,-1.53 -5.28,-0.49 0,0 0.43,-1.09 3.28,-0.64 2.29,-1.99 -0.42,-0.41 -1.81,-0.15 -1.61,-4.58 0.52,-1.35 -1.45,-0.96 -1.15,-2.75 -3.65,-2.61 0.33,-0.88 1.85,0.63 3.27,-1.43 -0.01,-3.08 1.08,-2.75 -0.18,-2.72 1.45,-3.9 0.14,-2.23 -1.41,-0.86 -1.34,0.83 -2.64,-0.46 -1.18,0.24 -0.99,-1.93 -0.15,1.15 -0.59,0.31 -1.66,-2.62 -1.7,0.12 -0.3,-1.17 -2.27,0.94 -0.64,-0.23 0.94,-2.31 -0.28,-0.54 0.38,-1.2 -3.23,-4.97 -0.62,-2.05 0,0 0.38,-0.88 2.68,-2 0.23,-2.58 2.13,-0.94 2.36,0.21 4.27,0.55 2.42,2.12 -0.11,0.96 1.41,1.68 1.92,0.77 3.42,2.78 1.7,0.04 0.12,-4.24 0.77,-1.92 0.81,-0.69 -0.63,-2.38 0.86,-1.09 0.24,-1.96 2.09,-2.98 0.37,-3.53 2.01,-3.26 0.52,0.02 0.88,1.81 1.58,-1.54 -0.71,-1.5 0.27,-0.64 1.32,-0.09 1.01,-2.21 1.91,-0.59 1.11,-1.21 1.04,1.07 1.19,-0.84 2.77,0.61 0.54,-0.69 0.81,-0.1 1.51,0.18 1.28,1.05 0.82,0 0.72,-0.85 0.18,-4.68 0.83,-1.96 -1.69,0.11 0.75,-2.01 1.35,-0.34 2.84,0.83 1.21,-1.52 0.72,0.84 0.05,1.73 1.19,0.21 1.96,-0.75 0.24,-1.37 0.53,-0.51 1.12,0.65 0.46,1.07 0.4,-1.65 -0.78,-0.23 0.22,-1.49 1.66,0.9 0.39,-0.15 -0.42,-0.41 2.66,-0.08 2.44,1.65 1.15,0.28 0.52,1.82 1.26,0.06 2.91,1.2 1.04,0.99 1.83,0.41 0.59,-1.05 1.06,0.18 1.07,-1.07 0.26,-1.38 1.07,-1.41 0.4,-2.09 3.35,2.8 1.6,-0.56 3.55,-2.68 1.79,0.28 1.44,0.81 1.48,-0.32 0.56,0.8 -0.26,1.29 1.52,0.72 -1,1.31 1.29,1.18 -0.06,2.14 2.67,-0.57 0.26,0.54 -0.41,1.47 1.76,-0.15 1.1,0.82 -0.39,0.73 -0.73,-0.98 0.3,0.77 -0.5,1.8 1.69,-0.56 1.45,2.08 1.05,0.05 1.91,-2.08 1.02,-0.1 2.06,3.09 -1.03,1.36 1.28,0.03 0.52,-0.83 1.39,-0.33 0.59,1.04 -0.28,0.84 0.55,1.21 1.91,1.71 3.48,-1.84 3.03,0.08 0.6,-0.82 -0.85,-2.43 2.02,-1.03 0.45,-1.95 0.67,-0.16 2.57,-2.78 0.58,-0.13 0.92,0.59 1.12,-0.52 0.82,0.93 0.64,-0.7 1.36,-0.2 1.2,-1.73 -3.7,-3.21 0.01,-1.03 -1.66,-0.59 -0.61,-1.88 0.45,-0.72 1.29,-0.08 3.41,-1.33 1.74,1 0.7,-1.8 0.6,-0.13 2.85,1.39 0.45,1.1 0.84,0.24 1.64,1.57 0.13,1.12 1.28,0.08 0.91,-0.48 0.76,0.36 1.97,-2.35 -0.35,-1.46 1.04,-1.86 0.82,0.41 2.6,-2.15 0.64,-2 0.8,-0.1 z"
     title="Prešovský"
     id="SK-PV" />
  <path
     d="m 39.038286,121.32235 5.15,1.16 1.44,1.1 1.93,0.05 0.77,1.23 2.26,1.72 1.65,-0.46 0.57,1.41 2.98,2.25 0.88,1.29 1.52,-0.86 2.15,0.78 0,0 -0.79,3.39 -3.83,1.99 -0.13,0.99 1.67,1.34 1.08,-0.52 0.57,0.37 3.59,-2.81 0.53,1.33 -0.2,0.66 2.06,1.16 0.62,-0.44 0.65,0.94 1.21,0.08 1.25,2.42 1.4,0.47 0.4,1.44 -0.34,1.71 -1.51,0.53 -0.99,2.92 0.64,1.15 -0.04,1.67 0.99,0.16 0.9,3.47 3.49,6.33 0.74,-0.82 1.11,0.48 0.28,-1.14 0.96,-0.39 1.38,-1.66 1.92,0.86 4.53,-0.9 0.25,-0.18 -0.96,-1.66 0.36,-1.44 0.78,-0.03 0.02,0.66 0.57,0.44 1.84,0.14 -0.12,-0.88 2.06,-1.29 0.46,0.16 1.47,-1.39 0.77,0.16 0.8,-1.09 2.35,1.84 2.12,3.23 4.420004,2.13 1.8,-0.3 0.4,0.56 0.6,-0.47 1.25,0.1 0.22,-2.29 1.64,0.16 0.45,0.13 -0.2,1.53 0.73,1.45 0.46,0.03 0.26,-0.93 -0.1,0.97 0.32,0.03 0.54,-1.05 1.14,1.55 0.55,-0.31 3.3,1.22 3.56,0.26 1.61,1.42 1.97,-0.65 0,0 -0.19,2.98 -1.34,1.23 -1.33,0.11 0.28,1.09 -2.98,0.24 -0.75,-0.82 -2.14,-0.75 -0.63,2.49 -1.94,2.33 -0.99,5.2 -1.85,1.46 0.1,1.04 0.77,-0.03 0.41,0.71 3.47,0.77 0.98,0.76 3.09,3.82 2.56,1.8 0.38,1.06 -1.27,1.9 0.31,0.97 -1.59,0.03 -1.13,1.81 0.06,0.82 -1.72,3.98 -2.61,3.97 -0.4,1.35 -1.03,0.54 0.45,0.68 -1.63,1.26 0.46,2.1 -1.17,0.91 -0.29,4.16 -1.47,1.19 0.74,1.49 2.31,0.24 0.61,1.4 -1.66,2.67 0.6,0.59 0.1,1.09 -1.24,0.8 -0.99,-0.59 -0.35,1.09 1.21,1.98 2.89,0.92 0.37,1.32 -0.28,1.8 -1.09,1.18 -2.36,1.07 -0.47,1.07 -1.18,-1.07 -1.27,0.34 -2.03,-0.26 1.89,3.74 -1.44,1.78 -0.86,-0.03 -0.86,-1.26 -1.42,0.05 -2.540004,1.85 3.970004,2.47 2.95,3.41 0.15,2.14 -1.27,3.14 0.46,2.18 1.14,0.21 2.74,-2.09 0.72,1.23 -1.15,1.53 1.78,1.16 1.4,0.11 0.85,0.96 -0.08,1.45 0.5,1.01 -1.57,1.21 0.43,1.01 -0.26,2.13 1.27,2.37 -0.76,3.97 0.65,3.96 -1.18,2.05 2.48,2.46 -1.39,1.7 -3.04,1.76 -1.85,2.78 -2.35,0.79 -1.16,2.34 0.47,3.04 -0.44,1.29 -2.89,1.9 -0.870004,1.9 -0.67,-0.56 -1.23,-0.01 -0.4,-0.67 -1.93,0.05 -1.05,4.71 -1.9,1.8 0,0 -1.28,-1.47 -5.16,-3.47 -2.78,-3.36 -3.65,1.08 -1.06,-0.41 -1.84,-3.19 -0.55,-2.19 -1.94,-2.33 -2.69,-0.24 -2.99,-2 -1.55,-0.52 -3.1,-6.69 -3.48,-3.98 -1.74,-1.13 -4.76,-5.66 -1.09,-0.38 -5.71,0.14 -1.84,-0.78 -0.61,-1.99 0,0 1.16,-1.22 -0.11,-1.05 0.98,-0.04 1.54,-2.08 2.7,-1.37 -0.68,-1.28 -0.12,-1.54 0.53,-0.21 1.02,1.04 2.07,-0.3 0.49,-3.05 1.48,-0.3 -0.07,-0.8 -1.12,-0.59 -1.09,1.31 -0.96,0 -1.12,-0.84 -0.8,-1.52 0.34,-1.61 -0.5,-0.6 0.19,-0.75 0.62,-0.11 1.24,0.76 1.63,-0.97 0.65,0.22 2.88,-2.26 1.13,0.29 1.11,-1.92 -1.09,-0.61 -0.46,-1.72 1.29,-1.15 1.95,0.64 -0.09,2.3 1.66,0.08 1.91,1.29 2.94,-1.05 0.78,-1.76 1.14,-1.16 1.77,-0.07 0.34,-0.84 1.52,-0.16 0.37,-0.58 -0.1,-2.57 -1.2,-0.55 -0.17,-0.72 1.27,-1.82 0,-1.07 -2.99,-1.41 -1.38,-0.13 -0.61,-0.64 0.98,-3.74 3.48,-4.38 -1.34,-1.53 -1.13,0.89 -0.46,-0.19 -1.77,-1.42 -0.57,-1.28 -1.11,-0.11 0.59,-1.61 -1.11,-1.13 1.24,-0.55 1.56,-4 -0.62,-2.43 -1.88,-1.78 -1.72,0.67 -0.58,-0.74 -1.41,-4.95 -1.44,-0.64 0.05,-1.33 -1.7,-0.24 0.53,-3.07 -3.32,-0.03 -1.74,-1.89 -2.81,-0.13 -1.5,-1.75 -0.17,-0.71 1.08,-1.42 0.03,-0.69 1.91,-0.66 0.57,-1.26 -0.09,-1.02 0.81,-0.52 0.22,-0.72 -1.94,-0.92 -0.07,-1.41 -2.17,-0.34 -0.45,-1.98 -3.36,-2.39 0.33,-1.01 3.94,-2.71 0.74,-2.65 2.05,-0.16 1.3,-2.06 1.71,-1.03 0.39,-0.86 -0.22,-1.75 -1.36,-2.69 -1.49,-0.63 -1.51,-1.34 -6.83,10.1 -2.46,1.55 -0.52,1.81 -2.47,0.44 -2.62,1.41 -7.37,1.66 -0.96,-0.26 -0.71,-1.41 -2.06,1.16 -3.95,-2.38 -0.11,0.64 1.13,1.32 0,0.62 -1.48,-0.12 -0.3,-0.55 -3.39,1.4 -3.29,0.37 -0.21,1.72 -2.98,-0.02 0,0 0.26,-0.46 -0.54,-0.37 -0.07,-0.71 0.93,-0.53 -0.87,-1.02 0.06,-1.33 -0.95,-1.45 -0.01,-0.35 0.72,-0.07 -0.57,-0.49 0.23,-1.29 -0.48,-2.83 0.71,-0.68 0.05,-2.06 1.48,-0.9 0.98,-2.64 0.71,-0.37 -0.79,-0.54 1.13,-0.21 -0.61,-0.67 0.06,-2.71 4.27,-4.27 -1.22,-1.44 0.18,-0.98 1.44,-1.44 0.14,-1.59 2.76,-3.81 0.41,-1.97 4.83,-3.31 0.22,-1.69 1.53,-1.63 0.04,-2.73 0.42,-0.94 4.66,-2.41 3.82,-4.46 0.53,-0.42 z"
     title="Trnavský"
     id="SK-TA" />
  <path
     d="m 159.56829,49.17235 0.78,0.4 2.44,-0.62 2.13,0.11 -0.07,2.17 0.83,1.24 0.93,0.51 2.08,3.91 1.63,1.65 -0.1,1.73 1.56,1.65 0.26,1.19 -0.34,0.94 0.69,0.98 0.11,1.19 1.82,1.32 0.31,2.28 1.34,0.57 3.4,3.23 2.03,1.13 1.25,0.2 0.1,1.64 3.25,1.11 0.27,2.78 1.44,1.37 -0.85,1.84 -1.75,1.13 -0.94,1.43 3.35,1.14 1.57,2.49 -0.36,0.89 0.33,0.91 -0.75,1.2 0.5,1.25 -0.16,2.62 -1.21,0.69 -0.33,1.32 -1.93,2.32 -0.68,0.49 -3.23,0.48 -2.24,1.45 -0.05,1.08 -1.13,1.8 -1.22,0.13 -1.9,1.11 -0.63,-0.12 0,1.14 1.41,1.54 5.22,0.48 1.48,-1.36 2.18,-0.52 0.31,-1.36 1.17,-1.8 1.38,-0.45 -0.2,1.07 0.83,1.08 1.76,-0.06 2.14,-0.84 4.56,1.42 2.43,-0.56 2.06,2.04 0.31,0.97 -0.83,1.8 -0.6,-0.19 -0.01,1.05 -1.08,1.8 1.7,2.41 -1.4,2.83 0.52,0.65 -0.31,4.64 2.34,1.22 1.17,1.4 1.02,-0.13 1.1,0.78 0.17,1.26 0.63,-0.11 0.86,1.02 1.33,0.21 -0.1,3.34 3.32,3.49 0.58,1.79 0.99,0.29 0.21,2.41 0,0 0.01,0.82 -0.64,0.49 -1.2,3.06 -1.47,2.31 -1.43,0.97 -1.72,-0.57 -1.21,0.99 -1.09,4.77 -2.86,2.32 0.49,2.14 -0.18,1.32 -2.12,-0.98 -1.08,0.26 -1.5,-0.36 -2.02,-1.04 -1.66,1.7 -1.97,3.9 -1.39,0.93 -0.79,1.35 0.13,1.71 -0.47,1.16 -1.21,0.13 -1.08,0.95 -3.8,0.04 -3.05,-0.82 -1.69,0.07 -0.5,3.65 0,0 -1.95,0.1 -2.9,2.71 -2.86,1.34 -3.24,3.29 -1.96,1.12 -0.45,1.56 -1.37,-1.27 -0.32,-1.3 -0.27,1.24 -0.88,0.53 -3.17,-0.96 -0.66,-0.92 -0.53,-2.62 -1.55,-1.67 -2,-3.39 -1.17,-0.93 -3.14,0.04 -0.36,-0.51 0.03,-1.05 0.84,-0.96 -1.64,-1.35 2.42,-2.34 0.31,-1.88 -1.15,-1.71 -1.44,-4.04 -1.27,-0.68 -1.09,0.28 -1.6,-0.86 -1.42,0.78 -1.66,-1.61 -1.37,-4.32 -3.55,-3.24 -1.46,0.51 -1.93,-1.11 -4.97,0.11 -1.2,-1.45 -1.33,0.13 -1.43,1.47 0.51,3.48 0.77,0.71 0.85,3 0.73,0.58 0.05,2.54 -0.33,1.16 -1.15,1.03 -0.81,-0.16 -0.53,0.95 -1.48,0.53 0,0 -1.97,0.65 -1.61,-1.42 -3.56,-0.26 -3.3,-1.22 -0.55,0.31 -1.14,-1.55 -0.54,1.05 -0.32,-0.03 0.1,-0.97 -0.26,0.93 -0.46,-0.03 -0.73,-1.45 0.2,-1.53 -0.45,-0.13 -1.64,-0.16 -0.22,2.29 -1.25,-0.1 -0.6,0.47 -0.4,-0.56 -1.8,0.3 -4.420004,-2.13 -2.12,-3.23 -2.35,-1.84 -0.8,1.09 -0.77,-0.16 -1.47,1.39 -0.46,-0.16 -2.06,1.29 0.12,0.88 -1.84,-0.14 -0.57,-0.44 -0.02,-0.66 -0.78,0.03 -0.36,1.44 0.96,1.66 -0.25,0.18 -4.53,0.9 -1.92,-0.86 -1.38,1.66 -0.96,0.39 -0.28,1.14 -1.11,-0.48 -0.74,0.82 -3.49,-6.33 -0.9,-3.47 -0.99,-0.16 0.04,-1.67 -0.64,-1.15 0.99,-2.92 1.51,-0.53 0.34,-1.71 -0.4,-1.44 -1.4,-0.47 -1.25,-2.42 -1.21,-0.08 -0.65,-0.94 -0.62,0.44 -2.06,-1.16 0.2,-0.66 -0.53,-1.33 -3.59,2.81 -0.57,-0.37 -1.08,0.52 -1.67,-1.34 0.13,-0.99 3.83,-1.99 0.79,-3.39 0,0 2.14,-2.12 1.16,0.17 0.68,-1.99 0.95,0.27 1.04,-1.39 2.73,0.91 3.92,3.94 0.99,0.37 1.46,-0.81 1.06,0.3 1.54,-1.23 3.03,-0.2 0.85,-2.23 2.08,-0.32 0.48,-1.28 1.02,-0.89 3.58,-0.02 2.06,-1.11 1.95,0.21 1.58,-2.09 1.96,-1.47 2.17,-3.6 2.390004,-1.65 0.34,-1.57 6.98,-0.47 2.07,0.75 1.66,-0.85 1.63,-4.95 0.3,-3.64 1.05,-2.12 0.12,-2.63 1.31,-1.4 1.06,-0.74 4.32,0.17 1.4,-0.76 3.91,0.64 4.88,-2.39 3.07,-3.59 -0.09,-1.41 1.97,-4.23 -0.5,-3.48 0.41,-0.62 0.67,-0.06 -1.18,-2.49 0.73,-1.35 0,-1.43 1.94,-1.65 -0.53,-1.35 0,-2.91 1.61,-2.01 0.37,-2.19 0.6,-0.58 0.07,-1.93 -1.04,-0.51 0.11,-2.46 4.13,-4 -0.03,-2.53 4.08,-1.22 4.5,-0.39 3.64,-1.39 0.24,-0.57 z"
     title="Trenčiansky"
     id="SK-TC" />
  <path
     d="m 281.26829,0.30235 1.03,1.46 -0.58,1.41 0.84,1.19 2.24,1.23 1.38,0.09 0.73,1.12 1.23,0.38 -0.06,5.61 2.37,4.77 0.23,3.04 1.28,1.55 0.32,1.44 1.44,1.67 0.25,1.09 1.5,-0.35 1.62,1.56 3.03,-1.61 -0.33,2.48 1.2,1.14 -2.01,4.42 3.15,0.05 2.11,0.95 0.73,-0.1 3.36,2.67 1.3,-0.87 1.27,-2.21 0.85,-0.64 1.87,-0.68 2.49,0.62 0.19,4.9 1.16,2.05 -0.15,1.97 -0.68,1.67 0.43,1.8 0.97,1.26 -1.42,4.16 0.24,0.59 1.39,0.36 1.28,2.85 -3.3,1.77 -0.31,2.52 -2.38,2.5 0.26,1.56 -0.84,1.88 0.8,1.2 1.03,0.25 0.85,0.96 1.1,-0.03 1.03,-1.03 1.3,1.17 1,-0.52 1.12,0.82 3.52,0.01 0,0 0.62,2.05 3.23,4.97 -0.38,1.2 0.28,0.54 -0.94,2.31 0.64,0.23 2.27,-0.94 0.3,1.17 1.7,-0.12 1.66,2.62 0.59,-0.31 0.15,-1.15 0.99,1.93 1.18,-0.24 2.64,0.46 1.34,-0.83 1.41,0.86 -0.14,2.23 -1.45,3.9 0.18,2.72 -1.08,2.75 0.01,3.08 -3.27,1.43 -1.85,-0.63 -0.33,0.88 3.65,2.61 1.15,2.75 1.45,0.96 -0.52,1.35 1.61,4.58 1.81,0.15 0.42,0.41 -2.29,1.99 -3.28,0.64 -0.43,1.09 0,0 -1.91,-1.98 -2.54,1.43 -8.11,-0.37 -4.77,0.66 -1.13,-0.44 -0.61,-0.85 -2.36,-0.09 -2.3,1.45 -1.22,0.04 -1.82,1.11 -1.52,-1.8 -4.78,1.75 -3.04,0 -3.12,-2.53 -1.48,-0.55 -2.75,-1.99 -0.79,-1.04 -2.24,-0.84 -1.56,-0.05 -1.41,-0.83 -1.51,1.04 -3.09,-0.41 -3.64,1.95 -1.65,0.42 -6.74,0 -5.07,5.85 -2.08,4.51 -6.92,1.1 -0.21,-0.61 1.61,-1.36 -0.07,-2.23 -0.63,-1.57 -2.04,-0.94 -3.67,1.03 -1.97,1.91 -1.41,-0.52 -1.33,0.73 -1.1,-0.43 -4.92,0.77 -2.11,-0.4 -0.69,0.32 -1.32,-0.08 -0.87,-0.89 -0.6,-0.03 -1.85,0.82 -0.79,2.87 -1.35,1.71 -1.13,0.12 -0.68,-0.41 -0.46,0.49 0.84,3.7 -0.9,1.62 0.13,1.44 0.51,0.95 2.45,2.12 -0.47,3.63 -1.63,1.31 -0.87,1.63 -2.84,0.37 -2.41,-0.65 -1.45,1.1 -1,-0.06 -1.12,-1.07 -1.84,-0.27 0.07,-1.25 -0.71,-0.06 -0.11,-1.5 -0.8,-0.19 -1.96,1.03 -1.33,1.82 -1.64,0.75 -0.44,0.9 0,0 -0.21,-2.41 -0.99,-0.29 -0.58,-1.79 -3.32,-3.49 0.1,-3.34 -1.33,-0.21 -0.86,-1.02 -0.63,0.11 -0.17,-1.26 -1.1,-0.78 -1.02,0.13 -1.17,-1.4 -2.34,-1.22 0.31,-4.64 -0.52,-0.65 1.4,-2.83 -1.7,-2.41 1.08,-1.8 0.01,-1.05 0.6,0.19 0.83,-1.8 -0.31,-0.97 -2.06,-2.04 -2.43,0.56 -4.56,-1.42 -2.14,0.84 -1.76,0.06 -0.83,-1.08 0.2,-1.07 -1.38,0.45 -1.17,1.8 -0.31,1.36 -2.18,0.52 -1.48,1.36 -5.22,-0.48 -1.41,-1.54 0,-1.14 0.63,0.12 1.9,-1.11 1.22,-0.13 1.13,-1.8 0.05,-1.08 2.24,-1.45 3.23,-0.48 0.68,-0.49 1.93,-2.32 0.33,-1.32 1.21,-0.69 0.16,-2.62 -0.5,-1.25 0.75,-1.2 -0.33,-0.91 0.36,-0.89 -1.57,-2.49 -3.35,-1.14 0.94,-1.43 1.75,-1.13 0.85,-1.84 -1.44,-1.37 -0.27,-2.78 -3.25,-1.11 -0.1,-1.64 -1.25,-0.2 -2.03,-1.13 -3.4,-3.23 -1.34,-0.57 -0.31,-2.28 -1.82,-1.32 -0.11,-1.19 -0.69,-0.98 0.34,-0.94 -0.26,-1.19 -1.56,-1.65 0.1,-1.73 -1.63,-1.65 -2.08,-3.91 -0.93,-0.51 -0.83,-1.24 0.07,-2.17 -2.13,-0.11 -2.44,0.62 -0.78,-0.4 0,0 4.23,-1.29 1.35,-1.22 1.24,-2.37 1.46,-0.8 -0.51,-0.88 1.55,-1.6 0.23,-0.82 -1.15,-4.35 0.7,-0.57 1.62,1.19 1.21,0.24 1.04,-0.29 0.72,-1.28 2.27,-1.21 0.11,-1.58 0.66,-1.34 0.91,-0.56 0.01,-0.93 1.17,-0.17 0.33,-1.09 1.61,-0.87 0.27,-1.23 0.82,-0.21 1.62,-1.56 -1.22,-3.01 0.06,-0.97 1.06,-0.62 0.15,-0.94 2.26,-1.16 3.06,-0.33 0.58,0.34 0.03,1.64 1.74,0.3 1.3,-0.44 0.68,0.31 0.92,-0.92 3.65,-0.87 1.1,1.2 2.25,-0.23 3.31,2 1.48,0 2.98,-2.87 1.74,-0.38 0.88,-0.98 2.76,-0.79 2.22,0.46 1.33,-0.39 0.66,0.62 2.6,0.28 4.59,-0.77 0.75,0.95 1.66,0.84 0.05,0.85 0.77,-0.18 0.17,0.36 -1.09,3 0.69,1.01 -0.47,0.56 -0.42,3.13 1.4,0.46 0.71,2.31 0.86,1.04 -0.4,1.59 -1.66,1.52 0.4,1.92 0.74,0.9 1.99,-0.56 1.27,0.59 2.66,-0.1 1.24,-1.1 -0.18,-0.49 0.79,-1.45 1.94,0.26 0.38,-0.75 1.78,0.21 2.03,1.96 1.27,0.17 1,-0.35 0.78,-0.99 1.33,1.04 2.64,-1.47 1.61,0.52 0.79,-0.81 -0.56,-0.73 0.09,-1.37 -0.59,-0.56 0,-0.77 1.97,-2.45 1.4,0.36 0.7,-1.03 0.3,-1.43 -0.92,-1.64 1.33,-2.08 -0.47,-0.82 0.79,-0.68 -0.04,-2.58 2.7,-2.46 0.28,-0.85 1.2,0.03 1.02,-0.56 1.48,0.35 1.3,-0.57 0.8,0.31 0.17,0.8 4.49,-1.03 0.59,-1.07 -0.19,-1.72 0.92,-0.89 -0.18,-1.51 3.12,-1.16 0.77,-1.09 0.12,-1.54 0.62,-0.53 2.99,-0.78 -0.12,-1.4 0.47,-0.89 0.92,0.26 z"
     title="Žilinský"
     id="SK-ZI" />
</svg>
