<?xml version="1.0" encoding="UTF-8" standalone="no"?>
<!-- Created for MapSVG plugin: http://mapsvg.com -->
<svg
   xmlns:mapsvg="http://mapsvg.com"
   xmlns:dc="http://purl.org/dc/elements/1.1/"
   xmlns:rdf="http://www.w3.org/1999/02/22-rdf-syntax-ns#"
   xmlns:svg="http://www.w3.org/2000/svg"
   xmlns="http://www.w3.org/2000/svg"
   mapsvg:geoViewBox="118.151413 26.384406 122.006759 21.896077"
   width="437.38788"
   height="555.16949">
  
  <path
     d="m 382.57304,157.2095 4.83,1.85 3.11,5.72 1.32,5 -3.36,4.5 -5.8,5.18 -7.57,2.63 -4.4,-1.12 0,0 -0.19,-6.02 3.04,-5 0,0 2.22,-4.99 1.64,-1.5 -0.99,-3.27 z"
     title="Taipei"
     id="TW-TP" />
  <path
     d="m 388.64304,532.4595 0.13,0.13 0.19,-0.1 0.16,0.03 0,0.24 -0.19,0.1 -0.28,-0.07 -0.13,-0.13 0,-0.17 0.12,-0.03 z m -1.11,-0.71 0,0.2 0.35,0.47 0,0.3 -0.16,0.2 0,0.17 -0.19,0.1 0.09,1.05 0.32,0.17 0.13,0.2 0.16,0.03 0.19,0.27 0,0.17 -0.13,0.1 -0.06,-0.2 -0.51,0 -0.03,0.24 -0.22,-0.03 -0.22,0.24 -0.03,0.17 -0.19,0.07 0,0.51 0.13,0.1 0.35,1.05 1.29,1.01 0.57,0.27 0.38,0.07 1.07,0.57 0.22,0.2 0.06,0.2 0.19,0.1 0.03,0.34 -0.22,0.37 -0.32,0.2 -0.38,1.18 -0.44,0.34 -0.5,0.03 -0.5,-0.37 -1.26,0.17 -0.16,-0.91 -0.31,-0.2 -0.13,-0.37 -0.72,-0.78 -0.6,-0.3 -0.13,-0.17 -0.31,-0.1 -0.38,0 -0.88,0.3 -0.13,-0.17 -0.35,-0.17 -0.32,-0.44 -0.35,-0.24 -0.41,-0.81 -0.35,0 -0.16,-0.13 -0.25,-0.44 -0.25,-0.17 0,-0.27 -0.54,0 -0.09,0.17 -0.09,0 -0.13,-0.34 0.25,-0.24 0,-0.24 -0.13,-0.24 -0.19,-0.1 0,-0.24 -0.13,0.03 -0.03,-0.1 0.16,-0.3 0.16,-0.03 -0.03,-0.47 0.19,-0.1 0.03,-0.14 -0.09,-0.03 -0.19,-0.68 -1.04,-1.15 0,-0.2 0.13,-0.13 0.47,-0.24 0.22,0 0.63,0.51 0.91,0 0.31,-0.17 0.25,0.07 0.19,-0.1 0.31,0.1 0.06,0.2 0.13,0.07 0.13,-0.17 1.04,-0.17 1.79,-0.13 0.28,0.34 0.09,0 0.47,-0.3 0.25,-0.3 0.25,-0.07 z m -134.74,-32.81 0.22,0.14 0.16,0.27 0.25,0 0,0.14 0.32,0.1 0.09,0.47 -0.16,0.58 -1.26,0.81 0,0.2 -0.54,0.3 -0.22,0.27 -0.03,0.2 -0.19,0.24 -0.28,0.14 0,0.1 -0.72,0.3 -0.69,-0.27 -0.09,-0.3 0.19,-0.54 0.63,-0.44 0.13,-0.51 0.25,-0.17 0,-0.24 -0.22,-0.37 -0.03,-0.24 0.35,-0.2 0.32,-0.41 0.25,-0.14 0.28,-0.03 0.69,-0.37 0.3,-0.03 z m -13.01,-31.61 1.04,0.27 0.09,0.2 0.22,0.14 0,0.17 0.19,0.07 0.06,0.3 -0.13,0.34 0.25,-0.1 0.19,0.2 0.09,0.24 -0.13,0.1 -0.03,0.31 0.28,0.41 0,0.27 0.6,0.27 0.6,0.88 0.72,0.81 0.09,0.44 -0.19,0.2 0.19,0.1 0.28,-0.3 0.5,0.85 0.16,0.07 0.13,0.27 0.13,0 0.66,0.71 -0.32,0.34 -0.28,-0.13 -0.38,-0.58 -0.19,0 -0.16,0.14 -0.25,-0.27 -0.41,-1.02 -0.72,-0.78 -1.17,-1.63 -0.69,-0.75 -0.35,-0.68 -0.66,-0.78 -0.06,-0.24 -0.41,-0.44 -0.13,0.14 -0.16,-0.07 0,-0.27 0.16,-0.2 0.19,0 z m 139.03,-7.94 0.16,0.44 0.34,-0.07 0.19,0.1 1.29,-0.41 0.03,0.2 0.19,0.24 -0.09,0.14 0.13,0.54 -0.06,0.3 0.09,0.1 0.22,-0.03 0.13,0.1 -0.25,0.17 0.03,0.1 -0.22,0 -0.16,0.2 0.06,0.2 -0.25,0.44 0.06,0.2 0.35,-0.1 0,0.3 -0.09,0.1 -0.35,0 -0.06,0.17 -0.16,0.07 -0.28,0 -0.28,0.61 0,0.1 0.57,0.54 0.06,0.37 0.38,0.48 0.03,0.14 -0.1,0.07 -1.01,-0.1 -0.13,0.17 -0.38,-0.03 -0.22,-0.27 -0.16,-0.58 -0.31,-0.17 -0.19,-0.24 -1.26,-0.27 -0.09,-0.1 -0.19,0.1 -0.22,-0.17 0,-0.27 0.19,-0.41 0,-0.81 -0.41,-0.81 -0.31,-0.37 -0.44,-0.3 -0.1,-0.27 0.1,-0.54 0.16,-0.2 0.31,0 0.98,0.27 0.06,0.17 0.22,0 0.22,-0.1 0.03,-0.14 0.38,-0.3 0.63,0.07 0.03,-0.14 0.15,0 z m 2.27,-0.31 0.22,0.14 0,0.17 -0.16,0.1 -0.28,-0.24 0.06,-0.17 0.16,0 z m -10.61,-54.49 0.09,0.2 0.28,-0.14 0.28,0 0.09,0.17 -0.16,0.2 -0.28,0.03 -0.19,0.17 -0.22,-0.07 -0.47,0.07 0,-0.17 0.58,-0.46 z m -224.07,-11.51 0.76,0.2 -0.22,0.51 -0.28,0.1 -0.06,0.14 0.06,0.37 -0.09,0.11 -0.06,0.58 0.16,0.14 0.03,0.31 -0.22,0.27 -0.16,-0.13 -0.54,-0.11 -0.41,0.58 -0.32,0.1 0.06,0.44 0.19,0.18 0,0.36 -0.16,0.29 -0.13,0 -0.09,-0.07 0.06,-0.2 -0.12,-0.14 -0.31,-0.07 -0.09,-0.13 -0.35,0.1 0,-0.27 -0.41,-0.04 0.03,-0.13 0.32,0 0.09,-0.1 -0.03,-0.13 -0.44,0.07 0.09,-0.27 0.23,-0.14 -0.01,-0.65 -0.41,-0.27 -0.5,-0.69 -0.13,0 -0.13,-0.14 -0.03,-0.34 0.22,-0.06 0.13,0.2 0.07,-0.07 -0.1,-0.2 0.22,0.03 0.13,-0.17 0.47,0.03 0.25,-0.2 0.5,0.03 0.44,-0.21 1.29,-0.21 z m 19.82,-3.9 0.57,0.09 0,0.31 -0.16,0.14 0,0.17 0.29,0.41 -0.04,0.1 -0.25,-0.14 -0.38,0.24 -0.31,-0.24 -0.23,0 -0.22,-0.17 -0.02,-0.2 -0.2,-0.07 0.06,-0.34 0.13,-0.1 0.19,0.03 0.13,-0.17 0.44,-0.06 z m 6.9,-1.25 0.29,0.11 0.09,0.41 -0.09,0.07 -0.13,-0.1 0,0.48 -0.13,0.1 0,0.14 -0.35,0.2 0,0.17 -0.16,-0.03 0.19,0.57 -0.18,0.07 -0.2,0.34 -0.12,-0.24 -0.1,0.04 -0.03,-0.24 -0.38,-0.21 0.04,-0.17 -0.13,-0.07 0.13,-0.34 0.18,-0.03 0,-0.2 -0.31,-0.27 0,-0.2 0.16,-0.27 0.23,-0.14 0.41,-0.1 0.25,0.1 0.34,-0.19 z m -1.82,-0.1 0.09,0.24 -0.22,0.35 -0.44,0 0.03,-0.38 0.09,0 0.09,-0.17 0.36,-0.04 z m -16.07,-0.08 0.38,0.25 -0.03,0.24 -0.16,0.13 -0.19,0 -0.41,0.68 -0.32,-0.1 -0.13,0.34 -0.35,-0.13 -0.03,-0.31 0.19,-0.14 0.19,0 0.25,-0.31 0,-0.38 0.38,-0.17 0.08,-0.14 0.15,0.04 z m -1.1,-0.95 0.18,0.32 -0.02,0.55 -0.16,0.03 -0.06,-0.1 -0.35,-0.03 -0.35,-0.24 -0.03,-0.48 0.79,-0.05 z m -0.95,-2.31 0.03,0.11 0.19,0.03 0,0.12 -0.38,0.46 0,-0.65 0.16,-0.07 z m -18.7,-3.84 0.16,0.2 -0.03,0.27 0.13,0.07 0,0.17 -0.19,0.14 -0.22,-0.1 -0.09,-0.27 0.03,-0.31 0.21,-0.17 z m -1.8,-0.55 0.19,0.37 0.41,0.07 -0.03,0.17 -0.27,-0.07 -0.2,0.1 -0.41,-0.17 0.03,-0.17 0.16,-0.03 -0.03,-0.25 0.15,-0.02 z m 24.69,-2.84 0.19,0.04 0,0.18 -0.13,0.1 -0.13,0 -0.09,-0.13 0.16,-0.19 z m -0.16,-1.56 0.16,0.24 -0.03,0.3 -0.32,-0.1 0,-0.31 0.19,-0.13 z m 69.53,-0.07 0.06,0.1 0.28,0 0.09,0.34 -0.13,0.14 0.19,0.38 -0.13,-0.03 -0.16,-0.27 -0.28,0.03 -0.19,-0.31 -0.06,-0.14 0.06,-0.2 0.27,-0.04 z m -71.05,-1.4 0.1,0.1 0.2,-0.08 0.12,0.28 -0.5,-0.07 -0.03,-0.21 0.11,-0.02 z m 1.52,-0.17 0.13,0.27 0.38,0.31 0.13,0.31 -0.09,0.31 0.16,0.03 0.16,0.26 -0.37,0.07 -0.1,-0.17 -0.35,0.1 -0.54,-0.2 -0.03,0.17 -0.22,0.03 -0.35,0.34 -0.12,0 0.09,0.38 -0.16,0.23 -0.25,0.04 -0.03,-0.14 0.09,-0.03 -0.03,-0.14 0.09,-0.1 -0.25,-0.07 -0.25,0.14 -0.03,-0.24 0.09,-0.1 -0.31,-0.17 0.03,-0.27 0.16,-0.17 0.28,0 0.28,0.14 0.25,-0.31 0.03,-0.17 -0.13,-0.04 0.06,-0.27 0.23,-0.07 0.03,0.1 0.22,0.04 0.07,-0.2 0.12,0.09 0.22,-0.06 0.16,-0.08 -0.03,-0.23 0.18,-0.13 z m -1,-0.27 0.19,0.2 -0.06,0.2 -0.13,0 -0.25,-0.34 0.04,-0.09 0.21,0.03 z m -1.58,-0.69 0.16,0.44 -0.06,0.11 -0.28,0 -0.09,-0.1 0,-0.2 0.13,-0.03 -0.06,-0.2 0.2,-0.02 z m -2.23,-1.51 0.09,0.08 -0.03,0.18 0.22,0.02 0.12,0.14 0,0.31 0.28,-0.07 0.06,0.17 0.09,0 -0.03,-0.17 0.22,-0.07 0.06,-0.31 0.16,0 0.1,0.11 -0.03,0.14 0.22,0.13 0.06,0.21 -0.13,0.24 -0.06,0.68 0.18,-0.03 0.04,0.75 0.35,0.06 0.07,0.11 -0.38,0.48 0.44,0 0.16,-0.44 0.13,0 0.16,0.24 -0.19,0.27 0.12,0.34 -0.09,0.2 -0.13,-0.03 -0.25,0.14 -0.03,0.14 -0.16,0 -0.04,-0.17 -0.28,0.14 0.25,0.38 -0.16,0.27 0.09,0.41 0.25,0.03 0.1,0.2 0.18,0.1 -0.03,0.14 -0.28,0 -0.19,-0.14 -0.41,0.14 -0.09,-0.34 -0.38,-0.07 -0.25,0.31 -0.41,-0.14 -0.13,0.14 -0.54,0.21 -0.06,-0.38 -0.54,-0.17 0.03,-0.1 0.22,-0.07 0.28,-0.51 0.26,-0.2 0.06,-0.21 0.22,-0.01 -0.03,-0.27 -0.22,-0.34 0,-0.14 0.25,-0.17 -0.22,0.03 -0.09,-0.38 0,-0.14 0.19,-0.07 0.01,-0.11 -0.23,-0.1 -0.03,-0.14 0.06,-0.31 0.38,-0.38 0,-0.27 -0.25,-0.17 -0.13,-0.51 -0.35,-0.07 0.25,-0.48 0.44,0.04 z m -19.78,-1.93 0.22,0.27 0.35,0.07 0.12,0.17 -0.03,0.14 0.44,-0.03 0.18,0.24 0,0.2 -0.35,0.24 0,0.38 -0.22,-0.04 -0.25,0.17 -0.35,0 -0.13,0.17 -0.5,0 -0.02,-0.21 -0.13,-0.06 -0.06,-0.51 0.35,-0.38 0.09,0 0.09,-0.34 -0.06,-0.31 0.13,-0.17 0.13,0 z m 94.41,-3.25 0.03,0.21 0.28,0.07 -0.13,0.38 -0.35,-0.24 -0.03,-0.34 0.2,-0.08 z m 152.91,-3.31 0.09,0.07 -0.09,0.38 -0.31,-0.03 -0.03,-0.2 0.09,-0.14 0.25,-0.08 z m -222.66,-3.99 0.47,0.38 0.35,0.1 -0.04,0.21 -0.66,0.07 -0.03,0.1 -0.16,0 -0.82,0.68 -0.76,0 -0.32,0.17 -0.45,-0.01 -0.12,0.25 -0.13,0.03 -0.38,0 -0.25,-0.21 0.07,-0.92 0.44,0.03 0.09,0.54 0.09,0.04 0.13,-0.24 0.13,0 0.06,0.14 0.22,-0.2 0.11,-0.44 0.65,-0.03 0.28,-0.38 0.41,-0.07 0.32,0.07 0.3,-0.31 z m -1.8,-1.99 0.09,0.25 -0.03,0.44 -0.38,0.14 -0.38,-0.03 -0.19,-0.14 0.03,-0.24 0.13,-0.07 0.03,-0.34 0.25,0 0.13,0.17 -0.01,0.17 0.09,-0.07 -0.03,-0.24 0.16,-0.1 0.11,0.06 z m 1.32,-3.34 0.06,0.38 -0.06,0.1 -0.22,-0.1 -0.06,-0.2 -0.31,0 0.06,-0.14 0.53,-0.04 z m 0.95,-1.7 0.25,0.16 0,0.14 -0.32,0.14 -0.06,-0.38 0.13,-0.06 z m 15.37,-6.1 0.03,0.18 -0.38,0.27 -0.16,-0.21 -0.16,0.01 0.03,-0.14 0.64,-0.11 z m -2.94,-0.61 0.22,0.18 0.22,-0.03 0.06,0.17 0.22,0.14 0,0.48 -0.22,0.27 0.06,0.27 0.25,0.14 0.35,-0.07 0.13,0.17 -0.19,0.1 -0.04,0.24 -0.12,0.04 0.06,0.34 0.22,0.07 0.13,-0.21 0.22,0.1 0.28,-0.2 0.04,-0.28 -0.29,0 -0.19,0.11 -0.25,-0.03 0,-0.07 0.66,-0.17 0,-0.24 0.09,-0.11 -0.09,-0.19 0.13,-0.03 0.03,-0.14 0.41,0.17 -0.03,0.31 0.06,0.17 0.13,0.06 -0.01,0.14 0.13,0.03 0.19,-0.2 0.09,0.03 0.1,0.24 -0.13,0.2 0.09,0.1 -0.03,0.27 0.28,0.14 0,0.31 0.32,0.24 -0.16,0.41 0,0.31 0.13,0.21 -0.13,0.03 -0.13,0.34 0.09,0.1 0.16,-0.01 -0.09,0.31 0.13,0.07 -0.07,0.21 0.09,0.34 0.09,0.17 0.44,0.07 0.16,0.14 0.19,-0.1 0.16,0.1 -0.04,0.14 0.28,0 -0.03,0.68 0.16,0.21 -0.35,-0.07 -0.44,0.14 -0.09,-0.17 -0.03,0.24 -0.35,0.17 -0.16,-0.2 -0.19,0 0,0.14 -0.22,0.24 -0.03,-0.11 -0.41,-0.06 -0.25,-0.34 0.09,-0.27 0.28,-0.03 -0.03,-0.21 -0.21,-0.21 -0.29,0.1 -0.09,-0.21 -0.28,-0.13 -0.35,0.03 -0.16,0.24 -1.07,-0.14 -0.6,0.07 -0.44,-0.21 -0.25,0.38 -0.44,0.2 0,0.17 -0.19,0.17 0.03,0.21 0.09,-0.1 0.19,0.07 0.03,0.17 -0.13,0.03 -0.13,-0.14 -0.35,0.03 -0.09,0.72 -0.44,0.1 -0.03,-0.24 -0.13,-0.05 -0.13,0.11 0,0.21 -0.35,0.03 -0.03,0.14 -0.44,0.24 0.13,0.27 -0.13,0.41 -0.19,0.07 -0.12,-0.24 -0.13,-0.07 -0.41,0.07 -0.16,0.27 0.06,0.31 -0.28,0.03 -0.19,0.41 -0.28,0.07 0,0.58 -0.09,0.07 0.32,0.14 0.19,-0.1 0.25,0.1 -0.13,0.48 -0.28,0.2 -0.28,0.07 0,0.1 0.25,0.21 0.1,0.72 -0.44,0.06 -0.09,-0.17 -0.41,-0.03 -0.19,-0.33 -0.22,-0.01 -0.13,0.17 -0.09,-0.07 0.03,-0.24 -0.31,0.07 -0.28,-0.17 -0.19,0.1 0.03,0.27 -0.35,0.21 -0.82,0.03 -0.31,0.24 -0.5,-0.14 -0.13,-0.14 -0.03,-0.55 0.38,-0.44 -0.13,-0.61 -0.72,-0.52 -0.16,0.11 -0.13,-0.03 -0.16,0.27 -0.66,0.03 -0.35,-0.61 0.1,-0.21 -0.06,-0.17 -0.22,-0.17 -0.38,0 -0.06,-0.34 0.25,-0.21 -0.12,-0.24 -0.57,0.24 -0.41,-0.1 -0.03,-0.51 0.16,0 -0.06,-0.21 0.13,-0.1 0,-0.44 0.19,-0.07 -0.03,0.14 0.09,0.07 0.28,-0.14 -0.06,-0.17 0.09,-0.51 0.22,-0.14 0.09,0.03 0.03,0.2 -0.16,0.07 0,0.17 0.19,0.07 0.03,0.1 0.19,0 0.09,0.13 -0.03,0.14 -0.16,0.03 0.1,0.75 0.16,0.2 0.25,-0.07 0.22,0.25 -0.07,0.34 0.13,0.27 -0.28,0.24 -0.03,0.27 0.35,0.24 0.28,0 -0.16,-0.17 0.03,-0.24 0.13,-0.1 0.44,-0.07 -0.06,-0.34 0.13,-0.14 0.19,0.1 -0.03,0.2 0.13,0.21 0.28,-0.28 0.19,0 0,0.24 0.38,0.41 -0.38,0.41 0.28,0.55 0.09,0 0.09,-0.21 0.19,0 0.03,-0.2 0.13,-0.1 -0.03,-0.14 0.19,-0.14 -0.12,-0.72 0.22,-0.07 0.06,-0.14 0.09,0 0.09,0.17 0.26,0.07 0.03,0.31 0.19,-0.27 0.19,-0.07 0.35,0.13 0,0.31 0.1,0.1 0.28,-0.1 -0.06,-0.31 0.25,0 0,-0.07 -0.31,-0.17 0,-0.24 -0.38,-0.34 -0.06,-0.34 0.09,-0.03 0.25,0.17 0.19,-0.01 0.03,-0.1 0.22,0.03 -0.03,-0.21 0.09,-0.03 0.13,-0.58 0.13,-0.07 0.09,0.1 0.16,-0.14 0.13,-0.41 -0.39,0.1 -0.25,0.21 -0.28,-0.04 -0.09,0.14 -0.13,-0.07 0,-0.1 -0.25,0 -0.09,-0.14 -0.25,0.07 -0.22,-0.07 -0.25,0.34 -0.22,0 -0.19,-0.14 -0.47,0.27 -0.28,-0.03 -0.06,0.07 -0.13,-0.03 -0.06,-0.21 -0.35,-0.03 -0.16,-0.27 -0.25,0.07 0.03,0.17 -0.13,0.17 -0.09,-0.03 0.03,-0.13 -0.22,0.06 0.06,-0.38 0.16,-0.07 0,-0.07 -0.25,0.03 0.03,-0.18 -0.09,-0.16 0.09,-0.1 0.31,-0.14 0.13,0.1 0.16,-0.07 0.04,0.1 0.28,-0.07 0.19,0.14 0.22,-0.17 0,-0.1 -0.09,0 0.03,-0.2 0.38,0.2 0.06,-0.14 -0.19,-0.17 0.25,-0.24 -0.03,-0.17 0.19,0.06 0,-0.13 -0.5,-0.45 -0.38,0.41 -0.35,0.04 -0.22,0.34 -0.1,-0.03 0,-0.14 -0.28,0.14 -0.16,-0.1 -0.06,0.14 -0.28,0.1 -0.35,-0.31 0.03,-0.17 0.47,-0.03 0.03,-0.38 0.29,-0.21 -0.07,-0.27 0.44,-0.24 0.09,-0.21 -0.03,-0.38 -0.57,-0.65 -0.09,-0.31 0.35,-0.07 0.41,0.11 0.22,-0.2 0.54,0.1 0.09,-0.27 0.25,-0.27 0.38,0.03 0.1,-0.14 0,-0.31 0.31,-0.14 0.06,0.34 0.25,0.17 -0.06,0.27 0.09,0.17 -0.03,0.21 -0.28,0.14 -0.06,0.21 0.28,0.21 0,0.27 0.17,-0.1 0.18,0.03 -0.19,0.61 0.31,0.07 0.16,-0.24 0.31,0.03 0.09,0.44 0.13,0.07 0,-0.27 0.19,-0.21 0,-0.14 -0.16,-0.07 0.16,-0.44 -0.1,-0.07 -0.06,-0.51 -0.19,-0.1 0.06,-0.27 0.28,0 0.22,0.24 0.66,0 0.06,-0.07 0,-0.2 -0.15,-0.25 0.03,-0.48 -0.19,-0.07 -0.06,-0.31 -0.22,-0.07 0.16,-0.41 0.25,-0.21 0.09,-0.34 0.66,0.07 -0.06,0.31 0.32,0 0,-0.1 0.19,-0.03 0.06,-0.14 0.19,0 -0.06,0.27 0.13,0.03 0.06,-0.14 0.19,-0.03 -0.16,-0.21 0.25,-0.21 -0.02,-0.14 0.19,-0.03 0.09,0.14 0.35,-0.03 0.03,0.13 0.13,-0.03 0.13,0.14 0.22,-0.1 0,0.27 0.22,0.07 -0.19,0.27 -0.35,-0.07 -0.19,0.24 0,0.34 0.16,0.03 0.15,0.41 -0.22,0.07 0.04,0.54 -0.19,0.28 0.09,0.2 -0.06,0.17 0.13,0.21 -0.13,0.07 -0.09,0.34 -0.19,0.1 0.03,0.23 -0.22,0.25 0.13,0.03 0.32,-0.27 -0.03,-0.24 0.25,-0.41 0.25,-0.14 0.19,-0.27 -0.03,-0.2 0.22,-0.42 0,-0.3 -0.19,0 -0.03,-0.17 0.16,-0.24 0.38,-0.17 0.06,-0.24 0.28,-0.04 0.29,0.11 0.06,0.38 -0.25,0.38 0.03,0.21 0.1,-0.01 0.06,-0.23 0.13,0 0.03,0.31 0.82,0 0,-0.55 -0.16,-0.07 -0.06,-0.21 -0.22,0.03 -0.06,0.34 -0.25,0 -0.06,-0.17 0.35,-0.38 0.13,-0.51 0.19,-0.07 0.06,-0.14 -0.03,-0.21 -0.35,0 -0.03,-0.07 0.38,-0.14 0.03,-0.24 0.18,-0.06 z m 5.64,-1.13 0.03,0.25 -0.17,0.1 -0.02,0.17 -0.23,0 -0.06,-0.14 0.16,-0.14 0,-0.24 0.29,0 z m -14.92,-0.42 0.19,0.33 -0.03,0.14 0.1,0.07 -0.07,0.17 -0.32,0.03 -0.41,-0.21 0.06,-0.14 0.22,-0.06 -0.06,-0.21 0.1,-0.1 0.22,-0.02 z m 4.31,-0.05 0.22,0.24 0.19,-0.1 0.38,0.27 -0.06,1.03 -0.2,0.1 -0.16,0.47 -0.28,-0.27 -0.22,0.07 -0.16,-0.14 -0.22,0.08 -0.03,-0.14 -0.28,-0.13 -0.03,-0.21 -0.41,-0.27 0,-0.31 0.6,0 0.21,-0.24 0.1,-0.34 0.19,0.03 0.16,-0.14 z m 4,0 0.03,0.14 -0.19,0.21 -0.44,0.07 0.09,-0.17 0.51,-0.25 z m 4.92,-0.52 0.12,0.07 0.01,0.14 -0.32,0.21 -0.19,-0.27 0.38,-0.15 z m -16.01,-2.9 0.13,0.04 0,0.21 -0.22,0.14 -0.06,-0.17 0.15,-0.22 z m 10.18,-0.1 0.06,0.1 0.22,0 -0.09,0.48 -0.28,0.07 -0.06,0.21 -0.22,0.07 -0.13,0.38 0.16,0 0.03,0.1 -0.22,0.14 -0.09,-0.07 0,-0.27 0.19,-0.51 -0.16,0.03 -0.03,-0.14 0.23,-0.1 -0.01,-0.27 0.13,-0.21 0.27,0 z m 1.64,-1.23 0.13,0.14 -0.03,0.17 -0.13,-0.14 -0.24,0 -0.11,0.1 -0.66,0 -0.19,0.24 -0.06,-0.03 0.25,-0.38 0.66,0.07 0.06,-0.17 0.32,0 z m 1.54,-0.45 0.22,0.31 0.23,0.1 -0.07,0.14 0.06,0.14 -0.69,0.17 -0.16,-0.03 -0.06,-0.14 -0.35,0.14 -0.13,-0.07 0,-0.17 0.19,-0.1 0.13,-0.31 0.13,0 0.06,0.17 0.19,-0.03 0.13,-0.07 0.03,-0.24 0.09,0 z m 0.28,-0.54 0.1,0.41 -0.16,-0.03 -0.13,0.14 -0.06,-0.07 0.06,-0.38 0.19,-0.07 z m -9.26,-0.93 0.06,0.11 0.16,0 0.06,0.16 0.13,0.01 0.13,0.38 0.38,0.1 0.25,0 0.03,-0.31 0.16,0 0.28,-0.34 0.16,0.14 0.22,0.03 0.04,0.11 -0.13,0.14 0.09,0.34 0.48,0.21 -0.09,0.55 0.23,-0.04 0.06,0.14 0.19,0 0.06,-0.17 0.47,0 0.22,-0.42 0.12,-0.06 0.06,-0.65 0.1,-0.1 0.15,0.07 -0.54,1.3 -0.44,-0.01 -0.41,0.52 0,0.24 0.16,0.1 0.16,0.38 0.31,0 0.13,0.1 -0.16,0.17 -0.09,0.55 -0.16,0.07 -0.32,-0.21 -0.32,-0.03 -0.13,0.24 -0.25,0.14 0.13,0.51 0.16,0 0.25,0.38 -0.09,0.03 -0.32,-0.24 -0.13,-0.21 -0.31,0.03 -0.16,0.14 0.32,0.27 0,0.24 0.25,-0.27 0.13,0.48 0.47,-0.44 0.38,0.24 -0.03,0.48 -0.25,0.17 -0.18,-0.07 -0.26,0.21 -0.03,0.27 0.19,0.34 -0.19,0 -0.19,0.17 -0.09,0.31 -0.16,0.1 -0.25,-0.03 0,-0.38 -0.25,0.03 -0.26,-0.14 -0.37,-0.03 -0.06,0.38 -0.25,-0.03 0.09,-0.26 -0.06,-0.39 0.19,-0.07 0.03,-0.27 0.19,-0.14 0,-0.14 0.23,0.03 0.18,-0.21 0,-0.14 -0.21,-0.24 0.06,-0.21 -0.09,-0.1 0.09,0 0.03,-0.14 -0.09,-0.21 -0.7,-0.4 -0.28,-0.34 -0.38,0.07 -0.1,-0.1 0.03,-0.14 0.25,0.1 0.19,-0.14 0,-0.1 -0.32,-0.14 -0.06,-0.38 0.16,-0.07 0,-0.1 -0.15,0.03 -0.16,-0.17 0.02,-0.24 -0.15,-0.07 -0.09,-0.24 -0.32,0.1 -0.06,-0.2 -0.35,0.03 -0.16,0.17 0.03,0.14 -0.31,0.27 0,0.17 -0.16,0.14 -0.06,0.44 -0.22,0.14 -0.09,-0.03 -0.03,-0.31 -0.19,0 -0.09,-0.21 -0.19,-0.1 -0.25,0.14 0.03,-0.14 -0.22,-0.21 -1.48,1.98 0.06,0.07 0.25,-0.1 0.04,0.27 -0.13,0.24 -0.22,0 0.04,0.31 -0.1,0.14 -0.09,-0.03 -0.06,0.24 -0.81,-0.13 -0.35,0.41 -0.54,-0.03 -0.19,0.14 0,-0.21 -0.22,-0.03 -0.28,0.17 -0.09,0.17 0.09,0.31 0.35,0.51 -0.25,0.31 0,0.17 0.32,0.34 -0.06,0.44 -0.16,0.14 0.28,0.27 0,0.24 0.13,0.17 -0.09,0.03 0.03,0.38 -0.1,0.07 -0.22,0.68 -0.16,0.1 -0.5,0 -0.16,0.17 0.16,0.62 0.28,0.24 -0.09,0.37 -0.41,0.38 0,0.41 0.34,0.14 0,0.24 -0.16,0.07 -0.03,0.41 0.09,0.1 0.41,0.07 -0.25,0.48 -0.67,0.06 -0.12,-0.14 -0.48,-0.16 -0.33,0 -0.21,0.1 -0.09,-0.28 -0.41,-0.06 -0.31,0.1 -0.13,0.17 0,0.2 -0.19,0.21 -0.31,0.03 -0.44,-0.17 -0.35,0.14 -0.03,0.14 -0.25,0 -0.19,0.31 -0.22,-0.1 -0.35,0.1 -0.44,-0.17 -0.09,-0.1 0.09,-0.45 0.26,-0.2 0.88,-0.38 0.39,-0.82 0.34,0.06 0.54,0.62 0.31,-0.03 0.06,0.07 0.45,-0.27 0.22,-0.24 0,-0.17 0.5,-0.38 -0.03,-0.44 0.16,-0.24 -0.03,-0.21 0.09,-0.03 -0.03,-0.27 -0.63,-0.51 -0.32,0 -0.35,-0.17 -0.35,0.07 -0.03,-0.24 0.09,-0.1 0.2,0.03 -0.07,-0.44 0.22,-0.27 0.09,0 0.06,0.14 0.15,0 0.1,-0.13 0.22,0.17 0.04,0.31 -0.16,0.21 0,0.17 0.09,0.03 0.44,-0.51 -0.09,-0.51 0.16,-0.25 0,-0.2 0.19,-0.17 0.03,-0.24 0.44,-0.21 -0.18,-0.45 -0.26,-0.14 -0.12,0.14 -0.22,-0.14 -0.25,-0.24 -0.09,-0.24 0.22,-0.27 0.38,-0.21 0,-0.2 -0.22,-0.18 -0.06,-0.47 0.15,-0.17 0.1,-0.48 0.38,0 0.06,-0.08 0,-0.23 0.19,-0.31 0.28,-0.92 0.31,0.03 0.19,-0.24 0.09,0.27 0.22,-0.03 -0.22,-0.31 0.03,-0.1 -0.16,-0.03 -0.13,0.1 -0.13,-0.14 0,-0.31 0.63,-0.03 0.06,-0.1 0.47,0.07 0.12,0.14 -0.09,0.17 0.06,0.27 -0.32,0.24 -0.03,0.14 -0.19,0.03 0,0.31 0.22,0.21 0.41,-0.14 0.13,0.38 0.35,0.17 0.19,-0.03 0.13,0.17 0.31,0.03 0.28,-0.31 0.32,-0.07 0.13,-0.27 0.66,-0.79 -0.06,-0.48 0.41,0 0.34,-0.38 -0.03,-0.17 -0.31,0.18 -0.1,-0.03 0.13,-0.34 -0.09,-0.31 0.19,-0.11 0.06,-0.37 0.16,-0.04 0.06,-0.34 0.57,-0.1 0.06,-0.52 0.1,0.04 0,0.34 0.09,0.1 0.22,0 0.5,-0.15 0.03,-0.13 0.28,0 0.13,-0.21 0.16,0.1 0.15,-0.15 0.25,0.08 0.2,-0.37 0.6,-0.05 z m 9.55,-0.64 0.06,0.31 -0.09,0.14 0.21,0.17 0.01,0.13 -0.13,0.08 -0.47,-0.14 0.03,-0.14 0.09,0.04 -0.09,-0.41 0.38,-0.18 z m 0.53,-0.89 0,0.62 -0.09,0.14 0.06,0.21 -0.09,0.03 -0.19,-0.17 0.07,-0.14 -0.1,-0.41 0.22,-0.27 0.12,0 z m -2.33,-0.47 0.16,0.16 -0.06,0.27 -0.32,-0.14 -0.09,-0.14 0.09,-0.17 0.22,0.02 z m -10.38,-0.29 0.12,0.04 0,0.1 -0.13,0.14 0.03,0.17 -0.13,0.03 -0.06,-0.31 0.17,-0.17 z m 3.77,-0.1 0.06,0.17 -0.07,0.1 0.2,0.07 0.12,0.34 0.15,0.1 -0.03,0.1 -0.19,0 -0.03,0.11 -0.22,-0.24 -0.16,-0.51 0,-0.17 0.17,-0.07 z m -3.62,-0.32 -0.03,0.22 -0.19,0.17 -0.06,-0.07 0.06,-0.21 0.12,-0.14 0.1,0.03 z m 5.57,-1.77 -0.06,0.34 0.31,-0.1 0.03,0.1 -0.13,0.14 -0.28,0.01 -0.13,0.16 -0.13,-0.21 0,-0.31 0.39,-0.13 z m 62.35,-0.81 0.03,0.31 0.16,0.03 0.06,-0.24 0.16,0 0.16,0.24 -0.19,0.1 -0.66,0 -0.06,-0.1 0.09,-0.17 0.25,-0.17 z m -68.46,-0.06 0.09,0.22 0.19,0 0,0.1 -0.19,0.1 0.03,0.14 -0.16,0.31 0.13,0.1 0.09,0.34 -0.4,0.25 -0.25,-0.41 0.25,-0.21 -0.09,-0.41 0.16,-0.07 -0.28,-0.17 -0.06,-0.21 0.16,-0.1 0.33,0.02 z m 4.72,-4.28 0.22,0.37 -0.06,0.07 -0.35,-0.27 0.03,-0.17 0.16,0 z m 1.48,-0.37 0.09,0.19 0.16,0.07 -0.13,0.14 -0.03,0.34 0.13,0.14 0.16,0 0.07,-0.28 0.41,0.01 -0.09,0.38 0.44,0.17 0,0.17 0.13,0.03 0,0.5 -0.06,0.12 -0.22,0.07 -0.09,0.31 -0.28,-0.01 -0.02,-0.17 -0.13,0 -0.06,0.21 0.09,0.34 -0.91,-0.17 -0.28,0.31 -0.09,0.38 -0.28,0.21 -0.16,-0.14 -0.15,-0.45 -0.38,-0.03 -0.19,-0.17 0,-0.14 0.22,-0.17 -0.1,-0.35 0.14,-0.06 0.16,0.14 0.5,-0.27 0.13,-0.34 0.32,-0.41 0.09,0 -0.03,-0.21 -0.19,0 -0.06,-0.17 0.28,-0.1 0.16,-0.28 0.28,-0.03 -0.13,-0.21 0.1,-0.07 z m -0.72,-1.97 0.19,0.09 0,0.22 0.09,0.07 -0.25,0.31 -0.44,0.1 -0.06,-0.24 0.19,-0.03 0.03,-0.21 0.25,-0.31 z m -0.44,-1.63 0.06,0.19 -0.09,0.21 -0.16,0.07 -0.09,-0.07 0,-0.17 0.1,-0.03 0.03,-0.21 0.15,0.01 z m 230.19,-22.99 -0.09,0.27 -0.38,0.41 0.03,-0.31 0.63,-0.93 0.06,-0.51 0.09,0 0,0.51 -0.34,0.56 z m -137.67,-13.81 0.16,0.14 -0.03,0.27 -0.44,1.03 -0.6,0.34 -0.13,0.21 0.03,0.27 -0.13,0.03 -0.13,0.51 -0.6,0.65 -1.26,0.03 -0.25,0.03 -0.09,0.14 -0.5,-0.14 -1.7,0.1 -0.25,-0.17 -0.06,-0.14 0.06,-0.31 1.26,-2.88 0.25,-0.07 2.83,0.03 1.58,-0.07 z m 56.33,-87.34 -0.09,0 0.03,-0.21 0.16,-0.1 -0.1,0.31 z m 117.62,-7.35 0.57,0.21 0.25,0.21 0.22,0.79 0.28,0.07 0.09,0.14 -0.19,0.45 -0.31,0.1 -0.35,-0.28 -0.22,0.11 -0.44,-0.01 -0.06,-0.07 -0.28,0.11 -0.03,-0.14 -0.25,0.07 -0.13,-0.17 -0.35,0.07 -0.38,-0.69 -0.41,-0.35 0.13,-0.03 0.35,0.24 0.54,0.1 0.44,-0.86 0.53,-0.07 z m -46.98,-55.91 0.31,0.31 -0.13,0.35 0.06,0.24 0.22,0.14 0.38,0.03 0.13,0.1 0.28,-0.03 0.16,0.1 0.35,-0.35 0.66,0.14 0.19,0 0.06,-0.1 0.5,0.03 0.03,-0.38 0.19,-0.07 0.09,-0.24 0.44,0 0.53,-0.14 0.44,0.28 0.09,0.17 0.28,-0.14 -0.03,0.24 0.5,0.42 0.44,-0.07 0.32,0.1 0.06,-0.1 0.31,0 -0.06,0.35 0.22,0.03 0.16,0.24 0.22,0 0.22,0.28 0.09,0 0.16,0.42 0.41,0.1 0.16,0.14 0.57,0.1 0.06,0.17 0.09,0 0.38,0.45 0.63,0.52 0.09,0.24 0.38,0.42 0.28,0.62 -0.06,0.42 0.19,0.87 -0.19,1.35 0.38,0.1 0.19,0.42 0.19,0.17 0.16,-0.14 0.16,0.03 -0.06,0.52 0.31,0 0.06,-0.21 0.35,0.1 -0.06,-0.24 0.32,-0.14 -0.03,0.28 0.25,0.28 -0.16,0.17 0.03,0.21 -0.38,0.35 0.13,0.1 0.16,0.48 1.04,1.21 0.25,-0.07 0.06,0.17 0.25,0.07 0.25,0.35 0.38,0.24 0.16,0.07 0.28,-0.07 0,-0.24 0.1,-0.07 0.16,0 0.28,0.28 0.79,-0.83 0.09,0 0.06,0.45 0.13,-0.28 0.22,0 0.38,-0.31 0.22,-0.52 0.13,0 0.25,-0.28 0.22,-0.07 0.09,0.21 -0.16,0.21 -0.41,0.31 -0.13,0.21 -0.28,0.14 -0.13,0.42 0.31,0.28 -0.25,0.24 0.03,0.21 -0.16,0 -0.19,0.17 -0.06,0.31 -0.38,0.24 -0.13,0.52 0.13,0.31 0.25,0.45 0.41,0.42 0.32,-0.14 0.06,0.15 0.1,-0.01 0.1,-0.24 0.13,0.14 0.47,0.14 0.22,0.45 0.57,0.1 0.03,0.14 -0.13,0.07 0.1,0.45 -0.16,0.1 -0.13,0.38 0.09,0.17 0.88,-0.17 0.31,0.14 0.79,-0.07 0.19,0.21 0.41,0 0.16,0.24 0.32,0.21 0.44,-0.1 0,0.21 0.32,0.28 0.22,-0.07 0.31,0.1 0.47,0 0.03,0.1 0.22,0.07 -0.03,0.14 -0.41,0.03 -0.25,0.42 0.25,0.1 0.06,-0.38 0.22,-0.07 0.13,0.28 -0.25,0.03 0.03,0.14 0.16,-0.03 -0.19,0.21 0,0.14 0.13,0.07 0.13,-0.17 0.16,0 0.06,0.14 -0.25,0.21 0.03,0.24 -0.32,0.1 -0.16,0.21 -0.5,0.24 0.03,0.21 -0.22,0.24 -0.06,0.55 0.16,-0.07 0.41,-0.76 0.66,-0.17 0.19,-0.31 0.44,-0.24 0,-0.21 0.19,-0.28 0.79,-0.62 -0.06,-0.21 -0.19,0 -0.13,0.28 -0.22,0.07 -0.06,-0.24 -0.16,-0.07 0.06,-0.38 -0.22,-0.07 -0.13,0.21 -0.03,-0.11 0.19,-0.55 0.38,-0.03 0.06,-0.28 0.28,-0.03 0.54,0.21 0.13,0.24 0.69,0.03 0.03,0.21 -0.28,0.21 -0.32,-0.03 -0.09,0.17 0.35,0 0.16,0.31 0.19,0 0.1,0.14 0.6,-0.03 0.06,0.17 0.28,0.14 -0.06,0.21 -0.13,0 0.03,0.14 0.35,0.07 0.03,0.24 0.41,-0.07 0.19,0.35 0.16,0.03 0.03,-0.21 -0.25,-0.35 0.03,-0.17 0.35,-0.07 0.47,0.17 0.06,-0.14 0.5,0.03 0.19,-0.14 0,0.14 0.13,0.1 -0.41,0.28 -0.22,0.55 0.13,0.14 0,0.38 0.28,0.07 0.31,0.31 0.54,-0.1 0.13,0.07 0.44,-0.03 0.35,-0.31 0.44,0.07 -0.22,0.31 -0.22,0.03 0.1,0.24 -0.19,0.07 -0.16,0.28 0.16,0.38 -0.06,0.24 0.25,0.17 0.28,0 0.13,-0.1 0.09,-0.24 0.19,-0.1 0.06,-0.35 0.13,0.1 0.16,-0.1 1.23,-0.1 0.13,0.17 0.75,0.03 0.38,0.21 0.19,0 0.13,0.14 0.63,-0.21 0.16,0.14 0.09,0.28 0.25,0 0.31,-0.17 0.06,-0.14 0.6,0 0.25,0.31 0.06,-0.14 0.72,-0.03 0.22,0.14 0.44,-0.03 0.03,0.38 0.57,-0.14 0.44,0.14 0.09,-0.1 0.09,0.07 0.38,-0.42 0.13,0.01 0.16,0.17 0.28,-0.03 0.41,-0.24 0.22,0.03 0.19,-0.38 0.41,-0.04 0.35,-0.21 0.22,0.03 -0.22,0.73 -0.22,0.14 -0.13,0.42 -0.79,0.62 0.03,0.1 0.54,0.1 0.5,-0.24 0,0.14 0.13,0.03 -0.06,0.41 0.13,0.24 -0.09,0.07 0.03,0.38 -0.25,0.03 -0.28,0.31 0.13,0.55 -0.13,0.24 -0.16,0 -0.09,0.14 0,0.28 -0.25,0.17 -0.03,0.66 0.06,0.24 0.19,0 0.06,0.14 0,0.35 -0.13,0.14 0.09,0.31 0.25,-0.1 0.35,0.52 0.31,0.03 0.06,0.48 0.85,0.45 0,0.38 -0.09,0.1 -0.38,0.14 -0.25,-0.03 0,0.17 0.16,-0.07 0.06,0.24 0.25,-0.03 0.16,0.1 0,0.38 -0.25,0.14 -0.03,0.28 -0.19,-0.03 0.06,0.14 0.22,0.03 0.03,0.45 -0.03,0.14 -0.22,0.1 -0.03,0.28 0.38,0.59 0.03,0.31 0.16,0.14 0.03,0.17 0.82,0.79 -0.09,0.17 -0.38,-0.03 -0.03,0.21 0.47,0.04 0.57,0.27 0.47,0 0.1,-0.38 1.13,0.1 0.38,-0.14 0.22,0.03 0.69,-0.38 0.57,-0.03 0.25,0.07 0.12,0.18 0.38,-0.04 0.22,0.24 0.22,0 0.32,0.21 -0.06,0.73 0.09,0.24 0.19,-0.03 0.44,-0.41 0.09,-0.41 0.28,0.38 0.28,0.03 0.22,0.31 0.25,0.1 0.06,0.35 -0.13,0.17 0.06,0.14 -0.06,0.55 -0.19,0.14 -0.72,0.03 -0.16,0.07 -0.03,0.24 -0.47,0 -0.25,0.1 -0.69,0.73 -0.63,0.07 -0.6,0.73 -0.22,0 -0.72,0.41 -0.72,0 -0.28,0.24 -0.98,0.45 -0.6,0.41 -1.01,0.24 -0.5,0.28 -0.5,0.55 -0.03,0.45 -0.5,0.41 -0.16,0.66 -0.25,0.17 -0.57,0.14 -0.19,0.35 -0.44,0.24 0.06,0.52 -0.09,0.24 -0.57,0 -0.38,-0.1 -0.63,0.45 -0.5,0.59 0,0.21 0.16,0.17 0.03,0.48 -0.32,0.28 0.09,0.69 -0.41,0.41 -0.22,0.07 -0.16,0.34 -0.28,0.21 -0.6,0.76 -0.19,0.1 -0.38,0 -0.31,0.69 -0.57,0.55 -0.44,0.17 -0.28,0 -0.16,0.17 -0.19,0.66 -0.5,0.45 -0.31,0.52 -0.25,0.79 -0.44,0.83 -0.91,2.76 -0.41,1.76 -0.6,4.14 -0.06,2.86 0.13,1.9 0.44,1.93 1.61,4 -0.09,1.96 0.22,2.62 0.57,2.72 0.66,1.76 1.07,2.28 0.76,0.75 0.44,0.17 0.47,-0.03 0.16,0.1 0.13,0.31 0.57,0 0.19,0.24 0.41,0 -0.13,0.21 0.16,0.24 -0.06,0.14 -0.94,0.1 -0.32,0.21 -0.09,-0.03 0.03,-0.07 0.66,-0.38 -0.09,-0.24 -0.88,0.31 -0.13,-0.31 -0.6,-0.34 -0.6,0.17 -0.16,0.21 0.13,0.48 -0.06,0.14 0.32,-0.1 0.03,0.38 0.09,0.1 0.44,-0.41 0.25,0.07 -0.03,0.45 -0.22,0.17 0.09,0.24 -0.22,0.14 0.06,0.28 0.35,-0.07 0.22,-0.17 0.13,0.28 0.35,0 0.5,-0.76 0.16,-0.17 0.09,0.04 -0.57,0.86 -0.25,0.17 -0.03,0.17 0.57,0.58 -0.13,0.14 -0.22,-0.07 -0.19,0.17 -0.31,-0.1 -0.22,0.48 0.13,0.69 0.03,1.79 0.13,0.31 0,0.34 0.28,0.31 -0.25,0.52 0,0.34 0.09,0.34 0.19,0.24 0.16,0 0.06,0.1 -0.41,0.07 -0.13,0.27 -0.28,0.17 -0.03,0.21 -0.5,0.03 -0.06,-0.07 -0.5,0.17 -0.35,0.31 -0.5,0.21 -1.01,0.17 -0.25,0.24 -0.32,1.07 -0.03,0.76 0.09,0.58 0.16,0.21 0.44,-0.03 0.13,0.17 0.32,-0.03 0.06,0.14 0.28,0.1 0.06,0.17 -0.16,0.14 0.06,0.96 0.16,0.17 0.91,-0.04 0.22,0.28 0.03,0.21 -0.25,0.14 -0.35,0 -0.13,-0.17 -0.85,0.14 -0.22,0.24 -0.38,0.03 -0.22,0.17 -0.38,0.62 -0.35,0.03 -0.22,0.17 -0.06,0.17 -0.98,0.41 -0.28,0.28 0.06,0.28 -0.13,0.07 -0.03,0.17 0.13,0.1 0.06,0.38 -0.25,0.14 -0.35,0.41 -0.16,0.38 -0.28,0.34 -0.91,0.65 -0.6,0.76 -0.88,2.24 -0.22,1.38 -0.13,0.28 -0.03,1.38 -0.16,0.69 0.03,0.65 -0.09,0.28 0.09,0.14 -0.03,0.38 -0.28,0.27 -0.06,0.34 -0.16,0.24 -0.03,0.38 -0.44,0.65 -0.06,0.45 -0.41,0.86 -0.28,1.03 -0.16,0.24 0,0.45 0.38,1.75 -0.13,1.37 -0.25,0.28 -0.13,0.38 -0.5,0.45 -0.13,0.24 -0.82,0.58 -0.54,0.62 -0.63,1.48 -0.25,1.75 -0.95,0.89 -0.25,0.45 -1.04,0.79 -0.6,-0.07 -0.54,0.38 -0.66,1.06 -0.09,0.65 -0.25,0.34 -1.1,0.52 -0.16,0.24 -0.25,0.14 -0.28,0.07 -0.63,0.65 -0.31,0.03 -0.25,0.21 -0.44,0.1 -0.44,0.38 -0.22,0.62 -0.09,0.04 0,0.17 -0.38,0.34 -0.09,0.34 -0.16,0.17 -0.32,0.79 -0.28,1.1 0.19,1.72 0.5,0.86 0.13,0.62 0,1.17 -0.28,0.93 -0.85,1.48 -0.38,0.41 -0.88,0.69 -0.76,0.38 -1.13,0.99 -1.1,2.09 -0.22,1.1 0.03,1.75 0.53,1.89 0.88,1.75 0.35,0.41 0.16,0.38 0.54,0.51 0.54,0.27 0.19,0.21 0.38,0.96 0.03,0.45 -0.35,0.45 -0.19,0.55 -0.16,0.03 -0.28,0.41 -0.13,0.27 -0.06,0.65 -0.35,0.48 0.06,-0.55 0.28,-0.48 0.06,-0.79 0.13,-0.07 0.03,-0.51 -0.13,-0.17 -0.09,0.03 0,0.48 -0.13,-0.21 -0.1,0 0,0.38 0.19,0.38 -0.19,0.75 -0.57,0.75 -0.47,0.24 -0.13,0.21 0.06,0.27 0.25,0.27 -0.06,0.34 -0.09,0 -0.38,-0.48 -0.35,0 -0.41,0.24 0,0.17 -0.32,0.38 0,0.38 -0.69,0.69 0.03,0.45 -0.19,0.24 0,0.51 0.41,1.03 0.22,1.44 -0.25,0.45 0,0.51 -0.28,0.58 -0.16,0.96 -0.1,0.14 -0.09,0.75 0.13,0.17 0.06,0.51 -0.44,3.12 -0.63,2.67 -0.47,1.47 -0.25,0.21 0,0.21 -0.38,0.92 -0.16,0.03 -0.06,0.31 0.06,0.27 -0.25,0.79 -0.5,0.69 -0.16,0.03 -0.09,0.27 -0.16,0.07 0.03,0.31 -0.25,0.55 -0.16,0.82 0.06,0.44 -0.06,0.48 -0.06,0 0.06,0.24 -0.19,0.58 0.09,0.21 0,1.4 -0.09,0.58 0.31,0.14 0.09,0.31 -0.09,0.44 -0.16,0.21 0.09,0.14 -0.28,0.48 -0.03,0.31 -0.22,0.21 0,0.41 -0.19,0.34 -0.25,0.21 0.03,0.27 -0.28,0.24 -0.09,0.58 -0.28,0.27 0.06,0.14 -0.16,0.17 -0.41,0.03 -0.25,0.68 -0.16,0.14 0.06,0.21 -0.13,0.1 -0.06,0.68 0.16,0.72 -0.06,0.21 0.16,0.31 0.31,-0.17 0.13,0.1 -0.13,0.17 -0.09,0.51 -0.25,0.17 0,0.48 -0.22,0.24 0.13,0.1 -0.09,0.48 -0.35,0.68 -0.03,0.21 0.19,0.21 -0.16,0.41 -0.19,0.17 0.16,0.41 -0.22,0.17 -0.19,0.62 0.19,0.58 -0.19,0.27 -0.41,0.1 -0.35,0.55 -0.13,0.41 -0.06,0.82 -0.35,0.79 -0.09,1.54 0.06,2.29 -0.09,0.79 -0.1,0.07 -0.09,0.51 0.06,0.1 -0.06,0.31 -0.13,0.03 -0.09,0.21 0.09,0.72 -0.09,0.03 0,0.17 -0.22,0.21 -0.03,0.17 -0.13,0.07 -0.03,0.58 -0.25,0.07 -0.35,0.55 0.03,0.21 -0.25,0.14 -0.19,0.65 -0.19,0.1 0.06,0.24 -0.16,0.21 -0.03,0.44 -0.28,0.89 0.13,0.14 -0.16,0.48 0.03,0.31 -0.28,0.2 0,0.55 -0.22,0.58 0.22,1.06 -0.16,0.51 0.1,0.03 -0.03,0.31 0.22,0.03 -0.13,0.68 0.25,0.31 0.06,0.44 0.66,-0.03 -0.06,0.41 0.13,0.07 0,0.17 -0.13,0.14 -0.03,0.38 0.03,0.1 0.35,-0.1 0,0.2 -0.69,0.24 -0.13,0.24 0.03,0.31 -0.1,0.07 -0.03,0.24 0.09,0.21 -0.41,0.1 -0.31,0.51 -0.47,-0.14 -0.16,0.17 -0.54,0.03 -0.38,-0.21 -0.16,0.03 0.35,0.24 0.16,0 0.16,0.21 0.16,0 0.16,0.17 0.19,-0.03 0.19,0.1 0.13,0.1 0,0.14 -0.35,1.16 -0.25,2.32 -0.22,0.03 0,0.27 -0.16,0.07 -0.09,0.34 -0.28,0.34 -0.13,0.68 -0.13,0.14 -0.13,0.44 -0.22,0.24 -0.09,0.51 0.06,0.31 -0.25,0.34 0.03,0.55 -0.41,0.07 -0.13,0.27 -0.03,0.68 -0.25,0.17 0.06,0.61 -0.09,0.03 -0.28,1.33 0,0.31 0.16,0.38 -0.03,0.24 0.13,0.1 -0.35,0.65 0.09,0.65 -0.16,0.03 -0.13,0.17 -0.22,0.65 0.06,0.48 -0.06,0.85 0.09,0.44 -0.13,0.03 -0.13,0.2 0.06,0.65 -0.13,0.34 -0.22,0.14 -0.16,0.38 0.09,0.27 -0.09,0.24 -0.28,0 -0.13,-0.14 -0.33,-0.03 -0.33,0.1 -0.66,0.51 -0.13,0.27 -0.54,0.55 -0.31,0.72 -0.5,0.68 -0.03,0.41 -0.22,0.07 -0.19,0.24 -0.38,1.19 0.16,0.31 -0.09,0.92 -0.44,0.17 -0.16,0.34 0,0.24 -0.25,0.58 0,0.61 -0.13,0.27 -0.09,1.02 -0.09,0.27 -0.19,0.17 -0.1,0.48 0.13,0.4 0.32,-0.14 0.25,0.2 0,0.27 -0.41,0.48 -0.19,0.07 -0.5,0.85 -0.28,0.17 -0.57,-0.03 -0.13,0.37 -0.44,0.24 -0.16,0.34 -0.13,0.99 0.06,0.38 0.16,0.27 0.06,0.85 0.38,0.65 0.13,-0.03 0.13,0.14 0.03,-0.14 0.16,-0.03 -0.35,0.85 0.25,0.17 0.19,0.31 0.09,0 0.09,0.34 0,0.38 -0.19,0.41 -0.13,0.71 -0.25,0.34 -0.38,0.24 -0.06,0.24 0.06,0.48 -0.16,0.75 0.19,0.24 0.19,0.71 0.31,0.34 0.66,0.34 0.19,0 0,0.31 -0.22,0.14 -0.41,0.61 -0.35,0.2 -0.31,0.03 -0.31,-0.34 -0.16,0 -0.22,0.38 -0.06,0.37 -0.1,0 -0.31,0.48 -0.22,0.14 -0.06,0.27 -0.13,0.07 0.06,0.24 -0.13,0.07 0,0.31 -0.19,0.17 -0.06,0.31 -0.13,0 -0.09,-0.24 -0.25,0 0.03,-0.21 -0.25,0 -0.09,0.21 -0.22,-0.1 -0.25,0.07 -0.69,-0.07 -0.19,0.1 0,0.14 -0.19,0.07 -0.03,0.31 -0.19,0.1 -0.32,0.41 -0.06,0.24 -0.13,0.07 0.06,0.17 0.13,-0.03 0,0.2 -0.38,0.31 0,0.14 0.22,0.27 0.03,0.34 -0.44,0.17 -0.13,0.24 -0.28,0.03 -0.22,0.51 -0.06,0.68 -0.13,0.24 0.03,0.82 -0.25,0.27 0.06,0.51 -0.41,0.51 0.06,0.34 -0.19,0.07 -0.19,0.71 -0.03,0.34 0.16,0.03 0,0.17 -0.13,0.17 -0.25,0.1 -0.03,0.27 -0.1,-0.03 -0.06,0.1 0.03,0.1 0.22,0.07 0.03,0.17 -0.35,0.27 -0.32,0 -0.31,0.2 -0.06,0.34 0.09,0.03 0,0.27 -0.28,0.1 0.13,0.17 -0.03,0.17 -0.44,0.2 -0.25,0.88 0.19,0.31 0,0.34 -0.16,0.41 -0.35,0.41 -0.16,0.65 -0.31,0.31 0,0.34 -0.47,0.61 -0.25,0.03 -0.16,0.31 -0.57,0.51 -0.13,0.48 -0.38,0.14 0,0.1 -0.47,0.41 -0.44,0.03 -0.25,0.24 -0.03,0.27 -0.32,0.07 -0.5,1.22 -0.06,1.09 -0.47,0.37 -0.03,0.48 -0.25,0.37 0.03,0.31 -0.35,0.41 -0.06,0.34 -0.76,0.61 -0.22,0.51 -0.03,0.51 -0.09,0.1 -0.22,0 -0.31,1.02 -0.06,-0.03 -0.06,0.24 -0.16,0.1 -0.35,0.65 -0.19,0.1 -0.54,-0.03 -0.25,0.2 -0.44,0.78 -0.03,0.37 0.13,0.17 -0.19,0.34 -0.41,0.14 -0.57,-0.41 -0.16,0 -0.41,0.1 -0.09,0.27 -0.66,-0.03 -0.28,0.17 -0.57,-0.14 -0.09,0.41 -0.66,0.3 -0.22,0.41 -0.16,0.17 -0.35,0.14 -0.5,0.65 0.06,0.58 -0.13,0.61 -0.35,0.41 -0.03,0.48 0.09,0.2 0.35,0.1 0.19,0.17 0.03,0.44 0.06,0.14 0.19,0.07 -0.1,0.31 0.28,0.44 0.38,1.15 0.19,1.36 -0.19,0.03 -0.06,0.2 -0.6,0.41 -0.13,0 -0.25,-0.27 -0.25,0.07 -0.69,0.75 -0.13,0.24 -0.1,1.02 -0.19,0.65 -0.13,0.07 -0.09,0.27 -0.19,-0.03 -0.22,0.14 0.06,0.27 0.13,0.03 0.03,0.37 0.09,0 0.25,-0.61 0.09,-0.03 -0.09,0.37 -0.44,0.82 -1.07,0.71 -0.63,0.14 -1.16,1.09 -0.19,0.34 -0.22,0.1 -0.06,0.17 -2.39,2.38 -0.82,0.27 -1.54,1.05 -0.63,0 -0.66,0.24 -1.07,0.61 -0.85,0.68 -0.28,0.03 -1.26,1.42 -0.57,0.44 -1.73,0.68 -0.54,0.37 -1.01,1.22 -1.1,2.61 -0.54,2.07 -0.32,2.71 0.06,0.68 -0.06,0.37 -0.98,1.08 -0.31,0.1 0.06,0.07 -0.13,0 -1.42,1.29 -0.38,0.54 -0.38,0.88 -0.63,1.8 -0.09,0.58 -0.5,1.42 0,0.24 -0.1,0.07 -0.25,0.88 -0.54,1.22 -0.13,0.88 -0.85,2.75 -0.6,2.64 -0.19,0.07 -0.03,0.2 0.09,0.07 -0.47,0.98 -0.88,2.68 -0.19,0.41 -0.38,0.47 -0.13,0.47 -0.19,0.27 -0.35,1.42 -0.79,1.39 -0.35,1.69 -0.25,0.64 0.03,0.51 -0.09,0.37 -0.69,0.64 -0.19,0.71 -0.38,0.68 0,0.31 -0.38,0.64 -0.09,0.91 -0.09,0.07 -0.16,1.96 -0.03,3.66 0.13,1.86 0.35,1.76 0,0.81 0.38,0.85 0.03,0.68 -0.09,0.2 -0.22,0.1 -0.28,1.15 0.16,1.12 0.16,0.27 0,0.54 -0.13,0.13 0.06,0.17 -0.09,0.13 -0.22,0.24 -0.16,0.03 -0.16,0.24 -0.03,0.61 0.13,0.34 0,0.81 0.25,0.68 0,0.64 -0.22,0.44 -0.03,0.44 0.06,0.27 0.19,0.2 0.06,0.64 -0.28,0.74 0.47,0.44 0.13,0.27 -0.25,0.44 -1.1,0.84 0,0.24 0.09,0.68 0.44,1.45 0.32,0.41 0.41,0.07 0.22,0.2 0.57,0.17 -0.03,0.17 -0.22,0 -0.22,0.2 0.03,0.47 -0.09,0.51 -0.09,0.03 -0.16,0.41 -0.5,0.51 0.03,0.54 -0.09,0.47 0.06,0.47 0.19,0.27 -0.06,0.68 0.09,0.57 0,1.62 0.25,0.41 0.19,0.57 0.25,0.34 0.06,0.44 -0.35,0.17 -0.91,0.78 -0.13,0.2 0.06,0.81 -0.06,0.1 -0.6,0.44 -0.6,0.17 0,1.01 -0.16,0.47 -1.07,0.51 -0.54,0.47 -0.22,-0.03 -0.57,0.37 -0.63,-0.07 -0.31,0.2 -0.38,-0.07 0.06,0.17 0.13,0.03 0.03,0.3 -0.1,0.03 -0.03,0.54 0.19,0.03 0.06,0.64 -0.57,1.82 0.16,1.38 0.28,0.81 0.38,0.57 -0.03,0.34 0.6,0.44 0.91,1.55 0.06,0.64 -0.09,0.27 0.13,0.47 0.28,0.34 0.22,0.07 0.06,0.17 -0.22,0.27 -0.44,0.24 -0.95,0 -0.32,-0.2 -0.28,-0.4 0,-0.34 -0.13,-0.24 0.06,-0.88 -0.13,-0.13 -0.63,0.03 -0.44,-0.2 -0.25,-0.27 -0.25,-0.67 -0.88,-0.81 -0.35,-0.61 -0.63,0.24 -0.47,0 -0.47,-0.24 -0.28,-0.67 -0.13,0 -0.13,0.44 -0.19,0.07 -0.28,-0.07 -0.06,-0.64 -0.13,-0.1 -0.88,-0.17 -0.69,0.13 -0.09,-0.17 -0.41,-0.27 -0.06,-0.2 -0.35,-0.07 -0.44,-0.24 -0.41,-0.74 -0.35,-0.2 -0.41,0.03 -0.13,0.24 -0.31,0.07 -0.13,0.37 -0.66,0.24 -0.19,0.27 -0.25,0.61 -0.03,0.37 0.03,0.37 0.13,0.24 0,0.61 -0.1,0.1 -0.16,-0.1 -0.22,0.44 -0.32,0.14 0,0.84 -0.09,0.07 -1.39,0.13 -0.47,-0.37 -0.44,-0.78 -0.06,-0.84 -0.31,-0.07 -0.32,0.17 -0.19,-0.03 -0.13,-0.44 0,-0.74 0.19,-0.78 0.09,-1.21 -0.06,-0.68 0.35,-0.61 0.03,-0.81 -0.28,-0.78 -0.54,-0.41 -0.03,-0.44 -0.22,-0.51 -0.13,-0.1 -0.35,-0.03 -0.28,-0.2 -0.63,-0.95 -0.19,-0.81 -0.35,-0.47 -0.03,-0.27 -0.28,-0.57 -0.09,-0.68 0.22,-0.68 0.28,-0.37 0.85,-0.54 0.06,-0.2 -0.25,-0.07 -0.16,-0.57 0.31,-0.81 0.19,-0.13 0.31,0.1 0.35,-0.03 0.19,-0.3 0.13,-0.57 0.41,-0.3 0,-0.1 -0.13,0 -0.31,0.24 -0.03,-0.64 -0.38,-1.22 -0.09,-0.17 -0.22,-0.07 -0.03,-0.2 0.35,-0.41 0.54,-0.03 0.44,-0.27 0.19,-0.2 0.03,-0.2 0.06,0.17 0.22,-0.07 0.09,-0.3 -0.22,-0.47 0.03,-0.95 -0.32,-0.41 -0.09,-0.74 -0.31,-0.54 0.06,-0.57 -0.19,-0.07 -0.06,-0.3 -0.44,-0.24 -0.19,-0.3 -0.03,-0.3 0.13,-0.41 -0.44,-0.14 -0.13,-0.2 -0.03,-0.51 0.31,-0.61 -0.13,-0.34 -0.32,-0.27 -0.06,-0.54 0.13,-0.37 -0.38,-1.05 -0.09,-1.05 -0.47,-1.18 -0.35,-0.37 -0.22,-0.71 0,-0.3 0.25,-0.41 0.03,-0.51 -0.28,-0.58 -0.25,-0.27 -0.03,-0.2 -0.41,-0.37 -0.09,-0.58 -0.16,-0.14 -0.03,-0.47 -0.47,-0.81 -1.32,-1.39 -0.85,-0.58 -0.25,-0.3 0,-0.61 0.09,-0.47 0.19,-0.24 0,-0.41 -0.28,-0.58 -0.25,-1.12 -0.35,-0.51 -0.22,-2.1 -0.47,-0.61 -0.22,-0.58 -1.92,-2 -0.79,-0.54 -0.54,-0.54 -0.54,-0.95 -0.25,-0.88 -0.38,-0.44 -0.19,-0.41 -0.16,0.07 -0.28,-0.2 0.13,-0.3 -0.6,-0.68 -0.28,-0.14 -1.58,-1.32 -0.5,-0.27 -0.22,-0.24 -0.25,-0.07 -0.54,-0.47 -0.69,-0.37 -0.31,-0.34 -0.32,-0.07 -1.64,-0.98 -1.64,-0.78 0.09,-0.27 -0.03,-0.31 0.25,-0.3 0.38,-0.91 -0.03,-0.58 -0.13,0.07 -0.06,0.34 -0.19,0.1 -0.13,0.41 -0.41,0.47 -0.06,0.2 -0.19,0.2 -0.31,0.14 -1.23,-0.85 -2.55,-1.29 -2.55,-1.76 -0.03,-0.17 0.28,-0.14 0.38,0 0.16,0.27 0.54,0.27 -0.03,0.17 0.09,0.1 0.6,0.2 0.16,0.41 0.53,0.27 0.16,-0.03 0.53,0.3 0.35,-0.34 -0.03,-0.24 0.28,-0.61 -0.41,-0.1 -0.13,-0.61 -0.54,0.03 -0.03,-0.61 -0.19,-0.1 0.03,-0.07 -0.44,-0.07 -0.09,-0.1 -0.09,0.03 0.03,0.07 -0.44,-0.07 0.03,0.24 -0.13,0 -0.31,-0.14 0.06,-0.24 -0.06,-0.1 -0.28,-0.07 -0.13,0.3 -0.13,0 -0.22,0.24 0,0.47 -0.32,-0.03 -0.41,0.31 -1.57,-1.86 0.06,-0.2 -0.22,-0.03 0.13,-0.3 0.28,-0.14 0.5,-0.03 -0.28,-0.34 -0.28,0 -0.6,0.44 -0.03,-0.44 -0.13,-0.27 -0.85,-0.41 -0.19,-0.24 -0.79,0.14 0,0.14 -0.22,0.14 -0.41,0.03 -0.47,-0.13 -1.1,-0.54 -0.79,-0.64 -2.05,-1.36 -1.26,-1.15 -0.19,0 -0.06,0.1 -0.22,-0.03 -0.13,-0.51 -0.63,-0.68 -0.32,-0.14 0.03,-0.34 -0.41,-0.24 -0.19,-0.44 -0.22,0.03 -0.09,-0.3 -0.28,-0.14 -0.22,-0.41 -0.47,-0.03 -0.54,-0.64 -0.6,-0.48 -0.16,0 -0.57,-0.58 -0.16,-0.03 0.38,-0.47 0.6,0.03 0.79,1.15 0.25,0.2 0.5,0 0.47,-0.24 0.38,0.27 0.19,0 0.32,0.31 0.22,-0.07 -1.45,-1.29 -0.06,-0.27 0.54,-0.41 0.09,-0.1 -0.03,-0.14 -0.13,0 -0.57,0.44 -0.22,0.07 -0.19,0.2 -0.25,-0.24 1.01,-0.68 0.06,-0.17 -0.1,-0.1 -0.13,0 -1.04,0.71 -0.25,-0.37 0.57,-0.37 -0.16,-0.27 -0.16,0.03 -0.44,0.44 -0.28,0.07 -0.57,-0.64 -0.13,-0.34 -0.38,-0.47 0.31,0.24 0.44,-0.24 -0.41,-0.44 -0.16,0.03 -0.28,0.27 -0.25,-0.17 -0.85,-1.12 -0.19,-0.41 -0.22,-0.07 -0.47,-0.61 -1.29,-2.44 0.03,-0.14 0.16,0.03 1.04,0.58 0.35,0.85 0.09,0.17 0.22,0.07 0.28,0.61 -0.31,-1.12 2.07,-1.15 -0.22,-4.82 0,0 -1.73,-7.26 0,0 -3.34,-3.93 -3.59,-1.27 -0.22,-0.65 -0.44,-0.68 0.03,-0.17 -0.16,-0.48 -0.6,-1.15 -1.42,-3.63 -0.22,-0.07 -0.57,0.2 -0.91,0.03 -0.19,-0.27 -0.06,-0.37 0.22,0.17 0.06,0.34 0.47,-0.07 -0.09,-0.68 0.54,-0.07 0.28,-0.24 0,-0.1 -0.95,-2.89 -0.35,-0.65 -0.54,-1.9 0.38,-0.14 0.72,0.31 0.32,-0.31 0.16,-0.24 0.06,-0.88 0.35,-0.24 0.06,-0.2 -0.35,-0.03 -0.03,-0.17 0.35,-0.03 0.06,-0.24 -0.63,-0.03 -0.38,0.31 0.25,0.65 -0.16,-0.2 -0.22,0.07 0.16,0.51 -0.06,0.24 -0.66,0.17 0.13,-0.2 -0.16,-0.58 -0.28,0.03 -0.06,0.14 0.25,0.71 -0.28,0.07 -0.41,-1.43 -0.88,-2.17 -0.66,-2.07 0.13,-0.41 1.07,-0.82 -0.1,-0.03 -0.22,0.14 -0.85,0.68 -0.22,-0.14 0.25,-2.11 -0.03,-0.85 -0.38,-1.5 -0.6,-1.19 -0.41,-0.58 -0.03,-0.31 -0.09,-0.07 0,-0.14 0.31,-0.2 0.22,0.1 0.25,0.34 0.16,0 -0.03,-0.37 0.25,-0.24 0.22,-0.48 -0.03,-0.34 -0.13,-0.14 -0.19,0.03 0,-0.14 0.16,0 0.13,-0.14 0,-0.17 -0.31,-0.1 -1.1,0 -0.66,-0.44 0,-0.75 0.57,-0.14 0.25,-0.38 -0.38,0.27 -0.47,0.14 -0.13,0 0,-0.17 0.28,-0.07 0.06,-0.1 -0.38,0.07 -0.06,0.27 -0.28,0.44 -0.31,-0.24 -0.22,0.17 1.61,1.36 0.35,0.82 0.16,0.17 -0.06,0.2 -0.35,0.07 -0.16,-0.44 -0.22,-0.2 -0.32,-0.61 -1.61,-1.63 0,-0.41 0.35,-0.37 0.19,0 0.54,-0.44 -0.06,-0.14 -0.38,0.24 -0.54,-0.07 0.22,-0.82 0.47,-0.31 0.41,0 0.32,-0.2 0.66,-0.17 0.54,0 0.19,-0.1 0.5,-0.65 0.16,-0.07 0,-0.07 -0.22,0 0.06,-0.31 -0.13,-0.14 -0.13,0.03 0,0.2 -0.09,0.03 -0.13,0.44 -0.25,-0.31 -0.16,0.03 0.16,0.31 -0.09,0.24 0.16,0.21 -0.79,0.07 -0.69,0.27 -0.13,0 0.13,-0.07 0,-0.14 -0.25,-0.78 -0.13,-0.07 -0.09,0.61 0.16,0.03 -0.41,0.07 -0.09,0.24 0.06,0.17 0.19,0.1 -0.28,0.17 0.03,-0.24 -0.22,-0.03 -0.03,0.31 0.09,0.07 -0.28,0.14 -0.16,0.2 0.1,0.27 -0.13,0.14 -0.06,0.78 -0.22,0.03 -1.26,-1.22 -1.89,-1.53 0.28,-0.61 -0.13,0.03 -0.22,0.34 -0.13,0 -0.03,0.1 -0.13,-0.03 -0.41,-0.34 -2.08,-1.23 -0.13,-0.17 -0.38,-0.1 -0.25,-0.2 -0.66,-0.14 -0.54,-0.24 -0.03,-0.21 0.22,-0.17 0.19,-0.71 -0.41,-0.31 -0.54,0.48 -0.38,0.24 -0.19,0 -0.41,-0.51 -0.38,-0.61 0,-0.14 0.13,-0.24 0.47,0.03 0.38,-0.17 0,-0.41 -0.35,-0.85 0.39,-0.17 -0.04,-0.27 -0.44,0.17 -0.22,-0.68 -1.73,0.03 0.03,0.34 -0.13,0.14 -0.6,-0.2 0.44,-2.35 -0.03,-0.92 1.58,-1.05 0.25,-0.31 2.39,-1.19 0.91,-0.1 0.35,0 0.28,0.14 0.85,0.88 0.82,0.17 0.03,-0.2 -0.94,-0.2 -0.09,-0.58 -0.39,0 -0.38,-0.65 -0.03,-0.41 0.16,-0.61 -0.19,-0.44 0.03,-0.34 -0.13,-0.1 0.5,-0.68 0.09,-0.31 -0.06,-2.21 -0.25,-0.31 -1.23,0 -0.35,-0.21 -0.28,-0.48 0.13,-0.65 -0.16,0 0,-0.07 0.54,-1.26 0.41,-0.61 0.38,-0.99 -0.13,-0.14 -0.38,-0.03 -0.35,-0.44 0.06,-0.03 0.25,0.34 0.31,0.03 0.22,0.14 0.16,-0.27 0.03,-0.55 -0.76,0.1 -0.09,-0.07 0.63,-0.07 0.16,-0.2 0.13,0 -0.03,-0.85 0.16,-1.29 0.25,0.03 -0.09,0.2 -0.03,0.89 0.63,0.14 0.16,0.68 0.35,-0.1 0,-0.44 0.09,-0.04 0,-0.17 0.09,0 0.09,0.24 0.19,0.1 0.25,-0.03 0.25,-0.24 0.28,0.03 0.13,-0.14 0.54,0.07 0.35,-0.24 1.48,0.07 -0.03,0.07 0.09,0 -0.03,-0.07 0.28,-0.03 0.16,-0.14 -0.03,-0.1 -1.04,0.1 -1.07,-0.2 -0.69,0.1 -1.39,-0.1 -0.09,-0.92 -0.41,-0.31 0.03,-0.14 0.22,0.1 0.5,-0.1 0.25,-0.34 0,-0.44 0.57,-0.44 0.06,-0.34 0.28,0 0.16,-0.27 0.19,-0.03 -0.03,-0.58 -0.13,0 -0.09,0.31 -0.19,0 -0.06,-0.27 0.06,-0.75 0.35,-0.41 0.47,-0.07 0.54,-0.44 0,-0.17 -0.32,-0.03 -1.1,0.78 -0.5,0 -0.41,-0.27 -0.38,-0.75 0.16,-1.77 0.13,-0.34 0.19,-0.07 0.06,0.17 0.16,0 0.03,-0.14 0.22,-0.07 0.98,0.07 0.06,-0.61 -0.66,0.03 -0.03,-0.44 0.13,-0.07 0.54,-0.95 0.32,-1.09 0.09,-0.78 0.25,-0.03 0.66,0.55 0.66,0.1 1.26,-0.41 0.79,0.61 0.5,0.83 0.66,0.78 0.38,0.27 -1.54,-2.08 -0.79,-0.48 -1.23,0.1 -0.66,-0.31 -0.16,-0.17 -0.06,-0.27 0.35,0 0.03,-0.17 -0.16,-0.1 0,-0.38 -0.19,0.17 -0.06,0.21 -0.19,0 0.38,-0.55 0.6,0.07 0.09,-0.1 0.03,-0.17 -0.16,-0.31 -0.16,0 -0.06,0.17 -0.13,0 -0.03,-0.38 -0.28,-0.07 0,-0.07 1.04,-1.84 -0.25,-0.07 -0.28,0.24 -0.66,1.02 -0.25,0.61 -0.06,-0.14 0.38,-0.78 0.19,-0.17 0.54,-0.92 0.19,-0.75 0.54,-0.44 0.28,-0.03 0.03,-0.1 -0.03,-0.07 -0.76,0 0,-0.1 0.66,0.03 0.5,-0.1 -0.09,0.27 -0.22,0.03 0.09,0.24 -0.13,0.1 -0.03,0.24 -0.82,0.72 0.22,0 0.13,0.17 0.22,0.03 0.22,-0.27 0.06,-0.31 0.09,0 -0.03,0.24 0.13,0 0.06,0.17 0.38,0 -0.06,0.44 0.09,0.03 -0.03,0.38 0.19,-0.14 0.06,-0.31 -0.13,-0.14 0.16,-0.2 0.54,0.44 0.22,0.58 1.1,0.48 0.19,0.48 0.69,-0.07 0.5,0.14 0.16,-0.24 0.1,0 0.13,-0.38 0.38,-0.2 0.09,0.31 -0.25,-0.07 0.03,0.2 -0.32,0.17 -0.35,0.48 0.13,0.03 0.09,0.34 0.38,0.14 0,-0.14 -0.22,-0.1 -0.06,-0.14 0.03,-0.14 0.16,-0.07 0.22,0.68 0.13,0 0,-0.24 0.19,0.1 0.03,0.2 -0.32,0.1 -0.13,0.24 0.13,0.65 0.16,0.24 0.63,-0.24 0.19,-0.24 -0.03,-0.17 -0.35,-0.38 -0.22,-0.55 0.28,-0.24 -0.19,0 0.03,-0.14 0.38,-0.24 0.06,-0.78 -0.31,-0.58 -0.19,0 -0.19,0.34 -0.38,0.03 -0.16,-0.14 0,-0.65 0.19,-0.24 -0.19,-0.55 0.22,-0.2 -0.38,-0.96 -0.91,-0.24 -0.22,-0.17 -0.25,0 -0.32,0.17 -0.69,-0.03 -0.06,-0.14 -0.69,0 -0.03,-0.17 -0.38,-0.14 -0.6,0.03 -0.25,0.51 -0.85,0.03 0.03,-1.19 -0.47,0 -0.13,0.17 -0.13,-0.1 0.22,-0.2 0.59,-0.03 2.65,0 0.06,0.07 0.54,-0.51 0.32,-0.51 0,-0.17 -0.35,-1.23 -0.06,0.03 -0.03,-0.14 -0.54,0.1 -0.13,0.48 -0.25,0.14 -0.22,-0.72 -0.06,-1.37 0.1,-0.07 0.03,-0.89 0.5,-0.27 0.13,-0.41 -0.03,-0.65 0.28,-0.1 0.09,-0.31 0,-0.31 -0.13,0 -0.03,0.1 -0.03,-0.14 0.09,-0.14 -0.16,-0.03 -0.06,-0.2 0.16,0.03 0.09,-0.17 -0.25,0 0.06,-0.17 -0.06,-0.07 -0.19,0.1 -0.06,-0.1 0.13,-0.24 0.16,0 0.38,0.27 0.16,0.31 0.28,-0.24 0.13,0.24 0.22,0.14 0.47,0.03 0.85,-0.44 0.19,-0.55 -0.06,-1.5 0.09,-0.17 -0.13,-0.03 -0.25,0.27 0.03,0.68 -0.13,0.38 -0.13,0.1 -0.13,0.61 -0.22,-0.03 -0.09,0.14 -0.47,0 -0.47,-0.41 -0.35,-0.58 -0.57,-0.17 -0.38,0.17 -0.13,0.17 -0.25,0.03 -0.95,0.51 -0.06,0 0.03,-0.27 -0.16,-0.03 0,0.17 -0.19,0.03 0.03,0.1 0.16,0.03 0,0.1 -0.31,0.1 -0.19,-0.41 0.06,-0.31 0.57,-0.58 0.5,-0.17 0.22,0.1 0.22,-0.03 0.09,-0.38 0.16,-0.1 -0.03,-0.1 0.25,-0.14 0.06,-0.41 -0.28,0.24 0.22,-0.51 -0.35,0.38 -0.13,0.31 -0.19,-0.03 0.03,-0.1 -0.19,-0.1 -0.03,-0.41 0.13,-0.14 0.03,-0.31 0.35,-0.27 0.32,-0.61 0.47,-0.41 0.09,-0.48 -0.19,-0.1 0,-0.21 0.31,-0.1 0.82,0.07 0.54,0 0,-0.07 -0.98,-0.21 -0.95,-0.03 -2.11,0.72 -0.88,0.03 -0.25,-0.14 -0.38,-0.41 -0.16,-0.44 -0.06,-0.68 0.03,-1.78 0.06,-0.24 0.25,-0.31 0.28,-0.1 0.44,0.03 1.2,0.31 0.41,0 0.09,-0.1 0.38,-0.03 -0.06,-0.85 0.35,0.03 0.22,-0.48 0,-0.24 -0.13,-0.1 -0.03,-0.21 0.22,0 0.03,-0.1 -0.62,-0.38 -0.26,-0.38 -0.09,0 0,-0.14 -0.32,-0.41 -0.13,-0.58 0.13,-0.75 -0.09,-0.65 0.31,-0.34 0.13,-0.48 0,-0.44 -0.32,-0.17 -0.03,-0.34 0.1,-1.81 0.09,-0.31 0.28,-0.1 0.09,-0.2 0.38,-0.07 0.09,-0.17 -0.25,-0.03 0.19,-0.58 -0.22,0 -0.22,0.58 -0.47,0 0.06,-1.61 -0.09,-0.31 0.09,-0.89 -0.16,-0.44 0.28,-2.02 0.16,-0.03 0.28,-0.65 0.16,-0.1 0.28,-0.55 0.13,-0.65 0.25,-0.44 0.19,-0.89 0.35,-0.48 0.57,-1.47 0.57,-0.55 0.5,-0.89 0.69,-0.68 0.31,-0.03 0.41,0.41 0.09,-0.14 0.22,0 0,-0.41 -1.32,-0.27 -0.22,0 -0.06,0.14 -0.09,0 -0.41,-0.31 0.19,-1.92 -0.47,-0.07 0,0.31 -0.09,0 -0.09,-0.27 -0.25,0 0,-0.1 0.25,0 -0.06,-0.24 -0.19,-0.07 0.06,-0.1 -0.06,-0.41 0.44,-0.68 0.22,0.03 -0.03,0.17 -0.09,0.03 -0.09,-0.1 -0.28,0.41 -0.06,0.31 0.38,0.14 0,0.41 0.47,0.14 0.19,-1.54 0.09,-0.38 0.22,-0.1 -0.16,-0.27 0.03,-0.17 0.28,-0.75 0.72,0.03 0,-0.82 -0.44,0 -0.22,-0.44 -0.91,0.03 -0.63,-1.3 -0.19,-0.79 0.03,-0.38 0.1,-0.03 0,0.65 0.66,1.68 0.6,0.07 -0.09,-0.1 0.09,0 0.41,-0.92 -0.13,-0.21 -0.19,-0.07 0.06,-0.48 0.28,-0.17 0.28,-0.82 0.41,-0.1 0.57,-1.23 -0.09,-0.17 -0.13,0 -0.25,0.48 -0.25,0.17 -0.22,-0.17 -0.16,0 0.35,-0.65 0.16,0.1 0,0.1 0.16,0 0.16,-0.41 -0.22,-0.17 0.03,-0.21 -0.16,-0.14 -0.19,0.03 -0.32,0.34 -0.09,-0.03 0,-0.14 -0.38,-0.03 -0.06,-0.1 0.03,0.17 -0.28,0.14 -0.35,0.48 -0.25,0.07 0.1,-0.21 -0.16,-0.03 -0.72,1.16 -0.03,-0.24 0.63,-1.03 0.47,-0.27 0.6,-0.58 0.03,-0.1 -0.13,-0.07 -0.5,-0.1 0.06,-0.21 1.01,0.27 0.57,-0.62 1.64,-0.99 0.19,-0.31 0.57,-0.48 0.28,0.03 0.13,0.62 0.54,0.24 0.09,-0.03 0,-0.14 0.22,0.07 0.06,0.17 0.22,0.1 0,0.14 -0.09,0 -0.06,0.14 0.47,0.24 0.38,-0.79 0.6,0.17 0.16,-0.14 0.54,-0.07 -0.03,-0.17 -0.95,-0.27 0.06,-0.21 0.35,-0.03 1.51,0.34 0.54,0 0.35,-0.82 0.09,-0.82 1.1,0.14 -0.41,0.07 -0.06,0.27 0.06,0.14 0.54,0.24 1.07,-0.34 0.03,-0.75 -0.09,0 -0.13,-0.31 -0.09,-0.03 -0.03,-0.21 -0.47,-0.17 -0.79,-0.55 0.03,-0.17 0.28,-0.21 0,-0.34 -0.57,-0.27 -0.44,-0.07 -0.22,-0.24 -0.13,0 0.13,-0.45 0.31,-0.1 0.32,0.24 0.16,0 0.35,-1.16 0.31,0.41 0.22,-0.31 0.19,-0.07 0.47,0.03 0.41,0.24 0.54,-0.55 0.66,-0.45 0,-0.24 0.09,-0.07 0.13,-0.48 0.69,-0.92 0.28,-1.06 0.95,-1.34 0.03,-0.31 0.6,-1.2 0.35,-1.03 0.09,0 0.41,-0.86 -0.03,-0.1 -1.35,-0.21 -0.19,-0.1 -0.06,-0.21 1.73,-2.91 0.32,-0.38 0.22,0 -0.13,-0.48 0.79,-2.19 0.28,-0.21 1.48,-0.03 0.13,0.14 0.22,-0.14 -0.09,-0.41 0.22,-1.23 0.47,-0.69 0.6,-1.44 1.1,-1.44 0.03,-0.38 0.22,-0.51 0.31,-0.03 0.09,-0.17 0.16,0 2.58,-1.54 0.35,0.03 0.09,0.14 0.03,0.17 -0.09,0.07 -0.03,0.24 0.09,0.62 0.13,0.03 -0.09,-0.45 0.06,-0.93 0.38,-0.24 -0.06,-0.69 0.22,-0.34 0,-0.24 0.35,-0.69 0.28,0.07 0.16,-0.1 0,-0.24 0.44,-0.96 0.22,-0.17 -0.03,-0.27 -0.41,-0.24 -0.13,-0.41 0.76,-0.38 0.22,-0.34 -0.54,0.45 -0.44,-0.14 -0.25,0.03 -0.09,0.27 -0.25,0.24 -0.35,0.03 -0.44,-0.17 -0.09,-0.24 0.13,-0.55 0.57,0.03 0.66,-0.82 0.06,-0.24 -0.13,-0.1 -0.09,0.41 -0.19,0.1 -0.22,0.34 -0.28,0.1 -0.72,0 -0.16,0.17 -0.09,0.31 0.22,0.07 -0.06,0.24 -1.98,0.14 -0.38,-0.21 0.03,-0.38 0.22,-0.17 0.22,-0.45 0.35,-0.34 0.35,-0.69 0.16,-0.03 0.19,-0.41 0.32,-0.24 0,-0.27 0.16,0 0.03,-0.17 0.69,-0.89 1.07,0.1 0.06,-0.24 0.09,0 0.09,0.17 0.16,-0.07 -0.03,-0.21 0.25,-0.52 -0.03,-0.34 0.66,-0.86 -0.54,-0.51 1.26,-1.65 0.47,0 0.09,-0.1 0.28,0.1 0.72,0.03 0.19,-0.07 0.38,0.1 0.57,-0.21 0.25,0.14 -0.03,0.38 -0.88,1.13 -0.28,0.24 -0.47,0.82 -0.44,0.51 -0.13,0.96 0.22,0.03 0.06,-0.96 0.09,0 0.25,-0.31 0.35,-0.65 0.13,-0.03 0.44,-0.55 0.82,-1.2 0.19,-0.1 0,-0.27 0.22,-0.14 0,-0.14 0.41,-0.03 -0.06,-0.31 0.25,-0.14 -0.32,-0.24 -0.16,0.03 -0.03,-0.24 0.82,-1.06 0.19,0 0.22,-0.41 0.16,-0.1 0.03,-0.17 0.13,0 0.41,-0.45 0.19,-0.41 0.03,-0.38 0.22,-0.34 0.13,-0.03 0.06,0.14 0.5,0.17 0.28,0.24 0.32,-0.31 0.06,-0.55 -0.09,0 0,-0.14 -0.25,-0.03 -0.16,-0.24 -0.28,-0.24 -0.13,0 -0.35,-0.38 -0.19,0.1 -0.19,-0.14 0,-0.14 -0.28,0 -0.19,-0.21 -0.19,0.03 0,-0.14 -0.35,0.03 -0.09,-0.17 -0.25,0.03 -0.03,-0.14 -0.82,-0.27 -0.03,-0.14 0.16,-0.03 0.76,0.27 0.44,-1.48 0.25,-0.38 0.38,-1.17 0.16,-0.03 0.06,0.14 0.31,-0.03 0.09,-0.48 0.06,0.03 0.44,-1 0.13,-0.55 -0.03,-0.14 -0.25,-0.1 -0.03,-0.1 0.22,0 0.13,-0.21 0.5,-1.37 0.13,-0.03 0.06,0.14 0.25,-0.03 0.13,0.14 0.16,-0.03 0.85,-1.92 0.13,0 0.1,0.17 0.19,-0.03 0.09,0.38 -0.35,0.34 0,0.27 -0.16,0.38 0,0.69 -0.22,0.34 -0.16,0.52 -0.25,0.31 -0.38,0.93 -0.16,0.03 0,-0.07 -0.32,-0.07 -0.13,-0.17 -0.38,0 -0.06,0.38 -0.13,0.1 -0.16,0.65 -0.13,0.1 -0.19,0.82 -0.57,1.48 0.35,0.17 0.25,-0.1 0,-0.45 0.25,-0.14 0.19,-0.72 0.38,-0.82 0.54,0.17 0.25,0.45 0,0.24 0.19,0.07 0.09,0.27 0.16,0 0.22,-0.69 -0.25,-0.21 -0.16,-0.62 0.19,-0.27 0.09,-0.45 0.19,-0.34 -0.03,-0.14 0.54,-1.1 0.03,-0.34 0.13,-0.07 -0.03,-0.24 0.13,-0.03 0.16,-0.45 0,-0.31 0.16,-0.14 0.13,-0.55 0.6,0.21 0.19,0.34 0,0.14 -0.22,0.14 -0.31,0.41 0.09,0.52 -0.22,0.31 0.09,0.14 0.16,0 0.57,-0.72 -0.09,-0.41 0.25,-0.51 -0.03,-0.45 -0.35,-0.45 0.16,-0.21 0.5,-0.31 0.25,0 0,0.21 0.09,0.03 0.5,-0.1 0.16,-0.34 0,-0.27 -0.16,0 -0.22,0.21 -0.5,0.03 -0.13,0.1 -0.28,-0.1 -0.25,0.17 -0.72,-0.1 -0.22,-0.17 0.03,-0.38 0.6,0.03 0.35,-0.14 -0.03,-0.1 -0.35,0.07 -0.16,-0.14 -0.25,0 0,-0.1 0.22,-0.48 0.09,-0.03 0.5,-1.2 0.25,-0.45 0.38,0.17 0.19,0.27 0.25,-0.07 0.13,-0.24 0.7,0.45 0.46,0.14 0.03,0.62 0.1,-0.03 0.06,-0.72 0.13,-0.17 0.19,-0.03 0.09,-0.34 -0.06,-0.52 0.22,-0.58 -0.13,-0.48 0.16,-0.31 -0.22,-0.14 -0.09,-0.27 0.13,-0.21 0.06,-0.48 0.25,-0.31 0.13,0.21 0.25,-0.14 0.25,-0.48 0.19,-0.07 0.06,-0.55 0.41,-0.34 0.35,-0.52 0.41,-0.24 0.41,-0.41 0.22,-0.58 0.35,-0.41 0,-0.31 -0.16,-0.07 0.06,-0.21 -0.09,-0.17 0.25,-0.07 0.28,-0.48 0.13,-0.38 -0.09,-0.1 0.16,-0.45 0.54,-0.76 -0.03,-0.48 0.25,-0.48 -0.13,-0.21 0.03,-0.21 0.19,0.07 0.22,-0.1 -0.03,-0.27 -0.22,0 0.06,-0.21 0.44,-0.55 0.35,-0.07 -0.03,-0.14 0.16,-0.24 0.38,-0.38 0.13,0 0.13,-0.21 0.22,-0.1 0.1,-0.31 0.44,-0.69 0.41,0 0.03,-0.24 0.35,-0.62 0.03,-0.28 0.22,-0.24 0,-0.27 0.32,-0.14 0.41,-0.41 0.57,-0.1 0.13,-0.34 0.28,0 0.32,-0.45 0.38,-0.17 0,-0.14 0.22,-0.1 0.16,-0.31 0.06,-0.52 0.16,0.03 0.09,-0.21 0.22,-0.03 -0.03,0.34 0.38,-0.03 0,-0.28 0.19,-0.21 0.06,-0.28 -0.22,-0.1 -0.31,0.38 0,-0.21 0.16,-0.21 -0.03,-0.14 0.16,-0.1 0.16,0.07 0.22,-0.31 0.5,-0.41 0.13,-0.38 0.19,-0.17 -0.09,-0.38 0.06,-0.14 0.38,-0.03 0.06,-0.1 0,-0.17 -0.25,-0.38 0.54,-0.58 0.13,0.03 0,-0.69 0.25,-0.14 0.19,-0.55 0.31,-0.31 -0.03,-0.21 0.22,-0.21 0,-0.24 0.5,-0.79 0.19,-0.1 0.16,-0.65 0.54,-1.27 -0.09,-0.24 0.19,-0.17 0.22,-0.52 0.13,-0.65 0.6,-1.38 0.09,-0.14 0.1,0.03 0,-0.21 0.22,-0.34 0.47,-1.31 0.09,-0.96 0.28,-0.52 0.38,-1.07 0.85,-1.27 0.35,-0.31 0.69,-0.03 0.22,-0.31 0.13,-0.03 0.25,0 0.16,0.17 0.41,0.17 0.16,0.21 0.16,0 0.19,-0.14 0.09,-0.24 0.19,0 0.35,-0.24 0.13,0.03 0.19,-0.17 0.09,0.1 0.19,-0.03 0.54,0.21 0.41,0.31 0,0.1 0.35,0.17 0.63,-0.03 0.16,-0.07 0.03,-0.14 0.44,0 0.09,-0.14 -0.82,0.03 0.03,-0.1 -0.19,-0.03 -0.35,-0.31 -0.79,-0.96 -0.19,-0.1 -0.28,0.03 -0.13,-0.14 -0.38,0.31 -0.03,-0.17 0.19,-0.41 0.6,-0.9 0.03,-0.9 0.79,-0.93 0.35,-0.24 -0.19,-0.21 0.03,-0.14 0.31,0 0.03,-0.14 0.28,-0.1 0.72,-1.1 1.61,-0.14 1.1,-0.24 0.32,-0.17 0.44,0.07 0.25,-0.21 0.94,0.07 0.22,-0.1 0.72,0 -0.06,-0.48 0.06,-0.55 0.82,-0.59 0.94,-1 0.76,-0.62 0.22,-0.24 0.09,-0.59 0.44,0.1 -0.06,-0.41 0.13,-0.07 0.16,-0.41 0.13,-0.59 -0.06,-0.31 0.25,-0.59 0.03,-0.34 0.19,-0.31 0.31,-0.14 0.38,-0.48 0.82,-0.69 0.57,-0.31 0.16,-0.21 0.32,0.03 0.75,-0.31 0.88,-0.69 0.28,-0.76 -0.03,-1.35 0.13,-0.07 0.57,0.03 0.25,-0.55 0.06,-1.1 0.13,-0.1 0,-0.31 -0.19,-0.31 0.09,-0.03 0,-0.45 0.16,-0.28 -0.03,-0.28 0.09,-0.03 -0.09,-0.14 0.03,-1.14 -0.16,-0.45 0.28,-0.03 -0.16,-0.24 0.09,-0.17 -0.13,-0.1 -0.72,0.17 -0.13,-0.31 -0.22,-0.21 -0.09,-0.34 0.22,-0.66 0.38,-0.52 0.03,-0.35 0.28,-0.52 0.63,-0.72 -0.06,-0.21 0.09,-0.52 -0.13,-0.07 0,-0.14 0.19,-0.14 0.25,0.31 0.13,0 0.13,-0.35 -0.1,-0.17 0.16,0.03 0.03,-0.17 -0.16,-0.07 -0.22,0.07 0,-0.17 0.16,-0.17 0.5,0.07 0.22,0.14 0,0.17 0.19,0.17 0.03,0.38 0.09,0.1 0.32,-0.03 -0.09,-0.52 0.19,-0.07 0.16,0.31 0.06,0.45 0.75,0.31 0.44,0.31 0.09,-0.03 -0.03,-0.14 -0.82,-0.41 -0.32,-0.35 0.09,-0.48 -0.28,-0.17 -0.09,-0.28 0.06,-0.14 0.35,0.17 0.19,-0.03 0.06,-0.38 0.28,-0.17 0.35,-0.07 0.69,0.07 0.03,-0.07 -0.76,-0.21 -1.01,0.24 0.06,-0.14 -0.19,-0.1 0.13,-0.07 0.22,-0.55 0.35,-0.31 0.28,-0.66 0.13,-0.07 0.16,-0.62 0.25,-0.34 0,-0.21 0.19,-0.28 -0.06,-0.17 0.13,-0.1 0.19,-0.59 0.47,-0.41 0.03,-0.17 0.25,-0.21 0.54,-0.9 0.19,-0.04 -0.16,-0.48 -0.13,-0.07 0.28,-1.1 0.32,-0.31 0.38,-0.73 0.44,-0.35 0.44,-0.76 0.54,-0.21 -0.03,-0.31 0.13,-0.17 -0.09,-0.38 0.25,-0.38 0.91,-0.48 0.44,-0.52 0.5,-0.98 0.67,-0.54 0.32,-0.41 0.28,-0.97 0.03,-0.9 -0.16,-0.41 0.5,-0.52 0,-0.21 0.41,-1.11 0.44,-0.38 0.72,-1 0.25,-0.21 -0.16,-0.03 -0.38,0.41 0,-0.14 0.44,-0.73 0.66,-0.52 0,-0.21 0.47,-0.38 0.57,-0.83 0.5,-0.17 0.28,-0.28 0.57,-0.28 0.82,-0.07 0.57,-0.24 0.19,-0.28 0.66,-0.28 0.16,-0.24 0.28,-0.1 0.09,-0.28 0.72,-0.42 0.13,-0.28 0.31,-0.1 0.13,-0.21 0.63,-0.42 0.72,-0.1 0.73,-0.45 0.35,0.07 0.19,-0.21 0.72,-0.03 0.13,-0.17 0.79,-0.1 0.03,-0.1 0.47,-0.17 0.25,0.03 0.16,-0.17 0.75,-0.07 0.16,0.1 0.25,-0.24 0.88,-0.24 0.57,-0.38 0.44,-0.14 0.28,0.03 0.69,-0.79 0.41,-0.1 0.32,-0.24 0.38,0.03 0.85,-0.73 1.01,-0.55 0.09,-0.17 0.25,0 0.13,-0.21 0.22,-0.03 0.19,-0.17 1.1,-0.31 0.44,-0.04 0.06,0.07 0.19,-0.14 0.25,0.03 0.32,-0.42 0.22,0 0.09,0.17 0.16,-0.03 0.13,0.14 0.28,-0.03 0.25,-0.35 0,-0.14 -0.41,-0.03 0,-0.14 0.16,-0.18 0.94,0.14 0.03,-0.28 0.35,0.07 0.73,-0.24 0.69,0.17 0.13,0.17 -0.03,0.21 0.28,0.07 0.22,-0.1 0.44,0.14 0.31,-0.1 0.25,0.07 1.07,-0.03 0.38,-0.17 0.38,-0.35 0.09,0.03 0.22,-0.31 0.31,0.03 0.32,0.21 0.03,-0.48 0.63,-0.03 0.13,0.52 0.85,0 0.13,0.1 0.44,-0.31 0.41,-0.1 0.47,0.03 0.32,-0.17 0.6,-0.1 0.16,-0.14 1.01,-0.28 0.19,-0.24 0.38,0.04 0.28,-0.35 0.13,0.14 0.5,-0.31 0.19,0.03 0.47,-0.35 0.16,0.03 0.19,-0.14 0.06,-0.28 0.63,-0.14 0.91,-0.41 0.16,0.03 0.13,-0.17 0.13,0.03 -0.16,-0.69 -0.44,-0.45 0.06,-0.04 0.25,0.31 0.25,0.14 0.16,-0.24 0.44,-0.24 0.06,-0.42 0.19,-0.1 0.09,-0.24 -0.66,-0.59 -0.09,-0.24 1.29,1.21 0.44,-0.24 0.13,-0.24 0.54,-0.52 0.19,-0.03 0.06,-0.14 0.22,-0.1 0.44,0.1 0.09,-0.9 -0.09,-0.03 -0.25,-0.52 -0.76,-0.21 -0.6,-0.03 -0.09,-0.14 0.35,-0.45 0.25,0.04 0.66,-0.17 0,-0.1 0.35,-0.28 0,-0.17 -0.41,-0.24 0.41,-0.86 0.22,-0.14 0.25,0.03 0.09,-0.24 0.16,-0.07 0.16,-0.28 0.16,-0.03 0.16,-0.38 0.47,-0.66 0.41,-0.07 0.32,-0.38 0.09,-0.45 -0.13,-0.28 0.03,-0.24 0.09,-0.17 0.28,0 0.16,-0.14 0,-0.14 0.09,0 0.03,-0.17 -0.16,-0.17 -0.03,-0.24 0.5,-0.73 0.06,-0.21 -0.06,-0.17 0.16,-0.45 0.28,-0.38 0.44,-0.14 0.35,0.45 0.57,-0.03 0.13,-0.17 0.31,-0.07 0.57,-0.45 0.16,-0.45 0.09,-0.03 0,-0.28 0.28,-0.21 0.03,-0.21 -0.13,0 0.06,-0.35 0.28,-0.28 0.19,-0.03 0.09,-0.21 0.35,0 0.06,-0.14 0.28,-0.17 0.16,0.03 0.44,-0.21 0.19,-0.21 0.28,-0.04 0.13,-0.17 0.35,0.07 0.22,-0.28 0.28,-0.03 0,-0.14 0.32,-0.1 0.03,-0.17 -0.09,-0.03 0,-0.38 -0.13,-0.31 0.09,-0.21 0.25,-0.07 0.16,0.17 0.06,0.52 0.32,0.1 0.16,0.17 0.38,-0.1 0.1,-0.31 0.35,0.03 0.16,0.24 0.09,0 0.06,-0.21 0.35,-0.07 0.06,-0.21 0.09,0.07 0.16,-0.07 0.22,-0.48 -0.19,-0.07 -0.06,-0.35 0.38,-0.55 0.09,0 z m -6.6,27.36 -1.64,1.5 -2.22,4.99 0,0 -3.04,4.99 0.19,6.03 0,0 4.4,1.12 7.56,-2.63 5.8,-5.18 3.36,-4.5 -1.32,-5.01 -3.1,-5.71 -4.83,-1.85 -6.15,2.98 0.99,3.27 z"
     title="Taiwan"
     id="TW-TW" />
  <path
     d="m 245.38304,463.1295 0,0 -1.73,-7.26 0,0 -3.34,-3.93 -3.52,-1.25 0.72,1.43 -0.06,0.1 0.09,0.31 0.47,0.92 0.09,0.37 0.13,0.17 0.19,-0.07 0.03,-0.2 0.19,0.13 -0.03,0.14 -0.22,0.03 -0.03,0.2 0.41,0.78 -0.09,0.31 0.44,0.75 0.28,0.85 0.03,0.41 -0.28,0.1 -0.03,0.14 0.47,-0.17 0.19,0.03 0,-0.14 -0.25,-0.14 0,-0.2 0.19,-0.54 0.28,-0.2 -0.06,-0.17 -0.22,0.03 0.09,-0.13 0.44,-0.07 0.57,0.34 0,0.58 -0.13,0.14 -0.25,0 0,0.41 0.25,-0.07 0.13,0.1 -0.06,0.1 -0.35,0 0.19,0.24 0.06,0.51 -0.16,0.2 0.09,0.44 -0.19,0.14 0,0.24 -0.25,0.1 -0.1,-0.1 -0.19,-1.05 -0.47,0.03 0,0.17 0.22,0.03 0.03,0.71 0.16,0.34 -0.13,0.1 0,0.64 -0.6,0.54 -0.31,0.03 -0.66,0.78 0.03,0.37 -0.13,0.31 0.06,0.27 -0.1,0.51 0.25,0.92 0.19,0.17 0.25,0.71 0.6,0.54 0.32,0.71 -0.22,0.41 0.38,0.13 0.06,0.44 0.09,0.1 0.38,-0.14 0.25,0.1 0.5,-0.17 1.35,0.61 0.06,-0.41 0.22,-0.14 0.09,0.07 0,0.2 -0.22,0.37 0.5,0.17 -0.03,0.2 0.22,0.17 0.28,0.88 2.07,-1.15 -0.17,-4.77 z"
     title="Kaohsiung"
     id="TW-KH" />
  <path
     d="m 0.61304,250.0195 0.13,0.03 0.16,0.31 0.41,-0.1 0.1,0.07 -0.22,0.17 -0.44,0.1 -0.19,-0.21 -0.19,0.03 -0.03,-0.21 -0.19,0.03 0.31,-0.24 0.15,0 z m 0.63,-1.62 0.44,0.14 0,0.17 -0.25,0.14 0,0.17 0.16,0.17 0.28,0.17 0.44,-0.07 0.25,0.07 -0.06,0.34 -0.66,0.17 -0.31,-0.34 -0.35,0.03 0.22,-0.21 -0.03,-0.28 -0.5,-0.41 0.25,-0.27 0.12,0 z m 3.75,-0.24 0.06,0.34 -0.38,-0.1 0.13,-0.24 0.19,0 z m 6.11,-6.91 0.13,0.14 0.44,0.03 0.38,0.45 0.66,0.52 0.32,0.14 0.38,0 -0.19,0.96 -0.19,0.03 -0.22,0.31 0.22,0.1 0,0.48 -0.19,0.1 -0.06,0.17 0.28,0.03 -0.19,0.31 -0.09,0 0.03,0.24 -0.32,-0.07 -0.09,-0.28 -0.5,-0.1 -0.38,0.03 -0.25,0.14 -0.41,0.55 0,0.35 0.28,-0.07 -0.19,0.38 -0.41,0.14 -0.09,0.21 -0.13,0.04 -0.06,-0.07 0.06,-0.31 -0.53,-0.1 -0.57,0.34 -0.35,0.45 -0.13,0.38 -0.1,0.03 -0.25,0 -0.16,-0.17 -0.03,-0.28 -0.16,-0.1 -0.54,-0.07 -0.25,0.1 -0.35,-0.38 0.13,-0.03 0.19,0.14 0.38,-0.45 0.13,-0.03 0.06,0.1 0.13,-0.41 -0.38,-1.03 0.91,-0.07 0.19,-0.2 0.22,-1.76 0.19,-0.65 0.44,-0.27 0.73,0.03 0.13,-0.24 0.75,-0.28 z m 18.29,-9.36 -0.13,0.31 0.31,-0.03 -0.03,0.17 0.19,0.21 0.35,0 -0.1,-0.21 0.31,-0.24 0.28,0.03 0.47,0.27 0.09,-0.1 0.25,0.07 -0.16,0.37 0.03,0.11 0.19,0.03 0.03,0.17 -0.09,0.07 0.09,0.38 0.22,0.58 0.25,0.31 0.32,-0.07 0.22,0.17 0.1,-0.1 0.54,0 0.13,-0.1 0.76,0.38 -0.03,0.21 -0.22,-0.03 -0.13,0.69 0.13,0.03 0,0.31 0.16,0.24 0.28,-0.03 0.19,0.1 -0.09,0.52 0.19,0.72 0.66,0.86 0.06,-0.24 0.25,-0.17 0.28,0.21 -0.06,0.34 -0.16,0.21 -0.22,-0.1 -0.09,0.31 0.09,0.52 -0.09,0.62 0.19,0.38 -0.06,0.55 0.25,0.38 0.13,-0.03 0.03,0.21 0.22,0.21 0.47,-0.14 0.13,-0.14 0.13,0.65 -0.5,0.38 0.13,0.34 -0.16,0.14 -0.16,0.03 0,-0.24 -0.38,0.07 -0.22,0.14 -0.35,0.48 0,0.14 0.41,0.69 0.03,0.38 -0.09,0.03 -0.06,0.24 -0.28,0.07 -0.13,-0.17 -0.16,-0.03 -0.28,0.21 -0.09,0.45 0.25,0.14 0.03,0.14 -0.35,0.24 -0.09,0.17 -0.38,0 -0.22,0.1 -0.44,0.34 -0.41,0.1 -0.47,0.38 -0.94,0.1 -0.06,-0.28 0.57,0.03 0.13,-0.07 -0.03,-0.45 0.28,-0.27 -0.66,-1.03 -0.25,-0.17 -0.63,-0.14 0,-0.1 -0.41,-0.14 -0.32,0 -0.03,0.1 -0.13,0 -0.09,-0.17 -0.16,-0.03 -0.47,-0.41 -0.82,-0.45 -1.67,0.1 -1.76,0.52 -1.61,0.72 -0.72,0.58 -0.57,0.62 -0.25,0.34 -0.03,0.21 -0.19,0.1 -0.22,0.48 -0.28,0.27 -0.31,1.13 -0.19,0.34 0.03,0.48 -0.38,0.14 -0.41,-0.14 -0.13,0.28 -0.41,0 -0.09,-0.28 -0.22,0.03 -0.16,-0.21 -0.79,-0.03 0.03,-0.1 -0.41,-0.55 0,-0.17 -1.1,0.03 0.12,-0.28 -0.12,0 -0.03,-0.27 -0.25,-0.03 -0.28,-0.48 -0.44,-0.34 -0.25,-0.03 0.06,-0.21 -0.5,-0.1 0,-0.24 -0.31,-0.1 -0.1,-0.14 0.47,-0.34 0.35,0 0.19,0.24 0.57,-0.21 0.06,0.24 0.19,0 0.06,0.17 0.16,0 0.35,-0.28 0.25,-0.03 -0.03,-0.31 0.19,-0.28 0,-0.34 -0.16,-0.03 0.03,-0.21 0.25,0 0.09,-0.17 0.13,-0.04 0.19,0 0.03,0.1 0.35,0 0.03,-0.58 -0.13,-0.21 0.03,-1.1 -0.28,-0.93 -0.47,-0.69 -0.13,-0.62 0.28,-0.79 0.54,0 0.19,-0.14 0,-0.48 -0.16,-0.24 -0.16,0 -0.03,0.17 -0.19,0.1 -0.69,-0.07 -0.25,0.1 0,0.31 0.28,0.31 -0.38,0.03 -0.47,-0.38 -0.03,-0.38 -0.28,-0.17 0.16,-0.38 0.16,-0.14 0.03,-0.31 0.31,-0.24 0.5,0 0.16,-0.48 0.16,-0.17 0.22,-0.04 0.19,-0.17 0.44,0 0,-0.24 0.22,-0.1 0.88,0.48 1.04,1.07 1.04,0.83 0.41,0.28 0.69,0.21 0.35,0.34 0.38,-0.07 1.51,0.55 0.69,0 0.69,-0.17 -0.03,-0.17 0.54,-0.58 0.16,-1.14 -0.72,-0.79 0.1,-0.03 0.19,0.14 0.47,0 0.28,-0.14 -0.13,-0.17 0.25,-0.17 0.03,-0.17 0.28,0 0.13,-0.14 -0.06,-0.21 0.28,-0.24 -0.06,-0.24 -0.13,-0.03 0,-0.24 -0.25,-0.14 0.28,-0.21 0,-0.79 -0.22,-0.48 1.26,-0.21 0.09,-0.31 0.19,-0.14 0.63,-0.14 -0.03,-0.52 -0.19,-0.17 0.06,-0.34 -0.25,-0.1 -0.13,-0.24 0.22,-0.24 0.13,0.03 z m 120.64,-56.63 0.06,0.14 0.25,0 0.19,0.28 -0.03,0.21 -0.38,0.07 0.03,0.28 -0.32,-0.1 0.09,-0.07 -0.03,-0.31 -0.32,0.14 -0.13,-0.14 0,0.17 -0.44,-0.14 0.16,-0.21 0.19,0.07 0.09,-0.21 0.22,0.04 0.06,-0.17 0.31,-0.05 z m -2.77,-1.48 0.13,0.28 0.66,0.17 0.09,0.38 -0.03,0.38 0.19,0.03 0,0.14 -0.32,0.07 0,-0.1 -0.38,-0.07 -0.03,-0.17 -0.54,-0.31 -0.16,-0.28 -0.03,-0.35 0.16,-0.14 0.26,-0.03 z m 59.71,-122.3 0.19,0.35 -0.25,0.52 0.57,0.14 0.06,0.17 0.22,-0.11 0.09,-0.35 0.57,0 0.13,0.07 0,0.1 -0.54,0.66 -0.06,0.38 -0.25,0.14 -0.35,0.04 -0.09,0.59 -0.22,-0.04 -0.12,0.21 -0.22,0.07 -0.16,-0.14 -0.03,-0.17 -0.5,0.56 -0.16,0 -0.22,0.38 -0.09,0 -0.25,-0.17 0,-0.17 0.16,-0.07 0.16,-0.52 0.19,-0.17 -0.13,-0.04 -0.06,-0.17 0.28,0.07 0.5,-0.59 0.03,-0.49 0.35,-0.59 0.03,-0.42 0.17,-0.24 z m -6.08,-0.25 0.03,0.28 -0.22,0.04 0,0.17 -0.16,0.07 0.03,-0.21 0.22,-0.1 0.1,-0.25 z m 2.61,-0.56 0.03,0.21 0.29,0 -0.13,0.1 0.32,0.07 -0.06,0.21 -0.13,0.03 -0.1,0.28 -0.19,0.04 -0.22,0.35 -0.54,-0.03 -0.31,0.66 -0.22,0.07 -0.16,-0.07 0.06,-0.17 -0.13,-0.17 -0.47,-0.03 0,-0.24 -0.25,-0.17 -0.32,-0.66 0.09,-0.17 0.22,-0.1 0.88,0.11 0.25,-0.14 0.28,0.07 0.81,-0.25 z m -3.11,-24.09 0.22,0.04 0.09,0.28 0.22,0.14 0.69,-0.04 -0.03,0.28 -0.25,-0.04 0.03,0.28 -0.25,0.35 -0.1,0.52 0.22,-0.07 0.44,0.07 0.19,-0.17 0.03,0.17 -0.16,0.03 0.03,0.21 0.19,0.1 0.13,-0.18 0.19,0 -0.03,0.42 0.19,0.35 0.19,0 0,-0.28 0.16,-0.07 0.09,-0.24 0.06,0.07 0.35,-0.04 -0.06,-0.14 0.06,-0.24 -0.38,-0.24 0.47,0 0.5,-0.59 0.38,-0.11 0.16,0.14 0,0.28 0.09,0 0.19,-0.35 0.19,-0.07 0.19,0.04 0.13,-0.1 0.25,0.21 0.38,-0.04 0.16,-0.17 0.09,0.07 -0.25,0.21 -0.13,-0.03 0.03,0.14 -0.25,0.25 0.03,0.31 -0.09,0.07 0,0.28 -0.35,0.1 -0.22,0.49 0.06,0.1 -0.09,0 -0.16,0.28 -0.16,0 -0.31,-0.59 -0.06,0.18 -0.28,0.24 0.03,0.38 -0.09,0.1 -0.16,-0.07 -0.06,0.28 -0.26,0.14 -0.06,0.21 -0.19,0.11 -0.41,0 -0.06,-0.38 -0.16,0 -0.82,0.56 0.19,0.14 -0.03,0.11 -0.28,-0.04 -0.03,0.1 -0.35,0.17 -0.13,-0.1 0.03,-0.42 -0.75,0.11 -0.44,-0.18 0,-0.35 -0.19,0 -0.06,0.1 -0.19,-0.1 0,-0.14 0.16,-0.11 0,-0.28 0.47,-0.42 0.03,-0.24 0.28,-0.35 -0.13,-0.31 -0.35,0.04 -0.03,-0.07 0.16,-0.07 0.06,-0.17 0.22,0 0.06,-0.32 0.16,-0.14 0,-0.24 -0.16,0 -0.17,-0.22 0.09,-0.17 -0.09,-0.31 0.09,-0.24 0.16,0 z m 6.36,-2.48 0.22,0.07 0,0.17 -0.13,0.11 -0.22,-0.07 0.03,-0.25 0.1,-0.03 z m 2.99,-5.48 0.03,0.21 0.19,0.25 0.28,-0.04 0.19,0.14 -0.06,0.38 0.16,0.38 0.35,-0.1 0.57,0.1 -0.09,0.7 -0.41,0.31 0.25,0.24 0.03,0.42 0.28,-0.03 0.06,0.07 -0.03,0.14 -0.25,0.14 0.09,0.07 0,0.17 -0.32,0.17 -0.16,-0.07 -0.03,-0.14 0.13,-0.14 -0.03,-0.28 -0.25,-0.12 -0.06,-0.42 -0.32,-0.17 0.06,-0.31 -0.12,-0.28 -0.25,0.21 -0.19,0.35 -0.09,0 0.09,-0.38 -0.28,0 -0.19,0.63 -0.44,-0.07 -0.31,0.52 -0.16,-0.07 0.03,-0.42 -0.6,-0.07 -0.13,0.17 -0.54,0.21 -0.06,0.11 -0.28,-0.11 -0.25,0.24 0,0.59 -0.09,0.31 0.09,0.1 0.03,0.52 -0.13,0.35 0.19,0.14 0,0.25 -0.13,0.17 -0.28,-0.04 -0.38,0.1 -0.09,-1.15 0.22,-0.14 0,-0.12 -0.19,-0.28 0.19,0 0.03,-0.21 0.31,-0.31 0,-0.18 -0.19,-0.07 -0.06,-0.63 -0.13,-0.04 -0.03,-0.28 0.5,0.07 0.38,-0.45 0.22,0 0.25,-0.24 0.38,0.17 0.03,-0.14 0.19,-0.04 0.19,-0.35 0.63,-0.49 0.13,-0.17 0,-0.28 0.25,-0.24 0.47,0.03 0.13,-0.06 z m 1.1,-2.2 0.09,0.17 0.41,0 0.03,0.14 -0.1,0.14 -0.75,0.14 -0.19,0.35 0,0.21 -0.25,0.07 -0.06,0.25 -0.25,0 -0.28,0.28 -0.22,0.07 -0.1,-0.25 0.35,-0.77 0.19,0 0.09,0.1 0.19,-0.35 0.28,0.14 0.35,-0.35 0.03,-0.28 0.19,-0.06 z m -2.2,-3.56 0.03,0.14 0.09,-0.07 0.06,0.1 -0.25,0.21 0.03,0.07 -0.09,0 -0.09,0.28 0.38,-0.11 -0.13,0.28 0.16,0.07 0.03,0.17 -0.41,0.31 0,0.25 0.19,0.03 -0.03,0.18 -0.5,0.35 -0.13,-0.07 -0.47,0.07 0,-0.24 -0.19,-0.1 -0.03,-0.49 0.19,0.03 0.03,-0.14 0.35,-0.03 0,-0.35 -0.22,-0.03 -0.03,-0.21 0.19,-0.07 0.06,-0.17 0.25,0.07 0.06,-0.42 0.47,-0.11 z m 27.08,-8.0100002 0.06,0.35 -0.6,0.63 -0.03,0.17 -0.32,0.1 -0.28,0.39 -0.69,0.04 0.09,-0.18 0.16,0.07 0.09,-0.14 0.13,0 0.28,-0.7 0.25,0 0.22,-0.35 0.64,-0.38 z m 28.44,-4.54 0.06,0.45 0.22,-0.04 0.03,0.25 0.13,0 -0.1,0.14 0.1,0.14 -0.28,0.31 0.06,0.31 0.22,0 0.09,0.14 0.25,-0.03 0,-0.17 0.5,0.14 -0.03,-0.45 0.22,-0.35 0.32,-0.17 0.41,0.04 0.09,0.21 -0.09,0.39 0.31,0.21 0.22,0 0.22,-0.17 0.12,0.35 0.35,0.39 0.1,0.21 -0.03,0.21 -0.25,0.04 -0.22,-0.21 -0.31,0.07 -0.13,-0.35 -0.19,0 -0.1,0.21 0.03,0.35 -0.25,0.07 -0.22,0.25 -0.19,0.52 -0.25,0.07 0,-0.28 -0.25,0 -0.22,0.14 -0.09,-0.17 -0.22,-0.04 0.03,0.21 0.13,0.03 -0.06,0.21 -0.06,0.07 -0.25,-0.07 -0.06,-0.21 -0.28,-0.21 0.03,-0.14 0.16,0 0.06,-0.17 0,-0.35 -0.16,-0.17 0.28,0.07 0.19,-0.21 -0.19,-0.46 -0.38,0 -0.28,0.32 -0.16,-0.04 0.03,-0.7 -0.13,-0.07 0.09,-0.52 -0.13,0 -0.03,0.14 -0.22,0.14 -0.34,0.66 -0.16,0 -0.09,-0.17 0.16,-0.32 -0.16,-0.38 0.6,-0.27999999 -0.04,-0.56 0.35,0.07 0,0.14 0.22,-0.18 0.22,-0.03 z"
     title="Fukien"
     id="TW-FK" />
</svg>
