<?xml version="1.0" encoding="UTF-8" standalone="no"?>
<!-- Created for MapSVG plugin: http://mapsvg.com -->
<svg
   xmlns:mapsvg="http://mapsvg.com"
   xmlns:dc="http://purl.org/dc/elements/1.1/"
   xmlns:rdf="http://www.w3.org/1999/02/22-rdf-syntax-ns#"
   xmlns:svg="http://www.w3.org/2000/svg"
   xmlns="http://www.w3.org/2000/svg"
   mapsvg:geoViewBox="67.386673 41.042591 75.137834 36.671535"
   width="792.50275"
   height="572.02728">
 
  <path
     d="m 629.42033,211.68732 1.98,0.66 1.49,-0.33 0.92,-0.43 1.14,0.02 1.54,-0.26 2.22,-0.9 1.27,-0.03 1.13,0.21 -0.69,1.47 0.72,3.8 1.17,4.52 -0.19,4.04 -1.31,2.11 -4.26,2.7 -0.85,1.96 -0.67,2.23 -0.78,1.9 -1.6,0.95 -1.17,0.48 -0.65,0.96 0.11,1.08 0.65,1.38 1.73,0.51 1.74,-0.37 1.75,0.2 2.01,2.62 1.26,3.32 3.48,3.17 0.95,1.53 0.72,3.78 1.24,2.62 -0.05,3.02 0.14,1.53 2.84,3.88 0.56,1.75 1.21,0.6 1.41,-0.21 1.72,-1.06 2.05,-0.4 1.27,0.73 0.85,3.53 1.09,2.04 0.68,1.76 0.24,1.78 -0.23,2.04 -1.01,0.82 -1.48,0.38 -3.19,-0.25 -2.86,0.28 -1.5,0.7 -2.43,2.89 -1.71,3.32 -0.5,2.42 0.37,1.6 0.94,0.89 1.87,1.03 0.44,0.79 0.7,3.88 1.01,2.35 0.22,1.14 -0.27,5.76 0.38,1.54 1.19,4.11 1.72,1.95 1.73,3.53 0.41,1.91 -0.21,1.11 -0.55,0.59 -1.32,0.02 -0.54,0.45 0.01,0.63 0.87,0.89 2.36,1.12 3.05,1.88 4.09,0.58 0.95,0.64 0.86,0.94 1.47,2.81 0.98,1.02 5.62,1.09 4.08,-1.4 3.31,0.8 1.86,0.17 0.61,-0.22 0.69,-0.79 -1.38,-1.97 -0.1,-0.59 0.27,-1.33 3.63,-5.06 0.63,-1.27 -0.01,-1.43 -0.25,-1.57 0.21,-1.39 1.28,-1.79 0.99,-0.48 3.77,-0.28 2.24,0.45 2.61,1.86 0.98,-0.06 1.01,-0.6 0.73,-0.17 1.52,0.86 2.79,0.51 5.8,-0.88 0.46,0.18 1.75,-0.12 1.69,0.26 2.33,0.84 0.36,0.45 3.24,1.74 1.62,-0.01 1.74,-0.35 1.55,0.41 1.88,-0.06 0.81,0.58 1.31,1.92 1.12,1.22 1.17,0.43 3.16,-0.01 1.38,1.05 1.59,0.68 2.17,0.22 1.32,0.67 1.32,1.47 3.57,2.33 1.03,1.25 1,1.73 0.72,0.46 3.91,-0.8 1.17,-0.01 1.21,0.35 1.58,1.52 1.42,3.19 1.05,0.72 1.87,-0.14 0.76,-0.85 0.29,-0.65 1.07,-1.01 0.33,0.04 0.52,0.74 -0.02,1.11 -0.56,2.6 -0.11,2.75 0.28,2.66 0.6,2.08 0.03,1.13 -0.68,1.98 -1.27,1.74 -0.12,0.46 -1.39,1.3 -1.11,0.3 -1.48,-0.44 -1.15,0.27 -1.14,0.76 -0.88,1.24 -0.22,1.32 0.15,0.97 1.47,3.61 0.24,1.14 -0.47,1.43 -1.41,1.39 0.3,0.52 1.37,0.99 0.29,2.42 0.64,1.69 -0.17,1.73 -1.51,3.45 1.24,4.92 1.36,3.33 0.64,3.23 0.55,1.78 0.77,1.05 1.63,1 0.33,0.55 0.42,2.53 0.66,1.65 0.48,0.68 1,0.33 0.64,-0.25 0.73,-0.69 0.91,-0.08 0.69,0.67 1.11,2.13 -0.08,2.25 -0.45,2.99 0.4,3.71 -0.12,1.49 -0.38,1.09 0.06,0.97 0.6,1.18 1.12,1.51 0.47,1.39 -0.15,0.6 -2.12,3.29 -0.29,0.96 0.23,0.88 0.58,0.85 0.89,0.48 2.64,2.66 0.96,0.36 0.73,-0.19 0.99,0.24 1.13,1.11 0.84,1.76 0.3,1.58 -0.13,0.59 -3.29,2.68 -2.15,3.04 -1.46,0.83 -0.44,0.5 -0.73,1.16 -0.27,1.93 -1.32,1.17 -0.46,1.21 0.06,1 1.05,2.27 0.27,1.08 1.41,2.95 0.2,1.5 -0.05,3.68 0.33,1.55 0.64,0.43 0.92,0.1 1.17,0.87 0.34,0.72 0.63,0.73 1.64,0.35 2.02,1.68 0.55,-0.26 0.18,-0.74 -0.36,-2.33 0.15,-0.57 0.7,-0.24 0.82,0.34 1.93,1.8 1.69,0.85 0.73,1.29 -0.06,0.5 2.12,3.68 2.37,1.81 0.6,0.76 0.7,1.46 1.55,2.01 0.28,0.8 -0.21,0.93 0.28,1.28 -0.09,1 -0.45,0.91 -3.12,3.03 -0.06,0.47 0.38,2.09 0.63,1.17 0.53,0.59 0.87,1.92 -0.83,0.81 -1.45,0.44 -1.52,-0.01 -3.03,0.44 -1.44,0.55 -1.09,0.88 -2.91,1.46 -5.73,-0.02 -1.36,0.2 -1.31,0.78 -0.8,0.95 -0.16,0.69 0.18,1.54 -0.13,1.39 -0.38,1.02 -1.14,0.51 -0.8,0 -1.38,-4.99 -1.37,-1.27 -0.94,-1.2 -0.83,-2.12 -0.89,-1.29 -0.72,-1.5 -0.96,-0.65 -1.04,-1.64 -0.47,-0.31 -1.04,-0.13 -3.92,-1.54 -2.04,-1.1 -0.91,-0.16 -0.41,-0.31 -1.49,-0.61 -0.12,-0.56 -0.7,-0.78 -0.89,-1.78 -0.22,-0.15 -0.06,0.37 -0.34,0.35 -0.05,0.68 -0.29,0.49 -0.67,0.33 -0.04,0.3 -0.75,0.27 -0.21,-0.14 -0.23,0.05 -0.15,0.28 -0.67,0.22 -0.17,-0.18 -0.48,0.05 -0.17,0.19 -0.47,-0.02 -0.38,0.8 -0.59,0.14 -0.31,-0.07 -0.4,-0.57 -0.74,0.14 -0.34,-0.28 -0.26,-0.03 -1.71,0.34 -0.81,0.37 -1.56,-0.12 -0.83,0.54 -1.01,-1.63 -0.03,-1.15 -2.15,-1.07 -1.05,-0.03 -1.01,0.79 -1.14,-0.01 -1.39,0.55 -0.93,-0.38 -1.41,-0.95 -0.61,-0.07 -1.74,1.4 -0.79,0.47 -1.01,0.17 -0.92,-0.27 -1.43,0.03 -0.79,-0.36 -0.7,-0.58 -0.41,-0.96 0.3,-0.55 -0.08,-0.32 -1.34,-1.22 -1.02,-0.11 -1.13,0.11 -0.66,0.38 -0.25,0.3 -0.31,1.33 -0.21,0.27 -1.42,-0.11 -0.61,0.63 -0.54,0.16 -3.29,-0.44 -0.69,0.05 -0.94,-0.67 -1.13,-0.09 -0.94,-0.53 -0.61,-0.06 -0.88,1.51 -0.17,0.82 1.17,1.03 0.22,0.81 0.59,0.41 0.2,0.31 -0.22,0.22 -1.08,0.25 -0.85,1.81 -0.86,0.83 -0.68,0.18 -1.18,1.6 -1.74,0.29 -1.02,-0.79 -2.16,-0.02 -1.29,0.77 -0.48,0.56 -0.1,0.33 -0.95,0.25 -1.04,-0.23 -0.32,0.16 -0.01,0.33 -0.56,0.52 -0.86,0.22 -2.92,-0.38 -0.94,-0.48 -0.21,0.18 -0.03,0.29 0.09,1.04 -0.34,0.33 -0.32,0.06 -1.05,0.83 -0.65,0.26 -0.36,-0.77 -0.56,-0.07 -1.18,1.49 -1.26,0.98 -0.76,-0.26 -0.59,-0.75 -0.39,-0.17 -2.34,-0.32 -1.19,2.03 -0.06,0.79 -0.3,0.37 -2.03,-1.26 -0.57,-0.21 -0.3,0.05 -0.68,0.37 -0.57,0.02 -0.8,0.47 -1.36,0.43 -0.4,0.95 -0.42,0.38 -2.35,0.61 -1.31,1.22 -0.29,1.17 0.32,0.49 -0.33,0.59 -0.8,0.51 -0.91,0.34 -1.05,-0.82 -0.43,0.54 -0.81,0.41 -0.6,-0.95 -0.96,-0.21 -0.6,-0.62 -0.29,0.31 -0.39,0.15 -1.14,0.14 -0.19,0.56 0.27,0.63 -0.1,0.41 -0.45,0.27 -1.08,-0.64 -0.95,-0.28 -0.82,-1.35 -0.12,-0.59 -0.51,-0.38 -1.16,-0.03 -0.36,0.17 -0.42,-0.36 -0.92,-0.45 -0.99,-0.15 -0.81,0.44 -1.42,-0.17 -0.38,0.62 -0.22,0.73 -0.25,0.28 -0.56,-0.03 -1.35,-0.94 -0.93,-1.02 0.05,-1.59 -0.22,-0.1 -0.71,0.09 -0.23,-0.13 -0.13,-0.31 1.38,-1.59 0.22,-0.12 1.24,0.2 0.61,-0.43 0.21,-1.11 -0.52,-0.78 0.88,-2.04 0.79,0 0.68,0.77 2.19,-0.21 1.32,0.45 0.89,-1.12 1.11,0.24 0.8,-0.48 1.12,-0.09 0.46,-0.22 0.18,-0.2 0.11,-0.83 0.35,-0.48 1.09,-0.44 -0.08,-0.33 1.04,-0.23 -0.51,-0.94 0.17,-1.7 -0.21,-1.48 0.14,-0.25 -0.01,-0.72 -0.08,-0.73 -0.28,-0.55 0,-0.51 0.5,-0.51 0.07,-0.27 -0.25,-1.09 0.54,-4.19 -4.64,-0.07 -0.65,-0.42 -4.14,-1.25 -1.23,0.53 -1.02,1.14 -1.17,0.64 -0.7,-0.2 -0.74,-0.44 -1.74,-0.43 -1.57,-0.09 -2.11,-0.38 -0.13,-0.28 -0.6,0.04 -0.94,-0.69 -0.33,-0.01 -1.88,-1.56 -0.55,-0.1 -0.74,-0.61 -0.93,0.01 -1.31,-0.39 -0.29,0.3 -0.91,0.09 -0.17,-0.25 -0.99,0.11 -3.09,-0.08 -4.01,0.89 -0.8,0.59 -0.79,0.93 -0.38,0.08 -2.16,1.5 -0.46,0.12 -0.24,0.01 -0.43,-0.43 -0.04,-0.62 0.3,-0.64 -0.07,-0.4 -0.35,-0.5 -0.36,-0.03 -0.34,0.32 -0.47,-0.02 -0.47,-0.28 -0.14,-0.26 -1.14,-0.28 -1.06,0.01 -0.72,0.24 -0.5,-0.09 -0.82,0.15 -0.83,0.35 -0.76,0.55 -0.33,0.04 -0.64,0.59 -0.01,0.46 -0.19,0.27 -0.48,0.37 -1.57,0.53 -0.91,0.83 -0.19,0.44 0.08,0.2 -0.93,0.94 -0.16,0.36 -2.44,1.56 -0.96,0.23 -1.08,-0.59 -2.73,-0.07 -0.36,0.03 -1.53,0.7 -1.25,3.09 -0.62,0.88 -0.5,0.32 -0.75,0.13 -1.23,0.86 -0.42,1.21 0.16,0.51 -0.18,0.6 0.57,0.43 -1.05,1.72 -0.38,0.34 -1.3,0.57 -0.69,0.48 -0.42,-0.05 -0.31,0.3 -0.34,0.09 -0.21,0.28 -0.18,-0.07 -0.25,0.19 -0.4,-0.01 -0.24,0.25 -0.57,-0.02 -0.98,0.52 -0.72,-0.34 -0.64,0.07 -1.94,0.66 -0.68,-0.04 -0.56,0.27 -1.45,0.31 -0.3,0.5 -0.58,0.29 -1.54,0.1 -0.2,0.29 -1.21,0.54 -0.19,0.45 -0.23,0.15 -0.13,0.6 -0.54,0.2 -0.4,0.29 -0.11,0.25 -0.23,0.06 -0.12,0.21 0.08,0.26 -0.2,0.21 -0.25,-0.02 -0.26,0.55 -0.43,0.01 -0.54,0.76 -1.29,0.91 -0.09,0.24 -0.47,0.14 -0.77,0.61 -0.81,0.07 -0.1,0.21 -0.56,0.34 -0.04,0.2 -0.33,0 -0.76,0.31 -0.22,-0.29 -0.24,0.09 -0.38,-0.12 -0.94,-0.57 -0.66,0.34 -0.62,-0.12 -0.81,0.21 -1.99,1.98 -0.15,0.47 -0.51,0.46 -0.08,0.44 -0.58,0.32 -0.24,0.56 -0.53,0.43 -0.2,0.78 -0.25,0.13 -0.2,1.03 0.14,0.28 -0.28,0.07 -0.84,2.25 -0.08,0.61 -0.45,1.12 -0.21,0.17 -0.19,0.78 -0.52,0.58 -0.51,1.08 0.06,0.17 -0.25,0.67 -0.75,0.78 -0.08,0.37 -0.44,0.3 -0.42,1.05 -0.35,0.35 -0.04,0.44 -0.47,0.72 -0.84,0.57 -0.47,0.52 -0.09,0.61 0.3,0.11 -0.15,0.71 -1.27,1.37 -0.81,0.62 -0.88,2.11 -0.13,0.97 -0.51,0.74 -0.26,0.75 -0.33,0.01 -0.71,-0.49 -0.96,0.24 -0.8,-1.1 -1.26,-0.22 -1.57,0.66 -0.93,0.82 -0.51,0.19 -0.73,0.71 -0.72,0.21 -0.32,-0.27 -0.55,-0.05 -0.28,0.5 -0.27,0.18 -0.87,0.04 -0.98,0.39 -0.41,0.05 -0.31,-0.31 -0.65,0.01 -0.65,0.77 -0.34,-0.08 -0.26,0.23 -1.09,-0.29 -1.33,0.12 -0.14,0.15 -1.43,0.01 -0.72,0.6 -0.82,-0.23 -0.86,-0.83 -0.82,-0.05 -1.38,-0.69 -1.43,0.2 -0.24,-0.17 -1.14,0.28 -0.55,1.05 -0.26,-0.01 -0.41,0.29 -1.21,0.09 -0.65,0.41 -0.97,0.31 -0.5,-0.16 -0.71,0.11 -0.31,-0.3 -1.48,0.2 -0.58,0.8 -0.46,0.35 -0.82,0.04 -0.68,0.53 -1.08,0.03 -1.13,0.63 -0.94,0.82 -0.68,0.36 -0.38,0.53 -0.11,0.71 -0.51,0.33 -0.34,-0.07 -1.52,0.26 -0.59,0.29 -0.33,0.26 -0.85,1.33 -0.53,0.37 -1.94,0.28 -0.28,0.2 -0.45,0.76 -0.38,1.17 -0.39,0.48 -2.68,1.52 -1.63,1.55 -0.3,0.46 -1.04,-0.08 -0.21,0.18 -0.01,0.33 -0.19,0.22 -0.39,0.01 -1.05,0.7 -0.37,0.76 -0.21,1.12 -0.77,1.34 -0.89,-0.09 -0.9,0.56 -0.61,0.16 -0.4,-0.29 -0.85,0.21 -0.35,-0.17 -0.38,0.15 -1.21,1.07 -0.35,-0.04 -0.17,0.17 -0.23,1.03 -0.98,0.59 -0.76,0.09 -1.23,0.59 -0.14,0.32 -0.38,0.3 -0.41,1.31 -1.13,0.61 -1.06,1.51 -0.46,-0.09 -0.31,0.24 -2.29,2.86 -0.68,0.23 -1.88,1.09 -1.33,0.47 -0.6,0.35 -0.5,0.53 -0.65,0.16 -0.96,1.86 -2.34,2.06 -0.57,1.15 -0.92,0.37 -0.64,0.64 -0.31,0.01 -0.44,0.64 -0.46,-0.14 -1.01,0.16 -1.01,-0.32 -2.46,0.83 -0.73,0.1 -1.24,-0.09 -1.49,-0.34 -1.07,0.4 -1.43,0.1 -0.79,-0.2 -1.02,0.46 -0.75,0.15 -1.05,-0.43 -1.33,-0.23 -0.41,0.07 -0.61,0.58 -0.28,-0.01 -0.53,-0.35 -0.6,-0.77 -0.87,-0.75 -0.89,-0.37 -1.12,-0.03 -0.3,-0.3 -0.37,-0.45 -0.13,-0.56 -0.85,-1.73 -0.64,-0.39 -0.69,-0.79 -0.5,-0.17 -0.78,-0.94 -0.59,-0.41 -0.97,-1.35 -0.44,-1.02 -0.73,-1.09 -0.12,-0.99 -0.31,-0.71 -0.04,-1.2 -0.58,-0.97 -0.4,-2.09 -0.82,-1.98 -0.38,-1.66 0.09,-1.02 -0.23,-0.4 -0.55,-0.24 -0.87,-1.1 0.02,-0.46 0.3,-0.85 -0.34,-0.63 -0.54,-0.36 -0.22,-0.52 -0.04,-1.03 -0.54,-1.15 -0.46,-0.75 -0.97,-0.96 -0.71,-0.44 -0.17,-0.53 0.04,-0.6 -0.3,-0.84 -0.15,-0.23 -0.66,-0.3 -0.69,-1 -0.33,-0.99 0.02,-0.39 -0.45,-0.8 -0.07,-0.54 0.71,-2.52 -0.23,-0.31 -0.09,-1.04 0.11,-0.46 -0.28,-0.54 -0.1,-0.69 -0.48,-0.58 -0.14,-0.59 0.05,-0.4 0.25,-0.29 -0.48,-0.91 -0.67,-0.61 -0.35,-0.62 -0.54,-0.36 -0.36,-1.03 -0.83,-0.87 -0.14,-0.96 0.07,-0.72 -0.15,-0.14 0.04,-0.22 0.29,-0.16 0.04,-0.83 0.31,-1.03 0.72,-0.69 0.24,-0.77 -0.17,-0.51 0.19,-0.68 -0.39,-0.97 0.32,-0.86 -0.19,-0.26 -0.05,-0.52 0.38,-0.41 -0.08,-1.3 0.26,-0.11 0.09,-0.56 0.32,-0.36 -0.11,-0.8 -0.56,-1.48 0.55,-1.54 0.65,-0.01 0.48,-0.26 0.18,-0.73 -0.16,-0.69 -0.57,-0.56 -0.01,-0.48 -0.19,-0.27 0.13,-1.17 0.46,-0.21 -0.16,-0.45 0.58,-0.05 0.32,-0.7 0.83,-0.22 0.66,-0.66 -0.22,-0.05 -0.06,-0.2 0.17,-0.42 0.31,-0.2 0.17,-0.86 -0.27,-0.38 0.27,-0.92 -0.02,-0.52 0.57,-0.62 -0.27,-1 0.19,-0.76 0.47,-0.68 0.01,-0.51 -0.3,-0.55 0.15,-0.94 0.11,-0.25 0.96,-0.68 0.33,-0.82 -0.11,-0.44 -0.84,-0.48 -0.34,-0.76 -0.6,-0.51 -0.15,-0.68 0.52,-2.12 -0.15,-0.81 0.51,-1.22 -0.26,-0.41 -0.15,-0.79 -0.46,-0.49 -0.78,-0.11 -0.47,-0.59 0.14,-0.34 -0.04,-0.57 0.21,-0.35 -0.13,-0.58 0.25,-0.59 0.51,-0.11 0.86,0.2 0.54,-0.27 0.11,-0.33 -0.35,-0.57 0.11,-0.48 -0.1,-0.65 0.14,-0.66 0.47,-0.74 -0.08,-0.8 0.32,-0.63 0.02,-0.98 0.68,-0.39 0.96,-1.09 0.21,-0.33 0.03,-0.77 0.4,-0.68 -0.05,-0.36 -0.46,-0.5 -0.37,-0.99 -1.06,-1.85 -0.19,-0.76 -0.12,-1.77 -0.52,-0.74 -0.31,-0.08 -0.12,-0.33 0.29,-1 0.25,-0.29 0.08,-0.66 -0.11,-0.29 0.21,-0.28 0,-1.55 0.45,-2.6 -0.14,-1.66 0.87,-1.75 0.35,-0.32 0.48,-1.12 0.48,-0.64 0.2,-0.78 -0.25,-0.74 0.1,-0.41 -0.08,-1.05 0.18,-0.69 -0.26,-1.06 0.18,-0.82 0.54,-0.5 0.69,-1.3 0.57,-1.86 0.13,-0.94 0.48,-0.49 -0.28,-0.79 0.32,-0.9 -0.16,-0.45 0.02,-1.12 -1.83,-3.16 0.71,-0.8 0.54,-0.16 0.64,-1.16 3.97,-2.13 0.26,-0.23 0.32,-0.77 0.04,-0.48 -0.32,-1.28 -0.47,-0.87 0.07,-1.15 -0.35,-1.65 0.19,-0.81 0.28,-0.27 0.74,-1.91 0.14,-0.88 -0.69,-0.91 -0.21,-0.71 0.09,-0.31 -0.29,-0.25 -0.02,-1.09 0.55,-1.42 -0.11,-0.76 -0.1,-0.43 -1.35,-1.65 -0.81,-0.15 -1.58,-0.63 -0.98,-1.24 -1.36,-0.45 -0.19,-0.33 -0.52,-0.09 -1.02,0.13 -0.49,0.11 -1.06,0.57 -0.48,0.84 -0.49,0.44 -0.86,0.11 -0.85,0.31 -0.03,0.29 -0.83,0.69 -0.52,0.03 -1.31,0.86 -1.07,-0.07 -0.54,0.23 -0.34,0.25 -0.04,0.69 -0.79,0.82 -0.2,-0.27 -1.18,-0.01 -0.61,0.53 -0.45,-0.05 -0.34,0.25 -0.35,0.01 -0.43,-0.59 -0.72,0.17 -1.5,1.2 -1.02,0.56 -0.87,0.19 -1.48,0.95 -0.38,-1.08 0.02,-0.79 -1.12,-1.47 -0.07,-0.95 -0.6,-0.37 -1.09,-1.42 -0.18,-0.09 -0.69,0.08 -0.25,0.9 -0.58,0.8 -1.9,-0.22 -0.68,-0.45 -0.42,-0.95 0.14,-0.16 0.71,-0.06 0.02,-0.44 0.61,-0.23 0.04,-0.4 -0.4,-1.06 1.22,-2.01 -0.11,-1.37 -0.63,-0.93 0.22,-1 0.24,-0.4 0.62,0.09 0.14,-0.16 -0.01,-0.42 -0.37,-0.63 0,-0.3 0.39,-0.44 1.09,-0.59 0.51,-0.73 -0.17,-0.66 0.2,-0.96 -1.04,-0.24 -0.17,-1.13 0.54,-0.08 0.36,-0.31 0.69,0.35 0.39,-0.13 0.42,-0.53 0.33,-0.84 0.11,-0.9 0.33,-0.37 0.58,-0.33 0.06,-0.28 0.06,-0.5 -0.17,-0.61 0.24,-1.88 -0.49,-0.87 0.07,-0.16 0.78,-0.24 0.1,-0.73 0.26,-0.56 0.74,-0.27 0.28,-2.18 0.67,-1.44 0.13,-0.6 0.58,-0.53 0.56,0.24 0.79,-0.27 1.08,-1.38 -0.88,-1.5 -0.35,-3.21 0.45,-0.67 0.95,-0.72 0.12,-0.25 -0.01,-0.24 -0.45,-0.75 -0.57,-0.32 -0.29,-0.5 0.39,-0.94 0.39,-3.12 -0.87,-1.4 -0.97,-0.59 -0.43,0.07 -1.09,-0.19 -0.68,0.23 -0.27,-0.73 0.24,-0.6 -0.76,-0.68 0.74,-0.95 -0.52,-1.56 -0.54,-0.14 -0.65,0.31 -0.4,-0.09 -0.64,-0.29 -0.72,-0.74 -2.1,-0.29 -0.62,0.39 -0.66,-0.15 -0.74,0.32 -0.6,0.07 -0.7,-0.37 -0.24,-0.72 -1.1,-0.36 -0.93,-0.04 -0.65,-0.69 -0.6,-0.34 -1.12,-1.49 -0.35,-0.27 -0.95,-0.12 -0.57,-0.38 -0.09,-0.71 -0.3,-0.57 -0.49,-1.89 -0.92,-1.93 -0.84,-0.38 -0.8,-0.08 0.01,-1.08 -0.58,-0.65 -0.42,0.02 -0.39,0.62 -0.5,0.09 -0.26,-0.15 -0.41,-0.74 -0.47,-0.36 -1.19,0.12 -0.41,-0.57 0.43,-1.1 -0.55,-0.53 -0.5,-0.13 -0.76,0.07 -0.62,0.32 -0.97,0.97 -0.83,-0.16 -0.23,0.31 0.39,1.26 -0.62,0.54 -0.48,0.07 -0.23,-0.13 -0.36,-0.83 -0.67,-0.75 0,-1.32 -0.73,-1.01 -0.16,-1.82 -0.86,-1.32 0.24,-1.17 -1.04,-0.91 -0.67,-0.04 -0.6,-0.32 -0.93,-1 0.2,-0.49 -0.39,-0.6 -0.84,-0.4 -0.83,1.15 -0.61,0.55 -0.94,0.39 -0.38,-0.21 -0.9,-0.15 -0.76,0.16 -0.2,1.29 1.7,0.92 0.23,0.49 -0.54,1.21 0.12,0.72 -0.41,0.42 -0.73,-0.07 -0.41,-0.6 -0.71,0.14 -0.24,0.1 0,0.91 -0.84,0.47 -0.35,-0.02 -0.12,-0.62 -1.52,-0.46 0.1,-0.52 -0.76,-0.58 -0.05,-0.25 0.27,-0.8 -0.1,-0.46 -0.65,-0.83 -1.4,-0.56 -1,0.11 -0.69,1.02 -0.67,0.16 -0.12,0.53 0.4,0.37 0.03,0.2 -0.4,0.61 -0.25,0.74 -0.73,0.32 -0.34,-0.05 -0.21,-0.26 0.14,-0.63 -0.11,-0.23 -1.69,-0.82 -0.21,0.03 -0.34,0.81 -0.47,0.27 -0.68,0.11 -0.55,-0.08 -0.67,-0.57 -1,-0.1 -0.15,-0.22 -0.03,-0.49 -0.15,-0.07 -0.41,0.16 -0.98,-0.19 -0.33,0.48 -0.02,0.73 -0.48,0.67 -0.26,1.02 -0.41,0.88 -1.01,0.53 -1.1,0.81 -1.01,0.25 -1.84,-0.06 -0.6,-0.27 -0.29,-0.34 -0.25,0.04 -0.95,0.63 -1.27,1.11 -0.07,0.25 0.21,1.15 -0.28,0.78 0.07,0.21 0.8,0.2 0.29,-0.31 0.32,-0.08 0.49,0.48 0.14,0.38 -0.02,1.28 -0.37,0.64 -0.48,0.44 -1.21,0.35 -0.83,0.42 -0.23,0.16 0.07,0.52 -0.97,0.49 -1.16,0.09 -0.62,-0.49 -0.9,-0.1 -1.03,0.27 -0.8,0.54 0.11,1.32 -0.11,0.33 0.45,1.42 -0.43,0.92 -0.44,0.51 0.05,0.37 -0.21,0.61 0.46,1.1 -0.31,0.84 -0.11,0.9 -0.37,0.36 -2.46,0.86 -0.93,0.6 -0.3,0.25 -0.2,0.54 -0.61,0.44 -0.17,0.93 -1.14,1.13 -0.27,1.3 -0.47,1.03 0.02,1.97 -1.27,1.58 -0.36,0.13 -0.51,0.5 0.14,0.66 -0.48,0.96 -0.35,0.27 -0.09,0.94 -0.36,0.29 -0.31,1.01 0.05,0.99 -0.28,0.79 0.01,0.42 0.13,1.49 0.33,0.4 0.12,0.56 -0.02,0.33 -0.19,0.26 -0.55,0.18 -0.61,-0.27 -1.32,0.95 -0.19,0.61 -0.3,0.05 -0.84,0.69 -1.48,0.13 -0.73,0.5 -0.55,-0.37 -0.81,0.3 -1.24,1.44 -0.3,1.62 -0.21,0.13 -0.85,-0.11 -0.86,1.12 -1.63,0.7 -0.18,0.62 -0.2,0.19 -1.05,-0.05 -0.34,0.17 -0.1,0.5 0.42,0.44 0.06,0.38 -0.12,0.74 -0.26,0.29 -0.13,0.66 -0.28,0.34 -1.16,0.56 -0.23,0.63 -1.09,0.68 -0.16,0.97 -0.55,0.94 -0.17,0.11 -1.26,0 -0.87,0.49 -0.49,0.63 -0.56,0.41 -0.56,-0.05 0,0 -1.13,-1.65 -0.27,-2.35 0.09,-3.33 0.72,-2.15 0.92,-1.94 6.28,-11.17 0.63,-4.46 0.34,-8.6 0.65,-3.7 -0.12,-3.73 -0.76,-1.47 -1.37,-0.66 -1.18,-0.24 0.21,-0.82 -0.2,-0.21 0.84,-2.87 1.05,-2.87 3.07,-4.48 1.01,-1.01 8.91,-11.54 2.11,-2.24 0,0 0.17,0.23 0.69,-3.06 0.63,-1.97 0.7,-1.43 0.64,-0.88 0.99,-0.89 4.25,-2.71 1.46,-1.31 0.29,-3.09 -2.13,-5.18 16.52,-10.51 1.87,-0.81 1.19,1.25 -0.29,3.1 2.59,1.9 2.77,2.33 9.97,-5.55 1.64,-1.66 2.33,-0.47 1.84,-0.05 1.45,0.32 1.15,0.65 0.93,0.95 0.81,1.21 2.62,4.82 1.24,1.87 -1.12,4.36 -0.3,3.53 0.44,5.8 13.92,1.37 4,2.81 0.72,4.02 0.97,2.21 3.85,2.22 1.37,2.81 -0.04,2.01 0.2,-0.02 4.01,-5.89 2.62,0.48 5.69,3.58 0.24,-2.77 1.59,-0.94 1.01,-2.15 1.95,0.28 0.77,1.03 2.73,-0.48 0.45,-3.36 0.83,-2.36 1.17,-0.14 1.39,-1.33 1.56,-0.32 1.02,-2.34 1.4,-1.72 1.39,-0.93 1.02,-1.94 4.32,-0.97 0.76,1.64 0.98,0.05 2.98,-1.64 1.6,-1.52 3.13,1.16 0.96,1.24 1.4,-0.92 0.62,-1.17 1.8,-1.71 2.38,-0.48 1.01,-0.76 2.05,-4.09 3.6,-2.03 1.21,-1.74 2.38,-0.1 2.95,1.14 1.61,-1.53 3.14,1.74 2.23,-2.5 2.21,-1.71 1.04,-2.56 3.42,-2.25 1.8,-0.93 0.44,-2.39 3.37,0.74 2.15,2.48 3.79,0.14 -4.62,-9.98 -1.52,-4.86 -1.65,-10.04 2.67,-6.3 -0.36,-4 0.45,-5.17 4.41,-2.07 4.82,-1.3 0.67,-7.4 0.61,-0.39 0.14,-0.36 0,0 0.51,0.42 1.25,0.33 1.21,-0.3 0.45,-1.1 0.17,-3.59 0.89,-2.09 1.49,-2.56 2.21,-6.8 1.45,-2.05 2.08,-1.83 0.72,-0.33 2.88,0.5 1.01,-0.06 3.53,-1.67 1.61,-0.59 3.21,-0.67 0.8,-0.58 0.43,-0.73 0.4,-1.24 0.41,-0.54 0.73,-0.52 1.51,0.16 1.28,-0.29 1.24,0.46 0.78,0.56 0.71,1.75 1.15,0.71 1.71,0.05 1.7,-0.9 0.98,-1.38 1.09,-2.08 0.99,-0.57 3.23,0.85 2.25,-0.48 1.26,0.09 8.19,4.29 0.18,1.09 0.54,0.42 0.78,-0.33 2.97,-1.75 0.77,-0.2 1.35,0.6 3.28,0.23 1.41,-0.35 2.62,-1.21 1.67,-0.32 0.91,0.44 1.31,1.17 1.24,0.34 2.34,-0.84 1.55,-0.34 2.1,0.6 1.38,0.22 1.35,-0.22 1.52,-0.9 3.9,-1.49 1.74,0.44 3.18,1.56 3.39,0.44 1.41,-0.28 1.08,-0.05 1.19,0.16 0.54,-0.47 0.88,-3.29 1.21,-2.76 0.65,-0.2 2.17,2.37 1.87,0.33 2.91,0.09 2.72,-0.75 1.57,-0.76 0.95,-1.64 1.37,-3.89 0.58,-0.97 0.68,-0.58 1.31,0.29 1.47,0.68 1.03,-0.3 1.27,-0.79 2.23,-1.8 3.07,-0.4 1.77,0.14 z"
     title="Gorno-Badakhshan"
     id="TJ-GB" />
  <path
     d="m 91.980328,407.67732 -0.17,0.97 0.21,0.59 -0.37,0.86 0.24,1.18 -0.37,0.84 0.04,1.38 -1.16,0.94 5.71,4.11 2.79,1.09 3.770002,0.61 4.73,0.07 5.71,-0.58 0.68,3.1 1.24,2.09 2.37,0.06 3.3,-1.55 0.11,-3.15 0.71,-2.81 0.93,-2.43 -0.05,-1.78 0.36,-1.61 1,0.54 1.18,-0.46 0.38,-1.01 -0.23,-10.82 -0.61,-0.78 -1.18,0.67 -1.19,0.26 -2,-0.5 -2.57,0.75 -1.21,-0.54 -0.02,-1.22 0.96,-1.67 0.75,-2.68 4.43,-12.05 3.47,-6.26 0.02,-1.24 -1.8,-4.05 1.19,-0.66 3.37,-5.23 3.79,-0.14 1.75,-1.12 3.21,-2.91 1.39,-1.06 2.19,-0.67 0.59,-2.67 0.6,-0.01 0.39,-0.21 1.41,2.42 4.39,0.92 3.97,-2.72 2.98,-1.28 2.19,-1.45 1.98,-1.66 2.39,-0.43 2.2,1.59 1.19,-0.62 1.78,-1.44 0.2,-0.61 0.99,0.19 1.4,0.99 2.59,-0.43 2.79,1.39 1.39,0.19 0.39,-2.23 0.99,-0.01 1.2,1.2 0.79,-1.02 2.15,-6.9 1.38,-2.04 5.98,1.38 0.8,-0.21 5.18,-0.43 3,0.99 3,2.62 6.58,-1.65 1.99,-2.24 3.01,1.21 1.8,-0.42 1.8,-0.21 1,-0.4 2.99,-2.04 1.21,0.81 0.22,6.88 0.41,2.42 0.79,-1.42 2.4,-2.43 1.14,-2.38 1.74,-2.87 0.92,-1.24 1.2,-0.81 2.67,-2.54 2.76,-1.33 1.41,-3.25 2.83,-4.69 1.41,0.2 2.84,-3.07 2.33,1.39 2.71,1.1 1.62,-0.25 1.73,-2.06 3.38,-7.56 4.69,-5.75 3.08,-4.94 1.43,-0.41 2.43,1.66 6.53,-2.24 1.79,4.75 3.04,0.85 1.4,2.28 1.01,1.03 2.63,0.65 1,1.66 1.4,1.66 1.19,2.07 -0.67,5.75 -0.25,3.7 2.03,-0.18 1.83,-1.21 1.24,-2.03 1.63,-0.18 1.24,-2.04 1.63,-0.59 6.73,-3.37 3.84,0.69 2.94,2.37 4.16,2.94 2.1,2.1 2.55,3.3 0,0 -2.11,2.24 -8.91,11.54 -1.01,1.01 -3.07,4.48 -1.05,2.87 -0.84,2.87 0.2,0.21 -0.21,0.82 1.18,0.24 1.37,0.66 0.76,1.47 0.12,3.73 -0.65,3.7 -0.34,8.6 -0.63,4.46 -6.28,11.17 -0.92,1.94 -0.72,2.15 -0.09,3.33 0.27,2.35 1.13,1.65 0,0 -0.33,1.11 0.01,0.75 -0.2,0.37 -0.24,0.06 -0.71,-0.52 -0.62,0.04 -0.16,-0.09 -0.13,-0.42 -0.39,-0.3 -0.29,0.09 -0.13,1 0.63,1.16 0.12,1.33 0.86,0.81 -0.04,0.25 -0.67,0.61 -0.45,0.16 -0.37,-0.08 -0.73,-0.8 -1.14,-0.02 -0.82,0.63 -1.12,0.39 -1.09,0.65 0.16,0.93 -0.04,0.35 -0.12,0.03 -1.23,-1.04 -0.3,-0.89 -0.76,-1.32 -0.46,-0.24 -0.35,0.26 -0.35,1.39 -0.74,0.48 -0.04,0.23 0.69,1.95 -0.02,0.66 0.22,0.95 -0.28,0.66 0.58,1.27 -0.05,0.24 -0.97,0.91 0.58,0.97 0.05,0.88 0.36,0.39 0.43,1.76 0.24,0.34 0.47,0.19 1.12,0.16 1.21,0.83 0.41,0.53 0.71,0.09 2.1,-0.19 0.7,0.14 0.76,0.66 0.62,1.07 0.55,0.35 0.56,-0.06 0.16,0.18 0.02,0.58 -0.64,1.7 0.24,0.53 -0.21,0.56 0.36,0.58 0.17,0.65 0.79,0.44 0.27,0.45 0.58,0.39 0.06,0.34 -0.78,1.47 -0.16,0.84 0.52,0.71 0.75,1.48 -0.28,1.09 -0.95,0.72 -0.01,0.28 0.32,1.12 0.21,0.29 0.38,-0.01 0.46,0.19 0.16,0.21 0.22,0.59 -0.01,0.56 -1.92,0.86 -0.14,0.24 0.05,0.3 0.23,0.14 0.07,0.27 -0.72,0.29 -0.45,2.79 -0.39,0.42 -0.74,0.25 -0.22,0.42 -0.09,1.13 0.3,0.24 -0.02,1.05 0.36,0.99 -0.09,0.92 -0.32,0.57 -0.71,-0.18 -0.13,0.23 -0.26,0.03 -0.23,-0.25 -0.13,-0.56 -0.34,0.04 -0.25,0.2 -1.02,0.08 -1.02,0.43 -0.91,0.12 -0.06,1.32 0.69,0.87 0.1,0.71 -0.44,0.17 -1.25,-0.24 -0.23,0.17 0.04,0.39 0.7,0.51 0.33,0.7 -0.19,0.51 -0.94,-0.2 -0.61,0.6 -0.42,0.11 -1.08,-1.09 -0.21,-0.04 -0.23,0.17 -0.06,0.33 0.41,0.71 0.1,1.08 -0.07,0.25 -0.77,0.79 -0.03,1.64 -0.22,0.58 -0.53,0.13 -0.31,-0.11 -0.52,-0.94 -0.23,-0.13 -0.22,0.28 -0.21,0.03 -0.57,1.21 -0.41,0.24 -1.29,-0.14 -0.34,-0.23 -1,0.39 -0.29,-0.02 -1.23,-0.98 -0.84,-0.28 -0.76,0.11 -0.31,-0.1 -0.73,-0.94 -0.95,-0.15 -0.81,-0.73 -0.25,-0.03 -0.67,0.7 -0.2,-0.01 -0.32,-0.69 -0.5,-0.35 -0.7,-0.01 -0.73,0.45 -0.54,-0.07 -0.49,-0.66 -1.37,-0.64 -0.59,-1.67 -0.18,-0.12 -3.01,0.44 -1.1,-0.2 -0.49,-0.48 0.04,-0.61 -0.17,-0.87 0.09,-1.07 -0.38,-0.54 -0.48,-1.56 -0.22,-0.2 -0.74,0.15 -1.56,-0.62 -1.24,-0.26 -4.43,0.23 -0.98,0.33 -0.85,0.49 -0.91,0.79 -0.39,0.56 -1.51,2.9 -0.64,0.3 -0.76,-0.04 -0.55,-0.23 -1.28,-0.92 -1.2,-0.62 -2.1,-0.13 -1.01,-0.29 -1.19,0.23 -1.73,1.19 -0.88,0.25 -1.02,0.02 -1.31,-0.27 -1.21,0.24 -1.02,-0.21 -1.28,0.2 -0.69,-0.16 -1.6,0.01 -1,0.36 -0.86,0.08 -0.38,-0.18 -1.8,-0.1 -0.42,-0.21 -1.37,-0.21 -0.85,-0.41 -1.22,-0.27 -0.66,-0.76 -0.33,-0.19 -0.43,0.05 -0.45,0.37 -0.67,0.97 -0.27,1.03 -0.94,1.74 0.08,1.11 -0.11,0.33 -0.93,0.66 -0.57,0.85 -0.42,1.85 -1.31,-0.02 -0.58,0.14 -1.29,1.17 -0.36,0.61 -0.29,-0.08 -0.26,0.2 0.22,0.89 -0.36,0.54 -0.11,0.7 -0.44,0.13 -0.78,-0.32 -0.64,0.25 -0.67,1.98 -0.72,0.93 -0.51,1.22 -0.49,0.29 -1.5,0.36 -0.45,0.61 -0.26,0.9 -1.03,0.73 0.22,0.66 0,0.65 -0.81,2.08 0.25,0.68 0.73,0.6 0.07,0.29 -0.87,1.28 0.27,0.92 0.37,0.52 0.19,1.48 0.18,0.13 0.84,-0.04 0.24,0.24 0.17,0.54 -0.06,0.33 -0.89,0.54 -0.34,2.78 0.31,0.97 0.72,0.64 0.86,-0.42 0.41,0.05 0.02,0.65 -0.61,0.83 0.04,0.33 0.19,0.34 1.1,0.77 0.36,0.54 -0.01,0.35 -0.85,0.86 0.07,0.56 0.81,1.03 0.39,1.24 -0.03,0.44 -0.53,1.35 -0.07,0.44 0.14,0.49 0.47,0.28 0.7,0.06 1.99,-0.48 0.44,0.22 0.16,0.31 -0.14,0.54 -0.96,1.43 -1.56,1.96 -0.32,1.17 -1.94,3.35 -0.29,0.33 -2.26,-0.23 -0.98,0.43 -1.03,1.1 -1.31,0.99 -1.1,1.14 -0.66,1.76 -0.31,0.6 -0.34,0.24 -0.9,0.29 -2.32,0.23 -1.41,1.3 -1.17,0.1 -0.48,0.22 -0.26,0.73 -0.68,0.18 -0.66,-0.21 -0.45,-0.38 -0.52,-0.89 -1.24,-0.95 -0.45,-1.2 -0.9,-0.97 -2.95,-1.75 -0.92,-0.23 -3.64,-2.49 -1.19,-0.97 -0.77,-0.33 -1.42,-2.26 -1.16,-3.05 -0.53,-1.02 -1.21,-1.06 -3.19,-1.85 -1.22,-1.03 -3.89,-5.34 -1.69,-1.16 -0.27,-0.36 -0.31,-0.94 -1.76,-0.9 -1.13,-0.29 -0.22,0.04 -0.73,0.8 -0.59,-0.11 -0.55,-0.3 -1.11,-1.15 -0.63,-0.29 -0.9,0.45 -0.29,0.68 0.56,2.72 0.45,0.98 0.66,0.58 1.14,0.39 0.53,0.83 0.03,0.35 -0.17,0.41 -1.5,1.17 -0.85,0.17 -0.75,-0.39 -0.37,-0.35 -0.53,-1.25 -1.87,-2.75 -2.65,-1.64 -0.83,-0.19 -1.32,0.72 -0.77,0.77 -0.64,1.9 0.61,2.11 0.64,0.73 1.07,0.49 0.47,1.01 -0.26,1.11 -0.94,0.66 -0.65,0.18 -0.59,-0.11 -0.59,-0.44 -0.42,-0.57 -0.27,-0.39 -0.24,-0.89 -0.34,-2.4 -0.17,-0.45 -0.51,-0.38 -0.88,-0.14 -2.56,1.04 -1.85,1.53 -1.28,-0.14 -3.7,-1.33 -0.53,0.12 -0.6,0.54 -0.18,0.72 0.27,0.94 0.73,1.04 0.38,1.22 -0.14,0.36 -0.5,0.41 -0.48,0.07 -1.39,-1.41 -0.27,-0.04 -0.49,0.34 -0.4,0.59 0.31,0.88 -0.28,2.06 -0.69,1.33 -1.1,0.31 -0.66,0.01 -1.54,1.17 -4.71,0.99 -0.28,0.18 -1.39,2.03 -1.16,0.89 -1.46,0.21 -1.7,-0.56 -1.34,0.19 -0.72,0.77 -0.6,0.97 -0.69,0.66 -0.61,0.05 -2.06,-1.17 -0.31,-0.04 -0.56,0.21 -0.5,0.55 -0.93,1.8 -0.08,1.11 -0.21,0.29 -1.4,0.84 -0.79,1.6 -0.96,0.95 -2.2,-0.17 -1.610002,-0.87 -0.84,-0.27 -2.42,-0.02 -1.7,0.57 -0.76,0.81 -0.75,1.66 -0.52,2.27 0.12,0.91 -0.18,3.37 -0.52,1.78 -0.44,0.64 -0.53,0.47 -0.58,0.33 -1.03,0.17 -0.46,-0.1 -1.23,-0.54 -2.37,-1.49 -0.47,-0.2 -0.67,0.07 -0.73,0.34 -3.22,2.22 -0.63,0.68 -1.1,0.72 -0.81,1.09 -1.38,0.26 -1.13,0.89 -1.39,1.46 -1.05,1.68 -1.07,0.34 -0.72,0.61 -0.66,0.34 -2.12,0.46 -0.69,0.46 -1.33,0.44 -2.64,-1.25 -0.81,-1.83 -0.12,-1.35 -1.04,-1.77 -0.94,-0.49 -2.2,-0.57 -1.73,-0.71 -2.09,-1.61 -0.58,-0.98 -0.35,-4.57 -0.55,-1.13 -0.85,-0.79 -0.77,-0.2 -2.47,0.15 -1.61,-0.11 -1.63,-0.37 -1.73,-0.73 -1.31,-0.77 -1.37,-1.34 -0.09,-0.41 0.09,-1.38 0.65,-2.42 0.07,-4.15 0.43,-1.82 -0.2,-0.91 -0.46,-1.01 1.51,-0.97 1.57,-5.37 0.58,-4.66 0.67,-10.06 -0.57,-8.87 0.1,-5.66 2.62,-8.57 2.51,-2.17 1.01,-1.22 2.82,-5.37 2.32,-5.38 5.07,-6.57 3.01,-2.17 2.55,-3.65 6.99,-14.94 1.8,-3.18 8.95,-1.54 2.75,-1.18 2.76,-1.42 0.79,-1.97 -0.21,-1.74 z"
     title="Khatlon"
     id="TJ-KT" />
  <path
     d="m 426.69033,196.19732 0.12,2.22 -0.34,1.63 -1.05,1.65 -0.42,1.94 0.03,1.71 0.9,4.3 1,2.33 1.48,0.78 3.7,0.53 1.36,0.64 1.45,0.02 2.14,-0.76 1.37,-0.68 3.27,-0.7 2.39,0.21 1.92,-0.33 1.2,0.07 2.62,1.73 1.15,1.97 0.62,3.39 -0.36,2.88 -0.42,0.74 -2.35,1.12 -1.64,2.12 -0.45,3.51 0.84,1.76 1.96,3.21 1.07,1.07 1.17,0.57 1.65,-0.15 1.82,-0.9 1.03,-0.2 3.39,0.27 2.1,0.76 1.16,-0.25 0.78,-0.39 1.3,-2.77 1.34,-2.19 1.37,-1.75 1.35,-0.42 2.45,-1.75 1.73,-0.4 2.4,-2.07 0.75,0.24 0.78,0.62 0.82,1.06 0.71,3.9 1.25,2.29 0.79,2.57 1.14,1.84 1.02,0.88 1.14,0.01 1.09,-0.18 3.2,0.2 0.87,0.37 1.35,2.55 0.89,0.87 1.88,1.32 0.62,1.17 0.21,1.6 -0.08,1.31 0.42,1.42 0.8,0.67 0,0 -0.14,0.36 -0.61,0.39 -0.67,7.4 -4.82,1.3 -4.41,2.07 -0.45,5.17 0.36,4 -2.67,6.3 1.65,10.04 1.52,4.86 4.62,9.98 -3.79,-0.14 -2.15,-2.48 -3.37,-0.74 -0.44,2.39 -1.8,0.93 -3.42,2.25 -1.04,2.56 -2.21,1.71 -2.23,2.5 -3.14,-1.74 -1.61,1.53 -2.95,-1.14 -2.38,0.1 -1.21,1.74 -3.6,2.03 -2.05,4.09 -1.01,0.76 -2.38,0.48 -1.8,1.71 -0.62,1.17 -1.4,0.92 -0.96,-1.24 -3.13,-1.16 -1.6,1.52 -2.98,1.64 -0.98,-0.05 -0.76,-1.64 -4.32,0.97 -1.02,1.94 -1.39,0.93 -1.4,1.72 -1.02,2.34 -1.56,0.32 -1.39,1.33 -1.17,0.14 -0.83,2.36 -0.45,3.36 -2.73,0.48 -0.77,-1.03 -1.95,-0.28 -1.01,2.15 -1.59,0.94 -0.24,2.77 -5.69,-3.58 -2.62,-0.48 -4.01,5.89 -0.2,0.02 0.04,-2.01 -1.37,-2.81 -3.85,-2.22 -0.97,-2.21 -0.72,-4.02 -4,-2.81 -13.92,-1.37 -0.44,-5.8 0.3,-3.53 1.12,-4.36 -1.24,-1.87 -2.62,-4.82 -0.81,-1.21 -0.93,-0.95 -1.15,-0.65 -1.45,-0.32 -1.84,0.05 -2.33,0.47 -1.64,1.66 -9.97,5.55 -2.77,-2.33 -2.59,-1.9 0.29,-3.1 -1.19,-1.25 -1.87,0.81 -16.52,10.51 2.13,5.18 -0.29,3.09 -1.46,1.31 -4.25,2.71 -0.99,0.89 -0.64,0.88 -0.7,1.43 -0.63,1.97 -0.69,3.06 -0.17,-0.23 0,0 -2.55,-3.3 -2.1,-2.1 -4.16,-2.94 -2.94,-2.37 -3.84,-0.69 -6.73,3.37 -1.63,0.59 -1.24,2.04 -1.63,0.18 -1.24,2.03 -1.83,1.21 -2.03,0.18 0.25,-3.7 0.67,-5.75 -1.19,-2.07 -1.4,-1.66 -1,-1.66 -2.63,-0.65 -1.01,-1.03 -1.4,-2.28 -3.04,-0.85 -1.79,-4.75 -6.53,2.24 -2.43,-1.66 -1.43,0.41 -3.08,4.94 -4.69,5.75 -3.38,7.56 -1.73,2.06 -1.62,0.25 -2.71,-1.1 -2.33,-1.39 -2.84,3.07 -1.41,-0.2 -2.83,4.69 -1.41,3.25 -2.76,1.33 -2.67,2.54 -1.2,0.81 -0.92,1.24 -1.74,2.87 -1.14,2.38 -2.4,2.43 -0.79,1.42 -0.41,-2.42 -0.22,-6.88 -1.21,-0.81 -2.99,2.04 -1,0.4 -1.8,0.21 -1.8,0.42 -3.01,-1.21 -1.99,2.24 -6.58,1.65 -3,-2.62 -3,-0.99 -5.18,0.43 -0.8,0.21 -5.98,-1.38 -1.38,2.04 -2.15,6.9 -0.79,1.02 -1.2,-1.2 -0.99,0.01 -0.39,2.23 -1.39,-0.19 -2.79,-1.39 -2.59,0.43 -1.4,-0.99 -0.99,-0.19 -0.2,0.61 -1.78,1.44 -1.19,0.62 -2.2,-1.59 -2.39,0.43 -1.98,1.66 -2.19,1.45 -2.98,1.28 -3.97,2.72 -4.39,-0.92 -1.41,-2.42 -0.39,0.21 -0.6,0.01 -0.59,2.67 -2.19,0.67 -1.39,1.06 -3.21,2.91 -1.75,1.12 -3.79,0.14 -3.37,5.23 -1.19,0.66 1.8,4.05 -0.02,1.24 -3.47,6.26 -4.43,12.05 -0.75,2.68 -0.96,1.67 0.02,1.22 1.21,0.54 2.57,-0.75 2,0.5 1.19,-0.26 1.18,-0.67 0.61,0.78 0.23,10.82 -0.38,1.01 -1.18,0.46 -1,-0.54 -0.36,1.61 0.05,1.78 -0.93,2.43 -0.71,2.81 -0.11,3.15 -3.3,1.55 -2.37,-0.06 -1.24,-2.09 -0.68,-3.1 -5.71,0.58 -4.73,-0.07 -3.770002,-0.61 -2.79,-1.09 -5.71,-4.11 1.16,-0.94 -0.04,-1.38 0.37,-0.84 -0.24,-1.18 0.37,-0.86 -0.21,-0.59 0.17,-0.97 0,0 0.15,-0.35 -0.17,-3.48 3.63,-6.86 2.55,-2.91 1.78,-1.45 0.760002,-0.98 0.32,-2.72 2.99,-10.61 0.04,-1.74 -2.41,-3.29 -1.61,-2.93 -0.04,-0.84 -4.36,-5.58 -2.2,-1.55 -3.2,-1.56 -2.97,-1.07 -0.49,-0.5 -0.22,-1.25 0.04,-1.75 -0.46,-1.75 -3.12,-5.3 -3.7,-2.08 -1,-0.02 -3.27,1.42 -1,-0.02 0.55,-2.23 1.28,-1.72 0.78,-1.48 0.8,-2.47 -2.2,-1.8 -5.35,-7.1 0.43,-8.99 0.29,-1.49 0.02,-1.25 1.03,-1.23 0.02,-1 -1.92,-4.29 -0.93,-3.27 1.03,-1.23 1.78,-1.47 2.51,-0.2 1.01,-0.23 0.78,-1.48 -4.87,-6.87 -0.72,-1.26 0.78,-1.23 5.53,-0.9 2.27,-0.7 1.3,-1.98 1.53,-0.97 1.26,-0.47 -0.24,-2 0,0 0.93,-0.11 0.39,-1.56 2.63,-0.57 1.62,-3.3 5.48,-5.07 1.4,-0.1 1.85,-1.67 1.43,-0.8 0.79,-0.04 1.33,0.38 6.21,3.49 3.74,-1.35 4.48,0.2 1.79,-1.38 1.79,-1.78 1.95,-0.4 4.51,-1.42 1.78,-1.2 1.21,-2.18 0.28,-3.94 1.2,-1.59 3.5,-0.43 4.88,-1.05 2.55,-1.42 2.92,-0.44 2.91,0.33 1.75,-0.24 1.38,-0.81 3.33,-1.26 2.31,1.87 2.53,-0.07 2.75,-1.25 2.74,-0.07 1.56,0.99 4.53,4.09 2.96,1.65 0.59,0.2 1.18,-0.62 5.13,-0.22 2.97,1.24 1.2,1.86 3.19,3.52 1.99,0.41 3.18,0 3.78,-2.08 4.17,-2.7 3.19,-2.29 1.78,-2.29 2,-1.25 2.62,0.41 2.83,1.44 6.68,2.88 1.42,0.2 1.21,-1.46 -0.42,-2.28 -1.23,-1.87 -0.01,-1.66 0.59,-2.08 2.63,-0.86 6.05,-2.76 0.85,-0.05 0.75,0.38 0.74,0.9 0.83,1.53 2.66,5.95 1.44,4.98 1.02,0.61 2.45,-0.85 1.43,-2.1 1.23,-1.05 3.48,3.09 1.64,0.61 0.82,-1.47 -0.41,-1.87 3.08,-2.95 0.21,0 -0.82,-1.45 0.41,-2.3 0.01,-3.97 -0.62,-3.13 1.45,-3.14 1.04,-1.69 -5.6,-8.91 4.37,-3.61 2.5,-1.7 0.23,-4.58 3.35,-0.66 2.91,2.69 2.31,-1.05 2.11,-2.07 2.95,-1.42 1.23,2.5 0.59,2.29 2.73,-0.36 2.59,-4.23 1.7,-1.38 2.33,-0.33 2.48,2.33 1.24,0.86 2.92,1.53 3.64,-1.74 3.61,-0.11 2.66,-2.84 4.2,-3.27 3,-0.14 3.55,1.77 3.2,-0.31 2.72,0.72 2.63,-2.57 4.77,1.67 1.4,-4.8 3.74,0.22 4.21,-0.75 1.85,-4.3 3.75,-0.15 1.63,-3.07 4.07,-2.98 0,0 3.32,2.02 0.89,1.24 0.73,2 0.13,1.21 0.02,3.54 0.33,1.03 0.19,2.54 0.54,0.65 1.55,0.65 2.77,0.13 2.29,-0.2 2.3,-0.46 0.76,0.04 1.23,0.57 1.22,0.94 2.1,-0.21 0.99,-0.9 1.31,-2.21 0.07,-2.59 0.55,-0.92 1.02,-0.14 0.86,0.55 1.54,2.04 1.95,1.55 1.51,0.08 2.35,-0.2 2.06,-0.65 1.49,-0.68 0.67,-0.73 0.84,-1.66 -0.31,-5.01 0.32,-1.39 0.89,-2.41 1,-0.96 1.36,-0.5 1.52,-0.05 4.28,0.41 2.44,-0.5 1.24,-0.69 3.49,-2.54 0.45,-1.24 0.93,-0.91 0.55,0.41 1.97,3.4 0.92,0.69 0.89,-0.02 1.24,-0.69 2.17,-2.67 0.57,-1.11 0.12,-2.21 1.95,-0.91 0.64,-0.09 3.2,0.55 2.28,0.13 2.13,-0.84 2.51,-1.82 1.9,-2.18 0.92,-0.64 1.15,-0.13 2.78,1.49 2.55,1.98 z"
     title="Region of Republican Subordination"
     id="TJ-RR" />
  <path
     d="m 333.56033,158.39732 3.17,0.55 2.27,-0.73 1.86,-0.1 1.05,0.69 0.89,2.96 -3.63,2.53 -3.75,-0.35 -0.31,3.15 -0.94,2.5 -1.81,1.03 -2.38,-2.12 -1.67,-4.41 -5.29,-3.09 -3,-1.21 0.08,-2.43 0.96,-1.44 0.42,-0.01 4.77,1.09 4.32,0.72 2.99,0.67 z m 3.58,-139.810005 -0.45,0.77 -3.88,-5.1 -3.14,-4.4299997 -2.69,-1.98 -2.24,-0.06 -0.43,-1.5 0.6,-1.04 1.61,-1.23 -0.6,0.83 2.66,1.13 3.33,3.91 3.82,5.1999997 1.41,3.5 z m -21.75,-17.7699996 0.31,0.11 0.7,-0.16 1.61,0.8899999 0.2,0.85 0.4,0.65 1.41,1.31 1.02,0.66 0.15,1.36 0.71,0.52 1.95,2.64 0.67,-0.11 0.83,0.16 0.2,0.7699997 1.02,2.26 1.32,1.46 0.91,1.31 0.87,1.97 2.44,3.64 0.5,1.29 0.23,0.15 -0.03,0.35 0.32,0.81 0.59,0.01 0.27,0.81 1.29,0.9 0.85,0.94 1.24,3.03 1.84,0.69 1.17,1.04 0.67,1.17 0.94,1.02 -1.05,0.83 -0.38,-0.2 -0.65,0.39 0.17,0.72 -0.43,0.64 -0.82,0.23 -1.26,-0.55 -1.05,-2.68 -0.82,2.74 0.08,1.57 0.7,1.42 1.83,-0.53 1.56,0.02 0.57,0.2 0.59,0 1.89,0.99 -0.61,0.39 1.98,0.1 0.95,0.5 1.63,1.27 0.59,0.61 0.51,0.96 -0.15,0.71 -1.29,1.15 -0.66,2.23 -0.96,1.28 -1.46,0.09 -0.63,-0.56 -0.69,0.51 0.4,2.18 -0.1,1.47 -0.72,-0.07 -0.89,-0.62 -2.14,0.48 -0.91,1.09 -0.91,0.18 -0.33,0.63 -1.14,0.37 -1.49,1.62 -1.44,0.39 -0.79,0.84 -2.46,4.92 -1.93,2.44 -0.95,0.36 -1.58,0.04 -1.05,0.8 -1.71,-0.15 -1.31,0.18 -0.89,0.48 -0.43,0.88 -0.3,1.97 -0.98,0.98 -0.26,1.78 -1.04,0.92 -1.77,-0.01 -1.12,0.53 -3.42,1.06 -2.42,1.27 -2.65,0.49 -2.2,1.79 -1.8,0.48 -0.28,0.44 0.12,1.34 1.24,2.64 0.78,1.27 0.32,1.64 0.62,0.21 0.65,0.7 1,2.45 0.75,0.81 1,0.46 0.95,0.07 2,-0.94 0.7,-0.01 1.59,0.49 0.61,0.4 3.61,0.73 6.43,2.88 1.64,1.47 0.53,1.22 -0.32,1.94 0.81,2.030005 0.41,1.84 -0.83,2.18 -0.15,2.82 -0.29,0.26 1.18,2.07 1.57,0.86 0.72,1.94 0.76,1 0.88,2.12 0.97,1.62 0.91,0.56 0.92,0.19 3.31,-0.79 3.24,-0.48 0.38,-0.26 3.09,-0.26 2.74,-0.72 0.76,-0.01 5.45,-2.42 3.76,-2.79 0.59,0.18 2.44,-0.58 1.88,-0.19 5.27,-0.15 1.23,0.85 0.41,0.86 0.07,0.73 -0.3,1.36 -0.03,1.74 -0.32,0.29 -0.69,2.69 -0.87,0.87 -0.72,0.16 -0.14,0.25 -2.47,0.64 -1.06,0.72 -0.97,0.08 -5.07,-2.6 -1.91,-0.36 -0.97,0.14 -0.84,0.74 -0.94,4.25 -0.67,1.19 -1.81,1.4 -1.39,1.41 -1.86,1.04 -3.96,0.46 -3.94,-0.22 -1.52,0.66 -0.77,0.89 -0.5,1.37 0.04,0.78 0.58,0 -0.05,0.7 0.17,0.53 0.08,1.75 -0.29,1.04 0.52,1.57 -0.47,0.67 -0.65,1.75 -0.98,2.05 0.03,0.9 -0.62,0.69 -1.39,0.23 -5.03,3.65 -0.82,0.08 -0.87,0.75 -0.65,0.25 -0.44,-0.75 -2.43,0.24 0.01,0.3 -0.83,0.67 -0.36,1.23 0.48,0.98 1.58,1.75 0.03,0.61 -0.41,0.22 -3.67,-4.01 -1.21,0.12 -1.95,-1.78 -0.62,-1.21 1.08,-1.47 1.42,-1.46 3.28,-1.37 3.22,-2.65 0.53,-0.96 1.57,-1.79 -0.07,-0.53 -1.06,-0.06 -0.06,-0.67 -0.66,-0.2 -0.39,0.26 -0.15,-0.14 0.46,-0.8 -0.27,-0.54 -0.47,-0.32 -0.16,0.04 0.02,-0.14 -1.45,-0.99 -1.84,-0.35 -0.47,-0.28 -7.26,-0.9 -1.33,-0.35 -1.51,-0.95 -1.32,-2.27 -2.51,-0.28 -1.49,-0.55 -1.48,-1.83 -0.98,-0.7 -2.7,-1.3 -2.01,-0.46 -1.12,-0.45 -2.29,0.47 -3.2,-0.02 -1.38,-0.68 -0.6,-0.88 -6.86,-4.61 -4.03,-3.44 -2.55,-1.68 -1.06,0.18 -1.27,-0.02 -1.49,-0.64 -1.7,-0.07 -1.45,-0.65 -1.94,0.56 -1.88,1.32 -1.74,0.54 -1.41,0.88 -2.26,0.88 -0.4,0.42 -4.07,1.69 -1.44,0.43 -1.95,0.95 -2.76,0.76 -3.1,1.57 -0.58,0.53 -1.87,0.7 -4.75,2.84 -0.81,0.21 -1.68,-0.01 -3,-0.29 -3.35,0.98 -3.34,0.68 -2,0.1 -3.74,1.84 -0.59,0.68 -0.27,0.99 -0.42,2.74 0.19,0.57 -0.46,0.88 -0.38,1.61 0.14,0.75 2.3,4.5 -0.5,3.29 0.9,3.47 -0.18,1.39 -1.04,0.73 -1.82,0.95 -2.76,2.57 -1.17,0.6 -1.65,-0.06 -2.5,-1.23 -0.56,-2.31 -0.51,-3.58 -2.3,-3.39 -1.13,-3.19 -2.95,0 0.27,2.93 -1.2,5.31 -1.57,5.16 -2.11,2.09 -0.49,3.29 -0.08,2.28 -0.58,2.01 -1.76,3.12 -0.3,1.51 1.34,5.63 1.19,2.32 1.94,2.86 0.68,2.56 -0.63,3.66 0.35,1.03 0.73,0.79 0.16,2.79 0.61,0.65 0.22,0.89 -0.04,1.27 0.21,1.4 1.62,0.81 -1.87,6.65 2.56,3 0.89,0.03 1.05,-0.98 1.51,-3.37 0.39,-0.37 0.76,0.03 0.46,1.41 1.36,0.93 2.13,0.71 1.67,-0.7 1.49,0.81 0.37,0.39 2.2,-1.31 1.66,-0.32 1.68,-0.95 0.88,0.16 1.82,-1.2 1.52,0.05 1.62,-2.85 3.22,-1.53 3.25,1.26 1.65,-0.07 2.23,-1.94 1.66,-0.32 1.89,0.32 2,0.71 0.85,0.92 3.52,0.77 1.86,0.96 4.43,3.46 0.45,1.54 0.36,0.52 0.51,0.02 0.93,-1.1 1.18,-1.09 1.14,-1.54 0.47,-2.32 0.66,-0.61 2.23,-0.42 3.39,0.71 1.66,1.33 0.69,1.8 1.04,0.86 1.51,0.25 1.87,-0.81 0.99,-2.62 0.9,-0.28 0.61,0.47 0.41,0.9 -0.27,3.41 0.32,1.41 0.6,-0.67 0.46,-3.53 0.83,-1.68 3.02,-2.47 1.73,-0.43 0.87,0.48 0.59,2.49 1.35,0.94 1.7,0.33 1.01,-0.02 1.27,-1.53 0.37,-1.25 0.26,-1.76 0.8,-0.98 0.57,0.02 0.69,3.13 0.84,1.18 1.49,0.82 2.21,3.01 1.03,1.06 1.13,0.24 2.12,-0.6 1.31,-1.02 1.26,-1.21 3.5,-4.72 1.13,-1.09 1.48,-0.44 0.89,-0.02 1.94,0.53 1.54,1.08 2,0.72 1.48,-0.5 0.74,-1.04 1.16,-3.18 1.11,-0.65 1.46,-0.06 1.94,0.53 1.55,0.71 0.6,0.79 0.64,1.3 1.41,1.08 2.45,0.49 2.66,0 1.45,0.26 2.71,1.71 4.32,7.74 1.04,0.65 0,0 -4.07,2.98 -1.63,3.08 -3.75,0.15 -1.85,4.3 -4.2,0.75 -3.75,-0.23 -1.4,4.8 -4.77,-1.67 -2.63,2.56 -2.73,-0.72 -3.2,0.31 -3.55,-1.77 -2.99,0.14 -4.2,3.27 -2.66,2.84 -3.61,0.11 -3.64,1.74 -2.92,-1.53 -1.25,-0.86 -2.48,-2.33 -2.32,0.33 -1.71,1.38 -2.58,4.24 -2.73,0.36 -0.6,-2.29 -1.22,-2.5 -2.95,1.42 -2.12,2.07 -2.31,1.05 -2.91,-2.69 -3.35,0.66 -0.22,4.59 -2.5,1.7 -4.37,3.61 5.59,8.91 -1.04,1.68 -1.45,3.15 0.61,3.13 0,3.97 -0.41,2.3 0.82,1.45 -0.21,0 -3.08,2.94 0.41,1.87 -0.82,1.46 -1.64,-0.61 -3.48,-3.09 -1.23,1.05 -1.43,2.1 -2.45,0.86 -1.02,-0.61 -1.45,-4.98 -2.65,-5.96 -0.83,-1.52 -0.75,-0.91 -0.75,-0.38 -0.84,0.05 -6.06,2.75 -2.62,0.87 -0.59,2.08 0.01,1.66 1.23,1.86 0.42,2.28 -1.21,1.46 -1.42,-0.2 -6.69,-2.88 -2.83,-1.44 -2.62,-0.41 -2,1.25 -1.79,2.28 -3.18,2.29 -4.18,2.7 -3.77,2.08 -3.18,0.01 -1.99,-0.41 -3.19,-3.52 -1.2,-1.86 -2.97,-1.24 -5.13,0.22 -1.18,0.62 -0.59,-0.21 -2.96,-1.65 -4.53,-4.09 -1.57,-0.99 -2.74,0.07 -2.75,1.25 -2.53,0.08 -2.31,-1.87 -3.33,1.25 -1.38,0.81 -1.75,0.24 -2.91,-0.33 -2.92,0.44 -2.55,1.42 -4.88,1.05 -3.5,0.43 -1.2,1.59 -0.28,3.94 -1.21,2.17 -1.78,1.2 -4.51,1.42 -1.96,0.41 -1.79,1.78 -1.79,1.38 -4.48,-0.2 -3.74,1.35 -6.21,-3.49 -1.330002,-0.38 -0.79,0.04 -1.43,0.79 -1.85,1.67 -1.4,0.1 -5.48,5.07 -1.62,3.3 -2.63,0.57 -0.39,1.57 -0.94,0.11 0,0 -0.4,-2.78 0.76,-0.48 0.31,-2.75 -0.21,-1.76 -1.48,-1.04 -3.95,-3.35 -0.5,-0.26 -0.71,-2.27 -1.92,-4.06 -2.73,-1.82 -2.76,-0.31 -2.54,1.21 -1.53,0.97 -2.25,-0.55 -1.24,-1.03 -1.23,-1.53 -1.01,-0.02 -2.29,1.21 -1.51,0.22 -3.02,-0.06 -2.32,2.97 -1.26,-0.02 -2.01,-0.29 -2.98,-1.81 -4.53,0.42 -2.29,1.59 -1.37,-0.53 -1.01,0.49 -1.01,0.23 -1.5,-0.65 -1.72,-2.42 -0.3,-4.53 -0.96,-2.78 0.47,-5.53 0.77,-1.12 0.02,-1.26 -0.62,-0.64 -3.52,-0.18 -1.25,-0.52 -1.45,-3.67 -2.25,-1.04 -2.39,-0.42 -2.27,0.47 -1.76,-0.03 -1.88,-0.66 -1.37,-0.9 -3.8900001,-0.81 -2.13,-1.16 -1.62,-1.66 -3.08,-5.33 -0.76,-2.82 0.01,-1.01 0.51,-0.62 2.41,-0.72 4.95,-1.82 2.1500001,-0.47 0.88,0.27 2.64,0.42 0.39,-1 -0.48,-1.77 -2.08,-4.32 -1.8200001,-5.08 -4.41,-9.54 -1.24,-1.91 0.04,-2.91 0.78,-1.76 1.02,-0.24 4.2900001,1.2 0.63,0.01 0.9,-1.13 -0.45,-3.55 0.27,-1.51 8.79,-3.28 3.17,-0.08 1.27,-0.36 2.08,-3.39 1.41,-0.99 2.42,-0.85 1.17,-1.63 0.77,-0.62 0.89,0.02 4.28,1.85 0.51,0.01 2.17,-0.72 1.54,-0.86 1,0.52 4.38,3.12 3.04,0.18 2.12,1.94 4.15,1.85 2.03,-0.21 3.04,0.19 2.01,0.8 2.42,1.89 1.33,0.33 2.41,-0.19 1.64,0.41 2.13,1.06 4.93,0.36 1.65,-0.22 1.25,0.53 1,0.78 1.64,0.29 2.04,-0.59 2.79,-0.32 3.91,0.47 3.15,0.71 1.13,0.53 1.73,1.69 0.88,0.27 4.090002,-1.8 6.56,1.05 2.55,-0.57 2.38,0.82 1.81,-1.6 0.69,-2.26 0.47,-3.41 1.41,-0.72 1.81,-1.47 5.23,-5.94 0.61,-3.79 -4.16,-5.94 -0.6,-1.41 0.92,-1.12 1.4,-0.09 1.41,-0.6 0.67,-1.25 0.56,-2.02 1.07,-1.88 0.71,-2.9 -0.35,-1.28 -0.32,-2.42 0.19,-2.54 1.4,0.04 1.26,0.29 1.13,0.67 1.57,-1.48 1.69,-1.22 1.01,0.28 1.73,1.95 0.68,2.81 1.25,0.92 1.02,-0.23 0.52,-0.49 0.28,-0.88 0.32,-2.28 0.66,-0.87 2.05,-0.45 0.78,-0.61 0.81,-1.76 -0.08,-1.53 -1.79,-4.25 -2.3,-4.39 -0.19,-2.42 0.28,-0.88 1.03,-0.48 0.89,0.15 1.6,1.95 1.92,4.13 1.06,2.96 0.14,3.95 1.34,2.07 1.38,0.68 1.79,-0.2 1.57,-1.61 0.43,-1.51 -0.08,-1.66 -1.2,-2.45 -5.78,-7.17 -3.3,-3.09 -0.08,-0.66 0.92,-2.98 -0.12,-1.4 -0.74,-0.94 -1.34,-1.14 -0.77,-1.27 0.07,-1.17 0.53,-0.63 1.29,-0.44 1.43,0.22 1.62,2.44 0.65,2.85 1.02,0.57 0.33,-0.26 0.39,-1.28 0.08,-1 1.08,-1 1.5,-0.96 3.35,-0.77 1.66,-0.05 2,0 3.39,0.81 1.65,-0.13 0.71,-1.47 -0.11,-1.4 -0.89,-3.84 -0.9,-2.84 -1.86,-1.43 -6.97,0.24 -3.71,0.47 -7.58,1.96 -2.73,1.23 -6.34,1.78 -2.89,1.24 -4.74,0.99 -2.74,0.07 -5.79,-3.41 -1.9,-1.75 0.52,-1.34 6.4,-1.86 0.19,-0.31 1.93,-0.17 3.95,-1.18 9.59,-3.1 2.16,-0.99 3.67,1.2 1.61,0.28 2.86,-0.74 2.15,-1.18 0.85,-0.82 4.33,-1.02 7.44,-0.77 5.67,0.04 3.16,1 2.33,-0.02 2.61,0.29 1.41,-0.11 2.31,0.82 2.4,-0.19 1.71,-0.55 2.89,0.69 4.34,0.08 1.23,0.82 1.24,0.55 1.07,-0.89 -0.79,-1.6 -1.07,-3.08 -0.9,-0.93 -3.05,-0.6 -0.91,-0.93 0.52,-1.87 -0.77,-1.27 0.39,-1.36 0.83,-0.06 1.03,0.42 2.02,0.18 1.82,-0.14 2.49,-2.360005 0.01,-2 0.74,-1.22 -0.04,-2.67 -2.31,-1.83 -0.92,-1.1 0.03,-1.84 -0.64,-1.79 -0.89,-0.77 0.52,-1.88 -1.04,-0.42 -0.4,-0.8 -0.32,-1.98 -0.64,-1.79 -0.92,-1.1 0.02,-1.84 0.77,-0.9 0.09,-1.69 -1.46,-1.26 -2.96,-4.08 -0.14,-0.73 0.21,-0.91 0.39,-0.52 1.78,-1.35 1.68,-0.98 4.01,-0.53 1.93,0.39 0.66,-0.17 0.57,-0.59 -0.06,-0.4 0.89,-1.66 1.06,-0.51 0.57,-2.8 -1.25,-2.71 -0.76,-2.5 0.47,-7.75 0.14,-0.72 0.74,-0.85 -0.02,-0.71 0.46,-1.39 2.62,-3.42 1.44,-2.32 0.72,-0.27 2.91,-0.17 1.47,0.73 5.59,1.56 1.73,0.1 0.94,0.24 1.21,1.03 0.44,0.62 1.89,3.78 0.55,2.64 1.22,1.73 2.78,2 0.82,1.27 0.78,0.69 1.52,0.24 0.89,0.46 0.93,2.03 0.18,0.85 0.67,0.91 1.47,0.33 1.95,-0.25 1.63,0.02 2.06,-1.3 1.18,-2.14 1.92,-4.55 0.99,-0.89 0.71,-0.35 0.85,-0.12 3.16,0.9 0.67,-0.07 2.07,-2.22 1.47,-1.08 0.99,-0.37 0.95,-0.03 3.52,2.18 0.46,0.03 2.61,-2.47 1.69,-1.09 4.48,-0.65 0.62,-0.44 1.21,-0.35 2.34,-1.99 3.15,-1.24 5.26,-5.12 0.68,-0.97 0.62,-1.92 0.42,-0.7 0.67,-0.6 1.31,-0.23 0.78,0.14 1.49,0.77 2.52,0.4 3.23,-2.07 1.95,-0.85 0.55,-0.53 1.04,-1.73 0.63,-0.22 0.94,-0.79 0.58,-0.16 1.48,-1.01 1.47,-0.18 1.18,0.12 1.51,-0.52 0.82,-0.79 1.14,-2.22 0.01,-0.8 -0.64,-2.06 0.34,-1.59 0.59,-0.44 0.91,-1.38 0.06,-1.67 0.66,-1.1699996 -0.62,-2.83 0.02,-0.61 0.22,-0.41 0.84,-0.62 0.48,-0.68 0.39,-1.39 0.42,-0.67 0.8,-0.66 2.04,-1.01 0.91,-0.22 2.28,0.56 z"
     title="Sughd"
     id="TJ-SU" />
</svg>
