<?xml version="1.0" encoding="UTF-8" standalone="no"?>
<!-- Created for MapSVG plugin: http://mapsvg.com -->
<svg
   xmlns:mapsvg="http://mapsvg.com"
   xmlns:dc="http://purl.org/dc/elements/1.1/"
   xmlns:rdf="http://www.w3.org/1999/02/22-rdf-syntax-ns#"
   xmlns:svg="http://www.w3.org/2000/svg"
   xmlns="http://www.w3.org/2000/svg"
   mapsvg:geoViewBox="29.573433 4.218628 35.033049 -1.482318"
   width="568.54413"
   height="593.63672">
  
  <path
     d="m 512.52486,325.56287 0,0 3.82,-0.47 -2.13,2.09 -1.02,1.86 -0.87,2.12 -0.54,2.22 -0.04,2.39 -2.34,-0.82 -9.55,0 -0.2,2.23 -1.83,0 0,-1.42 -6.87,0.09 1.71,-2.14 1.32,-2.43 2.49,-3.29 4.22,-1.22 3.29,-1.99 8.54,0.78 z"
     title="Bududa"
     id="UG-223" />
  <path
     d="m 261.19486,150.88287 0,0 4.79,0 3.69,2.58 4.43,1.11 2.21,1.11 -1.35,3.31 -1.95,2.68 -0.73,2.92 1.46,3.17 2.92,1.71 6.57,0.46 -0.46,1.29 0.21,2.08 0.49,2.05 1.62,2.72 2.73,1.77 3.34,1.02 1.94,1.89 -4.3,0.49 -4.31,-0.45 -3.92,0.91 -0.56,4.26 0.49,8.62 1.95,8.33 -0.11,-0.05 -3.66,-0.2 -1.02,0.2 -0.72,0.55 -1.66,1.65 -1.18,0.58 -2.4,-0.09 -3.47,-2.7 -3.3,-0.99 -2.54,-1.39 -1.07,-0.45 -3.2,-0.37 -1.06,-0.35 -4.17,-3.73 -2.2,-0.98 -2.53,-1.79 -1.12,-0.61 -1.17,-0.17 -1.04,0.03 -0.99,-0.08 -1.06,-0.55 -1.72,0.81 -4.22,0.72 -1.94,0.67 -1.6,1.23 -3.37,3.74 -9.81,3.3 -1.95,0.26 -0.83,-0.23 -1.13,-0.97 -0.95,-0.22 -7.13,0 -1.54,0.45 -3.56,2.01 -5.03,1.3 -5.18,3.82 -2.82,0.95 -0.62,0.32 -2.09,1.38 -1.43,-5.87 0.8,-2.8 3.83,-4.11 5.38,-2.54 2.44,-1.47 1.6,-1.54 0.43,-2.67 0.39,-2.81 0.02,-1.5 0.52,-2.35 1.03,-1.81 1.56,-0.74 1.14,-0.29 0.77,-0.76 0.44,-1.04 0.14,-1.17 -0.43,-0.87 -1.01,0.06 -1.16,0.37 -0.89,0.08 -1.82,-1.54 -1.58,-4.47 -1.25,-2.17 -1.47,-1.65 -1.35,-1.94 4.57,-1.34 3.32,-3.32 4.79,-5.17 4.43,-2.22 12.17,0 1.48,-4.06 2.95,-2.59 24.71,-0.37 3.69,2.22 3.69,0.37 z"
     title="Nwoya"
     id="UG-329" />
  <path
     d="m 91.57486,470.05287 0,0 1.57,-0.31 0.82,-1.36 0.37,-1.38 1.09,-0.84 2.28,-0.47 1.95,0.78 -1.11,6.23 0.4,7.08 -3.09,2.98 0.31,3.49 -13.74,1.12 -1.23,3.67 -4.49,-1.63 -7.35,-4.08 -7.76,-2.05 0.81,-11.43 2.45,-2.05 4.91,-2.85 6.94,-1.64 4.2,-3.44 8.81,5.84 0.73,1.38 1.13,0.96 z"
     title="Buhweju"
     id="UG-325" />
  <path
     d="m 75.63486,518.41287 0,0 -3.61,0.09 -3.01,-0.65 -2.27,-2.58 0.97,-3.8 -3.26,-5.72 8.57,-0.82 6.95,-0.82 1.22,-6.12 0,-6.95 1.23,-3.67 13.74,-1.12 -0.12,4.31 -2.3,7.63 -0.66,3.31 -1.59,3.94 -9.02,8.73 -6.84,4.24 z"
     title="Sheema"
     id="UG-425" />
  <path
     d="m 49.33486,496.76287 0,0 3.27,-0.81 3.27,0 2.45,2.45 0.82,3.26 1.22,2.86 4.09,1.23 3.26,5.72 -0.97,3.8 -3.16,-0.88 -2.54,2.03 -2.37,2.26 -2.77,-0.19 -2.59,0.45 -6.19,-4.5 -1.92,-4.48 -3,-3.44 -3.97,-1.99 -1.66,-3.9 1.39,-0.8 1.58,-0.59 0.28,-1.51 1.22,-2.43 0.23,-2.9 4.39,3.14 3.67,1.22 z"
     title="Mitooma"
     id="UG-422" />
  <path
     d="m 68.74486,448.09287 0,0 -0.49,0.92 -0.4,0.99 5.38,2.32 2.29,3.51 1.08,4.03 1.56,0.19 2.74,1.82 -4.2,3.44 -6.94,1.64 -4.91,2.85 -2.45,2.05 -0.81,11.43 -4.9,-1.63 -3.68,-4.49 -3.27,-0.82 -4.08,2.04 -4.09,2.45 -3.26,0.82 -7.1,-3.28 -21.03,-1.27 0.74,-4.33 0.32,-1.82 1.72,-10.21 0.63,-3.72 0.48,-2.83 8.31,1.73 7.76,0.41 11.21,1.69 6.35,-0.06 13.36,-10.26 5.35,0 2.33,0.39 z"
     title="Rubirizi"
     id="UG-424" />
  <path
     d="m 233.89486,434.63287 0,0 2.02,0.89 4.47,5.09 2.51,2.86 5.8,9.56 -1.65,0.78 1.52,0.53 0.61,0.11 -0.5,1.55 -0.92,4.2 3.62,-1.25 1.04,-0.1 0.95,0.71 -0.05,1.6 -0.58,2.66 -4.15,1.23 -4.45,2.37 -17.77,-0.3 2.96,-3.55 0.59,-2.37 -2.07,-4.15 -0.89,-4.74 -1.78,-4.44 -2.37,-5.63 -1.48,-3.55 -2.48,-3.75 2.38,-1.6 2.64,-1.36 6.18,0.94 3.85,1.71 z"
     title="Kalungu"
     id="UG-122" />
  <path
     d="m 215.92486,435.35287 0,0 2.92,-0.41 2.48,3.75 1.48,3.55 2.37,5.63 1.78,4.44 0.89,4.74 2.07,4.15 -0.59,2.37 -2.96,3.55 -11.85,0 -2.07,-9.47 -2.37,-12.15 -1.48,-7.56 4.31,-3.24 3.02,0.65 z"
     title="Bukomansimbi"
     id="UG-118" />
  <path
     d="m 176.98486,449.47287 0,0 1.34,-3.61 2.94,1.89 2.22,2.54 -0.45,2.88 0.51,1.51 0.14,1.56 -0.4,2.82 -1.07,2.49 -0.79,2.88 -1.15,2.56 -1.12,0.78 -0.69,1.16 -0.98,5.3 -1.77,4.74 -1.19,4.74 1.46,4.43 -0.87,6.24 -4.44,0.89 -5.33,-0.44 1.37,-3.72 -0.86,-3.79 -1.96,-3.38 -2.92,-8.29 -1.85,-3.44 -0.99,-3.62 -0.11,-6.82 2.06,-8.66 -0.69,-8.64 2.28,-0.82 1.43,-0.95 2.45,0.46 5.59,1.84 0.33,1.83 5.51,2.64 z"
     title="Lyantonde"
     id="UG-116" />
  <path
     d="m 199.24486,472.61287 0,0 5.84,-0.13 7.14,-1.09 1.99,-0.71 0.3,-3.56 11.85,0 -2.67,2.67 0,5.04 -3.55,2.07 -4.44,2.37 -0.6,2.37 1.78,3.55 -0.89,3.56 -2.37,2.67 -3.55,1.77 -3.95,0.2 -2.27,2.17 -0.89,5.33 -3.85,1.78 -4.86,-1.75 -6.99,-2.69 -6.82,-4.74 -4.46,-5.35 -1.46,-4.43 1.19,-4.74 1.77,-4.74 0.98,-5.3 0.69,-1.16 1.12,-0.78 5.8,3.39 8.61,1.44 2.27,0.28 2.29,0.51 z"
     title="Lwengo"
     id="UG-124" />
  <path
     d="m 544.78486,297.06287 0,0 -0.06,-0.06 -3.95,-4.9 -6.35,-9.84 -4.57,-2.8 6.28,-4.1 5.49,-3.5 4,-6.99 1.5,-10 0,-13.49 0.49,-9 5.5,-0.5 -2,-11.99 4.5,-4 3.9,-6.18 4.7,11.34 0.01,2.01 -0.98,4.64 -0.16,2.03 0.13,2.15 0.43,2.09 0.75,1.82 0.91,1.08 2.44,2.29 0.53,1.16 -0.39,1.11 -1.95,2.47 -0.45,1.26 -0.11,20.24 -0.62,2.26 -3.3,7 -0.75,1.18 -1.07,1 -1.03,0.47 -2.19,0.45 -1.04,0.52 -2.4,3.57 -2.19,8.41 -6.19,5.06 0.19,1.74 z"
     title="Amudat"
     id="UG-324" />
  <path
     d="m 542.06486,181.23287 0,0 -12.43,0.67 -0.5,36.99 -2.99,4.5 -15.99,1 -5.99,4 -3.5,2 -0.99,3.49 -4,1.5 -5.99,1 -4.11,0 0.01,-11.22 -0.94,-5.1 -3.91,-3.23 -27.02,-16.86 -16.34,-10.2 -2.6,-1.11 -5.26,5.3 -3.68,0.17 1.98,-4.79 -0.58,-5.22 3.21,-0.21 3.02,-0.89 6.31,-3.56 6.81,0.08 6.69,0.79 7.69,-0.93 3.2,-0.07 1.44,-0.84 -0.26,-1.25 -2.37,-1.95 -1.22,-2.93 -2.31,-2.63 -1.05,-2.32 1.32,-11.01 4.99,-3.5 9.3,0.84 4.55,-0.39 8.5,2.84 2.67,-11.28 5.95,2.49 7.49,1 6,2.5 7.49,6.5 5.49,5 5,1.5 3.49,1 0,6.5 6,2 3.99,4 1.44,3.83 z"
     title="Napak"
     id="UG-328" />
  <path
     d="m 459.39486,419.16287 0,0 -0.89,1.18 -6.05,8.07 -0.32,2.06 3.23,10.72 3.22,10.69 0.11,4.02 -1.92,16.53 -2.47,21.45 -1.72,14.93 0.38,14.19 0.6,21.18 -8.53,0 -19.05,0 -0.78,0 0,-0.01 0,-93.56 11.02,-3.69 0.32,-2.85 -4.9,-4.08 -4.09,-7.76 0.65,-18.14 3.08,-3.36 0,-2.09 0,-0.68 -0.57,-1.6 4.6,-2.52 3.68,-2.65 3.47,-1.43 3.27,0.2 1.02,-4.49 2.04,-2.86 3.55,-2.09 2.33,4.64 0.31,2.65 -1.23,1.89 -1.74,1.71 -1.28,2.61 0.46,3.12 2.4,4.8 3.27,4.5 1.6,1.97 0.89,0.72 0.04,0.03 z"
     title="Namayingo"
     id="UG-230" />
  <path
     d="m 493.59486,278.76287 0,0 9.24,-1 4.55,3.01 3.27,4.29 -2.04,4.32 -4.92,2.22 -3.23,2.09 -2.65,2.74 -1.62,2.77 -0.5,3.12 2.02,2.22 10.68,4.29 7.01,3.85 2.7,2.64 -0.02,3.56 -3.12,-0.59 -4.22,-0.9 -5.12,-0.61 -2.71,-2.71 -7.83,-2.11 -9.27,-1.35 1.76,-2.51 1.22,-2.77 0.55,-2.88 0.95,-2.74 1.14,-5.55 -2.66,-5.1 -1.35,-1.74 -0.19,-2.48 0.2,-6.92 1.62,-0.51 1.62,-0.23 1.41,0.93 1.51,0.65 z"
     title="Bulambuli"
     id="UG-225" />
  <path
     d="m 523.09486,276.60287 0,0 1.89,-0.11 4.87,2.97 4.57,2.8 6.35,9.84 -1.56,5.26 -3.33,4.25 -2.02,1 -2.19,0.34 -2.77,1.08 -2.55,1.65 -3.46,4.21 -2.29,5.02 -0.22,-7.77 2.41,-6.02 -0.3,-4.22 -3.62,-2.41 -6.62,-1.81 -3.64,-3.3 2.04,-4.32 -3.27,-4.29 -4.55,-3.01 5.78,0.2 7.24,-3.8 2.8,0.8 1.42,0.67 1.16,0.88 1.86,0.09 z"
     title="Kween"
     id="UG-228" />
  <path
     d="m 169.97486,374.11287 0,0 1.93,-0.15 1.72,1.11 2.67,2.55 1.41,3.25 -0.34,1.61 -0.71,1.56 0.07,1.27 -1.46,0.79 -7.31,1.25 -2.3,2.01 -0.92,3.43 -2,3.57 0.1,4.01 0.99,1.79 0.65,1.79 -1.12,1.32 -1.44,1.25 -2.22,3.21 -2.65,2.92 -2.97,2.39 -1.84,3.29 -0.84,0.46 -7.35,1.36 -8.04,0.36 0.89,-5.9 1.25,-1.61 3.76,-0.72 1.07,-1.97 -0.54,-3.04 -1.25,-2.68 1.61,-2.14 0.18,-4.12 -1.25,-1.43 -2.51,-0.18 0.18,-5 3.58,-0.18 0,-9.48 1.07,-1.43 2.33,-0.36 0,-6.25 -1.79,-0.9 -3.4,-1.79 -1.25,-2.14 2.14,-0.54 2.72,-1.44 5.69,1.08 4.65,0.72 5,1.25 4.65,2.22 2.83,0.37 2.36,1.26 z"
     title="Kyegegwa"
     id="UG-421" />
  <path
     d="m 104.48486,318.97287 0,0 -0.19,9.07 -0.66,2.6 -1.52,6.59 -5.8,4.32 -4.09,5.31 -7.76,7.76 -4.9,-4.08 -2.45,7.76 -4.9,3.26 -7.23,3.9 1.49,-3.64 0.99,-1.24 0.85,-0.89 0.72,-5 1.82,-2.38 2.62,-1.24 -4.76,-4.38 -2.37,-6.2 0.03,-0.06 0.32,-0.37 0.49,-1.68 2.34,-2.46 0.72,-1.93 -0.56,-4.24 -0.03,-2.01 1.32,-1.24 0.37,-0.91 0.27,-1.08 0.21,-2.22 0.28,-0.68 3.18,-3.26 0.89,-0.45 0.89,-0.28 0.96,0.17 1.13,0.91 1.79,0.84 1.28,-1.35 1.26,-2.1 1.75,-1.36 1.21,-0.1 2.36,0.25 1.39,-0.15 1.97,-0.51 1.46,-0.6 1.32,-0.93 2.08,-1.76 7.85,-10.1 -0.39,18.14 z"
     title="Ntoroko"
     id="UG-423" />
  <path
     d="m 244.83486,194.05287 0,0 1.04,-0.03 1.17,0.17 1.12,0.61 2.53,1.79 2.2,0.98 4.17,3.73 1.06,0.35 3.2,0.37 1.07,0.45 2.54,1.39 3.3,0.99 3.47,2.7 2.4,0.09 1.18,-0.58 1.66,-1.65 0.72,-0.55 1.02,-0.2 3.66,0.2 0.11,0.05 1.72,0.81 1.62,1.95 1.89,3.59 1.06,7.29 0.75,1.66 1.15,1.65 0.84,2.23 0.47,2.34 0.05,1.96 -0.41,1.26 -1.42,2.76 -0.3,1.38 0.29,1.26 0.78,0.51 1.13,0.25 1.35,0.46 -1.45,1.54 -0.54,0.73 -0.2,0.9 0.01,2.3 -0.19,0.9 -0.53,0.68 0.41,2.09 -1.98,1.18 -2.7,0.7 -1.78,0.68 -0.38,1.04 -0.14,1.33 -0.41,1.16 -1.2,0.48 -1.06,0.3 -0.82,0.56 -0.85,0.29 -1.17,-0.5 -1.29,1.1 -4.82,1.02 -1.06,1.14 -0.66,0.97 -3.21,3.01 -1.17,1.42 0.79,1.9 -1.07,3.28 -3.53,-2.1 -4.5,0.5 0,3.99 -3.5,0.5 -1.99,-2.99 -4,-1 -3,-1.5 0,-4 -1.5,-4 -2.49,-4.5 0,-4.99 1,-6.5 0,-4.5 -2,-3 -2,-2.99 -3,-1 -3.99,-0.5 -2,-2.5 -0.5,-12 0.98,-12.8 3.37,-3.74 1.6,-1.23 1.94,-0.67 4.22,-0.72 1.72,-0.81 1.06,0.55 0.99,0.08 z"
     title="Kiryandongo"
     id="UG-420" />
  <path
     d="m 414.30486,99.82287 0,0 2.4,-0.34 0.52,7.61 0.39,5.71 1.46,18.81 -0.17,3.11 0.68,2.8 0.41,3.12 1.56,2.67 0.75,3.15 -0.01,3.6 -5.33,4.99 -2.9,6.96 0.99,7.53 -5.95,0.27 -4.68,-3.7 -1.63,1.75 -1.89,0.83 -2.4,-0.9 -2.25,-0.28 -1.72,1.77 -1.97,1.07 -4.26,-1.39 -4.39,0.39 -1.67,-0.5 -1.67,-0.13 -2.39,0.82 -1.78,-0.92 -1.5,-1.13 -2.06,0.44 -5.12,-6.64 -2.44,-3.66 2.74,-3.04 13.39,-0.61 3.35,-3.66 0.6,-7 -2.13,-3.66 -6.69,-0.3 -5.48,-0.92 -0.6,-3.65 3.04,-2.44 2.13,-2.44 0,-4.26 3.65,-9.75 2.48,-8.01 6.1,1.03 4.14,-1.44 4.92,-0.42 -0.89,-6.92 6.79,0.24 -2.85,-4.11 8.45,0.88 1.85,1.08 1.73,1.4 2.3,0.19 z"
     title="Agago"
     id="UG-322" />
  <path
     d="m 409.10486,169.81287 0,0 5.95,-0.27 6.84,9.24 3.12,2.3 2.22,3.04 0.58,5.22 -1.98,4.79 -2.89,2.94 -3.54,-0.57 -3.11,-1.91 -3.24,-0.11 -2.74,1.83 -10.04,0 -1.52,-1.22 -5.17,-1.83 -7.91,-0.3 -4.87,-1.22 -2.13,-2.13 -1.52,-3.96 -4.56,-1.83 -3.96,0 -2.43,1.83 -4.87,0 -5.48,-1.22 3.35,-2.13 1.52,-3.35 0.26,-2.83 3.03,-3.68 4.18,-2.59 4.65,-1.92 2.06,-0.44 1.5,1.13 1.78,0.92 2.39,-0.82 1.67,0.13 1.67,0.5 4.39,-0.39 4.26,1.39 1.97,-1.07 1.72,-1.77 2.25,0.28 2.4,0.9 1.89,-0.83 1.63,-1.75 4.68,3.7 z"
     title="Otuke"
     id="UG-330" />
  <path
     d="m 400.27486,196.31287 0,0 10.04,0 2.74,-1.83 3.24,0.11 -0.12,2.72 0.36,4.16 -3.01,2.95 -3.68,2.59 -4.18,0.07 1.12,1.63 1.61,1.33 0.63,2.04 -0.51,2.31 -0.33,0.89 -0.42,0.85 0.27,1.2 0.42,0.96 -1.47,1.74 -2.1,0.62 -1.17,-1.68 -1.62,-0.35 -4.15,3.47 -0.54,4.11 0.69,3.45 -3.97,-2.03 -4.36,-0.07 -1.37,-2.36 -1.65,-2.04 -5.14,-0.99 -4.1,-2.11 -1.87,0.77 -2,-0.41 -1.88,3.03 -3.36,1.32 -0.67,-16.27 -2.13,-3.66 -3.96,-2.13 -3.95,-3.04 -1.52,-3.66 -3.65,-1.21 -4.57,0 0.61,-2.44 4.57,-1.83 2.73,-3.04 0,-3.05 5.48,1.22 4.87,0 2.43,-1.83 3.96,0 4.56,1.83 1.52,3.96 2.13,2.13 4.87,1.22 7.91,0.3 5.17,1.83 1.52,1.22 z"
     title="Alebtong"
     id="UG-323" />
  <path
     d="m 339.97486,220.54287 0,0 -4.5,-1.4 -2.13,-1.82 -3.96,-0.31 -2.12,-1.82 -1.83,-2.14 -7.61,0 -5.22,-0.17 1.25,-2.56 1.86,-2.36 2.43,-1.9 -2.22,-12.27 4.12,-1.15 7.2,-9.25 4.39,0.2 4.51,1.49 3.65,-2.88 -1.58,5.89 -2.13,3.96 -1.52,3.95 2.43,3.35 2.63,5.58 1.9,3.09 -0.66,1.93 -0.89,10.59 z"
     title="Kole"
     id="UG-326" />
  <path
     d="m 317.82486,213.05287 0,0 7.61,0 1.83,2.14 2.12,1.82 3.96,0.31 2.13,1.82 4.5,1.4 1.6,1.57 1.82,1.09 2.28,-0.13 2.13,0.81 -0.87,4.77 -1.6,4.55 0.41,3.68 4.63,0.7 3.54,1.6 -0.35,6.31 8.47,5.18 -3.68,10.62 -10.52,-9.66 -11.96,0.69 -8.11,7.17 -6.87,6.35 -3.61,2.06 -7.32,-0.08 -18.32,-0.26 -4.74,0.69 -7.04,-2.05 -2.41,-0.84 -3.58,-0.12 -3.81,1.07 -3.83,2.02 -0.28,-1.86 1.07,-3.28 -0.79,-1.9 1.17,-1.42 3.21,-3.01 0.66,-0.97 1.06,-1.14 4.82,-1.02 1.29,-1.1 1.17,0.5 0.85,-0.29 0.82,-0.56 1.06,-0.3 1.2,-0.48 0.41,-1.16 0.14,-1.33 0.38,-1.04 1.78,-0.68 2.7,-0.7 1.98,-1.18 -0.41,-2.09 0.53,-0.68 0.19,-0.9 -0.01,-2.3 0.2,-0.9 0.54,-0.73 1.45,-1.54 -1.35,-0.46 -1.13,-0.25 -0.78,-0.51 -0.29,-1.26 0.3,-1.38 1.42,-2.76 0.41,-1.26 -0.05,-1.96 -0.47,-2.34 7.9,3.3 4.99,-1 6.39,-9.77 1.84,-3.74 5.22,0.17 z"
     title="Apac"
     id="UG-302" />
  <path
     d="m 386.90486,48.92287 0,0 -1.23,4.5 -0.91,3.05 0.6,3.35 2.44,3.35 1.21,5.8 -0.3,13.71 -5.78,-0.3 0,-5.49 -4.56,-5.18 -2.74,0 -2.13,1.22 -1.22,4.27 -1.52,1.52 -17.64,0 -1.22,2.44 0,2.13 -2.44,1.83 -3.95,0.92 -10.04,0.6 -1.22,2.75 0,4.87 2.13,4.27 0,4.27 0.47,5.93 -4.91,1.02 -5.78,3.49 -17.16,0.09 -0.59,-2.3 -12.84,-11.25 -2.99,-2.17 -3.87,-2.82 -5.37,-6.27 -1.25,-3.37 -4.13,-4.16 -0.59,-2.09 -1.09,-1.71 -0.49,-1.95 -2.1,-2.71 0.32,-1.47 0.02,-1.62 -0.45,-3.73 0.12,-1.35 1.23,-1.42 19.15,-11.67 4.55,-1.06 19.12,-1.57 16.36,-1.32 8.73,-2.64 8.17,-4.16 6.32,-4.7 1.84,-0.66 2.08,0.87 13.14,10.76 2.18,1.15 3.22,0.62 7.11,0.36 z"
     title="Lamwo"
     id="UG-327" />
  <path
     d="m 230.50486,302.08287 0,0 2.3,-2.51 2,-0.64 2.09,-0.33 7.67,7.48 3.84,6.64 2.09,12.23 -8.14,1.89 -3.27,3.27 -1.22,4.9 -3.27,2.86 -4.49,2.45 -4.08,3.67 -4.49,5.72 -3.68,0 -5.86,2.17 -15.08,-1.7 0.01,-3.37 -1.14,-3.36 1.64,-2 2.62,-1.7 0.88,-1.4 1.7,-0.31 1.65,-0.78 1.06,-1.59 0.24,-2.75 -1.86,-2.11 -5.74,-4.94 -4.25,-6.29 -2.87,-1.18 -3.09,-0.84 -3.22,-1.8 -2.99,-2.22 2.83,-2.25 3.52,-1.06 5.95,-3.01 3.03,-1.17 7.9,-7.89 16.32,2.08 4.75,1.35 4.65,0.49 z"
     title="Kyankwanzi"
     id="UG-123" />
  <path
     d="m 271.60486,74.14287 0,0 1.27,-0.05 0.68,-0.9 0.14,-0.66 2.1,2.71 0.49,1.95 1.09,1.71 0.59,2.09 4.13,4.16 1.25,3.37 5.37,6.27 3.87,2.82 -3.99,3.61 -3.9,5.37 -6.57,5.6 -1.95,3.17 -2.19,6.58 -0.24,6.1 1.78,4.38 2.36,17.31 -0.25,2.43 -1.32,3.52 -2.21,-1.11 -4.43,-1.11 -3.69,-2.58 -4.79,0 -3.69,-0.37 -3.69,-2.22 -24.71,0.37 -2.95,2.59 -1.48,4.06 -12.17,0 -4.43,2.22 -4.79,5.17 -3.32,3.32 -4.57,1.34 -0.74,-2.2 0.33,-2.45 0.55,-0.57 1.79,-0.94 0.57,-0.56 0.18,-1.26 -0.27,-1.25 -0.42,-1.18 -0.57,-3.67 -1.02,-1.23 -1.57,-0.81 -2.02,-1.4 -2.27,-3.71 -0.36,-4.34 0.95,-4.25 2.66,-5.42 4.29,1.16 2.51,2.12 2.19,2.84 2.72,0.76 0.91,1.48 1.34,0.7 1.93,-0.05 1.46,-0.92 2.59,-3.75 3.24,-4.53 10.99,-1.74 20.84,-6.47 0.42,-2.07 0.23,-2.12 3.84,-6.25 0.14,-2.23 0.64,-1.99 1.56,-1.42 1.25,-1.66 1.08,-1.86 0.59,-1.94 -0.51,-2.24 0.23,-2.17 2.05,-3.75 -0.25,-1.77 -0.89,-1.83 -0.22,-2.2 0.2,-2.12 1.29,-0.69 0.68,-1.3 0.51,-14.87 0,-0.08 0.69,1.1 1.59,1.65 1.75,0.91 6.54,1.32 z"
     title="Amuru"
     id="UG-319" />
  <path
     d="m 231.74486,412.98287 0,0 5.06,-2.6 2.68,0.83 2.43,3.85 1.88,1.1 2.38,0.68 2.01,-0.19 1.5,-1.12 2.33,0.53 1.87,-0.63 1.11,-1.09 2.2,-0.14 12.9,-0.98 -1.67,2.36 -5.92,1.48 -6.82,3.85 -3.85,5.04 -5.03,2.37 -7.7,3.26 -5.21,3.05 -3.85,-1.71 -6.18,-0.94 -2.64,1.36 -2.38,1.6 -2.92,0.41 -3.02,-0.65 -7.69,-5.21 -8.15,-4.48 -2.13,-0.91 -2.34,-3.65 -1.74,-1.13 -4.7,-0.35 0.22,-5.46 3.85,-1.48 6.52,-1.19 6.51,-2.07 7.9,-4.06 4.55,0.21 3.85,1.18 7.11,2.37 5.08,4.51 z"
     title="Gomba"
     id="UG-121" />
  <path
     d="m 268.72486,426.54287 0,0 -5.33,-0.89 -5.34,2.08 -3.85,4.14 -6.51,5.04 -7.31,3.7 -4.47,-5.09 -2.02,-0.89 5.21,-3.05 7.7,-3.26 5.03,-2.37 3.85,-5.04 6.82,-3.85 5.92,-1.48 1.67,-2.36 1.96,-0.15 7.33,0.44 3.56,-1.48 0.29,4.14 -2.07,2.08 -2.96,2.37 -5.04,3.26 -4.44,2.66 z"
     title="Butambala"
     id="UG-119" />
  <path
     d="m 399.73486,408.35287 0,0 4.08,9.25 0.02,126.57 0,0.01 -15.95,0 -19.06,0 -19.05,0 -6.21,0 0,-0.01 0,-56.24 17.33,-32.79 6.71,-24.77 5.74,-9.44 4.23,-4.14 1.17,-4.33 0.75,-3.7 3.38,-2.63 4.98,-2.74 2.3,0.75 9.58,4.21 z"
     title="Buvuma"
     id="UG-120" />
  <path
     d="m 369.71486,383.20287 0,0 6.15,5.16 2.4,3.06 0.68,3.86 -0.37,3.74 3.21,2.4 6.07,1.97 -4.98,2.74 -3.38,2.63 -0.75,3.7 -1.17,4.33 -4.23,4.14 -5.74,9.44 -6.71,24.77 -17.33,32.79 0,-31.12 -25.21,0 17.49,-20.82 9.12,-10.76 0.16,-3.53 3.03,-3.36 2.86,-5.21 6.05,-5.88 4.53,-4.87 0.84,-5.72 -2.85,-4.03 -1.68,-5.88 0.33,-5.04 4.52,-2.96 1.36,1.61 5.6,2.84 z"
     title="Buikwe"
     id="UG-117" />
  <path
     d="m 419.74486,276.67287 0,0 6.7,-0.61 7.47,-1.88 -5.05,18.58 -4.31,2.13 -1.27,0.77 -1.28,0.11 -1.21,0.77 -1.96,2.27 -1.17,2.59 -6.39,1.17 -2.47,-0.51 -2.04,0.86 -1.69,-0.4 -1.04,-2.03 -2.42,0.35 -1.28,-2 -1.51,-1.65 -4.73,0.24 -4.68,1.34 -8.31,-1.4 -0.08,-9.78 0.78,-11.37 3.29,-4.56 0.27,-4.12 0.61,-4.56 6.09,0 4.26,-1.83 1.52,2.44 7,1.82 3.04,6.39 4.56,3.05 7.3,1.82 z"
     title="Serere"
     id="UG-232" />
  <path
     d="m 447.25486,342.12287 0,0 -5.51,-1.03 -4.97,1.32 -3.75,-3.52 -1.19,-1.96 0.02,-5.03 -1.6,-1.67 -4.93,-3.59 8.01,0.08 7.23,-2.71 7.83,-3.61 5.12,-2.11 -0.6,3.01 -1.21,1.81 0.91,2.11 2.11,1.2 -1.51,2.11 -3.62,1.81 -1.8,2.41 -0.54,9.37 z"
     title="Kibuku"
     id="UG-227" />
  <path
     d="m 477.04486,323.85287 0,0 -1.71,4.77 -1.6,1.61 -2.16,0.23 -0.85,1.76 -6.24,4.08 -5.67,4.86 -5.62,2.18 -5.94,-1.22 0.54,-9.37 1.8,-2.41 3.62,-1.81 1.51,-2.11 -2.11,-1.2 -0.91,-2.11 1.21,-1.81 0.6,-3.01 8.13,-0.3 6.93,2.11 3.92,1.8 4.55,1.95 z"
     title="Budaka"
     id="UG-217" />
  <path
     d="m 355.73486,286.47287 0,0 1.56,1.16 1.89,-0.36 1.76,0.62 5.69,2.9 3.65,2.57 3.05,3 7.77,1.01 8.31,1.4 4.68,-1.34 4.73,-0.24 1.51,1.65 1.28,2 1.03,3.78 2.87,1.21 -0.28,2.91 -0.86,2.61 -2.04,2.64 -1.41,2.97 -1.89,2.63 -1.55,2.71 0.18,1.56 -0.2,1.38 -2.75,2.27 -1.86,2.32 0.15,1.4 0.59,1.48 -1.28,2.61 -1.58,2.58 -0.34,3.72 -4.05,-1.94 -3.01,-3.01 -4.82,-3.92 -2.71,-0.9 -2.41,-1.81 -0.6,-4.52 -1.51,-4.22 -7.83,-3.61 -8.02,-0.84 -3.14,-5.12 -0.96,-3.37 -2.42,-2.88 -0.58,-2.13 -4.36,-4.87 -2.1,-4.5 -2.05,-7.68 15.91,0.17 z"
     title="Buyende"
     id="UG-226" />
  <path
     d="m 403.93486,349.15287 0,0 1.09,5.89 -1.51,4.82 -0.3,4.22 3.61,3.01 6.03,3.32 0,5.42 0.41,7.03 -1.88,2.29 -3,-2.05 -3.42,-0.22 -2.95,-1.22 -0.5,-1.87 -0.72,-1.84 -2.33,-1.36 -0.79,-0.81 -0.89,-0.73 -2.53,-1.62 -2.74,-1.11 -3.66,-3.12 -5.37,0.72 -0.24,-3.08 1.14,-4.77 0.79,-1.69 1.33,-0.98 1.46,-0.83 1.28,-1.92 0.42,-2.39 0.73,-1 0.36,-1.23 -0.58,-1.56 0.23,-1.53 0.65,-1.72 0.33,-1.82 0.01,-3.78 0.34,-3.72 1.58,-2.58 1.28,-2.61 -0.59,-1.48 -0.15,-1.4 1.86,-2.32 2.11,1.18 1.52,1.94 0.94,1.66 1.11,1.57 1.65,3.45 -1.77,7.17 0.65,3.31 3.01,1.36 z"
     title="Luuka"
     id="UG-229" />
  <path
     d="m 485.81486,310.61287 0,0 -2.32,5.07 -3.64,3.1 -2.19,-0.41 -2.01,-1.12 -4.88,-1.26 -2.06,-1.15 -2.12,-0.76 -9.06,-1.87 -1.64,-2.07 3.64,-2.7 4.22,-2.41 -0.3,-6.02 0,-4.22 2.11,-1.81 3.01,-2.11 -0.6,-6.63 4.52,-2.71 6.32,-1.2 8.62,-2.41 -0.2,6.92 0.19,2.48 1.35,1.74 2.66,5.1 -1.14,5.55 -0.95,2.74 -0.55,2.88 -1.22,2.77 -1.76,2.51 z"
     title="Bukedea"
     id="UG-224" />
  <path
     d="m 452.69486,269.30287 0,0 -3.7,1.38 -2.11,3.62 0.91,9.94 -0.6,6.63 -3.92,1.51 -2.41,3.01 0.72,7.74 -3.11,0.57 -1.97,-1.64 -1.02,-1.74 -2.48,0.06 -15.34,1.02 1.17,-2.59 1.96,-2.27 1.21,-0.77 1.28,-0.11 1.27,-0.77 4.31,-2.13 5.05,-18.58 0.72,-2.66 1.19,-2.99 2.18,-1.67 3.24,0.58 2.57,-1.24 4.79,0.44 4.09,2.66 z"
     title="Ngora"
     id="UG-231" />
  <path
     d="m 156.34486,170.32287 0,0 2.18,6.69 -1.51,3.93 -3.17,1.96 -0.6,3.78 -4.38,0.61 -0.87,2.14 -3.87,-0.01 -1.71,2.86 -1.44,3.35 -3,1.45 -1.75,-0.8 -1.94,-1.73 -1.72,-2.05 -1.05,-1.7 -0.28,-1.53 0.01,-1.58 -0.23,-1.27 -1.03,-0.6 -7.29,-0.07 -1.5,-0.45 -0.3,-1.79 0.95,-2.17 1.31,-2.12 0.8,-1.67 0.08,-1.87 -0.4,-3.85 0.13,-1.94 0.43,-1.07 2.04,-3.17 0.24,-0.82 0.08,-0.43 0.24,-1.32 0.67,-1.82 6.6,-1.45 3.54,-2.32 5.86,-2.01 4.32,-0.61 1.02,4.19 1.36,3.83 -0.01,4.74 6.19,2.69 z"
     title="Zombo"
     id="UG-331" />
  <path
     d="m 21.33486,503.82287 0,0 2.58,-0.12 -0.3,3.12 0.95,2.78 5.99,9.22 -1.68,8.5 2,2.24 0.4,2.36 -1.39,1.91 -0.3,2.17 7.27,12.51 -1.83,0.27 -1.33,1.79 -2.35,-1.43 -2.2,-2.28 -5.64,-0.34 -0.51,3.07 -1.13,0.86 -0.15,1.34 -4.84,-2.09 -2.51,0.04 -1.54,-0.61 -1.19,-0.7 -4.31,-1.7 -1.28,-0.1 -0.93,-0.53 -0.49,-1.19 -1.09,-0.71 -2.96,-1.29 0.52,-0.89 0.4,-1.01 -0.12,-1.54 -0.41,-1.96 -0.06,-1.03 0.14,-0.95 1.16,-1.82 3.08,-1.05 1.17,-1.4 0.29,-1.5 0.27,-6.26 -0.24,-2.2 -0.92,-4.05 0.08,-2.18 1.3,-8.19 0.35,-0.54 0.58,-0.43 0.51,-0.53 0.13,-0.8 -0.24,-0.63 -0.81,-1.11 -0.17,-0.62 0.42,-1.14 0.97,-0.28 1.1,-0.08 0.84,-0.57 0.23,-1.45 -0.35,-6.38 -0.48,-1.6 -1.09,-2.28 -0.29,-0.6 -0.25,-1.96 8.39,-1.05 0.09,6.1 -0.64,6.13 0.42,3.44 1.92,2.8 2.47,0.52 z"
     title="Kanungu"
     id="UG-414" />
  <path
     d="m 14.36486,549.74287 0,0 2.51,-0.04 4.84,2.09 -1.23,1.83 -1.6,1.52 0.31,1.14 3.71,4.21 3.21,2.49 -2.77,2.09 5.38,11.65 0.32,0.91 -0.93,-0.14 -0.9,0.27 -0.96,0.6 -0.95,1.12 -0.62,2.06 -0.86,0.5 -0.72,-0.26 -2.22,-1.34 -1.23,-0.28 -2.53,0.45 -1.74,0.9 -1.61,1.17 -2.15,1.2 -1.93,0.53 -2.19,0.16 -4.18,-0.23 0.98,-6.11 -0.02,-1.99 -0.41,-1.17 -1.22,-2.09 -0.05,-1.11 0.98,-2.63 0.11,-0.88 -0.62,-2.25 -1.07,-1.59 -0.85,-1.68 -0.01,-2.51 1.27,-6.43 0.09,-1.87 -0.43,-2.02 -1.53,-4 -0.29,-1.83 0.31,-1.25 0.01,-0.02 2.96,1.29 1.09,0.71 0.49,1.19 0.93,0.53 1.28,0.1 4.31,1.7 1.19,0.7 1.54,0.61 z"
     title="Kisoro"
     id="UG-408" />
  <path
     d="m 33.69486,550.57287 0,0 1.33,-1.79 1.83,-0.27 3.29,0.61 14.22,3.82 0.82,3.02 1.3,2.55 3.55,1.13 3.8,0.28 2.07,1.1 -0.19,3.04 3.34,-0.9 2.59,-2.51 3.16,-0.97 2.65,0.12 0.07,0 -0.35,0.29 -0.3,0.63 -0.23,1.49 -0.2,0.69 -1.12,1.88 -1.36,1.75 -4.63,4.4 -1.61,0.95 -0.77,0.23 -0.83,0.07 -0.83,0.14 -0.81,0.48 -0.74,1.42 -0.64,4.03 -0.54,1.59 -1.13,1.05 -4.25,1.66 -3.07,1.64 -0.54,0.29 -1.35,1.4 -0.95,2.27 -1.08,0.23 -7.06,3.91 -2.29,0.85 -2.19,0.24 -2.03,-0.58 -1.79,-1.67 -1.01,-2.2 -0.24,-4.29 -0.47,-2.18 -2.92,-4.25 -1.14,-0.58 -0.01,0 -0.32,-0.91 -5.38,-11.65 2.77,-2.09 -3.21,-2.49 -3.71,-4.21 -0.31,-1.14 1.6,-1.52 1.23,-1.83 0.15,-1.34 1.13,-0.86 0.51,-3.07 5.64,0.34 2.2,2.28 2.35,1.43 z"
     title="Kabale"
     id="UG-404" />
  <path
     d="m 126.88486,502.81287 0,0 -3.8,-0.05 -2.21,0.98 -1.98,0.35 -4.26,-0.55 -0.82,3.55 0.14,1.95 -0.57,1.94 0.42,4.45 0.07,9.11 -5.22,-0.85 -2.76,0.11 -0.79,0.59 -0.7,0.73 -1.03,0.43 -1.08,0.21 -1.51,-0.82 -1.67,0.4 -1.61,0.78 -2.78,-0.59 -2.27,-1.75 -2.17,-0.94 -2.1,1.36 -3.07,0.75 -6.95,-0.61 -3.59,-1.18 -0.42,-2.02 1.48,-2.73 6.84,-4.24 9.02,-8.73 1.59,-3.94 0.66,-3.31 2.3,-7.63 0.12,-4.31 -0.31,-3.49 3.09,-2.98 -0.4,-7.08 1.11,-6.23 6,-2.15 6.28,-0.83 -1.71,6.26 3.42,3.68 2.89,0.68 1.42,2.25 -0.43,3.74 2.52,2.69 11.47,8.85 -3.13,4.77 -0.56,3.16 -0.94,3.24 z"
     title="Mbarara"
     id="UG-410" />
  <path
     d="m 38.31486,481.65287 0,0 3,4.31 0.5,2.22 -0.2,2.63 -0.34,1.59 -0.23,2.9 -1.22,2.43 -0.28,1.51 -1.58,0.59 -1.39,0.8 1.66,3.9 3.97,1.99 3,3.44 1.92,4.48 6.19,4.5 0.4,4 -0.5,4.02 -1.74,3.77 -0.28,2.87 2.27,1.46 1.88,1.73 -0.3,2.28 0.15,2.18 -0.86,1.86 -2.03,1.77 -0.46,1.64 -0.11,1.91 0.59,2.41 2.04,2.1 -14.22,-3.82 -3.29,-0.61 -7.27,-12.51 0.3,-2.17 1.39,-1.91 -0.4,-2.36 -2,-2.24 1.68,-8.5 -5.99,-9.22 -0.95,-2.78 0.3,-3.12 -2.58,0.12 -2.47,-0.52 -1.92,-2.8 -0.42,-3.44 0.64,-6.13 -0.09,-6.1 -8.39,1.05 1.5,-8.78 21.03,1.27 7.1,3.28 z"
     title="Rukungiri"
     id="UG-412" />
  <path
     d="m 66.74486,515.27287 0,0 2.27,2.58 3.01,0.65 3.61,-0.09 -1.48,2.73 0.42,2.02 3.59,1.18 6.95,0.61 3.07,-0.75 2.1,-1.36 2.17,0.94 2.27,1.75 2.78,0.59 1.61,-0.78 1.67,-0.4 1.51,0.82 1.08,-0.21 1.03,-0.43 0.7,-0.73 0.79,-0.59 2.76,-0.11 -0.13,5.64 -1.34,2.7 -2,2.47 -1.64,0.6 -2.11,3 -1.32,1.24 -0.7,1.65 -0.29,1.67 -1.54,3.67 -2.15,3.4 -0.23,0.79 -1.58,-0.5 -1.41,0.2 -1.37,0.61 -1.63,0.41 -1.76,-0.23 -1.77,-0.51 -1.72,-0.26 -1.6,0.57 -0.87,1.48 -0.67,4.31 -0.54,1.58 -0.64,0.53 -1.74,0.78 -0.38,0.31 -0.07,0 -2.65,-0.12 -3.16,0.97 -2.59,2.51 -3.34,0.9 0.19,-3.04 -2.07,-1.1 -3.8,-0.28 -3.55,-1.13 -1.3,-2.55 -0.82,-3.02 -2.04,-2.1 -0.59,-2.41 0.11,-1.91 0.46,-1.64 2.03,-1.77 0.86,-1.86 -0.15,-2.18 0.3,-2.28 -1.88,-1.73 -2.27,-1.46 0.28,-2.87 1.74,-3.77 0.5,-4.02 -0.4,-4 2.59,-0.45 2.77,0.19 2.37,-2.26 2.54,-2.03 3.16,0.88 z"
     title="Ntungamo"
     id="UG-411" />
  <path
     d="m 159.39486,444.47287 0,0 0.69,8.64 -2.06,8.66 0.11,6.82 0.99,3.62 1.85,3.44 2.92,8.29 1.96,3.38 0.86,3.79 -1.37,3.72 -1.76,4.81 -4.47,8.13 -3.69,3.03 -4.38,1.07 -4.6,0.11 -4.59,-0.42 -2.26,0.1 -2.29,0.52 -1.17,-1.6 -0.87,-2.21 -3.65,-3.4 -4.73,-2.16 0.94,-3.24 0.56,-3.16 3.13,-4.77 -11.47,-8.85 -2.52,-2.69 0.43,-3.74 -1.42,-2.25 -2.89,-0.68 -3.42,-3.68 1.71,-6.26 0.57,-2.94 1.89,-2.02 2.59,-1.38 -8.83,-2.87 2.04,-6.94 3.68,-6.13 5.07,-4.9 4.73,-8.98 -6.94,0 -2.45,-4.5 4.55,-2.15 3.93,-0.17 8.41,0 4.83,0 8.04,-0.36 7.35,-1.36 1.79,4.16 2.16,3.91 0.43,4.14 0.08,6.7 -0.89,2.25 -1.34,1.37 -0.66,1.74 2.94,0.39 3.49,1.02 z"
     title="Kiruhura"
     id="UG-418" />
  <path
     d="m 126.88486,502.81287 0,0 4.73,2.16 3.65,3.4 0.87,2.21 1.17,1.6 2.29,-0.52 2.26,-0.1 4.59,0.42 4.6,-0.11 4.38,-1.07 3.69,-3.03 4.93,2.95 4.22,3.92 1.9,2.47 0.94,2.95 -0.4,2.63 1.48,4.65 -1.84,2.37 1.39,2.22 2.38,1.57 2.16,2.15 0.74,2.65 0.43,2.61 1.98,2.12 1.08,1.14 0.01,0.01 -2.22,0 -19.05,0 -19.06,0 -6.72,0 -1.66,-0.81 -3.68,-0.93 -3.91,2.04 -3.95,1.25 -1.51,0.79 -3.72,3.93 -1.32,1.1 -2.51,-0.78 -2.27,-0.25 -5.25,0.48 -1.93,0.46 -1.26,0.09 -0.58,-0.27 -0.54,-0.58 -0.77,-0.51 -1.3,-0.12 -0.83,0.68 -0.13,0.12 -1.14,-0.35 0.23,-0.79 2.15,-3.4 1.54,-3.67 0.29,-1.67 0.7,-1.65 1.32,-1.24 2.11,-3 1.64,-0.6 2,-2.47 1.34,-2.7 0.13,-5.64 5.22,0.85 -0.07,-9.11 -0.42,-4.45 0.57,-1.94 -0.14,-1.95 0.82,-3.55 4.26,0.55 1.98,-0.35 2.21,-0.98 3.8,0.05 z"
     title="Isingiro"
     id="UG-417" />
  <path
     d="m 116.73486,427.33287 0,0 6.94,0 -4.73,8.98 -5.07,4.9 -3.68,6.13 -2.04,6.94 8.83,2.87 -2.59,1.38 -1.89,2.02 -0.57,2.94 -6.28,0.83 -6,2.15 -1.95,-0.78 -2.28,0.47 -1.09,0.84 -0.37,1.38 -0.82,1.36 -1.57,0.31 -1.13,-0.96 -0.73,-1.38 -8.81,-5.84 -2.74,-1.82 -1.56,-0.19 -1.08,-4.03 -2.29,-3.51 2.99,0.24 2.94,0.57 8.56,3.84 2.87,0.85 2.42,-1.03 2.54,-0.72 -1.84,-2.37 -1.96,-1.29 -1.23,-5.93 -1.57,-3.69 2.88,-4.94 4.83,-8.45 3.15,-1.43 5.61,-1.38 3.58,-1.79 5.28,-1.97 2.45,4.5 z"
     title="Ibanda"
     id="UG-416" />
  <path
     d="m 104.53486,408.88287 0,0 2.68,-0.35 5.72,-2.51 5.01,-3.22 4.11,-4.11 3.57,-1.43 2.87,-1.07 3.03,0.89 2.51,0.9 3,-1.11 2.18,-0.15 2.51,0.18 1.25,1.43 -0.18,4.12 -1.61,2.14 1.25,2.68 0.54,3.04 -1.07,1.97 -3.76,0.72 -1.25,1.61 -0.89,5.9 -4.83,0 -8.41,0 -3.93,0.17 -4.55,2.15 -5.28,1.97 -3.58,1.79 -5.61,1.38 -3.15,1.43 -4.83,8.45 -2.88,4.94 1.57,3.69 1.23,5.93 1.96,1.29 1.84,2.37 -2.54,0.72 -2.42,1.03 -2.87,-0.85 -8.56,-3.84 -2.94,-0.57 -2.99,-0.24 -5.38,-2.32 0.4,-0.99 0.49,-0.92 3.06,-21.99 3.41,-13.68 2.56,1.81 7.13,1.92 1.79,-8.66 1.06,-6.24 -0.28,-2.7 -2.17,-2.77 1.54,-3.25 -0.07,-1.6 -0.37,-1.6 1.53,-2.58 2.61,-1.92 1.26,-1.31 3.78,3.01 1.26,4.47 1.61,2.51 3.3,1.49 0.02,3.51 1.24,3.68 0.28,3.97 1.24,2.72 z"
     title="Kamwenge"
     id="UG-413" />
  <path
     d="m 64.45486,408.95287 0,0 5.31,-0.41 2.86,2.04 2.59,1.84 -3.41,13.68 -3.06,21.99 -2.33,-0.39 -5.35,0 -13.36,10.26 -6.35,0.06 -11.21,-1.69 -7.76,-0.41 -8.31,-1.73 1.33,-7.78 1.56,-3.83 0.56,-1.96 -0.09,-1.99 -1.24,-4.54 0.15,-1.8 0.91,-2.81 4.58,-6.38 0.57,-1.17 1.23,0.48 0.76,0.66 0.71,0.28 1.03,-0.66 0.37,-0.8 3.33,-17.12 12.56,-0.73 11.03,-2.45 8.17,2.45 2.86,4.91 z"
     title="Kasese"
     id="UG-406" />
  <path
     d="m 61.59486,483.28287 0,0 7.76,2.05 7.35,4.08 4.49,1.63 0,6.95 -1.22,6.12 -6.95,0.82 -8.57,0.82 -4.09,-1.23 -1.22,-2.86 -0.82,-3.26 -2.45,-2.45 -3.27,0 -3.27,0.81 -3.67,-1.22 -4.39,-3.14 0.34,-1.59 0.2,-2.63 -0.5,-2.22 -3,-4.31 3.26,-0.82 4.09,-2.45 4.08,-2.04 3.27,0.82 3.68,4.49 4.9,1.63 z"
     title="Bushenyi"
     id="UG-402" />
  <path
     d="m 254.37486,465.29287 0,0 0.88,-0.05 0.78,0.27 0.26,0.68 0.11,0.8 0.3,0.7 0.85,1.16 0.9,1.64 0.67,1.76 3.06,1.28 0.27,2.74 -1.65,2.19 -2.46,1.37 -2.2,1.37 -2.19,1.64 0,37.54 -9.32,0 -3.83,-0.27 -3.29,-0.82 -1.91,-0.82 -3.84,-1.37 -2.2,-1.08 -2.43,-2.95 -2.17,-4.79 -1.82,-2.09 -1.43,-2.65 0.16,-2.66 0.71,-0.69 0.41,-0.78 -0.81,-2.71 0.91,-2.71 -3.07,-4.51 -4.03,-0.73 0.89,-3.56 -1.78,-3.55 0.6,-2.37 4.44,-2.37 3.55,-2.07 0,-5.04 2.67,-2.67 17.77,0.3 4.45,-2.37 4.15,-1.23 0.52,1.04 0.5,0.4 0.62,0.03 z"
     title="Masaka"
     id="UG-105" />
  <path
     d="m 199.11486,502.67287 0,0 3.85,-1.78 0.89,-5.33 2.27,-2.17 3.95,-0.2 3.55,-1.77 2.37,-2.67 4.03,0.73 3.07,4.51 -0.91,2.71 0.81,2.71 -0.41,0.78 -0.71,0.69 -0.16,2.66 1.43,2.65 1.82,2.09 2.17,4.79 2.43,2.95 2.2,1.08 3.84,1.37 1.91,0.82 3.29,0.82 3.83,0.27 9.32,0 0,23.79 0,0.01 -18.51,0 -19.05,0 -19.05,0 -16.83,0 -0.01,-0.01 -1.08,-1.14 -1.98,-2.12 -0.43,-2.61 -0.74,-2.65 -2.16,-2.15 -2.38,-1.57 -1.39,-2.22 1.84,-2.37 -1.48,-4.65 0.4,-2.63 -0.94,-2.95 -1.9,-2.47 -4.22,-3.92 -4.93,-2.95 4.47,-8.13 1.76,-4.81 5.33,0.44 4.44,-0.89 0.87,-6.24 4.46,5.35 6.82,4.74 6.99,2.69 4.86,1.75 z"
     title="Rakai"
     id="UG-110" />
  <path
     d="m 551.11486,219.89287 0,0 2,11.99 -5.5,0.5 -0.49,9 0,13.49 -1.5,10 -4,6.99 -5.49,3.5 -6.28,4.1 -4.87,-2.97 -1.89,0.11 -1.86,-0.09 -1.16,-0.88 -1.42,-0.67 -2.8,-0.8 -7.24,3.8 -5.78,-0.2 -9.24,1 -1.51,-0.65 -1.41,-0.93 -1.62,0.23 -1.62,0.51 0.5,-7.37 -1.01,-0.41 -1.36,-0.09 0.01,-33.67 4.11,0 5.99,-1 4,-1.5 0.99,-3.49 3.5,-2 5.99,-4 15.99,-1 2.99,-4.5 0.5,-36.99 12.43,-0.67 3.06,8.17 3.49,10 0.82,14.8 1.68,5.69 z"
     title="Nakapiripirit"
     id="UG-311" />
  <path
     d="m 531.60486,142.44287 0,0 0.65,-0.22 1.16,-0.95 0.43,-0.21 0.26,-0.19 0.46,-0.81 0.26,-0.17 0.4,0.19 0.22,0.36 0.17,0.36 0.21,0.19 0.19,0.28 2.95,1.42 0.55,0.13 0.71,0.88 0.42,0.93 2.11,6.56 1.59,9.06 4.38,9.13 0.98,0.95 1.43,0.11 0.84,-0.77 0.69,-0.86 0.95,-0.15 1.04,1.42 0.59,5.19 0.6,1.98 2.84,2.92 0.96,1.78 -0.28,2.36 -1.54,1.85 -2.09,1.19 -1.89,1.45 -0.91,2.58 0.68,4.09 4.02,9.71 1.88,4.53 -3.9,6.18 -4.5,4 -1.68,-5.69 -0.82,-14.8 -3.49,-10 -3.06,-8.17 -1.44,-3.83 -3.99,-4 -6,-2 0,-6.5 -3.49,-1 -5,-1.5 -5.49,-5 -7.49,-6.5 -6,-2.5 -7.49,-1 -5.95,-2.49 0.66,-4.63 1.71,-4.22 6.42,-8.16 5.21,-8.92 4.1,0.57 3.93,-0.91 2.29,-0.23 2.36,0.87 1.95,-0.66 1.88,-1.26 0.03,-0.02 0.04,-0.01 0.01,0.01 3.02,15.76 1.04,1.82 3.31,3.67 1.55,2.49 0.95,0.98 1.42,0.38 z"
     title="Moroto"
     id="UG-308" />
  <path
     d="m 425.83486,109.20287 0,0 4.26,-0.31 -0.02,9.47 -0.83,3.51 3.56,2.6 1.16,3.6 13.16,6.41 -0.17,10.47 0.69,17.07 2.51,0.95 8.24,4.44 1.05,2.32 2.31,2.63 1.22,2.93 2.37,1.95 0.26,1.25 -1.44,0.84 -3.2,0.07 -7.69,0.93 -6.69,-0.79 -6.81,-0.08 -6.31,3.56 -3.02,0.89 -3.21,0.21 -2.22,-3.04 -3.12,-2.3 -6.84,-9.24 -0.99,-7.53 2.9,-6.96 5.33,-4.99 0.01,-3.6 -0.75,-3.15 -1.56,-2.67 -0.41,-3.12 -0.68,-2.8 0.17,-3.11 -1.46,-18.81 -0.39,-5.71 5.56,0.58 3.05,1.53 z"
     title="Abim"
     id="UG-317" />
  <path
     d="m 474.77486,36.89287 0,0 1.63,-0.32 4.13,-1.48 2.02,0.01 2.31,1.21 0.26,1.43 -1.12,1.4 -4.97,2.58 0.19,0.57 1.63,0.61 1.31,1.59 -2.08,1.33 -0.69,0.81 1.32,0.5 0.89,-0.06 1.79,-0.47 2.05,-0.13 2.06,-0.59 1.1,-0.09 0.06,0.51 2.32,2.99 1.57,4.21 1.2,0.68 0.49,-0.43 0.45,-1 1.08,-1.02 2.83,-0.82 1.87,0.75 3.38,3.61 1.96,1.02 1.95,0.6 1.52,0.99 0.7,2.19 -0.26,8.39 -0.98,4.18 -1.97,3.04 -0.97,0.49 -1.07,0.28 -0.94,0.42 -0.58,0.91 0.08,1.13 1.28,2.23 0.43,1.15 -0.16,0.99 -1.04,2.55 -0.31,1.18 0.26,1.25 0.82,1.11 0.98,1.07 0.76,1.12 1.35,4.16 1.03,12.8 1.13,2.38 2.17,1.39 4.91,1.4 2.18,1.45 1.22,2.19 -0.04,0.01 -0.03,0.02 -1.88,1.26 -1.95,0.66 -2.36,-0.87 -2.29,0.23 -3.93,0.91 -4.1,-0.57 -6.01,-0.13 -5.32,-2.87 -12.46,-9.03 -12.64,-4.41 -13.53,-0.45 0.74,-3.12 -1.02,-2.39 -2.97,-0.64 -3.03,1.3 -5.28,-2.63 -5.38,-3.93 -2.93,-5.89 -4.23,-4.99 -1.99,-5.72 -2.66,-5.3 -6.79,-9.61 -3.68,-11.63 -0.17,-0.48 0.51,-0.29 7.66,-7.7 9.96,-10.01 11.63,-11.68 8.58,-8.59 8.43,-8.49 3.01,1.46 2.35,1.85 1.3,2.42 -0.14,3.21 0.13,1.42 0.91,1.14 1.16,1.07 0.87,1.17 0.33,1.21 0.03,1.23 -0.3,2.43 -0.41,1.45 -0.45,0.99 -0.05,1.06 0.82,1.66 1.24,1.16 1.53,1.02 1.2,1.2 0.26,1.68 -1.11,2.68 -1.32,2.4 -0.15,1.81 2.42,0.87 z"
     title="Kaabong"
     id="UG-315" />
  <path
     d="m 453.71486,199.97287 0,0 -1.98,4.83 -0.85,5.04 0.63,1.74 1.18,1.38 1.02,4.56 0.15,2.4 -1.06,2.25 -0.63,1.79 0.18,1.96 0.72,1.07 0.22,1.1 -0.68,1.01 -0.56,1.07 -0.06,1.72 0.78,1.58 -0.46,4.71 0.59,2.17 -0.1,2.07 -3.44,2.67 -1.27,2.66 1.76,3.62 0.14,4.1 -2.42,3.77 -3.92,2.79 -1.1,-1.24 -0.88,-1.2 -0.31,-2.25 -0.56,-2.15 -3.01,-3.45 -3.59,-2.92 -0.92,-1.23 -1.02,-1.08 -2.25,-1.13 -1.9,-1.61 -0.41,-1.79 -0.68,-1.8 -2.09,-0.85 -2.23,-0.48 -3.44,-1.95 -2.59,-2.85 -1.96,-3.74 -4.03,-0.88 -2.48,1.84 -0.59,3.38 -1.21,4.26 -0.76,4.47 -2.75,-3.12 -0.1,-4.2 -1.39,-1.32 -1.95,-0.99 -0.88,-1.96 -0.48,-2.14 -0.69,-3.45 0.54,-4.11 4.15,-3.47 1.62,0.35 1.17,1.68 2.1,-0.62 1.47,-1.74 -0.42,-0.96 -0.27,-1.2 0.42,-0.85 0.33,-0.89 0.51,-2.31 -0.63,-2.04 -1.61,-1.33 -1.12,-1.63 4.18,-0.07 3.68,-2.59 3.01,-2.95 -0.36,-4.16 0.12,-2.72 3.11,1.91 3.54,0.57 2.89,-2.94 3.68,-0.17 5.26,-5.3 2.6,1.11 16.34,10.2 z"
     title="Amuria"
     id="UG-216" />
  <path
     d="m 447.48486,97.24287 0,0 3.03,-1.3 2.97,0.64 1.02,2.39 -0.74,3.12 13.53,0.45 12.64,4.41 12.46,9.03 5.32,2.87 6.01,0.13 -5.21,8.92 -6.42,8.16 -1.71,4.22 -0.66,4.63 -2.67,11.28 -8.5,-2.84 -4.55,0.39 -9.3,-0.84 -4.99,3.5 -1.32,11.01 -8.24,-4.44 -2.51,-0.95 -0.69,-17.07 0.17,-10.47 -13.16,-6.41 -1.16,-3.6 -3.56,-2.6 0.83,-3.51 0.02,-9.47 -4.26,0.31 -3.05,-1.53 -5.56,-0.58 -0.52,-7.61 3.81,-0.13 3.77,0.71 2.98,1.35 3.11,-0.13 3.12,-2.21 2.43,-2.8 -0.66,-2.91 0.67,-1.37 0.89,-1.31 5.38,3.93 5.28,2.63 z"
     title="Kotido"
     id="UG-306" />
  <path
     d="m 485.57486,236.38287 0,0 -0.01,33.67 -17.64,-1.15 -4.95,0.68 -5.19,1.3 -5.09,-1.58 -4.09,-2.66 -4.79,-0.44 -0.54,-1.81 0.38,-2.36 3.92,-2.79 2.42,-3.77 -0.14,-4.1 -1.76,-3.62 1.27,-2.66 3.44,-2.67 0.1,-2.07 -0.59,-2.17 0.46,-4.71 -0.78,-1.58 0.06,-1.72 0.56,-1.07 0.68,-1.01 -0.22,-1.1 -0.72,-1.07 -0.18,-1.96 0.63,-1.79 1.06,-2.25 -0.15,-2.4 -1.02,-4.56 -1.18,-1.38 -0.63,-1.74 0.85,-5.04 1.98,-4.83 27.02,16.86 3.91,3.23 0.94,5.1 -0.01,11.22 z"
     title="Katakwi"
     id="UG-207" />
  <path
     d="m 480.56486,353.66287 0,0 6.86,5.49 6.89,2.95 0.05,0.02 -0.42,2.4 -1.67,4.46 -2.51,2.69 -3.37,1.71 -4.22,1.53 -3.08,2.11 -1.78,3.2 -0.09,0.36 -0.05,-0.01 -0.48,-0.09 -10.08,-0.68 -1.84,0.65 -1.73,0.96 -1.98,-0.01 -2,-0.27 -6.41,-4.64 -1.35,-4.11 -1.81,-3.78 0.79,-0.92 0.09,-1.23 5.19,-11.62 2.42,-3.27 3.36,-2.28 1.9,-0.24 1.96,-0.01 1.81,-0.72 1.5,-1.26 1.74,-0.96 2.12,-0.16 2.68,1.15 2.38,1.51 1.96,2.17 1.17,2.9 z"
     title="Tororo"
     id="UG-212" />
  <path
     d="m 422.82486,393.81287 0,0 -1.24,2.2 2.41,1.51 2.11,2.71 5.51,1.27 -0.9,4.86 0.57,1.6 0,0.68 0,2.09 -3.08,3.36 -0.65,18.14 4.09,7.76 4.9,4.08 -0.32,2.85 -11.02,3.69 0,93.56 0,0.01 -18.28,0 -3.09,0 0,-0.01 -0.02,-126.57 -4.08,-9.25 3.25,-0.55 4.72,-2.62 1.44,-0.36 1.35,-0.18 1.44,-0.9 0.9,-2.16 0.99,-2.97 2.65,-2.55 1.86,-3.12 4.49,0.87 z"
     title="Mayuge"
     id="UG-214" />
  <path
     d="m 472.37486,345.93287 0,0 -2.12,0.16 -1.74,0.96 -1.5,1.26 -1.81,0.72 -1.96,0.01 -1.9,0.24 -3.36,2.28 -2.42,3.27 -5.19,11.62 -0.09,1.23 -0.79,0.92 -1.44,-0.4 -1.44,-0.13 -1.56,-3.56 -1.48,-1 -1.01,-0.95 -0.8,-3.3 -1.49,-3.54 -0.33,-3.65 0.16,-3.8 -0.87,-3.37 -2.46,-2.49 4.97,-1.32 5.51,1.03 5.94,1.22 5.62,-2.18 5.67,-4.86 6.24,-4.08 2.68,0.29 2.21,0.98 -0.49,1.97 -0.74,1.92 -0.32,4.47 -1.69,4.08 z"
     title="Butaleja"
     id="UG-219" />
  <path
     d="m 477.22486,380.58287 0,0 -2.51,10.27 -0.32,0.88 -0.73,1.09 -1.8,2.13 -0.46,0.95 0.11,1.91 1.17,3.8 -0.29,2.12 -0.89,1.37 -3.75,2.91 -8.36,11.15 -0.04,-0.03 -0.89,-0.72 -1.6,-1.97 -3.27,-4.5 -2.4,-4.8 -0.46,-3.12 1.28,-2.61 1.74,-1.71 1.23,-1.89 -0.31,-2.65 -2.33,-4.64 0.23,-2.3 3.68,-4.99 1.94,-0.39 0.87,-1.71 2,0.27 1.98,0.01 1.73,-0.96 1.84,-0.65 10.08,0.68 0.48,0.09 0.05,0.01 z"
     title="Busia"
     id="UG-202" />
  <path
     d="m 434.96486,367.19287 0,0 1.95,-2.56 3.21,4.56 3.22,-0.1 3.27,-1.02 1.44,0.13 1.44,0.4 1.81,3.78 1.35,4.11 6.41,4.64 -0.87,1.71 -1.94,0.39 -3.68,4.99 -0.23,2.3 -3.55,2.09 -2.04,2.86 -1.02,4.49 -3.27,-0.2 -3.47,1.43 -3.68,2.65 -4.6,2.52 0.9,-4.86 -5.51,-1.27 -2.11,-2.71 -2.41,-1.51 1.24,-2.2 0.1,-1.16 -0.03,-1.14 -0.08,-4 0.91,-4.11 2.61,-2.86 1.97,-3.15 0.73,-4.15 -0.27,-4.16 -2.82,-2.81 -0.87,-2.71 3.32,1.78 3.46,1.44 3.11,0.41 z"
     title="Bugiri"
     id="UG-201" />
  <path
     d="m 511.74486,335.77287 0,0 -0.03,2.28 -0.61,2.13 -2.7,6.67 -3,3.9 -1.5,4.19 -1.78,1.62 -6.68,3.34 -0.86,0.92 -0.22,1.3 -0.05,-0.02 -6.89,-2.95 -6.86,-5.49 3.18,-2.97 1.03,-4.58 0.85,-2.29 1.3,-2.08 3.7,-1.78 -0.07,-1.92 0.4,-2.19 6.87,-0.09 0,1.42 1.83,0 0.2,-2.23 9.55,0 2.34,0.82 z"
     title="Manafwa"
     id="UG-221" />
  <path
     d="m 479.85486,318.78287 0,0 2.37,1.01 2.68,-0.52 1.25,2.17 1.56,1.98 1.66,0.47 1.51,1.02 1.45,0.08 1.56,-0.36 3.45,0.83 3.35,1.31 -4.22,1.22 -2.49,3.29 -1.32,2.43 -1.71,2.14 -0.4,2.19 0.07,1.92 -3.7,1.78 -1.3,2.08 -0.85,2.29 -1.03,4.58 -3.18,2.97 -1.17,-2.9 -1.96,-2.17 -2.38,-1.51 -2.68,-1.15 1.69,-4.08 0.32,-4.47 0.74,-1.92 0.49,-1.97 -2.21,-0.98 -2.68,-0.29 0.85,-1.76 2.16,-0.23 1.6,-1.61 1.71,-4.77 -0.19,-2.54 -1.12,-1.89 -0.08,-2.17 2.01,1.12 2.19,0.41 z"
     title="Mbale"
     id="UG-209" />
  <path
     d="m 518.08486,318.88287 0,0 -1.74,6.21 -3.82,0.47 -8.54,-0.78 -3.29,1.99 -3.35,-1.31 -3.45,-0.83 -1.56,0.36 -1.45,-0.08 -1.51,-1.02 -1.66,-0.47 -1.56,-1.98 -1.25,-2.17 -2.68,0.52 -2.37,-1.01 3.64,-3.1 2.32,-5.07 9.27,1.35 7.83,2.11 2.71,2.71 5.12,0.61 4.22,0.9 3.12,0.59 z"
     title="Sironko"
     id="UG-215" />
  <path
     d="m 544.78486,297.06287 0,0 0.2,1.96 1.81,4.23 1.08,4.15 -1.31,4.22 -3.31,1.51 -8.56,0.87 -2.16,1.33 -3.55,3.41 -5.05,1.15 -0.71,1.9 -0.17,2.35 -0.53,0.9 -0.59,1.01 -0.12,0.02 -0.01,-0.02 -0.28,-0.62 -1.17,-5.24 0.25,-5.28 2.29,-5.02 3.46,-4.21 2.55,-1.65 2.77,-1.08 2.19,-0.34 2.02,-1 3.33,-4.25 1.56,-5.26 3.95,4.9 0.06,0.06 z"
     title="Bukwa"
     id="UG-218" />
  <path
     d="m 520.60486,314.91287 0,0 -0.25,5.28 1.17,5.24 0.28,0.62 0.01,0.02 -2.05,0.39 -1.7,-0.96 -1.72,-0.41 1.74,-6.21 0.02,-3.56 -2.7,-2.64 -7.01,-3.85 -10.68,-4.29 -2.02,-2.22 0.5,-3.12 1.62,-2.77 2.65,-2.74 3.23,-2.09 4.92,-2.22 3.64,3.3 6.62,1.81 3.62,2.41 0.3,4.22 -2.41,6.02 0.22,7.77 z"
     title="Kapchorwa"
     id="UG-206" />
  <path
     d="m 181.55486,313.54287 0,0 2.99,2.22 3.22,1.8 3.09,0.84 2.87,1.18 4.25,6.29 5.74,4.94 1.86,2.11 -0.24,2.75 -1.06,1.59 -1.65,0.78 -1.7,0.31 -0.88,1.4 -2.62,1.7 -1.64,2 1.14,3.36 -0.01,3.37 -1.44,2.57 0.04,1.95 -1.33,1.21 -1.02,1.54 -1.07,5.6 -2.86,4.06 -4.76,-1.93 -4.55,1.01 -6.3,8.88 -1.72,-1.11 -1.93,0.15 -2.36,-1.26 -2.83,-0.37 -4.65,-2.22 -5,-1.25 -4.65,-0.72 -5.69,-1.08 -1.79,-1.57 -1.29,-2.34 -5.18,-6.9 -4.06,-3.53 -4.89,-1.01 -4.64,-2.25 -9.87,-2.44 -9.07,-4.07 -1.89,-5.87 1.52,-6.59 0.66,-2.6 4.68,3.3 8.57,-1.23 7.04,-2.87 2.75,-3.03 3.7,-1.36 6.94,1.95 9.95,-3.59 4.83,-0.62 4.02,-2.2 1.98,0.37 2.71,0.22 2.33,-3.29 2.8,-0.19 2.86,0.27 2.1,-0.92 1.61,-1.93 3.93,-0.07 4.46,0.69 z"
     title="Kibale"
     id="UG-407" />
  <path
     d="m 144.79486,367.21287 0,0 -2.72,1.44 -2.14,0.54 1.25,2.14 3.4,1.79 1.79,0.9 0,6.25 -2.33,0.36 -1.07,1.43 0,9.48 -3.58,0.18 -0.18,5 -2.18,0.15 -3,1.11 -2.51,-0.9 -3.03,-0.89 -2.87,1.07 -3.57,1.43 -4.11,4.11 -5.01,3.22 -5.72,2.51 -2.68,0.35 -1.24,-2.72 -0.28,-3.97 -1.24,-3.68 -0.02,-3.51 -3.3,-1.49 -1.61,-2.51 -1.26,-4.47 -3.78,-3.01 1.47,-2.28 1.46,-0.52 -4.44,-3.26 -1.61,-1.62 -0.13,-2.63 1.7,-2.14 1.62,-1.52 0.63,-3.15 0.6,-5.86 2.32,-1.58 2.05,-3.01 1.3,-3.5 -0.55,-0.63 -0.42,-0.76 1.64,-2.98 2.11,-2.63 2.45,-2.35 9.07,4.07 9.87,2.44 4.64,2.25 4.89,1.01 4.06,3.53 5.18,6.9 1.29,2.34 1.79,1.57 z"
     title="Kyenjojo"
     id="UG-415" />
  <path
     d="m 104.00486,343.10287 0,0 -2.45,2.35 -2.11,2.63 -1.64,2.98 0.42,0.76 0.55,0.63 -1.3,3.5 -2.05,3.01 -2.32,1.58 -0.6,5.86 -0.63,3.15 -1.62,1.52 -1.7,2.14 0.13,2.63 1.61,1.62 4.44,3.26 -1.46,0.52 -1.47,2.28 -1.26,1.31 -2.61,1.92 -1.53,2.58 0.37,1.6 0.07,1.6 -1.54,3.25 2.17,2.77 0.28,2.7 -1.06,6.24 -1.79,8.66 -7.13,-1.92 -2.56,-1.81 -2.59,-1.84 -2.86,-2.04 -5.31,0.41 -2.86,-4.91 -8.17,-2.45 -11.03,2.45 -12.56,0.73 0.72,-2.24 1.2,-1.94 5.5,-6.36 0.88,0.95 0.92,0.95 1.15,1 0.7,0.37 0.8,0.11 1.32,-0.46 1.33,-0.67 0.62,-0.65 2.08,-1.11 1.08,-2.5 1.54,-2.19 1.38,-0.54 1.19,-0.77 1,-1.48 1.07,-1.3 2.01,-4.91 2.56,-4.47 2.2,-2.37 0.98,-3.21 1.3,-2.82 1.62,-2.7 7.23,-3.9 4.9,-3.26 2.45,-7.76 4.9,4.08 7.76,-7.76 4.09,-5.31 5.8,-4.32 1.89,5.87 z"
     title="Kabarole"
     id="UG-405" />
  <path
     d="m 188.93486,258.92287 0,0 0.4,1.35 0.13,1.49 0.87,1.24 -1.19,5.64 1.37,3.88 2.44,-0.76 2.3,-0.41 0.73,2.16 1.31,14.41 0.48,5.36 1.81,1.96 2.37,1.8 2.83,1.12 -7.9,7.89 -3.03,1.17 -5.95,3.01 -3.52,1.06 -2.83,2.25 -4.46,-0.69 -3.93,0.07 -1.61,1.93 -2.1,0.92 -2.86,-0.27 -2.8,0.19 -2.33,3.29 -2.71,-0.22 -1.98,-0.37 -4.02,2.2 -4.83,0.62 -9.95,3.59 -6.94,-1.95 -3.7,1.36 -2.75,3.03 -7.04,2.87 -8.57,1.23 -4.68,-3.3 0.19,-9.07 0.39,-18.14 4.53,-5.84 8.79,-11.31 14.08,-11.36 14.3,-11.58 7.43,-5.99 5.18,-6.5 26.16,2.05 3.5,3.21 0.09,5.41 z"
     title="Hoima"
     id="UG-403" />
  <path
     d="m 64.98486,365.46287 0,0 -1.62,2.7 -1.3,2.82 -0.98,3.21 -2.2,2.37 -2.56,4.47 -2.01,4.91 -1.07,1.3 -1,1.48 -1.19,0.77 -1.38,0.54 -1.54,2.19 -1.08,2.5 -2.08,1.11 -0.62,0.65 -1.33,0.67 -1.32,0.46 -0.8,-0.11 -0.7,-0.37 -1.15,-1 -0.92,-0.95 -0.88,-0.95 1.97,-2.28 0.33,-0.72 1.5,-3.25 -0.26,-4.06 -1.92,-8.41 0.05,-2.14 1.28,-8.79 -0.57,-5.38 0.15,-1.06 1.98,-4.12 1.35,-0.78 2.28,-1.76 1.48,-1.14 4.37,-1.97 11.11,-2.52 1.01,-0.58 1.13,-1.33 1.85,-3.45 2.37,6.2 4.76,4.38 -2.62,1.24 -1.82,2.38 -0.72,5 -0.85,0.89 -0.99,1.24 -1.49,3.64 z"
     title="Bundibugyo"
     id="UG-401" />
  <path
     d="m 324.45486,168.77287 0,0 11.62,2.62 4.96,6.53 -1.24,4.28 -3.65,2.88 -4.51,-1.49 -4.39,-0.2 -7.2,9.25 -4.12,1.15 2.22,12.27 -2.43,1.9 -1.86,2.36 -1.25,2.56 -1.84,3.74 -6.39,9.77 -4.99,1 -7.9,-3.3 -0.84,-2.23 -1.15,-1.65 -0.75,-1.66 -1.06,-7.29 -1.89,-3.59 -1.62,-1.95 -1.72,-0.81 -1.95,-8.33 -0.49,-8.62 0.56,-4.26 3.92,-0.91 4.31,0.45 4.3,-0.49 3.71,0.1 4.37,-1.02 4.78,-13.49 8.96,-1.46 9.53,1.89 z"
     title="Oyam"
     id="UG-321" />
  <path
     d="m 254.42486,269.36287 0,0 3.5,-0.5 0,-3.99 4.5,-0.5 3.53,2.1 0.28,1.86 -1.84,1.88 -1.8,4.39 -2.99,3.81 -2.31,1.41 -2.45,0.95 -3.67,5.45 -3.61,3.2 -4.25,2.54 -6.42,6.64 -2.09,0.33 -2,0.64 -2.3,2.51 -4.65,-0.49 -4.75,-1.35 -16.32,-2.08 -2.83,-1.12 -2.37,-1.8 -1.81,-1.96 -0.48,-5.36 -1.31,-14.41 -0.73,-2.16 -2.3,0.41 -2.44,0.76 -1.37,-3.88 1.19,-5.64 -0.87,-1.24 -0.13,-1.49 -0.4,-1.35 6.06,0.95 6.49,0.5 6.99,-3.5 3,-4.5 0,-6.99 3,-2.5 2.99,-0.5 1,-2.5 -1.5,-3 -2.99,-2.5 -3,-4.99 -3.5,-4.5 0,-8 1,-7 -0.34,-7.16 7.13,0 0.95,0.22 1.13,0.97 0.83,0.23 1.95,-0.26 9.81,-3.3 -0.98,12.8 0.5,12 2,2.5 3.99,0.5 3,1 2,2.99 2,3 0,4.5 -1,6.5 0,4.99 2.49,4.5 1.5,4 0,4 3,1.5 4,1 1.99,2.99 z"
     title="Masindi"
     id="UG-409" />
  <path
     d="m 351.98486,116.17287 0,0 0.34,-7.4 5.99,0.65 7.86,4.26 3.27,4.26 3.3,2.8 2.89,4.91 0,4.26 -2.13,2.44 -3.04,2.44 0.6,3.65 5.48,0.92 6.69,0.3 2.13,3.66 -0.6,7 -3.35,3.66 -13.39,0.61 -2.74,3.04 2.44,3.66 5.12,6.64 -4.65,1.92 -4.18,2.59 -3.03,3.68 -3.34,0.95 -1.5,-1.49 -2.08,-0.23 -1.4,-5.18 -2.76,-0.92 -1.96,-1.24 -2.48,-0.28 -1.97,-0.92 -1.18,-1.61 -1.36,0.04 -1.65,3.73 -3.23,2.42 -11.62,-2.62 0.16,-1.91 1.54,-1.21 1.39,-1.75 -0.52,-2.31 -0.72,-1.78 0.92,-1.35 2.76,-0.79 1.63,-2.26 -1.35,-1.55 -1.97,-1.02 -1.26,-2.4 -1.01,-2.6 -1.29,-1.16 -1.29,-0.69 -1.58,-2.07 -10.45,-19.58 -6.69,-8.92 1.06,-0.85 2,0 1.22,-1.24 17.16,-0.09 5.78,-3.49 4.91,-1.02 1.83,1.12 3.91,0.55 5.59,3.61 3.8,2.16 z"
     title="Pader"
     id="UG-312" />
  <path
     d="m 389.76486,227.55287 0,0 -0.91,8.35 -0.57,1.09 -0.97,0.76 -1.24,2.12 -1.6,1.8 -9.36,5.82 -1.32,0.52 -0.9,1.01 -0.68,3.42 -2.12,5.99 -0.35,1.5 -0.45,1.19 -1.58,0.87 -1.66,0.64 -3.79,0.25 -3.91,-1.59 3.68,-10.62 -8.47,-5.18 0.35,-6.31 -3.54,-1.6 -4.63,-0.7 -0.41,-3.68 1.6,-4.55 0.87,-4.77 4.22,0.32 3.84,0.71 3.47,2.25 3.61,1.87 3.14,-0.88 2.31,-3.39 3.36,-1.32 1.88,-3.03 2,0.41 1.87,-0.77 4.1,2.11 5.14,0.99 1.65,2.04 1.37,2.36 z"
     title="Dokolo"
     id="UG-318" />
  <path
     d="m 357.64486,177.07287 0,0 3.34,-0.95 -0.26,2.83 -1.52,3.35 -3.35,2.13 0,3.05 -2.73,3.04 -4.57,1.83 -0.61,2.44 4.57,0 3.65,1.21 1.52,3.66 3.95,3.04 3.96,2.13 2.13,3.66 0.67,16.27 -2.31,3.39 -3.14,0.88 -3.61,-1.87 -3.47,-2.25 -3.84,-0.71 -4.22,-0.32 -2.13,-0.81 -2.28,0.13 -1.82,-1.09 -1.6,-1.57 0.89,-10.59 0.66,-1.93 -1.9,-3.09 -2.63,-5.58 -2.43,-3.35 1.52,-3.95 2.13,-3.96 1.58,-5.89 1.24,-4.28 -4.96,-6.53 3.23,-2.42 1.65,-3.73 1.36,-0.04 1.18,1.61 1.97,0.92 2.48,0.28 1.96,1.24 2.76,0.92 1.4,5.18 2.08,0.23 1.5,1.49 z"
     title="Lira"
     id="UG-307" />
  <path
     d="m 295.57486,99.78287 0,0 12.84,11.25 0.59,2.3 -1.22,1.24 -2,0 -1.06,0.85 6.69,8.92 10.45,19.58 1.58,2.07 1.29,0.69 1.29,1.16 1.01,2.6 1.26,2.4 1.97,1.02 1.35,1.55 -1.63,2.26 -2.76,0.79 -0.92,1.35 0.72,1.78 0.52,2.31 -1.39,1.75 -1.54,1.21 -0.16,1.91 -9.53,-1.89 -8.96,1.46 -4.78,13.49 -4.37,1.02 -3.71,-0.1 -1.94,-1.89 -3.34,-1.02 -2.73,-1.77 -1.62,-2.72 -0.49,-2.05 -0.21,-2.08 0.46,-1.29 -6.57,-0.46 -2.92,-1.71 -1.46,-3.17 0.73,-2.92 1.95,-2.68 1.35,-3.31 1.32,-3.52 0.25,-2.43 -2.36,-17.31 -1.78,-4.38 0.24,-6.1 2.19,-6.58 1.95,-3.17 6.57,-5.6 3.9,-5.37 3.99,-3.61 2.99,2.17 z"
     title="Gulu"
     id="UG-304" />
  <path
     d="m 436.82486,90.68287 0,0 -0.89,1.31 -0.67,1.37 0.66,2.91 -2.43,2.8 -3.12,2.21 -3.11,0.13 -2.98,-1.35 -3.77,-0.71 -3.81,0.13 -2.4,0.34 -2.3,-0.19 -1.73,-1.4 -1.85,-1.08 -8.45,-0.88 2.85,4.11 -6.79,-0.24 0.89,6.92 -4.92,0.42 -4.14,1.44 -6.1,-1.03 -2.48,8.01 -3.65,9.75 -2.89,-4.91 -3.3,-2.8 -3.27,-4.26 -7.86,-4.26 -5.99,-0.65 -0.34,7.4 -3.8,-2.16 -5.59,-3.61 -3.91,-0.55 -1.83,-1.12 -0.47,-5.93 0,-4.27 -2.13,-4.27 0,-4.87 1.22,-2.75 10.04,-0.6 3.95,-0.92 2.44,-1.83 0,-2.13 1.22,-2.44 17.64,0 1.52,-1.52 1.22,-4.27 2.13,-1.22 2.74,0 4.56,5.18 0,5.49 5.78,0.3 0.3,-13.71 -1.21,-5.8 -2.44,-3.35 -0.6,-3.35 0.91,-3.05 1.23,-4.5 2.37,0.12 16.74,0.85 4.51,-0.56 3.85,-2.27 0.17,0.48 3.68,11.63 6.79,9.61 2.66,5.3 1.99,5.72 4.23,4.99 2.93,5.89 z"
     title="Kitgum"
     id="UG-305" />
  <path
     d="m 297.64486,326.35287 0,0 -0.59,8.66 1.22,6.53 5.31,8.17 0.09,12.82 0.9,1.76 1.37,1.14 0.42,1.75 -1.35,1.62 -1.14,1.95 -1.15,1.1 -2.06,-0.2 -2.53,0.11 -2.43,0.47 -1.91,1.33 -1.58,1.64 -1.97,3.72 -0.47,4.08 -2.91,0.72 -2.49,-1.18 -2.78,-1.7 -3.03,-0.75 -0.65,-2.8 -1.49,-6.14 -1.92,-4.41 2.81,-3 1.18,-2.96 -0.29,-5.04 -5.49,-4.84 -6.15,-1.15 -6.67,-4.57 -4.45,-7.51 0.1,-2.18 -0.2,-1.91 -4.85,-8.63 -2.09,-12.23 -3.84,-6.64 -7.67,-7.48 6.42,-6.64 4.25,-2.54 3.61,-3.2 12.71,6.56 17.25,17.32 10.45,4.83 5.06,4.97 1,6.45 z"
     title="Nakaseke"
     id="UG-115" />
  <path
     d="m 278.56486,380.09287 0,0 -0.36,7.35 4.56,7.17 0.52,5.58 -0.2,2.05 0.24,4.1 -0.38,5.69 -3.56,1.48 -7.33,-0.44 -1.96,0.15 -12.9,0.98 -2.2,0.14 -1.11,1.09 -1.87,0.63 -2.33,-0.53 -1.5,1.12 -2.01,0.19 -2.38,-0.68 -1.88,-1.1 -2.43,-3.85 -2.68,-0.83 13.26,-1.31 1.83,-4.39 -1.17,-4.81 0.4,-2.38 1.04,-1.94 -0.93,-3.03 -1.78,-2.74 -0.42,-2.33 -1.68,-2.11 0.24,-1.05 0.82,-0.8 0.63,-0.92 -0.14,-1.11 -1.25,-0.54 -1.42,-0.34 -1.02,-2.78 1.43,-2.72 2.64,-0.92 1.26,-1.81 2.62,0.62 5.49,0.84 4.21,-0.14 2.01,-1.44 5.03,-3.45 4.6,-2.04 1.92,4.41 1.49,6.14 0.65,2.8 z"
     title="Mityana"
     id="UG-114" />
  <path
     d="m 246.78486,368.26287 0,0 0.2,1.43 0.93,1.1 1.42,0.69 1.21,0.87 -1.26,1.81 -2.64,0.92 -1.43,2.72 1.02,2.78 1.42,0.34 1.25,0.54 0.14,1.11 -0.63,0.92 -0.82,0.8 -0.24,1.05 1.68,2.11 0.42,2.33 1.78,2.74 0.93,3.03 -1.04,1.94 -0.4,2.38 1.17,4.81 -1.83,4.39 -13.26,1.31 -5.06,2.6 -5.08,-4.51 -7.11,-2.37 -3.85,-1.18 -4.55,-0.21 -7.9,4.06 -6.51,2.07 -6.52,1.19 -3.85,1.48 -0.22,5.46 -4.72,0.2 -3.14,3.07 -4.31,-0.13 -3.39,-2.58 -2.89,-3.39 -3.95,-0.36 -3.97,2.03 -3.7,0.61 -3.85,-0.09 1.84,-3.29 2.97,-2.39 2.65,-2.92 2.22,-3.21 1.44,-1.25 1.12,-1.32 -0.65,-1.79 -0.99,-1.79 -0.1,-4.01 2,-3.57 0.92,-3.43 2.3,-2.01 7.31,-1.25 1.46,-0.79 -0.07,-1.27 0.71,-1.56 0.34,-1.61 -1.41,-3.25 -2.67,-2.55 6.3,-8.88 4.55,-1.01 4.76,1.93 2.86,-4.06 1.07,-5.6 1.02,-1.54 1.33,-1.21 -0.04,-1.95 1.44,-2.57 15.08,1.7 5.86,-2.17 3.68,0 6.94,4.9 5.7,0.03 4.09,1.6 8.52,12.02 z"
     title="Mubende"
     id="UG-107" />
  <path
     d="m 330.96486,327.94287 0,0 5.63,-0.63 -0.41,12.34 1.7,12.22 -0.42,9.68 -1.63,10.2 -2.04,6.94 -8.66,3.24 -4.75,0.03 -4.65,-1.59 -3.98,2.95 -3.89,-1.02 -5.13,0.04 -9.83,-1.12 -1.58,0.72 -1.55,1.06 0.47,-4.08 1.97,-3.72 1.58,-1.64 1.91,-1.33 2.43,-0.47 2.53,-0.11 2.06,0.2 1.15,-1.1 1.14,-1.95 1.35,-1.62 -0.42,-1.75 -1.37,-1.14 -0.9,-1.76 -0.09,-12.82 -5.31,-8.17 -1.22,-6.53 0.59,-8.66 6.53,7.66 9.46,4.22 6.69,0.86 -0.41,-5.31 0.82,-6.53 1.25,-5.62 3.65,-0.91 2.85,2.86 2.48,4.36 z"
     title="Luweero"
     id="UG-104" />
  <path
     d="m 286.86486,383.72287 0,0 2.91,-0.72 1.55,-1.06 1.58,-0.72 9.83,1.12 5.13,-0.04 3.89,1.02 3.98,-2.95 4.65,1.59 4.75,-0.03 0.05,2.86 -1.16,2.63 -2.23,0.26 -2.03,0.59 -0.66,1.85 -1.57,1.17 -1.88,0.14 -1.3,-1.14 -1.83,-0.76 -1.37,4.25 0.89,1.3 1.57,1.28 -0.41,0.75 0.12,0.91 0.7,0.59 0.17,0.77 -0.63,2.87 -1.44,1.83 -2.25,4.19 2.47,3.08 6.26,-1.53 5.91,0.09 -2.24,3.09 -1.16,4.42 -1.21,8.5 0.19,13.67 -5.68,7 -4.67,6.19 -3.03,4.03 -11,-0.34 -14.5,-0.15 0.38,-5.44 -0.33,-4.92 -2.54,-4.24 -0.44,-4.89 0.72,-2.15 2.05,-1.32 2.25,-1.79 1.04,-2.89 1.88,-1.14 2.28,-0.7 1.99,-1.68 1.32,-2.32 0.85,-2.11 1.54,-1.36 2.47,-1.15 1.38,-1.98 1.43,-3.96 1.65,-9.91 -7.35,-7.76 -11.02,0 -4.56,-7.17 0.36,-7.35 3.03,0.75 2.78,1.7 2.49,1.18 z"
     title="Wakiso"
     id="UG-113" />
  <path
     d="m 286.90486,268.25287 0,0 1.55,2.58 6.89,2.15 4.73,3.02 2.53,0.72 2.26,1.63 3.2,3.15 2.12,0.56 3.02,-0.48 2.02,3.37 2.71,2.65 9.05,-0.81 0.29,8.59 3.03,1.06 1.91,1.1 1.12,0.34 0.8,1.52 0.99,0.33 0.68,0.46 0.37,1.13 0.11,1.4 -0.09,1.28 0.21,2.25 1.55,10.5 -1.36,10.56 -5.63,0.63 -2.48,-4.36 -2.85,-2.86 -3.65,0.91 -1.25,5.62 -0.82,6.53 0.41,5.31 -6.69,-0.86 -9.46,-4.22 -6.53,-7.66 -1,-6.45 -5.06,-4.97 -10.45,-4.83 -17.25,-17.32 -12.71,-6.56 3.67,-5.45 2.45,-0.95 2.31,-1.41 2.99,-3.81 1.8,-4.39 1.84,-1.88 3.83,-2.02 3.81,-1.07 3.58,0.12 2.41,0.84 7.04,2.05 z"
     title="Nakasongola"
     id="UG-109" />
  <path
     d="m 274.50486,366.74287 0,0 -4.6,2.04 -5.03,3.45 -2.01,1.44 -4.21,0.14 -5.49,-0.84 -2.62,-0.62 -1.21,-0.87 -1.42,-0.69 -0.93,-1.1 -0.2,-1.43 -8.52,-12.02 -4.09,-1.6 -5.7,-0.03 -6.94,-4.9 4.49,-5.72 4.08,-3.67 4.49,-2.45 3.27,-2.86 1.22,-4.9 3.27,-3.27 8.14,-1.89 4.85,8.63 0.2,1.91 -0.1,2.18 4.45,7.51 6.67,4.57 6.15,1.15 5.49,4.84 0.29,5.04 -1.18,2.96 -2.81,3 z"
     title="Kiboga"
     id="UG-103" />
  <path
     d="m 324.51486,409.91287 0,0 -5.91,-0.09 -6.26,1.53 -2.47,-3.08 2.25,-4.19 1.44,-1.83 0.63,-2.87 -0.17,-0.77 -0.7,-0.59 -0.12,-0.91 0.41,-0.75 -1.57,-1.28 -0.89,-1.3 1.37,-4.25 1.83,0.76 1.3,1.14 1.88,-0.14 1.57,-1.17 0.66,-1.85 2.03,-0.59 2.23,-0.26 1.26,2.25 -0.51,2.32 -0.38,3.49 0.48,3.44 1.92,6.1 -2.28,4.89 z"
     title="Kampala"
     id="UG-102" />
  <path
     d="m 150.01486,94.10287 0,0 1.32,-1.26 1.29,-0.81 4.29,2.84 -2.69,4.89 -0.73,5.36 -2.92,3.17 -4.38,2.93 -3.64,4.05 -11.25,-0.5 -4.61,-0.15 4.25,-12.77 1.86,-3.69 0.38,-0.24 1.25,-0.28 0.49,-0.25 0.33,-0.54 0.13,-1.09 0.19,-0.51 2.06,-3.55 3,-3.3 0.79,-1.15 2.61,2.77 2.74,2.53 3.24,1.55 z"
     title="Maracha"
     id="UG-320" />
  <path
     d="m 205.82486,59.09287 0,0 1.12,-0.98 0.11,-0.1 1.21,-1.51 1.83,-0.92 5.12,-0.75 -2.82,6.75 -5.38,7.25 -7.43,10.92 -0.81,10.99 0.49,13.89 6.64,7.78 -1.26,2.72 -9.18,-1.26 -0.51,-4.74 -2.16,-4.5 -2.84,-0.36 -2.44,-0.75 -1.26,-2.46 -1.95,-1.69 -5.28,-1.51 -4.26,-3.14 -2.06,-2.14 -3.01,-0.94 -2.66,-0.43 -2.11,1.2 -0.86,2.47 -2.01,1.56 -2.95,0.59 -2.19,-2.16 -0.52,-11.64 -1.21,-11.28 1.52,-13.72 1.76,-7.03 0.94,-0.37 2.78,-2.17 3.86,-3.02 2.72,-0.76 4.91,0 4.26,0.6 4.09,1.3 8.6,4.68 13.3,7.24 1.9,0.39 z"
     title="Yumbe"
     id="UG-313" />
  <path
     d="m 234.69486,43.41287 0,0 0.61,0.29 2.47,2.07 7.41,8.3 1.49,2.5 0.39,1.98 0.32,4.8 0.72,1.76 1.42,0.74 8.18,0.51 -1.4,0.85 -5.26,1.55 -1.16,1.47 -0.54,2.26 -1.43,1.81 -2.06,1.13 -2.35,0.2 -1.23,-0.32 -1.27,-0.6 -1.19,-0.77 -0.94,-0.83 -1.88,0.14 -1.06,-0.2 0.22,-1.35 -1.19,0.2 -2.19,0.82 -2.54,2.28 -1.01,0.63 -2.37,0.51 -2.29,0.21 -1.09,0.44 -0.69,0.98 -0.52,0.98 -1.82,1.43 -0.71,2.32 -0.5,2.63 -0.67,1.96 -3.59,3.59 -1.53,1.94 -0.89,3.59 -0.63,0.8 -0.71,0.7 -0.53,0.7 -0.33,0.82 -0.45,2.81 -1.22,4.4 -2.78,5.97 -6.64,-7.78 -0.49,-13.89 0.81,-10.99 7.43,-10.92 5.38,-7.25 2.82,-6.75 5.68,-0.84 1.9,-0.81 0.97,-0.88 8.28,-9.33 0.23,-0.6 0.32,0.07 2.1,0.97 z"
     title="Moyo"
     id="UG-309" />
  <path
     d="m 195.39486,167.36287 0,0 1.35,1.94 1.47,1.65 1.25,2.17 1.58,4.47 1.82,1.54 0.89,-0.08 1.16,-0.37 1.01,-0.06 0.43,0.87 -0.14,1.17 -0.44,1.04 -0.77,0.76 -1.14,0.29 -1.56,0.74 -1.03,1.81 -0.52,2.35 -0.02,1.5 -0.39,2.81 -0.43,2.67 -1.6,1.54 -2.44,1.47 -5.38,2.54 -3.83,4.11 -0.8,2.8 1.43,5.87 -3.81,2.51 -3.02,0.42 0.04,-0.21 -0.18,-0.27 -1.17,-1.79 -5.89,-3.35 -2.16,-1.68 -0.8,-1.79 -0.35,-2.19 -0.16,-4.5 -5.02,1.9 -1.74,0.27 -1.41,-0.06 -4.56,-0.79 -1.51,-0.8 -0.54,-0.94 0.34,-0.42 0.58,-0.3 0.17,-0.6 -0.25,-0.77 -0.24,-0.44 -5.87,-6.6 -1.75,-1.13 0.87,-2.14 4.38,-0.61 0.6,-3.78 3.17,-1.96 1.51,-3.93 -2.18,-6.69 6.93,-1.17 4.15,-2.37 10.12,-1.32 3.73,-2.92 1.1,-1.5 -0.17,-2.14 0.54,-1.57 1.5,-1.16 0.9,-1.62 0.48,-1.41 1.94,-0.86 4.64,-2.44 2.02,1.4 1.57,0.81 1.02,1.23 0.57,3.67 0.42,1.18 0.27,1.25 -0.18,1.26 -0.57,0.56 -1.79,0.94 -0.55,0.57 -0.33,2.45 0.74,2.2 z"
     title="Nebbi"
     id="UG-310" />
  <path
     d="m 201.48486,260.37287 0,0 -6.49,-0.5 -6.06,-0.95 -0.09,-5.41 -3.5,-3.21 -26.16,-2.05 2.13,-2.68 2.4,-3.02 6.68,-8.41 6.2,-7.81 2.98,-5.4 0.89,-5.04 3.02,-0.42 3.81,-2.51 2.09,-1.38 0.62,-0.32 2.82,-0.95 5.18,-3.82 5.03,-1.3 3.56,-2.01 1.54,-0.45 0.34,7.16 -1,7 0,8 3.5,4.5 3,4.99 2.99,2.5 1.5,3 -1,2.5 -2.99,0.5 -3,2.5 0,6.99 -3,4.5 -6.99,3.5 z"
     title="Buliisa"
     id="UG-419" />
  <path
     d="m 156.91486,94.87287 0,0 -4.29,-2.84 -1.29,0.81 -1.32,1.26 -3.24,-1.55 -2.74,-2.53 -2.61,-2.77 0.53,-0.77 0.66,-2.23 -0.2,-1.22 -1.04,-2.18 -0.16,-1.2 0.7,-2.94 -0.03,-0.94 -1.35,-2.48 -1.69,0.58 -1.96,1.69 -2.26,0.83 0.44,-1.64 2.28,-4.49 6.87,-10.02 0.47,-1.23 0.33,-1.2 0.52,-1.14 1.15,-1.01 1.1,-0.38 2.06,0.06 1.06,-0.15 1.41,-0.65 3.21,-2.55 0.96,-0.4 1.98,-0.39 -1.76,7.03 -1.52,13.72 1.21,11.28 0.52,11.64 z"
     title="Koboko"
     id="UG-316" />
  <path
     d="m 192.79486,104.63287 0,0 2.16,4.5 0.51,4.74 9.18,1.26 -3.83,5.79 -4.73,5.02 -1.54,2.19 -1.36,3.99 -2.66,5.42 -0.95,4.25 0.36,4.34 2.27,3.71 -4.64,2.44 -1.94,0.86 -0.48,1.41 -0.9,1.62 -1.5,1.16 -0.54,1.57 0.17,2.14 -1.1,1.5 -3.73,2.92 -10.12,1.32 -4.15,2.37 -6.93,1.17 -6.19,-2.69 0.01,-4.74 -1.36,-3.83 -1.02,-4.19 -4.32,0.61 -5.86,2.01 -3.54,2.32 -6.6,1.45 2.8,-7.55 0.13,-0.54 0.02,-1.03 0.26,-0.59 0.44,-0.29 1.26,-0.24 0.41,-0.21 0.71,-1.03 2.57,-7.01 0.15,-4.15 -1.13,-4.13 -2.4,-4.2 -1.8,-1.66 -4.85,-3.38 -1.24,-1.55 -0.13,-1.99 0.42,-2.22 1.61,-4.87 4.61,0.15 11.25,0.5 3.64,-4.05 4.38,-2.93 2.92,-3.17 0.73,-5.36 2.69,-4.89 2.19,2.16 2.95,-0.59 2.01,-1.56 0.86,-2.47 2.11,-1.2 2.66,0.43 3.01,0.94 2.06,2.14 4.26,3.14 5.28,1.51 1.95,1.69 1.26,2.46 2.44,0.75 2.84,0.36 z"
     title="Arua"
     id="UG-303" />
  <path
     d="m 261.03486,69.16287 0,0 0,0.08 -0.51,14.87 -0.68,1.3 -1.29,0.69 -0.2,2.12 0.22,2.2 0.89,1.83 0.25,1.77 -2.05,3.75 -0.23,2.17 0.51,2.24 -0.59,1.94 -1.08,1.86 -1.25,1.66 -1.56,1.42 -0.64,1.99 -0.14,2.23 -3.84,6.25 -0.23,2.12 -0.42,2.07 -20.84,6.47 -10.99,1.74 -3.24,4.53 -2.59,3.75 -1.46,0.92 -1.93,0.05 -1.34,-0.7 -0.91,-1.48 -2.72,-0.76 -2.19,-2.84 -2.51,-2.12 -4.29,-1.16 1.36,-3.99 1.54,-2.19 4.73,-5.02 3.83,-5.79 1.26,-2.72 2.78,-5.97 1.22,-4.4 0.45,-2.81 0.33,-0.82 0.53,-0.7 0.71,-0.7 0.63,-0.8 0.89,-3.59 1.53,-1.94 3.59,-3.59 0.67,-1.96 0.5,-2.63 0.71,-2.32 1.82,-1.43 0.52,-0.98 0.69,-0.98 1.09,-0.44 2.29,-0.21 2.37,-0.51 1.01,-0.63 2.54,-2.28 2.19,-0.82 1.19,-0.2 -0.22,1.35 1.06,0.2 1.88,-0.14 0.94,0.83 1.19,0.77 1.27,0.6 1.23,0.32 2.35,-0.2 2.06,-1.13 1.43,-1.81 0.54,-2.26 1.16,-1.47 5.26,-1.55 1.4,-0.85 0.82,0.05 1.19,0.63 1.32,2.12 z"
     title="Adjumani"
     id="UG-301" />
  <path
     d="m 281.21486,456.32287 0,0 -26.08,-0.02 -3.59,-0.92 -2.85,-2.35 -5.8,-9.56 -2.51,-2.86 7.31,-3.7 6.51,-5.04 3.85,-4.14 5.34,-2.08 5.33,0.89 4.44,-2.66 5.04,-3.26 2.96,-2.37 2.07,-2.08 -0.29,-4.14 0.38,-5.69 -0.24,-4.1 0.2,-2.05 -0.52,-5.58 11.02,0 7.35,7.76 -1.65,9.91 -1.43,3.96 -1.38,1.98 -2.47,1.15 -1.54,1.36 -0.85,2.11 -1.32,2.32 -1.99,1.68 -2.28,0.7 -1.88,1.14 -1.04,2.89 -2.25,1.79 -2.05,1.32 -0.72,2.15 0.44,4.89 2.54,4.24 0.33,4.92 -0.38,5.44 z"
     title="Mpigi"
     id="UG-106" />
  <path
     d="m 178.29486,422.24287 0,0 3.14,-3.07 4.72,-0.2 4.7,0.35 1.74,1.13 2.34,3.65 2.13,0.91 8.15,4.48 7.69,5.21 -4.31,3.24 1.48,7.56 2.37,12.15 2.07,9.47 -0.3,3.56 -1.99,0.71 -7.14,1.09 -5.84,0.13 -2.29,-0.51 -2.27,-0.28 -8.61,-1.44 -5.8,-3.39 1.15,-2.56 0.79,-2.88 1.07,-2.49 0.4,-2.82 -0.14,-1.56 -0.51,-1.51 0.45,-2.88 -2.22,-2.54 -2.94,-1.89 -1.34,3.61 -5.51,-2.64 -0.33,-1.83 -5.59,-1.84 -2.45,-0.46 -1.43,0.95 -2.28,0.82 -3.49,-1.02 -2.94,-0.39 0.66,-1.74 1.34,-1.37 0.89,-2.25 -0.08,-6.7 -0.43,-4.14 -2.16,-3.91 -1.79,-4.16 0.84,-0.46 3.85,0.09 3.7,-0.61 3.97,-2.03 3.95,0.36 2.89,3.39 3.39,2.58 4.31,0.13 z"
     title="Sembabule"
     id="UG-111" />
  <path
     d="m 438.47486,303.70287 0,0 3.11,-0.57 2.88,0.28 1.83,2.14 2,1.83 2.74,0.77 2.89,0.45 1.97,1.54 1.64,2.07 9.06,1.87 2.12,0.76 2.06,1.15 4.88,1.26 0.08,2.17 1.12,1.89 0.19,2.54 -4.55,-1.95 -3.92,-1.8 -6.93,-2.11 -8.13,0.3 -5.12,2.11 -7.83,3.61 -7.23,2.71 -8.01,-0.08 -2.26,-3.1 -1.55,-3.6 -2.2,-2.47 -2.69,-2.21 -1.49,-0.41 -1.12,-0.2 -2.65,-3.71 -2.73,-2.77 -3.12,-2.34 -2.87,-1.21 -1.03,-3.78 2.42,-0.35 1.04,2.03 1.69,0.4 2.04,-0.86 2.47,0.51 6.39,-1.17 15.34,-1.02 2.48,-0.06 1.02,1.74 1.97,1.64 z"
     title="Pallisa"
     id="UG-210" />
  <path
     d="m 362.75486,378.75287 0,0 -4.52,2.96 -0.33,5.04 1.68,5.88 2.85,4.03 -0.84,5.72 -4.53,4.87 -6.05,5.88 -2.86,5.21 -3.03,3.36 -0.16,3.53 -9.12,10.76 -17.49,20.82 -11.64,0 3.03,-4.03 4.67,-6.19 5.68,-7 -0.19,-13.67 1.21,-8.5 1.16,-4.42 2.24,-3.09 2.28,-4.89 -1.92,-6.1 -0.48,-3.44 0.38,-3.49 0.51,-2.32 -1.26,-2.25 1.16,-2.63 -0.05,-2.86 8.66,-3.24 2.04,-6.94 1.63,-10.2 0.42,-9.68 3.09,6.54 3.77,6.14 4.08,3.21 5.55,2.35 3.19,2.52 5.19,6.12 z"
     title="Mukono"
     id="UG-108" />
  <path
     d="m 443.65486,262.03287 0,0 -0.38,2.36 0.54,1.81 -2.57,1.24 -3.24,-0.58 -2.18,1.67 -1.19,2.99 -0.72,2.66 -7.47,1.88 -6.7,0.61 -7.3,-1.82 -4.56,-3.05 -3.04,-6.39 -7,-1.82 -1.52,-2.44 4.86,-3.65 3.85,-2.3 0.08,-2.05 0.02,-1.95 1.84,-3.34 -0.28,-2.32 -1.05,-2.16 0.76,-4.47 1.21,-4.26 0.59,-3.38 2.48,-1.84 4.03,0.88 1.96,3.74 2.59,2.85 3.44,1.95 2.23,0.48 2.09,0.85 0.68,1.8 0.41,1.79 1.9,1.61 2.25,1.13 1.02,1.08 0.92,1.23 3.59,2.92 3.01,3.45 0.56,2.15 0.31,2.25 0.88,1.2 1.1,1.24 z"
     title="Soroti"
     id="UG-211" />
  <path
     d="m 436.77486,342.41287 0,0 2.46,2.49 0.87,3.37 -0.16,3.8 0.33,3.65 1.49,3.54 0.8,3.3 1.01,0.95 1.48,1 1.56,3.56 -3.27,1.02 -3.22,0.1 -3.21,-4.56 -1.95,2.56 -3.11,-0.41 -3.46,-1.44 -3.32,-1.78 -0.81,-4.12 -4.71,-1.92 -2.29,-0.65 -1.39,-1.87 -1.07,-6.84 4.62,-11.73 1.75,-2.11 1.29,-2.35 1.19,-2.77 1.67,-2.56 4.93,3.59 1.6,1.67 -0.02,5.03 1.19,1.96 3.75,3.52 z"
     title="Namutumba"
     id="UG-222" />
  <path
     d="m 425.32486,326.64287 0,0 -1.67,2.56 -1.19,2.77 -1.29,2.35 -1.75,2.11 -4.62,11.73 -4.04,2.05 -1.68,-0.2 -1.77,-0.6 -3.38,-0.26 -3.01,-1.36 -0.65,-3.31 1.77,-7.17 -1.65,-3.45 -1.11,-1.57 -0.94,-1.66 -1.52,-1.94 -2.11,-1.18 2.75,-2.27 0.2,-1.38 -0.18,-1.56 1.55,-2.71 1.89,-2.63 1.41,-2.97 2.04,-2.64 0.86,-2.61 0.28,-2.91 3.12,2.34 2.73,2.77 2.65,3.71 1.12,0.2 1.49,0.41 2.69,2.21 2.2,2.47 1.55,3.6 2.26,3.1 z"
     title="Kaliro"
     id="UG-220" />
  <path
     d="m 358.35486,261.29287 0,0 -1.08,5.32 -3.71,1.95 2.28,8.66 -0.11,9.25 -15.91,-0.17 -12.84,0.49 -9.05,0.81 -2.71,-2.65 -2.02,-3.37 -3.02,0.48 -2.12,-0.56 -3.2,-3.15 -2.26,-1.63 -2.53,-0.72 -4.73,-3.02 -6.89,-2.15 -1.55,-2.58 4.74,-0.69 18.32,0.26 7.32,0.08 3.61,-2.06 6.87,-6.35 8.11,-7.17 11.96,-0.69 10.52,9.66 z"
     title="Amolatar"
     id="UG-314" />
  <path
     d="m 390.39486,341.62287 0,0 -0.01,3.78 -0.33,1.82 -0.65,1.72 -0.23,1.53 0.58,1.56 -0.36,1.23 -0.73,1 -0.42,2.39 -1.28,1.92 -1.46,0.83 -1.33,0.98 -0.79,1.69 -1.14,4.77 0.24,3.08 -2.37,-0.6 -1.73,-0.76 -2.49,0.55 -2.56,-0.19 -0.57,2.18 -3.22,-0.59 -2.28,1.47 -2.71,-1.16 0.18,-4.67 -0.47,-4.96 -1.31,-4.43 -2.01,-4.03 -4.97,-7.74 -1.26,-4.03 -1.9,-13.8 0.33,-2.24 2.25,-1.82 0.46,-2.03 0,-2.36 -0.42,-1.86 8.02,0.84 7.83,3.61 1.51,4.22 0.6,4.52 2.41,1.81 2.71,0.9 4.82,3.92 3.01,3.01 4.05,1.94 z"
     title="Kamuli"
     id="UG-205" />
  <path
     d="m 425.07486,363.56287 0,0 0.87,2.71 2.82,2.81 0.27,4.16 -0.73,4.15 -1.97,3.15 -2.61,2.86 -0.91,4.11 0.08,4 0.03,1.14 -0.1,1.16 -4.49,-0.87 -0.54,-1.8 -1.62,-1.42 -0.49,-2.15 0.25,-2.26 -2.67,-2.45 -0.41,-7.03 0,-5.42 -6.03,-3.32 -3.61,-3.01 0.3,-4.22 1.51,-4.82 -1.09,-5.89 3.38,0.26 1.77,0.6 1.68,0.2 4.04,-2.05 1.07,6.84 1.39,1.87 2.29,0.65 4.71,1.92 0.81,4.12 z"
     title="Iganga"
     id="UG-203" />
  <path
     d="m 355.43486,316.85287 0,0 0.42,1.86 0,2.36 -0.46,2.03 -2.25,1.82 -0.33,2.24 1.9,13.8 1.26,4.03 4.97,7.74 2.01,4.03 1.31,4.43 0.47,4.96 -0.18,4.67 0.17,2.21 3.56,8.37 1.43,1.8 -5.6,-2.84 -1.36,-1.61 -5.19,-6.12 -3.19,-2.52 -5.55,-2.35 -4.08,-3.21 -3.77,-6.14 -3.09,-6.54 -1.7,-12.22 0.41,-12.34 1.36,-10.56 -1.55,-10.5 -0.21,-2.25 0.09,-1.28 -0.11,-1.4 -0.37,-1.13 -0.68,-0.46 -0.99,-0.33 -0.8,-1.52 -1.12,-0.34 -1.91,-1.1 -3.03,-1.06 -0.29,-8.59 12.84,-0.49 2.05,7.68 2.1,4.5 4.36,4.87 0.58,2.13 2.42,2.88 0.96,3.37 3.14,5.12 z"
     title="Kayunga"
     id="UG-112" />
  <path
     d="m 398.09486,229.65287 0,0 0.48,2.14 0.88,1.96 1.95,0.99 1.39,1.32 0.1,4.2 2.75,3.12 1.05,2.16 0.28,2.32 -1.84,3.34 -0.02,1.95 -0.08,2.05 -3.85,2.3 -4.86,3.65 -4.26,1.83 -6.09,0 -0.61,4.56 -0.27,4.12 -3.29,4.56 -0.78,11.37 0.08,9.78 -7.77,-1.01 -3.05,-3 -3.65,-2.57 -5.69,-2.9 -1.76,-0.62 -1.89,0.36 -1.56,-1.16 0.11,-9.25 -2.28,-8.66 3.71,-1.95 1.08,-5.32 3.91,1.59 3.79,-0.25 1.66,-0.64 1.58,-0.87 0.45,-1.19 0.35,-1.5 2.12,-5.99 0.68,-3.42 0.9,-1.01 1.32,-0.52 9.36,-5.82 1.6,-1.8 1.24,-2.12 0.97,-0.76 0.57,-1.09 0.91,-8.35 4.36,0.07 3.97,2.03 z"
     title="Kaberamaido"
     id="UG-213" />
  <path
     d="m 485.56486,270.05287 0,0 1.36,0.09 1.01,0.41 -0.5,7.37 -8.62,2.41 -6.32,1.2 -4.52,2.71 0.6,6.63 -3.01,2.11 -2.11,1.81 0,4.22 0.3,6.02 -4.22,2.41 -3.64,2.7 -1.97,-1.54 -2.89,-0.45 -2.74,-0.77 -2,-1.83 -1.83,-2.14 -2.88,-0.28 -0.72,-7.74 2.41,-3.01 3.92,-1.51 0.6,-6.63 -0.91,-9.94 2.11,-3.62 3.7,-1.38 5.09,1.58 5.19,-1.3 4.95,-0.68 17.64,1.15 z"
     title="Kumi"
     id="UG-208" />
  <path
     d="m 382.48486,369.92287 0,0 5.37,-0.72 3.66,3.12 2.74,1.11 2.53,1.62 0.89,0.73 0.79,0.81 2.33,1.36 0.72,1.84 0.5,1.87 2.95,1.22 3.42,0.22 3,2.05 1.88,-2.29 2.67,2.45 -0.25,2.26 0.49,2.15 1.62,1.42 0.54,1.8 -1.86,3.12 -2.65,2.55 -0.99,2.97 -0.9,2.16 -1.44,0.9 -1.35,0.18 -1.44,0.36 -4.72,2.62 -3.25,0.55 -9.58,-4.21 -2.3,-0.75 -6.07,-1.97 -3.21,-2.4 0.37,-3.74 -0.68,-3.86 -2.4,-3.06 -6.15,-5.16 -1.43,-1.8 -3.56,-8.37 -0.17,-2.21 2.71,1.16 2.28,-1.47 3.22,0.59 0.57,-2.18 2.56,0.19 2.49,-0.55 1.73,0.76 2.37,0.6 z"
     title="Jinja"
     id="UG-204" />
  <path
     d="m 281.21486,456.32287 0,0 14.5,0.15 11,0.34 11.64,0 25.21,0 0,31.12 0,56.24 0,0.01 -12.84,0 -0.17,0 -18.88,0 -19.07,0 -19.05,0 -19.06,0 -0.54,0 0,-0.01 0,-23.79 0,-37.54 2.19,-1.64 2.2,-1.37 2.46,-1.37 1.65,-2.19 -0.27,-2.74 -3.06,-1.28 -0.67,-1.76 -0.9,-1.64 -0.85,-1.16 -0.3,-0.7 -0.11,-0.8 -0.26,-0.68 -0.78,-0.27 -0.88,0.05 -0.62,-0.03 -0.5,-0.4 -0.52,-1.04 0.58,-2.66 0.05,-1.6 -0.95,-0.71 -1.04,0.1 -3.62,1.25 0.92,-4.2 0.5,-1.55 -0.61,-0.11 -1.52,-0.53 1.65,-0.78 2.85,2.35 3.59,0.92 26.08,0.02 z"
     title="Kalangala"
     id="UG-101" />
</svg>
