<?xml version="1.0" encoding="UTF-8" standalone="no"?>
<!-- Created with Inkscape (http://www.inkscape.org/) -->

<svg
   xmlns:dc="http://purl.org/dc/elements/1.1/"
   xmlns:cc="http://creativecommons.org/ns#"
   xmlns:rdf="http://www.w3.org/1999/02/22-rdf-syntax-ns#"
   xmlns:svg="http://www.w3.org/2000/svg"
   xmlns="http://www.w3.org/2000/svg"
   xmlns:sodipodi="http://sodipodi.sourceforge.net/DTD/sodipodi-0.dtd"
   xmlns:inkscape="http://www.inkscape.org/namespaces/inkscape"
   version="1.0"
   width="49.150002"
   height="49.049999"
   sodipodi:version="0.32"
   inkscape:version="0.48.2 r9819"
   sodipodi:docname="wv.svg"
   inkscape:output_extension="org.inkscape.output.svg.inkscape"
   id="svg3048">
  <metadata
     id="metadata3050">
    <rdf:RDF>
      <cc:Work
         rdf:about="">
        <dc:format>image/svg+xml</dc:format>
        <dc:type
           rdf:resource="http://purl.org/dc/dcmitype/StillImage" />
      </cc:Work>
    </rdf:RDF>
  </metadata>
  <defs
     id="defs3052" />
  <sodipodi:namedview
     pagecolor="#ffffff"
     bordercolor="#666666"
     borderopacity="1"
     objecttolerance="10"
     gridtolerance="10"
     guidetolerance="10"
     inkscape:pageopacity="0"
     inkscape:pageshadow="2"
     inkscape:window-width="1366"
     inkscape:window-height="716"
     fit-margin-top="0"
     fit-margin-left="0"
     fit-margin-right="0"
     fit-margin-bottom="0"
     inkscape:zoom="4.5491794"
     inkscape:cx="-31.682406"
     inkscape:cy="12.863723"
     inkscape:window-x="-8"
     inkscape:window-y="-8"
     inkscape:window-maximized="1"
     inkscape:current-layer="svg3048"
     id="namedview3054"
     showgrid="false" />
  <path
     style="font-size:12px;fill:#d0d0d0;fill-opacity:1;fill-rule:nonzero;stroke:#000000;stroke-width:1;stroke-linecap:butt;stroke-linejoin:bevel;stroke-miterlimit:4;stroke-opacity:1;stroke-dasharray:none;marker-start:none"
     d="m 44.374879,10.287764 2.228,1.230001 -0.108,0.609 -0.085,0.18 -0.528,0.802 -0.188,0.126 -0.06,0.137 -0.46,1.188 -0.018,0.077 -0.009,0.2 -2.217,-1.258 0.36,-2.692001 0.023,-0.058 1.062,-0.541"
     id="Berkeley"
     inkscape:connector-curvature="0" />
  <path
     style="font-size:12px;fill:#d0d0d0;fill-rule:nonzero;stroke:#000000;stroke-width:1;stroke-linecap:butt;stroke-linejoin:bevel;stroke-miterlimit:4;stroke-opacity:1;stroke-dasharray:none;marker-start:none"
     d="m 46.602879,11.517765 1.461,2.006 -0.596,2.614 -2.321,-1.301 0.009,-0.2 0.018,-0.077 0.46,-1.188 0.06,-0.137 0.188,-0.126 0.528,-0.802 0.085,-0.18 0.108,-0.609"
     id="Jefferson"
     inkscape:connector-curvature="0" />
  <path
     style="font-size:12px;fill:#d0d0d0;fill-rule:nonzero;stroke:#000000;stroke-width:1;stroke-linecap:butt;stroke-linejoin:bevel;stroke-miterlimit:4;stroke-opacity:1;stroke-dasharray:none;marker-start:none"
     d="m 5.4798788,30.388765 1.848,1.272 0.271,1.275 -1.894,2.186 -2.74,-1.983 1.592,-0.63 0.099,-0.064 0.053,-0.068 0.028,-0.076 0.018,-0.086 0.018,-0.094 0.045,-0.924 0.004,-0.027 0.004,-0.564 0.654,-0.217"
     id="Cabell"
     inkscape:connector-curvature="0" />
  <path
     style="font-size:12px;fill:#d0d0d0;fill-rule:nonzero;stroke:#000000;stroke-width:1;stroke-linecap:butt;stroke-linejoin:bevel;stroke-miterlimit:4;stroke-opacity:1;stroke-dasharray:none;marker-start:none"
     d="m 2.9648788,33.138765 2.74,1.983 -0.082,0.37 0.272,1.108 0.045,0.062 0.346,0.366 0.285,0.717 -0.743,1.109 -0.867,1.217 -1.045,-0.964 0.261,-0.451 0,-0.072 -0.004,-0.01 -0.014,-0.018 -1.586,-1.514 -0.027,-0.008 -0.193,-0.042 -0.181,-0.161 0,-0.01 -0.091,-0.226 -0.04,-0.113 0,-0.004 0.252,-1.103 -0.212,-2.263 0.884,0.027"
     id="Wayne"
     inkscape:connector-curvature="0" />
  <path
     style="font-size:12px;fill:#d0d0d0;fill-rule:nonzero;stroke:#000000;stroke-width:1;stroke-linecap:butt;stroke-linejoin:bevel;stroke-miterlimit:4;stroke-opacity:1;stroke-dasharray:none;marker-start:none"
     d="m 5.8278788,38.853765 1.095,-0.568 -0.042,0.167 0.744,1.511 0.573,1.081 1.217,0.977 0.247,-0.112 0.3430002,-0.15 0.658,-0.053 0.74,0.045 -0.316,1.514 -0.653,0.582 -0.4550002,-0.271 -0.393,0.117 -0.4,0.091 -0.732,-0.266 -0.003,0 -2.052,-1.38 -0.377,-0.581 -0.019,-0.063 0.004,-0.009 -1.046,-1.415 0.867,-1.217"
     id="Mingo"
     inkscape:connector-curvature="0" />
  <path
     style="font-size:12px;fill:#d0d0d0;fill-rule:nonzero;stroke:#000000;stroke-width:1;stroke-linecap:butt;stroke-linejoin:bevel;stroke-miterlimit:4;stroke-opacity:1;stroke-dasharray:none;marker-start:none"
     d="m 9.4058788,37.253765 -0.257,0.28 -0.149,0.225 0,0.067 0.036,0.05 1.2260002,0.261 0.419,-0.045 0.406,0.14 1.429,1.081 0.469,0.366 0.126,0.13 -1.22,0.528 -0.109,0.31 0.553,0.425 -0.427,0.342 -0.505,0.338 -0.74,-0.045 -0.658,0.053 -0.3430002,0.15 -0.247,0.112 -1.217,-0.977 -0.573,-1.081 -0.744,-1.511 0.042,-0.167 2.483,-1.032"
     id="Logan"
     inkscape:connector-curvature="0" />
  <path
     style="font-size:12px;fill:#d0d0d0;fill-rule:nonzero;stroke:#000000;stroke-width:1;stroke-linecap:butt;stroke-linejoin:bevel;stroke-miterlimit:4;stroke-opacity:1;stroke-dasharray:none;marker-start:none"
     d="m 13.110879,39.808765 0.928,-0.175 0.589,0.027 0.358,0.378 1.122,1.461 1.417,1.285 -0.723,1.243 -1.546,-0.356 -1.51,-0.073 -1.275,0.159 -0.875,-0.027 -0.509,-0.465 0.316,-1.514 0.505,-0.338 0.427,-0.342 -0.553,-0.425 0.109,-0.31 1.22,-0.528"
     id="Wyoming"
     inkscape:connector-curvature="0" />
  <path
     style="font-size:12px;fill:#d0d0d0;fill-rule:nonzero;stroke:#000000;stroke-width:1;stroke-linecap:butt;stroke-linejoin:bevel;stroke-miterlimit:4;stroke-opacity:1;stroke-dasharray:none;marker-start:none"
     d="m 11.086879,43.265765 0.509,0.465 0.875,0.027 1.275,-0.159 1.51,0.073 1.546,0.356 -0.339,1.194 -0.374,0.752 -0.883,0.808 -0.008,0.009 -0.442,0.406 -0.032,0.018 -1.181,0.234 -0.675,-0.401 -1.146,-0.414 -0.117,-0.06 -0.004,0 -0.848,-0.739 -0.8700002,-1.235 -0.072,-0.193 0.027,-0.086 0.4550002,-0.41 0.141,-0.063 0.653,-0.582"
     id="McDowell"
     inkscape:connector-curvature="0" />
  <path
     style="font-size:12px;fill:#d0d0d0;fill-rule:nonzero;stroke:#000000;stroke-width:1;stroke-linecap:butt;stroke-linejoin:bevel;stroke-miterlimit:4;stroke-opacity:1;stroke-dasharray:none;marker-start:none"
     d="m 18.644879,41.580765 2.683,1.662 -0.929,1.948 -2.354,1.136 -1.582,-1.105 0.339,-1.194 0.723,-1.243 1.12,-1.204"
     id="Mercer"
     inkscape:connector-curvature="0" />
  <path
     style="font-size:12px;fill:#d0d0d0;fill-rule:nonzero;stroke:#000000;stroke-width:1;stroke-linecap:butt;stroke-linejoin:bevel;stroke-miterlimit:4;stroke-opacity:1;stroke-dasharray:none;marker-start:none"
     d="m 22.665879,39.051765 3.753,-0.095 0.889,0.695 -0.581,0.703 -0.316,0.654 0.23,0.427 -1.153,1.019 -0.293,0.248 -0.483,-0.694 -1.014,0.802 -0.104,0.082 -1.253,0.941 -1.001,-0.573 0.609,-1.811 0.712,-1.956 0.068,-0.23 -0.063,-0.212"
     id="Monroe"
     inkscape:connector-curvature="0" />
  <path
     style="font-size:12px;fill:#d0d0d0;fill-rule:nonzero;stroke:#000000;stroke-width:1;stroke-linecap:butt;stroke-linejoin:bevel;stroke-miterlimit:4;stroke-opacity:1;stroke-dasharray:none;marker-start:none"
     d="m 20.952879,37.518765 1.713,1.533 0.063,0.212 -0.068,0.23 -0.712,1.956 -0.609,1.811 -0.012,-0.018 -2.683,-1.662 0.112,-0.591 0.04,-0.117 0.768,-1.1 0.306,-0.058 0.104,0.018 0.334,0.135 0.102,0.103 0,0.145 0.064,0.014 0.131,-0.1 0.009,-0.04 -0.014,-0.086 -0.338,-1.032 -0.388,-0.397 -0.126,-0.077 -0.081,-0.017 1.285,-0.862"
     id="Summers"
     inkscape:connector-curvature="0" />
  <path
     style="font-size:12px;fill:#d0d0d0;fill-rule:nonzero;stroke:#000000;stroke-width:1;stroke-linecap:butt;stroke-linejoin:bevel;stroke-miterlimit:4;stroke-opacity:1;stroke-dasharray:none;marker-start:none"
     d="m 14.223879,37.023765 0.793,0.117 0.951,0.852 0.064,0.041 2.257,0.031 1.379,0.316 0.081,0.017 0.126,0.077 0.388,0.397 0.338,1.032 0.014,0.086 -0.009,0.04 -0.131,0.1 -0.064,-0.014 0,-0.145 -0.102,-0.103 -0.334,-0.135 -0.104,-0.018 -0.306,0.058 -0.768,1.1 -0.04,0.117 -0.112,0.591 -1.12,1.204 -1.417,-1.285 -1.122,-1.461 -0.358,-0.378 -0.589,-0.027 0.185,-2.61"
     id="Raleigh"
     inkscape:connector-curvature="0" />
  <path
     style="font-size:12px;fill:#d0d0d0;fill-rule:nonzero;stroke:#000000;stroke-width:1;stroke-linecap:butt;stroke-linejoin:bevel;stroke-miterlimit:4;stroke-opacity:1;stroke-dasharray:none;marker-start:none"
     d="m 14.223879,37.023765 -0.185,2.61 -0.928,0.175 -0.126,-0.13 -0.469,-0.366 -1.429,-1.081 -0.406,-0.14 -0.419,0.045 -1.2260002,-0.261 -0.036,-0.05 0,-0.067 0.149,-0.225 0.257,-0.28 0.6300002,-2.515 1.078,-0.334 0.261,-0.071 0.207,0.013 1.722,1.126 0.739,1.1 0.181,0.451"
     id="Boone"
     inkscape:connector-curvature="0" />
  <path
     style="font-size:12px;fill:#d0d0d0;fill-rule:nonzero;stroke:#000000;stroke-width:1;stroke-linecap:butt;stroke-linejoin:bevel;stroke-miterlimit:4;stroke-opacity:1;stroke-dasharray:none;marker-start:none"
     d="m 7.5988788,32.935765 1.401,0.433 1.0360002,1.37 -0.6300002,2.515 -2.483,1.032 -1.095,0.568 0.743,-1.109 -0.285,-0.717 -0.346,-0.366 -0.045,-0.062 -0.272,-1.108 0.082,-0.37 1.894,-2.186"
     id="Lincoln"
     inkscape:connector-curvature="0" />
  <path
     style="font-size:12px;fill:#d0d0d0;fill-rule:nonzero;stroke:#000000;stroke-width:1;stroke-linecap:butt;stroke-linejoin:bevel;stroke-miterlimit:4;stroke-opacity:1;stroke-dasharray:none;marker-start:none"
     d="m 10.586879,29.172765 -0.487,0.685 -1.0910002,2.551 -0.009,0.96 -1.401,-0.433 -0.271,-1.275 -0.347,-1.704 0.982,-0.793 1.763,-0.572 0.8610002,0.581"
     id="Putnam"
     inkscape:connector-curvature="0" />
  <path
     style="font-size:12px;fill:#d0d0d0;fill-rule:nonzero;stroke:#000000;stroke-width:1;stroke-linecap:butt;stroke-linejoin:bevel;stroke-miterlimit:4;stroke-opacity:1;stroke-dasharray:none;marker-start:none"
     d="m 8.0038788,26.252765 -0.014,0.031 0.099,0.153 1.353,1.509 0.284,0.646 -1.763,0.572 -0.982,0.793 0.347,1.704 -1.848,-1.272 0.189,-0.041 0.059,-0.012 0.022,-0.024 0.056,-0.045 0.025,-0.027 0.041,-0.067 0.013,-0.063 0.005,-0.076 0.005,-0.045 0,-0.018 -0.014,-0.09 -0.258,-1.051 -0.003,-0.004 0.13,-2.083 0.226,-1.235 0.031,-0.18 0.46,-0.779 0.171,-0.09 0.153,0.008 0.005,0 0.73,0.398 0.195,0.242 0.247,0.37 0.036,0.1 0,0.676"
     id="Mason"
     inkscape:connector-curvature="0" />
  <path
     style="font-size:12px;fill:#d0d0d0;fill-rule:nonzero;stroke:#000000;stroke-width:1;stroke-linecap:butt;stroke-linejoin:bevel;stroke-miterlimit:4;stroke-opacity:1;stroke-dasharray:none;marker-start:none"
     d="m 10.937879,23.862765 0.986,1.276 0.411,3.949 -1.748,0.085 -0.8610002,-0.581 -0.284,-0.646 -1.353,-1.509 -0.099,-0.153 0.014,-0.031 0.329,-0.086 1.045,-0.744 0.024,-0.108 -0.24,-1.038 -0.108,-0.126 -0.226,-0.151 -0.112,-0.082 -0.108,-0.141 -0.049,-0.176 0,-0.112 0.612,-0.266 1.7670002,0.64"
     id="Jackson"
     inkscape:connector-curvature="0" />
  <path
     style="font-size:12px;fill:#d0d0d0;fill-rule:nonzero;stroke:#000000;stroke-width:1;stroke-linecap:butt;stroke-linejoin:bevel;stroke-miterlimit:4;stroke-opacity:1;stroke-dasharray:none;marker-start:none"
     d="m 10.586879,29.172765 1.748,-0.085 0.686,0.743 2.46,-0.167 0.27,0.013 -0.774,0.852 0.486,1.199 0.451,1.397 -0.004,0.005 -0.893,4.011 -0.793,-0.117 -0.181,-0.451 -0.739,-1.1 -1.722,-1.126 -0.207,-0.013 -0.261,0.071 -1.078,0.334 -1.0360002,-1.37 0.009,-0.96 1.0910002,-2.551 0.487,-0.685"
     id="Kanawha"
     inkscape:connector-curvature="0" />
  <path
     style="font-size:12px;fill:#d0d0d0;fill-rule:nonzero;stroke:#000000;stroke-width:1;stroke-linecap:butt;stroke-linejoin:bevel;stroke-miterlimit:4;stroke-opacity:1;stroke-dasharray:none;marker-start:none"
     d="m 19.717879,34.630765 1.235,2.888 -1.285,0.862 -1.379,-0.316 -2.257,-0.031 -0.064,-0.041 -0.951,-0.852 0.893,-4.011 0.847,0.356 0.812,0.257 0.072,0 0.04,-0.036 -0.011,-0.176 0.209,-0.23 0.576,-0.036 0.16,0.063 0.296,0.244 0.807,1.059"
     id="Fayette"
     inkscape:connector-curvature="0" />
  <path
     style="font-size:12px;fill:#d0d0d0;fill-rule:nonzero;stroke:#000000;stroke-width:1;stroke-linecap:butt;stroke-linejoin:bevel;stroke-miterlimit:4;stroke-opacity:1;stroke-dasharray:none;marker-start:none"
     d="m 16.670879,28.419765 0.403,-0.797 1.815,1.829 0.581,0.072 0.108,0.19 -0.797,0.968 -2.867,2.443 -0.451,-1.397 -0.486,-1.199 0.774,-0.852 0.92,-1.257"
     id="Clay"
     inkscape:connector-curvature="0" />
  <path
     style="font-size:12px;fill:#d0d0d0;fill-rule:nonzero;stroke:#000000;stroke-width:1;stroke-linecap:butt;stroke-linejoin:bevel;stroke-miterlimit:4;stroke-opacity:1;stroke-dasharray:none;marker-start:none"
     d="m 11.923879,25.138765 0.858,-0.172 0.752,0.211 0.61,-0.347 0.706,0.826 0.122,0.577 0.897,1.893 0.802,0.293 -0.92,1.257 -0.27,-0.013 -2.46,0.167 -0.686,-0.743 -0.411,-3.949"
     id="Roane"
     inkscape:connector-curvature="0" />
  <path
     style="font-size:12px;fill:#d0d0d0;fill-rule:nonzero;stroke:#000000;stroke-width:1;stroke-linecap:butt;stroke-linejoin:bevel;stroke-miterlimit:4;stroke-opacity:1;stroke-dasharray:none;marker-start:none"
     d="m 16.355879,23.236765 0.343,0.491 0.053,0.085 0.243,1.47 0.438,1.622 -0.359,0.718 -0.403,0.797 -0.802,-0.293 -0.897,-1.893 -0.122,-0.577 -0.706,-0.826 0.905,-1.662 1.307,0.068"
     id="Calhoun"
     inkscape:connector-curvature="0" />
  <path
     style="font-size:12px;fill:#d0d0d0;fill-rule:nonzero;stroke:#000000;stroke-width:1;stroke-linecap:butt;stroke-linejoin:bevel;stroke-miterlimit:4;stroke-opacity:1;stroke-dasharray:none;marker-start:none"
     d="m 13.408879,21.388765 1.64,1.78 -0.905,1.662 -0.61,0.347 -0.752,-0.211 -0.858,0.172 -0.986,-1.276 2.471,-2.474"
     id="Wirt"
     inkscape:connector-curvature="0" />
  <path
     style="font-size:12px;fill:#d0d0d0;fill-rule:nonzero;stroke:#000000;stroke-width:1;stroke-linecap:butt;stroke-linejoin:bevel;stroke-miterlimit:4;stroke-opacity:1;stroke-dasharray:none;marker-start:none"
     d="m 12.373879,19.486765 1.44,0.748 -0.405,1.154 -2.471,2.474 -1.7670002,-0.64 -0.184,-1.081 0.405,-0.893 1.2890002,-1.641 0.627,-0.766 0.103,-0.089 0.09,-0.028 0.113,0.009 0.253,0.14 0.072,0.077 0.435,0.536"
     id="Wood"
     inkscape:connector-curvature="0" />
  <path
     style="font-size:12px;fill:#d0d0d0;fill-rule:nonzero;stroke:#000000;stroke-width:1;stroke-linecap:butt;stroke-linejoin:bevel;stroke-miterlimit:4;stroke-opacity:1;stroke-dasharray:none;marker-start:none"
     d="m 15.913879,18.815765 -0.694,0.391 -1.275,0.487 -0.059,0.091 -0.04,0.171 -0.032,0.279 -1.44,-0.748 1.981,-1.699 1.559,1.028"
     id="Pleasants"
     inkscape:connector-curvature="0" />
  <path
     style="font-size:12px;fill:#d0d0d0;fill-rule:nonzero;stroke:#000000;stroke-width:1;stroke-linecap:butt;stroke-linejoin:bevel;stroke-miterlimit:4;stroke-opacity:1;stroke-dasharray:none;marker-start:none"
     d="m 15.913879,18.815765 1.281,0.54 1.126,2.253 -1.965,1.628 -1.307,-0.068 -1.64,-1.78 0.405,-1.154 0.032,-0.279 0.04,-0.171 0.059,-0.091 1.275,-0.487 0.694,-0.391"
     id="Ritchie"
     inkscape:connector-curvature="0" />
  <path
     style="font-size:12px;fill:#d0d0d0;fill-rule:nonzero;stroke:#000000;stroke-width:1;stroke-linecap:butt;stroke-linejoin:bevel;stroke-miterlimit:4;stroke-opacity:1;stroke-dasharray:none;marker-start:none"
     d="m 18.320879,21.608765 0.856,0.042 1.605,2.262 -0.033,-0.004 -0.102,0.049 -0.487,0.253 -0.269,0.179 -1.498,1.556 -0.96,0.959 -0.438,-1.622 -0.243,-1.47 -0.053,-0.085 -0.343,-0.491 1.965,-1.628"
     id="Gilmer"
     inkscape:connector-curvature="0" />
  <path
     style="font-size:12px;fill:#d0d0d0;fill-rule:nonzero;stroke:#000000;stroke-width:1;stroke-linecap:butt;stroke-linejoin:bevel;stroke-miterlimit:4;stroke-opacity:1;stroke-dasharray:none;marker-start:none"
     d="m 20.781879,23.912765 0.194,0.419 0.117,0.127 0.54,-0.113 0.596,0.266 0.374,0.783 0.026,0.244 -0.041,0.149 -1.458,3.042 -2.241,0.622 -1.815,-1.829 0.359,-0.718 0.96,-0.959 1.498,-1.556 0.269,-0.179 0.487,-0.253 0.102,-0.049 0.033,0.004"
     id="Braxton"
     inkscape:connector-curvature="0" />
  <path
     style="font-size:12px;fill:#d0d0d0;fill-rule:nonzero;stroke:#000000;stroke-width:1;stroke-linecap:butt;stroke-linejoin:bevel;stroke-miterlimit:4;stroke-opacity:1;stroke-dasharray:none;marker-start:none"
     d="m 21.129879,28.829765 -0.195,0.379 0.441,0.987 0.515,0.726 1.906,0.887 -0.811,1.037 -1.344,1.631 -0.189,0.195 -1.735,-0.041 -0.807,-1.059 -0.296,-0.244 -0.16,-0.063 -0.576,0.036 -0.209,0.23 0.011,0.176 -0.04,0.036 -0.072,0 -0.812,-0.257 -0.847,-0.356 0.004,-0.005 2.867,-2.443 0.797,-0.968 -0.108,-0.19 -0.581,-0.072 2.241,-0.622"
     id="Nicholas"
     inkscape:connector-curvature="0" />
  <path
     style="font-size:12px;fill:#d0d0d0;fill-rule:nonzero;stroke:#000000;stroke-width:1;stroke-linecap:butt;stroke-linejoin:bevel;stroke-miterlimit:4;stroke-opacity:1;stroke-dasharray:none;marker-start:none"
     d="m 24.643879,32.214765 0.204,1.438 1.127,0.703 0.553,0.031 0.419,-0.057 0.573,-0.357 1.446,-0.347 -0.698,1.591 -1.849,3.74 -3.753,0.095 -1.713,-1.533 -1.235,-2.888 1.735,0.041 0.189,-0.195 1.344,-1.631 0.811,-1.037 0.847,0.406"
     id="Greenbrier"
     inkscape:connector-curvature="0" />
  <path
     style="font-size:12px;fill:#d0d0d0;fill-rule:nonzero;stroke:#000000;stroke-width:1;stroke-linecap:butt;stroke-linejoin:bevel;stroke-miterlimit:4;stroke-opacity:1;stroke-dasharray:none;marker-start:none"
     d="m 22.587879,25.787765 0.663,0.05 1.18,0.229 1.313,2.015 -0.316,1.856 -0.725,0.817 -0.24,-0.085 0.181,1.545 -0.847,-0.406 -1.906,-0.887 -0.515,-0.726 -0.441,-0.987 0.195,-0.379 1.458,-3.042"
     id="Webster"
     inkscape:connector-curvature="0" />
  <path
     style="font-size:12px;fill:#d0d0d0;fill-rule:nonzero;stroke:#000000;stroke-width:1;stroke-linecap:butt;stroke-linejoin:bevel;stroke-miterlimit:4;stroke-opacity:1;stroke-dasharray:none;marker-start:none"
     d="m 23.359879,20.856765 0.693,-0.234 1.754,1.887 0.1,1.39 -0.069,1.261 -1.086,0.208 -0.321,0.698 -1.18,-0.229 -0.253,-0.496 -0.003,-1.406 0.009,-0.135 0.035,-0.042 0.068,-0.012 0.185,-0.398 0.162,-0.547 -0.053,-1.394 -0.041,-0.551"
     id="Upshur"
     inkscape:connector-curvature="0" />
  <path
     style="font-size:12px;fill:#d0d0d0;fill-rule:nonzero;stroke:#000000;stroke-width:1;stroke-linecap:butt;stroke-linejoin:bevel;stroke-miterlimit:4;stroke-opacity:1;stroke-dasharray:none;marker-start:none"
     d="m 20.326879,20.523765 3.033,0.333 0.041,0.551 0.053,1.394 -0.162,0.547 -0.185,0.398 -0.068,0.012 -0.035,0.042 -0.009,0.135 0.003,1.406 0.253,0.496 -0.663,-0.05 0.041,-0.149 -0.026,-0.244 -0.374,-0.783 -0.596,-0.266 -0.54,0.113 -0.117,-0.127 -0.194,-0.419 -1.605,-2.262 1.15,-1.127"
     id="Lewis"
     inkscape:connector-curvature="0" />
  <path
     style="font-size:12px;fill:#d0d0d0;fill-rule:nonzero;stroke:#000000;stroke-width:1;stroke-linecap:butt;stroke-linejoin:bevel;stroke-miterlimit:4;stroke-opacity:1;stroke-dasharray:none;marker-start:none"
     d="m 19.509879,16.926765 0.767,0.153 0.05,3.444 -1.15,1.127 -0.856,-0.042 -1.126,-2.253 2.315,-2.429"
     id="Doddridge"
     inkscape:connector-curvature="0" />
  <path
     style="font-size:12px;fill:#d0d0d0;fill-rule:nonzero;stroke:#000000;stroke-width:1;stroke-linecap:butt;stroke-linejoin:bevel;stroke-miterlimit:4;stroke-opacity:1;stroke-dasharray:none;marker-start:none"
     d="m 16.012879,15.429765 3.497,1.497 -2.315,2.429 -1.281,-0.54 -1.559,-1.028 0.869,-1.357 0.789,-1.001"
     id="Tyler"
     inkscape:connector-curvature="0" />
  <path
     style="font-size:12px;fill:#d0d0d0;fill-rule:nonzero;stroke:#000000;stroke-width:1;stroke-linecap:butt;stroke-linejoin:bevel;stroke-miterlimit:4;stroke-opacity:1;stroke-dasharray:none;marker-start:none"
     d="m 20.686879,16.479765 3.06,0.5 0.627,1.885 -0.321,1.758 -0.693,0.234 -3.033,-0.333 -0.05,-3.444 0.41,-0.6"
     id="Harrison"
     inkscape:connector-curvature="0" />
  <path
     style="font-size:12px;fill:#d0d0d0;fill-rule:nonzero;stroke:#000000;stroke-width:1;stroke-linecap:butt;stroke-linejoin:bevel;stroke-miterlimit:4;stroke-opacity:1;stroke-dasharray:none;marker-start:none"
     d="m 17.978879,1.5257637 0.342,2.0690001 0.171,1.005 -0.947,0.217 -0.878,-2.336 1.312,-0.9550001"
     id="Hancock"
     inkscape:connector-curvature="0" />
  <path
     style="font-size:12px;fill:#d0d0d0;fill-rule:nonzero;stroke:#000000;stroke-width:1;stroke-linecap:butt;stroke-linejoin:bevel;stroke-miterlimit:4;stroke-opacity:1;stroke-dasharray:none;marker-start:none"
     d="m 18.491879,4.5997638 0.498,3.07 -1.67,-0.086 0.225,-2.767 0.947,-0.217"
     id="Brooke"
     inkscape:connector-curvature="0" />
  <path
     style="font-size:12px;fill:#d0d0d0;fill-rule:nonzero;stroke:#000000;stroke-width:1;stroke-linecap:butt;stroke-linejoin:bevel;stroke-miterlimit:4;stroke-opacity:1;stroke-dasharray:none;marker-start:none"
     d="m 17.319879,7.5837638 1.67,0.086 0.3,1.8380001 -2.1,0.122 0.026,-1.6410001 0.104,-0.405"
     id="Ohio"
     inkscape:connector-curvature="0" />
  <path
     style="font-size:12px;fill:#d0d0d0;fill-rule:nonzero;stroke:#000000;stroke-width:1;stroke-linecap:butt;stroke-linejoin:bevel;stroke-miterlimit:4;stroke-opacity:1;stroke-dasharray:none;marker-start:none"
     d="m 19.289879,9.5077639 0.618,3.7820011 -3.007,0.5 -0.108,-1.735 0.397,-2.4250011 2.1,-0.122"
     id="Marshall"
     inkscape:connector-curvature="0" />
  <path
     style="font-size:12px;fill:#d0d0d0;fill-rule:nonzero;stroke:#000000;stroke-width:1;stroke-linecap:butt;stroke-linejoin:bevel;stroke-miterlimit:4;stroke-opacity:1;stroke-dasharray:none;marker-start:none"
     d="m 20.862879,13.135765 0.423,1.037 -0.599,2.307 -0.41,0.6 -0.767,-0.153 -3.497,-1.497 0.888,-1.64 3.007,-0.5 0.955,-0.154"
     id="Wetzel"
     inkscape:connector-curvature="0" />
  <path
     style="font-size:12px;fill:#d0d0d0;fill-rule:nonzero;stroke:#000000;stroke-width:1;stroke-linecap:butt;stroke-linejoin:bevel;stroke-miterlimit:4;stroke-opacity:1;stroke-dasharray:none;marker-start:none"
     d="m 21.285879,14.172765 0.528,0.249 1.889,-0.299 0.77,0.591 0.491,0.433 1.172,0.645 -2.389,1.188 -3.06,-0.5 0.599,-2.307"
     id="Marion"
     inkscape:connector-curvature="0" />
  <path
     style="font-size:12px;fill:#d0d0d0;fill-rule:nonzero;stroke:#000000;stroke-width:1;stroke-linecap:butt;stroke-linejoin:bevel;stroke-miterlimit:4;stroke-opacity:1;stroke-dasharray:none;marker-start:none"
     d="m 27.883879,18.417765 0.105,1.497 -0.195,0.311 -0.036,0.09 -0.121,1.068 -0.009,0.375 -0.027,0.103 -1.794,0.648 -1.754,-1.887 0.321,-1.758 2.524,-1.186 0.986,0.739"
     id="Barbour"
     inkscape:connector-curvature="0" />
  <path
     style="font-size:12px;fill:#d0d0d0;fill-rule:nonzero;stroke:#000000;stroke-width:1;stroke-linecap:butt;stroke-linejoin:bevel;stroke-miterlimit:4;stroke-opacity:1;stroke-dasharray:none;marker-start:none"
     d="m 26.135879,15.791765 0.469,0.143 0.293,1.744 -2.524,1.186 -0.627,-1.885 2.389,-1.188"
     id="Taylor"
     inkscape:connector-curvature="0" />
  <path
     style="font-size:12px;fill:#d0d0d0;fill-rule:nonzero;stroke:#000000;stroke-width:1;stroke-linecap:butt;stroke-linejoin:bevel;stroke-miterlimit:4;stroke-opacity:1;stroke-dasharray:none;marker-start:none"
     d="m 27.247879,12.063765 0.055,0.306 -0.085,0.977 -0.763,2.002 0.15,0.586 -0.469,-0.143 -1.172,-0.645 -0.491,-0.433 -0.77,-0.591 -1.889,0.299 -0.528,-0.249 -0.423,-1.037 4.908,-0.82 1.477,-0.252"
     id="Monongalia"
     inkscape:connector-curvature="0" />
  <path
     style="font-size:12px;fill:#d0d0d0;fill-rule:nonzero;stroke:#000000;stroke-width:1;stroke-linecap:butt;stroke-linejoin:bevel;stroke-miterlimit:4;stroke-opacity:1;stroke-dasharray:none;marker-start:none"
     d="m 30.936879,25.364765 -0.06,0.968 -0.017,1.068 -0.05,0.911 -0.266,0.947 -0.617,0.959 -0.005,0.045 0,0.014 0.243,0.491 -1.199,2.858 -1.446,0.347 -0.573,0.357 -0.419,0.057 -0.553,-0.031 -1.127,-0.703 -0.204,-1.438 -0.181,-1.545 0.24,0.085 0.725,-0.817 0.906,-1.081 1.091,-0.185 1.429,-1.451 0.067,-1.038 0.032,-0.224 0.297,-1.271 0.054,-0.041 0.217,0.041 1.38,0.488 0.036,0.189"
     id="Pocahontas"
     inkscape:connector-curvature="0" />
  <path
     style="font-size:12px;fill:#d0d0d0;fill-rule:nonzero;stroke:#000000;stroke-width:1;stroke-linecap:butt;stroke-linejoin:bevel;stroke-miterlimit:4;stroke-opacity:1;stroke-dasharray:none;marker-start:none"
     d="m 30.038879,11.571765 1.059,6.612 0.019,0.145 -0.248,-0.239 -1.875,-0.401 -1.11,0.729 -0.986,-0.739 -0.293,-1.744 -0.15,-0.586 0.763,-2.002 0.085,-0.977 -0.055,-0.306 2.791,-0.492"
     id="Preston"
     inkscape:connector-curvature="0" />
  <path
     style="font-size:12px;fill:#d0d0d0;fill-rule:nonzero;stroke:#000000;stroke-width:1;stroke-linecap:butt;stroke-linejoin:bevel;stroke-miterlimit:4;stroke-opacity:1;stroke-dasharray:none;marker-start:none"
     d="m 32.905879,21.054765 0.094,0.078 -0.892,0.734 -0.495,0.613 -0.208,0.446 0,0.018 0.175,0.329 0.081,0.036 0.15,0.117 0.027,0.073 -0.018,0.176 -0.159,0.459 -0.509,0.982 -0.215,0.249 -0.036,-0.189 -1.38,-0.488 -0.217,-0.041 -0.054,0.041 -0.297,1.271 -0.032,0.224 -0.067,1.038 -1.429,1.451 -1.091,0.185 -0.906,1.081 0.316,-1.856 -1.313,-2.015 0.321,-0.698 1.086,-0.208 0.069,-1.261 -0.1,-1.39 1.794,-0.648 0.027,-0.103 0.009,-0.375 0.121,-1.068 0.036,-0.09 0.195,-0.311 0.586,0.902 2.955,0.311 1.376,-0.073"
     id="Randolph"
     inkscape:connector-curvature="0" />
  <path
     style="font-size:12px;fill:#d0d0d0;fill-rule:nonzero;stroke:#000000;stroke-width:1;stroke-linecap:butt;stroke-linejoin:bevel;stroke-miterlimit:4;stroke-opacity:1;stroke-dasharray:none;marker-start:none"
     d="m 32.999879,21.132765 2.444,1.464 0.874,0.532 -1.014,3.913 -0.699,1.009 -1.727,-0.293 -0.612,-0.907 -0.189,-0.189 -0.203,-0.09 -0.997,-0.239 0.06,-0.968 0.215,-0.249 0.509,-0.982 0.159,-0.459 0.018,-0.176 -0.027,-0.073 -0.15,-0.117 -0.081,-0.036 -0.175,-0.329 0,-0.018 0.208,-0.446 0.495,-0.613 0.892,-0.734"
     id="Pendleton"
     inkscape:connector-curvature="0" />
  <path
     style="font-size:12px;fill:#d0d0d0;fill-rule:nonzero;stroke:#000000;stroke-width:1;stroke-linecap:butt;stroke-linejoin:bevel;stroke-miterlimit:4;stroke-opacity:1;stroke-dasharray:none;marker-start:none"
     d="m 27.883879,18.417765 1.11,-0.729 1.875,0.401 0.248,0.239 0.923,-0.171 0.708,0.473 0.496,0.928 0.004,0.348 -0.022,0.368 -0.1,0.438 -0.22,0.342 -1.376,0.073 -2.955,-0.311 -0.586,-0.902 -0.105,-1.497"
     id="Tucker"
     inkscape:connector-curvature="0" />
  <path
     style="font-size:12px;fill:#d0d0d0;fill-rule:nonzero;stroke:#000000;stroke-width:1;stroke-linecap:butt;stroke-linejoin:bevel;stroke-miterlimit:4;stroke-opacity:1;stroke-dasharray:none;marker-start:none"
     d="m 32.711879,16.246765 3.263,0.653 -0.055,0.135 -0.265,1.051 -0.294,1.558 0.155,0.447 0.283,1.326 -0.355,1.18 -2.444,-1.464 -0.094,-0.078 0.22,-0.342 0.1,-0.438 0.022,-0.368 -0.004,-0.348 -0.496,-0.928 -0.708,-0.473 -0.923,0.171 -0.019,-0.145 1.614,-1.937"
     id="Grant"
     inkscape:connector-curvature="0" />
  <path
     style="font-size:12px;fill:#d0d0d0;fill-rule:nonzero;stroke:#000000;stroke-width:1;stroke-linecap:butt;stroke-linejoin:bevel;stroke-miterlimit:4;stroke-opacity:1;stroke-dasharray:none;marker-start:none"
     d="m 35.974879,16.899765 0.883,0.352 1.492,0.283 0.893,0.099 0.622,-0.099 0.083,-0.063 0.363,0.036 0.266,0.163 0.356,0.288 -0.276,0.473 -0.008,0.492 -0.018,0.09 -0.316,0.699 -0.946,0.892 -0.032,-0.005 -0.041,-0.063 -0.04,-0.067 -0.514,0.487 -0.044,0.071 -0.023,0.036 -0.131,0.406 -0.383,1.303 -1.843,0.356 -0.874,-0.532 0.355,-1.18 -0.283,-1.326 -0.155,-0.447 0.294,-1.558 0.265,-1.051 0.055,-0.135"
     id="Hardy"
     inkscape:connector-curvature="0" />
  <path
     style="font-size:12px;fill:#d0d0d0;fill-rule:nonzero;stroke:#000000;stroke-width:1;stroke-linecap:butt;stroke-linejoin:bevel;stroke-miterlimit:4;stroke-opacity:1;stroke-dasharray:none;marker-start:none"
     d="m 38.417879,12.518765 -2.443,4.381 -3.263,-0.653 1.834,-2.213 1.064,0.239 1.618,-2.227 1.19,0.473"
     id="Mineral"
     inkscape:connector-curvature="0" />
  <path
     style="font-size:12px;fill:#d0d0d0;fill-rule:nonzero;stroke:#000000;stroke-width:1;stroke-linecap:butt;stroke-linejoin:bevel;stroke-miterlimit:4;stroke-opacity:1;stroke-dasharray:none;marker-start:none"
     d="m 38.417879,12.518765 1.879,-0.103 1.303,0.428 0.113,1.411 -0.027,2.46 -0.036,0.208 -0.15,0.351 -0.152,0.278 -0.303,0.299 -0.112,0.108 -0.356,-0.288 -0.266,-0.163 -0.363,-0.036 -0.083,0.063 -0.622,0.099 -0.893,-0.099 -1.492,-0.283 -0.883,-0.352 2.443,-4.381"
     id="Hampshire"
     inkscape:connector-curvature="0" />
  <path
     style="font-size:12px;fill:#d0d0d0;fill-rule:nonzero;stroke:#000000;stroke-width:1;stroke-linecap:butt;stroke-linejoin:bevel;stroke-miterlimit:4;stroke-opacity:1;stroke-dasharray:none;marker-start:none"
     d="m 41.328879,10.648764 0.523,0.104 0.117,-0.014 0.348,-0.641 0.256,-0.4050001 0.068,-0.077 0.059,-0.022 0.334,0.009 0.364,0.04 0.361,0.135 0.45,0.3260001 0.166,0.184 -1.062,0.541 -0.023,0.058 -0.36,2.692001 -1.33,-0.735 -1.303,-0.428 1.032,-1.767001"
     id="Morgan"
     inkscape:connector-curvature="0" />
</svg>
