<?xml version="1.0" encoding="UTF-8" standalone="no"?>
<!-- Created with Inkscape (http://www.inkscape.org/) -->

<svg
   xmlns:dc="http://purl.org/dc/elements/1.1/"
   xmlns:cc="http://creativecommons.org/ns#"
   xmlns:rdf="http://www.w3.org/1999/02/22-rdf-syntax-ns#"
   xmlns:svg="http://www.w3.org/2000/svg"
   xmlns="http://www.w3.org/2000/svg"
   xmlns:sodipodi="http://sodipodi.sourceforge.net/DTD/sodipodi-0.dtd"
   xmlns:inkscape="http://www.inkscape.org/namespaces/inkscape"
   version="1.0"
   width="71.550003"
   height="79.769997"
   sodipodi:version="0.32"
   inkscape:version="0.48.2 r9819"
   sodipodi:docname="mn.svg"
   inkscape:output_extension="org.inkscape.output.svg.inkscape"
   id="svg3080">
  <metadata
     id="metadata3082">
    <rdf:RDF>
      <cc:Work
         rdf:about="">
        <dc:format>image/svg+xml</dc:format>
        <dc:type
           rdf:resource="http://purl.org/dc/dcmitype/StillImage" />
      </cc:Work>
    </rdf:RDF>
  </metadata>
  <defs
     id="defs3084" />
  <sodipodi:namedview
     pagecolor="#ffffff"
     bordercolor="#666666"
     borderopacity="1"
     objecttolerance="10"
     gridtolerance="10"
     guidetolerance="10"
     inkscape:pageopacity="0"
     inkscape:pageshadow="2"
     inkscape:window-width="1366"
     inkscape:window-height="716"
     fit-margin-top="0"
     fit-margin-left="0"
     fit-margin-right="0"
     fit-margin-bottom="0"
     inkscape:zoom="4.5491794"
     inkscape:cx="-7.41673"
     inkscape:cy="44.459077"
     inkscape:window-x="-8"
     inkscape:window-y="-8"
     inkscape:window-maximized="1"
     inkscape:current-layer="svg3080"
     id="namedview3086"
     showgrid="false" />
  <path
     style="font-size:12px;fill:#d0d0d0;fill-rule:nonzero;stroke:#000000;stroke-width:1;stroke-linecap:butt;stroke-linejoin:bevel;stroke-miterlimit:4;stroke-opacity:1;stroke-dasharray:none;marker-start:none"
     d="m 56.926518,71.929321 0.226,1.559 0.617,2.889 -3.668,0.176 -1.113,0.05 -0.204,-4.476 4.142,-0.198"
     id="Houston"
     inkscape:connector-curvature="0" />
  <path
     style="font-size:12px;fill:#d0d0d0;fill-rule:nonzero;stroke:#000000;stroke-width:1;stroke-linecap:butt;stroke-linejoin:bevel;stroke-miterlimit:4;stroke-opacity:1;stroke-dasharray:none;marker-start:none"
     d="m 49.548518,72.262321 3.236,-0.135 0.204,4.476 -3.264,0.139 -3.438,0.14 -0.163,-4.313 3.425,-0.307"
     id="Fillmore"
     inkscape:connector-curvature="0" />
  <path
     style="font-size:12px;fill:#d0d0d0;fill-rule:nonzero;stroke:#000000;stroke-width:1;stroke-linecap:butt;stroke-linejoin:bevel;stroke-miterlimit:4;stroke-opacity:1;stroke-dasharray:none;marker-start:none"
     d="m 26.770518,14.747321 -0.086,-4.335999 0.121,-0.049 0.235,-0.018 0.694,0.009 0.154,0.027 0.265,0.144 0.081,0.162 0.005,0.086 0.009,0.257 0,0.005 0.053,0.036 0.177,0.045 0.847,0.049 0.635,-0.009 1.834,0.158 0.055,0.045 0.108,0.198 0.144,0.401999 0.018,0.116 -0.045,0.334 -0.058,0.099 0,0.059 0.031,0.045 0.181,0.131 0.329,0 0.815,-0.027 1.014,-0.194 0.663,-0.23 0.054,-0.063 0.031,-0.144 -0.003,-0.072 -0.042,-0.086 -0.045,-0.166999 0.015,-0.059 1,-0.468 0.793,-0.23 0.41,-0.009 0.243,0.216 0.307,-0.009 0.018,0 0.464,-0.049 0.049,2.717999 0.024,2.199 0.075,2.231 0.087,0.586 0.098,1.172 0.019,0.491 -6.072,0.072 0.014,0.672 -5.62,0.121 -0.198,-6.666"
     id="Koochiching"
     inkscape:connector-curvature="0" />
  <path
     style="font-size:12px;fill:#d0d0d0;fill-rule:nonzero;stroke:#000000;stroke-width:1;stroke-linecap:butt;stroke-linejoin:bevel;stroke-miterlimit:4;stroke-opacity:1;stroke-dasharray:none;marker-start:none"
     d="m 18.949518,6.7833241 1.456,-0.013 -0.017,-2.366 -0.009,-0.83 -0.009,-1.3290001 -0.005,-0.365 0,-0.014 1.677,0.163 0.414,0.247 0.731,0.519 0.468,2.3880001 0.217,1.537 0.549,2.8219991 0.401,0.365 0.139,0.1259988 0.574,0.32 0.247,0.136 0.014,0.013 0.122,0.009 0.436,0.045 0.33,-0.145 0.086,4.335999 -6.788,0.104 -0.027,-2.222 -1.132,0.005 -0.013,-2.204999 2.181,-0.018 -0.04,-2.6489979 -0.212,0.2200001 -0.19,0.113 -0.085,0.036 -0.671,0.14 -0.099,0 -0.145,-0.036 -0.397,-0.244 -0.189,-0.3650001 -0.036,-0.622 0.022,-0.221"
     id="Lake of the Woods"
     inkscape:connector-curvature="0" />
  <path
     style="font-size:12px;fill:#d0d0d0;fill-rule:nonzero;stroke:#000000;stroke-width:1;stroke-linecap:butt;stroke-linejoin:bevel;stroke-miterlimit:4;stroke-opacity:1;stroke-dasharray:none;marker-start:none"
     d="m 18.949518,6.7833241 -0.022,0.221 0.036,0.622 0.189,0.3650001 0.397,0.244 0.145,0.036 0.099,0 0.671,-0.14 0.085,-0.036 0.19,-0.113 0.212,-0.2200001 0.04,2.6489979 -2.181,0.018 0.013,2.204999 -2.249,0.031 -6.7959994,-0.072 -0.005,-0.973999 -0.136,-1.234 0.014,-3.6019979 9.2979994,0"
     id="Roseau"
     inkscape:connector-curvature="0" />
  <path
     style="font-size:12px;fill:#d0d0d0;fill-rule:nonzero;stroke:#000000;stroke-width:1;stroke-linecap:butt;stroke-linejoin:bevel;stroke-miterlimit:4;stroke-opacity:1;stroke-dasharray:none;marker-start:none"
     d="m 2.5715186,6.7113241 7.08,0.072 -0.014,3.6019979 0.136,1.234 0.005,0.973999 -6.712,-0.05 0.632,-1.752999 -0.379,-0.8609988 -0.167,-0.496 -0.622,-2.0319991 -0.05,-0.27 0.01,-0.19 0.04,-0.189 0.041,-0.041"
     id="Kittson"
     inkscape:connector-curvature="0" />
  <path
     style="font-size:12px;fill:#d0d0d0;fill-rule:nonzero;stroke:#000000;stroke-width:1;stroke-linecap:butt;stroke-linejoin:bevel;stroke-miterlimit:4;stroke-opacity:1;stroke-dasharray:none;marker-start:none"
     d="m 15.673518,20.372321 0.005,1.118 -1.118,1.126 -4.506999,0 -1.1360004,-1.121 0,-1.483 6.7509994,-0.005 0.005,0.365"
     id="Red Lake"
     inkscape:connector-curvature="0" />
  <path
     style="font-size:12px;fill:#d0d0d0;fill-rule:nonzero;stroke:#000000;stroke-width:1;stroke-linecap:butt;stroke-linejoin:bevel;stroke-miterlimit:4;stroke-opacity:1;stroke-dasharray:none;marker-start:none"
     d="m 16.669518,17.334321 0.104,1.952 0.009,1.104 -1.109,-0.018 -0.005,-0.365 -6.7509994,0.005 -0.145,-2.696 2.1329994,0.005 0.648,0.027 1.577,0.014 3.539,-0.028"
     id="Pennington"
     inkscape:connector-curvature="0" />
  <path
     style="font-size:12px;fill:#d0d0d0;fill-rule:nonzero;stroke:#000000;stroke-width:1;stroke-linecap:butt;stroke-linejoin:bevel;stroke-miterlimit:4;stroke-opacity:1;stroke-dasharray:none;marker-start:none"
     d="m 3.0665186,12.543321 6.712,0.05 6.7959994,0.072 0,1.659 0.014,0.55 0.076,0.004 0.005,2.456 -3.539,0.028 -1.577,-0.014 -0.648,-0.027 -2.1329994,-0.005 -5.629,-0.035 0.005,-0.262 0.284,-1.095 -0.055,-3.074 -0.202,-0.248 -0.068,-0.036 -0.041,-0.023"
     id="Marshall"
     inkscape:connector-curvature="0" />
  <path
     style="font-size:12px;fill:#d0d0d0;fill-rule:nonzero;stroke:#000000;stroke-width:1;stroke-linecap:butt;stroke-linejoin:bevel;stroke-miterlimit:4;stroke-opacity:1;stroke-dasharray:none;marker-start:none"
     d="m 8.7725186,17.316321 0.145,2.696 0,1.483 1.1360004,1.121 4.506999,0 1.118,-1.126 -0.005,-1.118 1.109,0.018 0.045,3.128 0.091,0.207 0.134,0 0,2.218 -4.511,0.023 -6.9189994,-0.032 -0.302,-2.222 -1.135,-2.592 -0.839,-3.024 -0.203,-0.784 0,-0.031 5.629,0.035"
     id="Polk"
     inkscape:connector-curvature="0" />
  <path
     style="font-size:12px;fill:#d0d0d0;fill-rule:nonzero;stroke:#000000;stroke-width:1;stroke-linecap:butt;stroke-linejoin:bevel;stroke-miterlimit:4;stroke-opacity:1;stroke-dasharray:none;marker-start:none"
     d="m 12.541518,25.966321 0,4.457 -1.127,0.005 -5.5889994,-0.023 -0.045,-1.118 -0.158,-3.353 6.9189994,0.032"
     id="Norman"
     inkscape:connector-curvature="0" />
  <path
     style="font-size:12px;fill:#d0d0d0;fill-rule:nonzero;stroke:#000000;stroke-width:1;stroke-linecap:butt;stroke-linejoin:bevel;stroke-miterlimit:4;stroke-opacity:1;stroke-dasharray:none;marker-start:none"
     d="m 17.052518,25.943321 0.05,4.471 -4.561,0.009 0,-4.457 4.511,-0.023"
     id="Mahnomen"
     inkscape:connector-curvature="0" />
  <path
     style="font-size:12px;fill:#d0d0d0;fill-rule:nonzero;stroke:#000000;stroke-width:1;stroke-linecap:butt;stroke-linejoin:bevel;stroke-miterlimit:4;stroke-opacity:1;stroke-dasharray:none;marker-start:none"
     d="m 16.782518,20.390321 -0.009,-1.104 3.087,-0.014 0.325,1.885 0.099,2.55 0.04,3.336 0.154,3.335 -3.376,0.036 -0.05,-4.471 0,-2.218 -0.134,0 -0.091,-0.207 -0.045,-3.128"
     id="Clearwater"
     inkscape:connector-curvature="0" />
  <path
     style="font-size:12px;fill:#d0d0d0;fill-rule:nonzero;stroke:#000000;stroke-width:1;stroke-linecap:butt;stroke-linejoin:bevel;stroke-miterlimit:4;stroke-opacity:1;stroke-dasharray:none;marker-start:none"
     d="m 18.823518,12.634321 1.132,-0.005 0.027,2.222 6.788,-0.104 0.198,6.666 0.032,2.074 0.067,1.613 0.005,1.447 -2.227,0.478 -4.521,0.018 -0.04,-3.336 -0.099,-2.55 -0.325,-1.885 -3.087,0.014 -0.104,-1.952 -0.005,-2.456 -0.076,-0.004 -0.014,-0.55 0,-1.659 2.249,-0.031"
     id="Beltrami"
     inkscape:connector-curvature="0" />
  <path
     style="font-size:12px;fill:#d0d0d0;fill-rule:nonzero;stroke:#000000;stroke-width:1;stroke-linecap:butt;stroke-linejoin:bevel;stroke-miterlimit:4;stroke-opacity:1;stroke-dasharray:none;marker-start:none"
     d="m 56.345518,15.978321 0.46,-0.383 0.775,-0.379 0.334,0 0.031,0.009 0.041,0.05 0.347,0.77 0.148,0.424 0,0.009 0.279,0.564 0.091,0.085 1.573,-0.293 3.415,-0.27 0.353,-0.018 0.393,0.072 0.156,0.036 0.451,0.18 0.244,0.334 0.044,0.104 -0.018,0.175 0.041,0.09 0.226,0.163 0.64,0.306 0.211,0.014 0.216,-0.104 1.66,-0.306 1.446,-0.185 -0.013,0.121 -0.032,0.036 -0.496,0.388 -0.144,0.108 -1.861,1.095 -1.189,0.65 -0.677,0.369 -0.636,0.275 -0.779,0.261 -0.6,0.212 -1.654,0.694 -0.816,0.348 -1.686,1.103 -1.113,0.925 -1.298,1.248 -0.256,-5.242 -0.158,-2.416 -0.149,-1.622"
     id="Cook"
     inkscape:connector-curvature="0" />
  <path
     style="font-size:12px;fill:#d0d0d0;fill-rule:nonzero;stroke:#000000;stroke-width:1;stroke-linecap:butt;stroke-linejoin:bevel;stroke-miterlimit:4;stroke-opacity:1;stroke-dasharray:none;marker-start:none"
     d="m 56.345518,15.978321 0.149,1.622 0.158,2.416 0.256,5.242 -0.194,0.117 -0.684,0.766 -0.238,0.28 -1.087,1.505 -1.412,1.695 -0.171,0.184 -0.356,0.24 -0.473,0.257 -1.109,1.14 -0.275,0.301 -0.483,0.578 -0.278,-7.437 -0.213,-2.713 -0.054,-1.091 -0.203,-4.89 0.489,-0.077 0.238,0.054 0.009,0.014 0.031,0.054 0.126,0.622 -0.063,0.28 -0.031,0.081 0.004,0.031 0.627,0.184 1.347,0.316 1.389,-0.099 0.332,-0.058 0.204,-0.073 0.134,-0.072 0.006,0 1.825,-1.469"
     id="Lake"
     inkscape:connector-curvature="0" />
  <path
     style="font-size:12px;fill:#d0d0d0;fill-rule:nonzero;stroke:#000000;stroke-width:1;stroke-linecap:butt;stroke-linejoin:bevel;stroke-miterlimit:4;stroke-opacity:1;stroke-dasharray:none;marker-start:none"
     d="m 38.646518,20.548321 0.004,0.893 0.055,1.302 0.153,1.483 0.121,2.979 0.054,1.555 0.144,1.803 0.033,1.063 -6.37,0.122 -0.072,-3.52 -0.085,-0.045 -0.645,-0.122 -0.171,-0.013 -0.004,0.049 -0.216,0.189 -0.1,0.055 -0.238,-0.149 -0.758,-0.514 -0.103,-0.108 -0.072,-0.194 0,-0.32 0.017,-0.036 -0.023,-0.23 -0.342,-0.599 -0.135,-0.122 -0.203,-0.031 -1.568,0.744 -0.217,0.126 -0.546,-0.154 -0.287,-0.207 -0.005,-1.447 -0.067,-1.613 -0.032,-2.074 5.62,-0.121 -0.014,-0.672 6.072,-0.072"
     id="Itasca"
     inkscape:connector-curvature="0" />
  <path
     style="font-size:12px;fill:#d0d0d0;fill-rule:nonzero;stroke:#000000;stroke-width:1;stroke-linecap:butt;stroke-linejoin:bevel;stroke-miterlimit:4;stroke-opacity:1;stroke-dasharray:none;marker-start:none"
     d="m 20.324518,27.043321 4.521,-0.018 0.073,1.136 0.107,4.421 0.018,2.227 -1.126,0.009 -3.34,0.022 -0.019,-2.226 -0.063,-0.149 -0.017,-0.924 0,-1.163 -0.154,-3.335"
     id="Hubbard"
     inkscape:connector-curvature="0" />
  <path
     style="font-size:12px;fill:#d0d0d0;fill-rule:nonzero;stroke:#000000;stroke-width:1;stroke-linecap:butt;stroke-linejoin:bevel;stroke-miterlimit:4;stroke-opacity:1;stroke-dasharray:none;marker-start:none"
     d="m 24.845518,27.025321 2.227,-0.478 0.287,0.207 0.546,0.154 0.217,-0.126 1.568,-0.744 0.203,0.031 0.135,0.122 0.342,0.599 0.023,0.23 -0.017,0.036 0,0.32 0.072,0.194 0.103,0.108 0.758,0.514 0.238,0.149 0.1,-0.055 0.216,-0.189 0.004,-0.049 0.171,0.013 0.645,0.122 0.085,0.045 0.131,6.441 -5.034,0.068 -0.005,1.483 0.018,0.756 0.144,0.614 0.086,3.24 0.009,0.532 -0.045,0.135 -0.081,0.023 -0.022,-0.131 -0.059,-0.095 -0.69,-0.464 -0.302,0.022 -0.063,0.109 -0.175,0.112 -0.425,0.153 -0.089,-0.022 -0.726,-0.32 -0.253,-0.23 -0.703,-0.252 -0.433,-0.32 -0.098,-3.033 -0.036,-2.231 1.126,-0.009 -0.018,-2.227 -0.107,-4.421 -0.073,-1.136"
     id="Cass"
     inkscape:connector-curvature="0" />
  <path
     style="font-size:12px;fill:#d0d0d0;fill-rule:nonzero;stroke:#000000;stroke-width:1;stroke-linecap:butt;stroke-linejoin:bevel;stroke-miterlimit:4;stroke-opacity:1;stroke-dasharray:none;marker-start:none"
     d="m 23.917518,34.818321 0.036,2.231 0.098,3.033 0.433,0.32 -3.795,0.041 -0.112,-4.481 0,-1.122 3.34,-0.022"
     id="Wadena"
     inkscape:connector-curvature="0" />
  <path
     style="font-size:12px;fill:#d0d0d0;fill-rule:nonzero;stroke:#000000;stroke-width:1;stroke-linecap:butt;stroke-linejoin:bevel;stroke-miterlimit:4;stroke-opacity:1;stroke-dasharray:none;marker-start:none"
     d="m 20.478518,30.378321 0,1.163 0.017,0.924 0.063,0.149 0.019,2.226 0,1.122 -4.197,0.054 -4.799,-0.027 -0.167,-5.561 1.127,-0.005 4.561,-0.009 3.376,-0.036"
     id="Becker"
     inkscape:connector-curvature="0" />
  <path
     style="font-size:12px;fill:#d0d0d0;fill-rule:nonzero;stroke:#000000;stroke-width:1;stroke-linecap:butt;stroke-linejoin:bevel;stroke-miterlimit:4;stroke-opacity:1;stroke-dasharray:none;marker-start:none"
     d="m 11.414518,30.428321 0.167,5.561 -0.951999,1.118 -4.4750004,-0.022 -0.005,-0.722 0.172,-2.803 -0.109,-0.298 -0.374,-1.226 -0.013,-1.631 5.5889994,0.023"
     id="Clay"
     inkscape:connector-curvature="0" />
  <path
     style="font-size:12px;fill:#d0d0d0;fill-rule:nonzero;stroke:#000000;stroke-width:1;stroke-linecap:butt;stroke-linejoin:bevel;stroke-miterlimit:4;stroke-opacity:1;stroke-dasharray:none;marker-start:none"
     d="m 6.1545186,37.085321 4.4750004,0.022 -0.004,4.48 0.136,0 -0.01,2.24 -0.009,1.118 -2.8030004,-0.018 0.167,-0.469 0.022,-0.081 0.018,-0.261 -0.027,-0.226 -0.343,-2.704 -1.239,-2.984 -0.383,-1.113 0,-0.004"
     id="Wilkin"
     inkscape:connector-curvature="0" />
  <path
     style="font-size:12px;fill:#d0d0d0;fill-rule:nonzero;stroke:#000000;stroke-width:1;stroke-linecap:butt;stroke-linejoin:bevel;stroke-miterlimit:4;stroke-opacity:1;stroke-dasharray:none;marker-start:none"
     d="m 11.581518,35.989321 4.799,0.027 4.197,-0.054 0.112,4.481 0.118,3.375 -5.608,0.018 -4.447999,-0.009 0.01,-2.24 -0.136,0 0.004,-4.48 0.951999,-1.118"
     id="Otter Tail"
     inkscape:connector-curvature="0" />
  <path
     style="font-size:12px;fill:#d0d0d0;fill-rule:nonzero;stroke:#000000;stroke-width:1;stroke-linecap:butt;stroke-linejoin:bevel;stroke-miterlimit:4;stroke-opacity:1;stroke-dasharray:none;marker-start:none"
     d="m 38.294518,11.151322 0.933,0.004 6.116,3.384999 0.225,-0.157 1.794,-0.131 0.23,0.419 0.393,0.82 0.04,0.063 0.072,0.1 1.581,0.536 0.203,4.89 0.054,1.091 0.213,2.713 0.278,7.437 -0.404,0.202 -0.361,0.266 -1.51,1.294 -0.23,0.212 -0.068,0.085 0.06,0.18 0.225,0.352 0.36,0.428 0.099,0.054 -0.046,0.032 -0.125,-0.054 -0.513,-0.501 -0.24,0.018 -0.63,0.429 -0.05,0.103 -0.009,0.095 0.031,0.081 0,0.009 0.045,0.05 0.009,0.009 0.009,0.144 -0.121,0.316 -0.041,0.04 -0.044,0.027 -0.267,0.018 -0.248,-0.022 -0.202,-0.14 -0.136,-1.289 -2.064,0.054 -4.692,0.149 -0.053,-3.336 -0.033,-1.063 -0.144,-1.803 -0.054,-1.555 -0.121,-2.979 -0.153,-1.483 -0.055,-1.302 -0.004,-0.893 -0.019,-0.491 -0.098,-1.172 -0.087,-0.586 -0.075,-2.231 -0.024,-2.199 -0.049,-2.717999"
     id="St. Louis"
     inkscape:connector-curvature="0" />
  <path
     style="font-size:12px;fill:#d0d0d0;fill-rule:nonzero;stroke:#000000;stroke-width:1;stroke-linecap:butt;stroke-linejoin:bevel;stroke-miterlimit:4;stroke-opacity:1;stroke-dasharray:none;marker-start:none"
     d="m 39.263518,34.962321 4.692,-0.149 2.064,-0.054 0.136,1.289 0.117,3.159 -6.811,0.217 -0.067,-1.934 -0.072,-0.302 -0.028,-0.477 -0.026,-0.636 -0.005,-1.113"
     id="Carlton"
     inkscape:connector-curvature="0" />
  <path
     style="font-size:12px;fill:#d0d0d0;fill-rule:nonzero;stroke:#000000;stroke-width:1;stroke-linecap:butt;stroke-linejoin:bevel;stroke-miterlimit:4;stroke-opacity:1;stroke-dasharray:none;marker-start:none"
     d="m 39.461518,39.424321 6.811,-0.217 0.121,3.345 0.023,0.559 0.018,0.505 -1.312,0.819 -1.875,1.231 -0.003,0.005 -0.448,0.392 -0.113,0.149 -0.112,0.202 -0.905,1.812 -2.714,0.077 -0.109,-3.218 0.789,-0.032 -0.057,-2.276 -0.114,-3.353"
     id="Pine"
     inkscape:connector-curvature="0" />
  <path
     style="font-size:12px;fill:#d0d0d0;fill-rule:nonzero;stroke:#000000;stroke-width:1;stroke-linecap:butt;stroke-linejoin:bevel;stroke-miterlimit:4;stroke-opacity:1;stroke-dasharray:none;marker-start:none"
     d="m 36.185518,42.930321 3.39,-0.153 0.057,2.276 -0.789,0.032 0.109,3.218 -3.362,0.049 -0.086,-1.812 -0.035,-1.374 0.4,-0.014 0.357,-0.374 -0.041,-1.848"
     id="Kanabec"
     inkscape:connector-curvature="0" />
  <path
     style="font-size:12px;fill:#d0d0d0;fill-rule:nonzero;stroke:#000000;stroke-width:1;stroke-linecap:butt;stroke-linejoin:bevel;stroke-miterlimit:4;stroke-opacity:1;stroke-dasharray:none;marker-start:none"
     d="m 39.210518,31.626321 0.053,3.336 0.005,1.113 0.026,0.636 0.028,0.477 0.072,0.302 0.067,1.934 0.114,3.353 -3.39,0.153 0.009,-0.338 -0.027,-0.847 -0.929,0.014 -2.348,0.107 -0.103,-0.067 -0.028,-0.027 -0.004,-0.031 -0.103,-4.255 0.274,-0.942 -0.027,-1.875 -0.059,-2.921 6.37,-0.122"
     id="Aitkin"
     inkscape:connector-curvature="0" />
  <path
     style="font-size:12px;fill:#d0d0d0;fill-rule:nonzero;stroke:#000000;stroke-width:1;stroke-linecap:butt;stroke-linejoin:bevel;stroke-miterlimit:4;stroke-opacity:1;stroke-dasharray:none;marker-start:none"
     d="m 27.991518,41.520321 0.081,-0.023 0.045,-0.135 -0.009,-0.532 -0.086,-3.24 -0.144,-0.614 -0.018,-0.756 0.005,-1.483 5.034,-0.068 0.027,1.875 -0.274,0.942 0.103,4.255 0.004,0.031 0.028,0.027 0.103,0.067 -0.103,1.118 -5.062,0.095 -0.014,-0.428 0.009,-0.681 0.271,-0.45"
     id="Crow Wing"
     inkscape:connector-curvature="0" />
  <path
     style="font-size:12px;fill:#d0d0d0;fill-rule:nonzero;stroke:#000000;stroke-width:1;stroke-linecap:butt;stroke-linejoin:bevel;stroke-miterlimit:4;stroke-opacity:1;stroke-dasharray:none;marker-start:none"
     d="m 25.187518,40.654321 0.253,0.23 0.726,0.32 0.089,0.022 0.425,-0.153 0.175,-0.112 0.063,-0.109 0.302,-0.022 0.69,0.464 0.059,0.095 0.022,0.131 -0.271,0.45 -0.009,0.681 0.014,0.428 5.062,-0.095 0.053,2.232 0.046,0 0.347,0.752 0.072,1.307 -2.222,0.027 -3.092,0.085 0.743,0.591 -3.357,0.068 -0.19,-7.392"
     id="Morrison"
     inkscape:connector-curvature="0" />
  <path
     style="font-size:12px;fill:#d0d0d0;fill-rule:nonzero;stroke:#000000;stroke-width:1;stroke-linecap:butt;stroke-linejoin:bevel;stroke-miterlimit:4;stroke-opacity:1;stroke-dasharray:none;marker-start:none"
     d="m 24.484518,40.402321 0.703,0.252 0.19,7.392 -4.475,0.063 -0.095,-4.291 -0.118,-3.375 3.795,-0.041"
     id="Todd"
     inkscape:connector-curvature="0" />
  <path
     style="font-size:12px;fill:#d0d0d0;fill-rule:nonzero;stroke:#000000;stroke-width:1;stroke-linecap:butt;stroke-linejoin:bevel;stroke-miterlimit:4;stroke-opacity:1;stroke-dasharray:none;marker-start:none"
     d="m 20.807518,43.818321 0.095,4.291 0,0.185 -5.59,0.018 -0.004,-2.236 -0.099,0 -0.01,-2.24 5.608,-0.018"
     id="Douglas"
     inkscape:connector-curvature="0" />
  <path
     style="font-size:12px;fill:#d0d0d0;fill-rule:nonzero;stroke:#000000;stroke-width:1;stroke-linecap:butt;stroke-linejoin:bevel;stroke-miterlimit:4;stroke-opacity:1;stroke-dasharray:none;marker-start:none"
     d="m 10.751519,43.827321 4.447999,0.009 0.01,2.24 0.099,0 0.004,2.236 -4.469999,0.004 -0.1,-3.371 0.009,-1.118"
     id="Grant"
     inkscape:connector-curvature="0" />
  <path
     style="font-size:12px;fill:#d0d0d0;fill-rule:nonzero;stroke:#000000;stroke-width:1;stroke-linecap:butt;stroke-linejoin:bevel;stroke-miterlimit:4;stroke-opacity:1;stroke-dasharray:none;marker-start:none"
     d="m 7.9395186,44.927321 2.8030004,0.018 0.1,3.371 0,2.245 -5.2740004,-0.041 -0.162,-0.207 -0.036,-0.05 0.126,-0.432 0.031,-0.072 0.014,-0.014 0.018,-0.023 0.014,-0.018 0.824,-0.662 0.312,-0.203 0.347,-0.189 0.184,-0.185 0.631,-0.937 0.014,-0.032 0.009,-0.018 0.009,-0.027 0.009,-0.064 0.022,-0.117 0.032,-0.279 0.04,-0.342 0.005,-0.014 0,-0.027 0.05,-0.563 -0.122,-1.118"
     id="Traverse"
     inkscape:connector-curvature="0" />
  <path
     style="font-size:12px;fill:#d0d0d0;fill-rule:nonzero;stroke:#000000;stroke-width:1;stroke-linecap:butt;stroke-linejoin:bevel;stroke-miterlimit:4;stroke-opacity:1;stroke-dasharray:none;marker-start:none"
     d="m 5.5685186,50.520321 5.2740004,0.041 0.106999,0 -0.009,2.226 1.132,0.014 0.117,3.033 -0.636,-0.221 -0.923999,-0.373 -0.085,-0.186 -0.387,-0.176 -1.1450004,-0.243 -0.149,-0.744 -0.172,-0.396 -0.297,-0.239 -0.87,-0.424 -1.325,-1.469 -0.631,-0.843"
     id="Big Stone"
     inkscape:connector-curvature="0" />
  <path
     style="font-size:12px;fill:#d0d0d0;fill-rule:nonzero;stroke:#000000;stroke-width:1;stroke-linecap:butt;stroke-linejoin:bevel;stroke-miterlimit:4;stroke-opacity:1;stroke-dasharray:none;marker-start:none"
     d="m 15.424518,52.792321 4.473,-0.027 0.103,3.358 -7.202,0.027 -0.609,-0.316 -0.117,-3.033 3.352,-0.009"
     id="Swift"
     inkscape:connector-curvature="0" />
  <path
     style="font-size:12px;fill:#d0d0d0;fill-rule:nonzero;stroke:#000000;stroke-width:1;stroke-linecap:butt;stroke-linejoin:bevel;stroke-miterlimit:4;stroke-opacity:1;stroke-dasharray:none;marker-start:none"
     d="m 15.312518,48.312321 0.009,2.249 0.095,0 0.008,2.231 -3.352,0.009 -1.132,-0.014 0.009,-2.226 -0.106999,0 0,-2.245 4.469999,-0.004"
     id="Stevens"
     inkscape:connector-curvature="0" />
  <path
     style="font-size:12px;fill:#d0d0d0;fill-rule:nonzero;stroke:#000000;stroke-width:1;stroke-linecap:butt;stroke-linejoin:bevel;stroke-miterlimit:4;stroke-opacity:1;stroke-dasharray:none;marker-start:none"
     d="m 20.902518,48.294321 0.017,2.239 0.077,0 0.018,2.228 -1.117,0.004 -4.473,0.027 -0.008,-2.231 -0.095,0 -0.009,-2.249 5.59,-0.018"
     id="Pope"
     inkscape:connector-curvature="0" />
  <path
     style="font-size:12px;fill:#d0d0d0;fill-rule:nonzero;stroke:#000000;stroke-width:1;stroke-linecap:butt;stroke-linejoin:bevel;stroke-miterlimit:4;stroke-opacity:1;stroke-dasharray:none;marker-start:none"
     d="m 25.377518,48.046321 3.357,-0.068 1.159,2.763 0.965,1.744 -1.907,1.821 -1.114,0.036 -0.527,-0.55 -0.861,0.01 -2.077,0.031 -0.015,-1.118 -3.343,0.046 -0.018,-2.228 -0.077,0 -0.017,-2.239 0,-0.185 4.475,-0.063"
     id="Stearns"
     inkscape:connector-curvature="0" />
  <path
     style="font-size:12px;fill:#d0d0d0;fill-rule:nonzero;stroke:#000000;stroke-width:1;stroke-linecap:butt;stroke-linejoin:bevel;stroke-miterlimit:4;stroke-opacity:1;stroke-dasharray:none;marker-start:none"
     d="m 28.734518,47.978321 -0.743,-0.591 3.092,-0.085 2.222,-0.027 0.117,3.38 -3.529,0.086 -1.159,-2.763"
     id="Benton"
     inkscape:connector-curvature="0" />
  <path
     style="font-size:12px;fill:#d0d0d0;fill-rule:nonzero;stroke:#000000;stroke-width:1;stroke-linecap:butt;stroke-linejoin:bevel;stroke-miterlimit:4;stroke-opacity:1;stroke-dasharray:none;marker-start:none"
     d="m 32.890518,41.866321 2.348,-0.107 0.929,-0.014 0.027,0.847 -0.009,0.338 0.041,1.848 -0.357,0.374 -0.4,0.014 0.035,1.374 0.086,1.812 0.085,2.258 -2.253,0.045 -0.117,-3.38 -0.072,-1.307 -0.347,-0.752 -0.046,0 -0.053,-2.232 0.103,-1.118"
     id="Mille Lacs"
     inkscape:connector-curvature="0" />
  <path
     style="font-size:12px;fill:#d0d0d0;fill-rule:nonzero;stroke:#000000;stroke-width:1;stroke-linecap:butt;stroke-linejoin:bevel;stroke-miterlimit:4;stroke-opacity:1;stroke-dasharray:none;marker-start:none"
     d="m 38.952518,48.303321 0.063,2.227 1.091,0.161 0.081,1.686 -1.303,0.01 -2.605,0.08 -0.545,0 -0.059,-1.857 -0.085,-2.258 3.362,-0.049"
     id="Isanti"
     inkscape:connector-curvature="0" />
  <path
     style="font-size:12px;fill:#d0d0d0;fill-rule:nonzero;stroke:#000000;stroke-width:1;stroke-linecap:butt;stroke-linejoin:bevel;stroke-miterlimit:4;stroke-opacity:1;stroke-dasharray:none;marker-start:none"
     d="m 41.666518,48.226321 -0.367,1.122 -0.012,0.204 0.004,0.085 0.023,0.342 0.031,0.253 0.122,0.094 0.433,0.073 0.18,-0.028 0.713,0.384 0.445,0.842 0.18,0.911 -0.342,0.874 -0.24,0.297 -0.012,0.01 -0.109,0.099 -2.478,0.072 -0.05,-1.483 -0.081,-1.686 -1.091,-0.161 -0.063,-2.227 2.714,-0.077"
     id="Chisago"
     inkscape:connector-curvature="0" />
  <path
     style="font-size:12px;fill:#d0d0d0;fill-rule:nonzero;stroke:#000000;stroke-width:1;stroke-linecap:butt;stroke-linejoin:bevel;stroke-miterlimit:4;stroke-opacity:1;stroke-dasharray:none;marker-start:none"
     d="m 38.442518,57.290321 1.849,-1.199 0.104,3.006 -1.447,0.077 -0.506,-1.884"
     id="Ramsey"
     inkscape:connector-curvature="0" />
  <path
     style="font-size:12px;fill:#d0d0d0;fill-rule:nonzero;stroke:#000000;stroke-width:1;stroke-linecap:butt;stroke-linejoin:bevel;stroke-miterlimit:4;stroke-opacity:1;stroke-dasharray:none;marker-start:none"
     d="m 35.734518,52.467321 0.545,0 2.605,-0.08 1.303,-0.01 0.05,1.483 0.054,2.231 -1.849,1.199 -2.672,-2.641 -0.036,-2.182"
     id="Anoka"
     inkscape:connector-curvature="0" />
  <path
     style="font-size:12px;fill:#d0d0d0;fill-rule:nonzero;stroke:#000000;stroke-width:1;stroke-linecap:butt;stroke-linejoin:bevel;stroke-miterlimit:4;stroke-opacity:1;stroke-dasharray:none;marker-start:none"
     d="m 35.675518,50.610321 0.059,1.857 0.036,2.182 -0.085,-0.009 -0.559,-0.573 -0.803,-0.022 -0.766,0.027 -0.131,-0.032 -0.915,-0.523 -1.653,-1.032 -0.965,-1.744 3.529,-0.086 2.253,-0.045"
     id="Sherburne"
     inkscape:connector-curvature="0" />
  <path
     style="font-size:12px;fill:#d0d0d0;fill-rule:nonzero;stroke:#000000;stroke-width:1;stroke-linecap:butt;stroke-linejoin:bevel;stroke-miterlimit:4;stroke-opacity:1;stroke-dasharray:none;marker-start:none"
     d="m 28.951518,54.306321 1.907,-1.821 1.653,1.032 0.915,0.523 0.131,0.032 0.766,-0.027 0.803,0.022 0.559,0.573 -1.087,0.554 -0.126,0.104 -0.816,1.554 -0.117,1.307 -2.245,0.041 -2.226,0.032 -0.117,-3.926"
     id="Wright"
     inkscape:connector-curvature="0" />
  <path
     style="font-size:12px;fill:#d0d0d0;fill-rule:nonzero;stroke:#000000;stroke-width:1;stroke-linecap:butt;stroke-linejoin:bevel;stroke-miterlimit:4;stroke-opacity:1;stroke-dasharray:none;marker-start:none"
     d="m 24.372518,53.833321 2.077,-0.031 0.861,-0.01 0.527,0.55 1.114,-0.036 0.117,3.926 -2.235,1.167 -2.34,0.036 -0.121,-5.602"
     id="Meeker"
     inkscape:connector-curvature="0" />
  <path
     style="font-size:12px;fill:#d0d0d0;fill-rule:nonzero;stroke:#000000;stroke-width:1;stroke-linecap:butt;stroke-linejoin:bevel;stroke-miterlimit:4;stroke-opacity:1;stroke-dasharray:none;marker-start:none"
     d="m 19.897518,52.765321 1.117,-0.004 3.343,-0.046 0.015,1.118 0.121,5.602 -4.484,0.055 -0.009,-3.367 -0.103,-3.358"
     id="Kandiyohi"
     inkscape:connector-curvature="0" />
  <path
     style="font-size:12px;fill:#d0d0d0;fill-rule:nonzero;stroke:#000000;stroke-width:1;stroke-linecap:butt;stroke-linejoin:bevel;stroke-miterlimit:4;stroke-opacity:1;stroke-dasharray:none;marker-start:none"
     d="m 12.798518,56.150321 7.202,-0.027 0.009,3.367 -2.15,0.022 0.014,1.776 -2.336,-2.353 -2.739,-2.785"
     id="Chippewa"
     inkscape:connector-curvature="0" />
  <path
     style="font-size:12px;fill:#d0d0d0;fill-rule:nonzero;stroke:#000000;stroke-width:1;stroke-linecap:butt;stroke-linejoin:bevel;stroke-miterlimit:4;stroke-opacity:1;stroke-dasharray:none;marker-start:none"
     d="m 40.237518,53.860321 2.478,-0.072 -0.139,1.122 -0.19,1.699 0.028,0.424 0.224,0.478 0.196,0.906 -0.07,0.973 -0.319,1.524 -2.05,-1.817 -0.104,-3.006 -0.054,-2.231"
     id="Washington"
     inkscape:connector-curvature="0" />
  <path
     style="font-size:12px;fill:#d0d0d0;fill-rule:nonzero;stroke:#000000;stroke-width:1;stroke-linecap:butt;stroke-linejoin:bevel;stroke-miterlimit:4;stroke-opacity:1;stroke-dasharray:none;marker-start:none"
     d="m 38.948518,59.174321 1.447,-0.077 2.05,1.817 0.654,0.378 0.035,1.091 -0.508,1.127 -1.164,0.04 -1.09,0.406 0.013,0.558 -2.258,-0.865 -0.004,-1.122 -0.366,0.009 -0.121,-1.117 -0.041,-0.947 1.353,-1.298"
     id="Dakota"
     inkscape:connector-curvature="0" />
  <path
     style="font-size:12px;fill:#d0d0d0;fill-rule:nonzero;stroke:#000000;stroke-width:1;stroke-linecap:butt;stroke-linejoin:bevel;stroke-miterlimit:4;stroke-opacity:1;stroke-dasharray:none;marker-start:none"
     d="m 35.770518,54.649321 2.672,2.641 0.506,1.884 -1.353,1.298 -1.753,-0.127 -0.027,-1.122 -2.258,0.059 -0.018,-1.123 0.117,-1.307 0.816,-1.554 0.126,-0.104 1.087,-0.554 0.085,0.009"
     id="Hennepin"
     inkscape:connector-curvature="0" />
  <path
     style="font-size:12px;fill:#d0d0d0;fill-rule:nonzero;stroke:#000000;stroke-width:1;stroke-linecap:butt;stroke-linejoin:bevel;stroke-miterlimit:4;stroke-opacity:1;stroke-dasharray:none;marker-start:none"
     d="m 35.842518,60.345321 1.753,0.127 0.041,0.947 0.121,1.117 0.366,-0.009 0.004,1.122 -2.23,0.064 -3.552,0.09 1.28,-1.285 0.041,0.014 0.243,-0.1 0.771,-0.604 0.225,-0.302 -0.063,-0.117 0.009,-0.189 0.463,-0.734 0.339,-0.141 0.189,0"
     id="Scott"
     inkscape:connector-curvature="0" />
  <path
     style="font-size:12px;fill:#d0d0d0;fill-rule:nonzero;stroke:#000000;stroke-width:1;stroke-linecap:butt;stroke-linejoin:bevel;stroke-miterlimit:4;stroke-opacity:1;stroke-dasharray:none;marker-start:none"
     d="m 31.294518,58.200321 2.245,-0.041 0.018,1.123 2.258,-0.059 0.027,1.122 -0.189,0 -0.339,0.141 -0.463,0.734 -0.009,0.189 0.063,0.117 -0.225,0.302 -0.771,0.604 -0.243,0.1 -0.041,-0.014 -2.245,-0.946 -0.086,-3.372"
     id="Carver"
     inkscape:connector-curvature="0" />
  <path
     style="font-size:12px;fill:#d0d0d0;fill-rule:nonzero;stroke:#000000;stroke-width:1;stroke-linecap:butt;stroke-linejoin:bevel;stroke-miterlimit:4;stroke-opacity:1;stroke-dasharray:none;marker-start:none"
     d="m 29.068518,58.232321 2.226,-0.032 0.086,3.372 -1.117,0.022 -1.114,0.14 0.01,1.009 -1.898,0.037 -0.334,0.004 -0.018,-1.127 -0.076,-2.258 2.235,-1.167"
     id="McLeod"
     inkscape:connector-curvature="0" />
  <path
     style="font-size:12px;fill:#d0d0d0;fill-rule:nonzero;stroke:#000000;stroke-width:1;stroke-linecap:butt;stroke-linejoin:bevel;stroke-miterlimit:4;stroke-opacity:1;stroke-dasharray:none;marker-start:none"
     d="m 31.380518,61.572321 2.245,0.946 -1.28,1.285 -0.149,1.122 -6.396,0.122 -0.063,-1.114 -0.036,-2.254 1.208,-0.022 0.018,1.127 0.334,-0.004 1.898,-0.037 -0.01,-1.009 1.114,-0.14 1.117,-0.022"
     id="Sibley"
     inkscape:connector-curvature="0" />
  <path
     style="font-size:12px;fill:#d0d0d0;fill-rule:nonzero;stroke:#000000;stroke-width:1;stroke-linecap:butt;stroke-linejoin:bevel;stroke-miterlimit:4;stroke-opacity:1;stroke-dasharray:none;marker-start:none"
     d="m 26.833518,59.399321 0.076,2.258 -1.208,0.022 0.036,2.254 0.063,1.114 -1.443,0.013 -0.788,-0.527 -4.565,-2.542 -1.131,-0.703 -0.014,-1.776 2.15,-0.022 4.484,-0.055 2.34,-0.036"
     id="Renville"
     inkscape:connector-curvature="0" />
  <path
     style="font-size:12px;fill:#d0d0d0;fill-rule:nonzero;stroke:#000000;stroke-width:1;stroke-linecap:butt;stroke-linejoin:bevel;stroke-miterlimit:4;stroke-opacity:1;stroke-dasharray:none;marker-start:none"
     d="m 12.189518,55.834321 0.609,0.316 2.739,2.785 0,0.577 -1.017,1.113 -5.5219994,-0.009 0.014,-5.981 1.1450004,0.243 0.387,0.176 0.085,0.186 0.923999,0.373 0.636,0.221"
     id="Lac qui Parle"
     inkscape:connector-curvature="0" />
  <path
     style="font-size:12px;fill:#d0d0d0;fill-rule:nonzero;stroke:#000000;stroke-width:1;stroke-linecap:butt;stroke-linejoin:bevel;stroke-miterlimit:4;stroke-opacity:1;stroke-dasharray:none;marker-start:none"
     d="m 8.9985186,60.616321 5.5219994,0.009 1.017,-1.113 0,-0.577 2.336,2.353 1.131,0.703 0.009,2.023 -2.155,0.005 -0.085,-1.131 -4.494,0 -3.2949994,-0.018 0.014,-2.254"
     id="Yellow Medicine"
     inkscape:connector-curvature="0" />
  <path
     style="font-size:12px;fill:#d0d0d0;fill-rule:nonzero;stroke:#000000;stroke-width:1;stroke-linecap:butt;stroke-linejoin:bevel;stroke-miterlimit:4;stroke-opacity:1;stroke-dasharray:none;marker-start:none"
     d="m 12.279518,62.888321 0.126,5.606 -3.4569994,-0.013 0.028,-4.48 0.008,-1.131 3.2949994,0.018"
     id="Lincoln"
     inkscape:connector-curvature="0" />
  <path
     style="font-size:12px;fill:#d0d0d0;fill-rule:nonzero;stroke:#000000;stroke-width:1;stroke-linecap:butt;stroke-linejoin:bevel;stroke-miterlimit:4;stroke-opacity:1;stroke-dasharray:none;marker-start:none"
     d="m 16.889518,68.499321 -4.344,-0.005 -0.14,0 -0.126,-5.606 4.494,0 0.085,1.131 0.031,4.48"
     id="Lyon"
     inkscape:connector-curvature="0" />
  <path
     style="font-size:12px;fill:#d0d0d0;fill-rule:nonzero;stroke:#000000;stroke-width:1;stroke-linecap:butt;stroke-linejoin:bevel;stroke-miterlimit:4;stroke-opacity:1;stroke-dasharray:none;marker-start:none"
     d="m 23.569518,64.533321 0.032,2.79 -2.226,0.031 -0.005,1.122 -3.268,0.01 -1.213,0.013 -0.031,-4.48 2.155,-0.005 -0.009,-2.023 4.565,2.542"
     id="Redwood"
     inkscape:connector-curvature="0" />
  <path
     style="font-size:12px;fill:#d0d0d0;fill-rule:nonzero;stroke:#000000;stroke-width:1;stroke-linecap:butt;stroke-linejoin:bevel;stroke-miterlimit:4;stroke-opacity:1;stroke-dasharray:none;marker-start:none"
     d="m 24.357518,65.060321 0.295,0.09 0.391,0.194 1.952,0.987 0.108,0.077 0.221,0.216 0.843,0.866 0.059,2.014 -4.539,0.072 -2.317,-1.1 0.005,-1.122 2.226,-0.031 -0.032,-2.79 0.788,0.527"
     id="Brown"
     inkscape:connector-curvature="0" />
  <path
     style="font-size:12px;fill:#d0d0d0;fill-rule:nonzero;stroke:#000000;stroke-width:1;stroke-linecap:butt;stroke-linejoin:bevel;stroke-miterlimit:4;stroke-opacity:1;stroke-dasharray:none;marker-start:none"
     d="m 32.196518,64.925321 -0.279,1.127 -0.442,1.32 0.022,0.379 0.104,0.82 -0.014,0.09 -0.388,0.189 -0.081,0.01 -0.269,-0.082 -0.276,-0.158 -0.113,-0.089 -1.915,-0.911 -0.378,-0.13 -0.843,-0.866 -0.221,-0.216 -0.108,-0.077 -1.952,-0.987 -0.391,-0.194 -0.295,-0.09 1.443,-0.013 6.396,-0.122"
     id="Nicollet"
     inkscape:connector-curvature="0" />
  <path
     style="font-size:12px;fill:#d0d0d0;fill-rule:nonzero;stroke:#000000;stroke-width:1;stroke-linecap:butt;stroke-linejoin:bevel;stroke-miterlimit:4;stroke-opacity:1;stroke-dasharray:none;marker-start:none"
     d="m 32.345518,63.803321 3.552,-0.09 0.107,4.493 -2.244,0.054 -2.263,-0.509 -0.022,-0.379 0.442,-1.32 0.279,-1.127 0.149,-1.122"
     id="Le Sueur"
     inkscape:connector-curvature="0" />
  <path
     style="font-size:12px;fill:#d0d0d0;fill-rule:nonzero;stroke:#000000;stroke-width:1;stroke-linecap:butt;stroke-linejoin:bevel;stroke-miterlimit:4;stroke-opacity:1;stroke-dasharray:none;marker-start:none"
     d="m 35.897518,63.713321 2.23,-0.064 2.258,0.865 0.095,3.557 -0.05,0 -3.33,0.099 -1.096,0.036 -0.107,-4.493"
     id="Rice"
     inkscape:connector-curvature="0" />
  <path
     style="font-size:12px;fill:#d0d0d0;fill-rule:nonzero;stroke:#000000;stroke-width:1;stroke-linecap:butt;stroke-linejoin:bevel;stroke-miterlimit:4;stroke-opacity:1;stroke-dasharray:none;marker-start:none"
     d="m 43.099518,61.292321 0.95,0.807 0.099,0.126 0.023,0.126 0.667,0.663 0.145,0.067 0.392,0.046 1.239,0.049 0.158,0.036 0.104,0.05 0.089,0.077 0.032,0.049 0.731,1.091 -1.736,0.058 -1.064,1.159 0.076,2.249 -1.179,0.027 -3.345,0.099 -0.095,-3.557 -0.013,-0.558 1.09,-0.406 1.164,-0.04 0.508,-1.127 -0.035,-1.091"
     id="Goodhue"
     inkscape:connector-curvature="0" />
  <path
     style="font-size:12px;fill:#d0d0d0;fill-rule:nonzero;stroke:#000000;stroke-width:1;stroke-linecap:butt;stroke-linejoin:bevel;stroke-miterlimit:4;stroke-opacity:1;stroke-dasharray:none;marker-start:none"
     d="m 47.728518,64.479321 1.478,0.563 2.154,2.668 -1.951,1.195 -2.218,0.086 -0.05,-1.127 -2.137,0.081 -0.076,-2.249 1.064,-1.159 1.736,-0.058"
     id="Wabasha"
     inkscape:connector-curvature="0" />
  <path
     style="font-size:12px;fill:#d0d0d0;fill-rule:nonzero;stroke:#000000;stroke-width:1;stroke-linecap:butt;stroke-linejoin:bevel;stroke-miterlimit:4;stroke-opacity:1;stroke-dasharray:none;marker-start:none"
     d="m 51.360518,67.710321 2.907,2.055 1.312,0.451 1.347,1.713 -4.142,0.198 -3.236,0.135 -0.139,-3.357 1.951,-1.195"
     id="Winona"
     inkscape:connector-curvature="0" />
  <path
     style="font-size:12px;fill:#d0d0d0;fill-rule:nonzero;stroke:#000000;stroke-width:1;stroke-linecap:butt;stroke-linejoin:bevel;stroke-miterlimit:4;stroke-opacity:1;stroke-dasharray:none;marker-start:none"
     d="m 43.825518,67.972321 1.179,-0.027 2.137,-0.081 0.05,1.127 2.218,-0.086 0.139,3.357 -3.425,0.307 -2.245,-0.108 -0.053,-4.489"
     id="Olmsted"
     inkscape:connector-curvature="0" />
  <path
     style="font-size:12px;fill:#d0d0d0;fill-rule:nonzero;stroke:#000000;stroke-width:1;stroke-linecap:butt;stroke-linejoin:bevel;stroke-miterlimit:4;stroke-opacity:1;stroke-dasharray:none;marker-start:none"
     d="m 40.480518,68.071321 3.345,-0.099 0.053,4.489 -3.303,0.113 -0.145,-4.503 0.05,0"
     id="Dodge"
     inkscape:connector-curvature="0" />
  <path
     style="font-size:12px;fill:#d0d0d0;fill-rule:nonzero;stroke:#000000;stroke-width:1;stroke-linecap:butt;stroke-linejoin:bevel;stroke-miterlimit:4;stroke-opacity:1;stroke-dasharray:none;marker-start:none"
     d="m 40.430518,68.071321 0.145,4.503 -0.035,0 -3.319,0.099 -0.121,-4.503 3.33,-0.099"
     id="Steele"
     inkscape:connector-curvature="0" />
  <path
     style="font-size:12px;fill:#d0d0d0;fill-rule:nonzero;stroke:#000000;stroke-width:1;stroke-linecap:butt;stroke-linejoin:bevel;stroke-miterlimit:4;stroke-opacity:1;stroke-dasharray:none;marker-start:none"
     d="m 36.004518,68.206321 1.096,-0.036 0.121,4.503 -2.244,0.058 -1.109,0.027 -0.108,-4.498 2.244,-0.054"
     id="Waseca"
     inkscape:connector-curvature="0" />
  <path
     style="font-size:12px;fill:#d0d0d0;fill-rule:nonzero;stroke:#000000;stroke-width:1;stroke-linecap:butt;stroke-linejoin:bevel;stroke-miterlimit:4;stroke-opacity:1;stroke-dasharray:none;marker-start:none"
     d="m 33.760518,68.260321 0.108,4.498 -4.453,0.1 -1.131,0.017 -0.058,-3.371 -0.059,-2.014 0.378,0.13 1.915,0.911 0.113,0.089 0.276,0.158 0.269,0.082 0.081,-0.01 0.388,-0.189 0.014,-0.09 -0.104,-0.82 2.263,0.509"
     id="Blue Earth"
     inkscape:connector-curvature="0" />
  <path
     style="font-size:12px;fill:#d0d0d0;fill-rule:nonzero;stroke:#000000;stroke-width:1;stroke-linecap:butt;stroke-linejoin:bevel;stroke-miterlimit:4;stroke-opacity:1;stroke-dasharray:none;marker-start:none"
     d="m 23.687518,69.576321 4.539,-0.072 0.058,3.371 -4.507,0.063 -0.045,0 -0.045,-3.362"
     id="Watonwan"
     inkscape:connector-curvature="0" />
  <path
     style="font-size:12px;fill:#d0d0d0;fill-rule:nonzero;stroke:#000000;stroke-width:1;stroke-linecap:butt;stroke-linejoin:bevel;stroke-miterlimit:4;stroke-opacity:1;stroke-dasharray:none;marker-start:none"
     d="m 18.102518,68.486321 3.268,-0.01 2.317,1.1 0.045,3.362 -5.513,0.054 -0.094,0 -0.023,-4.506"
     id="Cottonwood"
     inkscape:connector-curvature="0" />
  <path
     style="font-size:12px;fill:#d0d0d0;fill-rule:nonzero;stroke:#000000;stroke-width:1;stroke-linecap:butt;stroke-linejoin:bevel;stroke-miterlimit:4;stroke-opacity:1;stroke-dasharray:none;marker-start:none"
     d="m 16.889518,68.499321 1.213,-0.013 0.023,4.506 -5.476,-0.004 -0.113,0 0.009,-4.494 4.344,0.005"
     id="Murray"
     inkscape:connector-curvature="0" />
  <path
     style="font-size:12px;fill:#d0d0d0;fill-rule:nonzero;stroke:#000000;stroke-width:1;stroke-linecap:butt;stroke-linejoin:bevel;stroke-miterlimit:4;stroke-opacity:1;stroke-dasharray:none;marker-start:none"
     d="m 8.9485186,68.481321 3.4569994,0.013 0.14,0 -0.009,4.494 -3.6149994,-0.018 0.027,-4.489"
     id="Pipestone"
     inkscape:connector-curvature="0" />
  <path
     style="font-size:12px;fill:#d0d0d0;fill-rule:nonzero;stroke:#000000;stroke-width:1;stroke-linecap:butt;stroke-linejoin:bevel;stroke-miterlimit:4;stroke-opacity:1;stroke-dasharray:none;marker-start:none"
     d="m 8.9215186,72.970321 3.6149994,0.018 0.113,0 -0.01,4.516 -3.7359994,-0.013 0.018,-4.521"
     id="Rock"
     inkscape:connector-curvature="0" />
  <path
     style="font-size:12px;fill:#d0d0d0;fill-rule:nonzero;stroke:#000000;stroke-width:1;stroke-linecap:butt;stroke-linejoin:bevel;stroke-miterlimit:4;stroke-opacity:1;stroke-dasharray:none;marker-start:none"
     d="m 12.649518,72.988321 5.476,0.004 0.094,0 0.01,4.494 -3.8,0.023 -1.79,-0.005 0.01,-4.516"
     id="Nobles"
     inkscape:connector-curvature="0" />
  <path
     style="font-size:12px;fill:#d0d0d0;fill-rule:nonzero;stroke:#000000;stroke-width:1;stroke-linecap:butt;stroke-linejoin:bevel;stroke-miterlimit:4;stroke-opacity:1;stroke-dasharray:none;marker-start:none"
     d="m 23.732518,72.938321 0.045,0 0.054,4.499 -0.568,0.009 -4.412,0.04 -0.622,0 -0.01,-4.494 5.513,-0.054"
     id="Jackson"
     inkscape:connector-curvature="0" />
  <path
     style="font-size:12px;fill:#d0d0d0;fill-rule:nonzero;stroke:#000000;stroke-width:1;stroke-linecap:butt;stroke-linejoin:bevel;stroke-miterlimit:4;stroke-opacity:1;stroke-dasharray:none;marker-start:none"
     d="m 29.415518,72.858321 0.082,4.493 -1.826,0.031 -3.84,0.055 -0.054,-4.499 4.507,-0.063 1.131,-0.017"
     id="Martin"
     inkscape:connector-curvature="0" />
  <path
     style="font-size:12px;fill:#d0d0d0;fill-rule:nonzero;stroke:#000000;stroke-width:1;stroke-linecap:butt;stroke-linejoin:bevel;stroke-miterlimit:4;stroke-opacity:1;stroke-dasharray:none;marker-start:none"
     d="m 34.977518,72.731321 0.108,4.511 -3.006,0.068 -2.582,0.041 -0.082,-4.493 4.453,-0.1 1.109,-0.027"
     id="Faribault"
     inkscape:connector-curvature="0" />
  <path
     style="font-size:12px;fill:#d0d0d0;fill-rule:nonzero;stroke:#000000;stroke-width:1;stroke-linecap:butt;stroke-linejoin:bevel;stroke-miterlimit:4;stroke-opacity:1;stroke-dasharray:none;marker-start:none"
     d="m 40.540518,72.574321 0.143,4.511 -4.182,0.121 -1.416,0.036 -0.108,-4.511 2.244,-0.058 3.319,-0.099"
     id="Freeborn"
     inkscape:connector-curvature="0" />
  <path
     style="font-size:12px;fill:#d0d0d0;fill-rule:nonzero;stroke:#000000;stroke-width:1;stroke-linecap:butt;stroke-linejoin:bevel;stroke-miterlimit:4;stroke-opacity:1;stroke-dasharray:none;marker-start:none"
     d="m 43.878518,72.461321 2.245,0.108 0.163,4.313 -0.974,0.036 -4.399,0.157 -0.23,0.01 -0.143,-4.511 0.035,0 3.303,-0.113"
     id="Mower"
     inkscape:connector-curvature="0" />
</svg>
