<?xml version="1.0" encoding="UTF-8" standalone="no"?>
<!-- Created with Inkscape (http://www.inkscape.org/) -->

<svg
   xmlns:dc="http://purl.org/dc/elements/1.1/"
   xmlns:cc="http://creativecommons.org/ns#"
   xmlns:rdf="http://www.w3.org/1999/02/22-rdf-syntax-ns#"
   xmlns:svg="http://www.w3.org/2000/svg"
   xmlns="http://www.w3.org/2000/svg"
   xmlns:sodipodi="http://sodipodi.sourceforge.net/DTD/sodipodi-0.dtd"
   xmlns:inkscape="http://www.inkscape.org/namespaces/inkscape"
   version="1.0"
   width="34.599998"
   height="57.5"
   sodipodi:version="0.32"
   inkscape:version="0.48.2 r9819"
   sodipodi:docname="in.svg"
   inkscape:output_extension="org.inkscape.output.svg.inkscape"
   id="svg3345">
  <metadata
     id="metadata3347">
    <rdf:RDF>
      <cc:Work
         rdf:about="">
        <dc:format>image/svg+xml</dc:format>
        <dc:type
           rdf:resource="http://purl.org/dc/dcmitype/StillImage" />
      </cc:Work>
    </rdf:RDF>
  </metadata>
  <defs
     id="defs3349" />
  <sodipodi:namedview
     pagecolor="#ffffff"
     bordercolor="#666666"
     borderopacity="1"
     objecttolerance="10"
     gridtolerance="10"
     guidetolerance="10"
     inkscape:pageopacity="0"
     inkscape:pageshadow="2"
     inkscape:window-width="1366"
     inkscape:window-height="716"
     fit-margin-top="0"
     fit-margin-left="0"
     fit-margin-right="0"
     fit-margin-bottom="0"
     inkscape:zoom="4.6213886"
     inkscape:cx="-58.845242"
     inkscape:cy="26.862826"
     inkscape:window-x="-8"
     inkscape:window-y="-8"
     inkscape:window-maximized="1"
     inkscape:current-layer="svg3345"
     id="namedview3351"
     showgrid="false" />
  <path
     style="font-size:12px;fill:#d0d0d0;fill-rule:nonzero;stroke:#000000;stroke-width:1;stroke-linecap:butt;stroke-linejoin:bevel;stroke-miterlimit:4;stroke-opacity:1;stroke-dasharray:none;marker-start:none"
     d="m 8.7109666,4.5461878 0.615,6.1210002 -0.082,0.108 -0.276,0.154 -0.085,-0.024 -0.744,-0.472 -0.522,-0.181 -0.194,-0.049 -0.108,0.022 -0.545,0.316 -0.226,0.324 -0.492,-4.9350002 2.659,-1.384"
     id="Porter"
     inkscape:connector-curvature="0" />
  <path
     style="font-size:12px;fill:#d0d0d0;fill-rule:nonzero;stroke:#000000;stroke-width:1;stroke-linecap:butt;stroke-linejoin:bevel;stroke-miterlimit:4;stroke-opacity:1;stroke-dasharray:none;marker-start:none"
     d="m 3.0739666,5.1001878 2.978,0.83 0.492,4.9350002 -0.519,0.352 -2.348,0.896 -0.153,-1.708 -0.45,-5.3050002"
     id="Lake"
     inkscape:connector-curvature="0" />
  <path
     style="font-size:12px;fill:#d0d0d0;fill-rule:nonzero;stroke:#000000;stroke-width:1;stroke-linecap:butt;stroke-linejoin:bevel;stroke-miterlimit:4;stroke-opacity:1;stroke-dasharray:none;marker-start:none"
     d="m 15.512967,48.900188 1.09,-0.153 1.177,0.662 0.163,1.426 -0.199,0.679 -0.059,0.008 -0.207,0.038 -0.054,0.031 -0.041,0.058 -0.017,0.141 0.076,0.77 -0.658,1.5 -0.28,0.217 -0.134,0.045 -0.077,-0.005 -1.793,-1.86 -0.033,-2.7 -0.062,-0.568 1.136,-0.095 -0.028,-0.194"
     id="Perry"
     inkscape:connector-curvature="0" />
  <path
     style="font-size:12px;fill:#d0d0d0;fill-rule:nonzero;stroke:#000000;stroke-width:1;stroke-linecap:butt;stroke-linejoin:bevel;stroke-miterlimit:4;stroke-opacity:1;stroke-dasharray:none;marker-start:none"
     d="m 14.466967,49.757188 0.033,2.7 -1.569,1.04 -0.627,0.587 -0.753,1.36 -1.473,-0.982 -0.049,-0.622 0.017,-0.049 1.708,-2.579 0.451,-1.216 2.262,-0.239"
     id="Spencer"
     inkscape:connector-curvature="0" />
  <path
     style="font-size:12px;fill:#d0d0d0;fill-rule:nonzero;stroke:#000000;stroke-width:1;stroke-linecap:butt;stroke-linejoin:bevel;stroke-miterlimit:4;stroke-opacity:1;stroke-dasharray:none;marker-start:none"
     d="m 9.1579666,49.726188 2.4570004,-0.055 0.59,0.325 -0.451,1.216 -1.708,2.579 -0.017,0.049 0.049,0.622 -0.3610004,-0.252 -1.546,-0.415 -0.099,-1.217 -0.235,0.023 -0.089,-1.127 -0.005,-0.568 -0.032,-0.464 1.498,-0.144 -0.051,-0.572"
     id="Warrick"
     inkscape:connector-curvature="0" />
  <path
     style="font-size:12px;fill:#d0d0d0;fill-rule:nonzero;stroke:#000000;stroke-width:1;stroke-linecap:butt;stroke-linejoin:bevel;stroke-miterlimit:4;stroke-opacity:1;stroke-dasharray:none;marker-start:none"
     d="m 5.5249666,51.063188 2.218,-0.157 0.005,0.568 0.089,1.127 0.235,-0.023 0.099,1.217 -2.465,0.744 -0.181,-3.476"
     id="Vanderburgh"
     inkscape:connector-curvature="0" />
  <path
     style="font-size:12px;fill:#d0d0d0;fill-rule:nonzero;stroke:#000000;stroke-width:1;stroke-linecap:butt;stroke-linejoin:bevel;stroke-miterlimit:4;stroke-opacity:1;stroke-dasharray:none;marker-start:none"
     d="m 2.7809666,50.496188 2.744,0.567 0.181,3.476 -2.286,0.181 -0.901,1.419 -0.509,-1.141 0.483,-0.018 0.017,-0.003 0.022,-0.015 0.006,-0.009 0.027,-0.055 0.144,-2.987 0.058,-1.352 0.014,-0.063"
     id="Posey"
     inkscape:connector-curvature="0" />
  <path
     style="font-size:12px;fill:#d0d0d0;fill-rule:nonzero;stroke:#000000;stroke-width:1;stroke-linecap:butt;stroke-linejoin:bevel;stroke-miterlimit:4;stroke-opacity:1;stroke-dasharray:none;marker-start:none"
     d="m 4.7229666,47.917188 2.637,-1.779 0.077,0.878 0.22,0.365 0.591,0.713 0.14,-0.05 0.531,-0.09 0.085,0.036 0.205,2.308 -1.498,0.144 0.032,0.464 -2.218,0.157 -2.744,-0.567 1.942,-2.579"
     id="Gibson"
     inkscape:connector-curvature="0" />
  <path
     style="font-size:12px;fill:#d0d0d0;fill-rule:nonzero;stroke:#000000;stroke-width:1;stroke-linecap:butt;stroke-linejoin:bevel;stroke-miterlimit:4;stroke-opacity:1;stroke-dasharray:none;marker-start:none"
     d="m 9.5499666,45.786188 1.7270004,0.234 0.338,3.651 -2.4570004,0.055 -0.154,-1.736 -0.085,-0.036 -0.531,0.09 -0.14,0.05 -0.591,-0.713 -0.22,-0.365 -0.077,-0.878 0.365,-0.131 0.663,-0.104 0.067,0.019 0.546,0.368 0.129,-0.035 0.172,-0.153 0.131,-0.131 0.117,-0.185"
     id="Pike"
     inkscape:connector-curvature="0" />
  <path
     style="font-size:12px;fill:#d0d0d0;fill-rule:nonzero;stroke:#000000;stroke-width:1;stroke-linecap:butt;stroke-linejoin:bevel;stroke-miterlimit:4;stroke-opacity:1;stroke-dasharray:none;marker-start:none"
     d="m 15.151967,45.497188 0.176,1.698 0.185,1.705 0.028,0.194 -1.136,0.095 0.062,0.568 -2.262,0.239 -0.59,-0.325 -0.338,-3.651 1.491,-0.008 2.384,-0.515"
     id="Dubois"
     inkscape:connector-curvature="0" />
  <path
     style="font-size:12px;fill:#d0d0d0;fill-rule:nonzero;stroke:#000000;stroke-width:1;stroke-linecap:butt;stroke-linejoin:bevel;stroke-miterlimit:4;stroke-opacity:1;stroke-dasharray:none;marker-start:none"
     d="m 19.014967,46.458188 0.536,-0.051 0.226,3.801 -2.033,1.306 0.199,-0.679 -0.163,-1.426 -1.177,-0.662 -1.09,0.153 -0.185,-1.705 2.29,-0.251 1.433,-0.112 -0.036,-0.374"
     id="Crawford"
     inkscape:connector-curvature="0" />
  <path
     style="font-size:12px;fill:#d0d0d0;fill-rule:nonzero;stroke:#000000;stroke-width:1;stroke-linecap:butt;stroke-linejoin:bevel;stroke-miterlimit:4;stroke-opacity:1;stroke-dasharray:none;marker-start:none"
     d="m 21.772967,46.236188 0.122,1.127 0.221,0.356 0.032,0 0.41,0.302 0.207,0.171 0.645,0.907 0.013,0.099 -0.248,2.267 -0.487,0.166 -0.301,0.099 -1.456,-0.072 -0.072,-0.009 -0.438,-0.172 -0.455,-0.301 -0.049,-0.031 -0.023,-0.036 -0.059,-0.09 -0.072,-0.252 -0.009,-0.023 -0.004,-0.059 -0.004,-0.09 0,-0.023 0.031,-0.364 -0.226,-3.801 2.222,-0.171"
     id="Harrison"
     inkscape:connector-curvature="0" />
  <path
     style="font-size:12px;fill:#d0d0d0;fill-rule:nonzero;stroke:#000000;stroke-width:1;stroke-linecap:butt;stroke-linejoin:bevel;stroke-miterlimit:4;stroke-opacity:1;stroke-dasharray:none;marker-start:none"
     d="m 22.151967,46.192188 0.01,0.094 0.288,0.067 1.582,-0.179 0.55,0.649 -0.221,0.829 -0.938,1.546 -0.013,-0.099 -0.645,-0.907 -0.207,-0.171 -0.41,-0.302 -0.032,0 -0.221,-0.356 -0.122,-1.127 0.379,-0.044"
     id="Floyd"
     inkscape:connector-curvature="0" />
  <path
     style="font-size:12px;fill:#d0d0d0;fill-rule:nonzero;stroke:#000000;stroke-width:1;stroke-linecap:butt;stroke-linejoin:bevel;stroke-miterlimit:4;stroke-opacity:1;stroke-dasharray:none;marker-start:none"
     d="m 26.117967,43.308188 1.452,0.097 0.031,0.813 -1.839,2.082 -1.401,1.352 0.221,-0.829 -0.55,-0.649 -1.582,0.179 -0.288,-0.067 -0.01,-0.094 -0.081,-0.911 0.437,-0.221 0.622,-0.084 0.167,-0.213 0.144,-0.393 -0.023,-0.179 2.7,-0.883"
     id="Clark"
     inkscape:connector-curvature="0" />
  <path
     style="font-size:12px;fill:#d0d0d0;fill-rule:nonzero;stroke:#000000;stroke-width:1;stroke-linecap:butt;stroke-linejoin:bevel;stroke-miterlimit:4;stroke-opacity:1;stroke-dasharray:none;marker-start:none"
     d="m 29.961967,38.403188 2.39,-1.356 0.995,1.586 -3.388,0.013 0.003,-0.243"
     id="Ohio"
     inkscape:connector-curvature="0" />
  <path
     style="font-size:12px;fill:#d0d0d0;fill-rule:nonzero;stroke:#000000;stroke-width:1;stroke-linecap:butt;stroke-linejoin:bevel;stroke-miterlimit:4;stroke-opacity:1;stroke-dasharray:none;marker-start:none"
     d="m 29.958967,38.646188 3.388,-0.013 0.136,0.563 -2.182,1.475 -1.64,1.122 -0.347,-2.866 0.645,-0.281"
     id="Switzerland"
     inkscape:connector-curvature="0" />
  <path
     style="font-size:12px;fill:#d0d0d0;fill-rule:nonzero;stroke:#000000;stroke-width:1;stroke-linecap:butt;stroke-linejoin:bevel;stroke-miterlimit:4;stroke-opacity:1;stroke-dasharray:none;marker-start:none"
     d="m 26.919967,39.205188 2.394,-0.278 0.347,2.866 -1.393,-0.483 -0.698,2.095 -1.452,-0.097 -0.113,-0.938 -0.387,-0.144 -0.298,-0.163 -0.323,-0.343 -0.222,-0.284 -0.081,-0.708 0.712,-0.193 0.315,-0.505 0.1,-0.305 0.18,-0.408 0.919,-0.112"
     id="Jefferson"
     inkscape:connector-curvature="0" />
  <path
     style="font-size:12px;fill:#d0d0d0;fill-rule:nonzero;stroke:#000000;stroke-width:1;stroke-linecap:butt;stroke-linejoin:bevel;stroke-miterlimit:4;stroke-opacity:1;stroke-dasharray:none;marker-start:none"
     d="m 24.693967,40.728188 0.081,0.708 0.222,0.284 0.323,0.343 0.298,0.163 0.387,0.144 0.113,0.938 -2.7,0.883 -0.644,-2.196 0.825,-1.045 1.095,-0.222"
     id="Scott"
     inkscape:connector-curvature="0" />
  <path
     style="font-size:12px;fill:#d0d0d0;fill-rule:nonzero;stroke:#000000;stroke-width:1;stroke-linecap:butt;stroke-linejoin:bevel;stroke-miterlimit:4;stroke-opacity:1;stroke-dasharray:none;marker-start:none"
     d="m 18.893967,42.019188 3.88,-0.024 0.644,2.196 0.023,0.179 -0.144,0.393 -0.167,0.213 -0.622,0.084 -0.437,0.221 0.081,0.911 -0.379,0.044 -2.222,0.171 -0.536,0.051 -0.351,-3.431 0.23,-1.008"
     id="Washington"
     inkscape:connector-curvature="0" />
  <path
     style="font-size:12px;fill:#d0d0d0;fill-rule:nonzero;stroke:#000000;stroke-width:1;stroke-linecap:butt;stroke-linejoin:bevel;stroke-miterlimit:4;stroke-opacity:1;stroke-dasharray:none;marker-start:none"
     d="m 18.663967,43.027188 0.351,3.431 0.036,0.374 -1.433,0.112 -2.29,0.251 -0.176,-1.698 -0.211,-2.073 3.723,-0.397"
     id="Orange"
     inkscape:connector-curvature="0" />
  <path
     style="font-size:12px;fill:#d0d0d0;fill-rule:nonzero;stroke:#000000;stroke-width:1;stroke-linecap:butt;stroke-linejoin:bevel;stroke-miterlimit:4;stroke-opacity:1;stroke-dasharray:none;marker-start:none"
     d="m 12.470967,40.818188 2.195,-0.219 0.275,2.825 0.211,2.073 -2.384,0.515 -0.297,-5.194"
     id="Martin"
     inkscape:connector-curvature="0" />
  <path
     style="font-size:12px;fill:#d0d0d0;fill-rule:nonzero;stroke:#000000;stroke-width:1;stroke-linecap:butt;stroke-linejoin:bevel;stroke-miterlimit:4;stroke-opacity:1;stroke-dasharray:none;marker-start:none"
     d="m 10.541967,41.004188 1.929,-0.186 0.297,5.194 -1.491,0.008 -1.7270004,-0.234 -0.45,-1.975 0.135,-1.058 0.176,-0.348 0.8430004,-1.171 0.288,-0.23"
     id="Daviess"
     inkscape:connector-curvature="0" />
  <path
     style="font-size:12px;fill:#d0d0d0;fill-rule:nonzero;stroke:#000000;stroke-width:1;stroke-linecap:butt;stroke-linejoin:bevel;stroke-miterlimit:4;stroke-opacity:1;stroke-dasharray:none;marker-start:none"
     d="m 9.1269666,41.085188 1.4150004,-0.081 -0.288,0.23 -0.8430004,1.171 -0.176,0.348 -0.135,1.058 0.45,1.975 -0.117,0.185 -0.131,0.131 -0.172,0.153 -0.129,0.035 -0.546,-0.368 -0.067,-0.019 -0.663,0.104 -0.365,0.131 -2.637,1.779 0.717,-2.064 0.194,-0.528 0.789,-1.009 0.08,-0.067 0.099,-0.181 0.141,-0.82 0.004,-0.315 -0.384,-0.825 -0.022,-0.036 -0.041,-0.005 -0.081,-0.643 2.908,-0.339"
     id="Knox"
     inkscape:connector-curvature="0" />
  <path
     style="font-size:12px;fill:#d0d0d0;fill-rule:nonzero;stroke:#000000;stroke-width:1;stroke-linecap:butt;stroke-linejoin:bevel;stroke-miterlimit:4;stroke-opacity:1;stroke-dasharray:none;marker-start:none"
     d="m 8.7109666,36.542188 0.1,1.127 0.316,3.416 -2.908,0.339 0.059,-0.081 0.072,-0.204 0.027,-0.411 -0.716,-1.279 -0.469,-0.551 -0.203,-0.693 0.131,-1.343 3.591,-0.32"
     id="Sullivan"
     inkscape:connector-curvature="0" />
  <path
     style="font-size:12px;fill:#d0d0d0;fill-rule:nonzero;stroke:#000000;stroke-width:1;stroke-linecap:butt;stroke-linejoin:bevel;stroke-miterlimit:4;stroke-opacity:1;stroke-dasharray:none;marker-start:none"
     d="m 10.654967,37.547188 3.678,-0.324 0.225,2.24 0.108,1.136 -2.195,0.219 -1.929,0.186 -1.4150004,0.081 -0.316,-3.416 1.8440004,-0.122"
     id="Greene"
     inkscape:connector-curvature="0" />
  <path
     style="font-size:12px;fill:#d0d0d0;fill-rule:nonzero;stroke:#000000;stroke-width:1;stroke-linecap:butt;stroke-linejoin:bevel;stroke-miterlimit:4;stroke-opacity:1;stroke-dasharray:none;marker-start:none"
     d="m 14.557967,39.463188 3.614,-0.343 0.722,2.899 -0.23,1.008 -3.723,0.397 -0.275,-2.825 -0.108,-1.136"
     id="Lawrence"
     inkscape:connector-curvature="0" />
  <path
     style="font-size:12px;fill:#d0d0d0;fill-rule:nonzero;stroke:#000000;stroke-width:1;stroke-linecap:butt;stroke-linejoin:bevel;stroke-miterlimit:4;stroke-opacity:1;stroke-dasharray:none;marker-start:none"
     d="m 20.443967,38.110188 2.754,-0.526 0.401,3.366 -0.825,1.045 -3.88,0.024 -0.722,-2.899 -0.081,-0.748 2.353,-0.262"
     id="Jackson"
     inkscape:connector-curvature="0" />
  <path
     style="font-size:12px;fill:#d0d0d0;fill-rule:nonzero;stroke:#000000;stroke-width:1;stroke-linecap:butt;stroke-linejoin:bevel;stroke-miterlimit:4;stroke-opacity:1;stroke-dasharray:none;marker-start:none"
     d="m 26.564967,35.550188 0.355,3.655 -0.919,0.112 -0.18,0.408 -0.1,0.305 -0.315,0.505 -0.712,0.193 -1.095,0.222 -0.401,-3.366 1.022,-0.929 2.345,-1.105"
     id="Jennings"
     inkscape:connector-curvature="0" />
  <path
     style="font-size:12px;fill:#d0d0d0;fill-rule:nonzero;stroke:#000000;stroke-width:1;stroke-linecap:butt;stroke-linejoin:bevel;stroke-miterlimit:4;stroke-opacity:1;stroke-dasharray:none;marker-start:none"
     d="m 30.087967,33.689188 -0.126,4.714 -0.003,0.243 -0.645,0.281 -2.394,0.278 -0.355,-3.655 1.307,-1.1 2.216,-0.761"
     id="Ripley"
     inkscape:connector-curvature="0" />
  <path
     style="font-size:12px;fill:#d0d0d0;fill-rule:nonzero;stroke:#000000;stroke-width:1;stroke-linecap:butt;stroke-linejoin:bevel;stroke-miterlimit:4;stroke-opacity:1;stroke-dasharray:none;marker-start:none"
     d="m 30.087967,33.689188 2.426,-0.257 0.297,2.579 -0.459,1.036 -2.39,1.356 0.126,-4.714"
     id="Dearborn"
     inkscape:connector-curvature="0" />
  <path
     style="font-size:12px;fill:#d0d0d0;fill-rule:nonzero;stroke:#000000;stroke-width:1;stroke-linecap:butt;stroke-linejoin:bevel;stroke-miterlimit:4;stroke-opacity:1;stroke-dasharray:none;marker-start:none"
     d="m 32.225967,30.628188 0.288,2.804 -2.426,0.257 -2.216,0.761 -0.28,-2.388 -0.113,-0.928 2.573,-0.307 2.174,-0.199"
     id="Franklin"
     inkscape:connector-curvature="0" />
  <path
     style="font-size:12px;fill:#d0d0d0;fill-rule:nonzero;stroke:#000000;stroke-width:1;stroke-linecap:butt;stroke-linejoin:bevel;stroke-miterlimit:4;stroke-opacity:1;stroke-dasharray:none;marker-start:none"
     d="m 24.328967,32.432188 3.263,-0.37 0.28,2.388 -1.307,1.1 -2.345,1.105 -0.288,-2.835 0.397,-1.388"
     id="Decatur"
     inkscape:connector-curvature="0" />
  <path
     style="font-size:12px;fill:#d0d0d0;fill-rule:nonzero;stroke:#000000;stroke-width:1;stroke-linecap:butt;stroke-linejoin:bevel;stroke-miterlimit:4;stroke-opacity:1;stroke-dasharray:none;marker-start:none"
     d="m 23.931967,33.820188 0.288,2.835 -1.022,0.929 -2.754,0.526 -0.45,-3.795 1.311,-0.175 2.627,-0.32"
     id="Bartholomew"
     inkscape:connector-curvature="0" />
  <path
     style="font-size:12px;fill:#d0d0d0;fill-rule:nonzero;stroke:#000000;stroke-width:1;stroke-linecap:butt;stroke-linejoin:bevel;stroke-miterlimit:4;stroke-opacity:1;stroke-dasharray:none;marker-start:none"
     d="m 18.356967,34.519188 1.637,-0.204 0.45,3.795 -2.353,0.262 -1.009,-3.696 1.275,-0.157"
     id="Brown"
     inkscape:connector-curvature="0" />
  <path
     style="font-size:12px;fill:#d0d0d0;fill-rule:nonzero;stroke:#000000;stroke-width:1;stroke-linecap:butt;stroke-linejoin:bevel;stroke-miterlimit:4;stroke-opacity:1;stroke-dasharray:none;marker-start:none"
     d="m 14.616967,34.815188 2.465,-0.139 1.009,3.696 0.081,0.748 -3.614,0.343 -0.225,-2.24 0.284,-2.408"
     id="Monroe"
     inkscape:connector-curvature="0" />
  <path
     style="font-size:12px;fill:#d0d0d0;fill-rule:nonzero;stroke:#000000;stroke-width:1;stroke-linecap:butt;stroke-linejoin:bevel;stroke-miterlimit:4;stroke-opacity:1;stroke-dasharray:none;marker-start:none"
     d="m 11.411967,33.490188 2.492,-0.202 0.713,1.527 -0.284,2.408 -3.678,0.324 -0.203,-2.262 1.094,-0.095 -0.134,-1.7"
     id="Owen"
     inkscape:connector-curvature="0" />
  <path
     style="font-size:12px;fill:#d0d0d0;fill-rule:nonzero;stroke:#000000;stroke-width:1;stroke-linecap:butt;stroke-linejoin:bevel;stroke-miterlimit:4;stroke-opacity:1;stroke-dasharray:none;marker-start:none"
     d="m 8.6989666,31.999188 1.8330004,-0.145 0.88,1.636 0.134,1.7 -1.094,0.095 0.203,2.262 -1.8440004,0.122 -0.1,-1.127 -0.296,-3.39 0.378,-0.022 -0.094,-1.131"
     id="Clay"
     inkscape:connector-curvature="0" />
  <path
     style="font-size:12px;fill:#d0d0d0;fill-rule:nonzero;stroke:#000000;stroke-width:1;stroke-linecap:butt;stroke-linejoin:bevel;stroke-miterlimit:4;stroke-opacity:1;stroke-dasharray:none;marker-start:none"
     d="m 8.6989666,31.999188 0.094,1.131 -0.378,0.022 0.296,3.39 -3.591,0.32 0.46,-2.885 -0.154,-1.685 1.47,-0.14 1.803,-0.153"
     id="Vigo"
     inkscape:connector-curvature="0" />
  <path
     style="font-size:12px;fill:#d0d0d0;fill-rule:nonzero;stroke:#000000;stroke-width:1;stroke-linecap:butt;stroke-linejoin:bevel;stroke-miterlimit:4;stroke-opacity:1;stroke-dasharray:none;marker-start:none"
     d="m 6.0479666,25.449188 0.072,2.277 0.451,0.59 0.127,0.167 0.179,0.356 -0.085,2.307 0.104,1.006 -1.47,0.14 -0.329,-3.569 -0.288,-3.43 1.239,0.156"
     id="Vermillion"
     inkscape:connector-curvature="0" />
  <path
     style="font-size:12px;fill:#d0d0d0;fill-rule:nonzero;stroke:#000000;stroke-width:1;stroke-linecap:butt;stroke-linejoin:bevel;stroke-miterlimit:4;stroke-opacity:1;stroke-dasharray:none;marker-start:none"
     d="m 9.3429666,27.424188 0.9020004,1.042 0.287,3.388 -1.8330004,0.145 -1.803,0.153 -0.104,-1.006 0.085,-2.307 -0.179,-0.356 -0.127,-0.167 -0.451,-0.59 3.223,-0.302"
     id="Parke"
     inkscape:connector-curvature="0" />
  <path
     style="font-size:12px;fill:#d0d0d0;fill-rule:nonzero;stroke:#000000;stroke-width:1;stroke-linecap:butt;stroke-linejoin:bevel;stroke-miterlimit:4;stroke-opacity:1;stroke-dasharray:none;marker-start:none"
     d="m 10.244967,28.466188 3.078,-0.276 0.081,-0.009 0.171,1.771 0.294,1.249 0.166,0.365 -0.131,1.722 -2.492,0.202 -0.88,-1.636 -0.287,-3.388"
     id="Putnam"
     inkscape:connector-curvature="0" />
  <path
     style="font-size:12px;fill:#d0d0d0;fill-rule:nonzero;stroke:#000000;stroke-width:1;stroke-linecap:butt;stroke-linejoin:bevel;stroke-miterlimit:4;stroke-opacity:1;stroke-dasharray:none;marker-start:none"
     d="m 17.987967,30.741188 0.369,3.778 -1.275,0.157 -2.465,0.139 -0.713,-1.527 0.131,-1.722 1.88,-0.185 -0.041,-0.378 1.271,-0.153 0.095,-0.009 0.748,-0.1"
     id="Morgan"
     inkscape:connector-curvature="0" />
  <path
     style="font-size:12px;fill:#d0d0d0;fill-rule:nonzero;stroke:#000000;stroke-width:1;stroke-linecap:butt;stroke-linejoin:bevel;stroke-miterlimit:4;stroke-opacity:1;stroke-dasharray:none;marker-start:none"
     d="m 20.903967,30.377188 0.401,3.763 -1.311,0.175 -1.637,0.204 -0.369,-3.778 2.916,-0.364"
     id="Johnson"
     inkscape:connector-curvature="0" />
  <path
     style="font-size:12px;fill:#d0d0d0;fill-rule:nonzero;stroke:#000000;stroke-width:1;stroke-linecap:butt;stroke-linejoin:bevel;stroke-miterlimit:4;stroke-opacity:1;stroke-dasharray:none;marker-start:none"
     d="m 20.826967,29.614188 3.119,-0.355 0.383,3.173 -0.397,1.388 -2.627,0.32 -0.401,-3.763 -0.077,-0.763"
     id="Shelby"
     inkscape:connector-curvature="0" />
  <path
     style="font-size:12px;fill:#d0d0d0;fill-rule:nonzero;stroke:#000000;stroke-width:1;stroke-linecap:butt;stroke-linejoin:bevel;stroke-miterlimit:4;stroke-opacity:1;stroke-dasharray:none;marker-start:none"
     d="m 24.174967,28.082188 2.89,-0.334 0.527,4.314 -3.263,0.37 -0.383,-3.173 0.229,-1.177"
     id="Rush"
     inkscape:connector-curvature="0" />
  <path
     style="font-size:12px;fill:#d0d0d0;fill-rule:nonzero;stroke:#000000;stroke-width:1;stroke-linecap:butt;stroke-linejoin:bevel;stroke-miterlimit:4;stroke-opacity:1;stroke-dasharray:none;marker-start:none"
     d="m 27.064967,27.748188 0.784,-0.099 0.37,-0.04 0.094,0.942 1.474,-0.157 0.265,2.433 -2.573,0.307 -0.414,-3.386"
     id="Fayette"
     inkscape:connector-curvature="0" />
  <path
     style="font-size:12px;fill:#d0d0d0;fill-rule:nonzero;stroke:#000000;stroke-width:1;stroke-linecap:butt;stroke-linejoin:bevel;stroke-miterlimit:4;stroke-opacity:1;stroke-dasharray:none;marker-start:none"
     d="m 29.786967,28.394188 2.136,-0.407 0.235,2.056 0.068,0.585 -2.174,0.199 -0.265,-2.433"
     id="Union"
     inkscape:connector-curvature="0" />
  <path
     style="font-size:12px;fill:#d0d0d0;fill-rule:nonzero;stroke:#000000;stroke-width:1;stroke-linecap:butt;stroke-linejoin:bevel;stroke-miterlimit:4;stroke-opacity:1;stroke-dasharray:none;marker-start:none"
     d="m 31.531967,24.386188 0.117,1.141 0.274,2.46 -2.136,0.407 -1.474,0.157 -0.094,-0.942 -0.37,0.04 -0.127,-2.812 3.81,-0.451"
     id="Wayne"
     inkscape:connector-curvature="0" />
  <path
     style="font-size:12px;fill:#d0d0d0;fill-rule:nonzero;stroke:#000000;stroke-width:1;stroke-linecap:butt;stroke-linejoin:bevel;stroke-miterlimit:4;stroke-opacity:1;stroke-dasharray:none;marker-start:none"
     d="m 23.963967,24.310188 3.53,-0.393 0.228,0.92 0.127,2.812 -0.784,0.099 -2.89,0.334 -0.026,-2.078 -0.185,-1.694"
     id="Henry"
     inkscape:connector-curvature="0" />
  <path
     style="font-size:12px;fill:#d0d0d0;fill-rule:nonzero;stroke:#000000;stroke-width:1;stroke-linecap:butt;stroke-linejoin:bevel;stroke-miterlimit:4;stroke-opacity:1;stroke-dasharray:none;marker-start:none"
     d="m 24.148967,26.004188 0.026,2.078 -0.229,1.177 -3.119,0.355 -0.18,-2.987 0.712,-0.289 2.79,-0.334"
     id="Hancock"
     inkscape:connector-curvature="0" />
  <path
     style="font-size:12px;fill:#d0d0d0;fill-rule:nonzero;stroke:#000000;stroke-width:1;stroke-linecap:butt;stroke-linejoin:bevel;stroke-miterlimit:4;stroke-opacity:1;stroke-dasharray:none;marker-start:none"
     d="m 20.646967,26.627188 0.18,2.987 0.077,0.763 -2.916,0.364 -0.748,0.1 -0.384,-3.778 0.835,-0.107 2.956,-0.329"
     id="Marion"
     inkscape:connector-curvature="0" />
  <path
     style="font-size:12px;fill:#d0d0d0;fill-rule:nonzero;stroke:#000000;stroke-width:1;stroke-linecap:butt;stroke-linejoin:bevel;stroke-miterlimit:4;stroke-opacity:1;stroke-dasharray:none;marker-start:none"
     d="m 16.855967,27.063188 0.384,3.778 -0.095,0.009 -1.271,0.153 0.041,0.378 -1.88,0.185 -0.166,-0.365 -0.294,-1.249 -0.171,-1.771 -0.081,0.009 -0.072,-0.748 3.605,-0.379"
     id="Hendricks"
     inkscape:connector-curvature="0" />
  <path
     style="font-size:12px;fill:#d0d0d0;fill-rule:nonzero;stroke:#000000;stroke-width:1;stroke-linecap:butt;stroke-linejoin:bevel;stroke-miterlimit:4;stroke-opacity:1;stroke-dasharray:none;marker-start:none"
     d="m 17.333967,23.661188 0.357,3.295 -0.835,0.107 -3.605,0.379 -0.334,-3.308 4.417,-0.473"
     id="Boone"
     inkscape:connector-curvature="0" />
  <path
     style="font-size:12px;fill:#d0d0d0;fill-rule:nonzero;stroke:#000000;stroke-width:1;stroke-linecap:butt;stroke-linejoin:bevel;stroke-miterlimit:4;stroke-opacity:1;stroke-dasharray:none;marker-start:none"
     d="m 17.283967,23.205188 3.701,-0.427 0.374,3.56 -0.712,0.289 -2.956,0.329 -0.357,-3.295 -0.05,-0.456"
     id="Hamilton"
     inkscape:connector-curvature="0" />
  <path
     style="font-size:12px;fill:#d0d0d0;fill-rule:nonzero;stroke:#000000;stroke-width:1;stroke-linecap:butt;stroke-linejoin:bevel;stroke-miterlimit:4;stroke-opacity:1;stroke-dasharray:none;marker-start:none"
     d="m 27.109967,20.951188 4.024,-0.509 0.398,3.944 -3.81,0.451 -0.228,-0.92 -0.384,-2.966"
     id="Randolph"
     inkscape:connector-curvature="0" />
  <path
     style="font-size:12px;fill:#d0d0d0;fill-rule:nonzero;stroke:#000000;stroke-width:1;stroke-linecap:butt;stroke-linejoin:bevel;stroke-miterlimit:4;stroke-opacity:1;stroke-dasharray:none;marker-start:none"
     d="m 26.992967,20.019188 0.117,0.932 0.384,2.966 -3.53,0.393 -0.45,-3.904 1.302,-0.139 2.177,-0.248"
     id="Delaware"
     inkscape:connector-curvature="0" />
  <path
     style="font-size:12px;fill:#d0d0d0;fill-rule:nonzero;stroke:#000000;stroke-width:1;stroke-linecap:butt;stroke-linejoin:bevel;stroke-miterlimit:4;stroke-opacity:1;stroke-dasharray:none;marker-start:none"
     d="m 23.513967,20.406188 0.45,3.904 0.185,1.694 -2.79,0.334 -0.374,-3.56 -0.226,-2.061 2.755,-0.311"
     id="Madison"
     inkscape:connector-curvature="0" />
  <path
     style="font-size:12px;fill:#d0d0d0;fill-rule:nonzero;stroke:#000000;stroke-width:1;stroke-linecap:butt;stroke-linejoin:bevel;stroke-miterlimit:4;stroke-opacity:1;stroke-dasharray:none;marker-start:none"
     d="m 20.758967,20.717188 0.226,2.061 -3.701,0.427 -0.216,-2.042 3.655,-0.811 0.036,0.365"
     id="Tipton"
     inkscape:connector-curvature="0" />
  <path
     style="font-size:12px;fill:#d0d0d0;fill-rule:nonzero;stroke:#000000;stroke-width:1;stroke-linecap:butt;stroke-linejoin:bevel;stroke-miterlimit:4;stroke-opacity:1;stroke-dasharray:none;marker-start:none"
     d="m 12.605967,20.852188 3.096,-0.306 0.645,-0.063 0.059,0.559 0.297,0.162 0.365,-0.041 0.216,2.042 0.05,0.456 -4.417,0.473 -0.045,-0.464 -0.266,-2.818"
     id="Clinton"
     inkscape:connector-curvature="0" />
  <path
     style="font-size:12px;fill:#d0d0d0;fill-rule:nonzero;stroke:#000000;stroke-width:1;stroke-linecap:butt;stroke-linejoin:bevel;stroke-miterlimit:4;stroke-opacity:1;stroke-dasharray:none;marker-start:none"
     d="m 12.871967,23.670188 0.045,0.464 0.334,3.308 0.072,0.748 -3.078,0.276 -0.9020004,-1.042 -0.334,-3.389 3.8630004,-0.365"
     id="Montgomery"
     inkscape:connector-curvature="0" />
  <path
     style="font-size:12px;fill:#d0d0d0;fill-rule:nonzero;stroke:#000000;stroke-width:1;stroke-linecap:butt;stroke-linejoin:bevel;stroke-miterlimit:4;stroke-opacity:1;stroke-dasharray:none;marker-start:none"
     d="m 9.0089666,24.035188 0.334,3.389 -3.223,0.302 -0.072,-2.277 -0.306,-0.329 -0.05,-0.121 0.009,-0.068 0.132,-0.251 1.554,-1.632 0.239,-0.198 1.203,-0.776 0.18,1.961"
     id="Fountain"
     inkscape:connector-curvature="0" />
  <path
     style="font-size:12px;fill:#d0d0d0;fill-rule:nonzero;stroke:#000000;stroke-width:1;stroke-linecap:butt;stroke-linejoin:bevel;stroke-miterlimit:4;stroke-opacity:1;stroke-dasharray:none;marker-start:none"
     d="m 30.747967,17.058188 0.319,2.836 0.067,0.548 -4.024,0.509 -0.117,-0.932 -0.095,-2.448 1.281,-0.162 2.569,-0.351"
     id="Jay"
     inkscape:connector-curvature="0" />
  <path
     style="font-size:12px;fill:#d0d0d0;fill-rule:nonzero;stroke:#000000;stroke-width:1;stroke-linecap:butt;stroke-linejoin:bevel;stroke-miterlimit:4;stroke-opacity:1;stroke-dasharray:none;marker-start:none"
     d="m 24.517967,17.847188 2.38,-0.276 0.095,2.448 -2.177,0.248 -0.298,-2.42"
     id="Blackford"
     inkscape:connector-curvature="0" />
  <path
     style="font-size:12px;fill:#d0d0d0;fill-rule:nonzero;stroke:#000000;stroke-width:1;stroke-linecap:butt;stroke-linejoin:bevel;stroke-miterlimit:4;stroke-opacity:1;stroke-dasharray:none;marker-start:none"
     d="m 22.544967,16.936188 1.833,-0.211 0.14,1.122 0.298,2.42 -1.302,0.139 -2.755,0.311 -0.036,-0.365 -0.239,-2.05 -0.125,-1.114 2.186,-0.252"
     id="Grant"
     inkscape:connector-curvature="0" />
  <path
     style="font-size:12px;fill:#d0d0d0;fill-rule:nonzero;stroke:#000000;stroke-width:1;stroke-linecap:butt;stroke-linejoin:bevel;stroke-miterlimit:4;stroke-opacity:1;stroke-dasharray:none;marker-start:none"
     d="m 17.572967,18.644188 2.911,-0.342 0.239,2.05 -3.655,0.811 -0.365,0.041 -0.297,-0.162 -0.059,-0.559 -0.645,0.063 -0.153,-1.672 2.024,-0.23"
     id="Howard"
     inkscape:connector-curvature="0" />
  <path
     style="font-size:12px;fill:#d0d0d0;fill-rule:nonzero;stroke:#000000;stroke-width:1;stroke-linecap:butt;stroke-linejoin:bevel;stroke-miterlimit:4;stroke-opacity:1;stroke-dasharray:none;marker-start:none"
     d="m 15.548967,18.874188 0.153,1.672 -3.096,0.306 -0.1986,-1.67168 -0.7064,0.0627 -0.122,-1.076 0.049,-1.068 0.037,-0.091 0.04,-0.053 1.609,-0.137 0.549,-0.049 1.519,0.406 0.167,1.699"
     sodipodi:nodetypes="ccccccccccccc"
     id="Carroll"
     inkscape:connector-curvature="0" />
  <path
     style="font-size:12px;fill:#d0d0d0;fill-opacity:1;fill-rule:nonzero;stroke:#000000;stroke-width:1;stroke-linecap:butt;stroke-linejoin:bevel;stroke-miterlimit:4;stroke-opacity:1;stroke-dasharray:none;marker-start:none"
     d="m 8.5579666,19.537188 3.1430004,-0.294 0.70702,-0.0628 0.19798,1.67176 0.266,2.818 -3.8630004,0.365 -0.18,-1.961 -0.149,-1.411 -0.122,-1.126"
     sodipodi:nodetypes="ccccccccc"
     id="Tippecanoe"
     inkscape:connector-curvature="0" />
  <path
     style="font-size:12px;fill:#d0d0d0;fill-rule:nonzero;stroke:#000000;stroke-width:1;stroke-linecap:butt;stroke-linejoin:bevel;stroke-miterlimit:4;stroke-opacity:1;stroke-dasharray:none;marker-start:none"
     d="m 4.4759666,21.028188 4.204,-0.365 0.149,1.411 -1.203,0.776 -0.239,0.198 -1.554,1.632 -0.132,0.251 -0.009,0.068 0.05,0.121 0.306,0.329 -1.239,-0.156 -0.333,-4.265"
     id="Warren"
     inkscape:connector-curvature="0" />
  <path
     style="font-size:12px;fill:#d0d0d0;fill-rule:nonzero;stroke:#000000;stroke-width:1;stroke-linecap:butt;stroke-linejoin:bevel;stroke-miterlimit:4;stroke-opacity:1;stroke-dasharray:none;marker-start:none"
     d="m 6.6829666,17.445188 1.632,-0.152 0.365,3.37 -4.204,0.365 -0.015,-0.184 -0.283,-3.178 2.505,-0.221"
     id="Benton"
     inkscape:connector-curvature="0" />
  <path
     style="font-size:12px;fill:#d0d0d0;fill-rule:nonzero;stroke:#000000;stroke-width:1;stroke-linecap:butt;stroke-linejoin:bevel;stroke-miterlimit:4;stroke-opacity:1;stroke-dasharray:none;marker-start:none"
     d="m 30.207967,12.542188 0.304,2.506 0.236,2.01 -2.569,0.351 -0.573,-4.502 2.602,-0.365"
     id="Adams"
     inkscape:connector-curvature="0" />
  <path
     style="font-size:12px;fill:#d0d0d0;fill-rule:nonzero;stroke:#000000;stroke-width:1;stroke-linecap:butt;stroke-linejoin:bevel;stroke-miterlimit:4;stroke-opacity:1;stroke-dasharray:none;marker-start:none"
     d="m 25.085967,13.204188 2.52,-0.297 0.573,4.502 -1.281,0.162 -2.38,0.276 -0.14,-1.122 1.105,-0.132 -0.397,-3.389"
     id="Wells"
     inkscape:connector-curvature="0" />
  <path
     style="font-size:12px;fill:#d0d0d0;fill-rule:nonzero;stroke:#000000;stroke-width:1;stroke-linecap:butt;stroke-linejoin:bevel;stroke-miterlimit:4;stroke-opacity:1;stroke-dasharray:none;marker-start:none"
     d="m 21.998967,12.434188 2.965,-0.371 0.122,1.141 0.397,3.389 -1.105,0.132 -1.833,0.211 -0.546,-4.502"
     id="Huntington"
     inkscape:connector-curvature="0" />
  <path
     style="font-size:12px;fill:#d0d0d0;fill-rule:nonzero;stroke:#000000;stroke-width:1;stroke-linecap:butt;stroke-linejoin:bevel;stroke-miterlimit:4;stroke-opacity:1;stroke-dasharray:none;marker-start:none"
     d="m 21.547967,11.902188 0.451,0.532 0.546,4.502 -2.186,0.252 -0.727,0.086 -0.54,-4.488 -0.054,-0.563 2.51,-0.321"
     id="Wabash"
     inkscape:connector-curvature="0" />
  <path
     style="font-size:12px;fill:#d0d0d0;fill-rule:nonzero;stroke:#000000;stroke-width:1;stroke-linecap:butt;stroke-linejoin:bevel;stroke-miterlimit:4;stroke-opacity:1;stroke-dasharray:none;marker-start:none"
     d="m 19.091967,12.786188 0.54,4.488 0.727,-0.086 0.125,1.114 -2.911,0.342 -0.505,-4.475 2.024,-1.383"
     id="Miami"
     inkscape:connector-curvature="0" />
  <path
     style="font-size:12px;fill:#d0d0d0;fill-rule:nonzero;stroke:#000000;stroke-width:1;stroke-linecap:butt;stroke-linejoin:bevel;stroke-miterlimit:4;stroke-opacity:1;stroke-dasharray:none;marker-start:none"
     d="m 14.182967,14.462188 2.885,-0.293 0.505,4.475 -2.024,0.23 -0.167,-1.699 -1.519,-0.406 -0.549,0.049 -0.226,-2.262 1.095,-0.094"
     id="Cass"
     inkscape:connector-curvature="0" />
  <path
     style="font-size:12px;fill:#d0d0d0;fill-rule:nonzero;stroke:#000000;stroke-width:1;stroke-linecap:butt;stroke-linejoin:bevel;stroke-miterlimit:4;stroke-opacity:1;stroke-dasharray:none;marker-start:none"
     d="m 13.087967,14.556188 0.226,2.262 -1.609,0.137 -0.04,0.053 -0.037,0.091 -0.049,1.068 0.122,1.076 -3.1430004,0.294 -0.243,-2.244 1.406,-2.43 3.3670004,-0.307"
     id="White"
     inkscape:connector-curvature="0" />
  <path
     style="font-size:12px;fill:#d0d0d0;fill-rule:nonzero;stroke:#000000;stroke-width:1;stroke-linecap:butt;stroke-linejoin:bevel;stroke-miterlimit:4;stroke-opacity:1;stroke-dasharray:none;marker-start:none"
     d="m 29.696967,8.2821878 0.406,3.3990002 0.105,0.861 -2.602,0.365 -2.52,0.297 -0.122,-1.141 -0.112,-3.3700002 1.104,-0.127 3.713,-0.522 0.028,0.238"
     id="Allen"
     inkscape:connector-curvature="0" />
  <path
     style="font-size:12px;fill:#d0d0d0;fill-rule:nonzero;stroke:#000000;stroke-width:1;stroke-linecap:butt;stroke-linejoin:bevel;stroke-miterlimit:4;stroke-opacity:1;stroke-dasharray:none;marker-start:none"
     d="m 21.506967,8.6661878 1.109,-0.127 0.032,0.3740001 2.204,-0.2200001 0.112,3.3700002 -2.965,0.371 -0.451,-0.532 -0.208,-1.699 0.326,-0.037 -0.091,-0.9730001 -0.068,-0.5270001"
     id="Whitley"
     inkscape:connector-curvature="0" />
  <path
     style="font-size:12px;fill:#d0d0d0;fill-rule:nonzero;stroke:#000000;stroke-width:1;stroke-linecap:butt;stroke-linejoin:bevel;stroke-miterlimit:4;stroke-opacity:1;stroke-dasharray:none;marker-start:none"
     d="m 13.853967,11.077188 3.741,-0.401 1.443,1.547 0.054,0.563 -2.024,1.383 -2.885,0.293 -0.329,-3.385"
     id="Fulton"
     inkscape:connector-curvature="0" />
  <path
     style="font-size:12px;fill:#d0d0d0;fill-rule:nonzero;stroke:#000000;stroke-width:1;stroke-linecap:butt;stroke-linejoin:bevel;stroke-miterlimit:4;stroke-opacity:1;stroke-dasharray:none;marker-start:none"
     d="m 13.853967,11.077188 0.329,3.385 -1.095,0.094 -3.3670004,0.307 -0.319,-3.358 4.4520004,-0.428"
     id="Pulaski"
     inkscape:connector-curvature="0" />
  <path
     style="font-size:12px;fill:#d0d0d0;fill-rule:nonzero;stroke:#000000;stroke-width:1;stroke-linecap:butt;stroke-linejoin:bevel;stroke-miterlimit:4;stroke-opacity:1;stroke-dasharray:none;marker-start:none"
     d="m 25.553967,5.1821878 3.71,-0.478 0.162,1.343 0.243,1.997 -3.713,0.522 -0.402,-3.384"
     id="DeKalb"
     inkscape:connector-curvature="0" />
  <path
     style="font-size:12px;fill:#d0d0d0;fill-rule:nonzero;stroke:#000000;stroke-width:1;stroke-linecap:butt;stroke-linejoin:bevel;stroke-miterlimit:4;stroke-opacity:1;stroke-dasharray:none;marker-start:none"
     d="m 25.553967,5.1821878 0.402,3.384 -1.104,0.127 -2.204,0.2200001 -0.032,-0.3740001 -1.109,0.127 -0.215,-1.835 -0.135,-1.113 4.397,-0.536"
     id="Noble"
     inkscape:connector-curvature="0" />
  <path
     style="font-size:12px;fill:#d0d0d0;fill-rule:nonzero;stroke:#000000;stroke-width:1;stroke-linecap:butt;stroke-linejoin:bevel;stroke-miterlimit:4;stroke-opacity:1;stroke-dasharray:none;marker-start:none"
     d="m 17.415967,7.2591878 3.876,-0.428 0.215,1.835 0.068,0.5270001 0.091,0.9730001 -0.326,0.037 0.208,1.699 -2.51,0.321 -1.443,-1.547 -0.179,-3.4170002"
     id="Kosciusko"
     inkscape:connector-curvature="0" />
  <path
     style="font-size:12px;fill:#d0d0d0;fill-rule:nonzero;stroke:#000000;stroke-width:1;stroke-linecap:butt;stroke-linejoin:bevel;stroke-miterlimit:4;stroke-opacity:1;stroke-dasharray:none;marker-start:none"
     d="m 17.415967,7.2591878 0.179,3.4170002 -3.741,0.401 -0.338,-3.3810002 -0.057,-0.558 1.72,-0.203 2.174,-0.23 0.063,0.554"
     id="Marshall"
     inkscape:connector-curvature="0" />
  <path
     style="font-size:12px;fill:#d0d0d0;fill-rule:nonzero;stroke:#000000;stroke-width:1;stroke-linecap:butt;stroke-linejoin:bevel;stroke-miterlimit:4;stroke-opacity:1;stroke-dasharray:none;marker-start:none"
     d="m 13.515967,7.6961878 0.338,3.3810002 -4.4520004,0.428 -0.076,-0.838 1.0580004,-0.577 0.284,-0.1850001 0.22,-0.347 0.168,-0.316 0.064,-0.171 0.197,-0.7580001 0.518,-0.446 1.126,-0.112 0.555,-0.059"
     id="Starke"
     inkscape:connector-curvature="0" />
  <path
     style="font-size:12px;fill:#d0d0d0;fill-rule:nonzero;stroke:#000000;stroke-width:1;stroke-linecap:butt;stroke-linejoin:bevel;stroke-miterlimit:4;stroke-opacity:1;stroke-dasharray:none;marker-start:none"
     d="m 9.3259666,10.667188 0.076,0.838 0.319,3.358 -1.406,2.43 -1.632,0.152 -0.224,-2.262 -0.054,-0.022 -0.028,-0.055 -0.352,-3.889 0.519,-0.352 0.226,-0.324 0.545,-0.316 0.108,-0.022 0.194,0.049 0.522,0.181 0.744,0.472 0.085,0.024 0.276,-0.154 0.082,-0.108"
     id="Jasper"
     inkscape:connector-curvature="0" />
  <path
     style="font-size:12px;fill:#d0d0d0;fill-rule:nonzero;stroke:#000000;stroke-width:1;stroke-linecap:butt;stroke-linejoin:bevel;stroke-miterlimit:4;stroke-opacity:1;stroke-dasharray:none;marker-start:none"
     d="m 3.6769666,12.113188 2.348,-0.896 0.352,3.889 0.028,0.055 0.054,0.022 0.224,2.262 -2.505,0.221 -0.316,-3.538 -0.185,-2.015"
     id="Newton"
     inkscape:connector-curvature="0" />
  <path
     style="font-size:12px;fill:#d0d0d0;fill-rule:nonzero;stroke:#000000;stroke-width:1;stroke-linecap:butt;stroke-linejoin:bevel;stroke-miterlimit:4;stroke-opacity:1;stroke-dasharray:none;marker-start:none"
     d="m 28.718967,1.7661878 0.279,0.801 0.266,2.137 -3.71,0.478 -0.369,-3.001 3.534,-0.415"
     id="Steuben"
     inkscape:connector-curvature="0" />
  <path
     style="font-size:12px;fill:#d0d0d0;fill-rule:nonzero;stroke:#000000;stroke-width:1;stroke-linecap:butt;stroke-linejoin:bevel;stroke-miterlimit:4;stroke-opacity:1;stroke-dasharray:none;marker-start:none"
     d="m 24.274967,2.2791878 0.91,-0.098 0.369,3.001 -4.397,0.536 -0.38,-3.037 3.498,-0.402"
     id="LaGrange"
     inkscape:connector-curvature="0" />
  <path
     style="font-size:12px;fill:#d0d0d0;fill-rule:nonzero;stroke:#000000;stroke-width:1;stroke-linecap:butt;stroke-linejoin:bevel;stroke-miterlimit:4;stroke-opacity:1;stroke-dasharray:none;marker-start:none"
     d="m 20.776967,2.6811878 0.38,3.037 0.135,1.113 -3.876,0.428 -0.474,-4.182 2.582,-0.262 1.253,-0.134"
     id="Elkhart"
     inkscape:connector-curvature="0" />
  <path
     style="font-size:12px;fill:#d0d0d0;fill-rule:nonzero;stroke:#000000;stroke-width:1;stroke-linecap:butt;stroke-linejoin:bevel;stroke-miterlimit:4;stroke-opacity:1;stroke-dasharray:none;marker-start:none"
     d="m 16.941967,3.0771878 0.411,3.628 -2.174,0.23 -1.72,0.203 0.057,0.558 -0.555,0.059 -0.414,-4.219 2.84,-0.293 1.555,-0.166"
     id="St. Joseph"
     inkscape:connector-curvature="0" />
  <path
     style="font-size:12px;fill:#d0d0d0;fill-rule:nonzero;stroke:#000000;stroke-width:1;stroke-linecap:butt;stroke-linejoin:bevel;stroke-miterlimit:4;stroke-opacity:1;stroke-dasharray:none;marker-start:none"
     d="m 9.6809666,3.8111878 2.8660004,-0.275 0.414,4.219 -1.126,0.112 -0.518,0.446 -0.197,0.7580001 -0.064,0.171 -0.168,0.316 -0.22,0.347 -0.284,0.1850001 -1.0580004,0.577 -0.615,-6.1210002 0.97,-0.735"
     id="LaPorte"
     inkscape:connector-curvature="0" />
</svg>
