<?xml version="1.0" encoding="UTF-8" standalone="no"?>
<!-- Created with Inkscape (http://www.inkscape.org/) -->

<svg
   xmlns:dc="http://purl.org/dc/elements/1.1/"
   xmlns:cc="http://creativecommons.org/ns#"
   xmlns:rdf="http://www.w3.org/1999/02/22-rdf-syntax-ns#"
   xmlns:svg="http://www.w3.org/2000/svg"
   xmlns="http://www.w3.org/2000/svg"
   xmlns:sodipodi="http://sodipodi.sourceforge.net/DTD/sodipodi-0.dtd"
   xmlns:inkscape="http://www.inkscape.org/namespaces/inkscape"
   version="1.0"
   width="78.489998"
   height="60.439999"
   sodipodi:version="0.32"
   inkscape:version="0.48.2 r9819"
   sodipodi:docname="ny.svg"
   inkscape:output_extension="org.inkscape.output.svg.inkscape"
   id="svg3054">
  <metadata
     id="metadata3056">
    <rdf:RDF>
      <cc:Work
         rdf:about="">
        <dc:format>image/svg+xml</dc:format>
        <dc:type
           rdf:resource="http://purl.org/dc/dcmitype/StillImage" />
      </cc:Work>
    </rdf:RDF>
  </metadata>
  <sodipodi:namedview
     inkscape:window-height="746"
     inkscape:window-width="1366"
     inkscape:pageshadow="2"
     inkscape:pageopacity="0.0"
     guidetolerance="10.0"
     gridtolerance="10.0"
     objecttolerance="10.0"
     borderopacity="1.0"
     bordercolor="#666666"
     pagecolor="#ffffff"
     inkscape:zoom="5.2109344"
     inkscape:cx="48.746048"
     inkscape:cy="30.218869"
     inkscape:window-x="-8"
     inkscape:window-y="-8"
     inkscape:current-layer="svg3054"
     showguides="true"
     inkscape:guide-bbox="true"
     fit-margin-top="0"
     fit-margin-left="0"
     fit-margin-right="0"
     fit-margin-bottom="0"
     inkscape:window-maximized="0"
     id="namedview3058"
     showgrid="false" />
  <defs
     id="defs3060" />
  <path
     style="font-size:12px;fill:#d0d0d0;fill-rule:nonzero;stroke:#000000;stroke-width:1;stroke-linecap:butt;stroke-linejoin:bevel;stroke-miterlimit:4;stroke-opacity:1;stroke-dasharray:none;marker-start:none"
     d="m 53.139637,1.3383678 -0.014,0.221 0.33,2.114 0.459,2.691 0.27,0.505 0.149,0.126 0.262,0.153 -1.086,0.387 0.035,0.24 -0.17,0.473 -0.627,0.4419997 -0.802,0.5 -0.699,0.147999 -1.411,0.51 -0.316,-0.919999 -0.329,-0.8739997 -0.689,-1.6 -1.172,-2.871 -0.225,-0.604 1.343,-0.388 2.213,-0.563 2.479,-0.69"
     id="Clinton"
     inkscape:connector-curvature="0" />
  <path
     style="font-size:12px;fill:#d0d0d0;fill-rule:nonzero;stroke:#000000;stroke-width:1;stroke-linecap:butt;stroke-linejoin:bevel;stroke-miterlimit:4;stroke-opacity:1;stroke-dasharray:none;marker-start:none"
     d="m 49.835637,9.8483665 1.411,-0.51 0.699,-0.147999 0.802,-0.5 0.627,-0.4419997 0.17,-0.473 -0.035,-0.24 1.086,-0.387 0.429,0.518 0.129,0.28 0.167,0.4509997 0.005,0.008 0.014,0.14 -0.05,0.541 0.302,1.5679995 -0.378,1.078 -0.005,1.067 0,0.42 0.022,0.429 0,0.004 0.02,0.044 1.075,2.538 0.157,0.284 -0.517,0.19 -5.422,2.077 -0.009,-0.487 -0.054,-0.189 -1.024,-0.198 -0.332,0.149 -0.108,0.071 -0.087,0.149 -1.451,-1.181 0.6,-0.729 -0.672,-1.848 1.647,-0.609 -1.228,-3.295 2.01,-0.7700005"
     id="Essex"
     inkscape:connector-curvature="0" />
  <path
     style="font-size:12px;fill:#d0d0d0;fill-rule:nonzero;stroke:#000000;stroke-width:1;stroke-linecap:butt;stroke-linejoin:bevel;stroke-miterlimit:4;stroke-opacity:1;stroke-dasharray:none;marker-start:none"
     d="m 16.181637,34.208367 -0.614,0.14 -3.195,0.614 -0.5,0.121 -0.555,-3.097 4.323,-0.734 0.541,2.956"
     id="Orleans"
     inkscape:connector-curvature="0" />
  <path
     style="font-size:12px;fill:#d0d0d0;fill-opacity:1;fill-rule:nonzero;stroke:#000000;stroke-width:1;stroke-linecap:butt;stroke-linejoin:bevel;stroke-miterlimit:4;stroke-opacity:1;stroke-dasharray:none;marker-start:none"
     d="m 16.181637,34.208367 1.163,1.695 -0.109,1.672 -4.732,0.829 -0.522,-2.812 -0.109,-0.509 0.5,-0.121 3.195,-0.614 0.614,-0.14"
     id="Genesee"
     inkscape:connector-curvature="0" />
  <path
     style="font-size:12px;fill:#d0d0d0;fill-opacity:1;fill-rule:nonzero;stroke:#000000;stroke-width:1;stroke-linecap:butt;stroke-linejoin:bevel;stroke-miterlimit:4;stroke-opacity:1;stroke-dasharray:none;marker-start:none"
     d="m 12.503637,38.404367 4.732,-0.829 0.465,2.479 -0.172,0.667 -0.346,0.302 -0.078,0.438 -0.058,0.463 0.013,0.041 0.231,0.108 -2.511,0.478 -1.482,0.077 -0.573,-3.115 -0.235,0.041 -0.189,-1.113 0.203,-0.037"
     id="Wyoming"
     inkscape:connector-curvature="0" />
  <path
     style="font-size:12px;fill:#d0d0d0;fill-opacity:1;fill-rule:nonzero;stroke:#000000;stroke-width:1;stroke-linecap:butt;stroke-linejoin:bevel;stroke-miterlimit:4;stroke-opacity:1;stroke-dasharray:none;marker-start:none"
     d="m 17.344637,35.903367 1.653,-0.329 0.108,0.09 0.045,0.081 -0.053,0.356 -0.009,0.028 -0.239,0.054 -0.014,0.018 0.023,0.031 1.123,-0.211 0.513,-0.154 0.145,0.117 0.085,0.135 0.144,0.334 0.112,0.487 0,0.018 -0.329,0.067 0.006,1.199 0.347,1.136 0.923,-0.162 0.208,0.559 0.117,0.608 -1.902,1.776 -1.1,0.167 -0.108,-0.55 -1.852,0.315 -0.231,-0.108 -0.013,-0.041 0.058,-0.463 0.078,-0.438 0.346,-0.302 0.172,-0.667 -0.465,-2.479 0.109,-1.672"
     id="Livingston"
     inkscape:connector-curvature="0" />
  <path
     style="font-size:12px;fill:#d0d0d0;fill-rule:nonzero;stroke:#000000;stroke-width:1;stroke-linecap:butt;stroke-linejoin:bevel;stroke-miterlimit:4;stroke-opacity:1;stroke-dasharray:none;marker-start:none"
     d="m 52.549637,28.809367 0.355,-0.054 1.244,0.342 0.414,0.298 0.109,0.306 0.825,0.699 0.063,0.031 0.122,-0.009 -3.263,1.42 -0.965,-0.662 -0.018,-0.036 0.032,-0.172 1.338,-1.451 -0.256,-0.712"
     id="Schenectady"
     inkscape:connector-curvature="0" />
  <path
     style="font-size:12px;fill:#d0d0d0;fill-rule:nonzero;stroke:#000000;stroke-width:1;stroke-linecap:butt;stroke-linejoin:bevel;stroke-miterlimit:4;stroke-opacity:1;stroke-dasharray:none;marker-start:none"
     d="m 52.433637,28.471367 0.116,0.338 0.256,0.712 -1.338,1.451 -0.032,0.172 0.018,0.036 -0.649,0.342 -1.037,0.365 -1.099,-0.275 -0.843,-0.031 -1.154,-0.185 -0.5,-2.335 2.177,0.325 0.491,-0.108 3.594,-0.807"
     id="Montgomery"
     inkscape:connector-curvature="0" />
  <path
     style="font-size:12px;fill:#d0d0d0;fill-rule:nonzero;stroke:#000000;stroke-width:1;stroke-linecap:butt;stroke-linejoin:bevel;stroke-miterlimit:4;stroke-opacity:1;stroke-dasharray:none;marker-start:none"
     d="m 45.919637,25.947367 1.794,0.361 2.776,-0.911 0.748,-0.252 1.196,3.326 -3.594,0.807 -0.491,0.108 -2.177,-0.325 -0.252,-3.114"
     id="Fulton"
     inkscape:connector-curvature="0" />
  <path
     style="font-size:12px;fill:#d0d0d0;fill-rule:nonzero;stroke:#000000;stroke-width:1;stroke-linecap:butt;stroke-linejoin:bevel;stroke-miterlimit:4;stroke-opacity:1;stroke-dasharray:none;marker-start:none"
     d="m 28.282637,33.244367 -0.058,0.843 0.433,2.186 0.054,0.243 0.202,0.613 0.046,0.095 0.07,0.099 0.74,0.915 -0.081,1.032 -1.83,0.446 -1.289,-2.686 -0.338,-1.249 0.014,-0.063 0.022,-0.027 0.109,-0.054 -0.365,-1.784 2.271,-0.609"
     id="Seneca"
     inkscape:connector-curvature="0" />
  <path
     style="font-size:12px;fill:#d0d0d0;fill-rule:nonzero;stroke:#000000;stroke-width:1;stroke-linecap:butt;stroke-linejoin:bevel;stroke-miterlimit:4;stroke-opacity:1;stroke-dasharray:none;marker-start:none"
     d="m 26.011637,33.853367 0.365,1.784 -0.109,0.054 -0.022,0.027 -0.014,0.063 0.338,1.249 -3.141,0.671 -0.158,0.41 -0.045,0.267 -0.063,0.612 0.239,1.159 -1.149,0.216 -0.117,-0.608 -0.208,-0.559 -0.923,0.162 -0.347,-1.136 -0.006,-1.199 0.329,-0.067 0,-0.018 -0.112,-0.487 -0.144,-0.334 -0.085,-0.135 -0.145,-0.117 0.905,-0.167 -0.252,-1.158 1.051,-0.207 1.136,-0.293 1.036,-0.212 0.077,0.347 1.564,-0.324"
     id="Ontario"
     inkscape:connector-curvature="0" />
  <path
     style="font-size:12px;fill:#d0d0d0;fill-rule:nonzero;stroke:#000000;stroke-width:1;stroke-linecap:butt;stroke-linejoin:bevel;stroke-miterlimit:4;stroke-opacity:1;stroke-dasharray:none;marker-start:none"
     d="m 26.569637,37.030367 1.289,2.686 -1.816,1.131 -0.369,-0.072 -0.064,-0.058 -0.117,-0.582 -0.031,-0.297 0.005,-0.108 -2.065,0.419 -0.239,-1.159 0.063,-0.612 0.045,-0.267 0.158,-0.41 3.141,-0.671"
     id="Yates"
     inkscape:connector-curvature="0" />
  <path
     style="font-size:12px;fill:#d0d0d0;fill-rule:nonzero;stroke:#000000;stroke-width:1;stroke-linecap:butt;stroke-linejoin:bevel;stroke-miterlimit:4;stroke-opacity:1;stroke-dasharray:none;marker-start:none"
     d="m 27.858637,39.716367 1.83,-0.446 0.221,0.865 0.284,1.1 0.009,0.226 0.222,1.131 0.676,-0.117 0.089,0.432 -0.172,0.235 -0.414,0.031 -0.481,-0.116 -0.118,-0.501 -0.987,0.202 -1.145,0.316 0.022,0.113 -1.139,0.315 -0.1,0.018 -0.347,-1.478 -0.266,-1.195 1.816,-1.131"
     id="Schuyler"
     inkscape:connector-curvature="0" />
  <path
     style="font-size:12px;fill:#d0d0d0;fill-rule:nonzero;stroke:#000000;stroke-width:1;stroke-linecap:butt;stroke-linejoin:bevel;stroke-miterlimit:4;stroke-opacity:1;stroke-dasharray:none;marker-start:none"
     d="m 29.769637,38.238367 1.903,-0.442 0.036,0.104 1.771,-0.437 0.694,2.717 -2.317,2.15 -0.756,0.145 -0.676,0.117 -0.222,-1.131 -0.009,-0.226 -0.284,-1.1 -0.221,-0.865 0.081,-1.032"
     id="Tompkins"
     inkscape:connector-curvature="0" />
  <path
     style="font-size:12px;fill:#d0d0d0;fill-rule:nonzero;stroke:#000000;stroke-width:1;stroke-linecap:butt;stroke-linejoin:bevel;stroke-miterlimit:4;stroke-opacity:1;stroke-dasharray:none;marker-start:none"
     d="m 28.124637,28.061367 0.41,1.478 0.483,0.5 0.792,-0.189 0.096,0.365 0.266,0.997 0.126,0.545 -0.014,0.013 -0.167,0.005 -0.049,0.058 -0.005,0.068 0.316,1.163 0.803,1.938 0.851,-0.226 0.65,0.419 0.288,0.298 0.031,0.113 0.478,1.857 -1.771,0.437 -0.036,-0.104 -1.903,0.442 -0.74,-0.915 -0.07,-0.099 -0.046,-0.095 -0.202,-0.613 -0.054,-0.243 -0.433,-2.186 0.058,-0.843 -0.91,-4.038 0.752,-1.145"
     id="Cayuga"
     inkscape:connector-curvature="0" />
  <path
     style="font-size:12px;fill:#d0d0d0;fill-rule:nonzero;stroke:#000000;stroke-width:1;stroke-linecap:butt;stroke-linejoin:bevel;stroke-miterlimit:4;stroke-opacity:1;stroke-dasharray:none;marker-start:none"
     d="m 34.484637,29.832367 0.179,0.176 0.664,0.897 0.441,1.226 0.676,2.483 -3.443,0.992 -0.031,-0.113 -0.288,-0.298 -0.65,-0.419 -0.851,0.226 -0.803,-1.938 -0.316,-1.163 0.005,-0.068 0.049,-0.058 0.167,-0.005 0.014,-0.013 -0.126,-0.545 -0.266,-0.997 1.41,-0.356 1.203,-0.604 1.159,0.333 0.807,0.244"
     id="Onodaga"
     inkscape:connector-curvature="0" />
  <path
     style="font-size:12px;fill:#d0d0d0;fill-rule:nonzero;stroke:#000000;stroke-width:1;stroke-linecap:butt;stroke-linejoin:bevel;stroke-miterlimit:4;stroke-opacity:1;stroke-dasharray:none;marker-start:none"
     d="m 36.444637,34.614367 0.239,0.839 1.078,3.853 -2.452,0.595 -1.136,0.279 -0.694,-2.717 -0.478,-1.857 3.443,-0.992"
     id="Cortland"
     inkscape:connector-curvature="0" />
  <path
     style="font-size:12px;fill:#d0d0d0;fill-rule:nonzero;stroke:#000000;stroke-width:1;stroke-linecap:butt;stroke-linejoin:bevel;stroke-miterlimit:4;stroke-opacity:1;stroke-dasharray:none;marker-start:none"
     d="m 36.683637,35.453367 3.597,-1.024 0.627,-0.085 1.203,-0.343 0.094,5.688 0.303,1.515 -1.064,0.229 -0.969,0.208 -0.672,-0.325 -1.18,0.022 -0.136,0.091 -0.113,-0.185 -0.612,-1.938 -1.078,-3.853"
     id="Chenango"
     inkscape:connector-curvature="0" />
  <path
     style="font-size:12px;fill:#d0d0d0;fill-rule:nonzero;stroke:#000000;stroke-width:1;stroke-linecap:butt;stroke-linejoin:bevel;stroke-miterlimit:4;stroke-opacity:1;stroke-dasharray:none;marker-start:none"
     d="m 34.484637,29.832367 1.076,0.14 0.953,-0.424 0.463,0.05 0.221,0.117 0.577,0.329 1.15,0.762 0.338,1.144 0.036,0.181 1.176,0.648 1.717,-0.486 -0.081,1.708 -1.203,0.343 -0.627,0.085 -3.597,1.024 -0.239,-0.839 -0.676,-2.483 -0.441,-1.226 -0.664,-0.897 -0.179,-0.176"
     id="Madison"
     inkscape:connector-curvature="0" />
  <path
     style="font-size:12px;fill:#d0d0d0;fill-rule:nonzero;stroke:#000000;stroke-width:1;stroke-linecap:butt;stroke-linejoin:bevel;stroke-miterlimit:4;stroke-opacity:1;stroke-dasharray:none;marker-start:none"
     d="m 41.357637,22.608367 1.109,3.528 0.361,1.289 -0.51,1.573 -0.37,0.946 0.551,2.169 -0.307,0.18 -1.717,0.486 -1.176,-0.648 -0.036,-0.181 -0.338,-1.144 -1.15,-0.762 -0.577,-0.329 -0.221,-0.117 -0.463,-0.05 -0.953,0.424 -0.251,-2.114 -0.235,-0.027 0.232,-2.15 0.566,0.054 2.171,0.199 3.314,-3.326"
     id="Oneida"
     inkscape:connector-curvature="0" />
  <path
     style="font-size:12px;fill:#d0d0d0;fill-rule:nonzero;stroke:#000000;stroke-width:1;stroke-linecap:butt;stroke-linejoin:bevel;stroke-miterlimit:4;stroke-opacity:1;stroke-dasharray:none;marker-start:none"
     d="m 36.625637,15.675367 2.83,0.969 1.902,5.964 -3.314,3.326 -2.171,-0.199 -0.767,-2.731 -0.382,-1.23 0.013,-1.204 1.708,-1.55 0.258,-0.609 -0.041,-0.793 -0.618,-0.298 0.582,-1.645"
     id="Lewis"
     inkscape:connector-curvature="0" />
  <path
     style="font-size:12px;fill:#d0d0d0;fill-rule:nonzero;stroke:#000000;stroke-width:1;stroke-linecap:butt;stroke-linejoin:bevel;stroke-miterlimit:4;stroke-opacity:1;stroke-dasharray:none;marker-start:none"
     d="m 39.455637,16.644367 2.93,-0.302 2.385,7.203 -0.42,2.046 1.569,0.356 0.252,3.114 0.5,2.335 -1.163,-0.203 0.063,0.852 -0.112,0.131 -2.02,-0.654 -0.22,0.694 -0.645,0.189 -0.076,-0.292 -0.551,-2.169 0.37,-0.946 0.51,-1.573 -0.361,-1.289 -1.109,-3.528 -1.902,-5.964"
     id="Herkimer"
     inkscape:connector-curvature="0" />
  <path
     style="font-size:12px;fill:#d0d0d0;fill-rule:nonzero;stroke:#000000;stroke-width:1;stroke-linecap:butt;stroke-linejoin:bevel;stroke-miterlimit:4;stroke-opacity:1;stroke-dasharray:none;marker-start:none"
     d="m 47.825637,31.581367 -0.05,0.509 0.054,0.356 0.045,0.172 0.578,1.18 0.121,0.307 -0.203,0.861 -0.229,0.684 -1.208,0.348 -1.623,1.46 -0.821,0.775 -0.387,0.451 -0.916,0.694 -0.238,0.095 -0.744,0.216 -0.094,-5.688 0.081,-1.708 0.307,-0.18 0.076,0.292 0.645,-0.189 0.22,-0.694 2.02,0.654 0.112,-0.131 -0.063,-0.852 1.163,0.203 1.154,0.185"
     id="Otsego"
     inkscape:connector-curvature="0" />
  <path
     style="font-size:12px;fill:#d0d0d0;fill-rule:nonzero;stroke:#000000;stroke-width:1;stroke-linecap:butt;stroke-linejoin:bevel;stroke-miterlimit:4;stroke-opacity:1;stroke-dasharray:none;marker-start:none"
     d="m 51.453637,31.180367 0.965,0.662 0.18,0.126 0.099,0.64 -0.072,0.663 -0.064,1.212 -0.008,1.457 0.049,0.157 0.081,-0.031 -1.594,1.077 -2.948,-1.493 0.229,-0.684 0.203,-0.861 -0.121,-0.307 -0.578,-1.18 -0.045,-0.172 -0.054,-0.356 0.05,-0.509 0.843,0.031 1.099,0.275 1.037,-0.365 0.649,-0.342"
     id="Schoharie"
     inkscape:connector-curvature="0" />
  <path
     style="font-size:12px;fill:#d0d0d0;fill-opacity:1;fill-rule:nonzero;stroke:#000000;stroke-width:1;stroke-linecap:butt;stroke-linejoin:bevel;stroke-miterlimit:4;stroke-opacity:1;stroke-dasharray:none;marker-start:none"
     d="m 55.681637,30.422367 1.203,-0.347 -0.023,4.26 -4.178,1.731 -0.081,0.031 -0.049,-0.157 0.008,-1.457 0.064,-1.212 0.072,-0.663 -0.099,-0.64 -0.18,-0.126 3.263,-1.42"
     id="Albany"
     inkscape:connector-curvature="0" />
  <path
     style="font-size:12px;fill:#d0d0d0;fill-opacity:1;fill-rule:nonzero;stroke:#000000;stroke-width:1;stroke-linecap:butt;stroke-linejoin:bevel;stroke-miterlimit:4;stroke-opacity:1;stroke-dasharray:none;marker-start:none"
     d="m 50.710637,23.707367 2.442,-0.924 0.117,0.149 0.578,0.897 0.184,0.698 0.092,0.05 0.611,0.166 0.766,-0.739 0.551,-0.694 0.072,0.113 0.743,2.416 0.041,0.243 0.04,0.884 -0.045,0.455 -0.117,0.572 0.099,2.082 -1.203,0.347 -0.122,0.009 -0.063,-0.031 -0.825,-0.699 -0.109,-0.306 -0.414,-0.298 -1.244,-0.342 -0.355,0.054 -0.116,-0.338 -1.196,-3.326 -0.527,-1.438"
     id="Saratoga"
     inkscape:connector-curvature="0" />
  <path
     style="font-size:12px;fill:#d0d0d0;fill-opacity:1;fill-rule:nonzero;stroke:#000000;stroke-width:1;stroke-linecap:butt;stroke-linejoin:bevel;stroke-miterlimit:4;stroke-opacity:1;stroke-dasharray:none;marker-start:none"
     d="m 50.543637,18.785367 5.422,-2.077 -0.023,1.049 -0.058,0.78 -0.518,1.262 -0.168,0.447 -0.098,0.468 -0.01,0.086 0.027,0.18 0.934,2.33 -0.551,0.694 -0.766,0.739 -0.611,-0.166 -0.092,-0.05 -0.184,-0.698 -0.578,-0.897 -0.117,-0.149 -2.442,0.924 -1.545,-4.39 1.378,-0.532"
     id="Warren"
     inkscape:connector-curvature="0" />
  <path
     style="font-size:12px;fill:#d0d0d0;fill-rule:nonzero;stroke:#000000;stroke-width:1;stroke-linecap:butt;stroke-linejoin:bevel;stroke-miterlimit:4;stroke-opacity:1;stroke-dasharray:none;marker-start:none"
     d="m 47.406637,14.522367 0.672,1.848 -0.6,0.729 1.451,1.181 0.087,-0.149 0.108,-0.071 0.332,-0.149 1.024,0.198 0.054,0.189 0.009,0.487 -1.378,0.532 1.545,4.39 0.527,1.438 -0.748,0.252 -2.776,0.911 -1.794,-0.361 -1.569,-0.356 0.42,-2.046 -2.385,-7.203 2.799,-1.023 2.222,-0.797"
     id="Hamilton"
     inkscape:connector-curvature="0" />
  <path
     style="font-size:12px;fill:#d0d0d0;fill-rule:nonzero;stroke:#000000;stroke-width:1;stroke-linecap:butt;stroke-linejoin:bevel;stroke-miterlimit:4;stroke-opacity:1;stroke-dasharray:none;marker-start:none"
     d="m 49.835637,9.8483665 -2.01,0.7700005 1.228,3.295 -1.647,0.609 -2.222,0.797 -0.123,-0.919 -0.328,-0.978 -1.825,-5.2239992 -1.146,-3.407 -0.698,0.157 -0.22,-0.658 0.238,-0.013 3.688,-0.703 1.288,-0.289 0.942,-0.275 0.104,-0.031 0.225,0.604 1.172,2.871 0.689,1.6 0.329,0.8739997 0.316,0.919999"
     id="Franklin"
     inkscape:connector-curvature="0" />
  <path
     style="font-size:12px;fill:#d0d0d0;fill-rule:nonzero;stroke:#000000;stroke-width:1;stroke-linecap:butt;stroke-linejoin:bevel;stroke-miterlimit:4;stroke-opacity:1;stroke-dasharray:none;marker-start:none"
     d="m 40.844637,4.2903678 0.22,0.658 0.698,-0.157 1.146,3.407 1.825,5.2239992 0.328,0.978 0.123,0.919 -2.799,1.023 -2.93,0.302 -2.83,-0.969 -0.672,-0.256 -1.974,-0.677 -1.595,-0.603 0.283,-0.965 0.262,-0.645 0.478,-0.784 1.442,-2.2360005 0.419,-0.580999 3.294,-3.7409997 0.167,-0.117 1.208,-0.698 0.226,-0.036 0.681,-0.046"
     id="St. Lawrence"
     inkscape:connector-curvature="0" />
  <path
     style="font-size:12px;fill:#d0d0d0;fill-rule:nonzero;stroke:#000000;stroke-width:1;stroke-linecap:butt;stroke-linejoin:bevel;stroke-miterlimit:4;stroke-opacity:1;stroke-dasharray:none;marker-start:none"
     d="m 32.384637,14.139367 1.595,0.603 1.974,0.677 0.672,0.256 -0.582,1.645 0.618,0.298 0.041,0.793 -0.258,0.609 -1.708,1.55 -0.013,1.204 0.382,1.23 -1.875,0.216 -0.414,0.189 0.086,0.343 -1.649,0.203 -0.596,-1.524 0.636,-1.311 0.041,-0.072 -0.019,-0.194 -0.198,-0.514 -0.063,-0.081 -0.073,-0.023 -0.788,-0.067 -0.558,-0.235 -0.875,-0.63 -0.139,-0.361 -0.006,-0.148 0.019,-0.29 0.216,-0.914 2.061,-2.191 1.473,-1.261"
     id="Jefferson"
     inkscape:connector-curvature="0" />
  <path
     style="font-size:12px;fill:#d0d0d0;fill-rule:nonzero;stroke:#000000;stroke-width:1;stroke-linecap:butt;stroke-linejoin:bevel;stroke-miterlimit:4;stroke-opacity:1;stroke-dasharray:none;marker-start:none"
     d="m 31.253637,23.955367 1.649,-0.203 -0.086,-0.343 0.414,-0.189 1.875,-0.216 0.767,2.731 -0.566,-0.054 -0.232,2.15 0.235,0.027 0.251,2.114 -1.076,-0.14 -0.807,-0.244 -1.159,-0.333 -1.203,0.604 -1.41,0.356 -0.096,-0.365 -0.792,0.189 -0.483,-0.5 -0.41,-1.478 0.434,-0.487 1.135,-1.199 0.059,-0.036 0.374,-0.117 0.247,0.113 0.136,-0.009 0.306,-0.077 0.519,-0.325 0.054,-0.063 0.067,-0.171 0.032,-0.207 0.018,-0.199 -0.027,-0.333 -0.108,-0.627 -0.117,-0.369"
     id="Oswego"
     inkscape:connector-curvature="0" />
  <path
     style="font-size:12px;fill:#d0d0d0;fill-rule:nonzero;stroke:#000000;stroke-width:1;stroke-linecap:butt;stroke-linejoin:bevel;stroke-miterlimit:4;stroke-opacity:1;stroke-dasharray:none;marker-start:none"
     d="m 27.372637,29.206367 0.91,4.038 -2.271,0.609 -1.564,0.324 -0.077,-0.347 -1.036,0.212 -1.136,0.293 -0.645,-3.083 0.546,-0.153 1.554,-0.397 0.289,-0.063 0.428,0.005 0.329,0.063 0.699,-0.127 0.054,-0.018 1.343,-0.788 0.217,-0.163 0.36,-0.405"
     id="Wayne"
     inkscape:connector-curvature="0" />
  <path
     style="font-size:12px;fill:#d0d0d0;fill-opacity:1;fill-rule:nonzero;stroke:#000000;stroke-width:1;stroke-linecap:butt;stroke-linejoin:bevel;stroke-miterlimit:4;stroke-opacity:1;stroke-dasharray:none;marker-start:none"
     d="m 16.181637,34.208367 -0.541,-2.956 0.387,-0.054 1.488,0.027 0.96,0.23 0.441,0.248 0.068,0.031 0.793,0.325 0.262,0.045 0.157,-0.014 1.357,-0.838 0.645,3.083 -1.051,0.207 0.252,1.158 -0.905,0.167 -0.513,0.154 -1.123,0.211 -0.023,-0.031 0.014,-0.018 0.239,-0.054 0.009,-0.028 0.053,-0.356 -0.045,-0.081 -0.108,-0.09 -1.653,0.329 -1.163,-1.695"
     id="Monroe"
     inkscape:connector-curvature="0" />
  <path
     style="font-size:12px;fill:#d0d0d0;fill-opacity:1;fill-rule:nonzero;stroke:#000000;stroke-width:1;stroke-linecap:butt;stroke-linejoin:bevel;stroke-miterlimit:4;stroke-opacity:1;stroke-dasharray:none;marker-start:none"
     d="m 11.872637,35.083367 0.109,0.509 -0.213,0.113 -0.978,0.32 -3.2029995,0.658 -0.768,0.144 -0.298,-0.058 -0.107,-0.19 -0.433,-2.177 2.05,-1.1 1.745,-0.847 0.7709995,-0.302 0.527,-0.167 0.059,-0.004 0.184,0.004 0.555,3.097"
     id="Niagara"
     inkscape:connector-curvature="0" />
  <path
     style="font-size:12px;fill:#d0d0d0;fill-opacity:1;fill-rule:nonzero;stroke:#000000;stroke-width:1;stroke-linecap:butt;stroke-linejoin:bevel;stroke-miterlimit:4;stroke-opacity:1;stroke-dasharray:none;marker-start:none"
     d="m 11.981637,35.592367 0.522,2.812 -0.203,0.037 0.189,1.113 0.235,-0.041 0.573,3.115 -1.203,0.55 -1.037,0.555 -1.0789995,0.716 -0.229,0.094 -0.23,0.059 -0.554,-0.284 -1.232,-0.694 -0.778,-0.275 0.018,-0.271 0.117,-0.334 0.405,-1.067 0.253,-0.212 0.622,-0.514 0.231,-0.108 0.386,-0.505 0.109,-0.203 0,-0.103 -0.338,-0.748 -0.528,-0.956 -0.122,-0.158 -0.143,-0.09 -0.398,-0.072 -0.405,-0.171 -0.099,-0.108 -0.077,-0.28 -0.167,-0.622 0.768,-0.144 3.2029995,-0.658 0.978,-0.32 0.213,-0.113"
     id="Erie"
     inkscape:connector-curvature="0" />
  <path
     style="font-size:12px;fill:#d0d0d0;fill-rule:nonzero;stroke:#000000;stroke-width:1;stroke-linecap:butt;stroke-linejoin:bevel;stroke-miterlimit:4;stroke-opacity:1;stroke-dasharray:none;marker-start:none"
     d="m 7.7336375,43.624367 1.236,6.878 -5.156,0.914 -0.144,0.027 -1.28,0.221 -0.297,-1.689 -0.248,-1.43 -0.055,-0.342 0.379,-0.261 0.608,-0.514 0.821,-0.772 0.762,-0.76 0.189,-0.262 0.162,-0.357 0.419,-0.541 0.925,-0.729 0.901,-0.658 0.778,0.275"
     id="Chautauqua"
     inkscape:connector-curvature="0" />
  <path
     style="font-size:12px;fill:#d0d0d0;fill-rule:nonzero;stroke:#000000;stroke-width:1;stroke-linecap:butt;stroke-linejoin:bevel;stroke-miterlimit:4;stroke-opacity:1;stroke-dasharray:none;marker-start:none"
     d="m 13.297637,42.628367 1.482,-0.077 1.259,6.648 -2.711,0.499 -2.604,0.506 -0.415,0.072 -1.3389995,0.226 -1.236,-6.878 1.232,0.694 0.554,0.284 0.23,-0.059 0.229,-0.094 1.0789995,-0.716 1.037,-0.555 1.203,-0.55"
     id="Cattaraugus"
     inkscape:connector-curvature="0" />
  <path
     style="font-size:12px;fill:#d0d0d0;fill-rule:nonzero;stroke:#000000;stroke-width:1;stroke-linecap:butt;stroke-linejoin:bevel;stroke-miterlimit:4;stroke-opacity:1;stroke-dasharray:none;marker-start:none"
     d="m 17.290637,42.073367 1.852,-0.315 0.108,0.55 1.1,-0.167 0.919,6.062 -4.282,0.808 -0.949,0.188 -1.259,-6.648 2.511,-0.478"
     id="Allegany"
     inkscape:connector-curvature="0" />
  <path
     style="font-size:12px;fill:#d0d0d0;fill-opacity:1;fill-rule:nonzero;stroke:#000000;stroke-width:1;stroke-linecap:butt;stroke-linejoin:bevel;stroke-miterlimit:4;stroke-opacity:1;stroke-dasharray:none;marker-start:none"
     d="m 22.252637,40.365367 1.149,-0.216 2.065,-0.419 -0.005,0.108 0.031,0.297 0.117,0.582 0.064,0.058 0.369,0.072 0.266,1.195 0.347,1.478 0.1,-0.018 1.139,-0.315 0.708,3.528 -6.021,1.223 -1.312,0.265 -0.919,-6.062 1.902,-1.776"
     id="Steuben"
     inkscape:connector-curvature="0" />
  <path
     style="font-size:12px;fill:#d0d0d0;fill-opacity:1;fill-rule:nonzero;stroke:#000000;stroke-width:1;stroke-linecap:butt;stroke-linejoin:bevel;stroke-miterlimit:4;stroke-opacity:1;stroke-dasharray:none;marker-start:none"
     d="m 31.856637,42.330367 0.56,3.615 -3.453,0.69 -0.361,0.08 -0.708,-3.528 -0.022,-0.113 1.145,-0.316 0.987,-0.202 0.118,0.501 0.481,0.116 0.414,-0.031 0.172,-0.235 -0.089,-0.432 0.756,-0.145"
     id="Chemung"
     inkscape:connector-curvature="0" />
  <path
     style="font-size:12px;fill:#d0d0d0;fill-opacity:1;fill-rule:nonzero;stroke:#000000;stroke-width:1;stroke-linecap:butt;stroke-linejoin:bevel;stroke-miterlimit:4;stroke-opacity:1;stroke-dasharray:none;marker-start:none"
     d="m 35.309637,39.901367 0.073,0.095 0.774,1.658 0.023,0.081 0.104,0.505 0.026,0.414 -0.266,0.073 0.599,2.348 -0.382,0.081 -3.844,0.789 -0.56,-3.615 2.317,-2.15 1.136,-0.279"
     id="Tioga"
     inkscape:connector-curvature="0" />
  <path
     style="font-size:12px;fill:#d0d0d0;fill-opacity:1;fill-rule:nonzero;stroke:#000000;stroke-width:1;stroke-linecap:butt;stroke-linejoin:bevel;stroke-miterlimit:4;stroke-opacity:1;stroke-dasharray:none;marker-start:none"
     d="m 37.761637,39.306367 0.612,1.938 0.113,0.185 0.136,-0.091 1.18,-0.022 0.672,0.325 0.969,-0.208 1.064,-0.229 1.094,2.357 -1.153,0.256 -5.806,1.258 -0.599,-2.348 0.266,-0.073 -0.026,-0.414 -0.104,-0.505 -0.023,-0.081 -0.774,-1.658 -0.073,-0.095 2.452,-0.595"
     id="Broome"
     inkscape:connector-curvature="0" />
  <path
     style="font-size:12px;fill:#d0d0d0;fill-rule:nonzero;stroke:#000000;stroke-width:1;stroke-linecap:butt;stroke-linejoin:bevel;stroke-miterlimit:4;stroke-opacity:1;stroke-dasharray:none;marker-start:none"
     d="m 48.141637,35.650367 2.948,1.493 0.161,0.04 -0.581,2.101 0.888,0.225 -2.614,2.632 -2.939,2.862 -1.181,-0.194 -0.302,-0.645 -0.171,-0.162 -0.568,-0.4 -0.181,-0.041 -1.094,-2.357 -0.303,-1.515 0.744,-0.216 0.238,-0.095 0.916,-0.694 0.387,-0.451 0.821,-0.775 1.623,-1.46 1.208,-0.348"
     id="Delaware"
     inkscape:connector-curvature="0" />
  <path
     style="font-size:12px;fill:#d0d0d0;fill-rule:nonzero;stroke:#000000;stroke-width:1;stroke-linecap:butt;stroke-linejoin:bevel;stroke-miterlimit:4;stroke-opacity:1;stroke-dasharray:none;marker-start:none"
     d="m 46.004637,45.003367 2.939,-2.862 1.321,0.401 2.131,0.681 -0.194,0.581 -0.369,0.847 -0.189,0.482 0.923,0.429 1.046,0.455 0.419,0.622 -0.329,0.293 -0.18,0.388 -0.248,0.649 -2.564,0.725 -0.068,0.054 -0.009,0.031 0.117,0.488 0.126,0.282 -0.423,0.047 -0.758,0.041 -0.167,-0.077 -1.027,-0.533 -0.293,-0.279 -0.414,-0.405 -0.258,-0.591 -1.532,-2.749"
     id="Sullivan"
     inkscape:connector-curvature="0" />
  <path
     style="font-size:12px;fill:#d0d0d0;fill-opacity:1;fill-rule:nonzero;stroke:#000000;stroke-width:1;stroke-linecap:butt;stroke-linejoin:bevel;stroke-miterlimit:4;stroke-opacity:1;stroke-dasharray:none;marker-start:none"
     d="m 56.861637,34.335367 0.05,0 0.032,0.022 0.073,0.212 0.355,1.794 0.036,0.324 -0.023,0.176 -0.365,0.915 -0.284,0.897 -0.04,0.189 -0.928,-0.392 -0.419,0.136 -0.081,1.004 -1.482,0.19 -0.727,0.09 -1.501,-0.383 -0.888,-0.225 0.581,-2.101 -0.161,-0.04 1.594,-1.077 4.178,-1.731"
     id="Greene"
     inkscape:connector-curvature="0" />
  <path
     style="font-size:12px;fill:#d0d0d0;fill-opacity:1;fill-rule:nonzero;stroke:#000000;stroke-width:1;stroke-linecap:butt;stroke-linejoin:bevel;stroke-miterlimit:4;stroke-opacity:1;stroke-dasharray:none;marker-start:none"
     d="m 60.928637,55.617367 0.017,0.086 -0.175,0.869 -0.145,0.127 -0.698,0.622 -0.069,-0.289 0.091,-1.212 0.258,-1.171 0.603,0.301 0.118,0.667"
     id="New York"
     inkscape:connector-curvature="0" />
  <path
     style="font-size:12px;fill:#d0d0d0;fill-opacity:1;fill-rule:nonzero;stroke:#000000;stroke-width:1;stroke-linecap:butt;stroke-linejoin:bevel;stroke-miterlimit:4;stroke-opacity:1;stroke-dasharray:none;marker-start:none"
     d="m 56.663637,39.518367 0.186,2.209 0.531,1.73 0.203,0.414 0.319,1.875 -0.91,0.338 -0.684,0.136 -0.586,-0.019 -0.695,-0.252 -0.996,0.69 -0.419,-0.622 -1.046,-0.455 -0.923,-0.429 0.189,-0.482 0.369,-0.847 0.194,-0.581 -2.131,-0.681 -1.321,-0.401 2.614,-2.632 1.501,0.383 0.727,-0.09 1.482,-0.19 0.081,-1.004 0.419,-0.136 0.928,0.392 -0.032,0.654"
     id="Ulster"
     inkscape:connector-curvature="0" />
  <path
     style="font-size:12px;fill:#d0d0d0;fill-opacity:1;fill-rule:nonzero;stroke:#000000;stroke-width:1;stroke-linecap:butt;stroke-linejoin:bevel;stroke-miterlimit:4;stroke-opacity:1;stroke-dasharray:none;marker-start:none"
     d="m 60.247637,54.161367 1.374,0.163 0.185,0.983 -0.878,0.31 -0.118,-0.667 -0.603,-0.301 0.04,-0.488"
     id="Bronx"
     inkscape:connector-curvature="0" />
  <path
     style="font-size:12px;fill:#d0d0d0;fill-opacity:1;fill-rule:nonzero;stroke:#000000;stroke-width:1;stroke-linecap:butt;stroke-linejoin:bevel;stroke-miterlimit:4;stroke-opacity:1;stroke-dasharray:none;marker-start:none"
     d="m 59.927637,57.321367 0.698,-0.622 0.243,0.063 0.325,0.735 -0.094,1.153 -0.618,-0.036 -0.423,-0.635 -0.131,-0.658"
     id="Kings"
     inkscape:connector-curvature="0" />
  <path
     style="font-size:12px;fill:#d0d0d0;fill-opacity:1;fill-rule:nonzero;stroke:#000000;stroke-width:1;stroke-linecap:butt;stroke-linejoin:bevel;stroke-miterlimit:4;stroke-opacity:1;stroke-dasharray:none;marker-start:none"
     d="m 58.430637,49.199367 0.312,0.654 0.576,0.789 0.514,0.581 0.059,0.148 0.341,1.733 -3.411,-1.02 -0.225,-0.068 1.834,-2.856 0,0.039"
     id="Rockland"
     inkscape:connector-curvature="0" />
  <path
     style="font-size:12px;fill:#d0d0d0;fill-rule:nonzero;stroke:#000000;stroke-width:1;stroke-linecap:butt;stroke-linejoin:bevel;stroke-miterlimit:4;stroke-opacity:1;stroke-dasharray:none;marker-start:none"
     d="m 65.835637,56.938367 -3.051,1.045 -0.77,-2.704 2.181,-2.136 1.64,3.795"
     id="Nassau"
     inkscape:connector-curvature="0" />
  <path
     style="font-size:12px;fill:#d0d0d0;fill-opacity:1;fill-rule:nonzero;stroke:#000000;stroke-width:1;stroke-linecap:butt;stroke-linejoin:bevel;stroke-miterlimit:4;stroke-opacity:1;stroke-dasharray:none;marker-start:none"
     d="m 57.902637,45.746367 0.19,1.971 0.338,1.443 -1.834,2.856 -1.411,-0.478 -3.542,-1.239 -0.767,-0.75 -0.126,-0.282 -0.117,-0.488 0.009,-0.031 0.068,-0.054 2.564,-0.725 0.248,-0.649 0.18,-0.388 0.329,-0.293 0.996,-0.69 0.695,0.252 0.586,0.019 0.684,-0.136 0.91,-0.338"
     id="Orange"
     inkscape:connector-curvature="0" />
  <path
     style="font-size:12px;fill:#d0d0d0;fill-opacity:1;fill-rule:nonzero;stroke:#000000;stroke-width:1;stroke-linecap:butt;stroke-linejoin:bevel;stroke-miterlimit:4;stroke-opacity:1;stroke-dasharray:none;marker-start:none"
     d="m 60.928637,55.617367 0.878,-0.31 0.208,-0.028 0.77,2.704 -1.685,0.667 0.094,-1.153 -0.325,-0.735 -0.243,-0.063 0.145,-0.127 0.175,-0.869 -0.017,-0.086"
     id="Queens"
     inkscape:connector-curvature="0" />
  <path
     style="font-size:12px;fill:#d0d0d0;fill-rule:nonzero;stroke:#000000;stroke-width:1;stroke-linecap:butt;stroke-linejoin:bevel;stroke-miterlimit:4;stroke-opacity:1;stroke-dasharray:none;marker-start:none"
     d="m 65.835637,56.938367 -1.64,-3.795 -0.011,-0.248 0.051,-0.073 0.771,-0.288 1.766,0.226 5.765,-2.668 1.45,-1.687 0.547,-0.284 2.619,0.884 -0.117,0.289 -2.304,2.001 -0.622,0.478 -4.957,3.596 -0.785,0.473 -0.555,0.33 -0.274,0.145 -0.203,0.097 -1.501,0.524"
     id="Suffolk"
     inkscape:connector-curvature="0" />
  <path
     style="font-size:12px;fill:#d0d0d0;fill-opacity:1;fill-rule:nonzero;stroke:#000000;stroke-width:1;stroke-linecap:butt;stroke-linejoin:bevel;stroke-miterlimit:4;stroke-opacity:1;stroke-dasharray:none;marker-start:none"
     d="m 58.430637,49.199367 3.966,-1.541 0.158,0.91 -0.306,2.082 -0.06,0.059 -0.702,0.717 1.008,1.297 -0.873,1.601 -1.374,-0.163 -0.015,-1.057 -0.341,-1.733 -0.059,-0.148 -0.514,-0.581 -0.576,-0.789 -0.312,-0.654"
     id="Westchester"
     inkscape:connector-curvature="0" />
  <path
     style="font-size:12px;fill:#d0d0d0;fill-opacity:1;fill-rule:nonzero;stroke:#000000;stroke-width:1;stroke-linecap:butt;stroke-linejoin:bevel;stroke-miterlimit:4;stroke-opacity:1;stroke-dasharray:none;marker-start:none"
     d="m 62.044637,45.594367 0.352,2.064 -3.966,1.541 0,-0.039 -0.338,-1.443 0.298,-0.731 3.2,-1.271 0.454,-0.121"
     id="Putnam"
     inkscape:connector-curvature="0" />
  <path
     style="font-size:12px;fill:#d0d0d0;fill-opacity:1;fill-rule:nonzero;stroke:#000000;stroke-width:1;stroke-linecap:butt;stroke-linejoin:bevel;stroke-miterlimit:4;stroke-opacity:1;stroke-dasharray:none;marker-start:none"
     d="m 60.855637,38.905367 0.883,4.904 0.306,1.785 -0.454,0.121 -3.2,1.271 -0.298,0.731 -0.19,-1.971 -0.319,-1.875 -0.203,-0.414 -0.531,-1.73 -0.186,-2.209 0.127,-0.055 0.121,0.005 1.526,0.365 0.475,0.131 1.79,-0.063 0.063,-0.974 0.09,-0.022"
     id="Dutchess"
     inkscape:connector-curvature="0" />
  <path
     style="font-size:12px;fill:#d0d0d0;fill-rule:nonzero;stroke:#000000;stroke-width:1;stroke-linecap:butt;stroke-linejoin:bevel;stroke-miterlimit:4;stroke-opacity:1;stroke-dasharray:none;marker-start:none"
     d="m 56.861637,34.335367 3.83,-1.533 -0.142,5.688 0.216,0.437 -0.063,0.974 -1.79,0.063 -0.475,-0.131 -1.526,-0.365 -0.121,-0.005 -0.127,0.055 0.032,-0.654 0.04,-0.189 0.284,-0.897 0.365,-0.915 0.023,-0.176 -0.036,-0.324 -0.355,-1.794 -0.073,-0.212 -0.032,-0.022 -0.05,0"
     id="Columbia"
     inkscape:connector-curvature="0" />
  <path
     style="font-size:12px;fill:#d0d0d0;fill-opacity:1;fill-rule:nonzero;stroke:#000000;stroke-width:1;stroke-linecap:butt;stroke-linejoin:bevel;stroke-miterlimit:4;stroke-opacity:1;stroke-dasharray:none;marker-start:none"
     d="m 56.785637,27.993367 3.299,-0.829 0.69,2.47 -0.083,3.168 -3.83,1.533 0.023,-4.26 -0.099,-2.082"
     id="Rensselaer"
     inkscape:connector-curvature="0" />
  <path
     style="font-size:12px;fill:#d0d0d0;fill-rule:nonzero;stroke:#000000;stroke-width:1;stroke-linecap:butt;stroke-linejoin:bevel;stroke-miterlimit:4;stroke-opacity:1;stroke-dasharray:none;marker-start:none"
     d="m 56.482637,16.518367 0.334,0.649 -0.174,0.956 -0.051,0.523 0.091,0.753 0.036,0.048 0.306,0.127 1.55,0.342 0.546,2.538 0.964,4.71 -3.299,0.829 0.117,-0.572 0.045,-0.455 -0.04,-0.884 -0.041,-0.243 -0.743,-2.416 -0.072,-0.113 -0.934,-2.33 -0.027,-0.18 0.01,-0.086 0.098,-0.468 0.168,-0.447 0.518,-1.262 0.058,-0.78 0.023,-1.049 0.517,-0.19"
     id="Washington"
     inkscape:connector-curvature="0" />
</svg>
