<?xml version="1.0" encoding="UTF-8" standalone="no"?>
<!-- Created with Inkscape (http://www.inkscape.org/) -->

<svg
   xmlns:dc="http://purl.org/dc/elements/1.1/"
   xmlns:cc="http://creativecommons.org/ns#"
   xmlns:rdf="http://www.w3.org/1999/02/22-rdf-syntax-ns#"
   xmlns:svg="http://www.w3.org/2000/svg"
   xmlns="http://www.w3.org/2000/svg"
   xmlns:sodipodi="http://sodipodi.sourceforge.net/DTD/sodipodi-0.dtd"
   xmlns:inkscape="http://www.inkscape.org/namespaces/inkscape"
   version="1.0"
   width="10.1"
   height="11.75"
   sodipodi:version="0.32"
   inkscape:version="0.48.2 r9819"
   sodipodi:docname="ri.svg"
   inkscape:output_extension="org.inkscape.output.svg.inkscape"
   id="svg2998">
  <metadata
     id="metadata3000">
    <rdf:RDF>
      <cc:Work
         rdf:about="">
        <dc:format>image/svg+xml</dc:format>
        <dc:type
           rdf:resource="http://purl.org/dc/dcmitype/StillImage" />
      </cc:Work>
    </rdf:RDF>
  </metadata>
  <sodipodi:namedview
     inkscape:window-height="746"
     inkscape:window-width="1366"
     inkscape:pageshadow="2"
     inkscape:pageopacity="0.0"
     guidetolerance="10.0"
     gridtolerance="10.0"
     objecttolerance="10.0"
     borderopacity="1.0"
     bordercolor="#666666"
     pagecolor="#ffffff"
     inkscape:zoom="14.629167"
     inkscape:cx="-22.357118"
     inkscape:cy="-2.2347956"
     inkscape:window-x="-8"
     inkscape:window-y="-8"
     inkscape:current-layer="svg2998"
     showguides="true"
     inkscape:guide-bbox="true"
     fit-margin-top="0"
     fit-margin-left="0"
     fit-margin-right="0"
     fit-margin-bottom="0"
     inkscape:window-maximized="0"
     id="namedview3002"
     showgrid="false" />
  <defs
     id="defs3004" />
  <path
     style="font-size:12px;fill:#d0d0d0;fill-rule:nonzero;stroke:#000000;stroke-width:1;stroke-linecap:butt;stroke-linejoin:bevel;stroke-miterlimit:4;stroke-opacity:1;stroke-dasharray:none;marker-start:none"
     d="m 6.3329186,4.5258644 -0.257,0.991 -0.533,0.825 -2.812,0.816 -0.143,-0.541 -0.28,-1.064 3.051,-0.901 0.027,-0.014 0.072,-0.122 -0.027,-0.13 0.027,-0.131 0.028,-0.027 0.288,-0.167 0.126,0.023 0.117,0.086 0.185,0.212 0.131,0.144"
     id="Kent"
     inkscape:connector-curvature="0" />
  <path
     style="font-size:12px;fill:#d0d0d0;fill-rule:nonzero;stroke:#000000;stroke-width:1;stroke-linecap:butt;stroke-linejoin:bevel;stroke-miterlimit:4;stroke-opacity:1;stroke-dasharray:none;marker-start:none"
     d="m 4.0419186,1.1718644 1.182,0.122 1.284,2.465 -0.306,0.623 -0.185,-0.212 -0.117,-0.086 -0.126,-0.023 -0.288,0.167 -0.028,0.027 -0.027,0.131 0.027,0.13 -0.072,0.122 -0.027,0.014 -3.051,0.901 -1.015,-3.538 2.749,-0.843"
     id="Providence"
     inkscape:connector-curvature="0" />
  <path
     style="font-size:12px;fill:#d0d0d0;fill-rule:nonzero;stroke:#000000;stroke-width:1;stroke-linecap:butt;stroke-linejoin:bevel;stroke-miterlimit:4;stroke-opacity:1;stroke-dasharray:none;marker-start:none"
     d="m 6.3329186,4.5258644 -0.131,-0.144 0.306,-0.623 1.078,0.6 0.392,0.365 -0.392,0.591 -0.144,0.238 -0.015,0.05 -0.707,-0.217 -0.387,-0.86"
     id="Bristol"
     inkscape:connector-curvature="0" />
  <path
     style="font-size:12px;fill:#d0d0d0;fill-rule:nonzero;stroke:#000000;stroke-width:1;stroke-linecap:butt;stroke-linejoin:bevel;stroke-miterlimit:4;stroke-opacity:1;stroke-dasharray:none;marker-start:none"
     d="m 7.9779186,4.7238644 1.288,2.042 -0.342,0.441 -1.271,0.617 -0.369,0.095 -0.14,-0.09 -0.005,-0.058 0.284,-2.155 0.004,-0.013 0.015,-0.05 0.144,-0.238 0.392,-0.591"
     id="Newport"
     inkscape:connector-curvature="0" />
  <path
     style="font-size:12px;fill:#d0d0d0;fill-rule:nonzero;stroke:#000000;stroke-width:1;stroke-linecap:butt;stroke-linejoin:bevel;stroke-miterlimit:4;stroke-opacity:1;stroke-dasharray:none;marker-start:none"
     d="m 2.7309186,7.1578644 2.812,-0.816 0.533,-0.825 0.257,0.794 0.139,0.946 0.061,0.406 0.011,0.161 0.009,0.244 -0.017,0.131 -0.083,0.518 -0.138,0.5229999 -3.078,1.5589997 -0.262,-0.022 -0.244,-3.6189996"
     id="Washington"
     inkscape:connector-curvature="0" />
</svg>
