<?xml version="1.0" encoding="UTF-8" standalone="no"?>
<!-- Created with Inkscape (http://www.inkscape.org/) -->

<svg
   xmlns:dc="http://purl.org/dc/elements/1.1/"
   xmlns:cc="http://creativecommons.org/ns#"
   xmlns:rdf="http://www.w3.org/1999/02/22-rdf-syntax-ns#"
   xmlns:svg="http://www.w3.org/2000/svg"
   xmlns="http://www.w3.org/2000/svg"
   xmlns:sodipodi="http://sodipodi.sourceforge.net/DTD/sodipodi-0.dtd"
   xmlns:inkscape="http://www.inkscape.org/namespaces/inkscape"
   version="1.0"
   width="42"
   height="76"
   sodipodi:version="0.32"
   inkscape:version="0.48.2 r9819"
   sodipodi:docname="il.svg"
   inkscape:output_extension="org.inkscape.output.svg.inkscape"
   id="svg3095">
  <metadata
     id="metadata3203">
    <rdf:RDF>
      <cc:Work
         rdf:about="">
        <dc:format>image/svg+xml</dc:format>
        <dc:type
           rdf:resource="http://purl.org/dc/dcmitype/StillImage" />
      </cc:Work>
    </rdf:RDF>
  </metadata>
  <defs
     id="defs3201" />
  <sodipodi:namedview
     pagecolor="#ffffff"
     bordercolor="#666666"
     borderopacity="1"
     objecttolerance="10"
     gridtolerance="10"
     guidetolerance="10"
     inkscape:pageopacity="0"
     inkscape:pageshadow="2"
     inkscape:window-width="1366"
     inkscape:window-height="716"
     id="namedview3199"
     showgrid="false"
     inkscape:zoom="17.559208"
     inkscape:cx="4.005287"
     inkscape:cy="59.50983"
     inkscape:window-x="-8"
     inkscape:window-y="-8"
     inkscape:window-maximized="1"
     inkscape:current-layer="svg3095" />
  <path
     style="fill:#d0d0d0;stroke-width:1;stroke-miterlimit:4;stroke-dasharray:none;stroke:#000000;stroke-opacity:1"
     d="m 39.946192,28.90153 0.02721,4.277893 0.04204,3.441812 -3.974542,0.103094 -0.108232,-4.490231 0.1316,-0.0034 -0.0676,-2.259618 -0.04176,-1.123859 3.989514,-0.130091 0.002,0.184606"
     id="Vermilion"
     />
  <path
     style="fill:#d0d0d0;stroke-width:1;stroke-miterlimit:4;stroke-dasharray:none;stroke:#000000;stroke-opacity:1"
     d="m 33.967246,22.224964 5.859848,-0.249679 0.117286,6.741638 -3.989511,0.13009 -1.780462,-0.0013 -0.207161,-6.620756"
     id="Iroquois"
     />
  <path
     style="fill:#d0d0d0;stroke-width:1;stroke-miterlimit:4;stroke-dasharray:none;stroke:#000000;stroke-opacity:1"
     d="m 20.731616,69.887627 2.40316,-2.11e-4 -0.131801,1.405174 -0.12564,1.305357 0.08024,0.209269 0.07393,0.101556 0.240355,0.129511 0.641356,0.325692 0.402479,1.112624 -1.94089,-0.350659 -0.639573,-0.60227 -0.29595,-0.906482 -0.540599,-1.213756 -0.23096,-0.386504 0.06388,-1.129324"
     id="Alexander"
     />
  <path
     style="fill:#d0d0d0;stroke-width:1;stroke-miterlimit:4;stroke-dasharray:none;stroke:#000000;stroke-opacity:1"
     d="m 23.134777,69.887448 2.073486,0.06746 1.177912,0.351114 0.01486,0.995611 -0.05614,0.01405 -2.431679,2.048386 -0.641355,-0.325692 -0.240354,-0.129512 -0.07393,-0.101546 -0.08025,-0.20927 0.12564,-1.305356 0.131801,-1.405173"
     id="Pulaski"
     />
  <path
     style="fill:#d0d0d0;stroke-width:1;stroke-miterlimit:4;stroke-dasharray:none;stroke:#000000;stroke-opacity:1"
     d="m 26.386176,70.305986 2.223163,-0.454215 2.257813,2.293299 0.01378,1.207068 -0.735449,-0.131918 -3.744405,-1.918627 -0.01487,-0.995608"
     id="Massac"
     />
  <path
     style="fill:#d0d0d0;stroke-width:1;stroke-miterlimit:4;stroke-dasharray:none;stroke:#000000;stroke-opacity:1"
     d="m 31.992655,66.415881 2.45973,0.301637 0.743311,0.88942 -0.01497,0.207471 -0.208237,0.205639 -0.10438,0.01559 -1.424707,0.196642 -0.214676,0.0297 -0.178043,0.03643 -0.06517,0.01439 -0.02223,0.002 -0.253955,0.130177 -0.05117,0.02841 -0.0091,0.0033 -0.18293,0.146293 -0.279723,0.321823 -0.57569,-0.234761 0.01101,-2.294076 0.37098,-5.06e-4"
     id="Hardin"
     />
  <path
     style="fill:#d0d0d0;stroke-width:1;stroke-miterlimit:4;stroke-dasharray:none;stroke:#000000;stroke-opacity:1"
     d="m 31.621672,66.416357 -0.01101,2.294079 -0.06476,0.02245 -0.180273,0.06727 -0.07575,0.04974 -0.09533,0.05734 -0.142819,0.160195 -0.06194,0.122885 -0.379062,1.246087 -4.13e-4,0.0049 -0.0122,0.08536 0.06683,0.284507 0.390153,0.543284 0.130144,0.08655 0.117023,0.129702 0.241506,0.658952 -0.199811,0.703515 -0.144572,0.324493 -0.241831,0.08693 -0.07673,0.0075 -0.01379,-1.20707 -2.257813,-2.293298 0.0056,-3.407317 3.006704,-0.02811"
     id="Pope"
     />
  <path
     style="fill:#d0d0d0;stroke-width:1;stroke-miterlimit:4;stroke-dasharray:none;stroke:#000000;stroke-opacity:1"
     d="m 28.614969,66.444456 -0.0056,3.40732 -2.223166,0.454215 -1.177911,-0.351115 0.02778,-3.463884 3.378977,-0.04649"
     id="Johnson"
     />
  <path
     style="fill:#d0d0d0;stroke-width:1;stroke-miterlimit:4;stroke-dasharray:none;stroke:#000000;stroke-opacity:1"
     d="m 25.235995,66.490987 -0.02778,3.463884 -2.073482,-0.06746 -2.403164,2.11e-4 0.375138,-0.07234 0.120989,-0.05148 0.0097,-0.01238 0.01063,-0.0084 0.0087,-0.01239 0.04962,-0.118758 0.06827,-0.393123 0.0065,-0.01661 -0.0041,-0.0143 -0.04231,-0.220594 -0.0036,-0.0213 -0.0034,-0.01027 -0.135482,-0.37565 -0.114389,-0.1666 -0.247584,-0.280422 -0.168282,-0.29579 -0.248869,-0.556217 -0.004,-0.003 -0.04538,-0.261919 -7.91e-4,-0.117348 0.0055,-0.07681 3.731374,-0.361099 1.135312,0.05021"
     id="Union"
     />
  <path
     style="fill:#d0d0d0;stroke-width:1;stroke-miterlimit:4;stroke-dasharray:none;stroke:#000000;stroke-opacity:1"
     d="m 35.057733,62.60828 0.42612,1.174472 -0.165771,0.480379 -0.05825,0.127161 -0.08576,0.133211 -0.131127,0.12294 -0.49218,0.306593 -0.008,0.0043 -0.184535,0.294562 -0.09173,0.132781 -0.01497,0.02699 -0.06415,0.139773 -0.0204,0.08876 0.0041,0.01432 0.03201,0.295043 0.005,0.01443 0.173553,0.599943 0.07122,0.153484 -2.459725,-0.301635 -0.02466,-4.006018 7.14e-4,-0.0091 3.089075,0.207397"
     id="Gallatin"
     />
  <path
     style="fill:#d0d0d0;stroke-width:1;stroke-miterlimit:4;stroke-dasharray:none;stroke:#000000;stroke-opacity:1"
     d="m 31.968013,62.409866 0.02466,4.006015 -0.370986,4.05e-4 -3.006704,0.0281 -0.0024,-3.434964 4.7e-4,-0.564421 3.355105,-0.0352"
     id="Saline"
     />
  <path
     style="fill:#d0d0d0;stroke-width:1;stroke-miterlimit:4;stroke-dasharray:none;stroke:#000000;stroke-opacity:1"
     d="m 28.612552,63.009496 0.0024,3.434961 -3.378976,0.04649 -1.135315,-0.05021 0.02224,-3.401117 4.48964,-0.03009"
     id="Williamson"
     />
  <path
     style="fill:#d0d0d0;stroke-width:1;stroke-miterlimit:4;stroke-dasharray:none;stroke:#000000;stroke-opacity:1"
     d="m 19.642633,61.820123 4.210685,0.0712 0.269558,1.148225 -0.02224,3.401116 -3.731373,0.3611 -1.536614,-3.011574 0.809933,-1.970133"
     id="Jackson"
     />
  <path
     style="fill:#d0d0d0;stroke-width:1;stroke-miterlimit:4;stroke-dasharray:none;stroke:#000000;stroke-opacity:1"
     d="m 12.979329,54.424787 1.167288,1.226598 2.213478,2.0866 0.233044,0.609217 -1.376767,-0.03857 -0.0084,1.138315 -1.697679,0.592134 -0.483307,-0.418627 -0.786845,-0.883517 -0.02396,-0.02978 -0.02872,-0.04716 -0.166437,-0.26558 -0.09605,-0.296626 -0.09319,-0.58817 0.01983,-0.540967 0.01835,-0.130026 0.02279,-0.0525 0.182369,-0.48821 0.05131,-0.08653 0.0305,-0.03388 0.822417,-1.752684"
     id="Monroe"
     />
  <path
     style="fill:#d0d0d0;stroke-width:1;stroke-miterlimit:4;stroke-dasharray:none;stroke:#000000;stroke-opacity:1"
     d="m 19.677053,58.388801 -0.03444,3.431323 -0.80993,1.970132 -2.661981,-0.948751 -2.660447,-2.802391 1.697681,-0.592133 0.0084,-1.138313 1.376768,0.03856 1.971613,0.03402 1.112307,0.0076"
     id="Randolph"
     />
  <path
     style="fill:#d0d0d0;stroke-width:1;stroke-miterlimit:4;stroke-dasharray:none;stroke:#000000;stroke-opacity:1"
     d="m 19.677053,58.388801 4.479066,0.08948 0.186692,1.143284 -0.489537,2.269807 -4.210684,-0.0712 0.03444,-3.431319"
     id="Perry"
     />
  <path
     style="fill:#d0d0d0;stroke-width:1;stroke-miterlimit:4;stroke-dasharray:none;stroke:#000000;stroke-opacity:1"
     d="m 28.617112,59.603101 -0.0046,3.406392 -4.489642,0.03009 -0.269566,-1.148219 0.489538,-2.269808 4.274255,-0.01844"
     id="Franklin"
     />
  <path
     style="fill:#d0d0d0;stroke-width:1;stroke-miterlimit:4;stroke-dasharray:none;stroke:#000000;stroke-opacity:1"
     d="m 31.970071,57.891449 -0.0014,4.509439 -7.15e-4,0.0091 -3.355102,0.03521 0.0042,-2.841975 0.01316,-1.70743 3.339853,-0.0042"
     id="Hamilton"
     />
  <path
     style="fill:#d0d0d0;stroke-width:1;stroke-miterlimit:4;stroke-dasharray:none;stroke:#000000;stroke-opacity:1"
     d="m 35.787087,57.790096 0.343085,0.444668 -0.154516,1.344392 -0.357195,2.96906 -0.03086,0.05293 -0.0068,0.0088 -0.02303,0.01334 -0.01719,0.0017 -0.483045,-0.01676 -3.089078,-0.207396 0.0014,-4.50944 2.207884,-0.03117 1.609133,-0.07014"
     id="White"
     />
  <path
     style="fill:#d0d0d0;stroke-width:1;stroke-miterlimit:4;stroke-dasharray:none;stroke:#000000;stroke-opacity:1"
     d="m 28.649032,55.059758 -0.0188,2.835908 -0.01316,1.707435 -4.274257,0.01844 -0.186691,-1.143284 0.0309,-3.395484 4.462064,-0.02305"
     id="Jefferson"
     />
  <path
     style="fill:#d0d0d0;stroke-width:1;stroke-miterlimit:4;stroke-dasharray:none;stroke:#000000;stroke-opacity:1"
     d="m 24.192048,54.704185 -0.0049,0.378608 -0.0309,3.395486 -4.479067,-0.08948 -1.112307,-0.0076 0.0051,-2.58926 0.365648,-0.31767 0.543285,-0.390155 0.415898,-0.123584 3.030426,-0.303108 1.266906,0.0467"
     id="Washington"
     />
  <path
     style="fill:#d0d0d0;stroke-width:1;stroke-miterlimit:4;stroke-dasharray:none;stroke:#000000;stroke-opacity:1"
     d="m 23.086433,51.596182 1.155608,0.07482 -0.04996,3.033187 -1.266904,-0.04671 -3.030428,0.303108 -0.415898,0.123587 -0.543285,0.390155 -0.365648,0.31767 -0.01,-3.077591 1.098418,-1.141388 3.428117,0.02316"
     id="Clinton"
     />
  <path
     style="fill:#d0d0d0;stroke-width:1;stroke-miterlimit:4;stroke-dasharray:none;stroke:#000000;stroke-opacity:1"
     d="m 13.817293,52.609053 4.742603,0.105376 0.01,3.077591 -0.0051,2.589258 -1.971612,-0.03402 -0.233034,-0.609219 -2.213478,-2.086596 -1.167288,-1.226598 0.05625,-0.155378 0.781713,-1.660359"
     id="St._Clair"
     />
  <path
     style="fill:#d0d0d0;stroke-width:1;stroke-miterlimit:4;stroke-dasharray:none;stroke:#000000;stroke-opacity:1"
     d="m 19.255179,48.245682 0.02008,1.049118 0.117379,0.572848 0.257784,0.8095 0.008,0.895862 -1.098417,1.141391 -4.742604,-0.105365 -0.131269,-1.050071 0.787487,-0.831826 0.03066,-0.120115 0.05722,-0.294662 -0.0035,-0.07645 -0.03576,-0.07476 -0.93324,-0.659413 -0.181507,-0.125296 -0.242707,-0.138708 -0.250762,-0.09618 1.301995,-0.946336 4.451858,0.04942 0.587432,0.0011"
     id="Madison"
     />
  <path
     style="fill:#d0d0d0;stroke-width:1;stroke-miterlimit:4;stroke-dasharray:none;stroke:#000000;stroke-opacity:1"
     d="m 23.126123,47.881509 -0.0397,3.714673 -3.428117,-0.02316 -0.008,-0.895864 -0.257782,-0.809501 -0.117381,-0.572847 -0.02009,-1.049123 3.870943,-0.364187"
     id="Bond"
     />
  <path
     style="fill:#d0d0d0;stroke-width:1;stroke-miterlimit:4;stroke-dasharray:none;stroke:#000000;stroke-opacity:1"
     d="m 24.24204,51.670997 0.0047,-1.142591 1.378627,0.01251 3.039268,-0.04884 -0.01448,2.859284 -0.0012,1.708293 -4.462066,0.02303 0.0049,-0.378609 0.05006,-3.033188"
     id="Marion"
     />
  <path
     style="fill:#d0d0d0;stroke-width:1;stroke-miterlimit:4;stroke-dasharray:none;stroke:#000000;stroke-opacity:1"
     d="m 33.096832,53.40352 1.06989,0.389496 0.01122,4.067212 -2.207883,0.03116 -3.339848,0.0042 0.0188,-2.835911 0.0012,-1.708292 4.446657,0.05206"
     id="Wayne"
     />
  <path
     style="fill:#d0d0d0;stroke-width:1;stroke-miterlimit:4;stroke-dasharray:none;stroke:#000000;stroke-opacity:1"
     d="m 36.519526,53.740098 2.613275,-0.0082 -0.862737,2.007454 -2.12142,2.433551 -0.01849,0.06185 -0.343086,-0.444669 0.307956,-4.044334 0.424488,-0.0056"
     id="Wabash"
     />
  <path
     style="fill:#d0d0d0;stroke-width:1;stroke-miterlimit:4;stroke-dasharray:none;stroke:#000000;stroke-opacity:1"
     d="m 36.095036,53.745762 -0.307956,4.044333 -1.609133,0.07014 -0.01122,-4.067214 1.928314,-0.04725"
     id="Edwards"
     />
  <path
     style="fill:#d0d0d0;stroke-width:1;stroke-miterlimit:4;stroke-dasharray:none;stroke:#000000;stroke-opacity:1"
     d="m 40.261289,50.017098 0.04054,0.0078 0.01936,0.03748 0.324034,0.850344 -0.02659,0.313909 -0.199266,0.807818 -0.111691,0.173459 -0.08461,0.06112 -0.859121,0.950007 -0.231254,0.512779 -2.613271,0.0082 -0.0059,-3.63873 3.747618,-0.08428"
     id="Lawrence"
     />
  <path
     style="fill:#d0d0d0;stroke-width:1;stroke-miterlimit:4;stroke-dasharray:none;stroke:#000000;stroke-opacity:1"
     d="m 36.513672,50.101367 0.0058,3.638731 -0.424488,0.0056 -1.928314,0.04725 -1.069892,-0.389493 -0.324027,-1.15813 -0.01413,-0.194507 0.023,-0.364284 0.261977,0.0096 -0.02872,-1.515933 3.122986,-0.06989 0.375617,-0.0092"
     id="Richland"
     />
  <path
     style="fill:#d0d0d0;stroke-width:1;stroke-miterlimit:4;stroke-dasharray:none;stroke:#000000;stroke-opacity:1"
     d="m 28.674974,49.340975 3.310707,0.02482 0.0061,0.836917 1.023261,-0.02218 0.02871,1.515934 -0.261978,-0.0096 -0.023,0.364284 0.01414,0.194509 0.324023,1.15813 -4.446658,-0.05206 0.01448,-2.859282 0.01022,-1.151211"
     id="Clay"
     sodipodi:nodetypes="cccccccccccc"
     />
  <path
     style="fill:#d0d0d0;stroke-width:1;stroke-miterlimit:4;stroke-dasharray:none;stroke:#000000;stroke-opacity:1"
     d="m 35.463688,45.909572 0.570983,-0.02122 0.103391,4.222198 -4.146357,0.09292 -0.03032,-4.219105 3.502311,-0.07478"
     id="Jasper"
     sodipodi:nodetypes="cccccc"
     />
  <path
     style="fill:#d0d0d0;stroke-width:1;stroke-miterlimit:4;stroke-dasharray:none;stroke:#000000;stroke-opacity:1"
     d="m 36.034669,45.888339 3.195095,0.18294 0.152931,0.70574 0.428406,0.583123 0.62272,1.326918 -0.05633,0.408019 -0.08643,0.198328 -0.06465,0.07659 0.03481,0.647147 -3.747616,0.08427 -0.375616,0.0092 -0.103393,-4.222199"
     id="Crawford"
     />
  <path
     style="fill:#d0d0d0;stroke-width:1;stroke-miterlimit:4;stroke-dasharray:none;stroke:#000000;stroke-opacity:1"
     d="m 35.88576,41.90951 2.683408,-0.11945 -0.004,0.139071 1.556328,-0.03285 -0.665094,2.84473 -0.226686,1.330194 -3.195098,-0.182941 -0.57098,0.02122 -0.07585,-2.662239 0.497925,-1.337822"
     id="Clark"
     />
  <path
     style="fill:#d0d0d0;stroke-width:1;stroke-miterlimit:4;stroke-dasharray:none;stroke:#000000;stroke-opacity:1"
     d="m 35.387837,43.247332 0.07585,2.662241 -4.595661,0.09734 -0.02027,-2.654923 4.540102,-0.104666"
     sodipodi:nodetypes="ccccc"
     id="Cumberland"
     />
  <path
     style="fill:#d0d0d0;stroke-width:1;stroke-miterlimit:4;stroke-dasharray:none;stroke:#000000;stroke-opacity:1"
     d="m 30.861465,45.426287 0.0057,0.581735 1.094272,-0.02369 0.02432,3.381391 -3.310703,-0.02482 -1.127851,0.04147 -9.3e-4,-3.959201"
     sodipodi:nodetypes="ccccccc"
     id="Effingham"
     />
  <path
     style="fill:#d0d0d0;stroke-width:1;stroke-miterlimit:4;stroke-dasharray:none;stroke:#000000;stroke-opacity:1"
     d="m 27.546196,45.423245 9.3e-4,3.959198 1.127846,-0.04147 -0.01022,1.151208 -3.039269,0.04884 -1.37863,-0.01251 -0.0047,1.14259 -1.15561,-0.07481 0.03969,-3.714672 1.098398,-2.469788 3.321676,0.01152"
     id="Fayette"
     />
  <path
     style="fill:#d0d0d0;stroke-width:1;stroke-miterlimit:4;stroke-dasharray:none;stroke:#000000;stroke-opacity:1"
     d="m 25.345948,39.739387 2.118888,0.0075 0.02235,0.947018 2.228374,1.501166 0.459278,0.208371 0.669793,-0.0012 0.0031,0.949654 0.01373,2.074291 -3.315268,-0.0031 -3.321675,-0.01151 8.46e-4,-1.7033 1.132387,0.03506 0.01132,-2.29807 -0.02312,-1.706017"
     id="Shelby"
     />
  <path
     style="fill:#d0d0d0;stroke-width:1;stroke-miterlimit:4;stroke-dasharray:none;stroke:#000000;stroke-opacity:1"
     d="m 18.67295,41.430613 1.658207,-0.01346 0.02342,2.288536 2.76445,0.0087 1.106257,-0.0059 -7.46e-4,1.703302 -1.098398,2.469788 -3.870942,0.364192 -0.587433,-0.0011 0.0052,-6.814066"
     id="Montgomery"
     />
  <path
     style="fill:#d0d0d0;stroke-width:1;stroke-miterlimit:4;stroke-dasharray:none;stroke:#000000;stroke-opacity:1"
     d="m 14.229354,44.790505 -0.01348,3.404749 -1.301993,0.946336 -1.739571,-0.557804 -1.4890674,-1.968503 0.2370462,-0.873287 0.4433142,-0.07249 0.271788,0.0686 0.05321,0.05496 0.0039,0.02736 0.162557,0.109904 1.714207,-0.01149 0.0015,-0.664591 1.19144,-0.46701 0.464957,0.0031"
     id="Jersey"
     />
  <path
     style="fill:#d0d0d0;stroke-width:1;stroke-miterlimit:4;stroke-dasharray:none;stroke:#000000;stroke-opacity:1"
     d="m 16.45339,41.428914 2.219561,0.0017 -0.0052,6.814066 -4.451858,-0.04942 0.01348,-3.404751 -0.02617,-3.355459 2.250197,-0.0062"
     id="Macoupin"
     />
  <path
     style="fill:#d0d0d0;stroke-width:1;stroke-miterlimit:4;stroke-dasharray:none;stroke:#000000;stroke-opacity:1"
     d="m 6.3007469,42.892773 3.3351203,0.103692 0.049387,3.618792 1.4890664,1.968504 -2.147495,0.40545 -0.4318872,-1.471647 3.753e-4,-0.0049 -0.018497,-0.09157 0.012904,-0.04019 0.3002667,-0.398588 0.019561,-0.161014 -0.3497038,-1.61112 -2.2590896,-2.317448"
     id="Calhoun"
     />
  <path
     style="fill:#d0d0d0;stroke-width:1;stroke-miterlimit:4;stroke-dasharray:none;stroke:#000000;stroke-opacity:1"
     d="m 14.203195,41.435045 0.02616,3.35546 -0.464959,-0.0031 -1.19144,0.467009 -0.0015,0.664593 -1.714205,0.01149 -0.16256,-0.109903 -0.0039,-0.02733 -0.05321,-0.05497 -0.271789,-0.06859 -0.4433159,0.07248 -0.2370449,0.873289 -0.049388,-3.618794 0.3476697,-1.633322 2.7569604,0.05722 1.462698,0.01461"
     id="Greene"
     />
  <path
     style="fill:#d0d0d0;stroke-width:1;stroke-miterlimit:4;stroke-dasharray:none;stroke:#000000;stroke-opacity:1"
     d="m 23.455709,37.674955 0.74841,0.160921 0.02589,1.890687 1.115939,0.0129 0.02312,1.706016 -0.01132,2.29807 -1.132391,-0.03506 -1.106252,0.0059 -2.764456,-0.0087 -0.02342,-2.288531 -0.0078,-1.513435 1.372264,-1.311239 1.392047,-0.943889 0.368053,0.02643"
     id="Christian"
     />
  <path
     style="fill:#d0d0d0;stroke-width:1;stroke-miterlimit:4;stroke-dasharray:none;stroke:#000000;stroke-opacity:1"
     d="m 30.807388,39.746886 4.030886,-0.04993 -0.0042,-0.375259 0.368573,-0.05078 0.584158,-0.02332 0.09894,2.661882 -0.497929,1.337825 -4.540101,0.104666 -0.0031,-0.94965 -0.0372,-2.655462"
     id="Coles"
     />
  <path
     style="fill:#d0d0d0;stroke-width:1;stroke-miterlimit:4;stroke-dasharray:none;stroke:#000000;stroke-opacity:1"
     d="m 36.040886,36.72433 3.974542,-0.103092 0.07298,3.583389 0.03318,1.691696 -1.556329,0.03285 0.004,-0.139072 -2.683409,0.119449 -0.09893,-2.661885 -0.02628,-0.948305 0.274981,-0.437458 0.0054,-1.13753"
     id="Edgar"
     />
  <path
     style="fill:#d0d0d0;stroke-width:1;stroke-miterlimit:4;stroke-dasharray:none;stroke:#000000;stroke-opacity:1"
     d="m 30.880162,36.787514 5.160722,-0.0632 -0.0054,1.137531 -0.274982,0.437456 0.02628,0.948308 -0.584159,0.02332 -0.368575,0.05078 0.0042,0.375262 -4.030887,0.04993 -0.02674,-1.82258 0.09953,-1.136794"
     id="Douglas"
     />
  <path
     style="fill:#d0d0d0;stroke-width:1;stroke-miterlimit:4;stroke-dasharray:none;stroke:#000000;stroke-opacity:1"
     d="m 30.780629,37.924305 0.02674,1.822578 0.0372,2.65546 -0.669791,0.0012 -0.45928,-0.208371 -2.228371,-1.501163 -0.02238,-0.947021 0.634764,-1.806239 2.681032,-0.01634"
     id="Moultrie"
     />
  <path
     style="fill:#d0d0d0;stroke-width:1;stroke-miterlimit:4;stroke-dasharray:none;stroke:#000000;stroke-opacity:1"
     d="m 28.086917,34.523008 0.01267,3.417653 -0.634761,1.806242 -2.118888,-0.0075 -1.115938,-0.0129 -0.02589,-1.890691 -0.748407,-0.160918 -0.0024,-1.351629 0.71917,-1.710961 1.135822,-0.01286 2.20526,-0.07852 0.573324,0.002"
     id="Macon"
     />
  <path
     style="fill:#d0d0d0;stroke-width:1;stroke-miterlimit:4;stroke-dasharray:none;stroke:#000000;stroke-opacity:1"
     d="m 19.91156,35.55012 0.931769,-0.0054 5.29e-4,0.564489 0.771699,0.199681 1.837674,0.01441 0.0024,1.351626 -0.368056,-0.02642 -1.392049,0.943887 -1.372262,1.311244 0.0078,1.513432 -1.658209,0.01346 -2.219557,-0.0017 0.01804,-0.377677 -0.04685,-0.283077 -0.528104,-1.891601 -0.08277,-0.873154 0.0055,-1.138528 2.7e-5,-0.379963 2.213644,0.01423 0.664285,-0.204031 -0.0033,-0.2629 0.04212,-0.476204 1.175436,-0.006"
     id="Sangamon"
     />
  <path
     style="fill:#d0d0d0;stroke-width:1;stroke-miterlimit:4;stroke-dasharray:none;stroke:#000000;stroke-opacity:1"
     d="m 10.025588,36.748362 5.793498,0.116534 -0.0055,1.138522 0.08277,0.873159 0.528108,1.891598 0.04685,0.283082 -0.01804,0.377676 -2.250196,0.0062 -1.462698,-0.01461 0.0323,-1.511561 -0.676318,-1.530277 -1.09573,-0.476561 -1.1410131,-0.0267 0.2754601,-0.639947 -0.10944,-0.487075"
     id="Morgan"
     />
  <path
     style="fill:#d0d0d0;stroke-width:1;stroke-miterlimit:4;stroke-dasharray:none;stroke:#000000;stroke-opacity:1"
     d="m 12.740495,41.42043 -2.7569598,-0.05722 0.088268,-0.224264 -5.85e-4,-0.04915 -0.05814,-0.265836 -0.2758353,-0.991256 -0.077526,-1.380079 0.1997792,-0.577191 1.1410152,0.0267 1.095728,0.476563 0.676322,1.530275 -0.0322,1.511566"
     id="Scott"
     />
  <path
     style="fill:#d0d0d0;stroke-width:1;stroke-miterlimit:4;stroke-dasharray:none;stroke:#000000;stroke-opacity:1"
     d="m 10.135045,37.235436 -0.2754588,0.639942 -0.1997799,0.577197 0.077526,1.380073 0.2758335,0.991257 0.05813,0.265839 5.86e-4,0.04915 -0.088278,0.224258 -0.347669,1.633322 L 6.3008281,42.892765 4.1082188,40.263269 2.7974204,39.108598 2.280339,38.14015 l 1.6180051,0.05785 2.8284233,0.05337 0.018675,-1.141585 3.3896856,0.125723"
     id="Pike"
     />
  <path
     style="fill:#d0d0d0;stroke-width:1;stroke-miterlimit:4;stroke-dasharray:none;stroke:#000000;stroke-opacity:1"
     d="m 6.8338362,33.735452 1.1524913,0.0063 0.9817761,0.03827 0.6681092,1.029405 0.1932525,0.450969 0.9033247,0.05576 -0.707202,1.4321 0.10944,0.487079 -3.3896855,-0.125722 0.088478,-3.374308"
     id="Brown"
     />
  <path
     style="fill:#d0d0d0;stroke-width:1;stroke-miterlimit:4;stroke-dasharray:none;stroke:#000000;stroke-opacity:1"
     d="m 6.8721709,32.585247 -0.038328,1.150205 -0.088478,3.374312 -0.018671,1.141585 -2.8284233,-0.05337 -1.6180054,-0.05785 -0.8101064,-2.447185 -0.4532933,-3.326923 5.8553111,0.219235"
     id="Adams"
     />
  <path
     style="fill:#d0d0d0;stroke-width:1;stroke-miterlimit:4;stroke-dasharray:none;stroke:#000000;stroke-opacity:1"
     d="m 4.3114479,26.755244 2.7403651,0.03711 -0.1398749,4.608793 -0.039766,1.18419 -5.8553115,-0.219234 0.1049612,-0.625096 0.8409187,-1.661127 0.3047435,-0.08343 0.014537,-0.0067 0.1088862,-0.0784 0.031019,-0.111065 0.0046,-0.0079 0.1088622,-1.155142 0.00132,-0.130241 -0.04264,-0.160527 -0.1447826,-0.245982 -0.1917702,-0.107981 -0.024199,-0.110011 0.021825,-0.09468 0.4539937,-0.599075 0.038839,-0.03835 0.038414,-0.03236 0.032283,-0.03079 0.08964,-0.04772 0.2533137,-0.121201 0.060209,-0.02877 0.014614,-0.0079 0.5214934,-0.142075 0.004,3.06e-4 0.077094,0.0015 0.2577,-5e-4 0.3147668,0.0145"
     id="Hancock"
     />
  <path
     style="fill:#d0d0d0;stroke-width:1;stroke-miterlimit:4;stroke-dasharray:none;stroke:#000000;stroke-opacity:1"
     d="m 8.1681672,26.855246 3.3405978,0.153194 -0.104676,4.565203 -4.4921546,-0.172616 0.1398739,-4.608793 1.1163523,0.06302"
     id="Donough"
     />
  <path
     style="fill:#d0d0d0;stroke-width:1;stroke-miterlimit:4;stroke-dasharray:none;stroke:#000000;stroke-opacity:1"
     d="m 6.9119389,31.40106 4.4921541,0.172616 2.437195,1.231402 -1.532144,0.758396 -1.576354,1.752782 -0.9033235,-0.05577 -0.1932531,-0.450971 -0.6681107,-1.029405 -0.9817759,-0.03827 -1.1524914,-0.0063 0.078104,-2.334392"
     id="Schuyler"
     />
  <path
     style="fill:#d0d0d0;stroke-width:1;stroke-miterlimit:4;stroke-dasharray:none;stroke:#000000;stroke-opacity:1"
     d="m 12.309144,33.56348 0.672204,0.902371 0.872758,0.04855 0.01861,-0.0076 0.99989,-0.326341 0.922087,-0.30385 0.04503,-0.06895 -0.0204,2.677389 -1.27e-4,0.379958 -5.793495,-0.116533 0.707201,-1.432099 1.576353,-1.752786"
     id="Cass"
     />
  <path
     style="fill:#d0d0d0;stroke-width:1;stroke-miterlimit:4;stroke-dasharray:none;stroke:#000000;stroke-opacity:1"
     d="m 15.839731,33.807533 0.455346,-0.310236 2.735403,-0.3413 0.34567,0.08695 0.320011,0.402911 0.215398,1.904274 -1.175435,0.006 -0.04212,0.476208 0.0034,0.2629 -0.66429,0.204032 -2.213639,-0.01423 0.0204,-2.677388"
     id="Menard"
     />
  <path
     style="fill:#d0d0d0;stroke-width:1;stroke-miterlimit:4;stroke-dasharray:none;stroke:#000000;stroke-opacity:1"
     d="m 16.56075,29.553197 2.021845,0.01872 0.01379,1.513863 1.093358,-0.0079 0.0064,2.56803 -0.320011,-0.402913 -0.345671,-0.08694 -2.735402,0.341296 -0.455345,0.31024 -0.04504,0.06896 -0.922083,0.30385 -0.999893,0.326348 -0.01861,0.0076 -0.872762,-0.04855 -0.672204,-0.90237 1.532144,-0.758397 0.713392,-0.553411 0.06869,-0.07727 0.515676,-0.816219 0.17317,-0.723472 0.06845,-0.199617 0.06634,-0.100516 0.967,-0.706672 0.146716,-0.07471"
     id="Mason"
     />
  <path
     style="fill:#d0d0d0;stroke-width:1;stroke-miterlimit:4;stroke-dasharray:none;stroke:#000000;stroke-opacity:1"
     d="m 23.007169,31.022862 1.119864,0.559498 0.04549,3.030007 -0.719171,1.710959 -1.837671,-0.01441 -0.771698,-0.199683 -5.29e-4,-0.564493 -0.931769,0.0054 -0.215399,-1.904273 -0.0064,-2.56803 3.317421,-0.05491"
     id="Logan"
     />
  <path
     style="fill:#d0d0d0;stroke-width:1;stroke-miterlimit:4;stroke-dasharray:none;stroke:#000000;stroke-opacity:1"
     d="m 29.742374,31.568809 -1.655457,2.954199 -0.573323,-0.002 -2.205259,0.07853 -1.135822,0.01285 -0.0455,-3.030007 5.615339,-0.01355"
     id="De_Witt"
     />
  <path
     style="fill:#d0d0d0;stroke-width:1;stroke-miterlimit:4;stroke-dasharray:none;stroke:#000000;stroke-opacity:1"
     d="m 29.742374,31.568809 1.124563,-0.0097 0.01322,5.228329 -0.09952,1.13679 -2.681033,0.01634 -0.01267,-3.417652 1.655454,-2.954199"
     id="Piatt"
     />
  <path
     style="fill:#d0d0d0;stroke-width:1;stroke-miterlimit:4;stroke-dasharray:none;stroke:#000000;stroke-opacity:1"
     d="m 30.849866,30.035068 5.146762,-0.06418 0.06762,2.259618 -0.1316,0.0034 0.108235,4.490229 -5.160727,0.0632 -0.01322,-5.228327 -0.01704,-1.524121"
     id="Champaign"
     />
  <path
     style="fill:#d0d0d0;stroke-width:1;stroke-miterlimit:4;stroke-dasharray:none;stroke:#000000;stroke-opacity:1"
     d="m 32.850718,22.276267 1.11653,-0.05125 0.207166,6.620756 1.78046,0.0013 0.04177,1.123861 -5.14676,0.06418 -0.01303,-2.839197 2.183587,-0.0279 -0.169692,-4.891652"
     id="Ford"
     />
  <path
     style="fill:#d0d0d0;stroke-width:1;stroke-miterlimit:4;stroke-dasharray:none;stroke:#000000;stroke-opacity:1"
     d="m 26.256724,25.452939 3.354611,-0.07032 0.02217,1.131479 0.08513,0.700877 1.118226,-0.01909 0.01303,2.839199 0.01704,1.524119 -1.124565,0.0097 -5.615338,0.01355 -1.119862,-0.559499 -0.05213,-3.496676 1.318719,-0.0328 0.872025,-0.402682 0.577294,-0.48697 0.533643,-1.150794"
     id="McLean"
     />
  <path
     style="fill:#d0d0d0;stroke-width:1;stroke-miterlimit:4;stroke-dasharray:none;stroke:#000000;stroke-opacity:1"
     d="m 20.179116,25.523589 2.186717,-0.0017 -4.53e-4,0.759921 0.02579,0.969324 0.56378,0.275012 0.05213,3.496675 -3.317418,0.05491 -1.093361,0.0079 -0.0138,-1.513862 -2.021846,-0.01872 0.512732,-0.998897 2.093667,-1.137218 1.010326,-1.311121 0.08419,-0.223552 -0.03579,-0.242176 -0.04675,-0.116645"
     id="Tazewell"
     />
  <path
     style="fill:#d0d0d0;stroke-width:1;stroke-miterlimit:4;stroke-dasharray:none;stroke:#000000;stroke-opacity:1"
     d="m 25.107711,23.216064 1.121865,-0.02788 0.02719,2.264733 -0.533646,1.150792 -0.577294,0.486971 -0.872023,0.402681 -1.31872,0.0328 -0.563781,-0.275012 -0.02578,-0.969324 4.53e-4,-0.759919 -2.186715,0.0017 0.812001,-2.250706 4.116595,-0.05686"
     id="Woodford"
     />
  <path
     style="fill:#d0d0d0;stroke-width:1;stroke-miterlimit:4;stroke-dasharray:none;stroke:#000000;stroke-opacity:1"
     d="m 19.382244,22.584093 1.608867,0.68879 -0.811995,2.250706 0.04676,0.116641 0.0358,0.242181 -0.08418,0.223552 -1.010328,1.311116 -2.093666,1.137221 0.01318,-0.870279 -0.01194,-0.575321 -1.124064,-0.02528 0.03929,-1.123062 0.0328,-3.409377 3.35922,0.03326"
     id="Peoria"
     />
  <path
     style="fill:#d0d0d0;stroke-width:1;stroke-miterlimit:4;stroke-dasharray:none;stroke:#000000;stroke-opacity:1"
     d="m 15.990179,25.960209 -0.03929,1.12306 1.124057,0.02539 0.01194,0.575321 -0.01318,0.87028 -0.51273,0.998896 -0.146715,0.07471 -0.967,0.706672 -0.06634,0.100505 -0.06846,0.199619 -0.173168,0.723471 -0.515679,0.81622 -0.06869,0.07725 -0.713392,0.553413 -2.437194,-1.231409 0.104676,-4.565198 0.0268,-1.127972 4.454699,0.07965"
     id="Fulton"
     />
  <path
     style="fill:#d0d0d0;stroke-width:1;stroke-miterlimit:4;stroke-dasharray:none;stroke:#000000;stroke-opacity:1"
     d="M 8.3003888,21.234315 11.645199,21.342731 11.508732,27.008475 8.1681347,26.855282 8.3003562,21.23435"
     id="Warren"
     />
  <path
     style="fill:#d0d0d0;stroke-width:1;stroke-miterlimit:4;stroke-dasharray:none;stroke:#000000;stroke-opacity:1"
     d="m 6.7219236,21.184328 1.5784651,0.04998 -0.1322214,5.62093 -1.116352,-0.06301 -2.7403651,-0.03711 0.7320365,-0.743565 0.171214,-1.451473 0.047849,-0.163999 0.8278611,-1.017417 0.1110285,-0.09429 0.289582,-0.137647 0.059658,-0.07694 0.1091739,-0.376148 0.113971,-1.044524 -0.023995,-0.350613 -0.027932,-0.11428"
     id="Henderson"
     />
  <path
     style="fill:#d0d0d0;stroke-width:1;stroke-miterlimit:4;stroke-dasharray:none;stroke:#000000;stroke-opacity:1"
     d="m 5.521775,17.74472 6.219753,0.18417 -0.09633,3.413847 -3.3448106,-0.108416 -1.5784657,-0.04998 -0.0067,-0.03255 0.031206,-0.309559 -0.3996432,-0.774556 -0.075715,-0.09065 -0.07523,-0.04145 -0.1299601,0.0087 -0.2962724,-0.174629 -0.5952033,-0.829679 -0.0034,-0.0091 -0.00234,-0.107443 0.3530149,-1.07852"
     id="Mercer"
     />
  <path
     style="fill:#d0d0d0;stroke-width:1;stroke-miterlimit:4;stroke-dasharray:none;stroke:#000000;stroke-opacity:1"
     d="m 16.049386,20.280908 -0.02636,2.269923 -0.0328,3.409377 -4.454701,-0.07965 0.109691,-4.537768 0.03095,-1.131682 4.373196,0.06988"
     id="Knox"
     />
  <path
     style="fill:#d0d0d0;stroke-width:1;stroke-miterlimit:4;stroke-dasharray:none;stroke:#000000;stroke-opacity:1"
     d="m 17.284584,19.189428 2.105782,1.127443 -0.0081,2.267221 -3.35922,-0.03326 0.02636,-2.269921 1.235197,-1.091482"
     id="Stark"
     />
  <path
     style="fill:#d0d0d0;stroke-width:1;stroke-miterlimit:4;stroke-dasharray:none;stroke:#000000;stroke-opacity:1"
     d="m 19.390366,20.316871 1.668818,0.0064 1.320775,0.0084 -0.0396,0.313969 -0.02511,0.08443 -0.06259,0.07572 -0.09841,0.04408 -0.05828,0.05798 1.899234,-0.0052 1.112441,2.313456 -4.116596,0.05686 -1.608872,-0.688799 0.0081,-2.267217"
     id="Marshall"
     />
  <path
     style="fill:#d0d0d0;stroke-width:1;stroke-miterlimit:4;stroke-dasharray:none;stroke:#000000;stroke-opacity:1"
     d="m 23.978559,18.226564 0.01671,2.676044 -1.899231,0.0052 0.05828,-0.05799 0.09842,-0.04408 0.06259,-0.07571 0.0251,-0.08442 0.0396,-0.31397 -1.320773,-0.0084 -0.0035,-1.112093 1.369946,-0.887326 0.542252,-0.249869 0.11763,-0.0047 0.893044,0.157254"
     id="Putnam"
     />
  <path
     style="fill:#d0d0d0;stroke-width:1;stroke-miterlimit:4;stroke-dasharray:none;stroke:#000000;stroke-opacity:1"
     d="m 29.562461,20.833473 3.232647,-0.103139 0.05562,1.545934 0.169693,4.891648 -2.183585,0.02791 -1.118229,0.01908 -0.08511,-0.70088 -0.02217,-1.131478 -3.354615,0.07033 -0.02718,-2.264735 -0.0015,-2.315029 3.334373,-0.03969"
     id="Livingston"
     />
  <path
     style="fill:#d0d0d0;stroke-width:1;stroke-miterlimit:4;stroke-dasharray:none;stroke:#000000;stroke-opacity:1"
     d="m 39.786635,19.952217 0.04049,2.02307 -5.859848,0.249681 -1.116528,0.05124 -0.05561,-1.545933 0.05864,-1.138725 1.682017,-0.0659 0.539234,-0.711266 -0.01533,-0.429196 4.696573,-0.147591 0.03055,1.714568"
     id="Kankakee"
     />
  <path
     style="fill:#d0d0d0;stroke-width:1;stroke-miterlimit:4;stroke-dasharray:none;stroke:#000000;stroke-opacity:1"
     d="m 32.744949,16.19915 0.108728,3.392457 -0.05864,1.138723 -3.232646,0.103138 -0.124262,-4.532485 3.306749,-0.101831"
     id="Grundy"
     />
  <path
     style="fill:#d0d0d0;stroke-width:1;stroke-miterlimit:4;stroke-dasharray:none;stroke:#000000;stroke-opacity:1"
     d="m 32.617629,12.800349 2.234328,0.480981 0.02215,0.572046 2.305715,2.198481 2.545598,-0.04308 0.03071,2.2289 -4.696573,0.147586 0.01533,0.429199 -0.539234,0.711267 -1.68202,0.0659 -0.108727,-3.392454 -0.127318,-3.398801"
     id="Will"
     />
  <path
     style="fill:#d0d0d0;stroke-width:1;stroke-miterlimit:4;stroke-dasharray:none;stroke:#000000;stroke-opacity:1"
     d="m 32.613638,12.800063 0.0041,2.77e-4 0.12732,3.398805 -3.306748,0.101835 -0.07623,-2.265247 -0.0033,-1.143161 3.254943,-0.09252"
     id="Kendall"
     />
  <path
     style="fill:#d0d0d0;stroke-width:1;stroke-miterlimit:4;stroke-dasharray:none;stroke:#000000;stroke-opacity:1"
     d="m 26.136529,14.09428 3.22544,-0.05856 0.07622,2.265249 0.124259,4.532484 -3.334374,0.0397 0.0015,2.31503 -1.121866,0.02786 -1.112441,-2.313457 -0.01671,-2.676043 -0.03237,-4.135899 1.10304,0.025 1.087307,-0.02129"
     id="La_Salle"
     />
  <path
     style="fill:#d0d0d0;stroke-width:1;stroke-miterlimit:4;stroke-dasharray:none;stroke:#000000;stroke-opacity:1"
     d="m 23.948747,14.656299 0.02982,3.570266 -0.893045,-0.15725 -0.117628,0.0048 -0.542252,0.249869 -1.369947,0.887325 0.0035,1.112095 -1.668817,-0.0064 -2.105777,-1.127445 -0.01355,-4.538583 2.213931,-0.0037 4.463767,0.0092"
     id="Bureau"
     />
  <path
     style="fill:#d0d0d0;stroke-width:1;stroke-miterlimit:4;stroke-dasharray:none;stroke:#000000;stroke-opacity:1"
     d="m 17.271049,14.650843 0.01355,4.538585 -1.235199,1.091479 -4.373196,-0.06988 0.06529,-2.28217 0.04229,-1.681278 0.656974,-0.591541 0.118857,-0.07769 0.174999,-0.06365 0.462552,-0.07515 0.359241,-0.03239 0.51346,-0.22587 0.09972,-0.18835 0.05695,-0.221494 -0.0094,-0.08084 -0.04862,-0.07666 3.102302,0.03689"
     id="Henry"
     />
  <path
     style="fill:#d0d0d0;stroke-width:1;stroke-miterlimit:4;stroke-dasharray:none;stroke:#000000;stroke-opacity:1"
     d="m 13.654923,12.019566 -0.05364,0.244793 -0.0076,0.236047 0.07076,0.523396 0.122679,0.30255 0.173296,0.183858 0.182659,0.08127 0.151515,0.110114 0.115951,0.144662 0.0094,0.176129 -0.0066,0.157949 -0.04789,0.29032 -0.02589,0.03925 -0.170879,0.104044 0.04863,0.07667 0.0094,0.08085 -0.05697,0.221496 -0.09972,0.18835 -0.513466,0.225869 -0.359234,0.0324 -0.462555,0.07515 -0.174998,0.06365 -0.118859,0.07772 -0.656973,0.591545 -0.04229,1.681275 -6.2197512,-0.184169 2.779e-4,-0.0041 0.1453107,-0.432717 0.1730518,-0.540009 0.010758,-0.02428 0.07469,-0.09089 2.778e-4,-0.0041 0.00936,-0.0043 0.1075275,-0.05947 0.3704393,-0.104772 1.3749226,-0.271399 0.5888438,0.03729 0.1373584,0.0279 0.3288027,0.0145 0.7881714,-0.142011 1.8808297,-0.769493 0.618225,-0.624395 0.546769,-0.634532 0.249065,-1.390752 0.728466,-0.70773"
     id="Rock_Island"
     />
  <path
     style="fill:#d0d0d0;stroke-width:1;stroke-miterlimit:4;stroke-dasharray:none;stroke:#000000;stroke-opacity:1"
     d="m 19.522847,10.538318 0.640867,-0.0033 1.930153,-0.003 4.35e-4,0.190519 4.006948,-0.05164 0.03533,3.423285 -1.087309,0.02128 -1.103037,-0.025 0.0025,0.565634 -4.463768,-0.0092 0.03778,-4.108806"
     id="Lee"
     />
  <path
     style="fill:#d0d0d0;stroke-width:1;stroke-miterlimit:4;stroke-dasharray:none;stroke:#000000;stroke-opacity:1"
     d="m 18.980466,10.160573 0.542381,0.377745 -0.03778,4.108808 -2.213932,0.0037 -3.102302,-0.03689 0.170877,-0.104053 0.02588,-0.03924 0.04788,-0.290321 0.0066,-0.157952 -0.0094,-0.176127 -0.115949,-0.144661 -0.151516,-0.110114 -0.182657,-0.08127 -0.173296,-0.183859 -0.122692,-0.302546 -0.07075,-0.523398 0.0076,-0.236046 0.05364,-0.244793 0.879941,-1.86987 4.445603,0.01092"
     id="Whiteside"
     />
  <path
     style="fill:#d0d0d0;stroke-width:1;stroke-miterlimit:4;stroke-dasharray:none;stroke:#000000;stroke-opacity:1"
     d="m 18.98063,6.675666 -1.45e-4,3.484907 -4.445602,-0.01092 -0.0073,-1.3529835 -1.520736,-2.1001037 3.777444,0.00309 2.196342,-0.024029"
     id="Carroll"
     />
  <path
     style="fill:#d0d0d0;stroke-width:1;stroke-miterlimit:4;stroke-dasharray:none;stroke:#000000;stroke-opacity:1"
     d="m 21.762833,6.6465117 2.12616,-0.024049 -8.39e-4,0.6987189 2.219849,-0.03036 -0.0067,3.3801733 -4.00695,0.05164 -4.35e-4,-0.190518 -1.930154,0.003 -0.640865,0.0033 -0.54238,-0.377744 1.45e-4,-3.4849084 2.782204,-0.029154"
     id="Ogle"
     />
  <path
     style="fill:#d0d0d0;stroke-width:1;stroke-miterlimit:4;stroke-dasharray:none;stroke:#000000;stroke-opacity:1"
     d="m 29.450664,7.2597417 -0.09201,5.6328373 0.0033,1.14316 -3.225441,0.05856 -0.03532,-3.423286 0.0067,-3.3801735 2.230467,-0.024591 1.112308,-0.00649"
     id="DeKalb"
     />
  <path
     style="fill:#d0d0d0;stroke-width:1;stroke-miterlimit:4;stroke-dasharray:none;stroke:#000000;stroke-opacity:1"
     d="m 32.787454,7.228234 -0.215416,2.1801777 0.0416,3.3916533 -3.254944,0.09252 0.09191,-5.6328401 3.336792,-0.031508"
     id="Kane"
     />
  <path
     style="fill:#d0d0d0;stroke-width:1;stroke-miterlimit:4;stroke-dasharray:none;stroke:#000000;stroke-opacity:1"
     d="m 32.613638,12.800063 -0.0416,-3.391652 2.212319,-0.1070963 0.955356,-0.026763 0.107111,0.4638452 0.101888,3.1242804 -1.096742,0.418657 -2.234327,-0.480982 -0.0041,-2.78e-4"
     id="DuPage"
     />
  <path
     style="fill:#d0d0d0;stroke-width:1;stroke-miterlimit:4;stroke-dasharray:none;stroke:#000000;stroke-opacity:1"
     d="m 33.157801,7.2226987 4.187124,-0.033718 0.857049,1.3447169 0.412931,1.4843228 0.08467,0.400061 0.06853,0.428991 0.07319,0.307032 0.0301,0.08338 0.05719,0.153481 0.242107,0.524652 0.515937,0.998442 0.03882,3.094698 -2.545597,0.0431 -2.305718,-2.198482 -0.02215,-0.572048 1.096742,-0.418656 -0.101889,-3.1242844 -0.10712,-0.4638439 -0.955357,0.026763 -2.212318,0.1070965 0.215416,-2.1801787 0.370342,-0.00554"
     id="Cook"
     />
  <path
     style="fill:#d0d0d0;stroke-width:1;stroke-miterlimit:4;stroke-dasharray:none;stroke:#000000;stroke-opacity:1"
     d="m 33.100848,2.7862735 3.786992,0.00979 0.0041,2.682e-4 0.0266,0.2585603 -0.05394,1.1300368 -0.104877,0.260168 -0.03915,0.042311 -0.09207,0.4034496 -0.0272,0.3790257 0.06106,0.4064136 0.164389,0.4900069 0.121326,0.3074615 0.39688,0.7152062 -4.187125,0.033718 -0.05694,-4.4364249"
     id="Lake"
     />
  <path
     style="fill:#d0d0d0;stroke-width:1;stroke-miterlimit:4;stroke-dasharray:none;stroke:#000000;stroke-opacity:1"
     d="m 32.113283,2.8147378 0.987565,-0.028465 0.05694,4.4364244 -0.370346,0.00554 -3.336792,0.03151 -1.112311,0.00649 -0.04091,-4.4082066 3.815858,-0.043286"
     id="McHenry"
     />
  <path
     style="fill:#d0d0d0;stroke-width:1;stroke-miterlimit:4;stroke-dasharray:none;stroke:#000000;stroke-opacity:1"
     d="m 27.641878,2.8561499 0.655546,0.00188 0.04091,4.4082065 -2.230468,0.024589 -0.01939,-4.4427556 1.553396,0.00808"
     id="Boone"
     />
  <path
     style="fill:#d0d0d0;stroke-width:1;stroke-miterlimit:4;stroke-dasharray:none;stroke:#000000;stroke-opacity:1"
     d="m 26.088483,2.8480654 0.01939,4.4427558 -2.219848,0.030361 8.39e-4,-0.6987192 -2.126159,0.024049 -0.0445,-3.8690804 0.338638,0.00321 4.031496,0.067409"
     id="Winnebago"
     />
  <path
     style="fill:#d0d0d0;stroke-width:1;stroke-miterlimit:4;stroke-dasharray:none;stroke:#000000;stroke-opacity:1"
     d="m 17.590671,2.6951017 4.127676,0.082329 0.0445,3.8690805 -2.782204,0.029154 -2.196342,0.024029 -0.03795,-4.0159903 0.844347,0.011417"
     id="Stephenson"
     />
  <path
     style="fill:#d0d0d0;stroke-width:1;stroke-miterlimit:4;stroke-dasharray:none;stroke:#000000;stroke-opacity:1"
     d="m 16.746323,2.6837043 0.03795,4.0159903 -3.777444,-0.00309 -0.386901,-0.1550595 -0.166471,-0.1252228 -0.153221,-0.1423187 -0.0084,-0.00863 -0.246141,-0.356511 -0.0059,-0.01447 -0.110422,-0.3056775 0.006,-0.081788 0.06251,-0.1168284 0.07997,-0.3602042 -0.0015,-0.04924 -0.02394,-0.043823 -0.518581,-0.6958595 -0.02229,-0.024657 -0.0038,-0.00427 -0.767617,-0.620453 -0.611883,-0.3737042 -0.2081405,-0.1733254 -0.071089,-0.085301 -0.017336,-0.066401 -0.00395,-0.072445 0.00609,-0.029633 0.1478182,-0.2159835 2.0289649,0.045188 4.735559,0.063745"
     id="Jo_Daviess"
     />
</svg>
