<?xml version="1.0" encoding="UTF-8" standalone="no"?>
<!-- Created with Inkscape (http://www.inkscape.org/) -->

<svg
   xmlns:dc="http://purl.org/dc/elements/1.1/"
   xmlns:cc="http://creativecommons.org/ns#"
   xmlns:rdf="http://www.w3.org/1999/02/22-rdf-syntax-ns#"
   xmlns:svg="http://www.w3.org/2000/svg"
   xmlns="http://www.w3.org/2000/svg"
   xmlns:sodipodi="http://sodipodi.sourceforge.net/DTD/sodipodi-0.dtd"
   xmlns:inkscape="http://www.inkscape.org/namespaces/inkscape"
   version="1.0"
   width="61.689999"
   height="77.18"
   sodipodi:version="0.32"
   inkscape:version="0.48.2 r9819"
   sodipodi:docname="ut.svg"
   inkscape:output_extension="org.inkscape.output.svg.inkscape"
   id="svg3022">
  <metadata
     id="metadata3024">
    <rdf:RDF>
      <cc:Work
         rdf:about="">
        <dc:format>image/svg+xml</dc:format>
        <dc:type
           rdf:resource="http://purl.org/dc/dcmitype/StillImage" />
      </cc:Work>
    </rdf:RDF>
  </metadata>
  <defs
     id="defs3026" />
  <sodipodi:namedview
     pagecolor="#ffffff"
     bordercolor="#666666"
     borderopacity="1"
     objecttolerance="10"
     gridtolerance="10"
     guidetolerance="10"
     inkscape:pageopacity="0"
     inkscape:pageshadow="2"
     inkscape:window-width="1366"
     inkscape:window-height="716"
     fit-margin-top="0"
     fit-margin-left="0"
     fit-margin-right="0"
     fit-margin-bottom="0"
     inkscape:zoom="4.5491794"
     inkscape:cx="82.244817"
     inkscape:cy="29.338996"
     inkscape:window-x="-8"
     inkscape:window-y="-8"
     inkscape:window-maximized="1"
     inkscape:current-layer="svg3022"
     id="namedview3028"
     showgrid="false" />
  <path
     style="font-size:12px;fill:#d0d0d0;fill-rule:nonzero;stroke:#000000;stroke-width:1;stroke-linecap:butt;stroke-linejoin:bevel;stroke-miterlimit:4;stroke-opacity:1;stroke-dasharray:none;marker-start:none"
     d="m 54.838059,54.911844 -0.442,4.493 -0.483,3.498 -0.716,5.101 -0.883,6.256 -9.677,-1.375 -3.34,-0.505 -1.649,-0.325 -2.583,-0.391 -6.693,-1.05 0.311,0.027 0.744,0.018 3.448,-0.766 0.342,-0.117 0.717,-0.622 1.978,-1.871 0.172,-0.271 1.109,-2.091 2.294,-2.686 2.055,-1.122 1.776,-1.398 1.275,-1.098 0.059,-0.037 0.915,-0.424 0.293,-0.307 0.103,-0.648 -0.013,-0.545 -0.496,-2.831 -0.009,-0.045 -0.184,-0.243 9.577,1.375"
     id="San Juan"
     inkscape:connector-curvature="0" />
  <path
     style="font-size:12px;fill:#d0d0d0;fill-rule:nonzero;stroke:#000000;stroke-width:1;stroke-linecap:butt;stroke-linejoin:bevel;stroke-miterlimit:4;stroke-opacity:1;stroke-dasharray:none;marker-start:none"
     d="m 20.201059,54.122844 0.352,0.027 3.799,0.666 0.239,0.072 0.487,0.1 0.355,0.053 1.087,0.119 4.254,0.72 2.84,0.434 11.953,1.842 -0.915,0.424 -0.059,0.037 -1.275,1.098 -1.776,1.398 -2.055,1.122 -2.294,2.686 -11.971,-1.924 -0.05,0.032 -0.086,0.004 -5.079,-0.883 -1.366,-0.32 -1.838,-0.33 0.365,-2.383 0.171,-0.989 1.276,-0.783 0.793,0.031 0.324,0.054 0.207,-1.112 0.262,-2.195"
     id="Garfield"
     inkscape:connector-curvature="0" />
  <path
     style="font-size:12px;fill:#d0d0d0;fill-rule:nonzero;stroke:#000000;stroke-width:1;stroke-linecap:butt;stroke-linejoin:bevel;stroke-miterlimit:4;stroke-opacity:1;stroke-dasharray:none;marker-start:none"
     d="m 37.454059,14.680844 0.856,0.292 0.695,1.948 -0.059,0.235 -0.095,0.18 -0.117,0.149 -0.252,0.22 -1.055,0.175 -1.6,0.55 -0.185,0.112 -0.167,0.155 -0.441,0.436 -0.019,0.082 0.01,0.271 0.031,0.067 0.054,0.045 0.41,0.523 0.285,0.721 0.031,0.194 -0.527,0.793 -0.14,0.063 -0.162,0.031 -0.086,-0.013 -0.757,-0.369 -0.802,-0.952 -0.528,-3.75 -0.112,-0.447 0.063,-0.201 0.211,-0.094 0.546,-0.159 0.23,0.027 0.257,0.081 0.067,0.185 0.167,0.225 0.288,0.127 0.28,-0.023 1.582,-0.297 0.333,-0.258 0.302,-0.31 0.095,-0.19 0.311,-0.824"
     id="Morgan"
     inkscape:connector-curvature="0" />
  <path
     style="font-size:12px;fill:#d0d0d0;fill-rule:nonzero;stroke:#000000;stroke-width:1;stroke-linecap:butt;stroke-linejoin:bevel;stroke-miterlimit:4;stroke-opacity:1;stroke-dasharray:none;marker-start:none"
     d="m 32.834059,16.838844 0.528,3.75 -0.158,0.073 -0.266,0.076 -0.915,0.144 -0.442,-0.076 -0.238,-0.045 0.008,-1.077 0.041,-0.226 -0.46,-0.077 -1.464,0.7 -1.316,0.779 -1.519,-4.263 2.447,-0.392 0.613,-0.078 1.501,0.261 1.64,0.451"
     id="Davis"
     inkscape:connector-curvature="0" />
  <path
     style="font-size:12px;fill:#d0d0d0;fill-rule:nonzero;stroke:#000000;stroke-width:1;stroke-linecap:butt;stroke-linejoin:bevel;stroke-miterlimit:4;stroke-opacity:1;stroke-dasharray:none;marker-start:none"
     d="m 36.728059,13.751844 0.726,0.929 -0.311,0.824 -0.095,0.19 -0.302,0.31 -0.333,0.258 -1.582,0.297 -0.28,0.023 -0.288,-0.127 -0.167,-0.225 -0.067,-0.185 -0.257,-0.081 -0.23,-0.027 -0.546,0.159 -0.211,0.094 -0.063,0.201 0.112,0.447 -1.64,-0.451 -1.501,-0.261 -0.613,0.078 -2.447,0.392 3.006,-2.902 1.987,0.341 0.69,-0.256 0.861,-0.663 0.054,0.293 0.05,0.089 0.928,0.541 0.158,0.02 2.361,-0.308"
     id="Weber"
     inkscape:connector-curvature="0" />
  <path
     style="font-size:12px;fill:#d0d0d0;fill-rule:nonzero;stroke:#000000;stroke-width:1;stroke-linecap:butt;stroke-linejoin:bevel;stroke-miterlimit:4;stroke-opacity:1;stroke-dasharray:none;marker-start:none"
     d="m 42.317059,7.0488421 -1.532,9.6150019 -2.303,1.041 0.252,-0.22 0.117,-0.149 0.095,-0.18 0.059,-0.235 -0.695,-1.948 -0.856,-0.292 -0.726,-0.929 1.01,-1.549 0.509,-1.241001 0.004,-0.062 -0.085,-3.5570009 -0.189,-0.97 4.34,0.676"
     id="Rich"
     inkscape:connector-curvature="0" />
  <path
     style="font-size:12px;fill:#d0d0d0;fill-rule:nonzero;stroke:#000000;stroke-width:1;stroke-linecap:butt;stroke-linejoin:bevel;stroke-miterlimit:4;stroke-opacity:1;stroke-dasharray:none;marker-start:none"
     d="m 31.788059,5.3728421 0.515,0.082 5.674,0.918 0.189,0.97 0.085,3.5570009 -0.004,0.062 -0.509,1.241001 -1.01,1.549 -2.361,0.308 -0.158,-0.02 -0.928,-0.541 -0.05,-0.089 -0.054,-0.293 -0.032,-0.934 -0.013,-0.435 -0.172,-0.307 -0.04,-0.036 -0.478,-0.091 -0.085,-1.7030015 0.175,-1.1050004 0.113,-0.513 -0.095,-0.745 -0.225,-0.553 -0.289,-0.379 -0.248,-0.943"
     id="Cache"
     inkscape:connector-curvature="0" />
  <path
     style="font-size:12px;fill:#d0d0d0;fill-rule:nonzero;stroke:#000000;stroke-width:1;stroke-linecap:butt;stroke-linejoin:bevel;stroke-miterlimit:4;stroke-opacity:1;stroke-dasharray:none;marker-start:none"
     d="m 14.152059,2.2008421 0.627,0.158 0.753,0.18 0.112,0.022 0.802,0.14 0.298,0.049 3.132,0.533 0.275,0.045 3.777,0.639 2.745,0.464 2.429,0.42 1.992,0.344 0.005,0 0.689,0.178 0.248,0.943 0.289,0.379 0.225,0.553 0.095,0.745 -0.113,0.513 -0.175,1.1050004 0.085,1.7030015 0.478,0.091 0.04,0.036 0.172,0.307 0.013,0.435 0.032,0.934 -0.861,0.663 -0.69,0.256 -1.987,-0.341 -3.006,2.902 -3.088,0.463 -11.831,-2.189 2.438,-12.6700019"
     id="Box Elder"
     inkscape:connector-curvature="0" />
  <path
     style="font-size:12px;fill:#d0d0d0;fill-rule:nonzero;stroke:#000000;stroke-width:1;stroke-linecap:butt;stroke-linejoin:bevel;stroke-miterlimit:4;stroke-opacity:1;stroke-dasharray:none;marker-start:none"
     d="m 59.386059,22.729844 -0.604,4.467 -0.722,-0.104 -0.311,-0.437 0.118,-0.842 0.044,-0.475 -0.251,-0.986 -1.84,-0.253 -1.307,0.244 -3.082,0.302 -0.33,0.009 -0.969,-0.743 -0.211,-0.086 0.346,-2.357 0.01,0 1.383,0.198 1.343,0.189 0.375,0.054 4.497,0.6 1.511,0.22"
     id="Daggett"
     inkscape:connector-curvature="0" />
  <path
     style="font-size:12px;fill:#d0d0d0;fill-rule:nonzero;stroke:#000000;stroke-width:1;stroke-linecap:butt;stroke-linejoin:bevel;stroke-miterlimit:4;stroke-opacity:1;stroke-dasharray:none;marker-start:none"
     d="m 28.152059,20.859844 1.316,-0.779 1.464,-0.7 0.46,0.077 -0.041,0.226 -0.008,1.077 0.238,0.045 0.442,0.076 0.915,-0.144 0.266,-0.076 0.158,-0.073 0.802,0.952 0.441,2.573 -0.459,0.348 -0.974,0.441 -2.736,0.942 -0.374,0.081 -1.176,-0.553 -0.545,-0.438 -0.189,-4.075"
     id="Salt Lake"
     inkscape:connector-curvature="0" />
  <path
     style="font-size:12px;fill:#d0d0d0;fill-rule:nonzero;stroke:#000000;stroke-width:1;stroke-linecap:butt;stroke-linejoin:bevel;stroke-miterlimit:4;stroke-opacity:1;stroke-dasharray:none;marker-start:none"
     d="m 40.785059,16.663844 -0.523,3.254 5.214,0.861 4.336,0.622 0.455,0.068 -0.346,2.357 -1.605,-0.226 -1.821,-0.117 -4.895,0.234 -0.599,0.523 -0.735,0.843 -0.148,0.126 -0.437,0.077 -1.465,0.108 -0.74,-0.419 -0.996,-0.825 -1.875,-0.036 -0.441,-2.573 0.757,0.369 0.086,0.013 0.162,-0.031 0.14,-0.063 0.527,-0.793 -0.031,-0.194 -0.285,-0.721 -0.41,-0.523 -0.054,-0.045 -0.031,-0.067 -0.01,-0.271 0.019,-0.082 0.441,-0.436 0.167,-0.155 0.185,-0.112 1.6,-0.55 1.055,-0.175 2.303,-1.041"
     id="Summit UT"
     inkscape:connector-curvature="0" />
  <path
     style="font-size:12px;fill:#d0d0d0;fill-rule:nonzero;stroke:#000000;stroke-width:1;stroke-linecap:butt;stroke-linejoin:bevel;stroke-miterlimit:4;stroke-opacity:1;stroke-dasharray:none;marker-start:none"
     d="m 34.605059,24.113844 1.875,0.036 0.996,0.825 0.74,0.419 1.465,-0.108 0.437,-0.077 0.148,-0.126 0.735,-0.843 -0.514,3.169 -0.599,4.49 -0.37,2.351 -1.857,-0.301 -1.212,-2.011 -0.063,-0.135 -0.014,-0.108 0.41,-0.879 -0.175,-1.55 -0.109,-0.234 -0.234,-0.383 -0.04,-0.032 -1.118,-0.622 -1.069,-0.636 -0.193,-0.978 0.063,-0.524 0.239,-1.395 0.459,-0.348"
     id="Wasatch"
     inkscape:connector-curvature="0" />
  <path
     style="font-size:12px;fill:#d0d0d0;fill-rule:nonzero;stroke:#000000;stroke-width:1;stroke-linecap:butt;stroke-linejoin:bevel;stroke-miterlimit:4;stroke-opacity:1;stroke-dasharray:none;marker-start:none"
     d="m 34.146059,24.461844 -0.239,1.395 -0.063,0.524 0.193,0.978 1.069,0.636 1.118,0.622 0.04,0.032 0.234,0.383 0.109,0.234 0.175,1.55 -0.41,0.879 0.014,0.108 0.063,0.135 1.212,2.011 1.857,0.301 0.153,1.16 -3.786,-0.606 -3.831,-0.626 -1.059,-0.162 0.153,-0.491 0.01,-0.232 -0.284,-0.8 -0.05,-0.073 -0.221,-0.198 -0.969,0.479 -0.658,0.765 -0.027,0.154 -0.085,0.103 -0.596,0.217 -0.261,0.045 -0.262,-0.082 -0.107,-0.058 0.279,-0.892 0.086,-0.207 0.162,-0.19 0.072,-0.081 -0.429,-1.127 -0.355,-0.5 -0.181,-0.095 0.375,-0.951 0.32,-1.266 -0.172,-0.825 -0.036,-0.761 0.153,-1.899 0.032,-0.086 0.235,-0.08 0.162,0.05 0.545,0.438 1.176,0.553 0.374,-0.081 2.736,-0.942 0.974,-0.441"
     id="Utah"
     inkscape:connector-curvature="0" />
  <path
     style="font-size:12px;fill:#d0d0d0;fill-rule:nonzero;stroke:#000000;stroke-width:1;stroke-linecap:butt;stroke-linejoin:bevel;stroke-miterlimit:4;stroke-opacity:1;stroke-dasharray:none;marker-start:none"
     d="m 11.714059,14.870844 11.831,2.189 3.088,-0.463 1.519,4.263 0.189,4.075 -0.162,-0.05 -0.235,0.08 -0.032,0.086 -0.153,1.899 0.036,0.761 0.172,0.825 -0.32,1.266 -0.375,0.951 -0.667,0.564 -0.266,0.183 -0.874,0.357 -3.687,-0.64 -12.7910001,-2.397 0.523,-2.692 2.2040001,-11.257"
     id="Tooele"
     inkscape:connector-curvature="0" />
  <path
     style="font-size:12px;fill:#d0d0d0;fill-rule:nonzero;stroke:#000000;stroke-width:1;stroke-linecap:butt;stroke-linejoin:bevel;stroke-miterlimit:4;stroke-opacity:1;stroke-dasharray:none;marker-start:none"
     d="m 27.272059,30.752844 0.181,0.095 0.355,0.5 0.429,1.127 -0.072,0.081 -0.162,0.19 -0.086,0.207 -0.279,0.892 0.107,0.058 0.262,0.082 0.261,-0.045 0.596,-0.217 0.085,-0.103 0.027,-0.154 0.658,-0.765 0.969,-0.479 0.221,0.198 0.05,0.073 0.284,0.8 -0.01,0.232 -0.153,0.491 1.059,0.162 -0.162,0.943 -0.834,0.455 -0.261,1.883 -0.19,1.131 -0.495,0.935 -1.713,-0.272 -1.009,0.42 -0.05,0.283 -0.55,-0.099 -1.171,-0.392 0.153,-0.627 0.265,-1.379 0.059,-0.603 -0.022,-0.126 -0.163,-0.177 -2.104,-0.359 -0.667,-0.1 -12.773,-2.335 -2.2770001,-0.306 0.897,-4.633 12.7910001,2.397 3.687,0.64 0.874,-0.357 0.266,-0.183 0.667,-0.564"
     id="Juab"
     inkscape:connector-curvature="0" />
  <path
     style="font-size:12px;fill:#d0d0d0;fill-rule:nonzero;stroke:#000000;stroke-width:1;stroke-linecap:butt;stroke-linejoin:bevel;stroke-miterlimit:4;stroke-opacity:1;stroke-dasharray:none;marker-start:none"
     d="m 8.0900589,33.452844 2.2770001,0.306 12.773,2.335 0.667,0.1 2.104,0.359 0.163,0.177 0.022,0.126 -0.059,0.603 -0.265,1.379 -0.153,0.627 1.171,0.392 0.55,0.099 -0.572,3.454 -2.632,3.258 -1.529,0.797 -0.166,-0.031 -0.735,-0.095 -0.202,0.063 -0.239,0.343 -0.469,0.874 -2.835,-0.504 0.004,-0.027 -1.145,-0.231 -11.1370001,-2.023 0.262,-1.335 2.145,-11.046"
     id="Millard"
     inkscape:connector-curvature="0" />
  <path
     style="font-size:12px;fill:#d0d0d0;fill-rule:nonzero;stroke:#000000;stroke-width:1;stroke-linecap:butt;stroke-linejoin:bevel;stroke-miterlimit:4;stroke-opacity:1;stroke-dasharray:none;marker-start:none"
     d="m 33.754059,44.743844 -0.154,1.049 -0.595,3.571 -0.076,-0.015 -0.325,2.082 -4.574,-0.644 -2.921,-0.496 0.018,-0.108 -0.622,-0.126 -3.881,-0.644 0.172,-0.794 0.469,-0.874 0.239,-0.343 0.202,-0.063 0.735,0.095 0.166,0.031 1.529,-0.797 2.632,-3.258 1.609,0.269 0.131,0.186 5.246,0.879"
     id="Sevier"
     inkscape:connector-curvature="0" />
  <path
     style="font-size:12px;fill:#d0d0d0;fill-rule:nonzero;stroke:#000000;stroke-width:1;stroke-linecap:butt;stroke-linejoin:bevel;stroke-miterlimit:4;stroke-opacity:1;stroke-dasharray:none;marker-start:none"
     d="m 35.885059,34.803844 -0.716,4.441 -0.528,-0.085 -0.887,5.584 -5.246,-0.879 -0.131,-0.186 -1.609,-0.269 0.572,-3.454 0.05,-0.283 1.009,-0.42 1.713,0.272 0.495,-0.935 0.19,-1.131 0.261,-1.883 0.834,-0.455 0.162,-0.943 3.831,0.626"
     id="Sanpete"
     inkscape:connector-curvature="0" />
  <path
     style="font-size:12px;fill:#d0d0d0;fill-rule:nonzero;stroke:#000000;stroke-width:1;stroke-linecap:butt;stroke-linejoin:bevel;stroke-miterlimit:4;stroke-opacity:1;stroke-dasharray:none;marker-start:none"
     d="m 35.885059,34.803844 3.786,0.606 3.111,0.504 0.126,0.041 0.053,0.052 5.36,0.822 0.806,0.122 0.063,0.174 0.005,0.091 -0.045,0.036 -0.041,-0.008 -0.617,0.355 -0.442,0.384 -0.721,1.395 -0.144,0.408 -0.063,0.581 0.004,0.712 -10.294,-1.596 -0.144,-0.914 -0.825,-2.191 -0.103,-0.13 -0.1,-0.05 0.225,-1.394"
     id="Carbon"
     inkscape:connector-curvature="0" />
  <path
     style="font-size:12px;fill:#d0d0d0;fill-rule:nonzero;stroke:#000000;stroke-width:1;stroke-linecap:butt;stroke-linejoin:bevel;stroke-miterlimit:4;stroke-opacity:1;stroke-dasharray:none;marker-start:none"
     d="m 49.921059,23.825844 0.211,0.086 -1.144,7.837 -0.303,2.217 -0.364,2.863 -5.36,-0.822 -0.053,-0.052 -0.126,-0.041 -3.111,-0.504 -0.153,-1.16 0.37,-2.351 0.599,-4.49 0.514,-3.169 0.599,-0.523 4.895,-0.234 1.821,0.117 1.605,0.226"
     id="Duchesne"
     inkscape:connector-curvature="0" />
  <path
     style="font-size:12px;fill:#d0d0d0;fill-rule:nonzero;stroke:#000000;stroke-width:1;stroke-linecap:butt;stroke-linejoin:bevel;stroke-miterlimit:4;stroke-opacity:1;stroke-dasharray:none;marker-start:none"
     d="m 50.132059,23.911844 0.969,0.743 0.33,-0.009 3.082,-0.302 1.307,-0.244 1.84,0.253 0.251,0.986 -0.044,0.475 -0.118,0.842 0.311,0.437 0.722,0.104 -0.789,5.543 -1.005,7.239 -0.288,2.096 -0.609,0.382 -8.978,-1.284 0.013,-0.094 -0.004,-0.712 0.063,-0.581 0.144,-0.408 0.721,-1.395 0.442,-0.384 0.617,-0.355 0.041,0.008 0.045,-0.036 -0.005,-0.091 -0.063,-0.174 -0.806,-0.122 0.364,-2.863 0.303,-2.217 1.144,-7.837"
     id="Uintah"
     inkscape:connector-curvature="0" />
  <path
     style="font-size:12px;fill:#d0d0d0;fill-rule:nonzero;stroke:#000000;stroke-width:1;stroke-linecap:butt;stroke-linejoin:bevel;stroke-miterlimit:4;stroke-opacity:1;stroke-dasharray:none;marker-start:none"
     d="m 56.700059,42.074844 -0.668,4.799 -0.342,2.34 -0.072,0.496 -0.388,2.371 -0.392,2.831 -9.577,-1.375 0.356,-0.28 0.135,-0.473 0,-0.609 -0.023,-0.117 -0.266,0.076 -0.266,0.01 -0.081,-0.023 -0.04,-0.036 -0.028,-0.067 -0.22,-1.546 0.022,-2.573 0.262,-1.547 0.513,-1.383 0.158,-0.311 0.045,-0.063 0.545,-0.947 0.591,-1.193 0.144,-0.561 0.005,-0.721 8.978,1.284 0.609,-0.382"
     id="Grand"
     inkscape:connector-curvature="0" />
  <path
     style="font-size:12px;fill:#d0d0d0;fill-rule:nonzero;stroke:#000000;stroke-width:1;stroke-linecap:butt;stroke-linejoin:bevel;stroke-miterlimit:4;stroke-opacity:1;stroke-dasharray:none;marker-start:none"
     d="m 35.660059,36.197844 0.1,0.05 0.103,0.13 0.825,2.191 0.144,0.914 10.294,1.596 -0.013,0.094 -0.005,0.721 -0.144,0.561 -0.591,1.193 -0.545,0.947 -0.045,0.063 -0.158,0.311 -0.513,1.383 -0.262,1.547 -0.022,2.573 0.22,1.546 0.028,0.067 0.04,0.036 0.081,0.023 0.266,-0.01 0.266,-0.076 0.023,0.117 0,0.609 -0.135,0.473 -0.356,0.28 -12.679,-1.974 0.022,-0.132 0.325,-2.082 0.076,0.015 0.595,-3.571 0.154,-1.049 0.887,-5.584 0.528,0.085 0.491,-3.047"
     id="Emery"
     inkscape:connector-curvature="0" />
  <path
     style="font-size:12px;fill:#d0d0d0;fill-rule:nonzero;stroke:#000000;stroke-width:1;stroke-linecap:butt;stroke-linejoin:bevel;stroke-miterlimit:4;stroke-opacity:1;stroke-dasharray:none;marker-start:none"
     d="m 28.030059,50.786844 4.574,0.644 -0.022,0.132 12.679,1.974 0.184,0.243 0.009,0.045 0.496,2.831 0.013,0.545 -0.103,0.648 -0.293,0.307 -11.953,-1.842 -2.84,-0.434 -4.254,-0.72 0.18,-1.061 0.352,-2.46 0.319,-0.374 0.659,-0.478"
     id="Wayne"
     inkscape:connector-curvature="0" />
  <path
     style="font-size:12px;fill:#d0d0d0;fill-rule:nonzero;stroke:#000000;stroke-width:1;stroke-linecap:butt;stroke-linejoin:bevel;stroke-miterlimit:4;stroke-opacity:1;stroke-dasharray:none;marker-start:none"
     d="m 20.624059,49.412844 3.881,0.644 0.622,0.126 -0.018,0.108 2.921,0.496 -0.659,0.478 -0.319,0.374 -0.352,2.46 -0.18,1.061 -1.087,-0.119 -0.355,-0.053 -0.487,-0.1 -0.239,-0.072 -3.799,-0.666 0.879,-1.204 0.355,-0.342 0.248,-0.609 -0.013,-0.11 -0.456,-0.954 -0.473,-0.364 -0.504,-0.618 -0.01,-0.113 0.045,-0.423"
     id="Piute"
     inkscape:connector-curvature="0" />
  <path
     style="font-size:12px;fill:#d0d0d0;fill-rule:nonzero;stroke:#000000;stroke-width:1;stroke-linecap:butt;stroke-linejoin:bevel;stroke-miterlimit:4;stroke-opacity:1;stroke-dasharray:none;marker-start:none"
     d="m 5.6830589,45.833844 11.1370001,2.023 1.145,0.231 -0.004,0.027 2.835,0.504 -0.172,0.794 -0.045,0.423 0.01,0.113 0.504,0.618 0.473,0.364 0.456,0.954 0.013,0.11 -0.248,0.609 -0.355,0.342 -0.879,1.204 -0.352,-0.027 -15.5540001,-2.872 1.036,-5.417"
     id="Beaver"
     inkscape:connector-curvature="0" />
  <path
     style="font-size:12px;fill:#d0d0d0;fill-rule:nonzero;stroke:#000000;stroke-width:1;stroke-linecap:butt;stroke-linejoin:bevel;stroke-miterlimit:4;stroke-opacity:1;stroke-dasharray:none;marker-start:none"
     d="m 4.6470589,51.250844 15.5540001,2.872 -0.262,2.195 -0.207,1.112 -0.324,-0.054 -0.793,-0.031 -1.276,0.783 -0.171,0.989 -0.365,2.383 -2.277,0.167 -1.361,-0.229 -0.401,0.139 -0.748,-0.027 -1.055,-0.298 -2.0410001,-1.288 -1.006,-0.897 -4.628,-0.879 1.361,-6.937"
     id="Iron"
     inkscape:connector-curvature="0" />
  <path
     style="font-size:12px;fill:#d0d0d0;fill-rule:nonzero;stroke:#000000;stroke-width:1;stroke-linecap:butt;stroke-linejoin:bevel;stroke-miterlimit:4;stroke-opacity:1;stroke-dasharray:none;marker-start:none"
     d="m 3.2860589,58.187844 4.628,0.879 1.006,0.897 2.0410001,1.288 1.055,0.298 0.748,0.027 0.401,-0.139 1.361,0.229 -1.131,6.391 -11.5740001,-2.154 1.465,-7.716"
     id="Washington"
     inkscape:connector-curvature="0" />
  <path
     style="font-size:12px;fill:#d0d0d0;fill-rule:nonzero;stroke:#000000;stroke-width:1;stroke-linecap:butt;stroke-linejoin:bevel;stroke-miterlimit:4;stroke-opacity:1;stroke-dasharray:none;marker-start:none"
     d="m 14.526059,61.666844 2.277,-0.167 1.838,0.33 1.366,0.32 5.079,0.883 0.086,-0.004 0.05,-0.032 11.971,1.924 -1.109,2.091 -0.172,0.271 -1.978,1.871 -0.717,0.622 -0.342,0.117 -3.448,0.766 -0.744,-0.018 -0.311,-0.027 -11.362,-1.915 -3.615,-0.641 1.131,-6.391"
     id="Kane"
     inkscape:connector-curvature="0" />
</svg>
