<?xml version="1.0" encoding="UTF-8" standalone="no"?>
<!-- Created with Inkscape (http://www.inkscape.org/) -->

<svg
   xmlns:dc="http://purl.org/dc/elements/1.1/"
   xmlns:cc="http://creativecommons.org/ns#"
   xmlns:rdf="http://www.w3.org/1999/02/22-rdf-syntax-ns#"
   xmlns:svg="http://www.w3.org/2000/svg"
   xmlns="http://www.w3.org/2000/svg"
   xmlns:sodipodi="http://sodipodi.sourceforge.net/DTD/sodipodi-0.dtd"
   xmlns:inkscape="http://www.inkscape.org/namespaces/inkscape"
   version="1.0"
   width="61.669998"
   height="40.619999"
   sodipodi:version="0.32"
   inkscape:version="0.48.2 r9819"
   sodipodi:docname="pa.svg"
   inkscape:output_extension="org.inkscape.output.svg.inkscape"
   id="svg3060">
  <metadata
     id="metadata3062">
    <rdf:RDF>
      <cc:Work
         rdf:about="">
        <dc:format>image/svg+xml</dc:format>
        <dc:type
           rdf:resource="http://purl.org/dc/dcmitype/StillImage" />
      </cc:Work>
    </rdf:RDF>
  </metadata>
  <sodipodi:namedview
     inkscape:window-height="746"
     inkscape:window-width="1366"
     inkscape:pageshadow="2"
     inkscape:pageopacity="0.0"
     guidetolerance="10.0"
     gridtolerance="10.0"
     objecttolerance="10.0"
     borderopacity="1.0"
     bordercolor="#666666"
     pagecolor="#ffffff"
     inkscape:zoom="7.3693741"
     inkscape:cx="40.47568"
     inkscape:cy="20.514634"
     inkscape:window-x="-8"
     inkscape:window-y="-8"
     inkscape:current-layer="svg3060"
     showguides="true"
     inkscape:guide-bbox="true"
     fit-margin-top="0"
     fit-margin-left="0"
     fit-margin-right="0"
     fit-margin-bottom="0"
     inkscape:window-maximized="0"
     id="namedview3064"
     showgrid="false" />
  <defs
     id="defs3066" />
  <path
     style="font-size:12px;fill:#d0d0d0;fill-opacity:1;fill-rule:nonzero;stroke:#000000;stroke-width:1;stroke-linecap:butt;stroke-linejoin:bevel;stroke-miterlimit:4;stroke-opacity:1;stroke-dasharray:none;marker-start:none"
     d="m 58.31268,25.167323 -0.622,0.906 -0.734,1.365 -0.385,0.55 -0.941,-1.262 0.46,-0.622 -0.513,-0.396 0.554,-0.852 0.549,0.365 0.996,-1.095 0.636,1.041"
     id="Philadelphia"
     inkscape:connector-curvature="0" />
  <path
     style="font-size:12px;fill:#d0d0d0;fill-opacity:1;fill-rule:nonzero;stroke:#000000;stroke-width:1;stroke-linecap:butt;stroke-linejoin:bevel;stroke-miterlimit:4;stroke-opacity:1;stroke-dasharray:none;marker-start:none"
     d="m 54.71268,18.744323 1.383,0.564 0.73,1.469 0.937,0.568 0.064,0.036 2.6,1.997 -2.114,1.789 -0.636,-1.041 -5.268,-2.57 1.099,-1.815 1.1,-1.2 0.105,0.203"
     id="Bucks"
     inkscape:connector-curvature="0" />
  <path
     style="font-size:12px;fill:#d0d0d0;fill-rule:nonzero;stroke:#000000;stroke-width:1;stroke-linecap:butt;stroke-linejoin:bevel;stroke-miterlimit:4;stroke-opacity:1;stroke-dasharray:none;marker-start:none"
     d="m 5.1206804,36.651323 1.986,-1.091 0.112,-0.014 1.078,-0.008 1.8269996,0.005 1.365,3.226 -4.9079996,0.82 -0.955,0.154 -0.505,-3.092"
     id="Greene"
     inkscape:connector-curvature="0" />
  <path
     style="font-size:12px;fill:#d0d0d0;fill-rule:nonzero;stroke:#000000;stroke-width:1;stroke-linecap:butt;stroke-linejoin:bevel;stroke-miterlimit:4;stroke-opacity:1;stroke-dasharray:none;marker-start:none"
     d="m 10.97468,33.504323 1.281,-0.239 2.284,-0.566 0.235,-0.069 0.243,0.062 0.1,0.052 1.689,0.884 -0.248,0.666 -0.45,1.302 -0.077,0.631 0.338,1.51 0.208,0.14 -0.821,0.148 -2.791,0.492 -1.477,0.252 -1.365,-3.226 0.851,-2.039"
     id="Fayette"
     inkscape:connector-curvature="0" />
  <path
     style="font-size:12px;fill:#d0d0d0;fill-rule:nonzero;stroke:#000000;stroke-width:1;stroke-linecap:butt;stroke-linejoin:bevel;stroke-miterlimit:4;stroke-opacity:1;stroke-dasharray:none;marker-start:none"
     d="m 5.5566804,29.796323 2.02,1.573 2.266,0.942 1.0419996,0.278 0.09,0.915 -0.851,2.039 -1.8269996,-0.005 -1.078,0.008 -0.112,0.014 -1.986,1.091 -0.413,-2.528 -0.498,-3.07 -0.171,-1.005 1.518,-0.252"
     id="Washington"
     inkscape:connector-curvature="0" />
  <path
     style="font-size:12px;fill:#d0d0d0;fill-opacity:1;fill-rule:nonzero;stroke:#000000;stroke-width:1;stroke-linecap:butt;stroke-linejoin:bevel;stroke-miterlimit:4;stroke-opacity:1;stroke-dasharray:none;marker-start:none"
     d="m 11.55168,26.249323 0.004,0.008 0.393,2.903 0.027,0.208 -0.009,0.066 -0.514,2.602 -0.09,0.229 -0.478,0.324 -1.0419996,-0.278 -2.266,-0.942 -2.02,-1.573 1.07,-1.438 0.711,-0.658 -0.167,-0.771 4.3809996,-0.68"
     id="Allegheny"
     inkscape:connector-curvature="0" />
  <path
     style="font-size:12px;fill:#d0d0d0;fill-opacity:1;fill-rule:nonzero;stroke:#000000;stroke-width:1;stroke-linecap:butt;stroke-linejoin:bevel;stroke-miterlimit:4;stroke-opacity:1;stroke-dasharray:none;marker-start:none"
     d="m 3.2506804,25.255323 3.438,-0.62 0.482,2.294 0.167,0.771 -0.711,0.658 -1.07,1.438 -1.518,0.252 -0.342,-2.069 -0.446,-2.724"
     id="Beaver"
     inkscape:connector-curvature="0" />
  <path
     style="font-size:12px;fill:#d0d0d0;fill-opacity:1;fill-rule:nonzero;stroke:#000000;stroke-width:1;stroke-linecap:butt;stroke-linejoin:bevel;stroke-miterlimit:4;stroke-opacity:1;stroke-dasharray:none;marker-start:none"
     d="m 6.8146804,21.787323 -0.126,2.848 -3.438,0.62 -0.114,-0.62 -0.465,-2.889 2.48,-0.447 1.077,0.005 0.586,0.483"
     id="Lawrence"
     inkscape:connector-curvature="0" />
  <path
     style="font-size:12px;fill:#d0d0d0;fill-opacity:1;fill-rule:nonzero;stroke:#000000;stroke-width:1;stroke-linecap:butt;stroke-linejoin:bevel;stroke-miterlimit:4;stroke-opacity:1;stroke-dasharray:none;marker-start:none"
     d="m 10.46168,19.831323 1.09,6.418 -4.3809996,0.68 -0.482,-2.294 0.126,-2.848 0.703,-1.465 2.8989996,-0.514 0.045,0.023"
     id="Butler"
     inkscape:connector-curvature="0" />
  <path
     style="font-size:12px;fill:#d0d0d0;fill-rule:nonzero;stroke:#000000;stroke-width:1;stroke-linecap:butt;stroke-linejoin:bevel;stroke-miterlimit:4;stroke-opacity:1;stroke-dasharray:none;marker-start:none"
     d="m 15.25568,20.569323 0.317,1.781 0.31,1.736 -1.144,2.424 -0.546,1.119 -2.637,-1.372 -0.004,-0.008 -1.09,-6.418 0.247,0.87 0.032,0.117 0.225,0.527 1.041,0.658 0.203,0.031 0.289,0.023 0.18,-0.054 0.694,-0.249 1.037,-0.418 0.846,-0.767"
     id="Armstrong"
     inkscape:connector-curvature="0" />
  <path
     style="font-size:12px;fill:#d0d0d0;fill-rule:nonzero;stroke:#000000;stroke-width:1;stroke-linecap:butt;stroke-linejoin:bevel;stroke-miterlimit:4;stroke-opacity:1;stroke-dasharray:none;marker-start:none"
     d="m 12.00368,16.720323 0.733,-0.131 -0.108,-0.634 0.397,-0.073 1.442,-0.185 0.207,1.266 0.581,3.606 -0.846,0.767 -1.037,0.418 -0.694,0.249 -0.18,0.054 -0.289,-0.023 -0.203,-0.031 -1.041,-0.658 -0.225,-0.527 -0.032,-0.117 -0.247,-0.87 -0.045,-0.023 0.247,-1.104 0.161,-0.338 0.181,-0.271 0.438,-0.414 0.1,-0.017 0.567,-0.295 -0.107,-0.649"
     id="Clarion"
     inkscape:connector-curvature="0" />
  <path
     style="font-size:12px;fill:#d0d0d0;fill-rule:nonzero;stroke:#000000;stroke-width:1;stroke-linecap:butt;stroke-linejoin:bevel;stroke-miterlimit:4;stroke-opacity:1;stroke-dasharray:none;marker-start:none"
     d="m 11.14168,13.732323 5.255,-0.928 0.284,1.74 -0.081,0.495 -0.825,0.127 -0.218,0.437 0.178,1.055 -1.06,0.305 -0.207,-1.266 -1.442,0.185 -0.397,0.073 0.108,0.634 -0.733,0.131 -0.127,-0.689 -0.46,-0.794 -0.275,-1.505"
     id="Forest"
     inkscape:connector-curvature="0" />
  <path
     style="font-size:12px;fill:#d0d0d0;fill-rule:nonzero;stroke:#000000;stroke-width:1;stroke-linecap:butt;stroke-linejoin:bevel;stroke-miterlimit:4;stroke-opacity:1;stroke-dasharray:none;marker-start:none"
     d="m 11.14168,13.732323 0.275,1.505 0.46,0.794 0.127,0.689 0.107,0.649 -0.567,0.295 -0.1,0.017 -0.438,0.414 -0.181,0.271 -0.161,0.338 -0.247,1.104 -2.8989996,0.514 -0.694,-4.074 0.343,-0.366 1.027,-1.343 2.0149996,-0.545 -0.018,-0.085 0.951,-0.177"
     id="Venango"
     inkscape:connector-curvature="0" />
  <path
     style="font-size:12px;fill:#d0d0d0;fill-rule:nonzero;stroke:#000000;stroke-width:1;stroke-linecap:butt;stroke-linejoin:bevel;stroke-miterlimit:4;stroke-opacity:1;stroke-dasharray:none;marker-start:none"
     d="m 1.9026804,17.086323 4.921,-0.838 0.694,4.074 -0.703,1.465 -0.586,-0.483 -1.077,-0.005 -2.48,0.447 -0.017,-0.104 -0.752,-4.556"
     id="Mercer"
     inkscape:connector-curvature="0" />
  <path
     style="font-size:12px;fill:#d0d0d0;fill-rule:nonzero;stroke:#000000;stroke-width:1;stroke-linecap:butt;stroke-linejoin:bevel;stroke-miterlimit:4;stroke-opacity:1;stroke-dasharray:none;marker-start:none"
     d="m 9.6946804,11.015323 0.4959996,2.894 0.018,0.085 -2.0149996,0.545 -1.027,1.343 -0.343,0.366 -4.921,0.838 -0.024,-0.14 -0.734,-4.48 5.742,-0.978 2.142,-0.385 0.666,-0.088"
     id="Crawford"
     inkscape:connector-curvature="0" />
  <path
     style="font-size:12px;fill:#d0d0d0;fill-rule:nonzero;stroke:#000000;stroke-width:1;stroke-linecap:butt;stroke-linejoin:bevel;stroke-miterlimit:4;stroke-opacity:1;stroke-dasharray:none;marker-start:none"
     d="m 9.3836804,9.1033229 0.311,1.9120001 -0.666,0.088 -2.142,0.385 -5.742,0.978 -0.26799999,-1.636 1.65699999,-1.0450004 2.185,-1.8119997 1.731,-1.416 0.91,-0.667 0.055,0.342 0.248,1.43 0.297,1.6889997 1.28,-0.2209997 0.144,-0.027"
     id="Erie"
     inkscape:connector-curvature="0" />
  <path
     style="font-size:12px;fill:#d0d0d0;fill-opacity:1;fill-rule:nonzero;stroke:#000000;stroke-width:1;stroke-linecap:butt;stroke-linejoin:bevel;stroke-miterlimit:4;stroke-opacity:1;stroke-dasharray:none;marker-start:none"
     d="m 14.19268,27.629323 -0.067,0.169 0.135,0.42 0.024,0.023 0.643,0.257 2.37,0.144 1.763,-0.112 -0.522,1.558 -1.732,3.54 -1.689,-0.884 -0.1,-0.052 -0.243,-0.062 -0.235,0.069 -2.284,0.566 -1.281,0.239 -0.09,-0.915 0.478,-0.324 0.09,-0.229 0.514,-2.602 0.009,-0.066 -0.027,-0.208 -0.393,-2.903 2.637,1.372"
     id="Westmoreland"
     inkscape:connector-curvature="0" />
  <path
     style="font-size:12px;fill:#d0d0d0;fill-rule:nonzero;stroke:#000000;stroke-width:1;stroke-linecap:butt;stroke-linejoin:bevel;stroke-miterlimit:4;stroke-opacity:1;stroke-dasharray:none;marker-start:none"
     d="m 15.57268,22.350323 3.925,-0.636 0.454,2.312 -0.891,4.504 -1.763,0.112 -2.37,-0.144 -0.643,-0.257 -0.024,-0.023 -0.135,-0.42 0.067,-0.169 0.546,-1.119 1.144,-2.424 -0.31,-1.736"
     id="Indiana"
     inkscape:connector-curvature="0" />
  <path
     style="font-size:12px;fill:#d0d0d0;fill-rule:nonzero;stroke:#000000;stroke-width:1;stroke-linecap:butt;stroke-linejoin:bevel;stroke-miterlimit:4;stroke-opacity:1;stroke-dasharray:none;marker-start:none"
     d="m 14.67468,16.963323 1.06,-0.305 0.188,-0.199 1.051,-0.307 2.353,0.879 0.315,0.375 0.068,0.365 -0.537,0.085 -0.162,0.793 -0.005,0.028 0.011,0.373 0.481,2.664 -3.925,0.636 -0.317,-1.781 -0.581,-3.606"
     id="Jefferson"
     inkscape:connector-curvature="0" />
  <path
     style="font-size:12px;fill:#d0d0d0;fill-rule:nonzero;stroke:#000000;stroke-width:1;stroke-linecap:butt;stroke-linejoin:bevel;stroke-miterlimit:4;stroke-opacity:1;stroke-dasharray:none;marker-start:none"
     d="m 14.53968,8.1893229 1.339,-0.226 0.135,0.568 0.257,1.4339997 -0.026,0.1340004 -0.258,0.055 0.41,2.65 -5.255,0.928 -0.951,0.177 -0.4959996,-2.894 -0.311,-1.9120001 5.1559996,-0.914"
     id="Warren"
     inkscape:connector-curvature="0" />
  <path
     style="font-size:12px;fill:#d0d0d0;fill-rule:nonzero;stroke:#000000;stroke-width:1;stroke-linecap:butt;stroke-linejoin:bevel;stroke-miterlimit:4;stroke-opacity:1;stroke-dasharray:none;marker-start:none"
     d="m 21.60868,6.8863229 0.949,-0.188 0.951,4.8620001 -1.996,0.586 -0.672,-0.239 -1.28,0.262 -0.491,0.129 -1.465,0.299 -1.208,0.207 -0.41,-2.65 0.258,-0.055 0.026,-0.1340004 -0.257,-1.4339997 -0.135,-0.568 0.415,-0.072 2.604,-0.506 2.711,-0.499"
     id="McKean"
     inkscape:connector-curvature="0" />
  <path
     style="font-size:12px;fill:#d0d0d0;fill-rule:nonzero;stroke:#000000;stroke-width:1;stroke-linecap:butt;stroke-linejoin:bevel;stroke-miterlimit:4;stroke-opacity:1;stroke-dasharray:none;marker-start:none"
     d="m 21.51268,12.146323 1.996,-0.586 2.37,1.442 -0.355,3.48 -1.396,0.085 -0.205,-1.193 -0.374,-1.002 -1.572,0.293 -0.464,-2.519"
     id="Cameron"
     inkscape:connector-curvature="0" />
  <path
     style="font-size:12px;fill:#d0d0d0;fill-rule:nonzero;stroke:#000000;stroke-width:1;stroke-linecap:butt;stroke-linejoin:bevel;stroke-miterlimit:4;stroke-opacity:1;stroke-dasharray:none;marker-start:none"
     d="m 16.39668,12.804323 1.208,-0.207 1.465,-0.299 0.491,-0.129 1.28,-0.262 0.672,0.239 0.464,2.519 1.572,-0.293 0.374,1.002 0.205,1.193 -3.075,0.343 -0.847,0.172 -0.496,0.689 -0.068,-0.365 -0.315,-0.375 -2.353,-0.879 -1.051,0.307 -0.188,0.199 -0.178,-1.055 0.218,-0.437 0.825,-0.127 0.081,-0.495 -0.284,-1.74"
     id="Elk"
     inkscape:connector-curvature="0" />
  <path
     style="font-size:12px;fill:#d0d0d0;fill-rule:nonzero;stroke:#000000;stroke-width:1;stroke-linecap:butt;stroke-linejoin:bevel;stroke-miterlimit:4;stroke-opacity:1;stroke-dasharray:none;marker-start:none"
     d="m 24.12768,16.567323 1.396,-0.085 0.677,0.707 0.094,1.527 0.013,0.308 -0.116,0.802 -0.051,0.058 -0.54,0.222 -0.46,0.405 -0.108,0.121 -1.086,2.257 0.013,0.042 0.168,0.207 0.138,0.086 -4.314,0.802 -0.454,-2.312 -0.481,-2.664 -0.011,-0.373 0.005,-0.028 0.162,-0.793 0.537,-0.085 0.496,-0.689 0.847,-0.172 3.075,-0.343"
     id="Clearfield"
     inkscape:connector-curvature="0" />
  <path
     style="font-size:12px;fill:#d0d0d0;fill-opacity:1;fill-rule:nonzero;stroke:#000000;stroke-width:1;stroke-linecap:butt;stroke-linejoin:bevel;stroke-miterlimit:4;stroke-opacity:1;stroke-dasharray:none;marker-start:none"
     d="m 24.12768,23.138323 2.342,-0.522 -0.716,0.676 -0.104,0.194 -0.036,0.149 0.523,1.423 0.532,0.347 0.28,0.429 0.009,0.089 -0.019,0.122 -0.117,0.478 -0.636,1.983 -0.066,0.352 -0.1,0.378 -1.56,-0.107 -1.833,-0.343 1.639,-5.562 -0.138,-0.086"
     id="Blair"
     inkscape:connector-curvature="0" />
  <path
     style="font-size:12px;fill:#d0d0d0;fill-opacity:1;fill-rule:nonzero;stroke:#000000;stroke-width:1;stroke-linecap:butt;stroke-linejoin:bevel;stroke-miterlimit:4;stroke-opacity:1;stroke-dasharray:none;marker-start:none"
     d="m 19.95168,24.026323 4.314,-0.802 -1.639,5.562 -0.167,1.14 -0.879,0.162 -1.263,0.19 -0.193,-0.274 -0.338,-0.141 -1.248,0.225 0.522,-1.558 0.891,-4.504"
     id="Cambria"
     inkscape:connector-curvature="0" />
  <path
     style="font-size:12px;fill:#d0d0d0;fill-opacity:1;fill-rule:nonzero;stroke:#000000;stroke-width:1;stroke-linecap:butt;stroke-linejoin:bevel;stroke-miterlimit:4;stroke-opacity:1;stroke-dasharray:none;marker-start:none"
     d="m 22.45968,29.926323 -0.375,2.362 0.406,3.178 -0.028,0.373 -0.229,1.005 -5.656,1.033 -0.208,-0.14 -0.338,-1.51 0.077,-0.631 0.45,-1.302 0.248,-0.666 1.732,-3.54 1.248,-0.225 0.338,0.141 0.193,0.274 1.263,-0.19 0.879,-0.162"
     id="Somerset"
     inkscape:connector-curvature="0" />
  <path
     style="font-size:12px;fill:#d0d0d0;fill-opacity:1;fill-rule:nonzero;stroke:#000000;stroke-width:1;stroke-linecap:butt;stroke-linejoin:bevel;stroke-miterlimit:4;stroke-opacity:1;stroke-dasharray:none;marker-start:none"
     d="m 22.62668,28.786323 1.833,0.343 1.56,0.107 0.1,-0.378 0.066,-0.352 1.501,1.47 -0.126,0.595 -0.31,1.889 -0.33,2.154 -0.27,0.861 -0.271,0.604 -4.146,0.765 0.229,-1.005 0.028,-0.373 -0.406,-3.178 0.375,-2.362 0.167,-1.14"
     id="Bedford"
     inkscape:connector-curvature="0" />
  <path
     style="font-size:12px;fill:#d0d0d0;fill-opacity:1;fill-rule:nonzero;stroke:#000000;stroke-width:1;stroke-linecap:butt;stroke-linejoin:bevel;stroke-miterlimit:4;stroke-opacity:1;stroke-dasharray:none;marker-start:none"
     d="m 27.68668,29.976323 0.631,0.307 1.533,0.116 0.69,0.401 -0.099,0.109 -0.055,0.094 -0.234,0.641 -0.041,0.73 -0.212,1.244 -0.121,0.455 -0.437,1.073 -0.235,0.419 -2.361,0.446 -0.366,0.068 0.271,-0.604 0.27,-0.861 0.33,-2.154 0.31,-1.889 0.126,-0.595"
     id="Fulton"
     inkscape:connector-curvature="0" />
  <path
     style="font-size:12px;fill:#d0d0d0;fill-opacity:1;fill-rule:nonzero;stroke:#000000;stroke-width:1;stroke-linecap:butt;stroke-linejoin:bevel;stroke-miterlimit:4;stroke-opacity:1;stroke-dasharray:none;marker-start:none"
     d="m 26.46968,22.616323 1.754,0.293 2.174,-0.721 0.241,-0.253 -0.067,0.298 -0.545,1.198 -0.284,0.542 -0.122,0.32 -0.068,0.234 -0.293,1.884 0.51,0.437 0.104,0.068 0.252,-0.037 0.639,-0.188 0.073,-0.15 0.752,1.379 -1.049,2.88 -0.69,-0.401 -1.533,-0.116 -0.631,-0.307 -1.501,-1.47 0.636,-1.983 0.117,-0.478 0.019,-0.122 -0.009,-0.089 -0.28,-0.429 -0.532,-0.347 -0.523,-1.423 0.036,-0.149 0.104,-0.194 0.716,-0.676"
     id="Huntingdon"
     inkscape:connector-curvature="0" />
  <path
     style="font-size:12px;fill:#d0d0d0;fill-opacity:1;fill-rule:nonzero;stroke:#000000;stroke-width:1;stroke-linecap:butt;stroke-linejoin:bevel;stroke-miterlimit:4;stroke-opacity:1;stroke-dasharray:none;marker-start:none"
     d="m 31.58968,27.920323 0.236,-0.391 0.783,1.046 -0.104,0.161 0.262,0.415 1.465,1.672 0.383,0.73 0.685,2.839 -0.094,0.019 -6.099,1.154 0.235,-0.419 0.437,-1.073 0.121,-0.455 0.212,-1.244 0.041,-0.73 0.234,-0.641 0.055,-0.094 0.099,-0.109 1.049,-2.88"
     id="Franklin"
     inkscape:connector-curvature="0" />
  <path
     style="font-size:12px;fill:#d0d0d0;fill-rule:nonzero;stroke:#000000;stroke-width:1;stroke-linecap:butt;stroke-linejoin:bevel;stroke-miterlimit:4;stroke-opacity:1;stroke-dasharray:none;marker-start:none"
     d="m 33.37068,19.843323 0.167,0.496 0.941,1.321 -0.536,0.365 -0.306,0.23 -0.587,0.505 -0.319,0.312 -0.896,1.486 -0.997,1.983 -0.073,0.15 -0.639,0.188 -0.252,0.037 -0.104,-0.068 -0.51,-0.437 0.293,-1.884 0.068,-0.234 0.122,-0.32 0.284,-0.542 0.545,-1.198 0.067,-0.298 2.732,-2.092"
     id="Mifflin"
     inkscape:connector-curvature="0" />
  <path
     style="font-size:12px;fill:#d0d0d0;fill-rule:nonzero;stroke:#000000;stroke-width:1;stroke-linecap:butt;stroke-linejoin:bevel;stroke-miterlimit:4;stroke-opacity:1;stroke-dasharray:none;marker-start:none"
     d="m 28.15168,5.6253229 1.235,5.8050001 0.175,0.811 -3.683,0.761 -2.37,-1.442 -0.951,-4.8620001 4.282,-0.808 1.312,-0.265"
     id="Potter"
     inkscape:connector-curvature="0" />
  <path
     style="font-size:12px;fill:#d0d0d0;fill-rule:nonzero;stroke:#000000;stroke-width:1;stroke-linecap:butt;stroke-linejoin:bevel;stroke-miterlimit:4;stroke-opacity:1;stroke-dasharray:none;marker-start:none"
     d="m 29.56168,12.241323 0.1,0.473 0.667,0.643 1.149,1.024 3.223,2.263 0.188,-0.041 0.069,0.32 -1.727,1.081 -1.532,0.64 -0.888,-0.941 -0.148,-0.292 -0.357,-0.19 -3.295,-0.934 -0.81,0.902 -0.677,-0.707 0.355,-3.48 3.683,-0.761"
     id="Clinton"
     inkscape:connector-curvature="0" />
  <path
     style="font-size:12px;fill:#d0d0d0;fill-rule:nonzero;stroke:#000000;stroke-width:1;stroke-linecap:butt;stroke-linejoin:bevel;stroke-miterlimit:4;stroke-opacity:1;stroke-dasharray:none;marker-start:none"
     d="m 26.20068,17.189323 0.81,-0.902 3.295,0.934 0.357,0.19 0.148,0.292 0.888,0.941 1.532,-0.64 1.727,-1.081 -0.443,0.771 -0.486,1.163 -0.658,0.986 -2.732,2.092 -0.241,0.253 -2.174,0.721 -1.754,-0.293 -2.342,0.522 -0.168,-0.207 -0.013,-0.042 1.086,-2.257 0.108,-0.121 0.46,-0.405 0.54,-0.222 0.051,-0.058 0.116,-0.802 -0.013,-0.308 -0.094,-1.527"
     id="Centre"
     inkscape:connector-curvature="0" />
  <path
     style="font-size:12px;fill:#d0d0d0;fill-rule:nonzero;stroke:#000000;stroke-width:1;stroke-linecap:butt;stroke-linejoin:bevel;stroke-miterlimit:4;stroke-opacity:1;stroke-dasharray:none;marker-start:none"
     d="m 34.88868,16.603323 1.525,-0.554 0.012,-0.815 0.627,0.003 0.239,0.554 0.35,1.412 -0.012,0.162 0.113,0.229 0.316,0.42 0.323,0.24 0.253,0.067 -0.32,-0.018 -1.036,0.211 -1.247,0.532 -2.108,1.06 -0.386,0.233 -0.167,-0.496 0.658,-0.986 0.486,-1.163 0.443,-0.771 -0.069,-0.32"
     id="Union"
     inkscape:connector-curvature="0" />
  <path
     style="font-size:12px;fill:#d0d0d0;fill-opacity:1;fill-rule:nonzero;stroke:#000000;stroke-width:1;stroke-linecap:butt;stroke-linejoin:bevel;stroke-miterlimit:4;stroke-opacity:1;stroke-dasharray:none;marker-start:none"
     d="m 38.51768,14.499323 0.915,0.032 0.442,0.959 0.496,0.194 0.748,1.091 0.081,0.166 0.018,0.838 -0.992,-0.707 -0.207,-0.117 -0.289,0 -0.656,0.316 -0.538,0.216 -0.022,-0.027 0.094,-1.343 -0.09,-1.618"
     id="Montour"
     inkscape:connector-curvature="0" />
  <path
     style="font-size:12px;fill:#d0d0d0;fill-rule:nonzero;stroke:#000000;stroke-width:1;stroke-linecap:butt;stroke-linejoin:bevel;stroke-miterlimit:4;stroke-opacity:1;stroke-dasharray:none;marker-start:none"
     d="m 34.53368,4.3223229 1.542,5.0529997 -0.044,0.107 -0.647,0.6330004 -2.167,0.512 -3.831,0.803 -1.235,-5.8050001 6.021,-1.223 0.361,-0.08"
     id="Tioga"
     inkscape:connector-curvature="0" />
  <path
     style="font-size:12px;fill:#d0d0d0;fill-rule:nonzero;stroke:#000000;stroke-width:1;stroke-linecap:butt;stroke-linejoin:bevel;stroke-miterlimit:4;stroke-opacity:1;stroke-dasharray:none;marker-start:none"
     d="m 36.07568,9.3753226 0.59,-0.038 1.068,2.2130004 1.763,0.993 0.446,0.058 0.995,0.023 -1.505,1.907 -0.915,-0.032 -1.465,0.738 -0.627,-0.003 -0.012,0.815 -1.525,0.554 -0.188,0.041 -3.223,-2.263 -1.149,-1.024 -0.667,-0.643 -0.1,-0.473 -0.175,-0.811 3.831,-0.803 2.167,-0.512 0.647,-0.6330004 0.044,-0.107"
     id="Lycoming"
     inkscape:connector-curvature="0" />
  <path
     style="font-size:12px;fill:#d0d0d0;fill-rule:nonzero;stroke:#000000;stroke-width:1;stroke-linecap:butt;stroke-linejoin:bevel;stroke-miterlimit:4;stroke-opacity:1;stroke-dasharray:none;marker-start:none"
     d="m 43.05668,7.1853229 0.031,0.107 2.308,-0.5 1.388,-0.275 -0.068,0.098 -0.253,0.871 -0.121,0.703 0.338,0.162 -0.374,1.1209997 -0.139,0.105 -1.389,0.7930004 -2.556,0.635 0.15,-2.2160001 0.685,-1.604"
     id="Wyoming"
     inkscape:connector-curvature="0" />
  <path
     style="font-size:12px;fill:#d0d0d0;fill-rule:nonzero;stroke:#000000;stroke-width:1;stroke-linecap:butt;stroke-linejoin:bevel;stroke-miterlimit:4;stroke-opacity:1;stroke-dasharray:none;marker-start:none"
     d="m 36.66568,9.3373226 5.706,-0.5479997 -0.15,2.2160001 -0.081,0.929 -1.203,0.69 -0.995,-0.023 -0.446,-0.058 -1.763,-0.993 -1.068,-2.2130004"
     id="Sullivan"
     inkscape:connector-curvature="0" />
  <path
     style="font-size:12px;fill:#d0d0d0;fill-opacity:1;fill-rule:nonzero;stroke:#000000;stroke-width:1;stroke-linecap:butt;stroke-linejoin:bevel;stroke-miterlimit:4;stroke-opacity:1;stroke-dasharray:none;marker-start:none"
     d="m 42.14068,11.934323 0.141,1.036 0.063,0.299 0.585,0.847 1.146,2.177 -0.302,0.511 -0.249,0.48 0.005,1.087 -0.622,0.477 -1.69,-1.069 -0.018,-0.838 -0.081,-0.166 -0.748,-1.091 -0.496,-0.194 -0.442,-0.959 1.505,-1.907 1.203,-0.69"
     id="Columbia"
     inkscape:connector-curvature="0" />
  <path
     style="font-size:12px;fill:#d0d0d0;fill-opacity:1;fill-rule:nonzero;stroke:#000000;stroke-width:1;stroke-linecap:butt;stroke-linejoin:bevel;stroke-miterlimit:4;stroke-opacity:1;stroke-dasharray:none;marker-start:none"
     d="m 37.05268,15.237323 1.465,-0.738 0.09,1.618 -0.094,1.343 0.022,0.027 0.538,-0.216 0.656,-0.316 0.289,0 0.207,0.117 0.992,0.707 1.69,1.069 -2.749,2.132 -0.405,0.126 -1.114,0.739 -0.447,0.176 -0.045,0.018 -0.112,-0.028 -0.157,-0.17 0.068,-0.154 0.076,-0.09 0.359,-0.64 0.073,-0.166 0.045,-0.172 0.018,-0.225 -0.081,-0.343 0.104,-1.135 0.094,-0.595 -0.253,-0.067 -0.323,-0.24 -0.316,-0.42 -0.113,-0.229 0.012,-0.162 -0.35,-1.412 -0.239,-0.554"
     id="Northumberland"
     inkscape:connector-curvature="0" />
  <path
     style="font-size:12px;fill:#d0d0d0;fill-rule:nonzero;stroke:#000000;stroke-width:1;stroke-linecap:butt;stroke-linejoin:bevel;stroke-miterlimit:4;stroke-opacity:1;stroke-dasharray:none;marker-start:none"
     d="m 38.63468,18.321323 -0.094,0.595 -0.104,1.135 0.081,0.343 -0.018,0.225 -0.045,0.172 -0.073,0.166 -0.359,0.64 -0.076,0.09 -0.032,-0.095 -0.055,-0.045 -0.991,-0.175 -0.676,-0.027 -0.375,0.226 -1.339,0.089 -0.941,-1.321 0.386,-0.233 2.108,-1.06 1.247,-0.532 1.036,-0.211 0.32,0.018"
     id="Snyder"
     inkscape:connector-curvature="0" />
  <path
     style="font-size:12px;fill:#d0d0d0;fill-rule:nonzero;stroke:#000000;stroke-width:1;stroke-linecap:butt;stroke-linejoin:bevel;stroke-miterlimit:4;stroke-opacity:1;stroke-dasharray:none;marker-start:none"
     d="m 37.94668,21.687323 -0.068,0.154 -1.939,1.257 -1.032,0.793 -1.37,1.262 -0.726,0.735 -0.825,1.321 -0.161,0.32 -0.236,0.391 -0.752,-1.379 0.997,-1.983 0.896,-1.486 0.319,-0.312 0.587,-0.505 0.306,-0.23 0.536,-0.365 1.339,-0.089 0.375,-0.226 0.676,0.027 0.991,0.175 0.055,0.045 0.032,0.095"
     id="Juniata"
     inkscape:connector-curvature="0" />
  <path
     style="font-size:12px;fill:#d0d0d0;fill-rule:nonzero;stroke:#000000;stroke-width:1;stroke-linecap:butt;stroke-linejoin:bevel;stroke-miterlimit:4;stroke-opacity:1;stroke-dasharray:none;marker-start:none"
     d="m 38.99468,25.582323 -0.544,0.365 -0.428,0.162 -3.525,1.324 -1.776,1.303 -0.113,-0.161 -0.783,-1.046 0.161,-0.32 0.825,-1.321 0.726,-0.735 1.37,-1.262 1.032,-0.793 1.939,-1.257 -0.078,0.585 -0.072,2.601 0.009,0.045 0.13,0.244 0.145,0.076 0.982,0.19"
     id="Perry"
     inkscape:connector-curvature="0" />
  <path
     style="font-size:12px;fill:#d0d0d0;fill-opacity:1;fill-rule:nonzero;stroke:#000000;stroke-width:1;stroke-linecap:butt;stroke-linejoin:bevel;stroke-miterlimit:4;stroke-opacity:1;stroke-dasharray:none;marker-start:none"
     d="m 38.99468,25.582323 0.795,1.198 -0.429,0.599 -1.186,0.992 -0.658,0.947 -0.243,0.369 -0.348,0.317 -0.675,0.279 -1.104,0.509 -0.532,0.761 -0.383,-0.73 -1.465,-1.672 -0.262,-0.415 0.104,-0.161 0.113,0.161 1.776,-1.303 3.525,-1.324 0.428,-0.162 0.544,-0.365"
     id="Cumberland"
     inkscape:connector-curvature="0" />
  <path
     style="font-size:12px;fill:#d0d0d0;fill-rule:nonzero;stroke:#000000;stroke-width:1;stroke-linecap:butt;stroke-linejoin:bevel;stroke-miterlimit:4;stroke-opacity:1;stroke-dasharray:none;marker-start:none"
     d="m 37.51668,29.318323 0.113,0.009 0.366,0.107 0.801,0.365 0.708,0.899 0.045,0.18 0.072,0.617 -0.158,0.581 0,0.053 0.275,1.375 -2.097,0.424 -2.342,0.464 -0.685,-2.839 0.532,-0.761 1.104,-0.509 0.675,-0.279 0.348,-0.317 0.243,-0.369"
     id="Adams"
     inkscape:connector-curvature="0" />
  <path
     style="font-size:12px;fill:#d0d0d0;fill-opacity:1;fill-rule:nonzero;stroke:#000000;stroke-width:1;stroke-linecap:butt;stroke-linejoin:bevel;stroke-miterlimit:4;stroke-opacity:1;stroke-dasharray:none;marker-start:none"
     d="m 39.78968,26.780323 1.586,1.082 0.91,0.618 0.632,0.026 0.265,-0.036 0.225,0.054 1.871,1.61 1.735,1.694 0.054,0.082 0,0.063 -3.178,0.666 -2.099,0.437 -2.052,0.428 -0.275,-1.375 0,-0.053 0.158,-0.581 -0.072,-0.617 -0.045,-0.18 -0.708,-0.899 -0.801,-0.365 -0.366,-0.107 -0.113,-0.009 0.658,-0.947 1.186,-0.992 0.429,-0.599"
     id="York"
     inkscape:connector-curvature="0" />
  <path
     style="font-size:12px;fill:#d0d0d0;fill-opacity:1;fill-rule:nonzero;stroke:#000000;stroke-width:1;stroke-linecap:butt;stroke-linejoin:bevel;stroke-miterlimit:4;stroke-opacity:1;stroke-dasharray:none;marker-start:none"
     d="m 40.15868,20.980323 1.856,0.979 -1.149,1.305 1.771,3.336 0.032,-0.022 -1.293,1.284 -1.586,-1.082 -0.795,-1.198 -0.982,-0.19 -0.145,-0.076 -0.13,-0.244 -0.009,-0.045 0.072,-2.601 0.078,-0.585 0.157,0.17 0.112,0.028 0.045,-0.018 0.447,-0.176 1.114,-0.739 0.405,-0.126"
     id="Dauphin"
     inkscape:connector-curvature="0" />
  <path
     style="font-size:12px;fill:#d0d0d0;fill-opacity:1;fill-rule:nonzero;stroke:#000000;stroke-width:1;stroke-linecap:butt;stroke-linejoin:bevel;stroke-miterlimit:4;stroke-opacity:1;stroke-dasharray:none;marker-start:none"
     d="m 42.01468,21.959323 1.064,0.567 3.24,1.708 -1.329,1.086 -1.19,0.478 -1.131,0.78 -0.032,0.022 -1.771,-3.336 1.149,-1.305"
     id="Lebanon"
     inkscape:connector-curvature="0" />
  <path
     style="font-size:12px;fill:#d0d0d0;fill-opacity:1;fill-rule:nonzero;stroke:#000000;stroke-width:1;stroke-linecap:butt;stroke-linejoin:bevel;stroke-miterlimit:4;stroke-opacity:1;stroke-dasharray:none;marker-start:none"
     d="m 46.31868,24.234323 3.143,1.704 -0.591,0.509 -0.063,2.073 0.036,0.329 0.049,0.226 0.126,0.346 -0.098,0.699 -0.154,0.568 -0.127,0.338 -0.567,0.73 -0.942,0.204 -0.063,0.013 0,-0.063 -0.054,-0.082 -1.735,-1.694 -1.871,-1.61 -0.225,-0.054 -0.265,0.036 -0.632,-0.026 -0.91,-0.618 1.293,-1.284 1.131,-0.78 1.19,-0.478 1.329,-1.086"
     id="Lancaster"
     inkscape:connector-curvature="0" />
  <path
     style="font-size:12px;fill:#d0d0d0;fill-opacity:1;fill-rule:nonzero;stroke:#000000;stroke-width:1;stroke-linecap:butt;stroke-linejoin:bevel;stroke-miterlimit:4;stroke-opacity:1;stroke-dasharray:none;marker-start:none"
     d="m 51.89468,21.287323 -1.027,2.955 -1.406,1.696 -3.143,-1.704 -3.24,-1.708 1.231,-0.519 0.459,-0.117 0.194,-0.099 1.547,-1.063 0.427,-0.527 0.014,-0.406 0.865,-0.681 4.079,2.173"
     id="Berks"
     inkscape:connector-curvature="0" />
  <path
     style="font-size:12px;fill:#d0d0d0;fill-opacity:1;fill-rule:nonzero;stroke:#000000;stroke-width:1;stroke-linecap:butt;stroke-linejoin:bevel;stroke-miterlimit:4;stroke-opacity:1;stroke-dasharray:none;marker-start:none"
     d="m 44.07568,16.293323 2.096,0.041 2.757,1.765 -1.113,1.015 -0.865,0.681 -0.014,0.406 -0.427,0.527 -1.547,1.063 -0.194,0.099 -0.459,0.117 -1.231,0.519 -1.064,-0.567 -1.856,-0.979 2.749,-2.132 0.622,-0.477 -0.005,-1.087 0.249,-0.48 0.302,-0.511"
     id="Schuylkill"
     inkscape:connector-curvature="0" />
  <path
     style="font-size:12px;fill:#d0d0d0;fill-opacity:1;fill-rule:nonzero;stroke:#000000;stroke-width:1;stroke-linecap:butt;stroke-linejoin:bevel;stroke-miterlimit:4;stroke-opacity:1;stroke-dasharray:none;marker-start:none"
     d="m 46.17168,16.334323 2.248,-1.749 -0.122,-0.253 -0.378,-0.307 -0.045,-0.271 0.004,-0.112 0.028,-0.058 0.519,-0.618 0.039,-0.031 0.23,-0.082 0.198,0.113 0.307,0.108 1.51,1.289 -0.569,0.695 1.259,1.451 -1.204,0.625 -1.267,0.965 -2.757,-1.765"
     id="Carbon"
     inkscape:connector-curvature="0" />
  <path
     style="font-size:12px;fill:#d0d0d0;fill-opacity:1;fill-rule:nonzero;stroke:#000000;stroke-width:1;stroke-linecap:butt;stroke-linejoin:bevel;stroke-miterlimit:4;stroke-opacity:1;stroke-dasharray:none;marker-start:none"
     d="m 42.22168,11.005323 2.556,-0.635 1.389,-0.7930004 0.139,-0.105 0.076,0.227 0.235,0.256 0.569,0.2110004 0.571,0.119 0.731,0.96 0.229,0.891 0.08,0.131 0.132,0.069 0.311,0.032 -0.347,0.598 -0.198,-0.113 -0.23,0.082 -0.039,0.031 -0.519,0.618 -0.028,0.058 -0.004,0.112 0.045,0.271 0.378,0.307 0.122,0.253 -2.248,1.749 -2.096,-0.041 -1.146,-2.177 -0.585,-0.847 -0.063,-0.299 -0.141,-1.036 0.081,-0.929"
     id="Luzerne"
     inkscape:connector-curvature="0" />
  <path
     style="font-size:12px;fill:#d0d0d0;fill-opacity:1;fill-rule:nonzero;stroke:#000000;stroke-width:1;stroke-linecap:butt;stroke-linejoin:bevel;stroke-miterlimit:4;stroke-opacity:1;stroke-dasharray:none;marker-start:none"
     d="m 46.78368,6.5173229 2.425,-0.523 1.266,4.8080001 -0.157,0.189 -0.379,0.28 -0.699,1.097 -0.311,-0.032 -0.132,-0.069 -0.08,-0.131 -0.229,-0.891 -0.731,-0.96 -0.571,-0.119 -0.569,-0.2110004 -0.235,-0.256 -0.076,-0.227 0.374,-1.1209997 -0.338,-0.162 0.121,-0.703 0.253,-0.871 0.068,-0.098"
     id="Lackawanna"
     inkscape:connector-curvature="0" />
  <path
     style="font-size:12px;fill:#d0d0d0;fill-rule:nonzero;stroke:#000000;stroke-width:1;stroke-linecap:butt;stroke-linejoin:bevel;stroke-miterlimit:4;stroke-opacity:1;stroke-dasharray:none;marker-start:none"
     d="m 37.98668,3.6323229 3.844,-0.789 1.226,4.342 -0.685,1.604 -5.706,0.5479997 -0.59,0.038 -1.542,-5.0529997 3.453,-0.69"
     id="Bradford"
     inkscape:connector-curvature="0" />
  <path
     style="font-size:12px;fill:#d0d0d0;fill-opacity:1;fill-rule:nonzero;stroke:#000000;stroke-width:1;stroke-linecap:butt;stroke-linejoin:bevel;stroke-miterlimit:4;stroke-opacity:1;stroke-dasharray:none;marker-start:none"
     d="m 42.21268,2.7623229 5.806,-1.2580001 1.19,4.4900001 -2.425,0.523 -1.388,0.275 -2.308,0.5 -0.031,-0.107 -1.226,-4.342 0.382,-0.081"
     id="Susquehanna"
     inkscape:connector-curvature="0" />
  <path
     style="font-size:12px;fill:#d0d0d0;fill-opacity:1;fill-rule:nonzero;stroke:#000000;stroke-width:1;stroke-linecap:butt;stroke-linejoin:bevel;stroke-miterlimit:4;stroke-opacity:1;stroke-dasharray:none;marker-start:none"
     d="m 48.01868,1.5043228 1.153,-0.256 0.181,0.041 0.568,0.4 0.171,0.162 0.302,0.6450001 1.181,0.194 1.532,2.749 -0.704,2.127 -0.891,2.1019997 -0.208,1.2110004 -1.365,0.392 0.379,-0.28 0.157,-0.189 -1.266,-4.8080001 -1.19,-4.4900001"
     id="Wayne"
     inkscape:connector-curvature="0" />
  <path
     style="font-size:12px;fill:#d0d0d0;fill-opacity:1;fill-rule:nonzero;stroke:#000000;stroke-width:1;stroke-linecap:butt;stroke-linejoin:bevel;stroke-miterlimit:4;stroke-opacity:1;stroke-dasharray:none;marker-start:none"
     d="m 53.10668,5.4393229 0.258,0.591 0.414,0.405 0.293,0.279 1.027,0.533 0.167,0.077 0.758,-0.041 0.423,-0.047 0.767,0.75 -0.569,0.41 -0.27,0.293 -0.23,0.473 -0.049,0.1439997 -0.117,0.5 -0.018,0.176 0.04,0.041 0.018,0.212 -0.058,0.388 -0.266,0.627 -0.384,0.54 -0.131,0.184 -0.324,0.203 -1.402,-0.586 -0.009,-1.364 -2.141,0.652 0.208,-1.2110004 0.891,-2.1019997 0.704,-2.127"
     id="Pike"
     inkscape:connector-curvature="0" />
  <path
     style="font-size:12px;fill:#d0d0d0;fill-opacity:1;fill-rule:nonzero;stroke:#000000;stroke-width:1;stroke-linecap:butt;stroke-linejoin:bevel;stroke-miterlimit:4;stroke-opacity:1;stroke-dasharray:none;marker-start:none"
     d="m 51.30368,10.879323 2.141,-0.652 0.009,1.364 1.402,0.586 0.324,-0.203 0.131,-0.184 0.054,0.067 -1.05,1.961 -2.915,2.691 -1.259,-1.451 0.569,-0.695 -1.51,-1.289 -0.307,-0.108 0.347,-0.598 0.699,-1.097 1.365,-0.392"
     id="Monroe"
     inkscape:connector-curvature="0" />
  <path
     style="font-size:12px;fill:#d0d0d0;fill-opacity:1;fill-rule:nonzero;stroke:#000000;stroke-width:1;stroke-linecap:butt;stroke-linejoin:bevel;stroke-miterlimit:4;stroke-opacity:1;stroke-dasharray:none;marker-start:none"
     d="m 54.31468,13.818323 0.915,1.078 0.032,0.076 -0.005,0.076 -0.324,0.993 -0.197,0.273 -0.146,0.02 -0.144,-0.014 -0.076,0.021 -0.164,0.385 0.1,0.778 0.238,0.92 0.064,0.117 -1.1,1.2 -0.734,-0.587 -1,-0.613 -1.28,-0.792 -0.127,-0.16 -0.171,-0.455 1.204,-0.625 2.915,-2.691"
     id="Northampton"
     inkscape:connector-curvature="0" />
  <path
     style="font-size:12px;fill:#d0d0d0;fill-opacity:1;fill-rule:nonzero;stroke:#000000;stroke-width:1;stroke-linecap:butt;stroke-linejoin:bevel;stroke-miterlimit:4;stroke-opacity:1;stroke-dasharray:none;marker-start:none"
     d="m 50.19568,17.134323 0.171,0.455 0.127,0.16 1.28,0.792 1,0.613 0.734,0.587 -1.099,1.815 -0.514,-0.269 -4.079,-2.173 1.113,-1.015 1.267,-0.965"
     id="Lehigh"
     inkscape:connector-curvature="0" />
  <path
     style="font-size:12px;fill:#d0d0d0;fill-opacity:1;fill-rule:nonzero;stroke:#000000;stroke-width:1;stroke-linecap:butt;stroke-linejoin:bevel;stroke-miterlimit:4;stroke-opacity:1;stroke-dasharray:none;marker-start:none"
     d="m 54.58068,25.766323 1.05,0.96 0.941,1.262 -1.783,1.248 -1.835,-0.066 1.627,-3.404"
     id="Delaware"
     inkscape:connector-curvature="0" />
  <path
     style="font-size:12px;fill:#d0d0d0;fill-opacity:1;fill-rule:nonzero;stroke:#000000;stroke-width:1;stroke-linecap:butt;stroke-linejoin:bevel;stroke-miterlimit:4;stroke-opacity:1;stroke-dasharray:none;marker-start:none"
     d="m 52.40868,21.556323 5.268,2.57 -0.996,1.095 -0.549,-0.365 -0.554,0.852 0.513,0.396 -0.46,0.622 -1.05,-0.96 -1.077,-0.248 -0.952,-0.753 -0.102,-0.135 -0.032,-0.041 -1,-0.409 -0.55,0.062 1.027,-2.955 0.514,0.269"
     id="Montgomery"
     inkscape:connector-curvature="0" />
  <path
     style="font-size:12px;fill:#d0d0d0;fill-opacity:1;fill-rule:nonzero;stroke:#000000;stroke-width:1;stroke-linecap:butt;stroke-linejoin:bevel;stroke-miterlimit:4;stroke-opacity:1;stroke-dasharray:none;marker-start:none"
     d="m 50.86768,24.242323 0.55,-0.062 1,0.409 0.032,0.041 0.102,0.135 0.952,0.753 1.077,0.248 -1.627,3.404 -1.536,1.87 -3.345,0.716 0.567,-0.73 0.127,-0.338 0.154,-0.568 0.098,-0.699 -0.126,-0.346 -0.049,-0.226 -0.036,-0.329 0.063,-2.073 0.591,-0.509 1.406,-1.696"
     id="Chester"
     inkscape:connector-curvature="0" />
</svg>
