<?xml version="1.0" encoding="UTF-8" standalone="no"?>
<!-- Created with Inkscape (http://www.inkscape.org/) -->

<svg
   xmlns:dc="http://purl.org/dc/elements/1.1/"
   xmlns:cc="http://creativecommons.org/ns#"
   xmlns:rdf="http://www.w3.org/1999/02/22-rdf-syntax-ns#"
   xmlns:svg="http://www.w3.org/2000/svg"
   xmlns="http://www.w3.org/2000/svg"
   xmlns:sodipodi="http://sodipodi.sourceforge.net/DTD/sodipodi-0.dtd"
   xmlns:inkscape="http://www.inkscape.org/namespaces/inkscape"
   version="1.0"
   width="53.349998"
   height="48.869999"
   sodipodi:version="0.32"
   inkscape:version="0.48.2 r9819"
   sodipodi:docname="ar.svg"
   inkscape:output_extension="org.inkscape.output.svg.inkscape"
   id="svg4886">
  <metadata
     id="metadata4888">
    <rdf:RDF>
      <cc:Work
         rdf:about="">
        <dc:format>image/svg+xml</dc:format>
        <dc:type
           rdf:resource="http://purl.org/dc/dcmitype/StillImage" />
      </cc:Work>
    </rdf:RDF>
  </metadata>
  <defs
     id="defs4890" />
  <sodipodi:namedview
     pagecolor="#ffffff"
     bordercolor="#666666"
     borderopacity="1"
     objecttolerance="10"
     gridtolerance="10"
     guidetolerance="10"
     inkscape:pageopacity="0"
     inkscape:pageshadow="2"
     inkscape:window-width="1366"
     inkscape:window-height="716"
     fit-margin-top="0"
     fit-margin-left="0"
     fit-margin-right="0"
     fit-margin-bottom="0"
     inkscape:zoom="4.5491794"
     inkscape:cx="-21.288401"
     inkscape:cy="13.535363"
     inkscape:window-x="-8"
     inkscape:window-y="-8"
     inkscape:window-maximized="1"
     inkscape:current-layer="svg4886"
     id="namedview4892"
     showgrid="false" />
  <path
     style="font-size:12px;fill:#d0d0d0;fill-rule:nonzero;stroke:#000000;stroke-width:1;stroke-linecap:butt;stroke-linejoin:bevel;stroke-miterlimit:4;stroke-opacity:1;stroke-dasharray:none;marker-start:none"
     d="m 37.958599,39.843222 0.148,0.409 0.014,0.008 0.546,0.372 0.446,0.301 0.085,0.301 -0.13,0.257 -0.555,0.162 0.541,1.547 0.365,0.662 0.28,0.297 0.031,0.98 0,0.011 -0.338,1.403 -0.009,0.009 -0.315,0.356 -0.087,0.099 -1.063,0.041 -1.839,0.075 -0.266,0.015 -0.202,-4.953 -0.068,-2.262 1.109,-0.055 0.059,0.388 0.292,0.179 0.789,-0.021 0.167,-0.581"
     id="Chicot"
     inkscape:connector-curvature="0" />
  <path
     style="font-size:12px;fill:#d0d0d0;fill-rule:nonzero;stroke:#000000;stroke-width:1;stroke-linecap:butt;stroke-linejoin:bevel;stroke-miterlimit:4;stroke-opacity:1;stroke-dasharray:none;marker-start:none"
     d="m 29.899599,42.329222 5.711,-0.134 0.202,4.953 -6.549,0.266 -0.82,-1.975 0.252,-0.648 0.398,-0.519 0.472,-0.382 0.213,-0.059 0.31,-0.262 0.144,-0.996 -0.333,-0.244"
     id="Ashley"
     inkscape:connector-curvature="0" />
  <path
     style="font-size:12px;fill:#d0d0d0;fill-rule:nonzero;stroke:#000000;stroke-width:1;stroke-linecap:butt;stroke-linejoin:bevel;stroke-miterlimit:4;stroke-opacity:1;stroke-dasharray:none;marker-start:none"
     d="m 20.110599,12.533222 0.027,1.739 -0.366,0.524 0.023,1.122 -0.347,3.805 -1.329,0.143 -2.728,-1.924 -0.219,-0.122 -0.024,-1.852 0.19,-0.005 0.563,-0.594 0.536,-1.097 -0.017,-1.703 2.217,-0.012 1.474,-0.024"
     id="Pope"
     inkscape:connector-curvature="0" />
  <path
     style="font-size:12px;fill:#d0d0d0;fill-rule:nonzero;stroke:#000000;stroke-width:1;stroke-linecap:butt;stroke-linejoin:bevel;stroke-miterlimit:4;stroke-opacity:1;stroke-dasharray:none;marker-start:none"
     d="m 18.541599,7.4812222 0.095,5.0759998 -2.217,0.012 -3.701,-0.346 -0.09,-0.781 0.005,-0.752 0.229,-0.568 0.32,-0.5629994 -0.175,-2.0420004 1.856,-0.004 3.678,-0.032"
     id="Newton"
     inkscape:connector-curvature="0" />
  <path
     style="font-size:12px;fill:#d0d0d0;fill-rule:nonzero;stroke:#000000;stroke-width:1;stroke-linecap:butt;stroke-linejoin:bevel;stroke-miterlimit:4;stroke-opacity:1;stroke-dasharray:none;marker-start:none"
     d="m 9.4775993,5.2452222 1.6319997,0.006 0.279,0.319 0.14,0.509 0,0.487 0.091,0.185 0.284,0.396 0.364,0.37 0.74,0 0.175,2.0420004 -0.32,0.5629994 -0.229,0.568 -0.005,0.752 0.09,0.781 -1.839,-0.023 -2.2259997,0.167 -0.541,0 0,-0.942 0.099,-3.3539998 0.54,-1.88 0.726,-0.946"
     id="Madison"
     inkscape:connector-curvature="0" />
  <path
     style="font-size:12px;fill:#d0d0d0;fill-rule:nonzero;stroke:#000000;stroke-width:1;stroke-linecap:butt;stroke-linejoin:bevel;stroke-miterlimit:4;stroke-opacity:1;stroke-dasharray:none;marker-start:none"
     d="m 8.6535993,12.367222 2.2259997,-0.167 -0.022,5.111 -3.2819997,2.168 -0.545,-2.993 0.162,-0.086 0.194,-0.621 0.145,-0.739 0.031,-1.372 1.091,-0.923 0.189,-0.188 0.004,-0.19 -0.193,0"
     id="Franklin"
     inkscape:connector-curvature="0" />
  <path
     style="font-size:12px;fill:#d0d0d0;fill-rule:nonzero;stroke:#000000;stroke-width:1;stroke-linecap:butt;stroke-linejoin:bevel;stroke-miterlimit:4;stroke-opacity:1;stroke-dasharray:none;marker-start:none"
     d="m 10.879599,12.200222 1.839,0.023 3.701,0.346 0.017,1.703 -0.536,1.097 -0.563,0.594 -0.19,0.005 0.024,1.852 -1.875,-1.076 -0.443,0.175 -0.794,0.253 -1.202,0.139 0.022,-5.111"
     id="Johnson"
     inkscape:connector-curvature="0" />
  <path
     style="font-size:12px;fill:#d0d0d0;fill-rule:nonzero;stroke:#000000;stroke-width:1;stroke-linecap:butt;stroke-linejoin:bevel;stroke-miterlimit:4;stroke-opacity:1;stroke-dasharray:none;marker-start:none"
     d="m 10.857599,17.311222 1.202,-0.139 0.794,-0.253 0.443,-0.175 1.875,1.076 0.219,0.122 0.019,1.361 -2.123,0.478 -1.862,0.464 -0.454,0.184 0,1.146 0.053,0.347 -2.2129997,0.013 -1.668,-0.013 -0.711,-0.365 0,-0.573 0.004,-0.568 1.132,0.013 0.008,-0.95 3.2819997,-2.168"
     id="Logan"
     inkscape:connector-curvature="0" />
  <path
     style="font-size:12px;fill:#d0d0d0;fill-rule:nonzero;stroke:#000000;stroke-width:1;stroke-linecap:butt;stroke-linejoin:bevel;stroke-miterlimit:4;stroke-opacity:1;stroke-dasharray:none;marker-start:none"
     d="m 15.390599,17.942222 2.728,1.924 1.329,-0.143 -1.478,1.265 -0.848,0.785 -0.779,0.752 -0.357,0.398 -0.536,0.734 0.041,1.348 -1.108,0.419 -3.331,0.058 -0.028,-3.56 -0.053,-0.347 0,-1.146 0.454,-0.184 1.862,-0.464 2.123,-0.478 -0.019,-1.361"
     id="Yell"
     inkscape:connector-curvature="0" />
  <path
     style="font-size:12px;fill:#d0d0d0;fill-rule:nonzero;stroke:#000000;stroke-width:1;stroke-linecap:butt;stroke-linejoin:bevel;stroke-miterlimit:4;stroke-opacity:1;stroke-dasharray:none;marker-start:none"
     d="m 17.969599,20.988222 3.376,-0.045 0.878,-0.085 0.167,-0.032 0.135,-0.049 0.524,-0.433 0.049,0.051 0.099,0.265 0.014,0.121 -0.04,0.316 -0.046,0.113 -0.081,0.116 -0.117,0.123 -0.166,0.14 -0.073,0.09 -0.046,0.153 0.04,0.157 0.122,0.203 0.11,0.095 0.125,0.072 0.189,0.058 -0.314,0.217 -0.772,0.194 -1.09,0.212 0.008,0.748 0.163,-0.005 -0.104,0.231 -0.843,-0.222 -1.482,0 -1.086,0.045 0.022,1.118 -2.24,0.05 -0.041,-1.348 0.536,-0.734 0.357,-0.398 0.779,-0.752 0.848,-0.785"
     id="Perry"
     inkscape:connector-curvature="0" />
  <path
     style="font-size:12px;fill:#d0d0d0;fill-rule:nonzero;stroke:#000000;stroke-width:1;stroke-linecap:butt;stroke-linejoin:bevel;stroke-miterlimit:4;stroke-opacity:1;stroke-dasharray:none;marker-start:none"
     d="m 19.794599,15.918222 3.877,-0.04 0.022,1.131 -0.644,3.335 -0.524,0.433 -0.135,0.049 -0.167,0.032 -0.878,0.085 -3.376,0.045 1.478,-1.265 0.347,-3.805"
     id="Conway"
     inkscape:connector-curvature="0" />
  <path
     style="font-size:12px;fill:#d0d0d0;fill-rule:nonzero;stroke:#000000;stroke-width:1;stroke-linecap:butt;stroke-linejoin:bevel;stroke-miterlimit:4;stroke-opacity:1;stroke-dasharray:none;marker-start:none"
     d="m 27.555599,16.933222 0.073,3.844 0.012,0.702 -1.118,0.019 -0.328,1.132 -2.137,0.022 -0.829,-0.235 -0.189,-0.058 -0.125,-0.072 -0.11,-0.095 -0.122,-0.203 -0.04,-0.157 0.046,-0.153 0.073,-0.09 0.166,-0.14 0.117,-0.123 0.081,-0.116 0.046,-0.113 0.04,-0.316 -0.014,-0.121 -0.099,-0.265 -0.049,-0.051 0.644,-3.335 2.389,-0.031 1.473,-0.045"
     id="Faulkner"
     inkscape:connector-curvature="0" />
  <path
     style="font-size:12px;fill:#d0d0d0;fill-rule:nonzero;stroke:#000000;stroke-width:1;stroke-linecap:butt;stroke-linejoin:bevel;stroke-miterlimit:4;stroke-opacity:1;stroke-dasharray:none;marker-start:none"
     d="m 24.162599,11.528222 1.869,0.924 0.051,4.526 -2.389,0.031 -0.022,-1.131 -3.877,0.04 -0.023,-1.122 0.366,-0.524 -0.027,-1.739 1.857,-0.009 -0.018,-0.941 2.213,-0.055"
     id="Van Buren"
     inkscape:connector-curvature="0" />
  <path
     style="font-size:12px;fill:#d0d0d0;fill-rule:nonzero;stroke:#000000;stroke-width:1;stroke-linecap:butt;stroke-linejoin:bevel;stroke-miterlimit:4;stroke-opacity:1;stroke-dasharray:none;marker-start:none"
     d="m 18.541599,7.4812222 0.559,-0.004 0.568,0.553 4.413,-0.062 0.013,1.132 0.068,2.4279998 -2.213,0.055 0.018,0.941 -1.857,0.009 -1.474,0.024 -0.095,-5.0759998"
     id="Searcy"
     inkscape:connector-curvature="0" />
  <path
     style="font-size:12px;fill:#d0d0d0;fill-rule:nonzero;stroke:#000000;stroke-width:1;stroke-linecap:butt;stroke-linejoin:bevel;stroke-miterlimit:4;stroke-opacity:1;stroke-dasharray:none;marker-start:none"
     d="m 26.280599,6.9722222 1.234,0.942 0.06,0.045 0.188,0.229 0.005,0.059 -0.261,0.847 2.009,0.9970008 0.492,0.175999 0.221,2.104 -4.197,0.081 -1.869,-0.924 -0.068,-2.4279998 1.114,-0.018 1.09,-1.154 -0.018,-0.956"
     id="Stone"
     inkscape:connector-curvature="0" />
  <path
     style="font-size:12px;fill:#d0d0d0;fill-rule:nonzero;stroke:#000000;stroke-width:1;stroke-linecap:butt;stroke-linejoin:bevel;stroke-miterlimit:4;stroke-opacity:1;stroke-dasharray:none;marker-start:none"
     d="m 30.228599,12.371222 0.545,2.195 0.028,1.019 -0.532,1.289 -2.714,0.059 -1.473,0.045 -0.051,-4.526 4.197,-0.081"
     id="Cleburne"
     inkscape:connector-curvature="0" />
  <path
     style="font-size:12px;fill:#d0d0d0;fill-rule:nonzero;stroke:#000000;stroke-width:1;stroke-linecap:butt;stroke-linejoin:bevel;stroke-miterlimit:4;stroke-opacity:1;stroke-dasharray:none;marker-start:none"
     d="m 30.773599,14.566222 2.214,-0.053 2.5,1.067 -0.847,1.046 -0.027,0.775 0.023,0.081 0.284,0.392 -0.226,2.002 -0.221,0.298 -3.502,0.928 -1.487,-0.135 -0.491,-0.172 -1.365,-0.018 -0.073,-3.844 2.714,-0.059 0.532,-1.289 -0.028,-1.019"
     id="White"
     inkscape:connector-curvature="0" />
  <path
     style="font-size:12px;fill:#d0d0d0;fill-rule:nonzero;stroke:#000000;stroke-width:1;stroke-linecap:butt;stroke-linejoin:bevel;stroke-miterlimit:4;stroke-opacity:1;stroke-dasharray:none;marker-start:none"
     d="m 35.095599,9.7302226 1.645,-0.073 -0.058,0.226 -0.104,0.3069994 -0.288,0.671 -0.869,1.943 -0.222,1.659 -1.406,0.045 -0.806,0.005 -2.214,0.053 -0.545,-2.195 -0.221,-2.104 1.398,-1.0279994 2.564,-0.054 0.014,0.577 1.112,-0.032"
     id="Independence"
     inkscape:connector-curvature="0" />
  <path
     style="font-size:12px;fill:#d0d0d0;fill-rule:nonzero;stroke:#000000;stroke-width:1;stroke-linecap:butt;stroke-linejoin:bevel;stroke-miterlimit:4;stroke-opacity:1;stroke-dasharray:none;marker-start:none"
     d="m 36.740599,9.6572226 1.727,-0.026 0.073,2.2939994 0.152,3.444 0.059,1.15 -2.212,0.071 -0.073,-1.145 -1.015,0.063 0.036,0.072 -2.5,-1.067 0.806,-0.005 1.406,-0.045 0.222,-1.659 0.869,-1.943 0.288,-0.671 0.104,-0.3069994 0.058,-0.226"
     id="Jackson"
     inkscape:connector-curvature="0" />
  <path
     style="font-size:12px;fill:#d0d0d0;fill-rule:nonzero;stroke:#000000;stroke-width:1;stroke-linecap:butt;stroke-linejoin:bevel;stroke-miterlimit:4;stroke-opacity:1;stroke-dasharray:none;marker-start:none"
     d="m 35.487599,15.580222 -0.036,-0.072 1.015,-0.063 0.073,1.145 2.212,-0.071 0.108,2.671 -1.023,1.949 -0.923,0.026 -0.47,0.27 -0.085,0.397 0.013,0.549 -0.776,0.036 -0.035,-1.807 -1.004,0.045 -0.051,-0.143 -0.032,-0.338 0.221,-0.298 0.226,-2.002 -0.284,-0.392 -0.023,-0.081 0.027,-0.775 0.847,-1.046"
     id="Woodruff"
     inkscape:connector-curvature="0" />
  <path
     style="font-size:12px;fill:#d0d0d0;fill-rule:nonzero;stroke:#000000;stroke-width:1;stroke-linecap:butt;stroke-linejoin:bevel;stroke-miterlimit:4;stroke-opacity:1;stroke-dasharray:none;marker-start:none"
     d="m 44.506599,18.934222 1.073,-0.113 0.09,1.889 0.009,1.275 -5.628,0.28 -1.07,-0.01 -0.553,0.032 0.022,0.576 -0.613,-1.724 1.023,-1.949 5.647,-0.256"
     id="St. Francis"
     inkscape:connector-curvature="0" />
  <path
     style="font-size:12px;fill:#d0d0d0;fill-rule:nonzero;stroke:#000000;stroke-width:1;stroke-linecap:butt;stroke-linejoin:bevel;stroke-miterlimit:4;stroke-opacity:1;stroke-dasharray:none;marker-start:none"
     d="m 47.941599,14.923222 0.699,0.688 0.04,0.136 0.419,2.957 -0.004,0.014 0,0.012 -0.004,0.008 -0.019,0.029 -0.157,0.193 -1.105,0.849 -1.05,0.346 -0.126,0.402 0.018,0.18 0.265,1.74 -1.176,0.431 -0.063,-0.923 -0.009,-1.275 -0.09,-1.889 -1.073,0.113 -0.216,-3.858 2.25,-0.09 1.401,-0.063"
     id="Crittenden"
     inkscape:connector-curvature="0" />
  <path
     style="font-size:12px;fill:#d0d0d0;fill-rule:nonzero;stroke:#000000;stroke-width:1;stroke-linecap:butt;stroke-linejoin:bevel;stroke-miterlimit:4;stroke-opacity:1;stroke-dasharray:none;marker-start:none"
     d="m 44.290599,15.076222 0.216,3.858 -5.647,0.256 -0.108,-2.671 -0.059,-1.15 0.951,-0.041 2.416,-0.229 1.1,-0.05 1.131,0.027"
     id="Cross"
     inkscape:connector-curvature="0" />
  <path
     style="font-size:12px;fill:#d0d0d0;fill-rule:nonzero;stroke:#000000;stroke-width:1;stroke-linecap:butt;stroke-linejoin:bevel;stroke-miterlimit:4;stroke-opacity:1;stroke-dasharray:none;marker-start:none"
     d="m 38.540599,11.925222 1.951,-0.064 4.142,-0.215 1.704,-0.05 0.203,3.39 -2.25,0.09 -1.131,-0.027 -1.1,0.05 -2.416,0.229 -0.951,0.041 -0.152,-3.444"
     id="Poinsett"
     inkscape:connector-curvature="0" />
  <path
     style="font-size:12px;fill:#d0d0d0;fill-rule:nonzero;stroke:#000000;stroke-width:1;stroke-linecap:butt;stroke-linejoin:bevel;stroke-miterlimit:4;stroke-opacity:1;stroke-dasharray:none;marker-start:none"
     d="m 51.830599,7.3372222 0.551,1.217 -0.285,-0.005 -0.188,0.032 -0.225,0.117 -0.034,0.023 -0.066,0.058 -0.91,1.9429998 -0.285,2.731 -2.447,1.47 -1.401,0.063 -0.203,-3.39 -0.253,-3.8399998 3.407,-0.243 2.339,-0.176"
     id="Mississippi"
     inkscape:connector-curvature="0" />
  <path
     style="font-size:12px;fill:#d0d0d0;fill-rule:nonzero;stroke:#000000;stroke-width:1;stroke-linecap:butt;stroke-linejoin:bevel;stroke-miterlimit:4;stroke-opacity:1;stroke-dasharray:none;marker-start:none"
     d="m 46.084599,7.7562222 0.253,3.8399998 -1.704,0.05 -4.142,0.215 -1.951,0.064 -0.073,-2.2939994 1.807,-1.1720004 4.814,-0.23 0.173,-0.419 0.823,-0.054"
     id="Craighead"
     inkscape:connector-curvature="0" />
  <path
     style="font-size:12px;fill:#d0d0d0;fill-rule:nonzero;stroke:#000000;stroke-width:1;stroke-linecap:butt;stroke-linejoin:bevel;stroke-miterlimit:4;stroke-opacity:1;stroke-dasharray:none;marker-start:none"
     d="m 31.418599,5.1872222 -0.013,4.0520004 -1.398,1.0279994 -0.492,-0.175999 -2.009,-0.9970008 0.261,-0.847 -0.005,-0.059 -0.188,-0.229 -0.06,-0.045 -1.234,-0.942 -0.203,0 -0.009,-0.54 0.555,-0.231 -0.014,-0.911 4.809,-0.103"
     id="Izard"
     inkscape:connector-curvature="0" />
  <path
     style="font-size:12px;fill:#d0d0d0;fill-rule:nonzero;stroke:#000000;stroke-width:1;stroke-linecap:butt;stroke-linejoin:bevel;stroke-miterlimit:4;stroke-opacity:1;stroke-dasharray:none;marker-start:none"
     d="m 35.875599,4.9162222 1.254,1.105 0.703,0.613 0.324,-0.451 2.43,-0.104 0.618,-0.027 0.004,0.05 -0.195,0.487 -0.284,0.274 -0.148,0.109 -0.405,1.131 0.098,0.356 -1.807,1.1720004 -1.727,0.026 -1.645,0.073 -0.04,-1.7300004 -0.085,-1.961 -0.014,-0.726 0.181,-0.194 0.738,-0.203"
     id="Lawrence"
     inkscape:connector-curvature="0" />
  <path
     style="font-size:12px;fill:#d0d0d0;fill-rule:nonzero;stroke:#000000;stroke-width:1;stroke-linecap:butt;stroke-linejoin:bevel;stroke-miterlimit:4;stroke-opacity:1;stroke-dasharray:none;marker-start:none"
     d="m 34.199599,1.8882221 0.004,0.126 0.632,0.6400001 0.374,0.18 0.414,0.577 0.216,0.672 0.036,0.833 -0.738,0.203 -0.181,0.194 0.014,0.726 0.085,1.961 0.04,1.7300004 -1.112,0.032 -0.014,-0.577 -2.564,0.054 0.013,-4.0520004 1.299,-0.014 1.081,-1.536 -0.04,-1.7360001 0.441,-0.013"
     id="Sharp"
     inkscape:connector-curvature="0" />
  <path
     style="font-size:12px;fill:#d0d0d0;fill-rule:nonzero;stroke:#000000;stroke-width:1;stroke-linecap:butt;stroke-linejoin:bevel;stroke-miterlimit:4;stroke-opacity:1;stroke-dasharray:none;marker-start:none"
     d="m 40.536599,4.5572222 0.934,-0.069 3.361,-0.081 0.739,0.338 0.023,0.384 1.261,-0.091 -1.593,2.772 -0.173,0.419 -4.814,0.23 -0.098,-0.356 0.405,-1.131 0.148,-0.109 0.284,-0.274 0.195,-0.487 -0.004,-0.05 -0.618,0.027 -0.05,-1.522"
     id="Greene"
     inkscape:connector-curvature="0" />
  <path
     style="font-size:12px;fill:#d0d0d0;fill-rule:nonzero;stroke:#000000;stroke-width:1;stroke-linecap:butt;stroke-linejoin:bevel;stroke-miterlimit:4;stroke-opacity:1;stroke-dasharray:none;marker-start:none"
     d="m 42.740599,1.4202221 3.655,-0.208 0.275,-0.018 0.406,-0.013 0.919,1.2980001 0.1,0.134 0.067,1.024 -0.109,0.297 -0.072,0.113 -1.127,0.991 -1.261,0.091 -0.023,-0.384 -0.739,-0.338 -3.361,0.081 -0.934,0.069 0.062,-3.0210001 2.142,-0.116"
     id="Clay"
     inkscape:connector-curvature="0" />
  <path
     style="font-size:12px;fill:#d0d0d0;fill-rule:nonzero;stroke:#000000;stroke-width:1;stroke-linecap:butt;stroke-linejoin:bevel;stroke-miterlimit:4;stroke-opacity:1;stroke-dasharray:none;marker-start:none"
     d="m 40.598599,1.5362221 -0.062,3.0210001 0.05,1.522 -2.43,0.104 -0.324,0.451 -0.703,-0.613 -1.254,-1.105 -0.036,-0.833 -0.216,-0.672 -0.414,-0.577 -0.374,-0.18 -0.632,-0.6400001 -0.004,-0.126 2.885,-0.153 3.514,-0.199"
     id="Randolph"
     inkscape:connector-curvature="0" />
  <path
     style="font-size:12px;fill:#d0d0d0;fill-rule:nonzero;stroke:#000000;stroke-width:1;stroke-linecap:butt;stroke-linejoin:bevel;stroke-miterlimit:4;stroke-opacity:1;stroke-dasharray:none;marker-start:none"
     d="m 33.758599,1.9012221 0.04,1.7360001 -1.081,1.536 -1.299,0.014 -4.809,0.103 -0.055,-3.081 0.307,-0.019 4.61,-0.2070001 2.287,-0.082"
     id="Fulton"
     inkscape:connector-curvature="0" />
  <path
     style="font-size:12px;fill:#d0d0d0;fill-rule:nonzero;stroke:#000000;stroke-width:1;stroke-linecap:butt;stroke-linejoin:bevel;stroke-miterlimit:4;stroke-opacity:1;stroke-dasharray:none;marker-start:none"
     d="m 22.656599,2.3702222 3.898,-0.161 0.055,3.081 0.014,0.911 -0.555,0.231 0.009,0.54 0.203,0 0.018,0.956 -1.09,1.154 -1.114,0.018 -0.013,-1.132 -0.006,-0.757 -0.26,-0.605 -0.551,-1.129 -0.477,-0.564 -0.171,-0.123 0.049,-1.022 -0.009,-1.398"
     id="Baxter"
     inkscape:connector-curvature="0" />
  <path
     style="font-size:12px;fill:#d0d0d0;fill-rule:nonzero;stroke:#000000;stroke-width:1;stroke-linecap:butt;stroke-linejoin:bevel;stroke-miterlimit:4;stroke-opacity:1;stroke-dasharray:none;marker-start:none"
     d="m 20.155599,2.4562222 2.501,-0.086 0.009,1.398 -0.049,1.022 0.171,0.123 0.477,0.564 0.551,1.129 0.26,0.605 0.006,0.757 -4.413,0.062 -0.568,-0.553 0.211,-4.994 0.844,-0.027"
     id="Marion"
     inkscape:connector-curvature="0" />
  <path
     style="font-size:12px;fill:#d0d0d0;fill-rule:nonzero;stroke:#000000;stroke-width:1;stroke-linecap:butt;stroke-linejoin:bevel;stroke-miterlimit:4;stroke-opacity:1;stroke-dasharray:none;marker-start:none"
     d="m 19.311599,2.4832222 -0.211,4.994 -0.559,0.004 -3.678,0.032 -0.094,-4.895 4.542,-0.135"
     id="Boone"
     inkscape:connector-curvature="0" />
  <path
     style="font-size:12px;fill:#d0d0d0;fill-rule:nonzero;stroke:#000000;stroke-width:1;stroke-linecap:butt;stroke-linejoin:bevel;stroke-miterlimit:4;stroke-opacity:1;stroke-dasharray:none;marker-start:none"
     d="m 14.769599,2.6182222 0.094,4.895 -1.856,0.004 -0.74,0 -0.364,-0.37 -0.284,-0.396 -0.091,-0.185 0,-0.487 -0.14,-0.509 -0.279,-0.319 -1.6319997,-0.006 -0.581,-2.483 2.9029997,-0.072 2.771,-0.068 0.199,-0.004"
     id="Carroll"
     inkscape:connector-curvature="0" />
  <path
     style="font-size:12px;fill:#d0d0d0;fill-rule:nonzero;stroke:#000000;stroke-width:1;stroke-linecap:butt;stroke-linejoin:bevel;stroke-miterlimit:4;stroke-opacity:1;stroke-dasharray:none;marker-start:none"
     d="m 6.7285993,2.8072222 2.168,-0.045 0.581,2.483 -0.726,0.946 -1.28,-0.008 -1.108,0.253 -2.208,0.113 -0.46,0.941 -0.108,0.564 -1.668,-0.009 -0.122,-0.772 -0.636,-4.377 5.567,-0.089"
     id="Benton"
     inkscape:connector-curvature="0" />
  <path
     style="font-size:12px;fill:#d0d0d0;fill-rule:nonzero;stroke:#000000;stroke-width:1;stroke-linecap:butt;stroke-linejoin:bevel;stroke-miterlimit:4;stroke-opacity:1;stroke-dasharray:none;marker-start:none"
     d="m 1.9195993,8.0452222 1.668,0.009 0.108,-0.564 0.46,-0.941 2.208,-0.113 1.108,-0.253 1.28,0.008 -0.54,1.88 -0.099,3.3539998 0,0.942 -1.681,-0.014 -1.285,0.159 -2.546,-0.024 -0.681,-4.4429998"
     id="Washington"
     inkscape:connector-curvature="0" />
  <path
     style="font-size:12px;fill:#d0d0d0;fill-rule:nonzero;stroke:#000000;stroke-width:1;stroke-linecap:butt;stroke-linejoin:bevel;stroke-miterlimit:4;stroke-opacity:1;stroke-dasharray:none;marker-start:none"
     d="m 8.1125993,12.367222 0.734,0 -0.004,0.19 -0.189,0.188 -1.091,0.923 -0.031,1.372 -0.145,0.739 -0.194,0.621 -0.162,0.086 -0.618,-0.062 -0.089,0.013 -0.064,0.036 -0.09,0.076 -0.044,0.099 0.049,0.108 0.153,0.136 0.045,0.081 0.04,0.139 -0.008,0.095 -0.032,0.082 -0.077,0.067 -0.658,0.297 -0.171,0.055 -0.721,0.054 -0.266,-0.086 -0.243,-0.302 -0.036,-0.176 0.041,-0.171 0,-0.049 -0.059,-0.131 -0.343,-0.266 -0.171,-0.076 -0.14,-0.027 -0.027,0.013 -0.19,0.676 -0.472,-3.115 -0.239,-1.564 2.546,0.024 1.285,-0.159 1.681,0.014"
     id="Crawford"
     inkscape:connector-curvature="0" />
  <path
     style="font-size:12px;fill:#d0d0d0;fill-rule:nonzero;stroke:#000000;stroke-width:1;stroke-linecap:butt;stroke-linejoin:bevel;stroke-miterlimit:4;stroke-opacity:1;stroke-dasharray:none;marker-start:none"
     d="m 3.3115993,17.167222 0.19,-0.676 0.027,-0.013 0.14,0.027 0.171,0.076 0.343,0.266 0.059,0.131 0,0.049 -0.041,0.171 0.036,0.176 0.243,0.302 0.266,0.086 0.721,-0.054 0.171,-0.055 0.658,-0.297 0.077,-0.067 0.032,-0.082 0.008,-0.095 -0.04,-0.139 -0.045,-0.081 -0.153,-0.136 -0.049,-0.108 0.044,-0.099 0.09,-0.076 0.064,-0.036 0.089,-0.013 0.618,0.062 0.545,2.993 -0.008,0.95 -1.132,-0.013 -0.004,0.568 -0.19,0.004 -0.667,0.281 -0.289,0.184 0,0.095 0.236,0.004 0,1.154 -0.357,0.148 -1.735,0.375 -0.185,-0.036 0.063,-5.8 0.004,-0.226"
     id="Sebastian"
     inkscape:connector-curvature="0" />
  <path
     style="font-size:12px;fill:#d0d0d0;fill-rule:nonzero;stroke:#000000;stroke-width:1;stroke-linecap:butt;stroke-linejoin:bevel;stroke-miterlimit:4;stroke-opacity:1;stroke-dasharray:none;marker-start:none"
     d="m 6.4315993,20.984222 0,0.573 0.711,0.365 1.668,0.013 2.2129997,-0.013 0.028,3.56 -0.366,-0.003 -0.8819997,0.472 -0.497,0.6 -0.549,0.022 0,-0.189 -0.933,-0.14 -3.155,-0.005 -0.483,-0.252 -0.969,-0.131 0.027,-2.663 0.185,0.036 1.735,-0.375 0.357,-0.148 0,-1.154 -0.236,-0.004 0,-0.095 0.289,-0.184 0.667,-0.281 0.19,-0.004"
     id="Scott"
     inkscape:connector-curvature="0" />
  <path
     style="font-size:12px;fill:#d0d0d0;fill-rule:nonzero;stroke:#000000;stroke-width:1;stroke-linecap:butt;stroke-linejoin:bevel;stroke-miterlimit:4;stroke-opacity:1;stroke-dasharray:none;marker-start:none"
     d="m 14.382599,25.424222 -0.014,4.498 0.009,0.744 -5.5849997,0 -0.035,-4.093 0.549,-0.022 0.497,-0.6 0.8819997,-0.472 0.366,0.003 3.331,-0.058"
     id="Montgomery"
     inkscape:connector-curvature="0" />
  <path
     style="font-size:12px;fill:#d0d0d0;fill-rule:nonzero;stroke:#000000;stroke-width:1;stroke-linecap:butt;stroke-linejoin:bevel;stroke-miterlimit:4;stroke-opacity:1;stroke-dasharray:none;marker-start:none"
     d="m 17.730599,24.955222 1.113,-0.04 0.032,1.136 0.684,0.616 1.06,0.551 0.188,0.365 0.006,0.757 -1.285,0.01 -0.324,0.752 0.022,0.775 -4.858,0.045 0.014,-4.498 1.108,-0.419 2.24,-0.05"
     id="Garland"
     inkscape:connector-curvature="0" />
  <path
     style="font-size:12px;fill:#d0d0d0;fill-rule:nonzero;stroke:#000000;stroke-width:1;stroke-linecap:butt;stroke-linejoin:bevel;stroke-miterlimit:4;stroke-opacity:1;stroke-dasharray:none;marker-start:none"
     d="m 21.223599,23.783222 0.937,0.681 1.109,1.068 1.546,1.069 1.696,0.521 0.089,1.137 -1.668,0.036 -1.577,0.591 -0.658,0.509 -0.527,0.058 -1.357,-1.113 -0.006,-0.757 -0.188,-0.365 -1.06,-0.551 -0.684,-0.616 -0.032,-1.136 -1.113,0.04 -0.022,-1.118 1.086,-0.045 1.482,0 0.843,0.222 0.104,-0.231"
     id="Saline"
     inkscape:connector-curvature="0" />
  <path
     style="font-size:12px;fill:#d0d0d0;fill-rule:nonzero;stroke:#000000;stroke-width:1;stroke-linecap:butt;stroke-linejoin:bevel;stroke-miterlimit:4;stroke-opacity:1;stroke-dasharray:none;marker-start:none"
     d="m 27.640599,21.479222 0.529,-0.012 0.081,3.623 0.563,1.416 0.067,1.713 -1.878,0.03 -0.402,0.01 -0.089,-1.137 -1.696,-0.521 -1.546,-1.069 -1.109,-1.068 -0.937,-0.681 -0.163,0.005 -0.008,-0.748 1.09,-0.212 0.772,-0.194 0.314,-0.217 0.829,0.235 2.137,-0.022 0.328,-1.132 1.118,-0.019"
     id="Pulaski"
     inkscape:connector-curvature="0" />
  <path
     style="font-size:12px;fill:#d0d0d0;fill-rule:nonzero;stroke:#000000;stroke-width:1;stroke-linecap:butt;stroke-linejoin:bevel;stroke-miterlimit:4;stroke-opacity:1;stroke-dasharray:none;marker-start:none"
     d="m 27.628599,20.777222 1.365,0.018 0.491,0.172 1.487,0.135 0.05,1.411 1.159,-0.028 0.753,3.782 0.094,0.829 -0.005,0.198 -0.419,0.861 -0.288,0 -3.435,0.064 -0.067,-1.713 -0.563,-1.416 -0.081,-3.623 -0.529,0.012 -0.012,-0.702"
     id="Lonoke"
     inkscape:connector-curvature="0" />
  <path
     style="font-size:12px;fill:#d0d0d0;fill-rule:nonzero;stroke:#000000;stroke-width:1;stroke-linecap:butt;stroke-linejoin:bevel;stroke-miterlimit:4;stroke-opacity:1;stroke-dasharray:none;marker-start:none"
     d="m 30.971599,21.102222 3.502,-0.928 0.032,0.338 0.051,0.143 1.004,-0.045 0.035,1.807 0.127,4.53 -2.289,0.054 0.039,1.127 -0.31,0.027 -0.559,0 0.419,-0.861 0.005,-0.198 -0.094,-0.829 -0.753,-3.782 -1.159,0.028 -0.05,-1.411"
     id="Prairie"
     inkscape:connector-curvature="0" />
  <path
     style="font-size:12px;fill:#d0d0d0;fill-rule:nonzero;stroke:#000000;stroke-width:1;stroke-linecap:butt;stroke-linejoin:bevel;stroke-miterlimit:4;stroke-opacity:1;stroke-dasharray:none;marker-start:none"
     d="m 35.595599,22.417222 0.776,-0.036 -0.013,-0.549 0.085,-0.397 0.47,-0.27 0.923,-0.026 0.613,1.724 0.059,1.718 0.563,-0.018 0.032,1.145 0.085,2.267 0.576,-0.014 0.009,0.203 0.06,1.528 -0.569,0.022 -0.076,0.006 -0.334,-0.127 -0.166,-0.116 -0.96,-1.038 -0.749,-1.073 -0.346,-0.441 -0.911,0.022 -0.127,-4.53"
     id="Monroe"
     inkscape:connector-curvature="0" />
  <path
     style="font-size:12px;fill:#d0d0d0;fill-rule:nonzero;stroke:#000000;stroke-width:1;stroke-linecap:butt;stroke-linejoin:bevel;stroke-miterlimit:4;stroke-opacity:1;stroke-dasharray:none;marker-start:none"
     d="m 38.449599,22.863222 -0.022,-0.576 0.553,-0.032 1.07,0.01 5.628,-0.28 0.063,0.923 -1.622,2.583 -5.016,0.217 -0.032,-1.145 -0.563,0.018 -0.059,-1.718"
     id="Lee"
     inkscape:connector-curvature="0" />
  <path
     style="font-size:12px;fill:#d0d0d0;fill-rule:nonzero;stroke:#000000;stroke-width:1;stroke-linecap:butt;stroke-linejoin:bevel;stroke-miterlimit:4;stroke-opacity:1;stroke-dasharray:none;marker-start:none"
     d="m 44.119599,25.491222 0.144,1.501 0.113,1.158 -0.076,0.248 -0.01,0.023 -0.023,0.018 -0.365,0.32 -0.459,0.22 -0.555,0.114 -0.553,0.108 -1.01,1.812 -0.479,0.987 -0.153,0.319 0.036,0.126 0.005,0.019 -1.978,0.099 0.508,-2.849 0.569,-0.022 -0.06,-1.528 -0.009,-0.203 -0.576,0.014 -0.085,-2.267 5.016,-0.217"
     id="Phillips"
     inkscape:connector-curvature="0" />
  <path
     style="font-size:12px;fill:#d0d0d0;fill-rule:nonzero;stroke:#000000;stroke-width:1;stroke-linecap:butt;stroke-linejoin:bevel;stroke-miterlimit:4;stroke-opacity:1;stroke-dasharray:none;marker-start:none"
     d="m 28.880599,28.219222 3.435,-0.064 0.076,3.227 1.263,0.01 0.555,0.026 0.107,0.077 0.992,1.154 0.14,0.492 -0.082,0.076 -0.058,0.027 -0.599,0.117 -0.799,-0.261 -1.645,-0.799 -0.243,0.911 -2.114,0.103 0.014,0.379 -2.971,0.144 -0.04,-1.378 0.172,-0.808 -0.081,-3.403 1.878,-0.03"
     id="Jefferson"
     inkscape:connector-curvature="0" />
  <path
     style="font-size:12px;fill:#d0d0d0;fill-rule:nonzero;stroke:#000000;stroke-width:1;stroke-linecap:butt;stroke-linejoin:bevel;stroke-miterlimit:4;stroke-opacity:1;stroke-dasharray:none;marker-start:none"
     d="m 27.002599,28.249222 0.081,3.403 -0.172,0.808 0.04,1.378 -1.09,0.078 -0.991,-0.816 -0.735,-0.217 -1.948,0 -0.017,-3.43 0.527,-0.058 0.658,-0.509 1.577,-0.591 1.668,-0.036 0.402,-0.01"
     id="Grant"
     inkscape:connector-curvature="0" />
  <path
     style="font-size:12px;fill:#d0d0d0;fill-rule:nonzero;stroke:#000000;stroke-width:1;stroke-linecap:butt;stroke-linejoin:bevel;stroke-miterlimit:4;stroke-opacity:1;stroke-dasharray:none;marker-start:none"
     d="m 20.813599,28.340222 1.357,1.113 0.017,3.43 -2.209,-0.004 -1.081,-0.005 -0.428,-0.645 -3.524,-0.811 -0.568,-0.752 -0.009,-0.744 4.858,-0.045 -0.022,-0.775 0.324,-0.752 1.285,-0.01"
     id="Hot Spring"
     inkscape:connector-curvature="0" />
  <path
     style="font-size:12px;fill:#d0d0d0;fill-rule:nonzero;stroke:#000000;stroke-width:1;stroke-linecap:butt;stroke-linejoin:bevel;stroke-miterlimit:4;stroke-opacity:1;stroke-dasharray:none;marker-start:none"
     d="m 19.978599,32.879222 2.209,0.004 1.948,0 0.735,0.217 0.991,0.816 -1.433,0.144 -0.004,1.041 0.193,0.036 0.383,0.346 0.248,0.357 0.721,1.271 0.044,0.235 -2.654,0.004 -3.312,0.013 -0.24,-1.081 0.171,-1.164 0,-2.239"
     id="Dallas"
     inkscape:connector-curvature="0" />
  <path
     style="font-size:12px;fill:#d0d0d0;fill-rule:nonzero;stroke:#000000;stroke-width:1;stroke-linecap:butt;stroke-linejoin:bevel;stroke-miterlimit:4;stroke-opacity:1;stroke-dasharray:none;marker-start:none"
     d="m 26.951599,33.838222 2.971,-0.144 -0.086,3.538 0.05,1.132 -3.791,0.108 -0.082,-1.126 -0.044,-0.235 -0.721,-1.271 -0.248,-0.357 -0.383,-0.346 -0.193,-0.036 0.004,-1.041 1.433,-0.144 1.09,-0.078"
     id="Cleveland"
     inkscape:connector-curvature="0" />
  <path
     style="font-size:12px;fill:#d0d0d0;fill-rule:nonzero;stroke:#000000;stroke-width:1;stroke-linecap:butt;stroke-linejoin:bevel;stroke-miterlimit:4;stroke-opacity:1;stroke-dasharray:none;marker-start:none"
     d="m 35.308599,33.244222 0.292,0.838 0.004,0.206 -0.445,0.316 -0.884,0.028 0.005,1.933 0.018,0.578 -4.462,0.089 0.086,-3.538 -0.014,-0.379 2.114,-0.103 0.243,-0.911 1.645,0.799 0.799,0.261 0.599,-0.117"
     id="Lincoln"
     inkscape:connector-curvature="0" />
  <path
     style="font-size:12px;fill:#d0d0d0;fill-rule:nonzero;stroke:#000000;stroke-width:1;stroke-linecap:butt;stroke-linejoin:bevel;stroke-miterlimit:4;stroke-opacity:1;stroke-dasharray:none;marker-start:none"
     d="m 32.315599,28.155222 0.847,0 0.31,-0.027 -0.039,-1.127 2.289,-0.054 0.911,-0.022 0.346,0.441 0.749,1.073 0.96,1.038 0.166,0.116 0.334,0.127 0.076,-0.006 -0.508,2.849 -0.524,0.356 -0.166,0.158 -0.087,0.14 -0.012,0.293 0.031,0.193 0.222,0.222 0.491,0.757 -0.19,0.253 -1.298,-0.384 -0.635,-0.388 -0.988,-0.081 -0.292,-0.838 0.058,-0.027 0.082,-0.076 -0.14,-0.492 -0.992,-1.154 -0.107,-0.077 -0.555,-0.026 -1.263,-0.01 -0.076,-3.227"
     id="Arkansas"
     inkscape:connector-curvature="0" />
  <path
     style="font-size:12px;fill:#d0d0d0;fill-rule:nonzero;stroke:#000000;stroke-width:1;stroke-linecap:butt;stroke-linejoin:bevel;stroke-miterlimit:4;stroke-opacity:1;stroke-dasharray:none;marker-start:none"
     d="m 40.734599,32.464222 0.478,0.383 0.113,0.28 -0.063,0.433 -2.083,1.049 -0.856,3.687 -0.059,0.293 0.014,0.026 0.064,0.114 0.319,0.239 0.302,0.244 0,0.013 -0.028,0.139 -0.189,0.162 -0.788,0.317 -0.167,0.581 -0.789,0.021 -0.292,-0.179 -0.059,-0.388 -1.109,0.055 -1.244,-2.79 -0.018,-0.578 -0.005,-1.933 0.884,-0.028 0.445,-0.316 -0.004,-0.206 0.988,0.081 0.635,0.388 1.298,0.384 0.19,-0.253 -0.491,-0.757 -0.222,-0.222 -0.031,-0.193 0.012,-0.293 0.087,-0.14 0.166,-0.158 0.524,-0.356 1.978,-0.099"
     id="Desha"
     inkscape:connector-curvature="0" />
  <path
     style="font-size:12px;fill:#d0d0d0;fill-rule:nonzero;stroke:#000000;stroke-width:1;stroke-linecap:butt;stroke-linejoin:bevel;stroke-miterlimit:4;stroke-opacity:1;stroke-dasharray:none;marker-start:none"
     d="m 29.836599,37.232222 4.462,-0.089 1.244,2.79 0.068,2.262 -5.711,0.134 -0.118,-0.166 -0.175,-0.518 -0.01,-0.063 0.033,-0.915 0.008,-0.023 0.338,-0.018 -0.089,-2.262 -0.05,-1.132"
     id="Drew"
     inkscape:connector-curvature="0" />
  <path
     style="font-size:12px;fill:#d0d0d0;fill-rule:nonzero;stroke:#000000;stroke-width:1;stroke-linecap:butt;stroke-linejoin:bevel;stroke-miterlimit:4;stroke-opacity:1;stroke-dasharray:none;marker-start:none"
     d="m 26.095599,38.472222 3.791,-0.108 0.089,2.262 -0.338,0.018 -0.008,0.023 -0.033,0.915 0.01,0.063 0.175,0.518 0.118,0.166 0.333,0.244 -0.144,0.996 -0.31,0.262 -0.213,0.059 -0.472,0.382 -0.398,0.519 -0.252,0.648 -0.947,-0.72 -1.405,-0.726 -0.028,-0.139 0.028,-0.082 -0.302,-0.193 -0.064,-0.402 0.046,-0.402 0.09,-0.053 0.045,0.017 0.18,-0.455 0.243,-0.724 0.081,-0.402 -0.197,-1.807 -0.118,-0.879"
     id="Bradley"
     inkscape:connector-curvature="0" />
  <path
     style="font-size:12px;fill:#d0d0d0;fill-rule:nonzero;stroke:#000000;stroke-width:1;stroke-linecap:butt;stroke-linejoin:bevel;stroke-miterlimit:4;stroke-opacity:1;stroke-dasharray:none;marker-start:none"
     d="m 23.359599,37.350222 2.654,-0.004 0.082,1.126 0.118,0.879 0.197,1.807 -0.081,0.402 -0.243,0.724 -0.18,0.455 -0.045,-0.017 -0.09,0.053 -0.046,0.402 0.064,0.402 0.302,0.193 -0.316,0.275 -0.469,0.099 -0.207,-0.009 -0.325,-0.252 0.015,-0.036 -0.1,-0.401 -0.802,-0.432 -0.153,-0.041 -1.506,-0.776 -0.675,-0.771 -0.091,-0.221 -0.036,-0.459 0.468,-1.361 0.073,-0.059 0.712,-0.122 0.049,-0.039 0.347,-0.546 0.284,-1.271"
     id="Calhoun"
     inkscape:connector-curvature="0" />
  <path
     style="font-size:12px;fill:#d0d0d0;fill-rule:nonzero;stroke:#000000;stroke-width:1;stroke-linecap:butt;stroke-linejoin:bevel;stroke-miterlimit:4;stroke-opacity:1;stroke-dasharray:none;marker-start:none"
     d="m 20.047599,37.363222 3.312,-0.013 -0.284,1.271 -0.347,0.546 -0.049,0.039 -0.712,0.122 -0.073,0.059 -0.468,1.361 0.036,0.459 0.091,0.221 0.675,0.771 1.506,0.776 -4.413,0.023 -1.505,-0.938 0,-4.201 2.231,-0.496"
     id="Ouachita"
     inkscape:connector-curvature="0" />
  <path
     style="font-size:12px;fill:#d0d0d0;fill-rule:nonzero;stroke:#000000;stroke-width:1;stroke-linecap:butt;stroke-linejoin:bevel;stroke-miterlimit:4;stroke-opacity:1;stroke-dasharray:none;marker-start:none"
     d="m 14.882599,35.614222 0.77,1.105 1.663,0.707 0.225,0.126 0.276,0.307 0,4.201 -2.664,0.188 -1.271,-0.373 0.005,-2.551 0.112,-1.974 0,-1.713 0.884,-0.023"
     id="Nevada"
     inkscape:connector-curvature="0" />
  <path
     style="font-size:12px;fill:#d0d0d0;fill-rule:nonzero;stroke:#000000;stroke-width:1;stroke-linecap:butt;stroke-linejoin:bevel;stroke-miterlimit:4;stroke-opacity:1;stroke-dasharray:none;marker-start:none"
     d="m 10.086599,35.061222 3.912,0.576 0,1.713 -0.112,1.974 -0.005,2.551 -2.57,-0.014 -1.139,-1.631 -1.4429997,-1.794 1.3429997,0.008 0.014,-3.383"
     id="Hempstead"
     inkscape:connector-curvature="0" />
  <path
     style="font-size:12px;fill:#d0d0d0;fill-rule:nonzero;stroke:#000000;stroke-width:1;stroke-linecap:butt;stroke-linejoin:bevel;stroke-miterlimit:4;stroke-opacity:1;stroke-dasharray:none;marker-start:none"
     d="m 13.634599,30.666222 0.743,0 0.568,0.752 3.524,0.811 0.428,0.645 1.081,0.005 0,2.239 -0.171,1.164 0.24,1.081 -2.231,0.496 -0.276,-0.307 -0.225,-0.126 -1.663,-0.707 -0.77,-1.105 -0.622,-1.158 -0.159,-0.437 -0.459,-2.218 -0.008,-1.135"
     id="Clark"
     inkscape:connector-curvature="0" />
  <path
     style="font-size:12px;fill:#d0d0d0;fill-rule:nonzero;stroke:#000000;stroke-width:1;stroke-linecap:butt;stroke-linejoin:bevel;stroke-miterlimit:4;stroke-opacity:1;stroke-dasharray:none;marker-start:none"
     d="m 8.7925993,30.666222 4.8419997,0 0.008,1.135 0.459,2.218 0.159,0.437 0.622,1.158 -0.884,0.023 -3.912,-0.576 -0.027,-2.268 -1.1169997,-0.01 -0.14,-0.991 -0.01,-1.126"
     id="Pike"
     inkscape:connector-curvature="0" />
  <path
     style="font-size:12px;fill:#d0d0d0;fill-rule:nonzero;stroke:#000000;stroke-width:1;stroke-linecap:butt;stroke-linejoin:bevel;stroke-miterlimit:4;stroke-opacity:1;stroke-dasharray:none;marker-start:none"
     d="m 8.7925993,30.666222 0.01,1.126 0.14,0.991 1.1169997,0.01 0.027,2.268 -0.014,3.383 -1.3429997,-0.008 -0.018,0 -1.189,-2.136 -0.045,-0.131 -0.208,-1.37 -0.077,-0.617 -0.032,-0.979 0.041,-0.392 -0.117,-0.055 -1.519,0.018 -0.148,-0.995 -0.006,-1.118 3.381,0.005"
     id="Howard"
     inkscape:connector-curvature="0" />
  <path
     style="font-size:12px;fill:#d0d0d0;fill-rule:nonzero;stroke:#000000;stroke-width:1;stroke-linecap:butt;stroke-linejoin:bevel;stroke-miterlimit:4;stroke-opacity:1;stroke-dasharray:none;marker-start:none"
     d="m 3.2175993,25.856222 0.969,0.131 0.483,0.252 3.155,0.005 0.933,0.14 0,0.189 0.035,4.093 -3.381,-0.005 0.006,1.118 0.148,0.995 -2.402,0.073 0.054,-6.991"
     id="Polk"
     inkscape:connector-curvature="0" />
  <path
     style="font-size:12px;fill:#d0d0d0;fill-rule:nonzero;stroke:#000000;stroke-width:1;stroke-linecap:butt;stroke-linejoin:bevel;stroke-miterlimit:4;stroke-opacity:1;stroke-dasharray:none;marker-start:none"
     d="m 5.5655993,32.774222 1.519,-0.018 0.117,0.055 -0.041,0.392 0.032,0.979 0.077,0.617 0.208,1.37 0.045,0.131 1.189,2.136 -0.883,-0.013 -2.804,-0.83 -1.884,-1.515 0.023,-3.231 2.402,-0.073"
     id="Sevier"
     inkscape:connector-curvature="0" />
  <path
     style="font-size:12px;fill:#d0d0d0;fill-rule:nonzero;stroke:#000000;stroke-width:1;stroke-linecap:butt;stroke-linejoin:bevel;stroke-miterlimit:4;stroke-opacity:1;stroke-dasharray:none;marker-start:none"
     d="m 3.1405993,36.078222 1.884,1.515 2.804,0.83 0.883,0.013 0.018,0 1.4429997,1.794 -2.3079997,0.797 -0.257,-0.212 -0.198,-0.081 -1.037,-0.208 -0.6,0.087 -0.157,0.019 -0.054,0.049 -1.037,0.526 -0.577,-0.315 -0.157,-0.103 -0.438,-0.28 -0.071,-0.095 -0.082,-0.188 -0.085,-0.221 0.026,-3.927"
     id="Little River"
     inkscape:connector-curvature="0" />
  <path
     style="font-size:12px;fill:#d0d0d0;fill-rule:nonzero;stroke:#000000;stroke-width:1;stroke-linecap:butt;stroke-linejoin:bevel;stroke-miterlimit:4;stroke-opacity:1;stroke-dasharray:none;marker-start:none"
     d="m 10.172599,40.230222 1.139,1.631 -0.076,0.829 0.74,1.096 0,0.068 -0.176,0.572 -0.807,1.424 -0.077,0.099 -0.076,0.072 -0.126,0.019 -0.604,1.072 0.464,0.762 -0.104,0 -2.4599997,0.054 -0.145,-6.901 2.3079997,-0.797"
     id="Miller"
     inkscape:connector-curvature="0" />
  <path
     style="font-size:12px;fill:#d0d0d0;fill-rule:nonzero;stroke:#000000;stroke-width:1;stroke-linecap:butt;stroke-linejoin:bevel;stroke-miterlimit:4;stroke-opacity:1;stroke-dasharray:none;marker-start:none"
     d="m 11.311599,41.861222 2.57,0.014 1.271,0.373 -0.117,0.149 -1.064,2.272 -0.013,3.133 -0.33,0.004 -3.055,0.068 -0.464,-0.762 0.604,-1.072 0.126,-0.019 0.076,-0.072 0.077,-0.099 0.807,-1.424 0.176,-0.572 0,-0.068 -0.74,-1.096 0.076,-0.829"
     id="Lafayette"
     inkscape:connector-curvature="0" />
  <path
     style="font-size:12px;fill:#d0d0d0;fill-rule:nonzero;stroke:#000000;stroke-width:1;stroke-linecap:butt;stroke-linejoin:bevel;stroke-miterlimit:4;stroke-opacity:1;stroke-dasharray:none;marker-start:none"
     d="m 15.152599,42.248222 2.664,-0.188 1.505,0.938 0.04,4.659 -2.69,0.073 -2.713,0.072 0.013,-3.133 1.064,-2.272 0.117,-0.149"
     id="Columbia"
     inkscape:connector-curvature="0" />
  <path
     style="font-size:12px;fill:#d0d0d0;fill-rule:nonzero;stroke:#000000;stroke-width:1;stroke-linecap:butt;stroke-linejoin:bevel;stroke-miterlimit:4;stroke-opacity:1;stroke-dasharray:none;marker-start:none"
     d="m 19.321599,42.998222 4.413,-0.023 0.153,0.041 0.802,0.432 0.1,0.401 -0.015,0.036 0.325,0.252 0.207,0.009 0.469,-0.099 0.316,-0.275 -0.028,0.082 0.028,0.139 1.405,0.726 0.947,0.72 0.82,1.975 -7.063,0.19 -2.839,0.053 -0.04,-4.659"
     id="Union"
     inkscape:connector-curvature="0" />
</svg>
