<?xml version="1.0" encoding="UTF-8" standalone="no"?>
<!-- Created with Inkscape (http://www.inkscape.org/) -->

<svg
   xmlns:dc="http://purl.org/dc/elements/1.1/"
   xmlns:cc="http://creativecommons.org/ns#"
   xmlns:rdf="http://www.w3.org/1999/02/22-rdf-syntax-ns#"
   xmlns:svg="http://www.w3.org/2000/svg"
   xmlns="http://www.w3.org/2000/svg"
   xmlns:sodipodi="http://sodipodi.sourceforge.net/DTD/sodipodi-0.dtd"
   xmlns:inkscape="http://www.inkscape.org/namespaces/inkscape"
   version="1.0"
   width="91.519997"
   height="49.27"
   sodipodi:version="0.32"
   inkscape:version="0.48.2 r9819"
   sodipodi:docname="ok.svg"
   inkscape:output_extension="org.inkscape.output.svg.inkscape"
   id="svg3070">
  <metadata
     id="metadata3072">
    <rdf:RDF>
      <cc:Work
         rdf:about="">
        <dc:format>image/svg+xml</dc:format>
        <dc:type
           rdf:resource="http://purl.org/dc/dcmitype/StillImage" />
      </cc:Work>
    </rdf:RDF>
  </metadata>
  <sodipodi:namedview
     inkscape:window-height="746"
     inkscape:window-width="1366"
     inkscape:pageshadow="2"
     inkscape:pageopacity="0.0"
     guidetolerance="10.0"
     gridtolerance="10.0"
     objecttolerance="10.0"
     borderopacity="1.0"
     bordercolor="#666666"
     pagecolor="#ffffff"
     inkscape:zoom="3.684687"
     inkscape:cx="105.75234"
     inkscape:cy="28.867608"
     inkscape:window-x="-8"
     inkscape:window-y="-8"
     inkscape:current-layer="svg3070"
     showguides="true"
     inkscape:guide-bbox="true"
     fit-margin-top="0"
     fit-margin-left="0"
     fit-margin-right="0"
     fit-margin-bottom="0"
     inkscape:window-maximized="0"
     id="namedview3074"
     showgrid="false" />
  <defs
     id="defs3076" />
  <path
     style="font-size:12px;fill:#d0d0d0;fill-rule:nonzero;stroke:#000000;stroke-width:1;stroke-linecap:butt;stroke-linejoin:bevel;stroke-miterlimit:4;stroke-opacity:1;stroke-dasharray:none;marker-start:none"
     d="m 16.386074,2.7385329 4.99,0.248 1.239,0.063 -0.104,1.938 -0.085,0.003 -0.239,4.5219998 -1.348,-0.067 -5.535,-0.316 -4.195,-0.265 0.45,-6.3919997 4.827,0.2659999"
     id="Texas"
     inkscape:connector-curvature="0" />
  <path
     style="font-size:12px;fill:#d0d0d0;fill-rule:nonzero;stroke:#000000;stroke-width:1;stroke-linecap:butt;stroke-linejoin:bevel;stroke-miterlimit:4;stroke-opacity:1;stroke-dasharray:none;marker-start:none"
     d="m 1.6250739,1.701533 1.294,0.1 5.301,0.437 3.1950001,0.225 0.144,0.009 -0.45,6.3919997 -1.3390001,-0.087 -8.622,-0.5989998 0.477,-6.4769999"
     id="Cimarron"
     inkscape:connector-curvature="0" />
  <path
     style="font-size:12px;fill:#d0d0d0;fill-rule:nonzero;stroke:#000000;stroke-width:1;stroke-linecap:butt;stroke-linejoin:bevel;stroke-miterlimit:4;stroke-opacity:1;stroke-dasharray:none;marker-start:none"
     d="m 87.296074,4.2615329 0.041,3.006 0.022,1.285 -3.921,0.014 -0.126,-4.273 3.984,-0.032"
     id="Ottawa"
     inkscape:connector-curvature="0" />
  <path
     style="font-size:12px;fill:#d0d0d0;fill-rule:nonzero;stroke:#000000;stroke-width:1;stroke-linecap:butt;stroke-linejoin:bevel;stroke-miterlimit:4;stroke-opacity:1;stroke-dasharray:none;marker-start:none"
     d="m 82.640074,4.2975329 0.672,-0.004 0.126,4.273 -0.04,2.0910011 -3.318,0.022 -1.072,-1.1260013 0.212,-5.2239998 3.42,-0.032"
     id="Craig"
     inkscape:connector-curvature="0" />
  <path
     style="font-size:12px;fill:#d0d0d0;fill-rule:nonzero;stroke:#000000;stroke-width:1;stroke-linecap:butt;stroke-linejoin:bevel;stroke-miterlimit:4;stroke-opacity:1;stroke-dasharray:none;marker-start:none"
     d="m 83.398074,10.657534 -0.01,4.521001 -1.108,0.013 0.014,1.131 -0.929,0.004 -2.407,0.01 -0.009,-2.26 0.028,-3.388001 1.103,-0.009 3.318,-0.022"
     id="Mayes"
     inkscape:connector-curvature="0" />
  <path
     style="font-size:12px;fill:#d0d0d0;fill-rule:nonzero;stroke:#000000;stroke-width:1;stroke-linecap:butt;stroke-linejoin:bevel;stroke-miterlimit:4;stroke-opacity:1;stroke-dasharray:none;marker-start:none"
     d="m 87.359074,8.5525329 0.031,2.1890011 0.636,4.377001 -2.424,0.037 -2.214,0.023 0.01,-4.521001 0.04,-2.0910011 3.921,-0.014"
     id="Delaware"
     inkscape:connector-curvature="0" />
  <path
     style="font-size:12px;fill:#d0d0d0;fill-rule:nonzero;stroke:#000000;stroke-width:1;stroke-linecap:butt;stroke-linejoin:bevel;stroke-miterlimit:4;stroke-opacity:1;stroke-dasharray:none;marker-start:none"
     d="m 85.602074,15.155535 2.424,-0.037 0.122,0.772 0.92,6.007 -3.484,0.051 -0.046,-3.409 0.087,-1.392 -0.023,-1.992"
     id="Adair"
     inkscape:connector-curvature="0" />
  <path
     style="font-size:12px;fill:#d0d0d0;fill-rule:nonzero;stroke:#000000;stroke-width:1;stroke-linecap:butt;stroke-linejoin:bevel;stroke-miterlimit:4;stroke-opacity:1;stroke-dasharray:none;marker-start:none"
     d="m 83.388074,15.178535 2.214,-0.023 0.023,1.992 -0.087,1.392 0.046,3.409 -3.336,0.031 -1.455,-2.249 -0.023,-0.036 -0.167,-1.19 0.041,-0.735 0.063,-0.121 0.207,-0.185 0.144,-0.007 0.041,-0.044 0.27,-0.634 -0.004,-0.452 0.929,-0.004 -0.014,-1.131 1.108,-0.013"
     id="Cherokee"
     inkscape:connector-curvature="0" />
  <path
     style="font-size:12px;fill:#d0d0d0;fill-rule:nonzero;stroke:#000000;stroke-width:1;stroke-linecap:butt;stroke-linejoin:bevel;stroke-miterlimit:4;stroke-opacity:1;stroke-dasharray:none;marker-start:none"
     d="m 89.068074,21.897535 0.472,3.115 -0.004,0.226 -0.644,0.662 -1.979,0.072 -0.478,-0.315 -0.212,-0.059 -0.202,0.022 -0.058,0.028 -0.397,0.391 -0.996,-0.96 -0.343,0.005 -0.514,-0.135 -0.154,-0.055 -0.161,-0.148 -0.321,-0.437 -0.829,-2.33 3.336,-0.031 3.484,-0.051"
     id="Sequoyah"
     inkscape:connector-curvature="0" />
  <path
     style="font-size:12px;fill:#d0d0d0;fill-rule:nonzero;stroke:#000000;stroke-width:1;stroke-linecap:butt;stroke-linejoin:bevel;stroke-miterlimit:4;stroke-opacity:1;stroke-dasharray:none;marker-start:none"
     d="m 83.077074,24.309535 0.321,0.437 0.161,0.148 0.154,0.055 0.514,0.135 0.343,-0.005 0.996,0.96 0.008,1.293 -0.784,0.285 -0.402,0.004 0.023,1.875 -4.42,0.041 -0.01,-1.325 -1.104,0.004 -0.01,-0.55 0.038,-1.208 1.112,0.028 0.753,0.134 1.001,-0.593 0.332,-0.66 0.804,-0.946 0.17,-0.112"
     id="Haskell"
     inkscape:connector-curvature="0" />
  <path
     style="font-size:12px;fill:#d0d0d0;fill-rule:nonzero;stroke:#000000;stroke-width:1;stroke-linecap:butt;stroke-linejoin:bevel;stroke-miterlimit:4;stroke-opacity:1;stroke-dasharray:none;marker-start:none"
     d="m 89.536074,25.238535 -0.063,5.8 -0.027,2.663 -0.022,2.872 -5.036,0.076 -1.311,-2.24 -0.022,-2.263 0.64,-0.942 0.734,-0.202 -0.041,-3.381 0.402,-0.004 0.784,-0.285 -0.008,-1.293 0.397,-0.391 0.058,-0.028 0.202,-0.022 0.212,0.059 0.478,0.315 1.979,-0.072 0.644,-0.662"
     id="Le Flore"
     inkscape:connector-curvature="0" />
  <path
     style="font-size:12px;fill:#d0d0d0;fill-rule:nonzero;stroke:#000000;stroke-width:1;stroke-linecap:butt;stroke-linejoin:bevel;stroke-miterlimit:4;stroke-opacity:1;stroke-dasharray:none;marker-start:none"
     d="m 84.411074,29.496535 0.018,1.506 -0.734,0.202 -0.64,0.942 0.022,2.263 -4.795,0.032 0,-1.168 0.049,-3.349 1.389,-0.013 0.271,-0.374 4.42,-0.041"
     id="Latimer"
     inkscape:connector-curvature="0" />
  <path
     style="font-size:12px;fill:#d0d0d0;fill-rule:nonzero;stroke:#000000;stroke-width:1;stroke-linecap:butt;stroke-linejoin:bevel;stroke-miterlimit:4;stroke-opacity:1;stroke-dasharray:none;marker-start:none"
     d="m 78.905074,26.458535 -0.038,1.208 0.01,0.55 1.104,-0.004 0.01,1.325 -0.271,0.374 -1.389,0.013 -0.049,3.349 0,1.168 -1.654,1.14 -2.222,0.009 0,-1.132 -2.213,0 0,-1.126 0.041,-3.665 0.292,-0.541 0.509,-0.694 0.091,-0.054 0.207,-0.031 0.379,0.018 2.078,-0.437 0.388,-0.177 2.027,-1.126 0.7,-0.167"
     id="Pittsburg"
     inkscape:connector-curvature="0" />
  <path
     style="font-size:12px;fill:#d0d0d0;fill-rule:nonzero;stroke:#000000;stroke-width:1;stroke-linecap:butt;stroke-linejoin:bevel;stroke-miterlimit:4;stroke-opacity:1;stroke-dasharray:none;marker-start:none"
     d="m 72.193074,33.332535 0,3.389 -0.563,1.137 -2.777,-0.01 -1.118,-1.131 0.032,-2.263 1.113,0 0.005,-1.13 3.308,0.008"
     id="Coal"
     inkscape:connector-curvature="0" />
  <path
     style="font-size:12px;fill:#d0d0d0;fill-rule:nonzero;stroke:#000000;stroke-width:1;stroke-linecap:butt;stroke-linejoin:bevel;stroke-miterlimit:4;stroke-opacity:1;stroke-dasharray:none;marker-start:none"
     d="m 72.193074,34.458535 2.213,0 0,1.132 2.222,-0.009 0.005,1.127 -1.132,0.089 0.005,4.454 -2.254,0 -4.412,-0.013 0.013,-3.39 2.777,0.01 0.563,-1.137 0,-2.263"
     id="Atoka"
     inkscape:connector-curvature="0" />
  <path
     style="font-size:12px;fill:#d0d0d0;fill-rule:nonzero;stroke:#000000;stroke-width:1;stroke-linecap:butt;stroke-linejoin:bevel;stroke-miterlimit:4;stroke-opacity:1;stroke-dasharray:none;marker-start:none"
     d="m 78.282074,34.441535 4.795,-0.032 1.311,2.24 -1.152,0.008 0.036,3.417 -0.659,0.005 -0.451,0.244 -0.045,0.887 -6.611,0.041 -0.005,-4.454 1.132,-0.089 -0.005,-1.127 1.654,-1.14"
     id="Pushmataha"
     inkscape:connector-curvature="0" />
  <path
     style="font-size:12px;fill:#d0d0d0;fill-rule:nonzero;stroke:#000000;stroke-width:1;stroke-linecap:butt;stroke-linejoin:bevel;stroke-miterlimit:4;stroke-opacity:1;stroke-dasharray:none;marker-start:none"
     d="m 84.388074,36.649535 5.036,-0.076 -0.032,4.119 -0.049,7.158 -2.79,-0.803 -1.325,-0.541 -1.83,-1.465 -1.249,-1.068 -0.032,-2.763 0.045,-0.887 0.451,-0.244 0.659,-0.005 -0.036,-3.417 1.152,-0.008"
     id="McCurtain"
     inkscape:connector-curvature="0" />
  <path
     style="font-size:12px;fill:#d0d0d0;fill-rule:nonzero;stroke:#000000;stroke-width:1;stroke-linecap:butt;stroke-linejoin:bevel;stroke-miterlimit:4;stroke-opacity:1;stroke-dasharray:none;marker-start:none"
     d="m 82.117074,41.210535 0.032,2.763 -0.676,-0.226 -0.076,-0.003 -0.036,0.018 -0.009,0.004 -0.006,0 -0.229,0.347 -0.005,0.018 0,0.023 -0.004,0.013 0.004,0.009 0.041,0.086 0,0.019 0.018,0.112 -0.018,0.13 -0.058,0.131 -0.06,0.058 -0.284,0.185 -0.084,0.009 -0.158,0.018 -0.311,0.041 -0.005,0 -0.722,0.036 -0.4,-0.032 -1.055,-0.14 -0.04,-0.036 -0.042,-0.072 0,-0.009 -0.003,-0.066 0.032,-0.091 0.003,-0.086 -0.113,-0.288 -0.081,-0.032 -0.346,-0.018 -0.78,0.405 -0.893,0.465 -0.004,0.004 -0.888,-0.09 -0.829,-0.653 -0.185,-0.234 -0.023,-0.073 -0.004,-2.298 -0.568,-0.406 2.254,0 6.611,-0.041"
     id="Choctaw"
     inkscape:connector-curvature="0" />
  <path
     style="font-size:12px;fill:#d0d0d0;fill-rule:nonzero;stroke:#000000;stroke-width:1;stroke-linecap:butt;stroke-linejoin:bevel;stroke-miterlimit:4;stroke-opacity:1;stroke-dasharray:none;marker-start:none"
     d="m 73.252074,41.251535 0.568,0.406 0.004,2.298 0.023,0.073 0.185,0.234 0.829,0.653 0.888,0.09 -0.915,0.343 -0.518,-0.095 -0.617,-0.122 -0.145,0.015 -0.23,0.017 -1.199,0.1 -0.541,0.125 -0.09,0.316 -0.067,0.311 -0.005,0.032 -0.009,0.036 -0.031,0.099 -0.027,0.086 -0.005,0.009 -0.013,0.017 -0.1,0.104 -0.013,0.016 -0.194,0.083 -0.221,0.059 -1.591,0.393 -0.103,-0.141 -0.464,-0.631 0,-0.004 -0.14,-0.045 -0.126,-0.014 -0.546,0.104 -0.014,0 -0.099,-0.068 -1.095,-0.735 -0.009,-0.031 -0.009,-0.062 -0.009,-0.159 0.036,-0.207 0.307,-3.174 1.893,-0.544 4.412,0.013"
     id="Bryan"
     inkscape:connector-curvature="0" />
  <path
     style="font-size:12px;fill:#d0d0d0;fill-rule:nonzero;stroke:#000000;stroke-width:1;stroke-linecap:butt;stroke-linejoin:bevel;stroke-miterlimit:4;stroke-opacity:1;stroke-dasharray:none;marker-start:none"
     d="m 63.256074,40.998535 2.762,0.028 0.559,0.138 0.406,0.479 0,0.081 -0.036,0.058 -0.307,3.174 -1.068,0.482 -0.009,0.004 -0.518,0.087 -1.006,-0.308 -0.108,-0.075 -0.175,-0.196 -0.541,-1.112 -0.356,-1.523 0.397,-1.317"
     id="Marshall"
     inkscape:connector-curvature="0" />
  <path
     style="font-size:12px;fill:#d0d0d0;fill-rule:nonzero;stroke:#000000;stroke-width:1;stroke-linecap:butt;stroke-linejoin:bevel;stroke-miterlimit:4;stroke-opacity:1;stroke-dasharray:none;marker-start:none"
     d="m 64.423074,36.685535 3.312,0.032 1.118,1.131 -0.013,3.39 -1.893,0.544 0.036,-0.058 0,-0.081 -0.406,-0.479 -0.559,-0.138 -2.762,-0.028 0.022,-2.073 0.554,0 0.028,-2.244 0.563,0.004"
     id="Johnston"
     inkscape:connector-curvature="0" />
  <path
     style="font-size:12px;fill:#d0d0d0;fill-rule:nonzero;stroke:#000000;stroke-width:1;stroke-linecap:butt;stroke-linejoin:bevel;stroke-miterlimit:4;stroke-opacity:1;stroke-dasharray:none;marker-start:none"
     d="m 68.006074,31.462535 0.879,1.862 -0.005,1.13 -1.113,0 -0.032,2.263 -3.312,-0.032 0.008,-1.131 -1.108,-0.009 0.005,-0.563 0.027,-2.826 0.036,-1.424 1.618,0.846 2.997,-0.116"
     id="Pontotoc"
     inkscape:connector-curvature="0" />
  <path
     style="font-size:12px;fill:#d0d0d0;fill-rule:nonzero;stroke:#000000;stroke-width:1;stroke-linecap:butt;stroke-linejoin:bevel;stroke-miterlimit:4;stroke-opacity:1;stroke-dasharray:none;marker-start:none"
     d="m 63.355074,32.156535 -0.027,2.826 -2.218,-0.027 -0.545,0.175 -0.027,0.032 -0.018,0.131 0.08,0.18 0.167,0.136 0.14,0.405 0.126,0.559 -0.397,0.067 -1.757,-0.027 -2.222,-0.036 -1.082,-2.28 0.045,-2.254 7.735,0.113"
     id="Garvin"
     inkscape:connector-curvature="0" />
  <path
     style="font-size:12px;fill:#d0d0d0;fill-rule:nonzero;stroke:#000000;stroke-width:1;stroke-linecap:butt;stroke-linejoin:bevel;stroke-miterlimit:4;stroke-opacity:1;stroke-dasharray:none;marker-start:none"
     d="m 58.879074,36.613535 1.757,0.027 0.397,-0.067 -0.126,-0.559 -0.14,-0.405 -0.167,-0.136 -0.08,-0.18 0.018,-0.131 0.027,-0.032 0.545,-0.175 2.218,0.027 -0.005,0.563 1.108,0.009 -0.008,1.131 -0.563,-0.004 -0.028,2.244 -0.554,0 -1.01,-0.009 -0.112,-0.067 -0.032,-0.063 0,-0.027 0.122,-0.086 -0.023,-0.284 -0.031,-0.031 -3.34,-0.05 0.027,-1.695"
     id="Murray"
     inkscape:connector-curvature="0" />
  <path
     style="font-size:12px;fill:#d0d0d0;fill-rule:nonzero;stroke:#000000;stroke-width:1;stroke-linecap:butt;stroke-linejoin:bevel;stroke-miterlimit:4;stroke-opacity:1;stroke-dasharray:none;marker-start:none"
     d="m 56.580074,42.229535 6.279,0.086 0.356,1.523 -0.104,0.058 -1.604,2.782 -0.05,0.067 -0.108,0.086 -0.153,0.049 -0.171,-0.022 -0.149,-0.05 -3.106,-1.357 -0.094,-0.063 -0.063,-0.076 0,-0.005 -0.009,-0.023 -0.028,-0.067 -0.211,-0.964 -0.821,0.221 0.036,-2.245"
     id="Love"
     inkscape:connector-curvature="0" />
  <path
     style="font-size:12px;fill:#d0d0d0;fill-rule:nonzero;stroke:#000000;stroke-width:1;stroke-linecap:butt;stroke-linejoin:bevel;stroke-miterlimit:4;stroke-opacity:1;stroke-dasharray:none;marker-start:none"
     d="m 56.657074,36.577535 2.222,0.036 -0.027,1.695 3.34,0.05 0.031,0.031 0.023,0.284 -0.122,0.086 0,0.027 0.032,0.063 0.112,0.067 1.01,0.009 -0.022,2.073 -0.397,1.317 -6.279,-0.086 0.028,-2.825 0.049,-2.827"
     id="Carter"
     inkscape:connector-curvature="0" />
  <path
     style="font-size:12px;fill:#d0d0d0;fill-rule:nonzero;stroke:#000000;stroke-width:1;stroke-linecap:butt;stroke-linejoin:bevel;stroke-miterlimit:4;stroke-opacity:1;stroke-dasharray:none;marker-start:none"
     d="m 50.500074,39.272535 6.108,0.132 -0.028,2.825 -0.036,2.245 -0.383,-0.267 -1.086,-0.725 -0.365,0.46 -0.559,0.581 -0.532,0.419 -0.333,0.099 -0.127,-0.012 -0.941,-0.429 -0.118,-0.109 0.275,-0.595 0.095,-0.689 -0.004,-0.005 -0.397,-0.157 -0.37,0.09 -0.013,0.004 -0.23,0 -0.451,-0.135 -0.018,-0.004 -0.027,-0.027 -0.185,-0.37 -0.275,-3.331"
     id="Jefferson"
     inkscape:connector-curvature="0" />
  <path
     style="font-size:12px;fill:#d0d0d0;fill-rule:nonzero;stroke:#000000;stroke-width:1;stroke-linecap:butt;stroke-linejoin:bevel;stroke-miterlimit:4;stroke-opacity:1;stroke-dasharray:none;marker-start:none"
     d="m 55.575074,34.297535 1.082,2.28 -0.049,2.827 -6.108,-0.132 0.032,-2.817 0.608,-2.244 4.435,0.086"
     id="Stephens"
     inkscape:connector-curvature="0" />
  <path
     style="font-size:12px;fill:#d0d0d0;fill-rule:nonzero;stroke:#000000;stroke-width:1;stroke-linecap:butt;stroke-linejoin:bevel;stroke-miterlimit:4;stroke-opacity:1;stroke-dasharray:none;marker-start:none"
     d="m 45.002074,37.627535 0.558,0.014 1.109,-0.157 2.222,-0.317 0.559,-0.476 0.374,-0.249 0.708,0.013 -0.032,2.817 0.275,3.331 -0.644,-1.059 -1.65,-0.518 -0.406,-0.091 -0.207,0.117 -0.428,0.541 -0.568,0.51 -0.009,0.009 -0.004,-0.004 -0.303,-0.109 -0.504,-0.811 -0.243,-0.207 -0.235,-0.155 -0.108,-0.008 0.067,-2.24 -0.554,-0.009 0.023,-0.942"
     id="Cotton"
     inkscape:connector-curvature="0" />
  <path
     style="font-size:12px;fill:#d0d0d0;fill-rule:nonzero;stroke:#000000;stroke-width:1;stroke-linecap:butt;stroke-linejoin:bevel;stroke-miterlimit:4;stroke-opacity:1;stroke-dasharray:none;marker-start:none"
     d="m 45.610074,31.818535 5.544,0.139 -0.014,2.254 -0.608,2.244 -0.708,-0.013 -0.374,0.249 -0.559,0.476 -2.222,0.317 -1.109,0.157 -0.558,-0.014 0.031,-0.981 -0.613,-0.349 -1.113,-0.031 0.032,-1.131 0.099,-3.385 2.172,0.068"
     id="Comanche"
     inkscape:connector-curvature="0" />
  <path
     style="font-size:12px;fill:#d0d0d0;fill-rule:nonzero;stroke:#000000;stroke-width:1;stroke-linecap:butt;stroke-linejoin:bevel;stroke-miterlimit:4;stroke-opacity:1;stroke-dasharray:none;marker-start:none"
     d="m 43.339074,35.135535 -0.032,1.131 1.113,0.031 0.613,0.349 -0.031,0.981 -0.023,0.942 0.554,0.009 -0.067,2.24 -0.965,0.297 -0.694,-0.026 -0.978,-0.239 -0.982,-0.587 -0.149,-0.075 -0.014,0 -0.978,-0.077 -0.428,0.008 -0.198,0.009 -0.397,-0.09 -0.216,-0.067 -0.135,-0.04 -0.005,-0.006 0,-0.004 -0.184,-1 0.009,-0.28 0.013,-0.298 0.167,-0.049 0.036,-0.071 0,-0.105 -0.158,-0.446 -0.067,-0.054 -0.145,0.019 -0.058,-0.195 -0.018,-0.251 0.198,-0.871 0.424,-0.883 0.238,-0.334 0.235,-0.049 0.446,0.031 0.05,0.054 0.076,-0.009 0.041,-0.027 0.022,-0.306 -0.08,-0.153 -0.136,-0.167 0.712,0.027 0.352,0.433 -0.005,0.143 1.844,0.055"
     id="Tillman"
     inkscape:connector-curvature="0" />
  <path
     style="font-size:12px;fill:#d0d0d0;fill-rule:nonzero;stroke:#000000;stroke-width:1;stroke-linecap:butt;stroke-linejoin:bevel;stroke-miterlimit:4;stroke-opacity:1;stroke-dasharray:none;marker-start:none"
     d="m 39.007074,32.038535 0.595,-0.446 0.099,-0.014 0.041,0.014 0.221,0.149 0.049,0.082 0.906,1.847 -0.482,0.807 0.136,0.167 0.08,0.153 -0.022,0.306 -0.041,0.027 -0.076,0.009 -0.05,-0.054 -0.446,-0.031 -0.235,0.049 -0.238,0.334 -0.424,0.883 -0.198,0.871 0.018,0.251 0.058,0.195 0.145,-0.019 0.067,0.054 0.158,0.446 0,0.105 -0.036,0.071 -0.167,0.049 0,-0.013 -0.5,-0.87 -0.528,-0.284 -0.464,-0.252 -0.455,0.815 -0.004,0.01 -0.014,0.023 -0.009,0 -0.081,0.035 -0.356,-0.031 -0.347,-0.329 -0.262,-0.153 -0.162,-0.068 -0.505,-0.059 -0.117,-0.017 -0.058,0.022 -0.411,0.519 -0.41,0.004 -0.09,0 -0.325,-0.077 -0.739,-0.703 -0.266,-0.315 -0.55,-0.713 1.92,0.077 0.104,-2.821 1.465,0.049 1.001,-0.036 -0.05,-0.117 -0.014,-0.284 0.036,-0.099 0.352,-0.559 1.636,0.063 0.045,-0.122"
     id="Jackson"
     inkscape:connector-curvature="0" />
  <path
     style="font-size:12px;fill:#d0d0d0;fill-rule:nonzero;stroke:#000000;stroke-width:1;stroke-linecap:butt;stroke-linejoin:bevel;stroke-miterlimit:4;stroke-opacity:1;stroke-dasharray:none;marker-start:none"
     d="m 37.429074,28.189535 0.519,-0.008 5.35,0.176 1.848,0.03 0.536,0.284 -0.072,3.147 -2.172,-0.068 -0.099,3.385 -1.844,-0.055 0.005,-0.143 -0.352,-0.433 -0.712,-0.027 0.482,-0.807 -0.906,-1.847 -0.049,-0.082 -0.221,-0.149 -0.041,-0.014 -0.099,0.014 -0.595,0.446 -0.644,-0.554 -0.077,-0.108 -0.135,-1.524 0.099,-0.351 0.045,-0.293 -0.446,-0.658 -0.42,-0.361"
     id="Kiowa"
     inkscape:connector-curvature="0" />
  <path
     style="font-size:12px;fill:#d0d0d0;fill-rule:nonzero;stroke:#000000;stroke-width:1;stroke-linecap:butt;stroke-linejoin:bevel;stroke-miterlimit:4;stroke-opacity:1;stroke-dasharray:none;marker-start:none"
     d="m 32.364074,29.086535 1.108,0.05 0.045,-1.127 3.467,0.136 0.445,0.044 0.42,0.361 0.446,0.658 -0.045,0.293 -0.099,0.351 0.135,1.524 0.077,0.108 0.644,0.554 -0.045,0.122 -1.636,-0.063 -0.352,0.559 -0.036,0.099 0.014,0.284 0.05,0.117 -1.001,0.036 -1.465,-0.049 -0.564,-2.871 -1.653,-0.064 0.045,-1.122"
     id="Greer"
     inkscape:connector-curvature="0" />
  <path
     style="font-size:12px;fill:#d0d0d0;fill-rule:nonzero;stroke:#000000;stroke-width:1;stroke-linecap:butt;stroke-linejoin:bevel;stroke-miterlimit:4;stroke-opacity:1;stroke-dasharray:none;marker-start:none"
     d="m 31.192074,29.037535 1.172,0.049 -0.045,1.122 1.653,0.064 0.564,2.871 -0.104,2.821 -1.92,-0.077 -1.545,-0.77 0.072,-2.398 0.153,-3.682"
     id="Harmon"
     inkscape:connector-curvature="0" />
  <path
     style="font-size:12px;fill:#d0d0d0;fill-rule:nonzero;stroke:#000000;stroke-width:1;stroke-linecap:butt;stroke-linejoin:bevel;stroke-miterlimit:4;stroke-opacity:1;stroke-dasharray:none;marker-start:none"
     d="m 75.591074,19.193535 1.204,-0.009 1.798,0.676 1.605,-0.13 0.595,0 1.455,2.249 0.829,2.33 -0.17,0.112 -0.804,0.946 -0.332,0.66 -1.001,0.593 -0.753,-0.134 -0.026,-3.362 -3.836,0.022 -0.005,-2.258 -0.554,0.005 -0.005,-1.7"
     id="Muskogee"
     inkscape:connector-curvature="0" />
  <path
     style="font-size:12px;fill:#d0d0d0;fill-rule:nonzero;stroke:#000000;stroke-width:1;stroke-linecap:butt;stroke-linejoin:bevel;stroke-miterlimit:4;stroke-opacity:1;stroke-dasharray:none;marker-start:none"
     d="m 76.155074,23.146535 3.836,-0.022 0.026,3.362 -1.112,-0.028 -0.7,0.167 -2.027,1.126 -0.388,0.177 -2.078,0.437 -0.379,-0.018 0.028,-1.793 0,-1.132 1.103,0.005 0,-0.361 0.153,-0.77 0.397,-1.145 1.141,-0.005"
     id="McIntosh"
     inkscape:connector-curvature="0" />
  <path
     style="font-size:12px;fill:#d0d0d0;fill-rule:nonzero;stroke:#000000;stroke-width:1;stroke-linecap:butt;stroke-linejoin:bevel;stroke-miterlimit:4;stroke-opacity:1;stroke-dasharray:none;marker-start:none"
     d="m 68.547074,26.539535 4.814,0.015 -0.028,1.793 -0.207,0.031 -0.091,0.054 -0.509,0.694 -0.292,0.541 -0.041,3.665 -3.308,-0.008 -0.879,-1.862 0.018,-2.665 0.514,0.006 0.009,-2.264"
     id="Hughes"
     inkscape:connector-curvature="0" />
  <path
     style="font-size:12px;fill:#d0d0d0;fill-rule:nonzero;stroke:#000000;stroke-width:1;stroke-linecap:butt;stroke-linejoin:bevel;stroke-miterlimit:4;stroke-opacity:1;stroke-dasharray:none;marker-start:none"
     d="m 66.649074,25.089535 0.068,0.067 0.063,0.018 0.78,0.05 0.018,-0.014 0.014,-0.067 -0.037,-0.162 0.086,-0.443 0.613,-0.224 0.306,-0.081 -0.013,2.306 -0.009,2.264 -0.514,-0.006 -0.018,2.665 -2.997,0.116 0.044,-6.633 0.546,-0.176 1.05,0.32"
     id="Seminole"
     inkscape:connector-curvature="0" />
  <path
     style="font-size:12px;fill:#d0d0d0;fill-rule:nonzero;stroke:#000000;stroke-width:1;stroke-linecap:butt;stroke-linejoin:bevel;stroke-miterlimit:4;stroke-opacity:1;stroke-dasharray:none;marker-start:none"
     d="m 61.254074,24.217535 5.391,0.069 0.004,0.803 -1.05,-0.32 -0.546,0.176 -0.044,6.633 -1.618,-0.846 -2.232,0.395 0.077,-5.772 0.018,-1.138"
     id="Pottawatomie"
     inkscape:connector-curvature="0" />
  <path
     style="font-size:12px;fill:#d0d0d0;fill-rule:nonzero;stroke:#000000;stroke-width:1;stroke-linecap:butt;stroke-linejoin:bevel;stroke-miterlimit:4;stroke-opacity:1;stroke-dasharray:none;marker-start:none"
     d="m 55.706074,25.265535 5.53,0.09 -0.077,5.772 -0.572,0.036 -1.325,-0.355 -0.135,-0.081 -0.054,-0.05 -0.068,-0.207 -0.085,-0.73 -0.159,-0.631 -0.495,-0.835 -2.114,-2.113 -0.459,-0.374 0.013,-0.522"
     id="Cleveland"
     inkscape:connector-curvature="0" />
  <path
     style="font-size:12px;fill:#d0d0d0;fill-rule:nonzero;stroke:#000000;stroke-width:1;stroke-linecap:butt;stroke-linejoin:bevel;stroke-miterlimit:4;stroke-opacity:1;stroke-dasharray:none;marker-start:none"
     d="m 55.693074,25.787535 0.459,0.374 2.114,2.113 0.495,0.835 0.159,0.631 0.085,0.73 0.068,0.207 0.054,0.05 0.135,0.081 1.325,0.355 0.572,-0.036 2.232,-0.395 -0.036,1.424 -7.735,-0.113 0.073,-6.242 0,-0.014"
     id="McClain"
     inkscape:connector-curvature="0" />
  <path
     style="font-size:12px;fill:#d0d0d0;fill-rule:nonzero;stroke:#000000;stroke-width:1;stroke-linecap:butt;stroke-linejoin:bevel;stroke-miterlimit:4;stroke-opacity:1;stroke-dasharray:none;marker-start:none"
     d="m 51.266074,25.170535 1.411,0.423 1.227,0.203 1.117,0.145 0.306,-0.005 0.366,-0.135 -0.073,6.242 -0.045,2.254 -4.435,-0.086 0.014,-2.254 0.112,-6.787"
     id="Grady"
     inkscape:connector-curvature="0" />
  <path
     style="font-size:12px;fill:#d0d0d0;fill-rule:nonzero;stroke:#000000;stroke-width:1;stroke-linecap:butt;stroke-linejoin:bevel;stroke-miterlimit:4;stroke-opacity:1;stroke-dasharray:none;marker-start:none"
     d="m 49.053074,22.862535 0.055,0 0.009,0.139 -0.045,2.128 2.194,0.041 -0.112,6.787 -5.544,-0.139 0.072,-3.147 0.037,-0.053 0.036,-1.331 -0.018,-1.334 0.054,-2.046 0.035,-1.13 3.227,0.085"
     id="Caddo"
     inkscape:connector-curvature="0" />
  <path
     style="font-size:12px;fill:#d0d0d0;fill-rule:nonzero;stroke:#000000;stroke-width:1;stroke-linecap:butt;stroke-linejoin:bevel;stroke-miterlimit:4;stroke-opacity:1;stroke-dasharray:none;marker-start:none"
     d="m 50.212074,20.635535 5.544,0.105 -0.05,4.525 -0.013,0.522 0,0.014 -0.366,0.135 -0.306,0.005 -1.117,-0.145 -1.227,-0.203 -1.411,-0.423 -2.194,-0.041 0.045,-2.128 -0.009,-0.139 -0.055,0 1.159,-2.227"
     id="Canadian"
     inkscape:connector-curvature="0" />
  <path
     style="font-size:12px;fill:#d0d0d0;fill-rule:nonzero;stroke:#000000;stroke-width:1;stroke-linecap:butt;stroke-linejoin:bevel;stroke-miterlimit:4;stroke-opacity:1;stroke-dasharray:none;marker-start:none"
     d="m 55.756074,20.740535 5.544,0.097 -0.046,3.38 -0.018,1.138 -5.53,-0.09 0.05,-4.525"
     id="Oklahoma"
     inkscape:connector-curvature="0" />
  <path
     style="font-size:12px;fill:#d0d0d0;fill-rule:nonzero;stroke:#000000;stroke-width:1;stroke-linecap:butt;stroke-linejoin:bevel;stroke-miterlimit:4;stroke-opacity:1;stroke-dasharray:none;marker-start:none"
     d="m 66.721074,18.072535 -0.018,3.925 -0.058,2.289 -5.391,-0.069 0.046,-3.38 0.035,-2.82 5.386,0.055"
     id="Lincoln"
     inkscape:connector-curvature="0" />
  <path
     style="font-size:12px;fill:#d0d0d0;fill-rule:nonzero;stroke:#000000;stroke-width:1;stroke-linecap:butt;stroke-linejoin:bevel;stroke-miterlimit:4;stroke-opacity:1;stroke-dasharray:none;marker-start:none"
     d="m 71.161074,22.015535 -0.005,1.136 1.091,-0.005 0.004,2.276 1.11,0 0,1.132 -4.814,-0.015 0.013,-2.306 -0.306,0.081 -0.613,0.224 -0.086,0.443 0.037,0.162 -0.014,0.067 -0.018,0.014 -0.78,-0.05 -0.063,-0.018 -0.068,-0.067 -0.004,-0.803 0.058,-2.289 4.458,0.018"
     id="Okfuskee"
     inkscape:connector-curvature="0" />
  <path
     style="font-size:12px;fill:#d0d0d0;fill-rule:nonzero;stroke:#000000;stroke-width:1;stroke-linecap:butt;stroke-linejoin:bevel;stroke-miterlimit:4;stroke-opacity:1;stroke-dasharray:none;marker-start:none"
     d="m 75.591074,19.193535 0.005,1.7 0.554,-0.005 0.005,2.258 -1.141,0.005 -0.397,1.145 -0.153,0.77 0,0.361 -1.103,-0.005 -1.11,0 -0.004,-2.276 -1.091,0.005 0.005,-1.136 0.004,-2.826 1.655,0.004 2.213,0.009 0.558,-0.009"
     id="Okmulgee"
     inkscape:connector-curvature="0" />
  <path
     style="font-size:12px;fill:#d0d0d0;fill-rule:nonzero;stroke:#000000;stroke-width:1;stroke-linecap:butt;stroke-linejoin:bevel;stroke-miterlimit:4;stroke-opacity:1;stroke-dasharray:none;marker-start:none"
     d="m 78.958074,16.336535 2.407,-0.01 0.004,0.452 -0.27,0.634 -0.041,0.044 -0.144,0.007 -0.207,0.185 -0.063,0.121 -0.041,0.735 0.167,1.19 0.023,0.036 -0.595,0 -1.605,0.13 -1.798,-0.676 -1.204,0.009 -0.558,0.009 0.599,-3.984 1.479,-0.009 0.495,0.636 0.113,0.202 -0.045,0.177 -0.162,0.021 0.026,0.059 0.064,0.041 1.356,-0.009"
     id="Wagoner"
     inkscape:connector-curvature="0" />
  <path
     style="font-size:12px;fill:#d0d0d0;fill-rule:nonzero;stroke:#000000;stroke-width:1;stroke-linecap:butt;stroke-linejoin:bevel;stroke-miterlimit:4;stroke-opacity:1;stroke-dasharray:none;marker-start:none"
     d="m 75.123074,9.5665327 3.885,-0.013 1.072,1.1260013 -1.103,0.009 -0.028,3.388001 0.009,2.26 -1.356,0.009 -0.064,-0.041 -0.026,-0.059 0.162,-0.021 0.045,-0.177 -0.113,-0.202 -0.495,-0.636 -1.479,0.009 -0.532,-3.389 0.023,-2.2630023"
     id="Rogers"
     inkscape:connector-curvature="0" />
  <path
     style="font-size:12px;fill:#d0d0d0;fill-rule:nonzero;stroke:#000000;stroke-width:1;stroke-linecap:butt;stroke-linejoin:bevel;stroke-miterlimit:4;stroke-opacity:1;stroke-dasharray:none;marker-start:none"
     d="m 78.047074,4.3335329 1.173,-0.004 -0.212,5.2239998 -3.885,0.013 0.22,-5.2189998 2.704,-0.014"
     id="Nowata"
     inkscape:connector-curvature="0" />
  <path
     style="font-size:12px;fill:#d0d0d0;fill-rule:nonzero;stroke:#000000;stroke-width:1;stroke-linecap:butt;stroke-linejoin:bevel;stroke-miterlimit:4;stroke-opacity:1;stroke-dasharray:none;marker-start:none"
     d="m 73.531074,4.3525329 1.812,-0.005 -0.22,5.2189998 -0.023,2.2630023 -1.947,0 0.005,-7.4770021 0.373,0"
     id="Washington"
     inkscape:connector-curvature="0" />
  <path
     style="font-size:12px;fill:#d0d0d0;fill-rule:nonzero;stroke:#000000;stroke-width:1;stroke-linecap:butt;stroke-linejoin:bevel;stroke-miterlimit:4;stroke-opacity:1;stroke-dasharray:none;marker-start:none"
     d="m 73.153074,11.829535 1.947,0 0.532,3.389 -0.599,3.984 -2.213,-0.009 0.041,-0.577 -0.006,-2.262 -2.771,-0.014 0,-1.122 0.306,0.005 2.763,0.021 0,-3.415"
     id="Tulsa"
     inkscape:connector-curvature="0" />
  <path
     style="font-size:12px;fill:#d0d0d0;fill-rule:nonzero;stroke:#000000;stroke-width:1;stroke-linecap:butt;stroke-linejoin:bevel;stroke-miterlimit:4;stroke-opacity:1;stroke-dasharray:none;marker-start:none"
     d="m 66.740074,15.232535 3.344,-0.014 0,1.122 2.771,0.014 0.006,2.262 -0.041,0.577 -1.655,-0.004 -0.004,2.826 -4.458,-0.018 0.018,-3.925 0.019,-2.84"
     id="Creek"
     inkscape:connector-curvature="0" />
  <path
     style="font-size:12px;fill:#d0d0d0;fill-rule:nonzero;stroke:#000000;stroke-width:1;stroke-linecap:butt;stroke-linejoin:bevel;stroke-miterlimit:4;stroke-opacity:1;stroke-dasharray:none;marker-start:none"
     d="m 63.607074,14.082535 1.1,0.009 -0.014,1.141 2.047,0 -0.019,2.84 -5.386,-0.055 -2.204,-0.59 0.032,-2.264 2.204,0.028 0.014,-1.131 2.226,0.022"
     id="Payne"
     inkscape:connector-curvature="0" />
  <path
     style="font-size:12px;fill:#d0d0d0;fill-rule:nonzero;stroke:#000000;stroke-width:1;stroke-linecap:butt;stroke-linejoin:bevel;stroke-miterlimit:4;stroke-opacity:1;stroke-dasharray:none;marker-start:none"
     d="m 55.837074,15.037535 2.222,0.041 1.104,0.085 -0.032,2.264 2.204,0.59 -0.035,2.82 -5.544,-0.097 0.081,-5.703"
     id="Logan"
     inkscape:connector-curvature="0" />
  <path
     style="font-size:12px;fill:#d0d0d0;fill-rule:nonzero;stroke:#000000;stroke-width:1;stroke-linecap:butt;stroke-linejoin:bevel;stroke-miterlimit:4;stroke-opacity:1;stroke-dasharray:none;marker-start:none"
     d="m 50.311074,14.925535 1.1,0.023 4.426,0.089 -0.081,5.703 -5.544,-0.105 0.054,-2.253 0.014,-1.88 0.031,-1.577"
     id="Kingfisher"
     inkscape:connector-curvature="0" />
  <path
     style="font-size:12px;fill:#d0d0d0;fill-rule:nonzero;stroke:#000000;stroke-width:1;stroke-linecap:butt;stroke-linejoin:bevel;stroke-miterlimit:4;stroke-opacity:1;stroke-dasharray:none;marker-start:none"
     d="m 45.903074,14.813535 4.408,0.112 -0.031,1.577 -0.014,1.88 -0.054,2.253 -1.159,2.227 -3.227,-0.085 0,-3.385 0.077,-4.579"
     id="Blaine"
     inkscape:connector-curvature="0" />
  <path
     style="font-size:12px;fill:#d0d0d0;fill-rule:nonzero;stroke:#000000;stroke-width:1;stroke-linecap:butt;stroke-linejoin:bevel;stroke-miterlimit:4;stroke-opacity:1;stroke-dasharray:none;marker-start:none"
     d="m 45.791074,23.907535 -0.054,2.046 0.018,1.334 -0.036,1.331 -0.037,0.053 -0.536,-0.284 -1.848,-0.03 -5.35,-0.176 0.117,-4.53 7.726,0.256"
     id="Washita"
     inkscape:connector-curvature="0" />
  <path
     style="font-size:12px;fill:#d0d0d0;fill-rule:nonzero;stroke:#000000;stroke-width:1;stroke-linecap:butt;stroke-linejoin:bevel;stroke-miterlimit:4;stroke-opacity:1;stroke-dasharray:none;marker-start:none"
     d="m 38.083074,23.087535 -0.018,0.564 -0.117,4.53 -0.519,0.008 -0.445,-0.044 -3.467,-0.136 -0.045,1.127 -1.108,-0.05 -1.172,-0.049 0.086,-1.974 0.13,-3.111 4.431,0.186 0.04,-1.132 2.204,0.081"
     id="Beckham"
     inkscape:connector-curvature="0" />
  <path
     style="font-size:12px;fill:#d0d0d0;fill-rule:nonzero;stroke:#000000;stroke-width:1;stroke-linecap:butt;stroke-linejoin:bevel;stroke-miterlimit:4;stroke-opacity:1;stroke-dasharray:none;marker-start:none"
     d="m 38.101074,19.147535 7.725,0.245 0,3.385 -0.035,1.13 -7.726,-0.256 0.018,-0.564 0.018,-3.94"
     id="Custer"
     inkscape:connector-curvature="0" />
  <path
     style="font-size:12px;fill:#d0d0d0;fill-rule:nonzero;stroke:#000000;stroke-width:1;stroke-linecap:butt;stroke-linejoin:bevel;stroke-miterlimit:4;stroke-opacity:1;stroke-dasharray:none;marker-start:none"
     d="m 42.604074,14.759535 3.299,0.054 -0.077,4.579 -7.725,-0.245 0.041,-2.609 0.058,-1.965 4.404,0.186"
     id="Dewey"
     inkscape:connector-curvature="0" />
  <path
     style="font-size:12px;fill:#d0d0d0;fill-rule:nonzero;stroke:#000000;stroke-width:1;stroke-linecap:butt;stroke-linejoin:bevel;stroke-miterlimit:4;stroke-opacity:1;stroke-dasharray:none;marker-start:none"
     d="m 38.142074,16.538535 -0.041,2.609 -0.018,3.94 -2.204,-0.081 -0.04,1.132 -4.431,-0.186 0.109,-2.55 0.139,-3.399 0.982,-0.572 1.101,0.27 0.247,0.307 0.09,0.072 0.51,0.32 0.324,0.117 0.518,0.131 0.158,0.018 0.609,-0.253 0.036,-0.031 0.496,-0.784 0.175,-0.591 0.027,-0.054 0.1,-0.089 0.256,-0.185 0.176,-0.087 0.253,-0.054 0.428,0"
     id="Roger Mills"
     inkscape:connector-curvature="0" />
  <path
     style="font-size:12px;fill:#d0d0d0;fill-rule:nonzero;stroke:#000000;stroke-width:1;stroke-linecap:butt;stroke-linejoin:bevel;stroke-miterlimit:4;stroke-opacity:1;stroke-dasharray:none;marker-start:none"
     d="m 36.105074,8.9275327 -0.167,4.4930023 0.054,1.077 2.208,0.076 -0.058,1.965 -0.428,0 -0.253,0.054 -0.176,0.087 -0.256,0.185 -0.1,0.089 -0.027,0.054 -0.175,0.591 -0.496,0.784 -0.036,0.031 -0.609,0.253 -0.158,-0.018 -0.518,-0.131 -0.324,-0.117 -0.51,-0.32 -0.09,-0.072 -0.247,-0.307 -1.101,-0.27 -0.982,0.572 0.095,-2.266 0.212,-5.7650013 0.058,-1.213001 4.084,0.168"
     id="Ellis"
     inkscape:connector-curvature="0" />
  <path
     style="font-size:12px;fill:#d0d0d0;fill-rule:nonzero;stroke:#000000;stroke-width:1;stroke-linecap:butt;stroke-linejoin:bevel;stroke-miterlimit:4;stroke-opacity:1;stroke-dasharray:none;marker-start:none"
     d="m 36.105074,8.9275327 3.186,0.085 0.104,-2.9119998 0.009,0.185 0.234,0.207 0.171,0.063 0.902,-0.036 0.135,0.045 0.149,0.087 1.726,2.4229998 -0.022,1.2000013 -0.095,4.485001 -4.404,-0.186 -2.208,-0.076 -0.054,-1.077 0.167,-4.4930023"
     id="Woodward"
     inkscape:connector-curvature="0" />
  <path
     style="font-size:12px;fill:#d0d0d0;fill-rule:nonzero;stroke:#000000;stroke-width:1;stroke-linecap:butt;stroke-linejoin:bevel;stroke-miterlimit:4;stroke-opacity:1;stroke-dasharray:none;marker-start:none"
     d="m 51.492074,11.075534 -0.081,3.873001 -1.1,-0.023 -4.408,-0.112 -3.299,-0.054 0.095,-4.485001 1.199,0.045 0.234,0.464 0.117,0.135 0.153,0.104 0.947,0.509 0.563,0.262001 0.189,0.064 0.235,0.03 0.717,-0.067 0.022,-0.857001 4.417,0.112"
     id="Major"
     inkscape:connector-curvature="0" />
  <path
     style="font-size:12px;fill:#d0d0d0;fill-rule:nonzero;stroke:#000000;stroke-width:1;stroke-linecap:butt;stroke-linejoin:bevel;stroke-miterlimit:4;stroke-opacity:1;stroke-dasharray:none;marker-start:none"
     d="m 58.131074,9.5085327 0.005,0 -0.077,5.5700023 -2.222,-0.041 -4.426,-0.089 0.081,-3.873001 0.04,-1.6940013 6.599,0.127"
     id="Garfield"
     inkscape:connector-curvature="0" />
  <path
     style="font-size:12px;fill:#d0d0d0;fill-rule:nonzero;stroke:#000000;stroke-width:1;stroke-linecap:butt;stroke-linejoin:bevel;stroke-miterlimit:4;stroke-opacity:1;stroke-dasharray:none;marker-start:none"
     d="m 62.291074,9.5575327 0.478,1.1360013 -0.23,-0.005 -0.023,2.254001 1.104,0.013 -0.013,1.127 -2.226,-0.022 -0.014,1.131 -2.204,-0.028 -1.104,-0.085 0.077,-5.5700023 4.155,0.049"
     id="Noble"
     inkscape:connector-curvature="0" />
  <path
     style="font-size:12px;fill:#d0d0d0;fill-rule:nonzero;stroke:#000000;stroke-width:1;stroke-linecap:butt;stroke-linejoin:bevel;stroke-miterlimit:4;stroke-opacity:1;stroke-dasharray:none;marker-start:none"
     d="m 63.607074,14.082535 0.013,-1.127 -1.104,-0.013 0.023,-2.254001 0.23,0.005 0.045,0.27 0.239,0.262 0.139,0.076 0.298,0.067 2.569,0.429001 3.628,2.556 0.703,0.87 -0.306,-0.005 -3.344,0.014 -2.047,0 0.014,-1.141 -1.1,-0.009"
     id="Pawnee"
     inkscape:connector-curvature="0" />
  <path
     style="font-size:12px;fill:#d0d0d0;fill-rule:nonzero;stroke:#000000;stroke-width:1;stroke-linecap:butt;stroke-linejoin:bevel;stroke-miterlimit:4;stroke-opacity:1;stroke-dasharray:none;marker-start:none"
     d="m 65.495074,4.3205329 2.294,0.013 5.369,0.019 -0.005,7.4770021 0,3.415 -2.763,-0.021 -0.703,-0.87 -3.628,-2.556 -2.569,-0.429001 -0.298,-0.067 -0.139,-0.076 -0.239,-0.262 -0.045,-0.27 -0.478,-1.1360013 0.054,-0.649 0.55,-0.5949998 1.51,-0.716 0.203,0.04 0.076,-0.027 0.762,-0.468 0.049,-2.822"
     id="Osage"
     inkscape:connector-curvature="0" />
  <path
     style="font-size:12px;fill:#d0d0d0;fill-rule:nonzero;stroke:#000000;stroke-width:1;stroke-linecap:butt;stroke-linejoin:bevel;stroke-miterlimit:4;stroke-opacity:1;stroke-dasharray:none;marker-start:none"
     d="m 58.212074,4.2405329 3.218,0.04 4.065,0.04 -0.049,2.822 -0.762,0.468 -0.076,0.027 -0.203,-0.04 -1.51,0.716 -0.55,0.5949998 -0.054,0.649 -4.155,-0.049 -0.005,0 0.081,-5.2679998"
     id="Kay"
     inkscape:connector-curvature="0" />
  <path
     style="font-size:12px;fill:#d0d0d0;fill-rule:nonzero;stroke:#000000;stroke-width:1;stroke-linecap:butt;stroke-linejoin:bevel;stroke-miterlimit:4;stroke-opacity:1;stroke-dasharray:none;marker-start:none"
     d="m 54.737074,4.1805329 3.475,0.06 -0.081,5.2679998 -6.599,-0.127 -0.053,-0.004 0.098,-4.5249998 -0.009,-0.731 3.169,0.059"
     id="Grant"
     inkscape:connector-curvature="0" />
  <path
     style="font-size:12px;fill:#d0d0d0;fill-rule:nonzero;stroke:#000000;stroke-width:1;stroke-linecap:butt;stroke-linejoin:bevel;stroke-miterlimit:4;stroke-opacity:1;stroke-dasharray:none;marker-start:none"
     d="m 49.166074,4.0685329 2.402,0.053 0.009,0.731 -0.098,4.5249998 0.053,0.004 -0.04,1.6940013 -4.417,-0.112 0.068,-6.9590011 2.023,0.064"
     id="Alfalfa"
     inkscape:connector-curvature="0" />
  <path
     style="font-size:12px;fill:#d0d0d0;fill-rule:nonzero;stroke:#000000;stroke-width:1;stroke-linecap:butt;stroke-linejoin:bevel;stroke-miterlimit:4;stroke-opacity:1;stroke-dasharray:none;marker-start:none"
     d="m 37.831074,3.7025329 4.652,0.158 4.66,0.144 -0.068,6.9590011 -0.022,0.857001 -0.717,0.067 -0.235,-0.03 -0.189,-0.064 -0.563,-0.262001 -0.947,-0.509 -0.153,-0.104 -0.117,-0.135 -0.234,-0.464 -1.199,-0.045 0.022,-1.2000013 -1.726,-2.4229998 -0.149,-0.087 -0.135,-0.045 -0.902,0.036 -0.171,-0.063 -0.234,-0.207 -0.009,-0.185 -1.564,-2.398"
     id="Woods"
     inkscape:connector-curvature="0" />
  <path
     style="font-size:12px;fill:#d0d0d0;fill-rule:nonzero;stroke:#000000;stroke-width:1;stroke-linecap:butt;stroke-linejoin:bevel;stroke-miterlimit:4;stroke-opacity:1;stroke-dasharray:none;marker-start:none"
     d="m 32.246074,3.4545329 4.715,0.216 0.87,0.032 1.564,2.398 -0.104,2.9119998 -3.186,-0.085 -4.084,-0.168 0.225,-5.3049998"
     id="Harper"
     inkscape:connector-curvature="0" />
  <path
     style="font-size:12px;fill:#d0d0d0;fill-rule:nonzero;stroke:#000000;stroke-width:1;stroke-linecap:butt;stroke-linejoin:bevel;stroke-miterlimit:4;stroke-opacity:1;stroke-dasharray:none;marker-start:none"
     d="m 22.615074,3.0495329 3.187,0.135 5.557,0.229 0.887,0.041 -0.225,5.3049998 -0.058,1.213001 -5.58,-0.249 -4.196,-0.211001 0.239,-4.5219998 0.085,-0.003 0.104,-1.938"
     id="Beaver"
     inkscape:connector-curvature="0" />
</svg>
