<?xml version="1.0" encoding="UTF-8" standalone="no"?>
<!-- Created with Inkscape (http://www.inkscape.org/) -->

<svg
   xmlns:dc="http://purl.org/dc/elements/1.1/"
   xmlns:cc="http://creativecommons.org/ns#"
   xmlns:rdf="http://www.w3.org/1999/02/22-rdf-syntax-ns#"
   xmlns:svg="http://www.w3.org/2000/svg"
   xmlns="http://www.w3.org/2000/svg"
   xmlns:sodipodi="http://sodipodi.sourceforge.net/DTD/sodipodi-0.dtd"
   xmlns:inkscape="http://www.inkscape.org/namespaces/inkscape"
   version="1.0"
   width="69.739998"
   height="42.68"
   sodipodi:version="0.32"
   inkscape:version="0.48.2 r9819"
   sodipodi:docname="hi.svg"
   inkscape:output_extension="org.inkscape.output.svg.inkscape"
   id="svg2998">
  <metadata
     id="metadata3000">
    <rdf:RDF>
      <cc:Work
         rdf:about="">
        <dc:format>image/svg+xml</dc:format>
        <dc:type
           rdf:resource="http://purl.org/dc/dcmitype/StillImage" />
      </cc:Work>
    </rdf:RDF>
  </metadata>
  <defs
     id="defs3002" />
  <sodipodi:namedview
     pagecolor="#ffffff"
     bordercolor="#666666"
     borderopacity="1"
     objecttolerance="10"
     gridtolerance="10"
     guidetolerance="10"
     inkscape:pageopacity="0"
     inkscape:pageshadow="2"
     inkscape:window-width="1366"
     inkscape:window-height="716"
     fit-margin-top="0"
     fit-margin-left="0"
     fit-margin-right="0"
     fit-margin-bottom="0"
     inkscape:zoom="6.5356304"
     inkscape:cx="81.231394"
     inkscape:cy="29.444234"
     inkscape:window-x="-8"
     inkscape:window-y="-8"
     inkscape:window-maximized="1"
     inkscape:current-layer="svg2998"
     id="namedview3004"
     showgrid="false" />
  <path
     style="font-size:12px;fill:#d0d0d0;fill-rule:nonzero;stroke:#000000;stroke-width:1;stroke-linecap:butt;stroke-linejoin:bevel;stroke-miterlimit:4;stroke-opacity:1;stroke-dasharray:none;marker-start:none"
     d="m 10.173552,1.5364262 1.317,0 0.567,0.377 0.186,0.564 0,0.378 -0.377,0.94 0,1.131 -0.753,0.752 -0.563,0.379 -1.883,-0.19 -0.754,-0.752 -1.13,-0.378 -0.377,-0.376 0,-0.566 0.566,-0.753 1.884,-1.506 1.317,0 m -8.852,6.028 -0.188,-0.191 0.188,-1.129 1.13,-0.754 0.189,-0.564 0.565,0 -0.188,1.318 -0.942,0.377 -0.565,0.943 -0.189,0"
     id="Kauai"
     inkscape:connector-curvature="0" />
  <path
     style="font-size:12px;fill:#d0d0d0;fill-rule:nonzero;stroke:#000000;stroke-width:1;stroke-linecap:butt;stroke-linejoin:bevel;stroke-miterlimit:4;stroke-opacity:1;stroke-dasharray:none;marker-start:none"
     d="m 32.587552,12.081427 -0.755,0.568 0,-0.189 -1.13,0.376 -0.942,-0.565 -1.883,0.189 -0.754,0.189 -0.376,-0.944 -0.566,-0.376 -0.187,-0.564 -0.566,-0.566 0,-0.5650001 -0.565,-0.375001 1.884,-0.3789997 0.942,-1.316 0.565,-0.378 0.564,0.187 0.942,1.695 0.188,0 0.188,0.3779997 -0.188,0.376001 0.188,0.5640001 0.754,0.567 0.188,-0.567 0.377,0 0,0.567 0.377,0.189 0.188,0.753 0.567,0.186"
     id="Honolulu"
     inkscape:connector-curvature="0" />
  <path
     style="font-size:12px;fill:#d0d0d0;fill-rule:nonzero;stroke:#000000;stroke-width:1;stroke-linecap:butt;stroke-linejoin:bevel;stroke-miterlimit:4;stroke-opacity:1;stroke-dasharray:none;marker-start:none"
     d="m 41.060552,13.589427 0.19,0 0.377,0.187 0.187,0 -0.187,-0.376 1.693,-0.376 0.754,0.189 -0.377,0.754 -1.13,0.752 -0.565,0 -2.258,-0.375 -2.637,0.187 -0.19,0 0.567,-1.507 0.188,0 2.637,0.189 0.565,0.187 0.186,0.189 m 4.52,1.318 0.565,0.189 0.942,1.507 1.883,-0.941 1.13,0.188 0,0.188 1.507,0.943 1.318,0.376 0.188,0.376 0,0.752 -0.753,0.754 -0.942,0.377 -1.883,0.755 -1.319,0 -0.377,-0.19 -0.376,-2.259 -0.564,-0.189 -0.377,0.375 -1.13,-0.564 -0.753,-0.754 -0.189,-0.752 0.377,-0.754 0.188,-0.377 0.565,0 m -4.895,1.696 1.317,0 0.754,0.565 0.376,0.565 -0.189,0.752 -1.693,0.567 -0.19,-0.754 -0.186,-0.565 -0.753,-0.752 0,-0.191 0.564,-0.187 m 5.649,3.768 0.188,0.187 0.188,0.753 -1.507,0.377 -0.564,-0.19 0.376,-0.562 1.319,-0.565"
     id="Maui"
     inkscape:connector-curvature="0" />
  <path
     style="font-size:12px;fill:#d0d0d0;fill-rule:nonzero;stroke:#000000;stroke-width:1;stroke-linecap:butt;stroke-linejoin:bevel;stroke-miterlimit:4;stroke-opacity:1;stroke-dasharray:none;marker-start:none"
     d="m 59.142552,40.710427 -0.376,0.377 -0.754,-0.565 -1.883,-0.753 -0.379,-0.566 -0.188,-0.376 0.188,-3.014 -1.318,-3.203 -0.754,-0.752 -0.565,-0.753 0.189,-0.567 1.13,-1.129 1.318,-1.694 0,-0.753 -0.941,-1.319 -0.189,-0.753 0.189,-0.755 0.376,-0.188 1.131,0.188 0.376,0.565 1.696,0.755 2.073,0.376 2.26,0.943 1.507,0.941 0.753,0.941 0.188,1.508 0.941,-0.189 0.377,0.563 0,0.755 0.942,0.753 1.318,0.564 -0.377,0.754 -2.071,1.883 -1.695,0.944 -1.507,0.188 -1.695,1.317 -0.941,0.564 -1.319,2.45"
     id="Hawaii"
     inkscape:connector-curvature="0" />
  <path
     style="font-size:12px;fill:#d0d0d0;fill-rule:nonzero;stroke:#000000;stroke-width:1;stroke-linecap:butt;stroke-linejoin:bevel;stroke-miterlimit:4;stroke-opacity:1;stroke-dasharray:none;marker-start:none"
     d="m 40.874552,13.400427 -0.565,-0.187 1.318,0.187 0.187,0.376 -0.187,0 -0.377,-0.187 -0.19,0 -0.186,-0.189"
     id="Kalawao"
     inkscape:connector-curvature="0" />
</svg>
