<?xml version="1.0" encoding="UTF-8" standalone="no"?>
<!-- Created with Inkscape (http://www.inkscape.org/) -->

<svg
   xmlns:dc="http://purl.org/dc/elements/1.1/"
   xmlns:cc="http://creativecommons.org/ns#"
   xmlns:rdf="http://www.w3.org/1999/02/22-rdf-syntax-ns#"
   xmlns:svg="http://www.w3.org/2000/svg"
   xmlns="http://www.w3.org/2000/svg"
   xmlns:sodipodi="http://sodipodi.sourceforge.net/DTD/sodipodi-0.dtd"
   xmlns:inkscape="http://www.inkscape.org/namespaces/inkscape"
   version="1.0"
   width="93.5"
   height="42.98"
   sodipodi:version="0.32"
   inkscape:version="0.48.2 r9819"
   sodipodi:docname="nc.svg"
   inkscape:output_extension="org.inkscape.output.svg.inkscape"
   id="svg3093">
  <metadata
     id="metadata3095">
    <rdf:RDF>
      <cc:Work
         rdf:about="">
        <dc:format>image/svg+xml</dc:format>
        <dc:type
           rdf:resource="http://purl.org/dc/dcmitype/StillImage" />
      </cc:Work>
    </rdf:RDF>
  </metadata>
  <sodipodi:namedview
     inkscape:window-height="746"
     inkscape:window-width="1366"
     inkscape:pageshadow="2"
     inkscape:pageopacity="0.0"
     guidetolerance="10.0"
     gridtolerance="10.0"
     objecttolerance="10.0"
     borderopacity="1.0"
     bordercolor="#666666"
     pagecolor="#ffffff"
     inkscape:zoom="7.3145837"
     inkscape:cx="65.31068"
     inkscape:cy="25.272277"
     inkscape:window-x="-8"
     inkscape:window-y="-8"
     inkscape:current-layer="svg3093"
     showguides="true"
     inkscape:guide-bbox="true"
     fit-margin-right="0"
     fit-margin-top="0"
     fit-margin-left="0"
     fit-margin-bottom="0"
     inkscape:window-maximized="0"
     id="namedview3097"
     showgrid="false" />
  <defs
     id="defs3099" />
  <path
     style="font-size:12px;fill:#d0d0d0;fill-rule:nonzero;stroke:#000000;stroke-width:1;stroke-linecap:butt;stroke-linejoin:bevel;stroke-miterlimit:4;stroke-opacity:1;stroke-dasharray:none;marker-start:none"
     d="m 7.5430582,33.38837 2.9209998,1.739 -0.6819998,0.109 -4.023,0.586 -0.718,0.094 2.502,-2.528"
     id="Clay"
     inkscape:connector-curvature="0" />
  <path
     style="font-size:12px;fill:#d0d0d0;fill-rule:nonzero;stroke:#000000;stroke-width:1;stroke-linecap:butt;stroke-linejoin:bevel;stroke-miterlimit:4;stroke-opacity:1;stroke-dasharray:none;marker-start:none"
     d="m 11.383058,30.58937 2.97,3.926 -3.889,0.612 -2.9209998,-1.739 0.216,-1.239 0.18,-0.429 0.073,-0.05 2.2299998,-0.689 1.141,-0.392"
     id="Macon"
     inkscape:connector-curvature="0" />
  <path
     style="font-size:12px;fill:#d0d0d0;fill-rule:nonzero;stroke:#000000;stroke-width:1;stroke-linecap:butt;stroke-linejoin:bevel;stroke-miterlimit:4;stroke-opacity:1;stroke-dasharray:none;marker-start:none"
     d="m 17.374058,28.56537 1.351,1.203 0.288,0.33 0.117,0.369 0.068,0.473 0.249,0.753 0.076,0.127 0.135,0.071 -1.848,1.262 -1.356,0.347 -1.1,0.531 0.437,-3.528 1.583,-1.938"
     id="Transylvania"
     inkscape:connector-curvature="0" />
  <path
     style="font-size:12px;fill:#d0d0d0;fill-rule:nonzero;stroke:#000000;stroke-width:1;stroke-linecap:butt;stroke-linejoin:bevel;stroke-miterlimit:4;stroke-opacity:1;stroke-dasharray:none;marker-start:none"
     d="m 12.654058,28.01537 3.137,2.488 -0.437,3.528 -1.001,0.484 -2.97,-3.926 1.271,-2.574"
     id="Jackson"
     inkscape:connector-curvature="0" />
  <path
     style="font-size:12px;fill:#d0d0d0;fill-rule:nonzero;stroke:#000000;stroke-width:1;stroke-linecap:butt;stroke-linejoin:bevel;stroke-miterlimit:4;stroke-opacity:1;stroke-dasharray:none;marker-start:none"
     d="m 14.453058,24.10437 1.027,1.378 1.894,3.083 -1.583,1.938 -3.137,-2.488 -1.024,-2.239 -0.045,-0.245 2.868,-1.427"
     id="Haywood"
     inkscape:connector-curvature="0" />
  <path
     style="font-size:12px;fill:#d0d0d0;fill-rule:nonzero;stroke:#000000;stroke-width:1;stroke-linecap:butt;stroke-linejoin:bevel;stroke-miterlimit:4;stroke-opacity:1;stroke-dasharray:none;marker-start:none"
     d="m 11.630058,25.77637 1.024,2.239 -1.271,2.574 -1.141,0.392 -2.2299998,0.689 -0.073,0.05 -0.189,-0.213 -0.004,-0.125 0.072,-0.23 0.055,-0.068 0.185,-0.112 0.242,-0.1 0.145,-0.081 0.216,-0.5 0.049,-0.32 -0.009,-0.14 -0.045,-0.239 -0.59,-0.04 -3.254,0.197 2.816,-1.784 0.05,0.005 0.189,0.004 1.473,-0.152 0.127,-0.082 1.7889998,-1.416 0.374,-0.548"
     id="Swain"
     inkscape:connector-curvature="0" />
  <path
     style="font-size:12px;fill:#d0d0d0;fill-rule:nonzero;stroke:#000000;stroke-width:1;stroke-linecap:butt;stroke-linejoin:bevel;stroke-miterlimit:4;stroke-opacity:1;stroke-dasharray:none;marker-start:none"
     d="m 4.8120582,29.74937 3.254,-0.197 0.59,0.04 0.045,0.239 0.009,0.14 -0.049,0.32 -0.216,0.5 -0.145,0.081 -0.242,0.1 -0.185,0.112 -0.055,0.068 -0.072,0.23 0.004,0.125 0.189,0.213 -0.18,0.429 -1.897,0.414 -0.712,0.333 -0.101,0 -0.378,-0.157 -0.368,-0.708 0.423,-2.312 0.086,0.03"
     id="Graham"
     inkscape:connector-curvature="0" />
  <path
     style="font-size:12px;fill:#d0d0d0;fill-rule:nonzero;stroke:#000000;stroke-width:1;stroke-linecap:butt;stroke-linejoin:bevel;stroke-miterlimit:4;stroke-opacity:1;stroke-dasharray:none;marker-start:none"
     d="m 7.7590582,32.14937 -0.216,1.239 -2.502,2.528 -1.292,0.162 -2.007,0.235 -0.039,-2.849 0.85,-0.748 1.111,-0.027 0.395,-0.325 0.244,-0.333 0.368,0.708 0.378,0.157 0.101,0 0.712,-0.333 1.897,-0.414"
     id="Cherokee"
     inkscape:connector-curvature="0" />
  <path
     style="font-size:12px;fill:#d0d0d0;fill-rule:nonzero;stroke:#000000;stroke-width:1;stroke-linecap:butt;stroke-linejoin:bevel;stroke-miterlimit:4;stroke-opacity:1;stroke-dasharray:none;marker-start:none"
     d="m 22.940058,18.80237 1.388,2.345 -1.388,1.351 -0.294,-1.108 -0.108,-0.204 -0.578,-0.99 -0.048,-0.059 -1.708,-0.653 -0.64,0.243 1.839,-1.37 1.537,0.445"
     id="Mitchell"
     inkscape:connector-curvature="0" />
  <path
     style="font-size:12px;fill:#d0d0d0;fill-rule:nonzero;stroke:#000000;stroke-width:1;stroke-linecap:butt;stroke-linejoin:bevel;stroke-miterlimit:4;stroke-opacity:1;stroke-dasharray:none;marker-start:none"
     d="m 19.564058,19.72737 0.64,-0.243 1.708,0.653 0.048,0.059 0.578,0.99 0.108,0.204 0.294,1.108 -1.235,1.753 -1.587,-1.262 -1.288,-1.919 0.734,-1.343"
     id="Yancey"
     inkscape:connector-curvature="0" />
  <path
     style="font-size:12px;fill:#d0d0d0;fill-rule:nonzero;stroke:#000000;stroke-width:1;stroke-linecap:butt;stroke-linejoin:bevel;stroke-miterlimit:4;stroke-opacity:1;stroke-dasharray:none;marker-start:none"
     d="m 17.720058,20.42537 1.11,0.645 1.288,1.919 -0.969,0.352 -0.568,0.357 -0.333,0.238 -0.649,0.472 -1.316,0.858 -0.803,0.216 -1.027,-1.378 0.399,-2.033 0.466,-0.118 0.91,-0.852 0.648,-0.64 0.181,-0.131 0.262,-0.189 0.049,-0.008 0.155,0.098 0,0.005 0.197,0.189"
     id="Madison"
     inkscape:connector-curvature="0" />
  <path
     style="font-size:12px;fill:#d0d0d0;fill-rule:nonzero;stroke:#000000;stroke-width:1;stroke-linecap:butt;stroke-linejoin:bevel;stroke-miterlimit:4;stroke-opacity:1;stroke-dasharray:none;marker-start:none"
     d="m 21.705058,24.25137 1.423,2.11 -0.883,0.92 -0.752,-0.316 -0.681,0.478 -0.861,0.464 -0.78,0.289 -0.478,-0.041 -0.324,-0.073 -0.109,-0.057 -0.202,-0.036 -0.319,0.125 -0.1,0.077 -0.265,0.374 -1.894,-3.083 0.803,-0.216 1.316,-0.858 0.649,-0.472 0.333,-0.238 0.568,-0.357 0.969,-0.352 1.587,1.262"
     id="Buncombe"
     inkscape:connector-curvature="0" />
  <path
     style="font-size:12px;fill:#d0d0d0;fill-rule:nonzero;stroke:#000000;stroke-width:1;stroke-linecap:butt;stroke-linejoin:bevel;stroke-miterlimit:4;stroke-opacity:1;stroke-dasharray:none;marker-start:none"
     d="m 22.245058,27.28137 0.185,0.951 -0.625,2.532 -2.147,1.127 -0.135,-0.071 -0.076,-0.127 -0.249,-0.753 -0.068,-0.473 -0.117,-0.369 -0.288,-0.33 -1.351,-1.203 0.265,-0.374 0.1,-0.077 0.319,-0.125 0.202,0.036 0.109,0.057 0.324,0.073 0.478,0.041 0.78,-0.289 0.861,-0.464 0.681,-0.478 0.752,0.316"
     id="Henderson"
     inkscape:connector-curvature="0" />
  <path
     style="font-size:12px;fill:#d0d0d0;fill-rule:nonzero;stroke:#000000;stroke-width:1;stroke-linecap:butt;stroke-linejoin:bevel;stroke-miterlimit:4;stroke-opacity:1;stroke-dasharray:none;marker-start:none"
     d="m 25.841058,30.43137 -2.578,0.266 -1.458,0.067 0.625,-2.532 0.617,-0.217 0.401,-0.144 0.095,0.013 0.325,0.141 0.153,0.101 1.648,1.39 0.105,0.171 0.067,0.744"
     id="Polk"
     inkscape:connector-curvature="0" />
  <path
     style="font-size:12px;fill:#d0d0d0;fill-rule:nonzero;stroke:#000000;stroke-width:1;stroke-linecap:butt;stroke-linejoin:bevel;stroke-miterlimit:4;stroke-opacity:1;stroke-dasharray:none;marker-start:none"
     d="m 27.947058,24.95937 0.324,2.875 -0.324,1.822 -0.009,0.554 -1.109,0.113 -0.988,0.108 -0.067,-0.744 -0.105,-0.171 -1.648,-1.39 -0.153,-0.101 -0.325,-0.141 -0.095,-0.013 -0.401,0.144 -0.617,0.217 -0.185,-0.951 0.883,-0.92 3.466,-1.13 1.353,-0.272"
     id="Rutherford"
     inkscape:connector-curvature="0" />
  <path
     style="font-size:12px;fill:#d0d0d0;fill-rule:nonzero;stroke:#000000;stroke-width:1;stroke-linecap:butt;stroke-linejoin:bevel;stroke-miterlimit:4;stroke-opacity:1;stroke-dasharray:none;marker-start:none"
     d="m 24.328058,21.14737 0.301,-0.672 0.073,0.041 0.077,0.098 0.229,0.37 0.058,0.122 0.087,0.288 -0.069,0.487 0.766,1.559 0.744,1.791 -3.466,1.13 -1.423,-2.11 1.235,-1.753 1.388,-1.351"
     id="McDowell"
     inkscape:connector-curvature="0" />
  <path
     style="font-size:12px;fill:#d0d0d0;fill-rule:nonzero;stroke:#000000;stroke-width:1;stroke-linecap:butt;stroke-linejoin:bevel;stroke-miterlimit:4;stroke-opacity:1;stroke-dasharray:none;marker-start:none"
     d="m 24.152058,16.53537 0.108,-0.311 1.429,2.092 0.333,1.915 -1.393,0.244 -0.301,0.672 -1.388,-2.345 1.212,-2.267"
     id="Avery"
     inkscape:connector-curvature="0" />
  <path
     style="font-size:12px;fill:#d0d0d0;fill-rule:nonzero;stroke:#000000;stroke-width:1;stroke-linecap:butt;stroke-linejoin:bevel;stroke-miterlimit:4;stroke-opacity:1;stroke-dasharray:none;marker-start:none"
     d="m 26.081058,14.63337 0.915,0.361 0.599,0.528 0.397,0.289 0.86,0.338 -0.45,1.679 -2.713,0.488 -1.429,-2.092 0.076,-0.207 0.474,-0.531 0.514,-0.352 0.013,-0.01 0.054,-0.031 0.064,0.148 0.27,0.086 0.161,-0.008 0.019,0 0.215,-0.072 -0.039,-0.614"
     id="Watauga"
     inkscape:connector-curvature="0" />
  <path
     style="font-size:12px;fill:#d0d0d0;fill-rule:nonzero;stroke:#000000;stroke-width:1;stroke-linecap:butt;stroke-linejoin:bevel;stroke-miterlimit:4;stroke-opacity:1;stroke-dasharray:none;marker-start:none"
     d="m 33.825058,17.92437 -0.317,3.547 -2.307,0.143 -0.338,-2.578 0.559,-0.463 0.302,-0.118 0.464,-0.148 0.167,0.04 0.711,-0.17 0.573,-0.163 0.186,-0.09"
     id="Alexander"
     inkscape:connector-curvature="0" />
  <path
     style="font-size:12px;fill:#d0d0d0;fill-rule:nonzero;stroke:#000000;stroke-width:1;stroke-linecap:butt;stroke-linejoin:bevel;stroke-miterlimit:4;stroke-opacity:1;stroke-dasharray:none;marker-start:none"
     d="m 26.130058,11.98937 3.322,-0.334 0.041,0.256 0.675,0.952 0.366,0.311 0.099,0.162 0.23,0.481 0.058,0.388 -2.069,1.944 -0.86,-0.338 -0.397,-0.289 -0.599,-0.528 -0.915,-0.361 0.049,-2.644"
     id="Ashe"
     inkscape:connector-curvature="0" />
  <path
     style="font-size:12px;fill:#d0d0d0;fill-rule:nonzero;stroke:#000000;stroke-width:1;stroke-linecap:butt;stroke-linejoin:bevel;stroke-miterlimit:4;stroke-opacity:1;stroke-dasharray:none;marker-start:none"
     d="m 34.067058,11.09637 -0.338,2.163 -0.09,0.369 -0.474,0.076 -0.198,-0.219 -0.04,-0.221 -0.451,-0.226 -0.08,-0.013 -0.654,0.194 -0.821,0.986 -0.058,-0.388 -0.23,-0.481 -0.099,-0.162 -0.366,-0.311 -0.675,-0.952 -0.041,-0.256 4.615,-0.559"
     id="Alleghany"
     inkscape:connector-curvature="0" />
  <path
     style="font-size:12px;fill:#d0d0d0;fill-rule:nonzero;stroke:#000000;stroke-width:1;stroke-linecap:butt;stroke-linejoin:bevel;stroke-miterlimit:4;stroke-opacity:1;stroke-dasharray:none;marker-start:none"
     d="m 30.921058,14.20537 0.821,-0.986 0.654,-0.194 0.08,0.013 0.451,0.226 0.04,0.221 0.198,0.219 0.474,-0.076 0.09,-0.369 1.299,1.965 0.279,2.335 -1.482,0.365 -0.186,0.09 -0.573,0.163 -0.711,0.17 -0.167,-0.04 -0.464,0.148 -0.302,0.118 -0.559,0.463 -2.461,-1.208 0.45,-1.679 2.069,-1.944"
     id="Wilkes"
     inkscape:connector-curvature="0" />
  <path
     style="font-size:12px;fill:#d0d0d0;fill-rule:nonzero;stroke:#000000;stroke-width:1;stroke-linecap:butt;stroke-linejoin:bevel;stroke-miterlimit:4;stroke-opacity:1;stroke-dasharray:none;marker-start:none"
     d="m 25.689058,18.31637 2.713,-0.488 2.461,1.208 0.338,2.578 -0.248,0.416 -0.121,0.158 -0.222,0.017 -1.65,0.005 -2.001,-1.212 -0.851,-0.65 -0.086,-0.117 -0.333,-1.915"
     id="Caldwell"
     inkscape:connector-curvature="0" />
  <path
     style="font-size:12px;fill:#d0d0d0;fill-rule:nonzero;stroke:#000000;stroke-width:1;stroke-linecap:butt;stroke-linejoin:bevel;stroke-miterlimit:4;stroke-opacity:1;stroke-dasharray:none;marker-start:none"
     d="m 26.022058,20.23137 0.086,0.117 0.851,0.65 2.001,1.212 1.65,-0.005 0.222,-0.017 0.121,-0.158 -1.361,2.826 -0.023,0.062 -1.622,0.041 -1.353,0.272 -0.744,-1.791 -0.766,-1.559 0.069,-0.487 -0.087,-0.288 -0.058,-0.122 -0.229,-0.37 -0.077,-0.098 -0.073,-0.041 1.393,-0.244"
     id="Burke"
     inkscape:connector-curvature="0" />
  <path
     style="font-size:12px;fill:#d0d0d0;fill-rule:nonzero;stroke:#000000;stroke-width:1;stroke-linecap:butt;stroke-linejoin:bevel;stroke-miterlimit:4;stroke-opacity:1;stroke-dasharray:none;marker-start:none"
     d="m 29.569058,24.91837 1.122,1.727 1.839,3.083 -0.406,0.04 -4.186,0.442 0.009,-0.554 0.324,-1.822 -0.324,-2.875 1.622,-0.041"
     id="Cleveland"
     inkscape:connector-curvature="0" />
  <path
     style="font-size:12px;fill:#d0d0d0;fill-rule:nonzero;stroke:#000000;stroke-width:1;stroke-linecap:butt;stroke-linejoin:bevel;stroke-miterlimit:4;stroke-opacity:1;stroke-dasharray:none;marker-start:none"
     d="m 30.691058,26.64537 5.206,-0.572 -0.393,3.384 -2.974,0.271 -1.839,-3.083"
     id="Gaston"
     inkscape:connector-curvature="0" />
  <path
     style="font-size:12px;fill:#d0d0d0;fill-rule:nonzero;stroke:#000000;stroke-width:1;stroke-linecap:butt;stroke-linejoin:bevel;stroke-miterlimit:4;stroke-opacity:1;stroke-dasharray:none;marker-start:none"
     d="m 35.551058,24.19837 0.256,0.748 0.09,1.127 -5.206,0.572 -1.122,-1.727 0.023,-0.062 5.959,-0.658"
     id="Lincoln"
     inkscape:connector-curvature="0" />
  <path
     style="font-size:12px;fill:#d0d0d0;fill-rule:nonzero;stroke:#000000;stroke-width:1;stroke-linecap:butt;stroke-linejoin:bevel;stroke-miterlimit:4;stroke-opacity:1;stroke-dasharray:none;marker-start:none"
     d="m 31.201058,21.61437 2.307,-0.143 1.343,0.779 0.379,0.379 0.496,0.645 -0.175,0.924 -5.959,0.658 1.361,-2.826 0.248,-0.416"
     id="Catawba"
     inkscape:connector-curvature="0" />
  <path
     style="font-size:12px;fill:#d0d0d0;fill-opacity:1;fill-rule:nonzero;stroke:#000000;stroke-width:1;stroke-linecap:butt;stroke-linejoin:bevel;stroke-miterlimit:4;stroke-opacity:1;stroke-dasharray:none;marker-start:none"
     d="m 35.307058,17.55937 1.946,-0.257 0.258,2.569 -0.199,1.667 -0.085,0.717 0.595,1.623 0.067,0.243 0.041,0.23 -0.487,0.077 -1.636,0.518 -0.256,-0.748 0.175,-0.924 -0.496,-0.645 -0.379,-0.379 -1.343,-0.779 0.317,-3.547 1.482,-0.365"
     id="Iredell"
     inkscape:connector-curvature="0" />
  <path
     style="font-size:12px;fill:#d0d0d0;fill-opacity:1;fill-rule:nonzero;stroke:#000000;stroke-width:1;stroke-linecap:butt;stroke-linejoin:bevel;stroke-miterlimit:4;stroke-opacity:1;stroke-dasharray:none;marker-start:none"
     d="m 35.807058,24.94637 1.636,-0.518 -0.009,0.094 0.014,0.086 0.401,1.144 1.312,1.551 1.32,0.559 -2.574,3.141 -0.838,-0.856 -1.565,-0.69 0.393,-3.384 -0.09,-1.127"
     id="Mecklenburg"
     inkscape:connector-curvature="0" />
  <path
     style="font-size:12px;fill:#d0d0d0;fill-rule:nonzero;stroke:#000000;stroke-width:1;stroke-linecap:butt;stroke-linejoin:bevel;stroke-miterlimit:4;stroke-opacity:1;stroke-dasharray:none;marker-start:none"
     d="m 37.511058,19.87137 2.785,0.992 1.348,0.089 1.573,1.565 0.423,0.929 -1.158,0.21 -4.552,0.695 -0.041,-0.23 -0.067,-0.243 -0.595,-1.623 0.085,-0.717 0.199,-1.667"
     id="Rowan"
     inkscape:connector-curvature="0" />
  <path
     style="font-size:12px;fill:#d0d0d0;fill-rule:nonzero;stroke:#000000;stroke-width:1;stroke-linecap:butt;stroke-linejoin:bevel;stroke-miterlimit:4;stroke-opacity:1;stroke-dasharray:none;marker-start:none"
     d="m 37.253058,17.30237 2.017,-0.267 1.188,0.767 0.189,0.104 0.06,0.09 0.121,0.338 0.052,0.356 -0.092,0.761 -0.388,0.262 -0.104,1.15 -2.785,-0.992 -0.258,-2.569"
     id="Davie"
     inkscape:connector-curvature="0" />
  <path
     style="font-size:12px;fill:#d0d0d0;fill-opacity:1;fill-rule:nonzero;stroke:#000000;stroke-width:1;stroke-linecap:butt;stroke-linejoin:bevel;stroke-miterlimit:4;stroke-opacity:1;stroke-dasharray:none;marker-start:none"
     d="m 39.309058,14.46237 -0.039,2.573 -2.017,0.267 -1.946,0.257 -0.279,-2.335 0.883,-0.55 1.509,-0.514 0.61,-0.009 0.95,0.162 0.217,0.068 0.112,0.081"
     id="Yadkin"
     inkscape:connector-curvature="0" />
  <path
     style="font-size:12px;fill:#d0d0d0;fill-opacity:1;fill-rule:nonzero;stroke:#000000;stroke-width:1;stroke-linecap:butt;stroke-linejoin:bevel;stroke-miterlimit:4;stroke-opacity:1;stroke-dasharray:none;marker-start:none"
     d="m 37.016058,10.66737 1.762,-0.188999 0.492,3.721999 0.039,0.262 -0.112,-0.081 -0.217,-0.068 -0.95,-0.162 -0.61,0.009 -1.509,0.514 -0.883,0.55 -1.299,-1.965 0.338,-2.163 0.654,-0.068 2.295,-0.361"
     id="Surry"
     inkscape:connector-curvature="0" />
  <path
     style="font-size:12px;fill:#d0d0d0;fill-rule:nonzero;stroke:#000000;stroke-width:1;stroke-linecap:butt;stroke-linejoin:bevel;stroke-miterlimit:4;stroke-opacity:1;stroke-dasharray:none;marker-start:none"
     d="m 42.982058,9.8793712 0.537,3.6679988 -4.249,0.653 -0.492,-3.721999 3.938,-0.5539998 0.266,-0.045"
     id="Stokes"
     inkscape:connector-curvature="0" />
  <path
     style="font-size:12px;fill:#d0d0d0;fill-rule:nonzero;stroke:#000000;stroke-width:1;stroke-linecap:butt;stroke-linejoin:bevel;stroke-miterlimit:4;stroke-opacity:1;stroke-dasharray:none;marker-start:none"
     d="m 39.270058,14.20037 4.249,-0.653 0.459,3.174 -3.52,1.081 -1.188,-0.767 0.039,-2.573 -0.039,-0.262"
     id="Forsyth"
     inkscape:connector-curvature="0" />
  <path
     style="font-size:12px;fill:#d0d0d0;fill-rule:nonzero;stroke:#000000;stroke-width:1;stroke-linecap:butt;stroke-linejoin:bevel;stroke-miterlimit:4;stroke-opacity:1;stroke-dasharray:none;marker-start:none"
     d="m 40.458058,17.80237 3.52,-1.081 0.153,1.158 0.7,5.345 -1.191,0.222 -0.423,-0.929 -1.573,-1.565 -1.348,-0.089 0.104,-1.15 0.388,-0.262 0.092,-0.761 -0.052,-0.356 -0.121,-0.338 -0.06,-0.09 -0.189,-0.104"
     id="Davidson"
     inkscape:connector-curvature="0" />
  <path
     style="font-size:12px;fill:#d0d0d0;fill-rule:nonzero;stroke:#000000;stroke-width:1;stroke-linecap:butt;stroke-linejoin:bevel;stroke-miterlimit:4;stroke-opacity:1;stroke-dasharray:none;marker-start:none"
     d="m 42.482058,23.65637 1.158,-0.21 0.798,0.405 0.063,0.04 0.483,0.766 0.193,0.402 0.5,2.33 0.015,0.076 -0.019,0.117 -0.149,0.302 -2.198,-0.329 -2.332,0.527 1.488,-4.426"
     id="Stanly"
     inkscape:connector-curvature="0" />
  <path
     style="font-size:12px;fill:#d0d0d0;fill-rule:nonzero;stroke:#000000;stroke-width:1;stroke-linecap:butt;stroke-linejoin:bevel;stroke-miterlimit:4;stroke-opacity:1;stroke-dasharray:none;marker-start:none"
     d="m 42.482058,23.65637 -1.488,4.426 -0.513,-0.22 -1.32,-0.559 -1.312,-1.551 -0.401,-1.144 -0.014,-0.086 0.009,-0.094 0.487,-0.077 4.552,-0.695"
     id="Cabarrus"
     inkscape:connector-curvature="0" />
  <path
     style="font-size:12px;fill:#d0d0d0;fill-rule:nonzero;stroke:#000000;stroke-width:1;stroke-linecap:butt;stroke-linejoin:bevel;stroke-miterlimit:4;stroke-opacity:1;stroke-dasharray:none;marker-start:none"
     d="m 43.326058,27.55537 0.368,4.966 -2.509,0.372 -2.25,0.332 -0.212,-0.04 -0.005,-0.122 -0.072,-1.316 -0.739,-0.744 2.574,-3.141 0.513,0.22 2.332,-0.527"
     id="Union"
     inkscape:connector-curvature="0" />
  <path
     style="font-size:12px;fill:#d0d0d0;fill-rule:nonzero;stroke:#000000;stroke-width:1;stroke-linecap:butt;stroke-linejoin:bevel;stroke-miterlimit:4;stroke-opacity:1;stroke-dasharray:none;marker-start:none"
     d="m 45.524058,27.88437 0.027,0.113 0.122,0.271 0.492,0.193 0.274,0.028 0.055,-0.009 0.063,-0.055 0.026,-0.036 0.032,-0.131 0.208,-0.221 0.134,-0.081 0.167,0 0.19,0.235 0.298,0.482 0.778,1.861 0,0.068 -0.102,0.244 -0.501,1.082 -4.093,0.593 -0.368,-4.966 2.198,0.329"
     id="Anson"
     inkscape:connector-curvature="0" />
  <path
     style="font-size:12px;fill:#d0d0d0;fill-rule:nonzero;stroke:#000000;stroke-width:1;stroke-linecap:butt;stroke-linejoin:bevel;stroke-miterlimit:4;stroke-opacity:1;stroke-dasharray:none;marker-start:none"
     d="m 46.151058,9.3463712 2.073,-0.347 0.438,3.7589978 0.012,0.108 -5.155,0.681 -0.537,-3.6679988 3.169,-0.532999"
     id="Rockingham"
     inkscape:connector-curvature="0" />
  <path
     style="font-size:12px;fill:#d0d0d0;fill-rule:nonzero;stroke:#000000;stroke-width:1;stroke-linecap:butt;stroke-linejoin:bevel;stroke-miterlimit:4;stroke-opacity:1;stroke-dasharray:none;marker-start:none"
     d="m 43.519058,13.54737 5.155,-0.681 0.668,4.391 -5.211,0.622 -0.153,-1.158 -0.459,-3.174"
     id="Guilford"
     inkscape:connector-curvature="0" />
  <path
     style="font-size:12px;fill:#d0d0d0;fill-rule:nonzero;stroke:#000000;stroke-width:1;stroke-linecap:butt;stroke-linejoin:bevel;stroke-miterlimit:4;stroke-opacity:1;stroke-dasharray:none;marker-start:none"
     d="m 49.342058,17.25737 0.121,0.721 0.595,4.222 -2.185,0.429 -3.042,0.595 -0.7,-5.345 5.211,-0.622"
     id="Randolph"
     inkscape:connector-curvature="0" />
  <path
     style="font-size:12px;fill:#d0d0d0;fill-rule:nonzero;stroke:#000000;stroke-width:1;stroke-linecap:butt;stroke-linejoin:bevel;stroke-miterlimit:4;stroke-opacity:1;stroke-dasharray:none;marker-start:none"
     d="m 47.873058,22.62937 1.086,2.759 0.031,0.162 0.153,0.247 0.591,0.691 0.244,0.198 0.266,0.117 -1.051,0.059 -1.447,0.112 -0.549,0.37 -1.077,0.473 -0.231,0.049 -0.365,0.018 0.149,-0.302 0.019,-0.117 -0.015,-0.076 -0.5,-2.33 -0.193,-0.402 -0.483,-0.766 -0.063,-0.04 -0.798,-0.405 1.191,-0.222 3.042,-0.595"
     id="Montgomery"
     inkscape:connector-curvature="0" />
  <path
     style="font-size:12px;fill:#d0d0d0;fill-rule:nonzero;stroke:#000000;stroke-width:1;stroke-linecap:butt;stroke-linejoin:bevel;stroke-miterlimit:4;stroke-opacity:1;stroke-dasharray:none;marker-start:none"
     d="m 45.524058,27.88437 0.365,-0.018 0.231,-0.049 1.077,-0.473 0.549,-0.37 1.447,-0.112 1.051,-0.059 1.875,1.262 -0.51,0.315 -0.379,0.343 -0.172,0.184 -0.054,0.51 0.041,0.157 0.095,0.149 -0.148,0.749 -0.163,0.347 -0.549,0.703 -2.493,0.406 0.501,-1.082 0.102,-0.244 0,-0.068 -0.778,-1.861 -0.298,-0.482 -0.19,-0.235 -0.167,0 -0.134,0.081 -0.208,0.221 -0.032,0.131 -0.026,0.036 -0.063,0.055 -0.055,0.009 -0.274,-0.028 -0.492,-0.193 -0.122,-0.271 -0.027,-0.113"
     id="Richmond"
     inkscape:connector-curvature="0" />
  <path
     style="font-size:12px;fill:#d0d0d0;fill-rule:nonzero;stroke:#000000;stroke-width:1;stroke-linecap:butt;stroke-linejoin:bevel;stroke-miterlimit:4;stroke-opacity:1;stroke-dasharray:none;marker-start:none"
     d="m 53.726058,30.47637 -0.71,2.867 -2.736,-1.821 0.549,-0.703 0.163,-0.347 0.148,-0.749 -0.095,-0.149 -0.041,-0.157 0.054,-0.51 0.172,-0.184 0.379,-0.343 0.51,-0.315 1.607,2.411"
     id="Scotland"
     inkscape:connector-curvature="0" />
  <path
     style="font-size:12px;fill:#d0d0d0;fill-rule:nonzero;stroke:#000000;stroke-width:1;stroke-linecap:butt;stroke-linejoin:bevel;stroke-miterlimit:4;stroke-opacity:1;stroke-dasharray:none;marker-start:none"
     d="m 51.996058,8.3193712 0.527,3.8579978 -1.054,0.167 -2.807,0.414 -0.438,-3.7589978 0.41,-0.076 1.289,-0.229 1.258,-0.231 0.815,-0.144"
     id="Caswell"
     inkscape:connector-curvature="0" />
  <path
     style="font-size:12px;fill:#d0d0d0;fill-rule:nonzero;stroke:#000000;stroke-width:1;stroke-linecap:butt;stroke-linejoin:bevel;stroke-miterlimit:4;stroke-opacity:1;stroke-dasharray:none;marker-start:none"
     d="m 48.662058,12.75837 2.807,-0.414 0.915,4.679 -2.921,0.955 -0.121,-0.721 -0.668,-4.391 -0.012,-0.108"
     id="Alamance"
     inkscape:connector-curvature="0" />
  <path
     style="font-size:12px;fill:#d0d0d0;fill-rule:nonzero;stroke:#000000;stroke-width:1;stroke-linecap:butt;stroke-linejoin:bevel;stroke-miterlimit:4;stroke-opacity:1;stroke-dasharray:none;marker-start:none"
     d="m 52.167058,21.79537 2.195,2.389 1.159,1.306 0.027,0.236 -1.627,-0.203 -0.352,0.306 -0.495,0.59 -0.645,1.082 -0.31,0.564 -1.875,-1.262 -0.266,-0.117 -0.244,-0.198 -0.591,-0.691 -0.153,-0.247 -0.031,-0.162 -1.086,-2.759 2.185,-0.429 2.109,-0.405"
     id="Moore"
     inkscape:connector-curvature="0" />
  <path
     style="font-size:12px;fill:#d0d0d0;fill-rule:nonzero;stroke:#000000;stroke-width:1;stroke-linecap:butt;stroke-linejoin:bevel;stroke-miterlimit:4;stroke-opacity:1;stroke-dasharray:none;marker-start:none"
     d="m 52.119058,28.06537 0.31,-0.564 0.645,-1.082 0.495,-0.59 0.352,-0.306 1.627,0.203 1.159,2.699 -1.2,1.618 -0.567,0.261 -1.214,0.172 -1.607,-2.411"
     id="Hoke"
     inkscape:connector-curvature="0" />
  <path
     style="font-size:12px;fill:#d0d0d0;fill-opacity:1;fill-rule:nonzero;stroke:#000000;stroke-width:1;stroke-linecap:butt;stroke-linejoin:bevel;stroke-miterlimit:4;stroke-opacity:1;stroke-dasharray:none;marker-start:none"
     d="m 56.707058,28.42537 1.654,1.267 1.329,1.676 0.04,0.19 -0.103,2.299 -0.139,0.275 -0.496,0.485 -0.627,1.348 -0.532,0.883 -4.674,-3.406 -0.143,-0.099 0.71,-2.867 1.214,-0.172 0.567,-0.261 1.2,-1.618"
     id="Robeson"
     inkscape:connector-curvature="0" />
  <path
     style="font-size:12px;fill:#d0d0d0;fill-rule:nonzero;stroke:#000000;stroke-width:1;stroke-linecap:butt;stroke-linejoin:bevel;stroke-miterlimit:4;stroke-opacity:1;stroke-dasharray:none;marker-start:none"
     d="m 66.081058,34.00037 1.082,0.358 -0.622,1.977 -1.262,0.712 -1.127,0.388 -0.121,0.01 -0.081,0.03 -0.266,0.325 -0.482,1.772 -0.15,1.004 -5.219,-3.728 0.532,-0.883 0.627,-1.348 0.496,-0.485 0.441,0.175 0.09,0 0.221,-0.04 1.149,-0.298 1.307,0.279 1.465,0.414 1.158,-0.085 0.762,-0.577"
     id="Columbus"
     inkscape:connector-curvature="0" />
  <path
     style="font-size:12px;fill:#d0d0d0;fill-rule:nonzero;stroke:#000000;stroke-width:1;stroke-linecap:butt;stroke-linejoin:bevel;stroke-miterlimit:4;stroke-opacity:1;stroke-dasharray:none;marker-start:none"
     d="m 67.163058,34.35837 1.436,0.062 0.858,1.014 0.622,1.46 0.216,0.803 0.05,0.278 0.207,1.385 -0.753,0.685 -0.846,-0.072 -0.452,0.004 -0.428,0.054 -1.028,0.216 -1.063,0.334 -0.036,0.013 -0.004,0 -1.222,0.708 -0.303,0.248 -1.365,-0.974 0.15,-1.004 0.482,-1.772 0.266,-0.325 0.081,-0.03 0.121,-0.01 1.127,-0.388 1.262,-0.712 0.622,-1.977"
     id="Brunswick"
     inkscape:connector-curvature="0" />
  <path
     style="font-size:12px;fill:#d0d0d0;fill-rule:nonzero;stroke:#000000;stroke-width:1;stroke-linecap:butt;stroke-linejoin:bevel;stroke-miterlimit:4;stroke-opacity:1;stroke-dasharray:none;marker-start:none"
     d="m 71.954058,34.29837 -0.194,0.292 -0.18,0.393 -0.478,1.185 -0.077,0.307 -0.18,0.891 -0.017,0.109 -0.276,1.885 -0.207,-1.385 -0.05,-0.278 -0.216,-0.803 -0.622,-1.46 -0.858,-1.014 1.002,-0.614 0.812,-0.387 0.419,-0.005 -0.082,0.127 0.045,0.099 0.167,0.162 0.726,0.496 0.266,0"
     id="New Hanover"
     inkscape:connector-curvature="0" />
  <path
     style="font-size:12px;fill:#d0d0d0;fill-rule:nonzero;stroke:#000000;stroke-width:1;stroke-linecap:butt;stroke-linejoin:bevel;stroke-miterlimit:4;stroke-opacity:1;stroke-dasharray:none;marker-start:none"
     d="m 62.515058,28.64237 3.21,3.389 -0.14,0.239 0.028,0.062 0.257,0.321 0.184,0.113 0.316,0.04 0.382,0.203 -0.671,0.991 -0.762,0.577 -1.158,0.085 -1.465,-0.414 -1.307,-0.279 -1.149,0.298 -0.221,0.04 -0.09,0 -0.441,-0.175 0.139,-0.275 0.103,-2.299 -0.04,-0.19 -1.329,-1.676 0.576,-0.271 0.434,-0.112 2.757,-0.528 0.288,-0.072 0.099,-0.067"
     id="Bladen"
     inkscape:connector-curvature="0" />
  <path
     style="font-size:12px;fill:#d0d0d0;fill-opacity:1;fill-rule:nonzero;stroke:#000000;stroke-width:1;stroke-linecap:butt;stroke-linejoin:bevel;stroke-miterlimit:4;stroke-opacity:1;stroke-dasharray:none;marker-start:none"
     d="m 60.330058,23.90937 -0.19,2.055 0,0.095 0.253,0.555 0.334,0.622 0.076,0.117 1.712,1.289 -0.099,0.067 -0.288,0.072 -2.757,0.528 -0.434,0.112 -0.576,0.271 -1.654,-1.267 -1.159,-2.699 -0.027,-0.236 0.32,-0.143 1.857,-0.852 0.915,-0.492 0.311,-0.071 1.406,-0.023"
     id="Cumberland"
     inkscape:connector-curvature="0" />
  <path
     style="font-size:12px;fill:#d0d0d0;fill-rule:nonzero;stroke:#000000;stroke-width:1;stroke-linecap:butt;stroke-linejoin:bevel;stroke-miterlimit:4;stroke-opacity:1;stroke-dasharray:none;marker-start:none"
     d="m 55.914058,16.50437 0.021,0.329 -0.342,3.128 0.888,0.194 -0.429,0.888 -1.008,-0.794 -0.2,-0.131 -0.107,-0.048 -0.28,-0.078 -0.208,0.018 -0.185,0.06 -0.436,0.67 -0.465,0.407 -0.739,0.522 -0.257,0.126 -2.109,0.405 -0.595,-4.222 2.921,-0.955 2.411,-0.257 1.119,-0.262"
     id="Chatham"
     inkscape:connector-curvature="0" />
  <path
     style="font-size:12px;fill:#d0d0d0;fill-opacity:1;fill-rule:nonzero;stroke:#000000;stroke-width:1;stroke-linecap:butt;stroke-linejoin:bevel;stroke-miterlimit:4;stroke-opacity:1;stroke-dasharray:none;marker-start:none"
     d="m 56.481058,20.15537 2.267,0.437 2.2,2.284 -0.618,1.033 -1.406,0.023 -0.311,0.071 -0.915,0.492 -1.857,0.852 -0.32,0.143 -1.159,-1.306 1.69,-3.141 0.429,-0.888"
     id="Harnett"
     inkscape:connector-curvature="0" />
  <path
     style="font-size:12px;fill:#d0d0d0;fill-rule:nonzero;stroke:#000000;stroke-width:1;stroke-linecap:butt;stroke-linejoin:bevel;stroke-miterlimit:4;stroke-opacity:1;stroke-dasharray:none;marker-start:none"
     d="m 52.167058,21.79537 0.257,-0.126 0.739,-0.522 0.465,-0.407 0.436,-0.67 0.185,-0.06 0.208,-0.018 0.28,0.078 0.107,0.048 0.2,0.131 1.008,0.794 -1.69,3.141 -2.195,-2.389"
     id="Lee"
     inkscape:connector-curvature="0" />
  <path
     style="font-size:12px;fill:#d0d0d0;fill-rule:nonzero;stroke:#000000;stroke-width:1;stroke-linecap:butt;stroke-linejoin:bevel;stroke-miterlimit:4;stroke-opacity:1;stroke-dasharray:none;marker-start:none"
     d="m 52.523058,12.17737 2.071,-0.333 0.201,4.922 -2.411,0.257 -0.915,-4.679 1.054,-0.167"
     id="Orange"
     inkscape:connector-curvature="0" />
  <path
     style="font-size:12px;fill:#d0d0d0;fill-rule:nonzero;stroke:#000000;stroke-width:1;stroke-linecap:butt;stroke-linejoin:bevel;stroke-miterlimit:4;stroke-opacity:1;stroke-dasharray:none;marker-start:none"
     d="m 51.996058,8.3193712 3.462,-0.626 0.658,3.9159978 -1.522,0.235 -2.071,0.333 -0.527,-3.8579978"
     id="Person"
     inkscape:connector-curvature="0" />
  <path
     style="font-size:12px;fill:#d0d0d0;fill-rule:nonzero;stroke:#000000;stroke-width:1;stroke-linecap:butt;stroke-linejoin:bevel;stroke-miterlimit:4;stroke-opacity:1;stroke-dasharray:none;marker-start:none"
     d="m 56.116058,11.60937 0.924,2.005 0.644,0.65 -0.045,0.595 -0.116,0.329 -0.232,0.401 -0.603,0.784 -0.774,0.131 -1.119,0.262 -0.201,-4.922 1.522,-0.235"
     id="Durham"
     inkscape:connector-curvature="0" />
  <path
     style="font-size:12px;fill:#d0d0d0;fill-rule:nonzero;stroke:#000000;stroke-width:1;stroke-linecap:butt;stroke-linejoin:bevel;stroke-miterlimit:4;stroke-opacity:1;stroke-dasharray:none;marker-start:none"
     d="m 66.789058,29.61137 4.475,-0.843 2.385,3.235 -1.695,2.295 -0.266,0 -0.726,-0.496 -0.167,-0.162 -0.045,-0.099 0.082,-0.127 -0.419,0.005 -0.812,0.387 -1.002,0.614 -1.436,-0.062 -1.082,-0.358 0.671,-0.991 -0.382,-0.203 -0.316,-0.04 -0.184,-0.113 -0.257,-0.321 -0.028,-0.062 0.14,-0.239 1.064,-2.42"
     id="Pender"
     inkscape:connector-curvature="0" />
  <path
     style="font-size:12px;fill:#d0d0d0;fill-rule:nonzero;stroke:#000000;stroke-width:1;stroke-linecap:butt;stroke-linejoin:bevel;stroke-miterlimit:4;stroke-opacity:1;stroke-dasharray:none;marker-start:none"
     d="m 60.948058,22.87637 2.501,-0.085 1.685,0.96 0.307,1.393 0.558,2.23 -0.153,2.214 0.749,0.225 0.064,-0.036 0.13,-0.166 -1.064,2.42 -3.21,-3.389 -1.712,-1.289 -0.076,-0.117 -0.334,-0.622 -0.253,-0.555 0,-0.095 0.19,-2.055 0.618,-1.033"
     id="Sampson"
     inkscape:connector-curvature="0" />
  <path
     style="font-size:12px;fill:#d0d0d0;fill-rule:nonzero;stroke:#000000;stroke-width:1;stroke-linecap:butt;stroke-linejoin:bevel;stroke-miterlimit:4;stroke-opacity:1;stroke-dasharray:none;marker-start:none"
     d="m 65.189058,18.50937 2.496,-0.314 0.681,2.55 0.185,2.506 -3.417,0.5 -1.685,-0.96 0.405,-0.591 0.816,-1.374 0.519,-2.317"
     id="Wayne"
     inkscape:connector-curvature="0" />
  <path
     style="font-size:12px;fill:#d0d0d0;fill-opacity:1;fill-rule:nonzero;stroke:#000000;stroke-width:1;stroke-linecap:butt;stroke-linejoin:bevel;stroke-miterlimit:4;stroke-opacity:1;stroke-dasharray:none;marker-start:none"
     d="m 63.529058,16.90537 0.447,0.477 0.546,1.02 0.667,0.107 -0.519,2.317 -0.816,1.374 -0.405,0.591 -2.501,0.085 -2.2,-2.284 1.419,-1.987 1.446,-1.61 1.065,-1.082 0.851,0.992"
     id="Johnston"
     inkscape:connector-curvature="0" />
  <path
     style="font-size:12px;fill:#d0d0d0;fill-rule:nonzero;stroke:#000000;stroke-width:1;stroke-linecap:butt;stroke-linejoin:bevel;stroke-miterlimit:4;stroke-opacity:1;stroke-dasharray:none;marker-start:none"
     d="m 57.040058,13.61437 2.177,0.253 0.59,0.14 0.743,0.231 1.402,0.788 0.361,0.301 0.338,0.456 0.027,0.13 -1.065,1.082 -1.446,1.61 -1.419,1.987 -2.267,-0.437 -0.888,-0.194 0.342,-3.128 -0.021,-0.329 0.774,-0.131 0.603,-0.784 0.232,-0.401 0.116,-0.329 0.045,-0.595 -0.644,-0.65"
     id="Wake"
     inkscape:connector-curvature="0" />
  <path
     style="font-size:12px;fill:#d0d0d0;fill-rule:nonzero;stroke:#000000;stroke-width:1;stroke-linecap:butt;stroke-linejoin:bevel;stroke-miterlimit:4;stroke-opacity:1;stroke-dasharray:none;marker-start:none"
     d="m 56.084058,7.5713712 2.804,-0.523 -0.343,0.438 -0.027,0.253 0.086,0.837 0.365,1.9559988 0.252,1.203999 0.14,0.076 -0.144,2.055 -2.177,-0.253 -0.924,-2.005 -0.658,-3.9159978 0.626,-0.122"
     id="Granville"
     inkscape:connector-curvature="0" />
  <path
     style="font-size:12px;fill:#d0d0d0;fill-rule:nonzero;stroke:#000000;stroke-width:1;stroke-linecap:butt;stroke-linejoin:bevel;stroke-miterlimit:4;stroke-opacity:1;stroke-dasharray:none;marker-start:none"
     d="m 58.888058,7.0483712 1.343,-0.27 0.838,3.5109988 -1.708,1.522999 -0.14,-0.076 -0.252,-1.203999 -0.365,-1.9559988 -0.086,-0.837 0.027,-0.253 0.343,-0.438"
     id="Vance"
     inkscape:connector-curvature="0" />
  <path
     style="font-size:12px;fill:#d0d0d0;fill-rule:nonzero;stroke:#000000;stroke-width:1;stroke-linecap:butt;stroke-linejoin:bevel;stroke-miterlimit:4;stroke-opacity:1;stroke-dasharray:none;marker-start:none"
     d="m 63.034058,6.2413712 1.479,-0.293 0.112,0.483 -0.351,4.0879988 -3.205,-0.23 -0.838,-3.5109988 2.803,-0.537"
     id="Warren"
     inkscape:connector-curvature="0" />
  <path
     style="font-size:12px;fill:#d0d0d0;fill-rule:nonzero;stroke:#000000;stroke-width:1;stroke-linecap:butt;stroke-linejoin:bevel;stroke-miterlimit:4;stroke-opacity:1;stroke-dasharray:none;marker-start:none"
     d="m 64.274058,10.519371 -1.596,5.393999 -0.027,-0.13 -0.338,-0.456 -0.361,-0.301 -1.402,-0.788 -0.743,-0.231 -0.59,-0.14 0.144,-2.055 1.708,-1.522999 3.205,0.23"
     id="Franklin"
     inkscape:connector-curvature="0" />
  <path
     style="font-size:12px;fill:#d0d0d0;fill-opacity:1;fill-rule:nonzero;stroke:#000000;stroke-width:1;stroke-linecap:butt;stroke-linejoin:bevel;stroke-miterlimit:4;stroke-opacity:1;stroke-dasharray:none;marker-start:none"
     d="m 67.528058,10.550371 -0.028,0.625999 -0.422,2.128 -0.172,1.149 -3.377,2.452 -0.851,-0.992 1.596,-5.393999 3.254,0.031"
     id="Nash"
     inkscape:connector-curvature="0" />
  <path
     style="font-size:12px;fill:#d0d0d0;fill-opacity:1;fill-rule:nonzero;stroke:#000000;stroke-width:1;stroke-linecap:butt;stroke-linejoin:bevel;stroke-miterlimit:4;stroke-opacity:1;stroke-dasharray:none;marker-start:none"
     d="m 71.931058,4.4653712 0.929,0.803 -0.41,1.461 -0.199,1.644 -0.643,1.168 -0.06,0.058 -0.104,-0.019 -0.878,-0.373 -2.263,-1.532 -0.184,-0.816 -1.024,-0.55 -2.425,0.041 -0.045,0.081 -0.112,-0.483 1.338,-0.256 4.755,-0.938 1.325,-0.289"
     id="Northampton"
     inkscape:connector-curvature="0" />
  <path
     style="font-size:12px;fill:#d0d0d0;fill-opacity:1;fill-rule:nonzero;stroke:#000000;stroke-width:1;stroke-linecap:butt;stroke-linejoin:bevel;stroke-miterlimit:4;stroke-opacity:1;stroke-dasharray:none;marker-start:none"
     d="m 64.625058,6.4313712 0.045,-0.081 2.425,-0.041 1.024,0.55 0.184,0.816 2.263,1.532 0.878,0.373 0.104,0.019 0.06,-0.058 -0.123,1.2669978 -0.585,1.04 -0.213,0.059 -1.041,-0.24 -0.179,-0.386 -0.555,-0.298 -1.384,-0.432999 -3.254,-0.031 0.351,-4.0879988"
     id="Halifax"
     inkscape:connector-curvature="0" />
  <path
     style="font-size:12px;fill:#d0d0d0;fill-rule:nonzero;stroke:#000000;stroke-width:1;stroke-linecap:butt;stroke-linejoin:bevel;stroke-miterlimit:4;stroke-opacity:1;stroke-dasharray:none;marker-start:none"
     d="m 70.900058,11.84837 0.995,2.258 -0.437,-0.094 -0.757,0.572 -0.216,0.369 -0.298,0.384 -1.105,1.203 -0.729,-0.559 -0.47,-0.947 -0.977,-0.581 0.172,-1.149 0.422,-2.128 0.028,-0.625999 1.384,0.432999 0.555,0.298 0.179,0.386 1.041,0.24 0.213,-0.059"
     id="Edgecombe"
     inkscape:connector-curvature="0" />
  <path
     style="font-size:12px;fill:#d0d0d0;fill-opacity:1;fill-rule:nonzero;stroke:#000000;stroke-width:1;stroke-linecap:butt;stroke-linejoin:bevel;stroke-miterlimit:4;stroke-opacity:1;stroke-dasharray:none;marker-start:none"
     d="m 66.906058,14.45337 0.977,0.581 0.47,0.947 0.729,0.559 -0.337,0.397 -1.06,1.258 -2.496,0.314 -0.667,-0.107 -0.546,-1.02 -0.447,-0.477 3.377,-2.452"
     id="Wilson"
     inkscape:connector-curvature="0" />
  <path
     style="font-size:12px;fill:#d0d0d0;fill-rule:nonzero;stroke:#000000;stroke-width:1;stroke-linecap:butt;stroke-linejoin:bevel;stroke-miterlimit:4;stroke-opacity:1;stroke-dasharray:none;marker-start:none"
     d="m 68.745058,16.93737 2.863,2.425 -0.831,0.739 -0.645,0.505 -0.338,0.152 -0.093,0.019 -0.19,-0.216 -1.145,0.184 -0.681,-2.55 1.06,-1.258"
     id="Greene"
     inkscape:connector-curvature="0" />
  <path
     style="font-size:12px;fill:#d0d0d0;fill-rule:nonzero;stroke:#000000;stroke-width:1;stroke-linecap:butt;stroke-linejoin:bevel;stroke-miterlimit:4;stroke-opacity:1;stroke-dasharray:none;marker-start:none"
     d="m 72.698058,20.29037 -0.574,1.591 -0.567,-0.077 0.343,0.893 -0.005,0.085 -0.689,1.361 -1.167,1.069 -1.488,-1.961 -0.185,-2.506 1.145,-0.184 0.19,0.216 0.093,-0.019 0.338,-0.152 0.645,-0.505 0.831,-0.739 1.09,0.928"
     id="Lenoir"
     inkscape:connector-curvature="0" />
  <path
     style="font-size:12px;fill:#d0d0d0;fill-rule:nonzero;stroke:#000000;stroke-width:1;stroke-linecap:butt;stroke-linejoin:bevel;stroke-miterlimit:4;stroke-opacity:1;stroke-dasharray:none;marker-start:none"
     d="m 72.124058,21.88137 0.109,0.014 3.155,1.257 0.32,0.171 0.392,-0.239 0.117,0.023 0.064,0.077 0.189,0.585 0.392,2.426 0.293,0.314 -0.735,0.384 -0.784,-1.072 -0.05,-0.061 -0.577,-0.444 -0.325,-0.04 -2.955,0 -1.069,0.278 -0.621,-0.342 1.167,-1.069 0.689,-1.361 0.005,-0.085 -0.343,-0.893 0.567,0.077"
     id="Jones"
     inkscape:connector-curvature="0" />
  <path
     style="font-size:12px;fill:#d0d0d0;fill-rule:nonzero;stroke:#000000;stroke-width:1;stroke-linecap:butt;stroke-linejoin:bevel;stroke-miterlimit:4;stroke-opacity:1;stroke-dasharray:none;marker-start:none"
     d="m 65.134058,23.75137 3.417,-0.5 1.488,1.961 0.621,0.342 0.406,0.563 0.108,2.42 0.009,0.081 0.081,0.15 -4.475,0.843 -0.13,0.166 -0.064,0.036 -0.749,-0.225 0.153,-2.214 -0.558,-2.23 -0.307,-1.393"
     id="Duplin"
     inkscape:connector-curvature="0" />
  <path
     style="font-size:12px;fill:#d0d0d0;fill-rule:nonzero;stroke:#000000;stroke-width:1;stroke-linecap:butt;stroke-linejoin:bevel;stroke-miterlimit:4;stroke-opacity:1;stroke-dasharray:none;marker-start:none"
     d="m 70.660058,25.55437 1.069,-0.278 2.955,0 0.325,0.04 0.577,0.444 0.05,0.061 0.784,1.072 0.924,1.744 -3.695,3.366 -2.385,-3.235 -0.081,-0.15 -0.009,-0.081 -0.108,-2.42 -0.406,-0.563"
     id="Onslow"
     inkscape:connector-curvature="0" />
  <path
     style="font-size:12px;fill:#d0d0d0;fill-rule:nonzero;stroke:#000000;stroke-width:1;stroke-linecap:butt;stroke-linejoin:bevel;stroke-miterlimit:4;stroke-opacity:1;stroke-dasharray:none;marker-start:none"
     d="m 81.186058,22.81437 0.044,0.086 0.185,0.197 0.423,-0.044 1.988,-0.216 0.306,1.541 2.105,-2.24 -0.519,1.244 -2.041,3.659 -0.527,0.324 -0.354,-0.121 -1.084,-0.211 -0.533,0.063 -0.444,0.09 -0.479,0.139 -0.892,0.326 -0.834,0.346 -0.091,0.04 -0.037,0.018 -0.27,0.132 -0.229,0.131 -0.392,0.225 -0.167,0.094 -0.924,-1.744 0.735,-0.384 1.366,-0.383 1.951,-0.869 0.609,-0.424 0.194,-0.617 0.049,-0.293 -0.073,-0.067 -0.653,-0.42 0.588,-0.622"
     id="Carteret"
     inkscape:connector-curvature="0" />
  <path
     style="font-size:12px;fill:#d0d0d0;fill-rule:nonzero;stroke:#000000;stroke-width:1;stroke-linecap:butt;stroke-linejoin:bevel;stroke-miterlimit:4;stroke-opacity:1;stroke-dasharray:none;marker-start:none"
     d="m 80.724058,18.67737 1.141,-0.009 0.207,0.063 0.153,0.22 0.096,0.221 0.04,0.199 -0.149,0.671 -0.294,1.252 -0.161,0.38 -0.571,1.14 -0.588,0.622 -0.45,0.465 -0.181,0.085 -0.401,0.054 -0.928,-0.229 -0.582,-0.325 -0.243,-0.257 -0.474,-1.429 0.114,-0.614 0.135,-0.32 0.411,-0.495 0.607,0.374 2.137,-0.694 0.089,-0.487 0,-0.117 -0.108,-0.77"
     id="Pamlico"
     inkscape:connector-curvature="0" />
  <path
     style="font-size:12px;fill:#d0d0d0;fill-rule:nonzero;stroke:#000000;stroke-width:1;stroke-linecap:butt;stroke-linejoin:bevel;stroke-miterlimit:4;stroke-opacity:1;stroke-dasharray:none;marker-start:none"
     d="m 74.550058,18.87937 3.449,1.492 -0.411,0.495 -0.135,0.32 -0.114,0.614 0.474,1.429 0.243,0.257 0.582,0.325 0.928,0.229 0.401,-0.054 0.181,-0.085 0.45,-0.465 0.653,0.42 0.073,0.067 -0.049,0.293 -0.194,0.617 -0.609,0.424 -1.951,0.869 -1.366,0.383 -0.293,-0.314 -0.392,-2.426 -0.189,-0.585 -0.064,-0.077 -0.117,-0.023 -0.392,0.239 -0.32,-0.171 -3.155,-1.257 -0.109,-0.014 0.574,-1.591 1.852,-1.411"
     id="Craven"
     inkscape:connector-curvature="0" />
  <path
     style="font-size:12px;fill:#d0d0d0;fill-rule:nonzero;stroke:#000000;stroke-width:1;stroke-linecap:butt;stroke-linejoin:bevel;stroke-miterlimit:4;stroke-opacity:1;stroke-dasharray:none;marker-start:none"
     d="m 71.895058,14.10637 2.023,0.74 0.632,4.033 -1.852,1.411 -1.09,-0.928 -2.863,-2.425 0.337,-0.397 1.105,-1.203 0.298,-0.384 0.216,-0.369 0.757,-0.572 0.437,0.094"
     id="Pitt"
     inkscape:connector-curvature="0" />
  <path
     style="font-size:12px;fill:#d0d0d0;fill-rule:nonzero;stroke:#000000;stroke-width:1;stroke-linecap:butt;stroke-linejoin:bevel;stroke-miterlimit:4;stroke-opacity:1;stroke-dasharray:none;marker-start:none"
     d="m 71.485058,10.80837 0.014,0.071 0.094,0.145 1.541,1.243 0.123,0.072 1.653,0.605 0.118,0.031 2.01,-0.248 0.744,-0.415 -0.443,2.204 -0.986,0.686 -0.325,0.206 -0.914,-0.284 -1.196,-0.278 -2.023,-0.74 -0.995,-2.258 0.585,-1.04"
     id="Martin"
     inkscape:connector-curvature="0" />
  <path
     style="font-size:12px;fill:#d0d0d0;fill-rule:nonzero;stroke:#000000;stroke-width:1;stroke-linecap:butt;stroke-linejoin:bevel;stroke-miterlimit:4;stroke-opacity:1;stroke-dasharray:none;marker-start:none"
     d="m 77.303058,6.6933712 1.244,-0.99 -0.012,1.499 0.509,1.59 0.04,0.041 0.118,0.059 0.229,0.035 0.419,0.032 0.918,-0.054 -2.459,1.2299988 -0.97,-2.7579988 -0.036,-0.684"
     id="Chowan"
     inkscape:connector-curvature="0" />
  <path
     style="font-size:12px;fill:#d0d0d0;fill-rule:nonzero;stroke:#000000;stroke-width:1;stroke-linecap:butt;stroke-linejoin:bevel;stroke-miterlimit:4;stroke-opacity:1;stroke-dasharray:none;marker-start:none"
     d="m 74.446058,3.9923712 0.194,0.289 -0.014,0.126 -0.175,0.509 -0.167,0.077 0.174,0.699 0.038,0.046 0.158,0.107 0.288,0.085 0.92,0.153 0.279,0 1.162,0.61 0.036,0.684 -1.951,0.41 -1.095,0.271 -1.771,0.315 -0.271,0 0.199,-1.644 0.41,-1.461 -0.929,-0.803 2.497,-0.469 0.018,-0.004"
     id="Hertford"
     inkscape:connector-curvature="0" />
  <path
     style="font-size:12px;fill:#d0d0d0;fill-rule:nonzero;stroke:#000000;stroke-width:1;stroke-linecap:butt;stroke-linejoin:bevel;stroke-miterlimit:4;stroke-opacity:1;stroke-dasharray:none;marker-start:none"
     d="m 77.339058,7.3773712 0.97,2.7579988 -0.041,1.010999 -0.486,1.166 -0.744,0.415 -2.01,0.248 -0.118,-0.031 -1.653,-0.605 -0.123,-0.072 -1.541,-1.243 -0.094,-0.145 -0.014,-0.071 0.123,-1.2669978 0.643,-1.168 0.271,0 1.771,-0.315 1.095,-0.271 1.951,-0.41"
     id="Bertie"
     inkscape:connector-curvature="0" />
  <path
     style="font-size:12px;fill:#d0d0d0;fill-rule:nonzero;stroke:#000000;stroke-width:1;stroke-linecap:butt;stroke-linejoin:bevel;stroke-miterlimit:4;stroke-opacity:1;stroke-dasharray:none;marker-start:none"
     d="m 78.201058,3.1363712 0.608,0.401 0.734,1.604 -0.996,0.562 -1.244,0.99 -1.162,-0.61 -0.279,0 -0.92,-0.153 -0.288,-0.085 -0.158,-0.107 -0.038,-0.046 -0.174,-0.699 0.167,-0.077 0.175,-0.509 0.014,-0.126 -0.194,-0.289 3.755,-0.856"
     id="Gates"
     inkscape:connector-curvature="0" />
  <path
     style="font-size:12px;fill:#d0d0d0;fill-rule:nonzero;stroke:#000000;stroke-width:1;stroke-linecap:butt;stroke-linejoin:bevel;stroke-miterlimit:4;stroke-opacity:1;stroke-dasharray:none;marker-start:none"
     d="m 78.707058,3.0283712 1.792,-0.379 1.893,1.253 1.226,0.671 0.05,-0.044 0.139,0.013 0.23,0.09 0.762,0.577 1.039,1.456 0.007,0.032 -1.659,0.044 -0.312,-0.351 -0.784,-0.55 -1.527,-0.929 -2.06,-0.946 -0.694,-0.428 -0.608,-0.401 0.506,-0.108"
     id="Camden"
     inkscape:connector-curvature="0" />
  <path
     style="font-size:12px;fill:#d0d0d0;fill-rule:nonzero;stroke:#000000;stroke-width:1;stroke-linecap:butt;stroke-linejoin:bevel;stroke-miterlimit:4;stroke-opacity:1;stroke-dasharray:none;marker-start:none"
     d="m 78.809058,3.5373712 0.694,0.428 2.06,0.946 1.527,0.929 0.784,0.55 0.312,0.351 -1.262,1.131 -1.018,-0.662 -1.254,-0.721 -1.004,-1.171 -0.105,-0.177 -0.734,-1.604"
     id="Pasquotank"
     inkscape:connector-curvature="0" />
  <path
     style="font-size:12px;fill:#d0d0d0;fill-rule:nonzero;stroke:#000000;stroke-width:1;stroke-linecap:butt;stroke-linejoin:bevel;stroke-miterlimit:4;stroke-opacity:1;stroke-dasharray:none;marker-start:none"
     d="m 79.543058,5.1413712 0.105,0.177 1.004,1.171 1.254,0.721 1.018,0.662 -2.156,1.033 -0.918,0.054 -0.419,-0.032 -0.229,-0.035 -0.118,-0.059 -0.04,-0.041 -0.509,-1.59 0.012,-1.499 0.996,-0.562"
     id="Perquimans"
     inkscape:connector-curvature="0" />
  <path
     style="font-size:12px;fill:#d0d0d0;fill-rule:nonzero;stroke:#000000;stroke-width:1;stroke-linecap:butt;stroke-linejoin:bevel;stroke-miterlimit:4;stroke-opacity:1;stroke-dasharray:none;marker-start:none"
     d="m 79.449058,14.08737 1.849,1.375 -0.844,0.83 -0.117,0.068 -0.032,0.054 0,0.054 0.041,0.153 0.329,0.61 0.357,0.472 0.175,0.203 -0.483,0.771 0.108,0.77 0,0.117 -0.089,0.487 -2.137,0.694 -0.607,-0.374 -3.449,-1.492 -0.632,-4.033 1.196,0.278 0.914,0.284 0.325,-0.206 0.986,-0.686 2.11,-0.429"
     id="Beaufort"
     inkscape:connector-curvature="0" />
  <path
     style="font-size:12px;fill:#d0d0d0;fill-rule:nonzero;stroke:#000000;stroke-width:1;stroke-linecap:butt;stroke-linejoin:bevel;stroke-miterlimit:4;stroke-opacity:1;stroke-dasharray:none;marker-start:none"
     d="m 78.268058,11.14637 0.009,0.008 0.208,0.085 0.067,0.005 0.595,-0.162 0.987,-0.384 0.312,-0.209999 0.107,-0.15 0.596,-0.307 0.099,0.038 0.103,0.089 0.307,0.324 0.167,1.361999 -0.208,0.685 0.325,1.14 -2.493,0.418 -2.11,0.429 0.443,-2.204 0.486,-1.166"
     id="Washington"
     inkscape:connector-curvature="0" />
  <path
     style="font-size:12px;fill:#d0d0d0;fill-rule:nonzero;stroke:#000000;stroke-width:1;stroke-linecap:butt;stroke-linejoin:bevel;stroke-miterlimit:4;stroke-opacity:1;stroke-dasharray:none;marker-start:none"
     d="m 85.764058,13.240369 -3.822,0.429 -0.325,-1.14 0.208,-0.685 -0.167,-1.361999 0.8,-0.5729998 0.551,-0.318999 0.365,-0.144 1.164,-0.243 0.442,0.198 0.126,0.113 0.252,0.6799988 -0.023,0.167 -0.004,0.364999 0.104,0.708 0.185,0.725 0.17,0.852 -0.026,0.229"
     id="Tyrrell"
     inkscape:connector-curvature="0" />
  <path
     style="font-size:12px;fill:#d0d0d0;fill-rule:nonzero;stroke:#000000;stroke-width:1;stroke-linecap:butt;stroke-linejoin:bevel;stroke-miterlimit:4;stroke-opacity:1;stroke-dasharray:none;marker-start:none"
     d="m 85.764058,13.240369 0.026,-0.229 -0.17,-0.852 -0.185,-0.725 -0.104,-0.708 0.004,-0.364999 0.023,-0.167 0.432,-0.8209988 0.077,-0.085 0.361,-0.238 0.198,-0.063 0.194,-0.037 0.112,0.004 0.455,0.126 0.361,0.334 0.73,1.0289988 0.119,0.192999 0.484,1.541 0.011,0.059 0.018,0.901 -0.334,0.69 -0.207,0.113 -0.402,0.13 -0.355,-0.081 -1.848,-0.749 m 2.866,-4.0689978 0.185,0.085 0.184,0.145 0.24,0.247999 0.184,0.315 0.14,0.5089998 -0.045,0.096 -0.041,0.008 -0.483,-0.086 -0.089,-0.067 -0.757,-1.1039988 -0.055,-0.095 -0.005,-0.027 0.077,-0.068 0.131,-0.026 0.154,0 0.18,0.067 m 1.208,9.4289978 0.189,-0.104 0.149,-0.099 0.816,-0.564 0.874,-0.648 0.024,-0.207 -0.047,-1.308 -0.062,-0.874 -0.109,-1.294 -0.131,-0.586 -0.094,-0.293 -0.135,-0.305 -0.162,-0.204 -0.128,-0.162 -0.522,-1.123 0.038,-0.045 0.057,0.009 0.019,0.005 0.021,0.027 0.267,0.325 0.103,0.167 0.311,0.594 0.184,0.428 0.253,0.568 0.081,0.555 0.019,0.166 0.094,0.789 0.089,1.154 0.043,0.942 -0.006,1.145 -0.054,0.118 -0.121,-0.005 -0.167,-0.014 -0.203,0.059 -0.297,0.112 -0.239,0.149 -1.069,0.694 -0.085,-0.171 m -3.029,-13.0579978 0.564,0.906 0.003,0.004 0.312,0.47 0.315,0.41 0.546,0.64 0.581,0.784 0.753,1.014999 0.495,0.7649998 -0.048,0.148999 -1.019,-1.1349978 -1.735,-2.097 -0.969,-1.811 0.202,-0.1"
     id="Dare"
     inkscape:connector-curvature="0" />
  <path
     style="font-size:12px;fill:#d0d0d0;fill-rule:nonzero;stroke:#000000;stroke-width:1;stroke-linecap:butt;stroke-linejoin:bevel;stroke-miterlimit:4;stroke-opacity:1;stroke-dasharray:none;marker-start:none"
     d="m 82.418058,2.2443712 2.571,-0.55 1.82,3.848 -0.202,0.1 -1.091,-2.268 -0.672,-0.738 -0.081,-0.032 -1.027,-0.049 -0.151,0.066 -0.033,0.046 -0.043,0.095 0.006,0.153 0.184,0.28 0.108,0.126 0.1,0.053 0.486,0.222 0.649,0.722 1.817,2.794 0.171,0.369 0.009,0.139 -0.063,0 -0.424,-0.175 -0.143,-0.095 -0.272,-0.275 -0.292,-0.378 -0.007,-0.032 -1.039,-1.456 -0.762,-0.577 -0.23,-0.09 -0.139,-0.013 -0.05,0.044 -1.226,-0.671 -1.893,-1.253 1.919,-0.405"
     id="Currituck"
     inkscape:connector-curvature="0" />
  <path
     style="font-size:12px;fill:#d0d0d0;fill-rule:nonzero;stroke:#000000;stroke-width:1;stroke-linecap:butt;stroke-linejoin:bevel;stroke-miterlimit:4;stroke-opacity:1;stroke-dasharray:none;marker-start:none"
     d="m 85.764058,13.24037 1.848,0.749 -0.239,0.18 -0.447,0.658 -0.031,0.064 -0.279,0.739 0.04,0.148 -0.005,0.135 -0.057,0.415 -0.014,0.086 -0.05,0.094 -0.383,0.609 -0.64,0.699 -0.063,0.04 -2.614,0.253 -0.095,0.005 -0.848,-0.105 -0.68,-0.103 -0.175,-0.203 -0.357,-0.472 -0.329,-0.61 -0.041,-0.153 0,-0.054 0.032,-0.054 0.117,-0.068 0.844,-0.83 -1.849,-1.375 2.493,-0.418 3.822,-0.429 m 4.074,5.36 0.085,0.171 -0.193,0.108 -0.186,0.149 -0.463,0.374 -0.654,0.563 -0.288,0.253 -0.325,0.383 -0.153,0.225 -0.104,0.095 -0.031,-0.04 0.01,-0.051 0.161,-0.459 0.185,-0.265 0.654,-0.573 0.991,-0.794 0.311,-0.139"
     id="Hyde"
     inkscape:connector-curvature="0" />
</svg>
