<?xml version="1.0" encoding="UTF-8" standalone="no"?>
<!-- Created with Inkscape (http://www.inkscape.org/) -->

<svg
   xmlns:dc="http://purl.org/dc/elements/1.1/"
   xmlns:cc="http://creativecommons.org/ns#"
   xmlns:rdf="http://www.w3.org/1999/02/22-rdf-syntax-ns#"
   xmlns:svg="http://www.w3.org/2000/svg"
   xmlns="http://www.w3.org/2000/svg"
   xmlns:sodipodi="http://sodipodi.sourceforge.net/DTD/sodipodi-0.dtd"
   xmlns:inkscape="http://www.inkscape.org/namespaces/inkscape"
   version="1.0"
   width="96.400002"
   height="82.379997"
   sodipodi:version="0.32"
   inkscape:version="0.48.2 r9819"
   sodipodi:docname="fl.svg"
   inkscape:output_extension="org.inkscape.output.svg.inkscape"
   id="svg3258">
  <metadata
     id="metadata3260">
    <rdf:RDF>
      <cc:Work
         rdf:about="">
        <dc:format>image/svg+xml</dc:format>
        <dc:type
           rdf:resource="http://purl.org/dc/dcmitype/StillImage" />
      </cc:Work>
    </rdf:RDF>
  </metadata>
  <defs
     id="defs3262" />
  <sodipodi:namedview
     pagecolor="#ffffff"
     bordercolor="#666666"
     borderopacity="1"
     objecttolerance="10"
     gridtolerance="10"
     guidetolerance="10"
     inkscape:pageopacity="0"
     inkscape:pageshadow="2"
     inkscape:window-width="1366"
     inkscape:window-height="716"
     fit-margin-top="0"
     fit-margin-left="0"
     fit-margin-right="0"
     fit-margin-bottom="0"
     inkscape:zoom="4.5491794"
     inkscape:cx="8.4866449"
     inkscape:cy="38.066552"
     inkscape:window-x="-8"
     inkscape:window-y="-8"
     inkscape:window-maximized="1"
     inkscape:current-layer="svg3258"
     id="namedview3264"
     showgrid="false" />
  <path
     style="font-size:12px;fill:#d0d0d0;fill-rule:nonzero;stroke:#000000;stroke-width:1;stroke-linecap:butt;stroke-linejoin:bevel;stroke-miterlimit:4;stroke-opacity:1;stroke-dasharray:none;marker-start:none"
     d="m 27.244878,10.003588 0.465,4.687 0.411,3.543 -1.16,-0.352 -0.252,-0.104 -0.081,-0.053 -0.306,-0.218 -0.387,-0.356 -2.44,-1.415 -0.179,-0.098 -0.127,-0.072 -0.121,-0.068 -0.195,-0.095 -0.422,-0.216 -0.177,-0.086 -0.144,-0.068 -0.172,-0.071 -0.207,-0.096 -0.184,-0.066 -0.667,-0.244 -0.131,-1.546 0.274,-0.302 1.195,-0.518 3.376,-0.325 0.671,-0.073 -0.166,-1.671 0.563,-0.063 0.563,-0.054"
     id="Bay"
     inkscape:connector-curvature="0" />
  <path
     style="font-size:12px;fill:#d0d0d0;fill-rule:nonzero;stroke:#000000;stroke-width:1;stroke-linecap:butt;stroke-linejoin:bevel;stroke-miterlimit:4;stroke-opacity:1;stroke-dasharray:none;marker-start:none"
     d="m 25.483878,4.6165878 5.327,-0.648 1.946,3.524 -0.59,1.433 -1.816,0.198 -0.784,0.5870006 -0.839,0.139 -1.483,0.1539996 -0.563,0.054 -0.279,-2.7940002 -0.852,-0.479 -1.055,0.105 0.878,-2.254 0.11,-0.019"
     id="Jackson"
     inkscape:connector-curvature="0" />
  <path
     style="font-size:12px;fill:#d0d0d0;fill-rule:nonzero;stroke:#000000;stroke-width:1;stroke-linecap:butt;stroke-linejoin:bevel;stroke-miterlimit:4;stroke-opacity:1;stroke-dasharray:none;marker-start:none"
     d="m 70.499878,50.120588 5.665,-0.869 0.469,3.335 -5.695,0.847 0.02,-0.414 -0.126,-0.708 -0.203,-1.006 -0.04,-0.139 -0.167,-0.082 -0.36,0.064 -0.099,0.058 -0.542,0.479 -0.057,0.089 0.261,1.776 -0.032,0.055 -0.495,0.081 -0.132,-0.119 -0.031,0 -0.072,0.123 -0.073,0.249 -0.157,0.008 -0.054,-0.176 -0.054,-0.166 -0.027,-0.05 -0.005,-0.009 -1.483,-1.804 1.38,-0.193 -0.104,-0.757 -0.053,-0.352 2.266,-0.32"
     id="Charlotte"
     inkscape:connector-curvature="0" />
  <path
     style="font-size:12px;fill:#d0d0d0;fill-rule:nonzero;stroke:#000000;stroke-width:1;stroke-linecap:butt;stroke-linejoin:bevel;stroke-miterlimit:4;stroke-opacity:1;stroke-dasharray:none;marker-start:none"
     d="m 68.830878,54.605588 1.277,2.406 0.154,0.144 0.215,0.122 0.744,0.18 0.112,-0.157 0.159,-0.076 0.594,0.117 0,0.026 -0.518,0.424 -0.13,0.064 -0.09,0.012 -0.181,-0.012 -0.352,-0.095 -0.589,-0.316 -0.055,-0.045 -0.053,-0.049 -0.091,-0.159 -1.19,-2.194 -0.006,-0.392 m 2.108,-1.172 5.695,-0.847 0.523,3.23 0.194,1.141 -0.901,1.492 -1.858,0.297 -0.329,-0.12 -0.365,-0.578 -0.585,-0.541 -1.272,-0.816 -1.262,-1.884 0.16,-1.374"
     id="Lee"
     inkscape:connector-curvature="0" />
  <path
     style="font-size:12px;fill:#d0d0d0;fill-rule:nonzero;stroke:#000000;stroke-width:1;stroke-linecap:butt;stroke-linejoin:bevel;stroke-miterlimit:4;stroke-opacity:1;stroke-dasharray:none;marker-start:none"
     d="m 76.633878,52.586588 4.529,-0.686 2.597,-0.418 0.302,-2.507 1.316,7.87 0.161,0.933 -4.47,0.788 -0.369,-2.127 -0.19,-1.19 -3.353,0.567 -0.523,-3.23"
     id="Hendry"
     inkscape:connector-curvature="0" />
  <path
     style="font-size:12px;fill:#d0d0d0;fill-rule:nonzero;stroke:#000000;stroke-width:1;stroke-linecap:butt;stroke-linejoin:bevel;stroke-miterlimit:4;stroke-opacity:1;stroke-dasharray:none;marker-start:none"
     d="m 85.538878,57.778588 0.645,3.51 0.352,2.183 -5.462,0.896 -0.081,-0.162 -0.054,-0.058 -0.542,-0.303 -0.292,-0.121 -0.086,-0.027 -1.123,-0.239 -0.139,0 -1.347,0.251 -0.109,0.073 -0.095,0.118 -0.013,0.135 -0.032,0.243 -0.044,0.154 -0.081,-0.009 -0.064,-0.064 -0.734,-1.037 -1.014,-1.73 -0.123,-0.474 -0.08,-0.32 -0.298,-1.045 -0.252,-0.708 -0.194,-0.396 -0.014,-0.022 0.329,0.12 1.858,-0.297 0.901,-1.492 -0.194,-1.141 3.353,-0.567 0.19,1.19 0.369,2.127 4.47,-0.788"
     id="Collier"
     inkscape:connector-curvature="0" />
  <path
     style="font-size:12px;fill:#d0d0d0;fill-rule:nonzero;stroke:#000000;stroke-width:1;stroke-linecap:butt;stroke-linejoin:bevel;stroke-miterlimit:4;stroke-opacity:1;stroke-dasharray:none;marker-start:none"
     d="m 90.511878,74.684588 -0.132,0.28 -0.472,0.423 -0.469,0.405 -0.569,0.208 -0.048,0.013 0,-0.004 -0.01,-0.009 0.05,-0.059 0.555,-0.554 1.004,-0.761 0.091,0.058 m 4.29,-6.644 -0.072,0.051 -0.166,0.314 -0.699,1.794 -0.02,0.081 0.083,0.185 -0.072,0.203 -0.167,0.334 -1.848,2.52 -0.057,0.067 -0.916,0.874 -0.028,-0.027 0,-0.009 0.005,-0.059 0.369,-0.564 0.257,-0.225 0.538,-0.621 0.351,-0.424 0.617,-0.932 0.103,-0.19 0.664,-1.406 0.788,-2.023 0.27,0.057 m -7.247,8.852 -0.51,0.465 -0.68,0.464 -0.338,0.099 -0.194,-0.148 -0.027,-0.025 -0.022,-0.038 0.996,-0.563 1.379,-0.767 0.008,0.013 0.064,0.135 -0.059,0.073 -0.617,0.292 m -7.054,2.272 0.009,-0.136 0.163,-0.328 1.572,-0.816 0.446,0.076 0.826,0.194 0.338,0.519 0,0.031 -0.05,0.041 -0.113,0.071 -0.212,0.136 -0.698,0.343 -4.457,1.636 -0.285,0.067 -0.031,-0.017 -0.051,-0.212 0.024,-0.081 0.172,-0.237 0.536,-0.134 0.103,-0.012 0.067,0.067 0.051,0.018 0.41,-0.19 0.171,-0.098 0.446,-0.375 0.563,-0.563 m 6.035,-15.693 0.887,5.548 0.524,2.122 0.122,0.175 0.009,0.005 -0.704,0.568 -0.937,0.371 -0.934,0.22 -0.188,-0.077 -0.514,-0.297 -0.103,-0.082 -0.479,-0.675 -0.031,-0.298 0.018,-0.568 0.049,-0.455 0.028,-0.108 0.077,-0.122 0.067,-0.036 0.153,0.031 0.026,-0.085 -0.008,-0.126 -0.814,-1.271 -1.335,-2.033 -1.375,-1.911 5.462,-0.896"
     id="Monroe"
     inkscape:connector-curvature="0" />
  <path
     style="font-size:12px;fill:#d0d0d0;fill-opacity:1;fill-rule:nonzero;stroke:#000000;stroke-width:1;stroke-linecap:butt;stroke-linejoin:bevel;stroke-miterlimit:4;stroke-opacity:1;stroke-dasharray:none;marker-start:none"
     d="m 94.801878,68.040588 -0.27,-0.057 0.122,-0.596 0.441,-1.483 0.086,-0.158 0.054,0 0.086,0.442 -0.203,0.947 -0.316,0.905 m -8.618,-6.752 1.118,-0.176 1.163,0.095 2.78,-0.455 1.66,-0.36 0.356,-0.158 0.374,-0.077 0.45,-0.085 0.843,-0.168 0.011,0.033 0.116,0.712 0.135,0.942 0.022,0.293 0.028,0.585 -0.064,0.293 -0.055,0.132 -0.233,0.193 -0.095,-0.101 -0.153,-0.071 -0.148,0.042 -0.338,0.206 -0.114,0.127 -0.031,0.099 -0.595,2.474 -0.052,0.437 0.044,0.263 0.323,0.986 0.077,0.072 0.122,0 0.054,0.064 -0.018,0.143 -0.22,0.483 -0.488,0.73 -0.027,0.03 -0.306,0.344 -0.649,0.712 -1.504,0.753 -0.335,0.162 -0.45,0.126 -0.74,0.131 -1.167,0.022 -0.009,-0.005 -0.122,-0.175 -0.524,-2.122 -0.887,-5.548 -0.352,-2.183"
     id="Miami-Dade"
     inkscape:connector-curvature="0" />
  <path
     style="font-size:12px;fill:#d0d0d0;fill-opacity:1;fill-rule:nonzero;stroke:#000000;stroke-width:1;stroke-linecap:butt;stroke-linejoin:bevel;stroke-miterlimit:4;stroke-opacity:1;stroke-dasharray:none;marker-start:none"
     d="m 85.377878,56.845588 6.72,-1.11 0.55,-0.089 2.042,-0.171 0.238,4.429 -0.843,0.168 -0.45,0.085 -0.374,0.077 -0.356,0.158 -1.66,0.36 -2.78,0.455 -1.163,-0.095 -1.118,0.176 -0.645,-3.51 -0.161,-0.933"
     id="Broward"
     inkscape:connector-curvature="0" />
  <path
     style="font-size:12px;fill:#d0d0d0;fill-opacity:1;fill-rule:nonzero;stroke:#000000;stroke-width:1;stroke-linecap:butt;stroke-linejoin:bevel;stroke-miterlimit:4;stroke-opacity:1;stroke-dasharray:none;marker-start:none"
     d="m 84.061878,48.975588 5.733,-0.929 0.117,-0.018 2.661,-0.419 0.683,-0.296 0.203,0.446 0.221,0.474 0.193,0.418 0.302,0.761 0.19,1.204 0.157,1.117 0.055,0.55 0.13,2.989 -0.017,0.203 -2.042,0.171 -0.55,0.089 -6.72,1.11 -1.316,-7.87"
     id="Palm Beach"
     inkscape:connector-curvature="0" />
  <path
     style="font-size:12px;fill:#d0d0d0;fill-rule:nonzero;stroke:#000000;stroke-width:1;stroke-linecap:butt;stroke-linejoin:bevel;stroke-miterlimit:4;stroke-opacity:1;stroke-dasharray:none;marker-start:none"
     d="m 70.182878,47.899588 0.317,2.221 -2.266,0.32 0.053,0.352 0.104,0.757 -1.38,0.193 -2.036,-3.082 -0.121,-0.168 -0.173,-0.232 -0.107,-0.151 -0.515,-0.635 -0.292,-0.296 -0.613,-0.614 4.465,-0.595 0.312,2.245 2.252,-0.315"
     id="Sarasota"
     inkscape:connector-curvature="0" />
  <path
     style="font-size:12px;fill:#d0d0d0;fill-rule:nonzero;stroke:#000000;stroke-width:1;stroke-linecap:butt;stroke-linejoin:bevel;stroke-miterlimit:4;stroke-opacity:1;stroke-dasharray:none;marker-start:none"
     d="m 75.561878,45.369588 0.603,3.882 -5.665,0.869 -0.55,-3.871 2.249,-0.316 1.24,-0.23 2.123,-0.334"
     id="DeSoto"
     inkscape:connector-curvature="0" />
  <path
     style="font-size:12px;fill:#d0d0d0;fill-rule:nonzero;stroke:#000000;stroke-width:1;stroke-linecap:butt;stroke-linejoin:bevel;stroke-miterlimit:4;stroke-opacity:1;stroke-dasharray:none;marker-start:none"
     d="m 82.894878,45.905588 1.167,3.07 -0.302,2.507 -2.597,0.418 -4.529,0.686 -0.469,-3.335 3.385,-0.51 -0.181,-1.118 0.952,-1.298 2.574,-0.42"
     id="Glades"
     inkscape:connector-curvature="0" />
  <path
     style="font-size:12px;fill:#d0d0d0;fill-opacity:1;fill-rule:nonzero;stroke:#000000;stroke-width:1;stroke-linecap:butt;stroke-linejoin:bevel;stroke-miterlimit:4;stroke-opacity:1;stroke-dasharray:none;marker-start:none"
     d="m 91.268878,43.856588 1.987,3.457 -0.683,0.296 -2.661,0.419 -0.117,0.018 -5.733,0.929 1.871,-3.497 2.987,-0.492 1.488,-0.247 -0.113,-0.726 0.974,-0.157"
     id="Martin"
     inkscape:connector-curvature="0" />
  <path
     style="font-size:12px;fill:#d0d0d0;fill-opacity:1;fill-rule:nonzero;stroke:#000000;stroke-width:1;stroke-linecap:butt;stroke-linejoin:bevel;stroke-miterlimit:4;stroke-opacity:1;stroke-dasharray:none;marker-start:none"
     d="m 85.188878,41.034588 4.069,-0.659 2.011,3.481 -0.974,0.157 0.113,0.726 -1.488,0.247 -2.987,0.492 -0.744,-4.444"
     id="St. Lucie"
     inkscape:connector-curvature="0" />
  <path
     style="font-size:12px;fill:#d0d0d0;fill-opacity:1;fill-rule:nonzero;stroke:#000000;stroke-width:1;stroke-linecap:butt;stroke-linejoin:bevel;stroke-miterlimit:4;stroke-opacity:1;stroke-dasharray:none;marker-start:none"
     d="m 82.502878,38.041588 4.074,-0.653 0.563,-0.523 0.059,-0.081 2.059,3.591 -4.069,0.659 -1.11,0.176 -0.179,-1.068 -1.082,0.184 -0.315,-2.285"
     id="Indian River"
     inkscape:connector-curvature="0" />
  <path
     style="font-size:12px;fill:#d0d0d0;fill-opacity:1;fill-rule:nonzero;stroke:#000000;stroke-width:1;stroke-linecap:butt;stroke-linejoin:bevel;stroke-miterlimit:4;stroke-opacity:1;stroke-dasharray:none;marker-start:none"
     d="m 79.761878,40.804588 3.056,-0.478 1.082,-0.184 0.179,1.068 1.11,-0.176 0.744,4.444 -1.871,3.497 -1.167,-3.07 -0.974,-0.972 -1.135,-0.876 -1.25,-2.117 0.226,-1.136"
     id="Okeechobee"
     inkscape:connector-curvature="0" />
  <path
     style="font-size:12px;fill:#d0d0d0;fill-rule:nonzero;stroke:#000000;stroke-width:1;stroke-linecap:butt;stroke-linejoin:bevel;stroke-miterlimit:4;stroke-opacity:1;stroke-dasharray:none;marker-start:none"
     d="m 74.970878,41.502588 4.791,-0.698 -0.226,1.136 1.25,2.117 1.135,0.876 0.974,0.972 -2.574,0.42 -0.952,1.298 0.181,1.118 -3.385,0.51 -0.603,-3.882 -0.591,-3.867"
     id="Highlands"
     inkscape:connector-curvature="0" />
  <path
     style="font-size:12px;fill:#d0d0d0;fill-rule:nonzero;stroke:#000000;stroke-width:1;stroke-linecap:butt;stroke-linejoin:bevel;stroke-miterlimit:4;stroke-opacity:1;stroke-dasharray:none;marker-start:none"
     d="m 69.390878,42.346588 5.58,-0.844 0.591,3.867 -2.123,0.334 -1.24,0.23 -2.249,0.316 -0.559,-3.903"
     id="Hardee"
     inkscape:connector-curvature="0" />
  <path
     style="font-size:12px;fill:#d0d0d0;fill-rule:nonzero;stroke:#000000;stroke-width:1;stroke-linecap:butt;stroke-linejoin:bevel;stroke-miterlimit:4;stroke-opacity:1;stroke-dasharray:none;marker-start:none"
     d="m 63.702878,43.189588 5.688,-0.843 0.559,3.903 0.233,1.65 -2.252,0.315 -0.312,-2.245 -4.465,0.595 -0.65,-0.613 -0.365,-0.672 0.298,-0.139 0.389,-0.253 0.755,-1.212 0.045,-0.095 0.077,-0.391"
     id="Manatee"
     inkscape:connector-curvature="0" />
  <path
     style="font-size:12px;fill:#d0d0d0;fill-rule:nonzero;stroke:#000000;stroke-width:1;stroke-linecap:butt;stroke-linejoin:bevel;stroke-miterlimit:4;stroke-opacity:1;stroke-dasharray:none;marker-start:none"
     d="m 61.652878,36.649588 0.405,2.619 -0.762,0.211 -0.04,0.037 -0.027,0.102 0.067,0.145 0.131,0.085 1.231,0.536 0.46,-0.197 0.058,0.324 -0.148,0.555 -0.951,2.434 -0.574,-0.799 -1.225,-3.078 0.008,-0.027 0.054,-0.667 0.032,-0.581 -0.108,-0.915 -0.094,-0.211 -0.059,-0.087 -0.199,-0.23 1.741,-0.256"
     id="Pinellas"
     inkscape:connector-curvature="0" />
  <path
     style="font-size:12px;fill:#d0d0d0;fill-rule:nonzero;stroke:#000000;stroke-width:1;stroke-linecap:butt;stroke-linejoin:bevel;stroke-miterlimit:4;stroke-opacity:1;stroke-dasharray:none;marker-start:none"
     d="m 61.652878,36.649588 6.171,-0.871 0.562,-0.081 0.6,3.881 0.405,2.768 -5.688,0.843 1.145,-1.708 0.022,-0.05 0.253,-0.614 0.058,-0.329 -0.185,-0.559 -0.162,-0.215 -1.708,-0.605 -0.41,0.005 -0.338,0.064 -0.32,0.09 -0.405,-2.619"
     id="Hillsborough"
     inkscape:connector-curvature="0" />
  <path
     style="font-size:12px;fill:#d0d0d0;fill-rule:nonzero;stroke:#000000;stroke-width:1;stroke-linecap:butt;stroke-linejoin:bevel;stroke-miterlimit:4;stroke-opacity:1;stroke-dasharray:none;marker-start:none"
     d="m 60.773878,30.024588 2.559,-0.371 0.06,0.365 1.739,-0.275 0.023,0.253 0.153,0.208 0.455,0.509 0.234,0.14 1.449,0.359 0.378,0.591 -2.237,0.325 0.081,0.555 -4.358,0.644 -0.433,0.063 -0.103,-3.366"
     id="Hernando"
     inkscape:connector-curvature="0" />
  <path
     style="font-size:12px;fill:#d0d0d0;fill-rule:nonzero;stroke:#000000;stroke-width:1;stroke-linecap:butt;stroke-linejoin:bevel;stroke-miterlimit:4;stroke-opacity:1;stroke-dasharray:none;marker-start:none"
     d="m 67.823878,31.803588 0.301,2.113 -0.301,1.862 -6.171,0.871 -1.741,0.256 0.965,-3.515 0.433,-0.063 4.358,-0.644 -0.081,-0.555 2.237,-0.325"
     id="Pasco"
     inkscape:connector-curvature="0" />
  <path
     style="font-size:12px;fill:#d0d0d0;fill-opacity:1;fill-rule:nonzero;stroke:#000000;stroke-width:1;stroke-linecap:butt;stroke-linejoin:bevel;stroke-miterlimit:4;stroke-opacity:1;stroke-dasharray:none;marker-start:none"
     d="m 72.555878,32.795588 8.946,-1.402 0.221,1.275 0.315,2.047 -0.072,0.014 0.537,3.312 0.315,2.285 -3.056,0.478 -0.099,-0.45 -0.081,-0.317 -0.587,-0.874 -0.337,-0.481 -2.511,-2.299 -0.802,-0.623 -2.619,-1.852 -0.17,-1.113"
     id="Osceola"
     inkscape:connector-curvature="0" />
  <path
     style="font-size:12px;fill:#d0d0d0;fill-rule:nonzero;stroke:#000000;stroke-width:1;stroke-linecap:butt;stroke-linejoin:bevel;stroke-miterlimit:4;stroke-opacity:1;stroke-dasharray:none;marker-start:none"
     d="m 72.555878,32.795588 0.17,1.113 2.619,1.852 0.802,0.623 2.511,2.299 0.337,0.481 0.587,0.874 0.081,0.317 0.099,0.45 -4.791,0.698 -5.58,0.844 -0.405,-2.768 -0.6,-3.881 -0.562,0.081 0.301,-1.862 1.044,-0.585 3.387,-0.536"
     id="Polk"
     inkscape:connector-curvature="0" />
  <path
     style="font-size:12px;fill:#d0d0d0;fill-opacity:1;fill-rule:nonzero;stroke:#000000;stroke-width:1;stroke-linecap:butt;stroke-linejoin:bevel;stroke-miterlimit:4;stroke-opacity:1;stroke-dasharray:none;marker-start:none"
     d="m 74.439878,26.817588 -0.362,1.042 0.041,0.285 0.586,0.517 1.095,0.222 3.768,-0.631 1.934,3.141 -8.946,1.402 -0.849,-5.472 0.109,-0.103 0.108,-0.024 0.158,-0.021 2.358,-0.358"
     id="Orange"
     inkscape:connector-curvature="0" />
  <path
     style="font-size:12px;fill:#d0d0d0;fill-opacity:1;fill-rule:nonzero;stroke:#000000;stroke-width:1;stroke-linecap:butt;stroke-linejoin:bevel;stroke-miterlimit:4;stroke-opacity:1;stroke-dasharray:none;marker-start:none"
     d="m 74.439878,26.817588 0.342,-1.269 0.613,0.481 1.456,0.329 0.238,0.042 0.068,-0.009 0.37,-0.177 0.112,-0.252 0.829,0.694 0.37,0.465 0.73,1.131 -3.768,0.631 -1.095,-0.222 -0.586,-0.517 -0.041,-0.285 0.362,-1.042"
     id="Seminole"
     inkscape:connector-curvature="0" />
  <path
     style="font-size:12px;fill:#d0d0d0;fill-rule:nonzero;stroke:#000000;stroke-width:1;stroke-linecap:butt;stroke-linejoin:bevel;stroke-miterlimit:4;stroke-opacity:1;stroke-dasharray:none;marker-start:none"
     d="m 70.931878,20.969588 2.064,2.073 0.759,0.504 0.472,0.257 0.455,0.351 0.027,0.037 0.136,0.658 -0.063,0.699 -0.342,1.269 -2.358,0.358 -0.158,0.021 -0.108,0.024 -0.109,0.103 0.849,5.472 -3.387,0.536 -1.121,-7.81 3.309,-0.5 0.021,-1.335 -0.446,-2.717"
     id="Lake FL"
     inkscape:connector-curvature="0" />
  <path
     style="font-size:12px;fill:#d0d0d0;fill-rule:nonzero;stroke:#000000;stroke-width:1;stroke-linecap:butt;stroke-linejoin:bevel;stroke-miterlimit:4;stroke-opacity:1;stroke-dasharray:none;marker-start:none"
     d="m 64.045878,26.107588 4.002,-0.586 1.121,7.81 -1.044,0.585 -0.301,-2.113 -0.378,-0.591 -1.449,-0.359 -0.234,-0.14 -0.455,-0.509 -0.153,-0.208 -0.023,-0.253 0.049,-0.559 0.041,-0.117 0.14,-0.243 0.225,-0.306 0.208,-0.055 0.04,-0.04 0.118,-0.41 -0.009,-0.054 -1.425,-1.28 -0.473,-0.572"
     id="Sumter"
     inkscape:connector-curvature="0" />
  <path
     style="font-size:12px;fill:#d0d0d0;fill-rule:nonzero;stroke:#000000;stroke-width:1;stroke-linecap:butt;stroke-linejoin:bevel;stroke-miterlimit:4;stroke-opacity:1;stroke-dasharray:none;marker-start:none"
     d="m 61.381878,25.394588 2.664,0.713 0.473,0.572 1.425,1.28 0.009,0.054 -0.118,0.41 -0.04,0.04 -0.208,0.055 -0.225,0.306 -0.14,0.243 -0.041,0.117 -0.049,0.559 -1.739,0.275 -0.06,-0.365 -2.559,0.371 -0.185,-1.908 -0.072,-0.414 -0.077,-0.158 -1.487,-1.14 0.075,-0.135 0.114,-0.136 0.293,-0.284 0.212,-0.054 0.171,0.005 0.694,0.157 0.663,-0.391 0.198,-0.145 0.009,-0.027"
     id="Citrus"
     inkscape:connector-curvature="0" />
  <path
     style="font-size:12px;fill:#d0d0d0;fill-rule:nonzero;stroke:#000000;stroke-width:1;stroke-linecap:butt;stroke-linejoin:bevel;stroke-miterlimit:4;stroke-opacity:1;stroke-dasharray:none;marker-start:none"
     d="m 59.091878,18.968588 2.93,0.621 0.532,3.421 -1.482,0.221 0.31,2.163 -0.009,0.027 -0.198,0.145 -0.663,0.391 -0.694,-0.157 -0.171,-0.005 -0.212,0.054 -0.293,0.284 -0.114,0.136 -0.075,0.135 0.022,-0.432 -0.116,-0.343 -0.672,-1.105 -0.271,-0.117 -4.015,-1.135 0.901,-0.803 0.478,-0.861 0.243,-0.816 0.397,-1.722 3.172,-0.102"
     id="Levy"
     inkscape:connector-curvature="0" />
  <path
     style="font-size:12px;fill:#d0d0d0;fill-rule:nonzero;stroke:#000000;stroke-width:1;stroke-linecap:butt;stroke-linejoin:bevel;stroke-miterlimit:4;stroke-opacity:1;stroke-dasharray:none;marker-start:none"
     d="m 62.021878,19.589588 2.001,-0.283 0.203,0.225 -0.023,0.139 0.821,0.361 0.829,-0.346 0.144,-0.091 0.009,-0.028 -0.057,-0.377 0.287,-0.343 0.235,-0.126 0.757,-0.298 1.803,0.099 0.315,0.708 0.555,0.675 0.504,0.528 0.527,0.537 0.446,2.717 -0.021,1.335 -3.309,0.5 -4.002,0.586 -2.664,-0.713 -0.31,-2.163 1.482,-0.221 -0.532,-3.421"
     id="Marion"
     inkscape:connector-curvature="0" />
  <path
     style="font-size:12px;fill:#d0d0d0;fill-opacity:1;fill-rule:nonzero;stroke:#000000;stroke-width:1;stroke-linecap:butt;stroke-linejoin:bevel;stroke-miterlimit:4;stroke-opacity:1;stroke-dasharray:none;marker-start:none"
     d="m 70.404878,20.432588 2.606,-1.362 0.197,0.271 0.258,1.447 0.933,-0.157 0.045,-0.01 1.992,-0.36 -0.257,-1.38 0.474,-0.748 0.85,1.416 0.687,1.059 0.531,0.825 0.319,0.432 0.943,1.155 2.083,2.514 -2.637,0.438 0.396,2.234 -0.257,0.046 -0.73,-1.131 -0.37,-0.465 -0.829,-0.694 -0.112,0.252 -0.37,0.177 -0.068,0.009 -0.238,-0.042 -1.456,-0.329 -0.613,-0.481 0.063,-0.699 -0.136,-0.658 -0.027,-0.037 -0.455,-0.351 -0.472,-0.257 -0.759,-0.504 -2.064,-2.073 -0.527,-0.537"
     id="Volusia"
     inkscape:connector-curvature="0" />
  <path
     style="font-size:12px;fill:#d0d0d0;fill-opacity:1;fill-rule:nonzero;stroke:#000000;stroke-width:1;stroke-linecap:butt;stroke-linejoin:bevel;stroke-miterlimit:4;stroke-opacity:1;stroke-dasharray:none;marker-start:none"
     d="m 79.567878,28.252588 0.257,-0.046 -0.396,-2.234 2.637,-0.438 2.059,2.181 0.022,0.027 0.088,0.089 0.016,0.028 0.821,1.497 0,0.104 -0.379,0.243 -0.104,0.144 -0.121,0.239 -0.009,0.063 -0.006,0.014 -0.036,0.193 -0.026,0.352 0.018,0.357 0.036,0.319 0.157,0.672 0.325,0.982 0.438,0.997 0.306,0.557 0.247,0.38 0.334,0.51 0.019,0.031 0.928,1.271 -0.059,0.081 -0.563,0.523 -4.074,0.653 -0.537,-3.312 0.072,-0.014 -0.315,-2.047 -0.221,-1.275 -1.934,-3.141"
     id="Brevard"
     inkscape:connector-curvature="0" />
  <path
     style="font-size:12px;fill:#d0d0d0;fill-rule:nonzero;stroke:#000000;stroke-width:1;stroke-linecap:butt;stroke-linejoin:bevel;stroke-miterlimit:4;stroke-opacity:1;stroke-dasharray:none;marker-start:none"
     d="m 21.976878,8.8135878 0.067,-0.857 0.063,-0.293 0.771,-0.072 0.202,0.167 0.033,0.374 1.294,-0.108 0.117,-0.887 0,-0.11 -0.028,-0.138 1.055,-0.105 0.852,0.479 0.279,2.7940002 -0.563,0.063 0.166,1.671 -0.671,0.073 -3.376,0.325 -1.195,0.518 -0.274,0.302 0.4,-0.762 0.383,-1.87 -0.175,-0.194 -0.053,-0.3919996 0.512,-0.8900006 0.141,-0.088"
     id="Washington"
     inkscape:connector-curvature="0" />
  <path
     style="font-size:12px;fill:#d0d0d0;fill-rule:nonzero;stroke:#000000;stroke-width:1;stroke-linecap:butt;stroke-linejoin:bevel;stroke-miterlimit:4;stroke-opacity:1;stroke-dasharray:none;marker-start:none"
     d="m 19.484878,5.3165878 5.889,-0.681 -0.878,2.254 0.028,0.138 0,0.11 -0.117,0.887 -1.294,0.108 -0.033,-0.374 -0.202,-0.167 -0.771,0.072 -0.063,0.293 -0.067,0.857 -2.127,0.208 -0.365,-3.705"
     id="Holmes"
     inkscape:connector-curvature="0" />
  <path
     style="font-size:12px;fill:#d0d0d0;fill-rule:nonzero;stroke:#000000;stroke-width:1;stroke-linecap:butt;stroke-linejoin:bevel;stroke-miterlimit:4;stroke-opacity:1;stroke-dasharray:none;marker-start:none"
     d="m 17.811878,5.4825878 1.673,-0.166 0.365,3.705 2.127,-0.208 -0.141,0.088 -0.512,0.8900006 0.053,0.3919996 0.175,0.194 -0.383,1.87 -0.4,0.762 0.131,1.546 -4.598,-0.942 -0.703,-7.9060002 2.213,-0.225"
     id="Walton"
     inkscape:connector-curvature="0" />
  <path
     style="font-size:12px;fill:#d0d0d0;fill-rule:nonzero;stroke:#000000;stroke-width:1;stroke-linecap:butt;stroke-linejoin:bevel;stroke-miterlimit:4;stroke-opacity:1;stroke-dasharray:none;marker-start:none"
     d="m 15.598878,5.7075878 0.703,7.9060002 -4.471,0.338 -0.599,-7.8470002 1.058,-0.08 3.309,-0.317"
     id="Okaloosa"
     inkscape:connector-curvature="0" />
  <path
     style="font-size:12px;fill:#d0d0d0;fill-rule:nonzero;stroke:#000000;stroke-width:1;stroke-linecap:butt;stroke-linejoin:bevel;stroke-miterlimit:4;stroke-opacity:1;stroke-dasharray:none;marker-start:none"
     d="m 7.0848788,6.4745878 4.1469992,-0.37 0.599,7.8470002 -1.296999,0.333 -1.8030002,0.293 -0.824,-0.5 -1.394,-2.528 -0.568,-1.362 -0.171,-0.4629996 -0.036,-0.213 -0.135,-0.9640006 0.035,-0.189 0.207,-0.763 0.078,-0.134 0.494,-0.434 0.668,-0.553"
     id="Santa Rosa"
     inkscape:connector-curvature="0" />
  <path
     style="font-size:12px;fill:#d0d0d0;fill-rule:nonzero;stroke:#000000;stroke-width:1;stroke-linecap:butt;stroke-linejoin:bevel;stroke-miterlimit:4;stroke-opacity:1;stroke-dasharray:none;marker-start:none"
     d="m 2.2898788,6.9295878 4.795,-0.455 -0.668,0.553 -0.494,0.434 -0.078,0.134 -0.207,0.763 -0.035,0.189 0.135,0.9640006 0.036,0.213 0.171,0.4629996 0.568,1.362 1.394,2.528 0.824,0.5 1.8030002,-0.293 -2.5650002,0.798 -0.096,0.023 -0.067,0.017 -0.392,0.1 -0.26,0.05 -0.416,0.081 -1.725,0.41 -1.015,0.293 0.712,-0.321 0.149,-1.41 0.112,-2.817 -0.018,-0.212 -0.04,-0.153 -0.135,-0.221 -0.496,-0.307 -0.374,-0.193 -0.185,-0.032 -0.062,-0.023 -0.353,-0.243 -1.122,-1.2230002 -0.145,-0.246 0.249,-1.726"
     id="Escambia"
     inkscape:connector-curvature="0" />
  <path
     style="font-size:12px;fill:#d0d0d0;fill-rule:nonzero;stroke:#000000;stroke-width:1;stroke-linecap:butt;stroke-linejoin:bevel;stroke-miterlimit:4;stroke-opacity:1;stroke-dasharray:none;marker-start:none"
     d="m 27.244878,10.003588 1.483,-0.1539996 0.839,-0.139 0.784,-0.5870006 1.816,-0.198 -0.527,1.2040002 -0.37,2.378 -0.523,1.854 -3.037,0.329 -0.465,-4.687"
     id="Calhoun"
     inkscape:connector-curvature="0" />
  <path
     style="font-size:12px;fill:#d0d0d0;fill-rule:nonzero;stroke:#000000;stroke-width:1;stroke-linecap:butt;stroke-linejoin:bevel;stroke-miterlimit:4;stroke-opacity:1;stroke-dasharray:none;marker-start:none"
     d="m 27.709878,14.690588 3.037,-0.329 1.339,2.807 0.131,1.754 -0.609,0.87 -0.166,-0.027 -0.983,0.965 -0.104,0.22 -1.05,0.086 -0.031,-1.284 -0.032,-0.14 -0.166,-0.275 -0.645,-0.813 -0.267,-0.255 -0.043,-0.036 -0.411,-3.543"
     id="Gulf"
     inkscape:connector-curvature="0" />
  <path
     style="font-size:12px;fill:#d0d0d0;fill-rule:nonzero;stroke:#000000;stroke-width:1;stroke-linecap:butt;stroke-linejoin:bevel;stroke-miterlimit:4;stroke-opacity:1;stroke-dasharray:none;marker-start:none"
     d="m 37.359878,16.033588 2.339,0.366 0.081,0.224 0.032,0.122 0.027,0.095 0.004,0.018 -0.01,0.144 -0.063,0.181 -0.058,0.04 -0.324,0.09 -0.514,-0.067 -0.122,-0.027 -0.119,-0.081 -0.111,-0.185 -0.649,0.238 -0.257,0.118 -1.609,1.243 -0.73,0.609 -0.635,0.469 -0.605,0.387 -1.211,0.388 -0.483,0.109 -0.4,-0.06 -0.329,0.041 -0.217,0.064 -1.042,0.391 0.104,-0.22 0.983,-0.965 0.166,0.027 0.609,-0.87 -0.131,-1.754 0.135,-0.566 5.139,-0.569"
     id="Franklin"
     inkscape:connector-curvature="0" />
  <path
     style="font-size:12px;fill:#d0d0d0;fill-rule:nonzero;stroke:#000000;stroke-width:1;stroke-linecap:butt;stroke-linejoin:bevel;stroke-miterlimit:4;stroke-opacity:1;stroke-dasharray:none;marker-start:none"
     d="m 55.698878,16.073588 0.221,2.997 -0.397,1.722 -0.243,0.816 -0.478,0.861 -0.901,0.803 -0.202,-0.699 -0.389,-0.59 -0.221,-0.311 -0.27,-0.127 -0.266,0 -0.523,-0.238 -0.879,-0.451 -0.257,-0.144 -0.027,-0.072 -0.357,-1.803 0.767,-2.137 4.422,-0.627"
     id="Dixie"
     inkscape:connector-curvature="0" />
  <path
     style="font-size:12px;fill:#d0d0d0;fill-rule:nonzero;stroke:#000000;stroke-width:1;stroke-linecap:butt;stroke-linejoin:bevel;stroke-miterlimit:4;stroke-opacity:1;stroke-dasharray:none;marker-start:none"
     d="m 56.035878,15.211588 0.803,-0.701 1.753,1.081 0.5,3.377 -3.172,0.102 -0.221,-2.997 0.337,-0.862"
     id="Gilchrist"
     inkscape:connector-curvature="0" />
  <path
     style="font-size:12px;fill:#d0d0d0;fill-rule:nonzero;stroke:#000000;stroke-width:1;stroke-linecap:butt;stroke-linejoin:bevel;stroke-miterlimit:4;stroke-opacity:1;stroke-dasharray:none;marker-start:none"
     d="m 59.822878,13.972588 1.257,0.055 0.311,0.437 0.117,0.042 1.411,0.238 0.617,-0.045 0.126,-0.072 0.073,-0.014 0.518,0.054 0.158,0.041 0.987,0.933 0.122,0.253 -0.019,0.148 0.448,3.147 0.057,0.377 -0.009,0.028 -0.144,0.091 -0.829,0.346 -0.821,-0.361 0.023,-0.139 -0.203,-0.225 -2.001,0.283 -2.93,-0.621 -0.5,-3.377 1.231,-1.619"
     id="Alachua"
     inkscape:connector-curvature="0" />
  <path
     style="font-size:12px;fill:#d0d0d0;fill-rule:nonzero;stroke:#000000;stroke-width:1;stroke-linecap:butt;stroke-linejoin:bevel;stroke-miterlimit:4;stroke-opacity:1;stroke-dasharray:none;marker-start:none"
     d="m 70.517878,13.717588 1.06,2.663 1.433,2.69 -2.606,1.362 -0.504,-0.528 -0.555,-0.675 -0.315,-0.708 -1.803,-0.099 -0.757,0.298 -0.235,0.126 -0.287,0.343 -0.448,-3.147 0.059,-0.009 0.266,-0.134 0.988,-0.705 0.049,-0.229 0.076,-0.092 1.018,-0.728 0.172,-0.027 2.389,-0.401"
     id="Putnam"
     inkscape:connector-curvature="0" />
  <path
     style="font-size:12px;fill:#d0d0d0;fill-opacity:1;fill-rule:nonzero;stroke:#000000;stroke-width:1;stroke-linecap:butt;stroke-linejoin:bevel;stroke-miterlimit:4;stroke-opacity:1;stroke-dasharray:none;marker-start:none"
     d="m 71.577878,16.380588 3.353,-1.149 1.722,2.902 -0.474,0.748 0.257,1.38 -1.992,0.36 -0.045,0.01 -0.933,0.157 -0.258,-1.447 -0.197,-0.271 -1.433,-2.69"
     id="Flagler"
     inkscape:connector-curvature="0" />
  <path
     style="font-size:12px;fill:#d0d0d0;fill-opacity:1;fill-rule:nonzero;stroke:#000000;stroke-width:1;stroke-linecap:butt;stroke-linejoin:bevel;stroke-miterlimit:4;stroke-opacity:1;stroke-dasharray:none;marker-start:none"
     d="m 68.872878,10.300588 0.601,-0.252 0.255,0 0.739,0.234 1.159,-0.198 -0.325,-1.8660002 0.627,-0.106 1.343,3.4860002 0.946,2.258 0.018,0.042 0.14,0.287 0.104,0.225 0.451,0.821 -3.353,1.149 -1.06,-2.663 -1.645,-3.417"
     id="St. Johns"
     inkscape:connector-curvature="0" />
  <path
     style="font-size:12px;fill:#d0d0d0;fill-opacity:1;fill-rule:nonzero;stroke:#000000;stroke-width:1;stroke-linecap:butt;stroke-linejoin:bevel;stroke-miterlimit:4;stroke-opacity:1;stroke-dasharray:none;marker-start:none"
     d="m 68.872878,10.300588 1.645,3.417 -2.389,0.401 -0.172,0.027 -1.018,0.728 -0.076,0.092 -0.049,0.229 -0.988,0.705 -0.266,0.134 -0.802,-5.404 -0.081,-0.555 1.109,-0.1619996 2.307,-0.383 0.307,-0.068 0.346,-0.045 0.127,0.8839996"
     id="Clay"
     inkscape:connector-curvature="0" />
  <path
     style="font-size:12px;fill:#d0d0d0;fill-rule:nonzero;stroke:#000000;stroke-width:1;stroke-linecap:butt;stroke-linejoin:bevel;stroke-miterlimit:4;stroke-opacity:1;stroke-dasharray:none;marker-start:none"
     d="m 63.730878,10.782588 1.027,-0.153 0.802,5.404 -0.059,0.009 0.019,-0.148 -0.122,-0.253 -0.987,-0.933 -0.158,-0.041 -0.518,-0.054 -0.073,0.014 -0.126,0.072 -0.617,0.045 -1.411,-0.238 -0.117,-0.042 -0.311,-0.437 0.483,-0.22 0.699,-0.379 1.193,-1.681 0.33,-0.644 0.022,-0.14 -0.076,-0.181"
     id="Bradford"
     inkscape:connector-curvature="0" />
  <path
     style="font-size:12px;fill:#d0d0d0;fill-rule:nonzero;stroke:#000000;stroke-width:1;stroke-linecap:butt;stroke-linejoin:bevel;stroke-miterlimit:4;stroke-opacity:1;stroke-dasharray:none;marker-start:none"
     d="m 63.730878,10.782588 0.076,0.181 -0.022,0.14 -0.33,0.644 -1.193,1.681 -0.699,0.379 -0.483,0.22 -1.257,-0.055 0.432,-2.6 3.476,-0.59"
     id="Union"
     inkscape:connector-curvature="0" />
  <path
     style="font-size:12px;fill:#d0d0d0;fill-rule:nonzero;stroke:#000000;stroke-width:1;stroke-linecap:butt;stroke-linejoin:bevel;stroke-miterlimit:4;stroke-opacity:1;stroke-dasharray:none;marker-start:none"
     d="m 56.180878,9.3455884 0.658,5.1649996 -0.803,0.701 -0.689,-0.818 -0.428,-0.424 -0.185,-0.135 -1.135,-0.73 -0.527,-0.248 -0.555,-0.059 -0.045,0.127 -0.172,0.112 -0.343,-0.078 -0.144,-0.106 -0.396,-0.916 -0.154,-0.833 0.01,-0.069 0.045,-0.031 0.627,-1.7030002 0.09,-0.384 0.031,-0.049 0.338,-0.244 0.415,-0.135 0.887,0.018 0.56,0.108 1.915,0.7310006"
     id="Suwannee"
     inkscape:connector-curvature="0" />
  <path
     style="font-size:12px;fill:#d0d0d0;fill-rule:nonzero;stroke:#000000;stroke-width:1;stroke-linecap:butt;stroke-linejoin:bevel;stroke-miterlimit:4;stroke-opacity:1;stroke-dasharray:none;marker-start:none"
     d="m 51.317878,11.003588 -0.045,0.031 -0.01,0.069 0.154,0.833 0.396,0.916 0.144,0.106 0.343,0.078 0.172,-0.112 0.045,-0.127 0.555,0.059 0.527,0.248 1.135,0.73 0.185,0.135 0.428,0.424 0.689,0.818 -0.337,0.862 -4.422,0.627 -0.374,0.055 -0.325,-0.916 -0.581,-4.655 1.321,-0.181"
     id="Lafayette"
     inkscape:connector-curvature="0" />
  <path
     style="font-size:12px;fill:#d0d0d0;fill-rule:nonzero;stroke:#000000;stroke-width:1;stroke-linecap:butt;stroke-linejoin:bevel;stroke-miterlimit:4;stroke-opacity:1;stroke-dasharray:none;marker-start:none"
     d="m 49.996878,11.184588 0.581,4.655 0.325,0.916 0.374,-0.055 -0.767,2.137 -0.384,-0.096 -1.111,-0.449 -0.122,-0.105 -0.104,-0.121 -0.386,-0.528 0.004,-0.062 -0.077,-0.244 -0.131,-0.194 -0.573,-0.68 -0.508,-0.352 -0.091,-0.059 -1.222,-0.531 -0.662,-0.189 -1.036,-0.465 -0.722,-0.424 1.537,-3.047 3.876,-0.517 0.069,0.562 1.13,-0.152"
     id="Taylor"
     inkscape:connector-curvature="0" />
  <path
     style="font-size:12px;fill:#d0d0d0;fill-rule:nonzero;stroke:#000000;stroke-width:1;stroke-linecap:butt;stroke-linejoin:bevel;stroke-miterlimit:4;stroke-opacity:1;stroke-dasharray:none;marker-start:none"
     d="m 35.051878,12.559588 5.143,-0.668 0.117,0.361 1.834,-0.221 0.279,2.279 -1.875,0.267 -1.023,0.505 -0.175,0.095 -0.027,0.436 0.103,0.465 0.027,0.035 0.244,0.286 -2.339,-0.366 -0.727,-0.428 -0.35,-0.244 -0.479,-0.622 -0.974,-1.708 0.081,-0.306 0.141,-0.166"
     id="Wakulla"
     inkscape:connector-curvature="0" />
  <path
     style="font-size:12px;fill:#d0d0d0;fill-rule:nonzero;stroke:#000000;stroke-width:1;stroke-linecap:butt;stroke-linejoin:bevel;stroke-miterlimit:4;stroke-opacity:1;stroke-dasharray:none;marker-start:none"
     d="m 35.655878,11.341588 -0.604,1.218 -0.141,0.166 -0.081,0.306 0.974,1.708 0.479,0.622 0.35,0.244 0.727,0.428 -5.139,0.569 -0.135,0.566 -1.339,-2.807 0.523,-1.854 0.37,-2.378 0.527,-1.2040002 3.489,2.4160002"
     id="Liberty"
     inkscape:connector-curvature="0" />
  <path
     style="font-size:12px;fill:#d0d0d0;fill-rule:nonzero;stroke:#000000;stroke-width:1;stroke-linecap:butt;stroke-linejoin:bevel;stroke-miterlimit:4;stroke-opacity:1;stroke-dasharray:none;marker-start:none"
     d="m 38.115878,7.1325878 1.105,-0.077 -0.451,1.217 -0.508,1.5140006 -0.051,0.109 -0.162,0.1439996 -0.225,0.094 -1.478,0.748 -0.69,0.46 -3.489,-2.4160002 0.59,-1.433 0.014,0 5.345,-0.36"
     id="Gadsden"
     inkscape:connector-curvature="0" />
  <path
     style="font-size:12px;fill:#d0d0d0;fill-rule:nonzero;stroke:#000000;stroke-width:1;stroke-linecap:butt;stroke-linejoin:bevel;stroke-miterlimit:4;stroke-opacity:1;stroke-dasharray:none;marker-start:none"
     d="m 42.253878,6.8445878 -0.131,1.969 -0.23,1.1630006 0.253,2.0549996 -1.834,0.221 -0.117,-0.361 -5.143,0.668 0.604,-1.218 0.69,-0.46 1.478,-0.748 0.225,-0.094 0.162,-0.1439996 0.051,-0.109 0.508,-1.5140006 0.451,-1.217 2.187,-0.154 0.846,-0.057"
     id="Leon"
     inkscape:connector-curvature="0" />
  <path
     style="font-size:12px;fill:#d0d0d0;fill-rule:nonzero;stroke:#000000;stroke-width:1;stroke-linecap:butt;stroke-linejoin:bevel;stroke-miterlimit:4;stroke-opacity:1;stroke-dasharray:none;marker-start:none"
     d="m 45.174878,6.6455878 1.465,-0.095 0.099,0.153 0.099,0.722 -0.316,0.419 -0.883,0.951 -0.636,1.8750002 -0.081,0.621 -1.537,3.047 -0.96,-0.028 -0.532,-4.3339996 0.23,-1.1630006 0.131,-1.969 2.921,-0.199"
     id="Jefferson"
     inkscape:connector-curvature="0" />
  <path
     style="font-size:12px;fill:#d0d0d0;fill-rule:nonzero;stroke:#000000;stroke-width:1;stroke-linecap:butt;stroke-linejoin:bevel;stroke-miterlimit:4;stroke-opacity:1;stroke-dasharray:none;marker-start:none"
     d="m 49.459878,6.3565878 0.533,-0.031 0.496,0.221 0.518,1.744 0.311,0.595 0.072,0.062 0.555,0.353 -0.627,1.7030002 -1.321,0.181 -1.13,0.152 -0.069,-0.562 -3.876,0.517 0.081,-0.621 0.636,-1.8750002 0.883,-0.951 0.316,-0.419 -0.099,-0.722 -0.099,-0.153 2.82,-0.194"
     id="Madison"
     inkscape:connector-curvature="0" />
  <path
     style="font-size:12px;fill:#d0d0d0;fill-rule:nonzero;stroke:#000000;stroke-width:1;stroke-linecap:butt;stroke-linejoin:bevel;stroke-miterlimit:4;stroke-opacity:1;stroke-dasharray:none;marker-start:none"
     d="m 51.908878,6.1935878 4.961,-0.341 -0.252,0.486 -0.004,0.23 0.045,0.357 0.22,0.257 0.631,0.666 0.072,0.103 0.114,0.308 0.004,0.117 -0.297,0.771 -0.069,0.085 -0.59,0.2890006 -0.522,-0.045 -0.041,-0.131 -1.915,-0.7310006 -0.56,-0.108 -0.887,-0.018 -0.415,0.135 -0.338,0.244 -0.031,0.049 -0.09,0.384 -0.555,-0.353 -0.072,-0.062 -0.311,-0.595 -0.518,-1.744 -0.496,-0.221 1.916,-0.132"
     id="Hamilton"
     inkscape:connector-curvature="0" />
  <path
     style="font-size:12px;fill:#d0d0d0;fill-rule:nonzero;stroke:#000000;stroke-width:1;stroke-linecap:butt;stroke-linejoin:bevel;stroke-miterlimit:4;stroke-opacity:1;stroke-dasharray:none;marker-start:none"
     d="m 58.041878,5.7665878 1.379,-0.099 0.834,5.7050002 -0.432,2.6 -1.231,1.619 -1.753,-1.081 -0.658,-5.1649996 0.041,0.131 0.522,0.045 0.59,-0.2890006 0.069,-0.085 0.297,-0.771 -0.004,-0.117 -0.114,-0.308 -0.072,-0.103 -0.631,-0.666 -0.22,-0.257 -0.045,-0.357 0.004,-0.23 0.252,-0.486 1.172,-0.086"
     id="Columbia"
     inkscape:connector-curvature="0" />
  <path
     style="font-size:12px;fill:#d0d0d0;fill-rule:nonzero;stroke:#000000;stroke-width:1;stroke-linecap:butt;stroke-linejoin:bevel;stroke-miterlimit:4;stroke-opacity:1;stroke-dasharray:none;marker-start:none"
     d="m 59.871878,5.6355878 2.263,-0.139 0.324,1.807 0.109,0.288 0.207,0.297 0.229,0.18 0.073,0.015 1.262,-0.244 0.177,1.131 0.242,1.6590002 -1.027,0.153 -3.476,0.59 -0.834,-5.7050002 0.451,-0.032"
     id="Baker"
     inkscape:connector-curvature="0" />
  <path
     style="font-size:12px;fill:#d0d0d0;fill-opacity:1;fill-rule:nonzero;stroke:#000000;stroke-width:1;stroke-linecap:butt;stroke-linejoin:bevel;stroke-miterlimit:4;stroke-opacity:1;stroke-dasharray:none;marker-start:none"
     d="m 64.515878,8.9705878 2,-2.785 0.941,-1.276 0.235,-0.225 0.113,-0.063 0.775,-0.333 1.257,0.049 0.167,0.023 0.726,0.59 0.212,0.14 0.194,0.162 0.311,1.014 0.131,0.766 0.121,0.46 0.126,0.366 0.104,0.254 -0.627,0.106 0.325,1.8660002 -1.159,0.198 -0.739,-0.234 -0.255,0 -0.601,0.252 -0.127,-0.8839996 -0.346,0.045 -0.307,0.068 -2.307,0.383 -1.109,0.1619996 -0.161,-1.1040002"
     id="Duval"
     inkscape:connector-curvature="0" />
  <path
     style="font-size:12px;fill:#d0d0d0;fill-opacity:1;fill-rule:nonzero;stroke:#000000;stroke-width:1;stroke-linecap:butt;stroke-linejoin:bevel;stroke-miterlimit:4;stroke-opacity:1;stroke-dasharray:none;marker-start:none"
     d="m 70.323878,2.4075879 0.406,2.5429999 -0.726,-0.59 -0.167,-0.023 -1.257,-0.049 -0.775,0.333 -0.113,0.063 -0.235,0.225 -0.941,1.276 -2,2.785 -0.177,-1.131 0.058,-0.893 0.059,-0.882 -0.008,-0.862 -0.145,-0.396 -0.338,-0.442 -0.172,-0.261 -0.049,-0.266 0.096,-1.3929999 1.206,-0.703 0.469,0.316 1.718,0.369 1.297,0.144 0.686,-0.031 0.938,-0.113 0.17,-0.019"
     id="Nassau"
     inkscape:connector-curvature="0" />
</svg>
