<?xml version="1.0" encoding="UTF-8" standalone="no"?>
<!-- Created with Inkscape (http://www.inkscape.org/) -->

<svg
   xmlns:dc="http://purl.org/dc/elements/1.1/"
   xmlns:cc="http://creativecommons.org/ns#"
   xmlns:rdf="http://www.w3.org/1999/02/22-rdf-syntax-ns#"
   xmlns:svg="http://www.w3.org/2000/svg"
   xmlns="http://www.w3.org/2000/svg"
   xmlns:sodipodi="http://sodipodi.sourceforge.net/DTD/sodipodi-0.dtd"
   xmlns:inkscape="http://www.inkscape.org/namespaces/inkscape"
   version="1.0"
   width="69.110001"
   height="103.62"
   sodipodi:version="0.32"
   inkscape:version="0.48.2 r9819"
   sodipodi:docname="nv.svg"
   inkscape:output_extension="org.inkscape.output.svg.inkscape"
   id="svg3010">
  <metadata
     id="metadata3012">
    <rdf:RDF>
      <cc:Work
         rdf:about="">
        <dc:format>image/svg+xml</dc:format>
        <dc:type
           rdf:resource="http://purl.org/dc/dcmitype/StillImage" />
      </cc:Work>
    </rdf:RDF>
  </metadata>
  <sodipodi:namedview
     inkscape:window-height="746"
     inkscape:window-width="1366"
     inkscape:pageshadow="2"
     inkscape:pageopacity="0.0"
     guidetolerance="10.0"
     gridtolerance="10.0"
     objecttolerance="10.0"
     borderopacity="1.0"
     bordercolor="#666666"
     pagecolor="#ffffff"
     inkscape:zoom="3.684687"
     inkscape:cx="131.77072"
     inkscape:cy="57.322041"
     inkscape:window-x="-8"
     inkscape:window-y="-8"
     inkscape:current-layer="svg3010"
     showguides="true"
     inkscape:guide-bbox="true"
     fit-margin-top="0"
     fit-margin-left="0"
     fit-margin-right="0"
     fit-margin-bottom="0"
     inkscape:window-maximized="0"
     id="namedview3014"
     showgrid="false" />
  <defs
     id="defs3016" />
  <path
     style="font-size:12px;fill:#d0d0d0;fill-rule:nonzero;stroke:#000000;stroke-width:1;stroke-linecap:butt;stroke-linejoin:bevel;stroke-miterlimit:4;stroke-opacity:1;stroke-dasharray:none;marker-start:none"
     d="m 57.962499,12.246657 1.167,0.184 1.411,0.284 2.47,0.559 2.028,0.401 2.244,0.442 -2.438,12.67 -2.204,11.257 -1.974,-0.378 -5.905,-1.245 -2.172,-0.441 -2.194,-0.473 -1.902,-0.442 -3.002,-0.63 -1.592,-0.329 -0.031,-5.685 0.005,-1.252 0.026,-0.36 0.879,-4.11 -4.051,-0.889 -4.079,-0.904 2.848,-12.6579989 3.642,0.8339997 1.082,0.248 13.742,2.9169992"
     id="Elko"
     inkscape:connector-curvature="0" />
  <path
     style="font-size:12px;fill:#d0d0d0;fill-rule:nonzero;stroke:#000000;stroke-width:1;stroke-linecap:butt;stroke-linejoin:bevel;stroke-miterlimit:4;stroke-opacity:1;stroke-dasharray:none;marker-start:none"
     d="m 45.491499,34.434657 3.002,0.63 1.902,0.442 2.194,0.473 2.172,0.441 5.905,1.245 1.974,0.378 -0.523,2.692 -0.897,4.633 -2.145,11.046 -9.33,-1.843 -7.558,-8 0.739,-3.484 0.094,-0.279 0.402,-0.297 0.239,-0.231 0.248,-0.293 0.351,-0.716 0.879,-3.273 0.365,-3.249 -0.013,-0.315"
     id="White Pine"
     inkscape:connector-curvature="0" />
  <path
     style="font-size:12px;fill:#d0d0d0;fill-rule:nonzero;stroke:#000000;stroke-width:1;stroke-linecap:butt;stroke-linejoin:bevel;stroke-miterlimit:4;stroke-opacity:1;stroke-dasharray:none;marker-start:none"
     d="m 36.048499,76.079657 1.312,0.292 0.279,-0.088 7.442,1.536 1.622,0.329 0.739,0.275 7.121,1.406 -0.405,2.124 -0.05,0.259 -0.41,2.34 -0.248,1.299 -0.437,2.267 -1.307,1.766 -0.14,0.158 -0.018,0.012 -0.036,0.02 -0.009,0.005 -0.626,-0.014 -0.203,-0.023 -0.054,-0.013 -0.131,-0.1 -0.09,-0.094 -0.239,-0.379 -0.072,-0.216 -0.009,-0.108 -0.005,-0.027 -0.018,-0.099 -0.126,-0.316 -0.306,-0.433 -0.14,-0.131 -1.312,-0.387 -0.594,-0.122 -0.632,0 -1.154,0.271 -0.103,0.054 -0.14,0.126 -0.009,0.082 -0.131,1.262 -0.279,3.695 -0.126,2.259 0.135,1.595 0.094,0.756 0.014,0.379004 -0.072,1.573003 -0.013,0.288013 -0.055,0.257003 -0.094,0.307 -0.965,1.61301 -1.41,-2.09901 -3.823,-5.720023 -0.265,-0.393 -0.713,-1.063 -2.068,-3.106 -2.028,-3.019 2.307,-10.655"
     id="Clark"
     inkscape:connector-curvature="0" />
  <path
     style="font-size:12px;fill:#d0d0d0;fill-rule:nonzero;stroke:#000000;stroke-width:1;stroke-linecap:butt;stroke-linejoin:bevel;stroke-miterlimit:4;stroke-opacity:1;stroke-dasharray:none;marker-start:none"
     d="m 49.745499,54.571657 9.33,1.843 -0.262,1.335 -1.036,5.417 -1.361,6.937 -1.465,7.716 -0.388,2.01 -7.121,-1.406 -0.739,-0.275 -1.622,-0.329 -7.442,-1.536 -0.279,0.088 -1.312,-0.292 0.189,-1.004 0.577,-2.714 2.498,-11.633 8.815,1.83 1.618,-7.987"
     id="Lincoln"
     inkscape:connector-curvature="0" />
  <path
     style="font-size:12px;fill:#d0d0d0;fill-rule:nonzero;stroke:#000000;stroke-width:1;stroke-linecap:butt;stroke-linejoin:bevel;stroke-miterlimit:4;stroke-opacity:1;stroke-dasharray:none;marker-start:none"
     d="m 22.870499,51.440657 3.781,7.161 -2.965,13.07 -5.184,-7.783 -4.593,-6.856 0.135,0.068 0.627,0.148 3.655,-2.609 4.544,-3.199"
     id="Esmeralda"
     inkscape:connector-curvature="0" />
  <path
     style="font-size:12px;fill:#d0d0d0;fill-rule:nonzero;stroke:#000000;stroke-width:1;stroke-linecap:butt;stroke-linejoin:bevel;stroke-miterlimit:4;stroke-opacity:1;stroke-dasharray:none;marker-start:none"
     d="m 22.951499,43.449657 0.924,-0.051 2.794,0.036 1.708,0.072 7.076,1.61 6.734,1.455 7.558,8 -1.618,7.987 -8.815,-1.83 -2.498,11.633 -0.577,2.714 -0.189,1.004 -2.307,10.655 -0.117,-0.172 -1.479,-2.217 -0.356,-0.532 -2.758,-4.142 -3.403,-5.093 -0.645,-0.978 -1.104,-1.641 -0.193,-0.288 2.965,-13.07 -7.369,-13.955 0.243,-1.023 3.426,-0.174"
     id="Nye"
     inkscape:connector-curvature="0" />
  <path
     style="font-size:12px;fill:#d0d0d0;fill-rule:nonzero;stroke:#000000;stroke-width:1;stroke-linecap:butt;stroke-linejoin:bevel;stroke-miterlimit:4;stroke-opacity:1;stroke-dasharray:none;marker-start:none"
     d="m 40.727499,21.809657 4.051,0.889 -0.879,4.11 -0.026,0.36 -0.005,1.252 0.031,5.685 1.592,0.329 0.013,0.315 -0.365,3.249 -0.879,3.273 -0.351,0.716 -0.248,0.293 -0.239,0.231 -0.402,0.297 -0.094,0.279 -0.739,3.484 -6.734,-1.455 0.185,-0.672 0.554,-2.312 0.969,-4.291 0.938,-4.263 -0.058,-0.023 -0.027,-0.018 0.96,-4.093 1.505,-6.973 0.248,-0.662"
     id="Eureka"
     inkscape:connector-curvature="0" />
  <path
     style="font-size:12px;fill:#d0d0d0;fill-rule:nonzero;stroke:#000000;stroke-width:1;stroke-linecap:butt;stroke-linejoin:bevel;stroke-miterlimit:4;stroke-opacity:1;stroke-dasharray:none;marker-start:none"
     d="m 36.648499,20.905657 4.079,0.904 -0.248,0.662 -1.505,6.973 -0.96,4.093 0.027,0.018 0.058,0.023 -0.938,4.263 -0.969,4.291 -0.554,2.312 -0.185,0.672 -7.076,-1.61 -1.708,-0.072 -2.794,-0.036 -0.095,-0.342 0.054,-0.356 0.929,-2.555 0.08,-0.198 0.131,-0.15 1.28,-0.87 0.658,-0.31 0.82,-0.16 0.073,0.019 0.068,-0.022 0.13,-0.126 0.095,-0.203 0.284,-1.132 0.757,-3.732 -0.347,-0.833 3.822,-6.121 0.847,-1.361 2.168,0.482 1.019,-4.523"
     id="Lander"
     inkscape:connector-curvature="0" />
  <path
     style="font-size:12px;fill:#d0d0d0;fill-rule:nonzero;stroke:#000000;stroke-width:1;stroke-linecap:butt;stroke-linejoin:bevel;stroke-miterlimit:4;stroke-opacity:1;stroke-dasharray:none;marker-start:none"
     d="m 14.360499,41.378657 8.591,2.071 -3.426,0.174 -0.243,1.023 3.588,6.794 -4.544,3.199 -3.655,2.609 -0.627,-0.148 -0.135,-0.068 -5.5070002,-8.285 2.4330002,0.601 0.316,-1.253 0.771,-3.169 0.076,-1.139 -0.851,-0.208 0.284,-1.159 0.554,-0.671 0.671,-0.776 1.704,0.405"
     id="Mineral"
     inkscape:connector-curvature="0" />
  <path
     style="font-size:12px;fill:#d0d0d0;fill-rule:nonzero;stroke:#000000;stroke-width:1;stroke-linecap:butt;stroke-linejoin:bevel;stroke-miterlimit:4;stroke-opacity:1;stroke-dasharray:none;marker-start:none"
     d="m 2.4354988,37.877657 1.176,0.297 1.127,0.47 0.027,0.202 1.938,0.483 2.303,0.608 -0.284,1.173 -0.384,0 -0.518,-0.127 -0.275,0.315 -0.414,0.868 -0.095,0.372 0.05,1.18 0.09,0.415 0.207,0.757 -0.112,1.248 -0.163,0.682 -1.924,-2.88 -2.375,-3.562 -0.51,-1.933 0.136,-0.568"
     id="Douglas"
     inkscape:connector-curvature="0" />
  <path
     style="font-size:12px;fill:#d0d0d0;fill-rule:nonzero;stroke:#000000;stroke-width:1;stroke-linecap:butt;stroke-linejoin:bevel;stroke-miterlimit:4;stroke-opacity:1;stroke-dasharray:none;marker-start:none"
     d="m 2.5974988,37.205657 3.078,-0.351 0.162,0.595 0.275,0.261 0.834,0.208 0.005,0.067 -0.208,1.294 -0.04,0.05 -1.938,-0.483 -0.027,-0.202 -1.127,-0.47 -1.176,-0.297 0.162,-0.672"
     id="Carson City"
     inkscape:connector-curvature="0" />
  <path
     style="font-size:12px;fill:#d0d0d0;fill-rule:nonzero;stroke:#000000;stroke-width:1;stroke-linecap:butt;stroke-linejoin:bevel;stroke-miterlimit:4;stroke-opacity:1;stroke-dasharray:none;marker-start:none"
     d="m 11.881499,33.325657 1.082,-0.681 0.266,-0.104 -0.347,0.952 -0.645,1.421 -0.41,1.639 0.924,1.604 0.577,0.92 0.455,0.671 0.69,1.159 -0.113,0.472 -1.704,-0.405 -0.671,0.776 -0.554,0.671 -0.284,1.159 0.851,0.208 -0.076,1.139 -0.771,3.169 -0.316,1.253 -2.4330002,-0.601 -1.294,-1.927 0.163,-0.682 0.112,-1.248 -0.207,-0.757 -0.09,-0.415 -0.05,-1.18 0.095,-0.372 0.414,-0.868 0.275,-0.315 0.518,0.127 0.384,0 0.284,-1.173 -2.303,-0.608 0.04,-0.05 0.208,-1.294 -0.005,-0.067 -0.834,-0.208 -0.275,-0.261 -0.162,-0.595 0.681,-0.04 1.843,-0.483 2.7720002,-3.109 0.91,0.103"
     id="Lyon NV"
     inkscape:connector-curvature="0" />
  <path
     style="font-size:12px;fill:#d0d0d0;fill-rule:nonzero;stroke:#000000;stroke-width:1;stroke-linecap:butt;stroke-linejoin:bevel;stroke-miterlimit:4;stroke-opacity:1;stroke-dasharray:none;marker-start:none"
     d="m 28.792499,32.428657 0.347,0.833 -0.757,3.732 -0.284,1.132 -0.095,0.203 -0.13,0.126 -0.068,0.022 -0.073,-0.019 -0.82,0.16 -0.658,0.31 -1.28,0.87 -0.131,0.15 -0.08,0.198 -0.929,2.555 -0.054,0.356 0.095,0.342 -0.924,0.051 -8.591,-2.071 0.113,-0.472 -0.69,-1.159 -0.455,-0.671 -0.577,-0.92 -0.924,-1.604 0.41,-1.639 0.645,-1.421 0.347,-0.952 -0.266,0.104 -1.082,0.681 0.244,-0.6 0.293,-1.356 -0.086,-0.464 0.257,-1.768 0.131,-0.545 5.899,1.47 3.399,0.761 2.916,0.685 3.858,0.92"
     id="Churchill"
     inkscape:connector-curvature="0" />
  <path
     style="font-size:12px;fill:#d0d0d0;fill-rule:nonzero;stroke:#000000;stroke-width:1;stroke-linecap:butt;stroke-linejoin:bevel;stroke-miterlimit:4;stroke-opacity:1;stroke-dasharray:none;marker-start:none"
     d="m 32.614499,26.307657 -3.822,6.121 -3.858,-0.92 -2.916,-0.685 -3.399,-0.761 -5.899,-1.47 -1.091,-0.262 1.649,-6.539 0.244,0.054 1.424,-5.566 4.917,1.212 -0.324,1.326 10.785,2.541 -0.509,2.195 3.168,0.74 0.077,0.032 -0.004,0.08 -0.442,1.902"
     id="Pershing"
     inkscape:connector-curvature="0" />
  <path
     style="font-size:12px;fill:#d0d0d0;fill-rule:nonzero;stroke:#000000;stroke-width:1;stroke-linecap:butt;stroke-linejoin:bevel;stroke-miterlimit:4;stroke-opacity:1;stroke-dasharray:none;marker-start:none"
     d="m 10.971499,33.222657 -2.7720002,3.109 -1.843,0.483 -0.681,0.04 0.78,-0.884 0.405,-1.456 -0.122,-0.355 0.036,-0.635 1.506,-0.186 0.744,0.076 1.0000002,0.028 0.465,-0.072 0.482,-0.148"
     id="Storey"
     inkscape:connector-curvature="0" />
  <path
     style="font-size:12px;fill:#d0d0d0;fill-rule:nonzero;stroke:#000000;stroke-width:1;stroke-linecap:butt;stroke-linejoin:bevel;stroke-miterlimit:4;stroke-opacity:1;stroke-dasharray:none;marker-start:none"
     d="m 17.740499,3.1416588 0.33,0.085 -0.456,1.722 -0.843,3.3579993 -0.342,2.2629989 -0.343,1.37 -0.239,0.577 -0.234,0.252 -0.617,2.457 -0.239,1.009 0.189,0.045 -1.424,5.566 -0.244,-0.054 -1.649,6.539 1.091,0.262 -0.131,0.545 -0.257,1.768 0.086,0.464 -0.293,1.356 -0.244,0.6 -0.91,-0.103 -0.482,0.148 -0.465,0.072 -1.0000002,-0.028 -0.744,-0.076 -1.506,0.186 -0.036,0.635 0.122,0.355 -0.405,1.456 -0.78,0.884 -3.078,0.351 0.482,-1.897 0.437,-1.618 0.92,-3.484 0.198,-0.735 0.973,-3.65 0.631,-2.399 0.005,-0.013 0.185,-0.726 0.581,-2.248 1.158,-4.611 1.028,-4.002 2.6370002,-10.1859982 5.908,1.505"
     id="Washoe"
     inkscape:connector-curvature="0" />
  <path
     style="font-size:12px;fill:#d0d0d0;fill-rule:nonzero;stroke:#000000;stroke-width:1;stroke-linecap:butt;stroke-linejoin:bevel;stroke-miterlimit:4;stroke-opacity:1;stroke-dasharray:none;marker-start:none"
     d="m 18.070499,3.2266588 5.061,1.276 5.395,1.24 10.898,2.4779993 0.072,0.027 -3.867,17.1809989 -2.168,-0.482 -0.847,1.361 0.442,-1.902 0.004,-0.08 -0.077,-0.032 -3.168,-0.74 0.509,-2.195 -10.785,-2.541 0.324,-1.326 -4.917,-1.212 -0.189,-0.045 0.239,-1.009 0.617,-2.457 0.234,-0.252 0.239,-0.577 0.343,-1.37 0.342,-2.2629989 0.843,-3.3579993 0.456,-1.722"
     id="Humboldt"
     inkscape:connector-curvature="0" />
</svg>
