<?xml version="1.0" encoding="UTF-8" standalone="no"?>
<svg 
   xmlns:mapsvg="http://mapsvg.com"    
   xmlns:dc="http://purl.org/dc/elements/1.1/"
   xmlns:rdf="http://www.w3.org/1999/02/22-rdf-syntax-ns#"
   xmlns:svg="http://www.w3.org/2000/svg"
   xmlns="http://www.w3.org/2000/svg"
   width="460.0145"
   height="612.49261"
   mapsvg:geoViewBox="50.229512 26.288813 50.824924 25.571749"
   >
 
  <path
     d="m 220.43451,46.412624 0.5,-0.95 5.58,0.24 -0.43,2.38 -2.14,0.71 2.79,0.24 -0.21,-0.95 1.07,-1.43 -0.21,-0.95 1.93,-0.24 0.86,0.95 1.93,0.24 0.43,0 -0.21,-0.71 0.43,-0.24 1.07,0 0.64,0.95 -0.43,0.95 0.43,0.48 0.86,-0.48 -0.21,-1.19 0.43,0 0.43,0.95 -0.21,0.95 -0.43,0 0.22,1.19 1.29,1.19 0,0.48 -1.5,-0.48 0,0.95 1.72,0.48 0.64,-0.48 1.5,0.24 0.43,2.38 1.93,0.24 0,-0.71 -0.86,-0.47 1.07,-0.24 1.06,0.47 -0.41,-0.71 1.29,-0.47 -0.43,-0.48 0.43,-0.71 1.29,0.24 0.86,-0.71 0.21,0.71 2.57,0 0.21,1.43 1.07,0.24 0,1.19 -0.86,0 0,1.16 1.28,-0.71 0.22,-0.95 0.86,-0.24 0.43,0 0,0.71 -1.29,0.47 0.64,0 0.22,0.71 0.86,0 -0.21,-0.48 1.29,0.24 1.07,-0.71 -0.64,-0.71 1.28,-1.43 -0.64,-2.14 0.86,0.48 0,-0.48 0.86,0.24 1.71,-0.71 1.93,-1.66 -0.64,-1.19 1.71,0.24 0.22,-0.71 1.5,0.24 0.43,-0.95 0.64,0 -0.21,-0.95 -0.86,-0.24 1.07,-1.43 0.86,0 0.86,2.14 0.86,0.24 0.86,-1.9 1.07,-1.19 0.86,0 0.43,-1.19 2.14,0 0.43,-0.95 3.22,-0.71 1.93,-1.43 3,-4.52 1.72,-6.66 0.86,0 0.22,0.71 -1.72,4.52 -0.21,2.62 -1.29,2.38 0.43,1.67 4.08,1.66 1.5,0 0.43,0.95 -0.43,0.95 0.86,0 -0.21,1.66 0.64,0.24 -1.07,2.14 0.86,2.85 -0.43,1.66 0.86,1.43 -1.5,0.95 0,1.66 -1.28,2.14 0,1.19 0.65,0.95 0.86,0 1.72,-1.19 2.57,0.24 0.21,1.43 0.43,-0.24 -0.21,-1.66 2.79,0.71 0,1.43 0.86,0.48 0.65,2.38 0.64,0 0.21,-1.66 0.43,0 -0.21,-1.9 2.36,-0.24 -0.22,1.43 -0.64,0 -0.21,0.71 0.21,0.95 1.07,0.24 -0.43,0.95 1.29,0 0.64,-1.19 3.43,0.71 0.86,6.18 -2.14,2.61 -2.36,1.43 -1.5,2.14 3.43,2.14 1.71,1.9 -5.14,-2.38 -1.07,0.24 -0.86,-0.47 0,-0.95 -0.64,0 -0.21,0.95 -1.07,0.71 -3,-1.43 -0.43,1.9 2.15,0.24 -0.21,1.43 -1.71,0.24 -1.72,-1.19 -1.29,0.95 -2.14,-0.71 0.21,0.71 -0.86,0.71 -3.43,1.43 -0.21,-0.71 -0.86,0.24 -0.64,-0.95 -1.29,0.24 -0.43,-0.47 -0.21,-2.38 -2.57,0 0.86,-1.9 0,-0.48 -1.07,0.24 0.64,-1.19 -3.86,-0.47 -1.29,-1.9 -0.65,0 -0.86,1.43 -1.29,-0.71 -0.86,1.19 -1.29,0 -0.21,0.95 -2.36,0.24 0.22,1.19 -1.07,0 0,0.48 -3.43,0 0,-1.19 -2.36,0 -0.21,2.38 2.36,0 0,0.71 -2.35,0.48 0,0 -4.29,-12.52 -4.39,-6.7 -3.17,-1.68 -2.72,2.01 -4.99,1.84 -5.44,1.17 -7.26,-1.17 -4.23,-1.67 -0.6,-2.52 0.91,-1.84 2.12,-2.01 0.3,-2.35 -2.69,-5.17 z m 54.52,37.08 1.08,0.24 -1.07,2.61 0.65,0.24 1.07,2.85 0.86,0.47 2.14,-0.24 0.43,2.14 -1.07,1.19 0.64,3.09 -1.28,-1.19 -3,-0.95 -2.57,2.61 -2.78,0 0,-4.51 1.5,-0.24 -1.29,-2.14 0,-0.95 1.93,-3.09 1.5,-0.48 0,-1.42 1.26,-0.23 z m -37.52,-37.56 0.43,0.71 2.79,0.24 0.43,2.85 1.07,0 -0.43,-0.95 1.5,0.48 0.22,2.14 -1.29,0.48 -0.86,-0.48 0,0.71 -1.07,0 0,-1.43 -1.5,-1.43 -0.64,0.24 0,0.71 -0.64,0 -0.21,-0.95 -1.07,0 0.43,-0.71 -0.43,-0.95 1.08,-0.71 -0.43,-0.95 0.62,0 z m 1.5,-9.03 0.86,2.14 0.86,-0.47 -0.43,-0.95 1.29,0 -0.21,1.9 -1.29,1.43 -3.64,0.71 0.21,-1.43 -0.86,-0.71 0.64,-0.48 0,-1.19 2.57,-0.95 z m 11.58,11.65 0.21,2.62 -1.5,0.24 -0.43,-1.9 0.86,-0.95 0.86,0 z"
     title="Al ‘Āşimah"
     id="BH-13" />
  <path
     d="m 435.32451,575.83262 0.22,0.24 -0.21,0.94 -1.5,0.24 -0.64,-0.47 0.22,-0.71 1.91,-0.24 z m -17.15,-4.02 0.43,1.66 0.43,0.47 0.64,0 -0.43,0.48 0.43,1.18 0.43,-0.24 0,-1.18 1.07,0.47 -0.43,5.68 -1.07,0 0,-0.23 -1.93,0.24 -0.86,0.47 -0.21,0.47 -0.86,0.24 -0.22,0.47 -0.43,0 -0.21,0.47 -0.86,0.24 -0.21,0.47 -0.43,0 -0.22,0.47 -0.43,0 -0.21,0.47 -0.43,0 -1.29,1.18 -0.65,2.13 1.29,0.71 0.65,0.95 0.43,0 0,0.71 -1.5,0.71 -0.21,0.47 -0.86,0.47 0.64,0.95 -1.29,0.71 -0.64,1.42 0.43,0.95 -2.57,1.18 -1.07,1.42 0,1.18 0.64,0.95 1.29,0.24 -0.43,0.95 2.14,1.18 0.86,1.18 1.07,0 0.64,0.71 0.86,0.24 0.22,0.47 1.5,0.47 1.07,1.18 0.65,0 0.21,0.47 1.93,0.71 1.93,1.89 0.86,0 0,0.24 1.29,-0.23 0.86,0.94 0.43,0.95 -0.23,0.45 -0.43,0 -0.21,-0.71 -0.86,-0.23 -0.86,-0.71 -0.86,0 -0.43,-0.71 -1.07,-0.47 -0.43,-0.71 -1.93,-0.71 -0.86,-0.47 -0.21,-0.47 -1.07,0 -2.14,-1.18 -2.14,-0.24 -0.43,-0.47 -1.93,0 -0.86,-0.71 -1.72,-0.23 -0.86,-0.95 0,-0.71 -0.43,-0.47 -0.86,-0.47 -2.14,0 -0.21,-1.89 -1.72,-0.23 0,-0.71 -0.64,-0.47 0,-0.47 -0.65,-0.47 -0.21,-0.71 0.64,-5.91 1.5,-0.24 0,-1.42 -0.86,-0.47 0,-1.65 0.43,-0.47 0.65,0 0.64,-1.42 0.64,0 0.65,-0.47 0,-0.95 0.22,0 -0.21,-2.13 0.43,-0.71 0.64,-0.24 0.22,-1.42 1.29,-0.94 0,-0.95 0.22,-0.24 2.36,0 0.64,-0.47 0.22,-0.94 1.29,0 0.22,-0.47 1.28,-0.71 0.43,0 0,0.95 -0.21,0 0.22,0.71 0.65,0 0.21,-0.24 -0.21,-0.71 1.07,-0.47 0.21,-0.47 0.65,0.47 1.29,0.24 0.64,-0.95 0.22,-1.65 2.74,-0.52 z m 8.36,-1.42 0.21,0.24 -0.21,1.42 -0.86,0 -1.07,-0.71 0,-0.94 1.93,0 z m -0.22,-11.59 0,0.24 0.64,0 0.22,0.95 0.65,0 0.21,0.71 0.65,0.47 -0.21,0.71 -0.43,0.24 0,0.95 -1.71,0.24 -0.43,-0.47 0.43,-0.23 0.22,-0.71 -0.86,0 0,0.95 -0.43,0.71 -1.29,0 -0.65,-0.94 -0.64,-0.24 0.22,-0.94 0.64,-0.47 0,-0.47 1.29,0 0.22,-1.42 1.26,-0.28 z m 7.08,-22.23 0.64,0.47 2.14,0 0,1.42 0.86,1.42 0,1.42 -0.64,0 -0.43,-1.19 -0.86,-0.47 -0.43,-0.71 -1.07,-0.23 -0.43,0.47 0,1.42 -1.07,2.37 0.22,1.18 0.86,0 0.22,-0.47 0,-0.47 -0.64,-0.24 0.65,-1.65 1.93,0 0.22,1.18 -0.64,0.71 1.5,2.6 0,0.47 -3.22,-0.47 0.86,1.89 0.43,0.24 0,0.48 1.93,0 0.22,0.47 0.22,-1.18 1.29,-0.24 0.64,-2.13 1.5,0 0.43,-0.23 0,-0.71 0.64,0.23 0.65,-0.71 1.93,1.18 0.64,0 0.22,0.71 1.72,0 0,0.24 1.29,-0.23 0.21,-0.71 1.72,0.24 0.43,-0.47 0,0.47 0.64,0 0.22,2.13 0.64,0.24 0,0.71 1.93,0.24 0.43,0.71 0.86,0.47 0.64,1.89 -0.21,1.42 -3.43,3.79 0.86,0.95 1.07,0.47 0.43,0.95 -0.86,1.89 -1.72,-0.24 0,0.71 -2.36,0 0,0.24 -0.86,0 -0.64,0.47 -0.86,0 0,0.24 -0.64,0 -0.86,0.47 -0.21,0.47 -0.86,0.24 -0.21,0.47 -0.86,0 -1.28,-0.94 0.43,-1.65 1.29,-0.47 0.22,-0.24 -0.22,-0.47 -2.57,0 -0.22,-0.24 0,0.48 -2.36,0 -0.21,0.71 -2.15,0.47 -1.93,2.36 -0.86,-0.23 -0.21,-0.47 -1.29,-0.71 -0.21,-0.47 0.22,-3.07 -1.71,-2.13 -0.64,-2.84 0.86,-0.23 0.22,0.95 0.86,-0.23 0.22,-2.13 1.5,-0.23 0.43,-1.18 0.43,-0.23 -0.64,-0.71 -1.29,0 0,-0.95 -2.36,-1.65 0,-0.71 1.29,-2.84 -1.07,-0.47 -0.64,1.18 -0.86,0 -0.86,-0.94 -0.43,0 -0.64,-0.71 0.21,-0.24 -0.21,-1.89 -1.5,-1.42 -0.21,-0.71 0.86,0 0.22,-0.94 0.86,0 0.43,0.94 2.36,0.24 0,-0.24 0.65,0 -0.21,-1.18 0.43,-0.71 1.5,0 0.22,-0.47 1.15,0 z m -11.79,-6.39 0,0.47 1.29,0.47 0.22,1.19 0.64,0.95 0,1.18 1.07,0 0.22,0.71 -0.64,0.71 -1.07,0 0,0.24 -2.57,0 -1.07,1.66 -0.21,-0.47 -0.43,0 0,-0.95 -1.29,-0.71 -0.21,-1.89 0.22,-0.23 2.14,0 0.65,-1.18 -0.21,-1.19 0.43,-0.94 0.82,0 z m 7.5,-7.09 0.43,0.24 0.22,0.95 -0.43,0 -0.21,0.71 -0.43,0 -0.21,0.47 -0.43,0 0,-0.71 -1.07,-1.42 0.22,-0.23 1.07,0 0,0.24 0.84,-0.25 z m -12.65,-4.26 0.43,0.71 0.64,0.24 0,0.95 -0.43,0.47 -0.86,-0.24 0,-0.47 -0.64,-0.24 0.22,-1.18 0.64,-0.24 z m 35.38,-5.44 0.43,0.95 -0.43,2.6 1.5,0.47 0.86,0.48 0.22,0.47 1.71,0 1.29,1.18 -0.21,0.95 0.64,0 1.07,0.71 -0.86,0.95 -0.64,-0.24 -0.43,0.48 0,1.42 -0.86,0.95 0.22,2.37 -1.29,1.18 0,0.48 -1.5,0.47 0,0.24 -1.29,0 -0.21,0.71 -2.36,0 -0.86,0.71 -0.43,0 -0.21,0.71 -1.29,0.47 -0.43,1.19 -1.29,0 -0.64,-0.71 -1.5,-0.71 0.86,-0.47 0,-1.66 -0.65,-0.71 -0.43,0 -0.21,-0.71 -1.07,0.24 0,-0.47 -0.65,-0.47 0,-0.47 -0.64,-0.71 0,-1.89 0.22,0.24 0.86,-0.24 0,-1.42 0.43,0 -0.21,-1.18 0.64,0 0.22,-0.23 -0.21,-0.71 0.43,-0.47 0.86,0 0.22,-0.71 5.36,-0.71 0.22,-5.68 2.54,0 z m -11.8,-5.21 0.22,0.71 -0.43,0.47 -1.07,0 0,0.23 -0.64,-0.23 0.43,-0.95 1.49,-0.23 z m -0.42,-5.44 0,0.24 1.5,0 0.86,0.47 -0.43,0 -0.43,0.71 -1.93,-0.24 -0.43,-0.94 0.86,-0.24 z m -4.72,-25.09 0.21,1.89 -1.93,0.24 -0.43,-0.47 0.22,-0.71 0.86,-0.24 0.43,-0.71 0.64,0 z m 5.79,-1.89 -0.43,0.95 0,0.95 0.22,0.71 0.64,0.24 0.22,0.47 -0.64,0.48 -0.43,0.95 -1.72,0.71 -0.64,1.42 -0.64,0.47 0,0.47 -0.64,0.71 0.65,1.19 1.5,-0.24 0,1.18 -0.43,0 -0.43,0.71 0,1.42 0.64,0.94 0,2.37 -0.43,0 -0.86,1.18 -0.86,0.24 -0.43,0.48 0.21,0.71 -0.21,0.95 -1.72,0.95 -0.43,0.95 0,1.42 -0.64,1.42 -4.07,0.47 -1.28,0.71 -0.21,0.95 0.86,0.24 0,0.71 0.64,0.47 0,0.48 -1.28,-0.71 -0.64,0 -1.07,1.66 -0.22,2.6 -0.43,0.24 0,0.71 0.64,0.47 0,0.71 0.64,0.24 0.43,-0.95 1.72,-0.23 -0.21,-0.94 0.86,-0.71 0.22,-0.95 0.86,0 0.22,0.47 0.43,0 0.64,0.71 0,0.48 -0.86,1.65 0.43,0.95 0.43,0.24 0.22,0.95 1.07,0.95 1.07,-0.71 1.72,0.24 0.64,0.48 -0.21,0.24 0.22,0.71 1.29,0 0.64,1.66 0,2.6 -1.13,0 -0.43,0.71 -3,0 -0.21,2.13 -1.28,-0.24 -0.43,0.71 -1.72,0.23 0,0.24 -1.29,0 0,-0.47 0.86,-1.18 1.29,-0.47 -0.43,-0.71 -1.5,-0.47 -0.43,0.47 -0.65,0 -0.43,0.71 -1.93,-0.47 -0.86,2.13 -0.86,-0.24 -0.43,1.42 -1.5,0.24 0,0.24 -1.07,0 -0.64,-0.47 0.22,-0.47 0.21,0.24 0.86,-0.24 -0.21,-2.37 -0.86,0.24 0,-0.48 -1.07,-1.18 -1.93,0 0,-0.23 -1.07,0.23 0,-0.94 -1.07,-0.71 -0.64,0.24 0,1.19 -1.28,0.47 -0.43,-0.47 -0.86,0 -0.64,-0.48 -2.14,-0.47 -0.43,-0.94 -0.21,0.24 -3,-0.23 -0.21,0.47 -1.5,0.24 -0.43,0.71 -0.43,0 -0.43,0.48 -0.21,0.71 -0.43,-0.23 -1.07,0.71 0,2.13 1.29,1.42 0.43,0.24 0.86,-0.23 0,0.47 0.64,0.24 0.43,0.71 1.07,-0.24 0,-0.23 2.57,0 0.64,-0.47 1.72,0.24 0.43,-0.47 1.5,0.24 0.43,-1.18 1.71,0 0.43,1.42 0.65,-0.23 0.21,-0.71 0.43,0.24 0.43,-0.24 3,0.24 0,1.18 -0.64,0.95 -2.15,0.47 0,-0.23 -1.28,0 -0.65,-0.95 -0.43,0 -1.07,0.71 -0.21,1.18 -0.86,0.47 -2.14,0 -0.86,0.48 -1.29,2.6 0.22,3.31 -0.65,0.23 0,0.71 0.43,0.48 0.86,-0.24 1.29,1.42 -0.21,1.42 0.65,1.18 1.07,0 0.22,-0.71 0.21,0.24 1.29,-0.24 0.65,0.47 0,0.47 -1.07,-0.47 -0.43,1.42 -0.43,0.24 -0.21,2.13 0.86,0.47 0.22,0.47 -0.22,0.48 -0.43,0 -0.21,-0.47 -0.43,0.23 -0.21,2.13 0.43,0.24 0.64,-0.71 0.43,0 0.22,0.47 0.43,-0.47 2.14,0 0.22,-0.47 0.86,-0.24 0.22,3.31 1.72,1.18 0.86,0 0,1.18 -0.86,1.42 -0.21,2.37 0.64,0.24 0.86,-0.71 0.64,0 1.07,1.89 0,0.71 -0.64,-0.24 -1.29,2.37 -0.43,0 0,-0.71 -1.07,-0.71 -3.22,0 -0.43,0.24 -0.43,0.48 0,1.42 0.64,1.42 -0.43,0.24 -0.21,-0.47 -0.86,-0.47 -1.07,1.18 -0.43,1.65 -0.43,0 -0.64,0.71 0.43,1.66 -0.86,0.95 0.22,0.71 1.71,0.47 0.43,0.48 1.29,0 0.22,0.47 0.43,0 0,1.42 -0.86,0 -1.5,1.66 -1.93,0.47 -0.65,0.71 -0.43,1.42 -1.07,0.47 -0.43,1.18 -1.5,1.18 -0.21,0.71 -3.43,0 -0.21,-0.48 -0.86,0.24 -0.21,-1.89 0.64,-0.24 -0.21,-0.94 0.65,-0.47 0,-1.18 -0.43,-0.47 0,-0.71 0.64,-1.18 -0.21,0 0,-1.18 -0.86,-0.47 -0.21,-1.19 -0.64,-0.47 -0.21,-0.95 -0.64,-0.47 1.29,-0.71 -0.21,-0.47 -0.86,0 0,-0.71 0.43,-0.24 0,-0.67 0.43,0 0.22,-0.47 0.86,-0.47 0,-1.66 0.64,-0.94 0.22,-3.31 -0.43,-0.48 -0.21,-1.89 -0.64,-0.47 -0.21,-0.71 -0.64,-0.23 0.22,-0.71 -0.43,-0.95 -0.43,-0.47 -0.86,0 0,-0.47 -1.07,-0.71 -0.21,-0.71 -1.28,-0.71 -0.43,0 -0.21,0.71 -2.36,-0.24 0.22,-2.37 0.86,-0.47 0.22,-0.71 -0.86,-0.95 -1.07,0 -0.21,-1.42 -1.29,0.48 -1.72,1.66 -0.64,0 0.22,-0.95 0.43,0 1.08,-1.18 1.07,-0.23 0.43,-0.47 0.43,-1.42 1.5,0.47 0.43,-1.89 0.43,0.24 0.86,-0.24 0,-0.47 -0.64,-0.47 -1.5,0.47 -0.21,-1.42 1.07,-0.95 0.65,-4.97 1.29,0.23 0.43,-0.47 0,-0.71 -0.86,-1.65 0.22,-0.47 -1.07,-1.42 -0.43,0.24 0.43,1.42 -0.64,-0.24 -0.86,-1.89 0,-1.18 0.22,0 0,-1.18 1.93,-1.89 0.43,-1.42 0.43,-0.24 0.22,-2.37 0.22,0 -0.21,-3.07 0.86,-0.24 0.86,-0.94 0.64,-1.42 0.65,-0.47 0,-0.48 1.93,-2.36 0,-0.47 0.43,-0.23 0.21,-1.66 0.43,-0.47 1.29,-0.23 0.22,-0.95 0.64,0 0.43,-0.71 1.29,-0.47 0.43,-1.18 0.43,-0.24 0.22,-1.89 0.43,-0.24 0.86,0.47 0.64,-1.66 0.65,0 0.64,-0.71 -0.21,-1.42 1.07,-1.42 0.65,-1.89 0.86,-0.24 0.65,-0.95 0.86,0.24 0.43,-0.47 0.21,-0.95 -0.86,-0.47 -0.21,-0.47 0.22,-0.24 1.07,0.24 0.65,-0.95 0,-0.94 0.64,0 0,-0.24 0.86,-0.24 0.22,-0.47 1.29,-0.24 0,-0.24 1.29,0 0,0.24 1.72,0.24 0,0.24 1.93,0 0.43,-0.71 0.43,0 0.65,1.18 0,0.95 1.07,0.95 0.43,-0.71 1.29,-0.24 0.43,-0.47 0,-0.71 -0.43,-0.47 0,-1.18 -0.64,-0.24 -0.21,-0.47 0.43,-0.71 1.29,0 0.86,-1.42 0,-0.71 2.79,-0.23 0,-0.24 0.86,0 0.86,-0.47 0.43,-1.89 2.14,-0.24 0.64,-1.18 -0.22,-0.94 1.5,-0.24 0.43,-1.42 0.64,0 0,1.18 -0.77,0.4 z m 18.65,-7.58 0.43,0.47 0,0.95 -0.43,0.47 -1.5,0.24 -0.43,-0.71 0.43,-0.24 0.22,-0.95 1.28,-0.23 z m -28.51,-12.78 0.43,0.71 0.64,0 0,0.95 1.5,0 0,-0.23 0.86,0.24 -0.43,1.9 0.43,0.24 0.43,1.19 -1.5,1.42 -0.21,0.71 -1.71,0 0,0.24 -1.5,0.23 0,0.24 -1.72,0.47 0,0.24 -1.71,0.24 -0.21,0.47 -0.64,0.24 0,0.71 -2.15,-0.24 -0.21,-1.9 -0.43,-0.47 0.43,-0.94 -1.5,-0.24 -1.5,-1.89 0.43,-1.18 0,-1.18 1.07,0 0.86,-0.95 1.07,0.24 0,-0.71 1.5,0 0.22,0.24 -0.21,1.19 0.43,-0.47 3.22,-0.23 -0.21,-1.18 2.32,-0.3 z m -14.58,-1.42 0.65,1.42 1.07,0 0.43,1.89 1.28,2.13 0.22,2.13 -1.29,1.42 -4.07,-0.23 -0.43,0.48 -1.07,0 -0.21,-0.95 -2.57,0 -0.21,-1.66 -0.86,-0.95 0.22,-0.95 3.22,-2.37 1.93,-0.47 0.86,-0.95 0.22,-0.95 0.61,0 z m -142.48,-307.17 5.11,1.31 2.36,-0.22 1.96,-1.74 2.56,-1.52 0,0 1.38,2.39 0,0 0.79,4.14 2.36,4.35 5.11,5.44 6.82,5.08 -0.64,0.83 -0.21,0.95 0,0 1.5,0 0,0 1.29,1.42 -1.72,0.48 -0.43,2.14 -1.28,0.47 -0.64,1.19 1.29,4.99 -0.21,0.95 -0.64,0.71 0.64,1.19 0,0 2.36,0 0,0 0.64,2.37 0.43,0.48 0,0 -0.21,1.42 0,0 1.5,0.24 0,0.95 -0.64,0 -0.21,0.71 -2.79,0.24 -0.43,0.71 -0.43,0 -0.43,0.48 0,6.65 0.86,2.61 0,2.61 -0.43,0.95 -0.86,-0.24 0,0 0,0.71 0,0 1.07,2.37 0.64,4.75 1.72,-0.47 0,-0.26 1.07,0 0.21,0.71 0.22,-0.47 0.43,0 0.65,1.42 0.43,0 0.43,1.42 0.64,0 0.43,-0.47 0.86,-0.23 0.43,0.95 0.64,0 0.65,1.19 0,0.95 -1.72,4.04 -1.71,-0.95 0,0.24 -0.43,0 0.22,1.66 -0.43,0.95 -1.5,-0.47 0.21,0.95 0.86,0.24 -0.65,5.46 -0.43,1.19 0,1.42 -0.22,0 0,2.38 -0.21,0 0,1.9 0.86,0.47 0.22,1.9 -0.64,2.37 -2.15,0.24 -0.21,0.47 -1.07,0.48 0.64,1.42 -0.64,1.19 -0.65,4.98 -0.21,0 0.21,2.61 -0.43,1.19 -0.21,2.85 -0.86,2.85 0,2.61 -0.86,2.61 0,2.37 -0.86,1.42 0,0 0,3.32 0,0 -0.64,0.95 -0.21,1.19 0.86,0.48 0.86,0 0,0.24 1.5,0 0,0.47 -4.07,0.95 0.64,8.3 -1.5,1.66 0,0.48 0.43,0.47 0.21,1.42 1.72,0.24 0.43,0.95 0,0.48 -0.43,0 -0.43,0.71 -0.43,0 -0.64,0.71 0.86,0.95 0,0.71 -0.64,0.47 -0.21,0.95 1.07,0.48 0,0 0,1.42 0,0 -0.43,0.24 0,0.48 -1.5,0.48 -0.43,1.19 0,0 0,4.98 0,0 0.86,0.95 0.64,0.24 0.21,1.19 -1.37,1.34 0,0.95 -0.43,0.71 0.22,2.84 -1.29,2.85 0.22,1.9 -1.29,1.9 -1.29,4.74 -0.43,0.24 0.21,0.71 0.86,0.24 0.43,0.48 0.86,0 0.64,1.66 -0.21,4.27 -1.29,0.48 0.21,2.37 0.22,0 -0.43,7.35 -0.43,-0.71 0,-2.37 -0.43,-1.42 -1.5,0.48 0,0.95 -0.64,0.71 0.21,1.18 0.64,0.48 0,0.48 0.43,0 0.22,0.71 0.43,0 0.43,1.19 -0.65,0.47 -0.64,2.13 0,2.61 -0.64,1.42 0,3.55 -0.21,0 0,3.79 0.22,0 0.86,5.45 -1.29,4.27 -0.21,1.9 -0.86,1.19 1.5,2.13 0.21,1.42 1.07,2.13 0.21,1.42 0.43,0.24 0,0.71 -1.5,0.71 -3.86,4.27 -1.07,3.08 -1.29,1.42 0,0.48 -1.07,1.18 0,0.48 -0.64,0.47 -0.65,2.37 -0.43,0 -0.43,0.71 -0.21,-0.23 -1.5,0.24 -1.07,1.18 0,0.48 -0.86,0.24 0.22,0.47 -0.43,0.71 0.21,1.42 -1.07,-0.24 -0.64,0.48 0,0.71 -2.36,0.47 -0.64,0.95 -0.43,0 -0.64,0.95 -0.86,0.48 -0.86,2.37 -1.5,0.71 -0.43,0.95 -0.86,0.71 -0.43,1.19 -0.43,0 -0.43,0.71 -0.43,0 -0.43,0.71 -0.43,0 -0.86,0.95 -0.65,1.66 -0.86,0.95 -0.21,0.95 -0.43,0.24 -1.07,3.08 0,0 -0.21,2.84 0,0 0.64,1.9 0,1.18 -0.86,-0.47 -1.07,-2.37 -0.86,-0.95 -0.21,-0.95 -0.43,-0.23 -2.14,-6.4 -0.43,-0.24 -0.43,-1.18 -0.86,-0.95 -0.43,-1.42 -0.43,-0.24 -0.21,-0.95 -0.43,-0.24 -0.86,-1.89 -0.21,-1.9 -0.43,-0.71 -0.21,-1.9 -1.07,-3.55 -0.21,-2.84 -0.43,-1.18 0,-1.42 -0.21,0 0,0 0,-8.76 0,0 -0.43,-0.47 0,-0.71 -0.64,-0.95 0,-0.71 -0.43,-0.47 0,-0.71 -0.64,-0.95 0,-0.71 -0.43,-0.47 0,-0.71 -0.86,-1.9 -1.29,-1.66 0,-0.48 -0.43,-0.23 0,-0.47 -0.64,-0.47 -0.86,-1.9 -1.29,-1.66 0,-0.47 -0.64,-0.47 -0.43,-1.18 -0.65,-0.47 0,-0.48 -0.64,-0.47 -0.43,-1.19 -0.64,-0.47 -0.43,-1.18 -1.29,-1.42 -1.07,-2.37 -0.43,-0.23 -0.86,-2.14 -0.86,-0.95 -1.5,-3.32 -0.86,-0.95 -0.21,-0.95 -0.43,-0.23 -0.22,-0.95 -0.86,-0.95 -0.21,-0.95 -0.43,-0.23 -0.21,-0.95 -0.43,-0.24 0,-0.47 -0.86,-1.18 0,-3.08 -0.86,-2.37 -2.14,-2.37 -0.43,-1.42 -0.86,-0.47 -0.21,0.71 0.86,0.71 0,0.48 -0.43,0.24 -0.21,-0.71 -0.61,-0.03 -0.03,0.74 2.79,5.93 0,0 0,0.95 -0.43,0 0,0 -0.86,-0.95 0,-0.47 -0.65,-0.47 0,-0.47 -0.64,-0.48 0,-0.47 -0.64,-0.47 0,-0.47 -0.65,-0.48 0,-0.63 -7.5,-8.06 0,-0.47 -1.28,-1.18 0,-0.47 -1.5,-1.42 0,-0.47 -1.07,-1.19 -1.29,-0.47 -0.22,-0.95 -0.64,-0.71 -0.43,-0.47 -0.64,0 -1.29,-1.42 0,-0.47 -1.07,-0.95 0.21,-0.48 -0.21,-0.71 -1.29,-0.47 -0.64,-1.18 -0.64,0 -0.43,-0.71 -0.86,-0.23 -0.43,-0.48 -0.64,0 -0.64,-0.71 -1.32,-0.24 -0.61,-0.71 -0.43,0 -0.21,0.48 -1.71,-0.47 0,0 0,-0.71 0,0 -1.07,-0.24 -0.86,-1.19 -0.86,-0.23 -0.43,-0.52 -0.43,0.24 -0.22,-0.47 -0.42,0.23 -1.5,-1.42 -0.43,0 -0.22,-0.71 -1.07,-0.95 0,-0.47 -1.07,-0.95 0,-0.47 -1.07,-0.95 0,-0.47 -1.07,-1.18 -0.21,-1.66 -0.86,-0.95 -0.43,0 -0.43,-0.95 -0.64,-0.47 -2.36,-5.22 -0.43,-0.23 -1.07,-2.37 0.22,-2.37 -1.07,-0.95 -0.43,-2.13 0,-1.19 0.43,-0.47 0.22,-5.22 -0.64,-1.42 -0.86,-5.93 -1.07,-0.71 -0.22,-0.71 0.65,-0.47 0,0 0.64,0.95 0,0 1.07,-0.24 2.79,-8.06 3.65,-3.56 0.64,-1.66 0.43,0 1.72,-1.9 0.64,-1.9 0.43,0 0.21,-0.71 1.72,-1.9 0.43,-5.22 0.21,0 -0.64,-5.93 0.64,-1.9 -0.43,-0.48 -0.43,0 0,-0.71 0.64,0.24 0.21,-1.19 0.64,-0.24 -0.86,-0.47 0,-0.71 1.93,0 0.22,-1.19 1.07,-0.71 1.07,-4.75 0.43,-0.23 0.21,-0.95 0.86,-0.47 0.43,-0.95 0.43,-0.24 0,-0.47 0.43,-0.23 0,-0.48 0.43,-0.24 0.86,-2.37 0.43,-0.24 1.07,-2.37 -0.43,-0.95 0.43,-2.37 -1.5,-1.56 10.62,-3.91 9.17,-2.03 9.16,-1.16 4.45,-2.61 0,0 0,-6.67 -2.09,-7.83 -1.05,-11.02 -0.26,-11.02 -1.31,-8.7 0,0 -2.1,-4.35 -2.35,-2.32 0,0 -0.79,-2.03 0,0 2.88,-4.64 1.57,-1.74 0,0 0,-7.39 0,0 9.13,2.82 8.84,3.26 0,0 10.41,4.57 0,0 21.41,6.69 z"
     title="Al Janūbīyah"
     id="BH-14" />
  <path
     d="m 320.83451,8.0626244 0.86,0.78 3.43,0.95 4.29,0.2399996 0.86,1.19 1.08,0.24 0,1.19 -1.29,1.43 -1.5,-0.24 1.93,1.67 0,2.85 -1.71,3.8 0.86,5.71 -0.43,0.71 -1.5,0 0.64,1.19 1.5,-0.48 0.86,6.18 2.79,0 0.43,1.43 -1.5,1.43 -1.72,0 0.22,7.61 1.5,-0.24 1.07,0.71 0,0.95 -1.5,0.24 -1.07,-0.71 -0.43,5.23 -0.64,0 -1.07,-1.43 -1.93,0.24 1.72,-1.66 0.43,-1.67 -1.29,0.48 -0.21,1.19 -0.86,0 0,-2.15 -1.29,-0.71 1.07,-2.14 -2.36,-0.24 -0.86,-1.9 0.43,-0.48 0.65,1.66 1.71,0 0.21,-7.13 -1.29,0 0.64,1.9 0,0.48 -0.64,0 0.43,2.85 -2.15,-0.48 0.43,-1.19 -0.86,-0.71 0,-0.47 0.64,0 -0.43,-0.95 -1.72,-0.47 -0.43,0.71 -0.86,0 0,-1.9 -4.07,0.24 -0.43,1.19 -2.36,0.95 0.43,1.43 3.22,-1.9 1.07,0 0,0.48 -3,2.85 -0.64,0 0.43,0.48 0,2.38 -0.21,0.48 -1.29,0 -0.64,-5.47 -1.93,0.24 -0.43,-0.47 0.43,-2.38 -1.93,0.48 -2.14,-5.94 0.43,-0.95 1.07,-0.24 0,-0.71 -1.07,0 -0.22,0.71 -0.86,-0.48 0,-0.71 -1.07,0 0.65,-1.43 -1.93,1.66 -0.22,3.09 -0.86,1.43 0,4.04 -1.07,1.9 -0.86,0 -0.64,1.43 -4.5,0.47 -0.42,-1.66 -2.57,-1.19 -1.29,-2.85 -0.86,0 -1.29,-0.95 0,-1.9 0.64,-0.95 -1.08,-10.02 0.43,-1.19 -1.07,-1.9 0.64,-0.48 1.29,-3.33 -1.07,0 -0.21,-0.71 0,-4.2799996 -1.93,-0.24 0.64,-1.43 2.15,0 0.64,1.19 2.79,0 1.07,1.1899996 1.29,-1.1899996 -0.64,-1.43 1.07,-0.71 1.29,-2.14 1.07,0 0,0.48 -1.29,1.9 1.5,-0.24 1.07,-0.71 -0.86,-1.66 2.14,-1.19 2.15,0.48 0.43,-1.43 -0.65,-0.95 3.43,0 0,-0.96 2.14,-0.48 1.29,1.19 3.86,-0.24 0,1.43 3.43,3.81 1.93,0.48 0.86,0.95 1.49,0.17 z m 13.72,41.1999996 0.21,1.43 1.5,0 0.21,0.95 1.29,0 0.22,0.71 -1.07,0.71 0.22,0.48 14.36,0.48 0,8.56 -4.5,0.48 -0.21,9.27 2.36,0 4.08,9.03 1.29,0.71 0.22,2.62 -1.29,0 -1.07,-3.09 -0.64,-0.24 0.21,0.71 -6.64,2.85 -0.64,0.71 -0.43,2.14 1.5,0.71 0.43,1.9 1.29,0.47 0.22,1.43 -7.72,0 -0.43,-0.48 0.21,-1.66 -0.64,-0.71 -2.14,0 0.43,-1.19 -1.5,-1.42 -0.64,-2.37 -0.64,-0.48 0.21,-2.14 -0.64,-0.71 0.65,0 0,-0.47 -1.72,-6.89 -2.14,-2.14 -1.29,-0.24 -0.21,-3.33 -1.5,-1.43 -0.64,-2.61 -1.93,-1.66 0.21,-2.38 1.72,-0.24 1.29,0.95 0,-2.85 -1.72,-0.24 -0.43,-0.95 0.22,-1.9 3.21,0.48 0.86,-2.38 1.07,-0.71 -0.43,-2.14 1.07,0 0,-0.71 2.09,0 z"
     title="Al Muḩarraq"
     id="BH-15" />
  <path
     d="m 321.26451,118.17262 0.64,2.85 1.07,0.24 1.71,2.85 0,1.19 -2.14,0.71 -1.07,1.19 -3,1.43 -1.5,-0.24 -1.07,-2.61 -1.93,0.48 -0.22,0.71 -1.28,0.24 -0.86,0.95 -1.29,0 0,-0.47 -1.71,0.24 0.86,2.85 -0.21,1.66 1.5,0.71 1.29,1.43 0,0.95 -1.5,0.24 0.21,2.38 -0.86,0.48 0,0.71 0.43,-0.48 1.29,0.24 0.22,0.95 -0.43,0.24 1.5,0 2.15,4.99 -0.43,0.47 1.93,3.56 -0.86,1.19 -1.93,-0.23 0.22,1.9 1.29,-0.24 -0.21,2.14 -1.07,0 0.22,0.47 -2.14,-1.19 0,-0.71 0.43,0 -0.43,-1.19 -1.93,0.24 -0.43,-0.95 0.43,-1.66 -1.07,-0.24 -0.65,-3.56 -4.5,-9.74 -0.65,0 -0.86,-1.66 -1.29,0.71 0.65,-1.43 -2.14,-5.7 -1.07,-1.19 -1.07,0.24 -0.86,0.95 0.86,0.71 2.57,5.46 0.43,3.09 1.71,3.56 1.72,3.32 3.22,2.85 0.86,1.9 -0.43,1.42 0.64,0.24 0.21,1.43 0.43,0 -0.22,1.19 -1.71,0.24 -0.22,0.95 -0.21,-0.48 -1.5,0.48 -0.21,1.19 -3.21,2.61 -0.43,1.42 1.5,0 -0.43,1.19 -2.14,0.48 0,2.14 1.05,2.42 0,0 0,0 0,0 -5.72,-4.29 -5.11,-5.44 -2.35,-4.35 -0.79,-4.13 0,0 -1.37,-2.39 0,0 -4.52,3.26 -2.35,0.22 -26.52,-8.05 0,0 -10.41,-4.57 0,0 -17.97,-6.08 0,0 -1.83,-7.12 -2.88,-6.09 -1.57,-6.38 -0.79,-8.71 0,-7.259996 1.83,-3.19 2.88,-1.16 4.19,-0.58 10.74,-5.22 15.98,-1.45 5.27,-0.95 0.26,0.58 1.25,0.27 0,0 0,1.11 -1.07,0.24 -0.64,-1.66 -0.86,0 0,0.47 0.64,0 -0.42,1.9 1.29,0.48 -0.86,0.95 0.22,0.71 2.57,0.71 -1.71,1.9 0.86,0.95 0.22,1.67 1.28,0.24 -0.21,2.61 2.14,1.9 1.29,0 0.86,2.14 1.29,1.19 1.5,0 -0.21,0.949996 1.07,2.38 1.07,0 -0.21,1.43 1.07,-0.48 0.43,1.9 3.43,0.48 0.86,1.9 2.14,1.67 1.29,0 0,0.95 1.29,0.24 1.93,2.61 -0.65,0.48 1.5,2.61 0,1.19 1.29,0 0.22,0.95 0.82,0.24 0.06,0.47 -0.67,0 0.21,1.19 5.15,-0.24 3,-0.95 0.21,0.48 1.93,0.24 -0.22,0.71 1.29,0.71 0.43,1.19 1.72,-0.48 0.64,1.66 2.57,0 0,-0.47 -2.14,-0.71 -1.07,-3.09 -4.5,-2.14 -1.07,-2.14 -3,-0.95 0.64,-4.28 -1.5,-0.24 -0.86,-4.51 -1.72,-2.14 0,-0.48 1.29,-0.24 0.86,-1.42 -0.64,-1.659996 -1.5,0.709996 -1.29,-1.899996 0.86,-0.71 0.65,-1.9 0.86,0 0.65,-1.9 1.28,-0.95 1.08,0 0.43,-1.66 1.72,-0.95 1.71,-2.61 1.72,-0.24 1.07,-0.95 2.79,0.71 5.79,0 -0.22,2.14 0.86,0 0.22,0.95 -1.72,3.09 -1.5,0.95 -0.43,0.95 1.93,0.24 -0.21,1.19 0.64,0 -0.21,1.19 0.65,0 0.21,1.9 2.36,2.379996 0.22,4.28 -0.64,0.24 0,-1.19 -1.07,0 0.64,1.43 -0.64,1.43 0.64,-0.24 0,0.48 -1.07,1.19 -1.29,-0.24 -0.21,0.48 1.5,4.75 0.86,7.84 1.5,0.47 0.21,1.19 3,-0.48 0.64,2.85 3.22,-1.43 -0.43,-1.19 4.72,-2.37 -0.43,-0.95 0.43,-4.04 8.58,-4.75 5.15,-2.14 1.72,-1.66 1.07,0 0.64,-1.19 -0.43,-2.14 0.65,0 2.36,2.85 0.21,1.43 -1.28,0 -1.29,-1.19 -2.15,3.33 -2.14,0.71 1.29,1.9 0.65,0.24 0.21,-0.48 2.15,-0.47 1.07,-1.9 1.93,0 0.86,-1.42 0.65,0 1.71,2.14 -0.21,0.95 -1.5,-0.48 0.21,0.71 2.14,0 1.29,1.42 0,0.71 -1.07,-0.24 -0.43,-0.71 -1.5,0 -2.57,0.24 -2.14,1.19 -4.5,-0.24 -1.07,0.71 -4.93,-0.95 -5.96,2.76 z m -20.18,47.07 0,0 1.1,0.79 0,0 0.21,-1.07 -1.31,0.28 z"
     title="Al Wusţá"
     id="BH-16" />
  <path
     d="m 259.30451,82.142624 -1.25,-0.27 -0.26,-0.58 -5.27,0.95 -15.98,1.45 -10.74,5.23 -4.19,0.58 -2.88,1.16 -1.83,3.19 0,7.259996 0.79,8.71 1.57,6.38 2.88,6.1 1.83,7.12 0,0 0,0 0,0 0,0 0,0 0,7.39 0,0 -4.45,6.38 0,0 0.79,2.03 0,0 2.36,2.32 2.1,4.35 0,0 1.31,8.7 0.26,11.02 1.05,11.02 2.09,7.83 0,6.67 0,0 -4.45,2.61 -9.16,1.16 -9.17,2.03 -10.62,3.91 0,0 -1.29,-1.76 0.64,-1.66 0.65,-6.41 -1.72,-2.14 0,-0.71 -0.64,-0.23 0.43,-9.73 -1.71,-0.24 0,-0.71 -0.43,0 0,-0.47 2.57,0.24 0.64,-0.71 0,-0.71 -0.43,0 0.21,-2.61 -1.07,-0.48 -0.21,-1.19 -1.5,0.24 0,-0.71 1.07,-0.24 0,-0.47 -1.07,-0.23 1.29,-0.24 -0.65,-4.99 -0.64,-0.95 0.64,-1.9 -1.07,-3.33 0.43,-0.95 -1.07,0 -1.07,-1.42 0.21,-1.19 -1.5,0 0,-0.48 1.5,-0.47 0,-0.48 -0.86,-0.24 0,-0.95 -1.07,0.24 0,0.71 -0.86,0 -0.86,-1.19 -0.43,-0.95 1.07,-0.24 0,-0.71 -0.43,-0.48 -1.29,0.24 0.86,-0.71 0,-0.71 -1.93,0.71 -1.5,-1.19 -0.21,-0.71 0.86,-0.47 0,-0.71 -0.86,0 0.64,-0.95 -0.86,-0.48 0.64,-0.23 0,-0.71 -2.14,0.24 0.21,-2.37 1.07,0.48 0.65,-0.48 0,-1.19 -1.5,0.24 -0.86,-0.71 -1.5,-3.8 -2.14,-3.33 -1.07,-2.85 0.21,-0.95 0.86,-0.24 0,-1.19 -1.29,0 -0.43,-1.19 -1.71,0 0.64,-0.71 0,-1.19 -0.64,-0.24 -2.79,0.71 -0.86,0.95 -1.29,0 -0.43,-0.95 -0.21,-2.37 1.07,0 1.5,-1.43 2.36,-0.24 -0.22,-3.56 -1.07,-1.42 -0.86,-2.61 0.21,-1.66 -0.86,-1.66 0.21,-2.61 -1.29,-1.9 0.22,-1.19 -0.64,0.24 -0.43,-1.9 0.43,-4.51 2.36,-1.9 -1.07,-1.42 -6,0.48 -16.51,2.85 0.43,4.75 -1.5,3.8 0.43,3.09 -0.64,0.95 0,2.14 -1.29,2.61 0,1.9 0.22,1.43 1.07,0 0.43,1.42 0,0.48 -1.29,0.47 0.86,3.8 1.5,-0.24 0,1.9 1.93,0 1.07,2.14 -1.5,2.85 0,2.85 0.64,1.9 -0.43,1.9 -1.5,0 -3.64,-2.37 -3.22,-0.71 -0.43,0 0,0.71 0.43,0 -0.21,1.42 -1.07,0.24 -0.43,-1.9 0.64,-0.71 -2.78,0 -4.08,1.19 -1.5,1.66 -3.22,-0.24 -1.29,-0.71 -2.57,0.24 0,-0.48 -0.86,0 -0.64,-0.71 -3,-0.71 0,-1.9 1.07,-1.19 0,-4.04 -3,-1.19 0,-5.7 0.86,-0.71 -3.43,-2.61 0,-2.85 -0.64,-2.14 0.86,-0.48 0,-0.71 -0.65,-0.71 -0.21,-2.85 0.64,0 -0.43,-1.42 1.93,-1.9 0.64,-4.28 0.43,0 0.43,-1.19 0,-2.85 2.15,0 -1.07,4.04 1.29,0.71 1.72,-2.38 1.72,0 0.43,-1.9 0.86,0 1.72,1.43 -0.21,-2.37 1.72,0 0.22,-0.71 -4.5,-1.899996 -0.64,-0.95 -4.29,-2.61 -8.79,-2.61 -29.799999,-1.66 -1.71,0.24 -1.07,1.43 -0.64,0 -1.71,-0.24 -0.43,-1.42 -2.14,-0.71 -0.65,0 -0.21,1.19 -1.14,0 0,-0.47 -1.07,0 -1.93,-1.19 -0.21,-1.19 -1.5,-2.14 -2.36,-1.42 -37.74,-20.53 -18.6500002,-5.22 -3.64,-0.71 -3.65000001,0 -0.22,-0.95 4.08000001,0 3.65,0.71 18.6500002,5.23 39.67,21.86 1.71,0 0.21,0.71 0.65,0 1.5,-0.95 1.29,0 1.07,0.71 1.29,2.38 5.36,-0.71 0.86,0.48 0.86,2.14 27.659999,1.19 4.72,0.71 6.22,2.14 6.22,4.28 6.86,2.609996 2.36,-0.24 0.64,-0.71 -0.21,-1.189996 0.64,-0.48 0.65,-4.52 -0.65,-9.03 -0.43,-0.48 0.43,-0.71 -1.07,-1.43 -0.43,0.95 -0.64,0 -0.43,-0.95 0.64,-0.47 -1.29,-0.24 -1.5,0.48 -0.43,-1.19 -0.43,0 -0.21,-1.9 0.21,-0.48 3,0.24 0.64,0.71 1.72,0.24 2.14,1.19 2.79,-0.48 -0.64,0.95 0.86,0.24 -0.64,0.48 0.22,0.48 1.07,0.24 -0.21,0.95 -0.65,0.24 -0.64,-1.19 -1.29,0 -1.29,0.95 0.22,0.71 -1.07,0.48 0,4.51 0.64,3.57 -0.64,6.419996 2.36,-0.949996 2.79,0.24 0.22,-0.48 4.29,0.48 0.86,4.039996 0.43,0 15.65,-2.61 -0.43,-0.71 -2.57,0.24 0.64,-0.949996 2.36,0.47 0,-0.71 1.29,0 0.22,1.429996 3,-0.24 0.43,-1.189996 1.07,-0.48 0.64,-2.61 1.07,0 0.86,-1.19 1.93,-3.8 0,-2.61 0.43,0 0,-1.45 -1.5,-0.47 -0.43,-2.14 0.43,0 -0.22,-2.85 1.5,-0.95 -0.21,-1.19 0.64,-1.9 -0.43,-1.9 -0.86,-0.71 -0.65,-1.9 -1.29,-0.24 -1.28,1.19 -0.43,-1.67 -1.29,-1.42 0.43,-0.48 -0.43,-2.14 -1.5,0 -0.43,-1.19 0.43,-1.19 1.72,0.24 0,0.95 0.64,0 0.22,-1.19 -1.5,0 -0.64,-0.95 0,-1.67 0.43,0 0.64,-2.61 2.36,0.24 -0.64,-1.9 1.28,0.71 1.5,-0.24 0.43,-0.95 1.5,0.48 0.21,-0.71 -1.29,-1.19 2.57,0.24 2.57,-1.9 0,-0.95 -0.64,0 0,-2.14 1.29,-0.24 -0.21,-2.38 0.86,0 0.64,1.66 0.43,0 2.15,-1.66 1.29,-0.24 0.21,-1.9 1.29,0 0.22,-0.71 0.64,0 -0.22,1.43 1.72,0 0.43,-0.95 1.93,-0.48 3.65,0 0,0.71 1.29,0.48 1.5,-1.43 0,-0.71 4.72,0.48 4.93,-0.48 0.65,-0.47 5.14,0 0.64,-0.71 0.64,0.71 3.01,0.47 1.93,-0.47 1.43,0.95 0,0 2.54,5.12 -0.3,2.35 -2.12,2.01 -0.91,1.85 0.6,2.52 4.23,1.68 7.26,1.17 5.44,-1.17 4.99,-1.84 2.72,-2.01 3.17,1.68 4.39,6.71 4.29,12.52 0,0 -0.23,0.71 0.65,0.21 1.93,-0.45 0.15,2.66 z m -99.26,-8.87 0.43,0.24 0.22,2.85 0.64,0 0.43,1.19 -0.86,1.43 -1.5,-0.71 0.64,-1.42 -0.64,-0.24 0.21,-1.19 -0.86,-1.42 0.43,-0.71 0.86,0 z m -96.699999,20.43 1.07,1.19 1.5,0.48 -2.78,2.38 -1.07,0 1.07,-2.85 -0.43,-1.19 0.64,0 z"
     title=" Ash Shamālīyah"
     id="BH-17" />
</svg>
