<?xml version="1.0" encoding="UTF-8" standalone="no"?>
<svg
   xmlns:mapsvg="http://mapsvg.com"
   xmlns:dc="http://purl.org/dc/elements/1.1/"
   xmlns:rdf="http://www.w3.org/1999/02/22-rdf-syntax-ns#"
   xmlns:svg="http://www.w3.org/2000/svg"
   xmlns="http://www.w3.org/2000/svg"
   width="709.60931"
   height="612.51825"
   mapsvg:geoViewBox="23.179154 56.172064 32.779653 51.262469"
>
  <path
     d="m 56.352175,430.41942 5.75,0.01 0.229999,-1.19 5.7,0.27 0.11,-1.43 2.28,-0.74 2.95,1.59 -0.239999,3.02 1.09,0.92 1.56,-0.36 1.39,0.81 0.12,-0.93 0.84,2.44 0.7,-0.48 0,-1.95 1.8,-1.18 0.93,0.51 -0.64,1.77 1.23,-1.39 3.85,2.04 4.01,-2.33 1.13,0.28 -0.02,2.41 8.939995,-0.19 3.13,-1.72 0.79,0.94 0.07,-2.61 -1.06,-2.21 1.55,-4.07 0.62,-0.03 0.6,-2.78 -1.73,0.39 0.93,-0.82 -1.46,-1.51 2.62,-4.1 2.94,-0.93 -1.68,-0.98 0.26,-0.78 -1.45,-0.43 0.31,-1.5 4.1,-2.83 0.19,-1.36 2.28,-0.55 0.43,-1.41 1.52,0.17 -0.49,4.32 2.31,1 2.5,-1.11 1.34,1.45 2.04,-2.26 0.59,0.27 -0.41,1.31 1.06,0.38 0.68,-0.77 3.61,0.38 1.52,-1.76 1.16,-0.02 0.64,0.82 0.66,-0.4 2.12,3.9 -1.21,1.44 2.97,3.24 0.94,-0.39 1.74,-4.44 1.25,0.43 0.15,2.02 -0.88,2.33 0.71,0.83 -0.99,1.85 0.95,1.09 -0.9,1.35 0.71,1.25 1.02,-0.21 0.77,-2.1 1.91,1.32 -0.16,-0.9 2.23,-0.98 -0.17,-0.72 1.57,0.05 0.6,2.07 0.91,-0.39 1.47,1.05 0.8,-0.79 -0.52,-0.49 1.09,-2.42 3.96,-1.68 0.96,4.71 2.76,1.05 2.19,-2.73 -0.5,-1.32 -2.53,0.26 -0.51,-2.59 2.47,-2.2 -1.5,-1.47 -0.82,-2.65 4.02,0.06 0.14,0.64 4.39,-0.91 -0.24,-3.99 1.07,-0.48 0.82,-2.41 5.22,-2.51 1.69,-2.65 3.7,-0.81 -0.59,-0.56 0.28,-1.03 1.51,-1.79 -2.27,-2.12 -0.12,-1.24 1.61,-0.42 1.15,-3.37 -0.94,0 0.37,-3.61 -2,-1.18 -0.85,-1.55 1.69,-1.5 0.16,-2.56 1.39,-0.01 -1.31,-2.64 0.89,-3.59 0.77,-0.29 -1.01,-2.03 1.58,0.51 1.47,-1.01 -0.62,-0.61 0.53,-2.25 1.28,-0.27 -0.32,-2.22 0.7,-0.88 -0.52,-3.38 1.07,0.21 0.54,-2 1.05,0.27 0.51,-1.78 2.18,-0.23 1.65,0.48 0.57,1.16 2.69,0.43 2.05,-1.38 2.7,0.94 1.16,-1.99 2.81,-0.27 -0.33,1.4 1.4,-0.49 1.7,0.9 2.06,-0.02 0.01,1.29 2.79,0 0.83,0.5 -0.44,0.85 1.67,0.62 1.39,-0.23 1.71,-2.32 0.05,1.87 0.6,0.4 2.49,-1.55 1.95,1.02 10.17,0.04 1.29,2.38 0.98,-1.14 1.64,-0.61 0.58,0.82 0.32,-0.57 0,0 1.58,5.34 1.41,0.23 -1.09,7.26 -3.08,0.11 -0.12,2.28 -1.9,0.46 -0.93,1.21 0.46,1.46 -2.81,0.73 0.8,2.78 2.84,1.05 0.98,1.37 0.02,1.6 1.64,-0.31 1.32,1.13 0.14,2.18 2.22,1.51 4.59,-0.08 0.87,3.86 2.08,0.14 1.2,4.31 -0.49,0.5 -3.63,-1.12 -1.19,1.76 0.63,0.41 -0.63,0.63 0.4,3.77 -2.86,-0.3 -0.7,1.23 -1.46,0.28 -0.38,1.31 1.64,4.24 1.84,1.98 0.65,1.95 1.21,0.75 -5.42,5.43 -0.36,1.6 0.62,2.08 4.06,2.34 0.11,1.35 4.83,-7.01 0.93,3.46 2.27,-1.19 2.26,-6.13 3.24,3.14 -0.38,0.34 2.32,0.39 0.52,-0.62 1.74,2.73 2.03,0.54 -0.41,-1.14 1.89,0.08 0.12,-0.71 1.05,0.4 0.82,6.49 2.71,3.53 2.71,0.28 2.35,-0.98 1.4,2.07 0.85,-0.12 4.53,2.8 3.96,-5.44 1.68,4.39 -0.66,3.19 1.98,0.92 0.84,3.6 -3.04,0.94 -0.46,1.71 1.04,0.39 0.22,4.68 -2.08,0.03 0.1,2.44 0.87,1.22 1.35,-0.09 0.27,3.37 1.2,0.11 0.07,4.69 -0.75,0.06 0.87,0.75 -0.01,2.9 4.87,0.21 0.74,4.44 2.03,-0.2 0.33,4.12 4.64,-0.08 0.12,2.4 3.42,0.94 0,0 -1.21,4.06 0.49,4.38 7.92,-0.08 0.09,1.98 2.57,2.12 4.4,0.2 1.75,2.43 1.58,-0.12 1.46,1.01 0.06,1.67 0.77,0.22 0.33,1.56 -0.29,1.57 0.95,0.9 -2.42,2.97 1.57,2.34 -0.71,0.5 -1.6,5.76 0.71,1.37 -0.37,4.41 1.82,0.84 1.82,-0.31 -0.32,1.07 0.98,2.29 2.54,0 0.08,3.01 -0.39,1.25 -5.14,3.39 -1.7,2.54 1.63,3.14 0.09,2.94 -1.05,2.85 -1.71,2.07 2.1,3.15 2.39,2.08 -1.87,4.51 1.26,1.32 0.09,1.23 -2.02,2.56 -1.69,-0.29 -0.95,1.27 -0.36,2.37 0.77,1.75 -0.85,2.2 2.54,3.11 -0.32,0.78 0,0 -0.63,0.82 0.26,2.64 1.1,-0.06 -1.7,2.39 -1.87,-1.07 0.74,-1.68 -0.44,-0.68 -1.38,0.95 -0.85,-1.51 -1.84,0.96 -0.09,0.96 -2.53,-0.3 -2.27,-1.2 -1.48,1.4 -7.17,0.31 0.06,-2.26 2.13,-3.81 -1.77,-1.52 -3.03,0.33 -0.52,-12.98 -15.39,0.59 -3.38,3.98 -2.36,-1.48 -2.73,-0.14 -2.35,-2.04 -3.94,1.07 -0.45,-1.14 -2.57,-1.25 0.41,-2.15 -0.63,-0.97 -3.06,-1.12 -1.34,-1.47 -5.62,0.17 -1.64,-0.65 -0.26,1.02 -2.5,0.85 -0.92,1.86 -5.24,-0.2 -0.24,-1.64 -1.88,-0.48 -1.57,-2.4 -1.81,0.25 -0.22,-4.82 -2.06,1.45 -4.46,0.3 -1.16,-0.99 -4.95,-0.39 -2.37,1.18 -0.9,-0.66 -1.5,0.31 -0.17,-1.6 -1.18,0.21 -3.43,-4.01 -3.2,-0.55 -0.35,-1.23 -2.68,-0.84 -6.42,2.13 -7.03,-1.18 -0.2,-2.22 -3.3,-0.85 -0.85,0.28 0.97,3.07 -1.53,-0.3 -3.77,0.96 -7.61,-0.7 -5.59,-2.03 -1.22,2.1 -1.92,-0.99 -0.8,1.27 -4.76,0 -0.63,-0.9 -4.87,-0.99 -5.63,-3.84 -2.37,0.94 -2.63,-1.08 -4.06,2.09 -3.22,0.02 -5.59,3.91 -1.66,0.23 -2.42,2.35 -2.46,0.01 -0.95,-1.7 -5.52,1.68 -0.51,-1.67 -0.91,-0.24 -4.94,3.52 -1.12,0 -1.93,-1.55 -3.29,0.45 -3.15,-1.18 -4.36,1.44 -6.929996,1.02 -6.65,-0.07 -3.6,2.67 0.34,1.33 -3.5,5.54 1.67,6.25 -3.48,3.85 -10.98,6.04 -3.39,5.39 -3.96,2.31 -1.85,2.42 -5.47,-2.1 -3.05,0.86 -0.2,-2 2.46,-2.82 -6.26,-1.7 -2.59,0.8 -0.08,-2.41 -0.76,-0.87 -5.29,2.02 -2.32,-0.45 -1.02,1.47 -4.16,2.02 1.82,3.71 2.31,1.32 -0.28,1.68 -1.69,1.88 2.93,5.46 -0.79,0.78 -3.22,-0.6 -0.98,-2.87 -3.33,-0.83 -0.15,-1.29 1.05,-1.32 -0.96,-1.52 0.25,-1.1 -0.96,-0.42 -1.05,-2.31 0.46,-2.12 -0.56,-1.63 0.6,-0.68 -0.69,-0.47 0.33,-1.85 0.91,-0.58 -0.6,-2.39 0.93,-1.66 -0.87,-0.58 0.54,-0.45 -0.73,-2.12 -0.7,0.33 -0.54,-0.81 0.2,-1.47 2.12,-2.34 0.92,0.6 1.08,-0.31 0.79,-1.58 2.43,-0.89 -0.16,-1.37 0.62,-0.02 0.27,-1.08 -1.32,-3.3 -1.37,-0.25 -0.14,-1.25 0.92,-1.87 -0.58,-2.39 1.81,0.47 -0.65,-1.52 1.18,-0.87 -1.52,-1.29 -0.39,-1.61 0.4,-0.69 0.97,0.3 0.11,-1.23 0.96,-0.32 -0.38,-1.88 -1.02,-0.02 1.95,-1.81 1.29,0.11 -0.35,-1.65 1.68,-1.75 -2.08,-3.12 0.18,-2.6 -0.65,-1.88 -0.85,-0.37 0.92,-0.21 -0.83,-0.65 0.64,-1.82 -2.6,-1.44 -0.45,-1.1 0.72,-0.6 -1.63,-1.29 -2.98,-0.17 -0.7,1.01 -0.58,-2.05 -1.94,-1.21 -0.14,-1.25 -1.84,-0.57 0.39,-2.6 1,0.16 -0.38,-0.77 -1.16,-0.28 -1.39,0.87 -0.7,-1.26 -2.4,1.49 -0.65,-1.17 -1.15,0.57 -0.42,-2.77 -1.46,0.62 -0.71,-1.47 -3.98,-0.16 -0.7399995,-0.34 0.07,-1.21 -2.71,0.85 -4.41,-1.38 -0.78,-1.63 0.65,-4.28 -1.78,-1.02 4.64,-8.96 4.8,-6.38 0.6499995,-2.44 7.8,-10.86 4.05,-4.08 7.85,-4.6 4.05,-1.6 5.43,-0.96 1.68,0.93 10.62,-8.76 1.01,-0.06 3.39,-4.01 z"
     title="Brest"
     id="BY-BR" />
  <path
     d="m 390.90217,442.65942 1.02,0.72 2.1,-2.03 0.67,1.09 1.94,-0.7 3.04,0.73 0.8,-1.07 1.51,0.22 1.96,-1.18 3.49,1.32 1.86,-1.4 2.63,1.35 2.33,-2.61 -0.03,-1 3.88,-0.02 -0.1,-2.06 -1.4,0.38 -0.25,-1.28 -0.98,-0.04 0.64,-3.26 3.48,1.13 1.62,-1.97 1.65,0.29 5.87,-8.2 -0.41,-3.02 9.47,-1.27 0.33,0.54 1.71,-0.89 -0.97,-4.33 4.36,-6.91 1.5,-0.83 1.89,1.15 2.79,0.16 1.17,1.79 5.44,0.55 1.83,0.67 0.09,0.81 0.63,-1.49 1.31,0.17 -0.13,1.58 1.31,-0.01 0.81,1.08 3.52,-1.59 3.19,-3.48 0.75,0.57 2.65,-0.23 0.52,0.61 2.45,-0.75 2.16,0.27 1.57,1.37 0.16,-0.72 0.61,0.35 0.61,1.15 4.1,-1.31 -0.66,-1.41 1.51,-1.7 -4.02,-1.75 -0.97,-0.8 -0.55,-2.24 -0.99,-0.54 3.07,-3.87 -0.86,-1.88 -2.2,0.77 -1.64,-3.32 1.91,-1.29 -1,-2.44 0.25,-0.91 1.05,0.21 0.03,-1.08 0.71,-0.06 0.85,1.94 2.09,-0.55 1.07,0.81 4.08,-2.12 -1.25,-0.27 -0.26,-1.34 1.54,-1.5 -0.83,0.19 -0.26,-1.2 1.06,-0.81 -2.09,-1.04 3.56,-1.28 -2.11,-5.69 0.74,-0.21 -0.27,-1.34 -1.43,-1.72 -0.07,-5.09 3.64,-3.67 3.43,-1.69 0.81,3.92 2.13,-0.9 -0.66,-0.89 0.96,-0.49 1.43,1.06 0.3,1.04 -1.04,0.52 -0.39,1.49 3.49,0.52 1.15,-2 -0.12,-1.33 9.22,2.17 0.96,1.18 -0.16,1 1.87,1.18 2.13,6.9 1.09,0.92 1.86,-1 0.56,0.57 1.43,-0.85 1.48,0.42 2.05,-2.66 0.08,1.26 3.55,-0.75 1.29,-1.3 3.39,0.53 0.21,-2.01 2.26,-1.79 3.42,1.06 1.06,-1.34 -0.2,-1.02 1.8,0.31 0.93,-2.58 2.67,0.27 1.62,-2.49 0.31,-2.11 1.23,0.68 -1.45,2.68 1.37,0.74 -0.63,1.42 6.99,1.36 -1.05,2.16 1.91,1.84 3.06,-0.36 -0.05,-1.76 2.53,-0.23 0.67,-0.9 5.13,0.73 1.33,-1.17 -0.32,-1.38 1.53,-0.52 3.01,-0.6 0.43,0.91 6.8,-0.56 0.37,0.7 -0.9,1.96 -2.08,1.98 1.16,1.82 1.43,-1.02 1.09,1.15 0.89,-0.53 0.61,0.78 -0.64,2.31 1.93,1.21 0.11,2.9 2.47,-0.49 0.61,2.02 1.36,0.38 0.15,1.99 -1.61,1.55 1.09,2 6.45,-0.58 1.26,3.49 0.55,-0.72 1.1,0.56 0.41,-0.6 0.02,0.87 5.69,0.12 1.02,2.26 1.5,0 0,0 -2.01,0.6 -0.38,6.06 -1.73,0.6 -3.07,-0.7 -1.57,1.64 4.93,3.21 0.92,1.35 2.47,0.87 0.62,2.61 1.03,1.15 -0.27,3.31 8.09,8.14 4.04,0.23 0.07,2.17 -1.36,1.21 0.86,1.54 2.22,1.4 0.21,1.22 1.65,0.48 0.17,4.01 0.81,2.04 -1.91,1.8 -0.96,2.52 -4.79,1.7 4.61,5.59 0.65,1.58 -0.32,4.59 1.15,0.32 3.87,3.72 3.03,0.34 -2.72,2.44 -0.9,-1.43 -0.84,0.34 -0.1,1.47 -1.16,0.64 -0.1,2.07 -2.6,-0.31 1.12,2.58 2.13,-0.99 1.54,1.69 -1.38,3.04 -1.79,0.82 1.94,0.58 0.13,1.35 -0.91,0.5 0.47,1.69 -0.72,0.92 2.03,-0.18 0.71,2.38 -0.39,8.19 -3.1,0.27 0,0.68 3.12,3.92 0.37,-0.79 1.63,2.25 2.39,0.14 1.95,1.41 -1.05,1.12 0.91,2.29 -0.04,2.56 -1.56,2.51 1.43,0.97 1.88,-0.64 3.57,0.66 0.29,6.27 1,1.61 -5.65,2.97 -0.58,-1.37 -3.09,-0.92 -4.94,0.05 -6.33,-1.37 -2.8,1.04 -1.42,-0.49 -0.71,-2.33 -3.62,-0.11 -1.99,1.04 0.59,1.42 -4.51,1.91 -0.89,2.19 0.52,0.66 -1.64,3.44 -3.16,1.23 -2.06,-1.02 -1.07,-1.32 0.1,-1.2 -3.88,-0.91 -1.35,-2.71 -3.27,1.44 -2.33,-0.06 -5.88,1.55 -1.85,-0.66 0.07,-0.91 -0.92,0.17 0.13,1.75 -1.39,0.2 1.09,2.76 -0.73,-0.06 -0.42,-1.22 -0.63,0.28 1.11,1.63 -1.16,0.65 0.89,0.86 -0.92,-0.13 0.53,1.15 -1.19,0.23 0.49,0.76 -0.5,0.83 1.28,0.49 0.03,1.2 -1.14,0.29 -1.09,-1.49 -0.69,1.04 1.28,1.08 -1.82,0.41 0.29,1.7 -1.24,0.32 -0.68,-0.58 -1.78,1.16 -0.03,0.85 1.1,0.04 -0.69,0.85 -1.56,-0.98 -0.96,0.84 1.1,3.27 -1.59,2.69 -4.1,-0.43 -0.66,2.22 -2.33,1.99 -0.82,3.64 -3.22,1.42 1.31,3.41 -1.23,1.35 0.24,1 -1.85,-0.04 -1.34,0.83 0.25,0.88 1.81,-0.51 0.56,0.57 -1.51,2.87 -0.35,2.6 -4.42,0.94 0.92,3.35 -0.44,1.89 -1.52,-0.17 -1.5,-1.45 -0.97,0.71 1.34,1.51 -1.76,2.17 -0.19,1.35 1.98,0.53 -0.11,0.8 1.66,1.11 -0.7,0.68 -2.01,-0.5 -0.74,0.89 1.38,1.55 1.91,0.56 -1.84,0.91 -0.03,1 1.37,2.57 1.68,-1.15 0.86,0.52 -0.98,4.26 1.06,1.01 0.52,2.92 2.35,1.34 -0.09,0.76 -2.95,1.1 0.34,2.62 0.64,0.69 1.78,-0.47 0.1,1.26 2.54,4.12 -1.28,2.36 1,2.55 -2.01,0.84 -2.19,2.15 1.37,0.79 -0.66,0.81 1.48,-0.55 -1.1,2.74 -1.09,-0.06 -3.87,2.35 -2.52,-2.21 -4.02,0.85 0.72,-3.87 -4.36,-0.32 -5.74,-5.9 2.25,-2.06 -1.18,-4.93 0.77,-0.48 -1.26,-0.29 -3.27,-4.35 -3.17,-2.62 -3.27,-1.11 -2.13,-2 -0.85,2.65 -2.59,-2.15 -0.49,0.24 0.5,1.72 -0.62,0.34 -7.58,-1.94 -0.35,1.72 -1.54,0.98 -1.01,-0.33 -0.8,1.56 -2.81,-2.19 -2.38,0.62 -0.86,0.83 0.49,0.66 -0.91,3.12 -2.62,-1.38 -2.01,0.86 -0.8,-1.17 -0.84,0.27 -0.01,1.83 -3.57,-1.88 -1.3,-3.7 1.36,-0.6 -0.13,-2.46 -0.54,-1.74 -1.54,0.02 -0.52,0.99 -2.65,1.22 -0.24,0.96 -0.95,-0.32 -1.06,0.77 -0.73,-0.66 -0.81,1.35 -1.02,0.21 -0.05,1.94 -1.79,1.44 -3.21,-2.07 -1.64,3.93 0.2,2.74 -1.36,2.95 -6.65,-1.58 -2.12,1.09 -2.11,2.36 -2.32,0.54 0.12,-2.95 -1.48,-6.08 -2.67,-0.86 0,-1.58 -1.54,-2.46 0.96,-4 -0.53,-4.35 -3.09,-0.75 -0.41,-2.84 -2.15,-1.76 0.52,-1.26 -1.51,-0.65 0.94,-2.27 -0.72,-0.7 -4.32,0.2 -5.81,7.43 -2.2,1.71 -1.73,0.15 -0.52,-1.99 -4.43,0.14 -4.01,2.88 -2.18,0.44 -4.58,8.64 1.09,1.45 0.4,2.68 -0.59,0.25 -0.25,2.68 -1.31,1.38 -1.14,-2.4 0.02,-3.62 -2.62,2.8 -1.36,-0.58 -3.02,-12.49 0.86,-0.89 -1.41,0.56 -0.24,-0.52 2.02,-0.97 -7.52,-0.21 -0.01,-1.21 -2.26,-0.3 -0.55,-0.92 -3.51,-0.28 -5.71,4.98 -2.89,1.4 -0.65,-4.12 -4.61,-5.81 -1.84,0.26 0.75,-6.5 -0.72,-0.74 -6.28,4.26 -0.3,2.59 -1.14,1.93 -1.9,0.31 -1.75,3.08 -1.31,0.57 -1.25,-0.51 -2.37,1.58 -7.15,0.91 2.61,-4.3 -1.47,0.07 -0.92,1.58 -1.59,0.4 0.1,-3.24 -0.83,-1.45 -4.11,-1.62 -2.02,1.01 -0.64,0.68 1.4,1.04 -0.95,4.26 1.65,3.48 -1.08,0.89 -2.56,0.38 -3.24,6.8 -1.36,-0.35 -5.46,-4.64 0.95,-0.41 0.18,-2.32 3.01,-2.9 0.67,-2.85 -0.4,-1.81 -2.3,-0.08 -0.81,-0.86 -2.58,-0.49 -1.82,1.29 -5.24,-3.7 -0.93,1.63 -1.52,-1.61 0,0 0.33,-0.78 -2.54,-3.11 0.85,-2.2 -0.77,-1.76 0.35,-2.37 0.95,-1.27 1.69,0.3 2.02,-2.57 -0.08,-1.23 -1.26,-1.32 1.87,-4.51 -2.39,-2.07 -2.1,-3.16 1.71,-2.06 1.06,-2.85 -0.1,-2.94 -1.62,-3.14 1.7,-2.55 5.14,-3.38 0.39,-1.26 -0.08,-3 -2.54,0 -0.98,-2.29 0.33,-1.08 -1.82,0.31 -1.82,-0.84 0.37,-4.41 -0.71,-1.37 1.6,-5.76 0.71,-0.5 -1.56,-2.34 2.42,-2.97 -0.95,-0.9 0.3,-1.56 -0.33,-1.56 -0.77,-0.22 -0.06,-1.67 -1.45,-1.01 -1.59,0.12 -1.74,-2.43 -4.4,-0.2 -2.58,-2.12 -0.09,-1.98 -7.91,0.09 -0.49,-4.39 1.21,-4.05 0,0 0.03,-0.72 2.17,-1.07 0.86,-1.59 3.23,-2.65 0.67,-1.27 -1.85,-4.57 1.61,-0.19 0.03,-0.98 0.78,-0.05 1.53,-3.81 4.59,0.91 0.25,-1.13 4.1,0.65 1.51,-0.6 0.2,-1.45 1.9,1.79 1.82,-1.9 0.4,1.05 1.3,-0.65 -0.1,1.83 1.46,0.06 -1.24,5.58 1.99,0.06 5.8,3.59 0.38,2.3 5.95,-0.6 6.73,1.84 2.08,-1.22 2.05,0 0.08,-3.3 1.7,-0.98 -0.86,-4.62 1.82,-0.99 9.49,-1.23 0.89,4.47 4.62,-0.87 0.44,2.26 10.47,-1.67 6.73,-6.7 0.11,-12.44 2.07,-4.35 z m 226.58,25.03 -0.18,-1.28 2.67,0.13 0.78,0.71 -0.52,1.81 -0.88,-1.48 -1.87,0.11 z"
     title="Homyel'"
     id="BY-HO" />
  <path
     d="m 223.71217,153.45942 1.72,0.33 1.39,1.23 1.31,3.34 -0.35,1.28 1.85,1.09 0,0 -0.26,0.95 6.31,5.81 -1.28,0.79 -0.05,2.1 -1.08,0.88 0.98,3.71 -0.48,1.2 1.43,-0.89 1.19,0.51 1.29,-0.98 2.46,-0.29 1.54,1.36 4.28,7.18 3.31,1.38 0.49,1.99 -0.9,3.59 2,3.77 0.43,3.12 1.31,0.74 0.51,1.3 1.37,-1.27 1.32,0.29 0.36,0.83 2.74,-0.67 -1.05,1.86 0.07,4.24 2.45,0.94 -0.31,1.28 -2.35,-0.05 0.07,4.14 -3.67,-1.5 1.05,1.18 -0.79,0.89 -0.09,1.78 1.2,0.52 -0.41,1.37 1.31,-0.2 -0.23,2.49 0.98,1.26 -1.59,3.54 0.4,0.67 -1.27,0.61 1.92,1.08 -3.56,4.62 -2.6,-0.11 -0.96,2.25 -1.17,0.09 0.5,2.29 -1.17,-0.01 -2.69,6.18 0.28,2.35 -1.65,0.25 -0.77,0.92 -0.89,-0.57 -0.38,0.95 -1.08,0.08 -1.36,3.28 -0.66,-0.13 -1.64,2.67 0.42,1.16 -1.41,0.23 0.39,0.73 -1.62,2.08 -1.5,-0.47 -1.26,0.69 -3.03,-1.51 -0.77,0.62 -0.28,-1.36 -1.51,-1.36 -1.3,1.19 -1.28,-1 -3.44,3.18 -2.68,1.44 -1.18,1.91 -2.24,0.15 -1.06,-1.03 0.41,-1.27 -0.66,-0.34 -0.82,0.82 -0.37,2.35 -2.72,3.62 0.39,1.38 6.32,3.51 0.45,-1.27 -2.01,-1.83 1.02,-0.97 1.35,0.54 1.79,-1.17 1.48,0.03 0.02,1.21 -1.41,0.68 -0.44,3.34 1.23,1.24 -0.58,0.69 1.15,2.27 -0.33,1.75 1.49,1.64 0.26,1.97 2.5,0.93 2.64,-1.91 0.75,0.33 1.6,-1.57 3.75,-1.08 0.55,5.88 -1.59,4.29 3.31,-0.76 3.46,-2.76 2.79,6.45 -2.14,2.73 -2.03,0.75 -1.73,-0.3 1.96,3.56 -4.15,1.48 -2.24,2.35 -1.03,-1.27 -0.96,1.46 -2.77,0.19 1.92,4.46 -2.17,0.27 0.65,1.54 -0.79,0.27 1.23,1.22 1.46,-0.89 1.22,1.46 -1.51,1.25 1.3,1.92 -0.94,0.94 3.32,5.63 0.25,1.71 4.39,1.27 -0.8,3.45 1.83,-0.01 1.3,1.16 -0.13,1.49 3.04,2.67 0.83,2.81 2.84,2.57 -0.5,0.61 4.44,2.19 -0.1,3.36 -3.48,2.61 1.29,0.99 0.63,-1.35 0.77,-0.01 0.5,1.47 1.09,-0.33 0.29,8.48 1.76,4.12 -4.18,0.83 -0.72,0.98 -3.97,-0.52 -2.5,1.43 -0.86,-0.7 -2.01,2.4 -1.33,-0.38 -0.79,0.64 0,0 -0.32,0.57 -0.58,-0.81 -1.64,0.61 -0.98,1.15 -1.29,-2.38 -10.17,-0.04 -1.95,-1.02 -2.49,1.56 -0.6,-0.41 -0.04,-1.86 -1.71,2.32 -1.39,0.22 -1.67,-0.62 0.44,-0.85 -0.83,-0.49 -2.79,0 -0.01,-1.3 -2.06,0.02 -1.7,-0.9 -1.4,0.49 0.33,-1.41 -2.81,0.27 -1.16,1.99 -2.69,-0.94 -2.05,1.38 -2.69,-0.43 -0.57,-1.16 -1.65,-0.48 -2.18,0.23 -0.51,1.78 -1.05,-0.27 -0.54,2 -1.07,-0.21 0.52,3.38 -0.69,0.88 0.31,2.22 -1.28,0.27 -0.53,2.26 0.62,0.6 -1.47,1.01 -1.58,-0.51 1.01,2.03 -0.77,0.28 -0.89,3.6 1.31,2.63 -1.4,0.01 -0.15,2.56 -1.69,1.5 0.85,1.55 2,1.18 -0.37,3.61 0.94,0 -1.14,3.38 -1.61,0.42 0.11,1.24 2.27,2.12 -1.51,1.79 -0.29,1.03 0.6,0.56 -3.7,0.81 -1.7,2.65 -5.21,2.51 -0.82,2.41 -1.07,0.48 0.24,4 -4.39,0.9 -0.13,-0.64 -4.02,-0.06 0.82,2.65 1.5,1.47 -2.47,2.2 0.51,2.59 2.53,-0.26 0.5,1.32 -2.19,2.73 -2.76,-1.05 -0.96,-4.71 -3.96,1.68 -1.09,2.42 0.52,0.49 -0.8,0.79 -1.47,-1.05 -0.91,0.39 -0.6,-2.07 -1.56,-0.05 0.17,0.72 -2.23,0.98 0.16,0.9 -1.91,-1.32 -0.77,2.1 -1.03,0.21 -0.71,-1.24 0.9,-1.35 -0.94,-1.09 0.98,-1.85 -0.71,-0.83 0.89,-2.33 -0.15,-2.02 -1.25,-0.43 -1.74,4.43 -0.94,0.39 -2.97,-3.23 1.21,-1.44 -2.12,-3.9 -0.66,0.4 -0.63,-0.82 -1.16,0.01 -1.52,1.76 -3.62,-0.38 -0.67,0.77 -1.06,-0.38 0.41,-1.31 -0.6,-0.27 -2.04,2.26 -1.34,-1.45 -2.5,1.11 -2.3,-1 0.49,-4.32 -1.52,-0.17 -0.44,1.41 -2.27,0.55 -0.19,1.36 -4.1,2.84 -0.31,1.5 1.45,0.43 -0.26,0.78 1.68,0.98 -2.94,0.93 -2.62,4.1 1.46,1.51 -0.93,0.82 1.73,-0.39 -0.6,2.78 -0.61,0.02 -1.56,4.07 1.06,2.22 -0.07,2.6 -0.79,-0.94 -3.13,1.72 -8.939996,0.19 0.02,-2.41 -1.12,-0.28 -4.01,2.32 -3.85,-2.03 -1.23,1.39 0.64,-1.77 -0.93,-0.51 -1.79,1.18 -0.01,1.95 -0.7,0.48 -0.83,-2.43 -0.12,0.93 -1.4,-0.8 -1.56,0.35 -1.08,-0.91 0.24,-3.02 -2.95,-1.6 -2.28,0.74 -0.11,1.43 -5.7,-0.27 -0.23,1.19 -5.75,-0.01 0,0 0,-3.75 -1.05,-2.12 -0.62,-13.11 2.2,-2.56 -1.13,-2.13 -0.42,-5.9 -2.02,-3.02 0.22,-1.16 -1.16,-0.35 -0.96,-2.34 3.35,-9.36 -1.08,-2.2 -2.83,-2.4 -0.64,-4.51 -2.76,-1.6 -11.67,-34.12 -5.49,-22.71 -0.26,-4.89 -2.46,-3.29 0.25,-10.15 -2.09,-1.45 -0.92,-6.12 0.27,-5.62 0.95,0 0.58,1.47 3.31,0.13 2.12,2.08 2.85,-1.09 4.11,0.09 0.56,-0.65 4.17,1.98 1.13,1.56 -0.5,1.34 1.11,0.15 2.04,-1.35 -1.4,-2.24 0.17,-0.93 3.32,-2.49 2.56,1.64 1.16,-0.28 1.43,-3.05 3.55,2.08 0.48,3.03 1.46,0.18 8.14,-1.6 0.98,-2.24 2.08,0.39 1.05,-1.14 3.35,-0.86 0.94,1.52 -0.26,1.01 1.59,0.63 1.5,-0.99 0.5,1.46 4.01,4.45 1.25,0.33 1.15,-1.36 0.79,1.4 4.64,-0.71 -0.25,0.59 0.71,0.4 -0.13,-1.09 0.64,0.03 0.04,0.78 1.63,-0.81 1.34,-2.63 3.35,-3.75 3.759996,-3.26 2.27,-0.83 1.52,-2.23 2.03,0.53 2.11,-1.7 1.74,0.45 -0.91,6.63 3.62,-0.43 -0.2,-0.96 2.54,-2.38 1.84,-0.66 1.54,0.45 0.82,-0.5 0.07,-1.24 1.02,0.2 -0.3,-2.59 2.26,0.05 0.36,-0.92 -0.58,-0.48 -1.59,0.58 -1.51,-1.43 -0.17,-3.25 -3.54,-5.14 0.19,-0.69 1.4,0.33 2.76,-2.15 -0.92,-1.76 3.87,-0.14 6.53,-3.13 1.57,0.88 -0.29,0.74 1.34,2.03 1.68,0.86 2.48,-0.43 1.76,0.62 3.22,-4.35 6.31,-6.45 -0.1,-2.12 1.47,-2.79 0.85,-0.52 1.36,1.44 1.22,-2.69 2.59,1.46 0.35,-0.76 1.03,0.76 1,-0.67 1.32,0.37 0.71,-1 3.42,-1.31 0.98,-1.99 2.39,0.09 -0.16,0.86 1.1,0.01 1.08,-0.61 -0.12,-0.83 1.17,-0.04 0.23,-1.09 1.21,0.52 0.19,2.89 3.27,1.3 -0.5,0.9 1.2,1.34 -0.24,1.11 1.51,2.46 -3.4,-0.3 0.13,1.27 1.24,0.73 -0.03,2.17 -3.46,1.44 -0.32,1.31 1.77,2.4 1.42,1.06 0.95,-0.48 2.72,1.28 1.77,-0.31 -0.23,0.65 1.27,1.26 1.68,-1.48 1.54,0 0.11,-2.06 1.29,-0.01 0.13,-1.46 2.52,1.62 1.15,-0.63 0.05,-1.36 0.75,1.21 2.05,0.55 0.44,-0.67 -1.54,-0.62 -0.55,-1.95 0.67,-1.26 -0.46,-1.2 -1.54,-2.19 -0.54,0.14 3.57,-2.48 -0.68,0.48 -1.45,-0.94 -1.13,-3.59 -2.12,-0.67 -0.69,0.51 -0.75,-0.78 0.56,-2.49 -1.68,-2.78 -1.78,-0.2 -1.48,1.34 -0.97,-0.78 -0.77,0.92 -2.1,-0.68 -0.15,-0.87 -2.68,0.99 -0.19,-2.16 -1.1,-0.19 0.12,-1.15 1.41,-0.16 0.58,-2.71 2.05,-1.4 -0.44,-2.12 0.52,-1.25 0.96,0.65 1.83,-3.15 -0.77,-3.31 0.61,-1.03 -1.65,-0.35 2.43,-1.34 3.24,-8.28 5.13,-3.65 0.75,-1.61 -0.55,-5.46 -1.07,-1.69 0.43,-0.92 -0.94,-5.22 0.67,-0.47 -0.43,-2.22 0.98,-5.93 -0.98,-6.77 1.17,-2.83 1.83,-0.26 0.44,-4.02 1.55,-0.79 0.93,-2.02 2.7,-2.38 0.49,-3.91 1.4,-0.08 0.62,-0.91 1.47,0.59 1.68,-0.63 1.29,-1.5 2.65,-1.22 1.16,1.21 4.83,0.85 -0.69,-0.82 1.99,-0.71 -0.21,-1.86 2.27,-0.29 0.84,-2.1 1.21,0.44 1.71,-1.1 1.73,0.39 1.27,-1.19 z m -53.09,91.69 -1.05,-0.26 0.64,-0.93 1.45,-0.06 -1.04,1.25 z"
     title="Hrodzen"
     id="BY-HR" />
  <path
     d="m 459.40217,249.17942 2.09,-0.51 1.22,1.11 0.97,-1.55 0.88,0.31 0.26,-1.15 1.12,0.57 1.55,-2.35 -0.21,-1.73 1.45,-0.37 0.42,-2.31 3.22,0.26 -0.85,-2.77 0.91,-1.72 3.62,-1.36 -0.03,1.46 3.15,1.17 2.08,2.23 1.55,-0.93 4.24,0.48 3.29,-0.8 1.9,-1.74 2.14,1.43 1.31,-1.81 -0.33,-0.6 0.9,-0.42 0.83,0.68 -1.26,1.78 1.98,2.02 -0.82,1.12 3.33,1.67 0.17,-0.73 1.55,0.15 1.66,-1.4 -1.16,3.63 2.71,-0.01 0.89,-0.47 -1.73,-2.82 0.14,-1.51 3.4,1.08 -0.01,-1.16 1.94,-0.65 -2.1,-0.98 -0.92,-1.81 2.43,0.15 1.41,1.92 1.85,-3.08 -1.85,-2.01 0.53,-1.65 2.88,-0.54 0.19,0.86 -0.91,1.02 -0.93,-0.03 0.11,0.96 3.01,-1.03 1.85,2.57 -0.1,2.14 1.66,-0.11 1.06,-2.38 -0.79,-1.13 0.86,-0.64 2.43,1.88 0.68,-0.61 1.26,1.3 0.94,-0.45 1,-5.17 1.96,1.03 -1.15,2.52 0.56,1.7 -2.83,2.47 -1.32,4.06 5.4,1.41 2.31,-3.69 3.15,0.28 -0.46,-1.88 0.69,-1.34 0.69,1.1 0.95,0.01 0.57,3.66 1.41,1.15 0.57,2.7 1.96,-1.43 0.36,2.28 1.39,-0.08 -0.66,0.9 1.92,0.44 -0.96,-1.26 0.13,-1.45 2.79,-0.04 -2.71,-0.95 3.24,-2.62 -1.24,-0.63 1.48,-3.27 1.01,-0.67 0.7,0.39 0.66,-1.37 -1.07,-1.64 -1.46,-0.13 -0.58,-0.89 1.42,-0.9 1.56,0.24 2.58,-1.61 0.72,0.49 2.81,-0.99 -1.08,-2.9 0.6,-1.08 2.01,-0.65 2.23,0.85 0.31,0.76 2.64,-0.02 0.47,2.28 2.81,-0.87 3.12,1.02 1.9,-0.95 -0.17,-2.17 1.1,-0.54 -0.1,-1.72 1.83,-1.45 1.44,2.89 1.89,-0.27 0.78,1.03 1.94,-0.33 1.29,3.27 2.58,-2.76 0.51,-1.62 2.29,-0.37 0.53,-1.01 2.83,-1.28 -1.16,-2.2 1.81,-0.28 1.09,1.16 2.47,-0.69 0,0 2.18,0.54 0.29,3.85 0.84,0.45 0.31,2.21 1.32,1.6 -1.3,2.9 3.57,1.57 1.57,3.44 -2.64,2.49 2.54,0.88 -0.77,3.99 0.41,4.4 1.51,-0.24 1.81,1.2 1.31,-1.47 0.54,3.22 1.95,-0.24 -0.24,1.19 -1.46,-0.42 -0.58,1.12 4.08,0.41 3.04,3.47 1.42,-0.18 0.43,0.75 -0.76,1.82 2.65,1.2 1.84,-0.02 0.72,1.81 4.66,0.48 2.06,-1.1 -0.23,0.86 1.76,2.03 0.06,1.86 3.58,-1.25 0.67,1.26 0.96,-0.89 2.11,-0.3 -0.55,3.26 -0.97,1.16 2.47,0.16 2.63,-2.15 1.14,1.46 1.24,-0.9 0.74,1.25 0.96,-0.89 1.39,0.5 -1.13,1.69 0.96,2.05 -0.35,2.1 -2.52,3.77 0.8,1.42 1.65,0.48 0.11,3.14 -2.73,1.89 0.21,2.25 -0.68,0.24 -1.3,3.92 0.17,2 -2.34,0.86 0.9,0.79 0.51,-0.34 0.06,0.92 -0.65,1.07 -1.46,0.17 -0.68,1.57 0.95,0.37 -0.24,0.72 -2.43,0.25 1.11,1.4 -0.75,3.27 0.59,0.43 0.56,-1.61 0.72,0.58 0.25,-0.78 1.01,-0.08 0.34,0.83 0.89,-0.21 5.61,3.33 0.55,-1.35 1.58,-0.41 1.71,0.68 2.79,-2.46 4.3,0.67 -0.28,-0.9 2.89,0.34 1.16,-1.38 2.06,-0.52 1.6,2.16 1.79,0.18 0.33,0.87 0.65,-0.77 1.68,0 1.37,3.96 2.11,0.16 0.46,-0.89 1.72,-0.4 0.23,0.75 -1.13,1.23 3.72,-0.15 1.6,1.56 0.72,3.35 0.99,0.61 1.94,-1.56 2.36,0.15 2.41,-1.2 0.2,2.07 2.1,0.9 0.56,1.03 0.16,2.51 -3.39,2.24 -1.94,-0.28 -1.06,0.78 -0.05,1.27 0.36,2.3 0.89,0.49 -0.05,-2.48 1.4,1.73 -1.55,3.91 2.37,3.86 1.55,0.88 -0.49,2.23 2.78,0.48 2.97,2.16 -0.79,1.35 4.56,0.57 0.17,4.29 1.67,0.35 1.41,-3.61 0.54,1.18 2.46,1.43 -1.96,0.53 -0.26,1.24 5.97,1.18 0.84,-0.77 1.47,0.25 -1.47,2.09 1.08,2.95 -1.64,0.19 -0.06,1.49 0.74,1.23 1.24,-0.24 0.62,1.39 -1.24,-0.79 -1.43,0.21 0.25,1.16 -1.33,1.45 1.94,4.68 -3.61,0.67 -1.27,-1.21 -1.47,0.97 -1.07,2.25 -2.58,-3.15 0.2,3.02 -1.47,0.07 -1.11,2.87 -2.84,-1.35 -1.46,1.04 -0.19,-1.69 -2.66,0.48 0.14,0.72 1.85,0.59 -0.1,1.1 -4.82,9.24 -1.14,0.34 -1.51,2.38 -1.97,-0.42 -2.06,0.61 -1.37,1.5 0.3,1.64 -0.84,1.74 -2.19,2.06 -4.36,0.08 -0.81,1.61 0.34,1.91 -3.75,-1.06 -1.04,2.41 -5.66,1.41 -5.64,-1.63 -0.13,-1.12 -1.67,0.85 -0.31,0.95 -4.15,0.24 -1.5,-0.63 0.54,-2.06 -0.85,-0.5 -1.87,-0.76 -1.12,0.93 -2.81,-0.44 -2.41,-3.67 -0.68,-4.42 -1.32,-0.45 -1.85,-2.12 -1.09,0.53 -7.54,-4.38 -3.59,4.46 -2.73,0.28 -0.48,-1.03 -2.01,-0.05 -0.5,-0.64 -7.36,-0.94 1.01,4.43 -1.45,0.79 -0.13,1.84 -2.37,1.7 0.14,1.77 0.94,0.03 1.49,1.99 -0.65,1.56 -2.05,0.2 0,0 -1.5,0 -1.02,-2.26 -5.68,-0.12 -0.02,-0.88 -0.42,0.61 -1.1,-0.57 -0.55,0.72 -1.27,-3.48 -6.44,0.58 -1.09,-2.01 1.61,-1.54 -0.15,-2 -1.36,-0.38 -0.61,-2.01 -2.47,0.49 -0.11,-2.9 -1.93,-1.21 0.64,-2.31 -0.6,-0.78 -0.89,0.53 -1.09,-1.14 -1.43,1.02 -1.16,-1.83 2.07,-1.98 0.9,-1.96 -0.36,-0.7 -6.81,0.55 -0.42,-0.91 -3.01,0.61 -1.53,0.51 0.32,1.38 -1.33,1.17 -5.13,-0.72 -0.66,0.9 -2.54,0.23 0.05,1.76 -3.05,0.36 -1.92,-1.84 1.05,-2.15 -6.99,-1.36 0.64,-1.42 -1.38,-0.74 1.45,-2.67 -1.23,-0.68 -0.31,2.11 -1.63,2.49 -2.67,-0.27 -0.93,2.57 -1.8,-0.3 0.2,1.02 -1.07,1.34 -3.41,-1.06 -2.26,1.79 -0.21,2.01 -3.39,-0.53 -1.29,1.3 -3.55,0.75 -0.09,-1.25 -2.04,2.66 -1.48,-0.42 -1.42,0.85 -0.56,-0.57 -1.86,1 -1.1,-0.93 -2.12,-6.89 -1.87,-1.18 0.16,-1 -0.96,-1.19 -9.22,-2.17 0.12,1.34 -1.15,1.99 -3.48,-0.51 0.39,-1.5 1.04,-0.51 -0.3,-1.04 -1.43,-1.06 -0.96,0.49 0.67,0.89 -2.14,0.9 -0.81,-3.92 -3.43,1.69 -3.64,3.67 0.06,5.09 1.44,1.73 0.26,1.34 -0.74,0.21 2.11,5.69 -3.55,1.28 2.09,1.05 -1.07,0.81 0.26,1.2 0.83,-0.18 -1.55,1.5 0.26,1.34 1.25,0.26 -4.07,2.13 -1.08,-0.81 -2.08,0.55 -0.85,-1.94 -0.71,0.06 -0.03,1.08 -1.05,-0.2 -0.25,0.9 0.99,2.44 -1.9,1.29 1.64,3.33 2.2,-0.78 0.86,1.88 -3.07,3.87 0.99,0.54 0.55,2.24 0.97,0.8 4.03,1.75 -1.51,1.7 0.66,1.4 -4.09,1.31 -0.62,-1.15 -0.6,-0.35 -0.16,0.72 -1.57,-1.37 -2.16,-0.27 -2.45,0.75 -0.51,-0.62 -2.65,0.24 -0.75,-0.58 -3.19,3.49 -3.52,1.58 -0.81,-1.07 -1.3,0.01 0.12,-1.58 -1.31,-0.17 -0.63,1.5 -0.09,-0.81 -1.83,-0.67 -5.44,-0.55 -1.17,-1.79 -2.79,-0.16 -1.89,-1.15 -1.5,0.83 -4.36,6.91 0.96,4.33 -1.7,0.89 -0.33,-0.53 -9.46,1.27 0.41,3.02 -5.87,8.2 -1.64,-0.29 -1.62,1.97 -3.48,-1.13 -0.64,3.26 0.99,0.04 0.25,1.28 1.4,-0.38 0.1,2.05 -3.89,0.03 0.03,1 -2.32,2.61 -2.63,-1.35 -1.86,1.4 -3.49,-1.33 -1.97,1.18 -1.51,-0.22 -0.79,1.07 -3.04,-0.73 -1.94,0.71 -0.66,-1.1 -2.1,2.03 -1.02,-0.71 0,0 0.39,-0.33 -1.58,-2.09 -2.75,-1.91 -3.63,-1 0.08,-2.09 0.34,-1.86 3.76,-2.56 1.94,-4.68 -1.58,-3.52 -0.89,-0.36 0.12,-1.41 3.47,-0.92 -0.28,-0.9 1.35,-1.74 -0.87,-3.07 -0.66,-0.17 -2.02,-4.32 1.03,-2.56 0.68,-0.59 1.03,0.73 1.74,-1.95 2.14,1.55 1.72,0.15 1.51,-2.97 -2.23,-2.56 -0.14,-3.15 -0.75,-0.73 1.05,-2.17 -1.17,-3.84 1.17,-1.26 -1.12,-0.54 -0.86,-2.31 -1.15,0.55 1.26,-2.1 -1.47,-2.05 -5.96,1.63 -1.31,-0.27 -0.06,-0.8 0.9,-0.13 -2.18,-1.02 0.46,1.82 -2.45,0.76 -0.49,-1.43 0.49,-0.83 -2.6,0.72 1.73,-1.02 0.94,-2.59 -0.29,-0.96 -2.62,-1.02 -1.86,3.01 -1.47,-1.94 -1.38,0.14 -0.35,1.43 -0.95,-0.18 -0.49,-1.39 -2.58,1.1 -0.48,-2.43 -1.28,0.3 -3.92,-2.3 0.41,-1.87 -1.69,-1.17 -0.71,-3.34 2.15,0.75 2.22,-1.43 0.59,0.99 3.51,1.22 7.17,0.64 2.48,-0.15 -0.01,-1.93 6.39,-0.2 1.35,-0.65 -0.07,-5.03 -2.31,-2.76 -3.3,-1.29 -0.25,-1.37 0.71,-2.83 1.49,0.29 0.07,-1.03 1.62,-0.92 0.03,-6.51 -2.38,-2.19 -2.71,-0.87 1.05,0.01 0.39,-1.25 1.29,-0.26 2.24,1.33 0.95,-1.79 1.22,0.22 2.77,-3.55 0.58,0.86 0.89,-0.7 0,-1.91 0.78,0.31 1.14,2.54 0.77,-1.31 3.07,-0.26 0.14,-1.35 -1.27,0.33 -0.85,-1.25 0.57,1.8 -4.21,-1.07 2.73,-2.52 4.06,0.2 0.27,-2.75 2.59,0.11 -0.75,-1.19 0.71,-3.09 6.64,4.09 4.95,0.2 -0.29,-2.16 3.04,-1.09 1.19,2.97 2.96,0.3 2.64,3.48 0.11,1.86 3.52,0.59 0.05,1.01 0.72,0.22 -1.22,-5.61 1.53,-0.35 -1.66,-0.6 -0.09,-0.94 3.51,-1.69 0.41,1.02 5.45,0.55 0.89,-1.59 -1.28,-1.06 0.19,-2.56 -0.86,-0.67 0.59,-1.4 1.67,0.84 0.87,-1.34 -0.55,-2.87 0.45,-2.47 1.78,0.18 0.14,1.63 1.79,-0.66 1.79,3.02 1.49,-0.37 0.74,-1.54 2.85,-0.63 0.72,-1.71 3.35,-0.97 1.03,-1.72 -0.19,-2.8 0.68,-1.78 1.54,-0.01 1.88,2.88 1.79,-0.48 -0.3,-3.55 0.99,0.18 1.44,-1.12 -2.99,-0.96 0.63,-2.13 6.2,0.47 1.18,-0.67 0.3,-1.92 -2.15,-0.42 -0.59,-1.21 -2.3,0.45 -0.7,-2.51 -3.54,0.94 -0.91,-0.64 2.11,-0.91 2.69,-3.44 -2.59,1.51 -1.38,-1.01 0.06,-0.68 1.67,-0.22 0.7,-1.12 -2.03,-0.83 1.93,-4.03 -1.85,-1.12 0.18,-3.43 -1.95,-1.58 1.39,-1.6 -0.41,-1.88 -2.42,-2.39 1.01,-1.73 3.87,-2.12 2.63,0.04 -0.86,-1.24 1.67,-14.45 -1.05,-1.11 1.8,-1.56 0.4,-1.79 -0.7,-0.33 1.1,-0.66 -1.3,-0.42 0.26,-0.84 -0.93,0.11 -0.07,-1.27 -2.38,0 z"
     title="Mahilyow"
     id="BY-MA" />
  <path
     d="m 367.08217,0.3194174 0.55,0.05 0.25,3.65 2.97,0.7 3.39,3.32 0.05,3.4599996 1.55,0.36 1.05,-1.06 0.65,2.4 1.97,1.77 2.09,-0.54 2.63,0.45 0.7,-2.72 -1.05,-2.11 0.24,-1.4499996 0.73,-0.27 2.8,1.61 -0.3,1.2699996 3.41,-2.3499996 4.53,0.07 0.18,-0.8 1.37,-0.42 5.02,2.1 1.69,-0.77 2.86,0.36 0.05,1.0699996 -1.29,1.59 -1.22,-0.37 -0.55,1.51 1.49,2.02 0.08,1.67 3.05,2.59 0.34,3.75 2.48,3.91 0.44,-0.53 1.28,0.53 3.15,-0.58 3.02,2.3 1.02,-4.26 4.07,-0.75 0.85,-0.79 1.38,0.73 -0.01,-2.22 4.53,-0.21 0.63,-1.84 5.41,-1.02 1.82,2.38 1.65,-1.58 1.69,0.21 4.54,5.1 2.82,-1.14 2.18,0.94 1.41,-0.4 3.79,2.72 2.43,-0.41 2.43,0.77 2.12,1.71 -1.71,0.83 -0.26,1.06 2.52,0.71 1.47,2.32 -2.29,1.27 -1.34,-0.06 -0.15,0.81 -2.43,0.33 2.28,3.68 -1.52,0.01 -1.08,1.96 0.18,4.51 -2.05,2.81 0.49,2.96 -0.94,1.81 0.36,1.14 2.77,0.5 3.86,2.77 0.47,1.77 1.81,1.44 2.49,0.43 4.54,-4.06 0.62,-3.23 2.4,-2.67 1.19,0.51 2.9,-2.07 2.77,0.1 2.71,-1.52 1.22,1.63 -0.15,1.18 1.01,0.49 1.78,-0.47 2.85,-3.17 -0.11,-1.7 0.76,0.34 2.01,-3.3 -0.73,-1.28 2.02,-1.55 3.93,1.36 1.79,-0.77 0.02,-1.54 1.81,-0.13 3.78,1.62 1.32,1.82 0.87,-0.43 2.09,2.07 2,-0.04 0.76,-2.39 1.83,-0.05 0.09,-2.07 -0.67,-1.05 0.5,-0.61 0.98,2.17 2.02,-0.63 1.48,0.41 1.08,-0.82 2.5,0.97 0.24,-0.72 0.68,4.86 3.75,-0.45 2.09,3.12 2.43,-0.73 0.82,1.08 5.56,-0.66 0.34,1.25 1.97,1.41 -1.64,1.46 2.48,4.15 3.93,0.13 3.56,2.86 1.52,3.65 -0.85,1.62 0.2,1.72 2.21,0.19 -1.08,1.86 1.27,0.09 -0.22,2.74 1.16,0.12 0.74,-2.77 2.5,-0.42 2.05,7.19 -0.43,0.8 0.98,1.13 3.26,-0.02 -0.04,-1.25 1.42,-0.13 0.42,-1.96 1.35,-0.55 -1.04,-1.25 2.08,-0.24 3.29,2.4 1.44,-1.31 0.27,4.67 1.49,5.82 -2.94,1.28 -0.18,0.88 1.3,0.85 -0.13,0.96 1.2,-0.1 1.09,1.9 -2.94,2.54 -1.72,0.26 1.07,2.18 -0.54,2.19 2.27,5.800003 -1,2.88 -1.62,0.35 -2.13,3.21 -2,1.06 -1.27,1.8 -0.59,1.22 0.2,4.89 4.61,1.16 0.02,1.76 1.67,0.7 1.2,6.29 2.77,1.21 0.8,2.85 1.2,0.22 -0.93,3.06 1.76,0.35 -0.61,2.76 0.59,1.17 -1.04,2.69 1.11,3.02 0.07,4.84 -0.79,0.67 -0.49,-0.76 -3.25,-0.87 -2.16,2.25 2.69,2.22 1.49,2.91 -2.02,0.63 0.14,2.11 -2.58,0.05 0.01,1.47 -3.51,-0.25 -2.64,1.31 -0.05,1.74 0.6,0.13 0.5,2.25 -1.52,1.99 0.61,1.45 -1.82,0.44 -3.46,8.96 6.67,2.7 3.13,3.41 1.98,0.41 3.14,2.42 1.7,3.01 1.52,-1.2 0.04,3.43 -0.83,1.24 0.39,1.9 2.53,-0.35 4.88,1.7 1.72,-1.47 1.24,1 3.72,-0.35 1.25,1.98 0.59,3.23 -2.76,4.71 -2.09,1.48 -0.84,1.85 0.17,2.47 -2.85,1.46 0.35,1.74 -1,1.31 1.39,1.89 2.15,0.31 2.05,1.95 1.16,0.29 1.71,-0.8 0.19,1.24 0,0 -2.47,0.69 -1.09,-1.16 -1.81,0.28 1.16,2.2 -2.83,1.28 -0.53,1.01 -2.29,0.37 -0.51,1.62 -2.58,2.76 -1.29,-3.27 -1.94,0.33 -0.78,-1.03 -1.89,0.27 -1.44,-2.89 -1.83,1.45 0.1,1.72 -1.1,0.54 0.17,2.17 -1.9,0.95 -3.12,-1.02 -2.81,0.87 -0.47,-2.28 -2.64,0.02 -0.31,-0.76 -2.23,-0.85 -2.01,0.65 -0.6,1.08 1.08,2.9 -2.81,0.99 -0.72,-0.49 -2.58,1.61 -1.56,-0.24 -1.42,0.9 0.58,0.89 1.46,0.13 1.07,1.64 -0.66,1.37 -0.7,-0.39 -1.01,0.67 -1.48,3.27 1.24,0.63 -3.24,2.62 2.71,0.95 -2.79,0.04 -0.13,1.45 0.96,1.26 -1.92,-0.44 0.66,-0.9 -1.39,0.08 -0.36,-2.28 -1.96,1.43 -0.57,-2.7 -1.41,-1.15 -0.57,-3.66 -0.95,-0.01 -0.69,-1.1 -0.69,1.34 0.46,1.88 -3.15,-0.28 -2.31,3.69 -5.4,-1.41 1.32,-4.06 2.83,-2.47 -0.56,-1.7 1.15,-2.52 -1.96,-1.03 -1,5.17 -0.94,0.45 -1.26,-1.3 -0.68,0.61 -2.43,-1.88 -0.86,0.64 0.79,1.13 -1.06,2.38 -1.66,0.11 0.1,-2.14 -1.85,-2.57 -3.01,1.03 -0.11,-0.96 0.93,0.03 0.91,-1.02 -0.19,-0.86 -2.88,0.54 -0.53,1.65 1.85,2.01 -1.85,3.08 -1.41,-1.92 -2.43,-0.15 0.92,1.81 2.1,0.98 -1.94,0.65 0.01,1.16 -3.4,-1.08 -0.14,1.51 1.73,2.82 -0.89,0.47 -2.71,0.01 1.16,-3.63 -1.66,1.4 -1.55,-0.15 -0.17,0.73 -3.33,-1.67 0.82,-1.12 -1.98,-2.02 1.26,-1.78 -0.83,-0.68 -0.9,0.42 0.33,0.6 -1.31,1.81 -2.14,-1.43 -1.9,1.74 -3.29,0.8 -4.24,-0.48 -1.55,0.93 -2.08,-2.23 -3.15,-1.17 0.03,-1.46 -3.62,1.36 -0.91,1.72 0.85,2.77 -3.22,-0.26 -0.42,2.31 -1.45,0.37 0.21,1.73 -1.55,2.35 -1.12,-0.57 -0.26,1.15 -0.88,-0.31 -0.97,1.55 -1.22,-1.11 -2.09,0.51 0,0 -2.3,1.2 -2.22,-1.39 1.56,-2.16 -0.59,-0.99 0.37,-1.05 0.85,1.44 1.24,-1.49 0.03,-3.37 1.18,-1.35 1.25,-0.21 -2.66,-0.71 -1.48,-2.65 0.67,-1.58 -1.58,-0.27 -0.24,-1.7 4.08,0.08 0.76,-0.27 0.7,-1.82 1.59,0.44 0.36,-0.53 -1.81,-2.39 0.18,-2.82 1.13,-0.29 -1.52,-2.31 0.21,-1.17 -0.73,0.26 -0.66,-0.83 3.62,-4.71 0.1,-1.36 -0.86,-1.05 1.7,-3.73 -0.26,-3.03 2.32,-1.9 -1.98,-3.99 -2.83,0.69 0.17,1.57 -1.11,0.35 -0.62,2.17 -2.64,-0.56 1.22,-1.83 -2.69,3.27 -0.6,-1.28 -1.21,-0.17 -2.05,2.11 -2.08,-0.52 -1.06,0.63 -0.41,-0.91 -1.77,-0.1 -0.33,-3.58 -0.82,-0.71 1.44,-1.42 -1.7,-0.83 0.64,-1.32 -3.04,0.34 -0.9,1.01 -2.88,-0.37 -1.4,-1.09 -5.14,2.93 -0.51,0.84 0.4,2.29 -1.16,1.22 -1.22,-0.41 -0.22,-1.06 -0.78,0.25 -2.44,-1.56 -2.79,-0.12 -0.82,-1.12 -2.67,1.01 1.15,1.38 0.04,1.47 -0.3,1 -1.5,0.64 -3.6,0.4 -1.06,-0.34 -0.05,-1.08 -2.86,-0.7 0.44,0.62 -3.67,0.94 -2.54,-0.62 0.2,-0.98 -1.02,-1.21 0.96,-1.1 -0.01,-1.87 -3.49,-6.01 -1.79,0.35 -0.6,-1.28 -1.1,-0.16 -0.69,1.42 -8.73,-0.09 -0.77,6.68 -1.19,3.88 -1.78,3.09 -1.5,0.02 -3.5,-5.04 -1.84,-0.67 -0.58,-2.54 -1.47,0.81 -0.63,-2.24 -0.59,0.47 0.69,0.98 -0.32,1.31 -1,-1.57 0.24,-2.58 -2.91,-1.95 -0.95,-1.53 -1.42,-0.33 -4.34,2.08 0.23,-0.92 -0.97,1.39 0.79,1.84 -2.31,0.67 -0.93,1.52 -0.52,-1.09 -1.12,-0.05 -3.96,2.21 -0.46,3.08 -2.07,0.81 -2.01,-3.42 -3.21,0.42 -2.49,-1.45 0.81,-1.96 -1.51,-1.17 -2.69,3.02 -0.73,0.12 -0.25,-0.81 -2.66,1.64 -1.46,-0.06 -0.58,-2.31 -1.68,-1.12 0.71,-2.52 -3.06,-2.71 -0.05,-8.57 -3.27,-1.52 -1.59,-1.58 -1.32,0.6 -5.97,-0.3 1.45,-5.3 -2.04,-0.79 -2.3,1.08 -0.4,-4.06 -2.28,-1.09 -0.45,-1.27 -1.49,0.16 -0.52,-0.84 -1.52,1.02 -3.79,-2.33 -1.67,-3.42 -1.99,-0.55 0.84,-4.53 -2.2,-0.82 -0.15,-1.54 -0.55,-0.31 -0.46,0.66 -0.73,-1.09 0.3,-1.85 0.72,-0.45 -1.1,-2.03 -3.74,0.74 -0.66,-1.72 -1.37,1.11 -0.89,-1.22 -1.53,2.22 -0.77,-2.03 -2.92,1.03 -1.64,-0.68 -1.63,0.75 0.53,0.81 1.38,-0.22 -0.35,1.44 -4.37,0.03 -1.03,1.19 -2.5,0.55 -0.51,-2.76 -2.88,-2.13 -1.59,-2.32 -1.19,0.82 -0.83,-0.4 -1.95,2.84 -0.92,-1.03 0.1,-1.22 -1.54,-0.15 -1.14,0.81 -0.24,1.44 1.01,1.56 1.05,0.03 0.11,1.76 -0.69,0.6 -1.24,-1.14 -1.01,1.22 -1.83,-0.88 -1.46,0.52 -0.02,1.51 -1.65,0.12 -1.1,-0.41 -0.89,-2.2 -1.13,0.43 -2.13,-1.84 -1.3,1.37 -2.64,-0.52 -0.34,0.52 1.68,1.67 -3.32,3.12 -4.42,-2.84 -1.45,1.35 -2.61,-1.92 -1.49,0.59 -0.62,-1.49 -1.7,-1 -4.2,-1.12 -0.98,1.61 0.79,0.62 0.66,-0.39 -0.14,1.41 -1.09,0.67 -1.48,-1.16 -2.22,3.81 0,0 -1.84,-1.09 0.35,-1.28 -1.31,-3.34 -1.39,-1.23 -1.72,-0.34 0,0 0.44,-2.17 2.05,-3.45 0.36,-3.39 1.53,-0.27 -0.19,-0.71 0.67,-0.29 -2.9,-4.08 2.47,-1.65 2.8,-0.5 0.71,-0.57 -0.69,-0.58 1.88,-0.26 -0.2,-1.2 2.4,-0.63 2.61,0.96 0.47,1.17 1.13,-0.94 3.53,1.45 1.17,-0.99 0.15,-1.42 2.65,-1.53 1.93,2.13 3.13,-1.32 2.76,0.83 2.38,-1.8 1.57,0.49 0.31,-1.48 1.18,0.45 0.66,-0.91 -1.2,-0.65 -0.81,-2.7 1.3,-0.9 0.77,0.66 1.85,-1.98 0.1,-3.7 1.04,-1.22 2.4,-0.72 1.55,-1.81 2.5,-0.88 -0.23,-3.42 -2.9,-1.83 -5.21,-0.14 -4.01,-2.24 -0.4,1.25 -1.03,-0.63 -0.99,1.67 -0.29,-1.68 -1.07,0.39 0.28,0.75 -0.82,0.88 -1.55,-0.09 -0.15,-0.82 -1.54,0.89 -1.37,-1.35 -6.73,-1.56 -0.75,-0.83 2.01,-1.01 0.4,-1.76 1.92,-0.04 2.15,-2.38 1.69,-0.04 -0.41,-2.38 0.78,-0.660003 -1.3,-3.82 1.22,0.15 -1.05,-1.5 1.72,-2.52 -0.78,-1.38 -0.98,-0.2 -1.16,-3.2 1.26,-2.42 2.83,-1.31 2.2,-3.62 0.69,0.29 1.69,-1.4 -0.07,-3.74 -0.66,-1 1.29,-2.18 -0.5,-3.52 -1.04,-0.15 -0.02,-3.21 1.58,-2.51 -0.35,-0.6 5.24,0.44 1.96,2.49 2.9,0.6 1.27,-2.59 5.24,-2.19 0.41,-2.73 1.68,-2.08 1.77,-5.08 1.77,0.19 1.91,-3.25 3.01,-2.11 1.35,0.71 1.1,-0.85 3.63,0.42 0.63,-2.26 1.49,-0.77 1.29,0.4 0.8,-0.73 1.33,1.99 2.41,0.67 2.94,3.46 0.34,1.35 2.42,1.21 4.89,-1.82 1.31,-1.96 4.88,2.64 8.5,1.28 5.11,-0.42 1.77,-7.9 -1.13,-5.78 2.12,-2.76 0,-2.05 6.21,-5.71 2.48,-0.24 2.06,-1.08 1.1,-2.28 -0.99,-1.25 0.83,-0.07 1.48,-1.83 -1.66,-1.7 3.33,-0.88 1.36,-1.35 2.13,0.87 2.33,-3.53 1.23,-4.1499996 1.28,-0.69 0.54,-1.4 1.47,-0.74 3.46,1.06 0.2,-1.21 1.76,-1.52 1.72,0.43 0.25,-1.83 2.94,-3.19 z"
     title="Vitsyebsk"
     id="BY-VI" />
  <path
     d="m 326.73217,306.37942 -0.74,-0.2 -1.05,-2.45 0,0 0.7,-1.02 0.77,0.25 0,0 0.32,3.42 z m 22.8,-9.15 -0.72,-0.07 -0.05,-1.75 1.26,0.74 -0.49,1.08 z m 10.29,-2.89 1.61,2 -1.38,1.04 0,0 -2.54,-2.99 2.31,-0.05 z m -33.65,-9.77 2.46,1.34 1.56,-0.7 -0.35,1.3 1.41,0.88 1.69,-0.32 1.11,-1.16 2.32,0.37 0.53,-0.84 0.95,0.26 -0.76,3.65 -4.13,2.09 1.37,4.66 -1,2.69 3.24,2.37 0.48,-3.37 4.42,0.21 1.47,1.58 -2.21,1.69 -0.1,1.69 -2,0.42 -2.68,-1.9 -1,1.37 0.32,1.53 -2.42,1.16 -0.53,-0.58 0.63,-1.05 -1.21,-0.84 1.21,-0.84 -0.63,-1.32 -1.58,1.16 -2.11,0.26 -10.16,-1 -0.89,0.63 -0.47,-1.05 -2.21,-0.74 -0.84,-2.58 -1.74,0.63 0.05,0.74 -1.95,-1.21 1.9,-1.79 1,0 0,-4.95 1.42,-2.9 2.16,-2.16 2.37,-0.84 0,0 6.9,-0.54 z"
     title="Minsk City"
     id="BY-HM" />
  <path
     d="m 229.62217,160.73942 2.22,-3.81 1.48,1.16 1.09,-0.67 0.14,-1.41 -0.66,0.4 -0.79,-0.63 0.99,-1.6 4.19,1.12 1.71,1 0.62,1.49 1.48,-0.59 2.61,1.93 1.45,-1.35 4.42,2.84 3.33,-3.12 -1.68,-1.67 0.34,-0.53 2.64,0.53 1.29,-1.37 2.13,1.84 1.13,-0.42 0.89,2.19 1.1,0.41 1.65,-0.11 0.02,-1.51 1.46,-0.51 1.82,0.87 1.01,-1.22 1.24,1.14 0.69,-0.6 -0.11,-1.76 -1.05,-0.02 -1,-1.57 0.24,-1.44 1.14,-0.81 1.54,0.15 -0.1,1.22 0.92,1.03 1.95,-2.84 0.83,0.4 1.19,-0.82 1.6,2.33 2.88,2.13 0.51,2.76 2.5,-0.55 1.03,-1.19 4.37,-0.03 0.35,-1.44 -1.37,0.22 -0.53,-0.81 1.63,-0.76 1.63,0.68 2.92,-1.03 0.77,2.03 1.54,-2.22 0.89,1.22 1.37,-1.1 0.67,1.72 3.74,-0.74 1.09,2.03 -0.72,0.45 -0.3,1.85 0.73,1.09 0.47,-0.65 0.55,0.31 0.15,1.54 2.2,0.82 -0.84,4.53 1.99,0.55 1.67,3.42 3.79,2.33 1.53,-1.01 0.52,0.83 1.49,-0.15 0.45,1.27 2.28,1.09 0.39,4.07 2.3,-1.09 2.05,0.79 -1.45,5.3 5.97,0.29 1.32,-0.6 1.59,1.58 3.28,1.52 0.04,8.57 3.06,2.71 -0.7,2.52 1.68,1.12 0.58,2.3 1.46,0.06 2.67,-1.64 0.25,0.81 0.72,-0.13 2.69,-3.02 1.51,1.17 -0.81,1.96 2.5,1.45 3.21,-0.42 2,3.42 2.08,-0.81 0.46,-3.08 3.96,-2.21 1.12,0.05 0.52,1.1 0.93,-1.53 2.3,-0.66 -0.79,-1.85 0.98,-1.39 -0.24,0.92 4.34,-2.08 1.43,0.33 0.95,1.53 2.92,1.95 -0.24,2.58 1,1.57 0.32,-1.31 -0.69,-0.98 0.59,-0.47 0.63,2.24 1.48,-0.8 0.58,2.53 1.84,0.67 3.51,5.05 1.49,-0.02 1.78,-3.09 1.2,-3.88 0.77,-6.68 8.74,0.09 0.69,-1.41 1.1,0.15 0.6,1.29 1.79,-0.36 3.49,6.01 0.01,1.87 -0.95,1.11 1.02,1.21 -0.2,0.98 2.54,0.62 3.67,-0.94 -0.44,-0.62 2.86,0.7 0.05,1.08 1.06,0.34 3.6,-0.41 1.5,-0.64 0.3,-1 -0.04,-1.46 -1.14,-1.39 2.67,-1 0.83,1.12 2.78,0.12 2.44,1.56 0.78,-0.25 0.21,1.07 1.23,0.41 1.16,-1.22 -0.41,-2.29 0.52,-0.84 5.14,-2.93 1.4,1.08 2.88,0.37 0.9,-1 3.04,-0.34 -0.64,1.32 1.7,0.83 -1.44,1.43 0.83,0.71 0.33,3.57 1.77,0.1 0.41,0.92 1.06,-0.63 2.08,0.52 2.05,-2.11 1.2,0.17 0.61,1.28 2.69,-3.27 -1.23,1.83 2.64,0.56 0.62,-2.17 1.11,-0.34 -0.16,-1.58 2.83,-0.69 1.98,3.99 -2.32,1.89 0.26,3.04 -1.7,3.72 0.86,1.05 -0.1,1.36 -3.63,4.72 0.67,0.82 0.72,-0.25 -0.21,1.17 1.52,2.31 -1.13,0.29 -0.18,2.82 1.81,2.39 -0.35,0.53 -1.59,-0.44 -0.69,1.82 -0.76,0.27 -4.08,-0.08 0.24,1.69 1.58,0.28 -0.67,1.58 1.48,2.64 2.65,0.72 -1.25,0.2 -1.18,1.35 -0.03,3.37 -1.24,1.49 -0.85,-1.44 -0.37,1.05 0.59,1 -1.56,2.16 2.22,1.39 2.3,-1.2 0,0 0.44,1.74 2.38,0 0.07,1.27 0.93,-0.11 -0.26,0.84 1.3,0.42 -1.09,0.67 0.69,0.33 -0.4,1.79 -1.8,1.56 1.05,1.11 -1.67,14.45 0.86,1.24 -2.63,-0.04 -3.87,2.12 -1.02,1.73 2.42,2.38 0.41,1.88 -1.4,1.6 1.96,1.58 -0.18,3.43 1.85,1.13 -1.93,4.03 2.03,0.84 -0.71,1.11 -1.67,0.23 -0.06,0.67 1.38,1.01 2.59,-1.51 -2.69,3.45 -2.11,0.91 0.91,0.64 3.54,-0.94 0.7,2.51 2.3,-0.45 0.59,1.21 2.15,0.41 -0.29,1.92 -1.19,0.67 -6.19,-0.47 -0.63,2.13 2.99,0.96 -1.44,1.12 -0.98,-0.17 0.3,3.55 -1.79,0.47 -1.88,-2.88 -1.53,0.01 -0.68,1.78 0.19,2.8 -1.03,1.72 -3.34,0.97 -0.72,1.7 -2.85,0.64 -0.74,1.54 -1.48,0.37 -1.79,-3.02 -1.79,0.66 -0.13,-1.63 -1.78,-0.19 -0.46,2.48 0.55,2.87 -0.87,1.34 -1.67,-0.84 -0.59,1.4 0.86,0.67 -0.19,2.56 1.28,1.06 -0.89,1.59 -5.46,-0.55 -0.41,-1.02 -3.51,1.69 0.09,0.94 1.65,0.6 -1.52,0.35 1.22,5.62 -0.72,-0.22 -0.04,-1 -3.52,-0.6 -0.11,-1.86 -2.64,-3.48 -2.96,-0.3 -1.19,-2.97 -3.03,1.09 0.29,2.16 -4.95,-0.2 -6.65,-4.1 -0.71,3.09 0.75,1.19 -2.58,-0.11 -0.27,2.75 -4.06,-0.2 -2.72,2.52 4.21,1.07 -0.57,-1.8 0.85,1.25 1.26,-0.33 -0.14,1.35 -3.06,0.26 -0.77,1.31 -1.14,-2.54 -0.78,-0.31 0.01,1.91 -0.89,0.71 -0.58,-0.87 -2.76,3.56 -1.23,-0.22 -0.94,1.8 -2.24,-1.34 -1.28,0.26 -0.4,1.25 -1.04,-0.01 2.71,0.88 2.38,2.19 -0.03,6.5 -1.62,0.93 -0.07,1.02 -1.49,-0.28 -0.71,2.83 0.25,1.37 3.29,1.28 2.31,2.76 0.07,5.03 -1.35,0.65 -6.39,0.2 0.01,1.93 -2.48,0.15 -7.17,-0.64 -3.51,-1.22 -0.59,-0.98 -2.22,1.43 -2.15,-0.75 0.71,3.34 1.69,1.17 -0.41,1.87 3.92,2.3 1.28,-0.29 0.48,2.42 2.58,-1.09 0.5,1.39 0.95,0.18 0.35,-1.44 1.38,-0.14 1.47,1.94 1.85,-3.01 2.62,1.02 0.3,0.96 -0.94,2.59 -1.73,1.02 2.6,-0.72 -0.49,0.84 0.49,1.43 2.45,-0.76 -0.46,-1.82 2.19,1.02 -0.9,0.14 0.06,0.8 1.31,0.27 5.97,-1.63 1.47,2.05 -1.26,2.1 1.15,-0.55 0.86,2.31 1.12,0.54 -1.17,1.26 1.17,3.84 -1.05,2.17 0.75,0.74 0.13,3.15 2.23,2.56 -1.51,2.97 -1.72,-0.15 -2.14,-1.55 -1.74,1.94 -1.03,-0.72 -0.68,0.59 -1.03,2.56 2.02,4.33 0.67,0.17 0.86,3.06 -1.34,1.75 0.27,0.89 -3.46,0.93 -0.12,1.4 0.89,0.37 1.59,3.52 -1.94,4.68 -3.77,2.56 -0.34,1.86 -0.07,2.09 3.63,1 2.75,1.91 1.58,2.09 -0.39,0.33 0,0 -2.29,4.21 -0.11,12.44 -6.73,6.71 -10.47,1.67 -0.44,-2.26 -4.61,0.87 -0.89,-4.46 -9.49,1.23 -1.82,0.99 0.86,4.62 -1.7,0.98 -0.08,3.3 -2.04,0 -2.08,1.22 -6.73,-1.84 -5.95,0.6 -0.38,-2.3 -5.8,-3.59 -1.99,-0.06 1.24,-5.58 -1.45,-0.06 0.1,-1.83 -1.3,0.65 -0.4,-1.05 -1.82,1.9 -1.9,-1.79 -0.2,1.45 -1.51,0.61 -4.1,-0.65 -0.25,1.13 -4.58,-0.91 -1.53,3.81 -0.78,0.05 -0.03,0.98 -1.61,0.19 1.85,4.57 -0.67,1.27 -3.23,2.65 -0.86,1.59 -2.17,1.07 -0.03,0.73 0,0 -3.42,-0.94 -0.12,-2.4 -4.64,0.09 -0.33,-4.12 -2.03,0.19 -0.75,-4.44 -4.87,-0.21 0.01,-2.9 -0.87,-0.75 0.75,-0.06 -0.07,-4.69 -1.2,-0.11 -0.27,-3.37 -1.34,0.08 -0.87,-1.22 -0.1,-2.44 2.08,-0.02 -0.22,-4.68 -1.03,-0.39 0.46,-1.71 3.04,-0.94 -0.85,-3.6 -1.97,-0.92 0.66,-3.19 -1.68,-4.39 -3.96,5.44 -4.53,-2.8 -0.86,0.12 -1.4,-2.07 -2.35,0.97 -2.7,-0.28 -2.71,-3.53 -0.82,-6.48 -1.06,-0.4 -0.12,0.71 -1.89,-0.07 0.41,1.14 -2.03,-0.54 -1.74,-2.73 -0.52,0.62 -2.33,-0.39 0.38,-0.34 -3.24,-3.14 -2.26,6.13 -2.27,1.2 -0.92,-3.46 -4.83,7.01 -0.11,-1.35 -4.07,-2.34 -0.61,-2.07 0.36,-1.6 5.41,-5.43 -1.21,-0.76 -0.64,-1.94 -1.85,-1.98 -1.64,-4.24 0.38,-1.31 1.46,-0.28 0.7,-1.23 2.86,0.29 -0.39,-3.77 0.63,-0.62 -0.63,-0.42 1.2,-1.75 3.63,1.12 0.5,-0.5 -1.2,-4.3 -2.08,-0.15 -0.87,-3.85 -4.58,0.07 -2.22,-1.51 -0.14,-2.17 -1.31,-1.13 -1.64,0.31 -0.02,-1.6 -0.98,-1.38 -2.84,-1.04 -0.8,-2.78 2.81,-0.74 -0.46,-1.45 0.93,-1.22 1.9,-0.45 0.13,-2.28 3.08,-0.11 1.09,-7.26 -1.41,-0.23 -1.57,-5.34 0,0 0.79,-0.64 1.33,0.38 2.01,-2.4 0.86,0.7 2.5,-1.43 3.97,0.52 0.72,-0.98 4.18,-0.83 -1.76,-4.12 -0.29,-8.48 -1.08,0.33 -0.5,-1.47 -0.77,0.01 -0.63,1.35 -1.59,-1.15 3.43,-2.66 0.1,-3.36 -4.44,-2.19 0.5,-0.61 -2.83,-2.57 -0.83,-2.81 -3.03,-2.67 0.13,-1.49 -1.3,-1.16 -1.83,0.01 0.8,-3.44 -4.39,-1.27 -0.25,-1.7 -3.31,-5.63 0.94,-0.93 -1.3,-1.92 1.51,-1.25 -1.22,-1.46 -1.45,0.89 -1.23,-1.22 0.79,-0.27 -0.65,-1.53 2.17,-0.27 -1.92,-4.46 2.77,-0.19 0.96,-1.46 1.03,1.27 2.25,-2.35 4.15,-1.47 -1.96,-3.56 1.74,0.3 2.03,-0.75 2.14,-2.73 -2.79,-6.45 -3.46,2.76 -3.31,0.76 1.59,-4.29 -0.55,-5.88 -3.75,1.08 -1.6,1.57 -0.75,-0.33 -2.64,1.91 -2.5,-0.93 -0.26,-1.97 -1.49,-1.64 0.33,-1.74 -1.15,-2.27 0.58,-0.69 -1.23,-1.24 0.44,-3.34 1.41,-0.68 -0.02,-1.21 -1.48,-0.02 -1.79,1.17 -1.35,-0.54 -1.02,0.97 2.01,1.84 -0.45,1.27 -6.32,-3.51 -0.39,-1.38 2.72,-3.62 0.37,-2.35 0.82,-0.82 0.66,0.34 -0.41,1.27 1.06,1.03 2.24,-0.15 1.18,-1.91 2.68,-1.44 3.44,-3.18 1.29,1 1.3,-1.18 1.51,1.36 0.28,1.36 0.77,-0.62 3.03,1.51 1.26,-0.69 1.5,0.47 1.63,-2.08 -0.39,-0.73 1.41,-0.23 -0.42,-1.16 1.64,-2.67 0.67,0.13 1.36,-3.28 1.09,-0.08 0.38,-0.95 0.89,0.57 0.78,-0.92 1.65,-0.25 -0.28,-2.35 2.7,-6.18 1.17,0.01 -0.49,-2.29 1.17,-0.09 0.96,-2.25 2.6,0.11 3.56,-4.62 -1.92,-1.08 1.27,-0.61 -0.4,-0.67 1.59,-3.54 -0.98,-1.26 0.23,-2.49 -1.31,0.2 0.41,-1.37 -1.2,-0.52 0.09,-1.78 0.79,-0.89 -1.05,-1.18 3.67,1.5 -0.07,-4.14 2.36,0.05 0.31,-1.28 -2.45,-0.94 -0.07,-4.24 1.05,-1.86 -2.74,0.68 -0.36,-0.83 -1.32,-0.29 -1.37,1.27 -0.51,-1.3 -1.31,-0.74 -0.43,-3.12 -2,-3.77 0.9,-3.58 -0.49,-1.99 -3.31,-1.38 -4.28,-7.18 -1.54,-1.35 -2.46,0.29 -1.28,0.99 -1.19,-0.51 -1.42,0.9 0.48,-1.2 -0.97,-3.71 1.08,-0.88 0.05,-2.1 1.28,-0.79 -6.31,-5.81 0.13,-1.03 z m 96.55,123.83 2.46,1.34 1.56,-0.7 -0.35,1.3 1.41,0.88 1.69,-0.32 1.11,-1.16 2.32,0.37 0.53,-0.84 0.95,0.26 -0.76,3.65 -4.13,2.09 1.37,4.66 -1,2.69 3.24,2.37 0.48,-3.37 4.42,0.21 1.47,1.58 -2.21,1.69 -0.1,1.69 -2,0.42 -2.68,-1.9 -1,1.37 0.32,1.53 -2.42,1.16 -0.53,-0.58 0.63,-1.05 -1.21,-0.84 1.21,-0.84 -0.63,-1.32 -1.58,1.16 -2.11,0.26 -10.16,-1 -0.89,0.63 -0.47,-1.05 -2.21,-0.74 -0.84,-2.58 -1.74,0.63 0.05,0.74 -1.95,-1.21 1.9,-1.79 1,0 0,-4.95 1.42,-2.9 2.16,-2.16 2.37,-0.84 0,0 6.9,-0.54 z m 33.65,9.77 1.61,2 -1.38,1.04 0,0 -2.42,-3.32 2.19,0.28 z m -10.29,2.89 -0.72,-0.07 -0.05,-1.75 1.26,0.74 -0.49,1.08 z m -23.17,9.38 -1.42,-2.88 0,0 0.7,-1.02 0.77,0.25 0,0 0.53,2.81 -0.58,0.84 z"
     title="Minsk"
     id="BY-MI" />
</svg>
