<?xml version="1.0" encoding="UTF-8" standalone="no"?>
<!-- Created for MapSVG plugin: http://mapsvg.com -->
<svg
   xmlns:mapsvg="http://mapsvg.com"
   xmlns:dc="http://purl.org/dc/elements/1.1/"
   xmlns:rdf="http://www.w3.org/1999/02/22-rdf-syntax-ns#"
   xmlns:svg="http://www.w3.org/2000/svg"
   xmlns="http://www.w3.org/2000/svg"
   width="612.61725"
   height="643.13147"
   mapsvg:geoViewBox="19.999295 -17.781145 29.361976 -26.908749"
   >
  <path
     d="m 391.67005,83.64548 0.29,2.79 -2.09,2.35 0.19,2.3 0.89,2.02 3.29,3.7 1.1,2.02 -0.34,1.15 2.12,2.36 -0.14,1.2 2.97,7.28 0.09,2.12 1.44,1.25 0.53,3.81 1.35,3.3 1.19,1.1 1.39,0.26 2.54,1.63 3.87,-0.6 2.76,2.51 -1.7,2.99 1.77,1.26 2.46,-0.27 1.69,3.72 1.34,1.52 4,0.72 5.01,2.73 3.11,6.01 1.81,-0.38 3.35,0.88 1.44,3.39 2.64,-0.3 2.33,0.62 0.91,1.25 -0.3,0.71 0.4,0.37 2.77,0.25 2.51,0.89 1.34,-0.14 3.8,1.62 5.77,0.17 1.98,1.21 0.97,2.32 1.06,0.89 5.5,0.04 2.03,3.52 0.64,0.32 1.27,4.71 1.26,1.06 1.09,5.13 -0.09,8.27 -0.76,5.45 0,0 0.37,1.76 -0.35,2 1.27,4.36 -1.25,2 -1.23,0.99 -0.29,1.97 -2.27,1.58 -0.55,0.87 0.07,3.36 -0.63,1.25 -0.18,2.53 0.76,2.15 4.41,2.76 1.96,3.36 0.47,1.95 1.06,1.26 0.07,2.69 0.89,1.51 -0.56,3.95 0.38,4.12 1.89,1.97 0.49,2.39 -0.26,1.55 1.13,3.75 -0.22,1.13 1.04,2.85 1.63,1.26 0.67,1.76 3.47,4.77 1.84,0.2 1.9,0.95 0.91,-0.55 2.45,2.88 1.53,0.87 6.08,1.03 1.27,0.64 3.76,-1.17 2.91,0.22 0.45,-0.97 1.76,0.62 2.96,-0.14 0.92,1.24 0.75,-0.13 1.15,0.8 2.52,-0.26 0,0 1.34,1.41 5.23,0.33 5.87,1.7 5.01,-0.91 3.35,0.38 1.75,0.75 0.76,-0.47 2.5,1.96 2.99,0.56 3.1,1.76 1.94,-0.64 1.21,-1.07 0.86,0.04 0.53,-0.85 0.88,-0.07 1.43,1.05 3.47,0.71 1.37,1.79 6.1,2.33 1.6,1.39 2.89,0.23 2.08,1.39 4.72,1.23 3.74,-0.04 1.13,0.9 2.93,1.02 0.97,1.19 -2.44,2.96 -1.15,4.91 0.53,3.36 1.62,2.96 3.38,2.79 2.62,1.05 2.59,0.17 4.07,-1.33 1.05,0.98 1.47,3.3 3.07,2.68 1.75,2.58 -1.77,0.54 -1.26,-1.06 -2.83,0.29 -4.64,-0.83 -3.23,2.29 -3.6,0.02 -1.73,0.53 -2.34,-0.35 -1.31,0.98 -1.25,3.5 -1.25,0.5 -0.64,1.43 -0.29,1.77 0.74,2.78 -1.47,2.16 -0.56,2.15 -1.62,1.78 -3.28,-0.93 -2.35,1.17 -0.05,1.52 -8,2.06 -0.92,1.07 -1.61,0.4 -0.76,0.88 -1.82,0.84 -4.93,0.35 -2.66,1.6 -4.15,-1.14 -6.74,0.43 -1.56,1.7 -2.83,1.19 -0.82,1.7 -4.21,2.02 -2.68,2.91 0.16,2.87 -0.56,1.16 -4.52,3.84 -1.89,0.4 -0.73,0.64 0.55,3.75 -0.6,1.24 -4.57,3.49 -2.26,0.35 0.59,2.2 -0.76,1.27 -0.21,3.23 -2.59,2.25 -3.6,1.73 -1.07,-0.1 -0.5,1.76 -1.65,0.86 -1.18,-0.79 -0.38,0.36 1.39,1.79 -0.11,0.65 -2.04,1.83 -0.72,2.24 -1.6,0.32 -1.86,-2.41 -1.38,0.47 -1.19,1.41 -1.65,-0.03 -1.27,-0.73 -0.59,0.42 0.08,1.93 -1.54,1.07 0.21,0.94 -0.97,2.28 0.36,0.93 -0.43,1.72 -1.92,2.09 -1.2,0.45 -4.32,0 -1.03,0.73 -0.25,1.29 -0.68,0.7 -1.28,-0.43 0.8,-1.55 -0.4,-0.3 -1.73,0.52 0.21,1.26 -0.42,0.73 -1.57,-0.08 0,-1.52 -1.25,-0.2 -0.85,0.91 -0.74,2.74 -2.12,1.56 -1.78,0.33 -0.72,1.18 -0.69,0.18 -1.08,-0.83 -1.07,0.95 0.2,0.88 1.07,0.74 -0.46,0.59 -1.19,0.29 -0.86,-0.75 -0.98,0.7 -0.57,-0.89 -0.67,-0.1 -0.18,1.4 1.24,1.08 -0.42,0.93 -2.03,-0.29 -0.84,0.77 -0.41,1.28 -0.92,0.26 -0.85,1.11 -0.71,-0.11 1.23,2.38 -1.34,1.72 -1.86,0.7 0.18,-1.64 -0.75,-0.02 -0.35,-1.08 -0.62,-0.17 -0.55,3.36 -1.59,1.17 -0.7,3.06 0,0 -2.38,0.54 -1.87,2.45 -0.47,-1.01 -0.54,-0.04 -0.2,1.72 -2.94,3.93 -0.53,0.45 -2.42,0.2 -1.09,1.84 -2.1,1.36 -2.05,2.84 -44.26,-26.69 -1.22,-1.16 0,0 -10.19,-14.37 -8.2,-2.62 -19.58,-26.61 0,0 -31.22,-41.38 -70.45,-95.27 0,0 -0.43,-43.19 0.31,-5.39 2.29,1.63 2.25,-0.06 1.31,-1.09 1.47,0.25 0.49,-0.48 -0.23,-1.87 1,-0.42 1.05,-1.33 2.25,-0.52 1.43,-1.45 2.17,-0.03 2.45,-1.39 1.61,1.23 1.26,0.19 0.29,1.62 0.76,0.67 1.87,-1 1.11,-0.05 0.96,1.42 -0.67,1.71 0.96,1.91 3.31,1.39 0.4,1.52 2.16,2.61 2.59,1.24 3.31,-1.41 4.7,0.46 41.22,-3.35 0.6,-18.91 -11.75,-4.95 0.04,-0.37 0,0 -0.04,-11.42 0,0 0.02,-29.38 0,0 0,-20.81 0,0 -0.23,-6.7 8.53,-0.02 0,0 12.35,0 0,0 z"
     title="Central"
     id="BW-CE" />
  <path
     d="m 65.440049,221.54548 21.76,0.18 0,0 11.57,0.13 0,0 47.250001,0.22 0,0 5.78,-0.04 0,0 16.39,0 0,0 12.53,0.04 0,0 34.73,-0.2 0,0 7.71,0 0,0 30.83,-0.34 0,0 70.45,95.27 31.22,41.38 0,0 -0.09,1.22 -11.24,22.48 -1.77,2.77 -34.72,-0.12 0,0 -10.82,0.08 0,0 -96.94,-0.35 0,0 -21.12,0.12 0,0 -8.84,0 0,0 -19.63,0.04 0,0 -10.84,-0.06 0,0 -9.5,0.04 0,0 -5.89,0 0,0 -124.01000123,-0.32 0,0 0,-92.07 65.49000023,0.14 z"
     title="Ghanzi"
     id="BW-GH" />
  <path
     d="m 0.25004877,384.08548 124.01000123,0.32 0,0 5.89,0 0,0 9.5,-0.04 0,0 10.84,0.06 0,0 19.63,-0.04 0,0 8.84,0 0,0 21.12,-0.12 0,0 0.09,0.51 0,0 -0.09,6.83 0,0 -5.92,-0.16 -0.71,0.08 -0.03,0.73 0.05,10.33 6.49,-0.02 -0.04,30.59 0,0 -0.29,60.75 67.14,-0.23 10.41,11.06 0.94,36.77 9.69,9.97 6.03,0.19 0.62,6.43 -1.41,0.47 0,0 -2.11,-1.07 -0.07,0.63 -0.78,-0.49 -0.47,0.98 -1.02,-0.14 -0.95,0.93 -0.38,-0.3 -0.96,0.49 -1.21,-0.46 -2.15,-1.7 -0.06,-1.47 -1.33,0.09 -0.58,0.62 -0.97,-0.19 0.73,-1.09 -0.29,-0.5 -0.85,0.5 -0.68,-0.39 -0.78,-1.55 -1.11,-0.72 -0.24,-1.66 -0.66,-0.02 -1.77,-1.78 -1.13,0.71 -1.11,-0.1 -0.07,-1.34 -0.95,0.31 -0.05,0.93 -3.58,1.01 -1.43,-0.95 -0.34,1.75 -1.76,-1 -1.45,0.8 -0.11,-2.01 -1.14,0.09 -1.4,-0.58 -1,0.53 -0.38,0.8 -0.81,0.13 -1.87,-0.74 -0.28,-1.28 -1.29,-1.07 -0.4,-1.04 -2.21,-0.51 -0.64,-1.86 -1.47,-0.09 -0.28,-0.87 0.88,-1.02 -0.7,-0.6 -1.62,0.11 -1.3,-0.59 -0.77,-1.2 -0.02,-1.29 -1.97,-1.72 -1.01,0.81 -0.92,-0.82 -1.26,-0.02 -0.38,-0.54 0.35,-0.76 -0.8,-0.88 -0.24,0.87 -1.31,0.4 -0.52,-1.42 -1.18,-0.72 0.54,-0.63 -0.55,-0.9 -1.42,0.86 -0.4,-0.94 -1.76,-1.12 0.27,-0.36 -0.45,-0.46 -1.18,-0.29 -0.44,-0.69 -2.09,0.7 0.09,-1.96 -1.38,-1.65 -1.37,-0.5 0.71,-0.91 -0.23,-0.36 -1.42,-0.03 -1.1,2.14 -0.64,0.4 -3.03,-0.8 -0.82,-1.16 -2.25,0.44 -0.62,-0.7 -1.19,0.7 -1.07,-1.38 -2.59,0.62 -2.67,-0.37 -4.16,2.77 -1.38,-0.73 -1.29,0.45 -1.16,1.53 -0.82,-0.12 -0.62,-0.69 0.56,-1.97 -0.58,-0.11 -1.4,1.45 -1.38,-1.08 -0.19,2.6 -1.98,0.64 -0.51,3.02 -3.79,2.72 -1.48,3.63 0.81,0.69 0,0.54 -1.96,-0.56 -1.5,0.82 0.88,1.18 -0.42,1.65 -2.47,4 2,1.45 0.3,0.69 -2.73,1.52 -0.09,1.33 1.08,0.3 0.25,0.5 -0.42,2.25 -1.41,2.07 -1.69,0.66 -0.94,3.64 -1.25,0.99 2.74,1.78 -0.43,1.08 -2.42,1.48 -0.1,1.73 -1.26,0.42 -0.22,0.89 1.77,0.94 0.27,0.64 -1.28,1.55 0.25,3.14 -0.58,2.34 -1.85,0.46 -1.24,-0.35 -0.64,0.49 0.18,3.48 -0.57,0.81 -1.49,0.58 -0.59,2.45 -1.16,0.7 -0.39,0.89 -1.59,-0.35 -0.32,3.75 -0.92,1.72 -1.06,0.68 -2.36,-1.16 -2.26,-0.47 -1.09,1.36 -2.06,0.14 -1.99,1.99 0.22,1.44 -1.32,1.05 -1.04,0.1 0.08,2.24 -3.99,1.61 -3.22,0.54 -1.52,2.04 -2.24,1.32 0.02,1.72 -1.03,1.26 -0.29,2.44 -1.19,0.95 0.05,1.58 -2.29,2.98 -1.37,0.52 -0.81,1.49 -0.81,0.4 -2.14,3.81 -2.83,0.77 -4.14,2.07 -8.95,-0.37 -1.56,1.26 -0.53,1.36 0.9,1.53 0.2,3.73 -0.33,1.33 -5.48,4.82 -4.76,0.37 -1.82,-1.28 -0.8,-0.09 -2.21,0.03 -1.940001,1.02 -6.46,-2.6 -1.91,-0.03 -3.29,0.15 -2.77,1.74 -2.09,-0.7 -3.57,0.51 -2.94,1.47 -1.85,0.37 -4.3,-1.6 -3.65,-0.21 -1.55,-0.99 -1.52,-2 -2.09,0.15 -2.69,-1.04 -4.82,1.86 -0.65,1.23 -1.18,-0.12 -1.96,1.86 -3.53,0.97 -1.44,2.31 -0.64,-2.32 0.32,-1.47 -2.48,-1.46 0.14,-1.47 -1.35,-1.24 0.12,-4.46 -1.22,-2.56 0.13,-0.97 1.07,-1.43 0.02,-3.59 -0.21,-1.82 -1.38,-2 -0.29,-2.63 0.6,-4.43 0.69,-2.29 1.55,-0.23 1.37,-2.11 1.39,-0.61 1.85,-4.39 2.76,-3.65 1.6,-0.76 1.49,-2.85 0.73,-4.12 2.49,-2.46 0.31,-0.9 -0.4,-0.88 -1.28,-0.05 -0.78,-1.01 0.94,-1.25 0.03,-0.76 -0.82,-1.22 0.51,-2.26 -1.19,-1.96 1.39,-3.46 -1.92,-1.84 -0.44,-1.34 0.53,-2.68 -0.23,-0.72 -1.27,-0.76 0.25,-2.92 -0.32,-0.78 -1.9,1.54 -0.75,-0.02 -0.22,-0.6 0.97,-2.46 -1.49,-0.99 -0.79,-3.02 -2.81,-2.96 -0.22,-0.74 0.95,-1.91 -0.3,-1.09 -2.01,-0.16 0.76,-1.63 1.8,-1.58 -1.6,-2.87 -2.27,-1.42 -0.18,-0.89 0.72,-2.89 1.81,-0.5 0.3,-1.18 -0.72,-0.52 -1.57,1.07 -0.94,-0.32 -0.23,-0.96 0.61,-0.86 -0.4,-0.46 -1,0.31 -0.41,-0.57 0.13,-1.64 -0.72,-0.65 -1.53,0.24 -0.53,-0.69 -1.4,-3.18 0.2,-1.08 -1.34,-0.15 -0.31,-0.6 1.33,-1.69 -3.28,-2.39 0.03,-2.16 -1.56,-0.31 -0.58,-0.66 -0.47,-1.52 1.16,-1.38 -0.17,-1.27 -0.69,-0.35 -1.15,0.29 -1.29,-4.43 -1.89,-2.46 -0.65,-1.99 -1.42,-0.41 -2.43,-2.46 -1.92,-1.06 -1.85,-3.6 -2.57,-0.53 -1.03,-1.27 -1.57,0.9 -1.68,-1.84 -1.9600002,-0.18 -1.82,-1.56 -1.11,-2.34 -0.98,-0.05 -1.02,-1.41 -0.64,-0.02 -2.77000003,-3.94 z"
     title="Kgalagadi"
     id="BW-KG" />
  <path
     d="m 393.63005,401.78548 1.22,1.16 44.26,26.69 2.05,-2.84 2.1,-1.36 1.09,-1.84 2.42,-0.2 0.53,-0.45 2.94,-3.93 0.2,-1.72 0.54,0.04 0.47,1.01 1.87,-2.45 2.38,-0.54 0,0 -0.11,2.18 -0.93,2.36 0.56,1.13 -0.15,0.74 -1.14,0.72 -0.09,0.52 1,0.18 0.07,1.27 -1.35,3.33 -0.32,3.18 -0.92,1.07 0.18,2.37 -1.25,2.46 -0.29,2.06 -1.55,1.4 -0.25,2.31 1.15,1.8 -1.06,1.28 0.83,1.62 -1.03,1.33 0.39,2.14 -0.36,0.86 -0.71,0.69 -1.54,0.14 -1.09,1.38 -1.84,1.02 -1.6,0.31 -1.43,-0.46 -1.27,1.09 -0.53,-0.08 -0.52,1.17 -1.32,0.45 -0.5,0.9 0.03,1.78 -0.53,0.9 -1.13,-0.1 -3.63,1.31 -1.86,2.8 -0.58,0.08 -0.11,0.67 -2.39,2.04 -2.95,7.31 -2.18,1.9 -0.74,0.06 -0.59,1.45 -15.65,3.45 0,0 -2.67,-4.36 -12.53,-8.31 0,0 -2.36,-1.54 -0.73,0.36 -1.92,-2.52 0.61,-5.63 4.33,-5.77 z"
     title="Kgatleng"
     id="BW-KL" />
  <path
     d="m 355.66005,358.18548 19.58,26.61 8.2,2.62 10.19,14.37 0,0 -4.48,52.37 -4.33,5.77 -0.61,5.63 1.92,2.52 0.73,-0.36 2.36,1.54 0,0 -17.26,18.89 0,0 -6.33,-0.24 -9.99,-5.83 -112.61,-35.11 0,0 -6.92,-2.18 0,0 -36.19,-11.63 0,0 0.04,-30.59 -6.49,0.02 -0.05,-10.33 0.03,-0.73 0.71,-0.08 5.92,0.16 0,0 0.09,-6.83 0,0 -0.09,-0.51 0,0 96.94,0.35 0,0 10.82,-0.08 0,0 34.72,0.12 1.77,-2.77 11.24,-22.48 z"
     title="Kweneng"
     id="BW-KW" />
  <path
     d="m 490.97005,185.84548 4.29,1.11 3.41,-0.81 1.42,1.24 0.7,0.06 1.8,-0.83 2.5,2 0.51,1.79 -0.49,2.65 -1.13,1.4 0.08,4.28 1.66,3.36 -0.36,0.98 0.53,2.13 -0.46,1.6 0.28,0.96 -0.63,0.53 -0.56,3.24 -1.52,2.14 0.82,2.3 -0.87,2 1.5,1.8 -0.73,1.39 0.34,0.73 -1.03,0.96 0.78,1.99 -1.08,1.77 1.27,2.87 1.14,0.82 1.69,2.34 1.44,0.45 1.33,1.32 1.42,0.31 0.12,1.26 2.52,3.04 0.81,1.88 3.1,3.44 0.24,2.98 2.7,3.55 -0.26,1.13 1.37,1.84 -1.02,0.88 0.08,0.73 1.59,0.77 -1.2,1.64 0.64,0.73 1.28,-0.31 0.25,0.37 -0.42,0.59 1.09,1.96 0,0 -2.52,0.26 -1.15,-0.8 -0.75,0.13 -0.92,-1.24 -2.96,0.14 -1.76,-0.62 -0.45,0.97 -2.91,-0.22 -3.76,1.17 -1.27,-0.64 -6.08,-1.03 -1.53,-0.87 -2.45,-2.88 -0.91,0.55 -1.9,-0.95 -1.84,-0.2 -3.47,-4.77 -0.67,-1.76 -1.63,-1.26 -1.04,-2.85 0.22,-1.13 -1.13,-3.75 0.26,-1.55 -0.49,-2.39 -1.89,-1.97 -0.38,-4.12 0.56,-3.95 -0.89,-1.51 -0.07,-2.69 -1.06,-1.26 -0.47,-1.95 -1.96,-3.36 -4.41,-2.76 -0.76,-2.15 0.18,-2.53 0.63,-1.25 -0.07,-3.36 0.55,-0.87 2.27,-1.58 0.29,-1.97 1.23,-0.99 1.25,-2 -1.27,-4.36 0.35,-2 -0.37,-1.76 0,0 0.69,0.21 4.1,-1.89 1.89,0.78 3.46,0.05 2.34,-0.84 z"
     title="North-East"
     id="BW-NE" />
  <path
     d="m 341.19005,0.87548 2.72,-0.18 1,0.39 -0.58,0.41 -1.53,4.78 -0.16,3.28 2.01,2.66 0.93,3.73 2.61,4.56 2.23,0.85 0.7,1.51 1.91,0.74 1.59,2.43 4.55,9.39 2.11,6.13 5.68,7.01 2.24,0.8 2,3.95 2.36,2.78 2.53,0.44 2.28,2.08 0.06,1.95 0.82,1.86 -0.69,1.75 0.22,2.85 0.7,2.11 1.3,1.97 -0.07,1.86 3.06,1.45 3.41,2.76 1.46,0.37 3.03,6.1 0,0 -44.51,0.15 0,0 -12.35,0 0,0 -8.53,0.02 0.23,6.7 0,0 0,20.81 0,0 -0.02,29.38 0,0 0.04,11.42 0,0 -0.04,0.37 11.75,4.95 -0.6,18.91 -41.22,3.35 -4.7,-0.46 -3.31,1.41 -2.59,-1.24 -2.16,-2.61 -0.4,-1.52 -3.31,-1.39 -0.96,-1.91 0.67,-1.71 -0.96,-1.42 -1.11,0.05 -1.87,1 -0.76,-0.67 -0.29,-1.62 -1.26,-0.19 -1.61,-1.23 -2.45,1.39 -2.17,0.03 -1.43,1.45 -2.25,0.52 -1.05,1.33 -1,0.42 0.23,1.87 -0.49,0.48 -1.47,-0.25 -1.31,1.09 -2.25,0.06 -2.29,-1.63 -0.31,5.39 0.43,43.19 0,0 -30.83,0.34 0,0 -7.71,0 0,0 -34.73,0.2 0,0 -12.53,-0.04 0,0 -16.39,0 0,0 -5.78,0.04 0,0 -47.250001,-0.22 0,0 -11.57,-0.13 0,0 -21.76,-0.18 0,0 0.11,-184.63 30.73,0.01 105.430001,-21.64 14.06,-0.28 1.51,1.16 -0.42,1.46 1.46,1.07 -0.8,0.33 0.29,1.6 1.35,0.85 1.94,2.93 0.58,1.94 1.16,1.06 -0.2,2.07 0.73,-0.33 0.37,0.41 0.47,-0.33 1.19,0.46 0.52,-0.66 0.45,0.39 -0.62,0.79 0.48,1.05 0.77,0.63 2.05,-0.12 0.2,1.41 1.44,0.73 0.58,1.85 -0.27,1.11 1.75,1.62 0.4,1.73 -0.7,1.22 0.88,1.7 -0.21,2.49 0.62,0.33 0,2.37 2.71,1.34 3.49,-2.25 1.15,-2.25 1.02,-0.45 1.35,0.33 4.69,-3.73 1.18,-1.75 0.09,-1.27 2.5,-1.27 0.24,-1.2 0.79,0.14 0.67,-1.92 2.18,-0.85 1.04,-1.01 0.49,-0.98 -0.56,-0.34 0.75,-1.62 1.49,-0.58 0.1,-0.57 1.11,0.31 2.92,-3 2.38,-1 0.3,-1.57 2.03,0.47 1.58,-1 2.64,-2.78 0.9,-1.64 1.09,-0.38 0.43,-1.02 2.34,0.28 2.7,-0.9 1.59,1.4 0.97,-2.25 1.33,-0.42 2.39,-2.76 1.52,0.09 0.63,0.65 0.53,-0.61 0.96,0.01 1.42,1.09 0.67,-0.49 -0.01,1.32 2.13,2.11 -0.56,1.4 0.65,0.98 0.82,-0.1 0.46,0.91 1.42,0.46 2.91,-0.03 2.76,-3.43 0.48,-1.74 2.67,-2.06 -0.24,-0.98 1.41,0.16 0.77,-0.65 0.74,0.33 0.96,-1.8 0.54,-0.19 0.43,-1.59 0.93,0.55 1.59,-0.87 -0.25,-0.44 0.36,-0.33 1.96,-0.2 -0.1,-0.71 0.55,-0.31 2.82,-1.01 1.09,0.23 0.49,-0.69 1.41,-0.45 0.61,-1.01 2.39,-0.22 0.36,-0.9 1.52,-0.49 0.33,0.32 -1.03,0.87 0.88,0.66 -0.01,0.63 0.55,0.31 1.19,-0.84 0.22,0.42 -0.56,0.68 0.63,0.18 2.62,-1.73 0.75,0.87 -0.72,0.4 0.08,0.38 1.09,0.54 2.92,-0.99 0.82,-1.44 1.03,0.21 1.04,-2.02 z"
     title="North-West"
     id="BW-NW" />
  <path
     d="m 403.91005,482.04548 -3.41,0.53 -6.29,1.85 -6.04,0.18 -2.33,2.36 -1.92,0.08 -0.41,0.65 0.45,3.78 1.43,2.75 -0.43,4.26 -1.39,1.38 -8.07,22.48 -2.05,2.45 -0.83,5.95 -0.88,1.66 -0.47,2.6 -1.48,2.84 0,0 -4.14,-1.88 -3.54,-0.7 8.63,-30.26 -4.66,0.3 2.89,-8.71 -0.91,-1.31 3.96,-1.79 -0.06,-5.35 0,0 17.26,-18.89 0,0 12.53,8.31 2.67,4.36 0,0 z"
     title="South-East"
     id="BW-SE" />
  <path
     d="m 371.96005,488.14548 0.06,5.35 -3.96,1.79 0.91,1.31 -2.89,8.71 4.66,-0.3 -8.63,30.26 3.54,0.7 4.14,1.88 0,0 -0.08,3.04 -4.4,9.24 -7.74,4.99 -2.93,2.53 -1.65,0.15 -3.32,2.04 -14.36,-0.7 -2.59,-2.01 -0.82,0.11 -1.52,-0.72 -2.31,0.34 -0.76,1.37 -2.13,1.78 -1.04,-0.3 -1.73,2.12 -0.55,-0.33 -0.97,1.63 -3.03,-0.21 -3.89,1.11 -4.18,-1.29 -3.31,1.16 -4.8,-1.41 -2.25,-1.83 -2.04,-0.32 -4.34,-1.77 0,0 1.41,-0.47 -0.62,-6.43 -6.03,-0.19 -9.69,-9.97 -0.94,-36.77 -10.41,-11.06 -67.14,0.23 0.29,-60.75 0,0 36.19,11.63 0,0 6.92,2.18 0,0 112.61,35.11 9.99,5.83 z"
     title="Southern"
     id="BW-SO" />
</svg>
