<?xml version="1.0" encoding="UTF-8" standalone="no"?>
<!-- Created for MapSVG plugin: http://mapsvg.com -->
<svg
   xmlns:mapsvg="http://mapsvg.com"
   xmlns:dc="http://purl.org/dc/elements/1.1/"
   xmlns:rdf="http://www.w3.org/1999/02/22-rdf-syntax-ns#"
   xmlns:svg="http://www.w3.org/2000/svg"
   xmlns="http://www.w3.org/2000/svg"
   mapsvg:geoViewBox="29.000204 -2.309240 30.850509 -4.470164"  
   width="612.73853"
   height="711.88953">
  <path
     d="m 181.4821,262.88477 -1.27,2.73 -3.26,2.96 0.62,2.59 -0.71,0.7 1.88,2.32 1.29,0.05 0.41,1.23 4.54,3.59 0.48,0.77 -0.62,0.72 1.01,1.64 -0.71,1.33 -1.34,-0.33 -1.48,1.29 0.29,1.34 -0.8,3.7 -2.43,3.7 -0.61,4.63 -2.96,3.46 -1.18,3.69 -0.9,1.11 -0.53,-0.08 -0.19,3.09 0.84,0.42 -1.02,0.92 -2.06,3.92 -0.64,0.35 -1.5,-0.65 -2.26,0.17 0,0 -4.29,-4.78 -2.18,2.52 -1.52,0.61 -1.43,-0.78 -1.01,0.14 -1.76,1.71 -1.84,0.17 -3.01,-0.8 -2.65,0.49 -3.21,-0.21 -1.37,1.39 -4.16,2.15 0.35,-1.13 -0.94,-4.11 -22.85,2.92 -1.43,0.55 -0.74,1.63 -3.21,1.84 -1.69,0.42 -0.83,-0.35 -3.98,3.49 -1.83,0.8 -1.490001,-0.27 -2.08,1.58 -1.26,3.25 -3.13,3.9 -0.32,1.19 -0.95,-1.35 -2.2,-1.04 -2.21,-2.5 -0.74,-4.07 -1.78,-3.08 -0.86,-0.29 0.06,-1.19 -1.21,-0.19 0.18,-2.56 -1.14,0.04 -0.81,-0.66 -1.23,0.44 0,0 -2.87,-3.35 -0.68,-4.01 0.4,-1.17 -1.62,-3.34 0.29,-3.31 1.62,-1.2 -0.23,-1.03 1.12,-1.07 -0.4,-1.14 -1.77,-1.77 0.02,-1.06 -1.25,0.08 -0.61,-1.14 0.94,-3.53 1.18,0.02 0.88,-0.91 -2.3,-1.32 2.72,-4.44 -1.39,-1.42 0.04,-1.28 1.01,-0.19 0.72,-0.72 0.33,-1.62 1.6,-0.76 0.11,-3.08 1.37,-0.28 -0.12,-2.07 0.54,-1.41 1.34,0.48 -0.91,-1.96 0.5,-0.36 1.43,0.78 1.28,-2.81 1.43,-0.4 -1.39,-0.42 -1.96,-1.99 0.63,-0.74 0.03,-1.31 1.61,0.11 0,0 3.07,-0.27 2.36,0.99 1.55,-1.59 1.3,0.6 2.04,-0.05 2.33,-1.32 -1.16,-7.04 0.99,-3.42 1.16,0.02 -1.83,-4.02 -1.07,-1.02 -0.31,-5.73 2.33,-1.1 2.330001,-3.23 -0.13,-3.4 1.47,-0.44 1.25,0.34 0.79,-1.01 1.36,-0.37 0.8,1.05 2.02,0.45 4.82,-3.2 1.39,1.01 1.22,-0.56 0.74,0.64 1.08,-0.83 0.24,-0.99 1.02,-0.74 -1.42,-2.24 -0.04,-1.21 2.32,-8.51 2.43,-1.16 0.88,-1.73 1.2,0.27 2.82,-1.58 4.23,0.39 1.11,1.32 -0.29,1.83 0.85,0.37 -0.3,0.97 0.52,1.26 1.71,-0.38 1.07,0.96 0.63,-0.78 0.18,-1.9 1.68,0.05 1.15,-0.93 0.98,0.06 1.31,-1.64 0.42,-1.66 3.27,-0.83 2.83,-1.8 1.21,-0.39 2.79,0.9 3.77,-0.99 0.66,0.8 0.37,-0.43 1.05,0.61 0.52,-4.98 2.32,-2.39 0,0 3.21,0.26 1.39,-0.73 0.95,0.14 0.77,0.67 0.35,1.83 1.38,0.17 1.06,1.17 -1.84,5.47 0.95,1.36 -0.46,2.9 1.02,1.68 0.64,3.39 1.12,0.54 0.66,1.61 0.01,1.5 1.14,2.3 -0.85,2.02 1.01,1.85 0.61,3.19 0.83,0.91 0.1,1.58 1.98,2.1 -0.38,0.65 1.61,1.46 0.17,0.95 0.97,0.28 -0.43,2.11 -0.97,0.79 0.71,0.3 0.08,0.77 1.41,0.32 0.72,2.26 -0.55,1.21 3.54,5.14 -0.02,1.82 -1.22,1.62 0.78,2.11 z"
     title="Bubanza"
     id="BI-BB" />
  <path
     d="m 166.3721,314.24477 1.73,2.42 0.08,2.05 1.98,2.2 1.2,0.05 1.66,2.17 1.14,5.82 2.53,3.44 0.12,0.77 -1.1,1.91 -1.91,1.26 -1.03,2.98 2.47,1.32 1.17,2.73 4.05,3.16 1.76,2.25 1.16,2.81 0.83,4.52 0.9,1.18 0.08,1.64 1.01,0.01 2.49,-4.19 3.8,-1.34 0,0 2.87,2.22 0.41,1.27 -1.31,1.45 -1.37,4.34 -1.12,1.28 0.76,2 -1.21,2.72 0.26,1.54 -0.57,1.02 0.8,1.18 1.42,0.73 0.68,1.69 -0.36,1.06 4.14,3.69 0.27,2.91 -0.35,1.18 -4.45,3.19 -1.15,2.27 0.22,3.89 -0.48,0.14 0.22,3.22 -0.76,0.92 0.13,2.51 3.47,0.95 -0.67,5.86 -0.97,0.73 -3.33,-1.05 -0.73,0.9 0.25,0.99 -0.66,1.4 -0.65,0.15 -0.82,1.42 0,0 -1.52,0.79 -1.5,-0.26 -2.94,2.73 0.62,2.66 -0.34,1.05 -1.27,0.5 -3.98,3.78 -0.61,4.53 -3.8,4.72 -0.9,2.31 0.08,2.55 -1.34,2.16 0.32,4.69 -1.13,1.86 0.36,1.34 -1.08,0.72 -0.66,2.16 -0.92,0.6 -2.44,-0.31 -0.19,0.91 -1.08,0.33 -1.28,3.16 0.63,1.82 1.59,1.35 -0.67,1.69 0.38,1.08 -0.64,0.74 -1.68,0 -0.58,1.09 -1.51,-0.19 -1.27,-2.01 -1.31,2.26 -1.49,-0.26 0.14,0.58 -1.16,1.24 -2.95,-0.42 -0.25,0.52 -1.81,-0.61 -0.47,-2.01 -0.8,-0.19 -1.19,1.08 -1.01,-0.27 -1.76,0.99 -1.06,1.21 -0.21,1.47 -0.69,0.6 -1.42,-0.19 -0.81,1.18 -0.93,-1.04 -1.18,0.14 -0.28,-1.26 -0.48,0.89 -1.57,0.32 -3.46,-0.85 -4.02,1 -1.77,-0.98 -9.2,1.53 -1.52,-0.57 -2.11,0.79 -3.2,-0.05 -4.53,1.35 -2.17,0.1 0,0 -0.54,-5.05 1.1,-1.83 2.2,-1.88 -0.04,-3.14 1.11,-1.27 1.41,-3.47 -0.23,-0.69 1.49,-2.36 0.15,-2.78 1.85,-3.76 -0.65,-1.52 1.43,-2.91 0.9,-4.73 -0.14,-2.14 1.71,-1.32 -0.52,-1.21 1.13,-2.5 -1.05,-4.12 -1.04,-1.86 0.06,-2.71 1.65,-1.28 0.52,-3.94 -2.1,-2.07 0.15,-1.51 -1.91,-2.34 0.34,-1.54 -0.63,-1.46 0.93,-3.92 -1.06,-2.25 2.57,-6.1 -1.61,-2.3 -1.86,-0.83 0.11,-0.67 0,0 0.93,0.52 1,-0.95 1.09,0.47 1.1,-0.84 1.06,0.47 3.44,-1.12 1.27,-1.08 1.67,1 1.91,-0.22 -0.79,-0.37 -0.71,-4.18 1.2,-1.61 0.26,-2.85 -1.8,-1.93 1.19,-6.72 4.03,0.81 3.67,-1.16 0.24,-0.5 -1.45,-0.22 -1.46,-1.08 -2.09,0.19 0.61,-2.14 -0.7,-0.99 1.69,-0.33 -1.46,-2.33 -0.01,-0.9 0.57,-1.22 1.88,-0.4 3.66,1.04 0.81,1.33 0.02,-2.28 -0.71,-1.14 0.95,-0.78 -1.19,-3.1 0.86,0.18 1.53,-5.34 -0.56,-5.81 1.72,-2.76 3.05,-1.45 -0.28,-1.25 1.64,-0.68 0.29,-0.73 -2.78,-1.8 -8.1,-2.3 -4.03,0.75 -4.36,-1.38 -2.81,0.27 -4.16,-1 -1.29,0 -4,5.25 -2.48,-6.85 -3.95,0.58 1.94,11.7 -0.64,0.26 0.74,2.31 -7.700001,-1.11 -1.95,0.23 1.01,0.82 0,0 -2.44,2.47 1.05,0.33 -1.05,1.08 -3.76,-0.57 -0.94,-0.84 -0.65,0.69 -1.87,-0.59 -10.49,-0.15 -1.58,-0.6 7.01,0.2 2.95,-0.6 1.05,-0.4 0.48,-1.21 -0.04,-0.94 -0.77,-0.66 -2.54,-0.22 -3.59,0.84 -1.2,-0.46 -0.29,1.69 -2.24,-1.69 -0.53,0.38 -1.37,-0.71 -0.4,0.49 -1.21,-0.49 -1.01,1 -0.87,-2.13 0.88,-1.67 1.23,-0.39 0.37,-0.81 -0.98,-1.25 0.06,-1.98 -1.44,-2.88 -0.08,-4.7 0.53,-0.78 1.47,-0.06 0.82,-0.88 2.13,-0.16 0.37,-2.4 3.63,-2.28 -0.6,-1.76 1.12,-0.89 0,0 1.23,-0.44 0.81,0.66 1.14,-0.04 -0.18,2.56 1.21,0.19 -0.06,1.19 0.86,0.29 1.78,3.08 0.74,4.07 2.21,2.5 2.2,1.04 0.95,1.35 0.32,-1.19 3.13,-3.9 1.26,-3.25 2.08,-1.58 1.490001,0.27 1.83,-0.8 3.98,-3.49 0.83,0.35 1.69,-0.42 3.21,-1.84 0.74,-1.63 1.43,-0.55 22.85,-2.92 0.94,4.11 -0.35,1.13 4.16,-2.15 1.37,-1.39 3.21,0.21 2.65,-0.49 3.01,0.8 1.84,-0.17 1.76,-1.71 1.01,-0.14 1.43,0.78 1.52,-0.61 2.18,-2.52 z"
     title="Bujumbura Rural"
     id="BI-BL" />
  <path
     d="m 110.8421,386.81477 -0.76,-3.46 0.54,-0.92 1.48,-0.4 1.8,-4.04 -0.26,-1.08 0.63,-2.24 -0.71,-2.77 1.18,-1.59 0.12,-1.04 -1.81,-3.22 0.4,-4.4 0.27,-0.68 0.96,0.19 0.83,-1.47 -0.44,-2.23 0.96,-1.36 -0.09,-2.19 -2.79,-3.7 -1.28,-0.39 1.01,-0.63 0.2,-1.7 -1.02,-1.4 -2.67,-0.9 -0.78,0.39 -0.76,-1.13 -5.21,-1.78 -6.230001,-0.58 0,0 -1.01,-0.82 1.95,-0.23 7.700001,1.11 -0.74,-2.31 0.64,-0.26 -1.94,-11.7 3.95,-0.58 2.48,6.85 4,-5.25 1.29,0 4.16,1 2.81,-0.27 4.36,1.38 4.03,-0.75 8.1,2.3 2.78,1.8 -0.29,0.73 -1.64,0.68 0.28,1.25 -3.05,1.45 -1.72,2.76 0.56,5.81 -1.53,5.34 -0.86,-0.18 1.19,3.1 -0.95,0.78 0.71,1.14 -0.02,2.28 -0.81,-1.33 -3.66,-1.04 -1.88,0.4 -0.57,1.22 0.01,0.9 1.46,2.33 -1.69,0.33 0.7,0.99 -0.61,2.14 2.09,-0.19 1.46,1.08 1.45,0.22 -0.24,0.5 -3.67,1.16 -4.03,-0.81 -1.19,6.72 1.8,1.93 -0.26,2.85 -1.2,1.61 0.71,4.18 0.79,0.37 -1.91,0.22 -1.67,-1 -1.27,1.08 -3.44,1.12 -1.06,-0.47 -1.1,0.84 -1.09,-0.47 -1,0.95 z"
     title="Bujumbura Mairie"
     id="BI-BM" />
  <path
     d="m 238.8121,442.49477 4.17,-0.14 2.71,0.99 2.21,-0.35 2.45,-2.92 2.31,0.57 0.47,1.44 1.56,1.74 2.98,1.58 0.67,1.94 -1.26,2.3 0.07,1.83 1.14,0.8 0.16,0.82 -1.31,2.55 -0.7,3.73 -0.21,5.14 -1.46,5.98 0.42,1.93 -0.68,2.71 0.32,1.54 -2.49,3.04 -0.67,5.26 0.36,1.98 -2.17,3.55 0.38,2.32 -1.38,2.51 -0.59,2.38 0.35,1.31 1.35,0.5 1.57,-0.65 3.51,1.23 0.84,-0.21 0.65,-1.02 1.41,-0.15 2.68,-3.42 0.89,-2.17 3.45,-3.01 1.87,-4.18 1.38,-1.73 -0.71,-1.67 0.72,-0.62 -0.67,-0.54 0.22,-1.09 -0.69,-0.38 1.75,-1.05 1.95,0.2 1.07,-1.28 1.08,-6.41 2.57,-4.33 0.68,0.2 0.98,-0.67 0.5,0.09 0.06,2.43 -0.66,3.31 1.91,1.25 2.79,0.63 1.81,1.76 -0.91,3.21 0.81,1.22 -0.14,1.11 -1.82,2.07 0.58,1.55 0.64,0.48 2.52,-0.48 -0.13,3.42 8.49,2.74 4.21,-0.11 0.65,0.52 0.75,3.56 3.43,0.79 0.52,1.48 0,0 0.05,0.66 -2.05,0.57 -1.2,2.63 -5.37,3.38 1.94,2.37 1.34,0.7 0.2,0.59 -1.34,1.55 1.36,0.71 -0.08,1.36 1.64,4.27 -6.05,1.01 -1.26,3 -0.27,6.91 -0.73,2.6 -1.73,0.46 -2.23,3.18 -0.96,5.23 -1.82,4.08 -0.45,0.38 -1.02,-0.32 -0.37,1.78 -1.85,1.91 -0.56,2.18 -0.89,0.26 -1.03,1.9 -0.66,4.59 -2.62,1.43 -0.48,1.98 0.77,2.99 -0.29,1.16 -1.37,1.34 -1.54,3.19 -2.13,1.7 -0.47,1.13 0,0 -3.21,-2.84 -2.47,-5.88 -1.28,-0.04 -0.22,-1.1 -1.12,-0.77 -3,1.41 -4.34,-3.51 -0.6,2.24 -1.02,0.68 -0.97,2.12 -2.31,0.77 -1.6,-0.79 -1.82,10.94 -0.72,1.97 -2.21,2.16 -0.06,0.66 -1.89,-0.28 -1.11,-0.95 -6.22,1.05 -2.33,2.36 -2.15,0.66 -3.56,-1.52 -1.27,1.12 -0.63,1.51 -2.03,-0.06 -1.16,1.24 -1.64,0.06 -0.95,1.45 -0.39,2.06 -0.62,0.15 -0.05,1.47 -0.85,0.52 0.12,0.64 -2.5,3.51 0.16,0.54 -1.77,1.47 -1.69,4.09 -1.63,1.43 -1.07,-0.31 -0.33,0.92 -0.7,0.22 -0.58,2.13 -2.48,0.53 -2.75,2.86 -3.25,0.12 -2.11,-0.76 -0.47,0.36 0.35,0.69 -1.08,0.88 -3.15,-0.57 -2.24,1.16 -0.33,0.75 -4.03,-1.7 -3.17,2.26 -2.26,0.87 -1.14,2.76 0.32,2.58 0.55,0.32 -0.88,2.72 0,0 -6.07,-3.65 -3.19,-4.44 0.32,-2.91 -0.53,-4.46 -4.31,-8.91 -0.39,-3.04 -1.23,-1.61 -0.64,-2.99 -1.3,-1.91 -2.9,-2.51 -1.33,-4.13 -2.98,-1.54 -1.56,-6.9 -2.31,-2.46 -2.68,-5.77 -1.66,-1.67 -3.83,-1.51 0.38,-1.33 -0.45,-2.56 0.86,-1.04 0.18,-1.86 0.58,0.1 1.47,-2.78 -0.26,-1.82 -1.29,-2.05 -1.61,-1.26 -1.89,-0.12 -2.1,-1.44 -0.25,-0.75 0.6,-0.96 -1.92,-4.18 -0.43,-3.65 0.47,-1.57 -2.54,-3.45 -0.58,-3.83 -0.54,-0.79 -2.63,-1.25 -0.87,-2.95 -2.24,-3.25 -1.33,-3.48 -0.87,-0.64 -0.6,-1.68 -1.65,-0.76 -1.15,-1.65 0.62,-1.81 -0.88,-1.15 -0.18,-1.74 -0.89,-0.55 -0.65,-2.91 -1.14,-1.19 -2.21,-1.05 -0.77,-1.82 -0.08,-0.8 0.73,-0.86 -0.25,-2.06 -0.87,-2.44 -1.19,-1.29 -0.47,-4.05 -2.74,-3.25 1.3,-1.45 -0.79,-3.94 -0.78,-1.2 0.27,-0.94 -1.47,-1.57 -0.23,-1.15 -1.96,-1.15 -0.28,-0.86 -2.18,-0.88 0,0 2.17,-0.1 4.53,-1.35 3.2,0.05 2.11,-0.79 1.52,0.57 9.2,-1.53 1.77,0.98 4.02,-1 3.46,0.85 1.57,-0.32 0.48,-0.89 0.28,1.26 1.18,-0.14 0.93,1.04 0.81,-1.18 1.42,0.19 0.69,-0.6 0.21,-1.47 1.06,-1.21 1.76,-0.99 1.01,0.27 1.19,-1.08 0.8,0.19 0.47,2.01 1.81,0.61 0.25,-0.52 2.95,0.42 1.16,-1.24 -0.14,-0.58 1.49,0.26 1.31,-2.26 1.27,2.01 1.51,0.19 0.58,-1.09 1.68,0 0.64,-0.74 -0.38,-1.08 0.67,-1.69 -1.59,-1.35 -0.63,-1.82 1.28,-3.16 1.08,-0.33 0.19,-0.91 2.44,0.31 0.92,-0.6 0.66,-2.16 1.08,-0.72 -0.36,-1.34 1.13,-1.86 -0.32,-4.69 1.34,-2.16 -0.08,-2.55 0.9,-2.31 3.8,-4.72 0.61,-4.53 3.98,-3.78 1.27,-0.5 0.34,-1.05 -0.62,-2.66 2.94,-2.73 1.5,0.26 1.52,-0.79 0,0 1.06,1.55 2.53,0.13 3.52,1.41 0.98,-0.62 0.85,0.32 0.48,2.21 1.07,0.55 0.85,1.49 4.18,2.42 0.28,6.36 4.72,5.81 1.69,0.72 1.07,-0.16 2.03,-1.71 0.96,0.1 0.85,0.87 -1.43,1.86 1.07,1.64 -0.14,2.52 0.66,0.94 1.24,-0.03 -0.35,0.97 0.82,1.31 2.47,0.19 1.97,1.18 1.98,-0.15 1.73,-1.04 -1,5.93 0.47,1.71 -1.18,1.5 -0.91,0.14 1.04,3.36 -3.16,4.68 1.7,5.23 3.94,-1.63 3.36,-2.95 1.18,-0.16 1.92,-2.14 1.26,-3.3 1.68,-1.64 0.72,-3.14 0.87,-0.79 0.06,-2.15 0.85,-0.37 z"
     title="Bururi"
     id="BI-BR" />
  <path
     d="m 541.0921,346.60477 -3.7,1.48 -1.5,1.52 -2.74,0.35 -2.63,1.13 -3.16,2.06 -0.57,1.43 -4.83,3.53 -0.58,-0.5 1,-2.44 -0.51,-0.69 0.36,-2.28 -0.7,-0.8 0.27,-0.6 -6.47,-2.28 -3.1,-6.06 -5.79,-1.39 -3.43,0.97 -0.31,-2.47 0.54,-4.47 4.25,-2.99 2.33,0.4 0.71,-0.64 -3.56,-1.15 -0.31,-0.81 -2.51,-0.95 -0.48,-1.61 -2.64,0.45 -0.29,-0.78 -2.32,0.78 0.22,-0.94 -2,0.05 -1.57,-1.14 -1.41,1.03 -1.33,3.42 -0.83,0.59 -3.31,-0.15 -1.43,-1.54 -2.88,0.06 -0.83,-2.96 -3.34,-3.78 0.75,-0.67 -2.67,-2.1 1.24,-4.52 -0.31,-2.51 -3.59,-1.47 -2.8,-5.23 -4.01,-1.65 -2.18,0.56 -0.7,-1.09 -1.34,-0.36 -1.72,-2.72 -3.47,2.67 -0.22,-1.51 -4,-3.39 -0.04,1.68 -0.47,0.35 -2.5,-4.96 -4.05,1.89 -5.16,-0.83 -1.35,1.43 -2.51,1.28 -1.31,-0.16 -1.64,-3.64 0.31,-2.15 1.33,-0.92 -0.49,-2.81 0,0 0.53,-1.06 1.12,-0.5 -0.67,-1.74 0.78,-1.32 2.37,-2.21 3.37,0.06 0.18,-1.23 -0.58,-1.44 2.81,-1.91 0,0 3.26,0.77 0.7,0.7 0.96,-0.53 0.26,-1.14 -0.92,-1.39 0.38,-2.4 -1.47,-1.62 1.95,-0.06 0.6,-0.72 -0.23,-1.09 2.92,-0.29 1.15,-2.6 0.81,0.09 0.57,-0.95 -0.18,-0.6 -1.29,-0.29 0.57,-2.16 1.61,0.67 1.08,-0.57 -0.5,-1.34 -1.99,-2.1 -0.72,-2.34 -0.85,-0.64 0.04,-1.2 1.54,-0.88 -0.22,-1.1 1,-1.88 2.11,-1.43 2.38,-0.11 0.91,-1.09 2.55,0.06 0.16,-1.05 -0.89,-1.23 1.93,-1.63 0.98,0.66 2.43,-0.36 0.66,-2.88 -0.79,-2.65 0.71,-1.07 -1.49,-3.74 1.53,-1.42 0.53,-1.4 1.51,0.15 -0.14,-1.31 0.75,-1.37 -0.31,-1.26 1.6,-1.07 0.77,0.37 0.87,-1.21 0.6,1.32 1.46,-0.82 0.07,-2.66 -0.55,-0.5 0.4,-1.7 2.54,0.22 1.14,1.4 0.81,0.1 0.46,-1.14 0.43,0.36 1.91,-0.46 0.19,-0.77 1.56,-0.66 0.3,-4.84 0.98,-0.55 0.2,-0.77 2.61,-0.52 -0.07,-0.89 -1.54,-2.04 2.68,-1.16 -0.54,-0.99 0,0 1.95,-0.04 4.12,1.58 3.45,-3.14 2.26,-0.58 2.98,-3.7 2.54,0.74 4.56,-7.03 4.01,-3.76 -0.21,-1.63 3.11,-0.69 1.27,0.43 1.21,1.82 0.18,1.65 1.81,0.45 0.29,2.02 2.51,0.51 1.3,2.87 2.05,-0.54 2.25,1.54 2.25,0.3 3.95,3.73 3.02,3.9 2.15,1.2 -0.41,5.07 1.27,2.28 2.16,0.9 2.31,3.17 2.26,1.77 3,-1.98 2,-1.9 0.11,-1 2.55,-1.78 1.67,0.08 2.11,-1.23 1.51,0.53 2.04,2.78 -0.42,0.2 1.52,1.2 0.76,-0.18 1.77,2.14 1.7,-0.24 2.19,0.53 1.77,1.8 1.33,0.33 5.83,-1.43 2.09,0.66 4.29,-1.63 5.36,-0.53 0.65,-0.54 1.06,0.36 2.7,-2.14 4.23,-0.41 3.26,-1.45 0.95,0.07 0.9,1 0.77,-0.42 1.8,0.64 -1.48,1.29 -0.53,1.52 -1.2,0.33 -1.08,2.4 0.32,0.62 -3.85,4.23 -1.42,4.11 -1.76,1.52 0.43,1.19 -1.12,3.65 -6.49,3.73 2.07,3.1 0.18,1.49 2.39,1.32 1.53,2.98 5.22,0.91 2.24,3.48 -1.34,2.95 -0.03,2.67 0.56,0.95 -1.42,3.93 0.16,0.8 -1.6,3.41 -2.49,2.48 1.17,1.15 4.24,-2.37 3.84,6.41 0.28,0.88 -2.77,9.03 3.27,4.72 -2.26,0.13 -4.48,2.3 -2.31,-0.29 -1.74,1.8 -0.71,1.71 2.48,4.41 0.03,1.08 1.63,1.92 3.76,2.12 1.82,0.29 -4.48,3.15 -4.11,0.93 -1.91,1.38 -2.79,0.89 -1.52,1.87 -6.06,1.05 -1.75,1.17 -2.81,0.85 -1.01,1.06 -1.71,0.33 -3.35,-1.94 -1.03,-5.84 -2.05,-0.12 -2.63,1.94 -0.04,4.12 -2.2,2.69 -0.8,2.25 -2.23,0.76 -2.29,1.74 -1.57,0.1 -5.73,2.43 -3.58,0.99 -2.36,-0.27 -1.95,2.88 -0.18,1.25 -3.97,3.94 -0.33,1.22 -3.09,1.98 z"
     title="Cankuzo"
     id="BI-CA" />
  <path
     d="m 142.4921,163.10477 1.03,1.18 -0.49,0.57 0.19,1.18 1.45,0.36 2.1,-0.72 3.26,4.92 -0.36,3.78 1.64,2.16 -0.65,1.37 0.62,3.15 1.28,2.51 2.14,2.13 -0.95,2 0.43,1.69 0.92,0.23 1.44,1.71 0.43,4.09 1.69,1.15 1.99,3.44 0,0 -2.32,2.39 -0.52,4.98 -1.05,-0.61 -0.37,0.43 -0.66,-0.8 -3.77,0.99 -2.79,-0.9 -1.21,0.39 -2.83,1.8 -3.27,0.83 -0.42,1.66 -1.31,1.64 -0.98,-0.06 -1.15,0.93 -1.68,-0.05 -0.18,1.9 -0.63,0.78 -1.07,-0.96 -1.71,0.38 -0.52,-1.26 0.3,-0.97 -0.85,-0.37 0.29,-1.83 -1.11,-1.32 -4.23,-0.39 -2.82,1.58 -1.2,-0.27 -0.88,1.73 -2.43,1.16 -2.32,8.51 0.04,1.21 1.42,2.24 -1.02,0.74 -0.24,0.99 -1.08,0.83 -0.74,-0.64 -1.22,0.56 -1.39,-1.01 -4.82,3.2 -2.02,-0.45 -0.8,-1.05 -1.36,0.37 -0.79,1.01 -1.25,-0.34 -1.47,0.44 0.13,3.4 -2.330001,3.23 -2.33,1.1 0.31,5.73 1.07,1.02 1.83,4.02 -1.16,-0.02 -0.99,3.42 1.16,7.04 -2.33,1.32 -2.04,0.05 -1.3,-0.6 -1.55,1.59 -2.36,-0.99 -3.07,0.27 0,0 -1.46,-0.29 -2.15,-1.72 2.39,-0.33 -0.64,-1.66 1.66,-0.53 0.27,-1.43 -1.51,-1.89 0.68,-0.66 0.7,0.61 -0.65,-1.21 1.32,-1.99 -1.24,0.03 -0.08,-0.9 -1.8,-0.89 -0.04,-0.91 1.65,-0.37 -0.97,-1.17 0.77,-0.98 -4.77,-3.53 0.53,-1.64 -2.45,-0.27 -0.8,-1.01 1.39,-1.19 0.13,-1.18 -2.33,0.28 -1.34,-1.86 -1.62,0.81 -1.64,-0.43 -2.43,0.25 -0.85,-0.52 -0.41,0.67 -0.91,-0.3 -1.87,-1.93 -0.84,-2.38 -2.61,0.03 -0.49,-1.76 0.53,-1.05 -2.6,-2.76 -0.97,1.17 -1.34,0.51 -0.82,-0.27 -0.66,-1.15 1.84,-3.56 -1.87,-3.62 0.97,-1.02 -0.85,-1.15 0.55,-1.59 -2.17,-0.96 -0.33,-1.09 -0.69,0.32 -1.07,-0.8 0.09,-0.83 -0.8,-0.85 -0.7,0.78 -2.65,-0.78 -0.98,-2.26 -2.47,-1.32 -1.22,-1.96 -2.06,0.29 -3.3,-1.75 -0.78,-0.97 -0.73,-0.06 -1.04,0.93 -1.07,-0.44 -0.42,-1.08 -1.11,-0.03 -2.6,-6.34 0.29,-3.65 1.46,-2.59 -0.41,-2.05 -0.95,-1.66 -1.35,0.74 -0.78,-1.23 -2.13,-0.64 -0.57,-1.26 -2,0.15 -0.48,-1.29 0.79,-0.87 -1.54,-1.15 1.03,-1.55 -0.59,-1.26 -0.9,0.12 -1.24,-1.15 0.23,-1.44 -0.53,-1.24 -0.88,-1.6 -1.71,-1.01 -0.55,-2.13 -1.28,-0.14 -2.03,1.39 -4.0800003,0.92 -1.69,-1.66 -1.95,0.19 -2.05,-0.79 -1.53,-1.02 -1.40000002,-2.11 -0.46,-6.63 0.71,-2.9 1.61000002,-0.84 1.45,-1.95 2.27,-1.17 2.69,-3.06 1.7500003,-0.5 2.06,0.54 1.1,-8.49 -0.31,-1.85 0.47,-0.14 -0.43,-0.46 0.86,-1.13 0.44,0.35 0.6,-1.42 2.86,-3.08 -0.12,-1.52 -1.42,-0.44 -0.43,-0.94 0.91,-1.18 -0.64,-1.8 1.48,-0.19 -0.12,-1.06 -0.8,0.19 -1.51,-0.85 0.59,-0.87 0.96,0.22 1.38,-0.7 0.31,-1.65 -0.15,-0.49 -1.63,0.03 -0.62,-1.27 -1.19,-0.57 0.9,-0.83 -0.41,-1.33 1.42,-2.67 0.76,0.03 0.03,-1.45 0.89,0.16 1.23,-0.91 -0.41,-0.03 -0.12,-1.28 -1.86,-1.85 0.24,-2.42 -0.73,-2.64 0.32,-1.88 1.68,-0.61 -0.09,-2.229999 1.34,-2.88 3.48,0.52 2.85,-2.78 2.15,-1.02 1.83,-0.19 1.17,1.67 4.1,-0.66 1.26,0.88 1.11,-0.15 0.01,0.74 1.35,0.63 0.53,0.92 0.86,0.04 0.14,1.29 1.03,0.78 2.31,-1.82 1.36,0.34 0.64,-0.53 -0.72,-1.7 1.94,-1.36 1.07,0.04 0.13,-0.98 0.64,-0.18 0.54,1.43 0.63,-0.37 0.73,0.69 2.34,-0.49 0,1.58 2.04,1.02 0.12,1.33 0.9,0.18 0.74,0.96 0.1,1.719999 2.53,-0.62 0.37,-0.869999 1.18,-0.4 0.7,1.139999 -0.88,0.78 3.7,0.61 2.04,-0.81 1.78,2.32 1.32,-0.43 0.92,1.48 1.11,0.29 0.3,1.88 0.87,-0.12 0,-0.93 1.17,-1.15 1.38,1.19 1.51,-0.46 0.15,-1.05 1.17,0.91 0.26,-0.86 1.43,-0.54 0.47,0.66 0.52,-0.94 1.03,1.66 0.95,-1.32 3.27,-1.6 0.8,0.09 0.91,1.75 2.53,-0.41 0.52,0.85 1.51,0.31 0.85,1.77 3.15,2.97 5.860001,1.42 2.64,2.48 1.57,-0.23 1.66,2.06 -0.11,0.7 1.16,1.13 -0.05,1.3 0.92,0.84 -0.1,1.5 -1.87,2.65 -0.65,2.14 0.68,0.73 1.47,-0.43 1.09,1.03 0.76,2.04 1.55,1.12 1.88,-0.63 0.3,3.94 -0.93,1.33 -0.01,1.03 0.48,1.38 0.73,0.12 -0.19,2.99 0.44,0.57 -3.73,2.72 -2.1,0.51 -0.4,0.91 2.57,1.64 -0.99,3.74 1.94,0.26 1,1.32 1.14,-0.36 -0.82,2.87 1.87,2.11 1.05,3.4 -0.8,1.33 -0.91,0.4 0.08,1.73 2.28,2.31 1.01,2.47 -0.42,1.67 1.34,1.25 -0.78,1.75 1.67,-0.28 1.1,2.56 1.78,-0.56 -0.11,-2.01 1.2,-0.22 1.59,-3.06 1.33,-0.48 0.27,-0.65 2.11,-0.69 0.25,0.98 1.07,0.79 2.59,-2.34 1.58,-0.13 2.15,-1.8 z"
     title="Cibitoke"
     id="BI-CI" />
  <path
     d="m 306.3221,256.23477 -0.35,2.94 -1.57,0.31 -1.86,2 -0.65,4.31 0.8,1.16 -1.04,1.39 -0.87,-0.34 -0.74,1.83 0.67,0.91 -1.01,0.38 -2.88,3.88 0.35,1.79 1.12,0.32 -0.76,1.3 1.06,2.7 -0.35,1.46 0.68,3.31 2.67,1.23 0.66,-0.3 0.68,0.94 0.86,-0.25 0.14,0.4 1.27,-0.89 0.57,0.36 1.94,-1.48 -0.21,-0.74 1.41,-0.44 1.02,-1.03 0.91,-1.89 1.67,0.49 -0.51,-2.05 0.84,-1.33 5.11,1.13 0.97,2.73 0.48,-0.4 -0.28,0.96 1.77,2.84 1.72,1.49 1.7,4.11 4.47,3.7 1.13,-0.42 -0.53,1.19 0.18,2.26 1.32,2.64 1.68,-0.32 2.71,0.51 0.3,0.22 -0.83,0.75 2.25,2.1 1.61,0.57 -1.2,0.23 -1,1.66 1.13,0.4 0.13,1.11 0.56,-0.71 2.19,2.17 -0.2,0.95 -0.92,0.25 -0.01,0.88 -0.98,0.09 -0.13,0.58 0.25,0.97 1.3,0.34 -0.34,2.87 -0.59,0.42 0.78,1.38 -1.06,2.31 1.25,1.82 -0.55,-0.24 -3.92,2.89 0.14,1.26 -2.73,1.99 0.08,1.29 -0.84,0.27 -0.78,-0.98 -0.24,2.16 0.84,2.78 -1.19,1.85 -0.09,2.2 -0.56,0.93 -1.29,-0.14 -0.54,3.32 -2.07,-0.75 -1.24,2.1 1.12,2.24 2.85,1.03 0.25,1.5 2.62,0.72 0.33,1.14 1.61,1.39 0.05,0.77 0.85,-0.08 -0.18,3.65 1.17,1.17 3.03,-0.75 -0.13,-1.37 -0.97,-0.15 0.22,-0.33 2.72,-2.35 4.5,-2.21 0,0 -0.1,1.18 1.55,0.01 0.06,0.91 -0.59,0.45 0.65,0.28 -0.23,1.61 0.94,0.46 -0.31,1.33 3.07,1.68 -0.35,2.18 0.65,1.53 1.03,-0.08 0.3,1.21 1.08,0.46 0.24,1.04 4.47,3.09 0.48,2.19 0.56,0.23 -0.85,1.49 -0.78,0.12 -2.06,1.93 -1.65,3.75 0.29,0.96 -0.89,2.33 0.41,0.84 -1.62,0.86 -1.1,1.88 -0.48,-0.29 -0.54,0.59 3.97,5.86 0.63,3.01 -0.29,1.57 1.29,1.93 -0.55,0.84 0.26,0.5 2.03,1.35 2.32,2.93 0.54,2.14 -1.55,1.01 0.52,0.08 -0.47,2.26 0.87,1.65 -0.07,1.07 1.14,1.17 0.23,1.59 3.11,3.52 -0.71,2.46 1.21,2.18 1.23,0.21 -0.41,1.17 1.13,0.35 -0.3,3.85 0.51,1.51 -2.16,2.93 0.18,0.8 -0.63,0.89 0.4,2.95 0,0 -0.4,0.57 0.51,0.82 -2.19,3.34 0.31,5.67 -3.95,2.05 -1.59,3.86 -1.6,1.1 0.13,1.28 -1.32,0.51 -0.5,2.35 -2.12,1.63 0.25,0.79 -0.67,1.13 -2.67,0.52 -1.25,-0.65 -2.01,0.88 -2.62,-0.15 -0.07,1.05 -0.71,0.64 -2.53,0.58 -0.8,1.01 -5.83,1 -3.65,2.98 -0.17,1.91 -2.55,1.69 -3.16,3.31 0.32,1.33 2.29,0.66 5.34,3.2 -0.23,1.14 -2.24,1.24 -2.69,-0.03 -3.71,2.52 -2.7,0.58 -0.49,0.7 -1.07,-0.09 -1.25,1.25 -1.56,-0.11 -0.21,0.85 -0.7,0.2 -0.43,2.11 0.55,0.7 -1.44,1.32 -0.22,1.35 -1.96,2.58 3.46,3.07 -0.43,3.21 0.76,0.81 -1.09,1.26 -1.19,0.01 -1.96,-1.56 -1.59,0.44 -1.71,-0.86 -2.61,-3.9 0.17,-2.14 -0.55,-0.09 0,0 -0.52,-1.48 -3.43,-0.79 -0.75,-3.56 -0.65,-0.52 -4.21,0.11 -8.49,-2.74 0.13,-3.42 -2.52,0.48 -0.64,-0.48 -0.58,-1.55 1.82,-2.07 0.14,-1.11 -0.81,-1.22 0.91,-3.21 -1.81,-1.76 -2.79,-0.63 -1.91,-1.25 0.66,-3.31 -0.06,-2.43 -0.5,-0.09 -0.98,0.67 -0.68,-0.2 -2.57,4.33 -1.08,6.41 -1.07,1.28 -1.95,-0.2 -1.75,1.05 0.69,0.38 -0.22,1.09 0.67,0.54 -0.72,0.62 0.71,1.67 -1.38,1.73 -1.87,4.18 -3.45,3.01 -0.89,2.17 -2.68,3.42 -1.41,0.15 -0.65,1.02 -0.84,0.21 -3.51,-1.23 -1.57,0.65 -1.35,-0.5 -0.35,-1.31 0.59,-2.38 1.38,-2.51 -0.38,-2.32 2.17,-3.55 -0.36,-1.98 0.67,-5.26 2.49,-3.04 -0.32,-1.54 0.68,-2.71 -0.42,-1.93 1.46,-5.98 0.21,-5.14 0.7,-3.73 1.31,-2.55 -0.16,-0.82 -1.14,-0.8 -0.07,-1.83 1.26,-2.3 -0.67,-1.94 -2.98,-1.58 -1.56,-1.74 -0.47,-1.44 -2.31,-0.57 -2.45,2.92 -2.21,0.35 -2.71,-0.99 -4.17,0.14 0,0 0,0 0,0 -1.26,-1.76 0.2,-0.83 1.91,-1.82 1.85,-0.79 2.51,-3.66 2.7,-1.8 1.11,0.31 1.22,-0.86 0.86,0.4 2.7,-0.68 1.59,0.5 1.06,-0.56 1.9,0.79 0.13,-0.74 1.42,-0.66 0.47,1.22 1.21,-0.48 1.94,2.58 3.59,0.23 0.4,-2.78 -2.6,-1.14 -0.04,-2.61 -1.61,-0.77 -0.37,-0.76 0.61,-0.48 -0.12,-0.68 -0.45,-0.03 -0.84,-3.69 -0.79,0.02 -0.4,-1.21 0.56,-1.19 -1.43,-0.9 -1.12,-2.28 -0.75,-0.32 -2.27,-3.28 0.72,-4.77 1.49,-1.47 0.95,-0.06 0.35,-1.79 2.86,0.15 -0.05,-1.07 1.05,-0.73 -0.24,-0.7 1.08,0.31 0.36,-0.55 -0.46,-0.61 0.9,-0.38 0.83,0.66 1.85,-1.44 5.85,2.19 0.08,-0.58 1.68,-1.05 1.57,0.41 0.73,-0.58 1.74,0.21 0.14,-1.64 2.78,-1.74 -0.36,0.07 1.02,-2.06 -0.1,-2.55 0.65,-2.34 -0.45,-0.87 0.21,-2.22 1.86,-0.09 -0.86,-0.94 0.62,-0.96 -1.3,-0.29 0.24,-1.3 -0.8,-0.9 1.67,-1.51 -0.45,-2.13 0.58,-0.17 0.07,-1.32 1.65,-0.31 -1.73,-1.23 -0.11,-0.39 1.38,-0.3 -1.29,-1.09 1.29,-1.03 -2.38,-2.11 0.01,-0.77 1.61,-2.47 -0.2,-1.35 0.95,-0.39 -0.45,-0.89 0.34,-1.76 1.17,-0.92 1.57,0.23 0.94,-0.45 0.24,0.43 1.07,-1.52 -0.58,-0.71 -1.65,-0.42 1.8,-0.97 -0.53,-2.12 -5.47,-2.42 0.47,-1.05 -1.69,-1.12 -0.16,-0.75 -2.26,-0.27 -1.16,0.8 -0.97,-1.09 -2.14,-0.02 -2,-2.34 0.66,-2.08 1.72,-0.2 0.78,-1.41 -0.25,-0.87 1.21,-0.58 -0.16,-1.75 0.83,-0.26 -0.34,-0.4 0.41,-0.65 -3.59,-3.24 0.06,-1.03 -3.69,-2.15 -0.36,-0.86 0.39,-0.9 -0.91,-2.18 -5.33,0.1 -1.27,-3.29 -0.76,-0.64 -2.2,0.45 -1.22,-0.71 0,0 -1.02,-3.08 2.61,-2.56 -0.06,-0.56 2.82,-1.71 1.16,-2.01 3.28,-3.02 0.07,-1.44 1.11,-2.22 1.38,-0.44 0.17,-0.85 3.02,-2.06 1.78,0.81 0.18,-0.79 0.67,0.26 0.86,-0.52 1.33,0.55 1.3,-0.21 1.43,-0.63 0.59,-0.89 -4.74,-2.91 -4.95,-0.66 -4.73,-5.95 0.23,-2.56 0,0 1.28,-4.65 5.62,-4.64 3.59,-4.47 2.98,-1.29 0.46,-2.09 -0.1,-5.94 -1.88,0.58 -3.51,-2.43 -2.12,-0.49 -0.25,-1.72 -0.77,-0.38 -0.8,-1.94 0.04,-3.01 2.46,-1.48 5.27,-6.99 2.02,-1.16 1.25,-1.91 2.13,-0.4 0,0 5.86,-0.85 2.67,1.33 0.7,1 3.08,0.15 2.49,3.17 1.64,3.68 2.63,-0.76 0.54,0.74 z"
     title="Gitega"
     id="BI-GI" />
  <path
     d="m 454.1621,15.304771 0.76,10.61 3.17,5.61 0.15,2.81 2.19,2.13 1.78,7.26 4.37,4.03 2.15,4.22 -0.45,4.71 -5.6,5.57 0.76,4.77 5.79,5.68 -2.97,4.56 -0.49,1.8 0.24,1.83 1.03,2.16 -1.51,6.17 -2.15,4.79 -1.29,1.28 -2.53,-0.23 -4.32,0.69 -3.66,-0.67 -2.16,0.6 -3.67,4.609999 -1.06,3.86 -1.05,1.52 -1.23,0.88 -2.81,-0.78 -2.17,0.94 -2.85,5.63 -2.91,2.02 -1,1.81 -3.52,3 -4.03,6.3 -2.69,0.82 -2.4,-5.02 -4.57,0.72 -6.63,2.68 -3.33,2.85 -1.1,-0.45 -8.59,8.45 -3.06,2 -3.13,3.25 -3.3,-1.01 -2.2,-2.12 -2.23,0.32 -2.07,5.44 -3.86,4.09 0.11,2.77 -3.85,4.85 -3.04,-0.31 -3.11,-2.75 -0.99,-0.08 -6.59,4.17 0,0 -3.05,0.35 -2.04,-0.42 0.5,-2.99 -1.36,-1.43 -1.01,-2.64 -1.58,-0.56 -0.84,-1.33 1.33,-2.18 -0.31,-0.77 -1.08,-1.23 -2.78,-0.75 -6.12,-4.72 -3.99,-2.29 0.34,-0.66 2.04,-0.65 1.1,-2.08 -4.19,-5.34 -0.51,-0.97 0.38,-0.74 -3.23,1.09 0.01,-3.08 -0.84,-1.08 -3.54,-1.47 -3.14,-0.48 -0.92,-1.68 -2.73,-1.91 -4.99,-1.86 -5.16,0.82 -0.78,-1.08 0,0 1.58,-4.48 -0.41,-0.99 -1.4,-0.67 -0.63,-1.02 0.83,-3.44 -0.33,-4.679999 0.53,-6.38 -0.64,-2.54 -1.41,-1.32 0.36,-0.67 -1.62,-3.24 -0.26,-2.68 1.32,-1.53 0.48,-1.63 1.08,-0.75 -0.06,-1.74 1.67,-2.24 0.37,-2.77 -0.45,-1.71 0.85,-0.41 0.66,-1.31 -0.24,-1.01 1.5,-4.32 2.75,-0.95 1.74,-2.17 2.47,-0.03 1.3,-1.17 0.36,-3.06 -0.66,-1.58 1.24,-3.27 -0.79,-1.36 0.08,-1.39 -0.9,-1.05 0.7,-1.17 -1.7,-3.29 -0.48,-3.73 0.32,-3.37 -2.33,-5.7 -0.09,-2.6 -1.37,-3.22 -2.11,-2.09 -0.26,-1.02 0.28,-2.16 4.12,-4.72 -0.5,-3.25 0.27,-3.35 0.98,-0.64 7.66,2.69 5.4,2.81 6.46,-0.2 4.47,1.68 3.82,2.89 2.65,3.35 4.45,8.74 10.63,9.47 4.04,1.29 5.64,3.29 2.12,0.38 3.2,-0.41 2.85,-1.51 1.98,-0.03 3.5,-1.8 4.24,1.16 1.5,-0.64 3.94,-5.63 0.98,-4.45 -0.4,-1.57 0.46,-1.77 2.23,-0.38 2.43,-1.28 0.41,-3.98 1.23,-1.22 0.39,-3.53 1.55,-1.92 2.65,0.19 1.69,1.81 2.57,1.34 1.25,1.25 0.68,2.49 0.79,0.43 8.24,0.84 5.8,-0.57 z"
     title="Kirundo"
     id="BI-KI" />
  <path
     d="m 446.7221,278.25477 -2.81,1.91 0.58,1.44 -0.18,1.23 -3.37,-0.06 -2.37,2.21 -0.78,1.32 0.67,1.74 -1.12,0.5 -0.53,1.06 0,0 -1.58,-0.08 -2.43,1.93 -2.61,-0.93 -0.39,1.01 0.25,3.6 -3.44,0.79 -3.95,4 -2.52,1.37 -2.58,3.52 -1.2,0.46 -0.07,2.23 -1.76,0.55 -1.74,2.07 0.94,1.05 -0.52,1.53 -0.76,-0.03 -0.56,1.42 -4.59,5.05 1.17,1.77 0.51,2.82 -2.26,0.85 -0.38,-0.71 -0.47,0.4 -0.64,-0.89 -2.22,-0.73 -0.4,0.41 0.79,2.36 -0.06,2.06 -1.61,0.93 -0.39,0.85 -0.6,-0.83 -1.54,-0.39 -1.12,1.39 -1.22,-0.03 -1.97,1.89 0.77,1.86 0.1,1.84 -0.48,0.34 -1.52,-0.59 -0.21,0.54 -3.33,0.58 -0.98,-0.6 -0.57,-2.14 -3.07,-0.21 -0.25,1.43 1.09,0.88 1.11,-0.21 0.25,1.11 -0.67,0.5 -3.26,-0.48 -0.47,0.9 0.63,1.42 -0.24,0.88 -2.5,-1.87 -1.55,0.03 -0.43,-0.47 -0.38,1.12 -3.21,1.72 -0.61,-0.1 -0.46,-1.24 -0.93,0.3 0.23,1.47 -1.14,1.29 -3.61,-2.73 -1.78,0.77 -1.93,-0.48 1.02,0.99 -1.19,2.14 -0.89,-0.91 -2.32,-0.58 -1.94,1.35 -1.67,-0.46 -2.14,1.74 -4.92,0.47 -0.27,-0.97 -0.94,0.1 0.44,0.83 -0.81,1.73 0.14,1.83 -1.5,0.51 -2.03,-1.03 -0.41,2.62 -1.24,0.47 0,0 -4.5,2.21 -2.72,2.35 -0.22,0.33 0.97,0.15 0.13,1.37 -3.03,0.75 -1.17,-1.17 0.18,-3.65 -0.85,0.08 -0.05,-0.77 -1.61,-1.39 -0.33,-1.14 -2.62,-0.72 -0.25,-1.5 -2.85,-1.03 -1.12,-2.24 1.24,-2.1 2.07,0.75 0.54,-3.32 1.29,0.14 0.56,-0.93 0.09,-2.2 1.19,-1.85 -0.84,-2.78 0.24,-2.16 0.78,0.98 0.84,-0.27 -0.08,-1.29 2.73,-1.99 -0.14,-1.26 3.92,-2.89 0.55,0.24 -1.25,-1.82 1.06,-2.31 -0.78,-1.38 0.59,-0.42 0.34,-2.87 -1.3,-0.34 -0.25,-0.97 0.13,-0.58 0.98,-0.09 0.01,-0.88 0.92,-0.25 0.2,-0.95 -2.19,-2.17 -0.56,0.71 -0.13,-1.11 -1.13,-0.4 1,-1.66 1.2,-0.23 -1.61,-0.57 -2.25,-2.1 0.83,-0.75 -0.3,-0.22 -2.71,-0.51 -1.68,0.32 -1.32,-2.64 -0.18,-2.26 0.53,-1.19 -1.13,0.42 -4.47,-3.7 -1.7,-4.11 -1.72,-1.49 -1.77,-2.84 0.28,-0.96 -0.48,0.4 -0.97,-2.73 -5.11,-1.13 -0.84,1.33 0.51,2.05 -1.67,-0.49 -0.91,1.89 -1.02,1.03 -1.41,0.44 0.21,0.74 -1.94,1.48 -0.57,-0.36 -1.27,0.89 -0.14,-0.4 -0.86,0.25 -0.68,-0.94 -0.66,0.3 -2.67,-1.23 -0.68,-3.31 0.35,-1.46 -1.06,-2.7 0.76,-1.3 -1.12,-0.32 -0.35,-1.79 2.88,-3.88 1.01,-0.38 -0.67,-0.91 0.74,-1.83 0.87,0.34 1.04,-1.39 -0.8,-1.16 0.65,-4.31 1.86,-2 1.57,-0.31 0.35,-2.94 0,0 0.57,0.1 0.54,-0.99 1.37,-0.72 1.92,-0.49 0.08,-2.62 -1.09,-2.24 1.29,-1.99 0.44,0.26 2.61,-1.3 3.67,0.67 2.49,-1.55 0.18,-1.99 2.52,-4.16 0.64,-2.57 2.42,-3.12 0.1,-2.24 1.21,-1.22 3.13,-1.13 3.1,-2.32 2.61,-3.84 1.57,-0.32 2.18,1.27 2.57,0.21 1.6,-0.35 3.19,-2.83 5.76,0.92 1.47,-0.56 2.97,0.09 3.39,-1.46 3.46,-3.28 6.98,-4.77 5.72,-1.87 3.25,-2.21 3.04,-2.69 2.51,-3.73 3.59,-3.89 0,0 12.91,-1.34 4.03,2.72 2.18,0.14 1.04,1.12 2.39,1 1.84,3.32 2.53,1.5 2.32,2.92 1.17,0.45 3.23,4.7 0.33,1.61 -0.77,0.95 -0.28,3.2 0.6,4.29 -0.88,2.95 0.84,2.8 -1.55,6.97 0.8,1.4 -2.12,4.86 -0.03,2.33 -3.67,3.98 -0.49,1.7 -2.61,3.75 -0.21,2.16 -3.08,3.1 -2.4,4.8 -0.21,1.1 0.7,1.75 2.49,1.82 0.14,2.5 1.68,1.44 0.96,0.05 0.17,-0.45 1.53,0.62 1.11,0.79 1.73,3 2.67,0.2 0.7,0.88 2.69,-0.32 4.07,-2.69 2.75,-0.83 1.84,0.02 2.66,1.27 0.04,2.31 1.88,0.83 1.25,-0.04 2.88,-2.46 1.24,0.12 1.26,-0.98 z"
     title="Karuzi"
     id="BI-KR" />
  <path
     d="m 221.4421,158.72477 -1.15,1.11 -0.45,-0.21 -1.43,3.06 1.41,4.21 -0.75,4.47 -0.74,1.1 -3.91,-1.6 -0.04,0.88 -1.92,1.25 -1.81,3.21 -0.11,1.16 3.97,4.75 0.5,2 2.76,-0.47 2.33,1.9 1,-0.36 1.48,0.72 1.75,-0.22 0.75,1.59 0.55,0.08 1.89,-0.11 0.69,-1.03 0.49,0.3 1.84,-0.73 0.01,0.76 0.77,0.37 1.09,-0.48 -0.59,2.6 1.39,1.95 1.49,0.08 1.31,6.03 -1.56,0.52 -1.15,1.74 -0.38,3.61 5.2,3.97 3.93,-1.43 0.9,-1.96 1.86,-0.62 3.52,-3.99 -0.67,2 0.56,0.99 2.84,1.3 -0.61,10.9 1.63,0.89 3,5.54 3.88,2.06 5.4,4.68 0.51,2.29 -0.95,2.79 1.62,0.77 5.08,-0.69 3.72,-1.4 2.01,-1.46 2.18,0.4 1.65,1.97 4.95,-1.2 2.59,-1.38 3.3,-0.12 -1.41,1.53 -0.79,2.48 -1.32,0.78 -0.51,2.57 0.35,1.21 -1.14,2.46 0.07,4.18 -1.06,1.12 0.21,2.07 0,0 -2.13,0.4 -1.25,1.91 -2.02,1.16 -5.27,6.99 -2.46,1.48 -0.04,3.01 0.8,1.94 0.77,0.38 0.25,1.72 2.12,0.49 3.51,2.43 1.88,-0.58 0.1,5.94 -0.46,2.09 -2.98,1.29 -3.59,4.47 -5.62,4.64 -1.28,4.65 0,0 -3.07,-1.44 -4.16,0.21 -8.28,5.75 -0.57,0.25 -0.52,-1.36 -0.78,0.13 -1.2,0.94 -1.11,4.77 -1.9,1.15 -2.68,0.24 -1.69,-2.21 -6.5,-1.72 -0.23,-1.02 -1.69,-0.86 -1.19,-3.42 -2.76,-4.54 -2.56,-1.71 -1.63,-2.19 -1.23,-0.45 -0.76,-2.79 0.17,-1.83 0.79,-0.84 -0.77,-0.68 -2.35,0.49 -0.52,0.78 -1.44,-0.06 -0.67,0.92 -2.55,1.18 -1.37,-0.35 -0.68,1.22 -0.67,-0.44 -4.88,0.26 -0.13,-1.32 -1.62,-0.29 -1.48,-2.82 -1.36,-1.09 -0.3,-1.26 -9.07,-1.09 -3.35,-5.14 -0.74,-5.08 -0.92,0.43 -3.15,-1.32 -2.51,0.09 -2.19,-0.68 0,0 1.62,-5.18 -0.78,-2.11 1.22,-1.62 0.02,-1.82 -3.54,-5.14 0.55,-1.21 -0.72,-2.26 -1.41,-0.32 -0.08,-0.77 -0.71,-0.3 0.97,-0.79 0.43,-2.11 -0.97,-0.28 -0.17,-0.95 -1.61,-1.46 0.38,-0.65 -1.98,-2.1 -0.1,-1.58 -0.83,-0.91 -0.61,-3.19 -1.01,-1.85 0.85,-2.02 -1.14,-2.3 -0.01,-1.5 -0.66,-1.61 -1.12,-0.54 -0.64,-3.39 -1.02,-1.68 0.46,-2.9 -0.95,-1.36 1.84,-5.47 -1.06,-1.17 -1.38,-0.17 -0.35,-1.83 -0.77,-0.67 -0.95,-0.14 -1.39,0.73 -3.21,-0.26 0,0 -1.99,-3.44 -1.69,-1.15 -0.43,-4.09 -1.44,-1.71 -0.92,-0.23 -0.43,-1.69 0.95,-2 -2.14,-2.13 -1.28,-2.51 -0.62,-3.15 0.65,-1.37 -1.64,-2.16 0.36,-3.78 -3.26,-4.92 -2.1,0.72 -1.45,-0.36 -0.19,-1.18 0.49,-0.57 -1.03,-1.18 0,0 0.52,-1.18 1.82,-1.18 1.31,0.56 2.29,-0.49 0.99,0.83 2.01,0.1 0.01,1.23 2.49,1.98 1.95,-0.97 1.05,0.62 0.47,-0.71 0.65,0.43 2.02,-2.27 0.93,0.03 1.53,1.98 3.06,1.5 2.21,2.22 0.35,1.11 1.82,0.36 1.09,1.62 1.93,0.49 4.06,-0.81 2.48,0.66 -0.34,-3.38 0.65,-0.71 2.84,0.23 3.57,-1.71 3.72,-0.3 2.44,-2.02 2.1,-0.88 0.65,0.01 0.54,1.64 0.7,-0.41 1.08,0.35 0.29,-0.53 1.29,0.46 1.59,-0.31 2.08,1.5 2.7,-1.99 1.02,0.34 1.93,-0.85 3.2,-4.82 3,-0.59 3.62,0.19 z"
     title="Kayanza"
     id="BI-KY" />
  <path
     d="m 269.6621,570.46477 1.04,0.74 -0.43,0.89 0.61,1.8 1.95,0.77 -0.38,1.08 -2.21,1.51 -0.99,3.61 1.48,0.25 0.78,0.82 -0.33,1.41 3.61,0.79 1.63,-1.06 0.55,0.52 2.68,-0.03 -1.07,-0.93 0.21,-0.46 1.49,0.66 0.48,-1.28 0.81,0.08 0.95,1.35 1.75,-1.41 2.05,0.24 0.03,-0.91 1.58,-0.56 0.73,1.47 -0.75,0.6 1.14,0.31 -0.79,0.94 2.79,0.45 -0.47,1.02 1.48,0.61 -0.66,1.29 0.73,0.46 0.08,-0.59 0.6,0.33 0.14,1.14 1.04,0.2 -0.35,-0.36 2.37,-0.98 0.6,0.06 -0.19,0.38 0.92,-0.27 1.92,-1.73 0.65,0.73 -0.7,0.62 1.13,1.14 -0.32,0.44 1.33,0.36 -0.16,-0.9 0.56,-0.25 -0.39,-1.03 1.52,0.48 0.67,-0.35 -0.27,-1.66 2.22,-0.89 0.9,0.63 1.45,-0.52 1.4,0.28 1.04,-1.37 1.96,1.04 -0.44,1.05 1.16,0.5 0.22,2.75 2.75,-0.93 1.69,0.41 2.63,-2.67 1.08,-0.43 1.15,1.66 0.91,0.04 0.29,-1.53 0.48,-0.1 1.03,1.26 1.43,-0.21 2.81,-1.48 0.54,-2.49 0.83,0.34 1.11,-0.73 1.04,0.63 0.49,-1.08 3.58,-2.11 -0.59,-0.98 0.3,-0.69 1.61,-0.62 2.08,0.54 2.8,-1.03 0.07,-0.65 1.45,0.16 -0.28,1.01 1.61,0.95 1.13,-0.83 0.83,0.9 1.32,-0.82 1.84,0.56 3.32,-0.74 3.29,0.53 0.32,0.51 1.01,-0.23 4.4,2.34 1.84,-0.7 0.48,0.46 5.17,-3.04 1.73,-2.43 2.33,-1.18 0.28,-1.29 1.25,-0.18 2.77,-1.91 0.98,0.45 2.35,-0.28 1.98,1.75 0.69,1.6 1.93,0.49 1.99,2.82 1.27,-0.03 2.8,-3.35 0.7,0.44 0,0 0.31,0.73 -1.33,1.01 0.22,2.12 -1.78,2.72 0.63,0.95 -0.6,0.6 0.23,0.49 -0.62,0.24 -0.24,0.96 -0.68,0.05 -0.51,1.83 0.67,-0.39 0.2,0.77 -1.36,1.63 -1.52,0.4 -0.24,1.61 -0.45,-0.11 -1.48,1.54 -0.28,1.19 -0.83,0.2 0.25,0.69 -1.16,1.7 -3.1,1.26 -0.03,0.76 -3.3,1.89 -0.34,0.87 -1.6,0.93 -0.06,0.65 -0.91,-0.68 -1.45,1.17 -0.87,-0.09 0.11,0.48 -0.65,0.19 0.67,0.35 -0.09,0.64 -1.82,0.22 -0.43,-0.76 -0.72,2.1 -0.55,-0.04 -0.08,1.59 -1.38,0.92 -1.63,-0.4 -2.9,1.89 -0.1,0.6 -3.01,0.34 -0.64,1.43 -1.74,1.19 -0.28,1.5 -0.78,-0.19 0.33,2.09 -1.48,1.2 0.44,1.33 -0.89,1.55 0.15,1.59 -2.58,1.67 -0.59,3.12 -1.48,2.29 0.15,1.42 -1.43,0.41 0.84,1.29 -0.21,0.66 0.67,0.48 -0.88,2.32 0.21,1.45 -1.21,0.4 -1.15,-0.47 -0.18,0.67 1.52,0.19 -0.59,1.24 1.02,0.94 0.46,1.26 -0.62,0.23 0.52,0.6 -0.32,0.79 -0.86,0.13 -1.21,-1.38 -1.03,0.3 1.19,1.06 -1.29,2.42 0.11,1.38 -0.45,0.08 0.47,1.13 -0.53,0.62 -1.89,0.19 -1.8,-1.51 0.03,1.33 -1.59,0.59 -0.46,0.79 -0.34,-1.43 -1.22,-0.29 -1.48,0.57 0.18,1.65 -0.96,0.79 -2.49,-1.49 -0.72,0.1 0.11,0.96 -0.77,0.73 -0.19,3.26 -0.8,1.26 -0.94,-0.11 -0.49,-1.99 -0.9,1.36 0.03,1.62 -0.72,-0.32 -0.82,-1.56 -1.2,1.12 -3.53,0.29 -1.15,0.81 -0.41,2.91 -0.73,0.54 -0.31,0.93 0.39,0.62 -0.95,1.58 -1.61,1.84 -2.38,0.59 -2.88,3.05 -1.1,-0.29 -1.63,1.43 -1.98,-0.07 -0.06,1.14 -3.51,1.1 -1.09,-0.15 -0.39,0.32 0.51,0.38 -0.85,0.38 -0.81,-1.33 -0.44,1.09 -2.19,0.32 0.32,0.27 -0.5,0.77 -0.83,-0.01 -0.53,-1.17 -0.37,0.45 -0.76,-0.42 -0.22,0.97 -1.56,0.33 -0.11,0.58 -1,0.39 0.41,0.91 -0.68,0.57 0.53,0.43 -0.28,1.38 -0.71,0.25 -0.56,-1.18 -0.53,0.59 -0.76,-0.26 0.09,0.54 -0.85,0.33 -0.37,-0.48 -0.63,2.1 1.34,0.81 -0.46,1.17 -1.03,-0.7 0.37,0.75 -1.8,0.82 -0.44,-1 -4.74,0.26 -0.11,-1 -1.28,-0.12 -0.08,-0.46 0.64,-0.13 -1.84,-1.98 0.65,-0.53 -3.86,-0.23 -0.23,-0.58 -0.63,0.22 0.05,-0.84 -0.82,0.2 -0.73,-1.4 -1.62,0.51 0.06,0.77 -1.08,0.66 -1.35,-0.74 -0.62,0.49 -0.08,1.31 -3.25,4.41 0.02,1.16 -0.77,1.99 -0.93,0.64 -0.45,2.36 -1.41,0.68 -2.78,3.33 -2.64,-0.55 -0.55,1.88 -2.74,3 -0.56,1.68 0.65,3.04 -0.57,2.52 1.37,0.7 0.44,1.42 -2.68,3.52 -0.25,-0.53 -0.89,1.21 -1.31,0.43 -3.19,-1.18 -0.42,-2.77 -2.38,-0.76 -1.22,1.39 -1.98,0.75 -1.93,-0.86 -0.82,-1.41 -3.51,2.35 -2.53,-1 -2.8,-2.93 -1.35,0.55 -4.3,-1.69 -2,0.72 -1.97,-0.41 1.45,-2.25 -1.12,-4.71 1.51,-4.09 -1.86,-6.96 -3.91,-4.51 -5.24,-4.01 -10.73,-5.7 -2.24,-0.32 -0.35,-0.71 0.61,-1.32 -1.34,-1.97 -1.53,-0.93 0.04,-0.97 -1.25,-1.62 0.62,-1.1 -0.1,-2.36 -4.34,-4.06 -2.4,-5.71 -0.54,-2.13 1.18,-5.84 -2.75,-2.23 -0.34,-2.86 -3.65,-2.91 1.18,-3.46 -1.5,-2.72 0.94,-3.72 -0.29,-3.9 -3.41,-1.51 0,0 0.88,-2.72 -0.55,-0.32 -0.32,-2.58 1.14,-2.76 2.26,-0.87 3.17,-2.26 4.03,1.7 0.33,-0.75 2.24,-1.16 3.15,0.57 1.08,-0.88 -0.35,-0.69 0.47,-0.36 2.11,0.76 3.25,-0.12 2.75,-2.86 2.48,-0.53 0.58,-2.13 0.7,-0.22 0.33,-0.92 1.07,0.31 1.63,-1.43 1.69,-4.09 1.77,-1.47 -0.16,-0.54 2.5,-3.51 -0.12,-0.64 0.85,-0.52 0.05,-1.47 0.62,-0.15 0.39,-2.06 0.95,-1.45 1.64,-0.06 1.16,-1.24 2.03,0.06 0.63,-1.51 1.27,-1.12 3.56,1.52 2.15,-0.66 2.33,-2.36 6.22,-1.05 1.11,0.95 1.89,0.28 0.06,-0.66 2.21,-2.16 0.72,-1.97 1.82,-10.94 1.6,0.79 2.31,-0.77 0.97,-2.12 1.02,-0.68 0.6,-2.24 4.34,3.51 3,-1.41 1.12,0.77 0.22,1.1 1.28,0.04 2.47,5.88 z"
     title="Makamba"
     id="BI-MA" />
  <path
     d="m 267.7521,292.07477 -0.23,2.56 4.73,5.95 4.95,0.66 4.74,2.91 -0.59,0.89 -1.43,0.63 -1.3,0.21 -1.33,-0.55 -0.86,0.52 -0.67,-0.26 -0.18,0.79 -1.78,-0.81 -3.02,2.06 -0.17,0.85 -1.38,0.44 -1.11,2.22 -0.07,1.44 -3.28,3.02 -1.16,2.01 -2.82,1.71 0.06,0.56 -2.61,2.56 1.02,3.08 0,0 -2.29,0.98 -1.12,5.17 0.14,2.13 0.93,0.9 -0.37,3.11 -2.5,2.62 0.2,1.95 -2.1,2.32 0.34,1.99 -1.69,2.91 -0.84,0.18 -0.61,-1.35 -3.97,-2 -2.44,-2.3 -5.87,2.52 -1.44,3.12 0.24,1.34 -2.2,3.01 -2.43,6.71 -7.55,0.24 -0.39,1.51 -2.37,1.17 -0.14,1.57 -0.92,1.65 -1.5,0.82 -3.25,-0.12 -1,-1.58 -1.44,-4.11 1.37,-3.06 -1.79,-5.96 -2.35,0.43 -1.97,-1.69 -0.03,-1.22 -0.65,-0.63 -1.52,1.02 -0.69,-0.37 -0.17,-5.94 -1.99,-0.54 -1.42,0.77 -1.18,-0.84 -1.52,0.18 -1.28,-1.42 -4.96,-0.33 -0.92,4.33 0.95,2.75 -0.07,3.94 0,0 -3.8,1.34 -2.49,4.19 -1.01,-0.01 -0.08,-1.64 -0.9,-1.18 -0.83,-4.52 -1.16,-2.81 -1.76,-2.25 -4.05,-3.16 -1.17,-2.73 -2.47,-1.32 1.03,-2.98 1.91,-1.26 1.1,-1.91 -0.12,-0.77 -2.53,-3.44 -1.14,-5.82 -1.66,-2.17 -1.2,-0.05 -1.98,-2.2 -0.08,-2.05 -1.73,-2.42 0,0 2.26,-0.17 1.5,0.65 0.64,-0.35 2.06,-3.92 1.02,-0.92 -0.84,-0.42 0.19,-3.09 0.53,0.08 0.9,-1.11 1.18,-3.69 2.96,-3.46 0.61,-4.63 2.43,-3.7 0.8,-3.7 -0.29,-1.34 1.48,-1.29 1.34,0.33 0.71,-1.33 -1.01,-1.64 0.62,-0.72 -0.48,-0.77 -4.54,-3.59 -0.41,-1.23 -1.29,-0.05 -1.88,-2.32 0.71,-0.7 -0.62,-2.59 3.26,-2.96 1.27,-2.73 0,0 2.19,0.68 2.51,-0.09 3.15,1.32 0.92,-0.43 0.74,5.08 3.35,5.14 9.07,1.09 0.3,1.26 1.36,1.09 1.48,2.82 1.62,0.29 0.13,1.32 4.88,-0.26 0.67,0.44 0.68,-1.22 1.37,0.35 2.55,-1.18 0.67,-0.92 1.44,0.06 0.52,-0.78 2.35,-0.49 0.77,0.68 -0.79,0.84 -0.17,1.83 0.76,2.79 1.23,0.45 1.63,2.19 2.56,1.71 2.76,4.54 1.19,3.42 1.69,0.86 0.23,1.02 6.5,1.72 1.69,2.21 2.68,-0.24 1.9,-1.15 1.11,-4.77 1.2,-0.94 0.78,-0.13 0.52,1.36 0.57,-0.25 8.28,-5.75 4.16,-0.21 z"
     title="Muramvya"
     id="BI-MU" />
  <path
     d="m 238.8121,442.49477 -1.44,3.8 -0.85,0.37 -0.06,2.15 -0.87,0.79 -0.72,3.14 -1.68,1.64 -1.26,3.3 -1.92,2.14 -1.18,0.16 -3.36,2.95 -3.94,1.63 -1.7,-5.23 3.16,-4.68 -1.04,-3.36 0.91,-0.14 1.18,-1.5 -0.47,-1.71 1,-5.93 -1.73,1.04 -1.98,0.15 -1.97,-1.18 -2.47,-0.19 -0.82,-1.31 0.35,-0.97 -1.24,0.03 -0.66,-0.94 0.14,-2.52 -1.07,-1.64 1.43,-1.86 -0.85,-0.87 -0.96,-0.1 -2.03,1.71 -1.07,0.16 -1.69,-0.72 -4.72,-5.81 -0.28,-6.36 -4.18,-2.42 -0.85,-1.49 -1.07,-0.55 -0.48,-2.21 -0.85,-0.32 -0.98,0.62 -3.52,-1.41 -2.53,-0.13 -1.06,-1.55 0,0 0.82,-1.42 0.65,-0.15 0.66,-1.4 -0.25,-0.99 0.73,-0.9 3.33,1.05 0.97,-0.73 0.67,-5.86 -3.47,-0.95 -0.13,-2.51 0.76,-0.92 -0.22,-3.22 0.48,-0.14 -0.22,-3.89 1.15,-2.27 4.45,-3.19 0.35,-1.18 -0.27,-2.91 -4.14,-3.69 0.36,-1.06 -0.68,-1.69 -1.42,-0.73 -0.8,-1.18 0.57,-1.02 -0.26,-1.54 1.21,-2.72 -0.76,-2 1.12,-1.28 1.37,-4.34 1.31,-1.45 -0.41,-1.27 -2.87,-2.22 0,0 0.07,-3.94 -0.95,-2.75 0.92,-4.33 4.96,0.33 1.28,1.42 1.52,-0.18 1.18,0.84 1.42,-0.77 1.99,0.54 0.17,5.94 0.69,0.37 1.52,-1.02 0.65,0.63 0.03,1.22 1.97,1.69 2.35,-0.43 1.79,5.96 -1.37,3.06 1.44,4.11 1,1.58 3.25,0.12 1.5,-0.82 0.92,-1.65 0.14,-1.57 2.37,-1.17 0.39,-1.51 7.55,-0.24 2.43,-6.71 2.2,-3.01 -0.24,-1.34 1.44,-3.12 5.87,-2.52 2.44,2.3 3.97,2 0.61,1.35 0.84,-0.18 1.69,-2.91 -0.34,-1.99 2.1,-2.32 -0.2,-1.95 2.5,-2.62 0.37,-3.11 -0.93,-0.9 -0.14,-2.13 1.12,-5.17 2.29,-0.98 0,0 1.22,0.71 2.2,-0.45 0.76,0.64 1.27,3.29 5.33,-0.1 0.91,2.18 -0.39,0.9 0.36,0.86 3.69,2.15 -0.06,1.03 3.59,3.24 -0.41,0.65 0.34,0.4 -0.83,0.26 0.16,1.75 -1.21,0.58 0.25,0.87 -0.78,1.41 -1.72,0.2 -0.66,2.08 2,2.34 2.14,0.02 0.97,1.09 1.16,-0.8 2.26,0.27 0.16,0.75 1.69,1.12 -0.47,1.05 5.47,2.42 0.53,2.12 -1.8,0.97 1.65,0.42 0.58,0.71 -1.07,1.52 -0.24,-0.43 -0.94,0.45 -1.57,-0.23 -1.17,0.92 -0.34,1.76 0.45,0.89 -0.95,0.39 0.2,1.35 -1.61,2.47 -0.01,0.77 2.38,2.11 -1.29,1.03 1.29,1.09 -1.38,0.3 0.11,0.39 1.73,1.23 -1.65,0.31 -0.07,1.32 -0.58,0.17 0.45,2.13 -1.67,1.51 0.8,0.9 -0.24,1.3 1.3,0.29 -0.62,0.96 0.86,0.94 -1.86,0.09 -0.21,2.22 0.45,0.87 -0.65,2.34 0.1,2.55 -1.02,2.06 0.36,-0.07 -2.78,1.74 -0.14,1.64 -1.74,-0.21 -0.73,0.58 -1.57,-0.41 -1.68,1.05 -0.08,0.58 -5.85,-2.19 -1.85,1.44 -0.83,-0.66 -0.9,0.38 0.46,0.61 -0.36,0.55 -1.08,-0.31 0.24,0.7 -1.05,0.73 0.05,1.07 -2.86,-0.15 -0.35,1.79 -0.95,0.06 -1.49,1.47 -0.72,4.77 2.27,3.28 0.75,0.32 1.12,2.28 1.43,0.9 -0.56,1.19 0.4,1.21 0.79,-0.02 0.84,3.69 0.45,0.03 0.12,0.68 -0.61,0.48 0.37,0.76 1.61,0.77 0.04,2.61 2.6,1.14 -0.4,2.78 -3.59,-0.23 -1.94,-2.58 -1.21,0.48 -0.47,-1.22 -1.42,0.66 -0.13,0.74 -1.9,-0.79 -1.06,0.56 -1.59,-0.5 -2.7,0.68 -0.86,-0.4 -1.22,0.86 -1.11,-0.31 -2.7,1.8 -2.51,3.66 -1.85,0.79 -1.91,1.82 -0.2,0.83 z"
     title="Mwaro"
     id="BI-MW" />
  <path
     d="m 492.1521,210.48477 0.54,0.99 -2.68,1.16 1.54,2.04 0.07,0.89 -2.61,0.52 -0.2,0.77 -0.98,0.55 -0.3,4.84 -1.56,0.66 -0.19,0.77 -1.91,0.46 -0.43,-0.36 -0.46,1.14 -0.81,-0.1 -1.14,-1.4 -2.54,-0.22 -0.4,1.7 0.55,0.5 -0.07,2.66 -1.46,0.82 -0.6,-1.32 -0.87,1.21 -0.77,-0.37 -1.6,1.07 0.31,1.26 -0.75,1.37 0.14,1.31 -1.51,-0.15 -0.53,1.4 -1.53,1.42 1.49,3.74 -0.71,1.07 0.79,2.65 -0.66,2.88 -2.43,0.36 -0.98,-0.66 -1.93,1.63 0.89,1.23 -0.16,1.05 -2.55,-0.06 -0.91,1.09 -2.38,0.11 -2.11,1.43 -1,1.88 0.22,1.1 -1.54,0.88 -0.04,1.2 0.85,0.64 0.72,2.34 1.99,2.1 0.5,1.34 -1.08,0.57 -1.61,-0.67 -0.57,2.16 1.29,0.29 0.18,0.6 -0.57,0.95 -0.81,-0.09 -1.15,2.6 -2.92,0.29 0.23,1.09 -0.6,0.72 -1.95,0.06 1.47,1.62 -0.38,2.4 0.92,1.39 -0.26,1.14 -0.96,0.53 -0.7,-0.7 -3.26,-0.77 0,0 -3,-2.64 -1.26,0.98 -1.24,-0.12 -2.88,2.46 -1.25,0.04 -1.88,-0.83 -0.04,-2.31 -2.66,-1.27 -1.84,-0.02 -2.75,0.83 -4.07,2.69 -2.69,0.32 -0.7,-0.88 -2.67,-0.2 -1.73,-3 -1.11,-0.79 -1.53,-0.62 -0.17,0.45 -0.96,-0.05 -1.68,-1.44 -0.14,-2.5 -2.49,-1.82 -0.7,-1.75 0.21,-1.1 2.4,-4.8 3.08,-3.1 0.21,-2.16 2.61,-3.75 0.49,-1.7 3.67,-3.98 0.03,-2.33 2.12,-4.86 -0.8,-1.4 1.55,-6.97 -0.84,-2.8 0.88,-2.95 -0.6,-4.29 0.28,-3.2 0.77,-0.95 -0.33,-1.61 -3.23,-4.7 -1.17,-0.45 -2.32,-2.92 -2.53,-1.5 -1.84,-3.32 -2.39,-1 -1.04,-1.12 -2.18,-0.14 -4.03,-2.72 -12.91,1.34 0,0 -0.89,-1.76 1.46,-2.45 -1.11,-1.21 -0.1,-1.17 0.59,-0.86 -1.07,-1.52 -1.51,-0.72 0.79,-1.19 4.31,-2.06 1.09,-2.37 1.82,-0.3 0.2,-0.47 -1.47,-1.63 -2.22,-1.23 -5.05,-1.06 -4.49,-2.63 -1.96,2.28 -3.29,2.18 -0.42,1.47 -6.22,-5.61 1.54,-0.79 -0.28,-0.97 -0.51,-0.82 -1.77,-0.48 -0.59,-2.65 -2.03,-0.73 -0.9,-0.98 -0.2,-1.35 -0.9,-0.87 1.17,-2.24 -0.34,-0.59 -7.76,-4.67 -0.77,-1.71 0,0 6.59,-4.17 0.99,0.08 3.11,2.75 3.04,0.31 3.85,-4.85 -0.11,-2.77 3.86,-4.09 2.07,-5.44 2.23,-0.32 2.2,2.12 3.3,1.01 3.13,-3.25 3.06,-2 8.59,-8.45 1.1,0.45 3.33,-2.85 6.63,-2.68 4.57,-0.72 2.4,5.02 2.69,-0.82 4.03,-6.3 3.52,-3 1,-1.81 2.91,-2.02 2.85,-5.63 2.17,-0.94 2.81,0.78 1.23,-0.88 1.05,-1.52 1.06,-3.86 3.67,-4.609999 2.16,-0.6 3.66,0.67 4.32,-0.69 2.53,0.23 1.29,-1.28 2.15,-4.79 1.51,-6.17 -1.03,-2.16 -0.24,-1.83 0.49,-1.8 2.97,-4.56 -5.79,-5.68 -0.76,-4.77 5.6,-5.57 0.45,-4.71 -2.15,-4.22 -4.37,-4.03 -1.78,-7.26 -2.19,-2.13 -0.15,-2.81 -3.17,-5.61 -0.76,-10.61 0,0 0.4,-2.12 -0.38,-1.11 1.51,-2.24 0.86,-4.05 2.37,-2.08 1.47,-2.27 4.19,-0.41 1.87,-0.73 4.2,4.53 0.03,0.8 1.33,-0.46 1.23,1.23 2.53,0.37 1.69,-2.5 2.88,-1.24 2.4,0.08 1.34,0.82 0.34,1.47 -1.39,2.86 0.65,1.67 -0.82,1.81 0.48,0.83 3.4,1.59 0.21,2.18 -0.47,1.47 0.6,1.11 1.72,0.64 1.65,-0.85 1.33,0.03 1.53,3.73 1.41,-0.05 1.84,2.5 2.78,1.6 0.6,3.61 3.38,1.28 4.58,0.16 2.89,2.87 -1.93,3.06 0.46,1.16 -0.92,2.62 -1.89,1.43 -0.36,1.77 -1.7,1.31 -0.16,1.6 -1.12,2.03 0.25,2.37 -0.47,2.81 -1.44,1.24 -2.76,8.9 -3.6,4.32 0.02,1.61 -3.5,0.34 -0.81,1.5 0.78,5.53 -0.29,3.75 -1.76,1.47 -1,3.32 -2.01,1.48 -1.28,3.65 -2.9,2.93 -0.89,2.21 -3.6,5.149999 -1.94,5.6 -1.65,2.42 -2.07,1.67 -1.52,2.25 -0.75,2.35 0.17,0.99 3.41,4.58 1.98,-0.59 2.13,0.29 3.14,3.56 2.05,0.76 2.93,-1.78 1.57,-1.76 5.42,-2.1 4.9,-2.93 2.52,-2.86 3.84,-0.19 0.73,-0.71 0.99,0.07 -0.38,2.14 0.95,1.68 -1.64,3.81 0.16,1.28 -1.4,0.46 0.34,1.84 -1.31,0.42 -0.39,1.2 -0.77,-0.27 -0.95,0.82 -0.68,-0.43 -0.4,2.16 -1.32,-0.68 -0.19,1.87 -2.05,1.66 0.01,1.2 -2.22,1.04 -2.41,2.54 -2.25,-2.32 -1.02,0.16 -1.04,1.13 -1.54,-0.03 0.1,1.55 -0.75,-0.24 0.15,0.62 -0.71,-0.1 0.08,1.07 1.07,1.28 -0.58,1.08 -0.66,-0.09 -2.43,2.17 -4.68,1.03 0.52,2.55 -1.81,1.23 2.37,1.7 1.23,2.22 -1.59,3.05 0.85,1.4 -0.98,0.98 0.24,0.87 -0.67,0.86 0.42,1.32 -0.82,0.78 -0.53,2.32 -0.46,0.02 -0.2,-1.03 -1.03,0.28 0.81,0.72 -0.57,0.32 0.44,0.92 -0.84,0.52 -0.07,1.22 -1.47,-0.52 -0.9,1.91 0.75,0.82 -0.47,2.09 -0.62,0.48 0.46,1.42 -1.43,0.29 0.26,2.5 -0.77,-0.14 -0.31,1.29 -1.27,-0.08 -0.65,1.34 0.94,1.3 -0.8,-0.08 -1.6,2.52 0.09,0.79 2.17,-0.5 0.04,1.46 -1.18,0.26 0.73,1.41 0.69,0.19 0.47,1.48 2.64,-1.73 2.98,1.84 0.3,0.87 -0.58,1.2 0.99,1.15 0.29,2.74 -0.52,1 0.99,1.03 -0.49,1.38 1.65,0.45 0.61,1.49 0.6,-0.37 0.9,0.55 0.39,1.26 0.63,-0.8 1.83,-0.45 1.76,1.75 0.4,1.65 -2.07,0.68 0.95,0.77 1.16,-0.78 1.55,0.75 1.62,2.54 1.88,0.91 0.67,3.07 z"
     title="Muyinga"
     id="BI-MY" />
  <path
     d="m 356.4921,156.14477 0.77,1.71 7.76,4.67 0.34,0.59 -1.17,2.24 0.9,0.87 0.2,1.35 0.9,0.98 2.03,0.73 0.59,2.65 1.77,0.48 0.51,0.82 0.28,0.97 -1.54,0.79 6.22,5.61 0.42,-1.47 3.29,-2.18 1.96,-2.28 4.49,2.63 5.05,1.06 2.22,1.23 1.47,1.63 -0.2,0.47 -1.82,0.3 -1.09,2.37 -4.31,2.06 -0.79,1.19 1.51,0.72 1.07,1.52 -0.59,0.86 0.1,1.17 1.11,1.21 -1.46,2.45 0.89,1.76 0,0 -3.59,3.89 -2.51,3.73 -3.04,2.69 -3.25,2.21 -5.72,1.87 -6.98,4.77 -3.46,3.28 -3.39,1.46 -2.97,-0.09 -1.47,0.56 -5.76,-0.92 -3.19,2.83 -1.6,0.35 -2.57,-0.21 -2.18,-1.27 -1.57,0.32 -2.61,3.84 -3.1,2.32 -3.13,1.13 -1.21,1.22 -0.1,2.24 -2.42,3.12 -0.64,2.57 -2.52,4.16 -0.18,1.99 -2.49,1.55 -3.67,-0.67 -2.61,1.3 -0.44,-0.26 -1.29,1.99 1.09,2.24 -0.08,2.62 -1.92,0.49 -1.37,0.72 -0.54,0.99 -0.57,-0.1 0,0 -1.29,-0.11 -0.54,-0.74 -2.63,0.76 -1.64,-3.68 -2.49,-3.17 -3.08,-0.15 -0.7,-1 -2.67,-1.33 -5.86,0.85 0,0 -0.21,-2.07 1.06,-1.12 -0.07,-4.18 1.14,-2.46 -0.35,-1.21 0.51,-2.57 1.32,-0.78 0.79,-2.48 1.41,-1.53 -3.3,0.12 -2.59,1.38 -4.95,1.2 -1.65,-1.97 -2.18,-0.4 -2.01,1.46 -3.72,1.4 -5.08,0.69 -1.62,-0.77 0.95,-2.79 -0.51,-2.29 -5.4,-4.68 -3.88,-2.06 -3,-5.54 -1.63,-0.89 0.61,-10.9 -2.84,-1.3 -0.56,-0.99 0.67,-2 -3.52,3.99 -1.86,0.62 -0.9,1.96 -3.93,1.43 -5.2,-3.97 0.38,-3.61 1.15,-1.74 1.56,-0.52 -1.31,-6.03 -1.49,-0.08 -1.39,-1.95 0.59,-2.6 -1.09,0.48 -0.77,-0.37 -0.01,-0.76 -1.84,0.73 -0.49,-0.3 -0.69,1.03 -1.89,0.11 -0.55,-0.08 -0.75,-1.59 -1.75,0.22 -1.48,-0.72 -1,0.36 -2.33,-1.9 -2.76,0.47 -0.5,-2 -3.97,-4.75 0.11,-1.16 1.81,-3.21 1.92,-1.25 0.04,-0.88 3.91,1.6 0.74,-1.1 0.75,-4.47 -1.41,-4.21 1.43,-3.06 0.45,0.21 1.15,-1.11 0,0 3.39,2.64 2.19,0.16 2.57,2.79 0.62,-0.64 2.82,1.39 0.6,0.54 -0.19,1.08 1.04,1.26 2.14,-1.22 1.24,0.69 1.14,-0.81 0.41,0.82 2.34,-2.06 3.03,-0.36 1.49,-1.06 1.11,-0.02 1.09,1.19 1.33,-0.69 1.12,-1.98 -0.13,-0.73 1.45,-2 0.7,-4.89 1.21,-0.85 -0.32,-1.66 0.54,-1.77 1.25,-0.84 4.93,0.49 2.52,-2.54 2.77,0.28 2.34,0.79 1.3,3.88 2.25,0.91 1.76,-0.25 1.64,1.69 0.39,-1.71 0.77,-0.18 1.46,-1.9 0.59,0.36 3.8,-1.05 0.75,-1.33 1.57,0.37 1.25,-1.01 1.31,-0.25 2.22,0.54 1.26,-0.43 0.74,-1.05 -0.61,-0.98 0.31,-0.6 2.71,-0.68 0.63,0.29 1.24,-1.37 -0.83,-0.6 0.7,-0.56 0.24,-0.96 -0.54,-0.6 0.48,-1.04 2.28,-2.34 0.6,-2.32 2.7,-2.12 0.8,-2.17 1.81,-1.73 0.43,-3.27 1.39,-1.88 2.12,-7.29 -0.52,-2.3 0.82,-0.78 0,0 0.78,1.08 5.16,-0.82 4.99,1.86 2.73,1.91 0.92,1.68 3.14,0.48 3.54,1.47 0.84,1.08 -0.01,3.08 3.23,-1.09 -0.38,0.74 0.51,0.97 4.19,5.34 -1.1,2.08 -2.04,0.65 -0.34,0.66 3.99,2.29 6.12,4.72 2.78,0.75 1.08,1.23 0.31,0.77 -1.33,2.18 0.84,1.33 1.58,0.56 1.01,2.64 1.36,1.43 -0.5,2.99 2.04,0.42 z"
     title="Ngozi"
     id="BI-NG" />
  <path
     d="m 459.9621,466.08477 0.3,1.13 2.49,0.96 0.35,2.09 -0.56,0.51 1.13,1.39 -0.05,1.04 1.24,2.13 -0.06,2.81 1.67,0.91 0.33,0.77 -0.56,2.37 0.47,0.16 0.02,3.37 -1.59,1.2 -0.29,1.86 -2.61,1.33 -0.84,-0.99 0.66,-0.33 -0.04,-0.91 -1.56,0.45 -0.31,-1.06 -1.63,-0.31 -0.56,-1.86 0.66,-0.79 -1.84,-0.41 -0.06,-0.67 -1.39,-0.36 -2.95,-0.04 -1.52,0.68 -0.97,1.24 -1.09,-0.77 0.39,-0.76 -0.6,-0.38 -2.66,-0.48 -3.21,2.37 -0.54,-0.22 -0.12,1.29 -1.85,0.16 0.29,1.08 -2.17,2.18 0.58,1.8 -0.77,0.17 0.81,0.7 -0.92,0.62 0.37,0.63 -1,0.04 -0.17,0.7 1.24,0.31 -1,1.01 0.44,1.02 -0.78,-0.15 -0.11,0.82 -1.1,0.17 0.14,1.64 -0.89,-0.06 0.52,0.36 -0.8,0.5 0.34,1.04 -2.15,1.05 0.8,0.43 0.31,1.6 -1.05,2.16 -0.85,0.29 -0.68,1.12 -1.87,0.69 -0.01,1.92 -2.14,1.73 -0.61,-0.79 -0.23,0.85 -1.71,1.1 0.17,0.85 -0.79,-0.04 -1.08,1.12 -0.02,0.72 -0.67,-0.29 -0.76,0.86 -0.58,-0.6 -0.56,1.16 -0.96,-0.71 -0.73,0.49 -0.29,1.19 -1.66,-0.09 0.38,1.24 -1.64,-0.1 1.12,2.78 -0.9,0.87 0.17,0.52 -0.64,0.11 -0.13,2.14 -0.78,0.39 0.2,0.85 -0.91,1.13 -0.27,2.73 -3.3,1.58 0.34,1.82 -1.36,1.16 0.19,0.7 -1.86,2.06 0.96,0.71 -0.49,0.26 0,2.77 -1.2,0.37 0.39,3.22 -0.57,-0.18 -0.36,1.99 -0.65,0.68 0.52,0.24 -0.15,0.92 -2.29,3.59 -2.04,1.85 1.56,3.07 -0.22,0.79 0.72,0.74 -0.37,0.31 1.17,0.46 0.06,0.75 2.36,0.44 -0.61,0.79 0.33,0.63 -0.47,0.89 -1.21,0.09 0.38,0.97 -0.81,1.64 -1.91,0.56 -0.53,2.7 -2.32,1.66 -1.09,1.66 -0.67,-0.2 0.46,0.86 -2.84,-0.58 -1.75,1.85 0,0 -0.7,-0.44 -2.8,3.35 -1.27,0.03 -1.99,-2.82 -1.93,-0.49 -0.69,-1.6 -1.98,-1.75 -2.35,0.28 -0.98,-0.45 -2.77,1.91 -1.25,0.18 -0.28,1.29 -2.33,1.18 -1.73,2.43 -5.17,3.04 -0.48,-0.46 -1.84,0.7 -4.4,-2.34 -1.01,0.23 -0.32,-0.51 -3.29,-0.53 -3.32,0.74 -1.84,-0.56 -1.32,0.82 -0.83,-0.9 -1.13,0.83 -1.61,-0.95 0.28,-1.01 -1.45,-0.16 -0.07,0.65 -2.8,1.03 -2.08,-0.54 -1.61,0.62 -0.3,0.69 0.59,0.98 -3.58,2.11 -0.49,1.08 -1.04,-0.63 -1.11,0.73 -0.83,-0.34 -0.54,2.49 -2.81,1.48 -1.43,0.21 -1.03,-1.26 -0.48,0.1 -0.29,1.53 -0.91,-0.04 -1.15,-1.66 -1.08,0.43 -2.63,2.67 -1.69,-0.41 -2.75,0.93 -0.22,-2.75 -1.16,-0.5 0.44,-1.05 -1.96,-1.04 -1.04,1.37 -1.4,-0.28 -1.45,0.52 -0.9,-0.63 -2.22,0.89 0.27,1.66 -0.67,0.35 -1.52,-0.48 0.39,1.03 -0.56,0.25 0.16,0.9 -1.33,-0.36 0.32,-0.44 -1.13,-1.14 0.7,-0.62 -0.65,-0.73 -1.92,1.73 -0.92,0.27 0.19,-0.38 -0.6,-0.06 -2.37,0.98 0.35,0.36 -1.04,-0.2 -0.14,-1.14 -0.6,-0.33 -0.08,0.59 -0.73,-0.46 0.66,-1.29 -1.48,-0.61 0.47,-1.02 -2.79,-0.45 0.79,-0.94 -1.14,-0.31 0.75,-0.6 -0.73,-1.47 -1.58,0.56 -0.03,0.91 -2.05,-0.24 -1.75,1.41 -0.95,-1.35 -0.81,-0.08 -0.48,1.28 -1.49,-0.66 -0.21,0.46 1.07,0.93 -2.68,0.03 -0.55,-0.52 -1.63,1.06 -3.61,-0.79 0.33,-1.41 -0.78,-0.82 -1.48,-0.25 0.99,-3.61 2.21,-1.51 0.38,-1.08 -1.95,-0.77 -0.61,-1.8 0.43,-0.89 -1.04,-0.74 0,0 0.47,-1.13 2.13,-1.7 1.54,-3.19 1.37,-1.34 0.29,-1.16 -0.77,-2.99 0.48,-1.98 2.62,-1.43 0.66,-4.59 1.03,-1.9 0.89,-0.26 0.56,-2.18 1.85,-1.91 0.37,-1.78 1.02,0.32 0.45,-0.38 1.82,-4.08 0.96,-5.23 2.23,-3.18 1.73,-0.46 0.73,-2.6 0.27,-6.91 1.26,-3 6.05,-1.01 -1.64,-4.27 0.08,-1.36 -1.36,-0.71 1.34,-1.55 -0.2,-0.59 -1.34,-0.7 -1.94,-2.37 5.37,-3.38 1.2,-2.63 2.05,-0.57 -0.05,-0.66 0,0 0.55,0.09 -0.17,2.14 2.61,3.9 1.71,0.86 1.59,-0.44 1.96,1.56 1.19,-0.01 1.09,-1.26 -0.76,-0.81 0.43,-3.21 -3.46,-3.07 1.96,-2.58 0.22,-1.35 1.44,-1.32 -0.55,-0.7 0.43,-2.11 0.7,-0.2 0.21,-0.85 1.56,0.11 1.25,-1.25 1.07,0.09 0.49,-0.7 2.7,-0.58 3.71,-2.52 2.69,0.03 2.24,-1.24 0.23,-1.14 -5.34,-3.2 -2.29,-0.66 -0.32,-1.33 3.16,-3.31 2.55,-1.69 0.17,-1.91 3.65,-2.98 5.83,-1 0.8,-1.01 2.53,-0.58 0.71,-0.64 0.07,-1.05 2.62,0.15 2.01,-0.88 1.25,0.65 2.67,-0.52 0.67,-1.13 -0.25,-0.79 2.12,-1.63 0.5,-2.35 1.32,-0.51 -0.13,-1.28 1.6,-1.1 1.59,-3.86 3.95,-2.05 -0.31,-5.67 2.19,-3.34 -0.51,-0.82 0.4,-0.57 0,0 1.37,-0.23 4.26,2.91 2.04,0.3 5.7,6.61 1.57,0.63 1.78,3.75 2.61,2.49 1.07,-0.64 2.2,-3 1.64,-0.65 4.44,-3.66 7.15,-3.01 3.46,0.63 3.84,-0.76 3.89,0.83 2.19,-0.29 3.69,3.34 0.87,3.16 3.35,3.17 2.84,4.17 0.67,-0.19 1.61,-2.17 0.04,-0.97 2.43,-0.23 3.78,2.59 3.7,0.29 0.87,0.84 2.27,7.5 8.02,1.97 2.08,1.71 2.07,-0.71 3.41,-3.45 1.44,0.47 1.02,1.67 z"
     title="Rutana"
     id="BI-RT" />
  <path
     d="m 436.8121,289.60477 0.49,2.81 -1.33,0.92 -0.31,2.15 1.64,3.64 1.31,0.16 2.51,-1.28 1.35,-1.43 5.16,0.83 4.05,-1.89 2.5,4.96 0.47,-0.35 0.04,-1.68 4,3.39 0.22,1.51 3.47,-2.67 1.72,2.72 1.34,0.36 0.7,1.09 2.18,-0.56 4.01,1.65 2.8,5.23 3.59,1.47 0.31,2.51 -1.24,4.52 2.67,2.1 -0.75,0.67 3.34,3.78 0.83,2.96 2.88,-0.06 1.43,1.54 3.31,0.15 0.83,-0.59 1.33,-3.42 1.41,-1.03 1.57,1.14 2,-0.05 -0.22,0.94 2.32,-0.78 0.29,0.78 2.64,-0.45 0.48,1.61 2.51,0.95 0.31,0.81 3.56,1.15 -0.71,0.64 -2.33,-0.4 -4.25,2.99 -0.54,4.47 0.31,2.47 3.43,-0.97 5.79,1.39 3.1,6.06 6.47,2.28 -0.27,0.6 0.7,0.8 -0.36,2.28 0.51,0.69 -1,2.44 0.58,0.5 4.83,-3.53 0.57,-1.43 3.16,-2.06 2.63,-1.13 2.74,-0.35 1.5,-1.52 3.7,-1.48 0,0 3.6,4.23 0.6,1.51 -0.3,1.86 4.19,0.01 4.83,2.5 1.19,1.66 -0.19,1.77 -1.38,1.84 0.41,1.72 -0.76,1.87 -1.86,1.25 -1.78,3.02 -1.76,0.93 -2.02,2.34 -1.49,0.25 -1.88,1.42 -0.7,2.04 -5.06,3.56 -5.77,1.64 -2.17,1.14 -4.68,3.91 -5.11,1.81 -1.21,1.38 -6.48,1.55 -3.25,1.5 -1.23,1.62 -1.32,0.48 -1.02,1.14 -0.76,2.44 -2.25,2.74 -1.43,0.43 -0.39,-2.81 -3.17,-1.62 -2.7,1.12 -1.01,2.46 -1.45,0.7 -1.68,2.13 -2.67,1.1 -1.9,2.99 -1.5,1.14 0.06,1.3 -2.79,1.31 -0.12,0.7 -2.19,1.81 1,2.62 1.13,0.36 0.03,-0.89 1.3,0.38 0.25,1.19 -0.63,0.68 0.6,0.72 -0.78,0.6 0,1.33 -0.84,-0.09 -0.48,0.85 0.51,0.45 0.68,-0.57 1.19,0.71 -0.67,1.09 0.36,3.17 -1.8,0.63 0.47,0.64 -0.6,0.97 -0.72,0.33 -0.62,-0.67 0.16,1.17 -1.33,1.33 -0.87,0.55 -1.33,-0.4 -2.29,1.47 0.16,0.79 1.07,0.27 -0.26,1.67 -1.05,0.46 0.24,1.03 -1.02,0.27 0.2,1.12 -1.94,-0.14 -0.64,4.18 -1.42,0.11 -0.02,3.95 -1.84,0.29 -0.64,1.32 1.16,1.28 -0.01,0.73 -1.07,0.97 -1.03,-0.14 1.24,1.64 -0.11,1.15 -0.93,-0.62 -0.88,0.73 0.07,1.54 -1.23,1.89 0.27,0.32 -1.09,0.38 0.46,0.57 -0.45,0.72 -2.35,0.14 0.51,1.07 -1.65,1.84 1.66,0.62 0,0.75 -0.97,0.6 0.26,1.47 0,0 -3.11,-1.03 -1.02,-1.67 -1.44,-0.47 -3.41,3.45 -2.07,0.71 -2.08,-1.71 -8.02,-1.97 -2.27,-7.5 -0.87,-0.84 -3.7,-0.29 -3.78,-2.59 -2.43,0.23 -0.04,0.97 -1.61,2.17 -0.67,0.19 -2.84,-4.17 -3.35,-3.17 -0.87,-3.16 -3.69,-3.34 -2.19,0.29 -3.89,-0.83 -3.84,0.76 -3.46,-0.63 -7.15,3.01 -4.44,3.66 -1.64,0.65 -2.2,3 -1.07,0.64 -2.61,-2.49 -1.78,-3.75 -1.57,-0.63 -5.7,-6.61 -2.04,-0.3 -4.26,-2.91 -1.37,0.23 0,0 -0.4,-2.95 0.63,-0.89 -0.18,-0.8 2.16,-2.93 -0.51,-1.51 0.3,-3.85 -1.13,-0.35 0.41,-1.17 -1.23,-0.21 -1.21,-2.18 0.71,-2.46 -3.11,-3.52 -0.23,-1.59 -1.14,-1.17 0.07,-1.07 -0.87,-1.65 0.47,-2.26 -0.52,-0.08 1.55,-1.01 -0.54,-2.14 -2.32,-2.93 -2.03,-1.35 -0.26,-0.5 0.55,-0.84 -1.29,-1.93 0.29,-1.57 -0.63,-3.01 -3.97,-5.86 0.54,-0.59 0.48,0.29 1.1,-1.88 1.62,-0.86 -0.41,-0.84 0.89,-2.33 -0.29,-0.96 1.65,-3.75 2.06,-1.93 0.78,-0.12 0.85,-1.49 -0.56,-0.23 -0.48,-2.19 -4.47,-3.09 -0.24,-1.04 -1.08,-0.46 -0.3,-1.21 -1.03,0.08 -0.65,-1.53 0.35,-2.18 -3.07,-1.68 0.31,-1.33 -0.94,-0.46 0.23,-1.61 -0.65,-0.28 0.59,-0.45 -0.06,-0.91 -1.55,-0.01 0.1,-1.18 0,0 1.24,-0.47 0.41,-2.62 2.03,1.03 1.5,-0.51 -0.14,-1.83 0.81,-1.73 -0.44,-0.83 0.94,-0.1 0.27,0.97 4.92,-0.47 2.14,-1.74 1.67,0.46 1.94,-1.35 2.32,0.58 0.89,0.91 1.19,-2.14 -1.02,-0.99 1.93,0.48 1.78,-0.77 3.61,2.73 1.14,-1.29 -0.23,-1.47 0.93,-0.3 0.46,1.24 0.61,0.1 3.21,-1.72 0.38,-1.12 0.43,0.47 1.55,-0.03 2.5,1.87 0.24,-0.88 -0.63,-1.42 0.47,-0.9 3.26,0.48 0.67,-0.5 -0.25,-1.11 -1.11,0.21 -1.09,-0.88 0.25,-1.43 3.07,0.21 0.57,2.14 0.98,0.6 3.33,-0.58 0.21,-0.54 1.52,0.59 0.48,-0.34 -0.1,-1.84 -0.77,-1.86 1.97,-1.89 1.22,0.03 1.12,-1.39 1.54,0.39 0.6,0.83 0.39,-0.85 1.61,-0.93 0.06,-2.06 -0.79,-2.36 0.4,-0.41 2.22,0.73 0.64,0.89 0.47,-0.4 0.38,0.71 2.26,-0.85 -0.51,-2.82 -1.17,-1.77 4.59,-5.05 0.56,-1.42 0.76,0.03 0.52,-1.53 -0.94,-1.05 1.74,-2.07 1.76,-0.55 0.07,-2.23 1.2,-0.46 2.58,-3.52 2.52,-1.37 3.95,-4 3.44,-0.79 -0.25,-3.6 0.39,-1.01 2.61,0.93 2.43,-1.93 z"
     title="Ruyigi"
     id="BI-RY" />
</svg>
