<?xml version="1.0" encoding="UTF-8" standalone="no"?>
<!-- Created for MapSVG plugin: http://mapsvg.com -->
<svg
   xmlns:mapsvg="http://mapsvg.com"
   xmlns:dc="http://purl.org/dc/elements/1.1/"
   xmlns:rdf="http://www.w3.org/1999/02/22-rdf-syntax-ns#"
   xmlns:svg="http://www.w3.org/2000/svg"
   xmlns="http://www.w3.org/2000/svg"
   mapsvg:geoViewBox="11.178092 3.7035587 18.650602 -5.031620"
   width="612.58441"
   height="711.99921">
  
  <path
     d="m 220.68039,499.45271 0.27,0.6 1.11,1.14 3.04,1.21 2.06,-0.31 1.79,-1.2 1.41,-0.27 0.92,0.28 2.18,2.05 1.62,-1.32 0.47,0 1.56,1.51 1.13,0.61 1.63,-0.62 0.69,-1.02 0,0 0.07,3.23 0.57,1.81 0.62,0.57 1.82,0.47 0.57,0.54 0.06,0.62 -0.41,1.19 -0.59,0.39 -1.86,-0.05 -0.28,0.71 1.07,1.08 1.89,1.25 0.59,0.18 0.46,-1.18 0.61,-0.29 1.21,0.47 0.36,0.59 -0.04,0.66 -0.46,0.61 -1.84,0.99 -0.98,1.22 -1.27,0.64 -0.53,0.59 0.73,1.17 0.55,0.61 2.64,-0.11 1.2,0.61 0.46,0.57 0.61,0.18 2.14,-1.22 1.21,-0.23 0.57,0.27 0.97,1.13 1.94,-1.11 0.66,0 0.54,0.68 -0.16,1.36 -1.79,3.21 -0.28,1.23 0.6,0.49 0.54,-0.56 0.52,-1.18 0.6,-0.02 0.09,2.08 0.63,1.29 0.26,2.63 1.38,1.67 0.07,1.15 0.87,1.75 -0.19,0.61 -0.61,0.68 -2.37,1.2 -0.73,1.1 0,0.91 -0.4,0.79 -1.89,1.5 -0.76,1.67 0,0 -0.79,0.7 -4.05,1.61 -2.21,1.72 -1.04,1.76 -1.44,5.37 -1.41,3.1 0.09,2.04 -1.43,0.81 -0.59,2.22 -1.66,1.22 0.5,1.07 -0.14,0.45 -2.16,0.63 -0.93,1.34 -0.16,0.95 -2.01,1.38 -1.11,2.27 -1.59,1.08 -1.05,1.23 -0.57,1.13 -1.89,0.95 -2,1.94 -0.3,0.84 0.23,0.32 -0.02,0.59 -0.91,1.31 -0.78,2.06 -0.59,1.13 -1.07,0.59 -0.47,0.66 0.31,1.7 -0.52,0.61 -0.88,0.46 0,0 -0.89,0.56 -2.03,3.62 -0.8,0.89 -0.86,0.27 -1.07,-0.07 -0.68,0.43 -0.84,1.99 0.5,1.66 -1.16,1.67 -2.21,0.57 -1.16,1.09 -0.71,1.56 0.44,1.24 -0.23,0.91 -0.53,0.05 -0.77,-0.37 -0.86,0.28 -2.14,-0.59 -1.6,0.09 -0.31,0.2 0.63,1.04 -0.11,0.32 -1.18,0.48 -0.91,0.79 -0.91,0.09 -2.03,-0.82 -0.52,0.05 -1.03,0.66 -0.16,0.38 0.12,2.08 1.43,-0.04 0.39,0.18 -0.43,1.16 0.06,0.4 1.28,0.41 -0.52,1.56 -1.07,1.23 -1.28,0.54 0.16,3.08 -0.45,0.61 -2.48,1.82 -0.91,1.27 -0.19,1.15 0.12,1.88 -0.55,3.22 -1.16,1.18 -1.23,0.56 -3.66,0.84 -1.21,-0.56 -3.14,-0.28 -0.61,-0.22 -0.57,-0.59 -1.8,-5.19 0.09,-0.64 0.78,-1.22 -0.96,-1.2 -0.2,-0.63 -0.62,-0.34 0,0.61 -0.43,0.59 -1.87,-1.09 -0.63,-0.02 -1.19,0.63 -1.34,0.16 -2.37,-1.68 -1.79,-0.54 -1.35,0.38 -2.43,1.61 -1.25,0.21 -1.96,-0.91 -0.73,-0.07 -4.37,0.25 -2.45,0.66 -1.23,-0.11 -0.71,-0.34 -0.77,-1.79 -1.8,-0.5 -0.52,-1.97 -0.59,-0.3 -1.96,0.07 -2.78,-2.94 -0.59,-0.14 -1.16,0.48 -0.29,-0.14 -0.23,-0.91 0.02,-2.04 0.32,-1.38 -0.16,-0.38 -0.96,-0.21 -0.47,-1.17 0.79,-0.89 0.09,-1.52 -1.02,-0.02 -0.27,-0.27 -0.16,-0.97 0.18,-0.96 -0.48,-0.61 -0.25,-1.99 -2.14,-1.25 0.03,-1.01 -1.05,-0.64 -0.84,-0.86 -0.14,-0.95 0.21,-1.4 -0.98,0.02 -0.39,-0.16 -0.16,-0.39 0.98,-0.72 0.04,-0.39 -0.27,-0.29 -0.84,-0.29 -1.62,-1.2 -1.59,0.54 -3.09,0 -0.32,-0.82 0.16,-0.83 1.2,-0.48 -0.38,-0.75 -0.39,-0.15 -2.09,-0.1 -0.69,0.98 -0.52,0.07 -1.59,-0.05 -0.37,-0.16 -0.19,-0.53 0,0 0.24,-2.16 -0.55,-0.59 -1.54,0.04 -0.32,-0.25 -0.12,-0.43 0.25,-0.9 -0.16,-0.39 -0.56,-0.58 -0.96,-0.07 -0.09,-0.34 0.91,-0.77 0.11,-0.43 -1.77,-1.63 0.7,-0.93 0.73,-0.39 1.94,0.05 0.79,-0.32 1.41,-3.12 0.16,-2.11 0.87,-1.4 1.59,-0.64 1.25,-0.99 1.37,-0.32 4.07,0.43 0.89,-0.2 1.48,-0.77 2.04,-0.18 1.35,0.92 0.95,0.19 0.8,-0.32 1.48,-1.31 0.45,-0.12 0.39,0.16 0.61,1.09 0.85,0.18 0.4,-0.73 -0.11,-3.19 0.16,-0.4 2.5,0.61 3.17,-1.14 1.2,0.21 0.64,-0.34 -0.05,-0.64 0.84,-1.22 0.62,-0.43 1.87,-0.2 0.63,-0.43 0.8,-1.81 2.39,-1.43 0.32,-0.66 0.2,-1.96 -0.3,-4.1 0.85,-3.71 1.41,-3.83 -0.34,-0.68 -1.73,-1.81 -1.94,-1.29 -1.2,-1.33 -0.59,-0.14 -1.19,0.23 -0.63,-0.43 -0.62,-0.21 -0.57,0.14 -0.61,-0.32 -0.46,-1.15 -0.16,-1.34 -1.02,-1.13 -0.25,-0.63 0.25,-0.68 2.48,-1 1.12,-1.24 0.59,-0.34 1.82,0.25 0.59,-0.37 -0.16,-1.22 -1.84,-3.78 -0.64,-3.28 -0.68,-10.86 0.75,-7.39 -0.62,-2.07 -0.21,-4.96 -0.42,-2.07 -0.13,-5.21 0,0 0.91,0.99 2.57,0.76 1.36,-0.02 2.69,0.89 3.66,2.04 0.75,0.05 0.52,-0.24 2.3,-3.03 0.48,-0.11 0.6,0.34 0.7,1.4 1.5,1.21 1.07,0.41 4.35,0.55 1.3,0.52 3.43,2.32 0.89,0.31 1.23,0.13 2.51,-0.89 0.98,-0.1 0.93,0.08 1.39,0.5 1.8,1 0.85,-0.18 2.7,-3.84 3.92,-4.86 8.8,-10.52 2.73,-2.68 1.97,-3.42 0.39,-0.53 0.38,-0.03 1.05,0.39 3.51,2.87 1.89,3.53 3.56,5.2 0.52,3.57 0.45,0.71 2,1.68 0.19,0.81 -0.2,1.21 -3.44,3.76 -0.5,1.28 z"
     title="Lékoumou"
     id="CG-2" />
  <path
     d="m 55.490385,694.23271 4.69,0.04 0,-21.21 -9.53,0 0,0 -3.46,-3.8 -3.39,-2.78 0.43,0.06 0.16,-0.4 -0.46,0 -1.27,-0.84 -0.77,-0.96 -5.87,-4.48 -8.33,-7.42 -9.56,-7.5 -0.59,-0.61 -0.36,-1.02 -0.91,-1.18 0.2,-0.32 -0.18,-1.27 0.23,-0.47 -0.19,-0.77 -2.09,-2.43 0.23,-0.2 -0.32,0.02 -3.76,-3.53 0.28,-0.32 -0.37,0.2 -4.0699996,-3.35 -1.57,-1 -0.43,-0.56 -2.07,-1.36 0.14,-0.45 -1.96999997,-2.21 2.83999997,-3.39 0.28,-6.21 2.66,-1.15 0.18,-1.21 -0.49,-3.82 0.06,-2.32 10.0999996,-9.95 2.96,-0.71 3.76,-0.08 1.2,-0.96 0.89,-2.18 0.83,-0.81 1.41,-2.81 1.05,-0.07 1,-0.67 1.4,0.52 5.35,-0.34 9.5,14.18 4.82,1.53 6.33,3.26 0,0 1.09,0.38 2.55,-0.1 0.73,0.37 3.46,3.49 4.55,2.78 3.14,2.49 1.82,0.57 1.91,1.04 3.75,0.27 1.98,0.46 0.91,1.22 0.66,0.43 1.82,0.5 0,2.51 0.62,0.23 1.27,-0.18 1.21,0.14 1.23,0.97 0.73,0.25 1.27,-0.02 2.64,0.95 1.98,-0.07 3.16,1.16 0.62,0.45 0.16,0.57 -0.37,1.17 0.28,0.66 1.220005,0.45 1.89,-0.02 1.37,0.84 4.75,5.66 2.82,2.86 0.41,1.25 1.1,0.9 -0.73,3.7 -0.21,2.44 0.8,2.02 3.12,4.26 1.25,0.57 1.27,0.16 5.26,-0.32 1.16,0.14 1.93,0.79 3.12,2.65 1.42,0.82 0,0 1.35,1.51 -1.55,0.13 -0.37,1.46 -2.46,-1.41 0.54,2.07 3.63,3.37 0.21,1.24 -0.42,1.16 -0.58,0.54 -1.38,-0.12 -1.58,-0.62 -2.55,-0.13 -3.25,3.03 -2.71,3.2 -2.87,-0.56 -8.61,1.93 -3.49,0.57 -0.49,0.37 -1.11,1.64 -2.41,4.17 -4.500005,6.96 -2.85,3.07 -1.82,1.54 -3.91,0.31 -0.8,-0.71 -2.47,-0.83 -0.97,1.14 -0.28,2.32 -1.04,0.81 -1.04,3.86 -13.38,10.83 -3.51,-5.24 -3.8,-4.6 0.73,-0.48 -0.04,-0.27 -0.82,0.59 -1.73,-1.95 -0.55,-1.8 z"
     title="Kouilou"
     id="CG-5" />
  <path
     d="m 526.85039,5.292714 3.85,0.18 2.81,-0.2 1.43,0.57 2.29,-1.36 0.43,0.08 0.57,0.58 3.45,0.67 0.69,0.47 2.72,0.19 0.36,0.29 0.55,1.46 0.02,1.48 0.35,0.68 0.07,1.28 1.12,2.46 0.62,-0.02 1.94,-1.94 0.98,-0.19 1.39,-1.16 0.87,-1.33 0.22,-0.75 0.42,-0.27 0.5,0.21 0.45,1.36 1.65,1.85 2.15,0.76 0.24,-0.23 0.11,-2.03 4,0.86 1.79,-0.57 1.34,0.3 1.48,0.01 2.32,0.81 1.57,1.36 0.89,1.42 0.52,2.17 0.51,1.03 1.06,0.57 2.12,-0.31 1.37,-0.46 0.81,-0.8 0.69,-1.11 0.81,-2.88 0.4,-3.15 0.25,-0.29 1.59,-0.03 1.77,0.4 2.02,-1.35 1.03,-0.32 1.11,0.68 2.59,0.85 1.21,0.89 0.38,0 0.28,-2.13 0.47,-0.41 1.43,0.76 0.53,0.09 0.41,-0.21 0.43,-0.53 0.1,-1.3 1.05,-0.66 0.61,-1.23 0.52,-0.53 0.41,0 0.34,0.13 1.89,2.2 1.78,1.19 0.7,1.14 0.58,2.66 0.57,1.18 1.4,1.49 1.61,4.38 0.71,0.35 2.57,0.13 0.39,1.84 0.05,1.73 -0.68,2.46 0.03,0.9 1.03,2.24 0.39,2.29 -0.4,2.1 -0.53,1.19 -0.31,2.42 0.65,3.24 -0.07,0.96 -1.33,4.08 -2.54,4.28 -0.8,0.72 -3.34,1.46 -0.92,0.76 -1.3,4.59 -0.98,1.45 -2.46,2.17 -0.58,0.92 -0.36,1.3 -0.86,1.21 -1.1,3.66 -0.02,2.2 0.54,1.53 -0.03,1.16 -1.34,4.42 -1.46,2.32 -0.84,0.53 -0.55,1.88 -0.84,0.94 -3.33,6.21 -0.38,1.92 -0.72,1.16 -1.44,0.89 -1.41,1.72 -2.2,1.16 -2.18,2.55 -1.12,3.509996 -0.09,1.91 -1.1,1.89 -0.13,1.48 -0.37,0.75 -1.4,1.62 -0.01,0.92 -0.4,1.11 -2.58,3.3 -3.92,3.08 -0.93,2.31 -0.28,2.93 -0.2,9.18 -0.82,2.09 -0.65,1.01 0.06,1.03 -0.51,0.96 0.15,0.47 1.4,1.34 0.18,1.72 0.5,1.76 -0.08,0.86 -1.15,2.46 -0.21,1.58 -0.61,1.74 0.01,1.82 -0.63,0.74 -0.15,2.28 0.01,1.41 0.5,1.64 0.13,1.68 1.42,4.81 0.39,2.11 -0.07,1.05 -0.72,0.88 -0.19,1.69 0.27,1.31 -0.58,2.19 -0.06,2.66 -0.42,1.47 0.13,1.49 -0.69,1.49 -1.76,2.13 -1.18,1.93 -0.89,1.94 -0.43,1.87 -2.57,5.55 -0.46,2.38 -1.05,3.46 -0.24,2.84 -1.07,5.47 -1.08,2.38 -1.1,1.65 -2.63,2.51 -1.59,2.58 -0.34,1.83 -0.49,0.55 -0.28,0.87 0.25,1.22 -0.08,1.62 -0.58,3.36 -0.02,1.39 1.34,3.91 1.8,2.68 0.32,2.86 0.67,2.27 -0.85,2.96 0.49,2.62 0.05,1.75 -0.92,0.81 -0.48,1.25 -0.09,3.85 0.24,1.46 0.82,1.8 1.51,1.91 3.25,2.99 0.88,1.8 0.4,1.94 0.22,4.69 -0.22,1.61 -0.49,1.9 -0.98,1.87 -1.54,2.16 -2.34,2.23 -3.26,2.31 -2.76,3.62 -2.8,5.87 -1.53,5.17 -0.31,3.12 -0.53,1.91 1.09,1.47 -1.97,4.37 -1.86,3.38 -0.89,2.67 -0.17,2.32 0.33,3.42 -0.04,2.78 0.56,3.46 1.26,3.52 0.36,5.08 -0.12,1.36 -0.99,3.62 -0.78,4.96 -0.75,3.05 -0.78,2.19 -1.35,2.26 -2.35,2.43 -1.38,2.53 -6.92,8.38 0,0 -1.64,-0.73 -3.86,0.09 -18.5,-0.52 -1.57,0.13 -0.16,-1.51 0.36,-1.31 -0.27,-0.86 -0.75,-0.38 -1.84,0.43 -0.35,-0.23 -0.11,-3.39 0.93,-3.01 -0.61,-2.19 -1.05,-2.28 0.3,-0.84 0.75,-0.38 -0.18,-0.41 0.34,-0.77 1,-0.65 0.14,-1 -0.25,-1.96 -0.62,-1.63 -1.34,-0.88 -0.71,-0.98 -0.73,-0.38 -0.5,-0.07 -0.79,0.32 -0.98,1.29 -0.5,-0.09 -0.43,-1.22 0.18,-1.83 2.21,-2.81 0.59,-1.69 -0.32,-0.77 -0.73,-0.41 -1.57,0.11 -0.8,-0.36 -0.43,-1.22 0.5,-0.61 1.94,-0.88 1.23,-0.97 0.06,-0.5 -0.22,-0.34 -1.51,-0.74 -0.2,-2.01 0.2,-3.08 -0.15,-1.49 0.34,-0.77 1.68,-1.11 0.48,-0.65 0.36,-1.9 -0.22,-1.45 -1.1,-2.23 -0.54,-2.24 0.2,-3.73 -0.55,-1.11 0.21,-2.62 -0.39,-1.29 -1.18,-1.63 -0.02,-0.52 0.61,-1.04 3.44,-2.12 0.09,-0.95 -0.68,-1.56 -0.09,-1.45 -0.98,-2.37 0,-0.56 0.68,-0.41 2,-0.2 0.46,-0.68 -0.03,-0.5 -2.23,-4 -3.05,-4.43 -2.61,-3.25 -1.28,-2.42 -1.84,-1.09 -2.09,-0.56 0,0 -2.21,-2.47 -4.07,-5.38 -5.94,-7.25 -11.4,-15.06 -2.37,-2.82 -2.16,-3.53 -1.05,-2.62 -0.25,-1.33 0.23,-4.5 -0.09,-3.66 1.11,-1.79 1.28,-1.26 3.78,-1.88 1.02,-1.18 0.32,-1.87 -0.8,-3.24 0.55,-1.19 1.8,-2.56 -0.5,-2.64 -1.46,-4.41 -0.07,-2.51 -0.39,-0.59 -1.2,-0.68 -1.07,-1.17 -1,-2.6 -0.23,-1.86 -1.23,-1.85 -0.27,-1.45 0.75,-2.96 -0.52,-0.59 -1.19,-0.22 -0.45,-0.59 0.41,-1.18 2.18,-2.6 0.55,-1.24 -1.34,-6.53 0.54,-1.2 -0.16,-0.59 -0.73,-0.7 -0.77,-1.27 0,-0.65 1.37,-1.81 1.06,-3.76 2.53,-6.22 -0.16,-0.65 -1.09,-1.11 -1.09,-5.15 -0.05,-0.75 0.59,-1.24 -0.57,-1.27 0.19,-2.42 -0.66,-1.95 -0.6,-4.93 0.16,-2.05 0.55,-1.93 0.59,-0.45 1.82,-0.61 0.09,-1.83 0.25,-0.7 -0.29,-0.59 -1.23,-0.66 -0.62,-1.76 -0.27,-5.54 0.77,-4.53 -0.38,-2.76 0.32,-3.19 -0.21,-0.58 -2.34,-3.01 -2.82,-5.429996 -0.62,-0.46 -3.07,-0.95 -0.57,-0.56 -0.64,-0.2 -1.75,0.86 -1.86,0.56 -0.66,-0.02 -0.59,-0.45 -0.05,-3.76 -0.36,-0.59 -1.35,-0.7 -1.38,-2.38 -2.99,-1.42 -0.4,-1.34 0.02,-1.17 0.18,-0.66 0.59,-0.38 0.34,-0.59 -0.11,-0.63 -1.57,-2.99 -1.57,-0.62 0,0 5.52,-10.3 0.38,-3.11 -0.32,-0.6 -2.51,-1.74 0.25,-7.75 0.81,-1.38 3.39,-3.62 -0.47,-1.12 -1.39,-1.64 -0.78,-1.7 -0.54,-3.21 0.26,-0.92 1.92,-2.83 0.53,-1.52 1.6,-2.36 -0.67,-2.38 0.36,-1.87 1.5,-1.95 0.34,-1.07 0.48,-5.98 1.12,-4.99 1.14,-1.63 3.03,-2.6 2.01,-1.03 4.43,-0.59 2.33,-0.66 3.94,1.12 1.47,1.78 1.05,0.1 1.5,0.79 0.74,-0.07 1.03,-1.28 0.08,-0.75 -0.39,-1.03 0.34,-0.69 1.25,-0.07 0.58,0.52 1.15,0.16 1.86,-0.17 2,-0.63 1.54,1.58 0.47,0.11 1.31,-0.64 0.55,0.02 0.39,0.62 0.13,0.81 1.54,1.26 0.47,0.02 1.41,-1.38 0.45,-1.45 1.75,-0.39 1.54,-0.63 1.23,0.11 3.59,-1.29 1.24,0.8 0.37,-0.02 5.13,-1.11 0.73,-0.34 -0.05,-1.8 0.4,-0.43 3.79,-1.58 0.47,0.09 0.92,0.79 2.7,1.17 1.14,-0.16 2.59,-4.46 0.9,-0.64 2.93,-0.89 0.83,-1.09 1.88,-0.76 1.44,0.08 1.22,0.83 3.04,0.49 1.14,1.36 2.46,0.89 0.82,1.2 z"
     title="Likouala"
     id="CG-7" />
  <path
     d="m 337.04039,268.50271 -0.36,1.65 0.16,0.38 0.41,0.18 1,-0.65 0.57,0.02 2,0.79 2.52,0.32 0.78,-0.32 1.2,-1.06 2.96,1.02 1,-0.12 2.01,0.7 0.56,0.57 0.48,0.05 1.21,-0.48 0.95,0.18 1.16,1.06 1.39,0.3 0.69,-0.43 0.91,-1.38 1.63,-1.15 0.69,-2.11 0.63,-1.06 1.87,-0.34 1.3,-0.92 1.91,-0.32 0.95,-0.7 1.41,0.07 1.39,-0.27 1.07,-0.59 0.84,0.16 1.25,-0.32 0.66,0.45 0.21,0.91 0.5,0.63 1,0 2.16,-1.2 0.89,0.23 0.48,0.63 3.05,-0.36 2.77,0.65 0.5,0.61 1.16,0.52 0.46,0.68 1,0.66 2.84,1.1 0.55,0.55 0.18,0.4 -0.04,2.11 0.45,0.7 1.5,0.72 1.69,-0.29 0.82,0.83 3.39,1.09 1.07,1.2 1.04,0.61 1.98,3.63 -0.11,5.09 0.23,0.88 1.36,0.84 0.44,0.7 0.15,1.49 -0.18,2.1 -0.23,0.27 1.57,0.03 1.85,0.97 1.45,0.25 2.48,-1.43 0.94,-0.02 1.77,1.58 1.57,0.66 1.46,1.92 0.36,0.16 1.71,-0.55 1.39,0.25 0.57,1.86 0.95,0.81 32.08,-16.09 0.38,0.13 5.27,-3.03 6.1,-2.87 13.81,-7.09 0,0 2.09,0.56 1.84,1.09 1.28,2.42 2.61,3.25 3.05,4.43 2.23,4 0.03,0.5 -0.46,0.68 -2,0.2 -0.68,0.41 0,0.56 0.98,2.37 0.09,1.45 0.68,1.56 -0.09,0.95 -3.44,2.12 -0.61,1.04 0.02,0.52 1.18,1.63 0.39,1.29 -0.21,2.62 0.55,1.11 -0.2,3.73 0.54,2.24 1.1,2.23 0.22,1.45 -0.36,1.9 -0.48,0.65 -1.68,1.11 -0.34,0.77 0.15,1.49 -0.2,3.08 0.2,2.01 1.51,0.74 0.22,0.34 -0.06,0.5 -1.23,0.97 -1.94,0.88 -0.5,0.61 0.43,1.22 0.8,0.36 1.57,-0.11 0.73,0.41 0.32,0.77 -0.59,1.69 -2.21,2.81 -0.18,1.83 0.43,1.22 0.5,0.09 0.98,-1.29 0.79,-0.32 0.5,0.07 0.73,0.38 0.71,0.98 1.34,0.88 0.62,1.63 0.25,1.96 -0.14,1 -1,0.65 -0.34,0.77 0.18,0.41 -0.75,0.38 -0.3,0.84 1.05,2.28 0.61,2.19 -0.93,3.01 0.11,3.39 0.35,0.23 1.84,-0.43 0.75,0.38 0.27,0.86 -0.36,1.31 0.16,1.51 1.57,-0.13 18.5,0.52 3.86,-0.09 1.64,0.73 0,0 -5,6.49 -8.8,8.41 -3.6,3.92 -0.91,0.71 -2.83,1.22 -3.33,2.16 -1.42,0.52 -4.49,0.09 -1.51,0.27 -2.78,1.01 -3.43,2.07 -3.87,2.74 -4.16,1.62 -1.12,0.68 -6.57,5.06 -1.22,1.45 -2.94,2.62 -4.09,5.47 -4.45,8.32 -1.25,2.99 -4.82,9.81 0,0 -3.59,0 -1.41,0.25 -0.91,-0.2 -0.11,-0.91 0.75,-1.51 0.16,-1.88 -1.87,0.25 -0.77,-0.9 -0.8,-0.37 -1.91,0.39 -1.98,-0.09 -0.66,0.45 -0.64,1.06 -0.38,0.16 -0.46,0 -1.02,-0.7 -0.5,0.07 -0.55,0.54 -2.09,-0.07 -0.43,-0.13 -0.12,-0.43 1.05,-0.61 -0.02,-0.5 -0.35,-0.23 -2.13,-0.13 -1.12,-0.59 -0.11,-0.45 0.27,-0.25 0.93,-0.23 -0.41,-0.72 -1.61,0.59 -0.5,-0.07 -0.91,-0.79 -0.46,-0.09 -1.07,0.58 -0.54,-0.56 -0.82,-2.42 -1.32,-2.62 -0.3,-3.03 -0.89,-1.9 -0.27,-0.32 -0.89,-0.2 -0.66,-1.58 -1.13,-0.57 -0.07,-2.58 -0.27,-0.27 -0.51,-0.07 -1.16,1.11 -1.2,-1.04 -0.53,0.07 -0.91,0.77 -0.5,-0.07 -0.38,-0.72 0.18,-0.84 -1.07,-0.63 -0.14,-0.95 -0.29,-0.27 -1.69,0.2 -0.77,-0.36 -0.71,-1.49 -1.68,-0.59 -1.46,-1.36 -0.5,-0.06 -1.2,0.47 -0.43,-0.11 -0.21,-0.32 0,-1.02 -0.84,0.07 -0.3,0.25 -0.32,-0.11 -0.72,-0.95 -1.35,-0.23 -0.56,-0.59 -0.96,-0.04 -1.78,0.43 -1.36,-0.93 -1.07,0.61 -1.23,-0.25 -0.45,-0.68 0.2,-1.49 -0.32,-1.35 -0.34,-0.23 -0.39,0.16 -0.52,1.17 -0.45,-0.13 -0.98,-2.33 -0.84,-0.86 -0.39,-0.18 -1.53,0.04 -1.2,-1.01 -1.57,0.09 -0.57,-0.57 -0.16,-0.95 -0.43,-0.67 -1.75,-0.53 -1.82,-0.97 -1.46,-0.25 -1.68,0.34 -0.44,-1.26 -1.38,-1.4 0.15,-0.95 -0.66,-1.56 0.6,-1.11 -0.55,-1.02 -0.05,-1.06 -5.59,-0.63 -2.26,-0.59 -0.95,-0.63 -0.84,0.27 -0.89,-0.23 -2.41,0.34 -1.21,1.45 -0.39,0.18 -2.43,0.25 -1.5,-0.75 -0.39,0.02 -1.48,1.34 -0.84,0.27 -3,0.25 -1.41,0.81 -0.35,0.77 0.21,1.9 -0.25,0.9 -2.39,2.53 -0.8,0.32 -1.84,-0.32 -0.34,0.23 -1.21,2.71 -1.98,0.82 -1.36,0.88 -2.09,0.7 -2.78,2.24 -0.82,1.44 -0.52,1.74 -1.64,1.16 -1.89,2.01 -0.52,1.18 -0.25,1.44 -1.21,2.17 -0.43,2.94 -0.41,1.29 0,0 -0.71,1.02 0,0 -1.18,1.58 -0.89,5.74 -0.84,0.82 -1.75,1.04 -0.41,0.7 -0.3,1.42 -2.84,2.74 -1.39,2.55 -2.93,2.04 -0.62,-0.21 -2.57,0.7 -3.14,-0.33 -2.07,0.47 -4.57,2.19 -4.24,2.99 -0.54,0.63 -0.85,1.95 -0.31,2.51 -2.01,2.98 -1.86,0.9 -0.57,0.62 -1.23,2.75 -1.77,1.72 -0.87,1.88 -0.27,1.2 -2.64,3.82 -1.57,1.83 -1.94,1.61 -1.75,1.04 -1.29,0 -0.6,0.47 -0.84,1.9 -1.14,1.29 -4.32,0.88 -2.05,-0.18 -1.86,-0.43 -0.62,-0.4 -0.34,-0.62 -0.36,-1.98 0.02,-3.78 0.34,-3.57 0,0 1.99,-1.61 0.2,-1.08 -0.1,-1.22 0.98,-3.24 0.57,-6.13 0.48,-0.72 1.25,-1.01 0.76,-1.21 -0.3,-0.75 -0.71,-0.75 -2.99,-1.58 -0.86,-0.81 -0.87,-1.2 -0.55,-1.63 0.2,-0.67 0.6,-0.38 7.32,-3.62 0.95,-1.54 0.03,-1.07 -0.28,-1.04 -1.48,-2.49 -0.13,-0.59 0.3,-0.85 2.64,-2.16 0.26,-0.62 -0.06,-0.86 -0.43,-0.63 -3.14,-2.52 -0.41,-0.89 0.06,-1.97 0.54,-1.4 1.91,-3.27 0.22,-1.91 0,0 8.5,-0.07 5.05,-2.26 9.1,-4.77 3.28,-2 3.38,-2.67 6.48,-3.86 8.46,0.89 1.11,-0.84 1.21,-3.17 2.77,-3.06 4.02,-3.46 8.95,-11.19 -10.88,-19.72 1.75,-4.08 0.7,-0.94 2.88,-10.6 0.25,-13.55 -7.33,-4.27 -2.52,-4.27 -2.78,-9.78 0.5,-1.81 4.07,-3.21 5.05,-1.76 2.28,0.5 2.27,-2.26 3.25,0.22 2.56,-0.72 2.53,1.51 2.78,0 2.78,-1.76 2.52,-2.76 -5.3,-7.28 -4.8,-2.26 -5.31,-3.01 -1.3,-1.41 1.75,-0.9 3.42,-2.39 0.81,-1.56 z"
     title="Cuvette"
     id="CG-8" />
  <path
     d="m 131.46039,455.88271 4.06,2.63 1.03,1.1 2.28,6.03 0.51,3.65 0.78,3.35 2.3,3.07 1.42,1.45 2.95,2.11 2.63,1.16 0.69,0.58 1.51,2.24 0.68,1.78 0.07,1.23 -0.64,3.86 0.24,0.6 0,0 0.13,5.21 0.42,2.07 0.21,4.96 0.62,2.07 -0.75,7.39 0.68,10.86 0.64,3.28 1.84,3.78 0.16,1.22 -0.59,0.37 -1.82,-0.25 -0.59,0.34 -1.12,1.24 -2.48,1 -0.25,0.68 0.25,0.63 1.02,1.13 0.16,1.34 0.46,1.15 0.61,0.32 0.57,-0.14 0.62,0.21 0.63,0.43 1.19,-0.23 0.59,0.14 1.2,1.33 1.94,1.29 1.73,1.81 0.34,0.68 -1.41,3.83 -0.85,3.71 0.3,4.1 -0.2,1.96 -0.32,0.66 -2.39,1.43 -0.8,1.81 -0.63,0.43 -1.87,0.2 -0.62,0.43 -0.84,1.22 0.05,0.64 -0.64,0.34 -1.2,-0.21 -3.17,1.14 -2.5,-0.61 -0.16,0.4 0.11,3.19 -0.4,0.73 -0.85,-0.18 -0.61,-1.09 -0.39,-0.16 -0.45,0.12 -1.48,1.31 -0.8,0.32 -0.95,-0.19 -1.35,-0.92 -2.04,0.18 -1.48,0.77 -0.89,0.2 -4.07,-0.43 -1.37,0.32 -1.25,0.99 -1.59,0.64 -0.87,1.4 -0.16,2.11 -1.41,3.12 -0.79,0.32 -1.94,-0.05 -0.73,0.39 -0.7,0.93 1.77,1.63 -0.11,0.43 -0.91,0.77 0.09,0.34 0.96,0.07 0.56,0.58 0.16,0.39 -0.25,0.9 0.12,0.43 0.32,0.25 1.54,-0.04 0.55,0.59 -0.24,2.16 0,0 -2.17,1.91 -0.87,1.84 -0.11,1.22 0.98,5.41 1.27,2.38 -0.16,0.59 -1.18,0.68 -0.09,0.63 0.36,0.64 0.37,1.9 1.32,1.81 -0.62,0.57 -1.18,0.25 -0.59,0.38 -0.82,1.25 -1.32,0.72 -0.09,0.59 0.25,0.57 3.09,1.77 2.55,1.94 2.64,3.7 2.05,3.8 4.39,5.03 4.32,3.22 2.32,2.45 2.07,3.9 1.44,1.9 3.61,5.82 1.05,2.04 1.48,4.26 1.46,2.43 3.16,0.57 0.59,0.59 0.78,2.33 0.59,0.23 1.95,-0.23 1.32,0.52 1.89,-0.54 0.59,0.18 1.16,0.91 2.37,-0.32 1.89,1.09 1.2,-0.25 1.3,0.81 1.91,-0.38 1.16,0.32 0.57,0.68 1.55,3.1 2.28,3.18 0.59,0.38 0.27,0.7 -0.09,1.21 0.39,0.63 1.25,0.64 0.25,1.27 0.36,0.58 0.91,1.16 1.21,0.68 0.38,0.66 0.05,2.47 0.77,1.29 2.6,0.46 6.1,4.31 3.04,1.4 2.48,1.61 0.76,1.82 0.3,5.78 0,0 -1.15,0.04 -1.15,-0.6 -3.27,1.3 -1.16,1 -0.26,0.49 0.1,1.02 -0.53,0.81 -3.23,-0.56 -1.94,0.44 -0.3,0.47 1.12,1.43 0.27,1.1 -0.15,0.94 -0.45,0.23 -2.44,-2.55 -1.13,-0.82 -0.68,-0.96 0.13,-1.28 0.55,-0.32 -0.43,-1.61 -0.4,-0.34 0.34,-0.56 -0.24,-0.86 -0.47,-0.61 -1.09,-0.09 -0.76,-0.86 -0.43,-0.14 -1.03,0.32 -1.04,-0.5 -0.52,0.3 -0.88,-0.36 -0.34,-0.58 -0.7,-0.38 -0.43,0.08 -0.94,-1.03 -0.34,-0.72 -1.17,-0.96 0.06,-0.62 0.79,-0.13 -0.71,-0.79 -0.79,-1.91 -1.13,-1.32 -1.9,-0.88 -0.77,-0.96 -0.66,-0.37 -0.34,-0.79 -1.3,-1.06 -0.32,-0.6 -2.91,-2.65 -0.52,-0.3 -1,0.17 -0.98,1 0.32,0.34 -0.34,0.58 0.25,0.52 -0.28,0.25 0.06,2.03 -0.26,0 -3.15,-2.23 -3.89,-2.2 -0.81,-1.07 -1.42,-3.08 -6.55,-6.03 -0.26,-4.75 -7.36,0.82 -2.64,-2.94 0,0 -1.42,-0.82 -3.12,-2.65 -1.93,-0.79 -1.16,-0.14 -5.26,0.32 -1.27,-0.16 -1.25,-0.57 -3.12,-4.26 -0.8,-2.02 0.21,-2.44 0.73,-3.7 -1.1,-0.9 -0.41,-1.25 -2.82,-2.86 -4.75,-5.66 -1.37,-0.84 -1.89,0.02 -1.220005,-0.45 -0.28,-0.66 0.37,-1.17 -0.16,-0.57 -0.62,-0.45 -3.16,-1.16 -1.98,0.07 -2.64,-0.95 -1.27,0.02 -0.73,-0.25 -1.23,-0.97 -1.21,-0.14 -1.27,0.18 -0.62,-0.23 0,-2.51 -1.82,-0.5 -0.66,-0.43 -0.91,-1.22 -1.98,-0.46 -3.75,-0.27 -1.91,-1.04 -1.82,-0.57 -3.14,-2.49 -4.55,-2.78 -3.46,-3.49 -0.73,-0.37 -2.55,0.1 -1.09,-0.38 0,0 1,0.23 0.67,-0.25 5.87,-5.93 -1.44,-2.2 -5,-3.46 -1.52,-3.96 0,-1.32 2.47,-4.34 3.41,-8.48 0.94,-1.51 3.61,-2.08 0,-2.82 -7.39,-1.51 -5.31,-4.72 -7.96,-3.77 -1.14,-0.75 1.9,-4.15 3.98,0.19 4.74,-6.22 -9.86,-10.93 -3.56,-6.43 -2.44,-1.13 -1.11,-0.81 -0.85,2.71 -1.13,1.14 -1.9,0.37 -1.14,-0.37 -0.56,-4.9 5.5,-8.13 0.54,-0.5 1.13,-0.24 0.61,-4.68 -0.03,-2.13 -0.58,-1.16 -0.69,-2.5 -0.41,-0.94 -2.16,-2.69 0.2,-2.21 -0.2,-4.61 -0.77,-3.08 -0.45,-5.65 0.48,-0.41 0.75,0.04 2.16,1.53 3.63,1.13 1.65,0.76 4.15,5.39 1.07,-0.29 1.45,-1.25 1.35,-2.02 2.03,-1.34 3.48,-0.68 5.08,-0.15 2.83,-1.39 1.8,-0.11 0.71,0.2 1.41,0.99 2.87,2.57 1.39,2.75 35.080005,0.21 0.26,-0.75 -0.36,-2.72 0.37,-0.95 1.2,-1.75 0.69,-1.65 -0.21,-0.62 -2.35,-3.2 -0.07,-0.93 2.87,-4.41 -0.4,-2.26 -1.35,-2.23 0.93,-3.48 0.13,-1.69 -0.31,-0.69 -2.12,-2.23 -1.54,-3.29 -0.65,-6.14 -1.9,-5.61 0.11,-0.38 1.37,0 0.76,0.35 1.11,1.16 2.93,1.05 1.17,-0.04 0.7,-0.36 0.56,-0.94 0.48,-1.53 0.45,-0.57 0.82,-0.07 2.86,-2.12 3.79,-0.5 4.3,0.5 2.27,2.65 2.48,1.34 z"
     title="Niari"
     id="CG-9" />
  <path
     d="m 220.16039,589.75271 5.07,1.76 0.98,0.14 1.77,1.33 0.62,0.16 4.46,-0.23 1.82,-0.45 0.54,-1.2 3.89,-4.48 2.96,-1.95 0.41,-1.93 0.61,-0.24 1.39,1.72 1.89,0.74 1.16,0.77 0.68,0.28 1.98,-0.23 0.62,0.25 1.09,1.76 0.59,-0.02 0.41,0.61 0.66,1.86 1.14,1 -0.27,1.72 0.31,0.63 0.21,1.86 1.14,1 0.43,1.1 -1.14,0.25 -3.07,1.43 -0.14,1.45 -0.79,0.34 -1.03,0.09 -2.07,-0.09 -0.36,0.2 0,0.46 2.32,2.74 0.36,1.86 0.41,0.72 2.12,1.27 0.57,2.76 1.39,1.43 0.11,0.88 -0.39,1.36 0.19,0.41 0.5,0.61 0.84,0.3 1.16,1.06 1.09,0.09 0.73,0.41 0.57,1.63 0.91,0.79 0.23,0.8 -0.1,0.95 0.94,1.86 -0.23,0.34 -1.66,0.58 -0.27,0.3 -0.19,0.99 -0.59,0.55 -0.84,0.29 -0.11,1 -0.6,0.54 -2.18,-0.65 -1.21,0.47 -0.84,-0.27 -1.68,-1.15 -0.84,0.27 -0.57,0.54 -0.25,1.45 -0.53,0.61 -1.5,1.34 -1.82,0.43 -0.11,1 -1.59,0.65 -0.23,0.32 -0.78,2.06 0.5,0.64 0.1,1.45 0.77,0.93 0.09,1.02 -0.41,0.7 -0.98,0.73 -0.18,1.29 -0.89,0.09 -0.93,-0.25 -2.3,0.47 -1.09,1.18 -1.89,1.48 -0.77,1.56 -0.8,0.91 -4.55,1.47 -1.09,0.61 -0.75,0.93 -0.66,2.4 -0.21,1.89 -0.38,1.2 0.25,1.97 -0.19,1.29 -1.11,1.86 -0.66,2.47 -1.12,1.18 -0.91,4.09 0,0 -1.4,-0.59 -0.54,-0.54 -0.78,-2.23 -1.19,-1.56 -2.75,-2.09 -3.08,0.21 -1.57,1.61 -2.26,0.49 -0.5,1.11 -0.05,1.9 0.86,2.27 0.94,1.35 -0.14,1.48 0.15,0.62 -1.21,2.88 -1.67,2.11 0.42,1.09 -0.88,1.54 0.39,1.99 1.31,0.5 0.16,1.13 -0.24,1.11 -0.49,0.36 -0.58,0.04 -2.2,-0.43 -0.36,0.25 -0.03,0.62 1.15,1.8 -0.69,2.2 -1.39,-0.47 -1.92,-1.8 -1.19,-0.08 -0.37,0.22 -1.91,3.16 -0.5,1.75 -0.56,0.92 -1.29,0.56 0,0 -0.3,-5.78 -0.76,-1.82 -2.48,-1.61 -3.04,-1.4 -6.1,-4.31 -2.6,-0.46 -0.77,-1.29 -0.05,-2.47 -0.38,-0.66 -1.21,-0.68 -0.91,-1.16 -0.36,-0.58 -0.25,-1.27 -1.25,-0.64 -0.39,-0.63 0.09,-1.21 -0.27,-0.7 -0.59,-0.38 -2.28,-3.18 -1.55,-3.1 -0.57,-0.68 -1.16,-0.32 -1.91,0.38 -1.3,-0.81 -1.2,0.25 -1.89,-1.09 -2.37,0.32 -1.16,-0.91 -0.59,-0.18 -1.89,0.54 -1.32,-0.52 -1.95,0.23 -0.59,-0.23 -0.78,-2.33 -0.59,-0.59 -3.16,-0.57 -1.46,-2.43 -1.48,-4.26 -1.05,-2.04 -3.61,-5.82 -1.44,-1.9 -2.07,-3.9 -2.32,-2.45 -4.32,-3.22 -4.39,-5.03 -2.05,-3.8 -2.64,-3.7 -2.55,-1.94 -3.09,-1.77 -0.25,-0.57 0.09,-0.59 1.32,-0.72 0.82,-1.25 0.59,-0.38 1.18,-0.25 0.62,-0.57 -1.32,-1.81 -0.37,-1.9 -0.36,-0.64 0.09,-0.63 1.18,-0.68 0.16,-0.59 -1.27,-2.38 -0.98,-5.41 0.11,-1.22 0.87,-1.84 2.17,-1.91 0,0 0.19,0.53 0.37,0.16 1.59,0.05 0.52,-0.07 0.69,-0.98 2.09,0.1 0.39,0.15 0.38,0.75 -1.2,0.48 -0.16,0.83 0.32,0.82 3.09,0 1.59,-0.54 1.62,1.2 0.84,0.29 0.27,0.29 -0.04,0.39 -0.98,0.72 0.16,0.39 0.39,0.16 0.98,-0.02 -0.21,1.4 0.14,0.95 0.84,0.86 1.05,0.64 -0.03,1.01 2.14,1.25 0.25,1.99 0.48,0.61 -0.18,0.96 0.16,0.97 0.27,0.27 1.02,0.02 -0.09,1.52 -0.79,0.89 0.47,1.17 0.96,0.21 0.16,0.38 -0.32,1.38 -0.02,2.04 0.23,0.91 0.29,0.14 1.16,-0.48 0.59,0.14 2.78,2.94 1.96,-0.07 0.59,0.3 0.52,1.97 1.8,0.5 0.77,1.79 0.71,0.34 1.23,0.11 2.45,-0.66 4.37,-0.25 0.73,0.07 1.96,0.91 1.25,-0.21 2.43,-1.61 1.35,-0.38 1.79,0.54 2.37,1.68 1.34,-0.16 1.19,-0.63 0.63,0.02 1.87,1.09 0.43,-0.59 0,-0.61 0.62,0.34 0.2,0.63 0.96,1.2 -0.78,1.22 -0.09,0.64 1.8,5.19 0.57,0.59 0.61,0.22 3.14,0.28 1.21,0.56 3.66,-0.84 1.23,-0.56 1.16,-1.18 0.55,-3.22 -0.12,-1.88 0.19,-1.15 0.91,-1.27 2.48,-1.82 0.45,-0.61 -0.16,-3.08 1.28,-0.54 1.07,-1.23 0.52,-1.56 -1.28,-0.41 -0.06,-0.4 0.43,-1.16 -0.39,-0.18 -1.43,0.04 -0.12,-2.08 0.16,-0.38 1.03,-0.66 0.52,-0.05 2.03,0.82 0.91,-0.09 0.91,-0.79 1.18,-0.48 0.11,-0.32 -0.63,-1.04 0.31,-0.2 1.6,-0.09 2.14,0.59 0.86,-0.28 0.77,0.37 0.53,-0.05 0.23,-0.91 -0.44,-1.24 0.71,-1.56 1.16,-1.09 2.21,-0.57 1.16,-1.67 -0.5,-1.66 0.84,-1.99 0.68,-0.43 1.07,0.07 0.86,-0.27 0.8,-0.89 2.03,-3.62 z"
     title="Bouenza"
     id="CG-11" />
  <path
     d="m 342.80039,645.32271 -2.96,-2.95 -4.74,-0.19 -3.56,0.39 -1.97,3.15 -0.2,3.54 0.99,3.54 2.57,1.77 2.25,-0.39 0,0 -7.59,9.44 -4.53,3.09 -2.3,2.36 -3.11,2.5 -1.22,0.55 -0.46,0.75 -3.07,3.06 -0.18,0.96 -0.79,0.92 -5.75,5.36 -0.73,1.36 -0.57,1.81 -1.72,2.84 -0.51,2.29 -0.9,0.7 -0.26,1.34 -0.93,1.28 -1.41,0.97 -1.12,0.55 -1,-0.02 -5.02,2.69 -4.01,3.38 -3.62,0.49 -2.81,-1.28 -1.64,-0.33 -2.81,-3.11 -4.03,-0.6 -1.52,-0.81 -1.41,0.65 -0.47,0.87 -0.86,0.75 -1.95,0.91 -0.47,0.7 -0.88,0.15 -0.34,-0.3 -0.23,-1.57 -0.51,-1.11 0.08,-2.52 -0.23,-1.93 0.37,-0.89 0.9,-1.02 -0.72,-1.38 0.15,-3.44 1.45,-4.2 0.14,-1.43 -0.32,-0.78 -0.91,-0.71 -2.35,0.08 -0.36,-0.43 -0.25,-1.39 0.3,-1.6 -2,-1.06 -0.64,-1.54 0.1,-0.65 0.68,-1.02 1.87,-1.53 1.61,-0.81 0.38,0.16 0.48,-0.25 0.17,0.46 0.81,-0.45 0.66,0.51 0.27,-1.75 -0.18,-0.45 0.44,-0.08 0.34,-0.77 1.43,-1.05 0.79,-1.96 0.38,-0.01 0.65,-0.72 -1.97,-0.76 -1.59,-1.24 -4.21,-5.82 -0.06,-0.32 1.35,-1.15 0.96,-2.8 -0.13,-0.53 -0.49,-0.26 -0.57,0.08 -0.65,0.42 -2.1,0.34 -0.32,0.32 -0.09,1.36 -0.28,0.34 -3.02,0.01 -1.03,1.04 -0.62,0.04 -0.4,-0.34 -0.5,0.13 -0.77,0.91 -1.16,0.62 -0.82,1.15 -1.8,1.02 -0.87,-0.01 -1.74,1.49 -2,0.91 -0.9,0.05 -0.7,-0.54 -0.47,0 -4.43,1.41 -1.24,-0.43 -0.6,0.12 -2.34,0.81 -0.94,0.76 -0.88,-0.13 -0.68,0.76 -1.36,3.25 -2.61,3.05 -0.77,0.57 -1.28,0.02 -2.03,-0.72 -1.54,-0.1 0,0 0.91,-4.09 1.12,-1.18 0.66,-2.47 1.11,-1.86 0.19,-1.29 -0.25,-1.97 0.38,-1.2 0.21,-1.89 0.66,-2.4 0.75,-0.93 1.09,-0.61 4.55,-1.47 0.8,-0.91 0.77,-1.56 1.89,-1.48 1.09,-1.18 2.3,-0.47 0.93,0.25 0.89,-0.09 0.18,-1.29 0.98,-0.73 0.41,-0.7 -0.09,-1.02 -0.77,-0.93 -0.1,-1.45 -0.5,-0.64 0.78,-2.06 0.23,-0.32 1.59,-0.65 0.11,-1 1.82,-0.43 1.5,-1.34 0.53,-0.61 0.25,-1.45 0.57,-0.54 0.84,-0.27 1.68,1.15 0.84,0.27 1.21,-0.47 2.18,0.65 0.6,-0.54 0.11,-1 0.84,-0.29 0.59,-0.55 0.19,-0.99 0.27,-0.3 1.66,-0.58 0.23,-0.34 -0.94,-1.86 0.1,-0.95 -0.23,-0.8 -0.91,-0.79 -0.57,-1.63 -0.73,-0.41 -1.09,-0.09 -1.16,-1.06 -0.84,-0.3 -0.5,-0.61 -0.19,-0.41 0.39,-1.36 -0.11,-0.88 -1.39,-1.43 -0.57,-2.76 -2.12,-1.27 -0.41,-0.72 -0.36,-1.86 -2.32,-2.74 0,-0.46 0.36,-0.2 2.07,0.09 1.03,-0.09 0.79,-0.34 0.14,-1.45 3.07,-1.43 1.14,-0.25 -0.43,-1.1 -1.14,-1 -0.21,-1.86 -0.31,-0.63 0.27,-1.72 -1.14,-1 -0.66,-1.86 -0.41,-0.61 -0.59,0.02 -1.09,-1.76 -0.62,-0.25 -1.98,0.23 -0.68,-0.28 -1.16,-0.77 -1.89,-0.74 -1.39,-1.72 -0.61,0.24 -0.41,1.93 -2.96,1.95 -3.89,4.48 -0.54,1.2 -1.82,0.45 -4.46,0.23 -0.62,-0.16 -1.77,-1.33 -0.98,-0.14 -5.07,-1.76 0,0 0.88,-0.46 0.52,-0.61 -0.31,-1.7 0.47,-0.66 1.07,-0.59 0.59,-1.13 0.78,-2.06 0.91,-1.31 0.02,-0.59 -0.23,-0.32 0.3,-0.84 2,-1.94 1.89,-0.95 0.57,-1.13 1.05,-1.23 1.59,-1.08 1.11,-2.27 2.01,-1.38 0.16,-0.95 0.93,-1.34 2.16,-0.63 0.14,-0.45 -0.5,-1.07 1.66,-1.22 0.59,-2.22 1.43,-0.81 -0.09,-2.04 1.41,-3.1 1.44,-5.37 1.04,-1.76 2.21,-1.72 4.05,-1.61 0.79,-0.7 0,0 0.3,0.18 0.93,2.17 0.8,0.75 1.66,0.32 1.64,-0.3 2.3,0 0.59,1.09 1.14,0.57 1.8,-0.43 3.04,-0.16 1.03,0.7 0.82,1.4 0.88,0.77 1.92,0.39 1.27,0.97 0.91,-0.11 0.34,-0.21 1.28,-2.1 1.2,-1.04 1.62,-2.9 2,-1.27 2.23,-2.26 1.77,-1.13 0.94,-1.9 2.61,-1.86 2.05,-1.88 1.57,-2.4 2.6,-0.74 2.16,-1.75 0.77,-2.06 -0.07,-2.15 0.23,-0.33 0.57,-0.55 2.32,-1.08 1.09,-1.18 1.3,-0.93 1.32,-0.36 0.96,0.18 0.97,1.81 0.62,0.52 0.23,0.88 -0.32,1.41 1.61,1.76 0.12,3.65 0.63,2.69 -0.36,1.33 0.32,0.8 1.25,0.47 2.21,-0.04 2.2,-0.57 1.76,-1.04 0.5,-0.07 3.02,0.95 1.37,-0.32 1.59,0.03 0.73,0.38 0.54,1.13 1.23,1.02 0.41,2.94 0.48,1.25 0.5,0.61 2.76,0.66 0.88,1.24 0.96,0.16 1.68,1.15 1.12,0.25 3.61,0.23 2.55,-0.82 1.64,0.07 3.32,1.22 2.82,-0.52 5.67,-2.17 3.07,-1.97 3.26,-2.92 1.7,-1.11 3.39,-1.08 1.21,-1.04 1.96,-0.14 0.25,-0.34 0,-0.56 0.63,-1.04 2.73,-1.86 1.19,-0.52 3.3,-0.61 2.52,-0.82 0.5,1.2 0.46,0 0.79,-1.45 0.76,-0.38 0.31,1.33 1.76,-0.25 0.54,1.02 0.39,0.16 1.25,-0.43 0.61,0.52 1.3,0.41 2.19,1.65 1.68,0.57 0.39,0.74 0.86,0.8 0.23,1.44 1.57,0.73 0.95,1.27 2.96,0.31 2.12,-1.26 1.98,-0.23 3.66,0.32 2.07,0.74 2.22,0.07 0,0 0.14,1.24 0.66,1.64 0.4,3.15 -1.06,4.38 -0.34,2.64 0.17,2.89 0.87,3.35 0.14,1.65 -0.51,1.92 -0.19,2.28 0.42,1.38 0.71,0.73 1.76,1.12 0.25,0.51 -0.92,3.53 -1.97,4.55 -1.82,2.9 -1.64,1.94 -1.02,1.79 -1.6,4.85 -2.16,3.28 -2.33,2.64 -1.72,4.19 -1.11,1.79 -1.85,4.59 -1.58,2.39 -3.11,5.97 -1.09,2.6 -0.86,4.43 -0.37,0.62 -1.85,1.93 -2.97,1.18 -7.08,1.24 -4.61,0.48 -2.85,0.79 -0.75,0.43 -2.42,0.52 -6.46,2.57 z"
     title="Pool"
     id="CG-12" />
  <path
     d="m 432.36039,80.702714 1.57,0.62 1.57,2.99 0.11,0.63 -0.34,0.59 -0.59,0.38 -0.18,0.66 -0.02,1.17 0.4,1.34 2.99,1.42 1.38,2.38 1.35,0.7 0.36,0.59 0.05,3.76 0.59,0.45 0.66,0.02 1.86,-0.56 1.75,-0.86 0.64,0.2 0.57,0.56 3.07,0.95 0.62,0.46 2.82,5.429996 2.34,3.01 0.21,0.58 -0.32,3.19 0.38,2.76 -0.77,4.53 0.27,5.54 0.62,1.76 1.23,0.66 0.29,0.59 -0.25,0.7 -0.09,1.83 -1.82,0.61 -0.59,0.45 -0.55,1.93 -0.16,2.05 0.6,4.93 0.66,1.95 -0.19,2.42 0.57,1.27 -0.59,1.24 0.05,0.75 1.09,5.15 1.09,1.11 0.16,0.65 -2.53,6.22 -1.06,3.76 -1.37,1.81 0,0.65 0.77,1.27 0.73,0.7 0.16,0.59 -0.54,1.2 1.34,6.53 -0.55,1.24 -2.18,2.6 -0.41,1.18 0.45,0.59 1.19,0.22 0.52,0.59 -0.75,2.96 0.27,1.45 1.23,1.85 0.23,1.86 1,2.6 1.07,1.17 1.2,0.68 0.39,0.59 0.07,2.51 1.46,4.41 0.5,2.64 -1.8,2.56 -0.55,1.19 0.8,3.24 -0.32,1.87 -1.02,1.18 -3.78,1.88 -1.28,1.26 -1.11,1.79 0.09,3.66 -0.23,4.5 0.25,1.33 1.05,2.62 2.16,3.53 2.37,2.82 11.4,15.06 5.94,7.25 4.07,5.38 2.21,2.47 0,0 -13.81,7.09 -6.1,2.87 -5.27,3.03 -0.38,-0.13 -32.08,16.09 -0.95,-0.81 -0.57,-1.86 -1.39,-0.25 -1.71,0.55 -0.36,-0.16 -1.46,-1.92 -1.57,-0.66 -1.77,-1.58 -0.94,0.02 -2.48,1.43 -1.45,-0.25 -1.85,-0.97 -1.57,-0.03 0.23,-0.27 0.18,-2.1 -0.15,-1.49 -0.44,-0.7 -1.36,-0.84 -0.23,-0.88 0.11,-5.09 -1.98,-3.63 -1.04,-0.61 -1.07,-1.2 -3.39,-1.09 -0.82,-0.83 -1.69,0.29 -1.5,-0.72 -0.45,-0.7 0.04,-2.11 -0.18,-0.4 -0.55,-0.55 -2.84,-1.1 -1,-0.66 -0.46,-0.68 -1.16,-0.52 -0.5,-0.61 -2.77,-0.65 -3.05,0.36 -0.48,-0.63 -0.89,-0.23 -2.16,1.2 -1,0 -0.5,-0.63 -0.21,-0.91 -0.66,-0.45 -1.25,0.32 -0.84,-0.16 -1.07,0.59 -1.39,0.27 -1.41,-0.07 -0.95,0.7 -1.91,0.32 -1.3,0.92 -1.87,0.34 -0.63,1.06 -0.69,2.11 -1.63,1.15 -0.91,1.38 -0.69,0.43 -1.39,-0.3 -1.16,-1.06 -0.95,-0.18 -1.21,0.48 -0.48,-0.05 -0.56,-0.57 -2.01,-0.7 -1,0.12 -2.96,-1.02 -1.2,1.06 -0.78,0.32 -2.52,-0.32 -2,-0.79 -0.57,-0.02 -1,0.65 -0.41,-0.18 -0.16,-0.38 0.36,-1.65 0,0 0,0 0,0 -0.2,-0.45 -0.34,-0.14 -0.41,0.18 -0.53,1.15 -0.32,-0.11 -0.2,-2.01 -0.5,-0.61 -0.77,-0.36 -1.05,-0.05 -1.34,-0.81 -0.57,0.54 -0.41,0.07 -0.37,-0.72 0.19,-0.95 -0.44,-0.68 -2.45,-0.36 0.22,-1.88 -1.11,0.2 -0.37,-0.72 -0.72,-0.41 -1.57,0.1 -1.01,-0.71 -1.45,-0.22 -0.66,-1.02 -0.41,-2.89 0.14,-1.56 1.43,-2.49 -0.09,-1.01 -1.14,-3.28 -0.25,-1.4 -0.05,-6.02 0.82,-4.81 -0.22,-0.91 -1.48,-2.41 -0.37,-2.38 0.21,-0.38 0.77,-0.34 0.57,-1.11 1.14,-0.52 0.57,-1.11 0.68,-0.45 1.91,-0.29 0.77,-0.34 0.37,-1.31 -0.23,-0.91 -1.5,-2.8 -1.39,-0.84 -1.52,-0.2 -0.73,-0.38 -0.91,-1.29 -0.18,-0.95 -0.05,0.45 -5.17,0.25 -3.75,-0.72 -1.34,-0.61 -1.3,-0.8 -2.55,-2.26 -1.32,-0.13 -1.25,-0.93 -1.75,-0.36 -0.66,-0.43 -1.96,-3.23 -1.91,-1.34 -2.46,-0.56 -1.31,0.22 -1.23,0.55 -1.21,-0.05 -3.87,-1.47 -6.16,-1.69 -1.96,-0.84 -1.89,-1.49 -1.27,-0.61 -0.35,-0.59 -0.72,-5.81 -0.73,-1.92 0.11,-1.97 -0.27,-0.7 -0.57,-0.56 -2.48,0.22 -2.34,0.57 -1.12,-0.03 -1.2,-0.45 -3.6,0.84 -5.21,-0.27 -5.96,1.38 0,0 -0.47,-0.49 -1.08,-0.04 -0.94,-0.37 -1.49,-1.71 -0.98,0.06 -0.41,0.29 -3.33,-0.28 -0.88,0.24 -1.29,1.32 -3,-0.41 -0.65,-0.36 -0.71,-1.01 -0.6,-0.1 -1.01,-0.95 -0.15,-1.41 -1.38,-0.86 -0.58,0.51 -0.42,0.97 -1.31,0.31 -1.38,-0.49 -1.44,0.38 -1.86,0.03 -2.8,-1.26 -2.1,0.6 -0.38,-0.04 -0.44,-0.64 -1.82,0.49 -0.79,-0.25 -0.61,0.25 -0.27,-0.08 -0.3,-0.73 -0.35,0.06 -0.41,1.17 0.13,0.17 0.48,-0.26 0.17,0.96 -0.26,0.35 -0.62,-0.04 -0.45,1.01 -0.26,0.11 -0.43,-0.22 -0.17,0.48 0.45,0.9 -0.02,0.73 -0.85,0.79 -0.86,0.05 -0.47,0.67 -0.26,-0.03 -0.67,-0.66 -0.69,0.04 0.15,-0.62 -1.07,-0.15 -0.32,0.13 -0.17,0.54 -1.27,0.58 -0.17,0.3 -1.12,0.09 -0.53,0.11 -0.73,-0.45 -1.12,0.11 -0.84,0.58 -0.58,-0.32 -1.16,0.43 0.07,1.22 -2.13,-0.02 -0.34,0.73 -1.11,0.29 -0.02,0.77 -1.04,0.73 -0.14,0.65 -1.59,0.95 -0.37,0.04 -0.9,-0.47 -2.3,0.84 -0.99,-0.11 -0.51,0.48 -0.51,-0.07 -0.91,-0.36 -0.19,-0.45 -1.42,-0.48 -0.94,-0.66 -0.63,0.09 -0.15,-0.6 -1.18,0.41 -0.69,-0.18 -0.34,0.52 -0.62,0.07 -0.37,0.64 -1.86,-0.69 -0.73,0.95 0.02,0.28 0.68,0.65 -0.17,0.19 -1.69,-0.06 -0.43,0.62 -0.3,0.08 -0.65,-0.44 -1.07,0.06 0.24,1.96 -0.11,0.19 -0.73,-0.3 -0.11,1.16 -0.32,0.33 -0.3,-0.01 -1.03,-0.51 -1.23,0.22 -1.05,-0.24 -0.81,-0.04 -1.03,0.36 -2.02,-0.25 -1.85,0.73 -1.14,-0.86 -2.08,-0.47 0,-0.43 0.96,-0.9 0.89,0.27 0.13,-0.31 -0.28,-0.7 0.49,-0.68 -0.02,-0.97 0.49,-1.01 0.34,-0.11 0.39,0.56 1.33,-0.36 0.82,0.51 0.47,-0.41 -0.05,-0.84 0.18,-0.26 0.71,-0.12 1.43,-0.89 0.54,-1.67 -0.19,-0.45 -0.93,0.43 -0.53,-0.65 0.08,-0.34 0.77,-0.61 -0.64,-0.9 0.88,-1.74 -0.07,-0.28 -0.57,0.05 0.27,-1.12 -0.3,-0.47 -0.43,0 -0.51,-0.6 0.12,-0.74 -0.4,-0.87 -0.62,-0.07 -0.41,-0.37 0.14,-1.33 -0.57,-0.45 0.36,-0.68 -0.56,-0.65 -0.64,-0.66 -0.92,0.21 -0.16,-0.88 0.45,-1.12 -0.55,-0.27 -0.13,-0.71 -0.5,-0.28 -0.43,-0.67 -0.26,0.05 -0.21,0.45 -0.75,0.34 -0.37,-0.39 -0.58,-1.07 -0.32,-0.62 -0.3,-0.73 -0.6,-0.11 0.32,-0.71 -0.04,-0.6 -0.8,-0.77 0.11,-0.33 1.08,0.13 -0.28,-0.71 0.1,-1.01 0.49,-0.57 0.15,-0.59 -0.02,-0.83 -0.45,-0.47 -0.43,-0.99 0.24,-1.61 -0.3,-0.35 -0.18,-2.02 0.65,-0.55 0.62,-1.04 0.41,-0.15 -0.09,-0.79 0.21,-0.73 1.01,-0.32 0.9,-0.91 0,-0.99 -0.27,-0.36 0.21,-1.44 0.11,-0.22 0.27,0.05 0.16,0.39 0.6,-0.24 0.47,-1.25 -0.48,-0.79 -0.27,-0.05 -0.15,-0.49 0.45,-0.54 -0.31,-1.95 -0.4,-0.34 -1.18,-0.04 -0.09,-0.89 -0.99,-0.51 -0.17,-0.51 0.26,-0.39 -0.2,-0.54 0.3,-0.66 0.88,0.04 0.71,-0.5 0.28,-0.28 -0.08,-0.6 0.59,-0.9 0.84,-0.39 1.25,-1.03 -0.63,-1.56 -0.13,-0.78 0.2,-0.55 0.73,-0.48 1.35,-0.86 0.08,-0.54 0.11,-0.49 0.73,-0.77 0.64,-0.35 1.61,-0.02 0.34,-0.82 0.71,-0.34 0.17,-0.34 -0.62,-0.62 0.02,-0.26 0.69,0.32 0.02,-0.56 0.36,-0.34 -0.08,-1.85 0.49,-1.14 -0.09,-0.83 -0.38,0 -0.22,-0.82 0.28,-0.86 -0.58,-0.36 0.96,-0.78 -0.64,-1.11 0.56,-0.43 0.08,-0.71 8.67,0.17 18.61,-0.32 2.08,0.17 16.76,-0.2 10.68,0.26 2.68,-0.17 18.06,0 0.88,-0.06 1.09,-1.05 3.29,-0.43 3.45,0.61 0.86,-0.17 2.81,0.21 1.2,0.67 1.26,1.5 0.56,0 9.2,-3.35 0.9,-1.18 0.86,0.65 0.48,0.05 0.81,-0.72 0.28,0.11 0.37,0.71 1.28,0.4 0.45,0.49 1.51,2.81 0.97,0.1 0.43,0.32 0.13,0.35 -0.3,0.73 0.43,0.71 0.41,0.14 2.46,-0.26 1.06,0.88 0.3,0.86 1.01,0.08 0.68,0.36 0.3,0 0.02,-0.34 -0.38,-0.9 0.13,-0.24 0.45,-0.02 2.23,1.75 -0.11,0.47 -0.96,-0.02 0.05,0.63 0.45,0.06 0.94,-0.65 0.88,-0.06 0.43,0.75 -0.58,1.46 0.39,0.55 0.41,0.04 1.17,-0.88 0.28,0.02 1.04,1.11 0.36,0.03 1.05,-0.39 1.11,-1.43 0.77,-0.21 1.35,0.27 0.17,-0.58 -0.6,-1.13 0.94,-0.69 0.41,0.08 0.24,0.43 -0.04,1.72 0.22,0.81 0.56,0.41 2.03,0.53 0.22,0.41 -0.32,1.48 -1.3,1.5 1.38,1.38 0.68,0.29 2.58,-0.22 1.11,-0.33 0.47,-0.36 0.51,-1.44 0.58,-0.54 1.81,1.65 1.27,0.51 0.77,0.6 0.09,1.2 0.6,0.59 0.35,0.07 0.4,-0.32 1.2,-1.71 0.75,0.35 -0.02,1.39 2.66,0.14 1.15,-2.69 1.59,0.28 0.45,-0.46 0.25,-1.84 0.22,-0.22 0.81,-0.09 0.74,1.63 0.58,0.45 1.49,-1.61 1.46,-0.12 0.73,0.32 1.57,0.13 0.77,0.36 -0.7,1.35 1.35,0.23 0.64,0.86 1.1,0.4 0.8,0.65 1.12,1.24 0.3,0.88 -0.27,1.39 0.17,0.43 1.03,0.3 1.28,-0.74 -0.06,0.9 0.85,1.44 4.02,-2.04 1.25,-0.21 1.11,-1.06 0.85,-0.41 3.78,-1.01 0.64,-0.51 0.55,-0.01 2.61,1.78 0.4,0.06 0.63,-0.6 0.59,-0.05 1.58,1.13 2.31,-0.46 1.25,0.75 3.76,0.9 1.37,0.25 1.31,-0.3 2.94,1.04 0.48,0.58 1.77,-0.21 1.62,0.98 1.47,1.71 0.56,1.4 1.05,1.05 2.26,0.89 1.12,1.2 1.63,0.16 0.37,0.43 0.83,2.55 -0.22,0.69 0.48,0.02 0.94,-0.82 1.05,0.03 0.47,1.1 1.51,0.18 2.02,0.94 3.02,0.09 2.47,-0.37 0.48,0.25 0.23,0.6 -0.12,0.49 -1.28,2.48 0.02,0.47 0.56,0.45 0.13,0.41 -0.35,1.85 0.5,1.52 0.3,0.28 2.65,0.34 1.57,-2.62 2.96,-0.86 0.49,0.06 0.74,0.8 0.79,0.27 0.68,-1.83 -1.05,-1.65 -0.02,-1.57 0.59,-1.45 -0.56,-2.94 -1.05,-1.42 -0.96,-3.2 -0.23,-1 0.15,-1.62 -0.37,-0.21 -1.03,0.26 -0.54,-0.3 -0.9,-4.55 -2,-1.93 0.22,-0.84 -0.22,-1.73 0.58,-0.91 1.22,-1.05 0.57,-1.16 -0.02,-0.56 -1.2,-0.75 -0.32,-0.75 1.39,-0.86 0.49,-0.69 0.1,-1.26 -0.2,-0.86 -0.57,-0.9 -0.04,-1.57 0.51,-4.23 0.79,-0.49 2.98,0.15 0.78,1.73 0.46,0 1.03,-1.19 1.68,-0.72 0.65,-0.81 0.29,-0.97 1.37,-2.13 z"
     title="Sangha"
     id="CG-13" />
  <path
     d="m 262.27039,455.72271 -0.34,3.57 -0.02,3.78 0.36,1.98 0.34,0.62 0.62,0.4 1.86,0.43 2.05,0.18 4.32,-0.88 1.14,-1.29 0.84,-1.9 0.6,-0.47 1.29,0 1.75,-1.04 1.94,-1.61 1.57,-1.83 2.64,-3.82 0.27,-1.2 0.87,-1.88 1.77,-1.72 1.23,-2.75 0.57,-0.62 1.86,-0.9 2.01,-2.98 0.31,-2.51 0.85,-1.95 0.54,-0.63 4.24,-2.99 4.57,-2.19 2.07,-0.47 3.14,0.33 2.57,-0.7 0.62,0.21 2.93,-2.04 1.39,-2.55 2.84,-2.74 0.3,-1.42 0.41,-0.7 1.75,-1.04 0.84,-0.82 0.89,-5.74 1.18,-1.58 0,0 0.71,-1.02 0,0 0.41,-1.29 0.43,-2.94 1.21,-2.17 0.25,-1.44 0.52,-1.18 1.89,-2.01 1.64,-1.16 0.52,-1.74 0.82,-1.44 2.78,-2.24 2.09,-0.7 1.36,-0.88 1.98,-0.82 1.21,-2.71 0.34,-0.23 1.84,0.32 0.8,-0.32 2.39,-2.53 0.25,-0.9 -0.21,-1.9 0.35,-0.77 1.41,-0.81 3,-0.25 0.84,-0.27 1.48,-1.34 0.39,-0.02 1.5,0.75 2.43,-0.25 0.39,-0.18 1.21,-1.45 2.41,-0.34 0.89,0.23 0.84,-0.27 0.95,0.63 2.26,0.59 5.59,0.63 0.05,1.06 0.55,1.02 -0.6,1.11 0.66,1.56 -0.15,0.95 1.38,1.4 0.44,1.26 1.68,-0.34 1.46,0.25 1.82,0.97 1.75,0.53 0.43,0.67 0.16,0.95 0.57,0.57 1.57,-0.09 1.2,1.01 1.53,-0.04 0.39,0.18 0.84,0.86 0.98,2.33 0.45,0.13 0.52,-1.17 0.39,-0.16 0.34,0.23 0.32,1.35 -0.2,1.49 0.45,0.68 1.23,0.25 1.07,-0.61 1.36,0.93 1.78,-0.43 0.96,0.04 0.56,0.59 1.35,0.23 0.72,0.95 0.32,0.11 0.3,-0.25 0.84,-0.07 0,1.02 0.21,0.32 0.43,0.11 1.2,-0.47 0.5,0.06 1.46,1.36 1.68,0.59 0.71,1.49 0.77,0.36 1.69,-0.2 0.29,0.27 0.14,0.95 1.07,0.63 -0.18,0.84 0.38,0.72 0.5,0.07 0.91,-0.77 0.53,-0.07 1.2,1.04 1.16,-1.11 0.51,0.07 0.27,0.27 0.07,2.58 1.13,0.57 0.66,1.58 0.89,0.2 0.27,0.32 0.89,1.9 0.3,3.03 1.32,2.62 0.82,2.42 0.54,0.56 1.07,-0.58 0.46,0.09 0.91,0.79 0.5,0.07 1.61,-0.59 0.41,0.72 -0.93,0.23 -0.27,0.25 0.11,0.45 1.12,0.59 2.13,0.13 0.35,0.23 0.02,0.5 -1.05,0.61 0.12,0.43 0.43,0.13 2.09,0.07 0.55,-0.54 0.5,-0.07 1.02,0.7 0.46,0 0.38,-0.16 0.64,-1.06 0.66,-0.45 1.98,0.09 1.91,-0.39 0.8,0.37 0.77,0.9 1.87,-0.25 -0.16,1.88 -0.75,1.51 0.11,0.91 0.91,0.2 1.41,-0.25 3.59,0 0,0 -6.42,12.61 -4.17,6.81 -4.12,5.43 -6.74,7.86 -3.8,3.77 -2.92,2.49 -6.68,4.37 -3.36,6.11 -0.78,2.23 -0.51,7.72 -0.08,5.13 0.4,3.33 1.64,7.56 2.11,7.05 0.2,1.76 -0.37,3.59 -2.14,4.69 -0.33,1.62 0.14,3.8 -1.98,6.69 0.04,5.45 0,0 -2.22,-0.07 -2.07,-0.74 -3.66,-0.32 -1.98,0.23 -2.12,1.26 -2.96,-0.31 -0.95,-1.27 -1.57,-0.73 -0.23,-1.44 -0.86,-0.8 -0.39,-0.74 -1.68,-0.57 -2.19,-1.65 -1.3,-0.41 -0.61,-0.52 -1.25,0.43 -0.39,-0.16 -0.54,-1.02 -1.76,0.25 -0.31,-1.33 -0.76,0.38 -0.79,1.45 -0.46,0 -0.5,-1.2 -2.52,0.82 -3.3,0.61 -1.19,0.52 -2.73,1.86 -0.63,1.04 0,0.56 -0.25,0.34 -1.96,0.14 -1.21,1.04 -3.39,1.08 -1.7,1.11 -3.26,2.92 -3.07,1.97 -5.67,2.17 -2.82,0.52 -3.32,-1.22 -1.64,-0.07 -2.55,0.82 -3.61,-0.23 -1.12,-0.25 -1.68,-1.15 -0.96,-0.16 -0.88,-1.24 -2.76,-0.66 -0.5,-0.61 -0.48,-1.25 -0.41,-2.94 -1.23,-1.02 -0.54,-1.13 -0.73,-0.38 -1.59,-0.03 -1.37,0.32 -3.02,-0.95 -0.5,0.07 -1.76,1.04 -2.2,0.57 -2.21,0.04 -1.25,-0.47 -0.32,-0.8 0.36,-1.33 -0.63,-2.69 -0.12,-3.65 -1.61,-1.76 0.32,-1.41 -0.23,-0.88 -0.62,-0.52 -0.97,-1.81 -0.96,-0.18 -1.32,0.36 -1.3,0.93 -1.09,1.18 -2.32,1.08 -0.57,0.55 -0.23,0.33 0.07,2.15 -0.77,2.06 -2.16,1.75 -2.6,0.74 -1.57,2.4 -2.05,1.88 -2.61,1.86 -0.94,1.9 -1.77,1.13 -2.23,2.26 -2,1.27 -1.62,2.9 -1.2,1.04 -1.28,2.1 -0.34,0.21 -0.91,0.11 -1.27,-0.97 -1.92,-0.39 -0.88,-0.77 -0.82,-1.4 -1.03,-0.7 -3.04,0.16 -1.8,0.43 -1.14,-0.57 -0.59,-1.09 -2.3,0 -1.64,0.3 -1.66,-0.32 -0.8,-0.75 -0.93,-2.17 -0.3,-0.18 0,0 0.76,-1.67 1.89,-1.5 0.4,-0.79 0,-0.91 0.73,-1.1 2.37,-1.2 0.61,-0.68 0.19,-0.61 -0.87,-1.75 -0.07,-1.15 -1.38,-1.67 -0.26,-2.63 -0.63,-1.29 -0.09,-2.08 -0.6,0.02 -0.52,1.18 -0.54,0.56 -0.6,-0.49 0.28,-1.23 1.79,-3.21 0.16,-1.36 -0.54,-0.68 -0.66,0 -1.94,1.11 -0.97,-1.13 -0.57,-0.27 -1.21,0.23 -2.14,1.22 -0.61,-0.18 -0.46,-0.57 -1.2,-0.61 -2.64,0.11 -0.55,-0.61 -0.73,-1.17 0.53,-0.59 1.27,-0.64 0.98,-1.22 1.84,-0.99 0.46,-0.61 0.04,-0.66 -0.36,-0.59 -1.21,-0.47 -0.61,0.29 -0.46,1.18 -0.59,-0.18 -1.89,-1.25 -1.07,-1.08 0.28,-0.71 1.86,0.05 0.59,-0.39 0.41,-1.19 -0.06,-0.62 -0.57,-0.54 -1.82,-0.47 -0.62,-0.57 -0.57,-1.81 -0.07,-3.23 0,0 4.48,-8.25 1.06,-1.47 2.84,-2.28 0.54,-0.84 0.09,-0.58 -0.36,-0.96 -4.3,-6.18 -0.66,-1.2 0.13,-0.54 0.5,-0.86 2.72,-0.95 1.12,-0.64 1.17,-2.48 1.58,-1.02 0.71,-0.73 0.18,-1.44 -0.69,-4.44 0.03,-1.2 0.26,-1.74 0.56,-1.14 3.02,-3.03 1.56,-1.24 z"
     title="Plateaux"
     id="CG-14" />
  <path
     d="m 337.04039,268.50271 -1.58,1.27 -0.81,1.56 -3.42,2.39 -1.75,0.9 1.3,1.41 5.31,3.01 4.8,2.26 5.3,7.28 -2.52,2.76 -2.78,1.76 -2.78,0 -2.53,-1.51 -2.56,0.72 -3.25,-0.22 -2.27,2.26 -2.28,-0.5 -5.05,1.76 -4.07,3.21 -0.5,1.81 2.78,9.78 2.52,4.27 7.33,4.27 -0.25,13.55 -2.88,10.6 -0.7,0.94 -1.75,4.08 10.88,19.72 -8.95,11.19 -4.02,3.46 -2.77,3.06 -1.21,3.17 -1.11,0.84 -8.46,-0.89 -6.48,3.86 -3.38,2.67 -3.28,2 -9.1,4.77 -5.05,2.26 -8.5,0.07 0,0 -1.68,-6.11 -3.45,-15 -0.28,-4.69 -0.77,-2.77 0.45,-1.7 1.21,-1.26 0.85,-1.63 1.46,-4.18 0.51,-3.25 0.49,-1.63 1.28,-2.04 1,-2.87 0.07,-1.92 -0.54,-3.37 -0.85,-2.2 -1.59,-3.02 -2.75,-2.72 -2.36,-3.35 -1.2,-0.69 -2.66,-0.77 -3.21,-0.12 -5.04,-2.02 -1.96,-0.01 -3.03,0.72 -1.25,-0.16 -0.31,-1.34 -0.06,-4.86 -0.77,-2.73 -1.04,-1.41 -4.03,-2.79 -6.74,-3.47 -2.77,-1.02 -1.12,-0.14 -0.84,0.15 -0.6,0.6 -0.61,1.44 -0.54,0.15 -2.85,-2.08 -0.77,-1.01 -0.7,-1.96 0.07,-2.41 0.46,-1.14 1.3,-1.4 0.5,-0.9 0.94,-2.66 0.66,-4.17 -0.1,-2.62 1.28,-0.36 0.76,-2.15 0,-0.86 -0.37,-0.35 -1.05,-0.24 -1.01,0.32 -0.41,-0.47 -0.17,-1.83 -0.56,-0.91 -0.02,-0.53 0.71,-0.99 0.37,-1.46 -0.12,-0.85 -0.77,-1.89 -0.95,-1.12 0.05,-0.8 -1.42,-2 0.99,-0.6 -0.52,-0.45 -0.06,-0.39 0.33,-1.44 1.93,-1.27 0.39,-0.86 1.31,-0.31 -0.68,-1.45 0.09,-0.23 0.83,-0.09 -0.58,-0.54 0.93,-0.88 -0.58,-0.28 -0.04,-0.41 0.51,-0.79 0.78,-0.32 0.34,-0.59 0.48,0.01 0.32,-1.17 1.49,-2.06 1.7,-0.98 1.01,-0.22 1.27,-1.11 1.08,-0.2 1.24,-1.03 0.56,-0.83 0.11,-1.42 1.51,-1.79 -0.04,-0.41 -1.67,-1.24 -0.11,-0.35 0.97,-2.23 1.96,-2.32 1.07,-0.69 2.65,0.26 2.19,0.99 1.65,-0.64 0.87,0.11 0.49,0.75 0.6,0.31 0.99,-0.02 1.89,-0.95 2.56,0.37 -0.47,-0.97 0.84,-1.16 0.11,-0.84 1.29,-0.92 0.96,-0.11 1.34,-1.39 0.9,-0.05 0.69,-0.53 0.6,-0.97 1.55,-0.68 -1.14,-1.94 -0.9,-0.91 0.69,-2.12 0.86,-0.37 1.21,-1.97 0.71,-0.24 1.09,-0.97 -0.06,-0.85 1.34,-1.85 2.72,-1.14 0.7,-1.91 1.01,-0.58 0.3,-0.43 -0.41,-1.91 -0.54,-1.16 -0.49,-0.15 -0.47,-0.78 1.83,-0.19 0.32,-0.26 0.13,-0.86 0.75,-1.25 -0.36,-1.85 -1.7,-0.74 -0.79,-1.09 -1.83,-0.77 -0.59,-0.77 -0.47,-1.57 -0.67,-0.99 -0.32,-1.22 -0.53,-0.81 -0.12,-0.72 -1.02,-1.8 0.17,-1.18 -0.26,-1.46 -4.26,-4.55 -0.24,-2.58 -0.69,-0.88 -0.52,-1.29 -0.41,-0.51 -1.12,-0.56 -0.09,-0.75 -0.68,-0.19 -0.39,-0.39 -0.09,-0.62 0.86,-2.32 -0.16,-1.1 0.26,-0.9 -0.11,-0.45 -0.71,-0.45 -1.46,-2.92 -1.64,-0.81 -0.96,-0.84 -0.93,-0.17 0,0 5.96,-1.38 5.21,0.27 3.6,-0.84 1.2,0.45 1.12,0.03 2.34,-0.57 2.48,-0.22 0.57,0.56 0.27,0.7 -0.11,1.97 0.73,1.92 0.72,5.81 0.35,0.59 1.27,0.61 1.89,1.49 1.96,0.84 6.16,1.69 3.87,1.47 1.21,0.05 1.23,-0.55 1.31,-0.22 2.46,0.56 1.91,1.34 1.96,3.23 0.66,0.43 1.75,0.36 1.25,0.93 1.32,0.13 2.55,2.26 1.3,0.8 1.34,0.61 3.75,0.72 5.17,-0.25 0.05,-0.45 0.18,0.95 0.91,1.29 0.73,0.38 1.52,0.2 1.39,0.84 1.5,2.8 0.23,0.91 -0.37,1.31 -0.77,0.34 -1.91,0.29 -0.68,0.45 -0.57,1.11 -1.14,0.52 -0.57,1.11 -0.77,0.34 -0.21,0.38 0.37,2.38 1.48,2.41 0.22,0.91 -0.82,4.81 0.05,6.02 0.25,1.4 1.14,3.28 0.09,1.01 -1.43,2.49 -0.14,1.56 0.41,2.89 0.66,1.02 1.45,0.22 1.01,0.71 1.57,-0.1 0.72,0.41 0.37,0.72 1.11,-0.2 -0.22,1.88 2.45,0.36 0.44,0.68 -0.19,0.95 0.37,0.72 0.41,-0.07 0.57,-0.54 1.34,0.81 1.05,0.05 0.77,0.36 0.5,0.61 0.2,2.01 0.32,0.11 0.53,-1.15 0.41,-0.18 0.34,0.14 z"
     title="Cuvette-Ouest"
     id="CG-15" />
  <path
     d="m 55.490385,694.23271 -0.25,-0.2 -0.43,0.19 0.27,-0.42 -1.91,-1.95 -0.04,-0.32 0.11,-0.84 0.5,0.32 -0.43,0 0,0.5 0.34,0.2 0.18,-0.31 0.46,0.38 -0.12,0.37 0.57,0.04 0.59,-0.52 0.28,-2.13 -0.37,-1.18 -1.59,-1.86 -3.12,-2.61 -0.86,-1.97 0.04,-0.62 1.55,0.1 0.46,-0.32 1.34,-1.82 0.25,-0.7 0.07,-1.11 -0.34,-0.84 -1.53,-2.56 -0.86,-0.99 0,0 9.53,0 0,21.21 z"
     title="Pointe-Noire"
     id="CG-16" />
  <path
     d="m 342.80039,645.32271 -3.98,4.11 -3.64,4.75 0,0 -2.25,0.39 -2.57,-1.77 -0.99,-3.54 0.2,-3.54 1.97,-3.15 3.56,-0.39 4.74,0.19 z"
     title="Brazzaville"
     id="CG-BZV" />
</svg>
