<?xml version="1.0" encoding="UTF-8" standalone="no"?>
<!-- Created for MapSVG plugin: http://mapsvg.com -->
<svg
   xmlns:mapsvg="http://mapsvg.com"
   xmlns:dc="http://purl.org/dc/elements/1.1/"
   xmlns:rdf="http://www.w3.org/1999/02/22-rdf-syntax-ns#"
   xmlns:svg="http://www.w3.org/2000/svg"
   xmlns="http://www.w3.org/2000/svg"
   mapsvg:geoViewBox="-85.951112 11.216982 -82.555690 8.032245"
   width="648.29871"
   height="612.98956">
 
  <path
     d="m 243.33363,26.900858 13.39,7.81 6.77,-2.22 1.02,2.38 0.9,1.15 3.76,1.62 6.66,2.3 3.69,2.05 6.43,7.03 2.76,1.52 1.42,0.34 1.22,-0.03 1.35,-0.47 1.36,-0.95 1.51,-1.63 0.9,-0.47 3.92,-0.94 2.85,-2.85 0.49,-0.26 0.54,0.23 0.8,0.82 1.79,2.94 -0.04,0.97 -0.74,2.11 -0.63,0.98 0.11,1.02 1.9,1.3 1.24,2.44 0.66,1.85 0.96,0.98 1.91,-0.1 2.03,0.29 1.27,0.53 0.88,0.77 1.24,1.69 0.12,1.01 0.63,0.52 1.39,0 3.96,0.84 1.01,0.4 1.38,1.43 3.24,1.09 0.81,1.01 0.47,1.39 -0.51,1.15 0.61,1.42 0.24,1.27 -0.83,1.38 0.03,1.03 -0.65,0.63 -2.82,0.83 0.37,1.17 1.39,0.66 0.49,1.03 2.29,0.54 1.64,1.05 0.23,1.41 0.88,1.41 1.16,-1.13 0.9,-0.5 1.27,0.02 1.88,0.73 2.33,-0.41 1.36,0.02 0,0 -1.34,38.680002 0.1,32.71 -0.12,24.27 -0.4,22.48 0.9,14.52 -0.05,4.97 -1.36,2.86 0.01,2.66 -1.32,4.59 -1.09,2.28 -2.92,2.56 1.38,4.41 0,0 -2.25,-0.11 -2.84,1.29 -1.97,1.72 -1.39,1.6 -2.77,2.15 -3.24,1.25 -7.58,0.61 -4.67,1.51 -4.66,0.18 -3.15,-1.93 -2.61,-0.68 -4.71,-0.04 -0.11,0.29 -7.72,1.59 -2.65,-0.15 -2.72,1.74 -1.06,1.13 -2.73,1.28 -1.58,1.14 -3.02,3.03 -2.63,0.76 -2.17,2.83 -0.48,1.57 -2.71,4.17 -2.48,0.03 0,0 -1.65,-1.22 -2.04,-0.93 -1.01,-1.3 -0.35,-2.53 -2.9,-0.78 -2.82,-0.16 -3.45,0.15 -4.86,-0.85 -1.5,-2.44 0.26,-3.47 1.39,-1.77 2.34,-0.76 2.28,-4.91 1.62,-1.83 3.11,-0.08 2.98,-0.26 2.45,-3.24 2.97,-2.79 4.33,-1.62 0.95,-3.38 -0.44,-3.56 -2.96,-2.99 -3.52,-0.42 -6.73,-0.11 -0.76,-2.4 -0.67,-3.85 -2.74,-1.26 -1.14,-1.93 -2.98,-6.04 -0.03,-3.18 -0.31,-5.13 0.39,-2.61 -2.22,-1.5 1.52,-3.22 1.55,-2.41 1.57,-3.8 -1.08,-3.78 -2.36,-2.48 -1.97,-2.49 -1.97,-0.7 -2.91,0.94 -2.55,1.58 -4.16,1.44 -6.39,-4.45 -3.35,-4.88 0,0 2.39,-3.96 1.38,-4.42 1.13,-0.73 -2.52,-3.86 0.8,-6.9 0.09,-3.24 0,0 2.99,-0.08 4.38,0.29 0.96,-0.43 -0.6,-1.03 0.03,-1.27 -0.43,-1.08 -1.24,-0.95 -1.78,-0.01 -2.21,-3.06 -3.38,0.32 0,0 -0.18,-2.37 0.06,-2.25 -3.06,-0.44 -3.04,-1.88 -4.04,-2.72 -4.55,-4.85 -5.43,-2.97 -7.76,-0.08 -2.27,-3.35 -3.07,-2.92 -3.28,-2.16 -4.09,-5.04 -1.73,-4.52 -0.26,-3.17 -1.23,-3.32 -0.63,-2.130002 -2.27,-0.8 -2.5,-1.32 -4.91,-0.85 -2.45,-1.44 -2.55,-0.68 -2.46,0.53 -3,-0.15 -1.96,-0.47 -3.64,-4.99 -3.63,-2.33 -3.64,-0.88 -3.75,-0.25 -5.04,0.55 -5.96,0.97 -3.63,-0.31 -1.94,-1.79 -1.93,-5.68 -0.14,-3.24 -3.16,-1.93 -6.27,-2.44 -3.18,-2.86 -1.63,-3.02 -1.05,-2.7 -0.82,-2.69 -1.84,-2.33 -5.290001,-8.77 1.160001,-1.94 2.57,-0.59 3.75,-1.72 2.59,-2.27 0.82,-1.48 1.76,-5.49 1.23,-1.36 4.6,-0.07 1.97,-1.5 1.9,0.01 3.03,3.73 3.1,2.18 2.3,0.05 0.67,-3.09 0.4,-4.53 1.07,-4.17 0,0 2.46,1.13 7.57,4.03 41.58,14.98 14.25,5.95 22.81,-13.36 21.66,-13.28 z"
     title="Alajuela"
     id="CR-A" />
  <path
     d="m 383.60363,206.02086 24.84,13.29 5.84,3.31 13.02,5.47 19.51,9.28 31.8,0.17 25.3,-0.17 -1.16,1.76 -2.56,1.22 -0.92,2.11 0.06,2.13 -2.69,0.54 0.11,4.2 0.79,3.96 1.41,3.31 0.05,4.38 -0.36,1.34 1.48,3.82 -3.64,4.08 -7.43,10.3 -2.52,2.84 -2.17,2.76 -1.87,3.23 -0.17,4.73 -1.21,4.07 -4.1,3.91 -3.55,2.7 -10.45,9.62 1.27,2.1 1.35,3.42 0.35,2.58 -0.33,2.72 0.69,2.11 0.93,3.71 0,0 -4.25,-1.96 -6.23,-5.31 -2.68,-1.08 -3.59,-0.88 -4.73,-2.93 -1.98,-0.92 -2.26,-2.65 -2.38,-0.86 -2.06,0.29 -1.41,1.19 -1.1,2.11 -3.06,1.99 -2.38,-1.15 -3.95,0.97 -2.26,-0.57 -0.86,-2.11 -2.82,-0.09 -1.4,-0.89 -0.83,-2.92 0.58,-2.49 -1.78,0.22 -2.75,-1.12 -2.31,-0.63 -2.16,-1.03 -2.89,-0.62 -2.46,-1.83 -1.05,-2.68 0.02,-3.64 -0.84,-1.47 -3.24,-0.55 -0.96,0.55 -2.08,-0.29 -1.51,-0.77 -2.89,-2.86 -1.71,0.86 -0.99,-0.5 -0.61,-1.31 -2.04,-1.32 -2.02,-0.18 -0.72,-1.07 0.24,-1.91 -0.14,-2.94 -4.82,-2.12 -2.28,-3.51 -1.79,-4.68 -1.42,0.61 -5.09,3.08 -2.42,0.13 -3.31,0.78 -3.11,-0.2 -2.04,-1.04 0.87,-1.82 -0.3,-2.64 1.14,-0.26 3.58,-1.77 3.72,-2.82 1.99,-1.09 0.53,-1.68 2.71,-4.06 1.01,-1.18 0.87,-1.7 0.82,-1.75 0.02,-1.56 -0.95,-1.07 -1.9,-0.06 -3.15,0.43 0.27,-2.83 2.82,-1.98 2.4,-2.84 0.21,-3.01 1.31,-0.72 8.25,-1.09 2.83,0.55 3.43,-0.67 1.97,-1.67 1.62,-1.77 1.74,0.53 1.4,0.6 3.42,-1.08 0.88,-1.76 -1.34,-2.79 -0.55,-3.33 -0.14,-3.17 -1.4,-2.91 -3,-2.74 -3.95,-1.51 -2.12,-1.79 -2.2,-9.52 z"
     title="Cartago"
     id="CR-C" />
  <path
     d="m 7.4136294,70.270858 0.61,1.29 -0.98,0.17 -0.62,-0.67 -0.89,0.13 -0.31,-0.36 1.11,-0.26 0.4,-0.35 0.68,0.05 z m 75.1899996,-59.53 20.190001,7.42 10.88,-0.04 11.43,5.9 7.3,3.35 0,0 -1.06,4.17 -0.4,4.53 -0.67,3.09 -2.3,-0.05 -3.1,-2.17 -3.03,-3.74 -1.9,-0.01 -1.97,1.5 -4.6,0.07 -1.23,1.37 -1.75,5.49 -0.82,1.47 -2.59,2.27 -3.75,1.72 -2.57,0.59 -1.160001,1.94 5.290001,8.77 1.84,2.32 0.82,2.7 1.05,2.69 1.63,3.02 3.18,2.87 6.27,2.43 3.16,1.94 0.14,3.24 1.93,5.68 1.95,1.8 3.63,0.31 5.96,-0.97 5.05,-0.54 3.74,0.24 3.65,0.89 3.63,2.33 3.64,4.99 1.97,0.47 2.99,0.15 2.46,-0.53 2.55,0.68 2.45,1.44 4.91,0.85 2.51,1.32 2.26,0.81 0.63,2.120002 1.24,3.32 0.26,3.17 1.73,4.52 4.1,5.04 3.28,2.17 3.06,2.92 2.27,3.35 7.76,0.08 5.43,2.97 4.55,4.85 4.04,2.72 3.04,1.88 3.06,0.44 -0.06,2.25 0.18,2.36 0,0 -2.61,1.11 -2.82,-0.15 -5.49,-5.46 -1.79,-2.61 -3.87,-2.96 -3.03,-1.71 -2.89,-0.44 -0.05,-1.79 0.26,-0.99 -0.71,-0.79 -0.91,0.49 -3.02,-1.36 -0.47,1.92 -1.94,0.69 -1.18,-1.01 -3,-0.32 -0.38,1.05 -1.09,0.15 -2.59,-0.16 5.06,4.43 3.52,2.74 1.74,0.36 -0.16,-1.73 2.31,0.4 2.31,2.6 3.26,1.64 3.18,0.61 2.43,0.68 2.75,1.95 0.39,3.86 4.39,0.69 4.36,1.84 3.32,1.59 0,0 -0.09,3.24 -0.8,6.9 2.52,3.86 -1.13,0.72 -1.38,4.43 -2.39,3.95 0,0 -3.18,-2.63 -4.35,-1.27 -3.41,1.59 -3.11,4.25 -1.03,4.42 -0.28,2.49 -3.33,8.87 1.05,6.91 -3.89,0.97 -4.16,3.81 0.73,3.79 -2.42,4.34 -2.53,0.07 -4.15,-2.49 -10.06,-4 -4.43,-2.42 -3.68,0.1 0.65,7.01 0,0 -1.89,-0.34 -0.39,-0.53 0.09,-0.49 -1.53,-1.79 -2.11,-1.62 0.23,-0.79 0.97,0.19 0.66,0.63 1.41,0.28 0.53,-0.3 0.23,-0.48 -0.48,-1.15 -1.2,0.47 -3.48,-1.23 -1.01,-0.81 -1.28,-0.23 -2.89,1.21 -1.17,1.49 -1.42,0.34 -0.53,-0.54 -0.88,-0.14 -0.7,-0.45 -1.37,0.16 -2.03,-1.08 -2.43,-0.38 -0.58,0.3 -1.68,-0.46 -1.14,-0.59 -1.46,-0.33 -1.5,-0.99 -1.58,-1.52 -0.38,-1.99 -1.13,-2.4 0.71,-0.39 0.41,-1.41 -0.21,-1.33 -1.22,-2 -1.45,-1.43 -0.13,-0.8 -1.19,-0.45 -1.1,-0.94 -2.86,-1.58 -1.85,-0.64 -0.79,-0.81 1.13,-2.2 -0.08,-0.89 -2.98,-3 -1.06,-0.32 -0.83,-0.76 -0.56,-1.42 -1.49,-1.34 -5.4,-0.14 -0.8,0.21 -1.03,0.96 -1.32,-0.99 -1.46,0.07 1.23,0.76 0.79,1.12 0.66,0.18 0.8,-0.57 1.46,0.37 2.4,-1.13 0.89,-0.03 1.72,0.72 1.49,1.61 1.13,1.83 2.42,1.53 0.48,0.93 -0.01,0.71 -0.68,1.81 0.21,1.51 0.57,0.67 2.12,0.46 1.58,0.9 4.04,3.45 0.51,2.4 -0.46,1.28 -0.11,2.65 0.51,1.91 -0.54,1.05 0.33,2.35 -0.23,0.48 -0.62,0.3 -0.14,0.88 1.32,5.15 2.22,3.69 -2.41,-2.19 -1.19,-0.19 -0.22,-0.31 -1.28,0.03 -0.66,-0.8 -3.68,0.85 -1.16,1.23 0.71,0.45 0.8,-1.1 1.06,0.05 0.7,0.89 -0.85,0.52 -0.63,0.83 0.22,0.44 0.53,-0.04 1.65,-1.44 0.09,-0.53 -0.35,-0.62 0.58,-0.17 0.75,0.49 2.39,0.07 1.01,0.67 0.39,0.93 -0.18,0.4 -1.11,0.21 1.19,0.72 0.22,0.62 -0.94,1.05 0.51,1.64 0.58,-0.57 2.15,2.23 1.36,0.99 4.23,1.77 0.97,0.9 0.56,1.77 1.1,0.5 1.52,2.32 2.07,1.08 1.1,0.01 0.67,-0.7 0.39,0.62 -0.19,1.81 -0.36,0.62 -0.66,-0.09 -1.05,-1.03 -1.95,-0.15 -0.97,-0.58 -1.14,-1.07 -0.78,-1.47 -0.94,0.88 -0.62,-0.14 -0.49,0.39 0.74,0.76 1.2,-0.12 1,1.82 0.84,0.19 0.61,1.07 1.33,-0.34 0.78,1.34 0.44,0.05 0.27,0.54 0,0 -0.87,1.21 -1.59,5.07 -2.24,2.25 -2.29,0.52 -3.63,-0.31 -1.06,1.13 -4.18,0.86 -2.79,0.88 -3.84,0.45 -3.03,2.91 0.02,2.89 2.05,1.56 4.11,0.93 3.64,0.48 4.47,1.55 4.41,7.9 4.16,0.58 -1.36,2.92 -1.6,2.7 -0.95,3.14 0.71,5.06 -2.23,4.91 -2.81,2.44 -2.49,3.35 0,0 -0.9,-0.95 -2.85,-2.19 -3.47,-1.8 -0.04,-0.75 0.53,-0.52 0.23,-0.88 -1.12,-2.97 -5.18,-4.03 -1.76,-0.99 -2.07,-0.68 -2.16,-0.33 -0.03,-0.97 -1.53,-1.3 -4.35,-2.65 -1.85,-0.33 -3.08,-1.49 -1.81,-0.55 -0.71,0.04 -0.54,1.1 -1.68,-0.19 -2.2,-0.91 -0.920001,-0.98 -0.97,-0.5 -1.99,-0.33 -2.52,0.38 -0.59,1.63 -0.54,0.44 -0.8,-0.05 -3.52,-2.02 -0.34,-1.24 -0.61,-0.4 -1.91,1.22 -0.93,-0.14 -0.36,0.53 -0.48,-0.14 -0.16,-1.64 -1.93,-1.57 -0.8,-0.09 -1.73,0.87 -2.03,-0.02 -2.51,-0.95 -2.08,0.56 -1.14,-0.81 -2.07,-0.24 -1.76,-1.52 -1.73,0.34 -1.19,-0.28 -3.01,0.02 -0.7,-0.45 -0.21,-1.33 -0.97,-0.85 -1.41,-0.41 -1.24,0.08 -0.71,0.39 0.04,0.62 -0.31,0.48 -2.77,-1.39 0.4,-0.84 0.58,-0.26 0.27,-0.84 -0.42,-2.75 -0.78,-1.64 -1.36,-1.87 0.18,-0.71 -1.22,-2.4 -3.81,-4.76 -0.56,-1.24 -1.41,-1.29 -1.37,-0.76 -3.69,-3.83 -1.05,-1.51 -0.69,-2.62 -0.52,-0.89 -2.37,-2.06 -0.35,-0.84 -0.48,-0.18 -0.87,-1.42 -2.85,-3.61 -0.07,-1.99 -1.14,-1.25 -1.37,-5.81 -1.23,-1.52 -0.12,-1.37 -2.17,-4.8 -3.02,-4.1 0.14,-1.11 -0.47,-1.95 0.06,-1.77 -2.22,-4.89 -0.16,-1.95 0.59,-1.94 -1.08,-3.82 2.37,-2.15 0.89,-1.37 -0.78,-2.27 -1.05,-1.74 -1.58,-1.65 -0.61,-1.07 -0.93,-0.32 -0.44,-0.58 -0.49,0.22 -0.66,-0.67 -0.49,-0.05 -0.08,-0.62 0.72,-1.72 1.29,-0.92 0.66,-0.04 0.61,0.67 0.54,-0.92 0.8,0.09 0.45,-0.66 0.37,-1.55 0.67,-0.39 1.67,-3.4 0.58,-0.13 0.49,-0.57 0.63,-1.55 0.53,0.18 0.39,0.89 2.21,0.37 0.75,-0.39 0.72,-0.79 1.09,-3.89 -0.51,-2.57 1.24,0.14 0.48,0.93 1.16,-0.61 0.99,-1.5 0.19,-1.5 -0.66,-0.63 -0.38,-2.57 -1.46,-0.94 0.23,-0.53 -0.44,-0.36 -0.89,-0.14 -0.48,-0.49 -0.03,-1.6 -1.01,-1.07 0.76,-0.75 -0.57,-1.11 -1.37,-0.94 0.09,-0.4 2.97,-0.51 0.59,-1.1 0.8,-0.57 -0.08,-0.71 0.58,-0.79 -0.04,-0.35 1.16,-0.88 1.28,0.41 0.93,-0.17 0.48,1.16 1.19,1.03 1.29,-0.04 3.61,-3.03 2.22,-0.82 1.79,-1.71 0.13,0.4 0.79,0.54 0.8,-0.04 1.12,-1.45 -0.18,-0.4 0.18,-0.44 -0.74,-1.42 0.13,-0.31 2.04,-0.16 1.47,-0.65 0.54,-0.53 -0.34,-1.6 0.36,-0.53 1.5,0.15 0.45,-0.62 2.17,0.42 0.54,-0.44 0.41,-0.88 0.23,-1.5 1.33,0.23 0.37,-1.81 0.72,-0.66 1.11,-0.43 0.28,-1.55 -0.24,-0.7 -0.66,-0.67 -3.76,-1.32 -0.89,0.35 -1.34,1.19 -1.95,0.38 -0.02,2.22 -0.71,0.3 -0.45,1.33 -1.64,0.47 -0.4,0.66 -1.11,-0.41 -0.08,-0.4 1.69,-1 0.5,-1.59 -0.75,-0.54 0.63,-1.19 0.44,0.05 0.41,-0.66 0.97,0.05 0.72,-1.15 -0.13,-0.36 -0.84,-0.36 -0.8,0.04 0.81,-1.01 0.97,-0.08 0.59,-1.19 -0.48,-0.67 0.14,-0.4 1.42,0.37 2.18,-1.44 0.32,-0.75 -1.45,-6.840002 -0.98,-2.62 0.48,-1.47 -0.25,-2 0.96,-3.14 0.1,-1.24 -1.27,-1.92 -2.16,-2.02 -0.88,-1.29 -0.91,-2.22 -2.71,0.24 -0.83,-1.03 -1.38,0.08 -0.66,-0.67 -0.75,-0.1 -1.69,0.3 -1.68,-1.08 -1.55,-0.01 -1.17,0.11 -1.29,0.65 -1.17,1.72 -2.38,-1.44 -2.74,-0.86 -0.89,0.04 -0.35,-1.16 -0.52,-0.89 -0.67,-0.49 -0.35,-0.85 0.19,-1.37 2.83,0.6 0.14,-0.8 -1.18,-2.32 -2.49,0.69 -1.46,-0.1 -2.39,-1.04 -5.11,-0.12 -1.39,-3.44 -0.66,-0.54 -2.35,-0.69 -5.1299996,-2.22 -1.01,-0.85 -1.68,-0.63 -1.02,0.04 -0.71,0.53 -3.2,0.82 -1.02000001,-0.36 1.83000001,-1.1 2.53,-0.51 1.69,-0.87 0.67,-0.7 2.8399996,-0.42 1.16,-0.61 1.69,-0.21 0.58,-0.39 0.4,-0.75 2.27,-0.47 1.04,-2.08 -0.79,-0.98 -3.01,-1.62 2.09,-0.03 0.54,-0.31 5.32,0.98 0.71,-0.53 1.38,0.1 1.1,0.72 0.71,-0.17 1.23,1.3 0.08,0.62 -0.89,0.75 0.43,2 0.57,0.54 1.24,0.14 1.23,1.12 1.69,0.1 0.71,-0.44 0.18,-0.62 -0.22,-0.67 -1.5,-1.57 0.14,-0.49 0.98,0.01 0.77,-1.37 0.84,0.36 0.36,-0.58 1.78,-0.12 0.67,0.23 0.44,1.02 0.98,-0.79 1.73,0.24 0.63,-0.57 1.24,-0.03 1.02,0.32 0.66,0.58 0.45,-0.31 0.8,0.1 0.53,0.76 -0.23,0.84 0.88,0.72 0.97,0.14 0.45,-0.48 0.02,-1.91 1.25,-0.39 0.45,-0.79 -0.26,-0.71 -2.86,-1.49 0.44,-0.93 1.64,0.32 0.32,-0.97 0.76,-0.35 1.6,-0.08 0.72,-0.79 0.19,-1.37 -0.39,-0.89 -0.79,-0.67 -2.27,-1.17 -2.98,-3.5 -0.71,-0.41 -1.42,-0.14 -1.01,-0.76 -1.59,-0.68 -1.63,-2.01 1.48,-2.03 1.51,0.01 0.23,-0.44 -0.48,-0.71 0.09,-0.44 0.71,-0.44 1.2,0.19 0.45,-0.4 1.76,1.61 0.26,0.98 0.35,0.31 4.17,0.79 1.65,-0.48 1.03,-0.92 1.11,-0.39 0.59,-0.84 0.23,-0.84 -0.42,-3.25 -1.14,-1.21 -0.97,-0.36 -1.15,-1.16 -1.59,0.07 3.17,-5.72 3.21,-4.96 0.77,-1.75 6.64,-10.5700003 0.83,-1.56 0.61,-2.38 0.75,-0.63 0.89,-0.04 8.28,1.27 1.45,0.39 1.44,1.42 3.68,4.73 1.14,2.0200003 1.02,0.66 z"
     title="Guanacaste"
     id="CR-G" />
  <path
     d="m 369.00363,83.940858 1.54,2.45 0.54,1.26 2.24,1.2 0.68,0.71 0.78,0.5 1.23,0.37 1.08,0.66 0.38,0.65 0.24,1.62 0.96,1.02 1.67,0.52 2.22,0.38 0.88,0.46 0.38,0.75 0.14,0.74 0.87,1.15 1.43,0.17 1.64,-0.47 2.29,-0.9 1.25,-1.16 3.41,0.2 1.33,0.42 1.83,-0.17 1.16,-1.22 1.53,-0.94 1.09,-1.13 0.65,-1.38 1.49,-0.67 0.74,-0.09 3.16,0.25 2.11,-1.79 1.67,-2.2 0.55,-0.48 1.48,0.19 3.81,-0.1 1.09,-0.44 0,0 2.94,1.37 -0.29,2.03 -0.59,1.81 3.18,2.86 2.23,1.73 1.42,1.35 1.16,2.630002 -5.23,0.03 -6.28,-0.23 -2.3,2.2 -2.34,0.53 -2.13,0.11 -2.06,2.43 -1.55,2.47 -2.76,-0.16 -1.42,3.05 -0.42,5.91 0.62,1.66 1.66,2.09 -2.44,5.62 -0.07,3.82 2.5,5.71 1.22,4.88 -1.45,3.97 0.64,2.3 -2.15,1.44 -3,-0.03 -3.54,5.18 -0.5,2.79 1.8,5.09 2.8,3.68 0.93,5.23 0.32,5.65 -1.47,3.05 -2.09,3.52 -1.49,4.95 -1.59,2.7 -2.05,3 -2.12,2.54 -3.67,2.53 0,0 -9.21,6.26 -1.67,2.18 0.12,2.54 -0.29,6.53 -1.62,2.06 -2.28,0.52 -3.39,0.21 -0.82,1.64 -0.13,1.68 -0.48,1.22 1.08,1.94 2.39,3.45 -0.5,2.9 -1.02,2.86 -2.45,2.83 -3.06,1.82 -2.9,1.18 -2.88,-0.04 -1.13,0.61 -2.35,0.35 -3.6,1.08 -0.88,-0.55 -2.88,-0.39 -3.48,1.2 -2.42,-0.23 -0.92,-0.2 -1.28,-0.55 -2.2,-0.57 0,0 -1.38,-4.41 2.92,-2.56 1.09,-2.28 1.32,-4.59 -0.01,-2.66 1.36,-2.86 0.05,-4.97 -0.9,-14.52 0.4,-22.48 0.12,-24.27 -0.1,-32.71 1.34,-38.680002 0,0 1.19,0.02 3.12,-0.43 1.23,3.47 1.72,0.37 1.99,-1.23 0.81,-0.04 1.26,0.29 3.05,1.69 1.91,0.13 1.17,-0.33 0.54,-1.79 0.9,-0.91 0.81,-0.23 0.86,0.18 1.77,0.78 0.18,-1.34 0.42,-1.08 0.64,-0.33 1.34,0.07 z"
     title="Heredia"
     id="CR-H" />
  <path
     d="m 446.82363,71.210858 1.38,5.79 2.26,6.34 -3.67,0.58 -1.15,-3.47 -0.95,-3.67 -1.72,-3.66 -1.33,3.28 1.14,3.47 1.53,3.86 0.95,3.66 -0.19,3.86 -1.72,3.09 -3.24,1.35 3.82,-0.58 2.48,-2.89 1.33,3.47 0.96,-3.47 2.23,-5.49 0.31,2.57 1.77,5.53 -0.3,0.51 0.37,1.19 0.26,-0.1 2.27,5.540002 1.35,4.19 4.06,9.11 0.42,1.65 1.81,3.48 0.15,1.78 -0.35,2.21 2.73,6.6 0.69,1.34 0.19,-0.79 -2.8,-7.67 0.36,-0.7 3.63,8.52 0.65,0.99 0.63,2.45 1.1,2.76 2.12,3.23 3.44,6.57 3.67,5.73 2.15,4.38 1.69,1.8 4.98,6.99 1.89,3.36 4.76,4.73 -0.06,0.88 -0.75,-0.14 -0.96,-0.86 -0.57,-0.16 0.03,0.59 2.93,2.05 0.23,-0.75 0.83,0.72 6.16,7.64 4.58,6.76 0.34,1.02 0.56,0.72 -0.05,0.58 1.17,1.26 1.03,1.69 0.17,0.72 -0.64,1.72 0.06,0.47 1.02,-0.52 0.39,0.13 0.16,-0.35 -0.63,-1.86 -1.84,-3.78 0.41,-0.48 0.78,0.72 2.38,3.59 6.98,8.26 0.3,0.72 -0.35,-0.05 -0.36,0.39 0.47,0.71 0.67,2.27 0.7,0.5 0.67,-0.08 -1.04,-1.61 0.23,-0.74 4.59,5.34 0.45,0.29 1.04,1.88 1.08,0.98 1.12,1.79 3.14,2.97 9.15,12.51 1,1.12 2.99,1.38 0.97,-0.37 0.73,-0.96 0.67,-0.39 1.19,-0.02 1.35,-0.86 0.66,0.01 1.13,1.04 1.34,-0.6 2.76,1.33 1.01,0.91 -0.24,0.97 0.34,0.76 -0.65,1.84 0.06,1.15 3.99,6.98 3.57,3.51 0.94,1.3 -0.14,0.44 -0.8,0.47 0.17,0.31 1.67,0.57 1.9,2.55 8.65,10.68 3.61,5.51 5.2,5.84 3.4,4.93 1.8,0.78 1.52,1.49 1.76,0.39 1.94,-0.01 2.2,-1.77 0.75,0.19 0.39,0.58 -1.46,1.92 -0.21,1.94 0.78,0.9 2.9,5.8 0.67,2 1.48,0.87 0.51,1.51 1.21,1.08 3.52,0.91 1.51,-0.63 0.71,0.14 3.84,2.15 1.33,0.03 2.54,1.11 1.81,0.26 0.97,-0.16 1.12,-0.73 1.79,1.05 2.33,0.44 1.16,-0.15 1.16,-0.86 1.15,0.02 1.66,0.92 1.16,-0.38 1.14,0.12 1.3,1.26 -0.3,2.07 0.91,0.94 0.29,1.11 0.69,0.68 0.68,1.29 1.26,1.09 5.21,2.53 1.48,1.09 0.66,0.24 0.39,0.33 0.33,1.44 1.03,2.69 -0.1,0.92 -1.51,-0.03 -0.49,-0.43 -1.53,-2.62 -0.99,-0.86 -2.41,-0.22 -1.34,0.14 -0.78,0.9 -0.17,0.59 0.14,1.17 0.94,3.03 -0.55,2.07 -1.83,3.64 -0.68,0.57 -1.99,-0.55 -0.84,-0.01 -0.67,0.32 -0.77,0.82 -1.25,-0.03 -0.99,-0.94 -1.04,-2.19 -0.5,-0.01 -1.35,0.89 -1.02,0.98 -0.64,-1.6 -0.99,0.22 -0.36,0.3 -2.6,-0.01 -0.57,-0.41 -0.09,-2.03 -1.61,-1.62 1.39,-0.81 0.32,-0.53 -0.47,-0.84 -1.01,-0.55 -1.12,-1.44 -0.52,1.8 -0.4,0.21 -3.35,-2.75 0.57,-1.79 -0.08,-0.41 -2.25,-0.47 -0.63,-1.68 -0.57,-0.43 -1.58,-0.62 -1.92,0.05 -1.47,-1.62 -2.8,-1.9 -0.59,-0.17 -3.45,1.35 -1.64,-1.46 -2.48,-1.47 -0.73,-1.1 -3.43,0.18 -0.92,0.64 -0.69,-0.05 -0.41,0.7 -0.48,2.03 -2.28,1.59 -0.73,3.74 -0.82,0.95 0.61,0.5 -0.08,2.07 0.48,0.19 1.29,-0.28 0.65,0.67 -0.24,0.88 0.34,0.93 -0.68,1.05 0.51,0.94 -0.51,1.09 0.26,0.62 0.82,0.86 2.03,-0.1 0.3,0.5 -0.99,0.95 0.17,0.27 0.53,0.05 0.68,-0.56 0.74,0.37 0.36,0.79 0.84,-0.04 0.28,0.92 -0.39,0.45 -3.44,0.99 -11.69,2.43 -2.14,0.72 -0.39,0.45 -0.27,6.15 0.11,17.49 0.4,2.66 0.02,44.68 0.22,4.33 0.43,1.07 0.5,0.33 0,0 0.41,2.27 -4.99,-1.48 -2.58,-1.94 -2,-3.81 -1.96,-11 -2.74,-1.48 -5.78,-1 -4.06,-1.1 -0.31,-1.03 0.61,-3.13 -2.37,-4.77 0.34,-2.2 -0.68,-3.9 -2.55,-0.91 -5.02,-2.63 -4.14,-1.9 -2.67,-0.91 -4.12,-5.83 -2.88,-2.51 -3.74,0.33 -3.25,0.84 -3.19,-0.72 -2.51,-3.57 -1.58,-0.99 -4.74,-0.91 -2.82,-2.23 -2.13,-2.3 -3.85,-2.03 -2.73,1.28 -0.72,1 -0.32,3.18 -0.94,1.46 -2.08,-0.46 -1.72,0.16 -3.01,1.41 -1.92,1.55 -0.46,-2.35 -1.78,-1.8 -3.42,-1.29 0,0 -4.5,-3.25 -4,-8.19 -2.02,-4.84 -1.3,-5.96 -3.18,-2.85 0,0 -0.93,-3.71 -0.69,-2.11 0.33,-2.72 -0.35,-2.58 -1.35,-3.42 -1.27,-2.1 10.45,-9.62 3.55,-2.7 4.1,-3.91 1.21,-4.07 0.17,-4.73 1.87,-3.23 2.17,-2.76 2.52,-2.84 7.43,-10.3 3.64,-4.08 -1.48,-3.82 0.36,-1.34 -0.05,-4.38 -1.41,-3.31 -0.79,-3.96 -0.11,-4.2 2.69,-0.54 -0.06,-2.13 0.92,-2.11 2.56,-1.22 1.16,-1.76 -25.3,0.17 -31.8,-0.17 -19.51,-9.28 -13.02,-5.47 -5.84,-3.31 -24.84,-13.29 0,0 2.26,-5.84 1.1,-2.22 0,0 3.67,-2.53 2.12,-2.54 2.05,-3 1.59,-2.7 1.49,-4.95 2.09,-3.52 1.47,-3.05 -0.32,-5.65 -0.93,-5.23 -2.8,-3.68 -1.8,-5.09 0.5,-2.79 3.54,-5.18 3,0.03 2.15,-1.44 -0.64,-2.3 1.45,-3.97 -1.22,-4.88 -2.5,-5.71 0.07,-3.82 2.44,-5.62 -1.66,-2.09 -0.62,-1.66 0.42,-5.91 1.42,-3.05 2.76,0.16 1.55,-2.47 2.06,-2.43 2.13,-0.11 2.34,-0.53 2.3,-2.2 6.28,0.23 5.23,-0.03 -1.16,-2.630002 -1.42,-1.35 -2.23,-1.73 -3.18,-2.86 0.59,-1.81 0.29,-2.03 -2.94,-1.37 0,0 1.94,-1.52 2.01,-0.9 2.44,-0.19 1.3,-1.09 1.07,-0.11 1.78,0.73 3.36,-0.65 1.61,-0.82 2.1,-3.12 0.44,-2 -1.79,-5.2 -0.03,-2.21 0.6,-3.68 -0.24,-1.34 -0.72,-1.23 -0.99,-0.95 0.72,-2.94 -0.52,-0.95 -2.7,-3 -0.05,-0.74 0.21,-0.39 2.07,0.45 1.94,0.65 3.98,3.57 3.23,3.69 z"
     title="Limón"
     id="CR-L" />
  <path
     d="m 222.69363,143.64086 3.38,-0.32 2.21,3.06 1.78,0.01 1.24,0.95 0.43,1.08 -0.03,1.27 0.6,1.03 -0.96,0.43 -4.38,-0.29 -2.99,0.08 0,0 -3.32,-1.58 -4.36,-1.85 -4.38,-0.68 -0.39,-3.87 -2.76,-1.94 -2.43,-0.69 -3.18,-0.61 -3.26,-1.64 -2.31,-2.6 -2.31,-0.4 0.16,1.73 -1.74,-0.35 -3.52,-2.74 -5.06,-4.43 2.59,0.16 1.09,-0.14 0.38,-1.05 3,0.32 1.17,1.01 1.94,-0.69 0.47,-1.92 3.02,1.36 0.91,-0.49 0.71,0.79 -0.26,0.99 0.05,1.79 2.88,0.45 3.04,1.7 3.87,2.96 1.79,2.61 5.49,5.46 2.82,0.15 z"
     class="water"
     title="Laguna de Arenal"
     id="CR-LA" />
  <path
     d="m 393.32363,482.60086 -1.1,0.11 -0.92,-0.41 -0.34,-0.67 0.5,-0.87 0.01,-0.88 3.74,0.19 0.13,0.31 -1.3,1.61 -0.72,0.61 z m 50.99,-41.84 -0.67,0.3 -0.35,-0.31 -0.69,-3.62 0.93,-0.47 0.66,0.32 0.81,1.86 -0.2,1.28 -0.49,0.64 z m -0.6,-6.79 -0.86,1.22 -0.75,-0.1 -0.43,-0.62 0.18,-2.77 -0.25,-6.7 -1.98,-5.67 0.93,-0.16 0.97,0.24 0.63,1.73 -0.01,0.75 1.28,2.97 -0.34,2.02 0.11,1.19 1.55,4.92 -0.23,0.61 -0.8,0.37 z m -241.63,-185.53 -3.67,0.18 -0.97,-0.58 -0.61,-0.89 0.14,-0.44 2.09,-0.73 0.09,-0.57 -0.39,-0.58 3.23,0.43 -0.2,2.21 0.65,0.76 -0.36,0.21 z m -31.77,-11.06 2.2,1.71 0.35,0.62 -3.58,-0.13 -1.16,1.05 -0.79,-0.32 -0.52,-1.2 -1.19,-0.81 0.01,-0.53 0.67,-0.39 1.55,0.06 0.4,-0.44 2.06,0.38 z m 11.58,-0.75 2.92,1.09 1.99,0.24 0.96,0.85 0.76,-0.12 0.22,0.49 -0.54,0.44 -2.65,-0.25 -5.42,-1.79 -1.24,0.07 -0.13,-0.4 1.02,-0.43 2.11,-0.19 z m -4.23,-0.18 -0.49,0.39 -3.84,-0.97 -0.75,-0.54 0.18,-0.48 4.9,1.6 z m -17.11,3.83 0.79,0.72 1.81,0.24 1.33,-0.96 1.42,0.1 0.3,1.2 0.8,-0.17 0.25,1.11 0.8,-0.08 1.34,-1.62 0.98,-0.43 0.84,0.01 4.61,2.84 1.17,1.87 2.32,2.46 0.92,0.28 2.52,-0.33 2.65,0.43 0.8,-0.48 2.79,-0.14 1.98,0.91 1.9,0.42 1.54,1.17 1.76,0.64 0.52,0.67 -0.19,1.02 0.25,1.2 0.52,0.8 -0.45,0.83 -1.2,0.38 -1.48,1.71 -0.33,1.37 0.21,0.84 1.84,1.83 0.97,-0.03 0.34,0.84 -0.05,0.75 0.39,0.36 0.84,-0.12 0.79,0.94 -0.31,0.39 -1.5,-0.19 -2.01,1.88 -0.14,0.57 0.35,0.76 1.53,1.26 1.23,0.46 0.88,-0.08 0.36,-0.44 1.28,-0.12 0.89,-0.52 1.54,0.37 1.15,-0.16 2.6,0.69 0.08,0.4 -0.36,0.79 -2.13,0.82 -0.46,1.14 -1.99,0.07 -0.98,0.25 -0.31,0.39 -0.55,1.67 -0.63,0.74 -3.33,0.89 -0.23,0.44 0.52,1.02 -1.67,2.85 -0.46,1.5 -0.62,0.35 -1.81,-0.24 -0.45,0.44 -0.66,-0.18 -0.72,1.8 0.6,1.82 -0.01,1.02 -0.36,0.83 -1.2,0.61 -2.2,-0.64 -1.66,-1.52 -1.76,-0.77 -0.66,-0.67 -1.64,0.25 -1.16,0.92 -1.39,2.06 -0.33,1.46 0.21,1.11 2.38,0.96 0.8,0.73 0.12,0.65 -1.03,1.71 -1.56,1.04 -3.1,0.81 -0.93,0.52 -1.34,1.71 -2.62,0.99 -2.69,3.19 -1.68,4.18 -0.11,1.99 -2.42,7.44 -0.72,1.63 -2.75,0.9 -0.32,0.97 0.21,1.06 -0.27,0.3 -0.83,-1.02 -0.39,-1.15 -0.96,-0.67 -2.16,-0.46 -1.66,-1.74 -0.61,-1.33 -0.43,-5.57 -0.74,-0.93 -1.93,-1.39 -7.91,-8.7 -1.03,-3.41 -0.69,-1.33 -0.96,-0.94 -0.77,-2.17 -2.55,-3.06 0,0 2.49,-3.35 2.81,-2.44 2.23,-4.91 -0.71,-5.06 0.95,-3.14 1.6,-2.7 1.36,-2.92 -4.16,-0.58 -4.41,-7.9 -4.47,-1.55 -3.64,-0.48 -4.11,-0.93 -2.05,-1.56 -0.02,-2.89 3.03,-2.91 3.84,-0.45 2.79,-0.88 4.18,-0.86 1.06,-1.13 3.63,0.31 2.29,-0.52 2.24,-2.25 1.59,-5.07 0.87,-1.21 0,0 -0.27,0.48 0.92,1.12 1.67,0.77 3.86,3.45 2.25,0.51 0.3,1.24 0.61,0.76 0.8,0.07 z m -7.73,-27.06 0.93,0.1 0.97,-0.25 2.25,1 2.39,0.51 0.66,0.45 0.76,-0.13 0.39,0.58 -0.36,0.75 -0.97,0.08 -1.54,-0.72 -0.76,0.44 -5.17,-0.94 -0.96,-1.21 -0.27,0.13 -0.18,0.53 0.74,1.16 0.88,0.45 1.11,0.06 0.48,0.76 0.58,-0.04 0.49,-0.57 0.62,0.32 0.66,-0.13 1.06,0.28 1,1.34 0.53,0.32 1.15,-0.21 1.2,-0.74 1.72,0.02 0.08,0.66 -0.5,0.88 -0.93,0.43 -0.05,0.4 -3.56,1.47 -0.97,-0.14 -4.04,0.84 -3.05,-0.25 -2.95,-1.49 -0.74,-0.76 -0.61,-0.94 -0.98,-3.68 -0.57,-0.8 0.54,-0.92 1.02,0.05 2.85,-1.34 1.99,0.2 2.11,1.05 z m 67.88,-39.17 3.35,4.88 6.39,4.45 4.16,-1.44 2.55,-1.57 2.91,-0.95 1.98,0.7 1.96,2.49 2.37,2.48 1.08,3.78 -1.57,3.8 -1.55,2.41 -1.52,3.22 2.22,1.5 -0.39,2.61 0.31,5.13 0.03,3.18 2.98,6.04 1.14,1.93 2.74,1.25 0.67,3.85 0.76,2.41 6.73,0.11 3.52,0.42 2.96,2.98 0.44,3.57 -0.95,3.37 -4.33,1.62 -2.98,2.8 -2.45,3.24 -2.98,0.25 -3.1,0.08 -1.62,1.83 -2.29,4.91 -2.34,0.76 -1.39,1.77 -0.25,3.47 1.5,2.44 4.86,0.85 3.45,-0.15 2.82,0.16 2.9,0.79 0.35,2.53 1.01,1.3 2.04,0.93 1.64,1.23 0,0 -2.01,2.25 -0.11,2.54 3.28,-0.09 1.56,4.4 2.7,-0.07 1.26,2.04 -3.48,3.1 -4.61,-0.22 -1.3,0.84 -0.54,5.67 1.56,4.52 -0.45,4.57 0.93,2.51 4.5,4.84 0.1,3.63 0.95,3.38 2.61,3.16 1.34,0.54 3.54,1.06 5.98,-0.16 3.49,-0.67 3.21,-0.43 0.93,2.68 1.94,1.62 2.9,-3.25 2.28,-3 1.88,-2.82 -1.6,-3.82 1.43,-2.4 4.45,0.63 3.27,-0.43 6.03,-0.22 3.27,-2.4 4.5,2.82 5.34,1.87 3.16,-0.03 2.58,-0.19 4.14,2.14 6.04,-2.12 4.09,0.41 1.58,0.82 0.98,2.22 -0.7,6.01 2.22,3.4 2.21,0.75 3.75,-1.6 4.19,1.73 -0.51,6.65 0.33,3.85 3.37,1.35 2.58,4.03 3.38,1.7 3.76,2.84 0.33,1.66 1.46,2.9 2.92,-0.66 1.79,4.45 3.71,3.36 3.55,-0.67 1.21,-1.99 1.51,-1.54 3.07,0.67 0.61,3.33 2.25,4.78 2.6,2.75 2.17,1.56 2.07,0.12 2.27,0.97 -2.01,4.38 0.03,3.17 0.57,6.5 5.18,4.3 6.42,3.28 4.97,0.85 4.29,-5.19 6.39,4.49 3.55,5.95 2.27,5.24 2.11,3.69 3.6,1.11 4.6,2.12 3.16,4.35 9.02,3.73 2.52,1.89 4.07,-0.46 3.13,-1.47 1.85,-1.66 1.41,-3.09 0.07,-3.97 2.8,-2.84 1.56,-4.19 -0.27,-1.61 -1.17,-2.73 -4.03,0.05 -2.68,-1.14 -2,-1.73 0.14,-1.16 2.22,-3.11 0.41,-4.16 -0.26,-1.2 1.66,-2.46 2.26,-1.56 1.79,-1.78 2.83,-5.95 2.75,-2.72 1.76,-2.99 2.67,-3.59 0,0 3.43,1.29 1.77,1.8 0.46,2.35 1.92,-1.55 3.01,-1.41 1.72,-0.16 2.08,0.46 0.94,-1.47 0.32,-3.18 0.72,-1 2.73,-1.28 3.85,2.03 2.13,2.3 2.82,2.23 4.74,0.91 1.58,1 2.51,3.56 3.18,0.72 3.26,-0.83 3.73,-0.33 2.89,2.52 4.12,5.82 2.67,0.91 4.13,1.9 5.02,2.63 2.56,0.91 0.68,3.9 -0.34,2.2 2.37,4.78 -0.61,3.13 0.32,1.03 4.05,1.1 5.78,1 2.75,1.48 1.96,11.01 2,3.8 2.58,1.95 4.99,1.48 -0.41,-2.27 0,0 0.33,0.22 5.6,-3 1.22,-0.13 1.13,0.33 2.27,4.14 1.18,1.54 9.97,6.27 2.97,3.25 7.1,1.81 3.44,2.42 0.74,0.85 1.36,4.28 3.8,3.34 0.11,2.05 -0.33,1.13 -5.76,3.07 -1.34,2.63 -1.95,2.46 -1.23,0.73 -6.78,1.38 -1,0.44 -1.55,1.71 -1.38,0.5 -5.1,0.73 -1.38,0.5 -1.62,1.03 -2.25,2.54 -0.41,1.51 0.36,0.92 2.6,2.56 -0.02,0.91 -0.55,1.05 -0.92,0.67 -3.45,1.52 -0.27,2.27 -3.28,0.77 -1.08,0.81 0.64,1.59 -0.07,0.73 -0.64,0.89 -0.01,0.62 2.63,3.11 1.3,3.22 2.98,2.21 2.58,1.33 0.58,0.72 0.44,2.24 1.41,1.5 0.5,1.93 1.61,1.56 2.01,2.87 1.01,1.97 -0.14,1.41 -1.27,1.44 0.1,0.57 0.94,1.04 -0.1,3.39 1.14,2.57 0.03,1.21 -0.63,1.57 -1.55,1.41 -0.53,0.87 0.87,4.63 0.08,3.06 -0.87,3.94 -1.83,3.86 -2.15,3.01 -1.49,1.16 -2.23,1.09 -4.15,1.1 -1.92,0.02 -1.41,-0.42 -2.03,-0.1 -4.1,4.22 -4.46,5.34 -3.85,3.43 -4.63,2.57 -4.26,1.33 -1.31,0.65 -0.64,0.67 -0.25,1.12 0.14,1.42 1.31,2.12 3.54,1.09 0.89,0.58 4.39,3.53 1.37,2.12 0.73,0.07 2.73,-0.96 4.5,1.22 2.07,1.11 0.38,0.8 0.45,3.06 0.71,1.54 -0.34,5.81 3.01,1.75 1.5,1.55 0.37,4.07 -0.51,3.1 3.33,8.65 0.17,5.76 -1.07,5.45 -0.17,3.74 -0.21,-0.27 -1.27,-0.11 -0.7,-0.41 -2.17,-3.69 0.37,-1.22 -0.06,-1.71 0.27,-0.3 0.92,-0.12 0.63,-0.6 0.47,-1.44 0.16,-1.62 -0.43,-2.86 -1.76,-2.36 -0.41,-1.5 -1.2,-1.43 -0.38,-0.93 -0.35,-2.56 -2.49,-5.58 -6.81,-10.01 -3.58,-3.5 -3.62,-1.47 -10.02,-7.66 -9.53,-5.45 -2.59,-2.6 -1.87,-1.26 -1.41,-2.09 -0.26,-2.56 0.25,-1.71 0.87,-1.74 3.17,-2.67 2.09,-1.24 1.03,-1.17 0.45,-3.16 1.43,-1.51 0.54,-0.96 -0.07,-0.84 -1.75,-3.38 -1.84,-2.72 -5.31,-6.08 -0.95,-3.41 -0.94,-1.42 0.53,-0.08 0.91,0.59 0.63,1.9 0.78,0.63 0.66,-0.12 -0.25,-0.8 -0.56,-0.41 0.06,-0.88 0.62,-0.38 2.19,0.44 2.24,-2.34 1.55,0.29 0.01,-0.42 -0.76,-0.43 -1.19,-0.11 -3.11,1.66 -0.92,-0.02 -1.08,-0.94 -0.86,-1.47 -1.31,-0.46 -0.74,-0.63 -4.64,-6.29 -0.28,-1.46 1.55,-2.96 0.88,0.37 0.45,1.81 0.65,0.54 1.18,0.33 0.12,0.62 -0.86,1.26 0.82,0.94 -1.04,1.39 0.85,1.56 2.71,-1.58 1.03,-1.08 1.05,0.06 0.74,0.5 0.68,-0.96 -0.08,-0.53 -1.22,-0.59 -0.93,0.42 -0.39,-0.23 -0.45,-1.72 -3.71,-4.64 -1.79,-0.82 -0.99,-1.25 -0.89,0.6 -0.56,-0.58 -0.57,-0.05 -0.36,0.35 0.04,0.26 1.31,0.46 0.3,0.58 0.07,1.1 -0.41,0.83 -0.66,0.3 -0.66,-0.06 -0.65,-0.58 -1.89,-0.12 -1.13,-0.94 -0.93,0.38 -0.83,-0.19 -0.3,-0.31 0.41,-0.78 -0.17,-0.49 -0.74,-0.32 -2.68,-0.09 -1.01,2.32 -0.61,-0.19 -1.33,-2.18 -0.96,-2.96 -0.57,-0.27 -1.55,0.54 -2.76,-0.93 -1.06,0.11 -1.43,1.03 -2.5,-3.13 -0.79,-0.41 -1.32,-0.15 -0.65,-0.32 -0.38,-0.76 -1.14,-0.42 -0.44,-0.4 0.63,-0.78 -0.59,-1.77 0.55,-1.31 0.07,-1.32 1.11,-0.86 0.29,-1.84 -1.22,-0.64 -0.98,0.95 -0.62,-0.01 -0.43,-0.58 -1.1,-0.2 -1.21,-1.52 -0.83,-0.19 -0.45,0.57 -1.67,-0.51 -1.89,-0.16 -0.3,-0.18 -0.15,-1.5 -0.39,-0.27 -0.76,0.47 -0.06,0.79 -0.93,0.6 -0.19,1.1 -0.4,0.26 -0.84,-0.06 -0.12,-0.8 -0.43,-0.4 -0.67,0.34 -0.66,-0.1 -1.8,2.43 -1.74,1.12 -1.46,0.33 -1.05,-0.24 -0.33,-1.19 -2.86,-0.05 -1.53,-0.51 -1.14,0.03 -0.28,0.57 -0.58,0.34 -1.18,-0.2 -1.13,1.7 -0.25,1.93 0.42,1.06 0.7,0.32 0.85,-0.82 0.83,0.1 0.74,0.58 0.12,0.53 -0.82,1.53 0.52,0.54 0.67,-0.56 0.75,-0.03 1.17,0.86 1.43,1.61 1.48,1.04 1.45,2.71 -0.67,3.07 0.12,1.1 0.81,0.61 0.4,0.86 0.87,0.89 2.17,1.75 2.16,2.5 1.65,1.44 1.31,0.73 1.23,-0.02 1.47,1.48 2.6,-0.4 5.2,1.94 2.6,2.55 1.59,2.14 1.53,0.51 1.13,0.9 0.84,-0.47 0.19,-1.05 0.52,0.62 0.25,0.93 -1.06,7.77 0.6,1.02 3.37,3.8 -0.23,0.83 -0.68,0.91 -1.97,1.77 0.16,0.79 2.02,2.98 0.21,0.84 -1.57,4.15 0.65,2.96 -0.73,1.61 -2.05,1.33 -4.37,-1.53 -5.06,-2.42 -7.39,-2.5 -5.5,-2.51 -3.18,-1.95 -2.05,-0.74 -9.08,-1.82 -4.13,-0.25 -2.38,0.05 -4.19,0.68 -0.27,0.26 -1.22,-0.46 -1.99,0.58 -1.23,-0.2 -4.74,-3.46 -0.5,-1.81 -1.46,-1.92 -2.47,-2.28 -4.05,-2.35 -7.4,-8.26 -6.19,-6.39 -2.06,-0.61 -0.25,-0.66 -0.84,0.38 -0.72,0.74 -0.64,-1.02 -0.58,-2.39 -1.68,-2.53 0.06,-0.7 1.31,-2.4 0.42,-1.67 1.03,-1.35 1.37,-0.51 0.36,-0.61 0.46,-4.04 0.46,-1.09 2.1,-1.77 1.95,-0.67 5.77,-0.35 0.89,-0.34 0.67,-0.87 0.64,-1.79 -0.23,-2.2 0.64,-1.88 1.03,-1.22 1.33,-0.51 0.72,-0.96 -0.47,-0.62 -0.7,-0.1 -0.54,0.61 -0.4,0.04 -0.41,-2.08 0.02,-1.23 0.32,-0.79 0.45,-0.43 2.2,-0.1 1.73,-0.72 1.13,-1.88 1,0.63 0.05,-0.53 -1.03,-1.78 0.27,-0.21 2.74,-0.35 1.9,-0.58 1.53,0.55 1.52,-1.17 -0.42,-1.24 -0.35,-0.23 -0.8,0.43 -0.15,-1.72 -0.31,-0.01 -0.36,0.66 -0.42,1.53 -0.89,0.34 -3.04,-0.05 -1.97,-0.38 -0.66,2.63 -0.5,0.96 -1.6,1.08 -0.88,-0.1 -2.51,-2.68 4.79,-5.12 0.98,-0.47 0.72,-0.96 1.15,-0.38 1.07,-0.91 0.72,-1.22 2.04,-0.58 2.36,1.18 1.36,0.11 1.26,0.82 0.58,-0.34 -0.68,-1.24 -1.83,-1.4 -0.34,-0.97 0.41,-0.65 1,0.81 3.48,-0.08 1.11,-0.33 1.71,0.56 1.25,-0.68 0.12,0.53 -1.27,2.58 -0.71,2.81 -0.99,1.26 -0.88,0.34 -1.54,0.02 -1.11,0.69 -0.42,1.23 0.07,1.01 -0.45,0.83 -1.01,-0.19 -0.1,0.4 0.35,0.44 0.79,0.45 0.93,-0.29 0.66,0.1 0.63,-0.7 -0.15,-1.37 0.41,-0.74 1.5,-0.37 1.65,-1.07 1.24,-3.06 -0.06,-1.67 0.59,-1.27 0.75,-0.25 0.91,0.68 0.49,-0.08 2.14,-1.51 3.53,-0.51 0.54,-0.56 -0.34,-0.89 -0.79,-0.41 -0.32,0.61 -0.67,0.47 -2.55,0 -1.96,1.33 -0.52,-0.27 -0.08,-0.79 1.08,-1.26 -0.61,-0.5 -1.2,0.6 -0.92,-0.19 -1.29,1.08 -2.19,-0.7 -2.21,0.49 -1.4,-0.55 -0.95,-1.12 -0.79,-0.1 -0.8,0.47 -0.24,1.28 0.5,1.81 -0.18,0.39 -0.35,-0.01 -0.87,-0.72 -0.54,-1.95 -0.88,-0.19 -2.4,-1.54 -3.74,0.03 1.28,-2.84 0.16,-2.1 1.35,0.98 1.92,0.82 5.1,0.79 1.27,0.64 0.65,0.8 1.75,0.65 -0.49,-2.34 -1.18,-0.77 -0.38,-0.8 0.81,-1.26 0.71,-0.12 1.49,0.6 1.19,-0.07 0.19,-0.88 -0.52,-0.58 -1.63,-0.2 -1.37,0.2 -1.69,0.94 -0.77,1.62 -0.71,0.61 -3.23,-2.04 -0.58,0.17 -1.75,-0.6 -0.7,-0.54 -0.34,-1.11 0.14,-0.39 0.69,0.89 1.84,0.47 1.17,0.99 0.92,0.06 0.49,-0.48 -0.04,-0.53 -3.46,-0.98 -0.44,-0.32 -0.33,-1.24 -0.39,-0.27 -0.74,-0.23 -1.88,1.47 -0.71,0.08 -0.43,-0.36 -0.04,-0.57 0.5,-0.83 2.37,-2.03 0.55,-1.14 -0.21,-0.88 0.53,-3.12 -0.2,-1.63 -1.03,-1.96 0.06,-0.66 -0.62,-2.46 -0.82,-1.43 -0.03,-0.97 0.42,-1.32 0.67,-0.3 2.33,0.08 0.01,-0.35 -2.54,-0.88 -0.63,-1.86 0.16,-1.5 0.67,-0.47 0.01,-0.35 -0.96,-0.19 -0.51,-1.16 -1.32,-0.11 -0.74,-0.36 -1.64,-2.23 -1.53,-0.86 -0.81,0.87 -0.79,0.03 -1.2,-2.49 -2.53,-1.63 0.19,-0.75 -0.25,-0.71 -1.23,-0.42 -1.07,-1.91 -3.65,-3.29 -0.41,-1.6 -2.11,-1.41 -0.97,-1.64 -1.23,-1.15 -0.81,-0.33 -1.82,0.22 -0.85,0.55 -0.47,1.15 -0.44,-0.01 -0.96,-0.72 0.9,-1.22 -0.55,-1.73 -0.13,-2.96 -0.56,-1.02 -2.31,-2.07 -3.89,-2.27 -6.49,-2.7 -2.33,-0.26 -0.26,-0.35 0.51,-1.54 -0.65,-0.89 -1.18,-0.86 -1.77,-2.5 -5.15,-3.74 -1.74,-1.7 0.15,-1.06 -0.61,-0.45 -0.62,0.08 -0.54,0.61 -3.71,-2.7 -0.2,-1.19 -0.44,0.08 -0.36,0.7 -8.93,-4.94 -8.95,-3.84 -0.65,-0.98 0.86,-1.49 -0.52,-0.45 -0.63,0.48 -0.42,1.76 -0.71,-0.01 -1.32,-0.5 -2.76,-1.72 -2.02,-0.56 -2.85,-1.5 -5.37,-1.27 -0.84,0.21 -1.47,0.95 -0.54,-2.35 -0.48,-0.27 -0.53,0.26 -0.59,0.88 -1.1,-0.15 -0.84,0.39 -0.77,-1.78 -1.18,-1.21 -1.1,-0.55 -1.19,-0.11 -0.93,0.34 -0.79,-0.06 1.13,-1.57 1.06,0.28 0.32,-0.79 -0.98,-2.88 0.63,-1.09 -1.34,-1.78 -2.41,-1.27 -1.7,-1.79 -1.08,-1.6 -1.31,-0.9 -3.95,-1.34 -1.48,-1.52 -1.46,-2.89 -1,-0.99 -0.66,-0.23 -0.41,0.66 0.52,1.11 3.48,4.15 1.57,1.08 1.8,0.6 1.46,0.06 0.53,0.32 0.25,0.93 -0.32,0.44 -1.1,0.03 -2.16,-0.65 -0.35,-0.49 -3.07,-1.32 -2.27,-1.62 -1.47,-2.41 -2.29,-0.08 -1.93,-0.98 -1.2,0.22 0.65,0.74 0.57,0.23 3.05,0.53 0.61,0.45 -0.01,0.53 -0.53,0.17 -3.36,-1.01 -1.55,-0.02 -0.44,-0.4 -2.82,-0.21 -0.44,0.17 -1.71,-1.17 -0.75,-0.19 -0.61,-0.54 0.4,-0.48 -0.07,-1.06 -0.48,-0.18 -0.63,0.79 -1.24,0.07 -0.14,0.31 0.3,0.58 -0.27,0.13 -10.3,-2.39 -0.96,-0.85 -0.54,0.52 -2.2,-0.29 -0.84,-0.37 -0.34,-1.29 -0.7,-0.27 -0.76,0.74 -1.15,-0.06 -2.28,-1 -1.33,-0.06 -2.85,-1.14 -1.85,-0.29 -1.12,0.13 -1.45,-0.55 -0.32,0.66 -8.19,1.39 -1.91,-2.23 -0.43,-0.89 1.03,-1.22 -0.43,-0.89 -2.04,0.72 -1.35,-1.21 -0.48,-0.1 0.09,0.67 0.76,0.78 -0.26,0.24 -1.66,-1.48 -0.3,-0.67 -0.8,-0.01 -2.32,-2.02 -4.65,-2.71 -0.66,-0.54 -1.52,-2.45 0.24,-1.37 -1.22,-1.3 -0.25,-0.93 -0.65,-0.94 -0.44,-0.05 -1.14,-0.99 -1.11,0.56 -0.61,-0.23 -1.62,-1.52 -0.3,-0.71 0.94,-0.83 0.27,-0.75 -0.08,-0.71 -1,-1.12 -1.19,-0.5 -2.04,0.55 -0.35,-0.4 -0.08,-0.62 1.34,-1.4 -0.25,-1.11 0.54,-0.88 -0.13,-0.58 -1.22,-0.94 0.43,-2.87 0.81,-0.92 0.67,-0.21 0.54,-0.83 0.14,-1.02 0.86,-1.71 2.19,-2.31 0.97,-0.21 0.54,-0.97 0.71,-0.52 1.14,-3.12 -1,-4.83 -0.84,-0.54 -3.03,-4.94 -2.79,-3.13 -0.52,-0.93 -1.79,-1.97 -2.15,-1.04 -1.14,-0.9 -0.35,-0.67 0.14,-0.35 0.57,0.09 0.36,-0.3 -1.21,-1.83 -5.21,-4.18 -0.04,-0.66 0.93,-0.56 1.17,-1.31 1.31,-2.11 -0.08,-0.62 -2.37,-1.8 -2.14,-2.28 -0.73,-1.95 0.33,-2.03 -0.39,-0.8 -0.66,-0.67 -1.06,-0.41 -2.7,-0.08 -2.47,-0.69 -2.7,0.37 -2.78,-0.25 -1.56,0.6 -3.85,0 -2.08,0.37 -0.66,-0.18 -0.39,-0.8 0.32,-0.53 1.2,-0.56 3.77,-0.75 -1.28,-0.28 -1.15,0.12 -3.13,-1.14 -1.97,-1.57 -5.36,-3.29 -1.62,-1.3 -3.16,-2.12 -0.97,-0.06 -0.44,-0.58 0.1,-0.88 -1.82,0.42 -2.53,-3.83 -1.1,-0.5 -0.84,0.21 -2.69,-0.83 -0.31,-0.45 0.36,-0.44 0.98,-0.39 0.88,0.01 -0.61,-0.98 -0.34,-1.6 -0.74,-1.03 -1.98,-1 -2.03,-0.29 -1.63,-0.77 -3.32,-3.75 -1.41,-1.21 -2.9,-1.31 -1.85,-1.21 -0.75,-0.1 -1.17,1.36 -0.53,0.17 -1.16,-0.62 0,0 -0.65,-7.01 3.68,-0.1 4.43,2.42 10.06,4 4.15,2.49 2.53,-0.07 2.42,-4.34 -0.73,-3.79 4.16,-3.81 3.89,-0.97 -1.05,-6.91 3.33,-8.87 0.28,-2.49 1.03,-4.42 3.11,-4.25 3.41,-1.59 4.35,1.27 3.22,2.67 z"
     title="Puntarenas"
     id="CR-P" />
  <path
     d="m 383.60363,206.02086 1.66,4.17 2.2,9.52 2.12,1.79 3.95,1.51 3,2.74 1.4,2.91 0.14,3.17 0.55,3.33 1.34,2.79 -0.88,1.76 -3.42,1.08 -1.4,-0.6 -1.74,-0.53 -1.62,1.77 -1.97,1.67 -3.43,0.67 -2.83,-0.55 -8.25,1.09 -1.31,0.72 -0.21,3.01 -2.4,2.84 -2.82,1.98 -0.27,2.83 3.15,-0.43 1.9,0.06 0.95,1.07 -0.02,1.56 -0.82,1.75 -0.87,1.7 -1.01,1.18 -2.71,4.06 -0.53,1.68 -1.99,1.09 -3.72,2.82 -3.58,1.77 -1.14,0.26 0.3,2.64 -0.87,1.82 2.04,1.04 3.11,0.2 3.31,-0.78 2.42,-0.13 5.09,-3.08 1.42,-0.61 1.79,4.68 2.28,3.51 4.82,2.12 0.14,2.94 -0.24,1.91 0.72,1.07 2.02,0.18 2.04,1.32 0.61,1.31 0.99,0.5 1.71,-0.86 2.89,2.86 1.51,0.77 2.08,0.29 0.96,-0.55 3.24,0.55 0.84,1.47 -0.02,3.64 1.05,2.68 2.46,1.83 2.89,0.62 2.16,1.03 2.31,0.63 2.75,1.12 1.78,-0.22 -0.58,2.49 0.83,2.92 1.4,0.89 2.82,0.09 0.86,2.11 2.26,0.57 3.95,-0.97 2.38,1.15 3.06,-1.99 1.1,-2.11 1.41,-1.19 2.06,-0.29 2.38,0.86 2.26,2.65 1.98,0.92 4.73,2.93 3.59,0.88 2.68,1.08 6.23,5.31 4.25,1.96 0,0 3.18,2.85 1.3,5.96 2.02,4.84 4,8.19 4.5,3.25 0,0 -2.67,3.59 -1.76,2.99 -2.75,2.72 -2.83,5.95 -1.8,1.78 -2.26,1.56 -1.66,2.46 0.26,1.21 -0.4,4.16 -2.22,3.11 -0.14,1.16 2,1.73 2.67,1.14 4.03,-0.06 1.17,2.74 0.27,1.6 -1.56,4.19 -2.8,2.84 -0.07,3.98 -1.41,3.09 -1.86,1.66 -3.12,1.47 -4.07,0.45 -2.53,-1.89 -9.01,-3.73 -3.17,-4.35 -4.6,-2.12 -3.6,-1.11 -2.11,-3.69 -2.26,-5.24 -3.55,-5.95 -6.39,-4.49 -4.3,5.18 -4.97,-0.85 -6.41,-3.28 -5.18,-4.3 -0.57,-6.49 -0.03,-3.17 2.01,-4.38 -2.27,-0.97 -2.07,-0.12 -2.17,-1.55 -2.6,-2.76 -2.26,-4.78 -0.61,-3.32 -3.06,-0.67 -1.52,1.54 -1.21,1.99 -3.55,0.67 -3.71,-3.36 -1.79,-4.44 -2.91,0.65 -1.46,-2.9 -0.33,-1.66 -3.76,-2.84 -3.38,-1.69 -2.58,-4.03 -3.37,-1.35 -0.34,-3.85 0.52,-6.65 -4.19,-1.73 -3.75,1.6 -2.21,-0.75 -2.22,-3.4 0.71,-6.01 -0.98,-2.23 -1.58,-0.82 -4.09,-0.41 -6.04,2.12 -4.15,-2.13 -2.58,0.18 -3.16,0.03 -5.35,-1.87 -4.5,-2.82 -3.27,2.39 -6.04,0.22 -3.27,0.44 -4.44,-0.63 -1.43,2.4 1.59,3.82 -1.88,2.82 -2.28,3 -2.9,3.25 -1.94,-1.62 -0.94,-2.68 -3.21,0.43 -3.49,0.67 -5.98,0.16 -3.54,-1.06 -1.33,-0.54 -2.62,-3.16 -0.95,-3.37 -0.1,-3.63 -4.5,-4.84 -0.93,-2.51 0.46,-4.57 -1.56,-4.52 0.54,-5.67 1.3,-0.84 4.61,0.22 3.48,-3.09 -1.26,-2.05 -2.7,0.08 -1.56,-4.41 -3.27,0.09 0.1,-2.54 2.02,-2.25 0,0 2.48,-0.03 2.71,-4.17 0.48,-1.57 2.17,-2.83 2.63,-0.76 3.02,-3.03 1.58,-1.14 2.73,-1.28 1.06,-1.13 2.72,-1.74 2.65,0.15 7.72,-1.59 0.11,-0.29 4.71,0.04 2.61,0.68 3.15,1.93 4.66,-0.18 4.67,-1.51 7.58,-0.61 3.24,-1.25 2.77,-2.15 1.39,-1.6 1.97,-1.72 2.84,-1.29 2.25,0.11 0,0 2.2,0.57 1.28,0.55 0.92,0.2 2.42,0.23 3.48,-1.2 2.88,0.39 0.88,0.55 3.6,-1.08 2.35,-0.35 1.13,-0.61 2.88,0.04 2.9,-1.18 3.06,-1.82 2.45,-2.83 1.02,-2.86 0.5,-2.9 -2.39,-3.45 -1.08,-1.94 0.48,-1.22 0.13,-1.68 0.82,-1.64 3.39,-0.21 2.28,-0.52 1.62,-2.06 0.29,-6.53 -0.12,-2.54 1.67,-2.18 9.21,-6.26 0,0 -1.1,2.22 z"
     title="San José"
     id="CR-SJ" />
</svg>
