<?xml version="1.0" encoding="UTF-8" standalone="no"?>
<!-- Created for MapSVG plugin: http://mapsvg.com -->
<svg
   xmlns:mapsvg="http://mapsvg.com"
   xmlns:dc="http://purl.org/dc/elements/1.1/"
   xmlns:rdf="http://www.w3.org/1999/02/22-rdf-syntax-ns#"
   xmlns:svg="http://www.w3.org/2000/svg"
   xmlns="http://www.w3.org/2000/svg"
   mapsvg:geoViewBox="13.491998 46.542613 19.405604 42.403924"
   width="612.4892"
   height="599.41095">
 
  <path
     d="m 286.22248,71.244737 0.69,2.96 1.32,0.86 0.34,2.9 1.81,1.51 4.15,-2.12 0,0 2.12,1.93 0.6,-0.98 1.39,0.35 2.81,2.62 2.2,-0.74 1.56,1.18 0.38,2.04 2.21,1.05 0.49,4.38 3.52,-2.08 0.84,1.4 3,-0.39 5.52,5.73 1.45,-1.07 2.28,1.44 2.45,-0.53 0.7,-1.06 3.84,0.91 0,0 -0.2,4.93 0.82,2.850003 -1.76,3.95 0.57,2.24 -1.89,-1.42 -2.72,0.77 -0.6,-1.7 -0.7,1.95 -3.49,1.7 0.41,3.85 -2.85,-1.66 -7.29,0.71 0.78,2.03 -1.37,1.26 2.15,1.64 -1.79,2.06 -0.2,2.86 2.22,0.65 1.82,2.4 3.15,0.06 1.36,1.22 0.17,2.45 1.51,-0.62 2.3,3.03 0,0 0.08,0 0,0 -2.81,6.74 -4.79,1.16 -4.61,4.26 -1.57,3.27 -1.17,0.18 -1.81,-3.91 -1.81,-1.17 -2.45,-0.06 -0.88,-3.15 -1.46,-1.4 -4.43,1.11 0,-2.39 -1,-1.29 -4.54,2.21 -1.22,2.07 -0.51,-0.92 -1,0.11 -1.37,1.34 0.28,0.96 -2.15,1.52 -1.02,-1.34 -2.48,0.48 -7.22,-4.81 -5.38,5.53 0.68,2.08 -3.04,2.54 3.93,3.95 0.44,4.59 -1.11,1.28 0.63,4.77 -1.94,0.75 -0.63,1.37 -3.76,-5.08 -2.47,-0.71 -3.24,2.67 -5.53,-0.33 0,0 -0.24,-0.03 0,0 -1.48,-1.84 0.86,-1.91 -0.31,-2.26 -1.95,-2.35 -3.27,0.18 -0.24,-2.44 -3,-0.28 -2.72,3.44 -2,0.52 -0.91,-2.4 -1.29,0.19 -2.87,-3.82 0.92,-1.93 -0.47,-3.39 -2.07,1.74 -2.96,-2.02 -3.29,0.22 -5.35,-3.34 -8.5,7.07 -0.86,-1.54 1.33,-3.1 -2.1,0.88 -0.95,-0.93 1.11,-2.9 -0.55,-1.84 -4.23,-3.07 -1.37,-0.11 -0.2,-2.33 -1.62,-2.33 -3.39,-0.39 -1.63,-3.88 -3.86,-2.53 -2.27,-0.31 -0.09,-1.2 1.2,-1.14 -0.09,-2.78 0,0 3.77,-1.18 3,-2.16 6.42,-0.38 -0.77,-3.19 2.61,-1.83 1.15,1.43 2.43,-0.22 1.41,-3.69 2.2,1.47 1.28,-2.04 5.81,2.99 1.41,1.88 2.41,-3.08 4.09,-0.55 0.09,-0.9 -2.18,-1.72 0.69,-0.96 -1.17,-5.070003 2.82,-2.91 0.05,-7.12 0,0 1.61,0.74 3.96,-0.8 0.83,1.23 1.37,-3.28 3.45,-0.04 8.89,4.42 4.35,4.08 0.32,3.32 0,0 -11.64,7.650003 -1.74,3.34 1.78,6.01 -2.09,2.58 5.42,3.58 -0.72,3.01 -1.78,1.38 -1.24,-1.75 -2.65,0.11 -1.02,-1.54 -1.49,0.97 -1.61,3.24 0.86,3.81 4.58,2.85 4.65,1.54 3.72,3.67 -0.36,3.3 3.74,0 2.1,-1.74 3.56,-7.57 0.91,-5.94 2.47,-0.45 1.18,-4.11 5.48,-2.83 1.92,-2.73 3.23,-1.12 1.24,-1.25 -0.16,-1.06 5.54,1.58 0.51,-4.91 3.07,-1.59 -3.17,-7.330003 -2.52,-1.16 -0.9,-3.61 0.73,-2.3 -2.32,-4.8 0,0 -0.51,-1.21 0.64,-1.87 3.32,-2.45 -0.5,-1.82 3.46,-0.58 -1.9,-4.65 2.23,0.22 z"
     title="Zagrebačka županija"
     id="HR-01" />
  <path
     d="m 245.77248,40.644737 1.09,1.58 0.39,4.68 4.71,1.57 1.24,1.1 0.31,1.79 4.19,0.96 0,0 1.32,1.23 3,0.06 0,0 6.82,-1.47 2.12,0.22 0.84,2.03 3.32,0.13 2.03,-2.99 3.42,-1.27 0.87,1.03 -1.33,1.5 5.5,0.57 -1.72,2.35 2.24,2.88 -1.24,8.8 1.33,3.85 0,0 -3.68,2.64 -2.23,-0.22 1.9,4.65 -3.46,0.58 0.5,1.82 -3.32,2.45 -0.64,1.87 0.51,1.21 0,0 -3.98,-0.09 -0.7,1.9 -3.5,0.36 -3.08,2.46 -10.02,4.54 0,0 -0.32,-3.32 -4.35,-4.08 -8.89,-4.42 -3.45,0.04 -1.37,3.28 -0.83,-1.23 -3.96,0.8 -1.61,-0.74 0,0 -0.7,-4.47 1.11,-0.56 0.08,-1.45 0.48,-0.86 -0.15,-2.24 1.63,-1.37 -1.75,-2.24 -4.51,-2.22 -1.24,0.57 -0.12,-1.54 -1.1,-0.95 -1.58,0.51 -1.1,-0.73 0.25,-1.28 -1.08,-0.4 -0.91,-2.29 0.74,-3.14 -1.51,-1.36 1.78,-1.03 -1.01,-1.59 4.22,-3.67 0.27,-2.47 -0.7,-0.57 0.79,-1.4 3.22,-1.58 4.86,0.75 0.19,0.97 2.21,-0.78 -0.02,1.61 1.7,0.19 2.05,-1.08 1.48,-3.28 -0.85,-2.62 3.27,-0.4 0.86,-1.16 1.78,0.12 z"
     title="Krapinsko-zagorska županija"
     id="HR-02" />
  <path
     d="m 243.26248,195.58474 -3.02,-1.65 -1.54,-2.47 1.12,-3.87 2.11,-1.47 -4.15,-8.31 0.56,-2.39 4.44,-1.76 1.16,-1.31 -1.18,-6.46 1.66,-4.13 -1.88,-0.93 1.93,-2.3 1.33,-1.27 2.61,-0.35 3.45,3.09 0.83,-0.91 0,0 0.24,0.03 0,0 5.53,0.33 3.24,-2.67 2.47,0.71 3.76,5.08 0.63,-1.37 1.94,-0.75 -0.63,-4.77 1.11,-1.28 -0.44,-4.59 -3.93,-3.95 3.04,-2.54 -0.68,-2.08 5.38,-5.53 7.22,4.81 2.48,-0.48 1.02,1.34 2.15,-1.52 -0.28,-0.96 1.37,-1.34 1,-0.11 0.51,0.92 1.22,-2.07 4.54,-2.21 1,1.29 0,2.39 4.43,-1.11 1.46,1.4 0.88,3.15 2.45,0.06 1.81,1.17 1.81,3.91 1.17,-0.18 1.57,-3.27 4.61,-4.26 4.79,-1.16 2.81,-6.74 0,0 0.18,0.01 0,0 3.79,-0.72 0.62,2.11 2.14,0.33 0,0 1.41,-0.34 0,0 1.9,1.22 1.61,3.26 2.1,0.9 1.72,0.14 1.33,-1.15 1.47,0.63 0.53,4.67 1.38,3.01 4.05,2.62 1.57,3.42 -1.43,2.51 -2.23,-0.61 -0.66,1.06 2.49,2.22 1.68,-0.94 0.15,1.38 3.46,1.27 0.69,2.15 2.12,-0.69 0.47,-1.39 0,0 2.23,3.73 4.1,-0.05 2.04,1.66 1.38,4.24 0.81,-0.06 -0.16,-1.47 1.62,-0.22 -0.27,-2.16 1.41,0.26 0.72,2.27 -1.37,0.86 -0.57,3.02 6.65,3.02 1.66,1.69 0.52,2.45 4.42,-0.72 0,0 -0.45,2.04 1.01,1.37 -1.23,2.2 0.64,2.49 -2.04,0.91 -4.41,5.46 -4.16,1.67 -0.85,2.33 4.39,3.47 3.4,6.57 0,0 -9.8,-5.72 -1.52,-3.5 -1.6,1.48 -1.15,-0.05 1.18,-3 -1.59,-0.34 -0.11,1.77 -1.14,0.69 -0.93,-1.08 -0.05,-2.15 -1.36,-1.03 -0.76,1.04 1.26,0.88 0.09,1.41 -1.66,-0.58 -1.99,0.77 -0.36,-2.55 1.77,-1.86 -2.14,-2.82 -1.37,0.5 -0.81,2.7 -2.29,1.26 -1.15,2.03 -1.06,-0.6 -1.08,1.16 -1.1,0.95 -1.3,0.9 0.9,3.06 -2.47,1.46 -9.18,-3.25 -3.78,1.55 -5.13,-1.78 -4.55,-3.15 -4.96,1.33 -2.24,-0.88 -4.12,2.61 -1.83,3.95 0.01,3.32 -1.27,2.63 -6.87,4.26 0.83,3.19 -1.58,1.94 -0.54,3.8 -0.92,0.03 -1.75,2.9 -0.28,4.16 -4.61,0.52 -4.23,-0.43 -0.7,-1.36 -3.66,0.2 -0.83,-2.8 -2.11,-1.06 -5.33,-6.09 -6.82,-3.23 -0.56,-3.9 -1.54,-1.89 -0.1,-1.87 -1.42,-0.16 -0.66,-3 -3.21,-0.25 1.38,-2.32 -0.74,-2.5 -2.43,-0.54 -2.27,-1.77 -3.81,2.87 -1.16,-1.44 -0.14,-2.55 -0.78,0.8 -2.32,-0.43 0.15,1.55 z"
     title="Sisačko-moslavačka županija"
     id="HR-03" />
  <path
     d="m 192.22248,114.97474 0.09,2.78 -1.2,1.14 0.09,1.2 2.27,0.31 3.86,2.53 1.63,3.88 3.39,0.39 1.62,2.33 0.2,2.33 1.37,0.11 4.23,3.07 0.55,1.84 -1.11,2.9 0.95,0.93 2.1,-0.88 -1.33,3.1 0.86,1.54 8.5,-7.07 5.35,3.34 3.29,-0.22 2.96,2.02 2.07,-1.74 0.47,3.39 -0.92,1.93 2.87,3.82 1.29,-0.19 0.91,2.4 2,-0.52 2.72,-3.44 3,0.28 0.24,2.44 3.27,-0.18 1.95,2.35 0.31,2.26 -0.86,1.91 1.48,1.84 0,0 0,0 0,0 -0.83,0.91 -3.45,-3.09 -2.61,0.35 -1.33,1.27 -1.93,2.3 1.88,0.93 -1.66,4.13 1.18,6.46 -1.16,1.31 -4.44,1.76 -0.56,2.39 4.15,8.31 -2.11,1.47 -1.12,3.87 1.54,2.47 3.02,1.65 0,0 -1.38,2.6 -1.87,-0.34 -0.53,1.54 -2.45,1.58 -1.93,3.24 2.16,7.76 -3.77,7.34 4.01,8.56 0.18,4.67 -3.47,0.64 -0.01,2.66 -1.45,3.1 0,0 -2.8,2.24 -2.07,-0.49 -3.24,-3.09 -5.24,2.13 -1.35,-1.01 -1,-2.65 -2.12,-1.09 -1.93,3.51 -1.86,1.5 0.76,2.08 2.9,2.52 -0.72,1.47 -2.04,-2.63 -0.97,0.32 -1.13,-2.81 -5.56,-0.51 -2.27,-1.14 -7.94,-11.71 -1.95,-1.02 -1.55,0.41 -3.02,-1.71 -1.55,-2.83 -5.26,-2.86 -2.96,-3.13 -1.28,-3.5 -3.65,1.31 -2.35,3.48 -4.85,-1.59 -0.31,-1.39 -2.16,-1.99 -5.82,-2.4 0,0 -4.23,-6.3 1.73,-5.26 -0.89,-3.25 0.83,-0.88 0.1,-2.95 -2.47,-2.97 2.04,-1.37 -0.08,-2.23 1.13,-2.13 2.52,-1.04 1.99,3.04 4.57,0.39 0.35,2.01 1.75,0.51 2.31,-3.22 3.06,-0.12 2.58,-1.36 0.43,-1.51 -0.87,-1.12 5.63,-9.84 -0.36,-2.19 0.91,-1.08 -0.98,-1.43 0,0 2.13,-3.9 2.99,-1.85 6.04,1.9 1.64,-0.56 1.32,-2.8 2.84,-1.75 -5.71,-3.6 -1.83,-1.93 0.09,-1.09 -1.35,-0.6 -0.28,-6.9 -2.24,-3.05 3.14,-1.4 -0.51,-2.61 5.04,-0.89 -0.41,-1.47 2.55,0.08 1.64,1.21 2.09,-1.58 -1.05,-0.6 -2.86,-5.7 -0.85,1.96 -1.24,0.67 0.17,-1.92 0.98,-0.27 0.28,-1.22 -0.59,-2.84 -1.88,0.05 -2.01,2.57 0.21,3.33 -1.51,-2.2 0.34,-1.41 -1.01,0.04 -0.29,1.54 -1.55,-3.33 -1.17,0.4 -0.66,-1.48 -1.59,0.21 -1.16,-0.86 2.4,-0.85 3.79,-3.95 z"
     title="Karlovačka županija"
     id="HR-04" />
  <path
     d="m 279.03248,24.174737 0.87,1.11 1.77,0.04 1.55,-0.94 1.87,0.51 1.57,-1.2 1.39,2.4 1.8,-0.32 0,0 4.19,2.2 3.21,5.31 3.79,0.02 1.22,1.39 1.18,-0.73 0.94,0.63 1.61,-1.9 0.66,1.87 3.12,-0.06 2.7,1.27 0.18,-1.06 2.95,0.16 1.88,-2.57 4.54,3.47 2.28,0.28 2.11,-2.18 2.02,1.17 1.55,-1.35 2.17,2.03 3.46,-2.59 -0.57,2.83 2.56,0.75 0,0 1.06,0.09 0,0 0.38,-0.09 0,0 0.62,3.32 -1.05,3.44 -8.05,8.44 -4.92,0.38 -2.95,-1.35 -7.12,3.84 0.59,2.36 -11.72,0.66 -0.75,2.17 -4.9,3.44 -0.12,3.16 -1.22,1.02 -0.81,4.27 -1.77,2.26 -0.34,3.23 0,0 -4.15,2.12 -1.81,-1.51 -0.34,-2.9 -1.32,-0.86 -0.69,-2.96 0,0 -1.33,-3.85 1.24,-8.8 -2.24,-2.88 1.72,-2.35 -5.5,-0.57 1.33,-1.5 -0.87,-1.03 -3.42,1.27 -2.03,2.99 -3.32,-0.13 -0.84,-2.03 -2.12,-0.22 -6.82,1.47 0,0 -2.82,0 -1.5,-1.29 0,0 -4.19,-0.96 -0.31,-1.79 -1.24,-1.1 -4.71,-1.57 -0.39,-4.68 -1.09,-1.58 0,0 0.65,-1.53 3.05,-1.29 4.76,0.03 2.4,-1.17 1.3,-2.03 3.5,-0.03 2.43,-3.48 3.63,-0.36 -0.05,-3.29 -1.84,-3.87 2.76,0.93 1.62,-0.72 1.52,0.42 1.24,-2.11 2.09,-1.38 3.59,2.16 z"
     title="Varaždinska županija"
     id="HR-05" />
  <path
     d="m 348.98248,29.794737 1.7,1.72 -0.33,3.63 0.99,1.79 -0.01,3.38 4.33,2.43 2.66,2.88 2.04,-0.37 0.36,2.73 3.67,0.56 5.6,2.9 1.96,2.29 0.75,-0.76 1.24,0.48 0.95,1.77 1.02,-0.34 0.43,1.41 1.25,-0.68 2.21,0.48 -0.03,1.68 2.37,1.16 -0.56,6.34 3.69,-0.83 0.62,0.91 -0.92,1.32 2.31,-0.03 -1.39,2.56 1.74,0.46 0.55,1.93 -0.95,0.87 4.05,0.52 -1.36,1.56 -0.37,2.41 1.73,-0.48 2.55,0.97 -3.83,1.91 2.44,1.87 2.51,-0.14 -1.23,1.61 0.21,1.03 0,0 -3.74,0.89 -4.81,-0.62 -2.02,4.23 -6.46,8.3 -0.84,2.98 0,0 -1.64,0 -1.66,-2.93 -2.57,-0.86 -1.67,-4.63 -2.66,1.1 -2.39,-0.88 -1.7,0.6 0.96,-3.76 -0.77,-1.84 -2.57,-1.73 -2.27,-0.95 -5.07,0.4 3.24,-5.44 -2.26,-0.01 -0.51,-1.92 -1.48,-1.16 0.28,-1.58 -1.5,-0.89 0.39,-2.44 -2.72,-0.68 -1.25,-1.74 -0.9,0.45 0.77,3.54 -1.13,2.11 -4.62,1.66 0.75,-1.87 -1.39,-0.66 -5.55,3.38 -0.06,2.69 -1.63,2.66 -0.59,11.41 0,0 -3.84,-0.91 -0.7,1.06 -2.45,0.53 -2.28,-1.44 -1.45,1.07 -5.52,-5.73 -3,0.39 -0.84,-1.4 -3.52,2.08 -0.49,-4.38 -2.21,-1.05 -0.38,-2.04 -1.56,-1.18 -2.2,0.74 -2.81,-2.62 -1.39,-0.35 -0.6,0.98 -2.12,-1.93 0,0 0.34,-3.23 1.77,-2.26 0.81,-4.27 1.22,-1.02 0.12,-3.16 4.9,-3.44 0.75,-2.17 11.72,-0.66 -0.59,-2.36 7.12,-3.84 2.95,1.35 4.92,-0.38 8.05,-8.44 1.05,-3.44 -0.62,-3.32 0,0 0.12,-0.81 0.55,0.84 1.13,-0.96 0.55,1.39 1.47,-1.91 0.52,3.78 2.41,-0.36 0.69,-3.75 1.47,-1.79 0.29,-4.44 0,0 z"
     title="Koprivničko-križevačka županija"
     id="HR-06" />
  <path
     d="m 331.89248,93.534737 0.59,-11.41 1.63,-2.66 0.06,-2.69 5.55,-3.38 1.39,0.66 -0.75,1.87 4.62,-1.66 1.13,-2.11 -0.77,-3.54 0.9,-0.45 1.25,1.74 2.72,0.68 -0.39,2.44 1.5,0.89 -0.28,1.58 1.48,1.16 0.51,1.92 2.26,0.01 -3.24,5.44 5.07,-0.4 2.27,0.95 2.57,1.73 0.77,1.84 -0.96,3.76 1.7,-0.6 2.39,0.88 2.66,-1.1 1.67,4.63 2.57,0.86 1.66,2.93 1.64,0 0,0 6.28,3.160003 1.57,3.61 2.51,1.02 2.11,2.39 3.32,0.63 -0.14,2 1.26,2.84 2.92,0.67 0.24,2.53 1.74,0.79 1.03,-2.47 1.8,1.59 0.2,1.65 -1.65,2.88 0.49,1.61 2.46,-1.98 1.34,3.96 1.91,-0.91 0.79,-1.67 2.84,-1.12 1.03,0.88 -0.06,1.21 2.6,0.34 2.24,1.94 -1.96,2.86 0.18,2 -3.32,4.26 0.02,3.79 -2.4,1.4 0.04,3.17 1.83,-0.57 0,0 0.91,1.38 -1.23,2.39 -0.11,3.34 -3.1,2.62 -4.78,-0.81 -0.42,-1.41 -6.49,0.8 -1.05,1.31 -6.11,-0.18 -4.42,-3.76 -1.14,0.12 -0.01,1.61 -1.11,0.87 -4.11,-1.18 -4.21,2.74 -2.74,-2.39 -1.58,0.63 -0.48,1.26 -1.7,0.35 -3.31,-1.66 -1.94,0.03 -0.88,-1.21 0.19,-3.01 -3.03,5.14 0.48,4.87 0,0 -0.47,1.39 -2.12,0.69 -0.69,-2.15 -3.46,-1.27 -0.15,-1.38 -1.68,0.94 -2.49,-2.22 0.66,-1.06 2.23,0.61 1.43,-2.51 -1.57,-3.42 -4.05,-2.62 -1.38,-3.01 -0.53,-4.67 -1.47,-0.63 -1.33,1.15 -1.72,-0.14 -2.1,-0.9 -1.61,-3.26 -1.9,-1.22 0,0 -1.41,0.34 0,0 -2.14,-0.33 -0.62,-2.11 -3.79,0.72 0,0 -0.26,-0.01 0,0 -2.3,-3.03 -1.51,0.62 -0.17,-2.45 -1.36,-1.22 -3.15,-0.06 -1.82,-2.4 -2.22,-0.65 0.2,-2.86 1.79,-2.06 -2.15,-1.64 1.37,-1.26 -0.78,-2.03 7.29,-0.71 2.85,1.66 -0.41,-3.85 3.49,-1.7 0.7,-1.95 0.6,1.7 2.72,-0.77 1.89,1.42 -0.57,-2.24 1.76,-3.95 -0.82,-2.850003 z"
     title="Bjelovarsko-bilogorska županija"
     id="HR-07" />
  <path
     d="m 109.88248,306.90474 1.99,0.68 1.19,2.01 -2.23,-0.87 -0.29,0.82 -1.59,-0.25 -1.08,-1.73 1.37,-1.5 0.64,0.84 z m -22.929996,-7.37 -2.41,2.01 -1.98,-3.28 2.48,0.59 1.91,0.68 z m -5.25,-25.19 0.86,1.28 -0.12,2.12 -0.78,0.71 -1.96,-1.54 0.84,3.97 1.43,3.78 -0.1,1.29 -2.56,-2.1 -1.9,-0.07 -0.36,-1.22 1.63,-0.88 -0.89,-3.73 2.48,-3.35 1.57,-0.86 -0.14,0.6 z m 6.54,-3.82 0.76,-0.14 1.13,2.03 0.88,-0.45 1.01,0.04 1.62,1.32 0.85,4.76 -0.34,5.94 5.01,8.98 2.829996,2.77 0.83,-0.19 0.24,1.66 3.06,0.9 1.05,2.72 1.53,0.8 0.47,1.17 -1.32,1.78 -1.25,0.12 -1.9,-2.04 -0.96,-1.3 0.21,-0.97 -4.259996,-2.68 0.949996,-0.93 -1.319996,0.04 -0.6,-2.46 2.829996,1.97 -3.689996,-4.72 -0.8,-0.35 0.01,1.03 -1.4,-1.95 -0.6,0.09 0.3,2.06 -1.01,-0.13 -0.39,0.91 -2.61,-1.03 0.82,-2.07 -0.41,-1.87 0.73,-0.84 0.51,0.68 0.83,-1.98 -1.75,-3.9 -2.62,-2.12 -1.58,-7.05 0.35,-2.6 z m 51.759996,3.67 -7.74,-8.16 5.95,4.88 1.79,3.28 z m -17.27,-16.19 3.35,1.69 5.06,5.17 -2.14,-1.41 -2.42,0.33 -1.59,-0.03 -1.8,-1.16 -0.94,-2.28 -1.5,-1 1.07,-1.8 0.91,0.49 z m 16.57,-7.93 0.42,1.76 -1.11,0.1 -0.05,1.95 -1.01,-1.85 -1.3,-0.17 -0.45,-1.73 3.5,-0.06 z m -11.17,0.12 2.52,-0.16 0.13,1.44 1.11,0.04 -0.61,2.17 -1.75,1.28 9.21,8.88 3.23,5.81 0.44,-0.78 0.39,2.44 -0.9,-0.46 -0.91,1.32 -1.39,-0.19 -5.95,-6.93 -1.42,-0.23 0.09,-0.83 -6,-3.92 -1.06,-3.66 2.93,0.95 -5.03,-6.11 2.41,-0.01 2.23,1.44 -0.55,-1.31 0.88,-1.18 z m 3.89,-3.61 1.99,2.63 -3.47,-0.19 -1.56,-2.23 1.11,-0.12 -0.13,-1.48 2.06,1.39 z m 1.5,-8.33 3.99,2.58 2.08,4.63 -7.02,-4.24 -0.33,-3.13 1.28,0.16 z m -25.41,-6.9 2.13,3.54 -1.84,0.16 -5.29,-3.91 2.56,0.22 1.34,-1.18 1.1,1.17 z m -21.429996,-27.95 3.26,1.36 1.39,2.53 -0.89,0.45 -0.92,3.99 4.77,15.1 3.52,4.65 3.739996,-0.42 1.73,4 -1.75,0.95 -0.9,-0.57 -0.12,7.02 -1.399996,4.09 2.339996,12.5 -1.719996,-0.8 -0.49,1.35 2.339996,2.96 0.92,3.02 -1.62,2.63 1.48,4.79 2.37,2.64 1.3,1.9 -0.96,3.5 1.44,-0.65 0.38,1.71 1.35,-0.42 1.17,0.44 -1.67,0.32 -0.17,1.65 -1.22,1.17 -0.92,0.02 -0.88,1.07 -2.87,-2.36 -1.3,-0.83 0.05,-1.46 -1.199996,-0.49 -0.94,-2.67 -1.91,-2.23 -0.4,-0.51 -2.55,-2.71 0.85,-2.41 -0.94,-3.88 0.76,0.06 -0.02,-1.07 -1.41,-1 -0.26,0.86 -1.15,-1.48 0.07,-3.36 -0.92,-1.37 0.47,-2.19 -1.39,-2.22 -0.8,1.06 -0.98,-0.54 -0.29,-5.77 -1.44,-2.93 0.14,-1.72 -1.15,-3.33 -0.55,-0.57 -0.29,-3.45 1.39,-2.32 4.91,7.13 0.83,-0.77 2.08,0.98 1.19,-1.46 -0.96,-3.9 -0.87,-0.54 0.79,-1.92 2.56,1.37 -0.78,-1.89 -1.76,-0.07 -1.45,-4.46 -2.79,-1.74 0.95,-3.57 -1.21,-3.79 -4.47,-2.48 -1.5,-4.35 -1.5,-0.7 -0.47,-2.41 1.92,-2.09 1.07,-4.1 0.9,-1.3 1.67,-0.51 0.05,0.51 z m 24.619996,-10.3 1.35,1.17 0.04,-1.13 1.46,0.5 1.07,1.9 -1.99,-0.38 5.12,9.12 -2.63,-0.76 -1.02,2.88 0.86,0.28 3.21,-1.8 3.21,2.06 1.22,2.03 -1.33,1.84 0.26,2.32 -0.69,1.94 1.1,2.03 3.04,1.88 1.53,-0.93 0.99,1.21 0.75,0.75 1.16,0.61 -0.25,2.61 7.98,8.22 -0.06,1.21 -0.79,0.12 -0.43,1.02 -5.6,-0.89 -0.58,1.49 1.46,1.82 -0.28,1.03 -2.61,0.63 -4.71,-2.06 -1.18,-2.27 -2.62,0.15 -3.35,-2.04 -0.38,-0.93 1.24,-0.71 -0.33,-7.32 -1.78,1.81 1.2,0.76 0.07,1.23 -4.26,-1.85 -1.78,2 -3.73,-0.41 -1.78,-1.3 -0.97,0.37 -1,-0.63 -5.519996,-6.1 -0.06,-3.51 3.559996,-0.94 -0.42,-2.82 1.07,-1.49 3.02,1.78 2.29,-1.2 0.27,-2.88 -0.73,-0.96 1.09,-0.07 1.36,-2.37 -1.14,-2.21 -0.01,-2.55 1.26,-0.2 0.48,-0.94 -0.02,-2.5 -1.49,-1.68 1.37,0.03 0.4,-1.41 1.03,0.44 z m 1.36,-62.91 0.83,0.53 1.5,-0.65 1.58,1.06 -1.89,5.36 3.08,1.96 2.73,3.23 2.82,0.4 1.36,1.78 0.71,2.06 -1.15,1.31 -0.43,2.84 0.7,1.19 0.87,-0.09 0.35,-1.18 1.57,0.12 4.06,3.33 4.04,1.34 2.07,6.24 9.4,-2.49 0.57,-6.14 1.88,-1.52 5.29,4.51 3.08,0.35 1.52,1.62 2.91,-1.24 3.21,1.65 0.1,2.43 5.32,3.43 2.13,2.73 2.37,0.24 1.26,-1.93 1.12,1.43 1.88,-0.04 0,0 0.97,1.43 -0.91,1.09 0.36,2.19 -5.63,9.84 0.87,1.12 -0.42,1.51 -2.58,1.36 -3.06,0.12 -2.31,3.23 -1.75,-0.51 -0.35,-2.01 -4.57,-0.4 -1.99,-3.04 -2.51,1.04 -1.14,2.13 0.08,2.23 -2.04,1.38 2.47,2.96 -0.1,2.96 -0.83,0.88 0.89,3.25 -1.73,5.25 4.22,6.3 0,0 1.51,5.36 -2.1,3.39 -3.52,-0.32 -2.8,1.04 -0.94,-2.45 -2.06,1.5 -0.11,1.34 -2.36,0.37 0.3,2.03 -1.27,1.14 0,0 -3.94,-9.27 0.52,-2.91 -1.47,1.14 0.04,-1.12 -2.08,0.18 -10.46,-5.22 -0.23,-1.55 -5.93,-6.02 -4.37,-2.39 0.42,-1.17 -1.43,-1.64 -2.95,-1.61 0.22,-1.11 -0.79,-2.24 -0.43,-1.51 1.71,0.16 -1.1,-1.67 -3.38,-2.19 2.33,3.39 -0.71,0.94 -1.04,-0.16 -4.66,-2.51 -2.19,-2.21 0.5,-0.75 -0.77,0.63 -1.58,-1.41 -10.179996,-3.18 -3.25,-1.98 -4.81,7.43 -3.93,13.86 0.13,3.38 -1.98,5.24 0,0 -2.54,-1.67 0.73,-6.92 -1.6,-6.59 0.65,-6.58 0.7,-1.83 1.41,-0.59 -1.52,-6.6 -1.65,-1.82 0.08,-1.57 1.9,-1.78 -7.91,-5.03 -1.73,-3.04 0.58,-1.93 -0.6,-2.41 0,0 1.71,0.74 4.18,-0.78 3.08,1.15 0.07,-1.81 1.76,-2.65 2.38,-0.79 1.88,2.89 2.37,-1 1.77,1.47 1.4,0 1.06,1.88 1.94,-1.81 5.04,-1.25 2.26,-2.25 1.56,0.4 5.829996,-4.53 1.9,-7.35 -0.32,-2.64 3.4,-1.09 2.67,-3.89 1.37,-4.77 0.55,0.34 z"
     title="Primorsko-goranska županija"
     id="HR-08" />
  <path
     d="m 145.63248,307.55474 7.69,7.74 -2.94,-1.05 -4.62,-4.22 -1.41,-2.15 1.28,-0.32 z m -2.29,-1.62 -2.58,-2.85 1.85,0.97 0.73,1.88 z m -7.4,-25.72 8.78,10.61 -1.57,-5 3.96,-0.85 0.73,0.96 -0.9,0.42 1.24,0.02 2.68,3.3 1.25,0.2 2.76,6.33 4.66,1.17 1.5,1.75 0.8,-0.17 0.64,2.88 2.11,2.75 -3.2,-1.65 0.13,-1.34 -2.83,-0.77 -0.93,0.88 -0.77,-2.34 -4.01,-1.56 -1.45,-1.97 -3.67,-1.53 -0.02,1.42 1.87,0.48 11.18,13.3 0.94,-1.34 -1.07,-4.11 5.79,4.94 1.64,0.41 2.55,4.48 3.8,1.99 1.05,2.97 1.6,-0.16 4.74,4.13 1.22,2.64 -0.27,1.25 -8.94,-6.3 6.71,6.71 -2.43,0.07 1.18,2.26 -0.99,-1.11 -8.03,-3.07 -0.01,1.38 4.66,4.27 -0.31,0.58 -6.81,-4.09 -1.95,-2.96 1.28,-0.39 0.05,-1.12 -1.89,-1.82 0.89,-1.46 1.77,0.06 0.25,-1.07 -3.55,-2.87 -1.56,-0.06 0.03,1.44 -2.75,-0.59 -0.3,-2.4 -4.42,-5.39 -3.01,-2.51 -1.06,0.33 0.21,-1.23 -0.26,1.01 -1.47,-0.11 -3.23,-2.75 -0.8,-1.75 2.19,-0.51 -0.53,-2.07 -4.65,-4.82 0.34,-0.88 0.99,0.22 -0.24,-0.81 -2.07,-0.98 0.5,-0.48 -0.84,-1.23 -2.35,-1.4 -0.28,-1.48 -4.61,-4.78 -5.71,-8.74 -0.18,-2.1 7.25,8.51 z m 21.52,-69.86 5.83,2.4 2.15,1.99 0.31,1.39 4.85,1.59 2.35,-3.48 3.65,-1.31 1.27,3.51 2.96,3.13 5.26,2.86 1.55,2.83 3.02,1.71 1.55,-0.41 1.95,1.02 7.94,11.71 2.27,1.14 5.57,0.51 1.13,2.81 0.97,-0.32 2.04,2.64 0.71,-1.47 -2.9,-2.52 -0.76,-2.08 1.85,-1.5 1.94,-3.51 2.12,1.09 0.99,2.65 1.36,1 5.24,-2.13 3.24,3.09 2.07,0.5 2.8,-2.24 0,0 1.24,8.52 3.48,3.44 -2.95,2.53 -3.56,0.1 -0.67,1.66 3.23,3.87 3.18,6.16 3.06,1.57 1.09,2.24 3.54,-0.54 0.86,-1.6 1,0.33 1.84,-1.84 1.11,-0.01 2.56,3.59 3.57,1.51 0.07,2.03 1.93,3.63 3.65,2.41 2.08,0.36 1.12,3.29 1.5,1.35 -0.05,1.55 -1.95,0.23 0.27,2.67 -2.67,-0.07 -0.52,0.85 2.24,4.58 8.2,4.86 1.63,0.09 1.94,5.11 -1.27,4.13 0.62,0.33 0,0 -2.22,1.58 -2.38,0.07 0,0 -1.4,-1.47 -1.96,-0.28 -0.28,4.55 -1.96,-1.89 0,0 0.21,-3.01 0,0 -3.29,-4.2 -2.87,-1.26 -3.57,-0.28 0,0 -2.1,1.47 0,0 -3.29,3.29 -2.17,0 -0.63,2.17 -8.05,3.78 -1.05,2.03 -2.59,1.12 3.36,0.91 0.98,1.82 -2.59,3.08 0,0 0.98,1.96 0,0 3.5,-0.07 1.19,1.96 -0.42,6.09 -1.33,2.24 -1.89,1.26 -8.82,0.28 -3.5,-0.91 -2.31,-1.82 -5.25,0.07 -3.01,-1.47 -2.45,-5.11 -4.21,-3.21 0,0 -10.85,-4.21 0,0 -3.49,-2.05 0,0 -0.2,-0.1 0,0 -4.33,-2.43 0,0 -3.64,7.23 0,0 -1.17,-0.37 -9.6,-11.84 -1.04,-0.06 -1.68,-2.33 -2.4,-1.3 -3.63,-5.97 -3.21,-2.18 -0.19,0.68 -0.07,-1.45 -3.97,-3.91 -1.22,0.16 -1.15,-1.59 -1.61,-0.49 0.24,-0.81 -0.39,0.45 -2.15,-4.1 -0.56,-3.74 -3.39,-3.26 -0.14,-2.49 -3.19,-3.83 -0.59,-4.85 0.78,-2 -1.88,-7.03 0.21,-7.58 0.25,-2.3 0.92,-2.84 1.37,-4.09 2.07,-6.37 -0.9,-3.18 -2.28,-1.79 0.23,-1.72 -1.75,-5.12 0,0 1.27,-1.14 -0.3,-2.03 2.36,-0.36 0.11,-1.34 2.06,-1.5 0.94,2.45 2.81,-1.04 3.52,0.32 2.1,-3.39 -1.55,-5.39 z"
     title="Ličko-senjska županija"
     id="HR-09" />
  <path
     d="m 399.74248,85.284737 0.63,0.56 -0.02,1.29 -0.43,1.25 -1.37,-0.99 0.37,2.58 3.95,-0.76 0.8,2.43 1.95,-1.23 0.28,1.37 2.19,0.32 -0.56,-2.67 0.74,-0.6 9.62,2.37 3.99,-0.39 5.77,4.96 3.11,8.320003 1.3,1.52 3.07,-0.12 1.73,1.06 2.9,0.2 1.98,2.66 2.15,-0.71 3.52,1.89 1.12,-0.9 1.23,3.39 1.51,0.8 1.21,2.4 3.16,-3.3 2.41,-0.11 0,0 -0.02,2.56 2.22,5.77 6.68,2.44 3.01,11.75 1.95,0.31 -1.19,3.21 -4.5,5.86 0.3,2.87 -2.86,1.25 -1.43,4.14 -1.93,2.39 -5.14,2.44 0,0 -0.58,-0.24 0,0 -1.75,-0.65 -2.92,1.71 -5.07,0.18 1.43,-1.38 -2.25,-1.9 -7.02,-0.58 -2.83,-1.75 -5.61,-0.2 -1.85,-1.49 -1.96,-3.51 -2.51,-0.28 -4.03,-3.74 -1.97,0.03 -1.3,2.46 -3.3,-1.55 -0.82,-1.81 -1.52,0.8 0,0 -1.83,0.57 -0.04,-3.17 2.4,-1.4 -0.02,-3.79 3.32,-4.26 -0.18,-2 1.96,-2.86 -2.24,-1.94 -2.6,-0.34 0.06,-1.21 -1.03,-0.88 -2.84,1.12 -0.79,1.67 -1.91,0.91 -1.34,-3.96 -2.46,1.98 -0.49,-1.61 1.65,-2.88 -0.2,-1.65 -1.8,-1.59 -1.03,2.47 -1.74,-0.79 -0.24,-2.53 -2.92,-0.67 -1.26,-2.84 0.14,-2 -3.32,-0.63 -2.11,-2.39 -2.51,-1.02 -1.57,-3.61 -6.28,-3.160003 0,0 0.84,-2.98 6.46,-8.3 2.02,-4.23 4.81,0.62 3.74,-0.89 0,0 1.09,0.49 0.49,-1.26 1.11,0.07 -1.51,2.84 1.96,0.37 1.04,-1.96 -1.13,-1.41 0.65,-0.88 z"
     title="Virovitičko-podravska županija"
     id="HR-10" />
  <path
     d="m 454.57248,157.63474 0.21,3.83 0.94,0.76 4.61,0.77 0.68,1.7 2.3,0.77 1.36,1.71 2.9,0.68 1.02,1.96 2.05,0.77 2.56,-1.03 2.47,0.68 1.53,1.45 0.77,1.45 -0.39,2.95 -2.41,1.78 2.31,1.72 1.7,4.97 -4.31,4.78 0,0 -9.24,-2.49 -9.34,0.22 -1.62,3.59 -1.17,0.12 0.79,1.81 -2.07,1.59 -2,3.56 -3.73,-1.09 -0.54,2.13 -1.53,0.93 0.93,1 -4.03,0.48 -4.77,-1.84 1.95,-2.55 -1.07,-2.24 0.38,-2.58 -1.37,-2.67 -9.61,-0.15 -3.22,-1.2 -2.62,-2.93 -4.84,-2.33 -1.34,-1.64 -0.32,-2.91 -2.77,-0.79 -1.81,-3.04 -4.23,-3.13 -6.25,0.66 -0.49,2.11 -2.06,0.74 -3.64,-1.28 -1.44,-2.14 -2.76,-0.28 -6.94,5.34 0,0 -4.42,0.72 -0.52,-2.45 -1.66,-1.69 -6.65,-3.02 0.57,-3.02 1.37,-0.86 -0.72,-2.27 -1.41,-0.26 0.27,2.16 -1.62,0.22 0.16,1.47 -0.81,0.06 -1.38,-4.24 -2.04,-1.66 -4.1,0.05 -2.23,-3.73 0,0 -0.48,-4.87 3.03,-5.14 -0.19,3.01 0.88,1.21 1.94,-0.03 3.31,1.66 1.7,-0.35 0.48,-1.26 1.58,-0.63 2.74,2.39 4.21,-2.74 4.11,1.18 1.11,-0.87 0.01,-1.61 1.14,-0.12 4.42,3.76 6.11,0.18 1.05,-1.31 6.49,-0.8 0.42,1.41 4.78,0.81 3.1,-2.62 0.11,-3.34 1.23,-2.39 -0.91,-1.38 0,0 1.52,-0.8 0.82,1.81 3.3,1.55 1.3,-2.46 1.97,-0.03 4.03,3.74 2.51,0.28 1.96,3.51 1.85,1.49 5.61,0.2 2.83,1.75 7.02,0.58 2.25,1.9 -1.43,1.38 5.07,-0.18 2.92,-1.71 1.75,0.65 0,0 z"
     title="Požeško-slavonska županija"
     id="HR-11" />
  <path
     d="m 382.10248,176.33474 6.94,-5.34 2.76,0.28 1.44,2.14 3.64,1.28 2.06,-0.74 0.49,-2.11 6.25,-0.66 4.23,3.13 1.81,3.04 2.77,0.79 0.32,2.91 1.34,1.64 4.84,2.33 2.62,2.93 3.22,1.2 9.61,0.15 1.37,2.67 -0.38,2.58 1.07,2.24 -1.95,2.55 4.77,1.84 4.03,-0.48 -0.93,-1 1.53,-0.93 0.54,-2.13 3.73,1.09 2,-3.56 2.07,-1.59 -0.79,-1.81 1.17,-0.12 1.62,-3.59 9.34,-0.22 9.24,2.49 0,0 1.11,1.45 2.2,0.76 3.01,-0.33 1.05,1.81 1.29,-0.6 3.05,0.96 1.12,2.22 1.77,0.66 5.25,-0.85 3.19,-2.52 6.33,-0.63 3.15,0.78 1.22,1.68 3.47,1.91 8.15,1.32 3.33,2.44 0,0 -5.47,9.86 1.91,4.05 2.11,0.66 0,0 -0.47,0.99 2.06,1.81 -1.42,1.57 -0.57,2.68 -0.7,-2.38 -2.09,0.4 -3.43,-1.04 -4.98,-6.44 -10.63,0.99 -1.41,-2.03 -2.59,0.16 -0.71,-2.79 -1.92,-0.81 -4.53,2.36 -0.2,1.71 1.2,2.12 -1.84,2.36 -2.19,0.72 -4.35,-1.35 -2.01,0.76 -5.09,-3.97 1.52,-1.86 -1.67,-3.11 -2.24,-0.03 -1.3,2.43 -1.63,-3.53 -1.2,-0.38 -2.26,0.95 -2.18,4.4 -3.3,1.04 0.4,3.92 -4.29,3.42 -4.92,1.98 -2.3,-1.05 -4.25,-4.47 -3.03,-0.6 -8.94,-7.03 -2.05,0.44 -2.68,2.5 -2.69,1.16 -2.26,-1.28 -2.24,0.97 0.23,-2.19 -0.81,-0.88 -1.89,3.05 -1.8,0.05 -1.01,-0.97 -1.97,0.89 -0.49,-0.71 1.36,-1.58 -0.02,-1.68 -1.86,1.28 -2.45,0.02 0.56,-2.75 -0.85,-2.06 -0.94,0.16 -0.65,2.1 -1.69,1.45 -5.6,-0.48 -3.5,-2.09 -0.06,-2.08 -1.79,0.1 -0.12,-1.8 -2.44,0.33 -1.26,-1.83 -3.06,6.32 -6.93,-0.22 -3.29,-2.24 0,0 -3.4,-6.57 -4.39,-3.47 0.85,-2.33 4.16,-1.67 4.41,-5.46 2.04,-0.91 -0.64,-2.49 1.23,-2.2 -1.01,-1.37 z"
     title="Brodsko-posavska županija"
     id="HR-12" />
  <path
     d="m 208.83248,393.74474 1.1,1.24 -1.94,0.23 -1.53,-2.2 1.39,0.74 0.09,-0.9 0.89,0.89 z m -24.7,-22.74 2.01,0.23 0.77,1.51 3.03,1.23 3.55,4.07 1.69,-0.23 1.43,1.66 0.06,2.61 6.78,5.89 -0.42,1.45 -1.08,-1.23 -1.47,0.77 -4.38,-3.56 0.02,1.09 -1.14,-0.03 -1.4,-0.62 -0.77,-1.98 -0.1,-1.12 -0.54,-0.49 -0.89,-0.99 -3.06,-1.63 -1.03,-2.51 -3.39,-3.94 0.09,-0.98 -1.48,-0.92 1.22,-1.09 0.5,0.81 z m -21.88,-3.72 0.82,0.04 -0.32,1.12 1.81,1.52 0.62,2.12 -3.26,-2.24 0.71,-0.98 -1.11,-1.95 0.73,0.37 z m 2.02,-5.72 2.78,2.04 0.52,2.3 0.79,0.04 1.48,2.57 1.63,0.7 0.18,1.62 1.95,2.93 -9.36,-8.26 -0.63,-4.31 0.66,0.37 z m 2.25,-8.11 0.69,1.09 2.19,0.39 2.83,2.67 0.99,0.53 0.71,0.45 1.72,1.18 -0.38,1.29 1.97,2.63 2.31,1.08 3.08,3.09 -0.81,0.42 1.36,1.74 -1.11,1.26 -0.74,0.36 0.18,-1.86 -1.39,-0.37 -1.25,-2.93 -0.64,-0.42 -0.46,1.87 -0.87,0.65 -7.26,-7.98 -1.37,-2.77 -1.95,-0.46 -3.22,-3.05 0.68,-1.25 -1.22,-1.78 0.29,-1.01 3.67,3.18 z m -5.34,-2.47 0.89,0.26 0.13,1.6 -2.29,-1.11 -1.67,-2.64 0.67,-0.62 2.27,2.51 z m -12.6,-1.24 2.22,2.66 -2.94,-1.29 -2.97,-2.99 3.69,1.62 z m -6.38,-1.07 0.79,1.01 1.35,0.01 -0.11,0.79 2.86,2.26 1.21,2.86 2.45,0.6 -0.6,1.16 0.76,1.15 5.1,3.3 -0.02,-1.28 1.25,0.59 0.08,1.18 -0.9,0.13 2.38,1.54 0.63,3.89 3.16,5.09 1.17,0.27 2.59,3 0.1,-1.76 2.3,1.66 -0.43,1.29 3.03,2.12 1.48,2.42 0.98,-0.16 0.46,2.02 5.18,3.01 0.32,1.19 -1.22,-0.37 0.53,1.17 -0.96,0.39 -1.71,-1.1 -0.41,-0.13 -1.3,-1.06 -1.16,0.19 -0.12,-1.12 -1.88,-0.8 -0.74,-1.46 -1.04,0.66 0.53,1 0.86,0.78 1.63,1.7 0.93,-0.03 1.42,2 1.9,0.64 0.1,1.96 -10.08,-8.82 -11.45,-18.39 -5.64,-4.34 -5.23,-6.22 -1.41,-0.79 0.09,1.61 -5.13,-3.16 -0.56,-1.6 1.34,-1.16 0.56,0.5 -1.31,0.53 0.99,1.64 2.73,1.47 -1.6,-2 1.09,-0.23 2.47,1.6 -2.38,-3.95 0.06,-1.25 0.53,0.8 z m 7.54,-0.48 0.23,0.79 -3.52,-2.98 1.22,-0.2 2.07,2.39 z m 1.07,-3.68 4.76,5.51 1.34,-0.07 2.28,2.21 0.72,1.15 -0.41,1.58 -2.41,-1.84 -0.28,0.75 -3.27,-3.29 -2.9,-4.13 0.17,-1.87 z m -14.48,-9.1 1.7,2.33 4.47,2.28 1.46,1.91 0.6,-1.9 1.61,1.09 -0.85,0.63 1.88,1.07 -1.23,0.37 -0.44,1.68 -2.76,-1.31 0.46,-0.89 -2.56,-0.5 -0.99,-1.57 -2.57,-1.2 2.89,4.59 -0.11,0.68 -1.19,-0.24 -4.33,-8.2 1.96,-0.82 z m -10.95,-3.9 1.14,-0.17 1.82,2.38 -1.1,0.32 -1,-0.24 -2.03,-2.03 1.17,-0.26 z m 8.83,1.62 1.51,1.33 -1.47,0.97 -2.2,-1.43 0.41,2.4 -2.31,-1.24 -0.95,-2.23 2.49,0.35 -0.91,-2.39 3.43,2.24 z m 25.84,-6.58 0.95,-0.4 1.15,1.36 0.89,-0.58 1.56,1.37 1.92,-0.03 3.59,2.83 -0.02,0.78 -1.42,0.75 -0.04,-1.47 -2.52,-1.02 -1.78,0.61 0.1,1.15 -2.88,0.33 -3.35,-4.79 0.24,-1.18 1.61,0.29 z m -42.71,-1.52 2.19,1.11 2.81,3.53 -2.93,-1.07 -2.33,-2.03 0.2,-0.66 -2.43,-0.76 -1.55,-2.51 0.91,-0.78 3.13,3.17 z m 6.89,-11.18 1.93,2.15 -0.41,3.75 1.95,0.97 0.69,2.45 -0.8,0.27 -2.31,-1.6 -1.32,-4.46 -2.43,-0.84 0.28,-2.05 2.42,-0.64 z m 11.07,-0.72 1.65,2.44 -1.78,2.4 2.78,4.21 -0.63,1.9 -2.07,-0.07 -2.66,-2.64 -2.46,-1.08 3.28,-1.59 -1.77,-5.43 1.24,0.43 1.39,-1.29 1.03,0.72 z m 129.49,-2.1 1.05,1.26 0.28,-4.55 1.96,0.28 1.4,1.47 0,0 2.38,-0.07 2.23,-1.58 0,0 0.36,3.9 2.3,3.11 -2.51,1.29 -2.45,-0.55 0.48,2.41 8.66,3.06 0.87,1.67 -0.68,2.24 0.39,7.09 2.02,9.97 0,0 -5.63,1.89 0,0 -2.59,0.07 -1.26,2.73 0.84,4.62 -0.91,2.31 0,0 -2.38,1.89 0,0 -2.31,1.33 -9.87,-4.55 -0.21,-1.96 -1.82,-2.59 0,0 -1.96,-0.14 0,0 -4.27,7.21 0,0 -1.89,0.77 0,0 -1.19,1.75 0,0 -1.4,2.03 -2.38,0.49 0,0 -1.26,2.94 -3.78,-1.26 -1.26,0.77 0,0 1.19,1.75 0,0 1.96,0.14 3.57,2.38 0.14,2.17 0,0 -1.89,2.52 0.98,2.24 0,0 -2.94,2.73 -2.52,0.7 2.69,3.86 -1.92,1.22 -0.84,-0.31 0,0 -2.19,1.22 0,0 0.29,0.72 0,0 0.82,0.34 0,0 0.3,0.4 0,0 -0.05,0.3 0,0 -0.73,0.5 0,0 -0.34,0.47 0,0 -0.73,1.82 0,0 -1.13,0.6 0,0 -1.27,0.6 0,0 0.93,1.05 0,0 -0.57,1.27 0,0 -0.26,1.12 0,0 -0.29,1.9 -3.49,-1.99 0,0 -0.56,-0.16 0,0 -2.56,-1.12 0,0 -4.42,2.09 -2.03,-0.63 0,0 -3.42,-3.08 -2.69,2.36 -0.94,-0.2 -1.44,-0.93 -0.53,-0.97 0.63,-0.29 -1.33,-1.53 -6.96,-3.52 -1.58,-1.96 0.35,-1.45 -3.66,-2.58 -6.62,-9.05 -4.63,-2.21 1.03,-0.06 0.07,-1.09 -2.71,-1.38 -1.9,-4.68 -1.57,-0.88 -0.13,0.8 -2.5,-2.48 -0.35,-1.05 -0.03,-1.35 -1.88,-0.47 0.98,-0.93 -0.31,-1.18 -6.87,-7.05 1.83,-1.21 0.83,-3.57 -3.65,-1.67 -0.57,-2.29 -1.62,-0.52 1.52,-2.68 2.03,-0.07 3.46,3.98 -0.68,0.2 0.9,1.35 0.79,-0.95 1.14,-0.1 1.43,-1.4 -2.39,-3.64 1.05,-0.66 1.24,0.86 -0.45,-1.67 7.83,6.7 1.7,-0.6 -1.97,-4.38 1.84,0.32 0.69,-1.35 -4.64,-4.7 1.43,-1.79 0.27,1.13 5.07,2.96 0.67,0.88 -0.51,0.85 7.57,4.84 1.7,0.52 2.7,-1.12 6.27,1.77 1.05,3.12 -0.14,2.8 -4.06,1.61 4.55,4.13 5.74,-1.4 2.87,3.57 1.05,4.62 1.61,-0.49 0.49,-1.68 -2.45,-4.13 0.28,-1.82 -2.17,-2.73 -3.64,-0.84 -2.66,-2.94 -0.21,-3.43 1.15,0.01 -0.12,-1.71 -3.35,-1.86 -2.77,0.69 -1.02,-2.05 -1.54,0.45 -3.58,-4.62 -8.07,-3.6 -5.32,-3.63 0,0 3.6,-7.26 0,0 4.33,2.43 0,0 0.2,0.1 0,0 3.49,2.05 0,0 10.85,4.21 0,0 4.21,3.21 2.45,5.11 3.01,1.47 5.25,-0.07 2.31,1.82 3.5,0.91 8.82,-0.28 1.89,-1.26 1.33,-2.24 0.42,-6.09 -1.19,-1.96 -3.5,0.07 0,0 -0.98,-1.96 0,0 2.59,-3.08 -0.98,-1.82 -3.36,-0.91 2.59,-1.12 1.05,-2.03 8.05,-3.78 0.63,-2.17 2.17,0 3.29,-3.29 0,0 2.1,-1.47 0,0 3.57,0.28 2.87,1.26 3.29,4.2 0,0 -0.21,3.01 0,0 0.83,0.61 z"
     title="Zadarska županija"
     id="HR-13" />
  <path
     d="m 540.25248,94.334737 8.82,5.17 1.49,-0.2 0.45,-4.41 1.16,0.92 0.75,4.540003 2.79,2.19 -0.62,8.13 3.56,3.99 2.4,10.19 2.1,2.32 3.86,1.98 -2.86,7.86 -2.74,0.15 -0.94,0.97 1.18,2.19 -2.28,3.64 0.29,1.75 4.23,3.96 2.04,0.48 3.44,-1.08 0.92,-2.14 2.35,-0.11 1.23,3.25 3.44,0.52 3.53,2.54 -0.27,2.18 -1.61,1.86 -4.09,0.37 -3.22,-1.61 -1.39,0.26 -1.11,5.98 0.99,1.93 0,0 -0.9,0.66 -4.22,-0.17 -3.51,-4.79 -3.38,-2.12 -2.84,-0.03 -0.52,1.34 -3.87,0.35 -1.64,1.14 2.01,6.41 -1.99,0.15 -0.11,1.94 -2.65,0.57 -0.75,-1.49 -1.23,-0.32 -4.37,0.79 -2.35,2.18 -4.1,0.62 -0.02,5.19 -2.72,1.52 0.7,4.02 -4.13,0.31 -1.75,2.75 -2.9,-0.51 -2.86,1.74 -0.01,6.57 4.37,2.62 2.08,-0.2 -0.81,4.36 -2.11,0.69 0,0 -3.33,-2.44 -8.15,-1.32 -3.47,-1.91 -1.22,-1.68 -3.15,-0.78 -6.33,0.63 -3.19,2.52 -5.25,0.85 -1.77,-0.66 -1.12,-2.22 -3.05,-0.96 -1.29,0.6 -1.05,-1.81 -3.01,0.33 -2.2,-0.76 -1.11,-1.45 0,0 4.31,-4.78 -1.7,-4.97 -2.31,-1.72 2.41,-1.78 0.39,-2.95 -0.77,-1.45 -1.53,-1.45 -2.47,-0.68 -2.56,1.03 -2.05,-0.77 -1.02,-1.96 -2.9,-0.68 -1.36,-1.71 -2.3,-0.77 -0.68,-1.7 -4.61,-0.77 -0.94,-0.76 -0.21,-3.83 0,0 0.57,0.23 0,0 5.14,-2.44 1.93,-2.39 1.43,-4.14 2.86,-1.25 -0.3,-2.87 4.5,-5.86 1.19,-3.21 -1.95,-0.31 -3.01,-11.75 -6.68,-2.44 -2.22,-5.77 0.02,-2.56 0,0 5.9,-0.03 2.69,-1.02 2.83,2.43 5.89,1.91 2.23,-0.57 1.94,-3.01 2.89,0.2 1.92,1.71 1.83,-1.68 4.47,1.28 1.47,2.51 3.44,0.99 2.04,-0.8 3.82,1.1 0.4,0.97 2.04,-3.07 0.71,-0.85 3.15,2.13 0.28,2.03 0.98,0.68 4.2,0.49 -0.14,-3.61 1.08,-1.11 2.6,0.49 0.96,-4.19 3.15,1.64 1.3,-1.52 1.96,-0.01 0.56,-1.42 1.63,0.39 -0.01,-2.1 2.03,-0.83 0.83,-2 2.22,-0.81 0.07,-2.16 0.78,-3.250003 0.8,1.290003 1.56,-1.180003 -1.27,-1.88 2.18,-1.26 0.89,-2.15 z"
     title="Osječko-baranjska županija"
     id="HR-14" />
  <path
     d="m 219.68248,419.71474 1.14,0.76 1.53,-0.33 2.15,1.43 0.56,-0.67 2.39,3.22 2.93,0.48 1.77,1.57 -2.05,0.07 -1.13,-0.51 -0.82,0.46 -3.5,-1.37 -3.25,-3.61 -2.18,-0.31 -0.46,-1.73 0.92,0.54 z m 14.53,-3.48 2.09,0.96 0.26,1.58 -3.06,-1.21 -0.15,-2.75 0.86,1.42 z m 10.71,0.21 1.28,1.85 0.1,3.25 -5.03,-5.26 1.54,0.17 0.39,-1.67 1.72,1.66 z m -21.03,-0.2 2.55,0.73 1.66,2.17 -1.6,-0.04 -2.61,-2.86 z m 2.3,-2.84 1.78,0.14 0.83,1.51 1.77,2.45 1.21,-0.21 -1.16,1.51 0.47,1.37 -2.46,-1.3 -0.24,-1.07 1.62,0.23 -3.06,-2.35 -0.76,-2.28 z m 8.91,-1.45 2.13,1.78 -1.25,-0.13 0.66,1.5 -2.55,-2.87 0.56,-0.96 0.45,0.68 z m 4.92,0.58 -1.42,0.71 -1.1,-3.31 2.52,2.6 z m -48.77,-6.69 2.49,1.59 -0.82,0.43 -4.21,-2.4 1.02,-0.49 1.52,0.87 z m 27.89,-7.92 -0.13,1.72 2.56,2.12 -0.1,0.92 1.63,-0.57 0.87,1.61 -0.86,0.53 1.51,0.72 0.77,1.97 -4.23,-1.37 0.01,-1.37 -4.85,-3.99 -1.45,-3.03 1.06,-0.33 1.5,1.8 0.77,-1.9 0.94,1.17 z m -38.22,-6.95 0.11,0.7 2.69,0.22 0.45,0.72 -1.68,0.2 0.35,0.67 8.56,6.62 4.77,5.52 -2.57,-1.22 -3.1,-0.76 -2.86,-2 0.18,-1.37 -4.55,-2.49 -1.97,-3.96 -2.08,-2.02 0.14,-0.86 1.56,0.03 z m 3.17,-2.53 3.03,1.09 -1.23,0.26 1.18,1.33 0.68,-0.57 1.3,0.83 0.11,-1.96 1.38,1.62 -0.58,1.36 2.61,2.49 0.14,1.57 2.19,2.46 -0.69,0.31 -1.12,-1.92 -4.75,-3.06 -3.17,-3.42 -1.91,-0.19 -0.7,-1 1.53,-1.2 z m 110.62,-31.62 2.84,4.15 5.97,-0.13 1.59,7.58 6.12,0.49 3.64,6.31 0.46,3.35 0,0 -4.39,-0.24 -5,3.48 -1.88,-0.46 -2.11,0.99 -0.26,1.15 1.41,0.95 -0.2,0.93 -3.02,0.34 -3.42,-1.17 -1.66,5.37 10.19,9.64 -3.96,2.96 -0.94,1.79 -4.4,2.5 1.23,2.87 -2,2.15 2.02,1.67 0.04,1.03 -3.04,3.42 -7.93,-0.58 -1.9,2.68 -4.65,-0.38 -1.22,3.31 -4.45,0.13 -3.15,5.03 -2.92,0.66 -0.57,1.74 -2.5,1.58 1.33,3.36 2.82,0.47 0.67,3.73 -1.27,1.1 -3.3,0.03 -0.63,2.48 -2.5,1.12 0,0 -1.74,1.95 -0.8,-0.7 0.83,-1.01 -1.91,0.03 -1.41,0.68 -0.78,-0.64 -1.22,-1.36 1.35,-0.21 1.15,0.01 1.54,-1.27 -0.93,-2.53 1.36,-0.34 -1.7,-0.24 -0.37,1.02 -1.17,-0.06 -0.05,1.78 -0.89,-0.91 0.76,-1.79 -2.7,-0.67 -0.9,-1.15 0.45,-0.94 1.6,0.17 -0.12,-1.64 -1.17,0.84 -1.48,-0.9 1.42,-2.21 -1.51,-0.68 0.78,-0.43 -0.6,-1.87 0.76,-0.71 -1.41,-2.17 0.68,-0.88 5.33,0.21 -7.08,-2.22 2.42,0.09 0.22,-1.04 2.3,2.01 -0.33,-2.69 -3.27,-2.61 -2.05,-3.14 -1.35,0.64 -2.86,-3.62 -7.41,-5.32 -1.15,0.89 -2.78,-0.73 -0.04,0.57 -1.79,-0.93 0.23,-0.84 -3.65,-0.06 -1.06,-2.59 -2.39,-2.3 -2.28,-0.19 -2.33,-1.89 -0.21,-1.34 1.67,1.84 0.81,-0.99 1.53,0.11 2.46,1.47 0.41,1.34 0.04,-2.77 -1.81,-0.11 -4.08,-3.83 -3.57,-0.61 -1.72,-1.39 0.14,-1.3 -1.6,1.07 -0.23,-1.46 2.63,-2.65 3.42,3.08 0,0 2.03,0.63 4.42,-2.09 0,0 2.56,1.12 0,0 0.56,0.16 0,0 3.49,1.99 0.29,-1.9 0,0 0.26,-1.12 0,0 0.57,-1.27 0,0 -0.93,-1.04 0,0 1.27,-0.6 0,0 1.13,-0.6 0,0 0.74,-1.82 0,0 0.34,-0.47 0,0 0.74,-0.5 0,0 0.05,-0.3 0,0 -0.3,-0.4 0,0 -0.82,-0.34 0,0 -0.29,-0.72 0,0 2.19,-1.22 0,0 0.84,0.32 1.92,-1.22 -2.69,-3.86 2.52,-0.7 2.94,-2.73 0,0 -0.98,-2.24 1.89,-2.52 0,0 -0.14,-2.17 -3.57,-2.38 -1.96,-0.14 0,0 -1.19,-1.75 0,0 1.26,-0.77 3.78,1.26 1.26,-2.94 0,0 2.38,-0.49 1.4,-2.03 0,0 1.19,-1.75 0,0 1.89,-0.77 0,0 4.27,-7.21 0,0 1.96,0.14 0,0 1.82,2.59 0.21,1.96 9.88,4.55 2.31,-1.33 0,0 2.38,-1.89 0,0 0.91,-2.31 -0.84,-4.62 1.26,-2.73 2.59,-0.07 0,0 5.63,-1.89 0,0 3.82,6.06 5.6,4.72 0.73,3.15 0.98,0.8 z"
     title="Šibensko-kninska županija"
     id="HR-15" />
  <path
     d="m 523.56248,200.39474 2.11,-0.69 0.81,-4.36 -2.08,0.2 -4.37,-2.62 0.01,-6.57 2.86,-1.74 2.9,0.51 1.75,-2.75 4.13,-0.31 -0.7,-4.02 2.72,-1.52 0.02,-5.19 4.1,-0.62 2.35,-2.18 4.37,-0.79 1.23,0.32 0.75,1.49 2.65,-0.57 0.11,-1.94 1.99,-0.15 -2.01,-6.41 1.64,-1.14 3.87,-0.35 0.52,-1.34 2.84,0.03 3.38,2.12 3.51,4.79 4.22,0.17 0.9,-0.66 0,0 2.5,2.07 -0.04,1.88 -0.82,1.51 -1.86,0.34 -2.22,3.48 5.2,4.69 7.08,1.54 2,5.72 14.41,7.53 15.31,1.63 0.53,5.08 -1.01,1.86 0.35,1.95 -4.19,0.6 -4.06,-4.67 -2.44,0.23 -0.77,3.95 -2.36,0 -8.81,-4.48 -0.41,0.9 1.48,1.7 -0.36,1.85 -4.21,6.16 -1.44,0.7 -4.12,-0.52 -0.09,2.73 1.62,2.44 -0.92,1.77 1.88,2.12 -0.06,2.36 -1.82,1.9 0.73,4.19 -0.99,1.85 -4.28,2.67 6.18,0.98 3,-1.49 1.27,3.72 -1.22,1.73 -4,1.71 -2.54,3.09 -7.12,1.02 1.44,6.78 -5.59,0.83 -12.3,-0.65 -9.08,-7.52 0.86,-2.17 -2.1,-3.01 0.92,-0.45 2.78,1.41 1.83,-1.01 -2.08,-3.67 1.02,-3.68 -3.91,-1.07 -3.03,0.68 0.84,-3.21 -2.23,-2.8 -2.23,-0.57 -2.54,-3.21 1.93,-2.12 -1.04,-2.15 -1.11,-0.2 -1.06,1.25 0.49,3.42 -0.72,0.78 -5,-1.23 0.07,-0.89 2.82,-2.16 -0.4,-1.35 -0.98,0.07 -1.27,1.98 -3.92,-1.93 -0.38,0.79 1.46,1.68 -0.74,1.59 -1.07,-2.25 -3.09,-1.59 0,0 -2.11,-0.66 -1.91,-4.05 z"
     title="Vukovarsko-srijemska županija"
     id="HR-16" />
  <path
     d="m 279.03248,503.79474 -0.13,0.75 1.5,0.18 -1.38,1.91 1.02,0.44 2.43,-2.26 1.96,0.18 0.44,1.06 1.43,-1.16 -0.09,3.01 -2.39,1.62 -0.13,1.47 -1.83,1.25 -1.62,0.35 -2.59,0.51 -6.05,1.17 -4.52,-0.1 2.3,-2.23 0.09,-2.1 -0.98,-1.4 -1.81,0.96 -1.34,-2.06 4.7,-2.61 8.99,-0.94 z m 52.63,-2.5 2.01,0.21 2.03,0.28 1.01,1.17 -2.79,1.14 -5.33,-1.02 1.09,-1.47 1.98,-0.31 z m -35.3,-10.67 3.03,1.7 1.98,-0.65 0.19,1.63 -1.98,0.44 -1.73,-0.07 -2.15,-1.25 -1.45,-0.51 0.84,-1.5 1.27,0.21 z m 21.95,-8.03 1.06,-0.06 -0.64,1.84 0.34,0.89 1.23,-0.16 -0.16,1.16 2.74,-1.74 0.69,0.92 2.71,-0.08 0.51,-0.1 0.56,-0.71 1.84,0.82 -0.3,2.08 3.53,2.77 -2.74,-0.49 2.34,1.51 0.99,1.23 2.13,0.76 2.35,-1.2 1.13,-0.03 1.93,1.06 5.25,-0.56 1.39,0.79 3.74,-0.85 2.15,1.48 6.27,-0.04 15.13,2.6 4.15,-0.93 5.26,2.15 -8.55,1.57 -1.75,-0.62 -4.42,0.76 -1.37,-0.72 -3.48,0.72 -2.9,-0.21 -4.41,0.33 -16.86,-2.22 -11.37,0.86 -10.08,-2.88 -2.57,0.23 -6.49,-3.24 -1.43,0.85 -2.66,-0.96 0.29,-1.12 -1.72,-0.03 -0.54,-0.98 -5.75,-2.22 1.42,-0.65 4.04,0.78 1.98,-1.24 1.62,-0.75 1.27,0.34 0.75,-0.73 5.59,1.03 4.22,3.48 3.06,-0.75 -2.1,-0.75 -0.19,-1.78 -1.46,-0.3 -0.41,-2.06 -1.84,1.08 -1.95,-1.99 0.97,-0.71 0.5,0.85 1.7,0.03 -0.43,-1.29 1.74,0.18 z m -12.29,-22.58 6.97,0.95 3.82,-0.81 6.19,1.18 7.33,1.32 5.79,1.41 4.56,0.52 0.25,1.19 1.64,-0.77 2.08,1.16 -2.13,0.64 0.14,0.82 2.26,-0.61 1.05,1.15 0.1,-1.21 0.85,-0.2 5.15,3.3 1.06,1.23 -1.33,0.52 0.86,1.25 -1.36,0.45 -0.05,1.9 -1.76,-0.54 -0.91,2.1 -6.64,1.3 -3.83,-0.44 -12.34,1.37 -2.11,-0.99 -8.82,-1.05 -2.04,-0.85 -0.96,-0.34 -1.26,-0.98 -0.34,-1.01 -1.25,-0.18 -0.98,-0.65 -1.1,-0.11 0.52,-1.05 -0.77,-0.68 -0.88,0.17 0.18,0.88 -1.03,-0.37 -0.61,-0.48 -1.9,-0.94 -0.2,-2.44 1.72,1.63 2.39,-0.43 -1.4,-0.74 -0.13,-2.03 2.9,-1.11 -1.43,-0.78 0.42,-1.56 -2.19,-2.11 -0.18,-0.84 1.7,-0.14 z m -20.83,-3.3 5.35,1.48 0.55,1.49 0.98,-0.75 0.78,0.68 1.05,-0.23 2.52,3.53 0.95,-0.3 0.29,2.03 2.9,2.24 0.64,1.91 -1.87,0.37 -0.33,-1.09 -1.11,0.06 -1.02,-0.14 -0.75,-1.08 -3.29,-0.94 -1.27,-0.74 0.29,-1.02 -2.12,-0.4 -1.11,-0.4 -4.82,-2.72 -2.6,-0.1 -0.17,-1.05 0.37,-1.58 -0.68,-0.92 4.47,-0.33 z m -15.97,-5.84 0.83,1.21 -1.11,1.44 -0.79,-1.26 -2.7,-0.3 0.21,-0.65 3.56,-0.44 z m 5.3,-0.4 2.62,0.23 0.94,1.88 -0.76,1.41 -1.54,-0.75 -0.95,1.18 -3.62,0.1 1.01,-1.89 0.73,0.14 -0.07,-1.35 0.83,-0.48 0.81,-0.47 z m 14.47,-7.97 2.31,0.07 5.22,2.89 4,0.97 -8.01,0.73 -4.45,-1.48 -0.5,1.08 -2.28,0.8 -4.2,-2.16 1.43,-0.81 3.85,0.92 0.29,-2.09 -1.89,-0.73 4.23,-0.19 z m -27.25,1.86 2.51,-1.12 0.63,-2.47 3.3,-0.03 1.27,-1.1 -0.67,-3.73 -2.81,-0.47 -1.32,-3.36 2.51,-1.58 0.57,-1.74 2.92,-0.65 3.15,-5.03 4.45,-0.13 1.22,-3.31 4.65,0.39 1.9,-2.68 7.93,0.58 3.04,-3.42 -0.04,-1.03 -2.02,-1.67 2,-2.15 -1.23,-2.87 4.4,-2.5 0.94,-1.79 3.96,-2.96 -10.18,-9.64 1.66,-5.37 3.42,1.17 3.02,-0.34 0.2,-0.93 -1.41,-0.94 0.26,-1.15 2.11,-0.99 1.88,0.46 5,-3.48 4.39,0.24 0,0 4.96,3.35 3.45,4.87 8.43,6.03 0.84,1.49 0.04,4.45 2.7,4.43 1.7,1.76 4.54,1.03 2.85,4.98 3.61,2.5 1.91,3.13 2.63,1.56 2.25,4.28 3.82,3.45 8.17,10.78 1.28,-0.95 1.85,0.74 2.06,2.36 3.19,1.81 2.47,3.26 8.4,-0.33 3.31,2.25 2.24,3.07 0.49,2.64 -0.38,2.97 -2.62,5.71 7.9,14.73 0.84,4.48 5.36,1 2.73,2.11 2.29,4.16 -0.52,3.03 1.51,0.38 0,0 -3.57,3.34 -5.26,-1.3 -2.17,1.09 0.17,2.02 3.57,1.15 -0.06,2.88 -2.67,2.99 0,0 -1.42,-2.63 -4.81,-2.2 -0.59,-1.51 -2.53,-1.92 -8.82,-3.21 -2.21,-2.65 -1.48,-0.14 -2.69,-2.06 -0.63,-2.63 -2.84,-0.92 -2.83,-5.21 -3.23,-2.28 -1.02,-1.03 -6.58,-9.4 -5.07,-4.1 -0.96,-1.73 -10.06,-0.37 -6.89,-1.43 -3.52,-4.3 -4.94,0.74 -2.3,-2.03 -4.22,-1.56 -4.25,-3.71 -1.32,-1.05 -4.94,-0.8 -2.87,0.53 -2.58,-0.11 -4.01,-1.18 1.6,-1.02 1.8,-0.88 1.82,-0.95 0.82,-0.17 2.95,0.4 0.06,-0.67 -0.66,-0.7 -12.12,-2.15 -3.96,1.68 -2.05,2.01 -7.35,1.18 -1.23,0.95 -2.77,0.47 -0.33,-0.77 -2.18,0.16 -2.8,-1.15 -1.6,1.11 5.94,1.51 0.3,1.27 -1.96,1.42 -2.52,0.2 -0.49,0.34 -1.49,1.14 -2.23,-0.27 -2.64,-1.69 -0.8,1.39 -1.32,-0.85 -0.93,0.38 0.53,-1.69 -1.83,-0.33 -1.07,1 0.2,-2.32 z"
     title="Splitsko-dalmatinska županija"
     id="HR-17" />
  <path
     d="m 26.992484,239.18474 0.93,0.93 0.85,-0.31 0.99,0.42 -0.28,1.2 0.95,0.48 -1.73,0.83 -0.06,-0.77 -0.78,0.1 -0.5,2.75 -0.67,-2.58 0.85,-1.72 -2.04,-1.09 1.49,-0.24 z m 27.74,-85.75 5.25,4.02 4.8,0.44 0,0 0.6,2.41 -0.58,1.93 1.73,3.04 7.91,5.03 -1.89,1.78 -0.08,1.57 1.65,1.82 1.52,6.6 -1.41,0.59 -0.7,1.83 -0.65,6.58 1.6,6.59 -0.72,6.92 2.54,1.67 0,0 -0.19,2.22 -1.8,2.98 -0.93,1.39 -2.1,3.71 -1.28,1.3 -1.21,-0.99 -0.73,1.71 1.29,1.31 0.37,2.58 -0.24,1.2 -0.52,0.73 1.31,2.54 0.42,3.56 -2.38,4.16 -1.27,-1.52 -1.4,0.93 -0.55,-1.21 -1.08,-0.07 -4.37,3.72 0.85,-3.64 2.21,-0.94 -1.45,-1.38 -0.34,-2.74 -1.08,0.7 -1.32,-0.57 0.52,-2.12 -1.41,-3.52 -0.67,1.77 0.79,2.32 -0.93,2.09 3.19,0.83 0.77,2.32 -1.23,0.03 0.09,1.53 -1.29,0.64 -0.03,2.25 -2.08,-0.9 1.85,2.33 -1.2,2.99 -0.91,0.61 -0.23,1.19 -2.28,1.78 -2.55,-1.4 0.01,1.4 2.4,1.22 -1.28,0.83 1,2.24 -2.13,1.57 -0.19,1.8 1.02,1.72 0.26,1.14 1.19,2.52 -5.57,0.01 -1.47,-2.06 -1.24,0.2 0.17,-1.21 -1.55,-0.83 -1.04,0.86 0.21,0.96 1.29,0.48 1.12,1.63 -1.07,1.56 0.69,1.83 0.03,0.54 -0.32,0.77 -1.2,0.32 -0.33,-5.87 -2.48,-0.1 -1.78,-0.49 -0.64,-0.33 -0.85,-1.21 1.64,-0.65 -0.33,-0.71 -1.61,0.26 -0.13,-1.6 -1.11,1.32 -0.52,-0.58 0.93,-1.92 -2.38,-0.61 -1.67,-1.25 -0.09,-1.86 2.16,1.67 2.02,0 0.53,-0.63 0.38,-0.58 0.29,-1.66 -1.33,-0.19 -0.44,0.98 -1.32,0.18 -1.38,-0.99 -0.97,-0.92 1.43,-1.35 0.51,-2.13 -1.03,-0.23 -0.15,-1.94 -4.07,-8.18 -2.9,0 -1.6,-3.21 -0.96,-0.19 0.21,-1.98 -2.34,-0.16 0.07,-2.25 -1.03,-0.66 0.85,-1.05 -3.79,-2.32 -2.3,0.51 -0.45,-0.96 1.2,-0.22 -0.77,-1.8 0.96,-0.44 0.13,-1.52 -0.94,-0.42 -1.81,-0.8 -0.82,-1.43 -0.98,-3.8 0.23,-1.07 0,-0.66 1.24,-0.83 -2.3,-2.53 1.63,-0.57 -2.48,-2.71 0.75,-0.88 0,-0.73 0.86,-1.92 0.18,-0.92 0.3,-2.14 -0.58,-1.63 -1.94,-0.22 -0.31,-1.25 0.99,-1.88 2.24,0.06 -0.32,-1.25 -1.5,0.09 -1.9,-2.07 2.28,0.19 0.01,-1.16 2.43,-1.29 -1.91,-0.28 -0.53,0.09 -3.23,0.06 -0.49,-0.29 0.89,-0.79 -2.47,-1 -0.13,-3.26 1.74,-0.94 -1.3,-0.4 0.14,-1.75 -0.09,-0.78 -0.99,-1.07 0.27,-2.32 -2.07,-2.12 0.82,-3.16 -1.41,-0.57 0.67,-1.82 -0.84,-0.57 0.11,-2.23 -1.94,-2.43 1.3,-2.22 2.42,0.54 8.19,5.21 4.27,1.09 2.87,2.25 4.88,-2.29 1.21,-1.63 1.7,-0.22 4.65,1.9 0.08,2.32 1.19,1.35 2.81,-0.04 1.28,1.28 2.51,0 3.32,-4 4.28,-0.73 2.16,1.31 1.59,-1.31 0.42,-3.99 -3.17,-3.03 0.73,-1.31 3.21,0.65 -0.13,-1.34 0.89,-0.4 1.77,1.14 z"
     title="Istarska županija"
     id="HR-18" />
  <path
     d="m 468.43248,560.59474 0.98,1.43 -0.57,0.81 -0.6,-1.08 -2.91,-0.87 2.14,-0.27 -0.15,-0.83 1.11,0.81 z m -5.34,-1.19 1.16,1.25 -2.17,-0.45 0.3,0.72 -0.81,0.27 -2.54,-2.13 1.48,0.39 0.96,-1.6 1.62,1.55 z m -16.46,-8.76 3.78,1.55 0,1.42 -3.62,-1.8 -1.62,-1.99 1.46,0.82 z m 2.85,-0.97 2.15,0.1 6.27,4.54 0.67,0.98 -0.99,2.39 -4.9,-3.93 -3.2,-4.08 z m -99.66,-2.12 1.25,-0.67 0.34,0.98 2.21,-0.67 3.04,0.53 0.75,0.59 -0.41,1.84 -3.45,3.54 -1.87,0.53 -0.42,-0.42 -0.35,-1.57 -1.16,0.04 -2.45,0.83 -0.26,1.17 -2.96,-3.54 1.26,0.38 -0.01,-2.88 1.25,-0.59 -0.25,-0.94 1.13,0.27 0.93,-0.31 1.43,0.89 z m 52.08,-4.2 2.7,-0.11 -1.18,1.39 -1.48,-0.07 0.78,0.79 6.35,-0.11 0.9,1.14 15.25,4.79 0.28,1.18 4.47,-0.15 0.75,1.18 1.94,-0.95 0.29,1.52 1.53,-0.5 6.33,2.77 -0.52,0.94 1.02,1.9 -1.51,0.03 -0.61,-0.77 -1.11,-0.77 -1.75,0.37 -5.97,-2.72 -3.97,-0.79 -1.98,0.48 -5.81,-2.02 -2.38,0.11 -5.34,-2.96 -1.51,1.22 -0.64,-1.45 -2.34,-0.01 -0.57,-1.07 -2.14,-0.58 0.11,1.05 -0.16,0.42 -5.95,-2.58 0.34,-1.62 3.88,-2.05 z m -69.89,-26.91 0.09,0.72 2.75,-0.32 1.75,1.58 3.98,0.79 0.43,0.87 7.02,1.28 5.03,-0.82 1.06,-1.16 10.78,-1.07 3.64,-0.3 -0.27,0.97 5.89,1.72 0.82,0.37 2.67,-0.66 0.95,0.87 1.9,3.17 -0.34,0.97 4.44,1.55 -7.38,1.25 -1.32,0.17 -7.52,-2.39 -7.63,-0.44 -8.18,4.41 -3.3,0.48 -1.68,-0.59 1.23,-0.77 -0.69,-0.49 -8.13,0.31 -10.74,-3.53 -0.69,1.9 -2.36,-1.44 0.6,-0.45 -0.67,-1.06 3.1,-0.9 -0.65,-1.42 4.92,-0.55 -0.35,-0.66 -0.43,-0.9 -2.96,-0.03 0.35,-0.83 -2.34,-1.55 -1.01,1.59 -0.52,-1.35 -1.28,-0.2 1.36,-0.9 1.02,0.62 2.33,-1.04 2.33,0.23 z m 32.44,-7.66 2.69,0.72 -0.18,0.56 3.9,1.84 10.12,-0.23 13.7,3.23 6.56,3.03 2.52,2.13 5.69,2.04 0.65,3.33 3,1.13 1.18,1.49 2.31,-0.32 1.76,1.31 -1.38,-2.97 1.08,-0.08 5.94,3.52 2.51,0.56 4.12,3.42 3.22,0.17 0.17,1.15 5.22,3.94 1.31,-0.13 -4.1,-3.29 -0.57,-1.41 -0.9,0.06 -4.03,-2.67 0.95,-1.65 3.36,-3.68 3.54,0.61 6.45,4.28 2.55,-4.03 3.64,3.04 0.22,4.29 1.97,3.98 2.41,0.77 -0.55,3.32 1.99,-0.04 4.06,1.67 2.42,2.44 2.26,0.49 1.28,3.09 3.45,0.76 6.66,4.98 -0.11,3.41 4.28,1.18 1.23,3.27 2.81,-0.35 3.76,4.88 2.12,1.18 1.41,2.65 4.65,-1.47 0.63,-1.36 2.12,-0.59 4.51,0.59 1.76,3.03 5.36,4.24 1.84,8.05 -1.09,1.92 0.2,2.1 7.04,8.04 -0.8,2.5 -5.73,-6.78 -0.91,0.74 -1.43,-0.88 -0.83,-1.51 -6.8,-4.81 -6.76,-3.47 -5.6,-4.81 -1.26,-2.33 -0.07,-1.15 0.77,-2.34 -2.27,-3.14 -0.94,-0.27 -1.91,1.33 -5.63,-3.6 -2.54,0.06 -1.23,-0.53 -2.99,-1.04 -0.23,-1.19 0.33,-0.67 1.66,-0.01 -0.59,-0.66 -2.64,-2.06 -8.16,-4.01 -1.24,-1.99 -5.41,-2.72 -2.68,-2.33 -0.29,-1.45 0.99,-0.06 0.44,-1.98 -2.17,1.6 -2.08,-1.71 -0.33,-2.14 -2.31,0.52 -2.61,-1.1 0.28,0.94 -1.61,1.9 -2.03,-2.39 -6.73,-4.34 0.39,1.14 4.65,3.3 2.33,3.5 -1.03,2.4 -1.22,-1.26 0.77,-1.01 -1.17,-2.61 -0.93,0.73 -2.16,-1.19 -0.68,0.42 -3,-1.55 -0.14,-1.27 -2.03,0.58 -21.67,-7.72 -1.82,-1.07 0.8,-1.24 1.22,-0.06 0.25,-1.11 -3.39,-2.62 -1.9,-0.9 -0.07,0.58 -3.81,-0.04 -2.78,-2.48 -9.44,-4.24 -2.81,-2.82 -3.98,1.13 -4.66,-0.1 -3.82,-1.54 -2.93,0.06 -3.2,-2.57 -2.28,-0.56 0.87,-2.33 1.06,-0.18 -0.51,-0.87 -1.47,0.38 -0.22,-2 -1.25,-0.61 0.7,-0.01 z m 48.48,-16.14 16.81,10.27 2.58,7.13 4.88,9.29 -4.65,1.16 -3.59,2.3 -1.37,-0.34 -0.58,1.25 -7.94,-0.06 -6.7,-6.65 0.94,-2 -1.14,-0.68 -1.11,-2.48 -2.78,1.37 -1.14,-1.79 0.7,-2.65 0.61,-0.87 -1.1,-2.05 -0.25,2.71 -1.24,1.09 -6.26,-7.41 0,0 2.67,-2.99 0.06,-2.88 -3.57,-1.15 -0.16,-2.02 2.17,-1.09 5.26,1.3 3.57,-3.34 0,0 3.33,2.58 z"
     title="Dubrovačko-neretvanska županija"
     id="HR-19" />
  <path
     d="m 301.69248,2.2847368 2.62,0.03 0.92,1.9599999 2.1,-0.49 0.67,1.33 2.79,0.51 -0.02,1.2 3.05,1.2900001 -0.51,1.17 0.78,0.57 1.25,-0.6 4.55,2.6000002 4.53,-0.39 0.55,1.1 2.69,-0.18 1.13,0.93 0.6,1.16 4.77,8.31 1.74,-1.08 0.5,1.87 2.1,1.18 1.86,0.08 0.87,-1.06 1.23,0.07 2.82,2.78 1.05,0.27 1.91,1.81 0,0 -0.29,4.44 -1.47,1.79 -0.69,3.75 -2.41,0.36 -0.52,-3.78 -1.47,1.91 -0.55,-1.39 -1.13,0.96 -0.55,-0.84 -0.12,0.81 0,0 -0.38,0.09 0,0 -1.06,-0.09 0,0 -2.56,-0.75 0.57,-2.83 -3.46,2.59 -2.17,-2.03 -1.55,1.35 -2.02,-1.17 -2.11,2.18 -2.28,-0.28 -4.54,-3.47 -1.88,2.57 -2.95,-0.16 -0.18,1.06 -2.7,-1.27 -3.12,0.06 -0.66,-1.87 -1.61,1.9 -0.94,-0.63 -1.18,0.73 -1.22,-1.39 -3.79,-0.02 -3.21,-5.31 -4.19,-2.2 0,0 1.79,-3.81 -3.79,-4.67 -2.12,-9.2300003 1.85,-3.49 2.92,0.01 3.21,-2.33 1.21,0.53 0.56,-1.88 1.28,0.58 0.78,-0.78 1.04,1.71 1.96,-2.01 z"
     title="Međimurska županija"
     id="HR-20" />
  <path
     d="m 275.80248,86.244737 2.32,4.8 -0.73,2.3 0.9,3.61 2.52,1.16 3.17,7.330003 -3.07,1.59 -0.51,4.91 -5.54,-1.58 0.16,1.06 -1.24,1.25 -3.23,1.12 -1.92,2.73 -5.48,2.83 -1.18,4.11 -2.47,0.45 -0.91,5.94 -3.56,7.57 -2.1,1.74 -3.74,0 0.36,-3.3 -3.72,-3.67 -4.65,-1.54 -4.58,-2.85 -0.86,-3.81 1.61,-3.24 1.49,-0.97 1.02,1.54 2.65,-0.11 1.24,1.75 1.78,-1.38 0.72,-3.01 -5.42,-3.58 2.09,-2.58 -1.78,-6.01 1.74,-3.34 11.64,-7.650003 0,0 10.02,-4.54 3.08,-2.46 3.5,-0.36 0.7,-1.9 z"
     title="Grad Zagreb"
     id="HR-21" />
</svg>
