<?xml version="1.0" encoding="UTF-8" standalone="no"?>
<!-- Created for MapSVG plugin: http://mapsvg.com -->
<svg
   xmlns:mapsvg="http://mapsvg.com"
   xmlns:dc="http://purl.org/dc/elements/1.1/"
   xmlns:rdf="http://www.w3.org/1999/02/22-rdf-syntax-ns#"
   xmlns:svg="http://www.w3.org/2000/svg"
   xmlns="http://www.w3.org/2000/svg"
   mapsvg:geoViewBox="41.768931 12.712172 43.417557 10.912065"
   width="612.41125"
   height="678.79425">
  
  <path
     d="m 232.06126,409.69247 6.52,7.36 14.01,9.8 8.21,4.9 5.32,1.22 7.73,4.66 4.11,-1.47 0.72,-1.72 -0.01,-3 0,0 0.71,-0.52 2.48,-0.74 1.03,0.31 0.1,0.53 -0.41,1.47 -1.44,0.41 2.24,1.89 -0.29,1.46 1.77,1.35 0.92,1.06 -0.21,1.04 -4.54,-0.1 1.65,1.25 -1.44,2.62 -2.17,0.83 0.21,1.26 1.03,1.99 1.34,1.77 2.17,1.36 4.64,2.7 3.81,3.47 0.42,1.46 1.54,1.26 2.27,-0.11 0.62,1.57 0.93,0.53 1.24,-0.21 2.37,2.09 0.62,1.25 0.93,0.52 2.06,1.57 3.09,2.62 1.44,0.83 3,0.11 0.82,-0.73 4.02,1.04 1.24,-0.91 1.96,-0.97 1.75,-1.99 -0.31,-2.09 0.93,-1.35 3.61,1.56 4.02,0.1 4.13,1.05 2.57,0.11 2.99,0.52 0.83,-0.31 -0.41,-1.99 2.57,-1.26 -0.11,-0.62 -2.15,0.42 -0.21,-0.53 0.21,-3.24 1.13,-1.36 -0.31,-1.15 -0.62,-0.73 -1.44,-0.94 -2.27,-0.42 -1.03,-1.15 -2.06,0.1 -1.86,-1.56 -0.52,-1.47 -1.54,-2.19 0.62,-2.09 1.03,-0.53 1.54,0.32 2.79,-0.53 0,-1.57 1.65,-0.2 0,-1.05 1.86,-3.45 0.52,-0.12 1.44,2.42 2.06,0.52 2.58,-1.04 0.61,-1.15 2.38,-0.63 2.26,-0.11 1.45,-1.77 7.11,-1.78 2.38,0.1 2.47,-3.66 4.95,1.78 2.47,-0.31 1.66,-1.15 2.06,0.1 1.65,-1.15 1.65,-1.67 0.2,-1.99 0.83,-0.42 1.24,0.52 0.92,-2.5 1.04,-0.63 3.09,0.94 2.24,-0.52 0.75,1.04 2.06,0.11 1.65,-1.57 2.37,0.31 2.07,0 2.06,0 1.54,-0.42 0.62,-1.46 0,-0.73 -1.04,-1.17 0.43,-1.24 3.19,4.71 3.51,-1.14 0.62,1.77 1.34,-0.11 0.62,-0.63 2.88,1.15 1.55,-0.21 3.71,-0.94 1.55,-0.83 3.3,-0.84 4.33,0.42 3.2,-0.93 1.7,0.19 0,0 0,23.22 74.42,-0.73 0.36,1.46 1.08,1.27 2.16,0.55 3.06,-0.37 2.15,-1.27 2.16,-0.55 3.6,0.18 3.67,-0.67 0,0 1.12,3.28 1.76,2.29 -0.21,0.52 0.93,0.42 -0.2,1.15 0.62,0.31 0.51,-0.62 1.24,0.83 0.62,-0.31 3.19,1.26 0.72,-0.74 -1.54,-1.36 -0.41,0.84 -1.33,-0.42 -0.84,-0.42 -2.06,0 0.31,-0.83 3.19,0.1 0.83,-1.04 2.68,1.46 1.44,1.67 1.45,0.74 1.44,1.04 0.62,1.25 3.3,3.25 0.41,5.43 2.89,2.93 0,1.05 1.73,1.8 2.66,0.87 -13.38,21.28 0,0 -56.24,-26.74 -14.5,2.29 -43.69,8.44 -21.05,39.22 0,0 -68.01,40.17 0,0 -4.76,0.49 -60.17,1 -54.83,-52.48 -6.04,-72.49 15.46,-18.86 z"
     title="Arta"
     id="DJ-AR" />
  <path
     d="m 468.77126,608.41247 -8.81,14.83 -2.25,2.99 -5.73,11.11 -9,14.08 -3.5,-0.21 -11.99,2.15 -4.8,2.08 -5.53,1.33 -2.53,0.07 -1.92,-1.31 -0.9,0.14 -1.54,1.28 -1.92,0.19 -1.65,-1 -2.02,-3.44 -1.91,0.53 -2.75,-1.14 -3.09,0.14 -3.98,-0.89 -11.91,-0.77 -1.7,-0.69 -1.08,-3.89 -1.66,-2.78 -0.01,-1.57 1.25,-3.68 -1.07,-2.09 -0.31,-2.91 -3.31,-4.52 -0.96,-3.83 -1.53,-1.33 -1.7,-0.62 -0.8,-4.6 -2.76,-2.36 -2.21,0.31 -0.85,3.62 -1.8,1.18 -2.34,-1.44 -1.34,0.19 -1.81,0.89 -1.57,0.01 -3.14,2.01 -8.68,1.95 -1.3,-2.21 -1.88,-1.79 -6.75,-4.48 -2.57,0.37 -2.77,-3.88 -5.28,-2.92 -2.74,0.61 -4.4,3.53 -1.86,0.89 0,0 -0.09,-42.41 19.79,-12.51 0,0 72.56,-42.85 0,0 21.05,-39.22 43.69,-8.44 14.5,-2.29 56.24,26.74 0,0 -21.02,34.48 -2.83,3.76 -0.8,2.22 -5.36,7.8 -6.1,10.79 -13.72,21.4 -2.35,4.63 -4.1,5.8 z"
     title="Ali Sabieh"
     id="DJ-AS" />
  <path
     d="m 232.06126,409.69247 -6.04,4.91 -15.46,18.86 6.04,72.49 54.83,52.48 60.17,-1 4.76,-0.49 0,0 -4.55,2.68 0,0 -19.79,12.51 0.09,42.41 0,0 -0.64,1.17 -0.09,2.63 -0.7,0.53 -7.63,2.05 -8.26,3.04 -4.49,0.8 -16.12,5.74 -30.23,21.42 -1.4,0.53 -21.41,-6.15 -2.37,0.59 -0.31,2.46 -3.03,1.54 -10.66,-1.47 -1.76,-0.98 -5.59,1.51 -4.14,0.5 -2.04,1.01 -0.75,0.88 -0.16,1.4 -1.68,1.41 -3.03,1.19 -22.75,1.96 -3.2,0.72 -1,-0.92 0.28,-1.17 -1.12,-1.15 -1.28,-0.4 -9.53,-0.67 -1.39,0.83 -2.33,-0.1 -2.04,1.01 -0.99,-0.05 -0.83,-1.33 1.45,-1.76 -1.12,-0.63 -2.79,0.96 -2.38,2.17 -7.81,0.71 -1.87,4.82 -6.7,-0.01 -3.8,6.3 -0.91,2.46 -6.37,0.31 -4.1,-1.08 -10.170003,5.23 -2.58,0.15 -11.24,-1.54 -6.37,4.92 -2.13,0.46 -2.28,-0.15 -3.64,-5.69 -1.82,-1.69 -5.16,-2.15 -9.42,-1.23 -4.09,-1.38 -9.11,-1.54 -2.89,-1.07 -11.38,-0.92 -1.52,-3.38 -1.37,-0.92 -7.8900001,-0.77 -0.91,-1.54 -1.22,-4.61 0.15,-2.46 1.22,-1.99 3.4900001,-2.77 2.43,-21.08 1.06,-28.72 1.06,-7.07 0.76,-37.36 -1.52,-23.85 -1.97,-13.07 -2.32,-6.66 -10.1500001,-41.74 -0.91,-4.36 0.35,-1.51 -1.23999996,-2.86 0.75999996,-3.54 5.23,-9.68 0.69,-2.54 4.0700001,-5.79 -0.43,-6 1.22,-4.31 1.06,-2.77 3.8,-5.55 -1.52,-5.08 0.61,-4.93 4.25,-11.55 1.21,-6.93 2.73,-7.09 2.95,-10.89 16.83,-8.44 4.87,-3.38 1.79,-7.28 2.22,-1.65 17.59,-8.15 1.97,-1.73 0.77,-3.1 0.96,-1.62 11.9,-17.47 0,0 54.760003,10.56 14.33,5.71 65.43,66.12 5.16,3.41 z"
     title="Dikhil"
     id="DJ-DI" />
  <path
     d="m 527.29126,436.67247 0.72,0.73 0.1,1.26 -1.55,0.42 -0.72,-0.52 0,-1.36 1.45,-0.53 z m -14.03,-25.63 -0.21,4.09 2.07,1.14 1.05,2.32 -0.42,0.61 -1.97,0.42 -0.31,1.15 0.52,2.2 1.13,2.61 0.84,0.72 0.81,2.83 2.99,3.45 0.62,1.67 -0.1,2.93 0.93,0.21 1.75,2.2 1.24,0 0.72,3.03 1.14,1.67 0,0.63 0.11,0.6 0,0 -3.67,0.68 -3.6,-0.18 -2.16,0.55 -2.16,1.27 -3.06,0.37 -2.16,-0.55 -1.08,-1.28 -0.36,-1.46 -74.42,0.73 0,-23.22 0,0 2.1,-0.66 3.52,0.14 2.48,-0.1 4.33,1.46 2.36,-0.63 2.69,0.73 4.95,-0.62 3.2,0.63 0.72,-0.42 -0.41,-0.53 0.41,-0.1 3.4,0.31 1.65,-0.73 2.68,-0.21 6.7,1.05 2.48,1.67 3.09,-0.1 1.13,0.73 -0.92,-1.47 -0.83,-0.21 0.1,-1.57 4.23,-0.42 2.27,0.42 1.44,1.15 1.44,0 2.37,1.88 1.14,2.32 3.09,1.03 2.89,-2.2 1.75,-0.63 2.58,0.1 1.55,-0.31 2.06,-0.73 1.13,-1.67 2.48,0.43 0.51,-2.31 1.24,-0.94 0.1,-1.67 -2.99,0.1 -0.21,1.36 -1.55,-0.1 0.93,-0.52 -0.1,-0.94 1.03,-1.15 -0.62,-0.21 -0.62,0.52 -0.42,-0.94 -0.63,0.62 0.01,0.85 -0.62,0.21 -0.31,-1.05 2.27,-1.87 3.59,-0.09 0.64,-1.91 -0.21,-1.26 1.47,-0.83 z"
     title="Djibouti"
     id="DJ-DJ" />
  <path
     d="m 505.34126,0.262473 3.47,0.88 0.81,0.82 2.37,11.26 2.32,5.01 1.16,4.12 2.02,3.24 1.45,5.01 6.07,5.6 10.99,16.19 7.52,8.25 6.08,7.65 8.67,15.02 4.19,3.33 1.31,3.09 2.19,0.93 -0.21,3.25 0.93,0.84 2.68,2.1 1.34,0 2.19,-1.45 0.29,-1.07 2.06,-2.2 0.02,-0.63 -1.26,-0.42 -0.81,-3.64 1.73,-0.13 3.41,2.51 -0.92,1.47 -0.83,5.45 1.75,11.229997 1.34,4.51 1.45,3.26 1.34,1.24 1.13,2.32 1.75,-0.1 1.24,0.73 3.1,5.88 1.34,8.28 1.13,2.63 1.45,6.81 0.92,8.29 1.14,3.56 -0.52,3.88 1.34,7.87 3.2,2.2 1.44,3.99 1.86,1.78 1.21,2.2 0.95,4.82 1.44,0.76 2.17,3.44 -0.41,3.35 1.03,8.91 -1.44,2.83 1.75,3.15 1.2,3.04 -0.68,2.82 1.03,3.57 0.93,7.34 0,5.76 -0.94,9.95 -2.47,10.06 -5.07,9.95 -2.45,6.69 -2.17,4.11 -1.24,1.04 -1.75,3.77 -0.52,2.52 -1.44,1.67 -2.27,0.95 -6.29,0.52 -1.96,-0.52 -4.43,-0.42 -2.99,0 -5.47,-0.42 -0.72,0.21 -1.65,3.35 -1.86,2.51 -1.44,1.57 -6.08,-0.1 -1.55,0.42 -2.48,-0.94 -7,-0.13 -5.58,0.96 -1.23,1.89 -2.58,-0.94 -2.48,-0.74 -3.61,0.42 -2.16,1.36 -4.64,0.32 -2.48,1.57 -2.99,4.61 -3.81,4.08 -5.16,4.09 -1.34,1.78 -0.72,3.03 -3.4,0.63 -1.97,3.13 -1.75,0.95 -0.62,2.73 -1.85,1.04 -1.03,3.14 -2.68,2.1 -1.65,2.63 -1.86,0.61 -1.65,2.2 -0.82,2.93 0,0 -7.85,-4.72 -2.41,-2.94 -4.11,-3.19 -6.52,-13 -0.97,-5.4 -5.07,-10.05 -12.32,-12.27 -33.66,-37.33 -26.3,-28.21 -1.69,-2.45 -0.24,-2.95 -5.07,-4.42 -3.39,-0.98 -3.14,-2.21 -4.59,-1.47 -3.86,-0.49 -9.42,-5.16 -5.32,-5.65 -5.79,-4.42 -4.59,-5.65 -5.32,-11.3 -2.9,-8.11 -2.41,-2.21 -1.45,-3.68 0.72,-2.46 1.69,-1.96 1.69,-3.2 2.9,-2.45 5.08,-2.22 0.91,-4.59 0,0 1.71,1.22 0.87,-0.13 0.23,-1.05 -1.62,-2.03 0.19,-1.18 1.56,-2.12 3.42,-2.49 1.04,-1.59 2.39,-0.32 2.81,1.32 1.7,0.22 4.42,-1.38 1.57,-1.25 0.4,-1 -0.2,-2.75 2.21,-1.01 1.56,-2.12 0.74,-2.29 9.09,-1.73 5.48,0.25 3.55,-2.38 4.04,-4.72 -0.02,-3.28 -1.84,-3.729997 -0.14,-2.87 -2.89,-3.66 -2.63,-0.21 -2.17,-1.62 -0.95,-1.93 -0.13,-1.64 1.38,-2.64 0.65,-5.46 2.54,-4.06 2.25,-3.13 2.94,-3.6 2.83,-3.71 2.16,-0.2 2.52,0.74 2.66,-2.9 3.62,0.21 0.85,-2.24 -1.7,-1.62 -0.12,-0.94 2.49,-2.31 -1.48,-1.8 0.17,-1.41 2.67,-1.37 0.08,-4.16 1.69,-0.95 3.55,-0.56 1.76,-5.94 1.85,-2.18 4.38,-0.57 2.87,1.97 2.46,0.33 3.99,-3.97 1.16,-0.48 3.92,0.26 3.2,-1.55 4.91,-5.73 1.21,-0.79 z"
     title="Obock"
     id="DJ-OB" />
  <path
     d="m 272.74126,78.012473 4.55,0.37 10.32,4.42 16.79,12.32 21.09,23.589997 18.97,14.52 0,0 -0.91,4.59 -5.08,2.22 -2.9,2.45 -1.69,3.2 -1.69,1.96 -0.72,2.46 1.45,3.68 2.41,2.21 2.9,8.11 5.32,11.3 4.59,5.65 5.79,4.42 5.32,5.65 9.42,5.16 3.86,0.49 4.59,1.47 3.14,2.21 3.39,0.98 5.07,4.42 0.24,2.95 1.69,2.45 26.3,28.21 33.66,37.33 12.32,12.27 5.07,10.05 0.97,5.4 6.52,13 4.11,3.19 2.41,2.94 7.85,4.72 0,0 -1.55,1.99 -3.82,0.84 -0.83,1.56 -1.85,1.69 0,1.99 -2.27,0.73 -1.34,3.03 -0.82,0.53 -2.27,0.62 -1.65,-0.51 -2.87,0.29 -1.05,0.75 -2.17,0.42 -2.88,-0.53 -0.83,0.94 -2.16,0.63 -1.76,-0.31 -1.98,-2.29 -0.9,-0.01 -2.07,1.67 -1.12,0.31 -5.17,-0.1 -1.54,1.68 -1.76,0.83 -1.23,1.57 -0.92,3.36 -1.25,1.98 -2.65,1.36 -3.02,2.41 -1.14,-0.42 -0.61,-0.94 -0.11,-2.51 -0.72,1.04 -0.89,0.32 0.79,1.47 -1.24,0.52 -1.96,-0.63 -0.51,-1.78 -0.93,-0.84 -3.47,-0.42 -1.69,0.73 -1.96,-0.1 -1.85,-1.26 -2.07,1.05 -1.54,0.1 -1.65,-0.94 -3.1,-1.67 -2.07,0.41 -2.37,2.93 -3.09,2 -6.9,0.42 -2.89,4.29 -3.92,3.14 -2.37,0.73 -1.86,0.21 -4.12,-0.32 -1.35,0.52 -3.81,-0.1 -1.24,0.76 -2.47,2.8 -4.13,9 -1.65,1.57 -0.82,1.67 -1.55,1.15 -0.4,6.71 -0.73,2.08 -1.24,1.68 -2.06,1.46 -6.91,3.35 -1.45,2.72 -1.54,1.05 -2.06,2.61 -2.99,4.29 -2.07,5.65 -0.2,4.18 -0.19,5.34 -0.54,3.03 -1.46,1.46 -1.22,1.16 -0.72,2.61 -1.75,0.42 0.2,1.57 1.86,3.66 -0.21,0.83 -3.5,-0.83 -1.96,-1.68 -2.99,-0.94 0.31,2.51 -0.62,0.21 -1.14,-1.88 -1.96,-1.36 -0.82,-0.31 -0.75,0.08 -1.62,-0.08 -2.89,-1.78 -0.41,0.94 4.1,2.41 -0.49,0.62 2.37,1.68 -4.33,0.1 -1.75,-0.63 -3.72,-2.51 -0.51,-0.83 -4.13,-1.57 -1.34,-1.26 -0.62,0.11 -0.41,0.94 -1.65,0.21 -2.58,1.25 -1.13,1.15 -2.27,0.74 -3.61,-3.67 -0.41,1.16 -0.52,-0.11 -2.37,-3.56 -2.27,-1.98 -1.02,-0.64 -2.79,0.12 -4.23,-2.2 -1.14,0.31 -2.68,-0.21 -0.51,2.1 -1.34,0.73 -0.93,1.77 -0.72,-0.94 -1.13,0.11 0.1,0.63 1.64,0.73 -0.92,0.84 -0.2,1.15 0.07,0.62 1.27,0.63 0,0 0.01,3 -0.72,1.72 -4.11,1.47 -7.73,-4.66 -5.32,-1.22 -8.21,-4.9 -14.01,-9.8 -6.52,-7.36 0,0 0,0 0,0 -6.59,-7.36 -5.16,-3.41 -65.43,-66.12 -14.33,-5.71 -54.760003,-10.56 0,0 14.300003,-20.96 13.74,-17.44 3.1,-7.93 1.79,-1.91 6.51,-11.61 2.24,-6.84 4.48,-9.11 3.18,-3.04 6.53,-1.78 3.56,-0.12 4.09,-15.5 4.96,-6.22 7.19,-13.17 9.74,-11.08 9.31,-14.13 15.99,-15.19 7.17,-7.73 8.59,-27.42 20.1,-27.259997 9.03,-10.86 13.81,-13.85 4.24,-0.08 3.18,1.17 3.47,2.06 3.76,0.3 z"
     title="Tadjourah"
     id="DJ-TA" />
</svg>
