<?xml version="1.0" encoding="UTF-8" standalone="no"?>
<!-- Created for MapSVG plugin: http://mapsvg.com -->
<svg
   xmlns:mapsvg="http://mapsvg.com"
   xmlns:dc="http://purl.org/dc/elements/1.1/"
   xmlns:rdf="http://www.w3.org/1999/02/22-rdf-syntax-ns#"
   xmlns:svg="http://www.w3.org/2000/svg"
   xmlns="http://www.w3.org/2000/svg"
   mapsvg:geoViewBox="-72.004173 19.932499 -68.322347 17.470139"
   width="792.71484"
   height="556.42358">
  
  <path
     d="m 435.60609,341.41093 0.17,-2.24 2.37,-2.49 -0.13,-5.53 -1.32,-1.8 -5.01,-3.59 -1.32,-2.35 2.77,-1.52 0,-2.49 1.19,-2.76 1.72,-1.24 2.37,0.97 1.19,1.8 0.66,2.9 2.24,1.11 2.37,3.18 3.3,-1.38 7.65,-1.52 3.17,2.07 0,1.8 -1.85,3.46 0.3,2.37 0,0 -1.79,-0.25 -2.21,1.63 -4.24,1.57 -2.21,3.01 -2.45,1.25 -6.75,2.07 -2.19,0 z"
     title="Distrito Nacional"
     id="DO-01" />
  <path
     d="m 250.54609,362.88093 0.18,0.38 -2.75,0.56 -2.45,3.69 0.06,-1.63 2.03,-2.44 2.93,-0.56 z m -10.75,-148.53 3.08,-1.13 1.16,-1.53 1.92,-0.76 1.54,0.78 3.46,4.24 -1.54,3.06 0.38,3.46 1.54,0.77 2.31,3.08 0,1.92 -1.54,-0.01 -1.15,1.15 0.38,9.59 3.46,4.24 -0.39,3.13 1.27,2.1 4.05,1.92 2.35,2.47 5.79,8.47 4.23,-0.36 1.47,1.09 4.3,0.53 4.83,4.11 1.31,3.98 0,6.58 -0.78,4.93 -2.71,2.18 0.42,0.42 0,0 2.31,1.16 3.08,2.7 2.31,3.84 0.38,6.51 -2.69,4.2 0.77,1.54 1.92,1.93 6.92,4.25 0.77,1.15 0,2.3 2.31,2.69 0.38,1.53 1.15,0.39 2.31,-1.14 1.54,0.01 1.15,2.69 5,1.18 1.15,1.16 1.15,-0.38 3.08,4.23 5.38,0.8 1.15,1.15 0,0.77 -1.15,0.76 0,2.3 1.92,1.16 0,2.3 1.92,3.07 -0.39,2.68 3.7,2.55 0,0 1.68,2.83 0,3.06 -4.24,5.71 -0.39,5.73 1.15,3.45 0,1.91 -2.31,5.34 -2.31,1.13 -3.85,-0.02 -2.69,1.51 -8.46,0.34 -1.11,1.05 0,0 -1.85,-1.44 0,-1.75 2.51,-5.51 1.79,-0.44 0.3,-2.63 -1.02,-4.13 0.24,-1.88 1.14,-1.94 -0.24,-2.82 -1.49,-1.88 -0.9,-6.2 -1.49,-1.56 -2.81,-1.31 -3.23,-0.63 -1.73,0.06 -3.76,-1.31 -2.93,0.19 -3.29,-1.13 -3.76,0.56 -1.38,3.07 -3.35,1.44 0.12,1.88 0.3,1.25 1.2,2.82 -1.79,3.13 -1.43,1.5 -1.19,0.31 -0.66,1.44 -3.76,1.94 -3.59,-0.63 -7.23,0.88 -0.18,-1.69 -1.97,-0.44 -1.79,1.06 0.36,1.88 -1.79,0.56 -2.15,2.07 -0.48,-0.44 0.72,-0.69 -1.49,-0.12 1.43,-1.75 -0.83,-0.19 -0.18,-0.75 -1.97,-0.19 -0.96,0.94 0.42,0.5 -1.67,0.13 -1.25,1.06 -1.79,2.69 -0.6,2.5 0.42,0.63 -1.91,1.75 -0.9,2 -7.35,7.01 -1.73,0.25 -1.85,1.69 -2.93,0.06 -2.57,1.44 -1.67,-0.56 -0.78,-1.66 0,0 1.18,0.04 1.16,-1.9 0,-2.29 1.16,-1.14 0.77,-3.44 -0.77,-3.44 -2.31,-2.31 -1.92,-3.83 1.15,-1.52 1.54,-0.76 0,-1.91 -1.15,-1.54 -1.92,-0.39 -2.31,1.14 -0.39,1.15 -1.54,1.14 -4.62,-1.56 -0.38,-1.91 -1.54,-1.92 -2.31,-0.4 -1.15,0.76 -0.77,-3.06 -1.92,-3.07 0,-0.76 5.39,-1.12 1.15,-0.76 1.16,-4.58 0.77,-0.76 0,-3.44 1.54,-0.75 2.31,0.01 1.54,-1.9 -0.38,-2.68 -0.77,-1.15 -5.77,-3.48 -1.92,-3.07 -1.15,-3.83 0,0 2.31,0.78 1.54,2.31 0.38,2.3 0.77,0.01 1.15,-1.52 3.85,-0.74 1.15,-1.14 -4.23,-4.23 -7.69,-2.72 -3.46,-0.4 -2.69,-1.93 -4.23,-0.79 -2.69,-1.93 -5.77,-1.56 -1.54,-1.15 -1.54,-2.69 -3.46,-2.32 -1.15,-2.56 0,0 5.49,-0.18 5.22,-5.41 2.26,0 2.55,-6.33 3.84,-0.1 2.19,-2.17 1.92,-0.37 -0.38,-2.68 -2.31,-2.31 0,-1.92 1.15,-1.14 1.54,0.01 0.77,-0.76 -0.38,-1.92 -1.15,-0.39 0,-1.53 -0.77,-0.77 -0.38,-6.13 1.15,-1.91 2.31,-1.52 2.69,0.02 1.54,1.16 0.77,3.07 1.92,3.84 1.54,0.01 0.77,-2.3 2.31,-2.29 0.77,-2.68 2.7,-4.58 0,-2.68 -2.69,-5.38 -1.54,-5.76 0.77,-1.15 1.54,-0.37 2.31,-4.59 0.38,-2.3 -0.77,-0.77 0,-1.15 3.08,-1.52 1.16,0.01 1.54,-2.68 5.39,-1.12 1.54,-2.29 -1.92,-4.61 6.54,-1.11 1.16,-1.53 0,-1.54 -0.77,-0.77 0.31,-1.65 z"
     title="Azua"
     id="DO-02" />
  <path
     d="m 101.28609,290.65093 1.54,0.77 1.15,1.54 3.08,1.55 4.23,1.17 2.69,0.02 2.31,-1.14 2.69,0.4 5.77,3.1 1.16,2.3 1.53,0.01 1.54,-1.52 2.69,0.78 0.39,2.3 7.69,1.57 4.23,-3.04 1.93,0.01 1.15,-1.9 1.54,-1.14 2.69,0.01 3.08,1.17 7.31,0.04 8.85,-3.78 5,-1.12 5,1.56 0.77,0.77 0.38,2.43 0,0 1.15,2.55 3.47,2.32 1.53,2.69 1.54,1.16 5.77,1.56 2.69,1.93 4.24,0.79 2.69,1.93 3.46,0.4 7.69,2.73 4.23,4.23 -1.15,1.14 -3.85,0.75 -1.16,1.52 -0.77,0 -0.38,-2.3 -1.54,-2.31 -2.3,-0.78 0,0 -1.16,0.76 -0.38,1.53 1.92,1.93 0,1.53 -5.39,-0.42 0,1.15 1.54,0.78 0,2.68 -0.77,1.52 -1.92,-0.01 -0.77,0.76 -1.54,-0.39 -1.16,0.76 -0.77,1.14 0,2.68 -2.69,0.75 -1.92,-1.54 -1.16,0.76 -1.54,2.67 -1.15,-0.01 -1.16,1.14 -4.23,-0.4 0,0 -0.38,1.52 0,0 1.15,0.78 1.93,0.01 0.77,0.77 -0.39,1.52 -1.54,1.14 -2.31,-0.39 -0.77,1.52 -3.46,0.75 -4.23,1.89 -0.77,1.91 -2.31,1.9 0,1.91 0,0 0,1.15 0,0 -0.39,3.05 1.92,1.16 -0.77,1.91 0,0 -3.84,-0.02 -3.46,1.12 -1.93,-0.39 -3.07,-3.46 -0.39,-3.44 -1.92,-1.92 0.39,-1.92 -0.77,-1.91 -3.46,-2.32 -2.31,-3.83 -0.77,-0.39 -4.23,-0.03 -1.16,1.53 -8.46,4.16 -3.08,2.66 -1.92,-0.01 -7.31,-6.16 -2.31,-0.78 -0.76,-1.54 -6.16,-3.09 -4.61,-0.41 -4.23,-1.17 -24.229996,-12 -1.93,-3.07 -0.76,-8.05 0.77,-3.05 5,-10.31 0,-6.51 1.54,-0.76 6.93,-0.73 5,-1.5 z"
     title="Baoruco"
     id="DO-03" />
  <path
     d="m 208.98609,318.82093 1.15,3.83 1.92,3.07 5.77,3.48 0.77,1.15 0.38,2.68 -1.54,1.9 -2.31,-0.01 -1.54,0.76 0,3.44 -0.77,0.76 -1.15,4.59 -1.15,0.76 -5.39,1.12 0,0.77 1.92,3.07 0.77,3.06 1.15,-0.76 2.31,0.4 1.54,1.92 0.38,1.91 4.62,1.56 1.54,-1.14 0.39,-1.14 2.31,-1.13 1.92,0.39 1.15,1.54 0,1.91 -1.54,0.76 -1.15,1.52 1.92,3.83 2.31,2.31 0.77,3.45 -0.77,3.44 -1.16,1.14 0,2.29 -1.16,1.9 -1.17,-0.04 0,0 -1.79,-1.47 0.06,-1.5 -1.26,-3.38 -2.27,-1.06 -1.13,-2.06 -5.38,-2.5 -2.39,0.69 -0.3,-1.19 -2.33,-1.06 -1.97,-0.06 -1.31,-1.44 -1.19,0.19 -1.91,0.69 -0.48,0.81 0.36,0.75 2.39,-1.38 0.72,0.13 0.24,0.81 -4.9,3.5 -3.88,4.32 -1.49,3.75 0,2.19 0.84,2.44 1.44,0.75 0.3,1.63 1.85,1.31 1.14,2.06 -1.91,2.06 2.75,3.75 1.38,0.63 1.32,4.75 2.51,2.75 -1.85,2.63 -0.24,3.88 -1.13,1.75 -0.42,2.31 -4.96,9.12 -0.84,0.75 -1.43,0.13 -2.45,3.12 0.12,1.94 -4.6,3.19 0.06,4.37 -1.49,0.19 -1.55,2.56 -1.2,0.31 -1.49,1.56 -2.87,5.62 -6.04,9.05 -1.49,0.75 -2.33,3.87 -2.99,1.62 -0.48,1.06 -4.42,3.37 -1.97,2.62 -1.43,3.56 -0.66,0.13 -0.58,-1.94 0,0 -0.31,-2.53 1.15,-1.52 -0.77,-4.96 -1.45,-1.06 -0.25,-3.25 -5.09,-6.38 -2.8,0 -1.27,4.25 -3.56,1.06 -4.04,-5.03 -2.31,-1.54 -1.79,0.3 0,-1.44 -1.02,-1.86 -2.54,-1.86 -4.58,0 -1.53,-1.86 -0.51,-1.59 0.76,-2.39 0,-4.78 0.51,-1.06 2.54,1.33 2.8,-0.8 4.07,-5.32 0.51,-2.39 -0.51,-4.52 -3.56,-5.85 4.58,-0.27 1.52,-1.86 -0.25,-1.06 -1.78,-1.6 -4.07,-2.66 -4.63,-0.51 0,0 0.64,-1.89 0,-4.97 1.92,-2.66 3.08,-0.75 3.08,1.55 3.46,-0.36 2.31,0.78 0.77,-0.76 -3.07,-10.33 -5.77,-11.11 0,-1.53 5.77,-7.61 6.15,4.62 8.85,1.96 5,0.03 9.23,-2.62 1.92,-1.9 1.54,-3.43 1.92,-1.52 0.77,-3.05 0,0 0.77,-1.91 -1.92,-1.16 0.39,-3.06 0,0 0,-1.15 0,0 0,-1.91 2.31,-1.9 0.77,-1.91 4.23,-1.89 3.46,-0.74 0.77,-1.53 2.31,0.4 1.54,-1.14 0.39,-1.53 -0.77,-0.77 -1.92,-0.01 -1.15,-0.77 0,0 0.39,-1.53 0,0 4.23,0.41 1.15,-1.14 1.15,0.01 1.54,-2.67 1.15,-0.76 1.92,1.54 2.69,-0.75 0,-2.68 0.77,-1.14 1.16,-0.76 1.54,0.39 0.77,-0.76 1.92,0.01 0.77,-1.53 0,-2.68 -1.54,-0.77 0,-1.15 5.39,0.41 0,-1.53 -1.92,-1.92 0.39,-1.53 1.09,-0.8 z"
     title="Barahona"
     id="DO-04" />
  <path
     d="m 58.306094,65.27093 1.91,2.3 2.3,0.4 0.77,1.16 3.85,-0.36 12.31,5.07 7.69,0.05 5.4,-1.12 5.37,0.41 1.54,-1.53 2.309996,-0.76 5.38,0.41 1.16,3.09 -0.39,1.54 1.15,1.55 2.7,0.79 1.15,1.54 1.92,1.17 3.46,1.17 2.69,3.49 3.08,0.78 3.46,1.95 0,0 0,1.54 -5.77,6.13 -2.31,4.61 0,6.93 1.15,3.85 0,3.47 -1.16,1.92 -2.69,1.13 -0.38,0.77 0.76,5.4 -0.77,4.99 0.38,6.16 -5.77,1.12 -5.38,-1.18 0.77,3.85 4.23,3.1 0.77,1.92 0,0 -0.39,1.16 -2.69,1.52 -2.7,4.21 -2.69,-0.4 -1.15,-1.54 -2.689996,-0.78 -3.08,0.75 -4.23,-2.33 -1.93,1.91 -0.77,5.76 -0.77,0.77 -2.69,-0.79 -2.69,1.91 -2.31,3.06 -0.82,-0.27 -2.27,-0.46 -3.37,0.27 -0.43,-1.05 -2.28,-0.44 -1.18,-0.61 -1.6,0 -1.61,-1.32 -2.28,-1.84 0.42,-1.06 -0.42,-0.7 -3.47,-1.67 0.42,-0.79 -0.59,-1.5 -0.59,0.18 -0.84,3.44 -1.43,-1.5 -0.35,-1.93 -1.85,0.62 -0.17,-1.06 -1.27,-0.17 0.42,-2.12 -1.6,-0.44 0,-1.05 0.42,-1.68 -0.85,-0.88 -1.44,-3.17 -1.01,0.27 -1.19,-2.11 -1.43,-0.44 3.03,-1.68 4.22,-0.27 1.01,-3.35 2.7,-1.06 2.19,-1.68 1.43,0.79 0.76,-2.12 2.45,1.76 0.42,1.05 1.44,0 0.59,-0.7 -0.43,-1.41 0,-1.33 -1.02,-4.84 1.85,-2.56 0.17,-3.35 2.02,-2.56 -0.43,-1.23 0.68,-1.06 -0.26,-1.77 -1.44,-1.23 -0.59,-3.61 -1.17,-1.04 0.57,-1.08 -0.59,-1.67 0.76,-0.62 0.67,-2.38 -0.26,-2.47 -0.76,0.79 -1.68,-0.61 -0.77,-2.29 0.16,-2.38 -1.43,0.62 -0.76,-0.62 -0.01,-3.97 -1.43,-2.38 -5.24,-5.02 -0.44,-11.29 z"
     title="Dajabón"
     id="DO-05" />
  <path
     d="m 385.24609,99.07093 1.92,2.32 3.46,0.79 1.16,1.16 1.53,0.01 1.16,0.78 0,1.15 0.77,0.78 2.69,-0.37 1.92,1.16 3.08,10.03 -1.16,7.69 1.54,1.16 1.15,4.24 4.23,8.49 1.54,0.77 6.92,-0.34 5.77,1.18 1.54,1.17 -0.77,4.22 0.38,2.7 2.31,2.32 10,1.98 8.08,3.5 13.07,3.54 1.54,0.78 1.54,1.93 5,3.1 6.15,1.57 5.77,0.03 0,0 2.31,-4.21 1.54,-0.76 3.85,0.02 2.69,1.55 4.23,0.41 3.46,-0.75 1.93,2.32 4.61,-0.74 1.93,0.78 -0.39,1.53 -1.54,-0.01 -1.92,2.3 -1.16,4.6 -1.54,-0.01 -0.38,1.54 -1.54,-0.01 -0.77,-0.77 -0.77,1.53 -1.92,0.37 0.77,1.54 -0.77,0.77 -3.47,2.28 -2.3,-0.01 0,2.31 2.3,2.7 1.54,4.62 -5,-0.03 -1.16,1.14 0,0 -2.69,-1.16 -3.85,-0.41 -1.15,0 -3.46,1.9 -6.54,-0.81 -4.23,1.9 -4.62,-1.57 0,10.37 -1.54,1.15 -7.31,-0.43 0,0 0.77,-6.14 2.31,-5.36 -0.38,-0.77 -2.7,-1.17 -3.84,-0.41 -2.69,-2.32 -4.62,-2.33 -1.92,-0.01 -2.7,2.68 -1.15,-0.01 -2.69,-1.94 -8.85,-2.35 -2.69,-2.32 -0.77,-0.01 -0.38,-1.15 -2.7,-0.02 -1.15,-2.31 -1.15,1.15 -2.7,0.75 -1.15,-0.77 0,-0.77 -2.69,-0.4 -0.77,1.53 -1.16,-0.39 -0.38,1.54 -1.16,-0.4 0.39,-2.3 -0.39,-0.77 -1.15,1.15 -1.15,-0.39 -1.93,3.44 0,-2.69 -0.77,0.77 -0.77,-0.77 -1.15,0.76 -1.54,-0.01 0.77,-2.69 -1.54,-0.39 -1.54,0.76 -2.69,3.06 -1.15,-1.54 -0.77,0.76 -0.39,1.92 -3.84,-1.18 -1.16,-1.92 -2.3,0.75 -0.77,-1.92 -0.77,0.76 -0.77,-0.77 -1.54,0.76 -1.54,-0.78 -1.54,0.38 -1.15,0.76 0,0.77 0.77,-0.38 -0.01,1.15 0,0 -1.53,-0.01 -1.54,-3.08 -3.08,-2.33 -2.69,-0.78 -3.84,-4.63 -1.93,-1.16 -2.3,-3.09 -0.77,-2.7 0,0 -0.77,-3.08 -1.15,-1.54 0,-3.08 1.15,-2.68 2.31,-1.53 1.54,-2.3 0,-3.84 1.93,-4.22 -0.39,-2.7 2.31,-6.52 1.16,-6.92 6.16,-4.59 1.54,-0.76 1.92,0.01 2.31,-2.29 4.62,-1.52 0,-1.15 -3.08,-1.17 -0.77,-1.93 1.15,-2.31 3.85,-1.9 1.54,0.01 1.54,-1.15 0.39,-3.07 -0.77,-1.55 -1.16,-0.39 0,0 z"
     title="Duarte"
     id="DO-06" />
  <path
     d="m 616.04609,201.84093 1.79,0.57 4,6.72 3.47,0.19 0.78,2.64 2.03,1 0.6,-0.38 2.03,2.2 1.14,-0.25 1.2,0.75 4.48,-0.75 3.65,0.56 2.99,-0.69 1.56,-1.26 0.36,-1.44 -2.51,-2.51 0.06,-0.82 2.27,-1 1.49,1.19 2.33,0.06 1.26,-0.69 0.48,-1.07 -0.36,-0.75 2.15,-1.44 3.29,1.19 1.25,-1.26 1.38,0 2.75,1.01 2.81,0.19 11.24,7.85 1.73,-0.06 1.2,-1.07 3.17,0.32 4.78,3.27 1.67,-0.44 2.86,0.82 0,0 0,3.87 -1.92,-0.78 0.38,2.69 -0.77,0.76 -1.92,-0.78 -1.15,2.3 -3.08,0.37 -0.77,1.53 0.38,4.61 -1.54,0.38 -2.69,2.29 0,1.15 1.92,3.08 5.38,12.3 0.38,7.29 -0.77,2.68 -2.69,1.52 -3.08,4.2 -3.85,2.28 -3.46,6.5 -1.92,0.37 -3.46,-1.17 -5.38,0.35 -0.77,0.76 -0.77,2.68 0.38,3.45 -1.54,1.52 0.39,1.92 1.54,1.54 0,1.15 0,0 -3.85,-0.02 -2.69,-1.55 -0.77,0.38 -2.69,5.73 -1.54,1.91 -2.69,6.88 -3.46,4.58 -6.54,4.94 -0.77,2.68 -4.23,4.19 -4.62,1.51 0,0 1.16,-9.18 1.92,-0.75 -0.77,-1.53 -6.15,-0.04 -2.31,1.52 -2.31,0.37 -5.77,-3.09 -1.92,-4.61 -6.15,-4.25 -3.46,-1.17 -2.31,1.14 -2.31,-0.01 -1.15,-2.69 -3.07,-1.17 0,0 0.39,-3.83 1.15,0.01 1.15,-1.14 0.77,0 0.77,-1.14 0.77,-3.06 0,-4.6 2.31,-6.88 -0.38,-3.83 1.15,-2.68 0,-2.3 -1.92,-4.23 -6.53,-8.09 -1.92,-1.54 -5.38,-1.56 -1.15,-3.84 -1.92,-0.39 -1.54,-1.16 -2.69,-6.54 -2.31,-2.31 0,-2.3 1.15,-1.91 0.77,-7.67 1.92,-0.37 3.85,1.94 6.54,4.64 1.92,0.4 3.08,1.94 10.77,1.98 1.54,-0.37 1.16,-1.91 -0.38,-2.69 -3.85,-4.24 -4.23,-2.71 -3.08,-5.39 -0.38,-4.22 3.08,-0.75 2.3,-2.35 0,0 1.43,0.62 0,1.19 0.6,0.38 0.84,-0.69 1.91,0.25 1.32,-1.63 0.06,1.19 2.09,0.13 1.49,0.25 0.84,-0.75 1.91,0 0.36,1.19 0.78,0.13 -0.54,1.63 1.79,0.63 1.61,-2.45 -0.24,-5.47 -1.38,-1.82 -2.57,0.63 1.25,-1.19 1.42,-0.36 z"
     title="El Seibo"
     id="DO-08" />
  <path
     d="m 351.47609,49.63093 0,0.89 3.23,3.97 9.68,7.89 3.53,2.02 5.68,1.95 8.9,0.26 2.33,1.26 6.04,1.64 1.37,-0.13 2.39,1.64 1.62,-0.38 3.76,0.51 11.42,-2.35 0,0 0.37,1.53 -0.77,2.31 0,3.85 -0.77,3.08 -1.16,1.15 -5.38,2.28 -3.47,3.06 -2.69,0.37 -2.69,1.53 -1.16,-0.78 -4.61,0.36 -1.54,-0.78 -1.15,0.76 0.76,5.79 -1.92,5.76 0,0 -4.62,-0.41 0,0 -2.69,-2.33 -2.69,-3.86 -0.77,-2.7 1.15,-1.54 -0.38,-1.16 -1.15,-1.16 -2.7,-0.78 -2.3,-0.02 -1.93,1.15 -2.69,0.37 -1.92,2.68 -2.31,0.76 -0.77,0.77 -2.7,8.07 -1.92,0.76 -2.31,-0.78 -1.15,-1.55 -0.39,-4.62 -0.77,-0.78 -4.23,-0.79 -1.92,-1.17 -1.92,-2.71 -0.77,0 -5,11.52 0.38,5.4 -1.93,3.07 0,3.08 0.77,1.92 2.31,2.71 0,2.7 -2.7,5.75 -2.69,11.15 -1.54,3.07 -0.01,1.92 0,0 -1.15,0.37 -0.39,2.31 -0.76,0.76 -5.01,-0.02 -0.76,-1.16 0,-6.92 -3.46,-6.56 -0.77,-0.01 -1.54,1.53 -1.54,2.69 -3.46,0.36 -10.39,-1.21 -1.15,-1.16 -0.39,-1.93 -0.77,-0.39 0,0 0.78,-1.92 1.54,-1.53 1.92,0.01 1.54,1.55 0.77,-0.38 0,-1.15 -1.16,-1.16 -1.15,-3.47 -0.38,-3.85 0,-1.54 2.69,-4.61 -0.38,-5.77 1.16,-1.54 3.07,-0.75 3.85,-3.06 0,-4.62 0,0 1.16,-1.53 1.15,-0.38 0.77,-8.86 3.47,-4.22 0,-1.92 -1.16,-1.93 0,-1.16 1.54,-2.69 0.01,-1.93 -0.77,-0.39 0,-1.15 2.3,-0.76 -0.76,-0.77 0.38,-1.16 1.92,-1.91 1.16,0.77 0.77,-0.38 1.15,1.16 1.16,-1.15 2.69,0.02 0,0.77 0.77,0.39 0.38,-2.7 3.47,0.41 1.54,-1.15 0.76,0.01 1.54,3.09 1.54,0.01 1.16,-1.92 1.53,1.55 0.39,-1.93 0.77,0.01 0.77,1.93 1.53,-0.38 -0.38,-1.16 -1.15,0 0,-1.16 5,-0.74 0.38,-0.77 0,-1.93 -1.53,-3.48 2.31,-5.31 0,0 z"
     title="Espaillat"
     id="DO-09" />
  <path
     d="m 600.99609,207.88093 -2.3,2.35 -3.08,0.75 0.38,4.22 3.08,5.39 4.23,2.71 3.85,4.24 0.38,2.69 -1.15,1.91 -1.54,0.38 -10.77,-1.98 -3.08,-1.94 -1.92,-0.39 -6.54,-4.64 -3.85,-1.94 -1.92,0.37 -0.77,7.67 -1.15,1.91 0,2.3 2.31,2.31 2.69,6.54 1.54,1.16 1.92,0.4 1.15,3.84 5.38,1.56 1.92,1.55 6.54,8.09 1.92,4.23 0,2.3 -1.15,2.68 0.38,3.84 -2.31,6.89 0,4.6 -0.77,3.06 -0.77,1.15 -0.77,0 -1.15,1.14 -1.15,-0.01 -0.39,3.83 0,0 -1.93,2.67 -2.31,1.14 -5,0.36 -0.77,1.53 0,3.06 -1.15,1.53 0,4.21 0.77,1.15 -2.31,-0.01 -0.39,2.3 -3.85,2.28 -3.08,3.05 -1.54,3.44 -4.23,-6.91 -0.38,-2.3 -1.92,-3.46 -0.77,-4.22 -3.46,-2.32 -1.54,-3.46 -0.38,-3.07 -2.31,-2.69 -1.15,-3.07 -2.31,-1.16 -0.38,-1.53 2.7,-3.43 -1.54,-2.31 0,-6.13 -2.31,-4.23 0,-2.3 -1.15,-1.16 -2.31,-0.4 -0.77,-1.92 0.77,-6.13 0.77,-1.15 0,0 1.54,-1.14 0.39,-2.68 1.54,-0.37 3.47,-4.58 4.23,-1.13 1.54,-3.83 3.08,-0.37 1.54,-2.68 0,-2.3 -1.54,-1.16 -2.31,-0.01 -6.15,1.12 -3.85,-2.71 -5.77,-1.95 -4.23,-3.09 -3.85,-1.17 -3.84,-3.09 -2.31,-0.4 -1.92,-1.16 -1.15,-1.92 -1.54,-1.16 -5.38,-2.33 -3.84,-3.48 -2.31,-1.16 -3.85,-0.79 -1.92,-3.08 0,0 2.31,-5.36 2.75,-11.07 0,0 2.45,0.5 5.02,-1.26 0.42,-0.75 1.73,0.19 1.02,-1.07 1.55,1.32 1.55,-0.06 0.42,0.94 2.69,0 4,-1.26 2.03,-0.25 1.44,-0.25 1.85,1.82 -0.06,1.01 5.14,-0.25 0.48,-0.63 1.25,1.13 0.78,1.01 0.72,0.38 2.51,-1.26 0.72,-4.71 -2.21,-0.56 -0.54,1.07 -1.08,-0.88 -0.48,1.13 -1.43,-0.26 -2.63,0.76 -0.06,-0.63 6.1,-1.7 3.17,0.44 4.6,-0.82 2.45,1.19 2.75,2.64 1.37,0.38 -0.42,1.13 0.72,0.75 -0.78,0.82 0.06,1.13 1.31,2.14 5.44,1.32 2.45,2.01 6.87,-1.19 1.61,1.76 0.96,0.06 0.42,1.32 3.53,0.88 3.94,3.39 6.69,-2.64 1.61,0 2.33,2.34 z"
     title="Hato Mayor"
     id="DO-30" />
  <path
     d="m 44.876094,282.67093 8.71,0.05 18.85,3.93 12.31,-0.31 4.23,1.94 10.77,1.59 1.539996,0.78 0,0 0,0 0,0 0,0 0,0 -1.539996,1.14 -5,1.5 -6.93,0.73 -1.54,0.76 0,6.51 -5,10.31 -0.77,3.05 0.76,8.05 1.93,3.07 24.229996,12 4.23,1.17 4.61,0.41 6.16,3.09 0.76,1.54 2.31,0.78 7.31,6.16 1.92,0.01 3.08,-2.66 8.46,-4.16 1.16,-1.53 4.23,0.03 0.77,0.39 2.31,3.83 3.46,2.32 0.77,1.91 -0.39,1.92 1.92,1.92 0.39,3.44 3.07,3.46 1.93,0.39 3.46,-1.12 3.84,0.02 0,0 -0.77,3.05 -1.92,1.52 -1.54,3.43 -1.92,1.9 -9.24,2.63 -5,-0.03 -8.85,-1.96 -6.15,-4.62 -5.77,7.61 0,1.53 5.77,11.11 3.07,10.34 -0.77,0.75 -2.31,-0.77 -3.46,0.36 -3.08,-1.54 -3.07,0.74 -1.93,2.67 0,4.96 -0.64,1.89 0,0 -3.5,-2.41 -4.07,-4.52 -8.14,-7.19 -8.39,-0.79 -4.599996,-1.33 -4.89,-3.03 -5.26,-1.5 -3.82,0 -2.79,-1.59 -2.29,-2.67 -5.46,-3.9 -2.69,-3.46 -2.16,-0.01 -1.39,-1.14 -4.57,-1.61 0,0 6.78,-11.4 -21.7,-8.63 -1.86,-3.15 -5.66,-1.22 -3.05,-6.91 -7.1,-3.84 -6.08,-2.45 -2.03,-6.3 7.25,-1.33 -0.17,-2.89 -16.06,-17.07 -2.6299998,-5.87 -1.77,0 -2.29,-3.15 -3.04,0.44 -1.77000001,-1.66 2.36000001,-1.5 3.29,-1.06 3.45,-4.65 4.6499998,1.92 3.63,2.89 1.44,-0.44 1.76,-2.73 1.86,0 4.48,2.71 0.76,2.1 1.44,-0.17 1,-2.11 3.63,0.43 1.69,1.49 3.63,-1.06 2.62,0.61 1.85,-1.06 -0.68,-5.88 1.43,-1.93 z"
     title="Independencia"
     id="DO-10" />
  <path
     d="m 696.60609,392.53093 1.2,1.19 7.41,2.06 4.42,2.81 4.18,0.13 -0.66,-0.69 0.3,-0.5 3.35,0.56 1.14,2 2.45,0.38 1.44,1.06 4.06,-0.56 1.61,0.69 3.23,-1.13 1.91,0.44 3.35,2.5 2.09,2.69 1.14,2.56 -0.12,2.69 -1.79,1.13 -0.66,-1.19 -1.08,0.25 -0.54,-1 -1.85,0 -4.42,-1.62 -5.68,-1 -2.21,1.31 -1.43,-0.25 -2.81,0.81 -1.49,1.63 -1.61,0.13 -14.52,-5.06 0.54,-0.81 -0.42,-1.19 -3.52,-4.31 -2.63,-1.94 0.36,-3.63 1.38,-1.38 1.88,-0.76 z m -5.14,-176.05 2.33,1.19 1.26,-0.13 3.11,2.64 3.05,0.56 6.99,4.84 0.78,1.13 2.39,1 2.87,3.77 7.59,6.53 0.6,1.57 5.32,5.78 0.36,1.32 2.87,1.57 1.02,2.13 3.41,2.01 8.37,8.79 2.81,1.95 1.08,-0.06 0.66,-1.51 1.5,0.88 -0.24,0.75 0.78,1 6.99,6.21 2.15,1.13 2.21,0.25 2.21,2.89 2.69,2.26 0.06,1.13 1.02,1.38 4.12,2.19 1.61,3.07 2.99,2.51 2.03,1.32 0.84,0 0.96,-1.13 4,3.39 3.65,1.76 4,5.45 -0.78,1.32 1.32,0.82 -0.36,2.76 -1.37,0.13 1.2,1.69 -1.61,4.2 -1.61,1.88 -1.85,3.76 -2.99,3.51 -0.36,2.01 -0.9,0.63 -2.45,4.39 -2.63,0.69 0.06,2.32 -2.03,3.7 0,1.13 -3.35,2.76 -1.25,0.25 -1.49,2.51 -3.11,2.88 -1.07,3.76 -0.3,10.83 -3.11,3.82 -5.32,1.69 -14.7,-4.69 -1.79,-1.56 -1.67,-0.31 -2.39,-1.5 -2.03,-1.81 -3.64,1.75 -0.78,1.31 -0.12,2.13 2.75,3.44 0.3,2.32 -3.05,6.76 -2.51,2.57 -1.2,2.56 -0.95,4.76 -0.96,0.63 0.12,5.82 0.12,0.69 0.12,2.5 -0.54,1.38 -3.88,-1.75 -0.72,0.5 -3.17,-0.06 -2.33,1.31 -3.52,0.06 -2.87,-0.94 -0.84,1.06 -1.19,-0.19 -1.02,1.25 -1.02,0.19 -0.51,-0.31 0.34,-0.89 1.13,0.2 0.78,-2.06 -1.91,-1.38 -1.19,0.06 -0.9,1.13 0.36,1.44 1.25,0.31 -0.2,0.5 -2.66,1.19 0.78,-1.88 -0.84,-4.94 -2.51,-3.19 -3.52,-8.57 -4,-5.44 -2.69,-6.07 -4.84,-3.57 -1.55,-2.88 0.66,-1.31 -0.66,-0.81 -12.66,-5.94 0,0 0.63,-1.98 1.54,-1.9 0.39,-8.03 2.31,-1.14 -0.38,-1.53 1.54,-1.9 0.39,-1.91 1.54,-1.52 3.46,-6.87 -0.77,-0.77 0,-8.04 -5.77,-3.86 -4.23,-6.92 -1.92,-0.78 -0.38,-5.36 -0.77,-1.15 -1.92,-0.39 0,-2.3 -2.31,-1.54 -0.38,-1.92 0,0 0,-1.15 -1.54,-1.54 -0.38,-1.92 1.54,-1.52 -0.38,-3.45 0.77,-2.68 0.77,-0.76 5.38,-0.35 3.46,1.17 1.92,-0.37 3.47,-6.5 3.85,-2.28 3.08,-4.2 2.69,-1.52 0.77,-2.68 -0.38,-7.29 -5.38,-12.3 -1.92,-3.08 0,-1.15 2.7,-2.29 1.54,-0.37 -0.38,-4.61 0.77,-1.53 3.08,-0.37 1.15,-2.3 1.92,0.78 0.77,-0.76 -0.38,-2.69 1.92,0.78 0,-3.87 0,0 -0.04,0 z"
     title="La Altagracia"
     id="DO-11" />
  <path
     d="m 111.34609,144.08093 1.92,0.79 1.92,-0.38 5,2.34 2.69,3.86 0.39,4.61 8.07,6.2 2.31,0.01 4.61,3.49 5,1.56 2.7,1.94 0,0 -0.39,0 0,0 -1.15,1.53 0,0 -1.16,10.37 0.77,2.69 -1.16,1.53 -2.69,1.52 -4.62,-0.02 -3.08,2.67 -1.53,-0.01 -0.39,-1.54 -2.69,-0.01 -3.84,-3.87 -7.31,-1.19 -2.31,0.75 -3.85,5.75 0.38,4.61 -2.69,4.2 -3.08,7.67 -0.39,4.99 -0.77,0.76 -2.31,0.37 -7.309996,-1.96 -1.92,0.37 -2.31,1.91 -8.08,9.93 0,1.15 0.77,0.78 1.54,0.39 -0.39,3.83 -3.46,5.74 -0.39,4.6 0.77,0.01 2.31,-2.29 0.77,0.38 -0.39,8.06 1.15,4.22 -1.54,1.91 -0.76,2.68 -1.16,0.76 3.08,1.94 0,1.53 1.53,1.93 3.08,1.55 1.54,0 0.38,1.16 2.7,1.55 0.38,1.91 -1.16,2.3 -1.15,0.76 -0.38,1.53 0.76,1.54 1.16,0.77 1.53,3.46 2.31,1.16 3.849996,-0.36 1.92,1.16 1.54,3.84 0,1.53 -1.54,5.74 -1.54,1.91 0,0 -1.539996,-0.78 -10.77,-1.59 -4.23,-1.94 -12.31,0.31 -18.85,-3.93 -8.71,-0.05 0,0 -0.35,-0.63 1.43,-1.49 1.77,0.7 0.84,-0.71 0.42,-3.16 9.87,-3.79 3.26,-18.53 0.32,-6.5 -1.18,-1.93 0,-1.67 0.16,-5.89 -0.34,-0.44 -2.28,-0.26 0.25,-1.67 -0.68,-1.22 -4.65,-3.42 -1.6,-0.17 -3.22,-9.31 0.33,-1.41 -2.02,-0.88 -0.76,1.24 -3.89,-1.4 -0.42,-1.32 -2.79,-0.79 -1.26,1.24 -0.76,-1.67 -1.6,1.67 -1.02,0.62 -1.26,1.32 0,-0.7 -1.44,-1.23 0.01,3.6 -1.6,0.18 -1.44,-0.61 -1.01,1.67 -0.59,-0.17 -0.6,-3.78 1.02,0.61 1.18,-0.26 -0.18,-3.17 2.03,-0.79 -0.17,-1.5 1.01,-0.44 0.17,1.49 1.43,-0.17 -0.25,-1.06 1.01,-1.06 -0.17,-1.31 1.6,0.43 0.84,-2.11 1.44,0 0.16,-1.23 0.59,0.35 0.6,2.37 4.72,-1.06 0.17,-1.06 1.44,-0.44 0.59,1.23 -0.42,0.7 1.43,0.79 0.85,-0.18 0.16,-0.88 -1.01,-0.79 0.17,-1.49 1.26,-1.06 0.76,0.44 1.27,-0.71 -1.61,-1.05 2.61,-3.17 0.59,0 0.59,1.32 0.85,-0.27 -0.6,-1.67 3.04,-2.91 2.02,1.06 0.59,-1.77 2.2,-0.35 1.01,-1.32 1.43,-0.62 0,-0.62 -1.01,-0.26 1.01,-1.67 1.43,1.05 1.77,-1.67 -2.36,-0.88 0.16,-1.41 2.02,0 1.02,-0.71 -0.42,-1.84 -1.61,-0.88 0.42,-1.06 1.6,-1.05 2.87,1.49 1.01,-1.5 -0.67,-1.85 1.26,0 1.18,0 1.61,0.78 2.02,-1.23 1.85,-3.79 -1.86,-1.31 3.04,-1.24 -1.61,-1.5 0.85,-0.17 0.17,-0.71 -0.18,-1.05 -0.84,-0.35 0.25,-1.06 2.2,0.35 0.59,-0.62 -3.04,-1.67 0.59,-0.88 1.43,0.44 0.59,-0.79 1.43,0.17 0.43,-1.06 -2.62,-1.49 0.16,-2.11 2.28,-1.06 0.59,0.88 0.59,-0.88 -1.44,-1.06 -1.78,-2.9 0.39,-0.59 2.31,-3.06 2.69,-1.91 2.69,0.79 0.77,-0.77 0.77,-5.76 1.93,-1.91 4.23,2.33 3.08,-0.75 2.689996,0.78 1.15,1.54 2.69,0.4 2.7,-4.21 2.69,-1.52 z"
     title="La Estrelleta"
     id="DO-07" />
  <path
     d="m 644.19609,352.18093 3.17,3.69 0.9,2.82 0.24,0.94 -0.48,1.25 -4.78,-1.56 -2.09,-1.63 0,-0.81 1.02,0.19 0.72,-4.69 1.3,-0.2 z m -17.46,-33.69 4.62,-1.5 4.23,-4.19 0.77,-2.68 6.54,-4.94 3.46,-4.58 2.69,-6.88 1.54,-1.91 2.7,-5.73 0.77,-0.38 2.69,1.55 3.85,0.02 0,0 0.38,1.92 2.31,1.55 0,2.3 1.92,0.39 0.77,1.15 0.38,5.36 1.93,0.78 4.23,6.92 5.77,3.86 0,8.04 0.77,0.77 -3.46,6.87 -1.54,1.52 -0.39,1.91 -1.54,1.91 0.38,1.53 -2.31,1.14 -0.39,8.03 -1.54,1.9 -0.63,1.98 0,0 -2.1,-0.06 -4.24,-0.88 -2.03,-1.13 -1.31,0.81 -0.78,-1.57 -1.61,-0.37 -3.11,1.31 -0.36,1.25 -0.9,0.63 -4.3,-0.31 -3.7,1.44 -9.74,0.88 -4.79,-0.25 0,0 -1.54,-3.96 0.77,-2.67 -1.15,-1.92 0,-1.15 -3.46,-4.99 -1.15,-0.77 -1.54,-3.07 0,-1.91 1.54,-3.05 3.46,-3.43 1.14,-3.44 z"
     title="La Romana"
     id="DO-12" />
  <path
     d="m 299.44609,128.22093 0.77,0.39 0.39,1.93 1.15,1.16 10.39,1.21 3.46,-0.36 1.54,-2.69 1.54,-1.53 0.77,0.01 3.46,6.56 0,6.92 0.76,1.16 5.01,0.02 0.76,-0.76 0.39,-2.31 1.15,-0.37 0,0 0.77,4.62 1.15,2.69 3.08,2.71 2.31,4.25 1.15,4.23 2.69,3.48 6.54,-1.12 4.62,0.41 0,0 0.77,2.7 2.3,3.09 1.93,1.16 3.84,4.63 2.69,0.78 3.08,2.33 1.54,3.08 1.53,0.01 0,0 1.16,0.39 -0.39,1.15 -0.77,0.38 -1.15,-1.16 -0.77,0 -1.15,3.45 -2.31,1.14 -4.62,0.36 -0.38,-0.77 -2.31,-0.02 -3.46,4.59 -1.54,-0.01 -3.08,1.52 -1.54,1.91 -1.54,3.84 0,0 0,-5 -2.69,-1.93 -6.15,-1.96 -3.08,1.91 -0.39,3.45 -3.85,3.05 -3.07,-1.55 -5.78,0.73 -2.69,1.52 -1.92,2.68 0,2.69 1.15,1.54 0.39,3.46 1.92,6.15 -0.01,5.76 -2.69,1.52 -1.54,-0.01 -1.54,1.15 -0.77,2.68 -3.85,3.43 -1.54,2.29 -6.15,3.42 -2.7,5.74 0.39,2.3 2.3,1.17 2.31,3.08 3.08,2.32 2.3,5.76 5,4.63 1.16,2.31 0,0 0,0 0,0 -1.16,1.53 0,1.15 1.15,5.37 -3.08,1.13 -1.15,1.15 -1.54,2.67 0.77,2.3 -0.39,1.15 -4.23,-0.02 -2.31,1.13 -1.92,1.91 0,4.6 -1.93,0.75 -3.84,-0.02 -1.54,-1.16 -3.46,-0.4 -6.16,1.5 -5,0.35 0,0 -0.41,-0.41 2.7,-2.18 0.79,-4.94 0,-6.57 -1.31,-3.98 -4.83,-4.11 -4.3,-0.52 -1.48,-1.1 -4.23,0.36 -5.79,-8.47 -2.35,-2.47 -4.04,-1.92 -1.27,-2.1 0.38,-3.14 -3.46,-4.23 -0.38,-9.6 1.15,-1.14 1.54,0.01 0,-1.92 -2.3,-3.09 -1.54,-0.77 -0.39,-3.46 1.55,-3.06 -3.47,-4.24 -1.54,-0.78 -1.92,0.76 -1.15,1.53 -3.08,1.13 0,0 -0.77,-3.07 -2.31,-3.85 -2.3,-1.55 0,0 1.54,-1.91 0,-1.54 -0.77,-3.46 -1.15,-1.93 0.38,-2.3 5.39,0.41 1.92,-1.52 1.15,-2.68 1.16,-0.76 3.46,0.4 3.08,-2.29 3.46,-0.75 1.16,-1.14 1.54,-4.6 3.46,0.02 4.23,-1.13 1.16,-1.15 0.77,0.01 0,-0.77 1.15,-0.76 2.31,-0.38 0.77,-1.14 2.3,-0.76 0.78,-4.99 1.54,-3.45 1.54,-1.53 1.15,0.39 1.15,3.08 2.69,0.4 1.54,1.16 1.93,-0.75 1.54,-1.92 0,-0.77 -1.54,-0.39 0.38,-2.69 -1.53,-1.16 1.54,-2.68 -0.77,-2.31 1.15,-1.53 -0.77,-0.39 -0.38,-1.93 1.15,-1.91 -1.53,-1.16 -5,-1.57 -8.47,-3.89 -0.77,-1.16 3.08,0.02 0,-1.16 -2.31,-1.17 -0.76,-3.08 3.07,0.02 0.77,-1.53 1.54,0.01 1.93,-1.53 5.38,0.41 0.77,-1.15 0,-1.92 0.77,-0.76 6.93,-1.89 4.23,-2.67 z"
     title="La Vega"
     id="DO-13" />
  <path
     d="m 433.89609,56.76093 1.49,0.13 1.73,0.63 2.63,-0.19 1.97,1.45 1.32,-0.12 0.96,1.76 1.25,0.13 0.12,2.02 1.25,1.13 0.72,0.32 1.2,-0.88 1.43,1.7 3.11,0.63 3.05,6.31 0.48,2.77 -0.6,2.4 -1.8,2.77 -0.05,4.23 -2.1,3.91 1.68,3.91 1.73,2.08 2.57,0.81 1.79,1.77 -0.95,1.57 0,9.21 -0.72,1.44 0.78,3.22 2.45,5.73 3.16,4.91 0,3.21 1.98,2.9 4.72,3.78 0.24,2.01 1.73,1.2 0.12,1.32 1.73,2.39 5.16,4.91 0,0 0.4,3.09 3.46,3.1 -1.54,-0.01 -2.69,-1.55 -0.77,0.38 1.92,2.32 -0.38,1.15 -0.77,-0.01 -2.31,-1.93 -1.54,0.37 0.38,2.31 1.16,1.93 0,1.54 0.77,0 0.38,1.16 -0.77,0.38 0,1.54 -0.77,0.76 -1.54,-1.16 -1.15,0.38 -0.39,3.07 3.08,1.94 0.38,1.92 0,0 -5.77,-0.03 -6.15,-1.57 -5,-3.1 -1.54,-1.93 -1.54,-0.78 -13.07,-3.54 -8.08,-3.5 -10,-1.98 -2.31,-2.32 -0.38,-2.7 0.77,-4.22 -1.54,-1.17 -5.77,-1.18 -6.92,0.34 -1.54,-0.77 -4.23,-8.49 -1.15,-4.24 -1.54,-1.16 1.16,-7.69 -3.08,-10.03 -1.92,-1.16 -2.69,0.37 -0.77,-0.78 0,-1.15 -1.16,-0.78 -1.53,-0.01 -1.16,-1.16 -3.46,-0.79 -1.92,-2.32 0,0 1.92,-5.76 -0.76,-5.79 1.15,-0.76 1.54,0.78 4.61,-0.36 1.16,0.78 2.69,-1.53 2.69,-0.37 3.47,-3.06 5.38,-2.28 1.16,-1.15 0.77,-3.08 0,-3.85 0.77,-2.31 -0.37,-1.53 0,0 2.21,-1.63 1.49,-4.1 1.26,-1.51 2.8,-2.4 1.74,-0.06 1.67,-0.51 4.24,-1.26 0.9,0 0.66,0.82 4.12,-0.19 z"
     title="María Trinidad Sánchez"
     id="DO-14" />
  <path
     d="m 316.71609,259.67093 -1.16,-2.31 -5,-4.63 -2.3,-5.76 -3.08,-2.32 -2.31,-3.08 -2.3,-1.17 -0.39,-2.3 2.7,-5.74 6.15,-3.42 1.54,-2.29 3.85,-3.43 0.77,-2.68 1.54,-1.15 1.54,0.01 2.69,-1.52 0.01,-5.76 -1.92,-6.15 -0.39,-3.46 -1.15,-1.54 0,-2.69 1.92,-2.68 2.69,-1.52 5.78,-0.73 3.07,1.55 3.85,-3.05 0.39,-3.45 3.08,-1.91 6.15,1.96 2.69,1.93 0,5 0,0 0.77,3.46 4.23,4.63 -0.77,6.14 0.38,3.07 0.77,0.77 4.23,0.79 2.69,1.17 0.77,1.16 0,3.45 6.15,4.64 -0.42,0.38 2.8,2.55 4.36,2.36 3.01,3.57 3.27,2.5 3.02,4.51 0.98,4.04 0,0 -2.02,1.66 -2.31,0.75 -0.77,1.15 0,6.52 -0.77,1.91 0,0 -1.93,1.52 -4.62,1.51 -2.69,1.9 -1.92,2.29 -0.39,1.92 1.15,1.54 0.39,2.68 -0.39,1.15 -3.08,2.66 -0.76,1.92 -2.31,1.9 -1.16,-0.01 -3.56,-2.56 0,0 -2.97,-0.92 -1.93,-1.16 -2.31,-2.7 -3.46,-1.55 -5.77,1.88 -4.23,-0.4 -1.15,1.14 -1.16,-0.01 -3.84,-3.85 -5,-1.95 -3.08,-4.23 -1.92,-1.16 z"
     title="Monseñor Nouel"
     id="DO-28" />
  <path
     d="m 100.71609,4.8209298 0.78,0.62 7.17,1.1399999 2.57,-1.0099999 8.19,3.5399999 2.69,2.5300003 4.59,1.38 4.5,2.85 1.38,-0.13 2.39,1.52 7.83,1.64 5.08,0.76 0.55,-0.57 3.4,0.13 0.6,0.82 1.44,-0.01 0.12,1.08 1.86,0.64 1.85,1.13 4.9,0.89 1.99,-1.02 4.03,-0.69 0,0 1.29,0.65 0.37,1.14 -0.77,1.55 0,1.93 1.15,2.29 0.38,4.66 6.16,3.12 7.31,1.97 3.09,1.96 0,0 -2.32,9.61 -1.92,1.9 0,3.49 -0.77,1.15 0,1.55 1.92,4.63 0,6.18 -0.77,0 -0.77,-1.17 -1.14,1.17 -3.47,-0.81 -0.77,2.31 2.69,6.16 0.38,5.03 -0.77,1.54 0,1.93 -1.53,1.14 -1.55,3.08 0,0 -6.15,-2.35 -1.92,3.84 -2.31,0.37 -3.08,-2.71 -4.61,-0.01 -4.62,-4.67 -1.14,0.37 -1.55,2.31 -2.31,-0.4 -1.54,1.92 -5.38,2.67 -2.31,-0.01 -1.54,-1.16 -1.54,-0.01 -1.15,1.92 -0.77,0 0,-1.93 -5,-3.88 0.39,-1.92 -1.92,0.37 0.4,3.06 -1.17,0.4 0,0 -3.46,-1.94 -3.08,-0.79 -2.69,-3.48 -3.46,-1.17 -1.92,-1.17 -1.15,-1.55 -2.69,-0.79 -1.15,-1.55 0.39,-1.54 -1.15,-3.09 -5.38,-0.42 -2.309996,0.76 -1.54,1.53 -5.37,-0.41 -5.39,1.12 -7.69,-0.04 -12.31,-5.08 -3.85,0.36 -0.77,-1.16 -2.31,-0.4 -1.91,-2.3 0,0 0.79,-0.82 -0.63,-3.62 -2.41,-1.05 -1.35,-2.12 -0.84,-0.18 0.59,-2.12 -1.18,-0.44 -0.42,-1.06 0.18,-1.26 5.46,-1.2 1.79,-3.22 -0.11,-1.83 -1.03,-0.69 -0.18,-2.15 -1.19,0.76 -1.97,-4.04 -1.49,-2.72 1.26,-0.63 -0.54,-3.28 -1.43,-0.06 -0.42,1.58 -0.96,0.44 -0.23,0.95 -2.28,0.94 0,1.07 0.66,0.32 -0.4,0.89 -1.27,-0.64 0.66,-2.46 -0.24,-1.83 6.64,-5.87 0.48,-1.7 5.74,-1.07 5.44,-2.78 0.3,-2.08 3.11,-0.76 3.47,-2.9 1.14,-1.64 0.42,-1.98 -1.55,-5.4800002 1.14,0.24 0.06,-1.03 1.8,0.25 1.19,1.01 0.48,2.2100002 1.79,0.88 2.56,-1.77 -0.23,-2.0100002 0.78,-0.88 2.45,-0.5 0.78,0.57 1.91,-1.46 2.26,-0.76 3.96,0.89 5.369996,-1.38 z"
     title="Cristi"
     id="DO-15 Monte" />
  <path
     d="m 484.06609,191.92093 0.77,0.01 1.54,1.93 1.92,1.16 1.16,0.01 1.92,1.16 4.61,4.25 2.31,3.47 9.23,3.51 1.93,2.31 0,0 1.92,3.08 3.84,0.79 2.31,1.17 3.85,3.47 5.38,2.34 1.54,1.16 1.15,1.92 1.93,1.16 2.3,0.4 3.85,3.09 3.84,1.17 4.23,3.1 5.77,1.95 3.85,2.7 6.16,-1.11 2.3,0.01 1.54,1.16 0,2.3 -1.54,2.68 -3.08,0.37 -1.54,3.82 -4.23,1.13 -3.46,4.58 -1.54,0.38 -0.39,2.68 -1.54,1.14 0,0 -0.38,-1.54 -1.92,-1.16 -1.16,0 -0.77,0.37 -3.08,4.97 -1.15,0.38 -2.31,4.59 -5,6.48 -3.86,12.63 -2.69,4.96 -2.68,3.17 0,0 -9.06,-3.26 -3.86,0 -1.55,3.25 -5.15,1.08 -2.06,1.35 -4.16,-0.33 -4.56,1.45 -2.31,-0.78 -4.62,3.42 0,1.92 -1.92,4.2 -3.08,1.52 -0.77,1.52 -3.08,1.9 -1.15,-3.07 0.38,-3.44 -1.15,-1.16 -0.77,-3.07 -3.85,-0.02 -0.76,-1.15 -0.39,-5.75 0.77,0.01 0,-0.77 -0.77,-0.77 -1.53,-0.01 -1.16,1.53 -0.77,-0.39 -0.77,-2.31 -3.07,-3.84 -0.39,-2.69 -1.53,-1.54 0,-1.15 -2.7,0.75 -2.69,-0.39 -4.23,2.65 -1.54,-0.01 -1.92,-1.54 -2.7,-0.01 -1.54,-1.16 -2.69,-0.78 -0.38,1.14 0.77,0.78 -0.01,2.29 -1.53,1.91 -2.7,0.37 -2.3,3.05 -1.93,-0.01 -1.15,-0.77 -3.85,-0.03 -2.31,1.91 -1.54,0.37 -5,-4.62 -3.07,-0.02 -2.7,0.75 -4.23,-0.79 -1.15,-0.77 -3.07,-6.15 -3.47,-4.62 -0.38,-1.53 -2.31,-0.4 -1.92,1.14 0,0 -1.16,-1.92 -4.22,-3.86 -5.01,-0.8 -1.15,-1.15 -0.77,-2.31 -5.76,-5.78 0,0 0.77,-1.91 0,-6.52 0.77,-1.15 2.31,-0.75 2.02,-1.66 0,0 1.05,-1.39 3.85,-1.9 4.62,0.79 5.77,-0.73 4.23,0.79 0.77,-0.76 0.77,-3.07 1.54,-1.52 4.23,0.02 4.23,-2.66 1.54,0.01 1.54,2.31 2.31,-0.37 1.92,0.78 1.15,-1.15 1.16,-3.44 1.15,-0.76 2.7,1.16 3.46,3.09 2.3,1.16 3.85,0.41 2.31,-2.29 1.54,-3.83 1.92,-1.91 3.47,-8.42 0.39,-5.75 -1.54,-1.16 -0.77,-3.46 3.85,-7.66 0,0 7.31,0.43 1.54,-1.15 0,-10.37 4.62,1.57 4.23,-1.9 6.54,0.81 3.46,-1.9 1.15,0 3.85,0.41 z"
     title="Monte Plata"
     id="DO-29" />
  <path
     d="m 78.246094,553.84093 1.2,0.75 0.18,1.25 -1.79,0.31 -0.6,-0.81 -0.24,-1.12 1.25,-0.38 z m 26.119996,-30.96 1.25,1.43 2.57,0.19 1.32,0.94 1.49,3.8 1.44,1.43 2.99,0 -1.31,1.31 -0.24,1.56 -4.66,3.99 -6.45,2.43 -3.699996,0.31 -0.96,-0.5 -0.84,-2.37 1.37,-3.92 1.609996,-2.24 0.42,-3.12 2.15,-1.31 1.55,-3.93 z m -42.779996,-151.37 4.57,1.61 1.39,1.14 2.17,0.01 2.69,3.46 5.45,3.91 2.29,2.66 2.8,1.6 3.82,0 5.26,1.5 4.89,3.03 4.599996,1.33 8.39,0.8 8.14,7.18 4.07,4.52 3.51,2.42 0,0 4.63,0.51 4.07,2.66 1.78,1.6 0.25,1.06 -1.52,1.86 -4.58,0.27 3.56,5.85 0.51,2.66 -0.51,4.25 -4.07,5.32 -2.8,0.8 -2.54,-1.33 -0.51,1.06 0,4.78 -0.76,2.39 0.51,1.6 1.53,1.86 4.58,0 2.54,1.86 1.02,1.86 0,1.44 1.79,-0.3 2.31,1.54 4.04,5.03 3.56,-1.06 1.27,-4.25 2.8,0 5.09,6.38 0.26,3.25 1.45,1.06 0.77,4.96 -1.15,1.52 0.31,2.53 0,0 -0.91,0.38 -0.36,1.06 0.06,4.81 -2.09,1.69 -1.08,-1.06 -1.91,0.94 -3.88,5.24 -4.24,8.23 -2.45,11.66 -0.84,2.18 -1.25,0.69 0.18,2.74 -0.96,0.94 0.06,1.19 -1.26,2.24 -1.97,0.94 -0.06,1.62 -2.63,3.8 0.42,1.56 -1.55,2.62 -1.55,0 -2.03,3.12 -1.55,-2.49 -2.63,-1.99 -0.78,-1.93 0.18,-1.31 -5.98,-5.55 -2.87,-8.92 -2.51,-5.42 -2.09,-2.81 -1.61,-1.37 -2.99,-1.06 0.18,-0.87 -1.19,-0.81 -5.019996,-1.93 -9.92,-0.44 -8.67,2.5 -4.18,0.13 -0.48,-0.56 -1.61,0.19 -1.61,-1.87 -2.03,-0.56 0,-0.5 3.71,-0.87 2.45,-2.18 1.55,-5.93 2.15,0.87 1.67,-0.44 1.61,-2.99 0.06,-2.93 -1.14,-3.06 -2.69,-2.87 0.06,-1.69 -1.91,-3.99 -3.77,-2.5 -0.6,-1.25 0.72,-1 1.73,0.13 0.6,-0.56 1.37,-3.99 -0.12,-2.31 -1.91,-2.93 -0.42,-2.37 -1.31,-2.37 -5.86,-5.25 -4.48,-2.31 -3.71,-4.25 -3.51,-1.12 0.72,-0.86 0.25,-1.92 2.36,-1.67 0.42,-3.76 1.01,-0.61 0,-1.92 0.84,-0.44 -0.43,-2.1 -0.84,-0.17 1.01,-1.49 -0.59,-1.05 -1.44,0.27 -1.18,-2.8 0.84,-0.79 -0.01,-3.59 0.76,0 -0.59,-1.48 -1.01,0 0.42,-0.79 0.59,0.17 -0.17,-1.66 -0.42,-0.26 -1.01,1.75 -0.85,-2.36 -0.59,0 -1.86,-2.27 0.67,-1.49 -2.36,0.62 -2.37,-2.71 0,-1.66 1.26,-1.93 1.18,-0.18 0.84,-0.88 -0.42,-1.66 1.01,-3.33 2.44,-1.49 0,-2.71 6.7,-11.83 z"
     title="Pedernales"
     id="DO-16" />
  <path
     d="m 354.82609,323.85093 4.92,0.19 2.95,1.55 0.54,1.76 2.31,0.78 0.77,0.77 0,1.53 2.69,0.78 0,0 0,1.53 0,0 0,1.91 0.77,1.15 5,-0.35 0,0 0,1.53 0,0 0.77,0.39 0,1.15 -0.77,0.38 0,0.77 1.54,0.39 -0.77,1.53 1.54,0.01 0.77,-2.29 0.77,-0.38 0,2.68 2.31,-0.75 3.08,1.55 0,0.77 -1.15,1.14 -0.77,0 -0.38,-1.53 -0.77,-0.39 0,3.06 0.77,0.39 -0.77,0.76 -4.23,3.04 -5,-0.41 -1.92,1.9 0,1.53 2.69,-0.75 0.77,1.53 -0.39,2.68 0.77,1.53 0.77,0.01 1.16,-1.52 3.08,0.78 0,2.68 1.15,4.21 2.69,1.55 0.38,1.53 2.69,1.93 0.77,1.15 0.38,3.44 0.77,0.77 3.08,0.78 1.54,1.16 -0.39,3.44 -0.77,0.76 0,3.06 1.92,1.57 0,0 -2.08,1 -4.24,-1.69 -6.04,3.06 -1.91,-1.56 -6.81,-2 -6.75,2.25 -5.02,0.44 -4.9,-1.19 -3.41,0.13 -2.75,-1.37 -1.91,-0.13 -7.95,2.63 -8.07,4.57 -4.24,0.81 -4.24,1.75 -4.54,-3 -2.33,-0.06 -1.55,0.63 -4.12,-0.75 1.43,-3.13 1.73,-0.69 0,1.31 -0.24,-0.94 -1.31,0.5 -0.72,2.06 1.2,0.56 -0.24,-1.12 1.25,0.31 -0.06,-1.13 0.48,1.06 1.97,0.62 0.9,-1.19 2.45,0.81 1.37,-0.87 2.87,-0.13 0.36,-0.94 -3.47,-2.06 -1.79,0 -1.31,0 -3.53,-3.63 -0.18,-1.06 -1.37,-0.38 -0.78,-1 -3.23,-0.56 -1.79,-2.56 0,0 1.11,-1.05 8.46,-0.33 2.69,-1.51 3.85,0.02 2.31,-1.13 2.31,-5.34 0,-1.91 -1.15,-3.45 0.39,-5.73 4.24,-5.71 0,-3.06 -1.68,-2.83 0,0 0.56,-4.47 1.47,-2.06 1.47,-1.03 2.7,0 7.13,-4.12 3.19,0 3.69,-1.29 1.97,-3.35 4.13,-4.12 z"
     title="Peravia"
     id="DO-17" />
  <path
     d="m 213.60609,0.2509298 4.96,0.38 4.72,3.16 4.96,2.3999999 0.96,-0.13 1.79,-2.21 5.92,2.91 4,-0.32 0.3,0.95 0.78,0.25 1.37,-1.26 2.57,0.82 2.99,-1.45 0.6,0.88 1.49,-0.3099999 0.54,1.07 -0.42,1.71 0.66,0.88 2.39,1.6400002 2.75,-0.06 7.17,9.22 -1.37,2.02 0.59,0.95 1.2,-0.06 0.96,-1.58 1.61,0.5 1.49,-0.88 2.39,0 2.45,1.64 0.12,0.89 1.02,0.12 0.06,1.27 3.94,1.32 1.8,1.9 -0.78,0.69 0.78,1.07 1.37,-1.38 0.84,0.18 0.12,0.7 4.66,2.33 0.6,1.02 1.55,0.37 2.03,2.66 2.45,0 0.24,1.45 1.43,0.82 1.32,-0.19 1.2,-1.39 2.8,2.08 4.13,1.33 4.3,-2.08 1.26,0.37 1.01,-0.5 2.15,2.27 1.26,-0.5 1.43,0.06 2.63,0.44 1.08,-0.31 -0.54,-1.71 1.91,-3.72 5.8,-1.2 7.71,0.57 2.03,1.01 1.91,2.39 1.98,1.08 1.73,2.46 2.69,0.06 1.91,1.96 4.06,6.37 0,0 -2.31,5.31 1.53,3.48 0,1.93 -0.38,0.77 -5,0.74 0,1.16 1.15,0 0.38,1.16 -1.53,0.38 -0.77,-1.93 -0.77,-0.01 -0.39,1.93 -1.53,-1.55 -1.16,1.92 -1.54,-0.01 -1.54,-3.09 -0.76,-0.01 -1.54,1.15 -3.47,-0.41 -0.38,2.7 -0.77,-0.39 0,-0.77 -2.69,-0.02 -1.16,1.15 -1.15,-1.16 -0.77,0.38 -1.16,-0.77 -1.92,1.91 -0.38,1.16 0.76,0.77 -2.3,0.76 0,1.15 0.77,0.39 -0.01,1.93 -1.54,2.69 0,1.16 1.16,1.93 0,1.92 -3.47,4.22 -0.77,8.86 -1.15,0.38 -1.16,1.53 0,0 -5,-2.72 -5.38,-1.96 -8.46,-1.59 -1.54,-2.32 0,-1.92 2.31,-8.08 -0.77,-3.47 -5.77,-3.51 -2.31,-0.01 -1.53,-0.78 -6.16,-3.89 -0.77,0 0,1.93 1.92,8.1 -0.77,2.31 -1.54,1.92 -5.77,2.28 -1.15,-0.01 -0.77,-0.78 -0.77,-2.7 -0.77,-0.77 -3.46,-0.41 -3.85,-4.26 -4.61,-3.49 -0.77,-0.01 0,1.16 -0.77,0.38 -3.07,-1.56 -2.31,-0.01 -4.23,-1.95 0,0 -8.47,-0.44 -1.54,-0.39 -1.92,-1.94 -1.54,0.76 -3.46,-3.49 -0.38,-1.92 -1.54,-0.01 -4.62,-2.73 -4.61,-4.65 -1.92,-0.01 -1.93,1.15 -4.23,-0.03 -4.61,-1.95 -1.54,-4.64 -2.31,-1.17 -7.69,-0.81 -3.46,-1.18 -2.29,-1.54 0,0 -3.1,-1.96 -7.3,-1.97 -6.16,-3.12 -0.38,-4.67 -1.16,-2.29 0.01,-1.93 0.77,-1.55 -0.37,-1.14 -1.29,-0.64 0,0 1.93,-1.14 -0.18,-2.27 1.2,-1.77 -0.96,-0.63 0.24,-1.84 3.65,1.96 1.07,1.52 2.75,0.62 0.84,-1.13 0.96,-1.2 1.31,-0.06 1.61,1.07 5.08,0.32 1.74,-1.64 4.96,-1.01 2.21,-1.14 2.21,-2.15 -0.36,-3.8500002 1.49,-1.52 2.21,-0.95 0.6,-1.77 4.01,-1.07 3.88,-1.9 z"
     title="Puerto Plata"
     id="DO-18" />
  <path
     d="m 330.98609,139.56093 0.01,-1.92 1.54,-3.07 2.69,-11.15 2.7,-5.75 0,-2.7 -2.31,-2.71 -0.77,-1.92 0,-3.08 1.93,-3.07 -0.38,-5.4 5,-11.52 0.77,0 1.92,2.71 1.92,1.17 4.23,0.79 0.77,0.78 0.39,4.62 1.15,1.55 2.31,0.78 1.92,-0.76 2.7,-8.07 0.77,-0.77 2.31,-0.76 1.92,-2.68 2.69,-0.37 1.93,-1.15 2.3,0.02 2.7,0.78 1.15,1.16 0.38,1.16 -1.15,1.54 0.77,2.7 2.69,3.86 2.69,2.33 0,0 1.16,0.39 0.77,1.55 -0.39,3.07 -1.54,1.15 -1.54,-0.01 -3.85,1.9 -1.15,2.31 0.77,1.93 3.08,1.17 0,1.15 -4.62,1.52 -2.31,2.29 -1.92,-0.01 -1.54,0.76 -6.16,4.59 -1.16,6.92 -2.31,6.52 0.39,2.7 -1.93,4.22 0,3.84 -1.54,2.3 -2.31,1.53 -1.15,2.68 0,3.08 1.15,1.54 0.77,3.08 0,0 -4.62,-0.41 -6.54,1.12 -2.69,-3.48 -1.15,-4.23 -2.31,-4.25 -3.08,-2.71 -1.15,-2.69 z"
     title="Hermanas Mirabal"
     id="DO-19" />
  <path
     d="m 596.32609,129.38093 0.96,0.25 0.78,1.13 0.3,-0.57 1.79,-0.13 0.48,1.39 -1.37,3.21 -3.35,3.27 -3.05,4.85 -1.02,2.08 0.66,1.01 1.02,0.69 3.82,0.5 0.6,-0.57 1.97,0.25 2.45,-2.45 2.21,1.26 1.73,-0.25 3.88,-2.58 1.44,-0.06 0.18,0.88 2.21,-0.25 0.36,0.57 -0.18,3.34 -2.45,4.59 -5.98,4.15 -1.43,1.89 -2.51,1.2 -0.48,2.58 -1.14,1.89 0.18,3.21 -0.66,0.13 -0.12,2.2 -0.42,1.26 -2.39,0.88 -3.41,-0.69 -2.03,-0.31 -4.54,-0.06 -3.34,-2.45 -1.02,1.07 -2.21,-1.57 -1.14,0.88 -3.88,-2.14 -1.14,0.38 -0.54,1.01 -0.24,0.88 -6.04,-0.88 -7.17,0.38 -0.96,0.94 -0.06,1.57 -1.55,-0.63 -0.24,-1.32 -2.33,-0.25 -1.26,0.82 -2.15,-2.26 -1.85,-0.69 -2.21,0.13 -2.33,-1.13 -2.09,-0.19 -1.25,0.57 -1.13,-0.63 -0.84,0.44 -1.61,-1.45 -1.85,1.2 -0.6,-0.75 -2.15,-0.57 -1.55,0.57 -1.73,-0.69 -2.99,0.57 -4.78,-0.94 -1.02,-0.69 -2.09,0.44 -2.93,-1.76 -3.23,-0.13 -1.55,1.07 0.66,1.38 -0.48,7.86 -1.14,3.02 -1.19,6.67 -0.66,0.38 1.85,7.17 -1.13,1.26 1.73,3.14 3.11,0.57 0,0 -2.75,11.07 -2.31,5.36 0,0 -1.92,-2.31 -9.23,-3.51 -2.31,-3.47 -4.61,-4.25 -1.92,-1.16 -1.15,-0.01 -1.92,-1.16 -1.54,-1.93 -0.77,0 0,0 1.15,-1.15 5,0.03 -1.54,-4.62 -2.31,-2.7 0,-2.31 2.31,0.01 3.46,-2.29 0.77,-0.76 -0.77,-1.54 1.92,-0.37 0.77,-1.53 0.77,0.77 1.54,0.01 0.39,-1.53 1.54,0.01 1.16,-4.61 1.93,-2.29 1.54,0.01 0.39,-1.54 -1.92,-0.78 -4.62,0.74 -1.92,-2.32 -3.46,0.75 -4.23,-0.41 -2.69,-1.55 -3.85,-0.02 -1.54,0.76 -2.31,4.22 0,0 -0.38,-1.92 -3.08,-1.94 0.39,-3.07 1.15,-0.38 1.54,1.16 0.77,-0.76 0,-1.54 0.77,-0.38 -0.38,-1.16 -0.77,0 0,-1.54 -1.15,-1.93 -0.38,-2.31 1.54,-0.38 2.31,1.94 0.77,0 0.39,-1.15 -1.92,-2.32 0.77,-0.38 2.69,1.55 1.54,0.01 -3.46,-3.1 -0.4,-3.09 0,0 6.79,3.78 6.87,1.32 8.37,-1.95 3.59,-2.2 13.98,-0.94 2.93,-1.64 0.12,-2.33 2.45,0.31 0,-1.51 1.67,0.44 0.84,-1.51 1.2,-0.38 1.73,1.2 2.21,-1.13 0.54,0.63 2.39,-0.69 2.93,0.13 2.93,0.94 5.38,-1.13 1.79,0.19 0.9,1.39 0.96,-0.25 0.6,-1.07 0.78,0.13 0.96,1.57 1.85,1.2 1.97,-0.88 -0.12,-0.82 1.2,-0.31 0.84,1.2 1.08,0.06 2.57,1.95 0.66,0.13 0.42,-0.94 1.44,0.13 -0.06,0.82 1.85,1.01 1.73,0.5 1.97,-0.44 1.25,2.64 1.2,0.82 0.84,-0.31 0.42,1.2 1.56,0.13 0.84,-0.38 0.48,-2.96 -0.48,-0.88 0.96,-1.26 2.27,-1.26 1.08,-1.51 2.09,-0.5 1.61,-1.95 4.78,-0.82 -0.36,-1.32 1.61,-1.38 1.25,-0.19 0.78,1.2 2.57,-4.91 0.99,-0.19 z"
     title="Samaná"
     id="DO-20" />
  <path
     d="m 377.49609,256.56093 5.76,5.78 0.77,2.31 1.15,1.15 5.01,0.8 4.22,3.86 1.16,1.92 0,0 -1.16,0.76 -0.77,1.53 0,2.3 3.46,5 0,2.68 1.16,1.92 -0.39,3.06 2.69,3.08 1.15,2.69 -0.38,1.53 -0.77,0 -1.15,-1.54 -1.54,0.37 -0.78,6.13 1.93,1.54 0.38,3.07 2.31,4.22 1.54,0.39 0,1.91 1.15,1.16 0.77,3.45 -0.39,1.53 0.77,1.53 2.31,0.4 3.08,-0.37 0,-1.53 1.15,-0.37 1.15,2.3 2.7,1.93 0.38,2.68 1.54,2.31 -0.77,0.76 -3.08,-0.02 0,0.76 0.39,1.15 3.07,0.02 -0.38,4.21 1.15,-0.38 0,-1.53 1.54,-1.14 1.92,0.01 1.54,2.31 1.92,0.39 3.08,-3.42 0.39,1.15 -0.77,3.05 1.15,-0.37 0.38,2.29 1.54,1.16 -1.05,3.41 0,0 -1.72,1.63 -0.24,-1 -0.72,0.43 0.3,1.44 -1.25,0.69 -3.11,6.26 -0.6,-0.31 -1.25,1.32 0.59,0.12 -0.83,1.13 -1.26,0.62 -6.75,13.21 -1.97,1.69 -1.5,-0.5 -1.67,1.87 -0.42,2.44 -2.27,3.13 -2.69,2.07 -3.41,6.69 -1.67,0.94 -2.27,-1.75 -2.34,0.93 0,0 -1.92,-1.57 0,-3.05 0.77,-0.76 0.39,-3.44 -1.54,-1.16 -3.08,-0.78 -0.77,-0.77 -0.38,-3.44 -0.77,-1.15 -2.69,-1.93 -0.39,-1.53 -2.69,-1.54 -1.15,-4.22 0,-2.67 -3.08,-0.78 -1.15,1.52 -0.77,-0.01 -0.77,-1.53 0.39,-2.67 -0.77,-1.54 -2.7,0.75 0,-1.53 1.93,-1.9 5,0.41 4.23,-3.04 0.77,-0.76 -0.77,-0.38 0.01,-3.06 0.76,0.38 0.39,1.54 0.77,0 1.15,-1.14 0,-0.77 -3.07,-1.54 -2.31,0.75 0,-2.68 -0.77,0.38 -0.77,2.29 -1.54,-0.01 0.77,-1.52 -1.54,-0.4 0,-0.76 0.77,-0.38 0,-1.15 -0.77,-0.38 0,0 0,-1.53 0,0 -5,0.35 -0.77,-1.15 0,-1.91 0,0 0,-1.53 0,0 -2.69,-0.79 0,-1.53 -0.77,-0.77 -2.3,-0.77 -0.55,-1.76 -2.95,-1.55 -4.91,-0.19 0,0 0,-1.87 -1.23,-2.06 -3.93,-4.38 0,-2.06 2.7,-6.7 0.49,-3.61 0,-5.67 -2.7,-4.38 0.24,-3.35 2.46,-3.36 0.49,-1.8 0.25,-5.16 2.63,-4.47 0,0 3.56,2.56 1.16,0.01 2.31,-1.9 0.76,-1.92 3.08,-2.66 0.39,-1.15 -0.39,-2.68 -1.15,-1.54 0.39,-1.92 1.92,-2.29 2.69,-1.9 4.62,-1.51 z"
     title="San Cristóbal"
     id="DO-21" />
  <path
     d="m 316.71609,259.67093 2.69,0.4 1.92,1.16 3.08,4.23 5,1.95 3.84,3.85 1.16,0.01 1.15,-1.14 4.23,0.4 5.77,-1.88 3.46,1.55 2.31,2.7 1.93,1.16 2.97,0.92 0,0 -2.63,4.47 -0.25,5.16 -0.49,1.8 -2.46,3.36 -0.24,3.35 2.7,4.38 0,5.67 -0.49,3.61 -2.7,6.7 0,2.06 3.93,4.38 1.23,2.06 0,1.87 0,0 -4.18,4.05 -1.97,3.35 -3.68,1.29 -3.2,0 -7.12,4.12 -2.71,0 -1.47,1.03 -1.48,2.06 -0.56,4.47 0,0 -3.7,-2.55 0.39,-2.68 -1.92,-3.07 0,-2.29 -1.93,-1.16 0.01,-2.3 1.15,-0.76 0,-0.76 -1.15,-1.16 -5.39,-0.79 -3.07,-4.23 -1.16,0.38 -1.15,-1.16 -5,-1.18 -1.15,-2.68 -1.54,-0.01 -2.31,1.14 -1.16,-0.39 -0.38,-1.54 -2.31,-2.69 0,-2.3 -0.77,-1.15 -6.92,-4.25 -1.92,-1.93 -0.77,-1.53 2.7,-4.2 -0.39,-6.51 -2.3,-3.85 -3.08,-2.7 -2.31,-1.16 0,0 5,-0.35 6.16,-1.5 3.46,0.4 1.54,1.16 3.84,0.02 1.93,-0.75 0,-4.6 1.92,-1.91 2.31,-1.13 4.23,0.02 0.39,-1.15 -0.77,-2.3 1.54,-2.67 1.15,-1.15 3.08,-1.13 -1.15,-5.37 0,-1.15 z"
     title="San José de Ocoa"
     id="DO-31" />
  <path
     d="m 145.95609,168.50093 0.77,0.39 1.15,3.08 1.15,0.78 2.7,-1.14 3.46,0.02 5.38,1.95 3.08,-1.14 3.08,0.79 0,0 3.84,3.1 5.77,0.8 6.54,2.72 2.31,3.47 3.84,1.95 0.77,3.46 0,4.99 3.08,3.09 2.69,1.55 2.31,0.01 7.3,3.12 1.54,2.69 0,1.92 0.77,0.78 1.92,0.01 1.54,0.77 0.77,-1.14 3.85,-1.52 0.77,-1.91 1.54,-0.76 3.07,1.17 0.77,0 1.16,-1.14 1.54,0 4.23,1.56 1.54,1.16 4.23,0.8 0,0 2.3,1.55 2.31,3.85 0.77,3.07 0,0 -0.39,1.54 0.77,0.77 0,1.53 -1.15,1.53 -6.54,1.12 1.92,4.61 -1.54,2.3 -5.39,1.12 -1.53,2.67 -1.16,0 -3.08,1.51 0,1.16 0.77,0.77 -0.38,2.3 -2.31,4.59 -1.54,0.37 -0.77,1.15 1.53,5.76 2.69,5.38 0,2.69 -2.69,4.58 -0.77,2.68 -2.31,2.29 -0.77,2.29 -1.54,0 -1.92,-3.85 -0.77,-3.07 -1.54,-1.16 -2.69,-0.02 -2.31,1.53 -1.15,1.91 0.38,6.13 0.77,0.77 0,1.53 1.15,0.4 0.39,1.91 -0.77,0.77 -1.54,-0.01 -1.16,1.14 0,1.92 2.31,2.31 0.38,2.68 -1.92,0.37 -2.19,2.17 -3.84,0.1 -2.55,6.32 -2.26,0 -5.22,5.42 -5.49,0.18 0,0 -0.38,-2.43 -0.77,-0.77 -5,-1.56 -5,1.12 -8.85,3.78 -7.31,-0.04 -3.08,-1.17 -2.69,-0.01 -1.54,1.14 -1.15,1.9 -1.93,-0.01 -4.23,3.04 -7.69,-1.57 -0.39,-2.3 -2.69,-0.78 -1.54,1.52 -1.53,-0.01 -1.16,-2.3 -5.77,-3.1 -2.69,-0.4 -2.31,1.14 -2.69,-0.02 -4.23,-1.17 -3.08,-1.55 -1.15,-1.54 -1.54,-0.77 0,0 0,0 0,0 1.54,-1.91 1.54,-5.74 0,-1.53 -1.54,-3.84 -1.92,-1.16 -3.849996,0.36 -2.31,-1.16 -1.53,-3.46 -1.16,-0.77 -0.76,-1.54 0.38,-1.53 1.15,-0.76 1.16,-2.3 -0.38,-1.91 -2.7,-1.55 -0.38,-1.16 -1.54,0 -3.08,-1.55 -1.53,-1.93 0,-1.53 -3.08,-1.94 1.16,-0.76 0.76,-2.68 1.54,-1.91 -1.15,-4.22 0.39,-8.06 -0.77,-0.38 -2.31,2.29 -0.77,-0.01 0.39,-4.6 3.46,-5.74 0.39,-3.83 -1.54,-0.39 -0.77,-0.78 0,-1.15 8.08,-9.93 2.31,-1.91 1.92,-0.37 7.309996,1.96 2.31,-0.37 0.77,-0.76 0.39,-4.99 3.08,-7.67 2.69,-4.2 -0.38,-4.61 3.85,-5.75 2.31,-0.75 7.31,1.19 3.84,3.87 2.69,0.01 0.39,1.54 1.53,0.01 3.08,-2.67 4.62,0.02 2.69,-1.52 1.16,-1.53 -0.77,-2.69 1.16,-10.37 0,0 1.15,-1.53 0,0 z"
     title="San Juan"
     id="DO-22" />
  <path
     d="m 547.89609,256.37093 -0.77,1.15 -0.77,6.13 0.77,1.92 2.31,0.39 1.15,1.16 0,2.3 2.31,4.23 -0.01,6.13 1.54,2.3 -2.69,3.44 0.38,1.53 2.31,1.16 1.15,3.08 2.31,2.69 0.38,3.07 1.54,3.45 3.46,2.32 0.77,4.22 1.92,3.45 0.39,2.3 4.22,6.92 1.54,-3.44 3.08,-3.04 3.85,-2.28 0.39,-2.3 2.3,0.02 -0.76,-1.15 0,-4.22 1.15,-1.52 0,-3.07 0.77,-1.52 5,-0.36 2.31,-1.13 1.93,-2.68 0,0 3.07,1.17 1.16,2.69 2.3,0.01 2.31,-1.13 3.46,1.16 6.16,4.25 1.92,4.61 5.77,3.09 2.31,-0.37 2.3,-1.51 6.16,0.03 0.77,1.54 -1.93,0.75 -1.15,9.18 0,0 -1.16,3.44 -3.46,3.43 -1.54,3.05 0,1.91 1.54,3.07 1.15,0.77 3.46,5 0,1.14 1.15,1.92 -0.77,2.68 1.54,3.96 0,0 -7.58,-2.69 -3.82,-0.06 -4.01,-1.07 -6.09,-2.38 -3.11,-2.38 1.08,-0.5 -0.9,-3.19 -2.33,-1.25 -3.77,0.88 -1.91,1.37 -7.11,0.13 -6.1,1.94 -0.77,-0.06 0.41,-0.32 -0.36,-0.75 -2.74,-0.31 0.3,-1.38 -1.02,-0.25 -1.26,0.88 -0.05,1.31 1.01,0.44 -0.48,0.5 -0.6,-0.31 0,1.19 -1.97,1 -5.79,0.38 -7.89,-0.94 -5.32,0.37 -7.65,1.32 -11.53,3.57 -4.4,-0.07 0,0 -0.02,-9.89 0.39,-0.77 1.54,0.01 0.38,-3.82 -10,-0.83 -6.54,-3.86 -1.92,-4.99 -2.69,-1.54 0.77,-1.53 2.31,-1.13 1.92,-4.97 3.47,-5.72 0,-1.15 -1.93,-2.31 1.54,-4.2 0.01,-1.92 -0.78,-0.39 -1.92,1.53 -0.77,-2.31 4.25,-5.22 0,0 2.68,-3.17 2.69,-4.96 3.86,-12.63 5,-6.48 2.31,-4.59 1.15,-0.38 3.08,-4.97 0.77,-0.37 1.16,0 1.92,1.16 z"
     title="San Pedro de Macorís"
     id="DO-23" />
  <path
     d="m 370.97609,178.61093 0.01,-1.15 -0.77,0.38 0,-0.77 1.15,-0.76 1.54,-0.38 1.54,0.78 1.54,-0.76 0.77,0.77 0.77,-0.76 0.77,1.92 2.3,-0.75 1.16,1.92 3.84,1.18 0.39,-1.92 0.77,-0.76 1.15,1.54 2.69,-3.06 1.54,-0.76 1.54,0.39 -0.77,2.69 1.54,0.01 1.15,-0.76 0.77,0.77 0.77,-0.77 0,2.69 1.93,-3.44 1.15,0.39 1.15,-1.15 0.39,0 -0.39,3.07 1.16,0.4 0.38,-1.54 1.16,0.39 0.77,-1.53 2.69,0.4 0,0.77 1.15,0.77 2.7,-0.75 1.15,-1.15 1.15,2.31 2.7,0.02 0.38,1.15 0.77,0.01 2.69,2.32 8.85,2.35 2.69,1.94 1.15,0.01 2.7,-2.68 1.92,0.01 4.62,2.33 2.69,2.32 3.84,0.41 2.7,1.17 0.38,0.77 -2.31,5.36 -0.77,6.14 0,0 -3.85,7.66 0.77,3.46 1.54,1.16 -0.39,5.75 -3.47,8.42 -1.92,1.91 -1.54,3.83 -2.31,2.29 -3.85,-0.41 -2.3,-1.16 -3.46,-3.09 -2.7,-1.16 -1.15,0.76 -1.16,3.44 -1.15,1.15 -1.92,-0.78 -2.31,0.37 -1.54,-2.31 -1.54,-0.01 -4.23,2.66 -4.23,-0.02 -1.54,1.52 -0.77,3.07 -0.77,0.76 -4.23,-0.79 -5.77,0.73 -4.62,-0.79 -3.85,1.9 -1.05,1.39 0,0 -0.98,-4.04 -3.02,-4.51 -3.27,-2.5 -3.01,-3.57 -4.36,-2.36 -2.8,-2.55 0.42,-0.38 -6.15,-4.64 0,-3.45 -0.77,-1.16 -2.69,-1.17 -4.23,-0.79 -0.77,-0.77 -0.38,-3.07 0.77,-6.14 -4.23,-4.63 -0.77,-3.46 0,0 1.54,-3.84 1.54,-1.91 3.08,-1.52 1.54,0.01 3.46,-4.59 2.31,0.02 0.38,0.77 4.62,-0.36 2.31,-1.14 1.15,-3.45 0.77,0 1.15,1.16 0.77,-0.38 0.39,-1.15 z"
     title="Sánchez Ramírez"
     id="DO-24" />
  <path
     d="m 245.62609,66.31093 4.23,1.95 2.31,0.01 3.07,1.56 0.77,-0.38 0,-1.16 0.77,0.01 4.61,3.49 3.85,4.26 3.46,0.41 0.77,0.77 0.77,2.7 0.77,0.78 1.15,0.01 5.77,-2.28 1.54,-1.92 0.77,-2.31 -1.92,-8.1 0,-1.93 0.77,0 6.16,3.89 1.53,0.78 2.31,0.01 5.77,3.51 0.77,3.47 -2.31,8.08 0,1.92 1.54,2.32 8.46,1.59 5.38,1.96 5,2.72 0,0 0,4.62 -3.85,3.06 -3.07,0.75 -1.16,1.54 0.38,5.77 -2.69,4.61 0,1.54 0.38,3.85 1.15,3.47 1.16,1.16 0,1.15 -0.77,0.38 -1.54,-1.55 -1.92,-0.01 -1.54,1.53 -0.78,1.92 0,0 -3.84,-0.02 -4.23,2.67 -6.93,1.89 -0.77,0.76 0,1.92 -0.77,1.15 -5.38,-0.41 -1.93,1.53 -1.54,-0.01 -0.77,1.53 -3.07,-0.02 0.76,3.08 2.31,1.17 0,1.16 -3.08,-0.02 0.77,1.16 8.47,3.89 5,1.57 1.53,1.16 -1.15,1.91 0.38,1.93 0.77,0.39 -1.15,1.53 0.77,2.31 -1.54,2.68 1.53,1.16 -0.38,2.69 1.54,0.39 0,0.77 -1.54,1.92 -1.93,0.75 -1.54,-1.16 -2.69,-0.4 -1.15,-3.08 -1.15,-0.39 -1.54,1.53 -1.54,3.45 -0.78,4.99 -2.3,0.76 -0.77,1.14 -2.31,0.38 -1.15,0.76 0,0.77 -0.77,-0.01 -1.16,1.15 -4.23,1.13 -3.46,-0.02 -1.54,4.6 -1.16,1.14 -3.46,0.75 -3.08,2.29 -3.46,-0.4 -1.16,0.76 -1.15,2.68 -1.92,1.52 -5.39,-0.41 -0.38,2.3 1.15,1.93 0.77,3.46 0,1.54 -1.54,1.91 0,0 -4.23,-0.8 -1.54,-1.16 -4.23,-1.56 -1.54,0 -1.16,1.14 -0.77,0 -3.07,-1.17 -1.54,0.76 -0.77,1.91 -3.85,1.52 -0.77,1.14 -1.54,-0.77 -1.92,-0.01 -0.77,-0.78 0,-1.92 -1.54,-2.69 -7.3,-3.12 -2.31,-0.01 -2.69,-1.55 -3.08,-3.09 0,-4.99 -0.77,-3.46 -3.84,-1.95 -2.31,-3.47 -6.54,-2.72 -5.77,-0.8 -3.84,-3.1 0,0 -0.39,-2.31 1.54,-4.22 0.39,-5.38 -1.92,-4.23 -2.69,-0.79 -1.54,-3.47 0.77,-1.53 1.92,0.39 0.39,-0.76 -0.77,-5.01 1.16,-1.53 0,-3.08 -2.31,-2.7 0,-1.15 1.92,-0.38 1.16,-3.07 0.77,1.16 1.92,0.01 0.39,-1.54 -0.77,-3.46 1.15,-0.77 0.77,-1.53 3.46,-1.9 6.16,-1.51 1.54,3.09 2.69,0.01 0.77,-1.53 -0.38,-1.16 3.07,-0.37 0,-1.15 3.08,0.4 0.77,-0.76 0.77,-3.46 3.08,-1.52 3.84,0.4 1.93,-2.3 -2.69,-0.4 -0.77,-0.77 0.77,-2.69 -1.15,-1.93 -1.16,-0.01 0,-0.77 2.31,-0.75 1.54,-3.07 0,0 3.08,1.94 1.15,0 3.85,2.72 3.84,1.56 7.31,-0.34 1.92,-1.15 1.54,-3.07 2.31,3.09 3.85,0.41 1.54,1.16 3.07,-1.52 2.7,0.02 2.3,0.78 3.08,-0.37 2.31,-3.06 -5,-2.34 -2.3,-3.48 0,-3.08 1.92,-3.45 1.16,-5.39 -2.31,-1.17 -1.92,-0.01 -0.77,-1.93 -1.16,0.76 -2.69,-2.32 0.77,-2.69 -1.92,-1.94 0,-2.7 0.39,-0.38 1.53,0.78 6.54,5.04 1.15,0.01 1.16,-2.69 1.54,-1.15 0.38,-2.31 1.93,-2.68 0,-3.09 z"
     title="Santiago"
     id="DO-25" />
  <path
     d="m 127.51609,88.37093 1.18,-0.4 -0.4,-3.06 1.92,-0.38 -0.39,1.93 5,3.88 0,1.92 0.77,0.01 1.16,-1.92 1.53,0.01 1.54,1.16 2.31,0.01 5.39,-2.66 1.54,-1.92 2.3,0.4 1.56,-2.31 1.14,-0.37 4.62,4.67 4.61,0 3.07,2.72 2.31,-0.38 1.93,-3.84 6.15,2.35 0,0 0,4.62 1.54,1.55 0.38,4.62 0.77,0.78 1.92,0.01 2.31,1.17 2.69,0.01 5,3.11 3.08,0.02 2.69,-0.76 3.08,0.41 0,0 -1.54,3.07 -2.31,0.75 0,0.77 1.16,0.01 1.15,1.93 -0.77,2.69 0.77,0.77 2.69,0.4 -1.93,2.3 -3.84,-0.4 -3.08,1.52 -0.77,3.46 -0.77,0.76 -3.08,-0.4 0,1.15 -3.07,0.37 0.38,1.16 -0.77,1.53 -2.69,-0.01 -1.54,-3.09 -6.16,1.51 -3.46,1.9 -0.77,1.53 -1.15,0.77 0.77,3.46 -0.39,1.54 -1.92,-0.01 -0.77,-1.16 -1.16,3.07 -1.92,0.38 0,1.15 2.31,2.7 0,3.08 -1.16,1.53 0.77,5.01 -0.39,0.76 -1.92,-0.39 -0.77,1.53 1.54,3.47 2.69,0.79 1.92,4.23 -0.39,5.38 -1.54,4.22 0.39,2.31 0,0 -3.08,-0.79 -3.08,1.14 -5.38,-1.95 -3.46,-0.02 -2.7,1.14 -1.15,-0.78 -1.15,-3.08 -0.77,-0.39 0,0 -2.7,-1.94 -5,-1.56 -4.61,-3.49 -2.31,-0.01 -8.07,-6.2 -0.39,-4.61 -2.69,-3.86 -5,-2.34 -1.92,0.38 -1.92,-0.79 0,0 -0.77,-1.92 -4.23,-3.1 -0.77,-3.85 5.38,1.18 5.77,-1.12 -0.38,-6.16 0.77,-4.99 -0.76,-5.4 0.38,-0.77 2.69,-1.13 1.16,-1.92 0,-3.47 -1.15,-3.85 0,-6.93 2.31,-4.61 5.77,-6.13 z"
     title="Santiago Rodríguez"
     id="DO-26" />
  <path
     d="m 395.56609,272.38093 1.92,-1.14 2.31,0.4 0.38,1.53 3.47,4.62 3.07,6.15 1.15,0.77 4.23,0.79 2.7,-0.75 3.07,0.02 5,4.62 1.54,-0.37 2.31,-1.91 3.85,0.03 1.15,0.77 1.93,0.01 2.3,-3.05 2.7,-0.37 1.53,-1.91 0.01,-2.29 -0.77,-0.78 0.38,-1.14 2.69,0.78 1.54,1.16 2.7,0.01 1.92,1.54 1.54,0.01 4.23,-2.65 2.69,0.39 2.7,-0.75 0,1.15 1.53,1.54 0.39,2.69 3.07,3.84 0.77,2.31 0.77,0.39 1.16,-1.53 1.53,0.01 0.77,0.77 0,0.77 -0.77,-0.01 0.39,5.75 0.76,1.15 3.85,0.02 0.77,3.07 1.15,1.16 -0.38,3.44 1.15,3.07 3.08,-1.9 0.77,-1.52 3.08,-1.52 1.92,-4.2 0,-1.92 4.62,-3.42 2.31,0.78 4.56,-1.45 4.16,0.33 2.06,-1.35 5.15,-1.08 1.55,-3.25 3.86,0 9.06,3.26 0,0 -4.25,5.22 0.77,2.31 1.92,-1.53 0.78,0.39 -0.01,1.92 -1.54,4.2 1.93,2.31 0,1.15 -3.47,5.72 -1.92,4.97 -2.31,1.13 -0.77,1.53 2.69,1.54 1.92,4.99 6.54,3.86 10,0.83 -0.38,3.82 -1.54,-0.01 -0.39,0.77 0.02,9.89 0,0 -4.21,-1.19 -3.23,-2.63 -1.37,-2.25 -5.08,-3.51 -5.92,-0.25 -2.57,2.07 1.38,7.26 -0.96,1.38 -1.2,0.06 -7.05,-2.25 -2.39,-3.88 -0.42,-4.26 -3.64,-1.82 -3.35,-0.19 -4.72,-1.56 -10.34,-0.81 -6.93,0.37 -2.99,-1.06 -10.46,0.43 0,0 -0.3,-2.36 1.85,-3.46 0,-1.79 -3.17,-2.08 -7.65,1.52 -3.29,1.38 -2.38,-3.17 -2.24,-1.11 -0.66,-2.9 -1.18,-1.8 -2.37,-0.97 -1.72,1.25 -1.19,2.76 0,2.49 -2.76,1.52 1.31,2.35 5.01,3.59 1.32,1.8 0.13,5.53 -2.37,2.48 -0.17,2.24 0,0 -2.73,1.13 -3,-0.69 0,0 1.05,-3.41 -1.54,-1.16 -0.38,-2.29 -1.15,0.37 0.77,-3.05 -0.39,-1.15 -3.08,3.42 -1.92,-0.39 -1.54,-2.31 -1.92,-0.01 -1.54,1.14 0,1.53 -1.15,0.38 0.38,-4.21 -3.07,-0.02 -0.39,-1.15 0,-0.76 3.08,0.02 0.77,-0.76 -1.54,-2.31 -0.38,-2.68 -2.7,-1.93 -1.15,-2.3 -1.15,0.37 0,1.53 -3.08,0.37 -2.31,-0.4 -0.77,-1.53 0.39,-1.53 -0.77,-3.45 -1.15,-1.16 0,-1.91 -1.54,-0.39 -2.31,-4.22 -0.38,-3.07 -1.93,-1.54 0.78,-6.13 1.54,-0.37 1.15,1.54 0.77,0 0.38,-1.53 -1.15,-2.69 -2.69,-3.08 0.39,-3.06 -1.16,-1.92 0,-2.68 -3.46,-5 0,-2.3 0.77,-1.53 z"
     title="Santo Domingo"
     id="DO-32" />
  <path
     d="m 187.56609,41.32093 2.29,1.54 3.46,1.18 7.69,0.81 2.31,1.17 1.54,4.64 4.61,1.95 4.23,0.03 1.93,-1.15 1.92,0.01 4.61,4.65 4.62,2.73 1.54,0.01 0.38,1.92 3.46,3.49 1.54,-0.76 1.92,1.94 1.54,0.39 8.47,0.44 0,0 -1.16,5.38 0,3.09 -1.93,2.68 -0.38,2.31 -1.54,1.15 -1.16,2.69 -1.15,-0.01 -6.54,-5.04 -1.53,-0.78 -0.39,0.38 0,2.7 1.92,1.94 -0.77,2.69 2.69,2.32 1.16,-0.76 0.77,1.93 1.92,0.01 2.31,1.17 -1.16,5.39 -1.92,3.45 0,3.08 2.3,3.48 5,2.34 -2.31,3.06 -3.08,0.37 -2.3,-0.78 -2.7,-0.02 -3.07,1.52 -1.54,-1.16 -3.85,-0.41 -2.31,-3.09 -1.54,3.07 -1.92,1.15 -7.31,0.34 -3.84,-1.56 -3.85,-2.72 -1.15,0 -3.08,-1.94 0,0 -3.08,-0.41 -2.69,0.76 -3.08,-0.02 -5,-3.11 -2.69,-0.01 -2.31,-1.17 -1.92,-0.01 -0.77,-0.78 -0.38,-4.62 -1.54,-1.55 0,-4.62 0,0 1.55,-3.08 1.53,-1.14 0,-1.93 0.77,-1.53 -0.38,-5.03 -2.69,-6.16 0.77,-2.31 3.47,0.81 1.14,-1.17 0.77,1.17 0.78,0 0,-6.19 -1.92,-4.63 0,-1.54 0.78,-1.15 0,-3.48 1.91,-1.91 z"
     title="Valverde"
     id="DO-27" />
</svg>
