<?xml version="1.0" encoding="UTF-8" standalone="no"?>
<!-- Created for MapSVG plugin: http://mapsvg.com -->
<svg
   xmlns:mapsvg="http://mapsvg.com"
   xmlns:dc="http://purl.org/dc/elements/1.1/"
   xmlns:rdf="http://www.w3.org/1999/02/22-rdf-syntax-ns#"
   xmlns:svg="http://www.w3.org/2000/svg"
   xmlns="http://www.w3.org/2000/svg"
   mapsvg:geoViewBox="-91.664866 1.438762 -75.190072 -4.989512"
   width="792.75824"
   height="307.7699">
 
  <path
     d="m 587.68145,188.54874 1.41,-0.57 1.62,-0.06 0.9,0.38 0.1,0.27 0.81,-0.12 2.74,0.71 1.78,2.02 0.47,3.45 -0.19,0.78 -0.4,0.35 0.59,2.02 2.26,1.42 3.07,-0.39 0.26,0.16 1.54,0.11 0.95,-1.3 1.07,-1.07 0.84,0.83 1.54,2.73 1.07,0.6 0.59,1.54 0.12,1.31 0.72,0.83 1.06,0.36 1.43,-0.36 2.62,-0.24 0.13,-1.65 0.13,-0.03 1,-0.93 0.75,-2.06 1.25,-1.35 1.15,-0.72 1.2,-0.41 1.34,-0.21 1.39,-0.36 0.42,-0.26 0.39,-2.24 1.06,-1.3 0.66,0.04 -0.01,-0.17 1.78,-0.62 -0.17,1.82 0.36,1.3 1.19,0 1.42,-1.19 0.32,-0.83 0,0 0.51,0.24 0,0 1.31,0.12 1.43,0.83 0.12,1.19 -0.24,1.07 -1.07,0.24 -0.73,0.03 -0.34,0.5 -1.43,-0.18 -2.73,0.83 -1.19,0.84 -0.83,0.95 -0.36,1.54 0.24,1.55 0.25,0.02 0.7,0.79 -0.24,1.56 -0.59,1.07 -1.42,1.07 -0.84,1.31 -0.23,1.54 0,3.21 -0.48,2.14 -0.95,1.31 -1.31,0.83 -2.49,0.48 -1.55,1.3 -0.95,2.02 -1.19,2.38 -2.97,0.83 -1.78,1.31 -0.71,-0.12 -0.24,2.02 0,0 -1.66,0.95 0,0 -1.79,1.43 -1.66,1.42 0.36,1.31 0.39,1.09 -0.03,0.29 -0.84,0.94 -0.59,2.02 0.83,2.85 -0.71,0.95 -1.11,0.28 0,0 -0.14,-0.14 0,0 -0.77,-0.14 -1.19,-0.95 -0.6,-3.45 -0.59,-1.42 -1.19,-1.19 -0.6,-0.35 -0.43,0.36 -2.48,1.55 -0.88,-0.62 -0.79,-1.72 -0.23,-1.03 0.01,-1 -0.08,-2.3 -2.15,-0.79 -4.46,-0.1 -1.36,-0.28 0,0 -3.57,-0.39 0,0 -1.25,-0.06 -0.02,-0.16 -0.96,0 -1.07,-0.6 -0.35,-2.26 0.47,-0.35 0.95,-1.55 0.6,-0.71 0.04,-1.12 -0.04,-1.61 -1.31,-0.72 -1.27,0 -4.08,-1.24 0,0 -1.51,-1.87 0.31,-0.83 0,0 0.83,0.66 0.6,-1.53 1.22,-2.73 0.59,0 0.87,-1.62 0.76,-2.51 1.75,-3.51 2.01,-3.77 3.01,-5.27 1.76,-1.25 1.5,-1 0,-3.28 0,0 z"
     title="Azuay"
     id="EC-A" />
  <path
     d="m 596.06145,126.32874 0.71,0.13 0.62,-0.08 0.84,-0.79 1.3,-0.95 1.55,-0.48 2.02,-0.23 2.26,0.12 0.6,0.98 0.11,0.05 1.02,0.85 2.19,0.43 2.73,-0.23 0.95,-1.67 3.21,0.24 0.75,0.5 0,0 -1.86,1.06 0,0 -0.09,1.01 -0.07,1.62 -0.8,2.16 -0.89,1.01 -0.88,0.68 0.81,2.52 0.11,0.1 0.19,1.1 0.47,1.19 1.19,1.67 0.55,0.2 0,0.22 0.12,0.8 0,0 0.03,0.15 -0.34,0.59 -0.83,1.9 -0.6,1.66 0,1.19 1.66,0.24 0.6,1.18 -0.24,1.55 -1.07,-0.12 0,1.07 0.1,0.73 -0.14,0.1 0.28,0.6 -1.19,1.18 -1.07,0.84 -1.53,-0.14 -0.13,0.07 -0.36,-0.17 -2.49,0.83 -0.48,2.97 -0.12,2.97 0.36,3.57 -0.83,1.9 0,3.09 -0.06,1.88 -1.74,1.48 0,0 -1.86,1.35 -0.62,-0.79 0,0 0.59,-0.83 0.48,-1.67 -1.55,0.36 0,0 -1.2,-0.11 0.05,-1.3 0,0 -0.06,-0.56 -2.94,-1.48 -1.67,-2.73 -0.95,-2.61 0.71,-2.14 0.71,-0.82 -0.33,-1.36 -0.03,-1.99 -0.19,-1.42 1.03,0 1.19,-0.71 0.24,-0.95 -1.07,-0.12 -0.95,-0.24 -0.72,0 -0.46,-3.38 -2.62,-0.54 -0.24,-1.07 1.19,-0.71 1.25,-0.36 -0.05,-0.24 0.7,-0.11 0.83,-0.95 0.24,-1.79 -0.95,-0.35 -1.4,0 -0.45,-2.46 -0.89,0.08 -1.54,-0.71 -0.24,-0.95 1.19,-0.12 1,-0.82 -0.21,-1 0.28,-0.8 1.19,-0.35 0.59,-3.33 -1.31,-0.48 -0.8,-0.06 0.08,-0.23 -0.51,-0.22 -1.97,0.99 -1.43,-0.12 -0.71,-0.47 0.95,-1.19 1.19,-0.72 0.95,-0.26 0,-0.21 1.07,-1.19 1.54,-0.71 0,0 0.94,-0.68 z"
     title="Bolívar"
     id="EC-B" />
  <path
     d="m 656.99145,28.20874 2.37,2.14 4.64,0.24 1.87,0.34 2.4,-0.93 3.93,-0.84 1.65,1.24 0.77,0.53 0.07,0.97 -1.54,1.07 0,1.3 1.23,0.48 2.25,2.36 0,0 -0.95,1.07 -1.53,-0.22 -1.43,1.54 -0.71,2.73 0,0 -2.14,2.74 -1.27,1.72 0,0 -0.46,0.3 -0.75,0.88 0,0 -0.33,0.95 -0.43,2.21 0,0 -1.7,-0.06 -1.36,-0.25 -1.33,-0.5 -1.83,-1.01 -0.98,-1.37 -3.86,-2.24 -2.27,-0.12 -0.25,-0.14 -0.77,-1.74 0.12,-2.26 -0.24,-1.78 -1.66,-2.38 -2.14,-1.78 -1.66,-2.37 -1.55,-1.79 -1.42,-0.4 -0.53,-0.53 -1.68,-0.96 -1.48,0.11 -2.61,-0.47 0,0 -0.67,0 0,0 -1.56,-0.66 -0.1,-0.29 -1.36,-0.3 0,-1.97 -1.27,-0.65 -0.22,-1.65 0.16,-0.64 -0.21,-1.03 -0.12,-3.21 0.8,-0.15 -0.03,-0.27 1.25,-0.77 0.24,-1.66 -0.36,-2.38 0.19,-0.85 0,0 1.17,0.34 2.99,1.94 0.6,2.02 2.35,1.86 1.69,0.87 2.25,0.83 3.21,0.71 1.19,1.43 0.12,0.95 2.71,1.75 2.28,2.17 z"
     title="Carchi"
     id="EC-C" />
  <path
     d="m 692.40145,71.54874 4.22,1.7 0,0 2.02,-0.15 1.42,0.35 2.26,0.83 1.42,0 1.55,-0.95 1.78,-0.71 2.14,0.24 0,0 1.9,2.14 0,0 0.48,0.47 0.47,1.31 0,0 1.43,1.54 1.07,1.43 0,0 1.78,1.78 0,0 2.02,3.21 0,0 1.54,1.07 0,0 2.38,1.07 0,0 0.71,1.31 0.98,0.85 0.29,-0.21 1.31,-0.14 0.42,0.32 0.33,-0.11 1.07,-0.12 1.07,0.71 0.95,1.07 1.14,1.79 0,0 3.82,1.17 0,0 1.22,0.67 1.66,0 1.31,-1.07 0,0 1.52,-1.62 8.93,-0.21 0.91,-0.07 0.95,1.78 0.53,1.37 0,0 1.73,0.91 0.41,0.15 0.06,1.25 0,0 2.62,0.36 1.54,0.36 0,0 0,-1.07 -0.85,-0.53 0,0 -0.05,-1.46 0.12,-3.96 0,0 0.95,-0.23 1.42,0.12 2.03,0.59 1.06,0.83 0.82,0.71 0.78,-0.23 4.86,0 3.7,0.72 0,0 2.2,2.19 0,0 0.2,0.08 0.47,1.28 1.9,0.48 0,0 3.44,0.12 1.63,-0.07 0,0 0.37,1.09 0,0 5.51,2.25 0.88,2.2 -1.09,1 1.19,0.96 0.12,1.9 0.71,0.71 0,1.78 1.19,0.48 -0.24,4.63 1.19,1.66 -6.3,0 -0.95,-1.3 -1.42,0.35 0,3.21 -1.07,1.9 -0.95,2.74 -2.14,6.65 -2.26,7.96 -2.3,4.15 -0.49,1.25 -1.13,0.73 0.13,-1.37 0,-1.67 -1.9,0 -1.02,0.48 -0.41,-0.13 -3.17,-1.92 -0.31,-1.7 -1.19,-1.3 -1.66,-0.24 -1.65,0.22 -0.1,-0.99 -0.95,-0.95 -2.26,-1.07 -0.67,0.72 -0.43,-0.26 -8.36,-2.52 -2.63,-0.68 -5.48,0.71 -2.09,0.7 -3.13,-0.57 -0.73,-1.55 -0.72,-0.71 -1.9,0.35 -0.98,0 -1.07,-1.01 -2.14,-1.07 -0.86,-1.15 0,-2.34 0.73,-1.44 0.23,-1.54 -0.59,-1.07 -2.73,-0.24 -1.37,-0.91 -2.9,0.62 -3.51,1.26 -2.01,0.5 -2.51,0.25 -0.5,3.26 -2.01,-0.25 -2.26,-2.51 -2.5,0.25 -1.01,-1.25 -2.92,0.32 -0.09,-1.07 -0.77,-1.1 -0.74,-0.03 -0.5,-1.63 2.26,0.25 2.01,-1.01 -2.76,-2.25 2.26,-1.01 0,-1.25 -4.52,-0.25 -1.51,-1.01 -1.75,-0.5 0,-2.01 1.5,-1.25 2.51,-2.26 0,-2.51 -2.26,0 -1.75,1.76 -4.27,4.76 -2,0.51 -3.02,1.75 -3.01,0.51 -1,1.5 -1.76,0.75 -3.76,-0.25 0.75,-2 1.51,-1.76 0.5,-2.76 -0.75,-2.01 2,-1.76 -0.75,-1.5 -0.75,-3.01 -1,-1.26 -1.76,-0.25 -0.75,-1.75 -1.51,-1.01 1.51,-1.25 1.25,0 0,-2.26 2.01,-0.25 1.25,1.5 2.26,0.26 0,0.75 2.26,-0.5 0.5,-1.26 1.76,0 0.75,-2.51 1.25,0 0,-2.76 2.01,-1.75 2.26,-1.51 -1.25,-1 0,-3.26 -0.76,-2.51 -0.24,-2.28 0,0 0.28,-0.32 0.81,-1.43 0,0 z"
     title="Orellana"
     id="EC-D" />
  <path
     d="m 634.17145,12.50874 -0.19,0.85 0.36,2.38 -0.24,1.66 -1.25,0.77 0.03,0.27 -0.8,0.15 0.12,3.21 0.21,1.03 -0.16,0.64 0.22,1.65 1.27,0.65 0,1.97 1.36,0.3 0.1,0.29 1.56,0.66 0,0 -0.16,0 0,0 0.23,0.95 0.24,0.59 0,1.07 -0.91,-0.05 0.01,0.12 -0.64,-0.07 -1.19,0.71 -0.12,0.83 0,2.5 1.78,0.68 0.95,0.75 1.19,1.66 0,1.54 -0.95,1.67 -0.47,0.71 -1.31,0.59 -0.72,0.48 -0.93,0 -0.24,0.27 -1.44,-0.21 -0.27,2.17 -4.36,5 -0.94,0.65 -1.5,0.15 -0.93,-0.56 -0.97,-1.39 -2.84,0.31 -0.9,0.98 -0.84,1.07 -2.25,-0.24 -2.5,0 -1.17,-0.25 -0.54,0.26 -1.41,0.35 -1.16,1.06 -2.49,-0.11 0,0 -2.85,0.23 -1.36,0.36 -1.47,-0.52 0,0 -3.08,-0.7 -1.58,0.51 -0.24,2.02 -0.71,0.71 -0.83,0.71 -1.31,0 0.12,2.26 1.07,0.83 0.59,0.6 -0.95,2.37 -1.5,2.2 -0.12,3.1 0,0 -1.56,-0.45 0,0 -1.26,1.26 -0.5,1.25 -5.27,0 -2.26,-0.75 -1.27,-0.53 0,0 -0.04,-0.85 0,0 0.24,-1.9 1.48,-1.98 -1.01,-0.22 -0.28,-0.21 0.06,-0.68 -0.84,-0.71 -1.96,0.07 -1.7,-0.79 -0.69,-0.69 -0.11,-0.15 1.14,-1.89 0.24,-0.83 0.47,0 -0.24,-1.78 -1.19,-0.48 -0.71,-0.35 0,-1.19 0.48,-0.95 -0.12,-0.72 -0.95,-1.66 -1.55,-0.24 -0.83,0 -1.02,2.89 -0.17,-0.12 0,0.56 -1.54,0.83 -1.78,0 -1.32,-0.06 -0.92,0.86 -0.56,1.44 -1.44,0.58 -0.95,-0.47 -0.65,-1 -1.1,-2.7 -0.17,-0.72 0,0 0.22,-0.27 0.27,-1.13 -1.62,-0.75 -0.31,-2.01 -0.4,-0.93 0.95,-1.57 0.83,-2.14 0.12,-1.43 0,-1.54 -1.64,-1.4 -0.68,-0.95 -1.01,-0.38 -1.19,-1.67 0.72,-2.37 0.24,-1.43 1.42,-1.9 2.02,-0.12 2.97,0.47 2.85,-1.78 2.5,-1.07 1.78,-0.59 0.83,-1.55 1.19,-1.18 1.66,-0.95 2.74,-1.07 2.12,-1.24 1.81,0.18 1.43,-0.24 1.67,-1.2 2.62,-0.95 2.49,-1.19 4.04,-0.12 1.78,-0.47 1.65,-0.22 2.25,-0.18 1.57,0.28 1.31,-0.36 1.54,-1.19 2.45,-1.78 0.36,-2.26 3.09,-2.6100005 2.97,-2.14 2.66,-2.15 2.18,-4.33 0.93,-0.42 4.21,2.27 2.73,3.8 1,1.54 1.31,1.07 1.24,0.62 3.34,2.3500005 z"
     title="Esmeraldas"
     id="EC-E" />
  <path
     d="m 602.77145,173.76874 1.96,4.07 1.09,1.41 0.98,0.91 2.63,1.93 0.67,0.43 0.53,0.77 1.93,-0.16 3.86,0 0.98,-0.32 1.24,-0.61 0.02,0.47 1.42,-0.79 1.26,-2.01 1,0 0.75,1.26 2.26,0.25 1.01,-2.26 1.5,0 1,0.75 2.01,0 0,0 -0.18,0.25 0,0 2.47,2.45 0.3,1.1 -0.18,1.39 0.48,1.55 -0.36,3.44 -0.24,1.43 -0.95,0.47 -0.33,0.95 0,0 0.53,0.24 0,0 -0.32,0.83 -1.42,1.19 -1.19,0 -0.36,-1.3 0.17,-1.82 -1.78,0.62 0.01,0.17 -0.66,-0.04 -1.06,1.3 -0.39,2.24 -0.42,0.26 -1.39,0.36 -1.34,0.21 -1.2,0.41 -1.15,0.72 -1.25,1.35 -0.75,2.06 -1,0.93 -0.13,0.03 -0.13,1.65 -2.62,0.24 -1.43,0.36 -1.06,-0.36 -0.72,-0.83 -0.12,-1.31 -0.59,-1.54 -1.07,-0.6 -1.54,-2.73 -0.84,-0.83 -1.07,1.07 -0.95,1.3 -1.54,-0.11 -0.26,-0.16 -3.07,0.39 -2.26,-1.42 -0.59,-2.02 0.4,-0.35 0.19,-0.78 -0.47,-3.45 -1.78,-2.02 -2.74,-0.71 -0.81,0.12 -0.1,-0.27 -0.9,-0.38 -1.62,0.06 -1.41,0.57 0,0 -1.11,0.17 0,0 -1.29,0.8 -1.19,-0.48 -0.72,-1.07 1.43,-1.06 1.19,-1.07 1.42,-1.55 0.6,-2.38 0.59,-1.3 1.31,-0.24 0.83,0.36 0.83,0.07 1.91,-1.42 1.18,0.04 2.85,-0.36 2.74,0 1.07,-1.78 0.95,-1.9 0,0 0.19,-1.52 z"
     title="Cañar"
     id="EC-F" />
  <path
     d="m 555.16145,213.00874 -3.37,0.95 -0.87,0.09 -1.22,1.66 -4.04,-0.36 -1.9,-2.26 -1.54,-2.73 -0.24,-2.26 1.19,0.12 2.02,2.02 1.07,2.26 1.69,0.52 0.39,-7.86 0.15,-0.52 0.19,-0.48 2.4,-4.97 5.9,-2.5 2.26,-0.49 0.89,-0.07 2.76,1.75 2.87,1.12 -0.01,1.5 -1.07,1.54 -2.85,0.48 -5.58,7.57 -0.56,2.2 -0.53,0.72 z m 26.28,-103.53 4.91,-0.17 -0.48,2.02 -0.51,0.89 -0.04,0.18 0.31,0.18 0.47,1.9 0.12,1.43 -1.19,1.19 -0.87,0.1 -0.4,1.64 -2.47,0.94 -4.46,2.69 -0.91,0.72 -1.66,1.9 -0.39,0.92 -0.56,2.43 -0.27,0.94 -0.36,0.96 -1.17,1.53 -1.3,1.15 -1.32,1.27 -0.61,0.85 -0.48,1.45 -0.16,1.75 0.08,1.39 0.46,4.73 0.13,0.36 -0.63,1.12 0,1.31 0.83,0.95 0.48,2.14 0.71,0.59 2.61,0.36 0.36,1.54 1.19,1.66 0.36,2.02 1.07,1.19 2.26,2.26 1.54,0.12 0.49,-0.63 0.14,0.06 0.56,-0.5 1.78,-0.83 2.14,0.12 0.5,0.72 0.65,-0.11 1.48,0.58 3.23,2.65 1.81,2.01 0.92,1.43 0.67,1.45 0.63,0.98 1.42,1.27 0.25,0.15 0.58,-1.16 0.59,0 0.95,1.07 1.54,1.07 0.12,0.97 0,0 1.36,0.66 0.28,-0.66 0.11,-0.18 0.14,-0.97 1.2,0.06 0,0 1.54,-0.36 -0.47,1.66 -0.59,0.83 0,0 0.6,0.81 -0.4,0.32 -0.5,0.24 -0.31,0.08 -0.23,1.51 0,0 -0.95,1.9 -1.07,1.78 -2.73,0 -2.85,0.36 -1.18,-0.04 -1.91,1.42 -0.83,-0.08 -0.83,-0.36 -1.31,0.24 -0.59,1.31 -0.59,2.38 -1.43,1.54 -1.19,1.07 -1.43,1.07 0.71,1.07 1.19,0.48 1.29,-0.8 0,0 0.64,-0.08 0,0 0,3.28 -1.5,1 -1.76,1.25 -3.01,5.27 -2.01,3.76 -1.76,3.51 -0.75,2.51 -0.87,1.62 -0.59,0 -1.22,2.73 -0.6,1.53 -0.83,-0.67 0,0 -0.33,0.82 -5.51,-0.23 0,0 -0.19,0.09 0,0 0.39,-0.97 0.31,-0.96 0.87,-5.06 1.35,-5.25 2.43,-6.88 0.55,-0.78 1.07,-0.65 -2.85,-0.12 0.83,-3.68 -1.19,-0.59 -0.71,5.23 -3.09,-0.12 0.59,-2.61 0.59,-2.26 -1.05,-0.42 -0.75,1.24 -1.23,1.07 -0.66,3.1 -3.09,-0.59 -2.38,-1.19 -0.29,-1.72 1.72,-7.02 1.13,-3.21 1.39,-0.54 1,-1.51 -3.35,1.24 -1.63,3.36 -0.7,1.95 -1.51,2.85 -3.29,3.57 -2.1,1.86 -1.53,1.2 -0.15,3.91 -1.84,-0.25 -1,-0.33 -2.95,-2.97 -3.19,-0.73 -6.23,-6.29 -0.75,-0.93 0,0 2.79,-3.18 2.26,-0.5 1,-0.75 2.26,-3.01 3.51,-0.5 3.26,-0.75 1.25,-0.75 1,-3.51 1,-2.26 -1.76,-2.01 -0.25,-3.76 -0.75,-0.25 -2.26,-0.5 -0.5,-2.26 -2.26,-1.76 -2.26,-0.75 -2.26,-0.5 -1,-2.76 -0.75,-1.51 -0.25,-2.26 0,-4.77 0,0 1.76,0 0,0 3.26,-0.75 2.01,1.61 0.14,0.01 0.56,-0.56 0.95,-0.71 1.19,0.71 1.66,0.36 0.24,-0.83 2.02,-0.12 0,-2.02 -1.31,-1.07 -1.54,-1.66 -0.24,-1.07 2.26,0.24 2.14,-0.95 0.83,-0.48 -0.12,-0.83 -1.19,-1.31 -0.12,-0.83 0.24,-1.43 0.95,-2.02 1.43,-0.12 0.12,-3.45 0.91,0 0.04,-0.19 0.43,-1.02 1.35,0.26 2.02,-2.14 0.83,-0.59 0.61,-1.21 1.69,-0.71 0.08,-0.57 0.12,-2.02 1.19,-0.59 0.71,0.48 0.95,-0.12 0.48,-0.48 0.67,-0.18 0.18,-0.45 1.41,-0.74 0.83,-1.07 0.12,-1.19 0.95,-0.59 0.95,0 0.24,-2.38 1.54,-0.83 0.71,-1.07 0.06,-1.51 0.32,-0.17 0.93,-2.37 0.83,0 0.24,0.59 1.73,0.32 1.46,-0.34 0.42,-0.77 0.72,0.07 1.5,-0.95 0,0 -0.04,-0.47 z"
     title="Guayas"
     id="EC-G" />
  <path
     d="m 615.77145,140.53874 0.64,-0.51 0.83,-1.43 0.83,-1.07 1.07,-0.12 1.36,-0.06 0.84,0.73 0.77,1.35 1.19,0.95 1.31,0 0.82,-1.02 0.85,0.02 1.45,-0.06 1.68,-0.19 1.46,0.19 2.06,0.84 1.45,-0.15 0.84,-0.27 1.42,0.99 2.01,0.75 1.69,0.42 0,0 0.07,1.46 0,0 0.09,2.54 -0.87,1.68 -0.64,1 -1.19,0.36 -1.9,1.9 -1.07,1.43 1.3,1.54 1.19,1.55 0.24,2.25 -2.38,3.69 -2.14,1.9 0.36,0.71 1.54,0.83 1.31,0.36 -0.59,1.66 0.12,1.79 0.12,1.18 -1.67,0.72 -2.14,0.35 0.48,1.19 1.07,1.55 0.12,2.25 -1.55,0.84 0.4,1.34 -1.56,1.66 0,0 -0.18,0.24 0,0 -2.01,0 -1,-0.75 -1.5,0 -1.01,2.26 -2.26,-0.25 -0.75,-1.26 -1,0 -1.26,2.01 -1.42,0.79 -0.02,-0.47 -1.24,0.61 -0.98,0.32 -3.86,0 -1.93,0.16 -0.53,-0.77 -0.67,-0.43 -2.63,-1.93 -0.98,-0.91 -1.09,-1.41 -1.96,-4.07 0,0 0.47,-0.22 2.34,-1.7 0,0 1.74,-1.48 0.06,-1.88 0,-3.09 0.83,-1.9 -0.36,-3.57 0.12,-2.97 0.48,-2.97 2.49,-0.83 0.36,0.17 0.13,-0.07 1.53,0.14 1.07,-0.84 1.19,-1.18 -0.28,-0.6 0.14,-0.1 -0.1,-0.73 0,-1.07 1.07,0.12 0.24,-1.55 -0.6,-1.18 -1.66,-0.24 0,-1.19 0.6,-1.66 0.83,-1.9 0.34,-0.59 z"
     title="Chimborazo"
     id="EC-H" />
  <path
     d="m 666.63145,51.02874 -0.78,1.98 -1.33,0.63 -0.24,1.9 0,1.48 -0.42,1.09 -1.72,0.64 -1.78,1.19 -0.48,1.17 0,0 -0.33,0.03 0,0 -0.97,-1.08 -0.95,-0.36 -2.5,0 -0.95,0.6 -1.9,0.71 -1.31,0.36 -0.46,0.83 -3.85,0.59 -1.09,0.06 -0.22,-0.03 -1.15,-1.51 0,-1.31 -0.47,-2.02 -1.19,1.66 -0.48,0.6 -1.63,0.35 -1.26,-1.92 -0.81,-1.06 -0.9,-0.35 -1.63,0.03 -2.05,0.28 -2.43,0.28 -4.39,0.36 -2.35,-0.07 -1.12,-0.52 -1.53,-0.1 -3,0 -6.04,0.44 -0.56,-0.46 -2.26,-0.47 -0.83,-0.83 -0.12,-0.95 -2.26,-0.72 -0.42,-1.26 0,0 0.54,-0.04 0,0 2.49,0.11 1.16,-1.06 1.41,-0.35 0.54,-0.26 1.17,0.25 2.5,0 2.25,0.24 0.84,-1.07 0.9,-0.98 2.84,-0.31 0.97,1.39 0.93,0.56 1.5,-0.15 0.94,-0.65 4.36,-5 0.27,-2.17 1.44,0.21 0.24,-0.27 0.93,0 0.72,-0.48 1.31,-0.59 0.47,-0.71 0.95,-1.67 0,-1.54 -1.19,-1.66 -0.95,-0.75 -1.78,-0.68 0,-2.5 0.12,-0.83 1.19,-0.71 0.64,0.07 -0.01,-0.12 0.91,0.05 0,-1.07 -0.24,-0.59 -0.23,-0.95 0,0 0.83,0 0,0 2.61,0.47 1.48,-0.11 1.68,0.96 0.53,0.53 1.42,0.4 1.55,1.79 1.66,2.37 2.14,1.78 1.66,2.38 0.24,1.78 -0.12,2.26 0.77,1.74 0.25,0.14 2.27,0.12 3.86,2.24 0.98,1.37 1.83,1.01 1.33,0.5 1.36,0.25 z"
     title="Imbabura"
     id="EC-I" />
  <path
     d="m 603.43145,241.60874 -0.33,0.55 -0.59,0.83 -1.43,0.24 -1.19,1.42 -0.47,0.95 0,1.79 0.59,1.54 0.5,0.25 0.38,1.15 0.94,1.1 0.08,1.72 -0.12,2.5 -0.35,3.44 0,3.21 -0.48,1.54 -0.24,1.79 0.72,1.3 1.3,1.79 0,3.44 0.12,5.94 -0.83,1.55 -3.21,3.33 -0.51,0.77 -0.43,-0.04 -0.79,-0.35 -0.29,-0.86 -1.66,-0.12 -1.43,0.48 -1.42,1.19 -0.24,2.61 -0.71,1.78 -1.31,1.55 -1.19,2.02 0,1.07 -2.03,0.3 0,0 -0.5,-2.74 -1.91,-0.77 -0.21,-1.88 0.46,-1.51 -0.36,-1.78 -1.9,0.35 -1.43,-1.18 -1.66,-2.28 -1.05,-0.58 -1.2,-0.06 -1.79,1.09 -3.77,1.2 -1.53,-0.15 -2.66,-1.72 -1.67,-2.49 -1.9,-0.48 -2.53,-0.38 -1.32,-0.87 -2.53,-2.62 -2.73,-0.75 -1.92,0.67 -0.58,1.09 -1.91,2.07 -1.73,1.58 -3.46,2.63 -1.17,0.63 -1.54,0.63 -0.92,-0.34 -2.6,-1.43 -0.25,-1.13 -0.53,-1.42 2.35,-3.5 1.54,-1.61 0.78,-0.88 2.05,-3.06 -2.05,-0.14 -1.33,0.63 -1.68,0.54 -0.91,-0.65 -0.78,-1.6 -0.14,-2.86 -0.85,-2.83 -0.02,-0.24 1.74,-3.11 2.17,-0.35 1.5,0.05 2.09,0.92 1.29,0.64 1.28,-0.74 2.31,-3.43 3.31,-1.03 1.06,-0.9 0,0 2.76,-0.55 1.07,-0.29 2.71,-0.98 0.55,-0.23 0.46,-0.66 1.67,-0.71 1.66,-0.36 2.5,-0.12 1.78,0.48 1.54,0.59 0.52,0.78 0.92,-0.05 1.8,-0.35 0.45,-1.33 0.95,-1.07 0.59,-1.07 0.59,-0.59 1.79,-0.48 1.42,-0.11 0.6,0.59 0.18,0.75 1.2,0.99 0.64,-0.31 1.42,-0.24 1.67,0.35 2.25,0.12 0.72,0.12 0.95,-1.07 -0.12,-1.42 0.12,-1.9 0.71,-1.67 0.4,-0.36 0.67,-0.11 0.48,-0.95 -0.72,-0.95 -0.71,-1.55 -0.71,-1.07 -1.07,-0.24 -0.88,0.81 -0.37,-0.55 -0.21,-0.81 -0.56,-0.28 -0.36,-1.3 0.6,-0.84 1.52,-0.93 0.12,-1.45 -0.25,-1.01 -0.44,-0.17 -0.95,0.12 -0.6,-2.26 -1.07,-1.43 -0.46,-0.69 0,0 1.15,0.12 0,0 1.36,0.28 4.46,0.1 2.15,0.79 0.08,2.3 -0.01,1 0.23,1.03 0.79,1.72 0.88,0.62 2.48,-1.55 0.43,-0.36 0.6,0.35 1.19,1.19 0.59,1.42 0.6,3.45 1.19,0.95 0.77,0.14 0,0 z"
     title="Loja"
     id="EC-L" />
  <path
     d="m 581.47145,109.96874 -1.5,0.94 -0.71,-0.07 -0.42,0.77 -1.46,0.34 -1.73,-0.32 -0.24,-0.6 -0.83,0 -0.93,2.37 -0.32,0.17 -0.06,1.5 -0.71,1.07 -1.54,0.84 -0.24,2.37 -0.95,0 -0.95,0.6 -0.12,1.18 -0.83,1.07 -1.41,0.74 -0.18,0.45 -0.67,0.18 -0.48,0.48 -0.95,0.11 -0.71,-0.47 -1.19,0.59 -0.12,2.02 -0.08,0.57 -1.69,0.72 -0.6,1.21 -0.83,0.59 -2.03,2.14 -1.35,-0.26 -0.43,1.03 -0.04,0.18 -0.91,0 -0.12,3.45 -1.42,0.12 -0.95,2.02 -0.24,1.42 0.12,0.83 1.19,1.31 0.11,0.83 -0.83,0.48 -2.14,0.95 -2.25,-0.24 0.23,1.07 1.55,1.67 1.31,1.06 0,2.02 -2.02,0.12 -0.24,0.84 -1.66,-0.36 -1.19,-0.71 -0.95,0.71 -0.57,0.56 -0.13,-0.01 -2.01,-1.61 -3.26,0.75 0,0 -2.01,0 0,0 -2.76,0 0.04,-0.32 0.12,-0.08 -0.24,-1.19 -1.07,-0.36 -1.66,0 -0.7,0.76 -0.58,-0.1 -6.31,-0.06 -0.95,0.17 -1.01,0.51 0,0 -1.32,-2.82 -0.35,-1.14 0.43,-1.65 1.18,-2.96 1.49,-0.79 0.95,-0.71 1.43,-5.82 -3.3,-4.69 -2.28,-1.73 -1.59,-3.59 -1.2,-3.72 0.1,-1.01 4.71,-4.75 3.07,-0.8 1.91,0.39 4.45,-0.06 2.92,-1.31 1.55,-3.57 0.59,-3.33 1.07,-2.13 0.72,-2.26 2.01,-3.21 1.58,-1.24 -0.99,-1.64 -2.49,-3.89 -0.23,-3.09 4.04,-3.69 0.71,-2.97 1.31,-1.25 1.78,-1.3 1.19,-0.72 1.66,-0.71 1.43,-0.95 4.22,-5.52 1.25,-1.5 2.09,-2.89 1.14,-3.35 0.56,-1.47 0.48,-1.43 0,-1.9 0.24,-1.55 -0.24,-1.78 0,-2.49 1.01,0.48 0,0 0.17,0.72 1.1,2.7 0.65,1 0.95,0.47 1.44,-0.58 0.56,-1.44 0.92,-0.86 1.32,0.06 1.78,0 1.54,-0.83 0,-0.56 0.17,0.12 1.02,-2.89 0.83,0 1.55,0.24 0.95,1.66 0.12,0.72 -0.48,0.95 0,1.19 0.71,0.35 1.19,0.48 0.24,1.78 -0.47,0 -0.24,0.83 -1.14,1.89 0.11,0.15 0.69,0.69 1.7,0.79 1.96,-0.07 0.84,0.71 -0.06,0.68 0.28,0.21 1.01,0.22 -1.48,1.98 -0.24,1.9 0,0 0.12,2.73 0,0 0.47,3.21 1.12,2.79 2.1,0.66 2.02,0.12 2.38,0 0.83,0.59 0.72,1.31 -0.12,2.14 0.23,3.09 0.24,3.8 -1.66,0.83 -1.88,3.99 -0.84,1.65 -0.48,0.51 0,0 0.99,-0.03 0,0 -0.52,3.68 -1.07,0.72 -1.03,0.56 -0.49,1.12 0.33,2.36 -0.83,0 -0.58,-0.46 -0.95,0.57 -0.61,1.56 0,0 z"
     title=" Manabí"
     id="EC-M" />
  <path
     d="m 668.32145,67.65874 0.48,5.23 1.66,-0.71 1.67,0.83 2.73,-0.24 2.49,0.48 1.67,0 0.33,-0.51 0.26,-0.68 0.95,-0.59 1.07,-0.12 0.24,-0.36 0.12,-0.83 0.83,-0.48 1.19,0.12 0.35,1.67 0.84,0.11 0.11,0.6 -1.18,0.71 0.17,1.89 2.64,0.43 0.75,0.65 1.07,-0.35 1.43,-1.19 0,0 0.91,-1.1 0.24,2.27 0.76,2.51 0,3.26 1.25,1.01 -2.26,1.5 -2.01,1.76 0,2.76 -1.25,0 -0.75,2.51 -1.76,0 -0.5,1.25 -2.26,0.5 0,-0.75 -2.26,-0.25 -1.25,-1.51 -2.01,0.25 0,2.26 -1.25,0 -1.51,1.26 1.51,1 0.75,1.76 1.76,0.25 1,1.25 0.75,3.01 0.75,1.51 -2,1.76 0.75,2 -0.5,2.76 -1.51,1.76 -0.75,2.01 3.76,0.25 1.76,-0.75 1,-1.51 3.01,-0.5 3.02,-1.76 2,-0.5 4.27,-4.77 1.75,-1.75 2.26,0 0,2.5 -2.51,2.26 -1.5,1.26 0,2.01 1.75,0.5 1.51,1 4.52,0.25 0,1.26 -2.26,1 2.76,2.26 -2.01,1 -2.26,-0.25 0.5,1.63 0.74,0.04 0.77,1.09 0.09,1.08 -1.6,0.18 0,0 -4.26,0 -2.26,0.75 -2.51,0.25 -1.84,-0.57 0,0 0.08,0.7 0,0 -0.26,-0.07 -3.25,0.69 -3.51,0.25 -2.01,1.01 -4.77,0.5 -5.26,1.76 -4.27,1.5 -0.54,-1.38 -0.99,-0.34 -1.54,0 -0.12,0.95 -0.52,-0.07 0.2,3.6 -11.64,-0.79 0,0 0.03,-0.36 0,0 -0.16,-1.06 0.15,0.02 -0.14,-0.8 -0.72,-1.67 -0.71,-1.31 -1.55,-0.71 -2.61,0.24 -2.38,-0.12 -0.55,0.04 0.09,-1.82 0.12,-1.55 -0.12,-2.02 -0.95,-1.19 -1.43,-0.71 -1.14,0.13 0,0 -0.11,-0.1 0.18,-1.22 0,0 -0.23,-2.14 -0.55,-2.06 0.17,-0.25 1.21,-0.18 0.35,-1.9 -0.59,-2.38 -0.45,-0.9 0,-0.38 -0.74,-0.74 -0.35,-1.42 0,0 -0.1,-0.12 0,0 0.81,-1.55 1.07,-0.47 0.95,0.14 1.41,-0.38 0.19,-0.24 -0.04,-1.25 0.71,-2.14 2.02,-1.9 0.83,-2.25 0.48,-2.5 -0.72,-2.02 2.34,-2.68 3.92,-8.19 2.47,-0.32 2.74,-0.66 1.52,-0.73 2.86,-2.11 0.3,-2.36 0.95,-0.71 1.12,-0.21 0.26,-0.48 1.24,-0.26 0.71,-0.6 -0.08,-0.97 0,0 z"
     title="Napo"
     id="EC-N" />
  <path
     d="m 573.51145,217.14874 4.08,1.24 1.27,0 1.31,0.72 0.04,1.61 -0.04,1.12 -0.6,0.71 -0.95,1.55 -0.47,0.35 0.35,2.26 1.07,0.6 0.96,0 0.02,0.16 1.25,0.06 0,0 2.42,0.27 0,0 0.46,0.69 1.07,1.43 0.6,2.26 0.95,-0.12 0.44,0.17 0.25,1.01 -0.12,1.45 -1.52,0.93 -0.6,0.84 0.36,1.3 0.56,0.28 0.21,0.81 0.37,0.55 0.88,-0.81 1.07,0.24 0.71,1.07 0.71,1.55 0.72,0.95 -0.48,0.95 -0.67,0.11 -0.4,0.36 -0.71,1.67 -0.12,1.9 0.12,1.42 -0.95,1.07 -0.72,-0.12 -2.25,-0.12 -1.67,-0.35 -1.42,0.24 -0.64,0.31 -1.2,-0.99 -0.18,-0.75 -0.6,-0.59 -1.42,0.11 -1.79,0.48 -0.59,0.59 -0.59,1.07 -0.95,1.07 -0.45,1.33 -1.8,0.35 -0.92,0.05 -0.52,-0.78 -1.54,-0.59 -1.78,-0.48 -2.5,0.12 -1.66,0.36 -1.67,0.71 -0.46,0.66 -0.55,0.23 -2.71,0.98 -1.07,0.29 -2.76,0.55 0,0 -1.12,-1.2 -1.67,-5.74 0.17,-1.05 0.08,-3.86 -0.32,-1.95 -1.07,-4.72 -1.16,-3.82 -3.91,-1.77 0.81,-0.99 1.55,-1.5 1.03,0.49 6.12,-0.19 2.97,-2.73 1.54,-3.44 1.66,-1.55 2.26,-1.78 2.26,-2.23 1.35,-1.46 0,0 0.2,-0.09 0,0 5.5,0.21 z"
     title="El Oro"
     id="EC-O" />
  <path
     d="m 592.79145,67.90874 0.12,-3.1 1.5,-2.2 0.95,-2.37 -0.59,-0.6 -1.07,-0.83 -0.12,-2.26 1.31,0 0.83,-0.71 0.71,-0.71 0.24,-2.02 1.58,-0.51 3.08,0.7 0,0 1.45,0.52 1.38,-0.36 2.31,-0.19 0,0 0.42,1.26 2.26,0.72 0.12,0.95 0.83,0.83 2.26,0.47 0.56,0.46 6.04,-0.44 3,0 1.53,0.1 1.12,0.52 2.35,0.07 4.39,-0.36 2.43,-0.28 2.05,-0.28 1.63,-0.03 0.9,0.35 0.81,1.06 1.26,1.92 1.63,-0.35 0.48,-0.6 1.19,-1.66 0.47,2.02 0,1.31 1.15,1.51 0.22,0.03 1.09,-0.06 3.85,-0.59 0.46,-0.83 1.31,-0.36 1.9,-0.71 0.95,-0.6 2.5,0 0.95,0.36 0.97,1.08 0,0 1.14,-0.06 0,0 2.04,2.12 0.23,0.08 0.97,2.24 1.17,1.27 -0.54,1.18 0,0 1.07,-0.09 0,0 0.08,0.97 -0.71,0.6 -1.24,0.26 -0.26,0.48 -1.12,0.21 -0.95,0.71 -0.3,2.36 -2.86,2.11 -1.52,0.73 -2.74,0.66 -2.47,0.32 -3.92,8.19 -2.34,2.68 0.72,2.02 -0.48,2.5 -0.83,2.25 -2.02,1.9 -0.71,2.14 0.04,1.25 -0.19,0.24 -1.41,0.38 -0.95,-0.14 -1.07,0.47 -0.81,1.55 0,0 -1.33,-1.55 0,0 -0.71,-0.71 -1.79,-0.36 -0.47,-2.26 -0.04,-0.58 -0.26,-0.02 -0.48,0.31 -3.96,0.12 -2.14,1.78 -0.82,0.34 -0.73,0.73 -1.54,0 0.06,-1.48 -0.59,-0.58 -0.18,-2.87 -1.55,-0.48 -1.19,-0.47 -0.97,0.08 -0.23,-0.22 -1.05,-0.4 -0.07,-1.86 -1.33,-2.77 -0.55,-0.88 -1.02,-0.07 -0.07,-1.67 -0.51,-0.81 0.22,-1.03 0,0 -0.96,0 0,-0.74 0,0 4.01,0 2.01,-1 0.75,-1.76 1.26,-0.5 0,-2.26 -2.26,-1.75 -4.52,0 -1.25,-3.52 -6.53,-0.25 -3.01,-0.25 2.01,-2.26 0.25,-1.5 -9.78,0 -3.27,-1.26 0,0 z"
     title="Pichincha"
     id="EC-P" />
  <path
     d="m 599.54145,171.35874 -0.12,-0.97 -1.55,-1.07 -0.95,-1.07 -0.59,0 -0.58,1.16 -0.25,-0.15 -1.42,-1.27 -0.63,-0.99 -0.66,-1.44 -0.92,-1.44 -1.81,-2.01 -3.23,-2.65 -1.48,-0.58 -0.65,0.11 -0.49,-0.72 -2.14,-0.12 -1.79,0.83 -0.56,0.5 -0.13,-0.06 -0.49,0.63 -1.55,-0.12 -2.26,-2.26 -1.06,-1.18 -0.36,-2.02 -1.19,-1.67 -0.36,-1.54 -2.61,-0.36 -0.71,-0.59 -0.48,-2.14 -0.83,-0.95 0,-1.31 0.63,-1.12 -0.13,-0.36 -0.46,-4.73 -0.08,-1.38 0.16,-1.75 0.48,-1.45 0.62,-0.85 1.32,-1.27 1.3,-1.15 1.17,-1.53 0.36,-0.96 0.27,-0.94 0.56,-2.43 0.38,-0.91 1.66,-1.9 0.91,-0.72 4.46,-2.69 2.47,-0.93 0.4,-1.64 0.87,-0.11 1.19,-1.18 -0.12,-1.43 -0.48,-1.9 -0.3,-0.18 0.03,-0.18 0.51,-0.89 0.48,-2.02 -4.91,0.17 0,0 -0.32,-4.14 0,0 0.61,-1.56 0.95,-0.57 0.58,0.46 0.83,0 -0.33,-2.36 0.49,-1.12 1.03,-0.56 1.07,-0.72 0.52,-3.68 0,0 0.23,-0.01 0,0 1.09,0.11 1.48,-0.93 3.45,0.24 0,2.02 -0.6,1.43 0.2,1 -0.17,1.41 0.31,1.23 1.69,0.41 0.55,-0.04 2.4,-1.7 5.72,-4.64 0.96,-0.93 0,0 1.46,1.45 0,0 -1.35,1.92 -0.83,1.78 -0.24,1.55 -0.71,1.31 -1.55,2.02 -0.12,1.66 -1.19,1.54 -1.54,2.38 -1.67,1.55 -1.06,1.54 0.23,2.14 0.72,0.12 0.11,0.71 -1.18,2.14 -1.07,1.54 0,2.02 1.3,1.67 0.24,1.9 0,0 0.09,0.44 -0.92,0.69 0,0 -1.54,0.71 -1.07,1.19 0,0.21 -0.95,0.26 -1.19,0.72 -0.95,1.19 0.71,0.47 1.43,0.12 1.97,-0.99 0.51,0.22 -0.08,0.23 0.8,0.06 1.31,0.48 -0.59,3.33 -1.19,0.35 -0.28,0.8 0.21,1 -1,0.82 -1.19,0.12 0.24,0.95 1.54,0.71 0.89,-0.08 0.45,2.46 1.4,0 0.95,0.35 -0.24,1.79 -0.83,0.95 -0.7,0.11 0.05,0.24 -1.25,0.36 -1.19,0.71 0.24,1.07 2.62,0.54 0.46,3.38 0.72,0 0.95,0.24 1.07,0.12 -0.24,0.95 -1.19,0.71 -1.03,0 0.19,1.42 0.03,1.99 0.33,1.36 -0.71,0.82 -0.71,2.14 0.95,2.61 1.67,2.73 2.94,1.48 0.06,0.56 0,0 -0.04,1.25 -0.14,1.01 -0.38,0.9 z"
     title="Los Ríos"
     id="EC-R" />
  <path
     d="m 640.32145,141.63874 1.09,0.09 3.01,-0.25 4.02,-1.75 1.32,-1.77 0,0 0.68,0.24 0,0 0.86,0.63 1.43,1.53 0.25,0.46 1.33,0.63 0.48,2.97 1.31,2.02 0.64,2.12 0.84,-0.01 2.44,-0.75 1.23,0.73 1.11,2 -0.02,1.23 0.07,0.42 0.67,0.15 1.19,0.47 0.36,1.67 0.47,2.49 0.6,2.5 -0.3,0.94 5.6,5.36 0.8,0.54 1.4,0.43 2,0.29 3.99,1.51 6.18,2.5 2.41,1.25 0.32,0.2 0.17,0.58 2.62,2.02 1.78,1.78 2.73,1.67 1.79,1.54 2.02,1.19 1.54,2.61 0.83,2.38 1.78,1.55 0.24,1.78 0.83,0.24 1.43,1.66 3.09,0.36 2.02,-0.48 0.95,1.07 1.48,-1.56 1.7,0.24 1.1,1.56 6.5,-0.45 0,0 -12.56,4.19 -6.42,2.38 -9.15,3.44 -10.1,3.33 -16.63,5.94 -4.04,1.31 -2.96,1.4 -5.24,5.56 -1.32,2.31 -2.62,0 0,3.42 -1.2,0.87 -1.66,0.96 -1.18,0.96 -0.73,1.26 0.58,1.52 1.07,1 0.52,1.85 1.53,1.23 -1.07,2.14 -2.02,-0.83 -2.12,0.71 -0.42,-0.14 0.14,-3.11 -0.41,-1.3 -0.87,-0.7 -1.05,-0.11 -1.35,0.45 -0.81,0.85 -0.29,1.04 0.06,2.42 -0.14,1.51 0,0 -4.6,0 -4.77,-0.5 -0.25,1.76 -2.26,-0.25 -0.75,-1.01 -1.25,0 -1.26,2.26 -2.86,0.55 -0.35,-0.44 -0.9,-0.78 -1.37,0.05 -1.67,-0.23 -1.07,-1.19 -1.76,-0.71 0.19,-2.52 0.51,-3.51 -1.76,-2.01 -1.76,0 -0.96,-0.32 -0.84,-0.88 -0.24,0.12 -0.38,-0.38 0,0 0.23,-0.13 0,0 0.24,-2.02 0.71,0.12 1.78,-1.31 2.97,-0.83 1.19,-2.38 0.95,-2.02 1.55,-1.3 2.49,-0.48 1.31,-0.83 0.95,-1.31 0.48,-2.14 0,-3.21 0.23,-1.54 0.84,-1.31 1.42,-1.07 0.59,-1.07 0.24,-1.56 -0.7,-0.79 -0.25,-0.02 -0.24,-1.55 0.36,-1.54 0.83,-0.95 1.19,-0.84 2.73,-0.83 1.43,0.18 0.34,-0.5 0.73,-0.03 1.07,-0.24 0.24,-1.07 -0.12,-1.19 -1.43,-0.83 -1.31,-0.12 0,0 -1.04,-0.48 0,0 0.33,-0.95 0.95,-0.47 0.24,-1.43 0.36,-3.44 -0.48,-1.55 0.18,-1.39 -0.3,-1.1 -2.47,-2.45 0,0 0.36,-0.49 0,0 1.56,-1.66 -0.4,-1.34 1.55,-0.84 -0.12,-2.25 -1.07,-1.55 -0.48,-1.19 2.14,-0.35 1.67,-0.72 -0.12,-1.18 -0.12,-1.79 0.59,-1.66 -1.31,-0.36 -1.54,-0.83 -0.36,-0.71 2.14,-1.9 2.38,-3.69 -0.24,-2.25 -1.19,-1.55 -1.3,-1.54 1.07,-1.43 1.9,-1.9 1.19,-0.36 0.64,-1 0.87,-1.68 -0.09,-2.54 0,0 z"
     title="Morona-Santiago"
     id="EC-S" />
  <path
     d="m 592.98145,67.95874 3.27,1.26 9.78,0 -0.25,1.5 -2.01,2.26 3.01,0.25 6.53,0.25 1.25,3.52 4.52,0 2.26,1.75 0,2.26 -1.26,0.5 -0.75,1.76 -2.01,1 -4.01,0 0,0 -0.06,0.74 -1.24,0.71 0,0 -0.83,0.48 -0.24,1.19 -1.54,1.07 -0.05,0.93 -1.37,1.36 -0.01,1.21 1.19,1.31 0.83,1.07 -1.43,0.47 -0.11,1.91 -2.62,-0.24 0,0 -1.65,-1.65 0,0 -0.96,0.93 -5.72,4.64 -2.4,1.7 -0.55,0.04 -1.69,-0.41 -0.31,-1.23 0.17,-1.41 -0.2,-1 0.6,-1.43 0,-2.02 -3.45,-0.24 -1.48,0.93 -1.09,-0.11 0,0 -1.22,0.04 0,0 0.48,-0.51 0.84,-1.65 1.88,-3.99 1.66,-0.83 -0.24,-3.8 -0.23,-3.09 0.12,-2.14 -0.72,-1.31 -0.83,-0.59 -2.38,0 -2.02,-0.12 -2.1,-0.66 -1.12,-2.79 -0.47,-3.21 0,0 -0.08,-1.88 0,0 1.27,0.53 2.26,0.75 5.27,0 0.5,-1.25 1.26,-1.26 0,0 z"
     title="Santo Domingo de los Tsáchilas"
     id="EC-SD" />
  <path
     d="m 521.66145,149.08874 1.01,-0.51 0.95,-0.17 6.31,0.06 0.58,0.1 0.7,-0.76 1.66,0 1.07,0.36 0.24,1.19 -0.12,0.08 -0.04,0.32 2.76,0 0,0 0.25,0 0,0 0,4.77 0.25,2.26 0.75,1.5 1.01,2.76 2.26,0.5 2.25,0.76 2.26,1.75 0.5,2.26 2.26,0.5 0.75,0.25 0.26,3.77 1.75,2.01 -1,2.25 -1.01,3.52 -1.25,0.75 -3.26,0.75 -3.51,0.5 -2.26,3.02 -1.01,0.75 -2.26,0.5 -2.78,3.18 0,0 -1.76,-2.16 -1.98,-1.67 -0.97,-0.77 -2.43,-0.81 -2.48,0.04 -1.53,-0.65 -3.54,-2.23 -4.09,-4.96 -0.08,-1.52 2.49,1.05 3.38,-1.52 3.23,-2.33 0.77,-0.87 0.83,-1.5 1.12,-6.64 -0.06,-1.14 -2.01,-7.28 -0.57,-1.37 z"
     title="Santa Elena"
     id="EC-SE" />
  <path
     d="m 638.78145,116.50874 1.14,-0.13 1.43,0.71 0.95,1.19 0.12,2.02 -0.12,1.55 -0.09,1.82 0.55,-0.04 2.38,0.12 2.61,-0.24 1.55,0.71 0.71,1.31 0.72,1.67 0.14,0.8 -0.15,-0.02 0.16,1.06 0,0 -0.12,1.54 0,0 0.83,2.5 -0.59,2.02 -0.54,0.27 -0.02,0.59 -0.68,0.86 -0.94,0.81 0,0 0.94,0.33 0,0 -1.32,1.77 -4.02,1.75 -3.01,0.25 -1.09,-0.09 0,0 0.02,0.26 0,0 -1.69,-0.42 -2.01,-0.75 -1.42,-0.99 -0.84,0.27 -1.45,0.15 -2.06,-0.84 -1.46,-0.19 -1.68,0.19 -1.45,0.06 -0.85,-0.02 -0.82,1.02 -1.31,0 -1.19,-0.95 -0.77,-1.35 -0.84,-0.73 -1.36,0.06 -1.07,0.12 -0.83,1.07 -0.83,1.43 -0.64,0.51 0,0 -0.12,-0.8 0,-0.22 -0.55,-0.2 -1.19,-1.67 -0.47,-1.19 -0.19,-1.1 -0.11,-0.1 -0.81,-2.52 0.88,-0.68 0.89,-1.01 0.8,-2.16 0.07,-1.62 0.09,-1.01 0,0 2.65,-1.51 0,0 1.11,-0.59 1.73,-0.7 2.66,0.34 1.19,-0.06 0.95,-0.17 4.6,-1.36 0.24,-0.84 0.6,-1.66 2.49,0.59 0.5,0.77 0.2,0.18 1.9,0 1.07,-1.42 1.07,-1.07 0.6,-1.07 0,0 0.07,-1.27 z"
     title="Tungurahua"
     id="EC-T" />
  <path
     d="m 788.32145,100.30874 -5.51,-2.25 0,0 -0.37,-1.09 0,0 -1.62,0.07 -3.45,-0.12 0,0 -1.9,-0.48 -0.47,-1.29 -0.2,-0.08 0,0 -2.2,-2.19 0,0 -3.7,-0.73 -4.86,0 -0.77,0.23 -0.82,-0.71 -1.07,-0.83 -2.02,-0.59 -1.43,-0.12 -0.95,0.24 0,0 -0.1,3.47 0.04,1.94 0,0 0.85,0.52 0,1.07 0,0 -1.38,-0.32 -2.77,-0.39 0,0 -0.06,-1.25 -0.43,-0.13 -1.72,-0.92 0,0 -0.61,-1.52 -0.87,-1.63 -1.69,0.09 -8.15,0.19 -1.52,1.61 0,0 -1.31,1.07 -1.66,0 -1.22,-0.67 0,0 -3.82,-1.17 0,0 -1.13,-1.78 -0.95,-1.07 -1.07,-0.71 -1.07,0.12 -0.33,0.11 -0.42,-0.32 -1.3,0.15 -0.29,0.2 -0.97,-0.85 -0.71,-1.31 0,0 -2.38,-1.07 0,0 -1.54,-1.07 0,0 -2.02,-3.21 0,0 -1.78,-1.78 0,0 -1.07,-1.43 -1.43,-1.54 0,0 -0.48,-1.31 -0.48,-0.48 0,0 -1.9,-2.14 0,0 -2.14,-0.24 -1.78,0.71 -1.58,0.97 -1.43,0 -2.26,-0.83 -1.43,-0.36 -2.01,0.16 0,0 -4.43,-1.76 0,0 -0.81,1.43 -0.27,0.33 0,0 -0.92,1.07 0,0 -1.43,1.19 -1.07,0.36 -0.75,-0.65 -2.64,-0.42 -0.17,-1.89 1.19,-0.71 -0.12,-0.59 -0.83,-0.12 -0.36,-1.66 -1.19,-0.12 -0.83,0.48 -0.12,0.83 -0.24,0.36 -1.07,0.12 -0.95,0.59 -0.27,0.68 -0.33,0.5 -1.66,0 -2.5,-0.48 -2.73,0.24 -1.66,-0.83 -1.66,0.71 -0.48,-5.23 0,0 -3.76,0.31 0,0 0.54,-1.18 -1.18,-1.27 -0.95,-2.26 -0.23,-0.08 -2.03,-2.12 0,0 -0.82,0.02 0,0 0.49,-1.17 1.78,-1.19 1.71,-0.64 0.43,-1.09 0,-1.48 0.24,-1.9 1.33,-0.63 0.78,-1.98 0,0 0.39,-2 0.37,-1.16 0,0 0.75,-0.88 0.46,-0.29 0,0 3.4,-4.46 0,0 0.71,-2.73 1.43,-1.54 1.53,0.22 0.95,-1.07 0,0 1.78,0.74 1.6,1.13 1.88,1.13 1.22,1.79 -0.75,2.64 0.38,1.32 0.09,1.22 0.38,1.51 0.38,1.69 1.51,0.85 1.88,0.94 0.66,-0.85 0.94,-0.09 1.6,0.28 1.79,0.75 1.88,0.19 1.51,-0.28 1.41,-0.38 1.51,-0.47 1.88,0.66 1.41,3.3 1.88,0.47 1.79,0.19 2.07,0.47 2.07,0.85 1.41,0.47 2.64,0.28 1.04,-0.66 3.01,-0.19 0.47,-1.13 1.32,0 1.41,0.56 0.85,0.28 1.6,0 1.22,0.66 0.85,0.66 1.22,-0.28 0.56,-0.47 1.13,-0.47 0.94,0 0.47,0.85 1.13,0 0.94,-0.56 0.85,-0.19 2.17,0.56 0,-6.31 0.47,-1.04 1.22,-1.13 1.51,-0.28 2.26,-0.56 1.6,0.66 1.04,1.04 1.79,0.47 3.11,0.09 1.41,2.26 2.45,0 1.51,0.75 0.94,0.94 1.6,2.17 1.7,2.92 1.98,1.98 2.54,1.88 2.07,1.88 2.17,0.94 2.45,0 3.77,-0.19 1.32,0.47 0.85,0.94 1.6,1.32 -0.28,1.04 1.51,0.56 0.94,0.75 2.64,1.22 1.98,0.75 1.6,0.47 1.88,0.09 1.7,0.38 -0.19,1.41 -0.57,0.38 -2.26,0.47 -0.47,-0.85 -0.47,1.04 -1.7,0.28 -3.86,-1.69 -6.5,0 0,6.68 2.64,2.35 1.69,1.04 3.58,-0.19 0.66,0.66 0.66,1.04 0.75,2.45 0.85,0.56 0.57,1.04 1.22,0 0.75,0.47 0.19,0.94 0.56,0.38 1.22,-0.19 0.75,1.13 0.85,0.28 0.85,0.47 0.57,1.69 -0.57,0.38 0.19,1.22 0.47,0.47 -0.19,1.13 -0.47,0.75 -1.04,-0.09 -0.35,0.62 z"
     title="Sucumbíos"
     id="EC-U" />
  <path
     d="m 97.231446,137.92874 -3.41,0.43 -1.92,-1.07 -2.34,-1.92 0,-1.71 1.71,-1.71 2.13,-0.85 3.84,0.43 1.49,1.07 2.130004,2.13 -1.280004,1.71 -2.35,1.49 z m -37.73,-4.29 -0.41,0.09 -1.23,-0.19 -1.4,-0.84 -1.04,-0.96 -0.31,-0.37 1.63,-3.89 0.49,-0.33 2.08,-0.01 3.21,2.17 0.17,0.69 -0.28,0.7 -1.21,1.58 -0.71,0.78 -0.99,0.58 z m 20.47,-22.36 -2.56,0 -1.92,-1.71 -0.21,-2.34 2.34,-1.07 2.56,0.64 1.28,2.77 -1.49,1.71 z m 27.180004,2.37 -4.43,1.09 -0.59,-0.07 -3.960004,-1.33 0.03,-0.66 0.47,-0.84 1.22,-0.76 0.690004,-0.29 1.02,-0.62 0.79,-0.52 3.13,-2.25 0.33,-1.45 0.24,-0.42 0.77,-1.07 1.33,-0.96 2.77,-1.54 1.62,-0.23 0.61,-0.04 2.8,0.2 0.53,0.79 -0.69,1.96 -0.69,0.96 -1.48,1.67 -5.29,5.64 -1.22,0.74 z m -56.170004,-13.24 -2.77,1.07 -2.13,-1.28 -1.07,-2.34 0.43,-1.28 2.77,-1.07 2.13,1.07 1.07,1.28 -0.43,2.55 z m 17.05,4.28 -4.04,1.59 -4.42,-0.53 -5.24,-3.74 -0.53,-2.82 0.74,-2.34 1.44,-1.85 0.83,-0.8 1.62,-0.69 7.81,-0.74 5.04,2.29 0.4,1.13 -0.5,4.14 -0.51,1.45 -2.64,2.91 z m 0,-14.72 -2.34,0 -1.92,-1.49 1.07,-2.56 2.98,-1.07 2.56,2.13 -0.21,1.92 -2.14,1.07 z m -59.8299999,2.68 -0.25,0 -5.2099999,-2.28 -1.2800001,-1.67 -0.62999995,-1.34 -0.56,-3.31 1.52000005,-1.18 7.19,-1.96 0.66,-0.04 1.4499998,1.02 1.76,1.76 0.34,1.05 -0.07,5.27 -0.41,0.9 -0.77,0.37 -3.7399999,1.41 z m 45.7499999,-9.29 -1.79,2.89 -0.79,0.62 -0.23,0.03 -3.13,-1.27 -0.98,-0.08 -1.7,0.41 -0.67,0.08 -4.14,-0.94 -2.3,-3.24 1.91,-4.44 1.02,-0.96 0.97,-0.36 2.2,0.65 3.39,1.18 1.6,0.62 1.03,0.62 0.4,0.27 0.72,0.58 2.3,2.26 0.19,1.08 z m -34.04,-14.4 1.83,0.61 0.69,0.95 0.23,2.79 -0.15,1.51 -0.03,0.99 0.82,3.27 0.7,1.37 3.06,3.28 1.51,0.78 1.58,0.96 1.09,0.98 2.67,2.71 0.76,4.92 -0.69,1.14 2.87,3.8 1.15,1.14 1.19,1.31 2.1,2.48 -3.06,8.74 -2.51,2.48 -11.46,3.11 -1.71,0.1 -0.83,-0.49 -3.73,-0.42 -1.21,-0.09 -1.22,0.26 -1.29,0.35 -2.26,-0.48 -1.01,-0.97 -2.5199999,-3.71 -0.41,-1.36 0.35,-1.7 0.86,-1.35 1.0299999,-1.27 6.79,-5.4 3.65,-1.18 1.84,0.51 1.84,0.44 3.72,-4.4 -1.84,-1.92 -1.56,-0.06 -9.87,-11.65 -2.3,-3.58 0.17,-1.27 0.49,-1.45 -0.45,-3.14 -0.71,-3.06 -0.86,-1.19 -1.7099999,-0.25 -1.96,0.68 -1.4,1.13 -1.62,-0.02 -1.44,-1.9 0.06,-0.49 3.13,-1.47 7.0599999,-4.48 3.68,0.61 0.11,1.13 1.79,3.21 0.79,0.85 0.2,0.16 z m 67.73,-10.53 -1.71,0.64 -2.56,-0.21 -1.49,-2.56 0.21,-2.34 2.98,-0.21 2.56,0.43 1.49,1.28 0,1.49 -1.48,1.48 z m -26.43,0 -5.12,0.21 -2.34,-2.13 0.21,-2.34 2.56,-1.28 4.69,0.21 1.71,1.49 1.71,1.07 -0.85,1.7 -2.57,1.07 z m -11.72,-11.72 -2.77,1.28 -2.34,-1.92 -1.71,-3.2 0.85,-2.13 2.98,-1.49 2.56,2.13 1.28,2.77 -0.85,2.56 z"
     title="Galápagos"
     id="EC-W" />
  <path
     d="m 616.92145,125.19874 -0.75,-0.5 -3.21,-0.24 -0.95,1.67 -2.73,0.23 -2.19,-0.43 -1.02,-0.85 -0.11,-0.05 -0.6,-0.98 -2.26,-0.12 -2.02,0.23 -1.55,0.48 -1.3,0.95 -0.84,0.79 -0.62,0.08 -0.71,-0.13 0,0 -0.26,-0.13 -0.07,-0.43 0,0 -0.24,-1.9 -1.3,-1.67 0,-2.02 1.07,-1.54 1.18,-2.14 -0.11,-0.71 -0.72,-0.12 -0.23,-2.14 1.06,-1.54 1.67,-1.55 1.54,-2.38 1.19,-1.54 0.12,-1.66 1.55,-2.02 0.71,-1.31 0.24,-1.55 0.83,-1.78 1.35,-1.92 0,0 0.19,0.2 0,0 2.62,0.24 0.11,-1.91 1.43,-0.47 -0.83,-1.07 -1.19,-1.31 0.01,-1.21 1.37,-1.36 0.05,-0.93 1.54,-1.07 0.24,-1.19 0.83,-0.48 0,0 1.19,-0.71 1.07,0 0,0 -0.22,1.03 0.51,0.81 0.07,1.67 1.02,0.07 0.55,0.88 1.33,2.77 0.07,1.86 1.05,0.4 0.23,0.22 0.97,-0.08 1.19,0.47 1.55,0.48 0.18,2.87 0.59,0.58 -0.06,1.48 1.54,0 0.73,-0.73 0.82,-0.34 2.14,-1.78 3.96,-0.12 0.48,-0.31 0.26,0.02 0.04,0.58 0.47,2.26 1.79,0.36 0.71,0.71 0,0 1.43,1.67 0,0 0.35,1.42 0.74,0.74 0,0.38 0.45,0.9 0.59,2.38 -0.35,1.9 -1.21,0.18 -0.17,0.25 0.55,2.06 0.23,2.14 0,0 -0.17,1.22 -0.06,1.28 0,0 -0.6,1.07 -1.07,1.07 -1.07,1.42 -1.9,0 -0.2,-0.18 -0.5,-0.77 -2.49,-0.59 -0.6,1.66 -0.24,0.84 -4.6,1.36 -0.95,0.17 -1.19,0.06 -2.66,-0.34 -1.73,0.7 -1.11,0.59 0,0 z"
     title="Cotopaxi"
     id="EC-X" />
  <path
     d="m 722.70145,192.21874 0,0 -6.5,0.45 -1.1,-1.56 -1.7,-0.24 -1.48,1.56 -0.95,-1.07 -2.02,0.48 -3.09,-0.36 -1.43,-1.66 -0.83,-0.24 -0.24,-1.78 -1.78,-1.55 -0.83,-2.38 -1.54,-2.61 -2.02,-1.19 -1.79,-1.54 -2.73,-1.67 -1.78,-1.78 -2.62,-2.02 -0.17,-0.58 -0.32,-0.2 -2.41,-1.25 -6.18,-2.5 -3.99,-1.51 -2,-0.29 -1.4,-0.43 -0.8,-0.54 -5.6,-5.36 0.3,-0.94 -0.6,-2.5 -0.47,-2.49 -0.36,-1.67 -1.19,-0.47 -0.67,-0.15 -0.07,-0.42 0.02,-1.23 -1.11,-2 -1.23,-0.73 -2.44,0.75 -0.84,0.01 -0.64,-2.12 -1.31,-2.02 -0.48,-2.97 -1.33,-0.63 -0.25,-0.46 -1.43,-1.53 -0.86,-0.63 0,0 -1.62,-0.57 0,0 0.94,-0.81 0.68,-0.86 0.02,-0.59 0.54,-0.27 0.59,-2.02 -0.83,-2.5 0,0 0.09,-1.18 11.64,0.79 -0.2,-3.6 0.52,0.07 0.12,-0.95 1.54,0 0.99,0.34 0.54,1.38 4.27,-1.5 5.26,-1.76 4.77,-0.5 2.01,-1.01 3.51,-0.25 3.25,-0.69 0.26,0.07 0,0 -0.08,-0.7 0,0 1.84,0.57 2.51,-0.25 2.26,-0.75 4.26,0 0,0 4.52,-0.51 1.01,1.26 2.5,-0.25 2.26,2.51 2.01,0.25 0.5,-3.26 2.51,-0.26 2.01,-0.5 3.51,-1.25 2.9,-0.62 1.37,0.91 2.73,0.23 0.59,1.07 -0.23,1.55 -0.73,1.43 0,2.34 0.86,1.16 2.14,1.07 1.07,1.01 0.98,0 1.9,-0.36 0.72,0.72 0.73,1.54 3.13,0.57 2.09,-0.7 5.48,-0.7 2.63,0.68 8.36,2.52 0.43,0.26 0.67,-0.73 2.26,1.07 0.95,0.95 0.1,0.99 1.65,-0.22 1.66,0.24 1.19,1.31 0.31,1.69 3.17,1.92 0.41,0.14 1.02,-0.48 1.9,0 0,1.66 -0.15,1.38 -1.9,1.96 -7.41,8.87 -14.08,16.68 -15.47,12.7 -11.26,8.53 z"
     title="Pastaza"
     id="EC-Y" />
  <path
     d="m 609.88145,228.08874 0.38,0.38 0.24,-0.12 0.84,0.88 0.96,0.32 1.76,0 1.76,2.01 -0.51,3.51 -0.19,2.52 1.76,0.71 1.07,1.19 1.67,0.23 1.37,-0.05 0.9,0.78 0.35,0.44 2.86,-0.55 1.26,-2.26 1.25,0 0.75,1.01 2.26,0.25 0.25,-1.76 4.77,0.5 4.6,0 0,0 -0.1,1.58 -0.48,2.97 0,3.45 -0.71,1.9 -1.07,1.9 -1.9,2.74 -3.21,3.56 -0.71,2.85 -1.19,0.24 -0.32,1.37 -0.01,1.76 -0.98,0.67 -0.24,1.55 -0.83,1.42 0,5.35 -2.08,2.1 -0.86,1.06 -0.03,3.14 0.35,2.47 0.12,2.68 -0.94,1.38 -1.31,1.55 -0.95,1.3 -0.32,1.29 -1.58,2.04 -1.9,0.95 -3.05,0.49 -0.81,0.75 -2.2,1.61 -0.95,2.26 -0.36,3.09 -1.43,1.55 -1.78,2.85 0,2.37 -1.31,0.96 -1.54,0.23 -2.02,-1.3 -3.19,0.12 -0.96,-0.06 -1.37,0.06 -2.58,0.04 -1.76,-3.49 -2.5,-0.71 -0.12,-2.5 -2.11,-0.01 -1.17,-1.31 -0.32,-1.48 -0.65,-3.49 0,0 2.03,-0.3 0,-1.07 1.19,-2.02 1.31,-1.55 0.71,-1.78 0.24,-2.61 1.42,-1.19 1.43,-0.48 1.66,0.12 0.29,0.86 0.79,0.35 0.43,0.04 0.51,-0.77 3.21,-3.33 0.83,-1.55 -0.12,-5.94 0,-3.44 -1.3,-1.79 -0.72,-1.3 0.24,-1.79 0.48,-1.54 0,-3.21 0.35,-3.44 0.12,-2.5 -0.08,-1.72 -0.94,-1.1 -0.38,-1.15 -0.5,-0.25 -0.59,-1.54 0,-1.79 0.47,-0.95 1.19,-1.42 1.43,-0.24 0.59,-0.83 0.33,-0.55 0,0 -0.13,-0.12 0,0 1.11,-0.28 0.71,-0.95 -0.83,-2.85 0.59,-2.02 0.84,-0.94 0.03,-0.29 -0.39,-1.09 -0.36,-1.31 1.66,-1.42 1.79,-1.43 0,0 z"
     title="Zamora-Chinchipe"
     id="EC-Z" />
</svg>
