<?xml version="1.0" encoding="UTF-8" standalone="no"?>
<!-- Created for MapSVG plugin: http://mapsvg.com -->
<svg
   xmlns:mapsvg="http://mapsvg.com"
   xmlns:dc="http://purl.org/dc/elements/1.1/"
   xmlns:rdf="http://www.w3.org/1999/02/22-rdf-syntax-ns#"
   xmlns:svg="http://www.w3.org/2000/svg"
   xmlns="http://www.w3.org/2000/svg"
   mapsvg:geoViewBox="-90.125247 14.450692 -87.683841 13.152442"
   width="792.89117"
   height="431.65646">
 
  <path
     d="m 102.7012,129.40798 2.5,1.19 2.49,1.19 2.62,1.96 1.37,3.19 1.24,-0.06 1.14,1.57 5.56,0 2.37,0.67 4.35,-0.16 0,0 2.72,0.11 1.06,1.13 1.74,-0.14 1.13,5.46 0.63,0.84 6.45,3.39 0.98,1.01 0.55,1.5 -0.53,6.49 -5.02,6.91 -0.82,5.48 -2.01,3.47 0.2,2.61 -0.39,1.54 -3.7,5.52 -1.81,0.44 0,0 -1.01,-1.38 -2.92,-0.81 -0.73,-1.11 -2.51,3.66 -3.06,1.53 -3.37,0.34 -1.17,1.26 2.21,9.06 2.46,4.41 0.31,1.37 -3.27,5.65 -3.29,2.78 -1.32,1.73 -1.14,4.57 -0.04,1.97 1.38,6.2 1.92,5.51 -4.21,0.42 -0.97,0.91 -0.38,4.98 -2.52,5.78 0.07,3.26 -1.81,3.37 -2.240004,9.1 -1.55,2.92 -4.64,0.66 -1.9,-0.22 -3.6,-3.38 -2.63,-1.53 -4.47,-1.65 -1.67,-2.23 -7.16,-6.22 -1.18,0.1 -1.89,1.78 -1.93,0.33 -3.86,6.77 -2.24,1.26 -1.31,2.45 -2.82,1.33 0,0 -2.53,-1.83 -2.52,-0.65 -8.92,-4.51 -11.99,-5.26 -1.53,-0.83 -0.09,-0.64 0.81,0.74 3.79,0.64 2.7,1.94 4.05,1.01 -0.35,-0.92 -1,-0.55 -2.35,0.27 -1.61,-1.1 -0.9,-0.93 0.54,-0.73 -1.81,-0.28 -0.99,0.18 -2.43,-2.21 -2.07,0.28 -0.09,0.92 -0.45,0.09 -10.91,-4.88 -1.53,-0.28 -2.07,-1.29 0.27,-0.46 -0.54,-0.74 -1.99,0.46 -9.81999962,-4.06 2.00000002,-0.63 3.48,1.71 1.26,-0.29 2,-2.72 0.5699996,-1.85 1.42,-0.16 0.58,-1.21 -0.33,-0.83 -1.8099996,-0.37 -3.1,-5.53 -2.44,0.71 -0.69,-0.91 0.49,-6.34 0.75,-1.51 0.86,-1.18 1.03,-0.84 -0.2,-1.31 0.77,-0.59 -1.69,-7.17 2.95,-2.29 1.6799996,-1.95 2.15,-4.5 0.78,-0.19 1.22,-1.7 1.03,-2.99 4.15,-1.18 0.36,-0.96 0.44,-1.19 0.55,-0.71 6.45,-1.05 2.4,-1.66 1.24,-2.34 -1.04,-4.23 0.14,-0.63 2.03,-0.82 0.48,-1.36 -0.12,-4.02 1.67,0.13 0.62,-0.94 2.89,-1.06 1.82,-0.8 0.34,-1.19 1.97,-1.71 3.14,-1.13 0.58,-0.77 1.19,-0.19 2.33,-0.44 1.45,-1.74 3.68,-1.53 1.43,-1.65 -0.76,-1.65 0.24,-0.43 0.65,0.4 2.38,-0.44 3.14,-1.88 1.31,-2.6 1.58,-0.3 0.39,-1.87 0.8,-1.21 5.37,-2.33 2.84,-6.36 -0.17,-1.2 1.39,-0.6 0.27,-0.99 1.19,-1.06 6.7,-0.54 1.67,0.73 1.48,0 1.16,-0.77 1.68,-2.58 1.48,-1.23 2.53,-0.46 3.16,-1.39 2.18,-0.03 0.68,-0.54 z"
     title="Ahuachapán"
     id="SV-AH" />
  <path
     d="m 486.2012,143.85798 6.81,5.18 1.68,0.07 2.33,-1.45 1.97,0.34 3.48,3.69 2.9,4.84 1.44,0.72 8.9,-1.45 3.33,0.43 1.02,0.25 5.36,3.05 3.18,3.32 0.07,1.77 -3.24,5.44 -1.37,5.26 1,2.29 -1.1,2.26 5.26,10.62 0.45,2.07 -0.63,2.34 0.56,2.11 1.39,0.44 0,0 -1.54,3.38 0.31,3.27 -1.47,2.86 0.33,4.04 -4.04,4.3 -0.91,1.51 -0.02,1.17 1.08,2.66 -0.39,2.23 -1.57,2.09 -0.53,1.6 -1.97,0.94 -1.11,2.41 -0.1,2.09 1.78,3.33 -0.23,1.4 -0.79,0.37 0,0 -1.44,-1.77 -0.95,-0.13 -1.94,0.87 -1.46,-0.1 -2.38,0.89 -2.9,0.15 -1.81,-0.74 -1.3,0.75 -5.88,0.06 -0.96,-2.92 -1.08,-0.43 -1.43,-1.45 0.54,-3.82 -4.07,0.03 -2.72,-1.05 -3.21,-2.32 -4.6,-0.36 -2.58,-1.66 -0.36,-1.79 -2.86,-1.05 -0.81,0.2 -2.3,2.08 -4.93,0 -1.98,-1.42 -5.14,1.59 -2.19,-0.7 -1.68,0.84 -0.91,-0.55 -1.56,-3.11 -0.61,1.06 -0.62,0.18 -2.4,-0.98 -1.41,0.15 -2.32,-0.81 -1.4,0.56 -0.99,1.64 -2.23,-0.6 -2.46,0.66 -7.78,4.52 -3.37,0.18 -4.01,-0.77 -1.85,0.19 -2.3,-0.83 -5.7,0.58 -1.42,0.98 -3.14,3.9 -0.78,0.16 0,0 -0.89,0 -1.15,-0.72 -1.4,-2.46 -6.45,-5.37 -2.62,-0.94 -2.49,0.46 -1.22,-0.26 -0.78,-4.33 -1.37,-1.38 -1.67,-0.78 -0.68,-0.98 0.18,-1.91 -1.09,-3.99 -3.26,-2.47 -1.91,-2.1 -0.85,-0.25 -2.05,0.52 -2.66,-1.5 -5.24,-4.06 -2.37,-2.9 -0.49,0.01 0.03,-4.69 0.78,-3.59 6.13,-5.93 4.75,-8.89 0,0 2.12,1.15 0.55,1.36 -0.21,1.01 0.93,0.2 2.63,2.19 0.39,-0.04 -0.05,-0.9 -0.88,-1.7 -0.93,-0.77 1.44,-1.7 2.76,-1.26 1,0.12 0.1,0.94 0.87,-0.08 -0.38,0.9 0.58,0.36 1.17,-0.43 2.62,0.28 1.72,1.02 4.64,-0.19 1.91,-1.15 2.51,-0.66 0.97,0.74 2.71,-2.15 2.06,-0.82 0.96,-2.37 3.27,-0.38 0.31,0.37 -0.82,1.95 2.11,-1.19 3.15,-0.48 2.59,-3.28 1.14,-0.31 1.44,-1.65 0.18,1.56 0.65,0.43 3.88,-2.08 0.78,0.04 0.59,0.65 0.76,-0.1 1.84,-1.45 5.73,-3.02 1.01,-0.92 1.11,-2.09 3.24,-1.33 1.33,-1.61 3.36,-0.65 4.07,-0.12 13.4,-4.29 0.42,-1.37 0,0 2.14,1.3 1,-0.23 3.12,-2.22 2.75,1.06 1.22,-1.15 3.21,0.45 1.14,-1.45 z"
     title="Cabañas"
     id="SV-CA" />
  <path
     d="m 320.1712,38.157981 5.5,-0.43 10.01,-2.65 1.58,0.11 2.79,2.27 8.61,3.71 2.98,0.22 4.06,2.81 1.47,3.28 0.86,6.19 -2.05,3.69 0.84,1.83 12.04,7.66 5.15,8.47 -0.08,1.39 -1.18,1.33 0.74,1.41 2.91,0.6 3.51,2.75 9.19,0.15 6.29,-0.46 3.27,3.84 4.71,2.16 4.42,1.15 1.81,1.3 3.93,10.339999 4.43,7.31 6.14,13.83 2.62,1.64 2.75,0.26 6.38,-0.67 7.73,-1.72 2,-0.06 1.97,0.74 4.6,4.48 5.16,8.27 1.95,2.24 7.39,7.15 2.45,1.43 0,0 -0.42,1.37 -13.4,4.29 -4.07,0.12 -3.36,0.65 -1.33,1.61 -3.24,1.33 -1.11,2.09 -1.01,0.92 -5.73,3.02 -1.84,1.45 -0.76,0.1 -0.59,-0.65 -0.78,-0.04 -3.88,2.08 -0.65,-0.43 -0.18,-1.56 -1.44,1.65 -1.14,0.31 -2.59,3.28 -3.15,0.48 -2.11,1.19 0.82,-1.95 -0.31,-0.37 -3.27,0.38 -0.96,2.37 -2.06,0.82 -2.71,2.15 -0.97,-0.74 -2.51,0.66 -1.91,1.15 -4.64,0.19 -1.72,-1.02 -2.62,-0.28 -1.17,0.43 -0.58,-0.36 0.38,-0.9 -0.87,0.08 -0.1,-0.94 -1,-0.12 -2.76,1.26 -1.44,1.7 0.93,0.77 0.88,1.7 0.05,0.9 -0.39,0.04 -2.63,-2.19 -0.93,-0.2 0.21,-1.01 -0.55,-1.36 -2.12,-1.15 0,0 -3.63,-1 -0.31,1.66 0.61,1.59 -1.37,-0.49 -0.41,1.21 -1.07,0.94 -0.53,-0.61 -1.45,-0.32 0.91,-1.82 -1.16,0.21 -0.35,-0.48 1.22,-0.48 -0.14,-0.37 -1.62,0.26 -1.2,1.68 -0.94,-0.18 -1.2,0.46 -0.1,0.87 3.81,0.56 1.11,0.57 -0.28,1.58 1.5,4.08 -0.51,0.32 -2.31,-3.49 -1.43,0 -1.03,3.06 -1.83,1.5 1,-3.5 -0.92,-1.93 -0.59,-0.24 -2.03,3.1 0.77,-4.15 -2.1,-1.7 -0.87,-2.15 0.24,-0.72 -1.63,-0.31 -1.08,-1.36 -0.01,-0.84 -0.56,-0.29 -2.73,2.4 1.23,-2.31 0.12,-2.26 -0.81,-1.4 -1.76,0.09 -0.31,-0.36 1.53,-1.61 0.61,-2.13 -1.58,-2.03 -1.88,0.75 -1.15,-0.45 2.15,-1.37 0.01,-0.97 -0.94,-0.57 0.86,-1.28 -0.13,-0.61 -1.72,0.51 -0.56,0.63 -1.67,-0.81 -0.31,1.35 -0.5,0.23 -0.76,-1.58 -2.02,1.08 -1.48,-0.39 0.09,-0.77 2.4,-1.04 0.49,-3.09 0.45,-0.44 1.04,-0.14 0.83,0.94 1.77,0.69 0.58,-0.27 -0.91,-1.48 0.13,-0.83 -1.97,-1.81 -0.47,0.03 -0.41,0.84 -0.97,-0.43 0.7,-1.22 -0.7,-0.49 0.06,-2.2 -0.43,-0.17 -0.25,1.1 -1.31,0.28 0.72,1.76 -4.07,0.17 -0.33,-0.65 2.08,-2.55 -3.65,0.33 1.28,-1.85 1.59,-0.89 -0.65,-0.56 -2.36,0.21 0.27,-2.18 -1.97,2.05 -0.8,-1.58 -0.61,-0.02 -1.87,-1.5 -0.79,-0.09 -1.51,1.29 -1.88,-0.67 -0.52,1.29 1.45,1.62 -0.59,0.76 -1.46,-0.76 -0.95,-1.12 -1.37,-0.31 -1.03,-1.47 -1.61,-0.93 0.05,-1.79 -2.93,-2.7 -0.76,-1.61 -0.93,-0.1 -1.46,1.07 -0.67,1.14 0,0 -0.89,0.32 0.38,-1.81 -1.54,0.69 -0.74,1.99 -2.14,0.85 -1.76,3.23 -2.05,0.07 -1.92,0.67 -0.43,-1.21 -2.31,-2.1 0.51,-1.9 -0.42,-1.64 -1.42,-1.19 -0.81,-0.04 -2.79,1.47 -2.25,2.42 -3.01,1.17 -1.12,0.17 -3.07,-2.12 -5.66,-0.95 -1.44,0.61 -0.59,1.77 -3.3,0.87 -1.43,-0.52 -1.45,1.78 0,0 -0.93,-0.7 -0.93,-2.55 -1.28,-0.66 -0.83,0.16 -1.05,1.11 -1.23,-0.2 -1.94,0.87 -1.17,-0.08 -0.49,-0.68 -0.7,-4.94 -1.18,-0.89 -1.24,0.05 -3.37,0.52 -3.85,3.74 -3.3,1.48 -1.77,0.01 -1.86,-0.98 -1.18,0.27 -0.9,1.22 -0.33,2.52 -1.57,1.62 -0.33,2.26 -0.51,0.23 -2.03,-1.14 -2.47,0.97 0,0 -3.66,-0.89 -4.29,0.73 -2.74,-1.86 -2.86,-0.22 -0.79,-1.01 0.51,-3.72 -0.85,-2.86 1.09,-1.4 -0.72,-3.1 0.32,-1.84 1.26,-0.97 0.68,-1.54 1.9,-1.33 -0.11,-1.74 2.84,-0.94 1.03,-1.46 -0.24,-3.19 -0.72,-2.06 -1.23,-0.91 0.22,-0.75 1.33,-1.25 0.9,-2.13 3.95,-0.69 5.76,-5.14 0.14,-1.45 1.42,-0.549999 0.07,-2.51 1.14,-1.87 4.79,-0.6 1.65,0.25 1.8,-0.43 1.06,-1.04 3.28,0.13 2.75,-1.98 0.85,-5.42 -1.23,-3.87 1.45,-4.05 -0.32,-1.14 -1.34,-1.65 -0.05,-1.42 -0.82,-1.43 0.14,-1.75 1.56,-0.99 2.26,0.33 2.29,-1.7 1.24,0.31 0.97,-0.41 2.23,1.02 4.91,-2.99 2.1,-2.9 -0.2,-1.22 0.57,-0.67 -0.49,-1.2 0.18,-3.17 1.66,-1.79 1.3,-2.64 0.13,-2.31 0.74,-1.64 -0.43,-2.53 1.44,-1.69 0.63,-1.72 -0.37,-1.09 -1.63,-1.54 -12.83,-9.27 -4.1,-6.47 -13.4,-14.35 -1.06,-0.5 0,0 0.31,-0.4500002 6.07,5.4100002 10.68,5.39 12.77,3.32 11.32,0.73 5.58,2.67 9.94,8.86 7.13,2.07 z"
     title="Chalatenango"
     id="SV-CH" />
  <path
     d="m 319.8712,133.43798 0.67,-1.14 1.46,-1.07 0.93,0.1 0.76,1.61 2.93,2.7 -0.05,1.79 1.61,0.93 1.03,1.47 1.37,0.31 0.95,1.12 1.46,0.76 0.59,-0.76 -1.45,-1.62 0.52,-1.29 1.88,0.67 1.51,-1.29 0.79,0.09 1.87,1.5 0.61,0.02 0.8,1.58 1.97,-2.05 -0.27,2.18 2.36,-0.21 0.65,0.56 -1.59,0.89 -1.28,1.85 3.65,-0.33 -2.08,2.55 0.33,0.65 4.07,-0.17 -0.72,-1.76 1.31,-0.28 0.25,-1.1 0.43,0.17 -0.06,2.2 0.7,0.49 -0.7,1.22 0.97,0.43 0.41,-0.84 0.47,-0.03 1.97,1.81 -0.13,0.83 0.91,1.48 -0.58,0.27 -1.77,-0.69 -0.83,-0.94 -1.04,0.14 -0.45,0.44 -0.49,3.09 -2.4,1.04 -0.09,0.77 1.48,0.39 2.02,-1.08 0.76,1.58 0.5,-0.23 0.31,-1.35 1.67,0.81 0.56,-0.63 1.72,-0.51 0.13,0.61 -0.86,1.28 0.94,0.57 -0.01,0.97 -2.15,1.37 1.15,0.45 1.88,-0.75 1.58,2.03 -0.61,2.13 -1.53,1.61 0.31,0.36 1.76,-0.09 0.81,1.4 -0.12,2.26 -1.23,2.31 2.73,-2.4 0.56,0.29 0.01,0.84 1.08,1.36 1.63,0.31 -0.24,0.72 0.87,2.15 2.1,1.7 -0.77,4.15 2.03,-3.1 0.59,0.24 0.92,1.93 -1,3.5 1.83,-1.5 1.03,-3.06 1.43,0 2.31,3.49 0.51,-0.32 -1.5,-4.08 0.28,-1.58 -1.11,-0.57 -3.81,-0.56 0.1,-0.87 1.2,-0.46 0.94,0.18 1.2,-1.68 1.62,-0.26 0.14,0.37 -1.22,0.48 0.35,0.48 1.16,-0.21 -0.91,1.82 1.45,0.32 0.53,0.61 1.07,-0.94 0.41,-1.21 1.37,0.49 -0.61,-1.59 0.31,-1.66 3.63,1 0,0 -4.75,8.89 -6.13,5.93 -0.78,3.59 -0.03,4.69 0.49,-0.01 2.37,2.9 5.24,4.06 2.66,1.5 2.05,-0.52 0.85,0.25 1.91,2.1 3.26,2.47 1.09,3.99 -0.18,1.91 0.68,0.98 1.67,0.78 1.37,1.38 0.78,4.33 1.22,0.26 2.49,-0.46 2.62,0.94 6.45,5.37 1.4,2.46 1.15,0.72 0.89,0 0,0 0.42,0.59 1,6.81 -1.85,1.55 -0.04,2.68 -2.04,1.26 -0.32,1.12 1.1,2.72 -0.17,3.27 1.77,2.58 -0.14,1.64 -6.17,3.5 -2.97,3.63 0,0 -6.24,0.89 -3.11,1.49 -2.51,0.58 -0.96,1.51 -0.53,3.11 -3.72,3 -1.79,-1.28 -4.25,-1.93 -5.71,-4.33 -7.49,-1.87 0,0 -1.3,-2.86 0.17,-0.51 6.39,-2.98 -1.21,-7.27 -2.45,1.39 -1.57,1.61 -0.98,-0.14 -0.69,-0.96 -2.11,-0.96 -2.55,1.06 0.31,-1.54 -6.73,-13.73 -2.48,-6.69 -4.32,-6.42 -0.46,-3.88 -9.11,-1.82 -2.4,-4.21 -1.96,-2.23 -1.79,-5.06 -1.06,-1.71 -1.44,-1.28 -1.19,-0.41 -3.03,0.71 -1.94,-0.18 -0.78,-0.97 -0.69,-3.87 -2.31,-1.06 0,-0.94 0.76,-1.11 4.22,-1.61 5.72,-5.08 -0.1,-0.65 -2.38,-2.21 -3.27,-1.03 -2.67,-2.74 -1.24,-3.96 -1.26,-1.7 -2.13,-4.91 -3.1,-5.45 0.59,-2.03 2.9,-1.98 2.56,-7.18 0.53,-5.7 -0.59,-3.28 -1.22,-1.41 0.07,-2.91 2.4,-2.91 z"
     title="Cuscatlán"
     id="SV-CU" />
  <path
     d="m 241.7812,142.24798 2.47,-0.97 2.03,1.14 0.51,-0.23 0.33,-2.26 1.57,-1.62 0.33,-2.52 0.9,-1.22 1.18,-0.27 1.86,0.98 1.77,-0.01 3.3,-1.48 3.85,-3.74 3.37,-0.52 1.24,-0.05 1.18,0.89 0.7,4.94 0.49,0.68 1.17,0.08 1.94,-0.87 1.23,0.2 1.05,-1.11 0.83,-0.16 1.28,0.66 0.93,2.55 0.93,0.7 0,0 0.12,1.1 -1.34,1.12 -0.33,1.31 -1.76,0.85 0.03,2.47 -1.05,3.66 -0.25,0.34 -0.8,-0.25 -0.66,0.77 0.3,2 -0.53,1.53 2.82,4.75 0.64,0.22 1.27,-0.61 1.97,1.98 0.54,0.26 0.91,-0.54 1.13,2.97 1.7,1.14 0.25,0.76 -0.41,0.41 -1.8,0.46 -0.64,0.71 0.66,1.96 6.13,2.67 7.34,1.2 0.55,1.3 0.2,3.58 -0.44,2.27 -3.02,2.07 -0.21,3.36 -1.87,1.49 -0.72,8.27 -1.43,6 -1.78,5.14 -1.26,5.75 -2.6,5.21 0.74,4.78 -3.79,12.85 -1.86,4.33 -1.22,1.35 0.45,0.79 0.89,0.37 4.27,-1.81 1.21,0.26 -0.44,2.35 -3.27,3.45 -0.03,1.29 0.59,0.96 -1.19,0.97 0.14,0.83 3.47,0.95 6.65,2.92 0.72,1.07 1.23,5.28 0.94,2.14 0.6,0.98 3.12,2.01 0.62,0.89 -0.6,1.09 -2.52,0.57 -0.68,0.54 -0.98,2.25 -0.54,3.37 0.14,0.82 0.73,0.4 3.16,0.03 2.41,1.08 -0.1,0.65 -2.31,2.25 -1.02,2.66 0.38,2.75 -1.08,2.12 0.25,2.62 2,2.92 0.98,2.33 -0.61,4.95 -1.91,2.99 -0.68,2.09 -0.05,1.92 2.93,6.29 1.45,2.09 0.85,3.49 2.48,2.36 0.26,2.03 -0.69,1.75 0.09,0.93 1.44,0.91 3.27,0.33 3.4,1.13 1.08,-0.91 -0.14,-2.59 0.62,-1.1 -0.51,-0.61 0.24,-0.56 5.47,-0.08 0,0 0.23,2.01 -0.6,3.37 2.02,0.55 5.43,-0.89 0.66,0.39 0.07,0.88 -1.57,5.69 -0.81,1.33 -1.98,2.12 -2.7,1.14 0.07,0.66 0.91,0.5 0.41,1.06 -1.76,3.97 0,0 -4.2,-2.77 -2.7,-0.64 -6.04,-3.04 -0.45,-1.1 -2.07,-0.19 -4.06,-2.76 -10,-4.33 -0.99,-0.73 -0.09,-0.65 -1.71,0 -11.18,-4.7 -0.99,-0.83 -3.61,-0.73 -2.88,0.37 -0.63,-0.56 -2.44,0 -1.17,1.85 -1.08,0.55 -1.08,-0.92 -5.32,-1.38 -2.07,0.92 -2.52,-1.94 -2.17,-0.73 -3.96,0.09 -1.98,-0.83 -1.36,0.64 -1.26,-1.01 -0.99,0.65 -1.26,0.09 -1.53,-0.37 -1.81,0 -1.26,-0.37 -2.25,1.11 -4.05,-1.2 -1.54,0.55 -2.52,-0.46 -1.53,-0.28 -4.87,-1.28 -1.8,0.64 -1.62,0.28 -7.57,-0.83 -1.08,0.37 -0.28,0.55 -3.24,0.74 -3.43,0.18 -2.43,-1.01 -2.97,-1.66 -1.44,0 -2.89,-0.09 -2.61,-1.2 -2.25,-0.28 -1.72,-0.36 -2.07,-0.47 -4.33,-0.18 -0.27,-0.64 -0.9,-0.28 -0.45,0.37 -1.71,-0.19 -0.99,-1.1 -3.25,-1.22 0,0 6.37,-4.95 5.23,-6.75 6.69,-6.34 0.96,-1.8 1.07,-6.87 0.96,-2.87 2.83,-3.27 1.7,-2.75 3.37,-2.09 2.39,-2.89 0.32,-2.5 -1.47,-15.03 0.52,-2.99 1.61,-1.24 1.7,-0.6 9.2,-1.28 1.07,-3.6 2.12,-0.88 1.01,-2.26 1.88,-1.67 2.04,-0.5 0.6,0.84 1.34,0.25 0.8,-0.84 0.52,-1.9 2.43,-0.49 1.67,-3.68 -0.23,-3 -0.7,-0.81 -1.56,-0.18 -2.8,-1.3 0,0 -0.2,-3.81 -1.58,-1.4 -1.28,-3.33 2,-2.04 1.68,-0.49 1.35,-1.04 0.57,-1.96 -0.38,-1.35 0.65,-0.4 -0.37,-1.02 1.16,-3.88 -1.49,-4.57 0.79,-0.96 -0.58,-4.93 -2.43,-7.47 1.31,-2.19 -0.73,-1.88 1.41,-1.89 0.38,-1.86 1.11,-1.17 0.98,0.52 0.43,-0.26 1.08,-2.48 1.38,-0.19 0.66,-1.26 3,-0.33 6.25,-5.49 3.03,-0.69 1.23,-1.13 -0.03,-1.84 -1.17,-2.13 0.31,-2.71 -0.81,-2.47 1.59,-3.7 1.54,-0.09 0.48,-1.41 1.19,-0.85 -0.16,-2.62 -1.69,-1.16 -0.21,-0.63 1.64,-3.15 0.08,-1.29 z"
     title="La Libertad"
     id="SV-LI" />
  <path
     d="m 656.8312,154.74798 3.1,2.09 8.19,0.55 0.11,6.43 2.18,3.23 1.56,1.39 2.35,4.23 10.74,15.26 1.56,6.01 16.95,-9.7 1.72,1.68 0,0 -2.54,6.4 -0.48,3.75 0.05,2.52 1.47,8.33 0.4,9.15 -2.65,11.8 0.71,1.04 4.59,-0.59 0.85,0.68 0.63,4.76 1.48,3.27 -0.62,6.88 -1.73,3.73 -2.65,8.91 -9.27,20.08 0.46,3.6 -3.11,8.46 -2.91,4.1 -6.97,3.03 -1.15,1.08 0,0 -2.48,-0.41 -2.63,0.26 -12.36,4.51 -6.77,1.71 -1.57,-0.85 -3.32,-7.23 -7.18,-2.71 -0.84,-0.89 0.48,-2.33 1.68,-1.99 -0.57,-2.27 0.65,-1.02 -1.47,-0.89 -0.02,-0.97 -1.04,-0.97 0.31,-1.87 -6.45,0.14 -6.32,1.3 -3.52,0.25 -1.95,0.64 -4.16,2.85 -1.94,0.37 1.68,-3.42 2.12,-1.88 -0.31,-1.08 -6.39,-4.63 -0.26,-1.11 0.64,-2.77 -0.61,-1.65 -4.2,-2.53 -2.01,-3.39 -7.65,-6.69 -0.89,-2.41 -0.18,-5.14 0.89,-3.71 1.15,-1.89 4.12,-3.13 8.68,-5.44 0.49,-1.1 -0.36,-4.3 -12.54,-9.54 -2.02,-5.1 -0.74,-6.02 4.52,-7.14 0.17,-5.62 1.5,-1.12 2.2,0.45 0.64,-0.3 -1.15,-3.62 -3.69,-1.72 0.16,-2.09 -0.73,-1.35 0,0 1.79,-0.8 12.84,-11.05 -0.47,-6.96 1.24,-4.61 0.37,-5.31 1.9,-0.03 0.69,-0.97 3.31,0.02 0.18,1.14 1.07,0.8 1.86,0.46 2.54,-0.25 1.23,-0.06 0.98,1.91 1.05,0.11 1.22,-0.59 0.89,0.24 0.67,0.62 1.42,-0.29 1.8,-0.14 1.14,-1.74 1.57,0.38 0.64,-0.64 1.97,0.83 3.64,-1.13 3.3,-2.03 z"
     title="Morazán"
     id="SV-MO" />
  <path
     d="m 399.4312,378.70798 2.07,0.92 0.81,1.75 -5.41,-1.29 -1.17,-0.83 0.18,-0.55 3.52,0 z m -10.72,-5.52 0.63,0.37 0.27,1.1 -0.9,-0.37 0,-1.1 z m -1.35,-0.28 0.9,1.38 -2.52,-0.55 0.09,-0.64 1.53,-0.19 z m 13.37,-111.6 -0.66,8.58 2.2,5.11 -2.2,8.61 2.26,1.2 4.39,0.98 7.59,-0.47 4.58,-1.29 0.9,0.46 -0.61,3.34 1.12,2.19 0.08,1.86 5.97,13.38 0.58,2.3 -0.23,3.91 -1.73,5.46 -0.44,3.7 -1.28,2.04 0.09,1.65 1.02,2.93 -0.19,3.56 1.19,2.5 -0.2,2.47 1.01,1.38 3.25,1.41 1.2,3.48 2.98,2.86 2.93,1.33 1.71,2.82 -0.28,1.36 -2.16,2.77 -0.14,2.91 -0.47,1.18 -0.99,0.99 -2.69,0.46 -1.39,1.36 -0.1,1 1.46,1.98 -1.2,3.22 0.35,2.64 -0.46,1.74 0.92,2.05 2.12,2.62 0.21,1.98 -3.17,3.2 -2.68,0.21 -1.41,0.63 -1.35,1.99 -1.36,1.01 -0.41,0.82 0.41,1.19 -0.29,0.67 -1.5,1.38 -1.15,2.43 0.25,1.28 -0.51,1.43 0.02,2.47 0,0 -9.56,-5.33 -4.42,-1.29 -1.53,-1.66 0.18,-1.93 0.56,0.37 0.25,1.29 1.44,1.1 0.72,0 3.15,-2.48 0.48,0.09 1.05,0.74 0.27,1.2 0.72,0.19 -0.81,-1.66 -1.35,-0.92 0.36,-1.93 3.78,-0.64 0.36,-1.29 -0.45,-1.01 0.73,-0.93 -0.72,0.28 -0.45,0.83 0.62,0.79 -0.14,0.7 -4.26,1 -0.36,1.93 -0.9,1.1 -0.57,0.47 -1.32,0.08 -0.63,-1.66 0.9,-1.2 -1.44,0.65 -1.89,-2.21 -0.54,-0.18 -0.63,-0.09 -1.08,-1.56 0.81,-0.37 0.09,-0.55 -0.36,0.09 -0.54,-1.01 -1.8,-1.47 -3.79,-0.09 -0.99,-0.83 0.09,0.74 -0.99,0 -0.45,0.92 -0.72,-0.09 -0.34,-0.56 -0.56,0.46 -0.81,-0.09 -1.44,-1.56 -1.44,-3.13 -2.16,-1.2 -0.99,0.46 -1.95,-0.23 -0.94,-2.26 -0.27,0.46 0.66,1.22 -0.03,0.62 1.44,0.55 0.09,0.55 -2.97,0.74 -1.91,-1.86 -4.45,-0.72 -1.03,-1.83 -0.9,0.28 -1.26,-0.64 -2.16,-0.28 -1.17,-0.92 -0.45,-1.01 -0.72,0.09 1.17,1.2 -0.18,0.46 0.54,0.64 3.7,0.74 3.15,2.12 2.61,0 3.42,2.3 3.34,-0.37 2.79,1.1 3.43,3.59 6.04,2.76 2.7,0.28 1.8,1.84 0.54,1.38 -1.44,0.46 -2.79,-0.83 -13.88,-7.45 -18.02,-8.19 -1.62,-0.28 -10.63,-4.23 -0.45,-1.29 -0.72,-0.18 -0.18,0.55 -1.53,-0.28 -4.42,-1.84 -7.3,-4.42 -25.09,-13.99 0,0 1.76,-3.96 -0.42,-1.06 -0.91,-0.5 -0.07,-0.66 2.7,-1.13 1.98,-2.12 0.81,-1.32 1.57,-5.69 -0.07,-0.88 -0.67,-0.39 -5.42,0.89 -2.03,-0.55 0.61,-3.37 -0.24,-2 0,0 1.81,-5.18 2.42,-1.55 0.47,-2.07 1.23,-1.73 -0.19,-3.7 2.38,-2.49 0.59,-1.82 -0.84,-2.84 0.03,-3.5 -0.45,-1.73 -3.76,-4.76 -0.87,-3.71 -1.32,-2.11 0.38,-1.09 2.83,-1.1 12.44,-0.95 1.55,-1.27 3.64,-6.25 2.52,-2.6 4.99,1.67 1.54,-0.56 0.21,-1.39 0.96,-0.05 2.06,0.67 3.04,2.34 2.07,0.29 1.06,-0.62 2.05,-2.49 1.24,-0.11 0.95,-1.19 2.32,-1.14 2.98,-0.02 1.4,-3.12 -0.79,-0.09 -1.42,-1.85 0,0 7.48,1.88 5.71,4.33 4.26,1.93 1.79,1.28 3.72,-3 0.53,-3.11 0.97,-1.51 2.51,-0.58 3.11,-1.49 6.17,-0.99 z"
     title="La Paz"
     id="SV-PA" />
  <path
     d="m 241.3912,7.6479808 1.59,-0.86 0.96,0.19 4.62,3.6300002 1.54,0.38 1.74,-0.92 0,0 1.06,0.5 13.4,14.35 4.1,6.47 12.83,9.27 1.63,1.54 0.37,1.09 -0.63,1.72 -1.44,1.69 0.43,2.53 -0.74,1.64 -0.13,2.31 -1.3,2.64 -1.66,1.79 -0.18,3.17 0.49,1.2 -0.57,0.67 0.2,1.22 -2.1,2.9 -4.91,2.99 -2.23,-1.02 -0.97,0.41 -1.24,-0.31 -2.29,1.7 -2.26,-0.33 -1.56,0.99 -0.14,1.75 0.82,1.43 0.05,1.42 1.34,1.65 0.32,1.14 -1.45,4.05 1.23,3.87 -0.85,5.42 -2.75,1.98 -3.28,-0.13 -1.06,1.04 -1.8,0.43 -1.65,-0.25 -4.79,0.6 -1.14,1.87 -0.07,2.51 -1.42,0.549999 -0.14,1.45 -5.76,5.14 -3.95,0.69 -0.9,2.13 -1.33,1.25 -0.22,0.75 1.23,0.91 0.72,2.06 0.24,3.19 -1.03,1.46 -2.84,0.94 0.11,1.74 -1.9,1.33 -0.68,1.54 -1.26,0.97 -0.32,1.84 0.72,3.1 -1.09,1.4 0.85,2.86 -0.51,3.72 0.79,1.01 2.86,0.22 2.74,1.86 4.29,-0.73 3.66,0.89 0,0 0.42,0.52 -0.08,1.29 -1.64,3.15 0.21,0.63 1.69,1.16 0.16,2.62 -1.19,0.85 -0.48,1.41 -1.54,0.09 -1.59,3.7 0.81,2.47 -0.31,2.71 1.17,2.13 0.03,1.84 -1.23,1.13 -3.03,0.69 -6.25,5.49 -3,0.33 -0.66,1.26 -1.38,0.19 -1.08,2.48 -0.43,0.26 -0.98,-0.52 -1.11,1.17 -0.38,1.86 -1.41,1.89 0.73,1.88 -1.31,2.19 2.43,7.47 0.58,4.93 -0.79,0.96 1.49,4.57 -1.16,3.88 0.37,1.02 -0.65,0.4 0.38,1.35 -0.57,1.96 -1.35,1.04 -1.68,0.49 -2,2.04 1.28,3.33 1.58,1.4 0.2,3.81 0,0 -4.5,-1.75 -2.51,0.1 -1.7,0.89 -2.05,-0.41 -2.54,0.5 -2.48,-0.64 -2.85,-2.24 -1.98,-0.77 -4.38,-2.84 0.46,-2.95 -0.31,-1.71 -2.65,-2.49 -2.03,-1.2 -1.38,-0.03 -0.7,-0.88 0.36,-0.91 1.32,-0.43 0.08,-0.63 -1.63,-0.08 -3.09,-1.3 -2.14,0 -3.01,1.74 -5,1.32 -0.72,5.65 -0.97,0.94 -2.52,1.21 -0.6,1.69 -1.07,0.69 -2.16,-2.75 0.87,-2.43 -0.91,-1.88 -1.44,-0.87 -3.82,-1.01 -2.84,1.24 -1.15,-0.95 0.44,-1.44 6.43,-5.68 0.3,-0.85 -0.51,-1.33 0.42,-1.84 -0.22,-0.8 -1.88,-0.94 -6.81,-0.27 0.24,-1.09 -1.25,-3.16 0.95,-1.17 -0.27,-1.56 0.55,-1.54 -1.09,-0.89 1.54,-1.25 0.12,-0.86 -1.18,0.41 -1.14,-0.22 -0.95,1 -0.95,-0.38 -2.09,0.72 -2.3,-1.94 -2.89,-0.88 -1.24,0 -0.98,0.95 -1.03,-0.23 -2.55,0.77 -4.65,-1.79 -1.93,0.26 -1.33,1.28 -2.22,-1.15 0,0 1.81,-0.44 3.7,-5.52 0.39,-1.54 -0.2,-2.61 2.01,-3.47 0.82,-5.48 5.02,-6.91 0.53,-6.49 -0.55,-1.5 -0.98,-1.01 -6.45,-3.39 -0.63,-0.84 -1.13,-5.46 -1.74,0.14 -1.06,-1.13 -2.72,-0.11 0,0 -0.23,-1.15 1.9,0.41 0.39,-2 -2.07,-1.17 -0.71,-2.7 0.88,-2.1 -1.45,-1.92 3.45,-7.25 0.76,-3.54 3.47,-8.97 2.78,-5.1 15.58,-13.879999 -0.06,-0.72 9.46,-5.18 2.24,-0.55 2.71,-0.15 7.42,1.05 8.57,-0.98 6.9,-3.62 4.94,-1.45 2.7,-1.43 1.19,-1.02 0.78,-3.27 1.26,-1.01 0.07,-1.12 -1.22,-0.57 0.01,0.83 -0.49,0.46 -3.55,-9.07 -4.16,-5.66 -1.13,-3.52 1.48,1.06 0.56,-0.42 0.64,-1.6 -0.64,-2.15 -1.8,-1.74 -1.61,-0.42 0.07,-1.06 -0.66,-0.26 -0.82,-1.59 -1.03,-0.45 -4.33,-0.08 -1.56,-0.56 -2.08,1.82 -1.01,0.11 -0.19,-0.55 0.27,-5.13 1.33,-3.94 1.53,-0.68 2.4,0.18 0.86,-0.77 0.13,-2.28 2.45,-0.51 -0.5,-1.94 -3.61,-3.16 0.45,-1.48 -1.43,-6.5 0.39,-5.15 1.47,-2.9 10.61,-0.35 -0.49,1.38 3.31,5.47 -1.39,3.94 2.57,0.82 0.59,-0.73 1.84,0.07 2.02,-2.83 8.03,-7.21 1.52,-0.03 1.9,-1.0900002 2.17,-2.28 2.28,1.16 2.15,0.3 2.49,1.3900002 2.63,0.69 0.27,1.57 1.63,0.88 2.03,-0.28 4.41,-3.4500002 2.29,-2.95 1.24,-0.73 0.65,-2.58 1.16,-1.78 2.17,-0.46 0.91,-1.03 1.23,1.03 z"
     title="Santa Ana"
     id="SV-SA" />
  <path
     d="m 605.6112,185.08798 0.73,1.35 -0.16,2.09 3.69,1.72 1.15,3.62 -0.64,0.3 -2.2,-0.45 -1.5,1.12 -0.17,5.62 -4.52,7.14 0.74,6.02 2.02,5.1 12.54,9.54 0.36,4.3 -0.49,1.1 -8.68,5.44 -4.12,3.13 -1.15,1.89 -0.89,3.71 0.18,5.14 0.89,2.41 7.65,6.69 2.01,3.39 4.2,2.53 0.61,1.65 -0.64,2.77 0.26,1.11 6.39,4.63 0.31,1.08 -2.12,1.88 -1.68,3.42 1.94,-0.37 4.16,-2.85 1.95,-0.64 3.52,-0.25 6.32,-1.3 6.45,-0.14 -0.31,1.87 1.04,0.97 0.02,0.97 1.47,0.89 -0.65,1.02 0.57,2.27 -1.68,1.99 -0.48,2.33 0.84,0.89 7.18,2.71 3.32,7.23 1.57,0.85 6.77,-1.71 12.36,-4.51 2.63,-0.26 2.48,0.41 0,0 -1.29,2.12 0.26,2.55 -0.94,3.42 1.58,3.37 2.54,11.79 -0.51,1.09 -4.57,0.97 -1.61,0.99 -2.02,8.4 -0.33,5.29 0.99,5.37 1.96,3.59 3.1,1.37 1.03,0.98 1.69,0.36 -0.48,1.75 -1.78,3.06 -1.85,6.58 -1.05,0.75 -1.75,0.27 -0.48,0.81 0.83,1.24 1.94,1.3 1.72,3.8 -1.6,6.22 -2.03,4.92 2.21,6.46 0.67,14.43 -1.03,0.81 -10.23,-1.07 -1.86,0.4 -3.07,6.49 -2.68,8.03 -1.17,9.9 0,0 -0.13,0.37 -6.6,-0.46 -1.62,0.27 0.09,1.02 -0.82,0.49 0,0 -3.62,-5.6 -8.05,-10.4 -2.14,-4.88 -12.22,-1.48 -4.03,2.4 -1.53,-0.37 -1.47,-1.32 -0.68,-1.39 0.16,-1.64 0.72,-1.31 5.08,-4.37 0.19,-0.72 -1.85,-3.08 -2.22,-1.5 -1.3,-1.5 -1.37,-0.28 -1.77,0.81 -0.54,-0.38 2.01,-6.28 -1.11,-1.61 -0.63,0.11 -0.47,1.15 -1.08,-0.23 -0.54,1.18 -1.04,-1.08 -3.94,1.03 -0.84,-1.36 -1.11,-0.35 1.11,-0.59 -0.5,-0.44 -2.26,-0.21 -1.35,-0.86 -0.38,1.38 -0.99,-0.63 -0.72,2.59 -0.49,0.04 -0.87,-0.89 -0.96,0.4 -1.88,7.06 0.09,2.47 3.44,4.81 -0.18,0.91 -3.04,1.06 -3.69,0.37 -1.92,0.93 -1.61,-0.34 -0.77,-0.84 -0.4,-1.19 0.4,-5.03 -1.35,-2.01 -0.04,-0.92 2.93,-3.42 5.66,-2.6 0.89,-1.46 -0.8,-3.86 -1.97,-3.99 0.39,-3.28 -0.79,-0.3 -5.77,0.7 -2.99,-0.7 -6.71,0.18 -1.35,-0.52 -0.05,-3.64 -0.67,-1.58 -1.14,-0.24 -0.73,-1.5 -0.95,-0.32 -1.14,-1.55 -3.46,-1.54 -1.23,-1.85 0.04,-1.47 1.29,-2.89 -0.75,-6.41 1.51,-3.59 -0.1,-2.81 -1.85,-1.57 -0.56,-3.88 -0.58,-0.99 -1.87,-0.09 -1.88,0.89 -0.93,-0.64 0.7,-7.38 0.83,-0.5 3.03,0.78 1.77,-0.77 0.28,-2.1 -0.74,-3.72 0.91,-1.31 2.23,-1.71 0.72,-2.43 -1.09,-16.05 -3.72,-1.96 -1.47,-1.24 1.71,-4.81 -0.98,-3.9 0.27,-2.1 1.18,-0.51 1.31,0.39 2.09,2.36 0.58,-0.05 0.39,-0.69 -0.79,-3.36 0.14,-1 0.93,-1.2 0.03,-1.01 -0.39,-0.79 -2.49,-1.36 -0.72,-1.57 0.05,-2.61 1.17,-3.06 -1.43,-7.61 -1.04,-0.89 -1.56,0.02 -1.23,0.53 -1.53,1.59 -2.42,0.34 -3.46,-1.9 -1.83,0.07 -0.81,-1.54 -1.77,-1.34 -0.6,-1.02 -2,-0.53 -4.09,-5.39 -2.37,-1.27 -0.73,-0.03 -1.1,1.48 -1.68,-0.28 -0.83,0.34 -0.62,-0.36 -0.59,0.56 -1.83,-1.48 -1.9,0.27 -2.29,-0.45 0,0 -1.3,-1.09 -3.22,-1.2 -0.3,-1.27 0.38,-3.26 -1.08,-2.1 -1.57,-0.16 -2.36,1.23 -0.99,-0.12 -1.61,-7.48 0,0 0.79,-0.37 0.23,-1.4 -1.78,-3.33 0.1,-2.09 1.11,-2.41 1.97,-0.94 0.53,-1.6 1.57,-2.09 0.39,-2.23 -1.08,-2.66 0.02,-1.17 0.91,-1.51 4.04,-4.3 -0.33,-4.04 1.47,-2.86 -0.31,-3.27 1.54,-3.38 0,0 2.58,0.15 5.21,2.32 0.97,-1.89 0,-2.07 5.96,0.49 1.95,-0.31 3.52,-4.74 2.99,-1.03 13.68,-1.1 7.66,5.66 11.73,-4.27 z"
     title="San Miguel"
     id="SV-SM" />
  <path
     d="m 57.061196,261.64798 2.82,-1.33 1.31,-2.45 2.24,-1.26 3.86,-6.77 1.93,-0.33 1.89,-1.78 1.18,-0.1 7.16,6.22 1.67,2.23 4.47,1.65 2.63,1.53 3.6,3.38 1.9,0.22 4.64,-0.66 1.55,-2.92 2.240004,-9.1 1.81,-3.37 -0.07,-3.26 2.52,-5.78 0.38,-4.98 0.97,-0.91 4.21,-0.42 -1.92,-5.51 -1.38,-6.2 0.04,-1.97 1.14,-4.57 1.32,-1.73 3.29,-2.78 3.27,-5.65 -0.31,-1.37 -2.46,-4.41 -2.21,-9.06 1.17,-1.26 3.37,-0.34 3.06,-1.53 2.51,-3.66 0.73,1.11 2.92,0.81 1.01,1.38 0,0 2.22,1.15 1.33,-1.28 1.93,-0.26 4.65,1.79 2.55,-0.77 1.03,0.23 0.98,-0.95 1.24,0 2.89,0.88 2.3,1.94 2.09,-0.72 0.95,0.38 0.95,-1 1.14,0.22 1.18,-0.41 -0.12,0.86 -1.54,1.25 1.09,0.89 -0.55,1.54 0.27,1.56 -0.95,1.17 1.25,3.16 -0.24,1.09 6.81,0.27 1.88,0.94 0.22,0.8 -0.42,1.84 0.51,1.33 -0.3,0.85 -6.43,5.68 -0.44,1.44 1.15,0.95 2.84,-1.24 3.82,1.01 1.44,0.87 0.91,1.88 -0.87,2.43 2.16,2.75 1.07,-0.69 0.6,-1.69 2.52,-1.21 0.97,-0.94 0.72,-5.65 5,-1.32 3.01,-1.74 2.14,0 3.09,1.3 1.63,0.08 -0.08,0.63 -1.32,0.43 -0.36,0.91 0.7,0.88 1.38,0.03 2.03,1.2 2.65,2.49 0.31,1.71 -0.46,2.95 4.38,2.84 1.98,0.77 2.85,2.24 2.48,0.64 2.54,-0.5 2.05,0.41 1.7,-0.89 2.51,-0.1 4.5,1.75 0,0 2.8,1.3 1.56,0.18 0.7,0.81 0.23,3 -1.67,3.68 -2.43,0.49 -0.52,1.9 -0.8,0.84 -1.34,-0.25 -0.6,-0.84 -2.04,0.5 -1.88,1.67 -1.01,2.26 -2.12,0.88 -1.07,3.6 -9.2,1.28 -1.7,0.6 -1.61,1.24 -0.52,2.99 1.47,15.03 -0.32,2.5 -2.39,2.89 -3.37,2.09 -1.7,2.75 -2.83,3.27 -0.96,2.87 -1.07,6.87 -0.96,1.8 -6.69,6.34 -5.23,6.75 -6.37,4.95 0,0 -2.79,-1.18 -5.77,-1.29 -1.35,-0.92 -4.33,-0.55 -5.31,-0.92 -5.59,0.46 -0.27,-0.55 -0.72,-0.09 -3.25,1.75 -0.72,0 -0.36,-0.56 -3.78,0.56 -7.66,-0.28 -5.5,-0.92 -2.26,0.73 -2.97,0.28 -0.9,1.66 -0.99,-1.01 -1.44,1.29 0.36,0.82 -0.27,0.65 -1.08,0 0.18,-1.38 -0.36,-0.46 -1.99,-0.28 -1.35,1.11 -0.27,1.19 -0.54,0 -0.27,-1.19 0.18,-1.2 -0.9,-0.74 -0.99,0.37 -0.09,-1.01 -1.820004,-0.92 -0.89,0.18 -0.09,-0.83 0.99,-0.37 0,-0.83 -1.53,-0.37 -0.45,-1.01 0.36,-0.73 -0.99,-2.68 0.18,-2.02 -0.63,-1.85 -0.72,-0.3 -0.27,-2.64 -1.71,0.09 -1.17,-1.2 0.45,-0.55 0.27,0.64 1.17,-0.37 0.36,0.56 0.45,-0.19 -0.36,-2.58 -0.54,-0.18 0.81,-2.3 -1.71,-2.86 -1.99,-1.48 -1.44,-0.82 -5.23,-3.23 -6.12,-3.96 -15.86,-8.94 -1.36,-0.92 0.27,-0.74 -0.81,-0.74 -0.36,0.74 -0.54,0 z"
     title="Sonsonate"
     id="SV-SO" />
  <path
     d="m 278.2212,138.03798 1.45,-1.78 1.43,0.52 3.3,-0.87 0.59,-1.77 1.44,-0.61 5.66,0.95 3.07,2.12 1.12,-0.17 3.01,-1.17 2.25,-2.42 2.79,-1.47 0.81,0.04 1.42,1.19 0.42,1.64 -0.51,1.9 2.31,2.1 0.43,1.21 1.92,-0.67 2.05,-0.07 1.76,-3.23 2.14,-0.85 0.74,-1.99 1.54,-0.69 -0.38,1.81 0.89,-0.32 0,0 -1.34,4.28 -2.4,2.91 -0.07,2.91 1.22,1.41 0.59,3.28 -0.53,5.7 -2.56,7.18 -2.9,1.98 -0.59,2.03 3.1,5.45 2.13,4.91 1.26,1.7 1.24,3.96 2.67,2.74 3.27,1.03 2.38,2.21 0.1,0.65 -5.72,5.08 -4.22,1.61 -0.76,1.11 0,0.94 2.31,1.06 0.69,3.87 0.78,0.97 1.94,0.18 3.03,-0.71 1.19,0.41 1.44,1.28 1.06,1.71 1.79,5.06 1.96,2.23 2.4,4.21 9.11,1.82 0.46,3.88 4.32,6.42 2.48,6.69 6.73,13.73 -0.31,1.54 2.55,-1.06 2.11,0.96 0.69,0.96 0.98,0.14 1.57,-1.61 2.45,-1.39 1.21,7.27 -6.39,2.98 -0.17,0.51 1.3,2.86 0,0 1.42,1.84 0.79,0.09 -1.39,3.12 -2.98,0.02 -2.32,1.14 -0.95,1.19 -1.24,0.1 -2.05,2.5 -1.06,0.61 -2.07,-0.28 -3.05,-2.35 -2.06,-0.67 -0.96,0.05 -0.21,1.4 -1.54,0.56 -4.99,-1.66 -2.52,2.6 -3.64,6.25 -1.54,1.27 -12.44,0.95 -2.82,1.1 -0.39,1.09 1.33,2.11 0.87,3.71 3.76,4.76 0.45,1.73 -0.02,3.5 0.83,2.84 -0.58,1.82 -2.39,2.49 0.19,3.7 -1.23,1.74 -0.47,2.06 -2.42,1.56 -1.8,5.17 0,0 -5.47,0.08 -0.24,0.56 0.51,0.61 -0.62,1.1 0.14,2.59 -1.08,0.91 -3.4,-1.13 -3.27,-0.33 -1.44,-0.91 -0.09,-0.93 0.69,-1.75 -0.26,-2.03 -2.48,-2.36 -0.85,-3.49 -1.45,-2.09 -2.93,-6.29 0.05,-1.92 0.68,-2.09 1.91,-2.99 0.61,-4.95 -0.98,-2.33 -2,-2.92 -0.25,-2.62 1.08,-2.12 -0.38,-2.75 1.02,-2.66 2.31,-2.25 0.1,-0.65 -2.41,-1.08 -3.16,-0.03 -0.73,-0.4 -0.14,-0.82 0.54,-3.37 0.98,-2.25 0.68,-0.54 2.52,-0.57 0.6,-1.09 -0.62,-0.89 -3.12,-2.01 -0.6,-0.98 -0.94,-2.14 -1.23,-5.28 -0.72,-1.07 -6.65,-2.92 -3.47,-0.95 -0.14,-0.83 1.19,-0.97 -0.59,-0.96 0.03,-1.29 3.27,-3.45 0.44,-2.35 -1.21,-0.26 -4.27,1.81 -0.89,-0.37 -0.45,-0.79 1.22,-1.35 1.86,-4.33 3.79,-12.85 -0.74,-4.78 2.6,-5.21 1.26,-5.75 1.78,-5.14 1.43,-6 0.72,-8.27 1.87,-1.49 0.21,-3.36 3.02,-2.07 0.44,-2.27 -0.2,-3.58 -0.55,-1.3 -7.34,-1.2 -6.13,-2.67 -0.66,-1.96 0.64,-0.71 1.8,-0.46 0.41,-0.41 -0.25,-0.76 -1.7,-1.14 -1.13,-2.97 -0.91,0.54 -0.54,-0.26 -1.97,-1.98 -1.27,0.61 -0.64,-0.22 -2.82,-4.75 0.53,-1.53 -0.3,-2 0.66,-0.77 0.8,0.25 0.25,-0.34 1.05,-3.66 -0.03,-2.47 1.76,-0.85 0.33,-1.31 1.34,-1.12 z"
     title="San Salvador"
     id="SV-SS" />
  <path
     d="m 410.1412,229.95798 0.78,-0.16 3.14,-3.9 1.42,-0.98 5.7,-0.58 2.3,0.83 1.85,-0.19 4.01,0.77 3.37,-0.18 7.78,-4.52 2.46,-0.66 2.23,0.6 0.99,-1.64 1.4,-0.56 2.32,0.81 1.41,-0.15 2.4,0.98 0.62,-0.18 0.61,-1.06 1.56,3.11 0.91,0.55 1.68,-0.84 2.19,0.7 5.14,-1.59 1.98,1.42 4.93,0 2.3,-2.08 0.81,-0.2 2.86,1.05 0.36,1.79 2.58,1.66 4.6,0.36 3.21,2.32 2.72,1.05 4.07,-0.03 -0.54,3.82 1.43,1.45 1.08,0.43 0.96,2.92 5.88,-0.06 1.3,-0.75 1.81,0.74 2.9,-0.15 2.38,-0.89 1.46,0.1 1.94,-0.87 0.95,0.13 1.44,1.77 0,0 1.61,7.48 0.99,0.12 2.36,-1.23 1.57,0.16 1.08,2.1 -0.38,3.26 0.3,1.27 3.22,1.2 1.3,1.09 0,0 0.95,2.31 -2.84,4.93 -1.68,1.23 -4.75,1.4 -2.3,1.26 -1.95,2.78 -2.51,1.17 -2.09,1.62 -3.2,3.93 -1.18,4.36 -3.09,2.28 -1.96,5.12 -0.79,0.64 -3.57,1.14 -7.07,0.4 -6.29,1.87 -1.47,1.56 -1.04,2.63 -1.38,1.34 -3.16,6.4 -0.96,0.56 -2.73,-0.25 -1.78,1.42 -0.7,2.23 0.7,4.22 -1.19,2.48 -0.66,6.5 -1.42,4.36 -0.24,7.35 -1.46,2.4 -2.3,1.97 -3.57,9.46 -5.03,7.55 -5.04,10.27 0.19,3.95 0.97,1.96 2.11,1.34 0.25,1.74 -0.39,1.09 -4.28,1.69 -2.21,2.67 -2.06,4.2 -1.85,1.2 -5.13,5.17 -3.62,1.66 -2.59,2.27 -2.27,0.33 -1.88,0.89 -1.39,1.57 -0.43,2.09 2.07,2.12 2.52,1.45 5.91,1.96 1.03,1.33 0.18,1.62 0,0 -12.17,-3.78 -6.67,-3.67 -0.9,0.46 -1.25,-0.75 0,0 -0.02,-2.46 0.51,-1.43 -0.25,-1.28 1.15,-2.42 1.5,-1.38 0.28,-0.67 -0.41,-1.2 0.41,-0.82 1.36,-1.01 1.35,-2 1.41,-0.62 2.68,-0.21 3.17,-3.2 -0.2,-1.98 -2.12,-2.62 -0.93,-2.06 0.47,-1.74 -0.35,-2.64 1.2,-3.23 -1.46,-1.98 0.1,-1 1.39,-1.36 2.7,-0.46 0.99,-0.98 0.47,-1.18 0.14,-2.91 2.16,-2.77 0.28,-1.36 -1.71,-2.82 -2.94,-1.32 -2.97,-2.87 -1.2,-3.48 -3.25,-1.41 -1.01,-1.38 0.2,-2.47 -1.19,-2.5 0.19,-3.56 -1.02,-2.93 -0.08,-1.64 1.27,-2.04 0.45,-3.7 1.73,-5.46 0.23,-3.91 -0.59,-2.3 -5.96,-13.38 -0.09,-1.86 -1.12,-2.19 0.61,-3.34 -0.9,-0.46 -4.58,1.29 -7.59,0.48 -4.39,-0.98 -2.26,-1.2 2.2,-8.6 -2.2,-5.12 0.66,-8.57 0,0 2.97,-3.63 6.17,-3.5 0.14,-1.64 -1.77,-2.58 0.17,-3.27 -1.1,-2.72 0.32,-1.12 2.04,-1.26 0.04,-2.68 1.85,-1.55 -1,-6.81 z"
     title="San Vicente"
     id="SV-SV" />
  <path
     d="m 792.1012,423.52798 0.54,1.18 0,2.21 -0.9,-0.83 -0.45,-1.47 0.81,-1.09 z m -10.82,-13.91 0.27,0.73 2.07,-0.18 2.54,0.71 0.44,2.33 1.53,2.48 0.36,1.66 0.18,1.1 0.34,1.91 -0.61,1.22 1.07,1.09 -0.08,1.49 1.17,0.64 -0.38,1.38 -0.88,0 -1.08,1.1 -1.71,-0.55 -1.17,1.66 -0.63,-0.64 0.63,-1.38 -1.51,-1.03 -1.01,0.2 -0.36,0.83 -0.99,0.46 -1.79,0.09 -0.01,-1.28 0.55,-0.84 -0.09,-2.28 -0.63,-0.74 -1.08,-0.18 0.36,-0.83 -0.81,-1.01 0.45,-1.01 -0.54,-1.75 1.08,-1.59 -0.72,-2.91 1.8,-2.48 1.24,-0.4 z m -16.05,-10.38 2.88,0.83 1.36,1.36 0.27,2.21 1.08,-0.09 0.45,0.46 -0.36,0.83 0.27,1.65 -0.45,0.83 -0.97,-0.66 -0.47,0.2 -0.63,1.2 0,1.75 -1.35,1.1 -0.99,0 -3.33,-1.84 -0.63,-1.84 0.19,-1.47 -0.64,-0.46 -0.01,-1.01 -0.72,-1.1 0.09,-0.57 0.81,-0.35 -0.63,-0.92 0.36,-1.01 1.17,-0.92 2.25,-0.18 z m 8.76,-13.46 1.71,0.66 0.81,2.02 -0.54,0.55 -0.91,-0.19 -0.62,0.74 -0.9,-0.18 -0.63,0.55 -0.98,-1.48 2.06,-2.67 z m -0.55,-3.85 0.27,0.55 -1.27,0.91 -0.08,-0.72 1.08,-0.74 z m 0,-5.89 0.36,1.47 -1.53,1.57 -1.81,0.55 0.28,0.99 -0.99,0.76 0.99,1.2 -0.45,1.1 0.63,0.74 -1.98,1.1 -2.24,-0.47 -1.82,0.26 0.81,-1.63 -0.45,-1.75 0.09,-2.39 -0.54,-0.92 0.27,-1.47 0.99,0.1 0,-0.65 0.9,-0.46 0,0.83 0.56,0.55 1.43,-0.82 1.62,0.92 0.99,-1.01 1.89,-0.57 z m -34.06,-23.79 0.26,2.16 -1.25,2.02 -2.07,0.19 -2.35,2.3 -0.63,-0.93 -1.44,-0.63 0.18,-1.01 1.44,-0.74 1.28,-2.49 3.41,0.1 1.17,-0.97 z m -11.34,-168.61 3.05,2.14 2.06,-0.07 1.91,0.99 3.74,-0.23 6.64,2.3 3.13,0.16 6.49,-1.9 8.07,6.43 6.8,2.8 1.21,0.96 0.99,2 0.69,6.59 1.24,1.76 2.06,1.22 1.98,1.99 2.98,0.39 3.05,1.91 0.46,2.9 -0.71,8.64 -3.44,5.57 -2.75,2.59 -1.37,3.09 0.14,2.14 2,1.58 0.25,1.79 -1.97,5.17 -5.3,5.27 -1.29,2.42 -0.45,3.18 0.98,7.29 -0.86,7.03 -0.71,1.82 -0.07,9.3 -2.21,1.99 -3.56,5.1 -0.71,3.18 -3.08,1.14 0.03,0.78 1.75,0.99 -1.6,1.45 -0.64,1.41 0.33,2.38 -0.84,2.99 1.42,3.07 -2.07,2.62 0.13,1.09 2.44,1.46 0.48,2.27 1.82,-0.4 3.45,1.4 1.03,-0.4 2.93,-2.59 0.73,0.14 0.79,2.31 0.93,0.08 1.66,-1.19 1.58,0.2 4.38,1.98 0.24,2.13 -1.05,2.77 2.14,7.97 -1.54,4.17 -0.14,2.53 -0.71,0.85 -4.79,-0.12 -3.19,2.77 -1.23,-0.12 -0.91,-0.81 -4.77,3.46 -0.75,1.66 -4.18,0.26 -2.73,4.17 -5.47,0.21 -1.98,-2.02 -2.79,-1.31 -4.51,-0.9 -0.81,-1.01 2.16,-4.88 0.09,-1.29 -0.63,-0.64 -0.27,-1.29 0.36,-0.55 1.17,-0.09 2.43,1.38 1.63,-0.18 1.87,-2.41 0.46,-2.1 1.89,-1.47 -0.45,-0.18 -1.53,1.2 -1.8,0.46 -0.18,1.29 0.45,1.3 -0.91,1.46 -1.79,0 -1.26,-1.2 -1.08,-0.37 -1.62,0.65 -0.08,3.04 -1.72,1.29 -1.62,3.04 -2.35,2.3 -0.36,1.46 -1.44,1.86 -0.53,1.92 -1.47,1.77 0.1,3.77 -0.36,0.64 -0.72,0.19 -1.35,-1.1 -0.27,0.28 1.53,1.47 0.09,1.47 1.53,1.01 -0.45,2.76 0.54,2.12 0.72,0.92 2.61,1.29 1.17,-0.64 0.73,0.16 0.26,0.73 -0.62,0.87 0.81,1.19 1.7,0.09 1.09,1.57 1.7,0.46 0.72,-0.28 1.71,1.01 1.6,0.18 1.57,1.94 1.69,-0.01 0.63,1.01 -0.9,0.92 0.99,1.93 3.25,1.18 2.34,2.69 1.17,-0.28 0.65,0.44 1.33,1.95 0,0.74 1.62,0.83 0.09,1.01 -0.72,0 -0.72,-0.64 -1.08,0.46 -0.18,2.48 -0.63,0.18 -0.72,1.66 -0.27,1.47 -1.26,1.29 -0.81,0.37 -0.35,0.92 -3.16,2.12 -0.09,1.56 -0.99,0.28 -1.26,2.3 -2.07,0.19 -2.25,2.85 -1.71,0.57 -0.54,1.18 -1.54,0.08 -0.71,0.48 -2.96,-0.26 -1.55,0.52 -1.44,1.59 -0.36,1.2 -2.98,1.01 -0.26,0.91 -1,0.74 -0.99,0.74 -0.63,0.46 -0.45,-0.18 0.09,-1.03 -0.99,-0.08 -3.05,1.21 -0.36,0.93 -1,-0.02 -1.35,1.56 -1.8,-0.09 -0.45,-0.46 -2.34,2.39 -0.9,0.46 -2.07,1.47 -0.72,1.2 0.18,0.55 -0.63,0.65 -0.9,-0.18 -0.72,0.46 0,0.37 1.08,0.18 2.07,-0.28 0.18,-0.83 2.61,-1.84 0.81,-2.12 0.54,-0.37 0,1.75 -0.99,2.02 0.27,4.14 1.26,1.29 1.98,0.47 0.36,0.54 1.81,0.09 1.34,3.04 -1.08,1.93 -3.42,-0.28 -1.26,0.46 -1.17,-1.56 -1.34,-0.38 -1.36,0.38 0.9,1.1 -0.45,0.37 -2.52,-1.91 -3.25,-0.75 -3.24,0.92 -2.62,-1.02 -0.81,0.38 -0.99,-0.37 -0.27,1.47 -1.53,0 -1.53,-1.2 0.36,-0.64 -0.27,-0.83 -1.53,-0.09 -0.09,0.74 0.54,0.37 -0.72,0.18 -8.28,-1.22 -19.03,-1.45 -0.36,-0.64 0.89,-1.11 1.65,0.17 -1.28,-0.72 -0.54,0 -0.44,0.9 -1.72,1.4 -7.5,-1.01 0,0 1.17,-9.9 2.67,-8.02 3.07,-6.49 1.86,-0.4 10.24,1.07 1.03,-0.81 -0.67,-14.43 -2.21,-6.46 2.03,-4.92 1.6,-6.23 -1.72,-3.8 -1.94,-1.3 -0.83,-1.24 0.48,-0.81 1.75,-0.27 1.05,-0.75 1.85,-6.58 1.78,-3.06 0.48,-1.74 -1.69,-0.36 -1.03,-0.98 -3.1,-1.37 -1.96,-3.59 -0.99,-5.37 0.34,-5.29 2.01,-8.39 1.62,-0.99 4.56,-0.97 0.52,-1.08 -2.55,-11.8 -1.58,-3.37 0.94,-3.41 -0.26,-2.55 1.29,-2.12 0,0 1.15,-1.08 6.97,-3.03 2.91,-4.1 3.11,-8.46 -0.46,-3.6 9.27,-20.08 2.64,-8.91 1.73,-3.73 0.63,-6.88 -1.49,-3.26 -0.63,-4.76 -0.85,-0.69 -4.59,0.59 -0.71,-1.04 2.65,-11.79 -0.4,-9.16 -1.47,-8.32 -0.05,-2.52 0.47,-3.75 2.54,-6.4 0,0 0.76,0.6 1.22,-0.84 1.22,0 4.5,2.21 5.73,-3.89 1.45,-0.23 3.21,0.99 1.98,0 2.64,-1.29 z"
     title="La Unión"
     id="SV-UN" />
  <path
     d="m 539.5712,413.02798 1.08,0.92 -0.45,0.64 0.09,0.37 0.54,-0.28 -0.36,0.92 -1.17,-0.46 -0.36,0.37 -0.99,-0.64 0.63,-0.46 -0.09,-0.74 1.08,-0.64 z m -11.62,-8.28 1.25,0.36 0.37,1.39 0.72,0.55 3.25,-2.02 2.16,1.84 0.45,1.84 1.62,1.56 2.16,-0.18 1.35,-1.75 2.25,0.18 -0.36,1.1 0.99,1.47 -2.61,0.09 -2.43,1.01 -2.35,-0.55 -0.54,0.64 0.9,1.2 -0.18,0.46 -1.17,-1.2 -1.44,-0.09 -4.05,-2.12 -3.24,0.09 -0.54,0.46 -2.43,0.37 -4.33,-1.01 -1.98,-1.38 0.27,-2.02 0.72,-0.73 9.19,-1.56 z m -47.86,-3.68 0.54,0.64 -0.72,0.46 -1.53,-0.46 0.09,-0.46 1.62,-0.18 z m -16.04,-5.24 2.07,1.1 0,1.47 -0.72,0.64 -1.17,-0.64 0,-1.2 -0.54,-0.74 0,-0.64 0.36,0 z m 3.61,-0.46 1.89,0.74 1.09,-0.48 0.54,1.22 3.33,1.47 2.79,-0.74 1.35,0.83 -2.43,0.83 -2.07,0.09 -1.55,0.74 -1.6,-2.85 -1.44,-0.46 -2.43,0.18 -0.54,-1.1 1.07,-0.47 z m 8.29,-0.56 0.27,0.64 -0.36,0.65 -0.45,0.46 -0.81,-0.28 0.72,-1.29 0.63,-0.18 z m 57.86,-0.09 1.98,0.46 0,2.85 0.45,1.2 1.71,0.83 3.06,2.85 1.62,1.93 0,0.92 0.72,0.46 -0.72,1.01 -2.61,0.46 -0.54,1.56 -2.16,-0.09 -1.17,-2.85 -2.73,-1.71 -3.13,1.94 -0.63,-1.24 -0.81,-0.92 -0.09,-0.73 2.53,-4.19 -0.4,-2.56 0.11,-1.62 0.87,-0.34 1.94,-0.22 z m -41.19,-0.37 0.45,1.01 -1.26,0.55 -0.72,-0.74 0.09,-0.46 1.44,-0.36 z m 17.13,-1.1 1.62,0.74 0.81,2.39 5.41,5.52 0.18,0.74 -1.17,1.47 -0.81,0 -2.61,-2.58 -1.35,-0.37 -1.35,-1.2 0.09,-0.55 -1.17,-0.46 -1.98,-3.77 2.33,-1.93 z m 22.12,-140.7 2.29,0.45 1.9,-0.27 1.83,1.48 0.59,-0.56 0.62,0.36 0.83,-0.34 1.68,0.28 1.1,-1.48 0.73,0.02 2.37,1.27 4.09,5.39 2,0.53 0.6,1.02 1.77,1.34 0.81,1.54 1.83,-0.07 3.46,1.9 2.42,-0.34 1.53,-1.6 1.23,-0.52 1.56,-0.03 1.04,0.89 1.42,7.61 -1.17,3.06 -0.05,2.61 0.72,1.58 2.49,1.35 0.39,0.79 -0.03,1.01 -0.93,1.2 -0.13,1 0.78,3.36 -0.39,0.69 -0.58,0.05 -2.08,-2.36 -1.31,-0.38 -1.18,0.51 -0.27,2.1 0.98,3.9 -1.71,4.8 1.47,1.25 3.72,1.95 1.09,16.05 -0.72,2.43 -2.23,1.71 -0.9,1.31 0.74,3.73 -0.28,2.1 -1.77,0.76 -3.03,-0.77 -0.83,0.5 -0.7,7.38 0.94,0.64 1.88,-0.88 1.86,0.09 0.58,0.99 0.56,3.88 1.84,1.57 0.1,2.81 -1.51,3.59 0.75,6.41 -1.29,2.89 -0.05,1.47 1.23,1.84 3.47,1.55 1.14,1.55 0.95,0.31 0.72,1.5 1.14,0.24 0.67,1.57 0.05,3.64 1.35,0.52 6.71,-0.18 2.99,0.7 5.77,-0.69 0.79,0.3 -0.39,3.28 1.97,3.99 0.8,3.86 -0.89,1.46 -5.66,2.6 -2.93,3.42 0.03,0.92 1.35,2.01 -0.4,5.03 0.4,1.19 0.77,0.84 1.62,0.34 1.92,-0.93 3.69,-0.37 3.04,-1.07 0.18,-0.9 -3.44,-4.81 -0.09,-2.47 1.89,-7.05 0.95,-0.4 0.88,0.89 0.49,-0.04 0.72,-2.59 0.98,0.63 0.38,-1.38 1.35,0.86 2.26,0.21 0.5,0.44 -1.11,0.59 1.11,0.35 0.84,1.36 3.94,-1.03 1.04,1.07 0.53,-1.18 1.08,0.23 0.47,-1.15 0.63,-0.11 1.11,1.61 -2.02,6.28 0.55,0.38 1.77,-0.81 1.37,0.28 1.3,1.5 2.23,1.5 1.85,3.08 -0.19,0.72 -5.08,4.37 -0.72,1.31 -0.15,1.64 0.69,1.39 1.47,1.32 1.52,0.37 4.03,-2.4 12.22,1.48 2.14,4.88 8.05,10.39 3.62,5.61 0,0 -0.18,0.42 -1.17,-0.37 0.18,0.74 -0.9,0.46 -1.62,-1.01 -5.86,-0.73 -1.8,-0.09 -0.18,0.74 -0.36,0 -1.62,-0.83 -1.53,1.29 -0.81,0 -0.36,-0.73 -5.5,-0.18 -0.9,1.38 -1.35,-0.09 -0.54,-0.73 -0.72,-0.09 -0.18,0.64 -1.08,-0.18 -0.63,1.2 -1.08,-0.55 -0.36,1.2 -2.43,-0.46 -0.18,0.74 -0.45,0.09 -0.36,-0.92 -0.99,-0.09 -0.36,1.01 -0.54,0 -0.36,-0.64 -1.08,-0.46 -5.23,-0.74 -1.71,-1.38 -1.98,0.92 -2.16,-0.09 -11.27,-2 -16.49,-0.85 -1.17,-0.73 0.18,-0.92 3.25,-1.84 2.35,-0.18 1.62,-1.01 0.9,1.47 0.81,0.37 0.18,0.55 -0.45,0.55 0.63,0.55 0.27,-1.84 -0.81,-0.55 -0.54,-1.29 -1.17,-0.09 -0.9,0.64 -0.81,-0.37 1.17,-1.93 2.07,0.46 0.54,-0.55 -0.63,0.28 -1.8,-0.73 -0.45,-2.21 -0.81,-0.64 -1.35,-0.18 -2.25,-1.65 -1.44,-3.77 -0.09,-1.56 -1.17,-0.83 0,0.65 0.63,0.55 0,0.46 -0.45,-0.01 -1.8,-1.71 0,-0.4 -0.99,-0.28 3.34,3.22 0.18,2.39 1.71,2.48 0.9,0.92 2.7,0.74 0.72,0.92 -0.18,0.92 -3.43,2.48 -0.63,-0.09 -1.62,-0.55 -0.99,-1.47 -4.69,-0.92 -1.71,-1.38 -0.63,-1.19 0,-1.1 -0.45,-0.28 0,1.38 0.63,1.29 1.71,1.75 3.52,1.66 -0.27,0.74 -2.61,0.37 -1.53,1.29 -0.72,-0.37 -1.71,0.55 -5.32,-0.37 -1.62,0.64 -1.62,2.02 2.98,-1.38 1.8,0.74 1.62,-0.64 0.54,0.9 0.72,0.02 0.99,0.92 1.35,-0.92 0.09,1.1 0.9,0.37 1.26,-0.46 0.63,-1.01 0.18,1.29 -1.8,1.01 -1.8,-0.28 -4.24,0.83 -0.9,-0.28 -3.88,1.38 -6.13,-0.09 -2.25,-1.29 -1.71,-1.65 -3.34,-5.15 0.18,-1.56 1.35,-2.57 1.08,-0.92 1.17,0.09 5.86,3.4 4.51,-0.18 -2.52,-0.64 -2.88,0.28 -3.42,-2.57 -0.27,-0.64 0.36,-0.37 2.25,-0.55 2.16,0.09 1.08,-1.1 -1.53,0.57 -5.5,0.26 -1.08,-3.03 -1.44,-1.29 -3.24,-4.6 -6.58,-5.15 -0.27,-2.76 -0.8,-0.74 -2.81,-0.18 -1.8,0.64 -0.45,1.2 0.45,1.84 -0.36,2.21 -2.61,3.86 -1.98,0.28 -1.71,-0.55 -0.45,0.55 -3.06,0.09 -0.18,-1.01 -1.53,-0.46 -2.34,-4.14 -1.53,-1.1 -1.8,-2.21 -0.9,-0.37 -0.18,-1.66 -0.9,0 -1.26,-1.01 -5.5,-0.46 -1.17,-1.47 -1.17,0.18 -0.18,0.65 -1.44,0.09 -1.17,-0.92 -1.17,0 -0.45,0.46 -0.45,-1.1 -0.45,-0.09 -4.6,0 -0.45,-0.28 0.09,-0.55 1.8,0.09 0.63,-0.74 -0.09,-1.01 -1.62,-1.01 0.09,-0.55 -0.81,1.1 1,-0.05 0.72,0.48 0.25,1.03 -1.7,0.1 -2.97,1.29 -0.9,-1.66 -0.09,-1.47 -0.99,-1.01 -1.62,-0.18 -1.17,-1.38 -0.54,-1.66 -1.53,-0.74 -0.27,0.55 1.35,0.37 1.44,3.22 2.25,1.01 0,0.92 -1.8,0.74 -0.73,-0.83 -1.24,-0.11 -0.64,0.67 0,1.01 0.45,0.18 -0.36,0.46 -1.8,-0.46 0.18,-1.29 -0.63,-0.74 -2.61,0 -0.63,0.19 0,-1.39 -0.45,-0.46 -1.35,0.83 0.63,0.37 0.72,-0.74 0,1.47 0.81,0.46 0.63,-0.37 1.62,0.37 0.54,1.56 1.62,0.64 1.89,0 0.9,-0.46 -3.06,4.51 -2.52,-0.37 -1.26,0.28 -0.81,-0.55 -2.34,-0.09 -0.81,1.01 -1.26,0.18 -2.43,-1.47 -2.88,-0.37 -1.89,1.56 0.27,1.1 -0.9,0.09 -2.07,-1.29 -2.8,-0.64 -1.26,0.64 -0.99,-0.55 0.09,0.74 1.44,0.46 1.53,-0.73 0.99,1.01 -0.09,1.29 -1.44,0.09 -0.18,0.55 -0.99,0.46 1.08,0 0.81,-0.55 0.54,0.64 -0.09,1.84 0.36,0.18 0.72,-0.37 0.63,-1.29 1.89,1.47 1.17,0 1.17,-1.47 1.35,-0.37 1.17,2.12 3.25,1.93 1.98,-0.09 0.54,-0.92 1.08,-0.37 0.99,0.64 0.81,1.56 1.17,0.18 1.17,-1.01 -0.27,-1.47 2.8,-1.19 1.35,-2.02 0.72,-0.09 0.18,0.74 0.63,0 1.53,-0.55 -0.09,-0.46 0.54,-0.18 2.43,0.46 5.32,-2.3 1.17,0 1.98,1.93 2.25,0.28 0.9,1.29 -0.18,1.38 0.81,-0.09 1.62,1.29 2.25,2.85 1.8,1.29 4.15,5.24 -0.54,0.64 -0.72,-0.11 -1.71,-1.18 -1.26,-0.18 -2.34,0 -3.79,0.83 -2.97,-1.38 -0.81,-1.56 -1.08,-0.46 -2.16,0.18 -2.16,1.47 3.88,-1.29 3.24,3.04 2.16,0.83 4.42,0 1.98,1.2 3.16,0.55 4.32,-0.37 2.07,1.47 0.72,1.2 1.62,0.65 0.72,1.2 2.16,-0.64 1.98,0.46 0.54,0.55 2.7,-0.18 0.9,0.83 0.81,0 1.08,1.1 -0.27,0.37 -0.81,-0.28 0.18,0.92 2.61,3.22 1.17,-0.18 0.09,-0.83 -0.45,-0.37 0.36,-0.55 3.15,-1.01 0.54,3.31 0.36,0.46 0.81,-0.18 0,0.74 -4.42,0 -10.72,-3.77 -17.93,-3.77 -16.04,-3.95 -24.78,-4.69 -13.52,-1.47 -10.91,-3.4 0,0 -0.17,-1.62 -1.04,-1.33 -5.91,-1.96 -2.52,-1.44 -2.07,-2.13 0.42,-2.08 1.4,-1.58 1.88,-0.88 2.27,-0.33 2.6,-2.27 3.61,-1.66 5.14,-5.16 1.85,-1.21 2.05,-4.2 2.22,-2.66 4.27,-1.7 0.39,-1.09 -0.25,-1.74 -2.11,-1.33 -0.97,-1.96 -0.18,-3.95 5.03,-10.27 5.03,-7.55 3.57,-9.46 2.3,-1.97 1.47,-2.4 0.24,-7.35 1.41,-4.36 0.66,-6.5 1.19,-2.48 -0.7,-4.22 0.7,-2.22 1.78,-1.42 2.73,0.25 0.96,-0.56 3.17,-6.41 1.38,-1.34 1.04,-2.63 1.47,-1.55 6.29,-1.87 7.07,-0.4 3.57,-1.14 0.79,-0.64 1.96,-5.11 3.09,-2.29 1.18,-4.36 3.2,-3.93 2.1,-1.62 2.51,-1.17 1.95,-2.78 2.31,-1.26 4.74,-1.4 1.68,-1.23 2.84,-4.94 -1.05,-2.47 z"
     title="Usulután"
     id="SV-US" />
</svg>
