<?xml version="1.0" encoding="UTF-8" standalone="no"?>
<!-- Created for MapSVG plugin: http://mapsvg.com -->
<svg
   xmlns:mapsvg="http://mapsvg.com"
   xmlns:dc="http://purl.org/dc/elements/1.1/"
   xmlns:rdf="http://www.w3.org/1999/02/22-rdf-syntax-ns#"
   xmlns:svg="http://www.w3.org/2000/svg"
   xmlns="http://www.w3.org/2000/svg"
   mapsvg:geoViewBox="21.770831 59.685430 28.208783 57.509646"
   width="611.58032"
   height="393.70874">
  
  <path
     d="m 380.82951,181.60311 0.53,0.8 -0.18,3.48 -0.33,1.32 -1.08,1.36 2.15,0.38 0.54,3.59 -1.01,1.75 -1.62,0.03 -0.71,1.33 -1.14,0.2 0.77,1.42 4.65,1.02 2.29,0.11 3.53,-1.24 1.64,0.15 4.04,2.33 2.66,0.52 -0.09,0.78 0.89,1.46 -0.58,0.31 0.19,0.4 -0.53,0.76 1.16,0.64 -0.02,1.83 0.97,-0.22 1.79,1.71 2.27,-1.67 0.44,6.3 5.21,4.48 1.13,-0.91 5.11,5.48 0,0 0.14,0.39 0.41,-0.05 -0.13,0.49 0.34,-0.07 0.2,1.01 0.43,0.26 -0.2,0.57 0.7,1.25 -0.4,0.98 1.24,1.63 0.61,2.88 0.85,1.32 -0.12,1.03 -1.63,-0.27 -0.84,1.01 -0.49,0.04 0.04,0.59 -1.01,0.78 -0.32,1.85 -0.84,0.07 -8.25,9.62 2.24,37.3 0,0 -2.47,0.33 -1.84,-0.27 -0.7,0.41 -0.05,1.08 -3.68,0.93 -0.06,1.07 -1.44,0.9 -0.91,0.27 -2.77,-0.43 -0.42,-3.37 -1.01,-1.24 -0.73,-1.94 -1.29,-1.31 -1.68,-0.64 -2.13,0.01 0.48,1.39 0.63,0.21 0.32,1.67 -1.32,0.23 0.15,0.9 -1.96,0.4 0.11,1.72 0.2,0.8 0.34,-0.07 0.71,-2.13 0.42,-0.06 0.27,2.16 0.42,0.62 -0.17,0.65 -1.56,-0.04 0.24,1.13 -0.67,0.09 -0.4,0.81 -0.92,-0.14 0.09,1.16 -0.45,-0.47 -1.03,0.2 -0.46,1.58 -0.73,-0.48 -0.6,0.96 -0.99,0.63 -0.35,-0.36 -2.8,0.14 1,1.26 -0.59,0.91 -0.75,0.15 -0.23,1.14 -1.16,1.24 -0.28,0.95 -0.86,0.17 -0.89,1.56 -1.04,0.86 -0.51,-1.31 -0.88,-0.25 -4.03,0.16 -0.28,0.33 -1.42,-0.49 -0.78,1.01 2.18,5.27 -0.69,0.54 -0.21,1.32 -2.58,5.27 0,0 -0.37,-1.25 -1.08,-1.43 -1.94,1.98 -0.65,-1.93 -2.28,0.45 -0.68,0.64 -0.81,-0.53 0.84,-0.93 -0.13,-1.11 -3.36,0.79 -1.46,-1.72 -2.44,-1.64 0.5,-1.15 1.57,-0.51 -1.28,-1.74 -4.01,-2.72 -4.27,-0.21 -2.76,-5.09 -4.25,-4.3 -0.53,0.22 -0.73,2.01 -0.95,0.37 -0.4,0.86 0.86,1.76 2.06,1.5 1,2.27 -0.21,2.53 -0.55,0.78 0.41,3.38 -1.55,0.74 -1.08,-0.7 -1.39,0.09 -0.48,-1.74 -0.82,0.04 -1.56,-2.43 1.56,-0.43 -1.06,-0.93 -0.47,0.02 -0.24,0.82 -0.23,-0.32 -0.62,-3.22 0.91,-2.06 -0.26,-0.18 -0.69,0.66 -0.47,-2.38 -0.64,-0.47 0.77,-1.47 -0.1,-1.09 -1.15,-1.06 -0.92,0.74 -0.5,-0.22 0.34,1.26 -3.36,-0.09 -2.01,-0.7 -2.5,0.5 -0.35,2.01 -2.15,0.05 -3.36,4.58 0,0 -0.48,-0.43 -0.12,-1.07 -0.45,0.22 -0.49,-3.76 -1.43,-0.78 0.03,-1.07 0.94,-2.24 3.84,-2.15 -0.93,-1.35 0.25,-1.68 3.9,0.05 0.97,1.24 0.46,-1.18 1.03,0.01 -0.09,1.06 0.49,0.13 0.61,-3.03 -0.73,-0.74 -0.79,0.25 -1.32,-1.65 0.05,-1.58 1.28,0.22 0.55,-1.03 -0.8,-1.33 0.08,-1.34 0.75,-0.72 0.74,1.25 0.57,2.03 -0.54,1.48 0.6,0.09 0.54,-0.22 -0.08,-0.7 0.77,-0.27 -0.09,-1.22 -0.51,0.16 -0.27,-0.45 0.1,-1.6 0.45,-0.59 1.22,-0.02 0.34,-1.83 -1.36,0 0.06,-1.01 1.78,-1.13 2.68,0.52 1.02,-0.48 0.09,-0.9 1.02,-0.72 0.57,0.07 0.58,0.7 -0.26,0.11 0.32,1.17 0.57,0.32 0.02,-1.35 1,0.02 0.39,-0.81 -0.51,-2.8 0.55,-0.7 -0.2,-1.37 -0.54,-1.35 -0.6,-0.33 -0.02,-0.73 0.19,-0.56 1.36,-0.85 1.31,-0.21 -0.45,-0.49 -0.37,-3.84 -8.21,-1.35 -2.35,-5.25 -1.59,-0.97 -1.74,0.38 -1.41,1.12 -0.56,-2.33 -0.11,0.6 -0.58,0.18 -4.61,-1.63 -5.61,1.25 -0.83,-3.74 1.48,-9.81 -0.28,-4.99 1.25,0.65 1.74,-2.33 -0.53,-8.91 1.85,-1.06 0.4,-2.61 2.48,-0.76 1.08,0.26 0.88,-1.95 1.56,0.26 2.35,-0.93 2.41,-2.83 0.81,-0.03 -0.05,1.21 0.41,-0.03 0.77,-1.06 0.62,0 0.22,-0.85 -0.6,-0.13 0.39,-0.61 -0.05,-1.44 0.41,-0.82 0.58,0.15 0.61,-0.38 -0.62,-1.07 0.26,-0.39 1.36,-0.61 2.95,-0.08 1.26,-0.47 -0.02,-0.43 -1.35,-0.62 0.24,-1.11 -0.66,-1.2 -0.15,-3.2 -0.38,-0.35 -0.47,0.95 -0.48,-0.27 0.57,-1.97 -0.26,-0.36 3.08,-1.6 0,0 0.86,1.42 4.11,0.54 1.05,1.2 3.45,-1.02 0.88,1.82 1.69,0.15 2.35,-1.29 3.59,0.38 1.99,0.82 1.06,-0.46 0.22,-0.54 -0.47,-1.1 2.42,-0.01 0.56,-1.46 1.87,-1.25 0.53,0.07 0.11,0.76 0.48,0.02 -0.21,0.76 0.48,0.48 1.22,-0.91 -0.35,-0.42 -0.7,0.04 0.09,-0.55 1.68,-1.31 3.32,0.69 1.74,-1.2 0.33,-1.11 1.85,-0.55 0.56,0.33 0.92,-0.24 0.87,-0.78 0.57,-2.64 1.02,-0.44 1.23,0.66 3.09,-0.64 2.01,-1.46 0.68,0.31 1.09,-0.87 1.17,-0.08 0.28,-1.03 z"
     title="Viljandimaa"
     id="EE-84" />
  <path
     d="m 460.86951,284.65311 3.2,-1.06 -0.2,-1.69 1.64,-1.72 -1.25,-0.21 -0.25,-0.63 0.2,-0.92 1.42,0.25 -1.28,-0.89 -0.55,-1.67 -0.2,-1.46 0.64,-1.04 0.82,0.77 2.73,0.09 1.32,-0.54 0.81,-1.35 1.52,-0.41 0.59,0.38 0.5,1.83 -0.73,2.25 1.18,-1.19 0.56,0.05 0.49,0.7 0.31,-1.06 0.65,-0.05 2.14,-1.58 1.89,-0.11 1.11,1.42 -0.12,-1.29 0.82,-0.33 1.03,-1.85 1.45,-0.36 0.08,-0.7 0.41,0.2 -0.03,-2.05 0.65,-2.59 0.51,-1.35 0.74,-0.11 0.23,-1.28 1.03,-1.18 0.8,-0.27 1,1.54 -0.41,0.89 0.58,1.65 1.01,-0.54 0.38,-1.55 1.75,0.47 0.72,-1.1 1.91,0.4 -0.37,1.51 0.58,0.99 2.53,-0.77 0.88,-1.28 0.72,1.44 1.61,-1.57 -0.4,-1.45 0.74,-1.5 -0.37,-1.1 0.47,-0.54 1.07,-0.1 0.54,0.88 1,0.16 1.2,2.32 2.96,-0.92 0.62,-0.07 0.08,0.47 0.69,-0.56 -0.05,-2.32 0.57,-0.67 1.11,0.11 1.14,2.23 0.72,0.2 4.29,-0.27 0.99,0.4 1.49,-0.07 0.32,1.08 3.4,0.39 -0.78,3.84 7.45,1.56 0.55,-0.86 3.33,2.25 0.74,-0.69 1.65,0.15 1.14,2.75 9.57,1.18 0,0 6.74,12.16 3.33,3.86 -0.67,1.09 -1.86,7.15 1.2,8.14 0.45,0.59 3,1.55 -0.44,-0.87 0.33,-0.95 -0.73,-1.72 0.02,-0.57 0.34,-0.07 0.72,0.23 0.74,1.36 2.33,0.88 -0.37,1.09 0.55,0.39 0.34,1.23 -1.75,3.01 0.61,0.69 0.02,1.59 -1.2,0.61 -1.01,-0.02 -0.34,0.45 1.26,1.55 -0.1,0.73 0.41,0.66 0.92,0.77 -0.06,1.59 3.17,0.7 -0.23,1.81 -1.71,0.75 0.95,0.98 2.38,-0.96 1.19,0.89 0.94,-0.09 0.39,1.04 0.76,0.39 2.11,-0.96 2.2,0.35 0.32,0.09 0.23,1.36 -0.81,0.82 0.46,0.53 -0.3,1.52 0.44,1.19 -0.19,0.87 -2.07,2.12 0.27,1.57 -0.65,-0.41 -1.22,1.76 -1.46,-0.32 -1.85,1.09 -2.05,-1.25 -1.05,-1.69 -0.8,1.26 -1.42,0.73 -2.18,-0.89 -3.54,-0.16 -3.61,1.18 -1.94,0.21 -1.49,-0.32 -0.19,0.37 0,0 -3.63,0 -0.6,0.32 -1.42,-0.58 -0.72,0.14 -0.33,-0.43 -1.29,0.16 -1.91,-0.83 -0.62,0.3 0,0 -0.63,-0.05 0,0 -0.68,-0.36 -2.59,0.37 -1.22,0.95 -0.64,-0.43 -0.56,1.39 -0.88,0.02 -0.94,1.76 -0.47,-0.39 0.13,-0.97 -1.04,0.38 -0.73,-0.38 -0.25,-1.01 -1.55,-0.14 -0.39,-2.19 -3.08,-0.13 0.57,-3.02 1.16,-1.34 -0.07,-1.19 1.12,0.39 0.75,-0.93 -0.12,-0.37 1.12,-0.04 0.2,-1.08 0.57,0.05 0.37,-0.68 0.22,-1.4 -1.07,-0.7 -0.92,0.29 -0.8,-0.88 0.58,-0.27 -0.26,-1.64 -1.08,-0.05 0.16,2.51 -0.56,0.86 -3.05,-1.87 -2.13,0.51 -2.72,-1.69 0.15,-0.77 -2.28,0.16 -0.42,0.4 -0.66,-1.95 -1.8,0.59 -0.26,-1.53 -1.67,-2.84 -1.79,0.2 -0.69,-0.63 0.35,-0.66 -0.29,-0.52 -1.94,1.81 -0.4,-0.15 -0.34,1.06 -1.39,-1 -0.35,0.19 0.14,0.64 -0.99,0.08 -0.28,0.94 0.99,1.82 0.31,1.52 1.86,1.6 -0.18,0.57 -3.21,-0.64 -0.03,-0.75 -3.07,0.27 -1.8,-0.32 0,-0.7 -0.37,-0.16 -0.17,0.77 -0.35,0 -0.79,-1.02 -0.86,0.04 -0.37,-3.68 -2.9,1.59 0,0.5 -1.71,0.68 -0.94,-0.11 -1.34,1.47 0,-1.61 -0.97,-0.02 -2.65,0.81 -1.5,-0.58 -3.17,1.7 -1.07,-1.34 -0.31,-1.05 -0.14,0.35 -1.5,0.11 -0.39,-0.46 -1.68,1.41 -0.54,-1.52 -0.99,0.13 -0.44,-0.5 -0.56,0.25 -1.31,-0.75 -0.37,-1 -0.48,-0.11 -1.04,1.07 -0.7,-0.28 -0.69,0.91 -2.36,0.1 -0.48,-0.85 -2.85,0.96 -1.05,-1.45 -1.15,-0.37 0.28,-0.95 -1.5,0.65 -0.71,-0.5 -0.11,-1.82 -0.89,-0.22 0,0 -0.11,-0.52 1.14,-1.09 -0.14,-1.73 0.52,-0.5 0.01,-0.77 -0.36,-0.52 0.83,-0.6 -1.13,-0.79 -0.67,-1.93 0.5,-1.02 0.78,-0.05 0.11,-1.99 0.71,-0.07 0.14,-2.95 -0.99,-0.41 -0.18,-1.51 0.6,-1.34 -0.85,-0.13 -0.34,0.67 0.17,-1.99 -0.45,-0.54 0.67,-1.83 1.6,-1.77 -0.22,-1.63 1.39,-2.08 0.15,-1.96 z"
     title="Põlvamaa"
     id="EE-65" />
  <path
     d="m 474.23951,32.29311 0.74,0.19 0.42,0.77 0.57,-0.15 0.74,1.59 1.92,0.69 5.15,3.71 2.94,3 4.96,2.03 9.65,0.67 8.52,-0.65 7.77,-1.27 14.81,-0.6 4.76,0.99 7.19,2.46 2.95,0.26 0.76,0.99 4.92,1.42 6.14,0.07 2.59,-0.33 2.77,0.47 2.24,-0.43 0.48,0.65 0.6,-0.06 -0.45,0.75 1.26,1.23 1.74,0.8 2.3,-0.07 0.47,0.47 3.19,-0.58 1.98,-0.89 0.81,0.54 4.33,-0.32 1.93,-0.99 3.46,-2.59 2.06,-2.1 2.22,-2.96 2.45,-4.49 0.64,1.36 2.83,0.99 1.5,1.17 2.61,2.72 1.5,3.52 2.35,1.4 3.3,2.98 1.02,2.42 -0.06,3.66 -0.5,1.47 -0.92,0.69 -0.32,1.38 -1.91,1.88 -1.17,3.36 -2.6,4.75 -6.77,-0.04 -3.77,1.34 -2.93,1.78 -2.64,0.33 -3.73,3.63 -1.06,1.56 -0.98,2.06 -0.41,6.11 -0.63,2.92 -1.57,2.37 -0.74,2.11 -3.33,3.05 -0.46,1.29 -1.75,2.22 -0.2,2.2 0.62,0.87 -1.99,2.88 0.26,4.02 -1.58,1.84 -0.36,1.46 0.32,1.49 -0.62,2.19 -1.6,0.2 -0.4,0.7 -0.62,3.59 0.33,2.5 -0.78,1.34 0.57,0.9 -0.24,0.7 -2.36,2.81 -24.89,24.01 0,0 -11.41,-4.23 -13.1,-1.76 -23.25,-0.11 -0.41,-0.73 -1.12,0.11 -1.12,-2.58 -2.37,-1.67 -3.56,-0.15 -1.8,-0.68 -0.54,1.71 -4.52,0.31 -2.81,0.99 -1.14,-1.56 -0.67,-3.06 -0.02,-1.82 0.79,-0.33 -0.23,-1.58 -1.4,-1.05 0.9,-2.17 -1.74,-1.74 -0.83,-0.07 -0.28,-1.6 0,0 1.81,-1.01 0.61,-1.14 4.59,-0.81 1.82,-2.5 0.23,-1.25 -0.53,-1.66 0.11,-2.52 1.95,-1.36 0.05,-0.46 0.03,-0.66 -1.32,-0.83 0.96,-15.23 0.3,-0.15 0.82,0.68 1.29,-0.9 1.42,-2.35 3.51,-0.41 0.41,-1.35 0.95,0.72 0.34,1.16 1.98,-0.09 0.67,-1.02 -0.44,-0.79 0.44,-3.34 1.1,-0.06 -0.45,-3.03 -1.19,0.15 -0.63,-0.72 1.02,-2.07 -1.09,-2.48 -0.82,-0.91 -3.43,-1.09 -3.51,-2.07 0.68,-0.91 -0.65,-5.19 -8.08,4.47 -0.84,-4.97 -1.01,0.06 0.77,-4.25 -0.65,-0.85 1,-0.57 1.15,-1.73 1.11,-4.27 0.91,0.22 0.46,-1.75 1.8,0.47 0.83,-1.69 -1.4,-0.11 -0.18,-0.82 -2.37,-1.28 -3.45,0.5 -1.1,-1.49 -0.61,0 -0.68,1.15 -0.97,-0.32 -0.25,-0.56 1.22,-1.75 2.63,-1.1 0.06,-0.8 0.7,0.02 -0.51,-0.6 0.93,-0.46 -1.86,-3.37 0.48,-0.24 -1.28,-1.02 0.27,-0.3 2.64,-1.23 1.26,1.66 2.16,0.37 -0.07,-2.35 -0.73,-2.57 0.1,-5.4 -0.71,-1.81 -1.03,-1.16 0.13,-1.46 -0.95,-0.73 0.21,-0.48 -0.57,-0.62 0.37,-0.75 0,0 0.41,-0.09 z"
     title="Ida-Virumaa"
     id="EE-44" />
  <path
     d="m 534.96951,181.89311 8.2,35.18 6.1,23.39 -6.23,11.33 0.24,13.96 3.57,6.83 0,0 -9.57,-1.18 -1.14,-2.75 -1.65,-0.15 -0.74,0.69 -3.33,-2.25 -0.55,0.86 -7.45,-1.56 0.78,-3.84 -3.4,-0.39 -0.32,-1.08 -1.49,0.07 -0.99,-0.4 -4.29,0.27 -0.72,-0.2 -1.14,-2.23 -1.11,-0.11 -0.57,0.67 0.05,2.32 -0.69,0.56 -0.08,-0.47 -0.62,0.07 -2.96,0.92 -1.2,-2.32 -1,-0.16 -0.54,-0.88 -1.07,0.1 -0.47,0.54 0.37,1.1 -0.74,1.5 0.4,1.45 -1.61,1.57 -0.72,-1.44 -0.88,1.28 -2.53,0.77 -0.58,-0.99 0.37,-1.51 -1.91,-0.4 -0.72,1.1 -1.75,-0.47 -0.38,1.55 -1.01,0.54 -0.58,-1.65 0.41,-0.89 -1,-1.54 -0.8,0.27 -1.03,1.18 -0.23,1.28 -0.74,0.11 -0.51,1.35 -0.65,2.59 0.03,2.05 -0.41,-0.2 -0.08,0.7 -1.45,0.36 -1.03,1.85 -0.82,0.33 0.12,1.29 -1.11,-1.42 -1.89,0.11 -2.14,1.58 -0.65,0.05 -0.31,1.06 -0.49,-0.7 -0.56,-0.05 -1.18,1.19 0.73,-2.25 -0.5,-1.83 -0.59,-0.38 -1.52,0.41 -0.81,1.35 -1.32,0.54 -2.73,-0.09 -0.82,-0.77 -0.64,1.04 0.2,1.46 0.55,1.67 1.28,0.89 -1.42,-0.25 -0.2,0.92 0.25,0.63 1.25,0.21 -1.64,1.72 0.2,1.69 -3.2,1.06 0,0 -0.23,-1 -1.79,0.25 -0.02,-2.43 -3.1,-1.11 -0.04,-2.1 -1.06,-0.93 -3.63,-0.58 -2.54,0.47 -0.95,1.69 -1.78,0.21 -2.49,1.92 -1.01,-0.75 -1.14,0.54 0.14,-1.46 -0.58,-1.88 -0.43,-0.31 0.23,-0.55 -0.28,-0.44 -1.06,0.6 -2.35,-1.17 -3.7,7.22 -1.71,-0.86 -1.4,0.27 -1.08,-0.27 -1.28,4.18 -5.89,-0.16 -5.68,-0.69 -0.45,-1.2 -1.69,0.88 -0.39,-0.32 -0.59,1.27 -0.57,-1.54 -2,0.7 -1.86,-0.92 0,0 -2.24,-37.3 8.25,-9.62 0.84,-0.07 0.32,-1.85 1.01,-0.78 -0.04,-0.59 0.49,-0.04 0.84,-1.01 1.63,0.27 0.12,-1.03 -0.85,-1.32 -0.61,-2.88 -1.24,-1.63 0.4,-0.98 -0.7,-1.25 0.2,-0.57 -0.43,-0.26 -0.2,-1.01 -0.34,0.07 0.13,-0.49 -0.41,0.05 -0.14,-0.39 0,0 0.41,-0.6 -0.5,-0.98 0.48,0.04 -0.01,-0.77 0.48,0.4 -0.23,-0.98 0.83,-0.59 -0.56,-0.35 0.93,-1.07 2,2.09 1.6,-1.18 1.7,1.03 8.23,-6.16 2.47,-0.75 0.82,-1.65 1.6,0.11 1.89,1.2 0.41,2.68 1.64,0.95 -0.54,-1.13 1.09,-2.99 0.49,0.09 1.01,-1.27 1.28,-0.47 0.63,0.85 1.59,-0.53 2.1,1.58 0.74,-0.04 0.72,-0.94 -1.1,-0.69 1.17,-1.03 4.29,-0.49 -0.63,1.47 -1.42,0.14 -0.02,0.55 1.15,0.72 0.59,-0.16 0.8,0.69 1.54,-1.51 2.42,2.51 1.94,1.23 0.86,-0.92 2.12,-0.33 0.94,-0.93 -0.89,-1.01 0.12,-1.96 0.4,-1.29 1.85,-1.93 -0.65,-1.29 2.35,1.47 0.87,1.91 0.71,0 0.94,1.31 0.68,-0.07 1.87,-1.29 0.18,-1.64 1.54,1 1.64,-1.25 2.14,0.63 0.17,-0.58 0.95,-0.4 0.01,-0.45 2.09,-0.29 -0.42,-1.53 2.42,-0.16 -0.31,-2.49 1.36,-7.84 1.01,-0.13 5.48,2.15 2.93,2.73 0.45,-0.09 0.23,-0.79 0.89,1.02 0.38,-0.13 -0.3,-1.14 0.71,-0.38 0.3,0.56 0.95,0.35 0.62,1.03 0.1,1.48 0.61,0.54 1.6,-0.04 0.15,-2.25 -0.86,-0.66 -0.59,-2.27 0.69,-1.36 -0.6,-1.13 -1.42,0.34 -0.12,-1.2 1.91,-0.87 0.71,0.51 1.35,-0.62 0.25,-1.19 1.39,-0.78 1.58,0.86 0.95,-2.15 -0.87,-0.97 0.27,-0.43 4.38,-1.99 0.67,0.36 0.15,0.59 24.14,-8.32 0,0 z"
     title="Tartumaa"
     id="EE-78" />
  <path
     d="m 338.34951,126.02311 1.24,-3.24 1.04,-0.37 1.61,1.29 2.51,-2.83 0.91,-6.89 -2.05,-3.24 2.79,-2.49 1.47,0.57 0.66,0.88 0.39,1.64 1.29,1.11 2.71,-5.79 -0.69,-0.81 -3.43,-1.64 0.18,-1.3 1.31,-2.21 -0.95,-1.98 0.81,-0.42 0.38,-1.3 0.5,-0.07 1.47,-3.29 1.08,-0.5 1.04,-1.3 -0.27,-0.31 2.66,-5.92 -1.62,-2.95 -0.67,-3.13 -2.91,-3.02 -0.41,-1.02 3.21,-0.07 2.82,1.2 2.68,-1.91 1.9,-0.27 0.72,0.22 1.73,1.71 2.26,1.18 0.11,-0.24 0.65,0.65 0.92,-0.95 0.46,0.08 0.17,-1.45 -0.74,-0.8 0.55,-0.51 1.91,-0.47 0.75,0.43 1.97,-1.82 1.29,0.52 2.93,-0.24 2.38,-2.39 0.65,-0.21 1.77,0.13 1.26,0.8 6.83,0.63 0.59,0.35 0.63,1.82 1,0.2 0.53,0.84 0,0 0.36,1.59 -1.35,0.45 0.03,1.3 1.04,0.42 1.7,-0.13 -0.7,4 0.22,1.28 1.85,-0.85 1.92,1.28 -0.98,2.22 -1.5,0.7 0.82,1.28 -1.04,0.61 0.04,0.81 1.92,0.02 1.68,1.67 1.66,-1.32 0.76,0.69 0.52,-0.33 0.9,4.36 -0.82,1.31 -1.57,0.3 -0.26,0.5 -0.68,1.4 -0.37,3.84 -1.6,-0.11 -1.38,1.48 -0.08,1.53 -0.81,0.65 0.46,2.45 -0.5,0.09 -0.08,1.72 -2.11,2.49 0.88,1.8 0.91,-1.66 1.42,1.86 1.23,-1.05 0.08,-0.97 1.34,0.97 1.65,2.05 3.27,-0.76 0.97,0.59 1.22,1.33 1.07,4.79 2.53,0.79 0.52,2.5 2.96,1.8 0.86,0.02 0.59,0.78 -0.47,2.44 0.96,0.99 -0.23,1.11 0.6,1.52 1.27,0.5 -0.49,3.25 1.05,2.29 -0.71,2.5 -0.62,0.79 0.13,0.55 -0.36,0.18 -0.02,1.1 0.59,0.52 0,0 0.37,0.91 -0.42,0.7 -0.92,-0.04 -0.4,-0.6 -0.85,1.28 -0.63,0.04 -0.12,1.5 -0.88,1.08 0.95,0.73 0.55,3.7 -0.55,0.44 -3.65,0.1 -0.41,0.42 -1.73,-0.19 -1.38,0.5 -0.17,-0.28 -1.04,0.92 -0.94,0.16 -1.15,-0.62 -0.41,1.06 0.29,1.15 -0.82,0.88 -1.63,0.26 -0.93,-0.86 -0.57,0.13 -0.05,0.47 -0.34,-0.13 -1.29,1.29 0.84,2.23 -0.14,1.08 0.66,1.11 -0.13,3.25 -3.77,2.71 -0.86,-2.41 -2.28,-1.56 -1.53,0.21 -0.16,1.62 0.41,0.64 -1.56,1.12 -0.15,0.78 -1.69,-0.57 -1.44,0.35 0.1,1.13 0.79,0.92 -0.38,0.78 0.34,0.17 -0.13,0.62 -2.01,1.78 -0.82,0.11 -0.19,1.15 -1.07,-0.25 -0.7,3.06 -0.76,1.37 0,0 -1,0.48 -0.28,1.03 -1.17,0.08 -1.09,0.87 -0.68,-0.31 -2.01,1.46 -3.09,0.64 -1.23,-0.66 -1.02,0.44 -0.57,2.64 -0.87,0.78 -0.92,0.24 -0.56,-0.33 -1.85,0.55 -0.33,1.11 -1.74,1.2 -3.32,-0.69 -1.68,1.31 -0.09,0.55 0.7,-0.04 0.35,0.42 -1.22,0.91 -0.48,-0.48 0.21,-0.76 -0.48,-0.02 -0.11,-0.76 -0.53,-0.07 -1.87,1.25 -0.56,1.46 -2.42,0.01 0.47,1.1 -0.22,0.54 -1.06,0.46 -1.99,-0.82 -3.59,-0.38 -2.35,1.29 -1.69,-0.15 -0.88,-1.82 -3.45,1.02 -1.05,-1.2 -4.11,-0.54 -0.86,-1.42 0,0 1.12,-0.91 4.55,-13.29 -4.58,-2.53 -4.91,-0.48 -0.46,-0.36 0,0 -0.18,-1.7 1.48,-3.34 -0.07,-1.85 1.57,-0.89 -1.69,-3.11 -0.81,-0.38 -0.95,-2.71 0.61,-1.3 1.6,0.81 0.39,-0.17 1.43,-2.08 0,-0.94 2.13,-1.57 -0.71,-1.06 1.1,-2.22 1.04,-1.12 -0.63,-0.91 0.94,-0.57 -1.3,-1.71 -0.26,0.33 -0.98,-0.27 -0.78,-2 -0.66,-0.33 0.3,-0.86 0.78,-0.17 0.95,-3.33 4.3,-2.57 0.87,-6.65 -2.36,-3.62 3.81,-2.12 z"
     title="Järvamaa"
     id="EE-51" />
  <path
     d="m 455.51951,314.18311 0.89,0.22 0.11,1.82 0.71,0.5 1.5,-0.65 -0.28,0.95 1.15,0.37 1.05,1.45 2.85,-0.96 0.48,0.85 2.36,-0.1 0.69,-0.91 0.7,0.28 1.04,-1.07 0.48,0.11 0.37,1 1.31,0.75 0.56,-0.25 0.44,0.5 0.99,-0.13 0.54,1.52 1.68,-1.41 0.39,0.46 1.5,-0.11 0.14,-0.35 0.31,1.05 1.07,1.34 3.17,-1.7 1.5,0.58 2.65,-0.81 0.97,0.02 0,1.61 1.34,-1.47 0.94,0.11 1.71,-0.68 0,-0.5 2.9,-1.59 0.37,3.68 0.86,-0.04 0.79,1.02 0.35,0 0.17,-0.77 0.37,0.16 0,0.7 1.8,0.32 3.07,-0.27 0.03,0.75 3.21,0.64 0.18,-0.57 -1.86,-1.6 -0.31,-1.52 -0.99,-1.82 0.28,-0.94 0.99,-0.08 -0.14,-0.64 0.35,-0.19 1.39,1 0.34,-1.06 0.4,0.15 1.94,-1.81 0.29,0.52 -0.35,0.66 0.69,0.63 1.79,-0.2 1.67,2.84 0.26,1.53 1.8,-0.59 0.66,1.95 0.42,-0.4 2.28,-0.16 -0.15,0.77 2.72,1.69 2.13,-0.51 3.05,1.87 0.56,-0.86 -0.16,-2.51 1.08,0.05 0.26,1.64 -0.58,0.27 0.8,0.88 0.92,-0.29 1.07,0.7 -0.22,1.4 -0.37,0.68 -0.57,-0.05 -0.2,1.08 -1.12,0.04 0.12,0.37 -0.75,0.93 -1.12,-0.39 0.07,1.19 -1.16,1.34 -0.57,3.02 3.08,0.13 0.39,2.19 1.55,0.14 0.25,1.01 0.73,0.38 1.04,-0.38 -0.13,0.97 0.47,0.39 0.94,-1.76 0.88,-0.02 0.56,-1.39 0.64,0.43 1.22,-0.95 2.59,-0.37 0.68,0.36 0,0 0.63,0.05 0,0 0.62,-0.3 1.91,0.83 1.29,-0.16 0.33,0.43 0.72,-0.14 1.42,0.58 0.6,-0.32 3.63,0 0,0 0.99,0.4 -0.44,1.45 -0.75,-0.05 0.09,1.02 0.68,-0.04 0.06,0.34 -0.99,0.28 -0.14,0.82 -0.68,0.3 0.31,0.64 -0.21,1.89 -0.48,0.51 -0.3,-0.25 -0.53,0.36 -0.52,-0.52 -0.86,0.64 -0.65,-0.39 -0.48,0.45 0.95,0.69 0.71,1.6 -0.44,1.78 1.89,1.56 -1.41,1.08 1.58,0.11 -0.08,1.58 0.88,1.12 0.61,0.12 -1.68,0.92 -0.36,3.41 -1.34,-0.48 -0.32,0.89 -0.74,0.07 -0.48,-3.16 -0.6,0.83 -1.22,0.45 -0.67,1.49 -1.75,-1.32 -1.64,1.35 -0.13,1.69 -1.5,0.02 0.19,0.63 -3.19,3.35 -0.82,1.95 0.71,0.68 -0.19,0.77 0.53,0.46 -0.47,0.93 0.15,0.79 0.78,1.15 1.05,0.62 -0.02,1.47 -1.02,0.92 0.08,0.48 0.18,0.44 1.19,-0.23 0.12,0.71 -1.86,1.34 -0.56,1.19 -1.47,-0.37 -1.12,0.77 -2.81,3.33 0.07,0.99 0.72,1.2 -0.14,1.11 0.67,1.06 -0.11,1.09 1.12,2.12 0.24,2.86 -0.5,-0.72 -2.01,-0.09 -2.77,-2.56 -1.41,-0.11 -0.33,-1.02 -1.01,-0.03 -0.31,-0.87 -2.14,0.28 -1.18,-1.06 -3.01,0.41 -3.15,-1.32 -3.8,-0.36 -1.72,-0.93 -1.93,-1.86 -1.26,-0.02 -0.99,-0.86 -1.48,0.05 -0.94,-0.67 0.55,-0.71 0.14,-1.38 -1.21,-1.32 -3.38,-0.07 -0.25,-0.78 -1.34,-0.55 -0.91,1.48 -0.68,-0.12 -1.37,0.55 -0.66,-1.22 0.88,-0.96 0.02,-0.93 -1.13,-0.32 -1.21,-2 -1.66,-0.05 -1.15,1.52 -2.91,1.55 -0.65,0.87 0.38,0.78 -0.26,2.39 -0.93,0.28 -1.35,1.47 -1.77,0.51 -1.32,-0.36 -0.74,1.51 -1.58,-1.29 0.09,0.7 0.69,0.53 -0.93,2.32 -1.81,-0.28 1.43,-1.66 -0.09,-0.62 -2,-0.83 -1.38,-1.19 -0.52,0.94 0.74,1.11 -0.71,1.08 -0.74,-0.42 -1.23,0.74 -1.14,-0.81 -0.1,0.86 -2.15,0.18 -0.42,0.81 0.89,0.14 -0.07,0.51 -0.56,0.37 -2.04,0 -3.51,4.58 -0.03,3.37 -2.29,-1.29 0.26,-1.31 -0.36,-0.12 0.09,-2.01 -0.35,-0.43 -0.72,1.17 -1.35,0.62 -0.16,1.09 0.39,0.81 -0.71,1.01 -3.22,-0.64 -2.4,-1.52 -1.09,-3.4 -0.06,-1.5 -1.73,-4.08 0,0 0.84,-0.83 0.82,-2 -3.56,-0.32 0.41,-0.79 0.31,0.31 0.37,-0.37 0.57,0.57 2.89,-5.34 -5.32,-4.46 2.6,-4.2 2.42,-2.07 0.94,-1.4 -0.44,-2.27 -0.57,-0.43 -0.49,0.32 0.02,-1.77 -0.57,-0.07 -0.69,1.2 -0.48,-0.05 -0.03,-1.81 -1.06,-1.99 -0.93,-0.78 0.34,-1.19 0.59,0.13 0.44,-0.66 1.16,0.32 0.66,-1.07 1.05,-0.35 -0.6,-1.19 0.08,-1.55 -0.59,-0.46 1.26,-0.42 0.05,-2.08 -1.16,-0.98 -0.78,0.05 -1.23,1.19 -0.62,-0.28 -1.02,0.27 -0.38,0.71 -0.28,-0.22 -0.22,-1.99 -0.52,-0.64 -0.91,0.02 -0.15,-1.3 -0.44,-0.14 1.31,-1.55 0.02,-0.64 -1.08,-2.24 0.2,-1.08 -0.66,-1.11 0.09,-0.64 2.08,-1.4 -1.63,-2.46 -2.18,-0.11 -0.66,-0.68 -0.48,0.22 -1.26,-1.18 2.02,-0.75 0.57,-2.37 1.71,-1.55 0.08,-1.21 -0.56,-0.75 0.16,-1.3 -1.56,-1.29 1.06,-2.17 0.74,-0.13 0.53,0.93 0.97,0.2 2.19,-1.23 1.82,-0.04 0.44,0.59 0.63,-0.06 0.11,-1.78 1.19,-1 0.86,0.2 0.51,0.59 2.03,-0.38 0.25,-0.48 1.51,0.59 0.73,-0.97 z"
     title="Võrumaa"
     id="EE-86" />
  <path
     d="m 211.92951,278.64311 1.91,0.56 -1.1,3.03 0.32,1.44 -0.77,1.35 0.23,0.59 -1.02,0.99 -0.58,1.76 -1.22,-0.02 -0.71,0.68 -0.56,-0.34 -1.13,-3.44 0.99,-4.02 -0.36,-0.34 0.49,-0.84 -0.22,-0.57 3.73,-0.83 z m 13.09,-12.51 -0.46,0.2 -0.93,2.82 -2.14,0.61 0.42,-1.74 0.27,0.52 0.77,-0.27 0.49,-1.56 0.85,-0.11 0.26,-1.04 1.09,-1.22 -0.62,1.79 z m -33.72,-21.11 0.1,0.65 0.8,0.6 -0.05,1.05 -2,-2.35 0.34,-1.3 0.81,1.35 z m 32.98,-64.99 5.23,4.5 4.5,-1.57 4.64,2.17 6.59,1.46 3.01,1.48 0.37,-1.17 2.54,-1.86 1.35,-0.82 2.77,-0.8 1.31,-1.64 0.91,-4.54 3.72,-2.14 0.79,-1.51 0.95,-0.66 0.68,-0.07 0.85,0.53 2.39,2.57 -1.59,1.59 -0.14,0.56 0.44,0.13 0.14,0.91 2.71,-0.4 0.86,-0.82 5,-2.39 2.42,-4.75 2.41,1.13 1.53,-0.6 1.19,1.32 1.08,0.13 1.9,1.31 2.44,-0.8 0.67,0.84 1.58,-0.4 1.47,-2.25 2.73,-1.73 0.67,0.8 1.28,0.4 0.17,0.75 1.64,0.53 1.48,1.77 -1.14,5.57 0.18,2.42 0.43,1.97 0.41,0.16 0,1.28 0.65,0.97 -0.16,0.44 0.83,0.29 0.65,-0.6 0.71,-0.04 0.73,-3.39 0.97,-0.36 0.48,-2.17 0.25,-0.42 1.15,-0.15 0.74,-1.82 1.34,0.29 0.65,-1.04 0.98,-0.15 -0.03,0.91 0.93,0.33 1.72,-0.46 0.46,-1.62 1.38,-1.02 -0.52,-0.68 1.1,0.16 0.26,0.62 4.63,0.37 2.54,0.69 1.18,-0.8 3.44,-0.33 0,0 0.46,0.37 4.91,0.48 4.59,2.54 -4.56,13.28 -1.12,0.91 0,0 -3.07,1.6 0.26,0.36 -0.57,1.97 0.48,0.27 0.47,-0.95 0.38,0.35 0.15,3.2 0.67,1.2 -0.25,1.11 1.36,0.62 0.02,0.44 -1.26,0.47 -2.95,0.07 -1.36,0.62 -0.26,0.38 0.62,1.07 -0.61,0.38 -0.59,-0.15 -0.41,0.82 0.06,1.44 -0.4,0.62 0.61,0.13 -0.22,0.85 -0.63,0 -0.77,1.05 -0.41,0.04 0.05,-1.22 -0.81,0.04 -2.41,2.83 -2.35,0.93 -1.56,-0.25 -0.88,1.94 -1.07,-0.25 -2.49,0.76 -0.4,2.61 -1.85,1.05 0.53,8.91 -1.74,2.33 -1.25,-0.65 0.28,4.99 -1.48,9.81 0.83,3.74 5.61,-1.25 4.61,1.62 0.58,-0.18 0.11,-0.6 0.56,2.33 1.4,-1.12 1.74,-0.38 1.6,0.97 2.35,5.25 8.2,1.35 0.37,3.84 0.46,0.49 -1.31,0.22 -1.37,0.85 -0.19,0.56 0.03,0.74 0.6,0.32 0.54,1.35 0.2,1.37 -0.55,0.7 0.51,2.81 -0.4,0.81 -1,-0.02 -0.02,1.35 -0.57,-0.32 -0.32,-1.17 0.27,-0.11 -0.58,-0.7 -0.57,-0.07 -1.02,0.72 -0.09,0.9 -1.02,0.49 -2.68,-0.52 -1.78,1.13 -0.06,1.01 1.36,0 -0.34,1.83 -1.22,0.02 -0.46,0.59 -0.09,1.6 0.27,0.45 0.51,-0.16 0.09,1.22 -0.77,0.27 0.09,0.7 -0.54,0.22 -0.6,-0.09 0.54,-1.47 -0.57,-2.03 -0.74,-1.26 -0.75,0.72 -0.08,1.35 0.81,1.33 -0.55,1.02 -1.28,-0.22 -0.06,1.58 1.32,1.65 0.8,-0.25 0.73,0.74 -0.62,3.03 -0.48,-0.12 0.09,-1.06 -1.02,-0.02 -0.47,1.18 -0.97,-1.24 -3.9,-0.05 -0.25,1.69 0.93,1.35 -3.84,2.15 -0.94,2.24 -0.03,1.08 1.43,0.77 0.48,3.76 0.46,-0.21 0.11,1.07 0.48,0.43 0,0 -2.31,3.58 -1.13,1.02 -1.43,0.66 -3.91,-0.29 -9.83,6.51 -1.66,0.45 -2.12,-3.11 -6.26,1.39 -0.09,3.16 -2.68,0.61 -2.07,2.54 -1.72,-2.12 -2.35,0.21 -0.5,0.22 0.12,1.05 -1.59,1.93 -0.52,-0.07 -1.39,-1.78 -2.2,-1.71 -1.43,1.57 -2.03,0.5 -0.58,0.86 -1.86,-0.16 -0.6,1.87 -0.69,0.09 0.12,0.8 -4.57,1.09 -1.52,2.59 0.1,0.36 1.25,0.43 -0.67,1.55 0.65,3.14 -4.45,2.46 -0.32,0.02 -0.37,-1.1 -3.4,-0.62 -1.34,0.16 -0.3,-0.68 0.72,-1.09 -0.03,-1.8 1.26,-2.48 0.47,-1.98 0.81,-0.62 0.17,-4.89 1.28,-2.52 0.25,-2.45 1.57,-3.79 0.55,0.07 1.67,-1.81 0.39,-2.95 1.19,-2.61 1.82,-5.77 0.04,-2.22 -0.55,-0.64 0.51,-0.52 -0.3,-0.61 -1.02,-0.61 -0.05,-0.77 0.89,-1.25 0.26,-1.56 -0.4,-1.02 0,-0.82 0.09,-0.5 0.8,-0.2 -1.05,-1.96 0.65,-1.15 -0.23,-1.13 -0.84,-1.02 -0.14,-2.3 -0.46,-0.5 -0.83,0.74 1.39,-5.21 0.48,-0.9 -0.89,-0.99 1.52,-1.58 -0.39,-0.76 0.76,-1.87 -0.3,-0.99 -1.17,-0.76 0.31,-0.63 1.11,0.22 0.7,-1.76 2.05,-0.72 1.23,-1.33 2.62,-1.37 2.4,-2.77 0.68,-1.21 0.18,-3.7 -0.6,-2.27 -1.39,-1.95 -3.11,-4.42 -0.62,0.04 -3.53,-1.3 -0.64,-1.39 -0.53,-0.25 -0.6,0.16 -1.34,-0.2 -0.94,-0.25 -0.92,-0.49 -2.02,-0.13 -2.29,0.45 -5.62,0.16 -1.97,0.8 -0.94,0.92 -0.81,1.99 -0.05,3.21 -0.47,1.79 0.32,1.86 -0.95,2.42 -0.24,2.85 -1.29,2.27 0.66,1.21 -0.6,0.34 -3.17,0.38 -1.08,0.74 -0.55,-0.29 -0.78,0.18 -0.78,-0.11 -1.45,1.01 -1.06,-1.12 -0.47,0.81 0.25,0.36 -1.09,0.47 0.24,0.63 -0.67,0.85 -0.83,0.06 -0.46,0.36 -0.46,1.15 -1.33,0.67 0.16,1.67 -0.6,0.52 -0.32,-1.96 -2.33,-1.12 -1.45,-0.9 -1.01,-2.09 -0.35,-2.02 -0.65,-0.32 -0.71,-1.33 -0.28,-1.96 -0.96,-1.46 -0.37,0.22 -0.37,-0.34 -1.19,-3.23 -1.04,-0.05 -0.23,0.29 0.6,2.74 -0.3,1.53 -1.2,-2.52 -0.74,-0.49 0.1,0.49 -0.02,0.88 -0.72,-0.77 -0.06,-0.9 -0.52,-0.16 -0.65,-1.41 -0.82,-0.7 -1.02,0.18 -0.33,0.87 -2.36,-1.7 -0.44,2.76 -0.44,0.23 -1.68,-1.46 -0.79,-0.05 -2.28,-4.77 -1.47,-1.97 -1.02,0.49 0.11,1.26 -0.62,0.43 0.55,1.57 -1,0.23 -1.68,-1.46 -0.66,0.56 -0.47,-0.32 -0.03,-0.67 -0.7,-0.09 -0.96,-1.26 -0.25,0.27 -0.35,1.35 -0.02,0.6 0.19,1.66 -1.23,-0.51 -1.33,-2.13 0.56,-0.6 -0.03,-1.66 -0.83,-1.03 0.03,-0.92 -0.8,-0.98 0.03,-0.52 -1.03,-0.99 -0.17,-2.19 -0.76,-1.28 0.03,-0.87 -1.56,-2.41 -0.27,-1.75 -0.43,-0.72 -0.48,-1.74 0.1,-0.81 0.45,-0.2 0.23,-1.63 -0.26,-0.51 0.15,-2.3 0.68,-1 -0.17,-1.43 -0.84,-0.25 0.42,-1.45 0.57,-0.15 -0.07,-1.05 -1.07,-0.76 0.41,-0.58 -0.38,-0.47 0.86,-0.49 -0.01,-0.34 -0.81,-0.14 0.48,-0.85 -0.98,0.47 0.16,-1.12 -0.46,0 -0.41,0.45 -0.66,1.09 0.38,0.65 -0.84,0.56 -0.45,-0.09 0.13,-0.85 -1.12,0.24 -0.39,-0.83 -0.81,-0.29 -0.52,-1.11 -0.84,-1.22 -0.41,0.44 0,0 1.72,-2.31 0.76,1.02 1.62,0.58 1.41,-1.47 2.46,-0.44 1.62,0.16 1.7,1.87 1.29,0.64 1.11,-1.4 2.05,0.8 0.83,-1.36 1.49,-0.8 1.42,-0.16 0.59,-1.62 1.57,0.93 0.41,-0.27 1.5,0.62 0.88,-1.05 1.22,0.58 1.88,-0.24 1.57,1.09 -0.04,-2.45 -0.92,-0.71 -1.33,-2.05 -2,-4.47 -0.19,-0.87 1.48,-0.91 -0.9,-2.98 -1.34,-1.66 0.65,-0.38 2.21,1.89 -0.21,0.91 3.66,2.66 1.61,0.42 1.01,-1.71 0.24,-1.25 2.84,-1.42 -0.05,-2.84 -0.63,-2.46 -0.61,-0.44 -0.1,-2.3 0.36,-0.49 1.85,-1.06 0.95,0.95 0.2,1.08 3.36,0.68 -0.33,-0.82 4.49,-1.29 0.42,0.49 2.53,-2.06 1.09,-1.81 z"
     title="Pärnumaa"
     id="EE-67" />
  <path
     d="m 398.61951,7.54311 1.11,-0.43 -0.24,0.86 0.71,0.02 -0.16,0.41 0.45,0.28 0.5,-0.28 -0.14,0.64 -0.61,-0.11 -0.36,0.66 0.96,0.49 0.12,-0.37 0.39,-0.09 -0.46,1.03 0.64,0.62 0.69,-0.13 1.64,-1.37 0.31,-1.37 0.42,0.02 0.29,0.86 0.8,0.06 1.54,-1.09 -1.02,1.52 0.01,0.68 0.41,-0.21 0.85,0.92 0.35,0.67 0.06,0.69 1.65,0.73 0.83,-0.19 1.08,0.67 0.07,0.47 -0.5,-0.51 -1.03,0.62 0.1,0.88 1,1.37 1.76,-0.26 2.77,0.51 7.24,-0.77 4.5,0.43 0.76,1.18 0.47,-0.07 0.65,1.35 1.17,0.38 2.34,2.69 1.1,0.19 2.4,-0.43 1.01,1.16 4.62,0.54 0.2,0.52 1.09,0.04 -0.18,0.97 1.93,1.25 1.1,-0.09 0.28,0.77 0.5,0.28 0.23,0.95 1.37,0.93 0.26,0.64 1.16,0.45 0.46,-0.6 -1.2,-0.88 1.42,0.23 2.8,-0.88 0.02,0.6 0.54,0.28 2.33,-0.82 1.65,-3.08 -0.2,-0.99 -1.74,-1.14 1.75,0.45 0.2,-1.29 0.6,1.09 0.76,-0.24 0.12,-0.41 1.42,0.45 0.4,0.8 2.31,-0.02 0.84,1.08 0.13,0.3 0.71,0.45 2.13,0.09 1.25,1.33 1.09,0.09 -0.05,1.01 0.6,0.82 0.5,-0.54 0.72,0.54 0.98,-0.65 0.43,0.39 -0.29,0.78 0.45,0.3 -0.66,0.88 0.43,0.26 -0.09,0.41 1.32,0.43 -0.05,0.71 0,0 -0.37,0.75 0.57,0.62 -0.21,0.49 0.95,0.73 -0.13,1.46 1.03,1.16 0.71,1.81 -0.1,5.41 0.73,2.57 0.07,2.35 -2.16,-0.37 -1.26,-1.66 -2.64,1.23 -0.27,0.3 1.28,1.02 -0.48,0.24 1.86,3.37 -0.93,0.47 0.51,0.6 -0.7,-0.02 -0.06,0.8 -2.63,1.1 -1.22,1.75 0.25,0.56 0.97,0.32 0.68,-1.15 0.61,0 1.1,1.49 3.46,-0.5 2.37,1.28 0.18,0.82 1.4,0.11 -0.83,1.69 -1.8,-0.46 -0.45,1.75 -0.91,-0.22 -1.11,4.27 -1.15,1.73 -1,0.57 0.65,0.85 -0.77,4.25 1.01,-0.06 0.85,4.97 8.08,-4.47 0.65,5.19 -0.68,0.91 3.51,2.07 3.43,1.09 0.83,0.91 1.09,2.48 -1.02,2.07 0.63,0.72 1.19,-0.15 0.46,3.03 -1.1,0.06 -0.44,3.35 0.44,0.8 -0.66,1.02 -1.98,0.09 -0.34,-1.16 -0.95,-0.72 -0.41,1.35 -3.51,0.41 -1.42,2.35 -1.29,0.9 -0.82,-0.68 -0.3,0.15 -0.96,15.23 1.32,0.83 -0.03,0.66 -0.05,0.46 -1.94,1.36 -0.11,2.52 0.53,1.66 -0.23,1.25 -1.82,2.5 -4.59,0.81 -0.61,1.14 -1.81,1.01 0,0 -0.75,-0.04 -0.33,-0.99 -0.9,0.17 -6.13,2.66 -2.46,1.98 -3.3,1.6 -2.15,-0.11 0.46,-0.66 -0.29,-1.17 -1.19,-0.75 -3.8,0.68 0.19,0.99 -1.73,0.81 0.29,2.02 -1.78,0.31 0.84,3.14 -0.2,0.66 -1.42,0.5 0.16,1.65 -2.53,0.51 -0.65,0.48 0.1,0.88 -0.61,0.39 -1.19,-0.42 -2.2,0.35 -0.28,-0.79 -0.69,0.13 -0.28,-1.6 -0.79,-0.48 -0.66,-1.71 -0.72,-0.13 -0.36,-0.66 0.82,-0.51 -0.61,-2.33 -2.55,0.11 -1.55,0.57 -0.69,1.3 -0.74,-0.75 -0.9,0.24 -0.31,2.7 -2.09,0.73 -8.3,0.81 0,0 -0.59,-0.51 0.02,-1.1 0.36,-0.18 -0.13,-0.55 0.62,-0.79 0.71,-2.5 -1.04,-2.29 0.48,-3.25 -1.26,-0.5 -0.61,-1.52 0.24,-1.1 -0.97,-0.99 0.48,-2.44 -0.59,-0.77 -0.86,-0.02 -2.96,-1.8 -0.51,-2.5 -2.53,-0.79 -1.07,-4.79 -1.22,-1.33 -0.97,-0.59 -3.27,0.76 -1.65,-2.05 -1.34,-0.98 -0.08,0.98 -1.23,1.05 -1.42,-1.86 -0.9,1.66 -0.88,-1.81 2.11,-2.49 0.09,-1.71 0.49,-0.09 -0.45,-2.45 0.81,-0.65 0.09,-1.53 1.38,-1.48 1.6,0.11 0.38,-3.84 0.68,-1.4 0.27,-0.5 1.57,-0.29 0.82,-1.31 -0.9,-4.36 -0.51,0.33 -0.76,-0.68 -1.66,1.31 -1.68,-1.66 -1.92,-0.02 -0.05,-0.81 1.04,-0.61 -0.82,-1.28 1.51,-0.7 0.98,-2.22 -1.93,-1.28 -1.84,0.85 -0.23,-1.28 0.7,-4 -1.7,0.13 -1.03,-0.43 -0.04,-1.3 1.35,-0.44 -0.35,-1.59 0,0 3.1,-0.5 0.9,-0.76 -0.79,-1.41 0.36,-1.02 -1.17,-3.6 0.46,-1 -1.02,-4.77 0.28,-1.73 -0.69,-2.88 -0.96,-1.88 -1.89,-2.06 -0.16,-2.16 -1.1,-1.08 0.54,-0.69 -0.5,-0.91 1.18,-2.14 -0.06,-0.74 -0.84,-1.08 -0.6,0 -0.24,-1.51 -1.9,0.19 -1.26,-0.32 -1.48,-11.47 -1.33,-2.5 0.09,-0.62 -1.6,-0.45 0.17,-1.25 -0.48,-1.66 3.39,-1.4 0.9,-1.57 -1.01,-1.53 0,0 1.81,-1.33 0.63,0.6 1.31,-1.01 0.24,-2.53 -0.69,-1.03 0.53,-1.24 -0.65,-2.53 0.3,-2.42 1.02,1.61 2.93,0.3 0.46,-0.47 1.01,3.02 -1.25,1.82 -0.04,1.27 0.59,0.69 1.31,0.66 1.77,0.06 1.83,-0.84 0.7,-1.09 0.1,-1.57 -0.5,-0.56 0.28,-1.7 -1.22,-5.32 0.26,0.56 z"
     title="Lääne-Virumaa"
     id="EE-59" />
  <path
     d="m 124.91951,168.22311 0.08,0.8 -1.31,-0.62 0.76,-0.62 0.47,0.44 z m -2.83,-2.34 -0.64,2.01 -0.07,-0.77 -1.1,-0.97 0.76,-0.26 -0.21,-0.95 0.39,-0.26 1.01,0.64 -0.14,0.56 z m -17.12,-1.86 1.19,0.66 -0.24,0.18 0.42,0.81 -0.5,0.62 -0.07,-0.68 0.28,0.04 -0.34,-0.53 -0.3,-0.04 -0.26,0.09 -0.48,0.17 0.05,-0.38 0.07,-0.33 -0.5,-0.06 0.68,-0.55 z m 10.94,-5.25 0.48,1.67 1.53,0.62 0.23,1.74 -0.42,0.4 0.07,0.57 -0.58,-1.28 0.1,-0.73 -1.46,-0.97 -0.67,-0.95 0.19,-1.01 0.53,-0.06 z m -11.36,-1.91 0.89,0.07 -0.16,0.73 1.01,0.42 -1.76,1.3 0.25,0.29 -0.33,1.37 0.41,1.15 0.68,0.06 0.1,0.53 -0.42,0.07 0.54,0.75 -0.28,0.29 -0.61,-0.29 -0.75,0.62 0.13,-0.79 -1.05,0.33 -0.29,-0.33 -0.75,0.84 0.48,1.04 -0.87,-0.11 -0.3,-0.66 -0.61,0.18 -0.05,0.91 -0.34,-0.31 -0.829998,1.66 0.499998,0.4 0.05,0.81 -0.459998,-0.53 -0.83,0.26 -0.53,-0.69 0.49,0.04 0.41,-1.26 -0.71,-0.15 0.01,1.04 -0.28,-0.26 -0.58,0.35 -0.42,-0.42 -0.57,0.33 0.12,-1.08 -0.52,-0.48 0.01,-0.38 -0.93,-0.58 -1.38,-3.35 0.91,0.33 1.48,2.25 0.67,-0.49 -0.65,-0.73 -0.48,0.07 -0.02,-0.55 0.9,0.11 -0.13,0.36 0.35,0.28 1.65,-0.79 0.35,-0.84 0.01,-2.6 0.57,0.24 0.729998,-0.88 0.48,-0.02 0.66,0.9 1.1,0.22 1.95,-2.03 z m 18.79,-0.36 0.88,1.59 -1.08,2.69 -0.88,-0.99 0.77,-0.55 -0.08,-0.71 0.62,0.15 -1.05,-2.14 0.82,-0.04 z m 5.47,-1.65 0.36,0.49 1.09,0.22 0.07,0.93 -0.49,-0.16 -1.31,0.95 -0.75,-0.73 -0.31,-1.55 0.83,-0.69 0.51,0.54 z m -11.93,-17.6 0.79,0.24 0.53,1.12 0.4,-0.31 0.09,0.39 1.87,0.99 0.48,2.2 -1.03,1.21 -0.07,0.61 -1.96,-2.26 -0.03,-2.59 -1.17,-0.92 0.1,-0.68 z m -38.619998,-28.27 0.9,-0.05 1.6,1.22 3.47,-1.16 3.83,2.82 0.3,0.66 -0.95,0.61 -0.42,3.74 0.67,1.73 -0.25,1.16 0.52,0.61 -0.25,1.03 1.52,2.25 2.4,0.63 1.78,-0.86 0.31,0.5 1.74,0.42 0.98,0.75 0.94,-0.04 1.06,0.59 1.15,-0.39 1.349998,0.86 0.4,-0.33 -0.43,-0.48 0.82,-0.85 1.25,1.14 0.95,-0.02 -0.14,0.66 1.16,1.12 -0.06,1.18 0.95,0.31 0.34,0.7 0.9,-1.01 0.4,0.46 0.06,-0.79 0.33,-0.02 -0.21,0.83 0.43,-0.13 -0.27,0.64 0.88,-0.18 0.4,0.33 1.85,-1.42 0.44,0.15 -1.14,1.89 0.57,1.49 1.9,1.31 -0.16,0.59 -1.59,-0.13 -0.18,0.88 0.37,0.13 0.23,1.36 2.12,2.46 0.8,2.07 1.14,0.72 1.41,-0.4 0.43,1.3 1.73,1.78 0.37,0.9 -0.37,0.4 0.68,1.08 -0.57,0.9 2.33,2.44 0.28,0.88 -0.39,0.57 2.15,3.94 -1.01,1.19 -3.08,1.23 -0.51,-4.08 -0.83,0.49 -0.08,0.68 -1.15,0.66 -0.22,-0.71 -1.27,-0.99 -1.47,-0.77 -0.97,-0.06 -0.16,0.6 -1,0.17 -0.24,0.66 1.31,2.14 -0.36,0.86 -1.9,-0.81 -0.65,-1.1 0.23,-0.66 -0.18,-0.35 -0.36,0.24 -0.28,-0.84 -0.61,0.82 0.01,0.48 0.81,0.18 -0.37,1.5 -0.6,0.46 0.56,0.04 0.14,0.68 -0.37,0.38 -0.88,-0.4 -0.39,-1.19 -1.53,-0.11 -2.3,-1.17 -0.08,1.54 -2.5,0.4 -0.41,0.59 -0.57,-0.77 -1.169998,0.49 -0.52,0.66 -0.86,0.29 -0.08,0.91 -0.6,-0.38 -0.26,-0.82 -0.66,0.53 -0.12,-0.38 -0.68,0.02 -0.37,0.46 0.57,1.52 -0.89,-0.6 -0.31,-0.16 0.25,-0.71 -0.49,0.22 -0.39,0.59 0.2,0.81 -0.81,0.81 0.88,0.35 0.4,1.96 -0.79,-0.55 -0.83,-1.68 -1.16,-0.6 0.16,1.13 -0.91,0.48 -0.46,1.28 0.22,0.91 -0.9,1.57 0.16,0.29 0.77,0.18 0.52,0.53 -0.85,0.82 0.1,0.46 -0.45,0.06 -0.08,0.99 -3.02,5.95 -1.45,5.16 -0.32,-0.16 -2.27,1.04 -2.71,-0.16 -2.17,0.93 -2.07,0.33 -3.51,-1.37 -0.74,0.53 -0.15,-0.49 -4.06,-2.12 0.62,-0.24 -0.18,-1.08 -1.21,-0.11 -0.34,-0.44 0.81,-0.24 -0.9,-0.4 0.03,-0.56 1.03,0.29 0.45,-0.71 1.74,0.18 0.64,-0.31 0.13,-0.97 -1.17,-1.59 -0.89,-0.29 0.38,-0.57 -0.65,-1.08 -1.45,-0.46 -0.59,0.26 0.1,-0.6 0.54,0.07 0.28,-0.62 0.77,-0.24 0.31,-1.53 -0.24,-1.24 -0.67,-0.95 -1.19,-0.31 -0.98,-1.06 -0.54,-0.04 0.27,-1.06 1.44,-0.95 0.13,-0.58 -0.79,-0.6 0.23,-0.33 -2.26,-0.05 2.26,-0.62 0.1,-0.55 -0.96,0.06 0.64,-0.57 0.28,-2.1 -0.36,-2.64 -0.43,-0.99 -0.86,-0.49 0.06,-0.62 -0.62,-0.18 0.25,-0.84 -0.93,-2.05 -3.06,-3.72 -2.95,-1.3 -3.52,0.77 -0.65,0.75 0.07,0.81 -0.53,-0.37 -0.64,0.68 -0.39,-0.16 0.14,-0.57 -2.06,-1.03 -1.73,0.81 -0.1,0.72 -0.52,0.39 -2.35,-0.15 -0.64,0.51 -0.91,-0.18 -0.8,0.44 -1.56,-0.29 -0.15,-0.44 -1.85,0.2 -0.46,-0.95 -0.49,-0.44 -0.61,0.07 -0.57,-0.95 -0.96,0 -0.38,-2.33 -4.6,-1.73 -1.96,-0.18 -0.46,-0.79 -0.77,0.5 -1.37,-1.54 0.77,-0.53 0.34,-1.34 -0.74,-0.6 1,-0.5 1.17,0.28 0.51,-0.4 0.11,-0.09 1.28,-0.39 0.22,0.55 1.54,0.66 2.61,-0.26 0.93,0.75 5.89,0.77 1.35,-0.53 1.88,0.2 1.34,-1.25 0.73,0 1.37,-0.94 2,0.7 1.53,-0.97 3.84,1.94 0.59,0.46 1.46,0.55 2.06,-0.33 1.74,-1.93 0.77,-1.71 0.14,-1.38 -0.96,-0.55 -0.01,-0.61 1.02,-0.02 0.66,1.31 0.93,0.64 1.11,-0.35 -0.23,-1.41 0.65,1.05 1.19,-0.35 -0.26,-0.86 -0.68,0 -1.93,-3.03 -0.1,-1.82 2.34,0.77 0.49,-0.11 0.2,-0.42 0.53,0.46 -0.05,0.35 -0.23,0.59 1.37,0.98 1.41,-1.05 -0.99,0.09 -0.12,-0.63 -0.75,-0.53 0.08,-0.68 1.29,-1.08 -1.29,-0.61 0.72,-0.46 -0.71,-0.81 0.86,0.11 -1.36,-1.03 0.5,-0.13 -0.38,-1.34 -0.4,-0.11 0.4,-0.33 0.91,0.52 0.11,-0.61 0.96,0.55 1.75,0.24 1.64,0.96 -0.2,-0.86 0.69,-0.11 -0.02,-0.63 -0.6,-0.11 -0.04,-0.4 -0.29,-0.63 2.07,-0.06 0.39,0.42 0.88,-0.26 0.31,0.26 0.97,-1.01 -0.11,-4.61 0.7,-4.7 -0.19,-0.89 0.83,0.67 z"
     title="Hiiumaa"
     id="EE-39" />
  <path
     d="m 159.03951,155.73311 2.15,1.67 1.02,0.04 -0.09,0.48 -0.12,1.19 -0.46,0.15 -0.9,-0.24 -0.35,0.9 -1.53,-1.43 -0.25,-1.21 -0.45,-0.29 0.06,-0.81 0.54,-0.27 -0.09,-0.4 0.47,0.22 z m -4.37,-1.15 0.48,0.37 -0.05,-0.53 0.49,-0.02 -0.27,2.22 -0.42,-1.01 -1.03,-0.99 0.53,-0.88 0.27,0.84 z m -1.01,-1.69 0.13,1.08 -0.33,0.35 -1.04,-1.37 0.62,-0.35 0.62,0.29 z m -10.33,-17.92 0.43,-0.04 0.76,1.43 -0.91,0.06 -0.13,-0.64 -0.58,-0.39 0.16,-0.88 0.27,0.46 z m -1.74,-0.48 1.16,0.68 -0.85,-0.2 -0.23,0.46 -0.38,-0.75 0.09,-0.37 0.21,0.18 z m 11.95,-1.1 0.29,0.39 -0.43,3.44 -0.5,-0.68 0.32,-1.32 -0.36,-0.9 0.24,-0.81 0.44,-0.12 z m -18.06,-15.78 2.35,0.88 0.34,-0.04 0.14,-0.76 2.48,0.81 -0.32,1.25 1.01,0.02 0.85,0.98 -0.03,0.88 0.81,-0.15 0.36,-1.64 0.36,0.94 0.5,0.17 0.52,-1.69 0.92,-0.77 0.83,1.66 0.47,-0.28 0.1,-0.64 0.47,-0.4 0.37,0.35 0.2,-0.72 1.28,1.23 0.46,1.4 1.06,0.18 -0.12,0.81 0.69,0.41 -0.12,1.18 2.23,2.72 -1.18,3.37 -0.68,-0.07 -1.17,-0.94 -0.61,-0.61 -0.66,0.68 -1.05,-0.28 0.08,-1.34 -0.39,0.35 -0.15,1.36 0.38,0.61 -0.56,1.01 -0.59,-0.61 -0.56,0.57 -0.31,-0.73 -0.58,0.7 -0.03,-0.9 -0.68,0.75 -0.76,-0.22 0.03,1.62 0.25,0.85 2.05,0.66 -0.11,0.09 -2.26,-0.2 -2.92,-3.45 -1.82,-1.16 -0.5,-0.06 -1.23,-0.37 -0.28,0.55 -0.12,1.95 0.62,1.4 -0.62,-0.04 -0.49,-0.29 -0.45,-0.02 -0.78,-1.16 -0.7,-0.31 0.19,2.5 -0.56,0.18 -0.31,-1.6 -0.37,0.15 -0.17,1.23 -0.6,0.15 -0.43,-0.22 -1.4,-2.89 0.54,-0.61 1.26,0.33 0.02,-1.21 -0.4,-0.05 -0.84,-0.28 -1.32,-1.75 -0.23,-1.29 -1.26,-0.4 -0.08,-0.68 -0.77,-0.77 -0.3,-2.45 0.36,-0.99 0.55,0.04 0.4,-0.66 -0.07,-1.14 1.12,0.61 0.48,-0.13 1.11,-0.87 0.68,-1.38 1.79,0.52 0.75,0.81 0.48,0.31 z m 44.17,-38.32 0.33,0.07 -0.19,0.48 0.56,0.09 -0.08,1 0.54,0.63 2.07,1.24 1.44,-0.2 1.89,-1.35 0,0 0.15,5.72 4.72,0 0.07,5.94 4.72,-0.15 1.2,1.79 -0.16,1.17 2.13,-0.28 4.27,5.8 0.44,-1.13 1.38,-0.42 0.7,0.54 1.21,-1.03 8.2,0.76 2.79,0.83 5.22,3.03 0.22,1.46 -0.93,1.4 -0.79,0.11 0.79,1.72 -0.83,0.3 1.45,1.72 0.02,0.66 2.75,1.66 0.23,1.51 0.94,0.22 0.38,0.55 -7.45,7.37 -0.13,2.06 0.71,2.45 0,0 -0.89,2.7 -1.28,1.07 1.42,2.79 -0.34,0.48 0.28,0.96 0.69,1.56 1.73,2.22 2.31,1.1 -0.55,1.67 0.59,1.76 -0.71,1.38 1.62,0.7 0.61,-0.29 0.2,0.92 -0.73,0.51 -0.22,0.77 1.52,1.05 -0.19,1.39 -0.33,0.18 1.99,1.32 -0.5,1.47 1.22,-0.55 0.52,0.33 0.46,1.34 -0.56,2.33 -4.17,-0.66 -0.67,0.6 0.53,0.57 -0.05,0.82 -0.24,1.19 -1.14,1.92 0.52,0 1.07,2.09 2.06,0.06 0.13,1.04 -2.77,0.57 -0.02,0.4 -2.63,2.16 -0.77,1.37 -1.45,-0.16 -0.62,0.53 -0.28,1.75 0.23,0.42 0.48,-0.49 0.6,1.3 0.61,0.15 1.62,-0.84 1.23,1.72 1.26,-1.73 1.11,-0.73 0.89,1.26 0.74,1.79 -0.83,0.59 -0.1,1.04 -2.5,5.2 0,0 -1.22,1.62 -2.53,2.06 -0.42,-0.49 -4.49,1.29 0.33,0.82 -3.36,-0.67 -0.2,-1.07 -0.95,-0.95 -1.85,1.06 -0.36,0.49 0.1,2.3 0.61,0.44 0.63,2.46 0.05,2.84 -2.84,1.42 -0.24,1.25 -1.01,1.71 -1.61,-0.42 -3.66,-2.66 0.21,-0.91 -2.21,-1.89 -0.65,0.38 1.34,1.66 0.9,2.98 -1.48,0.91 0.19,0.87 2,4.47 1.33,2.05 0.92,0.71 0.04,2.45 -1.57,-1.09 -1.88,0.24 -1.22,-0.58 -0.88,1.05 -1.5,-0.62 -0.41,0.27 -1.57,-0.93 -0.59,1.62 -1.42,0.16 -1.49,0.8 -0.83,1.36 -2.05,-0.8 -1.11,1.4 -1.29,-0.63 -1.7,-1.87 -1.62,-0.16 -2.46,0.44 -1.41,1.47 -1.62,-0.58 -0.76,-1.02 -1.72,2.31 0,0 -1.36,-0.49 0.73,-1.27 -1.2,-0.73 -0.41,0.27 -0.28,-0.38 -0.69,0.94 0.65,-2.49 -0.38,-0.76 -0.49,0 0.15,0.51 -0.65,-0.18 -0.1,-0.69 0.72,-0.76 -0.17,-0.93 0.53,-0.07 0.64,-1.42 -1.9,0.02 -0.19,-1.94 -0.46,-0.44 -1.11,0.4 0.08,0.58 1.29,1.33 -0.36,1.93 -0.85,0.46 0.22,0.62 0.94,0.06 -0.52,0.47 0.43,0.62 -0.53,1.07 -0.85,0.49 0.37,-1.85 -0.35,-0.44 -0.32,0.42 -0.89,-0.55 -0.46,-0.27 -1,0.22 -0.65,0.8 -0.98,-1.91 0.92,-0.74 1.07,-0.11 -0.17,-0.89 0.85,-2.58 0.29,0.29 0.38,0.26 0.48,-0.51 -0.28,-0.84 -0.46,-0.13 -0.59,0.6 -0.18,-0.29 0.43,-3.02 -0.48,-0.04 -1.02,-2.58 -0.74,-2.33 0.54,-0.67 -0.95,-1.8 0.65,-3.31 -0.97,-0.49 0.51,-1.22 -0.91,-0.4 0.2,-0.78 -0.84,-0.15 2.71,-0.67 0.03,-0.93 -0.59,-0.71 0.39,-1.09 1.73,1.37 3.63,-0.8 0.79,-1 -0.28,-0.16 -0.57,-0.29 -1.26,-0.56 -0.75,-1.06 -0.85,0.24 -0.04,-0.67 -0.89,0.11 0.64,-1.7 -1.08,-0.49 -0.02,-0.46 1.79,-0.27 3.81,2.34 1.5,-0.13 2.15,-1.24 1.26,0.42 0.6,-0.66 0.97,0.86 0.76,-0.09 0.61,-0.58 -1.2,-0.2 0.41,-1.84 1.02,0.55 0.59,-0.99 1.28,0.62 0.71,-0.24 -0.03,-0.49 1.29,1.04 0.75,-0.33 0.46,0.22 1.06,1.15 0.51,-0.15 0.23,-0.58 0.67,1.28 0.64,-0.22 -0.37,1.04 0.84,-0.07 0.07,0.79 0.66,-0.16 0.09,-0.38 0.63,0.11 0.2,0.68 -1.28,0.04 1.74,0.66 0.2,-0.62 1.48,-1.15 1.32,0.6 0.5,-3.76 -0.35,-0.22 -0.66,0.42 -0.46,-0.35 0.42,-1.02 -2.92,0.59 -0.95,-0.58 0.1,-0.42 0.61,0.33 0.48,-0.24 -0.85,-1.02 -0.07,-1.08 0.34,-0.4 -0.65,-0.97 0.15,-0.53 0.84,-0.29 0.14,-0.9 -0.62,-0.22 -0.91,1.28 -0.84,0.2 -0.47,-0.36 0.02,-0.58 -0.7,-0.26 -0.75,-0.38 -0.53,-0.77 -0.79,0.02 -0.61,0.38 -1.06,1.44 -1.27,0.8 -1.68,-0.69 -1.05,0.44 -0.4,-0.8 -0.67,-0.11 -0.56,-0.77 -0.91,0.26 -1.06,-0.36 -3.58,0.99 -0.97,1.41 -1.72,0.75 -0.74,0.04 -3.03,-1.37 -2.61,0.6 -1,0.75 -0.3,0 -0.3,-0.36 -0.78,0.26 -1,1.24 -0.46,0.13 -0.4,-0.4 1.2,-1.19 0.48,-1.31 -0.28,-0.82 -0.3,0.44 -0.21,-0.33 0.02,-1.55 1.07,0.57 0.91,-0.24 -0.59,-0.44 0.66,-0.37 -0.03,-1.04 0.74,0.44 0.84,-0.88 -1.03,-1.1 0.14,-2.64 1.05,1.12 -0.63,0.04 0.41,1.32 1.04,0.06 1,1.1 1.64,-0.84 0.14,-0.6 0.1,-0.4 0.32,-0.27 -1.04,-0.77 0.32,-1.99 -0.49,-1.34 -1.87,-2.12 -0.29,0.77 -1.09,-1.61 -0.38,-0.31 0.07,-1.32 -1.1,-2.23 -3.08,-2.66 0.15,-0.7 0.85,0.77 0.34,-2.09 -0.26,-0.62 -0.88,-0.28 -0.48,0.84 -0.77,-0.73 -0.59,0.09 -0.02,-0.55 0.4,-0.31 -0.42,-0.73 0.84,-2.16 -0.49,-1.93 0.13,-0.59 -0.16,-0.42 -0.11,-0.48 1.43,0.7 0.65,-0.81 0.6,-0.26 0.62,1.29 1.29,0.81 1.77,-0.81 0.11,-0.44 0.93,-0.11 0.6,-0.73 0.65,-0.02 0.67,0.72 0.51,-0.15 -0.3,-1.95 -0.4,-0.72 -0.57,-1.41 0.86,0.28 0.97,1.75 0.9,0.22 0.8,1.01 1.03,-0.39 0.31,-0.62 0.85,-0.4 1.35,0.39 0.02,-0.94 0.33,-0.4 0.77,-0.02 0.44,-0.53 -0.19,-0.66 -1.78,-1.91 1.37,0.92 0.45,-0.18 -0.09,-0.84 1,0.94 0.3,-0.68 0.53,0.26 0.3,-0.31 1.74,2.26 1.09,0.17 0.3,-0.97 -0.49,-0.9 0.87,0.02 0.03,-1.05 -0.44,-0.55 0.48,-0.55 -0.46,-0.53 -0.76,0.13 -0.09,-0.61 -0.62,-0.4 0.67,-0.75 -1.06,-0.04 -1.68,-1.47 0.22,-0.4 0.93,0.37 0.09,-0.66 -1.57,-1.21 -0.2,-0.61 0.44,-0.24 -1.32,-1.23 -0.39,0.31 0.68,1.33 1.57,1.49 -1.8,0.92 0.86,2.39 0.82,1.05 -0.02,1.07 -1.94,-2.22 -0.57,-2.13 -0.79,0.4 -0.58,-0.24 -0.07,-1.05 -1.13,0.33 -0.27,4.6 0.73,0.63 -0.66,1.45 -0.62,-0.07 -0.43,-0.11 -0.62,-0.5 0.02,0.97 -0.72,-0.79 -1.57,-0.44 -2.03,-1.56 -2.17,1.01 -1.14,-0.13 -2.59,-1.97 -0.38,-0.5 -0.05,-0.53 -1.59,-1.56 0.28,-0.61 -1.05,-1.16 -0.98,-2.61 0.12,-0.48 0.55,0 1.3,1.27 0.71,-0.07 0.87,0.52 -0.04,-1.27 0.37,0.06 0.39,-0.42 -0.71,-1.29 0.4,-0.9 0.62,0.41 0.01,-0.37 -0.6,-0.35 -0.77,0.72 -0.92,-0.68 0.56,-1.95 -0.46,-2.16 0.54,-2.36 1.17,0.63 0.97,-0.26 2.04,0.41 0.15,-0.57 0.66,0.06 -0.03,-1.2 1.02,-0.39 0.97,-2.06 0.4,-0.11 2.11,1.31 0.6,-0.42 -1.54,-5.26 -0.03,-0.96 0.67,-1.25 -1.15,-0.96 -0.79,-5.43 -0.54,-0.76 -1.32,-0.7 -0.62,-2.92 0.5,-3.59 1.41,-0.15 0.51,-0.83 0.07,-2.44 1.46,0.52 1.14,1.69 3.73,-0.07 2.52,-1.22 1.65,-1.85 1.5,-0.35 1.02,-1.59 1.1,-1.11 z m -28.36,-10.38 3.13,1 1.96,1.84 1.1,1.78 -1.53,0.02 -0.16,0.43 0.59,0.78 -0.97,-0.63 -0.64,-1.71 -1.14,-0.61 -0.59,0.04 -0.41,0.28 -1.73,-2.65 -0.01,-0.52 0.4,-0.05 z"
     title="Läänemaa"
     id="EE-57" />
  <path
     d="m 408.46951,284.18311 1.86,0.92 2,-0.7 0.57,1.54 0.59,-1.27 0.39,0.32 1.69,-0.88 0.45,1.2 5.68,0.69 5.89,0.16 1.28,-4.18 0.7,0.27 1.78,-0.27 1.71,0.86 3.7,-7.22 2.35,1.17 1.06,-0.6 0.28,0.44 -0.23,0.55 0.43,0.31 0.58,1.88 -0.14,1.46 1.14,-0.54 1.01,0.75 2.49,-1.92 1.78,-0.21 0.95,-1.69 2.54,-0.47 3.63,0.58 1.06,0.93 0.04,2.1 3.1,1.11 0.02,2.43 1.79,-0.25 0.23,1 0,0 -1.47,0.48 -0.15,1.96 -1.39,2.08 0.22,1.63 -1.6,1.77 -0.67,1.83 0.45,0.54 -0.17,1.99 0.34,-0.67 0.85,0.13 -0.6,1.34 0.18,1.51 0.99,0.41 -0.14,2.95 -0.71,0.07 -0.11,1.99 -0.78,0.05 -0.5,1.02 0.67,1.93 1.13,0.79 -0.83,0.6 0.36,0.52 -0.01,0.77 -0.52,0.5 0.14,1.73 -1.14,1.09 0.11,0.52 0,0 -0.66,-0.11 -0.73,0.97 -1.51,-0.59 -0.25,0.48 -2.03,0.38 -0.51,-0.59 -0.86,-0.2 -1.19,1 -0.11,1.78 -0.63,0.06 -0.44,-0.59 -1.82,0.04 -2.19,1.23 -0.97,-0.2 -0.53,-0.93 -0.74,0.13 -1.06,2.17 1.56,1.29 -0.16,1.3 0.56,0.75 -0.08,1.21 -1.71,1.55 -0.57,2.37 -2.02,0.75 1.26,1.18 0.48,-0.22 0.66,0.68 2.18,0.11 1.63,2.46 -2.08,1.4 -0.09,0.64 0.66,1.11 -0.2,1.08 1.08,2.24 -0.02,0.64 -1.31,1.55 0.44,0.14 0.15,1.3 0.91,-0.02 0.52,0.64 0.22,1.99 0.28,0.22 0.38,-0.71 1.02,-0.27 0.62,0.28 1.23,-1.19 0.78,-0.05 1.16,0.98 -0.05,2.08 -1.26,0.42 0.59,0.46 -0.08,1.55 0.6,1.19 -1.05,0.35 -0.66,1.07 -1.16,-0.32 -0.44,0.66 -0.59,-0.13 -0.34,1.19 0.93,0.78 1.06,1.99 0.03,1.81 0.48,0.05 0.69,-1.2 0.57,0.07 -0.02,1.77 0.49,-0.32 0.57,0.43 0.44,2.27 -0.94,1.4 -2.42,2.07 -2.6,4.2 5.32,4.46 -2.89,5.34 -0.57,-0.57 -0.37,0.37 -0.31,-0.31 -0.41,0.79 3.56,0.32 -0.82,2 -0.84,0.83 0,0 -4.7,0.69 -1.68,-0.11 -5.37,-1.98 -0.99,0.88 -0.81,-0.07 -0.53,-0.99 -0.48,-0.15 0.05,-0.52 -0.48,-0.02 -0.05,-0.79 -2.17,0.19 -0.37,-0.7 -0.86,-0.43 -0.98,-2.21 -1.73,-1.43 -0.29,-2.44 0.52,-0.8 -0.75,-1.52 -0.62,-0.35 0.8,-0.45 -0.19,-1.4 -1.16,-0.23 -1.21,-1.01 -0.29,-2.49 -1.55,-1.08 -1.4,-0.29 0.76,-1.22 1.07,-3.42 -0.66,-1.1 -2.09,-1.53 -2.62,-0.58 -0.92,-1.37 0.5,-1.01 -0.45,-0.8 -5.39,-2.81 -2.06,0.71 -1.84,-1.58 -1.64,0.66 -0.16,-0.87 0.7,-0.64 -0.33,-2.15 0.78,-1 0.41,-3.09 1.65,-3.45 0.43,-1.71 -0.11,-1.6 -1.91,-0.36 -1.22,0.54 -1.2,-2.07 -0.89,-0.27 -3.67,2.6 -2.86,-1.3 -3.24,0.24 -1,0.58 0.02,-1.42 -0.76,-0.45 -0.34,-1.33 -1.52,1.53 -3.94,-1.05 -3,-6.33 0.2,-1.28 -1.03,-0.96 -2.65,-0.75 -1.25,-1.22 -0.89,0.31 -0.69,1.69 -1.41,1.36 -2.19,-0.07 -0.29,-1.39 -1.78,0.08 -1.25,-0.76 -0.27,-1.2 -1.27,-1.71 -4.47,-2.09 0.95,-2.57 0,0 2.58,-5.27 0.21,-1.32 0.69,-0.54 -2.18,-5.27 0.78,-1.01 1.42,0.49 0.28,-0.33 4.03,-0.16 0.88,0.25 0.51,1.31 1.04,-0.86 0.89,-1.56 0.86,-0.17 0.28,-0.95 1.16,-1.24 0.23,-1.14 0.75,-0.15 0.59,-0.91 -1,-1.26 2.8,-0.14 0.35,0.36 0.99,-0.63 0.6,-0.96 0.73,0.48 0.46,-1.58 1.03,-0.2 0.45,0.47 -0.09,-1.16 0.92,0.14 0.4,-0.81 0.67,-0.09 -0.24,-1.13 1.56,0.04 0.17,-0.65 -0.42,-0.62 -0.27,-2.16 -0.42,0.06 -0.71,2.13 -0.34,0.07 -0.2,-0.8 -0.11,-1.72 1.96,-0.4 -0.15,-0.9 1.32,-0.23 -0.32,-1.67 -0.63,-0.21 -0.48,-1.39 2.13,-0.01 1.68,0.64 1.29,1.31 0.73,1.94 1.01,1.24 0.42,3.37 2.77,0.43 0.91,-0.27 1.44,-0.9 0.06,-1.07 3.68,-0.93 0.05,-1.08 0.7,-0.41 1.84,0.27 z"
     title="Valgamaa"
     id="EE-82" />
  <path
     d="m 416.57951,145.20311 8.3,-0.81 2.08,-0.74 0.32,-2.69 0.9,-0.24 0.74,0.75 0.69,-1.3 1.55,-0.57 2.55,-0.11 0.61,2.33 -0.82,0.51 0.37,0.66 0.72,0.13 0.66,1.71 0.79,0.47 0.28,1.6 0.7,-0.13 0.27,0.79 2.2,-0.35 1.2,0.42 0.61,-0.38 -0.1,-0.88 0.65,-0.48 2.53,-0.51 -0.16,-1.65 1.42,-0.5 0.2,-0.66 -0.83,-3.14 1.78,-0.31 -0.29,-2.02 1.73,-0.81 -0.19,-0.99 3.79,-0.68 1.19,0.76 0.29,1.17 -0.45,0.66 2.15,0.11 3.31,-1.59 2.46,-1.99 6.13,-2.66 0.9,-0.17 0.33,0.99 0.75,0.04 0,0 0.29,1.6 0.83,0.07 1.74,1.75 -0.9,2.17 1.39,1.04 0.23,1.58 -0.79,0.33 0.02,1.82 0.67,3.06 1.14,1.56 2.81,-0.99 4.52,-0.31 0.54,-1.71 1.81,0.68 3.55,0.15 2.38,1.67 1.12,2.58 1.12,-0.11 0.41,0.73 23.24,0.11 13.1,1.76 11.41,4.23 0,0 -8.49,8.22 2.53,11.87 0,0 -24.14,8.32 -0.15,-0.59 -0.67,-0.36 -4.38,1.99 -0.27,0.43 0.87,0.97 -0.95,2.15 -1.58,-0.86 -1.39,0.78 -0.25,1.19 -1.35,0.62 -0.71,-0.51 -1.91,0.87 0.12,1.2 1.42,-0.34 0.6,1.13 -0.69,1.36 0.59,2.27 0.86,0.66 -0.15,2.25 -1.6,0.04 -0.61,-0.54 -0.1,-1.48 -0.62,-1.03 -0.95,-0.35 -0.3,-0.56 -0.71,0.38 0.3,1.14 -0.38,0.13 -0.89,-1.02 -0.23,0.79 -0.45,0.09 -2.93,-2.73 -5.48,-2.15 -1.01,0.13 -1.36,7.84 0.31,2.49 -2.42,0.16 0.42,1.53 -2.09,0.29 -0.01,0.45 -0.95,0.4 -0.17,0.58 -2.14,-0.63 -1.64,1.25 -1.54,-1 -0.18,1.64 -1.87,1.29 -0.68,0.07 -0.94,-1.31 -0.71,0 -0.87,-1.91 -2.35,-1.47 0.65,1.29 -1.85,1.93 -0.4,1.29 -0.12,1.96 0.89,1.01 -0.94,0.93 -2.12,0.33 -0.86,0.92 -1.94,-1.23 -2.42,-2.51 -1.54,1.51 -0.8,-0.69 -0.59,0.16 -1.15,-0.72 0.02,-0.55 1.42,-0.14 0.63,-1.47 -4.29,0.49 -1.17,1.03 1.1,0.69 -0.72,0.94 -0.74,0.04 -2.1,-1.58 -1.59,0.53 -0.63,-0.85 -1.28,0.47 -1.01,1.27 -0.49,-0.09 -1.09,2.99 0.54,1.13 -1.64,-0.95 -0.41,-2.68 -1.89,-1.2 -1.6,-0.11 -0.82,1.65 -2.47,0.75 -8.23,6.16 -1.7,-1.03 -1.6,1.18 -2,-2.09 -0.93,1.07 0.56,0.35 -0.83,0.59 0.23,0.98 -0.48,-0.4 0.01,0.77 -0.48,-0.04 0.5,0.98 -0.41,0.6 0,0 -5.11,-5.48 -1.13,0.91 -5.21,-4.48 -0.44,-6.3 -2.27,1.67 -1.79,-1.71 -0.97,0.22 0.02,-1.83 -1.16,-0.64 0.53,-0.76 -0.19,-0.4 0.58,-0.31 -0.89,-1.46 0.09,-0.78 -2.66,-0.52 -4.04,-2.33 -1.64,-0.15 -3.53,1.24 -2.29,-0.11 -4.65,-1.02 -0.77,-1.42 1.14,-0.2 0.71,-1.33 1.62,-0.03 1.01,-1.75 -0.54,-3.59 -2.15,-0.38 1.08,-1.36 0.33,-1.32 0.18,-3.48 -0.53,-0.8 0,0 0.76,-1.37 0.7,-3.06 1.07,0.25 0.19,-1.15 0.82,-0.11 2.01,-1.78 0.13,-0.62 -0.34,-0.17 0.38,-0.78 -0.79,-0.92 -0.1,-1.13 1.44,-0.35 1.69,0.57 0.15,-0.78 1.56,-1.12 -0.41,-0.64 0.16,-1.62 1.53,-0.21 2.28,1.56 0.86,2.41 3.77,-2.71 0.13,-3.25 -0.66,-1.11 0.14,-1.08 -0.84,-2.23 1.29,-1.29 0.34,0.13 0.05,-0.47 0.57,-0.13 0.93,0.86 1.63,-0.26 0.82,-0.88 -0.29,-1.15 0.41,-1.06 1.15,0.62 0.94,-0.16 1.04,-0.92 0.17,0.28 1.38,-0.5 1.73,0.19 0.41,-0.42 3.65,-0.1 0.55,-0.44 -0.55,-3.7 -0.95,-0.73 0.88,-1.08 0.12,-1.5 0.63,-0.04 0.85,-1.28 0.4,0.6 0.92,0.04 0.42,-0.7 z"
     title="Jõgevamaa"
     id="EE-49" />
  <path
     d="m 220.59951,127.00311 1.26,-0.32 -0.24,-1.32 2.04,-1.03 2.69,-4.38 1.61,1.21 0.78,-1.19 2.02,-1.24 2.37,3.13 1.14,0.21 1.99,-1.51 1.21,-0.04 0.78,0.5 0.22,1.76 1.55,0.68 0.27,-0.82 -0.66,-1.9 0.53,-0.64 0.49,0.4 0.91,-0.53 0.06,-1.16 -0.44,0.02 -0.37,-0.93 0.66,-0.99 0.92,-0.41 0.31,-1.45 0.72,0.55 0.29,-0.64 1.14,-0.37 0.31,0.75 1.74,-0.95 -1,-1.48 0.37,-0.59 -0.18,-0.85 -1.3,0.63 -0.31,-0.44 1.19,-1 -0.7,-1.4 0.43,-1.25 1.5,1.12 0.68,0.04 0.35,-0.83 6.16,-0.17 1.99,-1.1 2.56,-0.58 4.89,0.69 1.02,0.73 1.12,-0.46 0.29,0.26 0.01,-5.46 -1.37,0.11 -0.34,-1.37 -1.25,-0.98 3.48,-1.16 -1.84,-2.44 0.12,-1.55 0.96,-2.5 -0.04,-2.66 2.73,0.54 2.54,-2.56 0.86,-2.31 1.04,0.24 0.28,-1.07 2.41,0.03 0.42,0.37 1.27,-0.7 0.68,0.98 0.56,0.24 0.63,-0.33 0.47,0.85 0.38,-0.15 -0.36,-1.04 0.99,-0.85 1.83,2.41 0.78,-0.33 0.2,0.42 0.79,0.04 0.84,0.87 0.48,1.33 1.06,0.11 0.51,-4.75 3.75,0.07 0.65,-0.59 2.55,-0.52 2.69,0.66 1.53,-0.62 -0.72,4.09 0.01,2.92 0.16,1.33 1.72,-0.37 0.07,3.98 0.47,0.22 -0.45,1.11 3.54,1.96 1.65,0.2 0.59,-0.63 1.26,1.43 1.15,-0.71 0.59,1.87 1.45,1.46 0.23,1.16 2.32,2.77 4.19,1.53 2.61,-0.06 0.68,-0.55 0.74,1.42 1.07,-0.44 2,1.42 0.82,-0.17 1.41,0.52 -1.34,1.38 -0.42,1.26 2.01,3.22 -1.14,0.61 1.08,1.84 -0.29,0.55 3.12,0.56 0.13,0.37 -0.77,-0.12 -0.16,0.85 2.48,0.04 0.89,0.73 0.22,-0.27 0.71,0.24 0.37,0.64 -0.92,0.72 1.15,0.61 0.35,0.77 1.27,0.2 -0.25,0.81 0.3,0.98 0.5,-0.22 2.52,1.23 0.73,-0.48 0,0 -0.57,0.99 -3.81,2.12 2.36,3.62 -0.87,6.65 -4.3,2.57 -0.95,3.33 -0.78,0.17 -0.3,0.86 0.66,0.33 0.78,2 0.98,0.27 0.26,-0.33 1.3,1.71 -0.94,0.57 0.63,0.91 -1.04,1.12 -1.1,2.22 0.71,1.06 -2.13,1.57 0,0.94 -1.43,2.08 -0.39,0.17 -1.6,-0.81 -0.61,1.3 0.95,2.71 0.81,0.38 1.69,3.11 -1.57,0.89 0.07,1.85 -1.48,3.34 0.18,1.7 0,0 -3.43,0.32 -1.18,0.81 -2.54,-0.7 -4.64,-0.36 -0.25,-0.62 -1.1,-0.16 0.52,0.67 -1.38,1.02 -0.45,1.63 -1.72,0.45 -0.93,-0.33 0.03,-0.91 -0.98,0.15 -0.65,1.04 -1.33,-0.29 -0.74,1.82 -1.15,0.14 -0.25,0.43 -0.48,2.17 -0.97,0.36 -0.73,3.39 -0.71,0.03 -0.65,0.61 -0.83,-0.3 0.17,-0.43 -0.65,-0.97 0,-1.27 -0.41,-0.17 -0.42,-1.97 -0.19,-2.42 1.14,-5.57 -1.48,-1.77 -1.64,-0.53 -0.17,-0.75 -1.28,-0.4 -0.68,-0.8 -2.73,1.73 -1.47,2.25 -1.58,0.4 -0.66,-0.84 -2.44,0.8 -1.9,-1.31 -1.08,-0.13 -1.19,-1.31 -1.53,0.6 -2.41,-1.13 -2.42,4.74 -5,2.4 -0.86,0.82 -2.71,0.4 -0.14,-0.92 -0.44,-0.12 0.15,-0.57 1.59,-1.59 -2.39,-2.57 -0.86,-0.53 -0.68,0.07 -0.95,0.66 -0.79,1.52 -3.72,2.13 -0.91,4.54 -1.31,1.64 -2.77,0.81 -1.35,0.82 -2.54,1.85 -0.37,1.17 -3.01,-1.48 -6.59,-1.45 -4.64,-2.17 -4.5,1.57 -5.23,-4.51 0,0 2.5,-5.2 0.1,-1.04 0.83,-0.58 -0.74,-1.79 -0.9,-1.26 -1.11,0.73 -1.26,1.73 -1.23,-1.71 -1.63,0.84 -0.6,-0.15 -0.6,-1.3 -0.48,0.5 -0.22,-0.42 0.28,-1.76 0.62,-0.53 1.45,0.17 0.77,-1.37 2.63,-2.16 0.02,-0.4 2.77,-0.57 -0.13,-1.04 -2.06,-0.06 -1.08,-2.08 -0.52,0 1.14,-1.92 0.24,-1.19 0.05,-0.82 -0.54,-0.57 0.68,-0.61 4.17,0.66 0.56,-2.32 -0.46,-1.34 -0.52,-0.33 -1.22,0.55 0.51,-1.46 -2,-1.32 0.33,-0.19 0.19,-1.39 -1.51,-1.04 0.21,-0.77 0.73,-0.52 -0.19,-0.92 -0.61,0.3 -1.63,-0.7 0.72,-1.37 -0.59,-1.77 0.55,-1.67 -2.31,-1.1 -1.73,-2.22 -0.69,-1.56 -0.27,-0.95 0.34,-0.48 -1.42,-2.8 1.28,-1.06 z"
     title="Raplamaa"
     id="EE-70" />
  <path
     d="m 139.05951,338.15311 2.1,1.19 1.38,1.74 0.45,2.93 -0.28,1.83 -0.49,-0.62 -0.88,0.44 -0.32,-0.55 -0.56,0.32 -0.48,-1.03 -0.39,0.32 -0.1,-0.64 -0.88,-0.44 -1.32,0.84 0.36,-1.51 -0.5,-0.37 -0.12,-1.96 1.08,-0.84 -0.63,-0.41 0.52,-1.31 0.32,0.16 0.55,-0.78 0.19,0.69 z m -72.039998,-56.95 -0.91,1.62 0.2,-1.96 0.96,-2.06 0.41,-0.09 -0.46,0.45 0.29,0.81 -0.49,1.23 z m 2.76,-6.68 0.07,0.56 0.62,-0.2 0.26,0.83 0.35,-0.5 -0.13,1.53 0.85,-0.36 -0.57,1.26 0.87,-0.32 -0.46,1.51 0.42,0.56 0.56,-0.16 0.3,0.79 -0.41,0.97 -2.63,2.91 -0.1,0.81 -0.23,-0.57 0.32,-0.68 -0.43,0.18 0.1,-0.86 -0.6,-0.22 -0.23,-0.91 -0.41,-0.05 0.32,-0.66 -0.72,0.04 -0.68,0.61 1.45,-2.6 0.98,-3.3 -0.72,0.02 0.85,-1.19 z m 6.66,-6.05 0.31,0.25 0.68,-0.36 1.51,1.46 -0.79,1.74 -0.46,-0.16 0.32,-0.72 -1.36,0.34 -0.12,-0.56 0.51,-0.93 -0.61,0.5 -0.07,-0.43 -0.6,-0.05 0.47,-1.44 0.21,0.36 z m -73.7800003,-21.95 0.54,0.7 1.02,0.07 -1.22,0.61 -0.08,-0.63 -1.17,0.47 -0.1,-1.06 -1.35000001,-0.11 0.15,-0.76 0.59000001,-0.49 1.62,1.2 z m 10.8300003,-10.4 0.14,1.46 0.62,0.04 -0.08,0.27 -1.23,0.02 -1.11,0.71 -0.71,-0.9 0.17,0.62 -0.74,-0.25 0.14,0.87 -1.4900003,0.76 -0.85,-0.25 -0.34,-0.02 -0.54,0.22 -0.57,-0.38 -1.14,0.69 0.21,-0.63 -2.39,-1.7 1.02,-1.03 0.89,0.33 0.37,-0.69 0.85,0.11 0.12,-0.29 0.46,0.34 0.22,-0.56 0.76,0.61 1.28,-0.07 0.42,0.4 -0.16,0.42 1.0200003,0.13 0.23,-0.34 -0.88,-0.83 0.02,-0.72 1.43,1.08 0.84,-0.27 0.68,-0.89 0.34,0.74 z m 110.829998,-3.6 0.61,0.07 -0.35,0.22 0.19,0.27 -1,-0.36 0.17,-0.51 0.38,0.31 z m 0.3,-2.21 0.48,0.81 0.8,-0.2 -0.71,0.76 -0.82,-0.34 0.24,0.38 -0.42,0.18 -0.18,-0.52 0.5,-0.51 -0.46,-0.56 0.57,0 z m 18.23,-1.77 0.14,1.48 0.46,-0.15 0,-0.67 0.36,0.18 0.89,-0.69 -0.23,0.94 -1.09,1.12 -0.74,-0.11 -0.15,-0.56 -0.15,-1.54 0.51,0 z m 9.61,-16.89 0.46,0.8 -0.41,0.11 0.1,0.64 0.23,-0.33 1.05,1.51 -0.41,0.56 -0.32,-0.54 -1.05,0.22 -0.42,0.42 -0.62,-0.05 -0.36,-0.52 -0.35,0.18 -0.1,-1.02 1.19,-1.96 1.01,0 z m -11.41,-2.12 1.32,0.07 -0.01,0.65 0.46,0.38 -0.07,0.56 -0.65,-0.02 0.1,1.05 -0.5,0.04 -0.22,0.65 -0.98,-1.31 -0.03,-1.27 0.59,-0.07 -0.01,-0.73 z m 17.24,-1.89 0.06,0.45 0.59,-0.02 0.13,0.45 -1.08,0.56 -0.16,0.51 -0.4,-0.4 -0.6,0.25 0.37,-1.6 1.09,-0.2 z m -0.44,-16.31 0.63,-0.22 0.47,1.42 -1.06,1.2 -1.76,-1.2 0.15,-0.78 0.86,-0.64 0.71,0.22 z m -84.779998,1.42 1.95,-1.51 1.4,0.69 2.13,3.48 2.37,5.17 0.96,1.04 1.96,0.58 2.44,0 0.85,-1.69 -0.28,-0.47 0.87,-0.4 -0.73,-0.85 0.9,-0.67 0.22,0.6 0.72,-0.05 0.89,1.09 0.6,-0.07 -0.46,0.65 0.53,0.56 -0.15,1.07 0.74,-0.07 0.36,0.31 0.88,0.27 1.1,0.71 1.12,-1.83 1,-3.55 0.07,-1.96 2.11,-2.13 2.499998,0.69 2.11,1.13 0.3,-0.53 0.66,-0.02 2.08,-1.27 2.24,1.78 3.82,-0.33 1.59,0.33 0.13,1.35 1.15,0.07 0.52,0.82 0.24,0.11 2.06,0.66 1.72,1.31 1.32,3.18 0.91,-0.73 1.98,1.15 -0.22,0.98 0.74,0 0.33,0.27 -0.17,0.47 0.51,0.18 1.17,-0.38 0.48,0.16 -0.69,0.13 0.28,0.64 1.04,0.35 0.85,-0.42 2.51,0.98 0.12,1.13 -0.6,-0.16 -0.23,0.45 0.88,1.58 -0.83,-0.42 -0.01,1.16 0.4,0.74 0.41,-0.18 -0.39,0.64 0.62,1.25 0.83,0.42 0.14,0.69 0.51,-0.36 0.3,0.31 -0.62,0.84 0.56,0 0.58,-0.74 2.14,-0.13 0.54,0.6 0.37,-0.25 0.97,0.91 0.48,0 1.48,1.74 2.82,0.44 0.31,0.47 0.89,0.14 0.48,0.36 0.02,0.83 0.85,0.74 0.51,-0.71 0.19,0.35 -0.46,0.8 0.48,0.63 0.47,-0.4 0.35,-0.18 0.24,1.16 -0.42,0.47 0.8,0.18 -0.66,1.7 1.95,-0.13 0.85,0.98 -0.53,0.11 0.1,1.18 -1.16,0.09 -0.18,3.66 -0.33,-0.81 -0.52,0.2 -0.47,-1.48 0.06,-0.8 0.39,-0.18 -0.23,-0.78 -0.52,-0.56 -0.81,0.56 -1.17,-1.03 0.28,-0.49 0.31,0.49 0.76,-0.42 0.24,-0.96 -0.64,0.29 0.15,-1.86 -0.48,-0.52 0.29,-0.18 -1.18,-0.6 -0.43,1.45 0.97,1.31 -0.47,1.5 -1.06,0.6 0.55,-0.96 -0.24,-0.23 -1.91,0.06 -0.46,-0.49 -0.84,1.01 -0.23,-0.91 -0.44,0.36 -0.08,0.74 0.85,0.69 0.44,0.69 0.74,-0.07 -0.1,0.8 0.54,-0.65 0.42,0.22 0.2,-0.32 0.36,0.38 -0.42,0.52 -0.03,0.35 -0.54,0.49 1.42,0.13 -1.23,1.72 -1.65,-1.68 -0.81,-0.38 -0.02,0.9 -0.83,-0.31 -0.04,-1.48 -0.38,-0.32 0.23,-0.4 -0.55,0.22 -0.53,0.96 -0.13,-0.83 0.53,-1.16 -0.93,-1.19 -0.56,-0.05 -1.07,1.38 1.37,-2.52 0.84,-0.56 1.41,0.11 0.22,-0.81 -0.69,0.13 -0.28,-0.02 -0.29,-0.38 -1.4,-0.02 -0.62,0.96 -0.66,-1.05 -0.14,0.49 0.56,0.54 -0.68,0.73 0.58,0.14 -0.26,1.65 -0.4,0.27 -0.25,-2.21 -0.54,0.42 -0.51,-0.45 0.59,-0.38 0.12,-0.69 -0.77,-1.38 -0.36,1.01 -0.01,0.27 -0.08,0.31 0.06,0.25 -0.69,0.74 -0.26,0.16 -0.12,0.49 0.42,0.05 -0.08,0.83 -0.12,0.22 0.89,0.8 -0.3,0.42 0.43,0.07 0.54,2.37 -0.46,0.11 -0.49,-1.07 0.28,-0.8 -0.99,-0.05 0.17,0.65 -1.06,-0.31 -0.09,0.81 0.9,0.85 -1.39,-0.16 0.4,0.73 -1.11,1.14 0.59,0.47 -0.7,0.14 -0.82,0.94 -0.9,-0.81 0.45,-0.89 0.36,0.13 -0.4,-0.67 -0.66,-0.36 -0.89,0.65 -0.32,-0.54 -0.88,0.09 -1.17,2.81 0.17,0.51 0.47,-0.76 -0.15,1.05 0.57,0.13 -0.5,0.58 0.61,0.31 0.1,1.09 0.75,0.16 0.41,-0.63 -0.36,-0.29 0.46,-0.36 0.29,1.01 -0.68,0.98 0.73,0.71 -0.48,1.37 -1.37,-0.16 -0.65,-0.33 0.25,-0.2 -0.28,-0.23 -0.79,0.16 0.31,0.36 -0.9,0.07 0.39,0.43 -0.35,0.07 -0.57,-0.69 0.64,-0.16 -0.75,-0.67 0.65,-0.27 0.09,0.33 0.3,-0.29 0.53,0.22 0.82,-0.51 -0.75,-0.94 -0.29,0.58 -0.69,-0.27 -0.71,0.25 -0.36,1.16 -0.57,0.11 0.24,0.47 -0.36,0.36 0.86,0.58 -0.2,1.26 -0.96,0.63 1.04,0.83 -0.21,0.58 -0.84,-0.27 -0.07,-0.43 -1,0.38 -0.02,-0.65 0.38,-0.16 -0.43,-0.14 -0.44,0.8 -0.8,0.29 -1.99,-1.05 -0.63,-1.19 -0.03,-0.72 -0.34,0.16 -0.08,-0.63 -0.63,-0.32 -0.06,-0.18 -0.02,-0.79 -1.21,0.29 0.46,0.52 -0.56,0.92 -0.47,0.16 -0.25,1.72 1.93,0.76 0.41,2.08 -0.59,0.4 -1.46,-0.18 -0.27,0.98 0.37,1.25 -0.75,-0.16 -0.26,0.36 0.39,0.47 0.4,-0.54 0.2,0.45 -0.71,0.47 0.1,0.34 -0.15,0.34 -0.27,-0.92 -0.31,0.56 0.04,0.31 0.29,1.52 -0.57,0.47 -1.04,-0.04 -0.08,1.62 0.45,0.18 -0.54,0.38 0.6,0.34 -0.91,-0.05 -0.19,0.49 -0.91,-0.16 -0.44,0.4 -0.45,-0.47 -0.44,0.38 -0.92,-0.45 0.13,-0.32 -0.12,-0.32 -0.06,-0.76 -0.63,0.33 0.54,-1.53 -0.56,-0.09 -0.09,0.76 -1.3,-0.59 0.16,0.83 -0.48,1.05 0.57,0.45 0.36,0.36 -2.4,0.79 -0.22,0.6 -0.48,0.02 -0.52,1.01 -0.08,1.12 0.44,0.63 -0.34,1.05 0.17,0.54 -0.28,0.7 -0.659998,0.76 0.09,-0.54 -1.18,-0.77 -0.11,-0.49 -1.53,-0.29 -2.02,0.29 -0.48,-0.47 -0.51,0.38 -2.3,-1.71 -2.07,0.36 -0.77,0.63 -0.57,1.01 0.21,1.17 3.09,4.07 0.53,-0.2 0.28,1.62 0.49,0.63 -0.25,0.59 0.4,0.74 -1.6,1.33 -1.97,0.72 -1.84,-0.83 -0.31,-0.14 -0.83,-0.36 0.01,-0.95 -1.75,-1.17 -0.17,-1.06 -0.65,0.16 -0.02,1.66 -0.73,1.49 0.18,-1.33 -0.9,-1.17 -0.15,-1.1 0.54,-0.92 0.45,0.95 0.54,-0.34 -0.09,-0.41 -0.18,-0.25 -0.36,-0.38 0.9,0.11 0.13,-0.54 -0.84,-1.08 -0.72,0.05 -0.53,0.54 -1.09,-0.92 -0.83,0.49 0.84,0.09 -0.9,0.88 0.3,2.52 -1.68,1.84 -0.23,-0.61 -0.28,0.77 -0.28,-0.2 0.38,-0.58 -0.09,-1.02 -0.65,-0.77 -2.86,2.99 -0.28,-0.72 0.34,-0.43 -0.64,0.25 -0.2,0.65 -0.29,-0.52 0.34,-0.32 -0.08,-1.04 -0.53,-1.33 0.39,-1.19 -0.06,-0.36 -0.17,-1.35 -1.42,0.49 0.18,0.65 -1.04,1.96 -0.24,2.16 -1.12,1.66 0.27,0.47 -0.6,-0.5 0.19,-0.65 -0.62,0.36 -0.54,-0.38 0.73,-1.64 -0.26,-0.45 -0.46,0.34 -0.01,-1.02 -0.76,-0.09 0.14,-0.81 -1.02,0.51 0.16,-1.33 -0.31,0.31 -0.42,-0.32 -0.36,0.67 -0.39,-0.49 -0.6,0.69 -0.68,2.97 -0.59,0.56 -0.54,-0.16 -0.78,0.9 -0.65,-0.13 -0.2,0.31 -0.31,-0.59 -0.78,-0.16 -0.19,0.38 0.66,0.32 -0.92,-0.25 0.03,-0.54 -0.83,-0.38 0.26,1.71 -0.47,-0.97 -0.93,-0.05 0.01,-0.36 -0.63,0 -0.34,0.47 -0.28,-0.41 -0.37,0.4 -0.31,-0.23 -0.24,0.4 -0.4,-0.34 -4.59,2.34 -3.37,3.06 -1.29,2.57 0.05,3.45 -0.42,1.08 1.23,3.39 -1.12,1.13 0.27,-0.05 -0.28,2.3 -0.9,3.03 0.41,1.08 -1.79,1.56 -0.7,1.24 -0.19,1.45 0.73,2.2 -2.31,3.29 -1.85,4.22 0.25,1.4 0.53,0.27 0.85,2.16 0.2,1.48 -1.57,1.07 -0.83,1.34 -0.76,0.43 -1.82,-0.36 -1.04,1.43 -1.09,0.64 -0.55,0.84 -0.43,0.34 -1.07,1.11 -1.23,2.11 -1.65,0.61 -1.8,2.41 -0.97,2.14 0.65,-2.5 -1.16,-0.2 0.14,0.43 -0.83,0.46 -0.45,0.3 0.03,-0.48 -1.11,-0.71 0.06,-0.68 -0.43,-0.84 -0.28,0.18 -0.31,-0.16 -0.4,-1.37 -0.36,-0.04 0.49,-0.53 -0.02,-0.82 -0.46,-0.23 0.27,-0.36 -1.19,-0.61 0.04,-0.52 -0.31,-0.16 -0.6,-0.45 0.21,-2.25 -0.58,-0.21 0.38,-1.66 -0.56,-0.28 1.02,-0.25 0.66,-0.64 0.6,1.2 0.6,-0.68 1.03,-0.32 -0.26,-2.36 0.17,-0.48 0.56,-0.12 -0.33,-0.77 1.44,-0.18 0.68,-0.61 -0.03,-0.7 -0.46,0.13 0.44,-1.05 -0.44,-1.4 1.3,-0.43 0.27,-0.23 0.29,-0.25 -0.29,-0.66 0.49,-0.47 -0.68,-0.11 0.63,-1.29 0.7,0.02 0.24,-3.81 0.52,-0.39 -0.21,-0.54 0.55,-0.38 0.03,-0.61 0.84,-0.07 0.15,-0.45 0.13,-0.47 1.49,-0.34 -0.33,-0.34 0.13,-0.73 0.59,-0.12 -0.1,0.68 0.78,0.36 0.3,-0.3 0.24,0.4 0.83,0.07 -0.32,0.34 0.71,2.26 0.38,0.05 0.27,0.11 1.38,0.57 0.85,-0.41 0.42,-1.04 -0.22,-0.97 0.46,-0.81 -0.39,-2.67 0.61,-0.39 0.67,-1.43 -0.01,-1.09 1.41,-2.85 0.55,-0.23 0.34,0.29 1.59,-1.35 0.18,-0.61 -0.91,-1.33 0.07,-1.61 -0.51,-0.52 -0.71,-0.11 -0.6,0.47 -2.42,-0.2 -1.53,0.5 -0.11,-0.57 -0.89,-0.57 0.06,-1.85 -0.83,0 -0.3,0 -1.2,-0.7 -0.05,0.83 -0.65,0.11 -0.32,-0.93 -0.98,0.16 0.1,-1.15 -1.68,-0.22 0.17,-0.38 -0.65,-0.29 -0.39,0.77 0.75,0.99 -0.85,-0.32 -0.05,0.47 -0.7,-0.2 -0.48,-2.37 -0.61,-0.34 0.2,-0.68 -0.82,-0.48 -0.5,-0.95 1.06,-0.16 0.09,-0.5 -0.97,-0.54 0.57,-0.48 -0.57,-0.54 0.01,-0.66 -0.74,-0.36 0.17,-0.57 -1.02,-0.61 0.38,-0.32 -1.19,-1.46 0.37,-0.47 -1.49,-0.61 -0.21,-0.77 -0.81,-0.18 -0.06,-0.34 -0.44,0.13 -0.28,0.31 -0.58,-0.74 0.01,-1.15 -0.46,0.27 -0.93,-1.26 0.14,1.31 1,0.2 -0.03,0.9 0.14,0.4 0.05,0.31 1.55,0.95 -0.19,0.81 -0.46,-0.31 -1.62,0.59 -1.62,-0.38 -0.36,-0.88 -0.24,0.32 -0.74,-0.88 -0.28,0.54 -0.55,-0.85 -1.05,0.41 -0.68,-0.9 -1.37,-0.63 0.1,0.76 -0.43,-0.45 -0.53,0.11 -0.03,-0.81 0.32,-0.13 -0.29,-0.4 -0.97,0.14 -0.48,-0.34 -0.06,-0.2 -0.4200003,-1.3 -0.47,1.12 -0.76,-1.33 -0.8,-0.65 0.14,-1.17 -1.77,-0.2 -0.02,-0.49 1.18,-1.39 -0.39,-0.14 -0.28,-1.01 -0.46,0.29 -0.43,-0.41 0.39,-0.43 -0.34,-1.12 0.59,-0.58 1.15,-0.4 0.85,1.01 0.61,-0.14 0.15,0.7 0.69,-0.09 1.2600003,1.19 1.04,0.22 -0.3,-1.12 1.52,-0.88 -0.13,-1.08 -2.3,-1.84 -0.45,-0.96 0.22,-0.99 -0.9800003,-0.63 0.01,-0.97 1.2200003,0.79 0.09,-0.7 -2.1400003,-1.9 1.2300003,0.43 1.26,1.52 0.65,0.11 0.74,1.05 0.65,-0.07 1.09,1.23 -0.14,0.51 0.83,0.81 -0.76,-0.38 0.69,1.9 -0.83,0.29 1.09,0.6 1.11,-0.18 0.34,0.38 0.06,-0.61 -0.51,-0.67 0.85,0.56 -0.23,-1.12 0.82,0.49 0.27,-1.03 -0.46,-2.27 -0.51,-0.78 -0.18,0.61 -0.29,-0.27 0.15,-0.74 -0.48,-0.07 -0.72,-1.88 0.16,-0.41 0.64,0.18 -0.35,-0.76 2.27,2 0.38,-0.81 1.6,1.57 -0.32,0.6 0.81,0.33 0.31,-1.01 0.93,-0.4 -0.38,-1.25 0.7,-0.16 0.47,0.47 -0.26,-0.94 -0.72,0.14 -1.08,-1.25 -0.61,-0.04 0.33,-0.32 -0.32,-1.35 0.51,0.4 0.43,-0.72 -0.04,0.56 0.38,0.04 -0.17,-0.85 1.46,1.23 0.34,-0.49 0.84,0.98 0.55,0.02 -1.44,-2.11 -0.45,0.34 -0.98,-0.81 0.19,-1.3 -0.94,-0.9 0.91,0.27 -1.54,-1.12 1.05,0.27 -0.23,-0.85 -0.88,-0.49 -0.82,0.81 -0.46,-1.19 -0.79,-0.45 -0.53,0.14 0.14,-1.1 -0.8,-0.85 0.58,-0.31 -1.18,-0.63 0.87,-1.1 -1.09,-1.12 -0.04,-0.71 -1.22,-0.83 -1.31,-1.72 0.14,-1.54 -0.74,-1.83 -1.32,-0.94 -1.13,0.13 -1.2000003,1.36 -1.32,-1.89 -1.01,-0.38 0.31,-1.92 -0.53,-1.81 1.23,0.69 2.3400003,2.81 1.6,0.16 2.31,-1.01 0.63,-1.03 -0.18,-1.49 -0.59,0.15 0.06,-0.6 -0.68,-0.72 0.75,-2.39 3.78,1.32 0.72,0.74 2.7,-0.62 1.54,0.62 1.09,1.14 2.04,5.17 0.65,0.69 0.62,3.66 0.98,1.29 1.1,3.69 1.36,0.61 1.39,-0.16 1.09,-1.32 -0.63,-1.79 0.62,-1.99 -0.53,-2.1 0.47,-1.56 -0.32,-1.21 0.4,-1.58 1.82,-3.04 0.82,-0.49 1.38,1.2 0.29,-0.54 -0.54,-1.09 0.51,-0.71 1.52,-1.07 1.63,0.14 0.48,-0.42 0.14,-2.05 -0.6,-1.54 0.6,-2.23 1.51,0.04 1.69,2 0.12,2.45 -0.3,0.78 0.56,1.38 -0.17,2.09 0.77,1.78 1.59,0.25 2.38,0.25 0.6,-0.36 -0.11,-0.49 0.5,-0.07 0.75,-3.1 -0.54,-0.63 0.66,-0.13 -0.37,-0.44 0.97,-1.09 -1.15,-1.81 0.35,-1.29 -0.38,-0.07 0.07,-0.36 -0.65,-0.29 -0.77,0.24 -0.14,1.31 0.42,0.33 -0.73,0.24 0.43,-3.34 -0.43,-2.65 0.34,-1.38 0.78,-0.25 1.8,1.24 1.73,-1.42 1.6,0.18 0.8,-0.31 0.45,-0.71 2.61,0.78 1.09,-0.55 0.28,0.31 1.54,-0.64 1.94,0.27 3.23,-0.87 2.34,-1.85 0.41,-1.45 1.15,-0.87 0.33,-1.24 1.33,-1.02 0.01,-2.29 0.54,-1.29 -0.28,-0.67 0.42,-0.38 0.46,0.38 -0.39,0.22 0.42,0.56 -0.72,0.95 z m 45.769998,-2.93 0.73,0.53 0.48,-0.4 0.02,2 0.91,1.35 0.3,-0.05 -0.13,0.33 -2.05,-0.07 -1.37,-0.85 0.54,-2.37 0.57,-0.47 z m 16.58,-6.85 2.26,1.37 1.5,0.38 0.68,0.69 2.85,1.06 2.2,1.59 0.67,-0.04 1.8,1.18 2.35,0.27 0.68,0.53 0.81,1.71 0.08,1.31 -1.76,1.86 0.13,1.8 0.79,0.27 0.38,1.47 3.16,4.58 0.06,0.2 0.05,1.76 1.32,2.23 -0.66,2.12 -2.13,0.98 -1.08,1.11 -0.14,-1.03 -1.34,0.09 -0.09,-0.38 -1.1,-0.11 -0.59,-2.61 -0.49,0.49 -0.23,-1.45 -0.58,2.54 -1.2,1.63 -0.59,-1.05 0.53,-0.27 0.07,-1.27 -0.53,0 -0.38,0.58 -0.18,1.36 -0.96,-0.98 -0.57,-1.43 -1.59,-0.02 -0.6,0.73 -0.22,1.18 -0.52,0.16 -0.37,2.25 -0.81,0.69 -0.22,-1.11 -0.34,0.67 -0.91,-0.38 -0.01,-2.72 -0.64,0.69 0.22,-1.22 -0.8,0.38 -0.57,-1.38 -0.55,0.89 -1.17,-1.29 -0.6,-1.43 1.15,0.38 -0.28,-1.34 -0.65,0.38 -2.35,-3.05 -0.97,-0.11 -0.43,0.82 -0.96,0.35 -2.17,-1.65 -1.84,-0.55 -0.91,-1.09 -0.31,-1.09 -0.35,0.02 0.78,-2.91 -0.95,-1.04 1.25,0.11 0.17,-0.49 1.55,-0.98 2.32,1.27 1.33,-0.18 0.92,-1.36 -0.05,-0.89 -0.83,-1.22 0.35,-1.82 -0.51,-0.64 0.55,-0.55 -0.57,-0.35 0.55,-2.62 1.19,-1.35 1.06,0.69 2.89,-1.37 z"
     title="Saaremaa"
     id="EE-74" />
  <path
     d="m 203.58951,60.87311 0.82,0.34 0.12,1.06 0.89,0.45 -0.94,0.17 -0.83,-0.85 -0.17,0.43 1.56,1.56 0.36,-0.33 1.18,1.93 0.56,2.32 -1.33,1.52 -1.6,-0.65 -0.08,-0.87 -3.79,-4.31 -1.63,-2.73 0.12,-0.37 1.18,0.47 2.54,-0.8 1.04,0.66 z m 8.05,-0.15 1.3,4.39 -0.5,0.37 0.26,1.36 -2.18,0.09 -0.27,-0.15 -1.05,-0.06 -0.9,-1.24 0.36,-1.45 -0.33,-0.74 -1.11,-0.74 -0.56,-1.37 -1.43,-0.2 1.04,-0.67 0.59,-1.6 0.82,-0.63 2.61,1.12 1.35,1.52 z m 131.14,-31.83 0.32,1.49 -0.69,0.95 -0.11,-1.01 -1.2,-1.16 1.21,-0.88 0.47,0.61 z m -11.43,-5.42 1.41,0.08 0.42,0.49 -0.56,0.49 0.31,1.07 -0.77,-1.51 -0.81,-0.62 z m -4.97,-5.51 0.7,0.39 0.23,-0.02 1.1,-0.86 1.5,3.22 -1.43,-1.48 -0.77,-0.15 -0.62,0.39 -1.6,-2.53 0.89,1.04 z m -40.16,-1.93 0.28,0.52 -0.73,0.37 -1.62,2 -1.44,-0.17 -0.78,-1.31 0.17,-1.05 1.92,-0.52 0.23,-0.37 0.98,1.24 0.87,-0.47 -0.33,-0.99 0.45,0.75 z m -25.82,-3.5 0.39,0.04 0.8,2.79 1.17,1.61 1.55,6.27 0.9,1.35 -0.22,0.62 -1.49,0.04 -0.18,0.37 -2.03,-0.64 -1.78,-1.35 -0.35,-0.71 -0.41,0.08 -1.6,-3.5 1.02,-1.36 -0.09,-0.73 0.73,-1.05 0.3,-1.68 0.56,-0.52 0.48,-1.7 0.25,0.07 z m 56.03,2.47 -1.82,-1.27 -0.32,-1.91 2.14,3.18 z m -12.23,-10.25 0.8,0.92 0.68,-0.26 0.29,0.62 1.73,0.38 0.21,0.82 0.71,0.04 0.09,0.71 1.55,1.71 0.46,1.16 -0.1,0.73 -0.82,0.71 -0.5,-1.01 -2.36,-0.9 -0.6,0.62 -0.92,0.17 -0.14,0.99 -0.65,-1.74 1.79,-0.99 -0.91,-1.2 1.19,0.79 0.08,-0.86 -0.86,-0.41 -0.42,-0.88 -0.11,0.79 -0.46,-1.39 -0.98,-0.34 -0.19,-0.75 0.44,-0.43 z m 68.93,-3.87 1.12,-0.17 -0.5,1.43 0.29,0.77 0.67,-0.11 0.1,1.13 0.92,-0.37 0.01,-0.36 0.24,-0.67 2.52,2.27 1.11,1.35 -0.84,0.84 0.36,1.56 0.61,0.66 1.37,0.15 0.26,0.52 -0.66,1.46 -0.76,0.51 1.01,2.51 0,3.61 -0.43,0.81 1.27,0.81 1,-0.45 1.11,0.41 0.32,1.03 1.38,-0.17 0,0 1.01,1.53 -0.9,1.57 -3.39,1.4 0.48,1.66 -0.17,1.25 1.6,0.45 -0.08,0.62 1.33,2.5 1.48,11.47 1.26,0.32 1.9,-0.19 0.24,1.51 0.6,0 0.85,1.08 0.06,0.75 -1.18,2.14 0.5,0.91 -0.54,0.69 1.1,1.08 0.16,2.16 1.89,2.07 0.96,1.88 0.69,2.88 -0.28,1.73 1.02,4.77 -0.46,1 1.17,3.6 -0.36,1.02 0.79,1.41 -0.9,0.76 -3.09,0.5 0,0 -0.53,-0.83 -1.01,-0.2 -0.63,-1.82 -0.59,-0.35 -6.83,-0.63 -1.25,-0.8 -1.77,-0.13 -0.65,0.2 -2.38,2.39 -2.93,0.24 -1.29,-0.52 -1.96,1.82 -0.75,-0.43 -1.91,0.46 -0.55,0.52 0.74,0.8 -0.17,1.45 -0.46,-0.07 -0.92,0.95 -0.68,-0.67 -0.11,0.24 -2.26,-1.19 -1.73,-1.71 -0.72,-0.22 -1.9,0.28 -2.69,1.91 -2.82,-1.2 -3.21,0.07 0.41,1.02 2.91,3.02 0.67,3.13 1.61,2.94 -2.66,5.92 0.28,0.31 -1.04,1.3 -1.08,0.5 -1.47,3.29 -0.49,0.07 -0.38,1.29 -0.82,0.43 0.95,1.98 -1.31,2.22 -0.18,1.29 3.44,1.64 0.68,0.81 -2.7,5.79 -1.29,-1.11 -0.39,-1.64 -0.66,-0.89 -1.47,-0.57 -2.79,2.49 2.05,3.24 -0.9,6.89 -2.52,2.84 -1.6,-1.29 -1.04,0.37 -1.24,3.24 0,0 -0.72,0.48 -2.52,-1.23 -0.5,0.22 -0.29,-0.97 0.25,-0.81 -1.27,-0.2 -0.35,-0.77 -1.15,-0.61 0.92,-0.72 -0.37,-0.64 -0.71,-0.24 -0.22,0.28 -0.89,-0.74 -2.48,-0.04 0.16,-0.85 0.77,0.11 -0.12,-0.37 -3.12,-0.55 0.28,-0.55 -1.07,-1.84 1.14,-0.61 -2.01,-3.23 0.42,-1.25 1.34,-1.38 -1.4,-0.52 -0.82,0.17 -1.99,-1.42 -1.07,0.44 -0.74,-1.42 -0.68,0.55 -2.61,0.06 -4.19,-1.53 -2.32,-2.77 -0.24,-1.16 -1.44,-1.46 -0.6,-1.86 -1.15,0.7 -1.25,-1.42 -0.6,0.63 -1.65,-0.2 -3.53,-1.96 0.45,-1.11 -0.47,-0.22 -0.07,-3.98 -1.72,0.37 -0.16,-1.33 -0.01,-2.92 0.72,-4.09 -1.53,0.63 -2.7,-0.67 -2.54,0.52 -0.65,0.59 -3.75,-0.07 -0.51,4.76 -1.05,-0.11 -0.48,-1.33 -0.83,-0.87 -0.8,-0.04 -0.2,-0.43 -0.78,0.33 -1.83,-2.41 -0.99,0.85 0.36,1.04 -0.38,0.15 -0.47,-0.85 -0.63,0.33 -0.56,-0.24 -0.67,-0.98 -1.27,0.7 -0.43,-0.37 -2.41,-0.04 -0.28,1.07 -1.04,-0.24 -0.85,2.31 -2.54,2.55 -2.72,-0.54 0.04,2.66 -0.96,2.5 -0.12,1.55 1.84,2.44 -3.48,1.16 1.25,0.98 0.34,1.37 1.37,-0.11 -0.01,5.46 -0.29,-0.26 -1.11,0.46 -1.02,-0.74 -4.89,-0.68 -2.56,0.57 -1.99,1.11 -6.15,0.17 -0.35,0.83 -0.68,-0.04 -1.5,-1.12 -0.43,1.25 0.69,1.4 -1.19,1 0.31,0.44 1.3,-0.63 0.18,0.85 -0.37,0.59 1,1.48 -1.74,0.96 -0.31,-0.76 -1.14,0.37 -0.29,0.65 -0.71,-0.55 -0.31,1.46 -0.92,0.41 -0.66,1 0.37,0.92 0.45,-0.02 -0.07,1.16 -0.9,0.53 -0.49,-0.4 -0.53,0.65 0.67,1.9 -0.28,0.83 -1.67,-0.71 -0.22,-1.77 -0.78,-0.5 -1.22,0.04 -1.99,1.51 -1.14,-0.2 -2.36,-3.13 -2.02,1.23 -0.78,1.2 -1.61,-1.22 -2.69,4.38 -2.04,1.03 0.24,1.33 -1.26,0.31 0,0 -0.71,-2.45 0.13,-2.06 7.45,-7.37 -0.38,-0.55 -0.94,-0.22 -0.23,-1.51 -2.75,-1.66 -0.02,-0.66 -1.45,-1.72 0.83,-0.29 -0.79,-1.72 0.79,-0.11 0.93,-1.4 -0.22,-1.46 -5.22,-3.03 -2.79,-0.83 -8.2,-0.76 -1.21,1.03 -0.7,-0.53 -1.38,0.43 -0.44,1.13 -4.27,-5.8 -2.13,0.28 0.16,-1.16 -1.2,-1.79 -4.72,0.15 -0.07,-5.94 -4.72,0 -0.15,-5.72 0,0 0.72,-0.85 0.6,-2 -0.15,-0.61 -0.9,-0.3 -0.21,-0.5 0.04,-2.61 0.67,0.69 1.18,-0.56 1.43,0.74 0.99,-0.78 0.85,-2.04 2.45,-0.2 1.05,-0.63 2.09,0.89 1.99,1.63 1.08,0 0.46,1.41 2.5,-2.13 0.89,0.85 3.22,0.95 1.27,-0.48 0.74,-1.09 0.78,-0.13 0.54,-0.28 1.94,-0.78 0.63,0.24 0.54,-0.74 1.06,0.24 0.67,-0.69 0.89,1.08 0.66,-0.52 0.33,0.76 0.65,0.33 1.74,-0.11 0.05,1.11 -0.6,0.09 -0.29,0.8 0.44,0.78 0.24,-0.54 1.04,0.09 0.25,-0.57 1.57,-2.43 0.82,-3.3 0.48,-0.39 -0.7,-0.57 0.28,-0.59 -0.65,-0.26 -0.97,-2.69 -3.44,-2.27 -1.88,-2.12 -0.82,-1.97 -0.2,-5.08 0.49,-0.32 2.06,1.06 1.39,-0.11 2.25,1.6 0.8,0.06 2.6,1.67 1.13,0.26 0.48,0.28 0.57,1.69 3.99,2.68 3.7,-0.56 0.69,-2.4 -1.55,-3.76 -1.22,-1.32 -2.38,-1.02 -1.35,-1.38 0.71,0.13 0.73,-1.88 1.05,0.17 -0.29,1.17 0.85,0.67 2.01,0.34 2.64,-1.82 2.09,-0.26 3.43,-2.74 2.03,-0.8 1,-2.42 -0.11,-1.04 -0.44,-0.37 0.32,-3.37 1.32,-1.03 -0.27,-1.02 0.79,0.3 0.62,-0.63 0.43,0.47 4.54,-0.15 1.31,0.62 2.16,0.24 2.29,2.52 0.66,1.38 3.1,0.95 1.52,1.18 2.23,-1.06 0.89,-1.14 -0.91,-1.75 0.48,-0.73 0.5,0.56 0.96,0.04 0.7,1.08 5.13,3.41 0.62,0.9 0.95,0.17 -0.08,-0.35 1.7,-1.27 0.27,-1.98 -0.35,-0.43 -0.97,-0.3 -0.46,-0.73 -0.4,-0.6 -0.8,-0.48 -0.08,-0.54 -0.39,-0.26 -0.13,-0.86 2.15,1.4 1.73,-0.37 0.46,0.3 0.49,-1.45 -0.17,-0.67 -0.65,-0.32 -0.28,-1.27 0.32,-0.47 0.41,0.88 0.61,-0.04 0.35,0.45 0.37,-0.43 0.01,-0.34 -0.02,-0.95 0.66,2.02 1.41,0.82 -0.54,0.04 -0.76,1.77 -0.76,0.84 -0.35,-0.09 -0.26,0.77 1.43,-0.71 0.91,1.31 0.48,-0.58 0.36,0.15 0.5,0.45 1.03,0.82 0.68,-0.43 0.22,0.63 0.19,0.17 0.48,0.06 0.8,-0.19 1.5,0.48 1.3,-1.25 1.65,-2.85 -0.08,-0.71 0.42,0.06 0.04,-0.06 0.34,-0.39 0.75,-2.48 -0.18,-0.78 -0.85,-0.3 -0.04,-0.65 -0.64,-0.86 -0.45,-0.2 -0.3,0.06 -0.44,-0.97 0.62,-0.62 -0.01,-0.95 -0.95,-1.12 -0.65,0.41 -0.64,-4.56 0.43,-5.7 0.43,1.5 2.27,0.54 0.16,0.99 0.63,0.43 1.02,0.21 0.76,-0.45 0.62,1.25 0.43,-0.13 0.48,0.02 0.57,-0.49 0.99,0.24 0.4,1.55 0.41,-0.15 0.41,0.45 0.05,0.47 -0.58,0.39 0.04,0.84 2.18,1.96 -0.09,3.42 0.4,0.47 0.03,0.04 0.34,0.35 1.19,0.52 0.01,-0.67 0.18,-0.19 0.72,0.84 0.55,-0.32 0.92,0.19 1.13,1.01 2.91,-1.14 0.45,-1.21 -0.24,-0.86 3.48,0.39 1.08,0.93 2.51,-0.41 0.81,-0.82 0.34,0.15 -0.2,1.01 0.72,1.23 1.23,0.97 1.02,-0.39 0.31,1.44 0.6,0 1.82,1.16 0.06,-1.08 2.07,-1.6 0.58,-1.87 -0.43,-1.62 -1.25,0.13 -0.4,-1.16 -1.55,-1.79 0.68,-0.49 -0.11,-2.71 0.18,0.6 0.86,0.36 0.28,0.78 0.93,0.75 1.91,0.77 1.01,2.19 -0.26,1.01 0.51,0.56 2.23,0.06 1.6,-0.95 2.35,-2.17 0.35,-1.46 0.66,1.33 -0.41,2 1.31,0.88 2.05,0.62 1.27,1.16 2.24,0.58 2.11,-0.65 1.1,0.78 2.42,0.62 0.64,-0.39 1.43,0.34 1.56,-0.61 1.35,-0.97 -0.07,-0.62 0.53,-0.41 -0.35,-2.39 2.07,-0.75 2.37,0.47 0.91,-0.37 1.44,0.13 1.4,-1.46 1.11,-2.86 -0.28,-0.86 -1.15,-0.9 -1.09,-1.66 -0.49,-1.18 0.08,-1.85 -2.07,-2.43 -0.19,-1.5 -0.76,-1.14 -0.01,-4.66 0.3,-1.69 0.62,-0.21 -0.71,-1.56 0.67,0.24 0.46,-0.41 1.42,1.09 -0.65,0.45 0.84,1.93 -0.76,1.5 1.02,1.5 2.17,1.03 1.58,-0.6 0.19,-0.54 0.92,2.55 1.41,0.71 1.12,-0.45 -0.03,0.77 0.9,1.31 -0.13,0.88 0.59,0.92 0.79,-0.11 1,1.72 1.31,0.23 0.76,0.95 1.22,0.09 1.49,-0.69 1.88,-2.3 -0.6,-1.14 1.06,-3.14 -1.03,-1.5 -1.68,-0.94 -0.14,-0.73 0.26,-1.33 -0.41,-1.82 0.89,-0.64 0.1,-1.33 -1.76,-1.07 -0.29,-0.77 0.68,-0.79 0.49,0.15 1.02,-0.84 0.45,-0.17 -0.28,-1.41 0.43,0.76 z"
     title="Harjumaa"
     id="EE-37" />
</svg>
