<?xml version="1.0" encoding="UTF-8" standalone="no"?>
<svg
   xmlns:mapsvg="http://mapsvg.com"
   xmlns:dc="http://purl.org/dc/elements/1.1/"
   xmlns:cc="http://creativecommons.org/ns#"
   xmlns:rdf="http://www.w3.org/1999/02/22-rdf-syntax-ns#"
   xmlns:svg="http://www.w3.org/2000/svg"
   xmlns="http://www.w3.org/2000/svg"
   version="1.1"
   id="svg2"
   height="584.5448"
   width="596.41547"
   mapsvg:geoViewBox="-4.796120 51.089515 9.560553 41.363289">
  <metadata
     id="metadata30">
    <rdf:RDF>
      <cc:Work
         rdf:about="">
        <dc:format>image/svg+xml</dc:format>
        <dc:type
           rdf:resource="http://purl.org/dc/dcmitype/StillImage" />
        <dc:title></dc:title>
      </cc:Work>
    </rdf:RDF>
  </metadata>
  <defs
     id="defs28" />
  <path
     title="Grand Est"
     id="FR-AO"
     d="m 399.61523,60.394531 -5.07031,4.728516 -0.91992,1.861328 0.5293,4.548828 -3.92969,0.570313 -6.28906,3.169922 -5.66016,-2.039063 -3.23047,0.669922 -0.59961,2.900391 1.58008,0.628906 -0.0996,2.291015 -1.96094,5.669922 1.82032,1.46875 -2.68946,3.720703 -2.4414,1.339844 -0.46875,2.88086 -3.07032,-0.300782 -0.73046,1.009766 2.25976,3.25 -1.16992,1.679688 1.23047,1.30078 -1.58008,1.12891 1.13086,3.91015 -1.27148,0.46094 -0.0586,4.9707 -3.20117,-1.09179 -1.49023,-1.86914 -2.83008,1.68945 -0.17969,2.25 -3.04883,-0.72852 -5.51172,2.71875 1.3711,5 -1.00977,1.39063 1.17969,1 0.68945,-0.6211 0.66016,1.9004 1.41992,-0.26954 -0.0293,1.41016 -1.80078,1.04883 -3.43945,-0.51953 -0.89063,1.95117 1.55078,2.67969 -2.13085,1.07031 -0.0703,1.46875 2.72071,-0.38867 1.12109,1.83008 -3.64063,3.39843 0.53907,1.08985 -1.21875,0.2207 -0.14063,1.56055 -1.75976,0.16015 -1.7793,3.76953 0.0801,2.4004 -3.48047,0.33007 1.66015,1.15039 -2.03124,2 3.06054,1.26954 -0.70898,6.43945 3.44922,-0.69922 -0.58008,0.83984 1.63086,1.01953 -2.41016,0.74024 0.50977,0.92969 -2.04102,1.21093 0.66992,1.79883 -3.08984,0.85938 1.30078,2.34179 -2.25977,0.66993 1.3086,5.60937 0.58008,1.9707 1.58984,-1.10156 1.55078,0.61133 3.4707,4.10937 -0.41015,1.0293 1.73047,0.95117 -0.76172,2.25 0.86133,0.42969 -1.75977,2.54883 2.13867,-0.32813 1.53125,3.09961 2.3086,-1 -0.34961,-1.12109 1.41015,0.52148 -0.35937,2.06836 2.13867,0.91016 1.29102,4.57031 2.06054,1.80078 -1.36132,0.68946 0.52148,1.28906 1.17969,0.26172 0.59961,-1.41016 0.77929,1.34961 -0.76953,3.11914 4.55078,-0.82031 1.66992,1.07031 0.63868,-1.26953 2.08008,1.2207 1.85156,-1.80078 0.51953,-0.27929 1.45898,1.11914 -0.30859,-1.59961 1.30859,-0.28907 0.75977,2.58985 2,0.31836 0.90039,-2.25 9.9707,-0.41993 -0.76953,-2.3789 1.76953,-1.40039 5.03907,0.32031 3.86132,1.10938 0.66992,1.07031 -1.02148,1.61914 2.53125,0.11133 0.82031,1.25 -1.40039,1.94922 1.19922,0.76953 0.37109,-1.31836 1.39844,-0.21094 1.55078,3.37109 0.55078,0 1.59961,3.61914 -3.17968,2.51954 1.79883,0.32031 0.40039,4.67969 2.5,-1.5 0.0293,1.12109 1.32032,-0.18164 -0.29883,1.66015 2.65039,1.33985 2.52929,-2.07813 -0.21093,1.72852 3.56054,1.83984 -0.32031,2.79102 2.28125,-2.00977 2.00977,1.12891 0.70898,-0.85938 1.58008,-4.29101 4.78125,0.0918 1.73828,-2.1211 1.2207,2.16992 3.90039,-0.76953 0.75,-3.82031 -1.35937,-1.99023 0.61914,-2.57032 2.09961,0.0508 0.79101,-2.42968 2.78907,0.44922 -0.25,-1.16016 1.18945,-2.17969 1.40039,0.39063 0.0195,-1.58985 2.01172,-3.17968 1.12891,0.56835 -1.33985,1.86133 0.90039,0.13867 2.20899,-1.26953 1.54101,-2.91015 3.95899,-0.98047 0.10156,0.0703 0.45899,3.20117 2.30078,1.8086 0,0.32031 7.67968,-1.76953 1.91016,1.16992 1.7793,3.4707 5.18945,-3.73047 1.78125,2.59961 7.85938,5.06055 1.25,2.42969 3.07031,0.71094 4.00976,2.95898 0.39063,3.14063 -1.67969,4.26953 3.34961,0.57031 2.36914,4.17969 -0.43945,1.33007 2.88086,0.55079 -1.32032,3.06835 2.58008,0.28126 0.45899,1.0996 3.54101,-1.2207 2.39844,0.56055 2.87109,-2.38086 -1.43945,-0.56836 0.43945,-0.91016 2.36915,0.78907 0.9414,-0.95899 -0.56055,-1.37109 1.36915,-0.44922 -1.3086,-0.71094 3.5,-2.21875 0.33984,-1.75976 -3.31054,-5.71094 1.50976,-2.24024 -0.75976,-2.79882 1.11914,-6.16016 2.73047,-5.74023 -2.18946,-3.84961 0.29883,-5.36133 3.72071,-6.2793 1.10937,-4.98047 2.14063,-1.58008 -0.50977,-4.18945 1.49023,-5.98047 1.56055,-1.52929 -0.25,-4.33985 1.61914,-3.57031 5.17969,-5.07031 0.33008,-2.21094 4.88086,-2.83985 2.46875,-6.41992 3.46093,-3.8789 -5.79101,-1.50977 -6.60938,-4.29101 -2.80078,1.54101 -3,-2.04101 -2.43945,1.41015 -0.11914,-0.82031 -3.96094,0.19141 -0.23047,-1.22071 -4.28906,-1.52929 -1.41992,-4.51172 -2.41992,0.27148 0.36914,-1.20117 -3.3086,0.77148 -0.10156,1.7793 -1.50976,-0.0195 -1.33985,1.80859 -1.99023,-0.94922 -3.68946,0.59961 -2.40039,-2.24023 -1.97851,2.63086 -0.72071,-4.85938 -3.95117,-2.04101 -4.1582,0.64062 0.98828,2.01953 -1.09961,1.75 -4.01953,-0.69921 -1.11914,-1.46094 0.5,-1.95899 -1.16992,0.14844 -0.27149,-2.13867 -1.18945,-0.58008 0.38086,-1.33984 -4.27148,-4.26172 1.40039,-1.17969 -2.53907,-2.33008 0.69922,-1.20898 -5.31054,-3.5 -2.66016,1.04883 -5.21875,-3.43946 -4.64063,1.33008 -1.11914,2.51953 -1.12109,-0.85937 -1.29883,1.24023 -2.49023,-0.2207 -0.64063,-2.70898 -4.05078,-0.33985 -1.30859,-2.80078 -2.66016,-1.310547 -1.13086,1.550777 -4.29883,-0.7207 -1.28125,2.73047 -2.27929,-1.44922 -3.48047,2.04883 -0.71875,-4.449219 -1.53125,-2.109375 -0.93946,-1.011719 -1.99023,-0.919922 -1.41016,1.261719 0.73047,-2.730469 -2.54101,-2.679687 -4.33008,0.160156 -2.98828,-4.451172 -4.11133,-2.390625 -5.96875,0.451172 0.95898,-1.710938 -1.15039,-3.019531 1.71094,-2.75 -4.09961,-3.810547 2.13867,-4.458984 -0.8789,-1.740235 1.28906,-2.359375 0.87109,0.878907 -0.18164,-2.048828 1.19141,-1.101563 -2.51953,-1.128906 -0.47071,-0.929688 z" />
  <path
     title="Nouvelle-Aquitaine"
     id="FR-AC"
     d="m 200.1543,248.08398 -1.09961,0.91016 -1.20899,4.48047 -2.08008,-0.86133 -1.79101,2.83008 -2.07031,-0.97852 1.52148,-2.02148 -1.7207,-0.29883 -0.84961,0.85938 -2.54102,-0.69922 -5.42968,0.8789 -0.45899,1.49024 -3.06055,0.81055 0.90039,-1.71094 -1.46093,-0.11914 -2.56055,1.17968 0.53125,1.91993 -2.29101,2.16015 -2.95899,-0.38086 -1.83008,1.16992 -3.01953,-1.29882 -2.70117,2.16015 -1.81055,-0.28125 1.35156,0.75977 -0.61132,0.98047 1.25976,0.041 -0.47851,0.66016 2.15039,0.80859 -0.96094,2.19141 2.31055,2.71875 0.16992,0 1.65039,1.11133 0.28906,0 1.08985,0.70898 -0.83008,0.76953 0.041,0.25 -0.10156,2.25 2.64063,3.33008 -0.97071,0.83984 1.77149,1.38086 -0.90039,1.63086 1.77929,0.87891 -0.53906,2.7793 0.96875,2.59179 -1.80859,0.71875 1.6289,3.93946 -1.35937,3.45117 0.86914,0.3789 0.61133,-1.33984 2.75976,1.74024 -4.49023,4.08984 -2.08985,-0.50977 -1,1.40039 -4.38085,-2.11914 -0.17969,-0.26172 -0.7793,1.48047 -1.51953,-0.56054 -1.86133,0.99023 -1.23047,-0.74023 1.31055,-2.90821 -5.13867,1.26954 -0.88086,1.94921 -1.69922,0.041 -0.74024,0.86914 0.95899,2.54102 -3.74023,2.88867 -1.54883,2.87109 1.28906,1.09961 2.36133,-0.71094 -0.98047,1.15039 1.86914,0.65039 -0.58984,1.22071 1.73046,0.68945 2.0293,5.5 -2.80859,-0.0195 1.5,1.41992 0.21875,1.76953 -0.91016,0.25 1.05078,2.23047 -1.66015,2.89844 -2.64063,0.3418 1.88086,2.98828 -4.30078,1 0.0605,5.54101 0.60937,1.19922 -0.48047,-1.20898 1.13086,-0.24024 7.56055,4.37891 2.21875,3.68164 6.24023,4.0293 2.67969,3.91992 1.65039,5.76953 0.0273,0.002 1.93359,11.56836 3.04883,7.07031 -3.94922,-3.8496 -4.74024,-15.91993 -10.89062,-9.75976 0.56055,-1.10157 -1.04883,-0.0684 1.59961,-0.28125 -0.88086,-2.20899 -1.39063,1.01953 -2.58984,4.76953 -4.33984,49.39063 0.63085,1.03906 0.58985,-4.54883 2.70898,-4.81054 5.54102,4.61914 -1.48047,0.0215 2.14062,1.00977 0.57032,2.49023 -7.8711,-1.33008 -2.61914,6.66993 -1.66015,19.24023 -6.21094,32.31836 -6.37891,12.24023 -2.79101,2.55078 -5.0293,0.84961 0.0703,1.33008 2.04883,1.16016 0.3418,1.93945 4.35937,-0.59961 0.66016,3.13086 1.33008,0.12891 0.55859,-2.18946 1.15039,-0.32031 6.08008,2.04102 0.26953,3.89843 -1.34961,3.49024 -2.43945,2.23047 1.36914,2.38086 3.57031,1 0.40039,-3.74024 3.04102,-1.34961 -1.5918,2.82813 1.93164,1.41015 1.39844,-0.66015 2.70117,1.13086 0.88867,1.54101 1.16016,-0.91015 7.10156,4 7.85938,-0.83008 0.91992,4.03906 2.23047,0.66992 5.25,6.04102 1.90039,-2.79102 2.63867,1.80079 2,-0.20118 3.38086,-2.84961 -0.58985,-3.83007 1.91993,-0.93946 -0.28125,-4.02929 1.13086,-1.80079 3.34961,-0.83007 -0.53907,-3.5293 1.94922,-0.83008 1.18946,-2.90039 2.06054,0.16992 -0.2207,-2.60937 0.99023,0.23828 1.33008,-2.94922 -1.19922,-1.75977 3.15039,-2.55078 -1.38086,-1.47851 0.1211,-4.16016 -2.76172,1.95899 0.0606,-2.96875 1.9707,-0.51172 -1.99024,-4.33008 -1.13085,0.27148 -0.11915,-2.20117 -3.34961,-0.82031 -2.55078,0.78125 -0.35937,-1.89063 -1.33985,-0.15039 -0.0898,-1.41015 1.64844,-0.66993 -0.31836,-3 2.28906,-1.71874 -1.32031,-4.06055 1.37109,-0.0996 -0.63086,-2.74024 0.91993,-0.60937 -2.20899,-1.68164 2.48828,-2.38867 3.47071,0.61914 2.4707,-3.20899 1.78906,1.74024 -1.15039,1.42969 3.32031,1.88867 0.71094,-1.17969 -0.84961,-2.57031 2.95899,-2.31836 1.23046,1.66015 1.45899,-2.43164 1.63086,-0.39843 2.89062,1.79882 0.58985,-1.08007 5.30859,-1.12891 0.78125,-1.57031 3.93945,0.0488 1.54102,-1.44921 2.93945,3.2207 3.16992,-2.15039 0.73047,-2.63086 1.71875,-0.20898 -0.36914,-1.8711 3.0293,0.98047 1.33008,-0.65039 -0.35938,-2.13867 -1.33008,-0.52149 2.20899,-0.3789 1.83008,-4.82032 -3.37891,-2.06054 1.11914,-4.09961 1,-0.16992 0.87109,2.25 0.43946,-0.94922 4.55078,-0.23047 -0.24024,-3.53125 -1.57031,-1.03906 -0.0195,-3.55079 -1.4707,-2.16015 1.40039,0.41015 3.68945,-2.10937 -0.40039,-1.16992 2.45117,-2.64063 -0.25,-1.79882 3.12891,-0.80079 3.81055,-3.27929 -0.73047,-3.25 2.81054,-0.88086 -0.16992,-1.90039 3.25,-2.08008 -1.16015,-1.85938 1.19922,-0.34961 -1.16993,-4.49023 -0.16992,-0.68945 1.57031,-0.90039 0.01,0 3.74023,-1.58008 0.32032,1.01953 4.17968,0.0703 4.32032,5.33985 2.14062,0.8496 4.39844,-3.20898 1.65039,1.48047 1.57031,-1.28125 3.13086,-0.0996 1.64844,-0.42969 0.35156,0.0899 1.37891,-1.15039 -1.83985,-3.42969 3.08985,-1.30078 0.26953,-3.21875 2.1914,-1.66992 -1.31054,-0.92969 -0.2793,-2.3711 6.87891,-6.77929 -0.45899,-4.42969 5.47852,2.46875 1.98047,-1.29883 -1.68946,-1.60156 1.25977,-7.97852 -2.33984,-2.4707 1.02929,-2.65039 1.48047,-0.0801 0.0801,-4.0293 -5.61914,-6.83007 2.83008,-2.42969 0.17968,-0.041 1.32032,0.18164 2.6582,-2.96093 0.32031,-2.56055 1.96094,-0.91016 -0.41016,-3.75 -2.14062,-3.04882 0.65039,-4.13086 -3.4707,-7.45899 -2.10938,-0.96094 -0.41992,0.78125 -1.40039,-2.90039 -0.94922,1.26953 -2.59961,-1.9707 1.3086,-1.74023 -1.92969,-0.54883 -0.28907,-2.30078 -3.48046,-0.51953 -4.49024,1.10937 -4.55078,-1.99023 -5.79883,1.04101 -2.33008,-1.84961 -1.4707,0.37891 0.51953,1.49023 -1.28906,2.10938 -1.80078,-1.68945 -2.36914,1.82031 -0.79102,-2 -2.67968,1.73047 -0.78907,-2.05078 -4.58984,4.83984 -2.55078,-3.21875 -1.68946,0.28906 -0.40039,1.41016 -3.52929,0.33984 -0.39063,-1.45898 -1.28906,0.30859 0.0293,-0.0195 0.75976,-1.00977 0.64063,-1.91015 -2.54102,-0.90039 -0.26953,-3.51953 -2.14062,-1.75977 -3.0293,0.0195 -0.23047,-1.84961 -4.31055,-2.05078 -0.75,-1.69922 1.46094,-3.90039 -0.59961,-1.98047 -4.05078,-3.75976 -0.7793,-3.66016 -3.81054,-3.24023 -0.5293,-4.26953 -3.07031,-2.04883 -2.07032,0.0801 1.25977,2.96875 -3.83984,-0.0996 -2.78907,1.77929 -3.04101,-1.20898 -1.73047,1.14062 -1.33984,-3.63086 0.88085,-0.49023 -0.39062,-3.20898 -1.43945,0.51953 -0.96094,-1.75977 -2.76953,0.75 0.90039,-1.98047 -0.75977,-1.43945 -0.82031,0.85937 -1.13086,-0.38086 0.2207,-1.08007 -2.49023,0.36133 -1.08984,-2.73047 -1.48047,-0.66993 z m -63.51953,55.42969 -2.10938,0.83985 1.16992,2.49023 2.98047,-0.01 6.33008,3.53907 2.39844,-1.18946 -4.75,-2.75976 -2.49024,0.44922 -0.58984,-0.73828 1.10156,-0.99024 -3.66016,1.55859 -0.80078,-1.50976 1.93946,-0.2793 -1.51953,-1.40039 z m 4.29101,12.51953 0.85938,5.6211 4.89062,4.33984 1.58008,4.83008 1.84961,-3.58008 -2.07031,-4.10937 -0.0703,-3.28125 -3.2207,-0.60938 -3.81836,-3.21094 z m 54.66016,155.74024 0.38867,0.1914 0.24023,3.56836 -0.67968,-0.16015 -1,-0.95899 1.20898,-0.49023 z m -0.82032,3.61133 0.24024,0.1582 1.0293,2.52148 -1.73047,1.24024 -0.7793,-1.75 0.81055,-1.93164 0.28906,-0.21875 0.14062,-0.0195 z" />
  <path
     title="Auvergne-Rhône-Alpes"
     id="FR-AR"
     d="m 325.18555,271.17383 -4.58985,0.11914 -3.08984,4.06055 -1.98047,-0.54883 -1.56055,1.08008 -1.8789,-1.71094 -0.5918,1.60937 -3.20898,1.71094 0.15039,1.91016 -0.95117,-0.76953 -1.44922,0.75 1.07031,1.18945 -1.2207,1.83984 1.55078,0.85938 0.44922,2.48047 -3.24024,2.06054 -2.05859,-0.81054 -5.24024,0.96093 -1.56054,2.76954 -1.0293,0.01 -0.74024,3.0293 0.28907,2.30078 1.92969,0.54883 -1.3086,1.74023 2.59961,1.9707 0.94922,-1.26953 1.40039,2.90039 0.41992,-0.78125 2.10938,0.96094 3.4707,7.45899 -0.65039,4.13086 2.14062,3.04882 0.41016,3.75 -1.96094,0.91016 -0.32031,2.56055 -2.6582,2.96093 -1.32032,-0.18164 -0.17968,0.041 -2.83008,2.42969 5.61914,6.83007 -0.0801,4.0293 -1.48047,0.0801 -1.02929,2.65039 2.33984,2.4707 -1.25977,7.97852 1.68946,1.60156 -1.98047,1.29883 -5.47852,-2.46875 0.45899,4.42969 -6.87891,6.77929 0.2793,2.3711 1.31054,0.92969 -2.1914,1.66992 -0.26953,3.21875 -3.08985,1.30078 1.83985,3.42969 -1.37891,1.15039 -0.35156,-0.0899 -1.64844,0.42969 1.71875,3.23047 -0.49023,2.74023 3.33984,4.94922 -1.73828,5.34961 1.20898,0.0606 0.49024,3.32031 1.40039,1.20898 0.51953,-1.8789 3.25,-1.06055 1.31055,-0.11914 1.07031,1.74024 5.45898,-0.5918 0.65039,-2.22852 2.51954,-1.81054 -0.42969,-1.93946 2.09961,-2.25 0.17969,-3.14062 5.49023,-5.58008 1.55078,1.71094 -0.0606,3.27929 3.59961,-1.08007 1.19141,4.96093 1.33984,-0.25 0.68946,1.13868 -1.06055,0.74023 1.04101,4.74023 1.86915,2.07032 2.38085,-4.15039 0.28907,-4.91993 1.08984,-2.18945 1.09961,0.22852 0.19141,-1.86914 0.24023,0 0.91992,-2.21094 2.50977,2.40039 1.83008,-1.46875 0.24023,-2.80078 1.81836,0.50976 3.55078,-2.82031 1.83008,1.95117 0.0703,2.53907 2.53907,5.18945 4.58984,-0.96875 0.21094,-2.90039 1.50976,-0.32031 1.80078,1.43945 -0.28125,1.63086 3.19141,-0.55078 0.73828,2.18164 2.01172,2.10937 1.38867,-0.43945 -0.29883,1.41992 1.03321,0.20313 1.72656,8.68554 2.05859,1.3711 1.48047,5.71875 3.34961,3.87109 -1.17969,0.81055 0.32032,4.17969 3.40039,-1.01954 5.28906,4.13868 2.87109,-4.24024 2.73047,-0.46875 0.14844,3.24024 1.76172,0.41992 0.6289,-3.19141 2.16016,-0.30859 5.98047,4.22851 0.0488,-3.43945 5.73047,0.9707 1.25976,4.95899 10,-4.62891 2.01953,1.74024 1.76172,-1.85157 0.66016,-0.30859 -0.61133,4.79883 3.2207,1.20117 0.81055,-1.16016 2.0293,1.40039 2.36914,-0.42187 1.23047,0.81055 -0.0801,2.5996 2.17969,0.20118 0.81054,1.86914 3.58985,-0.76953 2.5,-3.39063 1.57031,1.36133 -0.34961,1 1.95898,0.24023 0.16993,-0.99023 -1.63868,-0.46094 1.78907,-1.41992 0.01,-4.08984 -1.63867,0 -0.44141,-1.94922 -1.18945,-0.32031 0.88086,-1.58008 -3.38086,0.18945 -1.09961,-1.18945 -1.16992,0.75976 -2.61133,-2.15039 -0.46875,-2.91015 2.40039,0.33984 0.86914,-1.0293 -1.39062,-0.60937 -0.26953,-2.98047 6.48046,1.60937 0.59961,-1.66015 1.47071,-0.12891 -2.78125,-2.41015 2.11132,-3.94141 -0.20117,-2.31836 3.57032,0.74023 0.83984,-1.34179 1.66992,0.5 1.70117,-2.14844 -1.31054,-0.93164 1.16992,-3.08985 2.32031,0.76172 2.83984,-0.82031 1.20899,-1.23047 -1.2793,-1.35937 2.83008,-1.80078 1.60938,1.14062 3.2207,-2.82031 4.70898,0.71875 1.83008,-1.2793 2.66992,1.10938 0.10156,-4.93946 -1.4707,-0.84961 0.0508,-2.63086 -4.96093,-1.01953 1.71093,-6.11914 2.00977,0.72852 1.62891,-0.88867 1.31054,3.10937 3.58008,1.07031 1.48047,-0.17968 -0.25977,-2.22071 1.25,-0.95898 1.29883,0.55859 1.50977,-1.41015 2.1914,0.87109 5.66992,-2.91016 3.36915,1.9004 1.83007,-0.56055 0.01,-1.85938 2.17969,-0.0801 2.33008,-2.97071 2.83984,0.49024 2.71094,-2.59961 -1.0293,-4.21094 3.19922,-4.61914 -3.01953,-1.60938 -0.61133,-2.15039 -2.09961,-0.15039 0.2207,-1.32031 -2.25976,-0.60937 -0.96094,-4.9004 0.95117,-3.07031 -3.51172,-0.69922 -4.48828,-4.38086 0.54883,-6.60937 3.84961,-0.23047 3.46094,-1.85937 1.98046,-3.06055 -0.27148,-1.84961 -4.25976,-6.58008 -2.44922,0.9707 0.94922,-4.55078 -4.20899,-0.77929 0.28906,-3.95118 2.52149,-4.58007 -3.90039,-4.45899 2.04883,-4.30078 -5.72852,-1.65039 -6.77148,-0.13867 -11.07032,5.81836 -1.32812,2.89062 1.13867,0.5 0.53125,3.1211 2.0293,-0.28125 -0.58985,1.8496 -6.92969,5.10157 -3.16992,-0.72071 -3.91992,1.4004 1.53906,-3.16993 -1.25,-0.90039 0.64063,-1.19922 5.99023,-2.06054 -0.93164,-2.04102 2.81055,-4.91016 -4.36914,-2.94921 -8.11133,9.06054 -5.98828,0.22852 -0.48047,-2.89844 -2.79101,-0.89062 -0.14844,-1.23047 -4.32032,4.56054 -2.71093,0.25 0.0605,-3.07031 -1.58984,0.01 -0.53125,-1.94922 -0.84961,2.24023 -1.75976,-3.58007 0.66015,-0.72071 -3.23047,-1.84961 0.64063,-1.99023 -3.25977,-0.69922 -1.2207,-2.86133 -1.58984,-0.80859 -0.0488,0.91015 -4.56055,1.19922 -3.00977,-1.84961 -1.39062,0.83985 -0.40039,-1.06055 -6.68945,20.50977 -0.89063,0.25 -1.61914,-1.33985 0.68945,-2.31055 -2.34961,-1.52929 1.28907,-1.17969 -1.2793,-1.65039 -1.76953,0.31055 -0.79102,2.1289 -2.07031,-1.69922 -2.66992,1.57032 -1.87891,-1.76953 -2.20117,0.0801 -1.36914,6.57813 -4.03906,1.77148 -1.06055,-0.14062 0.18945,-1.73047 -1.17968,0.58984 -0.75,-1 -1.22071,1.23047 -3.1289,-1.49023 -4.71094,1.75976 -0.68945,-2 -3.41993,-0.69922 0.35938,-3.67968 1.9707,-2.74024 2.41016,-0.34961 -0.82031,-0.0801 -0.35938,-4.17969 0.97852,-3.80078 -2.0586,-1.86914 -3.36132,0.28906 -1.25,-2.59961 -1.38868,0.75976 -2.64062,-1.19921 -0.23047,-3.82032 -4.08008,-6.33007 -0.55859,-2.89063 -1.51172,-0.41992 0.33984,2.25976 -2.04883,0.0899 0.54883,2.04101 -4.31836,2.25977 -1.5,-3.76953 -1.7207,0.0801 -1.33984,1.72851 -3.23047,-1.99023 -2.87891,2.45117 -5.88086,-4.50977 -1.10937,-2.64062 z m 80.63867,139.79101 0.16992,0.43946 0.43164,0.0488 0.5,0.58008 2.91016,1.77149 0.0293,0.33984 -1.98046,0.92969 -1.50977,3.91992 -4.05078,-0.67969 -0.64844,-2.61133 1.50977,-2.72851 0.35937,-0.64063 0.32031,-0.16992 0.67969,-0.16992 1.2793,-1.0293 z" />
  <path
     title="Bourgogne-Franche-Comté"
     id="FR-BF"
     d="m 339.47461,172.63477 -0.45899,1.71875 -1.20117,0.16015 -8.09961,-0.17969 -1.53906,1.48047 -2.33008,-0.65039 -1.33008,3.37891 1.33008,3.44141 -1.78125,2.66015 -2.77929,1.45899 -0.01,1.25976 3.83984,1.85156 -0.56054,1.06836 0.82031,-0.0586 0.58008,2.70898 3.10937,2.68946 -1.04883,0.64062 1.18946,2.89063 -1.38086,1.60937 -0.25,0.21094 -3.29883,2.29883 -0.56055,2.40039 1.5293,1.08008 -0.29883,3.88086 -7.21093,1.81835 -0.16016,2.49024 1.27148,-0.20898 1.97852,2.36914 1.13086,2.25976 -0.69922,2.83984 1.6582,1.81055 -4.80859,1.3711 0,-0.22071 -0.51953,0.76953 3.42968,6.1211 -2.62109,6.08984 4.73047,4.67969 2.0293,8.56055 -0.5293,3.45898 2.49023,2.46094 0.0703,4.1289 -1.25,2.91993 0.82031,3.38086 -1.57031,3.43945 1.10937,2.64062 5.88086,4.50977 2.87891,-2.45117 3.23047,1.99023 1.33984,-1.72851 1.7207,-0.0801 1.5,3.76953 4.31836,-2.25977 -0.54883,-2.04101 2.04883,-0.0899 -0.33984,-2.25976 1.51172,0.41992 0.55859,2.89063 4.08008,6.33007 0.23047,3.82032 2.64062,1.19921 1.38868,-0.75976 1.25,2.59961 3.36132,-0.28906 2.0586,1.86914 -0.97852,3.80078 0.35938,4.17969 0.82031,0.0801 -2.41016,0.34961 -1.9707,2.74024 -0.35938,3.67968 3.41993,0.69922 0.68945,2 4.71094,-1.76953 3.1289,1.49024 1.22071,-1.23047 0.75,1 1.18945,-0.58985 -0.18945,1.74024 1.06054,0.13086 4.03907,-1.77149 1.37109,-6.56836 2.19922,-0.0801 1.88086,1.76953 2.67968,-1.58008 2.07032,1.69922 0.78906,-2.11914 1.76953,-0.31055 1.26953,1.65039 -1.28906,1.17969 2.34961,1.52929 -0.68945,2.31055 1.60937,1.33985 0.90039,-0.24024 6.68946,-20.51953 0.40039,1.07031 1.39062,-0.83984 3.01953,1.83984 4.56055,-1.18945 0.0488,-0.91016 1.58008,0.8086 1.23046,2.86133 3.25977,0.69921 -0.63867,1.99024 3.22851,1.84961 -0.65039,0.7207 1.76172,3.58008 0.84961,-2.24024 0.5293,1.94922 1.58984,-0.01 -0.0703,3.07031 2.71094,-0.25 4.32031,-4.56055 0.15039,1.23047 2.78906,0.89063 0.48047,2.90039 5.99023,-0.23047 8.09961,-9.07031 0.33008,-2.80079 3.49024,-4.95898 -1.91993,-1.89062 14.18946,-11.95899 -0.89063,-2.25 1.38086,-4.64062 -1.33984,-2.36914 2.69922,-2.80079 5.16992,-1.13086 4.07031,-3.51953 -0.67969,-1.89062 5.65039,-4.06836 0.83008,-0.96094 -0.73047,-0.42969 4.73047,-4.32031 -0.50976,-2.7207 2.21875,-0.45899 0.57031,-1.83007 1.88086,-0.56055 -0.28125,-1.74024 -1.34961,-0.64843 -5.69922,1.22851 2.53906,-4.89843 2.56055,-1.27149 -0.78125,-2.47851 6.21094,-0.55079 0.43945,-1.33007 -2.36914,-4.17969 -3.34961,-0.57031 1.67969,-4.26953 -0.39063,-3.14063 -4.00976,-2.95898 -3.07031,-0.71094 -1.25,-2.42969 -7.85938,-5.06055 -1.78125,-2.59961 -5.18945,3.73047 -1.7793,-3.4707 -1.91016,-1.16992 -7.67968,1.76953 0,-0.32031 -2.30078,-1.8086 -0.45899,-3.20117 -0.10156,-0.0703 -3.95899,0.98047 -1.54101,2.91015 -2.20899,1.26953 -0.90039,-0.13867 1.33985,-1.86133 -1.12891,-0.56835 -2.01172,3.17968 -0.0195,1.58985 -1.40039,-0.39063 -1.18945,2.17969 0.25,1.16016 -2.78907,-0.44922 -0.79101,2.42968 -2.09961,-0.0508 -0.61914,2.57032 1.35937,1.99023 -0.75,3.82031 -3.90039,0.76953 -1.2207,-2.16992 -1.73828,2.1211 -4.78125,-0.0918 -1.58008,4.29101 -0.70898,0.85938 -2.00977,-1.12891 -2.28125,2.00977 0.32031,-2.79102 -3.56054,-1.83984 0.21093,-1.72852 -2.52929,2.07813 -2.65039,-1.33985 0.29883,-1.66015 -1.32032,0.18164 -0.0293,-1.12109 -2.5,1.5 -0.40039,-4.67969 -1.79883,-0.32031 3.17968,-2.51954 -1.59961,-3.61914 -0.55078,0 -1.55078,-3.37109 -1.39844,0.21094 -0.37109,1.31836 -1.19922,-0.76953 1.40039,-1.94922 -0.82031,-1.25 -2.53125,-0.11133 1.02148,-1.61914 -0.66992,-1.07031 -3.86132,-1.10938 -5.03907,-0.32031 -1.76953,1.40039 0.76953,2.3789 -9.9707,0.41993 -0.90039,2.25 -2,-0.31836 -0.75977,-2.58985 -1.30859,0.28907 0.30859,1.59961 -1.45898,-1.11914 -0.51953,0.27929 -1.85156,1.80078 -2.08008,-1.2207 -0.63868,1.26953 -1.66992,-1.07031 -4.55078,0.82031 0.76953,-3.11914 -0.77929,-1.34961 -0.59961,1.41016 -1.17969,-0.26172 -0.52148,-1.28906 1.36132,-0.68946 -2.06054,-1.80078 -1.29102,-4.57031 -2.13867,-0.91016 0.35937,-2.06836 -1.41015,-0.52148 0.34961,1.12109 -2.3086,1 -1.53125,-3.09961 -2.13867,0.32813 1.75977,-2.54883 -0.86133,-0.42969 0.76172,-2.25 -1.73047,-0.95117 0.41015,-1.0293 -3.4707,-4.10937 -1.55078,-0.61133 -1.58984,1.10156 -0.58008,-1.9707 -1.59961,-0.60937 z" />
  <path
     id="FR-BT"
     title="Brittany"
     d="m 64.514973,235.16393 1.24,1.49 2.52,-0.06 0.73,2.13 3.24,0.92 -0.56,1.7 -6.78,-1 -1.03,-3.02 0.64,-2.16 z m 0.96,-91.82 0.21,2.23 5.57,-2.26 0,3.04 3.06,-0.19 0.32,1.47 -1.64,1.23 4.77,1.54 -0.69,2.18 5.32,4.52 -0.2,3.35 4.49,2.47 -1.11,1.95 1.17,-0.49 1.61,2.8 -0.36,-2.8 2.29,0.66 3.02,-4.87 3.36,-1.43 -0.62,-1.41 2.13,-0.48 0.72,1.47 4.209997,-3.72 1.45,1.27 -2.22,3.03 0.96,0.63 2.93,-2.15 1.36,3.59 -0.57,2.31 1.17,-3.8 0.7,2.17 1.19,-2.62 1.08,1.09 -1.14,-2.05 4.34,-0.34 0.44,2.45 1.66,1.08 -0.75,0.68 1.75,1.74 -0.52,3.04 0.85,-1.92 1.09,0.37 -2,-3.99 1.63,0.87 -0.56,-1.33 -2.15,-0.45 0.63,-1.06 -1.48,-1.21 1.73,-3.06 6.15,-1.81 0.32,2.06 -1.36,2.59 3.75,2.13 8.54,-1.9 0,0 3.46,9.09 2.79,1.76 2.8,-0.5 4.16,-4.69 7.63,2.23 0,0 -0.46,5.85 1.49,5.35 -2.32,3.9 0.93,3.91 0,0 0.17,0.16 0,0 2.41,12.26 -5.75,2.37 -3.8,11.62 -4.84,-1.39 -1.03,-1.79 -3.76,-0.44 0.24,1.99 -6.19,2.43 -1.57,3.32 -8.31,0.06 -3.94,2.29 -0.76,-1.38 -4.51,2.7 -0.68,7.18 -2.46,0.69 -0.26,1.95 -0.89,-1.4 -2.49,1.11 -2.23,-1.33 -0.78,3.38 -3.499997,0.29 -0.9,-1.27 -1.43,1.77 0,0 -1.56,-0.12 -0.26,-2.58 2.52,-0.38 -2.85,-1.59 -12.7,2.33 -3.98,-4.1 -2.15,-0.01 -1.1,-1.61 -0.63,0.81 -0.84,-1.58 0.2,1.53 -4.29,-0.13 -0.19,3.42 2,2.76 -2.14,-0.27 -1.3,-3.44 1.14,-0.95 -0.6,-3.12 -5.67,-5.52 -3.09,-0.04 -0.22,-1.53 -3.64,0.92 -3.06,-4.18 -6.3,-0.76 -2.02,-1.78 -5.28,0.88 -1.96,-2.7 0.85,-1.49 -1.2,0.53 -1.48,-3.23 -1.78,1.18 0.6,1.78 -2.77,0.72 -2.67,-1.76 -1.69,0.91 -1.86,3.72 -7.31,0.01 0.39,-5.65 -2.61,-4.61 -3.72,-2.65 -2.42,0.33 -2.63,-1.78 -4.34,-0.64 1.25,-0.28 -0.32,-1.3 12.37,-2.63 4.63,1.1 1.57,-2.52 -2.01,-4.6 -6.14,-2.18 -1.46,0.42 -2.49,3.84 -0.55,-3.99 1.2,-0.91 -3.25,-0.33 -0.28,-1.57 2.43,-0.16 -0.07,-3.02 1.63,-0.64 -0.97,2.36 0.85,1.16 1.49,-1.7 -0.13,1.9 2.11,-0.98 2.22,1.36 3.78,-1.44 1.93,1.1 1.62,-2.09 -1.08,0.9 -3.72,-0.98 1.43,-0.97 -1.2,-0.57 0.56,-1.41 -2.28,2.25 -1.81,0.1 0.82,-1.1 -2.53,0.98 2.41,-3.53 -0.98,-0.78 -7.63,3.58 -3.06,-1.06 -1.1,1.49 -2.71,0.13 -0.73,-1.99 1.19,-1.31 -1.39,-1.93 1.42,-3.36 -0.66,-3.01 1.95,-2.54 4.96,-1.27 0.19,-1.73 1.75,0.39 0.89,-2.44 1.79,0.99 4.06,-1.01 -1.47,-1.08 3.76,-1.42 2.08,0.79 0.01,1.94 4.18,-1.14 -1.13,-0.43 1.5,-1.77 3.59,-0.53 1.69,1.2 0.25,-1.86 1.89,-1.35 0.26,0.99 1.28,-0.98 -0.07,3.34 1.67,0.71 0.25,-2.26 0.08,1.55 3.21,0.85 -0.37,-1.82 0.98,-1.57 0.45,0.86 -0.12,-1.16 5.96,2.08 1.49,-0.61 -0.61,2.33 1.47,-1.72 1.71,1 -0.07,-3.41 1.45,-1.3 -1.49,-0.76 0.73,-2.39 -0.83,-0.69 1.34,0.91 2.09,-3 0.54,1.19 0.45,-1.08 0.88,1.38 1.29,-0.33 -0.53,1.43 1.77,-0.13 3.24,-2.4 2.36,0.25 1.63,-2.1 z" />
  <path
     id="FR-CN"
     title="Centre-Val de Loire"
     d="m 261.68497,138.79393 2.57,3.15 -0.72,1.27 2.18,1.94 -0.7,4.93 1.88,0.9 -2.07,2.76 1.46,0.88 -0.42,1.49 2.65,3.19 2.03,-0.02 -0.25,2.34 3.24,1.47 -0.47,2.52 1.07,2.91 2.83,1.64 2.51,-1.04 -0.1,3.18 2.06,0.28 0.44,2.37 -1.26,3.3 0.61,1.36 7.93,-0.65 -0.49,-1.09 1.23,0.29 0.9,-2.04 1.77,0.76 -0.02,2.08 2.22,-0.86 0,0 0.22,-0.41 0,0 0.99,-0.88 1.3,1.57 1.88,-0.49 0.81,3.48 3.88,2.1 0.02,3.64 -1.43,0.15 -1.64,2.53 4.8,-1.06 6.07,1.09 2.02,-1.36 -0.74,-1.33 1.1,0.83 1.5,-0.95 0.85,2.41 1.94,-1.63 2.94,-0.43 0,0 3.84,1.85 -0.56,1.07 0.82,-0.06 0.58,2.71 3.11,2.69 -1.05,0.64 1.19,2.89 -1.38,1.61 0,0 -0.25,0.21 0,0 -3.3,2.3 -0.56,2.4 1.53,1.08 -0.3,3.88 -7.21,1.82 -0.16,2.49 1.27,-0.21 1.98,2.37 1.13,2.26 -0.7,2.84 1.66,1.81 -4.81,1.37 0,0 0,-0.22 0,0 -0.52,0.77 3.43,6.12 -2.62,6.09 4.73,4.68 2.03,8.56 -0.53,3.46 2.49,2.46 0.07,4.13 -1.25,2.92 0.82,3.38 -1.57,3.44 0,0 -4.59,0.12 -3.09,4.06 -1.98,-0.55 -1.56,1.08 -1.88,-1.71 -0.59,1.61 -3.21,1.71 0.15,1.91 -0.95,-0.77 -1.45,0.75 1.07,1.19 -1.22,1.84 1.55,0.86 0.45,2.48 -3.24,2.06 -2.06,-0.81 -5.24,0.96 -1.56,2.77 -1.03,0.01 -0.74,3.03 0,0 -3.48,-0.52 -4.49,1.11 -4.55,-1.99 -5.8,1.04 -2.33,-1.85 -1.47,0.38 0.52,1.49 -1.29,2.11 -1.8,-1.69 -2.37,1.82 -0.79,-2 -2.68,1.73 -0.79,-2.05 -4.59,4.84 -2.55,-3.22 -1.69,0.29 -0.4,1.41 -3.53,0.34 -0.39,-1.46 -1.29,0.31 0,0 0,0 0,0 0.76,-1.01 0,0 0.64,-1.92 -2.54,-0.89 -0.27,-3.52 -2.13,-1.77 -3.04,0.03 -0.22,-1.85 -4.31,-2.06 -0.75,-1.7 1.46,-3.9 -0.61,-1.98 -4.05,-3.76 -0.78,-3.66 -3.81,-3.24 -0.53,-4.28 -3.07,-2.05 -2.07,0.09 1.27,2.97 -3.85,-0.1 -2.78,1.78 -3.04,-1.21 -1.73,1.14 -1.34,-3.64 0.89,-0.48 -0.4,-3.21 -1.44,0.52 -0.96,-1.76 -2.77,0.76 0.9,-1.98 -0.76,-1.44 -0.82,0.86 -1.13,-0.38 0.22,-1.08 -2.49,0.36 -1.09,-2.73 0,0 0.95,-7.16 4.36,-6.11 -1.22,-1.08 2.85,-6.17 0.19,-1.66 -1.33,-0.73 1.65,-3.52 0,0 -0.05,-0.52 0,0 6.29,2.14 0.8,-0.51 -1.6,-2.52 0.78,-1.47 2.74,1.5 0.61,-1.58 5.48,-1.66 0.95,-1.3 -0.96,0.29 -0.42,-1.81 1.7,-2.09 3.11,-0.93 -0.38,-1 3.16,-3.01 -0.34,-4.22 1.21,-0.69 0.89,1.45 0.17,-2.7 1.39,-0.49 -1.26,-2.84 0.98,-2.7 -1.87,-0.46 -0.15,-2.07 2.05,-0.15 0.09,-1.37 -1.32,-0.29 1.15,-0.27 0.41,-1.83 2.69,-0.34 -4.9,-3.44 0,0 1.35,-1.2 -1.75,-2.94 0.75,-1.75 -2.11,-0.66 0.61,-1.42 5.98,-3.14 2.57,-4.22 -1.66,-2.26 1.27,-2.94 -6.12,-5.53 -0.14,-3.63 0,0 2,-1.11 0.53,-1.74 4.67,-0.62 0,0 0.86,0 0,0 2.23,-2.07 2.16,0.74 0.26,-2.69 4.19,1.97 4.56,-0.2 1.66,-1.25 -0.43,-3.35 4.08,-2.36 -0.51,-3.25 z" />
  <path
     id="FR-CE"
     title="Corsica"
     d="m 563.65497,571.65393 1.21,-2.68 2.83,-0.29 1.79,-2.26 -4.31,-1.47 -1.27,0.8 -0.28,-2.29 -2.82,1.09 -0.1,-0.98 -1.9,-0.07 2.98,-2 -0.77,-1.43 2.48,-0.52 0.49,-1.16 -1.36,-0.7 1.56,-0.3 -0.41,-1.8 1.02,-0.7 -2.28,-2.11 -1.21,1.4 -4.62,0.79 0.64,-2.29 -1.27,-1.68 2.32,-0.19 0.49,-2.44 3.62,-2.07 -1.97,-3.49 -1.69,0.66 -1.96,-1.91 -1.3,0.37 0.18,-1.31 -1.15,0.33 1.49,-1.26 -1.35,-0.18 0.83,-1.91 -1.7,-1.78 6.43,-1.64 -1.43,-2 -2.32,-0.18 0.44,-2.47 -2.58,0.89 -0.34,-2.31 2.67,-0.63 -0.14,-1.67 2.06,0.06 -0.28,-1.52 1.31,-1.49 -1.29,-0.54 0.74,-2.08 2.23,-0.54 -0.58,-2.48 0.81,-0.85 0.07,1.31 1.15,-0.57 1.4,1 0.55,-2.74 2.69,-0.33 2.71,-2.15 3.44,0.3 1.88,-1.13 -0.11,-1.98 2.78,-1.98 4.03,-0.21 3.19,3.3 1.91,-3.34 -0.1,-3.32 -1.37,-2.15 1.28,-1.84 -0.76,-1.93 1.63,-1.36 -0.88,-3.95 3.45,-0.98 1.68,1.41 1.22,10.14 -1.95,7.42 3.6,7.14 1.08,19.75 -0.39,5.13 -5.7,8.35 -1.05,17.06 -1.83,0.74 0.52,0.85 -1.93,-0.65 -1.22,1.78 0.37,1.18 1.27,-1.66 2.12,0.59 -1.07,1.95 -2.89,1.58 0.2,3.66 -2.3,1.2 -0.58,1.61 2.34,-0.82 -0.25,0.81 -1.6,2.61 -1.71,0.13 -0.95,-1.55 -2.64,-0.1 1.13,-2.4 -2.1,-0.36 0.39,-2.03 -1.66,1.35 -1.7,-1.84 -0.63,0.89 -2.62,-0.84 -1.83,-1.94 -1.39,0.36 0.46,-1.61 -2.76,-0.49 0.71,-1.06 -1.22,-1.01 z" />
  <path
     id="FR-IF"
     title="Île-de-France"
     d="m 270.07497,120.40393 1.5,0.48 -0.52,1.86 0,0 0.38,-0.01 0,0 0.75,1.23 2.03,-0.62 3.31,1.43 4.93,-0.83 3.28,-2.18 3.72,2.96 1.99,-1 0.6,1.78 2.18,-0.54 1.17,-1.69 1.82,2.43 0.72,-0.74 2.7,0.83 -0.24,0.82 1.07,-0.47 1.82,1.46 -0.56,0.72 1.74,0.41 0.84,-1.56 1.29,2.82 2.05,-1.81 4.2,3 3.08,-2.27 1.81,1.67 4.86,-1.34 0.78,1.29 0.89,-1.29 2.39,0.4 0.14,-2.01 2.84,0.69 2.16,3.54 -0.97,2.39 3.48,2.51 0.55,2.12 1.67,-0.62 1,2.56 1.6,-1.28 0.64,3.55 2.6,0.73 0.64,1.43 1,-0.92 0,0 0.08,2.4 -3.48,0.33 1.66,1.15 -2.03,2 3.06,1.27 -0.71,6.44 3.45,-0.7 -0.58,0.84 1.63,1.02 -2.41,0.74 0.51,0.93 -2.04,1.21 0.67,1.8 -3.09,0.86 1.3,2.34 -2.26,0.67 1.31,5.61 0,0 -1.6,-0.61 -0.46,1.72 -1.2,0.16 -8.1,-0.18 -1.54,1.48 -2.33,-0.65 -1.33,3.38 1.33,3.44 -1.78,2.66 -2.78,1.46 -0.01,1.26 0,0 -2.94,0.43 -1.94,1.63 -0.85,-2.41 -1.5,0.95 -1.1,-0.83 0.74,1.33 -2.02,1.36 -6.07,-1.09 -4.8,1.06 1.64,-2.53 1.43,-0.15 -0.02,-3.64 -3.88,-2.1 -0.81,-3.48 -1.88,0.49 -1.3,-1.57 -0.99,0.88 0,0 -0.22,0.41 0,0 -2.22,0.86 0.02,-2.08 -1.77,-0.76 -0.9,2.04 -1.23,-0.29 0.49,1.09 -7.93,0.65 -0.61,-1.36 1.26,-3.3 -0.44,-2.37 -2.06,-0.28 0.1,-3.18 -2.51,1.04 -2.83,-1.64 -1.07,-2.91 0.47,-2.52 -3.24,-1.47 0.25,-2.34 -2.03,0.02 -2.65,-3.19 0.42,-1.49 -1.46,-0.88 2.07,-2.76 -1.88,-0.9 0.7,-4.93 -2.18,-1.94 0.72,-1.27 -2.57,-3.15 0,0 -0.36,-1.69 1.1,-0.72 -2.02,0.17 0.34,-2.41 -1.26,-2.49 1.67,0.18 0.88,-2.2 0.45,1.02 0,0 0.22,0 0,0 4,-1.02 z" />
  <path
     title="Occitanie"
     id="FR-LP"
     d="m 263.21484,375.17383 -3.74023,1.58008 -1.50977,0.90039 0.16993,0.68945 1.16992,4.49023 -1.19922,0.34961 1.16015,1.85938 -3.25,2.08008 0.16993,1.90039 -2.81055,0.88086 0.73047,3.25 -3.82031,3.28906 -3.13086,0.80078 0.25,1.79883 -2.44922,2.64062 0.40039,1.16993 -3.69141,2.11132 -1.39844,-0.41015 1.46876,2.16015 0.0215,3.54883 1.56836,1.04102 0.24023,3.52929 -4.54883,0.23047 -0.4414,0.94922 -0.86914,-2.25 -1,0.16992 -1.11914,4.09961 3.3789,2.06055 -1.83007,4.82031 -2.20899,0.37891 1.33008,0.52148 0.35937,2.13867 -1.33007,0.6504 -3.0293,-0.98047 0.36914,1.87109 -1.7207,0.20898 -0.72852,2.63086 -3.16992,2.1504 -2.94141,-3.22071 -1.53906,1.45117 -3.93945,-0.0508 -0.78125,1.57032 -5.31055,1.1289 -0.58984,1.08008 -2.88868,-1.79883 -1.63085,0.39844 -1.45899,2.43164 -1.23047,-1.66016 -2.96093,2.32032 0.85156,2.56835 -0.71094,1.18165 -3.32031,-1.89063 1.15039,-1.42969 -1.79102,-1.74023 -2.46875,3.20898 -3.4707,-0.61914 -2.49023,2.39063 2.21093,1.67969 -0.91992,0.60937 0.62891,2.74023 -1.36914,0.0996 1.32031,4.06055 -2.29102,1.7207 0.32032,3 -1.65039,0.66993 0.0898,1.4082 1.33984,0.15039 0.36133,1.89062 2.54883,-0.77929 3.35156,0.81836 0.11914,2.20117 1.13086,-0.26953 1.98828,4.33008 -1.96875,0.50976 -0.0605,2.96875 2.75976,-1.95898 -0.11914,4.16015 1.37891,1.47852 -3.14844,2.55078 1.19922,1.75977 -1.33008,2.95117 -0.99023,-0.24024 0.2207,2.60938 -2.06055,-0.16992 -1.18945,2.90039 -1.95117,0.83008 0.54101,3.52929 -3.34961,0.83008 -1.13086,1.80078 0.2793,4.0293 -1.91992,0.93945 0.58984,3.83008 5.19141,3.52148 1.13867,-0.62109 1.99024,4.06055 1.81054,0.46875 0.49024,1.41992 2.26953,0.41015 7.40039,-2.92968 3.45898,1.1914 1.44141,2.37891 2.73047,-2.84961 2.58984,1.86914 7.25977,-0.83984 3.25976,0.82031 0.0996,-1.99023 -1.49023,-1.59961 1.01953,-1.15039 -0.89844,-0.42969 1.04883,-1.23047 -0.45899,-1.91992 2.04883,-1.25977 9.05078,4.08985 1.41993,-0.92969 0.98046,1.08008 3.95899,-0.0996 3.74023,4.49023 2.54102,-1.08008 5.20898,0.47852 3.34961,6.54101 1.66993,-0.64062 0.0898,-2.09961 2.93164,-0.23047 2.01953,1.64063 5.66992,0.55078 -0.41015,1.5 2.76953,0.1289 -0.24024,0.76953 c 0,0 0,0 -2.05854,1.08982 l -0.39063,3.41015 3.91993,0.45118 2.40039,2.1289 2.21875,-0.20898 1.2207,3.95898 2.19922,1.91016 2.86133,-0.78906 2.91015,-3.42969 1.91016,0.43945 2.29883,-1.25 7.31054,2.5 2.03907,2.98047 2,0.41016 1.93164,-1.43164 3.94922,0.99023 -0.83008,-2.57031 0.94922,-1.0293 2.4414,-1.08984 1.85938,0.67969 2.53906,-2.62891 3.25,0.13867 1.2207,-1.44922 0.83008,0.93946 3.06055,-0.42969 1.88867,2.66992 3.66992,-0.51953 -1.82812,-2.66016 0.45898,-1.89062 -3.89062,-1.34961 -0.75977,-9.19922 1.32031,-12.07031 -0.69922,-2.63086 1.57032,-5.16992 4.07812,-6.58985 6.67188,-5.41992 -0.3711,-1.19922 7.15039,1.16992 0.26954,-0.91992 -0.19922,0.99024 5.69922,-6.60157 3.34961,-0.96875 10.28124,-8.28125 5.59961,-0.41992 1.33008,1.19141 -0.83008,1.28906 0.66016,1.33008 3.95899,1.4707 0.4414,-2.25 3.39844,-1.65039 -0.41016,-1.55078 0.83008,1.11133 5.32031,-3.08008 0.42969,-1.32031 -1.89844,-0.66016 2.46875,-4.18945 2.27149,-0.57031 3.64844,1.24023 -0.62891,-2.29102 2.26953,-6.83007 -1.07031,-1.25 7.16015,-5.53907 -0.01,-1.4414 1.26953,-0.0586 -2.41016,-4.41015 -2.74023,-0.91016 0.041,-6.09961 -0.58984,-1.55078 -1.41992,-0.0703 -0.98047,-3.17969 -5.98047,-4.23047 -2.16015,0.31055 -0.62891,3.18945 -1.75977,-0.41992 -0.15039,-3.24024 -2.73047,0.47071 -2.86914,4.24023 -5.29101,-4.14062 -3.40039,1.01953 -0.31836,-4.17969 1.17968,-0.80859 -3.35156,-3.8711 -1.47851,-5.71875 -2.06055,-1.37109 -1.73047,-8.70898 -1.07031,-0.21094 0.30078,-1.41992 -1.39062,0.43945 -2.00977,-2.10938 -0.73047,-2.17968 -3.18945,0.53906 0.26953,-1.61914 -1.79883,-1.43945 -1.50977,0.31835 -0.20117,2.9004 -4.58984,0.96093 -2.53906,-5.17968 -0.0703,-2.55079 -1.83007,-1.94921 -3.54102,2.81835 -1.81836,-0.50976 -0.24023,2.79102 -1.83985,1.46874 -2.5,-2.39843 -0.91992,2.20898 -0.24023,0 -0.19141,1.8711 -1.09961,-0.23047 -1.08984,2.18945 -0.28907,4.91992 -2.36914,4.1211 -1.85156,-2.05079 -1.05078,-4.74023 1.06055,-0.74023 -0.68946,-1.13868 -1.33984,0.25977 -1.18945,-4.96094 -3.60156,1.08008 0.0605,-3.2793 -1.55078,-1.71093 -5.5,5.58007 -0.16992,3.13086 -2.09961,2.25977 0.41992,1.93945 -2.51953,1.81055 -0.65039,2.21875 -5.45899,0.5918 -1.06054,-1.74024 -1.32031,0.11914 -3.25,1.06055 -0.5293,1.8789 -1.39063,-1.20898 -0.49023,-3.32031 -1.21875,-0.0508 1.73828,-5.35938 -3.33984,-4.93945 0.49023,-2.74024 -1.71875,-3.23046 -3.12109,0.0996 -1.58008,1.28126 -1.65039,-1.48047 -4.39844,3.21093 -2.14062,-0.85156 -4.32032,-5.34961 -4.17968,-0.0703 -0.32032,-1.01953 z m -67.64062,96.58984 0.16016,2.15039 -1.20899,0.49024 1,0.95898 0.68945,0.16992 -0.24023,-3.56836 z m -0.81836,3.6211 -0.14063,0.0195 -0.29101,0.21875 -0.8086,1.93164 0.7793,1.75 1.73047,-1.24024 -1.03125,-2.52148 -0.23828,-0.1582 z m 86.66992,46.4082 1,2.23047 -2.2207,-0.58985 z" />
  <path
     title="Hauts-de-France"
     id="FR-NC"
     d="m 304.97461,0.33398438 -6.79883,2.78906252 -1.15039,-0.8300781 -6.16016,2.1113281 -0.33984,-0.7695313 -0.68945,2.3984375 -1.28125,-1.21875 0.46093,-1.1796875 -2.20117,2.2597656 -0.52929,-0.6796874 -10.54102,2.71875 1.2207,0.2304687 -5.23046,1.6992187 -3.46876,3.8300778 -3.33007,0.980469 1.34961,4.419922 -0.82032,4.669922 -0.75,1.029297 -0.3789,-1.56836 -0.17188,0.958985 0.57032,10.230468 2.4414,3.650391 -2.01172,-1.630859 -1.33984,8.960937 3.17773,2.738281 -0.0879,-0.06836 -2.95898,-0.150391 -0.67969,5.650391 6.19922,5.558594 -1.20899,0.880859 -2.96093,-0.789062 -0.79883,-1.921875 -1.91016,0.630859 -2.93164,6.359375 -3.07812,2.851563 2.95898,-0.371094 0.15039,1.970703 10.7793,9.830078 0.91992,4.609375 2.15039,3.369141 -1.51953,-0.05859 -2.5,4.388672 0.70899,0.900391 1.88085,-0.900391 -2.25,3.240234 0.99024,1.339844 -0.84961,2.611328 -0.18164,0 2.16992,2.830074 -1.28906,2.18945 1.14062,0.91993 0.60938,-1.41993 1.2793,0.5 -0.75977,2.16016 -0.40039,0.25977 -2.00977,3.7207 1.07032,0.10937 -0.75977,0.7793 1.64062,1.74024 0.46876,4.74023 1.31054,1.08984 -0.61914,1.81055 -1.29101,-1.66992 -2.01954,0.49023 -0.23046,2.08985 1.5,0.48047 -0.51954,1.85937 0.37891,-0.01 0.75,1.23046 2.03125,-0.62109 3.29883,1.41992 4.93164,-0.82031 3.2793,-2.18945 3.7207,2.96093 1.98828,-1 0.60156,1.7793 2.17969,-0.54102 1.16992,-1.68945 1.82031,2.41992 0.71876,-0.73047 2.70117,0.83008 -0.25,0.82032 1.08007,-0.46875 1.8086,1.45898 -0.5586,0.7207 1.74024,0.41016 0.83984,-1.56055 1.28907,2.82032 2.05078,-1.81055 4.18945,3 3.08984,-2.25977 1.81055,1.66992 4.84961,-1.3496 0.7793,1.29882 0.89062,-1.29882 2.39063,0.40039 0.13867,-2.01172 2.83984,0.6914 2.16016,3.53907 -0.96875,2.39062 3.49023,2.50977 0.54883,2.11914 1.66992,-0.61914 1,2.56054 1.61133,-1.27148 0.63867,3.55078 2.59961,0.73047 0.65039,1.42969 1,-0.91993 1.77149,-3.75976 1.75976,-0.16016 0.13868,-1.56054 1.2207,-0.23047 -0.54102,-1.08008 3.64063,-3.4082 -1.12891,-1.82032 -2.7207,0.38867 0.0703,-1.46874 2.12891,-1.07032 -1.54883,-2.67968 0.88867,-1.95118 3.44141,0.50977 1.80859,-1.04883 0.0312,-1.41016 -1.41992,0.26954 -0.66992,-1.91016 -0.69141,0.63086 -1.16992,-1 1,-1.39063 -1.35938,-5 5.5,-2.71875 3.05078,0.72852 0.17969,-2.25 2.83008,-1.68945 1.48047,1.85937 3.20898,1.08984 0.0606,-4.96874 1.26953,-0.46094 -1.13086,-3.91016 1.57032,-1.1289 -1.21876,-1.30079 1.16993,-1.679681 -2.25977,-3.25 0.72852,-1.009765 3.08008,0.298828 0.46093,-2.878907 2.44922,-1.339843 2.69141,-3.710938 -1.82032,-1.46875 1.95899,-5.669922 0.0996,-2.291015 -1.58008,-0.640625 0.60156,-2.888672 -3.70117,-1.320313 c -2.78332,0.816272 -2.88598,0.834437 -0.0391,-4e-5 l 0.75976,-4.410156 2.91016,-1.359375 -1.25,-4.111328 -2.98047,-0.03906 1.09961,-1.910156 -0.17969,-3.220703 2.91993,-2.580078 -0.5293,-1.25 -1.91992,-1.109375 0.19922,2 -1.23047,0.01953 -0.85938,-2.949219 -1.68945,-0.480468 -2.15039,-3.119141 -5.08985,2.080078 -2.15039,-1.630859 -4.25976,0.06055 -1.64063,2.990234 -2.07031,-4.179687 0.0703,-5.63086 -2.16015,-2.560547 -4.47852,0.570313 0.75977,-2.359375 -1.83008,-0.630859 -1.14063,1.740234 -2.95898,1 -3.51172,-2.160156 -2.16992,-8.708985 0.89062,-2.851562 -2.8789,-1.539063 -1.66016,-4.240234 -8.24023,2.490234 -1.91016,3.910156 -2.48047,-2.009765 -2.16992,-0.09961 -2.96094,-5.640626 -3.63867,-0.140624 -1.48047,-2.439454 -0.39062,-4.599609 1.73047,-1.8203125 -2.41016,-3.6308594 -0.5293,-3.4589843 -0.7207,-2.24023442 z m -36.49997,49.64065862 -0.008,-0.01172 c 7.24913,-2.505869 7.24968,-2.484651 0.008,0.01172 z" />
  <path
     title="Normandy"
     id="FR-ND"
     d="m 259.51562,66.773438 -2.96093,0.371093 -7.59961,6.148438 -4.44922,2.121093 0.26953,1.259766 -0.41992,-1.140625 -2.71094,1.220703 -2.44922,-0.710937 -7.76953,3.291015 -7.7207,1.179688 -10.36914,7.041016 -5.39063,2.160156 -2.15039,3.349609 -1.31054,-0.599609 1.21093,1.609375 -3.58984,8.660161 1.98047,2.53906 6.52929,2.00976 0.98047,-0.75976 -0.41015,1.13086 -0.01,-0.0312 -7.24023,0.11133 4.67968,0.19921 -4.00976,1.68946 -5.33008,4.86133 -9.18945,2.79882 -0.86133,-1.28906 -1.49023,0.5293 -4.76954,-2.57032 -15,-1.00976 -8.7207,-3.08008 -4.53906,0.48047 -1.71094,2.91992 -1.61914,-1.18945 -1.94922,1.7793 1.44922,-4.61914 -5.92969,-8.96094 0.48047,-2.208987 1.06836,-0.201172 -0.0195,0.890625 0.73047,-2.660156 1.08008,0.380859 -1.5,-5.710937 -8.64063,-0.04883 -0.58008,1.839844 -5.02929,0.708984 -0.51954,1.410156 0.19922,-1.480469 -8.57031,-2.029297 -1.13867,-1.75 -1.46094,0.759766 -1.98047,-1.330078 -0.53906,3.279297 2.99023,1.021484 1.10938,1.779297 0.33008,3.84961 -1.96094,2.349614 1.65039,1.93164 1.58985,8.35937 4.25976,2.80078 3.3418,7.56836 0.50976,-1.56836 1.94922,0.81836 -1.93945,0.19141 0.61914,11.36914 0.90039,2.41016 0.74023,-2.40039 2.32032,1.12109 -2.20117,-0.38086 -0.20899,5.37109 0.91016,0.58985 -3.05078,6.08984 1.66015,0.83985 0.17969,4.69921 5.05078,5.75977 2.53906,-1.2793 -1.04883,1.0293 2.41016,1.67969 -2.99023,-0.65821 -2.69141,1.25977 -0.84961,-0.93164 -0.0488,1.10156 -2.4707,-0.90039 3.46094,9.08984 2.78906,1.75977 2.80078,-0.5 4.16016,-4.68945 7.6289,2.23047 2.72071,1.17968 2.00976,-1.75 1.93946,1.28907 2.64062,-0.16993 1.31055,2.75 1.44922,-0.6289 0.77929,1.83008 1.91993,-0.8711 -0.69922,-1.4707 1.7207,0.32031 1.04883,-1.05859 0.5,2.56836 4.16015,-1.8086 1.71094,-2.24023 4.69922,-0.0606 1.81055,1.60938 1.33007,-2.38867 2.07032,0.93945 1.25,-1.81055 -0.32032,-1.75 1.74024,0.041 2.56836,2.23047 -1.16992,1.08984 1.12109,3.34961 3.99023,0.35937 -0.01,4.78125 2.08008,-1.42187 2.44922,1.23047 0.55078,-1.92969 3.55859,-2.05078 -0.51953,-1 6.49023,-1.44922 3.37891,3.5 0.41016,6.41992 3.62109,1.45117 0.41992,-0.7207 1.91016,3.82031 4.28906,0.97852 0.61133,-1.9082 3.5,4.69921 2.47852,-0.36914 1.35156,-1.20117 -1.75,-2.93945 0.75,-1.75 -2.11133,-0.65039 0.61133,-1.41992 5.98828,-3.14063 2.56055,-4.22851 -1.66016,-2.25 1.26953,-2.94141 -6.11914,-5.5293 -0.14844,-3.59961 0.008,0 2,-1.12109 0.53124,-1.74024 4.66993,-0.60937 0.85937,0 2.23047,-2.07031 2.16016,0.74023 0.25,-2.68945 4.19922,1.96875 4.56054,-0.19922 1.66016,-1.25977 -0.42969,-3.3496 4.08008,-2.34961 -0.51172,-3.26172 2.21094,-1.04883 -0.36914,-1.68945 1.10937,-0.72071 -2.01953,0.16016 0.33984,-2.40039 -1.25976,-2.49024 1.66992,0.17969 0.87891,-2.20898 0.45117,1.01953 0.21875,-0.01 4,-1.01953 3.38086,-9.23047 0.23047,-2.08984 2.01953,-0.49024 1.28906,1.66993 0.62109,-1.81055 -1.31054,-1.08984 -0.4707,-4.74024 -1.63868,-1.74023 0.75977,-0.7793 -1.07031,-0.10937 2.00976,-3.72071 0.40039,-0.25976 0.75977,-2.16016 -1.2793,-0.5 -0.61133,1.41992 -1.13867,-0.91992 1.28906,-2.18945 -2.16992,-2.830083 0.17969,0 0.84961,-2.609375 -0.98828,-1.341797 2.25,-3.238281 -1.88086,0.898437 -0.71094,-0.898437 2.5,-4.390625 1.52148,0.06055 -2.15039,-3.371094 -0.91992,-4.609375 -10.78125,-9.830078 -0.14844,-1.970703 z" />
  <path
     id="FR-PL"
     title="Pays de la Loire"
     d="m 105.66497,257.03393 1.64,1.15 -0.59,2.05 3.11,1.57 0.3,3.31 -2.43,-3.85 -2.21,-0.09 -1.61,-1.93 -0.28,-2.03 2.07,-0.18 z m 49.26,-91.14 2.72,1.18 2.01,-1.75 1.94,1.29 2.64,-0.17 1.31,2.75 1.45,-0.63 0.78,1.83 1.92,-0.87 -0.7,-1.47 1.72,0.32 1.05,-1.06 0.5,2.57 4.16,-1.81 1.71,-2.24 4.7,-0.06 1.81,1.61 1.33,-2.39 2.07,0.94 1.25,-1.81 -0.32,-1.75 1.74,0.04 2.57,2.23 -1.17,1.09 1.12,3.35 3.99,0.36 -0.01,4.78 2.08,-1.42 2.45,1.23 0.55,-1.93 3.56,-2.05 -0.52,-1 6.49,-1.45 3.38,3.5 0.41,6.42 3.62,1.45 0.42,-0.72 1.91,3.82 4.29,0.98 0.61,-1.91 3.5,4.7 2.48,-0.37 0,0 4.9,3.44 -2.69,0.34 -0.4,1.83 -1.16,0.27 1.32,0.29 -0.09,1.38 -2.05,0.15 0.15,2.07 1.86,0.46 -0.98,2.7 1.26,2.84 -1.39,0.49 -0.17,2.7 -0.89,-1.45 -1.2,0.69 0.33,4.23 -3.16,3.01 0.39,1 -3.11,0.93 -1.7,2.09 0.42,1.81 0.96,-0.29 -0.94,1.3 -5.49,1.65 -0.61,1.58 -2.74,-1.5 -0.78,1.47 1.6,2.52 -0.81,0.52 -6.28,-2.14 0,0 0.05,0.52 0,0 -1.65,3.52 1.33,0.72 -0.19,1.67 -2.85,6.16 1.22,1.09 -4.36,6.11 -0.95,7.16 0,0 -1.48,-0.67 -1.1,0.91 -1.21,4.48 -2.08,-0.86 -1.79,2.83 -2.07,-0.98 1.52,-2.02 -1.72,-0.3 -0.85,0.86 -2.54,-0.7 -5.43,0.88 -0.46,1.49 -3.06,0.81 0.9,-1.71 -1.46,-0.12 -2.56,1.18 0.53,1.92 -2.29,2.16 -2.96,-0.38 -1.83,1.17 -3.02,-1.3 -2.7,2.16 -1.81,-0.28 1.35,0.76 -0.61,0.98 1.26,0.04 -0.48,0.66 2.15,0.81 -0.96,2.19 2.31,2.72 0,0 0.17,0 0,0 1.65,1.11 0,0 0.29,0 0,0 1.09,0.71 -0.83,0.77 0,0 0.04,0.25 0,0 -0.1,2.25 2.64,3.33 -0.97,0.84 1.77,1.38 -0.9,1.63 1.78,0.88 -0.54,2.78 0.97,2.59 -1.81,0.72 1.63,3.94 -1.36,3.45 0.87,0.38 0.61,-1.34 2.76,1.74 -4.49,4.09 -2.09,-0.51 -1,1.4 -4.38,-2.12 0,0 -0.18,-0.26 0,0 -0.78,1.48 -1.52,-0.56 -1.86,0.99 -1.23,-0.74 1.31,-2.91 -5.14,1.27 -0.88,1.95 -1.7,0.04 0,0 -3.56,0.1 -0.17,2.7 -4.55,-3.84 0.84,2.57 -1.99,-3.06 -5.16,-0.01 -1.94,-3.69 -5.58,-0.97 -6.83,-4.49 -1.8,-7 -3.78,-5.28 -8.06,-7.51 -0.41,-4.08 1.72,-0.15 -0.37,-1.03 3.58,-3.63 0.2,-2.45 2.1,-1.21 -5.02,-5.23 -6.12,-1.09 3.36,-2.17 -0.21,-5.83 -1.67,-0.36 -3.64,2.28 -3.16,-2.77 -2.329997,1.22 -4.7,-1.94 1.5,-1.12 0.12,-1.81 -2.23,-2.2 4.18,-3.01 0.02,-1.49 0,0 1.43,-1.77 0.9,1.27 3.499997,-0.29 0.78,-3.38 2.23,1.33 2.49,-1.11 0.89,1.4 0.26,-1.95 2.46,-0.69 0.68,-7.18 4.51,-2.7 0.76,1.38 3.94,-2.29 8.31,-0.06 1.57,-3.32 6.19,-2.43 -0.24,-1.99 3.76,0.44 1.03,1.79 4.84,1.39 3.8,-11.62 5.75,-2.37 -2.41,-12.26 0,0 -0.17,-0.16 0,0 -0.93,-3.91 2.32,-3.9 -1.49,-5.35 0.46,-5.85 z" />
  <path
     id="FR-PR"
     title="Provence-Alpes-Côte d'Azur"
     d="m 406.53497,411.59393 0.41,0.46 0,0 2.91,1.77 0,0 0.03,0.34 0,0 -1.98,0.93 -1.51,3.92 -4.05,-0.68 -0.65,-2.61 1.51,-2.73 0,0 0.36,-0.64 0,0 0.32,-0.17 0,0 0.69,-0.16 0,0 1.28,-1.03 0,0 0.17,0.44 0,0 0.43,0.05 0,0 0.08,0.11 z m 14.56,69.2 1.41,-2.37 -1.23,-1.43 1.15,-0.76 -2.69,-3.76 -3.35,1.86 -7.41,0.22 -3.32,-5.71 -2.07,-0.39 -1.09,1.55 0.5,-1.4 -1,0.59 -0.86,-2.03 0.69,2.52 -2.05,-1.09 1.37,1.6 -2.3,0.9 1.91,-0.13 -0.67,0.68 1.78,1.14 1.6,-1.39 -3.34,3.01 -10.56,-1.85 -1,-1.16 1.35,-2.36 -2.38,-1.71 -12.58,-0.46 0,0 0.44,-2.25 3.4,-1.65 -0.41,-1.55 0.83,1.11 5.32,-3.08 0.43,-1.32 -1.9,-0.66 2.47,-4.19 2.27,-0.57 3.65,1.24 -0.63,-2.29 2.27,-6.83 -1.07,-1.25 7.16,-5.54 -0.01,-1.44 1.27,-0.06 -2.41,-4.41 -2.74,-0.91 0.04,-6.1 -0.59,-1.55 -1.42,-0.07 -0.98,-3.18 0,0 0.05,-3.44 5.73,0.97 1.26,4.96 10,-4.63 2.02,1.74 1.76,-1.85 0,0 0.66,-0.31 0,0 -0.61,4.8 3.22,1.2 0.81,-1.16 2.03,1.4 2.37,-0.42 1.23,0.81 -0.08,2.6 2.18,0.2 0.81,1.87 3.59,-0.77 2.5,-3.39 1.57,1.36 -0.35,1 1.96,0.24 0.17,-0.99 -1.64,-0.46 1.79,-1.42 0.01,-4.09 -1.64,0 -0.44,-1.95 -1.19,-0.32 0.88,-1.58 -3.38,0.19 -1.1,-1.19 -1.17,0.76 -2.61,-2.15 -0.47,-2.91 2.4,0.34 0.87,-1.03 -1.39,-0.61 -0.27,-2.98 6.48,1.61 0.6,-1.66 1.47,-0.13 -2.78,-2.41 2.11,-3.94 -0.2,-2.32 3.57,0.74 0.84,-1.34 1.67,0.5 1.7,-2.15 -1.31,-0.93 1.17,-3.09 2.32,0.76 2.84,-0.82 1.21,-1.23 -1.28,-1.36 2.83,-1.8 1.61,1.14 3.22,-2.82 4.71,0.72 1.83,-1.28 2.67,1.11 0.1,-4.94 -1.47,-0.85 0.05,-2.63 -4.96,-1.02 1.71,-6.12 2.01,0.73 1.63,-0.89 1.31,3.11 3.58,1.07 1.48,-0.18 -0.26,-2.22 1.25,-0.96 1.3,0.56 1.51,-1.41 2.19,0.87 0,0 1.76,5.3 2.94,0.33 0.28,6.37 4.67,3.22 1.94,0.37 1.05,-1.06 3.6,2.26 -0.94,2 3.16,6.16 -4.73,0.35 0.22,3.35 -4.66,5.23 0.94,2.8 2.92,2.92 -2.31,0.48 -0.22,3.42 4.45,4.76 0.5,2.56 7.49,1.99 3.81,3.49 2.64,-0.31 0.6,1.78 2.79,0.18 0.25,-1.05 7.8,-1.11 0.76,-1.57 1.96,0.12 -0.73,2.51 2,2.72 -0.38,2.4 -1.77,0.79 -0.44,3.13 -3.54,1.86 -0.36,2.63 -2.54,1.34 1.44,5.18 -5.16,3.65 -2.79,0.37 -0.24,2.08 -0.74,-1.74 -0.45,1.21 -2.58,-0.22 -1.38,2.2 -2.16,-0.14 -1.46,3.78 0.97,1.99 -1,0.58 -0.95,-1.66 -2.48,2.04 -0.93,-0.91 -2.21,0.51 -1.07,1.6 0.82,0.97 -2.71,3.88 -4.23,1.15 -1.83,-0.81 -1.19,4.26 -5.88,4.3 5.09,0.32 -1.33,1.35 0.66,2.46 -1.63,0.74 0.21,1.08 -1.08,0.54 -2.47,-1.77 -2.69,2.17 -4.65,0.37 -0.85,3.29 -3.73,-1.97 -3.62,0.35 -1.52,2.81 0.21,2.18 -2.49,-0.12 1.42,-0.87 -0.21,-1.98 -4.28,0.06 -0.82,-1.57 -3.06,0.21 -0.2,-1.27 -1.66,1.26 2.76,1.95 -2.35,-0.62 -1.32,1.83 -1.29,-0.18 -1.47,-1.07 0.63,-2.63 -1.73,-0.05 0.23,-1.29 -3.2,-0.27 -0.38,-2.05 -2.68,-0.38 -0.74,1.51 -2.84,-3.09 -1.52,1 -6.59,-1.02 z" />
</svg>
