<?xml version="1.0" encoding="UTF-8" standalone="no"?>
<!-- Created for MapSVG plugin: http://mapsvg.com -->
<svg
   xmlns:mapsvg="http://mapsvg.com"
   xmlns:dc="http://purl.org/dc/elements/1.1/"
   xmlns:rdf="http://www.w3.org/1999/02/22-rdf-syntax-ns#"
   xmlns:svg="http://www.w3.org/2000/svg"
   xmlns="http://www.w3.org/2000/svg"
   mapsvg:geoViewBox="-92.234204 17.815697 -88.230725 13.740021"
   width="563.42047"
   height="594.59253">
  
  <path
     d="m 251.67741,262.6 0,0 -1.67,-0.62 -0.27,0.72 -0.48,0.63 -0.21,0.72 -0.87,0 -1.65,-1.05 -2.71,1.71 -1.45,-0.66 -0.96,0 -0.53,0.9 -0.46,0.08 -1,-0.98 -0.3,0.5 -0.18,0.44 -0.15,-0.04 -0.24,-0.9 -0.58,0.64 -0.91,0.79 -0.42,0.47 -1.85,-0.97 -1.24,-1.21 -1.41,-0.83 -2.35,0.12 0,-1.08 0.68,-0.22 0.69,-0.41 0.62,-0.28 0,-1.08 -0.96,-0.59 -0.81,-0.04 -0.64,0.55 -0.45,1.16 -0.95,0 -1.98,-2.04 -3.62,0.79 -5.94,3.24 1.04,1.98 -1.25,0.83 0.02,0.63 0.26,0.76 -0.51,1.21 -0.97,0.59 -0.66,-0.61 -0.45,-0.96 -0.35,-0.46 -1.57,0.7 -2.2,1.83 -1.87,0.45 0,1.08 0.58,0.5 1.24,1.4 0.96,-1 0.25,0.46 -0.04,0.26 0.11,0.15 0.72,0.13 0,0.99 -1.38,1 -1.08,2.11 -1.36,4.83 3.48,0.37 0.85,2.49 -1.45,2.84 -3.4,1.34 -0.57,0.86 -1.86,5.09 -3.8,4.84 -0.88,2.1 1.83,-0.21 1.63,0.19 1.33,0.7 0.93,1.31 -0.68,0.31 -0.62,0.53 -0.69,0.24 0,0.9 2.07,1.59 0.79,0.48 -1.89,1.35 -0.52,1.64 1.06,1.39 5.21,0.89 5.92,1.74 1.68,0.92 1.15,-0.69 1.28,-0.23 1.28,0.23 1.14,0.69 -0.49,0.12 -0.4,0 -0.21,0.19 0.06,0.68 2.66,1.71 1.4,1.88 0.11,2.07 -1.22,2.36 2.11,1.49 1.41,3.02 0.95,2.98 0.74,1.34 0.9,0.81 -0.95,1.72 -1.51,1.58 -0.78,0.39 -3.91,3.51 0,0.99 1.12,1.54 -1.7,0.91 -5.58,0.52 -1.88,0.97 -0.58,2.28 0.28,2.63 0.71,2.05 2.88,2.81 4.37,1.72 21.99,3.38 2.22,1.27 -0.12,2.95 -1.31,3.33 -1.31,2.44 -0.92,1.25 -5.24,7.2 -4.62,0.37 -16.39,-0.72 -23.18,-5.47 -1.16,-0.6 -0.87,15.7 10.44,13.54 12.58,7.92 -0.07,0.68 -0.62,3.15 2.5,2.62 0.96,0.83 0.92,0.61 1.03,0.96 0.63,1.37 1.59,3.71 -1.93,-0.72 -5.01,-1.05 -4.12,-1.41 -2.36,-0.33 -7.2,0 -6.68,-1.98 -2.17,0.05 -1.93,0.33 -1.64,0.36 -9.09,0.22 -2.54,-0.49 -2.34,1.45 -2.39,0.64 -1.36,0.67 -0.26,0.19 -0.28,0.25 -0.89,1.44 -3.15,8.92 -1.02,0.86 -3.73,1.84 -2.3,-0.83 -0.65,0.4 -0.55,1.96 -0.15,0.33 -0.2,0.29 -0.21,0.27 -0.29,0.2 -0.36,0.13 -0.42,0.02 -0.41,-0.05 -0.38,-0.4 -0.29,-0.67 -0.2,-1.56 0,-0.77 0.12,-0.57 0.18,-0.32 1.16,-1.28 0.41,-0.6 0.37,-0.69 0.08,-0.36 -0.26,-0.46 -0.63,-0.48 -1.63,-0.62 -0.76,-0.2 -0.6,-0.11 -0.39,-0.01 -0.4,-0.07 -0.86,-0.65 -1.32,-2.38 -0.71,-1.93 -1.71,-0.8 -4.43,-3.5 0.31,-0.91 0.78,-2.4 -0.05,-0.91 -0.41,-0.8 -2.29,-1.62 -0.98,-1.56 -0.65,-2.58 -0.39,-0.74 -0.28,-0.43 -2.48,-1.88 -1.5,-0.96 -0.24,-0.27 -0.17,-0.35 -0.06,-0.43 -0.02,-0.45 0.11,-1.12 0.33,-0.95 0.46,-0.68 1.13,-0.89 0.71,-0.31 0.59,-0.15 1.47,-0.03 0.41,-0.3 0.32,-0.57 0.13,-1.46 -0.01,-0.75 -0.87,-1.63 -0.97,-0.32 -0.19,-2.01 -1.37,-1.95 -0.69,-2.83 -0.96,-0.42 -3.89,-4.02 -0.44,-1 -1.89,-0.94 -0.69,-2.24 0.02,-2.63 0.65,-4.05 0.63,-1.23 1.11,-0.76 6.07,-1.12 3.17,-1.06 1.26,-0.03 3.42,0.62 1.23,-0.13 2.16,-0.5 -0.69,-2.9 -0.81,-2.17 -0.14,-0.83 1.21,-5.19 -0.31,-2.62 -3.87,-1.81 -1.77,-0.36 -4.09,0.5 -0.79,-0.02 -0.55,-0.12 -2.63,-2.47 -0.87,-0.98 -0.81,-1.25 -0.59,-1.4 -0.16,-0.81 -0.01,-1.84 -0.1,-0.45 -0.23,-0.45 -2.8,-3.39 -0.42,-0.65 -0.15,-0.33 -0.19,-0.29 -0.31,-0.66 -0.13,-0.38 -0.1,-0.39 -0.1,-0.9 0,-0.45 0.07,-0.46 0.08,-0.39 0.28,-0.7 0.78,-1.31 0.19,-3.37 0.15,-0.51 0.32,-0.84 0.46,-0.7 0.81,-1.63 0.37,-1.37 0.2,-1.75 0.32,-0.59 0.39,-0.28 0.44,0.04 0.53,-0.08 0.58,-0.19 1.72,-1.49 0.33,-0.17 0.37,-0.1 0.43,-0.06 0.9,0 0.46,-0.09 3.77,-2.68 0.56,-0.8 0.57,-0.13 1.21,-0.12 0.51,-0.19 0.28,-0.25 -0.11,-0.35 -0.17,-0.25 -0.17,-0.96 2.61,-2.53 0.33,-0.47 9.1,-18.62 1.36,-2.66 17.14,-34.25 0.81,-0.01 19.28,-0.03 19.26,-0.03 19.27,-0.04 12.55,-0.02 2.73,-0.32 2.51,-0.92 1.65,0.87 0.69,1.13 -0.29,1.38 -1.18,1.63 0.84,1.57 -0.6,1.34 -1.43,0.6 z"
     title="Quiché"
     id="GT-QC" />
  <path
     d="m 433.90741,400.36 0,0 -1.93,1.6 -1.68,2.61 -2.21,6.68 2.73,2.56 -0.01,3.81 -1.73,4.11 -1.08,1.53 -0.04,-0.11 -0.44,-0.99 -0.2,-0.33 -0.14,-0.33 -0.18,-0.33 -0.41,-1.01 -0.54,-1 -0.21,-0.31 -0.23,-0.26 -0.25,-0.23 -0.26,-0.19 -0.36,-0.15 -0.74,0.11 -1.06,0.31 -3.09,1.58 -0.94,0.65 -0.57,0.55 -0.72,1.1 -0.65,0.74 -0.86,0.7 -1.66,0.55 -1.05,0.05 -0.9,-0.62 -0.56,-0.74 -2.19,-0.69 -6.89,2.34 -2.28,0 -1.93,-1.32 -3.06,-0.93 -1.15,-0.03 -2.71,0.78 -8.44,6.81 -2.13,0.52 -7.49,-0.14 -2.06,-0.48 -4.48,-2.2 -4.75,-2.45 -1.64,-0.21 -2.4,1.85 -3.19,3.04 -0.19,0.72 0.43,3.54 -0.56,2.38 -3.31,6 -1.59,-0.45 -2.23,-0.34 -3.74,0 -0.45,-0.06 -0.81,-0.93 -1.16,-1.65 -2.22,-4.29 -1.3,-1.84 -0.83,-1.48 -0.4,-0.53 1.08,-2.41 3.13,-3.55 1.76,-0.78 3,-0.09 0.68,-0.12 0.56,-0.24 0.28,-0.68 0.29,-2.86 -0.34,-0.46 -0.71,-0.44 -1.79,-0.25 -1.71,-0.91 -1.11,-1.59 -6.15,-8.5 -0.38,-0.69 -0.13,-0.57 0.56,-0.22 0.67,-0.09 6.76,-0.14 -0.14,-1.95 -6.22,-9.44 -5.16,-7.44 3.84,-1.72 1.45,-0.21 3.23,0.12 4.89,1.88 1.65,0.35 8.89,-1.36 4.47,0.3 9.67,-2.26 5.71,-0.68 2.08,-0.46 16.56,-5.6 16.36,-6.63 3.65,-2.74 2.02,-1.01 3.25,-0.7 4.28,0.42 1.4,0.34 3.25,1.78 0.4,0.27 0.45,0.39 0.69,0.75 0.33,0.5 0.23,0.45 0.1,0.4 0.07,0.93 -0.31,3.63 -0.16,0.94 -0.13,0.33 -0.34,0.64 -0.24,0.3 -0.25,0.22 -0.57,0.41 -1.75,0.7 -0.15,0.59 0.01,0.96 1.09,4.6 0.05,0.9 -0.09,1.39 0.21,2.28 0.83,4.08 0.28,0.81 2.72,3.29 0.61,0.44 1.01,0.45 0.38,0.3 0.07,0.05 z"
     title="Zacapa"
     id="GT-ZA" />
  <path
     d="m 371.33741,479.64 0,0 10.51,-0.42 0.87,0.32 1.96,2.16 0.39,1 -0.03,0.65 -0.14,0.75 -0.66,1.99 -0.42,0.93 -0.46,1.38 -0.36,1.66 -0.07,0.78 0.02,0.52 0.11,0.22 0.16,0.29 1.82,2.16 0.06,0.06 -0.97,0.42 -3.45,4.18 -1.9,1.38 -0.41,-2.68 -1.53,-1.55 -2.05,-0.17 -1.98,1.47 -0.91,2.28 0.6,1.63 1.02,1.43 0.4,1.68 -0.88,1.41 -1.4,1.01 -0.83,1.21 0.86,2.04 2.92,0.39 0.97,0.43 0.81,0.77 0.4,0.55 0.82,1.55 0.18,0.68 0.25,2.2 0.26,0.94 0.61,0.6 1.77,0.89 0.45,0.59 0.02,2.25 -0.9,0.9 -15.01,3.6 -3.68,1.69 -3.52,2.72 -2.8,3.07 -5.98,10.59 -0.39,1.18 0.13,1.1 0.91,2.09 0.1,0.25 -0.05,0.8 -2.05,1.1 -2.05,-0.84 -3.64,-2.83 -2.53,-0.67 -2.06,0.15 -6.19,2.36 -1.49,0.98 -2.98,2.98 -13.43,9.44 -2.07,1.83 -1.19,2.02 -0.93,2.1 -1.29,2.03 -1.72,1.38 -3.83,2.05 -1.68,1.72 -1.1,2.08 -0.75,2.28 -0.35,2.34 0.07,2.26 2.98,9.7 -0.75,-0.36 -19.88,-8.25 0.5,-1.96 0.91,-3.58 0.05,-2.59 -0.1,-0.69 -0.24,-0.73 -1.8,-3.27 -1.36,-5.03 -0.47,-1.16 -0.41,-0.68 -0.71,-0.34 -0.28,-0.2 -0.24,-0.26 -0.16,-0.35 -1.01,-5.94 -0.23,-0.59 -0.7,-0.74 -0.46,-0.58 -0.48,-1.04 -0.09,-0.52 -0.03,-0.76 0.16,-0.82 0.2,-0.51 0.86,-0.65 2.54,-0.71 3.93,2.28 2.7,2.28 0.72,0.29 5.49,1.33 1.4,0.56 0.58,-0.04 0.46,-0.08 2.18,-1.52 2.18,-4.11 0.88,-1.61 0.49,-0.36 0.79,-0.47 1.61,-0.47 1.88,-0.35 0.32,-0.13 0.8,-0.88 2.43,-3.48 0.74,-1.6 0.4,-1.23 0.14,-0.85 0.02,-0.43 -0.64,-5.73 0.21,-3.15 -0.68,-1.44 -3.41,-3.35 -4.34,-3.59 -0.97,-0.99 -0.54,-0.43 -0.8,-0.33 -6.48,-1.84 -2.02,-1.47 4.98,-12.41 1.86,-1.61 0.3,-0.24 4.87,-0.96 1.54,0.08 0.68,0.33 0.7,0.25 0.31,-0.14 0.16,-0.45 -0.43,-2.74 1.96,-0.22 2.53,-7.94 8.85,-0.12 3.33,-4.42 0.57,-0.63 0.4,-0.22 0.53,-0.19 0.97,-0.2 0.63,-0.04 0.56,0.04 0.41,0.09 0.38,0.14 0.43,0.19 6.23,4.92 0.73,-4.96 1.17,-1.74 2.85,-1.95 2.68,-1.78 2.29,-1.55 2.72,-0.75 1,0.18 0.54,0.45 0.45,0.56 0.93,0.95 1.54,1.22 0.28,0.14 8.72,-4.25 3.02,-1.78 0.1,-0.47 -0.03,-1.41 -1.06,-3.24 5.63,0.64 1.76,0.6 0.29,0.26 0.98,1.07 0.79,1.16 0.67,1.31 1.59,2.37 0.49,0.33 0.51,0.15 z"
     title="Jutiapa"
     id="GT-JU" />
  <path
     d="m 337.86741,428.55 0,0 -1.08,2.41 0.4,0.53 0.83,1.48 1.3,1.84 2.22,4.29 1.16,1.65 0.81,0.93 0.45,0.06 3.74,0 2.23,0.34 1.59,0.45 6.62,-0.35 1.81,0.52 0.73,1.17 0.53,1.55 0.28,1.66 -0.01,0.47 -0.29,1.74 -0.12,0.41 -0.09,0.43 -0.04,0.86 0.16,0.81 0.51,1.2 0.55,1.69 -5.01,13.98 -0.5,3.08 0.48,0.07 1.5,-0.07 1.06,3.24 0.03,1.41 -0.1,0.47 -3.02,1.78 -8.72,4.25 -0.28,-0.14 -1.54,-1.22 -0.93,-0.95 -0.45,-0.56 -0.54,-0.45 -1,-0.18 -2.72,0.75 -2.29,1.55 -2.68,1.78 -2.85,1.95 -1.17,1.74 -0.73,4.96 -6.23,-4.92 -0.43,-0.19 -0.38,-0.14 -0.41,-0.09 -0.56,-0.04 -0.63,0.04 -0.97,0.2 -0.53,0.19 -0.4,0.22 -0.57,0.63 -3.33,4.42 -8.85,0.12 -3.7,-2.84 -4.98,-4.13 -1.25,-1.99 -0.71,-3.4 -15.37,2.91 -1.8,0.34 -1.94,0.26 -0.3,-0.17 -0.54,-0.4 -0.28,-0.39 -1.75,-1.86 0.23,-4.47 0.12,-0.71 0.23,-0.89 0.55,-0.44 0.34,-0.66 0.36,-1.18 0.07,-2.27 0.81,-3.42 4.55,-3.83 1.19,-0.76 0.27,-0.23 0.65,-1.03 1.27,-3.22 0.25,-0.1 0.99,-0.43 2.24,-1.29 0.54,-1.55 0.15,-0.94 0.24,-0.41 0.56,-0.36 3.68,-1.42 4.71,-1.59 2.12,0.26 1.71,0.84 1.12,0.37 0.65,-0.33 0.52,-0.57 4.36,-8.14 3.23,-0.97 4.71,-0.56 4.22,-1.56 4.08,-2.22 4.88,-6.15 1.89,-1.72 0.79,-0.32 0.81,-0.17 1.8,-0.07 2.19,0.16 z"
     title="Jalapa"
     id="GT-JA" />
  <path
     d="m 427.99741,423.26 0,0 -1.34,1.92 -3.46,3.01 -1.1,1.69 -0.14,2.72 0.67,2.02 1.22,1.86 2.81,3.41 1.32,2.18 2.63,6.39 1.53,1.98 1.27,1.13 0.61,0.93 0.24,0.37 0.25,2.46 -0.36,1.13 -1.48,1.62 -0.5,0.91 0.59,7.28 -0.08,2.56 -0.65,2.39 -1.64,1.58 -1.61,0.12 -3.52,-1.21 -1.71,-0.31 -2.38,0.31 -1.06,0.71 -0.68,1.13 -1.27,1.58 -4.37,3.79 -1.95,2.12 -1.39,2.51 -1.15,1.22 -3.11,0.8 -1.43,0.94 -0.91,1.88 -0.25,2.29 0.3,4.49 -4.05,-2.97 -0.15,0.33 -0.72,1.11 -0.19,-2.79 -1.42,0.56 -3.18,3.29 -2.2,0.46 -1.58,-0.59 -1.58,-0.83 -2.21,-0.29 -1.52,0.64 -0.06,-0.06 -1.82,-2.16 -0.16,-0.29 -0.11,-0.22 -0.02,-0.52 0.07,-0.78 0.36,-1.66 0.46,-1.38 0.42,-0.93 0.66,-1.99 0.14,-0.75 0.03,-0.65 -0.39,-1 -1.96,-2.16 -0.87,-0.32 -10.51,0.42 -0.51,-0.15 -0.49,-0.33 -1.59,-2.37 -0.67,-1.31 -0.79,-1.16 -0.98,-1.07 -0.29,-0.26 -1.76,-0.6 -5.63,-0.64 -1.5,0.07 -0.48,-0.07 0.5,-3.08 5.01,-13.98 -0.55,-1.69 -0.51,-1.2 -0.16,-0.81 0.04,-0.86 0.09,-0.43 0.12,-0.41 0.29,-1.74 0.01,-0.47 -0.28,-1.66 -0.53,-1.55 -0.73,-1.17 -1.81,-0.52 -6.62,0.35 3.31,-6 0.56,-2.38 -0.43,-3.54 0.19,-0.72 3.19,-3.04 2.4,-1.85 1.64,0.21 4.75,2.45 4.48,2.2 2.06,0.48 7.49,0.14 2.13,-0.52 8.44,-6.81 2.71,-0.78 1.15,0.03 3.06,0.93 1.93,1.32 2.28,0 6.89,-2.34 2.19,0.69 0.56,0.74 0.9,0.62 1.05,-0.05 1.66,-0.55 0.86,-0.7 0.65,-0.74 0.72,-1.1 0.57,-0.55 0.94,-0.65 3.09,-1.58 1.06,-0.31 0.74,-0.11 0.36,0.15 0.26,0.19 0.25,0.23 0.23,0.26 0.21,0.31 0.54,1 0.41,1.01 0.18,0.33 0.14,0.33 0.2,0.33 0.44,0.99 0.04,0.11 z"
     title="Chiquimula"
     id="GT-CQ" />
  <path
     d="m 563.36741,305.48 0,0 -1.64,0.61 -0.43,1.31 0.11,1.58 -0.93,1.93 -0.86,-1.08 -2.41,1.03 -2.06,1.14 -2.22,0.83 -2.95,0.06 -0.78,1.07 -4.23,7.31 -6.5,6.4 -9.56,7.55 -4.56,3.6 0,0.01 -12.21,9.51 -12.14,9.46 -12.12,9.44 -12.04,9.37 -17.67,13.75 -4.87,2.31 -14.2,4.77 -4.29,2.18 -0.9,0.74 -0.07,-0.05 -0.38,-0.3 -1.01,-0.45 -0.61,-0.44 -2.72,-3.29 -0.28,-0.81 -0.83,-4.08 -0.21,-2.28 0.09,-1.39 -0.05,-0.9 -1.09,-4.6 -0.01,-0.96 0.15,-0.59 1.75,-0.7 0.57,-0.41 0.25,-0.22 0.24,-0.3 0.34,-0.64 0.13,-0.33 0.16,-0.94 0.31,-3.63 -0.07,-0.93 -0.1,-0.4 -0.23,-0.45 -0.33,-0.5 -0.69,-0.75 -0.45,-0.39 -0.4,-0.27 -3.25,-1.78 -1.4,-0.34 -4.28,-0.42 -3.25,0.7 -2.02,1.01 -3.65,2.74 -16.36,6.63 -16.56,5.6 -2.08,0.46 -5.71,0.68 -2.51,-3.59 -0.62,-1.36 -0.27,-0.76 -0.03,-0.62 0.03,-0.8 0.45,-2.39 0.01,-0.74 -0.12,-0.6 -0.79,-1.39 -0.93,-1.28 -0.34,-0.63 -0.57,-1.4 -0.12,-0.5 -0.03,-2.17 1.25,-16.99 0.23,-0.27 0.85,-0.65 2.65,-1.28 0.29,-0.21 0.25,-0.25 0.25,-0.3 0.19,-0.29 0.33,-0.68 0.4,-1.61 0.26,-0.73 0.17,-0.35 1.15,-1.84 -0.2,-0.57 -0.5,-0.79 -1.83,-1.68 -1.22,-1.35 -1.11,-1.67 -3.09,-3.33 -0.53,-0.88 -0.2,-0.26 -0.28,-0.31 -0.28,-0.23 -0.62,-0.38 -0.38,-0.11 1.03,-2.44 7.84,-11.17 8.81,-12.46 0.31,-0.73 0.29,-0.36 0.41,-0.3 1.45,-0.45 0.73,-0.36 2.33,-1.66 1.46,-0.66 0.5,-0.39 0.54,-0.72 1.7,-3.11 0.14,-0.38 0.71,-1.32 0.34,-0.28 0.49,-0.26 2.71,-0.28 1.43,-1.14 3.83,-5.15 1.64,-0.97 0.55,-0.54 0.24,-0.49 0.17,-0.48 0.25,-1.01 0.9,-2.38 1.61,-1.64 12.86,-0.26 3.28,0.46 0.72,0.55 0.1,0.1 0.09,0.08 -0.07,1.83 1.16,1.9 0.31,-0.46 1.32,-0.67 1.64,-0.55 1.27,-0.07 2.56,-1.07 10.7,0.5 3.99,-0.68 4.48,-0.03 12.36,3.21 5.3,-2.08 1.95,0.88 4.73,4 4.84,-1.2 6.18,1.39 4.77,2.8 0.53,3.05 3.17,0.53 14.09,8.9 -1.72,6.55 0.29,0.97 3.77,0 1.52,-0.58 0.45,-1.25 -0.16,-1.08 -0.33,-0.16 -0.04,-0.6 -0.48,-0.51 -0.45,-0.68 0.02,-1.09 0.7,-0.22 1.3,0.15 1.26,-0.21 0.55,-1.29 0.54,-2.34 1.24,-1.59 1.32,-1.24 0.81,-1.28 0.17,-2.24 -1.07,-3.44 -0.14,-2.26 1.04,0 -0.06,1.52 0.06,0.47 0.87,0 1.66,-1.1 4.07,0.79 1.98,-0.78 -3.23,-3.03 -1.79,-1.37 -2.59,-1.19 -1.08,-1.45 -0.93,-1.66 -0.96,-1.22 -6.01,-3.41 -1.72,-2.16 2.01,-2.38 2.13,1.26 3.97,1.74 1.62,0.97 4.06,4.3 2.93,1.7 7.32,6.16 14.41,6.79 4.72,4.29 1.49,0.67 6.16,5.44 4.86,2.1 0.09,0.04 0,0 z"
     title="Izabal"
     id="GT-IZ" />
  <path
     d="m 307.40741,492.57 0,0 -2.53,7.94 -1.96,0.22 0.43,2.74 -0.16,0.45 -0.31,0.14 -0.7,-0.25 -0.68,-0.33 -1.54,-0.08 -4.87,0.96 -0.3,0.24 -1.86,1.61 -4.98,12.41 2.02,1.47 6.48,1.84 0.8,0.33 0.54,0.43 0.97,0.99 4.34,3.59 3.41,3.35 0.68,1.44 -0.21,3.15 0.64,5.73 -0.02,0.43 -0.14,0.85 -0.4,1.23 -0.74,1.6 -2.43,3.48 -0.8,0.88 -0.32,0.13 -1.88,0.35 -1.61,0.47 -0.79,0.47 -0.49,0.36 -0.88,1.61 -2.18,4.11 -2.18,1.52 -0.46,0.08 -0.58,0.04 -1.4,-0.56 -5.49,-1.33 -0.72,-0.29 -2.7,-2.28 -3.93,-2.28 -2.54,0.71 -0.86,0.65 -0.2,0.51 -0.16,0.82 0.03,0.76 0.09,0.52 0.48,1.04 0.46,0.58 0.7,0.74 0.23,0.59 1.01,5.94 0.16,0.35 0.24,0.26 0.28,0.2 0.71,0.34 0.41,0.68 0.47,1.16 1.36,5.03 1.8,3.27 0.24,0.73 0.1,0.69 -0.05,2.59 -0.91,3.58 -0.5,1.96 -0.7,-0.29 -21.75,-9.77 -13.85,-5.2 -11.21,-2.68 -6.56,-1.06 -0.01,-1.59 0.04,-17.89 0.29,-0.72 0.59,-0.62 1.57,-0.41 1.56,-0.24 0.43,-0.21 0.33,-0.21 0.42,-1.41 1.06,-2.03 0.7,-0.7 1.85,-1.09 0.52,-0.46 0.42,-0.57 0.18,-0.31 -0.06,-0.47 -0.27,-0.6 -2.02,-1.89 -0.26,-0.3 -0.5,-0.95 -0.02,-2 0.94,-0.44 2.58,-0.4 0.36,-0.16 0.9,-0.58 2.28,-2.15 1.73,-2.22 -0.09,-0.42 -0.34,-0.49 -1.22,-0.59 -0.63,-0.12 -0.55,0.04 -2.16,0.81 -0.41,0.07 -0.9,0.03 -0.9,-0.06 -1.9,-0.36 -0.58,-0.19 -0.32,-0.15 -0.2,-0.44 -0.03,-0.7 0.44,-1.56 0.85,-1.62 2.05,-2 4,-1.44 1.08,-0.73 2.65,-2.47 2.7,-1.29 1.11,-0.42 0.82,-0.18 0.36,-0.13 0.25,-0.18 1.16,-1.42 0.43,-0.37 0.44,-0.27 0.38,-0.13 0.32,-0.17 0.29,-0.21 0.25,-0.23 0.69,-0.79 0.2,-1.8 -0.74,-6.77 2.56,-6.57 5.75,-9.11 2.37,-1.09 0.57,-0.05 1.06,0.29 0.37,0.38 0.27,0.44 0.22,1.74 0.12,0.37 0.16,0.31 0.24,0.27 0.63,-0.16 0.91,-0.57 2.67,-2.44 0.77,-0.84 1.15,-0.42 1.23,0 1.67,-0.79 1.75,1.86 0.28,0.39 0.54,0.4 0.3,0.17 1.94,-0.26 1.8,-0.34 15.37,-2.91 0.71,3.4 1.25,1.99 4.98,4.13 3.7,2.84 z"
     title="Santa Rosa"
     id="GT-SR" />
  <path
     d="m 337.86741,428.55 0,0 -2.19,-0.16 -1.8,0.07 -0.81,0.17 -0.79,0.32 -1.89,1.72 -4.88,6.15 -4.08,2.22 -4.22,1.56 -4.71,0.56 -3.23,0.97 -4.36,8.14 -0.52,0.57 -0.65,0.33 -1.12,-0.37 -1.71,-0.84 -2.12,-0.26 -4.71,1.59 -3.68,1.42 -0.56,0.36 -0.24,0.41 -0.15,0.94 -0.54,1.55 -2.24,1.29 -0.99,0.43 -0.25,0.1 -1.49,-0.5 -1.53,-1.79 -0.84,-0.72 -1.89,-0.95 -8.15,-2.98 -1.31,-1.01 -2.93,-3.14 -0.62,-1.19 -0.14,-0.33 -0.05,-0.62 0.17,-0.67 0.57,-1.01 0.57,-0.78 0.2,-0.2 0.17,-0.25 0.21,-1.18 -0.53,-3.53 -1.27,-3.63 -0.64,-1.31 -0.22,-0.32 -1.01,-0.36 -3.2,0.24 -1.96,0.56 -0.88,0.09 -0.86,-0.13 -0.36,-0.14 -0.3,-0.19 -0.26,-0.22 -0.25,-0.33 -0.21,-0.47 -0.14,-0.8 0,-0.56 0.4,-0.61 0.35,-0.37 1.72,-3.1 1.76,1.71 4.62,0.83 7.12,-1.17 0.69,-2.33 2.22,-7.06 22.18,-15.45 11.94,-8.04 5.39,-3.67 3.76,-2.09 6.88,0.79 2.32,-0.19 4.09,-1.08 5.16,7.44 6.22,9.44 0.14,1.95 -6.76,0.14 -0.67,0.09 -0.56,0.22 0.13,0.57 0.38,0.69 6.15,8.5 1.11,1.59 1.71,0.91 1.79,0.25 0.71,0.44 0.34,0.46 -0.29,2.86 -0.28,0.68 -0.56,0.24 -0.68,0.12 -3,0.09 -1.76,0.78 -3.13,3.55 z"
     title="El Progreso"
     id="GT-PR" />
  <path
     d="m 130.77741,372.57 0,0 -0.65,4.05 -0.02,2.63 0.69,2.24 1.89,0.94 0.44,1 3.89,4.02 0.96,0.42 0.69,2.83 1.37,1.95 0.19,2.01 0.97,0.32 0.87,1.63 0.01,0.75 -0.13,1.46 -0.32,0.57 -0.41,0.3 -1.47,0.03 -0.59,0.15 -0.71,0.31 -1.13,0.89 -0.46,0.68 -0.33,0.95 -0.11,1.12 0.02,0.45 0.06,0.43 0.17,0.35 0.24,0.27 1.5,0.96 2.48,1.88 0.28,0.43 0.39,0.74 0.65,2.58 0.98,1.56 2.29,1.62 0.41,0.8 0.05,0.91 -0.78,2.4 -0.31,0.91 4.43,3.5 -2.73,2.74 -1.86,2.67 -1.93,1.91 -1.54,0.48 -0.76,0.15 -0.91,-0.02 -0.44,-0.06 -2.22,-0.74 -0.99,-0.18 -1.92,0 -2.88,1.24 -1,-0.12 -0.8,-0.36 -1.28,-0.36 -3.22,-0.5 -1.66,0.24 -1.22,0.41 -6.39,5.46 -0.54,0.49 -2.75,-4.82 -1.52,-1.4 -0.43,-4.34 -1.2,-2.82 -2.96,0.12 -2.71,0.32 -0.95,-0.32 -0.21,-0.3 -0.18,-0.3 -2.22,-2.63 -0.26,-0.97 0.01,-0.9 0.28,-0.77 0.04,-1.69 -2.34,-2.12 -1.04,-1.4 -0.55,-2.11 -3.44,-13.16 -0.72,-4.18 0.28,-1.19 0.31,-0.2 0.31,-0.16 7.15,-2.82 2.44,-0.8 4.71,-0.25 0.52,-0.24 0.61,-0.35 0.09,-0.45 0.31,-3.64 0.1,-0.38 0.83,-1.63 1.84,-2.72 0.5,-0.54 0.7,-0.35 1.4,-0.39 6.06,-1.41 2.17,-1.61 3.37,-1.52 1.64,-0.3 3.6,0.25 z"
     title="Totonicapán"
     id="GT-TO" />
  <path
     d="m 157.50741,438.59 0,0 0.42,-0.02 0.36,-0.13 0.29,-0.2 0.21,-0.27 0.2,-0.29 0.15,-0.33 0.55,-1.96 0.65,-0.4 2.3,0.83 0.35,0.93 2.25,10.84 -0.92,2.81 -0.1,0.51 0.28,3.1 -2.87,6.9 -1.13,1.59 -0.42,1.33 -0.01,3.23 -1.16,11.51 -5.45,-4.2 -1.86,-1.17 -1.35,-0.5 -0.82,-0.15 -1.44,-0.04 -1.23,0.16 -3.88,2.05 -3.16,0.45 -0.39,-0.21 -0.42,-0.29 -0.07,-0.41 0.01,-0.44 0.33,-1.63 0.05,-0.44 -0.04,-1.34 -0.22,-1.18 -0.26,-0.6 -0.63,-0.76 -4.06,-3.62 -1.46,-1.58 -0.41,-0.12 -0.52,-0.09 -1.58,0.35 -3.13,0.28 -0.12,-0.08 -1.59,-1.89 -2.09,-0.99 -1.08,-0.1 -0.85,0.28 -0.49,0.27 -0.68,0.48 -0.38,0.38 -0.22,0.4 -0.13,0.41 -0.04,0.42 0.1,1.82 -0.12,1.11 -0.7,1.98 -1.87,-0.52 -6.37,-0.88 -2.05,-1.97 3.31,-6.38 0.67,-2.03 -0.04,-0.49 -0.16,-0.8 -1.74,-4.65 -0.4,-0.67 -0.68,-0.84 4.09,-5.62 1.7,-5.67 0.54,-0.49 6.39,-5.46 1.22,-0.41 1.66,-0.24 3.22,0.5 1.28,0.36 0.8,0.36 1,0.12 2.88,-1.24 1.92,0 0.99,0.18 2.22,0.74 0.44,0.06 0.91,0.02 0.76,-0.15 1.54,-0.48 1.93,-1.91 1.86,-2.67 2.73,-2.74 1.71,0.8 0.71,1.93 1.32,2.38 0.86,0.65 0.4,0.07 0.39,0.01 0.6,0.11 0.76,0.2 1.63,0.62 0.63,0.48 0.26,0.46 -0.08,0.36 -0.37,0.69 -0.41,0.6 -1.16,1.28 -0.18,0.32 -0.12,0.57 0,0.77 0.2,1.56 0.29,0.67 0.38,0.4 0.41,0.05 z"
     title="Sololá"
     id="GT-SO" />
  <path
     d="m 215.43741,447.21 0,0 1.7,-0.29 0.43,0.01 0.41,0.09 1.41,1.34 4.22,5.42 1.23,4.13 1.87,2.16 1.35,1.58 0.18,0.32 0.08,1.09 -0.76,2.63 0.28,1.69 -1.17,1.32 -0.73,1.76 -1.01,11.6 -1.21,5.42 -8.97,3.56 -1.55,-3.35 -0.21,-0.32 -0.53,-0.38 -0.94,0.28 -0.69,1.07 -0.81,0.5 -2.03,0 -1.21,0.68 -0.26,0.19 -0.32,0.3 -0.66,0.86 -0.69,1.27 -0.22,0.29 -0.94,1.08 -3.69,3.18 -0.67,-0.45 -0.88,-1.02 -1.74,-2.9 -1.07,-2.27 -0.09,-0.4 -0.14,-0.35 -1.13,-1.21 -4.11,-3.58 -0.05,-0.17 -0.08,-0.83 0.75,-3.97 3.03,-5.85 6.3,-7.03 3.53,-2.57 1.86,-4.05 0.84,-1.06 0.41,-0.71 0.04,-0.65 -0.04,-0.88 -0.43,-2.57 -0.46,-1.37 -0.78,-4.18 0.41,-1.81 2.18,-4 3.26,2.97 1.84,1.09 1.33,0.29 1.33,0.05 z"
     title="Sacatepéquez"
     id="GT-SA" />
  <path
     d="m 118.52741,467.58 0,0 0.7,-1.98 0.12,-1.11 -0.1,-1.82 0.04,-0.42 0.13,-0.41 0.22,-0.4 0.38,-0.38 0.68,-0.48 0.49,-0.27 0.85,-0.28 1.08,0.1 2.09,0.99 1.59,1.89 0.12,0.08 3.13,-0.28 1.58,-0.35 0.52,0.09 0.41,0.12 1.46,1.58 4.06,3.62 0.63,0.76 0.26,0.6 0.22,1.18 0.04,1.34 -0.05,0.44 -0.33,1.63 -0.01,0.44 0.07,0.41 0.42,0.29 0.39,0.21 3.16,-0.45 3.88,-2.05 1.23,-0.16 1.44,0.04 0.82,0.15 1.35,0.5 1.86,1.17 5.45,4.2 0.97,0.89 0.89,0.97 0.5,0.66 0.26,1.41 -0.25,3.25 0,1.89 -1.98,5.37 -3.95,8.15 -0.92,2.46 -0.4,6.91 -0.15,0.81 -0.19,0.57 -0.64,0.94 -1.24,2.45 -0.86,0.56 -16.31,-1.21 -0.89,-0.22 0.7,-3.46 -1.52,-1.5 -2.55,2.84 -1.13,0.69 -1.39,0.04 -0.91,-0.15 -0.54,-0.23 -0.7,-0.43 -0.6,-0.57 -0.29,-0.46 -0.14,-0.42 -0.04,-0.42 0.04,-0.43 0.29,-1.2 -0.02,-0.46 -0.14,-0.46 -0.68,-0.94 -0.2,-0.36 -0.13,-0.34 0,-0.4 0.1,-0.38 0.14,-0.34 1.02,-1.51 -0.02,-0.55 -0.26,-0.71 -0.9,-1.41 -0.61,-0.47 -0.54,-0.22 -1.14,0.37 -0.65,0.35 -3.98,2.94 -0.5,0.51 -0.19,0.3 -0.29,0.68 -0.3,1.21 -0.04,0.9 0.08,0.91 0.24,1.26 0.27,0.72 0.67,1.28 0.13,0.35 0.04,0.37 -0.28,0.42 -0.47,0.41 -0.98,0.59 -0.58,0.14 -0.38,-0.12 -0.19,-0.31 -0.36,-1.11 -0.49,-0.67 -1.1,-0.79 -1.45,0.9 -0.21,0.48 -0.25,0.99 -0.08,1.75 0.07,1.16 0.53,3.41 0.32,5.81 -0.18,2.32 -0.86,1.15 -0.73,0.74 -0.67,1.09 -1.14,2.5 -6.79,10.05 -0.3,0.8 -0.13,0.67 0.47,2.23 0.14,1.18 0.02,0.17 -3.29,-1.46 -11.91,-6.8 -2.99,-1.86 -0.11,-1.17 -0.83,-5.76 3.99,-5.94 0.15,-0.32 0.16,-0.91 0.29,-4.74 0.65,-4.3 1.74,-5.32 1.59,-2.37 0.11,-0.66 0.07,-0.94 -0.09,-1.92 0.64,-9.39 -0.08,-1.07 -1.77,-3.17 -0.28,-0.72 -0.21,-0.75 -0.11,-0.87 1.11,-8.46 -0.06,-0.42 -0.01,-0.47 0.06,-0.9 5.52,-11.33 -0.08,-1.42 -0.11,-1.84 0.08,-1.63 0.09,-0.41 0.43,-0.88 0.37,-0.57 3.17,-3.59 4.21,-3.73 5.7,-3.85 0.68,0.84 0.4,0.67 1.74,4.65 0.16,0.8 0.04,0.49 -0.67,2.03 -3.31,6.38 2.05,1.97 6.37,0.88 1.87,0.52 z"
     title="Suchitepéquez"
     id="GT-SU" />
  <path
     d="m 258.74741,425.29 0,0 -1.72,3.1 -0.35,0.37 -0.4,0.61 0,0.56 0.14,0.8 0.21,0.47 0.25,0.33 0.26,0.22 0.3,0.19 0.36,0.14 0.86,0.13 0.88,-0.09 1.96,-0.56 3.2,-0.24 1.01,0.36 0.22,0.32 0.64,1.31 1.27,3.63 0.53,3.53 -0.21,1.18 -0.17,0.25 -0.2,0.2 -0.57,0.78 -0.57,1.01 -0.17,0.67 0.05,0.62 0.14,0.33 0.62,1.19 2.93,3.14 1.31,1.01 8.15,2.98 1.89,0.95 0.84,0.72 1.53,1.79 1.49,0.5 -1.27,3.22 -0.65,1.03 -0.27,0.23 -1.19,0.76 -4.55,3.83 -0.81,3.42 -0.07,2.27 -0.36,1.18 -0.34,0.66 -0.55,0.44 -0.23,0.89 -0.12,0.71 -0.23,4.47 -1.67,0.79 -1.23,0 -1.15,0.42 -0.77,0.84 -2.67,2.44 -0.91,0.57 -0.63,0.16 -0.24,-0.27 -0.16,-0.31 -0.12,-0.37 -0.22,-1.74 -0.27,-0.44 -0.37,-0.38 -1.06,-0.29 -0.57,0.05 -2.37,1.09 -5.75,9.11 -2.56,6.57 0.74,6.77 -0.2,1.8 -0.69,0.79 -0.25,0.23 -0.29,0.21 -0.32,0.17 -0.38,0.13 -0.44,0.27 -0.43,0.37 -1.16,1.42 -0.25,0.18 -0.36,0.13 -0.82,0.18 -1.11,0.42 -2.7,1.29 -2.65,2.47 -1.08,0.73 -4,1.44 -0.85,-3.12 -1.7,-3.96 -0.44,-1.72 0.11,-4.78 -0.92,-7.42 -0.59,-1.92 -0.34,-0.15 -0.42,-0.06 -1.82,0.05 -1.15,-0.39 -2.05,-1.82 -1.79,-5.37 1.21,-5.42 1.01,-11.6 0.73,-1.76 1.17,-1.32 -0.28,-1.69 0.76,-2.63 -0.08,-1.09 -0.18,-0.32 -1.35,-1.58 -1.87,-2.16 -1.23,-4.13 -4.22,-5.42 -1.41,-1.34 -0.41,-0.09 -0.43,-0.01 -1.7,0.29 -1.33,-0.05 -1.33,-0.29 -1.84,-1.09 -3.26,-2.97 2.56,-3.94 1.3,-4.33 0.81,-1.42 0.59,-0.51 0.59,-0.41 0.33,-0.16 0.37,-0.06 0.41,0.03 0.35,0.15 0.55,-0.06 0.69,-0.28 2.13,-1.68 0.67,-0.4 1.55,-0.52 0.63,-0.45 0.49,-0.44 0.26,-0.39 0.18,-0.34 0.14,-0.42 0.08,-0.36 0.37,-2.24 4.98,1.83 2.08,-0.4 1.07,1.2 0.74,0.32 0.59,-0.18 0.63,-0.35 0.87,0 2.13,0.33 3.51,-0.73 3.56,-1.27 2.26,-1.3 1.04,0 0.67,1.33 1.05,0.63 1.35,0.15 1.61,-0.13 1.85,-0.49 0.57,-0.72 0.33,-0.83 1.16,-0.84 2.27,-0.44 1.09,0.9 0.61,1.7 z"
     title="Guatemala"
     id="GT-GU" />
  <path
     d="m 199.99741,496.69 0,0 3.69,-3.18 0.94,-1.08 0.22,-0.29 0.69,-1.27 0.66,-0.86 0.32,-0.3 0.26,-0.19 1.21,-0.68 2.03,0 0.81,-0.5 0.69,-1.07 0.94,-0.28 0.53,0.38 0.21,0.32 1.55,3.35 8.97,-3.56 1.79,5.37 2.05,1.82 1.15,0.39 1.82,-0.05 0.42,0.06 0.34,0.15 0.59,1.92 0.92,7.42 -0.11,4.78 0.44,1.72 1.7,3.96 0.85,3.12 -2.05,2 -0.85,1.62 -0.44,1.56 0.03,0.7 0.2,0.44 0.32,0.15 0.58,0.19 1.9,0.36 0.9,0.06 0.9,-0.03 0.41,-0.07 2.16,-0.81 0.55,-0.04 0.63,0.12 1.22,0.59 0.34,0.49 0.09,0.42 -1.73,2.22 -2.28,2.15 -0.9,0.58 -0.36,0.16 -2.58,0.4 -0.94,0.44 0.02,2 0.5,0.95 0.26,0.3 2.02,1.89 0.27,0.6 0.06,0.47 -0.18,0.31 -0.42,0.57 -0.52,0.46 -1.85,1.09 -0.7,0.7 -1.06,2.03 -0.42,1.41 -0.33,0.21 -0.43,0.21 -1.56,0.24 -1.57,0.41 -0.59,0.62 -0.29,0.72 -0.04,17.89 0.01,1.59 -1.49,-0.24 -9.68,-0.95 -10.82,1.06 -1.62,0.49 -15.95,1.01 -18.65,-0.35 -17.06,-1.89 -21.07,-4.17 -29.62,-13.18 -0.02,-0.17 -0.14,-1.18 -0.47,-2.23 0.13,-0.67 0.3,-0.8 6.79,-10.05 1.14,-2.5 0.67,-1.09 0.73,-0.74 0.86,-1.15 0.18,-2.32 -0.32,-5.81 -0.53,-3.41 -0.07,-1.16 0.08,-1.75 0.25,-0.99 0.21,-0.48 1.45,-0.9 1.1,0.79 0.49,0.67 0.36,1.11 0.19,0.31 0.38,0.12 0.58,-0.14 0.98,-0.59 0.47,-0.41 0.28,-0.42 -0.04,-0.37 -0.13,-0.35 -0.67,-1.28 -0.27,-0.72 -0.24,-1.26 -0.08,-0.91 0.04,-0.9 0.3,-1.21 0.29,-0.68 0.19,-0.3 0.5,-0.51 3.98,-2.94 0.65,-0.35 1.14,-0.37 0.54,0.22 0.61,0.47 0.9,1.41 0.26,0.71 0.02,0.55 -1.02,1.51 -0.14,0.34 -0.1,0.38 0,0.4 0.13,0.34 0.2,0.36 0.68,0.94 0.14,0.46 0.02,0.46 -0.29,1.2 -0.04,0.43 0.04,0.42 0.14,0.42 0.29,0.46 0.6,0.57 0.7,0.43 0.54,0.23 0.91,0.15 1.39,-0.04 1.13,-0.69 2.55,-2.84 1.52,1.5 -0.7,3.46 0.89,0.22 16.31,1.21 0.86,-0.56 1.24,-2.45 0.64,-0.94 0.19,-0.57 0.15,-0.81 0.4,-6.91 0.92,-2.46 3.95,-8.15 1.95,1.44 0.35,0.33 0.65,0.32 0.63,0.09 1.27,-0.13 0.64,-0.18 0.5,-0.2 1.85,-1.07 0.35,-0.14 0.4,-0.11 0.42,-0.06 0.62,0.24 0.74,0.46 1.38,1.24 0.82,0.56 0.76,0.34 1.02,-0.09 0.52,-0.18 0.39,-0.25 0.72,-0.8 0.53,-0.43 0.35,-0.11 0.37,0.26 0.35,0.56 0.29,2.34 0.01,1.17 0.09,0.48 0.22,0.38 0.38,0.41 1,-0.5 2.67,-5.42 0.82,-2.09 0.19,-0.38 0.97,-1.22 2.92,-2.79 3.73,-2.97 4.11,3.58 1.13,1.21 0.14,0.35 0.09,0.4 1.07,2.27 1.74,2.9 0.88,1.02 0.67,0.45 z"
     title="Escuintla"
     id="GT-ES" />
  <path
     d="m 202.10741,421.07 0,0 7.2,0 2.36,0.33 4.12,1.41 5.01,1.05 1.93,0.72 -0.37,2.24 -0.08,0.36 -0.14,0.42 -0.18,0.34 -0.26,0.39 -0.49,0.44 -0.63,0.45 -1.55,0.52 -0.67,0.4 -2.13,1.68 -0.69,0.28 -0.55,0.06 -0.35,-0.15 -0.41,-0.03 -0.37,0.06 -0.33,0.16 -0.59,0.41 -0.59,0.51 -0.81,1.42 -1.3,4.33 -2.56,3.94 -2.18,4 -0.41,1.81 0.78,4.18 0.46,1.37 0.43,2.57 0.04,0.88 -0.04,0.65 -0.41,0.71 -0.84,1.06 -1.86,4.05 -3.53,2.57 -6.3,7.03 -3.03,5.85 -0.75,3.97 0.08,0.83 0.05,0.17 -3.73,2.97 -2.92,2.79 -0.97,1.22 -0.19,0.38 -0.82,2.09 -2.67,5.42 -1,0.5 -0.38,-0.41 -0.22,-0.38 -0.09,-0.48 -0.01,-1.17 -0.29,-2.34 -0.35,-0.56 -0.37,-0.26 -0.35,0.11 -0.53,0.43 -0.72,0.8 -0.39,0.25 -0.52,0.18 -1.02,0.09 -0.76,-0.34 -0.82,-0.56 -1.38,-1.24 -0.74,-0.46 -0.62,-0.24 -0.42,0.06 -0.4,0.11 -0.35,0.14 -1.85,1.07 -0.5,0.2 -0.64,0.18 -1.27,0.13 -0.63,-0.09 -0.65,-0.32 -0.35,-0.33 -1.95,-1.44 1.98,-5.37 0,-1.89 0.25,-3.25 -0.26,-1.41 -0.5,-0.66 -0.89,-0.97 -0.97,-0.89 1.16,-11.51 0.01,-3.23 0.42,-1.33 1.13,-1.59 2.87,-6.9 -0.28,-3.1 0.1,-0.51 0.92,-2.81 -2.25,-10.84 -0.35,-0.93 3.73,-1.84 1.02,-0.86 3.15,-8.92 0.89,-1.44 0.28,-0.25 0.26,-0.19 1.36,-0.67 2.39,-0.64 2.34,-1.45 2.54,0.49 9.09,-0.22 1.64,-0.36 1.93,-0.33 2.17,-0.05 6.68,1.98 z"
     title="Chimaltenango"
     id="GT-CM" />
  <path
     d="m 309.04741,265.78 0,0 0.23,-0.17 0.02,-0.04 0.08,-0.18 0.09,-0.29 0.37,-0.38 0.61,-0.35 1.53,-0.23 0.62,0.17 0.37,0.4 0.11,0.48 0.39,0.49 0.53,0.11 0.76,-0.18 0.39,-0.01 0.22,0.07 0.54,0.63 0.34,0.07 0.4,-0.08 0.39,-0.18 1.12,-0.22 0.26,-0.16 0.08,-0.09 0.01,-0.05 0,-0.15 -0.04,-0.29 -0.29,-1.14 0.04,-0.43 0.24,-0.06 0.28,0.08 1.06,0.44 0.3,0.19 0.19,0.27 0.01,0.37 -0.07,0.32 -0.1,0.27 -0.05,0.09 -0.02,0.07 0.19,0.36 0.41,0.25 0.26,0.23 0.04,0.31 -0.35,1 2.37,1.83 1.59,0.33 0.35,-0.15 0.62,-0.64 2.44,1.67 1.32,0.16 0.78,-0.12 0.34,0.19 0.42,0.59 0.48,0.87 1.82,2.49 0.37,0.86 0.22,0.72 0.65,1.29 0.5,0.45 0.48,0.17 0.38,-0.11 0.51,-0.05 0.59,0.04 2.16,0.33 4.71,-0.26 0.75,-0.21 0.26,-0.15 0.16,-0.14 0.17,-0.21 0.58,-0.84 0.24,-0.25 0.27,-0.21 0.37,-0.13 0.42,-0.01 1.22,0.11 0.39,-0.06 0.76,-0.44 0.52,-0.38 0.42,0.04 0.41,0.11 3.29,1.53 0.39,0.23 2.22,1.88 2.91,2.01 0.79,0.39 0.65,0.23 1.87,0.11 0.76,-0.18 0.35,-0.15 0.32,-0.19 1.63,-1.33 0.98,-0.05 8.66,1.14 0.53,0.01 0.41,-0.09 0.37,-0.14 0.32,-0.18 0.28,-0.22 0.62,-0.21 0.85,-0.19 1.94,-0.09 0.89,0.08 0.6,0.23 0.11,0.37 0.35,7.57 0.08,0.14 0.18,-0.02 3.7,-1.73 2.98,-0.6 2.37,1.3 1.11,0.11 1.69,-0.78 4.2,-1.06 -3.83,5.15 -1.43,1.14 -2.71,0.28 -0.49,0.26 -0.34,0.28 -0.71,1.32 -0.14,0.38 -1.7,3.11 -0.54,0.72 -0.5,0.39 -1.46,0.66 -2.33,1.66 -0.73,0.36 -1.45,0.45 -0.41,0.3 -0.29,0.36 -0.31,0.73 -8.81,12.46 -7.84,11.17 -1.03,2.44 0.38,0.11 0.62,0.38 0.28,0.23 0.28,0.31 0.2,0.26 0.53,0.88 3.09,3.33 1.11,1.67 1.22,1.35 1.83,1.68 0.5,0.79 0.2,0.57 -1.15,1.84 -0.17,0.35 -0.26,0.73 -0.4,1.61 -0.33,0.68 -0.19,0.29 -0.25,0.3 -0.25,0.25 -0.29,0.21 -2.65,1.28 -0.85,0.65 -0.23,0.27 -1.25,16.99 0.03,2.17 0.12,0.5 0.57,1.4 0.34,0.63 0.93,1.28 0.79,1.39 0.12,0.6 -0.01,0.74 -0.45,2.39 -0.03,0.8 0.03,0.62 0.27,0.76 0.62,1.36 2.51,3.59 -9.67,2.26 -4.47,-0.3 -8.89,1.36 -1.65,-0.35 -4.89,-1.88 -3.23,-0.12 -1.45,0.21 -3.84,1.72 -4.09,1.08 -2.32,0.19 -6.88,-0.79 6.18,-8.89 1.49,-4.22 0.11,-1.47 -0.27,-0.72 -0.34,-0.64 -0.65,-0.82 -1.57,-1.49 -1.04,-0.61 -0.51,-0.16 -0.47,-0.1 -6.28,0.53 -1.27,0.3 -4.58,1.83 -5.48,0.19 -15.26,-2.16 -6.72,-1.62 -1.89,-0.11 -0.6,0.42 -0.24,0.25 -0.22,0.28 -0.35,0.69 -0.12,0.32 -0.11,0.9 -1.12,4.47 -0.95,1.37 -0.67,0.58 -1.7,2.14 -0.55,0.58 -1.41,0.77 -0.55,0.07 -0.41,-0.11 -1.49,-1.49 -7.7,-5.25 -3.03,-0.96 -3.29,0.12 -4.7,-0.12 -3.19,-0.02 -3.25,-0.16 0.92,-1.25 1.31,-2.44 1.31,-3.33 0.12,-2.95 -2.22,-1.27 -21.99,-3.38 -4.37,-1.72 -2.88,-2.81 -0.71,-2.05 -0.28,-2.63 0.58,-2.28 1.88,-0.97 5.58,-0.52 1.7,-0.91 -1.12,-1.54 0,-0.99 3.91,-3.51 0.78,-0.39 1.51,-1.58 0.95,-1.72 -0.9,-0.81 -0.74,-1.34 -0.95,-2.98 -1.41,-3.02 -2.11,-1.49 1.22,-2.36 -0.11,-2.07 -1.4,-1.88 -2.66,-1.71 -0.06,-0.68 0.21,-0.19 0.4,0 0.49,-0.12 -1.14,-0.69 -1.28,-0.23 -1.28,0.23 -1.15,0.69 -1.68,-0.92 -5.92,-1.74 -5.21,-0.89 -1.06,-1.39 0.52,-1.64 1.89,-1.35 -0.79,-0.48 -2.07,-1.59 0,-0.9 0.69,-0.24 0.62,-0.53 0.68,-0.31 -0.93,-1.31 -1.33,-0.7 -1.63,-0.19 -1.83,0.21 0.88,-2.1 3.8,-4.84 1.86,-5.09 0.57,-0.86 3.4,-1.34 1.45,-2.84 -0.85,-2.49 -3.48,-0.37 1.36,-4.83 1.08,-2.11 1.38,-1 0,-0.99 -0.72,-0.13 -0.11,-0.15 0.04,-0.26 -0.25,-0.46 -0.96,1 -1.24,-1.4 -0.58,-0.5 0,-1.08 1.87,-0.45 2.2,-1.83 1.57,-0.7 0.35,0.46 0.45,0.96 0.66,0.61 0.97,-0.59 0.51,-1.21 -0.26,-0.76 -0.02,-0.63 1.25,-0.83 -1.04,-1.98 5.94,-3.24 3.62,-0.79 1.98,2.04 0.95,0 0.45,-1.16 0.64,-0.55 0.81,0.04 0.96,0.59 0,1.08 -0.62,0.28 -0.69,0.41 -0.68,0.22 0,1.08 2.35,-0.12 1.41,0.83 1.24,1.21 1.85,0.97 0.42,-0.47 0.91,-0.79 0.58,-0.64 0.24,0.9 0.15,0.04 0.18,-0.44 0.3,-0.5 1,0.98 0.46,-0.08 0.53,-0.9 0.96,0 1.45,0.66 2.71,-1.71 1.65,1.05 0.87,0 0.21,-0.72 0.48,-0.63 0.27,-0.72 1.67,0.62 1.43,-0.6 0.6,-1.34 -0.84,-1.57 1.18,-1.63 0.29,-1.38 -0.69,-1.13 -1.65,-0.87 0.01,0 0.04,-0.06 3.79,-0.39 28.51,4.39 23.79,7.67 0.91,0.09 z"
     title="Alta Verapaz"
     id="GT-AV" />
  <path
     d="m 36.04741,370.44 0,0 0.38,-0.48 4.71,-5.47 1.91,-1.23 4.56,-0.35 4.24,-2.66 2.38,-1.46 0.94,-0.35 0.92,-0.08 1.23,0.57 4.75,3.01 2.97,0.23 7.62,-2.18 2.15,-0.02 0.1,0.55 0.69,1.94 1.97,3.6 2.32,3.22 2.58,2.81 2.76,2.34 1.38,0.97 1.4,1.36 0.72,1.94 -0.64,2.74 -0.88,0.92 -4.84,3.94 -2.55,2.75 -2.69,3.92 -1.29,4.33 1.67,4.01 2.66,2.24 0.57,2.33 -0.89,6.19 -0.52,1.48 -1.15,1.55 -4.08,4.01 -1.08,0.48 -1.11,0.68 -0.18,0.39 -0.18,0.59 0.1,1.01 -0.23,1.39 -1.28,1.77 -0.93,5.42 -1.05,1.89 -0.24,0.36 -3.76,8.01 -0.15,0.44 -0.33,0.54 -0.52,0.53 -1.85,1.37 -0.63,0.72 -0.34,0.48 -1.81,3.33 -1.37,0.88 -1.22,0.49 -1.41,0.14 -3.92,-0.23 -8.76,-0.94 -12.28,3.56 -3,0.57 -1.63,0.83 -3.81,3.09 -4.81,5.55 -0.54,0.88 0.17,0.42 0.43,0.43 1.2,0.46 0.74,0.19 8.26,0.86 1.2,0.29 0.36,0.17 1.27,2.48 3.33,9.86 -4.17,1.05 -1.22,0.57 -1.56,1.73 -0.55,0.39 -0.51,0.22 -0.4,0.05 -0.43,-0.02 -0.4,-0.06 -0.73,-0.27 -1.33,-0.28 -1.4,-0.09 -0.68,0.14 -0.47,0.19 -1.25,1.15 -1.24,0.88 -0.7,0.32 -0.7,0.05 -1.46,-0.36 -0.56,0.11 -0.38,0.13 -0.23,0.39 0,0.01 -11.73,-8.51 2.82,-0.44 2.52,-3.06 3.07,-8.53 2.99,-5.58 0.55,-2.21 -0.13,-2.73 -2.47,-7.11 -0.1,-1.05 0.18,-2.11 -0.08,-1.13 -1.3,-3.57 -0.3,-1.2 -0.12,-3.05 0.68,-1.73 2.91,-3.41 1.58,-4.33 -0.4,-9.01 0.47,-4.76 1.66,-1.67 1.74,-0.5 1.8,-0.21 1.84,-0.79 1.43,-1.68 2.77,-6.41 -18.11,-23.67 -1.06,-2.35 -0.05,-2.71 0.93,-2.53 2.58,-4.47 6.81,-11.81 4.41,-7.63 0.86,3.02 2.42,3.05 2.08,0.79 0.36,2.16 1.37,15.04 1.56,1.21 7.14,0.33 z"
     title="San Marcos"
     id="GT-SM" />
  <path
     d="m 81.75741,459.56 0,0 1.31,-1.25 0.41,-0.97 0.29,-0.21 0.47,-0.21 0.81,0.24 0.86,0.49 0.39,0 0.49,-0.18 1.05,-1.16 0.7,-0.99 0.14,-0.31 0.8,-1.24 0.48,-0.51 0.38,-0.16 0.52,-0.04 1.46,0.38 0.84,0.31 0.76,0.18 0.46,0.02 0.68,-0.22 0.83,-0.41 2.85,-1.94 0.86,-0.26 1.69,0.14 2.21,0.94 -4.21,3.73 -3.17,3.59 -0.37,0.57 -0.43,0.88 -0.09,0.41 -0.08,1.63 0.11,1.84 0.08,1.42 -5.52,11.33 -0.06,0.9 0.01,0.47 0.06,0.42 -1.11,8.46 0.11,0.87 0.21,0.75 0.28,0.72 1.77,3.17 0.08,1.07 -0.64,9.39 0.09,1.92 -0.07,0.94 -0.11,0.66 -1.59,2.37 -1.74,5.32 -0.65,4.3 -0.29,4.74 -0.16,0.91 -0.15,0.32 -3.99,5.94 0.83,5.76 0.11,1.17 -14.55,-9.06 -20.36,-14.95 -19.77,-17.92 -15.76,-11.45 0,-0.01 0.23,-0.39 0.38,-0.13 0.56,-0.11 1.46,0.36 0.7,-0.05 0.7,-0.32 1.24,-0.88 1.25,-1.15 0.47,-0.19 0.68,-0.14 1.4,0.09 1.33,0.28 0.73,0.27 0.4,0.06 0.43,0.02 0.4,-0.05 0.51,-0.22 0.55,-0.39 1.56,-1.73 1.22,-0.57 4.17,-1.05 1.13,-0.79 0.73,-0.32 0.34,-0.06 0.58,0.16 8.22,3.54 1.58,0.25 4.08,-0.37 5.83,-1.32 4.36,-6.56 1.37,-1.6 0.31,-0.6 0.33,-0.94 0.49,-2.07 0.48,-1.32 0.62,-1.31 2.51,-3.77 0.62,-1.38 1.22,-3.97 0.93,-1.49 5.01,-2.45 1.89,-2.09 1.04,-0.89 0.59,-0.4 0.38,-0.21 0.42,-0.17 0.6,-0.09 0.48,0.03 0.37,0.13 0.24,0.36 0.16,0.31 -0.21,1.77 -2,4.77 -0.4,2.53 0.37,0.41 0.7,0.36 1.74,0.32 0.81,0.24 1.1,0.06 z"
     title="Retalhuleu"
     id="GT-RE" />
  <path
     d="m 102.32741,388.1 0,0 -2.44,0.8 -7.15,2.82 -0.31,0.16 -0.31,0.2 -0.28,1.19 0.72,4.18 3.44,13.16 0.55,2.11 1.04,1.4 2.34,2.12 -0.04,1.69 -0.28,0.77 -0.01,0.9 0.26,0.97 2.22,2.63 0.18,0.3 0.21,0.3 0.95,0.32 2.71,-0.32 2.96,-0.12 1.2,2.82 0.43,4.34 1.52,1.4 2.75,4.82 -1.7,5.67 -4.09,5.62 -5.7,3.85 -2.21,-0.94 -1.69,-0.14 -0.86,0.26 -2.85,1.94 -0.83,0.41 -0.68,0.22 -0.46,-0.02 -0.76,-0.18 -0.84,-0.31 -1.46,-0.38 -0.52,0.04 -0.38,0.16 -0.48,0.51 -0.8,1.24 -0.14,0.31 -0.7,0.99 -1.05,1.16 -0.49,0.18 -0.39,0 -0.86,-0.49 -0.81,-0.24 -0.47,0.21 -0.29,0.21 -0.41,0.97 -1.31,1.25 -1.1,-0.06 -0.81,-0.24 -1.74,-0.32 -0.7,-0.36 -0.37,-0.41 0.4,-2.53 2,-4.77 0.21,-1.77 -0.16,-0.31 -0.24,-0.36 -0.37,-0.13 -0.48,-0.03 -0.6,0.09 -0.42,0.17 -0.38,0.21 -0.59,0.4 -1.04,0.89 -1.89,2.09 -5.01,2.45 -0.93,1.49 -1.22,3.97 -0.62,1.38 -2.51,3.77 -0.62,1.31 -0.48,1.32 -0.49,2.07 -0.33,0.94 -0.31,0.6 -1.37,1.6 -4.36,6.56 -5.83,1.32 -4.08,0.37 -1.58,-0.25 -8.22,-3.54 -0.58,-0.16 -0.34,0.06 -0.73,0.32 -1.13,0.79 -3.33,-9.86 -1.27,-2.48 -0.36,-0.17 -1.2,-0.29 -8.26,-0.86 -0.74,-0.19 -1.2,-0.46 -0.43,-0.43 -0.17,-0.42 0.54,-0.88 4.81,-5.55 3.81,-3.09 1.63,-0.83 3,-0.57 12.28,-3.56 8.76,0.94 3.92,0.23 1.41,-0.14 1.22,-0.49 1.37,-0.88 1.81,-3.33 0.34,-0.48 0.63,-0.72 1.85,-1.37 0.52,-0.53 0.33,-0.54 0.15,-0.44 3.76,-8.01 0.24,-0.36 1.05,-1.89 0.93,-5.42 1.28,-1.77 0.23,-1.39 -0.1,-1.01 0.18,-0.59 0.18,-0.39 1.11,-0.68 1.08,-0.48 4.08,-4.01 1.15,-1.55 0.52,-1.48 0.89,-6.19 -0.57,-2.33 -2.66,-2.24 -1.67,-4.01 1.29,-4.33 2.69,-3.92 2.55,-2.75 4.84,-3.94 0.88,-0.92 0.64,-2.74 9.4,2.44 1.05,0.86 -0.05,1.42 0.47,1.35 2.73,3.33 z"
     title="Quezaltenango"
     id="GT-QZ" />
  <path
     d="m 432.01741,0.5 0,0 0.6,31.71 0.77,40.63 0.21,41.66 -2.36,37.88 -2.56,41.02 -1.22,15.05 -2.15,30.08 -3.58,33.63 -0.27,7.04 -0.09,-0.08 -0.1,-0.1 -0.72,-0.55 -3.28,-0.46 -12.86,0.26 -1.61,1.64 -0.9,2.38 -0.25,1.01 -0.17,0.48 -0.24,0.49 -0.55,0.54 -1.64,0.97 -4.2,1.06 -1.69,0.78 -1.11,-0.11 -2.37,-1.3 -2.98,0.6 -3.7,1.73 -0.18,0.02 -0.08,-0.14 -0.35,-7.57 -0.11,-0.37 -0.6,-0.23 -0.89,-0.08 -1.94,0.09 -0.85,0.19 -0.62,0.21 -0.28,0.22 -0.32,0.18 -0.37,0.14 -0.41,0.09 -0.53,-0.01 -8.66,-1.14 -0.98,0.05 -1.63,1.33 -0.32,0.19 -0.35,0.15 -0.76,0.18 -1.87,-0.11 -0.65,-0.23 -0.79,-0.39 -2.91,-2.01 -2.22,-1.88 -0.39,-0.23 -3.29,-1.53 -0.41,-0.11 -0.42,-0.04 -0.52,0.38 -0.76,0.44 -0.39,0.06 -1.22,-0.11 -0.42,0.01 -0.37,0.13 -0.27,0.21 -0.24,0.25 -0.58,0.84 -0.17,0.21 -0.16,0.14 -0.26,0.15 -0.75,0.21 -4.71,0.26 -2.16,-0.33 -0.59,-0.04 -0.51,0.05 -0.38,0.11 -0.48,-0.17 -0.5,-0.45 -0.65,-1.29 -0.22,-0.72 -0.37,-0.86 -1.82,-2.49 -0.48,-0.87 -0.42,-0.59 -0.34,-0.19 -0.78,0.12 -1.32,-0.16 -2.44,-1.67 -0.62,0.64 -0.35,0.15 -1.59,-0.33 -2.37,-1.83 0.35,-1 -0.04,-0.31 -0.26,-0.23 -0.41,-0.25 -0.19,-0.36 0.02,-0.07 0.05,-0.09 0.1,-0.27 0.07,-0.32 -0.01,-0.37 -0.19,-0.27 -0.3,-0.19 -1.06,-0.44 -0.28,-0.08 -0.24,0.06 -0.04,0.43 0.29,1.14 0.04,0.29 0,0.15 -0.01,0.05 -0.08,0.09 -0.26,0.16 -1.12,0.22 -0.39,0.18 -0.4,0.08 -0.34,-0.07 -0.54,-0.63 -0.22,-0.07 -0.39,0.01 -0.76,0.18 -0.53,-0.11 -0.39,-0.49 -0.11,-0.48 -0.37,-0.4 -0.62,-0.17 -1.53,0.23 -0.61,0.35 -0.37,0.38 -0.09,0.29 -0.08,0.18 -0.02,0.04 -0.23,0.17 -0.91,-0.09 -23.79,-7.67 -28.51,-4.39 -3.79,0.39 0.52,-0.73 0.94,-2.06 0.41,-1.21 -0.8,0.33 -0.35,0.1 -0.25,0.14 -0.51,0.51 -1.04,0 -0.54,-2.48 3.38,-2.84 -1.8,-1.73 0,-0.91 3.08,-1.27 -0.92,-1.46 -4.07,-2.32 -0.53,-2.76 0.99,-1.99 1.72,-1.32 1.64,-0.8 -1.89,-0.75 -1.37,-1.12 -0.23,-1.44 1.58,-1.75 0.62,0.61 0.43,0.23 1.81,0.25 -0.52,-0.78 -0.85,-1.62 -0.53,-0.77 0.63,0.07 0.18,-0.2 0,-0.37 0.14,-0.41 0.83,0.58 1.16,0.33 0.87,-0.36 0,-1.54 -0.86,0.35 -2.03,-0.76 -1.42,-1.04 0.98,-0.54 2.57,-0.84 2.07,-1.99 0.82,-2.34 -1.17,-1.88 -0.96,0 0,1.08 -0.95,0 0.36,-2.06 1.33,-0.75 1.9,0.13 2.14,0.61 -1.61,-2.73 -0.19,-0.83 -0.03,-1.92 -0.28,-2.09 -0.79,-0.2 -1.24,0.57 -1.59,0.22 -0.82,-0.37 -1.04,-0.69 -1.43,-0.64 -4.4,-0.57 -0.36,-0.83 0.19,-1.25 -0.73,-1.61 -0.83,-0.81 -1.33,-0.94 -1.56,-0.44 -3.36,1.62 -0.86,-1.3 -0.65,-3.11 -1.35,-0.01 -3.63,1.09 -0.75,0.37 -0.83,-0.46 -1.96,-0.4 -2.25,-0.09 -1.72,0.5 0.73,-1.39 1.24,-1.05 0.97,-1.1 -0.08,-1.53 -1.61,-0.99 -2.15,-0.14 -1.21,-0.54 1.15,-2.23 -0.5,-2.35 0.91,-2.47 0.45,-2.08 -1.9,-1.15 -0.4,0.97 -0.47,0.48 -0.73,0.24 -1.17,0.21 0,-0.9 1.84,-3.42 -1.91,-5.24 -9.45,-13.72 -2.03,-1.62 -5,-2.53 -2.07,-1.73 0.48,-1.73 0,-0.99 -1.91,-1.09 -1.31,1.11 -1.64,-0.02 -9.63,-3 -2.58,-1.51 -4.07,-4.14 -2.9,-1.42 2.26,-2.41 -0.34,-1.15 -1.91,-0.33 -2.43,-0.01 -0.24,0.61 0.51,1.34 0.14,1.34 -1.37,0.61 -0.73,-0.4 -1.76,-1.92 -0.81,-0.67 -5.35,-1.92 -1.66,-1.49 -0.63,-3.03 -0.78,-1.54 -4.94,-5.99 -0.54,-1.29 -0.71,-2.79 -0.75,-0.91 -1.48,-0.28 -3.37,0.37 -1.39,-0.59 -4.97,-5.46 -1.29,-2.03 -0.6,-1.47 -0.71,-2.59 -0.59,-1.02 -1.29,-0.77 -2.85,-0.75 -0.55,-0.93 -0.28,-2.27 -0.8,-2.64 -1.21,-2.31 -1.53,-1.32 -3.82,-0.2 -3.74,0.6 -2.85,-0.5 -1.12,-3.48 -2.16,-1.18 -4.32,-0.9 -3.25,-1.49 0.6,-2.3 0.69,-0.13 0.35,-0.06 61.34,0.44 0.08,-40.28 0.08,-40.35 1.12,-1.26 2.89,-0.81 6.02,0 30.74,0.03 30.72,0.03 30.73,0.04 30.74,0.03 30.72,0.02 30.74,0.04 30.73,0.03 30.73,0.03 z"
     title="Petén"
     id="GT-PE" />
  <path
     d="m 138.13741,319.8 0,0 -0.9,0 -0.43,0.06 -0.37,0.1 -0.33,0.17 -1.72,1.49 -0.58,0.19 -0.53,0.08 -0.44,-0.04 -0.39,0.28 -0.32,0.59 -0.2,1.75 -0.37,1.37 -0.81,1.63 -0.46,0.7 -0.32,0.84 -0.15,0.51 -0.19,3.37 -0.78,1.31 -0.28,0.7 -0.08,0.39 -0.07,0.46 0,0.45 0.1,0.9 0.1,0.39 0.13,0.38 0.31,0.66 0.19,0.29 0.15,0.33 0.42,0.65 2.8,3.39 0.23,0.45 0.1,0.45 0.01,1.84 0.16,0.81 0.59,1.4 0.81,1.25 0.87,0.98 2.63,2.47 0.55,0.12 0.79,0.02 4.09,-0.5 1.77,0.36 3.87,1.81 0.31,2.62 -1.21,5.19 0.14,0.83 0.81,2.17 0.69,2.9 -2.16,0.5 -1.23,0.13 -3.42,-0.62 -1.26,0.03 -3.17,1.06 -6.07,1.12 -1.11,0.76 -0.63,1.23 -3.6,-0.25 -1.64,0.3 -3.37,1.52 -2.17,1.61 -6.06,1.41 -1.4,0.39 -0.7,0.35 -0.5,0.54 -1.84,2.72 -0.83,1.63 -0.1,0.38 -0.31,3.64 -0.09,0.45 -0.61,0.35 -0.52,0.24 -4.71,0.25 -2.73,-3.33 -0.47,-1.35 0.05,-1.42 -1.05,-0.86 -9.4,-2.44 -0.72,-1.94 -1.4,-1.36 -1.38,-0.97 -2.76,-2.34 -2.58,-2.81 -2.32,-3.22 -1.97,-3.6 -0.69,-1.94 -0.1,-0.55 -2.15,0.02 -7.62,2.18 -2.97,-0.23 -4.75,-3.01 -1.23,-0.57 -0.92,0.08 -0.94,0.35 -2.38,1.46 -4.24,2.66 -4.56,0.35 -1.91,1.23 -4.71,5.47 -0.38,0.48 -7.14,-0.33 -1.56,-1.21 -1.37,-15.04 -0.36,-2.16 -2.08,-0.79 -2.42,-3.05 -0.86,-3.02 5.23,-9.06 11.03,-19.17 11.05,-19.16 9.63,-16.73 6.81,-11.85 2.59,-4.49 3.15,-5.51 1.69,-2.13 2.24,-1.14 6.35,-0.01 19.28,-0.04 19.27,-0.02 19.27,-0.03 19.27,-0.04 18.47,-0.01 -17.14,34.25 -1.36,2.66 -9.1,18.62 -0.33,0.47 -2.61,2.53 0.17,0.96 0.17,0.25 0.11,0.35 -0.28,0.25 -0.51,0.19 -1.21,0.12 -0.57,0.13 -0.56,0.8 -3.77,2.68 -0.46,0.09 z"
     title="Huehuetenango"
     id="GT-HU" />
  <path
     d="m 303.74741,371.75 0,0 5.48,-0.19 4.58,-1.83 1.27,-0.3 6.28,-0.53 0.47,0.1 0.51,0.16 1.04,0.61 1.57,1.49 0.65,0.82 0.34,0.64 0.27,0.72 -0.11,1.47 -1.49,4.22 -6.18,8.89 -3.76,2.09 -5.39,3.67 -11.94,8.04 -22.18,15.45 -2.22,7.06 -0.69,2.33 -7.12,1.17 -4.62,-0.83 -1.76,-1.71 -0.61,-1.7 -1.09,-0.9 -2.27,0.44 -1.16,0.84 -0.33,0.83 -0.57,0.72 -1.85,0.49 -1.61,0.13 -1.35,-0.15 -1.05,-0.63 -0.67,-1.33 -1.04,0 -2.26,1.3 -3.56,1.27 -3.51,0.73 -2.13,-0.33 -0.87,0 -0.63,0.35 -0.59,0.18 -0.74,-0.32 -1.07,-1.2 -2.08,0.4 -4.98,-1.83 -1.59,-3.71 -0.63,-1.37 -1.03,-0.96 -0.92,-0.61 -0.96,-0.83 -2.5,-2.62 0.62,-3.15 0.07,-0.68 -12.58,-7.92 -10.44,-13.54 0.87,-15.7 1.16,0.6 23.18,5.47 16.39,0.72 4.62,-0.37 5.24,-7.2 3.25,0.16 3.19,0.02 4.7,0.12 3.29,-0.12 3.03,0.96 7.7,5.25 1.49,1.49 0.41,0.11 0.55,-0.07 1.41,-0.77 0.55,-0.58 1.7,-2.14 0.67,-0.58 0.95,-1.37 1.12,-4.47 0.11,-0.9 0.12,-0.32 0.35,-0.69 0.22,-0.28 0.24,-0.25 0.6,-0.42 1.89,0.11 6.72,1.62 15.26,2.16 z"
     title="Baja Verapaz"
     id="GT-BV" />
</svg>
