<?xml version="1.0" encoding="UTF-8" standalone="no"?>
<!-- Created for MapSVG plugin: http://mapsvg.com -->
<svg
   xmlns:mapsvg="http://mapsvg.com"
   xmlns:dc="http://purl.org/dc/elements/1.1/"
   xmlns:rdf="http://www.w3.org/1999/02/22-rdf-syntax-ns#"
   xmlns:svg="http://www.w3.org/2000/svg"
   xmlns="http://www.w3.org/2000/svg"
   mapsvg:geoViewBox="-74.480910 20.089566 -71.621754 18.020528"
   width="774.57153"
   height="593.52094">
  
  <path
     d="m 565.23995,492.6908 0,0 7.86,-0.61 3.3,4.54 3.75,4.22 22.48,1.36 23.14,-1.45 23.6,4.86 23.47,5.34 22.84,-0.3 18.3,1.42 14.05,8.77 23.76,-4.13 0.25,-0.04 -0.16,0.28 -12.07,20.8 -2.14,5.37 -0.76,5.63 0.41,2.7 2.92,8.19 0.64,3.2 -0.18,4.75 0.6,8.3 -0.98,4.95 -3.25,8.63 -4.44,-3.03 -18.98,-24.76 -8.28,-7.5 -9.54,-6 -21.36,-7.34 -8.84,-4.63 -8.82,-3.4 -10.57,-0.02 -21.68,3.65 -28.25,-0.27 -39.58,0.53 -21.32,3.88 -5.46,-2.88 -3.27,-1.24 -1.45,1.12 1.83,11 -2.56,2.81 -3.18,0.07 -7.41,-2.88 -4.16,-0.75 -31.93,2.94 -6.55,-0.42 0.54,1.32 0.78,3.22 0.53,1.31 -4.03,-0.29 -1.61,-0.44 -1.93,-1.4 -7.51,4.86 -14.98,-1.47 -7.34,2.82 -7.14,-4.14 -9.59,-3.76 -10.28,-2.74 -6.16,-0.69 0.3,-1.4 -0.85,-4.98 -0.65,-5 -0.54,-6.28 -0.02,-6.28 3.48,-8.09 1.08,-8.48 3.91,5.2 3.26,6.28 5.76,-0.78 7.23,-1.6 4.24,0.3 4.01,0.23 3.07,4.5 5.85,2.97 3.07,-3.31 4.59,-2.77 9.22,3.14 8.98,2.27 2.12,-4.02 3.31,-2.61 1.49,-3.57 0.73,-4.11 4.26,2.34 4.72,0.68 2.97,-2.82 3.17,-2.72 5.28,-0.22 5.19,-0.69 3.08,-2.63 3.61,-0.44 6.28,-0.78 6.67,-2.87 3.28,-0.11 2.74,-2.1 6.71,-8.07 9.01,-4.23 9.78,0.62 7.12,3.54 5.18,2.63 z"
     title="Sud-Est"
     id="HT-SE" />
  <path
     d="m 453.48995,400.2108 0,0 -2.9,1.21 -1.92,-1.76 -2.43,-5.15 -2.32,-2.05 -2.08,-0.56 -6.12,-0.4 -24.2,-5.41 -8.27,-0.64 -8.68,-2.14 -23.94,-15.5 -24.18,-6.6 -6.49,-4.27 -5.47,-7.74 -5.08,-3.62 -1.42,-1.26 -1.99,-2.5 -1.8,-2.96 -0.84,-3.16 0.93,-3.16 3.36,-3.78 4.75,-3.21 5.53,-2.17 5.84,-0.82 6.43,0.74 37.71,15.9 18.61,6.11 20.69,10.5 19.32,8.14 7.88,9.74 2.06,6.21 0.97,7.4 -0.77,7.25 -3.18,5.66 z m 77.25,-74.53 0,0 6.38,0.75 6.73,-0.32 2.93,4.16 2.72,4.42 6.78,2.94 7.17,2.9 7.31,5.37 6.37,6.59 7.09,9.52 8.91,5.63 9.26,2.35 8.1,5.6 16.35,16.2 20.71,7.16 21.51,-7.03 21.85,-4 9.26,3.23 9.12,3.32 11.37,2.98 10.27,6.13 1.83,2.24 0.09,0.12 -0.7,0.43 -3.7,4.16 -5.59,9.56 -3.54,3.82 -10.51,3.6 -20.42,-3.78 -10.09,2.14 -4.67,3.53 2.41,4.69 24.56,25.26 1.76,2.71 0.67,4.3 -1.44,1.57 -2.04,1.17 -1.02,3.14 1.62,5.3 4.07,2.24 10.6,2.67 2.29,2.04 4.12,6.11 2.21,2.55 10.24,6.86 14.6,5.51 3.87,2.57 2.5,2.24 0.59,0.83 -3.2,5.51 -0.25,0.04 -23.76,4.13 -14.05,-8.77 -18.3,-1.42 -22.84,0.3 -23.47,-5.34 -23.6,-4.86 -23.14,1.45 -22.48,-1.36 -3.75,-4.22 -3.3,-4.54 -7.86,0.61 -5.18,-2.63 -7.12,-3.54 -9.78,-0.62 -9.01,4.23 -6.71,8.07 -2.74,2.1 -3.28,0.11 -6.67,2.87 -6.28,0.78 -3.61,0.44 -3.08,2.63 -5.19,0.69 -5.28,0.22 -3.17,2.72 -2.97,2.82 -4.72,-0.68 -4.26,-2.34 -0.73,4.11 -1.49,3.57 -3.31,2.61 -2.12,4.02 -8.98,-2.27 -9.22,-3.14 -4.59,2.77 -3.07,3.31 -5.85,-2.97 -3.07,-4.5 -4.01,-0.23 -4.24,-0.3 -7.23,1.6 -5.76,0.78 -3.26,-6.28 -3.91,-5.2 -4.26,-5.37 -2,-6.95 -4.69,-4.75 -6.79,-0.28 -0.61,-7.69 4.22,-7.14 -0.13,-3.46 -1.55,-3.2 0,0 19.1,-3.42 23.52,5.7 -1.4,4.68 5.18,-1.01 7.27,-2.58 4.8,-0.02 3.96,1.7 19.3,3.27 10.46,-2.39 7.37,-6.27 5.43,-8.82 4.55,-10.06 6.6,-8.18 8.62,-1.93 45.29,4.06 1.65,-0.61 0.69,-1.35 0.45,-1.35 0.92,-0.61 1.71,0.35 0.79,0.73 0.53,0.72 0.86,0.34 5.65,6.36 2.6,1.47 4.77,-1.29 2.21,-4.81 0.62,-6.66 -0.45,-17.45 0.45,-3.23 1.9,-3.88 2.1,-2.31 0.98,-2.15 -1.45,-3.41 -2.45,-1.76 -12.4,-6.07 -3.33,-0.58 -6.61,-0.21 -3.19,-0.98 -5.51,-4.75 -4.89,-5.95 -5.25,-4.14 -6.6,0.77 -9.28,-5.68 -2.32,-2.58 -2.29,-5.45 -13.92,-21.73 -3.85,-3.94 -5.43,-4.46 -5.72,-3.64 -4.64,-1.5 -4.33,-2.22 0.01,-0.01 3.8,-4.85 4.55,-3.35 17.31,0.65 20.51,2.92 z"
     title="Ouest"
     id="HT-OU" />
  <path
     d="m 663.28995,109.3508 0,0 0,0.01 -1.31,2.71 -1.03,2.18 -1.21,11.11 -5.8,8.56 -4.36,0.92 -3.29,2.18 0.2,3.96 -1.07,3.66 0.81,6.78 3.66,6.81 2.77,8.51 4.64,7.51 -0.85,7.63 -2.69,4.25 4.99,1.36 5.07,1.49 13.7,13.95 4.52,14.84 -19.57,10.04 -18.77,11.74 -5.27,0.51 -2.49,-3.76 -5.95,-5.96 -8.02,-2.83 -2.84,-7.75 -4.53,-8.18 -1.29,-8.19 1.4,-7.98 -4.57,-10.28 -10.91,-5.37 -10.48,-9.76 -1.31,-18.3 -5.23,-2.68 -3.95,-2.02 -4.66,0.41 -5.01,4.81 -5.41,-0.17 -0.02,7.46 -8.16,2.62 -9.7,-4.05 -8.22,-6.64 -7.52,-7.45 -4.48,-11.74 -3.74,-11.48 -6.57,-2.83 -3.39,-4.95 2.56,-9.75 -5.66,-4.2 -5.86,0.8 -0.79,-6.44 -5.58,-4.4 -3.22,-6.98 -0.07,-1.74 0.9,-3.46 3.79,-1.03 4.35,1.13 2.68,1.72 2.87,0.35 3.56,-3.13 3.03,-2.86 2.25,-1.76 1.74,-3.49 2.7,-4.06 2.19,-1.58 0,0 5.65,7.06 7.28,4.95 7.55,2.73 4.16,-2.71 4.95,2.66 8.22,3.19 7.7,1.97 3.39,-1.01 1.73,4.56 13.12,12.28 0,1.81 -1.3,-0.58 -4.26,-1.23 3.43,8.41 1.2,1.27 4.8,1.08 1.02,-0.38 -1.02,-2.5 3.55,-4.12 -0.89,-0.05 -1.77,0.14 -0.89,-0.09 0.07,-0.35 0.56,-1.22 0.67,-0.94 0.39,0.56 0,-1.81 -0.63,-0.89 -1.06,-3.03 1.69,0 4.04,2.21 5.55,0.52 4.95,-1.62 2.16,-4.25 2.73,-2.85 5.36,-0.14 3.65,3.1 -2.31,6.95 4.61,2.77 4.44,0.47 10.74,-1.9 0.93,0.07 1.52,0.4 1.88,1.27 3.91,3.97 2.63,0.83 9.37,0 2.2,0.62 1.21,1.35 0.86,1.35 0.73,0.36 z"
     title="Nord"
     id="HT-ND" />
  <path
     d="m 742.17995,109.9108 0,0 2.39,7.93 0.97,5.11 -0.27,4.58 -0.45,7.56 1.25,6.55 7.6,18.05 3.24,22.52 -0.19,12.86 -3.1,6.61 -1.5,1.65 -3.44,8.77 -2.58,2.04 -7.32,4.2 -1.79,1.81 1.35,5.74 4.84,6.84 1.15,1.17 -0.13,0.02 -9.21,1.2 -9.6,-0.83 -5,0.36 -6.19,-1.19 -7.38,-1.04 -5.05,-4.28 -10.06,-4.61 -9.67,-5.76 -4.52,-14.84 -13.7,-13.95 -5.07,-1.49 -4.99,-1.36 2.69,-4.25 0.85,-7.63 -4.64,-7.51 -2.77,-8.51 -3.66,-6.81 -0.81,-6.78 1.07,-3.66 -0.2,-3.96 3.29,-2.18 4.36,-0.92 5.8,-8.56 1.21,-11.11 1.03,-2.18 1.31,-2.71 0,-0.01 1.81,0.89 3.69,2.7 2.48,0.62 2.1,-0.99 1.38,-2.14 1.73,-2.09 3.12,-0.87 5.16,-3.97 7.7,0.06 13.28,3.91 7.3,1.01 1.94,1.45 -1.65,3.63 -2.35,1.54 -3.23,0.54 -7.58,-0.11 2.85,5.28 4.71,0.55 5.11,-1.43 4.02,-0.65 4.91,4.14 3.02,1.9 1.34,-0.92 1.46,-3.95 -0.59,-2.07 -5.99,-1.57 -1.92,-1.77 -0.97,-2.54 0.44,-2.88 2.08,-1.8 3.1,0.21 7.03,1.59 11.41,0.29 z"
     title="Nord-Est"
     id="HT-NE" />
  <path
     d="m 720.38995,234.6508 0,0 5,-0.36 9.6,0.83 9.21,-1.2 0.13,-0.02 8.96,9.19 17.59,8.59 3.43,1.67 -1.24,17.14 -1.39,4.94 -3.42,5.09 -9.21,6.63 -4.11,3.7 -8.12,11.43 -11.78,13.09 -3.56,2.21 -13.94,3.77 -4.69,3.18 0.8,4.97 4.87,-0.76 6.75,-2.32 6.36,0.22 2.49,2.02 3.84,8.13 2.49,2.93 6.21,5.71 2.02,2.6 1.51,5.3 0.28,11.64 2.19,11.27 -0.41,5.39 -1.34,5.3 -1.85,4.84 -3.25,5.35 -3.81,3.13 -7.28,4.53 -1.87,1.16 -0.09,-0.12 -1.83,-2.24 -10.27,-6.13 -11.37,-2.98 -9.12,-3.32 -9.26,-3.23 -21.85,4 -21.51,7.03 -20.71,-7.16 -16.35,-16.2 -8.1,-5.6 -9.26,-2.35 -8.91,-5.63 -7.09,-9.52 12.7,-0.77 12.89,1.51 6.38,-3.65 1.03,-8.87 3.73,-9.33 -0.78,-7.61 -1.65,-14.37 3.74,-14.59 -1.84,-8.51 -0.59,-6.98 2.54,-6.12 -7.3,-7.31 1.55,-20.82 12.44,-17.56 8.02,2.83 5.95,5.96 2.49,3.76 5.27,-0.51 18.77,-11.74 19.57,-10.04 9.67,5.76 10.06,4.61 5.05,4.28 7.38,1.04 6.19,1.19 z"
     title="Centre"
     id="HT-CE" />
  <path
     d="m 492.82995,82.0208 0,0 3.22,6.98 5.58,4.4 0.79,6.44 5.86,-0.8 5.66,4.2 -2.56,9.75 3.39,4.95 6.57,2.83 3.74,11.48 4.48,11.74 7.52,7.45 8.22,6.64 9.7,4.05 8.16,-2.62 0.02,-7.46 5.41,0.17 5.01,-4.81 4.66,-0.41 3.95,2.02 5.23,2.68 1.31,18.3 10.48,9.76 10.91,5.37 4.57,10.28 -1.4,7.98 1.29,8.19 4.53,8.18 2.84,7.75 -12.44,17.56 -1.55,20.82 7.3,7.31 -2.54,6.12 0.59,6.98 1.84,8.51 -3.74,14.59 1.65,14.37 0.78,7.61 -3.73,9.33 -1.03,8.87 -6.38,3.65 -12.89,-1.51 -12.7,0.77 -6.37,-6.59 -7.31,-5.37 -7.17,-2.9 -6.78,-2.94 -2.72,-4.42 -2.93,-4.16 -6.73,0.32 -6.38,-0.75 -20.51,-2.92 -17.31,-0.65 -4.55,3.35 -3.8,4.85 -0.01,0.01 -0.73,-0.37 -28.46,-30.84 -1.31,-7.37 11.49,-4.67 10.42,-0.7 5.76,-1.93 2.52,-4.22 -1.61,-5.4 -3.96,-2.81 -4.93,-1.89 -4.51,-2.67 -2.87,-3.65 -6.52,-11.57 -1.72,-4.58 1.85,-1.33 0.21,-0.52 -0.29,-0.56 0.24,-1.52 2.65,-2.51 2.98,-6.62 1.79,-2.66 2.98,-1.48 4.31,-0.85 4.37,-0.19 3.19,0.55 -3.91,-7.76 -2.8,-1.58 -5.44,-0.49 -3.23,-2.47 -1.06,-5.63 0.42,-5.97 1.17,-3.61 1.72,1.8 2.26,1.55 2.61,0.84 2.69,-0.43 2.99,-2.18 0.16,-2.1 -0.97,-2.38 -0.45,-6.62 -0.68,-1.26 0.61,0.24 3.91,0.7 1.35,0.87 1.91,1.63 2.6,1.37 3.41,0.07 -5.24,-10.48 -2.74,-1.54 -14.04,-0.89 -3.55,-2.61 -2.39,-3.84 -3.58,-4.41 -5.11,-3.69 -17.3,-7.94 -14.41,-8.96 -5.15,-1.24 -4.45,-2.09 -9.58,-8.2 -1.82,-0.43 -2.71,1.22 -16.82,-6.24 -2.79,-0.32 -5.35,-1.33 -2.73,-0.29 0,0 -0.27,-0.77 2.17,-15.75 12.78,-13.52 10.47,-1.03 10.94,2.71 11.21,0.93 11.1,2.07 20.49,-3.62 16.88,-14.5 5.7,-1.49 4.52,-2.62 6.66,-4.82 8.26,1.16 z"
     title="L'Artibonite"
     id="HT-AR" />
  <path
     d="m 216.18995,570.1608 0,0 1.74,1.82 3.11,-2.17 1.5,0.78 1.08,1.94 1.88,1.24 8.44,0 4.57,0.28 5.37,1.12 3.88,2.34 0,4.05 -3.38,2.16 -5.53,0.52 -10.57,-0.54 -4.75,-1.05 -4.15,-2.53 -6.83,-6.35 0.87,-2.85 1.23,-1.17 1.54,0.41 z m 30.52,-87.48 0,0 3.92,4.85 6.06,3.07 -2.43,4.94 -2.71,6.17 13.77,3.5 17.31,-2.78 8.56,-0.82 8.58,0.29 9.74,-2.54 8.5,-3.48 14.13,1.97 14.38,-0.28 7.12,0.86 6.87,0.78 6.18,-1.86 6.57,1.83 10.3,8.4 8.68,8.08 2.19,12.43 6.92,9.48 0.65,5 0.85,4.98 -0.3,1.4 -22.48,-2.51 -7.18,0.35 -2.26,-0.35 -7.9,-5.04 -2.38,-0.82 -36.06,-5.84 -16.2,1.68 -2.51,-0.7 1.42,-3.72 3.61,-1.42 9.81,0.08 0,-1.78 -18.15,-1.96 -21.99,0.18 -6.39,1.78 -8.74,5.19 -3.32,0.67 -2.17,-1.14 -2.34,-5.25 -1.99,-1.6 -3.62,2.2 -1.97,5.58 -2.01,4.19 -3.68,-2.02 -1.69,0 -3.2,2.04 -2.7,-1.46 -1.19,-3.7 1.35,-4.7 -3.85,1.15 -3.37,7.48 -3.9,3.07 0.19,-3.85 0.89,-3.43 2.63,-6.55 -2.13,1.73 -3.06,4.05 -2.21,2.21 -0.22,-0.7 -1.6,-0.62 -2.91,-0.63 -0.98,0.49 0.11,1.14 0.33,1.28 -0.3,1 -11.87,9.49 -19.43,9.02 -4.93,4.9 -4.73,7.81 11.43,12.22 1.71,4.45 1.38,5.62 -0.65,2.19 -3.59,0.87 -17.99,-0.07 -2.63,-0.44 -2.64,-1.26 -1.98,-1.99 -1.04,-4.21 -17.37,-25.02 -0.86,-0.65 -2.05,-0.9 -0.97,-0.57 -0.96,-1.09 -0.22,-0.87 -0.13,-0.9 -0.73,-1.23 -5.06,-4.74 -26.3,-19.41 -4.72,-2.3 -8.29,-1.4 -3.48,-1.44 -2.96,-2.16 -1.26,-2.7 -0.57,-3.05 -1.54,-0.93 -2.31,-0.15 -2.83,-0.76 -7,-2.74 -2.28,-1.33 -1.83,2.11 -5.13,-1.84 -5.44,2.31 -5.73,3.56 -5.97,1.84 -5.01,-1.05 -6.2,-2.51 -5.27,-2.95 -2.22,-2.37 -2.32,-3.2 -10.21,-5.18 -1.83,-4.18 0.01,0 1.03,-0.48 6.51,-0.69 7.54,1.42 15.05,-1.5 14.84,-3.16 27.26,-5.59 27.52,-2.21 11.46,2.83 11.3,3.81 12.95,3.7 12.9,1.05 -0.46,-6.79 3.76,-5.65 6.27,-0.14 6.28,-0.02 8.68,-2.36 8.68,-2.46 8.81,1.23 9,-0.42 5.45,2.75 4.6,1.51 6.16,-5.17 8.72,-1.22 7.4,0.65 4.76,4.09 z"
     title="Sud"
     id="HT-SD" />
  <path
     d="m 465.54995,42.4108 0,0 27.72,6.52 6.83,4.25 5.64,2.7 16.11,5.03 0.97,1.2 -2.19,1.58 -2.7,4.06 -1.74,3.49 -2.25,1.76 -3.03,2.86 -3.56,3.13 -2.87,-0.35 -2.68,-1.72 -4.35,-1.13 -3.79,1.03 -0.9,3.46 0.07,1.74 -8.26,-1.16 -6.66,4.82 -4.52,2.62 -5.7,1.49 -16.88,14.5 -20.49,3.62 -11.1,-2.07 -11.21,-0.93 -10.94,-2.71 -10.47,1.03 -12.78,13.52 -2.17,15.75 0.27,0.77 -0.36,-0.03 -1.37,0.66 -1.26,1.4 -1.79,1.42 -2.9,0.64 -4.03,-1 -6,-2.51 -5.86,-3.26 -3.66,-3.24 -5.49,5.36 -11.66,1.54 -25.88,-1.32 -5.13,-1.35 -3.01,-0.29 -1.92,-1.25 -4.8,-5.41 -2.64,-1.22 -3.76,-2.56 -1.51,-5.75 -0.51,-6.05 -0.78,-3.38 9.69,-15.63 1.44,-3.26 2.66,-0.07 14.19,-6.65 0,-2.15 -15,0 4.39,-3.32 5.17,-0.55 5.54,0.45 5.47,-0.35 33.08,-15.27 9.68,-7.08 5.44,-7.58 3.25,3.96 3.1,1.06 7.72,-0.89 3.96,0.59 7.16,2.6 3.79,0.58 3.24,-0.07 1.8,-0.27 5.43,-1.46 4.01,-0.53 4.16,0.36 3.76,1.41 2.89,2.71 1.94,-4.48 5.12,-2.78 6.23,-0.61 5.25,1.95 7.25,-3 8.65,-2.27 9.05,-1.15 8.44,0.49 z m 3.69,-35.68 0,0 25.71,10.14 10.93,6.95 -3.09,6.77 -4.41,-1.9 -23,-3.18 -10.68,-4.21 -13.19,-2.99 -4.5,-2.07 -3.11,0.6 -3.23,1.21 -2.94,0.52 -5.68,-1.16 -6.65,-2.23 -6.04,-3.07 -3.86,-3.6 1.19,0.01 0.75,-0.37 1.58,-1.42 12.57,-4.23 13.72,-1.88 7.85,-0.37 5.23,0.74 4.69,2.08 6.16,3.66 z"
     title="Nord-Ouest"
     id="HT-NO" />
  <path
     d="m 389.53995,469.6008 0,0 1.55,3.2 0.13,3.46 -4.22,7.14 0.61,7.69 6.79,0.28 4.69,4.75 2,6.95 4.26,5.37 -1.08,8.48 -3.48,8.09 0.02,6.28 0.54,6.28 -6.92,-9.48 -2.19,-12.43 -8.68,-8.08 -10.3,-8.4 -6.57,-1.83 -6.18,1.86 -6.87,-0.78 -7.12,-0.86 -14.38,0.28 -14.13,-1.97 -8.5,3.48 -9.74,2.54 -8.58,-0.29 -8.56,0.82 -17.31,2.78 -13.77,-3.5 2.71,-6.17 2.43,-4.94 -6.06,-3.07 -3.92,-4.85 -4.76,-4.09 -7.4,-0.65 -8.72,1.22 -6.16,5.17 -4.6,-1.51 -5.45,-2.75 -9,0.42 -8.81,-1.23 4.89,-11.05 6.06,-6.84 -4.47,-2.1 -1.33,-3.99 4.71,-5.39 2.26,-4.71 0.01,-0.02 2.75,-2.04 1.13,-0.57 0.33,-0.69 3.45,-4.28 1.82,-0.92 2.15,-0.09 2.24,0.18 2.14,-0.08 12.31,-3.58 3.54,-0.49 9.68,2.43 0.15,4.92 -5.5,3.72 -7.21,-1.12 0,1.78 -5.85,-1.98 -5.23,-0.71 -5.25,0.59 -5.92,2.1 1.79,1.22 4.51,2.42 4.47,1.09 0.3,1.68 -0.11,2.19 1.19,2.24 4.79,2.14 8.63,-1.26 4.26,2.15 9.53,-5.76 11.67,-1.47 42.95,3.31 5.49,1.24 10.82,5.52 6.03,1.24 21.76,-0.8 10.63,0.94 9.58,3.59 5.04,2.93 4.11,1.57 4.58,0.32 6.85,-1.23 z"
     title="Nippes"
     id="HT-NI" />
  <path
     d="m 210.66995,428.6908 0,0 -6.26,3.75 -8.66,-0.05 -6.76,-3.87 -0.57,-7.67 6.47,-3.07 8.88,0.71 6.8,3.84 0.1,6.36 z m -120.96,-16.59 0,0 35.54,15.89 15.64,0.7 0.56,0.43 1.77,1.99 0.37,0.6 0.62,2.22 1.52,-0.16 1.88,-0.98 1.71,-0.19 7.89,4.14 3.5,1.26 12.21,0.46 2.9,0.56 3.18,1.39 5.84,5.04 1.73,1.01 2.79,0.21 1.35,-0.8 0.91,-1.02 1.44,-0.52 2.71,0.44 3.36,1.66 2.43,0.03 1.66,-0.77 0.72,-0.53 -0.01,0.02 -2.26,4.71 -4.71,5.39 1.33,3.99 4.47,2.1 -6.06,6.84 -4.89,11.05 -8.68,2.46 -8.68,2.36 -6.28,0.02 -6.27,0.14 -3.76,5.65 0.46,6.79 -12.9,-1.05 -12.95,-3.7 -11.3,-3.81 -11.46,-2.83 -27.52,2.21 -27.26,5.59 -14.84,3.16 -15.05,1.5 -7.54,-1.42 -6.51,0.69 -1.03,0.48 -0.01,0 -0.48,-1.1 -0.61,-5.59 -1.78,-3.96 -7.05,-8.93 9.44,-13.85 -0.82,-1.14 -1.19,-2.77 4.97,-3.55 3.2,-13.26 4.04,-2.94 0.74,-1.49 -0.46,-3.36 -1.07,-3.59 -1.07,-2.22 -0.69,-3.05 2.1,-2.65 9.2,-5.39 12.07,-4.9 5.14,-0.91 6.26,1.54 2.78,-0.09 1.15,-2.34 1.34,-1.98 3.02,-0.87 3.19,-0.2 15.25,0.86 10.81,2.33 z"
     title="Grand'Anse"
     id="HT-GA" />
</svg>
