<?xml version="1.0" encoding="UTF-8" standalone="no"?>
<!-- Created for MapSVG plugin: http://mapsvg.com -->
<svg
   xmlns:mapsvg="http://mapsvg.com"
   xmlns:dc="http://purl.org/dc/elements/1.1/"
   xmlns:rdf="http://www.w3.org/1999/02/22-rdf-syntax-ns#"
   xmlns:svg="http://www.w3.org/2000/svg"
   xmlns="http://www.w3.org/2000/svg"
   mapsvg:geoViewBox="38.793603 37.380645 48.575916 29.061208"
   width="584.2276"
   height="594.15344">
  
  <path
     d="m 324.99089,310.231 0,0 1.26,-0.36 1.09,-1.08 1.78,-2.51 0.78,-0.11 0.77,0.12 1.53,0.43 9.9,0.5 0,0 -0.03,0.84 0.75,1.52 1.06,2.73 0.47,1.75 0.22,1.51 -0.02,2.77 -0.35,0.99 -1,0.57 0.45,2.12 0.2,7.2 0.37,1.75 0.39,1.12 0.41,0.39 0.29,0.23 0.36,0.13 8.45,0.6 0.41,0.1 3.79,2.18 3.01,0.96 2.18,0.2 0.52,0.18 0.31,0.54 1.94,0.82 1.53,0.87 0.85,0.68 0.81,0.89 0.37,0.77 2.55,8.49 2.33,5.26 1.04,1.32 1.15,1.16 0.96,0.67 1,0.29 3.56,0.16 0.77,0.01 0.17,2.22 0.1,1.47 -0.88,-0.05 -0.51,0.14 -0.84,0.33 -2.67,1.62 -0.71,0.54 -0.73,0.88 -0.4,0.38 -5.13,3.44 -3.84,1.57 -2.61,2 -1.75,1.67 -0.41,0.23 -0.37,-0.18 -0.68,-0.7 -0.34,-0.29 -0.36,-0.03 -0.44,0.2 -0.58,0.63 -0.34,0.62 -0.18,0.49 0.1,0.32 0.26,0.31 0.48,0.42 0.08,0.65 -0.05,0.52 -0.25,0.38 -0.32,0.27 -0.9,0.54 -0.35,0.28 -1.15,1.42 -0.4,0.37 -0.5,0.28 -0.56,0.19 -0.71,0.01 -0.78,-0.29 -3.3,-2.01 -1.79,-0.57 -3.03,-1 -1.78,-1.02 -1.33,-1.13 -1.63,-0.86 -2.93,2.11 -0.46,-0.05 -0.5,0.1 -0.27,-0.02 -1.24,0.85 -2.12,2.03 -0.9,-1.21 -0.3,-0.6 -0.44,-0.69 -0.39,-0.45 -1.13,-1.82 -0.47,-1.31 -0.1,-0.77 0.44,-0.71 1.44,-0.81 0.24,-1.21 -0.37,-0.37 -0.4,-0.68 -0.85,-3.38 -0.19,-0.76 -1.24,-2.45 -0.44,-1.48 0.29,-1.16 0.57,-1.41 -0.42,-1.42 -3.36,-4.93 -0.98,-2.4 -0.14,-2.65 2.11,-7.69 0.55,-0.59 -0.03,-0.8 -0.02,-0.42 -0.24,-0.56 -1.45,-1.48 -0.41,-0.3 -0.36,-0.15 -0.28,0.01 -0.31,0.14 -0.64,0.35 -0.28,0.05 -0.32,-0.05 -2.08,-0.56 -1.65,-0.25 0.67,-6.76 -2.6,-1.81 -1.64,-1.87 -0.74,-1.92 -1.06,-5.32 -1.43,-4.23 -1.81,-1.83 -5.81,-2.93 -2.94,-0.74 -0.79,-1 -0.3,-1.5 2.02,-0.27 2.7,0.35 5.29,1.4 5.67,0.04 1.44,0.2 1.48,0.45 3.82,2.26 1.3,0.41 z"
     title="Babil"
     id="IQ-BB" />
  <path
     d="m 195.63089,178.691 0,0 8.38,-1.1 1.08,0.23 2.09,0.99 1.81,0.78 13,-1.77 0.43,1.03 0.08,15.89 2.38,10.5 11.58,9.54 2.59,1.48 1.9,0.26 7.14,-4.08 1.13,6.19 0.27,4.49 0.47,2.16 1.52,2.21 0.91,3.86 0.59,3.8 3.13,7.63 4.09,5.48 9.56,9.64 8.2,7.18 3.16,1.18 6.4,1.08 7.33,2.95 5.41,1.8 10.01,-0.25 1.8,0.54 2.08,1.9 0.93,1.02 1.1,2.05 1.87,4.69 1.3,2.26 0.6,0.66 -2,1.56 2.22,0.66 2.02,1.41 4.4,0.27 1.79,3.96 0.18,-0.05 0.08,0.32 0,0.36 -0.56,1.39 -1.89,2.04 -0.71,1.4 -0.24,1.37 0.01,1.5 0.29,1.45 0.59,1.23 0.7,0.69 1.59,1.01 0.7,0.75 -1.78,2.51 -1.09,1.08 -1.26,0.36 -1.3,-0.41 -3.82,-2.26 -1.48,-0.45 -1.44,-0.2 -5.67,-0.04 -5.29,-1.4 -2.7,-0.35 -2.02,0.27 0.3,1.5 0.79,1 2.94,0.74 5.81,2.93 1.81,1.83 1.43,4.23 1.06,5.32 0.74,1.92 1.64,1.87 2.6,1.81 -0.67,6.76 -10.23,-3.17 -6.83,0.01 -5.05,0.63 -4.73,2.32 -11.16,9.89 -1.61,1.06 -0.66,0.19 -1.27,0.18 -7.3,1.03 -2.8,1.07 -3.18,1.68 0.42,2.15 1.44,2.16 14.05,14.26 9.84,7.4 2.88,2.46 6.27,5.99 -0.06,1.39 -0.31,2.11 -1.06,1.27 -1.02,0.98 -5.55,3.09 -1.52,1.23 -0.8,0.49 -0.96,0.36 -3.8,0.6 -0.7,0.3 -1.78,1.17 -0.46,0.11 -1.25,0.11 -0.96,0.46 -1.11,0.85 -1.72,1.87 -9.28,13.81 -0.85,1.54 -0.08,2.23 -0.33,1.96 -0.88,2.59 -6.33,13.62 -0.56,1.69 -0.16,1.2 0,0.92 0.11,0.6 0.22,0.5 0.05,1.03 -0.26,1.5 -2.34,6.21 -0.2,0.87 -0.41,3.41 -0.39,1.46 -0.44,0.96 -3.36,4.76 -2.05,3.52 -0.45,1.04 -0.2,0.69 -0.73,6.13 -0.76,2.43 -1.78,4.28 -3.87,7.24 -1.55,3.72 -0.44,0.7 -1.17,-1.01 -5.65,-4.92 -5.65,-4.92 -5.65,-4.93 -5.04,-4.37 -5.04,-4.38 -5.04,-4.38 -5.05,-4.38 -3.95,-3.44 -5.32,-3.16 -5.23,-3.12 -5.24,-3.12 -5.22,-3.11 -5.23,-3.12 -5.24,-3.12 -5.24,-3.12 -5.22,-3.13 -5.23,-3.12 -5.24,-3.14 -5.23,-3.12 -5.23,-3.13 -5.24,-3.13 -5.23,-3.14 -5.23,-3.13 -5.24,-3.13 -5.23,-3.15 -6.13,-3.68 -3.32,-1.94 -3.22,-1.26 -20.33,-3.93 -0.02,-0.01 0,0 -0.02,0 -4.78,-0.82 -11.79,-2.02 -11.79,-2.03 -11.79,-2.03 -11.8,-2.03 -0.17,0.05 -0.17,0.06 -0.17,0.06 -0.17,0.06 -0.01,-0.55 7.17,-6.13 1.52,-2.23 -1.24,-4.76 -0.88,-2.17 -1.23,-0.72 -11.3,3.14 -0.6,-0.35 -0.45,-1.06 -2.91,-10.15 -0.08,-0.12 -0.02,-0.08 0.02,-0.06 0.08,-0.02 4.61,-1.45 -4.01,-14.8 -2.82,-10.41 -2.72,-10.09 -2.06,-7.57 -2.48,-9.15 -2.77,-10.18 6.59,-3.96 6.6,-3.96 6.6,-3.96 6.59,-3.97 6.6,-3.97 6.6,-3.97 6.59,-3.97 6.6,-3.97 6.59,-3.98 6.6,-3.98 6.59,-3.98 6.6,-3.99 4.27,-2.58 2.32,-1.41 6.6,-3.99 6.6,-3.99 6.59,-4 8.75,-5.31 14.65,-3.94 1.74,-1.14 1.36,-1.93 2.15,-4.75 0,-0.01 10.24,-19.88 0.51,-1.79 0.13,-1.9 -0.5,-12.71 -0.34,-12.01 1.28,0.03 7.66,0.72 10.08,2.91 4.01,0.64 16.33,6.78 7.88,3.1 3.88,0.25 z"
     title="Al-Anbar"
     id="IQ-AN" />
  <path
     d="m 419.13089,182.891 0,0 -1.07,-0.57 -1.38,0.07 -0.4,1.4 0.12,1.84 -0.3,1.78 -1.65,1.15 -1.7,0.18 -0.76,0.32 -0.58,0.82 -0.19,0.87 0.14,1.47 -0.19,0.83 -1.66,1.91 -0.45,1.17 0.88,1.02 0.5,0.28 0.53,0.42 0.44,0.52 0.21,0.59 0.19,0.78 0.29,0.43 0.3,0.36 0.25,0.51 0.19,1.37 0.03,1.36 0.19,1.23 0.66,0.94 0.18,0.47 -0.02,0.78 -0.16,0.77 -0.24,0.46 -0.35,0.08 -1.32,-0.46 -4.1,-0.33 -1.84,-0.45 -2.05,-1.08 -2.32,-0.68 -0.25,1.99 0.5,2.93 -0.08,2.14 -0.29,0.57 -0.34,0.53 -0.39,0.45 -0.43,0.4 -3.13,0.7 -0.58,0.95 1.84,5.95 0.77,1.56 1.1,0.82 1.19,-0.96 1.33,0 1.24,0.78 0.91,1.42 0.33,1.64 -0.12,1.78 -0.8,3.47 -0.29,0.65 -0.84,1.37 -0.12,0.66 0.29,0.83 0.43,0.62 0.35,0.62 0,0.8 -0.61,0.82 -2.41,1.98 -0.88,0.94 -1.45,1.28 -0.67,1.6 -0.51,1.84 -0.91,2 0,0 -0.01,0 -0.49,0.51 -0.58,0.4 -1.28,0.58 1.24,1.74 1.35,0.76 1.55,0.1 1.76,-0.27 0.15,0.02 0.13,0.06 0.11,0.1 5.31,9.68 0.8,0.89 0.92,0.78 0.78,0.86 0.43,1.19 0.26,1.45 0.41,1.27 0.6,1.17 0.81,1.16 0.91,0.91 2.81,2.02 0.21,0.56 0.2,0.53 -0.02,2.54 0.41,0.5 1.04,-0.26 0.98,-0.65 1.74,-1.68 1.09,-0.47 2.89,-0.04 1.29,-0.32 -0.23,2.2 1.05,1.07 1.27,0.88 0.41,1.58 -0.73,1.08 -2.83,1.73 -0.93,1.23 1.02,0.88 1.77,0.41 1.81,-0.22 1.1,-1.06 0.3,-0.17 0.3,-0.05 0.3,0.06 0.08,0.04 -0.01,0 -0.99,1.13 -0.95,1.63 -0.23,0.45 -0.71,2.56 -0.43,0.54 -0.64,0.51 -1.41,0.85 -0.71,0.29 -0.51,0.13 -0.33,0.02 -0.35,0.13 -0.48,0.22 -2.79,2.06 -0.64,0.78 -0.5,0.47 -0.7,0.45 -0.91,0.41 -0.25,0.03 -0.23,-0.05 -0.25,-0.12 -0.25,-0.06 -0.27,0.13 -0.34,0.37 -0.66,1.02 -2.09,2.51 -0.57,0.83 -0.39,0.77 -0.24,1 -0.55,1.5 -0.8,1.17 -1.56,1.91 -1.37,2.07 -0.41,0.43 -2.29,1.95 -0.96,1.03 -0.74,0.98 -0.69,0.38 -0.49,0.2 -3.46,-1.02 -18.7,-5.41 -5.79,0.65 -2.09,-0.16 -6.88,-1.69 -1.78,-0.09 -1.17,0.93 -1.33,1.63 -1.31,1.94 -2.59,2 -1.06,1.05 -0.55,0.85 0.33,0.78 0.19,0.34 0.35,1.07 -0.28,0.11 -0.67,0.57 -0.63,0.24 -0.68,-0.03 -0.67,-0.21 -0.62,-0.32 -0.55,-0.37 -0.46,-0.43 -0.38,-0.52 -0.32,-0.64 -0.51,-1.4 -0.37,-0.67 -0.42,0.22 -0.43,1.01 -0.59,1.85 -0.59,0.99 -0.29,0.7 -0.23,0.43 -0.26,0.19 -0.17,0.08 -1.32,-0.4 0.35,-0.99 0.02,-2.77 -0.22,-1.51 -0.47,-1.75 -1.06,-2.73 -0.75,-1.52 0.03,-0.84 0.09,-3.08 0.57,-0.84 0.19,-0.19 0.37,-0.44 0.07,-0.28 -0.02,-0.3 -0.24,-0.5 -0.13,-0.6 0.41,-1.14 0,0.64 -0.15,0.22 0.02,0.2 0.22,0.02 0.28,-0.18 0.18,-0.47 0.15,-0.53 -0.07,-2.16 -0.08,-2.11 0.3,-0.7 0.06,-0.86 0.03,-0.16 0.04,-0.11 -0.04,-0.21 -0.32,-1 -0.15,-0.65 -0.08,-0.81 -0.25,-0.32 -0.2,-0.2 -1.88,1.44 -2.22,-1.97 0,-0.01 -1.19,-0.65 -0.59,-0.11 -4.28,-0.18 -0.34,-0.06 -0.41,0.49 -0.78,2.51 -3.1,0.85 -0.18,0.05 -1.79,-3.96 3.18,-4.61 0.88,-1.07 1.4,-1.3 1.04,-0.76 2.34,-2.1 0.5,-1.86 0.19,-1.77 -0.69,-1.65 0.88,-3.88 0.24,-0.53 0.84,-1.33 0,-0.31 -0.15,-0.29 -1.18,-1.21 -0.4,-0.51 -0.31,-0.6 -0.15,-0.65 0.01,-0.66 0.12,-0.65 1.11,-3.07 2.04,-3.21 0.35,-1.26 0.05,-1.34 -0.19,-1.38 -0.46,-1.12 -0.71,-0.89 -2.76,-2.51 -0.54,-0.23 -0.36,-0.16 -1.59,-0.24 -1.63,0.2 -0.49,0.14 -0.42,0.05 -0.28,-0.06 -0.19,-0.19 -0.01,-0.6 0.04,-0.34 0.66,-0.96 0.16,-0.9 0.43,-1.19 -0.08,-0.35 -0.31,-0.5 0.1,-0.23 1.27,-0.89 0.24,-0.24 0.14,-0.46 0.01,-0.3 -0.08,-0.25 -0.44,-0.77 -0.08,-0.27 0.11,-0.25 0.25,-0.21 0.49,-0.12 0.7,-0.02 0.13,-0.09 0.07,-0.2 -0.05,-1.71 -0.12,-0.26 -0.13,-0.19 -0.01,-0.18 0.21,-0.15 0.55,-0.12 0.72,0.04 0.26,-0.1 0.25,-0.23 0.17,-0.46 0.24,-0.4 0.2,-0.25 0.35,-0.06 0.11,0.15 0.02,0.21 -0.15,0.34 0.02,0.11 0.11,0.08 0.2,0.01 0.18,-0.11 0.13,-0.21 0.15,-0.59 0.24,-0.52 1.24,-1.84 0.23,-0.16 0.53,-0.19 0.69,-0.03 0.21,-0.04 0.2,-0.12 0.23,-0.19 0.25,-0.14 0.19,0.04 0.33,0.37 0.18,0.15 0.17,-0.07 0.12,-0.3 -0.01,-1.32 0.11,-0.4 0.45,-0.29 0.3,-0.11 0.21,-0.18 0.05,-0.28 -0.16,-1.44 0.81,-0.54 -0.69,-0.86 -0.43,-0.24 -0.45,-0.37 -0.55,-0.62 -0.33,-0.49 -0.17,-0.41 0,-0.32 0.46,-0.73 0.59,-1.28 0.4,-1.35 0.04,-0.59 -0.21,-0.71 -0.14,-0.36 -0.07,-0.26 0.4,-0.42 0.14,-0.24 0.21,-0.67 0.11,-0.25 0.04,-0.19 -0.18,-0.14 -0.19,0.03 -0.33,0.21 -0.2,0.04 -0.23,-0.04 -0.12,-0.14 0,-0.2 0.28,-0.34 0.13,-0.2 0.03,-0.17 -0.2,-0.12 -0.15,0.05 -0.14,0.12 -0.12,0.07 -0.04,-0.12 0.04,-0.27 0.28,-0.49 0.24,-0.19 0.27,-0.06 0.24,-0.02 0.57,-0.18 0.2,-0.2 0.07,-0.27 -0.27,-0.57 -0.22,-0.23 -0.22,-0.1 -0.16,0 -0.08,-0.07 0.08,-0.19 0.71,-0.65 0.15,-0.55 0.02,-0.4 -0.9,-2.35 0.04,-0.68 0.05,-0.28 0.13,-0.39 0.7,-0.91 0.24,-0.13 0.53,0.3 1.19,0.49 0.92,0.22 0.52,0.25 0.65,0.43 2.17,1.97 0.32,0.2 0.18,-0.03 0.3,-0.87 0.39,-0.72 0.66,-0.79 1.01,-0.87 0.98,-0.67 0.86,-0.83 0.75,-1.03 0.93,-2 0.1,-1.06 -0.2,-0.85 -0.28,-0.43 -0.26,-0.46 -0.12,-0.45 0,-0.43 0.28,-0.47 0.58,-0.52 1.22,-0.7 1.68,-0.5 0.73,-0.31 0.85,-0.7 1.16,-1.19 0.8,-1.34 0.25,-0.8 -0.05,-0.6 -0.07,-0.47 0.04,-0.48 0.39,-0.57 0.7,-0.56 1.55,-0.6 1.96,-1.02 2.82,-2.6 3.18,2.09 1.24,1.25 0.57,0.77 0.38,0.29 0.41,0.09 0.35,-0.1 1.39,-0.83 0.53,-0.15 0.68,-0.07 1.27,0.16 0.75,0.24 0.59,0.31 0.81,0.69 0.46,0.58 0.5,0.77 0.2,0.66 0.17,2.57 0.25,1.63 0.01,0.46 -0.04,0.35 0.02,0.34 0.05,0.5 0.33,1.65 0.68,1.85 0,0.31 -0.1,0.28 -0.26,0.38 -0.83,0.92 -0.16,0.33 -0.08,0.34 0.01,0.42 0.08,0.44 0.36,1.08 0.04,0.36 -0.01,0.4 -0.09,0.44 -0.17,0.48 -0.43,0.79 0.01,0.28 0.14,0.32 0.17,0.15 0.46,0.15 0.22,0.03 0.19,0 0.24,0.05 0.15,0.22 0.11,0.34 0.17,1.12 1.95,-1.16 6.5,-7.84 0.8,-0.69 0.44,0.04 0.22,-0.02 0.6,-0.14 0.37,-0.01 0.52,-0.12 0.61,-0.24 1.11,-0.63 0.43,-0.36 0.29,-0.37 0.05,-0.19 0.02,-0.21 0.2,-0.68 0.68,-1.17 0.15,-0.36 0.16,-0.54 0.03,-0.21 -0.04,-0.19 -0.06,-0.2 -0.01,-0.24 0,-0.27 0.07,-0.3 0.01,-0.22 0.13,-0.39 0.21,-0.53 0.65,-1.17 0.78,-2.06 0.28,-0.37 0.29,-0.24 0.35,-0.17 0.13,-0.23 0.09,-0.3 0.49,-1.33 0.21,-0.85 0.45,-1.11 0.58,-0.64 0.26,-0.45 0.12,-0.36 0.05,-0.39 0.15,-0.15 0.19,-0.02 0.2,0.04 0.17,-0.01 1.54,-1.41 0.49,-0.66 1.37,-2.2 0.32,-0.67 0.15,-0.47 0,-0.19 0.01,-0.21 -0.02,-0.15 -0.09,-0.13 -0.18,-0.09 -0.22,-0.05 -0.57,-0.04 -0.17,-0.05 -0.13,-0.44 0.59,-0.52 0.2,-1.04 0.24,-0.3 0.51,-0.32 0.26,-0.54 0.06,-0.23 -0.09,-0.12 -0.13,0.03 -0.2,0.08 -0.16,-0.04 -0.16,-0.16 -0.03,-0.58 0.15,-0.39 0.36,-0.66 0.23,-0.23 0.2,-0.08 0.14,0.13 0.04,0.16 -0.01,0.21 0.01,0.15 0.1,0.04 0.15,-0.07 0.17,-0.16 0.16,-0.11 0.48,-0.23 0.17,-0.27 0.24,-0.59 0.31,-0.48 0.64,-0.75 0.32,-0.46 0.22,-0.37 0.05,-0.49 0.08,-0.38 0.53,-0.57 0.35,-0.23 0.39,-0.01 0.4,0.25 0.45,0.39 0.28,0.29 0.33,0.53 4.09,4.34 0.64,1.05 -0.19,0.12 -0.23,0.08 -0.27,0.07 -0.29,0.01 -0.24,-0.05 -0.26,-0.1 -0.24,-0.03 -0.46,0.04 -0.17,-0.03 -0.14,0.12 -0.07,0.5 0.57,6.68 0.38,0.81 0,0 z"
     title="Diyala"
     id="IQ-DI" />
  <path
     d="m 378.24089,72.811 0,0 1.74,-0.14 3.34,-1.33 1.51,0.11 1.05,1.33 0.64,1.85 0.29,1.72 0.15,3.19 0.42,1.29 1.12,1.43 -1.45,0.94 0.34,0.89 1.11,0.87 0.87,0.87 0.28,1.41 -0.15,3.41 0.3,1.56 1.85,2.41 0.76,1.49 -0.24,1.48 -0.74,1.17 -0.73,1.52 -0.35,1.52 0.38,1.19 0,0.01 0,0 0.01,0.01 0.01,0 1.05,1.08 1.28,0.18 1.33,-0.45 1.18,-0.81 0,0 0.02,0 0,-0.01 0.01,-0.01 1.06,-0.3 1.98,-0.98 1.56,-0.03 1.32,0.49 2.3,0.84 2.21,2.05 0.77,0.48 1.62,0.31 1.78,1.64 2.76,3.93 1.53,3.79 0.73,0.97 1.07,0.31 2.25,-0.68 0.67,0.13 0.97,0.67 1.23,-0.09 1.15,-0.57 1.45,-1.25 0.6,0.03 0.62,0.2 0.61,0.06 1.92,-0.66 3.8,0.17 1.19,-0.39 1.16,-0.66 0.96,-0.37 0.98,0.02 1.84,0.71 0.44,0.07 0.28,0.26 0.3,1.5 0.25,0.51 0.37,0.41 0.49,0.4 1.2,0.52 1.28,-0.05 2.53,-0.56 1.13,-0.41 1.02,-0.72 1.07,-0.53 1.29,0.13 0.99,0.71 0.44,0.99 -0.12,1.15 -0.69,1.2 -0.95,0.85 -1.81,1.16 -0.82,1.21 -0.93,0.89 -1.24,0.15 -2.34,-0.14 -2.99,1.6 -1.23,0.28 -4.17,-0.13 -1.23,0.43 -0.76,0.85 -0.47,1.16 -0.21,1.29 0,1.21 0.58,2.82 -0.17,1.01 -1.82,-0.56 -0.29,0 -0.27,0.08 0.52,1.48 0.67,1.39 0.23,0.31 0.08,0.31 -0.08,0.3 -0.23,0.29 -0.48,0.36 -0.31,0.49 -0.15,0.59 0.03,0.67 0.77,2.12 3.82,6.13 3.3,2.95 1.42,1.66 0.43,2.15 -0.12,0.3 -0.31,0.74 -0.74,0.88 -0.53,0.93 0.16,1.15 0.83,0.58 2.31,-0.02 0.9,0.76 -0.22,1.92 -1.3,2.21 -0.8,2.06 1.23,1.45 -0.47,0.88 -0.64,0.34 -0.74,0.15 -1.52,0.51 -1.06,-0.29 -0.6,0.07 -1.6,0.97 -0.88,0.82 -0.95,0.24 -1.78,-0.77 -0.77,0.06 -0.62,-0.26 -1.26,-0.82 -0.88,-0.3 -0.41,0.17 -0.83,1.36 -0.06,0.34 0.17,0.9 -0.13,0.34 -0.35,0.19 -0.84,0.08 -0.39,0.13 -0.63,0.63 -0.29,0.84 -0.02,0.96 0.18,1 0,0.01 0.55,1.88 -0.16,1.37 -0.51,1.33 -0.45,1.78 -0.91,1.21 -1.61,-0.56 -0.7,-0.38 0,0 -0.38,-0.81 -0.57,-6.68 0.07,-0.5 0.14,-0.12 0.17,0.03 0.46,-0.04 0.24,0.03 0.26,0.1 0.24,0.05 0.29,-0.01 0.27,-0.07 0.23,-0.08 0.19,-0.12 -0.64,-1.05 -4.09,-4.34 -0.33,-0.53 -0.28,-0.29 -0.45,-0.39 -0.4,-0.25 -0.39,0.01 -0.35,0.23 -0.53,0.57 -0.08,0.38 -0.05,0.49 -0.22,0.37 -0.32,0.46 -0.64,0.75 -0.31,0.48 -0.24,0.59 -0.17,0.27 -0.48,0.23 -0.16,0.11 -0.17,0.16 -0.15,0.07 -0.1,-0.04 -0.01,-0.15 0.01,-0.21 -0.04,-0.16 -0.14,-0.13 -0.2,0.08 -0.23,0.23 -0.36,0.66 -0.15,0.39 0.03,0.58 0.16,0.16 0.16,0.04 0.2,-0.08 0.13,-0.03 0.09,0.12 -0.06,0.23 -0.26,0.54 -0.51,0.32 -0.24,0.3 -0.2,1.04 -0.59,0.52 0.13,0.44 0.17,0.05 0.57,0.04 0.22,0.05 0.18,0.09 0.09,0.13 0.02,0.15 -0.01,0.21 0,0.19 -0.15,0.47 -0.32,0.67 -1.37,2.2 -0.49,0.66 -1.54,1.41 -0.17,0.01 -0.2,-0.04 -0.19,0.02 -0.15,0.15 -0.05,0.39 -0.12,0.36 -0.26,0.45 -0.58,0.64 -0.45,1.11 -0.21,0.85 -0.49,1.33 -0.09,0.3 -0.13,0.23 -0.35,0.17 -0.29,0.24 -0.28,0.37 -0.78,2.06 -0.65,1.17 -0.21,0.53 -0.13,0.39 -0.01,0.22 -0.07,0.3 0,0.27 0.01,0.24 0.06,0.2 0.04,0.19 -0.03,0.21 -0.16,0.54 -0.15,0.36 -0.68,1.17 -0.2,0.68 -0.02,0.21 -0.05,0.19 -0.29,0.37 -0.43,0.36 -1.11,0.63 -0.61,0.24 -0.52,0.12 -0.37,0.01 -0.6,0.14 -0.22,0.02 -0.44,-0.04 -0.8,0.69 -6.5,7.84 -1.95,1.16 -0.17,-1.12 -0.11,-0.34 -0.15,-0.22 -0.24,-0.05 -0.19,0 -0.22,-0.03 -0.46,-0.15 -0.17,-0.15 -0.14,-0.32 -0.01,-0.28 0.43,-0.79 0.17,-0.48 0.09,-0.44 0.01,-0.4 -0.04,-0.36 -0.36,-1.08 -0.08,-0.44 -0.01,-0.42 0.08,-0.34 0.16,-0.33 0.83,-0.92 0.26,-0.38 0.1,-0.28 0,-0.31 -0.68,-1.85 -0.33,-1.65 -0.05,-0.5 -0.02,-0.34 0.04,-0.35 -0.01,-0.46 -0.25,-1.63 -0.17,-2.57 -0.2,-0.66 -0.5,-0.77 -0.46,-0.58 -0.81,-0.69 -0.59,-0.31 -0.75,-0.24 -1.27,-0.16 -0.68,0.07 -0.53,0.15 -1.39,0.83 -0.35,0.1 -0.41,-0.09 -0.38,-0.29 -0.57,-0.77 -1.24,-1.25 -3.18,-2.09 -0.14,-5.17 0.19,-0.98 0.04,-0.33 -0.05,-0.28 -0.15,-0.32 -0.72,-0.87 -5.13,-3.6 -2.23,-0.41 -6.53,-0.28 -1.03,0.37 -1.34,-0.37 -0.98,-0.46 -6.02,-6.35 2.65,-2.24 4.64,-1.47 0.63,-0.61 0.17,-0.61 -0.41,-1.01 -0.09,-0.54 0.04,-0.62 0.23,-0.67 0.61,-0.92 0.72,-0.51 0.55,-0.3 0.45,-0.14 0.21,-0.32 0.16,-0.45 0.17,-0.98 0.65,-1.55 0.25,-1.13 -0.24,-1.09 -0.37,-1.24 -0.17,-1.08 0.45,-1.43 2.18,-2.96 0.61,-1.23 0.31,-1.02 -0.07,-0.84 -1.15,-1.58 -1.27,-1.43 -0.4,-0.74 -0.15,-0.72 0.21,-2.11 0.19,-2.63 0.24,-0.86 0.13,-1.88 0.24,-0.77 1.01,-1.82 -0.06,-1.23 -0.49,-1.45 -2.77,-2.47 -1.36,-1.87 -1.52,-1.66 -3.29,-7.26 1.09,-0.51 0.18,0.03 0.27,0.13 0.17,0.24 0.24,0.24 0.22,-0.04 0.66,-0.38 0.25,0.01 0.18,0.12 0.1,0.16 0.02,0.17 -0.01,0.18 0.02,0.22 0.22,0.3 0.29,0.05 0.35,-0.05 1.42,-0.44 0.47,0.02 0.3,0.09 0.31,0.5 0.34,0.29 0.32,0.03 0.34,-0.13 0.32,-0.21 0.51,-0.19 0.37,0.03 0.27,0.11 0.26,0.28 0.22,0.34 0.48,0.38 0.28,0.03 0.18,-0.16 0.05,-0.24 0.06,-0.49 0.1,-0.23 0.16,-0.24 0.26,-0.23 0.18,-0.01 0.22,0.08 0.19,0.15 0.11,0.2 0.06,1.09 0.12,0.4 0.15,0.1 0.18,-0.05 0.57,-0.58 0.92,-0.32 0.33,-0.46 -0.06,-0.18 -0.65,-1.2 0.04,-0.2 0.17,-0.1 0.47,-0.09 0.21,0.01 0.37,0.17 0.21,0.02 0.64,-0.09 0.29,0.05 0.2,0.12 0.28,0.3 0.13,0.1 0.13,0.09 0.11,0.16 0.32,0.2 0.57,0.17 1.36,0.03 0.63,-0.09 0.43,-0.15 0.38,-0.31 0.12,-0.21 0.13,-0.43 0.09,-0.17 0.03,-0.17 -0.02,-0.2 -0.08,-0.21 -0.4,-0.49 -4.04,-2.02 -1.48,-1.03 -1.88,-1.78 -4.37,-5.29 -0.57,-0.47 -0.71,-0.47 -1.36,-0.59 -5.98,-4.27 -0.32,-0.68 -0.26,-0.93 1.28,-1.04 0.46,-0.47 0.34,-0.5 0.3,-0.6 0.47,-0.35 1.38,-0.65 0.56,-0.63 -0.17,-0.61 -0.34,-0.56 -2.99,-3.63 -0.59,-0.5 -0.63,-0.02 -0.39,0.28 -0.58,0.67 -3.43,-5.26 -0.33,-0.86 0.02,-1.57 1.96,-1.75 0.67,-0.97 1.15,-1.35 1.82,-1.39 1.25,-0.41 0.98,0.15 1.71,0.5 2.72,-0.44 2.61,-0.69 3.1,-1.56 1.32,-0.29 1.22,-0.03 2.54,0.64 2.06,0.14 0.86,-0.32 0.67,-0.48 0.8,-1.23 0.33,-0.73 0.24,-0.7 0,-0.01 0.95,0.82 0.76,0.83 0.06,1.05 0.38,0.61 0.51,0.49 0.48,0.72 0.28,0.96 0.1,0.73 0.23,0.67 0.68,0.79 1.61,0.76 z"
     title="As-Sulaymaniyah"
     id="IQ-SU" />
  <path
     d="m 436.60089,311.521 0,0 -1,-0.08 -1.31,0.12 -1.2,0.67 -0.06,0.87 0.83,0.71 2.63,0.31 1.12,0.47 0.86,0.77 0.34,0.98 -0.4,1.21 -0.88,0.92 -1,0.81 -0.73,0.86 0,0.02 1.27,2.84 3.49,0.43 7.03,-0.8 6.34,1.97 5.94,2.84 1.68,1.69 5.56,3.23 0,0 -0.93,1.63 -0.55,0.7 -1.33,0.93 -0.44,0.69 -3.88,11.78 -0.37,3.39 0.08,4.31 -0.08,0.76 -0.2,0.72 -0.2,1.02 -0.18,0.44 -0.83,1.3 -0.37,0.81 -0.06,0.62 0.52,0.55 0.98,0.8 0.28,0.43 0.23,0.56 -0.09,0.61 -2.51,7.23 -0.33,1.27 0.19,1.05 1.1,0.89 7.27,3.16 1.17,1.75 0.71,1.31 -1.6,10.57 -1.26,0.15 -2.25,-0.57 -2.14,-1.11 -2.38,-0.29 -7.44,0.28 -15.5,0.05 -1.99,0.68 -0.3,0.28 -0.23,0.54 -0.26,0.14 -0.43,0.01 -0.93,-0.18 -0.55,-0.17 -0.53,-0.05 -0.49,0.16 -2.07,1.55 -0.28,0.06 -0.29,-0.22 -0.16,-0.17 -0.16,-0.07 -0.16,0.08 -0.26,0.29 -0.24,0.14 -0.23,0.01 -0.28,-0.22 -0.32,-0.01 -3.66,1.54 -5.98,-0.39 -2.81,-6.53 -0.03,-0.44 0.22,-0.32 0.44,-0.38 -0.18,-0.85 -4.12,-1.22 -3.76,-1.39 -0.95,-0.62 -0.57,-0.87 -0.73,-1.33 -1.09,-1.46 -5.94,-5.62 -0.89,-1.04 -0.32,-1.06 0.15,-1 0.79,-1.9 0.1,-0.67 -0.22,-0.58 -1.31,-0.4 -0.69,-1.05 -4.21,-0.51 -1.5,-0.64 -0.38,-1.12 -3.45,-0.47 -0.1,-1.47 -0.17,-2.22 -0.77,-0.01 -3.56,-0.16 -1,-0.29 -0.96,-0.67 -1.15,-1.16 -1.04,-1.32 -2.33,-5.26 -2.55,-8.49 -0.37,-0.77 -0.81,-0.89 -0.85,-0.68 -1.53,-0.87 -1.94,-0.82 -0.31,-0.54 -0.52,-0.18 -2.18,-0.2 -3.01,-0.96 -3.79,-2.18 -0.41,-0.1 -8.45,-0.6 -0.36,-0.13 -0.29,-0.23 -0.41,-0.39 -0.39,-1.12 -0.37,-1.75 -0.2,-7.2 -0.45,-2.12 1,-0.57 1.32,0.4 0.17,-0.08 0.26,-0.19 0.23,-0.43 0.29,-0.7 0.59,-0.99 0.59,-1.85 0.43,-1.01 0.42,-0.22 0.37,0.67 0.51,1.4 0.32,0.64 0.38,0.52 0.46,0.43 0.55,0.37 0.62,0.32 0.67,0.21 0.68,0.03 0.63,-0.24 0.67,-0.57 0.28,-0.11 -0.35,-1.07 -0.19,-0.34 -0.33,-0.78 0.55,-0.85 1.06,-1.05 2.59,-2 1.31,-1.94 1.33,-1.63 1.17,-0.93 1.78,0.09 6.88,1.69 2.09,0.16 5.79,-0.65 18.7,5.41 3.46,1.02 0.49,-0.2 0.69,-0.38 0.74,-0.98 0.96,-1.03 2.29,-1.95 0.41,-0.43 1.37,-2.07 1.56,-1.91 0.8,-1.17 0.55,-1.5 0.24,-1 0.39,-0.77 0.57,-0.83 2.09,-2.51 0.66,-1.02 0.34,-0.37 0.27,-0.13 0.25,0.06 0.25,0.12 0.23,0.05 0.25,-0.03 0.91,-0.41 0.7,-0.45 0.5,-0.47 0.64,-0.78 2.79,-2.06 0.48,-0.22 0.35,-0.13 0.33,-0.02 0.51,-0.13 0.71,-0.29 1.41,-0.85 0.64,-0.51 0.43,-0.54 0.71,-2.56 0.23,-0.45 0.95,-1.63 0.99,-1.13 0.01,0 0.22,0.12 0.19,0.11 0.18,0.14 2,2.51 0.68,1.23 0.48,1.35 0.18,1.46 0.04,1.19 0.31,1.04 1.99,1.93 2.38,3.37 1.9,1.54 0.83,0.85 0.53,1.2 0.01,0.73 -0.36,1.37 -0.04,0.59 0.26,0.66 0.7,0.44 0.03,0.64 -0.42,0.92 -0.82,1 -1.61,1.6 -1.26,0.96 -0.97,0.19 z"
     title="Wasit"
     id="IQ-WA" />
  <path
     d="m 494.42089,355.611 0,0 0.01,0 0,0 1.91,1.4 1.81,0.96 1.88,0.41 2.11,-0.22 1.05,-0.4 2.73,-1.52 0.84,0.06 3.38,1.16 1.27,0.68 0.77,0.88 0.66,1.09 1.01,1.29 1.59,1.22 0.33,0.51 0.1,0.82 -0.22,0.46 -0.33,0.39 -0.53,1.31 -0.24,0.27 -0.01,0.35 0.4,0.96 0.27,0.4 1.78,1.7 0.28,0.39 0.23,0.39 1.05,1.47 0.39,0.4 0.57,0.29 0.33,0.89 1.16,0.89 0.31,0.92 -0.09,0.98 -0.32,0.68 -0.36,0.62 -0.23,0.77 -0.12,0.98 0.05,0.56 0.41,0.31 0.93,0.27 0.77,0.49 0.48,0.72 0.53,0.61 0.9,0.11 1.15,0.48 0.13,0.19 0.89,1.27 1.36,3.07 0.91,1.05 2.08,1.02 0.59,1.24 0,0.02 0.28,1.23 2.14,3.84 0.4,0.56 1.08,0.71 0.46,0.43 0.33,0.63 0.31,1.23 0.21,0.53 0.96,1.07 2.35,1.78 0.82,1.25 0.17,1.49 -0.36,1.59 -9.09,24.79 -0.15,11.96 -0.02,0 -8.27,-2.12 -8.51,-0.85 -2.69,0.22 -8.27,2.16 -2.07,0.98 -1.22,1.03 -1.11,1.74 -0.66,4.28 -10.45,-0.74 -6.27,0.09 -2.34,-1.22 -0.82,-0.8 -2.59,-2.09 -0.41,-0.54 -0.22,-0.5 -0.13,-0.58 -0.07,-0.67 0.01,-0.73 0.26,-2.49 0.03,-0.77 -0.06,-0.62 -0.2,-0.62 -0.35,-0.71 -0.76,-1.03 -0.68,-0.67 -0.73,-0.57 -5.31,-3.32 -0.96,-2.88 -0.03,-0.65 0.07,-0.91 0.62,-1.27 0.32,-0.86 0.23,-1.42 -0.16,-1.08 -0.44,-1.11 -0.63,-0.77 -1.92,-1.61 -0.98,-0.99 -1.85,-3 -0.36,-0.39 -1.85,-1.08 -2.34,-2.64 -1.37,-3.54 0.2,-0.95 0.08,-1.65 -4.61,-7.66 -1.56,-3.34 0.58,-1.18 0.99,-0.59 0.98,-0.26 -0.1,-0.59 -0.73,-0.97 -1.33,-1.33 7.44,-0.28 2.38,0.29 2.14,1.11 2.25,0.57 1.26,-0.15 1.6,-10.57 -0.71,-1.31 -1.17,-1.75 -7.27,-3.16 -1.1,-0.89 -0.19,-1.05 0.33,-1.27 2.51,-7.23 0.09,-0.61 -0.23,-0.56 -0.28,-0.43 -0.98,-0.8 -0.52,-0.55 0.06,-0.62 0.37,-0.81 0.83,-1.3 0.18,-0.44 0.2,-1.02 0.2,-0.72 0.08,-0.76 -0.08,-4.31 0.37,-3.39 3.88,-11.78 0.44,-0.69 1.33,-0.93 0.55,-0.7 0.93,-1.63 0,0 0.23,0.13 2.74,2.23 3.91,2.36 2.47,2.83 17.96,15.7 z"
     title="Maysan"
     id="IQ-MA" />
  <path
     d="m 481.74089,450.751 0,0 6.27,-0.09 10.45,0.74 0.51,5.78 -0.75,14.47 -1.52,7.85 -0.37,1.98 -0.08,1.55 0.32,5.06 -0.36,1.94 -1.81,0.34 -8.27,-1.51 -1.09,-0.04 -19.48,5.35 -1.97,0.47 -0.8,-0.03 -0.77,-0.6 -0.64,-0.9 -2.47,-5.08 -5.47,-9.07 -9.59,-3.39 -29.28,-3.84 -0.82,-9.71 0.34,-1.52 0.25,-2.07 0.32,-1.28 0.29,-1.79 0.45,-0.94 0.91,-0.1 1.2,0.43 0.74,-0.12 0.42,-0.71 0.35,-2.14 0.07,-1.22 -0.2,-0.71 -0.35,-0.18 -0.49,-0.22 -0.7,-0.57 -0.23,-0.25 -1.15,-0.47 -0.15,-0.75 0.68,-2.24 3.42,-8.12 -3.28,-0.15 -1.67,-0.29 -0.16,-0.98 0.66,-1.29 4.11,-5.17 0.2,-0.8 -0.07,-0.93 -0.41,-2.14 -0.31,-0.79 -0.34,-0.46 -0.35,-0.08 -0.31,-0.13 -0.21,-0.4 -0.01,-0.63 0.37,-1.51 0.3,-0.55 0.34,-0.26 0.33,0.13 0.31,0.2 0.6,0.47 0.26,0.06 0.23,-0.09 0.13,-0.35 0.06,-0.51 -0.09,-0.93 0.04,-0.98 0.07,-0.34 -0.33,-1.02 -1.89,-2.19 -1.63,-9.28 -2.38,-7.32 -0.06,-1.45 0.09,-1.01 0.4,-1.73 5.98,0.39 3.66,-1.54 0.32,0.01 0.28,0.22 0.23,-0.01 0.24,-0.14 0.26,-0.29 0.16,-0.08 0.16,0.07 0.16,0.17 0.29,0.22 0.28,-0.06 2.07,-1.55 0.49,-0.16 0.53,0.05 0.55,0.17 0.93,0.18 0.43,-0.01 0.26,-0.14 0.23,-0.54 0.3,-0.28 1.99,-0.68 15.5,-0.05 1.33,1.33 0.73,0.97 0.1,0.59 -0.98,0.26 -0.99,0.59 -0.58,1.18 1.56,3.34 4.61,7.66 -0.08,1.65 -0.2,0.95 1.37,3.54 2.34,2.64 1.85,1.08 0.36,0.39 1.85,3 0.98,0.99 1.92,1.61 0.63,0.77 0.44,1.11 0.16,1.08 -0.23,1.42 -0.32,0.86 -0.62,1.27 -0.07,0.91 0.03,0.65 0.96,2.88 5.31,3.32 0.73,0.57 0.68,0.67 0.76,1.03 0.35,0.71 0.2,0.62 0.06,0.62 -0.03,0.77 -0.26,2.49 -0.01,0.73 0.07,0.67 0.13,0.58 0.22,0.5 0.41,0.54 2.59,2.09 0.82,0.8 2.34,1.22 z"
     title="Dhi-Qar"
     id="IQ-DQ" />
  <path
     d="m 383.47089,362.681 0,0 3.45,0.47 0.38,1.12 1.5,0.64 4.21,0.51 0.69,1.05 1.31,0.4 0.22,0.58 -0.1,0.67 -0.79,1.9 -0.15,1 0.32,1.06 0.89,1.04 5.94,5.62 1.09,1.46 0.73,1.33 0.57,0.87 0.95,0.62 3.76,1.39 4.12,1.22 0.18,0.85 -0.44,0.38 -0.22,0.32 0.03,0.44 2.81,6.53 -0.4,1.73 -0.09,1.01 0.06,1.45 2.38,7.32 1.63,9.28 -0.49,0.54 -1.29,0.44 -2.55,0.03 -10.56,-3.47 -14.56,-2.87 -4.29,-0.14 -0.61,1.06 -9.65,2.32 -1.38,0.16 0.68,0.69 0.57,0.32 1.06,0.4 0.41,0.24 0.37,0.62 0.27,0.81 0.41,0.71 1.31,0.61 -0.09,1.05 -0.92,2.51 -1.85,3.66 -3.74,10.24 -1.26,7.27 -4.84,-2.61 -10.16,-7.5 -11.47,-4.75 -1.11,-0.72 -3.88,-4.6 -1.29,-2.38 0.3,-1.64 1.32,-1.5 1.27,-0.31 1.63,0.63 1.02,0.61 1.17,-1.67 -0.8,-5.24 0.04,-4.42 0.24,-2.28 -2,-9.95 0.42,-2.21 0.5,-1.7 0.48,-0.71 1.17,-0.47 2.17,-1.46 1.72,-0.66 0.32,-0.21 0.01,-0.32 -0.36,-0.46 -0.52,-0.42 -0.37,-0.35 -0.27,-0.44 -0.23,-0.47 0,-0.43 0.15,-0.37 0.61,-0.38 0.37,-0.07 0.28,-0.01 0.25,-0.3 0.2,-0.28 0.88,-2.83 1.79,0.57 3.3,2.01 0.78,0.29 0.71,-0.01 0.56,-0.19 0.5,-0.28 0.4,-0.37 1.15,-1.42 0.35,-0.28 0.9,-0.54 0.32,-0.27 0.25,-0.38 0.05,-0.52 -0.08,-0.65 -0.48,-0.42 -0.26,-0.31 -0.1,-0.32 0.18,-0.49 0.34,-0.62 0.58,-0.63 0.44,-0.2 0.36,0.03 0.34,0.29 0.68,0.7 0.37,0.18 0.41,-0.23 1.75,-1.67 2.61,-2 3.84,-1.57 5.13,-3.44 0.4,-0.38 0.73,-0.88 0.71,-0.54 2.67,-1.62 0.84,-0.33 0.51,-0.14 0.88,0.05 z"
     title="Al-Qadisiyah"
     id="IQ-QA" />
  <path
     d="m 414.17089,415.951 0,0 2.55,-0.03 1.29,-0.44 0.49,-0.54 1.89,2.19 0.33,1.02 -0.07,0.34 -0.04,0.98 0.09,0.93 -0.06,0.51 -0.13,0.35 -0.23,0.09 -0.26,-0.06 -0.6,-0.47 -0.31,-0.2 -0.33,-0.13 -0.34,0.26 -0.3,0.55 -0.37,1.51 0.01,0.63 0.21,0.4 0.31,0.13 0.35,0.08 0.34,0.46 0.31,0.79 0.41,2.14 0.07,0.93 -0.2,0.8 -4.11,5.17 -0.66,1.29 0.16,0.98 1.67,0.29 3.28,0.15 -3.42,8.12 -0.68,2.24 0.15,0.75 1.15,0.47 0.23,0.25 0.7,0.57 0.49,0.22 0.35,0.18 0.2,0.71 -0.07,1.22 -0.35,2.14 -0.42,0.71 -0.74,0.12 -1.2,-0.43 -0.91,0.1 -0.45,0.94 -0.29,1.79 -0.32,1.28 -0.25,2.07 -0.34,1.52 0.82,9.71 29.28,3.84 9.59,3.39 5.47,9.07 2.47,5.08 0.64,0.9 0.77,0.6 0.8,0.03 1.97,-0.47 0.99,4.28 0.97,6.39 0.5,1.95 0.77,1.74 5.86,8.57 0.52,1.3 0.35,1.38 0.19,1.77 -0.01,1.97 -4.88,26.04 -0.74,6.94 -0.05,8.79 -0.26,1.76 -2.2,3.82 -0.7,1.57 -0.48,1.78 -1.29,13.78 -0.31,1.68 -0.01,0.05 -1.74,1.94 -2.61,0.56 -2.61,0.56 -1.05,0.22 -1.56,0.33 -2.6,0.56 -6.29,-0.57 -4.54,-0.41 -4.55,-0.41 -4.54,-0.42 -4.55,-0.41 -6.11,-0.55 -6.11,-0.56 -6.12,-0.55 -6.11,-0.56 -6.11,-0.55 -6.12,-0.56 -6.11,-0.55 -6.11,-0.56 -4.75,-0.42 -4.75,-0.44 -4.74,-0.43 -4.76,-0.43 -5.46,-0.49 -0.39,-0.15 -0.37,-0.15 -0.39,-0.16 -0.38,-0.14 -4.59,-3.71 -5.67,-4.6 -5.7,-4.6 -5.68,-4.6 -5.69,-4.61 -6.83,-5.54 -6.83,-5.55 -6.83,-5.55 -3.94,-3.2 0.76,-1.33 13.1,-22.98 10.74,-31 2.12,-4.23 2.44,-3.2 0.94,-0.95 2.95,-2.15 3.6,-1.52 0.41,-0.29 2.91,-4.55 2.32,-2.74 2.77,-2.52 2.84,-5.05 1.44,-3.34 4.51,-24.59 10.16,7.5 4.84,2.61 1.26,-7.27 3.74,-10.24 1.85,-3.66 0.92,-2.51 0.09,-1.05 -1.31,-0.61 -0.41,-0.71 -0.27,-0.81 -0.37,-0.62 -0.41,-0.24 -1.06,-0.4 -0.57,-0.32 -0.68,-0.69 1.38,-0.16 9.65,-2.32 0.61,-1.06 4.29,0.14 14.56,2.87 10.56,3.47 z"
     title="Al-Muthannia"
     id="IQ-MU" />
  <path
     d="m 531.28089,443.961 0,0 -0.21,16.85 19.61,0 0.63,0.39 0.19,0.89 -0.2,33.43 0,0 0.09,2.13 6.32,0.9 0.66,0.23 0.62,0.39 1,1.07 0.76,1.36 0.54,1.51 0.49,3.05 0.26,0.66 0.48,0.5 0.66,0.3 0.7,0.11 0.73,-0.03 2.18,-0.37 0.75,0.04 0.72,0.24 0.56,0.48 1.21,2.03 1.92,2.19 2.32,2.12 0.39,0.59 0.3,0.7 0.12,0.75 -0.16,0.73 -0.43,0.6 -0.58,0.51 -0.46,0.58 -0.13,0.76 0.11,0.48 0.75,1.6 1.19,1.35 0.34,0.71 0.16,0.12 1.09,3.42 0.12,0.9 0.53,1.34 0.28,0.46 0.39,0.39 0.83,0.66 0.88,0.54 1.85,0.52 0.42,0.19 0,0 -0.02,0.04 0,0.32 1.45,-0.02 0.25,0.68 -0.74,0.82 -1.57,0.4 -6.48,-0.66 -4.56,-1.58 -2.14,-1.59 -2.08,-0.65 -3.31,-2.1 -2.59,-0.9 -2.78,-0.52 -2.55,-0.04 -2.27,0.6 -4.14,2.26 -0.42,-1.81 -0.2,-2.08 -0.41,-1.91 -1,-1.3 0.73,2.25 0.08,0.84 -0.14,0.89 -0.26,0.83 -0.05,0.74 0.45,0.62 -0.03,1.62 -12.92,-6.51 -3.41,-0.67 -15.41,0 -3.44,0.42 -9.61,3.99 -3.13,2.13 -2.04,2.92 -5.07,12.99 -2.18,4.08 -0.31,0.99 -0.23,2.08 -0.15,0.69 -1.16,2.57 -4.46,7.41 -1.77,4.65 -0.89,1.34 -3.82,4.21 -3.73,6.3 -8.97,10.06 0.01,-0.05 0.31,-1.68 1.29,-13.78 0.48,-1.78 0.7,-1.57 2.2,-3.82 0.26,-1.76 0.05,-8.79 0.74,-6.94 4.88,-26.04 0.01,-1.97 -0.19,-1.77 -0.35,-1.38 -0.52,-1.3 -5.86,-8.57 -0.77,-1.74 -0.5,-1.95 -0.97,-6.39 -0.99,-4.28 19.48,-5.35 1.09,0.04 8.27,1.51 1.81,-0.34 0.36,-1.94 -0.32,-5.06 0.08,-1.55 0.37,-1.98 1.52,-7.85 0.75,-14.47 -0.51,-5.78 0.66,-4.28 1.11,-1.74 1.22,-1.03 2.07,-0.98 8.27,-2.16 2.69,-0.22 8.51,0.85 8.27,2.12 0.02,0 z"
     title="Al-Basrah"
     id="IQ-BA" />
  <path
     d="m 341.47089,291.901 0,0 1.88,-1.44 0.2,0.2 0.25,0.32 0.08,0.81 0.15,0.65 0.32,1 0.04,0.21 -0.04,0.11 -0.03,0.16 -0.06,0.86 -0.3,0.7 0.08,2.11 0.07,2.16 -0.15,0.53 -0.18,0.47 -0.28,0.18 -0.22,-0.02 -0.02,-0.2 0.15,-0.22 0,-0.64 -0.41,1.14 0.13,0.6 0.24,0.5 0.02,0.3 -0.07,0.28 -0.37,0.44 -0.19,0.19 -0.57,0.84 -0.09,3.08 0,0 -9.9,-0.5 -1.53,-0.43 -0.77,-0.12 -0.78,0.11 -0.7,-0.75 -1.59,-1.01 -0.7,-0.69 -0.59,-1.23 -0.29,-1.45 -0.01,-1.5 0.24,-1.37 0.71,-1.4 1.89,-2.04 0.56,-1.39 0,-0.36 -0.08,-0.32 3.1,-0.85 0.78,-2.51 0.41,-0.49 0.34,0.06 4.28,0.18 0.59,0.11 1.19,0.65 0,0.01 2.22,1.97 z"
     title="Baghdad"
     id="IQ-BG" />
  <path
     d="m 319.72089,335.301 0,0 1.65,0.25 2.08,0.56 0.32,0.05 0.28,-0.05 0.64,-0.35 0.31,-0.14 0.28,-0.01 0.36,0.15 0.41,0.3 1.45,1.48 0.24,0.56 0.02,0.42 0.03,0.8 -0.55,0.59 -2.11,7.69 0.14,2.65 0.98,2.4 3.36,4.93 0.42,1.42 -0.57,1.41 -0.29,1.16 0.44,1.48 1.24,2.45 0.19,0.76 -0.72,1.77 -0.1,0.43 -0.27,0.79 -0.28,0.38 -0.5,-0.3 -0.72,-0.64 -1.55,0.19 -5.57,1.74 -27.8,8 -2.88,-2.46 -9.84,-7.4 -14.05,-14.26 -1.44,-2.16 -0.42,-2.15 3.18,-1.68 2.8,-1.07 7.3,-1.03 1.27,-0.18 0.66,-0.19 1.61,-1.06 11.16,-9.89 4.73,-2.32 5.05,-0.63 6.83,-0.01 10.23,3.17 z"
     title="Karbala"
     id="IQ-KA" />
  <path
     d="m 334.27089,380.271 0,0 2.12,-2.03 1.24,-0.85 0.27,0.02 0.5,-0.1 0.46,0.05 2.93,-2.11 1.63,0.86 1.33,1.13 1.78,1.02 3.03,1 -0.88,2.83 -0.2,0.28 -0.25,0.3 -0.28,0.01 -0.37,0.07 -0.61,0.38 -0.15,0.37 0,0.43 0.23,0.47 0.27,0.44 0.37,0.35 0.52,0.42 0.36,0.46 -0.01,0.32 -0.32,0.21 -1.72,0.66 -2.17,1.46 -1.17,0.47 -0.48,0.71 -0.5,1.7 -0.42,2.21 2,9.95 -0.24,2.28 -0.04,4.42 0.8,5.24 -1.17,1.67 -1.02,-0.61 -1.63,-0.63 -1.27,0.31 -1.32,1.5 -0.3,1.64 1.29,2.38 3.88,4.6 1.11,0.72 11.47,4.75 -4.51,24.59 -1.44,3.34 -2.84,5.05 -2.77,2.52 -2.32,2.74 -2.91,4.55 -0.41,0.29 -3.6,1.52 -2.95,2.15 -0.94,0.95 -2.44,3.2 -2.12,4.23 -10.74,31 -13.1,22.98 -0.76,1.33 -2.9,-2.35 -6.83,-5.56 -6.83,-5.56 -6.84,-5.57 -6.83,-5.57 -5.26,-4.29 -5.26,-4.29 -5.25,-4.3 -5.26,-4.3 -6.3,-5.16 -0.01,0 -0.01,0 0,-0.01 -4.49,-3.9 0.44,-0.7 1.55,-3.72 3.87,-7.24 1.78,-4.28 0.76,-2.43 0.73,-6.13 0.2,-0.69 0.45,-1.04 2.05,-3.52 3.36,-4.76 0.44,-0.96 0.39,-1.46 0.41,-3.41 0.2,-0.87 2.34,-6.21 0.26,-1.5 -0.05,-1.03 -0.22,-0.5 -0.11,-0.6 0,-0.92 0.16,-1.2 0.56,-1.69 6.33,-13.62 0.88,-2.59 0.33,-1.96 0.08,-2.23 0.85,-1.54 9.28,-13.81 1.72,-1.87 1.11,-0.85 0.96,-0.46 1.25,-0.11 0.46,-0.11 1.78,-1.17 0.7,-0.3 3.8,-0.6 0.96,-0.36 0.8,-0.49 1.52,-1.23 5.55,-3.09 1.02,-0.98 1.06,-1.27 0.31,-2.11 0.06,-1.39 -6.27,-5.99 27.8,-8 5.57,-1.74 1.55,-0.19 0.72,0.64 0.5,0.3 0.28,-0.38 0.27,-0.79 0.1,-0.43 0.72,-1.77 0.85,3.38 0.4,0.68 0.37,0.37 -0.24,1.21 -1.44,0.81 -0.44,0.71 0.1,0.77 0.47,1.31 1.13,1.82 0.39,0.45 0.44,0.69 0.3,0.6 0.9,1.21 z"
     title="An-Najaf"
     id="IQ-NA" />
  <path
     d="m 273.70089,142.381 0,0 -1.09,0.6 -0.99,1.65 -0.53,0.05 -0.36,-0.15 -0.33,-0.53 -0.01,-0.34 -0.05,-0.32 -0.24,-0.4 -0.07,-0.2 -0.04,-0.24 -0.17,-0.29 -0.24,-0.14 -0.91,-0.31 -0.39,1.09 0.27,0.67 -0.03,0.42 -0.14,0.43 -0.1,0.73 0.13,0.7 0.28,0.38 0.28,0.21 0.13,0.19 0.29,0.55 1.51,1.67 0.68,0.59 1.67,0.69 0.85,0.58 0.36,0.93 -0.06,0.21 -0.17,0.08 -0.21,0.07 -0.21,0.17 -0.18,0.44 0.12,0.29 0.21,0.23 0.06,0.31 -0.22,1.07 -0.18,0.44 -0.38,0.48 3.06,0.52 1.24,0.58 -0.22,1.4 -0.52,0.35 -0.68,0.23 -0.59,0.36 -0.25,0.8 0.22,0.65 0.52,0.92 0.6,0.82 0.47,0.35 3.92,4.26 0.79,1.15 1.56,0.73 1.08,0.78 0.57,0.87 1.37,0.92 4.62,2.14 11.91,7.16 3.89,2.34 4.19,1.59 5.06,2.27 3.62,2.22 4.98,5.02 4.54,3.51 0.6,0.16 0.9,-0.02 1.35,-1.61 0.25,-0.38 -0.02,-0.18 -0.62,-0.08 -0.22,-0.08 -0.11,-0.14 -0.02,-0.18 0.11,-0.32 -0.02,-0.16 -0.22,-0.47 -0.05,-0.31 0.2,-0.79 0.05,-0.39 -0.03,-0.71 0.07,-0.28 0.18,-0.28 0.75,-0.67 0.34,-0.43 0.21,-0.41 0.2,-0.73 0.94,-1.33 0.69,-0.38 0.21,-0.27 0.09,-0.23 0.01,-0.19 0.08,-0.18 0.28,-0.44 0.04,-0.25 -0.05,-0.25 0.03,-0.13 0.02,-0.19 0.24,-0.55 0.2,-0.36 0.01,-0.23 -0.02,-0.19 0.02,-0.13 0.05,-0.17 0.07,-0.6 0.92,-1.43 1.28,-1.29 1.31,-1.9 0.45,-0.45 0.73,-0.47 0.92,-0.45 1.63,-1.23 0.58,-0.9 0.05,-1.08 -1.2,-2.85 -0.06,-1.02 0.3,-1.3 0.49,-0.78 0.56,-0.7 0.44,-0.31 0.36,-0.17 0.75,-0.03 6.02,6.35 0.98,0.46 1.34,0.37 1.03,-0.37 6.53,0.28 2.23,0.41 5.13,3.6 0.72,0.87 0.15,0.32 0.05,0.28 -0.04,0.33 -0.19,0.98 0.14,5.17 -2.82,2.6 -1.96,1.02 -1.55,0.6 -0.7,0.56 -0.39,0.57 -0.04,0.48 0.07,0.47 0.05,0.6 -0.25,0.8 -0.8,1.34 -1.16,1.19 -0.85,0.7 -0.73,0.31 -1.68,0.5 -1.22,0.7 -0.58,0.52 -0.28,0.47 0,0.43 0.12,0.45 0.26,0.46 0.28,0.43 0.2,0.85 -0.1,1.06 -0.93,2 -0.75,1.03 -0.86,0.83 -0.98,0.67 -1.01,0.87 -0.66,0.79 -0.39,0.72 -0.3,0.87 -0.18,0.03 -0.32,-0.2 -2.17,-1.97 -0.65,-0.43 -0.52,-0.25 -0.92,-0.22 -1.19,-0.49 -0.53,-0.3 -0.24,0.13 -0.7,0.91 -0.13,0.39 -0.05,0.28 -0.04,0.68 0.9,2.35 -0.02,0.4 -0.15,0.55 -0.71,0.65 -0.08,0.19 0.08,0.07 0.16,0 0.22,0.1 0.22,0.23 0.27,0.57 -0.07,0.27 -0.2,0.2 -0.57,0.18 -0.24,0.02 -0.27,0.06 -0.24,0.19 -0.28,0.49 -0.04,0.27 0.04,0.12 0.12,-0.07 0.14,-0.12 0.15,-0.05 0.2,0.12 -0.03,0.17 -0.13,0.2 -0.28,0.34 0,0.2 0.12,0.14 0.23,0.04 0.2,-0.04 0.33,-0.21 0.19,-0.03 0.18,0.14 -0.04,0.19 -0.11,0.25 -0.21,0.67 -0.14,0.24 -0.4,0.42 0.07,0.26 0.14,0.36 0.21,0.71 -0.04,0.59 -0.4,1.35 -0.59,1.28 -0.46,0.73 0,0.32 0.17,0.41 0.33,0.49 0.55,0.62 0.45,0.37 0.43,0.24 0.69,0.86 -0.81,0.54 0.16,1.44 -0.05,0.28 -0.21,0.18 -0.3,0.11 -0.45,0.29 -0.11,0.4 0.01,1.32 -0.12,0.3 -0.17,0.07 -0.18,-0.15 -0.33,-0.37 -0.19,-0.04 -0.25,0.14 -0.23,0.19 -0.2,0.12 -0.21,0.04 -0.69,0.03 -0.53,0.19 -0.23,0.16 -1.24,1.84 -0.24,0.52 -0.15,0.59 -0.13,0.21 -0.18,0.11 -0.2,-0.01 -0.11,-0.08 -0.02,-0.11 0.15,-0.34 -0.02,-0.21 -0.11,-0.15 -0.35,0.06 -0.2,0.25 -0.24,0.4 -0.17,0.46 -0.25,0.23 -0.26,0.1 -0.72,-0.04 -0.55,0.12 -0.21,0.15 0.01,0.18 0.13,0.19 0.12,0.26 0.05,1.71 -0.07,0.2 -0.13,0.09 -0.7,0.02 -0.49,0.12 -0.25,0.21 -0.11,0.25 0.08,0.27 0.44,0.77 0.08,0.25 -0.01,0.3 -0.14,0.46 -0.24,0.24 -1.27,0.89 -0.1,0.23 0.31,0.5 0.08,0.35 -0.43,1.19 -0.16,0.9 -0.66,0.96 -0.04,0.34 0.01,0.6 0.19,0.19 0.28,0.06 0.42,-0.05 0.49,-0.14 1.63,-0.2 1.59,0.24 0.36,0.16 0.54,0.23 2.76,2.51 0.71,0.89 0.46,1.12 0.19,1.38 -0.05,1.34 -0.35,1.26 -2.04,3.21 -1.11,3.07 -0.12,0.65 -0.01,0.66 0.15,0.65 0.31,0.6 0.4,0.51 1.18,1.21 0.15,0.29 0,0.31 -0.84,1.33 -0.24,0.53 -0.88,3.88 0.69,1.65 -0.19,1.77 -0.5,1.86 -2.34,2.1 -1.04,0.76 -1.4,1.3 -0.88,1.07 -3.18,4.61 -4.4,-0.27 -2.02,-1.41 -2.22,-0.66 2,-1.56 -0.6,-0.66 -1.3,-2.26 -1.87,-4.69 -1.1,-2.05 -0.93,-1.02 -2.08,-1.9 -1.8,-0.54 -10.01,0.25 -5.41,-1.8 -7.33,-2.95 -6.4,-1.08 -3.16,-1.18 -8.2,-7.18 -9.56,-9.64 -4.09,-5.48 -3.13,-7.63 -0.59,-3.8 -0.91,-3.86 -1.52,-2.21 -0.47,-2.16 -0.27,-4.49 -1.13,-6.19 -7.14,4.08 -1.9,-0.26 -2.59,-1.48 -11.58,-9.54 -2.38,-10.5 -0.08,-15.89 -0.43,-1.03 1.5,-7.09 6.85,-1.52 21.26,-0.13 2.22,-0.3 0.64,-0.42 0.1,-0.46 -0.13,-0.34 -0.23,-0.36 -0.01,-0.17 0.29,-0.8 0.09,-0.34 -0.05,-0.28 -0.13,-0.45 -0.03,-0.18 -0.08,-0.2 -0.15,-0.68 -0.09,-0.09 -0.22,0.02 -0.15,-0.01 -0.18,-0.05 -0.25,0 -0.21,-0.03 -0.12,-0.07 -0.01,-0.12 0.12,-0.18 0.02,-0.17 -0.04,-0.11 -0.2,0.01 -0.11,-0.04 -0.08,-0.12 0,-0.26 -0.07,-0.08 -0.18,-0.03 -0.17,-0.08 -0.08,-0.15 -0.07,-0.42 -0.48,-0.86 -0.18,-0.53 -0.31,-0.1 -0.15,-0.01 -0.13,0.03 -0.1,-0.02 -0.06,-0.11 -0.06,-0.19 0.01,-0.52 0.21,-1.21 -0.04,-0.49 0.12,-0.46 0.24,-0.56 0.03,-0.38 -0.04,-0.16 -0.1,-0.03 -0.11,0.07 -0.13,0.03 -0.15,-0.07 -0.13,-0.16 -0.69,-1.89 -0.08,-0.57 -0.03,-0.54 -0.3,-0.52 -0.27,-0.37 -0.93,-0.73 -0.47,-0.45 -1.63,-2.12 -0.13,-0.46 -0.02,-0.96 -0.3,-0.49 -0.13,-0.56 -0.03,-0.48 0.17,-0.98 0.09,-0.2 0.25,-0.39 0.33,-0.63 0.1,-0.45 -0.13,-0.5 -0.59,-1.41 -0.53,-0.85 0.03,-0.1 0.11,-0.12 0.2,-0.16 0.21,-0.42 0.18,-0.3 0.19,-0.21 0.16,-0.09 0.23,0.03 0.22,-0.01 0.18,0.03 0.13,-0.05 0.1,-0.07 0.11,-0.03 0.14,0.02 0.21,-0.02 1.69,-0.76 0.74,-0.49 1.39,-1.18 0.59,-0.37 0.48,-0.15 1.03,-0.09 7.21,-4.95 3.91,-1.64 1.14,-0.81 1.17,-0.34 0.84,-0.65 0.89,-1.62 0.46,-0.55 0.85,-0.28 0.8,-0.07 0.6,-0.32 0.23,-1.06 0.12,-0.55 0.58,-0.54 -0.39,2.01 -0.13,0.32 -0.24,0.44 0.07,0.27 0.16,0.25 0.28,0.31 0.29,0.44 0.29,0.71 0.24,0.91 -0.12,0.58 -0.16,0.48 0.06,0.29 0.16,0.19 0.28,0.12 0.27,0.04 0.33,0.19 0.37,0.4 0.46,0.86 0.21,1.12 0.26,5.7 -0.03,0.66 -0.08,0.48 -0.25,0.97 -0.06,0.9 -0.07,0.39 -0.15,0.23 -0.15,0.06 -0.48,0.14 z"
     title="Sala ad-Din"
     id="IQ-SD" />
  <path
     d="m 301.73089,27.481 0,0 3.8,2.06 1.36,0.31 0.35,-0.08 0.33,0.09 0.32,0.24 1.32,1.3 1.21,0.75 0.83,0.66 0.77,0.4 0.36,0.29 0.3,0.46 0.08,0.36 0.16,0.37 0.28,0.47 -0.04,0.21 -0.14,0.12 -0.24,0.05 -0.16,0.11 -0.01,0.14 0.14,0.14 0.97,-0.04 0.22,-0.06 0.26,0.08 0.24,0.21 0.38,0.59 0.03,0.35 -0.06,0.31 -0.08,0.2 0.05,0.21 0.49,0.79 0.23,0.14 0.45,-0.06 0.27,-0.07 0.26,-0.01 0.55,0.12 1.78,0.17 0.21,0.09 0.28,0.19 0.2,0.39 0.28,0.31 0.43,0.3 5.62,2.48 1,0.79 0.5,0.31 0.33,0.31 0.11,0.3 0.06,0.63 0.05,0.34 0.62,0.65 0.19,0.55 0.36,0.84 0.16,0.07 0.13,-0.05 0.15,-0.14 0.14,-0.07 0.14,0.02 0.13,0.12 0.11,0.23 0.05,0.27 -0.03,0.36 -0.31,0.65 -2.13,2.85 -1.68,1.51 -0.94,1.49 -1.02,0.34 -0.46,0.33 -1.63,1.47 -1.02,0.64 -0.76,0.67 -0.62,0.11 -0.23,-0.11 -0.08,-0.22 0.02,-0.2 -0.1,-0.14 -0.21,-0.14 -0.34,-0.09 -0.3,-0.02 -0.32,0.1 -0.6,0.28 -0.21,0.02 -0.23,-0.03 -0.2,0.08 -0.17,0.19 -0.09,0.4 -0.02,0.29 -0.09,0.26 -0.18,0.09 -0.4,-0.13 -0.18,-0.22 -0.06,-0.26 0.06,-0.29 0.11,-0.28 0.08,-0.25 -0.04,-0.18 -0.13,-0.08 -0.26,-0.01 -0.28,0.05 -0.33,0.11 -0.28,0.04 -0.28,-0.06 -0.25,-0.14 -0.18,-0.2 -0.08,-0.21 -0.07,-0.25 -0.11,-0.21 -0.12,-0.02 -0.14,0.13 -0.02,0.38 0.08,0.27 0.21,0.35 -0.06,0.18 -0.29,0.03 -0.18,-0.07 -0.16,-0.13 -0.32,0.17 -0.5,0.41 -1.51,1.74 -0.24,0.63 -0.17,0.3 -0.23,0.35 -0.6,0.49 -0.41,0.54 -0.84,0.64 -0.37,0.12 -0.3,-0.09 -0.16,-0.26 -0.19,-0.2 -0.19,-0.16 -0.18,0.03 -0.15,0.2 -0.07,0.54 0.05,0.9 -0.12,0.46 -0.28,0.42 -0.54,0.19 -0.37,0.02 -1.51,-0.19 -0.24,0.15 -0.14,0.32 0.03,0.72 0.13,0.32 0.13,0.25 0.09,0.26 0.02,0.28 0,0.32 -0.07,0.39 -0.2,0.36 -0.57,0.44 -0.47,0.26 -0.43,0.15 -0.43,0 -0.67,-0.12 -0.21,0.02 -0.16,0.19 -0.04,0.28 0.26,0.68 0.09,0.67 0.06,1.09 -0.43,1.48 -1.02,1.74 -2.5,3.01 -0.96,0.9 -1.11,0.71 -0.46,0.22 -0.85,1.01 -1.35,0.59 -0.47,0.43 -0.47,0.65 -0.7,1.21 -0.54,0.73 -1.88,1.71 -0.31,0.48 -0.32,0.86 -0.69,1.45 -1.15,0.86 -0.5,0.07 -0.21,0.23 -0.31,0.66 -0.13,0.53 -0.16,0.48 -1.28,2.38 -0.13,0.62 -0.02,0.49 0.1,1.46 -0.08,0.36 -0.17,0.38 -0.84,1.26 -0.65,0.61 -7.73,3.26 -0.49,0.76 0.37,1.86 0.64,0.65 0.97,0.13 0.77,0.01 0.2,0.52 0.01,1.37 -0.54,5.11 -0.64,1.47 -0.44,0.44 -0.47,0.1 -0.43,-0.01 -0.33,0.21 -0.31,0.48 -1.29,2.97 -0.24,0.87 0.05,0.62 0.08,0.42 0.98,2.31 -0.58,0.54 -0.12,0.55 -0.23,1.06 -0.6,0.32 -0.8,0.07 -0.85,0.28 -0.46,0.55 -0.89,1.62 -0.84,0.65 -1.17,0.34 -1.14,0.81 -3.91,1.64 -7.21,4.95 -1.03,0.09 -0.48,0.15 -0.59,0.37 -1.39,1.18 -0.74,0.49 -1.69,0.76 -0.21,0.02 -0.14,-0.02 -0.11,0.03 -0.1,0.07 -0.13,0.05 -0.18,-0.03 -0.22,0.01 -0.23,-0.03 -0.16,0.09 -0.19,0.21 -0.18,0.3 -0.21,0.42 -0.2,0.16 -0.11,0.12 -0.03,0.1 0.53,0.85 0.59,1.41 0.13,0.5 -0.1,0.45 -0.33,0.63 -0.25,0.39 -0.09,0.2 -0.17,0.98 0.03,0.48 0.13,0.56 0.3,0.49 0.02,0.96 0.13,0.46 1.63,2.12 0.47,0.45 0.93,0.73 0.27,0.37 0.3,0.52 0.03,0.54 0.08,0.57 0.69,1.89 0.13,0.16 0.15,0.07 0.13,-0.03 0.11,-0.07 0.1,0.03 0.04,0.16 -0.03,0.38 -0.24,0.56 -0.12,0.46 0.04,0.49 -0.21,1.21 -0.01,0.52 0.06,0.19 0.06,0.11 0.1,0.02 0.13,-0.03 0.15,0.01 0.31,0.1 0.18,0.53 0.48,0.86 0.07,0.42 0.08,0.15 0.17,0.08 0.18,0.03 0.07,0.08 0,0.26 0.08,0.12 0.11,0.04 0.2,-0.01 0.04,0.11 -0.02,0.17 -0.12,0.18 0.01,0.12 0.12,0.07 0.21,0.03 0.25,0 0.18,0.05 0.15,0.01 0.22,-0.02 0.09,0.09 0.15,0.68 0.08,0.2 0.03,0.18 0.13,0.45 0.05,0.28 -0.09,0.34 -0.29,0.8 0.01,0.17 0.23,0.36 0.13,0.34 -0.1,0.46 -0.64,0.42 -2.22,0.3 -21.26,0.13 -6.85,1.52 -1.5,7.09 -13,1.77 -1.81,-0.78 -2.09,-0.99 -1.08,-0.23 -8.38,1.1 -3.88,-0.25 -7.88,-3.1 -16.33,-6.78 -4.01,-0.64 -10.08,-2.91 -7.66,-0.72 -1.28,-0.03 -0.05,-1.7 0.59,-4.44 2.49,-9.03 0.52,-7.14 0.55,-2.21 0.01,0 0,0 0,-0.01 2.82,-4.24 2.01,-3.04 0.94,-2.22 0.33,-2.3 -0.25,-10.1 -0.29,-2.42 -0.65,-2.36 -4.61,-10.06 0,-0.01 0,0.01 -1.53,-3.6 -0.24,-1.27 0,-1.23 1.92,-18.55 0.49,-1.99 5.26,-10.31 0,-0.01 0.01,0 0,-0.01 1.2,-1.65 1.75,-0.82 3.87,-0.65 18.51,-3.95 1.63,-0.77 1.58,-1.35 8.04,-8.61 11.92,-12.79 6.15,-6.62 0.02,0 0,0 0,-0.01 3.82,-3.64 1.84,-1.43 0.42,1.59 0.82,1.77 1.02,1.6 2.26,2.25 1.08,0.79 1.04,-0.02 1.16,-1.34 0.02,1.14 -0.27,1.49 0.04,1.2 0.99,0.25 -0.44,1.63 0.13,0.69 0.51,0.56 0.65,1.24 -1.56,0.1 -0.28,0.79 0.65,0.59 1.19,-0.46 1.86,0.96 1,0.75 0.82,2.28 0.95,0.49 2.52,0.05 0.29,-0.15 0.26,-0.33 0.32,-0.34 0.53,-0.15 0.72,0.16 0.53,0.39 1.82,2.06 1.05,0.95 0.56,0.28 0.48,0.05 0.47,0.14 0.52,0.55 -1.34,0.51 -0.55,0.44 -0.14,0.57 0.4,0.62 0.62,-0.05 2.11,-1.05 0.49,0.03 0.86,0.45 0.44,0.39 0.3,0.48 0.51,1.16 0.5,-0.9 0.57,-0.43 0.69,-0.14 0.87,-0.01 0.72,0.17 4.89,-2.73 7.81,-1.08 2.39,-0.21 1.99,-1.03 0.9,-0.63 0.26,-1.18 0.55,-1.33 0.52,-1.68 1.75,-2.9 1.83,-2.23 0.44,-0.75 0.84,-0.65 0.95,-0.32 2.27,0.26 0.92,0.49 0.93,0.75 0.8,0.86 1.8,1.3 1.06,0.98 1.9,0.93 8.65,2.34 0.85,0.17 0.4,-0.03 0.16,-0.33 0.06,-0.37 0,-0.42 0.1,-0.38 0.2,-0.27 0.43,-0.24 0.55,-0.09 1.02,0.34 0.21,0.14 0.22,-0.01 0.2,-0.21 0.26,-0.83 0.07,-0.47 0.02,-0.39 -0.05,-0.27 -0.05,-0.21 -0.02,-0.37 -0.04,-0.19 -0.01,-0.18 0,-0.24 -0.03,-0.25 -0.11,-0.45 0.04,-0.17 0.33,-0.13 0.27,-0.18 0.28,-0.31 0.5,-1.03 0.1,-0.37 0.02,-0.34 -0.05,-0.37 -0.07,-0.37 -0.15,-0.35 -0.19,-0.23 -0.33,-0.14 -0.37,-0.08 -1.01,-0.32 -0.5,-0.27 -0.46,-0.1 -0.83,-0.03 -0.36,-0.1 -0.3,-0.15 -0.61,-0.45 -0.16,-0.24 -0.07,-0.21 -0.03,-0.21 -0.17,-0.35 -0.02,-0.23 -0.01,-0.26 0.03,-0.28 0.15,-0.56 0.22,-0.59 0.08,-0.62 -0.01,-0.27 0.06,-0.2 0.28,-0.62 0.18,-0.26 0.26,-0.28 0.21,-0.15 0.19,-0.06 0.26,0.02 0.28,0.08 1.06,0.59 0.68,0.19 4.18,0.75 1.66,0.66 1.88,0.46 z"
     title="Ninawa"
     id="IQ-NI" />
  <path
     d="m 328.97089,30.661 0,0 0.74,-0.05 0.57,-0.55 0.55,-1.25 0,0 0.01,0 0,-0.01 0.93,-1.59 0.21,-1.18 0.47,-0.84 5.07,-1.67 1.57,-0.86 1.48,-1.17 1.44,-1.85 2.15,-2.02 2.32,-1.7 1.91,-0.9 1.11,-0.05 6.25,0.89 1.2,0.6 0.73,1.29 -0.81,2.15 0.01,0.74 0.48,1.32 0.35,0.5 0.42,0.2 0.45,0.14 0.43,0.31 0.23,0.49 0.3,1.14 0.28,0.37 0.55,0.12 1.18,-0.37 0.58,-0.03 0.41,0.24 0.68,0.74 1.3,0.69 0.4,0.67 -0.1,0.81 -0.66,0.83 -0.33,1.99 0.34,1.32 0.55,1.22 0.28,1.67 -0.32,1.8 -0.82,1.33 -2.12,2.6 -0.64,1.84 0.47,1.3 1.19,0.8 1.55,0.35 1.85,-0.1 0.86,0.14 0.75,0.66 0.55,0.66 0.62,0.44 0.69,0.22 0.78,0.03 1,0.54 0.88,1.2 1.45,2.68 0.63,1.6 -0.09,1.39 -1.16,2.69 -0.64,2.54 -0.06,1.56 -0.17,0.15 -0.74,0.29 -0.27,0.18 -0.12,1.18 0.87,1.12 0.21,0.18 0,0.01 -0.24,0.7 -0.33,0.73 -0.8,1.23 -0.67,0.48 -0.86,0.32 -2.06,-0.14 -2.54,-0.64 -1.22,0.03 -1.32,0.29 -3.1,1.56 -2.61,0.69 -2.72,0.44 -1.71,-0.5 -0.98,-0.15 -1.25,0.41 -1.82,1.39 -1.15,1.35 -0.67,0.97 -1.96,1.75 -0.02,1.57 0.33,0.86 3.43,5.26 0.58,-0.67 0.39,-0.28 0.63,0.02 0.59,0.5 2.99,3.63 0.34,0.56 0.17,0.61 -0.56,0.63 -1.38,0.65 -0.47,0.35 -0.3,0.6 -0.34,0.5 -0.46,0.47 -1.28,1.04 0.26,0.93 0.32,0.68 5.98,4.27 1.36,0.59 0.71,0.47 0.57,0.47 4.37,5.29 1.88,1.78 1.48,1.03 4.04,2.02 0.4,0.49 0.08,0.21 0.02,0.2 -0.03,0.17 -0.09,0.17 -0.13,0.43 -0.12,0.21 -0.38,0.31 -0.43,0.15 -0.63,0.09 -1.36,-0.03 -0.57,-0.17 -0.32,-0.2 -0.11,-0.16 -0.13,-0.09 -0.13,-0.1 -0.28,-0.3 -0.2,-0.12 -0.29,-0.05 -0.64,0.09 -0.21,-0.02 -0.37,-0.17 -0.21,-0.01 -0.47,0.09 -0.17,0.1 -0.04,0.2 0.65,1.2 0.06,0.18 -0.33,0.46 -0.92,0.32 -0.57,0.58 -0.18,0.05 -0.15,-0.1 -0.12,-0.4 -0.06,-1.09 -0.11,-0.2 -0.19,-0.15 -0.22,-0.08 -0.18,0.01 -0.26,0.23 -0.16,0.24 -0.1,0.23 -0.06,0.49 -0.05,0.24 -0.18,0.16 -0.28,-0.03 -0.48,-0.38 -0.22,-0.34 -0.26,-0.28 -0.27,-0.11 -0.37,-0.03 -0.51,0.19 -0.32,0.21 -0.34,0.13 -0.32,-0.03 -0.34,-0.29 -0.31,-0.5 -0.3,-0.09 -0.47,-0.02 -1.42,0.44 -0.35,0.05 -0.29,-0.05 -0.22,-0.3 -0.02,-0.22 0.01,-0.18 -0.02,-0.17 -0.1,-0.16 -0.18,-0.12 -0.25,-0.01 -0.66,0.38 -0.22,0.04 -0.24,-0.24 -0.17,-0.24 -0.27,-0.13 -0.18,-0.03 -1.09,0.51 -0.35,-0.62 0,-0.71 -0.18,-0.27 -0.2,-0.03 -0.64,0.32 -0.28,0.19 -0.17,0.24 -0.22,0.56 -0.22,0.36 -0.5,0.41 -0.35,0.38 -0.24,0.34 -0.3,0.31 -0.24,-0.04 -0.63,-0.41 -0.23,0.06 -0.23,0.16 -0.04,0.24 0.06,0.24 0.07,0.24 0.04,0.25 -0.11,0.34 -0.22,0.05 -0.22,-0.15 -0.39,-0.56 -0.24,-0.26 -0.44,-0.16 -0.36,0.1 -0.52,0.29 -0.27,0.04 -0.17,-0.09 -0.16,-0.21 -1.31,-0.41 -1.28,0.75 -0.52,0 -0.74,-0.12 -0.45,0.05 -0.31,0.22 -0.26,0.26 -0.33,0.2 -1.12,0.48 -0.2,0.16 -0.31,0.63 -0.18,0.04 -0.19,-0.05 -0.26,-0.12 -0.94,-0.16 -0.36,-0.1 -0.73,-0.38 -0.23,0.01 -0.29,0.46 -0.34,0.31 -0.86,0.47 -0.58,0.15 -0.49,0.03 -0.35,-0.07 -1.12,-0.58 -1.31,-0.25 -3.28,-0.64 -0.99,0.2 -1.38,0.53 -0.87,2.34 -0.52,1.09 -0.56,0.35 -1.27,0.24 -2.23,0.09 -6.29,-4.52 -1.35,-0.51 -0.92,0.18 -0.6,1.62 -4.3,4.68 -3.65,3.1 -0.37,0.63 0.04,0.47 0.38,0.34 1.32,1.49 0.37,0.66 0.24,0.67 -0.04,0.82 -0.51,0.67 -0.77,0.72 -0.9,1.12 -0.41,0.86 -0.33,1.82 -0.61,2.19 -0.6,0.79 -0.64,0.27 -1.27,0.11 -1.94,1.17 -1.99,0.17 -1.33,-0.03 -0.81,0.37 -0.58,0.79 -0.69,2.12 -0.52,0.87 -0.95,0.54 -1.16,0.19 -2.55,0.12 -0.92,0.28 -1.19,1.07 -0.6,0.11 -0.63,-0.02 -1.26,-0.34 -0.57,-0.28 -2.69,-1.71 0.48,-0.14 0.15,-0.06 0.15,-0.23 0.07,-0.39 0.06,-0.9 0.25,-0.97 0.08,-0.48 0.03,-0.66 -0.26,-5.7 -0.21,-1.12 -0.46,-0.86 -0.37,-0.4 -0.33,-0.19 -0.27,-0.04 -0.28,-0.12 -0.16,-0.19 -0.06,-0.29 0.16,-0.48 0.12,-0.58 -0.24,-0.91 -0.29,-0.71 -0.29,-0.44 -0.28,-0.31 -0.16,-0.25 -0.07,-0.27 0.24,-0.44 0.13,-0.32 0.39,-2.01 -0.98,-2.31 -0.08,-0.42 -0.05,-0.62 0.24,-0.87 1.29,-2.97 0.31,-0.48 0.33,-0.21 0.43,0.01 0.47,-0.1 0.44,-0.44 0.64,-1.47 0.54,-5.11 -0.01,-1.37 -0.2,-0.52 -0.77,-0.01 -0.97,-0.13 -0.64,-0.65 -0.37,-1.86 0.49,-0.76 7.73,-3.26 0.65,-0.61 0.84,-1.26 0.17,-0.38 0.08,-0.36 -0.1,-1.46 0.02,-0.49 0.13,-0.62 1.28,-2.38 0.16,-0.48 0.13,-0.53 0.31,-0.66 0.21,-0.23 0.5,-0.07 1.15,-0.86 0.69,-1.45 0.32,-0.86 0.31,-0.48 1.88,-1.71 0.54,-0.73 0.7,-1.21 0.47,-0.65 0.47,-0.43 1.35,-0.59 0.85,-1.01 0.46,-0.22 1.11,-0.71 0.96,-0.9 2.5,-3.01 1.02,-1.74 0.43,-1.48 -0.06,-1.09 -0.09,-0.67 -0.26,-0.68 0.04,-0.28 0.16,-0.19 0.21,-0.02 0.67,0.12 0.43,0 0.43,-0.15 0.47,-0.26 0.57,-0.44 0.2,-0.36 0.07,-0.39 0,-0.32 -0.02,-0.28 -0.09,-0.26 -0.13,-0.25 -0.13,-0.32 -0.03,-0.72 0.14,-0.32 0.24,-0.15 1.51,0.19 0.37,-0.02 0.54,-0.19 0.28,-0.42 0.12,-0.46 -0.05,-0.9 0.07,-0.54 0.15,-0.2 0.18,-0.03 0.19,0.16 0.19,0.2 0.16,0.26 0.3,0.09 0.37,-0.12 0.84,-0.64 0.41,-0.54 0.6,-0.49 0.23,-0.35 0.17,-0.3 0.24,-0.63 1.51,-1.74 0.5,-0.41 0.32,-0.17 0.16,0.13 0.18,0.07 0.29,-0.03 0.06,-0.18 -0.21,-0.35 -0.08,-0.27 0.02,-0.38 0.14,-0.13 0.12,0.02 0.11,0.21 0.07,0.25 0.08,0.21 0.18,0.2 0.25,0.14 0.28,0.06 0.28,-0.04 0.33,-0.11 0.28,-0.05 0.26,0.01 0.13,0.08 0.04,0.18 -0.08,0.25 -0.11,0.28 -0.06,0.29 0.06,0.26 0.18,0.22 0.4,0.13 0.18,-0.09 0.09,-0.26 0.02,-0.29 0.09,-0.4 0.17,-0.19 0.2,-0.08 0.23,0.03 0.21,-0.02 0.6,-0.28 0.32,-0.1 0.3,0.02 0.34,0.09 0.21,0.14 0.1,0.14 -0.02,0.2 0.08,0.22 0.23,0.11 0.62,-0.11 0.76,-0.67 1.02,-0.64 1.63,-1.47 0.46,-0.33 1.02,-0.34 0.94,-1.49 1.68,-1.51 2.13,-2.85 0.31,-0.65 0.03,-0.36 -0.05,-0.27 -0.11,-0.23 -0.13,-0.12 -0.14,-0.02 -0.14,0.07 -0.15,0.14 -0.13,0.05 -0.16,-0.07 -0.36,-0.84 -0.19,-0.55 -0.62,-0.65 -0.05,-0.34 -0.06,-0.63 -0.11,-0.3 -0.33,-0.31 -0.5,-0.31 -1,-0.79 -5.62,-2.48 -0.43,-0.3 -0.28,-0.31 -0.2,-0.39 -0.28,-0.19 -0.21,-0.09 -1.78,-0.17 -0.55,-0.12 -0.26,0.01 -0.27,0.07 -0.45,0.06 -0.23,-0.14 -0.49,-0.79 -0.05,-0.21 0.08,-0.2 0.06,-0.31 -0.03,-0.35 -0.38,-0.59 -0.24,-0.21 -0.26,-0.08 -0.22,0.06 -0.97,0.04 -0.14,-0.14 0.01,-0.14 0.16,-0.11 0.24,-0.05 0.14,-0.12 0.04,-0.21 -0.28,-0.47 -0.16,-0.37 -0.08,-0.36 -0.3,-0.46 -0.36,-0.29 -0.77,-0.4 -0.83,-0.66 -1.21,-0.75 -1.32,-1.3 -0.32,-0.24 -0.33,-0.09 -0.35,0.08 -1.36,-0.31 -3.8,-2.06 1.19,-1.33 0.81,-0.41 0.49,-0.12 0.28,-0.27 0.23,-0.37 0.26,-0.81 0.2,-0.45 0.35,-0.3 1.04,-0.6 2.23,-0.9 0.27,-0.19 0.02,-0.15 -0.13,-0.16 -0.1,-0.23 0.26,-0.18 0.51,-0.18 1.07,-0.51 0.48,-0.3 0.35,-0.32 0.22,-0.41 0.89,-1.27 0.34,-0.3 1.23,-0.67 0.78,-0.31 0.31,-0.23 0.12,-0.22 -0.27,-0.51 0.04,-0.3 0.18,-0.42 0.72,-0.96 0.46,-0.46 0.65,-0.53 0.65,-0.28 0.06,-0.2 -0.01,-0.3 -0.16,-0.85 -0.09,-0.11 -0.11,-0.05 -0.37,-0.01 -0.22,-0.08 -0.16,-0.13 -0.11,-0.21 -0.05,-0.45 -0.11,-0.43 -0.02,-0.28 0.04,-0.3 0.17,-0.49 0.53,-1.09 0,-0.25 -0.08,-0.19 -0.18,-0.1 -0.11,-0.1 -0.13,-0.07 -0.13,-0.07 -0.09,-0.1 -0.04,-0.12 -0.13,-0.32 -0.14,-0.12 -0.2,-0.09 -0.2,-0.37 0.28,-1.07 1.14,0.19 5.75,2.4 1.34,0.87 0.97,1.01 0.7,1.3 0.51,1.72 0.3,1.64 0.07,0.93 -0.08,0.73 -0.49,0.88 -0.59,0.27 -0.69,0.13 -0.76,0.45 -1,1.3 -0.51,1.52 -0.04,1.59 0.45,1.55 2.4,5.44 0.39,0.78 0.54,0.44 2.47,0.64 z"
     title="Arbil"
     id="IQ-AR" />
  <path
     d="m 349.40089,110.991 0,0 3.29,7.26 1.52,1.66 1.36,1.87 2.77,2.47 0.49,1.45 0.06,1.23 -1.01,1.82 -0.24,0.77 -0.13,1.88 -0.24,0.86 -0.19,2.63 -0.21,2.11 0.15,0.72 0.4,0.74 1.27,1.43 1.15,1.58 0.07,0.84 -0.31,1.02 -0.61,1.23 -2.18,2.96 -0.45,1.43 0.17,1.08 0.37,1.24 0.24,1.09 -0.25,1.13 -0.65,1.55 -0.17,0.98 -0.16,0.45 -0.21,0.32 -0.45,0.14 -0.55,0.3 -0.72,0.51 -0.61,0.92 -0.23,0.67 -0.04,0.62 0.09,0.54 0.41,1.01 -0.17,0.61 -0.63,0.61 -4.64,1.47 -2.65,2.24 -0.75,0.03 -0.36,0.17 -0.44,0.31 -0.56,0.7 -0.49,0.78 -0.3,1.3 0.06,1.02 1.2,2.85 -0.05,1.08 -0.58,0.9 -1.63,1.23 -0.92,0.45 -0.73,0.47 -0.45,0.45 -1.31,1.9 -1.28,1.29 -0.92,1.43 -0.07,0.6 -0.05,0.17 -0.02,0.13 0.02,0.19 -0.01,0.23 -0.2,0.36 -0.24,0.55 -0.02,0.19 -0.03,0.13 0.05,0.25 -0.04,0.25 -0.28,0.44 -0.08,0.18 -0.01,0.19 -0.09,0.23 -0.21,0.27 -0.69,0.38 -0.94,1.33 -0.2,0.73 -0.21,0.41 -0.34,0.43 -0.75,0.67 -0.18,0.28 -0.07,0.28 0.03,0.71 -0.05,0.39 -0.2,0.79 0.05,0.31 0.22,0.47 0.02,0.16 -0.11,0.32 0.02,0.18 0.11,0.14 0.22,0.08 0.62,0.08 0.02,0.18 -0.25,0.38 -1.35,1.61 -0.9,0.02 -0.6,-0.16 -4.54,-3.51 -4.98,-5.02 -3.62,-2.22 -5.06,-2.27 -4.19,-1.59 -3.89,-2.34 -11.91,-7.16 -4.62,-2.14 -1.37,-0.92 -0.57,-0.87 -1.08,-0.78 -1.56,-0.73 -0.79,-1.15 -3.92,-4.26 -0.47,-0.35 -0.6,-0.82 -0.52,-0.92 -0.22,-0.65 0.25,-0.8 0.59,-0.36 0.68,-0.23 0.52,-0.35 0.22,-1.4 -1.24,-0.58 -3.06,-0.52 0.38,-0.48 0.18,-0.44 0.22,-1.07 -0.06,-0.31 -0.21,-0.23 -0.12,-0.29 0.18,-0.44 0.21,-0.17 0.21,-0.07 0.17,-0.08 0.06,-0.21 -0.36,-0.93 -0.85,-0.58 -1.67,-0.69 -0.68,-0.59 -1.51,-1.67 -0.29,-0.55 -0.13,-0.19 -0.28,-0.21 -0.28,-0.38 -0.13,-0.7 0.1,-0.73 0.14,-0.43 0.03,-0.42 -0.27,-0.67 0.39,-1.09 0.91,0.31 0.24,0.14 0.17,0.29 0.04,0.24 0.07,0.2 0.24,0.4 0.05,0.32 0.01,0.34 0.33,0.53 0.36,0.15 0.53,-0.05 0.99,-1.65 1.09,-0.6 2.69,1.71 0.57,0.28 1.26,0.34 0.63,0.02 0.6,-0.11 1.19,-1.07 0.92,-0.28 2.55,-0.12 1.16,-0.19 0.95,-0.54 0.52,-0.87 0.69,-2.12 0.58,-0.79 0.81,-0.37 1.33,0.03 1.99,-0.17 1.94,-1.17 1.27,-0.11 0.64,-0.27 0.6,-0.79 0.61,-2.19 0.33,-1.82 0.41,-0.86 0.9,-1.12 0.77,-0.72 0.51,-0.67 0.04,-0.82 -0.24,-0.67 -0.37,-0.66 -1.32,-1.49 -0.38,-0.34 -0.04,-0.47 0.37,-0.63 3.65,-3.1 4.3,-4.68 0.6,-1.62 0.92,-0.18 1.35,0.51 6.29,4.52 2.23,-0.09 1.27,-0.24 0.56,-0.35 0.52,-1.09 0.87,-2.34 1.38,-0.53 0.99,-0.2 3.28,0.64 1.31,0.25 1.12,0.58 0.35,0.07 0.49,-0.03 0.58,-0.15 0.86,-0.47 0.34,-0.31 0.29,-0.46 0.23,-0.01 0.73,0.38 0.36,0.1 0.94,0.16 0.26,0.12 0.19,0.05 0.18,-0.04 0.31,-0.63 0.2,-0.16 1.12,-0.48 0.33,-0.2 0.26,-0.26 0.31,-0.22 0.45,-0.05 0.74,0.12 0.52,0 1.28,-0.75 1.31,0.41 0.16,0.21 0.17,0.09 0.27,-0.04 0.52,-0.29 0.36,-0.1 0.44,0.16 0.24,0.26 0.39,0.56 0.22,0.15 0.22,-0.05 0.11,-0.34 -0.04,-0.25 -0.07,-0.24 -0.06,-0.24 0.04,-0.24 0.23,-0.16 0.23,-0.06 0.63,0.41 0.24,0.04 0.3,-0.31 0.24,-0.34 0.35,-0.38 0.5,-0.41 0.22,-0.36 0.22,-0.56 0.17,-0.24 0.28,-0.19 0.64,-0.32 0.2,0.03 0.18,0.27 0,0.71 0.35,0.62 z"
     title="Kirkuk"
     id="IQ-KI" />
  <path
     d="m 248.58089,4.401 0,0 2.54,-0.88 1.52,-1.15 2.29,-0.98 2.4,-0.64 1.85,-0.18 1.03,0.29 7.84,4.25 0.41,0.15 0.5,0.07 0.53,-0.11 0.55,-0.57 0.53,-0.24 1.1,-0.17 0.72,0.15 1.57,1.23 0.81,0.63 2.42,1.22 2.78,2.29 0.97,0.4 0.77,-0.11 1.47,-0.56 0.74,-0.12 0.77,0.12 0.49,0.26 1.09,0.83 1.51,0.62 1.44,0.18 6.11,-0.42 1.56,0.15 1.41,0.36 0.6,0.41 1.28,1.26 0.44,0.29 0.75,-0.2 1.07,-1.11 3.2,-0.58 1.82,-2.11 1.77,-2.58 2.18,-1.88 2.7,-0.43 1.99,0.34 -0.28,1.07 0.2,0.37 0.2,0.09 0.14,0.12 0.13,0.32 0.04,0.12 0.09,0.1 0.13,0.07 0.13,0.07 0.11,0.1 0.18,0.1 0.08,0.19 0,0.25 -0.53,1.09 -0.17,0.49 -0.04,0.3 0.02,0.28 0.11,0.43 0.05,0.45 0.11,0.21 0.16,0.13 0.22,0.08 0.37,0.01 0.11,0.05 0.09,0.11 0.16,0.85 0.01,0.3 -0.06,0.2 -0.65,0.28 -0.65,0.53 -0.46,0.46 -0.72,0.96 -0.18,0.42 -0.04,0.3 0.27,0.51 -0.12,0.22 -0.31,0.23 -0.78,0.31 -1.23,0.67 -0.34,0.3 -0.89,1.27 -0.22,0.41 -0.35,0.32 -0.48,0.3 -1.07,0.51 -0.51,0.18 -0.26,0.18 0.1,0.23 0.13,0.16 -0.02,0.15 -0.27,0.19 -2.23,0.9 -1.04,0.6 -0.35,0.3 -0.2,0.45 -0.26,0.81 -0.23,0.37 -0.28,0.27 -0.49,0.12 -0.81,0.41 -1.19,1.33 -1.88,-0.46 -1.66,-0.66 -4.18,-0.75 -0.68,-0.19 -1.06,-0.59 -0.28,-0.08 -0.26,-0.02 -0.19,0.06 -0.21,0.15 -0.26,0.28 -0.18,0.26 -0.28,0.62 -0.06,0.2 0.01,0.27 -0.08,0.62 -0.22,0.59 -0.15,0.56 -0.03,0.28 0.01,0.26 0.02,0.23 0.17,0.35 0.03,0.21 0.07,0.21 0.16,0.24 0.61,0.45 0.3,0.15 0.36,0.1 0.83,0.03 0.46,0.1 0.5,0.27 1.01,0.32 0.37,0.08 0.33,0.14 0.19,0.23 0.15,0.35 0.07,0.37 0.05,0.37 -0.02,0.34 -0.1,0.37 -0.5,1.03 -0.28,0.31 -0.27,0.18 -0.33,0.13 -0.04,0.17 0.11,0.45 0.03,0.25 0,0.24 0.01,0.18 0.04,0.19 0.02,0.37 0.05,0.21 0.05,0.27 -0.02,0.39 -0.07,0.47 -0.26,0.83 -0.2,0.21 -0.22,0.01 -0.21,-0.14 -1.02,-0.34 -0.55,0.09 -0.43,0.24 -0.2,0.27 -0.1,0.38 0,0.42 -0.06,0.37 -0.16,0.33 -0.4,0.03 -0.85,-0.17 -8.65,-2.34 -1.9,-0.93 -1.06,-0.98 -1.8,-1.3 -0.8,-0.86 -0.93,-0.75 -0.92,-0.49 -2.27,-0.26 -0.95,0.32 -0.84,0.65 -0.44,0.75 -1.83,2.23 -1.75,2.9 -0.52,1.68 -0.55,1.33 -0.26,1.18 -0.9,0.63 -1.99,1.03 -2.39,0.21 -7.81,1.08 -4.89,2.73 -0.72,-0.17 -0.87,0.01 -0.69,0.14 -0.57,0.43 -0.5,0.9 -0.51,-1.16 -0.3,-0.48 -0.44,-0.39 -0.86,-0.45 -0.49,-0.03 -2.11,1.05 -0.62,0.05 -0.4,-0.62 0.14,-0.57 0.55,-0.44 1.34,-0.51 -0.52,-0.55 -0.47,-0.14 -0.48,-0.05 -0.56,-0.28 -1.05,-0.95 -1.82,-2.06 -0.53,-0.39 -0.72,-0.16 -0.53,0.15 -0.32,0.34 -0.26,0.33 -0.29,0.15 -2.52,-0.05 -0.95,-0.49 -0.82,-2.28 -1,-0.75 -1.86,-0.96 -1.19,0.46 -0.65,-0.59 0.28,-0.79 1.56,-0.1 -0.65,-1.24 -0.51,-0.56 -0.13,-0.69 0.44,-1.63 -0.99,-0.25 -0.04,-1.2 0.27,-1.49 -0.02,-1.14 -1.16,1.34 -1.04,0.02 -1.08,-0.79 -2.26,-2.25 -1.02,-1.6 -0.82,-1.77 -0.42,-1.59 0.02,-0.02 -0.01,-1.08 -0.34,-0.84 -0.45,-0.76 -0.39,-0.89 2.67,-0.31 3.41,-1.14 5.14,-0.86 0.95,-0.43 0.21,-0.41 0.73,-2.03 7.48,-10.95 0.23,-0.59 0.07,-0.52 0.12,-0.53 0.37,-0.61 0.39,-0.27 2.95,-1.2 0.53,-0.04 0.72,0.08 0.51,0.4 0.26,1.29 0.51,0.38 4.94,1.64 2.4,0.36 z"
     title="Dohuk"
     id="IQ-DA" />
</svg>
