<?xml version="1.0" encoding="UTF-8" standalone="no"?>
<!-- Created for MapSVG plugin: http://mapsvg.com -->
<svg
   xmlns:mapsvg="http://mapsvg.com"
   xmlns:dc="http://purl.org/dc/elements/1.1/"
   xmlns:rdf="http://www.w3.org/1999/02/22-rdf-syntax-ns#"
   xmlns:svg="http://www.w3.org/2000/svg"
   xmlns="http://www.w3.org/2000/svg"
   mapsvg:geoViewBox="20.953832 56.446758 26.838033 53.898896"
   width="786.7829"
   height="595.54944">
  
  <path
     d="m 374.49599,466.26382 1.19,-0.22 1.48,1.85 2.46,-0.34 1.31,-2.94 1.12,1.1 8.2,0.28 -0.02,1.7 -1.55,-0.03 -0.06,1.06 6.05,-2.2 -0.68,-4.43 0.69,-1.29 8.79,0.83 0.49,-1.47 1.63,0.39 2.79,-1.65 0.52,-2.94 -2.43,-1.26 2.51,-6.16 5.41,-2.44 4.73,0.9 2.63,4.53 2.66,-2.32 9.14,0.04 1.06,-4.09 4.57,0.05 2.44,-2.21 0.43,0.94 1.51,-0.41 -1.23,0.87 -0.1,3.54 1.46,1.52 1.1,3.61 5.23,1.21 3.22,-1.05 2.71,1.01 3.7,-1.4 1.75,0.59 0.11,-1.86 1.21,-0.41 0,0 -0.68,1.58 1.1,1.73 -0.87,0.13 0.15,3.45 1.27,0.14 0.6,3.92 -3.59,1.7 1.14,2.2 2.79,-0.62 1.73,2.41 -0.75,1.26 0.73,1.24 -2.55,2.73 -0.04,1.83 0.94,0.69 1.25,-1.4 2.15,2.89 5.9,0.23 1.32,-1.08 4.57,-0.34 -0.04,2.15 2.34,1.45 -0.04,-1.26 1.27,-0.19 0.65,1.26 0.82,-0.34 0.29,-5.11 0.98,0.73 1.55,-1.28 1.07,0.34 1.21,-2.56 3.01,1.05 0.95,-1.35 1.93,-0.21 3.8,3.76 2.81,0.78 -0.07,3.25 -1.18,1.42 1.54,4.65 0.75,-1.6 1.44,-0.05 0.27,-2.17 1,1.33 7.99,-1.1 0.04,1.07 5.64,0.09 -0.37,-1.99 1.01,-0.23 -0.08,-1.07 2.03,0.45 5.39,-1.44 0.57,1.9 1.58,-3.55 4.25,-1.67 2.99,0.48 1.8,-1.51 4.12,-0.78 0.82,3.3 -2.05,0.75 1.03,5.16 -3.02,0.73 0.35,2.77 -9.46,1.83 0.33,2.59 -2.36,0.69 0.77,3.79 -0.61,0.69 2,0.89 -1.13,2.68 1.79,6.17 -6.63,0.45 -1.46,2.08 1.97,2.22 -3.13,0.32 -1.92,4.22 -3.6,-0.18 -0.35,1.69 -1.79,-0.62 0.31,3.58 -2.77,-0.27 -1.25,1.53 -1.37,-0.62 -1.81,1.19 0.8,2.91 -1.1,1.92 8.39,3.69 0.1,2.71 1.04,0.03 -1.22,1.32 1.84,2.23 1.02,3.62 0,0 -2.03,0.73 1.75,3.02 -4.99,3.89 -2.53,-0.59 -0.33,1.25 1.05,2.69 2.88,2.02 2.48,4.59 0.31,5.88 2.74,2.59 2.88,-1.04 1.1,1.49 -0.87,1.07 -3.83,-0.23 0.46,4.79 -1.84,-0.36 -0.13,2.25 -1.49,0.9 -2.78,-0.81 -3.32,1.2 -4.6,4.31 0.36,1.74 -6.63,0.73 2.22,-10.25 -0.93,-2.23 -2.7,-0.29 -2.73,2.9 -4.77,-0.77 -2.75,4.04 -4.11,1.5 -6.8,5.89 -2.08,3.53 -3.97,3.26 -2.42,4.76 -2.95,1.47 -0.08,-1.41 -1.16,-0.04 0.1,1.99 -1.15,-0.74 0.46,-1.07 -4.97,1.61 -3.44,-0.32 -1.43,-2.53 -0.68,1.78 -1.39,0.68 -2.27,-0.59 -7.25,-8.05 0.06,-1.7 -0.97,-0.95 -2.72,1.78 -2.87,-1.13 0.47,-1.83 -1.7,-2.74 -1.15,0.95 -4.91,0.61 -1.9,2.06 -3.76,-0.7 -1.76,4.05 -14.74,2.9 -2.65,-0.32 0.18,-2.76 -1.04,-2.72 -6.43,-3.76 -0.87,0.84 -0.07,2.83 -2.48,2.2 -1.93,-0.09 -2.95,-2.54 -2.66,0.59 -4.68,4.19 0.21,1.54 2.25,2.02 -0.04,1.99 -2.36,1.99 -2.93,0.14 0.64,-2.65 -1.8,-1.29 -0.24,-1.54 -4.56,-1.5 -1.41,-1.47 -1.83,-0.61 -0.77,1.18 -3.84,-0.11 -1.02,0.79 -2.57,-0.84 -5.27,1.95 -1.39,-2.31 -1.59,-0.23 -0.74,-1.2 -1.56,-0.5 -1.16,1 -1.9,-1.11 -1.36,0.38 -1.06,-2.65 -1.71,0 -2.49,-2.81 -1.95,-6.84 1.97,-2.04 0.8,0.27 1.83,-4.74 1.13,-0.71 0.46,-7.81 -1.43,-5.59 -2.08,-5.09 -1.21,-0.93 0.32,-3.44 -1.17,-4.73 -1.57,-1.03 0.12,-1.36 -1.88,-1.03 -0.29,-1.73 -4.56,-0.5 -5.88,-11.65 -2.58,-0.45 -2.06,-3.67 -3.1,-1.46 0,0 1.59,-5.19 -2.87,-5.09 4.42,-2.33 -0.85,-3.91 1.52,-4.41 2.46,-0.76 -0.23,-2.15 4.84,-2.19 4.61,0.62 0.41,-0.8 2.45,-0.19 -0.88,-1.78 -1.63,-0.32 0.36,-4.19 -1.11,-0.9 2.99,0.44 4.21,-3.78 3.32,0.39 -0.03,-12.13 7.8,-2.18 5.65,-3.53 1.45,-4.29 2.58,-1.45 3.36,3.08 0.26,2.75 1.61,2.78 4,-2.07 1.75,2.34 z"
     title="Alytus"
     id="LT-AL" />
  <path
     d="m 230.97599,231.88382 3.06,-2.61 1.64,1.2 5.76,-7.06 2.08,2.43 3.59,0.11 2.24,-1.27 2.22,0.99 1.63,-0.63 -0.43,2.04 1.15,1.49 -1.22,1.76 0.9,0.52 -3.41,1.34 2.53,3.53 0.77,0.23 0.78,-2.28 2.08,0 0.56,0.8 -0.66,1.04 1.92,-0.97 0.65,0.85 5.38,-5.15 5.13,-0.52 2.28,-1.25 1.57,-0.04 -0.02,1.22 1.24,-0.8 -0.26,-1.08 0.91,-0.43 0.38,0.71 3.73,-3.86 1.98,2.19 0.36,-2.8 0.84,1.41 2.57,0.89 0.75,-1.17 -2.22,-6.39 0.18,-0.8 2.94,-0.28 -0.29,-3.35 1,-0.28 -0.77,-2.43 3.63,-0.75 0.54,3.35 2.27,0.35 9.63,-3.02 0.71,-2.1 0.98,-0.16 -0.58,2.64 1.07,1.04 1.14,6.01 1.97,0.21 0.24,1.46 2.58,-2.07 -0.29,-1.54 1.04,-0.42 0.54,2 5.98,-3.53 1.19,0.23 0.39,1.02 2.36,0.35 2.66,2.17 2.84,3.81 0.01,2.5 2.12,-0.14 5.2,2.4 -0.95,1.6 2.35,0.71 1.33,-0.76 0.33,-1.64 0.68,0.18 -1.12,-4.54 3.9,-0.26 0.14,-0.92 3.99,-0.82 0.75,1.46 3.69,2.14 -1.14,3.3 0.91,4.63 6.74,-0.44 2.41,1.08 3.21,-0.19 0.7,-2.21 -1.1,-0.8 3.73,-2.28 1.67,-3.3 5.61,-1.63 -0.16,-1.64 11.21,-4.65 -0.17,-0.84 3.97,-1.56 1.37,0.61 4.53,-3.49 0,0 3.2,4.34 -2.28,0.9 0.86,2.68 3.51,4.08 3.16,2.09 0.13,-1.48 3.17,-0.4 7.79,8.05 2.83,-0.52 -1.94,6.54 1.02,1.01 6.01,1.34 1.55,-2.47 2.5,0.19 1.74,3.15 1.84,-0.84 1.89,-2.52 5.13,0.26 0.73,-5.41 5.37,2.23 0.24,3.39 6.44,2.37 1.81,-3.73 0.84,1.97 3.64,2.4 1.48,-0.73 0.89,1.08 0.97,-0.8 3.31,2.07 -0.29,4.09 4.02,3.43 2.52,0.16 0,0 -0.26,5.42 -2.89,1.18 -0.31,3.23 -1.96,1.2 0.28,4.1 -1.11,0.4 -1.12,9.19 4.34,0.4 0.08,2.62 1,-0.1 -2.08,10.91 2.06,0.21 -0.04,1.26 1.77,0.19 0.36,-1.1 8.07,2.59 -3.16,4.16 1.44,2.29 -0.25,2.69 1.28,1.8 0.05,2.24 0.5,1 5.17,1.07 -0.7,1.73 -1.92,1.1 2.54,2.91 -0.83,0.66 1.14,0.32 -0.31,1.26 2.32,2.77 1.3,-1.07 1.56,0.47 0.02,3.73 1.24,1.16 -0.62,1.91 1.09,0.24 -0.47,1.51 1.52,-0.65 0.1,0.74 1.43,0.07 2.03,2.31 0.1,2.95 1.82,0.47 -1.12,1.44 -1.38,-0.02 -0.61,1.16 1.19,0.7 -0.38,0.98 -5.49,0.93 0.67,3.63 -3.57,1.3 -0.16,2.23 -1.58,1.58 3.67,3.95 5.3,-0.07 2.49,4.11 5.31,2.32 1.54,4.39 5.35,-1 0,0 2.57,0 0,0 2.24,3.13 4.18,1.72 1.82,1.86 -0.15,3.29 -1.28,0.97 -1.39,0.6 -1.27,-1.62 -0.67,1 -2.67,0.11 0.4,0.86 -1.01,0.33 1.74,12.66 -1.17,0.35 0.21,-1.11 -1.22,0.21 -1.04,1.76 -1.51,-1.37 -0.21,1.58 -5.56,0.71 -5.64,3.7 -0.32,4.95 -1.35,2.01 0.76,1.9 0.75,-0.09 0.35,2.33 -1.86,0.34 0.25,3.52 -1.15,0.67 0.53,1.63 -1.29,1.18 1.27,1.8 -0.47,1.57 -1.8,0.81 -2.53,-0.35 -1.44,-2.65 -2.79,-0.28 -0.2,-0.9 -1.19,0.14 0.64,3.35 -1.08,2.79 -5.37,-2.56 -3.92,0.81 -0.01,1.24 -0.59,-0.25 -2.19,3.3 0.19,4.26 2.03,5.92 -2.93,1.87 2.57,-0.02 1.53,5.2 -1.13,0.62 -0.91,-1.06 -1.42,2.79 -1.31,-0.35 -1.32,1.61 -1.71,-1.31 0.41,7.66 -1.83,7.15 0,0 -1.21,0.41 -0.11,1.86 -1.75,-0.59 -3.7,1.4 -2.71,-1.01 -3.22,1.05 -5.23,-1.21 -1.1,-3.61 -1.46,-1.52 0.1,-3.54 1.23,-0.87 -1.51,0.41 -0.43,-0.94 -2.44,2.21 -4.57,-0.05 -1.06,4.09 -9.14,-0.04 -2.66,2.32 -2.63,-4.53 -4.73,-0.9 -5.41,2.44 -2.51,6.16 2.43,1.26 -0.52,2.94 -2.79,1.65 -1.63,-0.39 -0.49,1.47 -8.79,-0.83 -0.69,1.29 0.68,4.43 -6.05,2.2 0.06,-1.06 1.55,0.03 0.02,-1.7 -8.2,-0.28 -1.12,-1.1 -1.31,2.94 -2.46,0.34 -1.48,-1.85 -1.19,0.22 0,0 4.09,-5.43 0.57,-3.01 -4.32,-4.53 -1.43,-6.22 -5.83,1.97 -5.01,-9.79 4.49,-2.25 -3.4,-5.67 -3.86,0.35 0.52,-1.8 -2.23,0.25 -0.37,-1.47 5.94,-2.23 -2.25,-1.36 -0.07,-1.75 2.66,-1.85 -0.62,-3.8 -4.27,-6.67 3.79,-3.16 -3.63,-6.4 1.37,-3.46 -2.24,-1.18 -6.59,1.8 0.26,-0.94 3.9,-1.74 4.55,-6.45 -5.63,-5.81 1.49,-1.82 -1.64,-1.83 2.91,-4.36 -11.69,-8.8 -3.81,1.67 -0.4,1.71 -1.26,0.05 0.16,-1.39 -2.48,-0.35 -0.58,-0.9 0.51,-1.97 -0.67,-0.1 -0.4,-5.98 -10.87,-5.48 1.08,-1.49 1.52,0.28 4.47,-4.87 8.93,-1.63 2.01,-1.14 0.21,-1.07 6.24,-2.21 1.43,-1.21 -0.05,-5.58 -4.22,-2.39 -9.4,-1.03 -7.31,-5.45 -2.24,-0.44 0,0 3.82,-2.61 1.31,-3.98 3.92,-5.46 0.05,-8.58 3.73,-10.14 -6.72,-2 -0.31,-1.45 -4.44,1.98 -1.17,-1.56 -2.25,0.93 -2.62,-1.52 0.24,-4.63 -1.23,-1.12 -6.52,0.96 -0.67,-0.75 -1.13,1.9 -2.81,0.16 -1.85,-1.33 -6.87,0.63 -0.19,-0.94 -1.47,1.05 -2.4,-0.07 -0.45,-1.87 1.37,-0.77 -0.04,-2.2 -1.06,-3.48 -1.04,1.33 -2.67,-0.87 -1.59,1.99 -3.04,0.63 -6.04,-1.4 -1.56,3.09 -8.32,-0.49 -0.54,-1.27 3.09,-4.18 -2.61,-2.18 -3.9,-1.2 1.32,-6.23 -5.21,1.53 -1.16,-2.32 -1.15,0.54 0.79,2.13 -4.81,0.65 -0.15,2.53 -2.27,-0.21 -0.83,2.25 -1.05,0.47 0,-4.52 -2.68,-1.69 -0.06,-2.67 -4.57,1.1 -2.69,-1.24 0.19,-3.7 2.47,-1.76 -0.2,-4.39 -1.67,-3.28 -1.83,-0.64 -3.65,1.18 -0.92,-2.54 -2.43,0.12 -0.66,-2.58 1.7,-1.79 -0.22,-3.99 -1.77,-0.14 -0.78,1.43 -3.16,0.63 -2,-7.59 -1.48,-1.12 2.86,-1.86 0.24,-1.55 z"
     title="Kaunas"
     id="LT-KU" />
  <path
     d="m 43.515985,281.25382 -0.71,0.3 -0.36,-1.1 1.07,0.8 z m 0.53,-1.12 -1.51,0.02 -0.32,-1.87 2.38,1.03 -0.55,0.82 z m -0.33,-1.62 -1.27,-0.89 0.8,-0.4 0.47,1.29 z m 1.11,-0.37 0.57,0.3 -0.95,0.51 -0.96,-1.8 1.34,0.99 z m 0.53,-0.19 -1.04,-1.05 0.67,-1.03 0.37,2.08 z m -25.23,-103.41 4.45,9.61 -0.8,4.92 1.03,11.46 -0.84,12.48 -2.04,12.06 0.6,3.41 -1.35,2.09 -2.46,9.19 2.35,2.54 0.43,2.28 -3.18,2.4 0.85,1.53 -2.5,2.84 0.29,2.28 -2.7,3.52 0.69,3.8 -1.26,3.17 0.87,2.09 -5.5699999,3.54 -0.98,1.71 0.43,1.19 -2.45,1.1 1.02,1.99 -2.32,1.19 -0.45,1.31 -3.24999997,-0.47 -0.62,-0.17 4.68999997,-8.92 7.6599999,-19.94 3.25,-10.67 2.75,-13.88 1.42,-10.04 0.84,-19.18 -2.02,-21.66 1.17,1.23 z M 134.97599,16.943824 l 1.52,0.43 0,0 -0.61,2.31 0.61,2.74 -1.38,0.99 -3.81,-0.19 -0.57,8.03 6.12,0.6 -1.04,11.44 1.02,0.22 0.77,3.77 1.27,0.67 0.8,4.08 -1.19,1.42 3.42,3.5 -0.17,3.55 -6.39,-1.15 -0.84,5.61 -1.75,0.1 -1.18,10.61 -1.94,2.15 0.51,1.08 -0.96,1.48 -2.14,-0.81 0,-1.17 -7.22,-1.1 0.11,-1.44 -2.13,-0.29 -0.87,1.82 1.6,1.75 0.82,5.05 -8.83,-3.4 -0.27,0.72 -3.21,-0.36 -2.82,7.39 -3.07,-0.67 -2.790005,8.17 -0.92,0.14 0.45,1.1 -1.08,0.19 -3.51,8.379996 -2.06,-0.48 -1.24,1 -2.73,-2.17 -4.08,0.1 -1.59,3.82 4.72,2.05 -3.37,7.55 1.03,2.17 0.15,5.64 -2.38,0.07 0.67,2.38 1.11,-0.38 2.15,1.14 3.19,3.38 -1.48,1.45 -2.15,-0.43 -1.76,2.28 0.81,1.5 -0.49,1.71 -1.86,-0.31 -2.3,1.21 -0.08,2.33 -2.27,-0.26 -0.59,0.76 0.81,3.82 -1.67,-1.04 -2.41,6.27 6.29,3.96 1.51,-1.8 1.15,0.05 -0.29,-3.16 1.59,-0.09 1.04,3.56 2.54,1.11 0.27,1.52 1.56,0.83 -0.63,2.49 0.8,0.88 1.26,-0.36 -0.21,1 -1.06,-0.12 -0.25,4.2 2.75,0.73 2.19,-2.84 6.510005,3.29 1.11,-1.56 0.76,1.71 1.64,-0.64 1.04,-2.51 2.49,1.54 0.12,6.35 -1.31,0.99 -0.71,3.13 1.8,1.92 2.17,0 1.26,1.94 2.86,-0.62 0.35,0.69 -2.45,2.25 -0.21,2.93 -1.59,1.92 0.59,3.95 -1.67,-0.4 0.08,1.87 1.75,2.2 1.54,0.24 0.35,5.69 5.13,-1.68 6.43,5.33 0,0 -1.72,2.43 1.12,1.32 -2.95,1.91 -0.92,-0.42 -0.95,1.7 -1.04,-0.17 -2.94,4.13 0.6,0.57 2.37,-1.2 0.64,0.78 -2.26,2.31 0.19,5.09 1.86,5.04 1.75,-0.78 2.08,7.76 0.64,9.85 1.32,0.09 5.33,-3.01 6.05,3.59 4.45,-0.82 1.19,3.1 1.03,-0.16 0.85,3.24 -0.48,3.03 -3.47,5.3 -0.59,2.49 -4.08,3.7 -0.15,1.66 -1.82,1.01 -6.19,8.78 -1.06,3.21 6.84,2.41 4.1,0.12 2.69,2.81 6,2.9 -1.22,3.16 2.7,6.01 1.91,7.85 6.11,-1.03 5.72,0.7 1.38,-1.26 3.77,4.27 4.02,-0.79 5.53,1.87 3.69,-0.23 2.9,2.61 -1.23,0.84 -2.02,-1.19 -1.99,0.42 0.79,1.31 -1.34,2.24 0.56,1.68 -0.77,2.19 2.23,9.69 0,0 -7.08,0.58 -4.3,1.56 -4.54,-0.26 -2.75,1.98 -2.31,4.86 -5.53,0.33 -2.9,-1.3 -2.38,-2.42 -0.77,-3.89 1.2,-4.28 -0.94,-1.79 -5.56,-0.4 -3.69,2.66 -5.99,-1.28 -5.36,-3.05 -4.08,-0.96 -4.33,-5.06 -4.65,0.02 -7.7,-3.29 -1.26,-3.69 -8.480005,-7.4 -7.26,-1.66 -3.83,-2.45 -3.21,0.3 -3.73,2.69 -2.07,-0.58 -1.66,-3.25 -4.88,-4.63 -2.53,-6.8 -6.6,-10.27 -1.36,1.66 -4.66,2.36 -5.24,5.64 -3.41,1.52 -0.19,-0.87 1.08,-0.12 -0.96,-2.5 2.53,-3.56 -0.35,-3.54 0.75,0.3 0.53,-2.88 -0.75,0.23 -1.79,-5.13 -3.73,-2.23 -1.24,-2.16 1.02,-0.33 0.63,-1.95 -0.32,-2.23 2.04,-0.07 -2.54,-1.24 -2,3.4 -2.26,-0.28 -0.52,1.29 -3.77,1.67 5.51,-10.46 2.81,-7.7 0.16,-9.24 0.79,-1.32 -0.81,-0.31 -0.04,-5.2 -1.84,-6.78 -1.48,-2.26 0.63,-1.13 2.2,-0.71 -1.95,0.24 -1.9,1.63 -1.92,-10.65 0.99,-0.47 -1.84,-0.71 -2.66,-4.93 -1.84,-8.17 -1.79,-2.1 0.57,-1.56 -0.87,-0.47 -0.12,-3.24 0.87,2.58 1.15,1.58 0.4,-0.57 -0.94,-2.43 -0.9,-0.21 -1.66,-7.28 -2.62,-5.8 -4.98,-3.95 -4.22,-45.05 2.1,-7.21 1.26,-12.01 -0.24,-9.349996 -1.36,-7.04 9.75,-2.34 2.89,-1.6 2.91,2.58 2.82,-0.43 2.89,-6.41 -0.28,-1.17 1.87,-1.63 0.37,-3.64 -1.11,-1.75 -0.48,-4.26 0.71,-1.53 5.83,-2.3 1.26,-3.14 6.01,-7.91 6.94,-2.41 4.78,-3.07 2.04,0.22 2.85,-1.9 1.67,-5.09 3.73,-5.43 1.63,-0.26 1.56,0.96 2.3,-0.79 2.82,-2.33 1.04,-3.17 2.1,0.38 0.15,-1.25 2.04,-0.87 5.29,-0.05 5.17,2.91 6.530005,-0.5 2.73,-4.09 5.36,-3.51 3.11,-4.02 2.08,-0.39 1.72,-1.93 2.93,0.65 1.75,2.05 6.6,-1.93 0.23,-0.92 3.29,-0.77 1.38,-1.52 0.73,0.52 z"
     title="Klaipėda"
     id="LT-KL" />
  <path
     d="m 219.15599,326.77382 6.53,4.26 3.19,0.58 10.88,-2.47 4.71,-3.84 4.43,-0.09 4.98,-2.66 11.06,1.19 10.57,-4.22 5.66,-1 10.18,3.22 6.61,0.48 19.26,5.06 3.71,-0.02 4.59,-1.68 3.31,0.3 0,0 2.24,0.44 7.31,5.45 9.4,1.03 4.22,2.39 0.05,5.58 -1.43,1.21 -6.24,2.21 -0.21,1.07 -2.01,1.14 -8.93,1.63 -4.47,4.87 -1.52,-0.28 -1.08,1.49 10.87,5.48 0.4,5.98 0.67,0.1 -0.51,1.97 0.58,0.9 2.48,0.35 -0.16,1.39 1.26,-0.05 0.4,-1.71 3.81,-1.67 11.69,8.8 -2.91,4.36 1.64,1.83 -1.49,1.82 5.63,5.81 -4.55,6.45 -3.9,1.74 -0.26,0.94 6.59,-1.8 2.24,1.18 -1.37,3.46 3.63,6.4 -3.79,3.16 4.27,6.67 0.62,3.8 -2.66,1.85 0.07,1.75 2.25,1.36 -5.94,2.23 0.37,1.47 2.23,-0.25 -0.52,1.8 3.86,-0.35 3.4,5.67 -4.49,2.25 5.01,9.79 5.83,-1.97 1.43,6.22 4.32,4.53 -0.57,3.01 -4.09,5.43 0,0 -3.5,-2.27 -1.75,-2.34 -4,2.07 -1.61,-2.78 -0.26,-2.75 -3.36,-3.08 -2.58,1.45 -1.45,4.29 -5.65,3.53 -7.8,2.18 0.03,12.13 -3.32,-0.39 -4.21,3.78 -2.99,-0.44 1.11,0.9 -0.36,4.19 1.63,0.32 0.88,1.78 -2.45,0.19 -0.41,0.8 -4.61,-0.62 -4.84,2.19 0.23,2.15 -2.46,0.76 -1.52,4.41 0.85,3.91 -4.42,2.33 2.87,5.09 -1.59,5.19 0,0 -5.6,-1.74 -4.43,0.82 -1.89,-0.96 -4.22,-6.39 -6.48,-1.94 0.71,-2.92 -2.03,-1.28 -6.58,3.81 -5.96,-3.29 -1.15,-0.8 0.51,-2.31 2.34,-3.4 -1.86,-1.72 -7.33,-2.9 2.11,-4.86 -3.34,-0.43 -0.23,-1.21 -12.68,-2.25 -0.21,-2.2 -4.17,-0.18 -2.69,0.98 -3.28,8.06 -2.13,1.24 -9.31,-14.24 -2.8,-6.4 -0.36,-11.82 -2.23,-3.63 -0.33,-2.48 3.66,-6.85 -1.22,-2.76 -1.97,-1.36 0.02,-1.4 4.71,-4.6 0.96,-3.73 2.3,-0.85 0.9,-2.31 -1.08,-1.7 1.79,-1.36 -3.06,-3.64 -0.32,-0.95 1.27,-0.41 0.01,-0.9 -2.12,-2.75 0.7,-2.33 2.59,-2.35 -1.33,-4.2 0.61,-1.46 1.01,0.24 2.13,-1.76 0.92,-3.03 0.99,0.47 1.15,-1.11 2.03,-0.16 1.11,-2.61 1.77,0.3 0.94,-1.14 1.37,0.6 0.69,-1.82 1.31,-0.58 -1.3,-1.76 0.4,-0.71 3.49,-0.58 -0.9,-1.09 0.3,-2.27 1.63,-1.96 -2.01,-1.55 1.18,-0.97 -0.51,-2.25 -2.23,-0.9 1.46,-3.17 -3.92,-2.6 0.33,-2.85 1.49,-2.34 -0.95,-2.46 -1.47,-0.44 -2.19,-3.15 -3.44,2.13 -0.74,-3.66 -1.3,-1.58 -1.47,0.46 -0.83,1.56 -0.95,-0.37 -0.6,-1.6 2.06,-2.42 -3.1,-0.83 -2.15,-5.48 -2.5,-2.44 -2.35,0.33 -1.47,-3.58 -2.68,1.51 1.02,2.9 -0.6,1.09 -2.51,-1.85 0.08,-2.72 -1.06,-0.42 -1.42,-4.49 -3.58,-4.09 z"
     title="Marijampolė"
     id="LT-MR" />
  <path
     d="m 526.90599,0.8638239 1.75,-0.12 1.69,1.62 -1.62,4.07 0.63,2.36 4.26,9.1300001 1.03,-0.16 2.67,2.91 -0.47,8.71 1.18,3.82 5.04,4.81 0.92,3.72 1.68,1.06 1.12,-0.41 0.21,1.47 1.59,0.43 0.2,3.12 0.77,0.55 -0.76,1.46 1.47,1.11 -0.74,2.93 1.51,2.03 0.37,5.78 1.73,-0.48 0.78,2.01 3.99,0.89 3.68,2.37 6.4,0 4.42,-4.14 5.07,5.25 1.21,2.82 4.81,3.3 2.82,-2.2 9.02,-0.96 -0.04,2.28 2.16,0.67 1.92,-2.18 2.64,0.22 0.14,1.31 2.93,1.08 3.61,-0.12 1.13,-3.83 2.92,-1.39 2.75,1.17 1.55,4.96 4.09,1.36 7.18,-0.07 3.22,-3.54 1.43,1.2 -0.71,3.39 2.71,2.54 -0.87,3.68 0.95,0.89 -1.81,1.79 0.33,1.65 6.29,2.46 3.42,3.03 7.78,1.94 1.69,5.25 2.97,2.029996 0.39,2.31 -0.83,1.63 0.94,1.74 4.94,-0.27 0.95,1.2 5.13,1.9 0.31,1.41 1.35,-0.48 2.75,1.1 3.06,3.76 1.89,-0.52 4.17,2.55 0,0 -6.73,1.21 -4.18,4.5 -0.28,2.93 2.69,3.74 -1.87,3.16 0.21,2.8 -9.41,1.88 1.05,7.15 -0.5,1.83 -1.16,0.88 -4.18,0.16 -2.94,-1.47 0.1,5.22 -1.91,-0.52 1.49,4.15 -1.25,2.02 -0.61,4.41 -4.4,-0.71 -2.86,-1.9 -4.31,1.47 -0.75,-0.52 -0.03,3.32 -1.28,1.09 1.03,0.07 0.02,3.86 -2.17,0.5 -3.26,3.79 -0.99,0.16 -0.76,-4.87 -1.18,-0.38 -2.87,2.65 -3.04,-1.07 -1.44,0.76 -1.99,-2.39 -2.19,5.21 -5.25,-1.82 -1.11,2.81 -1.81,0.07 -3.55,-1.77 0.84,-2.37 -3.58,-1.25 -1.36,2.7 -10.45,-7.99 -3.13,0.76 -1.72,3.58 -2.62,2.49 -1.16,-0.74 -3.71,1.26 0.34,4.19 1.82,0.73 -1.13,2.93 -2.08,-1.15 -2.29,-3.18 -3.15,0.38 -0.01,0.67 -19.23,7.4 -1.89,-4.85 1.98,-2.91 -4.77,0.5 -1.99,-2.09 -6.88,-1.23 -0.43,-1.16 -2.2,-0.8 -6.32,4.38 -3.36,-1.35 -4.66,0.76 -0.44,3.64 -2.74,-0.47 -0.24,-1.9 -2.13,-2.05 -5.53,3.05 -2.75,-1.28 -2.39,1.11 -2.94,-2.81 -1.39,0.8 0.37,4.24 -1.27,4.11 1.51,0.07 0.26,1 2.19,-0.12 1.63,2.29 -1.26,0.31 -0.76,2.32 -1.74,1.01 -3.6,-1.89 0.94,-1.68 -6.96,1.59 0.06,4.39 1.29,0.74 2.39,-0.57 1.58,-1.68 2.63,1.92 1.5,3.23 0.25,4.61 -1.23,-0.26 -5.35,2.47 -1.47,4.16 1.57,4.08 -2.1,1.55 1.09,2.17 -2.57,4.5 0.22,2.5 0,0 -1.54,0.59 0,1.15 -2.22,0.52 1.71,3.06 0.05,3.13 1.71,2.57 -1.32,3.36 -6.13,2.7 -4.22,-0.68 -1.51,-1.46 -0.91,0.54 -1.04,-0.84 -0.98,0.56 0.57,4.21 -2.61,1.27 1.04,3.17 -4.39,2.49 0.45,2.37 -5.86,-0.47 0,0 -2.52,-0.16 -4.02,-3.43 0.29,-4.09 -3.31,-2.07 -0.97,0.8 -0.89,-1.08 -1.48,0.73 -3.64,-2.4 -0.84,-1.97 -1.81,3.73 -6.44,-2.37 -0.24,-3.39 -5.37,-2.23 -0.73,5.41 -5.13,-0.26 -1.89,2.52 -1.84,0.84 -1.74,-3.15 -2.5,-0.19 -1.55,2.47 -6.01,-1.34 -1.02,-1.01 1.94,-6.54 -2.83,0.52 -7.79,-8.05 -3.17,0.4 -0.13,1.48 -3.16,-2.09 -3.51,-4.08 -0.86,-2.68 2.28,-0.9 -3.2,-4.34 0,0 1.79,-5.3 0.95,-0.31 1.07,-5.12 0.72,-0.02 -0.36,-5.41 6.86,2.38 1.4,-2.57 5.61,0.61 0.55,-1.18 1.54,-0.14 -1.18,-3.61 -1.06,-0.24 0.11,-3.81 -0.97,-1.82 0.57,-2.53 1.59,1.07 0.94,-0.48 0.42,-1.75 2.96,-0.64 0.57,-1.49 -4.8,-3.62 0.42,-2.86 1.16,0.33 -0.57,-1.52 0.85,-3.36 -1.23,0.29 -0.73,-2.35 -2.23,-0.5 1.8,-2.68 -2.04,-4.41 -4.24,0.86 -0.74,-3.63 -1.28,-1.12 -0.97,-7.45 -1.14,-1.26 8,1.07 -1.83,-4.13 3.79,0.93 0.5,-2.93 3.17,-0.92 0.11,-1.26 3.59,-0.6 -1.11,-4.68 2.55,-4.85 -0.24,-6.52 -3.78,0.35 -1.71,-2.9 -2.78,1.07 -0.36,-1.69 -1.71,0.36 -0.68,-1.89 1.98,-5.31 -0.75,-3.55 2.73,-3.25 -0.74,-1.74 0.52,-3.529996 1.81,0.76 1,1.939996 1.01,-1.41 1.06,-7.399996 -0.51,-2.06 4.18,-1.14 -0.16,-2.2 1.77,-2.27 -0.07,-3.56 1.19,-0.39 0.77,-3.06 1.62,0.86 4.5,-1.22 0.62,-1.38 -1.03,-0.6 0.85,-2.18 -0.58,-0.81 0.75,-6.11 -3.37,0.67 0.49,-3.93 1.41,-1.72 -4.52,-2.06 -0.87,-2.93 0.71,-0.43 -0.24,-2.01 -0.91,-0.12 -0.88,-1.97 0.76,-2.62 3.46,-0.98 0.23,-1.92 0,0 2.98,0.31 3.74,-3.81 11.3,-4.38 -0.34,-3.1 6.82,0.56 2.57,5.76 4.74,-1.25 4,3.99 4.23,0.82 1.49,-2.38 7.68,-3.56 7.62,-1.2 0.64,-4.23 -0.9,-3.79 1.43,-2.39 2.81,-1.15 2.61,-2.86 0.38,-6.57 8.17,0.21 2.39,-2.98 -0.42,-3.16 7.46,-0.55 2.06,0.98 3.37,-3.1800001 0.24,-2.12 2.44,0.89 0.48,1.76 4.43,-0.99 0.82,-1.03 -0.93,-4 2.43,-3.19 z"
     title="Panevėžys"
     id="LT-PN" />
  <path
     d="m 266.94599,8.1938239 2.38,0.19 1.47,2.0300001 3.03,0.09 2.14,7.83 -1.81,0.89 2.92,9.44 2.52,2.26 3.7,-0.77 2.81,4.42 2.62,-0.77 0.6,-1.75 8.71,-5.41 -1.33,-3.9 0.94,-1.18 -1.08,-1.95 14.65,-0.87 4.17,-2.86 9.94,1.08 4.18,2.1 2.82,4.4 6.12,1.04 3.53,2.71 4.59,0.89 11.74,-6.95 17.61,-2.98 1.79,1.37 0.08,1.61 -2.39,6.38 0.46,2.81 2.06,0.63 2.25,-4.6 2.6,-0.55 1.51,0.72 11.36,-0.19 2.06,2.28 11.57,-0.04 0.98,4.71 3.46,3 0.01,4.23 6.56,0.65 0.07,1.66 2.52,2.11 -0.25,2.88 5.32,-0.96 0,0 -0.23,1.92 -3.46,0.98 -0.76,2.62 0.88,1.97 0.91,0.12 0.24,2.01 -0.71,0.43 0.87,2.93 4.52,2.06 -1.41,1.72 -0.49,3.93 3.37,-0.67 -0.75,6.11 0.58,0.81 -0.85,2.18 1.03,0.6 -0.62,1.38 -4.5,1.22 -1.62,-0.86 -0.77,3.06 -1.19,0.39 0.07,3.56 -1.77,2.27 0.16,2.2 -4.18,1.14 0.51,2.06 -1.06,7.399996 -1.01,1.41 -1,-1.939996 -1.81,-0.76 -0.52,3.529996 0.74,1.74 -2.73,3.25 0.75,3.55 -1.98,5.31 0.68,1.89 1.71,-0.36 0.36,1.69 2.78,-1.07 1.71,2.9 3.78,-0.35 0.24,6.52 -2.55,4.85 1.11,4.68 -3.59,0.6 -0.11,1.26 -3.17,0.92 -0.5,2.93 -3.79,-0.93 1.83,4.13 -8,-1.07 1.14,1.26 0.97,7.45 1.28,1.12 0.74,3.63 4.24,-0.86 2.04,4.41 -1.8,2.68 2.23,0.5 0.73,2.35 1.23,-0.29 -0.85,3.36 0.57,1.52 -1.16,-0.33 -0.42,2.86 4.8,3.62 -0.57,1.49 -2.96,0.64 -0.42,1.75 -0.94,0.48 -1.59,-1.07 -0.57,2.53 0.97,1.82 -0.11,3.81 1.06,0.24 1.18,3.61 -1.54,0.14 -0.55,1.18 -5.61,-0.61 -1.4,2.57 -6.86,-2.38 0.36,5.41 -0.72,0.02 -1.07,5.12 -0.95,0.31 -1.79,5.3 0,0 -4.53,3.49 -1.37,-0.61 -3.97,1.56 0.17,0.84 -11.21,4.65 0.16,1.64 -5.61,1.63 -1.67,3.3 -3.73,2.28 1.1,0.8 -0.7,2.21 -3.21,0.19 -2.41,-1.08 -6.74,0.44 -0.91,-4.63 1.14,-3.3 -3.69,-2.14 -0.75,-1.46 -3.99,0.82 -0.14,0.92 -3.9,0.26 1.12,4.54 -0.68,-0.18 -0.33,1.64 -1.33,0.76 -2.35,-0.71 0.95,-1.6 -5.2,-2.4 -2.12,0.14 -0.01,-2.5 -2.84,-3.81 -2.66,-2.17 -2.36,-0.35 -0.39,-1.02 -1.19,-0.23 -5.98,3.53 -0.54,-2 -1.04,0.42 0.29,1.54 -2.58,2.07 -0.24,-1.46 -1.97,-0.21 -1.14,-6.01 -1.07,-1.04 0.58,-2.64 -0.98,0.16 -0.71,2.1 -9.63,3.02 -2.27,-0.35 -0.54,-3.35 -3.63,0.75 0.77,2.43 -1,0.28 0.29,3.35 -2.94,0.28 -0.18,0.8 2.22,6.39 -0.75,1.17 -2.57,-0.89 -0.84,-1.41 -0.36,2.8 -1.98,-2.19 -3.73,3.86 -0.38,-0.71 -0.91,0.43 0.26,1.08 -1.24,0.8 0.02,-1.22 -1.57,0.04 -2.28,1.25 -5.13,0.52 -5.38,5.15 -0.65,-0.85 -1.92,0.97 0.66,-1.04 -0.56,-0.8 -2.08,0 -0.78,2.28 -0.77,-0.23 -2.53,-3.53 3.41,-1.34 -0.9,-0.52 1.22,-1.76 -1.15,-1.49 0.43,-2.04 -1.63,0.63 -2.22,-0.99 -2.24,1.27 -3.59,-0.11 -2.08,-2.43 -5.76,7.06 -1.64,-1.2 -3.06,2.61 0,0 -7.3,-1.24 0.13,-1.06 3.25,-1.88 -1.05,-1.49 0.34,-0.96 -2.51,-3.25 -2.56,-1.39 -3.37,-5.21 0.65,-3.6 -3.95,0.33 -2.83,-6.35 -3.97,-1.01 0.2,-2.67 0,0 0.18,-0.83 0,0 -0.13,-1.62 1.46,-2.51 -2.39,-2.31 -1.22,0.21 -1.47,-1.18 0.8,-5.51 -1.64,-3.59 0,0 1.56,-2.91 4.17,-0.35 1.78,-1.49 0.37,-3.13 -0.51,-6.53 -1.53,-0.69 0.76,-1.99 -5.69,-11.16 12.86,-3.13 0.34,-9.4 -1.87,-2.38 1.15,-1.45 7.76,0.67 1.87,-1.48 -0.04,-1.3 1.99,-0.76 3.06,2.06 0.47,-1.59 -1.31,-2.42 3.66,-0.05 0.3,-5.26 -1.06,0.24 -0.83,-3.21 3.05,-0.81 -0.6,-2.33 -3.02,-0.1 0.2,-1.9 -1.05,-0.12 -1.93,-7.5 -2.9,-1 1.4,6.05 -1.3,0.5 -1.24,-1.36 -2.47,0.71 -2.21,-0.73 0.41,-3.24 -1.18,-0.46 -1.51,-3.05 1.86,-2.21 1.64,-0.22 0.8,-4.72 1.34,-1.86 -0.67,-0.98 1.64,-1.31 -1.4,-1.619996 -0.39,-2.87 2.5,2.22 0.31,-1.57 3.41,-2.41 3.73,1.17 6.54,-2.75 1.18,0.43 -0.98,-3.75 -4.19,-3.04 0.01,-4.87 1.15,-1.08 -0.48,-1.48 -0.5,0.48 -1.47,-1.42 -6.89,2.99 -2.45,-0.35 -0.22,3.44 -1.61,-0.43 -0.81,2.01 -3.85,-0.7 -3.61,-3.15 -2.62,-0.84 -3.44,-0.07 0.16,1.41 -2.16,0.96 -3.51,-0.53 -0.2,-1.05 -5.85,-0.27 1.47,-2.27 1.03,-0.09 0.2,-2.52 -0.94,-0.14 -1.28,1.72 -1.39,-0.43 2.1,-5.4 -1.75,-1.85 -0.69,1.13 -2.77,-1.3 0.1,-1.55 1.55,-9.18 1.02,-0.02 -0.34,-1.44 0.93,-0.41 1.13,-9.26 5.2,-0.02 2.53,-1.61 1.53,-7.85 -2.66,0.36 -0.22,-2.28 -1.76,-1.57 3.03,-0.5 5.89,1.15 0.68,-2.71 8.38,1.61 3.16,-7.34 -1.83,-0.6 0.14,-1.15 -1.9,-1.88 -1,-2.72 6.92,0.24 0.23,-0.94 0,0 2,0.32 2.87,2.72 2.28,-0.49 4.04,-4.3 17.25,1.13 1.93,-1.81 3.75,-0.17 3.54,-1.9 -0.36,-0.82 1.46,-0.7 -0.07,-1.11 -1.36,-0.19 -0.47,-1.08 2.11,-1.06 0.04,-1.8600001 z"
     title="Šiauliai"
     id="LT-SA" />
  <path
     d="m 123.97599,203.87382 13.34,-3.23 1.51,-1.21 1.04,1.99 3.85,0 -0.17,-1.49 3.14,-1.8 -0.18,-2.76 2.4,-1.44 0.1,-2.65 2.07,-0.99 0.3,-1.18 4.34,1.96 0.01,-1.84 4.21,-3.07 5.11,-0.88 8.52,-4.3 7.3,5.48 1.07,-2.2 1.13,0.76 1.94,-0.64 5.68,3.97 5.29,-3.09 4.18,1.82 3.44,-2.32 0,0 1.64,3.59 -0.8,5.51 1.47,1.18 1.22,-0.21 2.39,2.31 -1.46,2.51 0.13,1.62 0,0 -0.18,0.83 0,0 -0.2,2.67 3.97,1.01 2.83,6.35 3.95,-0.33 -0.65,3.6 3.37,5.21 2.56,1.39 2.51,3.25 -0.34,0.96 1.05,1.49 -3.25,1.88 -0.13,1.06 7.3,1.24 0,0 2.04,1.35 -0.24,1.55 -2.86,1.86 1.48,1.12 2,7.59 3.16,-0.63 0.78,-1.43 1.77,0.14 0.22,3.99 -1.7,1.79 0.66,2.58 2.43,-0.12 0.92,2.54 3.65,-1.18 1.83,0.64 1.67,3.28 0.2,4.39 -2.47,1.76 -0.19,3.7 2.69,1.24 4.57,-1.1 0.06,2.67 2.68,1.69 0,4.52 1.05,-0.47 0.83,-2.25 2.27,0.21 0.15,-2.53 4.81,-0.65 -0.79,-2.13 1.15,-0.54 1.16,2.32 5.21,-1.53 -1.32,6.23 3.9,1.2 2.61,2.18 -3.09,4.18 0.54,1.27 8.32,0.49 1.56,-3.09 6.04,1.4 3.04,-0.63 1.59,-1.99 2.67,0.87 1.04,-1.33 1.06,3.48 0.04,2.2 -1.37,0.77 0.45,1.87 2.4,0.07 1.47,-1.05 0.19,0.94 6.87,-0.63 1.85,1.33 2.81,-0.16 1.13,-1.9 0.67,0.75 6.52,-0.96 1.23,1.12 -0.24,4.63 2.62,1.52 2.25,-0.93 1.17,1.56 4.44,-1.98 0.31,1.45 6.72,2 -3.73,10.14 -0.05,8.58 -3.92,5.46 -1.31,3.98 -3.82,2.61 0,0 -3.31,-0.3 -4.59,1.68 -3.71,0.02 -19.26,-5.06 -6.61,-0.48 -10.18,-3.22 -5.66,1 -10.57,4.22 -11.06,-1.19 -4.98,2.66 -4.43,0.09 -4.71,3.84 -10.88,2.47 -3.19,-0.58 -6.53,-4.26 0,0 -5.3,0.72 -7.64,4.17 -3.44,0.88 -4.98,-1.96 -5.36,-0.23 -5.61,-1.86 -9.61,-0.54 0,0 -2.23,-9.69 0.77,-2.19 -0.56,-1.68 1.34,-2.23 -0.79,-1.31 1.99,-0.42 2.02,1.19 1.23,-0.84 -2.9,-2.61 -3.69,0.23 -5.53,-1.87 -4.02,0.8 -3.77,-4.27 -1.38,1.26 -5.72,-0.7 -6.1,1.02 -1.91,-7.84 -2.7,-6.01 1.21,-3.15 -6,-2.91 -2.68,-2.8 -4.11,-0.12 -6.84,-2.41 1.06,-3.21 6.19,-8.78 1.81,-1.01 0.15,-1.66 4.08,-3.71 0.58,-2.48 3.48,-5.31 0.48,-3.02 -0.86,-3.24 -1.03,0.16 -1.18,-3.1 -4.45,0.82 -6.06,-3.59 -5.33,3 -1.32,-0.09 -0.64,-9.85 -2.09,-7.76 -1.75,0.77 -1.86,-5.04 -0.18,-5.08 2.26,-2.31 -0.65,-0.78 -2.36,1.2 -0.6,-0.56 2.94,-4.13 1.04,0.17 0.95,-1.7 0.92,0.42 2.95,-1.91 -1.12,-1.32 z"
     title="Tauragė"
     id="LT-TA" />
  <path
     d="m 157.29599,4.3338239 4.87,2.66 5.56,-1.04 1.1,2.94 2.4,0.65 1.35,1.6900001 9.37,-1.5000001 0.98,1.7400001 1.77,-0.03 2.18,1.69 2.15,-1.85 3.29,0.26 2.94,-2.0500001 8.71,1.1400001 4.41,2.91 2.35,-0.19 3.7,1.47 3.34,-0.68 0.98,1.5 3.51,0.33 3.91,4.48 0,0 -0.23,0.94 -6.92,-0.24 1,2.72 1.9,1.88 -0.14,1.15 1.83,0.6 -3.16,7.34 -8.38,-1.61 -0.68,2.71 -5.89,-1.15 -3.03,0.5 1.76,1.57 0.22,2.28 2.66,-0.36 -1.53,7.85 -2.53,1.61 -5.2,0.02 -1.13,9.26 -0.93,0.41 0.34,1.44 -1.02,0.02 -1.55,9.18 -0.1,1.55 2.77,1.3 0.69,-1.13 1.75,1.85 -2.1,5.4 1.39,0.43 1.28,-1.72 0.94,0.14 -0.2,2.52 -1.03,0.09 -1.47,2.27 5.85,0.27 0.2,1.05 3.51,0.53 2.16,-0.96 -0.16,-1.41 3.44,0.07 2.62,0.84 3.61,3.15 3.85,0.7 0.81,-2.01 1.61,0.43 0.22,-3.44 2.45,0.35 6.89,-2.99 1.47,1.42 0.5,-0.48 0.48,1.48 -1.15,1.08 -0.01,4.87 4.19,3.04 0.98,3.75 -1.18,-0.43 -6.54,2.75 -3.73,-1.17 -3.41,2.41 -0.31,1.57 -2.5,-2.22 0.39,2.87 1.4,1.619996 -1.64,1.31 0.67,0.98 -1.34,1.86 -0.8,4.72 -1.64,0.22 -1.86,2.21 1.51,3.05 1.18,0.46 -0.41,3.24 2.21,0.73 2.47,-0.71 1.24,1.36 1.3,-0.5 -1.4,-6.05 2.9,1 1.93,7.5 1.05,0.12 -0.2,1.9 3.02,0.1 0.6,2.33 -3.05,0.81 0.83,3.21 1.06,-0.24 -0.3,5.26 -3.66,0.05 1.31,2.42 -0.47,1.59 -3.06,-2.06 -1.99,0.76 0.04,1.3 -1.87,1.48 -7.76,-0.67 -1.15,1.45 1.87,2.38 -0.34,9.4 -12.86,3.13 5.69,11.16 -0.76,1.99 1.53,0.69 0.51,6.53 -0.37,3.13 -1.78,1.49 -4.17,0.35 -1.56,2.91 0,0 -3.44,2.32 -4.18,-1.82 -5.29,3.09 -5.68,-3.97 -1.94,0.64 -1.13,-0.76 -1.07,2.2 -7.3,-5.48 -8.52,4.3 -5.11,0.88 -4.21,3.07 -0.01,1.84 -4.34,-1.96 -0.3,1.18 -2.07,0.99 -0.1,2.65 -2.4,1.44 0.18,2.76 -3.14,1.8 0.17,1.49 -3.85,0 -1.04,-1.99 -1.51,1.21 -13.34,3.23 0,0 -6.42,-5.33 -5.13,1.67 -0.35,-5.69 -1.54,-0.23 -1.75,-2.2 -0.08,-1.87 1.67,0.4 -0.59,-3.94 1.59,-1.92 0.22,-2.93 2.44,-2.25 -0.34,-0.69 -2.86,0.62 -1.26,-1.94 -2.16,0 -1.81,-1.92 0.71,-3.12 1.31,-1 -0.12,-6.34 -2.49,-1.55 -1.04,2.52 -1.64,0.64 -0.76,-1.71 -1.11,1.56 -6.510005,-3.29 -2.19,2.84 -2.75,-0.73 0.25,-4.2 1.06,0.12 0.21,-0.99 -1.26,0.35 -0.8,-0.87 0.63,-2.49 -1.56,-0.83 -0.27,-1.52 -2.54,-1.12 -1.04,-3.56 -1.59,0.1 0.29,3.15 -1.15,-0.04 -1.51,1.8 -6.29,-3.96 2.4,-6.27 1.67,1.05 -0.81,-3.83 0.59,-0.76 2.27,0.26 0.08,-2.33 2.3,-1.21 1.85,0.31 0.5,-1.71 -0.82,-1.5 1.77,-2.28 2.15,0.43 1.48,-1.45 -3.19,-3.38 -2.15,-1.14 -1.11,0.38 -0.67,-2.38 2.38,-0.07 -0.15,-5.64 -1.03,-2.17 3.37,-7.56 -4.72,-2.05 1.59,-3.81 4.08,-0.1 2.72,2.17 1.25,-1 2.06,0.48 3.51,-8.379996 1.08,-0.19 -0.45,-1.1 0.92,-0.14 2.810005,-8.19 3.07,0.67 2.82,-7.39 3.21,0.36 0.26,-0.72 8.83,3.4 -0.81,-5.05 -1.6,-1.74 0.86,-1.82 2.13,0.28 -0.11,1.44 7.22,1.1 0,1.17 2.14,0.82 0.96,-1.49 -0.51,-1.07 1.94,-2.16 1.17,-10.6 1.75,-0.1 0.85,-5.61 6.38,1.15 0.18,-3.54 -3.42,-3.5 1.19,-1.42 -0.81,-4.08 -1.27,-0.67 -0.77,-3.77 -1.02,-0.22 1.05,-11.43 -6.12,-0.61 0.57,-8.03 3.81,0.19 1.38,-0.98 -0.62,-2.75 0.62,-2.31 0,0 2.87,-8.9100001 2.5,-0.29 0.3,-2.12 2.61,-0.08 1.59,1.69 0.66,-0.94 1.99,0.12 0.6,-1.11 1.15,0.58 1.25,-1.3 1.54,0.48 z"
     title="Telšiai"
     id="LT-TE" />
  <path
     d="m 695.17599,137.16382 2.88,2.56 2.19,-0.21 5.29,6.63 0.88,4.22 -0.52,1.97 5.08,10.77 5.72,5.45 4.97,0.5 2.08,2.58 2.41,6.2 5.18,-1.21 5.6,1.09 3.18,2.39 0.63,1.94 2.89,0.12 0.85,1.56 1.71,0.66 5.23,-0.47 0.65,0.99 3.03,0.22 4.07,-1.4 0.02,5.82 1.89,0.26 0.91,6.37 -2.33,3.95 1.19,1.82 0.12,6.77 -3.05,2.52 -1.25,-0.52 -3.98,6.55 -5.12,2.36 -2.29,4.38 2.1,5.79 1.78,0.38 1.4,2.49 -3.11,4.56 1.91,2.71 -2.21,-0.26 2.35,6.91 -1.41,1.19 0.75,4.3 -3.06,0.07 -3.89,4.32 -1.95,-0.56 -1.53,0.63 -0.73,3.19 -3.64,1.83 1.37,1.5 3.11,-0.14 5.35,2.81 3.71,0.14 2.49,2.44 2.78,-1.59 0.28,1.47 1.09,-0.65 1.71,0.82 1.47,-1.6 -0.49,-1.36 1.92,-0.7 -0.35,2.23 0.89,0.82 1.79,-3.03 1.87,1.13 0.84,-2.25 1.99,1.8 3.57,0.66 1.56,1.59 5.91,-0.18 6.65,1.71 0.04,1.54 2.02,0.42 0.91,2.23 -0.62,4.45 -4.19,1.1 -2.94,3.35 -4.66,1.75 0,0 -0.41,-0.75 2.62,-1.68 -12.24,0.46 0.08,3.05 -1.87,0.32 0.88,-0.79 -0.68,-1.87 -3.67,-0.21 0.35,1.47 -2.2,0.21 1.72,0.98 0.02,0.94 -1.4,-0.17 0.25,1.83 -2.68,1.85 0.16,0.91 -4.31,0 0.15,0.77 -2.16,1.03 -2.78,-1.38 -2.07,2.52 -3.22,-0.61 -1.18,0.75 -3.59,-1.68 -1.37,2.52 -1.19,-1.35 -5.57,-0.54 -2.9,-2.06 -1.45,0.99 -7.78,-1.92 -2.22,0.91 -1.82,-1.17 -0.84,1.01 0.63,0.7 -1.87,0.58 -3.96,-5.91 -1.31,2.08 -2.75,-0.31 -0.29,-0.81 -1.25,4.13 -1.37,0.17 -3.45,-0.73 -0.15,-1.14 3.17,-4.8 1.14,-0.25 -4.41,-2.27 0.06,-2.39 -1.44,-0.82 1.31,-1.1 -0.24,-1.12 -4.36,-1.97 -1.93,1.9 -0.75,-1.01 -4.51,-1.36 -0.26,-3.02 -0.32,3.77 0.77,0.21 -1.5,-0.42 -0.37,-2.9 -0.63,2.78 -2.83,1.99 3.02,-0.3 -1.76,2.46 -0.89,-0.78 -3.54,0.64 -0.72,1.61 -3.62,-1.96 -2.11,1.35 -1.4,-1.4 -0.42,-2.32 -1.25,0.07 0.2,2.41 -1.94,-0.98 -0.82,1.92 -2.12,-1.59 0.36,-2.34 -3.62,-2.51 -4.75,1.05 1.91,1.95 -3.67,3.21 -1.62,-2.46 0.53,-1.24 -5.1,-6.23 -4.71,4.26 0.09,-1.85 -1.59,2.32 1.3,0.44 -2.41,1.81 -1.27,4.7 0.43,1.29 -3.78,-2.32 0.3,2.57 1.19,0.33 0.49,1.52 -0.79,0.52 0.55,0.96 1.32,-0.14 0.36,1.73 -1.18,0.25 -1,-1.05 -2.85,0.56 -1.49,5.87 1.83,0.07 -1.55,2.2 -1.11,-0.19 -0.43,2.55 1.02,2.89 2.75,0.68 1.04,1.78 3.24,0.6 0.08,5.63 1.44,0.28 2.82,3.64 1.96,-0.59 0.36,1.4 4.37,1.52 1.03,1.77 -2.6,0.16 -0.66,2.24 -0.88,0.12 -0.67,-1.75 -2.2,2.54 2.31,1.12 -0.5,2.3 -1.51,0 0.5,-1.23 -3.14,1.58 0.89,2.54 1.15,-2.09 1.31,0.37 -0.83,2.75 -1.39,1.16 1.15,0.98 -1.69,1.32 1.49,2.54 1.82,-0.7 0.25,1.1 -6.53,0.9 -1.23,-2.77 -1.39,1.05 -3.57,0.16 -0.77,-2.25 0.69,-1 -5.11,-2.52 -3.25,1.75 -2.47,-0.23 -1.07,-1.4 -0.36,3.7 -1.98,-0.42 -0.54,-1.49 -2.84,0.82 -1.19,4.02 -4.14,-0.72 -8.07,1.93 -5.27,-0.72 -1.79,1.56 -5.85,-0.77 -2.96,-2.88 -6.42,-0.21 -6.44,1.04 -0.62,-1.28 2.85,-2.67 -2.11,-3.98 0.12,-2.89 -1.18,0.16 -1.75,-1.44 -3.66,0.28 -0.73,-1.05 -1.29,1.37 -1.27,-1.61 0.87,-2 -0.8,-1.23 1.68,-2.17 -0.26,-2.19 1.89,-1.52 -0.97,-3.43 2.67,-0.26 5.73,-2.63 0.88,-1.57 -1.29,-2.19 1.17,-2.13 4.41,-0.18 -1.65,-1.59 -0.87,0.75 -0.55,-0.99 -2.27,0.54 -0.36,-3.22 -1.75,-1.48 -4.83,1.76 -2.66,-2.92 3.4,-4.66 1.17,-6.29 -4.5,0.96 -1.58,2.55 -0.48,-1.1 -5.26,-2.32 0.52,-3.2 -1.2,-2.46 -2.15,-0.49 0.41,-2.48 -1.18,-1.67 -2.45,0.99 -0.38,-1.5 -2.27,0.7 -1.7,-0.54 -3.35,1.15 -2.11,-1.1 -0.5,-7.31 -1.35,-3.59 -8.72,3.82 -1.66,-0.54 1.06,-3.26 -7.43,0.87 -6.98,-4.6 -0.57,0.42 0.49,-7.37 -1.55,-1.03 1.73,-3.83 2.76,1.9 1.51,-5.59 -5.73,-2.54 -2.19,-7.69 -0.92,0.21 0.24,0.85 -2.42,0.16 -2.9,-6.26 -3.23,-0.54 -1.84,1.93 -1.16,-0.61 -1.75,1.23 -1.32,-0.97 0.11,-4.52 0,0 -0.22,-2.5 2.57,-4.5 -1.09,-2.17 2.1,-1.55 -1.57,-4.08 1.47,-4.16 5.35,-2.47 1.23,0.26 -0.25,-4.61 -1.5,-3.23 -2.63,-1.92 -1.58,1.68 -2.39,0.57 -1.29,-0.74 -0.06,-4.39 6.96,-1.59 -0.94,1.68 3.6,1.89 1.74,-1.01 0.76,-2.32 1.26,-0.31 -1.63,-2.29 -2.19,0.12 -0.26,-1 -1.51,-0.07 1.27,-4.11 -0.37,-4.24 1.39,-0.8 2.94,2.81 2.39,-1.11 2.75,1.28 5.53,-3.05 2.13,2.05 0.24,1.9 2.74,0.47 0.44,-3.64 4.66,-0.76 3.36,1.35 6.32,-4.38 2.2,0.8 0.43,1.16 6.88,1.23 1.99,2.09 4.77,-0.5 -1.98,2.91 1.89,4.85 19.23,-7.4 0.01,-0.67 3.15,-0.38 2.29,3.18 2.08,1.15 1.13,-2.93 -1.82,-0.73 -0.34,-4.19 3.71,-1.26 1.16,0.74 2.62,-2.49 1.72,-3.58 3.13,-0.76 10.45,7.99 1.36,-2.7 3.58,1.25 -0.84,2.37 3.55,1.77 1.81,-0.07 1.11,-2.81 5.25,1.82 2.19,-5.21 1.99,2.39 1.44,-0.76 3.04,1.07 2.87,-2.65 1.18,0.38 0.76,4.87 0.99,-0.16 3.26,-3.79 2.17,-0.5 -0.02,-3.86 -1.03,-0.07 1.28,-1.09 0.03,-3.32 0.75,0.52 4.31,-1.47 2.86,1.9 4.4,0.71 0.61,-4.41 1.25,-2.02 -1.49,-4.15 1.91,0.52 -0.1,-5.22 2.94,1.47 4.18,-0.16 1.16,-0.88 0.5,-1.83 -1.05,-7.15 9.41,-1.88 -0.21,-2.8 1.87,-3.16 -2.69,-3.74 0.28,-2.93 4.18,-4.5 6.73,-1.21 0,0 0.98,3.78 5.63,9.69 3.75,4.66 z"
     title="Utena"
     id="LT-UT" />
  <path
     d="m 605.94599,509.50382 -1.9,-0.48 0.27,-1.23 3.66,-0.53 -2.03,2.24 z m -111.37,-288.09 -0.11,4.52 1.32,0.96 1.75,-1.22 1.16,0.61 1.83,-1.93 3.23,0.54 2.9,6.26 2.42,-0.16 -0.24,-0.85 0.92,-0.21 2.19,7.69 5.73,2.54 -1.51,5.59 -2.77,-1.9 -1.72,3.83 1.55,1.03 -0.49,7.37 0.58,-0.42 6.97,4.6 7.43,-0.87 -1.06,3.26 1.66,0.54 8.72,-3.82 1.35,3.59 0.5,7.31 2.11,1.1 3.35,-1.15 1.7,0.54 2.27,-0.7 0.37,1.5 2.46,-0.98 1.18,1.66 -0.41,2.48 2.15,0.49 1.2,2.46 -0.52,3.21 5.27,2.32 0.48,1.1 1.58,-2.55 4.5,-0.96 -1.18,6.29 -3.39,4.65 2.66,2.92 4.82,-1.75 1.75,1.47 0.36,3.22 2.27,-0.54 0.55,0.98 0.87,-0.75 1.66,1.59 -4.41,0.19 -1.18,2.13 1.3,2.19 -0.88,1.56 -5.73,2.64 -2.67,0.26 0.98,3.43 -1.9,1.52 0.27,2.19 -1.68,2.17 0.8,1.23 -0.87,2 1.27,1.61 1.28,-1.38 0.73,1.05 3.66,-0.28 1.75,1.44 1.18,-0.16 -0.12,2.89 2.11,3.98 -2.85,2.68 0.62,1.28 6.44,-1.05 6.43,0.21 2.95,2.88 5.85,0.77 1.79,-1.56 5.26,0.72 8.07,-1.93 4.14,0.72 1.19,-4.03 2.85,-0.81 0.53,1.49 1.98,0.42 0.36,-3.7 1.07,1.4 2.47,0.23 3.25,-1.75 5.12,2.51 -0.69,1 0.77,2.26 3.57,-0.16 1.39,-1.05 1.23,2.77 6.53,-0.91 -0.25,-1.09 -1.82,0.7 -1.5,-2.54 1.7,-1.33 -1.15,-0.98 1.39,-1.16 0.83,-2.75 -1.31,-0.37 -1.15,2.1 -0.9,-2.54 3.14,-1.58 -0.49,1.24 1.51,0 0.5,-2.31 -2.31,-1.12 2.21,-2.54 0.67,1.75 0.88,-0.12 0.66,-2.24 2.61,-0.16 -1.03,-1.77 -4.37,-1.52 -0.36,-1.4 -1.96,0.58 -2.82,-3.64 -1.44,-0.28 -0.08,-5.62 -3.23,-0.61 -1.04,-1.78 -2.75,-0.68 -1.02,-2.9 0.43,-2.55 1.11,0.19 1.55,-2.2 -1.83,-0.07 1.5,-5.87 2.85,-0.56 1,1.05 1.18,-0.26 -0.36,-1.73 -1.32,0.14 -0.55,-0.96 0.79,-0.51 -0.48,-1.52 -1.19,-0.33 -0.31,-2.57 3.78,2.32 -0.43,-1.29 1.27,-4.7 2.41,-1.8 -1.3,-0.44 1.59,-2.32 -0.09,1.85 4.72,-4.26 5.09,6.23 -0.52,1.24 1.62,2.46 3.67,-3.21 -1.91,-1.94 4.74,-1.05 3.62,2.51 -0.36,2.34 2.13,1.59 0.81,-1.92 1.94,0.98 -0.2,-2.41 1.26,-0.07 0.41,2.32 1.4,1.4 2.11,-1.36 3.62,1.97 0.72,-1.61 3.54,-0.63 0.88,0.77 1.76,-2.46 -3.02,0.3 2.83,-1.99 0.63,-2.79 0.37,2.9 1.5,0.42 -0.77,-0.21 0.32,-3.77 0.27,3.02 4.5,1.36 0.75,1.01 1.94,-1.9 4.36,1.97 0.24,1.12 -1.31,1.1 1.44,0.82 -0.07,2.39 4.41,2.27 -1.14,0.26 -3.17,4.79 0.15,1.15 3.45,0.72 1.38,-0.16 1.24,-4.14 0.29,0.82 2.75,0.3 1.31,-2.08 3.96,5.92 1.87,-0.58 -0.63,-0.7 0.84,-1.01 1.82,1.17 2.22,-0.91 7.78,1.92 1.46,-0.98 2.9,2.06 5.57,0.54 1.19,1.36 1.36,-2.52 3.59,1.68 1.18,-0.75 3.22,0.61 2.07,-2.52 2.78,1.38 2.17,-1.03 -0.15,-0.77 4.3,0 -0.16,-0.91 2.69,-1.85 -0.25,-1.82 1.4,0.16 -0.03,-0.94 -1.71,-0.98 2.19,-0.21 -0.35,-1.47 3.67,0.21 0.68,1.87 -0.88,0.79 1.87,-0.33 -0.08,-3.04 12.24,-0.47 -2.62,1.68 0.4,0.75 0,0 -2.07,3.02 0.32,5.45 -3.34,3.58 -1.4,-1.19 -2.35,1.64 1.47,4.88 2.18,1.17 -1.2,1.66 -2.14,-0.82 -0.75,2.78 -2.65,-0.98 -4.32,3.24 -4.98,-1.49 -5.67,2.38 -3.5,-3.85 -4.78,2.78 -0.28,2.57 -2.11,1.8 -4.48,-2.29 -1.55,0.68 -0.36,-1.03 -2.06,1.7 -0.84,-2.12 -4.72,-1.73 -1.74,1.19 -2.62,-0.05 0.36,2.17 -3.39,0.47 1.24,1.05 -1.28,1.03 -5.06,0.91 -4.48,2.98 -0.28,1.05 5.53,6.34 -1.22,0.54 0.35,1.28 -2.04,-0.4 -0.72,0.88 -0.66,6.12 -1.78,4.65 -1.92,1.6 -0.43,3.65 -3.03,2.07 -3.13,-0.7 -3.21,2.02 -2.07,-0.81 -1.52,3.81 -4.12,0.53 -0.6,1.42 0.97,1.95 -3.59,1.28 1.24,1.49 -8.74,-1.53 -2.1,-2.18 -0.63,1.02 -4.17,1.18 -2.33,2.72 -0.94,-0.32 -2.11,1.46 -2.66,-1.07 -1.12,1.65 -2.53,0.14 -1.07,7.4 -4.7,3.99 0.23,1.32 -1.91,2.34 -3.13,1.95 0.58,3.36 -1.35,3.87 -2.99,-0.02 -1.01,1.8 -1.18,3.72 1.74,7.91 -0.21,9.93 -1.48,4.75 0.76,4.08 -0.98,-0.14 -0.23,0.92 1.7,9.45 -0.78,1.66 1.94,3.06 1,9.87 -1.36,2.92 -9.27,6.6 -3.23,6.39 -2.63,8.61 -2.18,0.39 -2.22,2.04 0.24,0.71 2.75,-0.07 -1.1,1.86 1.4,5.98 -3.31,5.7 -1.46,-0.12 -0.28,-1.05 -0.95,2.27 0.79,3.85 -3.71,2.54 -1.06,4.9 -2.55,0.3 -0.21,2.08 1.99,0.34 0.35,3.91 4.85,-1.78 0.19,1.46 1.24,0.55 2.65,0.8 1.76,-1.69 1.39,1.44 2.69,-2.42 2.86,-0.05 3.41,5.44 -0.9,1.19 0.64,1.76 -0.76,1.55 1.36,1.42 1.26,-0.91 3.83,1.21 2.04,6.5 2.62,1.71 1.23,-0.87 -6.47,4.49 0.98,-0.25 2.78,3.97 0.83,2.17 -1.24,2.1 1,3.62 1.2,0.87 1.03,-0.43 0.05,1.75 -1.35,0.52 -0.45,-1.32 -2.15,0.02 -1.36,-2.19 -0.09,2.46 -1.55,0.02 -0.79,1.14 -0.19,-1.3 -4.12,-1.66 -0.23,2.64 -1.64,0.68 -0.68,-0.66 -0.2,3.73 -2.79,0 -1.94,2.62 -1.1,0.07 -2.3,-2.28 0.41,-1.18 -3.19,0.57 -0.6,-1.12 -4.32,-1.21 -1.72,0.87 -2.57,-1.91 -0.42,-1.87 -2.78,-2.48 0.59,-2.37 6.25,-2.6 0.05,-3.92 -2.25,-1.32 -0.24,-2.3 0.49,-0.43 0.94,1.23 1.32,-1.14 1.67,1.28 1.74,-0.39 -2.74,-4.45 0.44,-2.01 -2.17,-2.42 0.91,-1.62 -5.92,-2.35 -0.35,-5.23 -2.19,-0.94 -0.42,1.96 -2.12,0.07 0.21,1.51 -1.95,1.1 -1.99,-0.02 0.29,-1.55 -3.41,0.48 -0.92,-0.64 -1.76,3.61 -2.18,1.71 -1.36,-0.46 -2.65,1.12 -1.28,1.8 -2.39,-0.66 -1.8,1.21 -1.87,-1.37 -0.63,1.37 -4.69,-2.65 -2.21,4.86 -2.46,-2.6 -1.54,0.94 -2.66,5.04 0.17,3.83 -11.42,11.67 -5.83,7.88 -3.18,-1.11 -4.49,0.77 -3.03,-1.55 -2.42,-3.67 0.52,-1.34 -2.85,-1.59 -11.81,5.67 -5.06,-0.32 0,0 -1.03,-3.62 -1.83,-2.23 1.22,-1.32 -1.04,-0.02 -0.09,-2.71 -8.39,-3.69 1.1,-1.92 -0.8,-2.92 1.82,-1.19 1.36,0.62 1.26,-1.53 2.77,0.27 -0.31,-3.58 1.79,0.62 0.35,-1.69 3.59,0.18 1.92,-4.22 3.13,-0.32 -1.96,-2.21 1.46,-2.08 6.63,-0.46 -1.79,-6.17 1.14,-2.68 -2,-0.89 0.61,-0.69 -0.77,-3.8 2.36,-0.69 -0.33,-2.59 9.46,-1.83 -0.35,-2.77 3.02,-0.73 -1.03,-5.15 2.04,-0.76 -0.81,-3.3 -4.12,0.78 -1.8,1.51 -2.99,-0.48 -4.25,1.67 -1.58,3.55 -0.57,-1.9 -5.38,1.44 -2.03,-0.46 0.08,1.08 -1.02,0.23 0.37,1.99 -5.64,-0.09 -0.04,-1.08 -7.99,1.1 -1,-1.33 -0.27,2.18 -1.44,0.05 -0.75,1.6 -1.54,-4.65 1.18,-1.42 0.07,-3.25 -2.81,-0.78 -3.79,-3.76 -1.94,0.21 -0.95,1.35 -3.01,-1.05 -1.22,2.57 -1.07,-0.34 -1.55,1.28 -0.98,-0.73 -0.29,5.11 -0.82,0.34 -0.65,-1.26 -1.27,0.18 0.04,1.26 -2.34,-1.44 0.04,-2.15 -4.57,0.34 -1.32,1.08 -5.89,-0.23 -2.15,-2.89 -1.26,1.4 -0.94,-0.69 0.04,-1.83 2.55,-2.73 -0.74,-1.24 0.75,-1.26 -1.72,-2.41 -2.79,0.62 -1.14,-2.2 3.58,-1.7 -0.6,-3.92 -1.27,-0.14 -0.15,-3.44 0.87,-0.14 -1.1,-1.72 0.68,-1.59 0,0 1.83,-7.15 -0.41,-7.66 1.71,1.31 1.32,-1.61 1.31,0.35 1.42,-2.79 0.91,1.06 1.14,-0.62 -1.54,-5.2 -2.57,0.02 2.93,-1.87 -2.03,-5.92 -0.19,-4.26 2.19,-3.3 0.59,0.25 0.01,-1.25 3.92,-0.81 5.37,2.56 1.08,-2.79 -0.64,-3.35 1.19,-0.14 0.2,0.9 2.79,0.28 1.44,2.65 2.53,0.35 1.8,-0.81 0.47,-1.57 -1.27,-1.8 1.28,-1.18 -0.52,-1.64 1.15,-0.67 -0.25,-3.51 1.86,-0.35 -0.35,-2.33 -0.75,0.09 -0.76,-1.9 1.35,-2.01 0.32,-4.95 5.64,-3.7 5.56,-0.72 0.21,-1.57 1.51,1.37 1.04,-1.76 1.22,-0.21 -0.21,1.11 1.18,-0.35 -1.74,-12.67 1,-0.32 -0.4,-0.86 2.67,-0.12 0.67,-1 1.27,1.62 1.39,-0.6 1.28,-0.97 0.15,-3.29 -1.82,-1.86 -4.18,-1.72 -2.23,-3.13 0,0 -2.58,0 0,0 -5.35,1 -1.54,-4.39 -5.32,-2.32 -2.49,-4.11 -5.3,0.07 -3.66,-3.95 1.58,-1.58 0.16,-2.23 3.57,-1.3 -0.67,-3.63 5.49,-0.93 0.37,-0.98 -1.19,-0.7 0.61,-1.16 1.38,0.02 1.12,-1.44 -1.82,-0.47 -0.11,-2.96 -2.03,-2.3 -1.43,-0.07 -0.09,-0.75 -1.52,0.65 0.47,-1.51 -1.08,-0.23 0.61,-1.91 -1.24,-1.17 -0.01,-3.73 -1.56,-0.47 -1.3,1.07 -2.33,-2.77 0.31,-1.26 -1.14,-0.33 0.83,-0.65 -2.54,-2.92 1.92,-1.1 0.7,-1.73 -5.17,-1.07 -0.49,-1 -0.05,-2.24 -1.28,-1.8 0.25,-2.69 -1.44,-2.29 3.17,-4.16 -8.07,-2.6 -0.36,1.1 -1.78,-0.19 0.04,-1.26 -2.06,-0.21 2.08,-10.9 -1,0.09 -0.08,-2.62 -4.34,-0.4 1.12,-9.18 1.11,-0.4 -0.28,-4.1 1.96,-1.2 0.31,-3.24 2.89,-1.17 0.27,-5.42 0,0 5.85,0.47 -0.44,-2.37 4.38,-2.49 -1.04,-3.17 2.62,-1.27 -0.58,-4.21 0.98,-0.56 1.04,0.85 0.91,-0.54 1.51,1.46 4.22,0.68 6.13,-2.7 1.32,-3.36 -1.71,-2.56 -0.05,-3.13 -1.71,-3.06 2.22,-0.52 0,-1.15 1.55,-0.6 z"
     title="Vilnius"
     id="LT-VL" />
</svg>
