<?xml version="1.0" encoding="UTF-8" standalone="no"?>
<!-- Created for MapSVG plugin: http://mapsvg.com -->
<svg
   xmlns:mapsvg="http://mapsvg.com"
   xmlns:dc="http://purl.org/dc/elements/1.1/"
   xmlns:rdf="http://www.w3.org/1999/02/22-rdf-syntax-ns#"
   xmlns:svg="http://www.w3.org/2000/svg"
   xmlns="http://www.w3.org/2000/svg"
   mapsvg:geoViewBox="5.736110 50.183529 6.530375 49.447341"
   width="553.3761"
   height="792.6264">
 
  <path
     d="m 204.39601,8.6502115 1.32,4.4400005 0,6.4 0.7,2.17 8.15,5.31 7.38,3.35 1.6,1.63 5.36,1.73 2.09,-0.65 3.96,-3.57 5.36,0.54 -0.07,-2.71 1.26,-2.93 -0.91,-9.97 1.33,-0.86 2.43,-0.22 2.02,1.3 4.8,1.63 2.44,-0.65 2.44,-1.52 0.76,0.21 6.9,4.77 4.24,3.91 -0.41,1.84 -3.56,6.07 1.81,0.86 1.75,2.6 3.13,1.74 1.25,1.84 -3.2,1.52 -3.83,3.9 -1.18,3.14 -0.84,4.44 0.42,1.19 5.22,0 3.27,1.84 3,3.68 1.94,1.41 3.55,-0.43 -1.74,6.06 -4.38,2.28 -1.46,3.35 -0.21,2.49 0,1.63 0.69,1.3 2.37,-0.65 3.76,0.86 0.21,1.84 -1.67,3.14 -1.12,1.09 0,0.97 2.93,2.82 0.14,1.4 -0.56,1.3 -0.9,0.65 -4.6,0.11 -0.35,0.54 -0.07,2.16 0.63,2.17 1.81,1.51 1.81,0.22 0.56,0.65 -0.14,2.38 -1.05,1.299998 -1.25,0.43 -3.69,-1.299998 -1.88,-0.21 -0.76,0.54 -0.7,1.839998 -0.14,4.11 1.46,2.49 0.21,4.22 -0.21,0.65 -1.74,-0.33 -0.9,0.76 -3,4.87 0.35,2.49 1.05,0.97 0.76,0.43 2.23,-0.11 1.04,-0.54 0.7,-1.84 -1.81,-1.08 0.28,-1.51 1.32,-1.73 1.25,0 3.41,2.59 0.63,1.3 -0.07,1.19 -5.64,5.09 -0.48,4 -1.12,0.1 -3.48,-2.48 -1.74,0.75 -1.53,6.71 1.6,3.78 1.53,0.44 1.32,-0.33 0.91,-0.86 0.49,-3.46 0.55,-0.76 2.44,-0.22 1.6,1.3 -0.14,2.92 -2.09,3.68 0,1.3 9.12,12.43 0.07,2.92 -2.57,8.86 5.36,3.78 2.71,1.08 1.81,1.3 0.77,1.4 0.28,1.73 -0.49,1.19 -4.32,6.05 -1.88,0.76 0,0.75 0.7,0.98 2.58,1.4 3.48,0 1.67,0.97 0.97,0.87 0.14,3.35 -4.66,8.75 -0.84,0.21 -1.67,-1.51 -1.39,-0.43 -0.77,0.86 0.21,2.38 2.3,2.27 2.85,-0.22 2.23,0.65 1.39,2.16 1.19,3.24 2.29,2.48 2.09,0.54 3.27,-0.43 3.14,1.4 0.21,1.51 -3.14,8.75 -0.07,6.69 1.67,2.91 -0.34,1.73 1.74,2.7 2.09,1.29 2.15,0.33 0.84,7.44 0.49,1.41 1.04,1.08 1.74,0.32 4.04,-1.51 1.46,-1.94 0,-0.87 -2.57,-1.72 -0.42,-0.76 -1.61,-5.83 3.21,-4.42 2.78,-0.22 0.98,1.08 -0.07,3.46 1.46,3.67 -0.28,4.96 2.3,4.86 1.18,3.77 0.49,-0.11 0.49,-1.18 1.18,-4.21 2.65,-2.05 1.6,0.32 0.62,0.76 2.09,4.42 7.59,0 0,1.4 -3.83,4.21 0.07,0.86 3.2,2.49 3.55,4.96 0,0.65 -2.08,2.04 1.25,6.37 -3.76,3.23 -1.81,0.65 0,1.51 0.14,0.86 1.11,0.97 7.03,1.73 0.91,1.62 1.74,5.93 -0.07,1.18 -1.6,1.73 -2.23,-0.22 -0.35,0.43 1.95,2.91 2.3,8.63 4.94,3.34 4.32,0.64 1.74,2.7 0.28,2.26 0.63,1.08 2.64,2.26 2.16,2.8 2.02,5.17 2.29,0.65 7.18,3.99 1.11,0 2.51,-2.16 1.6,0.11 2.64,3.45 2.37,0 1.46,0.75 0.77,5.06 3.34,3.77 1.53,0.11 4.39,-3.34 1.04,-0.32 1.39,-0.11 2.09,0.97 1.05,1.72 0.34,1.84 -0.41,4.2 0.55,1.93 0,0 -5.5,2.8 1.81,3.13 0.84,7.53 -4.94,0.86 -3.14,-2.26 -1.39,-0.32 -2.23,1.08 -3.48,0 -2.02,0.86 -11.28,-2.37 -4.94,4.63 2.09,3.23 3.55,0.86 -11.35,12.06 0.56,5.05 0.63,1.83 2.29,1.08 7.38,1.94 -0.41,3.33 -0.21,1.29 -0.7,0.11 -1.18,1.4 -1.39,0 0.55,1.61 -1.04,1.29 0.42,2.05 -4.32,0.54 -3.34,-0.65 0.69,0.65 3.48,7.63 -2.64,2.48 -0.7,1.29 -6.26,3.44 -0.42,3.23 3.69,3.97 1.18,3.45 -2.36,0.96 0,0 -1.88,-3.33 -2.09,2.69 -1.67,-0.97 -2.37,-0.32 -0.91,-5.7 -1.18,-1.83 -0.56,0.54 -1.11,-3.12 -5.43,1.94 -1.18,0.86 -0.49,2.79 -1.25,-0.11 -1.12,2.05 -3.83,-2.26 -2.22,-1.94 -1.74,-3.98 -1.26,-0.96 -1.46,-0.11 -1.25,-0.97 -1.74,-0.43 0.55,-0.75 -0.49,-0.22 0.08,-1.07 -1.68,-0.43 -2.02,-2.05 -0.34,0.65 -1.39,-0.11 0.76,-1.29 -1.53,-0.32 -0.56,-1.72 1.53,-3.45 0.28,-3.65 -0.69,-3.45 -1.53,-2.26 -0.28,-4.52 -2.09,-0.64 -8.15,2.58 -4.17,-1.61 -3.55,-0.33 -1.26,1.19 -6.68,3.87 -0.35,-2.69 0.49,-0.54 -0.56,-0.96 -0.14,-2.05 -1.74,-3.12 -0.83,0.22 -0.35,-0.65 -9.4,6.78 -0.98,2.15 -0.55,-0.54 -5.22,4.31 -8.64,5.48 -2.36,-3.87 -4.11,-1.29 -3.2,-0.43 -0.98,-1.61 1.05,-1.62 -0.07,-1.07 -1.81,-3.13 -2.23,-0.32 -0.28,-0.54 -3.62,0.54 -7.66,-3.23 -0.35,-0.64 0.7,-3.34 -0.28,-0.54 -1.04,-0.53 -5.43,-0.43 -0.28,-2.27 0.9,-1.18 -0.9,-0.86 -0.91,1.51 0.28,1.61 -1.11,1.62 -1.6,0.43 -5.85,3.55 0.49,1.18 -1.4,0.97 -3.2,-2.26 -1.74,-0.11 -1.39,0.76 0.28,3.12 -1.88,0.32 -3.9,3.12 -0.21,1.61 -2.58,5.71 0.28,1.18 -0.42,1.72 1.81,1.18 -0.34,1.51 5.71,4.3 -3,0.22 -3.76,2.58 -6.4,2.8 0.83,1.93 -4.03,1.4 0.27,2.58 -0.48,2.04 -1.6,1.08 0.55,0.97 0.07,2.47 -5.64,-0.21 -1.74,0.86 -2.71,2.79 0.07,1.18 -0.77,1.08 1.39,2.04 0.98,3.01 -1.32,1.83 1.04,0.86 1.81,0.21 -0.42,1.72 -1.39,-0.1 -0.84,0.86 -1.74,0.21 -0.69,0.75 0.55,1.51 1.4,0.43 -1.05,0.86 -0.21,1.18 0.42,2.9 0.49,0.11 0.97,2.8 -3.13,1.5 0.42,0.43 -1.53,1.93 -0.21,1.4 -3.2,2.47 0.34,1.18 -0.9,1.08 0.76,1.07 0.21,1.83 -1.67,0.75 -0.9,1.4 1.67,0.86 1.95,3.01 -2.09,1.61 0.97,0.75 -0.07,0.86 3.35,-1.18 0.9,1.61 1.67,-1.08 -0.28,-0.64 0.42,-0.21 2.72,4.83 1.04,0 2.37,1.72 -0.49,1.07 -3.41,1.72 2.5,3.01 -0.97,2.79 1.74,1.93 -1.18,0.54 0.35,1.29 -2.09,0.97 1.25,2.47 -8.84,2.9 -1.05,-0.76 0,-3.76 -1.39,0 -3.48,1.19 -1.53,1.5 -2.37,0.97 -3.55,0.1 -1.46,-1.71 -0.56,2.14 -4.17,2.37 -4.25,3.75 -2.02,0.97 -0.91,1.93 -1.32,1.08 -0.21,1.93 -3.13,0.21 -3.97,3.76 -6.54,3.22 -5.43,0.54 -6.55,-1.61 -3.13,-4.3 0.77,-4.72 -0.91,-1.07 -2.78,1.07 -3.28,0 0.35,-1.4 -2.22,-0.53 -4.46,2.68 -1.95,0.11 -2.16,1.07 0,0 -3.13,-4.72 -2.299997,-1.5 -1.53,-2.04 0.07,-0.65 0.97,-0.75 -0.41,-1.5 0.21,-1.51 -0.42,-0.32 -3.41,0.32 -1.6,-3.33 -0.91,-0.86 -3.06,-1.18 -2.3,-0.43 -1.39,0.33 -2.02,1.5 -2.58,0.64 -4.31,2.9 -4.04,-0.32 -2.58,-1.83 -2.43,0.11 -3.49,1.08 -0.83,-2.04 0.63,-2.9 -0.77,-4.08 1.53,-2.47 -0.56,-3.12 0.42,-2.69 2.51,-2.47 -0.56,-2.79 0.42,-3.97 -1.53,-2.26 -3.97,-0.32 -3.2,-4.73 -1.74,-7.09 -3.9,-5.27 -0.63,-4.94 -1.18,-3.44 -1.53,-2.8 -3.21,-2.26 -1.53,-5.26 -3.48,-3.23 -0.14,-4.41 -1.74,-4.08 -1.25,-1.62 -1.88,-0.86 -1.18,0.54 -2.3,3.01 -0.98,0.11 -2.15,-1.83 -1.47,-0.11 -1.81,1.29 -6.89,0.97 -4.94,1.51 -1.12,-3.12 0.14,-2.37 -0.97,-3.22 -0.84,-6.57 -0.9000001,-2.15 0.5600001,-6.56 -1.4000001,-1.83 -1.18,-0.64 -1.53,-3.98 0.21,-0.76 2.85,-2.9 0.14,-1.51 -2.71,-7.43 -2.37,-2.69 -0.56,-1.4 0.07,-1.5 1.32,-2.05 1.19,-0.21 2.64,0.54 1.4600001,-0.87 0.28,-1.72 -1.3900001,-3.66 0.63,-3.12 3.3400001,1.61 2.09,-1.07 0.76,-1.4 -0.07,-2.69 -2.02,-2.48 -5.3600001,-0.54 -0.41,-0.97 0.28,-0.54 1.9400001,-0.32 3.14,-1.51 2.85,0.11 1.25,-1.51 -0.06,-1.07 -3.49,-3.88 1.05,-5.06 -2.44,-3.23 1.25,-3.45 1.4,-0.21 2.85,3.33 2.09,0.76 1.25,-0.76 1.95,-2.47 0.91,-0.33 0.83,0.76 0.98,4.09 1.25,0.32 0.91,-0.97 1.18,-3.98 2.51,0.11 1.88,-0.97 -0.28,-1.29 -2.93,-1.62 -0.28,-0.75 0.7,-0.33 1.95,1.19 0.97,-3.88 -1.11,-1.73 -2.16,-1.5 -0.48,-1.94 -0.91,-0.86 -3.2,-0.76 -1.6,-2.05 -3.76,-1.83 -5.71,-1.08 -6.3400001,-3.12 -2.99,-2.91 -2.3,-0.22 -2.63999999,-1.4 -0.7,-2.58 3.33999999,-3.88 -0.21,-1.08 2.65,-1.19 2.71,-4.74 8.7800001,-5.61 1.81,-2.04 -0.42,-1.19 0.35,-3.56 -0.35,-2.16 1.18,-0.86 -0.56,-1.4 1.05,-6.79 3.48,-0.87 -0.21,-1.83 0.98,-3.13 2.71,-2.26 -0.35,-2.05 -1.88,-3.78 0.84,-1.29 -1.6,-3.56 0.97,-3.02 1.53,-1.62 0.35,-1.73 -0.83,-2.59 1.67,-1.29 0.14,-3.03 2.99,-1.72 0.97,0.11 1.81,1.61 3.9,-0.97 0.84,-1.08 -0.21,-1.18 3.9,-2.49 2.57,2.59 2.65,-0.1 2.09,0.54 1.32,-0.76 0.98,-1.4 -0.49,-2.48 0.97,-1.73 -0.14,-1.51 0.7,-1.19 4.46,0 1.32,-0.65 2.99,-3.34 1.81,0.1 3.34,-1.62 3.76,-4.42 1.19,-2.7 0.34,-6.37 -0.76,-1.62 -0.91,-0.54 -3.83,0.43 -1.74,-3.35 -4.03,-3.56 -1.12,-2.59 0.14,-2.27 -0.76,-2.05 0.48,-2.92 -1.25,-3.89 0.42,-1.19 -0.28,-1.73 2.09,-1.62 3.9,-0.21 1.18,-1.84 1.67,-0.54 0.97,-1.62 2.79,-0.54 1.39,0.43 1.32,-0.21 3.77,-2.81 3.62,-1.84 -0.35,-3.24 1.32,-0.87 0.21,-1.19 4.45,-1.51 -0.27,-2.05 -1.12,-1.73 -0.49,-4.22 1.4,-1.83 2.5,-1.41 -0.07,-2.27 3.07,-2.16 0.34,-1.95 1.33,-0.75 0.14,-0.98 -1.19,-3.67 -1.6,-2.16 -1.88,-1.95 -3.55,-0.65 -2.37,-4.87 1.47,-3.56 0.83,-3.79 1.53,-2.81 2.02,-0.76 2.37,-1.73 0.97,-2.16 1.05,-0.87 7.379997,-2.81 1.39,0.97 4.04,-2.81 0.62,-1.95 -0.06,-4 -0.98,-6.49 1.6,-4.549998 4.18,-7.9 0.7,-4.22 0.06,-6.39 0.56,-1.4 1.25,-0.87 2.3,-3.25 5.64,-3.25 1.88,-1.95 3.27,-0.64 8.15,-4.88 8.7,-3.03 4.94,-0.65 3.42,-1.62 4.8,-1.09 -1.19,-8.34 1.81,-3.79 -1.32,-8.88 1.19,-1.3 1.39,-0.44 2.43,-2.05 -2.22,-6.51 -1.05,-0.65 1.4,-3.68 0.48,-7.81 4.18,-3.6800005 19.77,-0.65 4.53,-1.74 12.32,-6.61 1.04,0.87"
     title="Diekirch"
     id="LU-D" />
  <path
     d="m 408.09601,363.86021 -1.25,3.77 0.07,3.01 1.6,2.58 2.79,1.94 1.32,0.22 2.99,-0.86 3.41,-2.8 1.26,-7.75 1.74,-2.16 4.38,-1.5 4.39,-0.43 5.15,-0.11 2.58,0.97 3.41,4.63 1.6,3.01 6.54,7.11 2.02,3.22 6.34,7.75 2.44,4.74 1.67,1.18 8.63,3.34 8.98,1.5 1.18,3.88 2.3,1.72 1.53,0.11 6.2,-3.66 1.25,2.26 1.39,0.53 6.2,0 2.51,-2.36 3.34,-4.52 6.12,-5.17 5.36,3.55 2.02,2.05 1.67,3.66 3.28,2.26 1.53,0.53 3.83,-0.32 6.4,3.23 2.99,6.78 1.47,0.86 1.81,-1.08 1.53,-2.69 1.04,-3.55 0.42,-4.09 2.85,-0.21 2.65,1.83 0.77,1.07 1.32,4.2 -0.28,1.07 -1.95,1.94 -2.92,4.95 -2.65,2.69 -6.82,3.65 -2.09,1.94 0.28,2.37 0.97,1.5 1.26,1.29 4.17,2.04 0.84,0.97 0.14,1.29 -2.86,3.98 -0.83,1.93 -0.42,3.01 0.49,1.4 3.62,4.19 0.69,6.13 -1.11,2.9 -4.18,3.33 -4.8,2.58 -1.11,1.18 -0.56,0.86 -0.49,3.66 0,1.18 1.39,3.44 -0.34,10.31 0.41,3.54 2.65,2.8 7.03,4.94 0.14,1.93 -1.88,1.72 -2.37,0.11 -3.13,-3.76 -2.65,-2.15 -2.29,-0.43 -1.67,0.54 -0.56,0.86 -0.21,2.89 3.13,3.44 4.6,3.65 0.42,1.18 -0.42,1.51 -6.82,4.93 -9.54,12.13 -2.79,2.47 -3.34,1.08 -2.37,1.39 -7.58,2.26 -1.74,1.93 -0.84,3.11 -5.08,8.37 -3.2,3.54 -9.89,7.51 -2.71,5.36 0.27,2.15 0.84,1.5 6.26,0 2.65,2.36 0.21,3.11 -1.32,4.93 -6.97,15.87 -4.17,14.57 -1.46,3.11 -1.81,2.36 -2.44,1.5 -3.55,3.75 -3.48,5.03 -1.19,2.79 -1.81,2.14 -2.29,1.5 -3.76,1.28 -3.21,0.22 -1.95,1.28 -5.36,5.9 -1.32,2.67 0.21,5.14 1.25,2.57 2.65,2.14 0.9,3.64 -0.55,1.08 -0.98,0.74 -1.53,0 -1.39,-0.53 -2.65,-2.14 -2.92,0.43 -3.97,2.24 -2.99,4.07 -0.07,2.25 2.5,3.21 6.83,4.6 6.19,5.03 1.53,2.36 -0.2,1.82 -2.37,5.67 -3.2,3.64 -4.88,6.84 -3.48,2.68 -3.13,5.03 -0.7,2.35 0.07,1.71 7.24,24.17 0.14,13.89 1.32,4.71 -0.97,8.22 -0.28,11.12 0.56,10.78 -2.37,0.97 -0.97,-0.33 -3.14,-2.24 -4.38,-5.12 -1.19,-0.22 -2.99,1.18 -3.13,-2.67 -1.19,0.85 -1.39,-0.53 -2.64,1.06 -1.05,-0.74 -0.55,-1.29 -1.47,-0.64 -1.67,-2.56 -4.66,-5.02 -4.6,-0.86 -0.48,-1.49 -1.47,-0.11 -4.31,2.25 -5.43,-3.1 -1.33,-1.18 0.07,-1.17 2.86,-5.45 -1.18,-0.86 -1.26,0.86 -2.71,0.1 -0.91,2.89 -1.46,-0.11 -1.74,-3.85 -0.97,-1.06 -0.35,-1.82 0.21,-0.96 2.57,0.64 0.63,-2.78 -1.39,-0.53 -2.65,1.17 -1.67,-0.32 -0.84,-1.07 -0.62,-2.99 0.41,-4.49 -0.55,-1.39 -1.46,0 -2.93,-1.18 -6.82,0.32 -0.7,-1.06 0,-1.5 -2.71,-1.6 -0.49,-3.21 -1.88,-0.11 -4.25,2.25 -1.6,-0.97 -1.18,-2.46 -1.6,-0.53 -1.39,-1.82 0,0 -0.35,-2.24 -1.26,-1.18 -1.25,-0.21 -0.07,-1.93 -0.62,-0.43 2.71,-5.45 -2.85,-3.64 3.13,-2.56 -2.58,-3.43 -0.55,0.43 -1.6,-1.39 -1.05,-1.82 -0.28,-1.6 -1.53,0 0.49,-2.68 -1.05,-0.64 0.7,-1.92 -0.84,-0.86 1.33,-1.39 -0.63,-0.86 -1.11,0.75 -1.39,-2.35 0.62,-0.32 -0.97,-0.43 -3.35,-5.14 -0.48,-2.46 5.08,-2.78 2.58,4.5 2.08,-0.97 0.84,0.86 0.63,-0.54 0.21,-0.43 -2.02,-1.81 -1.47,-2.68 1.26,-2.68 -0.84,-1.71 1.46,-2.89 -1.11,-2.14 0.56,-0.53 -1.12,-1.07 -0.14,-2.25 1.26,0.75 3.83,-0.22 1.81,2.79 0.69,0.32 3.69,0.1 4.04,-0.74 3.69,-2.15 -1.95,-2.14 0.21,-3.1 1.74,-3.64 0.9,-0.54 3.9,0.32 0,-1.17 1.47,-0.11 -0.28,-1.39 0.9,-2.14 -0.14,-0.75 1.46,-1.18 4.74,-0.54 5.36,-1.6 6.4,0 2.93,1.5 2.57,2.67 0.35,-0.32 0.63,-1.39 -0.07,-2.46 -0.91,-4.18 -0.97,-0.75 0,-1.5 -2.44,-2.89 -1.11,-3.86 -3.27,-0.32 -0.63,-0.43 -0.63,-2.03 -1.74,-0.32 -0.55,-0.75 -3.07,0.21 -1.25,0.75 -0.97,-0.21 -0.14,0.64 -1.54,0.43 -0.69,-0.75 2.23,-3.86 11,-12.43 7.24,-9 2.43,-2.14 0.7,-0.96 -0.14,-3.76 -0.77,-1.6 -2.15,-1.18 -0.91,-3.11 -0.56,0.21 -0.21,-0.42 -2.36,1.07 -1.74,-0.22 -0.07,-1.93 -1.81,0.11 -1.88,-2.68 0.21,-3.75 -0.7,-2.47 0.35,-0.53 -0.77,-1.29 0.56,-0.32 -0.56,-1.29 -3.83,-2.04 -0.83,-0.96 -0.35,-6.11 -0.83,0.1 -0.08,-0.43 3.49,-0.75 0.55,-6.22 -3.13,-0.1 -1.39,0.43 -0.77,-4.62 0.42,-0.86 0.07,-6.86 -0.77,-1.61 -3.89,3 -0.84,-2.68 -1.04,-0.1 -0.49,1.28 -0.7,0.22 -0.62,-4.94 -1.19,-1.93 -0.28,-1.5 -3.34,-0.97 -2.02,-1.5 -0.14,0.64 -2.29,0.65 -1.05,-0.32 -0.35,0.85 -2.15,-1.18 -7.45,2.37 -1.54,-0.11 -1.25,-1.83 -1.53,0.43 -1.81,-0.21 -0.84,-0.75 -1.11,0.32 -1.39,1.61 -0.7,-1.61 -5.29,0.32 -2.02,-4.4 -6.4,0.97 -4.18,0.1 -0.84,0.86 0.07,0.86 1.26,1.72 -3.48,2.68 -1.54,-1.61 -6.33,-1.07 -0.97,0 -0.49,1.5 -0.56,-0.21 0.56,-3.01 -3.48,0.11 -0.91,0.86 -1.88,0 -2.02,-1.18 3.76,-2.69 2.09,-0.75 0.77,0.86 1.11,-1.39 0.42,0.32 0.76,-0.32 0.7,-2.15 0.91,-0.64 -2.44,-2.69 0.07,-0.75 3.06,-2.04 0.91,-6.01 1.6,-2.36 -1.12,-1.93 0.77,-1.61 0.14,-3.65 -1.53,-2.36 7.86,-5.37 2.23,-0.22 2.37,-1.39 -0.35,-1.72 3.83,-0.97 0.07,-0.86 -1.67,-2.04 2.23,-1.5 3.83,-0.97 -0.28,-0.97 3.9,-3.65 0.07,-0.86 2.36,-3.54 0.21,-3.01 2.99,-9.45 0.35,-0.33 1.53,1.4 3.42,0.43 3.89,1.4 4.53,0.32 2.16,0.65 7.31,-0.33 1.88,0.86 0.42,-0.21 0.48,-2.47 4.88,-5.91 0.41,-4.95 2.51,-1.61 1.74,-3.76 -2.23,-0.54 -0.55,-1.5 3.48,-3.44 -0.07,-1.18 -2.09,0.1 -0.98,-1.72 -1.46,0.11 -2.71,1.51 -0.56,0 -0.49,-0.76 -0.83,0.43 0.07,-0.75 -1.05,0.65 -1.11,-0.11 -0.63,-5.59 -0.97,-2.47 1.39,-0.32 -0.56,-2.26 -3.2,1.5 -2.58,-0.97 -2.15,1.94 -2.79,-4.3 -0.56,0.32 -0.34,-0.54 -1.26,0.97 -1.04,-2.15 -3.55,0.86 -0.28,-1.18 2.44,-0.75 1.04,-1.19 2.02,-0.21 2.51,-1.08 0,0 2.36,-0.96 -1.18,-3.45 -3.69,-3.97 0.42,-3.23 6.26,-3.44 0.7,-1.29 2.64,-2.48 -3.48,-7.63 -0.69,-0.65 3.34,0.65 4.32,-0.54 -0.42,-2.05 1.04,-1.29 -0.55,-1.61 1.39,0 1.18,-1.4 0.7,-0.11 0.21,-1.29 0.41,-3.33 -7.38,-1.94 -2.29,-1.08 -0.63,-1.83 -0.56,-5.05 11.35,-12.06 -3.55,-0.86 -2.09,-3.23 4.94,-4.63 11.28,2.37 2.02,-0.86 3.48,0 2.23,-1.08 1.39,0.32 3.14,2.26 4.94,-0.86 -0.84,-7.53 -1.81,-3.13 5.5,-2.8 0,0 2.93,5.17 2.36,2.37 0.35,1.29"
     title="Grevenmacher"
     id="LU-G" />
  <path
     d="m 103.93601,512.11021 2.16,-1.07 1.95,-0.11 4.46,-2.68 2.22,0.53 -0.35,1.4 3.28,0 2.78,-1.07 0.91,1.07 -0.77,4.72 3.13,4.3 6.55,1.61 5.43,-0.54 6.54,-3.22 3.97,-3.76 3.13,-0.21 0.21,-1.93 1.32,-1.08 0.91,-1.93 2.02,-0.97 4.25,-3.75 4.17,-2.37 0.56,-2.14 1.46,1.71 3.55,-0.1 2.37,-0.97 1.53,-1.5 3.48,-1.19 1.39,0 0,3.76 1.05,0.76 8.84,-2.9 -1.25,-2.47 2.09,-0.97 -0.35,-1.29 1.18,-0.54 -1.74,-1.93 0.97,-2.79 -2.5,-3.01 3.41,-1.72 0.49,-1.07 -2.37,-1.72 -1.04,0 -2.72,-4.83 -0.42,0.21 0.28,0.64 -1.67,1.08 -0.9,-1.61 -3.35,1.18 0.07,-0.86 -0.97,-0.75 2.09,-1.61 -1.95,-3.01 -1.67,-0.86 0.9,-1.4 1.67,-0.75 -0.21,-1.83 -0.76,-1.07 0.9,-1.08 -0.34,-1.18 3.2,-2.47 0.21,-1.4 1.53,-1.93 -0.42,-0.43 3.13,-1.5 -0.97,-2.8 -0.49,-0.11 -0.42,-2.9 0.21,-1.18 1.05,-0.86 -1.4,-0.43 -0.55,-1.51 0.69,-0.75 1.74,-0.21 0.84,-0.86 1.39,0.1 0.42,-1.72 -1.81,-0.21 -1.04,-0.86 1.32,-1.83 -0.98,-3.01 -1.39,-2.04 0.77,-1.08 -0.07,-1.18 2.71,-2.79 1.74,-0.86 5.64,0.21 -0.07,-2.47 -0.55,-0.97 1.6,-1.08 0.48,-2.04 -0.27,-2.58 4.03,-1.4 -0.83,-1.93 6.4,-2.8 3.76,-2.58 3,-0.22 -5.71,-4.3 0.34,-1.51 -1.81,-1.18 0.42,-1.72 -0.28,-1.18 2.58,-5.71 0.21,-1.61 3.9,-3.12 1.88,-0.32 -0.28,-3.12 1.39,-0.76 1.74,0.11 3.2,2.26 1.4,-0.97 -0.49,-1.18 5.85,-3.55 1.6,-0.43 1.11,-1.62 -0.28,-1.61 0.91,-1.51 0.9,0.86 -0.9,1.18 0.28,2.27 5.43,0.43 1.04,0.53 0.28,0.54 -0.7,3.34 0.35,0.64 7.66,3.23 3.62,-0.54 0.28,0.54 2.23,0.32 1.81,3.13 -0.07,1.39 -0.91,0.86 0.98,2.05 3.2,0.43 4.11,1.29 2.36,3.87 8.64,-5.48 5.22,-4.31 0.55,0.54 0.98,-2.15 9.4,-6.78 0.35,0.65 0.83,-0.22 1.74,3.12 0.14,2.05 0.56,0.96 -0.49,0.54 0.35,2.69 6.68,-3.87 1.26,-1.19 3.55,0.33 4.17,1.61 8.15,-2.58 2.09,0.64 0.28,4.52 1.53,2.26 0.69,3.45 -0.28,3.65 -1.53,3.45 0.56,1.72 1.53,0.32 -0.76,1.29 1.39,0.11 0.34,-0.65 2.02,2.05 1.68,0.43 -0.08,1.07 0.49,0.22 -0.55,0.75 1.74,0.43 1.25,0.97 1.46,0.11 1.26,0.96 1.74,3.98 2.22,1.94 3.83,2.26 1.12,-2.05 1.25,0.11 0.49,-2.79 1.18,-0.86 5.43,-1.94 1.11,3.12 0.56,-0.54 1.18,1.83 0.91,5.7 2.37,0.32 1.67,0.97 2.09,-2.69 1.88,3.33 0,0 -2.51,1.08 -2.02,0.21 -1.04,1.19 -2.44,0.75 0.28,1.18 3.55,-0.86 1.04,2.15 1.26,-0.97 0.34,0.54 0.56,-0.32 2.79,4.3 2.15,-1.94 2.58,0.97 3.2,-1.5 0.56,2.26 -1.39,0.32 0.97,2.47 0.63,5.59 1.11,0.11 1.05,-0.65 -0.07,0.75 0.83,-0.43 0.49,0.76 0.56,0 2.71,-1.51 1.46,-0.11 0.98,1.72 2.09,-0.1 0.07,1.18 -3.48,3.44 0.55,1.5 2.23,0.54 -1.74,3.76 -2.51,1.61 -0.41,4.95 -4.88,5.91 -0.48,2.47 -0.42,0.21 -1.88,-0.86 -7.31,0.33 -2.16,-0.65 -4.53,-0.32 -3.89,-1.4 -3.42,-0.43 -1.53,-1.4 -0.35,0.33 -2.99,9.45 -0.21,3.01 -2.36,3.54 -0.07,0.86 -3.9,3.65 0.28,0.97 -3.83,0.97 -2.23,1.5 1.67,2.04 -0.07,0.86 -3.83,0.97 0.35,1.72 -2.37,1.39 -2.23,0.22 -7.86,5.37 1.53,2.36 -0.14,3.65 -0.77,1.61 1.12,1.93 -1.6,2.36 -0.91,6.01 -3.06,2.04 -0.07,0.75 2.44,2.69 -0.91,0.64 -0.7,2.15 -0.76,0.32 -0.42,-0.32 -1.11,1.39 -0.77,-0.86 -2.09,0.75 -3.76,2.69 2.02,1.18 1.88,0 0.91,-0.86 3.48,-0.11 -0.56,3.01 0.56,0.21 0.49,-1.5 0.97,0 6.33,1.07 1.54,1.61 3.48,-2.68 -1.26,-1.72 -0.07,-0.86 0.84,-0.86 4.18,-0.1 6.4,-0.97 2.02,4.4 5.29,-0.32 0.7,1.61 1.39,-1.61 1.11,-0.32 0.84,0.75 1.81,0.21 1.53,-0.43 1.25,1.83 1.54,0.11 7.45,-2.37 2.15,1.18 0.35,-0.85 1.05,0.32 2.29,-0.65 0.14,-0.64 2.02,1.5 3.34,0.97 0.28,1.5 1.19,1.93 0.62,4.94 0.7,-0.22 0.49,-1.28 1.04,0.1 0.84,2.68 3.89,-3 0.77,1.61 -0.07,6.86 -0.42,0.86 0.77,4.62 1.39,-0.43 3.13,0.1 -0.55,6.22 -3.49,0.75 0.08,0.43 0.83,-0.1 0.35,6.11 0.83,0.96 3.83,2.04 0.56,1.29 -0.56,0.32 0.77,1.29 -0.35,0.53 0.7,2.47 -0.21,3.75 1.88,2.68 1.81,-0.11 0.07,1.93 1.74,0.22 2.36,-1.07 0.21,0.42 0.56,-0.21 0.91,3.11 2.15,1.18 0.77,1.6 0.14,3.76 -0.7,0.96 -2.43,2.14 -7.24,9 -11,12.43 -2.23,3.86 0.69,0.75 1.54,-0.43 0.14,-0.64 0.97,0.21 1.25,-0.75 3.07,-0.21 0.55,0.75 1.74,0.32 0.63,2.03 0.63,0.43 3.27,0.32 1.11,3.86 2.44,2.89 0,1.5 0.97,0.75 0.91,4.18 0.07,2.46 -0.63,1.39 -0.35,0.32 -2.57,-2.67 -2.93,-1.5 -6.4,0 -5.36,1.6 -4.74,0.54 -1.46,1.18 0.14,0.75 -0.9,2.14 0.28,1.39 -1.47,0.11 0,1.17 -3.9,-0.32 -0.9,0.54 -1.74,3.64 -0.21,2.78 0.35,1.07 1.6,1.39 -3.69,2.15 -4.04,0.74 -3.69,-0.1 -0.69,-0.32 -1.81,-2.79 -3.83,0.22 -1.26,-0.75 0.14,2.25 1.12,1.07 -0.56,0.53 1.11,2.14 -1.46,2.89 0.84,1.71 -1.26,2.68 1.47,2.68 2.02,1.81 -0.21,0.43 -0.63,0.54 -0.84,-0.86 -2.08,0.97 -2.58,-4.5 -5.08,2.78 0.48,2.46 3.35,5.14 0.97,0.43 -0.62,0.32 1.39,2.35 1.11,-0.75 0.63,0.86 -1.33,1.39 0.84,0.86 -0.7,1.92 1.05,0.64 -0.49,2.68 1.53,0 0.28,1.6 1.05,1.82 1.6,1.39 0.55,-0.43 2.58,3.43 -3.13,2.56 2.85,3.64 -2.71,5.45 0.62,0.43 0.07,1.93 1.25,0.21 1.26,1.18 0.35,2.24 0,0 -0.98,0 -0.9,5.03 -0.98,0.53 -4.04,-1.49 -1.11,1.17 -1.18,-0.96 -4.39,1.5 -2.71,-1.39 0.07,2.67 -0.49,1.5 -6.55,0.21 -2.64,-0.75 -4.46,1.39 -2.22,-1.71 -3.9,0.43 -2.65,-1.28 -4.52,0.64 -0.84,-1.29 0,-1.81 -1.46,0.1 -2.44,2.36 -5.5,2.99 -4.87,0.75 -1.32,2.46 0,1.38 2.01,4.71 2.09,2.24 0.21,1.71 -2.57,0.96 -1.47,-2.35 -1.04,0.64 -1.25,2.25 -1.4,0.53 -4.66,3.74 -1.18,-0.1 0.9,-2.67 -0.07,-1.93 -1.39,0.11 -4.66,1.92 -1.26,-0.43 -1.67,-2.88 -1.25,-0.54 -0.7,2.68 -0.07,9.29 -2.43,5.35 -0.35,3.95 -5.99,2.78 -2.44,-2.25 -1.88,0.22 -2.08,1.17 -2.23,2.35 -2.37,6.3 1.81,7.8 -0.07,2.67 -4.52,-0.43 -3,-0.96 -6.05,-3.95 -0.49,-0.85 0.28,-5.66 -0.91,-1.07 -1.74,-0.32 -2.85,0.42 0.69,-1.17 -0.28,-0.53 -3.2,1.7 -2.57,0.22 -2.09,-0.11 -3.13,-1.39 -1.4,0.32 -3.06,4.7 -2.09,4.38 -1.04,4.27 -3.21,6.73 -5.36,-2.35 -3.41,0.11 -1.11,0.53 -0.63,-0.85 1.05,-2.78 -1.26,-2.56 -1.39,-0.75 -6.13,1.5 -1.39,0.96 -1.18,-0.54 -1.12,0.22 -1.04,0.85 -1.11,-0.32 -2.86,-3.52 -2.57,-0.64 -12.19,6.51 -1.25,-0.64 -0.98,-2.03 0.56,-2.56 1.46,-1.07 1.74,0.75 1.33,0 1.04,-4.92 0,-2.13 -2.3,-0.96 -0.97,0.32 -1.11,2.13 -1.54,0.64 -3.34,-5.55 -1.6,-8.33 1.74,-2.57 0.49,-2.77 -0.7,-3.64 -2.99,-2.03 -1.18,-4.06 0.07,-4.17 -1.26,-1.81 -2.37,-0.43 -4.45,0.53 -2.44,-0.32 -2.99,-2.67 -1.32,-0.53 -1.54,-2.03 -2.92,-1.93 -2.58,-0.43 -5.49,2.68 -1.12,0 -8.7,-3.96 -3.55,0.64 -4.94,3.42 -5.99,1.71 -8.36,-3.1 -4.589997,1.18 -1.39,-1.28 -1.12,-0.11 -2.02,0.85 -1.53,-1.06 -2.5,-2.46 -1.74,-3.21 -3.48,-2.35 -3.7,-1.71 -0.2,-4.06 -0.63,-2.14 -4.04,-1.82 -4.11,-3.32 -1.32,-2.03 -0.56,-4.7 0.49,-1.5 5.36,-2.67 1.19,-1.5 -3.35,-5.99 -1.46,-3.64 0.35,-1.82 -0.63,-0.96 -5.36,1.82 -5.57,3.1 -2.85,0.96 -4.87,-6.09 -0.07,-1.5 3.41,-0.86 0.56,-0.64 0.2,0.53 0.63,-0.21 2.58,-3.1 2.5,-1.93 1.74,-0.43 1.33,0.86 3.06,-2.03 5.22,-1.39 1.25,-0.86 1.81,-2.78 -0.97,-3.43 0.83,-2.46 3.07,-1.18 2.3,-2.46 1.74,-0.75 2.22,-0.21 0.91,-0.96 0.49,-2.9 1.6,-0.64 3.48,-3.31 1.25,0.21 0.49,-0.54 -0.28,-3.74 0.42,-1.93 -2.16,-0.64 1.46,-3.22 1.39,-0.85 -0.9,-4.29 -2.16,-1.07 -1.25,2.04 -1.19,0.75 -5.57,0 -2.43,-1.07 -1.74,-3.11 -0.98,-6.21 2.09,-3.11 5.15,-2.67 5.43,-4.82 3.9,-1.5 1.67,-1.29 0.7,-4.71 -1.05,-2.79 0.91,-4.93 3.969997,-5.25 3.2,-2.79 0,-0.85 -1.67,-2.15 -0.07,-1.39 2.58,-3.96 3.13,-0.97 3.83,-0.11 3.06,2.15 3.27,-3.33 0.49,-1.5 -1.67,-2.68 -0.07,-3.11 -1.18,-0.75 0,-5.89 -0.49,-1.61 0.7,-2.15 1.6,-1.5 -1.81,-2.89 1.88,-3.43 3.27,-1.83 0.42,-1.18 -1.05,-1.18 -1.11,-0.21 -1.95,1.39 -1.6,-0.32 -0.14,-1.29 0.76,-1.93 -0.69,-0.53 -2.3,1.39 -1.95,-1.82 -2.37,0.86 -1.6,-2.15 -1.6,1.61 -1.18,0.11 -2.37,-1.83 -0.21,-1.71 -2.299997,-2.15 -3.27,0 -1.81,-1.61 -3.76,-0.53 -3.06,-5.91 0.42,-4.39 1.39,-5.58 0.77,-1.18 0.06,-2.79 3.49,-5.16 4.52,-3.54 2.369997,-3.54 3.34,-3.65"
     title="Luxembourg"
     id="LU-L" />
</svg>
