<?xml version="1.0" encoding="UTF-8" standalone="no"?>
<!-- Created for MapSVG plugin: http://mapsvg.com -->
<svg
   xmlns:mapsvg="http://mapsvg.com"
   xmlns:dc="http://purl.org/dc/elements/1.1/"
   xmlns:rdf="http://www.w3.org/1999/02/22-rdf-syntax-ns#"
   xmlns:svg="http://www.w3.org/2000/svg"
   xmlns="http://www.w3.org/2000/svg"
   mapsvg:geoViewBox="20.455561 42.338669 23.006302 40.855173"
   width="774.91754"
   height="600.5036">
  
  <path
     d="m 333.81957,167.77199 -5.51,3.73 0,0 -2.63,-3.82 -4.51,-3.52 -4.13,-1 -6.38,-2.52 -3.38,-2.51 -3.38,-4.53 -3.75,-0.5 -2.69,-3.21 0,0 -0.69,-0.82 1.86,-3.64 0,0 1.14,-0.38 0.68,0.38 0,0 3.45,2.13 3.01,0.5 4.5,2.52 6.38,5.03 8.27,4.03 5.25,4.02 z"
     title="Aerodrom"
     id="MK-01" />
  <path
     d="m 329.76957,109.81199 1.56,2.3 4.09,4.35 2.39,4.34 2.22,1.83 4.94,1.14 1.71,-0.68 2.16,-8.87 0,0 2.65,0 6.06,3.28 0.34,4.62 0,0 -5.65,5.76 -8.18,10.42 -5.7,1.06 -5.22,2.9 -1.48,1.85 -1.47,0.13 -0.7,-0.68 0,0 -0.39,-0.37 0.4,-7 1.37,-2.37 2.17,-1.98 0.2,-1.85 -1.09,-9.64 -2.85,-4.23 -0.2,-4.75 z"
     title="Aračinovo"
     id="MK-02" />
  <path
     d="m 673.91957,216.79199 0.79,2.11 3.03,-0.19 11.4,1.35 4.33,1.35 5.7,2.96 0,0 0.5,3.21 4.19,11.17 2.16,1.16 0.58,2.31 0.14,3.86 1.16,2.69 2.45,0.58 0.87,-0.58 0.29,-2.11 1.73,-1.35 4.18,-0.2 13.28,2.51 3.46,1.54 1.59,2.89 0,2.89 4.18,-0.19 4.77,0.38 4.61,2.89 5.78,4.81 8.22,2.7 3.9,2.9 0,0 -0.3,1.5 -1.01,0.28 -2.97,3.67 -1.24,3.01 0.07,0.86 -0.69,0.29 -0.44,1.72 -1.38,0.96 0.1,1.08 0.7,0.7 -0.18,1.95 -0.66,0.31 -0.65,-0.6 -1.41,0.74 -2.27,-0.34 -1.97,0.79 -0.25,-0.43 -0.47,1.52 -1.89,1.07 -0.17,2.4 -0.84,1.41 1.38,1.99 0.21,0.99 -0.38,1.12 0.61,1.29 -0.34,2.66 -0.68,1.05 -0.14,1.56 0.38,1.17 -0.74,1.81 0.39,3.8 0.65,1.64 2.28,0.12 0.21,1.18 1.45,1.55 -0.33,0.83 0.47,2.97 0.76,1.47 1.1,0.41 0.14,1.43 -1.26,2.4 0.22,4.52 -3.11,0.69 -0.02,1.76 -0.54,1.46 0.46,1.33 0,0 -2.3,0.97 -10.68,0.77 -9.81,0 0,0 -1.44,0 -2.74,-3.84 -2.75,-1.92 -10.31,-0.58 -8.95,-1.53 -4.48,-3.08 -2.59,-3.07 -0.87,-3.65 -2.16,-3.07 -3.19,-0.43 0,0 -9.08,-2.07 -6.64,0.19 -0.14,-3.46 3.75,-1.54 0.72,-1.92 0.15,-6.15 -1.01,-2.5 -1.45,-1.35 -3.61,-0.96 -4.32,-4.61 -2.1,-0.53 -1.44,1.2 -1.62,3.85 -2.35,0.72 -0.9,-2.89 0.36,-3.36 -0.31,-0.77 0,0 -1.13,-2.84 -0.54,-3.37 0.18,-2.64 5.95,-9.38 0.18,-2.17 -1.44,-1.69 -2.35,-1.2 -2.16,-1.92 -1.09,-5.3 -0.13,-7.17 0,0 2.46,-2.22 3.32,-0.58 4.19,0 2.88,-3.46 2.02,-4.82 1.16,-4.82 0.43,-6.75 -0.43,-4.24 -1.01,-2.12 0.57,-3.28 z"
     title="Berovo"
     id="MK-03" />
  <path
     d="m 260.85957,457.91199 2.69,3.83 0,3.36 -2.68,5.14 0,3.95 1.04,3.55 1.64,3.56 2.69,3.15 2.99,1.98 4.02,1.38 1.8,1.78 0.74,5.32 -0.45,10.66 0.75,2.17 1.49,1.58 2.39,1.38 2.39,0.59 1.64,0 5.37,-3.55 1.49,-0.39 4.48,0.59 0.76,0.66 0,0 -0.62,1.75 0,4.11 -0.73,2.42 -1.1,1.69 -0.18,2.9 0.55,4.11 0.92,1.69 3.66,3.87 0.54,3.62 0.37,8.69 6.59,1.7 1.28,2.89 7.87,8.94 3.29,4.82 0.91,3.38 0.19,3.62 1.1,4.82 -0.1,4.11 0,0 -13.49,-0.13 -9.15,-3.99 -27.53,18.11 -15.35,5.12 -10.41,0.03 -3.6,-2.63 0,0 1.48,-5.16 0.74,-4.38 1.11,-2.43 0.37,-2.67 -0.74,-1.95 -3.14,-1.94 0.37,-5.11 -1.29,-5.11 -1.66,-1.21 -7.38,-0.24 -3.13,-0.98 0,-3.16 -1.29,-2.68 -3.32,-4.62 -4.06,-2.19 -12.73,0.24 -2.21,-1.94 0,-3.17 -0.74,-2.43 -4.61,-5.11 -1.48,-2.93 -0.73,-3.41 0,-3.65 -1.34,-1.1 -5.3,-0.91 -2.08,-2.44 0,-4.57 1.15,-3.95 5.54,-4.57 3,-5.18 0.69,-4.58 -0.69,-3.65 -2.77,-3.05 0.12,-2.19 0,0 10.25,-4.83 7.15,-0.91 7.15,-3.36 3.46,-4.57 4.61,-2.75 3.92,-0.3 3.92,-6.71 2.76,-0.31 3.46,-1.83 5.53,-4.27 3,-5.19 3.36,-2.32 0,0 1.48,-0.43 1.85,2.13 2.07,1.53 z"
     title="Bitola"
     id="MK-04" />
  <path
     d="m 641.10957,445.35199 0.57,2.2 1.72,1.92 2.17,0.96 2.9,4.2 5.61,0.36 2.45,-1.08 4.16,0.12 2.27,0.84 5.16,3.71 1.45,0 0.72,0.96 0,8.5 0.34,0.08 0,0 -2.55,0.85 -2.94,2.46 -3.67,9.18 -5.86,8.53 -6.5,5.16 -1.62,-0.57 0,0 1.45,-1.04 -2.64,-2.36 -4.62,-3.11 -7.79,-4.07 -6.88,-0.48 -0.72,-0.84 0.27,-3.83 1.63,-5.15 0.54,-5.28 -0.36,-2.03 -6.01,-8.73 0,0 5.58,-3.95 0.88,-9.67 1.33,-2.34 5.3,-0.15 1.33,2.64 2.87,1.9 z"
     title="Bogdanci"
     id="MK-05" />
  <path
     d="m 152.74957,157.75199 0.28,7.74 1.21,1.91 7.51,0.27 -0.2,2.99 -2.23,5.98 -2.03,2.99 -2.23,1.62 -3.25,0.55 -1.42,2.17 0.2,1.9 1.42,4.08 -2.16,0 0,0 -1.29,0 -2.03,-1.9 -4.06,-0.82 -16.44,-9.24 -9.95,-3.26 -18.879998,-3.26 -3.48,1.03 0,0 -4.64,-3.58 1.88,-5.92 0.07,-1.57 0,0 4.65,-2.19 3.45,-3.53 4.669998,-2.45 5.28,-1.91 3.65,-2.72 3.05,-2.99 3.45,-2.18 4.67,-0.27 17.45,4.08 2.85,1.63 7.3,8.71 z"
     title="Bogovinje"
     id="MK-06" />
  <path
     d="m 690.18957,313.09199 3.19,0.43 2.16,3.07 0.87,3.65 2.59,3.07 4.48,3.08 8.95,1.53 10.31,0.58 2.75,1.92 2.74,3.84 1.44,0 0,0 0.43,6.72 -0.86,3.26 -1.88,1.54 -5.92,8.25 -7.5,5.95 -1.44,1.92 0,14.38 -0.58,2.11 -3.75,3.06 -0.29,1.15 0,0 -3.75,0.19 -4.62,2.11 -2.6,-0.38 -2.45,-1.34 -1.88,-1.73 -0.86,-1.34 -1.01,-5.17 -1.16,-1.54 -4.47,0.39 -1.88,1.72 -1.58,0 -1.3,-1.34 -2.89,-0.96 0,-2.3 2.31,-4.99 0.14,-2.11 -2.31,-7.86 -3.68,-3.85 0,0 0.08,-1.33 2.45,-1.54 5.34,-1.53 2.02,-2.5 2.74,-2.11 3.18,-6.14 1.73,-11.52 0,-4.04 z"
     title="Bosilovo"
     id="MK-07" />
  <path
     d="m 171.62957,157.67199 3.01,5.38 3.45,3.53 2.64,0.27 1.63,0.82 0.61,9.51 2.84,1.63 4.06,0 1.42,3.53 0,1.36 -0.81,1.9 -2.64,0.55 -0.81,2.98 0,7.61 3.04,0.54 8.32,0.27 5.89,5.16 9.74,-0.27 1.22,-4.07 2.23,-0.82 2.24,0 1.62,2.44 0,3.86 0,0 -5.28,-0.33 -5.88,4.35 -7.11,7.87 -5.07,8.13 -4.26,4.07 -4.2,0.97 0,0 -1.39,-2.59 -5.88,-7.87 -5.48,-4.34 -2.44,-2.99 0.41,-2.98 -0.82,-3.26 -6.49,0.27 -6.5,-0.81 -6.49,-3.8 -2.31,-0.93 0,0 -1.75,-0.7 0,-7.33 -0.54,-1.63 0,0 2.16,0 -1.42,-4.08 -0.2,-1.9 1.42,-2.17 3.25,-0.55 2.23,-1.62 2.03,-2.99 2.23,-5.98 0.2,-2.99 -7.51,-0.27 -1.21,-1.91 -0.28,-7.74 0,0 1.19,0.13 2.23,-4.9 1.83,-1.08 1.83,0.27 6.29,4.62 z"
     title="Brvenica"
     id="MK-08" />
  <path
     d="m 320.66957,97.011992 -3.63,2.19 -5.63,7.059998 -3.38,6.55 -0.75,8.07 0,14.1 -1.88,4.02 -4.5,0 0,0.61 0,0 -5.38,-3.51 0,0 -0.67,-1.78 0,0 -0.98,-3.95 -0.21,-5.17 0.33,0.36 0,0 1.16,1.23 0.49,-0.88 2.63,-1 -0.75,-14.11 0.75,-9.07 1.5,-5.549998 4.51,-8.07 2.63,-6.56 4.5,-1.51 1.76,0.59 0,0 -1.06,2.86 3.41,4.01 z"
     title="Butel"
     id="MK-09" />
  <path
     d="m 604.49957,362.94199 -0.09,1.07 4.62,5.94 6.06,6.14 3.75,1.72 5.92,-0.19 2.88,0.38 1.59,1.34 1.45,2.3 0,1.92 -1.16,2.68 -2.31,2.88 -1.15,3.06 0,1.73 5.48,9.96 0.43,5.93 9.09,0 3.47,-1.34 2.02,0.19 5.48,5.17 0,2.68 2.31,0.77 6.21,0 2.02,-0.77 1.15,-1.91 1.59,-0.96 2.02,0.19 1.01,1.53 1.59,0 2.88,-3.25 3.32,-7.85 2.17,-1.34 2.02,-0.58 3.61,0.96 10.96,5.75 6.11,4.01 0,0 -0.58,1.38 -0.71,4.8 0.49,10.34 0,0 -1.42,-1.02 -8.46,-2.93 -4.64,-0.73 -8.73,0.58 -3.65,-1.02 -3.09,-0.3 -2.1,1.32 -1.66,2.64 0,2.34 -0.77,2.35 -1.77,0.88 -10.99,-0.15 -6.19,9.22 -2.66,1.76 -2.96,0.84 0,0 -1.46,-0.11 -2.87,-1.9 -1.33,-2.64 -5.3,0.15 -1.33,2.34 -0.88,9.67 -5.58,3.95 0,0 -0.72,0 -2.93,-4.98 0,-1.9 -0.99,-1.61 -2.43,-0.88 0,-7.32 -3.43,-9.38 0.11,-11.57 -0.66,-2.78 -1.11,-0.59 -2.21,0 -3.2,-1.32 -2.1,-2.05 -2.76,-4.25 -4.87,-5.58 -2.43,-3.95 -1.99,-1.62 -3.2,-0.44 -3.87,-1.9 -2.98,-3.23 -9.25,-1.09 0,0 -1.47,-1.7 -1.66,-4.84 -0.55,-3.23 0.22,-3.97 1.47,-5.07 0,0 0.43,0.69 1.3,0 0.43,-1.92 1.15,-2.11 7.36,-2.87 13.42,-3.26 5.49,-0.19 z"
     title="Valandovo"
     id="MK-10" />
  <path
     d="m 660.19957,286.94199 0.31,0.77 -0.36,3.36 0.9,2.89 2.35,-0.72 1.62,-3.85 1.44,-1.2 2.1,0.53 4.32,4.61 3.61,0.96 1.45,1.35 1.01,2.5 -0.15,6.15 -0.72,1.92 -3.75,1.54 0.14,3.46 6.64,-0.19 9.08,2.07 0,0 1.24,8.3 0,4.04 -1.73,11.52 -3.18,6.14 -2.74,2.11 -2.02,2.5 -5.34,1.53 -2.45,1.54 -0.08,1.33 0,0 -1.87,0.97 -3.75,3.07 -3.03,0.58 -4.77,1.92 -8.8,-0.2 -6.2,-8.05 -3.61,-1.73 -2.45,-1.92 -2.02,0 -3.47,-1.92 -3.03,0.38 -1.87,3.84 -1.74,2.31 -3.17,3.64 -0.42,-0.37 0,0 -0.45,-0.4 -0.43,-3.64 -1.01,-3.27 -0.22,-6.33 0.15,-2.5 0.33,-0.29 0,0 0.97,-0.86 0,-2.11 -2.17,-4.41 0,-1.54 1.16,-0.96 3.89,-0.58 2.89,-2.11 1.59,-3.84 1.3,-0.77 1.73,0 4.76,2.88 8.95,8.84 1.73,0.19 2.45,-2.69 1.73,-2.69 0.29,-6.91 -0.43,-2.69 -1.16,-2.31 -0.72,-5.57 -2.16,-1.35 -2.46,-3.84 -1.73,-2.88 -0.14,-2.31 0.86,-2.69 3.76,-6.93 1.15,-1.15 9.09,-0.96 z"
     title="Vasilevo"
     id="MK-11" />
  <path
     d="m 19.919572,440.91199 4.31,-1.56 9.44,-0.29 3.52,0.29 3.07,1.46 4.61,0.29 4.61,-4.07 2.86,-0.59 2.41,0 2.2,2.04 0.44,2.04 0,2.91 -2.2,2.33 -3.51,2.03 -7.25,0 -5.49,3.78 -7.02,0.58 -7.69,-2.32 -3.26,0 0,0 -1.05,-5.79 0.42,-2.63 z"
     title="Vevčani"
     id="MK-12" />
  <path
     d="m 409.42957,174.39199 -0.03,5.19 3.27,12.67 10.61,13.28 0,0 0.1,1.94 -1.06,1.78 -8.11,8.52 -0.93,1.6 0.53,1.6 6.12,7.99 0,2.84 -3.86,8.87 -0.8,3.37 0.93,1.42 3.46,0 2.39,0.88 5.05,9.06 0,0 0,5.31 -1.2,5.85 -2.65,3.36 -5.05,5.14 -5.05,11.87 -2.92,4.6 -7.97,0.71 -0.93,1.42 -0.98,6.3 0,0 -2.96,-0.32 -6.92,-1.77 -2.66,-3.01 -0.8,-10.29 -1.07,-1.59 -1.46,0.35 -3.72,3.55 -1.6,0.71 -1.6,-0.18 -1.59,-2.48 -0.53,-2.31 0.13,-2.3 -0.8,-3.37 -2.53,-3.91 -1.06,-6.74 -1.86,-4.44 -3.2,-1.59 -7.05,-0.89 -4.79,-2.31 -1.73,-0.36 -1.59,0 -2.4,1.96 -1.73,0 -1.59,-1.24 -4.79,-9.95 -1.87,-2.66 0.3,-0.92 0,0 0.1,-0.33 5.46,-0.53 4.79,-1.77 1.86,-1.25 6.12,-10.13 0,-7.28 -1.46,-0.89 -1.2,-1.78 0,-7.82 1.44,-0.51 0,0 0.08,0.99 3.05,1.42 3.32,0.53 2.26,0.18 1.46,-1.42 1.2,-0.54 0.8,0.71 0.13,3.02 -0.67,1.42 0.27,0.89 1.73,0 1.06,-2.13 3.06,-3.2 0.13,-1.42 2.12,0 3.32,4.8 3.59,1.24 1.6,-0.53 0.79,-1.6 2,-8.35 1.46,-4.08 0.66,-3.91 0.4,-7.29 -0.8,-6.4 0.27,-1.42 1.73,-0.89 3.85,0.18 4.12,-1.6 z"
     title="Veles"
     id="MK-13" />
  <path
     d="m 653.09957,145.56199 0.83,22.37 1.29,1.16 9.38,2.71 11.69,6.18 6.5,1.54 2.88,0.2 0,2.12 -1.29,1.16 -3.76,7.34 -2.16,12.35 -1.88,3.67 -2.16,2.89 -0.58,2.9 0.08,4.64 0,0 -0.66,0.18 -0.57,3.28 1.01,2.12 0.43,4.24 -0.43,6.75 -1.16,4.82 -2.02,4.82 -2.88,3.46 -4.19,0 -3.32,0.58 -2.46,2.22 0,0 -5.06,-0.39 -3.75,-1.54 -7.36,-6.74 -6.79,-3.47 -1.73,-4.05 -1.01,-0.96 -2.16,0.19 -1.44,3.85 -1.74,1.74 -4.18,0.96 -6.78,0.19 -2.6,-1.15 -3.32,-3.66 -2.17,-1.74 -2.96,-0.69 0,0 0.15,-7.76 0,0 0.72,-9.29 -0.29,-11.57 -1.29,-7.53 -1.59,-1.74 -0.96,-2.41 0,0 0.09,-0.87 2.17,-2.51 -0.29,-13.33 1.44,-4.05 1.44,-11.02 0.87,-1.55 4.91,-0.19 3.32,2.32 1.44,2.12 1.44,1.16 3.61,0.2 4.54,-3.05 0,0 4.26,2.08 2.17,0 3.46,-2.32 4.04,-8.5 1.3,-6.19 1.88,-1.74 2.3,-0.39 4.62,0.58 z"
     title="Vinica"
     id="MK-14" />
  <path
     d="m 196.34957,308.92199 0.22,-0.29 1.01,2.43 0.81,6.49 1.63,2.43 3.65,3.52 6.7,3.78 0.2,2.43 -3.04,1.89 -3.45,3.51 -3.45,4.59 -4.47,3.24 -1.83,2.97 -2.84,0.81 -2.23,1.35 -0.61,2.97 0,3.53 0,0 -5.48,-1.64 -4.67,0.54 -0.81,1.62 -0.2,2.7 1.42,3.5 0.61,3.51 0,2.97 2.03,3.24 3.65,-1.08 1.94,0 0,0 -0.11,3.77 -4.27,2.16 -4.26,1.08 -11.57,-0.27 -1.22,-2.43 0,-2.42 -1.42,-2.43 -7.92,-5.4 -1.21,-2.43 -0.41,-2.96 0.41,-3.51 2.92,-1.54 0,0 2.76,-4.4 3.05,-7.56 3.24,-2.16 0,0 5.28,-0.54 3.86,-2.7 2.64,-3.78 2.84,-9.45 2.43,-2.44 3.66,-1.08 4.06,-3.51 z"
     title=" Vraneštica"
     id="MK-15" />
  <path
     d="m 93.719572,172.50199 3.48,-1.03 18.879998,3.26 9.95,3.26 16.44,9.24 4.06,0.82 2.03,1.9 1.29,0 0,0 0.54,1.63 0,7.33 1.75,0.7 0,0 -2.16,0.93 -2.64,3.53 1.42,6.51 -3.04,3.53 -5.69,1.9 -9.74,-2.44 -7.71,1.08 -3.66,3.26 -5.48,-0.82 -5.27,-2.98 -1.83,-2.72 -1.83,-5.15 -2.03,-2.44 -12.179998,-0.82 -1.27,-0.64 0,0 11.829998,-8.7 -13.339998,-12.42 z"
     title="Vrapčište"
     id="MK-16" />
  <path
     d="m 329.48957,143.56199 -2.95,4.77 0.1,1.45 0.69,1.32 2.95,1.85 2.07,0.66 6.89,5.01 2.86,5.41 0.4,7.08 0,0 -3.28,3.86 0,0 -3.62,-6.73 -1.78,-0.47 0,0 -2.51,-4.11 -5.25,-4.02 -8.27,-4.03 -6.38,-5.03 -4.5,-2.52 -3.01,-0.5 -3.45,-2.13 0,0 0.45,-5.82 0,0 0,-0.61 4.5,0 1.88,-4.02 0,-14.1 0.75,-8.07 3.38,-6.55 5.63,-7.059998 3.63,-2.19 0,0 2.65,4.339998 6.45,8.46 0,0 -0.67,1.56 0.2,4.75 2.85,4.23 1.09,9.64 -0.2,1.85 -2.17,1.98 -1.37,2.37 -0.4,7 z"
     title="Gazi Baba"
     id="MK-17" />
  <path
     d="m 571.33957,390.37199 9.25,1.09 2.98,3.23 3.87,1.9 3.2,0.44 1.99,1.62 2.43,3.95 4.87,5.58 2.76,4.25 2.1,2.05 3.2,1.32 2.21,0 1.11,0.59 0.66,2.78 -0.11,11.57 3.43,9.38 0,7.32 2.43,0.88 0.99,1.61 0,1.9 2.93,4.98 0.72,0 0,0 6.01,8.73 0.36,2.03 -0.54,5.28 -1.63,5.15 -0.27,3.83 0.72,0.84 6.88,0.48 7.79,4.07 4.62,3.11 2.64,2.36 -1.45,1.04 0,0 -9.47,-4.88 -3.78,-0.01 -6.38,1.15 -3.76,0.91 -2.2,1.05 -9.94,2.25 -11.31,-0.49 -4.18,-1.3 -4.39,-5.91 -3.55,-0.26 -0.37,-0.39 -8.27,0.54 -8.03,1.65 -2.64,-0.76 -4.06,-5.19 -3.51,1.05 -8.76,-5.81 -0.44,-0.67 -2.91,-1.58 -9.27,0.12 -1.6,-0.33 0,0 -6.3,-1.66 0.97,-4.35 1.03,-2.21 1.79,-0.85 5.13,-0.85 4.36,0.17 2.05,-0.17 0.9,-0.51 0,-2.03 -1.41,-3.74 -0.51,-3.56 -1.8,-5.1 0.26,-2.55 3.72,-0.34 3.59,-1.7 5.51,-4.75 2.95,-1.19 0.13,-2.38 -0.77,-1.02 -1.54,0 -1.67,-0.85 -0.64,-12.07 -1.64,-3.73 0,0 0.1,-1.37 3.98,-5.1 1.54,-1.36 6.15,-0.34 6.54,0.34 1.54,-0.51 0.51,-5.11 -0.25,-3.06 -1.28,-4.08 -2.44,-3.24 -0.26,-2.04 z"
     title="Gevgelija"
     id="MK-18" />
  <path
     d="m 152.13957,199.61199 2.31,0.93 6.49,3.8 6.5,0.81 6.49,-0.27 0.82,3.26 -0.41,2.98 2.44,2.99 5.48,4.34 5.88,7.87 1.39,2.59 0,0 -7.98,0.93 -1.63,3.8 0,10.03 -0.81,1.62 -2.44,0 -1.62,1.36 -0.41,2.17 1.42,4.06 2.85,2.17 0.4,6.77 3.25,6.77 0.61,7.04 -1.58,5.85 0,0 -1.87,-0.17 -2.64,2.17 -3.25,0.54 -3.85,1.35 -4.27,0.54 -4.46,3.25 -0.27,1.66 0,0 -2.78,-2.47 -5.07,-6.5 -4.47,-3.25 -4.67,-2.43 -6.29,-1.9 -3.32,0.34 0,0 -0.64,-3.59 -4.46,-5.14 -6.09,-10.56 4.26,-4.34 0,-2.16 -11.57,-0.28 -3.65,2.17 -2.85,-3.25 -0.61,-7.86 -3.85,-6.78 -1.83,-2.17 -4.669998,-0.27 -11.57,-1.9 -6.29,0 -5.69,7.33 -3.45,2.71 -12.58,-1.63 -4.67,-4.07 -6.9,-3.25 -3.12,-3.57 0,0 3.19,-5.1 3.68,-1.27 3.33,-7.56 2.69,0.03 3.82,-2.97 3.27,-4.57 9.95,2.5 6.94,-0.41 8.01,-4.31 0,0 1.27,0.64 12.179998,0.82 2.03,2.44 1.83,5.15 1.83,2.72 5.27,2.98 5.48,0.82 3.66,-3.26 7.71,-1.08 9.74,2.44 5.69,-1.9 3.04,-3.53 -1.42,-6.51 2.64,-3.53 z"
     title="Gostivar"
     id="MK-19" />
  <path
     d="m 427.09957,255.40199 0.26,-2.67 0.94,-0.71 3.45,0 1.86,0.53 0.8,1.42 0.39,3.55 1.47,4.61 0.13,7.79 1.33,7.27 1.06,2.48 1.86,1.06 3.85,1.06 5.45,0.36 3.32,-2.13 2.92,-2.83 1.18,-2.35 0,0 0.94,0.76 5.23,-0.5 3.11,0.33 5.79,3.66 0,0 0.19,2.48 -0.88,2.49 -1.61,2.33 -1.75,3.81 -1.86,1 -2.12,2.32 -1.37,2.99 -0.37,4.47 0.99,1.83 1.99,1.16 2.24,0 4.61,-2.49 2.49,-0.83 1.62,0 1.87,1.5 0.37,3.98 -2.24,5.14 -2.61,4.47 0.24,2.32 1,0.5 1.62,1.82 0,1.99 -3.11,7.46 -3.86,0.16 -1,-1.49 -0.62,-3.15 -0.02,-4.52 -1.4,-1.66 -1.87,0 -0.87,0.77 0,0 -2.4,-1.39 -2.49,0 -2.64,1.66 -0.78,5.79 -4.36,0 -1.87,-1.65 -3.58,-0.83 -1.86,1.45 -1.87,2.28 -1.09,3.1 -1.71,2.08 -4.67,0 -4.51,-2.28 -1.56,-1.45 -2.49,-0.83 -2.18,0.21 -0.93,0.82 0,3.73 1.09,4.76 0,2.08 -2.34,2.68 -4.98,0.42 -3.42,2.9 -0.16,0.58 0,0 -8.26,-4.99 -0.93,-3.53 0.66,-7.96 4.12,-4.59 1.33,-3.01 0,-3.89 -1.2,-2.48 -7.31,-5.13 -1.86,-2.65 0.49,-7.86 0,0 0.98,-6.3 0.93,-1.42 7.97,-0.71 2.92,-4.6 5.05,-11.87 5.05,-5.14 2.65,-3.36 1.2,-5.85 z"
     title="Gradsko"
     id="MK-20" />
  <path
     d="m 30.079572,308.54199 5.84,6.56 7.61,5.49 10.15,2.11 3.49,0 6.35,5.49 3.48,5.49 4.13,4.64 6.66,2.53 4.12,2.11 1.32,6.75 0,0 -2.87,-1.37 -2.44,0.54 -2.03,2.7 -1.22,3.51 -2.43,11.87 -2.4,4.5 0,0 -1.05,-1.26 -0.91,1.03 0,0 -1.83,-3.81 -4.76,-0.85 0,-11.8 -2.22,-7.17 -3.48,0 -3.18,-2.95 -1.9,-7.6 -3.49,-5.06 -5.39,-0.85 -7.3,0 -3.48,5.91 -6.66,4.22 -6.98,3.38 -1.34,1.24 0,0 -0.19,-2.28 -1.4,-1.19 -1.92,0.48 -4.3099996,-0.96 -2.51,-2.73 -0.25,-2.91 -3.4,-1.69 -1.59999998,-3.46 2.33999998,-3.12 2.29,-7.67 1.43,-2.4 4.2599996,0.31 4.08,-1.95 9.2,-3.01 z"
     title="Debar"
     id="MK-21" />
  <path
     d="m 70.609572,372.38199 2.64,-2.45 9.75,0.54 21.309998,-0.54 9.34,0.81 6.49,1.61 11.57,0.27 2.03,5.67 3.25,6.74 1.02,5.12 -0.62,4.58 2.24,4.58 5.68,1.88 2.44,2.7 2.64,5.65 1.65,2.5 0,0 -0.38,0.74 0,4.16 0.74,3.18 5.17,4.89 5.9,3.18 2.95,8.07 2.03,2.69 3.5,1.96 0,4.64 3.16,6.44 0,0 -4.42,1.14 -14.42,-2.15 -7.91,-5.38 -10.97,-3.76 -8.32,0 -5.07,2.15 -7.71,-0.27 -3.05,0.54 -2.03,1.88 -0.61,3.23 -3.86,2.42 -3.65,7.26 0.41,8.06 -5.279998,2.15 -1.83,4.03 -9.43,0.42 0,0 -0.72,-1.76 0.81,-6.18 -2.63,-2.96 -0.61,-2.96 0,-2.68 1.01,-2.96 4.67,-5.92 2.23,-7.26 1.02,-8.87 -0.41,-3.5 -7.91,-12.11 0,-9.43 -1.22,-9.97 z"
     title="Debarca"
     id="MK-22" />
  <path
     d="m 665.72957,115.38199 0.93,-0.03 1.5,2.19 2.08,0.69 0.87,-0.49 0.56,0.56 0.55,-0.56 3.23,0.63 4.03,-1.37 1.06,0.08 1.32,-0.98 -0.34,2.41 1.91,2.01 1.02,0.2 0.09,1.28 1.32,2.72 2.12,1.42 0.96,0.18 1.08,-0.78 1.03,0.05 0.89,1.05 2.73,0.48 2.17,0.91 0.44,0.73 1.67,0.27 0.42,0.61 1.19,-0.53 0.82,0.28 1.45,-0.28 1.29,-1.41 0.53,-2.07 4.64,7.54 2.85,2.67 4.65,0.56 1.34,-0.4 1.74,-1.38 1.44,1.29 2.1,-0.36 0.62,2.36 -0.32,1.8 -1.95,3.09 0.25,0.56 4.37,2.19 -0.39,2.07 0.39,0.72 -0.24,4.69 1.17,1.02 -0.58,2.42 0.05,3.51 -0.6,2.4 0.8,2.88 -0.53,1.13 1.05,0.86 -0.19,1.12 -0.99,1.53 1.2,1.39 0.57,2.92 1,1.52 2.38,0.92 0.83,1.78 -0.05,1.99 1.62,2.65 -0.7,2.06 0.16,1.4 1.24,1.32 -0.71,1.67 0.74,2.14 0.01,1.48 0,0 -8.96,6.47 -4.04,4.43 -5.92,11.77 -2.6,0.39 -3.46,1.35 -2.17,3.47 -3.03,3.28 -2.45,0.38 -2.81,-0.31 0,0 -5.7,-2.96 -4.33,-1.35 -11.4,-1.35 -3.03,0.19 -0.79,-2.11 0,0 -0.08,-4.64 0.58,-2.9 2.16,-2.89 1.88,-3.67 2.16,-12.35 3.76,-7.34 1.29,-1.16 0,-2.12 -2.88,-0.2 -6.5,-1.54 -11.69,-6.18 -9.38,-2.71 -1.29,-1.16 -0.83,-22.37 0,0 -0.62,-6.63 0.72,-2.13 4.62,-1.16 0.72,-1.16 0.83,-24.16 0,0 1.37,0.81 0.28,1.58 z"
     title="Delčevo"
     id="MK-23" />
  <path
     d="m 560.25957,345.47199 0.86,2.04 2.74,0.38 6.06,3.26 1.44,3.07 -0.57,2.88 -2.6,2.49 -0.58,2.5 0.87,8.05 0.87,1.42 0,0 -1.47,5.07 -0.22,3.97 0.55,3.23 1.66,4.84 1.47,1.7 0,0 -0.43,3.19 0.26,2.04 2.44,3.24 1.28,4.08 0.25,3.06 -0.51,5.11 -1.54,0.51 -6.54,-0.34 -6.15,0.34 -1.54,1.36 -3.98,5.1 -0.1,1.37 0,0 -1.89,0.73 -8.61,5.94 -7.58,4.34 -4.99,0.68 -5.51,-0.68 -9.29,-6.17 -1.55,-4.34 -1.38,-2.28 -1.89,-0.23 -1.72,-0.91 -2.24,-2.51 -1.21,-0.46 -12.54,-11.57 0.5,-0.04 0,0 10.52,0.33 4.51,-1.03 0.89,-1.6 1.21,-4.54 0.44,-4.09 -0.88,-2.2 -3.86,-5.12 -0.77,-1.75 0.33,-1.32 1.1,-1.46 1.54,-0.15 3.31,-2.63 2.42,-5.42 2.65,-10.25 1.32,-2.34 3.08,-2.34 3.31,-3.96 2.09,-1.46 2.76,0 1.76,0.58 3.2,3.08 3.08,1.76 4.74,2.49 2.75,0.88 1.55,0 2.2,-2.79 1.65,-3.95 3.64,-2.35 z"
     title="Demir Kapija"
     id="MK-24" />
  <path
     d="m 207.75957,387.59199 7.07,3.5 2.3,1.91 0,5.74 4.62,-0.76 4.61,0.76 3.45,0 2.02,3.06 -0.29,16.06 0.58,1.53 5.48,-0.38 2.88,-1.53 2.88,1.14 3.75,4.59 0.86,4.97 1.44,4.96 3.46,3.06 1.73,3.06 0,8.4 -0.87,2.67 -0.17,4.14 0,0 -3.36,2.32 -3,5.19 -5.53,4.27 -3.46,1.83 -2.76,0.31 -3.92,6.71 -3.92,0.3 -4.61,2.75 -3.46,4.57 -7.15,3.36 -7.15,0.91 -10.25,4.83 0,0 -4.04,-6.23 -1.66,-6.34 0,-5.13 -1.48,-8.3 -1.29,-3.17 -5.72,-0.25 -2.02,-2.44 -0.93,-3.42 -0.37,0.7 0,0 -0.36,-1.92 -2.01,-3.33 0,0 -3.16,-6.44 0,-4.64 -3.5,-1.96 -2.03,-2.69 -2.95,-8.07 -5.9,-3.18 -5.17,-4.89 -0.74,-3.18 0,-4.16 0.38,-0.74 0,0 1.84,-3.66 6.82,-5.14 7.19,-3.18 14.58,0.24 9.02,-0.41 4.89,-3.06 4.62,-4.59 0.86,-3.06 4.61,-2.3 z"
     title="Demir Hisar"
     id="MK-25" />
  <path
     d="m 641.10957,445.35199 2.96,-0.84 2.66,-1.76 6.19,-9.22 10.99,0.15 1.77,-0.88 0.77,-2.35 0,-2.34 1.66,-2.64 2.1,-1.32 3.09,0.3 3.65,1.02 8.73,-0.58 4.64,0.73 8.46,2.93 1.42,1.02 0,0 -1.19,16.65 -0.47,-0.51 0,0 -0.98,-1.05 -2.54,-1.03 -6.52,0.44 -3.76,2.64 -2.54,3.8 -0.88,2.2 -0.34,3.51 1.44,5.56 4.86,9.22 5.81,5.55 0,0 -0.3,1.41 -5.89,5.56 -1.79,-0.28 -5.16,-4.18 -2.6,-3.42 -2.16,-3.96 -3.19,-3.23 -1.37,-0.33 0,0 -0.34,-0.08 0,-8.5 -0.72,-0.96 -1.45,0 -5.16,-3.71 -2.27,-0.84 -4.16,-0.12 -2.45,1.08 -5.61,-0.36 -2.9,-4.2 -2.17,-0.96 -1.72,-1.92 z"
     title="Dojran"
     id="MK-26" />
  <path
     d="m 279.19957,303.59199 2.56,0 12.24,4.37 2.54,2.79 0.89,3.38 1.49,2.77 1.64,1.4 3.29,1.19 1.49,3.77 0.75,4.77 0.44,9.53 1.94,3.58 2.09,2.38 3.14,1.58 7.76,-0.19 1.79,-1.39 1.94,-0.2 2.09,0.59 2.23,7.74 1.05,1.59 1.94,0.99 10.89,2.78 2.84,2.38 1.94,2.98 0.35,1.58 0,0 -3.49,1.59 -2.38,2.58 -1.79,4.95 -0.6,4.76 -6.72,2.38 -3.58,4.56 -3.13,1.58 -10,0.4 -7.09,2.18 -6.27,0 -3.88,3.37 -3.13,4.95 -2.09,0.4 -4.29,3.69 0,0 -0.56,-0.92 -3.43,-2.18 -3.88,-0.2 -2.69,0.4 -2.24,0.99 -2.38,0.2 -1.65,0 -1.49,-0.6 -0.89,-1.78 -1.79,-9.9 -1.94,-0.8 -1.35,0.6 -2.24,1.98 -1.94,0.2 -1.49,1.18 -0.35,0.94 0,0 -2.41,-1.33 -1.04,-2.18 -7.61,-8.52 -3.44,-1.79 0.15,-2.77 1.2,-1.59 10.15,0.2 0.29,-4.36 -1.04,-2.38 -1.79,-1.19 -4.78,-5.55 -5.05,-7.58 0,0 -0.32,-2.94 0.45,-0.99 2.24,-1.39 2.09,0 1.64,-0.99 1.19,-2.78 1.34,-1.59 3.51,-0.59 8.66,3.96 -0.3,-10.52 0.89,-2.78 1.64,-2.98 6.72,-8.14 1.94,-4.77 0.75,-12.32 z"
     title="Dolneni"
     id="MK-27" />
  <path
     d="m 134.24957,332.55199 0.81,4.72 1.83,2.7 2.03,1.89 4.67,2.97 4.26,1.89 4.47,1.35 4.46,3.24 1.3,2.24 0,0 -2.92,1.54 -0.41,3.51 0.41,2.96 1.21,2.43 7.92,5.4 1.42,2.43 0,2.42 1.22,2.43 11.57,0.27 4.26,-1.08 4.27,-2.16 0.11,-3.77 0,0 2.93,-1.35 2.44,-0.27 3.24,6.2 8.73,3.78 1.61,1.18 0,0 -0.78,1.68 2.12,4.74 0.33,1.7 0,0 -1.29,-0.71 -4.61,2.3 -0.86,3.06 -4.62,4.59 -4.89,3.06 -9.02,0.41 -14.58,-0.24 -7.19,3.18 -6.82,5.14 -1.84,3.66 0,0 -1.65,-2.5 -2.64,-5.65 -2.44,-2.7 -5.68,-1.88 -2.24,-4.58 0.62,-4.58 -1.02,-5.12 -3.25,-6.74 -2.03,-5.67 -11.57,-0.27 -6.49,-1.61 -9.34,-0.81 -21.309998,0.54 -9.75,-0.54 -2.64,2.45 0,0 -0.77,-0.92 0,0 2.4,-4.5 2.43,-11.87 1.22,-3.51 2.03,-2.7 2.44,-0.54 2.87,1.37 0,0 3.42,1.33 4.87,0.81 3.86,-1.35 3.24,-3.24 3.589998,-6.83 3.81,-2.11 0.31,-8.86 3.81,-4.23 0,-16.89 -2.43,-13.55 0,0 3.4,0.59 2.23,4.06 1.42,5.14 2.03,5.13 5.08,0.81 4.26,10 4.67,5.14 2.23,6.48 z"
     title="Drugovo"
     id="MK-28" />
  <path
     d="m 253.71957,98.271992 4.01,0.98 -0.47,-0.83 2.85,1.799998 0,0 9.24,9.07 5.26,11.59 0,5.7 0,0 -0.19,18.02 0,0 -7.67,-0.71 -4.66,-5.93 -3.26,-7.49 -3.49,-6.55 -0.93,-5.31 -2.56,-2.82 -2.33,0.32 -1.86,2.18 -3.26,0.63 -2.8,-1.56 -2.09,-5.32 -0.74,-7.56 0,0 4.65,-0.13 5.38,-2.44 z"
     title="Gjorče Petrov"
     id="MK-29" />
  <path
     d="m 175.06957,135.40199 1.21,1.25 5.19,1.52 3.38,0 2.26,-1.21 1.58,1.21 0,2.72 -1.8,1.82 0.67,1.51 3.62,1.21 8.35,0.6 1.58,-2.42 1.58,-0.9 4.87,-0.15 0,0 -0.04,0.41 3.14,0.79 3.73,1.58 8.04,5.26 0.98,1.57 -0.2,5.26 -2.15,10.77 -0.79,6.83 0,3.94 2.36,2.62 1.96,0.26 3.92,4.73 2.97,1.59 0,0 -0.18,2.28 2.21,2.95 5.15,3.61 -0.73,10.16 -1.72,5.25 0.3,0.31 0,0 -5.23,-2.42 -3.45,-3.26 -3.66,-2.44 -2.84,-0.76 0,0 0,-3.86 -1.62,-2.44 -2.24,0 -2.23,0.82 -1.22,4.07 -9.74,0.27 -5.89,-5.16 -8.32,-0.27 -3.04,-0.54 0,-7.61 0.81,-2.98 2.64,-0.55 0.81,-1.9 0,-1.36 -1.42,-3.53 -4.06,0 -2.84,-1.63 -0.61,-9.51 -1.63,-0.82 -2.64,-0.27 -3.45,-3.53 -3.01,-5.38 0,0 2.2,-3.05 6.09,-1.91 0.2,-2.99 -1.01,-0.82 -3.25,-1.08 -1.42,-2.18 -0.61,-1.9 -2.64,-0.82 -1.21,-1.36 0,-1.09 3.24,-4.63 z"
     title="Želino"
     id="MK-30" />
  <path
     d="m 160.97957,290.82199 -0.55,3.48 1.02,4.06 -0.2,11.08 -2.24,4.06 -1.42,4.59 -1.62,1.08 -0.34,1.81 0,0 -3.11,-0.46 -3.25,0.81 -2.23,1.9 -6.29,2.97 -5.08,1.08 -1.42,3.24 0,2.03 0,0 -1.22,-0.41 -2.23,-6.48 -4.67,-5.14 -4.26,-10 -5.08,-0.81 -2.03,-5.13 -1.42,-5.14 -2.23,-4.06 -3.4,-0.59 0,0 -1.27,-0.22 -4.06,1.08 -2.439998,-1.89 -0.2,-2.71 3.249998,-4.06 6.9,-0.27 2.44,-1.89 5.27,-6.23 3.45,-2.16 6.91,0 1.62,-1.35 4.8,-0.48 0,0 3.32,-0.34 6.29,1.9 4.67,2.43 4.47,3.25 5.07,6.5 z"
     title="Zajas"
     id="MK-31" />
  <path
     d="m 343.57957,181.18199 4.35,0.19 2.82,0.88 3.99,2 2.79,-0.26 1.46,2.13 -0.53,20.62 -2.53,4.08 0.06,0.79 0,0 -1.44,0.51 0,7.82 1.2,1.78 1.46,0.89 0,7.28 -6.12,10.13 -1.86,1.25 -4.79,1.77 -5.46,0.53 -0.1,0.33 0,0 -2.29,-0.68 -22.62,0.71 -1.78,-1.74 0,0 -0.21,-3.59 1.59,-5.33 -1.19,-2.84 -3.73,-4.8 -1.06,-2.84 -0.4,-8.54 1.99,-4.45 2.53,-2.84 2.26,0.18 0.53,1.6 0.14,2.84 0.8,1.07 1.73,0.35 2.79,-0.17 1.33,-1.6 0.67,-6.23 1.46,-2.13 2.26,-1.96 2,-3.91 0.79,-5.7 4,-2.14 5.98,-4.45 3.86,-1.24 z"
     title="Zelenikovo"
     id="MK-32" />
  <path
     d="m 601.35957,191.50199 0.96,2.41 1.59,1.74 1.29,7.53 0.29,11.57 -0.72,9.29 0,0 -7.6,-0.16 -9.29,-1 0,0 -3.26,-6.21 -3.39,-4.36 -3.01,-2.86 -0.76,-3.35 -0.08,-5.37 0,0 5.1,-0.17 5.4,-5.2 1.63,0 1.26,1 0.37,1.51 1.63,0.51 1.38,-0.67 3.52,-5.38 z"
     title="Zrnovci"
     id="MK-33" />
  <path
     d="m 357.88957,122.12199 0.94,2.51 3.61,2.14 7.12,6.13 4.15,0 0.79,1.57 0,3.56 -0.85,4.85 0,1.7 0.38,0.45 0,0 -0.7,0.27 -4.25,9.25 -0.42,1.71 0,1.57 1.85,1.74 0.67,3.56 -1,2 -7.8,0.67 -2.66,-1.33 -2.49,-2.23 -2.66,0 -1.99,2.89 -3.66,1.78 -3.32,2.23 -2.32,0.67 -0.78,1.3 0,0 -0.4,-7.08 -2.86,-5.41 -6.89,-5.01 -2.07,-0.66 -2.95,-1.85 -0.69,-1.32 -0.1,-1.45 2.95,-4.77 0,0 0.7,0.68 1.47,-0.13 1.48,-1.85 5.22,-2.9 5.7,-1.06 8.18,-10.42 z"
     title="Ilinden"
     id="MK-34" />
  <path
     d="m 234.61957,97.501992 -3.56,4.229998 -15.45,1.64 -3.43,1.65 -1.22,1.64 4.9,5.27 2.21,0 1.96,-1.32 1.71,-0.32 1.23,3.61 0,3.62 -1.23,1.65 -2.94,1.31 -1.96,2.31 -0.25,2.3 0.74,3.16 2.55,4.73 0,3.16 -5.69,2.36 -4.12,0.79 -1.57,0.79 -0.78,0.79 -0.16,1.69 0,0 -4.87,0.15 -1.58,0.9 -1.58,2.42 -8.35,-0.6 -3.62,-1.21 -0.67,-1.51 1.8,-1.82 0,-2.72 -1.58,-1.21 -2.26,1.21 -3.38,0 -5.19,-1.52 -1.21,-1.25 0,0 -0.6,-2.6 0,0 -0.22,-0.99 1.12,-1.21 13.55,-2.72 4.74,-2.43 2.03,-4.84 3.39,-6.06 2.71,-2.12 3.16,-3.94 0.45,-4.54 -1.13,-3.64 -2.26,-1.519998 -2.93,-0.6 -2.49,-1.52 -2.71,-5.45 -4.06,-5.76 -4.51,-5.46 -8.24,-7.58 0,0 5.93,-4.38 3.01,-4.17 3.92,-3.15 4.16,-2.6 7.66,0.39 4.24,3.48 4.13,0.91 2.86,4.38 3.41,1.8 -0.54,6.59 4.49,1.79 4.03,3.13 4.35,6.05 z"
     title="Jegunovce"
     id="MK-35" />
  <path
     d="m 464.23957,339.91199 2.14,1.83 3.27,0 2.64,-0.21 3.12,-1.86 2.49,-0.41 3.11,1.24 1.56,2.28 -0.16,8.28 3.11,15.3 0,14.27 1.4,6.2 2.65,4.54 0.62,3.31 0,4.34 4.69,2.91 0,0 -0.5,0.04 12.54,11.57 1.21,0.46 2.24,2.51 1.72,0.91 1.89,0.23 1.38,2.28 1.55,4.34 9.29,6.17 5.51,0.68 4.99,-0.68 7.58,-4.34 8.61,-5.94 1.89,-0.73 0,0 1.64,3.73 0.64,12.07 1.67,0.85 1.54,0 0.77,1.02 -0.13,2.38 -2.95,1.19 -5.51,4.75 -3.59,1.7 -3.72,0.34 -0.26,2.55 1.8,5.1 0.51,3.56 1.41,3.74 0,2.03 -0.9,0.51 -2.05,0.17 -4.36,-0.17 -5.13,0.85 -1.79,0.85 -1.03,2.21 -0.97,4.35 6.3,1.66 0,0 -14.94,3.02 -10.32,11.17 -2.22,1.73 -7.54,-1.27 -1.87,-2.05 -1.43,-0.37 -7.6,-4.9 -0.85,-3.4 -3.62,-1.1 -0.7,1.16 -1.3,-0.84 -3.98,8.13 -3.66,2.45 -8.71,0.8 -1.86,1.04 -7.06,0.72 -3.43,1.12 -2.99,3.02 -7.42,5.88 0,0 -0.71,-1.98 -0.62,-4.52 0,-3.5 -0.78,-2.06 -5.91,-0.21 -2.34,-0.61 -1.71,-1.24 -1.09,-8.85 0.39,-12.88 -2.33,-3.91 -1.56,-0.82 -1.87,-3.51 0.63,-8.45 3.42,-6.39 0.62,-3.3 1.09,-1.24 -0.62,-1.65 -5.14,-0.41 -7.78,0.41 -2.64,-0.82 -1.4,-2.89 -1.56,-5.36 -0.78,-3.51 -0.15,-5.99 0.46,-6.6 0.63,-2.89 1.71,-3.3 0.15,-5.79 -0.62,-3.51 -3.35,-5.06 -0.62,-3.51 0.31,-7.85 1.09,-2.28 0,-4.96 -0.62,-2.07 -1.56,0.83 -2.33,4.96 -2.96,0 -1.55,-1.03 -3.27,-3.52 -1.87,-2.89 0,-3.2 0,0 0,-0.53 2.65,-3.1 1.71,-3.31 1.87,-1.86 3.58,0.62 1.65,2.05 0,0 4.88,7.05 2.65,2.9 7.78,0.62 2.02,-0.62 9.34,-0.21 2.18,-1.65 0.62,-5.17 1.4,-1.45 2.65,0 2.02,0.82 2.49,1.25 2.49,2.06 1.71,0.62 1.56,-0.62 0.15,-3.1 1.25,-1.65 5.29,-3.31 0.78,-6.62 -0.32,-5.38 0.94,-3.32 z"
     title="Kavadarci"
     id="MK-36" />
  <path
     d="m 513.85957,195.48199 4.23,-2.45 1.92,0.51 0.9,1.71 0,1.88 1.02,3.25 3.2,1.37 10.87,-0.51 1.32,-1.51 0,0 3.02,3.73 6.65,6.16 7.93,5.81 11.89,2.05 3.59,-0.51 3.45,0.17 6.65,6.66 6.39,0.52 0.99,-1.44 0,0 9.29,1 7.6,0.16 0,0 -0.15,7.76 0,0 -1.94,0.69 -6.49,5.01 0,5.4 -0.58,4.04 -1.3,3.28 -2.24,2.31 -1.15,2.57 0,0 -1.53,-1.92 -4.35,-0.17 -4.41,1.53 -6.53,0.52 -8.05,1.7 -6.4,0 -3.45,-4.61 -4.48,-4.61 -6.13,-5.29 -6.01,-1.02 -3.84,-4.44 -5.5,-4.96 -4.35,-2.73 -4.47,-0.68 -6.01,-0.17 -3.46,-0.69 -2.55,-3.93 -2.05,-5.98 -0.89,-7.01 0,-5.64 2.55,-5.3 z"
     title="Karbinci"
     id="MK-37" />
  <path
     d="m 274.60957,126.58199 3.54,0.46 3.26,2.5 1.87,3.74 3.49,4.06 4.65,1.25 2.57,0 1.5,-1.34 0,0 -0.15,3.51 0,0 -1.68,0.27 -3.27,2.29 -0.72,2.48 -0.71,0.96 -0.43,4.2 1,2.1 2.99,3.43 1.57,0 0.85,-1.72 -0.14,-2.67 1.2,-0.38 0,0 -0.74,6.41 0.38,2.51 0,0 -20.28,0 -0.55,-1.23 0,0 -0.58,-1.28 0.19,-13.53 0,0 z"
     title="Karpoš"
     id="MK-38" />
  <path
     d="m 297.45957,149.89199 2.69,3.21 3.75,0.5 3.38,4.53 3.38,2.51 6.38,2.52 4.13,1 4.51,3.52 2.63,3.82 0,0 -4.03,1.89 -1.48,1.71 -1.47,4.74 -1.19,2.11 -2.26,1.05 -3.74,-1.45 -0.69,-1.84 0,-8.83 -2.79,-3.2 -3,0 -2.63,1.51 -3.38,0 -0.28,-0.45 0,0 -1.22,-2.06 0,-5.03 -1.88,-1.01 -2.63,0 0,0 -0.38,-2.51 0.74,-6.41 0,0 z"
     title="Kisela Voda"
     id="MK-39" />
  <path
     d="m 155.62957,320.98199 -0.27,1.43 1.22,1.9 1.22,5.13 2.03,0 1.82,-1.62 1.42,-0.27 2.44,1.89 1.62,2.97 0,7.02 0,0 -3.24,2.16 -3.05,7.56 -2.76,4.4 0,0 -1.3,-2.24 -4.46,-3.24 -4.47,-1.35 -4.26,-1.89 -4.67,-2.97 -2.03,-1.89 -1.83,-2.7 -0.81,-4.72 0,0 0,-2.03 1.42,-3.24 5.08,-1.08 6.29,-2.97 2.23,-1.9 3.25,-0.81 z"
     title="Kičevo"
     id="MK-40" />
  <path
     d="m 567.33957,301.24199 3.09,1.32 2.02,0 2.74,0.77 5.05,4.42 16.16,1.35 2.6,2.11 4.18,4.61 2.75,4.61 4.11,5 0,2.3 -0.72,1.92 -3.03,1.92 -0.15,2.12 1.59,1.34 2.89,0.77 3.89,0 7.55,2.39 0,0 -0.33,0.29 -0.15,2.5 0.22,6.33 1.01,3.27 0.43,3.64 0.45,0.4 0,0 -0.38,2.67 -1.44,1.35 -3.61,-0.58 -1.58,-1.15 -2.17,0 -3.61,1.15 -4.32,2.11 -2.02,2.11 -0.06,0.66 0,0 -5.57,-1.04 -5.49,0.19 -13.42,3.26 -7.36,2.87 -1.15,2.11 -0.43,1.92 -1.3,0 -0.43,-0.69 0,0 -0.87,-1.42 -0.87,-8.05 0.58,-2.5 2.6,-2.49 0.57,-2.88 -1.44,-3.07 -6.06,-3.26 -2.74,-0.38 -0.86,-2.04 0,0 -0.44,-1.03 -0.14,-4.03 -1.45,-3.27 -4.76,-7.49 -5.29,-6.11 0,0 -0.34,-0.42 0.29,-1.92 7.21,-6.15 7.22,-8.07 3.46,-3.27 z"
     title="Konče"
     id="MK-41" />
  <path
     d="m 595.74957,97.861992 1.3,5.159998 2.02,1.16 1.44,-1.36 1.16,-2.32 1.87,-0.969998 1.74,1.159998 2.02,2.91 0.28,12.78 1.3,3.49 7.51,4.06 1.15,1.36 0.87,6.19 -0.15,3.1 3.32,4.64 0.73,2.32 2.01,2.52 0,7.93 0.58,3.09 1.44,2.51 0,3.14 0,0 -4.54,3.05 -3.61,-0.2 -1.44,-1.16 -1.44,-2.12 -3.32,-2.32 -4.91,0.19 -0.87,1.55 -1.44,11.02 -1.44,4.05 0.29,13.33 -2.17,2.51 -0.09,0.87 0,0 -3.69,0.83 -3.52,5.38 -1.38,0.67 -1.63,-0.51 -0.37,-1.51 -1.26,-1 -1.63,0 -5.4,5.2 -5.1,0.17 0,0 -1.36,-0.67 -1.63,-2.19 -1.38,0 -1.76,-0.84 -1.5,-6.04 -1.88,-3.86 -0.26,-9.57 0.76,-1.85 1,-0.67 0,-3.03 -0.75,-1.01 -11.8,0.34 -4.64,-3.19 -3.89,-4.88 -1.3,-3.78 0,0 -0.08,-0.42 1.51,-1.85 3.01,-2.18 3.76,-3.87 4.39,-3.53 3.27,-6.39 4.58,-2.86 1.38,-0.34 2.6,-10.26 0,0 2.79,-10.94 2.13,-3.71 0.38,-3.37 -0.5,-3.03 -1.38,-3.2 -0.44,-3.599998 0,0 0,-1.25 0.8,-1.08 15.76,-0.67 z"
     title="Kočani"
     id="MK-42" />
  <path
     d="m 476.33957,71.781992 4.74,4.93 3.02,0 0.83,0.92 0.42,6.48 1.1,1.85 6.88,0.37 4.96,2.59 3.44,4.44 10.47,8.689998 5.1,-0.18 3.03,-1.48 3.85,-0.929998 2.76,-1.29 0.55,-1.3 0.27,-6.28 3.17,-1.16 0,0 -0.25,1.51 1.55,1.85 7.74,0.23 4.65,-0.23 5.86,-1.16 2.58,-0.92 1.89,-1.85 2.24,0.7 3.1,3.23 5.34,1.39 8.76,5.76 0,0 0.44,3.599998 1.38,3.2 0.5,3.03 -0.38,3.37 -2.13,3.71 -2.79,10.94 0,0 -2.51,-4.04 -4.48,-3.92 -3.62,-2.08 -5.5,-0.46 -10.51,0.23 -1.2,0.92 0,12.24 -2.07,3 -1.37,0 -2.41,-0.92 -3.27,-4.62 -1.55,-0.23 -1.55,0.69 -1.55,1.62 -1.72,0.46 -3.62,0 -1.55,-1.15 -1.37,-3.01 -2.93,-2.07 -10.67,4.15 -2.85,1.62 -3.95,0.69 -6.37,-0.23 -1.73,0.92 -2.06,2.77 -2.58,7.85 -1.38,0.23 -1.38,-0.46 -2.06,-1.62 -4.82,-2.53 -2.09,0.52 0,0 -1.9,-0.64 -4.24,0.87 -5.7,0 0,0 -0.85,-3.09 -3.58,-3.51 -2.21,-1.3 -1.37,-1.47 -1.24,-7.39 -0.97,-2.22 -7.71,-0.55 -1.24,-1.85 -0.27,-2.77 1.93,-3.88 3.44,-4.44 0.82,-5.92 1.14,-1.449998 0,0 0.31,-0.4 3.86,-0.18 3.58,-1.3 3.03,-4.62 2.89,-5.73 0.27,-4.26 -0.27,-9.81 1.51,-1.11 z"
     title="Kratovo"
     id="MK-43" />
  <path
     d="m 558.03957,4.8619922 4.03,4.8800001 4.11,3.5399997 5.8,3.03 2.14,-1.95 2.45,1.52 0.77,-0.19 0.81,0.56 1.59,-0.5 2.5,3.84 0.32,1.95 3.83,2.04 -0.7,2.48 1.57,2.79 1.28,0.98 0.27,1.07 0.89,0.74 0.45,1.49 1.61,1.41 1.08,-0.1 0.17,3.29 2.86,-0.68 0.21,1.02 1.1,1.26 0,1.96 3.19,2.48 -0.49,2.22 2.17,3.26 0.53,2.56 0.69,0.35 -0.01,1.34 2.33,3.24 0.73,2.72 -0.18,0.89 4.54,0.25 4.73,2.68 0.71,1.83 -0.66,1.32 0.12,1.16 1.03,2.4 0.44,3.64 3.29,4.58 -1.37,0.69 -0.13,0.9 0,0 -14.57,9.65 -3.18,4.65 -5.34,2.91 0,0.85 0,0 -4.8,-0.92 -15.76,0.67 -0.8,1.08 0,1.25 0,0 -8.76,-5.76 -5.34,-1.39 -3.1,-3.23 -2.24,-0.7 -1.89,1.85 -2.58,0.92 -5.86,1.16 -4.65,0.23 -7.74,-0.23 -1.55,-1.85 0.25,-1.51 0,0 0.09,-0.57 2.93,-2.78 0.17,-5.08 -0.69,-2.78 -1.72,-2.78 -0.69,-3.7 0,-5.32 -3.44,-7.64 0.35,-8.1 1.37,-1.62 1.38,-3.25 0,-2.77 -2.75,-1.39 -8.96,0 -5.51,-2.79 -11.01,-15.76 -2.7,-7.09 0,0 11.18,-2.42 5.86,-1.78 6.41,-7.0299998 5.15,0.08 13.23,-3.02 4.44,-1.59 6.56,0.3 z"
     title="Kriva Palanka"
     id="MK-44" />
  <path
     d="m 259.76957,391.45199 0.35,-0.94 1.49,-1.18 1.94,-0.2 2.24,-1.98 1.35,-0.6 1.94,0.8 1.79,9.9 0.89,1.78 1.49,0.6 1.65,0 2.38,-0.2 2.24,-0.99 2.69,-0.4 3.88,0.2 3.43,2.18 0.56,0.92 0,0 -4.81,4.23 -0.15,1.18 0.15,2.58 1.34,0.99 0.15,2.18 1.19,1.58 6.12,0.59 1.35,0.99 0,3.57 -1.2,2.77 -1.49,1.98 -1.49,9.69 -6.27,7.32 -2.54,1.78 -4.33,0.2 -1.87,0.49 0,0 -2.83,-1.68 -2.38,-3.56 -3.14,-1.58 -0.75,0.07 0,0 -0.14,-2.05 -2.09,-0.2 -1.64,-0.79 0.59,-2.37 1.05,-1.19 1.49,-4.95 0.45,-4.15 -0.45,-4.16 -1.94,-3.36 -3.73,-4.16 -1.49,-2.97 0.15,-13.86 z"
     title="Krivogaštani"
     id="MK-45" />
  <path
     d="m 244.39957,352.41199 5.05,7.58 4.78,5.55 1.79,1.19 1.04,2.38 -0.29,4.36 -10.15,-0.2 -1.2,1.59 -0.15,2.77 3.44,1.79 7.61,8.52 1.04,2.18 2.41,1.33 0,0 -0.39,1.05 -0.15,13.86 1.49,2.97 3.73,4.16 1.94,3.36 0.45,4.16 -0.45,4.15 -1.49,4.95 -1.05,1.19 -0.59,2.37 1.64,0.79 2.09,0.2 0.14,2.05 0,0 -3.72,0.92 -3.44,9.68 -2.09,3.17 -0.3,3.75 3.28,3.68 0,0 -1.9,-0.21 -2.07,-1.53 -1.85,-2.13 -1.48,0.43 0,0 0.17,-4.14 0.87,-2.67 0,-8.4 -1.73,-3.06 -3.46,-3.06 -1.44,-4.96 -0.86,-4.97 -3.75,-4.59 -2.88,-1.14 -2.88,1.53 -5.48,0.38 -0.58,-1.53 0.29,-16.06 -2.02,-3.06 -3.45,0 -4.61,-0.76 -4.62,0.76 0,-5.74 -2.3,-1.91 -7.07,-3.5 0,0 -0.33,-1.7 -2.12,-4.74 0.78,-1.68 0,0 0.52,-1.13 2.28,-1.51 11.2,-4.31 4.71,-2.75 0,0 4.06,-2 9.74,-3.45 1.14,-3.24 0,-6.05 0.65,-2.59 z"
     title="Kruševo"
     id="MK-46" />
  <path
     d="m 388.80957,37.081992 4.29,0.49 0,0 0.55,1.13 7.35,2.69 2,2.4 0.1,3.39 -0.63,1.98 -6.3,2.26 -0.63,2.12 -0.11,3.25 1.79,2.97 0.1,8.04 -1.99,3.67 -0.53,4.38 0.32,6.63 1.05,3.25 2.73,4.09 5.04,6.07 2.42,0.98 2.41,0 1.47,-2.25 3.05,-1.55 2.83,-0.57 2.1,-1.69 2.42,-0.85 3.57,-0.7 2,0.14 2.73,2.82 8.29,2.68 2.53,0.14 0.94,-0.28 1.37,-1.69 0.83,-4.1 1.69,-1.12 2.62,-0.29 2.1,0.99 3.43,10.2 0,0 -1.14,1.449998 -0.82,5.92 -3.44,4.44 -1.93,3.88 0.27,2.77 1.24,1.85 7.71,0.55 0.97,2.22 1.24,7.39 1.37,1.47 2.21,1.3 3.58,3.51 0.85,3.09 0,0 -0.58,3.55 -2.89,2.22 -5.51,2.03 -4.4,2.4 -3.31,0.18 -1.79,-1.84 -1.93,-3.88 -3.17,-3.51 -4.13,-1.11 -4.54,0.19 -3.72,0.74 -6.47,5.72 -1.65,2.22 -0.69,2.76 0,2.96 -1.52,2.03 -2.48,2.03 -0.96,2.21 -2.34,1.66 -0.43,0.89 0,0 -4.04,-2.79 -2.44,-3.41 -2.87,-2 -7.87,0.14 -1.7,1.43 -2.34,1 -2.02,0 -1.8,-0.86 -1.17,-3.27 -2.98,-2.28 -2.97,-0.57 -4.47,-2.42 -1.64,-1.98 0,0 -0.38,-0.45 0,-1.7 0.85,-4.85 0,-3.56 -0.79,-1.57 -4.15,0 -7.12,-6.13 -3.61,-2.14 -0.94,-2.51 0,0 -0.34,-4.62 -6.06,-3.28 -2.65,0 0,0 -1.49,-0.85 -0.11,-3 0.85,-2.56 4.46,-2.43 4.47,-4.28 1.27,-4.139998 0.27,-10.99 1.06,-2.14 1.49,-0.57 1.81,0.57 1.8,1.43 1.6,0.28 0.95,-0.71 0,-10.43 2.02,-1.57 2.34,-0.29 1.7,-0.71 0.53,-1.57 0,-3.43 -2.01,-8.15 -0.21,-14.08 0,0 1.66,1.03 4.98,-0.78 4.2,-2.27 2.63,-3.68 z"
     title="Kumanovo"
     id="MK-47" />
  <path
     d="m 324.70957,39.211992 3.23,1.77 8.37,-1.52 4.8,-2.31 3.85,-0.22 3.92,2.45 4.54,1.25 4.29,-0.78 4.89,0.28 5.27,2.14 3.77,2.33 0,0 0.21,14.08 2.01,8.15 0,3.43 -0.53,1.57 -1.7,0.71 -2.34,0.29 -2.02,1.57 0,10.43 -0.95,0.71 -1.6,-0.28 -1.8,-1.43 -1.81,-0.57 -1.49,0.57 -1.06,2.14 -0.27,10.99 -1.27,4.139998 -4.47,4.28 -4.46,2.43 -0.85,2.56 0.11,3 1.49,0.85 0,0 -2.16,8.87 -1.71,0.68 -4.94,-1.14 -2.22,-1.83 -2.39,-4.34 -4.09,-4.35 -1.56,-2.3 0,0 -6.45,-8.46 -2.65,-4.339998 0,0 -5.15,-9.51 -3.41,-4.01 1.06,-2.86 0,0 5.33,-2.58 2.77,-2.58 0.85,-5.44 0,-5.45 -1.06,-2.29 -2.56,-0.86 -3.41,-4.01 -3.2,-5.45 -0.59,-2.93 0,0 -0.68,-3.37 0.21,-6.32 -0.48,-7.04 4.73,-0.14 5.88,3.18 z"
     title="Lipkovo"
     id="MK-48" />
  <path
     d="m 423.27957,205.53199 4.37,0.3 3.01,1.15 6.89,8.98 4.3,1.84 3.44,0.69 2.59,2.07 9.81,12.65 6.02,6.2 5.34,4.6 4.34,2.9 0,0 -2.01,0.61 0,1.33 1.12,1.17 0,1.66 -0.5,0.99 -4.35,0.5 -1.12,3.49 -1.13,0.34 -1.74,-1.33 -0.99,-1.67 -2.24,-2.15 -1.62,-1 -1.62,0 -1.87,1 -1.24,2.82 -2.99,3.49 -1.12,5.15 0.87,1.66 6.1,5.15 0.12,4.48 0.31,0.24 0,0 -1.18,2.35 -2.92,2.83 -3.32,2.13 -5.45,-0.36 -3.85,-1.06 -1.86,-1.06 -1.06,-2.48 -1.33,-7.27 -0.13,-7.79 -1.47,-4.61 -0.39,-3.55 -0.8,-1.42 -1.86,-0.53 -3.45,0 -0.94,0.71 -0.26,2.67 0,0 -5.05,-9.06 -2.39,-0.88 -3.46,0 -0.93,-1.42 0.8,-3.37 3.86,-8.87 0,-2.84 -6.12,-7.99 -0.53,-1.6 0.93,-1.6 8.11,-8.52 1.06,-1.78 z"
     title="Lozovo"
     id="MK-49" />
  <path
     d="m 40.199572,224.84199 3.29,2.21 0.66,-1.05 0,0 3.12,3.57 6.9,3.25 4.67,4.07 12.58,1.63 3.45,-2.71 5.69,-7.33 6.29,0 11.57,1.9 4.669998,0.27 1.83,2.17 3.85,6.78 0.61,7.86 2.85,3.25 3.65,-2.17 11.57,0.28 0,2.16 -4.26,4.34 6.09,10.56 4.46,5.14 0.64,3.59 0,0 -4.8,0.48 -1.62,1.35 -6.91,0 -3.45,2.16 -5.27,6.23 -2.44,1.89 -6.9,0.27 -3.249998,4.06 0.2,2.71 2.439998,1.89 4.06,-1.08 1.27,0.22 0,0 2.43,13.55 0,16.89 -3.81,4.23 -0.31,8.86 -3.81,2.11 -3.589998,6.83 -3.24,3.24 -3.86,1.35 -4.87,-0.81 -3.42,-1.33 0,0 -1.32,-6.75 -4.12,-2.11 -6.66,-2.53 -4.13,-4.64 -3.48,-5.49 -6.35,-5.49 -3.49,0 -10.15,-2.11 -7.61,-5.49 -5.84,-6.56 0,0 1.77,-1.41 -0.27,-3.23 -1.95,-7.68 -3.79,-6.87 -1.97,-3.11 -1.01,-0.85 -0.49,-2.15 0.44,-2.21 -0.34,-2.15 -1.55,-3.61 1.84,-9.66 -0.01,-3.73 -0.59,-3.39 -2.05,-5.76 -0.75,-5.24 0.25,-4.39 1.24,-3.84 1.68,-2.31 1.57,-3.56 0.49,-3.47 2,-2.19 3,-1.48 5.26,-1.07 0.45,0.81 z"
     title="Mavrovo i Rostuša"
     id="MK-50" />
  <path
     d="m 640.27957,98.731992 2.15,-0.26 3.01,4.899998 1.75,0.16 1.78,1.39 1.79,-0.84 3.89,1.45 1.26,1.75 0.97,0.25 1.9,1.7 0.59,1.09 0,0 -0.83,24.16 -0.72,1.16 -4.62,1.16 -0.72,2.13 0.62,6.63 0,0 -2.73,-1.31 -4.62,-0.58 -2.3,0.39 -1.88,1.74 -1.3,6.19 -4.04,8.5 -3.46,2.32 -2.17,0 -4.26,-2.08 0,0 0,-3.14 -1.44,-2.51 -0.58,-3.09 0,-7.93 -2.01,-2.52 -0.73,-2.32 -3.32,-4.64 0.15,-3.1 -0.87,-6.19 -1.15,-1.36 -7.51,-4.06 -1.3,-3.49 -0.28,-12.78 -2.02,-2.91 -1.74,-1.159998 -1.87,0.969998 -1.16,2.32 -1.44,1.36 -2.02,-1.16 -1.3,-5.159998 0,0 0,-0.85 5.34,-2.91 3.18,-4.65 14.57,-9.65 0,0 3.8,2.97 1.28,2.78 3.24,1.75 2.64,0.8 1.62,2.3 2.5,1.98 0.87,2.23 z"
     title="Makedonska Kamenica"
     id="MK-51" />
  <path
     d="m 236.50957,212.73199 6.81,7.55 4.41,7.21 5.64,7.86 4.66,9.17 5.88,5.24 4.91,0.65 1.91,-1.5 0,0 2.22,0.74 3.45,0 2.68,3.07 0,13.8 3.45,7.16 2.68,2.55 0.34,-1.2 0,0 0.43,2.86 -1.96,3.59 -5.4,6.21 -0.24,2.62 1.23,3.26 -0.41,10.02 0,0 -2.36,0 -0.75,12.32 -1.94,4.77 -6.72,8.14 -1.64,2.98 -0.89,2.78 0.3,10.52 -8.66,-3.96 -3.51,0.59 -1.34,1.59 -1.19,2.78 -1.64,0.99 -2.09,0 -2.24,1.39 -0.45,0.99 0.32,2.94 0,0 -4.01,0.03 -0.65,2.59 0,6.05 -1.14,3.24 -9.74,3.45 -4.06,2 0,0 -0.97,-4.37 -2.93,-1.73 -3.08,-0.43 -3.57,-1.51 -1.79,-1.95 -1.14,-1.94 -0.32,-1.51 -0.16,-6.26 -1.46,-1.08 -3.74,0 -4.38,2.81 -5.04,1.72 -4.54,0.22 -3.03,0.83 0,0 0,-3.53 0.61,-2.97 2.23,-1.35 2.84,-0.81 1.83,-2.97 4.47,-3.24 3.45,-4.59 3.45,-3.51 3.04,-1.89 -0.2,-2.43 -6.7,-3.78 -3.65,-3.52 -1.63,-2.43 -0.81,-6.49 -1.01,-2.43 -0.22,0.29 0,0 0.42,-5.43 0,-11.36 -1.62,-3.24 -4.27,-1.9 -6.49,-0.27 -1.83,-1.62 -0.97,-3.62 0,0 1.58,-5.85 -0.61,-7.04 -3.25,-6.77 -0.4,-6.77 -2.85,-2.17 -1.42,-4.06 0.41,-2.17 1.62,-1.36 2.44,0 0.81,-1.62 0,-10.03 1.63,-3.8 7.98,-0.93 0,0 4.2,-0.97 4.26,-4.07 5.07,-8.13 7.11,-7.87 5.88,-4.35 5.28,0.33 0,0 2.84,0.76 3.66,2.44 3.45,3.26 z"
     title="Makedonski Brod"
     id="MK-52" />
  <path
     d="m 276.22957,443.46199 -0.36,0.1 0.3,2.57 1.49,2.17 7.46,1.19 3.88,2.37 3.58,5.73 3.73,2.97 1.12,3.16 1.79,1.78 6.57,0.39 1.94,0.79 2.09,3.76 5.82,3.15 6.71,0.2 3.88,-2.76 2.24,0 5.52,4.34 4.18,1.58 4.63,0.79 3.58,1.19 1.13,1.29 0,0 -1.43,6.18 -12.81,16.45 -3.48,2.18 -13.72,-1.94 -8.69,-3.39 -3.11,0 -4.76,3.39 -2.74,3.63 -0.67,1.88 0,0 -0.76,-0.66 -4.48,-0.59 -1.49,0.39 -5.37,3.55 -1.64,0 -2.39,-0.59 -2.39,-1.38 -1.49,-1.58 -0.75,-2.17 0.45,-10.66 -0.74,-5.32 -1.8,-1.78 -4.02,-1.38 -2.99,-1.98 -2.69,-3.15 -1.64,-3.56 -1.04,-3.55 0,-3.95 2.68,-5.14 0,-3.36 -2.69,-3.83 0,0 -3.28,-3.68 0.3,-3.75 2.09,-3.17 3.44,-9.68 3.72,-0.92 0,0 0.75,-0.07 3.14,1.58 2.38,3.56 z"
     title="Mogila"
     id="MK-53" />
  <path
     d="m 472.43957,279.09199 3.55,2.98 2.86,0.17 2.99,1.16 3.36,5.47 2.49,2.82 1.49,0 1.5,-0.66 0.99,-1.33 2.49,-5.47 2.12,-0.33 2.61,3.31 1.13,2.83 1.12,4.64 0.37,4.48 1.37,3.81 1.87,1.5 2.49,-0.67 8.21,0.5 4.86,1.66 0.87,2.65 0.12,5.81 2.37,1.49 3.36,1.49 7.72,5.3 5.35,1.49 5.73,-0.16 2.35,-0.49 0,0 5.29,6.11 4.76,7.49 1.45,3.27 0.14,4.03 0.44,1.03 0,0 -4.84,4.83 -3.64,2.35 -1.65,3.95 -2.2,2.79 -1.55,0 -2.75,-0.88 -4.74,-2.49 -3.08,-1.76 -3.2,-3.08 -1.76,-0.58 -2.76,0 -2.09,1.46 -3.31,3.96 -3.08,2.34 -1.32,2.34 -2.65,10.25 -2.42,5.42 -3.31,2.63 -1.54,0.15 -1.1,1.46 -0.33,1.32 0.77,1.75 3.86,5.12 0.88,2.2 -0.44,4.09 -1.21,4.54 -0.89,1.6 -4.51,1.03 -10.52,-0.33 0,0 -4.69,-2.91 0,-4.34 -0.62,-3.31 -2.65,-4.54 -1.4,-6.2 0,-14.27 -3.11,-15.3 0.16,-8.28 -1.56,-2.28 -3.11,-1.24 -2.49,0.41 -3.12,1.86 -2.64,0.21 -3.27,0 -2.14,-1.83 0,0 0.27,-7.28 -0.4,-12.69 0,0 0.87,-0.77 1.87,0 1.4,1.66 0.02,4.52 0.62,3.15 1,1.49 3.86,-0.16 3.11,-7.46 0,-1.99 -1.62,-1.82 -1,-0.5 -0.24,-2.32 2.61,-4.47 2.24,-5.14 -0.37,-3.98 -1.87,-1.5 -1.62,0 -2.49,0.83 -4.61,2.49 -2.24,0 -1.99,-1.16 -0.99,-1.83 0.37,-4.47 1.37,-2.99 2.12,-2.32 1.86,-1 1.75,-3.81 1.61,-2.33 0.88,-2.49 z"
     title="Negotino"
     id="MK-54" />
  <path
     d="m 347.50957,480.22199 2.59,-2.3 2.2,-0.24 1.28,1.46 2.93,5.56 4.75,3.39 4.03,1.45 15.37,2.18 10.06,4.84 7.32,1.45 2.75,1.94 3.11,4.11 2.56,1.69 4.21,1.21 6.95,-0.24 1.28,-2.42 0.92,-0.24 0.91,0.48 1.1,2.42 5.86,5.56 3.29,0.73 6.77,3.14 1.96,1.63 0,0 0.06,0.76 -3.66,6.49 -3.9,0.42 -2.3,6.45 -2.11,1.49 -3.43,0.81 -2.05,3.25 -1.95,4.74 -2.11,3.71 -8.51,6.8 -2.28,12.1 -3.5,4.02 -9.01,1.22 -6.64,-0.94 -6.22,-3.47 -3,0.56 -9.71,6.55 -0.64,7.7 -2.52,0.47 0.17,2.22 -2.31,0.91 -3.91,-0.34 -2.25,0.33 -11.8,9.45 -4.45,0.7 -2.95,-1.92 -10.91,-14.7 -7.18,-0.07 0,0 0.1,-4.11 -1.1,-4.82 -0.19,-3.62 -0.91,-3.38 -3.29,-4.82 -7.87,-8.94 -1.28,-2.89 -6.59,-1.7 -0.37,-8.69 -0.54,-3.62 -3.66,-3.87 -0.92,-1.69 -0.55,-4.11 0.18,-2.9 1.1,-1.69 0.73,-2.42 0,-4.11 0.62,-1.75 0,0 0.67,-1.88 2.74,-3.63 4.76,-3.39 3.11,0 8.69,3.39 13.72,1.94 3.48,-2.18 12.81,-16.45 z"
     title="Novaci"
     id="MK-55" />
  <path
     d="m 754.84957,372.73199 -0.22,0.49 -1.86,0.15 -1.44,1.82 -1.33,2.83 0.31,2.72 2.19,1.31 0,0.92 2.42,3.9 -0.56,2.04 0,3.08 1.86,5.08 0.41,3.18 -0.07,0.82 -0.42,0.2 -3.65,0.2 -0.36,0.59 0.51,2.37 -2.83,0.75 -8.73,-0.76 -8.84,-0.09 -8.21,1.96 -9.02,-2.08 -3.65,1.36 -0.62,0.62 0,0 -0.55,-0.79 -0.29,-20.12 -2.02,-1.91 0,-0.77 0,0 0.29,-1.15 3.75,-3.06 0.58,-2.11 0,-14.38 1.44,-1.92 7.5,-5.95 5.92,-8.25 1.88,-1.54 0.86,-3.26 -0.43,-6.72 0,0 9.81,0 10.68,-0.77 2.3,-0.97 0,0 0.99,2.54 2.45,2.56 0.24,1.01 -0.75,4.76 -2.6,1.86 -1.33,2.37 0.74,0.72 0.13,0.8 -0.21,0.54 0.63,2.16 -0.23,2.51 1.99,1.17 -1.12,3.5 0.63,1.94 2.93,2.75 1.41,2.48 -0.16,1.18 -1.47,1.72 z"
     title="Novo Selo"
     id="MK-56" />
  <path
     d="m 181.58957,281.48199 0.97,3.62 1.83,1.62 6.49,0.27 4.27,1.9 1.62,3.24 0,11.36 -0.42,5.43 0,0 -4.45,7.01 -4.06,3.51 -3.66,1.08 -2.43,2.44 -2.84,9.45 -2.64,3.78 -3.86,2.7 -5.28,0.54 0,0 0,-7.02 -1.62,-2.97 -2.44,-1.89 -1.42,0.27 -1.82,1.62 -2.03,0 -1.22,-5.13 -1.22,-1.9 0.27,-1.43 0,0 0.34,-1.81 1.62,-1.08 1.42,-4.59 2.24,-4.06 0.2,-11.08 -1.02,-4.06 0.55,-3.48 0,0 0.27,-1.66 4.46,-3.25 4.27,-0.54 3.85,-1.35 3.25,-0.54 2.64,-2.17 z"
     title="Oslomej"
     id="MK-57" />
  <path
     d="m 86.959572,473.71199 9.43,-0.42 1.83,-4.03 5.279998,-2.15 -0.41,-8.06 3.65,-7.26 3.86,-2.42 0.61,-3.23 2.03,-1.88 3.05,-0.54 7.71,0.27 5.07,-2.15 8.32,0 10.97,3.76 7.91,5.38 14.42,2.15 4.42,-1.14 0,0 2.01,3.33 0.36,1.92 0,0 -2.76,5.16 -3.69,4.15 -6.46,4.89 -18.44,10.74 -3.5,3.41 -6.09,7.81 -2.21,6.34 -1.48,8.53 -0.55,12.67 -2.58,1.22 -1.48,1.46 0.18,5.85 1.66,1.95 1.66,3.9 -0.55,8.03 -2.4,2.68 -7.74,0.73 -3.51,2.68 -2.58,9.97 0,8.27 0.47,2.47 -1.75,1.75 -4.5,9.07 0,0 -13.289998,1.43 -5.75,-1.34 -2.89,-1.72 -0.78,-1.13 0,0 2.61,-2.23 6.3,-3.75 3.45,-11.51 4.869998,-8.84 3.45,-10.71 0.2,-8.04 -0.81,-7.24 -0.4,-15.02 0,-4.29 0.81,-6.71 -3.86,-2.95 -3.249998,-0.81 -2.64,-2.14 -3.04,-4.57 -3.05,-9.66 -3.65,-1.88 -1.55,-2.32 0,0 z"
     title="Ohrid"
     id="MK-58" />
  <path
     d="m 374.02957,145.03199 1.64,1.98 4.47,2.42 2.97,0.57 2.98,2.28 1.17,3.27 1.8,0.86 2.02,0 2.34,-1 1.7,-1.43 7.87,-0.14 2.87,2 2.44,3.41 4.04,2.79 0,0 -1.09,2.24 -1.68,5.62 -0.14,4.49 0,0 -10.45,7.82 -4.12,1.6 -3.85,-0.18 -1.73,0.89 -0.27,1.42 0.8,6.4 -0.4,7.29 -0.66,3.91 -1.46,4.08 -2,8.35 -0.79,1.6 -1.6,0.53 -3.59,-1.24 -3.32,-4.8 -2.12,0 -0.13,1.42 -3.06,3.2 -1.06,2.13 -1.73,0 -0.27,-0.89 0.67,-1.42 -0.13,-3.02 -0.8,-0.71 -1.2,0.54 -1.46,1.42 -2.26,-0.18 -3.32,-0.53 -3.05,-1.42 -0.08,-0.99 0,0 -0.06,-0.79 2.53,-4.08 0.53,-20.62 -1.46,-2.13 -2.79,0.26 -3.99,-2 -2.82,-0.88 -4.35,-0.19 0,0 -3.46,-0.04 -1.82,-0.44 -0.67,-2.22 0.67,-2.45 0.92,-1.06 0,0 3.28,-3.86 0,0 0.78,-1.3 2.32,-0.67 3.32,-2.23 3.66,-1.78 1.99,-2.89 2.66,0 2.49,2.23 2.66,1.33 7.8,-0.67 1,-2 -0.67,-3.56 -1.85,-1.74 0,-1.57 0.42,-1.71 4.25,-9.25 z"
     title="Petrovec"
     id="MK-59" />
  <path
     d="m 736.23957,194.36199 1.48,-0.87 1.17,0.36 1.14,1.23 0.68,1.43 1.19,1.16 0.33,1.27 0.73,0.46 -0.15,1.19 1.12,1.63 0.54,2.43 0.76,0.84 0.88,0.23 -0.22,2.09 1.35,2.24 1.19,3.37 -0.13,3.32 0.38,2.4 1.34,1.47 1.08,3.32 1.7,1.34 1.15,3.18 1.59,1.8 0.77,-0.13 1.45,5.17 -0.03,0.83 -0.58,0.57 0.51,1.03 1.71,1.01 0.31,-1.19 1.54,-0.26 1.13,-1.88 0.98,1.61 1.37,-1.77 2.46,-0.08 0.82,2.84 1.41,1.65 -0.12,2.78 1.68,0.7 0.27,0.56 0.59,3 1.96,3.44 0,1.49 0.74,1.27 -0.74,1.28 -0.04,0.94 0.9,3.09 -1.48,1.13 -0.7,1.82 -1.25,0.02 -3.99,7.26 0,0 -3.9,-2.9 -8.22,-2.7 -5.78,-4.81 -4.61,-2.89 -4.77,-0.38 -4.18,0.19 0,-2.89 -1.59,-2.89 -3.46,-1.54 -13.28,-2.51 -4.18,0.2 -1.73,1.35 -0.29,2.11 -0.87,0.58 -2.45,-0.58 -1.16,-2.69 -0.14,-3.86 -0.58,-2.31 -2.16,-1.16 -4.19,-11.17 -0.5,-3.21 0,0 2.81,0.31 2.45,-0.38 3.03,-3.28 2.17,-3.47 3.46,-1.35 2.6,-0.39 5.92,-11.77 4.04,-4.43 8.96,-6.47 0,0 0.41,0.98 z"
     title="Pehčevo"
     id="MK-60" />
  <path
     d="m 188.64957,354.57199 3.03,-0.83 4.54,-0.22 5.04,-1.72 4.38,-2.81 3.74,0 1.46,1.08 0.16,6.26 0.32,1.51 1.14,1.94 1.79,1.95 3.57,1.51 3.08,0.43 2.93,1.73 0.97,4.37 0,0 -4.71,2.75 -11.2,4.31 -2.28,1.51 -0.52,1.13 0,0 -1.61,-1.18 -8.73,-3.78 -3.24,-6.2 -2.44,0.27 -2.93,1.35 0,0 -1.94,0 -3.65,1.08 -2.03,-3.24 0,-2.97 -0.61,-3.51 -1.42,-3.5 0.2,-2.7 0.81,-1.62 4.67,-0.54 z"
     title="Plasnica"
     id="MK-61" />
  <path
     d="m 399.92957,364.82199 0,3.2 1.87,2.89 3.27,3.52 1.55,1.03 2.96,0 2.33,-4.96 1.56,-0.83 0.62,2.07 0,4.96 -1.09,2.28 -0.31,7.85 0.62,3.51 3.35,5.06 0.62,3.51 -0.15,5.79 -1.71,3.3 -0.63,2.89 -0.46,6.6 0.15,5.99 0.78,3.51 1.56,5.36 1.4,2.89 2.64,0.82 7.78,-0.41 5.14,0.41 0.62,1.65 -1.09,1.24 -0.62,3.3 -3.42,6.39 -0.63,8.45 1.87,3.51 1.56,0.82 2.33,3.91 -0.39,12.88 1.09,8.85 1.71,1.24 2.34,0.61 5.91,0.21 0.78,2.06 0,3.5 0.62,4.52 0.71,1.98 0,0 -6.02,3.79 -1.31,4.28 -0.54,4.25 0.41,4.52 0,0 -1.96,-1.63 -6.77,-3.14 -3.29,-0.73 -5.86,-5.56 -1.1,-2.42 -0.91,-0.48 -0.92,0.24 -1.28,2.42 -6.95,0.24 -4.21,-1.21 -2.56,-1.69 -3.11,-4.11 -2.75,-1.94 -7.32,-1.45 -10.06,-4.84 -15.37,-2.18 -4.03,-1.45 -4.75,-3.39 -2.93,-5.56 -1.28,-1.46 -2.2,0.24 -2.59,2.3 0,0 -1.13,-1.29 -3.58,-1.19 -4.63,-0.79 -4.18,-1.58 -5.52,-4.34 -2.24,0 -3.88,2.76 -6.71,-0.2 -5.82,-3.15 -2.09,-3.76 -1.94,-0.79 -6.57,-0.39 -1.79,-1.78 -1.12,-3.16 -3.73,-2.97 -3.58,-5.73 -3.88,-2.37 -7.46,-1.19 -1.49,-2.17 -0.3,-2.57 0.36,-0.1 0,0 1.87,-0.49 4.33,-0.2 2.54,-1.78 6.27,-7.32 1.49,-9.69 1.49,-1.98 1.2,-2.77 0,-3.57 -1.35,-0.99 -6.12,-0.59 -1.19,-1.58 -0.15,-2.18 -1.34,-0.99 -0.15,-2.58 0.15,-1.18 4.81,-4.23 0,0 4.29,-3.69 2.09,-0.4 3.13,-4.95 3.88,-3.37 6.27,0 7.09,-2.18 10,-0.4 3.13,-1.58 3.58,-4.56 6.72,-2.38 0.6,-4.76 1.79,-4.95 2.38,-2.58 3.49,-1.59 0,0 6.21,0.6 2.24,1.58 1.64,2.58 0.6,2.18 2.84,0.2 2.83,-0.79 1.64,-0.8 2.24,-4.75 0.45,-7.94 0.9,-1.58 0.89,-0.6 7.91,-0.6 3.88,-2.38 2.09,0 1.64,0.6 1.19,1.98 8.06,3.97 2.54,5.36 z"
     title="Prilep"
     id="MK-62" />
  <path
     d="m 571.40957,127.79199 -2.6,10.26 -1.38,0.34 -4.58,2.86 -3.27,6.39 -4.39,3.53 -3.76,3.87 -3.01,2.18 -1.51,1.85 0.08,0.42 0,0 -1.4,-0.87 -1.15,0.17 -2.05,1.54 -2.3,4.46 -1.28,6.67 -1.66,2.91 -2.69,1.37 -2.17,1.72 -2.18,2.56 -1.66,0 -1.28,0.69 -0.89,2.05 0.38,2.91 3.84,5.65 6.82,8.41 0,0 -1.32,1.51 -10.87,0.51 -3.2,-1.37 -1.02,-3.25 0,-1.88 -0.9,-1.71 -1.92,-0.51 -4.23,2.45 0,0 -0.99,-1.85 -1.17,-0.79 -2.76,0.79 -3.73,-1.58 -4.52,-0.26 -1.6,0.49 0,0 0,-0.96 -3.96,-4.6 0.17,-0.92 1.55,-1.16 0.86,-2.53 0,-4.38 -1.2,-0.92 -2.76,-0.69 -1.89,-1.84 -6.03,-11.76 -8.26,-5.77 -4.13,-3.92 -0.86,-3 0.69,-4.38 3.42,-7.09 0,0 2.09,-0.52 4.82,2.53 2.06,1.62 1.38,0.46 1.38,-0.23 2.58,-7.85 2.06,-2.77 1.73,-0.92 6.37,0.23 3.95,-0.69 2.85,-1.62 10.67,-4.15 2.93,2.07 1.37,3.01 1.55,1.15 3.62,0 1.72,-0.46 1.55,-1.62 1.55,-0.69 1.55,0.23 3.27,4.62 2.41,0.92 1.37,0 2.07,-3 0,-12.24 1.2,-0.92 10.51,-0.23 5.5,0.46 3.62,2.08 4.48,3.92 z"
     title="Probištip"
     id="MK-63" />
  <path
     d="m 604.61957,231.80199 2.96,0.69 2.17,1.74 3.32,3.66 2.6,1.15 6.78,-0.19 4.18,-0.96 1.74,-1.74 1.44,-3.85 2.16,-0.19 1.01,0.96 1.73,4.05 6.79,3.47 7.36,6.74 3.75,1.54 5.06,0.39 0,0 0.13,7.17 1.09,5.3 2.16,1.92 2.35,1.2 1.44,1.69 -0.18,2.17 -5.95,9.38 -0.18,2.64 0.54,3.37 1.13,2.84 0,0 -0.81,1.01 -9.09,0.96 -1.15,1.15 -3.76,6.93 -0.86,2.69 0.14,2.31 1.73,2.88 2.46,3.84 2.16,1.35 0.72,5.57 1.16,2.31 0.43,2.69 -0.29,6.91 -1.73,2.69 -2.45,2.69 -1.73,-0.19 -8.95,-8.84 -4.76,-2.88 -1.73,0 -1.3,0.77 -1.59,3.84 -2.89,2.11 -3.89,0.58 -1.16,0.96 0,1.54 2.17,4.41 0,2.11 -0.97,0.86 0,0 -7.55,-2.39 -3.89,0 -2.89,-0.77 -1.59,-1.34 0.15,-2.12 3.03,-1.92 0.72,-1.92 0,-2.3 -4.11,-5 -2.75,-4.61 -4.18,-4.61 -2.6,-2.11 -16.16,-1.35 -5.05,-4.42 -2.74,-0.77 -2.02,0 -3.09,-1.32 0,0 -3.55,-2.14 -1.45,-2.88 0,-7.12 -0.57,-3.27 -1.16,-1.54 -3.03,-8.08 1.01,-2.31 5.05,-5.19 1.88,-0.39 4.04,2.89 6.06,2.11 3.32,0.2 2.31,-0.39 4.62,-9.82 5.05,-8.21 0,0 1.15,-2.57 2.24,-2.31 1.3,-3.28 0.58,-4.04 0,-5.4 6.49,-5.01 z"
     title="Radoviš"
     id="MK-64" />
  <path
     d="m 499.74957,16.011992 2.7,7.09 11.01,15.76 5.51,2.79 8.96,0 2.75,1.39 0,2.77 -1.38,3.25 -1.37,1.62 -0.35,8.1 3.44,7.64 0,5.32 0.69,3.7 1.72,2.78 0.69,2.78 -0.17,5.08 -2.93,2.78 -0.09,0.57 0,0 -3.17,1.16 -0.27,6.28 -0.55,1.3 -2.76,1.29 -3.85,0.929998 -3.03,1.48 -5.1,0.18 -10.47,-8.689998 -3.44,-4.44 -4.96,-2.59 -6.88,-0.37 -1.1,-1.85 -0.42,-6.48 -0.83,-0.92 -3.02,0 -4.74,-4.93 0,0 3.56,0.12 2.21,-0.37 1.38,-1.85 0,-2.6 -1.11,-2.96 -3.71,-6.11 -0.14,-10.93 -2.27,-4.26 -0.56,-2.78 1.11,-2.41 5.92,-0.93 2.06,-2.41 -0.69,-10.38 -1.07,-2.89 0,0 10.04,-3.44 z"
     title="Rankovce"
     id="MK-65" />
  <path
     d="m 177.47957,457.24199 0.37,-0.7 0.93,3.42 2.02,2.44 5.72,0.25 1.29,3.17 1.48,8.3 0,5.13 1.66,6.34 4.04,6.23 0,0 -0.12,2.19 2.77,3.05 0.69,3.65 -0.69,4.58 -3,5.18 -5.54,4.57 -1.15,3.95 0,4.57 2.08,2.44 5.3,0.91 1.34,1.1 0,3.65 0.73,3.41 1.48,2.93 4.61,5.11 0.74,2.43 0,3.17 2.21,1.94 12.73,-0.24 4.06,2.19 3.32,4.62 1.29,2.68 0,3.16 3.13,0.98 7.38,0.24 1.66,1.21 1.29,5.11 -0.37,5.11 3.14,1.94 0.74,1.95 -0.37,2.67 -1.11,2.43 -0.74,4.38 -1.48,5.16 0,0 -8.14,-5.96 -17.68,8.33 -13.02,2.53 -36.84,1.11 -2.53,-1.11 -0.42,-6.67 -1.19,-8.42 -1.65,-2.27 -4.05,-2.5 -1.36,-2.02 -2.27,-1.84 -6.63,-1.36 -6.7,2.75 -5.81,-1.16 -6.23,-2.99 -1.47,-0.15 -5.83,2.03 -5.69,5.35 -2.58,0.99 -1.84,0.09 0,0 4.5,-9.07 1.75,-1.75 -0.47,-2.47 0,-8.27 2.58,-9.97 3.51,-2.68 7.74,-0.73 2.4,-2.68 0.55,-8.03 -1.66,-3.9 -1.66,-1.95 -0.18,-5.85 1.48,-1.46 2.58,-1.22 0.55,-12.67 1.48,-8.53 2.21,-6.34 6.09,-7.81 3.5,-3.41 18.44,-10.74 6.46,-4.89 3.69,-4.15 z"
     title="Resen"
     id="MK-66" />
  <path
     d="m 464.10957,319.94199 0.4,12.69 -0.27,7.28 0,0 -0.97,1 -0.94,3.32 0.32,5.38 -0.78,6.62 -5.29,3.31 -1.25,1.65 -0.15,3.1 -1.56,0.62 -1.71,-0.62 -2.49,-2.06 -2.49,-1.25 -2.02,-0.82 -2.65,0 -1.4,1.45 -0.62,5.17 -2.18,1.65 -9.34,0.21 -2.02,0.62 -7.78,-0.62 -2.65,-2.9 -4.88,-7.05 0,0 0.52,-6.81 1.4,-5.83 0,0 0.16,-0.58 3.42,-2.9 4.98,-0.42 2.34,-2.68 0,-2.08 -1.09,-4.76 0,-3.73 0.93,-0.82 2.18,-0.21 2.49,0.83 1.56,1.45 4.51,2.28 4.67,0 1.71,-2.08 1.09,-3.1 1.87,-2.28 1.86,-1.45 3.58,0.83 1.87,1.65 4.36,0 0.78,-5.79 2.64,-1.66 2.49,0 z"
     title="Rosoman"
     id="MK-67" />
  <path
     d="m 234.61957,97.501992 3.53,6.989998 0.62,-0.01 0,0 0.74,7.56 2.09,5.32 2.8,1.56 3.26,-0.63 1.86,-2.18 2.33,-0.32 2.56,2.82 0.93,5.31 3.49,6.55 3.26,7.49 4.66,5.93 7.67,0.71 0,0 -0.19,13.53 0.58,1.28 0,0 -1.09,1.83 -6.86,0.33 -5.15,2.95 -5.89,4.6 -7.11,7.55 -3.92,2.95 -11.77,4.6 -1.47,2.95 -0.07,1 0,0 -2.97,-1.59 -3.92,-4.73 -1.96,-0.26 -2.36,-2.62 0,-3.94 0.79,-6.83 2.15,-10.77 0.2,-5.26 -0.98,-1.57 -8.04,-5.26 -3.73,-1.58 -3.14,-0.79 0.04,-0.41 0,0 0.16,-1.69 0.78,-0.79 1.57,-0.79 4.12,-0.79 5.69,-2.36 0,-3.16 -2.55,-4.73 -0.74,-3.16 0.25,-2.3 1.96,-2.31 2.94,-1.31 1.23,-1.65 0,-3.62 -1.23,-3.61 -1.71,0.32 -1.96,1.32 -2.21,0 -4.9,-5.27 1.22,-1.64 3.43,-1.65 15.45,-1.64 z"
     title="Saraj"
     id="MK-68" />
  <path
     d="m 476.68957,138.36199 -3.42,7.09 -0.69,4.38 0.86,3 4.13,3.92 8.26,5.77 6.03,11.76 1.89,1.84 2.76,0.69 1.2,0.92 0,4.38 -0.86,2.53 -1.55,1.16 -0.17,0.92 3.96,4.6 0,0.96 0,0 0,1.58 -0.86,1.61 -1.55,1.15 -1.89,0.69 -0.52,1.61 0.34,3 3.45,5.98 0.51,2.3 -0.34,2.53 -3.7,2.3 -2.24,3.92 -4.82,6.44 -1.89,3.22 -5.51,1.61 -1.04,1.15 -0.17,1.61 2.93,4.83 0.86,2.98 -0.17,2.76 -1.55,0.46 -1.04,2.76 1.04,1.15 1.55,0.69 0.69,2.99 -1.04,1.15 -1.72,0 -2.06,-0.92 -1.73,-2.53 -3.23,-2.39 0,0 -4.34,-2.9 -5.34,-4.6 -6.02,-6.2 -9.81,-12.65 -2.59,-2.07 -3.44,-0.69 -4.3,-1.84 -6.89,-8.98 -3.01,-1.15 -4.37,-0.3 0,0 -10.61,-13.28 -3.27,-12.67 0.03,-5.19 0,0 0.14,-4.49 1.68,-5.62 1.09,-2.24 0,0 0.43,-0.89 2.34,-1.66 0.96,-2.21 2.48,-2.03 1.52,-2.03 0,-2.96 0.69,-2.76 1.65,-2.22 6.47,-5.72 3.72,-0.74 4.54,-0.19 4.13,1.11 3.17,3.51 1.93,3.88 1.79,1.84 3.31,-0.18 4.4,-2.4 5.51,-2.03 2.89,-2.22 0.58,-3.55 0,0 5.7,0 4.24,-0.87 z"
     title="Sveti Nikole"
     id="MK-69" />
  <path
     d="m 274.80957,159.41199 0.55,1.23 20.28,0 0,0 2.63,0 1.88,1.01 0,5.03 1.22,2.06 0,0 -0.11,4.86 -2.15,10.24 -12.56,0.79 -4.7,-2.36 -3.14,-0.79 -4.12,0 -4.71,1.31 -2.16,2.36 0,5.25 1.38,3.68 3.72,0 4.12,1.31 2.36,0.26 1.57,1.58 -0.4,2.1 -2.74,0 -3.14,2.36 -1.18,3.41 -1.76,7.86 -0.59,4.46 -1.18,0.79 -1.96,0 -1.18,1.31 -0.39,3.14 1.37,1.57 2.75,1.05 1.34,3.91 -2.3,4.09 -1.15,6.14 0,4.61 1.53,4.6 0.84,0.28 0,0 -1.91,1.5 -4.91,-0.65 -5.88,-5.24 -4.66,-9.17 -5.64,-7.86 -4.41,-7.21 -6.81,-7.55 0,0 -0.3,-0.31 1.72,-5.25 0.73,-10.16 -5.15,-3.61 -2.21,-2.95 0.18,-2.28 0,0 0.07,-1 1.47,-2.95 11.77,-4.6 3.92,-2.95 7.11,-7.55 5.89,-4.6 5.15,-2.95 6.86,-0.33 z"
     title="Sopište"
     id="MK-70" />
  <path
     d="m 467.51957,14.311992 7.73,7.48 5.56,-0.01 2.22,-0.76 0,0 1.07,2.89 0.69,10.38 -2.06,2.41 -5.92,0.93 -1.11,2.41 0.56,2.78 2.27,4.26 0.14,10.93 3.71,6.11 1.11,2.96 0,2.6 -1.38,1.85 -2.21,0.37 -3.56,-0.12 0,0 -8.42,-0.44 -1.51,1.11 0.27,7.04 -0.27,7.03 -2.89,5.73 -3.03,4.62 -3.58,1.3 -3.86,0.18 -0.31,0.4 0,0 -3.43,-10.2 -2.1,-0.99 -2.62,0.29 -1.69,1.12 -0.83,4.1 -1.37,1.69 -0.94,0.28 -2.53,-0.14 -8.29,-2.68 -2.73,-2.82 -2,-0.14 -3.57,0.7 -2.42,0.85 -2.1,1.69 -2.83,0.57 -3.05,1.55 -1.47,2.25 -2.41,0 -2.42,-0.98 -5.04,-6.07 -2.73,-4.09 -1.05,-3.25 -0.32,-6.63 0.53,-4.38 1.99,-3.67 -0.1,-8.04 -1.79,-2.97 0.11,-3.25 0.63,-2.12 6.3,-2.26 0.63,-1.98 -0.1,-3.39 -2,-2.4 -7.35,-2.69 -0.55,-1.13 0,0 6.3,-0.39 6.73,-1.17 1.05,-6.08 -0.13,-5.72 0.52,-3.39 8.16,-7.93 5.46,-0.35 9.16,11.98 21.3,-16.8199997 9.58,6.4199997 z"
     title="Staro Nagoričane"
     id="MK-71" />
  <path
     d="m 70.609572,372.38199 12.59,24.77 1.22,9.97 0,9.43 7.91,12.11 0.41,3.5 -1.02,8.87 -2.23,7.26 -4.67,5.92 -1.01,2.96 0,2.68 0.61,2.96 2.63,2.96 -0.81,6.18 0.72,1.76 0,0 -1.05,1.83 0,0 -13.67,-1.18 -6.9,0.27 -2.85,2.69 -6.09,16.65 -1.82,8.58 -0.23,5.55 0,0 -10.18,-2.63 -1.09,-1.54 -2.3,-4.18 -0.32,-3.86 0.81,-2.01 2.38,-2.45 -0.53,-2.55 -2.47,-6.28 -7.19,-12.4 -2.04,-5.02 -2.58,0.2 -2.04,-1.13 -1.13,-1.86 -4.7,-12.56 0,0 3.26,0 7.69,2.32 7.02,-0.58 5.49,-3.78 7.25,0 3.51,-2.03 2.2,-2.33 0,-2.91 -0.44,-2.04 -2.2,-2.04 -2.41,0 -2.86,0.59 -4.61,4.07 -4.61,-0.29 -3.07,-1.46 -3.52,-0.29 -9.44,0.29 -4.31,1.56 0,0 -1.38,-1.63 -0.94,-3.68 0.86,-5.07 -4.75,-17.81 -1.49,-2.16 -0.05,-4.54 1.39,-2.71 0.97,-0.08 1.81,2.14 1.34,0.54 2.29,0.14 1.53,-1.09 1.69,-3.06 0.19,-1.64 2.42,-2.14 0.99,-3.65 1.21,-1.07 1.56,-4.68 1.91,-8.98 0,0 18.03,0.16 8.73,0.54 4.26,-2.42 5.39,-6.79 0,0 0.91,-1.03 1.05,1.26 0,0 z"
     title="Struga"
     id="MK-72" />
  <path
     d="m 623.68957,354.62199 0.42,0.37 3.17,-3.64 1.74,-2.31 1.87,-3.84 3.03,-0.38 3.47,1.92 2.02,0 2.45,1.92 3.61,1.73 6.2,8.05 8.8,0.2 4.77,-1.92 3.03,-0.58 3.75,-3.07 1.87,-0.97 0,0 3.68,3.85 2.31,7.86 -0.14,2.11 -2.31,4.99 0,2.3 2.89,0.96 1.3,1.34 1.58,0 1.88,-1.72 4.47,-0.39 1.16,1.54 1.01,5.17 0.86,1.34 1.88,1.73 2.45,1.34 2.6,0.38 4.62,-2.11 3.75,-0.19 0,0 0,0.77 2.02,1.91 0.29,20.12 0.55,0.79 0,0 -2.03,2.04 -6.27,1.32 -1.44,3.5 0,0 -6.11,-4.01 -10.96,-5.75 -3.61,-0.96 -2.02,0.58 -2.17,1.34 -3.32,7.85 -2.88,3.25 -1.59,0 -1.01,-1.53 -2.02,-0.19 -1.59,0.96 -1.15,1.91 -2.02,0.77 -6.21,0 -2.31,-0.77 0,-2.68 -5.48,-5.17 -2.02,-0.19 -3.47,1.34 -9.09,0 -0.43,-5.93 -5.48,-9.96 0,-1.73 1.15,-3.06 2.31,-2.88 1.16,-2.68 0,-1.92 -1.45,-2.3 -1.59,-1.34 -2.88,-0.38 -5.92,0.19 -3.75,-1.72 -6.06,-6.14 -4.62,-5.94 0.09,-1.07 0,0 0.06,-0.66 2.02,-2.11 4.32,-2.11 3.61,-1.15 2.17,0 1.58,1.15 3.61,0.58 1.44,-1.35 z"
     title="Strumica"
     id="MK-73" />
  <path
     d="m 339.21957,174.97199 -0.92,1.06 -0.67,2.45 0.67,2.22 1.82,0.44 3.46,0.04 0,0 -1.27,2.29 -3.86,1.24 -5.98,4.45 -4,2.14 -0.79,5.7 -2,3.91 -2.26,1.96 -1.46,2.13 -0.67,6.23 -1.33,1.6 -2.79,0.17 -1.73,-0.35 -0.8,-1.07 -0.14,-2.84 -0.53,-1.6 -2.26,-0.18 -2.53,2.84 -1.99,4.45 0.4,8.54 1.06,2.84 3.73,4.8 1.19,2.84 -1.59,5.33 0.21,3.59 0,0 -8.56,2.66 -3.19,2.62 -5.39,11.12 -2.21,2.29 -3.43,1.31 -1.47,2.29 -2.39,10.55 0,0 -0.34,1.2 -2.68,-2.55 -3.45,-7.16 0,-13.8 -2.68,-3.07 -3.45,0 -2.22,-0.74 0,0 -0.84,-0.28 -1.53,-4.6 0,-4.61 1.15,-6.14 2.3,-4.09 -1.34,-3.91 -2.75,-1.05 -1.37,-1.57 0.39,-3.14 1.18,-1.31 1.96,0 1.18,-0.79 0.59,-4.46 1.76,-7.86 1.18,-3.41 3.14,-2.36 2.74,0 0.4,-2.1 -1.57,-1.58 -2.36,-0.26 -4.12,-1.31 -3.72,0 -1.38,-3.68 0,-5.25 2.16,-2.36 4.71,-1.31 4.12,0 3.14,0.79 4.7,2.36 12.56,-0.79 2.15,-10.24 0.11,-4.86 0,0 0.28,0.45 3.38,0 2.63,-1.51 3,0 2.79,3.2 0,8.83 0.69,1.84 3.74,1.45 2.26,-1.05 1.19,-2.11 1.47,-4.74 1.48,-1.71 4.03,-1.89 0,0 5.51,-3.73 0,0 1.78,0.47 z"
     title="Studeničani"
     id="MK-74" />
  <path
     d="m 177.06957,72.421992 8.24,7.58 4.51,5.46 4.06,5.76 2.71,5.45 2.49,1.52 2.93,0.6 2.26,1.519998 1.13,3.64 -0.45,4.54 -3.16,3.94 -2.71,2.12 -3.39,6.06 -2.03,4.84 -4.74,2.43 -13.55,2.72 -1.12,1.21 0.22,0.99 0,0 -3.07,-0.77 -2.64,-1.63 -0.81,-1.63 0,-5.45 0.81,-2.99 -1.22,-2.45 -2.23,-3 -2.64,-1.09 -1.83,0 -2.64,-0.82 -2.64,-7.35 -2.43,-4.91 -2.64,-2.999998 -6.7,-4.08 -8.38,-3.06 0,0 4.2,-3.25 13.47,-1.59 5.88,-1.37 2.96,-4.77 8.35,-1.97 z"
     title="Tearce"
     id="MK-75" />
  <path
     d="m 135.40957,90.571992 8.38,3.06 6.7,4.08 2.64,2.999998 2.43,4.91 2.64,7.35 2.64,0.82 1.83,0 2.64,1.09 2.23,3 1.22,2.45 -0.81,2.99 0,5.45 0.81,1.63 2.64,1.63 3.07,0.77 0,0 0.6,2.6 0,0 -1.85,0.44 -3.24,4.63 0,1.09 1.21,1.36 2.64,0.82 0.61,1.9 1.42,2.18 3.25,1.08 1.01,0.82 -0.2,2.99 -6.09,1.91 -2.2,3.05 0,0 -5.51,-0.88 -6.29,-4.62 -1.83,-0.27 -1.83,1.08 -2.23,4.9 -1.19,-0.13 0,0 -1.25,-0.14 -7.3,-8.71 -2.85,-1.63 -17.45,-4.08 -4.67,0.27 -3.45,2.18 -3.05,2.99 -3.65,2.72 -5.28,1.91 -4.669998,2.45 -3.45,3.53 -4.65,2.19 0,0 0.15,-3.51 -5.81,-9.49 -0.84,-5.86 1.94,-5.41 -0.2,-8.41 15.629998,-19.83 9.96,-7.99 10.71,0.88 5.49,-0.69 4.14,-5.239998 z"
     title="Tetovo"
     id="MK-76" />
  <path
     d="m 295.33957,140.76199 -0.08,3.06 2.45,-0.24 0.92,1.85 0,0 -1.86,3.64 0.69,0.82 0,0 -1.46,1.83 0,0 -1.2,0.38 0.14,2.67 -0.85,1.72 -1.57,0 -2.99,-3.43 -1,-2.1 0.43,-4.2 0.71,-0.96 0.72,-2.48 3.27,-2.29 z"
     title="Centar"
     id="MK-77" />
  <path
     d="m 15.869572,345.89199 1.34,-1.24 6.98,-3.38 6.66,-4.22 3.48,-5.91 7.3,0 5.39,0.85 3.49,5.06 1.9,7.6 3.18,2.95 3.48,0 2.22,7.17 0,11.8 4.76,0.85 1.83,3.81 0,0 -5.39,6.79 -4.26,2.42 -8.73,-0.54 -18.03,-0.16 0,0 1.43,-1.68 -1.16,-2.19 -3.18,-3.01 -1.91,-3.42 -8.23,-4.88 -3,-12.46 -1.7,-4.75 z"
     title="Centar Župa"
     id="MK-78" />
  <path
     d="m 300.89957,139.61199 -0.45,5.82 0,0 -0.68,-0.38 -1.14,0.38 0,0 -0.92,-1.85 -2.45,0.24 0.08,-3.06 0,0 0.15,-3.51 0,0 0.03,-1.15 0,0 z"
     title=" Čair"
     id="MK-79" />
  <path
     d="m 312.18957,242.19199 1.78,1.74 22.62,-0.71 2.29,0.68 0,0 -0.3,0.92 1.87,2.66 4.79,9.95 1.59,1.24 1.73,0 2.4,-1.96 1.59,0 1.73,0.36 4.79,2.31 7.05,0.89 3.2,1.59 1.86,4.44 1.06,6.74 2.53,3.91 0.8,3.37 -0.13,2.3 0.53,2.31 1.59,2.48 1.6,0.18 1.6,-0.71 3.72,-3.55 1.46,-0.35 1.07,1.59 0.8,10.29 2.66,3.01 6.92,1.77 2.96,0.32 0,0 -0.49,7.86 1.86,2.65 7.31,5.13 1.2,2.48 0,3.89 -1.33,3.01 -4.12,4.59 -0.66,7.96 0.93,3.53 8.26,4.99 0,0 -1.4,5.83 -0.52,6.81 0,0 -1.65,-2.05 -3.58,-0.62 -1.87,1.86 -1.71,3.31 -2.65,3.1 0,0.53 0,0 -1.62,-1.26 -2.54,-5.36 -8.06,-3.97 -1.19,-1.98 -1.64,-0.6 -2.09,0 -3.88,2.38 -7.91,0.6 -0.89,0.6 -0.9,1.58 -0.45,7.94 -2.24,4.75 -1.64,0.8 -2.83,0.79 -2.84,-0.2 -0.6,-2.18 -1.64,-2.58 -2.24,-1.58 -6.21,-0.6 0,0 -0.35,-1.58 -1.94,-2.98 -2.84,-2.38 -10.89,-2.78 -1.94,-0.99 -1.05,-1.59 -2.23,-7.74 -2.09,-0.59 -1.94,0.2 -1.79,1.39 -7.76,0.19 -3.14,-1.58 -2.09,-2.38 -1.94,-3.58 -0.44,-9.53 -0.75,-4.77 -1.49,-3.77 -3.29,-1.19 -1.64,-1.4 -1.49,-2.77 -0.89,-3.38 -2.54,-2.79 -12.24,-4.37 -2.56,0 0,0 0.41,-10.02 -1.23,-3.26 0.24,-2.62 5.4,-6.21 1.96,-3.59 -0.43,-2.86 0,0 2.39,-10.55 1.47,-2.29 3.43,-1.31 2.21,-2.29 5.39,-11.12 3.19,-2.62 z"
     title="Čaška"
     id="MK-80" />
  <path
     d="m 546.98957,159.49199 1.3,3.78 3.89,4.88 4.64,3.19 11.8,-0.34 0.75,1.01 0,3.03 -1,0.67 -0.76,1.85 0.26,9.57 1.88,3.86 1.5,6.04 1.76,0.84 1.38,0 1.63,2.19 1.36,0.67 0,0 0.08,5.37 0.76,3.35 3.01,2.86 3.39,4.36 3.26,6.21 0,0 -0.99,1.44 -6.39,-0.52 -6.65,-6.66 -3.45,-0.17 -3.59,0.51 -11.89,-2.05 -7.93,-5.81 -6.65,-6.16 -3.02,-3.73 0,0 -6.82,-8.41 -3.84,-5.65 -0.38,-2.91 0.89,-2.05 1.28,-0.69 1.66,0 2.18,-2.56 2.17,-1.72 2.69,-1.37 1.66,-2.91 1.28,-6.67 2.3,-4.46 2.05,-1.54 1.15,-0.17 z"
     title="Češinovo-Obleševo"
     id="MK-81" />
  <path
     d="m 311.29957,49.041992 0.59,2.93 3.2,5.45 3.41,4.01 2.56,0.86 1.06,2.29 0,5.45 -0.85,5.44 -2.77,2.58 -5.33,2.58 0,0 -1.76,-0.59 -4.5,1.51 -2.63,6.56 -4.51,8.07 -1.5,5.549998 -0.75,9.07 0.75,14.11 -2.63,1 -0.49,0.88 -1.16,-1.23 0,0 -3.26,-6.33 -2.33,-2.19 -2.56,0.63 -2.1,2.19 -0.23,6.87 0.93,0.93 2.56,0.32 1.86,2.18 0.7,2.5 1.86,2.5 2.1,0.31 1.33,-1.15 0,0 0.67,1.78 0,0 -0.03,1.15 0,0 -1.5,1.34 -2.57,0 -4.65,-1.25 -3.49,-4.06 -1.87,-3.74 -3.26,-2.5 -3.54,-0.46 0,0 0,-5.7 -5.26,-11.59 -9.24,-9.07 0,0 0.58,-1.299998 -3.49,-6.25 -0.7,-3.75 3.03,-5.64 3.26,-7.82 0.31,-3.63 5.05,-4.02 6.43,-3.83 4.78,-4.56 2.7,-4.35 1.44,-7.15 5.6,0 2.79,1.56 2.33,0.63 3.72,-0.32 1.4,-1.87 5.12,-0.94 3.73,1.87 z"
     title="Čučer Sandevo"
     id="MK-82" />
  <path
     d="m 499.08957,192.28199 1.6,-0.49 4.52,0.26 3.73,1.58 2.76,-0.79 1.17,0.79 0.99,1.85 0,0 -4.85,4.22 -2.55,5.3 0,5.64 0.89,7.01 2.05,5.98 2.55,3.93 3.46,0.69 6.01,0.17 4.47,0.68 4.35,2.73 5.5,4.96 3.84,4.44 6.01,1.02 6.13,5.29 4.48,4.61 3.45,4.61 6.4,0 8.05,-1.7 6.53,-0.52 4.41,-1.53 4.35,0.17 1.53,1.92 0,0 -5.05,8.21 -4.62,9.82 -2.31,0.39 -3.32,-0.2 -6.06,-2.11 -4.04,-2.89 -1.88,0.39 -5.05,5.19 -1.01,2.31 3.03,8.08 1.16,1.54 0.57,3.27 0,7.12 1.45,2.88 3.55,2.14 0,0 -1.32,2.47 -3.46,3.27 -7.22,8.07 -7.21,6.15 -0.29,1.92 0.34,0.42 0,0 -2.35,0.49 -5.73,0.16 -5.35,-1.49 -7.72,-5.3 -3.36,-1.49 -2.37,-1.49 -0.12,-5.81 -0.87,-2.65 -4.86,-1.66 -8.21,-0.5 -2.49,0.67 -1.87,-1.5 -1.37,-3.81 -0.37,-4.48 -1.12,-4.64 -1.13,-2.83 -2.61,-3.31 -2.12,0.33 -2.49,5.47 -0.99,1.33 -1.5,0.66 -1.49,0 -2.49,-2.82 -3.36,-5.47 -2.99,-1.16 -2.86,-0.17 -3.55,-2.98 0,0 -5.79,-3.66 -3.11,-0.33 -5.23,0.5 -0.94,-0.76 0,0 -0.31,-0.24 -0.12,-4.48 -6.1,-5.15 -0.87,-1.66 1.12,-5.15 2.99,-3.49 1.24,-2.82 1.87,-1 1.62,0 1.62,1 2.24,2.15 0.99,1.67 1.74,1.33 1.13,-0.34 1.12,-3.49 4.35,-0.5 0.5,-0.99 0,-1.66 -1.12,-1.17 0,-1.33 2.01,-0.61 0,0 3.23,2.39 1.73,2.53 2.06,0.92 1.72,0 1.04,-1.15 -0.69,-2.99 -1.55,-0.69 -1.04,-1.15 1.04,-2.76 1.55,-0.46 0.17,-2.76 -0.86,-2.98 -2.93,-4.83 0.17,-1.61 1.04,-1.15 5.51,-1.61 1.89,-3.22 4.82,-6.44 2.24,-3.92 3.7,-2.3 0.34,-2.53 -0.51,-2.3 -3.45,-5.98 -0.34,-3 0.52,-1.61 1.89,-0.69 1.55,-1.15 0.86,-1.61 z"
     title="Štip"
     id="MK-83" />
  <path
     d="m 294.84957,134.32199 -1.33,1.15 -2.1,-0.31 -1.86,-2.5 -0.7,-2.5 -1.86,-2.18 -2.56,-0.32 -0.93,-0.93 0.23,-6.87 2.1,-2.19 2.56,-0.63 2.33,2.19 3.26,6.33 0,0 -0.33,-0.36 0.21,5.17 z"
     title="Šuto Orizari"
     id="MK-84" />
  <path
     d="m 693.45957,474.76199 -0.37,1.79 0,0 -5.81,-5.55 -4.86,-9.22 -1.44,-5.56 0.34,-3.51 0.88,-2.2 2.54,-3.8 3.76,-2.64 6.52,-0.44 2.54,1.03 0.98,1.05 0,0 -1.84,23.33 z"
     title="Lake Dojran"
     id="MK-LKD" />
  <path
     d="m 85.909572,475.54199 1.55,2.32 3.65,1.88 3.05,9.66 3.04,4.57 2.64,2.14 3.249998,0.81 3.86,2.95 -0.81,6.71 0,4.29 0.4,15.02 0.81,7.24 -0.2,8.04 -3.45,10.71 -4.869998,8.84 -3.45,11.51 -6.3,3.75 -2.61,2.23 0,0 -2.9,-8.42 -6.93,-23.52 -6.71,-24.69 -3.48,-8.95 -1.15,-2.18 -10.95,-2.35 0,0 0.23,-5.55 1.82,-8.58 6.09,-16.65 2.85,-2.69 6.9,-0.27 z"
     title="Lake Ohrid"
     id="MK-LKO" />
</svg>
