<?xml version="1.0" encoding="UTF-8" standalone="no"?>
<!-- Created for MapSVG plugin: http://mapsvg.com -->
<svg
   xmlns:mapsvg="http://mapsvg.com"
   xmlns:dc="http://purl.org/dc/elements/1.1/"
   xmlns:rdf="http://www.w3.org/1999/02/22-rdf-syntax-ns#"
   xmlns:svg="http://www.w3.org/2000/svg"
   xmlns="http://www.w3.org/2000/svg"
   mapsvg:geoViewBox="18.438402 43.565072 20.376798 41.848772"
   width="612.50226"
   height="735.39343">
  
  <path
     d="m 463.88215,377.57756 -0.47,0.23 0,0 -11.27,4.34 -7.37,7.37 -6.51,7.37 -2.6,6.94 -1.3,8.24 -9.97,2.6 -3.5,2.41 0,0 -1.74,-1.79 -1.55,-3.85 -1.8,-0.94 -0.48,-0.64 0.07,-1.92 -0.89,-2.23 -0.12,-1.37 0.25,-0.68 1.89,-2.05 0.16,-0.77 -0.28,-0.86 -1.74,-1.2 -2.49,-0.34 -0.38,-0.3 -1.36,-2.09 -1.64,-4.41 -1.55,-1.28 -1.36,-0.09 -0.82,0.26 -3.06,1.97 -1.9,0.25 -0.31,0.69 -1.39,1.45 0.06,2.44 -3.54,3.34 -1.95,3.03 -0.6,0.34 -0.98,0.13 -2.53,-1.02 -1.1,0.08 -0.48,0.26 -2.11,2.75 0,0 -3.88,-6.7 -4.34,-12.58 0,0 -2.1,-2.91 0,0 5.14,-2.12 3.03,-4.33 0,-6.51 4.34,-2.17 1.3,-6.93 -3.47,-2.6 -0.87,-9.54 2.6,-5.21 0.44,-5.2 -6.51,-4.77 -4.77,-5.64 -1.3,-6.5 5.64,-6.07 0,0 6.59,-1.94 0,0 5.72,3.02 7.38,4.77 20.81,12.14 7.81,3.9 7.8,2.61 9.11,0.86 3.9,-3.47 4.33,0.44 -0.43,6.07 -2.6,3.9 -5.2,4.34 0,5.2 3.9,5.2 3.03,6.07 5.64,4.34 z"
     title="Andrijevica"
     id="ME-01" />
  <path
     d="m 206.30215,540.47756 -0.19,0.2 0,0 4.33,4.77 3.04,3.9 1.3,4.77 0.43,8.67 1.74,6.07 3.03,3.47 5.21,1.31 6.5,0.86 6.5,0 3.04,1.3 3.03,6.94 2.17,8.24 2.6,8.67 5.64,4.34 3.04,6.5 13,4.34 8.24,10.84 4.34,3.47 4,2.61 0,0 -0.1,-0.01 0,0 -3.47,5.2 -4.33,3.04 -6.94,-1.3 -3.04,1.3 -4.33,0 -5.64,-3.9 -2.17,-4.34 -3.47,-2.17 -3.9,2.6 -1.73,1.74 0,4.33 2.16,0.44 3.47,1.3 0.87,1.73 -1.3,3.47 -2.17,4.34 -0.43,3.9 2.6,2.17 1.73,3.47 3.04,0.86 0.87,6.08 0.86,2.6 -1.73,3.9 -4.34,1.73 -4.77,-0.86 -9.97,-4.77 -4.34,-2.6 -5.63,0 -4.25,0.56 0,0 0.19,-0.18 -0.1,-1.27 -0.82,-0.3 -0.79,-0.8 -0.79,-0.21 0.1,-0.98 1.39,-0.42 0.31,-2.79 -2.62,-1.66 0,-0.29 0.79,-0.77 -0.03,-0.38 -0.5,-0.59 0,-0.25 0.44,-0.22 -0.16,-0.67 0.41,-0.47 -0.54,-1.44 -1.35,-1.31 -0.67,-0.17 -0.79,-0.6 -6.91,-5.93 -1.83,-0.76 -2.37,-2.25 -2.24,-1.14 -1.77,-1.66 0.03,-0.21 0.57,0 -0.03,-0.25 -1.68,-1.02 -1.83,-1.52 -1.39,-1.66 -0.16,-0.97 1.77,-0.13 0.57,0.59 2.46,0.64 0.35,-0.25 -0.03,-0.39 -0.79,-0.76 0,-0.3 0.28,-0.08 0.7,0.59 0.41,0 -0.1,-0.76 -0.5,-0.17 -0.13,-0.34 0.1,-0.51 0.28,-0.08 0.54,0.38 0.63,-0.89 0.09,-1.7 -1.04,-3.14 -1.01,-1.99 -0.88,-1.06 -3.92,-2.8 -0.57,-0.63 -2.08,-0.47 0.63,-1.06 0.06,-0.68 -1.13,-3.01 -2.72,-1.62 -0.79,0 -0.69,0.47 -3.82,-0.42 -1.71,0.17 -0.95,0.42 -0.47,-1.61 -0.38,-0.42 -0.63,0 -1.07,0.33 -1.24,2.08 -0.5,0.64 -0.32,0.04 -3,-6.45 0.19,-1.99 0.51,-0.98 -0.07,-0.59 -0.91,-0.98 -0.88,-1.54 0,0 3.15,-6.65 2.17,-3.91 3.9,-3.9 -2.6,-6.94 -3.9,-5.2 -5.64,-5.2 -5.64,-4.77 -2.17,-8.24 -1.3,-1.74 -0.87,-3.9 -2.16,-4.77 0,0 4.77,-0.87 0,0 6.07,1.74 4.77,2.17 2.6,3.9 8.24,0.87 5.63,-2.61 0.87,-3.46 -2.6,-4.34 -1.3,-3.47 1.73,-3.47 6.07,-0.87 5.21,2.17 z"
     title="Bar"
     id="ME-02" />
  <path
     d="m 463.88215,377.57756 -5.67,-3.67 -5.64,-4.34 -3.03,-6.07 -3.9,-5.2 0,-5.2 5.2,-4.34 2.6,-3.9 0.43,-6.07 -4.33,-0.44 -3.9,3.47 -9.11,-0.86 -7.8,-2.61 -7.81,-3.9 -20.81,-12.14 -7.38,-4.77 -5.72,-3.02 0,0 0.78,-0.23 0,0 -3.9,-12.58 1.3,-10.4 0,0 -0.9,0.1 0,0 8.7,-8.34 0,0 1.59,-2.11 0,0 7.69,0.81 8.68,-2.61 7.8,-3.46 4.77,-4.77 4.34,-5.21 6.94,-2.6 3.9,1.74 2.6,3.03 4.77,1.3 6.5,1.3 7.37,-1.3 5.21,-4.33 6.07,-2.6 7.8,-1.74 6.51,-2.6 4.33,-4.77 4.34,-1.74 8.67,-0.86 6.07,-3.04 4.77,-2.6 4.96,-6.82 0,0 1.18,1.1 3.6,1.03 2.08,1.12 4.65,4.69 3.53,4 3.13,2.15 1.93,0.04 2.21,-0.68 4.51,-3.02 1.61,-0.17 0,0 -0.87,12.17 -5.63,8.24 -1.74,9.1 -9.97,9.54 -0.87,9.98 -3.03,9.97 -7.81,6.51 -6.94,8.67 2.61,13.87 1.79,3.39 0,0 -0.44,0.33 -0.95,2.14 -0.06,1.72 -0.32,1.67 -0.47,1.16 -1.33,2.01 -2.11,2.4 -0.64,1.03 -0.09,1.03 0.32,1.28 1.26,2.32 0.76,2.18 1.2,4.76 0.6,0.85 0.98,2.49 0.66,0.68 3,0.94 1.36,1.2 0.81,1.28 0,0 -14.57,2.65 -13.01,1.3 -9.97,-0.87 -11.28,0 0,0 z"
     title="Berane"
     id="ME-03" />
  <path
     d="m 518.67215,238.08756 -4.96,6.82 -4.77,2.6 -6.07,3.04 -8.67,0.86 -4.34,1.74 -4.33,4.77 -6.51,2.6 -7.8,1.74 -6.07,2.6 -5.21,4.33 -7.37,1.3 -6.5,-1.3 -4.77,-1.3 -2.6,-3.03 -3.9,-1.74 -6.94,2.6 -4.34,5.21 -4.77,4.77 -7.8,3.46 -8.68,2.61 -7.69,-0.81 0,0 1.02,-1.36 0,0 -12.14,-9.11 -2.61,-3.9 4.77,-9.1 0,-6.94 -5.2,-6.94 -7.37,-4.77 -6.07,-0.87 -11.71,-0.86 -7.37,-2.17 -9.11,-5.64 -4.33,-3.04 -9.11,-0.86 -7.8,-3.47 0,0 -0.53,0.16 0,0 2.26,-7.1 -0.43,-9.97 3.46,-5.21 4.77,-3.9 7.38,0 2.6,-5.2 0.43,-6.51 4.34,-2.6 2.6,-3.03 0,-5.64 -2.6,-4.34 0,-3.9 5.2,-3.03 3.04,-5.64 3.9,-2.17 2.17,-14.74 -3.47,-5.64 0.83,-4.16 0,0 7.48,4.32 6.91,4.8 2.28,1.04 2.62,1.55 1.2,1.38 5.65,11.96 1.77,3.28 1.07,1 4.17,2.37 3.16,2.29 3.6,2.2 4.99,1.51 3.41,0.43 2.34,1.04 4.38,1.16 2.85,1.51 1.99,1.9 0.6,0 0.82,-0.34 1.23,-6.61 0.88,-1.12 1.65,-1.12 1.95,0.73 1.83,1.82 1.65,3.1 0.09,4.36 0.25,0.99 3.79,6.82 0.7,2.84 0.69,5.48 0.51,0.56 1.67,0.3 8.5,0.43 0.72,0.26 3.07,4.23 0.56,0.69 0.41,0.12 0.48,-0.04 0.41,-0.34 1.64,-2.2 0.63,-0.48 0.76,-0.04 1.14,0.43 3.31,2.98 1.01,0.56 7.05,0.99 4.23,0 5.46,-0.52 2.59,-0.77 2.15,-2.2 1.64,-2.29 1.48,-1.33 1.74,-0.52 1.23,0.04 0.82,0.78 2.56,7.2 1.71,2.5 0.94,2.97 1.33,1.25 1.23,0.56 2.72,4.78 10.17,11.46 2.78,3.53 2.05,1.94 5.3,4.26 z"
     title="Bijelo Polje"
     id="ME-04" />
  <path
     d="m 163.00215,546.54756 -1.12,0.2 0,0 2.16,4.77 0.87,3.9 1.3,1.74 2.17,8.24 5.64,4.77 5.64,5.2 3.9,5.2 2.6,6.94 -3.9,3.9 -2.17,3.91 -3.15,6.65 0,0 -0.42,-0.03 -0.44,0.85 -1.07,0.21 -0.44,-1.74 -0.54,-0.17 -0.7,0.51 -0.18,-1.44 -2.47,-1.23 -2.84,-2.17 -0.38,-0.68 -0.16,-0.93 1.36,-2.38 0.1,-1.19 -1.01,-1.87 -1.84,-1.86 -0.91,-0.39 -1.14,0.6 -1.07,-0.43 -0.44,-0.46 0.03,-1.53 -1.42,0.04 -0.92,-0.77 -0.32,-0.93 -0.66,-0.55 -1.1,0.21 -2.25,-0.81 -0.63,0.3 -0.31,-0.08 -0.23,-1.7 -0.41,-0.73 -0.34,-0.21 -1.2,0.04 -3.82,-3.01 -0.73,-1.45 0.22,-1.31 -0.44,-1.24 0.03,-0.97 -1.1,-1.74 -0.38,0.46 -0.22,-0.08 0,-1.07 -0.8,0 -0.47,-0.63 0.22,-0.64 0.7,-0.77 -0.03,-0.93 -0.76,-1.4 0.5,-1.49 -0.63,-1.7 -0.88,-0.89 0.28,-0.81 -0.76,-2.85 0.1,-1.02 -0.7,-0.55 -0.31,-1.41 -0.7,-0.72 -1.61,-0.21 0.19,-1.74 -0.19,-0.35 -1.8,-0.21 -2.49,0.09 -1.61,0.59 -0.41,1.28 -0.92,-1.11 -0.35,-1.06 -1.42,-1.57 -2.14,0.04 -2.28,1.27 0,0.81 0.57,0.68 -0.32,0.47 -0.34,0.17 -0.86,-0.08 -1.16,0.68 -0.6,0.76 -1.46,-1.27 -2.24,-0.43 -0.09,-1.49 -0.56,-0.44 0,0 0,-4.36 -1.3,-1.3 0.43,-2.6 3.47,-7.37 -3.47,-3.04 -1.3,-2.6 -1.3,-3.9 1.73,-3.04 0,0 4.34,-2.17 0,0 3.9,0.87 3.9,3.47 5.64,1.73 5.2,1.31 6.07,2.6 3.91,0 5.2,1.3 3.04,6.07 2.6,6.5 z"
     title="Budva"
     id="ME-05" />
  <path
     d="m 227.79215,527.84756 0,-1.05 0,0 -3.04,-0.86 -5.64,-3.04 -3.46,2.17 -5.21,-1.73 -3.47,-3.47 -3.47,0 -2.16,4.77 2.6,3.47 3.03,4.76 0.87,2.17 0,3.91 0,0 -1.54,1.53 0,0 -2.36,-1.97 -5.21,-2.17 -6.07,0.87 -1.73,3.47 1.3,3.47 2.6,4.34 -0.87,3.46 -5.63,2.61 -8.24,-0.87 -2.6,-3.9 -4.77,-2.17 -6.07,-1.74 0,0 -3.65,0.67 0,0 -1.12,-1.97 -2.6,-6.5 -3.04,-6.07 -5.2,-1.3 -3.91,0 -6.07,-2.6 -5.2,-1.31 -5.64,-1.73 -3.9,-3.47 -3.9,-0.87 0,0 -3.13,1.57 0,0 -0.77,-3.08 -0.44,-11.71 -4.33,-4.34 -3.47,-3.9 -2.61,-4.77 0.87,-4.77 3.47,-4.34 0.43,-6.93 -1.73,-12.58 -2.17,-7.37 -6.07,-6.5 -6.070003,-2.17 -5.2,-6.94 -2.6,-5.64 -2.61,-7.8 -5.63,-6.94 -4.34,-4.77 0,0 -4.04,-12.11 0,0 6.21,-1.33 5.2,-3.04 0,-17.78 6.51,-5.2 2.16,-2.17 0.44,-4.33 0,-4.77 5.64,0 13.000003,8.67 16.05,-0.43 6.07,3.9 8.24,9.97 8.24,4.34 5.2,3.47 3.9,4.33 0,0 2.17,8.68 0,0 -0.87,7.37 6.94,1.73 4.77,3.47 3.47,8.24 4.77,2.17 4.77,4.77 -1.3,3.46 -7.37,3.91 0,9.1 0,0 -8.24,3.04 0,0 0.43,3.9 6.51,1.74 3.03,1.3 3.04,0.86 5.63,6.07 2.6,5.21 7.38,5.2 3.9,1.3 2.6,5.21 3.04,7.37 4.33,5.2 6.51,4.77 6.93,3.9 4.34,3.91 2.6,9.53 z"
     title="Cetinje"
     id="ME-06" />
  <path
     d="m 175.75215,454.32756 0.44,-0.16 0,0 0,-9.1 7.37,-3.91 1.3,-3.46 -4.77,-4.77 -4.77,-2.17 -3.47,-8.24 -4.77,-3.47 -6.94,-1.73 0.87,-7.37 0,0 -0.52,-2.07 0,0 13.96,0.33 5.64,-3.47 -0.43,-9.1 0.86,-10.84 4.77,-6.08 6.51,-4.77 6.07,-3.46 7.8,0.43 9.11,3.47 9.1,0.43 10.41,-0.43 9.54,1.3 4.77,-3.47 -3.04,-3.47 -3.46,-3.03 -3.47,-6.07 -0.44,-4.34 3.91,-2.17 3.03,-3.03 0,0 3.47,0 0,0 6.07,3.46 2.17,7.81 1.73,10.84 2.61,3.47 7.37,8.24 0,0 1.73,4.33 0,0 -5.64,3.91 -5.2,3.03 -0.43,9.54 2.17,5.64 -1.74,8.24 -4.77,2.6 -5.64,2.6 -2.6,8.67 0.87,9.98 1.3,9.97 -1.3,5.2 -6.07,7.37 -5.64,3.91 -6.07,-3.47 -6.5,-3.04 -4.34,3.47 -10.41,-0.43 -8.67,1.73 -3.47,-5.63 -7.37,-1.74 -6.94,-2.6 z"
     title="Danilovgrad"
     id="ME-07" />
  <path
     d="m 64.902147,495.11756 -0.15,2.42 0.87,3.9 3.9,2.6 1.68,2.99 0,0 -0.97,0.22 -0.38,0.56 -0.82,0.47 0,2.47 1.55,1.41 0.03,0.26 -0.09,0.26 -0.76,0.13 -1.14,1.24 0.32,1.75 -0.31,0.64 -1.04,-0.08 -1.42,-0.51 -0.54,-0.64 0.13,-1.32 -1.2,-0.72 -0.6,0.09 -0.41,0.51 -1.17,-0.64 -0.54,0.26 0.54,1.41 -0.03,0.73 -0.3,0.83 -0.5,0.34 -1.01,-0.08 -1.17,-0.68 -1.29,-0.26 -0.19,-0.13 0.03,-1.11 -0.44,-0.17 -0.41,0.26 -0.22,0.81 -2.02,0.6 -0.44,-0.68 0.51,-1.06 -0.92,-0.34 -0.22,-0.6 -1.04,0.6 -0.76,-0.08 -0.19,-1.28 -0.6,-0.43 -1.2,-0.34 -1.48,-1.24 -0.13,-0.55 0.85,-0.89 -0.13,-0.43 -1.89,0.34 -0.57,-0.38 -0.28,-1.36 -1.14,-0.6 -0.5,0.38 -0.66,-0.17 -1.99,-2.6 0.19,-0.3 1.17,-0.17 1.2,-0.77 -0.47,-0.43 -0.13,-0.55 0.22,-0.26 1.01,-0.04 -0.09,-0.64 -0.6,-0.38 -4.96,-1.28 -1.26,-0.81 -0.76,-1.53 0.35,-1.41 -2.27,-0.17 -0.79,-0.47 -0.16,-0.56 0.19,-1.15 -0.35,-1.79 0.51,-1.02 2.46,-2 0.79,-0.3 0.63,-0.68 0.6,-0.3 1.93,-0.34 2.81,0.38 11.84,3.71 7.04,3.58 1.75,0.57 z m -40.71,-73.98 6.19,0.3 1.05,-0.63 0,0 6.87,9.52 3.47,9.54 2.6,3.04 5.2,3.9 10.41,1.3 5.2,1.3 6.94,3.47 1.62,4.06 0,0 -0.83,0.34 -2.27,1.62 -1.01,1.11 -1.58,1.11 -0.38,1.19 1.33,0.9 0.88,-0.13 3.66,0.43 5.81,2.9 0.16,0.38 -0.35,0.68 -1.36,1.62 -0.73,1.54 -1.64,1.79 -0.32,1.45 0.82,1.07 -0.22,0.68 -0.54,0.43 -2.65,1.07 -1.99,1.15 -1.17,1.45 -1.29,-0.26 -0.82,0.3 -2.84,2.43 -3.13,1.54 -4.99,1.15 -1.33,1.02 -2.08,0.04 -1.23,0.64 -2.08,-1.36 -2.59,-0.68 -0.47,-0.26 -0.76,-1.11 -1.17,-0.38 -1.99,-3.03 -1.36,-1.36 -2.21,-0.43 -0.88,0.85 -1.48,0.73 -2.15,0.21 -1.64,-0.51 -1.17,0.47 -0.63,0 -1.93,-1.06 -1.74,-1.71 -1.42,-0.98 -0.6,-0.3 -0.63,0.04 -3.16,2.6 -0.54,1.58 0.44,0.38 0.32,1.24 1.58,2.64 1.45,1.11 0.76,1.62 1.2,0.51 2.31,2.22 0.13,0.43 -0.16,0.56 -0.82,0.21 -1.26,1.66 -3.41,-0.85 -0.88,-1.66 -5.18,-5.24 -6.32,-7.68 -4.6699997,-6.1 -3.66,-3.67 -0.44,-1.58 -0.31,-2.47 0.16,-2.35 0.16,-0.47 2.69,-3.24 0.51,-0.98 -0.03,-1.15 -3.32,-9.82 -1.35999997,-5.04 -0.69,-4.2 0.35,-3.33 2.58999997,-0.51 2.21,0.3 1.48,-0.04 2.18,-0.56 2.3999997,-0.3 2.31,-0.68 2.31,-3.5 4.64,-6.15 1.42,-0.47 2.05,0.41 z"
     title="Herceg-Novi"
     id="ME-08" />
  <path
     d="m 374.85215,384.04756 -3.54,-4.89 0,0 -9.1,-0.44 -5.21,-6.07 -4.77,-14.31 -9.54,-0.86 -5.63,0.86 -3.47,13.01 -0.43,4.34 -4.77,1.3 -8.68,1.3 -0.86,5.64 -6.51,2.17 -7.37,3.46 -5.2,3.91 -6.94,-0.87 -7.81,-3.9 -4.77,1.3 -5.63,-3.47 -4.7,0.83 0,0 -1.37,-3.43 0,0 -7.37,-8.24 -2.61,-3.47 -1.73,-10.84 -2.17,-7.81 -6.07,-3.46 0,0 -2.01,0 0,0 -5.36,-4.6 -2.17,-4.77 0.87,-10.41 3.9,-3.47 2.6,-5.2 -1.3,-4.77 -3.47,-5.64 -5.63,-5.2 0,0 -1.12,0.08 0,0 -1.05,-7.02 6.94,-7.8 0.86,-3.91 9.54,-1.3 4.77,1.3 18.21,-1.3 8.24,-0.86 6.07,-4.77 0,0 1.97,-6.31 0,0 6.71,0.24 2.6,3.9 2.17,2.6 7.37,4.34 8.67,1.73 6.94,3.04 15.17,1.3 4.34,-2.6 6.94,-1.74 6.94,3.04 7.37,-0.87 5.63,3.47 6.51,-0.44 0,0 7.37,-0.86 0,0 -1.3,10.4 3.9,12.58 0,0 -7.37,2.17 0,0 -5.64,6.07 1.3,6.5 4.77,5.64 6.51,4.77 -0.44,5.2 -2.6,5.21 0.87,9.54 3.47,2.6 -1.3,6.93 -4.34,2.17 0,6.51 -3.03,4.33 z"
     title="Kolašin"
     id="ME-09" />
  <path
     d="m 73.742147,456.92756 -1.62,-4.06 -6.94,-3.47 -5.2,-1.3 -10.41,-1.3 -5.2,-3.9 -2.6,-3.04 -3.47,-9.54 -6.87,-9.51 0,0 1,-0.61 0.57,-0.77 0.28,-0.77 -0.19,-0.76 -1.01,-1.33 -3.23,-2.49 0,0 10.75,-1.53 6.94,-2.6 9.1,-3.04 9.97,-3.9 6.07,1.73 0,0 4.34,13.01 0,0 4.34,4.77 5.63,6.94 2.61,7.8 2.6,5.64 5.2,6.94 6.070003,2.17 6.07,6.5 2.17,7.37 1.73,12.58 -0.43,6.93 -3.47,4.34 -0.87,4.77 2.61,4.77 3.47,3.9 4.33,4.34 0.44,11.71 0.77,3.08 0,0 -1.21,0.6 0,0 -1.73,3.04 1.3,3.9 1.3,2.6 3.47,3.04 -3.47,7.37 -0.43,2.6 1.3,1.3 0,4.36 0,0 -0.77,-0.75 -1.29,-0.3 -2.5,1.79 0.1,0.85 1.13,1.79 -0.28,0.46 -3.16,-2.67 -2.97,-1.37 -0.19,0.34 0.54,1.19 -0.32,1.54 0.16,0.76 0.51,0.77 -0.07,0.68 -0.38,0.3 -0.78,0.12 -0.95,0.81 -1.58,-0.51 -1.45,-2.34 -1.55,-1.32 -0.57,-0.89 -0.79,-0.17 -0.19,-0.98 -1.61,-1.15 -1.580003,-1.78 -0.31,-0.56 0.22,-0.93 -0.82,-0.17 -0.32,-0.3 -1.39,-2.25 -0.82,-0.56 -1.11,-1.36 -1.16,0.04 0.44,-1.14 -0.1,-0.34 -2.14,-0.77 -0.13,-1.11 -2.21,-1.74 -2.59,-2.81 -1.11,-0.38 0.13,-0.6 1.26,-1.32 0.89,-0.12 0.19,-0.43 0,-0.26 -2.02,-2.08 -0.03,-1.7 0.22,-0.9 -2.25,-1.87 -0.63,-1.07 -1.1,-0.21 -0.16,-0.93 -1.99,-1.32 -0.51,-1.45 0,-0.73 0.32,-0.42 1.33,0 1.1,0.34 2.53,1.45 0.41,-0.05 0.03,-0.68 -1.69,-1.91 0,0 2.41,-0.54 8.52,-7.14 3.02,-3.99 0.97,-7.55 5.220003,-7.01 -0.03,-0.23 0,0 0.43,-0.6 0.13,-3.02 -1.01,-2.3 -0.7,-0.77 -0.22,-0.94 1.05,-2.47 -0.23,-1.41 0.26,-1.75 -0.63,-4.39 -0.19,-5.33 0.66,-3.42 -0.06,-0.64 -0.48,-0.81 -0.5,-0.25 -1.42,0 -1.360003,0.38 -4.27,2.09 -2.36,0.39 -6.79,-0.09 -1.9,-0.38 -1.26,-0.6 -2.37,-1.49 -0.57,-0.86 -0.25,-1.96 0.47,-1.79 -0.12,-1.03 0.69,-0.55 -0.25,-1.2 1.01,-1.23 -0.7,-2.22 -1.1,-1.03 -0.95,0.04 -0.79,0.65 -0.44,1.1 -0.95,1.11 -0.66,1.97 -0.73,0.38 z"
     title="Kotor"
     id="ME-10" />
  <path
     d="m 384.29215,291.40756 -6.47,0.76 0,0 -6.51,0.44 -5.63,-3.47 -7.37,0.87 -6.94,-3.04 -6.94,1.74 -4.34,2.6 -15.17,-1.3 -6.94,-3.04 -8.67,-1.73 -7.37,-4.34 -2.17,-2.6 -2.6,-3.9 -6.71,-0.24 0,0 0.2,-0.63 0,0 -3.47,-6.94 -6.94,-0.87 -2.6,-6.07 -1.73,-8.24 0,0 -0.2,-0.1 0,0 1.93,-2.06 0,-9.11 5.64,-1.3 7.37,-0.87 6.07,-0.43 1.3,-7.37 0.87,-2.6 4.34,-3.47 0,0 -0.19,-0.13 0,0 7.56,0.13 0,0 6.94,-2.17 0,0 7.8,3.47 9.11,0.86 4.33,3.04 9.11,5.64 7.37,2.17 11.71,0.86 6.07,0.87 7.37,4.77 5.2,6.94 0,6.94 -4.77,9.1 2.61,3.9 12.14,9.11 0,0 -2.61,3.47 0,0 z"
     title="Mojkovac"
     id="ME-11" />
  <path
     d="m 246.59215,350.10756 -1.46,0 0,0 -3.03,3.03 -3.91,2.17 0.44,4.34 3.47,6.07 3.46,3.03 3.04,3.47 -4.77,3.47 -9.54,-1.3 -10.41,0.43 -9.1,-0.43 -9.11,-3.47 -7.8,-0.43 -6.07,3.46 -6.51,4.77 -4.77,6.08 -0.86,10.84 0.43,9.1 -5.64,3.47 -13.96,-0.33 0,0 -1.65,-6.61 0,0 -3.9,-4.33 -5.2,-3.47 -8.24,-4.34 -8.24,-9.97 -6.07,-3.9 -16.05,0.43 -13.000003,-8.67 -5.64,0 0,4.77 -0.44,4.33 -2.16,2.17 -6.51,5.2 0,17.78 -5.2,3.04 -6.21,1.33 0,0 -0.3,-0.9 0,0 -6.07,-1.73 -9.97,3.9 -9.1,3.04 -6.94,2.6 -10.75,1.53 0,0 -0.43,-0.33 -2.25,-6.13 1.79,-6.28 1.94,-3.87 5.12,-0.27 1.74,-0.98 1.83,-0.35 2.9,-0.17 0.89,-0.38 0.19,-0.34 -0.48,-5.82 -1.8,-5.65 -1.07,-7.79 0.69,-2.06 2.09,-3.38 0.35,-0.9 0.25,-2.01 -0.16,-1.33 -0.76,-1.67 -1.64,-1.58 -0.66,-0.47 -0.89,-0.22 -0.69,0 -1.83,1.03 -3.19,0.94 -4.42,0.04 -1.71,-0.34 -1.23,-0.55 -1.01,-0.99 -1.26,-1.8 -0.38,-0.73 0.31,-1.37 -4.73,-7.45 -2.06,-0.73 -1.29,0.13 -1.58,-0.47 -0.7,-0.43 -0.75,-1.07 -0.16,-1.33 0.16,-0.9 1.35,-4.33 -0.75,-1.54 -0.7,-0.43 -0.5,-0.69 -0.29,-4.11 -0.28,-0.6 -0.79,-0.3 -0.2199997,-0.43 0.2499997,-0.73 0.44,-0.39 2.97,0.13 2.91,-1.11 1.13,-1.68 0.1,-2.1 -1.2,-3.56 -0.86,-1.8 -1.67,-5.45 -0.22,-3.43 0.25,-0.26 0.35,-2.74 3.28,-6.19 2.06,-1.54 0.82,-1.12 0.22,-0.73 -0.98,-3.3 -0.06,-1.93 0.91,-0.82 2.78,-1.5 0.38,-1.08 -0.19,-1.8 -1.07,-0.65 -1.58,-0.55 -2.97,-5.07 0.13,-6.66 -2.56,-4.13 0.06,-1.72 0.51,-0.6 2.74,-1.37 1.23,-1.42 6.13,-12.69 1.2,-4.68 1.14,-2.67 2.05,-5.98 0.89,-1.25 2.27,-1.89 1.74,-2.54 0.98,-0.73 1.8,-0.56 1.86,0.08 16.7,2.84 2.25,0.48 4.89,1.81 3.6,0.34 2.81,-0.47 4.14,-1.38 3.76,-1.85 1.26,-0.43 3.19,-0.48 0.44,-0.34 0.28,-0.69 -0.5,-2.49 -2.37,-4.48 -9.14,-23.8 0,0 12.51,-2.08 9.1,3.03 7.370003,6.07 3.91,9.97 2.16,9.54 4.34,11.71 4.77,8.67 5.2,10.85 6.07,5.63 4.77,2.6 23.42,0 14.31,0.44 0,0 3.47,6.93 0,0 4.33,1.74 7.38,4.34 11.27,7.37 10.84,4.77 11.71,11.27 0,0 17.78,-1.3 0,0 5.63,5.2 3.47,5.64 1.3,4.77 -2.6,5.2 -3.9,3.47 -0.87,10.41 2.17,4.77 z"
     title="Nikšić"
     id="ME-12" />
  <path
     d="m 420.89215,417.07756 3.5,-2.41 9.97,-2.6 1.3,-8.24 2.6,-6.94 6.51,-7.37 7.37,-7.37 11.27,-4.34 0,0 6.94,-3.47 0,0 11.28,0 9.97,0.87 13.01,-1.3 14.57,-2.65 0,0 0.42,0.65 1.01,0.77 1.64,0.47 1.93,0.09 2.52,1.41 1.93,2.78 2.24,4.2 1.07,1.41 2.06,1.92 3.22,2.1 0.25,1.16 -3.79,4.7 -2.84,4.11 -4.07,4.62 -3.7,1.97 -1.51,1.41 -1.74,2.61 -0.63,2.99 0.31,4.19 1.58,4.27 0.35,2.31 -0.35,2.65 -4.45,11.24 -1.45,-0.22 -4.27,-1.28 -1.67,2.91 -0.88,0.76 -1.58,0.47 -5.06,2.18 -2.65,0.26 -0.72,0.34 -0.51,0.68 -0.22,0.81 0.35,2.82 -0.13,1.2 -1.8,4.23 -0.38,2.3 -1.2,1.71 -0.69,0.25 -2.69,-0.94 -2.4,-0.12 -0.95,-0.35 -0.91,-0.04 -1.52,0.17 -1.77,0.77 -1.61,0.09 -3.63,-0.64 -2.9,-2.39 -1.55,0.08 -1.9,0.56 -1.98,1.11 -1.84,1.53 -1.99,1.2 -2.36,0.3 -0.45,1.02 -0.31,1.67 0.16,3.28 -0.35,0.81 -0.6,0.3 -1.26,1.79 -0.83,-0.21 -1.29,-0.94 -1.48,-2.09 -2.56,-1.32 -0.57,0.51 -0.32,1.45 -0.6,1.11 -0.31,1.19 -1.3,1.71 -1.42,0.13 -1.67,-0.6 -1.2,-0.13 -0.76,1.2 -0.95,0.72 -3.47,0.09 -0.29,0.77 0.19,1.4 -0.12,0.86 -1.77,2.39 -3.85,-1.33 -2.02,-1.62 -6.48,-3.88 -0.79,-0.94 -1.8,-3.67 -1.39,-1.53 -4.42,-2.14 -0.31,-0.34 -1.11,-4.44 -0.44,-3.8 -1.01,-1.11 -0.92,-1.88 -0.34,-1.83 -1.3,-1.45 -1.58,-3.55 0.16,-1.24 1.23,-0.38 0.54,-0.47 -0.1,-2.56 1.65,-3.42 0,-1.11 -1.05,-0.94 -0.38,-0.64 -0.37,-1.63 0.41,-0.94 0.69,-0.51 0.13,-1.71 0.19,-0.17 1.23,0.22 4.83,0 0.73,-0.3 0.34,-0.43 0.1,-0.56 -0.57,-2.05 0.06,-2.01 -0.47,-0.89 z"
     title="Plav"
     id="ME-13" />
  <path
     d="m 353.50215,129.30756 -0.83,4.16 3.47,5.64 -2.17,14.74 -3.9,2.17 -3.04,5.64 -5.2,3.03 0,3.9 2.6,4.34 0,5.64 -2.6,3.03 -4.34,2.6 -0.43,6.51 -2.6,5.2 -7.38,0 -4.77,3.9 -3.46,5.21 0.43,9.97 -2.26,7.1 0,0 -6.41,2.01 0,0 -7.56,-0.13 0,0 -7.19,-5.08 0,0 -3.46,-7.8 -3.47,-6.94 -8.68,-1.3 -4.77,-7.37 -7.8,-5.21 -3.04,-5.63 -8.24,-3.47 -3.46,-3.04 -5.21,-1.73 -7.37,-3.04 -12.57,-13.44 -12.14,0 -4.77,5.64 -6.94,-0.44 -6.94,0.44 -3.04,-4.77 -5.2,0.43 -0.87,-10.84 -1.73,-8.24 0.87,-5.63 -1.17,-1.64 0,0 3.23,-5.73 1.77,-2.33 1.74,-1.52 1.83,-1.03 2.49,-0.87 9.95,-1.04 0.48,-1.86 0.56,-4.1 0.45,-5.8 -0.29,-1.99 -1.36,-3.59 -3,-4.45 -3.41,-7.489998 -2.65,-3.98 -3.28,-4.02 -3.82,-3.9 -5.34,-12.51 -0.98,-3.86 0.35,-3.33 -0.35,-3.21 -0.25,-0.95 -1.8,-2.56 -0.1,-3.43 -0.57,-0.39 -0.63,0.14 -0.6,-0.53 -0.47,0.05 -0.76,0.73 -0.6,1.7 -0.47,0.04 -1.61,-2.73 -1.24,-0.83 -0.47,-1.77 -2.21,-1.35 -1.29,-0.47 -0.54,-3.08 -1.14,-3.56 0.16,-3.38 -0.6,-1.91 -0.88,-1.82 0.19,-4.81 1.7,-3.87 -0.16,-1.64 -0.41,-1.05 -1.13,-1.73 -0.48,-0.26 -0.63,-0.05 -0.79,0.39 -1.42,1.31 -1.11,3.73 -0.85,1.6 -0.66,0.39 -1.23,-0.39 -1.01,-1.91 -0.79,-6.16 0.12,-0.6 0.67,-1 2.24,-2.04 1.74,-0.91 5.36,0.04 0.73,-0.13 1.07,-0.74 0.98,-1.26 1.11,-4.2500002 2.43,-5 1.64,-1.26 1.71,-0.3 1.73,0.61 0.32,2.13 0.44,0.91 0.57,0.08 0.51,-0.17 0.6,-2.13 0.34,-0.43 1.71,-0.65 2.4,0.43 1.29,0.78 0.86,-0.04 1.92,-0.65 3.13,0.17 0.88,0.7 3.13,3.99 0.66,0.52 5.02,2.22 9.03,6.9000002 0.98,0.48 3.73,3.03 1.36,-0.04 1.36,-0.69 2.62,-3.13 5.3,-5.08 0.98,-0.4300002 2.15,-0.13 4.04,2.2100002 0.85,-0.3 1.68,-1.43 1.48,-0.2600002 2.46,2.4700002 0.6,-0.13 1.55,-1.48 0.57,-0.26 0.63,0.09 1.86,1 2.03,2.13 1.2,15.4 2.21,3.38 3.44,3.52 4.13,3.6 1.71,2.68 3.06,3.69 7.39,7.67 11.18,7.46 3.88,1.81 6.32,1.78 1.74,0.69 2.43,1.43 2.53,3.51 5.18,5.07 6.22,3.72 9.09,2.73 0.47,1.26 2.47,10.99 4.45,6.139998 2.43,2.12 1.8,0.87 9.51,2.12 1.36,0.78 2.65,4.62 3.57,15.65 0.75,1.13 1.33,1.21 z"
     title="Pljevlja"
     id="ME-14" />
  <path
     d="m 176.49215,133.50756 -1.6,7.33 -1.31,9.98 0.87,12.57 -1.3,9.97 0,7.81 4.77,6.94 5.64,6.5 0,0 0,8.24 0,0 -2.6,-0.87 -7.81,2.6 -6.5,1.74 -6.51,7.37 -2.17,6.5 -1.3,6.94 -4.77,4.77 0.87,13.44 3.47,6.51 16.91,7.37 3.47,5.64 -2.17,4.33 -4.91,2.32 0,0 -0.29,-0.58 0,0 -14.31,-0.44 -23.42,0 -4.77,-2.6 -6.07,-5.63 -5.2,-10.85 -4.77,-8.67 -4.34,-11.71 -2.16,-9.54 -3.91,-9.97 -7.370003,-6.07 -9.1,-3.03 -12.51,2.08 0,0 -3.93,-10.23 -0.86,-4.27 0.04,-3.41 0.56,-3.66 1.05,-4.32 1.7,-4.57 2.02,-3.36 4.55,-6.78 3.6,-4.83 6.54,-7.17 1.26,-1.9 1.23,-2.63 0,-1.69 -0.79,-1.38 -6.5,-4.06 -1.14,-1.77 -0.35,-2.24 0.29,-1.86 1.64,-2.08 8.68,-6.31 11.060003,-7.65 10.8,-6.57 8.81,-3.63 3.91,-1.3 4.14,-0.73 2.84,0.08 -0.5,-1.08 -0.1,-1.51 -0.85,-1.73 -0.1,-1.17 -1.57,-2.679998 -1.8,-1.73 0,-2.43 2.36,-0.21 5.37,-2.08 2.21,-0.22 1.68,-0.82 2.14,-0.04 2.5,0.73 1.1,0.09 1.52,-0.43 2.81,-2.12 0.41,-0.05 1.26,0.78 4.2,3.98 0.64,1.6 2.55,2.9 2.15,3.459998 0.95,0.35 3.09,-0.13 0.48,0.3 0.69,2.69 -0.54,2.76 -2.02,2.12 -1.01,3.98 0,0.82 1.42,4.15 0.82,1.26 1.55,0.08 4.27,1.69 2.84,1.94 1.39,3.33 -0.19,1.39 -1.08,1.68 -0.06,0.69 0.66,0.82 1.93,1.08 z"
     title="Plužine"
     id="ME-15" />
  <path
     d="m 385.17215,406.23756 -2.5,3.71 -6.76,8.71 -5.02,7.18 -0.19,0.52 -0.34,5.89 1.16,1.84 0,1.41 1.01,4.06 -0.15,1.24 -0.73,0.59 -1.14,0.39 -1.54,0.89 -0.48,0.47 -0.19,0.64 0.1,1.29 -0.32,0.42 -12.5,7.17 -0.38,0.82 -0.19,4.6 -0.79,2.44 -1.42,2.3 -1.68,1.28 -0.63,1.79 -2.4,3.76 -0.63,3.11 -2.71,4.48 -2.56,2.05 -0.86,3.88 -0.56,0.42 -3.67,1.41 -1.29,1.88 -0.82,0.81 -0.38,1.02 -0.38,2.68 -0.13,0.22 -1.2,-0.22 -0.53,0.56 -0.98,4.35 -2.21,4.17 -2.5,3.88 -3.19,2.43 -1.67,0.81 -1.49,0.34 -2.36,-0.13 -1.96,1.02 -0.63,0.51 -1.52,2.35 -1.67,1.57 -1.27,2.56 0.16,4.42 -0.41,0.64 -2.24,1.19 -0.19,0.3 0.85,6.43 1.71,3.49 -4.96,5.28 -2.56,4.21 -4.32,4.21 -0.16,1.57 0.16,2.64 -0.86,2.13 -6.82,8.2 -1.13,1.7 -1.05,2.26 -0.49,1.84 0,0 -4.45,-0.49 -3.91,-2.17 -5.2,-3.9 -2.6,-2.6 -6.51,-1.3 -5.2,-1.74 -6.94,1.3 -4.77,2.17 -11.27,3.04 -1.73,-4.34 -2.61,-1.73 -3.03,-1.3 -1.3,-3.04 -5.21,-3.47 -1.3,-2.6 -0.43,-6.5 1.73,-4.78 3.91,-2.16 0,0 0,-2.86 0,0 3.03,-5.17 -2.6,-9.53 -4.34,-3.91 -6.93,-3.9 -6.51,-4.77 -4.33,-5.2 -3.04,-7.37 -2.6,-5.21 -3.9,-1.3 -7.38,-5.2 -2.6,-5.21 -5.63,-6.07 -3.04,-0.86 -3.03,-1.3 -6.51,-1.74 -0.43,-3.9 0,0 7.8,-2.88 0,0 6.07,2.88 6.94,2.6 7.37,1.74 3.47,5.63 8.67,-1.73 10.41,0.43 4.34,-3.47 6.5,3.04 6.07,3.47 5.64,-3.91 6.07,-7.37 1.3,-5.2 -1.3,-9.97 -0.87,-9.98 2.6,-8.67 5.64,-2.6 4.77,-2.6 1.74,-8.24 -2.17,-5.64 0.43,-9.54 5.2,-3.03 5.64,-3.91 0,0 -0.36,-0.9 0,0 4.7,-0.83 5.63,3.47 4.77,-1.3 7.81,3.9 6.94,0.87 5.2,-3.91 7.37,-3.46 6.51,-2.17 0.86,-5.64 8.68,-1.3 4.77,-1.3 0.43,-4.34 3.47,-13.01 5.63,-0.86 9.54,0.86 4.77,14.31 5.21,6.07 9.1,0.44 0,0 5.64,7.8 0,0 4.34,12.58 z"
     title="Podgorica"
     id="ME-16" />
  <path
     d="m 514.64215,339.78756 -1.79,-3.39 -2.61,-13.87 6.94,-8.67 7.81,-6.51 3.03,-9.97 0.87,-9.98 9.97,-9.54 1.74,-9.1 5.63,-8.24 0.87,-12.17 0,0 2.53,0.91 1.48,1.59 0.86,0.51 1.48,0.26 3.92,1.42 1.48,0.17 0.51,0.22 1.16,1.29 3.92,1.42 6.95,3.05 1.64,0.99 3.66,3.87 2.37,1.2 3.7,0.99 5.11,0.56 5.59,1.16 0.38,0.47 0.41,2.54 0.73,1.42 -0.04,0.73 -0.41,0.47 0.1,0.3 1.99,1.03 0.76,0.69 0.66,1.03 3.95,0.22 1.58,1.03 1.26,1.16 3.32,1.85 2.49,2.06 1.29,1.8 0.32,3.05 -0.09,9.37 -0.92,4.54 0.54,7.65 -0.6,2.4 -2.18,3.39 -1.71,0.99 -0.76,0.17 -2.08,-0.22 -5.05,-1.41 -1.39,0.34 -1.33,1.07 -1.64,2.06 -1.26,1.16 -1.96,0.77 -4.14,2.23 -2.11,2.02 -1.71,2.19 -0.19,1.2 0.79,3.26 1.55,2.79 0.35,1.07 -0.13,0.81 -2.05,2.49 -1.11,0.98 -7.67,10.81 -3.32,1.54 -3.69,-0.05 -4.36,-1.58 -4.99,-0.51 -7.23,0.04 -4.04,-0.34 -2.37,0.42 -2.91,-0.64 -3.28,-1.11 -2.88,-1.59 -3.56,-0.56 -3.64,-1.8 -3.19,-1.28 -2.02,-0.34 -1.07,-0.73 -2.21,-0.43 -3.95,-1.59 -1.07,-0.13 z"
     title=" Rožaje"
     id="ME-17" />
  <path
     d="m 183.56215,202.41756 3.03,4.77 1.3,3.9 3.04,5.2 10.41,1.3 2.6,-4.33 7.8,0.43 6.07,8.24 6.07,5.64 4.77,0.43 5.21,-1.74 4.77,-0.86 6.5,5.63 4.77,9.11 6.07,3.04 5.21,0.86 7.37,3.47 0,0 7.37,3.9 0,0 1.73,8.24 2.6,6.07 6.94,0.87 3.47,6.94 0,0 -2.17,6.94 0,0 -6.07,4.77 -8.24,0.86 -18.21,1.3 -4.77,-1.3 -9.54,1.3 -0.86,3.91 -6.94,7.8 1.05,7.02 0,0 -16.66,1.22 0,0 -11.71,-11.27 -10.84,-4.77 -11.27,-7.37 -7.38,-4.34 -4.33,-1.74 0,0 -3.18,-6.35 0,0 4.91,-2.32 2.17,-4.33 -3.47,-5.64 -16.91,-7.37 -3.47,-6.51 -0.87,-13.44 4.77,-4.77 1.3,-6.94 2.17,-6.5 6.51,-7.37 6.5,-1.74 7.81,-2.6 2.6,0.87 0,0 z"
     title="Šavnik"
     id="ME-18" />
  <path
     d="m 103.87215,491.17756 0.03,0.23 -5.220003,7.01 -0.97,7.55 -3.02,3.99 -8.52,7.14 -2.41,0.54 0,0 -0.08,-1.62 -1.01,-1.45 -0.35,-0.34 -1.51,-0.47 -1.11,-1.4 -0.15,-0.47 0.15,-0.6 0.98,-0.64 -2.15,-2.34 0.1,-1.45 -0.51,-0.25 -0.25,0.12 -0.03,0.86 -0.28,0.34 -1.55,-0.13 -3.03,-1.32 -1.78,0.55 0,0 -1.68,-2.99 -3.91,-2.6 -0.86,-3.9 0.15,-2.42 0,0 3.18,1.52 3.79,0.64 0.35,0.85 0.6,-0.26 1.07,0.73 6.13,0.38 2.02,1.28 2.31,2.81 2.36,0.9 0.64,-0.52 0.37,-1.83 -1.89,-1.66 -0.13,-0.38 0.79,-0.26 0.26,-0.3 -0.67,-0.51 -2.05,0 -0.25,-0.68 0.6,-0.38 1.29,0.51 1.77,-0.34 0.35,-0.94 -0.51,-1.71 0.22,-0.89 -0.98,-0.94 -0.94,-1.45 -0.79,-0.21 -0.1,-0.34 -0.63,-0.39 -0.63,-1.61 -0.51,0 -1.16,-1.03 -0.64,-1.06 -0.15,-2.18 -1.11,-0.94 -1.26,0 0.5,-0.76 -0.06,-1.03 -2.05,-3.88 -0.22,-0.98 0.41,-2.47 0.88,-2.3 0.32,-2.39 0.6,-1.15 1.35,-1.63 0.95,0.17 1.49,0.69 1.07,0.12 1.67,1.2 1.71,-0.17 1.33,0.85 1.23,0.26 3.03,1.53 1.7,0.52 1.08,1.96 3.03,2.47 0.54,1.75 1.260003,1.32 0.13,0.56 -0.38,1.06 0.6,1.24 -0.22,0.98 1.16,2.26 0.41,3.32 1.05,1.45 z"
     title="Tivat"
     id="ME-19" />
  <path
     d="m 301.37215,633.26756 -2.1,3.92 -1.7,2.5 -0.86,5.51 0.04,4.11 -1.14,1.57 -1.3,3.81 0.19,2.08 -0.22,1.82 0.98,2.84 -0.41,5.59 0.25,1.56 0.22,0.6 1.43,1.6 0.56,1.23 0.54,1.86 0.32,2.46 -0.13,1.4 -1.33,2.58 -0.19,1.56 0.73,0.98 2.05,1.44 0.79,1.01 0.03,0.64 -0.79,1.27 -0.82,0.42 -3.82,0.55 -3.88,0.17 -1.39,0.63 -1.01,0.98 0.19,2.32 -0.45,3.13 0.23,1.1 0.75,1.15 0.86,0.76 3.57,2.32 0.56,0.59 0.67,1.15 0.16,1.48 -0.64,1.35 -1.61,1.31 -1.32,0.42 -1.8,0.21 -2.66,0.85 -0.82,0.68 -0.41,1.26 0.29,1.65 0.82,0.81 2.27,1.01 3.16,0.59 0.6,0.38 0.35,0.59 0.5,2.54 0.57,0.93 0.85,0.42 2.09,0.21 0.69,0.72 -0.28,1.4 -1.42,2.24 -0.26,5.91 -0.82,2.03 -0.12,2.32 -0.38,0.72 -1.93,0.63 -0.82,-0.12 -1.67,-2.58 -1.08,-1.18 -4.07,-2.33 -0.85,-1.05 -1.99,-3.59 -2.88,-2.88 -1.29,-0.88 -5.12,-2.96 -6.6,-2.96 -4.26,-2.28 -5.37,-1.82 -1.67,-0.25 -1.42,-0.51 -0.48,0.04 -0.44,0.34 -0.22,1.18 -0.54,-0.12 -1.32,-1.61 -2.97,-2.54 -2.21,-0.84 -1.61,-1.06 -1.42,0.13 0.12,-0.98 -0.16,-0.33 -1.1,0.29 -0.25,-0.67 -0.54,-0.17 -0.51,-0.6 -0.66,0.22 -0.72,-0.26 -0.67,-0.55 -0.6,0.21 -0.91,-0.5 -0.45,-0.47 -0.12,-0.51 -0.67,-0.17 -0.72,-0.76 -0.63,0.05 -0.89,-1.19 -1.1,-0.13 -0.73,-0.59 -0.25,-0.5 -3.25,-2.8 -0.45,-0.8 -0.72,-0.08 -1.17,-0.94 -0.6,-1.9 2.62,0.42 1.86,0.81 0.48,-0.09 0.41,-0.84 -1.52,-2.37 -1.99,-1.1 -0.98,-1.91 -1.73,-0.8 -0.7,-0.68 -0.69,-2.03 -0.79,-0.76 0,-0.42 0.88,-1.65 0.79,-0.3 1.71,0.38 0.79,-0.97 -0.04,-0.76 -0.5,-1.02 -1.36,-1.1 -1.29,-0.38 0.28,-0.68 1.48,-0.63 -0.69,-1.32 0.09,-0.76 0.38,-0.72 -1.29,-1.48 -0.13,-0.68 1.04,-1.82 0.48,-0.17 -0.08,-0.65 0.71,-0.1 0,0 4.25,-0.56 5.63,0 4.34,2.6 9.97,4.77 4.77,0.86 4.34,-1.73 1.73,-3.9 -0.86,-2.6 -0.87,-6.08 -3.04,-0.86 -1.73,-3.47 -2.6,-2.17 0.43,-3.9 2.17,-4.34 1.3,-3.47 -0.87,-1.73 -3.47,-1.3 -2.16,-0.44 0,-4.33 1.73,-1.74 3.9,-2.6 3.47,2.17 2.17,4.34 5.64,3.9 4.33,0 3.04,-1.3 6.94,1.3 4.33,-3.04 3.47,-5.2 0,0 9.54,0.87 0,0 z"
     title="Ulcinj"
     id="ME-20" />
  <path
     d="m 185.86215,134.86756 1.17,1.64 -0.87,5.63 1.73,8.24 0.87,10.84 5.2,-0.43 3.04,4.77 6.94,-0.44 6.94,0.44 4.77,-5.64 12.14,0 12.57,13.44 7.37,3.04 5.21,1.73 3.46,3.04 8.24,3.47 3.04,5.63 7.8,5.21 4.77,7.37 8.68,1.3 3.47,6.94 3.46,7.8 0,0 7.38,5.21 0,0 -4.34,3.47 -0.87,2.6 -1.3,7.37 -6.07,0.43 -7.37,0.87 -5.64,1.3 0,9.11 -1.93,2.06 0,0 -7.17,-3.8 0,0 -7.37,-3.47 -5.21,-0.86 -6.07,-3.04 -4.77,-9.11 -6.5,-5.63 -4.77,0.86 -5.21,1.74 -4.77,-0.43 -6.07,-5.64 -6.07,-8.24 -7.8,-0.43 -2.6,4.33 -10.41,-1.3 -3.04,-5.2 -1.3,-3.9 -3.03,-4.77 0,0 0,-7.81 0,0 -5.64,-6.5 -4.77,-6.94 0,-7.81 1.3,-9.97 -0.87,-12.57 1.31,-9.98 1.6,-7.33 0,0 1.01,1.46 1.11,0.65 1.1,0.13 1.08,0.82 0.53,0.99 0.32,1.39 2.65,-1.9 z"
     title="Žabljak"
     id="ME-21" />
  <path
     d="m 288.61215,566.31756 -0.23,1.17 -0.73,1.54 -21.38,25.44 -0.06,0.51 38.11,32.04 -0.03,0.63 -2.92,5.62 0,0 -4.64,-0.66 0,0 -9.44,-0.86 0,0 -4,-2.61 -4.34,-3.47 -8.24,-10.84 -13,-4.34 -3.04,-6.5 -5.64,-4.34 -2.6,-8.67 -2.17,-8.24 -3.03,-6.94 -3.04,-1.3 -6.5,0 -6.5,-0.86 -5.21,-1.31 -3.03,-3.47 -1.74,-6.07 -0.43,-8.67 -1.3,-4.77 -3.04,-3.9 -4.33,-4.77 0,0 1.73,-1.73 0,0 0,-3.91 -0.87,-2.17 -3.03,-4.76 -2.6,-3.47 2.16,-4.77 3.47,0 3.47,3.47 5.21,1.73 3.46,-2.17 5.64,3.04 3.04,0.86 0,0 0,3.91 0,0 -3.91,2.16 -1.73,4.78 0.43,6.5 1.3,2.6 5.21,3.47 1.3,3.04 3.03,1.3 2.61,1.73 1.73,4.34 11.27,-3.04 4.77,-2.17 6.94,-1.3 5.2,1.74 6.51,1.3 2.6,2.6 5.2,3.9 3.91,2.17 z"
     title="Skadar Lake"
     id="ME-SLK" />
</svg>
