<?xml version="1.0" encoding="UTF-8" standalone="no"?>
<!-- Created for MapSVG plugin: http://mapsvg.com -->
<svg
   xmlns:mapsvg="http://mapsvg.com"
   xmlns:dc="http://purl.org/dc/elements/1.1/"
   xmlns:rdf="http://www.w3.org/1999/02/22-rdf-syntax-ns#"
   xmlns:svg="http://www.w3.org/2000/svg"
   xmlns="http://www.w3.org/2000/svg"
   mapsvg:geoViewBox="60.896610 37.095717 77.843840 23.705520"
   width="656.1684"
   height="600.2663">
 
  <path
     d="m 326.5193,241.30132 7.34,-0.28 1.12,0.6 3.33,-2.61 1.52,-2.84 5.76,-0.93 -1.14,3.85 2.77,1.78 -1.42,3.64 1.29,0.84 2.49,-1.99 0.32,0.39 -0.82,6.83 -0.21,9.79 1.51,0.54 1.73,1.78 1.14,6.48 0.86,-0.61 1.15,-3.61 2.78,-0.31 2.83,-2.43 0.73,1.05 0.18,7.95 -1,6.39 0.97,2.91 0,0 -0.48,8.6 0.05,0.66 0.99,0.65 -0.12,1.48 -2.48,0.46 -0.41,2.63 -1.52,0.17 -0.39,1.56 -1.78,0.13 -0.47,0.66 -0.33,2.27 0.86,1.9 -4.46,7.74 -0.17,3.26 -1.3,3.1 1.25,0.67 0.17,2.17 1.22,-1.34 0.98,-0.2 1.2,0.45 0.02,1.26 -1.06,1.94 -2.22,2.24 0.02,3.14 -4.9,10.97 -2.42,1.66 -1.23,2.29 -4.37,1.29 -1.19,1.51 0.06,4.94 -1.32,4.64 3.72,1.52 0.34,1.15 -0.76,1.56 1.55,2.29 1.64,-1.16 0.66,0.9 -1.73,8.31 -2.28,1.29 -2.51,3.9 -2.8,2.59 -0.34,2.92 1.27,1.99 -1.96,4.62 -2.51,3.79 -3.39,1.9 0.13,1.23 1.88,3.01 0,0 -22.99,0.95 -6.73,-0.53 -5.39,0.88 -1.53,1.26 -2.13,3.41 -4.28,1.97 -11.67,9.28 -2.08,3.46 -2.69,0.68 -3.78,2.28 -3.8,1.28 -9.49,1.45 -0.7,0.65 -0.99,4.66 -1.49,2.14 -2.14,1.68 -1.06,3.7 -2.06,2.36 -0.5,5.13 -1.59,4.03 -0.09,1.95 1.16,12.61 -0.59,4.52 0.73,4.61 -0.63,3.89 0.86,5.52 11.06,19.35 -0.91,7.05 0.55,3.11 -0.3,2.74 -1.9,3.54 -0.49,2.63 -3.29,2.61 -0.64,2.63 -1.9,0.89 -2.46,4.34 0.18,3.49 -1.19,2.86 -2.26,1.51 -1.86,2.48 -0.13,2.66 -3.16,3.47 -2.95,0.41 -3.8,2.5 -2.19,2.57 0,0 -0.67,0.01 -0.68,-1.78 0.96,-0.82 0.41,-4.03 -0.43,-1.52 1.32,-1.7 0.51,-1.57 -0.25,-1.3 -2.58,-3.13 -4.88,-4.03 -0.02,-0.91 0.98,-0.02 -0.21,-0.97 -0.52,0.34 0.3,-0.86 0.24,0.28 0.63,-0.72 -0.97,-0.8 0.06,-1.35 -1.29,-1.02 -2.21,-0.55 -1.3,0.24 -0.46,-0.39 0.3,-1.03 -0.47,-0.26 -0.48,0.92 -0.63,-0.37 0.67,-0.9 -0.47,-0.85 -2.12,-0.78 -2.55,0.43 -1.21,1.64 2.92,0.38 0.95,-0.34 0.29,0.88 1.21,0.01 1.76,1.87 2.15,-0.63 1.48,0.31 0.08,2.17 -1.45,0.13 1.44,0.81 -0.16,0.57 -0.94,0.07 -5.46,-2.45 -2.74,-0.32 -6.81,0.85 -5.46,1.39 -5.34,-0.18 -2.21,1.54 -5.1,1.26 -6.97,-1.6 -1.68,0.78 -1.92,-0.51 -3.76,0.25 -0.91,0.47 -0.85,2.22 -1.26,0.53 -10.52,-0.96 -5.93,0.26 -2.91,0.66 -1.8,1.81 -0.13,2.53 1.33,-0.14 0.71,0.96 -3.85,1.2 -0.67,-0.96 1.55,-1.22 0.01,-0.58 -1.79,-1.85 -2.3,-0.48 -1.36,0.6 -0.16,0.71 -2.87,0.25 -1.9,-1.2 -4.67,-1.48 -0.14,-0.51 -5.17,-0.5 -0.05,-1.68 1.1,0.17 -1.83,-1.51 3.06,-0.04 -0.29,-0.6 1.4,-1.32 0.13,-0.77 -2.36,-0.57 -1.48,0.76 -3.31,-0.19 0.77,0.43 -0.03,0.59 -1.83,0.76 0.99,1.31 0.67,-0.79 1.15,-0.12 1.18,2.46 -0.71,1.05 -6.33,-0.65 -7.54,-1.86 -4.71,0.72 -2.99,1.8 -0.7,1.68 -0.01,1.88 1.09,0.7 -0.42,0.87 -14.310003,-2.23 -1.36,0.17 -0.41,0.89 -2.89,0.97 -8.2,-1.76 -10.12,-0.69 -2.18,0.44 -0.63,0.92 0.58,0.6 -3.22,0.71 -1.67,1.3 -0.71,2.38 0.46,0.63 1.71,-0.05 -0.39,0.46 -4.48,-0.42 2.27,-0.68 -0.42,-2.3 -2.16,-1.57 -3.21,-0.4 -2.6,0.61 -1.55,1.18 -0.3,1.09 0.82,0.46 -0.07,0.97 0.86,0.81 -7.11,-0.38 -1.78,0.77 0.29,0.6 -0.68,1.7 -2.9,0.96 -1.82,-0.33 0.15,-2.13 1.28,-0.8 -0.43,-1.46 -3.51,-1.95 -3.49,-0.54 1.3,-0.45 1.75,-4.36 0.97,-15.21 1.01,-1.36 -0.65,-1.35 -0.03,-3.47 3.08,-0.11 0.45,-0.7 2.61,-17.55 0.89,-0.8 3.38,-0.94 3.98,-2.01 2.32,-0.06 0.44,-3.14 5.81,1.36 0.34,-1.22 -1.03,-1.11 -0.32,-1.43 1.01,-0.05 1.01,-1.26 -0.5,-0.95 0.39,-1.1 3.77,-0.64 1.2,-1.24 6.72,-0.73 2.04,-1.35 2.34,-0.15 0.6,-0.8 1.62,-0.59 8.01,-0.05 2.54,0.68 4.55,-0.42 1.18,-3.9 -0.29,-4.55 3.45,-1.34 -0.95,-2.33 -0.03,-6.66 2.38,-2.41 -0.7,-1.74 -4.45,-2.7 -4.86,0.36 -4.14,1.78 -2.84,-1.08 -2.2,0.21 -1.48,-0.95 -0.06,-0.74 1.98,-2.32 -0.97,-1.52 1.86,-5.42 -1.38,-14.76 -1.15,-7.54 -0.84,-2.37 1.1,-7.7 -0.18,-2.98 -7.72,0.96 -6.79,-7.14 -4.66,-1.97 -2.18,-0.1 -2.68,-0.95 -2.12,0.11 -2.8,-1 -9.25,-5.8 -4.76,-5.72 -6.83,-10.41 -0.04,-2.15 -0.94,-1.06 -0.32,-1.47 -2.12,-0.95 0.5,-2.56 -1.75,-1.22 -1.16,-2.83 0.57,-2.91 -6.96,-6.8 -11.34000043,-14.83 39.62000043,13.03 3.16,1.63 15.13,5.24 3.29,0.51 24.55,-2.93 7.09,0.03 2.91,-0.9 11.220003,-0.62 11.78,2.24 4.83,2.74 1.74,0.1 1.32,-1.54 -0.35,-1.66 0.93,-1.22 2.09,-0.75 1.06,-1.2 2.21,0.03 4.6,-1.41 0.01,-1 1.59,-0.53 5.58,-0.41 11.04,1.08 1.71,-0.47 3.58,1.43 28.35,-8.44 -0.02,1.1 3.43,-1.89 4.77,-0.95 0.15,-0.63 10.22,-2.8 0.9,-0.97 -0.59,-0.66 3.18,-3.53 0.18,-0.61 -4.77,-4.19 0.77,-2.21 1.74,-1.41 -0.25,-1.26 2.04,-5.36 0.15,-4.06 1.03,-2.12 -0.92,-0.8 0.78,-0.88 -0.48,-0.99 -2.51,-1.25 -0.18,-0.68 1.03,-4.69 2.46,-5.05 -0.99,-1.36 1.18,-2.35 1.5,-0.68 2.08,-2.95 -0.99,-0.08 0,-0.64 5.28,-1.12 1.52,-1.46 0.85,-1.98 1.64,-1.11 1.7,-5.83 -0.4,-0.91 2.42,-0.05 1.63,-2.31 2.6,-1.44 4.29,-0.69 -0.25,0.82 1.38,0.29 -1.08,2.37 1.84,1.39 1.58,-0.5 2.18,0.21 5.64,1.25 7.43,-1.91 0.36,-0.17 -1.33,-0.47 3.97,-1.53 1.77,-0.15 3.35,-1.97 2.15,-0.33 1.05,-1.31 -0.72,-1.95 -1.18,-0.67 -4.14,0.64 -1.4,-1.18 -0.1,-1.97 -1.59,-2.63 1.59,-0.2 0.51,1.33 4.7,-0.04 5.09,-4.69 4.21,-0.96 3.24,-2.13 1.56,-2.51 0.58,-0.94 2.33,-3.68 0.33,0.89 3.17,0.59 -0.32,0.73 1.38,1.28 5.23,-0.02 0.44,-0.27 5.3,-2.93 2.4,2.25 2.69,0.38 0.59,3.31 2.19,1.61 1.22,2.31 1.68,0.57 2.65,-0.33 1.25,-1.85 2.78,0.86 0.41,-1.06 3.34,-2.4 3.08,-6.57 1.3,-0.64 3.54,-3.58 z"
     title="Balochistan"
     id="PK-BA" />
  <path
     d="m 536.1193,3.7913181 1.05,-0.18 2.42,-1.77 0.76,3.59 2.75,2.58 3.98,-3.71 1.58,0.29 3.12,-0.7 0.75,1.5 2.75,1.51 2.38,-0.38 3.98,1.09 0.32,0.39 -0.82,1.18 1.1,1.5699999 0.22,5.09 1.22,2.41 0.54,0.25 1.19,-0.71 1.23,0.41 -0.16,-1.52 0.75,-0.59 4.1,-0.11 2.99,1.08 2.3,1.58 5.02,4.47 0.54,3.42 1.91,2.44 1.67,4.26 -0.01,0.95 -1.63,2.48 0.2,2.11 0.84,0.21 1.77,2.95 -1.91,0.29 -0.18,1.7 0.68,0.9 -2.06,0.33 -0.16,0.78 -0.97,0.45 0.37,3.08 2.14,2.44 3.49,0.17 2.72,4.12 0.5,4.49 1.81,-0.83 4.91,0.83 1.73,-1.78 2.14,0.01 1.03,-1.05 1.18,0.26 2.37,-1.45 0.9,1.18 -0.49,3.52 0.7,1.62 2.71,1.27 3.34,3.98 3.86,0.14 3.92,3.07 3.99,0.33 1.45,1.56 3.58,1.81 4.86,-0.12 3.44,2.94 5.21,-1.29 2.69,0.9 3.49,-0.17 3.94,-1.73 1.76,0.76 -0.74,-0.02 -6.71,6.35 -19.1,14.72 -3.42,1.44 -1.94,-0.68 -0.8,4.670002 -1.05,0.17 -3.88,-1.73 -2.28,1.74 -2.39,0.41 -0.23,4.06 -2.38,3.78 -4.64,0.06 -3.39,-1.69 -3.41,2.74 -2.7,0.2 -2.17,2.21 -3.95,1.92 -1.4,-0.15 -1.83,-1.39 -1.47,0.28 -1.73,1.89 -1.76,-0.06 -1.07,1.23 -2.92,1.42 -3.63,2.75 -5.17,-1.07 -5.84,-0.22 0,0 -1.1,-1.58 -1.55,-0.63 -1.63,-2.49 -0.37,-1.68 0.56,-4.81 -0.45,-1.39 -2.37,-2.23 -1.07,-2.22 -0.5,-0.03 -1.42,2.27 -0.72,0.21 -0.45,-0.77 -4.37,3.46 -2.11,-3.04 -4.13,-1.25 -2.39,-2.12 -1.26,-0.34 -0.71,1.24 0.1,-4.07 0.82,-2.130002 -4.22,-2.37 -2.61,-2.73 -4.01,2.02 -1.78,1.56 -1.6,-0.26 -1.03,-1.44 -3.42,-0.98 -4.09,-0.32 -3.88,0.85 0,0 -1.79,-1.25 -1.88,0.37 -0.9,-1.23 -2.05,-0.65 -1.54,-1.23 -2.55,0.07 -1.92,-1.41 -2.84,0.77 -1.07,-3.8 0.02,-3.86 0.6,-1.74 1.78,-1.21 1.77,-2.74 -1.02,-0.87 -14.15,-2.4 -5.16,-1.92 -5.61,-4.51 -0.94,-2.42 0.48,-3.73 -1.22,-1.03 -1.12,-0.12 -3.38,1.37 -5.84,-1.05 -5.98,1.79 -3.7,-1.31 -1,-1.67 -1.41,-0.91 2.1,-5.11 -1.87,-3.95 0.97,-2.58 -0.13,-2.76 0.8,-1.88 1.8,-1.18 2.68,0.11 1.25,-1.86 5.48,-3.46 0.94,-3.7 3.27,-0.87 0.17,-1.31 2.76,-1.87 1.45,-3.25 -0.96,-2.95 0.46,-1.16 1.77,-0.28 1.99,-1.26 3.5,0.56 4.17,-1.68 2,-0.26 2.93,1.21 3.1,-0.12 0.89,1.04 2.87,0.22 1.58,-0.84 1.37,0.33 1.2,-0.38 3.1,0.65 0.59,-1.95 -0.88,-2.07 -1.65,-0.57 -0.65,-1.23 -3.27,-0.87 -1.37,-2.07 0,0 -0.73,-0.6799999 0.8,-0.35 1.64,-0.07 1.1,0.58 4.12,-0.4 7.26,2.9999999 3.56,0.24 1.25,-3.2799999 3.88,0.45 6.5,-4.61 3.75,-0.14 0.74,1.63 0.85,0.24 0.51,-3.58 1.53,-0.75 0.33,-1.88 2.45,-0.29 0.85,2.27 z"
     title="Gilgit-Baltistan"
     id="PK-GB" />
  <path
     d="m 469.1193,158.23132 3.87,-1.97 1.7,0.7 3.42,-0.39 1.23,-0.96 1.77,-0.37 2.25,-2.79 0,0 -0.02,4.22 0.91,3.04 2.06,1.02 2.14,5.08 0.65,6.24 -0.45,0.8 -6.43,2.02 -6.17,-1.23 -2.39,-2.9 0.17,-2.83 -0.6,-4.4 -0.73,-1.74 -1.74,2.62 -1.37,0.12 z"
     title="Islamabad"
     id="PK-IS" />
  <path
     d="m 512.3093,94.201318 3.88,-0.85 4.09,0.32 3.42,0.98 1.03,1.44 1.6,0.26 1.78,-1.56 4.01,-2.02 2.61,2.73 4.22,2.37 -0.82,2.130002 -0.1,4.07 0.71,-1.24 1.26,0.34 2.39,2.12 4.13,1.25 2.11,3.04 4.37,-3.46 0.45,0.77 0.72,-0.21 1.42,-2.27 0.5,0.03 1.07,2.22 2.37,2.23 0.45,1.39 -0.56,4.81 0.37,1.68 1.63,2.49 1.55,0.63 1.1,1.58 0,0 -4.41,-0.88 -3.43,-2.28 0.16,-1.34 -0.63,-0.36 -4.16,-0.71 -4.78,0.98 -4.18,-1.95 -2.9,0.26 -4.16,-0.52 -2.2,-0.56 -3.52,-3.25 -7.92,-1.57 -1.32,0.65 -1.32,-0.5 -1.06,1.5 -2.97,1.49 -2.37,2.12 -3.58,0.29 -1.4,-1.16 -2.04,0.62 -1.27,2.37 0.8,3.41 -2.04,1.23 -0.33,1.48 0.46,0.9 -4.71,3.71 -0.53,2.65 0.39,0.46 1.32,-0.33 1.33,0.86 2.23,-1 2.97,4.43 0.01,2.47 -2.3,3.24 -1.21,3.12 -0.1,1.16 0.58,0.8 4.17,0.48 4.55,-1.52 1.46,0.76 2.06,0.01 1.32,1.15 0.48,4.14 -1.6,2.67 -2.96,1.72 -3,0.46 -4.23,4.62 2.79,6.74 0.98,0.44 1.62,-0.24 3.19,4.09 0.34,1.21 -0.63,5.02 -2.62,3.51 -3.2,0.54 -0.23,2.78 3.77,1.56 2.49,2.63 1.13,2.94 1.92,-0.25 3.67,1.49 0.13,1.52 -1.36,2.91 3.71,0.72 1.85,5.14 0,0 -2.59,1.04 -1.11,-0.18 -1.41,-1.94 -12.64,-6.25 -3.16,-3.78 -1.58,-0.05 -2.88,1.21 -1.24,-0.67 -0.91,-1.36 -4.72,-1.91 -0.06,-1.54 1.36,-1.34 -0.05,-1.75 -1.41,-0.96 -0.72,-2.38 0.38,-0.72 -0.62,-1.46 0.3,-0.83 -0.87,-0.27 -0.54,-1.53 1.03,-3.08 1.14,-0.95 -0.71,-1.49 0.12,-0.96 0.78,-0.63 -0.18,-1.96 -2.25,-2.56 0.2,-1.86 0.96,-1.58 -0.24,-2.24 -1,-1.94 0.73,-4.32 -2.15,-4.36 0,0 -0.8,-2.33 -1.73,-11.59 -1.95,-1.9 -0.58,-1.93 1.68,-9.23 0.85,-0.79 4.53,-0.74 1.67,1.12 0.63,-0.14 1.28,-3.69 -0.41,-2.28 1.54,-1.42 0.88,-2.37 4.16,-2.42 2.86,0.01 2.91,-1.91 2.66,-4.14 0.16,-1.9 1.14,-1.050002 -0.9,-1.98 0.14,-1.39 z"
     title="Azad Kashmir"
     id="PK-JK" />
  <path
     d="m 494.2993,10.161318 1.37,2.07 3.27,0.87 0.65,1.23 1.65,0.57 0.88,2.07 -0.59,1.95 -3.1,-0.65 -1.2,0.38 -1.37,-0.33 -1.58,0.84 -2.87,-0.22 -0.89,-1.04 -3.1,0.12 -2.93,-1.21 -2,0.26 -4.17,1.68 -3.5,-0.56 -1.99,1.26 -1.77,0.28 -0.46,1.16 0.96,2.95 -1.45,3.25 -2.76,1.87 -0.17,1.31 -3.27,0.87 -0.94,3.7 -5.48,3.46 -1.25,1.86 -2.68,-0.11 -1.8,1.18 -0.8,1.88 0.13,2.76 -0.97,2.58 1.87,3.95 -2.1,5.11 1.41,0.91 1,1.67 3.7,1.31 5.98,-1.79 5.84,1.05 3.38,-1.37 1.12,0.12 1.22,1.03 -0.48,3.73 0.94,2.42 5.61,4.51 5.16,1.92 14.15,2.4 1.02,0.87 -1.77,2.74 -1.78,1.21 -0.6,1.74 -0.02,3.86 1.07,3.8 2.84,-0.77 1.92,1.41 2.55,-0.07 1.54,1.23 2.05,0.65 0.9,1.23 1.88,-0.37 1.79,1.25 0,0 -2.35,1.63 -0.14,1.39 0.9,1.98 -1.14,1.050002 -0.16,1.9 -2.66,4.14 -2.91,1.91 -2.86,-0.01 -4.16,2.42 -0.88,2.37 -1.54,1.42 0.41,2.28 -1.28,3.69 -0.63,0.14 -1.67,-1.12 -4.53,0.74 -0.85,0.79 -1.68,9.23 0.58,1.93 1.95,1.9 1.73,11.59 0.8,2.33 0,0 -2.24,1.86 -1.57,-0.32 -0.95,0.47 -0.23,0.54 0.71,1.28 -1.6,0.72 0,0 -2.25,2.79 -1.77,0.37 -1.23,0.96 -3.42,0.39 -1.7,-0.7 -3.87,1.97 0,0 -1.87,0.79 -1.1,-1.43 -3.38,-0.28 -0.04,-2.21 -0.9,-1.53 -0.06,-2.75 -0.72,-0.49 -0.17,-1.49 -1.01,0.19 -2.84,3.14 -1.81,-0.11 -1.13,-0.88 0.93,-2.44 -3.32,-0.23 -1.32,-2.53 -1.44,-0.01 -0.57,-1.2 -0.88,0.2 -1.35,0.66 -1.96,2.07 -4.66,1.53 0.32,7.63 -3.32,0.03 -2.65,-0.89 -0.44,1.06 -1.6,0.6 -1.08,3.08 -1.07,1.11 0,3.38 -1.16,1.45 0.27,1.66 -2.21,2.06 -0.97,2.91 -1,0.99 -4.6,1.65 -0.93,1.09 0.33,1.38 -1.03,2.25 2.01,2.67 0.21,1.61 -1.9,2.89 0.22,1.99 -3.69,-1.81 -2.03,-5.12 -1.41,-0.22 -1.63,0.7 -1.88,-1.38 -1.89,0.21 -0.1,1.45 1.4,2.52 -0.55,2.48 1.49,1.23 -0.36,2.08 -2.43,0.62 -1.42,1.22 -1.74,-0.93 -1.3,0.02 -3.54,2.26 -1.4,2.19 -0.16,4.28 -0.83,1.67 2.11,7.9 1.38,0.54 1.63,-0.34 0.84,0.8 0.07,1.08 -0.98,2.23 0.86,0.51 2.14,-1.54 1.53,0.01 0.62,2.25 -0.84,4.89 -2.76,0.32 -0.98,0.61 -2.9,4.18 -0.03,3.35 -2.82,1.85 0.24,2.64 -1.54,4.13 -0.29,2.57 -0.81,1.1 -0.03,1.49 -1.58,1.29 -2.84,5.72 -2.26,2.3 0.08,1.99 -0.73,2.37 -0.86,0.83 -0.07,1.29 1.6,-0.64 0.63,1.44 -0.88,1.36 0.23,2.57 -1.94,0.98 0.49,1.35 -0.93,2.73 -2.42,2.05 -0.73,-2.64 -2.32,1.12 -4.59,-1.43 -4.12,2.04 -0.61,1.59 -1.18,0.57 0,1.12 0,0 -3.04,-12.15 3,-2.61 -3.8,-1.8 -1.52,-2.48 -6.94,-21.99 0.25,-2.1 1.67,-2.23 7.04,-4.52 5.88,-6.47 1.3,-0.37 1.65,0.39 0.71,-1.08 -6.96,-11.08 -0.23,-4.09 1.18,-0.91 2.41,-6.38 2.62,-3.48 0.53,0.73 3.42,0.02 2.81,-0.71 3.83,-3.04 2.24,-3.31 -1.42,-1.06 -4.88,-0.31 -0.53,-1.67 -3.17,-1.06 -2.44,-2.53 -2.3,-3.91 3.67,-0.41 2.38,-2.21 3.23,-0.84 1,-3.84 6.73,1.12 3.28,-0.13 0.91,-0.73 1.59,-0.11 0.56,-2.14 1.26,-1.12 -0.42,-3.04 0.89,-1.03 2.5,1.16 5.38,4.02 3.54,-0.76 4.95,1.05 2.81,-0.1 -0.04,0.74 -1.51,1.6 0.23,1.05 1.13,0.8 3.48,-0.57 5.01,-4.06 -0.89,-2.03 1.72,-2.18 0.16,-1.33 -4.35,-3.38 -1.08,2.07 -2.43,1.68 -2.33,0.78 -3.08,-0.38 -0.67,-1.19 0.28,-2.87 -3.43,-2.22 0.04,-2.95 -2.01,-3.76 0.07,-3.79 2.92,-5.78 2.23,-1.6 2.88,-4.76 1.87,-0.78 2.79,-4.41 -1.88,-3.75 1.13,-1.16 0.86,-3.08 2.57,-1.53 0.24,-2.28 0.98,-2.02 -0.32,-0.86 -1.16,-0.72 -4.26,-0.76 -2.34,-4.8 -2.41,-2.68 0,0 1.25,-2.550002 1.05,-0.27 -1.36,-0.77 -0.67,-2.2 3.16,-2.32 2.78,-3.15 -0.09,-0.89 -1.91,-0.85 -2.74,-3.22 4.04,-5.67 -0.18,-1.17 -1.79,-2.59 0.99,-2.49 -1.1,-1.18 -3.56,-1.37 1.99,-3.97 -0.61,-1.45 -2.55,-1.7 0.92,-1.37 -0.86,-0.77 -0.63,-2.12 -2.9,-2.53 -0.5,-2.35 -0.8,-0.65 -1.35,0.25 -0.56,-0.91 -2.9,-1.75 -0.78,-1.7 1.52,-1.66 0.1,-1.02 1.81,-1.69 1.55,-0.27 1.33,-1.66 2.24,-1.08 0.64,-2.18 5.94,-3 -0.31,-1.23 -1.38,-1.12 1.99,-1.52 0.95,-1.51 0.05,-1.87 2.8,1.28 2.76,2.28 2.38,0.06 0.17,-1.43 -1.67,-0.61 0.52,-3.04 2.98,0.01 1.02,-2.66 3,-0.33 1.79,-1.34 1.45,-0.08 0.24,-2.46 4.25,-0.77 -0.62,-1.39 1.72,-2.88 2.37,0.41 1.33,-0.69 2.06,-0.12 0.81,-0.71 3.25,-0.05 1.94,-2.18 3.34,-1.23 9.71,0.36 7.97,-1.54 3.85,-0.19 5.15,1.22 4.81,-1.49 2.55,0.36 z"
     title="Khyber Pakhtunkhwa"
     id="PK-KP" />
  <path
     d="m 367.8593,273.87132 0,-1.12 1.18,-0.57 0.61,-1.59 4.12,-2.04 4.59,1.43 2.32,-1.12 0.73,2.64 2.42,-2.05 0.93,-2.73 -0.49,-1.35 1.94,-0.98 -0.23,-2.57 0.88,-1.36 -0.63,-1.44 -1.6,0.64 0.07,-1.29 0.86,-0.83 0.73,-2.37 -0.08,-1.99 2.26,-2.3 2.84,-5.72 1.58,-1.29 0.03,-1.49 0.81,-1.1 0.29,-2.57 1.54,-4.13 -0.24,-2.64 2.82,-1.85 0.03,-3.35 2.9,-4.18 0.98,-0.61 2.76,-0.32 0.84,-4.89 -0.62,-2.25 -1.53,-0.01 -2.14,1.54 -0.86,-0.51 0.98,-2.23 -0.07,-1.08 -0.84,-0.8 -1.63,0.34 -1.38,-0.54 -2.11,-7.9 0.83,-1.67 0.16,-4.28 1.4,-2.19 3.54,-2.26 1.3,-0.02 1.74,0.93 1.42,-1.22 2.43,-0.62 0.36,-2.08 -1.49,-1.23 0.55,-2.48 -1.4,-2.52 0.1,-1.45 1.89,-0.21 1.88,1.38 1.63,-0.7 1.41,0.22 2.03,5.12 3.69,1.81 -0.22,-1.99 1.9,-2.89 -0.21,-1.61 -2.01,-2.67 1.03,-2.25 -0.33,-1.38 0.93,-1.09 4.6,-1.65 1,-0.99 0.97,-2.91 2.21,-2.06 -0.27,-1.66 1.16,-1.45 0,-3.38 1.07,-1.11 1.08,-3.08 1.6,-0.6 0.44,-1.06 2.65,0.89 3.32,-0.03 -0.32,-7.63 4.66,-1.53 1.96,-2.07 1.35,-0.66 0.88,-0.2 0.57,1.2 1.44,0.01 1.32,2.53 3.32,0.23 -0.93,2.44 1.13,0.88 1.81,0.11 2.84,-3.14 1.01,-0.19 0.17,1.49 0.72,0.49 0.06,2.75 0.9,1.53 0.04,2.21 3.38,0.28 1.1,1.43 1.87,-0.79 0,0 0.27,6.28 1.37,-0.12 1.74,-2.62 0.73,1.74 0.6,4.4 -0.17,2.83 2.39,2.9 6.17,1.23 6.43,-2.02 0.45,-0.8 -0.65,-6.24 -2.14,-5.08 -2.06,-1.02 -0.91,-3.04 0.02,-4.22 0,0 1.6,-0.72 -0.71,-1.28 0.23,-0.54 0.95,-0.47 1.57,0.32 2.24,-1.86 0,0 2.15,4.36 -0.73,4.32 1,1.94 0.24,2.24 -0.96,1.58 -0.2,1.86 2.25,2.56 0.18,1.96 -0.78,0.63 -0.12,0.96 0.71,1.49 -1.14,0.95 -1.03,3.08 0.54,1.53 0.87,0.27 -0.3,0.83 0.62,1.46 -0.38,0.72 0.72,2.38 1.41,0.96 0.05,1.75 -1.36,1.34 0.06,1.54 4.72,1.91 0.91,1.36 1.24,0.67 2.88,-1.21 1.58,0.05 3.16,3.78 12.64,6.25 1.41,1.94 1.11,0.18 2.59,-1.04 0,0 2.7,2.34 3.2,-0.78 1.05,-1.56 0.02,-1.42 2.13,-0.77 -1.81,5.55 1,2.76 -1.31,2.15 0.39,2.32 1.09,1.01 0.24,2.06 2.33,0.63 3.42,-0.78 5.33,2.21 2.2,-2 2.03,0.53 1.76,2.69 0.76,0.35 1.58,-0.5 0.27,0.87 1.39,0.28 3.83,3.08 0.36,1.96 1.05,0.9 -0.15,1.55 -1.77,1.91 -0.12,1.53 -1.2,0.77 -0.43,1.34 -1.27,1.16 -0.44,0.12 -0.2,-1.27 -1.06,-0.19 -0.39,1.5 -0.8,0.71 -0.78,-0.67 -1.09,0 -0.93,1.06 -3.37,1.39 -3.06,-1.67 -1.11,0.74 -0.96,-0.05 -0.28,1.2 -0.96,0.17 0.21,0.5 -1.06,0.54 -0.36,1.92 -2.37,0.13 -0.46,0.67 -1.03,-0.93 -0.23,1.5 -1.68,0.3 -1.44,1.67 -0.86,-0.21 -0.77,1.93 -0.93,0.66 -0.48,2.37 0.3,1.06 -1.3,0.36 -0.03,1.01 3.23,7.01 0.11,1.52 -1.12,0.59 -0.35,0.87 2.35,0.68 -0.22,0.4 0.82,0.81 -0.64,1.64 -1.19,1.2 -1.66,4.44 -0.83,-0.01 -0.74,1.19 0.43,1.11 -0.81,2.97 0.13,1.94 1.5,0.76 0.33,1.62 1.29,-0.43 0.27,-1.72 1.13,-0.16 0.37,0.71 0.77,-0.62 1.02,0.2 0.66,1.58 -0.86,1.52 -1.92,0.65 -0.87,0.16 -1.61,-1.08 -1.03,2.46 0.24,0.86 -1.6,1.19 -1.01,0.05 -1.93,1.8 -0.18,0.89 -1.95,0.93 -0.1,1.77 -0.79,-0.39 -1.02,0.31 -1.18,2.15 0.45,0.76 -1.36,0.66 0.76,1.69 -1.92,0.48 -3.14,3.89 -1.26,0.02 -0.37,1.18 -0.69,-0.31 0.06,1.67 -0.96,0.92 0.64,0.43 -0.26,0.7 -0.43,0.41 -1.26,-0.71 -1.94,1.59 -0.82,1.92 -1.05,-0.24 -0.29,1.88 -0.95,0.18 -1.24,2.15 1.44,1.43 1.91,3.34 0.33,2.97 -6.93,5.72 -6.81,1.96 -8.5,3.75 -4.65,16.89 -7.04,13.6 -3.45,4.48 -2.26,5.29 -8.91,4.06 -12.63,7.51 -3.2,4.35 -4.55,13.44 -7.29,6.6 -2.42,3.49 -1.39,7.39 -9.25,3.85 -9.61,0.14 -5.29,1.04 -15.04,6.24 -4.9,-0.82 -3.06,-5.3 -0.69,-3.98 -3.79,-3.89 -1.25,-0.55 -1.98,-0.05 -4.37,1.11 -2.44,2.7 -3.71,2.67 0,0 -6.43,-2.93 -3.22,-3.01 -2.36,-4.01 -2.52,-7.01 0.09,-1.5 -1,-0.85 -0.21,-3.19 -1.86,-0.54 -0.66,-2.21 -5.34,-0.89 -0.02,-1.21 -4.14,-0.71 -4.22,1.84 0,0 -1.88,-3.01 -0.12,-1.23 3.39,-1.9 2.51,-3.78 1.96,-4.63 -1.27,-1.98 0.35,-2.92 2.8,-2.59 2.51,-3.9 2.28,-1.29 1.73,-8.31 -0.65,-0.9 -1.65,1.17 -1.54,-2.29 0.76,-1.56 -0.35,-1.16 -3.71,-1.52 1.32,-4.64 -0.07,-4.94 1.2,-1.51 4.37,-1.3 1.22,-2.29 2.42,-1.66 4.9,-10.97 -0.02,-3.13 2.22,-2.24 1.07,-1.94 -0.02,-1.27 -1.21,-0.44 -0.98,0.2 -1.22,1.33 -0.17,-2.16 -1.25,-0.67 1.3,-3.1 0.17,-3.26 4.46,-7.74 -0.86,-1.9 0.34,-2.28 0.47,-0.65 1.78,-0.13 0.39,-1.55 1.52,-0.18 0.41,-2.62 2.49,-0.46 0.11,-1.49 -0.98,-0.64 -0.06,-0.66 0.48,-8.61 0,0 0.74,-0.19 0.18,-0.66 -0.24,-3.48 4.56,-1.13 z"
     title="Punjab"
     id="PK-PB" />
  <path
     d="m 279.6793,595.00132 2.74,-0.55 0.42,2.42 -1.39,3.1 -0.96,0.04 -0.52,-0.63 -2.25,0.41 -0.25,-0.89 1.15,-0.76 0,-2.28 1.06,-0.86 z m 111.99,-25.98 0.3,-3.4 -0.66,-0.78 0.09,-2.45 0.77,-1.32 3.35,-2.12 -1.33,-1.33 -1.91,-4.62 -3.02,-4.81 -1.98,-8.9 -4.94,-5.14 -0.86,-2.38 -2.71,-2.91 0.53,-5.45 -0.45,-0.28 0.19,-5.84 -0.59,-1.56 -1.89,-0.4 -3.13,1.28 -5.28,0.55 -4.64,-1.6 -1.36,-2.78 -2.57,-2.27 -3.17,-5.34 -0.52,-5.54 2.42,-3.95 1.06,-3.38 -0.31,-1.97 0.75,-8.41 -0.62,-2.75 -1.11,-1.02 -2.81,-1.07 -7.23,0.78 -2.47,-0.48 -3.62,-2.65 -7.98,-3.71 -1.23,-2.85 1.14,-9.09 2.51,-6.42 3.4,-3.72 7.58,-6.55 2.87,-4.31 3.1,-2.34 3.54,-9.16 3.84,-5.13 0,0 -6.44,-2.93 -3.22,-3.01 -2.35,-4.01 -2.52,-7.01 0.09,-1.49 -1,-0.85 -0.21,-3.19 -1.86,-0.53 -0.66,-2.21 -5.34,-0.89 -0.02,-1.22 -4.15,-0.7 -4.22,1.84 0,0 -22.99,0.95 -6.73,-0.53 -5.39,0.88 -1.53,1.26 -2.13,3.41 -4.28,1.97 -11.67,9.28 -2.08,3.46 -2.69,0.68 -3.78,2.28 -3.8,1.28 -9.49,1.45 -0.7,0.65 -0.99,4.66 -1.49,2.14 -2.14,1.68 -1.06,3.7 -2.06,2.36 -0.5,5.13 -1.59,4.03 -0.09,1.95 1.16,12.61 -0.59,4.52 0.73,4.61 -0.63,3.89 0.86,5.52 11.06,19.35 -0.91,7.05 0.55,3.11 -0.3,2.74 -1.9,3.54 -0.49,2.63 -3.29,2.61 -0.64,2.63 -1.9,0.89 -2.46,4.34 0.18,3.49 -1.19,2.86 -2.26,1.51 -1.86,2.48 -0.13,2.66 -3.16,3.47 -2.95,0.41 -3.8,2.5 -2.19,2.57 0,0 0.14,0.42 -1.19,0.17 -1.02,1.07 -0.19,0.75 0.47,0.54 2.38,-0.42 0.94,-0.72 2.76,0.6 0.46,-0.9 0.77,-0.07 2.24,0.87 2.7,2.35 -0.77,-1.73 -1.64,-0.81 -0.14,-0.61 1.97,-0.48 0.09,0.77 0.49,-0.11 0.17,1.72 1.49,0.35 2.18,2.47 0.91,-0.6 -0.65,-1.33 1.33,0.68 2.68,-1 1.43,0.49 0.33,1.31 -2.47,1.55 1.11,1.8 -0.96,0.65 0.41,0.8 1.9,0.23 0.24,1.75 -0.85,2.21 1.55,1.66 -0.29,0.98 1.72,1.96 0.43,3.2 1.62,0.9 -1.54,0.54 0.24,0.46 -0.81,0.59 0.81,2.18 1.34,0.68 -0.57,1.43 1.32,2.36 0.18,2.27 0.95,0.64 0.33,2.91 1.5,0.59 0.31,0.77 1.73,0.27 -0.54,1.85 1.68,0.68 1.08,-0.4 0.62,1.39 2.06,1.51 1,0.09 0,1.24 0.76,0.36 2.13,-0.23 -0.46,-1.06 0.83,-0.03 1.57,1.15 0.15,-0.41 1.67,0 0.42,-3.78 1.09,0.43 2.42,2.89 0.76,-0.35 0.6,0.84 -0.43,1.25 0.81,0.88 1.1,-0.98 0.04,0.65 0.72,0.34 0.81,-0.85 -0.1,-4.73 1.82,2.58 4.17,-0.54 0.22,-1.19 1.85,-0.89 1.5,-1.61 1.7,0.55 0.25,-1.73 1.55,-1.02 0.68,1.14 1.05,-1.18 0.83,0.22 2.14,-0.88 0.69,2.63 1.28,-0.57 7.82,0.05 0.58,-13.57 2.41,-1.02 0.83,4.22 1.19,0.48 0.75,-0.08 0.78,-2.29 1.12,-0.99 0.9,1.65 1.16,0.49 3.57,-1.82 4.13,1.43 4.27,-1.75 2,0.44 2.69,-0.31 2.69,0.79 3.85,-0.96 4.79,4.33 9.83,0.42 1.76,-0.18 1.36,-0.99 2.31,-4.13 9.72,-2.65 7.34,-2.75 2,0.76 -1.54,2.36 0.59,1.45 -0.59,0.7 0.6,0.35 -0.52,1.4 3.14,1.15 5.82,0.1 3.42,-1.45 -0.35,-1.42 2.89,-2.34 1.5,-0.6 0.56,0.58 1.32,-0.02 1.59,-1.44 1.42,-0.48 0.35,-0.88 -0.59,-0.73 -4.37,-0.59 z"
     title="Sindh"
     id="PK-SD" />
  <path
     d="m 411.8293,101.60132 2.41,2.68 2.34,4.8 4.26,0.76 1.16,0.72 0.32,0.86 -0.98,2.02 -0.24,2.28 -2.57,1.53 -0.86,3.08 -1.13,1.16 1.88,3.75 -2.79,4.41 -1.87,0.78 -2.88,4.76 -2.23,1.6 -2.92,5.78 -0.07,3.79 2.01,3.76 -0.04,2.95 3.43,2.22 -0.28,2.87 0.67,1.19 3.08,0.38 2.33,-0.78 2.43,-1.68 1.08,-2.07 4.35,3.38 -0.16,1.33 -1.72,2.18 0.89,2.03 -5.01,4.06 -3.48,0.57 -1.13,-0.8 -0.23,-1.05 1.51,-1.6 0.04,-0.74 -2.81,0.1 -4.95,-1.05 -3.54,0.76 -5.38,-4.02 -2.5,-1.16 -0.89,1.03 0.42,3.04 -1.26,1.12 -0.56,2.14 -1.59,0.11 -0.91,0.73 -3.28,0.13 -6.73,-1.12 -1,3.84 -3.23,0.84 -2.38,2.21 -3.67,0.41 2.3,3.91 2.44,2.53 3.17,1.06 0.53,1.67 4.88,0.31 1.42,1.06 -2.24,3.31 -3.83,3.04 -2.81,0.71 -3.42,-0.02 -0.53,-0.73 -2.62,3.48 -2.41,6.38 -1.18,0.91 0.23,4.09 6.96,11.08 -0.71,1.08 -1.65,-0.39 -1.3,0.37 -5.88,6.47 -7.04,4.52 -1.67,2.23 -0.25,2.1 6.94,21.99 1.52,2.48 3.8,1.8 -3,2.61 3.04,12.15 0,0 -0.88,1.18 -4.56,1.13 0.24,3.48 -0.18,0.66 -0.74,0.19 0,0 -0.96,-2.91 1,-6.38 -0.19,-7.96 -0.73,-1.05 -2.82,2.43 -2.79,0.32 -1.14,3.6 -0.86,0.62 -1.14,-6.48 -1.73,-1.78 -1.52,-0.54 0.22,-9.79 0.81,-6.84 -0.32,-0.39 -2.49,1.99 -1.29,-0.84 1.42,-3.64 -2.77,-1.78 1.14,-3.85 -5.75,0.94 -1.52,2.84 -3.33,2.6 -1.12,-0.6 -7.34,0.28 0,0 -0.88,-2.33 -1.07,-7.23 0.31,-9.35 -1.55,-4.79 1.72,-3.26 3.87,-1.54 3.12,-4.44 -0.59,-1.27 0.02,-1.79 -1.87,-1.65 1.78,-1.3 1.03,-2.21 2.29,-1.06 -1.65,-3.49 0.46,-3.46 0.35,0.23 3.02,-3.3 -0.42,-0.59 4.81,0.33 3.17,-1.7 3.44,1.46 1.6,-0.38 1.13,-1.14 2.98,-0.67 1.71,-3.23 1,0.93 2.47,-0.22 1.05,-0.96 -0.54,-0.89 2.45,-1.4 2.2,-2.67 1.64,0 -0.23,-0.59 0.59,-0.38 -0.55,-1.08 0.54,-1.01 -1.07,-1.88 -1.64,-0.61 -0.68,-1.2 -0.97,-0.25 -1.28,-2.25 0.88,-5.32 -0.66,-0.71 -1.41,-0.05 -0.42,-3.13 -1.21,-0.59 -2.45,0.39 -2.15,-0.44 -1.2,-1.23 -0.08,-2.58 -2.32,-3.88 -1.53,-1.29 0.53,-1.67 0.97,-0.58 -0.01,-1.75 3.88,-0.46 2.51,1.44 3.63,-0.02 2.7,1.22 1.55,-0.33 1.83,0.79 3.87,0.14 0.36,1.08 2.53,0.41 0.63,-0.21 0.11,-0.85 0.73,0.24 2.12,-0.86 6.73,0.44 2.18,-1.25 2.35,0.23 1.27,-1.53 5.7,-1.95 0.43,-0.5 -0.14,-2.01 0.81,-0.23 1.91,-2.27 -0.21,-1.81 0.55,-1.2 -0.98,-0.6 -0.17,-1.4 1.9,-3.35 0,-0.9 -3.68,-1.75 -2.68,-3.05 -0.43,-4.37 1.25,0.83 0.81,-1.09 1.9,-0.95 1.18,-2.14 -0.84,-1.36 0.21,-1.29 5.04,-2.92 -0.42,-0.87 0.57,-1.27 1.28,-0.66 1.17,-3.46 0.73,0.31 4.39,-2.78 2.55,-0.74 z"
     title="Federally Administered Tribal Areas"
     id="PK-TA" />
</svg>
