<?xml version="1.0" encoding="UTF-8" standalone="no"?>
<!-- Created for MapSVG plugin: http://mapsvg.com -->
<svg
   xmlns:mapsvg="http://mapsvg.com"
   xmlns:dc="http://purl.org/dc/elements/1.1/"
   xmlns:rdf="http://www.w3.org/1999/02/22-rdf-syntax-ns#"
   xmlns:svg="http://www.w3.org/2000/svg"
   xmlns="http://www.w3.org/2000/svg"
   mapsvg:geoViewBox="50.749718 26.184377 51.647507 24.464491"
   width="290.82999"
   height="613.034">
 
  <path
     d="m 232.67,361.91146 -12.7,5.16 0,0 -10.85,-17.7 11.62,-7.36 11.93,19.9 z m 43.17,-22.2 0.09,0 0,0 -0.09,0 z m -37.32,-1.21 -1.38,1.44 -4.31,-6.52 1.92,-1.1 3.77,6.18 z m 51.16,-21.82 0.9,0.79 0,0.99 -0.54,0.49 -0.54,0 0.81,-0.69 -0.45,-0.89 -1.71,-0.1 1.53,-0.59 z m -20.58,-18.19 1.26,0.59 -0.09,3.96 -2.61,-1.58 -2.52,-0.59 0.9,-1.78 1.53,0.69 1.53,-1.29 z m -6.2,-22.55 0.18,0.79 3.33,1.39 0.72,0.79 0.18,1.48 -1.98,0 -1.08,0.99 -0.09,-1.98 -1.08,-0.59 -0.18,-1.29 -0.72,-0.59 0.72,-0.99 z m 12.94,63.77 -10.34,0.88 -8.87,2.87 0,0 -0.32,-1.54 -2.01,-0.38 -5.19,-2.75 -8.08,-5.82 -3.27,-1.8 3.95,-3.07 -6.93,-9.05 -2.02,-10.48 -1.72,-4.84 -4.35,-8.81 0,0 -0.49,-2.05 0,0 15.33,-10.03 -2.28,-6.24 -4.25,-20.45 11.84,0 0,0 0.54,2.95 6.02,4.65 0.99,0.3 0.63,-0.59 1.08,0.3 1.35,-0.89 -0.27,1.19 -0.81,0.1 0.45,1.29 -0.63,-0.4 -0.81,0.3 -5.03,-3.86 -2.16,-0.4 0.99,1.19 0.54,2.28 0.99,0.4 0.36,0.69 0.54,-0.1 -0.27,2.08 -0.54,0.4 0,0.5 0.54,0.2 0.09,1.39 -0.63,1.98 -0.18,-0.4 -0.72,0.1 -0.18,0.69 0.36,2.08 0.81,2.18 0.45,0.1 -0.45,3.86 0.81,2.47 -0.18,1.38 1.17,2.47 2.97,-0.69 0.27,0.3 -2.16,1.98 -0.09,0.69 -1.62,0.4 -0.27,1.58 1.35,1.39 -0.09,0.79 -2.43,-0.89 -0.18,1.09 -0.72,0.3 0.27,0.99 0.9,0.2 0.09,0.99 -0.99,0.5 -0.09,0.49 1.62,0.5 0.36,0.59 0,-0.99 1.26,0 0.18,0.79 -0.72,2.27 -2.07,1.88 -0.18,1.88 0.63,0.99 0.81,0.3 3.14,-0.4 1.71,2.57 -0.09,0.69 -0.9,0 0,2.08 -2.34,0.59 -1.89,-0.1 -1.71,1.48 -0.36,1.78 -0.45,0.3 -0.09,1.98 1.35,1.68 1.62,0.89 1.8,0.49 0.72,-1.28 0.36,0.4 -0.18,0.89 0.9,0.3 0.18,-1.38 2.25,-0.4 -0.54,-1.19 0.36,-0.59 0.54,0.1 0.36,0.89 0.81,-0.3 -0.18,-2.08 2.79,-1.28 0.99,2.17 -1.08,0.49 -0.81,-1.68 -1.17,0.49 1.35,3.16 -0.27,0.59 -0.54,-0.1 -0.45,-0.99 -0.36,0.49 -0.99,0 0,0.69 0.72,-0.2 -0.63,0.59 0.18,0.89 0.63,0.49 1.26,-0.1 0.09,0.79 0.81,0.4 0.99,-0.49 -0.81,-0.2 -0.09,-0.49 0.99,-0.3 0.54,0.5 0.54,-1.19 1.35,-0.89 -0.09,-0.79 1.8,1.09 0.99,-0.1 0,-2.08 0.36,-0.2 1.17,0.79 -0.54,2.07 0.18,1.78 0.99,0.1 0.09,0.89 0.9,0.3 1.17,-0.59 0.63,0.2 2.7,-3.16 0.9,-2.37 1.89,-0.59 0.9,2.47 0.72,0.69 0.27,1.68 2.61,6.62 1.08,1.28 0.09,1.58 -5.75,-14.03 -1.53,0.4 -0.72,1.98 -2.52,3.36 2.52,-1.58 1.17,1.19 -0.45,0.59 1.8,2.37 -0.54,1.48 0.45,2.47 -0.63,0.59 -0.36,2.27 3.77,0.4 2.16,0.99 0.72,-0.4 0.09,0.4 -0.81,0.3 -2.16,-0.99 -3.95,-0.39 0.09,2.27 -1.08,0 -1.17,0.89 0.81,0.69 -0.18,0.69 -0.81,0.2 0.92,3.34 z"
     title="Ad Dawḩah"
     id="QA-DA" />
  <path
     d="m 267.21,153.37146 -0.18,1.39 -0.63,0 0.09,-0.99 0.72,-0.4 z m -0.35,-1.78 -0.45,1.59 -0.36,-1.19 0.81,-0.4 z m 6.38,-0.5 0.54,0.4 -2.16,1.89 -1.98,0.89 0.17,-0.88 1.27,-0.01 1.35,-2.08 0.81,-0.21 z m -58.77,-70.219996 0,-0.1 0,0 0,0.1 z m 0,0 2.34,1.69 5.03,2.09 0.09,0.4 1.35,-0.2 0.36,0.5 2.88,0.1 0.99,-1.09 0.99,0.3 0.99,-0.5 -0.09,-1.69 0.72,1.59 -1.53,0.99 10.15,-1.99 0.36,-2.58 0,2.68 2.61,-0.2 0.27,0.4 5.3,1.09 3.15,2.09 3.95,4.27 3.15,1.79 1.08,-0.2 3.95,1.69 3.95,2.38 0.9,-0.3 8,-7.45 1.08,0.1 6.29,2.88 0,0.4 -0.45,0 -5.3,-2.48 -1.53,-0.3 -3.23,2.98 -0.18,0.99 4.22,-1.39 1.17,1.89 -1.44,0.5 -0.54,-0.9 -1.08,0.3 -0.63,-0.4 -1.53,0.89 -3.68,3.18 0,0.6 0.63,0.4 -0.27,1.59 1.35,-0.2 9.44,-4.97 -0.54,-1.29 0.81,1.09 1.17,-0.6 0.18,-0.69 0.09,0.8 -11.14,5.959996 -1.98,0.2 -0.81,0.6 0.18,1.89 -0.36,0.2 -0.45,3.58 0.27,4.07 0.9,0.99 0.36,3.97 0.81,0 -0.36,1.99 0.81,0.3 0.45,1.39 1.8,0 -1.71,0.3 0.81,2.88 -0.09,1.29 0.45,0.6 0.18,7.35 0.81,2.38 0.36,0 1.8,3.77 0,2.09 -0.81,1.09 -0.45,3.18 0.54,0.3 0,0.89 -1.08,1.49 0.72,1.29 -0.09,1.09 -1.8,1.89 -0.36,1.59 -1.44,0.2 -0.45,1.59 -1.17,0.6 -0.78,-0.97 1.23,-2.01 -0.99,0.1 -0.18,0.7 -0.27,-0.99 0.81,-1.09 -0.27,-1.49 0.54,-0.79 -1.62,-1.49 -1.26,0 0.9,0.99 -2.61,4.17 -0.27,3.37 -1.89,3.67 -2.16,0.1 -1.35,-1.49 -2.52,-1.19 0.18,2.18 0.63,0.89 1.26,-0.69 1.35,0.99 0.81,1.79 2.61,1.09 0.27,0.6 0.72,-0.3 1.89,0.69 0.27,0.69 0.09,-1.98 0.81,-1.09 1.08,0 0.18,-1.49 1.08,0 0,0.7 0.63,0.6 1.71,0.79 -0.72,1.19 2.88,2.78 0.18,1.39 -0.63,0.99 0.18,2.08 -0.54,-0.1 -1.26,1.89 0,0.79 0.72,0.6 -1.89,0.59 -0.72,0.89 0.09,1.19 1.26,0.1 -1.08,0.2 -0.18,0.79 1.35,-0.2 -1.17,0.79 0,2.38 -0.36,0.79 -1.53,0.59 0.27,1.29 -1.71,-1.39 -0.63,0.4 -0.63,-1.09 -1.17,-0.5 -5.48,0.5 -0.63,-2.38 0.81,-0.3 0.72,0.6 0.36,-0.2 -0.81,-1.39 -0.63,-1.29 0.27,-0.4 1.62,0.4 0.09,-0.4 -1.26,-2.08 -1.62,-0.69 0.09,-0.69 -0.9,0.5 -1.44,-0.2 -1.35,0.99 -0.72,-0.1 -2.06,1.29 -0.9,0.1 -1.08,1.09 -0.63,-0.89 -0.72,0 -2.6,1.39 -0.36,0.6 1.35,1.59 1.62,0.1 0.72,-0.69 0.27,1.19 3.15,-0.1 0.27,1.78 0.81,-1.39 3.23,0.2 -0.54,2.58 -1.35,0.2 -0.63,1.29 0.27,1.19 1.26,0.7 -0.18,1.79 0.81,0.1 0.54,-0.59 1.71,0.2 0,0.99 1.44,-0.59 0.27,0.69 1.26,0.2 -0.09,1.39 -1.17,1.49 0.54,4.76 -1.62,1.49 0.36,1.19 0,0 -7.65,-2.87 -10.16,-0.51 -11.43,-5.6 -4.27,2.55 -2.66,0.64 -7.16,7.13 -2.31,0.64 -1.96,-0.13 3.93,20.5 0,0 -30.94,1.78 -17.13,-10.16 0,0 -7.39,-12.22 4.86,-15.55 0.71,-10.5 -0.27,-2.46 4.8,-5.32 -51.19,-0.02 0,-20.4 -42.8,0 0,0 -0.72,-1.35 -0.63,-3.47 2.43,-0.89 1.08,-2.08 -0.36,-1.79 -1.71,-0.2 1.17,-3.18 -0.63,-1.59 0.27,-0.89 -0.9,-0.3 0.09,-1.09 -1.08,0 -0.27,-0.5 -1.71,0.4 -1.62,-0.2 -0.99,0.79 -0.27,-0.89 -0.63,0.1 -0.36,-1.19 -0.81,0 -0.63,-0.6 0,-1.19 -0.9,0.1 0.99,-0.6 -0.18,-2.68 1.08,-2.4 0,0 50.1,0 0,-36.329996 49.11,0 0.4,19.489996 23.92,-0.08 1.63,16.51 1.58,-0.3 19.42,0.47 -0.18,-39.469996 z"
     title="Al Khawr wa adh Dhakhīrah"
     id="QA-KH" />
  <path
     d="m 85.88,65.271464 1.62,0.9 0.18,0.7 -0.45,0.3 -1.62,-0.3 -0.27,-1.09 0.54,-0.51 z m 23.01,-26.56 0.18,0.4 -0.54,0.5 -0.27,-0.8 0.63,-0.1 z m 40.34,-24.19 0.18,0.4 -1.08,0.2 0,-0.6 0.9,0 z m 12.76,-4.5799998 2.61,0.9999998 0.36,0.6 0.45,0 -0.18,-0.9 0.36,0.3 1.62,-0.5 0.18,0.6 -1.17,-0.1 0.09,1 -0.54,-0.9 0.27,1.89 2.34,0.5 0.72,0.5 -0.27,0.4 1.53,0.5 0.54,1 2.79,0.5 2.16,1.19 1.35,-0.2 4.22,1.59 1.71,1.2 0.9,1.39 2.97,1.19 0.99,1.59 0.99,0.3 0.72,-0.3 0.18,1.19 1.62,1.49 1.44,0.2 1.35,1.39 2.88,1 0.63,1.59 -1.17,4.78 0.09,1.59 0.99,2.49 -0.99,1.39 0,1.39 2.34,0.1 0.36,0.9 -1.26,-0.7 -1.62,0.4 0.27,3.98 2.07,3.38 0.9,0.4 1.08,2.69 3.5,3.18 -0.36,0.5 -0.18,-0.5 -1.44,-0.6 -0.18,0.8 1.62,1.69 6.47,3.78 0.45,4.97 -0.54,3.08 0.72,2.39 0,4.97 0.72,1.19 0.99,0 1.88,1.39 0,0 0.01,0.1 0,0 0.15,39.459996 -19.42,-0.47 -1.58,0.3 -1.63,-16.51 -23.92,0.09 -0.4,-19.489996 -49.11,0 0,36.249996 -50.16,0 0,0 -0.18,-1.27 -0.81,-0.6 0.09,-0.79 2.16,-1.89 0.45,-1.09 -0.63,0.4 0,-0.6 0.9,-1.99 0.54,-0.3 0.54,0.3 -0.27,1.29 0.45,1.39 1.17,0 2.25,-1.39 0.18,-0.7 -1.35,-1.29 -0.09,-0.79 -1.71,-0.99 -0.45,-0.89 1.17,-0.5 0.18,-1.29 1.35,-0.6 -0.18,-2.28 -0.54,-0.5 1.35,0.4 1.17,-0.3 1.08,-0.99 -0.18,-0.79 0.99,-0.2 0.54,-1.49 -0.18,-1.189996 0.45,-0.1 -0.54,-1.19 0.45,-0.1 0,-1.09 0.99,-1.09 -0.36,-2.09 0.54,-0.5 -0.63,-0.69 -0.63,-3.18 0.45,-3.38 -0.63,-1.59 0.45,-1.59 -0.27,-0.99 -1.08,-0.4 0.09,-3.18 -0.63,-0.6 -0.45,-2.09 0.9,-0.99 0,-2.09 0.54,0.4 0.27,-0.79 0.72,-0.2 0.36,0.99 0.9,0.7 0.81,-0.7 0,0.5 -1.08,0.9 0,0.6 1.08,1.09 0,1.29 -0.63,0.3 0.54,0.5 0.09,1.09 0.81,-0.2 0,1.09 0.54,0.89 0.63,0.1 -0.09,0.6 0.45,-0.3 0.81,0.3 -0.09,-0.99 0.63,-0.3 0,-0.52 0.54,0 0.99,-1.09 0.45,0.4 1.89,-1.39 -0.45,-0.6 0,-1.79 0.81,-0.9 -0.36,-2.98 0.54,-0.2 1.26,0.79 1.89,-0.4 0.63,-0.79 -0.09,-0.5 -1.17,-0.6 0.54,-1.89 -0.54,-0.89 0.36,-1.49 -0.54,-0.5 1.08,-1.69 -0.36,-1.59 1.17,0.2 0.27,-0.4 0.09,-1.39 -0.81,-1.29 0.36,-0.5 -0.36,-1.19 0.72,-0.2 0.27,-1.19 -0.45,-0.7 0.81,-0.8 -0.45,-0.3 -0.27,-2.09 -1.62,-0.9 0.09,-0.4 2.25,-0.1 0.45,-0.6 1.17,-0.1 1.53,-1.19 0.72,0 0.18,-0.5 4.22,-0.9 2.43,-1.19 1.98,-1.69 -0.18,-1.09 1.44,-1.29 0.72,-1.49 2.07,0.2 0,0.8 1.26,0.8 1.98,-0.89 0.27,-1.29 0.99,-0.1 1.35,-2.39 2.07,0.3 0,0.7 0.9,0.9 0.18,1.49 1.26,0.3 1.35,-0.4 0.99,-1.09 1.98,-0.8 4.58,-3.08 0.63,-0.99 -0.09,-2.09 1.08,-1.49 -0.54,-1.09 0,-1.39 0.63,-2.39 4.04,-3.28 1.26,-0.2 0.09,-0.9 1.71,-0.5 0.9,-1.1 0.99,-0.2 0.9,-2.39 -0.99,0 -0.9,-1.29 0.36,-0.9 0.81,-0.2 0.54,-1.49 0.63,0.1 0.09,2.59 0.54,0.3 2.34,-0.7 3.32,0.2 1.08,-0.5 0.36,-0.9 0.72,-0.4 1.26,0.5 0.9,1.1 1.44,0 2.43,-1.49 0.63,-1.79 1.26,-1.49 0,-0.7 1.62,-0.8 1.69,-0.2299998 z m -12.04,-9.16 0.9,1.99 0.9,0.4 2.16,-0.1 4.31,-1.49 1.71,0.4 1.53,1.2 -2.43,-1.1 -1.35,0 -1.71,0.5 -0.36,0.5 -2.43,0.4 -1.71,1.19 0,1.79 -0.62,-1 0.18,-1.69 -0.9,-0.6 0.27,-0.53 -0.27,0.03 -0.45,-0.7 0.27,-1.19 z"
     title="Ash Shamāl"
     id="QA-MS" />
  <path
     d="m 10.67,234.66146 0.27,0.69 -0.54,0.1 -0.27,-0.59 0.54,-0.2 z m 44.39,-33.09 0.45,0.79 0.63,0 0.18,0.6 0.9,0.3 0.18,1.29 -0.9,-0.3 -0.45,-1.09 -0.81,-0.1 -0.45,-1.09 0.27,-0.4 z m 4.41,-66.76 1.71,0.7 0.81,-0.2 0.81,1.79 0.72,0.2 0.45,-0.5 0.63,1.89 1.44,1.79 0.72,0.1 -0.18,0.79 0.63,0.1 0.54,1.19 0.45,0.1 -0.27,0.99 0.54,0.99 -0.09,1.09 -1.71,2.08 0,3.47 -0.81,-0.49 -0.45,0.4 0.18,0.7 0.36,-0.6 1.17,0.5 -0.18,-0.89 0.36,-0.3 1.8,0.2 1.62,-0.6 0.36,-0.69 -0.27,-1.49 1.98,0.3 1.71,-0.89 1.26,-1.33 0,0 42.8,0 0,20.4 51.19,0.02 -4.8,5.32 0.27,2.46 -0.71,10.5 -4.86,15.55 7.39,12.23 0,0 -0.05,70.06 21.95,0.54 9.12,1.02 12.59,4.32 0.02,8.21 6.78,0.1 -1,-4.54 1.06,-0.42 3.27,0.21 1.59,1.38 1.34,3.12 3,-1.71 0,0 4.35,8.81 1.72,4.84 2.02,10.48 6.93,9.05 -3.94,3.07 3.27,1.8 8.08,5.82 5.2,2.75 2.01,0.38 0.32,1.54 0,0 -3.87,1.25 2.4,8.26 -9.78,4.33 -12.7,4.6 0,0 -11.93,-19.9 -11.62,7.36 10.85,17.7 0,0 -2.15,1.61 -9.63,4.12 6.2,6.6 -0.11,24.2 -2.23,-1.18 -29,-9.82 -32.94,-9.38 -0.23,41.87 -32.1,0 0.44,157.65 0.48,29.68 0,0 -5.31,0.32 -33.6,-11.48 -22.4,-15.65 -23.21,-47.19 -15.24,-23.89 5.08,-1.26 4.39,-3.32 6.11,-3.44 1.44,-2.07 1.35,-5.9 1.26,-1.38 0.36,-3.84 -1.17,-3.35 -0.63,-0.1 -2.43,-3.15 -1.08,-3.94 0.18,-1.87 1.17,-1.38 -0.09,-1.58 1.08,-4.43 0,-1.08 -1.26,-1.87 0.72,-0.89 0.09,-3.15 0.9,-0.79 -0.9,-0.59 0.27,-2.66 -0.81,-0.98 0.27,-3.74 -0.18,-0.49 -0.72,-0.1 -0.18,-1.08 -1.8,-1.77 0.36,-2.76 -2.34,-1.87 -0.72,-1.28 -0.72,-0.2 -0.36,-1.87 -0.99,-0.69 -1.62,-0.1 -0.99,-1.18 -1.35,-6.31 -2.61,-1.68 -0.54,-1.67 -1.26,-0.49 -2.34,-3.15 -0.09,-1.08 -1.35,-0.99 -0.27,-4.14 0.54,-1.77 -0.45,-0.59 0.09,-3.65 1.35,-3.25 -0.45,-0.49 0.9,-1.58 2.88,-2.56 0.72,-1.48 -0.81,-6.71 -1.71,-3.95 0,-2.07 -1.89,-2.27 -0.54,-1.38 -2.52,0.99 0.27,-0.59 2.07,-0.59 -0.63,-1.48 -3.15,-3.75 -4.13,-2.66 -0.9,-1.78 0.27,-4.14 0.81,-3.36 -0.18,-1.97 0.63,-1.78 -0.63,-1.78 0.72,-2.17 -0.36,-2.76 -2.25,-6.91 0.18,-0.59 -0.63,-0.2 0.36,-2.17 -0.9,-3.46 1.08,-2.57 0,-0.49 -0.63,-0.2 0.09,-1.68 -0.72,-0.89 1.26,-6.62 -1.17,-1.48 0.36,-0.89 -0.81,-4.05 0.27,-2.96 -0.54,-1.58 0.72,-1.38 -0.45,-3.16 0.27,-3.66 1.53,-2.27 0.36,-3.46 -1.08,-6.62 0.27,-2.67 -0.63,-0.59 0.36,-2.47 -0.27,-3.66 -0.45,-0.3 -1.08,0.4 -0.36,-0.49 0.99,-1.38 0.09,-2.67 -0.54,-0.59 0.45,-0.89 -1.17,-7.62 1.08,-0.89 0.45,-1.19 -1.44,-2.08 -1.89,-0.59 1.98,-4.35 -1.44,-2.27 -1.35,0.5 -0.22,-0.98 0,-1.19 1.89,-3.46 -0.45,-2.67 1.17,-2.57 1.17,-4.55 0.09,-3.36 2.43,-6.14 -0.45,-0.79 0.18,-1.88 -0.81,-1.68 -1.35,-0.99 -1.35,1.49 -0.45,-1.58 1.26,-0.89 1.17,-1.88 3.69,-1.68 0.45,-0.89 1.62,-0.4 0.99,-1.29 1.35,-0.3 0.99,-1.09 -0.9,-0.4 0.36,-1.09 3.06,0.49 1.98,3.76 1.26,0.79 0.54,3.47 0.9,1.19 -0.36,0.79 0.36,1.58 2.34,0.89 0.72,3.17 -0.9,1.39 0.45,0.79 0.63,5.05 3.23,1.68 0.45,-0.5 1.26,0.2 2.88,-1.68 0.27,-0.99 -0.72,-0.69 0.45,-0.99 -1.08,-0.59 -0.54,0.2 -0.18,-1.39 -1.53,-1.19 -0.54,0.1 -0.27,-1.19 -0.9,-0.89 0.63,-0.3 -0.18,-0.49 1.08,0.3 0.72,-0.49 0.63,0.3 0.54,-0.3 -0.09,-0.69 -1.71,-1.98 0.18,-0.3 -1.89,-1.68 1.35,-1.29 0,-1.39 -1.62,-2.18 -0.99,-0.5 -0.63,-2.08 -2.16,0.2 -0.36,-0.49 0.36,-2.08 1.35,-2.77 -0.27,-1.19 2.16,-0.79 1.71,-3.17 0,-1.09 -1.08,-1.19 0.18,-0.69 1.26,-0.89 -0.27,-2.58 -0.45,-0.4 0.27,-0.79 -2.87,-6.04 0.72,-0.4 -0.18,-1.39 -1.26,-0.79 -2.52,0.1 -3.23,2.58 -1.35,-0.59 -0.99,0.1 -0.63,-0.59 0,-1.09 -0.9,-0.2 -0.36,-0.59 1.98,-3.57 -0.27,-0.4 0.72,-1.68 0.9,-0.2 0.72,0.5 0.9,-0.79 1.62,0.1 0.72,-0.59 -0.09,-1.09 0.54,-0.3 0.99,0.2 0,0.5 -0.72,0.5 0.18,0.69 0.9,-0.4 0.72,-1.78 1.53,0.4 2.25,-0.4 0.54,1.19 1.71,1.88 0.36,-0.1 -1.98,-2.18 -0.36,-1.39 2.25,-0.1 1.44,0.59 -0.09,-0.5 -1.8,-0.69 -0.09,-0.79 0.54,0.1 -0.54,-0.99 -1.44,-0.59 1.89,-0.5 0.27,-0.89 0.54,-0.2 -0.81,-1.09 0,-0.69 0.81,-0.5 -0.81,-1.59 0.27,-0.99 0.81,-0.6 0.81,0.2 -0.45,0.5 -0.09,1.39 0.9,2.78 2.25,0.3 0.45,-0.5 1.53,-0.1 0.81,0.5 0.63,1.49 -0.18,0.69 0.9,0.2 0.36,0.69 0.54,0 0.18,-0.79 0.45,-0.1 1.98,0.79 -0.18,2.18 -0.36,0.2 0.36,1.59 -0.54,1.49 -1.26,1.39 0.18,1.29 -0.9,2.08 0.09,0.99 -1.26,2.68 -1.26,0.59 -1.53,2.38 0.45,0.79 -0.27,2.58 1.53,0.99 1.62,-0.3 -0.09,1.39 0.81,1.88 -1.35,6.74 0.81,0.79 0.63,-0.59 2.16,-0.3 0.36,0.99 -0.63,-0.1 -0.09,0.59 0.72,1.09 1.26,-0.4 0.18,0.5 1.89,0.1 0.09,1.58 1.53,0.69 1.17,1.39 -0.63,2.87 3.6,2.48 0.18,-0.59 0.81,0.1 0.09,-0.89 -1.98,-2.08 0.18,-0.69 1.98,-1.39 0.63,-2.18 -0.81,-1.39 -0.99,-0.5 -0.36,-1.19 1.35,-1.19 -0.18,-1.98 0.72,-1.29 0,-2.67 2.16,-2.18 -1.62,-2.38 0.45,-1.19 -0.81,-1.19 1.35,-0.5 -1.08,-0.69 1.44,0 2.07,-2.28 -1.08,-0.2 0.36,-0.99 -1.26,-0.99 1.44,-1.59 -0.09,-0.4 1.53,0.3 1.44,-1.68 -0.36,-1.19 -1.08,-0.59 0.63,-0.5 0.54,0.3 0.9,-0.4 0.27,1.88 1.53,0.4 0.36,-0.99 -0.18,-0.69 -0.54,-0.1 0.09,-0.79 0.27,-0.2 0.36,0.7 0.54,-0.49 -0.27,1.98 1.35,1.19 0.63,1.98 0.99,0.1 0.72,1.19 3.95,-0.3 1.53,-1.49 -0.54,-3.47 -1.17,-0.69 0.45,-1.19 1.44,-0.79 0.99,-1.98 1.26,-0.59 0.36,-0.99 -0.72,-0.79 0.18,-0.99 -0.9,0.3 0.18,0.69 -0.54,1.09 -2.78,1.39 -1.35,-0.2 0.09,0.6 -3.14,-0.4 -1.8,-1.49 -2.69,2.08 -1.62,-0.4 -0.99,0.3 -1.26,-2.28 -1.98,-0.4 -0.18,-0.59 -1.89,-1.29 -1.26,-2.28 -0.72,0.3 0.09,-1.19 -1.62,-1.78 -0.09,-0.79 0.18,-1.19 0.81,0 -1.26,-2.48 0.18,-0.89 -0.72,-3.27 0.36,-2.18 0.81,-0.99 -1.08,-1.78 -0.72,-2.48 0.36,-0.79 -0.36,-0.4 0.72,-0.69 -0.99,-1.49 -1.44,-0.4 0.9,-0.99 -0.63,-0.3 0,-1.69 0.54,-1.39 0.81,-0.4 0.09,-0.99 1.71,-0.99 -0.27,-2.68 2.97,-1.09 0.36,-0.79 1.44,-0.79 -0.09,-1.29 0.63,-0.3 -0.63,-0.2 0,-0.69 0.63,-0.5 -1.71,-0.2 0.45,-0.99 -0.36,-0.5 -0.81,0 -0.09,-1.29 -0.72,-0.5 -0.54,-1.49 -0.36,-1.69 0.36,-0.69 -0.45,-0.3 0.81,-2.08 -0.36,-1.89 0.63,-0.5 -0.54,-0.69 0.54,-0.69 0.81,-0.3 0.45,0.3 0.36,-0.79 2.16,-0.99 0.63,-0.89 -0.18,-0.6 0.9,-0.2 1.62,-4.96 1.14,-0.69 z m 173.35,198.61 4.31,6.52 1.39,-1.44 -3.77,-6.18 -1.93,1.1 z"
     title="Ar Rayyān"
     id="QA-RA" />
  <path
     d="m 167.02,212.66146 17.13,10.16 30.94,-1.79 0,0 -1.72,19.06 0.29,22.68 1.06,4.98 11.46,25.14 0,0 0.49,2.04 0,0 -3,1.71 -1.34,-3.12 -1.59,-1.38 -3.27,-0.21 -1.06,0.42 1.01,4.55 -6.79,-0.1 -0.01,-8.21 -12.59,-4.31 -9.12,-1.02 -21.94,-0.54 z"
     title="Umm Şalāl"
     id="QA-US" />
  <path
     d="m 159.75,549.82146 -0.18,2.06 -0.63,-0.1 -0.63,-1.38 1.44,-0.58 z m 116.09,-210.01 0.09,1.88 0.81,0.99 0.27,1.38 0.9,0.79 0,0.69 0.99,0 1.98,2.07 1.08,0.3 0.18,1.28 1.53,0.4 -0.18,0.79 -0.9,-0.49 -0.81,0.4 -0.18,2.57 0.54,2.77 -1.17,1.78 0.36,1.09 -0.63,0.69 0,0.79 0.54,0.49 -2.16,0.99 0.81,0.89 -0.72,0.59 0,0.79 1.89,1.28 0.27,0.99 -1.71,-1.68 -0.81,0.2 -0.63,0.89 0.36,1.09 1.8,1.28 2.07,3.36 -0.27,1.88 -1.26,2.86 1.26,3.85 -0.18,4.24 -0.63,2.37 1.17,4.24 -0.54,0.49 -0.18,2.47 -0.54,1.78 -0.99,1.19 -0.36,1.97 -0.45,0.1 -0.27,1.28 -0.9,-0.2 -0.45,0.49 1.8,3.55 1.26,7.2 0.81,1.58 3.06,3.26 -0.72,2.66 -0.63,0.49 -0.45,4.04 -1.44,1.77 -2.07,0.59 -2.16,3.75 -1.26,-0.49 -0.81,1.08 -0.99,-0.1 -3.59,3.35 -0.9,1.68 -0.18,1.48 2.43,0.59 0.9,-0.79 1.08,1.18 -0.99,2.96 -2.88,3.55 -0.36,1.68 -1.44,1.87 -2.07,4.14 0.9,1.18 -0.54,0.1 -0.9,-0.89 -0.54,1.08 1.08,1.08 -1.26,-0.69 -1.98,3.45 0.72,0.89 -0.18,0.49 -0.54,0.1 -0.27,-0.69 -1.08,-0.3 -0.36,0.69 0.36,1.08 -0.99,1.18 -0.81,0 -3.86,5.42 -0.45,0 -1.62,3.15 -1.44,1.48 -0.9,0.2 -3.68,2.76 -1.53,2.27 -2.16,6.4 -3.77,6.7 -0.72,6.99 -2.7,4.92 0.09,7.09 -0.45,1.77 -0.81,2.26 -1.98,2.66 -0.99,2.16 -3.14,3.94 -2.87,5.81 -0.54,3.54 -2.43,6.59 -0.27,3.05 -2.07,6.39 -1.26,1.18 -0.81,0.2 0,-0.52 -1.17,0.3 -1.98,4.13 -2.16,0.59 -1.98,-0.1 -1.98,1.08 -1.89,0.2 0.27,-1.47 -0.54,-1.47 -0.09,0.69 -0.45,0.1 0.45,2.06 -1.17,0 -0.27,-0.59 -1.17,0.69 0,2.16 -2.43,6.39 0.27,3.05 -0.45,0.49 0.72,2.56 -0.45,0.1 -0.99,0 0.27,2.26 -0.45,0.2 0.09,1.57 -1.35,0.79 -1.8,0 -0.54,0.4 -0.63,1.28 -0.9,0.1 -1.71,1.38 -0.72,1.47 -3.32,3.34 -1.17,0.3 -1.17,0 -0.09,-0.39 1.26,-0.69 0.72,-5.21 -0.9,-1.77 -1.53,-0.88 -0.18,-4.32 -1.17,-0.69 -0.45,-1.47 0.54,-1.48 -0.09,-2.46 1.17,-0.79 1.8,0.59 -0.36,0.69 0.18,1.28 1.71,0.59 0.18,1.08 1.08,0.3 -0.63,-4.91 1.8,-0.69 -0.36,2.16 -0.81,0.59 0.18,1.28 0.54,-0.49 0.45,-1.87 1.89,-1.67 0.63,-1.38 -0.45,-1.08 0.36,-0.79 -0.36,-1.38 0.81,-3.54 -0.81,-0.88 -0.81,0.79 0.18,1.87 -0.72,-0.3 0.27,3.15 -0.54,0 -0.63,-0.98 0.18,1.47 0.63,0.98 -0.36,1.18 -2.34,1.28 0,-2.75 0.9,-2.26 0.36,-4.52 -0.63,-0.49 0.45,-0.79 -0.54,-0.39 -0.09,-1.08 1.17,-0.59 0.09,-1.67 -0.9,-0.1 -0.36,1.38 -0.63,-0.1 -1.89,5.11 -0.72,-0.2 0.72,0.89 0.81,-0.1 0.36,1.18 0.9,0.49 0,0.39 -1.26,-0.39 0.9,1.38 -1.26,-0.39 -0.27,0.59 -0.72,-0.1 -0.45,-1.67 -1.98,-2.75 0.45,-0.69 -0.54,0 -0.18,-0.49 -1.08,0.59 0.36,1.48 -0.99,0.2 -1.26,-2.26 0.18,1.97 -1.17,-0.98 0.09,-0.79 -0.81,-0.59 -0.45,1.08 -0.72,-0.49 0.36,1.67 -0.81,0.2 -1.8,-2.26 0.18,-1.47 -1.08,-0.39 -0.18,-0.49 -1.08,0.79 -0.63,1.38 0.36,0.1 -0.36,2.26 -1.44,1.38 0.27,1.67 -0.54,0.3 -0.27,-1.08 -0.63,-0.1 0.09,-1.67 0.9,-1.08 0.63,0.59 0.63,-2.85 1.08,-1.77 -0.09,-1.47 0.54,-1.18 -0.63,-0.89 -0.09,-3.05 -0.54,-0.98 -1.35,0.79 1.08,2.07 0.09,1.08 -0.36,0.49 -0.54,-1.08 -0.81,-0.29 -0.09,-0.49 -0.45,0.1 0.36,2.26 0.27,0.39 -0.45,0.1 -0.36,3.54 -2.25,1.87 -0.36,0 0.36,-0.79 -0.18,-1.87 -1.17,-1.77 -1.17,0 -2.69,1.28 -0.45,0.89 0.18,1.38 -2.43,-1.57 -2.78,0.3 -0.99,0.59 -0.63,1.67 -0.72,0.1 -1.08,1.08 -1.62,-0.69 0,-1.38 -0.63,-0.69 -0.72,1.48 -0.81,-0.2 -0.18,0.49 0.54,0.89 0.72,-0.2 0.09,0.49 -1.98,0.89 -0.09,0.98 -0.63,0.1 -0.27,0.79 0,0.3 1.8,0 0.09,0.69 -0.9,0.89 0,0.89 0.36,0.1 -0.04,1.06 0.95,0.68 2.01,1.09 1.06,-0.3 1.46,1.11 1.52,0.15 2.81,-0.37 1.78,0.35 3.51,-1.49 1.25,0.61 0.82,1.31 0.88,0.15 2.19,-1.54 0.39,0.53 -0.44,0.66 0.05,2.12 3.26,1.11 1.82,4.04 2.26,-0.96 0.44,-2.2 0.52,-0.18 1.11,1.01 0.49,1.62 -0.37,1.08 -2.15,1.89 -0.43,2.15 -1.35,2.62 0.68,6.94 -0.37,4.58 0.31,3.37 -2.22,3.3 0.63,3.76 1.1,1.22 -59.36,13.86 0,0 -0.48,-29.68 -0.44,-157.65 32.04,0 0.23,-41.87 32.94,9.38 29,9.82 2.23,1.18 0.12,-24.19 -6.2,-6.6 9.63,-4.12 2.15,-1.61 0,0 12.7,-5.16 0,0 12.7,-4.6 9.78,-4.33 -2.4,-8.26 3.87,-1.25 0,0 8.88,-2.87 10.34,-0.88 0,0 0.09,0 0,0 0,-0.08 z"
     title="Al Wakrah"
     id="QA-WA" />
  <path
     d="m 258.59,199.49146 0.09,1.68 -0.63,1.59 -0.9,-0.4 -1.8,1.59 -1.16,-0.5 -2.25,1.19 -2.79,-0.2 -1.52,1.89 0.72,1.39 -3.15,-0.3 -1.17,0.2 -0.27,0.59 -0.99,0 -0.71,1.29 -1.26,0.49 -0.27,1.59 -0.9,0.89 -0.09,1.19 0.63,0.3 -0.18,0.69 0.36,0.4 -0.54,0.2 -0.54,1.58 0.36,0.6 -0.9,0.59 0.45,1.49 0.81,0.49 -0.45,1.19 0.45,0.6 1.44,-0.6 1.43,0.3 -0.89,1.19 -0.18,2.97 -1.17,0 -0.54,1.29 -0.27,2.57 -1.44,5.05 -0.63,1.29 -1.08,0.3 -1.34,2.57 -0.09,2.38 0.54,2.57 1.88,1.39 0.9,0.1 0.54,1.38 1.08,0.6 0.18,3.46 0.99,2.48 2.24,0.59 0.45,0.7 1.17,0.39 3.86,-2.08 1.8,-0.49 4.04,1.09 -0.98,0.39 -2.43,-1.18 -1.71,0.19 -4.13,2.28 1.17,1.21 0,0 -11.84,0 4.25,20.44 2.28,6.24 -15.33,10.04 0,0 -11.46,-25.14 -1.06,-4.98 -0.29,-22.68 1.72,-19.06 0,0 -3.92,-20.49 1.96,0.12 2.31,-0.63 7.16,-7.14 2.65,-0.63 4.28,-2.55 11.43,5.6 10.16,0.51 7.65,2.88 0,0 z"
     title="Az̧ Za̧`āyin"
     id="QA-ZA" />
</svg>
