<?xml version="1.0" encoding="UTF-8" standalone="no"?>
<!-- Created for MapSVG plugin: http://mapsvg.com -->
<svg
   xmlns:mapsvg="http://mapsvg.com"
   xmlns:dc="http://purl.org/dc/elements/1.1/"
   xmlns:rdf="http://www.w3.org/1999/02/22-rdf-syntax-ns#"
   xmlns:svg="http://www.w3.org/2000/svg"
   xmlns="http://www.w3.org/2000/svg"
   mapsvg:geoViewBox="28.861754 -1.047375 30.899118 -2.839938"
   width="682.26074"
   height="594.52777">
 
  <path
     d="m 458.91984,261.54528 0,0 5.5,1.83 2.47,0.36 0.43,1.79 2.29,3.26 1.28,4.84 -0.22,4.64 2.08,2.55 1.98,2 0.69,5.5 -0.12,6.6 -1.58,2.83 -4.58,2.18 -4.84,2.05 -1.82,2.09 -0.21,3.88 -1.01,12.12 -2.22,12.12 -2.65,6.08 -2.27,3.22 -2.19,-3.03 -2.55,-3.2 -2.27,-3.49 -3.54,-4.65 -4.11,-1.16 -4.08,1.44 -3.59,1.56 -1.93,1.01 -2.34,1.72 -2.01,1.71 -0.82,1.25 -1.14,0.21 -0.98,0.04 -2.7,0.24 -3.02,0.64 -1.94,0.61 -2.21,0.49 -1.99,0.38 -1.13,0.28 -0.94,0.29 -2.06,0.26 -2.88,-0.31 -1.56,-2.07 -1.22,-1.44 -2.41,0.66 -1.75,1.84 -2.08,1.15 -3.23,1.42 -1.53,1.3 -0.8,-0.6 -2.11,-0.66 -1.91,-0.63 -1.46,-0.21 -2.88,-1.78 -2.05,-4.08 0.65,-3.25 2.46,-2.5 2.72,-1.09 1.18,-1.29 1.53,-2.57 -2.19,-5.17 -3.17,-5 1.14,-1.74 0.65,-2.12 0.24,-2.13 0.05,-1.29 0.11,-0.62 0.57,-1.48 -0.97,-2.43 -1.01,-2.53 -1.01,-2.08 -0.97,-1.32 -0.69,-1.11 -0.9,-2.56 -1.01,-2.86 -0.68,-1.13 0.18,-0.43 0.88,-0.35 1.25,-0.97 -1.32,-4.03 -1.84,-5.1 1.49,-3.41 2.76,-4.58 2.55,-4.06 3.23,-1.11 4.48,2.91 4.13,2.78 4.4,-2.6 3.65,-4.2 1.87,-2.47 6.8,-3.05 8.23,-1.46 3.19,0.49 1.84,-2.37 2.32,-5.71 1.7,-4.39 2.62,1.18 5.55,3.27 11.07,7.36 10.48,7.44 z"
     title="Kigali City"
     id="RW-01" />
  <path
     d="m 325.17984,89.31528 0,0 0.04,0 3.68,1.87 9.44,13.72 1.49,7.04 0.8,13.82 3.26,7.11 5.76,5.38 6.56,1.88 7.06,-0.77 7.37,-2.74 22.8,-12.63 3.47,-0.73 3.05,-7.33 4.38,-4.51 1.74,-0.94 0.01,0.01 1.41,0.73 0.97,0.26 1.89,1.49 1.06,3.42 1.85,2.53 2.19,1.76 4.23,7.08 3.75,5.65 2.93,5.47 2.9,6.32 1.42,3.16 0.85,5.17 0.25,3.09 3.03,-0.92 4.01,-1.41 3.28,0 1.84,0.99 -0.14,1.55 -2.67,2.39 -1.77,5.64 1.4,7.52 2.59,6.84 3.31,5.97 4.37,4.61 6.09,7.92 6.53,8.1 4.79,5.19 1.97,4.52 -1.12,3.85 -1.29,3.73 1.2,7.05 3.47,11.52 2.6,10.32 0.11,5.12 -1.91,1.14 -2.88,1.98 -2.38,2.52 -1.33,0.97 -2.47,-0.36 -5.5,-1.83 -10.48,-7.44 -11.07,-7.36 -5.55,-3.27 -2.62,-1.18 -1.7,4.39 -2.32,5.71 -1.84,2.37 -3.19,-0.49 -8.23,1.46 -6.8,3.05 -1.87,2.47 -3.65,4.2 -4.4,2.6 -4.13,-2.78 -4.48,-2.91 -3.23,1.11 -2.55,4.06 -2.76,4.58 -1.49,3.41 1.84,5.1 1.32,4.03 -1.25,0.97 -0.88,0.35 -0.89,-0.59 -2.67,-0.52 -3.26,-2.23 -3.23,-3.47 -2.74,-2.74 -2.12,-2 -2.48,-1.68 -2.67,-1.39 -2.31,-1.67 -4.06,-1.21 -5.86,-0.14 -6.66,1.22 -6.48,0.06 -9.17,-3.12 -6.37,-4.06 -1.68,-4.83 -4.69,-4.44 -3.95,-6.11 -4.48,-6.67 -3.45,-5.38 -1.2,-3.1 -2.58,-0.42 -4.2,0.78 -6.3,-2.31 -5.52,-3.66 -3.75,-0.7 -3.83,0.54 -2,0.61 -3.6,-2.74 -4.19,-5.04 0.42,-7.32 0.14,-9.74 -0.47,-13.76 -1.39,-10.17 -6.59,-0.47 -6.78,0.38 -6.23,-3.09 -5.45,-2.55 -1.79,-0.56 -1.33,-0.81 -2.22,0.88 -2.74,0.07 -6.35,-2.01 -7.24,-2.5 -8.1,-9.51 -6,-8.18 -1.46,-2.08 0,0 6.47,-10.19 11.55,-12.05 13.39,-9.65 13.19,-4.68 13.5,0.73 7.04,-0.52 6.25,-1.7 6.92,-3.89 5.19,-3.75 5.62,-2.91 8.15,-1.46 3.99,0.9 7.15,4.34 2.33,0.83 2.77,-1.63 2.02,-6.63 3.03,-3.61 3.11,-1.94 2.91,-0.87 2.98,0.45 z"
     title="Northern"
     id="RW-03" />
  <path
     d="m 538.64984,1.84528 0,0 3.68,1.15 -2.67,2.78 -2.58,3.68 -1.06,3.78 1.11,3.61 4.89,3.37 1.11,4.58 -0.71,1.98 -1.26,1.91 -0.91,2.01 0.56,2.01 2.95,1.98 2.67,-0.42 2.19,-1.18 1.38,-0.38 4.13,2.99 1.43,2.08 1.31,8.68 2.05,4.89 6.11,10.13 1.98,6.84 3.12,4.06 0.68,2.74 -0.33,1.05 -0.77,1.45 -0.79,1.98 -0.35,2.5 1.8,5.38 4.34,3.26 9.89,4.1 3.54,2.5 5.03,4.79 3.09,1.87 22.17,8.23 6.59,0.94 6.53,3.95 1.91,8.78 -0.63,8.75 -1.04,3.96 -1.79,1.94 2,4.38 5.55,7.42 4.16,4.45 1.5,2.57 3.26,12.08 3.23,7.56 5.25,4.13 7.98,-3.05 2.45,7.12 -0.28,8.64 -4.34,26.49 -0.1,3.61 0.76,1.73 2.99,4.58 0.83,3.09 -3.85,9.24 1.18,3.54 2.67,13.47 -1.84,5.69 -3.42,5.04 -1.89,5.17 2.57,6.01 -5.45,4.27 -2.04,2.18 -1.67,2.71 10.06,1.6 1.01,8.89 -4.43,19.55 6.29,-1.36 6.05,3.02 5.12,5.14 3.59,4.86 2.81,9.76 -11.55,37.4 -2.92,14.79 1.42,22.99 -1.42,6.84 -3.47,6.28 -4.37,3.17 -5.64,2.5 -5.19,2.98 -4.68,1.15 -2.43,1.39 -3.05,0.83 -2.75,-0.66 -17.52,-8.65 -3.61,-1.14 -4.34,0.59 -3.85,3.02 -4.79,9.03 -3.76,3.16 -7.03,0.38 -7.28,-2.08 -7.15,-0.91 -6.49,3.83 -11.03,-0.42 -11.18,-5.25 -18.23,-14.96 -1.93,-2.64 -1.73,-4.73 -1.6,-1.84 -1.14,0.42 -10.62,-2.54 -1.63,-0.83 -5.4,1.6 -3.28,3.05 -1.39,1.83 -1.54,2.03 -4.32,3.99 -4.82,2.47 -6.32,2.05 -6.42,1.32 -5.41,0.24 -4.17,-0.94 -10.47,-5.1 -3.91,-0.38 -1.2,2.25 -0.17,3.16 -0.69,2.37 -15.17,19.03 -5.72,3.96 -7.5,0.24 -7.7,-2.99 -7.01,-4.65 -5.52,-4.83 -10.41,-12.33 -4.09,-3.16 -3.84,-1.35 -3.22,-0.11 -2.83,0.28 -2.6,-0.38 -5.92,-5.09 -0.58,-0.5 0.79,-0.92 0.45,-0.96 0.39,-0.83 0.79,-6.44 1.2,-6.3 0.12,-0.63 0.18,-0.52 4,-11.66 1.86,-16.5 -0.56,-11.15 3.61,-6.98 5,-5.46 2.22,-4.08 0.04,-3.88 0.01,-6.09 0.4,-3.25 1.53,-1.3 3.23,-1.42 2.08,-1.15 1.75,-1.84 2.41,-0.66 1.22,1.44 1.56,2.07 2.88,0.31 2.06,-0.26 0.94,-0.29 1.13,-0.28 1.99,-0.38 2.21,-0.49 1.94,-0.61 3.02,-0.64 2.7,-0.24 0.98,-0.04 1.14,-0.21 0.82,-1.25 2.01,-1.71 2.34,-1.72 1.93,-1.01 3.59,-1.56 4.08,-1.44 4.11,1.16 3.54,4.65 2.27,3.49 2.55,3.2 2.19,3.03 2.27,-3.22 2.65,-6.08 2.22,-12.12 1.01,-12.12 0.21,-3.88 1.82,-2.09 4.84,-2.05 4.58,-2.18 1.58,-2.83 0.12,-6.6 -0.69,-5.5 -1.98,-2 -2.08,-2.55 0.22,-4.64 -1.28,-4.84 -2.29,-3.26 -0.43,-1.79 1.33,-0.97 2.38,-2.52 2.88,-1.98 1.91,-1.14 -0.11,-5.12 -2.6,-10.32 -3.47,-11.52 -1.2,-7.05 1.29,-3.73 1.12,-3.85 -1.97,-4.52 -4.79,-5.19 -6.53,-8.1 -6.09,-7.92 -4.37,-4.61 -3.31,-5.97 -2.59,-6.84 -1.4,-7.52 1.77,-5.64 2.67,-2.39 0.14,-1.55 -1.84,-0.99 -3.28,0 -4.01,1.41 -3.03,0.92 -0.25,-3.09 -0.85,-5.17 -1.42,-3.16 -2.9,-6.32 -2.93,-5.47 -3.75,-5.65 -4.23,-7.08 -2.19,-1.76 -1.85,-2.53 -1.06,-3.42 -1.89,-1.49 -0.97,-0.26 -1.41,-0.73 -0.01,-0.01 9.91,-5.31 13.71,-5.34 3.64,-3.4 1.74,-5.11 2.05,-13.01 2.39,-4.58 2.64,-1.57 2.67,-0.45 2.67,-0.2 2.48,-0.73 5.19,-3.09 14.94,-14.2 4.39,-5.62 3.61,-6.07 0.64,-2.23 0.74,-4.82 0.98,-2.01 1.14,-0.95 1.22,-1 5.62,-2.53 2.04,-1.7 1.74,-5.1 2.17,-13.88 2.83,-4.79 5.13,-1.84 5.55,0.83 5.73,1.67 5.65,0.72 5.28,-1.31 4.41,-1.98 4.56,-0.63 5.11,1.59 z"
     title="Eastern"
     id="RW-02" />
  <path
     d="m 205.07984,157.80528 0,0 8.1,9.51 7.24,2.5 6.35,2.01 2.74,-0.07 2.22,-0.88 1.33,0.81 1.79,0.56 5.45,2.55 6.23,3.09 6.78,-0.38 6.59,0.47 1.39,10.17 0.47,13.76 -0.14,9.74 -0.42,7.32 4.19,5.04 3.6,2.74 0.87,1.21 0.97,3.41 1.29,6.09 1.13,11.28 -0.92,9.36 -1.11,3.89 -0.11,4.06 1.6,8.26 0.93,8.92 -1.73,4.31 -1.3,2.6 0.08,3.74 1.29,3.75 1.49,2.74 -0.78,3.52 -3.07,2.76 -3.89,1.23 -5.05,-0.22 -3.41,0 1.51,3.38 1.19,7.4 -0.33,7.1 1.18,3.77 0.99,2.25 -0.38,2.82 -0.28,2.91 -0.54,3.13 -2.32,3.57 -1.65,2.37 -0.83,1.63 -1.23,2.12 -0.02,2.5 -1.91,4.65 -3.07,5.64 -0.36,3.42 0.98,2.09 1.25,4.63 0.13,4.6 -2.75,1.46 -3.59,2.17 -2.3,1.3 -2.75,0.8 -2.46,0.97 -2.12,-0.81 -1.8,-0.64 -1.39,1.97 -1.94,2.05 -4.29,2.68 -3.66,3.23 -4.47,2.5 -8.35,6.53 -4.89,5.08 -2.05,-0.29 -3.97,0.17 -5.81,0.14 -6.79,1.11 -6.24,4.71 -4.27,1.92 -3.78,-1.14 -4.98,0.76 -5.09,2.61 -3.4,4.06 -0.9,4.55 2.22,5.52 2.29,4.69 -0.28,3.09 -3.36,5.33 -2.83,4.53 0.99,3.16 1,3.79 -1.37,3.06 -6.88,3.78 -7.08,3.79 -2.92,4.27 -1.52,4.41 0.31,2.26 4.06,2.2 6.24,1.97 4.52,2.06 2.77,3.74 0.73,5.1 2.01,4.19 2.54,3.35 1.66,3.3 1.39,2.1 -0.64,3.28 -0.4,3.11 0.45,2.36 1.68,2.52 3.92,5.77 -1.11,12.12 -4.73,8.46 -3.07,1.61 -1.69,0.51 -6.34,3.35 -1.16,-4.56 0.44,-3.96 -0.25,-1.56 -4.09,-3.06 -6.14,-3.5 -7.1,-1.71 -14.17,-1.77 -7.5,-2.29 -20.38,-8.89 -5.47,-0.8 -19.53,1.28 -7.62,7.47 -5.78,33.63 -5.12,-5.74 -6.88,-3.4 -10.03,-1.08 -4.48,-1.77 -12.52,-8.2 -2.61,-2.67 2.26,-25.67 -2.26,-7.82 -3.45,-3.5 -3.76,-1.81 -2.99,-2.05 -1.25,-4.31 1.22,-4.41 5.83,-5.21 -1.18,-4.1 -3.4,-6.07 -1.25,-6.67 -0.68,-7.19 2.52,-8.82 4.71,-4.07 9.03,-3.12 7.01,-2.05 5.81,-3.44 4.77,-4.86 3.89,-6.08 2.53,-5 1.14,-3.61 0.4,-2.92 3.46,-3.23 2.84,-1 9.66,0.31 14.94,-3.96 11.56,-9.13 8.39,-13.09 5.28,-15.91 1.94,-14.03 -0.69,-12.08 -8.92,-52.74 -0.73,-12.29 1.67,-12.01 6.31,-14.79 12.54,-20.06 8.59,-13.76 7.08,-13.43 4.06,-5.94 16.21,-13.43 3.4,-4.41 9.19,-18.95 3.89,-5 5.27,-2.22 25.66,-1.04 0.84,-0.21 0.74,-0.49 0.7,-0.73 1.13,-1.78 0,0 1.46,2.08 6,8.18 z"
     title="Western"
     id="RW-04" />
  <path
     d="m 290.38984,232.26528 0,0 4.2,-0.78 2.58,0.42 1.2,3.1 3.45,5.38 4.48,6.67 3.95,6.11 4.69,4.44 1.68,4.83 6.37,4.06 9.17,3.12 6.48,-0.06 6.66,-1.22 5.86,0.14 4.06,1.21 2.31,1.67 2.67,1.39 2.48,1.68 2.12,2 2.74,2.74 3.23,3.47 3.26,2.23 2.67,0.52 0.89,0.59 -0.18,0.43 0.68,1.13 1.01,2.86 0.9,2.56 0.69,1.11 0.97,1.32 1.01,2.08 1.01,2.53 0.97,2.43 -0.57,1.48 -0.11,0.62 -0.05,1.29 -0.24,2.13 -0.65,2.12 -1.14,1.74 3.17,5 2.19,5.17 -1.53,2.57 -1.18,1.29 -2.72,1.09 -2.46,2.5 -0.65,3.25 2.05,4.08 2.88,1.78 1.46,0.21 1.91,0.63 2.11,0.66 0.8,0.6 -0.4,3.25 -0.01,6.09 -0.04,3.88 -2.22,4.08 -5,5.46 -3.61,6.98 0.56,11.15 -1.86,16.5 -4,11.66 -0.18,0.52 -0.12,0.63 -1.2,6.3 -0.79,6.44 -0.39,0.83 -0.45,0.96 -0.79,0.92 -2.3,-1.98 -2.69,-1.53 -3.43,0.1 -0.98,1.88 0.04,3.13 -2.19,17.19 2.42,25.84 -7.27,25.39 -1.41,34.46 -0.16,3.74 -1.8,7.4 -3.19,7.33 -4.1,6.95 -4.47,6.08 -6.87,6.98 -6.32,3.72 -6.78,1.28 -8.35,-0.24 -7.49,-2.26 -3.85,0.04 -2.5,3.12 -1.11,7.06 -1.46,3.12 -3.26,1.98 -7.51,0.94 -6.34,-0.97 -13.96,-4.62 -3.6,-1.18 -2.39,-0.14 -9.99,3.61 -2.5,1.53 -2.67,1.04 -3.47,-0.14 -7.36,0.98 -6.28,3.99 -6.38,2.15 -7.81,-4.41 -12.15,-2.26 -6.49,-1.21 -6.02,0.69 -14.48,6.29 -8.26,0.77 -2.97,-6.4 -0.4,-4.2 -3.12,-6.98 -0.76,-3.89 1.14,-3.51 4.65,-5.7 0.73,-3.82 -2.05,-4.17 -7.28,-6.84 -0.08,-0.31 6.34,-3.35 1.69,-0.51 3.07,-1.61 4.73,-8.46 1.11,-12.12 -3.92,-5.77 -1.68,-2.52 -0.45,-2.36 0.4,-3.11 0.64,-3.28 -1.39,-2.1 -1.66,-3.3 -2.54,-3.35 -2.01,-4.19 -0.73,-5.1 -2.77,-3.74 -4.52,-2.06 -6.24,-1.97 -4.06,-2.2 -0.31,-2.26 1.52,-4.41 2.92,-4.27 7.08,-3.79 6.88,-3.78 1.37,-3.06 -1,-3.79 -0.99,-3.16 2.83,-4.53 3.36,-5.33 0.28,-3.09 -2.29,-4.69 -2.22,-5.52 0.9,-4.55 3.4,-4.06 5.09,-2.61 4.98,-0.76 3.78,1.14 4.27,-1.92 6.24,-4.71 6.79,-1.11 5.81,-0.14 3.97,-0.17 2.05,0.29 4.89,-5.08 8.35,-6.53 4.47,-2.5 3.66,-3.23 4.29,-2.68 1.94,-2.05 1.39,-1.97 1.8,0.64 2.12,0.81 2.46,-0.97 2.75,-0.8 2.3,-1.3 3.59,-2.17 2.75,-1.46 -0.13,-4.6 -1.25,-4.63 -0.98,-2.09 0.36,-3.42 3.07,-5.64 1.91,-4.65 0.02,-2.5 1.23,-2.12 0.83,-1.63 1.65,-2.37 2.32,-3.57 0.54,-3.13 0.28,-2.91 0.38,-2.82 -0.99,-2.25 -1.18,-3.77 0.33,-7.1 -1.19,-7.4 -1.51,-3.38 3.41,0 5.05,0.22 3.89,-1.23 3.07,-2.76 0.78,-3.52 -1.49,-2.74 -1.29,-3.75 -0.08,-3.74 1.3,-2.6 1.73,-4.31 -0.93,-8.92 -1.6,-8.26 0.11,-4.06 1.11,-3.89 0.92,-9.36 -1.13,-11.28 -1.29,-6.09 -0.97,-3.41 -0.87,-1.21 2,-0.61 3.83,-0.54 3.75,0.7 5.52,3.66 6.3,2.31 z"
     title="Southern"
     id="RW-05" />
</svg>
