<?xml version="1.0" encoding="UTF-8" standalone="no"?>
<!-- Created for MapSVG plugin: http://mapsvg.com -->
<svg
   xmlns:mapsvg="http://mapsvg.com"
   xmlns:dc="http://purl.org/dc/elements/1.1/"
   xmlns:rdf="http://www.w3.org/1999/02/22-rdf-syntax-ns#"
   xmlns:svg="http://www.w3.org/2000/svg"
   xmlns="http://www.w3.org/2000/svg"
   mapsvg:geoViewBox="12.400659 43.995697 12.514129 43.894649"
   width="993.56146"
   height="1224.5345">
 
  <path
     d="m 291.29008,490.44985 14.21,3.7 1.77,1.53 7.26,12.11 0.96,5.91 4.62,14.1 1.7,14.65 -5.76,8.87 -0.76,8.69 2.77,8.27 4.52,6.38 -2.64,1.99 -6.15,0.65 -7.02,3.28 -6.16,1.48 -21.92,9.98 -6.17,0.64 -16.84,-3.42 -13.25,0.56 -8.84,-1.66 -15.91,-0.1 4.49,4.67 4.46,2.13 9.84,9.29 0.88,-0.1 4.51,5.5 0.96,5.92 -0.86,0.97 -0.76,10.35 -0.86,0.92 0.98,5.92 0,0 2.75,7.44 0.04,2.54 4.59,10.67 2.87,15.99 3.69,9.89 -27.01,25.92 -6.1,4.07 -6.96,6.74 -11.39,6.29 -9.58,9.56 -7.9,3.37 -9.61,7.03 -4.39,1.29 -16.54,17.14 -10.56,2.77 -11.35,8.92 -16.73,3.42 -13.89,16.03 0,0 -6.159997,1.48 -4.5,-6.38 -4.57,-10.67 -0.18,-12.01 -5.35,-3.7 -5.32,-1.2 0.72,-10.35 -0.9,-2.45 -4.49,-4.71 -5.39,-5.4 -14.24,-8 -12.51,-8.96 -14.21,-5.41 -3.56,-2.22 -8.94,-7.62 -5.43,-7.99 -1.83,-4.99 -0.12,-8.55 -1.84,-4.07 -0.06,-5.13 -0.89,-0.78 0.85,-1.8 0.56,-21.49 0.86,-0.93 -0.38,-25.69 -1.83,-4.94 -0.11,-6.84 -1.85,-6.15 -1.32999999,-1.15 0.02,-27.55 3.40999999,-8.04 -0.12,-7.71 1.69,-5.32 1.74,-2.73 8.74,-6.05 18.63,6.65 19.49,3.15 13.34,7.16 6.16,-0.65 3.23,-2.03 5.61,1.16 5.29,-0.56 2.61,-2.86 0.75,-6.94 0.89,-0.92 3.54,0.46 7.909997,-3.37 1.78,0.69 7.92,-0.83 0.87,-0.93 9.4,-17.14 10.45,-14.05 13.8,-22 1.74,-1.9 4.4,-0.46 0.88,-0.97 12.37,0.46 12.45,5.55 41.45,-3.42 0.9,0.78 7.94,-0.83 0.89,0.79 22.09,-0.6 0.88,0.78 7.04,-0.74 0.9,0.79 29.1,-3 z"
     title="Acquaviva"
     id="SM-01" />
  <path
     d="m 251.19008,1000.9998 0.1,7.71 -0.86,0.97 0.96,5.03 3.59,3.88 7.09,1.85 5.34,2.91 6.3,7.9 4.59,11.5 4.48,3.83 2.64,0.6 8.96,7.62 3.61,4.76 5.46,11.45 1.05,11.04 0.89,0.74 0.14,9.42 -0.88,0.92 0.05,2.59 -13.83,20.27 -6.1,5.77 1.03,10.16 0,0 -5.26,2.26 -5.19,7.39 -1.77,0.19 -4.36,3.88 -6.16,1.47 -1.73,1.9 -6.17,0.64 -0.9,-0.78 -5.28,0.55 -0.9,-0.78 -7.96,0 -10.81,-15.2 -7,3.33 -2.65,0.28 -5.33,-2.04 -8.76,6.05 -14.04,5.73 -7.74,14.5 -7.86,5.08 -5.21,6.51 -16.7,6.05 -15.86,2.45 -0.86,0.97 -13.22,1.38 -0.88,0.92 -18.53,1.07 -1.79,-1.53 -14.209997,-5.4 -7.95,-0.88 -17.84,-11.03 -16.84,-4.25 13.78,-23.69 0.75,-10.34 6.83,-14.41 6.26,-10.62 10.26,-7.35 0.81,-6.09 1.69,-3.6 -18.35,-47.76 -0.98,-5.91 -1.84,-4.11 -0.03,-3.42 -3.71,-10.76 -0.07,-3.41 -3.66,-10.77 -0.06,-3.40995 -4.63,-14.09 -0.04,-3.42 -3.69,-10.71 -0.06,-3.47 -3.7,-10.71 -0.03,-3.42 -1.84,-4.11 0.88,-0.97 0.63,-15.48 3.42,-8.91 2.49,-10.53 11.19,-18.3 10.4,-14.78 26.05,-29.24 3.429997,-8.08 -0.23,-13.68 -0.89,-0.74 -1.929997,-10.95 6.159997,-2.35 0,0 12.33,-2.13 0.88,-0.97 7.94,-0.78 0.86,-0.97 7.93,-0.83 0.88,-0.93 14.12,0.23 5.35,2.91 8.94,7.63 7.07,0.13 12.4,2.13 1.79,1.57 7.11,2.68 2.83,13.4 13.42,11.45 1.78,-0.13 13.96,-10.91 0.04,2.59 -0.87,0.92 0.25,16.26 0.88,0.79 1,7.58 16.66,-7.72 5.31,0.32 -1.31,31 -7.91,2.5 -7.95,0.83 -8.85,-1.67 -5.29,0.56 -0.86,0.97 -3.52,0.32 -9.61,8.73 5.4,5.45 6.4,14.74 0.1,7.71 -9.36,23.24 0.1,7.71 6.33,7.9 4.43,1.25 10.74,10.9 8.01,3.46 12.46,7.25 2.71,4.02 z"
     title="Chiesanuova"
     id="SM-02" />
  <path
     d="m 919.48008,329.58985 0.14,9.43 11.71,15.91 0.94,3.33 -12.76,32.22 -5.92,17.75 -1.75,2.72 46.09,69.84 0,0 -10.47,7.95 -15.61,19.6 -15.73,11.05 -13.05,14.19 -1.68,5.31 -6,11.79 -5.08,15.94 -6.05,7.49 -3.59,-3.05 -2.66,-0.61 -21.16,2.18 -2.68,-1.44 -0.01,-2.54 3.44,-4.66 -1.77,-1.53 -10.6,1.94 -2.64,-0.55 -1.78,-0.7 -4.47,-4.66 -2.73,-4.86 -2.68,-2.31 -8.85,-1.66 -6.25,-2.77 -4.4,0.46 -6.98,4.99 -4.42,0.46 -5.37,-6.28 -0.05,-1.71 -2.67,-2.31 -2.63,1.1 -6.04,10.08 -4.4,0.46 -7.14,-4.44 -4.41,0.47 -8.72,7.76 -7.04,0.74 -5.25,3.98 -12.34,1.24 -9.6,7.86 -6.15,3.19 -10.57,1.11 -3.53,-0.51 0.06,4.3 -1.68,6.19 -6,11.74 -0.84,3.51 -0.77,6.93 1.81,4.95 -6.93,8.45 -13.93,12.57 -7.88,5.08 -6.15,1.53 -0.54,23.2 -0.88,0.92 0.99,5.92 -13.99,9.98 -5.23,4.85 0,0 -9.71,1.01 -0.88,-0.78 -15.9,0.78 -14.16,-2.81 -2.65,0.27 -11.56,-4.8 -6.28,-5.36 -9.73,-3.28 -3.58,-2.22 -10.59,-0.6 0.75,-7.81 2.57,-6.24 -0.9,-0.78 -3.88,-23.57 -13.12,8.18 -1.78,0.18 4.95,-24.49 -3.57,-2.22 -19.52,-6.56 -10.6,0.28 -0.88,0.92 -6.16,0.65 -0.88,0.92 -4.38,0.47 -3.52,2.07 -3.53,0.38 -8.06,-7.72 -0.3,-20.57 10.31,-18.21 7.83,-9.38 -0.03,-1.71 3.42,-7.21 1.68,-6.14 -0.06,-4.3 0.85,-0.93 -1.18,-21.3 0.86,-0.97 -0.04,-3.42 5.93,-15.21 3.49,-4.62 2.41,-14.84 3.43,-7.21 2.62,-2.82 6.09,-4.94 6.15,-3.19 0,0 7.03,-1.57 0.87,-0.97 21.17,-2.18 0.88,-0.92 5.28,-0.56 2.62,-1.98 12.94,-21.08 6.08,-5.78 8.77,-5.18 8.8,-2.63 26.32,-11.28 1.65,-7.03 2.62,-2.82 3.51,-0.36 5.35,1.98 14.43,19.97 5.31,2.04 6.2,0.18 2.66,1.43 2.71,4.9 1.88,6.66 9.78,4.11 1.76,-0.18 6.32,8.78 2.75,7.44 1.78,0.7 5.26,-2.27 12.18,-13.26 8.76,-4.35 8.64,-12.9 5.21,-5.68 8.76,-4.35 6.88,-12.71 4.35,-5.55 6.14,-1.52 8.74,-6.06 6.94,-8.41 0.84,-2.68 8,2.63 17.64,-2.68 3.53,1.34 9.71,-1.01 9.64,-4.4 14.88,-9.29 2.65,-0.23 3.49,-2.08 11.5,-0.32 19.18,-15.72 14.96,-3.28 z"
     title="Domagnano"
     id="SM-03" />
  <path
     d="m 982.39008,646.56985 -9.62,0.69 -10.53,3.65 -6.11,6.61 -4.3,6.47 -3.4,9.33 -6.02,10.49 -6.07,7.48 -7.2,4.58 -4.47,5.31 -1.4,2.59 0.14,10.26 -8.64,12.89 -1.67,6.19 -7.79,10.21 -3.42,8.09 -2.49,9.65 0.06,4.3 -6.85,15.25 0.27,17.97 -4.23,12.43 -4.29,8.17 -11.31,12.29 -9.68,2.73 -7,4.15 -2.64,0.28 -0.89,-0.78 -12.35,2.12 -11.38,5.45 -6.96,7.58 -8.63,12.89 -1.71,4.48 0.03,3.42 -6.08,5.77 -6.02,10.9 -0.83,3.51 -6.03,9.2 1.08,13.58 0.89,0.78 0.12,8.55 0.93,2.45 3.54,0.5 0.05,3.42 0.9,0.79 -0.87,0.92 0,0 -19.4,1.99 -0.89,-0.74 -5.31,0.55 -0.87,-0.78 -5.31,0.55 -0.88,-0.78 -5.31,0.55 -0.87,-0.74 -5.3,0.51 -0.91,-0.74 -5.29,0.55 -0.89,-0.78 -5.28,0.55 -0.91,-0.78 -7.93,0 -1.54,15.56 -15.02,-0.18 -1.78,-0.65 -0.18,-11.96 -0.89,-0.79 -0.04,-3.41 -26.61,-6.7 -2.7,-3.97 -0.02,-1.71 -2.71,-4.02 -3.67,-9.06 -14.15,-1.1 -0.91,-1.62 -0.08,-5.13 -0.88,-0.78 -0.22,-14.51 -1.86,-5.82 -14.87,9.24 0,0 -8.99,-8.5 -15.95,-6.05 -3.59,-3.93 -0.05,-1.71 0,0 21.06,-9.88 2.6,-2.82 -0.06,-4.3 4.35,-4.71 5.27,-2.26 1.72,-2.77 -0.05,-3.42 -3.54,-1.34 -0.06,-3.42 2.61,-2.82 4.41,-0.46 0.88,-0.97 -0.09,-5.13 -1.81,-4.11 0.79,-4.34 4.36,-4.76 4.41,-0.42 0.87,-0.97 -0.1,-6.83 -2.77,-7.44 -2.69,-3.98 -0.98,-5.08 1.71,-3.6 16.5,-18.81 0.82,-5.22 8.54,-18.89 10.35,-16.5 -0.4,-27.35 -5.28,0.51 -9.68,4.43 -12.21,8.97 -25.02,-19.69 -1.81,-3.23 0,0 5.23,-4.85 13.99,-9.98 -0.99,-5.92 0.88,-0.92 0.54,-23.2 6.15,-1.53 7.88,-5.08 13.93,-12.57 6.93,-8.45 -1.81,-4.95 0.77,-6.93 0.84,-3.51 6,-11.74 1.68,-6.19 -0.06,-4.3 3.53,0.51 10.57,-1.11 6.15,-3.19 9.6,-7.86 12.34,-1.24 5.25,-3.98 7.04,-0.74 8.72,-7.76 4.41,-0.47 7.14,4.44 4.4,-0.46 6.04,-10.08 2.63,-1.1 2.67,2.31 0.05,1.71 5.37,6.28 4.42,-0.46 6.98,-4.99 4.4,-0.46 6.25,2.77 8.85,1.66 2.68,2.31 2.73,4.86 4.47,4.66 1.78,0.7 2.64,0.55 10.6,-1.94 1.77,1.53 -3.44,4.66 0.01,2.54 2.68,1.44 21.16,-2.18 2.66,0.61 3.59,3.05 6.05,-7.49 5.08,-15.94 6,-11.79 1.68,-5.31 13.05,-14.19 15.73,-11.05 15.61,-19.6 10.47,-7.95 0,0 14.44,20.8 1.83,4.07 1.91,9.24 3.7,10.77 0.04,3.42 5.56,17.43 0.96,5.91 0.91,0.74 0.03,3.42 3.71,10.77 0.05,3.42 0.89,0.78 1.35,32.4 -3.35,12.38 -1.59,11.28 z"
     title="Faetano"
     id="SM-04" />
  <path
     d="m 617.46008,867.26985 0.05,1.71 3.59,3.93 15.95,6.05 8.99,8.5 0,0 -3.23,21.02 3.96,20.18 0.99,26.15 -7.63,5.03 -9.28,11.96 -7.62,4.12 -4.63,1.38 -7.3,5.5 0.32,19.25995 16.26,2.72 7.96,-15.55995 20.55,10.98995 0,16.07 -9.94,6.88 -4.65,4.58 -1.67,13.3 -5.29,6.88 -7.96,2.72 -2.99,4.16 24.88,44.93 -7.31,16.03 -12.59,0 -6.96,9.65 -27.17,29.78 -0.36,20.27 0,0 -12.04,2.08 -7.89,5.08 -1.74,0.19 -5.37,-3.74 -14.83,12.69 -8.75,5.18 -9.66,3.55 -1.71,2.77 -3.31,14.87 -17.78,-6.7 -4.41,0.42 -4.37,2.17 -9.71,1.02 -2.62,1.1 -5.22,4.85 -7.02,3.28 -7.1,-1.85 -16.8,-1.66 -0.92,-1.61 -5.35,-3.74 -7.09,-1.85 -5.38,-4.57 -15.1,-6.14 -6.25,-4.53 -2.7,-3.97 -0.96,-4.2 3.39,-10.62 -0.06,-3.42 -3.53,-0.51 -6.21,-2.77 -4.48,-3.83 -0.07,-4.25 -0.91,-0.78 4.34,-6.42 -1.8,-2.4 -1.79,-0.69 5.97,-14.32 -2.73,-4.85 -12.51,-10.71 -2.67,-0.56 -19.58,-10.85 -2.66,-0.55 -2.68,-2.31 -0.95,-4.16 -6.34,-11.36 -1.78,-0.64 -0.86,0.92 -24.66,5.96 -20.02,19.21 6.28,7.89 -5.19,6.56 -3.39,-2.91 -4.49,0.19 -6.2,5.86 -0.93,-4.15 -1.8,-2.41 -2.65,-0.6 -3.54,1.25 0,0 -1.03,-10.16 6.1,-5.77 13.83,-20.27 -0.05,-2.59 0.88,-0.92 -0.14,-9.42 -0.89,-0.74 -1.05,-11.04 -5.46,-11.45 -3.61,-4.76 -8.96,-7.62 -2.64,-0.6 -4.48,-3.83 -4.59,-11.5 -6.3,-7.9 -5.34,-2.91 -7.09,-1.85 -3.59,-3.88 -0.96,-5.03 0.86,-0.97 -0.1,-7.71 0,0 6.14,-2.30995 4.4,-0.47 0.88,-0.97 5.3,-0.5 11.39,-5.5 15.89,-1.62 0.88,0.74 8.82,-0.04 0.9,0.78 22.95,-1.52 16.87,5.95 42.92,-24.11 10.62,2.31 18.53,-1.89 0.88,0.74 5.29,-0.51 7.12,3.51 1.75,-1.01 3.44,-6.33 4.24,-11.6 4.29,-8.17 -0.02,-1.71 4.29,-8.13 0,0 17.64,-1.8 0.87,-0.97 5.29,-0.55 16.72,-5.13 6.12,-3.24 12.33,-2.12 8.8,-3.46 7.91,-0.84 0.89,-0.92 7.92,-1.66 14.02,-7.49 11.36,-8.87 8.76,-3.46 7.04,-1.57 3.5,-3.79 8.8,-1.8 9.53,-11.22 11.4,-6.33 6.1,-4.95 z"
     title="Fiorentino"
     id="SM-05" />
  <path
     d="m 538.07008,455.55985 -6.15,3.19 -6.09,4.94 -2.62,2.82 -3.43,7.21 -2.41,14.84 -3.49,4.62 -5.93,15.21 0.04,3.42 -0.86,0.97 1.18,21.3 -0.85,0.93 0.06,4.3 -1.68,6.14 -3.42,7.21 0.03,1.71 -7.83,9.38 -10.31,18.21 0.3,20.57 8.06,7.72 3.53,-0.38 3.52,-2.07 4.38,-0.47 0.88,-0.92 6.16,-0.65 0.88,-0.92 10.6,-0.28 19.52,6.56 3.57,2.22 -4.95,24.49 1.78,-0.18 13.12,-8.18 3.88,23.57 0.9,0.78 -2.57,6.24 -0.75,7.81 10.59,0.6 3.58,2.22 9.73,3.28 6.28,5.36 11.56,4.8 2.65,-0.27 14.16,2.81 15.9,-0.78 0.88,0.78 9.71,-1.01 0,0 1.81,3.23 25.02,19.69 12.21,-8.97 9.68,-4.43 5.28,-0.51 0.4,27.35 -10.35,16.5 -8.54,18.89 -0.82,5.22 -16.5,18.81 -1.71,3.6 0.98,5.08 2.69,3.98 2.77,7.44 0.1,6.83 -0.87,0.97 -4.41,0.42 -4.36,4.76 -0.79,4.34 1.81,4.11 0.09,5.13 -0.88,0.97 -4.41,0.46 -2.61,2.82 0.06,3.42 3.54,1.34 0.05,3.42 -1.72,2.77 -5.27,2.26 -4.35,4.71 0.06,4.3 -2.6,2.82 -21.06,9.88 0,0 -3.5,1.2 -6.1,4.95 -11.4,6.33 -9.53,11.22 -8.8,1.8 -3.5,3.79 -7.04,1.57 -8.76,3.46 -11.36,8.87 -14.02,7.49 -7.92,1.66 -0.89,0.92 -7.91,0.84 -8.8,3.46 -12.33,2.12 -6.12,3.24 -16.72,5.13 -5.29,0.55 -0.87,0.97 -17.64,1.8 0,0 -0.02,-1.71 4.31,-8.17 -0.12,-6.84 0.88,-0.92 0.79,-6.1 12.09,-18.39 8.71,-7.76 -0.05,-4.25 -0.89,-0.78 -0.08,-4.25 -1.84,-5.82 -0.1,-6.01 -0.9,-0.74 -1.19,-21.29 -0.9,-0.79 -2.87,-15.98 -1.85,-4.95 -0.57,-38.48 -0.92,-1.62 -10.63,-3.18 -2.03,-17.79 -4.58,-12.38 -32.33,-34.38 -8.03,-6.01 -7.13,-3.55 -11.49,-2.22 -14.23,-5.41 -13.27,-2.91 -2.68,-1.43 -16.79,-0.83 -0.9,-0.79 -16.77,0.88 -6.21,-1.94 -16.27,-24.03 -15.22,-14.69 -2.7,-4.02 -0.95,-3.33 -4.42,-1.25 -9.8,-4.99 -6.18,-1.06 -11.55,-3.97 -7.96,-0.88 0,0 -0.98,-5.92 0.86,-0.92 0.76,-10.35 0.86,-0.97 -0.96,-5.92 -4.51,-5.5 -0.88,0.1 -9.84,-9.29 -4.46,-2.13 -4.49,-4.67 15.91,0.1 8.84,1.66 13.25,-0.56 16.84,3.42 6.17,-0.64 21.92,-9.98 6.16,-1.48 7.02,-3.28 6.15,-0.65 2.64,-1.99 -4.52,-6.38 -2.77,-8.27 0.76,-8.69 5.76,-8.87 -1.7,-14.65 -4.62,-14.1 -0.96,-5.91 -7.26,-12.11 -1.77,-1.53 -14.21,-3.7 0,0 12.99,-18.48 7.88,-4.21 2.61,-2.86 62.26,-89.59 7.86,-5.08 12.33,-3.01 6.14,-3.19 0,0 17.7,3.33 13.27,0.33 0.89,0.78 12.35,-0.41 0.87,-0.98 10.58,-1.94 7,-3.28 2.65,-0.28 7.88,-5.13 4.39,-1.29 9.64,-5.27 2.6,-1.99 10.42,-13.08 2.65,-0.28 9.62,-6.15 1.75,-0.18 9.84,7.58 5.35,2.86 0.01,1.72 -0.86,0.97 -1.49,19 -22.54,28.06 14.38,18.21 -12.94,19.32 0.89,1.62 19.63,13.4 7.24,11.28 z"
     title="Borgo Maggiore"
     id="SM-06" />
  <path
     d="m 241.32008,633.62985 7.96,0.88 11.55,3.97 6.18,1.06 9.8,4.99 4.42,1.25 0.95,3.33 2.7,4.02 15.22,14.69 16.27,24.03 6.21,1.94 16.77,-0.88 0.9,0.79 16.79,0.83 2.68,1.43 13.27,2.91 14.23,5.41 11.49,2.22 7.13,3.55 8.03,6.01 32.33,34.38 4.58,12.38 2.03,17.79 10.63,3.18 0.92,1.62 0.57,38.48 1.85,4.95 2.87,15.98 0.9,0.79 1.19,21.29 0.9,0.74 0.1,6.01 0.88,0.78 1.04,9.29 0.89,0.78 0.05,4.25 -8.71,7.76 -12.09,18.39 -0.79,6.1 -0.88,0.92 0.12,6.84 -4.31,8.17 0.02,1.71 0,0 -4.29,8.13 0.02,1.71 -4.29,8.17 -4.24,11.6 -3.44,6.33 -1.75,1.01 -7.12,-3.51 -5.29,0.51 -0.88,-0.74 -18.53,1.89 -10.62,-2.31 -42.92,24.11 -16.87,-5.95 -22.95,1.52 -0.9,-0.78 -8.82,0.04 -0.88,-0.74 -15.89,1.62 -11.39,5.5 -5.3,0.5 -0.88,0.97 -4.4,0.47 -6.14,2.30995 0,0 -0.98,-5.86995 -2.71,-4.02 -12.46,-7.25 -8.01,-3.46 -10.74,-10.9 -4.43,-1.25 -6.33,-7.9 -0.1,-7.71 9.36,-23.24 -0.1,-7.71 -6.4,-14.74 -5.4,-5.45 9.61,-8.73 3.52,-0.32 0.86,-0.97 5.29,-0.56 8.85,1.67 7.95,-0.83 7.91,-2.5 1.31,-31 -5.31,-0.32 -16.66,7.72 -1,-7.58 -0.88,-0.79 -0.25,-16.26 0.87,-0.92 -0.04,-2.59 -13.96,10.91 -1.78,0.13 -13.42,-11.45 -2.83,-13.4 -7.11,-2.68 -1.79,-1.57 -12.4,-2.13 -7.07,-0.13 -8.94,-7.63 -5.35,-2.91 -14.12,-0.23 -0.88,0.93 -7.93,0.83 -0.86,0.97 -7.94,0.78 -0.88,0.97 -12.33,2.13 0,0 -1.17,-18.71 -0.91,-1.62 0,0 13.89,-16.03 16.73,-3.42 11.35,-8.92 10.56,-2.77 16.54,-17.14 4.39,-1.29 9.61,-7.03 7.9,-3.37 9.58,-9.56 11.39,-6.29 6.96,-6.74 6.1,-4.07 27.01,-25.92 -3.69,-9.89 -2.87,-15.99 -4.59,-10.67 -0.04,-2.54 z"
     title="San Marino"
     id="SM-07" />
  <path
     d="m 646.04008,887.45985 14.87,-9.24 1.86,5.82 0.22,14.51 0.88,0.78 0.08,5.13 0.91,1.62 14.15,1.1 3.67,9.06 2.71,4.02 0.02,1.71 2.7,3.97 26.61,6.7 0.04,3.41 0.89,0.79 0.18,11.96 1.78,0.65 15.02,0.18 1.54,-15.56 7.93,0 0.91,0.78 5.28,-0.55 0.89,0.78 5.29,-0.55 0.91,0.74 5.3,-0.51 0.87,0.74 5.31,-0.55 0.88,0.78 5.31,-0.55 0.87,0.78 5.31,-0.55 0.89,0.74 19.4,-1.99 0,0 -2.56,7.11 0.08,5.13 1.84,4.11 0.03,3.42 0.91,-0.09 -0.86,2.63 0.24,16.26 -1.65,7.02 3.58,3.92 0.88,-0.09 0.13,8.55 7.07,0.14 3.55,1.34 2.67,2.3 0.95,2.45 -0.78,7.80995 -20.87,22.72 -1.68,6.14 0.08,3.42 -0.89,0.97 0.05,3.42 -7.67,17.92 0.01,1.71 -8.47,15.33 -6.33,9.23 -2.53,6.19 -2.33,1.43 -1.88,3.42 -5.84,23.74 -1.71,3.6 -5.66,35.69 -0.86,0.97 -0.89,-0.78 -16.76,1.75 -0.89,-0.78 -50.3,3.46 -0.87,-0.74 -15.89,1.62 -0.89,-0.74 -17.64,1.8 -0.9,-0.74 -9.68,0.97 -0.88,0.97 -5.29,0.51 -6.14,2.35 -10.57,1.94 -0.86,0.97 -12.35,1.3 -0.91,-0.79 -2.93,0.32 0,0 0.36,-20.27 27.17,-29.78 6.96,-9.65 12.59,0 7.31,-16.03 -24.88,-44.93 2.99,-4.16 7.96,-2.72 5.29,-6.88 1.67,-13.3 4.65,-4.58 9.94,-6.88 0,-16.07 -20.55,-10.98995 -7.96,15.55995 -16.26,-2.72 -0.32,-19.25995 7.3,-5.5 4.63,-1.38 7.62,-4.12 9.28,-11.96 7.63,-5.03 -0.99,-26.15 -3.96,-20.18 z"
     title="Montegiardino"
     id="SM-08" />
  <path
     d="m 978.82008,42.679848 0.91,1.99 0.17,10.27 0.87,0.78 0.15,10.27 2.78,8.28 1.06,11.88 -1.76,1.07 -8.81,0.92 -12.26,7.26 -6.06,7.490002 -1.67,7.03 -6.91,10.13 -6.98,5.87 -3.41,8.1 4.58,11.51 0.07,4.3 0.9,0.74 0.09,6.84 1.86,5.83 1.01,9.34 0.91,0.74 1.22,22.2 9.15,22.19 0.14,9.43 -7.83,8.51 -6.16,2.36 -12.17,12.39 -14.98,2.4 -0.88,0.97 -8.81,0.88 7.5,29.27 0.09,5.13 0.89,0.74 2.01,16.09 0.9,0.78 0.08,5.97 0.9,0.78 0.08,6.01 0.9,0.74 0.13,9.43 0,0 -14.06,4.86 -14.96,3.28 -19.18,15.72 -11.5,0.32 -3.49,2.08 -2.65,0.23 -14.88,9.29 -9.64,4.4 -9.71,1.01 -3.53,-1.34 -17.64,2.68 -8,-2.63 -0.84,2.68 -6.94,8.41 -8.74,6.06 -6.14,1.52 -4.35,5.55 -6.88,12.71 -8.76,4.35 -5.21,5.68 -8.64,12.9 -8.76,4.35 -12.18,13.26 -5.26,2.27 -1.78,-0.7 -2.75,-7.44 -6.32,-8.78 -1.76,0.18 -9.78,-4.11 -1.88,-6.66 -2.71,-4.9 -2.66,-1.43 -6.2,-0.18 -5.31,-2.04 -14.43,-19.97 -5.35,-1.98 -3.51,0.36 -2.62,2.82 -1.65,7.03 -26.32,11.28 -8.8,2.63 -8.77,5.18 -6.08,5.78 -12.94,21.08 -2.62,1.98 -5.28,0.56 -0.88,0.92 -21.17,2.18 -0.87,0.97 -7.03,1.57 0,0 -0.94,-3.33 -7.24,-11.28 -19.63,-13.4 -0.89,-1.62 12.94,-19.32 -14.38,-18.21 22.54,-28.06 1.49,-19 0.86,-0.97 -0.01,-1.72 -5.35,-2.86 -9.84,-7.58 -1.75,0.18 -9.62,6.15 -2.65,0.28 -10.42,13.08 -2.6,1.99 -9.64,5.27 -4.39,1.29 -7.88,5.13 -2.65,0.28 -7,3.28 -10.58,1.94 -0.87,0.98 -12.35,0.41 -0.89,-0.78 -13.27,-0.33 -17.7,-3.33 0,0 -0.03,-1.71 27.76,-32.86 101.26,-80.77 30.54,-25.48 4.37,-2.17 15.7,-14.47 7.88,-3.38 7.88,-5.96 5.24,-2.27 5.32,-0.55 3.48,-2.04 8.68,-9.48 9.67,-4.44 6.11,-4.07 20.26,-3.79 6.11,-4.95 7.04,-1.57 8.74,-6.89 4.37,-2.17 9.71,-1.02 5.31,1.16 14.12,-1.44 0.85,-0.97 4.42,-0.41 6.14,-2.36 8.73,-6.94 17.42,-16.37 6.13,-4.07 10.58,-1.06 4.42,1.25 2.65,-0.28 2.67,1.43 5.29,-1.38 6.07,-7.49 10.49,-7.08 7.72,-15.400002 7.81,-8.51 1.76,-1.06 16.76,-0.88 9.6,-8.69 12.34,-1.3 7.89,-4.21 9.52,-13.87 -0.05,-2.55 -3.58,-3.09 0.8,-4.35 4.39,-3.05 4.41,-0.42 0.85,-0.97 2.58,-6.24 0.78,-5.23 5.25,-3.98 9.73,-0.18 2.6,-2.82 -0.03,-1.72 4.31,-6.42 2.65,-0.28 4.46,2.08 2.62,-0.28 6.93,-11.0099997 2.63,-0.23 2.74,5.69 0.04,2.5899997 4.51,5.55 3.52,0.46 4.33,-5.59 6.2,-0.65 3.54,1.39 4.47,4.67 6.21,1.06 2.62,-1.11 1.72,-2.77 -0.03,-3.42 0.89,-0.1 -0.13,-8.5499997 5.25,-2.27 5.34,2.04 0.2,13.6899997 0.89,0.78 1.06,11.01 0.89,0.79 z"
     title="Serravalle"
     id="SM-09" />
</svg>
