<?xml version="1.0" encoding="UTF-8" standalone="no"?>
<!-- Created for MapSVG plugin: http://mapsvg.com -->
<svg
   xmlns:mapsvg="http://mapsvg.com"
   xmlns:dc="http://purl.org/dc/elements/1.1/"
   xmlns:rdf="http://www.w3.org/1999/02/22-rdf-syntax-ns#"
   xmlns:svg="http://www.w3.org/2000/svg"
   xmlns="http://www.w3.org/2000/svg"
   mapsvg:geoViewBox="13.373053 46.875889 16.594476 45.422323"
   width="612.85449"
   height="397.89349">
 
  <path
     d="m 42.207138,290.94175 2.19,-0.57 8.07,0.08 2.63,1.06 4.73,0 1.56,-5.14 2.18,-0.02 2.49,-2.15 0.72,-3.45 -0.47,-1.96 5.66,1.63 3.5,2.61 0.97,1.71 1.54,0.47 1.78,1.46 4.13,-0.24 0.09,-1.9 0.84,0.13 0.79,-1 1.37,0.38 0.5,0.89 1.86,0.49 0.13,1.39 1.2,1.3 0.85,-0.05 1.01,0.82 2.87,0.16 4.03,-1.22 -0.25,1.27 1.050002,0.11 0,1.9 0.91,-0.05 -0.02,0.87 0.84,0.05 0.22,1.09 5.44,4.46 2.74,1.38 1.21,-0.27 0.32,0.84 1.07,-0.08 0.8,1.11 2.92,0.98 2.87,2.12 -0.6,2.01 1.17,-1.06 0.84,0.11 0.97,-1.66 2.68,0.46 1.14,1.42 2.07,1.14 0,0 1.39,2.36 4.22,0.49 2.64,1.84 0.24,0.55 -0.87,0.57 0.28,0.95 0.54,-0.3 -0.08,0.87 1.65,-0.33 -0.09,1.06 -1.29,0.4 1.63,0.66 0.4,3.22 -0.67,1.06 -2.83,-0.38 -0.41,1.06 -1.01,0.03 0.19,1.79 -1.26,1.79 0.33,0.65 -0.53,1.33 0.62,0.89 1.64,0.11 0.13,0.57 -0.19,3.01 0.76,1.06 -1.27,3.73 1.88,1.33 0.34,2.79 -1.06,1.85 3.11,1.97 -0.74,2.14 3.16,1.44 -1.34,9.93 -0.22,0.62 -1.14,0.35 0.19,1.28 -0.73,1.13 -0.28,3.36 0.84,0.65 1.17,-0.6 1.58,0.68 -0.38,1.73 -1.88,2.48 -0.76,4.09 -2.47,2.29 5.45,1.25 0.38,1.19 1.41,0.59 0.47,-1.43 1.24,-0.38 -0.48,1.97 0.9,1.79 -0.48,0.08 0.57,1.92 -0.97,0.29 0.04,0.84 0,0 -2.89,-1.35 -5.01,0.16 -3.25,-0.75 -4.81,-3.92 -1.5,-0.11 -5.51,-5.27 -2.4,-0.11 -0.6,1.27 0.22,1.84 -4.82,-1.81 -2.25,2.67 1.18,2.14 2.3,1 2.43,2.73 -0.89,0.27 0.78,1.29 -1.16,2.35 0.49,3.41 -2.92,2.4 -2.99,-1.3 -0.98,-1.1 -7.85,1.35 -0.57,1.29 -1.830002,1.49 -0.05,1.02 -1.71,1.27 -0.42,2.03 -1.52,0.24 -2.51,-0.51 -2.09,0.51 -0.59,-1.7 -1.77,-0.65 -5.15,0.08 -0.32,-1.81 -1.86,-0.67 0.85,-2.89 -1,-1.38 -2.74,-1.48 -2.2,0.32 -1.89,-0.54 -1.71,-1.78 -3.11,0.4 -2.23,3 -3.49,0.6 -1.52,0.78 -2.13,2.21 -1.81,0.62 -5.26,-4.13 -7.85,-2 -2.28,-1.75 -1.71,-1.7 1.03,-0.76 0.38,-1.59 -1.43,-2.98 0.36,-0.45 0.46,0.29 -0.27,-0.67 0.4,-0.46 1.75,0.05 -0.91,-0.13 0.57,-0.65 -0.55,-0.3 -0.31,-1.7 -1.36,0.16 -1.43,-0.76 -0.95,0.36 -0.53,-0.41 -0.57,-1.24 0.15,-1.76 -0.93,-1.27 3.12,1.21 4.06,0.3 1.39,-0.97 -0.57,-0.95 -0.34,0.92 -0.29,-0.21 0.12,-2.01 2.35,-0.62 3.31,1.68 2.53,0.38 2.3,-0.71 -0.38,-1.1 0.32,-0.98 2.66,0.79 0.85,-1.63 1.96,-0.86 3.31,-0.03 3.11,1.3 0.73,-1.46 2.71,-0.95 -1.16,-0.29 0.19,-0.84 2.55,-0.22 -2.43,-0.32 0.59,-1.22 1.71,-0.27 0.07,-0.89 -3.45,-3.09 -4.41,-2.6 0.28,-1.03 2.66,-0.16 0.65,-0.67 4.18,-0.74 9.14,4.82 8,-0.51 2.57,-1.54 2.73,-2.93 0.82,-2.89 6.040002,-3.39 3.16,-3.03 -1.96,-1.87 -4.390002,-1.98 -4.05,-3.55 -5.79,-7.83 -0.35,-5.81 -4.67,-4.12 -1.81,-4.88 -0.72,-0.66 -3.86,-0.92 -2.28,-1.93 -3.21,0.36 -2.03,-1.33 0.55,-0.79 -5.4,-3.07 -5.89,-5.62 -0.99,0.51 -1,-2.2 -5.34,0.82 0.24,-1.22 -3.72,1.82 -0.42,-1.23 -4.52,-2.06 z"
     title="Obalno-kraška"
     id="SI-JP" />
  <path
     d="m 144.80714,276.07175 0.72,-0.79 1.92,0.08 1.22,-1.2 1.27,1.34 5.38,-1.15 3.97,2.4 1.25,-0.14 1.73,1.74 -0.11,0.66 3.51,-0.22 0.38,0.24 -0.64,0.9 1.95,0.73 0.37,0.69 1.74,-1.77 -0.28,1.08 2.43,-0.08 1.31,1.47 4.43,-9.38 -0.17,-1.31 1.73,-1.6 1.65,-0.36 5.63,1.99 1.38,2.2 0.44,2.26 1.22,-0.13 0.74,1.11 1.71,-1.69 2.52,2.23 0.12,1.47 0.82,0.9 0.78,0 0.96,-2.34 1.51,-0.79 1.46,0.33 3.53,4.95 1.66,-1.01 0.41,-1.93 1.41,-2.12 2.34,0.68 1.56,-0.57 3.07,-2.61 1.3,2.45 -0.23,1.93 -1.07,0.65 0.18,1.41 2.05,2.59 -0.44,0.89 3.52,3.57 1.42,3.42 3.27,0.49 0.59,3.26 2.05,1.39 0.61,1.44 0,0 -3.23,0.19 -0.44,0.43 1.56,2.25 2.01,-0.1 0.88,0.48 -1.2,5.92 1.39,0.85 1.14,4.12 -3.76,0.76 -1.9,-4.42 -1.77,0.7 0.55,2.99 3.86,8.44 0.87,9.21 1.37,0.17 0,0 -1.37,6.01 -4.69,8.13 -2.62,2.68 -2.78,1.08 -2.34,0.14 0.59,4.84 -1.44,3.68 -0.65,7.36 -1.38,2.46 -0.78,0.09 -5.63,4.7 -2.43,1.32 -1.86,2.22 -2.87,-0.73 0,0.84 -2.8,0.65 -1.35,2.65 -5.37,2.26 -2.36,-0.43 -1.52,0.46 -3.55,3.32 -1.24,-1.37 -0.7,-2.08 -2.57,0 -1.52,-0.79 -1.73,-1.92 -2.24,0.25 -0.34,0.75 -1.77,0.84 -3.46,-5.29 -3.06,0.59 -1.31,0.87 -3.23,4.86 -0.13,3.32 -3.48,-1.05 -1.01,-0.81 -3.36,-0.46 -2.72,0.38 -1.67,1.1 -1.9,-0.05 0,0 -0.04,-0.84 0.97,-0.29 -0.57,-1.92 0.48,-0.08 -0.9,-1.79 0.48,-1.97 -1.24,0.38 -0.47,1.43 -1.41,-0.59 -0.38,-1.19 -5.45,-1.25 2.47,-2.29 0.76,-4.09 1.88,-2.48 0.38,-1.73 -1.58,-0.68 -1.17,0.6 -0.84,-0.65 0.28,-3.36 0.73,-1.13 -0.19,-1.28 1.14,-0.35 0.22,-0.62 1.34,-9.93 -3.16,-1.44 0.74,-2.14 -3.11,-1.97 1.06,-1.85 -0.34,-2.79 -1.88,-1.33 1.27,-3.73 -0.76,-1.06 0.19,-3.01 -0.13,-0.57 -1.64,-0.11 -0.62,-0.89 0.53,-1.33 -0.33,-0.65 1.26,-1.79 -0.19,-1.79 1.01,-0.03 0.41,-1.06 2.83,0.38 0.67,-1.06 -0.4,-3.22 -1.63,-0.66 1.29,-0.4 0.09,-1.06 -1.65,0.33 0.08,-0.87 -0.54,0.3 -0.28,-0.95 0.87,-0.57 -0.24,-0.55 -2.64,-1.84 -4.22,-0.49 -1.39,-2.36 0,0 0.93,-3.02 1.39,0.08 0.53,-7.68 1.41,-0.79 0.6,1.09 0.44,-3.32 -0.06,-0.95 -3.55,-6.28 10.01,-3.15 -0.26,-0.87 1.77,-2.48 1.25,-1.03 1.18,-0.08 z"
     title="Notranjsko-kraška"
     id="SI-NO" />
  <path
     d="m 53.457138,120.42175 0.38,0.83 1.77,-0.28 3.42,0.8 0,0 -0.48,2.03 0.76,0.86 4.07,-0.99 6.58,-2.86 2.79,3.46 5.05,1.48 2.08,1.41 0,0.63 2.58,1.45 1.37,-0.05 -0.1,2.61 0.8,1.84 -0.3,1.51 1.88,2.09 1.97,-0.17 0.33,1.02 -0.69,1.92 -1.84,2.41 -1.41,0.61 -1.44,-0.11 -0.97,0.96 -2.43,-0.25 -2.09,2.03 -6.33,2.06 -0.7,1.34 0.76,5.16 -4.01,3.43 1.48,1.31 -0.32,1.35 1.35,2.74 0.74,0 1.21,1.1 1.69,3.04 2.27,0.55 4.97,5.34 7.76,4.63 4.22,3.47 4.56,-0.05 5.490002,-0.85 7.94,-2.71 9.01,-1.86 -0.11,0.87 1.91,1.26 0.25,2.93 -0.64,2.11 -1.54,0.63 -1.45,3.09 -0.49,3.75 0.85,2.66 2.26,0.82 2.65,-1.23 2.16,0.87 2.07,-1.01 1.77,0.98 5.04,1.1 -0.06,2.35 -0.72,1.67 -2.57,3.11 0.31,1.86 -1.51,1.18 -1.04,1.91 -0.36,2.32 -2.28,1.59 -1.65,2.81 -0.61,3.31 1.04,2.32 1.29,1.42 4.51,2.73 2.45,2.48 1.8,0.82 0.92,2.84 -0.59,0.52 1.44,0.33 -0.32,1.14 -1.41,1.56 1.16,-0.11 0.42,-1.09 0.78,0.13 1.01,-0.92 1.12,-0.17 0.34,0.47 -0.44,0.81 0.88,0.82 -0.19,1.86 1,0.95 -0.59,1.56 1.62,0.35 0.4,0.96 0.99,-0.06 0.21,0.74 1.86,0.46 1.25,-0.3 0,0 1.05,0.6 -0.8,1.2 0.46,1.53 -1.16,0.03 -1.2,3.24 -0.8,0.46 -2.64,-0.38 0.06,1.53 -1.01,0.46 0.38,1.91 1.84,-0.68 -0.47,1.58 0.61,1.14 0,1.94 -1.33,0.84 -0.33,3.22 -2.52,1.6 0.68,2.07 0,3.73 2.58,1.99 0.88,1.41 0.74,5.04 0.97,2.34 0,0 -1.35,1.47 -1.18,0.08 -1.25,1.03 -1.77,2.48 0.26,0.87 -10.01,3.15 3.55,6.28 0.06,0.95 -0.44,3.32 -0.6,-1.09 -1.41,0.79 -0.53,7.68 -1.39,-0.08 -0.93,3.02 0,0 -2.07,-1.14 -1.14,-1.42 -2.68,-0.46 -0.97,1.66 -0.84,-0.11 -1.17,1.06 0.6,-2.01 -2.87,-2.12 -2.92,-0.98 -0.8,-1.11 -1.07,0.08 -0.32,-0.84 -1.21,0.27 -2.74,-1.38 -5.44,-4.46 -0.22,-1.09 -0.84,-0.05 0.02,-0.87 -0.91,0.05 0,-1.9 -1.050002,-0.11 0.25,-1.27 -4.03,1.22 -2.87,-0.16 -1.01,-0.82 -0.85,0.05 -1.2,-1.3 -0.13,-1.39 -1.86,-0.49 -0.5,-0.89 -1.37,-0.38 -0.79,1 -0.84,-0.13 -0.09,1.9 -4.13,0.24 -1.78,-1.46 -1.54,-0.47 -0.97,-1.71 -3.5,-2.61 -5.66,-1.63 0.47,1.96 -0.72,3.45 -2.49,2.15 -2.18,0.02 -1.56,5.14 -4.73,0 -2.63,-1.06 -8.07,-0.08 -2.19,0.57 0,0 -1.84,-6.06 -2,-1.03 0.04,-2.75 0.99,-1.17 0.61,-2.58 1.59,-2.02 -0.83,-2.28 1.27,-2.29 2.66,-2.09 2.24,-4.58 0.4,-2.01 2.7,-3.46 -0.78,-4.27 1.92,-8.45 -1.48,-1.23 -3.59,1.91 -0.52,-0.79 -4.08,-1.31 -2.72,2.1 -0.32,1.25 -1.88,2.18 -2.57,-0.27 -1.25,1.2 -2.26,-0.08 -4.28,-3.85 -1.73,-0.08 -2.7,-3.46 -0.24,-1.33 -1.22,-1.42 -1.04,-0.25 -0.08,-0.6 1.92,-2.21 2.16,-0.24 1.73,-3.11 0.67,-3.82 -0.49,-1.2 -1.43,-0.66 0.15,-2.75 1.1,-1.12 4.85,-1.64 2.58,-3.85 5.46,-2.27 1.42,-1.91 3.04,-2.13 1.35,-2.38 1.43,-0.54 2.45,-2.13 1.75,-2.65 2.18,-1.64 1.92,-3.91 -0.15,-2.27 1.39,-1.45 0.76,-2.66 -1.45,-2.4 -3.97,-1.65 -1.18,0.11 -3.09,2 -0.57,-0.44 0.45,-1.01 -3.95,0.08 -0.42,-0.68 -3.42,1.78 -0.97,-0.93 0.11,-1.84 -1.51,-2.7 -4.09,-2.3 -1.37,-0.14 -0.49,-1.48 -1.77,0.33 -0.57,0.6 -2.89,-0.03 -1.14,-1.61 -1.94,-0.85 -1.88,-0.25 -1.67,0.63 -3.48,-0.82 -0.45,0.3 0.81,1.59 -0.4,1.59 -4.48,1.72 -2.3,-1.06 -0.61,-1.24 1.09,-1.2 0.11,-1.04 -0.72,-1.1 1.5,-0.62 0.78,-1.16 -1.69,-1.45 -3.29,-4.38 -2.03,-9.48 -1.55999999,-0.11 -0.63,-2 5.25999999,-0.74 2.46,-2.22 0.09,-1.89 1.41,-1.57 3.27,-0.79 1.65,-3.1 -2.21,-5.49 0.48,-1.29 2.66,-0.77 3.15,0.52 2.89,-2.47 2.13,-0.19 2.51,-1.7 1.01,0.3 0.19,-1.62 1.9,-1.48 1.59,0.14 1.58,-1.43 1.54,-0.14 1.58,-1.51 1.17,-0.14 2.04,-3.29 0.43,-4.02 0.69,-1.42 0.97,-0.22 1.73,-2.04 4.98,-1.26 1.82,0.16 3.25,-1.21 z"
     title="Goriška"
     id="SI-SP" />
  <path
     d="m 69.877138,99.541749 3.04,-0.27 1.65,0.770001 1.35,-0.280001 4.37,2.870001 3.31,-0.2 3.19,-2.31 0.67,-1.320001 1.16,0.96 2.81,0.450001 4.98,-1.520001 0.55,-0.74 3.04,0.99 2.560002,-0.58 1.79,0.52 1.08,1.410001 3.06,0.71 1.77,1.08 3.4,3.16 1.14,-0.44 2.3,1.35 0.4,1.54 1.52,0.19 1.88,1.52 2.42,0.02 2.73,-2.75 3.06,-0.36 3.71,1.52 4.44,0.71 1.28,1.54 3.09,0.53 1.33,1.34 2.32,4.21 0,1.93 3.01,1.84 0.39,1.87 0.65,0.52 2.2,0.19 4.26,-2.47 3.9,0.82 1.21,-0.96 1.81,2.2 1.88,0.71 1.99,-0.49 1.81,-1.29 1.5,0.19 3.69,-1.4 1.5,0.63 -0.15,0.49 3.74,2.51 3.65,-0.44 1.8,-0.83 0.69,-0.93 4.25,-0.09 0.73,-0.54 2.13,0.52 3.15,-1.82 2.39,-0.46 3.6,0.16 1.25,1.73 -0.95,0.28 -0.15,1.26 1.8,1.35 0.4,1.73 0.67,0.36 3.8,0 2.13,0.66 0.34,1.4 1.04,-0.3 1.64,0.68 3.04,-3.49 2.45,0.36 3.53,3.79 0,1.43 2.26,3.02 1.18,5.19 0.82,0.74 2.57,-0.85 0,0 -0.02,0.28 0,0 -0.86,1.12 -2.39,0.25 -1.47,0.82 0,0.58 1.9,1.37 0.37,1.32 -0.77,2.06 -1.61,1.75 0.08,0.66 0.62,0.93 1.92,0.8 0.46,0.93 -0.21,0.77 -1.94,1.4 -1.35,1.89 2.83,4.88 -0.87,1.81 2.85,1.15 -0.53,1.43 1.82,1.97 -3.29,0.14 -1.1,1.59 0.08,0.79 2.73,0.88 -0.53,1.23 1.5,2.36 -4.65,3.69 0.15,1.76 -1.01,0.84 -0.43,1.24 -2.61,2.43 -1.1,-0.43 -0.55,0.63 -0.89,-0.06 -1.32,1.23 -0.3,1.59 -1.18,0.98 -0.89,-0.54 -3.52,-0.03 -1.44,-0.9 -1.63,0.22 -0.46,0.57 1.73,1.18 -2.03,1.28 0,0 -4.68,0.71 -0.34,-0.49 0,0 -1.35,-0.46 -1.96,0.57 -1.54,-0.33 0.17,2 0.99,1.97 1.98,1.91 -4.71,2.68 -2.74,0 0.25,2.11 -0.76,1.12 -0.8,-0.33 -0.08,-1.36 -2.16,-0.2 -0.02,1.29 -0.69,0.41 -0.91,-0.71 -1.5,2.71 -1.63,0.3 -1.6,1.12 -0.51,3.39 1.78,1.74 -0.26,1.12 0.45,1.02 -0.99,2.15 -2.45,0.2 -1.46,-1.34 -2,0.54 -7.69,-1.2 -1.14,0.74 -1.07,2.21 -3.95,-0.03 -0.82,1.53 -1.42,0.77 -1.26,2.7 0.4,4.83 -0.3,0.88 -1.46,1.14 -0.46,2.6 -2.47,1.5 0.02,1.2 -2.11,1.28 -0.15,1.88 -1.29,0.38 -1.75,-0.49 -0.12,1.2 -1.31,-0.02 -0.38,0.54 0.14,1.69 -1.07,0 -0.97,0.9 0,0 -1.25,0.3 -1.86,-0.46 -0.21,-0.74 -0.99,0.06 -0.4,-0.96 -1.62,-0.35 0.59,-1.56 -1,-0.95 0.19,-1.86 -0.88,-0.82 0.44,-0.81 -0.34,-0.47 -1.12,0.17 -1.01,0.92 -0.78,-0.13 -0.42,1.09 -1.16,0.11 1.41,-1.56 0.32,-1.14 -1.44,-0.33 0.59,-0.52 -0.92,-2.84 -1.8,-0.82 -2.45,-2.48 -4.51,-2.73 -1.29,-1.42 -1.04,-2.32 0.61,-3.31 1.65,-2.81 2.28,-1.59 0.36,-2.32 1.04,-1.91 1.51,-1.18 -0.31,-1.86 2.57,-3.11 0.72,-1.67 0.06,-2.35 -5.04,-1.1 -1.77,-0.98 -2.07,1.01 -2.16,-0.87 -2.65,1.23 -2.26,-0.82 -0.85,-2.66 0.49,-3.75 1.45,-3.09 1.54,-0.63 0.64,-2.11 -0.25,-2.93 -1.91,-1.26 0.11,-0.87 -9.01,1.86 -7.94,2.71 -5.490002,0.85 -4.56,0.05 -4.22,-3.47 -7.76,-4.63 -4.97,-5.34 -2.27,-0.55 -1.69,-3.04 -1.21,-1.1 -0.74,0 -1.35,-2.74 0.32,-1.35 -1.48,-1.31 4.01,-3.43 -0.76,-5.16 0.7,-1.34 6.33,-2.06 2.09,-2.03 2.43,0.25 0.97,-0.96 1.44,0.11 1.41,-0.61 1.84,-2.41 0.69,-1.92 -0.33,-1.02 -1.97,0.17 -1.88,-2.09 0.3,-1.51 -0.8,-1.84 0.1,-2.61 -1.37,0.05 -2.58,-1.45 0,-0.63 -2.08,-1.41 -5.05,-1.48 -2.79,-3.46 -6.58,2.86 -4.07,0.99 -0.76,-0.86 0.48,-2.03 0,0 1.94,-1.62 0.19,-2.04 0.97,-2.2 -0.99,-2.33 2.87,-3.47 -0.17,-0.8 -0.91,-0.6 0.58,-2.04 -0.66,-2.12 2.22,-2.56 -0.05,-3.220001 1.36,-0.85 z"
     title="Gorenjska"
     id="SI-GO" />
  <path
     d="m 228.85714,138.64175 4.6,3.1 1.02,-1.13 4.01,0.28 4.24,-1.57 0.19,7.33 -0.42,1.32 3.38,3.81 2.34,0.11 0.76,0.96 0.42,3.48 -0.51,3.27 1.63,0.6 3.82,-1.02 0.13,1.68 -1.65,3.15 1.61,2.33 0.02,1.92 -1.52,2.71 1.39,2.27 4.56,0 5.19,1.73 1.25,-0.77 2.55,0.8 4.45,-1.43 9.67,0.74 2.41,2.11 3,1.15 0.42,1.07 1.67,0.24 0.9,1.13 1.31,-0.52 1.18,3.31 2.35,0.38 -0.97,1.23 -1.14,-0.35 -0.74,1.67 0,0 -1.67,0.22 0.25,5.09 -0.99,1.09 -1.25,0.3 -0.12,1.75 -3.48,-0.87 -2.2,1.56 -1.6,0.35 -6.86,0.27 0.69,1.1 1.88,0.38 -0.13,1.4 0.98,0.49 0.74,1.91 1.41,0.71 -1.24,2.71 0.16,2.13 1.31,0 1.4,-0.74 0.59,0.33 4.85,-0.71 1.31,0.57 0.93,1.26 -0.64,2.82 0.76,1.03 0.07,1.53 2.64,2.79 2.06,0.25 3.91,0.16 2.41,-0.6 1.86,-3.09 1.89,-1.55 4.08,-1.81 2.21,3.58 -0.67,1.23 -2.68,0.3 1.31,2.13 0.04,2.21 1.31,0.77 -0.26,0.57 -2.34,0.38 0.68,1.45 1.68,1.45 3.74,1.42 9.71,-1.78 0,0 0.97,2.21 2.35,0.66 0,0 0.29,2.27 2.85,3.92 0.3,1.59 0.67,0.65 0,0 -3.12,-0.03 0.48,-0.81 -1.64,-0.55 -1.76,1.42 -0.76,2.18 -3.08,-1.2 -0.8,-1.09 -5.32,-0.22 -0.61,1.34 0.97,0.46 1.14,3.36 -0.59,1.47 -1.25,0.08 -0.38,0.79 -1.31,0.63 0.45,1.72 -0.85,0.68 -1.83,-0.3 -0.21,0.76 -0.93,-0.03 -2.33,-1.71 -2.99,0.27 -1.37,-1.58 -2.47,-0.38 -1.76,1.14 -0.21,3.14 -2.91,0.92 -2.41,0.14 -1.6,-1.45 -0.59,-1.63 -1.29,-1.12 0.04,-2.53 -1.66,0 -1.04,-2.98 -1.41,-0.68 -0.72,1.04 -1.03,0.05 0.12,2.13 -1.31,1.42 -3.54,-0.47 -1.06,0.74 -1.22,-0.52 -0.76,0.41 -0.78,-1.23 -1.14,1.01 -0.78,-1.03 -0.93,0.21 -0.13,-0.84 -0.82,-0.63 -1.63,1.8 -1.81,0.14 -0.15,1.74 -2.49,1.67 -2.3,-1.01 -1.42,2.1 0.61,1.01 -1.18,0.16 -1.75,2.37 -0.08,2.34 -0.53,0.3 -0.27,-0.68 -1.25,1.17 0.67,1.37 -0.94,0.27 -1.34,3.16 1.33,1.63 0.09,-0.76 0.78,-0.16 0.87,1.09 0.44,-0.66 0.74,0.68 1.01,0.03 -1.01,1.09 1.24,5.07 0.99,2.2 1.86,2.01 -0.38,0.63 -1.07,0.03 -0.21,3.15 1.05,2.18 2.17,1.39 1.59,3.81 -1.48,0.49 -0.65,1.68 -1.42,1.01 0.23,6.01 1.78,-1.04 0.86,1.17 0.05,1.42 1.18,0.21 1.52,1.2 0.16,0.73 -0.76,0.9 0.13,1.74 2.96,0.84 1.24,1.3 -0.36,0.74 0.36,0.84 -1.01,1.55 0,2.58 2.11,4.72 3.29,0.76 0.91,-2.14 0.76,0.08 0.72,1.95 0.86,-0.67 2.7,-0.25 2.41,1.66 -0.32,1.73 0.6,1.5 -1,1.11 0.21,5.32 -1.71,1.11 -0.63,1.36 -1.47,-1.04 -0.36,-0.94 -1.52,0.29 -1.5,-1.03 -4.35,-4.37 -6.97,-5.59 -1.07,-1.65 -0.91,0.57 -0.55,-0.52 -1.62,-2.36 -0.96,-3.48 -6.43,-4.67 -0.4,-1.65 -2.6,-2.61 -2.64,-0.44 -2.09,2.77 -2.21,0.71 -1.25,1.58 -2.22,-0.66 -1.03,0.44 -2.55,-0.79 -2.85,0.46 -1.12,-0.46 -0.47,0.06 -0.25,1.46 -5.26,-0.49 -0.63,1.23 0,0 -0.61,-1.44 -2.05,-1.39 -0.59,-3.26 -3.27,-0.49 -1.42,-3.42 -3.52,-3.57 0.44,-0.89 -2.05,-2.59 -0.18,-1.41 1.07,-0.65 0.23,-1.93 -1.3,-2.45 -3.07,2.61 -1.56,0.57 -2.34,-0.68 -1.41,2.12 -0.41,1.93 -1.66,1.01 -3.53,-4.95 -1.46,-0.33 -1.51,0.79 -0.96,2.34 -0.78,0 -0.82,-0.9 -0.12,-1.47 -2.52,-2.23 -1.71,1.69 -0.74,-1.11 -1.22,0.13 -0.44,-2.26 -1.38,-2.2 -5.63,-1.99 -1.65,0.36 -1.73,1.6 0.17,1.31 -4.43,9.38 -1.31,-1.47 -2.43,0.08 0.28,-1.08 -1.74,1.77 -0.37,-0.69 -1.95,-0.73 0.64,-0.9 -0.38,-0.24 -3.51,0.22 0.11,-0.66 -1.73,-1.74 -1.25,0.14 -3.97,-2.4 -5.38,1.15 -1.27,-1.34 -1.22,1.2 -1.92,-0.08 -0.72,0.79 0,0 -0.97,-2.34 -0.74,-5.04 -0.88,-1.41 -2.58,-1.99 0,-3.73 -0.68,-2.07 2.52,-1.6 0.33,-3.22 1.33,-0.84 0,-1.94 -0.61,-1.14 0.47,-1.58 -1.84,0.68 -0.38,-1.91 1.01,-0.46 -0.06,-1.53 2.64,0.38 0.8,-0.46 1.2,-3.24 1.16,-0.03 -0.46,-1.53 0.8,-1.2 -1.05,-0.6 0,0 0.97,-0.9 1.07,0 -0.14,-1.69 0.38,-0.54 1.31,0.02 0.12,-1.2 1.75,0.49 1.29,-0.38 0.15,-1.88 2.11,-1.28 -0.02,-1.2 2.47,-1.5 0.46,-2.6 1.46,-1.14 0.3,-0.88 -0.4,-4.83 1.26,-2.7 1.42,-0.77 0.82,-1.53 3.95,0.03 1.07,-2.21 1.14,-0.74 7.69,1.2 2,-0.54 1.46,1.34 2.45,-0.2 0.99,-2.15 -0.45,-1.02 0.26,-1.12 -1.78,-1.74 0.51,-3.39 1.6,-1.12 1.63,-0.3 1.5,-2.71 0.91,0.71 0.69,-0.41 0.02,-1.29 2.16,0.2 0.08,1.36 0.8,0.33 0.76,-1.12 -0.25,-2.11 2.74,0 4.71,-2.68 -1.98,-1.91 -0.99,-1.97 -0.17,-2 1.54,0.33 1.96,-0.57 1.35,0.46 0,0 0.02,0.49 5,-0.71 0,0 2.03,-1.28 -1.73,-1.18 0.46,-0.57 1.63,-0.22 1.44,0.9 3.52,0.03 0.89,0.54 1.18,-0.98 0.3,-1.59 1.32,-1.23 0.89,0.06 0.55,-0.63 1.1,0.43 2.61,-2.43 0.43,-1.24 1.01,-0.84 -0.15,-1.76 4.65,-3.69 -1.5,-2.36 0.53,-1.23 -2.73,-0.88 -0.08,-0.79 1.1,-1.59 3.29,-0.14 -1.82,-1.97 0.53,-1.43 -2.85,-1.15 0.87,-1.81 -2.83,-4.88 1.35,-1.89 1.94,-1.4 0.21,-0.77 -0.46,-0.93 -1.92,-0.8 -0.62,-0.93 -0.08,-0.66 1.61,-1.75 0.77,-2.06 -0.37,-1.32 -1.9,-1.37 0,-0.58 1.47,-0.82 2.39,-0.25 z"
     title="Osrednjeslovenska"
     id="SI-LJ" />
  <path
     d="m 227.08714,297.82175 0.63,-1.23 5.26,0.49 0.25,-1.46 0.47,-0.06 1.12,0.46 2.85,-0.46 2.55,0.79 1.03,-0.44 2.22,0.66 1.25,-1.58 2.21,-0.71 2.09,-2.77 2.64,0.44 2.6,2.61 0.4,1.65 6.43,4.67 0.96,3.48 1.62,2.36 0.55,0.52 0.91,-0.57 1.07,1.65 6.97,5.59 4.35,4.37 1.5,1.03 1.52,-0.29 0.36,0.94 1.47,1.04 0.63,-1.36 1.71,-1.11 -0.21,-5.32 1,-1.11 -0.6,-1.5 0.32,-1.73 -2.41,-1.66 -2.7,0.25 -0.86,0.67 -0.72,-1.95 -0.76,-0.08 -0.91,2.14 -3.29,-0.76 -2.11,-4.72 0,-2.58 1.01,-1.55 -0.36,-0.84 0.36,-0.74 -1.24,-1.3 -2.96,-0.84 -0.13,-1.74 0.76,-0.9 -0.16,-0.73 -1.52,-1.2 -1.18,-0.21 -0.05,-1.42 -0.86,-1.17 -1.78,1.04 -0.23,-6.01 1.42,-1.01 0.65,-1.68 1.48,-0.49 -1.59,-3.81 -2.17,-1.39 -1.05,-2.18 0.21,-3.15 1.07,-0.03 0.38,-0.63 -1.86,-2.01 -0.99,-2.2 -1.24,-5.07 1.01,-1.09 -1.01,-0.03 -0.74,-0.68 -0.44,0.66 -0.87,-1.09 -0.78,0.16 -0.09,0.76 -1.33,-1.63 1.34,-3.16 0.94,-0.27 -0.67,-1.37 1.25,-1.17 0.27,0.68 0.53,-0.3 0.08,-2.34 1.75,-2.37 1.18,-0.16 -0.61,-1.01 1.42,-2.1 2.3,1.01 2.49,-1.67 0.15,-1.74 1.81,-0.14 1.63,-1.8 0.82,0.63 0.13,0.84 0.93,-0.21 0.78,1.03 1.14,-1.01 0.78,1.23 0.76,-0.41 1.22,0.52 1.06,-0.74 3.54,0.47 1.31,-1.42 -0.12,-2.13 1.03,-0.05 0.72,-1.04 1.41,0.68 1.04,2.98 1.66,0 -0.04,2.53 1.29,1.12 0.59,1.63 1.6,1.45 2.41,-0.14 2.91,-0.92 0.21,-3.14 1.76,-1.14 2.47,0.38 1.37,1.58 2.99,-0.27 2.33,1.71 0.93,0.03 0.21,-0.76 1.83,0.3 0.85,-0.68 -0.45,-1.72 1.31,-0.63 0.38,-0.79 1.25,-0.08 0.59,-1.47 -1.14,-3.36 -0.97,-0.46 0.61,-1.34 5.32,0.22 0.8,1.09 3.08,1.2 0.76,-2.18 1.76,-1.42 1.64,0.55 -0.48,0.81 3.12,0.03 0,0 4.05,1.31 0.68,2.13 0.86,-0.68 0.21,-1.34 0.59,-0.22 3.24,0.11 1.6,0.82 0.25,1.77 -0.57,1.37 -2.3,1.09 -0.5,2.78 1.81,0.92 0.25,2.68 2.03,1.17 4.48,4.3 4.22,1.75 1.24,0.05 -0.12,-1.41 0.78,-0.55 1.6,0.76 0.21,-1.55 1.61,-0.08 0.54,-0.74 -0.27,-2.1 1.39,-0.08 1.12,0.71 1.86,3.35 1.79,-0.13 0.11,-1.69 -1.56,-1.77 0.8,-1.15 0,-1.09 0.63,-0.27 2.58,0.82 2.21,1.93 -0.12,-3 2.99,1.09 2.35,-0.19 0.08,3.46 2.56,0.79 0.8,1.37 -0.06,0.73 -1.4,1.56 0.78,11 -1.56,4.08 1.12,0.98 4.48,1.44 2.15,1.33 -0.62,1.77 0.57,0.36 0.19,2.58 2.39,-0.03 -1.12,1.99 -4.31,0.87 -0.35,1.06 1.24,0.98 0.49,2.45 1.69,2.25 3.01,10.03 0,0 -2.23,1.71 -0.74,1.39 -1.52,-0.11 -0.82,0.73 -1.59,0.14 -6.79,4.02 -4.67,1.65 -1.54,1.93 -2.38,1.25 -3.34,4.26 -4.18,1.06 -0.23,0.51 2.13,1.57 1.75,-0.73 1.16,0.35 0.66,2.34 0.55,0.38 2.15,-0.73 0.84,1.22 0.13,3.17 1.88,1.71 -0.21,-0.92 0.74,-1.9 1.87,-0.08 -0.63,2.6 2.77,4.04 0.86,-0.87 -1.45,-3.98 0.19,-1.28 2.36,-1.6 1.35,-3.12 3.44,-0.08 0.38,1.19 -0.55,2.63 1.16,0.28 0.09,1.11 -0.51,2.25 -1.81,0.49 -0.3,3.52 0.46,0.33 0.45,-0.52 0.19,-1.06 1.18,0.03 0.42,-2.87 1.14,-0.74 0.11,1.47 1.33,2.17 1.46,0.97 1.13,1.68 0,1.28 0.83,0.81 0.38,2.09 1.94,1.11 -2.15,2.27 -1.69,0.63 -2.35,-0.87 -0.67,-1.35 -1.42,0.4 -3.25,-0.57 -0.78,0.95 1.73,0.84 -0.19,0.92 -1.89,0.9 -2.9,-0.27 -4.47,1 -0.02,2.19 0.95,2.6 -3.04,0.38 -2.71,2.19 4.1,5.61 0.51,12.66 0.78,0.94 1.69,0.16 -0.15,2.01 2.03,0.94 1.33,2.6 4.81,2.89 1.28,1.75 1.42,-0.75 0.55,1 2.42,1.73 -5.21,3.21 -2.43,5.13 -1.75,0.14 -1.26,0.89 -6.08,-1.54 -5.01,-1.95 -5.5,3.41 -2.94,4.18 -0.32,2.51 -0.63,0.46 -3.46,0.08 -2.05,-2.62 -0.88,0.81 0.02,1.27 -1.46,1.46 -2.96,0.11 -1.39,-0.54 -2.02,-1.38 -1.9,-3.64 -2.85,-1.03 -3.57,-4.02 -3.34,-1.24 -0.42,-0.84 0.23,-3.62 -1.35,-0.03 -1.75,-1.35 -1.73,-0.16 -1.07,-1.49 -0.94,0.08 -1.81,1.79 -2.58,0.4 -0.56,-1.13 -2.24,-1.84 -5.66,-0.65 -2.62,-3.08 -7.09,-5.19 -1.77,0.27 -0.44,1.35 -1.25,1.17 0.49,3.94 -0.76,1.22 0.52,1.51 -1.29,4.59 -3.37,0.3 -2.79,1.03 -1.37,1.51 -9.73,1.73 -0.38,-2.95 -1.61,-1.91 -0.14,-2.08 -1.16,-1.35 0.65,-1.11 -1.16,-2.06 -1.73,0.49 -0.25,-1.43 -3.45,-0.41 0.01,-1.32 -1.99,0.22 -1.71,-2.14 -1.88,-1.05 -0.84,-1.46 -3.02,-1.46 -2.89,-0.22 -0.64,2.16 -1.6,0.16 -1.29,-2.19 0.8,-5.22 1.29,-0.64 0.82,-1.74 -1.18,-2.35 -0.14,-1.43 -2.49,-3.28 -5.16,-0.73 -2.3,-3.33 -2.02,-0.4 -0.7,-2.2 -3.06,-1.11 -2.6,-2.49 0.98,-3.57 -0.32,-0.79 1.52,-4.44 1.29,-1.03 -1.74,-0.55 -1.16,-1.4 -1.3,0.81 -2.16,0.24 -0.42,-1.19 -0.36,0.46 -0.34,-0.95 -0.63,-0.05 0,0 -1.37,-0.17 -0.87,-9.21 -3.86,-8.44 -0.55,-2.99 1.77,-0.7 1.9,4.42 3.76,-0.76 -1.14,-4.12 -1.39,-0.85 1.2,-5.92 -0.88,-0.48 -2.01,0.1 -1.56,-2.25 0.44,-0.43 z"
     title="Jugovzhodna Slovenija"
     id="SI-JS" />
  <path
     d="m 292.37714,185.73175 0,2.32 2.15,1.23 1.88,2.58 3.65,0.16 3.9,-1.01 1.63,-0.99 2.34,0.72 3.26,-0.06 0.2,0.6 0.38,-0.13 -0.27,1.5 0.93,0.27 1.35,-1.36 1.48,-0.09 1.64,-1.34 1.8,0.71 4.68,-0.27 4.84,-3.2 1.39,0.63 0.53,1.31 2.59,2.16 0.28,1.81 1.12,0.11 -0.32,2.32 1.58,0.28 1.54,-0.82 0.96,0.16 1.05,4.46 3.48,2.46 0.24,1.45 0.8,0.33 0.65,1.99 1.46,1.28 -2.43,0.61 -0.78,0.65 -0.34,1.34 -4.45,-1.69 -1.04,-1.12 -0.61,0.13 0.32,1.18 -0.8,0.44 -0.95,3.14 4.41,2.65 -2.17,1.14 -1.76,0.25 -2.53,-0.85 -0.63,0.25 -2.43,-1.31 -0.7,0.79 0.24,1.23 -2.05,0.76 -0.83,-0.24 0.03,3.36 -0.32,0.27 -1.22,-1.34 -1.82,1.39 -0.13,1.26 0.53,0.68 0,0 -9.71,1.78 -3.74,-1.42 -1.68,-1.45 -0.68,-1.45 2.34,-0.38 0.26,-0.57 -1.31,-0.77 -0.04,-2.21 -1.31,-2.13 2.68,-0.3 0.67,-1.23 -2.21,-3.58 -4.08,1.81 -1.89,1.55 -1.86,3.09 -2.41,0.6 -3.91,-0.16 -2.06,-0.25 -2.64,-2.79 -0.07,-1.53 -0.76,-1.03 0.64,-2.82 -0.93,-1.26 -1.31,-0.57 -4.85,0.71 -0.59,-0.33 -1.4,0.74 -1.31,0 -0.16,-2.13 1.24,-2.71 -1.41,-0.71 -0.74,-1.91 -0.98,-0.49 0.13,-1.4 -1.88,-0.38 -0.69,-1.1 6.86,-0.27 1.6,-0.35 2.2,-1.56 3.48,0.87 0.12,-1.75 1.25,-0.3 0.99,-1.09 -0.25,-5.09 z"
     title="Zasavska"
     id="SI-ZS" />
  <path
     d="m 366.84714,104.72175 1.45,1.21 2.09,-0.41 0.3,2.72 1.71,2.01 0.16,2.72 1.67,0.3 2.03,-0.85 1.75,1.32 0.28,1.35 2.36,1.18 1.98,-1.37 2.35,2.64 1.39,0.55 -0.95,1.7 0.25,1.48 -0.54,2.64 -1.44,0 -0.27,0.75 0.65,0.96 1.82,0.6 1.16,1.32 -0.95,0.88 0.82,1.15 -0.23,0.44 -2.56,0.5 1.06,1.12 2.83,0.63 -0.11,1.32 0.93,0.63 3.9,0.86 -0.1,1.34 1.41,0.77 3.15,-0.08 1.54,-0.83 1.62,1.16 1.5,-1.38 1.04,0.53 0.17,2.03 0.86,1.37 4.84,-1.4 1.26,1.1 -0.14,2.25 0.96,1.65 0.91,3.81 -0.04,2.91 1.31,1.56 -1.04,3.13 1.25,0.93 0.15,1.07 -1.44,0.93 0,0.58 1.94,0.08 1.9,0.96 -0.29,1.56 0.65,2.17 2.16,0.25 0.92,0.79 3.3,-0.9 1.64,1.2 3.72,-0.82 3.46,1.32 0.26,1.45 3.12,0.87 2.6,0.06 0.12,0.47 1.46,0.46 2.28,-0.27 -0.55,1.61 0.53,0.74 1.45,-0.57 2.41,0.35 0,0 1.75,-0.6 1.56,0.36 0,0 1.27,-0.22 2.03,1.2 0.99,-0.52 1.96,3.84 2.3,0.14 4.56,-1.1 0,0 0.46,2.3 -1.11,0.74 -0.21,2.05 -1.31,3.12 -1.44,1.13 -3.84,1.56 -1.73,-0.91 0.89,-1.88 -0.83,-1.05 -2.32,-0.1 -0.63,1.2 -1.12,0.33 -0.34,-1.78 -5.66,-0.14 -3.27,-1.23 -3.06,2.03 -0.7,-0.17 -2.15,1.04 -1.45,2.58 1.3,1.04 -0.42,0.79 0.44,2.27 -0.54,1.48 -1.42,0.33 -0.21,1.47 -0.88,1.21 -4.52,2.43 -0.7,1.83 1.39,1.07 0.45,1.31 -3.23,1.59 1.29,1.91 0.8,0.06 -0.4,0.65 1.05,0.17 0.17,1.36 -0.87,1.4 0.76,0.24 -0.37,0.63 -0.53,-0.08 0.38,0.96 -0.89,1.25 1.06,2.38 0.74,-0.05 -0.13,1.88 1.52,0.03 0.46,0.71 -0.82,1.53 0.36,0.82 2.02,1.33 1.72,-0.19 0.59,-0.9 0.5,0.11 0.55,0.68 -0.19,0.63 0.91,-0.13 0.84,0.62 0.23,2.82 2.03,-1.07 0.8,1.12 1.12,-0.44 2.72,2.52 2.94,1.12 0.93,-0.22 1.12,1.74 0,0 -2.62,-0.51 -2.01,1.33 -2.57,-0.76 -2.45,0.27 -1.82,3.52 -1.18,0.11 -2.38,1.36 -2.47,4.15 -1.94,1.72 -4.69,1.88 -6.59,0.71 1.31,-2.62 3.85,-2.45 0.9,-1.45 0.34,-2.56 -3.88,-0.6 -1.71,0.92 -0.87,-0.24 -1.43,0.71 -0.68,-0.38 0.25,-0.96 -0.9,-2.07 -0.4,-3.69 -1.9,-0.46 -1.61,-3.22 -2.17,-0.96 -2.22,1.64 0,-0.68 -1.26,-1.23 -3.21,-1.69 -4.27,0.87 -3.1,-0.74 -1.67,0.88 0,0 -1.35,-0.36 -2.34,0.36 0,0 -3.59,-0.69 -1.56,-1.44 -3.89,2.21 -4.83,-0.25 -2.03,0.41 -3.23,-1.01 -1.92,0.77 -2.42,-0.39 -0.19,3.61 -1.5,-1.15 0.19,-4.7 -1.52,-0.73 0.02,-2.16 -1.1,-1.42 -0.7,-0.06 -0.21,1.32 -0.88,0.84 -2.11,0.44 -2.26,-0.33 -2.3,-1.88 -2.33,0.84 -1.49,-0.71 -1.99,1.21 -0.82,-0.09 -0.36,1.37 2.81,1.75 -0.04,1.03 -1.36,2.57 0.7,1.31 -1.07,1.15 2.72,1.04 -0.3,4.14 -2.55,-1.88 -2.62,-1.04 -7.24,-1.74 -1.48,-0.03 -0.71,0.66 -4.56,1.28 -2.51,-0.52 0,0 -2.35,-0.66 -0.97,-2.21 0,0 -0.53,-0.68 0.13,-1.26 1.82,-1.39 1.22,1.34 0.32,-0.27 -0.03,-3.36 0.83,0.24 2.05,-0.76 -0.24,-1.23 0.7,-0.79 2.43,1.31 0.63,-0.25 2.53,0.85 1.76,-0.25 2.17,-1.14 -4.41,-2.65 0.95,-3.14 0.8,-0.44 -0.32,-1.18 0.61,-0.13 1.04,1.12 4.45,1.69 0.34,-1.34 0.78,-0.65 2.43,-0.61 -1.46,-1.28 -0.65,-1.99 -0.8,-0.33 -0.24,-1.45 -3.48,-2.46 -1.05,-4.46 -0.96,-0.16 -1.54,0.82 -1.58,-0.28 0.32,-2.32 -1.12,-0.11 -0.28,-1.81 -2.59,-2.16 -0.53,-1.31 -1.39,-0.63 -4.84,3.2 -4.68,0.27 -1.8,-0.71 -1.64,1.34 -1.48,0.09 -1.35,1.36 -0.93,-0.27 0.27,-1.5 -0.38,0.13 -0.2,-0.6 -3.26,0.06 -2.34,-0.72 -1.63,0.99 -3.9,1.01 -3.65,-0.16 -1.88,-2.58 -2.15,-1.23 0,-2.32 0,0 0.74,-1.67 1.14,0.35 0.97,-1.23 -2.35,-0.38 -1.18,-3.31 -1.31,0.52 -0.9,-1.13 -1.67,-0.24 -0.42,-1.07 -3,-1.15 -2.41,-2.11 -9.67,-0.74 -4.45,1.43 -2.55,-0.8 -1.25,0.77 -5.19,-1.73 -4.56,0 -1.39,-2.27 1.52,-2.71 -0.02,-1.92 -1.61,-2.33 1.65,-3.15 -0.13,-1.68 -3.82,1.02 -1.63,-0.6 0.51,-3.27 -0.42,-3.48 -0.76,-0.96 -2.34,-0.11 -3.38,-3.81 0.42,-1.32 -0.19,-7.33 -4.24,1.57 -4.01,-0.28 -1.02,1.13 -4.6,-3.1 0,0 0.02,-0.28 0,0 0.96,-1.48 -0.58,-0.61 1.02,-1.01 0.59,-1.87 0.42,-5.19 -1.14,-1.26 0.55,-3.22 1.46,-0.66 0.61,-1.26 2.07,-0.69 4.41,-0.06 3.76,-1.51 2.07,-0.02 0.78,-1.24 1.81,-0.41 0.47,-1.43 0,0 4.01,0.96 6.07,-0.61 0.49,1.05 1.27,0.08 1.26,0.85 2.33,5.53 0.69,0.11 1.25,-0.91 0.55,-2.09 1.28,-0.36 1.04,0.97 1.47,-0.39 1.4,1.24 2.32,0.49 5.26,-0.68 2.44,1.67 3.26,-0.88 4.77,0.33 3.31,-3.35 5.61,0.17 0.57,-1.85 2.83,-0.85 -1.33,-3.11 1.02,0.03 1.5,1.13 1.73,0.19 5.89,4.04 4.07,0.33 2.34,1.32 5.36,1.49 4.37,3.16 -0.32,-2.17 0.74,-0.86 2.94,1.63 2.42,0.57 0.09,1.6 0.84,0.41 0.57,1.87 3.42,1.81 0.93,-0.33 0.61,1.45 1.48,-0.08 0.17,-1.43 1.65,-0.93 0.93,0.25 1.37,-0.52 0.31,2.06 -0.4,0.93 -1.58,0.93 -0.04,1.38 0.29,0.52 2.79,0.55 0.72,0.71 2.3,-0.58 5.8,-3.18 -0.4,-1.68 0.72,-0.22 2.01,-4.34 0.8,-0.57 0.1,-4.26 1.82,-5.12 2.47,-0.9 1.88,-1.57 4.77,-1.07 0.97,-1.85 -2.85,-3.1 -0.59,-3.28 z"
     title="Savinjska"
     id="SI-SA" />
  <path
     d="m 338.55714,60.631749 0.42,0.41 1.46,-0.33 0.66,0.8 3.05,-0.3 1.9,2.2 4.69,1.52 1.06,-0.3 2.15,1.13 4.73,-1.44 3.46,0.14 2.93,-2.23 2.75,-0.14 2.3,1.38 1.39,-1.52 2.76,0.5 0,0 -0.86,3.81 0.3,4 -5.39,0.22 -0.72,0.77 0.01,3.53 -2.6,1.98 -0.8,1.46 -0.87,-0.13 -0.76,0.66 -0.12,2.84 -1.95,8.59 -1.88,2.07 -1.62,0.36 -0.53,1.15 -1.18,0.36 -0.04,2.26 -0.74,1.71 -0.97,-0.06 -0.07,1.07 -0.75,-0.02 0.18,1.480001 -0.97,4.3 0.97,0.33 0.79,-0.42 2.87,-2.89 2.85,0.42 0.73,0.58 2.88,-1.6 1.05,0.91 2.01,-0.47 0.88,1.54 -0.12,1.46 0,0 -0.55,0.41 0.59,3.28 2.85,3.1 -0.97,1.85 -4.77,1.07 -1.88,1.57 -2.47,0.9 -1.82,5.12 -0.1,4.26 -0.8,0.57 -2.01,4.34 -0.72,0.22 0.4,1.68 -5.8,3.18 -2.3,0.58 -0.72,-0.71 -2.79,-0.55 -0.29,-0.52 0.04,-1.38 1.58,-0.93 0.4,-0.93 -0.31,-2.06 -1.37,0.52 -0.93,-0.25 -1.65,0.93 -0.17,1.43 -1.48,0.08 -0.61,-1.45 -0.93,0.33 -3.42,-1.81 -0.57,-1.87 -0.84,-0.41 -0.09,-1.6 -2.42,-0.57 -2.94,-1.63 -0.74,0.86 0.32,2.17 -4.37,-3.16 -5.36,-1.49 -2.34,-1.32 -4.07,-0.33 -5.89,-4.04 -1.73,-0.19 -1.5,-1.13 -1.02,-0.03 1.33,3.11 -2.83,0.85 -0.57,1.85 -5.61,-0.17 -3.31,3.35 -4.77,-0.33 -3.26,0.88 -2.44,-1.67 -5.26,0.68 -2.32,-0.49 -1.4,-1.24 -1.47,0.39 -1.04,-0.97 -1.28,0.36 -0.55,2.09 -1.25,0.91 -0.69,-0.11 -2.33,-5.53 -1.26,-0.85 -1.27,-0.08 -0.49,-1.05 -6.07,0.61 -4.01,-0.96 0,0 -0.26,-1.71 1.35,-1.57 1.82,1.19 1.5,-0.5 0.12,-1.59 -0.8,-0.91 0.87,-1.57 1.67,-0.27 -0.05,-3.09 0.61,-0.99 0.02,-1.65 1.84,1.43 0.85,2.09 2.46,-4.42 1.52,2.11 1.8,-1.89 3.21,-0.06 1.96,1.27 3.95,-2.12 2.02,-0.39 0,-3.630001 1.44,-1.82 -0.3,-1.68 1.59,-1.13 -1.69,-1.07 0.42,-1.08 1.23,-0.44 1.28,-2.97 -0.76,-1.57 1.44,-0.5 -0.36,-1.87 2.24,-2.18 0.71,-2.42 0.51,-0.44 0.87,0.41 0.84,-1.02 -0.08,-2.51 2.91,-1.96 1.41,-0.3 2.32,0.91 2.14,1.63 0.34,-0.8 0.86,1.35 0.95,-0.61 -0.32,-5.24 1.78,1.46 2.11,-2.34 2.17,-1.21 2.68,2.4 0.59,3 1.16,1.71 3.25,-2.87 -0.18,-2.45 2.59,-2.32 1.52,-2.84 2.43,-1.1 2.78,-2.13 4.42,0.17 2.89,1.54 0.97,-1.21 2.05,-0.77 1.71,-1.69 3.63,1.47 0.33,0.99 0.66,-0.06 0.4,-1.62 1.6,-0.17 0.28,-0.72 z"
     title="Koroška"
     id="SI-KO" />
  <path
     d="m 326.42714,225.14175 2.51,0.52 4.56,-1.28 0.71,-0.66 1.48,0.03 7.24,1.74 2.62,1.04 2.55,1.88 0.3,-4.14 -2.72,-1.04 1.07,-1.15 -0.7,-1.31 1.36,-2.57 0.04,-1.03 -2.81,-1.75 0.36,-1.37 0.82,0.09 1.99,-1.21 1.49,0.71 2.33,-0.84 2.3,1.88 2.26,0.33 2.11,-0.44 0.88,-0.84 0.21,-1.32 0.7,0.06 1.1,1.42 -0.02,2.16 1.52,0.73 -0.19,4.7 1.5,1.15 0.19,-3.61 2.42,0.39 1.92,-0.77 3.23,1.01 2.03,-0.41 4.83,0.25 3.89,-2.21 1.56,1.44 3.59,0.69 0,0 1.35,-0.36 2.34,0.36 0,0 1.67,-0.88 3.1,0.74 4.27,-0.87 3.21,1.69 1.26,1.23 0,0.68 2.22,-1.64 2.17,0.96 1.61,3.22 1.9,0.46 0.4,3.69 0.9,2.07 -0.25,0.96 0.68,0.38 1.43,-0.71 0.87,0.24 1.71,-0.92 3.88,0.6 -0.34,2.56 -0.9,1.45 -3.85,2.45 -1.31,2.62 6.59,-0.71 4.69,-1.88 1.94,-1.72 2.47,-4.15 2.38,-1.36 1.18,-0.11 1.82,-3.52 2.45,-0.27 2.57,0.76 2.01,-1.33 2.62,0.51 0,0 2.09,2.73 -1.56,0.41 -0.28,1.01 -1.14,0.74 0.44,0.73 -0.84,2.84 0.67,0.55 -0.46,0.38 -0.49,-0.33 -1.12,1.28 0.6,0.5 0.59,-0.25 -0.15,2.65 -0.78,0 -0.44,1.09 -0.77,-0.11 -0.29,1.2 1.24,1.6 -1.15,0.63 0.86,0.79 0.91,5.56 -0.26,4.77 0.41,2.1 -0.77,2.97 0.2,1.71 -1.12,0.63 -4.06,4.71 1.5,5.33 -0.59,1.47 1.23,2.5 -1.25,1.77 1.56,0.57 2.43,2.58 0.28,1.2 -3.17,1.17 -4.79,0.3 -4.41,5.65 -2.6,-3.45 -2.3,-0.95 -1.01,-1.22 -5.77,-1.74 -1.58,-1.58 -2.05,2.34 -0.31,1.41 -1.21,-0.65 -0.57,-1.66 -2.24,-0.38 -0.94,5.14 -1.65,1.63 -4.46,0.41 -0.38,-1.69 -1.73,-0.95 -2.72,1.36 -0.38,1.69 -1.69,0.32 1.4,5.84 -2.01,0.9 -3.06,-0.49 -1.94,0.46 -3.19,-0.35 -4.12,1.06 0,0 -3.01,-10.03 -1.69,-2.25 -0.49,-2.45 -1.24,-0.98 0.35,-1.06 4.31,-0.87 1.12,-1.99 -2.39,0.03 -0.19,-2.58 -0.57,-0.36 0.62,-1.77 -2.15,-1.33 -4.48,-1.44 -1.12,-0.98 1.56,-4.08 -0.78,-11 1.4,-1.56 0.06,-0.73 -0.8,-1.37 -2.56,-0.79 -0.08,-3.46 -2.35,0.19 -2.99,-1.09 0.12,3 -2.21,-1.93 -2.58,-0.82 -0.63,0.27 0,1.09 -0.8,1.15 1.56,1.77 -0.11,1.69 -1.79,0.13 -1.86,-3.35 -1.12,-0.71 -1.39,0.08 0.27,2.1 -0.54,0.74 -1.61,0.08 -0.21,1.55 -1.6,-0.76 -0.78,0.55 0.12,1.41 -1.24,-0.05 -4.22,-1.75 -4.48,-4.3 -2.03,-1.17 -0.25,-2.68 -1.81,-0.92 0.5,-2.78 2.3,-1.09 0.57,-1.37 -0.25,-1.77 -1.6,-0.82 -3.24,-0.11 -0.59,0.22 -0.21,1.34 -0.86,0.68 -0.68,-2.13 -4.05,-1.31 0,0 -0.67,-0.65 -0.3,-1.59 -2.85,-3.92 z"
     title="Spodnjeposavska"
     id="SI-PS" />
  <path
     d="m 459.12714,46.491749 5.15,7.57 0.59,-1.03 1.96,-0.71 1.88,3.03 -1.31,1.3 0.17,0.44 1.14,1.08 1.73,0.06 1.1,2.09 1.71,0.25 0.38,0.58 1.01,-0.16 0.57,0.6 0.99,-0.49 0.57,1.73 1.38,-1.07 1.96,0.83 1.27,-0.09 0.31,1.58 2.85,0.38 1.94,1.96 0.39,1.16 2.61,1.38 -0.12,1.07 -1.46,1.36 -0.91,0.11 -0.19,0.93 -1.03,0.67 -1.42,-0.14 -0.63,0.71 1.1,1.58 0.04,2.26 1.25,2.04 3.63,0.38 2.49,1.02 1.54,-0.38 2.97,0.55 -0.14,5.45 -1.33,2.1 0.55,2.59 2.95,3.49 0.67,2.04 1.34,0.94 0.57,1.35 0.16,1.320001 -1.11,1.15 1.26,1.08 0.32,2.03 -1.1,1.43 5.21,4.87 0.53,1.41 -1.14,6.18 -2.62,2.97 0.15,3.16 0.91,0.61 1.96,-0.39 0.87,-2 0.99,-0.14 0.27,4.34 -0.88,0.8 2.38,3.21 0.89,0.41 -0.53,0.85 1.01,2.7 0,0 -0.75,-0.03 0.02,1.18 3.37,5.93 0.66,3.81 -0.57,2.23 -6.67,0.66 -3.51,5.86 -3.44,1.1 -1.39,-0.98 -0.3,0.85 -0.84,0.24 -1.41,-0.63 -2.39,3.73 -3.21,1.12 -1.18,1.02 -1.69,-0.06 -3.46,1.02 -0.91,-1.1 -1.05,0.55 -1.46,-0.49 -1.03,1.31 -4.48,0.93 -1.18,1.4 -0.28,1.56 -2.32,1.89 -2.51,-0.49 -1.79,0.88 -0.63,1.59 -6.15,0.79 1.12,2.44 0,0 -4.56,1.1 -2.3,-0.14 -1.96,-3.84 -0.99,0.52 -2.03,-1.2 -1.27,0.22 0,0 -1.29,-0.36 -2.02,0.6 0,0 -2.41,-0.35 -1.45,0.57 -0.53,-0.74 0.55,-1.61 -2.28,0.27 -1.46,-0.46 -0.12,-0.47 -2.6,-0.06 -3.12,-0.87 -0.26,-1.45 -3.46,-1.32 -3.72,0.82 -1.64,-1.2 -3.3,0.9 -0.92,-0.79 -2.16,-0.25 -0.65,-2.17 0.29,-1.56 -1.9,-0.96 -1.94,-0.08 0,-0.58 1.44,-0.93 -0.15,-1.07 -1.25,-0.93 1.04,-3.13 -1.31,-1.56 0.04,-2.91 -0.91,-3.81 -0.96,-1.65 0.14,-2.25 -1.26,-1.1 -4.84,1.4 -0.86,-1.37 -0.17,-2.03 -1.04,-0.53 -1.5,1.38 -1.62,-1.16 -1.54,0.83 -3.15,0.08 -1.41,-0.77 0.1,-1.34 -3.9,-0.86 -0.93,-0.63 0.11,-1.32 -2.83,-0.63 -1.06,-1.12 2.56,-0.5 0.23,-0.44 -0.82,-1.15 0.95,-0.88 -1.16,-1.32 -1.82,-0.6 -0.65,-0.96 0.27,-0.75 1.44,0 0.54,-2.64 -0.25,-1.48 0.95,-1.7 -1.39,-0.55 -2.35,-2.64 -1.98,1.37 -2.36,-1.18 -0.28,-1.35 -1.75,-1.32 -2.03,0.85 -1.67,-0.3 -0.16,-2.72 -1.71,-2.01 -0.3,-2.72 -2.09,0.41 -1.45,-1.21 0,0 0.12,-1.46 -0.88,-1.54 -2.01,0.47 -1.05,-0.91 -2.88,1.6 -0.73,-0.58 -2.85,-0.42 -2.87,2.89 -0.79,0.42 -0.97,-0.33 0.97,-4.3 -0.18,-1.480001 0.75,0.02 0.07,-1.07 0.97,0.06 0.74,-1.71 0.04,-2.26 1.18,-0.36 0.53,-1.15 1.62,-0.36 1.88,-2.07 1.95,-8.59 0.12,-2.84 0.76,-0.66 0.87,0.13 0.8,-1.46 2.6,-1.98 -0.01,-3.53 0.72,-0.77 5.39,-0.22 -0.3,-4 0.86,-3.81 0,0 2.29,-1 0.76,1.05 2.63,0.25 9.19,-1.19 0.55,0.89 -0.2,1.13 1.76,0.25 0.59,1.13 1.3,0.6 1.4,-0.66 1.54,0.89 -0.1,2.59 1.43,1.41 0.27,2.62 2.26,0.74 1.44,-1.76 1.29,-0.5 1.62,0.52 0.7,1.24 0.25,-0.52 1.37,-0.08 0.17,-1.6 1.2,0.27 3.49,-3.39 0.59,-0.27 0.59,1.1 1.29,-2.32 0.08,-0.47 -1.18,-0.99 0.42,-0.8 1.31,-0.28 -1.33,-5.88 0.74,-0.69 1.48,0.31 2.06,-2.38 1.71,-0.38 0,-0.55 2.22,-0.23 1.35,-1.68 2.07,0.61 -0.67,0.63 -1.44,-0.58 -0.7,2.21 1.19,1.3 1.22,0.33 0.93,-0.36 -0.97,-1.79 0.84,-0.67 3.06,1 1.27,-0.72 0.19,-1.35 0.84,-1.11 2.83,-0.19 0.25,-3.7 0.57,-0.28 3.8,-0.08 4.16,2.4 3.97,0.5 3.36,-1.08 5.25,0.17 z"
     title="Podravska"
     id="SI-PD" />
  <path
     d="m 549.31714,1.061749 6.02,0.25 1.62,3.3 2.9,1.71 2.09,2.22 1.85,0.33 1.92,2.6 -0.12,1.58 -0.91,0.78 -0.51,1.63 0.05,3.6 -0.53,1.49 -3.19,0.67 -1.69,1.58 0.02,4.56 2.92,-0.06 0.31,0.95 -2,5.5 5.78,5.94 -0.15,2.63 0.53,0.14 1.01,2.37 2.43,-2.13 1.71,1.94 -0.1,1.46 -1.61,1.69 0.83,0.83 10.46,1.6 -1.92,10.02 -2.64,-0.03 -1.49,-1.32 -1.06,-0.03 -0.19,2.35 -1.1,0.91 0.19,2.07 1.31,1.1 -0.23,1.63 1.18,0.58 0.95,-0.39 0.97,0.72 1.69,2.15 1.08,2.84 4.32,0.88 1.93,3.34 1.33,0.83 1.3,2.67 0.78,-0.36 1.36,1.49 0.56,4.05 1.59,0.5 0.46,0.68 2.77,-0.27 1.85,2.95 0.13,2.09 -0.69,1.1 0.54,1.6 1.54,0.16 1.02,0.97 -1.33,3.47 0.32,0.96 1.13,0.630001 -0.46,1.38 -0.89,-0.22 -0.53,1.32 4.8,3.11 5.68,2.5 3.12,3.91 -1.58,-0.03 -0.95,0.91 -1.92,-1.84 -0.79,1.21 -3.04,-1.68 -0.52,-0.94 -1.33,-0.11 -0.74,-1.43 -1.58,1.21 -1.35,-0.35 -0.79,-0.8 1.02,-1.38 -0.09,-0.77 -3,-0.85 -2.61,-1.51 0.69,-1.19 -0.65,-1.02 -3.54,-1.21 -1.57,0.28 -0.27,-1.430001 -0.97,-1.02 -1.25,0.14 -0.99,0.82 -1.62,-0.05 -0.87,-1.08 -0.11,-1.87 -0.71,-0.66 -1.84,0.44 -1.41,-1.05 -0.2,1.11 -0.63,0.19 -2.17,-1.85 0.53,-1.37 -0.53,-0.8 -0.93,-0.03 -0.72,2.31 -2.62,1.24 -0.56,-0.22 -1.34,-2.92 -0.86,0.36 -0.57,1.08 -2.36,-1.08 -1.02,3.47 -0.82,0.17 -0.4,-0.97 -1,-0.19 -2.7,1.13 -0.92,1.76 -2.28,1.410001 -0.77,-0.420001 -4.58,0.390001 -1.83,5.09 -1.58,1.32 0,1.73 2.95,6.6 0.95,8.61 1.79,2.88 3.64,2.97 1.52,2.72 -0.2,2.83 -1.87,3.18 -1.59,1.35 -2.93,0.22 -0.74,-2.33 -1.81,-2.06 -1.12,1.29 -1.86,0.93 -2.26,-0.3 -0.78,-0.69 -3,1.73 -1.52,-0.68 -1.86,0.63 -2.72,-4.34 -5.99,-3.93 -1.63,0.25 -2.81,2.25 -2.28,3.87 -1.16,0.08 -1.64,-0.85 -2.96,1.32 -2.47,-0.36 -1.86,-1.31 0,0 -1.01,-2.7 0.53,-0.85 -0.89,-0.41 -2.38,-3.21 0.88,-0.8 -0.27,-4.34 -0.99,0.14 -0.87,2 -1.96,0.39 -0.91,-0.61 -0.15,-3.16 2.62,-2.97 1.14,-6.18 -0.53,-1.41 -5.21,-4.87 1.1,-1.43 -0.32,-2.03 -1.26,-1.08 1.11,-1.15 -0.16,-1.320001 -0.57,-1.35 -1.34,-0.94 -0.67,-2.04 -2.95,-3.49 -0.55,-2.59 1.33,-2.1 0.14,-5.45 -2.97,-0.55 -1.54,0.38 -2.49,-1.02 -3.63,-0.38 -1.25,-2.04 -0.04,-2.26 -1.1,-1.58 0.63,-0.71 1.42,0.14 1.03,-0.67 0.19,-0.93 0.91,-0.11 1.46,-1.36 0.12,-1.07 -2.61,-1.38 -0.39,-1.16 -1.94,-1.96 -2.85,-0.38 -0.31,-1.58 -1.27,0.09 -1.96,-0.83 -1.38,1.07 -0.57,-1.73 -0.99,0.49 -0.57,-0.6 -1.01,0.16 -0.38,-0.58 -1.71,-0.25 -1.1,-2.09 -1.73,-0.06 -1.14,-1.08 -0.17,-0.44 1.31,-1.3 -1.88,-3.03 -1.96,0.71 -0.59,1.03 -5.15,-7.57 0,0 2.24,-1.46 6.31,-1.99 7.38,-0.06 8.72,3.95 5.01,4.42 9.32,2.57 1.91,1.68 1.39,3.04 4.62,2.73 1.03,-1.32 0.22,-6.35 -2.31,-4.59 -0.25,-1.57 0.68,-1.69 -2.16,-0.38 -0.95,-1.47 -2.21,0.03 0.36,-1.33 -2.54,-2.29 -0.95,-2.4 0.41,-1.36 -0.34,-1.91 0.65,-1.99 -0.36,-4.31 1.37,-3.82 -0.63,-4.18 0.93,-0.44 0.4,-1.16 -1.41,-1.66 -1.12,-3.16 2.28,-2.21 0.95,1.19 0.7,0.11 0.84,-1.05 3.23,-1.22 0.5,-0.09 0.45,1.67 1.83,-2 1.54,0.67 1.59,-0.14 0.78,-1.11 -0.13,-1.19 2.03,-1.83 1.31,0.17 2.04,-3.1 0.87,-0.2 0.91,1.05 1.73,-2.13 0.93,-0.33 0.27,1.19 1.31,0.03 1.16,1.77 2.77,0.89 2.47,0 0.97,-1.36 2.59,0.33 2.39,-2.27 6.8,-1.05 2.61,-1.55 z"
     title="Pomurska"
     id="SI-PM" />
</svg>
