<?xml version="1.0" encoding="UTF-8" standalone="no"?>
<!-- Created for MapSVG plugin: http://mapsvg.com -->
<svg
   xmlns:mapsvg="http://mapsvg.com"
   xmlns:dc="http://purl.org/dc/elements/1.1/"
   xmlns:rdf="http://www.w3.org/1999/02/22-rdf-syntax-ns#"
   xmlns:svg="http://www.w3.org/2000/svg"
   xmlns="http://www.w3.org/2000/svg"
   mapsvg:geoViewBox="16.456213 -22.124926 38.006131 -46.984558"
   width="559.72455"
   height="792.59735">
  
  <path
     d="m 284.15954,236.25541 0.25,-0.39 -0.43,-0.28 0.17,-0.39 -0.56,-0.34 0,-1.49 1.07,-2.08 -0.35,-0.27 -1.74,0.25 -0.6,-2.44 -1.91,-1.88 -2.99,-7.44 -2.45,-3.25 0.1,-1.02 0.89,0.58 0.29,-1.04 0.37,0.34 0.69,-0.35 0.32,-0.77 0.81,-0.42 1.17,0.18 0.67,-0.65 0.48,0.25 0.61,-0.66 1.02,-0.02 0.03,-0.99 1.39,-0.48 0.02,-0.61 0.96,-1.27 0.6,-0.19 -0.42,-1.15 0.8,-0.05 0.12,-1.06 0.74,-0.56 -0.39,-0.61 0.99,-0.08 1.16,-1 0.06,-0.4 -0.43,-0.27 -0.07,-0.43 1.61,-1.54 0.74,-0.18 -0.07,-0.84 1.11,-0.65 0.08,-0.65 -0.39,-0.25 0.9,-0.11 -0.86,-0.89 0.81,-0.01 0.05,-0.47 0.4,-0.28 -0.15,-0.48 0.98,-0.05 -0.28,-0.32 0.33,-0.41 -0.06,-0.6 0.34,-0.42 0.52,0.01 0.28,-0.56 -0.42,-0.72 1.32,0.55 0.47,-0.07 0.25,-0.42 1.41,0.43 0.39,-0.27 -0.14,-0.65 0.43,-0.1 0.66,-0.83 0.69,0.16 0.34,0.63 1.43,-0.04 -0.07,-0.57 0.61,-0.4 0.06,-0.9 0.6,-0.17 1,-1.9 1.77,-1.55 0.48,0.44 1.02,-0.34 1.21,0.4 0.61,-0.32 1.18,0.03 0.27,-0.19 -0.03,-0.76 1.08,-1.37 1.38,-0.46 3.13,-0.02 1.72,-0.9 1.19,0.82 0.52,2.28 2.26,0.72 0.57,1.65 1.04,0.03 0,0 1.22,1.07 1.23,2.38 0.95,1.11 0.74,-0.14 1.16,0.77 0.21,1.09 1.52,0.5 0.69,0.65 1.41,0.57 0.21,0.8 0.85,0.93 0.79,-0.34 1.12,0.36 0.32,0.53 -0.12,1.08 1.29,1.56 0.46,1.48 0.92,1.2 -0.09,1.05 0.6,0.71 -0.96,2.5 -2.09,0.76 -0.35,0.66 -0.74,0.32 -0.02,2.2 0.7,0.48 -0.97,0.35 0.01,1.16 -1.42,0.25 -0.77,0.63 -0.71,0.15 -0.14,0.95 -0.72,0.64 0.17,0.97 -0.68,2.67 0.68,0.68 0.47,1.49 -0.13,0.36 -1.07,0.28 -0.33,0.82 -0.62,-0.17 -1.59,1.2 0,0 -4.73,2.88 -1.6,0.52 -1,-0.03 -1.66,0.81 -1.52,-0.04 -1.82,-0.56 -0.9,0.79 -1.02,0.32 -1.67,-0.42 -0.47,0.17 -0.69,0.61 -0.27,1.08 -1.19,1.49 -1.89,0.32 -0.55,0.72 1.05,1.1 0.44,1.1 -1.02,1.49 -1.08,0.46 -1.15,0.99 0.81,1.03 -0.41,0.68 -0.2,1.27 -1.21,1.2 0.07,2.1 -0.71,-0.58 -1.1,0.31 -3.16,-0.58 -0.76,-1.29 -0.8,0.4 -3.02,-0.5 -1.66,-2.24 -1.72,-1.11 -0.2,-1 -0.67,-0.19 -0.71,-1.73 -1.34,-0.39 -0.66,-0.92 -0.17,-0.92 -1.84,0.63 -0.26,-0.04 z"
     title="Lesotho"
     id="LS" />
  <path
     d="m 326.56954,226.72541 1.33,1.71 1.02,0.64 0.02,1.1 -1.17,1.53 -1,-0.11 -1.42,0.85 0.36,0.92 -0.99,0.62 -0.35,0.96 -1.2,-0.32 -0.7,1.83 -2.24,-0.91 -0.92,2.24 0.83,1.59 -0.64,1.23 0.5,1.12 1.19,0.19 1.07,1.62 2.32,0.47 0.5,-0.07 0.3,-1.94 0.55,-0.21 1.99,0.98 -0.07,1.58 4.6,1.19 1.78,0.88 0.5,-0.09 0.36,-0.49 1.57,0 1.35,-0.6 1.95,1.37 0.93,0.25 0.63,0.65 1.53,-0.31 0.39,0.43 1.7,0.42 0.26,0.38 0.38,-0.58 0.89,0.07 0.37,1 1.24,0.57 0.38,0.47 0.68,0.36 0.89,-0.34 -0.01,0.75 0.6,0.24 0.24,0.83 0.72,-0.19 0.35,0.5 1.07,0.1 0.34,1.28 0.68,0.06 0.64,0.65 0.19,0.59 -0.25,0.78 0.52,0.5 -0.12,0.93 0.78,0.49 0.29,1.19 0.58,0.47 0,0 -4.12,5.63 -4.53,4.56 -0.7,0.5 -2.06,0.5 -0.92,0.92 -1.02,1.67 -1.23,0.84 -0.19,0.55 -1.96,1.31 -0.2,0.58 -1.33,0.86 -1.8,0.63 -0.77,1.36 -0.97,0.73 -0.15,1.28 -0.71,0.19 -1.64,2.33 -0.4,0.1 -0.73,1.61 -0.82,0.38 -1.25,1.24 -0.19,0.74 -1.11,1.4 0.06,0.44 -1.94,1.47 -0.42,0.97 -1.35,1.34 -0.14,0.51 -3.26,3.05 0.01,0.25 -1.01,0.59 -0.85,1.47 -2.27,1.9 -0.29,0.75 -1.12,0.55 0.01,0.41 -1.27,1.13 -0.01,0.64 -0.71,0.3 -0.42,0.7 -1.98,0.8 -0.14,0.46 -1.4,1.35 -0.01,0.47 -0.74,0.04 -2.03,1.65 -3.03,1.23 -0.87,0.96 -0.21,1.32 -0.79,0.97 0.11,0.21 -3.04,1.91 -0.52,0.85 -0.47,0.13 -0.56,1.09 -3.19,1.92 -1.36,0.45 -0.77,1.06 -0.96,0.55 -1.37,1.38 -2.12,1.2 -3.05,2.64 -4.42,2.83 -0.71,0.92 -1.22,0.34 -1.39,1.6 -1.61,0.47 -1.16,1.01 -1.8,0.3 -1.88,1.48 -3.22,0.75 -5.04,3.05 -2.07,0.68 -2.23,-0.43 -2.15,0.15 -2.88,-1.18 -2.98,-0.61 -3.32,0.09 -2.75,0.49 -1.48,0.65 -2.14,1.48 -0.9,0.89 -0.83,1.46 -0.51,2.46 1.54,1.12 0.71,1.39 -0.98,-0.08 -0.76,0.64 -1.41,0.09 -2.87,-0.64 -1.59,0.15 -2.63,-1.27 -2.26,-0.7 -2.31,-0.23 -2.53,0.23 -1.62,0.55 -0.98,0.75 -0.27,2.14 -1.46,1.33 -0.82,1.4 0.96,0.84 -0.73,0.01 -0.23,0.68 -2.55,-0.97 -1,0.17 -1.39,-0.63 -0.71,0.13 -0.17,0.5 -2.73,-0.63 -0.76,-0.28 -2.41,-1.84 -1.82,-0.05 -4.2,-1.52 -9.13,-1.3 -4.1,-0.92 0,0 -0.31,-1.38 1.54,-2.04 -3.68,-1.38 -0.09,-1.44 -1.23,-0.18 -0.74,0.66 -2.56,-0.49 1.16,-1.02 0.04,-1.08 2.75,-1.04 0.58,-0.99 0.73,0.47 2.1,-0.22 0.14,-1.19 -1.87,-1.65 -0.21,-2.34 -2.21,-1.11 -0.25,-0.57 -4.06,-0.08 -0.81,-1.29 -4.55,-0.15 -1.59,0.34 -0.43,-0.4 -3.69,0.96 -3.83,-0.4 -0.5,-0.89 -0.07,-1.57 0.94,-0.16 1.59,-2.94 0.5,-0.23 0.96,-2.38 1.45,-1.41 0.2,-1.55 -0.73,-0.83 0.91,-0.83 -0.34,-1.38 1.41,-1.32 0.27,-0.73 1.95,0.06 0.35,-0.56 -0.77,-2.74 1.61,2.17 1.42,-1.6 2.16,0.31 2.65,0.83 0.18,-1.78 -0.94,-0.5 -0.32,-1.69 -1.9,-1.3 0.72,-0.21 0.45,-0.51 -0.67,-2.97 -1.12,-0.75 0.18,-1.49 -0.61,-1.11 2.7,-1.39 0.34,-0.76 1.69,0.75 1.1,-1.55 5.54,0.16 0.31,-0.6 -0.69,-0.77 0.58,-1.63 2.12,-1.22 0.42,-0.57 1.52,0.84 0.45,1.06 1.18,0.22 4.02,-2.18 -0.12,-0.75 1.25,0.17 1.17,-0.95 0.01,-0.97 -0.79,-0.07 -0.09,-1.12 1.01,-0.08 -0.02,-0.74 -0.54,-0.3 0.45,-0.69 1.1,0.26 1.15,-1.72 -0.58,-0.47 0.25,-0.33 -1.04,-0.79 -1.41,0.25 0.73,-1.77 0.64,0.08 -0.14,-0.86 0.55,-0.02 -0.5,-0.87 0,0 -0.27,-1.13 0.4,-0.5 2.77,0.98 1.27,-1.24 0,-0.5 4.99,-0.19 0.39,-3.72 -0.25,-0.88 0.49,-1.73 -0.22,-0.3 1.07,-0.53 0.06,-2.02 1.99,-0.28 1.41,0.46 2.39,-0.37 0.92,-1.14 0.91,0.5 0.1,-1.36 2.02,-0.52 1,-1.07 2.1,0.01 4.18,-2.29 3.5,0.79 0.76,-0.51 -0.01,-1.66 0.48,-0.47 0.7,-0.02 0.96,-1.55 -0.59,-0.73 0.74,-0.09 0.6,-1.13 -0.46,-0.84 1.36,-1.61 -0.19,-1.34 -1.12,-0.98 0.35,-0.62 0.83,-0.33 0.66,-1.25 -1.87,-0.24 -0.39,-5.16 0,0 3.64,-0.41 0.4,0.22 0.39,1.48 1.87,0.7 1.2,0.07 3.14,-2.04 0.06,-1.69 0.58,-0.46 1.35,0.78 1.1,-0.97 1.81,-0.68 0.54,-0.01 0.92,0.71 0.52,0.01 0.32,-0.46 -0.26,-0.73 0.55,-0.24 0.74,0.3 0.53,0.92 1.23,0.42 0.72,1.14 1.68,0.16 0.92,-0.53 1.49,-0.15 0.97,0.85 0.11,1.23 1.84,0.83 2.22,0.14 -0.14,0.6 0.94,-0.52 0.79,0.36 0.72,-0.53 0.54,0.08 1.48,-0.61 1.24,1.05 0.43,-0.2 0.09,-0.43 1.58,0.01 0.24,-1.3 0.71,-0.53 1.61,-0.07 -0.04,-0.64 -0.78,-0.66 0.09,-0.44 1.98,-0.33 0.86,0.58 0.49,-0.37 0,-1.02 1.28,0.22 0.92,-0.74 0.21,0.2 0.51,-0.24 0.39,0.45 1.09,-0.17 0.34,-0.69 -0.67,-0.35 0.01,-0.47 1.1,0.2 0.66,-0.18 -0.01,-0.32 -0.84,-0.4 0.09,-0.63 1.38,0.03 0.48,-0.55 -0.2,-0.55 -0.66,0.06 -0.4,-1.02 1.18,-0.24 0,0 -0.05,0.4 0.26,0.04 1.84,-0.63 0.17,0.92 0.66,0.91 1.34,0.39 0.71,1.73 0.67,0.19 0.21,1 1.72,1.11 1.66,2.24 3.01,0.5 0.8,-0.41 0.75,1.3 3.16,0.58 1.1,-0.31 0.71,0.58 -0.06,-2.09 1.21,-1.2 0.2,-1.27 0.41,-0.68 -0.81,-1.03 1.15,-0.98 1.08,-0.46 1.02,-1.49 -0.44,-1.1 -1.05,-1.11 0.55,-0.72 1.89,-0.32 1.18,-1.49 0.27,-1.08 0.69,-0.6 0.47,-0.17 1.67,0.43 1.02,-0.32 0.9,-0.79 1.82,0.55 1.51,0.04 1.66,-0.81 1,0.03 1.6,-0.52 4.72,-2.96 z"
     title="Eastern Cape"
     id="ZA-EC" />
  <path
     d="m 287.84954,132.11541 0.88,-0.32 -0.02,-0.67 1.36,-0.26 0.26,0.14 0.1,0.75 2.12,-0.13 1.07,0.68 0.56,-1.03 2.49,-0.41 1.2,-1.4 0.89,-0.32 0.84,0.56 -0.21,1.12 0.86,1.77 1.2,1.2 1.22,0.57 0.64,1.37 0.77,-1.18 0.76,1.26 0.67,0.07 0.91,-0.46 0.9,0.7 0,0 0.98,0.6 1.81,-0.06 0.82,1.61 0.9,-0.71 0.59,-0.03 0.96,1.26 0.9,0.45 -0.55,1.08 1.83,-1.38 1.1,-0.06 0.06,-0.56 -0.97,-0.13 0.82,-0.79 1.55,0.57 2.92,1.84 0.93,-0.15 0.78,0.41 0.5,-0.86 1.72,-0.68 0.65,0.1 0.77,0.83 0.74,-0.09 0.18,1.37 1.42,2.43 1.06,-0.52 1.42,0.07 1,1.02 0.85,0.12 0.43,0.59 0.76,0.01 0.32,0.29 -0.11,0.82 1.58,-0.36 1.22,0.76 0.44,0.58 0.17,1.07 0.51,0.31 -0.14,0.56 1.7,1.48 -0.3,0.61 1.09,0.92 1,1.85 0.65,0.13 0.55,-0.46 0.81,-0.04 0.02,-0.74 0.51,-0.51 1.51,0.04 0,0 -1.54,0.69 0.32,0.29 -0.27,0.99 1.38,0.61 0.37,1.45 -2.55,1.89 0,0.54 0.64,1.21 -0.14,1.79 0.55,1.05 -1.5,2.88 0.03,1.73 -0.8,0.82 -0.31,1.07 0.15,0.83 1.09,1.15 -0.1,1.71 -1.18,0.85 -0.61,1.56 -2.62,0.41 -2.11,2.74 -1.83,0.84 -1.09,1.34 -1.91,0.49 -0.97,1.26 0.27,1.1 -0.21,0.39 -1,-0.02 -0.51,0.5 -1.62,-0.2 -2.64,0.86 -1.06,1.16 0.02,1.16 -0.9,0.75 -0.76,2.35 0,0 -1.04,-0.03 -0.57,-1.65 -2.26,-0.72 -0.52,-2.28 -1.19,-0.82 -1.72,0.9 -3.13,0.02 -1.38,0.46 -1.08,1.37 0.03,0.76 -0.27,0.19 -1.18,-0.03 -0.61,0.32 -1.21,-0.4 -1.02,0.34 -0.48,-0.44 -1.77,1.55 -1,1.9 -0.6,0.17 -0.06,0.9 -0.61,0.4 0.07,0.57 -1.43,0.04 -0.34,-0.63 -0.69,-0.16 -0.66,0.83 -0.43,0.1 0.14,0.65 -0.39,0.27 -1.41,-0.43 -0.25,0.42 -0.47,0.07 -1.32,-0.55 0.42,0.72 -0.28,0.56 -0.52,-0.01 -0.34,0.42 0.06,0.6 -0.33,0.41 0.28,0.32 -0.98,0.05 0.15,0.48 -0.4,0.28 -0.05,0.47 -0.81,0.01 0.86,0.89 -0.9,0.11 0.39,0.25 -0.08,0.65 -1.11,0.65 0.07,0.84 -0.74,0.18 -1.61,1.54 0.07,0.43 0.43,0.27 -0.06,0.4 -1.16,1 -0.99,0.08 0.39,0.61 -0.74,0.56 -0.12,1.06 -0.8,0.05 0.42,1.15 -0.6,0.19 -0.96,1.27 -0.02,0.61 -1.39,0.48 -0.03,0.99 -1.02,0.02 -0.61,0.66 -0.48,-0.25 -0.67,0.65 -1.17,-0.18 -0.81,0.42 -0.32,0.77 -0.69,0.35 -0.37,-0.34 -0.29,1.04 -0.89,-0.58 -0.1,1.02 2.45,3.25 2.99,7.44 1.91,1.88 0.6,2.44 1.74,-0.25 0.35,0.27 -1.07,2.08 0,1.49 0.56,0.34 -0.17,0.39 0.43,0.28 -0.25,0.39 0,0 -1.19,0.25 0.41,1.02 0.65,-0.06 0.2,0.55 -0.48,0.55 -1.38,-0.03 -0.09,0.63 0.84,0.4 0,0.33 -0.65,0.18 -1.1,-0.2 -0.01,0.48 0.67,0.35 -0.34,0.69 -1.09,0.17 -0.39,-0.45 -0.51,0.24 -0.21,-0.2 -0.91,0.74 -1.29,-0.21 0,1.02 -0.49,0.37 -0.86,-0.59 -1.98,0.34 -0.09,0.44 0.78,0.66 0.03,0.64 -1.61,0.07 -0.72,0.54 -0.23,1.3 -1.58,-0.01 -0.1,0.43 -0.43,0.2 -1.24,-1.05 -1.48,0.61 -0.54,-0.07 -0.72,0.53 -0.79,-0.36 -0.94,0.52 0.13,-0.6 -2.22,-0.14 -1.84,-0.84 -0.1,-1.23 -0.97,-0.85 -1.49,0.15 -0.92,0.53 -1.68,-0.16 -0.73,-1.14 -1.23,-0.41 -0.52,-0.92 -0.74,-0.3 -0.55,0.24 0.26,0.73 -0.32,0.46 -0.52,-0.01 -0.92,-0.7 -0.55,0 -1.8,0.69 -1.11,0.96 -1.35,-0.78 -0.58,0.46 -0.06,1.69 -3.14,2.04 -1.2,-0.06 -1.88,-0.7 -0.39,-1.48 -0.39,-0.22 -3.64,0.4 0,0 -1.99,-1.72 -2.32,-0.18 -0.96,-1.52 -2.17,-1.34 -0.98,-1.7 -1.32,-0.75 -1.03,-1.02 -0.39,-1.48 -1.14,-0.5 -1.21,-2.09 -1.24,-0.81 -1.74,-3.22 -0.75,-2.13 -3,-0.84 -0.73,-2.14 -1.65,-0.41 -1.22,-1.67 -1.36,-0.28 -0.43,-0.8 -0.61,0.13 -0.58,-0.25 -2,-2.91 -0.18,-1.1 14.07,-29.99 -1.37,-0.5 0.63,-3.42 -0.26,-0.49 1.21,-1.36 0.83,-3.65 -0.46,-0.05 -0.55,-1.21 0.97,-0.07 0.2,-0.68 0.77,-0.15 1.36,-3.63 -0.7,-1.21 0,0 2.18,-0.59 0.24,-0.77 0.68,-0.73 -0.21,-0.8 0.86,-1.36 1.15,-0.19 1.69,-1.54 0.26,-0.56 -0.31,-0.5 0.74,-1.03 1.95,-0.48 0.44,-0.77 1.49,-1.14 2.17,-0.87 1.11,0.09 0.94,-0.87 2.01,0.39 0.52,-0.89 3.23,-1.84 0.64,-0.09 1,1.21 1.55,-0.08 1.88,0.51 0.57,2.29 0.37,0.23 0.93,-0.24 0.1,-0.48 -0.49,-0.92 0.8,-1.65 3.02,-2.92 0.77,-0.21 -0.03,-1.06 0.94,-1.3 0.9,-0.28 0.75,0.37 0.71,-0.95 1.7,0.27 0.72,-0.29 1.29,0.3 0.47,-0.15 -1.74,-1.07 0.29,-0.87 0.82,-0.31 -0.01,-1.5 -1.74,-1.87 -0.33,-1.02 0.32,-0.29 0.91,0.09 0.61,-0.6 0.35,0.06 0.77,-1.22 1.45,0.18 0.05,-1.56 1.07,-1.15 1.12,-0.25 0.39,0.61 0.31,-0.07 0.26,-0.92 0.94,-0.86 1.47,-0.77 0.57,0.35 0.95,-0.88 1.45,1.35 0.24,-0.39 -0.12,-1.83 0.39,-0.41 0.36,0.03 0.65,1.16 1.74,0.65 1.56,-0.24 1.27,0.23 0.5,-0.31 0.37,0.43 -0.2,0.75 0.28,0.11 0.7,-0.28 1.98,-2.6 0.85,-0.54 2.2,2 0.34,-0.03 0.65,-0.75 0.83,-0.19 1.08,-1.7 0.01,-1.36 z"
     title="Free State"
     id="ZA-FS" />
  <path
     d="m 315.53954,85.705409 3.72,-0.41 0.74,1.97 -1.7,1.41 -1.65,0.18 -0.21,4.38 -0.54,0.88 0.46,0.77 -0.62,0.98 1.4,5.000001 4.03,0.36 2.84,-3.440001 2.58,-0.7 0.62,2.18 -2.46,0.990001 -0.29,1.02 0.69,0.83 -1.23,2.29 0.36,0.28 -0.16,1.23 -1.65,-0.28 -0.92,4.87 -1.52,-0.07 -0.44,0.23 -0.44,-0.85 -0.18,0.26 -1.06,-0.03 -2.12,-0.55 -0.97,0.88 -0.38,1.63 -1.03,-0.33 -0.15,0.39 -0.41,-0.13 -1.15,0.43 0.41,1.4 0.94,0.72 0.18,2.18 2.44,0.79 0.08,1.82 0.7,0.1 0.14,0.45 0.99,0.6 1.83,-0.79 1.65,-0.17 1.13,2.34 -2.9,1.42 -0.06,1.72 -3.22,0.24 -0.23,0.87 -1.68,-0.24 -1.1,0.85 -0.01,0.91 -1,0.07 -0.12,1.12 -1.16,0.1 -0.13,0.45 -1.08,0.2 -0.53,1.85 0.5,0.23 0.2,0.77 -1.4,0.47 0.01,0.43 -0.85,0.26 -0.01,1.01 0.54,0.32 -0.64,1.28 0,0 -0.9,-0.7 -0.91,0.46 -0.67,-0.07 -0.76,-1.26 -0.77,1.18 -0.64,-1.37 -1.22,-0.57 -1.2,-1.2 -0.86,-1.77 0.21,-1.12 -0.84,-0.56 -0.89,0.32 -1.2,1.4 -2.49,0.41 -0.56,1.03 -1.07,-0.68 -2.12,0.13 -0.1,-0.75 -0.26,-0.14 -1.36,0.26 0.02,0.67 -0.88,0.32 0,0 0.75,-4.15 -0.9,-1.13 0.6,-0.14 0.51,-2.42 0.26,-0.07 0.37,-1.19 -2.48,0.09 -0.31,-0.86 -0.47,-0.38 -3.64,0.81 0.24,0.74 -3.43,1.32 -0.01,-1.35 -1.1,-2.03 1.55,-1.47 2.06,-1.37 -0.91,-3.96 1.72,0.2 0.08,-1.09 1.5,-0.22 1.24,-5.16 -0.06,-1.98 4.52,-2.45 0.3,1.17 0.88,1.22 1.33,-0.71 0.1,1.14 2.2,-0.73 2.06,-0.27 0,-0.56 1.19,0.13 0.01,-0.61 0.68,-0.43 -0.41,-1.51 0.75,-0.27 -1.16,-2.930001 2.08,-0.32 0.76,-0.5 0.34,-1.04 1.16,-0.83 -0.88,-3.85 1.15,-0.46 0.82,0.14 0.01,0.4 -0.69,0.23 0.24,0.86 0.57,-0.01 0.54,-0.55 1.38,0.09 2.09,-0.65 0,-2.76 0,0 1.93,-0.48 0.17,0.85 3.1,-0.61 0.19,-1.35 2.45,0.01 0.44,0.68 1.09,-0.66 0.56,-1.1 -0.92,0.05 z"
     title="Gauteng"
     id="ZA-GT" />
  <path
     d="m 343.22954,0.6354089 2.36,0.06 2.92,1.4 1.24,0.02 0.88,0.68 1.38,0.39 0.25,0.61 0.95,0.14 1.74,1.43 2.56,-0.41 1.69,1.6 3.09,-0.32 1.98,-0.71 1.31,0.28 1.68,-0.15 0.75,0.35 0.96,-0.66 1.21,0.2 3.01,-0.68 2.7,0.27 3.76,1.21 2.11,-0.48 1.12,0.94 1.53,0 1.3,2.07 6.46,20.8300001 -0.33,6.32 0.29,1.87 3.44,4.21 0.15,2.85 1.73,4.51 2.94,2.08 0,0 -1.05,0.5 -1.5,-0.19 -1.18,1.17 -0.22,1.09 -0.57,0.22 -0.79,0.06 -0.61,-1.21 -0.54,0.11 -0.94,1.01 -0.57,-0.6 -0.65,0.53 -0.51,-0.02 -1.95,-0.89 -1.15,1.21 -0.8,-0.27 -1.05,0.9 -1.42,-0.3 -0.55,0.63 5.8,-0.16 0,1.55 -1.4,1.31 0.39,1.02 -0.13,1.98 -1.13,1.2 -0.07,0.95 -1.07,0.78 1.43,0.89 -0.55,1.02 2.33,0.04 -1.16,1.1 0.61,0.92 2.24,1.31 1.52,0.27 0,1.52 -1.04,0.08 0.04,0.42 -1.11,-0.25 0,0.75 -1.36,0.99 -3.5,0 0.46,1.06 0,2.16 1.07,0 0,0.64 2.2,-0.29 0.23,1.99 -0.88,0.11 0.42,2.08 -3.64,-0.4 -1.55,0.39 -0.51,0.87 -3.44,0.31 -0.5,-0.3 -0.53,-1.29 -0.86,-0.17 0,-2.23 -0.74,-1.75 -0.54,-0.41 -1.55,-0.35 -0.42,-0.47 0,-1.99 -0.43,-0.35 0.59,-0.93 0,-0.82 -0.27,-0.7 -1.44,-0.3 -0.59,-0.64 1.02,-1.4 -2.14,-1.87 -1.28,0.48 -0.26,0.78 -1.89,0.79 -0.38,-0.81 -0.73,0.28 -0.02,1.75 -1.51,1.51 -1.03,-1.36 -2.76,-0.63 -0.99,-0.62 -0.42,1.2 -1.71,0.02 -1.32,-0.82 -0.1,1.79 -1.4,-1.08 -2.33,0.08 0.57,2.25 -0.31,0.75 1.42,1.2 -0.38,1.89 -1.53,0.2 -6.48,5.33 -0.01,0.96 -1.8,0.17 0.06,0.92 0.97,0.27 0.69,1.54 -1.17,0.4 -0.01,0.68 -0.79,1.15 -4.6,-0.8 0.11,-0.75 -1.71,-1.72 -0.65,0.11 -0.72,-0.9 0.19,-0.85 -1.14,-0.68 -0.01,-0.87 -1.6,0.75 -0.14,-0.22 0.85,-1.42 -0.89,-2.39 0.04,-0.83 -2.68,-0.67 -1.49,0.4 -0.02,2.01 -0.55,0.26 0.22,0.83 -2.75,1.17 -1.03,-2.27 -0.31,0.1 -0.26,-0.52 -2.4,-0.43 0.42,2.13 -1.2,-0.38 -1.25,0.37 -1.25,-0.4 -1.7,0.29 -0.98,0.8 -2.42,0.96 0.04,2.16 -3.82,0.9 -0.03,0.93 -2.48,0.77 0.13,1.66 0.41,0.13 2.7,-0.61 0.46,-0.65 2.81,-0.87 0,0 0.91,1.93 0.92,-0.05 -0.56,1.1 -1.09,0.66 -0.44,-0.68 -2.45,-0.01 -0.19,1.35 -3.1,0.61 -0.17,-0.85 -1.93,0.48 0,0 -1.89,-3.11 -2.36,0.26 -0.14,-1.45 -1.42,-0.24 0.26,-1.34 0.99,-0.23 1.27,0.95 1.28,-0.07 0.45,-1.86 -3.75,-1.9 -2.33,-0.17 -0.85,-0.53 -0.81,0.17 -0.35,0.62 -1.09,-0.12 -0.04,-0.58 0.74,-0.01 -0.23,-0.85 -1.88,-0.44 -0.15,1.61 -1.76,-0.22 -1.13,0.68 -1.06,-1.05 -1.22,0 -0.86,0.54 0.08,1.62 -1.31,1.76 -0.8,-0.28 -0.55,-1.21 -3.3,0.38 -1.58,-1.97 -3.5,-0.16 0.02,-0.71 -0.79,-1.51 -1.87,-0.71 -0.59,-4.81 -1.07,0.03 -0.13,1.44 -0.87,-0.02 -0.42,0.59 -4.06,1.48 -0.46,0.75 -1.5,-0.1 -1.78,-1.34 -1.47,0.26 -3.94,-0.55 -0.96,-1.93 0.12,-3.04 0,0 0.48,-0.04 0.23,-0.58 1.16,-0.77 1.17,-2.9 1,-1.08 1.17,-1.14 1.68,-0.48 0.4,-1.42 1.44,-1.05 1.21,0.06 1.16,-0.95 0.9,-0.33 -0.02,-1.19 0.41,-0.53 -0.33,-0.64 0.42,-0.51 -0.46,-0.72 0.11,-0.91 0.61,-0.56 0.61,-1.79 -0.07,-0.95 0.37,-0.42 0.12,-1.26 0.54,-1.32 -0.03,-0.51 -0.39,-0.07 0.48,-0.49 -0.16,-0.74 0.44,-2.26 0.25,-0.76 0.63,-0.46 0.22,-1.34 0.68,0.5 -0.07,0.66 0.74,-0.28 0.53,-0.68 -0.49,-0.95 0.99,-0.5 0.32,-0.71 1.09,-0.16 -0.44,-0.62 0.07,-0.56 0.5,0.39 0.39,-0.28 0.34,0.3 0.47,-0.11 0.18,-0.24 -0.5,-0.64 0.42,-0.38 0.71,0.26 0.28,-0.47 0.71,-0.13 0.84,-0.62 0.63,-1.45 0.5,0.08 0,0.6 0.62,0.04 0.08,-0.79 0.69,-0.21 -0.16,0.74 0.51,0.17 0.78,-1.08 2.19,-0.18 0.76,-0.83 0.33,-2.33 0.61,-0.43 -0.03,-0.76 0.24,-0.17 1.16,0.3 1.01,-0.74 0.74,0.95 0.64,-0.12 0.29,-0.89 0.8,-0.73 -0.51,-0.97 0.62,0.17 0.66,-0.34 0.2,-0.7 1.85,-0.64 1.03,-0.9 0.08,-1.28 0.31,-0.5 -0.24,-0.88 0.9,-0.14 1.81,-1.38 0.24,-0.5 -0.22,-1.48 1.04,-0.41 1.8,-1.53 0.16,-1.6 1.06,-1.15 1.51,-0.68 0.49,-0.8 1.12,-0.48 0.62,-0.67 2.67,-0.17 1.65,0.46 1.06,-0.64 1.95,-0.14 2.32,-1.29 2.89,-0.8 0.02,-0.6000001 0.93,-0.46 1.3,0.37 1.45,-2.42 -0.18,-1.81 0.26,-0.56 0.49,-0.2 0.5,-1.39 0.52,-0.39 3.04,-0.08 1.28,-0.91 1.85,0.33 1.12,-0.12 0.5,0.43 3.27,-1.04 1.46,0.27 0.46,-0.67 0.97,-0.29 0.95,0.35 1.05,-0.79 z"
     title="Limpopo"
     id="ZA-LP" />
  <path
     d="m 400.46954,52.015409 0.34,0.83 0.57,5.39 1.93,3.21 0.59,4.24 -0.25,6.41 0.93,10.31 -0.08,6.55 -0.22,2.89 -0.93,2.05 -0.2,1.17 -0.02,0.96 0.51,0.17 0.31,3.21 -1.93,5.540001 1.14,3.47 -2.92,1.34 -11.55,-8 -2.7,0.7 -1.53,2.09 -3.31,2.94 -0.4,1.89 -3.47,7.09 -2.28,2.6 -1.65,2.76 -0.98,4.24 0.05,4.46 0.38,3.06 0.3,0.43 0.47,-0.08 1.57,-1.38 0.38,1.97 1.67,1.68 0.13,0.98 -0.47,1.24 0.21,0.65 2.39,2.38 2.12,2.81 3.63,1.46 0,0 -2.83,3.65 -0.73,-0.06 -1.19,-0.96 -0.71,0.19 -0.58,-0.21 -2.55,0.61 -0.82,-0.58 -0.23,-0.93 -1.24,0.22 -0.96,0.82 -1.18,-0.83 -0.62,0.09 -0.7,-0.71 -1.33,-0.47 -1.23,0.12 -1.53,1.09 -1.97,-0.37 -1.57,0.21 -0.43,-0.17 -0.17,-0.95 -0.98,-0.2 -0.65,0.76 -0.85,-0.08 -1.21,0.35 -1.44,1.19 -1.13,0.31 -0.83,0.99 -2.17,-0.71 -1.29,0.74 -1.34,-0.18 -0.83,-0.53 -2.13,0.7 -1.21,2.32 -0.79,-0.37 0,0 -1.51,-0.04 -0.51,0.51 -0.02,0.74 -0.81,0.04 -0.55,0.46 -0.65,-0.13 -1,-1.85 -1.09,-0.92 0.3,-0.61 -1.7,-1.48 0.14,-0.56 -0.51,-0.31 -0.17,-1.07 -0.44,-0.58 -1.22,-0.76 -1.58,0.36 0.11,-0.82 -0.32,-0.29 -0.76,-0.01 -0.43,-0.59 -0.85,-0.12 -1,-1.02 -1.42,-0.07 -1.06,0.52 -1.42,-2.43 -0.18,-1.37 -0.74,0.09 -0.77,-0.83 -0.65,-0.1 -1.72,0.68 -0.5,0.86 -0.78,-0.41 -0.93,0.15 -2.92,-1.84 -1.55,-0.57 -0.82,0.79 0.97,0.13 -0.06,0.56 -1.1,0.06 -1.83,1.38 0.55,-1.08 -0.9,-0.45 -0.96,-1.26 -0.59,0.03 -0.9,0.71 -0.82,-1.61 -1.81,0.06 -0.98,-0.6 0,0 0.64,-1.28 -0.54,-0.32 0.01,-1.01 0.85,-0.26 -0.01,-0.43 1.4,-0.47 -0.2,-0.77 -0.5,-0.23 0.53,-1.85 1.08,-0.2 0.13,-0.45 1.16,-0.1 0.12,-1.12 1,-0.07 0.01,-0.91 1.1,-0.85 1.68,0.24 0.23,-0.87 3.22,-0.24 0.06,-1.72 2.9,-1.42 -1.13,-2.34 -1.65,0.17 -1.83,0.79 -0.99,-0.6 -0.14,-0.45 -0.7,-0.1 -0.08,-1.82 -2.44,-0.79 -0.18,-2.18 -0.94,-0.72 -0.41,-1.4 1.15,-0.43 0.41,0.13 0.15,-0.39 1.03,0.33 0.38,-1.63 0.97,-0.88 2.12,0.55 1.06,0.03 0.18,-0.26 0.44,0.85 0.44,-0.23 1.52,0.07 0.92,-4.87 1.65,0.28 0.16,-1.23 -0.36,-0.28 1.23,-2.29 -0.69,-0.83 0.29,-1.02 2.46,-0.990001 -0.62,-2.18 -2.58,0.7 -2.84,3.440001 -4.03,-0.36 -1.4,-5.000001 0.62,-0.98 -0.46,-0.77 0.54,-0.88 0.21,-4.38 1.65,-0.18 1.7,-1.41 -0.74,-1.97 -3.72,0.41 0,0 -2.81,0.87 -0.46,0.65 -2.7,0.61 -0.41,-0.13 -0.13,-1.66 2.48,-0.77 0.03,-0.93 3.82,-0.9 -0.04,-2.16 2.42,-0.96 0.98,-0.8 1.7,-0.29 1.25,0.4 1.25,-0.37 1.2,0.38 -0.42,-2.13 2.4,0.43 0.26,0.52 0.31,-0.1 1.03,2.27 2.75,-1.17 -0.22,-0.83 0.55,-0.26 0.02,-2.01 1.49,-0.4 2.68,0.67 -0.04,0.83 0.89,2.39 -0.85,1.42 0.14,0.22 1.6,-0.75 0.01,0.87 1.14,0.68 -0.19,0.85 0.72,0.9 0.65,-0.11 1.71,1.72 -0.11,0.75 4.6,0.8 0.79,-1.15 0.01,-0.68 1.17,-0.4 -0.69,-1.54 -0.97,-0.27 -0.06,-0.92 1.8,-0.17 0.01,-0.96 6.48,-5.33 1.53,-0.2 0.38,-1.89 -1.42,-1.2 0.31,-0.75 -0.57,-2.25 2.33,-0.08 1.4,1.08 0.1,-1.79 1.32,0.82 1.71,-0.02 0.42,-1.2 0.99,0.62 2.76,0.63 1.03,1.36 1.51,-1.51 0.02,-1.75 0.73,-0.28 0.38,0.81 1.89,-0.79 0.26,-0.78 1.28,-0.48 2.14,1.87 -1.02,1.4 0.59,0.64 1.44,0.3 0.27,0.7 0,0.82 -0.59,0.93 0.43,0.35 0,1.99 0.42,0.47 1.55,0.35 0.54,0.41 0.74,1.75 0,2.23 0.86,0.17 0.53,1.29 0.5,0.3 3.44,-0.31 0.51,-0.87 1.55,-0.39 3.64,0.4 -0.42,-2.08 0.88,-0.11 -0.23,-1.99 -2.2,0.29 0,-0.64 -1.07,0 0,-2.16 -0.46,-1.06 3.5,0 1.36,-0.99 0,-0.75 1.11,0.25 -0.04,-0.42 1.04,-0.08 0,-1.52 -1.52,-0.27 -2.24,-1.31 -0.61,-0.92 1.16,-1.1 -2.33,-0.04 0.55,-1.02 -1.43,-0.89 1.07,-0.78 0.07,-0.95 1.13,-1.2 0.13,-1.98 -0.39,-1.02 1.4,-1.31 0,-1.55 -5.8,0.16 0.55,-0.63 1.42,0.3 1.05,-0.9 0.8,0.27 1.15,-1.21 1.95,0.89 0.51,0.02 0.65,-0.53 0.57,0.6 0.94,-1.01 0.54,-0.11 0.61,1.21 0.79,-0.06 0.57,-0.22 0.22,-1.09 1.18,-1.17 1.5,0.19 1.05,-0.5 0,0 z"
     title="Mpumalanga"
     id="ZA-MP" />
  <path
     d="m 94.79954,77.255409 0.72,0.62 0.78,0.07 0.67,0.73 0.62,-0.36 0.41,0.5 1.02,0.21 0.73,1.43 2.29,1.56 1.01,1.77 0.51,1.76 0.73,0.02 0.07,0.5 -0.46,0.55 0.18,0.61 0.85,0.38 -0.01,0.86 1.3,0.95 -0.53,0.67 0.65,0.3 -0.08,0.43 0.56,1.27 1.1,0.44 0.11,0.88 0.56,0.06 -0.15,0.72 0.38,0.13 0.62,-0.42 0.29,0.21 -0.12,0.47 -0.72,0.2 -0.29,1.15 0.07,0.35 0.9,0.56 0.63,1.14 -1.01,1.27 0.8,0.06 -0.17,1.490001 1.11,1.17 0.31,1.2 0.59,0.39 -0.3,1.21 1.05,-0.6 0.03,1.47 0.59,0.59 -0.21,1.06 0.94,1.26 -0.55,1.37 0.47,0.78 -0.2,0.9 0.32,0.48 -0.38,0.8 0.31,0.4 0.51,0.02 0.04,0.71 -0.99,0.98 -0.29,1.64 -0.59,1.13 -0.64,0.3 -1.51,2.22 -0.32,0.98 -0.55,0.25 -0.54,0.83 -0.61,0.09 -0.27,0.91 -0.24,1.76 0.74,2.56 -0.01,1.43 -0.48,0.95 0.49,1.01 -0.05,1.77 0.54,0.49 -0.06,0.58 0.98,0.58 0.13,1.51 0.57,-0.92 1.4,-0.39 0.78,-0.73 0.47,0.05 0.26,-0.49 1.91,-0.74 1.07,0.41 0.83,-0.06 1.22,1.19 1.45,0.08 1.71,0.63 1.9,-0.73 1.42,-0.2 0.83,0.28 1.1,-0.69 1.31,-0.06 0.76,0.01 2.57,1.03 0.77,-0.4 0.88,-0.01 1.04,0.54 1.89,-0.15 2.17,-1.91 0.05,-2 -0.36,-0.61 0.21,-0.54 0.85,-0.58 3.61,0.17 2.48,-1.07 0.85,-1.51 2.1,-2.14 -0.02,-0.63 0.47,-0.38 0.52,-2.15 0.89,-0.53 0.61,-0.81 2.86,-0.85 -0.03,-0.89 0.94,-0.46 -0.09,-0.57 0.79,-0.79 0.82,-0.06 0.43,-0.54 1.84,0.65 0.42,-0.27 0.36,-0.68 0.13,-1.49 0.63,0.14 0.69,-1.09 0,0 1.59,0.09 0.21,8.59 -0.32,0.11 -0.3,0.74 0.41,3.45 0.22,0.3 0.93,0.08 2.54,-0.17 0.43,0.91 1.47,-0.09 0.42,0.25 0.36,0.99 0.37,-0.62 0.3,0.04 1.33,1.22 0.74,0.26 -1.04,2.36 0.89,1.33 -0.92,0.55 -0.12,1.16 0.74,1.5 0.1,1.4 1.1,1.35 -0.79,0.47 -1.12,0.1 -0.35,2.65 0.14,1.17 0.91,1.69 1.7,-0.47 0.29,0.9 0.97,0.59 1.93,2.7 2.22,0.12 0.99,0.34 1.85,1.69 0.98,-0.38 0.89,0.97 -0.38,0.96 3.24,0.02 1.18,1.14 2.64,1.12 0.29,-0.02 1.11,-1.92 2.01,0.42 0.9,-0.66 -0.12,-0.48 -0.94,-0.18 0.86,-1.47 1.35,0.53 0.95,-0.02 -0.48,-2.01 0.58,-1.1 1.93,1.3 -0.76,2.16 -0.19,4.78 1.59,0.56 -0.66,3.01 0.87,0.84 8.04,-1.83 0.59,1.01 -0.05,2.87 -2.09,2.42 0.44,0.76 0.46,0.35 0.54,-0.25 1.4,1.48 -0.84,1.79 0.67,0.07 1.51,1.56 0.84,-0.4 0.6,-1.43 1.15,-0.89 0.37,-1.26 -0.27,-1.31 0.73,-0.89 0.13,-0.64 0.84,-0.28 0.4,-0.81 -0.13,-1.3 0.48,-0.72 -0.22,-0.94 -0.51,-0.27 -0.28,-0.96 0.48,-1.19 1.48,-0.07 0.15,-0.66 0.35,-0.17 0.16,1 0.45,0.36 -0.27,0.66 0.16,0.49 6.04,-0.06 0.41,0.25 -4.88,5.9 -0.43,0.08 2.86,5.64 0.55,-0.11 0.71,-0.66 0,0 0.69,1.21 -1.35,3.63 -0.77,0.15 -0.2,0.68 -0.97,0.07 0.56,1.21 0.45,0.06 -0.83,3.64 -1.21,1.36 0.27,0.49 -0.63,3.42 1.37,0.5 -14.06,29.99 0.17,1.1 2,2.92 0.58,0.25 0.61,-0.13 0.43,0.8 1.36,0.28 1.22,1.67 1.65,0.41 0.73,2.14 3,0.84 0.75,2.13 1.74,3.22 1.24,0.81 1.21,2.08 1.14,0.51 0.39,1.48 1.04,1.01 1.31,0.75 0.98,1.71 2.17,1.34 0.97,1.52 2.32,0.18 1.98,1.72 0,0 0.39,5.16 1.87,0.24 -0.66,1.25 -0.83,0.33 -0.35,0.62 1.12,0.98 0.19,1.34 -1.36,1.61 0.46,0.84 -0.6,1.13 -0.74,0.09 0.59,0.73 -0.96,1.55 -0.7,0.02 -0.48,0.47 0.01,1.66 -0.76,0.51 -3.5,-0.79 -4.18,2.29 -2.1,-0.01 -1,1.07 -2.02,0.52 -0.1,1.36 -0.91,-0.5 -0.92,1.14 -2.39,0.37 -1.41,-0.46 -1.99,0.28 -0.06,2.02 -1.07,0.53 0.22,0.3 -0.49,1.73 0.25,0.88 -0.39,3.72 -4.99,0.19 0,0.5 -1.27,1.24 -2.77,-0.98 -0.4,0.5 0.27,1.13 0,0 -2.18,0.12 -1.1,-2 0.45,-0.62 -2.15,0.03 -0.41,1.93 -0.94,0.43 -0.44,1.08 -0.77,0.03 -0.5,-1.28 -1.13,-0.37 0.89,-0.69 -0.04,-0.62 -2.33,-1.01 -0.27,-1.01 -2.61,0.03 -0.66,-0.33 -0.4,0.16 -0.54,1.03 -0.64,-0.05 -0.76,0.39 -2.83,-0.55 -0.22,0.85 -1.8,0.1 -1.48,0.9 -0.45,1.9 -0.92,1.08 0.01,0.84 -3.74,3.3 -1.01,-1.52 0.4,-1.26 -2.3,-1.04 -2.1,0.64 -0.78,-0.35 -0.29,-1 -1.98,0.65 -0.94,-1.43 -2.49,0.47 -1.62,-0.52 0.71,-2.29 -1.18,-0.63 -0.06,-1.01 -1.98,-0.41 -4.59,-2.64 -0.66,0.43 -0.34,1.79 -2.12,4.02 -0.15,3.12 -2.3,-1 0.42,1.57 -0.76,0.7 0.71,1.44 -0.38,1.21 1.23,1.3 -1.02,2.22 -0.5,-1.51 -1.62,0.75 -0.09,2.75 -1.74,0.68 -0.33,1.25 -1.77,0.33 -2.29,-0.92 -0.07,-0.6 -0.93,-0.42 -1.35,1.36 -1.51,-1.28 -1.98,0.7 0.25,2.49 -1.55,0.63 -0.72,-0.17 -1.13,1.28 -0.59,-0.33 -1.82,0.69 -0.77,-0.2 -0.48,1.57 -0.97,0.88 -1.18,0.37 -1.27,3.41 0.46,1.3 -3.99,1.3 -1.02,-0.57 -3.39,0.93 -1.09,0.9 -0.05,0.78 0.5,0.57 0.21,2.15 -0.61,2.04 -1.65,0.68 -0.4,0.9 -1.75,-0.2 -1.41,0.45 -1.04,-1.61 -1.67,1.44 -1.84,0.17 -1.04,-1.18 -0.9,0.15 -0.1,-1.38 -0.79,-0.31 -1.05,-1.75 -2.48,-1.04 0.05,-2.75 -1.39,-1.33 -1.55,-5.69 -0.01,-1.5 1.15,0.57 1.07,-1.1 -0.19,-0.87 1.67,-1.68 0.66,0.36 -0.36,-2.15 -0.65,-0.22 0.02,-0.96 -0.76,-0.49 -1.61,1.15 -0.55,1.13 -1.11,-0.03 -0.47,1.45 -2.55,2.34 -1.9,0.31 -0.2,-0.46 -1.15,-0.21 -0.06,0.77 -1.23,0.84 -0.79,-0.5 -0.76,0.71 0.43,0.84 -1.25,0.51 -0.74,-1.3 -0.59,0.47 0.01,1.62 -0.97,1.75 0.84,1.75 -0.12,0.57 -1.96,1.27 -1.22,-2.5 0.49,-3.45 -1.39,-2.63 -0.64,-0.6 -0.37,-2.23 2.52,-1.43 -0.58,-2.64 0.22,-2.37 -1.12,-0.24 -0.97,-1.11 -0.83,0.34 -0.34,-0.44 -0.96,-0.08 -0.74,-1.65 -1.28,-0.43 0.62,-2.78 -1.98,1.93 -0.14,-0.43 -0.59,-0.25 -0.69,0.35 -1.26,-0.83 -1.54,-0.12 0.05,-1.83 1.25,-1.22 -0.16,-0.95 0.36,-0.28 -1.22,-3.11 0.59,-0.01 -0.08,-1.89 0.44,-0.37 -0.41,-0.76 -0.48,-0.05 0.56,-1.21 -1.77,-0.55 0.76,-1.46 -0.3,-2.2 -1.12,-1.14 0.98,-1.38 -1.48,-0.55 -0.64,-1.56 0.25,-3.29 -1.3,-2.33 0.31,-1.61 1.79,-1.43 -2.64,-1.52 2.32,-0.74 -0.41,-3.9 -2.35,-0.28 -2.08,-1.83 0.38,-1.13 -1.03,-1.61 -2.57,-0.57 -2.42,-3.44 -1.93,0.52 0.02,1.86 0.66,2.11 -3.21,-3.81 0.48,1.83 -0.82,1.63 -0.5,2.69 -2.61,4.5 -1.19,0.06 -1.2,0.99 -2.09,-1.85 -0.69,-0.23 -1.77,0.36 -0.11,3.79 -3.02,0.36 1.2,2.28 -2.67,2.44 0.5,2.75 -1.76,-0.72 0,0 -1.9,-4.45 -1.81,-2.44 -0.92,-1.77 -1.35,-3.71 -2.3,-3.44 0.13,-0.93 -0.74,-0.82 -2.68,-5.11 0.01,-0.43 -0.94,-1.28 -0.29,-2.28 -0.94,-1.98 -0.07,-0.9 -0.77,-1.13 -1.17,-4.64 -0.9,-1.61 -0.91,-2.92 -1.14,-6 -0.9,-1.21 -0.17,-1.63 -1.19,-3.25 -0.12,-1.1 -1.75,-2.42 -0.17,-1.27 -0.76,-1.06 0.13,-0.79 -0.7799996,-2.78 -1.7,-1.43 -0.75,-1.16 0.07,-0.68 -0.84,-1.56 -2.24,-1.75 -1.01,-2.99 0.17,-1.15 -0.93,-0.65 -1.25,-1.64 -0.71,-0.38 0.39,-1.57 0.36,-0.54 2.04,-0.28 1.05,-0.67 0.18,-0.72 0.57,-0.55 0.94,-0.47 0.43,0.05 0.32,0.75 0.7,-0.06 0.59,-1.08 0.58,-0.4 -0.13,-1.46 1.08,-0.94 -1.53,-2.05 0.12,-0.82 0.46,-0.27 0.67,0.5 0.51,-0.1 0.08,-0.88 -0.53,-0.69 1.2299996,-0.16 -0.4799996,-1.29 1.0599996,0.33 0.38,-0.22 -0.03,-2.46 0.42,-0.52 1.42,0.27 0.42,-0.52 0.8,0.42 0.56,-0.66 1.56,-0.49 0.88,0.71 0.4,0.79 1.43,0.7 -0.2,2.69 0.6,1 0.58,0.43 0.66,-0.41 0.82,0.1 0.76,-0.52 0.87,0.54 0.86,1.52 0.01,1.09 0.77,1.13 -0.13,1.18 -0.48,0.69 -0.89,0.06 -0.55,1.02 0.17,0.72 0.83,0.76 0.23,1.47 1.29,0.04 -0.45,4.4 2,-0.72 1.58,0.17 0.54,-0.38 0.77,0.27 0.31,1.73 0.96,0.42 0.48,0.01 0.93,-0.7 0.58,0.43 0.56,-0.49 0.83,0.47 3.48,0.09 2.01,1.36 1.68,1.99 0.79,-0.12 1.04,0.64 1,0.01 0.44,0.5 0.58,-0.11 0.35,-0.44 0.87,0.11 0.44,-0.5 1.42,0.2 0.78,-0.23 0.55,0.45 1.39,0.14 1.05,-0.42 1.04,0.15 1.41,-0.96 1.75,-0.42 1.26,0.24 1.48,-0.4 5.62,0.69 0.97,0.63 0.62,1.5 0.59,-0.14 0.84,0.72 1.2,0.44 1.6,-0.4 0.94,-0.51 0.88,-1.04 1.29,-0.05 0,-0.63 -0.85,-0.51 -0.49,-1.45 0.62,-1.91 0.8,-0.43 1.2,0.26 1.63,-0.15 1.4,-0.73 0.88,-1.11 0.34,-2.13 1,-0.8 0.47,-1.35 1.59,-0.46 1.79,0.1 1.09,-0.94 1.89,0.59 0.47,-0.25 0.4,-0.94 0.82,-0.72 0.88,0.18 1.57,-0.58 0.77,0.12 0.09,-106.260001 1.76,2.13 0.39,0.02 0.42,0.9 z"
     title="Northern Cape"
     id="ZA-NC" />
  <path
     d="m 406.52954,133.25541 0.17,0.46 1.74,0.88 1.14,-0.81 1.42,0.51 2.62,0.36 11.29,0.18 1.84,-0.3 -0.27,0.98 -0.61,0.27 -0.28,0.96 0.19,0.46 0.69,-1.52 -0.84,5.31 -4.47,12.36 0.09,1.12 -2.01,7.87 -0.32,2.28 0.13,1.2 -1.04,6.28 -3.4,6.81 0.1,1.22 -0.68,2.91 -1.04,1.6 -9.1,8.93 -6.4,2.51 -3.32,3.61 -1.82,2.55 -2.9,2.75 -0.81,1.25 -2.26,2.3 -3.9,5.48 -3.37,6.15 -0.5,1.59 0.22,0.97 0.43,0.15 -0.02,0.31 -4.56,5.32 -6.73,13.61 -5.93,9.74 -2.29,2.95 -2.08,3.68 -0.81,0.63 0,0 -0.58,-0.47 -0.29,-1.19 -0.78,-0.49 0.12,-0.93 -0.52,-0.5 0.25,-0.78 -0.19,-0.59 -0.64,-0.65 -0.68,-0.06 -0.34,-1.28 -1.07,-0.1 -0.35,-0.5 -0.72,0.19 -0.24,-0.83 -0.6,-0.24 0.01,-0.75 -0.89,0.34 -0.68,-0.36 -0.38,-0.47 -1.24,-0.57 -0.37,-1 -0.89,-0.07 -0.38,0.58 -0.26,-0.38 -1.7,-0.42 -0.39,-0.43 -1.53,0.31 -0.63,-0.65 -0.93,-0.25 -1.95,-1.37 -1.35,0.6 -1.57,0 -0.36,0.49 -0.5,0.09 -1.78,-0.88 -4.6,-1.19 0.07,-1.58 -1.99,-0.98 -0.55,0.21 -0.3,1.94 -0.5,0.07 -2.32,-0.47 -1.07,-1.62 -1.19,-0.19 -0.5,-1.12 0.64,-1.23 -0.83,-1.59 0.92,-2.24 2.24,0.91 0.7,-1.83 1.2,0.32 0.35,-0.96 0.99,-0.62 -0.36,-0.92 1.42,-0.85 1,0.11 1.17,-1.53 -0.02,-1.1 -1.02,-0.64 -1.33,-1.71 0,0 1.59,-1.2 0.62,0.17 0.33,-0.83 1.06,-0.28 0.13,-0.35 -0.46,-1.49 -0.68,-0.68 0.68,-2.67 -0.17,-0.97 0.72,-0.65 0.15,-0.95 0.7,-0.14 0.78,-0.63 1.42,-0.25 -0.01,-1.16 0.97,-0.35 -0.7,-0.48 0.02,-2.2 0.73,-0.32 0.35,-0.65 2.09,-0.77 0.97,-2.5 -0.61,-0.71 0.09,-1.05 -0.92,-1.2 -0.46,-1.48 -1.29,-1.56 0.12,-1.08 -0.32,-0.53 -1.11,-0.36 -0.79,0.34 -0.85,-0.94 -0.21,-0.8 -1.41,-0.57 -0.69,-0.65 -1.51,-0.5 -0.21,-1.09 -1.16,-0.78 -0.73,0.14 -0.96,-1.1 -1.23,-2.39 -1.22,-1.06 0,0 0.76,-2.35 0.89,-0.75 -0.01,-1.15 1.05,-1.17 2.65,-0.86 1.61,0.2 0.51,-0.51 1,0.02 0.21,-0.39 -0.27,-1.1 0.97,-1.26 1.91,-0.5 1.09,-1.34 1.84,-0.84 2.1,-2.74 2.62,-0.41 0.61,-1.56 1.18,-0.85 0.09,-1.71 -1.09,-1.15 -0.15,-0.84 0.32,-1.06 0.8,-0.82 -0.04,-1.73 1.5,-2.89 -0.55,-1.05 0.14,-1.79 -0.64,-1.21 0,-0.54 2.54,-1.89 -0.36,-1.45 -1.38,-0.61 0.27,-0.99 -0.32,-0.29 1.54,-0.69 0,0 0.79,0.37 1.21,-2.33 2.13,-0.69 0.83,0.52 1.34,0.19 1.1,-0.74 2.37,0.71 0.82,-0.99 1.14,-0.31 1.43,-1.19 1.21,-0.35 0.85,0.08 0.65,-0.76 0.98,0.2 0.17,0.95 0.43,0.16 1.57,-0.21 1.97,0.38 1.54,-1.1 1.23,-0.12 1.33,0.48 0.7,0.71 0.62,-0.1 1.17,0.83 0.97,-0.82 1.24,-0.23 0.23,0.94 0.81,0.58 2.55,-0.61 0.58,0.21 0.71,-0.19 1.19,0.95 0.74,0.06 2.83,-3.65 0,0 5.5,2.06 12.28,0.04 0.2,-7.42 0.8,-7.25 2.24,-0.13 0.31,0.31 z"
     title="KwaZulu-Natal"
     id="ZA-NL" />
  <path
     d="m 258.37954,70.875409 -0.12,3.04 0.96,1.93 3.94,0.55 1.47,-0.26 1.78,1.34 1.5,0.1 0.46,-0.75 4.06,-1.48 0.42,-0.59 0.87,0.02 0.13,-1.44 1.07,-0.03 0.59,4.81 1.87,0.71 0.79,1.51 -0.02,0.71 3.5,0.16 1.58,1.97 3.3,-0.38 0.55,1.21 0.8,0.28 1.31,-1.76 -0.08,-1.62 0.86,-0.54 1.22,0 1.06,1.05 1.13,-0.68 1.76,0.22 0.15,-1.61 1.88,0.44 0.23,0.85 -0.74,0.01 0.04,0.58 1.09,0.12 0.35,-0.62 0.81,-0.17 0.85,0.53 2.33,0.17 3.75,1.9 -0.45,1.86 -1.28,0.07 -1.27,-0.95 -0.99,0.23 -0.26,1.34 1.42,0.24 0.14,1.45 2.36,-0.26 1.89,3.11 0,0 0,2.76 -2.09,0.65 -1.38,-0.09 -0.54,0.55 -0.57,0.01 -0.24,-0.86 0.69,-0.23 -0.01,-0.4 -0.82,-0.14 -1.15,0.46 0.88,3.85 -1.16,0.83 -0.34,1.04 -0.76,0.5 -2.08,0.32 1.16,2.930001 -0.75,0.27 0.41,1.51 -0.68,0.43 -0.01,0.61 -1.19,-0.13 0,0.56 -2.06,0.27 -2.2,0.73 -0.1,-1.14 -1.33,0.71 -0.88,-1.22 -0.3,-1.17 -4.52,2.45 0.06,1.98 -1.24,5.16 -1.5,0.22 -0.08,1.09 -1.72,-0.2 0.91,3.96 -2.06,1.37 -1.55,1.47 1.1,2.03 0.01,1.35 3.43,-1.32 -0.24,-0.74 3.64,-0.81 0.47,0.38 0.31,0.86 2.48,-0.09 -0.37,1.19 -0.26,0.07 -0.51,2.42 -0.6,0.14 0.9,1.13 -0.75,4.15 0,0 -0.61,0.1 -0.01,1.36 -1.08,1.7 -0.83,0.19 -0.65,0.75 -0.34,0.03 -2.2,-2 -0.85,0.54 -1.98,2.6 -0.7,0.28 -0.28,-0.11 0.2,-0.75 -0.37,-0.43 -0.5,0.31 -1.27,-0.23 -1.56,0.24 -1.74,-0.65 -0.65,-1.16 -0.36,-0.03 -0.39,0.41 0.12,1.83 -0.24,0.39 -1.45,-1.35 -0.95,0.88 -0.57,-0.35 -1.47,0.77 -0.94,0.86 -0.26,0.92 -0.31,0.07 -0.39,-0.61 -1.12,0.25 -1.07,1.15 -0.05,1.56 -1.45,-0.18 -0.77,1.22 -0.35,-0.06 -0.61,0.6 -0.91,-0.09 -0.32,0.29 0.33,1.02 1.74,1.87 0.01,1.5 -0.82,0.31 -0.29,0.87 1.74,1.07 -0.47,0.15 -1.29,-0.3 -0.72,0.29 -1.7,-0.27 -0.71,0.95 -0.75,-0.37 -0.9,0.28 -0.94,1.3 0.03,1.06 -0.77,0.21 -3.02,2.92 -0.8,1.65 0.49,0.92 -0.1,0.48 -0.93,0.24 -0.37,-0.23 -0.57,-2.29 -1.88,-0.51 -1.55,0.08 -1,-1.21 -0.64,0.09 -3.23,1.84 -0.52,0.89 -2.01,-0.39 -0.94,0.87 -1.11,-0.09 -2.17,0.87 -1.49,1.14 -0.44,0.77 -1.95,0.48 -0.74,1.03 0.31,0.5 -0.26,0.56 -1.69,1.54 -1.15,0.19 -0.86,1.36 0.21,0.8 -0.68,0.73 -0.24,0.77 -2.18,0.59 0,0 -0.71,0.66 -0.55,0.11 -2.86,-5.64 0.43,-0.08 4.89,-5.9 -0.41,-0.25 -6.04,0.06 -0.16,-0.49 0.28,-0.65 -0.45,-0.37 -0.16,-0.99 -0.35,0.17 -0.15,0.65 -1.49,0.07 -0.48,1.19 0.29,0.96 0.51,0.27 0.22,0.94 -0.48,0.72 0.13,1.3 -0.41,0.81 -0.84,0.28 -0.13,0.64 -0.73,0.89 0.28,1.32 -0.37,1.26 -1.15,0.88 -0.6,1.43 -0.84,0.4 -1.51,-1.56 -0.67,-0.07 0.84,-1.79 -1.4,-1.48 -0.54,0.26 -0.46,-0.35 -0.44,-0.77 2.09,-2.41 0.05,-2.87 -0.59,-1.02 -8.04,1.84 -0.87,-0.85 0.66,-3.01 -1.59,-0.56 0.19,-4.78 0.76,-2.16 -1.93,-1.3 -0.58,1.1 0.48,2.01 -0.95,0.02 -1.35,-0.53 -0.86,1.47 0.94,0.18 0.11,0.47 -0.9,0.67 -2.01,-0.42 -1.11,1.91 -0.29,0.02 -2.64,-1.12 -1.18,-1.14 -3.23,-0.02 0.37,-0.96 -0.89,-0.97 -0.98,0.38 -1.84,-1.69 -0.99,-0.34 -2.22,-0.12 -1.93,-2.7 -0.97,-0.59 -0.29,-0.9 -1.7,0.47 -0.91,-1.69 -0.14,-1.17 0.35,-2.65 1.12,-0.1 0.79,-0.47 -1.11,-1.35 -0.1,-1.4 -0.74,-1.51 0.12,-1.15 0.91,-0.55 -0.89,-1.33 1.05,-2.36 -0.74,-0.26 -1.33,-1.23 -0.29,-0.04 -0.37,0.62 -0.36,-0.99 -0.42,-0.24 -1.47,0.08 -0.43,-0.91 -2.53,0.17 -0.93,-0.08 -0.22,-0.3 -0.41,-3.45 0.3,-0.75 0.33,-0.11 -0.21,-8.58 -1.6,-0.09 0,0 0.16,-0.51 0.82,-0.55 0.05,-1.54 1.36,-0.08 0.13,-2.18 0.51,-0.61 -0.81,-0.63 0.08,-0.35 0.51,-0.17 0.03,-0.68 0.97,-0.59 0.17,-0.43 -1.09,-0.71 0.49,-0.39 0.38,-1.45 0.67,-0.26 0.56,-0.82 0.17,-0.89 -0.53,-0.320001 0.03,-0.53 1.09,-0.6 -0.92,-0.85 1.15,-2.25 -0.35,-0.46 0.6,-0.33 0.78,0.22 -0.33,-0.48 0.59,-1.45 1.51,-1.07 0.2,-1.2 0.78,-0.26 0.08,-1.03 0.55,0.43 0.78,-0.53 -0.22,0.78 0.57,0.32 0.46,-0.61 0.52,-0.18 0.54,0.29 1.65,-1.1 1.06,0.15 1.03,-0.24 0.43,0.54 0.47,-0.27 0.25,0.27 0.89,-0.17 0.32,0.46 1.21,0.32 0.69,-1.01 0.56,0.01 -0.19,0.5 1.09,0.86 -0.03,0.78 0.83,-0.28 1.57,1.53 0.56,-0.34 0.22,0.36 -0.21,0.25 0.47,0.28 0.2,0.56 0.52,-0.15 0.1,-0.35 0.33,0.87 0.86,0.33 0.4,-0.32 0.78,0.68 0.32,0.99 1.43,0.43 -0.35,0.4 0.12,0.35 0.58,0.03 0.25,0.74 0.88,0.2 0.78,1.35 0.75,0.29 0.87,-0.58 1,0.2 0.05,0.8 1.27,0.08 0.14,-0.7 1.81,0.06 0.57,-0.57 0.03,0.53 0.89,-0.24 1.81,2.270001 0.61,-0.04 -0.18,0.63 1.14,-0.21 0.03,0.59 1.33,0.85 1.32,-0.39 0.52,-0.44 5.39,2.41 0.91,0.12 1.18,-0.45 1.66,0.51 1.55,-0.44 1.2,0.09 0.38,-0.66 0.91,-0.7 0.95,-0.29 0.61,-0.84 0.91,-0.14 1.96,1.04 5.7,0.28 6.41,-4.150001 1.55,-3.37 -0.04,-0.98 1.19,-3.05 0.33,-2.36 0.82,-0.97 3.2,-8.93 0.55,-0.55 0.17,-1.69 -0.66,-1.42 0.08,-1.43 0.76,-0.03 0.93,-0.93 2.39,-0.08 z"
     title="North West"
     id="ZA-NW" />
  <path
     d="m 556.91954,789.15541 -1.31,2.61 -0.75,0.54 -1.57,-0.8 -1.36,0.49 -0.44,-0.34 -1.06,0.35 -0.76,-0.13 -0.74,-0.43 -0.5,-0.88 0.4,-0.71 0.04,-0.86 1.17,-1.15 0.2,0.12 0.11,-0.76 0.92,-0.9 2.99,0.5 1.07,0.57 0.97,1.56 0.62,0.22 z m 2.18,-9.03 -1.5,0.43 0.04,-0.48 -1.63,-1.44 1,-0.67 1.44,0.63 0.4,-0.1 0.59,0.86 -0.34,0.77 z m -374.32,-432.15 -1.25,0.77 -1.81,0.06 -0.91,0.41 -1.09,0.86 0.09,1.65 -0.27,0.21 -2.43,-0.15 -1.2,-0.42 -4.4,-0.05 -1.39,-0.43 -1.11,0.54 -1.15,-0.75 -3,-0.96 -0.75,-0.2 -0.27,0.19 -4.59,-1.16 -0.5,0 -2.05,1.76 -0.5,-0.09 -0.64,0.34 -3.13,-0.29 -2.16,0.2 -2.03,0.83 -0.93,1.01 -0.32,1.46 1.31,0.77 -1.25,0.53 -2.64,0.14 -2.1,1.12 -0.51,1.08 0.1,0.37 0.82,0.31 -1.01,0.55 -0.09,0.43 0.31,0.23 -0.72,0.16 -0.49,0.6 -1.46,0.55 -3.06,0.44 -4.12,-1.22 -2.39,0.36 -0.52,0.3 0.16,0.5 -0.38,-0.04 -0.55,0.64 -2.34,0.88 -4.56,-1.84 -3.32,-0.54 -2.49,0.23 -1.34,0.8 -0.06,0.39 0.53,0.87 -0.15,0.7 -0.48,0.46 -4.79,-0.81 -3.34,0.65 -1.42,0.6 -1.33,1.15 -0.7,1.46 -1.46,0.61 -0.43,0.6 -2.26,1.23 -0.25,1.16 -1.72,0.26 -2.13,1.19 -0.86,1.12 0.01,0.87 0.42,0.24 -0.18,0.26 -0.76,0.06 -0.43,0.57 -0.61,0.08 -0.89,-0.61 -0.55,0.02 -0.22,-0.53 -1.33,-1.02 -4.79,-0.13 -0.45,0.43 0.12,0.2 -1.01,0.28 -0.27,-0.27 0.35,-0.24 -0.23,-0.64 -0.61,0.11 -0.3,-0.86 -1.27,-0.57 -0.6,-1.24 -2.01,-0.58 -0.38,-0.99 -0.58,-0.51 -3.14,0.81 0.35,-0.6 0.65,-0.17 0.65,-1.6 0.64,-0.47 -0.63,-2.05 -1.19,-1.7 0.38,-0.29 0.72,0.45 0.27,-0.36 0.67,-0.1 -0.14,-0.14 -1.72,-0.03 -0.5,0.25 -0.63,-0.23 -1.33,0.94 -0.9,-0.49 -1.63,-0.17 -0.2,-0.36 0.3,-0.3 -0.7,-0.91 0.81,-0.47 -0.18,-0.15 0.39,-0.88 -0.53,0.17 -0.69,0.76 0.14,0.52 -1.53,-0.8 -1.1,0.16 -0.72,0.56 -1.46,-0.21 -0.37,0.56 -0.89,-0.13 -0.01,0.56 -0.61,-0.37 -0.3,0.35 -0.47,-1.26 0.55,-0.29 -0.48,-1.3 1,-0.99 0.12,-0.47 -0.98,-1.93 1.3,-0.99 -1.42,-1.78 -1.16,-0.63 -1.45,-0.26 -2.62,0.09 -3.04,0.75 -1.46,1.06 -0.34,1.67 0.81,0.4 0.57,1.29 -0.45,2.4 0.32,0.73 0.66,0.55 -0.62,0.03 -0.54,-0.68 -0.95,-0.46 -0.97,-1.88 -0.25,-2.1 -0.5,-0.58 -0.4,0.03 -0.45,-0.92 0.89,-0.77 -0.08,-1 0.48,-0.88 -0.14,-0.35 -0.35,-0.17 -0.27,0.48 -0.84,-0.73 0.62,-0.46 0.42,-1.16 0.62,-0.42 -0.04,-1.06 0.75,-1.25 0.81,-0.02 0.27,0.67 0.84,-0.39 0.41,-0.94 -0.06,-1.11 -1.01,-2.06 -0.23,-2.55 -1.05,-2.08 -0.56,-0.18 -0.47,-1.21 -1.3,-0.46 0.2,-1.76 -0.76,-1.63 -1.24,-1.37 -2.4,-1.78 0.39,-0.4 -0.04,-0.48 -1.61,-3 -2.3,-2.46 -1.02,-0.39 0.09,-0.5 -0.58,-0.47 0.17,-0.36 0.32,0.11 0.25,-0.98 0.41,0.11 0.49,0.79 -0.03,0.78 0.46,0.21 -0.18,0.5 0.73,0.33 1.01,1.44 0.46,0.03 0.41,-0.41 -0.03,-0.24 -0.32,0.27 -0.72,-0.53 0.2,-0.87 -1.57,-1.28 0.32,-1.64 -0.33,-0.77 -1,-0.86 -0.47,-0.03 -0.69,0.35 -0.2,0.98 -0.64,0.33 -0.55,-0.22 0.24,-0.85 -0.81,-0.74 0.3,-0.48 0.02,-0.5 -0.27,-0.07 0.32,-0.21 -0.01,-0.45 -0.19,-0.5 -0.48,-0.21 0.61,-1.5 -1,-1.18 1.56,-0.82 -0.19,-1.72 0.62,-0.52 0.01,-0.38 0.79,0.26 0.39,-0.7 0.46,0.1 -0.09,0.75 1.03,0.44 -0.13,0.28 1.07,1.04 1.91,-0.21 3.08,-3.07 1.49,-2.82 0.53,-1.72 0.24,-2.16 -0.56,-4.33 0.61,-0.07 0.22,-1.04 -1.14,-4.99 -0.09,-0.7 0.41,-0.3 0.01,-0.39 -1.28,-4.02 0.38,-1.29 -1.13,-2.25 -0.29,-2.21 -2.46,-3.89 -0.38,-1.2 -5.64,-7.02 -0.56,-0.91 0.04,-1.23 -0.37,-0.61 -1.85,-1.83 -1.05,-1.61 0,0 1.76,0.72 -0.5,-2.75 2.67,-2.44 -1.2,-2.28 3.02,-0.36 0.11,-3.79 1.77,-0.36 0.69,0.23 2.09,1.85 1.19,-0.98 1.19,-0.06 2.61,-4.5 0.5,-2.69 0.82,-1.63 -0.48,-1.83 3.21,3.81 -0.66,-2.11 -0.02,-1.86 1.93,-0.52 2.42,3.44 2.57,0.57 1.03,1.61 -0.38,1.13 2.08,1.83 2.35,0.28 0.41,3.9 -2.32,0.74 2.64,1.52 -1.79,1.43 -0.31,1.61 1.31,2.33 -0.25,3.29 0.64,1.56 1.48,0.55 -0.98,1.38 1.12,1.14 0.3,2.2 -0.76,1.46 1.77,0.55 -0.56,1.21 0.48,0.05 0.41,0.76 -0.44,0.37 0.08,1.89 -0.59,0.01 1.22,3.11 -0.36,0.28 0.16,0.95 -1.25,1.22 -0.05,1.83 1.54,0.12 1.26,0.83 0.69,-0.35 0.59,0.25 0.14,0.43 1.98,-1.93 -0.62,2.78 1.28,0.43 0.74,1.65 0.96,0.08 0.34,0.44 0.83,-0.34 0.97,1.11 1.07,0.23 -0.22,2.37 0.58,2.64 -2.52,1.43 0.37,2.23 0.64,0.6 1.39,2.63 -0.49,3.45 1.22,2.5 1.96,-1.27 0.12,-0.57 -0.84,-1.75 0.97,-1.75 -0.01,-1.62 0.59,-0.47 0.74,1.3 1.25,-0.51 -0.43,-0.84 0.76,-0.71 0.79,0.5 1.23,-0.84 0.06,-0.77 1.15,0.21 0.2,0.46 1.9,-0.31 2.55,-2.34 0.47,-1.45 1.11,0.03 0.55,-1.13 1.61,-1.15 0.76,0.49 -0.02,0.96 0.65,0.22 0.36,2.15 -0.66,-0.36 -1.67,1.68 0.19,0.87 -1.07,1.1 -1.15,-0.57 0.01,1.5 1.55,5.69 1.39,1.33 -0.05,2.75 2.48,1.04 1.05,1.75 0.79,0.31 0.1,1.38 0.9,-0.15 1.04,1.18 1.84,-0.17 1.67,-1.44 1.04,1.61 1.41,-0.45 1.75,0.2 0.4,-0.9 1.65,-0.68 0.61,-2.04 -0.22,-2.15 -0.5,-0.57 0.05,-0.78 1.09,-0.9 3.39,-0.93 1.02,0.57 3.99,-1.3 -0.46,-1.3 1.27,-3.41 1.18,-0.37 0.97,-0.88 0.48,-1.57 0.77,0.2 1.82,-0.69 0.59,0.33 1.13,-1.28 0.72,0.17 1.55,-0.63 -0.25,-2.49 1.98,-0.7 1.51,1.28 1.35,-1.36 0.93,0.42 0.07,0.6 2.29,0.92 1.77,-0.33 0.33,-1.25 1.74,-0.68 0.09,-2.75 1.62,-0.75 0.5,1.51 1.02,-2.22 -1.23,-1.3 0.38,-1.21 -0.71,-1.44 0.76,-0.7 -0.42,-1.57 2.3,1 0.15,-3.12 2.12,-4.02 0.34,-1.79 0.66,-0.43 4.59,2.64 1.98,0.41 0.06,1.01 1.18,0.63 -0.71,2.29 1.62,0.52 2.49,-0.47 0.94,1.43 1.98,-0.65 0.29,1 0.78,0.35 2.1,-0.64 2.3,1.04 -0.4,1.26 1.01,1.52 3.74,-3.3 -0.01,-0.84 0.92,-1.08 0.45,-1.9 1.48,-0.9 1.8,-0.1 0.22,-0.85 2.83,0.55 0.76,-0.39 0.64,0.05 0.54,-1.03 0.4,-0.16 0.66,0.33 2.61,-0.03 0.27,1.01 2.33,1.01 0.04,0.62 -0.89,0.69 1.13,0.37 0.5,1.28 0.77,-0.03 0.44,-1.08 0.94,-0.43 0.41,-1.93 2.15,-0.03 -0.45,0.62 1.1,2 2.18,-0.12 0,0 0.5,0.87 -0.55,0.02 0.14,0.86 -0.64,-0.08 -0.73,1.77 1.41,-0.25 1.04,0.79 -0.25,0.33 0.58,0.47 -1.15,1.72 -1.1,-0.26 -0.45,0.69 0.54,0.3 0.02,0.74 -1.01,0.08 0.09,1.12 0.79,0.07 -0.01,0.97 -1.17,0.95 -1.25,-0.17 0.12,0.75 -4.02,2.18 -1.18,-0.22 -0.45,-1.06 -1.52,-0.84 -0.42,0.57 -2.12,1.22 -0.58,1.63 0.69,0.77 -0.31,0.6 -5.54,-0.16 -1.1,1.55 -1.69,-0.75 -0.34,0.76 -2.7,1.39 0.61,1.11 -0.18,1.49 1.12,0.75 0.67,2.97 -0.45,0.51 -0.72,0.21 1.9,1.3 0.32,1.69 0.94,0.5 -0.18,1.78 -2.65,-0.83 -2.16,-0.31 -1.42,1.6 -1.61,-2.17 0.77,2.74 -0.35,0.56 -1.95,-0.06 -0.27,0.73 -1.41,1.32 0.34,1.38 -0.91,0.83 0.73,0.83 -0.2,1.55 -1.45,1.41 -0.96,2.38 -0.5,0.23 -1.59,2.94 -0.94,0.16 0.07,1.57 0.5,0.89 3.83,0.4 3.69,-0.96 0.43,0.4 1.59,-0.34 4.55,0.15 0.81,1.29 4.06,0.08 0.25,0.57 2.21,1.11 0.21,2.34 1.87,1.65 -0.14,1.19 -2.1,0.22 -0.73,-0.47 -0.58,0.99 -2.75,1.04 -0.04,1.08 -1.16,1.02 2.56,0.49 0.74,-0.66 1.23,0.18 0.09,1.44 3.68,1.38 -1.54,2.04 0.31,1.38 -1.82,-0.12 z"
     title="Western Cape"
     id="ZA-WC" />
</svg>
