<?xml version="1.0" encoding="UTF-8" standalone="no"?>
<!-- Created for MapSVG plugin: http://mapsvg.com -->
<svg
   xmlns:mapsvg="http://mapsvg.com"
   xmlns:dc="http://purl.org/dc/elements/1.1/"
   xmlns:rdf="http://www.w3.org/1999/02/22-rdf-syntax-ns#"
   xmlns:svg="http://www.w3.org/2000/svg"
   xmlns="http://www.w3.org/2000/svg"
   mapsvg:geoViewBox="-9.303180 43.793001 4.312512 31.732576"
   width="418.45123"
   height="468.63733">
  
  <path
     style="fill:none;stroke:#cccccc"  
     d="m 346.53737,357.75734 -172.74,0 -65.48,110.63 -4.01,0 65.48,-110.63 -150.14,0 0,-2.82 326.89,0 0,2.82 z"
     id="divider" />
  <path
     d="m 257.39737,204.29734 0.76,0.66 1.31,-0.15 0.83,1.51 3.06,-1.06 0.85,1 1.96,0.24 0.78,1.61 3.4,-2.21 -0.75,-0.95 -0.87,0.52 -0.75,-0.57 -0.37,-0.86 0.49,-0.41 3.24,-0.12 2.22,-1.41 0.61,0.21 2.19,-1.84 2.46,1.1 2.14,-1.33 0.39,1.14 2.38,-1.07 1.12,1.13 -0.11,-1.12 0,0 4.6,1.57 2.68,1.66 -0.31,1.19 1.11,0.35 0.2,1.25 -0.91,0.02 -3.31,2.44 -0.66,0.96 0.31,0.54 -1.07,-0.4 -2.34,0.89 -1.05,1.48 0.42,0.7 -1.47,1.55 -1.57,-0.52 -6.98,3.68 -0.8,1.19 -0.02,2.32 -1.31,-0.41 -2.33,2.86 0.32,3.46 -3.2,1.05 -0.93,2.44 -0.08,4.33 -1.52,1.17 -0.68,2.24 -0.96,0.52 -0.37,1.98 0,0 -2.08,-0.67 -2.15,-2.28 -3.99,-6.75 -0.19,-1.57 1.47,-2.42 0.65,-2.82 -0.66,-1.92 -2.93,-1.01 -0.3,-3.58 2.46,-2.29 -0.38,-0.99 0.76,-1.97 -0.75,-3.24 0,0 1.95,-0.05 1.43,-1.53 -1.4,-3.09 1,-0.35 z"
     title="Alicante"
     id="ES-A" />
  <path
     d="m 239.71737,179.31734 0.65,-0.19 0.33,1.25 0.63,-0.29 -0.07,1.49 1.25,-0.76 2.39,1.82 0.74,-0.36 4.52,1.29 -0.49,3.89 -2.29,4.17 -0.34,2.17 3.68,4.78 5.75,-0.59 1.07,2.07 -0.14,4.24 0,0 -0.99,0.35 1.4,3.09 -1.44,1.53 -1.95,0.05 0,0 -2.76,-2.14 -0.12,-1.08 -1.96,-0.65 -2.01,0.63 -2.87,2.38 -0.73,-1.05 -1.09,0.51 -1.4,1.64 -0.14,2.65 -1.07,0.72 -0.34,1.22 0.61,6.07 -3.4,2.54 -2.48,-0.04 -0.69,-0.98 0.15,-1.1 -1.71,-0.61 -1.61,0.43 0.36,0.55 -3.79,2.27 -2.41,0.63 -1.93,-0.94 -1.98,2.64 -3.06,1.41 -1.48,3.45 -2.1,1.85 -0.36,1.53 0,0 -2.51,-0.3 -3.92,-1.96 0,0 3.22,-3.92 0.3,-3.39 -1.49,-1.09 0.05,-3.8 -2.7,-0.63 0.15,-2.99 -0.8,-0.79 -2.46,0.55 -2.74,-1.41 0,0 0.47,-0.55 -0.52,-3.17 1.08,0.46 1.83,-1.29 0.95,-3.35 -1.82,-1.91 -1.07,0.06 -0.91,-3.86 -3.71,-2.28 1.55,-3.34 0.68,-0.02 0.15,-2.17 -1.15,-2.19 3.67,-5.14 -0.59,-2.1 0,0 3.78,-0.87 2.09,0.66 1.23,-0.74 4.2,4.32 0.73,-1.79 0.89,-0.22 1,2.25 3.69,-2.15 3.6,0.57 -1.39,-3.64 2.33,0.28 -0.26,0.54 1.2,1.75 3.15,-0.43 3.6,0.95 0.94,-1.6 z"
     title="Albacete"
     id="ES-AB" />
  <path
     d="m 218.15737,238.08734 1.1,1.08 1.5,-0.46 1.18,1.09 0.44,-0.47 2.94,0.62 -0.77,1.76 0.11,3.67 -0.51,1.05 1.1,3.17 4.04,6.32 1.11,0.82 -0.09,-0.69 2.3,0.34 3.28,2.61 0,0 -1.43,0.81 -3.89,5.01 -1.41,5.9 -1.59,3.13 0.17,1.51 -1.4,0.47 -0.81,1.44 -0.74,0.17 -0.32,2.19 -1.81,1.06 0.03,1.19 -1.4,0.53 -0.46,1.18 -2.16,0.49 -3.1,-3.86 -2.1,-0.79 -2,1.19 -1.7,-0.9 -2.58,0.76 -1.86,3.54 -2.26,1.48 -2.23,0.03 -1.43,-0.94 -0.92,0.44 -2.32,-2.17 -1.57,0.51 -4.69,-0.47 0,0 -0.36,-1.42 3.41,-2.16 -1.22,-2.72 1.15,-0.34 0.28,-1.13 1.4,-0.89 -1.63,-5.2 0.9,0.7 1.58,-0.06 0.6,-2.28 1.48,-1.19 1.1,-3.54 2.03,0.64 0.62,1.38 0.79,-0.41 2.24,0.97 -0.17,-2.8 0.92,-4.2 3.73,-3.28 1.74,-0.44 0.04,-0.71 3,-0.5 -1.01,-4.25 2.32,0.4 -0.23,-2.77 1.43,-3.2 -0.72,-0.5 0.16,-3.35 z"
     title="Almería"
     id="ES-AL" />
  <path
     d="m 128.64737,110.64734 4.14,-1.17 3.87,2.71 1.5,-0.38 0.04,-1.06 0.84,-0.57 1.97,-0.24 0,0 0.27,3.51 2.3,1.28 0.97,2.45 1.24,0.59 0.21,2.85 0.85,1.1 -0.84,0.77 0.39,0.57 1.61,-0.33 0.61,2.38 1.32,1.3 0.35,4.39 3.06,-0.56 0,0 1.91,-0.24 -0.54,-0.92 0,0 2.81,-0.88 0.72,0.33 0,0 -0.04,2.68 -2.48,0.85 -1.46,-1.03 0.01,2.55 -1.2,1.2 0.38,2.79 -0.74,1.45 0.6,0.74 -3.1,0.17 -1.03,3.47 -1.5,0.2 -0.68,-1.2 -0.61,0.11 0.53,1.98 -1.23,1.43 0.26,1.38 -0.56,0.21 0,0 -2.3,0.77 -1.01,-0.51 -0.35,-2.86 -1.93,0.86 -1.32,-0.57 -0.11,1.59 -3.59,2.62 -0.02,1.35 -0.95,0.11 0.05,0.49 -1.8,0.4 -0.16,-1.92 -1.58,0.41 -3.12,2.56 -0.93,0.08 -0.33,-0.96 -3.78,-0.36 0,0 -0.98,-1.93 -0.05,-2.17 0.81,-1.83 -2.66,0.47 -1.26,1.78 -1.84,0.53 -2.43,-0.83 -0.37,-1.22 -0.83,-0.15 -1.33,-1.7 -1.38,-0.08 0,0 1.98,-2.19 -0.56,-2.94 1.75,-1.55 2.25,-0.67 -0.42,1.32 1.45,0.88 0.53,-1.66 1.36,-0.09 1.23,-3.64 -0.38,-0.39 -2.66,1.03 0.26,-1.8 0.47,-0.48 0.04,0.63 1.59,0.08 1.99,-1.65 0.52,-1.13 -0.6,-0.92 5.25,-3.48 -0.14,-0.61 1.76,-1.66 -0.07,-2.2 1.48,-1.37 -0.37,-2.09 0.7,-0.25 0.46,-1.47 -1.93,-2.72 z"
     title="Avila"
     id="ES-AV" />
  <path
     d="m 342.44737,62.537342 1.86,-0.7 5.12,1.31 -1.63,2.43 0.41,0.7 0.71,-0.15 0.22,1.72 -1.71,0.65 0.08,-1.32 -1.29,-0.21 1.19,2.05 1.75,0.57 0.96,-0.36 1.03,1.29 0.58,-0.75 1.73,0.29 0.43,-0.73 1.69,-0.13 0.91,0.45 -0.14,1.3 2.18,-0.77 1.05,0.79 0.53,1.54 1.15,-0.54 1.1,0.44 0.26,2.71 -0.92,0.32 0.59,0.38 -0.42,0.63 -1.39,0.02 1.6,2.17 -1.16,1.15 -1.11,-0.32 -0.75,0.99 -0.4,-0.57 -1.28,0.1 0.72,3.01 2.62,0.29 2.42,1.66 0.97,1.76 3.39,-1.17 3.66,0.5 -0.58,2.31 0.59,1.17 0,0 -6.9,2.94 -5.25,3.42 -3.53,1.46 -4.7,6.929998 -14.35,3.81 0,0 -0.13,-1.61 -0.6,0.49 -1.22,-0.57 -0.35,-0.96 1.52,0.29 0.52,-1.72 -1.49,0.08 0.21,-0.62 -1.11,-1.38 0.59,-0.79 -1.26,-0.93 -0.84,-0.369998 -1.11,0.559998 0.53,-0.839998 -0.46,-1.14 0.62,-0.25 -0.82,-0.34 0.49,-1.26 -2.71,-1.55 0.38,-0.9 1.22,-0.09 -0.54,-0.76 0.72,-0.55 -1.89,-0.24 0,0 0.42,-1.04 -1.44,-0.53 2.78,-1.35 -2.09,-2.42 1.32,-1.11 -0.67,-0.51 0.43,-2.02 1.66,-0.26 -0.31,0.99 1.34,-0.46 0.8,1.45 1.28,-1.21 0.65,0.18 -0.14,-1.07 1.27,-2.25 -0.34,-0.93 -1.54,0.06 2.58,-2 -0.09,-2.09 0.77,-0.12 0.23,0.62 1.12,-0.7 -0.66,-1.24 -0.01,1.21 -1.52,-0.62 0.25,-0.85 0.31,0.72 1.03,-1.07 -0.21,-0.68 -0.63,0.21 0.08,-0.75 0.52,-1.15 0.94,-0.16 -0.72,-1.84 1.24,-1.68 -0.04,-0.53 -1.76,-0.7 0.73,-1.23 -0.43,-1.69 -0.61,-0.19 5.2,-1.08 z m 5.74,7.65 -0.68,0.58 -0.15,-0.75 0.83,0.17 z"
     title="Barcelona"
     id="ES-B" />
  <path
     d="m 142.05737,178.03734 0.56,1.02 -1.14,3.83 -1.67,0.27 1.62,4.38 1.82,1.78 -4.95,-1.37 -1.97,3.96 1.5,1.44 -0.22,0.64 -1.3,0.56 -2.68,-1.05 1.36,4 2.67,0.84 -0.51,2.1 -2.06,-0.21 -0.88,1.3 -1.42,4.49 -1.75,0.42 0,0 -1.65,0.84 -2.57,-0.47 0.51,1.49 -0.53,0.87 -0.7,-0.33 -0.21,0.75 -2.41,1.55 -0.5,1.24 -1.91,-0.24 -0.34,1.66 -0.74,-0.09 -0.37,1.2 -1.85,1.09 -0.16,0.83 -1.08,0.01 -1.48,1.16 -0.51,1.29 0.77,1.28 -0.49,1.48 1.52,2.55 0.15,2.21 -0.55,0.29 0,1.48 -1.4,1.17 0,0 -1.5,-0.25 -2.36,2.21 -0.75,-0.2 -0.18,-1.56 1.41,-0.93 -0.34,-0.74 0.66,0.48 -0.32,-1.14 -1.02,-0.43 -3.79,0.99 -2.3,2.63 0.54,1.61 -1.37,2.62 -4.96,0.53 -2,1.57 0,0 -0.64,-0.81 -3.14,-0.63 -1.51,-1.13 -0.45,-1.61 -1.43,-0.37 -1.18,0.1 -0.4,1.74 -3.59,-0.38 0.06,-1.24 -1.29,-1.72 -4.16,0.17 -0.36,-0.75 -1.41,-0.31 0.64,-2.27 -1.64,0.05 -2.56,-1.21 0,0 -0.15,-0.48 -2.27,0.62 -0.37,0.75 -1.34,-0.04 -0.58,0.67 -2.01,-4.15 -3.96,-5.6 -1.72,-0.63 1.14,-1.32 -0.06,-0.52 -0.64,0.18 0.21,-1.39 2.18,-4.31 -0.89,-0.56 0.4,-3.36 6.76,-5.5 -0.4,-1.66 3.1,-4.59 -0.91,-2.53 -1.45,-1.09 -2.37,0.64 -1.19,-0.37 0.29,-2.46 -3.28,-1.46 0.29,-2.79 0,0 0.87,0.52 1.59,-2.2 -0.79,-0.37 0.5,-1.19 1.31,-0.9 1.72,0.45 -0.5,0.82 -0.73,-0.15 0.66,1.66 1.14,-0.54 1.07,-2.43 -1.77,-1.02 0.54,-0.89 5.1,2.13 2.49,-0.26 0.15,1.77 1.55,0.91 -0.46,1.81 -1.2,1.44 1.02,2.01 2.66,0.44 0.65,-0.86 0.81,0.09 1.63,0.67 0.18,0.84 1.09,0.13 -0.05,-1.05 4.95,0.75 1.59,-0.94 0.98,3.49 1.98,0.32 0.85,1.32 1.51,0.11 0.36,0.87 3.79,-3.84 0.27,3.01 2.09,-2.21 0.52,1.01 2.79,-1.07 0.72,-1.35 1.7,0.48 1.99,1.94 2.65,-0.69 0.62,-0.69 -0.53,-0.64 0.75,-0.65 -1.13,-1.47 1.92,-1.09 0.69,0.96 0.42,-0.72 1.68,2.02 1.41,0.07 2.05,-3.25 0.22,-3.72 2.83,1.24 3.81,-1.37 0.3,-2 0.71,-0.14 1.13,1.12 2.13,-0.37 0.29,-0.87 0.69,-0.05 0,0 0.36,0 0,0 2.14,1.06 3.55,-1.88 0,0 z"
     title="Badajoz"
     id="ES-BA" />
  <path
     d="m 201.45737,14.537342 0.41,1.15 1.27,0.81 0.42,1.94 0.06,-1.93 1.18,-0.22 0.73,0.98 3.36,0.62 1.53,1.74 1.47,0.62 0,0 -0.75,0.91 0.57,1.32 -0.56,1.02 -1.88,0.98 0.4,2.04 -0.76,0.43 0.26,2.72 -1.4,0.35 0,0 -3.53,0.58 0.86,2.27 -4.18,-0.29 -2.89,-1.05 -0.93,0.23 -2.42,-2.05 1.14,-1.71 -1.36,-2.75 -0.82,0.22 -0.3,-0.26 -0.32,1.74 -1.47,0.63 -1.12,0.12 -0.92,-0.76 0,0 -0.49,-0.68 -2.05,0.32 -0.9,-1.19 -5.04,2.73 0,0 -0.95,-4.31 3.33,-1.76 0.24,-1 1.63,0.5 1.66,-0.79 0.48,1.07 1.6,-0.75 0.13,-2.18 0,0 1.06,0.43 0.46,-0.89 2.61,1.6 0.2,-0.86 -0.76,-1.12 2.04,-1.67 0.77,0.16 -0.04,-1.13 4.31,0.2 1.66,-1.08 z m -16.96,8.33 1.69,-0.04 -0.6,1.07 0,0 0.12,1.17 0,0 -1.01,-0.02 -0.2,-2.18 z"
     title="Vizcaya"
     id="ES-BI" />
  <path
     d="m 199.04737,42.387342 0.11,0.32 0,0 2.92,-0.42 2.7,1.24 1.27,-0.25 0.4,0.85 0.95,-0.52 -1.55,2.78 0.96,1.15 1.71,-0.66 0.14,1.57 -3.6,-0.06 -0.75,-1.02 -3.34,0.27 -0.51,-1.37 -2.58,-1.7 1.01,-2.35 0,0 0.16,0.17 z m -18.02,-14.26 5.04,-2.73 0.9,1.19 2.05,-0.32 0.49,0.68 0,0 -1.24,1.7 1.47,0.99 -0.74,0.97 0.55,0.29 -0.05,1.56 -1.1,0.33 3.61,0.77 0.6,1.42 1.82,1.28 -1.15,1.26 -2.17,0.4 -1.84,-0.76 0.15,-0.72 -2.45,-0.63 -1.78,3.1 2.37,2.01 -0.51,-0.47 0.97,-1.29 0.92,0.55 1.41,-1.37 0.06,1.18 -1.41,2.35 1.1,0.64 -0.76,1.36 3.02,-0.37 0.27,1.13 0.75,-0.08 1.1,1.53 1.54,-0.18 0.86,0.61 0.2,1.6 1.17,0.7 0,0 -1.78,0.78 -0.93,-0.82 -4.22,-0.06 0.75,2.14 -2.28,1.96 1.92,0.6 -0.7,1.64 1.49,1.78 -0.53,0.84 0.17,2.27 -0.63,-1.89 -0.71,-0.04 -0.09,1.3 0.6,0 0.65,1.21 -1.4,0.17 0.63,4.39 -1.25,1.91 2.92,4.68 3.17,-0.03 0.54,2.63 0,0 0,0 0,0 -1.13,1.19 -0.62,2.66 -1.14,0.29 -0.27,1.45 -2.47,0.24 -1.2,2.84 -1.08,0.78 -0.71,-1.47 -2.74,-2.25 0.26,4.72 -2.38,1.26 -0.17,1.82 -1.07,0.12 -2.02,4.13 -2.15,-0.94 -0.65,0.66 0.27,0.78 0,0 -3.99,0.7 -1.74,1.75 -0.34,2.73 -0.93,-0.38 0.06,-3.22 -1.1,0.5 0.49,1.67 -1.11,0.19 -2.17,-2.9 -2.64,-1.27 0,0 -0.77,-1.47 -0.9,-0.05 0.28,-2.94 -1.54,-1.38 1.09,-1.73 0,0 0.09,-0.88 -1.6,-1.68 0.04,-1.63 1.57,-0.09 1.75,-1.14 -0.02,-1.24 1.37,-1.08 1.36,-0.02 0.03,-1.61 -4.34,1.75 0.56,-1.83 1.34,-1.42 -0.35,-0.75 -1.74,-0.08 -1.25,0.68 -0.71,-2.07 0.78,0.18 0.65,-0.75 -1.99,-1.13 -0.65,0.36 -1.94,-0.62 0.52,-1.72 -1.31,-1.32 -1.27,-7.33 -1.5,0.24 -0.41,-1.66 0.55,-1.62 2.29,0.11 -0.14,-1.59 -1.2,-0.72 0.26,-1.36 -0.79,-0.44 -0.06,-0.64 1.06,-0.44 -0.67,-1.02 0.88,-0.5 -0.9,-3.03 0.81,-0.6 0.3,0.72 3.4,-2.66 1.12,0.76 0.87,-1.15 0,0 1.09,-0.21 0,0 1.42,-0.1 0,0 0.64,0.45 2.09,-0.43 0.51,-1.51 0.95,0.75 1.45,-1 -0.64,-2.84 -0.83,-0.46 -0.5,1.6 -1.08,-0.4 0.55,-0.81 -0.82,-0.37 0.96,0.08 -0.46,-1.13 1.2,0.65 1.08,-0.79 -0.18,-0.91 -1.47,-0.37 -0.12,0.97 -1.3,1.08 0.12,-0.63 -1.41,0.05 -0.55,-0.8 1.39,-3.13 1.11,-0.43 0.57,-1.08 1.28,0.03 0.53,-0.95 -0.47,-0.86 2.76,-0.03 0.03,-0.59 1.57,-0.72 1.65,-2.71 1.18,0.48 0.27,0.83 5.71,0.69 z m -19.88,40.32 0.11,1.32 -1.47,-0.48 -0.05,-0.63 1.41,-0.21 z"
     title="Burgos"
     id="ES-BU" />
  <path
     d="m 49.94737,0.3973425 0.84,0.68 -1.38,2.74 0,0 0.14,1.03 -0.51,-0.04 0.87,1.38 -1.36,1.41 0.54,1.57 -0.95,0.27 0.13,2.7699995 -1.09,2.66 -0.83,0.49 -0.48,1.54 -2.08,0.1 0.1,2.61 -1.82,2.11 0.78,0.7 -1.21,3.34 1.37,4.26 -0.8,0.86 1.07,4.87 -2.81,4.27 0,0 -1.42,0.73 -0.79,-0.87 -1.37,0.47 -2.07,-0.79 -1.14,0.66 0.32,0.86 -1.38,-0.53 -0.74,1.06 -1.1,-1.46 -0.32,0.61 -0.41,-0.39 0.23,1.94 -0.68,0.64 -1.16,-0.43 -0.45,1.46 -1.93,0.44 -2.66,-0.7 0.06,0.58 -1.39,0.15 -0.21,1.16 -1.36,-0.58 -2.04,0.95 -0.29,1.22 0,0 -0.62,1.1 -1.75,0.58 -0.65,-0.38 0.29,-0.75 -1.09,-0.08 -0.31,0.82 0.71,0.59 -0.62,0.22 0.04,0.85 -0.95,-0.16 0.43,-0.93 -0.82,-0.45 -0.89,1.59 0.29,0.77 -1.02,0.07 -1.14,0.88 0.23,0.84 -2,1.1 0.41,-1.75 -0.64,-0.7 -1.12,0.02 1.6,-2.72 0.2,-2.27 3.23,-3.65 1.14,0.13 0.15,-1.48 -0.56,-0.51 -0.1,1.1 -0.83,-0.13 -0.73,1.08 -0.64,-0.62 -0.03,0.66 -1.05,-0.16 -0.08,-0.86 -1.4,0.68 0.48,0.73 -1.33,1.34 -1.92,-2.72 1.24,-0.39 0.2,-0.78 -1.36,-1.64 0.74,-1.54 -1.07,-0.22 -0.36,-1.35 -0.52,-0.31 0.1,1.53 -1.37,-1.11 -0.04,0.64 -0.88,0.23 -0.37,1.68 -0.01,-1.24 -0.72,-0.49 1.13,-3.3 -1.18,-2.35 0.84,0.5 0.48,-1.98 2.78,-0.52 0,-1.92 -0.81,1.16 -0.66,-1.76 0.42,0.41 0.78,-1.53 0.51,0.35 0.63,-0.79 1.53,0.49 -0.11,0.43 0.96,-0.15 1.47,-2.09 0.44,0.73 0.5,-0.57 1.48,0.42 -0.56,-1.82 -1.24,-0.54 1.21,-0.82 0.69,0.49 0.68,-0.43 -0.08,-1.2 2,0.08 0.18,-1.09 1.63,1.74 2.23,0.64 3.27,-1.44 2.28,0.35 2.9,-2.83 0.91,0.57 0.28,-0.91 0.49,2.13 1.1,-0.34 0.31,-1.27 -0.54,-0.5 1.5,-0.65 2.95,3.31 -0.35,-2.73 1.04,-1.37 -1.55,-0.22 -0.2,0.54 -2.22,-1.17 1.91,-0.89 1.66,0.23 1.44,-2.21 -1.43,1.48 -1.56,-0.28 -0.46,0.73 -2.29,0.39 0.67,-1.65 -0.4,-0.66 1.18,-0.87 -0.88,-1.34 1.83,0.38 2.3,-2.7699995 0.84,0.32 2.07,-2.23 0.22,1.2 1.07,0.24 -0.65,-0.66 0.6,-0.38 -0.74,-0.13 0.44,-1.89 1.93,-0.01 1.5,-1.53 0.9,-0.09 0.47,-1.06 1.16,-0.22 -0.11,1.78 0.68,0.65 -0.84,-0.2 0.17,2.1 -0.77,0.09 1.52,0.05 -0.42,-1.58 1.62,0.46 -0.66,-0.56 1.09,-1.15 2.4,-0.83 0.73,-1.6 z"
     title="A Coruña"
     id="ES-C" />
  <path
     d="m 91.63737,277.23734 1.62,-0.46 0.75,0.65 3.02,0.33 1.57,1.07 6.55,0.57 0.45,-2.01 0.95,-0.78 3.94,-0.16 1.51,-2.16 1.52,1.36 0.93,-0.24 0.16,1.23 1.51,0.82 -0.37,-1.41 2.33,-2.05 -1.27,-1.9 0.43,-0.23 2.11,-0.21 0.21,1.3 -1.19,1.27 0.65,1.63 4.2,-3.9 2.06,3.68 2.84,-2.4 0,0 1.44,1.36 -0.45,0.34 0.72,2.07 -1.45,2.54 -1.11,0.57 -3.05,-2.32 -0.98,0.56 -1.2,1.92 1.53,1.69 -1.03,1.95 0.02,1.93 -1.69,1.55 -2.36,0.5 -0.15,1.17 -1.88,2.17 -2.24,-0.73 -0.51,0.35 0.11,1.12 2.58,0.55 0.96,-1.46 1.86,0.07 2.61,4.39 0.83,3.55 1.3,-0.45 0.78,0.99 0,0 -2.1,3.34 -0.56,2.58 -1.48,-0.98 -1.58,0.58 0.24,3.59 -5.33,2.29 -2.58,-2.22 -0.68,0.4 -2.04,-1.15 -0.67,0.38 -3.37,-3.94 -3.85,0.08 -1.6,-3.41 -1.74,-0.99 -5.06,-8.94 1.13,-0.18 1.33,2.82 1.65,-2.26 -2.06,0.6 -0.43,-0.86 0.82,0.11 -0.03,-2.32 -1.06,0.32 -1,-1.43 -2.74,-0.44 -1.56,-3.36 -0.13,-0.86 2.85,-2.19 0,0 -0.13,-2.23 0.64,-1.71 z"
     title="Cadiz"
     id="ES-CA" />
  <path
     d="m 75.24737,145.37734 0.94,0.92 2.42,0.35 1.14,-1.22 0.87,1.07 0.56,-0.83 2.6,-0.3 0.95,-0.8 -0.13,-1.53 0.74,-0.73 3,-1.03 0.6,-1.06 1.32,-0.04 0.96,-1.71 3.48,-1.76 2.25,1.19 0.33,0.84 0.95,-0.22 -0.41,0.84 1.98,0.97 -1.25,1.59 2.75,0.67 -0.01,0.95 1.47,1.08 1.58,0.48 1.01,-1.97 2.66,-1.06 0.13,2.66 1.71,-0.29 0,0 1.38,0.08 1.33,1.7 0.83,0.15 0.37,1.22 2.43,0.83 1.84,-0.53 1.26,-1.78 2.66,-0.47 -0.81,1.83 0.05,2.17 0.98,1.93 0,0 -1.01,0.63 0.12,4.64 -1.26,4.23 2.44,-0.57 1.3,1.12 -0.87,1.58 0.11,2.54 1.68,0.31 1.48,-1.79 1.2,-0.09 0.26,1.6 -0.47,0.35 1.1,1.43 -0.73,2.85 -1.38,1.82 7.8,8.01 0,0 -0.69,0.05 -0.29,0.87 -2.13,0.37 -1.13,-1.12 -0.71,0.14 -0.3,2 -3.81,1.37 -2.83,-1.24 -0.22,3.72 -2.05,3.25 -1.41,-0.07 -1.68,-2.02 -0.42,0.72 -0.69,-0.96 -1.92,1.09 1.13,1.47 -0.75,0.65 0.53,0.64 -0.62,0.69 -2.65,0.69 -1.99,-1.94 -1.7,-0.48 -0.72,1.35 -2.79,1.07 -0.52,-1.01 -2.09,2.21 -0.27,-3.01 -3.79,3.84 -0.36,-0.87 -1.51,-0.11 -0.85,-1.32 -1.98,-0.32 -0.98,-3.49 -1.59,0.94 -4.95,-0.75 0.05,1.05 -1.09,-0.13 -0.18,-0.84 -1.63,-0.67 -0.81,-0.09 -0.65,0.86 -2.66,-0.44 -1.02,-2.01 1.2,-1.44 0.46,-1.81 -1.55,-0.91 -0.15,-1.77 -2.49,0.26 -5.1,-2.13 -0.54,0.89 1.77,1.02 -1.07,2.43 -1.14,0.54 -0.66,-1.66 0.73,0.15 0.5,-0.82 -1.72,-0.45 -1.31,0.9 -0.5,1.19 0.79,0.37 -1.59,2.2 -0.87,-0.52 0,0 -2.4,-2.45 -0.38,-1.62 0.83,-3.04 -2.64,-1.29 -0.27,-1.52 -1.22,-0.19 -2.12,-2.19 -1.3,-2.94 6.38,0.91 2.53,-1.03 3.07,0.55 4.17,-0.69 1.19,-4.05 -0.32,-1.5 2.56,-2.42 -0.09,-2.11 1.31,-3.52 -2.36,-4.01 -2.21,-0.55 -0.53,-2.41 0.98,-1.96 z"
     title="Caceres"
     id="ES-CC" />
  <path
     d="m 36.17737,403.83734 -1.21,0.7 -1.67,2.53 -1.01,-0.15 -0.8,-1.19 -1.05,0.9 -0.91,-0.11 -1.65,-2.14 -3.73,-1.49 -1.54,-5.52 0.08,-3.63 -1.65,-2.81 1.01,-1.43 4.54,-0.79 3,2.73 2.28,1.05 0.73,2.41 3.18,3.14 0.9,0.15 0,-0.72 2.65,-2.16 0.63,0.91 -0.45,0.83 2.41,2.78 1.38,0.4 2.51,-1.6 1.07,0.19 0.55,-3.1 2.83,-1.8 0.44,-1.11 1.89,2.6 1.45,0.07 -0.21,2.59 -0.84,-0.09 -1.48,1.86 -1.89,0.73 -0.92,-0.29 -3.43,2 -4.04,-1.22 -2.71,3.42 z"
     title="Ceuta"
     id="ES-CE" />
  <path
     d="m 131.44737,248.70734 0.47,1.93 -2.02,-2.16 1.55,0.23 z m -0.41,-42.27 1.19,0.54 0.11,0.79 3.92,0.35 0.52,2.82 4.69,1.64 0.13,0.76 2.48,1.14 0.88,1.45 0.86,-0.17 1.61,1.04 1.85,2.47 5.65,2.09 0,0 0.96,0.22 -0.04,1.02 0.88,0.55 -0.19,2.13 0.63,0.36 1.06,3.61 -1.74,1.33 0.12,0.83 -1.16,1.05 0.36,0.61 -0.87,0.26 0.28,0.68 -0.68,-0.02 0.72,3.41 -0.85,5.35 2.46,0.69 -0.98,2.28 1.69,0.49 0.59,0.99 -1.95,1.62 0.21,0.66 1.45,0.48 2.33,3.8 1.18,0.23 -0.85,0.75 1.2,0.69 1.45,2.54 0,0 -2.61,-0.06 -2.21,2.37 -1.41,-0.41 -0.99,0.66 -0.58,4.08 -2.22,1.74 0,0 0.15,-0.77 -1.53,-0.43 -0.33,-2.36 -1.86,-0.02 -1.28,1 -0.18,0.94 -1.46,0.62 -1.93,0.08 -0.35,-1.76 -1.22,-0.03 0,0 -1.03,-3.28 -1,-0.65 -0.32,0.88 -1.6,0.26 -1.23,-1.14 0.22,-0.75 -1.07,-1.26 0.3,-0.93 -1.37,-0.12 -0.65,-2.38 -1.32,-0.85 0.53,-3.68 -1.3,0.67 0.62,-2.03 -1.41,-2.09 -1.47,-0.45 -0.76,0.41 -0.58,1.07 0.64,0.74 -0.84,-0.37 -0.32,-1.16 -0.66,0.06 0.67,1.4 -1.29,0.06 -0.82,-0.76 -5.57,3.66 -1.72,-2.33 0.63,-0.41 -0.56,-1.03 0.73,-0.55 0.4,0.77 1.12,-1.1 0.35,0.57 0.6,-0.29 -0.07,-2.9 -1.22,-0.77 0.16,-1.77 -2.15,-1.15 -0.02,-2.86 -2.38,-2.02 -0.07,-1.81 -2.74,-3.47 0,0 1.41,-1.16 0,-1.48 0.55,-0.29 -0.15,-2.21 -1.52,-2.55 0.49,-1.48 -0.76,-1.27 0.5,-1.29 1.49,-1.16 1.08,-0.01 0.15,-0.83 1.86,-1.09 0.36,-1.2 0.74,0.09 0.34,-1.66 1.91,0.24 0.5,-1.24 2.41,-1.54 0.21,-0.76 0.71,0.33 0.53,-0.87 -0.51,-1.49 2.57,0.47 1.56,-0.92 z"
     title="Cordoba"
     id="ES-CO" />
  <path
     d="m 134.29737,180.22734 1,-3.9 1.38,-2.47 3.43,2.17 -0.12,3.39 0,0 -3.55,1.88 -2.14,-1.07 z m 7.76,-2.19 2.13,-0.16 -0.01,-1.2 1.55,-0.5 0.21,-1.44 0.56,-0.41 0.36,0.49 0.18,-1.18 1.33,0.9 -0.89,0.66 1.52,1.73 0.55,-1.76 2.04,1.08 4.15,0.72 1.5,-0.69 1.06,-3.22 1.05,0.52 2.54,-0.47 0.36,2.12 -0.91,0.01 -0.26,2.57 -1.53,0.01 -0.92,3.72 0.85,0.01 0.49,0.85 0.95,-0.96 3.1,0.52 0.21,2.13 3.32,1.57 1.98,-1.33 2.16,0.89 1.3,-1.13 4.53,-0.23 1.71,-1.54 0.2,-1.15 1.85,-1.28 3.1,0.22 -0.2,-1.37 0.66,-1.47 3.35,-0.13 0.02,-0.55 1.26,-0.3 2.27,1.79 1.44,-0.27 0.71,0.61 1.31,-0.22 0.78,-0.96 0,0 1.88,3.18 -0.7,1.28 1.46,0.37 1.61,-1.91 0.52,0.12 1.04,3.03 0,0 0.59,2.11 -3.67,5.14 1.16,2.19 -0.15,2.17 -0.68,0.02 -1.55,3.33 3.71,2.28 0.91,3.86 1.07,-0.06 1.83,1.91 -0.95,3.34 -1.83,1.29 -1.08,-0.46 0.52,3.17 -0.47,0.55 0,0 -3.66,3.13 -0.74,-0.67 -1.77,-0.06 -0.92,0.83 -0.28,1.63 -1.92,-2.73 -2,1.54 -4.6,-0.84 -1.43,-0.85 -1.49,0.27 -0.05,1.39 -2.35,1.54 -2.31,-0.33 -0.43,-1.45 -1.25,-0.22 -0.47,2.07 -5.75,-1.04 -1.36,0.49 -0.74,1.47 -1.79,0.24 -7.47,-0.48 -3.05,-0.8 -0.64,0.43 0.24,1.7 0,0 -5.65,-2.09 -1.85,-2.46 -1.61,-1.04 -0.86,0.17 -0.88,-1.45 -2.48,-1.14 -0.13,-0.76 -4.69,-1.64 -0.52,-2.82 -3.92,-0.35 -0.1,-0.79 -1.19,-0.54 0,0 1.75,-0.42 1.43,-4.49 0.88,-1.3 2.06,0.21 0.51,-2.1 -2.67,-0.84 -1.36,-4 2.68,1.05 1.3,-0.56 0.21,-0.64 -1.49,-1.44 1.97,-3.96 4.95,1.36 -1.82,-1.77 -1.62,-4.38 1.67,-0.27 1.14,-3.83 -0.62,-1.08 z"
     title="Ciudad Real"
     id="ES-CR" />
  <path
     d="m 261.42737,160.93734 -1.31,-1.75 0.08,-2.06 1.84,-0.87 0.74,-1.93 2.17,0.1 2.13,-1.03 -0.46,-1.28 1.54,-1.44 1.05,-4.55 1.52,0.92 2.04,-0.6 1.36,-0.84 -0.2,-1.63 0.73,0.02 0.79,-1.4 1.79,-1.01 -1.99,-3.16 2.29,-1.19 -0.89,-1.7 0.26,-3.83 -2.37,-0.1 -0.23,-2.17 1.51,-0.52 0.67,0.84 2.18,-1.27 0.37,-2.54 0.82,-1.22 0.99,-0.17 3.08,2.47 2.47,-0.04 0.81,1.51 0.94,-0.94 3.01,-0.75 0,0 1.7,-0.01 0.3,1.25 1.72,0.55 -0.72,1.17 0.32,1.19 0,0 3.78,1.11 0,0 1.29,0.97 -0.18,1.25 2.37,0.97 0,0 -3.55,6.64 -3.45,4.19 -0.7,1.81 -2.22,1.46 -1.36,3.59 -3,1.86 -1.7,4.81 -2.51,2.36 -3.09,5.3 0,0 -2.21,-0.87 -2.06,-2.28 -1.52,0.06 -0.51,1.58 -1.89,1.81 -2.28,-3.23 -1.43,0.91 -0.34,1.25 -1.31,-0.18 -0.65,-0.31 -0.12,-3.26 -1.07,-0.66 -1.21,1.49 -2.13,-2.65 z"
     title="Castellón"
     id="ES-CS" />
  <path
     d="m 191.76737,149.90734 0.12,-0.43 1.45,0.63 0.32,-2.24 2.86,2.05 1.21,-0.66 0.32,-1.06 1.28,-0.2 0.58,-2.36 -0.44,-4 1.1,-3.22 1.78,1.89 0.17,-0.92 0.82,1 0.31,-0.31 -0.72,-0.79 0.87,-1.03 0.38,0.48 2.39,-0.56 2.15,1.04 0.33,-0.98 -1.22,-1.05 0.53,-2.8 0.96,1.43 2.14,-1.28 0.44,0.6 0.98,-0.72 -1.12,-1.49 0.12,-0.86 1.22,-0.21 0.9,1.52 1.4,-0.14 0.71,-2.89 1.87,1.03 1.33,-0.43 0.41,-1.16 0.71,0.11 4.55,2.84 0.63,-1.05 1.18,0.7 2.15,6.64 1.54,1.23 0,0 3.33,3.09 -0.96,0.72 0.3,1.05 0.89,-1.31 4.6,4.76 0.9,-0.51 1.12,0.74 1.09,-0.47 -0.3,2.06 0,0 -0.23,0.58 1.49,1.18 -0.38,0.31 1.33,3.08 3.95,0.85 2.54,-0.6 0,0 0.7,1.53 0,0 -2.02,1.12 0.26,3.36 -0.47,2.02 -1.85,2.85 0.41,1.51 -0.54,0.84 -1.02,0.29 -1.71,-0.76 -1.51,1.38 -1.36,3.11 -1.29,0.5 -0.51,5.25 0.75,0.1 -0.27,0.43 0,0 -7.18,3.83 -0.94,1.6 -3.6,-0.95 -3.15,0.43 -1.2,-1.75 0.26,-0.54 -2.33,-0.28 1.39,3.64 -3.6,-0.57 -3.69,2.15 -1,-2.25 -0.89,0.22 -0.73,1.79 -4.2,-4.32 -1.23,0.74 -2.09,-0.66 -3.78,0.87 0,0 -1.04,-3.03 -0.52,-0.12 -1.61,1.92 -1.46,-0.38 0.71,-1.28 -1.88,-3.18 0,0 0.71,-6.77 -2.75,-3.04 -2.41,-5.44 -1.56,-0.76 0.92,-2.34 0.02,-2.13 -1.41,0.08 -0.58,-3.2 0,0 1.33,0.13 1.76,-1.14 0.13,-0.91 -1.24,-1.17 0.26,-0.82 z"
     title="Cuenca"
     id="ES-CU" />
  <path
     d="m 272.62737,424.13734 0.55,0.56 -0.48,1.3 -0.33,-0.62 0.23,2.96 1.45,1.8 -0.24,2.01 0.71,0.65 -0.81,0.16 -0.02,2.42 -0.9,0.38 -0.56,1.61 -3.89,1.25 -0.36,0.94 -3.16,-0.43 -3.5,-2.96 -1.34,-2.59 0.27,-3.62 3.32,-2.22 0.2,-3.05 2.18,-0.22 1.18,0.97 2.23,-0.39 1.81,1.03 0.91,-0.38 -0.2,-1.01 0.75,-0.55 z m 47.02,-19.99 1.42,1.04 0.32,1.15 0.19,4.94 -1.33,2.51 0.55,2.79 -2.06,5.13 -2.93,1.57 -6.35,1.44 -3.44,4.14 -4.46,-1.08 -1.06,0.36 0.59,-1.55 1.28,0.36 2.47,-0.56 4.48,-3.38 0.56,-3.94 1.26,-1.36 0.51,-2.51 1.5,-1.37 1.99,-3.96 0.78,-2.81 -0.28,-1.44 4.01,-1.47 z m 12.81,-16.89 1.43,1.14 0.13,0.85 -1.4,1.98 0.54,1.37 -1.18,3.39 -1.81,1.41 -5.88,1.58 -1.52,2.38 -0.47,-0.69 -2.24,0.11 -0.26,-1.1 1.62,-1.53 0.39,-3.6 1.88,-1.57 1.48,-0.04 1.51,-1.6 0.84,0.29 1.06,-0.69 1.59,0.59 2.29,-4.27 z"
     title="Las Palmas"
     id="ES-GC" />
  <path
     d="m 348.18737,70.187342 -0.68,0.58 -0.15,-0.75 0.83,0.17 z m -1.23,-13.47 -1.01,-0.44 0.63,-1.52 1.15,1.7 -0.77,0.26 z m -7.01,-1.71 1.92,0.08 2.07,1.6 1.41,-0.27 0.85,2.98 1.56,1.46 2.11,-0.61 1.37,-2.14 2.4,-0.14 1.52,-0.89 5.43,1.88 1.53,2.21 1.32,0.27 1.38,-1.04 3.08,0.74 -0.6,-1.92 0.59,0.01 0.02,-0.7 1.9,-0.87 2.01,0.27 1.25,-1.7 2.41,0.13 0.88,-1.09 0.63,0.7 2.03,-0.38 1.6,2.03 2.71,-0.4 -0.33,3.11 4.82,1.61 -0.92,0.62 -0.26,2.17 -0.86,0.06 0.33,0.64 -1.11,-0.58 -0.32,0.79 -1.69,-1.35 -1.56,2.23 0.37,3.43 1.62,0.68 1.1,1.75 -0.58,1.85 0.51,2.13 0.73,0.42 -0.95,2.89 -2.22,2.08 -0.91,-0.12 -1.36,2.37 -2.42,1.18 -1.31,1.76 -3.18,0.85 -1.66,1.77 0,0 -0.59,-1.17 0.58,-2.31 -3.66,-0.5 -3.38,1.17 -0.97,-1.76 -2.42,-1.66 -2.62,-0.29 -0.72,-3.01 1.28,-0.1 0.4,0.57 0.75,-0.99 1.11,0.32 1.16,-1.15 -1.6,-2.17 1.39,-0.02 0.42,-0.63 -0.59,-0.38 0.93,-0.32 -0.26,-2.71 -1.1,-0.44 -1.15,0.54 -0.52,-1.54 -1.05,-0.79 -2.18,0.77 0.14,-1.3 -0.91,-0.45 -1.68,0.13 -0.43,0.73 -1.73,-0.29 -0.58,0.75 -1.03,-1.29 -0.96,0.36 -1.75,-0.57 -1.19,-2.04 1.29,0.21 -0.08,1.32 1.71,-0.65 -0.22,-1.72 -0.71,0.15 -0.41,-0.69 1.63,-2.43 -5.12,-1.31 -1.86,0.7 0,0 -0.23,-2.03 0.61,-0.58 -0.77,-0.49 -0.73,0.47 -0.14,-2.27 -2.14,-0.64 -0.03,-2.16 0,0 0.89,0.11 z"
     title="Girona"
     id="ES-GI" />
  <path
     d="m 207.61737,231.58734 3.92,1.96 2.51,0.3 0,0 4.11,4.24 0,0 -2.67,1.56 -0.16,3.35 0.72,0.5 -1.43,3.2 0.23,2.77 -2.32,-0.4 1.01,4.25 -3,0.5 -0.04,0.71 -1.74,0.44 -3.73,3.28 -0.92,4.2 0.17,2.8 -2.24,-0.97 -0.79,0.41 -0.62,-1.38 -2.03,-0.64 -1.1,3.54 -1.48,1.19 -0.6,2.28 -1.58,0.06 -0.9,-0.7 1.63,5.2 -1.4,0.89 -0.28,1.13 -1.15,0.34 1.22,2.72 -3.41,2.16 0.36,1.42 0,0 -6.43,0.46 -2.52,1.71 -1.9,-0.12 -1.01,-1.03 -1.2,0.35 -1.49,-1.12 -1.7,-0.08 -2.16,1.04 -1.5,-0.69 0,0 0.28,-2.48 -1.81,-2.04 -1.24,0.18 -1.9,-1.23 -3.62,-0.79 -1.61,-1.88 -2.05,-0.16 -1.98,-2.29 -1.27,0.07 -0.44,-4 -1.25,-2.49 0,0 2.22,-1.73 0.58,-4.08 1,-0.66 1.4,0.41 2.22,-2.36 2.61,0.06 0,0 1.53,0.91 3.37,-0.3 1.71,-4.03 0.28,0.56 4.58,-2.01 3.7,-3.42 3.29,2.05 3.14,-0.92 1.06,-1.98 1.43,-0.19 1.34,0.05 2.47,1.79 1.23,-0.84 2.25,0.6 0.01,-1.2 2.88,-1.83 -0.54,-0.31 -0.07,-2.39 0.73,-0.34 2.92,-6.08 1.91,-1.76 0.87,-0.46 0.73,0.51 1.99,-1.41 -0.02,-2.49 z"
     title="Granada"
     id="ES-GR" />
  <path
     d="m 182.62737,130.56734 -0.17,0.58 0,0 -0.34,-0.19 0,0 0.51,-0.39 z m 4.86,-26.92 4.46,1.25 3.43,-0.78 1.33,-1.42 1.16,0.43 0.06,1.73 1.37,0.73 1.43,0.27 0.45,-0.97 1.36,-0.07 0.22,0.96 1.95,0.48 0.52,1.02 1.22,-0.38 -0.11,0.96 -0.89,0.53 1.35,0.35 -0.55,1.13 0.63,0.49 1.2,-0.94 0.85,1.77 0.87,0.21 0.34,1.44 1.55,0.83 1.95,-1.17 0.98,1.21 1.84,-0.45 0.96,-1.19 1.74,0.54 1.33,-1.39 2.31,1.96 0.15,-3.13 0,0 2.84,-1.04 0.82,1.38 3.99,2 5.68,5.89 0,0 -0.09,2.6 2.39,2.76 0.07,2.04 -0.68,0.85 0.81,2.13 -0.9,2.91 0.59,0.79 -1.63,1.33 -2.43,-1.16 -0.73,2.12 0.29,2.07 -1.72,0.96 -1.77,2.6 0,0 -1.54,-1.23 -2.15,-6.65 -1.17,-0.69 -0.63,1.04 -4.55,-2.84 -0.71,-0.11 -0.41,1.16 -1.33,0.43 -1.86,-1.03 -0.71,2.9 -1.4,0.14 -0.89,-1.52 -1.22,0.2 -0.12,0.87 1.12,1.49 -0.98,0.72 -0.44,-0.6 -2.14,1.28 -0.96,-1.43 -0.53,2.8 1.23,1.04 -0.33,0.98 -2.15,-1.04 -2.39,0.56 -0.38,-0.48 -0.86,1.02 0.71,0.8 -0.3,0.3 -0.82,-0.99 -0.17,0.91 -1.78,-1.89 -1.1,3.23 0.44,4 -0.58,2.36 -1.28,0.2 -0.33,1.06 -1.21,0.66 -2.85,-2.05 -0.32,2.24 -1.45,-0.63 -0.12,0.43 0,0 -1.28,-5.11 -1.95,2.05 -0.69,-0.55 2,-6.31 -0.78,-1.37 -1.31,-0.12 -0.06,-2.91 -1.51,-1.17 -1.45,0.26 0.42,-1.37 -1.44,-1.04 -0.22,-1.13 0.62,-1.16 -0.66,0.71 -1.67,-2.26 -0.36,0.91 -1.92,-0.79 1.02,-1.65 -0.52,-0.29 0.23,-0.92 -0.69,-0.95 -1.37,-0.18 1.05,-1.52 0.1,-1.54 0.99,-0.47 -0.59,-1.3 0.48,0.01 0.81,-3.21 0.72,-0.51 -1.34,-1.72 0.38,-1.65 -1.91,-0.43 -1.59,-2.88 0,0 2.24,-0.74 0.7,-1.3 1.28,0.07 -0.22,-1.91 2.25,0.31 2,-0.9 0.5,0.71 1.41,-1.94 z"
     title="Guadalajara"
     id="ES-GU" />
  <path
     d="m 71.64737,265.12734 1.03,1.97 -2.63,-1.61 -7.39,0.12 -3.03,1.17 -0.92,-0.21 -0.92,-2.78 0.37,-0.91 -0.63,-1.44 0.05,-3.06 -0.68,-0.69 0.53,-0.4 -0.56,-2.61 -1.81,-2.64 0.58,-1.89 1.85,-2.31 0.68,-3.64 2.98,-2.2 1.25,-2.05 1.08,-3.32 -0.43,-0.98 1.85,-0.91 0.89,0.41 1.62,-0.46 -0.23,-0.96 0.91,-0.56 1.59,1.15 1.37,-0.31 0.44,-3.09 1.09,-1.97 -0.52,-0.53 1.15,-1.63 0,0 2.55,1.21 1.64,-0.05 -0.64,2.27 1.41,0.32 0.35,0.75 4.17,-0.17 1.29,1.72 -0.05,1.24 3.59,0.38 0.4,-1.74 1.18,-0.1 1.43,0.37 0.45,1.61 1.51,1.13 3.13,0.63 0.65,0.81 0,0 0.34,1.23 0.75,-0.42 0.61,0.6 -1.2,1.63 1.29,1.77 -0.37,1.13 -1.65,-0.85 -0.85,0.72 -0.2,1.99 -0.93,-0.12 0.01,-0.78 -1.81,-0.07 -4.27,1.78 -0.72,-0.25 -0.88,2.26 -1.04,0.61 0.25,1.36 4.08,0.19 0.08,2.2 2.63,4.58 -0.18,0.63 -1.34,0.25 -0.18,1.4 0.49,0.39 -1.18,1.09 1.58,1.48 -0.82,2.34 0.73,2.63 -0.72,1.2 0.53,0.59 -1.35,1.86 0.99,3.38 -0.76,1.97 1.47,1.37 0,0 -0.68,1.67 0.13,2.23 0,0 -1.48,-0.5 -1.54,-3.66 -2.23,-2.72 -10.89,-6.58 -2.4,-2.68 -0.91,0.06 z"
     title="Huelva"
     id="ES-H" />
  <path
     d="m 258.25737,44.437342 0.01,-0.74 0.84,0.07 0.79,-1.13 -0.28,-2.54 1.17,-0.93 -0.02,-1.31 1.1,-0.88 1.71,0.1 0,0 -0.01,1.12 1.88,0.67 1.99,1.88 0.04,1.2 0.96,-0.18 0.03,1.06 1.18,-0.42 0.75,-1.49 1.85,1.3 1.61,-0.17 2.44,-1.97 3.79,2.51 0.91,-0.45 1.65,3.21 1.15,0.09 0.22,1 1.44,0.41 5.86,-2.15 2.55,0.84 1.09,1.79 2.01,-2.1 1.89,1.4 4.76,-0.15 0.61,-0.49 1.93,0.61 0,0 1.48,2.9 1.82,0.41 -0.55,3.17 -0.86,0.4 0.55,0.83 -1.5,0.73 1.7,4.26 -0.7,0.79 1.48,0.62 -0.95,0.57 0.74,0.6 -1.9,5.47 0.35,1.1 -1.91,5.65 0.17,1.01 -2.93,2.61 1.4,0.78 -0.45,1.43 0.44,0.5 -0.83,0.88 -0.7,-0.14 -0.46,1.39 -1.81,0.77 -0.42,1.47 -2.18,0.32 -0.1,1.06 -0.33,-0.34 -1.73,2.43 0.91,2.02 -0.25,1.32 2.42,-0.12 0.56,2.45 -1.5,2.08 -1.72,0.3 0.41,1.32 -0.62,1.77 0,0 -2.76,-0.83 -0.8,1.02 -1.17,0.37 -0.5,-0.5 -2.19,2.309998 -2.56,-0.42 -1.04,-1.489998 0.49,1.999998 -1.27,-0.51 -0.71,-0.68 -0.99,-4.419998 -1.59,-2.03 0.01,-2.24 -1.52,-0.5 -1.23,1.17 -2.04,-2.06 -1.53,-0.56 -0.37,-2.06 -3.53,-1.79 -0.92,0.1 0.57,-1.31 -0.49,-3.09 -1.18,-1.42 -1.48,-0.47 0.26,-0.67 -1.08,-0.55 -0.85,-1.85 -3.69,0 -3.28,-1.9 2.46,-3.82 0.31,1.7 0.98,-0.53 0.47,-3.62 -0.36,-4.45 0.93,-1.41 -0.23,-2.98 -1.27,-0.89 0.17,1.9 -1.25,3.35 -1.96,-0.71 -0.38,1.69 -0.88,-0.61 2.26,-5.33 0.89,-0.44 -2.77,-1.72 0.85,-1.04 -0.46,-2 -1.25,0.16 1.13,-1.41 -0.08,-0.83 -0.59,0.19 -0.48,-0.72 0.9,-1.17 -0.7,-2.3 1.06,-0.25 0.4,-1.08 -1.3,-0.52 z"
     title="Huesca"
     id="ES-HU" />
  <path
     d="m 201.14737,214.11734 2.74,1.41 2.46,-0.55 0.8,0.79 -0.15,2.99 2.7,0.63 -0.05,3.8 1.49,1.09 -0.3,3.39 -3.22,3.92 0,0 -1.69,0.87 0.02,2.49 -1.99,1.41 -0.73,-0.51 -0.87,0.46 -1.91,1.76 -2.92,6.08 -0.73,0.34 0.07,2.39 0.54,0.31 -2.88,1.83 -0.01,1.2 -2.25,-0.6 -1.23,0.84 -2.47,-1.79 -1.34,-0.05 -1.43,0.19 -1.06,1.98 -3.14,0.92 -3.29,-2.05 -3.7,3.42 -4.58,2.01 -0.28,-0.56 -1.71,4.03 -3.37,0.3 -1.53,-0.91 0,0 -1.45,-2.54 -1.2,-0.69 0.84,-0.75 -1.17,-0.23 -2.33,-3.8 -1.45,-0.48 -0.21,-0.66 1.95,-1.62 -0.58,-0.98 -1.69,-0.5 0.98,-2.27 -2.46,-0.69 0.85,-5.35 -0.72,-3.42 0.69,0.03 -0.28,-0.68 0.87,-0.26 -0.36,-0.61 1.17,-1.05 -0.12,-0.83 1.74,-1.33 -1.06,-3.61 -0.63,-0.35 0.2,-2.14 -0.88,-0.54 0.04,-1.02 -0.96,-0.22 0,0 -0.24,-1.7 0.64,-0.43 3.06,0.8 7.47,0.48 1.79,-0.24 0.74,-1.47 1.37,-0.48 5.74,1.04 0.47,-2.06 1.25,0.22 0.43,1.45 2.31,0.33 2.34,-1.54 0.05,-1.39 1.49,-0.27 1.43,0.85 4.6,0.84 2,-1.54 1.91,2.73 0.28,-1.63 0.92,-0.83 1.77,0.06 0.75,0.67 z"
     title="Jaén"
     id="ES-J" />
  <path
     d="m 307.82737,39.567342 4.41,1.41 2.09,1.51 1.05,-0.65 0.73,0.8 2.86,-0.07 2.85,3.32 1.82,-0.85 0.67,0.57 3.26,-0.24 -0.11,0.85 1.08,0.55 1.61,3.64 -0.45,0.67 0.53,0.68 -0.95,1.29 0.92,-0.29 0.78,1.32 -1.54,1.12 0.67,0.35 0.28,1.55 3.15,0.19 0.26,-1.05 0.6,0.36 0.52,-0.73 1.84,-0.05 0.4,-1.47 1.02,0.6 0.7,-0.63 0.14,0.52 0,0 0.03,2.16 2.14,0.64 0.14,2.27 0.73,-0.47 0.77,0.49 -0.61,0.58 0.23,2.03 0,0 -5.29,1.02 0.61,0.19 0.43,1.69 -0.73,1.23 1.76,0.7 0.04,0.53 -1.24,1.68 0.72,1.84 -0.94,0.17 -0.52,1.15 -0.07,0.75 0.63,-0.21 0.22,0.68 -1.03,1.07 -0.31,-0.72 -0.25,0.85 1.52,0.62 0.01,-1.21 0.66,1.24 -1.12,0.7 -0.23,-0.62 -0.77,0.12 0.09,2.09 -2.58,2 1.54,-0.06 0.34,0.93 -1.27,2.25 0.14,1.07 -0.64,-0.17 -1.28,1.21 -0.79,-1.45 -1.34,0.46 0.31,-0.99 -1.66,0.26 -0.43,2.02 0.67,0.51 -1.32,1.11 2.09,2.42 -2.78,1.35 1.44,0.53 -0.42,1.04 0,0 0.33,0.69 -5.63,-0.47 -0.28,0.86 -1.41,0.58 0.5,1.89 -2.11,0.86 -2.22,-1.39 -0.07,0.86 1.16,0.82 -1.48,2.04 -1.39,0.719998 -0.53,1.5 -3.1,0.71 -0.57,-0.97 -0.77,1.35 -1.79,-0.2 -0.3,0.65 -3.79,1.09 -0.96,-0.1 -1.3,-1.35 -0.9,1.49 -0.67,0.02 -1.29,-1.84 -0.81,0.58 -0.05,1.81 -1.46,-0.11 0,0 -1.14,-2.07 0.77,-0.84 -1.65,-1.809998 0.46,-0.54 0,0 0.63,-1.77 -0.41,-1.31 1.71,-0.3 1.51,-2.08 -0.56,-2.46 -2.42,0.12 0.26,-1.32 -0.91,-2.02 1.73,-2.43 0.33,0.34 0.1,-1.06 2.18,-0.32 0.42,-1.47 1.82,-0.78 0.46,-1.39 0.7,0.14 0.84,-0.88 -0.44,-0.5 0.45,-1.43 -1.4,-0.78 2.93,-2.61 -0.17,-1.01 1.91,-5.65 -0.35,-1.1 1.9,-5.47 -0.74,-0.59 0.95,-0.57 -1.47,-0.62 0.7,-0.79 -1.71,-4.26 1.44,-0.74 -0.55,-0.83 0.86,-0.41 0.55,-3.17 -1.81,-0.41 -1.48,-2.9 0,0 0.67,-0.75 -0.57,-1.69 -0.74,-0.21 0.89,-0.83 -0.72,-0.35 0.81,-0.95 -0.39,-1.29 1.71,-0.95 z"
     title="Lleida"
     id="ES-L" />
  <path
     d="m 137.35737,26.137342 -0.32,2.3 2.61,2.15 0.01,0.79 0.68,-0.04 0.22,1.48 0,0 -1.77,1.44 -0.44,2.35 -1.73,2.91 -1.09,0.13 0.16,3.01 -1.24,1.7 1.98,1.52 -0.88,1.61 -0.45,4.53 0.84,0.96 -0.37,3.58 -0.73,0.6 0.58,0.48 0.05,1.58 -2.13,0.5 -0.36,1.51 1.28,-0.36 -0.17,1.48 -0.78,0.92 -0.88,-0.02 0,0 -1.11,-0.33 -0.5,1.64 -1.75,-2.24 -2.17,1.97 -1.65,-0.38 -0.54,1.39 0.81,0.41 -0.42,0.64 -0.74,0.15 -0.65,-0.79 -0.63,1.27 -1.65,-1.07 -0.82,0.15 0.36,7.42 0,0 -1.39,0.44 0,0 -1.82,-0.89 -1.23,-1.84 0,0 -0.69,-0.09 -0.29,1.47 -1.04,0.53 -0.06,-1.09 -1.4,-0.17 0.45,-0.97 -1.47,-1.53 -0.6,0.16 0.31,0.74 -2.04,0.28 -0.82,-0.93 -2.3,1.04 -1.61,-1.87 -0.43,0.64 -1.12,-0.05 -0.16,0.75 -2.31,-1.4 -4.03,-0.34 -1.6,0.73 -2.5,-1.24 -0.58,-1.18 -3.54,0.19 -2.14,0.82 -0.87,-0.88 -2.68,0.01 -0.78,-0.58 -2,0.33 -2.47,-1.83 0,0 1.33,-1.86 0.22,-2.5 -3.36,-1.93 0.89,-0.87 -0.25,-2.65 -1.14,0.09 -2.21,-1.32 -0.86,0.12 -0.58,1.02 -3.01,-0.62 0,0 0.25,-1.92 1.07,-1.23 -0.4,-2.02 1.31,-0.42 -1.25,-2.16 1.05,-1.2 1.17,-0.06 0.41,-1.25 0.73,0.59 2.09,-1.93 0.83,-1.51 -0.95,-2.1 1.15,-0.34 0.58,0.47 -1.02,-1.81 0.73,-0.03 0,0 2.07,1.34 1.04,-1.44 0.97,-0.2 6.17,0.09 1.74,-0.81 -0.02,-1.02 -1.21,-0.15 -0.13,-1.01 1.61,0.18 0.43,-1.23 0.51,0.01 -0.08,-0.91 1.17,-0.89 1,1.18 1.27,-0.21 1.79,1.15 0.4,-1.58 1.09,-0.05 1.24,1.09 1.22,-0.4 0.46,-1.89 1.89,0.87 1.41,-0.42 0.53,1.94 1.29,1.08 3.39,1.26 1.26,-0.36 1.06,-2.98 1.08,-0.58 3.78,1.41 2.34,0.06 0.47,-1.4 2.7,0.23 0.65,-1.89 2.67,0.72 1.9,-0.26 2.22,-1.32 1.41,0.56 0.79,-3.34 2.42,0.35 1.01,-1.65 1.58,-1.02 1.2,0.3 1.03,2.04 z m -15.53,38.35 0.57,-0.62 0.82,0.2 -0.05,0.71 0,0 -0.99,0.87 -0.35,-1.16 z"
     title="León"
     id="ES-LE" />
  <path
     d="m 196.49737,74.237342 -0.54,-2.63 -3.16,0.03 -2.92,-4.68 1.25,-1.91 -0.63,-4.39 1.4,-0.17 -0.65,-1.21 -0.6,0 0.09,-1.3 0.71,0.04 0.63,1.89 -0.17,-2.27 0.53,-0.84 -1.5,-1.78 0.71,-1.64 -1.92,-0.6 2.28,-1.95 -0.74,-2.14 4.22,0.06 0.94,0.82 1.77,-0.78 0,0 0.5,1.23 0.68,-0.24 -0.64,1.36 0.48,1.11 1.45,-1.12 0.43,-1.7 2.55,1.18 -0.76,3.22 0.91,-0.37 0.86,1.76 1.3,-0.84 0.26,1.27 0.9,-0.88 1.16,0.42 0.61,-1.49 -0.15,1.24 2.89,0.03 0,0 2.29,1.57 0.43,-0.69 1.06,0.44 0.29,-0.41 2.2,2.14 3.22,-0.16 -0.13,0.83 1.12,1.27 -0.33,0.91 2.89,-0.69 0.97,1.23 1.4,0.28 0.12,1.08 1.34,0.49 -0.06,1.49 0.73,-0.24 1.5,1.49 2.29,0.34 1.35,0.91 -0.6,0.8 0.66,0.88 -1.24,0.75 -0.61,-0.67 -1.29,0.5 -1.22,-0.66 -2.18,2.83 -0.27,2.28 1.67,0.89 0,0 -0.29,1.71 0,0 -1.8,1.41 -2.05,0.53 -1.42,-1.39 -0.25,0.56 -2.26,-0.76 -0.43,-1.54 0.5,-0.3 -1.66,-2.64 1.07,-0.58 -0.01,-0.67 -2.5,-0.31 -1.87,0.66 -0.38,-1.77 -1.54,-0.59 -3.26,0.36 -1.41,1.27 -0.93,-0.34 0,1.88 -1.05,0.72 -0.95,2.27 -5.1,-0.51 -0.35,-0.98 1.58,-2.88 -0.99,-0.92 -1.63,0.66 -0.65,2.97 -2.18,1.12 z"
     title="La Rioja"
     id="ES-LO" />
  <path
     d="m 51.52737,2.0173425 0.26,1.39 0.71,0.09 -0.24,1.67 0.61,0.4 0.26,-1.77 1.79,-1.07 0.38,0.71 0.76,-0.55 0.97,0.68 -0.6,0.14 0.22,0.44 3.48,1.32 1.93,3.37 1.5,0.67 -0.65,1.5099995 0.91,-1.2099995 6.01,0.5199995 -0.34,3.48 0,0 -1.54,2 -2.15,-0.14 -0.28,1.62 1.68,0.82 -0.1,1.78 0.9,1.1 1.27,-0.05 -0.06,2.57 1.27,1.29 0.32,-0.4 1.18,0.78 -0.3,1.57 0.72,1.32 2.21,-0.89 0.72,-1.07 1.24,1.64 -1.53,2.18 -1.36,0.75 -0.69,-0.56 -0.86,1.06 0.05,1.12 -0.53,-0.28 -0.47,0.92 1.07,1.21 0.3,-1.28 1.29,1.3 1.18,0.05 1.1,1.3 -0.18,1.24 0.54,0.55 0,0 -0.73,0.03 1.02,1.82 -0.58,-0.47 -1.15,0.34 0.95,2.1 -0.83,1.51 -2.09,1.93 -0.73,-0.59 -0.41,1.25 -1.17,0.06 -1.05,1.2 1.25,2.16 -1.31,0.42 0.4,2.02 -1.07,1.23 -0.25,1.92 0,0 -0.7,2.06 -1.59,1.08 -1.56,4.42 -0.87,-1.38 0.33,-1.16 -2.67,-1.75 -1.93,0.34 -0.9,-0.59 -3.13,1.94 -1.22,0.18 -1.04,-0.85 -1.28,0.85 -2.96,-2.82 -2.32,-0.56 1.25,-0.58 -0.5,-0.57 -1.08,0.57 -2.32,-1.28 -1.16,0.11 0.36,-0.54 -0.69,-0.15 1.04,-1.04 -1.25,-1.18 0,0 1.17,-2.12 0,-2 0.96,-1.19 -3.59,-3.03 0.68,-2.53 -1.33,-0.38 0,0 2.81,-4.27 -1.07,-4.87 0.8,-0.86 -1.37,-4.26 1.21,-3.34 -0.77,-0.69 1.82,-2.11 -0.1,-2.61 2.08,-0.1 0.49,-1.54 0.83,-0.49 1.09,-2.66 -0.13,-2.7699995 0.95,-0.27 -0.54,-1.57 1.36,-1.41 -0.87,-1.38 0.51,0.04 -0.14,-1.03 0,0 0.55,0 0.12,-0.83 1.47,-1.05 z"
     title="Lugo"
     id="ES-LU" />
  <path
     d="m 154.71737,129.07734 0.54,0.92 -1.91,0.24 0,0 0.07,-0.78 1.3,-0.38 z m 22.57,-19.77 1.59,2.88 1.91,0.43 -0.38,1.66 1.34,1.72 -0.72,0.51 -0.81,3.21 -0.48,-0.01 0.59,1.3 -0.99,0.47 -0.09,1.54 -1.05,1.52 1.37,0.18 0.69,0.95 -0.23,0.92 0.52,0.29 -1.02,1.66 1.92,0.79 0.36,-0.91 1.67,2.26 0.66,-0.71 -0.62,1.16 0.22,1.13 1.45,1.04 -0.42,1.37 1.45,-0.26 1.51,1.17 0.06,2.91 1.31,0.13 0.78,1.37 -2,6.31 0.69,0.55 1.95,-2.05 1.28,5.11 0,0 -0.63,-0.21 -0.26,0.81 1.24,1.17 -0.13,0.91 -1.75,1.15 -1.33,-0.14 0,0 -0.42,-1.03 -0.92,1.28 -2.2,0.46 -1.77,-1.36 -1.31,0.26 -0.53,1.59 -3.46,-0.51 -0.39,1.09 -2.14,0.3 -1.49,0.99 0.1,0.9 -3.37,1.02 -1.81,2.23 -2.02,-0.8 -0.19,-0.96 1.13,-0.54 0.22,0.48 0.22,-0.66 1.16,0.01 0.68,-0.79 -0.16,0.7 0.45,-0.04 -0.18,-0.83 1.08,0.18 -0.62,-0.57 3.86,-3.01 0.43,-2.11 -1.85,-1.38 -0.74,0.43 -0.91,-0.61 -0.75,0.61 -1.87,-1.79 -0.89,0.65 -1.26,-1.19 -1.68,-0.51 -0.56,0.59 -0.11,-0.93 -1.21,0.1 -0.96,-1.58 -1.46,-0.63 -1.01,0.92 -1.21,-0.13 -0.01,-0.77 -1.45,-1.31 -0.38,1.12 -1.29,-0.19 -0.78,1.62 -1.54,0.32 -0.82,-0.46 -0.27,-2.93 -0.74,-0.35 -0.09,1.17 -1.58,1.2 -0.05,0.87 -3.02,1.53 -1.32,-0.71 0,0 0.56,-0.21 -0.26,-1.38 1.23,-1.42 -0.53,-1.98 0.62,-0.11 0.68,1.2 1.5,-0.19 1.03,-3.47 3.1,-0.17 -0.6,-0.74 0.74,-1.46 -0.37,-2.79 1.19,-1.19 -0.01,-2.56 1.46,1.03 2.49,-0.85 0.03,-2.68 0,0 2.77,-4.19 2.77,0.39 1.29,-5.78 1.31,-1.61 3.48,-1.35 1.31,-2.17 1.92,-1.32 1.94,-2.54 2.16,-0.69 z m 5.34,21.26 -0.17,0.58 0,0 -0.34,-0.19 0,0 0.51,-0.39 z"
     title="Madrid"
     id="ES-M" />
  <path
     d="m 143.11737,263.56734 1.22,0.03 0.35,1.76 1.93,-0.08 1.47,-0.62 0.19,-0.94 1.28,-1 1.86,0.02 0.33,2.36 1.53,0.44 -0.15,0.78 0,0 1.24,2.48 0.45,4.01 1.26,-0.08 1.99,2.29 2.05,0.17 1.61,1.88 3.62,0.79 1.9,1.23 1.24,-0.18 1.81,2.05 -0.28,2.48 0,0 -2.06,-0.62 -3.45,1.04 -3.59,-0.85 -1.09,0.9 -2.13,0.36 -6.63,-0.29 -3.55,4.92 -2.85,1.16 -1.09,2.17 -3.08,0.89 -3.69,-0.94 -2.3,0.28 -2.19,1.55 -2.31,0.32 -2.96,1.4 -2.28,3.91 0,0 -0.78,-0.99 -1.3,0.46 -0.83,-3.55 -2.61,-4.39 -1.86,-0.07 -0.96,1.46 -2.58,-0.55 -0.11,-1.11 0.51,-0.35 2.24,0.73 1.88,-2.17 0.15,-1.17 2.36,-0.5 1.69,-1.55 -0.02,-1.93 1.03,-1.95 -1.53,-1.69 1.2,-1.92 0.98,-0.56 3.05,2.32 1.11,-0.57 1.45,-2.54 -0.72,-2.07 0.45,-0.34 -1.44,-1.36 0,0 0.6,-0.91 2.14,-0.11 4.44,-3.22 0.15,-0.92 -1.21,-0.72 0.09,-0.69 1.06,-0.24 0.23,0.99 0.68,-0.08 0.66,-1.55 0.86,-0.08 0.97,1.81 2.63,-1.69 -0.76,-2.01 2.45,-0.29 z"
     title="Malaga"
     id="ES-MA" />
  <path
     d="m 79.02737,413.15734 1.53,0.74 -0.48,2.58 2.03,1.72 1.18,2.3 1.11,0.89 1.84,0.2 0.35,0.92 -0.09,0.63 -0.35,-0.97 -0.86,0.28 -0.69,-0.83 -1.57,0.8 0.49,1.23 -0.81,0.29 0.06,1.86 1.35,2.04 1.29,0.41 -0.58,1.14 -2.38,1.32 -2.78,0.52 -2.15,-2.76 -3.39,-2.61 0.2,-1.8 -1.05,-2.7 2.66,-7.57 2.47,-1.67 z"
     title="Melilla"
     id="ES-ML" />
  <path
     d="m 214.04737,233.84734 0.36,-1.53 2.09,-1.85 1.48,-3.45 3.06,-1.42 1.99,-2.63 1.93,0.94 2.41,-0.63 3.78,-2.27 -0.35,-0.55 1.6,-0.43 1.72,0.6 -0.15,1.1 0.69,0.98 2.47,0.04 3.41,-2.54 -0.61,-6.07 0.34,-1.22 1.07,-0.73 0.14,-2.64 1.4,-1.64 1.09,-0.51 0.73,1.05 2.87,-2.38 2.01,-0.63 1.96,0.65 0.13,1.08 2.76,2.13 0,0 0.75,3.24 -0.76,1.97 0.38,0.99 -2.46,2.29 0.3,3.58 2.93,1.01 0.66,1.88 -0.65,2.83 -1.47,2.42 0.19,1.57 3.99,6.75 2.15,2.28 2.08,0.67 0,0 0.43,2.21 -0.65,-1.75 -2.77,4.49 1.67,2.3 2.39,0.98 -1.03,-5.96 0.5,0.16 1.34,5.95 -0.5,0.92 -3.19,1.23 -1.74,-0.13 -1.26,0.93 -1.28,-0.19 -0.71,-0.98 -1.02,0.45 -1.75,-0.43 -1.61,1.35 0.5,0.58 -1.72,-0.32 -0.2,-0.77 -1.26,-0.5 -0.96,-0.05 -0.34,0.74 -2.11,-0.2 -4.13,2.95 -0.67,2.36 -1.1,-0.27 -3.44,2.19 0,0 -3.28,-2.61 -2.29,-0.34 0.09,0.7 -1.11,-0.82 -4.04,-6.32 -1.1,-3.17 0.52,-1.05 -0.11,-3.68 0.77,-1.75 -2.94,-0.62 -0.43,0.47 -1.19,-1.09 -1.5,0.46 -1.09,-1.08 0,0 -4.16,-4.27 z"
     title="Murcia"
     id="ES-MU" />
  <path
     d="m 235.27737,20.707342 0.76,0.14 0.52,2.29 1.02,0.08 0.33,-1.61 0.89,-0.23 2.97,1.16 0.76,-0.3 0.9,0.84 0.05,2.71 -0.99,2.53 -1.8,1.77 0.99,1.69 2.69,0.76 0.27,-2.79 2.29,-0.99 -1.18,2.05 1.38,1.05 1.58,-0.3 2.06,1.07 0.11,0.76 0.8,-0.65 1.33,1.06 1.97,0.29 1.93,1.56 1.15,-0.45 3.03,0.54 1.75,-0.66 0.74,2 0,0 -1.71,-0.1 -1.1,0.88 0.02,1.31 -1.17,0.93 0.28,2.54 -0.79,1.13 -0.84,-0.07 -0.01,0.74 0,0 0,0 0,0 -0.68,-0.05 -1.41,1.68 -1.81,0.15 -0.77,2.4 -3.05,-0.22 -0.16,1.54 -0.68,0.11 0.67,0.35 -1.34,0.88 -0.03,1.19 -0.72,0.31 -1.18,-0.61 -0.72,1.41 0.47,1.68 -2.11,2.42 -0.56,1.89 0.94,0.95 -2.14,2.65 -0.57,3.28 0.79,1.33 -0.22,2.2 1.43,2.19 1.28,0.03 0.18,1.21 -3.25,5.1 -4.53,0.21 -2.94,-2.12 -1.87,0.35 -1.59,-1.6 -2.05,0.03 -0.41,-0.53 0,0 -1.67,-0.89 0.27,-2.28 2.18,-2.83 1.22,0.66 1.29,-0.5 0.61,0.67 1.24,-0.75 -0.66,-0.88 0.6,-0.8 -1.35,-0.91 -2.29,-0.34 -1.5,-1.49 -0.73,0.24 0.06,-1.49 -1.34,-0.49 -0.12,-1.08 -1.4,-0.28 -0.97,-1.23 -2.89,0.69 0.33,-0.91 -1.12,-1.27 0.13,-0.83 -3.22,0.16 -2.2,-2.14 -0.29,0.41 -1.06,-0.44 -0.43,0.69 -2.29,-1.57 0,0 -0.05,-0.93 0.92,-0.21 -0.14,-3.41 -0.75,-0.34 -0.98,1.66 -0.28,-0.84 -0.87,0.09 -0.29,-1.3 0.52,0.18 2.07,-2.1 1.21,0.5 -0.17,0.68 2.86,-0.86 -1.08,-2.87 0.21,-0.64 1.67,-0.37 -0.57,-1.53 1.49,-2.45 -0.56,-2.16 0,0 1.24,-2.27 0.9,0.62 1.58,-0.18 1.05,-1.38 1.75,-0.36 0.48,-3.52 3.7,-2.94 -0.56,-0.61 0.13,-3.06 1.05,0.68 0.44,-0.99 0.22,0.76 2.01,-1.45 0.36,-1.68 1.66,-0.39 0,0 z"
     title="Navarra"
     id="ES-NA" />
  <path
     d="m 106.70737,5.9073425 0.93,1.36 0.88,0 -0.31,0.63 1,1.19 1.28,0.74 0.57,-0.3 0.18,1.3699995 1.44,0.13 0.78,-0.75 3.85,0.6 2.61,-0.44 1.7,1.01 1.7,-0.22 2.57,2.62 2.84,-0.48 2.66,1.02 3.37,-0.08 8.36,2.6 4.34,0.33 0,0 -0.81,1.59 0.47,3.25 -0.74,0.4 -0.23,-0.81 -1.57,-0.52 -0.78,1.38 -3.04,0.43 -0.23,2.98 -3.15,0.24 0,0 -1,-2.05 -1.19,-0.3 -1.57,1.02 -1.01,1.65 -2.42,-0.35 -0.79,3.34 -1.41,-0.56 -2.22,1.32 -1.9,0.26 -2.67,-0.72 -0.65,1.89 -2.7,-0.23 -0.47,1.4 -2.34,-0.06 -3.78,-1.41 -1.07,0.58 -1.06,2.98 -1.26,0.36 -3.39,-1.26 -1.29,-1.08 -0.53,-1.94 -1.41,0.42 -1.89,-0.87 -0.46,1.89 -1.3,0.37 -1.28,-1.12 -1.09,0.05 -0.4,1.58 -1.79,-1.15 -1.26,0.21 -1,-1.18 -1.16,0.89 0.08,0.91 -0.51,-0.01 -0.43,1.23 -1.6,-0.18 0.13,1.01 1.21,0.15 0.02,1.02 -1.74,0.81 -6.17,-0.08 -0.97,0.2 -1.04,1.44 -2.07,-1.33 0,0 -0.54,-0.55 0.18,-1.24 -1.09,-1.3 -1.18,-0.05 -1.29,-1.3 -0.3,1.28 -1.07,-1.21 0.47,-0.92 0.53,0.28 -0.05,-1.12 0.86,-1.06 0.69,0.56 1.36,-0.74 1.53,-2.18 -1.24,-1.63 -0.72,1.07 -2.21,0.89 -0.72,-1.31 0.3,-1.57 -1.18,-0.78 -0.32,0.41 -1.27,-1.29 0.06,-2.57 -1.27,0.05 -0.9,-1.1 0.1,-1.78 -1.68,-0.82 0.28,-1.61 2.15,0.14 1.54,-2 0,0 0.63,-2.26 0.76,-0.08 -0.74,-1.19 1.71,-0.02 0.85,-0.7299995 4.14,0.8699995 1.13,-0.6099995 2.97,0.4099995 1.58,-0.6699995 0.89,0.8999995 1.88,0.33 1.98,-0.14 0.05,-0.8999995 1.24,0.7599995 2.29,0.07 3.07,-1.1499995 0.34,-0.8 1.81,1.4299995 1.07,-0.2799995 1.06,0.6299995 2.99,-1.3799995 0.73,0.66 1.03,-0.22 1.36,-1.11 0.07,-0.87 1.51,-0.3 0.76,-1.27 z"
     title="Asturias"
     id="ES-O" />
  <path
     d="m 42.54737,51.267342 1.25,1.18 -1.05,1.04 0.69,0.15 -0.35,0.54 1.16,-0.11 2.32,1.29 1.08,-0.57 0.5,0.57 -1.25,0.58 2.32,0.56 2.97,2.83 1.28,-0.86 1.04,0.85 1.22,-0.18 3.13,-1.94 0.9,0.59 1.93,-0.34 2.67,1.75 -0.34,1.16 0.87,1.39 1.56,-4.42 1.59,-1.08 0.7,-2.06 0,0 3.01,0.62 0.58,-1.02 0.86,-0.11 2.21,1.32 1.15,-0.09 0.25,2.65 -0.89,0.87 3.36,1.93 -0.22,2.5 -1.32,1.87 0,0 -0.58,0.61 0.49,0.95 -1.73,-0.52 -1.33,0.58 -0.44,1.02 -1.3,0.71 -0.39,1.77 -1.03,0.34 -0.41,1.54 -0.93,0.39 0.64,0.89 1.16,-0.1 0.42,1.15 -0.69,2.23 0,0 -0.7,0.92 -1.9,0.07 -1.56,-1.55 -1.81,0.27 -0.35,1.57 0.49,0.94 -0.71,1.6 -3.64,1.54 -1.55,-0.42 -1.9,1.86 -0.76,-2.37 -1.53,-0.17 -0.57,1.12 -2.78,0.53 0.79,-2.16 -2.09,0.02 -1.44,-1.08 -4.43,1.08 -0.85,1.49 -0.59,-0.6 0.23,-2.66 -0.67,-0.11 -0.45,2.02 -2.04,0.35 -0.81,1.66 -3.59,0.82 -1.04,-0.38 -0.14,-2.4 -0.94,0.12 -0.52,-1.62 1.66,-2.86 2.36,-1.39 0.05,-1.27 -1.05,-1.44 -1.95,0.71 -0.53,-3.67 0,0 1.18,-1.03 -0.96,-1.24 0.87,-0.53 0.07,-0.91 -2.19,0.43 -0.97,-0.79 0.09,-2.57 -1.93,-1.24 0.31,-1.49 -1.59,-4.41 1.95,-0.11 3.96,-3.4 0.83,0.97 1.76,-0.37 2.24,0.62 0.74,-1.24 z"
     title="Ourense"
     id="ES-OR" />
  <path
     d="m 160.81737,68.257342 0.43,1.5 -1.47,-0.48 -0.05,-0.63 1.09,-0.39 z m -0.39,-26.2 -0.61,-0.13 0.06,-1.03 0.55,1.16 z m 1.33,1.39 1.3,-2.7 0.12,2.6 0,0 -1.42,0.1 z m -21.21,-10.62 3.03,0.18 0.98,-0.8 1.46,0.68 1.15,-1.17 1.39,0.36 0.86,-0.83 1.52,0.99 1.56,2.62 3.34,0.74 0.6,4.34 0.6,0.24 1.69,-0.99 0.48,0.93 -1.66,1.5 1.01,0.88 1.58,-0.08 0.53,1.24 0,0 -0.87,1.15 -1.12,-0.76 -3.4,2.66 -0.3,-0.71 -0.81,0.6 0.9,3.03 -0.88,0.5 0.67,1.02 -1.06,0.44 0.06,0.64 0.79,0.44 -0.26,1.36 1.2,0.72 0.14,1.6 -2.29,-0.11 -0.55,1.62 0.41,1.66 1.5,-0.24 1.27,7.33 1.31,1.32 -0.51,1.72 1.94,0.62 0.65,-0.36 1.99,1.13 -0.65,0.75 -0.78,-0.18 0.71,2.07 1.25,-0.68 1.74,0.08 0.35,0.75 -1.34,1.43 -0.56,1.83 4.34,-1.75 -0.03,1.61 -1.36,0.02 -1.37,1.08 0.02,1.24 -1.74,1.14 -1.57,0.09 -0.04,1.63 1.6,1.68 -0.09,0.88 0,0 -1.8,-0.25 -0.73,-1.35 -2.82,0.32 -0.64,-0.59 -2.5,2.07 -2.27,-0.98 -1.92,1.15 -1.44,-0.5 0.43,-2 0.8,-0.01 -0.37,-0.93 -1.19,0.81 -1.14,-0.32 -0.52,0.76 -3.18,-3.61 -3.67,3.39 -2.45,-4.67 -1.81,0.69 -0.66,-0.77 -1.05,0.98 -0.66,-1.53 1.21,-2.46 0.91,-0.45 -0.42,-1.36 1.4,-1.13 -0.72,-2.96 -3.05,-0.15 0.76,-5.58 0,0 0.88,0.02 0.78,-0.92 0.17,-1.48 -1.28,0.36 0.36,-1.51 2.13,-0.5 -0.05,-1.57 -0.58,-0.48 0.74,-0.6 0.37,-3.58 -0.84,-0.96 0.45,-4.53 0.88,-1.61 -1.98,-1.52 1.24,-1.69 -0.16,-3.01 1.09,-0.13 1.73,-2.91 0.44,-2.35 1.75,-1.48 z"
     title="Palencia"
     id="ES-P" />
  <path
     d="m 329.49737,204.00734 0.8,2.25 0.81,0.2 0.63,1.49 1.16,0.67 1.2,-0.72 0.45,1.12 -0.43,0.51 -3.67,-1.36 -2.04,1.73 -0.17,-3.08 1.49,-0.76 -0.23,-2.05 z m 3.46,-12.88 0.78,1.02 1.42,0.08 -0.51,1.13 1.02,1.39 -1.14,0.45 -0.07,1.05 -1.47,0.24 -0.15,1.47 -1.6,1.29 -1.71,0.36 -0.47,2.9 -0.64,-0.49 -0.43,0.56 -0.82,-1.67 -0.76,0.58 -1.47,-0.9 -0.7,0.93 -0.77,-0.6 -0.34,-1.29 0.7,-1.41 -0.65,-0.76 0.44,-0.64 2.41,0.06 -0.71,-0.76 0.18,-1.4 2.11,-1.79 0.54,0.44 0.37,-0.66 0.88,0.07 0.23,-0.57 0.49,0.44 0.71,-0.89 1.08,0.16 1.05,-0.79 z m 51.55,-33.43 -0.36,0.78 -3.74,1.66 0.73,1.75 3.1,-1.29 -0.9,2.07 -1.66,0.18 0.57,2.19 3.52,1.96 2.34,-1.23 0.55,-1.17 2.61,1.78 0.89,-0.13 -0.29,1.05 0.83,0.24 -0.68,0.4 -0.61,2.86 -1.21,0.2 -0.38,1.41 0.59,0.57 -0.77,0.1 -2.52,3.05 -0.66,3.31 -1.31,2.15 -3.51,1.97 -1.37,1.71 -0.72,0.12 -1.09,-1.78 -0.85,-0.21 0.16,-0.83 -1.05,-1.06 -1.34,0.44 -0.98,-0.53 -2.91,0.12 -1.4,-1.74 0.15,-1.41 -0.76,-1.32 0.84,-1.37 -2.35,-1.96 -0.85,-0.21 -1.65,1.34 -1.57,0.28 -0.53,2.68 -0.97,-0.65 -0.53,0.31 -0.51,-2.78 -1.13,0.48 -0.19,-0.63 -0.77,0.73 -0.03,-0.53 -0.75,0.09 0.27,-0.48 -0.78,-0.83 0.49,-1.81 3.07,-1.66 1.98,-1.96 1.78,-0.6 2.67,-3.11 0.68,0.15 0.14,-0.79 2.42,-1.78 2.05,-0.24 3.28,-2.31 1.08,0.42 1.68,-1.12 2.48,0.22 1.31,-1.11 1.42,-0.14 z m 26.63,-5.13 0.57,0.24 0.14,1.62 0.64,-0.51 0.07,1.23 0.28,-1.65 0.57,-0.02 0.56,0.3 -0.37,1.14 0.7,0.41 0.24,-0.53 0.87,1.52 1.54,0.02 -0.47,1.31 0.8,0.5 0.92,2.82 -0.19,1.97 -0.72,0.82 -2.26,-0.56 -6.69,-4.24 -5.13,0.33 0.23,-2.8 -1.07,-0.25 -0.13,-0.61 0.97,-1.46 3.46,-0.45 1.36,0.47 1.48,-0.6 0.81,0.6 0.67,-0.34 0.15,-1.28 z"
     title="Balears"
     id="ES-PM" />
  <path
     d="m 18.11737,47.167342 0.29,-1.22 2.04,-0.95 1.36,0.58 0.21,-1.16 1.39,-0.15 -0.06,-0.58 2.66,0.71 1.93,-0.44 0.45,-1.46 1.16,0.43 0.68,-0.64 -0.23,-1.94 0.41,0.39 0.32,-0.61 1.11,1.46 0.74,-1.06 1.38,0.53 -0.32,-0.86 1.14,-0.66 2.07,0.79 1.37,-0.47 0.79,0.87 1.42,-0.73 0,0 1.33,0.38 -0.68,2.53 3.6,3.03 -0.96,1.19 0,2 -1.17,2.12 0,0 -1.88,0.25 -0.74,1.24 -2.24,-0.62 -1.76,0.38 -0.83,-0.97 -3.95,3.39 -1.95,0.12 1.59,4.41 -0.31,1.49 1.93,1.24 -0.08,2.57 0.97,0.8 2.19,-0.44 -0.07,0.91 -0.87,0.54 0.95,1.24 -1.18,1.03 0,0 -3.77,2.16 -0.29,0.74 -5.77,0.18 -0.8,1.04 -2.76,0.26 -0.81,1.87 -2.52,1.51 -0.37,1.35 -3.65,2.57 -0.77,-9.95 1.47,-0.64 1.16,0.53 -0.18,-1.11 -0.91,-0.6 0.81,0.06 0.28,-1.4 4.94,-4.09 1.2,0.09 -0.56,-2.81 -0.12,1.14 -0.78,0.59 0.31,0.59 -1.17,0.75 -1.29,-0.28 -1.85,1.66 -0.67,-0.64 -1.81,0.47 0.49,-2.43 1.25,1.26 -0.63,-2.55 2.06,0.32 1.37,-2.18 2.12,-1.67 -0.77,0.18 -0.43,-0.66 -2.4,2.04 -1.26,-0.55 -0.74,0.72 -1.31,-1.28 -0.01,-1.69 -0.95,-0.31 -0.49,0.58 -0.49,-0.6 0.22,-0.67 0.91,0.21 1.13,-1.09 0.48,1.2 -0.39,1.04 1.46,-0.22 -0.31,-1.35 0.78,-0.65 -0.29,-1.01 -0.44,0.22 0,-2.32 1.04,-0.2 2.08,-4.04 z"
     title="Pontevedra"
     id="ES-PO" />
  <path
     d="m 184.70737,25.057342 -0.21,-2.18 1.69,-0.04 -0.6,1.07 0,0 0.12,1.17 0,0 -1,-0.02 z m -8.83,-12.97 0.01,0.56 1.39,-0.07 -0.21,0.83 0.82,-0.57 0.28,0.98 2.57,0.64 -0.31,0.94 -0.78,-0.14 -0.33,-0.09 -0.44,-0.26 0.78,2.4 0.54,-1.3 0.69,0.51 3.05,-0.43 0.11,1.27 0.41,-0.85 2.57,0.56 0.33,0.92 1.81,0.91 0,0 -0.12,2.18 -1.6,0.75 -0.48,-1.07 -1.66,0.79 -1.63,-0.5 -0.24,1 -3.33,1.76 0.95,4.31 0,0 -5.7,-0.68 -0.27,-0.83 -1.18,-0.48 -1.65,2.71 -1.57,0.72 -0.03,0.59 -2.76,0.03 0.47,0.86 -0.53,0.95 -1.28,-0.03 -0.57,1.08 -1.11,0.43 -1.39,3.13 0.51,0.8 1.33,-0.12 -0.12,0.63 1.3,-1.08 0.12,-0.97 1.47,0.38 0.18,0.91 -1.07,0.79 -1.2,-0.64 0.46,1.13 -0.96,-0.08 0.83,0.37 -0.55,0.81 1.08,0.4 0.51,-1.6 0.83,0.46 0.64,2.85 -1.45,1 -0.95,-0.75 -0.51,1.51 -2.08,0.43 -0.64,-0.45 0,0 -0.12,-2.6 -1.3,2.7 0,0 -1.09,0.21 0,0 -0.53,-1.24 -1.58,0.08 -1.01,-0.88 1.66,-1.5 -0.48,-0.93 -1.69,1 -0.6,-0.24 -0.6,-4.33 -3.34,-0.74 -1.56,-2.62 -1.52,-0.99 -0.86,0.83 -1.39,-0.36 -1.15,1.17 -1.46,-0.68 -0.98,0.8 -3.03,-0.18 0,0 -0.21,-1.48 -0.68,0.04 -0.01,-0.79 -2.61,-2.15 0.32,-2.3 0,0 3.15,-0.23 0.23,-2.98 3.04,-0.43 0.78,-1.38 1.57,0.52 0.23,0.82 0.74,-0.4 -0.47,-3.25 0.81,-1.59 0,0 4.02,0.13 1.04,-0.69 0.62,0.68 3.26,-0.14 5.34,-2.19 0.32,0.49 0.44,-0.62 1.15,0.12 0.02,0.67 1.19,-1.73 4.95,-0.88 -0.11,0.66 0.76,0.36 -1.76,0.81 -0.28,0.66 0.77,0.16 -0.75,0.77 0.45,0.37 1.05,-0.82 -0.33,-0.46 0.6,-0.69 1.05,0.73 -0.31,-1.03 0.73,-0.73 3.34,-0.94 0.84,-0.88 z m -15.43,29.2 -0.38,1.02 -0.18,-1.41 0.56,0.39 z"
     title="Cantabria"
     id="ES-S" />
  <path
     d="m 87.06737,104.05734 4.98,0.94 5.62,3.28 2.22,-1.25 1.63,0.84 -0.4,1.83 1.31,-0.78 0.8,1.4 1.23,-1.55 -0.25,-1.62 0.72,-0.83 4.07,0.92 3.32,-1.21 0.88,1.27 1.24,0.49 0.7,-0.6 2.45,1.55 0.03,1.36 0.23,-1.33 2.12,-0.3 0.23,1.63 1.33,0.19 0.86,0.96 0.95,-0.35 0.28,-2.28 0,0 0.01,-0.56 1.41,-0.06 0.74,1.53 1.19,-0.32 1.68,1.44 0,0 -0.86,2.77 1.93,2.72 -0.46,1.47 -0.7,0.25 0.37,2.09 -1.48,1.37 0.07,2.2 -1.76,1.66 0.14,0.61 -5.25,3.48 0.6,0.92 -0.52,1.13 -1.99,1.65 -1.59,-0.08 -0.04,-0.63 -0.47,0.48 -0.26,1.8 2.66,-1.03 0.38,0.39 -1.23,3.64 -1.36,0.09 -0.53,1.66 -1.45,-0.88 0.42,-1.32 -2.25,0.67 -1.75,1.55 0.56,2.94 -1.98,2.19 0,0 -1.71,0.29 -0.13,-2.66 -2.66,1.06 -1.01,1.97 -1.58,-0.48 -1.47,-1.08 0.01,-0.95 -2.75,-0.67 1.25,-1.59 -1.98,-0.97 0.41,-0.84 -0.95,0.22 -0.33,-0.84 -2.25,-1.19 -3.48,1.76 -0.96,1.71 -1.32,0.04 -0.6,1.06 -3,1.03 -0.74,0.73 0.13,1.53 -0.95,0.8 -2.6,0.3 -0.56,0.83 -0.87,-1.07 -1.14,1.22 -2.42,-0.35 -0.94,-0.92 0,0 0.11,-1.16 2.06,-1.16 0.41,-1.44 -1.65,-1.74 -0.46,-1.76 1.67,-2.4 -0.17,-1.57 -1.37,-0.63 1.58,-3.84 -1.14,-3.69 0.15,-3.65 0.8,-0.22 -0.28,-1.36 -1.22,-0.81 -0.31,-1.92 -2.22,-3.22 3.76,-0.29 1.68,-2.74 -0.42,-1.25 1.8,-1.53 1.86,-3.05 2.37,0.35 1.49,-1.49 0.4,0.47 0.9,-0.38 z"
     title="Salamanca"
     id="ES-SA" />
  <path
     d="m 96.25737,237.13734 1.99,-1.58 4.96,-0.53 1.37,-2.62 -0.54,-1.61 2.3,-2.62 3.79,-0.99 1.03,0.42 0.32,1.15 -0.66,-0.48 0.34,0.74 -1.41,0.93 0.18,1.56 0.75,0.2 2.36,-2.22 1.49,0.25 0,0 2.74,3.47 0.07,1.81 2.38,2.02 0.02,2.86 2.15,1.15 -0.16,1.77 1.22,0.78 0.07,2.9 -0.6,0.29 -0.35,-0.57 -1.12,1.1 -0.4,-0.77 -0.73,0.55 0.56,1.03 -0.63,0.41 1.72,2.33 5.57,-3.66 0.82,0.76 1.29,-0.06 -0.67,-1.4 0.66,-0.06 0.32,1.16 0.84,0.37 -0.64,-0.74 0.58,-1.07 0.76,-0.4 1.47,0.45 1.41,2.09 -0.62,2.03 1.3,-0.67 -0.53,3.68 1.32,0.85 0.65,2.38 1.37,0.12 -0.3,0.93 1.07,1.26 -0.22,0.75 1.23,1.14 1.6,-0.26 0.32,-0.88 1,0.65 1.03,3.29 0,0 -2.46,0.22 0.76,2.01 -2.63,1.7 -0.97,-1.81 -0.86,0.08 -0.66,1.55 -0.68,0.08 -0.23,-0.99 -1.06,0.24 -0.09,0.69 1.21,0.72 -0.15,0.93 -4.44,3.22 -2.14,0.11 -0.6,0.91 0,0 -2.84,2.4 -2.06,-3.68 -4.2,3.91 -0.65,-1.63 1.2,-1.27 -0.21,-1.3 -2.11,0.21 -0.43,0.23 1.27,1.9 -2.33,2.05 0.37,1.41 -1.51,-0.82 -0.16,-1.23 -0.93,0.25 -1.52,-1.36 -1.51,2.16 -3.94,0.17 -0.96,0.76 -0.45,2.01 -6.55,-0.57 -1.57,-1.07 -3.02,-0.33 -0.75,-0.65 -1.62,0.46 0,0 -1.47,-1.37 0.76,-1.97 -0.99,-3.37 1.35,-1.86 -0.53,-0.59 0.72,-1.2 -0.73,-2.63 0.82,-2.34 -1.58,-1.47 1.18,-1.09 -0.49,-0.39 0.18,-1.4 1.34,-0.25 0.18,-0.63 -2.63,-4.58 -0.08,-2.2 -4.08,-0.18 -0.25,-1.36 1.04,-0.61 0.88,-2.26 0.72,0.25 4.27,-1.78 1.81,0.07 -0.01,0.78 0.93,0.12 0.2,-1.99 0.86,-0.72 1.65,0.85 0.37,-1.13 -1.29,-1.77 1.2,-1.63 -0.6,-0.6 -0.75,0.43 -0.34,-1.24 z m 35.66,13.49 -2.02,-2.16 1.55,0.24 0.47,1.92 z"
     title="Sevilla"
     id="ES-SE" />
  <path
     d="m 163.75737,92.257342 2.64,1.28 2.17,2.9 1.11,-0.19 -0.49,-1.67 1.1,-0.5 -0.06,3.22 0.93,0.38 0.34,-2.73 1.74,-1.75 3.99,-0.7 0,0 0.1,1.05 1.12,0.93 0.68,0.34 0.66,-0.66 1.04,0.83 0.34,1.65 2.54,0.63 -0.62,2.69 4.4,3.689998 0,0 -1.46,1.89 -0.5,-0.71 -2,0.9 -2.25,-0.31 0.22,1.91 -1.28,-0.07 -0.7,1.31 -2.23,0.74 0,0 -2.27,0.64 -1.94,2.55 -1.91,1.32 -1.31,2.17 -3.48,1.35 -1.31,1.61 -1.28,5.78 -2.77,-0.39 -2.77,4.19 0,0 -0.72,-0.33 -2.81,0.88 0,0 -1.29,0.38 -0.08,0.78 0,0 -3.06,0.56 -0.35,-4.39 -1.32,-1.3 -0.61,-2.38 -1.61,0.33 -0.39,-0.57 0.84,-0.77 -0.85,-1.1 -0.21,-2.85 -1.24,-0.59 -0.97,-2.45 -2.3,-1.28 -0.27,-3.51 0,0 1.27,-1.48 1.62,0.61 -0.71,-2.05 2.37,-2.19 -0.71,-1.85 1.15,0.75 0.94,-0.77 1.87,1.03 -1.12,-2.09 0.62,-0.8 -0.94,-1.739998 1.43,-0.15 1.51,-1.09 1.66,0.16 0.07,-0.57 2.84,-0.46 0.27,0.44 6.01,-1.81 2.01,-0.87 z"
     title="Segovia"
     id="ES-SG" />
  <path
     d="m 196.49737,74.237342 0.92,0.55 2.18,-1.12 0.65,-2.97 1.63,-0.66 0.99,0.92 -1.58,2.88 0.35,0.98 5.1,0.51 0.95,-2.27 1.05,-0.72 0,-1.88 0.93,0.34 1.41,-1.27 3.26,-0.36 1.54,0.59 0.38,1.77 1.87,-0.66 2.5,0.31 0.01,0.67 -1.07,0.58 1.66,2.64 -0.5,0.3 0.43,1.54 2.26,0.76 0.25,-0.56 1.42,1.39 2.05,-0.53 1.8,-1.41 0,0 -0.02,2.34 1.21,2.3 -1.08,2.62 1.54,1.57 -0.2,0.6 1.04,0.49 -0.35,1.04 -0.78,0.53 0.18,0.91 -1.62,0.11 -1.96,2.58 -2.16,-0.07 0.8,2.21 -0.42,2.43 0.85,0.98 0.47,2.25 -2.8,0.939998 -0.2,-1.739998 -2.02,-0.77 -0.44,2.599998 -1.45,1.09 -0.32,2.73 0.84,4.22 2.03,0.54 0.87,0.98 0,0 -0.15,3.13 -2.31,-1.96 -1.33,1.39 -1.75,-0.53 -0.96,1.19 -1.84,0.45 -0.98,-1.22 -1.95,1.17 -1.55,-0.83 -0.33,-1.44 -0.88,-0.21 -0.85,-1.77 -1.2,0.93 -0.62,-0.49 0.55,-1.12 -1.35,-0.36 0.88,-0.52 0.12,-0.96 -1.22,0.38 -0.52,-1.02 -1.95,-0.48 -0.22,-0.96 -1.35,0.07 -0.45,0.97 -1.43,-0.27 -1.37,-0.72 -0.07,-1.73 -1.16,-0.44 -1.33,1.43 -3.43,0.78 -4.46,-1.25 0,0 -4.4,-3.689998 0.62,-2.69 -2.54,-0.63 -0.34,-1.65 -1.04,-0.83 -0.66,0.66 -0.68,-0.34 -1.12,-0.93 -0.1,-1.05 0,0 -0.27,-0.78 0.65,-0.65 2.15,0.94 2.02,-4.13 1.07,-0.12 0.17,-1.82 2.38,-1.26 -0.26,-4.72 2.74,2.25 0.71,1.47 1.08,-0.78 1.2,-2.83 2.47,-0.24 0.26,-1.45 1.15,-0.29 0.62,-2.66 z"
     title="Soria"
     id="ES-SO" />
  <path
     d="m 230.90737,17.207342 -0.18,1.96 1.91,0.72 0.21,1.41 0,0 -1.66,0.39 -0.36,1.68 -2.01,1.45 -0.22,-0.76 -0.44,0.99 -1.05,-0.68 -0.13,3.06 0.56,0.61 -3.7,2.94 -0.48,3.52 -1.75,0.36 -1.05,1.38 -1.58,0.18 -0.9,-0.62 -1.24,2.27 0,0 -1.19,-0.28 -0.39,-0.99 -1.61,-1 -5.54,-0.98 -0.22,0.97 -1.18,-0.59 -0.67,-0.75 0.19,-1.13 1.44,-0.44 0.76,-1.03 -0.67,-1.83 0,0 1.4,-0.35 -0.27,-2.72 0.77,-0.42 -0.4,-2.05 1.88,-0.98 0.56,-1.02 -0.57,-1.33 0.75,-0.91 0,0 1.81,1.01 2.12,0.1 1.71,-0.69 1.56,1 1.55,-0.13 6.13,-1.88 z"
     title="Guipúzcoa"
     id="ES-SS" />
  <path
     d="m 236.27737,118.27734 1.82,0.17 1.62,-1 0.99,0.62 0.8,-1.12 -0.91,-1.56 2.01,-0.81 0.18,-1.27 1.51,-0.9 0.05,1.26 2.05,0.35 1.05,-1.16 -0.56,-1.05 0.52,-0.78 1.37,-0.66 1.1,0.61 1.61,-0.45 0.52,-1.33 2.01,1.34 1.18,0.02 0.87,-0.78 -0.8,2.36 1.26,0.76 1.38,-0.67 0.89,-2.26 0.72,1.65 0.96,0.47 1.23,-0.47 0.83,-2.5 2.07,2.33 2.58,-3.23 -1.82,-1.83 1.35,-0.46 -0.14,-2.59 0.75,-0.47 2.27,3.88 0.67,-0.42 -0.54,-2.03 -1.68,-1.35 0.44,-1.33 2.69,0.33 0.3,1.13 1.52,0.26 -0.25,0.72 0.7,0.88 2.11,1.26 0.59,-0.66 2.85,2.75 1.37,0.09 4.75,2.42 1.92,3.31 1.09,-1.33 2.25,0.66 2.29,-0.34 0,0 1.83,2.1 -0.65,0.23 1.06,1.76 -1.67,3.46 1.21,2.59 -1.49,2.16 -1.68,0.51 0.01,0.55 -0.5,-0.38 0.36,0.72 0,0 -3.01,0.74 -0.94,0.94 -0.81,-1.51 -2.47,0.05 -3.07,-2.47 -0.99,0.16 -0.83,1.23 -0.36,2.54 -2.18,1.27 -0.67,-0.83 -1.51,0.52 0.23,2.16 2.37,0.11 -0.27,3.82 0.9,1.7 -2.29,1.2 1.99,3.16 -1.78,1.01 -0.79,1.4 -0.73,-0.03 0.2,1.64 -1.37,0.84 -2.04,0.61 -1.52,-0.92 -1.05,4.54 -1.54,1.44 0.46,1.28 -2.13,1.03 -2.17,-0.09 -0.74,1.93 -1.84,0.86 -0.08,2.06 1.31,1.75 0,0 -2.02,1.34 -0.77,-0.19 -0.73,-0.8 0.3,-2.38 -0.55,-1.29 -0.35,0.33 -1.82,-1.03 -3.49,0.27 -0.51,0.57 -0.64,-0.44 0,0 -0.7,-1.53 0,0 2.49,-1.04 0.37,-0.97 -2.31,-2.13 -2.99,-0.09 0.02,-1.19 -1.23,-1.02 -0.43,-1.61 -0.76,1.07 0.2,1.41 -1.25,0.83 -2.81,-0.66 0,0 0.3,-2.06 -1.09,0.47 -1.12,-0.74 -0.9,0.51 -4.6,-4.76 -0.89,1.31 -0.3,-1.05 0.96,-0.72 -3.33,-3.09 0,0 1.77,-2.6 1.72,-0.96 -0.29,-2.06 0.73,-2.13 2.44,1.17 1.63,-1.34 -0.59,-0.78 0.9,-2.92 -0.81,-2.12 0.68,-0.85 -0.08,-2.04 -2.39,-2.75 z"
     title="Teruel"
     id="ES-TE" />
  <path
     d="m 195.64737,435.62734 0.81,0.25 0.58,1.36 -1.45,2.56 -0.81,0.27 -0.68,2.84 -2.23,-1.87 -3.35,-0.75 0.79,-1.98 1.63,0.62 1.39,-0.32 1.43,-1.27 -0.23,-0.87 2.12,-0.84 z m 20.51,-12.73 0.45,0.6 1.49,0.03 2.88,2.47 0.12,1.15 -3.06,2.47 -2.21,-0.03 -2.42,-2.53 0.84,-3.56 1.91,-0.6 z m 33.79,-12.88 1,0.6 0.03,1.37 -3.39,1.62 -0.57,1.21 -3.25,2.47 -0.06,2.58 -1.92,3.52 -0.1,1.99 -3.63,4.2 -4.78,0.72 -1.08,-2.84 -3.09,-4.2 -0.09,-1.99 -2.53,-3.14 2.75,-1.31 2.51,0.78 2.33,-1.06 2.19,0.25 2.78,-0.87 1.74,-1.39 1.4,-2.37 2.34,-1.03 0.16,-0.69 3.3,0.39 1.96,-0.81 z m -54.06,-9.38 1.94,0.87 2.45,-0.19 1.64,3.33 -1.36,2.3 0.57,1.85 -0.31,1.92 -2.45,4.04 -0.87,-0.68 -0.37,-2.35 -1.44,-1.95 -1.69,-4.63 -0.85,-0.69 0.08,-1.18 2.66,-2.64 z"
     title="Santa Cruz de Tenerife"
     id="ES-TF" />
  <path
     d="m 145.39737,147.50734 1.32,0.71 3.02,-1.52 0.06,-0.87 1.58,-1.19 0.09,-1.17 0.74,0.34 0.27,2.93 0.82,0.46 1.54,-0.32 0.78,-1.63 1.29,0.19 0.38,-1.12 1.45,1.31 0.02,0.77 1.21,0.13 1.01,-0.92 1.46,0.63 0.96,1.58 1.21,-0.11 0.11,0.93 0.56,-0.59 1.68,0.51 1.27,1.19 0.89,-0.64 1.87,1.79 0.75,-0.61 0.91,0.61 0.74,-0.44 1.85,1.39 -0.43,2.11 -3.86,3 0.62,0.57 -1.08,-0.17 0.18,0.83 -0.45,0.04 0.16,-0.69 -0.68,0.79 -1.16,-0.01 -0.21,0.66 -0.23,-0.48 -1.13,0.54 0.2,0.96 2.01,0.8 1.81,-2.23 3.38,-1.02 -0.1,-0.9 1.49,-0.99 2.14,-0.3 0.39,-1.09 3.47,0.51 0.52,-1.59 1.31,-0.25 1.77,1.36 2.2,-0.46 0.92,-1.27 0.42,1.03 0,0 0.58,3.2 1.41,-0.08 -0.02,2.13 -0.92,2.34 1.56,0.76 2.41,5.44 2.75,3.04 -0.71,6.77 0,0 -0.78,0.96 -1.31,0.22 -0.71,-0.6 -1.44,0.26 -2.27,-1.79 -1.26,0.3 -0.02,0.55 -3.35,0.13 -0.66,1.47 0.21,1.37 -3.11,-0.22 -1.85,1.28 -0.19,1.15 -1.71,1.54 -4.53,0.23 -1.3,1.14 -2.16,-0.9 -1.98,1.33 -3.31,-1.56 -0.21,-2.14 -3.11,-0.52 -0.95,0.96 -0.49,-0.85 -0.85,-0.01 0.92,-3.72 1.54,0 0.25,-2.57 0.91,-0.01 -0.36,-2.11 -2.54,0.46 -1.05,-0.52 -1.05,3.23 -1.5,0.69 -4.15,-0.72 -2.04,-1.07 -0.55,1.76 -1.52,-1.72 0.89,-0.66 -1.33,-0.9 -0.17,1.18 -0.36,-0.49 -0.56,0.41 -0.21,1.44 -1.55,0.5 0.01,1.2 -2.14,0.16 0,0 0,0 0,0 -2.07,1.37 0,0 0.12,-3.39 -3.43,-2.17 -1.38,2.47 -1,3.91 0,0 -0.36,0 0,0 -7.8,-8.01 1.38,-1.82 0.73,-2.85 -1.1,-1.43 0.47,-0.35 -0.26,-1.6 -1.2,0.09 -1.48,1.79 -1.68,-0.31 -0.11,-2.54 0.87,-1.58 -1.3,-1.12 -2.44,0.57 1.26,-4.23 -0.12,-4.64 1.01,-0.63 0,0 3.78,0.36 0.33,0.96 0.93,-0.08 3.12,-2.56 1.58,-0.41 0.16,1.92 1.8,-0.4 -0.05,-0.49 0.95,-0.11 0.02,-1.35 3.59,-2.62 0.11,-1.59 1.32,0.57 1.93,-0.86 0.35,2.86 1.01,0.51 z"
     title="Toledo"
     id="ES-TO" />
  <path
     d="m 328.64737,92.597342 1.89,0.24 -0.72,0.55 0.54,0.76 -1.22,0.09 -0.38,0.9 2.71,1.55 -0.49,1.26 0.82,0.34 -0.62,0.25 0.46,1.14 -0.52,0.849998 1.11,-0.559998 0.85,0.369998 1.26,0.93 -0.59,0.79 1.11,1.38 -0.21,0.63 1.49,-0.08 -0.52,1.72 -1.52,-0.29 0.35,0.96 1.22,0.57 0.6,-0.49 0.13,1.61 0,0 -5.51,1.21 -1.96,1.38 -3.1,0.12 -2.65,1.04 -1.29,1.98 -1.51,-0.82 -4.29,1.45 -8.71,9.59 1.04,1.37 1.14,0.17 0.37,-0.34 -1.73,-0.72 1.4,-0.06 1.8,2.34 1.35,0.07 -0.15,1.45 -3.46,2.26 -2.65,3.2 -1.59,0.26 -0.69,-0.91 3.37,-0.82 1.18,-1.58 -4.4,0.57 -2.63,3.99 0,0 -2.37,-0.97 0.18,-1.25 -1.29,-0.97 0,0 -3.78,-1.11 0,0 -0.32,-1.19 0.72,-1.17 -1.71,-0.55 -0.3,-1.25 -1.7,0.01 0,0 -0.35,-0.72 0.5,0.38 0,-0.56 1.68,-0.5 1.48,-2.16 -1.2,-2.58 1.67,-3.46 -1.06,-1.76 0.64,-0.24 -1.83,-2.09 0,0 -0.59,-0.54 0,-1.71 1.43,-0.14 0.16,-0.81 1.54,-0.58 0.59,-2.47 1.81,-0.45 0.13,-1.72 0,0 1.46,0.11 0.05,-1.81 0.81,-0.58 1.29,1.84 0.67,-0.02 0.9,-1.48 1.3,1.35 0.96,0.1 3.79,-1.09 0.3,-0.65 1.79,0.2 0.78,-1.35 0.57,0.97 3.1,-0.71 0.53,-1.49 1.39,-0.719998 1.48,-2.04 -1.16,-0.82 0.07,-0.86 2.22,1.39 2.11,-0.86 -0.5,-1.89 1.42,-0.58 0.28,-0.86 5.63,0.47 -0.35,-0.73 z"
     title="Tarragona"
     id="ES-T" />
  <path
     d="m 250.84737,157.31734 0.63,0.44 0.51,-0.56 3.49,-0.27 1.82,1.03 0.35,-0.33 0.55,1.3 -0.3,2.37 0.74,0.81 0.77,0.19 2.02,-1.34 0,0 2.06,2.63 1.21,-1.49 1.07,0.66 0.12,3.26 0.66,0.31 1.31,0.19 0.34,-1.25 1.43,-0.91 2.28,3.23 1.89,-1.81 0.52,-1.58 1.52,-0.06 2.06,2.28 2.22,0.87 0,0 -0.78,2.99 -1.1,0.84 -2.04,4.05 -0.55,3.96 1.28,4.62 2.35,4.72 -0.74,0.49 0.1,1.83 1.52,3.61 4.6,5.92 0,0 0.11,1.12 -1.12,-1.12 -2.38,1.07 -0.39,-1.14 -2.14,1.33 -2.46,-1.1 -2.19,1.84 -0.61,-0.21 -2.22,1.41 -3.24,0.12 -0.49,0.41 0.37,0.86 0.75,0.57 0.87,-0.52 0.75,0.95 -3.4,2.21 -0.78,-1.61 -1.96,-0.24 -0.85,-1 -3.06,1.06 -0.83,-1.51 -1.3,0.15 -0.76,-0.66 0,0 0.14,-4.23 -1.07,-2.08 -5.75,0.6 -3.69,-4.78 0.34,-2.17 2.3,-4.16 0.49,-3.9 -4.52,-1.29 -0.73,0.36 -2.39,-1.83 -1.26,0.76 0.07,-1.49 -0.63,0.3 -0.33,-1.25 -0.65,0.19 0,0 0.27,-0.43 -0.75,-0.11 0.51,-5.24 1.3,-0.5 1.35,-3.11 1.52,-1.38 1.71,0.76 1.02,-0.29 0.54,-0.83 -0.41,-1.51 1.85,-2.85 0.46,-2.02 -0.25,-3.36 1.98,-1.15 z m -9.4,-6.93 2.82,0.66 1.24,-0.83 -0.2,-1.41 0.76,-1.07 0.43,1.61 1.23,1.02 -0.02,1.19 3,0.09 2.31,2.13 -0.37,0.97 -2.48,1.04 0,0 -2.54,0.6 -3.95,-0.85 -1.33,-3.08 0.39,-0.31 -1.49,-1.18 0.2,-0.58 z"
     title="Valencia"
     id="ES-V" />
  <path
     d="m 116.49737,71.177342 1.23,1.84 1.82,0.9 0,0 -0.79,0.7 0.5,0.46 -0.22,1.44 -1.43,-0.71 0.37,-1.19 -1.48,-3.44 z m 5.33,-6.69 0.57,-0.62 0.82,0.2 -0.05,0.71 0,0 -1.04,0.87 -0.3,-1.16 z m -0.9,8.98 -0.36,-7.42 0.82,-0.15 1.65,1.07 0.63,-1.27 0.65,0.79 0.74,-0.15 0.42,-0.63 -0.8,-0.41 0.54,-1.39 1.65,0.38 2.17,-1.97 1.76,2.25 0.51,-1.64 1.11,0.33 0,0 -0.76,5.58 3.05,0.15 0.72,2.96 -1.4,1.13 0.42,1.36 -0.91,0.45 -1.21,2.46 0.66,1.53 1.05,-0.98 0.66,0.77 1.81,-0.69 2.45,4.67 3.67,-3.38 3.18,3.61 0.52,-0.76 1.14,0.32 1.19,-0.81 0.37,0.93 -0.8,0.01 -0.42,2 1.44,0.5 1.92,-1.15 2.27,0.98 2.51,-2.07 0.64,0.59 2.82,-0.32 0.73,1.35 1.8,0.25 0,0 -1.09,1.73 1.54,1.38 -0.28,2.94 0.9,0.05 0.78,1.47 0,0 -0.59,2.75 -2.01,0.87 -6.01,1.8 -0.28,-0.44 -2.83,0.46 -0.08,0.57 -1.66,-0.16 -1.51,1.09 -1.43,0.14 0.94,1.749998 -0.63,0.8 1.13,2.09 -1.87,-1.03 -0.95,0.77 -1.14,-0.75 0.71,1.85 -2.36,2.19 0.71,2.06 -1.62,-0.61 -1.27,1.48 0,0 -1.97,0.23 -0.84,0.58 -0.04,1.05 -1.49,0.38 -3.87,-2.71 -4.15,1.17 0,0 -1.68,-1.43 -1.18,0.31 -0.74,-1.52 -1.41,0.06 -0.01,0.55 0,0 -1.31,0.14 -0.27,-0.63 1.43,-1.31 0.06,-1.75 -1.32,-4.13 0.83,-1.769998 -0.97,-0.47 0.44,-1.21 -0.61,-0.98 3.56,-2.01 -1.97,-1.88 0.69,-1.09 -1.79,-0.6 0.02,-2.69 -0.92,-0.73 -0.11,-1.19 -0.41,0.37 -0.5,-1.67 3.43,-2.17 -0.23,-0.58 -1.3,-0.14 1.1,-3.65 -1.27,-0.72 2.47,-1.82 -0.8,0.12 -2.98,-2.59 z"
     title="Valladolid"
     id="ES-VA" />
  <path
     d="m 189.50737,26.947342 0.92,0.76 1.12,-0.12 1.47,-0.63 0.32,-1.74 0.3,0.26 0.82,-0.22 1.36,2.75 -1.14,1.71 2.42,2.05 0.93,-0.23 2.89,1.05 4.18,0.29 -0.86,-2.27 3.53,-0.58 0,0 0.67,1.83 -0.76,1.03 -1.44,0.44 -0.19,1.13 0.67,0.75 1.18,0.59 0.22,-0.97 5.54,0.98 1.61,1 0.39,0.99 1.19,0.28 0,0 0.56,2.17 -1.48,2.45 0.57,1.54 -1.67,0.37 -0.21,0.64 1.08,2.87 -2.87,0.86 0.18,-0.68 -1.21,-0.5 -2.06,2.1 -0.52,-0.18 0.29,1.29 0.87,-0.08 0.27,0.84 0.99,-1.66 0.75,0.33 0.14,3.41 -0.92,0.22 0.04,0.93 0,0 -2.89,-0.03 0.15,-1.24 -0.62,1.5 -1.16,-0.42 -0.9,0.88 -0.26,-1.27 -1.3,0.84 -0.86,-1.76 -0.91,0.37 0.77,-3.23 -2.55,-1.18 -0.43,1.7 -1.45,1.12 -0.48,-1.11 0.64,-1.37 -0.67,0.25 -0.5,-1.23 0,0 -1.16,-0.7 -0.2,-1.6 -0.86,-0.61 -1.54,0.18 -1.09,-1.53 -0.75,0.08 -0.27,-1.13 -3.01,0.37 0.76,-1.36 -1.1,-0.64 1.41,-2.35 -0.05,-1.18 -1.4,1.37 -0.92,-0.55 -0.97,1.29 0.51,0.47 -2.37,-2.01 1.78,-3.1 2.46,0.63 -0.15,0.73 1.84,0.77 2.17,-0.4 1.15,-1.26 -1.81,-1.28 -0.6,-1.42 -3.61,-0.77 1.1,-0.33 0.05,-1.56 -0.55,-0.29 0.74,-0.97 -1.47,-0.99 1.19,-1.73 z m 9.65,15.76 2.92,-0.42 2.7,1.24 1.27,-0.25 0.4,0.85 0.95,-0.52 -1.55,2.78 0.96,1.15 1.71,-0.66 0.14,1.57 -3.6,-0.06 -0.75,-1.02 -3.34,0.27 -0.51,-1.37 -2.58,-1.7 1.01,-2.35 0,0 0.27,0.49 z"
     title="Alava"
     id="ES-VI" />
  <path
     d="m 258.25737,44.437342 -0.66,1.75 1.3,0.52 -0.4,1.08 -1.06,0.25 0.7,2.3 -0.9,1.17 0.48,0.72 0.59,-0.19 0.08,0.83 -1.13,1.41 1.25,-0.16 0.46,2 -0.85,1.04 2.77,1.72 -0.89,0.44 -2.26,5.33 0.88,0.61 0.38,-1.69 1.96,0.71 1.25,-3.35 -0.17,-1.9 1.27,0.89 0.23,2.98 -0.93,1.41 0.36,4.45 -0.47,3.62 -0.98,0.53 -0.31,-1.7 -2.46,3.82 3.28,1.9 3.69,0 0.85,1.85 1.08,0.55 -0.26,0.67 1.48,0.47 1.18,1.42 0.49,3.09 -0.57,1.31 0.92,-0.1 3.53,1.79 0.37,2.06 1.53,0.56 2.04,2.06 1.23,-1.17 1.52,0.5 -0.01,2.24 1.59,2.03 0.99,4.419998 0.71,0.68 1.27,0.51 -0.49,-1.999998 1.04,1.489998 2.56,0.42 2.19,-2.309998 0.5,0.5 1.17,-0.37 0.8,-1.02 2.76,0.83 0,0 -0.46,0.55 1.65,1.809998 -0.78,0.84 1.14,2.07 0,0 -0.13,1.72 -1.81,0.46 -0.58,2.47 -1.55,0.58 -0.16,0.81 -1.43,0.14 0,1.71 0.59,0.53 0,0 -2.29,0.34 -2.25,-0.66 -1.09,1.33 -1.92,-3.31 -4.75,-2.42 -1.37,-0.09 -2.85,-2.75 -0.59,0.66 -2.11,-1.26 -0.7,-0.88 0.25,-0.72 -1.52,-0.26 -0.3,-1.13 -2.69,-0.33 -0.44,1.33 1.68,1.35 0.54,2.03 -0.67,0.42 -2.27,-3.88 -0.75,0.47 0.14,2.59 -1.35,0.46 1.82,1.83 -2.58,3.23 -2.07,-2.33 -0.83,2.5 -1.23,0.47 -0.96,-0.47 -0.72,-1.65 -0.89,2.26 -1.38,0.67 -1.26,-0.76 0.8,-2.36 -0.87,0.78 -1.18,-0.02 -2.01,-1.34 -0.52,1.33 -1.61,0.45 -1.1,-0.61 -1.37,0.66 -0.52,0.78 0.56,1.05 -1.05,1.16 -2.05,-0.35 -0.05,-1.26 -1.51,0.9 -0.18,1.27 -2.01,0.81 0.91,1.56 -0.8,1.12 -0.99,-0.62 -1.62,1 -1.82,-0.17 0,0 -5.68,-5.9 -3.99,-2 -0.82,-1.38 -2.84,1.04 0,0 -0.87,-0.98 -2.03,-0.54 -0.84,-4.22 0.32,-2.73 1.45,-1.09 0.44,-2.599998 2.02,0.77 0.2,1.739998 2.8,-0.939998 -0.47,-2.25 -0.85,-0.98 0.42,-2.43 -0.8,-2.21 2.16,0.07 1.96,-2.58 1.62,-0.11 -0.18,-0.91 0.78,-0.53 0.35,-1.04 -1.04,-0.49 0.2,-0.6 -1.54,-1.57 1.08,-2.62 -1.21,-2.3 0.02,-2.34 0,0 0.29,-1.71 0,0 0.41,0.53 2.05,-0.03 1.59,1.6 1.87,-0.35 2.94,2.12 4.53,-0.21 3.25,-5.1 -0.18,-1.21 -1.28,-0.03 -1.43,-2.19 0.22,-2.2 -0.79,-1.33 0.57,-3.28 2.14,-2.65 -0.94,-0.95 0.56,-1.89 2.11,-2.42 -0.47,-1.68 0.72,-1.41 1.18,0.61 0.72,-0.31 0.03,-1.19 1.34,-0.88 -0.67,-0.35 0.68,-0.11 0.16,-1.54 3.05,0.22 0.77,-2.4 1.81,-0.15 1.41,-1.68 z"
     title="Zaragoza"
     id="ES-Z" />
  <path
     d="m 77.72737,64.727342 2.47,1.82 2,-0.32 0.78,0.58 2.67,-0.01 0.88,0.88 2.13,-0.82 3.54,-0.19 0.58,1.18 2.5,1.23 1.6,-0.73 4.03,0.34 2.31,1.4 0.17,-0.75 1.12,0.05 0.43,-0.64 1.62,1.87 2.29,-1.04 0.82,0.93 2.04,-0.28 -0.31,-0.74 0.6,-0.16 1.47,1.53 -0.45,0.97 1.4,0.17 0.06,1.09 1.04,-0.53 0.29,-1.47 0.69,0.09 0,0 1.47,3.44 -0.37,1.2 1.43,0.7 0.22,-1.44 -0.5,-0.46 0.79,-0.7 0,0 1.39,-0.45 0,0 2.94,2.58 0.79,-0.11 -2.47,1.81 1.28,0.72 -1.1,3.65 1.3,0.14 0.23,0.58 -3.43,2.17 0.5,1.67 0.41,-0.37 0.11,1.2 0.92,0.73 -0.02,2.69 1.79,0.61 -0.69,1.09 1.97,1.88 -3.56,2.01 0.61,0.97 -0.44,1.21 0.97,0.47 -0.83,1.769998 1.32,4.13 -0.06,1.75 -1.43,1.31 0.27,0.63 1.31,-0.14 0,0 -0.28,2.28 -0.95,0.35 -0.86,-0.96 -1.33,-0.19 -0.23,-1.63 -2.12,0.3 -0.23,1.33 -0.03,-1.36 -2.45,-1.55 -0.7,0.6 -1.24,-0.49 -0.88,-1.27 -3.32,1.21 -4.07,-0.92 -0.72,0.83 0.25,1.62 -1.23,1.55 -0.8,-1.4 -1.31,0.78 0.4,-1.83 -1.63,-0.84 -2.22,1.25 -5.62,-3.28 -4.98,-0.94 0,0 1.29,-0.46 0.69,-1.73 1.09,-0.34 -0.27,-1.19 2.19,-0.04 -0.5,-0.969998 1.18,-1.02 -0.32,-0.59 3.57,-5.11 -0.24,-0.6 -2.64,-2.57 -1.84,-0.86 -3.13,-0.46 -1.64,1.13 -1.53,-1.17 -0.64,-2.37 1.64,-5.25 -1.71,-0.49 0.76,-2.3 -1.17,-1.1 -1.13,1.09 -2.41,0.26 -1.55,-0.42 -0.56,-1.66 -1.31,-0.35 -0.58,2.01 -3.41,-0.01 -0.5,-1.03 -0.79,-0.17 0,0 0.69,-2.23 -0.42,-1.15 -1.16,0.1 -0.64,-0.89 0.93,-0.39 0.41,-1.54 1.03,-0.34 0.39,-1.77 1.3,-0.71 0.44,-1.02 1.33,-0.58 1.73,0.52 -0.49,-0.95 z"
     title="Zamora"
     id="ES-ZA" />
</svg>
