<?xml version="1.0" encoding="UTF-8" standalone="no"?>
<!-- Created for MapSVG plugin: http://mapsvg.com -->
<svg
   xmlns:mapsvg="http://mapsvg.com"
   xmlns:dc="http://purl.org/dc/elements/1.1/"
   xmlns:rdf="http://www.w3.org/1999/02/22-rdf-syntax-ns#"
   xmlns:svg="http://www.w3.org/2000/svg"
   xmlns="http://www.w3.org/2000/svg"
   mapsvg:geoViewBox="-58.439112 -30.085215 -53.169667 -35.031419"
   width="547.23975"
   height="594.42578">
  
  <path
     d="m 160.15076,278.0713 0,0 2.22,-0.13 2.57,-0.6 1.09,0.07 3.98,0.76 1.35,0.1 1,-0.07 1.27,-0.3 0.72,-0.04 1.78,0.23 5.62,1.74 1.09,0.66 5.63,4.77 1.4,0.93 3.28,1.75 -0.47,5.55 -3.24,13.59 -0.43,1.8 -2.04,2.42 -1.02,1.82 -0.38,2.27 0,1.51 0.26,2.42 -1.02,4.09 -1.78,3.64 -0.91,3.65 -1.95,-0.64 -1.87,0.64 -1.16,1.49 -2.02,0.92 -3.04,0.11 -1.8,0.8 -1.39,1.31 -0.9,0.97 -1.14,2.66 0.01,0.82 0.04,1.94 -1.32,0.42 -1.93,-0.34 -1.76,0.49 -0.57,1.12 0.07,1.22 0.5,2.29 -0.43,1.39 -1,-0.32 -1.69,-1.53 -0.55,-0.33 -0.7,-0.7 -0.87,-0.6 -1.06,-0.04 -1.19,0.87 -0.02,1.03 0.42,0.95 0.09,0.57 -1.45,0.31 -2.26,0.13 -1.73,0.42 0.18,1.19 1.48,1.86 -0.01,0.85 -1.27,0.25 -2.33,0 -2.01,-0.4 -4.18,-1.78 -1.9,-0.4 -1.77,0.47 -1.86,1.17 -1.72,1.48 -1.33,1.44 -0.8,0.47 -1.8,0.28 -0.52,0.54 -0.04,1.35 0.72,0.7 1.07,0.09 0.98,-0.47 2.23,0.91 -0.25,1.46 0.57,3.67 0,0.73 -0.9,0.33 -2.57,1.6 -4.6,2.05 -1.13,0.2 -1.22,-0.53 -0.56,-1.31 -0.61,-3.26 -1.05,1.58 -1.68,1.82 -1.55,0.43 -1.14,-4.81 -1.23,-1.48 -1.8,-0.97 -4.19,-1.41 -1.06,-0.18 -1.14,0.08 -1.22,0.55 -2.12,1.56 -1.18,0.33 -1.11,-0.51 -0.52,-1.21 -0.15,-1.52 0,-1.36 -0.39,-0.93 -0.95,-0.77 -4.5,-2.39 -2.29,-0.35 -2.18,0.5 -1.98,1.39 -0.78,0.35 -3.43,0.94 -0.7,0.55 -1.02,2.66 -0.76,0.97 -1.98,0.43 -3.93,-1.61 -3.08,-0.76 -1.49,-1.13 -1.14,-0.27 -1.22,0.16 -2.15,0.64 -1.25,0.03 -1.59,-0.56 -2.87,-1.73 -1.78,-0.29 -1.88,0.54 -1.21,1.1 -1.06,1.36 -1.46,1.33 -1.53,0.65 -3.05,0.79 -1.02,1 -0.36,1.86 0.22,1.49 -0.43,1.03 -2.3,0.56 -1.73,-0.22 -1.5,-0.57 -1.47,-0.35 -1.67,0.45 -1.06,0.89 -0.04,0.86 1.1,2.44 0.04,0.83 -0.07,1.09 0.02,0.95 0.58,0.69 1.31,1.26 0.29,0.2 0.13,2.02 -0.42,2.02 -0.82,1.06 -1.06,-0.92 -0.54,-0.08 -1.75,-1.68 -1.21,-0.75 -3.45,1.87 -1.1,1.1 -0.3,1.24 -0.05,4.63 -0.47,2.08 -1.16,0.54 -2.93,-0.49 -4.9,0 -1.89,1.19 -5.53,7.28 -9.79,5.82 -0.02,0.01 -2.16,-1.83 -0.65,-2.42 0.65,-2.24 1.58,-1.97 3.69,-3.66 1.07,-2.46 0.16,-2.82 -1.73,-10.64 -0.09,-5.19 1.6,-3.93 4.21,-1.57 9.54,0.57 4.4,-0.37 3.77,-1.88 3.85,-3.62 1.69,-2.21 0.69,-2.06 0.17,-2.84 0.48,-2.2 1.52,-4.61 0.76,-4.9 -0.89,-3.66 -2.06,-2.92 -4.44,-4.71 -1.06,-2.03 -0.55,-2.23 -0.16,-2.56 0.19,-5.5 -0.19,-2.78 -0.76,-2.12 0.76,-0.91 -0.87,-3.13 -1.13,-8.51 -1.22,-1.74 -0.82,-1.93 -1.47,-6.46 0.01,0 3,-0.56 5.24,-0.31 0.87,0.16 1.14,0.49 0.67,0.42 0.47,0.4 0.33,0.39 0.02,0.03 2.78,3.29 0.45,0.4 0.49,0.35 2.24,1.23 0.44,0.4 0.34,0.48 0.55,1.07 0.64,2.1 0.13,0.26 0.28,0.38 0.81,0.35 1.23,0.29 2.44,0.26 2.14,0.62 1.02,0.71 1.25,0.28 8.99,0.92 0.54,0.33 0.76,0.16 0.93,-0.1 1.54,-0.71 0.73,-0.68 0.48,-0.66 0.36,-2.45 0.17,-0.72 0.28,-0.6 0.33,-0.51 0.46,-0.39 17.83,-2.69 1,-0.7 0.42,-0.45 0.74,-0.96 0.3,-0.57 0.67,-1.74 0.04,-0.09 0.1,-0.24 0.49,-0.98 0.38,-0.47 0.46,-0.37 0.57,-0.25 2.42,-0.77 0.48,-0.27 0.95,-0.9 0.33,-0.44 0.81,-0.86 0.92,-0.74 0.53,-0.28 1.04,-0.09 1.36,0.06 3.68,0.64 0.98,0.06 2.67,-0.46 1.76,-0.64 1.57,-0.92 0.73,-0.11 0.88,0.08 2.2,0.99 0.97,0.31 1.03,0.1 1.85,-0.29 0.99,-0.3 0.78,-0.35 6.71,-4.88 1.09,-0.54 0.96,-0.21 6.51,-0.08 1.33,-0.25 0.57,-0.24 1.03,-0.59 1.93,-1.45 1.04,-0.57 0.53,-0.2 1.12,0.11 1.54,0.4 5.61,2.59 3.24,1.99 2.5,0.59 2.27,0.14 z"
     title="Río Negro"
     id="UY-RN" />
  <path
     d="m 141.86076,205.1313 0,0 0.99,-0.15 1.41,-0.52 0.79,-0.43 0.63,-0.45 0.44,-0.38 0.64,-0.21 0.78,-0.03 4.51,1.73 2.12,0.52 1.18,-0.05 8.87,-1.94 1.23,0 1.74,0.26 0.98,0.3 0.73,0.36 2,1.36 0.63,0.23 0.71,0.13 4.28,0.04 1.14,0.16 0.85,0.25 5.18,3.31 1.31,0.42 0.71,0.12 5.29,0.18 7.28,2.22 0.66,0.08 1.11,-0.03 1.69,-0.3 1.35,-0.45 0.57,-0.43 0.49,-0.55 0.52,-1.02 0.2,-0.58 0.29,-1.35 0.64,-0.91 3.13,-3.36 0.9,-1.22 0.56,-1.03 0.2,-0.68 1.54,-1.16 5.41,-1.42 3.36,4.05 0.49,1.06 0.44,1.19 0.04,0.79 -0.16,2.63 0.11,2.83 0.25,0.97 0.3,0.73 2.45,3.07 0.38,0.73 0.22,0.76 -0.08,0.86 -0.24,0.6 -0.37,0.36 -0.45,0.15 -0.87,0.15 -1.09,0.39 -0.52,0.3 -0.46,0.37 -0.33,0.86 -0.24,1.22 0.04,5.15 -0.06,0.84 -0.01,0.02 -0.43,5.13 -0.68,2.53 -0.53,1.22 -1.18,2.15 -0.49,1.42 -2.95,13.48 -0.75,2.13 -3.1,3.64 -3.44,3.23 -3.82,2.8 -3.02,2.79 -1.73,2.67 -5.47,16.52 -3.28,-1.75 -1.4,-0.93 -5.63,-4.77 -1.09,-0.66 -5.62,-1.74 -1.78,-0.23 -0.72,0.04 -1.27,0.3 -1,0.07 -1.35,-0.1 -3.98,-0.76 -1.09,-0.07 -2.57,0.6 -2.22,0.13 -2.27,-0.14 -2.5,-0.59 -3.24,-1.99 -5.61,-2.59 -1.54,-0.4 -1.12,-0.11 -0.53,0.2 -1.04,0.57 -1.93,1.45 -1.03,0.59 -0.57,0.24 -1.33,0.25 -6.51,0.08 -0.96,0.21 -1.09,0.54 -6.71,4.88 -0.78,0.35 -0.99,0.3 -1.85,0.29 -1.03,-0.1 -0.97,-0.31 -2.2,-0.99 -0.88,-0.08 -0.73,0.11 -1.57,0.92 -1.76,0.64 -2.67,0.46 -0.98,-0.06 -3.68,-0.64 -1.36,-0.06 -1.04,0.09 -0.53,0.28 -0.92,0.74 -0.81,0.86 -0.33,0.44 -0.95,0.9 -0.48,0.27 -2.42,0.77 -0.57,0.25 -0.46,0.37 -0.38,0.47 -0.49,0.98 -0.1,0.24 -0.04,0.09 -0.67,1.74 -0.3,0.57 -0.74,0.96 -0.42,0.45 -1,0.7 -17.83,2.69 -0.46,0.39 -0.33,0.51 -0.28,0.6 -0.17,0.72 -0.36,2.45 -0.48,0.66 -0.73,0.68 -1.54,0.71 -0.93,0.1 -0.76,-0.16 -0.54,-0.33 -8.99,-0.92 -1.25,-0.28 -1.02,-0.71 -2.14,-0.62 -2.44,-0.26 -1.23,-0.29 -0.81,-0.35 -0.28,-0.38 -0.13,-0.26 -0.64,-2.1 -0.55,-1.07 -0.34,-0.48 -0.44,-0.4 -2.24,-1.23 -0.49,-0.35 -0.45,-0.4 -2.78,-3.29 -0.02,-0.03 -0.33,-0.39 -0.47,-0.4 -0.67,-0.42 -1.14,-0.49 -0.87,-0.16 -5.24,0.31 -3,0.56 -0.01,0 -0.61,-2.68 -0.28,-2.76 0,0 0.04,-0.29 1,-1.32 2.57,-5.4 6.5,-9.49 0.52,-3.69 -1.07,-3.53 -7.01,-9.43 -1.16,-2.57 0.58,-2.48 2.27,-3.74 1.07,-4.68 0.31,-5.45 -0.38,-5.16 -1,-3.79 -3.24,-3.7 -1.26,-2.44 0.68,-2.48 2.81,-3.21 1.62,-1.21 2.26,-0.99 4.86,-0.97 2.48,-1 1.07,-1.73 6.18,-18.62 0.93,-5.3 -0.75,-5.38 -2.72,-3.43 -2.63,-2.05 0.33,-0.18 1.68,-0.86 1.54,-0.43 1.62,0.21 1.77,0.47 1.15,-0.04 0.52,-0.08 0.13,-0.1 0.02,-0.06 0.11,-1.15 0.11,-0.64 0.33,-0.45 0.48,-0.3 3.79,-0.96 0.81,-0.02 1.06,0.18 2.7,1.04 6.79,3.84 0.89,0.79 0.36,0.45 0.29,0.52 1.31,4.24 0.23,0.56 0.29,0.52 0.38,0.46 0.47,0.37 0.52,0.31 0.74,0.28 15.1,3.31 7.33,3.79 3.45,2.46 1.1,0.63 2.45,0.96 2.48,0.35 2.9,0.1 1.89,0.45 1.07,0.43 0.49,0.5 2.24,3.49 0.75,0.88 1.39,1.12 2.32,1.13 8.14,2.35 1.12,0.59 3.79,2.94 1.19,0.32 8.67,1.06 1.32,0.39 0.92,0.01 z"
     title="Paysandú"
     id="UY-PA" />
  <path
     d="m 145.04076,372.4313 0,0 5.55,-0.79 3.4,0.42 5.92,1.4 1.19,0.49 0.46,0.39 0.77,0.92 0.57,1.06 0.41,1.22 0.3,2.1 0.31,0.81 0.55,0.83 1.25,1.17 0.94,0.5 0.9,0.31 4,0.19 3.41,0.83 5.69,2.24 1.09,0.68 0.36,0.47 2.03,3.75 6.34,7 0.47,0.65 0.67,0.78 0.56,0.87 0.32,0.69 0.34,1.14 0.1,0.68 0.18,2.97 0.1,0.69 0.68,1.45 1.95,2.31 1.59,3.24 5.85,21.47 1.53,2.35 1.77,3.48 0.44,1.31 0.23,1.1 -0.57,11.51 -0.11,0.8 -0.2,0.71 -0.23,0.65 -0.29,0.59 -0.32,0.54 -0.36,0.49 -0.86,0.91 -1.25,1.03 -11.23,-5.74 -3.16,-0.77 -4.15,3.44 -2.11,1.25 -2.35,0.94 -7.04,1.77 -0.43,0.22 -0.3,0.2 -1.71,1.48 -4.26,5.21 -0.84,0.55 -1.2,0.62 -2.53,1 -1.41,0.35 -1.17,0.11 -14.83,-2.88 -4.39,-0.26 -0.82,-1.37 -1.81,-2.49 -0.29,-0.53 -0.23,-0.59 -0.38,-1.27 -0.46,-3.1 -0.24,-0.86 -0.26,-0.71 -0.41,-1.43 -0.29,-1.82 -0.19,-0.71 -1.21,-2.91 -4.28,-7.4 -0.17,-0.44 -0.11,-0.41 0.04,-1.54 1.54,-12.09 0.18,-0.71 0.22,-0.65 0.28,-0.55 0.22,-0.59 0.18,-0.66 0,-0.73 -0.32,-0.81 -0.51,-0.46 -0.6,-0.36 -2.83,-0.75 -0.61,-0.26 -1.03,-0.71 -0.89,-0.82 -2.11,-2.91 -0.42,-0.42 -0.39,-0.46 -0.34,-0.51 -0.21,-0.74 -0.14,-0.95 -0.05,-1.45 -0.23,-1.58 -0.12,-0.33 -0.01,-0.02 -0.02,-0.05 -1.67,-2.19 -0.28,-0.54 -0.21,-0.6 -1.15,-5.27 -0.25,-0.56 -0.31,-0.53 -0.4,-0.46 -0.46,-0.39 -2.62,-1.75 -0.41,-0.46 -0.31,-0.51 -0.23,-0.65 -0.11,-0.8 0.04,-1.12 1.12,-1.98 10.76,-12.89 1.35,-1.17 7.32,-9.38 0.67,-1.13 1.4,-3.86 4.84,4.81 4.19,2.41 1.12,0.28 z"
     title="Flores"
     id="UY-FS" />
  <path
     d="m 157.54076,1.6413 0,0 3.82,-0.66 3.89,-0.11 3.7,2.58 1.91,3.22 0.98,1.23 6.39,4.4 3.18,1.53 1.74,1.19 1.54,1.5 0.94,1.61 0.34,2.4 -0.32,1.24 0.11,0.78 1.64,1.03 1.04,0.27 0.99,-0.03 1,0.14 1.11,0.7 0.55,0.66 0.91,1.49 3.8,4.37 1.28,1.03 1.72,1.59 5.46,3.5 1.71,1.76 2.48,4.21 1.49,2 1.37,1.21 4.73,2.67 6.01,5.1 3.37,1.7 2.05,1.97 3.24,3.89 0.58,1.31 0.28,1.25 0.44,1.16 1.15,0.98 1.98,1.29 0.89,0.85 0.68,1 3.4,6.66 1.54,1.94 6.72,5.48 1.65,3.29 0.65,3.59 -0.5,3.54 -1.8,3.25 -0.42,2.6 -0.09,7.84 -0.62,5.47 0.02,2.59 0.53,0.85 -0.09,-0.07 -3.83,-2.99 -0.81,-0.83 -1.03,-1.43 -0.76,-0.86 -2.62,-2.25 -1.18,-1.41 -1.54,-2.5 -0.73,-0.91 -2.11,-1.83 -1.68,-1.03 -0.67,-0.26 -16.29,-3.6 -5.7,-2.09 -0.82,-0.2 -1.02,-0.15 -1.86,0.19 -1.02,0.24 -0.73,0.36 -0.39,0.44 -0.36,0.48 -0.59,1.1 -0.75,1.79 -0.61,1.08 -0.37,0.48 -0.88,0.75 -0.46,0.26 -2.31,0.96 -1.02,0.61 -0.44,0.38 -1.47,1.84 -0.44,0.37 -0.51,0.31 -1.2,0.39 -3.43,0.45 -1.17,0.4 -0.96,0.6 -6.02,5.06 -0.94,0.5 -1.12,0.46 -1.27,0.3 -4.93,0.47 -2.44,0.69 -1.46,-0.07 -11.64,-2.12 -2.46,-0.14 -6.75,0.85 -0.68,0.26 -0.99,0.54 -2.77,2.12 -0.55,0.25 -0.61,0.19 -0.67,0.1 -1.03,-0.09 -6.17,-1.85 -2.48,-1.32 -1.95,-1.39 -4.72,-4.72 -0.05,-0.04 -1.53,-1.28 -0.8,-0.48 -4.89,-1.59 -13.58,-7.25 -3.38,-2.41 -0.62,-0.61 -1.68,-1.3 -0.83,-0.35 -1.1,-0.31 -2.1,-0.29 -3.63,0.01 -0.91,-0.17 -0.95,-0.33 -1.23,-0.79 -0.68,-0.58 -0.5,-0.55 -1.7,-2.37 -0.77,-0.87 -1.72,-1.58 -6.66,-5.02 -1.41,-0.83 -1.11,-0.36 -2.81,-0.32 -1.03,0.04 -0.71,0.5 -0.53,0.46 -2.46,3.67 -0.01,0.01 -0.25,-2.17 -0.7,-3.1 -0.94,-4.21 -0.86,-2.67 -2.29,-4.98 -1.51,-2.3 -2.31,-4.62 -0.41,-4.66 1.3,-4.28 2.82,-3.52 20.2,-18.58 2.22,-3.81 0.76,-4.63 -1.46,-5.11 -0.46,-2.61 0.87,-1.13 2.28,-0.07 2.55,2.5 1.99,6.21 3.23,2.15 2.57,0.27 4.49,-0.81 2.47,-0.05 1.37,0.71 1.53,2.41 1.6,0.41 1.01,-0.51 2.34,-2.1 1.31,-0.62 2,0.08 1.29,0.85 1.11,1.01 1.49,0.6 0.8,-0.31 1.27,-1.55 0.6,-0.3 0.82,0.41 1.27,1.4 0.51,0.35 3.33,-0.71 2.97,-2.36 2.04,-3.35 0.56,-3.73 0.77,-3.04 2.18,-3.83 2.8,-3.43 2.58,-1.79 1.02,0.09 1.92,0.92 1.09,0.01 2.01,-1.05 0.72,-0.27 3.76,-0.71 2.06,-0.08 4.94,1.39 z"
     title="Artigas"
     id="UY-AR" />
  <path
     d="m 203.07076,460.8313 0,0 1.4,4.03 3.11,14.91 0.42,5.11 -0.06,1.36 -0.16,1.04 -0.24,0.65 -2.23,3.95 -0.3,0.71 -0.26,0.94 0.02,0.75 0.17,0.65 1.88,4.78 0.5,1.85 0.11,1.2 -0.45,8.21 -0.22,1.18 -0.29,0.58 -0.37,0.48 -0.46,0.4 -1.97,1.07 -0.56,0.39 -0.48,0.63 -0.43,1.06 -0.01,0.78 0.24,0.61 5.65,6.13 0.52,0.75 0.76,1.6 -0.05,2.34 -0.66,2.99 -0.01,0.91 0.07,0.54 0.35,0.61 0.38,0.85 0.48,1.69 0.01,1 -0.23,0.78 -1.73,1.67 -0.77,0.97 -0.68,1.09 -0.38,0.49 -0.45,0.4 -0.49,0.34 -1.23,0.6 -0.67,0.47 -0.74,0.95 -0.32,0.84 -0.12,0.85 0.56,3.48 0.15,3.42 0.21,0.9 0.35,0.65 0.48,0.39 3.32,1.96 3.68,3.24 1.56,1.87 0.75,1.23 1.01,4.44 -0.01,0.9 -0.18,1.05 -0.3,0.46 -0.57,0.58 -1.18,-1.35 -2.01,-0.86 -5.41,-2.2 -3.76,-0.59 -3.63,0.16 -2.2,1.53 -1.65,-0.25 -1.6,-0.76 -3.84,-2.44 -1.8,-0.85 -1.83,-1.25 -6.89,-1.94 -8.39,-1.07 -8.07,-3.53 -1.72,-1.26 -1.38,-3.07 -1.6,-1.53 -3.4,-2.47 -2.43,-2.79 -2.14,-2.11 -1.88,-1.5 -2.77,-1.73 -1.51,-1.37 0.16,-1.71 -0.67,-0.86 -1.5,-1.04 -0.63,-0.57 -1.93,-2.21 -1.85,-1.6 -3.28,-1.5 -1.59,-0.33 6.31,-5.5 0.4,-0.46 0.29,-0.85 0.13,-1.17 -0.09,-2.4 0.12,-1.37 0.57,-1.33 0.62,-0.75 0.51,-0.97 0.75,-2.57 0.06,-0.86 -0.41,-0.7 -2.03,-2.41 -0.32,-0.53 -0.27,-0.57 -0.12,-0.82 0.05,-1.02 0.41,-1.64 0.4,-0.91 0.47,-0.64 2.46,-1.78 1.63,-0.89 4.38,-1.27 0.76,-0.38 0.46,-0.3 4.56,-3.72 0.71,-0.87 0.21,-0.31 0.12,-0.35 0.02,-0.38 -0.07,-0.81 -0.58,-1.31 -3.79,-6.04 -3.34,-3.98 -0.73,-0.56 -1.74,-0.89 -0.52,-0.35 -0.49,-0.75 -0.46,-1.08 -0.86,-3.69 -1.37,-3.03 4.39,0.26 14.83,2.88 1.17,-0.11 1.41,-0.35 2.53,-1 1.2,-0.62 0.84,-0.55 4.26,-5.21 1.71,-1.48 0.3,-0.2 0.43,-0.22 7.04,-1.77 2.35,-0.94 2.11,-1.25 4.15,-3.44 3.16,0.77 11.23,5.74 z"
     title="San José"
     id="UY-SJ" />
  <path
     d="m 47.78076,456.2013 0,0 1.83,-0.07 3.07,-0.56 8.02,0.25 1.03,0.29 1.4,0.72 0.74,0.57 0.55,0.54 0.21,0.34 0.17,0.23 -0.14,-0.15 0.67,0.84 0.48,0.46 1,0.73 14,4.86 2.89,0.24 6.2,-0.61 17.69,-4.83 1.89,0.53 2.21,1.03 1.94,1.17 1.75,1.66 1.94,1.51 0.56,0.31 2.9,0.39 8.48,-0.01 10.7,1.68 1.37,3.03 0.86,3.69 0.46,1.08 0.49,0.75 0.52,0.35 1.74,0.89 0.73,0.56 3.34,3.98 3.79,6.04 0.58,1.31 0.07,0.81 -0.02,0.38 -0.12,0.35 -0.21,0.31 -0.71,0.87 -4.56,3.72 -0.46,0.3 -0.76,0.38 -4.38,1.27 -1.63,0.89 -2.46,1.78 -0.47,0.64 -0.4,0.91 -0.41,1.64 -0.05,1.02 0.12,0.82 0.27,0.57 0.32,0.53 2.03,2.41 0.41,0.7 -0.06,0.86 -0.75,2.57 -0.51,0.97 -0.62,0.75 -0.57,1.33 -0.12,1.37 0.09,2.4 -0.13,1.17 -0.29,0.85 -0.4,0.46 -6.31,5.5 -3.66,-0.77 -9.13,-0.22 -5.62,0.39 -1.88,-1.62 -4.74,0.13 -2.62,1.63 -1.25,-1.62 -2.62,-0.25 -2.87,1.37 -3.62,1.62 -3.24,-3.37 -2.61,-0.13 -3,0.62 -4.12,1.87 -5.74,2.23 -1.87,-0.26 -2.63,1.62 -2.99,-0.26 -3,0.36 -3.37,-0.52 1,-0.99 -0.86,-1.88 -2.87,-0.89 -1.87,-3.01 0.27,-5 -2.58,-2.81 -2.05,-3.41 -7.61,-9.09 -3.38,-1.62 -1.19,-1.9 -1.6,-4.06 -1.8,-1.76 -2.55,-1.07 -2.72,-0.5 -2.38,-0.14 -2.78,-0.57 -1.29,-1.46 -1.19,-4.66 -1.18,-2.63 -8.68,-12.67 -1.88,-1.63 -3.86,-2.35 -1.68,-1.51 -1.43,-2.39 -0.75,-2.54 -0.57,-3.29 0.01,0 0.05,-0.01 3.28,-0.59 1.43,-0.42 9.24,-3.88 9.58,-6.67 1.65,-0.49 1.77,0.21 11.57,3 0.55,0.57 0.64,0.85 0.28,0.52 0.51,1.15 0.38,1.23 0.25,0.59 0.6,1.05 0.34,0.44 0.38,0.33 0.27,0.2 0.46,0.25 0.8,0.21 1.05,0.14 z"
     title="Colonia"
     id="UY-CO" />
  <path
     d="m 505.87076,434.6413 0,0 2.1,0 1.83,-0.36 1.69,0.02 1.67,1.18 0.99,2.02 0.74,2.16 1.26,1.39 3.31,-0.19 -1.77,1.22 -1.9,1.71 -3.7,4.58 -2.27,4.08 -1.29,4.29 -2.05,10.26 -1.96,6.2 -0.54,5.66 -0.98,1.77 -3.59,2.51 -1.72,1.58 -5,6.47 -5.5,4.23 -1.79,2.12 -3.66,7.27 -0.95,1.27 -0.24,1.35 -2.22,7.14 1.67,4.53 -0.13,2.23 -4.19,1.32 -9.5,5.34 -7.58,5.39 -15.64,15.35 -1.25,1.68 -0.42,2.13 0.04,1.92 -0.55,1.39 -9.33,2.11 -2.34,0.19 0.41,-1.06 0.63,-0.81 1.76,-1.61 -0.72,-0.63 -0.65,-0.77 -0.49,-0.94 -0.24,-1.07 0.16,-1.55 1.04,-3.03 0.26,-0.53 -1.51,-1.52 -2.78,-1.2 -2.93,-0.72 -2.02,-0.05 1.16,0.85 3.82,1.71 -0.83,1.56 -1.67,1.71 -1.91,1.35 -1.58,0.57 -0.63,0.83 -0.02,1.7 0.76,1.31 1.67,-0.28 -0.15,-0.97 1.53,0.33 1.89,1.61 0.94,2.75 -0.82,1.58 -1.89,1.59 -23.01,12.39 -0.03,-0.11 -0.49,-1.33 -0.09,-0.68 0.05,-0.97 0.39,-1.25 0.43,-0.73 0.79,-1.07 0.26,-0.5 0.08,-0.58 -0.04,-0.69 -1.36,-4.62 -0.24,-1.42 -0.24,-4.99 0.29,-2.74 0.85,-3.29 0.36,-0.86 1.58,-2.78 0.49,-1.27 0.18,-0.72 0.1,-0.88 -0.06,-1.03 -0.44,-1.49 -0.44,-0.82 -0.87,-1.08 -0.33,-0.52 -0.17,-0.92 -0.23,-3.3 -0.21,-1.11 -0.34,-0.78 -0.7,-0.99 -0.21,-0.9 -0.12,-1.23 0.15,-2.41 0.27,-1.51 0.75,-1.56 0.71,-0.34 0.7,0 0.58,0.23 0.56,0.12 0.45,-0.12 0.25,-0.21 0.26,-0.42 0.52,-3.47 0.39,-7.48 -0.23,-2.84 -0.38,-2.12 -0.25,-7.63 1.05,-6.84 0.19,-0.69 0.24,-0.64 1.16,-2.38 0.22,-0.67 0.28,-1.34 0.06,-0.61 -2.18,-20.92 2.49,-4 3.12,-3.6 0.43,-0.77 0.26,-1.44 0.19,-3.7 0.34,-1.99 0.37,-1.02 0.4,-0.75 0.66,-0.85 2.27,-3.75 0.45,-1.34 0.16,-1.05 -0.97,-7.03 0.46,-2.55 0.96,-1.91 2.19,-2.45 8.24,-4.82 3.86,-3.5 2.2,-7.61 1.82,-0.83 2.41,-0.04 2.46,-0.41 0.72,-0.37 0.59,-0.45 0.49,-0.58 0.44,-0.76 1.21,-1.12 5.41,-1.38 2.5,-1.52 2.42,-2 2.07,-2.43 2.6,-5.45 1.09,-1.07 3.5,-1.02 2.4,-1.6 3.22,-4.52 1.85,-2.03 1.4,-0.83 2.46,-1.07 1.08,-1.14 0.54,-1.3 0.31,-1.41 0.49,-1.41 1.09,-1.33 0.57,-0.51 8.17,-2.36 7.47,-3.23 9.72,-2.28 0.07,-0.01 -1.66,5.62 0.07,9.05 2.27,18.45 -2.34,20.29 -0.29,11.01 2.89,5.06 z"
     title="Rocha"
     id="UY-RO" />
  <path
     d="m 228.12076,567.9113 0,0 1.07,-0.41 0.54,-0.29 0.48,-0.37 0.43,-0.43 0.39,-0.49 0.71,-1.09 0.68,-0.63 0.98,-0.56 2.04,-0.66 0.94,0.02 0.57,0.17 0.45,0.86 0.23,0.57 0.6,1.14 0.47,0.39 0.55,0.34 0.58,0.22 0.44,0.3 0.22,0.26 0.31,0.53 0.43,0.6 0.87,0.69 0.74,0.15 0.86,-0.08 0.86,-0.21 1.37,-0.06 0.62,0.36 0.31,0.6 -0.04,0.76 -0.4,1.36 -1.08,2.57 -0.13,0.68 -0.09,0.8 0.01,2.38 0.35,2.34 0.37,1.24 0.75,1.15 -3.2,1.9 -3.65,-0.32 -3.13,1.8 -1.46,0.94 -0.64,2.61 -2.17,-3.11 -1.77,-0.35 -1.89,-0.73 0.85,-1.13 0.12,-1.4 -1.14,-0.99 -1.64,-0.23 -0.61,1.9 -2.03,1.66 -0.97,0.01 -2.28,-0.35 -2.39,0.34 -3.23,-2.78 -6.17,-3.65 -1.59,-1.47 -0.24,-1.85 1.74,-1.52 1.74,-1.77 2.62,-0.66 -0.34,-0.38 0.57,-0.58 0.3,-0.46 0.18,-1.05 0.01,-0.9 -1.01,-4.44 3.39,-2.02 1.87,-0.56 0.88,0.02 1.11,0.18 0.74,0.29 0.58,0.37 0.82,0.9 0.36,0.48 1.2,2.06 0.45,0.47 0.65,0.47 1.45,0.79 0.87,0.23 0.57,0.08 z"
     title="Montevideo"
     id="UY-MO" />
  <path
     d="m 404.25076,522.1313 0,0 -0.56,-0.12 -0.58,-0.23 -0.7,0 -0.71,0.34 -0.75,1.56 -0.27,1.51 -0.15,2.41 0.12,1.23 0.21,0.9 0.7,0.99 0.34,0.78 0.21,1.11 0.23,3.3 0.17,0.92 0.33,0.52 0.87,1.08 0.44,0.82 0.44,1.49 0.06,1.03 -0.1,0.88 -0.18,0.72 -0.49,1.27 -1.58,2.78 -0.36,0.86 -0.85,3.29 -0.29,2.74 0.24,4.99 0.24,1.42 1.36,4.62 0.04,0.69 -0.08,0.58 -0.26,0.5 -0.79,1.07 -0.43,0.73 -0.39,1.25 -0.05,0.97 0.09,0.68 0.49,1.33 0.03,0.11 -1.16,0.61 -6.37,1.83 -3.32,2.8 -2.09,0.97 -4.37,1.36 -17.78,8.6 -2.15,0.38 -2.05,0.75 -2.63,3.09 -1.98,0.44 0.48,-1.27 0.22,-0.79 0,-0.51 -1.07,-1.66 -1.39,-1.4 -1.82,-0.94 -4.06,-0.52 -0.25,-0.49 0.1,-0.8 -0.68,-1.11 -1.03,-0.78 -0.94,-0.45 -2.23,-0.48 -4.89,0.25 -9.44,2.23 -3.95,-0.77 -2.69,-2.67 -5.32,-7.19 -3.64,-1.99 -0.07,-0.96 -0.19,-0.95 -0.87,-1.69 -2.02,-3 -0.76,-0.8 -0.38,-0.53 -0.3,-0.67 -0.07,-1.04 0.06,-0.86 0.53,-3.07 -0.22,-0.87 -0.51,-0.89 -1.26,-1.21 -1.52,-1.18 -1.08,-1.33 -1.55,-3.53 13.85,-0.78 2.68,-0.67 2.44,-1.17 0.75,-0.49 11.64,-9.89 1.25,-0.42 0.69,-0.12 1.51,-0.04 3.19,0.25 1.41,-0.21 0.63,-0.2 1.27,-0.97 5.63,-5.38 1.89,-1.4 1.4,-0.8 2.2,-0.24 1.25,-0.41 3.18,-1.67 1.89,-0.31 0.86,-0.33 0.96,-0.61 1.54,-1.3 1.83,-0.95 0.59,-0.41 0.46,-0.65 0.35,-1.25 0.2,-2.65 0.28,-1.51 1.81,-6.17 0.32,-0.75 0.54,-0.65 0.96,-0.69 0.67,-0.61 0.5,-0.77 0.37,-1.24 0.32,-2.53 0.19,-0.69 0.1,-0.7 0.01,-0.65 -0.06,-0.52 -0.09,-0.4 -0.27,-0.91 -0.05,-0.39 0.31,-0.98 2.2,-3.82 1.52,-3.42 2.97,-4.52 0.45,-1 0.23,-0.67 0.62,-0.79 0.97,-0.9 2.18,-1.43 1.23,-0.6 1.02,-0.36 5.04,-0.65 2.38,-0.94 0.73,-0.78 0.82,-1.22 1.31,-2.83 0.86,-2.79 0.11,-0.77 0.17,-0.73 1.16,-1.72 4.28,-3.24 2.18,20.92 -0.06,0.61 -0.28,1.34 -0.22,0.67 -1.16,2.38 -0.24,0.64 -0.19,0.69 -1.05,6.84 0.25,7.63 0.38,2.12 0.23,2.84 -0.39,7.48 -0.52,3.47 -0.26,0.42 -0.25,0.21 -0.45,0.12 z"
     title="Maldonado"
     id="UY-MA" />
  <path
     d="m 405.20076,404.9513 0,0 0.94,-0.06 4.08,-1.68 0.5,-0.33 0.46,-0.4 0.38,-0.46 0.35,-0.5 0.54,-1.18 0.3,-1.39 0.22,-0.65 0.35,-0.51 0.46,-0.41 0.56,-0.31 1.16,-0.51 0.54,-0.29 3.32,-2.63 0.8,-0.35 3,-0.73 1.17,-0.05 0.95,0.11 0.58,0.26 0.47,0.38 0.33,0.5 1.04,2.28 1.53,2.63 1.59,1.74 0.89,0.77 2.19,1.25 3.71,1.51 2.7,1.76 2.54,1.24 -0.49,0.58 -0.59,0.45 -0.72,0.37 -2.46,0.41 -2.41,0.04 -1.82,0.83 -2.2,7.61 -3.86,3.5 -8.24,4.82 -2.19,2.45 -0.96,1.91 -0.46,2.55 0.97,7.03 -0.16,1.05 -0.45,1.34 -2.27,3.75 -0.66,0.85 -0.4,0.75 -0.37,1.02 -0.34,1.99 -0.19,3.7 -0.26,1.44 -0.43,0.77 -3.12,3.6 -2.49,4 -4.28,3.24 -1.16,1.72 -0.17,0.73 -0.11,0.77 -0.86,2.79 -1.31,2.83 -0.82,1.22 -0.73,0.78 -2.38,0.94 -5.04,0.65 -1.02,0.36 -1.23,0.6 -2.18,1.43 -0.97,0.9 -0.62,0.79 -0.23,0.67 -0.45,1 -2.97,4.52 -1.52,3.42 -2.2,3.82 -0.31,0.98 0.05,0.39 0.27,0.91 0.09,0.4 0.06,0.52 -0.01,0.65 -0.1,0.7 -0.19,0.69 -0.32,2.53 -0.37,1.24 -0.5,0.77 -0.67,0.61 -0.96,0.69 -0.54,0.65 -0.32,0.75 -1.81,6.17 -0.28,1.51 -0.2,2.65 -0.35,1.25 -0.46,0.65 -0.59,0.41 -1.83,0.95 -1.54,1.3 -0.96,0.61 -0.86,0.33 -1.89,0.31 -3.18,1.67 -1.25,0.41 -2.2,0.24 -1.4,0.8 -1.89,1.4 -5.63,5.38 -1.27,0.97 -0.63,0.2 -1.41,0.21 -3.19,-0.25 -1.51,0.04 -0.69,0.12 -1.25,0.42 -11.64,9.89 -0.75,0.49 -2.44,1.17 -2.68,0.67 -13.85,0.78 0.01,-3.47 -0.57,-1.82 -1.69,-3.24 -4.24,-5.2 -0.56,-0.97 -0.23,-0.51 -0.09,-2.72 0.07,-1.09 1.23,-6.18 0.08,-0.8 -0.15,-1.05 -0.39,-1.15 -4.27,-8.01 -1.37,-4.06 -2.79,-11.25 2.99,-4.3 2.87,-3.04 0.72,-1.01 0.45,-0.93 0.68,-2.27 0.87,-2.09 0.55,-1.06 0.51,-0.79 1.21,-1.36 4.97,-4.32 0.65,-0.78 0.45,-0.74 0.2,-0.68 0.12,-0.74 0.03,-0.68 -0.04,-0.93 -0.01,-0.01 0.39,-1.58 0.51,-0.83 0.7,-0.92 1.19,-1.29 1.09,-1.57 1.28,-3.31 0.86,-1.54 0.4,-0.46 0.92,-0.79 2.04,-1.36 1.28,-1.17 0.57,-0.89 0.33,-0.88 0.27,-4.08 0.4,-1.24 3.5,-8.01 0.34,-1.5 0.3,-3.25 0.01,-0.75 -0.05,-0.74 -0.14,-0.68 -0.21,-0.62 -0.27,-0.55 -2.58,-4.12 -0.27,-0.55 -0.23,-0.59 -0.12,-0.88 0.03,-1.11 0.37,-1.93 0.4,-0.97 0.47,-0.68 0.49,-0.35 1.18,-0.48 3.24,-0.83 1.16,-0.49 0.64,-0.43 0.7,-0.59 0.99,-1.05 0.51,-0.79 1.83,-5.13 0.68,-1.47 0.51,-0.85 0.23,-0.29 0.08,-0.07 0.04,-0.07 0.28,-0.26 0.86,-0.61 1.07,-0.59 3.51,-1.28 0.56,-0.41 0.64,-0.65 1.23,-1.53 0.51,-1.05 0.31,-0.98 0.13,-1.6 -0.1,-2.26 -0.13,-0.68 -0.21,-0.63 -0.54,-1.03 -0.66,-0.95 5.01,-2.99 2,-0.89 5.34,-0.94 0.54,-0.03 0.31,0.11 0.98,0.55 2.02,0.6 0.57,0.3 0.45,0.4 0.69,0.44 0.9,0.38 1.78,0.28 1.02,-0.06 0.81,-0.2 4.6,-2.36 2.62,-1.01 1.02,-0.09 0.78,0.15 1.56,0.59 1.31,0.32 0.81,0.33 0.59,0.41 2.82,3.06 3.53,2.4 3.09,0.87 8.34,1.34 0.67,0.21 0.61,0.26 1.34,1.19 0.55,0.31 6.98,2.21 1.2,0.14 z"
     title="Lavalleja"
     id="UY-LA" />
  <path
     d="m 340.36076,396.6713 0,0 0.66,0.95 0.54,1.03 0.21,0.63 0.13,0.68 0.1,2.26 -0.13,1.6 -0.31,0.98 -0.51,1.05 -1.23,1.53 -0.64,0.65 -0.56,0.41 -3.51,1.28 -1.07,0.59 -0.86,0.61 -0.28,0.26 -0.04,0.07 -0.08,0.07 -0.23,0.29 -0.51,0.85 -0.68,1.47 -1.83,5.13 -0.51,0.79 -0.99,1.05 -0.7,0.59 -0.64,0.43 -1.16,0.49 -3.24,0.83 -1.18,0.48 -0.49,0.35 -0.47,0.68 -0.4,0.97 -0.37,1.93 -0.03,1.11 0.12,0.88 0.23,0.59 0.27,0.55 2.58,4.12 0.27,0.55 0.21,0.62 0.14,0.68 0.05,0.74 -0.01,0.75 -0.3,3.25 -0.34,1.5 -3.5,8.01 -0.4,1.24 -0.27,4.08 -0.33,0.88 -0.57,0.89 -1.28,1.17 -2.04,1.36 -0.92,0.79 -0.4,0.46 -0.86,1.54 -1.28,3.31 -1.09,1.57 -1.19,1.29 -0.7,0.92 -0.51,0.83 -0.39,1.58 0.01,0.01 0.04,0.93 -0.03,0.68 -0.12,0.74 -0.2,0.68 -0.45,0.74 -0.65,0.78 -4.97,4.32 -1.21,1.36 -0.51,0.79 -0.55,1.06 -0.87,2.09 -0.68,2.27 -0.45,0.93 -0.72,1.01 -2.87,3.04 -2.99,4.3 -12.84,1.82 -2.83,0.96 -6.97,4.29 -0.88,0.34 -1.17,0.32 -2.32,0.31 -1.19,-0.03 -0.84,-0.16 -5.42,-2.67 -2.12,-0.63 -1.37,-0.1 -0.99,0.1 -9.17,6.06 -0.97,0.82 -0.63,0.72 -0.28,0.61 -1.32,4.01 -0.9,1.73 -0.78,0.98 -1.05,0.49 -5.1,1.13 -1.72,0.12 -1.19,-0.13 -4.53,-2.54 -1.17,-0.4 -1.02,-0.17 -1.5,-0.06 -3.07,0.22 -1.72,0.44 -1.33,0.55 -1.04,0.64 -1.04,1.91 -1.79,6.31 -0.76,-1.6 -0.52,-0.75 -5.65,-6.13 -0.24,-0.61 0.01,-0.78 0.43,-1.06 0.48,-0.63 0.56,-0.39 1.97,-1.07 0.46,-0.4 0.37,-0.48 0.29,-0.58 0.22,-1.18 0.45,-8.21 -0.11,-1.2 -0.5,-1.85 -1.88,-4.78 -0.17,-0.65 -0.02,-0.75 0.26,-0.94 0.3,-0.71 2.23,-3.95 0.24,-0.65 0.16,-1.04 0.06,-1.36 -0.42,-5.11 -3.11,-14.91 -1.4,-4.03 1.25,-1.03 0.86,-0.91 0.36,-0.49 0.32,-0.54 0.29,-0.59 0.23,-0.65 0.2,-0.71 0.11,-0.8 0.57,-11.51 -0.23,-1.1 -0.44,-1.31 -1.77,-3.48 -1.53,-2.35 -5.85,-21.47 -1.59,-3.24 8.11,0.19 0.83,-0.21 0.95,-0.43 1.33,-1.08 0.57,-0.83 0.25,-0.85 -0.06,-3.08 -0.35,-2.9 -0.03,-0.76 0.05,-0.72 0.3,-0.59 0.54,-0.3 1.03,0.2 0.61,0.39 0.89,0.91 0.46,0.39 1.55,1.04 1.21,0.54 0.69,0.19 0.75,0.08 4.78,-0.54 0.8,-0.01 0.67,0.18 0.5,0.35 0.4,0.44 0.32,0.52 0.24,0.57 0.77,2.48 0.28,0.54 0.36,0.49 0.45,0.39 0.57,0.31 0.66,0.23 0.73,0.12 5.82,-0.46 2.85,0.33 5,1.52 0.78,-0.07 0.76,-0.31 0.98,-0.9 2.13,-1.6 0.59,-0.69 0.33,-0.75 0.26,-1.41 0.25,-0.67 0.55,-0.47 0.95,-0.38 3.47,-0.3 5.38,-1.07 0.75,-0.02 0.75,0.08 0.65,0.19 1.68,0.94 0.63,0.23 0.7,0.16 1.48,0.09 0.76,-0.11 3.44,-1.09 6.3,-2.89 2.7,-1.76 0.98,-0.86 0.66,-0.75 0.35,-0.51 0.51,-0.49 0.73,-0.34 1.25,-0.17 0.93,0.04 3.8,0.68 0.75,-0.02 2.33,-0.94 19.59,-11.14 2.03,-2.64 0.87,-0.9 5.59,-2.89 2.33,-1.54 2.26,-1.12 0.92,0.05 0.69,0.22 1.69,0.92 0.66,0.19 0.73,0.06 1.12,-0.54 1.39,-1 5.64,-5.4 1.74,-1.2 5.21,-2.87 0.94,6.67 0.1,4.24 1.01,5.54 -0.16,1.2 -0.38,1.56 -1.15,2.94 -0.75,1.26 -0.69,0.83 -1.52,1.03 -0.4,0.45 -0.36,0.52 -0.29,0.64 -0.18,0.78 0.15,1.26 0.24,0.82 2.05,2.6 z"
     title="Florida"
     id="UY-FD" />
  <path
     d="m 304.58076,550.1613 0,0 1.55,3.53 1.08,1.33 1.52,1.18 1.26,1.21 0.51,0.89 0.22,0.87 -0.53,3.07 -0.06,0.86 0.07,1.04 0.3,0.67 0.38,0.53 0.76,0.8 2.02,3 0.87,1.69 0.19,0.95 0.07,0.96 -0.32,-0.17 -2.56,-0.19 -6.81,-0.57 -4.25,0.46 -5.28,-1.4 -4.17,-1.93 -4.61,1.08 -4.8,-2.04 -6.47,2.24 -3.64,-1.07 -6.85,2.37 -3.11,1.3 -6.7,4.49 -5.1,3.71 -3.52,2.09 -0.75,-1.15 -0.37,-1.24 -0.35,-2.34 -0.01,-2.38 0.09,-0.8 0.13,-0.68 1.08,-2.57 0.4,-1.36 0.04,-0.76 -0.31,-0.6 -0.62,-0.36 -1.37,0.06 -0.86,0.21 -0.86,0.08 -0.74,-0.15 -0.87,-0.69 -0.43,-0.6 -0.31,-0.53 -0.22,-0.26 -0.44,-0.3 -0.58,-0.22 -0.55,-0.34 -0.47,-0.39 -0.6,-1.14 -0.23,-0.57 -0.45,-0.86 -0.57,-0.17 -0.94,-0.02 -2.04,0.66 -0.98,0.56 -0.68,0.63 -0.71,1.09 -0.39,0.49 -0.43,0.43 -0.48,0.37 -0.54,0.29 -1.07,0.41 -0.57,-0.08 -0.87,-0.23 -1.45,-0.79 -0.65,-0.47 -0.45,-0.47 -1.2,-2.06 -0.36,-0.48 -0.82,-0.9 -0.58,-0.37 -0.74,-0.29 -1.11,-0.18 -0.88,-0.02 -1.87,0.56 -3.39,2.02 -0.75,-1.23 -1.56,-1.87 -3.68,-3.24 -3.32,-1.96 -0.48,-0.39 -0.35,-0.65 -0.21,-0.9 -0.15,-3.42 -0.56,-3.48 0.12,-0.85 0.32,-0.84 0.74,-0.95 0.67,-0.47 1.23,-0.6 0.49,-0.34 0.45,-0.4 0.38,-0.49 0.68,-1.09 0.77,-0.97 1.73,-1.67 0.23,-0.78 -0.01,-1 -0.48,-1.69 -0.38,-0.85 -0.35,-0.61 -0.07,-0.54 0.01,-0.91 0.66,-2.99 0.05,-2.34 1.79,-6.31 1.04,-1.91 1.04,-0.64 1.33,-0.55 1.72,-0.44 3.07,-0.22 1.5,0.06 1.02,0.17 1.17,0.4 4.53,2.54 1.19,0.13 1.72,-0.12 5.1,-1.13 1.05,-0.49 0.78,-0.98 0.9,-1.73 1.32,-4.01 0.28,-0.61 0.63,-0.72 0.97,-0.82 9.17,-6.06 0.99,-0.1 1.37,0.1 2.12,0.63 5.42,2.67 0.84,0.16 1.19,0.03 2.32,-0.31 1.17,-0.32 0.88,-0.34 6.97,-4.29 2.83,-0.96 12.84,-1.82 2.79,11.25 1.37,4.06 4.27,8.01 0.39,1.15 0.15,1.05 -0.08,0.8 -1.23,6.18 -0.07,1.09 0.09,2.72 0.23,0.51 0.56,0.97 4.24,5.2 1.69,3.24 0.57,1.82 -0.01,3.47 z"
     title="Canelones"
     id="UY-CA" />
  <path
     d="m 472.78076,321.2613 0,0 17.12,-1.37 3.66,0.68 2.46,0.1 11.04,-1.33 0.51,0.13 0.47,0.24 0.47,0.35 0.41,0.44 0.7,0.96 0.69,0.33 1.03,0.17 1.95,-0.13 1.12,0.09 0.79,0.24 1.35,1.17 0.65,0.36 0.82,0.27 1.34,0.17 0.89,-0.06 0.82,-0.27 1.69,-1.03 1.03,-0.21 0.83,-0.08 2.56,0.31 12.36,2.6 0.05,0.01 -2.15,2.75 -6.87,5.05 -2.88,3.1 -0.84,2.21 -0.26,4.54 -0.69,2.24 -1.13,1.34 -12.5,8.37 -3.51,3.09 -2.89,3.91 -0.01,0.01 0,0.02 -0.93,3.13 -0.07,0.01 -9.72,2.28 -7.47,3.23 -8.17,2.36 -0.57,0.51 -1.09,1.33 -0.49,1.41 -0.31,1.41 -0.54,1.3 -1.08,1.14 -2.46,1.07 -1.4,0.83 -1.85,2.03 -3.22,4.52 -2.4,1.6 -3.5,1.02 -1.09,1.07 -2.6,5.45 -2.07,2.43 -2.42,2 -2.5,1.52 -5.41,1.38 -1.21,1.12 -0.44,0.76 -2.54,-1.24 -2.7,-1.76 -3.71,-1.51 -2.19,-1.25 -0.89,-0.77 -1.59,-1.74 -1.53,-2.63 -1.04,-2.28 -0.33,-0.5 -0.47,-0.38 -0.58,-0.26 -0.95,-0.11 -1.17,0.05 -3,0.73 -0.8,0.35 -3.32,2.63 -0.54,0.29 -1.16,0.51 -0.56,0.31 -0.46,0.41 -0.35,0.51 -0.22,0.65 -0.3,1.39 -0.54,1.18 -0.35,0.5 -0.38,0.46 -0.46,0.4 -0.5,0.33 -4.08,1.68 -0.94,0.06 -1.2,-0.14 -6.98,-2.21 -0.55,-0.31 -1.34,-1.19 -0.61,-0.26 -0.67,-0.21 -8.34,-1.34 -3.09,-0.87 -3.53,-2.4 -2.82,-3.06 -0.59,-0.41 -0.81,-0.33 -1.31,-0.32 -1.56,-0.59 -0.78,-0.15 -1.02,0.09 -2.62,1.01 -4.6,2.36 -0.81,0.2 -1.02,0.06 -1.78,-0.28 -0.9,-0.38 -0.69,-0.44 -0.45,-0.4 -0.57,-0.3 -2.02,-0.6 -0.98,-0.55 -0.31,-0.11 -0.54,0.03 -5.34,0.94 -2,0.89 -5.01,2.99 -2.05,-2.6 -0.24,-0.82 -0.15,-1.26 0.18,-0.78 0.29,-0.64 0.36,-0.52 0.4,-0.45 1.52,-1.03 0.69,-0.83 0.75,-1.26 1.15,-2.94 0.38,-1.56 0.16,-1.2 -1.01,-5.54 -0.1,-4.24 -0.94,-6.67 0.81,-2.58 0.88,-1.1 5.75,-3.74 0.91,-0.78 0.73,-0.82 0.33,-0.49 0.96,-1.91 0.02,-2.22 -0.16,-0.84 -1.49,-2.6 -0.22,-1.04 0.07,-0.89 0.36,-0.74 0.53,-0.87 0.64,-0.76 0.54,-0.43 2.28,-1.33 0.63,-0.49 0.81,-0.84 1.21,-0.88 3.51,-1.43 0.53,-0.31 0.89,-0.77 1.59,-1.78 1.76,-1.52 6.03,-3.1 1.3,-0.33 2.89,-0.3 3.32,0.03 1.63,-0.35 4.76,-1.97 0.93,-0.16 1.38,0.04 1.4,0.33 1.86,0.75 0.85,0.14 0.99,0.04 1.56,-0.31 0.83,-0.36 0.6,-0.49 0.72,-0.98 0.71,-1.23 0.52,-0.7 0.57,-0.3 0.64,0 0.76,0.18 0.91,0.1 1.48,-0.24 0.77,-0.4 0.54,-0.51 0.26,-0.6 0.52,-1.57 0.6,-1 0.66,-0.36 0.74,-0.07 1.45,0.22 5.75,-0.39 2.13,-0.67 5.09,-2.88 1.52,-0.62 1.02,-0.1 0.49,0.36 0.86,0.82 0.48,0.36 0.57,0.28 0.66,0.2 3.89,0.52 2.11,0.72 2.87,0.34 0.6,0.27 0.98,0.7 0.53,0.32 0.68,0.19 0.73,0.11 0.77,0.03 2.17,-0.16 0.69,0.03 0.62,0.19 0.56,0.27 5.56,3.8 0.46,0.39 0.68,0.32 0.83,0.21 1.42,-0.1 0.59,-0.48 0.25,-0.65 -0.15,-0.63 -0.26,-0.58 -0.6,-1.05 -0.24,-0.56 -0.13,-0.59 0.09,-0.63 0.29,-0.53 0.37,-0.46 2.22,-1.98 0.67,-0.8 0.52,-0.42 2.85,-1.66 1.17,-0.29 0.93,-0.04 0.63,0.25 1.06,0.62 6.51,5.32 1.06,0.67 0.58,0.28 0.82,0.19 1.03,0.1 z"
     title="Treinta y Tres"
     id="UY-TT" />
  <path
     d="m 291.32076,204.7613 0,0 0.71,-0.03 0.66,-0.12 1.68,-0.72 0.67,-0.12 0.75,0.02 2.82,0.66 2.86,0.34 8.98,-0.62 2.56,-0.64 1.5,-0.08 2.97,0.32 10.01,2.52 6.34,0.51 4.23,-0.49 3.19,0.14 1.59,0.34 3.9,1.77 2.07,0.68 7.89,0.7 1.25,0.29 4.46,1.66 2.31,1.19 0.44,0.38 0.39,0.43 2.04,2.91 0.4,0.43 2.79,2.25 1.54,1.75 1.78,3.16 4.27,4.91 1.68,2.44 3.78,3.74 1.3,1.99 1.26,2.8 0.68,1.13 1.52,1.67 -2.21,0.61 -1.53,0.18 -4.12,-2.46 -2.52,-0.87 -1.12,1.26 -0.32,2.79 -0.82,1.64 -2.37,2.68 -0.86,1.78 -0.38,1.21 -0.16,1.15 0.36,1.32 0.68,1.34 0.42,1.36 -0.41,1.33 -1.45,2.44 -2.18,4.99 -1.69,2.21 -1,0.73 -2.15,1.02 -1.05,0.73 -0.94,1.26 -0.71,1.37 -0.85,1.08 -3.65,1.1 -1.57,1.6 -2.08,3.55 -2.17,2.48 -2.7,2.09 -3.16,1.46 -3.6,0.54 -3.5,-0.74 -6.68,-2.66 -3.54,0.22 -9.11,4.25 -3.18,0.59 -0.82,-0.17 -0.45,-0.44 -0.42,-0.54 -3.6,-2.1 -0.74,-0.13 -0.61,0.1 -0.63,-0.09 -0.76,-0.71 -0.4,-0.66 -0.2,-0.65 -0.16,-1.93 -0.01,0 -0.91,-0.85 -1.78,-0.51 -1.61,0.83 -0.93,1.28 -0.24,1.69 -0.53,1.78 -0.41,2.04 -1.37,1.6 -2.14,0.68 -2.32,0.22 -2.63,-0.28 -2.34,-0.62 -2.19,-0.96 -1.63,0.19 -1.3,1.71 -1.36,3.52 -1.67,0.81 -1.88,0.15 -1.68,-1.2 -2.2,-1.9 -2.01,-0.21 -1.18,0.65 -0.22,1.46 0.83,2.24 0.06,1.69 -1,1.12 -0.53,1.45 -0.5,2.04 -1.66,1.59 -2.2,1.55 -2.77,-0.94 -2.5,-2.85 -2.21,0.12 -2.44,1.33 -1.77,2 -1.44,2.28 -2.88,2.87 -2.81,3.26 -3.57,0.66 -3.61,0.23 -4.28,1.59 -4.51,0.69 -1.35,2.5 -1.89,2.58 -1.81,3.17 -0.63,3.59 -3.31,0.19 -3.93,-0.17 -3.46,-0.74 -3.33,-0.28 -2.82,2.27 -0.73,1.21 -1.08,2.17 -2.23,-0.2 -2.21,-2.26 -2.12,-1.24 -2.61,-0.21 -2.61,0.36 -1.77,-0.06 -2.05,0.06 -2.49,0.44 -1.72,0.79 -1.96,1.49 -1.86,0.48 -3.06,-1.82 0.91,-3.65 1.78,-3.64 1.02,-4.09 -0.26,-2.42 0,-1.51 0.38,-2.27 1.02,-1.82 2.04,-2.42 0.43,-1.8 3.24,-13.59 0.47,-5.55 5.47,-16.52 1.73,-2.67 3.02,-2.79 3.82,-2.8 3.44,-3.23 3.1,-3.64 0.75,-2.13 2.95,-13.48 0.49,-1.42 1.18,-2.15 0.53,-1.22 0.68,-2.53 0.43,-5.13 0.01,-0.02 0.06,-0.84 -0.04,-5.15 0.24,-1.22 0.33,-0.86 0.46,-0.37 0.52,-0.3 1.09,-0.39 0.87,-0.15 0.45,-0.15 0.37,-0.36 0.24,-0.6 0.08,-0.86 -0.22,-0.76 -0.38,-0.73 -2.45,-3.07 -0.3,-0.73 -0.25,-0.97 -0.11,-2.83 0.16,-2.63 -0.04,-0.79 -0.44,-1.19 -0.49,-1.06 -3.36,-4.05 0.19,-3.33 -0.2,-1.66 -0.36,-1.24 -0.24,-1.32 -0.31,-5.13 -0.23,-1.35 -0.4,-1.18 -0.59,-1.05 -0.7,-0.95 -0.28,-0.52 -0.2,-0.55 0.29,-1.24 3.04,-8.44 0.49,-0.85 3.34,-3.22 0.47,-0.7 1.74,-3.67 0.54,-0.77 0.73,-0.47 1.91,-0.68 0.54,-0.27 0.63,-0.52 0.66,-0.73 1.01,-1.4 1.25,-1.3 0.48,-0.34 0.38,-0.82 0.31,-1.19 0.77,-4.56 0.93,-2.07 0.6,-2.25 2.45,-3.79 1.3,-1.2 1.73,-0.69 0.71,-0.15 1.94,0.01 1.5,0.39 0.56,0.29 8.39,6.71 4.9,2.78 7.42,3.13 1.73,1.34 0.53,0.56 0.41,0.55 1.06,2.17 0.42,1.18 0.16,0.63 0.09,1.47 -0.16,2.3 0.08,0.68 1.55,4.68 0.2,0.42 0.04,0.06 0.35,0.77 0.29,0.48 0.44,0.54 3.44,3.21 0.75,0.54 0.72,0.36 3.38,1.1 1.96,0.86 0.94,0.6 0.67,0.56 0.57,1.03 0.43,1.21 0.92,3.91 0.43,1.17 0.15,0.64 -0.02,0.73 -0.12,0.71 -0.85,2.57 -0.34,1.43 -0.12,1.57 0.04,0.74 0.14,0.65 0.25,0.55 0.61,1.02 0.23,0.55 0.1,0.64 -0.23,2.17 0.05,0.7 0.43,1.18 0.95,1.77 1.1,1.64 0.79,0.75 0.8,0.41 0.73,0.1 z"
     title="Tacuarembó"
     id="UY-TA" />
  <path
     d="m 344.19076,147.0413 0,0 1.34,-0.75 1.34,-1.88 1.93,-3.88 1.33,-0.45 1.83,2.28 1.66,2.88 2.64,3.49 2.96,2.98 4.16,1.97 1.28,1.34 1.19,1.58 1.31,1.36 1.39,0.89 3.09,1.23 16.99,2.46 3.54,-0.01 1.55,0.5 1.34,1.35 1.81,3.78 1.18,1.62 5.4,4.38 1.51,1.6 1.21,2.21 0.43,2.11 0.17,4.9 1.04,2.67 -0.04,0.04 -0.5,0.66 -1.4,2.88 -0.32,0.49 -0.73,0.47 -0.99,1.12 -0.92,1.36 -0.54,1.16 -0.12,2.91 1.79,5.34 0.49,2.92 -0.51,2.15 -2.47,6.09 -1.42,2.62 -1.26,3.54 -3.51,5.03 1.62,1.32 1.7,0.27 1.29,0.51 0.36,2.02 -0.63,1.54 -2.61,2.04 -1.03,1.46 1.04,1.91 -0.35,2.17 -1.48,1.8 -2.36,0.73 -2.15,0.29 -2.17,0.58 -1.52,-1.67 -0.68,-1.13 -1.26,-2.8 -1.3,-1.99 -3.78,-3.74 -1.68,-2.44 -4.27,-4.91 -1.78,-3.16 -1.54,-1.75 -2.79,-2.25 -0.4,-0.43 -2.04,-2.91 -0.39,-0.43 -0.44,-0.38 -2.31,-1.19 -4.46,-1.66 -1.25,-0.29 -7.89,-0.7 -2.07,-0.68 -3.9,-1.77 -1.59,-0.34 -3.19,-0.14 -4.23,0.49 -6.34,-0.51 -10.01,-2.52 -2.97,-0.32 -1.5,0.08 -2.56,0.64 -8.98,0.62 -2.86,-0.34 -2.82,-0.66 -0.75,-0.02 -0.67,0.12 -1.68,0.72 -0.66,0.12 -0.71,0.03 -0.73,-0.1 -0.8,-0.41 -0.79,-0.75 -1.1,-1.64 -0.95,-1.77 -0.43,-1.18 -0.05,-0.7 0.23,-2.17 -0.1,-0.64 -0.23,-0.55 -0.61,-1.02 -0.25,-0.55 -0.14,-0.65 -0.04,-0.74 0.12,-1.57 0.34,-1.43 0.85,-2.57 0.12,-0.71 0.02,-0.73 -0.15,-0.64 -0.43,-1.17 -0.92,-3.91 -0.43,-1.21 -0.57,-1.03 -0.67,-0.56 -0.94,-0.6 -1.96,-0.86 -3.38,-1.1 -0.72,-0.36 -0.75,-0.54 -3.44,-3.21 -0.44,-0.54 -0.29,-0.48 -0.35,-0.77 -0.04,-0.06 -0.2,-0.42 -1.55,-4.68 -0.08,-0.68 0.16,-2.3 -0.09,-1.47 -0.16,-0.63 -0.42,-1.18 -1.06,-2.17 -0.41,-0.55 -0.53,-0.56 -1.73,-1.34 -7.42,-3.13 -4.9,-2.78 -8.39,-6.71 -0.56,-0.29 -1.5,-0.39 -1.94,-0.01 -0.71,0.15 -1.73,0.69 -1.3,1.2 -2.45,3.79 -0.9,-1.21 -1.59,-1.74 -0.38,-0.63 -0.23,-0.72 0.03,-0.73 0.11,-0.69 0.42,-0.84 0.74,-0.94 1.45,-1 1.37,-0.67 7.12,-2.09 1.3,-0.79 1.05,-1 1.27,-2.51 0.7,-1.75 2.74,-9.4 2.53,-0.37 6.76,0.43 3.19,-0.66 2.46,-0.02 0.99,-0.26 0.82,-0.63 0.46,-0.65 0.38,-0.69 0.61,-0.77 5.57,-3.75 1.5,-1.43 0.83,-1.86 1.09,-4.11 1.33,-1.58 1.96,-0.23 2.51,0.52 2.31,0.18 1.34,-1.24 0.17,-2.27 -0.36,-4.93 0.51,-2.13 1.6,-1.59 2.17,-0.51 2.16,0.6 2.87,3.36 3.73,2.16 1.66,1.38 2.28,2.82 4.77,4.29 7.6,8.6 1.51,2.27 0.55,1.96 0.36,4.29 0.71,2.06 1.14,1.11 3.41,2.24 1.18,1.85 1.38,4.98 0.9,2.17 1.6,1.91 1.73,1.07 4.03,1.56 1.91,1.19 4.86,4.46 2.03,1.29 1.56,0.3 z"
     title="Rivera"
     id="UY-RV" />
  <path
     d="m 307.47076,281.3813 0,0 0.01,0 0.16,1.93 0.2,0.65 0.4,0.66 0.76,0.71 0.63,0.09 0.61,-0.1 0.74,0.13 3.6,2.1 0.42,0.54 0.45,0.44 0.82,0.17 3.18,-0.59 2.09,3.98 0.47,2.65 0.05,1.47 -0.1,1.51 -1.47,6.4 -1.38,3.84 -0.37,1.34 -0.02,1.47 0.18,0.71 2.64,6.19 0.14,0.74 -0.01,0.7 -0.18,0.65 -0.37,0.46 -0.55,0.25 -1.35,0.26 -0.55,0.27 -0.45,0.39 -0.28,0.54 -0.17,0.63 0.18,0.91 0.47,1.01 1.72,2.61 0.4,0.81 0.16,0.63 0.06,0.7 -0.16,2.32 -0.58,2.89 -0.03,0.75 0.24,1.32 0.51,1.32 1.13,1.97 1.93,2.25 1.35,1.19 9.77,6.3 0.27,0.3 0.02,0.03 0.02,0.03 1.15,1.69 0.4,0.43 1.08,0.29 1.62,0.13 7.36,-0.3 5.28,0.77 -0.96,1.91 -0.33,0.49 -0.73,0.82 -0.91,0.78 -5.75,3.74 -0.88,1.1 -0.81,2.58 -5.21,2.87 -1.74,1.2 -5.64,5.4 -1.39,1 -1.12,0.54 -0.73,-0.06 -0.66,-0.19 -1.69,-0.92 -0.69,-0.22 -0.92,-0.05 -2.26,1.12 -2.33,1.54 -5.59,2.89 -0.87,0.9 -2.03,2.64 -19.59,11.14 -2.33,0.94 -0.75,0.02 -3.8,-0.68 -0.93,-0.04 -1.25,0.17 -0.73,0.34 -0.51,0.49 -0.35,0.51 -0.66,0.75 -0.98,0.86 -2.7,1.76 -6.3,2.89 -3.44,1.09 -0.76,0.11 -1.48,-0.09 -0.7,-0.16 -0.63,-0.23 -1.68,-0.94 -0.65,-0.19 -0.75,-0.08 -0.75,0.02 -5.38,1.07 -3.47,0.3 -0.95,0.38 -0.55,0.47 -0.25,0.67 -0.26,1.41 -0.33,0.75 -0.59,0.69 -2.13,1.6 -0.98,0.9 -0.76,0.31 -0.78,0.07 -5,-1.52 -2.85,-0.33 -5.82,0.46 -0.73,-0.12 -0.66,-0.23 -0.57,-0.31 -0.45,-0.39 -0.36,-0.49 -0.28,-0.54 -0.77,-2.48 -0.24,-0.57 -0.32,-0.52 -0.4,-0.44 -0.5,-0.35 -0.67,-0.18 -0.8,0.01 -4.78,0.54 -0.75,-0.08 -0.69,-0.19 -1.21,-0.54 -1.55,-1.04 -0.46,-0.39 -0.89,-0.91 -0.61,-0.39 -1.03,-0.2 -0.54,0.3 -0.3,0.59 -0.05,0.72 0.03,0.76 0.35,2.9 0.06,3.08 -0.25,0.85 -0.57,0.83 -1.33,1.08 -0.95,0.43 -0.83,0.21 -8.11,-0.19 -1.95,-2.31 -0.68,-1.45 -0.1,-0.69 -0.18,-2.97 -0.1,-0.68 -0.34,-1.14 -0.32,-0.69 -0.56,-0.87 -0.67,-0.78 -0.47,-0.65 -6.34,-7 -2.03,-3.75 -0.36,-0.47 -1.09,-0.68 -5.69,-2.24 -3.41,-0.83 -4,-0.19 -0.9,-0.31 -0.94,-0.5 -1.25,-1.17 -0.55,-0.83 -0.31,-0.81 -0.3,-2.1 -0.41,-1.22 -0.57,-1.06 -0.77,-0.92 -0.46,-0.39 -1.19,-0.49 -5.92,-1.4 -3.4,-0.42 -5.55,0.79 -1.12,-0.28 -4.19,-2.41 -4.84,-4.81 0,-0.73 -0.57,-3.67 0.25,-1.46 -2.23,-0.91 -0.98,0.47 -1.07,-0.09 -0.72,-0.7 0.04,-1.35 0.52,-0.54 1.8,-0.28 0.8,-0.47 1.33,-1.44 1.72,-1.48 1.86,-1.17 1.77,-0.47 1.9,0.4 4.18,1.78 2.01,0.4 2.33,0 1.27,-0.25 0.01,-0.85 -1.48,-1.86 -0.18,-1.19 1.73,-0.42 2.26,-0.13 1.45,-0.31 -0.09,-0.57 -0.42,-0.95 0.02,-1.03 1.19,-0.87 1.06,0.04 0.87,0.6 0.7,0.7 0.55,0.33 1.69,1.53 1,0.32 0.43,-1.39 -0.5,-2.29 -0.07,-1.22 0.57,-1.12 1.76,-0.49 1.93,0.34 1.32,-0.42 -0.04,-1.94 -0.01,-0.82 1.14,-2.66 0.9,-0.97 1.39,-1.31 1.8,-0.8 3.04,-0.11 2.02,-0.92 1.16,-1.49 1.87,-0.64 1.95,0.64 3.06,1.82 1.86,-0.48 1.96,-1.49 1.72,-0.79 2.49,-0.44 2.05,-0.06 1.77,0.06 2.61,-0.36 2.61,0.21 2.12,1.24 2.21,2.26 2.23,0.2 1.08,-2.17 0.73,-1.21 2.82,-2.27 3.33,0.28 3.46,0.74 3.93,0.17 3.31,-0.19 0.63,-3.59 1.81,-3.17 1.89,-2.58 1.35,-2.5 4.51,-0.69 4.28,-1.59 3.61,-0.23 3.57,-0.66 2.81,-3.26 2.88,-2.87 1.44,-2.28 1.77,-2 2.44,-1.33 2.21,-0.12 2.5,2.85 2.77,0.94 2.2,-1.55 1.66,-1.59 0.5,-2.04 0.53,-1.45 1,-1.12 -0.06,-1.69 -0.83,-2.24 0.22,-1.46 1.18,-0.65 2.01,0.21 2.2,1.9 1.68,1.2 1.88,-0.15 1.67,-0.81 1.36,-3.52 1.3,-1.71 1.63,-0.19 2.19,0.96 2.34,0.62 2.63,0.28 2.32,-0.22 2.14,-0.68 1.37,-1.6 0.41,-2.04 0.53,-1.78 0.24,-1.69 0.93,-1.28 1.61,-0.83 1.78,0.51 0.91,0.85 z"
     title="Durazno"
     id="UY-DU" />
  <path
     d="m 440.74076,217.3013 0,0 1.15,-0.11 0.98,-1.27 1.87,-1.76 1.93,-0.7 2.02,0.22 1.95,0.87 1.76,1.32 0.61,0.82 0.92,1.78 0.92,0.84 1.01,0.39 3.38,0.33 1.77,0.54 1.47,0.68 2.93,2.02 1.2,1.31 0.45,1.24 0.25,1.23 0.6,1.3 1.06,1.23 1.34,1.18 2.84,1.85 6.01,1.28 1.49,0.97 0.61,1.66 0.14,4.27 2.93,7.08 5.22,7.75 1.23,3.39 0.69,4.12 0.33,6.11 0.49,2.06 0.93,1.6 2.62,2.32 1.06,1.47 1.74,3.14 2.12,2.89 2.43,2.51 6.46,4.63 6.06,6.8 5.8,1.97 4.42,2.73 1.73,0.54 3.31,0.03 3.4,2.1 3.31,1.53 1.58,1.16 6.8,7.4 0.92,1.83 -0.33,2.21 -1.31,1.74 -3.72,2.92 -2.03,2.58 -0.05,-0.01 -12.36,-2.6 -2.56,-0.31 -0.83,0.08 -1.03,0.21 -1.69,1.03 -0.82,0.27 -0.89,0.06 -1.34,-0.17 -0.82,-0.27 -0.65,-0.36 -1.35,-1.17 -0.79,-0.24 -1.12,-0.09 -1.95,0.13 -1.03,-0.17 -0.69,-0.33 -0.7,-0.96 -0.41,-0.44 -0.47,-0.35 -0.47,-0.24 -0.51,-0.13 -11.04,1.33 -2.46,-0.1 -3.66,-0.68 -17.12,1.37 -1.03,-0.1 -0.82,-0.19 -0.58,-0.28 -1.06,-0.67 -6.51,-5.32 -1.06,-0.62 -0.63,-0.25 -0.93,0.04 -1.17,0.29 -2.85,1.66 -0.52,0.42 -0.67,0.8 -2.22,1.98 -0.37,0.46 -0.29,0.53 -0.09,0.63 0.13,0.59 0.24,0.56 0.6,1.05 0.26,0.58 0.15,0.63 -0.25,0.65 -0.59,0.48 -1.42,0.1 -0.83,-0.21 -0.68,-0.32 -0.46,-0.39 -5.56,-3.8 -0.56,-0.27 -0.62,-0.19 -0.69,-0.03 -2.17,0.16 -0.77,-0.03 -0.73,-0.11 -0.68,-0.19 -0.53,-0.32 -0.98,-0.7 -0.6,-0.27 -2.87,-0.34 -2.11,-0.72 -3.89,-0.52 -0.66,-0.2 -0.57,-0.28 -0.48,-0.36 -0.86,-0.82 -0.49,-0.36 -1.02,0.1 -1.52,0.62 -5.09,2.88 -2.13,0.67 -5.75,0.39 -1.45,-0.22 -0.74,0.07 -0.66,0.36 -0.6,1 -0.52,1.57 -0.26,0.6 -0.54,0.51 -0.77,0.4 -1.48,0.24 -0.91,-0.1 -0.76,-0.18 -0.64,0 -0.57,0.3 -0.52,0.7 -0.71,1.23 -0.72,0.98 -0.6,0.49 -0.83,0.36 -1.56,0.31 -0.99,-0.04 -0.85,-0.14 -1.86,-0.75 -1.4,-0.33 -1.38,-0.04 -0.93,0.16 -4.76,1.97 -1.63,0.35 -3.32,-0.03 -2.89,0.3 -1.3,0.33 -6.03,3.1 -1.76,1.52 -1.59,1.78 -0.89,0.77 -0.53,0.31 -3.51,1.43 -1.21,0.88 -0.81,0.84 -0.63,0.49 -2.28,1.33 -0.54,0.43 -0.64,0.76 -0.53,0.87 -0.36,0.74 -0.07,0.89 0.22,1.04 1.49,2.6 0.16,0.84 -0.02,2.22 -5.28,-0.77 -7.36,0.3 -1.62,-0.13 -1.08,-0.29 -0.4,-0.43 -1.15,-1.69 -0.02,-0.03 -0.02,-0.03 -0.27,-0.3 -9.77,-6.3 -1.35,-1.19 -1.93,-2.25 -1.13,-1.97 -0.51,-1.32 -0.24,-1.32 0.03,-0.75 0.58,-2.89 0.16,-2.32 -0.06,-0.7 -0.16,-0.63 -0.4,-0.81 -1.72,-2.61 -0.47,-1.01 -0.18,-0.91 0.17,-0.63 0.28,-0.54 0.45,-0.39 0.55,-0.27 1.35,-0.26 0.55,-0.25 0.37,-0.46 0.18,-0.65 0.01,-0.7 -0.14,-0.74 -2.64,-6.19 -0.18,-0.71 0.02,-1.47 0.37,-1.34 1.38,-3.84 1.47,-6.4 0.1,-1.51 -0.05,-1.47 -0.47,-2.65 -2.09,-3.98 9.11,-4.25 3.54,-0.22 6.68,2.66 3.5,0.74 3.6,-0.54 3.16,-1.46 2.7,-2.09 2.17,-2.48 2.08,-3.55 1.57,-1.6 3.65,-1.1 0.85,-1.08 0.71,-1.37 0.94,-1.26 1.05,-0.73 2.15,-1.02 1,-0.73 1.69,-2.21 2.18,-4.99 1.45,-2.44 0.41,-1.33 -0.42,-1.36 -0.68,-1.34 -0.36,-1.32 0.16,-1.15 0.38,-1.21 0.86,-1.78 2.37,-2.68 0.82,-1.64 0.32,-2.79 1.12,-1.26 2.52,0.87 4.12,2.46 1.53,-0.18 2.21,-0.61 2.17,-0.58 2.15,-0.29 2.36,-0.73 1.48,-1.8 0.35,-2.17 -1.04,-1.91 1.03,-1.46 2.61,-2.04 0.63,-1.54 -0.36,-2.02 -1.29,-0.51 -1.7,-0.27 -1.62,-1.32 3.51,-5.03 1.26,-3.54 1.42,-2.62 2.47,-6.09 0.51,-2.15 -0.49,-2.92 -1.79,-5.34 0.12,-2.91 0.54,-1.16 0.92,-1.36 0.99,-1.12 0.73,-0.47 0.32,-0.49 1.4,-2.88 0.5,-0.66 0.04,-0.04 0.36,0.92 2.79,2.7 3.37,2.46 3.1,2.93 3.13,3.66 7.05,6.53 5.69,4.02 5.05,4.74 2.39,1.69 z"
     title="Cerro Largo"
     id="UY-CL" />
  <path
     d="m 103.94076,361.5113 0,0 1.18,-0.33 2.12,-1.56 1.22,-0.55 1.14,-0.08 1.06,0.18 4.19,1.41 1.8,0.97 1.23,1.48 1.14,4.81 1.55,-0.43 1.68,-1.82 1.05,-1.58 0.61,3.26 0.56,1.31 1.22,0.53 1.13,-0.2 4.6,-2.05 2.57,-1.6 0.9,-0.33 -1.4,3.86 -0.67,1.13 -7.32,9.38 -1.35,1.17 -10.76,12.89 -1.12,1.98 -0.04,1.12 0.11,0.8 0.23,0.65 0.31,0.51 0.41,0.46 2.62,1.75 0.46,0.39 0.4,0.46 0.31,0.53 0.25,0.56 1.15,5.27 0.21,0.6 0.28,0.54 1.67,2.19 0.02,0.05 0.01,0.02 0.12,0.33 0.23,1.58 0.05,1.45 0.14,0.95 0.21,0.74 0.34,0.51 0.39,0.46 0.42,0.42 2.11,2.91 0.89,0.82 1.03,0.71 0.61,0.26 2.83,0.75 0.6,0.36 0.51,0.46 0.32,0.81 0,0.73 -0.18,0.66 -0.22,0.59 -0.28,0.55 -0.22,0.65 -0.18,0.71 -1.54,12.09 -0.04,1.54 0.11,0.41 0.17,0.44 4.28,7.4 1.21,2.91 0.19,0.71 0.29,1.82 0.41,1.43 0.26,0.71 0.24,0.86 0.46,3.1 0.38,1.27 0.23,0.59 0.29,0.53 1.81,2.49 0.82,1.37 -10.7,-1.68 -8.48,0.01 -2.9,-0.39 -0.56,-0.31 -1.94,-1.51 -1.75,-1.66 -1.94,-1.17 -2.21,-1.03 -1.89,-0.53 -17.69,4.83 -6.2,0.61 -2.89,-0.24 -14,-4.86 -1,-0.73 -0.48,-0.46 -0.67,-0.84 0.14,0.15 -0.17,-0.23 -0.21,-0.34 -0.55,-0.54 -0.74,-0.57 -1.4,-0.72 -1.03,-0.29 -8.02,-0.25 -3.07,0.56 -1.83,0.07 -1.05,-0.14 -0.8,-0.21 -0.46,-0.25 -0.27,-0.2 -0.38,-0.33 -0.34,-0.44 -0.6,-1.05 -0.25,-0.59 -0.38,-1.23 -0.51,-1.15 -0.28,-0.52 -0.64,-0.85 -0.55,-0.57 -11.57,-3 -1.77,-0.21 -1.65,0.49 -9.58,6.67 -9.24,3.88 -1.43,0.42 -3.28,0.59 -0.05,0.01 -0.01,0 -1.95,-11.2 -0.49,-10.67 1.4,-10.55 -0.34,-2.57 -0.62,-2.42 -0.33,-2.58 0.52,-2.91 1.4,-2.41 3.51,-4.66 0.7,-2.66 -0.65,-2.41 -0.68,-0.57 0.02,-0.01 9.79,-5.82 5.53,-7.28 1.89,-1.19 4.9,0 2.93,0.49 1.16,-0.54 0.47,-2.08 0.05,-4.63 0.3,-1.24 1.1,-1.1 3.45,-1.87 1.21,0.75 1.75,1.68 0.54,0.08 1.06,0.92 0.82,-1.06 0.42,-2.02 -0.13,-2.02 -0.29,-0.2 -1.31,-1.26 -0.58,-0.69 -0.02,-0.95 0.07,-1.09 -0.04,-0.83 -1.1,-2.44 0.04,-0.86 1.06,-0.89 1.67,-0.45 1.47,0.35 1.5,0.57 1.73,0.22 2.3,-0.56 0.43,-1.03 -0.22,-1.49 0.36,-1.86 1.02,-1 3.05,-0.79 1.53,-0.65 1.46,-1.33 1.06,-1.36 1.21,-1.1 1.88,-0.54 1.78,0.29 2.87,1.73 1.59,0.56 1.25,-0.03 2.15,-0.64 1.22,-0.16 1.14,0.27 1.49,1.13 3.08,0.76 3.93,1.61 1.98,-0.43 0.76,-0.97 1.02,-2.66 0.7,-0.55 3.43,-0.94 0.78,-0.35 1.98,-1.39 2.18,-0.5 2.29,0.35 4.5,2.39 0.95,0.77 0.39,0.93 0,1.36 0.15,1.52 0.52,1.21 1.11,0.51 z"
     title="Soriano"
     id="UY-SO" />
  <path
     d="m 91.10076,92.0113 0,0 3.63,-0.01 2.1,0.29 1.1,0.31 0.83,0.35 1.68,1.3 0.62,0.61 3.38,2.41 13.58,7.25 4.89,1.59 0.8,0.48 1.53,1.28 0.05,0.04 4.72,4.72 1.95,1.39 2.48,1.32 6.17,1.85 1.03,0.09 0.67,-0.1 0.61,-0.19 0.55,-0.25 2.77,-2.12 0.99,-0.54 0.68,-0.26 6.75,-0.85 2.46,0.14 11.64,2.12 1.46,0.07 2.44,-0.69 4.93,-0.47 1.27,-0.3 1.12,-0.46 0.94,-0.5 6.02,-5.06 0.96,-0.6 1.17,-0.4 3.43,-0.45 1.2,-0.39 0.51,-0.31 0.44,-0.37 1.47,-1.84 0.44,-0.38 1.02,-0.61 2.31,-0.96 0.46,-0.26 0.88,-0.75 0.37,-0.48 0.61,-1.08 0.75,-1.79 0.59,-1.1 0.36,-0.48 0.39,-0.44 0.73,-0.36 1.02,-0.24 1.86,-0.19 1.02,0.15 0.82,0.2 5.7,2.09 16.29,3.6 0.67,0.26 1.68,1.03 2.11,1.83 0.73,0.91 1.54,2.5 1.18,1.41 2.62,2.25 0.76,0.86 1.03,1.43 0.81,0.83 3.83,2.99 0.09,0.07 0.58,0.94 0.16,-0.02 -2.74,9.4 -0.7,1.75 -1.27,2.51 -1.05,1 -1.3,0.79 -7.12,2.09 -1.37,0.67 -1.45,1 -0.74,0.94 -0.42,0.84 -0.11,0.69 -0.03,0.73 0.23,0.72 0.38,0.63 1.59,1.74 0.9,1.21 -0.6,2.25 -0.93,2.07 -0.77,4.56 -0.31,1.19 -0.38,0.82 -0.48,0.34 -1.25,1.3 -1.01,1.4 -0.66,0.73 -0.63,0.52 -0.54,0.27 -1.91,0.68 -0.73,0.47 -0.54,0.77 -1.74,3.67 -0.47,0.7 -3.34,3.22 -0.49,0.85 -3.04,8.44 -0.29,1.24 0.2,0.55 0.28,0.52 0.7,0.95 0.59,1.05 0.4,1.18 0.23,1.35 0.31,5.13 0.24,1.32 0.36,1.24 0.2,1.66 -0.19,3.33 -5.41,1.42 -1.54,1.16 -0.2,0.68 -0.56,1.03 -0.9,1.22 -3.13,3.36 -0.64,0.91 -0.29,1.35 -0.2,0.58 -0.52,1.02 -0.49,0.55 -0.57,0.43 -1.35,0.45 -1.69,0.3 -1.11,0.03 -0.66,-0.08 -7.28,-2.22 -5.29,-0.18 -0.71,-0.12 -1.31,-0.42 -5.18,-3.31 -0.85,-0.25 -1.14,-0.16 -4.28,-0.04 -0.71,-0.13 -0.63,-0.23 -2,-1.36 -0.73,-0.36 -0.98,-0.3 -1.74,-0.26 -1.23,0 -8.87,1.94 -1.18,0.05 -2.12,-0.52 -4.51,-1.73 -0.78,0.03 -0.64,0.21 -0.44,0.38 -0.63,0.45 -0.79,0.43 -1.41,0.52 -0.99,0.15 -0.92,-0.01 -1.32,-0.39 -8.67,-1.06 -1.19,-0.32 -3.79,-2.94 -1.12,-0.59 -8.14,-2.35 -2.32,-1.13 -1.39,-1.12 -0.75,-0.88 -2.24,-3.49 -0.49,-0.5 -1.07,-0.43 -1.89,-0.45 -2.9,-0.1 -2.48,-0.35 -2.45,-0.96 -1.1,-0.63 -3.45,-2.46 -7.33,-3.79 -15.1,-3.31 -0.74,-0.28 -0.52,-0.31 -0.47,-0.37 -0.38,-0.46 -0.29,-0.52 -0.23,-0.56 -1.31,-4.24 -0.29,-0.52 -0.36,-0.45 -0.89,-0.79 -6.79,-3.84 -2.7,-1.04 -1.06,-0.18 -0.81,0.02 -3.79,0.96 -0.48,0.3 -0.33,0.45 -0.11,0.64 -0.11,1.15 -0.02,0.06 -0.13,0.1 -0.52,0.08 -1.15,0.04 -1.77,-0.47 -1.62,-0.21 -1.54,0.43 -1.68,0.86 -0.33,0.18 -1.21,-0.94 -2.51,-3.08 1.3,-3.72 1.95,-1.64 3.86,-2.36 1.61,-1.4 1,-2.26 0.51,-5.46 0.94,-2.47 0.71,-0.79 1.69,-1.34 0.76,-0.78 2.13,-4.54 1,-1.38 0.01,-3.11 -0.69,-5.33 1.3,-5.3 2.6,-4 1.89,-4.08 -0.82,-5.6 -4.33,-6.39 -0.64,-1.37 0.79,-2.12 1.92,-1.3 4.36,-1.15 2.38,0.29 1.27,-0.48 0.55,-1.81 0.59,-2.88 0.12,-1.24 -0.11,-4.99 -0.35,-2.96 0.01,-0.01 2.46,-3.67 0.53,-0.46 0.71,-0.5 1.03,-0.04 2.81,0.32 1.11,0.36 1.41,0.83 6.66,5.02 1.72,1.58 0.77,0.87 1.7,2.37 0.5,0.55 0.68,0.58 1.23,0.79 0.95,0.33 0.91,0.17 z"
     title="Salto"
     id="UY-SA" />
</svg>
