<?xml version="1.0" encoding="UTF-8" standalone="no"?>
<!-- Created with Inkscape (http://www.inkscape.org/) -->

<svg
   xmlns:dc="http://purl.org/dc/elements/1.1/"
   xmlns:cc="http://creativecommons.org/ns#"
   xmlns:rdf="http://www.w3.org/1999/02/22-rdf-syntax-ns#"
   xmlns:svg="http://www.w3.org/2000/svg"
   xmlns="http://www.w3.org/2000/svg"
   xmlns:sodipodi="http://sodipodi.sourceforge.net/DTD/sodipodi-0.dtd"
   xmlns:inkscape="http://www.inkscape.org/namespaces/inkscape"
   version="1.0"
   width="75.669998"
   height="77.089996"
   sodipodi:version="0.32"
   inkscape:version="0.48.2 r9819"
   sodipodi:docname="nm.svg"
   inkscape:output_extension="org.inkscape.output.svg.inkscape"
   id="svg3026">
  <metadata
     id="metadata3028">
    <rdf:RDF>
      <cc:Work
         rdf:about="">
        <dc:format>image/svg+xml</dc:format>
        <dc:type
           rdf:resource="http://purl.org/dc/dcmitype/StillImage" />
      </cc:Work>
    </rdf:RDF>
  </metadata>
  <sodipodi:namedview
     inkscape:window-height="746"
     inkscape:window-width="1366"
     inkscape:pageshadow="2"
     inkscape:pageopacity="0.0"
     guidetolerance="10.0"
     gridtolerance="10.0"
     objecttolerance="10.0"
     borderopacity="1.0"
     bordercolor="#666666"
     pagecolor="#ffffff"
     inkscape:zoom="5.2109344"
     inkscape:cx="85.479376"
     inkscape:cy="34.506116"
     inkscape:window-x="-8"
     inkscape:window-y="-8"
     inkscape:current-layer="svg3026"
     showguides="true"
     inkscape:guide-bbox="true"
     fit-margin-top="0"
     fit-margin-left="0"
     fit-margin-right="0"
     fit-margin-bottom="0"
     inkscape:window-maximized="0"
     id="namedview3030"
     showgrid="false" />
  <defs
     id="defs3032" />
  <path
     style="font-size:12px;fill:#d0d0d0;fill-rule:nonzero;stroke:#000000;stroke-width:1;stroke-linecap:butt;stroke-linejoin:bevel;stroke-miterlimit:4;stroke-opacity:1;stroke-dasharray:none;marker-start:none"
     d="m 69.522637,52.563184 -0.221,2.353 -0.496,5.535 -0.834,11.249 -0.085,1.118 -0.267,-0.019 -0.612,-0.049 -0.767,-0.059 -0.563,-0.039 -0.64,-0.051 -4.314,-0.338 0.551,-6.733 -0.983,-0.076 0.46,-5.711 0.518,0.041 0.455,-5.554 0.672,-2.208 2.244,0.172 4.882,0.369"
     id="Lea"
     inkscape:connector-curvature="0" />
  <path
     style="font-size:12px;fill:#d0d0d0;fill-rule:nonzero;stroke:#000000;stroke-width:1;stroke-linecap:butt;stroke-linejoin:bevel;stroke-miterlimit:4;stroke-opacity:1;stroke-dasharray:none;marker-start:none"
     d="m 49.086637,64.493184 0.104,0.006 0.541,-5.703 11.02,0.947 -0.46,5.711 0.983,0.076 -0.551,6.733 -2.794,-0.229 -0.482,-0.041 -8.946,-0.802 0.306,-3.25 -0.041,-0.004 0.32,-3.444"
     id="Eddy"
     inkscape:connector-curvature="0" />
  <path
     style="font-size:12px;fill:#d0d0d0;fill-rule:nonzero;stroke:#000000;stroke-width:1;stroke-linecap:butt;stroke-linejoin:bevel;stroke-miterlimit:4;stroke-opacity:1;stroke-dasharray:none;marker-start:none"
     d="m 38.837637,18.556184 -0.022,0.461 -0.136,0.969 -0.297,-0.027 0.253,0.207 0.022,0.032 -0.117,1.082 -0.149,-0.33 -0.153,-0.18 -0.419,-0.243 -0.316,-0.153 -0.063,0.058 -0.212,0.018 -0.189,-0.014 -0.104,-0.054 -0.068,-0.126 0.348,-1.325 0.175,-0.351 0.911,-0.095 0.374,0.014 0.162,0.057"
     id="Los Alamos"
     inkscape:connector-curvature="0" />
  <path
     style="font-size:12px;fill:#d0d0d0;fill-rule:nonzero;stroke:#000000;stroke-width:1;stroke-linecap:butt;stroke-linejoin:bevel;stroke-miterlimit:4;stroke-opacity:1;stroke-dasharray:none;marker-start:none"
     d="m 28.367637,3.8411835 4.269,0.505 1.315,0.253 2.57,0.283 1.433,0.154 4.777,0.491 0.113,0.892 -0.095,1.397 -0.126,2.7770005 0.059,0.766 0.036,0.807 -0.009,0.261 -0.288,1.258 -0.086,0.18 -0.135,0.109 -0.325,0.13 -0.257,0.014 -0.13,0.031 -0.208,0.248 -0.036,0.099 1.978,1.078 0.839,1.379 0.104,0.216 0.131,0.216 2,1.343 -1.973,0.248 0.04,-0.307 -3.628,-0.374 0.013,0.167 0.099,0.014 0.014,0.05 -0.072,0.707 -1.974,-0.216 0.022,-0.461 0.023,-0.089 0.036,-0.361 -6.576,-0.702 0.167,-1.537 0.157,-1.272 -3.619,-0.419 -3.961,-0.522 0.351,-3.043 0.131,-0.9960001 0.491,-3.3630004 0.27,-0.491 1.637,-1.352 0.423,-0.568"
     id="Rio Arriba"
     inkscape:connector-curvature="0" />
  <path
     style="font-size:12px;fill:#d0d0d0;fill-rule:nonzero;stroke:#000000;stroke-width:1;stroke-linecap:butt;stroke-linejoin:bevel;stroke-miterlimit:4;stroke-opacity:1;stroke-dasharray:none;marker-start:none"
     d="m 18.641637,2.6251834 9.109,1.1400001 0.617,0.076 -0.423,0.568 -1.637,1.352 -0.27,0.491 -0.491,3.3630004 -0.131,0.9960001 -0.351,3.043 -0.37,2.825 -4.755,-0.627 -9.825,-1.303 1.78,-12.8260006 6.747,0.902"
     id="San Juan"
     inkscape:connector-curvature="0" />
  <path
     style="font-size:12px;fill:#d0d0d0;fill-rule:nonzero;stroke:#000000;stroke-width:1;stroke-linecap:butt;stroke-linejoin:bevel;stroke-miterlimit:4;stroke-opacity:1;stroke-dasharray:none;marker-start:none"
     d="m 10.114637,14.549184 9.825,1.303 4.755,0.627 3.272,0.419 -1.086,8.938 -2.434,-0.27 -0.874,-0.126 -1.095,-0.136 -7.617,-1.001 -0.023,0.181 -0.573,4.296 -6.0029995,-0.821 1.8529995,-13.41"
     id="McKinely"
     inkscape:connector-curvature="0" />
  <path
     style="font-size:12px;fill:#d0d0d0;fill-rule:nonzero;stroke:#000000;stroke-width:1;stroke-linecap:butt;stroke-linejoin:bevel;stroke-miterlimit:4;stroke-opacity:1;stroke-dasharray:none;marker-start:none"
     d="m 27.930637,27.085184 2.425,0.292 2.078,0.244 1.708,0.198 2.488,0.279 1.19,0.163 -0.235,2.258 -0.121,1.118 0.982,0.103 -0.113,1.077 -0.833,-0.076 -1.898,-0.221 -0.005,-0.289 -0.081,-0.13 -0.085,-0.032 -2.65,-0.333 -0.33,0.302 -0.085,0.122 -3.178,-0.366 -0.306,-1.171 -0.951,-3.538"
     id="Bernalillo"
     inkscape:connector-curvature="0" />
  <path
     style="font-size:12px;fill:#d0d0d0;fill-rule:nonzero;stroke:#000000;stroke-width:1;stroke-linecap:butt;stroke-linejoin:bevel;stroke-miterlimit:4;stroke-opacity:1;stroke-dasharray:none;marker-start:none"
     d="m 28.881637,30.623184 0.306,1.171 3.178,0.366 0.085,-0.122 0.33,-0.302 2.65,0.333 0.085,0.032 0.081,0.13 0.005,0.289 -0.645,0.726 -0.356,2.573 -0.112,1.136 0.55,0.054 -0.109,1.055 -0.842,-0.289 -2.763,-1.333 -1.082,-0.731 -0.292,-0.045 -3.084,-0.338 0.595,-4.886 1.42,0.181"
     id="Valencia"
     inkscape:connector-curvature="0" />
  <path
     style="font-size:12px;fill:#d0d0d0;fill-rule:nonzero;stroke:#000000;stroke-width:1;stroke-linecap:butt;stroke-linejoin:bevel;stroke-miterlimit:4;stroke-opacity:1;stroke-dasharray:none;marker-start:none"
     d="m 27.930637,27.085184 0.951,3.538 -1.42,-0.181 -0.595,4.886 -5.453,-0.654 -0.713,-0.103 -3.483,-0.461 -2.506,-0.297 -7.1259995,-0.964 0.676,-4.89 6.0029995,0.821 0.573,-4.296 0.023,-0.181 7.617,1.001 1.095,0.136 0.874,0.126 2.434,0.27 1.05,1.249"
     id="Cibola"
     inkscape:connector-curvature="0" />
  <path
     style="font-size:12px;fill:#d0d0d0;fill-rule:nonzero;stroke:#000000;stroke-width:1;stroke-linecap:butt;stroke-linejoin:bevel;stroke-miterlimit:4;stroke-opacity:1;stroke-dasharray:none;marker-start:none"
     d="m 19.781637,48.858184 7.008,0.825 1.177,0.167 3.376,0.397 1.528,0.161 1.163,0.073 0.167,1.181 -0.419,4.358 -6.198,2.299 -0.063,0.558 -4.413,-0.527 -0.27,2.245 -3.317,-0.401 -1.145,-0.365 -0.171,-0.142 0.027,-0.138 0.117,-0.225 0.194,-0.757 0.054,-0.546 -0.018,-0.193 -0.636,-5.284 -0.018,-0.102 -0.131,-0.231 -0.09,-0.027 -1.428,-0.171 0.451,-3.552 3.055,0.397"
     id="Sierra"
     inkscape:connector-curvature="0" />
  <path
     style="font-size:12px;fill:#d0d0d0;fill-rule:nonzero;stroke:#000000;stroke-width:1;stroke-linecap:butt;stroke-linejoin:bevel;stroke-miterlimit:4;stroke-opacity:1;stroke-dasharray:none;marker-start:none"
     d="m 26.866637,35.328184 3.084,0.338 0.292,0.045 1.082,0.731 2.763,1.333 0.842,0.289 -0.243,2.321 5.183,0.554 -0.369,3.349 -0.226,2.254 -1.356,-0.15 -0.243,2.264 -1.033,-0.109 -0.09,-0.041 -1.154,-0.224 -1.117,-0.127 -0.248,2.326 -1.163,-0.073 -1.528,-0.161 -3.376,-0.397 -1.177,-0.167 -7.008,-0.825 0.266,-2.109 0.947,-7.964 -0.099,-0.014 0.373,-3.092 0.145,-1.005 5.453,0.654"
     id="Socorro"
     inkscape:connector-curvature="0" />
  <path
     style="font-size:12px;fill:#d0d0d0;fill-rule:nonzero;stroke:#000000;stroke-width:1;stroke-linecap:butt;stroke-linejoin:bevel;stroke-miterlimit:4;stroke-opacity:1;stroke-dasharray:none;marker-start:none"
     d="m 21.413637,34.674184 -0.145,1.005 -0.373,3.092 0.099,0.014 -0.947,7.964 -0.266,2.109 -3.055,-0.397 -0.451,3.552 -4.786,-0.613 -0.988,-0.221 -1.0949995,-0.168 -4.264,-0.571 2.443,-17.591 7.1259995,0.964 2.506,0.297 3.483,0.461 0.713,0.103"
     id="Catron"
     inkscape:connector-curvature="0" />
  <path
     style="font-size:12px;fill:#d0d0d0;fill-rule:nonzero;stroke:#000000;stroke-width:1;stroke-linecap:butt;stroke-linejoin:bevel;stroke-miterlimit:4;stroke-opacity:1;stroke-dasharray:none;marker-start:none"
     d="m 5.1426375,50.440184 4.264,0.571 1.0949995,0.168 0.988,0.221 4.786,0.613 1.428,0.171 0.09,0.027 0.131,0.231 0.018,0.102 0.636,5.284 0.018,0.193 -0.054,0.546 -0.194,0.757 -0.117,0.225 -0.027,0.138 0.171,0.142 1.145,0.365 -3.389,-0.41 -0.14,1.117 -3.291,-0.414 -0.73,5.601 0.005,0.686 -0.126,1.356 -0.099,0.745 -3.3309995,-0.433 0.401,-4.052 0.572,-4.337 -1.023,-1.267 -2.217,-0.301 0.288,-2.227 -2.064,-0.289 0.766,-5.529"
     id="Grant"
     inkscape:connector-curvature="0" />
  <path
     style="font-size:12px;fill:#d0d0d0;fill-rule:nonzero;stroke:#000000;stroke-width:1;stroke-linecap:butt;stroke-linejoin:bevel;stroke-miterlimit:4;stroke-opacity:1;stroke-dasharray:none;marker-start:none"
     d="m 4.3766375,55.969184 2.064,0.289 -0.288,2.227 2.217,0.301 1.023,1.267 -0.572,4.337 -0.401,4.052 3.3309995,0.433 -0.036,1.041 -0.474,3.637 -0.274,2.131 -7.0089995,-0.915 -0.108,-0.017 -0.865,-0.118 -1.195,-0.167 1.961,-13.999 0.626,-4.499"
     id="Hidalgo"
     inkscape:connector-curvature="0" />
  <path
     style="font-size:12px;fill:#d0d0d0;fill-rule:nonzero;stroke:#000000;stroke-width:1;stroke-linecap:butt;stroke-linejoin:bevel;stroke-miterlimit:4;stroke-opacity:1;stroke-dasharray:none;marker-start:none"
     d="m 22.837637,60.595184 -1.231,10.551 -9.892,-1.23 0.036,-1.041 0.099,-0.745 0.126,-1.356 -0.005,-0.686 0.73,-5.601 3.291,0.414 0.14,-1.117 3.389,0.41 3.317,0.401"
     id="Luna"
     inkscape:connector-curvature="0" />
  <path
     style="font-size:12px;fill:#d0d0d0;fill-rule:nonzero;stroke:#000000;stroke-width:1;stroke-linecap:butt;stroke-linejoin:bevel;stroke-miterlimit:4;stroke-opacity:1;stroke-dasharray:none;marker-start:none"
     d="m 33.781637,56.020184 -0.136,1.217 -0.383,-0.041 -1.352,12.295 -2.371,-0.251 -0.036,-0.005 -0.004,0 0,0.005 -0.235,0.554 -0.027,0.094 -0.252,1.113 0.018,0.059 0.104,0.14 0.847,0.906 -8.348,-0.96 1.231,-10.551 0.27,-2.245 4.413,0.527 0.063,-0.558 6.198,-2.299"
     id="Dona Ana"
     inkscape:connector-curvature="0" />
  <path
     style="font-size:12px;fill:#d0d0d0;fill-rule:nonzero;stroke:#000000;stroke-width:1;stroke-linecap:butt;stroke-linejoin:bevel;stroke-miterlimit:4;stroke-opacity:1;stroke-dasharray:none;marker-start:none"
     d="m 45.661637,5.8291835 5.066,0.513 -0.041,0.794 -0.315,2.0510004 -0.645,0.608 -0.36,0.135 -0.325,0.1500001 -0.238,0.171 -0.136,0.941 -0.023,0.699 0.082,1.298 -0.158,2.51 -2.272,3.029 -2,-1.343 -0.131,-0.216 -0.104,-0.216 -0.839,-1.379 -1.978,-1.078 0.036,-0.099 0.208,-0.248 0.13,-0.031 0.257,-0.014 0.325,-0.13 0.135,-0.109 0.086,-0.18 0.288,-1.258 0.009,-0.261 -0.036,-0.807 -0.059,-0.766 0.126,-2.7770005 0.095,-1.397 -0.113,-0.892 2.93,0.302"
     id="Taos"
     inkscape:connector-curvature="0" />
  <path
     style="font-size:12px;fill:#d0d0d0;fill-rule:nonzero;stroke:#000000;stroke-width:1;stroke-linecap:butt;stroke-linejoin:bevel;stroke-miterlimit:4;stroke-opacity:1;stroke-dasharray:none;marker-start:none"
     d="m 38.815637,19.017184 1.974,0.216 0.072,-0.707 -0.014,-0.05 -0.099,-0.014 -0.013,-0.167 3.628,0.374 -0.04,0.307 -0.172,1.388 -1.036,10.719 -5.531,-0.564 0.235,-2.258 0.721,-6.981 0.139,-1.294 0.136,-0.969"
     id="Santa Fe"
     inkscape:connector-curvature="0" />
  <path
     style="font-size:12px;fill:#d0d0d0;fill-rule:nonzero;stroke:#000000;stroke-width:1;stroke-linecap:butt;stroke-linejoin:bevel;stroke-miterlimit:4;stroke-opacity:1;stroke-dasharray:none;marker-start:none"
     d="m 34.200637,51.662184 3.677,0.409 2.912,0.293 -0.095,1.105 4.345,0.432 -0.198,2.231 -0.203,1.455 -0.203,0.723 -0.302,1.1 -0.469,4.583 2.209,0.217 0.419,0.018 2.794,0.265 -0.32,3.444 0.041,0.004 -0.306,3.25 -0.767,-0.072 -11.714,-1.195 -4.11,-0.433 1.352,-12.295 0.383,0.041 0.136,-1.217 0.419,-4.358"
     id="Otero"
     inkscape:connector-curvature="0" />
  <path
     style="font-size:12px;fill:#d0d0d0;fill-rule:nonzero;stroke:#000000;stroke-width:1;stroke-linecap:butt;stroke-linejoin:bevel;stroke-miterlimit:4;stroke-opacity:1;stroke-dasharray:none;marker-start:none"
     d="m 43.115637,31.083184 4.421,0.436 -0.541,5.611 -0.239,-0.017 -0.333,3.362 -0.113,1.117 -6.441,-0.653 -5.183,-0.554 0.243,-2.321 0.109,-1.055 -0.55,-0.054 0.112,-1.136 0.356,-2.573 0.645,-0.726 1.898,0.221 0.833,0.076 0.113,-1.077 -0.982,-0.103 0.121,-1.118 5.531,0.564"
     id="Torrance"
     inkscape:connector-curvature="0" />
  <path
     style="font-size:12px;fill:#d0d0d0;fill-rule:nonzero;stroke:#000000;stroke-width:1;stroke-linecap:butt;stroke-linejoin:bevel;stroke-miterlimit:4;stroke-opacity:1;stroke-dasharray:none;marker-start:none"
     d="m 46.423637,40.475184 4.439,0.423 -0.329,3.336 -0.333,3.407 0.022,0 0.009,0.031 -0.46,4.788 -0.523,4.015 -1.086,-0.045 -3.321,-0.298 0.198,-2.231 -4.345,-0.432 0.095,-1.105 -2.912,-0.293 -3.677,-0.409 -0.167,-1.181 0.248,-2.326 1.117,0.127 1.154,0.224 0.09,0.041 1.033,0.109 0.243,-2.264 1.356,0.15 0.226,-2.254 0.369,-3.349 6.441,0.653 0.113,-1.117"
     id="Lincoln"
     inkscape:connector-curvature="0" />
  <path
     style="font-size:12px;fill:#d0d0d0;fill-rule:nonzero;stroke:#000000;stroke-width:1;stroke-linecap:butt;stroke-linejoin:bevel;stroke-miterlimit:4;stroke-opacity:1;stroke-dasharray:none;marker-start:none"
     d="m 51.394637,6.4061835 1.573,0.177 2.732,0.251 7.382,0.617 -0.865,10.0740005 -4.399,-0.388 -4.417,-0.396 0.058,-0.555 -4.89,-0.487 0.158,-2.51 -0.082,-1.298 0.023,-0.699 0.136,-0.941 0.238,-0.171 0.325,-0.1500001 0.36,-0.135 0.645,-0.608 0.315,-2.0510004 0.041,-0.794 0.667,0.064"
     id="Colfax"
     inkscape:connector-curvature="0" />
  <path
     style="font-size:12px;fill:#d0d0d0;fill-rule:nonzero;stroke:#000000;stroke-width:1;stroke-linecap:butt;stroke-linejoin:bevel;stroke-miterlimit:4;stroke-opacity:1;stroke-dasharray:none;marker-start:none"
     d="m 48.568637,15.699184 4.89,0.487 -0.058,0.555 4.417,0.396 0.212,5.72 -3.972,-0.312 -2.649,-0.167 -1.023,-0.558 -2.367,-1.055 -3.867,-0.401 0.172,-1.388 1.973,-0.248 2.272,-3.029"
     id="Mora"
     inkscape:connector-curvature="0" />
  <path
     style="font-size:12px;fill:#d0d0d0;fill-rule:nonzero;stroke:#000000;stroke-width:1;stroke-linecap:butt;stroke-linejoin:bevel;stroke-miterlimit:4;stroke-opacity:1;stroke-dasharray:none;marker-start:none"
     d="m 72.478637,8.1501835 0.856,0.063 -0.477,6.4770005 -0.424,0.252 -0.157,2.078 -0.244,3.407 -0.307,4.093 -3.461,-0.275 0.262,-3.349 0.121,-0.229 0.068,-0.897 -4.431,-0.348 0.099,-1.14 -2.213,-0.194 0.046,-0.563 0.865,-10.0740005 9.397,0.699"
     id="Union"
     inkscape:connector-curvature="0" />
  <path
     style="font-size:12px;fill:#d0d0d0;fill-rule:nonzero;stroke:#000000;stroke-width:1;stroke-linecap:butt;stroke-linejoin:bevel;stroke-miterlimit:4;stroke-opacity:1;stroke-dasharray:none;marker-start:none"
     d="m 57.817637,17.137184 4.399,0.388 -0.046,0.563 2.213,0.194 -0.099,1.14 4.431,0.348 -0.068,0.897 -0.121,0.229 -0.262,3.349 -0.131,1.132 -0.266,3.294 -0.112,0.094 -2.574,-0.202 0.037,-0.415 -0.911,-0.077 -2.213,-5.129 -1.56,0.126 -2.505,-0.211 -0.212,-5.72"
     id="Harding"
     inkscape:connector-curvature="0" />
  <path
     style="font-size:12px;fill:#d0d0d0;fill-rule:nonzero;stroke:#000000;stroke-width:1;stroke-linecap:butt;stroke-linejoin:bevel;stroke-miterlimit:4;stroke-opacity:1;stroke-dasharray:none;marker-start:none"
     d="m 44.151637,20.364184 3.867,0.401 2.367,1.055 1.023,0.558 2.649,0.167 3.972,0.312 2.505,0.211 1.56,-0.126 2.213,5.129 0.911,0.077 -0.037,0.415 -0.153,1.929 -2.299,-0.207 0.023,-0.284 -2.921,1.342 0.073,-0.952 -12.152,-1.126 -0.216,2.254 -4.421,-0.436 1.036,-10.719"
     id="San Miguel"
     inkscape:connector-curvature="0" />
  <path
     style="font-size:12px;fill:#d0d0d0;fill-rule:nonzero;stroke:#000000;stroke-width:1;stroke-linecap:butt;stroke-linejoin:bevel;stroke-miterlimit:4;stroke-opacity:1;stroke-dasharray:none;marker-start:none"
     d="m 68.264637,24.245184 3.461,0.275 -0.117,1.511 -0.428,5.687 -0.225,2.965 -2.091,-0.157 -2.646,2.077 -2.479,0.924 -0.437,1.104 -2.213,-0.184 -1.893,-0.162 0.185,-2.253 0.103,-1.182 0.239,-2.294 0.108,-1.213 2.921,-1.342 -0.023,0.284 2.299,0.207 0.153,-1.929 2.574,0.202 0.112,-0.094 0.266,-3.294 0.131,-1.132"
     id="Quay"
     inkscape:connector-curvature="0" />
  <path
     style="font-size:12px;fill:#d0d0d0;fill-rule:nonzero;stroke:#000000;stroke-width:1;stroke-linecap:butt;stroke-linejoin:bevel;stroke-miterlimit:4;stroke-opacity:1;stroke-dasharray:none;marker-start:none"
     d="m 59.831637,31.343184 -0.108,1.213 -0.239,2.294 -0.103,1.182 -2.209,-0.187 -0.482,1.088 -0.821,1.063 -4.696,-0.423 -0.311,3.325 -4.439,-0.423 0.333,-3.362 0.239,0.017 0.757,-7.865 12.152,1.126 -0.073,0.952"
     id="Guadelupe"
     inkscape:connector-curvature="0" />
  <path
     style="font-size:12px;fill:#d0d0d0;fill-rule:nonzero;stroke:#000000;stroke-width:1;stroke-linecap:butt;stroke-linejoin:bevel;stroke-miterlimit:4;stroke-opacity:1;stroke-dasharray:none;marker-start:none"
     d="m 59.381637,36.032184 -0.185,2.253 1.893,0.162 -0.32,3.767 -0.028,0.695 -0.189,2.289 -2.222,-0.198 -0.104,1.136 -2.32,-0.208 -4.346,-0.446 0.104,-1.136 -1.131,-0.112 0.329,-3.336 0.311,-3.325 4.696,0.423 0.821,-1.063 0.482,-1.088 2.209,0.187"
     id="De Baca"
     inkscape:connector-curvature="0" />
  <path
     style="font-size:12px;fill:#d0d0d0;fill-rule:nonzero;stroke:#000000;stroke-width:1;stroke-linecap:butt;stroke-linejoin:bevel;stroke-miterlimit:4;stroke-opacity:1;stroke-dasharray:none;marker-start:none"
     d="m 70.955637,34.683184 -0.198,2.673 -0.433,5.621 -0.009,0.135 -7.351,-0.581 0.338,-3.9 0.437,-1.104 2.479,-0.924 2.646,-2.077 2.091,0.157"
     id="Curry"
     inkscape:connector-curvature="0" />
  <path
     style="font-size:12px;fill:#d0d0d0;fill-rule:nonzero;stroke:#000000;stroke-width:1;stroke-linecap:butt;stroke-linejoin:bevel;stroke-miterlimit:4;stroke-opacity:1;stroke-dasharray:none;marker-start:none"
     d="m 63.302637,38.631184 -0.338,3.9 7.351,0.581 -0.496,6.175 -0.297,3.276 -4.882,-0.369 0.095,-1.123 -2.222,-0.162 0.189,-2.106 -1.329,-0.112 0.284,-3.39 -1.105,-0.103 0.189,-2.289 0.028,-0.695 0.32,-3.767 2.213,0.184"
     id="Roosevelt"
     inkscape:connector-curvature="0" />
  <path
     style="font-size:12px;fill:#d0d0d0;fill-rule:nonzero;stroke:#000000;stroke-width:1;stroke-linecap:butt;stroke-linejoin:bevel;stroke-miterlimit:4;stroke-opacity:1;stroke-dasharray:none;marker-start:none"
     d="m 60.552637,45.198184 1.105,0.103 -0.284,3.39 1.329,0.112 -0.189,2.106 2.222,0.162 -0.095,1.123 -2.244,-0.172 -0.672,2.208 -0.455,5.554 -0.518,-0.041 -11.02,-0.947 -0.541,5.703 -0.104,-0.006 -2.794,-0.265 -0.419,-0.018 -2.209,-0.217 0.469,-4.583 0.302,-1.1 0.203,-0.723 0.203,-1.455 3.321,0.298 1.086,0.045 0.523,-4.015 0.46,-4.788 -0.009,-0.031 -0.022,0 0.333,-3.407 1.131,0.112 -0.104,1.136 4.346,0.446 2.32,0.208 0.104,-1.136 2.222,0.198"
     id="Chaves"
     inkscape:connector-curvature="0" />
  <path
     style="font-size:12px;fill:#d0d0d0;fill-opacity:1;fill-rule:nonzero;stroke:#000000;stroke-width:1;stroke-linecap:butt;stroke-linejoin:bevel;stroke-miterlimit:4;stroke-opacity:1;stroke-dasharray:none;marker-start:none"
     d="m 25.064637,13.654184 3.961,0.522 3.619,0.419 -0.157,1.272 -0.167,1.537 6.576,0.702 -0.036,0.361 -0.023,0.089 -0.162,-0.057 -0.374,-0.014 -0.911,0.095 -0.175,0.351 -0.348,1.325 0.068,0.126 0.104,0.054 0.189,0.014 0.212,-0.018 0.063,-0.058 0.316,0.153 0.419,0.243 0.153,0.18 0.149,0.33 -0.721,6.981 -1.19,-0.163 -2.488,-0.279 -1.708,-0.198 -2.078,-0.244 -2.425,-0.292 -1.05,-1.249 1.086,-8.938 -3.272,-0.419 0.37,-2.825 m 13.593,6.544 -0.022,-0.032 -0.253,-0.207 0.297,0.027 -0.022,0.212"
     id="Sandoval"
     inkscape:connector-curvature="0" />
</svg>
