<?xml version="1.0" encoding="UTF-8" standalone="no"?>
<!-- Created with Inkscape (http://www.inkscape.org/) -->

<svg
   xmlns:dc="http://purl.org/dc/elements/1.1/"
   xmlns:cc="http://creativecommons.org/ns#"
   xmlns:rdf="http://www.w3.org/1999/02/22-rdf-syntax-ns#"
   xmlns:svg="http://www.w3.org/2000/svg"
   xmlns="http://www.w3.org/2000/svg"
   xmlns:sodipodi="http://sodipodi.sourceforge.net/DTD/sodipodi-0.dtd"
   xmlns:inkscape="http://www.inkscape.org/namespaces/inkscape"
   version="1.0"
   width="88.760002"
   height="45.279999"
   sodipodi:version="0.32"
   inkscape:version="0.48.2 r9819"
   sodipodi:docname="ne.svg"
   inkscape:output_extension="org.inkscape.output.svg.inkscape"
   id="svg3086">
  <metadata
     id="metadata3088">
    <rdf:RDF>
      <cc:Work
         rdf:about="">
        <dc:format>image/svg+xml</dc:format>
        <dc:type
           rdf:resource="http://purl.org/dc/dcmitype/StillImage" />
      </cc:Work>
    </rdf:RDF>
  </metadata>
  <sodipodi:namedview
     inkscape:window-height="716"
     inkscape:window-width="1366"
     inkscape:pageshadow="2"
     inkscape:pageopacity="0.0"
     guidetolerance="10.0"
     gridtolerance="10.0"
     objecttolerance="10.0"
     borderopacity="1.0"
     bordercolor="#666666"
     pagecolor="#ffffff"
     inkscape:zoom="5.3178849"
     inkscape:cx="39.203598"
     inkscape:cy="11.485041"
     inkscape:window-x="-8"
     inkscape:window-y="-8"
     inkscape:current-layer="svg3086"
     showguides="true"
     inkscape:guide-bbox="true"
     fit-margin-top="0"
     fit-margin-left="0"
     fit-margin-right="0"
     fit-margin-bottom="0"
     inkscape:window-maximized="1"
     id="namedview3090"
     showgrid="false" />
  <defs
     id="defs3092" />
  <path
     style="font-size:12px;fill:#d0d0d0;fill-rule:nonzero;stroke:#000000;stroke-width:1;stroke-linecap:butt;stroke-linejoin:bevel;stroke-miterlimit:4;stroke-opacity:1;stroke-dasharray:none;marker-start:none"
     d="m 9.0869022,2.1711893 4.7279998,0.365 1.956,0.149 -0.202,2.775 0.126,0.754 -0.262,3.7259999 -6.3499998,-0.441 -0.334,-0.027 0.347,-4.4939999 -0.081,-0.504 -0.022,-0.993 0.094,-1.31"
     id="Dawes"
     inkscape:connector-curvature="0" />
  <path
     style="font-size:12px;fill:#d0d0d0;fill-rule:nonzero;stroke:#000000;stroke-width:1;stroke-linecap:butt;stroke-linejoin:bevel;stroke-miterlimit:4;stroke-opacity:1;stroke-dasharray:none;marker-start:none"
     d="m 9.0869022,2.1711893 -0.094,1.31 0.022,0.993 0.081,0.504 -0.347,4.4939999 0.334,0.027 -0.347,4.4799988 0.401,0.036 -0.086,1.123 -6.192,-0.479 1.091,-12.9079987 5.137,0.42"
     id="Sioux"
     inkscape:connector-curvature="0" />
  <path
     style="font-size:12px;fill:#d0d0d0;fill-rule:nonzero;stroke:#000000;stroke-width:1;stroke-linecap:butt;stroke-linejoin:bevel;stroke-miterlimit:4;stroke-opacity:1;stroke-dasharray:none;marker-start:none"
     d="m 79.501902,40.512188 4.48,-0.018 2.411,3.39 -0.311,0 -4.399,0.017 -2.186,0 0.005,-3.389"
     id="Richardson"
     inkscape:connector-curvature="0" />
  <path
     style="font-size:12px;fill:#d0d0d0;fill-rule:nonzero;stroke:#000000;stroke-width:1;stroke-linecap:butt;stroke-linejoin:bevel;stroke-miterlimit:4;stroke-opacity:1;stroke-dasharray:none;marker-start:none"
     d="m 75.070902,40.490188 3.881,0.013 0.55,0.009 -0.005,3.389 -2.24,-0.004 -2.203,-0.013 0.017,-3.394"
     id="Pawnee"
     inkscape:connector-curvature="0" />
  <path
     style="font-size:12px;fill:#d0d0d0;fill-rule:nonzero;stroke:#000000;stroke-width:1;stroke-linecap:butt;stroke-linejoin:bevel;stroke-miterlimit:4;stroke-opacity:1;stroke-dasharray:none;marker-start:none"
     d="m 78.951902,37.109188 3.479,-0.013 0.127,-0.275 0.365,0.324 -0.212,0.379 -0.112,0.104 0.054,0.229 0.635,1.596 0.681,0.663 0.026,0.067 -0.003,0.023 0,0.018 -0.01,0.234 0,0.036 -4.48,0.018 -0.55,-0.009 0,-3.394"
     id="Nemaha"
     inkscape:connector-curvature="0" />
  <path
     style="font-size:12px;fill:#d0d0d0;fill-rule:nonzero;stroke:#000000;stroke-width:1;stroke-linecap:butt;stroke-linejoin:bevel;stroke-miterlimit:4;stroke-opacity:1;stroke-dasharray:none;marker-start:none"
     d="m 78.951902,37.109188 0,3.394 -3.881,-0.013 0.014,-3.386 3.867,0.005"
     id="Johnson"
     inkscape:connector-curvature="0" />
  <path
     style="font-size:12px;fill:#d0d0d0;fill-rule:nonzero;stroke:#000000;stroke-width:1;stroke-linecap:butt;stroke-linejoin:bevel;stroke-miterlimit:4;stroke-opacity:1;stroke-dasharray:none;marker-start:none"
     d="m 81.015902,33.724188 0.87,2.579 0.545,0.793 -3.479,0.013 -3.867,-0.005 0.013,-3.393 5.918,0.013"
     id="Otoe"
     inkscape:connector-curvature="0" />
  <path
     style="font-size:12px;fill:#d0d0d0;fill-rule:nonzero;stroke:#000000;stroke-width:1;stroke-linecap:butt;stroke-linejoin:bevel;stroke-miterlimit:4;stroke-opacity:1;stroke-dasharray:none;marker-start:none"
     d="m 76.517902,30.326188 0.072,0.112 0.14,0.127 0.712,0.406 0.086,0.013 0.261,-0.099 0.288,-0.144 0.149,-0.117 0.1,-0.135 0.216,-0.204 0.095,-0.062 0.423,-0.158 0.217,-0.005 1.324,0.082 0.073,0.012 0.216,0.154 0.429,1.884 -0.303,1.532 -5.918,-0.013 0.018,-3.015 1.402,-0.37"
     id="Cass"
     inkscape:connector-curvature="0" />
  <path
     style="font-size:12px;fill:#d0d0d0;fill-rule:nonzero;stroke:#000000;stroke-width:1;stroke-linecap:butt;stroke-linejoin:bevel;stroke-miterlimit:4;stroke-opacity:1;stroke-dasharray:none;marker-start:none"
     d="m 76.441902,28.442188 3.903,-0.009 0.676,0.406 -0.131,1.469 -0.216,-0.154 -0.073,-0.012 -1.324,-0.082 -0.217,0.005 -0.423,0.158 -0.095,0.062 -0.216,0.204 -0.1,0.135 -0.149,0.117 -0.288,0.144 -0.261,0.099 -0.086,-0.013 -0.712,-0.406 -0.14,-0.127 -0.072,-0.112 -0.076,-1.884"
     id="Sarpy"
     inkscape:connector-curvature="0" />
  <path
     style="font-size:12px;fill:#d0d0d0;fill-rule:nonzero;stroke:#000000;stroke-width:1;stroke-linecap:butt;stroke-linejoin:bevel;stroke-miterlimit:4;stroke-opacity:1;stroke-dasharray:none;marker-start:none"
     d="m 75.070902,25.797188 1.366,0.009 3.764,0.004 0.144,2.623 -3.903,0.009 -1.371,-2.645"
     id="Douglas"
     inkscape:connector-curvature="0" />
  <path
     style="font-size:12px;fill:#d0d0d0;fill-rule:nonzero;stroke:#000000;stroke-width:1;stroke-linecap:butt;stroke-linejoin:bevel;stroke-miterlimit:4;stroke-opacity:1;stroke-dasharray:none;marker-start:none"
     d="m 75.341902,22.029188 3.096,0.023 1.344,2.28 0.419,1.478 -3.764,-0.004 -0.924,-1.159 -0.09,-0.234 -0.086,-0.311 0.005,-2.073"
     id="Washington"
     inkscape:connector-curvature="0" />
  <path
     style="font-size:12px;fill:#d0d0d0;fill-rule:nonzero;stroke:#000000;stroke-width:1;stroke-linecap:butt;stroke-linejoin:bevel;stroke-miterlimit:4;stroke-opacity:1;stroke-dasharray:none;marker-start:none"
     d="m 76.999902,17.319188 1.267,2.353 0.171,2.38 -3.096,-0.023 -1.055,-0.762 0.022,-3.556 2.691,-0.392"
     id="Burt"
     inkscape:connector-curvature="0" />
  <path
     style="font-size:12px;fill:#d0d0d0;fill-rule:nonzero;stroke:#000000;stroke-width:1;stroke-linecap:butt;stroke-linejoin:bevel;stroke-miterlimit:4;stroke-opacity:1;stroke-dasharray:none;marker-start:none"
     d="m 72.695902,14.300188 3.633,0.04 -0.118,0.798 0.789,2.181 -2.691,0.392 -2.559,-0.983 0.035,-2.258 0.911,-0.17"
     id="Thurston"
     inkscape:connector-curvature="0" />
  <path
     style="font-size:12px;fill:#d0d0d0;fill-rule:nonzero;stroke:#000000;stroke-width:1;stroke-linecap:butt;stroke-linejoin:bevel;stroke-miterlimit:4;stroke-opacity:1;stroke-dasharray:none;marker-start:none"
     d="m 73.579902,11.112189 1.821,0.465 0.324,0.023 0.126,0.049 0.1,0.138999 0.04,0.149 0.004,0.199 -0.067,0.179 0.112,1.484 0.289,0.541 -3.633,-0.04 0.884,-3.187999"
     id="Dakota"
     inkscape:connector-curvature="0" />
  <path
     style="font-size:12px;fill:#d0d0d0;fill-rule:nonzero;stroke:#000000;stroke-width:1;stroke-linecap:butt;stroke-linejoin:bevel;stroke-miterlimit:4;stroke-opacity:1;stroke-dasharray:none;marker-start:none"
     d="m 70.013902,8.0441893 1.975,0.7379999 0.77,0.487 0.104,0.235 0.054,0.216 -0.036,0.152 -0.005,0.118 0.028,0.1169998 0.676,1.005 -0.884,3.187999 -0.911,0.17 -1.843,-1.144 0.072,-5.2819987"
     id="Dixon"
     inkscape:connector-curvature="0" />
  <path
     style="font-size:12px;fill:#d0d0d0;fill-rule:nonzero;stroke:#000000;stroke-width:1;stroke-linecap:butt;stroke-linejoin:bevel;stroke-miterlimit:4;stroke-opacity:1;stroke-dasharray:none;marker-start:none"
     d="m 66.619902,13.276188 3.322,0.05 1.843,1.144 -0.035,2.258 -1.862,-0.022 -3.326,-0.046 0.058,-3.384"
     id="Wayne"
     inkscape:connector-curvature="0" />
  <path
     style="font-size:12px;fill:#d0d0d0;fill-rule:nonzero;stroke:#000000;stroke-width:1;stroke-linecap:butt;stroke-linejoin:bevel;stroke-miterlimit:4;stroke-opacity:1;stroke-dasharray:none;marker-start:none"
     d="m 62.121902,16.602188 0.086,-4.515 3.313,0.049 1.099,1.14 -0.058,3.384 -4.44,-0.058"
     id="Pierce"
     inkscape:connector-curvature="0" />
  <path
     style="font-size:12px;fill:#d0d0d0;fill-rule:nonzero;stroke:#000000;stroke-width:1;stroke-linecap:butt;stroke-linejoin:bevel;stroke-miterlimit:4;stroke-opacity:1;stroke-dasharray:none;marker-start:none"
     d="m 65.605902,6.7411893 0.586,-0.077 0.893,0.036 0.671,0.081 1.091,0.929 1.167,0.334 -0.072,5.2819987 -3.322,-0.05 -1.099,-1.14 0.085,-5.3949987"
     id="Cedar"
     inkscape:connector-curvature="0" />
  <path
     style="font-size:12px;fill:#d0d0d0;fill-rule:nonzero;stroke:#000000;stroke-width:1;stroke-linecap:butt;stroke-linejoin:bevel;stroke-miterlimit:4;stroke-opacity:1;stroke-dasharray:none;marker-start:none"
     d="m 57.845902,6.2401893 1.324,0.6 1.028,0.887 0.203,0.09 0.167,0.027 0.157,-0.008 0.478,-0.072 0.126,-0.078 0.266,-0.242 0.198,-0.284 1.087,-0.401 0.824,0.107 1.902,-0.125 -0.085,5.3949987 -3.313,-0.049 -4.412,-0.086 0.054,-4.2019987 -0.004,-1.559"
     id="Knox"
     inkscape:connector-curvature="0" />
  <path
     style="font-size:12px;fill:#d0d0d0;fill-rule:nonzero;stroke:#000000;stroke-width:1;stroke-linecap:butt;stroke-linejoin:bevel;stroke-miterlimit:4;stroke-opacity:1;stroke-dasharray:none;marker-start:none"
     d="m 74.286902,21.267188 1.055,0.762 -0.005,2.073 0.086,0.311 0.09,0.234 0.924,1.159 -1.366,-0.009 -4.178,-0.812 0,-0.013 0.032,-3.742 3.362,0.037"
     id="Dodge"
     inkscape:connector-curvature="0" />
  <path
     style="font-size:12px;fill:#d0d0d0;fill-rule:nonzero;stroke:#000000;stroke-width:1;stroke-linecap:butt;stroke-linejoin:bevel;stroke-miterlimit:4;stroke-opacity:1;stroke-dasharray:none;marker-start:none"
     d="m 69.833902,21.217188 1.091,0.013 -0.032,3.742 -0.139,-0.004 -0.131,0.036 -1.443,0.698 -1.009,0.23 -0.636,-0.004 0.073,-4.738 2.226,0.027"
     id="Colfax"
     inkscape:connector-curvature="0" />
  <path
     style="font-size:12px;fill:#d0d0d0;fill-rule:nonzero;stroke:#000000;stroke-width:1;stroke-linecap:butt;stroke-linejoin:bevel;stroke-miterlimit:4;stroke-opacity:1;stroke-dasharray:none;marker-start:none"
     d="m 69.887902,16.706188 1.862,0.022 2.559,0.983 -0.022,3.556 -3.362,-0.037 -1.091,-0.013 0.054,-4.511"
     id="Cuming"
     inkscape:connector-curvature="0" />
  <path
     style="font-size:12px;fill:#d0d0d0;fill-rule:nonzero;stroke:#000000;stroke-width:1;stroke-linecap:butt;stroke-linejoin:bevel;stroke-miterlimit:4;stroke-opacity:1;stroke-dasharray:none;marker-start:none"
     d="m 69.887902,16.706188 -0.054,4.511 -2.226,-0.027 -1.109,-0.017 0.063,-4.513 3.326,0.046"
     id="Stanton"
     inkscape:connector-curvature="0" />
  <path
     style="font-size:12px;fill:#d0d0d0;fill-rule:nonzero;stroke:#000000;stroke-width:1;stroke-linecap:butt;stroke-linejoin:bevel;stroke-miterlimit:4;stroke-opacity:1;stroke-dasharray:none;marker-start:none"
     d="m 62.121902,16.602188 4.44,0.058 -0.063,4.513 -4.43,-0.064 0.022,-2.259 0.031,-2.248"
     id="Madison"
     inkscape:connector-curvature="0" />
  <path
     style="font-size:12px;fill:#d0d0d0;fill-rule:nonzero;stroke:#000000;stroke-width:1;stroke-linecap:butt;stroke-linejoin:bevel;stroke-miterlimit:4;stroke-opacity:1;stroke-dasharray:none;marker-start:none"
     d="m 62.121902,16.602188 -0.031,2.248 -4.417,-0.076 0.009,-2.257 0.113,-4.516 4.412,0.086 -0.086,4.515"
     id="Antelope"
     inkscape:connector-curvature="0" />
  <path
     style="font-size:12px;fill:#d0d0d0;fill-rule:nonzero;stroke:#000000;stroke-width:1;stroke-linecap:butt;stroke-linejoin:bevel;stroke-miterlimit:4;stroke-opacity:1;stroke-dasharray:none;marker-start:none"
     d="m 57.673902,18.774188 4.417,0.076 -0.022,2.259 -0.046,2.803 -0.531,-0.004 -1.614,0.357 -0.455,0.184 -1.844,-0.041 0.041,-3.384 0.054,-2.25"
     id="Boone"
     inkscape:connector-curvature="0" />
  <path
     style="font-size:12px;fill:#d0d0d0;fill-rule:nonzero;stroke:#000000;stroke-width:1;stroke-linecap:butt;stroke-linejoin:bevel;stroke-miterlimit:4;stroke-opacity:1;stroke-dasharray:none;marker-start:none"
     d="m 66.498902,21.173188 1.109,0.017 -0.073,4.738 -1.099,-0.235 -2.232,0.771 -1,-0.825 -1.181,-1.727 0.046,-2.803 4.43,0.064"
     id="Platte"
     inkscape:connector-curvature="0" />
  <path
     style="font-size:12px;fill:#d0d0d0;fill-rule:nonzero;stroke:#000000;stroke-width:1;stroke-linecap:butt;stroke-linejoin:bevel;stroke-miterlimit:4;stroke-opacity:1;stroke-dasharray:none;marker-start:none"
     d="m 70.892902,24.985188 4.178,0.812 1.371,2.645 0.076,1.884 -1.402,0.37 0.005,-0.375 -4.305,-0.045 0.077,-5.291"
     id="Saunders"
     inkscape:connector-curvature="0" />
  <path
     style="font-size:12px;fill:#d0d0d0;fill-rule:nonzero;stroke:#000000;stroke-width:1;stroke-linecap:butt;stroke-linejoin:bevel;stroke-miterlimit:4;stroke-opacity:1;stroke-dasharray:none;marker-start:none"
     d="m 70.793902,30.276188 -0.067,4.522 -4.422,-0.06 0.063,-4.524 4.426,0.062"
     id="Seward"
     inkscape:connector-curvature="0" />
  <path
     style="font-size:12px;fill:#d0d0d0;fill-rule:nonzero;stroke:#000000;stroke-width:1;stroke-linecap:butt;stroke-linejoin:bevel;stroke-miterlimit:4;stroke-opacity:1;stroke-dasharray:none;marker-start:none"
     d="m 66.367902,30.214188 0.068,-4.521 1.099,0.235 0.636,0.004 1.009,-0.23 1.443,-0.698 0.131,-0.036 0.139,0.004 0,0.013 -0.077,5.291 -0.022,0 -4.426,-0.062"
     id="Butler"
     inkscape:connector-curvature="0" />
  <path
     style="font-size:12px;fill:#d0d0d0;fill-rule:nonzero;stroke:#000000;stroke-width:1;stroke-linecap:butt;stroke-linejoin:bevel;stroke-miterlimit:4;stroke-opacity:1;stroke-dasharray:none;marker-start:none"
     d="m 64.203902,26.464188 2.232,-0.771 -0.068,4.521 -4.43,-0.072 0.013,-1.651 2.253,-2.027"
     id="Polk"
     inkscape:connector-curvature="0" />
  <path
     style="font-size:12px;fill:#d0d0d0;fill-rule:nonzero;stroke:#000000;stroke-width:1;stroke-linecap:butt;stroke-linejoin:bevel;stroke-miterlimit:4;stroke-opacity:1;stroke-dasharray:none;marker-start:none"
     d="m 66.367902,30.214188 -0.063,4.524 -4.435,-0.081 -0.014,0 0.082,-4.515 4.43,0.072"
     id="York"
     inkscape:connector-curvature="0" />
  <path
     style="font-size:12px;fill:#d0d0d0;fill-rule:nonzero;stroke:#000000;stroke-width:1;stroke-linecap:butt;stroke-linejoin:bevel;stroke-miterlimit:4;stroke-opacity:1;stroke-dasharray:none;marker-start:none"
     d="m 61.937902,30.142188 -0.082,4.515 -4.394,-0.09 -0.045,0 0.054,-2.258 0.478,-0.563 1.018,-1.015 1.204,-0.961 0.365,-0.254 0.054,0.084 0.014,0 0.211,-0.076 0.501,-0.239 0.121,-0.095 0.154,-0.174 0.279,-0.375 0.081,-0.15 -0.013,1.651"
     id="Hamilton"
     inkscape:connector-curvature="0" />
  <path
     style="font-size:12px;fill:#d0d0d0;fill-rule:nonzero;stroke:#000000;stroke-width:1;stroke-linecap:butt;stroke-linejoin:bevel;stroke-miterlimit:4;stroke-opacity:1;stroke-dasharray:none;marker-start:none"
     d="m 57.578902,24.408188 1.844,0.041 0.455,-0.184 1.614,-0.357 0.531,0.004 1.181,1.727 -0.036,1.113 -1.375,-0.009 -1.469,0.153 -0.852,0.18 -0.415,0.173 -1.193,-0.024 -0.199,-0.004 0.054,-1.681 -0.122,-0.006 -0.049,0 0.031,-1.126"
     id="Nance"
     inkscape:connector-curvature="0" />
  <path
     style="font-size:12px;fill:#d0d0d0;fill-rule:nonzero;stroke:#000000;stroke-width:1;stroke-linecap:butt;stroke-linejoin:bevel;stroke-miterlimit:4;stroke-opacity:1;stroke-dasharray:none;marker-start:none"
     d="m 57.596902,25.534188 0.122,0.006 -0.054,1.681 0.199,0.004 1.193,0.024 0.415,-0.173 0.852,-0.18 1.469,-0.153 1.375,0.009 0.036,-1.113 1,0.825 -2.253,2.027 -0.081,0.15 -0.279,0.375 -0.154,0.174 -0.121,0.095 -0.501,0.239 -0.211,0.076 -0.014,0 -0.054,-0.084 -0.365,0.254 -1.204,0.961 -1.018,1.015 -0.478,0.563 0.014,-2.262 0.112,-4.513"
     id="Merrick"
     inkscape:connector-curvature="0" />
  <path
     style="font-size:12px;fill:#d0d0d0;fill-rule:nonzero;stroke:#000000;stroke-width:1;stroke-linecap:butt;stroke-linejoin:bevel;stroke-miterlimit:4;stroke-opacity:1;stroke-dasharray:none;marker-start:none"
     d="m 53.279902,29.934188 4.205,0.113 -0.014,2.262 -0.054,2.258 -4.263,-0.121 0.126,-4.512"
     id="Hall"
     inkscape:connector-curvature="0" />
  <path
     style="font-size:12px;fill:#d0d0d0;fill-rule:nonzero;stroke:#000000;stroke-width:1;stroke-linecap:butt;stroke-linejoin:bevel;stroke-miterlimit:4;stroke-opacity:1;stroke-dasharray:none;marker-start:none"
     d="m 53.193902,25.413188 4.354,0.121 0.049,0 -0.112,4.513 -4.205,-0.113 -0.257,-0.009 0.171,-4.512"
     id="Howard"
     inkscape:connector-curvature="0" />
  <path
     style="font-size:12px;fill:#d0d0d0;fill-rule:nonzero;stroke:#000000;stroke-width:1;stroke-linecap:butt;stroke-linejoin:bevel;stroke-miterlimit:4;stroke-opacity:1;stroke-dasharray:none;marker-start:none"
     d="m 53.121902,25.413188 0.072,0 -0.171,4.512 -4.44,-0.145 0.194,-4.502 4.345,0.135"
     id="Sherman"
     inkscape:connector-curvature="0" />
  <path
     style="font-size:12px;fill:#d0d0d0;fill-rule:nonzero;stroke:#000000;stroke-width:1;stroke-linecap:butt;stroke-linejoin:bevel;stroke-miterlimit:4;stroke-opacity:1;stroke-dasharray:none;marker-start:none"
     d="m 48.997902,4.4701893 7.107,0.208 1.741,1.562 0.004,1.559 -1.487,-0.104 -1.015,-0.189 -1.541,-0.522 -0.847,-0.293 -0.956,-0.549 -0.23,-0.235 -0.113,-0.037 -0.148,-0.004 -0.108,0.026 -1.627,0.676 -0.816,0.349 -0.072,0.058 0.108,-2.505"
     id="Boyd"
     inkscape:connector-curvature="0" />
  <path
     style="font-size:12px;fill:#d0d0d0;fill-rule:nonzero;stroke:#000000;stroke-width:1;stroke-linecap:butt;stroke-linejoin:bevel;stroke-miterlimit:4;stroke-opacity:1;stroke-dasharray:none;marker-start:none"
     d="m 48.889902,6.9751893 0.072,-0.058 0.816,-0.349 1.627,-0.676 0.108,-0.026 0.148,0.004 0.113,0.037 0.23,0.235 0.956,0.549 0.847,0.293 1.541,0.522 1.015,0.189 1.487,0.104 -0.054,4.2019987 -0.113,4.516 -4.39,-0.114 -4.399,-0.131 -0.112,-0.004 0.144,-4.132 0.04,-4.4529987 -0.076,-0.708"
     id="Holt"
     inkscape:connector-curvature="0" />
  <path
     style="font-size:12px;fill:#d0d0d0;fill-rule:nonzero;stroke:#000000;stroke-width:1;stroke-linecap:butt;stroke-linejoin:bevel;stroke-miterlimit:4;stroke-opacity:1;stroke-dasharray:none;marker-start:none"
     d="m 48.844902,20.780188 4.335,0.14 0.068,0 -0.126,4.493 -4.345,-0.135 0.068,-4.498"
     id="Valley"
     inkscape:connector-curvature="0" />
  <path
     style="font-size:12px;fill:#d0d0d0;fill-rule:nonzero;stroke:#000000;stroke-width:1;stroke-linecap:butt;stroke-linejoin:bevel;stroke-miterlimit:4;stroke-opacity:1;stroke-dasharray:none;marker-start:none"
     d="m 57.619902,21.024188 -0.041,3.384 -0.031,1.126 -4.354,-0.121 -0.072,0 0.126,-4.493 4.372,0.104"
     id="Greeley"
     inkscape:connector-curvature="0" />
  <path
     style="font-size:12px;fill:#d0d0d0;fill-rule:nonzero;stroke:#000000;stroke-width:1;stroke-linecap:butt;stroke-linejoin:bevel;stroke-miterlimit:4;stroke-opacity:1;stroke-dasharray:none;marker-start:none"
     d="m 57.682902,16.517188 -0.009,2.257 -0.054,2.25 -4.372,-0.104 -0.068,0 0.113,-4.517 4.39,0.114"
     id="Wheeler"
     inkscape:connector-curvature="0" />
  <path
     style="font-size:12px;fill:#d0d0d0;fill-rule:nonzero;stroke:#000000;stroke-width:1;stroke-linecap:butt;stroke-linejoin:bevel;stroke-miterlimit:4;stroke-opacity:1;stroke-dasharray:none;marker-start:none"
     d="m 48.749902,20.775188 0.144,-4.503 4.399,0.131 -0.113,4.517 -4.335,-0.14 -0.095,-0.005"
     id="Garfield"
     inkscape:connector-curvature="0" />
  <path
     style="font-size:12px;fill:#d0d0d0;fill-rule:nonzero;stroke:#000000;stroke-width:1;stroke-linecap:butt;stroke-linejoin:bevel;stroke-miterlimit:4;stroke-opacity:1;stroke-dasharray:none;marker-start:none"
     d="m 48.781902,16.268188 0.112,0.004 -0.144,4.503 -4.448,-0.157 0.171,-4.484 0.234,0.012 4.075,0.122"
     id="Loup"
     inkscape:connector-curvature="0" />
  <path
     style="font-size:12px;fill:#d0d0d0;fill-rule:nonzero;stroke:#000000;stroke-width:1;stroke-linecap:butt;stroke-linejoin:bevel;stroke-miterlimit:4;stroke-opacity:1;stroke-dasharray:none;marker-start:none"
     d="m 48.781902,16.268188 -4.075,-0.122 0.162,-4.519999 -0.117,0 0.136,-3.8439997 0.711,0.152 0.523,0.059 0.19,-0.026 0.333,-0.123 2.069,-0.751 0.081,-0.037 0.095,-0.081 0.076,0.708 -0.04,4.4529987 -0.144,4.132"
     id="Rock"
     inkscape:connector-curvature="0" />
  <path
     style="font-size:12px;fill:#d0d0d0;fill-rule:nonzero;stroke:#000000;stroke-width:1;stroke-linecap:butt;stroke-linejoin:bevel;stroke-miterlimit:4;stroke-opacity:1;stroke-dasharray:none;marker-start:none"
     d="m 40.127902,4.1141893 6.242,0.262 2.628,0.094 -0.108,2.505 -0.095,0.081 -0.081,0.037 -2.069,0.751 -0.333,0.123 -0.19,0.026 -0.523,-0.059 -0.711,-0.152 -0.082,0.031 -0.175,0 -0.695,-0.122 -2.591,-0.757 -0.541,-0.22 -0.18,-0.104 -0.587,-0.523 0.091,-1.973"
     id="Keya Paha"
     inkscape:connector-curvature="0" />
  <path
     style="font-size:12px;fill:#d0d0d0;fill-rule:nonzero;stroke:#000000;stroke-width:1;stroke-linecap:butt;stroke-linejoin:bevel;stroke-miterlimit:4;stroke-opacity:1;stroke-dasharray:none;marker-start:none"
     d="m 44.887902,7.7821893 -0.136,3.8439997 0.117,0 -0.162,4.519999 -0.234,-0.012 -4.575,-0.186 0.198,-4.501999 -0.059,-5.3589997 0.587,0.523 0.18,0.104 0.541,0.22 2.591,0.757 0.695,0.122 0.175,0 0.082,-0.031"
     id="Brown"
     inkscape:connector-curvature="0" />
  <path
     style="font-size:12px;fill:#d0d0d0;fill-rule:nonzero;stroke:#000000;stroke-width:1;stroke-linecap:butt;stroke-linejoin:bevel;stroke-miterlimit:4;stroke-opacity:1;stroke-dasharray:none;marker-start:none"
     d="m 38.946902,15.903188 0.951,0.045 4.575,0.186 -0.171,4.484 -5.4,-0.217 -0.139,-0.009 0.184,-4.489"
     id="Blaine"
     inkscape:connector-curvature="0" />
  <path
     style="font-size:12px;fill:#d0d0d0;fill-rule:nonzero;stroke:#000000;stroke-width:1;stroke-linecap:butt;stroke-linejoin:bevel;stroke-miterlimit:4;stroke-opacity:1;stroke-dasharray:none;marker-start:none"
     d="m 44.301902,20.618188 4.448,0.157 0.095,0.005 -0.068,4.498 -0.194,4.502 -2.109,-0.066 -7.716,-0.312 -0.136,-0.004 0.077,-1.506 0.086,-1.297 0.054,-1.641 -0.14,-0.059 0.203,-4.494 5.4,0.217"
     id="Custer"
     inkscape:connector-curvature="0" />
  <path
     style="font-size:12px;fill:#d0d0d0;fill-rule:nonzero;stroke:#000000;stroke-width:1;stroke-linecap:butt;stroke-linejoin:bevel;stroke-miterlimit:4;stroke-opacity:1;stroke-dasharray:none;marker-start:none"
     d="m 46.473902,29.714188 2.109,0.066 4.44,0.145 0.257,0.009 -0.126,4.512 -0.032,0.121 -0.307,0.036 -0.703,0.14 -0.373,0.176 -0.397,0.076 -1.186,-0.04 -1.383,-0.117 -0.082,-0.031 -2.307,-0.212 0.09,-4.881"
     id="Buffalo"
     inkscape:connector-curvature="0" />
  <path
     style="font-size:12px;fill:#d0d0d0;fill-rule:nonzero;stroke:#000000;stroke-width:1;stroke-linecap:butt;stroke-linejoin:bevel;stroke-miterlimit:4;stroke-opacity:1;stroke-dasharray:none;marker-start:none"
     d="m 38.757902,29.402188 7.716,0.312 -0.09,4.881 -2.191,-0.266 -3.277,-0.325 -2.348,-0.108 0.19,-4.494"
     id="Dawson"
     inkscape:connector-curvature="0" />
  <path
     style="font-size:12px;fill:#d0d0d0;fill-rule:nonzero;stroke:#000000;stroke-width:1;stroke-linecap:butt;stroke-linejoin:bevel;stroke-miterlimit:4;stroke-opacity:1;stroke-dasharray:none;marker-start:none"
     d="m 44.192902,34.329188 2.191,0.266 2.307,0.212 -0.135,4.024 -4.408,-0.162 -0.113,-0.005 0.158,-4.335"
     id="Phelps"
     inkscape:connector-curvature="0" />
  <path
     style="font-size:12px;fill:#d0d0d0;fill-rule:nonzero;stroke:#000000;stroke-width:1;stroke-linecap:butt;stroke-linejoin:bevel;stroke-miterlimit:4;stroke-opacity:1;stroke-dasharray:none;marker-start:none"
     d="m 53.121902,34.567188 -0.117,4.408 -0.032,-0.004 -4.417,-0.14 0.135,-4.024 0.082,0.031 1.383,0.117 1.186,0.04 0.397,-0.076 0.373,-0.176 0.703,-0.14 0.307,-0.036"
     id="Kearney"
     inkscape:connector-curvature="0" />
  <path
     style="font-size:12px;fill:#d0d0d0;fill-rule:nonzero;stroke:#000000;stroke-width:1;stroke-linecap:butt;stroke-linejoin:bevel;stroke-miterlimit:4;stroke-opacity:1;stroke-dasharray:none;marker-start:none"
     d="m 53.121902,34.567188 0.032,-0.121 4.263,0.121 0.045,0 -0.108,4.522 -4.349,-0.114 0.117,-4.408"
     id="Adams"
     inkscape:connector-curvature="0" />
  <path
     style="font-size:12px;fill:#d0d0d0;fill-rule:nonzero;stroke:#000000;stroke-width:1;stroke-linecap:butt;stroke-linejoin:bevel;stroke-miterlimit:4;stroke-opacity:1;stroke-dasharray:none;marker-start:none"
     d="m 61.855902,34.657188 0.014,0 -0.081,4.526 -4.39,-0.094 -0.045,0 0.108,-4.522 4.394,0.09"
     id="Clay"
     inkscape:connector-curvature="0" />
  <path
     style="font-size:12px;fill:#d0d0d0;fill-rule:nonzero;stroke:#000000;stroke-width:1;stroke-linecap:butt;stroke-linejoin:bevel;stroke-miterlimit:4;stroke-opacity:1;stroke-dasharray:none;marker-start:none"
     d="m 66.304902,34.738188 -0.067,4.521 -4.418,-0.076 -0.031,0 0.081,-4.526 4.435,0.081"
     id="Fillmore"
     inkscape:connector-curvature="0" />
  <path
     style="font-size:12px;fill:#d0d0d0;fill-rule:nonzero;stroke:#000000;stroke-width:1;stroke-linecap:butt;stroke-linejoin:bevel;stroke-miterlimit:4;stroke-opacity:1;stroke-dasharray:none;marker-start:none"
     d="m 66.304902,34.738188 4.422,0.06 -0.018,2.266 -0.054,2.258 -4.417,-0.063 0.067,-4.521"
     id="Saline"
     inkscape:connector-curvature="0" />
  <path
     style="font-size:12px;fill:#d0d0d0;fill-rule:nonzero;stroke:#000000;stroke-width:1;stroke-linecap:butt;stroke-linejoin:bevel;stroke-miterlimit:4;stroke-opacity:1;stroke-dasharray:none;marker-start:none"
     d="m 70.815902,30.276188 4.305,0.045 -0.005,0.375 -0.018,3.015 -0.013,3.393 -4.376,-0.04 0.018,-2.266 0.067,-4.522 0.022,0"
     id="Lancaster"
     inkscape:connector-curvature="0" />
  <path
     style="font-size:12px;fill:#d0d0d0;fill-rule:nonzero;stroke:#000000;stroke-width:1;stroke-linecap:butt;stroke-linejoin:bevel;stroke-miterlimit:4;stroke-opacity:1;stroke-dasharray:none;marker-start:none"
     d="m 75.084902,37.104188 -0.014,3.386 -0.017,3.394 -3.354,-0.028 -1.086,-0.013 0.041,-4.521 0.054,-2.258 4.376,0.04"
     id="Gage"
     inkscape:connector-curvature="0" />
  <path
     style="font-size:12px;fill:#d0d0d0;fill-rule:nonzero;stroke:#000000;stroke-width:1;stroke-linecap:butt;stroke-linejoin:bevel;stroke-miterlimit:4;stroke-opacity:1;stroke-dasharray:none;marker-start:none"
     d="m 66.237902,39.259188 4.417,0.063 -0.041,4.521 -4.449,-0.059 0.073,-4.525"
     id="Jefferson"
     inkscape:connector-curvature="0" />
  <path
     style="font-size:12px;fill:#d0d0d0;fill-rule:nonzero;stroke:#000000;stroke-width:1;stroke-linecap:butt;stroke-linejoin:bevel;stroke-miterlimit:4;stroke-opacity:1;stroke-dasharray:none;marker-start:none"
     d="m 66.237902,39.259188 -0.073,4.525 -4.439,-0.071 0.094,-4.53 4.418,0.076"
     id="Thayer"
     inkscape:connector-curvature="0" />
  <path
     style="font-size:12px;fill:#d0d0d0;fill-rule:nonzero;stroke:#000000;stroke-width:1;stroke-linecap:butt;stroke-linejoin:bevel;stroke-miterlimit:4;stroke-opacity:1;stroke-dasharray:none;marker-start:none"
     d="m 61.788902,39.183188 0.031,0 -0.094,4.53 -1.082,-0.024 -3.358,-0.081 0.113,-4.519 4.39,0.094"
     id="Nuckolls"
     inkscape:connector-curvature="0" />
  <path
     style="font-size:12px;fill:#d0d0d0;fill-rule:nonzero;stroke:#000000;stroke-width:1;stroke-linecap:butt;stroke-linejoin:bevel;stroke-miterlimit:4;stroke-opacity:1;stroke-dasharray:none;marker-start:none"
     d="m 53.004902,38.975188 4.349,0.114 0.045,0 -0.113,4.519 -2.262,-0.053 -2.177,-0.059 0.126,-4.525 0.032,0.004"
     id="Webster"
     inkscape:connector-curvature="0" />
  <path
     style="font-size:12px;fill:#d0d0d0;fill-rule:nonzero;stroke:#000000;stroke-width:1;stroke-linecap:butt;stroke-linejoin:bevel;stroke-miterlimit:4;stroke-opacity:1;stroke-dasharray:none;marker-start:none"
     d="m 52.972902,38.971188 -0.126,4.525 -3.34,-0.104 -1.099,-0.031 0.148,-4.53 4.417,0.14"
     id="Franklin"
     inkscape:connector-curvature="0" />
  <path
     style="font-size:12px;fill:#d0d0d0;fill-rule:nonzero;stroke:#000000;stroke-width:1;stroke-linecap:butt;stroke-linejoin:bevel;stroke-miterlimit:4;stroke-opacity:1;stroke-dasharray:none;marker-start:none"
     d="m 44.147902,38.669188 4.408,0.162 -0.148,4.53 -4.386,-0.158 -0.023,0 0.149,-4.534"
     id="Harlan"
     inkscape:connector-curvature="0" />
  <path
     style="font-size:12px;fill:#d0d0d0;fill-rule:nonzero;stroke:#000000;stroke-width:1;stroke-linecap:butt;stroke-linejoin:bevel;stroke-miterlimit:4;stroke-opacity:1;stroke-dasharray:none;marker-start:none"
     d="m 44.192902,34.329188 -0.158,4.335 -4.417,-0.181 0.046,-1.134 1.113,0.053 0.139,-3.398 3.277,0.325"
     id="Gosper"
     inkscape:connector-curvature="0" />
  <path
     style="font-size:12px;fill:#d0d0d0;fill-rule:nonzero;stroke:#000000;stroke-width:1;stroke-linecap:butt;stroke-linejoin:bevel;stroke-miterlimit:4;stroke-opacity:1;stroke-dasharray:none;marker-start:none"
     d="m 38.613902,38.453188 1.004,0.03 4.417,0.181 0.113,0.005 -0.149,4.534 -5.39,-0.216 -0.153,-0.01 0.158,-4.524"
     id="Furnas"
     inkscape:connector-curvature="0" />
  <path
     style="font-size:12px;fill:#d0d0d0;fill-rule:nonzero;stroke:#000000;stroke-width:1;stroke-linecap:butt;stroke-linejoin:bevel;stroke-miterlimit:4;stroke-opacity:1;stroke-dasharray:none;marker-start:none"
     d="m 33.141902,38.200188 5.472,0.253 -0.158,4.524 -5.345,-0.256 -0.195,-0.014 0.226,-4.507"
     id="Red Willow"
     inkscape:connector-curvature="0" />
  <path
     style="font-size:12px;fill:#d0d0d0;fill-rule:nonzero;stroke:#000000;stroke-width:1;stroke-linecap:butt;stroke-linejoin:bevel;stroke-miterlimit:4;stroke-opacity:1;stroke-dasharray:none;marker-start:none"
     d="m 27.633902,37.898188 5.328,0.298 0.18,0.004 -0.226,4.507 -5.543,-0.297 0.261,-4.512"
     id="Hitchcock"
     inkscape:connector-curvature="0" />
  <path
     style="font-size:12px;fill:#d0d0d0;fill-rule:nonzero;stroke:#000000;stroke-width:1;stroke-linecap:butt;stroke-linejoin:bevel;stroke-miterlimit:4;stroke-opacity:1;stroke-dasharray:none;marker-start:none"
     d="m 27.444902,37.890188 0.189,0.008 -0.261,4.512 -0.852,-0.045 -6.274,-0.389 0.284,-4.488 6.914,0.402"
     id="Dundy"
     inkscape:connector-curvature="0" />
  <path
     style="font-size:12px;fill:#d0d0d0;fill-rule:nonzero;stroke:#000000;stroke-width:1;stroke-linecap:butt;stroke-linejoin:bevel;stroke-miterlimit:4;stroke-opacity:1;stroke-dasharray:none;marker-start:none"
     d="m 33.181902,33.642188 5.386,0.254 2.348,0.108 -0.139,3.398 -1.113,-0.053 -0.046,1.134 -1.004,-0.03 -5.472,-0.253 -0.18,-0.004 0.22,-4.554"
     id="Frontier"
     inkscape:connector-curvature="0" />
  <path
     style="font-size:12px;fill:#d0d0d0;fill-rule:nonzero;stroke:#000000;stroke-width:1;stroke-linecap:butt;stroke-linejoin:bevel;stroke-miterlimit:4;stroke-opacity:1;stroke-dasharray:none;marker-start:none"
     d="m 33.181902,33.642188 -0.22,4.554 -5.328,-0.298 -0.189,-0.008 0.23,-4.513 0.946,0.055 4.561,0.21"
     id="Hayes"
     inkscape:connector-curvature="0" />
  <path
     style="font-size:12px;fill:#d0d0d0;fill-rule:nonzero;stroke:#000000;stroke-width:1;stroke-linecap:butt;stroke-linejoin:bevel;stroke-miterlimit:4;stroke-opacity:1;stroke-dasharray:none;marker-start:none"
     d="m 20.823902,32.972188 6.851,0.405 -0.23,4.513 -6.914,-0.402 0.293,-4.516"
     id="Chase"
     inkscape:connector-curvature="0" />
  <path
     style="font-size:12px;fill:#d0d0d0;fill-rule:nonzero;stroke:#000000;stroke-width:1;stroke-linecap:butt;stroke-linejoin:bevel;stroke-miterlimit:4;stroke-opacity:1;stroke-dasharray:none;marker-start:none"
     d="m 21.071902,29.018188 0.004,-0.017 7.744,0.46 -0.199,3.971 -0.946,-0.055 -6.851,-0.405 0.045,-0.677 0.203,-3.277"
     id="Perkins"
     inkscape:connector-curvature="0" />
  <path
     style="font-size:12px;fill:#d0d0d0;fill-rule:nonzero;stroke:#000000;stroke-width:1;stroke-linecap:butt;stroke-linejoin:bevel;stroke-miterlimit:4;stroke-opacity:1;stroke-dasharray:none;marker-start:none"
     d="m 34.254902,24.679188 4.444,0.216 0.14,0.059 -0.054,1.641 -0.086,1.297 -0.077,1.506 0.136,0.004 -0.19,4.494 -5.386,-0.254 -4.561,-0.21 0.199,-3.971 0.09,-5.079 5.345,0.297"
     id="Lincoln"
     inkscape:connector-curvature="0" />
  <path
     style="font-size:12px;fill:#d0d0d0;fill-rule:nonzero;stroke:#000000;stroke-width:1;stroke-linecap:butt;stroke-linejoin:bevel;stroke-miterlimit:4;stroke-opacity:1;stroke-dasharray:none;marker-start:none"
     d="m 22.040902,23.975188 5.548,0.326 1.321,0.081 -0.09,5.079 -7.744,-0.46 0.14,-2.821 0.825,-2.205"
     id="Keith"
     inkscape:connector-curvature="0" />
  <path
     style="font-size:12px;fill:#d0d0d0;fill-rule:nonzero;stroke:#000000;stroke-width:1;stroke-linecap:butt;stroke-linejoin:bevel;stroke-miterlimit:4;stroke-opacity:1;stroke-dasharray:none;marker-start:none"
     d="m 34.493902,20.194188 4.269,0.198 0.139,0.009 -0.203,4.494 -4.444,-0.216 0.239,-4.485"
     id="Logan"
     inkscape:connector-curvature="0" />
  <path
     style="font-size:12px;fill:#d0d0d0;fill-rule:nonzero;stroke:#000000;stroke-width:1;stroke-linecap:butt;stroke-linejoin:bevel;stroke-miterlimit:4;stroke-opacity:1;stroke-dasharray:none;marker-start:none"
     d="m 27.850902,19.793188 2.456,0.149 1.685,0.117 1.254,0.063 1.248,0.072 -0.239,4.485 -5.345,-0.297 -1.321,-0.081 0.262,-4.508"
     id="McPherson"
     inkscape:connector-curvature="0" />
  <path
     style="font-size:12px;fill:#d0d0d0;fill-rule:nonzero;stroke:#000000;stroke-width:1;stroke-linecap:butt;stroke-linejoin:bevel;stroke-miterlimit:4;stroke-opacity:1;stroke-dasharray:none;marker-start:none"
     d="m 22.315902,19.474188 5.35,0.31 0.185,0.009 -0.262,4.508 -5.548,-0.326 0.275,-4.501"
     id="Arthur"
     inkscape:connector-curvature="0" />
  <path
     style="font-size:12px;fill:#d0d0d0;fill-rule:nonzero;stroke:#000000;stroke-width:1;stroke-linecap:butt;stroke-linejoin:bevel;stroke-miterlimit:4;stroke-opacity:1;stroke-dasharray:none;marker-start:none"
     d="m 33.438902,15.610188 5.508,0.293 -0.184,4.489 -4.269,-0.198 -1.248,-0.072 0.193,-4.512"
     id="Thomas"
     inkscape:connector-curvature="0" />
  <path
     style="font-size:12px;fill:#d0d0d0;fill-rule:nonzero;stroke:#000000;stroke-width:1;stroke-linecap:butt;stroke-linejoin:bevel;stroke-miterlimit:4;stroke-opacity:1;stroke-dasharray:none;marker-start:none"
     d="m 27.917902,15.264188 5.521,0.346 -0.193,4.512 -1.254,-0.063 -1.685,-0.117 -2.456,-0.149 -0.185,-0.009 0.252,-4.52"
     id="Hooker"
     inkscape:connector-curvature="0" />
  <path
     style="font-size:12px;fill:#d0d0d0;fill-rule:nonzero;stroke:#000000;stroke-width:1;stroke-linecap:butt;stroke-linejoin:bevel;stroke-miterlimit:4;stroke-opacity:1;stroke-dasharray:none;marker-start:none"
     d="m 21.761902,15.967188 0.648,-1.091 5.508,0.388 -0.252,4.52 -5.35,-0.31 -0.789,-0.046 0.235,-3.461"
     id="Grant"
     inkscape:connector-curvature="0" />
  <path
     style="font-size:12px;fill:#d0d0d0;fill-rule:nonzero;stroke:#000000;stroke-width:1;stroke-linecap:butt;stroke-linejoin:bevel;stroke-miterlimit:4;stroke-opacity:1;stroke-dasharray:none;marker-start:none"
     d="m 15.874902,25.819188 5.341,0.361 -0.14,2.821 -0.004,0.017 -5.498,-0.368 0.301,-2.831"
     id="Deuel"
     inkscape:connector-curvature="0" />
  <path
     style="font-size:12px;fill:#d0d0d0;fill-rule:nonzero;stroke:#000000;stroke-width:1;stroke-linecap:butt;stroke-linejoin:bevel;stroke-miterlimit:4;stroke-opacity:1;stroke-dasharray:none;marker-start:none"
     d="m 21.761902,15.967188 -0.235,3.461 0.789,0.046 -0.275,4.501 -0.825,2.205 -5.341,-0.361 -0.058,-2.835 0.22,-3.209 -0.212,-0.749 -0.062,-0.377 -0.014,-0.231 0.032,-0.689 0.162,-2.1 5.819,0.338"
     id="Garden"
     inkscape:connector-curvature="0" />
  <path
     style="font-size:12px;fill:#d0d0d0;fill-rule:nonzero;stroke:#000000;stroke-width:1;stroke-linecap:butt;stroke-linejoin:bevel;stroke-miterlimit:4;stroke-opacity:1;stroke-dasharray:none;marker-start:none"
     d="m 15.816902,22.984188 0.058,2.835 -0.301,2.831 -0.312,-0.018 -7.0399998,-0.515 0.446,-5.079 0.127,-0.555 7.0219998,0.501"
     id="Cheyenne"
     inkscape:connector-curvature="0" />
  <path
     style="font-size:12px;fill:#d0d0d0;fill-rule:nonzero;stroke:#000000;stroke-width:1;stroke-linecap:butt;stroke-linejoin:bevel;stroke-miterlimit:4;stroke-opacity:1;stroke-dasharray:none;marker-start:none"
     d="m 15.748902,15.619188 0.194,0.01 -0.162,2.1 -0.032,0.689 0.014,0.231 0.062,0.377 0.212,0.749 -0.22,3.209 -7.0219998,-0.501 0.247,-3.383 0.375,-3.926 6.3319998,0.445"
     id="Morrill"
     inkscape:connector-curvature="0" />
  <path
     style="font-size:12px;fill:#d0d0d0;fill-rule:nonzero;stroke:#000000;stroke-width:1;stroke-linecap:butt;stroke-linejoin:bevel;stroke-miterlimit:4;stroke-opacity:1;stroke-dasharray:none;marker-start:none"
     d="m 8.6679022,23.038188 -0.446,5.079 -1.852,-0.143 -4.615,-0.378 0.437,-5.067 6.476,0.509"
     id="Kimball"
     inkscape:connector-curvature="0" />
  <path
     style="font-size:12px;fill:#d0d0d0;fill-rule:nonzero;stroke:#000000;stroke-width:1;stroke-linecap:butt;stroke-linejoin:bevel;stroke-miterlimit:4;stroke-opacity:1;stroke-dasharray:none;marker-start:none"
     d="m 9.0419022,19.100188 -0.247,3.383 -0.127,0.555 -6.476,-0.509 0.329,-3.943 6.521,0.514"
     id="Banner"
     inkscape:connector-curvature="0" />
  <path
     style="font-size:12px;fill:#d0d0d0;fill-rule:nonzero;stroke:#000000;stroke-width:1;stroke-linecap:butt;stroke-linejoin:bevel;stroke-miterlimit:4;stroke-opacity:1;stroke-dasharray:none;marker-start:none"
     d="m 9.0509022,15.138188 0.366,0.036 -0.375,3.926 -6.521,-0.514 0.338,-3.927 6.192,0.479"
     id="Scotts Bluff"
     inkscape:connector-curvature="0" />
  <path
     style="font-size:12px;fill:#d0d0d0;fill-rule:nonzero;stroke:#000000;stroke-width:1;stroke-linecap:butt;stroke-linejoin:bevel;stroke-miterlimit:4;stroke-opacity:1;stroke-dasharray:none;marker-start:none"
     d="m 15.748902,15.619188 -6.3319998,-0.445 -0.366,-0.036 0.086,-1.123 -0.401,-0.036 0.347,-4.4799988 6.3499998,0.441 0.226,0.014 -0.252,4.5019988 0.238,0.398 0.104,0.765"
     id="Box Butte"
     inkscape:connector-curvature="0" />
  <path
     style="font-size:12px;fill:#d0d0d0;fill-rule:nonzero;stroke:#000000;stroke-width:1;stroke-linecap:butt;stroke-linejoin:bevel;stroke-miterlimit:4;stroke-opacity:1;stroke-dasharray:none;marker-start:none"
     d="m 22.432902,3.1431893 0,0 1.942,0.127 2.344,0.18 3.736,0.194 3.016,0.158 3.407,0.158 1.83,0.086 0.672,0.031 0.748,0.037 -0.091,1.973 0.059,5.3589997 -0.198,4.501999 -0.951,-0.045 -5.508,-0.293 -5.521,-0.346 -5.508,-0.388 -0.324,-0.027 0.306,-4.484999 -0.089,-1.4869998 0.098,-2.9559999 -0.045,-0.93 0.077,-1.848"
     id="Cherry"
     inkscape:connector-curvature="0" />
  <path
     style="font-size:12px;fill:#d0d0d0;fill-rule:nonzero;stroke:#000000;stroke-width:1;stroke-linecap:butt;stroke-linejoin:bevel;stroke-miterlimit:4;stroke-opacity:1;stroke-dasharray:none;marker-start:none"
     d="m 22.432902,3.1431893 -0.077,1.848 0.045,0.93 -0.098,2.9559999 0.089,1.4869998 -0.306,4.484999 0.324,0.027 -0.648,1.091 -5.819,-0.338 -0.194,-0.01 -0.104,-0.765 -0.238,-0.398 0.252,-4.5019988 -0.226,-0.014 0.262,-3.7259999 -0.126,-0.754 0.202,-2.775 6.662,0.458"
     id="Sheridan"
     inkscape:connector-curvature="0" />
</svg>
