<?xml version="1.0" encoding="UTF-8" standalone="no"?>
<!-- Created with Inkscape (http://www.inkscape.org/) -->

<svg
   xmlns:dc="http://purl.org/dc/elements/1.1/"
   xmlns:cc="http://creativecommons.org/ns#"
   xmlns:rdf="http://www.w3.org/1999/02/22-rdf-syntax-ns#"
   xmlns:svg="http://www.w3.org/2000/svg"
   xmlns="http://www.w3.org/2000/svg"
   xmlns:sodipodi="http://sodipodi.sourceforge.net/DTD/sodipodi-0.dtd"
   xmlns:inkscape="http://www.inkscape.org/namespaces/inkscape"
   version="1.0"
   width="85.400002"
   height="72.610001"
   sodipodi:version="0.32"
   inkscape:version="0.48.2 r9819"
   sodipodi:docname="or.svg"
   inkscape:output_extension="org.inkscape.output.svg.inkscape"
   id="svg3029">
  <metadata
     id="metadata3031">
    <rdf:RDF>
      <cc:Work
         rdf:about="">
        <dc:format>image/svg+xml</dc:format>
        <dc:type
           rdf:resource="http://purl.org/dc/dcmitype/StillImage" />
      </cc:Work>
    </rdf:RDF>
  </metadata>
  <sodipodi:namedview
     inkscape:window-height="746"
     inkscape:window-width="1366"
     inkscape:pageshadow="2"
     inkscape:pageopacity="0.0"
     guidetolerance="10.0"
     gridtolerance="10.0"
     objecttolerance="10.0"
     borderopacity="1.0"
     bordercolor="#666666"
     pagecolor="#ffffff"
     inkscape:zoom="3.684687"
     inkscape:cx="134.0659"
     inkscape:cy="55.522039"
     inkscape:window-x="-8"
     inkscape:window-y="-8"
     inkscape:current-layer="svg3029"
     showguides="true"
     inkscape:guide-bbox="true"
     fit-margin-top="0"
     fit-margin-left="0"
     fit-margin-right="0"
     fit-margin-bottom="0"
     inkscape:window-maximized="0"
     id="namedview3033"
     showgrid="false" />
  <defs
     id="defs3035" />
  <path
     style="font-size:12px;fill:#d0d0d0;fill-rule:nonzero;stroke:#000000;stroke-width:1;stroke-linecap:butt;stroke-linejoin:bevel;stroke-miterlimit:4;stroke-opacity:1;stroke-dasharray:none;marker-start:none"
     d="m 25.89352,3.6874981 -1.317,4.534 -1.09,-0.266 -2.006,-0.568 -0.027,-0.013 0.009,-0.131 -2.136,-0.645 1.203,-2.681 0.108,-0.402 0.077,-0.378 0.036,-0.469 0.005,-0.085 3.524,-0.483 0.401,-0.144 0.045,-0.131 0.581,0.032 0.05,0.031 0.027,0.014 0.036,0.059 0.131,0.234 0.094,0.302 -0.197,0.577 0.378,0.59 0.068,0.023"
     id="Clatsop"
     inkscape:connector-curvature="0" />
  <path
     style="font-size:12px;fill:#d0d0d0;fill-rule:nonzero;stroke:#000000;stroke-width:1;stroke-linecap:butt;stroke-linejoin:bevel;stroke-miterlimit:4;stroke-opacity:1;stroke-dasharray:none;marker-start:none"
     d="m 27.28552,3.7454981 0.46,-0.085 0.424,0.176 1.455,1.784 0.086,0.339 0.252,1.405 -0.081,1.226 -0.067,0.2120004 -0.235,1.5729985 -1.469,-0.347 -0.681,-0.9639989 -2.853,-0.843 1.317,-4.534 1.392,0.058"
     id="Columbia"
     inkscape:connector-curvature="0" />
  <path
     style="font-size:12px;fill:#d0d0d0;fill-rule:nonzero;stroke:#000000;stroke-width:1;stroke-linecap:butt;stroke-linejoin:bevel;stroke-miterlimit:4;stroke-opacity:1;stroke-dasharray:none;marker-start:none"
     d="m 9.5235202,44.062496 0.8419998,0.328 -0.04,0.014 -0.167,0.126 -1.4009998,1.424 -0.005,0.063 0.054,0.14 0,0.05 -0.04,0.067 -0.852,1.046 -0.185,0.112 -0.351,-0.022 -0.492,-0.185 -0.041,-0.032 -0.148,1.867 0.383,0.23 0.351,0.513 0.09,1.077 -0.049,0.33 -0.23,0.36 -0.216,0.307 -0.626,1.32 0.013,0.352 0.054,0.342 -3.552,-1.118 -0.356,-0.748 -0.419,-1.271 0.095,-2.754 0.32,-1.063 0.266,-0.712 0.067,-0.154 0.144,-3.506 0.005,-1.181 1.1,-1.213 1.996,0.618 0.027,0.058 0.406,1.06 -0.045,0.721 -0.081,0.122 -0.099,0.347 -0.149,0.626 -0.068,0.915 0.036,0.068 1.303,0.135 0.698,-0.37 0.141,-0.103 0.144,-0.437 0.739,0.031 0.338,0.1"
     id="Curry"
     inkscape:connector-curvature="0" />
  <path
     style="font-size:12px;fill:#d0d0d0;fill-rule:nonzero;stroke:#000000;stroke-width:1;stroke-linecap:butt;stroke-linejoin:bevel;stroke-miterlimit:4;stroke-opacity:1;stroke-dasharray:none;marker-start:none"
     d="m 9.5235202,44.062496 -0.338,-0.1 -0.739,-0.031 -0.144,0.437 -0.141,0.103 -0.698,0.37 -1.303,-0.135 -0.036,-0.068 0.068,-0.915 0.149,-0.626 0.099,-0.347 0.081,-0.122 0.045,-0.721 -0.406,-1.06 -0.027,-0.058 -1.996,-0.618 4.822,-7.396 1.7129998,0.528 1.343,0.432 0.338,2.479 -0.108,2.326 -0.617,2.123 -0.74,0.527 -0.514,0.333 -0.157,-0.049 -0.6359998,2.132 -0.058,0.456"
     id="Coos"
     inkscape:connector-curvature="0" />
  <path
     style="font-size:12px;fill:#d0d0d0;fill-rule:nonzero;stroke:#000000;stroke-width:1;stroke-linecap:butt;stroke-linejoin:bevel;stroke-miterlimit:4;stroke-opacity:1;stroke-dasharray:none;marker-start:none"
     d="m 14.46752,46.711496 -2.569,8.69 -2.6409998,-0.739 -2.79,-0.771 -0.054,-0.342 -0.013,-0.352 0.626,-1.32 0.216,-0.307 0.23,-0.36 0.049,-0.33 -0.09,-1.077 -0.351,-0.513 -0.383,-0.23 0.148,-1.867 0.041,0.032 0.492,0.185 0.351,0.022 0.185,-0.112 0.852,-1.046 0.04,-0.067 0,-0.05 -0.054,-0.14 0.005,-0.063 1.4009998,-1.424 0.167,-0.126 0.04,-0.014 -0.152,0.55 1.455,0.834 0.41,0.226 0.334,0.148 0.505,-0.05 0.076,-0.121 0.351,0 0.834,0.252 0.194,0.153 0.095,0.329"
     id="Josephine"
     inkscape:connector-curvature="0" />
  <path
     style="font-size:12px;fill:#d0d0d0;fill-rule:nonzero;stroke:#000000;stroke-width:1;stroke-linecap:butt;stroke-linejoin:bevel;stroke-miterlimit:4;stroke-opacity:1;stroke-dasharray:none;marker-start:none"
     d="m 24.11252,45.531496 -1.785,6.187 -0.248,0.758 -1.541,5.368 -0.514,-0.158 -0.293,-0.095 -1.131,-0.306 -1.239,-0.307 -3.124,-0.883 -0.239,-0.068 -0.405,-0.121 -0.983,-0.357 -0.689,-0.143 -0.023,-0.005 2.569,-8.69 0.027,-0.094 0.879,-0.365 0.356,0.112 0.947,0.225 2.014,0.316 1.379,-0.78 1.321,-0.599 1.65,-0.297 1.072,0.302"
     id="Jackson"
     inkscape:connector-curvature="0" />
  <path
     style="font-size:12px;fill:#d0d0d0;fill-rule:nonzero;stroke:#000000;stroke-width:1;stroke-linecap:butt;stroke-linejoin:bevel;stroke-miterlimit:4;stroke-opacity:1;stroke-dasharray:none;marker-start:none"
     d="m 27.02852,40.383496 0.167,0.077 0.158,0.212 0.383,0.992 0.049,0.238 -0.004,1.046 -1.609,1.92 -1.812,-0.221 -0.248,0.884 -1.072,-0.302 -1.65,0.297 -1.321,0.599 -1.379,0.78 -2.014,-0.316 -0.947,-0.225 -0.356,-0.112 -0.879,0.365 -0.027,0.094 -0.095,-0.329 -0.194,-0.153 -0.834,-0.252 -0.351,0 -0.076,0.121 -0.505,0.05 -0.334,-0.148 -0.41,-0.226 -1.455,-0.834 0.152,-0.55 -0.8419998,-0.328 0.058,-0.456 0.6359998,-2.132 0.157,0.049 0.514,-0.333 0.74,-0.527 0.617,-2.123 0.108,-2.326 -0.338,-2.479 -1.343,-0.432 -1.7129998,-0.528 1.4969998,-2.965 0.829,0.27 0.969,0.288 0.279,0.041 1.167,-0.717 1.101,0.338 0.364,0.226 0.235,0.5 -0.045,0.153 0.577,1.001 0.446,0.401 0.983,0.699 1.875,0.559 -0.632,2.159 0.028,0.897 0.946,0.288 0.122,0.027 0.018,-0.022 1,0.252 1.204,0.351 -0.374,1.339 2.176,0.572 3.304,0.951"
     id="Douglas"
     inkscape:connector-curvature="0" />
  <path
     style="font-size:12px;fill:#d0d0d0;fill-rule:nonzero;stroke:#000000;stroke-width:1;stroke-linecap:butt;stroke-linejoin:bevel;stroke-miterlimit:4;stroke-opacity:1;stroke-dasharray:none;marker-start:none"
     d="m 28.80452,38.531496 6.021,1.65 -0.883,3.249 -0.216,0.514 -0.365,1.046 -1.078,3.84 -0.581,2.176 3.029,0.83 1.213,0.356 -2.484,9.406 -5.219,-1.46 -7.703,-2.294 1.541,-5.368 0.248,-0.758 1.785,-6.187 0.248,-0.884 1.812,0.221 1.609,-1.92 0.004,-1.046 -0.049,-0.238 -0.383,-0.992 -0.158,-0.212 -0.167,-0.077 1.776,-1.852"
     id="Klamath"
     inkscape:connector-curvature="0" />
  <path
     style="font-size:12px;fill:#d0d0d0;fill-rule:nonzero;stroke:#000000;stroke-width:1;stroke-linecap:butt;stroke-linejoin:bevel;stroke-miterlimit:4;stroke-opacity:1;stroke-dasharray:none;marker-start:none"
     d="m 34.82552,40.181496 3.092,0.824 0.135,0.037 5.792,1.618 3.903,1.027 -0.067,0.329 -0.992,3.358 -0.658,1.64 -0.942,3.259 -0.558,2.141 1.451,0.365 0.73,0.162 3.123,0.785 -1.528,6.147 -0.352,1.564 -0.455,1.794 -5.908,-1.505 -2.66,-0.672 -0.365,-0.094 -3.38,-0.897 -0.013,-0.005 -1.713,-0.46 2.484,-9.406 -1.213,-0.356 -3.029,-0.83 0.581,-2.176 1.078,-3.84 0.365,-1.046 0.216,-0.514 0.883,-3.249"
     id="Lake"
     inkscape:connector-curvature="0" />
  <path
     style="font-size:12px;fill:#d0d0d0;fill-rule:nonzero;stroke:#000000;stroke-width:1;stroke-linecap:butt;stroke-linejoin:bevel;stroke-miterlimit:4;stroke-opacity:1;stroke-dasharray:none;marker-start:none"
     d="m 51.02052,39.865496 7.567,1.875 0.275,-1.1 1.37,0.37 0.672,0.23 3.235,0.78 -0.784,3.281 -0.139,0.423 -0.365,1.51 -0.825,3.471 -1.276,5.485 -0.558,2.704 -1.231,5.381 0.068,0.248 -0.05,0.46 -0.694,2.849 -5.395,-1.24 -5.061,-1.276 -0.33,-0.085 0.455,-1.794 0.352,-1.564 1.528,-6.147 -3.123,-0.785 -0.73,-0.162 -1.451,-0.365 0.558,-2.141 0.942,-3.259 0.658,-1.64 0.992,-3.358 0.067,-0.329 0.271,-1.108 1.086,0.283 0.852,-3.267 1.064,0.27"
     id="Harney"
     inkscape:connector-curvature="0" />
  <path
     style="font-size:12px;fill:#d0d0d0;fill-rule:nonzero;stroke:#000000;stroke-width:1;stroke-linecap:butt;stroke-linejoin:bevel;stroke-miterlimit:4;stroke-opacity:1;stroke-dasharray:none;marker-start:none"
     d="m 64.74352,39.288496 0.352,0.086 0.41,-0.099 0.712,-0.6 0.726,-0.64 0.077,-0.32 0.225,-0.14 0.397,-0.085 3.416,0.78 0.469,0.491 0.297,0.437 -0.238,1.091 2.6,0.594 -0.023,0.068 -0.013,0.109 0.018,0.185 0.135,0.229 1.122,0.455 0.086,-0.04 0.049,0 0.357,0.126 0.094,0.059 0.478,0.946 0.009,0.018 0.031,0.099 -0.013,0.131 0,0.013 -0.005,0.005 -0.018,0.036 -0.013,0.027 -0.013,0.023 -0.456,0.559 -0.351,1.433 -0.438,0.829 -0.27,0.451 -0.996,2.416 -4.773,21.25 -10.898,-2.478 0.694,-2.849 0.05,-0.46 -0.068,-0.248 1.231,-5.381 0.558,-2.704 1.276,-5.485 0.825,-3.471 0.365,-1.51 0.139,-0.423 0.784,-3.281 0.604,-2.732"
     id="Malheur"
     inkscape:connector-curvature="0" />
  <path
     style="font-size:12px;fill:#d0d0d0;fill-rule:nonzero;stroke:#000000;stroke-width:1;stroke-linecap:butt;stroke-linejoin:bevel;stroke-miterlimit:4;stroke-opacity:1;stroke-dasharray:none;marker-start:none"
     d="m 66.73652,30.440496 0.365,-0.346 0.829,-0.455 0.181,-0.023 0.405,0.505 0.464,0.36 0.086,0.032 1.92,0.478 1.911,0.437 0.257,-1.091 2.641,0.59 4.291,0.988 -0.437,0.396 -0.285,0.262 -0.225,0.469 0.009,0.261 0.032,0.126 0.054,0.126 0.013,0.104 -0.009,0.009 -0.302,0.522 -0.211,0.226 -0.271,0.288 -0.491,0.528 -0.861,0.293 -0.221,0.049 -0.063,0.027 -0.212,0.19 -1.996,2.744 -0.113,0.226 -0.311,2.122 -2.6,-0.594 0.238,-1.091 -0.297,-0.437 -0.469,-0.491 -3.416,-0.78 -0.397,0.085 -0.225,0.14 -0.077,0.32 -0.726,0.64 -0.712,0.6 -0.41,0.099 -0.352,-0.086 -2.379,-0.554 0.059,-0.294 0.031,-0.08 1.162,-1.83 0.095,-0.126 0.541,-0.473 0.69,-0.771 0.139,-0.212 1.587,-3.425 0.086,-0.519 0.023,-0.311 -0.041,-0.253"
     id="Baker"
     inkscape:connector-curvature="0" />
  <path
     style="font-size:12px;fill:#d0d0d0;fill-rule:nonzero;stroke:#000000;stroke-width:1;stroke-linecap:butt;stroke-linejoin:bevel;stroke-miterlimit:4;stroke-opacity:1;stroke-dasharray:none;marker-start:none"
     d="m 72.18952,17.920496 3.277,0.789 1.077,0.261 4.945,1.154 0.635,1.979 0.04,0.076 0.027,0.05 0.41,0.378 0.785,0.722 0.329,0.144 0.004,0.004 0.154,0.198 0.175,0.222 0,0.004 0.059,0.248 0.311,1.631 -0.036,0.163 -0.217,0.247 -0.865,0.884 -1.56,2.001 -0.306,0.645 -1.347,2.195 -4.291,-0.988 0.239,-1.072 -1.866,-0.419 -0.104,-1.38 -0.094,-0.396 -0.244,-0.618 -0.347,-0.081 -0.117,-0.352 -0.163,-0.901 -0.134,-1.176 -0.019,-2.317 0.239,-1.059 0.325,-0.306 0.293,-0.703 -1.983,-0.46 0.369,-1.767"
     id="Wallowa"
     inkscape:connector-curvature="0" />
  <path
     style="font-size:12px;fill:#d0d0d0;fill-rule:nonzero;stroke:#000000;stroke-width:1;stroke-linecap:butt;stroke-linejoin:bevel;stroke-miterlimit:4;stroke-opacity:1;stroke-dasharray:none;marker-start:none"
     d="m 71.82052,19.687496 1.983,0.46 -0.293,0.703 -0.325,0.306 -0.239,1.059 0.019,2.317 0.134,1.176 0.163,0.901 0.117,0.352 0.347,0.081 0.244,0.618 0.094,0.396 0.104,1.38 1.866,0.419 -0.239,1.072 -2.641,-0.59 -0.257,1.091 -1.911,-0.437 -1.92,-0.478 -0.086,-0.032 -0.464,-0.36 -0.405,-0.505 -0.181,0.023 -0.829,0.455 -0.365,0.346 -2.321,-1.059 0.261,-1.063 0.099,-1.519 -0.964,-0.23 -0.177,-0.852 0.258,-1.099 0.775,0.058 1.636,0.392 2.249,-0.415 0.712,-0.405 0.252,-0.523 0.528,-2.181 1.014,-1.46 0.762,-0.397"
     id="Union"
     inkscape:connector-curvature="0" />
  <path
     style="font-size:12px;fill:#d0d0d0;fill-rule:nonzero;stroke:#000000;stroke-width:1;stroke-linecap:butt;stroke-linejoin:bevel;stroke-miterlimit:4;stroke-opacity:1;stroke-dasharray:none;marker-start:none"
     d="m 54.18852,26.867496 4.503,1.113 5.724,1.401 2.321,1.059 0.041,0.253 -0.023,0.311 -0.086,0.519 -1.587,3.425 -0.139,0.212 -0.69,0.771 -0.541,0.473 -0.095,0.126 -1.162,1.83 -0.031,0.08 -0.059,0.294 2.379,0.554 -0.604,2.732 -3.235,-0.78 -0.672,-0.23 -1.37,-0.37 -0.275,1.1 -7.567,-1.875 1.122,-4.354 1.677,-6.459 0.049,-0.914 0.32,-1.271"
     id="Grant"
     inkscape:connector-curvature="0" />
  <path
     style="font-size:12px;fill:#d0d0d0;fill-rule:nonzero;stroke:#000000;stroke-width:1;stroke-linecap:butt;stroke-linejoin:bevel;stroke-miterlimit:4;stroke-opacity:1;stroke-dasharray:none;marker-start:none"
     d="m 47.15352,24.054496 6.219,1.627 0.816,1.186 -0.32,1.271 -0.049,0.914 -1.677,6.459 -1.965,-0.505 0.041,-1.027 -0.925,-0.956 -3.245,-0.829 0.113,-0.486 0.306,-1.096 0.964,-3.186 -0.278,-3.372"
     id="Wheeler"
     inkscape:connector-curvature="0" />
  <path
     style="font-size:12px;fill:#d0d0d0;fill-rule:nonzero;stroke:#000000;stroke-width:1;stroke-linecap:butt;stroke-linejoin:bevel;stroke-miterlimit:4;stroke-opacity:1;stroke-dasharray:none;marker-start:none"
     d="m 46.46752,30.612496 -0.306,1.096 -0.113,0.486 3.245,0.829 0.925,0.956 -0.041,1.027 1.965,0.505 -1.122,4.354 -1.064,-0.27 -0.852,3.267 -1.086,-0.283 -3.051,-0.776 -0.194,-0.068 0.283,-1.081 -0.802,-1.37 -3.317,-0.87 0.257,-1.082 -0.879,-0.239 -1.217,-0.369 0.577,-2.163 -1.019,-0.33 0.221,-1.019 0.591,-2.145 1.055,0.293 0.288,-1.081 1.433,0.383 0.293,-1.073 3.93,1.023"
     id="Crook"
     inkscape:connector-curvature="0" />
  <path
     style="font-size:12px;fill:#d0d0d0;fill-rule:nonzero;stroke:#000000;stroke-width:1;stroke-linecap:butt;stroke-linejoin:bevel;stroke-miterlimit:4;stroke-opacity:1;stroke-dasharray:none;marker-start:none"
     d="m 32.94252,29.251496 6.526,1.816 -0.591,2.145 -0.221,1.019 1.019,0.33 -0.577,2.163 1.217,0.369 0.879,0.239 -0.257,1.082 3.317,0.87 0.802,1.37 -0.283,1.081 0.194,0.068 3.051,0.776 -0.271,1.108 -3.903,-1.027 -5.792,-1.618 -0.135,-0.037 -3.092,-0.824 -6.021,-1.65 0.275,-0.446 0.302,-0.649 0.441,-1.217 1.245,-1.199 1.456,-1.839 0.121,-0.284 0.076,-0.595 0.141,-1.276 0.081,-1.775"
     id="Deschutes"
     inkscape:connector-curvature="0" />
  <path
     style="font-size:12px;fill:#d0d0d0;fill-rule:nonzero;stroke:#000000;stroke-width:1;stroke-linecap:butt;stroke-linejoin:bevel;stroke-miterlimit:4;stroke-opacity:1;stroke-dasharray:none;marker-start:none"
     d="m 35.17752,24.064496 5.895,1.622 0.979,0.288 5.38,1.452 -0.964,3.186 -3.93,-1.023 -0.293,1.073 -1.433,-0.383 -0.288,1.081 -1.055,-0.293 -6.526,-1.816 1.437,-3.511 0.798,-1.676"
     id="Jefferson"
     inkscape:connector-curvature="0" />
  <path
     style="font-size:12px;fill:#d0d0d0;fill-rule:nonzero;stroke:#000000;stroke-width:1;stroke-linecap:butt;stroke-linejoin:bevel;stroke-miterlimit:4;stroke-opacity:1;stroke-dasharray:none;marker-start:none"
     d="m 22.71552,21.521496 0.847,0.41 1.163,0.248 1.068,-0.153 1.384,0.36 2.763,1.109 0.329,0.167 1.036,0.757 0.974,0.703 0.613,0.199 1.487,0.419 -1.437,3.511 -0.081,1.775 -2.042,-0.563 -2.664,-0.694 -0.081,0.108 -0.005,0.05 0.032,0.045 -0.05,0.076 -0.415,0.167 -0.125,-0.036 -1.046,-0.473 -0.618,-0.374 -0.337,-0.27 -0.33,-0.356 -0.207,-0.19 -0.536,-0.315 -0.938,-0.235 -0.441,0.262 -0.095,0.266 -0.14,0.455 -1.956,-0.568 -0.338,-0.135 0.127,-0.374 0.058,-0.564 -0.014,-0.063 -0.054,-0.068 -0.121,-0.027 -0.028,-0.022 -0.013,-0.054 -0.059,-0.698 0.83,-2.466 1.731,-1.023 -0.429,-1.014 0.158,-0.352"
     id="Linn"
     inkscape:connector-curvature="0" />
  <path
     style="font-size:12px;fill:#d0d0d0;fill-rule:nonzero;stroke:#000000;stroke-width:1;stroke-linecap:butt;stroke-linejoin:bevel;stroke-miterlimit:4;stroke-opacity:1;stroke-dasharray:none;marker-start:none"
     d="m 12.39452,24.816496 3.033,0.82 1.591,0.545 1.988,0.528 1.519,0.441 0.121,0.027 0.054,0.068 0.014,0.063 -0.058,0.564 -0.127,0.374 0.338,0.135 1.956,0.568 0.14,-0.455 0.095,-0.266 0.441,-0.262 0.938,0.235 0.536,0.315 0.207,0.19 0.33,0.356 0.337,0.27 0.618,0.374 1.046,0.473 0.125,0.036 0.415,-0.167 0.05,-0.076 -0.032,-0.045 0.005,-0.05 0.081,-0.108 2.664,0.694 2.042,0.563 -0.141,1.276 -0.076,0.595 -0.121,0.284 -1.456,1.839 -1.245,1.199 -0.441,1.217 -0.302,0.649 -0.275,0.446 -1.776,1.852 -3.304,-0.951 -2.176,-0.572 0.374,-1.339 -1.204,-0.351 -1,-0.252 -0.018,0.022 -0.122,-0.027 -0.946,-0.288 -0.028,-0.897 0.632,-2.159 -1.875,-0.559 -0.983,-0.699 -0.446,-0.401 -0.577,-1.001 0.045,-0.153 -0.235,-0.5 -0.364,-0.226 -1.101,-0.338 -1.167,0.717 -0.279,-0.041 -0.969,-0.288 -0.829,-0.27 1.938,-4.994"
     id="Lane"
     inkscape:connector-curvature="0" />
  <path
     style="font-size:12px;fill:#d0d0d0;fill-rule:nonzero;stroke:#000000;stroke-width:1;stroke-linecap:butt;stroke-linejoin:bevel;stroke-miterlimit:4;stroke-opacity:1;stroke-dasharray:none;marker-start:none"
     d="m 22.55752,21.873496 0.429,1.014 -1.731,1.023 -0.83,2.466 0.059,0.698 0.013,0.054 0.028,0.022 -1.519,-0.441 -1.988,-0.528 -1.591,-0.545 0.032,-0.428 0.121,-0.347 1.407,-0.779 0.567,0.179 0.785,-2.622 0.234,-0.961 3.984,1.195"
     id="Benton"
     inkscape:connector-curvature="0" />
  <path
     style="font-size:12px;fill:#d0d0d0;fill-rule:nonzero;stroke:#000000;stroke-width:1;stroke-linecap:butt;stroke-linejoin:bevel;stroke-miterlimit:4;stroke-opacity:1;stroke-dasharray:none;marker-start:none"
     d="m 18.69552,16.365496 -1.132,3.768 0.117,0.279 0.893,0.266 -0.234,0.961 -0.785,2.622 -0.567,-0.179 -1.407,0.779 -0.121,0.347 -0.032,0.428 -3.033,-0.82 0.342,-0.645 0.505,-1.032 0.054,-0.135 0.776,-2.159 1.406,-3.524 0.779,-1.704 2.439,0.748"
     id="Lincoln"
     inkscape:connector-curvature="0" />
  <path
     style="font-size:12px;fill:#d0d0d0;fill-rule:nonzero;stroke:#000000;stroke-width:1;stroke-linecap:butt;stroke-linejoin:bevel;stroke-miterlimit:4;stroke-opacity:1;stroke-dasharray:none;marker-start:none"
     d="m 18.69552,16.365496 0.13,-0.396 5.716,1.712 -0.118,0.433 -0.744,1.258 -0.044,0.013 -0.469,0.55 -0.271,0.554 -0.198,0.951 0.018,0.081 -0.158,0.352 -3.984,-1.195 -0.893,-0.266 -0.117,-0.279 1.132,-3.768"
     id="Polk"
     inkscape:connector-curvature="0" />
  <path
     style="font-size:12px;fill:#d0d0d0;fill-rule:nonzero;stroke:#000000;stroke-width:1;stroke-linecap:butt;stroke-linejoin:bevel;stroke-miterlimit:4;stroke-opacity:1;stroke-dasharray:none;marker-start:none"
     d="m 22.40452,12.223496 2.866,0.857 0.528,0.536 0.504,0.59 0.551,0.794 0.328,0.193 -0.045,0.762 -0.748,-0.329 -0.996,0.784 0.005,0.185 -0.14,0.477 -0.203,0.407 -0.513,0.202 -5.716,-1.712 -0.531,-0.163 0.523,-1.721 2.803,0.834 0.365,-1.204 0.419,-1.492"
     id="Yamhill"
     inkscape:connector-curvature="0" />
  <path
     style="font-size:12px;fill:#d0d0d0;fill-rule:nonzero;stroke:#000000;stroke-width:1;stroke-linecap:butt;stroke-linejoin:bevel;stroke-miterlimit:4;stroke-opacity:1;stroke-dasharray:none;marker-start:none"
     d="m 27.13652,15.955496 0.181,-0.14 0.437,0.126 0.324,0.293 -0.306,0.775 -0.108,0.172 -0.136,0.162 -0.08,0.027 -0.14,0.185 -0.099,0.167 0.468,1.082 1.23,2.221 0.862,0.717 3.492,0.947 2.349,0.657 -0.433,0.718 -0.798,1.676 -1.487,-0.419 -0.613,-0.199 -0.974,-0.703 -1.036,-0.757 -0.329,-0.167 -2.763,-1.109 -1.384,-0.36 -1.068,0.153 -1.163,-0.248 -0.847,-0.41 -0.018,-0.081 0.198,-0.951 0.271,-0.554 0.469,-0.55 0.044,-0.013 0.744,-1.258 0.118,-0.433 0.513,-0.202 0.203,-0.407 0.14,-0.477 -0.005,-0.185 0.996,-0.784 0.748,0.329"
     id="Marion"
     inkscape:connector-curvature="0" />
  <path
     style="font-size:12px;fill:#d0d0d0;fill-rule:nonzero;stroke:#000000;stroke-width:1;stroke-linecap:butt;stroke-linejoin:bevel;stroke-miterlimit:4;stroke-opacity:1;stroke-dasharray:none;marker-start:none"
     d="m 28.68252,14.071496 0.829,0.248 -0.018,-0.338 0.181,0.004 7.166,2.024 0.379,2.83 -0.618,0.519 -0.049,0.09 -1.123,2.177 -0.022,0.054 -0.185,0.888 0.014,0.036 0.374,0.743 -2.349,-0.657 -3.492,-0.947 -0.862,-0.717 -1.23,-2.221 -0.468,-1.082 0.099,-0.167 0.14,-0.185 0.08,-0.027 0.136,-0.162 0.108,-0.172 0.306,-0.775 -0.324,-0.293 -0.437,-0.126 -0.181,0.14 0.045,-0.762 1.501,-1.122"
     id="Clackamas"
     inkscape:connector-curvature="0" />
  <path
     style="font-size:12px;fill:#d0d0d0;fill-rule:nonzero;stroke:#000000;stroke-width:1;stroke-linecap:butt;stroke-linejoin:bevel;stroke-miterlimit:4;stroke-opacity:1;stroke-dasharray:none;marker-start:none"
     d="m 63.36052,15.802496 8.663,2.077 0.166,0.041 -0.369,1.767 -0.762,0.397 -1.014,1.46 -0.528,2.181 -0.252,0.523 -0.712,0.405 -2.249,0.415 -1.636,-0.392 -0.775,-0.058 -0.258,1.099 0.177,0.852 0.964,0.23 -0.099,1.519 -0.261,1.063 -5.724,-1.401 0.428,-1.05 1.356,-5.422 -0.64,-1.298 -1.631,-0.419 0.825,-3.272 0.175,-0.609 0.51,0.031 1.352,0.185 0.248,0.127 0.23,0.058 0.392,0.027 0.32,-0.049 0.658,-0.19 0.193,-0.085 0.253,-0.212"
     id="Umatilla"
     inkscape:connector-curvature="0" />
  <path
     style="font-size:12px;fill:#d0d0d0;fill-rule:nonzero;stroke:#000000;stroke-width:1;stroke-linecap:butt;stroke-linejoin:bevel;stroke-miterlimit:4;stroke-opacity:1;stroke-dasharray:none;marker-start:none"
     d="m 53.92252,15.915496 1.226,0 0.861,0.09 0.937,0.089 1.749,-0.216 0.509,0.032 -0.175,0.609 -0.825,3.272 1.631,0.419 0.64,1.298 -1.356,5.422 -0.428,1.05 -4.503,-1.113 -0.816,-1.186 0.306,-0.099 0.28,-1.081 -0.869,-1.082 -1.015,-0.6 0.856,-3.24 0.348,-1.217 0.644,-2.447"
     id="Morrow"
     inkscape:connector-curvature="0" />
  <path
     style="font-size:12px;fill:#d0d0d0;fill-rule:nonzero;stroke:#000000;stroke-width:1;stroke-linecap:butt;stroke-linejoin:bevel;stroke-miterlimit:4;stroke-opacity:1;stroke-dasharray:none;marker-start:none"
     d="m 47.96852,15.351496 0.189,-0.063 0.384,0.094 0.252,0.177 0.234,0.441 0.109,0.158 0.184,0.121 0.703,0.122 1.776,0.108 0.469,-0.356 0.288,-0.072 1.352,-0.166 0.014,0 -0.644,2.447 -0.348,1.217 -0.856,3.24 1.015,0.6 0.869,1.082 -0.28,1.081 -0.306,0.099 -6.219,-1.627 -0.028,-0.198 0.311,-0.289 0.154,-1.117 -0.32,-0.829 0.423,-0.889 0.483,-0.941 1.082,-0.586 0.328,-0.167 0.109,-0.023 0.085,-0.135 -0.158,-1.199 -0.635,-1.095 -0.767,-0.956 -0.252,-0.279"
     id="Gilliam"
     inkscape:connector-curvature="0" />
  <path
     style="font-size:12px;fill:#d0d0d0;fill-rule:nonzero;stroke:#000000;stroke-width:1;stroke-linecap:butt;stroke-linejoin:bevel;stroke-miterlimit:4;stroke-opacity:1;stroke-dasharray:none;marker-start:none"
     d="m 45.35452,15.937496 0.469,-0.144 0.793,-0.122 0.964,-0.135 0.388,-0.185 0.252,0.279 0.767,0.956 0.635,1.095 0.158,1.199 -0.085,0.135 -0.109,0.023 -0.328,0.167 -1.082,0.586 -0.483,0.941 -0.423,0.889 0.32,0.829 -0.154,1.117 -0.311,0.289 -1.397,-0.379 -0.428,-0.423 -1.253,-1.623 0.005,-1.708 0.915,-0.685 0.527,-0.933 0.162,-0.325 0.018,-0.085 -0.32,-1.758"
     id="Sherman"
     inkscape:connector-curvature="0" />
  <path
     style="font-size:12px;fill:#d0d0d0;fill-rule:nonzero;stroke:#000000;stroke-width:1;stroke-linecap:butt;stroke-linejoin:bevel;stroke-miterlimit:4;stroke-opacity:1;stroke-dasharray:none;marker-start:none"
     d="m 40.96052,13.994496 0.617,0.091 0.311,0.063 3.272,1.532 0.194,0.257 0.32,1.758 -0.018,0.085 -0.162,0.325 -0.527,0.933 -0.915,0.685 -0.005,1.708 1.253,1.623 0.428,0.423 1.397,0.379 0.028,0.198 0.278,3.372 -5.38,-1.452 -0.979,-0.288 -5.895,-1.622 0.433,-0.718 -0.374,-0.743 -0.014,-0.036 0.185,-0.888 0.022,-0.054 1.123,-2.177 0.049,-0.09 0.618,-0.519 1.893,0.519 0.112,-0.388 0.771,-2.866 0.442,-0.667 0.523,-1.443"
     id="Wasco"
     inkscape:connector-curvature="0" />
  <path
     style="font-size:12px;fill:#d0d0d0;fill-rule:nonzero;stroke:#000000;stroke-width:1;stroke-linecap:butt;stroke-linejoin:bevel;stroke-miterlimit:4;stroke-opacity:1;stroke-dasharray:none;marker-start:none"
     d="m 36.60152,13.440496 0.253,-0.226 0.383,-0.198 0.532,-0.031 0.621,0.342 0.244,0.059 0.744,0.058 0.968,0.018 0.614,0.532 -0.523,1.443 -0.442,0.667 -0.771,2.866 -0.112,0.388 -1.893,-0.519 -0.379,-2.83 -0.239,-2.569"
     id="Hood River"
     inkscape:connector-curvature="0" />
  <path
     style="font-size:12px;fill:#d0d0d0;fill-rule:nonzero;stroke:#000000;stroke-width:1;stroke-linecap:butt;stroke-linejoin:bevel;stroke-miterlimit:4;stroke-opacity:1;stroke-dasharray:none;marker-start:none"
     d="m 29.57952,10.375497 -0.193,0.325 -0.086,0.234 0.009,0.316 0.176,0.225 0.459,0.481999 0.239,0.181 2.501,1.541 0.294,0.144 0.008,0.005 0.248,0.063 0.018,0 0.149,-0.005 3.2,-0.446 0.239,2.569 -7.166,-2.024 -0.181,-0.004 0.018,0.338 -0.829,-0.248 0.163,-1.244 -0.167,-0.108 -0.505,-0.928 -0.351,-0.779999 0.288,-0.983 1.469,0.347"
     id="Multnomah"
     inkscape:connector-curvature="0" />
  <path
     style="font-size:12px;fill:#d0d0d0;fill-rule:nonzero;stroke:#000000;stroke-width:1;stroke-linecap:butt;stroke-linejoin:bevel;stroke-miterlimit:4;stroke-opacity:1;stroke-dasharray:none;marker-start:none"
     d="m 28.11052,10.028497 -0.288,0.983 0.351,0.779999 0.505,0.928 0.167,0.108 -0.163,1.244 -1.501,1.122 -0.328,-0.193 -0.551,-0.794 -0.504,-0.59 -0.528,-0.536 -2.866,-0.857 -0.185,-0.049 0.059,-0.176 1.231,-2.1679989 0.806,-0.734999 0.261,-0.874 2.853,0.843 0.681,0.9639989"
     id="Washington"
     inkscape:connector-curvature="0" />
  <path
     style="font-size:12px;fill:#d0d0d0;fill-rule:nonzero;stroke:#000000;stroke-width:1;stroke-linecap:butt;stroke-linejoin:bevel;stroke-miterlimit:4;stroke-opacity:1;stroke-dasharray:none;marker-start:none"
     d="m 24.57652,8.2214981 -0.261,0.874 -0.806,0.734999 -1.231,2.1679989 -0.059,0.176 0.185,0.049 -0.419,1.492 -0.365,1.204 -2.803,-0.834 -0.523,1.721 0.531,0.163 -0.13,0.396 -2.439,-0.748 0.316,-0.568 0.036,-0.067 0.004,-0.009 0.257,-0.487 0.018,-0.036 0.073,-0.167 0.202,-0.501 1.974,-5.6059979 0.172,-0.582 0.036,-0.234 0,-0.086 -0.018,-0.676 2.136,0.645 -0.009,0.131 0.027,0.013 2.006,0.568 1.09,0.266"
     id="Tillamook"
     inkscape:connector-curvature="0" />
</svg>
