<?xml version="1.0" encoding="UTF-8" standalone="no"?>
<!-- Created with Inkscape (http://www.inkscape.org/) -->

<svg
   xmlns:dc="http://purl.org/dc/elements/1.1/"
   xmlns:cc="http://creativecommons.org/ns#"
   xmlns:rdf="http://www.w3.org/1999/02/22-rdf-syntax-ns#"
   xmlns:svg="http://www.w3.org/2000/svg"
   xmlns="http://www.w3.org/2000/svg"
   xmlns:sodipodi="http://sodipodi.sourceforge.net/DTD/sodipodi-0.dtd"
   xmlns:inkscape="http://www.inkscape.org/namespaces/inkscape"
   version="1.0"
   width="85.419998"
   height="143.5"
   sodipodi:version="0.32"
   inkscape:version="0.48.2 r9819"
   sodipodi:docname="ca.svg"
   inkscape:output_extension="org.inkscape.output.svg.inkscape"
   id="svg5183">
  <metadata
     id="metadata5185">
    <rdf:RDF>
      <cc:Work
         rdf:about="">
        <dc:format>image/svg+xml</dc:format>
        <dc:type
           rdf:resource="http://purl.org/dc/dcmitype/StillImage" />
      </cc:Work>
    </rdf:RDF>
  </metadata>
  <defs
     id="defs5187" />
  <sodipodi:namedview
     pagecolor="#ffffff"
     bordercolor="#666666"
     borderopacity="1"
     objecttolerance="10"
     gridtolerance="10"
     guidetolerance="10"
     inkscape:pageopacity="0"
     inkscape:pageshadow="2"
     inkscape:window-width="1366"
     inkscape:window-height="716"
     fit-margin-top="0"
     fit-margin-left="0"
     fit-margin-right="0"
     fit-margin-bottom="0"
     inkscape:zoom="3.2167556"
     inkscape:cx="60.148611"
     inkscape:cy="71.840092"
     inkscape:window-x="-8"
     inkscape:window-y="-8"
     inkscape:window-maximized="1"
     inkscape:current-layer="svg5183"
     id="namedview5189"
     showgrid="false" />
  <path
     style="font-size:12px;fill:#d0d0d0;fill-rule:nonzero;stroke:#000000;stroke-width:1;stroke-linecap:butt;stroke-linejoin:bevel;stroke-miterlimit:4;stroke-opacity:1;stroke-dasharray:none;marker-start:none"
     d="m 9.6348612,2.1268773 3.5519998,1.118 2.79,0.771 -0.307,0.513 -0.423,0.551 -0.654,0.063 -0.915,0.815 -0.73,3.376 0.086,0.298 0.086,0.8289997 -0.055,0.158 -0.45,0.522 -0.249,0.172 -0.527,-0.154 -0.374,-0.5 0.199,-0.6669997 -1.055,-0.343 -1.6579998,-0.486 0.161,-1.077 0.036,-0.735 0.014,-1.442 -0.004,-0.122 -0.023,-0.153 -0.05,-0.167 0.221,-2.123 0.329,-1.217"
     id="Del Norte"
     inkscape:connector-curvature="0" />
  <path
     style="font-size:12px;fill:#d0d0d0;fill-rule:nonzero;stroke:#000000;stroke-width:1;stroke-linecap:butt;stroke-linejoin:bevel;stroke-miterlimit:4;stroke-opacity:1;stroke-dasharray:none;marker-start:none"
     d="m 15.976861,4.0158773 2.641,0.739 0.023,0.005 0.689,0.143 0.983,0.357 0.405,0.121 0.239,0.068 3.124,0.883 1.239,0.307 1.131,0.306 0.293,0.095 0.514,0.158 7.703,2.294 -0.249,0.5679997 -0.089,0.311 -0.492,1.812 0.014,0.04 0.045,0.027 -1.172,4.354 -0.843,3.079 -5.16,-1.434 -2.673,-0.775 -1.947,-0.523 0.234,-1.311 -1.14,-0.703 -2.024,0.797 -1.411,1.461 0.086,0.599 -0.117,0.208 -0.216,0.171 -0.185,-0.027 -0.757,-0.384 -1.298,-1.37 -0.712,-1.068 -0.442,-0.428 -0.46,-0.37 0.072,-2.519 -0.18,-0.257 -1.479,-0.437 0.249,-0.172 0.45,-0.522 0.055,-0.158 -0.086,-0.8289997 -0.086,-0.298 0.73,-3.376 0.915,-0.815 0.654,-0.063 0.423,-0.551 0.307,-0.513"
     id="Siskiyou"
     inkscape:connector-curvature="0" />
  <path
     style="font-size:12px;fill:#d0d0d0;fill-rule:nonzero;stroke:#000000;stroke-width:1;stroke-linecap:butt;stroke-linejoin:bevel;stroke-miterlimit:4;stroke-opacity:1;stroke-dasharray:none;marker-start:none"
     d="m 61.308861,130.47587 6.482,1.356 5.318,1.042 1.379,0.238 2.14,0.428 -1.081,0.267 -0.635,3.912 0.008,0.022 0.225,0.599 0.497,0.348 0.175,0.077 0.938,0.157 0.032,0.036 0.031,0.032 0.32,0.747 -0.104,0.848 -0.095,0.329 0,0.005 -0.468,0.658 -1.496,0.928 -1.132,-0.085 -0.063,-0.005 -7.968,-0.946 -0.158,-0.019 -0.906,-0.108 -3.367,-0.401 -1.433,-0.167 -1.055,-0.122 0.487,-2.131 1.018,-3.587 0.316,-1.475 0.595,-2.983"
     id="Imperial"
     inkscape:connector-curvature="0" />
  <path
     style="font-size:12px;fill:#d0d0d0;fill-rule:nonzero;stroke:#000000;stroke-width:1;stroke-linecap:butt;stroke-linejoin:bevel;stroke-miterlimit:4;stroke-opacity:1;stroke-dasharray:none;marker-start:none"
     d="m 80.256861,125.72087 -0.969,1.37 -0.302,0.523 -0.275,0.987 -0.059,0.419 -0.306,1.528 -0.42,1.46 -1.298,1.532 -2.14,-0.428 -1.379,-0.238 -5.318,-1.042 -6.482,-1.356 -2.249,-0.51 -3.322,-0.721 -2.289,-0.5 -4.219,-1.013 0.05,-0.217 -1.123,-1.001 -1.514,-0.347 0.077,-0.37 1.379,-1.347 -0.514,-0.713 -0.599,-0.225 -0.312,-0.838 -0.671,-1.525 0.352,-0.638 1.32,-1.141 1.492,0.338 0.406,0.095 0.09,0.216 1.379,0.514 3.074,0.684 1.347,0.051 2.619,0.46 7.59,1.604 5.291,1.122 0.74,-0.243 1.361,0.067 7.193,1.443"
     id="Riverside"
     inkscape:connector-curvature="0" />
  <path
     style="font-size:12px;fill:#d0d0d0;fill-rule:nonzero;stroke:#000000;stroke-width:1;stroke-linecap:butt;stroke-linejoin:bevel;stroke-miterlimit:4;stroke-opacity:1;stroke-dasharray:none;marker-start:none"
     d="m 46.642861,126.16687 1.514,0.347 1.123,1.001 -0.05,0.217 4.219,1.013 2.289,0.5 3.322,0.721 2.249,0.51 -0.595,2.983 -0.316,1.475 -1.018,3.587 -0.487,2.131 -1.009,-0.122 -2.055,-0.247 -2.092,-0.243 -2.952,-0.348 -2.835,-0.346 -0.063,-0.005 -0.491,-2.15 0.198,-3.186 0,-0.108 0.005,0 0.008,-0.695 0.005,-0.27 -0.126,-1.104 -0.054,-0.391 -0.207,-0.615 -0.019,-0.053 -0.581,-1.465 -0.171,-0.41 -0.032,-0.064 -0.234,-0.495 -0.347,-0.5 -0.212,-0.229 -0.23,-0.155 1.244,-1.284"
     id="San Diego"
     inkscape:connector-curvature="0" />
  <path
     style="font-size:12px;fill:#d0d0d0;fill-rule:nonzero;stroke:#000000;stroke-width:1;stroke-linecap:butt;stroke-linejoin:bevel;stroke-miterlimit:4;stroke-opacity:1;stroke-dasharray:none;marker-start:none"
     d="m 45.087861,119.93387 0.915,1.215 0.671,1.525 0.312,0.838 0.599,0.225 0.514,0.713 -1.379,1.347 -0.077,0.37 -1.244,1.284 -0.068,-0.274 -0.18,-0.365 -0.112,-0.163 -1.979,-2.483 -1.591,-1.947 -0.388,-0.479 0.275,-0.486 0.577,-0.726 1.136,-0.977 0.482,0.031 0.122,0.027 1.415,0.325"
     id="Orange"
     inkscape:connector-curvature="0" />
  <path
     style="font-size:12px;fill:#d0d0d0;fill-rule:nonzero;stroke:#000000;stroke-width:1;stroke-linecap:butt;stroke-linejoin:bevel;stroke-miterlimit:4;stroke-opacity:1;stroke-dasharray:none;marker-start:none"
     d="m 35.757861,132.73287 -0.802,-0.031 -0.509,-0.627 -0.068,-0.108 -0.248,-0.789 -0.225,-1.41 0.284,0.095 1.478,2.577 0.122,0.262 -0.032,0.031 m -0.545,-8.779 -0.045,-0.033 -0.009,-0.093 0.009,-0.018 0.049,0.013 0.551,0.185 0.617,0.496 0.5,0.401 0.379,0.32 0.487,1.009 0.04,0.104 0.027,0.216 -0.049,0.117 -0.149,0.087 -0.009,0.004 -0.086,0 -1.298,-0.613 -0.086,-0.077 -0.928,-2.118 m 13.648,-14.81 -0.686,2.974 -0.319,1.718 -0.24,1.46 -0.095,0.631 -0.693,1.5 -0.599,1.001 -0.239,0.397 -0.749,0.364 -0.27,0.33 -0.018,0.09 0.049,0.203 0.086,0.122 -1.415,-0.325 -0.122,-0.027 -0.482,-0.031 -1.136,0.977 -0.577,0.726 -0.275,0.486 -0.802,0.109 -0.843,-0.018 -0.388,-0.153 -0.193,-0.109 -0.753,-0.486 -0.135,-0.112 -0.081,-0.455 0.076,-0.081 0.244,-0.181 0.126,-0.027 0.063,-0.13 0.067,-0.325 -0.08,-0.595 -0.05,-0.289 -0.027,-0.162 -0.058,-0.334 -0.104,-0.406 -0.145,-0.391 -0.013,-0.028 -0.018,-0.041 -0.005,-0.008 -0.112,-0.221 -0.023,-0.031 -0.085,-0.122 -0.028,-0.04 -0.031,-0.028 -0.181,-0.171 -0.261,-0.103 -1.032,-0.217 -0.811,-0.108 -0.428,0.036 -1.596,-0.708 0.135,-0.361 1.028,-0.446 0.829,-0.347 1.244,0.307 0.631,-1.006 0.068,-0.472 -0.978,-6.901 -0.045,-0.374 12.575,2.939"
     id="Los Angeles"
     inkscape:connector-curvature="0" />
  <path
     style="font-size:12px;fill:#d0d0d0;fill-rule:nonzero;stroke:#000000;stroke-width:1;stroke-linecap:butt;stroke-linejoin:bevel;stroke-miterlimit:4;stroke-opacity:1;stroke-dasharray:none;marker-start:none"
     d="m 30.953861,103.76287 0.595,0.216 1.023,0.477 0.14,0.334 0.049,0.351 2.601,1.199 0.969,0.239 0.978,6.901 -0.068,0.472 -0.631,1.006 -1.244,-0.307 -0.829,0.347 -1.028,0.446 -0.135,0.361 -1.415,-1.068 -1.555,-2.705 -1.064,-1.37 -0.248,-0.315 -0.131,-0.059 0.298,-0.207 0.086,-0.076 0.198,-0.632 1.411,-5.61"
     id="Ventura"
     inkscape:connector-curvature="0" />
  <path
     style="font-size:12px;fill:#d0d0d0;fill-rule:nonzero;stroke:#000000;stroke-width:1;stroke-linecap:butt;stroke-linejoin:bevel;stroke-miterlimit:4;stroke-opacity:1;stroke-dasharray:none;marker-start:none"
     d="m 19.789861,112.97987 1.884,0.152 0.843,0.771 -0.028,0.428 -0.008,0.081 -0.045,0.014 -1.538,0.18 -0.139,0.008 -0.41,-0.418 -0.077,-0.135 -0.482,-1.081 m 5.264,0.589 0.397,0.28 1.046,0.347 0.036,-0.022 0.017,-0.01 0.027,-0.013 0.041,-0.022 0.054,-0.032 0.032,-0.013 0.284,0.018 0.342,0.253 0.072,0.107 -0.004,0.005 -0.004,0.009 -0.01,0.008 -0.347,0.271 -0.099,0.081 -0.072,0.01 -1.771,0.031 -0.384,-0.091 -0.374,-0.148 -0.004,0 -0.14,-0.069 -0.316,-0.147 -0.283,-0.208 -0.023,-0.076 -0.207,-1.172 0.072,-0.091 0.063,0.019 0.555,0.22 1,0.455 m -6.134,-13.898997 1.609,0.175 0.573,0.221997 0.531,0.545 0.699,-0.117 0.676,-0.379 2.082,-0.599997 0.194,0.23 0.591,0.553997 1.825,1.465 2.289,1.802 0.46,0.118 0.194,0 0.311,0.078 -1.411,5.61 -0.198,0.632 -0.086,0.076 -0.298,0.207 -0.752,-0.689 -0.568,-0.247 -0.577,-0.082 -0.157,0.003 -0.023,0 -0.617,-0.03 -1.299,-0.41 -0.446,-0.451 -0.762,-0.55 -0.306,-0.121 -0.793,-0.294 -0.663,-0.176 -0.771,-0.162 -0.883,-0.112 -1.05,-0.181 -1.352,-1.766 0.085,-1.024 0.663,-3.402 0.23,-0.923997"
     id="Santa Barbara"
     inkscape:connector-curvature="0" />
  <path
     style="font-size:12px;fill:#d0d0d0;fill-rule:nonzero;stroke:#000000;stroke-width:1;stroke-linecap:butt;stroke-linejoin:bevel;stroke-miterlimit:4;stroke-opacity:1;stroke-dasharray:none;marker-start:none"
     d="m 14.651861,87.485877 11.349,3.107 0.198,0.054 -0.568,2.199 1.109,1.649 1.203,2.475 0.437,1.289 1.122,0.298 1.204,1.414996 0.496,1.505997 -0.559,2.207 -0.194,0 -0.46,-0.118 -2.289,-1.802 -1.825,-1.465 -0.591,-0.553997 -0.194,-0.23 -2.082,0.599997 -0.676,0.379 -0.699,0.117 -0.531,-0.545 -0.573,-0.221997 -1.609,-0.175 0.171,-0.312 0.014,-0.022 0.162,-0.359996 0.131,-0.347 0.062,-0.213 0.046,-0.215 0.013,-0.059 0.005,-0.024 0.022,-0.287 0,-0.014 -0.031,-0.207 -0.045,-0.123 -0.094,-0.098 -0.312,-0.32 -0.045,-0.041 -0.09,-0.062 -0.933,-2.542 -1.726,-3.183 -1.136,-1.758 -0.176,-0.184 -0.103,-0.126 -0.163,-0.572 -0.04,-1.115"
     id="San Luis Obispo"
     inkscape:connector-curvature="0" />
  <path
     style="font-size:12px;fill:#d0d0d0;fill-rule:nonzero;stroke:#000000;stroke-width:1;stroke-linecap:butt;stroke-linejoin:bevel;stroke-miterlimit:4;stroke-opacity:1;stroke-dasharray:none;marker-start:none"
     d="m 32.805861,92.336877 4.89,1.212 5.539,1.361 4.417,1.032 0.596,0.171 3.817,0.785 -0.419,1.068 -0.099,0.369 -0.135,1.518996 -2.191,9.378997 -0.36,-0.089 -12.575,-2.939 0.045,0.374 -0.969,-0.239 -2.601,-1.199 -0.049,-0.351 -0.14,-0.334 -1.023,-0.477 -0.595,-0.216 -0.311,-0.078 0.559,-2.207 -0.496,-1.505997 -1.204,-1.414996 -1.122,-0.298 -0.437,-1.289 -1.203,-2.475 -1.109,-1.649 0.568,-2.199 6.607,1.69"
     id="Kern"
     inkscape:connector-curvature="0" />
  <path
     style="font-size:12px;fill:#d0d0d0;fill-rule:nonzero;stroke:#000000;stroke-width:1;stroke-linecap:butt;stroke-linejoin:bevel;stroke-miterlimit:4;stroke-opacity:1;stroke-dasharray:none;marker-start:none"
     d="m 52.064861,96.897877 2.601,0.626 16.635,3.676993 0.947,-0.004 2.068,3.106 0.713,1.063 0.265,0.393 3.823,5.72 1.41,2.099 -0.324,1.434 -0.018,0.18 0.009,0.068 0.568,1.478 0.717,1.126 0.036,0.519 0.666,2.804 0.658,0.789 0.573,0.638 0.496,0.867 -0.036,0.559 -0.023,0.018 -1.352,0.78 -0.911,0.374 -1.329,0.509 -7.193,-1.443 -1.361,-0.067 -0.74,0.243 -5.291,-1.122 -7.59,-1.604 -2.619,-0.46 -1.347,-0.051 -3.074,-0.684 -1.379,-0.514 -0.09,-0.216 -0.406,-0.095 -1.492,-0.338 -1.32,1.141 -0.352,0.638 -0.915,-1.215 -0.086,-0.122 -0.049,-0.203 0.018,-0.09 0.27,-0.33 0.749,-0.364 0.239,-0.397 0.599,-1.001 0.693,-1.5 0.095,-0.631 0.24,-1.46 0.319,-1.718 0.686,-2.974 0.36,0.089 2.191,-9.378997 0.135,-1.518996 0.099,-0.369 0.419,-1.068"
     id="San Bernardino"
     inkscape:connector-curvature="0" />
  <path
     style="font-size:12px;fill:#d0d0d0;fill-rule:nonzero;stroke:#000000;stroke-width:1;stroke-linecap:butt;stroke-linejoin:bevel;stroke-miterlimit:4;stroke-opacity:1;stroke-dasharray:none;marker-start:none"
     d="m 45.659861,73.126877 9.321,2.205 5.184,7.783 0.193,0.288 1.104,1.641 0.645,0.978 3.403,5.093 2.758,4.142 0.356,0.532 1.479,2.217 0.117,0.172 2.028,3.018993 -0.947,0.004 -16.635,-3.676993 -2.601,-0.626 -3.817,-0.785 0.491,-1.072 0.171,-0.604 -0.045,-0.852 -0.288,-4.196 -0.753,-4.269 -0.243,-1.924 0.293,-1.27 0.085,-0.694 -0.027,-0.488 -0.167,-1.581 -0.131,-0.267 -0.761,-0.824 -0.199,-0.018 -0.779,-0.55 -0.032,-0.031 -0.085,-0.19 -0.505,-2.538 0.027,-0.783 0.36,-0.835"
     id="Inyo"
     inkscape:connector-curvature="0" />
  <path
     style="font-size:12px;fill:#d0d0d0;fill-rule:nonzero;stroke:#000000;stroke-width:1;stroke-linecap:butt;stroke-linejoin:bevel;stroke-miterlimit:4;stroke-opacity:1;stroke-dasharray:none;marker-start:none"
     d="m 47.580861,83.195877 0.243,1.924 0.753,4.269 0.288,4.196 0.045,0.852 -0.171,0.604 -0.491,1.072 -0.596,-0.171 -4.417,-1.032 -5.539,-1.361 -4.89,-1.212 1.069,-4.169 0.5,-1.682 0.329,-0.089 0.261,0.062 0.419,-1.662 -0.257,-1.244 -0.446,-0.113 1.343,-0.816 1.88,-0.672 1.289,0.343 1.888,0.491 0.289,-1.059 4.43,1.042 1.781,0.427"
     id="Tulare"
     inkscape:connector-curvature="0" />
  <path
     style="font-size:12px;fill:#d0d0d0;fill-rule:nonzero;stroke:#000000;stroke-width:1;stroke-linecap:butt;stroke-linejoin:bevel;stroke-miterlimit:4;stroke-opacity:1;stroke-dasharray:none;marker-start:none"
     d="m 34.680861,83.439877 0.446,0.113 0.257,1.244 -0.419,1.662 -0.261,-0.062 -0.329,0.089 -0.5,1.682 -1.069,4.169 -6.607,-1.69 -0.198,-0.054 -0.627,-1.744 4.462,-2.525 0.699,-2.762 1.537,0.378 1.451,0.149 1.158,-0.649"
     id="Kings"
     inkscape:connector-curvature="0" />
  <path
     style="font-size:12px;fill:#d0d0d0;fill-rule:nonzero;stroke:#000000;stroke-width:1;stroke-linecap:butt;stroke-linejoin:bevel;stroke-miterlimit:4;stroke-opacity:1;stroke-dasharray:none;marker-start:none"
     d="m 41.657861,68.439877 0.748,0.203 0.632,0.203 0.139,0.167 0.311,0.622 0.118,1.343 -3.147,1.937 -0.446,0.293 -0.189,0.186 -0.122,0.239 -0.086,0.576 -0.009,0.222 -0.022,0.085 -0.207,0.482 -0.149,0.162 -0.284,0.253 -0.307,0.17 -1.465,-0.094 -0.427,0.068 -1.641,1.023 -0.442,0.293 -0.103,0.085 -0.708,0.789 -0.171,0.284 -0.257,0.252 -0.036,0.01 -4.332,-0.14 -0.617,-0.117 -0.712,-0.578 -0.388,-0.63 -0.104,-0.244 -0.049,-0.162 -0.036,-0.242 -0.284,-2.214 0.82,-0.487 1.956,-0.199 1.528,0.204 0.997,0 3.618,-2.209 1.091,0.266 0.897,-0.803 0.225,-0.819 3.39,-2.065 0.27,0.586"
     id="Madera"
     inkscape:connector-curvature="0" />
  <path
     style="font-size:12px;fill:#d0d0d0;fill-rule:nonzero;stroke:#000000;stroke-width:1;stroke-linecap:butt;stroke-linejoin:bevel;stroke-miterlimit:4;stroke-opacity:1;stroke-dasharray:none;marker-start:none"
     d="m 45.659861,73.126877 -0.36,0.835 -0.027,0.783 0.505,2.538 0.085,0.19 0.032,0.031 0.779,0.55 0.199,0.018 0.761,0.824 0.131,0.267 0.167,1.581 0.027,0.488 -0.085,0.694 -0.293,1.27 -1.781,-0.427 -4.43,-1.042 -0.289,1.059 -1.888,-0.491 -1.289,-0.343 -1.88,0.672 -1.343,0.816 -1.158,0.649 -1.451,-0.149 -1.537,-0.378 -0.699,2.762 -4.462,2.525 -2.042,-2.497 -0.635,-0.915 -0.045,-0.728 0.275,-1.346 0.513,-0.554 0.97,-2.02 -2.285,-4.001 4.741,-2.822 0.284,2.214 0.036,0.242 0.049,0.162 0.104,0.244 0.388,0.63 0.712,0.578 0.617,0.117 4.332,0.14 0.036,-0.01 0.257,-0.252 0.171,-0.284 0.708,-0.789 0.103,-0.085 0.442,-0.293 1.641,-1.023 0.427,-0.068 1.465,0.094 0.307,-0.17 0.284,-0.253 0.149,-0.162 0.207,-0.482 0.022,-0.085 0.009,-0.222 0.086,-0.576 0.122,-0.239 0.189,-0.186 0.446,-0.293 3.147,-1.937 2.054,2.149"
     id="Fresno"
     inkscape:connector-curvature="0" />
  <path
     style="font-size:12px;fill:#d0d0d0;fill-rule:nonzero;stroke:#000000;stroke-width:1;stroke-linecap:butt;stroke-linejoin:bevel;stroke-miterlimit:4;stroke-opacity:1;stroke-dasharray:none;marker-start:none"
     d="m 15.476861,72.905877 -0.055,0.262 0.104,0.397 0.83,1.378 0.941,1.695 0.852,2.312 1.357,2.737 0.617,0.753 1.898,1.599 0.274,0.108 0.055,-0.004 0.076,-0.045 0.501,-0.735 -0.275,1.346 0.045,0.728 0.635,0.915 2.042,2.497 0.627,1.744 -11.349,-3.107 -0.32,-0.467 -0.532,-0.983 0.018,-0.478 0.013,-0.23 0.023,-0.419 -0.059,-0.37 -0.009,-0.054 -1.194,-2.559 -0.266,-0.469 -0.513,-0.578 -0.145,-0.13 -0.004,0 -0.1,-0.014 -0.063,-0.036 -0.099,-0.125 -0.063,-0.14 -0.253,-0.586 -0.09,-0.212 -0.009,-0.203 0.33,-3.281 0.721,-0.256 0.022,0.008 0.163,0.004 0.125,-0.054 0.249,-0.184 0.153,-0.158 0.112,-0.135 0.194,-0.294 0.185,-0.368 0.496,-1.073 0.009,-0.149 -0.058,-0.469 -0.005,-0.032 1.794,-0.086"
     id="Monterey"
     inkscape:connector-curvature="0" />
  <path
     style="font-size:12px;fill:#d0d0d0;fill-rule:nonzero;stroke:#000000;stroke-width:1;stroke-linecap:butt;stroke-linejoin:bevel;stroke-miterlimit:4;stroke-opacity:1;stroke-dasharray:none;marker-start:none"
     d="m 15.476861,72.905877 0.639,0.091 0.898,-0.505 0.919,0.195 2.005,0.539 -0.207,0.216 -0.072,0.1 -0.027,0.072 0.068,0.185 0.545,1.185 1.771,1.619 0.109,0.185 2.285,4.001 -0.97,2.02 -0.513,0.554 -0.501,0.735 -0.076,0.045 -0.055,0.004 -0.274,-0.108 -1.898,-1.599 -0.617,-0.753 -1.357,-2.737 -0.852,-2.312 -0.941,-1.695 -0.83,-1.378 -0.104,-0.397 0.055,-0.262"
     id="San Benito"
     inkscape:connector-curvature="0" />
  <path
     style="font-size:12px;fill:#d0d0d0;fill-rule:nonzero;stroke:#000000;stroke-width:1;stroke-linecap:butt;stroke-linejoin:bevel;stroke-miterlimit:4;stroke-opacity:1;stroke-dasharray:none;marker-start:none"
     d="m 30.335861,66.961877 0.487,2.483 -0.004,0.19 -0.009,0.036 -0.045,0.045 0.41,2.447 0.265,0.377 0.727,0.944 -0.997,0 -1.528,-0.204 -1.956,0.199 -0.82,0.487 -4.741,2.822 -0.109,-0.185 -1.771,-1.619 -0.545,-1.185 -0.068,-0.185 0.027,-0.072 0.072,-0.1 0.207,-0.216 -0.139,-0.144 -0.077,-0.17 -0.009,-0.073 0.144,-0.505 0.257,-0.117 0.212,-0.333 0.144,-0.695 -0.054,-0.17 3.299,-1.948 0.018,-0.423 -0.058,-0.127 -0.076,-0.045 1.465,-0.433 5.272,-1.081"
     id="Merced"
     inkscape:connector-curvature="0" />
  <path
     style="font-size:12px;fill:#d0d0d0;fill-rule:nonzero;stroke:#000000;stroke-width:1;stroke-linecap:butt;stroke-linejoin:bevel;stroke-miterlimit:4;stroke-opacity:1;stroke-dasharray:none;marker-start:none"
     d="m 11.847861,66.601877 -0.004,0.143 0.022,0.072 0.271,0.569 0.527,1.068 0.257,0.368 0.69,0.606 0.432,0.31 0.87,0.92 1.203,1.991 0.068,0.113 -0.068,0.235 -0.639,-0.091 -1.794,0.086 -0.072,-0.406 -0.158,-0.747 -0.113,-0.279 -0.099,-0.19 -0.09,-0.122 -0.203,-0.181 -0.095,-0.021 -0.505,0.117 -0.451,-0.023 -0.233,-0.032 -0.163,-0.041 -0.081,-0.044 -0.032,-0.019 -0.143,-0.081 -0.109,-0.064 -0.392,-0.445 -0.388,-0.558 -0.292,-0.696 -0.2439998,-0.733 -0.027,-0.536 0.082,-0.51 0.8369998,-0.14 0.879,0.243 0.068,-0.175 0.189,-0.707"
     id="Santa Cruz"
     inkscape:connector-curvature="0" />
  <path
     style="font-size:12px;fill:#d0d0d0;fill-rule:nonzero;stroke:#000000;stroke-width:1;stroke-linecap:butt;stroke-linejoin:bevel;stroke-miterlimit:4;stroke-opacity:1;stroke-dasharray:none;marker-start:none"
     d="m 11.004861,60.660877 -0.018,0.005 -0.22,1.316 0.134,0.211 1.56,1.637 0.113,0.071 0.27,0.095 0.185,-0.049 0.005,-0.013 0.185,0.464 -1.371,2.204 -0.189,0.707 -0.068,0.175 -0.879,-0.243 -0.8369998,0.14 -0.082,0.51 0.027,0.536 -0.081,-0.131 -0.275,-0.451 -0.37,-0.69 -0.045,-0.127 0.023,-0.612 0.167,-3.344 0.31,-1.361 0.379,-1.356 1.0769998,0.306"
     id="San Mateo"
     inkscape:connector-curvature="0" />
  <path
     style="font-size:12px;fill:#d0d0d0;fill-rule:nonzero;stroke:#000000;stroke-width:1;stroke-linecap:butt;stroke-linejoin:bevel;stroke-miterlimit:4;stroke-opacity:1;stroke-dasharray:none;marker-start:none"
     d="m 12.442861,58.533877 0.446,0.009 0.054,0.031 0.303,0.424 0.193,0.604 0.041,0.301 1.762,1.812 3.565,-0.095 0.73,-0.081 -0.405,1.461 -0.555,2.019 0.072,0.154 0.55,0.838 -0.009,-0.01 -3.74,-1.067 -0.122,-0.014 -0.104,0.077 -0.077,0.036 -0.351,0.045 -0.18,-0.023 -1.236,-0.423 -0.161,-0.234 -0.185,-0.464 0.009,-2.263 -0.78,-2.263 0.18,-0.874"
     id="Alameda"
     inkscape:connector-curvature="0" />
  <path
     style="font-size:12px;fill:#d0d0d0;fill-rule:nonzero;stroke:#000000;stroke-width:1;stroke-linecap:butt;stroke-linejoin:bevel;stroke-miterlimit:4;stroke-opacity:1;stroke-dasharray:none;marker-start:none"
     d="m 13.218861,64.397877 0.161,0.234 1.236,0.423 0.18,0.023 0.351,-0.045 0.077,-0.036 0.104,-0.077 0.122,0.014 3.74,1.067 -0.158,0.064 -0.04,0.676 0.289,3.299 1.135,0.979 0.054,0.17 -0.144,0.695 -0.212,0.333 -0.257,0.117 -0.144,0.505 0.009,0.073 0.077,0.17 0.139,0.144 -2.005,-0.539 -0.919,-0.195 -0.898,0.505 0.068,-0.235 -0.068,-0.113 -1.203,-1.991 -0.87,-0.92 -0.432,-0.31 -0.69,-0.606 -0.257,-0.368 -0.527,-1.068 -0.271,-0.569 -0.022,-0.072 0.004,-0.143 1.371,-2.204"
     id="Santa Clara"
     inkscape:connector-curvature="0" />
  <path
     style="font-size:12px;fill:#d0d0d0;fill-rule:nonzero;stroke:#000000;stroke-width:1;stroke-linecap:butt;stroke-linejoin:bevel;stroke-miterlimit:4;stroke-opacity:1;stroke-dasharray:none;marker-start:none"
     d="m 26.554861,59.983877 1.835,3.787 1.951,3.186 -0.005,0.005 -5.272,1.081 -1.465,0.433 0.076,0.045 0.058,0.127 -0.018,0.423 -3.299,1.948 -1.135,-0.979 -0.289,-3.299 0.04,-0.676 0.158,-0.064 0.009,0.01 2.655,-1.569 0.469,-0.301 0.202,-0.091 1.141,-0.302 0.252,0.091 0.5,0.099 0.578,0.067 0.554,-0.145 0.361,-1.482 0.644,-2.394"
     id="Stanislaus"
     inkscape:connector-curvature="0" />
  <path
     style="font-size:12px;fill:#d0d0d0;fill-rule:nonzero;stroke:#000000;stroke-width:1;stroke-linecap:butt;stroke-linejoin:bevel;stroke-miterlimit:4;stroke-opacity:1;stroke-dasharray:none;marker-start:none"
     d="m 30.340861,66.956877 0.049,-0.505 0.086,-0.126 0.59,-0.424 2.93,-0.613 0.194,0.1 0.848,0.915 0.071,0.131 0.059,0.04 0.289,0.139 0.933,0.253 0.32,-0.004 1.239,-0.19 0.157,-0.085 0.87,-0.694 0.587,-0.135 0.95,0.684 0.604,0.695 0.271,0.716 -3.39,2.065 -0.225,0.819 -0.897,0.803 -1.091,-0.266 -3.618,2.209 -0.727,-0.944 -0.265,-0.377 -0.41,-2.447 0.045,-0.045 0.009,-0.036 0.004,-0.19 -0.487,-2.483 0.005,-0.005"
     id="Mariposa"
     inkscape:connector-curvature="0" />
  <path
     style="font-size:12px;fill:#d0d0d0;fill-rule:nonzero;stroke:#000000;stroke-width:1;stroke-linecap:butt;stroke-linejoin:bevel;stroke-miterlimit:4;stroke-opacity:1;stroke-dasharray:none;marker-start:none"
     d="m 39.904861,60.119877 -0.076,0.063 -0.109,0.38 -0.162,1.184 0.414,0.658 0.298,0.253 0.234,0.153 0.424,0.23 0.356,0.261 0.248,0.194 0.397,0.378 0.279,0.609 0.518,2.294 -0.351,1.135 -0.537,0.411 -0.18,0.117 -0.27,-0.586 -0.271,-0.716 -0.604,-0.695 -0.95,-0.684 -0.587,0.135 -0.87,0.694 -0.157,0.085 -1.239,0.19 -0.32,0.004 -0.933,-0.253 -0.289,-0.139 -0.059,-0.04 -0.071,-0.131 -0.848,-0.915 -0.194,-0.1 -2.93,0.613 -0.59,0.424 -0.086,0.126 -0.049,0.505 -1.951,-3.186 1.761,-1.163 0.744,-0.731 1.24,-1.279 1.185,-1.1 1.51,-1.31 0.244,-0.114 0.234,-0.073 1.239,-0.17 1.095,1.276 0.149,-0.073 0.771,-0.257 0.554,-0.068 0.392,0.091 0.045,0.045 0.036,0.09 0.316,1.185"
     id="Tuolumne"
     inkscape:connector-curvature="0" />
  <path
     style="font-size:12px;fill:#d0d0d0;fill-rule:nonzero;stroke:#000000;stroke-width:1;stroke-linecap:butt;stroke-linejoin:bevel;stroke-miterlimit:4;stroke-opacity:1;stroke-dasharray:none;marker-start:none"
     d="m 41.662861,55.383877 1.924,2.88 1.294,1.927 5.507,8.285 4.593,6.856 -9.321,-2.205 -2.054,-2.149 -0.118,-1.343 -0.311,-0.622 -0.139,-0.167 -0.632,-0.203 -0.748,-0.203 0.18,-0.117 0.537,-0.411 0.351,-1.135 -0.518,-2.294 -0.279,-0.609 -0.397,-0.378 -0.248,-0.194 -0.356,-0.261 -0.424,-0.23 -0.234,-0.153 -0.298,-0.253 -0.414,-0.658 0.162,-1.184 0.109,-0.38 0.076,-0.063 1.018,-0.866 0.469,-1.076 -0.406,-1.497 0.014,-0.131 0.235,-0.604 0.428,-0.562"
     id="Mono"
     inkscape:connector-curvature="0" />
  <path
     style="font-size:12px;fill:#d0d0d0;fill-rule:nonzero;stroke:#000000;stroke-width:1;stroke-linecap:butt;stroke-linejoin:bevel;stroke-miterlimit:4;stroke-opacity:1;stroke-dasharray:none;marker-start:none"
     d="m 39.287861,51.821877 2.375,3.562 -0.428,0.562 -0.235,0.604 -0.014,0.131 0.406,1.497 -0.469,1.076 -1.018,0.866 -0.316,-1.185 -0.036,-0.09 -0.045,-0.045 -0.392,-0.091 -0.554,0.068 -0.771,0.257 -0.149,0.073 -1.095,-1.276 -0.261,-1.096 0.626,-2.429 1.33,-0.662 0.247,-0.18 0.807,-0.718 0.05,-0.077 0.068,-0.359 -0.014,-0.248 -0.112,-0.24"
     id="Alpine"
     inkscape:connector-curvature="0" />
  <path
     style="font-size:12px;fill:#d0d0d0;fill-rule:nonzero;stroke:#000000;stroke-width:1;stroke-linecap:butt;stroke-linejoin:bevel;stroke-miterlimit:4;stroke-opacity:1;stroke-dasharray:none;marker-start:none"
     d="m 36.546861,57.830877 -1.239,0.17 -0.234,0.073 -0.244,0.114 -1.51,1.31 -1.185,1.1 -1.24,1.279 -0.744,0.731 -1.761,1.163 -1.835,-3.787 -0.171,-2.041 0.067,0.077 0.126,0.077 0.785,0.167 2.384,-0.753 1.803,-0.794 0.469,-0.243 0.437,0.026 3.831,0.235 0.261,1.096"
     id="Calaveras"
     inkscape:connector-curvature="0" />
  <path
     style="font-size:12px;fill:#d0d0d0;fill-rule:nonzero;stroke:#000000;stroke-width:1;stroke-linecap:butt;stroke-linejoin:bevel;stroke-miterlimit:4;stroke-opacity:1;stroke-dasharray:none;marker-start:none"
     d="m 36.911861,54.305877 -0.626,2.429 -3.831,-0.235 -0.437,-0.026 -0.469,0.243 -1.803,0.794 -2.384,0.753 -0.785,-0.167 -0.126,-0.077 -0.067,-0.077 -0.054,-0.987 0.698,-2.641 0.933,0.108 2.92,0.987 0.447,0.113 0.716,0.082 1.975,0.089 0.559,-0.089 2.334,-1.299"
     id="Amador"
     inkscape:connector-curvature="0" />
  <path
     style="font-size:12px;fill:#d0d0d0;fill-rule:nonzero;stroke:#000000;stroke-width:1;stroke-linecap:butt;stroke-linejoin:bevel;stroke-miterlimit:4;stroke-opacity:1;stroke-dasharray:none;marker-start:none"
     d="m 26.383861,57.942877 0.171,2.041 -0.644,2.394 -0.361,1.482 -0.554,0.145 -0.578,-0.067 -0.5,-0.099 -0.252,-0.091 -1.141,0.302 -0.202,0.091 -0.469,0.301 -2.655,1.569 -0.55,-0.838 -0.072,-0.154 0.555,-2.019 0.405,-1.461 0.708,-3.497 0.437,-0.567 1.087,-1.151 0.229,0 0.176,0.074 0.121,0.279 0.186,0.176 0.486,0.121 1.785,0.208 0.068,-0.009 0.694,-0.239 0.816,0.022 0.054,0.987"
     id="San Joaquin"
     inkscape:connector-curvature="0" />
  <path
     style="font-size:12px;fill:#d0d0d0;fill-rule:nonzero;stroke:#000000;stroke-width:1;stroke-linecap:butt;stroke-linejoin:bevel;stroke-miterlimit:4;stroke-opacity:1;stroke-dasharray:none;marker-start:none"
     d="m 13.470861,56.599877 0.87,0.527 0.5,0.145 2.127,0.517 0.144,0.015 0.131,-0.009 0.091,-0.059 0.081,-0.099 0.207,0.568 0.09,0.121 0.253,0.104 0.112,0.026 0.392,0.009 0.442,-0.125 0.239,-0.15 0.049,-0.089 0.028,-0.181 0.049,-0.08 0.072,-0.036 0.112,0 0.573,0.103 0.18,0.094 0.032,0.041 -0.708,3.497 -0.73,0.081 -3.565,0.095 -1.762,-1.812 -0.041,-0.301 -0.193,-0.604 -0.303,-0.424 -0.054,-0.031 -0.446,-0.009 -0.387,-0.284 -0.37,-0.843 1.28,-0.28 0.212,-0.1 0.275,-0.215 0.027,-0.086 -0.009,-0.126"
     id="Contra Costa"
     inkscape:connector-curvature="0" />
  <path
     style="font-size:12px;fill:#d0d0d0;fill-rule:nonzero;stroke:#000000;stroke-width:1;stroke-linecap:butt;stroke-linejoin:bevel;stroke-miterlimit:4;stroke-opacity:1;stroke-dasharray:none;marker-start:none"
     d="m 38.777861,49.888877 0.51,1.933 0.112,0.24 0.014,0.248 -0.068,0.359 -0.05,0.077 -0.807,0.718 -0.247,0.18 -1.33,0.662 -2.334,1.299 -0.559,0.089 -1.975,-0.089 -0.716,-0.082 -0.447,-0.113 -2.92,-0.987 -0.933,-0.108 -0.405,-2.858 1.23,-1.469 0.275,-0.599 0.212,-0.176 1.063,-0.302 1.357,-0.221 0.433,0.023 0.068,0.027 0.234,0.138 0.311,0.321 0.112,0.252 0.082,0.137 0.139,0.161 0.595,0.59 0.122,0.073 0.081,0 0.482,-0.091 0.239,-0.107 0.532,-0.446 2.15,0.081 0.568,0.049 0.207,-0.049 0.14,-0.06 0.04,-0.152 0.122,-0.095 1.361,0.347"
     id="El Dorado"
     inkscape:connector-curvature="0" />
  <path
     style="font-size:12px;fill:#d0d0d0;fill-rule:nonzero;stroke:#000000;stroke-width:1;stroke-linecap:butt;stroke-linejoin:bevel;stroke-miterlimit:4;stroke-opacity:1;stroke-dasharray:none;marker-start:none"
     d="m 23.390861,50.272877 3.232,1.184 0.405,2.858 -0.698,2.641 -0.816,-0.022 -0.694,0.239 -0.068,0.009 -1.785,-0.208 -0.486,-0.121 -0.186,-0.176 -0.121,-0.279 -0.176,-0.074 -0.229,0 -1.087,1.151 -0.437,0.567 -0.032,-0.041 -0.18,-0.094 -0.573,-0.103 -0.112,0 -0.072,0.036 -0.049,0.08 -0.028,0.181 -0.049,0.089 -0.239,0.15 -0.442,0.125 -0.392,-0.009 -0.112,-0.026 -0.253,-0.104 -0.09,-0.121 -0.207,-0.568 0.586,0.247 0.959,-0.095 1.104,-1.137 0.825,-1.385 0.658,-0.285 0.195,-0.117 0.491,-1.014 0.437,-1.781 0.014,-0.134 -0.014,-0.059 -0.375,-0.663 -0.04,-1.271 1.136,0.33"
     id="Sacramento"
     inkscape:connector-curvature="0" />
  <path
     style="font-size:12px;fill:#d0d0d0;fill-rule:nonzero;stroke:#000000;stroke-width:1;stroke-linecap:butt;stroke-linejoin:bevel;stroke-miterlimit:4;stroke-opacity:1;stroke-dasharray:none;marker-start:none"
     d="m 12.451861,55.022877 2.047,0.59 0.044,-0.117 -0.022,-0.058 -0.036,-0.005 -0.054,-0.076 -0.036,-0.105 0.027,-0.112 0.545,-1.564 1.366,0.382 0.045,-0.107 0.014,-0.113 0.013,-0.23 -0.009,-0.108 -0.045,-0.293 -0.221,-0.667 0.004,-0.063 0.018,-0.085 0.455,-0.856 0.05,-0.055 0.455,0.076 3.412,0.681 0.104,0.172 0,0.04 -0.108,0.46 -0.613,2.176 0.982,0.281 -0.825,1.385 -1.104,1.137 -0.959,0.095 -0.586,-0.247 -0.081,0.099 -0.091,0.059 -0.131,0.009 -0.144,-0.015 -2.127,-0.517 -0.5,-0.145 -0.87,-0.527 -1.001,-1.501 -0.018,-0.076"
     id="Solano"
     inkscape:connector-curvature="0" />
  <path
     style="font-size:12px;fill:#d0d0d0;fill-rule:nonzero;stroke:#000000;stroke-width:1;stroke-linecap:butt;stroke-linejoin:bevel;stroke-miterlimit:4;stroke-opacity:1;stroke-dasharray:none;marker-start:none"
     d="m 11.004861,60.660877 -1.0769998,-0.306 0,-0.009 0.013,-0.199 0.1269998,-0.735 0.117,-0.067 0.464,-0.091 0.388,0.027 0.185,0.046 0.068,0.1 0.071,0.22 -0.058,0.77 -0.058,0.186 -0.24,0.058"
     id="San Franciso"
     inkscape:connector-curvature="0" />
  <path
     style="font-size:12px;fill:#d0d0d0;fill-rule:nonzero;stroke:#000000;stroke-width:1;stroke-linecap:butt;stroke-linejoin:bevel;stroke-miterlimit:4;stroke-opacity:1;stroke-dasharray:none;marker-start:none"
     d="m 7.1918612,51.597877 0.122,-0.064 0.816,0.019 0.081,0.021 2.1319998,2.538 1.131,1.262 -0.36,0.938 -0.374,1.185 -0.028,0.1 0.068,0.107 0.167,0.207 0.167,0.277 0.058,0.143 -0.004,0.04 -0.595,0.581 -0.266,-0.031 -0.167,-0.086 -0.113,-0.108 -3.1769998,-3.646 0.527,-2.808 -0.031,-0.239 -0.113,-0.329 -0.041,-0.107"
     id="Marin"
     inkscape:connector-curvature="0" />
  <path
     style="font-size:12px;fill:#d0d0d0;fill-rule:nonzero;stroke:#000000;stroke-width:1;stroke-linecap:butt;stroke-linejoin:bevel;stroke-miterlimit:4;stroke-opacity:1;stroke-dasharray:none;marker-start:none"
     d="m 15.093861,46.196877 0.942,0.596 0.495,2.636 0.117,0.744 0.014,0.266 -0.005,0.942 -0.05,0.055 -0.455,0.856 -0.018,0.085 -0.004,0.063 0.221,0.667 0.045,0.293 0.009,0.108 -0.013,0.23 -0.014,0.113 -0.045,0.107 -1.366,-0.382 -0.545,1.564 -0.027,0.112 0.036,0.105 0.054,0.076 0.036,0.005 0.022,0.058 -0.044,0.117 -2.047,-0.59 0.392,0.072 0.311,-0.505 0.023,-0.297 -0.009,-0.302 -0.122,-1.042 -0.69,-2.442 -0.396,-1.087 0.032,-0.847 0.166,-0.555 1.708,-0.022 1.155,-0.978 0.112,-0.171 -0.04,-0.65"
     id="Napa"
     inkscape:connector-curvature="0" />
  <path
     style="font-size:12px;fill:#d0d0d0;fill-rule:nonzero;stroke:#000000;stroke-width:1;stroke-linecap:butt;stroke-linejoin:bevel;stroke-miterlimit:4;stroke-opacity:1;stroke-dasharray:none;marker-start:none"
     d="m 3.8388612,44.214877 0.388,-0.024 1.334,0.014 2.92,0.239 2.4749998,0.752 1.203,2.822 -0.166,0.555 -0.032,0.847 0.396,1.087 0.69,2.442 0.122,1.042 0.009,0.302 -0.023,0.297 -0.311,0.505 -0.392,-0.072 0.018,0.076 -0.996,0.275 -1.131,-1.262 -2.1319998,-2.538 -0.081,-0.021 -0.816,-0.019 -0.122,0.064 -0.639,-2.273 -2.087,-3.993 -0.627,-1.117"
     id="Sonoma"
     inkscape:connector-curvature="0" />
  <path
     style="font-size:12px;fill:#d0d0d0;fill-rule:nonzero;stroke:#000000;stroke-width:1;stroke-linecap:butt;stroke-linejoin:bevel;stroke-miterlimit:4;stroke-opacity:1;stroke-dasharray:none;marker-start:none"
     d="m 15.832861,45.597877 4.84,1.356 1.582,2.989 0.04,1.271 0.375,0.663 0.014,0.059 -0.014,0.134 -0.437,1.781 -0.491,1.014 -0.195,0.117 -0.658,0.285 -0.982,-0.281 0.613,-2.176 0.108,-0.46 0,-0.04 -0.104,-0.172 -3.412,-0.681 -0.455,-0.076 0.005,-0.942 -0.014,-0.266 -0.117,-0.744 -0.495,-2.636 -0.942,-0.596 0.739,-0.599"
     id="Yolo"
     inkscape:connector-curvature="0" />
  <path
     style="font-size:12px;fill:#d0d0d0;fill-rule:nonzero;stroke:#000000;stroke-width:1;stroke-linecap:butt;stroke-linejoin:bevel;stroke-miterlimit:4;stroke-opacity:1;stroke-dasharray:none;marker-start:none"
     d="m 24.959861,47.166877 1.428,-0.117 0.478,0.409 0.104,0.05 1.352,0.455 0.324,-0.054 0.622,-0.617 0.086,-0.126 0.076,-0.198 0.086,-0.091 0.469,-0.352 0.469,-0.243 0.712,-0.355 1.365,-0.636 0.51,-0.117 0.374,-0.016 6.143,1.593 -0.482,1.897 -0.162,0.672 -0.136,0.568 -1.361,-0.347 -0.122,0.095 -0.04,0.152 -0.14,0.06 -0.207,0.049 -0.568,-0.049 -2.15,-0.081 -0.532,0.446 -0.239,0.107 -0.482,0.091 -0.081,0 -0.122,-0.073 -0.595,-0.59 -0.139,-0.161 -0.082,-0.137 -0.112,-0.252 -0.311,-0.321 -0.234,-0.138 -0.068,-0.027 -0.433,-0.023 -1.357,0.221 -1.063,0.302 -0.212,0.176 -0.275,0.599 -1.23,1.469 -3.232,-1.184 0.802,-2.363 0.532,0.14 0.235,-0.883"
     id="Placer"
     inkscape:connector-curvature="0" />
  <path
     style="font-size:12px;fill:#d0d0d0;fill-rule:nonzero;stroke:#000000;stroke-width:1;stroke-linecap:butt;stroke-linejoin:bevel;stroke-miterlimit:4;stroke-opacity:1;stroke-dasharray:none;marker-start:none"
     d="m 39.994861,45.133877 -0.437,1.618 -6.143,-1.593 -0.374,0.016 -0.51,0.117 -1.365,0.636 -0.712,0.355 -0.469,0.243 -0.469,0.352 -0.086,0.091 -0.076,0.198 -0.086,0.126 -0.622,0.617 -0.324,0.054 -1.352,-0.455 -0.104,-0.05 -0.478,-0.409 0.672,-2.461 0.261,-0.415 0.879,-0.609 0.824,-0.433 0.537,-0.058 0.235,0.036 0.27,0.13 0.135,-0.157 0.225,-0.058 1.623,0.13 1.271,-0.316 0.032,-0.039 0.144,-0.123 0.342,-0.166 0.154,-0.022 0.712,0.229 0.203,0.253 0.072,0.608 0.211,0.248 0.127,0.072 4.678,1.235"
     id="Nevada"
     inkscape:connector-curvature="0" />
  <path
     style="font-size:12px;fill:#d0d0d0;fill-rule:nonzero;stroke:#000000;stroke-width:1;stroke-linecap:butt;stroke-linejoin:bevel;stroke-miterlimit:4;stroke-opacity:1;stroke-dasharray:none;marker-start:none"
     d="m 31.029861,40.158877 0.924,-0.588 0.127,-0.467 0.256,-0.181 0.469,-0.135 1.83,1.434 1.988,0.495 2.853,0.758 1.438,0.175 -0.92,3.484 -4.678,-1.235 -0.127,-0.072 -0.211,-0.248 -0.072,-0.608 -0.203,-0.253 -0.712,-0.229 -0.154,0.022 -0.342,0.166 -0.144,0.123 -0.032,0.039 -1.271,0.316 -1.623,-0.13 -0.225,0.058 -0.135,0.157 0.964,-3.081"
     id="Sierra"
     inkscape:connector-curvature="0" />
  <path
     style="font-size:12px;fill:#d0d0d0;fill-rule:nonzero;stroke:#000000;stroke-width:1;stroke-linecap:butt;stroke-linejoin:bevel;stroke-miterlimit:4;stroke-opacity:1;stroke-dasharray:none;marker-start:none"
     d="m 30.246861,40.514877 0.783,-0.356 -0.964,3.081 -0.27,-0.13 -0.235,-0.036 -0.537,0.058 -0.824,0.433 -0.879,0.609 -0.261,0.415 -0.672,2.461 -1.428,0.117 -0.424,-0.132 -0.217,0.006 -0.675,0.094 -0.24,0.189 -0.139,0.149 -0.014,-1.342 0.447,-2.674 0.058,-0.193 0.171,-0.362 0.063,-0.036 1.253,0.069 0.996,-0.072 0.392,-0.199 3.616,-2.149"
     id="Yuba"
     inkscape:connector-curvature="0" />
  <path
     style="font-size:12px;fill:#d0d0d0;fill-rule:nonzero;stroke:#000000;stroke-width:1;stroke-linecap:butt;stroke-linejoin:bevel;stroke-miterlimit:4;stroke-opacity:1;stroke-dasharray:none;marker-start:none"
     d="m 23.989861,42.865877 -0.063,0.036 -0.171,0.362 -0.058,0.193 -0.447,2.674 0.014,1.342 0.139,-0.149 0.24,-0.189 0.675,-0.094 0.217,-0.006 0.424,0.132 -0.235,0.883 -0.532,-0.14 -0.802,2.363 -1.136,-0.33 -1.582,-2.989 0.379,-0.752 -0.342,-1.533 -0.29,-0.594 0.095,-0.622 0.789,-1.442 2.686,0.855"
     id="Sutter"
     inkscape:connector-curvature="0" />
  <path
     style="font-size:12px;fill:#d0d0d0;fill-rule:nonzero;stroke:#000000;stroke-width:1;stroke-linecap:butt;stroke-linejoin:bevel;stroke-miterlimit:4;stroke-opacity:1;stroke-dasharray:none;marker-start:none"
     d="m 21.759861,41.060877 -0.456,0.95 -0.789,1.442 -0.095,0.622 0.29,0.594 0.342,1.533 -0.379,0.752 -4.84,-1.356 -0.478,-0.568 -0.045,-0.103 -0.343,-1.308 0.036,-0.905 -0.955,-1.632 -0.347,-0.347 -0.546,-0.811 -0.081,-0.388 0.198,-0.334 0.397,-0.431 8.091,2.29"
     id="Colusa"
     inkscape:connector-curvature="0" />
  <path
     style="font-size:12px;fill:#d0d0d0;fill-rule:nonzero;stroke:#000000;stroke-width:1;stroke-linecap:butt;stroke-linejoin:bevel;stroke-miterlimit:4;stroke-opacity:1;stroke-dasharray:none;marker-start:none"
     d="m 13.668861,38.770877 -0.397,0.431 -0.198,0.334 0.081,0.388 0.546,0.811 0.347,0.347 0.955,1.632 -0.036,0.905 0.343,1.308 0.045,0.103 0.478,0.568 -0.739,0.599 0.04,0.65 -0.112,0.171 -1.155,0.978 -1.708,0.022 -1.203,-2.822 -0.82,-0.931 -0.2479998,-0.398 -0.554,-1.455 -0.167,-0.739 0.022,-0.109 0.054,-0.184 0.221,-0.519 0.221,-0.415 0.4279998,-0.131 0.419,-0.468 0.086,-0.54 -0.054,-1.773 0.108,-0.359 0.077,-0.195 0.279,-0.609 0.414,-0.085 0.835,0.276 0.486,-0.028 0.172,-0.441 0.058,-0.186 1.424,0.407 -0.329,1.275 -0.112,0.355 -0.307,0.827"
     id="Lake"
     inkscape:connector-curvature="0" />
  <path
     style="font-size:12px;fill:#d0d0d0;fill-rule:nonzero;stroke:#000000;stroke-width:1;stroke-linecap:butt;stroke-linejoin:bevel;stroke-miterlimit:4;stroke-opacity:1;stroke-dasharray:none;marker-start:none"
     d="m 21.723861,35.461877 -0.127,-0.221 0.059,-0.375 0.401,-0.459 2.267,0.612 0.28,0.019 0.301,-0.158 0.077,-0.233 0.077,-0.155 0.148,-0.157 0.415,-0.303 1.744,-1.081 0.483,0.131 0.617,-0.117 0.121,-0.072 0.136,-0.261 0.301,0.085 0.118,0.612 0.013,0.308 -0.049,0.176 -0.211,0.211 -0.803,2.326 1.419,2.583 0.736,1.582 -3.616,2.149 -0.392,0.199 -0.996,0.072 -1.253,-0.069 -2.686,-0.855 0.456,-0.95 0.838,-1.777 0.013,-0.051 -0.396,-2.577 -0.491,-1.194"
     id="Butte"
     inkscape:connector-curvature="0" />
  <path
     style="font-size:12px;fill:#d0d0d0;fill-rule:nonzero;stroke:#000000;stroke-width:1;stroke-linecap:butt;stroke-linejoin:bevel;stroke-miterlimit:4;stroke-opacity:1;stroke-dasharray:none;marker-start:none"
     d="m 13.290861,33.041877 8.433,2.42 0.491,1.194 0.396,2.577 -0.013,0.051 -0.838,1.777 -8.091,-2.29 0.307,-0.827 0.112,-0.355 0.329,-1.275 -1.424,-0.407 0.298,-2.865"
     id="Glenn"
     inkscape:connector-curvature="0" />
  <path
     style="font-size:12px;fill:#d0d0d0;fill-rule:nonzero;stroke:#000000;stroke-width:1;stroke-linecap:butt;stroke-linejoin:bevel;stroke-miterlimit:4;stroke-opacity:1;stroke-dasharray:none;marker-start:none"
     d="m 29.159861,28.790877 1.596,0.442 2.51,0.666 -0.644,2.385 0.117,0.321 0.924,0.824 0.356,0.095 0.202,-0.046 0.082,-0.301 0.978,-0.784 0.346,-0.104 0.361,0.095 1.659,1.243 2.19,2.569 0.28,0.366 0.482,2.09 -0.009,0.393 -0.095,0.364 -0.482,1.426 -0.536,0.64 -2.853,-0.758 -1.988,-0.495 -1.83,-1.434 -0.469,0.135 -0.256,0.181 -0.127,0.467 -0.924,0.588 -0.783,0.356 -0.736,-1.582 -1.419,-2.583 0.803,-2.326 0.211,-0.211 0.049,-0.176 -0.013,-0.308 -0.118,-0.612 -0.301,-0.085 0.852,-0.582 0.036,-0.036 0.072,-0.113 0.297,-0.888 -0.117,-0.605 -0.085,-0.016 -0.672,-0.326 -0.032,-0.031 -0.036,-0.126 0.004,-0.086 0.068,-0.861 0.05,-0.171"
     id="Plumas"
     inkscape:connector-curvature="0" />
  <path
     style="font-size:12px;fill:#d0d0d0;fill-rule:nonzero;stroke:#000000;stroke-width:1;stroke-linecap:butt;stroke-linejoin:bevel;stroke-miterlimit:4;stroke-opacity:1;stroke-dasharray:none;marker-start:none"
     d="m 29.159861,28.790877 -0.05,0.171 -0.068,0.861 -0.004,0.086 0.036,0.126 0.032,0.031 0.672,0.326 0.085,0.016 0.117,0.605 -0.297,0.888 -0.072,0.113 -0.036,0.036 -0.852,0.582 -0.136,0.261 -0.121,0.072 -0.617,0.117 -0.483,-0.131 -1.744,1.081 -0.415,0.303 -0.148,0.157 -0.077,0.155 -0.077,0.233 -0.301,0.158 -0.28,-0.019 -2.267,-0.612 -0.401,0.459 -0.059,0.375 0.127,0.221 -8.433,-2.42 -0.041,-0.064 0,-0.58 0.293,-0.596 0.347,-0.203 0.104,-0.235 0.031,-0.418 -0.045,-0.138 -0.031,-0.241 0.212,-1.762 0.184,-0.65 0.05,-0.045 0.122,-0.576 0.008,-0.133 -0.049,-0.111 -0.609,-0.693 0.83,-0.096 1.352,-0.031 1.081,0.013 2.268,0.307 0.612,0.415 0.933,0.298 0.33,0.088 1.244,0.083 0.928,-0.032 0.834,0.045 1.546,0.22 1.37,0.272 1.965,0.612"
     id="Tehama"
     inkscape:connector-curvature="0" />
  <path
     style="font-size:12px;fill:#d0d0d0;fill-rule:nonzero;stroke:#000000;stroke-width:1;stroke-linecap:butt;stroke-linejoin:bevel;stroke-miterlimit:4;stroke-opacity:1;stroke-dasharray:none;marker-start:none"
     d="m 3.8078612,27.470877 4.511,1.347 -0.094,0.307 5.7549998,1.683 0.045,0.138 -0.031,0.418 -0.104,0.235 -0.347,0.203 -0.293,0.596 0,0.58 0.041,0.064 -0.298,2.865 -0.058,0.186 -0.172,0.441 -0.486,0.028 -0.835,-0.276 -0.414,0.085 -0.279,0.609 -0.077,0.195 -0.108,0.359 0.054,1.773 -0.086,0.54 -0.419,0.468 -0.4279998,0.131 -0.221,0.415 -0.221,0.519 -0.054,0.184 -0.022,0.109 0.167,0.739 0.554,1.455 0.2479998,0.398 0.82,0.931 -2.4749998,-0.752 -2.92,-0.239 -1.334,-0.014 -0.388,0.024 -0.46,-0.824 -0.689,-1.49 0.55,-5.677 0.031,-0.221 0.022,-0.1 0.186,-0.463 0.216,-0.474 0.225,-0.328 0.126,-0.186 0.172,-0.179 0.063,-0.086 0.036,-0.05 0.009,-0.01 0.225,-0.347 0.018,-0.09 0.194,-1.297 0.031,-0.321 -0.004,-2.009 -0.009,-0.033 -0.433,-1.153 -0.238,-0.622 -0.302,-0.784"
     id="Mendocino"
     inkscape:connector-curvature="0" />
  <path
     style="font-size:12px;fill:#d0d0d0;fill-rule:nonzero;stroke:#000000;stroke-width:1;stroke-linecap:butt;stroke-linejoin:bevel;stroke-miterlimit:4;stroke-opacity:1;stroke-dasharray:none;marker-start:none"
     d="m 12.365861,11.312877 1.479,0.437 0.18,0.257 -0.072,2.519 -0.158,0.154 -0.166,0.225 -0.298,0.59 -0.018,0.42 0.049,0.085 -0.049,0.627 -0.707,0.721 -0.312,0.275 -1.041,0.838 -0.293,1.492 -2.6409998,8.865 -4.511,-1.347 -0.217,-0.382 -1.915,-3.656 -0.059,-0.162 0.243,-2.335 0.032,-0.059 0.82,-1.181 0.577,-0.744 0.221,-0.248 0.397,-0.423 0.59,-0.573 0.694,-0.739 0.384,-0.405 0.292,-0.352 0.384,-0.554 0.418,-0.735 0.204,-0.469 -0.05,-0.288 1.212,-2.88 0.916,-2.1229997 1.6579998,0.486 1.055,0.343 -0.199,0.6669997 0.374,0.5 0.527,0.154"
     id="Humboldt"
     inkscape:connector-curvature="0" />
  <path
     style="font-size:12px;fill:#d0d0d0;fill-rule:nonzero;stroke:#000000;stroke-width:1;stroke-linecap:butt;stroke-linejoin:bevel;stroke-miterlimit:4;stroke-opacity:1;stroke-dasharray:none;marker-start:none"
     d="m 13.952861,14.525877 0.46,0.37 0.442,0.428 0.712,1.068 1.298,1.37 0.757,0.384 0.185,0.027 0.216,-0.171 0.117,-0.208 -0.086,-0.599 1.411,-1.461 2.024,-0.797 1.14,0.703 -0.234,1.311 0.19,0.135 0.157,0.171 0.027,0.122 -0.14,0.51 -0.067,0.113 -0.09,0.13 -1.087,0.965 -0.356,0.13 -0.063,0.009 -2.587,3.146 -1.659,2.092 -1.541,0.712 -1.172,0.951 -0.14,0.46 0.609,0.693 0.049,0.111 -0.008,0.133 -0.122,0.576 -0.05,0.045 -0.184,0.65 -0.212,1.762 0.031,0.241 -5.7549998,-1.683 0.094,-0.307 2.6409998,-8.865 0.293,-1.492 1.041,-0.838 0.312,-0.275 0.707,-0.721 0.049,-0.627 -0.049,-0.085 0.018,-0.42 0.298,-0.59 0.166,-0.225 0.158,-0.154"
     id="Trinity"
     inkscape:connector-curvature="0" />
  <path
     style="font-size:12px;fill:#d0d0d0;fill-rule:nonzero;stroke:#000000;stroke-width:1;stroke-linecap:butt;stroke-linejoin:bevel;stroke-miterlimit:4;stroke-opacity:1;stroke-dasharray:none;marker-start:none"
     d="m 32.174861,19.682877 1.068,0.283 -0.892,3.295 -0.018,0.433 -1.203,4.354 -0.374,1.185 -1.596,-0.442 -1.965,-0.612 -1.37,-0.272 -1.546,-0.22 -0.834,-0.045 -0.928,0.032 -1.244,-0.083 -0.33,-0.088 -0.933,-0.298 -0.612,-0.415 -2.268,-0.307 -1.081,-0.013 -1.352,0.031 -0.83,0.096 0.14,-0.46 1.172,-0.951 1.541,-0.712 1.659,-2.092 2.587,-3.146 0.063,-0.009 0.356,-0.13 1.087,-0.965 0.09,-0.13 0.067,-0.113 0.14,-0.51 -0.027,-0.122 -0.157,-0.171 -0.19,-0.135 1.947,0.523 2.673,0.775 5.16,1.434"
     id="Shasta"
     inkscape:connector-curvature="0" />
  <path
     style="font-size:12px;fill:#d0d0d0;fill-rule:nonzero;stroke:#000000;stroke-width:1;stroke-linecap:butt;stroke-linejoin:bevel;stroke-miterlimit:4;stroke-opacity:1;stroke-dasharray:none;marker-start:none"
     d="m 45.673861,23.265877 -1.028,4.002 -1.158,4.611 -0.581,2.248 -0.185,0.726 -0.005,0.013 -0.631,2.399 -0.973,3.65 -0.198,0.735 -1.438,-0.175 0.536,-0.64 0.482,-1.426 0.095,-0.364 0.009,-0.393 -0.482,-2.09 -0.28,-0.366 -2.19,-2.569 -1.659,-1.243 -0.361,-0.095 -0.346,0.104 -0.978,0.784 -0.082,0.301 -0.202,0.046 -0.356,-0.095 -0.924,-0.824 -0.117,-0.321 0.644,-2.385 -2.51,-0.666 0.374,-1.185 1.203,-4.354 0.018,-0.433 0.892,-3.295 12.431,3.3"
     id="Lassen"
     inkscape:connector-curvature="0" />
  <path
     style="font-size:12px;fill:#d0d0d0;fill-rule:nonzero;stroke:#000000;stroke-width:1;stroke-linecap:butt;stroke-linejoin:bevel;stroke-miterlimit:4;stroke-opacity:1;stroke-dasharray:none;marker-start:none"
     d="m 34.960861,9.4918773 5.219,1.4599997 1.713,0.46 0.013,0.005 3.38,0.897 0.365,0.094 2.66,0.672 -2.637,10.186 -12.431,-3.3 -1.068,-0.283 0.843,-3.079 1.172,-4.354 -0.045,-0.027 -0.014,-0.04 0.492,-1.812 0.089,-0.311 0.249,-0.5679997"
     id="Modoc"
     inkscape:connector-curvature="0" />
</svg>
