<?xml version="1.0" encoding="UTF-8" standalone="no"?>
<!-- Created with Inkscape (http://www.inkscape.org/) -->

<svg
   xmlns:dc="http://purl.org/dc/elements/1.1/"
   xmlns:cc="http://creativecommons.org/ns#"
   xmlns:rdf="http://www.w3.org/1999/02/22-rdf-syntax-ns#"
   xmlns:svg="http://www.w3.org/2000/svg"
   xmlns="http://www.w3.org/2000/svg"
   xmlns:sodipodi="http://sodipodi.sourceforge.net/DTD/sodipodi-0.dtd"
   xmlns:inkscape="http://www.inkscape.org/namespaces/inkscape"
   version="1.0"
   width="64.629997"
   height="43.68"
   sodipodi:version="0.32"
   inkscape:version="0.48.2 r9819"
   sodipodi:docname="ia.svg"
   inkscape:output_extension="org.inkscape.output.svg.inkscape"
   id="svg3092">
  <metadata
     id="metadata3094">
    <rdf:RDF>
      <cc:Work
         rdf:about="">
        <dc:format>image/svg+xml</dc:format>
        <dc:type
           rdf:resource="http://purl.org/dc/dcmitype/StillImage" />
      </cc:Work>
    </rdf:RDF>
  </metadata>
  <defs
     id="defs3096" />
  <sodipodi:namedview
     pagecolor="#ffffff"
     bordercolor="#666666"
     borderopacity="1"
     objecttolerance="10"
     gridtolerance="10"
     guidetolerance="10"
     inkscape:pageopacity="0"
     inkscape:pageshadow="2"
     inkscape:window-width="1366"
     inkscape:window-height="716"
     fit-margin-top="0"
     fit-margin-left="0"
     fit-margin-right="0"
     fit-margin-bottom="0"
     inkscape:zoom="4.5491794"
     inkscape:cx="-12.38473"
     inkscape:cy="11.12307"
     inkscape:window-x="-8"
     inkscape:window-y="-8"
     inkscape:window-maximized="1"
     inkscape:current-layer="svg3092"
     id="namedview3098"
     showgrid="false" />
  <path
     style="font-size:12px;fill:#d0d0d0;fill-rule:nonzero;stroke:#000000;stroke-width:1;stroke-linecap:butt;stroke-linejoin:bevel;stroke-miterlimit:4;stroke-opacity:1;stroke-dasharray:none;marker-start:none"
     d="m 56.540879,24.1914 1.072,-0.058 3.21,-0.091 1.306,0.384 -0.149,1.405 -0.5,0.672 -0.572,0.667 -1.821,0.902 -0.776,0.198 -0.329,0.009 -0.139,-0.018 -1.195,-1.811 -0.107,-2.259"
     id="Scott"
     inkscape:connector-curvature="0" />
  <path
     style="font-size:12px;fill:#d0d0d0;fill-rule:nonzero;stroke:#000000;stroke-width:1;stroke-linecap:butt;stroke-linejoin:bevel;stroke-miterlimit:4;stroke-opacity:1;stroke-dasharray:none;marker-start:none"
     d="m 56.360879,20.7934 7.084,-0.402 0.104,1.349 -0.744,1.928 -0.676,0.758 -1.306,-0.384 -3.21,0.091 -1.072,0.058 -0.122,-2.262 -0.058,-1.136"
     id="Clinton"
     inkscape:connector-curvature="0" />
  <path
     style="font-size:12px;fill:#d0d0d0;fill-rule:nonzero;stroke:#000000;stroke-width:1;stroke-linecap:butt;stroke-linejoin:bevel;stroke-miterlimit:4;stroke-opacity:1;stroke-dasharray:none;marker-start:none"
     d="m 2.1358788,3.0673997 1.36,0.009 3.736,0.013 1.79,0.005 -0.005,3.137 -6.72,-0.05 -0.161,-3.114"
     id="Lyon"
     inkscape:connector-curvature="0" />
  <path
     style="font-size:12px;fill:#d0d0d0;fill-rule:nonzero;stroke:#000000;stroke-width:1;stroke-linecap:butt;stroke-linejoin:bevel;stroke-miterlimit:4;stroke-opacity:1;stroke-dasharray:none;marker-start:none"
     d="m 2.2968788,6.1813997 6.72,0.05 0.032,4.5120013 -6.251,-0.01 0.653,-2.2540013 0.149,-0.397 0.027,-0.089 -0.361,-1.298 -0.089,-0.042 -0.672,-0.003 -0.208,-0.469"
     id="Sioux"
     inkscape:connector-curvature="0" />
  <path
     style="font-size:12px;fill:#d0d0d0;fill-rule:nonzero;stroke:#000000;stroke-width:1;stroke-linecap:butt;stroke-linejoin:bevel;stroke-miterlimit:4;stroke-opacity:1;stroke-dasharray:none;marker-start:none"
     d="m 9.0488788,10.7434 0,4.515 -5.864,-0.014 -0.342,-0.901 -0.244,-0.392 -0.311,-0.289 -0.247,-0.189 0.378,-1.73 0.379,-1.01 6.251,0.01"
     id="Plymouth"
     inkscape:connector-curvature="0" />
  <path
     style="font-size:12px;fill:#d0d0d0;fill-rule:nonzero;stroke:#000000;stroke-width:1;stroke-linecap:butt;stroke-linejoin:bevel;stroke-miterlimit:4;stroke-opacity:1;stroke-dasharray:none;marker-start:none"
     d="m 13.488879,10.7194 0.031,4.512 -3.348,0.019 -1.1230002,0.008 0,-4.515 4.4400002,-0.024"
     id="Cherokee"
     inkscape:connector-curvature="0" />
  <path
     style="font-size:12px;fill:#d0d0d0;fill-rule:nonzero;stroke:#000000;stroke-width:1;stroke-linecap:butt;stroke-linejoin:bevel;stroke-miterlimit:4;stroke-opacity:1;stroke-dasharray:none;marker-start:none"
     d="m 9.0168788,6.2313997 4.4440002,0.013 0.028,4.4750013 -4.4400002,0.024 -0.032,-4.5120013"
     id="O'Brien"
     inkscape:connector-curvature="0" />
  <path
     style="font-size:12px;fill:#d0d0d0;fill-rule:nonzero;stroke:#000000;stroke-width:1;stroke-linecap:butt;stroke-linejoin:bevel;stroke-miterlimit:4;stroke-opacity:1;stroke-dasharray:none;marker-start:none"
     d="m 12.821879,3.0713997 0.622,0 0.017,3.173 -4.4440002,-0.013 0.005,-3.137 3.8000002,-0.023"
     id="Osceola"
     inkscape:connector-curvature="0" />
  <path
     style="font-size:12px;fill:#d0d0d0;fill-rule:nonzero;stroke:#000000;stroke-width:1;stroke-linecap:butt;stroke-linejoin:bevel;stroke-miterlimit:4;stroke-opacity:1;stroke-dasharray:none;marker-start:none"
     d="m 13.443879,3.0713997 4.412,-0.04 0.049,3.172 -4.444,0.041 -0.017,-3.173"
     id="Dickinson"
     inkscape:connector-curvature="0" />
  <path
     style="font-size:12px;fill:#d0d0d0;fill-rule:nonzero;stroke:#000000;stroke-width:1;stroke-linecap:butt;stroke-linejoin:bevel;stroke-miterlimit:4;stroke-opacity:1;stroke-dasharray:none;marker-start:none"
     d="m 13.460879,6.2443997 4.444,-0.041 0.05,4.4760013 -4.466,0.04 -0.028,-4.4750013"
     id="Clay"
     inkscape:connector-curvature="0" />
  <path
     style="font-size:12px;fill:#d0d0d0;fill-rule:nonzero;stroke:#000000;stroke-width:1;stroke-linecap:butt;stroke-linejoin:bevel;stroke-miterlimit:4;stroke-opacity:1;stroke-dasharray:none;marker-start:none"
     d="m 17.954879,10.6794 0.045,4.529 -4.48,0.023 -0.031,-4.512 4.466,-0.04"
     id="Buena Vista"
     inkscape:connector-curvature="0" />
  <path
     style="font-size:12px;fill:#d0d0d0;fill-rule:nonzero;stroke:#000000;stroke-width:1;stroke-linecap:butt;stroke-linejoin:bevel;stroke-miterlimit:4;stroke-opacity:1;stroke-dasharray:none;marker-start:none"
     d="m 17.954879,10.6794 4.435,-0.04 0.054,3.411 0.023,1.113 -4.467,0.045 -0.045,-4.529"
     id="Pocahontas"
     inkscape:connector-curvature="0" />
  <path
     style="font-size:12px;fill:#d0d0d0;fill-rule:nonzero;stroke:#000000;stroke-width:1;stroke-linecap:butt;stroke-linejoin:bevel;stroke-miterlimit:4;stroke-opacity:1;stroke-dasharray:none;marker-start:none"
     d="m 22.312879,6.1453997 0.077,4.4940013 -4.435,0.04 -0.05,-4.4760013 4.408,-0.058"
     id="Palo Alto"
     inkscape:connector-curvature="0" />
  <path
     style="font-size:12px;fill:#d0d0d0;fill-rule:nonzero;stroke:#000000;stroke-width:1;stroke-linecap:butt;stroke-linejoin:bevel;stroke-miterlimit:4;stroke-opacity:1;stroke-dasharray:none;marker-start:none"
     d="m 22.263879,2.9673997 0.049,3.178 -4.408,0.058 -0.049,-3.172 0.568,-0.009 3.84,-0.055"
     id="Emmet"
     inkscape:connector-curvature="0" />
  <path
     style="font-size:12px;fill:#d0d0d0;fill-rule:nonzero;stroke:#000000;stroke-width:1;stroke-linecap:butt;stroke-linejoin:bevel;stroke-miterlimit:4;stroke-opacity:1;stroke-dasharray:none;marker-start:none"
     d="m 26.671879,2.8953997 0.072,3.164 0.085,4.5030013 -4.439,0.077 -0.077,-4.4940013 -0.049,-3.178 1.826,-0.031 2.582,-0.041"
     id="Kossuth"
     inkscape:connector-curvature="0" />
  <path
     style="font-size:12px;fill:#d0d0d0;fill-rule:nonzero;stroke:#000000;stroke-width:1;stroke-linecap:butt;stroke-linejoin:bevel;stroke-miterlimit:4;stroke-opacity:1;stroke-dasharray:none;marker-start:none"
     d="m 22.389879,10.6394 4.439,-0.077 0.073,3.407 -4.458,0.081 -0.054,-3.411"
     id="Humboldt"
     inkscape:connector-curvature="0" />
  <path
     style="font-size:12px;fill:#d0d0d0;fill-rule:nonzero;stroke:#000000;stroke-width:1;stroke-linecap:butt;stroke-linejoin:bevel;stroke-miterlimit:4;stroke-opacity:1;stroke-dasharray:none;marker-start:none"
     d="m 9.0488788,15.2584 1.1230002,-0.008 0.004,0.938 0.37,0.183 0.31,0 0,3.416 -6.5220002,-0.048 0.118,-0.798 -0.289,-0.541 -0.112,-1.484 0.067,-0.179 -0.004,-0.199 -0.04,-0.149 -0.1,-0.139 -0.126,-0.049 -0.324,-0.023 -0.339,-0.934 5.864,0.014"
     id="Woodbury"
     inkscape:connector-curvature="0" />
  <path
     style="font-size:12px;fill:#d0d0d0;fill-rule:nonzero;stroke:#000000;stroke-width:1;stroke-linecap:butt;stroke-linejoin:bevel;stroke-miterlimit:4;stroke-opacity:1;stroke-dasharray:none;marker-start:none"
     d="m 13.519879,15.2314 0.009,1.127 0.617,-0.005 0.014,3.427 -3.304,0.007 0,-3.416 -0.31,0 -0.37,-0.183 -0.004,-0.938 3.348,-0.019"
     id="Ida"
     inkscape:connector-curvature="0" />
  <path
     style="font-size:12px;fill:#d0d0d0;fill-rule:nonzero;stroke:#000000;stroke-width:1;stroke-linecap:butt;stroke-linejoin:bevel;stroke-miterlimit:4;stroke-opacity:1;stroke-dasharray:none;marker-start:none"
     d="m 13.519879,15.2314 4.48,-0.023 0.009,1.115 0.55,0 0.027,3.429 -2.213,0.014 -2.213,0.014 -0.014,-3.427 -0.617,0.005 -0.009,-1.127"
     id="Sac"
     inkscape:connector-curvature="0" />
  <path
     style="font-size:12px;fill:#d0d0d0;fill-rule:nonzero;stroke:#000000;stroke-width:1;stroke-linecap:butt;stroke-linejoin:bevel;stroke-miterlimit:4;stroke-opacity:1;stroke-dasharray:none;marker-start:none"
     d="m 17.999879,15.2084 4.467,-0.045 0.014,1.109 0.432,-0.004 0.059,3.426 -2.2,0.031 -2.186,0.027 -0.027,-3.429 -0.55,0 -0.009,-1.115"
     id="Calhoun"
     inkscape:connector-curvature="0" />
  <path
     style="font-size:12px;fill:#d0d0d0;fill-rule:nonzero;stroke:#000000;stroke-width:1;stroke-linecap:butt;stroke-linejoin:bevel;stroke-miterlimit:4;stroke-opacity:1;stroke-dasharray:none;marker-start:none"
     d="m 26.901879,13.9694 0.045,2.236 0.379,-0.004 0.076,3.393 -2.217,0.051 -2.213,0.049 -0.059,-3.426 -0.432,0.004 -0.014,-1.109 -0.023,-1.113 4.458,-0.081"
     id="Webster"
     inkscape:connector-curvature="0" />
  <path
     style="font-size:12px;fill:#d0d0d0;fill-rule:nonzero;stroke:#000000;stroke-width:1;stroke-linecap:butt;stroke-linejoin:bevel;stroke-miterlimit:4;stroke-opacity:1;stroke-dasharray:none;marker-start:none"
     d="m 22.971879,19.6944 2.213,-0.049 0.094,4.497 -1.114,0.021 -3.33,0.06 -0.063,-4.498 2.2,-0.031"
     id="Greene"
     inkscape:connector-curvature="0" />
  <path
     style="font-size:12px;fill:#d0d0d0;fill-rule:nonzero;stroke:#000000;stroke-width:1;stroke-linecap:butt;stroke-linejoin:bevel;stroke-miterlimit:4;stroke-opacity:1;stroke-dasharray:none;marker-start:none"
     d="m 18.585879,19.7524 2.186,-0.027 0.063,4.498 -1.109,0.018 -3.326,0.027 -0.027,-4.502 2.213,-0.014"
     id="Carroll"
     inkscape:connector-curvature="0" />
  <path
     style="font-size:12px;fill:#d0d0d0;fill-rule:nonzero;stroke:#000000;stroke-width:1;stroke-linecap:butt;stroke-linejoin:bevel;stroke-miterlimit:4;stroke-opacity:1;stroke-dasharray:none;marker-start:none"
     d="m 16.372879,19.7664 0.027,4.502 -4.439,0.027 -1.105,0.009 0,-4.517 3.304,-0.007 2.213,-0.014"
     id="Crawford"
     inkscape:connector-curvature="0" />
  <path
     style="font-size:12px;fill:#d0d0d0;fill-rule:nonzero;stroke:#000000;stroke-width:1;stroke-linecap:butt;stroke-linejoin:bevel;stroke-miterlimit:4;stroke-opacity:1;stroke-dasharray:none;marker-start:none"
     d="m 10.855879,19.7874 0,4.517 -4.4660002,-0.031 -1.267,-2.353 -0.789,-2.181 6.5220002,0.048"
     id="Monona"
     inkscape:connector-curvature="0" />
  <path
     style="font-size:12px;fill:#d0d0d0;fill-rule:nonzero;stroke:#000000;stroke-width:1;stroke-linecap:butt;stroke-linejoin:bevel;stroke-miterlimit:4;stroke-opacity:1;stroke-dasharray:none;marker-start:none"
     d="m 11.960879,24.2954 0.004,3.394 0.577,-0.005 0.005,1.249 -4.6420002,0 -1.344,-2.28 -0.171,-2.38 4.4660002,0.031 1.105,-0.009"
     id="Harrison"
     inkscape:connector-curvature="0" />
  <path
     style="font-size:12px;fill:#d0d0d0;fill-rule:nonzero;stroke:#000000;stroke-width:1;stroke-linecap:butt;stroke-linejoin:bevel;stroke-miterlimit:4;stroke-opacity:1;stroke-dasharray:none;marker-start:none"
     d="m 11.960879,24.2954 4.439,-0.027 0.031,3.389 0.501,-0.004 0.014,1.261 -1.1,0.006 -3.299,0.013 -0.005,-1.249 -0.577,0.005 -0.004,-3.394"
     id="Shelby"
     inkscape:connector-curvature="0" />
  <path
     style="font-size:12px;fill:#d0d0d0;fill-rule:nonzero;stroke:#000000;stroke-width:1;stroke-linecap:butt;stroke-linejoin:bevel;stroke-miterlimit:4;stroke-opacity:1;stroke-dasharray:none;marker-start:none"
     d="m 16.399879,24.2684 3.326,-0.027 0.045,2.807 0.425,0.563 0.017,1.273 -3.267,0.03 -0.014,-1.261 -0.501,0.004 -0.031,-3.389"
     id="Audubon"
     inkscape:connector-curvature="0" />
  <path
     style="font-size:12px;fill:#d0d0d0;fill-rule:nonzero;stroke:#000000;stroke-width:1;stroke-linecap:butt;stroke-linejoin:bevel;stroke-miterlimit:4;stroke-opacity:1;stroke-dasharray:none;marker-start:none"
     d="m 20.834879,24.2234 3.33,-0.06 0.064,3.395 0.374,0 0.022,1.263 -4.412,0.063 -0.017,-1.273 -0.425,-0.563 -0.045,-2.807 1.109,-0.018"
     id="Guthrie"
     inkscape:connector-curvature="0" />
  <path
     style="font-size:12px;fill:#d0d0d0;fill-rule:nonzero;stroke:#000000;stroke-width:1;stroke-linecap:butt;stroke-linejoin:bevel;stroke-miterlimit:4;stroke-opacity:1;stroke-dasharray:none;marker-start:none"
     d="m 24.624879,28.8214 0.082,4.497 -2.213,0.032 -2.217,0.027 -0.064,-4.493 4.412,-0.063"
     id="Adair"
     inkscape:connector-curvature="0" />
  <path
     style="font-size:12px;fill:#d0d0d0;fill-rule:nonzero;stroke:#000000;stroke-width:1;stroke-linecap:butt;stroke-linejoin:bevel;stroke-miterlimit:4;stroke-opacity:1;stroke-dasharray:none;marker-start:none"
     d="m 20.212879,28.8844 0.064,4.493 -2.196,0.023 -2.204,0.012 -0.031,-4.492 1.1,-0.006 3.267,-0.03"
     id="Cass"
     inkscape:connector-curvature="0" />
  <path
     style="font-size:12px;fill:#d0d0d0;fill-rule:nonzero;stroke:#000000;stroke-width:1;stroke-linecap:butt;stroke-linejoin:bevel;stroke-miterlimit:4;stroke-opacity:1;stroke-dasharray:none;marker-start:none"
     d="m 12.546879,28.9334 3.299,-0.013 0.031,4.492 -2.195,0.018 -4.5380002,0.01 -0.676,-0.406 -0.144,-2.623 -0.419,-1.478 4.6420002,0"
     id="Pottawattamie"
     inkscape:connector-curvature="0" />
  <path
     style="font-size:12px;fill:#d0d0d0;fill-rule:nonzero;stroke:#000000;stroke-width:1;stroke-linecap:butt;stroke-linejoin:bevel;stroke-miterlimit:4;stroke-opacity:1;stroke-dasharray:none;marker-start:none"
     d="m 9.4418788,36.7934 4.2440002,-0.018 0.014,1.749 0.113,1.452 0.009,0.968 -3.813,-0.04 -0.8700002,-2.579 0.303,-1.532"
     id="Fremont"
     inkscape:connector-curvature="0" />
  <path
     style="font-size:12px;fill:#d0d0d0;fill-rule:nonzero;stroke:#000000;stroke-width:1;stroke-linecap:butt;stroke-linejoin:bevel;stroke-miterlimit:4;stroke-opacity:1;stroke-dasharray:none;marker-start:none"
     d="m 13.681879,33.4304 0.004,3.345 -4.2440002,0.018 -0.429,-1.884 0.131,-1.469 4.5380002,-0.01"
     id="Mills"
     inkscape:connector-curvature="0" />
  <path
     style="font-size:12px;fill:#d0d0d0;fill-rule:nonzero;stroke:#000000;stroke-width:1;stroke-linecap:butt;stroke-linejoin:bevel;stroke-miterlimit:4;stroke-opacity:1;stroke-dasharray:none;marker-start:none"
     d="m 15.876879,33.4124 2.204,-0.012 0.027,3.347 -4.422,0.028 -0.004,-3.345 2.195,-0.018"
     id="Montgomery"
     inkscape:connector-curvature="0" />
  <path
     style="font-size:12px;fill:#d0d0d0;fill-rule:nonzero;stroke:#000000;stroke-width:1;stroke-linecap:butt;stroke-linejoin:bevel;stroke-miterlimit:4;stroke-opacity:1;stroke-dasharray:none;marker-start:none"
     d="m 18.107879,36.7474 0.028,2.25 0.148,0 0.009,1.979 -2.803,-0.018 -1.668,-0.014 -0.009,-0.968 -0.113,-1.452 -0.014,-1.749 4.422,-0.028"
     id="Page"
     inkscape:connector-curvature="0" />
  <path
     style="font-size:12px;fill:#d0d0d0;fill-rule:nonzero;stroke:#000000;stroke-width:1;stroke-linecap:butt;stroke-linejoin:bevel;stroke-miterlimit:4;stroke-opacity:1;stroke-dasharray:none;marker-start:none"
     d="m 22.547879,36.7034 0.063,4.268 -1.563,0.019 -2.755,-0.014 -0.009,-1.979 -0.148,0 -0.028,-2.25 4.44,-0.044"
     id="Taylor"
     inkscape:connector-curvature="0" />
  <path
     style="font-size:12px;fill:#d0d0d0;fill-rule:nonzero;stroke:#000000;stroke-width:1;stroke-linecap:butt;stroke-linejoin:bevel;stroke-miterlimit:4;stroke-opacity:1;stroke-dasharray:none;marker-start:none"
     d="m 22.493879,33.3504 0.054,3.353 -4.44,0.044 -0.027,-3.347 2.196,-0.023 2.217,-0.027"
     id="Adams"
     inkscape:connector-curvature="0" />
  <path
     style="font-size:12px;fill:#d0d0d0;fill-rule:nonzero;stroke:#000000;stroke-width:1;stroke-linecap:butt;stroke-linejoin:bevel;stroke-miterlimit:4;stroke-opacity:1;stroke-dasharray:none;marker-start:none"
     d="m 24.706879,33.3184 2.195,-0.036 0.067,3.372 -4.421,0.049 -0.054,-3.353 2.213,-0.032"
     id="Union"
     inkscape:connector-curvature="0" />
  <path
     style="font-size:12px;fill:#d0d0d0;fill-rule:nonzero;stroke:#000000;stroke-width:1;stroke-linecap:butt;stroke-linejoin:bevel;stroke-miterlimit:4;stroke-opacity:1;stroke-dasharray:none;marker-start:none"
     d="m 22.547879,36.7034 4.421,-0.049 0.077,4.196 -2.109,0.066 -2.326,0.055 -0.063,-4.268"
     id="Ringgold"
     inkscape:connector-curvature="0" />
  <path
     style="font-size:12px;fill:#d0d0d0;fill-rule:nonzero;stroke:#000000;stroke-width:1;stroke-linecap:butt;stroke-linejoin:bevel;stroke-miterlimit:4;stroke-opacity:1;stroke-dasharray:none;marker-start:none"
     d="m 26.968879,36.6544 4.435,-0.118 0.104,4.128 -2.114,0.087 -2.348,0.099 -0.077,-4.196"
     id="Decatur"
     inkscape:connector-curvature="0" />
  <path
     style="font-size:12px;fill:#d0d0d0;fill-rule:nonzero;stroke:#000000;stroke-width:1;stroke-linecap:butt;stroke-linejoin:bevel;stroke-miterlimit:4;stroke-opacity:1;stroke-dasharray:none;marker-start:none"
     d="m 31.309879,33.1194 0.094,3.417 -4.435,0.118 -0.067,-3.372 2.172,-0.117 2.236,-0.046"
     id="Clarke"
     inkscape:connector-curvature="0" />
  <path
     style="font-size:12px;fill:#d0d0d0;fill-rule:nonzero;stroke:#000000;stroke-width:1;stroke-linecap:butt;stroke-linejoin:bevel;stroke-miterlimit:4;stroke-opacity:1;stroke-dasharray:none;marker-start:none"
     d="m 28.956879,28.6214 0.117,4.544 -2.172,0.117 -2.195,0.036 -0.082,-4.497 4.332,-0.2"
     id="Madison"
     inkscape:connector-curvature="0" />
  <path
     style="font-size:12px;fill:#d0d0d0;fill-rule:nonzero;stroke:#000000;stroke-width:1;stroke-linecap:butt;stroke-linejoin:bevel;stroke-miterlimit:4;stroke-opacity:1;stroke-dasharray:none;marker-start:none"
     d="m 28.605879,24.0654 0.081,2.848 0.238,0.564 0.032,1.144 -4.332,0.2 -0.022,-1.263 -0.374,0 -0.064,-3.395 1.114,-0.021 3.327,-0.077"
     id="Dallas"
     inkscape:connector-curvature="0" />
  <path
     style="font-size:12px;fill:#d0d0d0;fill-rule:nonzero;stroke:#000000;stroke-width:1;stroke-linecap:butt;stroke-linejoin:bevel;stroke-miterlimit:4;stroke-opacity:1;stroke-dasharray:none;marker-start:none"
     d="m 29.619879,19.5534 0.113,4.485 -1.127,0.027 -3.327,0.077 -0.094,-4.497 2.217,-0.051 2.218,-0.041"
     id="Boone"
     inkscape:connector-curvature="0" />
  <path
     style="font-size:12px;fill:#d0d0d0;fill-rule:nonzero;stroke:#000000;stroke-width:1;stroke-linecap:butt;stroke-linejoin:bevel;stroke-miterlimit:4;stroke-opacity:1;stroke-dasharray:none;marker-start:none"
     d="m 31.394879,14.9934 0.464,4.505 -2.239,0.055 -2.218,0.041 -0.076,-3.393 -0.379,0.004 -0.022,-1.113 4.47,-0.099"
     id="Hamilton"
     inkscape:connector-curvature="0" />
  <path
     style="font-size:12px;fill:#d0d0d0;fill-rule:nonzero;stroke:#000000;stroke-width:1;stroke-linecap:butt;stroke-linejoin:bevel;stroke-miterlimit:4;stroke-opacity:1;stroke-dasharray:none;marker-start:none"
     d="m 26.828879,10.5624 4.454,-0.117 0.112,4.548 -4.47,0.099 -0.023,-1.123 -0.073,-3.407"
     id="Wright"
     inkscape:connector-curvature="0" />
  <path
     style="font-size:12px;fill:#d0d0d0;fill-rule:nonzero;stroke:#000000;stroke-width:1;stroke-linecap:butt;stroke-linejoin:bevel;stroke-miterlimit:4;stroke-opacity:1;stroke-dasharray:none;marker-start:none"
     d="m 31.174879,5.9513997 0.108,4.4940013 -4.454,0.117 -0.085,-4.5030013 4.431,-0.108"
     id="Hancock"
     inkscape:connector-curvature="0" />
  <path
     style="font-size:12px;fill:#d0d0d0;fill-rule:nonzero;stroke:#000000;stroke-width:1;stroke-linecap:butt;stroke-linejoin:bevel;stroke-miterlimit:4;stroke-opacity:1;stroke-dasharray:none;marker-start:none"
     d="m 31.093879,2.7913997 0.081,3.16 -4.431,0.108 -0.072,-3.164 3.006,-0.068 1.416,-0.036"
     id="Winnebago"
     inkscape:connector-curvature="0" />
  <path
     style="font-size:12px;fill:#d0d0d0;fill-rule:nonzero;stroke:#000000;stroke-width:1;stroke-linecap:butt;stroke-linejoin:bevel;stroke-miterlimit:4;stroke-opacity:1;stroke-dasharray:none;marker-start:none"
     d="m 35.505879,2.6603997 0.103,3.161 -4.434,0.13 -0.081,-3.16 4.182,-0.121 0.23,-0.01"
     id="Worth"
     inkscape:connector-curvature="0" />
  <path
     style="font-size:12px;fill:#d0d0d0;fill-rule:nonzero;stroke:#000000;stroke-width:1;stroke-linecap:butt;stroke-linejoin:bevel;stroke-miterlimit:4;stroke-opacity:1;stroke-dasharray:none;marker-start:none"
     d="m 31.174879,5.9513997 4.434,-0.13 0.018,0.554 0.113,3.9480013 -4.457,0.122 -0.108,-4.4940013"
     id="Cerro Gordo"
     inkscape:connector-curvature="0" />
  <path
     style="font-size:12px;fill:#d0d0d0;fill-rule:nonzero;stroke:#000000;stroke-width:1;stroke-linecap:butt;stroke-linejoin:bevel;stroke-miterlimit:4;stroke-opacity:1;stroke-dasharray:none;marker-start:none"
     d="m 31.282879,10.4454 4.457,-0.122 0.126,4.552 -4.471,0.118 -0.112,-4.548"
     id="Franklin"
     inkscape:connector-curvature="0" />
  <path
     style="font-size:12px;fill:#d0d0d0;fill-rule:nonzero;stroke:#000000;stroke-width:1;stroke-linecap:butt;stroke-linejoin:bevel;stroke-miterlimit:4;stroke-opacity:1;stroke-dasharray:none;marker-start:none"
     d="m 35.865879,14.8754 0.384,4.493 -2.191,0.073 -2.2,0.057 -0.464,-4.505 4.471,-0.118"
     id="Hardin"
     inkscape:connector-curvature="0" />
  <path
     style="font-size:12px;fill:#d0d0d0;fill-rule:nonzero;stroke:#000000;stroke-width:1;stroke-linecap:butt;stroke-linejoin:bevel;stroke-miterlimit:4;stroke-opacity:1;stroke-dasharray:none;marker-start:none"
     d="m 34.058879,19.4414 0.13,4.489 -1.108,0.026 -3.348,0.082 -0.113,-4.485 2.239,-0.055 2.2,-0.057"
     id="Story"
     inkscape:connector-curvature="0" />
  <path
     style="font-size:12px;fill:#d0d0d0;fill-rule:nonzero;stroke:#000000;stroke-width:1;stroke-linecap:butt;stroke-linejoin:bevel;stroke-miterlimit:4;stroke-opacity:1;stroke-dasharray:none;marker-start:none"
     d="m 33.080879,23.9564 0.311,4.608 0.008,0.207 -4.443,-0.15 -0.032,-1.144 -0.238,-0.564 -0.081,-2.848 1.127,-0.027 3.348,-0.082"
     id="Polk"
     inkscape:connector-curvature="0" />
  <path
     style="font-size:12px;fill:#d0d0d0;fill-rule:nonzero;stroke:#000000;stroke-width:1;stroke-linecap:butt;stroke-linejoin:bevel;stroke-miterlimit:4;stroke-opacity:1;stroke-dasharray:none;marker-start:none"
     d="m 33.399879,28.7714 0.126,4.294 -2.216,0.054 -2.236,0.046 -0.117,-4.544 4.443,0.15"
     id="Warren"
     inkscape:connector-curvature="0" />
  <path
     style="font-size:12px;fill:#d0d0d0;fill-rule:nonzero;stroke:#000000;stroke-width:1;stroke-linecap:butt;stroke-linejoin:bevel;stroke-miterlimit:4;stroke-opacity:1;stroke-dasharray:none;marker-start:none"
     d="m 33.525879,33.0654 2.21,-0.063 0.116,3.404 -4.448,0.13 -0.094,-3.417 2.216,-0.054"
     id="Lucas"
     inkscape:connector-curvature="0" />
  <path
     style="font-size:12px;fill:#d0d0d0;fill-rule:nonzero;stroke:#000000;stroke-width:1;stroke-linecap:butt;stroke-linejoin:bevel;stroke-miterlimit:4;stroke-opacity:1;stroke-dasharray:none;marker-start:none"
     d="m 35.851879,36.4064 0.131,4.084 -2.695,0.125 -1.78,0.049 -0.104,-4.128 4.448,-0.13"
     id="Wayne"
     inkscape:connector-curvature="0" />
  <path
     style="font-size:12px;fill:#d0d0d0;fill-rule:nonzero;stroke:#000000;stroke-width:1;stroke-linecap:butt;stroke-linejoin:bevel;stroke-miterlimit:4;stroke-opacity:1;stroke-dasharray:none;marker-start:none"
     d="m 40.292879,36.2524 0.157,4.002 -0.744,0.041 -3.723,0.195 -0.131,-4.084 4.441,-0.154"
     id="Appanoose"
     inkscape:connector-curvature="0" />
  <path
     style="font-size:12px;fill:#d0d0d0;fill-rule:nonzero;stroke:#000000;stroke-width:1;stroke-linecap:butt;stroke-linejoin:bevel;stroke-miterlimit:4;stroke-opacity:1;stroke-dasharray:none;marker-start:none"
     d="m 40.160879,32.8504 0.132,3.402 -4.441,0.154 -0.116,-3.404 2.213,-0.072 2.212,-0.08"
     id="Monroe"
     inkscape:connector-curvature="0" />
  <path
     style="font-size:12px;fill:#d0d0d0;fill-rule:nonzero;stroke:#000000;stroke-width:1;stroke-linecap:butt;stroke-linejoin:bevel;stroke-miterlimit:4;stroke-opacity:1;stroke-dasharray:none;marker-start:none"
     d="m 37.785879,28.4194 0.163,4.511 -2.213,0.072 -2.21,0.063 -0.126,-4.294 -0.008,-0.207 4.394,-0.145"
     id="Marion"
     inkscape:connector-curvature="0" />
  <path
     style="font-size:12px;fill:#d0d0d0;fill-rule:nonzero;stroke:#000000;stroke-width:1;stroke-linecap:butt;stroke-linejoin:bevel;stroke-miterlimit:4;stroke-opacity:1;stroke-dasharray:none;marker-start:none"
     d="m 34.188879,23.9304 4.448,-0.135 0.249,4.583 -1.1,0.041 -4.394,0.145 -0.311,-4.608 1.108,-0.026"
     id="Jasper"
     inkscape:connector-curvature="0" />
  <path
     style="font-size:12px;fill:#d0d0d0;fill-rule:nonzero;stroke:#000000;stroke-width:1;stroke-linecap:butt;stroke-linejoin:bevel;stroke-miterlimit:4;stroke-opacity:1;stroke-dasharray:none;marker-start:none"
     d="m 36.249879,19.3684 2.221,-0.081 0.166,4.508 -4.448,0.135 -0.13,-4.489 2.191,-0.073"
     id="Marshall"
     inkscape:connector-curvature="0" />
  <path
     style="font-size:12px;fill:#d0d0d0;fill-rule:nonzero;stroke:#000000;stroke-width:1;stroke-linecap:butt;stroke-linejoin:bevel;stroke-miterlimit:4;stroke-opacity:1;stroke-dasharray:none;marker-start:none"
     d="m 40.345879,14.7364 0.307,3.342 -2.21868,0.0875 0.0367,1.12148 -2.221,0.081 -0.384,-4.493 4.48,-0.139"
     id="Grundy"
     sodipodi:nodetypes="ccccccc"
     inkscape:connector-curvature="0" />
  <path
     style="font-size:12px;fill:#d0d0d0;fill-rule:nonzero;stroke:#000000;stroke-width:1;stroke-linecap:butt;stroke-linejoin:bevel;stroke-miterlimit:4;stroke-opacity:1;stroke-dasharray:none;marker-start:none"
     d="m 35.739879,10.3234 4.431,-0.139 0.122,3.43 0.053,1.122 -4.48,0.139 -0.126,-4.552"
     id="Butler"
     inkscape:connector-curvature="0" />
  <path
     style="font-size:12px;fill:#d0d0d0;fill-rule:nonzero;stroke:#000000;stroke-width:1;stroke-linecap:butt;stroke-linejoin:bevel;stroke-miterlimit:4;stroke-opacity:1;stroke-dasharray:none;marker-start:none"
     d="m 35.626879,6.3753997 4.399,-0.149 0.145,3.9580013 -4.431,0.139 -0.113,-3.9480013"
     id="Floyd"
     inkscape:connector-curvature="0" />
  <path
     style="font-size:12px;fill:#d0d0d0;fill-rule:nonzero;stroke:#000000;stroke-width:1;stroke-linecap:butt;stroke-linejoin:bevel;stroke-miterlimit:4;stroke-opacity:1;stroke-dasharray:none;marker-start:none"
     d="m 39.904879,2.5033997 0.121,3.723 -4.399,0.149 -0.121,-3.715 4.399,-0.157"
     id="Mitchcell"
     inkscape:connector-curvature="0" />
  <path
     style="font-size:12px;fill:#d0d0d0;fill-rule:nonzero;stroke:#000000;stroke-width:1;stroke-linecap:butt;stroke-linejoin:bevel;stroke-miterlimit:4;stroke-opacity:1;stroke-dasharray:none;marker-start:none"
     d="m 40.878879,2.4673997 3.438,-0.14 0.149,3.723 -4.44,0.176 -0.121,-3.723 0.974,-0.036"
     id="Howard"
     inkscape:connector-curvature="0" />
  <path
     style="font-size:12px;fill:#d0d0d0;fill-rule:nonzero;stroke:#000000;stroke-width:1;stroke-linecap:butt;stroke-linejoin:bevel;stroke-miterlimit:4;stroke-opacity:1;stroke-dasharray:none;marker-start:none"
     d="m 44.465879,6.0503997 0.062,1.687 0.091,2.2750013 -4.448,0.172 -0.145,-3.9580013 4.44,-0.176"
     id="Chickasaw"
     inkscape:connector-curvature="0" />
  <path
     style="font-size:12px;fill:#d0d0d0;fill-rule:nonzero;stroke:#000000;stroke-width:1;stroke-linecap:butt;stroke-linejoin:bevel;stroke-miterlimit:4;stroke-opacity:1;stroke-dasharray:none;marker-start:none"
     d="m 40.170879,10.1844 4.448,-0.172 0.141,3.43 -4.467,0.172 -0.122,-3.43"
     id="Bremer"
     inkscape:connector-curvature="0" />
  <path
     style="font-size:12px;fill:#d0d0d0;fill-rule:nonzero;stroke:#000000;stroke-width:1;stroke-linecap:butt;stroke-linejoin:bevel;stroke-miterlimit:4;stroke-opacity:1;stroke-dasharray:none;marker-start:none"
     d="m 44.759879,13.4424 0.097,2.259 0.177,0.288 0.072,1.916 -2.222,0.086 -2.231,0.087 -0.307,-3.342 -0.053,-1.122 4.467,-0.172"
     id="Black Hawk"
     inkscape:connector-curvature="0" />
  <path
     style="font-size:12px;fill:#d0d0d0;fill-rule:nonzero;stroke:#000000;stroke-width:1;stroke-linecap:butt;stroke-linejoin:bevel;stroke-miterlimit:4;stroke-opacity:1;stroke-dasharray:none;marker-start:none"
     d="m 42.883879,17.9914 0.225,5.636 -4.472,0.168 -0.20642,-5.63034 4.45342,-0.17366"
     sodipodi:nodetypes="ccccc"
     id="Tama"
     inkscape:connector-curvature="0" />
  <path
     style="font-size:12px;fill:#d0d0d0;fill-rule:nonzero;stroke:#000000;stroke-width:1;stroke-linecap:butt;stroke-linejoin:bevel;stroke-miterlimit:4;stroke-opacity:1;stroke-dasharray:none;marker-start:none"
     d="m 38.636879,23.7954 4.472,-0.168 0.186,4.58 -1.101,0.045 -3.308,0.126 -0.249,-4.583"
     id="Poweshiek"
     inkscape:connector-curvature="0" />
  <path
     style="font-size:12px;fill:#d0d0d0;fill-rule:nonzero;stroke:#000000;stroke-width:1;stroke-linecap:butt;stroke-linejoin:bevel;stroke-miterlimit:4;stroke-opacity:1;stroke-dasharray:none;marker-start:none"
     d="m 38.885879,28.3784 3.308,-0.126 0.19,4.508 -2.223,0.09 -2.212,0.08 -0.163,-4.511 1.1,-0.041"
     id="Mahaska"
     inkscape:connector-curvature="0" />
  <path
     style="font-size:12px;fill:#d0d0d0;fill-rule:nonzero;stroke:#000000;stroke-width:1;stroke-linecap:butt;stroke-linejoin:bevel;stroke-miterlimit:4;stroke-opacity:1;stroke-dasharray:none;marker-start:none"
     d="m 42.383879,32.7604 2.222,-0.096 0.144,3.412 -4.457,0.176 -0.132,-3.402 2.223,-0.09"
     id="Wapello"
     inkscape:connector-curvature="0" />
  <path
     style="font-size:12px;fill:#d0d0d0;fill-rule:nonzero;stroke:#000000;stroke-width:1;stroke-linecap:butt;stroke-linejoin:bevel;stroke-miterlimit:4;stroke-opacity:1;stroke-dasharray:none;marker-start:none"
     d="m 44.749879,36.0764 0.148,3.881 -1.658,0.108 -2.79,0.189 -0.157,-4.002 4.457,-0.176"
     id="Davis"
     inkscape:connector-curvature="0" />
  <path
     style="font-size:12px;fill:#d0d0d0;fill-rule:nonzero;stroke:#000000;stroke-width:1;stroke-linecap:butt;stroke-linejoin:bevel;stroke-miterlimit:4;stroke-opacity:1;stroke-dasharray:none;marker-start:none"
     d="m 44.749879,36.0764 4.462,-0.207 0.046,1.136 0.147,2.784 -2.208,0.006 -2.299,0.162 -0.148,-3.881"
     id="Van Buren"
     inkscape:connector-curvature="0" />
  <path
     style="font-size:12px;fill:#d0d0d0;fill-rule:nonzero;stroke:#000000;stroke-width:1;stroke-linecap:butt;stroke-linejoin:bevel;stroke-miterlimit:4;stroke-opacity:1;stroke-dasharray:none;marker-start:none"
     d="m 49.080879,32.4714 0.131,3.398 -4.462,0.207 -0.144,-3.412 2.257,-0.108 2.218,-0.085"
     id="Jefferson"
     inkscape:connector-curvature="0" />
  <path
     style="font-size:12px;fill:#d0d0d0;fill-rule:nonzero;stroke:#000000;stroke-width:1;stroke-linecap:butt;stroke-linejoin:bevel;stroke-miterlimit:4;stroke-opacity:1;stroke-dasharray:none;marker-start:none"
     d="m 47.322879,17.7874 0.244,5.669 -4.458,0.171 -0.225,-5.636 2.222,-0.086 2.217,-0.118"
     id="Benton"
     inkscape:connector-curvature="0" />
  <path
     style="font-size:12px;fill:#d0d0d0;fill-rule:nonzero;stroke:#000000;stroke-width:1;stroke-linecap:butt;stroke-linejoin:bevel;stroke-miterlimit:4;stroke-opacity:1;stroke-dasharray:none;marker-start:none"
     d="m 43.108879,23.6274 4.458,-0.171 0.22,4.538 -1.117,0.06 -3.375,0.153 -0.186,-4.58"
     id="Iowa"
     inkscape:connector-curvature="0" />
  <path
     style="font-size:12px;fill:#d0d0d0;fill-rule:nonzero;stroke:#000000;stroke-width:1;stroke-linecap:butt;stroke-linejoin:bevel;stroke-miterlimit:4;stroke-opacity:1;stroke-dasharray:none;marker-start:none"
     d="m 43.294879,28.2074 3.375,-0.153 0.193,4.502 -2.257,0.108 -2.222,0.096 -0.19,-4.508 1.101,-0.045"
     id="Keokuk"
     inkscape:connector-curvature="0" />
  <path
     style="font-size:12px;fill:#d0d0d0;fill-rule:nonzero;stroke:#000000;stroke-width:1;stroke-linecap:butt;stroke-linejoin:bevel;stroke-miterlimit:4;stroke-opacity:1;stroke-dasharray:none;marker-start:none"
     d="m 47.786879,27.9944 2.966,-0.129 0.158,0.225 0.248,0.888 0.14,3.393 -2.218,0.1 -2.218,0.085 -0.193,-4.502 1.117,-0.06"
     id="Washington"
     inkscape:connector-curvature="0" />
  <path
     style="font-size:12px;fill:#d0d0d0;fill-rule:nonzero;stroke:#000000;stroke-width:1;stroke-linecap:butt;stroke-linejoin:bevel;stroke-miterlimit:4;stroke-opacity:1;stroke-dasharray:none;marker-start:none"
     d="m 51.298879,32.3714 1.167,1.091 -0.207,3.412 -3.001,0.131 -0.046,-1.136 -0.131,-3.398 2.218,-0.1"
     id="Henry"
     inkscape:connector-curvature="0" />
  <path
     style="font-size:12px;fill:#d0d0d0;fill-rule:nonzero;stroke:#000000;stroke-width:1;stroke-linecap:butt;stroke-linejoin:bevel;stroke-miterlimit:4;stroke-opacity:1;stroke-dasharray:none;marker-start:none"
     d="m 49.257879,37.0054 3.001,-0.131 2.957,1.366 -0.677,0.794 -0.315,0.008 -0.257,0.019 -0.077,0.004 -0.004,0 -0.51,0.179 -0.014,0.009 -0.058,0.033 -0.244,0.139 -0.086,0.054 -0.03,0.033 -0.036,0.035 -0.036,0.041 -0.41,0.63 -0.015,0.096 0.032,0.108 0.199,0.094 0.162,0.235 0.054,0.157 0.008,0.13 -0.026,1.16 -0.004,0.008 -0.023,0.113 -0.103,0.086 -0.014,0.008 -0.298,0.105 -0.639,-0.046 -0.407,-0.329 -0.982,-1.208 -0.036,-0.09 0.032,-0.262 -0.023,-0.085 -0.771,-0.582 -0.203,-0.127 -0.147,-2.784"
     id="Lee"
     inkscape:connector-curvature="0" />
  <path
     style="font-size:12px;fill:#d0d0d0;fill-rule:nonzero;stroke:#000000;stroke-width:1;stroke-linecap:butt;stroke-linejoin:bevel;stroke-miterlimit:4;stroke-opacity:1;stroke-dasharray:none;marker-start:none"
     d="m 56.535879,33.2734 0.009,0.032 0.036,0.112 0.049,0.348 -0.039,1.05 -0.082,0.383 -0.054,0.081 -0.279,0.158 -0.104,0.102 -0.753,1.074 -0.036,0.167 -0.067,1.46 -2.957,-1.366 0.207,-3.412 4.07,-0.189"
     id="Des Moines"
     inkscape:connector-curvature="0" />
  <path
     style="font-size:12px;fill:#d0d0d0;fill-rule:nonzero;stroke:#000000;stroke-width:1;stroke-linecap:butt;stroke-linejoin:bevel;stroke-miterlimit:4;stroke-opacity:1;stroke-dasharray:none;marker-start:none"
     d="m 51.158879,28.9784 1.109,-0.045 0.049,1.131 2.785,-0.108 0,0.004 -0.275,1.101 0.01,0.107 0.004,0.009 0.653,0.785 0.308,0.153 0.129,-0.018 0.078,0.036 0.082,0.085 0.454,0.744 -0.009,0.311 -4.07,0.189 -1.167,-1.091 -0.14,-3.393"
     id="Louisa"
     inkscape:connector-curvature="0" />
  <path
     style="font-size:12px;fill:#d0d0d0;fill-rule:nonzero;stroke:#000000;stroke-width:1;stroke-linecap:butt;stroke-linejoin:bevel;stroke-miterlimit:4;stroke-opacity:1;stroke-dasharray:none;marker-start:none"
     d="m 56.647879,26.4504 1.195,1.811 -0.59,0.005 -1.352,0.369 -0.362,0.131 -0.103,0.067 -0.009,0.005 0,0.004 -0.068,0.096 -0.009,0.025 -0.134,0.551 -0.114,0.442 -2.785,0.108 -0.049,-1.131 -0.09,-2.272 4.47,-0.211"
     id="Muscatine"
     inkscape:connector-curvature="0" />
  <path
     style="font-size:12px;fill:#d0d0d0;fill-rule:nonzero;stroke:#000000;stroke-width:1;stroke-linecap:butt;stroke-linejoin:bevel;stroke-miterlimit:4;stroke-opacity:1;stroke-dasharray:none;marker-start:none"
     d="m 52.014879,23.2724 0.163,3.389 0.09,2.272 -1.109,0.045 -0.248,-0.888 -0.158,-0.225 -2.966,0.129 -0.22,-4.538 4.448,-0.184"
     id="Johnson"
     inkscape:connector-curvature="0" />
  <path
     style="font-size:12px;fill:#d0d0d0;fill-rule:nonzero;stroke:#000000;stroke-width:1;stroke-linecap:butt;stroke-linejoin:bevel;stroke-miterlimit:4;stroke-opacity:1;stroke-dasharray:none;marker-start:none"
     d="m 51.766879,17.6164 0.195,4.525 0.053,1.131 -4.448,0.184 -0.244,-5.669 2.227,-0.064 2.217,-0.107"
     id="Linn"
     inkscape:connector-curvature="0" />
  <path
     style="font-size:12px;fill:#d0d0d0;fill-rule:nonzero;stroke:#000000;stroke-width:1;stroke-linecap:butt;stroke-linejoin:bevel;stroke-miterlimit:4;stroke-opacity:1;stroke-dasharray:none;marker-start:none"
     d="m 56.418879,21.9294 0.122,2.262 0.107,2.259 -4.47,0.211 -0.216,-4.52 4.457,-0.212"
     id="Cedar"
     inkscape:connector-curvature="0" />
  <path
     style="font-size:12px;fill:#d0d0d0;fill-rule:nonzero;stroke:#000000;stroke-width:1;stroke-linecap:butt;stroke-linejoin:bevel;stroke-miterlimit:4;stroke-opacity:1;stroke-dasharray:none;marker-start:none"
     d="m 53.979879,17.5124 2.199,-0.109 0.182,3.39 0.058,1.136 -4.457,0.212 -0.195,-4.525 2.213,-0.104"
     id="Jones"
     inkscape:connector-curvature="0" />
  <path
     style="font-size:12px;fill:#d0d0d0;fill-rule:nonzero;stroke:#000000;stroke-width:1;stroke-linecap:butt;stroke-linejoin:bevel;stroke-miterlimit:4;stroke-opacity:1;stroke-dasharray:none;marker-start:none"
     d="m 49.242879,13.2254 0.027,0.983 0.063,1.28 0.163,1.239 0.054,0.996 -2.227,0.064 -2.217,0.118 -0.072,-1.916 -0.177,-0.288 -0.097,-2.259 4.483,-0.217"
     id="Buchanan"
     inkscape:connector-curvature="0" />
  <path
     style="font-size:12px;fill:#d0d0d0;fill-rule:nonzero;stroke:#000000;stroke-width:1;stroke-linecap:butt;stroke-linejoin:bevel;stroke-miterlimit:4;stroke-opacity:1;stroke-dasharray:none;marker-start:none"
     d="m 44.527879,7.7373997 4.473,-0.182 0.242,5.6700013 -4.483,0.217 -0.141,-3.43 -0.091,-2.2750013"
     id="Fayette"
     inkscape:connector-curvature="0" />
  <path
     style="font-size:12px;fill:#d0d0d0;fill-rule:nonzero;stroke:#000000;stroke-width:1;stroke-linecap:butt;stroke-linejoin:bevel;stroke-miterlimit:4;stroke-opacity:1;stroke-dasharray:none;marker-start:none"
     d="m 48.693879,2.1383997 0.094,2.051 0.068,-0.005 0.145,3.371 -4.473,0.182 -0.062,-1.687 -0.149,-3.723 3.264,-0.139 1.113,-0.05"
     id="Winneshiek"
     inkscape:connector-curvature="0" />
  <path
     style="font-size:12px;fill:#d0d0d0;fill-rule:nonzero;stroke:#000000;stroke-width:1;stroke-linecap:butt;stroke-linejoin:bevel;stroke-miterlimit:4;stroke-opacity:1;stroke-dasharray:none;marker-start:none"
     d="m 52.361879,1.9623997 0.162,0.996 -0.009,0.663 1.001,0.704 0.217,0.275 0.283,0.455 -0.036,0.161 -0.72,1.213 -0.245,0.951 -4.014,0.175 -0.145,-3.371 -0.068,0.005 -0.094,-2.051 3.668,-0.176"
     id="Allamakee"
     inkscape:connector-curvature="0" />
  <path
     style="font-size:12px;fill:#d0d0d0;fill-rule:nonzero;stroke:#000000;stroke-width:1;stroke-linecap:butt;stroke-linejoin:bevel;stroke-miterlimit:4;stroke-opacity:1;stroke-dasharray:none;marker-start:none"
     d="m 53.014879,7.3803997 0.2,1.226 0.211,0.986 0.861,1.9120013 0.117,0.243 0.761,0.505 0.262,0.121 0.496,0.118 -2.204,0.492 -4.476,0.242 -0.242,-5.6700013 4.014,-0.175"
     id="Clayton"
     inkscape:connector-curvature="0" />
  <path
     style="font-size:12px;fill:#d0d0d0;fill-rule:nonzero;stroke:#000000;stroke-width:1;stroke-linecap:butt;stroke-linejoin:bevel;stroke-miterlimit:4;stroke-opacity:1;stroke-dasharray:none;marker-start:none"
     d="m 49.242879,13.2254 4.476,-0.242 0.261,4.529 -2.213,0.104 -2.217,0.107 -0.054,-0.996 -0.163,-1.239 -0.063,-1.28 -0.027,-0.983"
     id="Delaware"
     inkscape:connector-curvature="0" />
  <path
     style="font-size:12px;fill:#d0d0d0;fill-rule:nonzero;stroke:#000000;stroke-width:1;stroke-linecap:butt;stroke-linejoin:bevel;stroke-miterlimit:4;stroke-opacity:1;stroke-dasharray:none;marker-start:none"
     d="m 53.718879,12.9834 2.204,-0.492 1.221,0.234 0.473,0.113 0.108,0.053 0.068,0.068 0.6,1.091 0.103,0.325 0.006,0.073 -0.036,0.062 -0.132,0.226 -0.004,0.03 0.009,0.072 0.022,0.065 0.077,0.08 0.22,0.158 0.637,0.329 0.81,0.564 0.004,0.004 0.024,0.023 -1.803,0.094 0.059,1.135 -2.21,0.113 -2.199,0.109 -0.261,-4.529"
     id="Dubuque"
     inkscape:connector-curvature="0" />
  <path
     style="font-size:12px;fill:#d0d0d0;fill-rule:nonzero;stroke:#000000;stroke-width:1;stroke-linecap:butt;stroke-linejoin:bevel;stroke-miterlimit:4;stroke-opacity:1;stroke-dasharray:none;marker-start:none"
     d="m 60.132879,16.0614 0.567,0.657 0.027,0.042 0.005,0.049 -0.054,0.365 -0.054,0.121 0,0.082 0.132,0.297 0.007,0.014 0.271,0.338 0.009,0.008 0.163,0.131 0.175,0.113 0.397,0.127 1.667,1.986 -7.084,0.402 -0.182,-3.39 2.21,-0.113 -0.059,-1.135 1.803,-0.094"
     id="Jackson"
     inkscape:connector-curvature="0" />
</svg>
