<?xml version="1.0" encoding="UTF-8" standalone="no"?>
<!-- Created with Inkscape (http://www.inkscape.org/) -->

<svg
   xmlns:dc="http://purl.org/dc/elements/1.1/"
   xmlns:cc="http://creativecommons.org/ns#"
   xmlns:rdf="http://www.w3.org/1999/02/22-rdf-syntax-ns#"
   xmlns:svg="http://www.w3.org/2000/svg"
   xmlns="http://www.w3.org/2000/svg"
   xmlns:sodipodi="http://sodipodi.sourceforge.net/DTD/sodipodi-0.dtd"
   xmlns:inkscape="http://www.inkscape.org/namespaces/inkscape"
   version="1.0"
   width="70.5"
   height="45.310001"
   sodipodi:version="0.32"
   inkscape:version="0.48.2 r9819"
   sodipodi:docname="nd.svg"
   inkscape:output_extension="org.inkscape.output.svg.inkscape"
   id="svg3046">
  <metadata
     id="metadata3048">
    <rdf:RDF>
      <cc:Work
         rdf:about="">
        <dc:format>image/svg+xml</dc:format>
        <dc:type
           rdf:resource="http://purl.org/dc/dcmitype/StillImage" />
      </cc:Work>
    </rdf:RDF>
  </metadata>
  <sodipodi:namedview
     inkscape:window-height="746"
     inkscape:window-width="1366"
     inkscape:pageshadow="2"
     inkscape:pageopacity="0.0"
     guidetolerance="10.0"
     gridtolerance="10.0"
     objecttolerance="10.0"
     borderopacity="1.0"
     bordercolor="#666666"
     pagecolor="#ffffff"
     inkscape:zoom="3.6572918"
     inkscape:cx="86.711469"
     inkscape:cy="22.109477"
     inkscape:window-x="-8"
     inkscape:window-y="-8"
     inkscape:current-layer="svg3046"
     showguides="true"
     inkscape:guide-bbox="true"
     fit-margin-top="0"
     fit-margin-left="0"
     fit-margin-right="0"
     fit-margin-bottom="0"
     inkscape:window-maximized="0"
     id="namedview3050"
     showgrid="false" />
  <defs
     id="defs3052" />
  <path
     style="font-size:12px;fill:#d0d0d0;fill-rule:nonzero;stroke:#000000;stroke-width:1;stroke-linecap:butt;stroke-linejoin:bevel;stroke-miterlimit:4;stroke-opacity:1;stroke-dasharray:none;marker-start:none"
     d="m 61.523485,26.76294 5.463,0.086 0.045,1.118 0.013,1.631 0.374,1.226 0.109,0.298 -0.172,2.803 0.005,0.722 0,0.004 -4.43,-0.036 -3.579,-0.063 0.081,-4.48 -0.189,-1.303 0.031,-2.055 2.249,0.049"
     id="Cass"
     inkscape:connector-curvature="0" />
  <path
     style="font-size:12px;fill:#d0d0d0;fill-rule:nonzero;stroke:#000000;stroke-width:1;stroke-linecap:butt;stroke-linejoin:bevel;stroke-miterlimit:4;stroke-opacity:1;stroke-dasharray:none;marker-start:none"
     d="m 67.360485,34.65094 0.383,1.113 1.239,2.984 0.343,2.704 0.027,0.226 -0.018,0.261 -0.022,0.081 -0.167,0.469 0.122,1.118 -5.991,-0.059 -0.189,-0.78 -0.072,-0.798 0.041,-2.888 -0.19,-0.005 0.064,-4.462 4.43,0.036"
     id="Richland"
     inkscape:connector-curvature="0" />
  <path
     style="font-size:12px;fill:#d0d0d0;fill-rule:nonzero;stroke:#000000;stroke-width:1;stroke-linecap:butt;stroke-linejoin:bevel;stroke-miterlimit:4;stroke-opacity:1;stroke-dasharray:none;marker-start:none"
     d="m 22.469485,5.1699384 -1.117,-0.076 -0.776,1.063 -0.148,2.2180004 -5.63,-0.3970004 0.081,-1.104 0.081,-1.113 -0.468,-0.032 0.27,-3.543 7.87,0.541 -0.163,2.443"
     id="Burke"
     inkscape:connector-curvature="0" />
  <path
     style="font-size:12px;fill:#d0d0d0;fill-rule:nonzero;stroke:#000000;stroke-width:1;stroke-linecap:butt;stroke-linejoin:bevel;stroke-miterlimit:4;stroke-opacity:1;stroke-dasharray:none;marker-start:none"
     d="m 5.2574845,1.4249384 9.5050005,0.761 -0.27,3.543 0.468,0.032 -0.081,1.113 -10.0100005,-0.798 0.388,-4.651"
     id="Divide"
     inkscape:connector-curvature="0" />
  <path
     style="font-size:12px;fill:#d0d0d0;fill-rule:nonzero;stroke:#000000;stroke-width:1;stroke-linecap:butt;stroke-linejoin:bevel;stroke-miterlimit:4;stroke-opacity:1;stroke-dasharray:none;marker-start:none"
     d="m 4.8694845,6.0759384 10.0100005,0.798 -0.081,1.104 -0.153,2.2130006 0.496,0.031 -0.234,3.178001 -0.366,-0.194 -1.982,-0.27 -0.884,0.076 -0.108,0.077 -0.226,0.235 -0.157,0.216 -0.005,0.022 0.018,0.028 0.131,0.058 0.072,0.077 0.004,0.054 -0.018,0.072 -0.067,0.072 -0.406,0.149 -0.595,0.162 -1.2620005,0.234 -0.112,-0.009 -0.455,-0.401 -0.195,-0.324 -0.022,-0.397 -0.153,-0.293 -0.568,-0.189 -0.18,0.036 -0.176,0.09 -0.27,0.207 -0.005,0.059 0.027,0.058 0.18,0.176 -0.252,0.37 -0.766,0.586 -0.55,0.302 -0.307,0.063 -1.041,-0.604 0.401,-5.0120012 0.257,-3.1100004"
     id="Williams"
     inkscape:connector-curvature="0" />
  <path
     style="font-size:12px;fill:#d0d0d0;fill-rule:nonzero;stroke:#000000;stroke-width:1;stroke-linecap:butt;stroke-linejoin:bevel;stroke-miterlimit:4;stroke-opacity:1;stroke-dasharray:none;marker-start:none"
     d="m 20.428485,8.3749388 2.254,0.126 0.301,2.2580002 -0.279,4.453001 0.248,0.766 0.054,1.501 -4.489,-0.288 -0.077,1.144 -2.181,-0.991 -0.036,-0.041 -0.018,-0.063 -0.037,-0.378 0.023,-0.181 0.086,-0.338 0.031,-0.063 0.311,-0.374 0.19,-0.117 0.144,-0.131 0.13,-0.176 0.113,-0.229 0.005,-0.068 -0.028,-0.041 -1.243,-1.216 -0.65,-0.479 -0.373,-0.049 0.234,-3.178001 -0.496,-0.031 0.153,-2.2130006 5.63,0.3970004"
     id="Mountrail"
     inkscape:connector-curvature="0" />
  <path
     style="font-size:12px;fill:#d0d0d0;fill-rule:nonzero;stroke:#000000;stroke-width:1;stroke-linecap:butt;stroke-linejoin:bevel;stroke-miterlimit:4;stroke-opacity:1;stroke-dasharray:none;marker-start:none"
     d="m 14.907485,13.39994 0.373,0.049 0.65,0.479 1.243,1.216 0.028,0.041 -0.005,0.068 -0.113,0.229 -0.13,0.176 -0.144,0.131 -0.19,0.117 -0.311,0.374 -0.031,0.063 -0.086,0.338 -0.023,0.181 0.037,0.378 0.018,0.063 0.036,0.041 -0.14,1.911 -3.998,-0.298 -0.324,4.418 -4.9900005,-0.393 -3.326,-0.288 0.077,-0.861 0.653,-7.635 1.041,0.604 0.307,-0.063 0.55,-0.302 0.766,-0.586 0.252,-0.37 -0.18,-0.176 -0.027,-0.058 0.005,-0.059 0.27,-0.207 0.176,-0.09 0.18,-0.036 0.568,0.189 0.153,0.293 0.022,0.397 0.195,0.324 0.455,0.401 0.112,0.009 1.2620005,-0.234 0.595,-0.162 0.406,-0.149 0.067,-0.072 0.018,-0.072 -0.004,-0.054 -0.072,-0.077 -0.131,-0.058 -0.018,-0.028 0.005,-0.022 0.157,-0.216 0.226,-0.235 0.108,-0.077 0.884,-0.076 1.982,0.27 0.366,0.194"
     id="McKenzie"
     inkscape:connector-curvature="0" />
  <path
     style="font-size:12px;fill:#d0d0d0;fill-rule:nonzero;stroke:#000000;stroke-width:1;stroke-linecap:butt;stroke-linejoin:bevel;stroke-miterlimit:4;stroke-opacity:1;stroke-dasharray:none;marker-start:none"
     d="m 18.440485,18.33494 0.288,-0.428 0.063,-0.059 0.064,-0.031 0.126,0.023 0.477,0.212 0.091,0.058 0.022,0.068 -0.004,0.081 -0.036,0.094 -0.149,1.781 0.018,0.063 0.036,0.054 0.429,0.532 -0.208,3.155 0.536,0.031 -0.266,4.07 -3.366,-0.225 -0.023,0.369 -4.489,-0.306 0.333,-4.458 -0.585,-0.044 0.324,-4.418 3.998,0.298 0.14,-1.911 2.181,0.991"
     id="Dunn"
     inkscape:connector-curvature="0" />
  <path
     style="font-size:12px;fill:#d0d0d0;fill-rule:nonzero;stroke:#000000;stroke-width:1;stroke-linecap:butt;stroke-linejoin:bevel;stroke-miterlimit:4;stroke-opacity:1;stroke-dasharray:none;marker-start:none"
     d="m 19.927485,28.03894 0.402,0.401 -0.212,3.376 -0.077,1.109 -7.392,-0.492 -2.6990005,-0.202 0.3470005,-4.485 1.753,0.131 4.489,0.306 0.023,-0.369 3.366,0.225"
     id="Stark"
     inkscape:connector-curvature="0" />
  <path
     style="font-size:12px;fill:#d0d0d0;fill-rule:nonzero;stroke:#000000;stroke-width:1;stroke-linecap:butt;stroke-linejoin:bevel;stroke-miterlimit:4;stroke-opacity:1;stroke-dasharray:none;marker-start:none"
     d="m 6.8074845,22.98194 -0.365,4.467 0.51,0.041 -0.356,4.483 -1.704,-0.139 -0.095,1.14 -2.172,-0.184 0.108,-1.29 0.748,-8.806 3.326,0.288"
     id="Golden Valley"
     inkscape:connector-curvature="0" />
  <path
     style="font-size:12px;fill:#d0d0d0;fill-rule:nonzero;stroke:#000000;stroke-width:1;stroke-linecap:butt;stroke-linejoin:bevel;stroke-miterlimit:4;stroke-opacity:1;stroke-dasharray:none;marker-start:none"
     d="m 6.8074845,22.98194 4.9900005,0.393 0.585,0.044 -0.333,4.458 -1.753,-0.131 -0.3470005,4.485 -3.353,-0.258 0.356,-4.483 -0.51,-0.041 0.365,-4.467"
     id="Billings"
     inkscape:connector-curvature="0" />
  <path
     style="font-size:12px;fill:#d0d0d0;fill-rule:nonzero;stroke:#000000;stroke-width:1;stroke-linecap:butt;stroke-linejoin:bevel;stroke-miterlimit:4;stroke-opacity:1;stroke-dasharray:none;marker-start:none"
     d="m 11.720485,36.86794 -0.32,4.305 -9.4240005,-0.748 0.36,-4.295 9.3840005,0.738"
     id="Bowman"
     inkscape:connector-curvature="0" />
  <path
     style="font-size:12px;fill:#d0d0d0;fill-rule:nonzero;stroke:#000000;stroke-width:1;stroke-linecap:butt;stroke-linejoin:bevel;stroke-miterlimit:4;stroke-opacity:1;stroke-dasharray:none;marker-start:none"
     d="m 6.5964845,31.97294 3.353,0.258 2.6990005,0.202 -0.297,4.472 -0.631,-0.037 -9.3840005,-0.738 0.289,-3.34 2.172,0.184 0.095,-1.14 1.704,0.139"
     id="Slope"
     inkscape:connector-curvature="0" />
  <path
     style="font-size:12px;fill:#d0d0d0;fill-rule:nonzero;stroke:#000000;stroke-width:1;stroke-linecap:butt;stroke-linejoin:bevel;stroke-miterlimit:4;stroke-opacity:1;stroke-dasharray:none;marker-start:none"
     d="m 20.040485,32.92494 0.406,0.031 -0.018,3.007 0.207,1.555 -0.063,0.928 -4.471,-0.302 0.072,-0.991 -3.822,-0.248 0.297,-4.472 7.392,0.492"
     id="Hettinger"
     inkscape:connector-curvature="0" />
  <path
     style="font-size:12px;fill:#d0d0d0;fill-rule:nonzero;stroke:#000000;stroke-width:1;stroke-linecap:butt;stroke-linejoin:bevel;stroke-miterlimit:4;stroke-opacity:1;stroke-dasharray:none;marker-start:none"
     d="m 11.720485,36.86794 0.631,0.037 3.822,0.248 -0.072,0.991 4.471,0.302 -0.216,3.349 -0.018,0 -8.456,-0.586 -0.482,-0.036 0.32,-4.305"
     id="Adams"
     inkscape:connector-curvature="0" />
  <path
     style="font-size:12px;fill:#d0d0d0;fill-rule:nonzero;stroke:#000000;stroke-width:1;stroke-linecap:butt;stroke-linejoin:bevel;stroke-miterlimit:4;stroke-opacity:1;stroke-dasharray:none;marker-start:none"
     d="m 19.865485,20.78294 0.193,0.099 2.497,0.964 0.572,0.171 0.126,-0.022 0.204,-0.103 0.437,-0.271 0.306,-0.099 2.24,-0.189 0.158,0 0.072,0.032 0.487,0.504 -0.018,0.077 -0.073,0.081 -0.328,0.167 -0.082,0.072 -0.153,0.175 -0.031,0.095 0.013,0.09 0.699,1.947 0.775,0.676 -0.023,0.302 -4.466,-0.261 -0.203,3.331 -2.938,-0.181 -0.402,-0.401 0.266,-4.07 -0.536,-0.031 0.208,-3.155"
     id="Mercer"
     inkscape:connector-curvature="0" />
  <path
     style="font-size:12px;fill:#d0d0d0;fill-rule:nonzero;stroke:#000000;stroke-width:1;stroke-linecap:butt;stroke-linejoin:bevel;stroke-miterlimit:4;stroke-opacity:1;stroke-dasharray:none;marker-start:none"
     d="m 20.117485,31.81594 3.358,0.203 -0.068,1.117 3.732,0.226 -0.189,3.322 2.239,0.121 0.145,1.132 -0.857,0.856 -0.915,0.713 -0.842,0.594 -1.921,0.874 -0.712,0.212 -0.026,-0.004 -0.893,-0.185 -1.335,-0.469 -0.589,-0.198 -0.798,0.068 0.126,-1.952 0.063,-0.928 -0.207,-1.555 0.018,-3.007 -0.406,-0.031 0.077,-1.109"
     id="Grant"
     inkscape:connector-curvature="0" />
  <path
     style="font-size:12px;fill:#d0d0d0;fill-rule:nonzero;stroke:#000000;stroke-width:1;stroke-linecap:butt;stroke-linejoin:bevel;stroke-miterlimit:4;stroke-opacity:1;stroke-dasharray:none;marker-start:none"
     d="m 29.334485,37.93694 0.103,-0.46 0.92,-0.852 0.378,-0.126 0.126,0.113 0.352,0.072 0.911,0.058 0.225,-0.071 0.969,-0.38 0.077,0.154 0.171,0.451 0.063,0.239 0.005,0.387 -0.14,1.177 -0.037,0.121 -0.139,0.284 -0.167,0.171 -0.248,0.37 -0.108,0.257 -0.004,0.149 0.09,0.802 0.036,0.13 0.807,1.565 -2.046,-0.104 -0.203,-0.009 -0.073,-0.005 -1.081,-0.054 -0.816,-0.045 -2.614,-0.144 -0.919,-0.05 -0.523,-0.031 -1.127,-0.063 -1.362,-0.086 -1.293,-0.076 -1.086,-0.068 -0.145,-0.009 -0.022,-0.004 -0.058,-0.005 0.09,-1.397 0.798,-0.068 0.589,0.198 1.335,0.469 0.893,0.185 0.026,0.004 0.712,-0.212 1.921,-0.874 0.842,-0.594 0.915,-0.713 0.857,-0.856"
     id="Sioux"
     inkscape:connector-curvature="0" />
  <path
     style="font-size:12px;fill:#d0d0d0;fill-rule:nonzero;stroke:#000000;stroke-width:1;stroke-linecap:butt;stroke-linejoin:bevel;stroke-miterlimit:4;stroke-opacity:1;stroke-dasharray:none;marker-start:none"
     d="m 20.329485,28.43994 2.938,0.181 7.333,0.392 0.014,0.239 0.203,0.842 0.54,1.988 0.392,0.775 0.438,0.433 0.622,0.315 0.518,0.424 0.172,0.302 0.247,0.55 -0.275,0.415 -0.081,0.162 -0.135,0.572 0.009,0.113 0.054,0.148 -0.969,0.38 -0.225,0.071 -0.911,-0.058 -0.352,-0.072 -0.126,-0.113 -0.378,0.126 -0.92,0.852 -0.103,0.46 -0.145,-1.132 -2.239,-0.121 0.189,-3.322 -3.732,-0.226 0.068,-1.117 -3.358,-0.203 0.212,-3.376"
     id="Morton"
     inkscape:connector-curvature="0" />
  <path
     style="font-size:12px;fill:#d0d0d0;fill-rule:nonzero;stroke:#000000;stroke-width:1;stroke-linecap:butt;stroke-linejoin:bevel;stroke-miterlimit:4;stroke-opacity:1;stroke-dasharray:none;marker-start:none"
     d="m 30.460485,26.77294 0.14,2.24 -7.333,-0.392 0.203,-3.331 4.466,0.261 0.023,-0.302 1.208,-0.297 0.311,-0.027 0.252,0.067 0.203,0.086 0.293,0.225 0.153,0.199 0.032,0.072 0.049,1.199"
     id="Oliver"
     inkscape:connector-curvature="0" />
  <path
     style="font-size:12px;fill:#d0d0d0;fill-rule:nonzero;stroke:#000000;stroke-width:1;stroke-linecap:butt;stroke-linejoin:bevel;stroke-miterlimit:4;stroke-opacity:1;stroke-dasharray:none;marker-start:none"
     d="m 22.469485,5.1699384 0.163,-2.443 4.497,0.266 -0.207,3.557 0.262,2.2350004 3.385,0.198 -0.059,1.1050002 -6.765,-0.3970002 0.198,-3.3220004 -1.541,-0.095 0.067,-1.104"
     id="Renville"
     inkscape:connector-curvature="0" />
  <path
     style="font-size:12px;fill:#d0d0d0;fill-rule:nonzero;stroke:#000000;stroke-width:1;stroke-linecap:butt;stroke-linejoin:bevel;stroke-miterlimit:4;stroke-opacity:1;stroke-dasharray:none;marker-start:none"
     d="m 20.428485,8.3749388 0.148,-2.2180004 0.776,-1.063 1.117,0.076 -0.067,1.104 1.541,0.095 -0.198,3.3220004 6.765,0.3970002 -0.059,1.112 0.203,1.168001 0.005,2.312 0.225,1.01 0.108,0.005 -0.121,2.221 -7.865,-0.437 -0.054,-1.501 -0.248,-0.766 0.279,-4.453001 -0.301,-2.2580002 -2.254,-0.126"
     id="Ward"
     inkscape:connector-curvature="0" />
  <path
     style="font-size:12px;fill:#d0d0d0;fill-rule:nonzero;stroke:#000000;stroke-width:1;stroke-linecap:butt;stroke-linejoin:bevel;stroke-miterlimit:4;stroke-opacity:1;stroke-dasharray:none;marker-start:none"
     d="m 30.871485,17.91594 3.371,0.185 -0.103,2.218 -0.767,-0.037 -0.045,0.654 -0.184,3.782 -0.668,-0.037 -0.113,2.182 -1.902,-0.09 -0.049,-1.199 -0.032,-0.072 -0.153,-0.199 -0.293,-0.225 -0.203,-0.086 -0.252,-0.067 -0.311,0.027 -1.208,0.297 -0.775,-0.676 -0.699,-1.947 -0.013,-0.09 0.031,-0.095 0.153,-0.175 0.082,-0.072 0.328,-0.167 0.073,-0.081 0.018,-0.077 -0.487,-0.504 -0.072,-0.032 -0.158,0 -2.24,0.189 -0.306,0.099 -0.437,0.271 -0.204,0.103 -0.126,0.022 -0.572,-0.171 -2.497,-0.964 -0.193,-0.099 -0.429,-0.532 -0.036,-0.054 -0.018,-0.063 0.149,-1.781 0.036,-0.094 0.004,-0.081 -0.022,-0.068 -0.091,-0.058 -0.477,-0.212 -0.126,-0.023 -0.064,0.031 -0.063,0.059 -0.288,0.428 0.077,-1.144 4.489,0.288 7.865,0.437"
     id="McLean"
     inkscape:connector-curvature="0" />
  <path
     style="font-size:12px;fill:#d0d0d0;fill-rule:nonzero;stroke:#000000;stroke-width:1;stroke-linecap:butt;stroke-linejoin:bevel;stroke-miterlimit:4;stroke-opacity:1;stroke-dasharray:none;marker-start:none"
     d="m 27.129485,2.9929384 11.278,0.577 -0.158,3.57 0.32,0.014 -0.1,2.2120004 -1.131,-0.041 -1.122,-0.049 0.05,-1.1180004 -3.372,-0.171 -2.267,-0.113 -0.058,1.1090004 -3.385,-0.198 -0.262,-2.2350004 0.207,-3.557"
     id="Bottineau"
     inkscape:connector-curvature="0" />
  <path
     style="font-size:12px;fill:#d0d0d0;fill-rule:nonzero;stroke:#000000;stroke-width:1;stroke-linecap:butt;stroke-linejoin:bevel;stroke-miterlimit:4;stroke-opacity:1;stroke-dasharray:none;marker-start:none"
     d="m 37.338485,9.3249388 -0.094,2.2090012 0.157,1.501 -0.018,2.979 0.199,0.753 0.044,1.487 -3.384,-0.153 -3.371,-0.185 0.121,-2.221 -0.108,-0.005 -0.225,-1.01 -0.005,-2.312 -0.203,-1.168001 0.118,-2.2170002 0.058,-1.1090004 2.267,0.113 3.372,0.171 -0.05,1.1180004 1.122,0.049"
     id="McHenry"
     inkscape:connector-curvature="0" />
  <path
     style="font-size:12px;fill:#d0d0d0;fill-rule:nonzero;stroke:#000000;stroke-width:1;stroke-linecap:butt;stroke-linejoin:bevel;stroke-miterlimit:4;stroke-opacity:1;stroke-dasharray:none;marker-start:none"
     d="m 37.626485,18.25394 1.127,0.054 -0.099,2.222 0.32,0.014 -0.189,4.435 -0.708,-0.027 -4.934,-0.234 0.184,-3.782 0.045,-0.654 0.767,0.037 0.103,-2.218 3.384,0.153"
     id="Sheridan"
     inkscape:connector-curvature="0" />
  <path
     style="font-size:12px;fill:#d0d0d0;fill-rule:nonzero;stroke:#000000;stroke-width:1;stroke-linecap:butt;stroke-linejoin:bevel;stroke-miterlimit:4;stroke-opacity:1;stroke-dasharray:none;marker-start:none"
     d="m 38.077485,24.95194 -0.202,4.426 0.351,0.013 -0.248,4.467 -5.169,-0.253 -0.622,-0.315 -0.438,-0.433 -0.392,-0.775 -0.54,-1.988 -0.203,-0.842 -0.014,-0.239 -0.14,-2.24 1.902,0.09 0.113,-2.182 0.668,0.037 4.934,0.234"
     id="Burleigh"
     inkscape:connector-curvature="0" />
  <path
     style="font-size:12px;fill:#d0d0d0;fill-rule:nonzero;stroke:#000000;stroke-width:1;stroke-linecap:butt;stroke-linejoin:bevel;stroke-miterlimit:4;stroke-opacity:1;stroke-dasharray:none;marker-start:none"
     d="m 37.978485,33.85794 1.474,0.067 0.149,4.512 -0.198,4.386 -5.567,-0.271 -0.112,-0.004 -0.807,-1.565 -0.036,-0.13 -0.09,-0.802 0.004,-0.149 0.108,-0.257 0.248,-0.37 0.167,-0.171 0.139,-0.284 0.037,-0.121 0.14,-1.177 -0.005,-0.387 -0.063,-0.239 -0.171,-0.451 -0.077,-0.154 -0.054,-0.148 -0.009,-0.113 0.135,-0.572 0.081,-0.162 0.275,-0.415 -0.247,-0.55 -0.172,-0.302 -0.518,-0.424 5.169,0.253"
     id="Emmons"
     inkscape:connector-curvature="0" />
  <path
     style="font-size:12px;fill:#d0d0d0;fill-rule:nonzero;stroke:#000000;stroke-width:1;stroke-linecap:butt;stroke-linejoin:bevel;stroke-miterlimit:4;stroke-opacity:1;stroke-dasharray:none;marker-start:none"
     d="m 39.601485,38.43694 7.531,0.27 0.307,0.014 -0.163,4.413 -6.413,-0.244 -1.46,-0.067 0.198,-4.386"
     id="McIntosh"
     inkscape:connector-curvature="0" />
  <path
     style="font-size:12px;fill:#d0d0d0;fill-rule:nonzero;stroke:#000000;stroke-width:1;stroke-linecap:butt;stroke-linejoin:bevel;stroke-miterlimit:4;stroke-opacity:1;stroke-dasharray:none;marker-start:none"
     d="m 39.452485,33.92494 4.151,0.176 3.678,0.144 -0.149,4.462 -7.531,-0.27 -0.149,-4.512"
     id="Logan"
     inkscape:connector-curvature="0" />
  <path
     style="font-size:12px;fill:#d0d0d0;fill-rule:nonzero;stroke:#000000;stroke-width:1;stroke-linecap:butt;stroke-linejoin:bevel;stroke-miterlimit:4;stroke-opacity:1;stroke-dasharray:none;marker-start:none"
     d="m 38.077485,24.95194 0.708,0.027 4.868,0.194 -0.167,4.439 0.306,0.009 -0.189,4.48 -4.151,-0.176 -1.474,-0.067 0.248,-4.467 -0.351,-0.013 0.202,-4.426"
     id="Kidder"
     inkscape:connector-curvature="0" />
  <path
     style="font-size:12px;fill:#d0d0d0;fill-rule:nonzero;stroke:#000000;stroke-width:1;stroke-linecap:butt;stroke-linejoin:bevel;stroke-miterlimit:4;stroke-opacity:1;stroke-dasharray:none;marker-start:none"
     d="m 38.753485,18.30794 2.249,0.091 4.494,0.175 -0.072,2.227 0.27,0.013 -0.036,1.091 -0.117,3.335 -1.888,-0.067 -4.868,-0.194 0.189,-4.435 -0.32,-0.014 0.099,-2.222"
     id="Wells"
     inkscape:connector-curvature="0" />
  <path
     style="font-size:12px;fill:#d0d0d0;fill-rule:nonzero;stroke:#000000;stroke-width:1;stroke-linecap:butt;stroke-linejoin:bevel;stroke-miterlimit:4;stroke-opacity:1;stroke-dasharray:none;marker-start:none"
     d="m 38.469485,9.3659388 5.644,0.234 -0.077,2.2180012 -3.07,-0.121 -0.193,4.466 0.315,0.014 -0.086,2.222 -2.249,-0.091 -1.127,-0.054 -0.044,-1.487 -0.199,-0.753 0.018,-2.979 -0.157,-1.501 0.094,-2.2090012 1.131,0.041"
     id="Pierce"
     inkscape:connector-curvature="0" />
  <path
     style="font-size:12px;fill:#d0d0d0;fill-rule:nonzero;stroke:#000000;stroke-width:1;stroke-linecap:butt;stroke-linejoin:bevel;stroke-miterlimit:4;stroke-opacity:1;stroke-dasharray:none;marker-start:none"
     d="m 38.469485,9.3659388 0.1,-2.2120004 -0.32,-0.014 0.158,-3.57 5.642,0.226 -0.139,3.583 0.288,0.008 -0.085,2.2130004 -5.644,-0.234"
     id="Rolette"
     inkscape:connector-curvature="0" />
  <path
     style="font-size:12px;fill:#d0d0d0;fill-rule:nonzero;stroke:#000000;stroke-width:1;stroke-linecap:butt;stroke-linejoin:bevel;stroke-miterlimit:4;stroke-opacity:1;stroke-dasharray:none;marker-start:none"
     d="m 44.049485,3.7959384 4.516,0.153 -0.086,2.294 -0.026,1.293 0.252,0.01 -0.067,2.2170004 -0.077,2.2170012 -1.988,-0.067 -2.537,-0.095 0.077,-2.2180012 0.085,-2.2130004 -0.288,-0.008 0.139,-3.583"
     id="Towner"
     inkscape:connector-curvature="0" />
  <path
     style="font-size:12px;fill:#d0d0d0;fill-rule:nonzero;stroke:#000000;stroke-width:1;stroke-linecap:butt;stroke-linejoin:bevel;stroke-miterlimit:4;stroke-opacity:1;stroke-dasharray:none;marker-start:none"
     d="m 44.036485,11.81794 2.537,0.095 -0.09,2.749 0.063,0.086 1.785,2.005 0.307,-0.067 1.681,0.184 1.081,1.001 0.866,0.041 -0.018,0.878 -6.752,-0.216 -4.494,-0.175 0.086,-2.222 -0.315,-0.014 0.193,-4.466 3.07,0.121"
     id="Benson"
     inkscape:connector-curvature="0" />
  <path
     style="font-size:12px;fill:#d0d0d0;fill-rule:nonzero;stroke:#000000;stroke-width:1;stroke-linecap:butt;stroke-linejoin:bevel;stroke-miterlimit:4;stroke-opacity:1;stroke-dasharray:none;marker-start:none"
     d="m 45.496485,18.57394 6.752,0.216 0.162,2.231 -0.027,1.091 -6.725,-0.207 0.036,-1.091 -0.27,-0.013 0.072,-2.227"
     id="Eddy"
     inkscape:connector-curvature="0" />
  <path
     style="font-size:12px;fill:#d0d0d0;fill-rule:nonzero;stroke:#000000;stroke-width:1;stroke-linecap:butt;stroke-linejoin:bevel;stroke-miterlimit:4;stroke-opacity:1;stroke-dasharray:none;marker-start:none"
     d="m 45.658485,21.90494 6.725,0.207 -0.081,3.34 -6.761,-0.212 0.117,-3.335"
     id="Foster"
     inkscape:connector-curvature="0" />
  <path
     style="font-size:12px;fill:#d0d0d0;fill-rule:nonzero;stroke:#000000;stroke-width:1;stroke-linecap:butt;stroke-linejoin:bevel;stroke-miterlimit:4;stroke-opacity:1;stroke-dasharray:none;marker-start:none"
     d="m 43.653485,25.17294 1.888,0.067 6.761,0.212 0.252,1.109 -0.085,3.349 0.247,0.004 -0.112,4.475 -5.323,-0.144 -3.678,-0.144 0.189,-4.48 -0.306,-0.009 0.167,-4.439"
     id="Stutsman"
     inkscape:connector-curvature="0" />
  <path
     style="font-size:12px;fill:#d0d0d0;fill-rule:nonzero;stroke:#000000;stroke-width:1;stroke-linecap:butt;stroke-linejoin:bevel;stroke-miterlimit:4;stroke-opacity:1;stroke-dasharray:none;marker-start:none"
     d="m 52.604485,34.38894 3.61,0.091 -0.104,4.475 -8.671,-0.234 -0.307,-0.014 0.149,-4.462 5.323,0.144"
     id="LaMoure"
     inkscape:connector-curvature="0" />
  <path
     style="font-size:12px;fill:#d0d0d0;fill-rule:nonzero;stroke:#000000;stroke-width:1;stroke-linecap:butt;stroke-linejoin:bevel;stroke-miterlimit:4;stroke-opacity:1;stroke-dasharray:none;marker-start:none"
     d="m 47.439485,38.72094 8.671,0.234 0.257,0.005 -0.113,4.457 -6.449,-0.193 -2.529,-0.09 0.163,-4.413"
     id="Dickey"
     inkscape:connector-curvature="0" />
  <path
     style="font-size:12px;fill:#d0d0d0;fill-rule:nonzero;stroke:#000000;stroke-width:1;stroke-linecap:butt;stroke-linejoin:bevel;stroke-miterlimit:4;stroke-opacity:1;stroke-dasharray:none;marker-start:none"
     d="m 56.367485,38.95994 6.499,0.117 0.19,0.005 -0.041,2.888 0.072,0.798 0.189,0.78 -6.756,-0.122 -0.266,-0.009 0.113,-4.457"
     id="Sargent"
     inkscape:connector-curvature="0" />
  <path
     style="font-size:12px;fill:#d0d0d0;fill-rule:nonzero;stroke:#000000;stroke-width:1;stroke-linecap:butt;stroke-linejoin:bevel;stroke-miterlimit:4;stroke-opacity:1;stroke-dasharray:none;marker-start:none"
     d="m 56.214485,34.47994 3.137,0.072 3.579,0.063 -0.064,4.462 -6.499,-0.117 -0.257,-0.005 0.104,-4.475"
     id="Ransom"
     inkscape:connector-curvature="0" />
  <path
     style="font-size:12px;fill:#d0d0d0;fill-rule:nonzero;stroke:#000000;stroke-width:1;stroke-linecap:butt;stroke-linejoin:bevel;stroke-miterlimit:4;stroke-opacity:1;stroke-dasharray:none;marker-start:none"
     d="m 57.025485,26.66494 2.249,0.049 -0.031,2.055 0.189,1.303 -0.081,4.48 -3.137,-0.072 -3.61,-0.091 0.112,-4.475 -0.247,-0.004 0.085,-3.349 4.471,0.104"
     id="Barnes"
     inkscape:connector-curvature="0" />
  <path
     style="font-size:12px;fill:#d0d0d0;fill-rule:nonzero;stroke:#000000;stroke-width:1;stroke-linecap:butt;stroke-linejoin:bevel;stroke-miterlimit:4;stroke-opacity:1;stroke-dasharray:none;marker-start:none"
     d="m 56.931485,21.12994 0.094,5.535 -4.471,-0.104 -0.252,-1.109 0.108,-4.431 4.521,0.109"
     id="Griggs"
     inkscape:connector-curvature="0" />
  <path
     style="font-size:12px;fill:#d0d0d0;fill-rule:nonzero;stroke:#000000;stroke-width:1;stroke-linecap:butt;stroke-linejoin:bevel;stroke-miterlimit:4;stroke-opacity:1;stroke-dasharray:none;marker-start:none"
     d="m 56.931485,21.12994 0.897,0.018 3.591,0.068 0.104,5.547 -2.249,-0.049 -2.249,-0.049 -0.094,-5.535"
     id="Steele"
     inkscape:connector-curvature="0" />
  <path
     style="font-size:12px;fill:#d0d0d0;fill-rule:nonzero;stroke:#000000;stroke-width:1;stroke-linecap:butt;stroke-linejoin:bevel;stroke-miterlimit:4;stroke-opacity:1;stroke-dasharray:none;marker-start:none"
     d="m 54.393485,14.38294 3.385,0.076 -0.045,2.227 0.184,0.005 0,0.018 -0.089,4.439 -0.897,-0.018 -4.521,-0.109 -0.162,-2.231 0.018,-0.878 0.04,-1.357 0.897,0.023 0.063,-2.218 1.127,0.023"
     id="Nelson"
     inkscape:connector-curvature="0" />
  <path
     style="font-size:12px;fill:#d0d0d0;fill-rule:nonzero;stroke:#000000;stroke-width:1;stroke-linecap:butt;stroke-linejoin:bevel;stroke-miterlimit:4;stroke-opacity:1;stroke-dasharray:none;marker-start:none"
     d="m 54.280485,9.9249388 -0.04,1.4970012 0.212,0.73 -0.059,2.231 -1.127,-0.023 -0.063,2.218 -0.897,-0.023 -0.04,1.357 -0.866,-0.041 -1.081,-1.001 -1.681,-0.184 -0.307,0.067 -1.785,-2.005 -0.063,-0.086 0.09,-2.749 1.988,0.067 0.077,-2.2170012 5.642,0.162"
     id="Ramsey"
     inkscape:connector-curvature="0" />
  <path
     style="font-size:12px;fill:#d0d0d0;fill-rule:nonzero;stroke:#000000;stroke-width:1;stroke-linecap:butt;stroke-linejoin:bevel;stroke-miterlimit:4;stroke-opacity:1;stroke-dasharray:none;marker-start:none"
     d="m 48.565485,3.9489384 9.015,0.225 -0.068,3.601 0.194,0.005 -0.045,2.2310006 -3.381,-0.086 -5.642,-0.162 0.067,-2.2170004 -0.252,-0.01 0.026,-1.293 0.086,-2.294"
     id="Cavalier"
     inkscape:connector-curvature="0" />
  <path
     style="font-size:12px;fill:#d0d0d0;fill-rule:nonzero;stroke:#000000;stroke-width:1;stroke-linecap:butt;stroke-linejoin:bevel;stroke-miterlimit:4;stroke-opacity:1;stroke-dasharray:none;marker-start:none"
     d="m 57.580485,4.1739384 6.197,0.099 -0.041,0.041 -0.04,0.189 -0.01,0.19 0.05,0.27 0.622,2.032 0.167,0.496 0.379,0.861 -0.632,1.7530006 0.041,0.023 -6.652,-0.117 0.045,-2.2310006 -0.194,-0.005 0.068,-3.601"
     id="Pembina"
     inkscape:connector-curvature="0" />
  <path
     style="font-size:12px;fill:#d0d0d0;fill-rule:nonzero;stroke:#000000;stroke-width:1;stroke-linecap:butt;stroke-linejoin:bevel;stroke-miterlimit:4;stroke-opacity:1;stroke-dasharray:none;marker-start:none"
     d="m 54.280485,9.9249388 3.381,0.086 6.652,0.117 0.068,0.036 0.202,0.248 0.055,3.074001 -0.284,1.095 -6.576,-0.122 -3.385,-0.076 0.059,-2.231 -0.212,-0.73 0.04,-1.4970012"
     id="Walsh"
     inkscape:connector-curvature="0" />
  <path
     style="font-size:12px;fill:#d0d0d0;fill-rule:nonzero;stroke:#000000;stroke-width:1;stroke-linecap:butt;stroke-linejoin:bevel;stroke-miterlimit:4;stroke-opacity:1;stroke-dasharray:none;marker-start:none"
     d="m 64.354485,14.58094 -0.005,0.262 0,0.031 0.203,0.784 0.839,3.024 1.135,2.592 -5.107,-0.058 -3.591,-0.068 0.089,-4.439 0,-0.018 -0.184,-0.005 0.045,-2.227 6.576,0.122"
     id="Grand Forks"
     inkscape:connector-curvature="0" />
  <path
     style="font-size:12px;fill:#d0d0d0;fill-rule:nonzero;stroke:#000000;stroke-width:1;stroke-linecap:butt;stroke-linejoin:bevel;stroke-miterlimit:4;stroke-opacity:1;stroke-dasharray:none;marker-start:none"
     d="m 61.419485,21.21594 5.107,0.058 0.302,2.222 0.158,3.353 -5.463,-0.086 -0.104,-5.547"
     id="Traill"
     inkscape:connector-curvature="0" />
</svg>
