<?xml version="1.0" encoding="UTF-8" standalone="no"?>
<!-- Created with Inkscape (http://www.inkscape.org/) -->

<svg
   xmlns:dc="http://purl.org/dc/elements/1.1/"
   xmlns:cc="http://creativecommons.org/ns#"
   xmlns:rdf="http://www.w3.org/1999/02/22-rdf-syntax-ns#"
   xmlns:svg="http://www.w3.org/2000/svg"
   xmlns="http://www.w3.org/2000/svg"
   xmlns:sodipodi="http://sodipodi.sourceforge.net/DTD/sodipodi-0.dtd"
   xmlns:inkscape="http://www.inkscape.org/namespaces/inkscape"
   version="1.0"
   width="72.769997"
   height="84.220001"
   sodipodi:version="0.32"
   inkscape:version="0.48.2 r9819"
   sodipodi:docname="az.svg"
   inkscape:output_extension="org.inkscape.output.svg.inkscape"
   id="svg5094">
  <metadata
     id="metadata5096">
    <rdf:RDF>
      <cc:Work
         rdf:about="">
        <dc:format>image/svg+xml</dc:format>
        <dc:type
           rdf:resource="http://purl.org/dc/dcmitype/StillImage" />
      </cc:Work>
    </rdf:RDF>
  </metadata>
  <sodipodi:namedview
     inkscape:window-height="746"
     inkscape:window-width="1366"
     inkscape:pageshadow="2"
     inkscape:pageopacity="0.0"
     guidetolerance="10.0"
     gridtolerance="10.0"
     objecttolerance="10.0"
     borderopacity="1.0"
     bordercolor="#666666"
     pagecolor="#ffffff"
     inkscape:zoom="3.6572918"
     inkscape:cx="84.443471"
     inkscape:cy="48.484713"
     inkscape:window-x="-8"
     inkscape:window-y="-8"
     inkscape:current-layer="svg5094"
     showguides="true"
     inkscape:guide-bbox="true"
     fit-margin-top="0"
     fit-margin-left="0"
     fit-margin-right="0"
     fit-margin-bottom="0"
     inkscape:window-maximized="0"
     id="namedview5098"
     showgrid="false" />
  <defs
     id="defs5100" />
  <path
     style="font-size:12px;fill:#d0d0d0;fill-rule:nonzero;stroke:#000000;stroke-width:1;stroke-linecap:butt;stroke-linejoin:bevel;stroke-miterlimit:4;stroke-opacity:1;stroke-dasharray:none;marker-start:none"
     d="m 20.307205,1.9637913 11.574,2.154 3.615,0.641 -0.992,2.153 -0.671,1.695 -0.045,0.122 -0.532,1.6670007 -0.027,0.167 0,0.207 0.122,0.379 0.112,0.181 -0.144,0.841001 -0.122,0.222 -0.329,0.387 -0.131,0.109 -0.153,0.049 -2.407,0.717 -0.446,0.095 -0.451,0.05 -0.085,-0.028 -0.604,0.077 -1.095,0.419 -1.56,0.695 -0.721,1.473 -1.181,5.697 -2.839,15.442 -0.235,0.202 -0.085,0.04 -0.113,0.019 -3.826,0.212 -4.151,-1.866 -0.496,-0.867 -0.573,-0.638 -0.658,-0.789 -0.666,-2.804 -0.036,-0.519 -0.7169996,-1.126 -0.568,-1.478 -0.009,-0.068 0.018,-0.18 0.324,-1.434 0.9649996,-1.613 0.094,-0.307 0.055,-0.257 0.013,-0.288 0.072,-1.573 -0.014,-0.379 -0.094,-0.756 -0.135,-1.595 0.126,-2.259 0.279,-3.695 0.131,-1.262 0.009,-0.082 0.14,-0.126 0.103,-0.054 1.154,-0.271001 0.632,0 0.594,0.122 1.312,0.387001 0.14,0.131 0.306,0.433 0.126,0.316 0.018,0.099 0.005,0.027 0.009,0.108 0.072,0.216 0.239,0.379 0.09,0.094 0.131,0.1 0.054,0.013 0.203,0.023 0.626,0.014 0.009,-0.005 0.036,-0.02 0.018,-0.012 0.14,-0.158 1.307,-1.766 0.437,-2.2670014 0.248,-1.2990003 0.41,-2.34 0.05,-0.259 0.405,-2.124 0.388,-2.01"
     id="Mohave"
     inkscape:connector-curvature="0" />
  <path
     style="font-size:12px;fill:#d0d0d0;fill-rule:nonzero;stroke:#000000;stroke-width:1;stroke-linecap:butt;stroke-linejoin:bevel;stroke-miterlimit:4;stroke-opacity:1;stroke-dasharray:none;marker-start:none"
     d="m 12.785205,36.181793 4.151,1.866 3.826,-0.212 0.113,-0.019 0.085,-0.04 0.235,-0.202 -0.753,4.065 -1.46,7.923 -6.576,-1.239 0.212,-1.109 -3.2629996,-0.613 -1.082,5.512 -1.09,-0.184 -1.551,-0.307 -0.938,-0.157 -0.175,-0.077 -0.497,-0.348 -0.225,-0.599 -0.008,-0.022 0.635,-3.912 1.081,-0.267 1.298,-1.532 0.42,-1.46 0.306,-1.528 0.059,-0.419 0.275,-0.987 0.302,-0.523 0.969,-1.37 1.3289996,-0.509 0.911,-0.374 1.352,-0.78 0.023,-0.018 0.036,-0.559"
     id="La Paz"
     inkscape:connector-curvature="0" />
  <path
     style="font-size:12px;fill:#d0d0d0;fill-rule:nonzero;stroke:#000000;stroke-width:1;stroke-linecap:butt;stroke-linejoin:bevel;stroke-miterlimit:4;stroke-opacity:1;stroke-dasharray:none;marker-start:none"
     d="m 61.943205,68.970793 0.713,0.094 -1.961,13.999 -4.101,-0.594 -11.246,-1.65 0.87,-5.065 1.366,-8.894 3.015,0.469 7.928,1.145 3.416,0.496"
     id="Cochise"
     inkscape:connector-curvature="0" />
  <path
     style="font-size:12px;fill:#d0d0d0;fill-rule:nonzero;stroke:#000000;stroke-width:1;stroke-linecap:butt;stroke-linejoin:bevel;stroke-miterlimit:4;stroke-opacity:1;stroke-dasharray:none;marker-start:none"
     d="m 35.694205,78.078793 0.198,-1.216 2.2,0.351 0.415,-2.605 3.349,0.46 4.362,0.686 -0.87,5.065 -5.616,-0.87 -1.302,-0.302 -2.736,-1.569"
     id="Santa Cruz"
     inkscape:connector-curvature="0" />
  <path
     style="font-size:12px;fill:#d0d0d0;fill-rule:nonzero;stroke:#000000;stroke-width:1;stroke-linecap:butt;stroke-linejoin:bevel;stroke-miterlimit:4;stroke-opacity:1;stroke-dasharray:none;marker-start:none"
     d="m 28.997205,62.796793 4.372,0.738 2.397,0.474 4.052,0.662 0.356,0.053 1.69,0.172 3.354,0.465 2.541,0.392 -0.175,1.108 -1.366,8.894 -4.362,-0.686 -3.349,-0.46 -0.415,2.605 -2.2,-0.351 -0.198,1.216 -0.518,-0.296 -1.645,-0.952 -13.012,-7.504 -2.605,-1.482 -2.074,-1.245 1.091,-5.932 12.066,2.129"
     id="Pima"
     inkscape:connector-curvature="0" />
  <path
     style="font-size:12px;fill:#d0d0d0;fill-rule:nonzero;stroke:#000000;stroke-width:1;stroke-linecap:butt;stroke-linejoin:bevel;stroke-miterlimit:4;stroke-opacity:1;stroke-dasharray:none;marker-start:none"
     d="m 60.091205,52.673793 0.225,-0.451 0.086,-0.073 1.478,-0.851 3.183,0.432 -2.407,17.334 -0.713,-0.094 -1.018,-1.488 0.022,-0.175 0.235,-0.509 0.144,-0.65 0,-0.586 -0.243,-0.946 -0.582,-1.29 -0.162,-0.03 -1.303,-3.259 1.055,-7.364"
     id="Greenlee"
     inkscape:connector-curvature="0" />
  <path
     style="font-size:12px;fill:#d0d0d0;fill-rule:nonzero;stroke:#000000;stroke-width:1;stroke-linecap:butt;stroke-linejoin:bevel;stroke-miterlimit:4;stroke-opacity:1;stroke-dasharray:none;marker-start:none"
     d="m 55.741205,53.155793 0.64,0.599 1.078,0.243 1.055,-0.658 1.577,-0.666 -1.055,7.364 1.303,3.259 0.162,0.03 0.582,1.29 0.243,0.946 0,0.586 -0.144,0.65 -0.235,0.509 -0.022,0.175 1.018,1.488 -3.416,-0.496 -7.928,-1.145 -3.015,-0.469 0.175,-1.108 0.023,0.004 0.221,-1.42 0.703,-4.646 0.41,-2.641 0.108,-1.249 0.221,-0.947 0.108,-0.171 0.375,-0.194 0.784,-0.243 0.297,-0.04 1.596,-0.176 1.789,0.261 0.212,-1.424 1.135,0.289"
     id="Graham"
     inkscape:connector-curvature="0" />
  <path
     style="font-size:12px;fill:#d0d0d0;fill-rule:nonzero;stroke:#000000;stroke-width:1;stroke-linecap:butt;stroke-linejoin:bevel;stroke-miterlimit:4;stroke-opacity:1;stroke-dasharray:none;marker-start:none"
     d="m 70.800205,10.319792 -1.78,12.826001 -2.529,18.3 -1.428,10.285 -3.183,-0.432 -1.478,0.851 -0.086,0.073 -0.225,0.451 -1.577,0.666 -1.055,0.658 -1.078,-0.243 -0.64,-0.599 0.316,-2.133 0.392,-0.513 0.852,-4.84 1.361,-8.98 0.897,-5.646 0.536,-2.813 0.271,-1.856 -1.789,-0.266 2.546,-17.1640014 9.677,1.3750004"
     id="Apache"
     inkscape:connector-curvature="0" />
  <path
     style="font-size:12px;fill:#d0d0d0;fill-rule:nonzero;stroke:#000000;stroke-width:1;stroke-linecap:butt;stroke-linejoin:bevel;stroke-miterlimit:4;stroke-opacity:1;stroke-dasharray:none;marker-start:none"
     d="m 61.123205,8.9447916 -2.546,17.1640014 1.789,0.266 -0.271,1.856 -0.536,2.813 -0.897,5.646 -1.361,8.98 -0.852,4.84 -0.392,0.513 -0.316,2.133 -1.135,-0.289 0.807,-5.422 -7.888,-1.204 6.026,-38.5170017 2.583,0.391 1.649,0.325 3.34,0.5050003"
     id="Navajo"
     inkscape:connector-curvature="0" />
  <path
     style="font-size:12px;fill:#d0d0d0;fill-rule:nonzero;stroke:#000000;stroke-width:1;stroke-linecap:butt;stroke-linejoin:bevel;stroke-miterlimit:4;stroke-opacity:1;stroke-dasharray:none;marker-start:none"
     d="m 48.053205,42.869793 -0.528,3.371 7.888,1.204 -1.019,6.846 -1.789,-0.261 -1.596,0.176 -0.297,0.04 -0.784,0.243 -0.375,0.194 -0.108,0.171 -0.221,0.947 -0.108,1.249 -0.166,0.004 -1.898,0.361 -1.109,0.766 -0.013,0.058 0.063,0.253 -0.027,0.09 -0.622,0.612 -0.162,0.005 -0.032,-0.014 -1.204,-3.672 -0.094,-1.042 -0.239,-1.04 -0.216,-0.834 -0.767,-2.898 -0.315,0.18 -0.266,0.224 -1.582,-2.514 -0.139,-2.29 -0.064,-0.193 -0.027,-0.046 -0.216,-0.099 -0.311,0.033 0.482,-0.754 0,-0.644 -0.059,-0.221 -0.166,-0.324 -2.213,-0.374 -0.068,-0.122 0.004,-0.033 0.371,-0.95 0.743,-1.811 0.149,-0.06 0.788,-0.233 0.258,-0.181 0.018,-0.018 0.058,-0.423 2.993,0.864 2.271,1.552 1.718,1.351 0.996,0.257"
     id="Gila"
     inkscape:connector-curvature="0" />
  <path
     style="font-size:12px;fill:#d0d0d0;fill-rule:nonzero;stroke:#000000;stroke-width:1;stroke-linecap:butt;stroke-linejoin:bevel;stroke-miterlimit:4;stroke-opacity:1;stroke-dasharray:none;marker-start:none"
     d="m 43.397205,52.596793 0.216,0.834 0.239,1.04 0.094,1.042 1.204,3.672 0.032,0.014 0.162,-0.005 0.622,-0.612 0.027,-0.09 -0.063,-0.253 0.013,-0.058 1.109,-0.766 1.898,-0.361 0.166,-0.004 -0.41,2.641 -0.703,4.646 -0.221,1.42 -0.023,-0.004 -2.541,-0.392 -3.354,-0.465 -1.69,-0.172 -0.356,-0.053 -4.052,-0.662 -2.397,-0.474 -4.372,-0.738 0.383,-2.219 1.257,-7.22 0.099,-0.558 0.045,0.022 0.956,1.181 1.176,0.297 1.456,0.258 2.74,0.437 0.348,-2.219 0.225,-1.108 3.484,0.587 2.231,0.342"
     id="Pinal"
     inkscape:connector-curvature="0" />
  <path
     style="font-size:12px;fill:#d0d0d0;fill-rule:nonzero;stroke:#000000;stroke-width:1;stroke-linecap:butt;stroke-linejoin:bevel;stroke-miterlimit:4;stroke-opacity:1;stroke-dasharray:none;marker-start:none"
     d="m 18.982205,49.562793 -2.051,11.105 -1.091,5.932 -0.18,-0.112 -14.5039996,-8.717 0.357,-1.551 0.031,-0.049 0.094,-0.032 0.185,0.041 0.46,-0.424 0.437,-0.635 1.132,0.085 1.496,-0.928 0.468,-0.658 0,-0.005 0.095,-0.329 0.104,-0.848 -0.32,-0.747 -0.031,-0.032 -0.032,-0.036 1.551,0.307 1.09,0.184 1.082,-5.512 3.2629996,0.613 -0.212,1.109 6.576,1.239"
     id="Yuma"
     inkscape:connector-curvature="0" />
  <path
     style="font-size:12px;fill:#d0d0d0;fill-rule:nonzero;stroke:#000000;stroke-width:1;stroke-linecap:butt;stroke-linejoin:bevel;stroke-miterlimit:4;stroke-opacity:1;stroke-dasharray:none;marker-start:none"
     d="m 20.442205,41.639793 6.17,1.108 4.647,2.362 0.424,-0.257 0.64,-0.806 0.045,-0.177 0.437,-0.667 0.153,0.042 4.322,1.343 2.43,0.406 0.311,-0.033 0.216,0.099 0.027,0.046 0.064,0.193 0.139,2.29 1.582,2.514 0.266,-0.224 0.315,-0.18 0.767,2.898 -2.231,-0.342 -3.484,-0.587 -0.225,1.108 -0.348,2.219 -2.74,-0.437 -1.456,-0.258 -1.176,-0.297 -0.956,-1.181 -0.045,-0.022 -0.099,0.558 -1.257,7.22 -0.383,2.219 -12.066,-2.129 3.511,-19.028"
     id="Maricopa"
     inkscape:connector-curvature="0" />
  <path
     style="font-size:12px;fill:#d0d0d0;fill-rule:nonzero;stroke:#000000;stroke-width:1;stroke-linecap:butt;stroke-linejoin:bevel;stroke-miterlimit:4;stroke-opacity:1;stroke-dasharray:none;marker-start:none"
     d="m 46.858205,6.6737913 6.693,1.05 -5.498,35.1460017 -0.996,-0.257 -1.718,-1.351 -2.271,-1.552 -2.993,-0.864 0.384,-2.115 0.346,-2.109 -0.419,-0.072 -1.816,-0.32 -0.032,-0.505 0.307,-1.78 -2.479,-0.352 -0.356,-0.031 -2.948,-0.496 0.378,-2.244 -0.946,-1.082 -5.093,-3.209 -1.775,-1.821 -0.879,-0.474 -0.402,-0.09 -0.162,-0.022 -0.149,0.009 1.181,-5.697 0.721,-1.473 1.56,-0.695 1.095,-0.419 0.604,-0.077 0.085,0.028 0.451,-0.05 0.446,-0.095 2.407,-0.717 0.153,-0.049 0.131,-0.109 0.329,-0.387 0.122,-0.222 0.144,-0.841001 -0.112,-0.181 -0.122,-0.379 0,-0.207 0.027,-0.167 0.532,-1.6670007 0.045,-0.122 0.671,-1.695 0.992,-2.153 11.362,1.915"
     id="Coconino"
     inkscape:connector-curvature="0" />
  <path
     style="font-size:12px;fill:#d0d0d0;fill-rule:nonzero;stroke:#000000;stroke-width:1;stroke-linecap:butt;stroke-linejoin:bevel;stroke-miterlimit:4;stroke-opacity:1;stroke-dasharray:none;marker-start:none"
     d="m 24.034205,22.132793 0.149,-0.009 0.162,0.022 0.402,0.09 0.879,0.474 1.775,1.821 5.093,3.209 0.946,1.082 -0.378,2.244 2.948,0.496 0.356,0.031 2.479,0.352 -0.307,1.78 0.032,0.505 1.816,0.32 0.419,0.072 -0.346,2.109 -0.384,2.115 -0.058,0.423 -0.018,0.018 -0.258,0.181 -0.788,0.233 -0.149,0.06 -0.743,1.811 -0.371,0.95 -0.004,0.033 0.068,0.122 2.213,0.374 0.166,0.324 0.059,0.221 0,0.644 -0.482,0.754 -2.43,-0.406 -4.322,-1.343 -0.153,-0.042 -0.437,0.667 -0.045,0.177 -0.64,0.806 -0.424,0.257 -4.647,-2.362 -6.17,-1.108 0.753,-4.065 2.839,-15.442"
     id="Yavapai"
     inkscape:connector-curvature="0" />
</svg>
