<?xml version="1.0" encoding="UTF-8" standalone="no"?>
<!-- Created with Inkscape (http://www.inkscape.org/) -->

<svg
   xmlns:dc="http://purl.org/dc/elements/1.1/"
   xmlns:cc="http://creativecommons.org/ns#"
   xmlns:rdf="http://www.w3.org/1999/02/22-rdf-syntax-ns#"
   xmlns:svg="http://www.w3.org/2000/svg"
   xmlns="http://www.w3.org/2000/svg"
   xmlns:sodipodi="http://sodipodi.sourceforge.net/DTD/sodipodi-0.dtd"
   xmlns:inkscape="http://www.inkscape.org/namespaces/inkscape"
   version="1.0"
   width="39.509998"
   height="66.330002"
   sodipodi:version="0.32"
   inkscape:version="0.48.2 r9819"
   sodipodi:docname="ms.svg"
   inkscape:output_extension="org.inkscape.output.svg.inkscape"
   id="svg3075">
  <metadata
     id="metadata3077">
    <rdf:RDF>
      <cc:Work
         rdf:about="">
        <dc:format>image/svg+xml</dc:format>
        <dc:type
           rdf:resource="http://purl.org/dc/dcmitype/StillImage" />
      </cc:Work>
    </rdf:RDF>
  </metadata>
  <sodipodi:namedview
     inkscape:window-height="746"
     inkscape:window-width="1366"
     inkscape:pageshadow="2"
     inkscape:pageopacity="0.0"
     guidetolerance="10.0"
     gridtolerance="10.0"
     objecttolerance="10.0"
     borderopacity="1.0"
     bordercolor="#666666"
     pagecolor="#ffffff"
     inkscape:zoom="5.1721917"
     inkscape:cx="34.520556"
     inkscape:cy="42.128043"
     inkscape:window-x="-8"
     inkscape:window-y="-8"
     inkscape:current-layer="svg3075"
     showguides="true"
     inkscape:guide-bbox="true"
     fit-margin-top="0"
     fit-margin-left="0"
     fit-margin-right="0"
     fit-margin-bottom="0"
     inkscape:window-maximized="0"
     id="namedview3079"
     showgrid="false" />
  <defs
     id="defs3081" />
  <path
     style="font-size:12px;fill:#d0d0d0;fill-rule:nonzero;stroke:#000000;stroke-width:1;stroke-linecap:butt;stroke-linejoin:bevel;stroke-miterlimit:4;stroke-opacity:1;stroke-dasharray:none;marker-start:none"
     d="m 32.069891,58.179444 0.694,3.466 -0.839,0.212 -1.767,0.458 -2.168,0.624 -0.694,-0.478 -0.257,-3.534 1.122,-0.077 0.051,-0.387 3.858,-0.284"
     id="Harrison"
     inkscape:connector-curvature="0" />
  <path
     style="font-size:12px;fill:#d0d0d0;fill-rule:nonzero;stroke:#000000;stroke-width:1;stroke-linecap:butt;stroke-linejoin:bevel;stroke-miterlimit:4;stroke-opacity:1;stroke-dasharray:none;marker-start:none"
     d="m 32.009891,57.430444 5.216,-0.404 0.572,4.691 -0.009,0.189 -0.794,0.51 -0.089,0.032 -2.786,-0.099 -0.208,-0.046 -0.752,-0.424 -0.396,-0.234 -0.694,-3.466 -0.06,-0.749"
     id="Jackson"
     inkscape:connector-curvature="0" />
  <path
     style="font-size:12px;fill:#d0d0d0;fill-rule:nonzero;stroke:#000000;stroke-width:1;stroke-linecap:butt;stroke-linejoin:bevel;stroke-miterlimit:4;stroke-opacity:1;stroke-dasharray:none;marker-start:none"
     d="m 17.885891,17.425444 1.667,-0.093 0.027,0.382 2.785,-0.184 0.171,2.452 -2.983,0.211 -3.642,0.23 -0.121,-0.572 -0.068,-1.136 1.15,-0.082 1.077,-0.247 -0.027,-0.374 -0.036,-0.587"
     id="Grenada"
     inkscape:connector-curvature="0" />
  <path
     style="font-size:12px;fill:#d0d0d0;fill-rule:nonzero;stroke:#000000;stroke-width:1;stroke-linecap:butt;stroke-linejoin:bevel;stroke-miterlimit:4;stroke-opacity:1;stroke-dasharray:none;marker-start:none"
     d="m 22.076891,13.721444 0.288,3.809 -2.785,0.184 -0.027,-0.382 -1.667,0.093 -0.274,-3.438 2.203,-0.509 2.262,0.243"
     id="Yalobusha"
     inkscape:connector-curvature="0" />
  <path
     style="font-size:12px;fill:#d0d0d0;fill-rule:nonzero;stroke:#000000;stroke-width:1;stroke-linecap:butt;stroke-linejoin:bevel;stroke-miterlimit:4;stroke-opacity:1;stroke-dasharray:none;marker-start:none"
     d="m 30.783891,17.651444 0.135,1.685 2.336,-0.175 0.064,0.077 -0.177,0.32 -1.532,1.992 -0.064,-0.761 -3.334,0.265 -0.365,0.05 -0.334,-2.276 3.271,-1.177"
     id="Clay"
     inkscape:connector-curvature="0" />
  <path
     style="font-size:12px;fill:#d0d0d0;fill-rule:nonzero;stroke:#000000;stroke-width:1;stroke-linecap:butt;stroke-linejoin:bevel;stroke-miterlimit:4;stroke-opacity:1;stroke-dasharray:none;marker-start:none"
     d="m 25.836891,18.959444 1.676,-0.131 0.334,2.276 -0.713,0.429 -3.06,1.166 -1.338,0.1 -0.24,-3.39 3.341,-0.45"
     id="Webster"
     inkscape:connector-curvature="0" />
  <path
     style="font-size:12px;fill:#d0d0d0;fill-rule:nonzero;stroke:#000000;stroke-width:1;stroke-linecap:butt;stroke-linejoin:bevel;stroke-miterlimit:4;stroke-opacity:1;stroke-dasharray:none;marker-start:none"
     d="m 29.417891,14.326444 1.118,-0.082 0.248,3.407 -3.271,1.177 -1.676,0.131 -0.051,-0.947 0.555,-0.046 -0.257,-3.384 3.334,-0.256"
     id="Chickasaw"
     inkscape:connector-curvature="0" />
  <path
     style="font-size:12px;fill:#d0d0d0;fill-rule:nonzero;stroke:#000000;stroke-width:1;stroke-linecap:butt;stroke-linejoin:bevel;stroke-miterlimit:4;stroke-opacity:1;stroke-dasharray:none;marker-start:none"
     d="m 22.076891,13.721444 2.799,-0.184 1.208,1.045 0.257,3.384 -0.555,0.046 0.051,0.947 -3.341,0.45 -0.131,-1.879 -0.288,-3.809"
     id="Calhoun"
     inkscape:connector-curvature="0" />
  <path
     style="font-size:12px;fill:#d0d0d0;fill-rule:nonzero;stroke:#000000;stroke-width:1;stroke-linecap:butt;stroke-linejoin:bevel;stroke-miterlimit:4;stroke-opacity:1;stroke-dasharray:none;marker-start:none"
     d="m 29.130891,10.576444 0.287,3.75 -3.334,0.256 -1.208,-1.045 -0.208,-2.827 4.463,-0.134"
     id="Pontotoc"
     inkscape:connector-curvature="0" />
  <path
     style="font-size:12px;fill:#d0d0d0;fill-rule:nonzero;stroke:#000000;stroke-width:1;stroke-linecap:butt;stroke-linejoin:bevel;stroke-miterlimit:4;stroke-opacity:1;stroke-dasharray:none;marker-start:none"
     d="m 29.918891,8.6414446 2.091,0.4059996 0.371,4.8629998 -1.845,0.334 -1.118,0.082 -0.287,-3.75 0.788,-1.9349994"
     id="Lee"
     inkscape:connector-curvature="0" />
  <path
     style="font-size:12px;fill:#d0d0d0;fill-rule:nonzero;stroke:#000000;stroke-width:1;stroke-linecap:butt;stroke-linejoin:bevel;stroke-miterlimit:4;stroke-opacity:1;stroke-dasharray:none;marker-start:none"
     d="m 26.128891,7.7634446 3.714,-0.258 0.076,1.136 -0.788,1.9349994 -4.463,0.134 -0.108,-1.4999998 -0.071,-1.1319996 1.64,-0.315"
     id="Union"
     inkscape:connector-curvature="0" />
  <path
     style="font-size:12px;fill:#d0d0d0;fill-rule:nonzero;stroke:#000000;stroke-width:1;stroke-linecap:butt;stroke-linejoin:bevel;stroke-miterlimit:4;stroke-opacity:1;stroke-dasharray:none;marker-start:none"
     d="m 19.502891,8.7944446 0.555,-0.035 1.092,-0.091 0.931,-0.044 1.371,0.3159996 1.108,0.27 0.108,1.4999998 0.208,2.827 -2.799,0.184 -2.262,-0.243 -0.312,-4.6839994"
     id="Lafayette"
     inkscape:connector-curvature="0" />
  <path
     style="font-size:12px;fill:#d0d0d0;fill-rule:nonzero;stroke:#000000;stroke-width:1;stroke-linecap:butt;stroke-linejoin:bevel;stroke-miterlimit:4;stroke-opacity:1;stroke-dasharray:none;marker-start:none"
     d="m 14.316891,6.9154446 1.027,-0.17 1.969,-0.645 1.979,-0.127 0.085,1.122 0.568,0.091 0.113,1.573 -0.555,0.035 -5.029,0.3209996 -0.157,-2.1999996"
     id="Tate"
     inkscape:connector-curvature="0" />
  <path
     style="font-size:12px;fill:#d0d0d0;fill-rule:nonzero;stroke:#000000;stroke-width:1;stroke-linecap:butt;stroke-linejoin:bevel;stroke-miterlimit:4;stroke-opacity:1;stroke-dasharray:none;marker-start:none"
     d="m 14.473891,9.1154442 5.029,-0.3209996 0.312,4.6839994 -2.203,0.509 -2.16,0.189 -0.077,-1.37 -0.672,-0.734 -0.198,-2.3939998 -0.031,-0.563"
     id="Panola"
     inkscape:connector-curvature="0" />
  <path
     style="font-size:12px;fill:#d0d0d0;fill-rule:nonzero;stroke:#000000;stroke-width:1;stroke-linecap:butt;stroke-linejoin:bevel;stroke-miterlimit:4;stroke-opacity:1;stroke-dasharray:none;marker-start:none"
     d="m 14.504891,9.6784442 0.198,2.3939998 0.672,0.734 0.077,1.37 0.068,1.127 -0.573,0.036 -2.772,0.166 -0.14,-2.451 0.551,-0.022 -0.132,-2.101 1.034,-0.072 -0.096,-1.0999998 1.113,-0.081"
     id="Quitman"
     inkscape:connector-curvature="0" />
  <path
     style="font-size:12px;fill:#d0d0d0;fill-rule:nonzero;stroke:#000000;stroke-width:1;stroke-linecap:butt;stroke-linejoin:bevel;stroke-miterlimit:4;stroke-opacity:1;stroke-dasharray:none;marker-start:none"
     d="m 15.451891,14.176444 2.16,-0.189 0.274,3.438 0.036,0.587 0.027,0.374 -1.077,0.247 -1.15,0.082 0.068,1.136 -0.42,-0.838 -0.139,-0.266 -2.866,0.143 -0.123,-2.258 -0.067,-1.127 2.772,-0.166 0.573,-0.036 -0.068,-1.127"
     id="Tallahatchie"
     inkscape:connector-curvature="0" />
  <path
     style="font-size:12px;fill:#d0d0d0;fill-rule:nonzero;stroke:#000000;stroke-width:1;stroke-linecap:butt;stroke-linejoin:bevel;stroke-miterlimit:4;stroke-opacity:1;stroke-dasharray:none;marker-start:none"
     d="m 12.364891,18.890444 2.866,-0.143 0.139,0.266 0.42,0.838 0.121,0.572 0.281,0.176 0.026,0.135 0.157,2.488 -0.355,0.572 -0.391,0.019 0.067,1.081 -1.66,0.496 -1.32,-0.266 -0.351,-6.234"
     id="Leflore"
     inkscape:connector-curvature="0" />
  <path
     style="font-size:12px;fill:#d0d0d0;fill-rule:nonzero;stroke:#000000;stroke-width:1;stroke-linecap:butt;stroke-linejoin:bevel;stroke-miterlimit:4;stroke-opacity:1;stroke-dasharray:none;marker-start:none"
     d="m 12.241891,16.632444 0.123,2.258 0.351,6.234 -1.101,0.068 0.051,0.757 -1.7259996,0.103 -0.691,-3.326 -0.062,-1.122 1.1179996,-0.062 -0.253,-4.805 2.19,-0.105"
     id="Sunflower"
     inkscape:connector-curvature="0" />
  <path
     style="font-size:12px;fill:#d0d0d0;fill-rule:nonzero;stroke:#000000;stroke-width:1;stroke-linecap:butt;stroke-linejoin:bevel;stroke-miterlimit:4;stroke-opacity:1;stroke-dasharray:none;marker-start:none"
     d="m 12.715891,25.124444 1.32,0.266 0.145,2.168 -0.347,0.64 -0.063,0.045 -0.122,-0.023 -0.288,-0.179 -0.135,-0.181 -0.046,0.013 -0.026,0.042 -0.038,0.215 0.05,0.428 0.024,0.068 0.522,0.433 0.203,0.129 -0.915,0.073 0.059,1.11 -2.227,0.139 -0.612,-2.217 -0.2799996,-2.241 1.7259996,-0.103 -0.051,-0.757 1.101,-0.068"
     id="Humphreys"
     inkscape:connector-curvature="0" />
  <path
     style="font-size:12px;fill:#d0d0d0;fill-rule:nonzero;stroke:#000000;stroke-width:1;stroke-linecap:butt;stroke-linejoin:bevel;stroke-miterlimit:4;stroke-opacity:1;stroke-dasharray:none;marker-start:none"
     d="m 14.035891,25.390444 1.66,-0.496 4.65,1.248 -2.046,4.477 -4.385,-1.431 -0.203,-0.129 -0.522,-0.433 -0.024,-0.068 -0.05,-0.428 0.038,-0.215 0.026,-0.042 0.046,-0.013 0.135,0.181 0.288,0.179 0.122,0.023 0.063,-0.045 0.347,-0.64 -0.145,-2.168"
     id="Holmes"
     inkscape:connector-curvature="0" />
  <path
     style="font-size:12px;fill:#d0d0d0;fill-rule:nonzero;stroke:#000000;stroke-width:1;stroke-linecap:butt;stroke-linejoin:bevel;stroke-miterlimit:4;stroke-opacity:1;stroke-dasharray:none;marker-start:none"
     d="m 15.910891,20.423444 3.642,-0.23 0.239,3.367 0.758,0.135 0.738,-0.058 0.113,1.514 -1.055,0.991 -4.65,-1.248 -0.067,-1.081 0.391,-0.019 0.355,-0.572 -0.157,-2.488 -0.026,-0.135 -0.281,-0.176"
     id="Carroll"
     inkscape:connector-curvature="0" />
  <path
     style="font-size:12px;fill:#d0d0d0;fill-rule:nonzero;stroke:#000000;stroke-width:1;stroke-linecap:butt;stroke-linejoin:bevel;stroke-miterlimit:4;stroke-opacity:1;stroke-dasharray:none;marker-start:none"
     d="m 22.535891,19.982444 0.2,2.817 1.338,-0.1 -0.622,2.307 -2.051,0.145 -0.113,-1.514 -0.738,0.058 -0.758,-0.135 -0.239,-3.367 2.983,-0.211"
     id="Montgomery"
     inkscape:connector-curvature="0" />
  <path
     style="font-size:12px;fill:#d0d0d0;fill-rule:nonzero;stroke:#000000;stroke-width:1;stroke-linecap:butt;stroke-linejoin:bevel;stroke-miterlimit:4;stroke-opacity:1;stroke-dasharray:none;marker-start:none"
     d="m 27.133891,21.533444 0.231,3.194 -0.222,0.019 -1.035,1.22 0.076,1.137 -1.114,0.085 -1.618,-2.182 0.622,-2.307 3.06,-1.166"
     id="Choctaw"
     inkscape:connector-curvature="0" />
  <path
     style="font-size:12px;fill:#d0d0d0;fill-rule:nonzero;stroke:#000000;stroke-width:1;stroke-linecap:butt;stroke-linejoin:bevel;stroke-miterlimit:4;stroke-opacity:1;stroke-dasharray:none;marker-start:none"
     d="m 27.846891,21.104444 0.365,-0.05 3.334,-0.265 0.064,0.761 0.245,2.826 -1.544,0.125 -2.946,0.226 -0.231,-3.194 0.713,-0.429"
     id="Oktibbeha"
     inkscape:connector-curvature="0" />
  <path
     style="font-size:12px;fill:#d0d0d0;fill-rule:nonzero;stroke:#000000;stroke-width:1;stroke-linecap:butt;stroke-linejoin:bevel;stroke-miterlimit:4;stroke-opacity:1;stroke-dasharray:none;marker-start:none"
     d="m 33.141891,19.558444 2.726,-1.452 -0.057,2.745 -0.059,3.199 -3.897,0.326 -0.245,-2.826 1.532,-1.992"
     id="Lowndes"
     inkscape:connector-curvature="0" />
  <path
     style="font-size:12px;fill:#d0d0d0;fill-rule:nonzero;stroke:#000000;stroke-width:1;stroke-linecap:butt;stroke-linejoin:bevel;stroke-miterlimit:4;stroke-opacity:1;stroke-dasharray:none;marker-start:none"
     d="m 35.981891,13.654444 -0.01,0.369 -0.104,4.083 -2.726,1.452 0.177,-0.32 -0.064,-0.077 -2.336,0.175 -0.135,-1.685 -0.248,-3.407 1.845,-0.334 3.601,-0.256"
     id="Monroe"
     inkscape:connector-curvature="0" />
  <path
     style="font-size:12px;fill:#d0d0d0;fill-rule:nonzero;stroke:#000000;stroke-width:1;stroke-linecap:butt;stroke-linejoin:bevel;stroke-miterlimit:4;stroke-opacity:1;stroke-dasharray:none;marker-start:none"
     d="m 36.089891,8.7464446 -0.108,4.9079994 -3.601,0.256 -0.371,-4.8629998 2.25,-0.158 1.83,-0.1429996"
     id="Itawamba"
     inkscape:connector-curvature="0" />
  <path
     style="font-size:12px;fill:#d0d0d0;fill-rule:nonzero;stroke:#000000;stroke-width:1;stroke-linecap:butt;stroke-linejoin:bevel;stroke-miterlimit:4;stroke-opacity:1;stroke-dasharray:none;marker-start:none"
     d="m 33.565891,5.1444446 0.694,3.7449996 -2.25,0.158 -2.091,-0.4059996 -0.076,-1.136 0.022,-2.086 3.701,-0.275"
     id="Prentiss"
     inkscape:connector-curvature="0" />
  <path
     style="font-size:12px;fill:#d0d0d0;fill-rule:nonzero;stroke:#000000;stroke-width:1;stroke-linecap:butt;stroke-linejoin:bevel;stroke-miterlimit:4;stroke-opacity:1;stroke-dasharray:none;marker-start:none"
     d="m 33.339891,2.0404446 1.712,-0.141 1.182,1.248 -0.108,4.053 -0.036,1.546 -1.83,0.1429996 -0.694,-3.7449996 -0.226,-3.104"
     id="Tishomingo"
     inkscape:connector-curvature="0" />
  <path
     style="font-size:12px;fill:#d0d0d0;fill-rule:nonzero;stroke:#000000;stroke-width:1;stroke-linecap:butt;stroke-linejoin:bevel;stroke-miterlimit:4;stroke-opacity:1;stroke-dasharray:none;marker-start:none"
     d="m 33.163891,2.0524446 0.176,-0.012 0.226,3.104 -3.701,0.275 -1.333,-2.997 0.383,-0.032 4.249,-0.338"
     id="Alcorn"
     inkscape:connector-curvature="0" />
  <path
     style="font-size:12px;fill:#d0d0d0;fill-rule:nonzero;stroke:#000000;stroke-width:1;stroke-linecap:butt;stroke-linejoin:bevel;stroke-miterlimit:4;stroke-opacity:1;stroke-dasharray:none;marker-start:none"
     d="m 26.497891,2.5804446 2.034,-0.158 1.333,2.997 -0.022,2.086 -3.714,0.258 -0.203,-2.808 0.554,-0.04 0.145,-0.578 -0.127,-1.757"
     id="Tippah"
     inkscape:connector-curvature="0" />
  <path
     style="font-size:12px;fill:#d0d0d0;fill-rule:nonzero;stroke:#000000;stroke-width:1;stroke-linecap:butt;stroke-linejoin:bevel;stroke-miterlimit:4;stroke-opacity:1;stroke-dasharray:none;marker-start:none"
     d="m 24.605891,2.7194446 1.892,-0.139 0.127,1.757 -0.145,0.578 -0.554,0.04 0.203,2.808 -1.64,0.315 -0.555,0.041 -0.252,-3.385 -0.419,-0.617 -0.275,-1.284 1.618,-0.114"
     id="Benton"
     inkscape:connector-curvature="0" />
  <path
     style="font-size:12px;fill:#d0d0d0;fill-rule:nonzero;stroke:#000000;stroke-width:1;stroke-linecap:butt;stroke-linejoin:bevel;stroke-miterlimit:4;stroke-opacity:1;stroke-dasharray:none;marker-start:none"
     d="m 19.931891,3.0314446 3.056,-0.198 0.275,1.284 0.419,0.617 0.252,3.385 0.555,-0.041 0.071,1.1319996 -1.108,-0.27 -1.371,-0.3159996 -0.931,0.044 -1.092,0.091 -0.113,-1.573 -0.568,-0.091 -0.085,-1.122 -0.198,-2.88 0.838,-0.062"
     id="Marshall"
     inkscape:connector-curvature="0" />
  <path
     style="font-size:12px;fill:#d0d0d0;fill-rule:nonzero;stroke:#000000;stroke-width:1;stroke-linecap:butt;stroke-linejoin:bevel;stroke-miterlimit:4;stroke-opacity:1;stroke-dasharray:none;marker-start:none"
     d="m 19.093891,3.0934446 0.198,2.88 -1.979,0.127 -1.969,0.645 -1.027,0.17 -1.088,-1.707 -0.265,-1.74 6.13,-0.375"
     id="DeSoto"
     inkscape:connector-curvature="0" />
  <path
     style="font-size:12px;fill:#d0d0d0;fill-rule:nonzero;stroke:#000000;stroke-width:1;stroke-linecap:butt;stroke-linejoin:bevel;stroke-miterlimit:4;stroke-opacity:1;stroke-dasharray:none;marker-start:none"
     d="m 13.228891,5.2084446 1.088,1.707 0.157,2.1999996 0.031,0.563 -1.113,0.081 0.096,1.0999998 -1.034,0.072 -1.879,-1.2079998 -0.144,-1.5009996 1.622,-2.583 1.176,-0.431"
     id="Tunica"
     inkscape:connector-curvature="0" />
  <path
     style="font-size:12px;fill:#d0d0d0;fill-rule:nonzero;stroke:#000000;stroke-width:1;stroke-linecap:butt;stroke-linejoin:bevel;stroke-miterlimit:4;stroke-opacity:1;stroke-dasharray:none;marker-start:none"
     d="m 10.574891,9.7234442 1.879,1.2079998 0.132,2.101 -0.551,0.022 0.14,2.451 0.067,1.127 -2.19,0.105 -0.1209996,-1.7 -1.695,0.067 -1.195,0.072 -0.036,-0.126 0.153,-0.319 0.479,-0.987 1.01,-1.812 0.553,-0.108 0.555,-0.114 0.4589996,-0.22 0.365,-0.32 0.023,-0.018 0.01,-0.023 0.076,-0.248 -0.113,-1.1579998"
     id="Coahoma"
     inkscape:connector-curvature="0" />
  <path
     style="font-size:12px;fill:#d0d0d0;fill-rule:nonzero;stroke:#000000;stroke-width:1;stroke-linecap:butt;stroke-linejoin:bevel;stroke-miterlimit:4;stroke-opacity:1;stroke-dasharray:none;marker-start:none"
     d="m 7.0408914,15.176444 1.195,-0.072 1.695,-0.067 0.1209996,1.7 0.253,4.805 -1.1179996,0.062 0.062,1.122 -4.831,0.257 -0.148,-0.409 0.788,-0.317 0.189,-0.162 0.028,-0.139 0,-0.013 -0.302,-0.244 -0.319,-0.239 -0.064,-0.114 -0.014,-0.026 0.059,-0.293 0.856,-3.687 2.083,-1.049 0.063,-0.433 -0.113,-0.28 -0.478,-0.383 -0.005,-0.019"
     id="Bolivar"
     inkscape:connector-curvature="0" />
  <path
     style="font-size:12px;fill:#d0d0d0;fill-rule:nonzero;stroke:#000000;stroke-width:1;stroke-linecap:butt;stroke-linejoin:bevel;stroke-miterlimit:4;stroke-opacity:1;stroke-dasharray:none;marker-start:none"
     d="m 4.4178914,22.983444 4.831,-0.257 0.691,3.326 0.2799996,2.241 -2.2239996,1.267 -2.617,0.089 0.315,-0.356 0.009,-0.009 0.338,-1.403 0,-0.011 -0.031,-0.98 -0.28,-0.297 -0.365,-0.662 -0.541,-1.547 0.555,-0.162 0.13,-0.257 -0.085,-0.301 -0.446,-0.301 -0.546,-0.372 -0.014,-0.008"
     id="Washington"
     inkscape:connector-curvature="0" />
  <path
     style="font-size:12px;fill:#d0d0d0;fill-rule:nonzero;stroke:#000000;stroke-width:1;stroke-linecap:butt;stroke-linejoin:bevel;stroke-miterlimit:4;stroke-opacity:1;stroke-dasharray:none;marker-start:none"
     d="m 10.219891,28.293444 0.612,2.217 -1.0499996,1.185 0.018,0.28 0.2029996,0.05 0.293,0.233 0.292,0.293 0.338,1.019 -0.013,0.167 -0.104,0.108 -0.504,0.068 -2.6139996,0.135 -0.108,-2.268 0.063,-0.189 0.054,-0.008 0.076,-0.058 0.05,-0.083 0.184,-1.004 -0.014,-0.878 2.2239996,-1.267"
     id="Sharkey"
     inkscape:connector-curvature="0" />
  <path
     style="font-size:12px;fill:#d0d0d0;fill-rule:nonzero;stroke:#000000;stroke-width:1;stroke-linecap:butt;stroke-linejoin:bevel;stroke-miterlimit:4;stroke-opacity:1;stroke-dasharray:none;marker-start:none"
     d="m 7.9958914,29.560444 0.014,0.878 -0.184,1.004 -0.05,0.083 -0.076,0.058 -0.054,0.008 -0.063,0.189 0.108,2.268 2.6139996,-0.135 0.062,0.558 -0.4849996,0.6 -0.921,1.766 -1.09,0.339 -0.113,-2.001 -1.433,0.058 -0.343,-0.107 -0.027,-0.023 -0.103,-0.09 -0.023,-0.018 -0.012,-0.024 -0.034,-0.04 -0.012,-0.022 -0.064,-0.154 -0.865,-3.92 -0.018,-0.104 0.113,-0.41 0.355,-0.573 0.087,-0.099 2.617,-0.089"
     id="Issaquena"
     inkscape:connector-curvature="0" />
  <path
     style="font-size:12px;fill:#d0d0d0;fill-rule:nonzero;stroke:#000000;stroke-width:1;stroke-linecap:butt;stroke-linejoin:bevel;stroke-miterlimit:4;stroke-opacity:1;stroke-dasharray:none;marker-start:none"
     d="m 13.914891,29.188444 4.385,1.431 -0.685,1.757 -0.108,0.171 -0.617,0.442 -3.169,1.799 -0.401,0.094 -1.072,0.924 -1.881,-1.335 -0.062,-0.558 0.504,-0.068 0.104,-0.108 0.013,-0.167 -0.338,-1.019 -0.292,-0.293 -0.293,-0.233 -0.2029996,-0.05 -0.018,-0.28 1.0499996,-1.185 2.227,-0.139 -0.059,-1.11 0.915,-0.073"
     id="Yazoo"
     inkscape:connector-curvature="0" />
  <path
     style="font-size:12px;fill:#d0d0d0;fill-rule:nonzero;stroke:#000000;stroke-width:1;stroke-linecap:butt;stroke-linejoin:bevel;stroke-miterlimit:4;stroke-opacity:1;stroke-dasharray:none;marker-start:none"
     d="m 23.451891,25.006444 1.618,2.182 0.144,2.29 -2.582,0.194 -1.835,0.13 0.04,0.586 -2.537,0.231 2.046,-4.477 1.055,-0.991 2.051,-0.145"
     id="Attala"
     inkscape:connector-curvature="0" />
  <path
     style="font-size:12px;fill:#d0d0d0;fill-rule:nonzero;stroke:#000000;stroke-width:1;stroke-linecap:butt;stroke-linejoin:bevel;stroke-miterlimit:4;stroke-opacity:1;stroke-dasharray:none;marker-start:none"
     d="m 27.364891,24.727444 2.946,-0.226 0.357,4.653 -1.095,0.076 -4.359,0.248 -0.144,-2.29 1.114,-0.085 -0.076,-1.137 1.035,-1.22 0.222,-0.019"
     id="Winston"
     inkscape:connector-curvature="0" />
  <path
     style="font-size:12px;fill:#d0d0d0;fill-rule:nonzero;stroke:#000000;stroke-width:1;stroke-linecap:butt;stroke-linejoin:bevel;stroke-miterlimit:4;stroke-opacity:1;stroke-dasharray:none;marker-start:none"
     d="m 31.854891,24.376444 3.897,-0.326 -0.076,3.868 -0.015,0.807 -4.993,0.429 -0.357,-4.653 1.544,-0.125"
     id="Noxubee"
     inkscape:connector-curvature="0" />
  <path
     style="font-size:12px;fill:#d0d0d0;fill-rule:nonzero;stroke:#000000;stroke-width:1;stroke-linecap:butt;stroke-linejoin:bevel;stroke-miterlimit:4;stroke-opacity:1;stroke-dasharray:none;marker-start:none"
     d="m 30.667891,29.154444 4.993,-0.429 -0.076,4.561 -5.675,0.455 -0.337,-4.511 1.095,-0.076"
     id="Kemper"
     inkscape:connector-curvature="0" />
  <path
     style="font-size:12px;fill:#d0d0d0;fill-rule:nonzero;stroke:#000000;stroke-width:1;stroke-linecap:butt;stroke-linejoin:bevel;stroke-miterlimit:4;stroke-opacity:1;stroke-dasharray:none;marker-start:none"
     d="m 25.213891,29.478444 4.359,-0.248 0.337,4.511 -4.353,0.32 -0.343,-4.583"
     id="Neshoba"
     inkscape:connector-curvature="0" />
  <path
     style="font-size:12px;fill:#d0d0d0;fill-rule:nonzero;stroke:#000000;stroke-width:1;stroke-linecap:butt;stroke-linejoin:bevel;stroke-miterlimit:4;stroke-opacity:1;stroke-dasharray:none;marker-start:none"
     d="m 25.213891,29.478444 0.343,4.583 -0.055,0.006 -4.403,0.292 -0.054,-0.739 -0.208,-3.232 -0.04,-0.586 1.835,-0.13 2.582,-0.194"
     id="Leake"
     inkscape:connector-curvature="0" />
  <path
     style="font-size:12px;fill:#d0d0d0;fill-rule:nonzero;stroke:#000000;stroke-width:1;stroke-linecap:butt;stroke-linejoin:bevel;stroke-miterlimit:4;stroke-opacity:1;stroke-dasharray:none;marker-start:none"
     d="m 18.299891,30.619444 2.537,-0.231 0.208,3.232 -0.541,0.654 -0.239,0.009 -0.563,0.067 -1.515,1.393 -0.59,0.657 -0.04,0.096 -0.005,0.166 0.063,0.221 -1.375,0.077 -0.558,-0.054 -0.063,-1.036 -0.398,0.021 -1.833,0.104 -0.068,-1.113 0.401,-0.094 3.169,-1.799 0.617,-0.442 0.108,-0.171 0.685,-1.757"
     id="Madison"
     inkscape:connector-curvature="0" />
  <path
     style="font-size:12px;fill:#d0d0d0;fill-rule:nonzero;stroke:#000000;stroke-width:1;stroke-linecap:butt;stroke-linejoin:bevel;stroke-miterlimit:4;stroke-opacity:1;stroke-dasharray:none;marker-start:none"
     d="m 20.503891,34.274444 0.893,4.669 0.153,2.253 -5.445,0.312 -0.279,-0.798 0.392,-1.826 0.658,-0.951 0.739,-1.05 -0.063,-0.221 0.005,-0.166 0.04,-0.096 0.59,-0.657 1.515,-1.393 0.563,-0.067 0.239,-0.009"
     id="Rankin"
     inkscape:connector-curvature="0" />
  <path
     style="font-size:12px;fill:#d0d0d0;fill-rule:nonzero;stroke:#000000;stroke-width:1;stroke-linecap:butt;stroke-linejoin:bevel;stroke-miterlimit:4;stroke-opacity:1;stroke-dasharray:none;marker-start:none"
     d="m 12.247891,35.806444 1.072,-0.924 0.068,1.113 1.833,-0.104 0.398,-0.021 0.063,1.036 0.558,0.054 1.375,-0.077 -0.739,1.05 -0.658,0.951 -0.392,1.826 0.279,0.798 -5.309,0.328 -0.237,-2.275 1.689,-3.755"
     id="Hinds"
     inkscape:connector-curvature="0" />
  <path
     style="font-size:12px;fill:#d0d0d0;fill-rule:nonzero;stroke:#000000;stroke-width:1;stroke-linecap:butt;stroke-linejoin:bevel;stroke-miterlimit:4;stroke-opacity:1;stroke-dasharray:none;marker-start:none"
     d="m 6.3248914,35.233444 1.433,-0.058 0.113,2.001 1.09,-0.339 0.921,-1.766 0.4849996,-0.6 1.881,1.335 -1.689,3.755 -0.263,0.315 -0.5359996,0.635 -1.132,1 -0.298,-0.04 -0.946,-0.294 -1.1,-1.285 1.257,-0.156 -0.076,-1.861 -1.203,-1.28 -0.009,-0.023 -0.046,-0.072 -0.031,-0.045 0,-0.014 -0.019,-0.207 0.245,-0.825 -0.077,-0.176"
     id="Warren"
     inkscape:connector-curvature="0" />
  <path
     style="font-size:12px;fill:#d0d0d0;fill-rule:nonzero;stroke:#000000;stroke-width:1;stroke-linecap:butt;stroke-linejoin:bevel;stroke-miterlimit:4;stroke-opacity:1;stroke-dasharray:none;marker-start:none"
     d="m 5.1438914,44.446444 2.564,-0.031 1.894,0.356 0.027,0.152 0.004,0.145 0.086,0.225 1.0679996,-0.063 0.058,1.131 0.055,1.127 -4.5559996,0.258 -2.448,-1.65 1.248,-1.65"
     id="Jefferson"
     inkscape:connector-curvature="0" />
  <path
     style="font-size:12px;fill:#d0d0d0;fill-rule:nonzero;stroke:#000000;stroke-width:1;stroke-linecap:butt;stroke-linejoin:bevel;stroke-miterlimit:4;stroke-opacity:1;stroke-dasharray:none;marker-start:none"
     d="m 10.558891,39.561444 0.237,2.275 -0.009,3.394 -1.0679996,0.063 -0.086,-0.225 -0.004,-0.145 -0.027,-0.152 -1.894,-0.356 -2.564,0.031 2.24,-3.269 0.946,0.294 0.298,0.04 1.132,-1 0.5359996,-0.635 0.263,-0.315"
     id="Claiborne"
     inkscape:connector-curvature="0" />
  <path
     style="font-size:12px;fill:#d0d0d0;fill-rule:nonzero;stroke:#000000;stroke-width:1;stroke-linecap:butt;stroke-linejoin:bevel;stroke-miterlimit:4;stroke-opacity:1;stroke-dasharray:none;marker-start:none"
     d="m 16.104891,41.508444 1.411,3.759 -1.312,0.536 -5.359,0.558 -0.058,-1.131 0.009,-3.394 5.309,-0.328"
     id="Copiah"
     inkscape:connector-curvature="0" />
  <path
     style="font-size:12px;fill:#d0d0d0;fill-rule:nonzero;stroke:#000000;stroke-width:1;stroke-linecap:butt;stroke-linejoin:bevel;stroke-miterlimit:4;stroke-opacity:1;stroke-dasharray:none;marker-start:none"
     d="m 21.549891,41.196444 1.068,3.381 -1.109,0.153 -2.384,0.32 -1.609,0.217 -1.411,-3.759 5.445,-0.312"
     id="Simpson"
     inkscape:connector-curvature="0" />
  <path
     style="font-size:12px;fill:#d0d0d0;fill-rule:nonzero;stroke:#000000;stroke-width:1;stroke-linecap:butt;stroke-linejoin:bevel;stroke-miterlimit:4;stroke-opacity:1;stroke-dasharray:none;marker-start:none"
     d="m 21.396891,38.943444 4.426,-0.319 0.446,5.425 -0.92,0.131 -2.731,0.397 -1.068,-3.381 -0.153,-2.253"
     id="Smith"
     inkscape:connector-curvature="0" />
  <path
     style="font-size:12px;fill:#d0d0d0;fill-rule:nonzero;stroke:#000000;stroke-width:1;stroke-linecap:butt;stroke-linejoin:bevel;stroke-miterlimit:4;stroke-opacity:1;stroke-dasharray:none;marker-start:none"
     d="m 21.044891,33.620444 0.054,0.739 4.403,-0.292 0.321,4.557 -4.426,0.319 -0.893,-4.669 0.541,-0.654"
     id="Scott"
     inkscape:connector-curvature="0" />
  <path
     style="font-size:12px;fill:#d0d0d0;fill-rule:nonzero;stroke:#000000;stroke-width:1;stroke-linecap:butt;stroke-linejoin:bevel;stroke-miterlimit:4;stroke-opacity:1;stroke-dasharray:none;marker-start:none"
     d="m 25.556891,34.061444 4.353,-0.32 0.347,4.549 -4.434,0.334 -0.321,-4.557 0.055,-0.006"
     id="Newton"
     inkscape:connector-curvature="0" />
  <path
     style="font-size:12px;fill:#d0d0d0;fill-rule:nonzero;stroke:#000000;stroke-width:1;stroke-linecap:butt;stroke-linejoin:bevel;stroke-miterlimit:4;stroke-opacity:1;stroke-dasharray:none;marker-start:none"
     d="m 29.909891,33.741444 5.675,-0.455 -0.077,3.503 -0.026,1.054 -5.225,0.447 -0.347,-4.549"
     id="Lauderdale"
     inkscape:connector-curvature="0" />
  <path
     style="font-size:12px;fill:#d0d0d0;fill-rule:nonzero;stroke:#000000;stroke-width:1;stroke-linecap:butt;stroke-linejoin:bevel;stroke-miterlimit:4;stroke-opacity:1;stroke-dasharray:none;marker-start:none"
     d="m 35.481891,37.843444 -0.073,4.323 -4.732,1.244 -0.42,-5.12 5.225,-0.447"
     id="Clarke"
     inkscape:connector-curvature="0" />
  <path
     style="font-size:12px;fill:#d0d0d0;fill-rule:nonzero;stroke:#000000;stroke-width:1;stroke-linecap:butt;stroke-linejoin:bevel;stroke-miterlimit:4;stroke-opacity:1;stroke-dasharray:none;marker-start:none"
     d="m 30.256891,38.290444 0.42,5.12 -0.357,0.053 -4.051,0.586 -0.446,-5.425 4.434,-0.334"
     id="Jasper"
     inkscape:connector-curvature="0" />
  <path
     style="font-size:12px;fill:#d0d0d0;fill-rule:nonzero;stroke:#000000;stroke-width:1;stroke-linecap:butt;stroke-linejoin:bevel;stroke-miterlimit:4;stroke-opacity:1;stroke-dasharray:none;marker-start:none"
     d="m 30.319891,43.463444 0.371,5.038 -2.217,0.155 -2.774,0.198 -0.351,-4.674 0.92,-0.131 4.051,-0.586"
     id="Jones"
     inkscape:connector-curvature="0" />
  <path
     style="font-size:12px;fill:#d0d0d0;fill-rule:nonzero;stroke:#000000;stroke-width:1;stroke-linecap:butt;stroke-linejoin:bevel;stroke-miterlimit:4;stroke-opacity:1;stroke-dasharray:none;marker-start:none"
     d="m 25.348891,44.180444 0.351,4.674 -0.577,0.04 -1.482,0.105 -0.067,-1.028 -0.199,-0.316 -0.392,-0.23 -0.396,-0.05 -0.294,-0.144 -0.649,-0.374 -0.135,-2.127 1.109,-0.153 2.731,-0.397"
     id="Covington"
     inkscape:connector-curvature="0" />
  <path
     style="font-size:12px;fill:#d0d0d0;fill-rule:nonzero;stroke:#000000;stroke-width:1;stroke-linecap:butt;stroke-linejoin:bevel;stroke-miterlimit:4;stroke-opacity:1;stroke-dasharray:none;marker-start:none"
     d="m 19.124891,45.050444 2.384,-0.32 0.135,2.127 0.649,0.374 0.294,0.144 0.396,0.05 0.392,0.23 0.199,0.316 0.067,1.028 -0.739,0.048 -1.865,0.119 0.049,0.567 -1.488,0.09 -0.108,-1.698 -0.261,-1.349 -0.104,-1.726"
     id="Jefferson Davis"
     inkscape:connector-curvature="0" />
  <path
     style="font-size:12px;fill:#d0d0d0;fill-rule:nonzero;stroke:#000000;stroke-width:1;stroke-linecap:butt;stroke-linejoin:bevel;stroke-miterlimit:4;stroke-opacity:1;stroke-dasharray:none;marker-start:none"
     d="m 17.515891,45.267444 1.609,-0.217 0.104,1.726 0.261,1.349 0.108,1.698 -0.848,0.758 -2.244,-0.045 -0.302,-4.733 1.312,-0.536"
     id="Lawrence"
     inkscape:connector-curvature="0" />
  <path
     style="font-size:12px;fill:#d0d0d0;fill-rule:nonzero;stroke:#000000;stroke-width:1;stroke-linecap:butt;stroke-linejoin:bevel;stroke-miterlimit:4;stroke-opacity:1;stroke-dasharray:none;marker-start:none"
     d="m 16.203891,45.803444 0.302,4.733 -0.184,0.012 -3.156,0.195 -0.937,0.058 -0.189,-3.381 -1.14,0.068 -0.055,-1.127 5.359,-0.558"
     id="Lincoln"
     inkscape:connector-curvature="0" />
  <path
     style="font-size:12px;fill:#d0d0d0;fill-rule:nonzero;stroke:#000000;stroke-width:1;stroke-linecap:butt;stroke-linejoin:bevel;stroke-miterlimit:4;stroke-opacity:1;stroke-dasharray:none;marker-start:none"
     d="m 6.3438914,47.746444 4.5559996,-0.258 1.14,-0.068 0.189,3.381 -3.8399996,0.217 -1.211,0.419 -0.709,-0.294 -0.125,-3.397"
     id="Franklin"
     inkscape:connector-curvature="0" />
  <path
     style="font-size:12px;fill:#d0d0d0;fill-rule:nonzero;stroke:#000000;stroke-width:1;stroke-linecap:butt;stroke-linejoin:bevel;stroke-miterlimit:4;stroke-opacity:1;stroke-dasharray:none;marker-start:none"
     d="m 3.8958914,46.096444 2.448,1.65 0.125,3.397 -0.054,-0.05 -0.775,-0.26 -0.45,0.081 -0.357,0.126 -1.478,0.609 -1.406,1.307 -0.104,0.229 -0.162,0.672 0.266,-1.389 0.41,-3.361 0.004,-0.009 0.041,-0.087 0.027,-0.053 1.176,-2.362 0.008,-0.01 0.173,-0.296 0.108,-0.194"
     id="Adams"
     inkscape:connector-curvature="0" />
  <path
     style="font-size:12px;fill:#d0d0d0;fill-rule:nonzero;stroke:#000000;stroke-width:1;stroke-linecap:butt;stroke-linejoin:bevel;stroke-miterlimit:4;stroke-opacity:1;stroke-dasharray:none;marker-start:none"
     d="m 6.4688914,51.143444 0.709,0.294 0.598,4.133 -1.281,0.063 -5.079,0.239 0.267,-2.015 0.162,-0.672 0.104,-0.229 1.406,-1.307 1.478,-0.609 0.357,-0.126 0.45,-0.081 0.775,0.26 0.054,0.05"
     id="Wilkinson"
     inkscape:connector-curvature="0" />
  <path
     style="font-size:12px;fill:#d0d0d0;fill-rule:nonzero;stroke:#000000;stroke-width:1;stroke-linecap:butt;stroke-linejoin:bevel;stroke-miterlimit:4;stroke-opacity:1;stroke-dasharray:none;marker-start:none"
     d="m 13.165891,50.743444 0.262,4.508 -0.211,0.007 -2.858,0.167 -2.5829996,0.145 -0.598,-4.133 1.211,-0.419 3.8399996,-0.217 0.937,-0.058"
     id="Amite"
     inkscape:connector-curvature="0" />
  <path
     style="font-size:12px;fill:#d0d0d0;fill-rule:nonzero;stroke:#000000;stroke-width:1;stroke-linecap:butt;stroke-linejoin:bevel;stroke-miterlimit:4;stroke-opacity:1;stroke-dasharray:none;marker-start:none"
     d="m 13.165891,50.743444 3.156,-0.195 0.284,4.503 -0.969,0.059 -2.209,0.141 -0.262,-4.508"
     id="Pike"
     inkscape:connector-curvature="0" />
  <path
     style="font-size:12px;fill:#d0d0d0;fill-rule:nonzero;stroke:#000000;stroke-width:1;stroke-linecap:butt;stroke-linejoin:bevel;stroke-miterlimit:4;stroke-opacity:1;stroke-dasharray:none;marker-start:none"
     d="m 16.505891,50.536444 2.244,0.045 0.082,1.315 0.19,0.744 0.428,0.528 0.806,0.509 0.807,0.13 0.212,0.934 -4.669,0.31 -0.284,-4.503 0.184,-0.012"
     id="Walthall"
     inkscape:connector-curvature="0" />
  <path
     style="font-size:12px;fill:#d0d0d0;fill-rule:nonzero;stroke:#000000;stroke-width:1;stroke-linecap:butt;stroke-linejoin:bevel;stroke-miterlimit:4;stroke-opacity:1;stroke-dasharray:none;marker-start:none"
     d="m 22.901891,49.047444 0.374,5.553 -0.816,0.06 -1.185,0.081 -0.212,-0.934 -0.807,-0.13 -0.806,-0.509 -0.428,-0.528 -0.19,-0.744 -0.082,-1.315 0.848,-0.758 1.488,-0.09 -0.049,-0.567 1.865,-0.119"
     id="Marion"
     inkscape:connector-curvature="0" />
  <path
     style="font-size:12px;fill:#d0d0d0;fill-rule:nonzero;stroke:#000000;stroke-width:1;stroke-linecap:butt;stroke-linejoin:bevel;stroke-miterlimit:4;stroke-opacity:1;stroke-dasharray:none;marker-start:none"
     d="m 25.122891,48.894444 0.087,1.127 1.131,-0.081 0.289,4.327 -3.354,0.333 -0.374,-5.553 0.739,-0.048 1.482,-0.105"
     id="Lamar"
     inkscape:connector-curvature="0" />
  <path
     style="font-size:12px;fill:#d0d0d0;fill-rule:nonzero;stroke:#000000;stroke-width:1;stroke-linecap:butt;stroke-linejoin:bevel;stroke-miterlimit:4;stroke-opacity:1;stroke-dasharray:none;marker-start:none"
     d="m 28.473891,48.656444 0.292,3.975 0.193,1.6 0.091,1.167 -2.24,0.156 -0.18,-1.287 -0.289,-4.327 -1.131,0.081 -0.087,-1.127 0.577,-0.04 2.774,-0.198"
     id="Forrest"
     inkscape:connector-curvature="0" />
  <path
     style="font-size:12px;fill:#d0d0d0;fill-rule:nonzero;stroke:#000000;stroke-width:1;stroke-linecap:butt;stroke-linejoin:bevel;stroke-miterlimit:4;stroke-opacity:1;stroke-dasharray:none;marker-start:none"
     d="m 35.408891,42.166444 0.261,2.528 0.429,3.362 -4.29,0.361 -1.118,0.084 -0.371,-5.038 0.357,-0.053 4.732,-1.244"
     id="Wayne"
     inkscape:connector-curvature="0" />
  <path
     style="font-size:12px;fill:#d0d0d0;fill-rule:nonzero;stroke:#000000;stroke-width:1;stroke-linecap:butt;stroke-linejoin:bevel;stroke-miterlimit:4;stroke-opacity:1;stroke-dasharray:none;marker-start:none"
     d="m 31.808891,48.417444 4.29,-0.361 0.522,4.118 0.191,1.489 -4.499,0.352 -0.504,-5.598"
     id="Greene"
     inkscape:connector-curvature="0" />
  <path
     style="font-size:12px;fill:#d0d0d0;fill-rule:nonzero;stroke:#000000;stroke-width:1;stroke-linecap:butt;stroke-linejoin:bevel;stroke-miterlimit:4;stroke-opacity:1;stroke-dasharray:none;marker-start:none"
     d="m 30.690891,48.501444 1.118,-0.084 0.504,5.598 -0.478,1.162 -2.785,0.221 -0.091,-1.167 -0.193,-1.6 -0.292,-3.975 2.217,-0.155"
     id="Perry"
     inkscape:connector-curvature="0" />
  <path
     style="font-size:12px;fill:#d0d0d0;fill-rule:nonzero;stroke:#000000;stroke-width:1;stroke-linecap:butt;stroke-linejoin:bevel;stroke-miterlimit:4;stroke-opacity:1;stroke-dasharray:none;marker-start:none"
     d="m 31.834891,55.177444 0.175,2.253 0.06,0.749 -3.858,0.284 -0.051,0.387 -1.122,0.077 -0.229,-3.373 2.24,-0.156 2.785,-0.221"
     id="Stone"
     inkscape:connector-curvature="0" />
  <path
     style="font-size:12px;fill:#d0d0d0;fill-rule:nonzero;stroke:#000000;stroke-width:1;stroke-linecap:butt;stroke-linejoin:bevel;stroke-miterlimit:4;stroke-opacity:1;stroke-dasharray:none;marker-start:none"
     d="m 26.629891,54.267444 0.18,1.287 0.229,3.373 -1.532,0.104 -0.681,0.428 0.085,1.312 -1.09,0.815 -0.487,0.032 -1.852,-2.551 0.123,-0.921 0.134,-0.68 0.167,-0.824 0.145,-0.603 0.026,-0.028 0.09,-0.013 0.069,-0.009 0.111,-0.248 0.136,-0.681 -0.023,-0.4 0.816,-0.06 3.354,-0.333"
     id="Pearl River"
     inkscape:connector-curvature="0" />
  <path
     style="font-size:12px;fill:#d0d0d0;fill-rule:nonzero;stroke:#000000;stroke-width:1;stroke-linecap:butt;stroke-linejoin:bevel;stroke-miterlimit:4;stroke-opacity:1;stroke-dasharray:none;marker-start:none"
     d="m 23.333891,61.618444 0.487,-0.032 1.09,-0.815 -0.085,-1.312 0.681,-0.428 1.532,-0.104 0.257,3.534 -1.87,2.61 -0.515,0.031 -0.021,0.005 -0.027,-0.019 -0.04,-0.027 -0.028,-0.018 -0.082,-0.095 -0.242,-0.283 -0.108,-0.208 -0.353,-0.67 -0.009,-0.069 0.028,-0.108 0.103,-0.261 -0.017,-0.239 -0.69,-1.402 -0.072,-0.073 -0.019,-0.017"
     id="Hancock"
     inkscape:connector-curvature="0" />
  <path
     style="font-size:12px;fill:#d0d0d0;fill-rule:nonzero;stroke:#000000;stroke-width:1;stroke-linecap:butt;stroke-linejoin:bevel;stroke-miterlimit:4;stroke-opacity:1;stroke-dasharray:none;marker-start:none"
     d="m 32.312891,54.015444 4.499,-0.352 0.414,3.363 -5.216,0.404 -0.175,-2.253 0.478,-1.162"
     id="George"
     inkscape:connector-curvature="0" />
</svg>
