<?xml version="1.0" encoding="UTF-8" standalone="no"?>
<!-- Created with Inkscape (http://www.inkscape.org/) -->

<svg
   xmlns:dc="http://purl.org/dc/elements/1.1/"
   xmlns:cc="http://creativecommons.org/ns#"
   xmlns:rdf="http://www.w3.org/1999/02/22-rdf-syntax-ns#"
   xmlns:svg="http://www.w3.org/2000/svg"
   xmlns="http://www.w3.org/2000/svg"
   xmlns:sodipodi="http://sodipodi.sourceforge.net/DTD/sodipodi-0.dtd"
   xmlns:inkscape="http://www.inkscape.org/namespaces/inkscape"
   version="1.0"
   width="61"
   height="54.959999"
   sodipodi:version="0.32"
   inkscape:version="0.48.2 r9819"
   sodipodi:docname="la.svg"
   inkscape:output_extension="org.inkscape.output.svg.inkscape"
   id="svg3057">
  <metadata
     id="metadata3059">
    <rdf:RDF>
      <cc:Work
         rdf:about="">
        <dc:format>image/svg+xml</dc:format>
        <dc:type
           rdf:resource="http://purl.org/dc/dcmitype/StillImage" />
      </cc:Work>
    </rdf:RDF>
  </metadata>
  <defs
     id="defs3061" />
  <sodipodi:namedview
     pagecolor="#ffffff"
     bordercolor="#666666"
     borderopacity="1"
     objecttolerance="10"
     gridtolerance="10"
     guidetolerance="10"
     inkscape:pageopacity="0"
     inkscape:pageshadow="2"
     inkscape:window-width="1366"
     inkscape:window-height="716"
     fit-margin-top="0"
     fit-margin-left="0"
     fit-margin-right="0"
     fit-margin-bottom="0"
     inkscape:zoom="4.5491794"
     inkscape:cx="-7.9704003"
     inkscape:cy="36.542592"
     inkscape:window-x="-8"
     inkscape:window-y="-8"
     inkscape:window-maximized="1"
     inkscape:current-layer="svg3057"
     id="namedview3063"
     showgrid="false" />
  <path
     style="font-size:12px;fill:#d0d0d0;fill-rule:nonzero;stroke:#000000;stroke-width:1;stroke-linecap:butt;stroke-linejoin:bevel;stroke-miterlimit:4;stroke-opacity:1;stroke-dasharray:none;marker-start:none"
     d="m 44.591879,31.538765 4.61,0.307 1.852,2.551 0.019,0.017 0.072,0.073 0.69,1.402 0.017,0.239 -0.103,0.261 -0.028,0.108 0.009,0.069 0.353,0.67 0.108,0.208 0.242,0.283 0.082,0.095 0.028,0.018 0.04,0.027 0.027,0.019 0.021,-0.005 0.515,-0.031 -1.072,0.44 -0.072,-0.045 -0.619,-0.202 -2.175,-0.172 -0.258,0.1 -1.045,0.627 -1.236,-0.469 -1.554,-0.324 -0.523,-6.266"
     id="St. Tammany"
     inkscape:connector-curvature="0" />
  <path
     style="font-size:12px;fill:#d0d0d0;fill-rule:nonzero;stroke:#000000;stroke-width:1;stroke-linecap:butt;stroke-linejoin:bevel;stroke-miterlimit:4;stroke-opacity:1;stroke-dasharray:none;marker-start:none"
     d="m 48.994879,27.519765 1.185,-0.081 0.023,0.4 -0.136,0.681 -0.111,0.248 -0.069,0.009 -0.09,0.013 -0.026,0.028 -0.145,0.603 -0.167,0.824 -0.134,0.68 -0.123,0.921 -4.61,-0.307 -0.005,-0.23 -0.802,-1.91 -0.347,-0.289 -0.081,-1.221 0.969,-0.059 4.669,-0.31"
     id="Washington"
     inkscape:connector-curvature="0" />
  <path
     style="font-size:12px;fill:#d0d0d0;fill-rule:nonzero;stroke:#000000;stroke-width:1;stroke-linecap:butt;stroke-linejoin:bevel;stroke-miterlimit:4;stroke-opacity:1;stroke-dasharray:none;marker-start:none"
     d="m 8.4668788,13.406765 0.469,0.005 2.6420002,1.054 0.13,0.127 0.265,0.4 0.208,0.65 0.005,0.058 -0.059,0.748 -1.014,1.2 -0.455,0.206 -0.438,0 -0.3190002,-0.113 -0.06,-0.427 -0.982,-0.725 -0.117,-0.144 -0.69,-1.074 -0.419,-1.383 -0.724,-0.545 1.558,-0.037"
     id="Red River"
     inkscape:connector-curvature="0" />
  <path
     style="font-size:12px;fill:#d0d0d0;fill-rule:nonzero;stroke:#000000;stroke-width:1;stroke-linecap:butt;stroke-linejoin:bevel;stroke-miterlimit:4;stroke-opacity:1;stroke-dasharray:none;marker-start:none"
     d="m 14.736879,8.7197649 1.181,1.6640001 -0.275,3.974 -1.349,0.032 -2.716,0.076 -2.6420002,-1.054 0.541,-2.267 1.4740002,-0.045 0.956,-0.609 -0.015,-0.32 -0.378,-1.3480001 3.223,-0.103"
     id="Bienville"
     inkscape:connector-curvature="0" />
  <path
     style="font-size:12px;fill:#d0d0d0;fill-rule:nonzero;stroke:#000000;stroke-width:1;stroke-linecap:butt;stroke-linejoin:bevel;stroke-miterlimit:4;stroke-opacity:1;stroke-dasharray:none;marker-start:none"
     d="m 16.340879,6.4067647 0.892,-0.026 0.464,0.054 0.352,0.077 1.686,0.933 0.045,1.1270002 0.036,1.125 -2.24,0.079 0.027,0.5570001 -1.685,0.051 -1.181,-1.6640001 1.604,-2.3130002"
     id="Lincoln"
     inkscape:connector-curvature="0" />
  <path
     style="font-size:12px;fill:#d0d0d0;fill-rule:nonzero;stroke:#000000;stroke-width:1;stroke-linecap:butt;stroke-linejoin:bevel;stroke-miterlimit:4;stroke-opacity:1;stroke-dasharray:none;marker-start:none"
     d="m 15.917879,10.383765 1.685,-0.051 -0.027,-0.5570001 2.24,-0.079 0.041,1.0380001 0.063,0.158 1.108,1.023 0.018,0.558 0.063,1.699 -5.466,0.185 0.275,-3.974"
     id="Jackson"
     inkscape:connector-curvature="0" />
  <path
     style="font-size:12px;fill:#d0d0d0;fill-rule:nonzero;stroke:#000000;stroke-width:1;stroke-linecap:butt;stroke-linejoin:bevel;stroke-miterlimit:4;stroke-opacity:1;stroke-dasharray:none;marker-start:none"
     d="m 15.642879,14.357765 5.466,-0.185 0.109,2.821 -0.482,1.713 -2.804,0.095 0.014,0.609 -0.041,0.523 -3.808,0.139 0.676,-2.105 0.198,-0.905 0.019,-0.158 -0.072,-0.956 -0.231,-0.833 -0.393,-0.726 1.349,-0.032"
     id="Winn"
     inkscape:connector-curvature="0" />
  <path
     style="font-size:12px;fill:#d0d0d0;fill-rule:nonzero;stroke:#000000;stroke-width:1;stroke-linecap:butt;stroke-linejoin:bevel;stroke-miterlimit:4;stroke-opacity:1;stroke-dasharray:none;marker-start:none"
     d="m 21.045879,12.473765 3.016,-0.116 1.586,1.559 0.239,0.32 0.059,0.108 0.027,0.334 -0.572,0.351 0.257,0.91 0.147,0.298 -1.238,0.626 -3.349,0.13 -0.109,-2.821 -0.063,-1.699"
     id="Caldwell"
     inkscape:connector-curvature="0" />
  <path
     style="font-size:12px;fill:#d0d0d0;fill-rule:nonzero;stroke:#000000;stroke-width:1;stroke-linecap:butt;stroke-linejoin:bevel;stroke-miterlimit:4;stroke-opacity:1;stroke-dasharray:none;marker-start:none"
     d="m 23.489879,6.6107647 1.762,2.7360002 -1.19,3.0110001 -3.016,0.116 -0.018,-0.558 -1.108,-1.023 -0.063,-0.158 -0.041,-1.0380001 -0.036,-1.125 1.664,-0.054 0.297,-0.091 0.112,-0.077 1.415,-1.384 0.222,-0.355"
     id="Ouachita"
     inkscape:connector-curvature="0" />
  <path
     style="font-size:12px;fill:#d0d0d0;fill-rule:nonzero;stroke:#000000;stroke-width:1;stroke-linecap:butt;stroke-linejoin:bevel;stroke-miterlimit:4;stroke-opacity:1;stroke-dasharray:none;marker-start:none"
     d="m 30.271879,8.1347647 -0.106,0.5760002 -0.128,1.7130001 -1.685,0.09 -0.406,0.238 -0.943,1.123 -0.49,1.131 -0.866,0.911 -1.586,-1.559 1.19,-3.0110001 0.396,-0.36 0.757,-0.5379999 0.73,-0.247 0.668,-0.335 0.103,-0.112 0.149,-0.27 0.099,-0.306 -0.013,-0.05 0.45,0.145 0.473,0.91 1.208,-0.049"
     id="Richland"
     inkscape:connector-curvature="0" />
  <path
     style="font-size:12px;fill:#d0d0d0;fill-rule:nonzero;stroke:#000000;stroke-width:1;stroke-linecap:butt;stroke-linejoin:bevel;stroke-miterlimit:4;stroke-opacity:1;stroke-dasharray:none;marker-start:none"
     d="m 29.988879,13.045765 -0.708,4.188 -0.266,-0.735 -0.55,-0.261 -0.017,0.108 -0.197,0.334 -0.399,0.441 -0.278,0.203 -0.52,0.144 -0.162,-0.207 -0.261,-0.401 -0.392,-0.397 -0.276,-0.176 -0.158,-0.049 -0.147,-0.298 -0.257,-0.91 0.572,-0.351 -0.027,-0.334 -0.059,-0.108 -0.239,-0.32 0.866,-0.911 0.49,-1.131 0.943,-1.123 0.406,-0.238 1.685,-0.09 -0.049,2.622"
     id="Franklin"
     inkscape:connector-curvature="0" />
  <path
     style="font-size:12px;fill:#d0d0d0;fill-rule:nonzero;stroke:#000000;stroke-width:1;stroke-linecap:butt;stroke-linejoin:bevel;stroke-miterlimit:4;stroke-opacity:1;stroke-dasharray:none;marker-start:none"
     d="m 29.988879,13.045765 1.87,-0.076 0.054,-0.103 0.189,-0.135 1.203,-0.388 0.491,-0.082 0.064,0 0.141,0.117 0.003,0.28 0,0.012 1.1,1.285 -2.24,3.269 -1.248,1.65 -0.108,0.194 -1.817,-0.172 -0.41,-1.663 0.708,-4.188"
     id="Tensas"
     inkscape:connector-curvature="0" />
  <path
     style="font-size:12px;fill:#d0d0d0;fill-rule:nonzero;stroke:#000000;stroke-width:1;stroke-linecap:butt;stroke-linejoin:bevel;stroke-miterlimit:4;stroke-opacity:1;stroke-dasharray:none;marker-start:none"
     d="m 34.121879,8.1877647 -0.245,0.8250002 0.019,0.207 0,0.014 0.031,0.045 0.046,0.072 0.009,0.023 1.203,1.2800001 0.076,1.861 -1.257,0.156 0,-0.012 -0.003,-0.28 -0.141,-0.117 -0.064,0 -0.491,0.082 -1.203,0.388 -0.189,0.135 -0.054,0.103 -1.87,0.076 0.049,-2.622 0.128,-1.7130001 3.956,-0.5230002"
     id="Madison"
     inkscape:connector-curvature="0" />
  <path
     style="font-size:12px;fill:#d0d0d0;fill-rule:nonzero;stroke:#000000;stroke-width:1;stroke-linecap:butt;stroke-linejoin:bevel;stroke-miterlimit:4;stroke-opacity:1;stroke-dasharray:none;marker-start:none"
     d="m 33.011879,2.5267647 -0.355,0.573 -0.113,0.41 0.018,0.104 0.865,3.92 0.064,0.154 0.012,0.022 0.034,0.04 0.012,0.024 0.023,0.018 0.103,0.09 0.027,0.023 0.343,0.107 0.077,0.176 -3.956,0.5230002 0.106,-0.5760002 0.308,-0.294 0.103,-0.314 0.324,-1.245 0.166,-1.429 0.05,-0.379 0.393,-1.154 0.333,-0.752 1.063,-0.041"
     id="East Carroll"
     inkscape:connector-curvature="0" />
  <path
     style="font-size:12px;fill:#d0d0d0;fill-rule:nonzero;stroke:#000000;stroke-width:1;stroke-linecap:butt;stroke-linejoin:bevel;stroke-miterlimit:4;stroke-opacity:1;stroke-dasharray:none;marker-start:none"
     d="m 31.948879,2.5677647 -0.333,0.752 -0.393,1.154 -0.05,0.379 -0.166,1.429 -0.324,1.245 -0.103,0.314 -0.308,0.294 -1.208,0.049 -0.473,-0.91 -0.45,-0.145 0.396,-1.113 1.509,-3.096 0.064,-0.277 1.839,-0.075"
     id="West Carroll"
     inkscape:connector-curvature="0" />
  <path
     style="font-size:12px;fill:#d0d0d0;fill-rule:nonzero;stroke:#000000;stroke-width:1;stroke-linecap:butt;stroke-linejoin:bevel;stroke-miterlimit:4;stroke-opacity:1;stroke-dasharray:none;marker-start:none"
     d="m 29.843879,2.6577647 0.266,-0.015 -0.064,0.277 -1.509,3.096 -0.396,1.113 0.013,0.05 -0.099,0.306 -0.149,0.27 -0.103,0.112 -0.668,0.335 -0.73,0.247 -0.757,0.5380002 -0.396,0.36 -1.762,-2.7360002 0.049,-0.04 0.081,-0.176 -0.032,-0.681 -0.391,-1.109 0.098,-1.681 6.549,-0.266"
     id="Morehouse"
     inkscape:connector-curvature="0" />
  <path
     style="font-size:12px;fill:#d0d0d0;fill-rule:nonzero;stroke:#000000;stroke-width:1;stroke-linecap:butt;stroke-linejoin:bevel;stroke-miterlimit:4;stroke-opacity:1;stroke-dasharray:none;marker-start:none"
     d="m 23.294879,2.9237647 -0.098,1.681 0.391,1.109 0.032,0.681 -0.081,0.176 -0.049,0.04 -0.222,0.355 -1.415,1.384 -0.112,0.077 -0.297,0.091 -1.664,0.054 -0.045,-1.1270005 -1.686,-0.933 -0.352,-0.077 -0.464,-0.054 -0.892,0.026 -0.109,-3.293 7.063,-0.19"
     id="Union"
     inkscape:connector-curvature="0" />
  <path
     style="font-size:12px;fill:#d0d0d0;fill-rule:nonzero;stroke:#000000;stroke-width:1;stroke-linecap:butt;stroke-linejoin:bevel;stroke-miterlimit:4;stroke-opacity:1;stroke-dasharray:none;marker-start:none"
     d="m 13.392879,3.1667647 2.839,-0.053 0.109,3.293 -1.604,2.3130002 -3.223,0.103 0.027,-0.6350002 -0.163,-1.068 -0.548,0.023 -0.127,-3.903 2.69,-0.073"
     id="Claiborne"
     inkscape:connector-curvature="0" />
  <path
     style="font-size:12px;fill:#d0d0d0;fill-rule:nonzero;stroke:#000000;stroke-width:1;stroke-linecap:butt;stroke-linejoin:bevel;stroke-miterlimit:4;stroke-opacity:1;stroke-dasharray:none;marker-start:none"
     d="m 7.9898788,3.3117647 2.7130002,-0.072 0.127,3.903 0.548,-0.023 0.163,1.068 -0.027,0.6350002 0.378,1.3480001 0.015,0.32 -0.956,0.609 -1.4740002,0.045 -0.744,0.013 -0.091,-1.13 -0.071,-3.4040003 -0.113,-1.401 -0.307,-0.32 -0.378,-0.564 -0.202,-0.36 0,-0.194 0.089,-0.469 0.33,-0.004"
     id="Webster"
     inkscape:connector-curvature="0" />
  <path
     style="font-size:12px;fill:#d0d0d0;fill-rule:nonzero;stroke:#000000;stroke-width:1;stroke-linecap:butt;stroke-linejoin:bevel;stroke-miterlimit:4;stroke-opacity:1;stroke-dasharray:none;marker-start:none"
     d="m 7.6598788,3.3157647 -0.089,0.469 0,0.194 0.202,0.36 0.378,0.564 0.307,0.32 0.113,1.401 0.071,3.4040003 0.091,1.13 0.744,-0.013 -0.541,2.267 -0.469,-0.005 -0.96,-1.248 -1.208,-0.644 -1.356,-4.1650003 -0.113,-0.609 -0.464,-3.209 0.018,-0.049 0.117,-0.099 0.104,0 3.055,-0.068"
     id="Bossier"
     inkscape:connector-curvature="0" />
  <path
     style="font-size:12px;fill:#d0d0d0;fill-rule:nonzero;stroke:#000000;stroke-width:1;stroke-linecap:butt;stroke-linejoin:bevel;stroke-miterlimit:4;stroke-opacity:1;stroke-dasharray:none;marker-start:none"
     d="m 4.5008788,3.3837647 -0.117,0.099 -0.018,0.049 0.464,3.209 0.113,0.609 1.356,4.1650003 1.208,0.644 0.96,1.248 -1.558,0.037 -0.01,-0.424 -0.104,-0.157 -0.252,-0.271 -0.226,-0.167 -0.888,-0.298 -0.189,-0.04 -0.206,0.045 -0.159,0.1 -0.058,0.048 -0.542,0.64 -0.03,0.19 0.022,0.077 -0.036,0.112 -0.383,0.353 -0.587,0.418 -0.995,0.018 -0.14,-6.4270003 -0.045,-2.434 -0.04,-1.7890001 2.46,-0.054"
     id="Caddo"
     inkscape:connector-curvature="0" />
  <path
     style="font-size:12px;fill:#d0d0d0;fill-rule:nonzero;stroke:#000000;stroke-width:1;stroke-linecap:butt;stroke-linejoin:bevel;stroke-miterlimit:4;stroke-opacity:1;stroke-dasharray:none;marker-start:none"
     d="m 6.9088788,13.443765 0.724,0.545 0.419,1.383 0.69,1.074 0.117,0.144 0.982,0.725 -0.91,1.149 -4.777,0.127 -1.537,-1.717 -0.351,-2.786 0.995,-0.018 0.587,-0.418 0.383,-0.353 0.036,-0.112 -0.022,-0.077 0.03,-0.19 0.542,-0.64 0.058,-0.048 0.159,-0.1 0.206,-0.045 0.189,0.04 0.888,0.298 0.226,0.167 0.252,0.271 0.104,0.157 0.01,0.424"
     id="De Soto"
     inkscape:connector-curvature="0" />
  <path
     style="font-size:12px;fill:#d0d0d0;fill-rule:nonzero;stroke:#000000;stroke-width:1;stroke-linecap:butt;stroke-linejoin:bevel;stroke-miterlimit:4;stroke-opacity:1;stroke-dasharray:none;marker-start:none"
     d="m 4.1538788,18.590765 4.777,-0.127 0.036,1.686 1.1270002,-0.027 0.082,2.272 1.104,-0.032 0.072,2.245 -1.6990002,0.048 -1.568,1.227 -0.127,0.401 -0.054,0.704 0.027,0.022 -0.513,0.135 -0.114,-0.667 -0.076,-0.423 -0.329,-1.434 -1.01,-1.465 -1.185,-1.245 -0.55,-3.32"
     id="Sabine"
     inkscape:connector-curvature="0" />
  <path
     style="font-size:12px;fill:#d0d0d0;fill-rule:nonzero;stroke:#000000;stroke-width:1;stroke-linecap:butt;stroke-linejoin:bevel;stroke-miterlimit:4;stroke-opacity:1;stroke-dasharray:none;marker-start:none"
     d="m 11.577879,14.465765 2.716,-0.076 0.393,0.726 0.231,0.833 0.072,0.956 -0.019,0.158 -0.198,0.905 -0.676,2.105 2.866,2.375 -2.808,2.304 -2.803,-0.144 -0.072,-2.245 -1.104,0.032 -0.082,-2.272 -1.1270002,0.027 -0.036,-1.686 0.91,-1.149 0.06,0.427 0.3190002,0.113 0.438,0 0.455,-0.206 1.014,-1.2 0.059,-0.748 -0.005,-0.058 -0.208,-0.65 -0.265,-0.4 -0.13,-0.127"
     id="Natchitoches"
     inkscape:connector-curvature="0" />
  <path
     style="font-size:12px;fill:#d0d0d0;fill-rule:nonzero;stroke:#000000;stroke-width:1;stroke-linecap:butt;stroke-linejoin:bevel;stroke-miterlimit:4;stroke-opacity:1;stroke-dasharray:none;marker-start:none"
     d="m 14.096879,20.072765 3.808,-0.139 0.041,-0.523 -0.014,-0.609 2.804,-0.095 0.126,1.633 0.36,0.995 0.519,0.722 0.501,0.55 0.476,0.138 -1.167,0.299 -3.574,1.014 -0.293,0.04 -0.334,-0.117 -0.075,-0.054 -0.149,-0.664 -0.163,-0.815 -2.866,-2.375"
     id="Grant"
     inkscape:connector-curvature="0" />
  <path
     style="font-size:12px;fill:#d0d0d0;fill-rule:nonzero;stroke:#000000;stroke-width:1;stroke-linecap:butt;stroke-linejoin:bevel;stroke-miterlimit:4;stroke-opacity:1;stroke-dasharray:none;marker-start:none"
     d="m 21.217879,16.993765 3.349,-0.13 0.298,7.762 -0.871,-0.09 -1.276,-1.791 -0.476,-0.138 -0.501,-0.55 -0.519,-0.722 -0.36,-0.995 -0.126,-1.633 0.482,-1.713"
     id="La Salle"
     inkscape:connector-curvature="0" />
  <path
     style="font-size:12px;fill:#d0d0d0;fill-rule:nonzero;stroke:#000000;stroke-width:1;stroke-linecap:butt;stroke-linejoin:bevel;stroke-miterlimit:4;stroke-opacity:1;stroke-dasharray:none;marker-start:none"
     d="m 24.566879,16.863765 1.238,-0.626 0.158,0.049 0.276,0.176 0.392,0.397 0.261,0.401 0.162,0.207 0.52,-0.144 0.278,-0.203 0.399,-0.441 0.197,-0.334 0.017,-0.108 0.55,0.261 0.266,0.735 0.41,1.663 -1.511,0.189 -0.089,0.081 -1.18,1.42 -0.073,0.126 -0.41,1.664 -0.059,0.368 0.05,1.957 0.037,0.118 0.35,0.491 -0.612,-0.302 -0.226,-0.056 -0.193,0.034 -0.127,0.13 -0.076,0.198 0.107,0.261 0.132,0.159 0.036,0.086 -0.212,0.126 -0.523,-0.033 -0.05,-0.053 -0.197,-0.803 0,-0.432 -0.298,-7.762"
     id="Catahoula"
     inkscape:connector-curvature="0" />
  <path
     style="font-size:12px;fill:#d0d0d0;fill-rule:nonzero;stroke:#000000;stroke-width:1;stroke-linecap:butt;stroke-linejoin:bevel;stroke-miterlimit:4;stroke-opacity:1;stroke-dasharray:none;marker-start:none"
     d="m 29.690879,18.896765 1.817,0.172 -0.173,0.296 -0.008,0.01 -1.176,2.362 -0.027,0.053 -0.041,0.087 -0.004,0.009 -0.41,3.361 -0.266,1.389 -0.267,2.015 -0.265,0.387 0.032,-0.311 -0.753,-0.609 0.081,-0.194 0.054,-0.188 0.294,-1.493 -0.127,-0.152 -0.201,-0.104 -0.056,0.014 -0.37,-0.051 -0.522,-0.139 -0.249,-0.157 -0.248,-0.343 -0.35,-0.491 -0.037,-0.118 -0.05,-1.957 0.059,-0.368 0.41,-1.664 0.073,-0.126 1.18,-1.42 0.089,-0.081 1.511,-0.189"
     id="Concordia"
     inkscape:connector-curvature="0" />
  <path
     style="font-size:12px;fill:#d0d0d0;fill-rule:nonzero;stroke:#000000;stroke-width:1;stroke-linecap:butt;stroke-linejoin:bevel;stroke-miterlimit:4;stroke-opacity:1;stroke-dasharray:none;marker-start:none"
     d="m 23.993879,24.535765 0.871,0.09 0,0.432 0.197,0.803 0.05,0.053 0.523,0.033 0.212,-0.126 -0.036,-0.086 -0.132,-0.159 -0.107,-0.261 0.076,-0.198 0.127,-0.13 0.193,-0.034 0.226,0.056 0.612,0.302 0.248,0.343 0.249,0.157 0.522,0.139 0.37,0.051 0.056,-0.014 0.201,0.104 0.127,0.152 -0.294,1.493 -0.054,0.188 -0.081,0.194 -0.274,0.343 -0.624,2.231 -4.394,0.176 -0.807,-1.469 0.695,-0.369 -0.266,-1.799 -0.091,-2.461 0.1,-0.086 0.076,-0.031 0.046,0.008 0.684,0.321 0.699,-0.446"
     id="Avoyelles"
     inkscape:connector-curvature="0" />
  <path
     style="font-size:12px;fill:#d0d0d0;fill-rule:nonzero;stroke:#000000;stroke-width:1;stroke-linecap:butt;stroke-linejoin:bevel;stroke-miterlimit:4;stroke-opacity:1;stroke-dasharray:none;marker-start:none"
     d="m 16.962879,22.447765 0.163,0.815 0.149,0.664 0.075,0.054 0.334,0.117 0.293,-0.04 3.574,-1.014 1.167,-0.299 1.276,1.791 -0.699,0.446 -0.684,-0.321 -0.046,-0.008 -0.076,0.031 -0.1,0.086 0.091,2.461 0.266,1.799 -0.695,0.369 -1.117,-0.423 -2.353,1.441 -2.492,0.166 -0.099,-1.562 -0.126,-3.107 -0.577,-0.82 -0.19,-0.09 -0.942,-0.252 2.808,-2.304"
     id="Rapides"
     inkscape:connector-curvature="0" />
  <path
     style="font-size:12px;fill:#d0d0d0;fill-rule:nonzero;stroke:#000000;stroke-width:1;stroke-linecap:butt;stroke-linejoin:bevel;stroke-miterlimit:4;stroke-opacity:1;stroke-dasharray:none;marker-start:none"
     d="m 11.351879,24.607765 2.803,0.144 0.942,0.252 0.19,0.09 0.577,0.82 0.126,3.107 0.099,1.562 -1.709,0.208 -1.716,-0.004 -3.1780002,0.085 -1.514,0.226 -0.041,-4.088 -0.027,-0.022 0.054,-0.704 0.127,-0.401 1.568,-1.227 1.6990002,-0.048"
     id="Vernon"
     inkscape:connector-curvature="0" />
  <path
     style="font-size:12px;fill:#d0d0d0;fill-rule:nonzero;stroke:#000000;stroke-width:1;stroke-linecap:butt;stroke-linejoin:bevel;stroke-miterlimit:4;stroke-opacity:1;stroke-dasharray:none;marker-start:none"
     d="m 18.580879,30.416765 2.353,-1.441 1.117,0.423 0.807,1.469 0.491,1.023 0.028,0.703 0.013,0.496 -0.46,1.393 -0.464,0.401 -1.695,0.063 -0.369,0.068 -0.116,0.131 -0.353,0.585 -1.541,0.046 0.019,-0.086 0.071,-0.073 0.099,-0.175 0.321,-0.78 -0.024,-0.059 -0.148,-0.135 -0.095,-2.353 -0.018,-0.481 -0.036,-1.218"
     id="Evangeline"
     inkscape:connector-curvature="0" />
  <path
     style="font-size:12px;fill:#d0d0d0;fill-rule:nonzero;stroke:#000000;stroke-width:1;stroke-linecap:butt;stroke-linejoin:bevel;stroke-miterlimit:4;stroke-opacity:1;stroke-dasharray:none;marker-start:none"
     d="m 16.088879,30.582765 2.492,-0.166 0.036,1.218 0.018,0.481 0.095,2.353 0.148,0.135 0.024,0.059 -0.321,0.78 -0.099,0.175 -0.071,0.073 -1.597,0.049 -0.883,0.464 -1.767,0.271 -1.293,0.224 -0.059,-2.244 0.924,-0.037 0.753,-0.021 -0.054,-2.596 -0.055,-1.01 1.709,-0.208"
     id="Allen"
     inkscape:connector-curvature="0" />
  <path
     style="font-size:12px;fill:#d0d0d0;fill-rule:nonzero;stroke:#000000;stroke-width:1;stroke-linecap:butt;stroke-linejoin:bevel;stroke-miterlimit:4;stroke-opacity:1;stroke-dasharray:none;marker-start:none"
     d="m 14.379879,30.790765 0.055,1.01 0.054,2.596 -0.753,0.021 -0.924,0.037 0.059,2.244 0.009,0.267 -2.827,0.085 -0.027,-1.127 -1.1260002,0.027 0.031,1.132 -2.852,0.076 0.012,-0.012 0.425,-0.357 0.045,-0.112 0.004,-0.067 -0.157,-0.804 -0.311,-0.375 -0.032,-0.034 0,-0.005 0.126,-0.451 1.582,-2.979 0.199,-0.865 1.514,-0.226 3.1780002,-0.085 1.716,0.004"
     id="Beauregard"
     inkscape:connector-curvature="0" />
  <path
     style="font-size:12px;fill:#d0d0d0;fill-rule:nonzero;stroke:#000000;stroke-width:1;stroke-linecap:butt;stroke-linejoin:bevel;stroke-miterlimit:4;stroke-opacity:1;stroke-dasharray:none;marker-start:none"
     d="m 18.391879,35.776765 0.252,5.003 -1.239,0.751 -2.88,0.082 -0.014,-0.568 1.19,-0.068 -0.199,-0.572 -0.274,-0.333 -1.177,-1.308 -1.162,-1.501 -0.009,-0.297 -0.009,-0.267 1.293,-0.224 1.767,-0.271 0.883,-0.464 1.597,-0.049 -0.019,0.086"
     id="Jefferson Davis"
     inkscape:connector-curvature="0" />
  <path
     style="font-size:12px;fill:#d0d0d0;fill-rule:nonzero;stroke:#000000;stroke-width:1;stroke-linecap:butt;stroke-linejoin:bevel;stroke-miterlimit:4;stroke-opacity:1;stroke-dasharray:none;marker-start:none"
     d="m 12.879879,36.965765 0.009,0.297 1.162,1.501 1.177,1.308 0.274,0.333 0.199,0.572 -1.19,0.068 0.014,0.568 -1.474,0.05 -0.005,-0.19 -6.6170002,0.184 -0.017,0.018 0.008,-2.491 -0.341,-2.025 2.852,-0.076 -0.031,-1.132 1.1260002,-0.027 0.027,1.127 2.827,-0.085"
     id="Calcasieu"
     inkscape:connector-curvature="0" />
  <path
     style="font-size:12px;fill:#d0d0d0;fill-rule:nonzero;stroke:#000000;stroke-width:1;stroke-linecap:butt;stroke-linejoin:bevel;stroke-miterlimit:4;stroke-opacity:1;stroke-dasharray:none;marker-start:none"
     d="m 17.404879,41.530765 1.375,-0.058 0.167,4.408 0.017,1.496 -0.406,-0.103 -1.031,-0.342 -0.934,-0.406 -0.513,-0.221 -0.789,-0.374 -0.373,-0.15 -0.015,-0.003 -1.288,-0.415 -1.006,-0.244 -0.564,-0.072 -0.45,0.004 -2.3260002,0.181 -0.708,0.094 -1.08,0.163 -0.542,0.084 -0.648,0.155 -0.033,0.013 -0.062,0.023 -0.177,0.058 -0.364,0.194 -0.221,0.149 -0.207,0.176 -0.1,-2.875 1.285,-1.791 0.017,-0.018 6.6170002,-0.184 0.005,0.19 1.474,-0.05 2.88,-0.082"
     id="Cameron"
     inkscape:connector-curvature="0" />
  <path
     style="font-size:12px;fill:#d0d0d0;fill-rule:nonzero;stroke:#000000;stroke-width:1;stroke-linecap:butt;stroke-linejoin:bevel;stroke-miterlimit:4;stroke-opacity:1;stroke-dasharray:none;marker-start:none"
     d="m 18.391879,35.776765 1.541,-0.046 2.759,-0.103 0.783,0.527 0.451,1.478 0,0.284 -1.509,2.01 -0.874,0.997 -0.23,0.161 -0.217,0.1 -0.198,0.067 -2.132,-0.436 -0.122,-0.036 -0.252,-5.003"
     id="Acadia"
     inkscape:connector-curvature="0" />
  <path
     style="font-size:12px;fill:#d0d0d0;fill-rule:nonzero;stroke:#000000;stroke-width:1;stroke-linecap:butt;stroke-linejoin:bevel;stroke-miterlimit:4;stroke-opacity:1;stroke-dasharray:none;marker-start:none"
     d="m 27.251879,30.691765 0.164,0.127 0.426,0.725 0.393,0.969 0.05,0.433 -0.054,1.753 -0.122,0.474 0.446,0.612 0.474,0.676 -1.488,0.072 -0.085,-0.067 -0.558,-0.199 -0.668,0.293 -0.631,0.388 -1.673,0.969 0,-0.284 -0.451,-1.478 -0.783,-0.527 -2.759,0.103 0.353,-0.585 0.116,-0.131 0.369,-0.068 1.695,-0.063 0.464,-0.401 0.46,-1.393 -0.013,-0.496 -0.028,-0.703 -0.491,-1.023 4.394,-0.176"
     id="St. Landry"
     inkscape:connector-curvature="0" />
  <path
     style="font-size:12px;fill:#d0d0d0;fill-rule:nonzero;stroke:#000000;stroke-width:1;stroke-linecap:butt;stroke-linejoin:bevel;stroke-miterlimit:4;stroke-opacity:1;stroke-dasharray:none;marker-start:none"
     d="m 27.875879,28.460765 1.027,0.266 -0.032,0.311 0.072,1.424 0.026,0.072 0.082,0.077 0.067,0.036 1.217,0.635 1.781,0.334 0.058,0.027 0.211,0.315 0.344,0.92 -1.609,2.163 -2.398,0.109 -0.613,0.023 0.122,-0.474 0.054,-1.753 -0.05,-0.433 -0.393,-0.969 -0.426,-0.725 -0.164,-0.127 0.624,-2.231"
     id="Pointe Coupee"
     inkscape:connector-curvature="0" />
  <path
     style="font-size:12px;fill:#d0d0d0;fill-rule:nonzero;stroke:#000000;stroke-width:1;stroke-linecap:butt;stroke-linejoin:bevel;stroke-miterlimit:4;stroke-opacity:1;stroke-dasharray:none;marker-start:none"
     d="m 32.728879,32.877765 0.288,0.063 0.086,0.041 1.938,4.111 -1.888,0.103 -0.433,-0.545 -1.226,-1.331 -0.374,-0.279 1.609,-2.163"
     id="West Baton Rouge"
     inkscape:connector-curvature="0" />
  <path
     style="font-size:12px;fill:#d0d0d0;fill-rule:nonzero;stroke:#000000;stroke-width:1;stroke-linecap:butt;stroke-linejoin:bevel;stroke-miterlimit:4;stroke-opacity:1;stroke-dasharray:none;marker-start:none"
     d="m 23.925879,37.916765 1.673,-0.969 0.58,3.781 -0.139,0.506 -1.154,-0.465 -0.712,-0.496 -0.927,-0.306 -0.83,-0.041 1.509,-2.01"
     id="Lafayette"
     inkscape:connector-curvature="0" />
  <path
     style="font-size:12px;fill:#d0d0d0;fill-rule:nonzero;stroke:#000000;stroke-width:1;stroke-linecap:butt;stroke-linejoin:bevel;stroke-miterlimit:4;stroke-opacity:1;stroke-dasharray:none;marker-start:none"
     d="m 26.039879,41.234765 0.069,2.961 -0.718,0.324 -0.229,0.131 -0.554,0.379 -0.402,0.377 -0.045,0.253 0.207,0.46 0.253,0.492 0.207,0.031 1.073,0.031 -0.464,0.42 -0.06,-0.032 -0.671,0 -0.58,0.086 -0.009,0 -0.596,0.269 -0.429,0.317 -0.293,0.081 -0.026,0.004 -0.072,0.004 -0.199,0.014 -0.054,0 -2.817,-0.369 -0.649,-0.091 -0.018,0 -0.017,-1.496 -0.167,-4.408 -1.375,0.058 1.239,-0.751 0.122,0.036 2.132,0.436 0.198,-0.067 0.217,-0.1 0.23,-0.161 0.874,-0.997 0.83,0.041 0.927,0.306 0.712,0.496 1.154,0.465"
     id="Vermilion"
     inkscape:connector-curvature="0" />
  <path
     style="font-size:12px;fill:#d0d0d0;fill-rule:nonzero;stroke:#000000;stroke-width:1;stroke-linecap:butt;stroke-linejoin:bevel;stroke-miterlimit:4;stroke-opacity:1;stroke-dasharray:none;marker-start:none"
     d="m 25.900879,46.673765 0.833,-0.302 0.267,-0.058 0.374,0.054 1.767,0.78 0.03,0.049 -0.02,0.085 -0.624,0.871 -0.131,0.081 -0.437,0.135 -0.189,-0.054 -2.163,-1.036 -0.171,-0.185 0.464,-0.42 m 6.783,-6.058 1.636,0.352 -0.311,0.713 -2.412,0.314 -1.703,0.217 -0.906,1.32 -1.776,1.682 -1.103,-1.018 -0.069,-2.961 0.139,-0.506 0.488,-0.009 1.564,-0.536 0.207,-0.126 0.15,-0.04 0.319,-0.014 0.4,0.086 0.1,0.035 1.943,0.564 1.334,-0.073"
     id="Iberia"
     inkscape:connector-curvature="0" />
  <path
     style="font-size:12px;fill:#d0d0d0;fill-rule:nonzero;stroke:#000000;stroke-width:1;stroke-linecap:butt;stroke-linejoin:bevel;stroke-miterlimit:4;stroke-opacity:1;stroke-dasharray:none;marker-start:none"
     d="m 31.119879,35.040765 0.374,0.279 1.226,1.331 0.433,0.545 1.888,-0.103 1.347,-0.05 -0.774,3.38 -1.294,0.545 -1.636,-0.352 -0.01,-0.17 -0.121,-0.293 -1.163,-1.672 -0.193,-0.085 -0.208,-0.042 -0.352,0.032 -0.229,-0.018 -0.145,-0.068 -0.143,-0.118 -0.397,-0.661 -0.063,-0.177 -0.024,-0.075 0.024,-0.155 -0.028,-0.675 -0.049,-0.252 -0.153,-0.365 -0.708,-0.672 2.398,-0.109"
     id="Iberville"
     inkscape:connector-curvature="0" />
  <path
     style="font-size:12px;fill:#d0d0d0;fill-rule:nonzero;stroke:#000000;stroke-width:1;stroke-linecap:butt;stroke-linejoin:bevel;stroke-miterlimit:4;stroke-opacity:1;stroke-dasharray:none;marker-start:none"
     d="m 37.199879,40.291765 0.982,2.025 -1.225,2.518 -0.794,1.181 -0.243,-0.928 0.027,-0.83 -0.009,-0.486 -0.086,-0.167 -0.14,-0.145 -0.229,-0.121 -0.117,0 -0.488,-0.095 -0.166,-0.162 -0.609,-1.158 -0.094,-0.243 0.311,-0.713 1.294,-0.545 1.586,-0.131"
     id="Assumption"
     inkscape:connector-curvature="0" />
  <path
     style="font-size:12px;fill:#d0d0d0;fill-rule:nonzero;stroke:#000000;stroke-width:1;stroke-linecap:butt;stroke-linejoin:bevel;stroke-miterlimit:4;stroke-opacity:1;stroke-dasharray:none;marker-start:none"
     d="m 28.108879,35.172765 0.613,-0.023 0.708,0.672 0.153,0.365 0.049,0.252 0.028,0.675 -0.024,0.155 0.024,0.075 0.063,0.177 0.397,0.661 0.143,0.118 0.145,0.068 0.229,0.018 0.352,-0.032 0.208,0.042 0.193,0.085 1.163,1.672 0.121,0.293 0.01,0.17 -1.334,0.073 -1.943,-0.564 -0.1,-0.035 -0.4,-0.086 -0.319,0.014 -0.15,0.04 -0.207,0.126 -1.564,0.536 -0.488,0.009 -0.58,-3.781 0.631,-0.388 0.668,-0.293 0.558,0.199 0.085,0.067 1.488,-0.072 -0.474,-0.676 -0.446,-0.612 m 3.488,6.822 2.412,-0.314 0.094,0.243 0.609,1.158 0.166,0.162 0.488,0.095 0.117,0 0.229,0.121 0.14,0.145 0.086,0.167 0.009,0.486 -0.027,0.83 -1.32,-0.6 -1.852,-0.856 -1.151,-1.637"
     id="St. Martin"
     inkscape:connector-curvature="0" />
  <path
     style="font-size:12px;fill:#d0d0d0;fill-rule:nonzero;stroke:#000000;stroke-width:1;stroke-linecap:butt;stroke-linejoin:bevel;stroke-miterlimit:4;stroke-opacity:1;stroke-dasharray:none;marker-start:none"
     d="m 31.596879,41.994765 1.151,1.637 1.852,0.856 1.32,0.6 0.243,0.928 -2.028,2.037 -0.248,0 -0.473,-0.09 -2.222,-0.482 -0.091,-0.437 -0.067,-0.365 -0.153,-0.487 -0.825,-1.28 -0.131,-0.09 -1.175,-0.032 -0.168,0.023 -1.37,0.401 1.776,-1.682 0.906,-1.32 1.703,-0.217"
     id="St. Mary"
     inkscape:connector-curvature="0" />
  <path
     style="font-size:12px;fill:#d0d0d0;fill-rule:nonzero;stroke:#000000;stroke-width:1;stroke-linecap:butt;stroke-linejoin:bevel;stroke-miterlimit:4;stroke-opacity:1;stroke-dasharray:none;marker-start:none"
     d="m 36.956879,44.834765 1.961,-0.888 0.076,-0.036 0.149,0.018 2.767,2.638 2.115,2.172 0.161,0.17 0.067,0.191 0.068,0.602 -0.283,1.416 -1.713,-0.004 -0.915,1.023 0.13,0.712 -2.281,0.51 -5.051,-2.371 -0.281,-0.221 -0.381,-0.402 0.017,-0.093 0.617,-0.338 0.758,-0.438 0.107,-0.122 -0.043,-0.253 -0.155,-0.392 -0.068,-0.148 -0.045,-0.045 -0.599,-0.483 2.028,-2.037 0.794,-1.181"
     id="Terrebonne"
     inkscape:connector-curvature="0" />
  <path
     style="font-size:12px;fill:#d0d0d0;fill-rule:nonzero;stroke:#000000;stroke-width:1;stroke-linecap:butt;stroke-linejoin:bevel;stroke-miterlimit:4;stroke-opacity:1;stroke-dasharray:none;marker-start:none"
     d="m 42.048879,42.271765 0.605,0.395 0.973,1.036 0.578,0.744 0.004,0.078 0.103,0.139 0.136,0.032 1.248,-0.064 0.284,-0.013 0.369,0.086 0.118,0.072 0.031,0.099 0.13,0.905 0.009,0.13 -0.066,0.241 0.901,1.329 0.68,0.298 0.014,1.46 -0.667,0.82 0.337,0.658 -0.166,0.622 -0.123,0.121 -0.03,0.036 -0.721,0.596 -0.037,0.031 -0.03,0.019 -0.511,0.274 -1.329,0.442 -0.063,-0.004 0,-0.01 -0.013,-0.067 0.266,-0.163 0.238,-0.044 0.127,-0.023 0.107,-0.055 0.276,-0.134 0.053,-0.032 0.199,-0.225 -0.014,-0.238 -0.478,-0.948 -0.189,-0.257 -0.359,-0.482 -0.2,-0.145 -0.382,0.06 -0.216,0.288 -0.203,0.739 0.283,-1.416 -0.068,-0.602 -0.067,-0.191 -0.161,-0.17 -2.115,-2.172 -2.767,-2.638 -0.149,-0.018 -0.076,0.036 -1.961,0.888 1.225,-2.518 2.574,0.062 1.293,-0.107"
     id="Lafourche"
     inkscape:connector-curvature="0" />
  <path
     style="font-size:12px;fill:#d0d0d0;fill-rule:nonzero;stroke:#000000;stroke-width:1;stroke-linecap:butt;stroke-linejoin:bevel;stroke-miterlimit:4;stroke-opacity:1;stroke-dasharray:none;marker-start:none"
     d="m 40.714879,38.808765 -0.13,1.497 -0.297,0.212 0.22,1.077 0.154,0.586 0.094,0.198 -2.574,-0.062 -0.982,-2.025 3.515,-1.483"
     id="St. James"
     inkscape:connector-curvature="0" />
  <path
     style="font-size:12px;fill:#d0d0d0;fill-rule:nonzero;stroke:#000000;stroke-width:1;stroke-linecap:butt;stroke-linejoin:bevel;stroke-miterlimit:4;stroke-opacity:1;stroke-dasharray:none;marker-start:none"
     d="m 37.807879,36.663765 2.028,1.893 0.239,0.162 0.054,0.015 0.045,-0.024 0.605,-0.613 -0.064,0.712 -3.515,1.483 -1.586,0.131 0.774,-3.38 1.42,-0.379"
     id="Ascension"
     inkscape:connector-curvature="0" />
  <path
     style="font-size:12px;fill:#d0d0d0;fill-rule:nonzero;stroke:#000000;stroke-width:1;stroke-linecap:butt;stroke-linejoin:bevel;stroke-miterlimit:4;stroke-opacity:1;stroke-dasharray:none;marker-start:none"
     d="m 38.019879,31.822765 -0.631,0.939 -0.725,0.867 0.037,1.782 0.211,0.528 0.896,0.725 -1.42,0.379 -1.347,0.05 -1.938,-4.111 0.329,-0.654 0.114,-0.085 4.474,-0.42"
     id="East Baton Rouge"
     inkscape:connector-curvature="0" />
  <path
     style="font-size:12px;fill:#d0d0d0;fill-rule:nonzero;stroke:#000000;stroke-width:1;stroke-linecap:butt;stroke-linejoin:bevel;stroke-miterlimit:4;stroke-opacity:1;stroke-dasharray:none;marker-start:none"
     d="m 35.495879,28.348765 2.583,-0.145 -0.334,0.839 0.221,1.117 0.054,0.721 0,0.942 -4.474,0.42 -0.114,0.085 -0.329,0.654 -0.086,-0.041 -0.026,-0.302 0.021,-0.423 0.162,-0.506 0.114,-0.153 0.446,-0.766 0.324,-1.487 0.157,-0.892 1.281,-0.063"
     id="East Feliciana"
     inkscape:connector-curvature="0" />
  <path
     style="font-size:12px;fill:#d0d0d0;fill-rule:nonzero;stroke:#000000;stroke-width:1;stroke-linecap:butt;stroke-linejoin:bevel;stroke-miterlimit:4;stroke-opacity:1;stroke-dasharray:none;marker-start:none"
     d="m 40.936879,28.036765 0.256,4.503 -3.804,0.222 0.631,-0.939 0,-0.942 -0.054,-0.721 -0.221,-1.117 0.334,-0.839 2.858,-0.167"
     id="St. Helena"
     inkscape:connector-curvature="0" />
  <path
     style="font-size:12px;fill:#d0d0d0;fill-rule:nonzero;stroke:#000000;stroke-width:1;stroke-linecap:butt;stroke-linejoin:bevel;stroke-miterlimit:4;stroke-opacity:1;stroke-dasharray:none;marker-start:none"
     d="m 37.388879,32.761765 3.804,-0.222 0.122,2.1 0.27,0.676 0.866,1.199 0.378,0.389 0.131,0.107 0.14,0.063 0.206,0.048 -0.747,0.254 -0.253,0.136 -0.071,0.062 -0.168,0.371 -0.14,0.215 -0.147,0.154 -0.136,0.086 -0.113,0.017 -0.121,-0.021 -0.631,-0.299 -0.605,0.613 -0.045,0.024 -0.054,-0.015 -0.239,-0.162 -2.028,-1.893 -0.896,-0.725 -0.211,-0.528 -0.037,-1.782 0.725,-0.867"
     id="Livingston"
     inkscape:connector-curvature="0" />
  <path
     style="font-size:12px;fill:#d0d0d0;fill-rule:nonzero;stroke:#000000;stroke-width:1;stroke-linecap:butt;stroke-linejoin:bevel;stroke-miterlimit:4;stroke-opacity:1;stroke-dasharray:none;marker-start:none"
     d="m 43.305879,37.121765 1.416,0.623 -1.339,2.02 -0.923,0.703 -0.478,0.198 -0.117,0.19 0.018,0.238 0.166,1.178 -1.293,0.107 -0.094,-0.198 -0.154,-0.586 -0.22,-1.077 0.297,-0.212 0.194,-2.209 0.631,0.299 0.121,0.021 0.113,-0.017 0.136,-0.086 0.147,-0.154 0.14,-0.215 0.168,-0.371 0.071,-0.062 0.253,-0.136 0.747,-0.254"
     id="St. John the Baptist"
     inkscape:connector-curvature="0" />
  <path
     style="font-size:12px;fill:#d0d0d0;fill-rule:nonzero;stroke:#000000;stroke-width:1;stroke-linecap:butt;stroke-linejoin:bevel;stroke-miterlimit:4;stroke-opacity:1;stroke-dasharray:none;marker-start:none"
     d="m 42.048879,42.271765 -0.166,-1.178 -0.018,-0.238 0.117,-0.19 0.478,-0.198 0.923,-0.703 1.339,-2.02 0.149,2.885 0.027,0.446 0.113,0.641 0.072,0.211 0.342,0.528 0.681,0.406 -0.185,1.072 -0.063,0.198 -0.162,0.5 -1.248,0.064 -0.136,-0.032 -0.103,-0.139 -0.004,-0.078 -0.578,-0.744 -0.973,-1.036 -0.605,-0.395"
     id="St. Charles"
     inkscape:connector-curvature="0" />
  <path
     style="font-size:12px;fill:#d0d0d0;fill-rule:nonzero;stroke:#000000;stroke-width:1;stroke-linecap:butt;stroke-linejoin:bevel;stroke-miterlimit:4;stroke-opacity:1;stroke-dasharray:none;marker-start:none"
     d="m 41.147879,28.029765 2.209,-0.141 0.081,1.221 0.347,0.289 0.802,1.91 0.005,0.23 0.523,6.266 -0.393,-0.06 -1.416,-0.623 -0.206,-0.048 -0.14,-0.063 -0.131,-0.107 -0.378,-0.389 -0.866,-1.199 -0.27,-0.676 -0.122,-2.1 -0.256,-4.503 0.211,-0.007"
     id="Tangipahoa"
     inkscape:connector-curvature="0" />
  <path
     style="font-size:12px;fill:#d0d0d0;fill-rule:nonzero;stroke:#000000;stroke-width:1;stroke-linecap:butt;stroke-linejoin:bevel;stroke-miterlimit:4;stroke-opacity:1;stroke-dasharray:none;marker-start:none"
     d="m 46.668879,38.128765 1.236,0.469 1.045,-0.627 0.258,-0.1 2.175,0.172 0.619,0.202 0.072,0.045 -0.479,0.569 -1.495,0.96 -0.501,0.599 -0.5,1.727 -1.109,-0.275 -0.6,-0.608 -0.753,-1.024 0.032,-2.109"
     id="Orleans"
     inkscape:connector-curvature="0" />
  <path
     style="font-size:12px;fill:#d0d0d0;fill-rule:nonzero;stroke:#000000;stroke-width:1;stroke-linecap:butt;stroke-linejoin:bevel;stroke-miterlimit:4;stroke-opacity:1;stroke-dasharray:none;marker-start:none"
     d="m 49.598879,40.417765 0.068,0.284 0.108,0.275 0.072,0.123 0.113,0.075 1.586,0.808 0.357,0.048 0.252,-0.03 0.269,-0.122 0.163,-0.131 0.063,-0.203 0.127,-0.816 -0.015,-0.311 0.831,-0.924 0.387,-0.189 0.464,0.144 0.293,0.24 -0.239,0.134 -0.073,0.073 -0.107,0.103 0.009,0.217 0.018,0.157 0.658,0.717 0.126,0.095 0.532,0.274 0.126,0.069 -0.747,1.248 -0.433,0.639 -0.641,0.243 -0.5,-0.192 -1.172,-0.042 -0.19,0.06 0.046,0.378 0.063,0.113 0.559,0.306 0.267,0.113 0.188,0.036 0.263,-0.018 0.549,0.473 0.031,0.076 -0.013,0.05 -0.068,-0.099 -0.311,-0.248 -1.226,-0.294 -0.793,-0.715 -0.167,-0.177 -1.654,-0.441 -0.122,0.045 -0.072,-0.013 -0.141,-0.166 -0.247,-0.429 -0.157,-0.329 0.5,-1.727"
     id="St. Bernard"
     inkscape:connector-curvature="0" />
  <path
     style="font-size:12px;fill:#d0d0d0;fill-rule:nonzero;stroke:#000000;stroke-width:1;stroke-linecap:butt;stroke-linejoin:bevel;stroke-miterlimit:4;stroke-opacity:1;stroke-dasharray:none;marker-start:none"
     d="m 47.989879,41.869765 1.109,0.275 0.157,0.329 0.247,0.429 0.141,0.166 0.072,0.013 0.122,-0.045 1.654,0.441 0.167,0.177 0.793,0.715 1.226,0.294 0.311,0.248 0.068,0.099 -0.208,-0.126 -0.355,-0.193 -0.97,-0.045 -0.221,0.13 -0.356,0.301 -0.09,0.311 -0.112,1.064 0.008,0.063 0.082,0.091 0.329,0.216 2.09,1.104 0.334,-0.022 0.871,-0.041 2.33,0.672 0.599,0.744 0.302,0.418 0.455,0.262 0.42,-0.189 0.08,0.031 0.082,0.077 0.193,0.393 0,0.012 -0.036,0.176 0,0.009 -0.203,0.465 -0.351,0.797 -1.023,0.609 -0.722,-0.446 -1.554,0.04 -1.244,-1.438 -0.033,-0.032 -0.152,-0.147 -0.018,-0.019 -0.123,-0.086 0,-0.004 -0.048,-0.018 -0.334,-0.122 -0.244,-0.09 -1.563,-0.573 -0.248,-0.068 -0.045,-0.012 -0.239,-0.05 -0.094,-0.023 -0.019,0 -0.049,-0.005 -0.236,-0.017 -0.332,-0.028 -0.635,-0.572 0.143,-0.248 0.041,-0.09 0,-0.121 -0.014,-0.068 -0.248,-0.865 -0.007,-0.037 -0.074,-0.036 -0.103,-0.053 -0.145,0.031 -0.148,0.063 -0.283,0.176 -0.177,0.216 -0.14,0.199 -0.257,0.026 -0.108,-0.072 -0.148,-0.157 -0.163,-1.929 -0.058,-0.244 -0.447,-0.762 -0.22,-0.256 -0.36,-0.483 -0.124,-0.419 0.209,-0.865 0.446,-0.766"
     id="Plaquemines"
     inkscape:connector-curvature="0" />
  <path
     id="West Feliciana"
     style="font-size:12px;fill:#d0d0d0;fill-rule:nonzero;stroke:#000000;stroke-width:1;stroke-linecap:butt;stroke-linejoin:bevel;stroke-miterlimit:4;stroke-opacity:1;stroke-dasharray:none;marker-start:none"
     d="m 29.135879,28.650765 5.079,-0.239 -0.157,0.892 -0.324,1.487 -0.446,0.766 -0.114,0.153 -0.162,0.506 -0.021,0.423 0.026,0.302 -0.288,-0.063 -0.344,-0.92 -0.211,-0.315 -0.058,-0.027 -1.781,-0.334 -1.217,-0.635 -0.067,-0.036 -0.082,-0.077 -0.026,-0.072 -0.072,-1.424 0.265,-0.387 m -0.986,-0.533 0.753,0.609 -1.027,-0.266 0.274,-0.343"
     inkscape:connector-curvature="0" />
  <path
     id="Jefferson"
     style="font-size:12px;fill:#d0d0d0;fill-rule:nonzero;stroke:#000000;stroke-width:1;stroke-linecap:butt;stroke-linejoin:bevel;stroke-miterlimit:4;stroke-opacity:1;stroke-dasharray:none;marker-start:none"
     d="m 44.721879,37.744765 0.393,0.06 1.554,0.324 -0.032,2.109 0.753,1.024 0.6,0.608 -0.446,0.766 -0.209,0.865 0.124,0.419 0.36,0.483 0.22,0.256 0.447,0.762 0.058,0.244 0.163,1.929 -0.555,0.185 -0.68,-0.298 -0.901,-1.329 0.066,-0.241 -0.009,-0.13 -0.13,-0.905 -0.031,-0.099 -0.118,-0.072 -0.369,-0.086 -0.284,0.013 0.162,-0.5 0.063,-0.198 0.185,-1.072 -0.681,-0.406 -0.342,-0.528 -0.072,-0.211 -0.113,-0.641 -0.027,-0.446 -0.149,-2.885 m 3.114,12.972 0.01,0.01 0.311,-0.06 0.243,-0.274 0.649,-0.5 0.095,0.013 0.019,0.037 -0.01,0.031 -0.058,0.094 -0.709,0.527 -0.608,0.632 -0.105,0.108 -0.003,0.004 0.166,-0.622"
     inkscape:connector-curvature="0" />
</svg>
