<?xml version="1.0" encoding="UTF-8" standalone="no"?>
<!-- Created with Inkscape (http://www.inkscape.org/) -->

<svg
   xmlns:dc="http://purl.org/dc/elements/1.1/"
   xmlns:cc="http://creativecommons.org/ns#"
   xmlns:rdf="http://www.w3.org/1999/02/22-rdf-syntax-ns#"
   xmlns:svg="http://www.w3.org/2000/svg"
   xmlns="http://www.w3.org/2000/svg"
   xmlns:sodipodi="http://sodipodi.sourceforge.net/DTD/sodipodi-0.dtd"
   xmlns:inkscape="http://www.inkscape.org/namespaces/inkscape"
   version="1.0"
   width="79.010002"
   height="45.07"
   sodipodi:version="0.32"
   inkscape:version="0.48.2 r9819"
   sodipodi:docname="ks.svg"
   inkscape:output_extension="org.inkscape.output.svg.inkscape"
   id="svg4118">
  <metadata
     id="metadata4120">
    <rdf:RDF>
      <cc:Work
         rdf:about="">
        <dc:format>image/svg+xml</dc:format>
        <dc:type
           rdf:resource="http://purl.org/dc/dcmitype/StillImage" />
      </cc:Work>
    </rdf:RDF>
  </metadata>
  <defs
     id="defs4122" />
  <sodipodi:namedview
     pagecolor="#ffffff"
     bordercolor="#666666"
     borderopacity="1"
     objecttolerance="10"
     gridtolerance="10"
     guidetolerance="10"
     inkscape:pageopacity="0"
     inkscape:pageshadow="2"
     inkscape:window-width="1366"
     inkscape:window-height="716"
     fit-margin-top="0"
     fit-margin-left="0"
     fit-margin-right="0"
     fit-margin-bottom="0"
     inkscape:zoom="4.5491794"
     inkscape:cx="26.459284"
     inkscape:cy="9.1772088"
     inkscape:window-x="-8"
     inkscape:window-y="-8"
     inkscape:window-maximized="1"
     inkscape:current-layer="svg4118"
     id="namedview4124"
     showgrid="false" />
  <path
     style="font-size:12px;fill:#d0d0d0;fill-rule:nonzero;stroke:#000000;stroke-width:1;stroke-linecap:butt;stroke-linejoin:bevel;stroke-miterlimit:4;stroke-opacity:1;stroke-dasharray:none;marker-start:none"
     d="m 69.829239,3.9931231 0.311,0 0.005,0.121 0.063,0.091 1.19,1.077 0.482,0.31 0.243,0.09 0.189,0.072 0.036,0.013 0.045,-0.004 0.375,-0.036 0.073,-0.027 0.058,-0.054 0.008,-0.009 0.338,-0.383 0.825,1.037 0.081,0.383 0.077,0.356 -0.207,0.461 -0.208,0.036 -0.712,0.6299991 -0.04,0.046 -0.339,0.495 -0.117,0.167 -2.744,-0.361 -0.032,-4.5109991"
     id="Doniphan"
     inkscape:connector-curvature="0" />
  <path
     style="font-size:12px;fill:#d0d0d0;fill-rule:nonzero;stroke:#000000;stroke-width:1;stroke-linecap:butt;stroke-linejoin:bevel;stroke-miterlimit:4;stroke-opacity:1;stroke-dasharray:none;marker-start:none"
     d="m 65.430239,4.0101231 4.399,-0.017 0.032,4.5109991 -2.213,0.013 -2.218,0.01 0,-4.5169991"
     id="Brown"
     inkscape:connector-curvature="0" />
  <path
     style="font-size:12px;fill:#d0d0d0;fill-rule:nonzero;stroke:#000000;stroke-width:1;stroke-linecap:butt;stroke-linejoin:bevel;stroke-miterlimit:4;stroke-opacity:1;stroke-dasharray:none;marker-start:none"
     d="m 2.2182391,31.472123 5.202,0.347 -0.248,4.512 -0.316,-0.018 -4.926,-0.312 0.216,-3.308 0.072,-1.221"
     id="Stanton"
     inkscape:connector-curvature="0" />
  <path
     style="font-size:12px;fill:#d0d0d0;fill-rule:nonzero;stroke:#000000;stroke-width:1;stroke-linecap:butt;stroke-linejoin:bevel;stroke-miterlimit:4;stroke-opacity:1;stroke-dasharray:none;marker-start:none"
     d="m 1.9302391,36.001123 4.926,0.312 -0.284,5.102 -4.827,-0.266 -0.144,-0.009 0.329,-5.139"
     id="Morton"
     inkscape:connector-curvature="0" />
  <path
     style="font-size:12px;fill:#d0d0d0;fill-rule:nonzero;stroke:#000000;stroke-width:1;stroke-linecap:butt;stroke-linejoin:bevel;stroke-miterlimit:4;stroke-opacity:1;stroke-dasharray:none;marker-start:none"
     d="m 6.8562391,36.313123 0.316,0.018 4.4259999,0.256 0.22,0.014 -0.256,5.062 -4.9899999,-0.248 0.284,-5.102"
     id="Stevens"
     inkscape:connector-curvature="0" />
  <path
     style="font-size:12px;fill:#d0d0d0;fill-rule:nonzero;stroke:#000000;stroke-width:1;stroke-linecap:butt;stroke-linejoin:bevel;stroke-miterlimit:4;stroke-opacity:1;stroke-dasharray:none;marker-start:none"
     d="m 7.4202391,31.819123 4.4209999,0.243 -0.243,4.525 -4.4259999,-0.256 0.248,-4.512"
     id="Grant"
     inkscape:connector-curvature="0" />
  <path
     style="font-size:12px;fill:#d0d0d0;fill-rule:nonzero;stroke:#000000;stroke-width:1;stroke-linecap:butt;stroke-linejoin:bevel;stroke-miterlimit:4;stroke-opacity:1;stroke-dasharray:none;marker-start:none"
     d="m 16.267239,32.292123 -0.176,3.394 -0.054,1.136 -4.219,-0.221 -0.22,-0.014 0.243,-4.525 4.426,0.23"
     id="Haskell"
     inkscape:connector-curvature="0" />
  <path
     style="font-size:12px;fill:#d0d0d0;fill-rule:nonzero;stroke:#000000;stroke-width:1;stroke-linecap:butt;stroke-linejoin:bevel;stroke-miterlimit:4;stroke-opacity:1;stroke-dasharray:none;marker-start:none"
     d="m 16.037239,36.822123 -0.049,5.039 -3.187,-0.135 -1.239,-0.063 0.256,-5.062 4.219,0.221"
     id="Seward"
     inkscape:connector-curvature="0" />
  <path
     style="font-size:12px;fill:#d0d0d0;fill-rule:nonzero;stroke:#000000;stroke-width:1;stroke-linecap:butt;stroke-linejoin:bevel;stroke-miterlimit:4;stroke-opacity:1;stroke-dasharray:none;marker-start:none"
     d="m 20.526239,35.885123 1.105,0.059 -0.086,6.146 -5.557,-0.229 0.049,-5.039 0.054,-1.136 4.435,0.199"
     id="Meade"
     inkscape:connector-curvature="0" />
  <path
     style="font-size:12px;fill:#d0d0d0;fill-rule:nonzero;stroke:#000000;stroke-width:1;stroke-linecap:butt;stroke-linejoin:bevel;stroke-miterlimit:4;stroke-opacity:1;stroke-dasharray:none;marker-start:none"
     d="m 20.666239,30.184123 -0.14,5.701 -4.435,-0.199 0.176,-3.394 -0.072,-1.212 0.117,-2.253 4.413,0.23 -0.059,1.127"
     id="Gray"
     inkscape:connector-curvature="0" />
  <path
     style="font-size:12px;fill:#d0d0d0;fill-rule:nonzero;stroke:#000000;stroke-width:1;stroke-linecap:butt;stroke-linejoin:bevel;stroke-miterlimit:4;stroke-opacity:1;stroke-dasharray:none;marker-start:none"
     d="m 20.666239,30.184123 6.635,0.287 0.018,2.318 -0.095,3.469 -5.593,-0.314 -1.105,-0.059 0.14,-5.701"
     id="Ford"
     inkscape:connector-curvature="0" />
  <path
     style="font-size:12px;fill:#d0d0d0;fill-rule:nonzero;stroke:#000000;stroke-width:1;stroke-linecap:butt;stroke-linejoin:bevel;stroke-miterlimit:4;stroke-opacity:1;stroke-dasharray:none;marker-start:none"
     d="m 27.224239,36.258123 0.085,1.132 -0.162,4.957 -4.715,-0.216 -0.887,-0.041 0.086,-6.146 5.593,0.314"
     id="Clark"
     inkscape:connector-curvature="0" />
  <path
     style="font-size:12px;fill:#d0d0d0;fill-rule:nonzero;stroke:#000000;stroke-width:1;stroke-linecap:butt;stroke-linejoin:bevel;stroke-miterlimit:4;stroke-opacity:1;stroke-dasharray:none;marker-start:none"
     d="m 32.718239,37.534123 -0.049,5.003 -4.652,-0.158 -0.87,-0.032 0.162,-4.957 5.409,0.144"
     id="Comanche"
     inkscape:connector-curvature="0" />
  <path
     style="font-size:12px;fill:#d0d0d0;fill-rule:nonzero;stroke:#000000;stroke-width:1;stroke-linecap:butt;stroke-linejoin:bevel;stroke-miterlimit:4;stroke-opacity:1;stroke-dasharray:none;marker-start:none"
     d="m 27.319239,32.789123 5.521,0.216 -0.095,3.411 -0.027,1.118 -5.409,-0.144 -0.085,-1.132 0.095,-3.469"
     id="Kiowa"
     inkscape:connector-curvature="0" />
  <path
     style="font-size:12px;fill:#d0d0d0;fill-rule:nonzero;stroke:#000000;stroke-width:1;stroke-linecap:butt;stroke-linejoin:bevel;stroke-miterlimit:4;stroke-opacity:1;stroke-dasharray:none;marker-start:none"
     d="m 27.390239,28.205123 2.204,0.077 -0.036,1.131 3.308,0.112 0.014,2.281 -0.04,1.199 -5.521,-0.216 -0.018,-2.318 0.089,-2.266"
     id="Edwards"
     inkscape:connector-curvature="0" />
  <path
     style="font-size:12px;fill:#d0d0d0;fill-rule:nonzero;stroke:#000000;stroke-width:1;stroke-linecap:butt;stroke-linejoin:bevel;stroke-miterlimit:4;stroke-opacity:1;stroke-dasharray:none;marker-start:none"
     d="m 38.352239,31.972123 0.045,1.195 -0.09,3.398 -5.562,-0.149 0.095,-3.411 0.04,-1.199 5.472,0.166"
     id="Pratt"
     inkscape:connector-curvature="0" />
  <path
     style="font-size:12px;fill:#d0d0d0;fill-rule:nonzero;stroke:#000000;stroke-width:1;stroke-linecap:butt;stroke-linejoin:bevel;stroke-miterlimit:4;stroke-opacity:1;stroke-dasharray:none;marker-start:none"
     d="m 32.745239,36.416123 5.562,0.149 1.14,1.163 -0.095,5.017 -2.023,-0.064 -4.66,-0.144 0.049,-5.003 0.027,-1.118"
     id="Barber"
     inkscape:connector-curvature="0" />
  <path
     style="font-size:12px;fill:#d0d0d0;fill-rule:nonzero;stroke:#000000;stroke-width:1;stroke-linecap:butt;stroke-linejoin:bevel;stroke-miterlimit:4;stroke-opacity:1;stroke-dasharray:none;marker-start:none"
     d="m 39.447239,37.728123 5.521,0.091 -0.045,5.038 -3.169,-0.059 -2.402,-0.053 0.095,-5.017"
     id="Harper"
     inkscape:connector-curvature="0" />
  <path
     style="font-size:12px;fill:#d0d0d0;fill-rule:nonzero;stroke:#000000;stroke-width:1;stroke-linecap:butt;stroke-linejoin:bevel;stroke-miterlimit:4;stroke-opacity:1;stroke-dasharray:none;marker-start:none"
     d="m 38.397239,33.167123 6.648,0.134 -0.059,3.376 -0.018,1.142 -5.521,-0.091 -1.14,-1.163 0.09,-3.398"
     id="Kingman"
     inkscape:connector-curvature="0" />
  <path
     style="font-size:12px;fill:#d0d0d0;fill-rule:nonzero;stroke:#000000;stroke-width:1;stroke-linecap:butt;stroke-linejoin:bevel;stroke-miterlimit:4;stroke-opacity:1;stroke-dasharray:none;marker-start:none"
     d="m 44.004239,27.565123 2.217,0.04 -0.063,3.39 -1.113,2.306 -6.648,-0.134 -0.045,-1.195 0.112,-4.525 5.54,0.118"
     id="Reno"
     inkscape:connector-curvature="0" />
  <path
     style="font-size:12px;fill:#d0d0d0;fill-rule:nonzero;stroke:#000000;stroke-width:1;stroke-linecap:butt;stroke-linejoin:bevel;stroke-miterlimit:4;stroke-opacity:1;stroke-dasharray:none;marker-start:none"
     d="m 49.543239,27.660123 2.185,1.149 -0.017,2.271 -5.553,-0.085 0.063,-3.39 3.322,0.055"
     id="Harvey"
     inkscape:connector-curvature="0" />
  <path
     style="font-size:12px;fill:#d0d0d0;fill-rule:nonzero;stroke:#000000;stroke-width:1;stroke-linecap:butt;stroke-linejoin:bevel;stroke-miterlimit:4;stroke-opacity:1;stroke-dasharray:none;marker-start:none"
     d="m 46.158239,30.995123 5.553,0.085 -0.077,5.684 -6.648,-0.087 0.059,-3.376 1.113,-2.306"
     id="Sedgwick"
     inkscape:connector-curvature="0" />
  <path
     style="font-size:12px;fill:#d0d0d0;fill-rule:nonzero;stroke:#000000;stroke-width:1;stroke-linecap:butt;stroke-linejoin:bevel;stroke-miterlimit:4;stroke-opacity:1;stroke-dasharray:none;marker-start:none"
     d="m 44.986239,36.677123 6.648,0.087 -0.018,6.193 -3.218,-0.04 -3.475,-0.06 0.045,-5.038 0.018,-1.142"
     id="Sumner"
     inkscape:connector-curvature="0" />
  <path
     style="font-size:12px;fill:#d0d0d0;fill-rule:nonzero;stroke:#000000;stroke-width:1;stroke-linecap:butt;stroke-linejoin:bevel;stroke-miterlimit:4;stroke-opacity:1;stroke-dasharray:none;marker-start:none"
     d="m 51.634239,36.764123 6.373,0.045 0,2.258 -0.032,3.943 -2.294,-0.013 -4.065,-0.04 0.018,-6.193"
     id="Cowley"
     inkscape:connector-curvature="0" />
  <path
     style="font-size:12px;fill:#d0d0d0;fill-rule:nonzero;stroke:#000000;stroke-width:1;stroke-linecap:butt;stroke-linejoin:bevel;stroke-miterlimit:4;stroke-opacity:1;stroke-dasharray:none;marker-start:none"
     d="m 54.875239,28.867123 3.209,0.013 -0.063,6.229 -0.014,1.7 -6.373,-0.045 0.077,-5.684 0.017,-2.271 3.147,0.058"
     id="Butler"
     inkscape:connector-curvature="0" />
  <path
     style="font-size:12px;fill:#d0d0d0;fill-rule:nonzero;stroke:#000000;stroke-width:1;stroke-linecap:butt;stroke-linejoin:bevel;stroke-miterlimit:4;stroke-opacity:1;stroke-dasharray:none;marker-start:none"
     d="m 58.007239,39.067123 5.707,0.059 0.003,3.903 -0.373,0 -5.369,-0.019 0.032,-3.943"
     id="Chautauqua"
     inkscape:connector-curvature="0" />
  <path
     style="font-size:12px;fill:#d0d0d0;fill-rule:nonzero;stroke:#000000;stroke-width:1;stroke-linecap:butt;stroke-linejoin:bevel;stroke-miterlimit:4;stroke-opacity:1;stroke-dasharray:none;marker-start:none"
     d="m 63.744239,35.167123 0,2.822 -0.03,1.137 -5.707,-0.059 0,-2.258 0.014,-1.7 5.723,0.058"
     id="Elk"
     inkscape:connector-curvature="0" />
  <path
     style="font-size:12px;fill:#d0d0d0;fill-rule:nonzero;stroke:#000000;stroke-width:1;stroke-linecap:butt;stroke-linejoin:bevel;stroke-miterlimit:4;stroke-opacity:1;stroke-dasharray:none;marker-start:none"
     d="m 63.763239,27.791123 -0.005,1.703 -0.014,3.975 0,1.698 -5.723,-0.058 0.063,-6.229 1.672,-1.117 4.007,0.028"
     id="Greenwood"
     inkscape:connector-curvature="0" />
  <path
     style="font-size:12px;fill:#d0d0d0;fill-rule:nonzero;stroke:#000000;stroke-width:1;stroke-linecap:butt;stroke-linejoin:bevel;stroke-miterlimit:4;stroke-opacity:1;stroke-dasharray:none;marker-start:none"
     d="m 63.744239,37.989123 4.431,0.023 0.046,0 0.04,1.524 -0.031,2.659 0.003,0.815 -2.704,0.014 -1.812,0.005 -0.003,-3.903 0.03,-1.137"
     id="Montgomery"
     inkscape:connector-curvature="0" />
  <path
     style="font-size:12px;fill:#d0d0d0;fill-rule:nonzero;stroke:#000000;stroke-width:1;stroke-linecap:butt;stroke-linejoin:bevel;stroke-miterlimit:4;stroke-opacity:1;stroke-dasharray:none;marker-start:none"
     d="m 63.744239,33.469123 4.408,0.009 0.023,4.534 -4.431,-0.023 0,-4.52"
     id="Wilson"
     inkscape:connector-curvature="0" />
  <path
     style="font-size:12px;fill:#d0d0d0;fill-rule:nonzero;stroke:#000000;stroke-width:1;stroke-linecap:butt;stroke-linejoin:bevel;stroke-miterlimit:4;stroke-opacity:1;stroke-dasharray:none;marker-start:none"
     d="m 63.758239,29.494123 4.44,0.013 -0.046,3.971 -4.408,-0.009 0.014,-3.975"
     id="Woodson"
     inkscape:connector-curvature="0" />
  <path
     style="font-size:12px;fill:#d0d0d0;fill-rule:nonzero;stroke:#000000;stroke-width:1;stroke-linecap:butt;stroke-linejoin:bevel;stroke-miterlimit:4;stroke-opacity:1;stroke-dasharray:none;marker-start:none"
     d="m 68.221239,38.012123 4.407,-0.032 0.135,0.572 0.063,4.422 -3.42,0.032 -1.173,0.004 -0.003,-0.815 0.031,-2.659 -0.04,-1.524"
     id="Labette"
     inkscape:connector-curvature="0" />
  <path
     style="font-size:12px;fill:#d0d0d0;fill-rule:nonzero;stroke:#000000;stroke-width:1;stroke-linecap:butt;stroke-linejoin:bevel;stroke-miterlimit:4;stroke-opacity:1;stroke-dasharray:none;marker-start:none"
     d="m 72.583239,33.452123 0.01,0.751 0.035,3.777 -4.407,0.032 -0.046,0 -0.023,-4.534 4.431,-0.026"
     id="Neosho"
     inkscape:connector-curvature="0" />
  <path
     style="font-size:12px;fill:#d0d0d0;fill-rule:nonzero;stroke:#000000;stroke-width:1;stroke-linecap:butt;stroke-linejoin:bevel;stroke-miterlimit:4;stroke-opacity:1;stroke-dasharray:none;marker-start:none"
     d="m 72.650239,29.480123 -0.067,3.972 -4.431,0.026 0.046,-3.971 4.452,-0.027"
     id="Allen"
     inkscape:connector-curvature="0" />
  <path
     style="font-size:12px;fill:#d0d0d0;fill-rule:nonzero;stroke:#000000;stroke-width:1;stroke-linecap:butt;stroke-linejoin:bevel;stroke-miterlimit:4;stroke-opacity:1;stroke-dasharray:none;marker-start:none"
     d="m 72.763239,38.552123 4.66,-0.036 0.059,4.422 -3.984,0.032 -0.672,0.004 -0.063,-4.422"
     id="Cherokee"
     inkscape:connector-curvature="0" />
  <path
     style="font-size:12px;fill:#d0d0d0;fill-rule:nonzero;stroke:#000000;stroke-width:1;stroke-linecap:butt;stroke-linejoin:bevel;stroke-miterlimit:4;stroke-opacity:1;stroke-dasharray:none;marker-start:none"
     d="m 77.356239,34.163123 0.063,4.015 0.004,0.338 -4.66,0.036 -0.135,-0.572 -0.035,-3.777 4.763,-0.04"
     id="Crawford"
     inkscape:connector-curvature="0" />
  <path
     style="font-size:12px;fill:#d0d0d0;fill-rule:nonzero;stroke:#000000;stroke-width:1;stroke-linecap:butt;stroke-linejoin:bevel;stroke-miterlimit:4;stroke-opacity:1;stroke-dasharray:none;marker-start:none"
     d="m 72.650239,29.480123 4.675,-0.045 0.031,4.728 -4.763,0.04 -0.01,-0.751 0.067,-3.972"
     id="Bourbon"
     inkscape:connector-curvature="0" />
  <path
     style="font-size:12px;fill:#d0d0d0;fill-rule:nonzero;stroke:#000000;stroke-width:1;stroke-linecap:butt;stroke-linejoin:bevel;stroke-miterlimit:4;stroke-opacity:1;stroke-dasharray:none;marker-start:none"
     d="m 2.6242391,24.671123 4.787,0.285 0.252,0.012 -0.212,3.769 0.036,1.897 -0.067,1.185 -5.202,-0.347 0.406,-6.801"
     id="Hamilton"
     inkscape:connector-curvature="0" />
  <path
     style="font-size:12px;fill:#d0d0d0;fill-rule:nonzero;stroke:#000000;stroke-width:1;stroke-linecap:butt;stroke-linejoin:bevel;stroke-miterlimit:4;stroke-opacity:1;stroke-dasharray:none;marker-start:none"
     d="m 2.9802391,19.029123 4.764,0.265 -0.333,5.662 -4.787,-0.285 0.284,-4.575 0.072,-1.067"
     id="Greeley"
     inkscape:connector-curvature="0" />
  <path
     style="font-size:12px;fill:#d0d0d0;fill-rule:nonzero;stroke:#000000;stroke-width:1;stroke-linecap:butt;stroke-linejoin:bevel;stroke-miterlimit:4;stroke-opacity:1;stroke-dasharray:none;marker-start:none"
     d="m 8.9612391,13.696123 -0.388,5.638 -0.829,-0.04 -4.764,-0.265 0.275,-4.534 0.063,-1.119 5.643,0.32"
     id="Wallace"
     inkscape:connector-curvature="0" />
  <path
     style="font-size:12px;fill:#d0d0d0;fill-rule:nonzero;stroke:#000000;stroke-width:1;stroke-linecap:butt;stroke-linejoin:bevel;stroke-miterlimit:4;stroke-opacity:1;stroke-dasharray:none;marker-start:none"
     d="m 3.6522391,7.7281231 6.269,0.3799991 0.2429999,0.013 -0.3459999,5.6209988 -0.857,-0.046 -5.643,-0.32 0.334,-5.6479979"
     id="Sherman"
     inkscape:connector-curvature="0" />
  <path
     style="font-size:12px;fill:#d0d0d0;fill-rule:nonzero;stroke:#000000;stroke-width:1;stroke-linecap:butt;stroke-linejoin:bevel;stroke-miterlimit:4;stroke-opacity:1;stroke-dasharray:none;marker-start:none"
     d="m 3.9942391,2.0851231 6.2739999,0.389 -0.3469999,5.6339991 -6.269,-0.3799991 0.004,-0.075 0.338,-5.568"
     id="Cheyenne"
     inkscape:connector-curvature="0" />
  <path
     style="font-size:12px;fill:#d0d0d0;fill-rule:nonzero;stroke:#000000;stroke-width:1;stroke-linecap:butt;stroke-linejoin:bevel;stroke-miterlimit:4;stroke-opacity:1;stroke-dasharray:none;marker-start:none"
     d="m 34.074239,26.176123 4.35,0.126 0.04,1.145 -0.112,4.525 -5.472,-0.166 -0.014,-2.281 1.096,0.036 0.112,-3.385"
     id="Stafford"
     inkscape:connector-curvature="0" />
  <path
     style="font-size:12px;fill:#d0d0d0;fill-rule:nonzero;stroke:#000000;stroke-width:1;stroke-linecap:butt;stroke-linejoin:bevel;stroke-miterlimit:4;stroke-opacity:1;stroke-dasharray:none;marker-start:none"
     d="m 7.6632391,24.968123 4.1869999,0.221 0.221,0.01 -0.104,2.168 -0.203,3.487 0.077,1.208 -4.4209999,-0.243 0.067,-1.185 -0.036,-1.897 0.212,-3.769"
     id="Kearny"
     inkscape:connector-curvature="0" />
  <path
     style="font-size:12px;fill:#d0d0d0;fill-rule:nonzero;stroke:#000000;stroke-width:1;stroke-linecap:butt;stroke-linejoin:bevel;stroke-miterlimit:4;stroke-opacity:1;stroke-dasharray:none;marker-start:none"
     d="m 16.276239,25.418123 4.421,0.236 0.171,0.009 -0.143,3.394 -4.413,-0.23 -0.117,2.253 0.072,1.212 -4.426,-0.23 -0.077,-1.208 0.203,-3.487 0.104,-2.168 4.205,0.219"
     id="Finney"
     inkscape:connector-curvature="0" />
  <path
     style="font-size:12px;fill:#d0d0d0;fill-rule:nonzero;stroke:#000000;stroke-width:1;stroke-linecap:butt;stroke-linejoin:bevel;stroke-miterlimit:4;stroke-opacity:1;stroke-dasharray:none;marker-start:none"
     d="m 27.327239,25.928123 0.063,2.277 -0.089,2.266 -6.635,-0.287 0.059,-1.127 0.143,-3.394 6.459,0.265"
     id="Hodgeman"
     inkscape:connector-curvature="0" />
  <path
     style="font-size:12px;fill:#d0d0d0;fill-rule:nonzero;stroke:#000000;stroke-width:1;stroke-linecap:butt;stroke-linejoin:bevel;stroke-miterlimit:4;stroke-opacity:1;stroke-dasharray:none;marker-start:none"
     d="m 27.364239,24.792123 5.543,0.209 1.167,1.175 -0.112,3.385 -1.096,-0.036 -3.308,-0.112 0.036,-1.131 -2.204,-0.077 -0.063,-2.277 0.037,-1.136"
     id="Pawnee"
     inkscape:connector-curvature="0" />
  <path
     style="font-size:12px;fill:#d0d0d0;fill-rule:nonzero;stroke:#000000;stroke-width:1;stroke-linecap:butt;stroke-linejoin:bevel;stroke-miterlimit:4;stroke-opacity:1;stroke-dasharray:none;marker-start:none"
     d="m 68.283239,24.355123 0,0.573 0.019,1.703 -0.095,0 -0.009,2.876 -4.44,-0.013 0.005,-1.703 0.085,-3.421 4.435,-0.015"
     id="Coffey"
     inkscape:connector-curvature="0" />
  <path
     style="font-size:12px;fill:#d0d0d0;fill-rule:nonzero;stroke:#000000;stroke-width:1;stroke-linecap:butt;stroke-linejoin:bevel;stroke-miterlimit:4;stroke-opacity:1;stroke-dasharray:none;marker-start:none"
     d="m 68.283239,24.928123 4.445,-0.027 0.022,1.703 -0.1,1.74 0,1.136 -4.452,0.027 0.009,-2.876 0.095,0 -0.019,-1.703"
     id="Anderson"
     inkscape:connector-curvature="0" />
  <path
     style="font-size:12px;fill:#d0d0d0;fill-rule:nonzero;stroke:#000000;stroke-width:1;stroke-linecap:butt;stroke-linejoin:bevel;stroke-miterlimit:4;stroke-opacity:1;stroke-dasharray:none;marker-start:none"
     d="m 77.266239,24.861123 0.054,4.271 0.005,0.303 -4.675,0.045 0,-1.136 0.1,-1.74 -0.022,-1.703 4.538,-0.04"
     id="Linn"
     inkscape:connector-curvature="0" />
  <path
     style="font-size:12px;fill:#d0d0d0;fill-rule:nonzero;stroke:#000000;stroke-width:1;stroke-linecap:butt;stroke-linejoin:bevel;stroke-miterlimit:4;stroke-opacity:1;stroke-dasharray:none;marker-start:none"
     d="m 77.239239,20.317123 0.014,3.39 0.013,1.154 -4.538,0.04 0.044,-4.534 4.467,-0.05"
     id="Miami"
     inkscape:connector-curvature="0" />
  <path
     style="font-size:12px;fill:#d0d0d0;fill-rule:nonzero;stroke:#000000;stroke-width:1;stroke-linecap:butt;stroke-linejoin:bevel;stroke-miterlimit:4;stroke-opacity:1;stroke-dasharray:none;marker-start:none"
     d="m 68.333239,20.403123 4.439,-0.036 -0.044,4.534 -4.445,0.027 0,-0.573 0.05,-3.952"
     id="Franklin"
     inkscape:connector-curvature="0" />
  <path
     style="font-size:12px;fill:#d0d0d0;fill-rule:nonzero;stroke:#000000;stroke-width:1;stroke-linecap:butt;stroke-linejoin:bevel;stroke-miterlimit:4;stroke-opacity:1;stroke-dasharray:none;marker-start:none"
     d="m 68.328239,18.695123 0.005,1.708 -0.05,3.952 -4.435,0.015 0.041,-3.958 -0.004,-1.703 4.443,-0.014"
     id="Osage"
     inkscape:connector-curvature="0" />
  <path
     style="font-size:12px;fill:#d0d0d0;fill-rule:nonzero;stroke:#000000;stroke-width:1;stroke-linecap:butt;stroke-linejoin:bevel;stroke-miterlimit:4;stroke-opacity:1;stroke-dasharray:none;marker-start:none"
     d="m 59.828239,20.398123 4.061,0.014 -0.041,3.958 -0.085,3.421 -4.007,-0.028 0.049,-4.535 0.023,-2.83"
     id="Lyon"
     inkscape:connector-curvature="0" />
  <path
     style="font-size:12px;fill:#d0d0d0;fill-rule:nonzero;stroke:#000000;stroke-width:1;stroke-linecap:butt;stroke-linejoin:bevel;stroke-miterlimit:4;stroke-opacity:1;stroke-dasharray:none;marker-start:none"
     d="m 55.140239,23.188123 4.665,0.04 -0.049,4.535 -1.672,1.117 -3.209,-0.013 0.018,-2.136 0.045,-1.285 0.184,0.006 0.018,-2.264"
     id="Chase"
     inkscape:connector-curvature="0" />
  <path
     style="font-size:12px;fill:#d0d0d0;fill-rule:nonzero;stroke:#000000;stroke-width:1;stroke-linecap:butt;stroke-linejoin:bevel;stroke-miterlimit:4;stroke-opacity:1;stroke-dasharray:none;marker-start:none"
     d="m 58.349239,18.695123 1.479,1.703 -0.023,2.83 -4.665,-0.04 -1.099,-1.14 0.433,-3.384 3.875,0.031"
     id="Morris"
     inkscape:connector-curvature="0" />
  <path
     style="font-size:12px;fill:#d0d0d0;fill-rule:nonzero;stroke:#000000;stroke-width:1;stroke-linecap:butt;stroke-linejoin:bevel;stroke-miterlimit:4;stroke-opacity:1;stroke-dasharray:none;marker-start:none"
     d="m 54.041239,22.048123 1.099,1.14 -0.018,2.264 -0.184,-0.006 -0.045,1.285 -0.018,2.136 -3.147,-0.058 -2.185,-1.149 0.081,-5.666 4.417,0.054"
     id="Marion"
     inkscape:connector-curvature="0" />
  <path
     style="font-size:12px;fill:#d0d0d0;fill-rule:nonzero;stroke:#000000;stroke-width:1;stroke-linecap:butt;stroke-linejoin:bevel;stroke-miterlimit:4;stroke-opacity:1;stroke-dasharray:none;marker-start:none"
     d="m 49.624239,21.994123 -0.081,5.666 -3.322,-0.055 -2.217,-0.04 0.089,-5.67 5.531,0.099"
     id="McPherson"
     inkscape:connector-curvature="0" />
  <path
     style="font-size:12px;fill:#d0d0d0;fill-rule:nonzero;stroke:#000000;stroke-width:1;stroke-linecap:butt;stroke-linejoin:bevel;stroke-miterlimit:4;stroke-opacity:1;stroke-dasharray:none;marker-start:none"
     d="m 38.505239,22.909123 5.571,0.117 -0.072,4.539 -5.54,-0.118 -0.04,-1.145 0.081,-3.393"
     id="Rice"
     inkscape:connector-curvature="0" />
  <path
     style="font-size:12px;fill:#d0d0d0;fill-rule:nonzero;stroke:#000000;stroke-width:1;stroke-linecap:butt;stroke-linejoin:bevel;stroke-miterlimit:4;stroke-opacity:1;stroke-dasharray:none;marker-start:none"
     d="m 49.692239,17.464123 -0.068,4.53 -5.531,-0.099 0.028,-3.399 0.022,-1.131 5.549,0.099"
     id="Saline"
     inkscape:connector-curvature="0" />
  <path
     style="font-size:12px;fill:#d0d0d0;fill-rule:nonzero;stroke:#000000;stroke-width:1;stroke-linecap:butt;stroke-linejoin:bevel;stroke-miterlimit:4;stroke-opacity:1;stroke-dasharray:none;marker-start:none"
     d="m 38.581239,18.370123 5.54,0.126 -0.028,3.399 -0.017,1.131 -5.571,-0.117 0.005,-2.281 0.071,-2.258"
     id="Ellsworth"
     inkscape:connector-curvature="0" />
  <path
     style="font-size:12px;fill:#d0d0d0;fill-rule:nonzero;stroke:#000000;stroke-width:1;stroke-linecap:butt;stroke-linejoin:bevel;stroke-miterlimit:4;stroke-opacity:1;stroke-dasharray:none;marker-start:none"
     d="m 38.510239,20.628123 -0.005,2.281 -0.081,3.393 -4.35,-0.126 -1.167,-1.175 0.14,-4.526 5.463,0.153"
     id="Barton"
     inkscape:connector-curvature="0" />
  <path
     style="font-size:12px;fill:#d0d0d0;fill-rule:nonzero;stroke:#000000;stroke-width:1;stroke-linecap:butt;stroke-linejoin:bevel;stroke-miterlimit:4;stroke-opacity:1;stroke-dasharray:none;marker-start:none"
     d="m 27.530239,20.286123 5.417,0.184 0.1,0.005 -0.14,4.526 -5.543,-0.209 0.166,-4.506"
     id="Rush"
     inkscape:connector-curvature="0" />
  <path
     style="font-size:12px;fill:#d0d0d0;fill-rule:nonzero;stroke:#000000;stroke-width:1;stroke-linecap:butt;stroke-linejoin:bevel;stroke-miterlimit:4;stroke-opacity:1;stroke-dasharray:none;marker-start:none"
     d="m 20.918239,19.993123 0.933,0.049 5.544,0.239 0.135,0.005 -0.166,4.506 -0.037,1.136 -6.459,-0.265 -0.171,-0.009 0.221,-5.661"
     id="Ness"
     inkscape:connector-curvature="0" />
  <path
     style="font-size:12px;fill:#d0d0d0;fill-rule:nonzero;stroke:#000000;stroke-width:1;stroke-linecap:butt;stroke-linejoin:bevel;stroke-miterlimit:4;stroke-opacity:1;stroke-dasharray:none;marker-start:none"
     d="m 16.519239,19.758123 4.399,0.235 -0.221,5.661 -4.421,-0.236 0.243,-5.66"
     id="Lane"
     inkscape:connector-curvature="0" />
  <path
     style="font-size:12px;fill:#d0d0d0;fill-rule:nonzero;stroke:#000000;stroke-width:1;stroke-linecap:butt;stroke-linejoin:bevel;stroke-miterlimit:4;stroke-opacity:1;stroke-dasharray:none;marker-start:none"
     d="m 12.125239,19.524123 3.092,0.171 1.302,0.063 -0.243,5.66 -4.205,-0.219 -0.221,-0.01 0.275,-5.665"
     id="Scott"
     inkscape:connector-curvature="0" />
  <path
     style="font-size:12px;fill:#d0d0d0;fill-rule:nonzero;stroke:#000000;stroke-width:1;stroke-linecap:butt;stroke-linejoin:bevel;stroke-miterlimit:4;stroke-opacity:1;stroke-dasharray:none;marker-start:none"
     d="m 8.5732391,19.334123 3.5519999,0.19 -0.275,5.665 -4.1869999,-0.221 -0.252,-0.012 0.333,-5.662 0.829,0.04"
     id="Wichita"
     inkscape:connector-curvature="0" />
  <path
     style="font-size:12px;fill:#d0d0d0;fill-rule:nonzero;stroke:#000000;stroke-width:1;stroke-linecap:butt;stroke-linejoin:bevel;stroke-miterlimit:4;stroke-opacity:1;stroke-dasharray:none;marker-start:none"
     d="m 9.8182391,13.742123 1.4779999,0.081 1.509,0.108 2.763,0.144 -0.351,5.62 -3.092,-0.171 -3.5519999,-0.19 0.388,-5.638 0.857,0.046"
     id="Logan"
     inkscape:connector-curvature="0" />
  <path
     style="font-size:12px;fill:#d0d0d0;fill-rule:nonzero;stroke:#000000;stroke-width:1;stroke-linecap:butt;stroke-linejoin:bevel;stroke-miterlimit:4;stroke-opacity:1;stroke-dasharray:none;marker-start:none"
     d="m 16.470239,14.120123 5.525,0.275 0.163,0.004 -0.307,5.643 -0.933,-0.049 -4.399,-0.235 -1.302,-0.063 0.351,-5.62 0.902,0.045"
     id="Gove"
     inkscape:connector-curvature="0" />
  <path
     style="font-size:12px;fill:#d0d0d0;fill-rule:nonzero;stroke:#000000;stroke-width:1;stroke-linecap:butt;stroke-linejoin:bevel;stroke-miterlimit:4;stroke-opacity:1;stroke-dasharray:none;marker-start:none"
     d="m 22.158239,14.399123 5.386,0.217 0.135,0.004 -0.284,5.661 -5.544,-0.239 0.307,-5.643"
     id="Trego"
     inkscape:connector-curvature="0" />
  <path
     style="font-size:12px;fill:#d0d0d0;fill-rule:nonzero;stroke:#000000;stroke-width:1;stroke-linecap:butt;stroke-linejoin:bevel;stroke-miterlimit:4;stroke-opacity:1;stroke-dasharray:none;marker-start:none"
     d="m 27.679239,14.620123 5.399,0.18 0.104,0.005 -0.235,5.665 -5.417,-0.184 -0.135,-0.005 0.284,-5.661"
     id="Ellis"
     inkscape:connector-curvature="0" />
  <path
     style="font-size:12px;fill:#d0d0d0;fill-rule:nonzero;stroke:#000000;stroke-width:1;stroke-linecap:butt;stroke-linejoin:bevel;stroke-miterlimit:4;stroke-opacity:1;stroke-dasharray:none;marker-start:none"
     d="m 33.182239,14.805123 5.435,0.162 -0.036,3.403 -0.071,2.258 -5.463,-0.153 -0.1,-0.005 0.235,-5.665"
     id="Russell"
     inkscape:connector-curvature="0" />
  <path
     style="font-size:12px;fill:#d0d0d0;fill-rule:nonzero;stroke:#000000;stroke-width:1;stroke-linecap:butt;stroke-linejoin:bevel;stroke-miterlimit:4;stroke-opacity:1;stroke-dasharray:none;marker-start:none"
     d="m 44.202239,13.971123 -0.059,3.394 -0.022,1.131 -5.54,-0.126 0.036,-3.403 0.032,-1.132 5.553,0.136"
     id="Lincoln"
     inkscape:connector-curvature="0" />
  <path
     style="font-size:12px;fill:#d0d0d0;fill-rule:nonzero;stroke:#000000;stroke-width:1;stroke-linecap:butt;stroke-linejoin:bevel;stroke-miterlimit:4;stroke-opacity:1;stroke-dasharray:none;marker-start:none"
     d="m 44.229239,12.840123 5.548,0.099 -0.049,2.263 -0.036,2.262 -5.549,-0.099 0.059,-3.394 0.027,-1.131"
     id="Ottawa"
     inkscape:connector-curvature="0" />
  <path
     style="font-size:12px;fill:#d0d0d0;fill-rule:nonzero;stroke:#000000;stroke-width:1;stroke-linecap:butt;stroke-linejoin:bevel;stroke-miterlimit:4;stroke-opacity:1;stroke-dasharray:none;marker-start:none"
     d="m 53.780239,15.247123 0.694,3.417 -0.433,3.384 -4.417,-0.054 0.068,-4.53 0.036,-2.262 4.052,0.045"
     id="Dickinson"
     inkscape:connector-curvature="0" />
  <path
     style="font-size:12px;fill:#d0d0d0;fill-rule:nonzero;stroke:#000000;stroke-width:1;stroke-linecap:butt;stroke-linejoin:bevel;stroke-miterlimit:4;stroke-opacity:1;stroke-dasharray:none;marker-start:none"
     d="m 53.780239,15.247123 0.031,-1.145 1.104,0.026 -0.027,1.701 2.695,0.219 0.784,0.009 0,0.38 -0.018,2.258 -3.875,-0.031 -0.694,-3.417"
     id="Geary"
     inkscape:connector-curvature="0" />
  <path
     style="font-size:12px;fill:#d0d0d0;fill-rule:nonzero;stroke:#000000;stroke-width:1;stroke-linecap:butt;stroke-linejoin:bevel;stroke-miterlimit:4;stroke-opacity:1;stroke-dasharray:none;marker-start:none"
     d="m 62.960239,15.373123 0.925,3.336 0.004,1.703 -4.061,-0.014 -1.479,-1.703 0.018,-2.258 1.123,-1.673 0.063,0.059 0.252,0.158 0.104,0.026 0.523,-0.536 0.672,-0.162 1.185,0.095 0.235,0.095 0.144,0.184 0.279,0.587 0.013,0.103"
     id="Wabaunsee"
     inkscape:connector-curvature="0" />
  <path
     style="font-size:12px;fill:#d0d0d0;fill-rule:nonzero;stroke:#000000;stroke-width:1;stroke-linecap:butt;stroke-linejoin:bevel;stroke-miterlimit:4;stroke-opacity:1;stroke-dasharray:none;marker-start:none"
     d="m 62.996239,14.201123 4.426,-0.004 0.897,2.077 0.009,2.421 -4.443,0.014 -0.925,-3.336 0.036,-1.172"
     id="Shawnee"
     inkscape:connector-curvature="0" />
  <path
     style="font-size:12px;fill:#d0d0d0;fill-rule:nonzero;stroke:#000000;stroke-width:1;stroke-linecap:butt;stroke-linejoin:bevel;stroke-miterlimit:4;stroke-opacity:1;stroke-dasharray:none;marker-start:none"
     d="m 71.434239,16.410123 1.311,0.793 0.027,3.164 -4.439,0.036 -0.005,-1.708 -0.009,-2.421 0.434,-0.157 0.202,-0.024 0.139,0.024 0.199,0.085 0.126,0.144 0.316,0.19 0.176,0.045 0.143,-0.009 1.38,-0.162"
     id="Douglas"
     inkscape:connector-curvature="0" />
  <path
     style="font-size:12px;fill:#d0d0d0;fill-rule:nonzero;stroke:#000000;stroke-width:1;stroke-linecap:butt;stroke-linejoin:bevel;stroke-miterlimit:4;stroke-opacity:1;stroke-dasharray:none;marker-start:none"
     d="m 74.210239,17.072123 0.266,-0.82 0.063,-0.054 0.131,-0.045 0.153,-0.005 0.852,0.217 1.528,-0.023 0.032,2.56 0.004,1.415 -4.467,0.05 -0.027,-3.164 1.465,-0.131"
     id="Johnson"
     inkscape:connector-curvature="0" />
  <path
     style="font-size:12px;fill:#d0d0d0;fill-rule:nonzero;stroke:#000000;stroke-width:1;stroke-linecap:butt;stroke-linejoin:bevel;stroke-miterlimit:4;stroke-opacity:1;stroke-dasharray:none;marker-start:none"
     d="m 77.235239,14.836123 -0.046,0.605 0.014,0.901 -1.528,0.023 -0.852,-0.217 -0.153,0.005 -0.131,0.045 -0.063,0.054 -0.266,0.82 -0.014,-1.789 0.068,-0.956 1.064,0 1.907,0.509"
     id="Wyandotte"
     inkscape:connector-curvature="0" />
  <path
     style="font-size:12px;fill:#d0d0d0;fill-rule:nonzero;stroke:#000000;stroke-width:1;stroke-linecap:butt;stroke-linejoin:bevel;stroke-miterlimit:4;stroke-opacity:1;stroke-dasharray:none;marker-start:none"
     d="m 71.466239,11.533123 2.086,-0.02 1.776,2.814 -1.064,0 -0.068,0.956 0.014,1.789 -1.465,0.131 -1.311,-0.793 -0.018,-1.1 0.067,-1.307 -0.017,-2.47"
     id="Leavenworth"
     inkscape:connector-curvature="0" />
  <path
     style="font-size:12px;fill:#d0d0d0;fill-rule:nonzero;stroke:#000000;stroke-width:1;stroke-linecap:butt;stroke-linejoin:bevel;stroke-miterlimit:4;stroke-opacity:1;stroke-dasharray:none;marker-start:none"
     d="m 67.598239,11.556123 3.868,-0.023 0.017,2.47 -0.067,1.307 0.018,1.1 -1.38,0.162 -0.143,0.009 -0.176,-0.045 -0.316,-0.19 -0.126,-0.144 -0.199,-0.085 -0.139,-0.024 -0.202,0.024 -0.434,0.157 -0.897,-2.077 0.176,-2.641"
     id="Jefferson"
     inkscape:connector-curvature="0" />
  <path
     style="font-size:12px;fill:#d0d0d0;fill-rule:nonzero;stroke:#000000;stroke-width:1;stroke-linecap:butt;stroke-linejoin:bevel;stroke-miterlimit:4;stroke-opacity:1;stroke-dasharray:none;marker-start:none"
     d="m 72.214239,10.041123 1.338,1.472 -2.086,0.02 -3.868,0.023 0.05,-3.0389995 2.213,-0.013 2.744,0.361 -0.391,1.1759995"
     id="Atchison"
     inkscape:connector-curvature="0" />
  <path
     style="font-size:12px;fill:#d0d0d0;fill-rule:nonzero;stroke:#000000;stroke-width:1;stroke-linecap:butt;stroke-linejoin:bevel;stroke-miterlimit:4;stroke-opacity:1;stroke-dasharray:none;marker-start:none"
     d="m 67.598239,11.556123 -0.176,2.641 -4.426,0.004 0,-4.5429995 2.434,-1.131 2.218,-0.01 -0.05,3.0389995"
     id="Jackson"
     inkscape:connector-curvature="0" />
  <path
     style="font-size:12px;fill:#d0d0d0;fill-rule:nonzero;stroke:#000000;stroke-width:1;stroke-linecap:butt;stroke-linejoin:bevel;stroke-miterlimit:4;stroke-opacity:1;stroke-dasharray:none;marker-start:none"
     d="m 62.996239,14.201123 -0.036,1.172 -0.013,-0.103 -0.279,-0.587 -0.144,-0.184 -0.235,-0.095 -1.185,-0.095 -0.672,0.162 -0.523,0.536 -0.104,-0.026 -0.252,-0.158 -0.063,-0.059 -0.712,-0.212 -0.658,-0.289 -0.933,-0.864 -0.491,-0.767 -0.487,-0.896 0.004,-0.519 0.122,-0.203 1.271,-1.3789995 3.385,0.019 2.005,0.004 0,4.5429995"
     id="Pottawatomie"
     inkscape:connector-curvature="0" />
  <path
     style="font-size:12px;fill:#d0d0d0;fill-rule:nonzero;stroke:#000000;stroke-width:1;stroke-linecap:butt;stroke-linejoin:bevel;stroke-miterlimit:4;stroke-opacity:1;stroke-dasharray:none;marker-start:none"
     d="m 53.811239,14.102123 0.072,-4.4979995 1.505,0.014 2.218,0.017 -1.271,1.3789995 -0.122,0.203 -0.004,0.519 0.487,0.896 0.491,0.767 0.933,0.864 0.658,0.289 0.712,0.212 -1.123,1.673 0,-0.38 -0.784,-0.009 -2.695,-0.219 0.027,-1.701 -1.104,-0.026"
     id="Riley"
     inkscape:connector-curvature="0" />
  <path
     style="font-size:12px;fill:#d0d0d0;fill-rule:nonzero;stroke:#000000;stroke-width:1;stroke-linecap:butt;stroke-linejoin:bevel;stroke-miterlimit:4;stroke-opacity:1;stroke-dasharray:none;marker-start:none"
     d="m 49.777239,12.939123 0.059,-3.3899995 4.047,0.055 -0.072,4.4979995 -0.031,1.145 -4.052,-0.045 0.049,-2.263"
     id="Clay"
     inkscape:connector-curvature="0" />
  <path
     style="font-size:12px;fill:#d0d0d0;fill-rule:nonzero;stroke:#000000;stroke-width:1;stroke-linecap:butt;stroke-linejoin:bevel;stroke-miterlimit:4;stroke-opacity:1;stroke-dasharray:none;marker-start:none"
     d="m 44.274239,9.4511235 0.027,-1.132 5.548,0.099 -0.013,1.131 -0.059,3.3899995 -5.548,-0.099 0.045,-3.3889995"
     id="Cloud"
     inkscape:connector-curvature="0" />
  <path
     style="font-size:12px;fill:#d0d0d0;fill-rule:nonzero;stroke:#000000;stroke-width:1;stroke-linecap:butt;stroke-linejoin:bevel;stroke-miterlimit:4;stroke-opacity:1;stroke-dasharray:none;marker-start:none"
     d="m 44.274239,9.4511235 -0.045,3.3889995 -0.027,1.131 -5.553,-0.136 0.145,-4.5189995 5.48,0.135"
     id="Mitchell"
     inkscape:connector-curvature="0" />
  <path
     style="font-size:12px;fill:#d0d0d0;fill-rule:nonzero;stroke:#000000;stroke-width:1;stroke-linecap:butt;stroke-linejoin:bevel;stroke-miterlimit:4;stroke-opacity:1;stroke-dasharray:none;marker-start:none"
     d="m 38.649239,13.835123 -0.032,1.132 -5.435,-0.162 -0.104,-0.005 0.059,-1.888 0.077,-1.501 0.081,-2.2569995 5.318,0.157 0.181,0.005 -0.145,4.5189995"
     id="Osborne"
     inkscape:connector-curvature="0" />
  <path
     style="font-size:12px;fill:#d0d0d0;fill-rule:nonzero;stroke:#000000;stroke-width:1;stroke-linecap:butt;stroke-linejoin:bevel;stroke-miterlimit:4;stroke-opacity:1;stroke-dasharray:none;marker-start:none"
     d="m 27.787239,8.9671235 5.296,0.177 0.212,0.01 -0.081,2.2569995 -0.077,1.501 -0.059,1.888 -5.399,-0.18 -0.135,-0.004 0.243,-5.6489995"
     id="Rooks"
     inkscape:connector-curvature="0" />
  <path
     style="font-size:12px;fill:#d0d0d0;fill-rule:nonzero;stroke:#000000;stroke-width:1;stroke-linecap:butt;stroke-linejoin:bevel;stroke-miterlimit:4;stroke-opacity:1;stroke-dasharray:none;marker-start:none"
     d="m 21.995239,14.395123 0.275,-5.6519995 5.264,0.213 0.253,0.011 -0.243,5.6489995 -5.386,-0.217 -0.163,-0.004"
     id="Graham"
     inkscape:connector-curvature="0" />
  <path
     style="font-size:12px;fill:#d0d0d0;fill-rule:nonzero;stroke:#000000;stroke-width:1;stroke-linecap:butt;stroke-linejoin:bevel;stroke-miterlimit:4;stroke-opacity:1;stroke-dasharray:none;marker-start:none"
     d="m 16.758239,8.4711235 5.328,0.268 0.184,0.004 -0.275,5.6519995 -5.525,-0.275 0.288,-5.6489995"
     id="Sheridan"
     inkscape:connector-curvature="0" />
  <path
     style="font-size:12px;fill:#d0d0d0;fill-rule:nonzero;stroke:#000000;stroke-width:1;stroke-linecap:butt;stroke-linejoin:bevel;stroke-miterlimit:4;stroke-opacity:1;stroke-dasharray:none;marker-start:none"
     d="m 9.8182391,13.742123 0.3459999,-5.6209995 6.391,0.342 0.203,0.008 -0.288,5.6489995 -0.902,-0.045 -2.763,-0.144 -1.509,-0.108 -1.4779999,-0.081"
     id="Thomas"
     inkscape:connector-curvature="0" />
  <path
     style="font-size:12px;fill:#d0d0d0;fill-rule:nonzero;stroke:#000000;stroke-width:1;stroke-linecap:butt;stroke-linejoin:bevel;stroke-miterlimit:4;stroke-opacity:1;stroke-dasharray:none;marker-start:none"
     d="m 10.268239,2.4741231 0.852,0.045 5.543,0.297 0.195,0.014 -0.303,5.6329991 -6.391,-0.342 -0.2429999,-0.013 0.3469999,-5.6339991"
     id="Rawlins"
     inkscape:connector-curvature="0" />
  <path
     style="font-size:12px;fill:#d0d0d0;fill-rule:nonzero;stroke:#000000;stroke-width:1;stroke-linecap:butt;stroke-linejoin:bevel;stroke-miterlimit:4;stroke-opacity:1;stroke-dasharray:none;marker-start:none"
     d="m 16.858239,2.8301231 5.345,0.256 0.153,0.01 -0.27,5.6429991 -5.328,-0.268 -0.203,-0.008 0.303,-5.6329991"
     id="Decatur"
     inkscape:connector-curvature="0" />
  <path
     style="font-size:12px;fill:#d0d0d0;fill-rule:nonzero;stroke:#000000;stroke-width:1;stroke-linecap:butt;stroke-linejoin:bevel;stroke-miterlimit:4;stroke-opacity:1;stroke-dasharray:none;marker-start:none"
     d="m 32.155239,3.4701231 1.099,0.031 -0.171,5.6429991 -5.296,-0.177 -0.253,-0.011 0.235,-5.6439991 4.386,0.158"
     id="Phillips"
     inkscape:connector-curvature="0" />
  <path
     style="font-size:12px;fill:#d0d0d0;fill-rule:nonzero;stroke:#000000;stroke-width:1;stroke-linecap:butt;stroke-linejoin:bevel;stroke-miterlimit:4;stroke-opacity:1;stroke-dasharray:none;marker-start:none"
     d="m 27.746239,3.3121231 0.023,0 -0.235,5.6439991 -5.264,-0.213 -0.184,-0.004 0.27,-5.6429991 5.39,0.216"
     id="Norton"
     inkscape:connector-curvature="0" />
  <path
     style="font-size:12px;fill:#d0d0d0;fill-rule:nonzero;stroke:#000000;stroke-width:1;stroke-linecap:butt;stroke-linejoin:bevel;stroke-miterlimit:4;stroke-opacity:1;stroke-dasharray:none;marker-start:none"
     d="m 33.254239,3.5011231 3.34,0.104 2.177,0.059 -0.158,5.6469991 -5.318,-0.157 -0.212,-0.01 0.171,-5.6429991"
     id="Smith"
     inkscape:connector-curvature="0" />
  <path
     style="font-size:12px;fill:#d0d0d0;fill-rule:nonzero;stroke:#000000;stroke-width:1;stroke-linecap:butt;stroke-linejoin:bevel;stroke-miterlimit:4;stroke-opacity:1;stroke-dasharray:none;marker-start:none"
     d="m 41.033239,3.7171231 3.358,0.081 -0.09,4.5209991 -0.027,1.132 -5.48,-0.135 -0.181,-0.005 0.158,-5.6469991 2.262,0.053"
     id="Jewell"
     inkscape:connector-curvature="0" />
  <path
     style="font-size:12px;fill:#d0d0d0;fill-rule:nonzero;stroke:#000000;stroke-width:1;stroke-linecap:butt;stroke-linejoin:bevel;stroke-miterlimit:4;stroke-opacity:1;stroke-dasharray:none;marker-start:none"
     d="m 45.473239,3.8221231 4.439,0.071 -0.063,4.5249991 -5.548,-0.099 0.09,-4.5209991 1.082,0.024"
     id="Republic"
     inkscape:connector-curvature="0" />
  <path
     style="font-size:12px;fill:#d0d0d0;fill-rule:nonzero;stroke:#000000;stroke-width:1;stroke-linecap:butt;stroke-linejoin:bevel;stroke-miterlimit:4;stroke-opacity:1;stroke-dasharray:none;marker-start:none"
     d="m 49.912239,3.8931231 4.449,0.059 1.086,0.013 -0.059,5.6529991 -1.505,-0.014 -4.047,-0.055 0.013,-1.131 0.063,-4.5249991"
     id="Washington"
     inkscape:connector-curvature="0" />
  <path
     style="font-size:12px;fill:#d0d0d0;fill-rule:nonzero;stroke:#000000;stroke-width:1;stroke-linecap:butt;stroke-linejoin:bevel;stroke-miterlimit:4;stroke-opacity:1;stroke-dasharray:none;marker-start:none"
     d="m 58.801239,3.9931231 2.203,0.013 -0.013,5.6479991 -3.385,-0.019 -2.218,-0.017 0.059,-5.6529991 3.354,0.028"
     id="Marshall"
     inkscape:connector-curvature="0" />
  <path
     style="font-size:12px;fill:#d0d0d0;fill-rule:nonzero;stroke:#000000;stroke-width:1;stroke-linecap:butt;stroke-linejoin:bevel;stroke-miterlimit:4;stroke-opacity:1;stroke-dasharray:none;marker-start:none"
     d="m 63.244239,4.0101231 2.186,0 0,4.5169991 -2.434,1.131 -2.005,-0.004 0.013,-5.6479991 2.24,0.004"
     id="Nemaha"
     inkscape:connector-curvature="0" />
</svg>
