<?xml version="1.0" encoding="UTF-8" standalone="no"?>
<!-- Created with Inkscape (http://www.inkscape.org/) -->

<svg
   xmlns:dc="http://purl.org/dc/elements/1.1/"
   xmlns:cc="http://creativecommons.org/ns#"
   xmlns:rdf="http://www.w3.org/1999/02/22-rdf-syntax-ns#"
   xmlns:svg="http://www.w3.org/2000/svg"
   xmlns="http://www.w3.org/2000/svg"
   xmlns:sodipodi="http://sodipodi.sourceforge.net/DTD/sodipodi-0.dtd"
   xmlns:inkscape="http://www.inkscape.org/namespaces/inkscape"
   version="1.0"
   width="41.509998"
   height="65.800003"
   sodipodi:version="0.32"
   inkscape:version="0.48.2 r9819"
   sodipodi:docname="al.svg"
   inkscape:output_extension="org.inkscape.output.svg.inkscape"
   id="svg3060">
  <metadata
     id="metadata3062">
    <rdf:RDF>
      <cc:Work
         rdf:about="">
        <dc:format>image/svg+xml</dc:format>
        <dc:type
           rdf:resource="http://purl.org/dc/dcmitype/StillImage" />
      </cc:Work>
    </rdf:RDF>
  </metadata>
  <defs
     id="defs3064" />
  <sodipodi:namedview
     pagecolor="#ffffff"
     bordercolor="#666666"
     borderopacity="1"
     objecttolerance="10"
     gridtolerance="10"
     guidetolerance="10"
     inkscape:pageopacity="0"
     inkscape:pageshadow="2"
     inkscape:window-width="1366"
     inkscape:window-height="716"
     fit-margin-top="0"
     fit-margin-left="0"
     fit-margin-right="0"
     fit-margin-bottom="0"
     inkscape:zoom="7.2946903"
     inkscape:cx="5.7034863"
     inkscape:cy="13.036746"
     inkscape:window-x="-8"
     inkscape:window-y="-8"
     inkscape:window-maximized="1"
     inkscape:current-layer="svg3060"
     id="namedview3066"
     showgrid="false" />
  <path
     style="font-size:12px;fill:#d0d0d0;fill-rule:nonzero;stroke:#000000;stroke-width:1;stroke-linecap:butt;stroke-linejoin:bevel;stroke-miterlimit:4;stroke-opacity:1;stroke-dasharray:none;marker-start:none"
     d="m 35.536188,47.9598 3.614,-0.329 -0.117,0.342 -0.076,0.334 0.153,0.915 0.112,0.261 0.095,0.054 0.095,0 0.082,0.023 0.521,0.573 0.082,0.147 0.119,0.257 0.323,0.934 -5.327,0.648 -0.086,-1.022 -0.177,-1.578 -1.086,0.185 -1.37,0.144 0.389,-0.978 0.062,-0.054 0.257,-0.085 0.185,-0.009 0.175,0.009 0.374,0.089 0.285,0.077 0.496,0.046 0.167,-0.015 0.698,-0.599 -0.045,-0.369"
     id="Houston"
     inkscape:connector-curvature="0" />
  <path
     style="font-size:12px;fill:#d0d0d0;fill-rule:nonzero;stroke:#000000;stroke-width:1;stroke-linecap:butt;stroke-linejoin:bevel;stroke-miterlimit:4;stroke-opacity:1;stroke-dasharray:none;marker-start:none"
     d="m 35.108188,44.0518 -0.122,-1.123 2.181,-0.189 0.058,-0.099 0.167,-0.5 0.289,-0.365 0.055,-0.032 0.062,0 0.185,0.058 0.104,0.091 1.199,2.989 -0.136,2.749 -3.614,0.329 -0.428,-3.908"
     id="Henry"
     inkscape:connector-curvature="0" />
  <path
     style="font-size:12px;fill:#d0d0d0;fill-rule:nonzero;stroke:#000000;stroke-width:1;stroke-linecap:butt;stroke-linejoin:bevel;stroke-miterlimit:4;stroke-opacity:1;stroke-dasharray:none;marker-start:none"
     d="m 31.610188,49.9288 0.883,-0.081 1.37,-0.144 1.086,-0.185 0.177,1.578 0.086,1.022 -0.11,0.019 -5.889,0.681 -1.673,0.166 -0.328,-2.538 4.398,-0.518"
     id="Geneva"
     inkscape:connector-curvature="0" />
  <path
     style="font-size:12px;fill:#d0d0d0;fill-rule:nonzero;stroke:#000000;stroke-width:1;stroke-linecap:butt;stroke-linejoin:bevel;stroke-miterlimit:4;stroke-opacity:1;stroke-dasharray:none;marker-start:none"
     d="m 31.497188,44.4668 3.611,-0.415 0.428,3.908 0.045,0.369 -0.698,0.599 -0.167,0.015 -0.496,-0.046 -0.285,-0.077 -0.374,-0.089 -0.175,-0.009 -0.185,0.009 -0.257,0.085 -0.062,0.054 -0.389,0.978 -0.883,0.081 -0.558,-5.413 0.445,-0.049"
     id="Dale"
     inkscape:connector-curvature="0" />
  <path
     style="font-size:12px;fill:#d0d0d0;fill-rule:nonzero;stroke:#000000;stroke-width:1;stroke-linecap:butt;stroke-linejoin:bevel;stroke-miterlimit:4;stroke-opacity:1;stroke-dasharray:none;marker-start:none"
     d="m 31.052188,44.5158 0.558,5.413 -4.398,0.518 -0.338,-3.181 -0.127,-1.155 0.415,-0.044 0.13,-0.108 -0.13,-1.028 3.89,-0.415"
     id="Coffee"
     inkscape:connector-curvature="0" />
  <path
     style="font-size:12px;fill:#d0d0d0;fill-rule:nonzero;stroke:#000000;stroke-width:1;stroke-linecap:butt;stroke-linejoin:bevel;stroke-miterlimit:4;stroke-opacity:1;stroke-dasharray:none;marker-start:none"
     d="m 23.430188,46.5128 1.082,-0.136 1.098,-0.13 0.203,-0.017 0.046,0.188 0.086,0.743 0.185,0.168 0.744,-0.063 0.338,3.181 0.328,2.538 -2.213,0.225 -3.309,0.317 -0.365,-2.52 -0.431,-4.255 2.208,-0.239"
     id="Covington"
     inkscape:connector-curvature="0" />
  <path
     style="font-size:12px;fill:#d0d0d0;fill-rule:nonzero;stroke:#000000;stroke-width:1;stroke-linecap:butt;stroke-linejoin:bevel;stroke-miterlimit:4;stroke-opacity:1;stroke-dasharray:none;marker-start:none"
     d="m 7.7221881,52.6648 0.09,0.18 0.24,1.019 0.329,1.751 -0.47,0.868 -0.311,1.216 -0.021,0.275 0.188,0.455 0.24,0.461 -0.159,-0.055 -0.041,0.027 -0.508,0.54 -0.307,1.889 -0.969,1.87 -0.644,-0.206 -0.902,-0.018 -0.247,0.041 -0.117,0.04 -0.208,0.22 0,0.005 -0.572,-4.691 -0.414,-3.363 -0.191,-1.489 1.122,-0.089 1.105,-0.346 2.24,-0.316 0.527,-0.284"
     id="Mobile"
     inkscape:connector-curvature="0" />
  <path
     style="font-size:12px;fill:#d0d0d0;fill-rule:nonzero;stroke:#000000;stroke-width:1;stroke-linecap:butt;stroke-linejoin:bevel;stroke-miterlimit:4;stroke-opacity:1;stroke-dasharray:none;marker-start:none"
     d="m 9.854188,50.7358 1.696,0.537 0.468,3.159 -0.249,1.726 0.145,0.246 1.122,1.223 0.353,0.243 0.062,0.023 0.185,0.032 0.374,0.193 0.496,0.307 0.135,0.221 0.04,0.153 0.018,0.212 -0.112,2.817 -0.149,1.41 -0.712,0.321 -1.501,0.531 -1.573,0.397 -0.419,0.067 -1.3789999,0.087 -0.054,-0.072 0.572,-0.208 1.4959999,-0.956 -1.9829999,-4.025 -0.144,-0.202 -0.067,-0.054 -0.514,-0.185 -0.153,-0.049 -0.24,-0.461 -0.188,-0.455 0.021,-0.275 0.311,-1.216 0.47,-0.868 -0.329,-1.751 -0.24,-1.019 -0.09,-0.18 0.258,-0.415 1.8739999,-1.514"
     id="Baldwin"
     inkscape:connector-curvature="0" />
  <path
     style="font-size:12px;fill:#d0d0d0;fill-rule:nonzero;stroke:#000000;stroke-width:1;stroke-linecap:butt;stroke-linejoin:bevel;stroke-miterlimit:4;stroke-opacity:1;stroke-dasharray:none;marker-start:none"
     d="m 21.653188,51.0068 0.365,2.52 -1.058,0.08 -4.147,0.37 -4.795,0.455 -0.468,-3.159 0.643,0.166 0.109,-0.045 0.612,-0.432 0.685,-0.079 7.27,-0.692 -0.018,0.085 -0.012,0.563 0.012,0.117 0.037,0.051 0.089,0.076 0.5,0.014 0.176,-0.09"
     id="Escambia"
     inkscape:connector-curvature="0" />
  <path
     style="font-size:12px;fill:#d0d0d0;fill-rule:nonzero;stroke:#000000;stroke-width:1;stroke-linecap:butt;stroke-linejoin:bevel;stroke-miterlimit:4;stroke-opacity:1;stroke-dasharray:none;marker-start:none"
     d="m 21.222188,46.7518 0.431,4.255 -0.176,0.09 -0.5,-0.014 -0.089,-0.076 -0.037,-0.051 -0.012,-0.117 0.012,-0.563 0.018,-0.085 -7.27,0.692 0.005,-0.074 0.073,-0.176 1.189,-1.687 0.667,-0.748 0.78,-2.285 0.032,-0.234 1.122,-1.014 0.923,-0.509 0.249,-0.122 0.067,-0.009 0.141,1.542 0.581,1.094 0.288,0.217 1.506,-0.126"
     id="Conecuh"
     inkscape:connector-curvature="0" />
  <path
     style="font-size:12px;fill:#d0d0d0;fill-rule:nonzero;stroke:#000000;stroke-width:1;stroke-linecap:butt;stroke-linejoin:bevel;stroke-miterlimit:4;stroke-opacity:1;stroke-dasharray:none;marker-start:none"
     d="m 1.7771881,46.2198 4.102,-0.352 0.013,0.546 0.195,0.707 0.563,0.483 0.149,0.09 0.455,0.158 0.406,0.102 0.428,0.393 0.31,1.253 0.014,0.081 -0.031,0.42 -0.105,0.396 -0.22,0.23 -0.194,0.261 -0.153,0.519 0.271,0.743 -0.258,0.415 -0.527,0.284 -2.24,0.316 -1.105,0.346 -1.122,0.089 -0.951,-7.48"
     id="Washington"
     inkscape:connector-curvature="0" />
  <path
     style="font-size:12px;fill:#d0d0d0;fill-rule:nonzero;stroke:#000000;stroke-width:1;stroke-linecap:butt;stroke-linejoin:bevel;stroke-miterlimit:4;stroke-opacity:1;stroke-dasharray:none;marker-start:none"
     d="m 1.6151881,38.3148 5.315,-0.465 -0.505,0.072 -0.281,0.176 -0.148,0.162 -0.824,3.074 0.05,0.474 0.054,0.13 0.08,0.089 0.09,0.051 0.28,0.032 0.153,3.758 -4.102,0.352 -0.261,-2.528 0.073,-4.323 0.026,-1.054"
     id="Choctaw"
     inkscape:connector-curvature="0" />
  <path
     style="font-size:12px;fill:#d0d0d0;fill-rule:nonzero;stroke:#000000;stroke-width:1;stroke-linecap:butt;stroke-linejoin:bevel;stroke-miterlimit:4;stroke-opacity:1;stroke-dasharray:none;marker-start:none"
     d="m 10.134188,41.7168 2.001,1.925 -0.171,0.207 -0.393,1.554 0.162,1.728 0.141,1.261 -0.081,0.392 -0.231,0.307 -0.131,0.077 -0.144,-0.023 -0.23,-0.177 -0.134,0.011 -0.122,0.045 -1.008,0.856 -0.1869999,0.468 0,0.059 0.028,0.135 0.04,0.076 0.1799999,0.118 -1.8739999,1.514 -0.271,-0.743 0.153,-0.519 0.194,-0.261 0.22,-0.23 0.105,-0.396 0.031,-0.42 -0.014,-0.081 -0.31,-1.253 -0.428,-0.393 -0.406,-0.102 -0.455,-0.158 -0.149,-0.09 -0.563,-0.483 -0.195,-0.707 -0.013,-0.546 -0.153,-3.758 4.4079999,-0.393"
     id="Clarke"
     inkscape:connector-curvature="0" />
  <path
     style="font-size:12px;fill:#d0d0d0;fill-rule:nonzero;stroke:#000000;stroke-width:1;stroke-linecap:butt;stroke-linejoin:bevel;stroke-miterlimit:4;stroke-opacity:1;stroke-dasharray:none;marker-start:none"
     d="m 18.598188,43.0248 0.108,1 -0.067,0.009 -0.249,0.122 -0.923,0.509 -1.122,1.014 -0.032,0.234 -0.78,2.285 -0.667,0.748 -1.189,1.687 -0.073,0.176 -0.005,0.074 -0.685,0.079 -0.612,0.432 -0.109,0.045 -0.643,-0.166 -1.696,-0.537 -0.1799999,-0.118 -0.04,-0.076 -0.028,-0.135 0,-0.059 0.1869999,-0.468 1.008,-0.856 0.122,-0.045 0.134,-0.011 0.23,0.177 0.144,0.023 0.131,-0.077 0.231,-0.307 0.081,-0.392 -0.141,-1.261 -0.162,-1.728 0.393,-1.554 0.171,-0.207 2.917,-0.297 1.586,-0.117 1.96,-0.203"
     id="Monroe"
     inkscape:connector-curvature="0" />
  <path
     style="font-size:12px;fill:#d0d0d0;fill-rule:nonzero;stroke:#000000;stroke-width:1;stroke-linecap:butt;stroke-linejoin:bevel;stroke-miterlimit:4;stroke-opacity:1;stroke-dasharray:none;marker-start:none"
     d="m 11.946188,38.0038 0.292,-0.078 0.068,0.041 1.347,0.942 1.736,1.6 2.943,-0.284 0.64,1.055 -0.374,1.745 -1.96,0.203 -1.586,0.117 -2.917,0.297 -2.001,-1.925 0.451,-0.226 -0.136,-1.63 0.951,-1.676 0.091,-0.155 0.098,-0.036 0.189,-0.013 0.168,0.023"
     id="Wilcox"
     inkscape:connector-curvature="0" />
  <path
     style="font-size:12px;fill:#d0d0d0;fill-rule:nonzero;stroke:#000000;stroke-width:1;stroke-linecap:butt;stroke-linejoin:bevel;stroke-miterlimit:4;stroke-opacity:1;stroke-dasharray:none;marker-start:none"
     d="m 18.972188,41.2798 4.445,-0.469 0.347,3.174 0.049,0.797 -0.554,0.058 0.171,1.673 -2.208,0.239 -1.506,0.126 -0.288,-0.217 -0.581,-1.094 -0.141,-1.542 -0.108,-1 0.374,-1.745"
     id="Butler"
     inkscape:connector-curvature="0" />
  <path
     style="font-size:12px;fill:#d0d0d0;fill-rule:nonzero;stroke:#000000;stroke-width:1;stroke-linecap:butt;stroke-linejoin:bevel;stroke-miterlimit:4;stroke-opacity:1;stroke-dasharray:none;marker-start:none"
     d="m 26.202188,40.4998 0.96,4.431 0.13,1.028 -0.13,0.108 -0.415,0.044 0.127,1.155 -0.744,0.063 -0.185,-0.168 -0.086,-0.743 -0.046,-0.188 -0.203,0.017 -1.098,0.13 -1.082,0.136 -0.171,-1.673 0.554,-0.058 -0.049,-0.797 -0.347,-3.174 0.342,-1.154 1.113,-0.126 0.132,1.114 1.198,-0.145"
     id="Crenshaw"
     inkscape:connector-curvature="0" />
  <path
     style="font-size:12px;fill:#d0d0d0;fill-rule:nonzero;stroke:#000000;stroke-width:1;stroke-linecap:butt;stroke-linejoin:bevel;stroke-miterlimit:4;stroke-opacity:1;stroke-dasharray:none;marker-start:none"
     d="m 28.198188,39.1938 0.446,-0.186 0.474,0.041 0.202,0.072 0.523,0.987 0.82,1.042 1.452,-0.159 -0.618,3.476 -0.445,0.049 -3.89,0.415 -0.96,-4.431 1.996,-1.306"
     id="Pike"
     inkscape:connector-curvature="0" />
  <path
     style="font-size:12px;fill:#d0d0d0;fill-rule:nonzero;stroke:#000000;stroke-width:1;stroke-linecap:butt;stroke-linejoin:bevel;stroke-miterlimit:4;stroke-opacity:1;stroke-dasharray:none;marker-start:none"
     d="m 34.039188,36.1678 0.379,1.106 -0.175,0.112 0.094,1.127 0.072,0.473 -0.888,0.297 -0.855,0.321 -0.496,0.973 -0.064,0.312 0.009,0.102 -1.452,0.159 -0.82,-1.042 -0.523,-0.987 -0.202,-0.072 -0.474,-0.041 -0.446,0.186 0.536,-2.962 0.664,0.437 0.089,0.032 4.552,-0.533"
     id="Bullock"
     inkscape:connector-curvature="0" />
  <path
     style="font-size:12px;fill:#d0d0d0;fill-rule:nonzero;stroke:#000000;stroke-width:1;stroke-linecap:butt;stroke-linejoin:bevel;stroke-miterlimit:4;stroke-opacity:1;stroke-dasharray:none;marker-start:none"
     d="m 30.699188,31.8368 0.023,0.181 2.339,0.847 0.546,-0.063 0.176,1.118 0.256,2.248 -4.552,0.533 -0.089,-0.032 -0.664,-0.437 -1.321,-1.753 1.38,-1.095 0.956,-0.118 0.325,-1.171 0.625,-0.258"
     id="Macon"
     inkscape:connector-curvature="0" />
  <path
     style="font-size:12px;fill:#d0d0d0;fill-rule:nonzero;stroke:#000000;stroke-width:1;stroke-linecap:butt;stroke-linejoin:bevel;stroke-miterlimit:4;stroke-opacity:1;stroke-dasharray:none;marker-start:none"
     d="m 18.963188,36.3628 0.295,-0.671 0.034,-0.06 0.477,-0.085 1.294,-0.153 1.334,0.582 1.362,3.681 -0.342,1.154 -4.445,0.469 -0.64,-1.055 0.631,-3.862"
     id="Lowndes"
     inkscape:connector-curvature="0" />
  <path
     style="font-size:12px;fill:#d0d0d0;fill-rule:nonzero;stroke:#000000;stroke-width:1;stroke-linecap:butt;stroke-linejoin:bevel;stroke-miterlimit:4;stroke-opacity:1;stroke-dasharray:none;marker-start:none"
     d="m 23.241188,35.0418 1.486,-1.348 0.122,0.014 0.159,0.055 0.085,0.057 0.514,0.555 -0.05,0.086 0.856,0.162 0.749,0.063 0.251,-0.207 1.321,1.753 -0.536,2.962 -1.996,1.306 -1.198,0.145 -0.132,-1.114 -1.113,0.126 -1.362,-3.681 0.844,-0.934"
     id="Montgomery"
     inkscape:connector-curvature="0" />
  <path
     style="font-size:12px;fill:#d0d0d0;fill-rule:nonzero;stroke:#000000;stroke-width:1;stroke-linecap:butt;stroke-linejoin:bevel;stroke-miterlimit:4;stroke-opacity:1;stroke-dasharray:none;marker-start:none"
     d="m 27.130188,30.1518 1.33,-0.135 0.031,0.013 0.023,0.172 -0.1,0.378 0.308,2.664 0.035,0.103 0.036,0.037 -1.38,1.095 -0.251,0.207 -0.749,-0.063 -0.856,-0.162 0.05,-0.086 -0.514,-0.555 -0.085,-0.057 -0.159,-0.055 -0.122,-0.014 -1.486,1.348 -0.411,-3.826 0.325,-0.645 3.975,-0.419"
     id="Elmore"
     inkscape:connector-curvature="0" />
  <path
     style="font-size:12px;fill:#d0d0d0;fill-rule:nonzero;stroke:#000000;stroke-width:1;stroke-linecap:butt;stroke-linejoin:bevel;stroke-miterlimit:4;stroke-opacity:1;stroke-dasharray:none;marker-start:none"
     d="m 22.830188,31.2158 0.411,3.826 -0.844,0.934 -1.334,-0.582 -1.294,0.153 -0.477,0.085 -0.034,0.06 -0.295,0.671 -1.5,-4.056 1.085,-0.055 1.109,-0.126 -0.061,-0.567 3.234,-0.343"
     id="Autauga"
     inkscape:connector-curvature="0" />
  <path
     style="font-size:12px;fill:#d0d0d0;fill-rule:nonzero;stroke:#000000;stroke-width:1;stroke-linecap:butt;stroke-linejoin:bevel;stroke-miterlimit:4;stroke-opacity:1;stroke-dasharray:none;marker-start:none"
     d="m 16.295188,31.5708 1.168,0.736 1.5,4.056 -0.631,3.862 -2.943,0.284 -1.736,-1.6 -1.347,-0.942 -0.068,-0.041 -0.292,0.078 -0.058,-0.551 0.553,-0.053 -0.22,-2.25 1.87,-0.188 1.473,-0.195 0.087,-0.184 0.293,-1.018 0.166,-0.782 0.185,-1.212"
     id="Dallas"
     inkscape:connector-curvature="0" />
  <path
     style="font-size:12px;fill:#d0d0d0;fill-rule:nonzero;stroke:#000000;stroke-width:1;stroke-linecap:butt;stroke-linejoin:bevel;stroke-miterlimit:4;stroke-opacity:1;stroke-dasharray:none;marker-start:none"
     d="m 7.9711881,34.9838 0.892,-0.077 0.058,0.564 2.2089999,-0.212 0.758,2.194 0.058,0.551 -0.168,-0.023 -0.189,0.013 -0.098,0.036 -0.091,0.155 -0.951,1.676 0.136,1.63 -0.451,0.226 -4.4079999,0.393 -0.28,-0.032 -0.09,-0.051 -0.08,-0.089 -0.054,-0.13 -0.05,-0.474 0.824,-3.074 0.148,-0.162 0.281,-0.176 0.505,-0.072 -0.475,-0.397 -0.828,-0.316 -0.023,-0.076 0.019,-0.518 0.058,-0.162 1.203,-1.222 0.09,-0.063 0.545,-0.171 0.452,0.059"
     id="Marengo"
     inkscape:connector-curvature="0" />
  <path
     style="font-size:12px;fill:#d0d0d0;fill-rule:nonzero;stroke:#000000;stroke-width:1;stroke-linecap:butt;stroke-linejoin:bevel;stroke-miterlimit:4;stroke-opacity:1;stroke-dasharray:none;marker-start:none"
     d="m 1.7831881,29.4438 1.806,-0.211 -0.117,1.099 0.216,0.942 1.299,2.727 0.257,0.316 0.035,0.009 0.461,-0.135 0.359,-0.167 0.082,-0.081 0.208,-0.145 0.184,-0.09 0.095,0.004 0.112,0.068 0.739,1.145 -0.545,0.171 -0.09,0.063 -1.203,1.222 -0.058,0.162 -0.019,0.518 0.023,0.076 0.828,0.316 0.475,0.397 -5.315,0.465 0.077,-3.503 0.076,-4.561 0.015,-0.807"
     id="Sumter"
     inkscape:connector-curvature="0" />
  <path
     style="font-size:12px;fill:#d0d0d0;fill-rule:nonzero;stroke:#000000;stroke-width:1;stroke-linecap:butt;stroke-linejoin:bevel;stroke-miterlimit:4;stroke-opacity:1;stroke-dasharray:none;marker-start:none"
     d="m 11.784188,30.1028 1.094,-0.109 0.054,0.564 0.745,-0.072 2.474,-0.301 0.144,1.386 -0.185,1.212 -0.166,0.782 -0.293,1.018 -0.087,0.184 -1.473,0.195 -1.87,0.188 0.22,2.25 -0.553,0.053 -0.758,-2.194 -0.211,-2.235 0.428,-1.678 0.437,-1.243"
     id="Perry"
     inkscape:connector-curvature="0" />
  <path
     style="font-size:12px;fill:#d0d0d0;fill-rule:nonzero;stroke:#000000;stroke-width:1;stroke-linecap:butt;stroke-linejoin:bevel;stroke-miterlimit:4;stroke-opacity:1;stroke-dasharray:none;marker-start:none"
     d="m 21.306188,27.2938 1.849,3.277 -0.325,0.645 -3.234,0.343 0.061,0.567 -1.109,0.126 -1.085,0.055 -1.168,-0.736 -0.144,-1.386 1.537,-0.136 -0.185,-1.902 -0.136,-0.847 -0.031,-0.285 1.73,-0.132 1.182,-0.062 0.184,0.248 0.347,0.216 0.527,0.009"
     id="Chilton"
     inkscape:connector-curvature="0" />
  <path
     style="font-size:12px;fill:#d0d0d0;fill-rule:nonzero;stroke:#000000;stroke-width:1;stroke-linecap:butt;stroke-linejoin:bevel;stroke-miterlimit:4;stroke-opacity:1;stroke-dasharray:none;marker-start:none"
     d="m 24.867188,25.8388 1.785,0 0.478,4.313 -3.975,0.419 -1.849,-3.277 0.171,-1.091 3.39,-0.364"
     id="Coosa"
     inkscape:connector-curvature="0" />
  <path
     style="font-size:12px;fill:#d0d0d0;fill-rule:nonzero;stroke:#000000;stroke-width:1;stroke-linecap:butt;stroke-linejoin:bevel;stroke-miterlimit:4;stroke-opacity:1;stroke-dasharray:none;marker-start:none"
     d="m 30.433188,25.2168 0.646,-0.077 0.536,4.873 -0.916,1.824 -0.625,0.258 -0.325,1.171 -0.956,0.118 -0.036,-0.037 -0.035,-0.103 -0.308,-2.664 0.1,-0.378 -0.023,-0.172 -0.031,-0.013 -1.33,0.135 -0.478,-4.313 3.781,-0.622"
     id="Tallapoosa"
     inkscape:connector-curvature="0" />
  <path
     style="font-size:12px;fill:#d0d0d0;fill-rule:nonzero;stroke:#000000;stroke-width:1;stroke-linecap:butt;stroke-linejoin:bevel;stroke-miterlimit:4;stroke-opacity:1;stroke-dasharray:none;marker-start:none"
     d="m 27.775188,20.3988 -0.352,0.325 0.008,0.094 1.119,-0.117 0.163,-0.204 -0.019,-0.193 1.302,-0.109 0.437,5.022 -3.781,0.622 -1.785,0 -0.103,-1.176 0.879,-1.389 1.113,-1.24 0.451,-1.573 0.568,-0.062"
     id="Clay"
     inkscape:connector-curvature="0" />
  <path
     style="font-size:12px;fill:#d0d0d0;fill-rule:nonzero;stroke:#000000;stroke-width:1;stroke-linecap:butt;stroke-linejoin:bevel;stroke-miterlimit:4;stroke-opacity:1;stroke-dasharray:none;marker-start:none"
     d="m 24.403188,18.4058 1.015,-0.049 0.305,0.337 0.1,0.483 0.307,0.253 2.132,-0.212 0.026,0.378 -0.513,0.803 -0.568,0.062 -0.451,1.573 -1.113,1.24 -0.879,1.389 0.103,1.176 -3.39,0.364 -0.045,-0.824 1.222,-1.798 0.1,-0.78 -0.15,-0.216 -0.297,-0.213 1.141,-1.401 0.445,-0.96 -0.049,-0.063 -0.108,-0.239 -0.005,-0.067 0.496,-1.137 0.176,-0.099"
     id="Talladega"
     inkscape:connector-curvature="0" />
  <path
     style="font-size:12px;fill:#d0d0d0;fill-rule:nonzero;stroke:#000000;stroke-width:1;stroke-linecap:butt;stroke-linejoin:bevel;stroke-miterlimit:4;stroke-opacity:1;stroke-dasharray:none;marker-start:none"
     d="m 20.635188,20.5248 1.672,1.847 0.297,0.213 0.15,0.216 -0.1,0.78 -1.222,1.798 0.045,0.824 -0.171,1.091 -0.527,-0.009 -0.347,-0.216 -0.184,-0.248 -1.182,0.062 -1.73,0.132 0.031,0.285 -1.798,-2.385 0.505,-0.177 0.311,-0.17 0.221,-0.163 0.402,-0.703 2.049,-1.987 0.745,-0.082 0.856,-0.828 -0.023,-0.28"
     id="Shelby"
     inkscape:connector-curvature="0" />
  <path
     style="font-size:12px;fill:#d0d0d0;fill-rule:nonzero;stroke:#000000;stroke-width:1;stroke-linecap:butt;stroke-linejoin:bevel;stroke-miterlimit:4;stroke-opacity:1;stroke-dasharray:none;marker-start:none"
     d="m 15.150188,24.9508 0.419,-0.036 1.798,2.385 0.136,0.847 0.185,1.902 -1.537,0.136 -2.474,0.301 -0.745,0.072 -0.054,-0.564 -1.094,0.109 -0.159,-1.663 1.109,-0.136 -0.031,-1.14 0.27,-0.532 0.812,-0.901 0.459,-0.51 0.09,-0.054 0.703,-0.207 0.113,-0.009"
     id="Bibb"
     inkscape:connector-curvature="0" />
  <path
     style="font-size:12px;fill:#d0d0d0;fill-rule:nonzero;stroke:#000000;stroke-width:1;stroke-linecap:butt;stroke-linejoin:bevel;stroke-miterlimit:4;stroke-opacity:1;stroke-dasharray:none;marker-start:none"
     d="m 8.4711881,28.6778 3.1539999,-0.238 0.159,1.663 -0.437,1.243 -0.428,1.678 0.211,2.235 -2.2089999,0.212 -0.058,-0.564 -0.892,0.077 0.573,-1.208 -0.533,-0.636 -0.423,-1.258 -0.196,-0.982 -0.017,-0.275 1.096,-1.947"
     id="Hale"
     inkscape:connector-curvature="0" />
  <path
     style="font-size:12px;fill:#d0d0d0;fill-rule:nonzero;stroke:#000000;stroke-width:1;stroke-linecap:butt;stroke-linejoin:bevel;stroke-miterlimit:4;stroke-opacity:1;stroke-dasharray:none;marker-start:none"
     d="m 7.0011881,26.8978 1.47,1.78 -1.096,1.947 0.017,0.275 0.196,0.982 0.423,1.258 0.533,0.636 -0.573,1.208 -0.452,-0.059 -0.739,-1.145 -0.112,-0.068 -0.095,-0.004 -0.184,0.09 -0.208,0.145 -0.082,0.081 -0.359,0.167 -0.461,0.135 -0.035,-0.009 -0.257,-0.316 -1.299,-2.727 -0.216,-0.942 0.117,-1.099 -0.013,-0.058 0.929,-0.627 0.815,-0.455 0.361,-0.127 1.32,-1.068"
     id="Greene"
     inkscape:connector-curvature="0" />
  <path
     style="font-size:12px;fill:#d0d0d0;fill-rule:nonzero;stroke:#000000;stroke-width:1;stroke-linecap:butt;stroke-linejoin:bevel;stroke-miterlimit:4;stroke-opacity:1;stroke-dasharray:none;marker-start:none"
     d="m 6.5551881,22.1108 0.446,4.787 -1.32,1.068 -0.361,0.127 -0.815,0.455 -0.929,0.627 0.013,0.058 -1.806,0.211 0.076,-3.868 0.059,-3.199 3.51,-0.162 1.127,-0.104"
     id="Pickens"
     inkscape:connector-curvature="0" />
  <path
     style="font-size:12px;fill:#d0d0d0;fill-rule:nonzero;stroke:#000000;stroke-width:1;stroke-linecap:butt;stroke-linejoin:bevel;stroke-miterlimit:4;stroke-opacity:1;stroke-dasharray:none;marker-start:none"
     d="m 10.910188,20.7188 0.192,-0.009 0.943,0.099 0.09,0.942 0.55,-0.032 -0.374,0.33 0.189,0.626 0.722,0.788 0.431,0.374 0.988,0.591 0.509,0.523 -0.113,0.009 -0.703,0.207 -0.09,0.054 -0.459,0.51 -0.812,0.901 -0.27,0.532 0.031,1.14 -1.109,0.136 -3.1539999,0.238 -1.47,-1.78 -0.446,-4.787 1.069,-0.032 0.788,-0.09 -0.055,-0.662 0.33,-0.509 2.2229999,-0.099"
     id="Tuscaloosa"
     inkscape:connector-curvature="0" />
  <path
     style="font-size:12px;fill:#d0d0d0;fill-rule:nonzero;stroke:#000000;stroke-width:1;stroke-linecap:butt;stroke-linejoin:bevel;stroke-miterlimit:4;stroke-opacity:1;stroke-dasharray:none;marker-start:none"
     d="m 15.651188,17.5048 0.702,-0.433 1.33,-0.094 1.212,0.707 0.807,0.078 0.374,-0.036 0.244,0.545 0.081,0.842 -0.068,0.288 -0.09,0.01 -0.072,0.193 0.067,0.749 0.104,0.094 0.293,0.077 0.023,0.28 -0.856,0.828 -0.745,0.082 -2.049,1.987 -0.402,0.703 -0.221,0.163 -0.311,0.17 -0.505,0.177 -0.419,0.036 -0.509,-0.523 -0.988,-0.591 -0.431,-0.374 -0.722,-0.788 -0.189,-0.626 0.374,-0.33 0.239,-0.135 0.306,-0.225 1.172,-1.293 0.226,-0.398 0.193,-0.391 0.681,-1.384 0.149,-0.388"
     id="Jefferson"
     inkscape:connector-curvature="0" />
  <path
     style="font-size:12px;fill:#d0d0d0;fill-rule:nonzero;stroke:#000000;stroke-width:1;stroke-linecap:butt;stroke-linejoin:bevel;stroke-miterlimit:4;stroke-opacity:1;stroke-dasharray:none;marker-start:none"
     d="m 13.343188,15.4048 2.15,1.555 0.158,0.545 -0.149,0.388 -0.681,1.384 -0.193,0.391 -0.226,0.398 -1.172,1.293 -0.306,0.225 -0.239,0.135 -0.55,0.032 -0.09,-0.942 -0.943,-0.099 -0.192,0.009 -0.104,-1.123 -1.1139999,0.063 -0.237,-2.261 -1.115,0.04 -0.046,-0.559 -0.103,-1.123 5.1519999,-0.351"
     id="Walker"
     inkscape:connector-curvature="0" />
  <path
     style="font-size:12px;fill:#d0d0d0;fill-rule:nonzero;stroke:#000000;stroke-width:1;stroke-linecap:butt;stroke-linejoin:bevel;stroke-miterlimit:4;stroke-opacity:1;stroke-dasharray:none;marker-start:none"
     d="m 2.0791881,15.5488 2.34,-0.117 0.406,0.356 0.18,2.105 0.32,3.132 0.103,1.19 -3.51,0.162 0.057,-2.745 0.104,-4.083"
     id="Lamar"
     inkscape:connector-curvature="0" />
  <path
     style="font-size:12px;fill:#d0d0d0;fill-rule:nonzero;stroke:#000000;stroke-width:1;stroke-linecap:butt;stroke-linejoin:bevel;stroke-miterlimit:4;stroke-opacity:1;stroke-dasharray:none;marker-start:none"
     d="m 4.9371881,17.1088 3.357,-0.23 0.046,0.559 1.115,-0.04 0.237,2.261 1.1139999,-0.063 0.104,1.123 -2.2229999,0.099 -0.33,0.509 0.055,0.662 -0.788,0.09 -1.069,0.032 -1.127,0.104 -0.103,-1.19 -0.32,-3.132 -0.068,-0.784"
     id="Fayette"
     inkscape:connector-curvature="0" />
  <path
     style="font-size:12px;fill:#d0d0d0;fill-rule:nonzero;stroke:#000000;stroke-width:1;stroke-linecap:butt;stroke-linejoin:bevel;stroke-miterlimit:4;stroke-opacity:1;stroke-dasharray:none;marker-start:none"
     d="m 2.2331881,8.7257998 6.436,-0.365 0.302,3.3930002 -1.114,0.067 -0.891,0.037 -2.335,0.163 -2.475,0.101 0.041,-1.85 0.036,-1.5460002"
     id="Franklin"
     inkscape:connector-curvature="0" />
  <path
     style="font-size:12px;fill:#d0d0d0;fill-rule:nonzero;stroke:#000000;stroke-width:1;stroke-linecap:butt;stroke-linejoin:bevel;stroke-miterlimit:4;stroke-opacity:1;stroke-dasharray:none;marker-start:none"
     d="m 2.1561881,12.1218 2.475,-0.101 2.335,-0.163 0.891,-0.037 0.334,3.935 0.103,1.123 -3.357,0.23 -0.112,-1.321 -0.406,-0.356 -2.34,0.117 0.01,-0.369 0.067,-3.058"
     id="Marion"
     inkscape:connector-curvature="0" />
  <path
     style="font-size:12px;fill:#d0d0d0;fill-rule:nonzero;stroke:#000000;stroke-width:1;stroke-linecap:butt;stroke-linejoin:bevel;stroke-miterlimit:4;stroke-opacity:1;stroke-dasharray:none;marker-start:none"
     d="m 8.9711881,11.7538 4.4349999,-0.338 -0.063,3.989 -5.1519999,0.351 -0.334,-3.935 1.114,-0.067"
     id="Winston"
     inkscape:connector-curvature="0" />
  <path
     style="font-size:12px;fill:#d0d0d0;fill-rule:nonzero;stroke:#000000;stroke-width:1;stroke-linecap:butt;stroke-linejoin:bevel;stroke-miterlimit:4;stroke-opacity:1;stroke-dasharray:none;marker-start:none"
     d="m 13.389188,11.2268 5.579,-0.419 1.42,0.45 -0.333,0.022 -0.313,0.105 -0.044,0.031 -0.595,1.491 -0.058,0.1 -1.416,1.812 -0.955,0.842 -0.785,0.777 -0.396,0.522 -2.15,-1.555 0.063,-3.989 -0.017,-0.189"
     id="Cullman"
     inkscape:connector-curvature="0" />
  <path
     style="font-size:12px;fill:#d0d0d0;fill-rule:nonzero;stroke:#000000;stroke-width:1;stroke-linecap:butt;stroke-linejoin:bevel;stroke-miterlimit:4;stroke-opacity:1;stroke-dasharray:none;marker-start:none"
     d="m 20.388188,11.2578 1.784,1.907 -0.167,0.365 -0.328,1.758 0.473,-0.051 -0.38,0.993 -0.274,0.355 -0.298,0.321 -0.085,0 -0.095,-0.054 -1.361,0.437 0.045,0.474 -0.807,-0.078 -1.212,-0.707 -1.33,0.094 -0.702,0.433 -0.158,-0.545 0.396,-0.522 0.785,-0.777 0.955,-0.842 1.416,-1.812 0.058,-0.1 0.595,-1.491 0.044,-0.031 0.313,-0.105 0.333,-0.022"
     id="Blount"
     inkscape:connector-curvature="0" />
  <path
     style="font-size:12px;fill:#d0d0d0;fill-rule:nonzero;stroke:#000000;stroke-width:1;stroke-linecap:butt;stroke-linejoin:bevel;stroke-miterlimit:4;stroke-opacity:1;stroke-dasharray:none;marker-start:none"
     d="m 22.150188,15.2368 -0.009,-0.044 0.067,-0.14 0.239,-0.392 0.145,-0.108 0.834,-0.081 0.103,0.058 0.08,0.14 0.235,0.546 0.28,0.266 0.135,0.085 0.221,-0.089 0.558,0.738 0.132,0.121 0.036,0.082 0.014,0.825 -0.813,0.734 -0.04,0.132 0.036,0.296 -0.176,0.099 -0.496,1.137 0.005,0.067 0.108,0.239 0.049,0.063 -0.445,0.96 -1.141,1.401 -1.672,-1.847 -0.293,-0.077 -0.104,-0.094 -0.067,-0.749 0.072,-0.193 0.09,-0.01 0.068,-0.288 -0.081,-0.842 -0.244,-0.545 -0.374,0.036 -0.045,-0.474 1.361,-0.437 0.095,0.054 0.085,0 0.298,-0.321 0.274,-0.355 0.38,-0.993"
     id="St. Clair"
     inkscape:connector-curvature="0" />
  <path
     style="font-size:12px;fill:#d0d0d0;fill-rule:nonzero;stroke:#000000;stroke-width:1;stroke-linecap:butt;stroke-linejoin:bevel;stroke-miterlimit:4;stroke-opacity:1;stroke-dasharray:none;marker-start:none"
     d="m 28.320188,14.2188 2.244,0.104 -1.036,0.969 0.135,1.325 0.171,1.61 -0.153,0.293 -0.842,1.018 -0.551,0.058 -0.026,-0.378 -2.132,0.212 -0.307,-0.253 -0.1,-0.483 -0.305,-0.337 -1.015,0.049 -0.036,-0.296 0.04,-0.132 0.813,-0.734 -0.014,-0.825 -0.036,-0.082 -0.132,-0.121 0.172,-0.014 0.279,-0.157 0.262,-0.204 0.586,-0.604 0.315,-0.508 0.18,-0.113 0.636,-0.063 0.874,0.094 -0.022,-0.428"
     id="Calhoun"
     inkscape:connector-curvature="0" />
  <path
     style="font-size:12px;fill:#d0d0d0;fill-rule:nonzero;stroke:#000000;stroke-width:1;stroke-linecap:butt;stroke-linejoin:bevel;stroke-miterlimit:4;stroke-opacity:1;stroke-dasharray:none;marker-start:none"
     d="m 24.124188,11.6378 2.767,-0.285 0.149,1.149 0.469,0.037 0.802,1.41 0.009,0.27 0.022,0.428 -0.874,-0.094 -0.636,0.063 -0.18,0.113 -0.315,0.508 -0.586,0.604 -0.262,0.204 -0.279,0.157 -0.172,0.014 -0.558,-0.738 -0.221,0.089 -0.135,-0.085 -0.28,-0.266 -0.235,-0.546 -0.08,-0.14 -0.103,-0.058 -0.834,0.081 -0.145,0.108 -0.239,0.392 -0.067,0.14 0.009,0.044 -0.473,0.051 0.328,-1.758 0.167,-0.365 1.952,-1.527"
     id="Etowah"
     inkscape:connector-curvature="0" />
  <path
     style="font-size:12px;fill:#d0d0d0;fill-rule:nonzero;stroke:#000000;stroke-width:1;stroke-linecap:butt;stroke-linejoin:bevel;stroke-miterlimit:4;stroke-opacity:1;stroke-dasharray:none;marker-start:none"
     d="m 21.266188,6.7287991 1.875,-0.185 0.13,0.7439996 0.988,0.7430011 -0.135,3.6070002 -1.952,1.527 -1.784,-1.907 -1.42,-0.45 0.022,-3.1470013 0.231,0.5370011 0.365,0.225 0.351,0.06 0.365,-0.122 1.045,-0.533 0.149,-0.3830011 0.082,-0.491 -0.06,-0.167 -0.139,-0.067 -0.113,0.009"
     id="Marshall"
     inkscape:connector-curvature="0" />
  <path
     style="font-size:12px;fill:#d0d0d0;fill-rule:nonzero;stroke:#000000;stroke-width:1;stroke-linecap:butt;stroke-linejoin:bevel;stroke-miterlimit:4;stroke-opacity:1;stroke-dasharray:none;marker-start:none"
     d="m 16.462188,7.8467998 2.528,-0.1860011 -0.022,3.1470013 -5.579,0.419 -0.402,-4.8100009 3.475,1.4300007"
     id="Morgan"
     inkscape:connector-curvature="0" />
  <path
     style="font-size:12px;fill:#d0d0d0;fill-rule:nonzero;stroke:#000000;stroke-width:1;stroke-linecap:butt;stroke-linejoin:bevel;stroke-miterlimit:4;stroke-opacity:1;stroke-dasharray:none;marker-start:none"
     d="m 9.4801881,5.2547991 1.7889999,0.373 1.718,0.789 0.402,4.8100009 0.017,0.189 -4.4349999,0.338 -0.302,-3.3930002 0.811,-3.1060007"
     id="Lawrence"
     inkscape:connector-curvature="0" />
  <path
     style="font-size:12px;fill:#d0d0d0;fill-rule:nonzero;stroke:#000000;stroke-width:1;stroke-linecap:butt;stroke-linejoin:bevel;stroke-miterlimit:4;stroke-opacity:1;stroke-dasharray:none;marker-start:none"
     d="m 2.3411881,4.6727991 0.401,-0.188 0.181,-0.045 0.734,0.246 0.234,0.173 0.159,0.215 0.072,0.135 0.085,0.289 0.126,0.19 0.834,0.654 0.085,0.049 0.316,0.095 0.478,-0.086 0.275,-0.154 0.054,-0.058 0.18,-0.311 1.221,-0.725 0.415,-0.176 0.226,-0.05 0.081,0.009 0.982,0.32 -0.811,3.1060007 -6.436,0.365 0.108,-4.0530007"
     id="Colbert"
     inkscape:connector-curvature="0" />
  <path
     style="font-size:12px;fill:#d0d0d0;fill-rule:nonzero;stroke:#000000;stroke-width:1;stroke-linecap:butt;stroke-linejoin:bevel;stroke-miterlimit:4;stroke-opacity:1;stroke-dasharray:none;marker-start:none"
     d="m 11.374188,2.4837991 0.13,-0.01 -0.235,3.154 -1.7889999,-0.373 -0.982,-0.32 -0.081,-0.009 -0.226,0.05 -0.415,0.176 -1.221,0.725 -0.18,0.311 -0.054,0.058 -0.275,0.154 -0.478,0.086 -0.316,-0.095 -0.085,-0.049 -0.834,-0.654 -0.126,-0.19 -0.085,-0.289 -0.072,-0.135 -0.159,-0.215 -0.234,-0.173 -0.734,-0.246 -0.181,0.045 -0.401,0.188 -1.182,-1.248 2.241,-0.324 3.966,-0.307 4.0079999,-0.31"
     id="Lauderdale"
     inkscape:connector-curvature="0" />
  <path
     style="font-size:12px;fill:#d0d0d0;fill-rule:nonzero;stroke:#000000;stroke-width:1;stroke-linecap:butt;stroke-linejoin:bevel;stroke-miterlimit:4;stroke-opacity:1;stroke-dasharray:none;marker-start:none"
     d="m 15.426188,2.1987991 0.548,-0.053 0.488,5.7010007 -3.475,-1.4300007 -1.718,-0.789 0.235,-3.154 3.922,-0.275"
     id="Limestone"
     inkscape:connector-curvature="0" />
  <path
     style="font-size:12px;fill:#d0d0d0;fill-rule:nonzero;stroke:#000000;stroke-width:1;stroke-linecap:butt;stroke-linejoin:bevel;stroke-miterlimit:4;stroke-opacity:1;stroke-dasharray:none;marker-start:none"
     d="m 20.914188,1.662799 0.222,0.5800001 -0.276,1.452 -0.098,1.321 0.122,1.326 0.382,0.387 0.113,-0.009 0.139,0.067 0.06,0.167 -0.082,0.491 -0.149,0.3830007 -1.045,0.533 -0.365,0.122 -0.351,-0.06 -0.365,-0.225 -0.231,-0.5370007 -2.528,0.1860007 -0.488,-5.7009995 4.861,-0.4790001 0.079,-0.004"
     id="Madison"
     inkscape:connector-curvature="0" />
  <path
     style="font-size:12px;fill:#d0d0d0;fill-rule:nonzero;stroke:#000000;stroke-width:1;stroke-linecap:butt;stroke-linejoin:bevel;stroke-miterlimit:4;stroke-opacity:1;stroke-dasharray:none;marker-start:none"
     d="m 28.297188,0.96379897 0.406,1.57700013 -0.657,1.447 -1.133,1.826 -1.803,1.9109996 -0.297,0.1980011 -0.239,0.095 -0.315,0.013 -0.988,-0.7430011 -0.13,-0.7439996 -1.875,0.185 -0.382,-0.387 -0.122,-1.326 0.098,-1.321 0.276,-1.452 -0.222,-0.5800001 4.675,-0.455 2.708,-0.24400003"
     id="Jackson"
     inkscape:connector-curvature="0" />
  <path
     style="font-size:12px;fill:#d0d0d0;fill-rule:nonzero;stroke:#000000;stroke-width:1;stroke-linecap:butt;stroke-linejoin:bevel;stroke-miterlimit:4;stroke-opacity:1;stroke-dasharray:none;marker-start:none"
     d="m 28.703188,2.5407991 0.848,2.997 0.126,0.443 0.229,0.8159996 -0.063,-0.023 -0.039,0.027 -0.501,0.581 -0.063,0.7480011 -0.329,0.7080001 -1.371,1.6730001 -0.365,0.045 -0.255,0.242 -0.073,0.141 0.044,0.414 -2.767,0.285 0.135,-3.6070002 0.315,-0.013 0.239,-0.095 0.297,-0.1980011 1.803,-1.9109996 1.133,-1.826 0.657,-1.447"
     id="DeKalb"
     inkscape:connector-curvature="0" />
  <path
     style="font-size:12px;fill:#d0d0d0;fill-rule:nonzero;stroke:#000000;stroke-width:1;stroke-linecap:butt;stroke-linejoin:bevel;stroke-miterlimit:4;stroke-opacity:1;stroke-dasharray:none;marker-start:none"
     d="m 29.906188,6.7967987 0.884,3.0010013 0.721,2.605 0.41,1.474 -1.357,0.446 -2.244,-0.104 -0.009,-0.27 -0.802,-1.41 -0.469,-0.037 -0.149,-1.149 -0.044,-0.414 0.073,-0.141 0.255,-0.242 0.365,-0.045 1.371,-1.6730001 0.329,-0.7080001 0.063,-0.7480011 0.501,-0.581 0.039,-0.027 0.063,0.023"
     id="Cherokee"
     inkscape:connector-curvature="0" />
  <path
     style="font-size:12px;fill:#d0d0d0;fill-rule:nonzero;stroke:#000000;stroke-width:1;stroke-linecap:butt;stroke-linejoin:bevel;stroke-miterlimit:4;stroke-opacity:1;stroke-dasharray:none;marker-start:none"
     d="m 31.921188,13.8768 0.221,0.788 0.874,3.147 0.604,2.149 -3.624,0.234 -1.302,0.109 0.019,0.193 -0.163,0.204 -1.119,0.117 -0.008,-0.094 0.352,-0.325 0.513,-0.803 0.551,-0.058 0.842,-1.018 0.153,-0.293 -0.171,-1.61 -0.135,-1.325 1.036,-0.969 1.357,-0.446"
     id="Cleburne"
     inkscape:connector-curvature="0" />
  <path
     style="font-size:12px;fill:#d0d0d0;fill-rule:nonzero;stroke:#000000;stroke-width:1;stroke-linecap:butt;stroke-linejoin:bevel;stroke-miterlimit:4;stroke-opacity:1;stroke-dasharray:none;marker-start:none"
     d="m 29.996188,20.1948 3.624,-0.234 0.194,0.695 1.045,3.772 0.077,0.27 -3.857,0.442 -0.646,0.077 -0.437,-5.022"
     id="Randolph"
     inkscape:connector-curvature="0" />
  <path
     style="font-size:12px;fill:#d0d0d0;fill-rule:nonzero;stroke:#000000;stroke-width:1;stroke-linecap:butt;stroke-linejoin:bevel;stroke-miterlimit:4;stroke-opacity:1;stroke-dasharray:none;marker-start:none"
     d="m 34.936188,24.6978 0.866,2.997 0.689,1.534 -1.194,0.157 -0.374,0.229 -3.308,0.398 -0.536,-4.873 3.857,-0.442"
     id="Chambers"
     inkscape:connector-curvature="0" />
  <path
     style="font-size:12px;fill:#d0d0d0;fill-rule:nonzero;stroke:#000000;stroke-width:1;stroke-linecap:butt;stroke-linejoin:bevel;stroke-miterlimit:4;stroke-opacity:1;stroke-dasharray:none;marker-start:none"
     d="m 31.615188,30.0128 3.308,-0.398 0.374,-0.229 1.194,-0.157 0.779,1.716 1.034,1.15 -0.574,0.554 -1.924,0.514 -0.906,0.617 -1.117,0.14 -0.176,-1.118 -0.546,0.063 -2.339,-0.847 -0.023,-0.181 0.916,-1.824"
     id="Lee"
     inkscape:connector-curvature="0" />
  <path
     style="font-size:12px;fill:#d0d0d0;fill-rule:nonzero;stroke:#000000;stroke-width:1;stroke-linecap:butt;stroke-linejoin:bevel;stroke-miterlimit:4;stroke-opacity:1;stroke-dasharray:none;marker-start:none"
     d="m 38.604188,33.8748 -0.121,0.46 0.023,0.109 0.068,0.076 0.716,0.193 0.266,0.222 0.108,0.215 -0.09,0.406 -0.026,0.037 -1.172,2.315 -1.399,0.181 -0.075,-0.031 -0.447,-0.47 -0.041,-0.117 -0.347,-0.405 -1.649,0.208 -0.379,-1.106 -0.256,-2.248 1.117,-0.14 0.906,-0.617 1.924,-0.514 0.574,-0.554 0.3,1.78"
     id="Russell"
     inkscape:connector-curvature="0" />
  <path
     style="font-size:12px;fill:#d0d0d0;fill-rule:nonzero;stroke:#000000;stroke-width:1;stroke-linecap:butt;stroke-linejoin:bevel;stroke-miterlimit:4;stroke-opacity:1;stroke-dasharray:none;marker-start:none"
     d="m 38.376188,37.9078 0.03,0.964 -0.509,2.769 0.19,0.252 -0.104,-0.091 -0.185,-0.058 -0.062,0 -0.055,0.032 -0.289,0.365 -0.167,0.5 -0.058,0.099 -2.181,0.189 0.122,1.123 -3.611,0.415 0.618,-3.476 -0.009,-0.102 0.064,-0.312 0.496,-0.973 0.855,-0.321 0.888,-0.297 -0.072,-0.473 -0.094,-1.127 0.175,-0.112 1.649,-0.208 0.347,0.405 0.041,0.117 0.447,0.47 0.075,0.031 1.399,-0.181"
     id="Barbour"
     inkscape:connector-curvature="0" />
</svg>
