<?xml version="1.0" encoding="UTF-8" standalone="no"?>
<!-- Created with Inkscape (http://www.inkscape.org/) -->

<svg
   xmlns:dc="http://purl.org/dc/elements/1.1/"
   xmlns:cc="http://creativecommons.org/ns#"
   xmlns:rdf="http://www.w3.org/1999/02/22-rdf-syntax-ns#"
   xmlns:svg="http://www.w3.org/2000/svg"
   xmlns="http://www.w3.org/2000/svg"
   xmlns:sodipodi="http://sodipodi.sourceforge.net/DTD/sodipodi-0.dtd"
   xmlns:inkscape="http://www.inkscape.org/namespaces/inkscape"
   version="1.0"
   width="15.8"
   height="33.450001"
   sodipodi:version="0.32"
   inkscape:version="0.48.2 r9819"
   sodipodi:docname="nj.svg"
   inkscape:output_extension="org.inkscape.output.svg.inkscape"
   id="svg3015">
  <metadata
     id="metadata3017">
    <rdf:RDF>
      <cc:Work
         rdf:about="">
        <dc:format>image/svg+xml</dc:format>
        <dc:type
           rdf:resource="http://purl.org/dc/dcmitype/StillImage" />
      </cc:Work>
    </rdf:RDF>
  </metadata>
  <sodipodi:namedview
     inkscape:window-height="746"
     inkscape:window-width="1366"
     inkscape:pageshadow="2"
     inkscape:pageopacity="0.0"
     guidetolerance="10.0"
     gridtolerance="10.0"
     objecttolerance="10.0"
     borderopacity="1.0"
     bordercolor="#666666"
     pagecolor="#ffffff"
     inkscape:zoom="10.421869"
     inkscape:cx="-12.52632"
     inkscape:cy="16.37125"
     inkscape:window-x="-8"
     inkscape:window-y="-8"
     inkscape:current-layer="svg3015"
     showguides="true"
     inkscape:guide-bbox="true"
     fit-margin-top="0"
     fit-margin-left="0"
     fit-margin-right="0"
     fit-margin-bottom="0"
     inkscape:window-maximized="0"
     id="namedview3019"
     showgrid="false" />
  <defs
     id="defs3021" />
  <path
     style="font-size:12px;fill:#d0d0d0;fill-opacity:1;fill-rule:nonzero;stroke:#000000;stroke-width:1;stroke-linecap:butt;stroke-linejoin:bevel;stroke-miterlimit:4;stroke-opacity:1;stroke-dasharray:none;marker-start:none"
     d="m 11.216069,11.487977 1.589,-0.054 0.443,-0.618 -0.009,-0.027 0.031,-0.037 0.068,0 0.13,0.06 0.249,0.32 0.268,0.852 0.073,0.3 0.006,0.024 0.081,0.603 0.022,0.262 0.014,0.555 0.027,1.844 -1.281,0.197 -0.324,0.009 -0.802,-0.573 -1.371,0.271 -1.1260003,1.501 -0.501,-0.671 -0.373,-0.505 0.5,-0.37 0.58,-0.685 0,-0.032 -0.053,-0.094 1.7590003,-3.132"
     id="Monmouth"
     inkscape:connector-curvature="0" />
  <path
     style="font-size:12px;fill:#d0d0d0;fill-opacity:1;fill-rule:nonzero;stroke:#000000;stroke-width:1;stroke-linecap:butt;stroke-linejoin:bevel;stroke-miterlimit:4;stroke-opacity:1;stroke-dasharray:none;marker-start:none"
     d="m 9.3040687,16.976977 1.1260003,-1.501 1.371,-0.271 0.802,0.573 0.324,-0.009 1.281,-0.197 -0.005,0.239 0.055,1.054 0.017,0.293 0.076,0.892 0.199,1.433 0.05,0.482 -0.008,0.051 -0.205,0.981 -0.547,1.924 -0.237,0.601 -0.294,0.306 -1.197,-0.542 0.135,-0.233 0.032,-0.315 -0.519,-2.249 -2.2670003,-3.255 -0.189,-0.257"
     id="Ocean"
     inkscape:connector-curvature="0" />
  <path
     style="font-size:12px;fill:#d0d0d0;fill-opacity:1;fill-rule:nonzero;stroke:#000000;stroke-width:1;stroke-linecap:butt;stroke-linejoin:bevel;stroke-miterlimit:4;stroke-opacity:1;stroke-dasharray:none;marker-start:none"
     d="m 11.859069,10.301977 -0.04,0.018 -0.091,0.127 -0.142,0.126 -0.041,-0.004 -0.145,0.153 -0.091,0.055 -0.067,0.107 -0.231,0.094 -0.053,-0.036 -0.019,-0.063 0.019,-0.072 0.053,-0.105 -0.012,-0.152 0.023,-0.117 0.194,-0.226 0.044,-0.202 -0.032,-0.2479998 0.028,-0.117 -0.008,-0.127 0.053,-0.198 0.084,-0.185 0.136,-0.1030001 0.248,-0.131 0.301,-0.158 0.105,-0.018 0.077,0.077 0.072,0.212 0.197,0.2250001 -0.026,0.14 -0.36,0.7069998 -0.231,0.231 -0.045,-0.01"
     id="Richmond, NY"
     inkscape:connector-curvature="0" />
  <path
     style="font-size:12px;fill:#d0d0d0;fill-opacity:1;fill-rule:nonzero;stroke:#000000;stroke-width:1;stroke-linecap:butt;stroke-linejoin:bevel;stroke-miterlimit:4;stroke-opacity:1;stroke-dasharray:none;marker-start:none"
     d="m 9.5830687,6.0019771 1.5690003,0.667 -0.068,0.465 0.437,1.383 -2.4210003,-0.297 0.483,-2.218"
     id="Essex"
     inkscape:connector-curvature="0" />
  <path
     style="font-size:12px;fill:#d0d0d0;fill-opacity:1;fill-rule:nonzero;stroke:#000000;stroke-width:1;stroke-linecap:butt;stroke-linejoin:bevel;stroke-miterlimit:4;stroke-opacity:1;stroke-dasharray:none;marker-start:none"
     d="m 9.1000687,8.2199771 2.4210003,0.297 -0.144,0.447 -0.194,0.013 -0.045,0.015 -0.022,0.035 -0.09,0.1890001 0.067,0.483 -0.405,0.013 -0.108,-0.005 -0.446,0.013 -1.2360003,0.4419998 -0.248,0.037 -0.198,-0.9609998 0.648,-1.0180001"
     id="Union"
     inkscape:connector-curvature="0" />
  <path
     style="font-size:12px;fill:#d0d0d0;fill-opacity:1;fill-rule:nonzero;stroke:#000000;stroke-width:1;stroke-linecap:butt;stroke-linejoin:bevel;stroke-miterlimit:4;stroke-opacity:1;stroke-dasharray:none;marker-start:none"
     d="m 12.567069,6.6199771 -0.091,1.212 -0.13,0.37 -0.969,0.762 0.144,-0.447 -0.437,-1.383 1.483,-0.514"
     id="Hudson"
     inkscape:connector-curvature="0" />
  <path
     style="font-size:12px;fill:#d0d0d0;fill-opacity:1;fill-rule:nonzero;stroke:#000000;stroke-width:1;stroke-linecap:butt;stroke-linejoin:bevel;stroke-miterlimit:4;stroke-opacity:1;stroke-dasharray:none;marker-start:none"
     d="m 9.4390687,2.8839771 3.4110003,1.02 0.015,1.057 -0.04,0.488 -0.258,1.171 -1.483,0.514 0.068,-0.465 0.045,-0.045 0.059,-0.477 -0.014,-0.068 -0.392,-0.689 -0.23,-0.309 -0.419,-0.295 -0.9740003,-0.366 0.212,-1.536"
     id="Bergen"
     inkscape:connector-curvature="0" />
  <path
     style="font-size:12px;fill:#d0d0d0;fill-opacity:1;fill-rule:nonzero;stroke:#000000;stroke-width:1;stroke-linecap:butt;stroke-linejoin:bevel;stroke-miterlimit:4;stroke-opacity:1;stroke-dasharray:none;marker-start:none"
     d="m 11.093069,9.6989772 0.009,0.072 0.023,0.153 -0.009,0.2109998 -0.023,0.054 -0.063,0 -0.067,0.006 -0.136,0.157 -0.004,0.099 0.112,0.256 -0.138,0.312 -0.006,0.014 -0.013,0.144 0.099,0.202 0.077,0.077 0.257,0.032 0.005,0 -1.7590003,3.132 -1.645,-1.249 0.059,-0.017 0.117,-0.135 0.888,-1.552 -0.018,-0.318 -0.189,-0.065 -0.244,-0.198 -0.252,-0.27 -0.014,-0.094 0.063,-0.186 0.059,-0.072 0.369,-0.265 0.248,-0.037 1.2360003,-0.4419998 0.446,-0.013 0.108,0.005 0.405,-0.013"
     id="Middlesex"
     inkscape:connector-curvature="0" />
  <path
     style="font-size:12px;fill:#d0d0d0;fill-opacity:1;fill-rule:nonzero;stroke:#000000;stroke-width:1;stroke-linecap:butt;stroke-linejoin:bevel;stroke-miterlimit:4;stroke-opacity:1;stroke-dasharray:none;marker-start:none"
     d="m 8.4520687,9.2379772 0.198,0.9609998 -0.369,0.265 -0.059,0.072 -0.063,0.186 0.014,0.094 0.252,0.27 0.244,0.198 0.189,0.065 0.018,0.318 -0.888,1.552 -0.117,0.135 -0.059,0.017 -0.057,-0.107 -0.289,-0.032 -0.632,0.361 -0.387,-0.563 -0.06,-0.081 -0.422,-0.875 0.162,-0.69 0.067,-0.107 0.108,-0.838 -0.361,-1.0199998 -0.072,-0.135 -0.063,-0.046 1.501,-0.8520001 0.031,0.019 0.068,0.112 0.019,0.082 0.504,1.0950001 0.523,-0.456"
     id="Somerset"
     inkscape:connector-curvature="0" />
  <path
     style="font-size:12px;fill:#d0d0d0;fill-opacity:1;fill-rule:nonzero;stroke:#000000;stroke-width:1;stroke-linecap:butt;stroke-linejoin:bevel;stroke-miterlimit:4;stroke-opacity:1;stroke-dasharray:none;marker-start:none"
     d="m 6.8530687,4.1179771 0.914,0.586 0.618,0.032 0.622,-0.004 0.576,1.27 -0.483,2.218 -0.648,1.0180001 -0.523,0.456 -0.504,-1.0950001 -0.019,-0.082 -0.068,-0.112 -0.031,-0.019 -1.501,0.8520001 -1.749,-0.5080001 0.798,-1.835 1.998,-2.777"
     id="Morris"
     inkscape:connector-curvature="0" />
  <path
     style="font-size:12px;fill:#d0d0d0;fill-opacity:1;fill-rule:nonzero;stroke:#000000;stroke-width:1;stroke-linecap:butt;stroke-linejoin:bevel;stroke-miterlimit:4;stroke-opacity:1;stroke-dasharray:none;marker-start:none"
     d="m 9.2140687,2.8159771 0.225,0.068 -0.212,1.536 0.9740003,0.366 0.419,0.295 0.23,0.309 0.392,0.689 0.014,0.068 -0.059,0.477 -0.045,0.045 -1.5690003,-0.667 -0.576,-1.27 -0.622,0.004 -0.618,-0.032 -0.914,-0.586 0.95,-1.78 1.411,0.478"
     id="Passaic"
     inkscape:connector-curvature="0" />
  <path
     style="font-size:12px;fill:#d0d0d0;fill-opacity:1;fill-rule:nonzero;stroke:#000000;stroke-width:1;stroke-linecap:butt;stroke-linejoin:bevel;stroke-miterlimit:4;stroke-opacity:1;stroke-dasharray:none;marker-start:none"
     d="m 7.8030687,2.3379771 -0.95,1.78 -1.998,2.777 -2.443,-1.925 -0.054,-0.067 0.384,-0.54 0.266,-0.627 0.058,-0.388 -0.018,-0.212 -0.04,-0.041 0.018,-0.176 0.117,-0.5 0.049,-0.144 0.23,-0.4729999 0.27,-0.293 0.569,-0.41 3.542,1.2389999"
     id="Sussex"
     inkscape:connector-curvature="0" />
  <path
     style="font-size:12px;fill:#d0d0d0;fill-opacity:1;fill-rule:nonzero;stroke:#000000;stroke-width:1;stroke-linecap:butt;stroke-linejoin:bevel;stroke-miterlimit:4;stroke-opacity:1;stroke-dasharray:none;marker-start:none"
     d="m 2.4120687,4.9699771 2.443,1.925 -0.798,1.835 -0.093,0.247 -0.42,0.8070001 -0.077,0.104 -0.549,0.5509998 -0.947,1.057 -0.211,0.361 -0.105,-0.203 -0.064,-0.117 -0.238,-0.92 -0.1,-0.7779998 0.164,-0.385 0.076,-0.021 0.144,0.014 0.146,-0.02 0.197,-0.273 0.324,-0.9930001 0.005,-0.076 -0.032,-0.076 -0.915,-1.078 1.05,-1.961"
     id="Warren"
     inkscape:connector-curvature="0" />
  <path
     style="font-size:12px;fill:#d0d0d0;fill-opacity:1;fill-rule:nonzero;stroke:#000000;stroke-width:1;stroke-linecap:butt;stroke-linejoin:bevel;stroke-miterlimit:4;stroke-opacity:1;stroke-dasharray:none;marker-start:none"
     d="m 4.0570687,8.7299771 1.749,0.5080001 0.063,0.046 0.072,0.135 0.361,1.0199998 -0.108,0.838 -0.067,0.107 -0.162,0.69 0.422,0.875 0.06,0.081 -0.515,0.324 -0.285,0.896 -0.679,0.244 -0.094,0 -0.064,-0.036 -0.937,-0.568 -0.73,-1.469 -1.383,-0.564 0.211,-0.361 0.947,-1.057 0.549,-0.5509998 0.077,-0.104 0.42,-0.8070001 0.093,-0.247"
     id="Hunterdon"
     inkscape:connector-curvature="0" />
  <path
     style="font-size:12px;fill:#d0d0d0;fill-opacity:1;fill-rule:nonzero;stroke:#000000;stroke-width:1;stroke-linecap:butt;stroke-linejoin:bevel;stroke-miterlimit:4;stroke-opacity:1;stroke-dasharray:none;marker-start:none"
     d="m 6.4470687,13.029977 0.387,0.563 0.632,-0.361 0.289,0.032 0.057,0.107 1.645,1.249 0.053,0.094 0,0.032 -0.58,0.685 -0.5,0.37 0.373,0.505 -1.329,0.185 -2.6,-1.997 0.094,0 0.679,-0.244 0.285,-0.896 0.515,-0.324"
     id="Mercer"
     inkscape:connector-curvature="0" />
  <path
     style="font-size:12px;fill:#d0d0d0;fill-opacity:1;fill-rule:nonzero;stroke:#000000;stroke-width:1;stroke-linecap:butt;stroke-linejoin:bevel;stroke-miterlimit:4;stroke-opacity:1;stroke-dasharray:none;marker-start:none"
     d="m 4.0040687,20.550977 0.734,-1.365 3.826,2.618 -1.01,1.844 -1.248,-0.983 -1.401,-1.537 -0.527,-0.384 -0.374,-0.193"
     id="Camden"
     inkscape:connector-curvature="0" />
  <path
     style="font-size:12px;fill:#d0d0d0;fill-opacity:1;fill-rule:nonzero;stroke:#000000;stroke-width:1;stroke-linecap:butt;stroke-linejoin:bevel;stroke-miterlimit:4;stroke-opacity:1;stroke-dasharray:none;marker-start:none"
     d="m 3.6190687,21.100977 0.385,-0.55 0.374,0.193 0.527,0.384 1.401,1.537 1.248,0.983 -0.769,1.425 -0.893,-0.519 -4.295,-1.781 0.239,-0.424 1.783,-1.248"
     id="Gloucester"
     inkscape:connector-curvature="0" />
  <path
     style="font-size:12px;fill:#d0d0d0;fill-opacity:1;fill-rule:nonzero;stroke:#000000;stroke-width:1;stroke-linecap:butt;stroke-linejoin:bevel;stroke-miterlimit:4;stroke-opacity:1;stroke-dasharray:none;marker-start:none"
     d="m 1.5970687,22.772977 4.295,1.781 0.118,1.126 0,0.267 -0.014,0.063 -1.789,-0.951 -0.956,1.581 -0.153,1.028 -2.074,-2.533 -0.098,-0.298 0.31899997,-0.815 0.352,-1.249"
     id="Salem"
     inkscape:connector-curvature="0" />
  <path
     style="font-size:12px;fill:#d0d0d0;fill-opacity:1;fill-rule:nonzero;stroke:#000000;stroke-width:1;stroke-linecap:butt;stroke-linejoin:bevel;stroke-miterlimit:4;stroke-opacity:1;stroke-dasharray:none;marker-start:none"
     d="m 8.5280687,27.226977 -0.098,1.969 -1.965,-0.01 -0.677,-0.156 -1.301,-0.448 -1.169,-0.652 -0.058,-0.063 -0.162,-0.199 0.153,-1.028 0.956,-1.581 1.789,0.951 0.014,-0.063 0,-0.267 -0.118,-1.126 0.893,0.519 1.743,2.154"
     id="Cumberland"
     inkscape:connector-curvature="0" />
  <path
     style="font-size:12px;fill:#d0d0d0;fill-opacity:1;fill-rule:nonzero;stroke:#000000;stroke-width:1;stroke-linecap:butt;stroke-linejoin:bevel;stroke-miterlimit:4;stroke-opacity:1;stroke-dasharray:none;marker-start:none"
     d="m 8.5280687,27.226977 3.1430003,-0.393 -0.411,0.636 -0.122,0.217 -0.139,0.346 -0.221,0.599 -0.243,0.858 0,0.04 0.004,0.008 0.013,0.014 -0.365,1.303 -0.2650003,0.644 -0.339,0.582 -0.5,0.279 -0.126,0.036 -0.297,0.032 -0.046,-0.023 -0.063,-0.077 -0.014,-0.806 0.018,-0.199 0.05,-0.27 0.19,-0.739 0.022,-0.157 0.009,-0.195 -0.023,-0.401 -0.053,-0.19 -0.222,-0.162 -0.098,-0.013 0.098,-1.969"
     id="Cape May"
     inkscape:connector-curvature="0" />
  <path
     style="font-size:12px;fill:#d0d0d0;fill-opacity:1;fill-rule:nonzero;stroke:#000000;stroke-width:1;stroke-linecap:butt;stroke-linejoin:bevel;stroke-miterlimit:4;stroke-opacity:1;stroke-dasharray:none;marker-start:none"
     d="m 13.309069,23.827977 -1.638,3.006 -3.1430003,0.393 -1.743,-2.154 0.769,-1.425 1.01,-1.844 0.136,0.072 0.553,0.284 0.714,0.704 0.8920003,0.414 0.239,0.072 0.432,0.086 0.582,-0.15 1.197,0.542"
     id="Atlantic"
     inkscape:connector-curvature="0" />
  <path
     style="font-size:12px;fill:#d0d0d0;fill-opacity:1;fill-rule:nonzero;stroke:#000000;stroke-width:1;stroke-linecap:butt;stroke-linejoin:bevel;stroke-miterlimit:4;stroke-opacity:1;stroke-dasharray:none;marker-start:none"
     d="m 7.4740687,16.490977 1.329,-0.185 0.501,0.671 0.189,0.257 2.2670003,3.255 0.519,2.249 -0.032,0.315 -0.135,0.233 -0.582,0.15 -0.432,-0.086 -0.239,-0.072 -0.8920003,-0.414 -0.714,-0.704 -0.553,-0.284 -0.136,-0.072 -3.826,-2.618 0.622,-0.906 2.114,-1.789"
     id="Burlington"
     inkscape:connector-curvature="0" />
</svg>
