<?xml version="1.0" encoding="UTF-8" standalone="no"?>
<!-- Created with Inkscape (http://www.inkscape.org/) -->

<svg
   xmlns:dc="http://purl.org/dc/elements/1.1/"
   xmlns:cc="http://creativecommons.org/ns#"
   xmlns:rdf="http://www.w3.org/1999/02/22-rdf-syntax-ns#"
   xmlns:svg="http://www.w3.org/2000/svg"
   xmlns="http://www.w3.org/2000/svg"
   xmlns:sodipodi="http://sodipodi.sourceforge.net/DTD/sodipodi-0.dtd"
   xmlns:inkscape="http://www.inkscape.org/namespaces/inkscape"
   version="1.0"
   width="80.610001"
   height="84.459999"
   sodipodi:version="0.32"
   inkscape:version="0.48.2 r9819"
   sodipodi:docname="mi.svg"
   inkscape:output_extension="org.inkscape.output.svg.inkscape"
   id="svg3076">
  <metadata
     id="metadata3078">
    <rdf:RDF>
      <cc:Work
         rdf:about="">
        <dc:format>image/svg+xml</dc:format>
        <dc:type
           rdf:resource="http://purl.org/dc/dcmitype/StillImage" />
      </cc:Work>
    </rdf:RDF>
  </metadata>
  <defs
     id="defs3080" />
  <sodipodi:namedview
     pagecolor="#ffffff"
     bordercolor="#666666"
     borderopacity="1"
     objecttolerance="10"
     gridtolerance="10"
     guidetolerance="10"
     inkscape:pageopacity="0"
     inkscape:pageshadow="2"
     inkscape:window-width="1366"
     inkscape:window-height="716"
     fit-margin-top="0"
     fit-margin-left="0"
     fit-margin-right="0"
     fit-margin-bottom="0"
     inkscape:zoom="4.5491794"
     inkscape:cx="-6.487825"
     inkscape:cy="36.963374"
     inkscape:window-x="-8"
     inkscape:window-y="-8"
     inkscape:window-maximized="1"
     inkscape:current-layer="svg3076"
     id="namedview3082"
     showgrid="false" />
  <path
     style="font-size:12px;fill:#d0d0d0;fill-rule:nonzero;stroke:#000000;stroke-width:1;stroke-linecap:butt;stroke-linejoin:bevel;stroke-miterlimit:4;stroke-opacity:1;stroke-dasharray:none;marker-start:none"
     d="m 5.9234192,20.450947 0.235,-0.019 0.131,2.213 1.168,1.055 3.3479998,-0.234 0.158,2.213 3.345,-0.243 0.22,3.028 -0.635,-0.311 -0.613,-0.207 -0.38,-0.081 -0.486,-0.099 -6.4639998,-1.326 -0.91,-0.189 -0.829,-0.175 -1.812,-2.227 -1.018,-0.554 0.595,-0.483 0.176,-0.099 1.429,-0.573 0.554,-0.157 0.482,-0.203 0.145,-0.086 0.274,-0.261 0.649,-0.645 0.238,-0.337"
     id="Gogebic"
     inkscape:connector-curvature="0" />
  <path
     style="font-size:12px;fill:#d0d0d0;fill-rule:nonzero;stroke:#000000;stroke-width:1;stroke-linecap:butt;stroke-linejoin:bevel;stroke-miterlimit:4;stroke-opacity:1;stroke-dasharray:none;marker-start:none"
     d="m 14.154419,16.443947 0.261,3.421 0.608,-0.045 0.078,1.095 -1.108,0.072 0.089,1.456 0.14,1.884 0.086,1.109 -3.345,0.243 -0.158,-2.213 -3.3479998,0.234 -1.168,-1.055 -0.131,-2.213 -0.235,0.019 0.335,-0.415 0.144,-0.117 0.351,-0.207 0.617,-0.194 0.41,-0.064 0.118,0.018 0.166,0.063 1.808,-0.306 0.1899998,-0.067 0.369,-0.199 3.181,-2.006 0.542,-0.513"
     id="Ontonagon"
     inkscape:connector-curvature="0" />
  <path
     style="font-size:12px;fill:#d0d0d0;fill-rule:nonzero;stroke:#000000;stroke-width:1;stroke-linecap:butt;stroke-linejoin:bevel;stroke-miterlimit:4;stroke-opacity:1;stroke-dasharray:none;marker-start:none"
     d="m 70.027419,74.877947 1.106,-0.248 1.185,-0.171 0.081,0.036 1.068,0.662 -1.073,1.367 -0.513,0.918 -0.406,0.739 -0.04,0.078 -0.014,0.058 0.017,0.996 -2.924,0.496 -0.699,-4.602 2.212,-0.329"
     id="Monroe"
     inkscape:connector-curvature="0" />
  <path
     style="font-size:12px;fill:#d0d0d0;fill-rule:nonzero;stroke:#000000;stroke-width:1;stroke-linecap:butt;stroke-linejoin:bevel;stroke-miterlimit:4;stroke-opacity:1;stroke-dasharray:none;marker-start:none"
     d="m 67.815419,75.206947 0.699,4.602 -1.109,0.194 -4.544,0.744 -0.602,-4.719 2.194,-0.258 3.362,-0.563"
     id="Lenawee"
     inkscape:connector-curvature="0" />
  <path
     style="font-size:12px;fill:#d0d0d0;fill-rule:nonzero;stroke:#000000;stroke-width:1;stroke-linecap:butt;stroke-linejoin:bevel;stroke-miterlimit:4;stroke-opacity:1;stroke-dasharray:none;marker-start:none"
     d="m 62.259419,76.027947 0.602,4.719 -0.364,0.058 -3.854,0.59 -0.279,-0.801 -0.487,-4.027 1.108,-0.102 3.274,-0.437"
     id="Hillsdale"
     inkscape:connector-curvature="0" />
  <path
     style="font-size:12px;fill:#d0d0d0;fill-rule:nonzero;stroke:#000000;stroke-width:1;stroke-linecap:butt;stroke-linejoin:bevel;stroke-miterlimit:4;stroke-opacity:1;stroke-dasharray:none;marker-start:none"
     d="m 53.451419,77.091947 4.426,-0.525 0.487,4.027 -3.534,0.415 -0.91,0.098 -0.469,-4.015"
     id="Branch"
     inkscape:connector-curvature="0" />
  <path
     style="font-size:12px;fill:#d0d0d0;fill-rule:nonzero;stroke:#000000;stroke-width:1;stroke-linecap:butt;stroke-linejoin:bevel;stroke-miterlimit:4;stroke-opacity:1;stroke-dasharray:none;marker-start:none"
     d="m 49.012419,77.613947 4.439,-0.522 0.469,4.015 -3.498,0.402 -1.253,0.134 -0.157,-4.029"
     id="St. Joseph"
     inkscape:connector-curvature="0" />
  <path
     style="font-size:12px;fill:#d0d0d0;fill-rule:nonzero;stroke:#000000;stroke-width:1;stroke-linecap:butt;stroke-linejoin:bevel;stroke-miterlimit:4;stroke-opacity:1;stroke-dasharray:none;marker-start:none"
     d="m 44.645419,78.046947 4.367,-0.433 0.157,4.029 -2.582,0.262 -1.555,0.166 -0.387,-4.024"
     id="Cass"
     inkscape:connector-curvature="0" />
  <path
     style="font-size:12px;fill:#d0d0d0;fill-rule:nonzero;stroke:#000000;stroke-width:1;stroke-linecap:butt;stroke-linejoin:bevel;stroke-miterlimit:4;stroke-opacity:1;stroke-dasharray:none;marker-start:none"
     d="m 43.071419,75.972947 1.574,2.074 0.387,4.024 -2.84,0.293 -2.866,0.275 0.004,-0.008 0.42,-0.352 0.526,-0.505 0.329,-0.365 0.506,-0.689 0.175,-0.334 0.117,-0.325 0.172,-0.771 0.491,-1.42 0.19,-0.4 0.815,-1.497"
     id="Berrien"
     inkscape:connector-curvature="0" />
  <path
     style="font-size:12px;fill:#d0d0d0;fill-rule:nonzero;stroke:#000000;stroke-width:1;stroke-linecap:butt;stroke-linejoin:bevel;stroke-miterlimit:4;stroke-opacity:1;stroke-dasharray:none;marker-start:none"
     d="m 73.697419,69.654947 1.997,-0.32 -0.077,0.693 -0.035,0.122 -0.217,0.519 -0.31,0.207 -0.262,0.131 -0.239,0.064 -0.036,0.007 -0.411,0.212 -0.13,0.14 -0.127,0.257 -0.207,0.703 0.004,0.044 0,0.042 0.055,0.744 -0.068,1.176 -0.167,0.761 -1.068,-0.662 -0.081,-0.036 -1.185,0.171 -1.106,0.248 -0.71,-4.477 4.38,-0.746"
     id="Wayne"
     inkscape:connector-curvature="0" />
  <path
     style="font-size:12px;fill:#d0d0d0;fill-rule:nonzero;stroke:#000000;stroke-width:1;stroke-linecap:butt;stroke-linejoin:bevel;stroke-miterlimit:4;stroke-opacity:1;stroke-dasharray:none;marker-start:none"
     d="m 69.317419,70.400947 0.71,4.477 -2.212,0.329 -3.362,0.563 -0.568,-4.533 4.382,-0.658 1.05,-0.178"
     id="Washtenaw"
     inkscape:connector-curvature="0" />
  <path
     style="font-size:12px;fill:#d0d0d0;fill-rule:nonzero;stroke:#000000;stroke-width:1;stroke-linecap:butt;stroke-linejoin:bevel;stroke-miterlimit:4;stroke-opacity:1;stroke-dasharray:none;marker-start:none"
     d="m 63.795419,71.244947 0.09,-0.008 0.568,4.533 -2.194,0.258 -3.274,0.437 -0.626,-4.521 1.11,-0.127 4.326,-0.572"
     id="Jackson"
     inkscape:connector-curvature="0" />
  <path
     style="font-size:12px;fill:#d0d0d0;fill-rule:nonzero;stroke:#000000;stroke-width:1;stroke-linecap:butt;stroke-linejoin:bevel;stroke-miterlimit:4;stroke-opacity:1;stroke-dasharray:none;marker-start:none"
     d="m 55.033419,72.346947 3.326,-0.403 0.626,4.521 -1.108,0.102 -4.426,0.525 -0.559,-4.477 2.141,-0.268"
     id="Calhoun"
     inkscape:connector-curvature="0" />
  <path
     style="font-size:12px;fill:#d0d0d0;fill-rule:nonzero;stroke:#000000;stroke-width:1;stroke-linecap:butt;stroke-linejoin:bevel;stroke-miterlimit:4;stroke-opacity:1;stroke-dasharray:none;marker-start:none"
     d="m 50.589419,72.847947 2.303,-0.233 0.559,4.477 -4.439,0.522 -0.505,-4.529 2.082,-0.237"
     id="Kalamazoo"
     inkscape:connector-curvature="0" />
  <path
     style="font-size:12px;fill:#d0d0d0;fill-rule:nonzero;stroke:#000000;stroke-width:1;stroke-linecap:butt;stroke-linejoin:bevel;stroke-miterlimit:4;stroke-opacity:1;stroke-dasharray:none;marker-start:none"
     d="m 43.703419,73.606947 4.804,-0.522 0.505,4.529 -4.367,0.433 -1.574,-2.074 0.632,-2.366"
     id="Van Buren"
     inkscape:connector-curvature="0" />
  <path
     style="font-size:12px;fill:#d0d0d0;fill-rule:nonzero;stroke:#000000;stroke-width:1;stroke-linecap:butt;stroke-linejoin:bevel;stroke-miterlimit:4;stroke-opacity:1;stroke-dasharray:none;marker-start:none"
     d="m 47.849419,68.621947 2.226,-0.244 0.514,4.47 -2.082,0.237 -4.804,0.522 0.149,-4.553 3.997,-0.432"
     id="Allegan"
     inkscape:connector-curvature="0" />
  <path
     style="font-size:12px;fill:#d0d0d0;fill-rule:nonzero;stroke:#000000;stroke-width:1;stroke-linecap:butt;stroke-linejoin:bevel;stroke-miterlimit:4;stroke-opacity:1;stroke-dasharray:none;marker-start:none"
     d="m 54.492419,67.846947 0.541,4.5 -2.141,0.268 -2.303,0.233 -0.514,-4.47 2.209,-0.27 2.208,-0.261"
     id="Barry"
     inkscape:connector-curvature="0" />
  <path
     style="font-size:12px;fill:#d0d0d0;fill-rule:nonzero;stroke:#000000;stroke-width:1;stroke-linecap:butt;stroke-linejoin:bevel;stroke-miterlimit:4;stroke-opacity:1;stroke-dasharray:none;marker-start:none"
     d="m 56.714419,67.588947 2.195,-0.251 0.56,4.479 -1.11,0.127 -3.326,0.403 -0.541,-4.5 2.222,-0.258"
     id="Eaton"
     inkscape:connector-curvature="0" />
  <path
     style="font-size:12px;fill:#d0d0d0;fill-rule:nonzero;stroke:#000000;stroke-width:1;stroke-linecap:butt;stroke-linejoin:bevel;stroke-miterlimit:4;stroke-opacity:1;stroke-dasharray:none;marker-start:none"
     d="m 61.141419,66.985947 1.923,-0.247 0.731,4.506 -4.326,0.572 -0.56,-4.479 2.232,-0.352"
     id="Ingham"
     inkscape:connector-curvature="0" />
  <path
     style="font-size:12px;fill:#d0d0d0;fill-rule:nonzero;stroke:#000000;stroke-width:1;stroke-linecap:butt;stroke-linejoin:bevel;stroke-miterlimit:4;stroke-opacity:1;stroke-dasharray:none;marker-start:none"
     d="m 67.469419,66.094947 0.798,4.484 -4.382,0.658 -0.09,0.008 -0.731,-4.506 2.197,-0.334 2.208,-0.31"
     id="Livingston"
     inkscape:connector-curvature="0" />
  <path
     style="font-size:12px;fill:#d0d0d0;fill-rule:nonzero;stroke:#000000;stroke-width:1;stroke-linecap:butt;stroke-linejoin:bevel;stroke-miterlimit:4;stroke-opacity:1;stroke-dasharray:none;marker-start:none"
     d="m 72.760419,64.006947 0.937,5.648 -4.38,0.746 -1.05,0.178 -0.798,-4.484 -0.176,-1.133 1.1,-0.17 1.094,-0.235 3.273,-0.55"
     id="Oakland"
     inkscape:connector-curvature="0" />
  <path
     style="font-size:12px;fill:#d0d0d0;fill-rule:nonzero;stroke:#000000;stroke-width:1;stroke-linecap:butt;stroke-linejoin:bevel;stroke-miterlimit:4;stroke-opacity:1;stroke-dasharray:none;marker-start:none"
     d="m 73.841419,63.790947 2.28,-0.364 0.442,2.442 0.05,0.306 -0.919,3.16 -1.997,0.32 -0.937,-5.648 1.081,-0.216"
     id="Macomb"
     inkscape:connector-curvature="0" />
  <path
     style="font-size:12px;fill:#d0d0d0;fill-rule:nonzero;stroke:#000000;stroke-width:1;stroke-linecap:butt;stroke-linejoin:bevel;stroke-miterlimit:4;stroke-opacity:1;stroke-dasharray:none;marker-start:none"
     d="m 73.265419,60.464947 4.56,-0.825 0.023,0.081 0.185,0.545 0.073,0.194 0.761,1.127 -0.063,3.605 -0.068,1.267 -0.041,0.315 -0.032,0.086 -0.473,0.766 -0.044,0.054 -0.159,0.046 -0.536,0.107 -0.517,-0.509 -0.034,-0.09 0.168,-0.405 0.176,-0.158 0.23,0.05 0.117,-0.164 0.036,-0.071 0.014,-0.112 -0.023,-0.122 -0.081,-0.095 -0.045,-0.022 -0.388,-0.095 -0.108,-0.023 -0.144,0.027 -0.225,0.123 -0.014,0.008 -0.05,-0.306 -0.442,-2.442 -2.28,0.364 -0.576,-3.326"
     id="St. Clair"
     inkscape:connector-curvature="0" />
  <path
     style="font-size:12px;fill:#d0d0d0;fill-rule:nonzero;stroke:#000000;stroke-width:1;stroke-linecap:butt;stroke-linejoin:bevel;stroke-miterlimit:4;stroke-opacity:1;stroke-dasharray:none;marker-start:none"
     d="m 68.830419,60.162947 -0.018,-0.127 0.834,-1.28 2.163,-0.351 0.085,0.55 1.1,-0.163 0.271,1.673 0.576,3.326 -1.081,0.216 -3.273,0.55 -0.657,-4.394"
     id="Lapeer"
     inkscape:connector-curvature="0" />
  <path
     style="font-size:12px;fill:#d0d0d0;fill-rule:nonzero;stroke:#000000;stroke-width:1;stroke-linecap:butt;stroke-linejoin:bevel;stroke-miterlimit:4;stroke-opacity:1;stroke-dasharray:none;marker-start:none"
     d="m 66.647419,60.468947 2.183,-0.306 0.657,4.394 -1.094,0.235 -1.1,0.17 0.176,1.133 -2.208,0.31 -0.636,-4.516 2.022,-1.42"
     id="Genesee"
     inkscape:connector-curvature="0" />
  <path
     style="font-size:12px;fill:#d0d0d0;fill-rule:nonzero;stroke:#000000;stroke-width:1;stroke-linecap:butt;stroke-linejoin:bevel;stroke-miterlimit:4;stroke-opacity:1;stroke-dasharray:none;marker-start:none"
     d="m 64.625419,61.888947 0.636,4.516 -2.197,0.334 -1.923,0.247 -0.582,-4.394 -0.014,-0.13 4.08,-0.573"
     id="Shiawassee"
     inkscape:connector-curvature="0" />
  <path
     style="font-size:12px;fill:#d0d0d0;fill-rule:nonzero;stroke:#000000;stroke-width:1;stroke-linecap:butt;stroke-linejoin:bevel;stroke-miterlimit:4;stroke-opacity:1;stroke-dasharray:none;marker-start:none"
     d="m 60.559419,62.591947 0.582,4.394 -2.232,0.352 -2.195,0.251 -0.527,-4.479 4.372,-0.518"
     id="Clinton"
     inkscape:connector-curvature="0" />
  <path
     style="font-size:12px;fill:#d0d0d0;fill-rule:nonzero;stroke:#000000;stroke-width:1;stroke-linecap:butt;stroke-linejoin:bevel;stroke-miterlimit:4;stroke-opacity:1;stroke-dasharray:none;marker-start:none"
     d="m 51.752419,63.619947 4.435,-0.51 0.527,4.479 -2.222,0.258 -2.208,0.261 -0.532,-4.488"
     id="Ionia"
     inkscape:connector-curvature="0" />
  <path
     style="font-size:12px;fill:#d0d0d0;fill-rule:nonzero;stroke:#000000;stroke-width:1;stroke-linecap:butt;stroke-linejoin:bevel;stroke-miterlimit:4;stroke-opacity:1;stroke-dasharray:none;marker-start:none"
     d="m 47.163419,63.002947 0.28,2.234 0.203,1.506 0.203,1.879 -3.997,0.432 -1.056,-4.457 1.371,-0.139 2.032,-0.231 -0.136,-1.117 1.1,-0.107"
     id="Ottawa"
     inkscape:connector-curvature="0" />
  <path
     style="font-size:12px;fill:#d0d0d0;fill-rule:nonzero;stroke:#000000;stroke-width:1;stroke-linecap:butt;stroke-linejoin:bevel;stroke-miterlimit:4;stroke-opacity:1;stroke-dasharray:none;marker-start:none"
     d="m 40.557419,60.211947 3.934,-0.338 0.243,2.236 2.313,-0.239 0.116,1.132 -1.1,0.107 0.136,1.117 -2.032,0.231 -1.371,0.139 -0.108,-0.225 -0.41,-0.726 -0.901,-1.487 -0.14,-0.274 -0.329,-0.722 -0.171,-0.446 -0.18,-0.505"
     id="Muskegon"
     inkscape:connector-curvature="0" />
  <path
     style="font-size:12px;fill:#d0d0d0;fill-rule:nonzero;stroke:#000000;stroke-width:1;stroke-linecap:butt;stroke-linejoin:bevel;stroke-miterlimit:4;stroke-opacity:1;stroke-dasharray:none;marker-start:none"
     d="m 47.047419,61.870947 2.118,-0.253 2.33,-0.256 0.257,2.258 0.532,4.488 -2.209,0.27 -2.226,0.244 -0.203,-1.879 -0.203,-1.506 -0.28,-2.234 -0.116,-1.132"
     id="Kent"
     inkscape:connector-curvature="0" />
  <path
     style="font-size:12px;fill:#d0d0d0;fill-rule:nonzero;stroke:#000000;stroke-width:1;stroke-linecap:butt;stroke-linejoin:bevel;stroke-miterlimit:4;stroke-opacity:1;stroke-dasharray:none;marker-start:none"
     d="m 55.574419,58.652947 0.613,4.457 -4.435,0.51 -0.257,-2.258 -2.33,0.256 -0.243,-2.24 4.434,-0.469 2.218,-0.256"
     id="Montcalm"
     inkscape:connector-curvature="0" />
  <path
     style="font-size:12px;fill:#d0d0d0;fill-rule:nonzero;stroke:#000000;stroke-width:1;stroke-linecap:butt;stroke-linejoin:bevel;stroke-miterlimit:4;stroke-opacity:1;stroke-dasharray:none;marker-start:none"
     d="m 57.787419,58.390947 2.203,-0.27 0.555,4.341 0.014,0.13 -4.372,0.518 -0.613,-4.457 2.213,-0.262"
     id="Gratiot"
     inkscape:connector-curvature="0" />
  <path
     style="font-size:12px;fill:#d0d0d0;fill-rule:nonzero;stroke:#000000;stroke-width:1;stroke-linecap:butt;stroke-linejoin:bevel;stroke-miterlimit:4;stroke-opacity:1;stroke-dasharray:none;marker-start:none"
     d="m 66.188419,57.169947 0.459,3.299 -2.022,1.42 -4.08,0.573 -0.555,-4.341 -0.021,-0.203 1.843,-0.23 -0.114,-1.117 1.092,-0.118 0.37,0.334 0.676,0.112 1.185,-0.148 0.41,0.324 0.757,0.095"
     id="Saginaw"
     inkscape:connector-curvature="0" />
  <path
     style="font-size:12px;fill:#d0d0d0;fill-rule:nonzero;stroke:#000000;stroke-width:1;stroke-linecap:butt;stroke-linejoin:bevel;stroke-miterlimit:4;stroke-opacity:1;stroke-dasharray:none;marker-start:none"
     d="m 71.224419,53.929947 4.69,-0.848 0.045,0.266 0.167,0.847 0.05,0.163 1.357,4.574 0.063,0.158 0.229,0.55 -4.56,0.825 -0.271,-1.673 -1.1,0.163 -0.085,-0.55 -0.585,-4.475"
     id="Sanilac"
     inkscape:connector-curvature="0" />
  <path
     style="font-size:12px;fill:#d0d0d0;fill-rule:nonzero;stroke:#000000;stroke-width:1;stroke-linecap:butt;stroke-linejoin:bevel;stroke-miterlimit:4;stroke-opacity:1;stroke-dasharray:none;marker-start:none"
     d="m 67.905419,53.676947 0.114,0.789 3.205,-0.536 0.585,4.475 -2.163,0.351 -0.834,1.28 0.018,0.127 -2.183,0.306 -0.459,-3.299 -0.203,-1.514 1.92,-1.979"
     id="Tuscola"
     inkscape:connector-curvature="0" />
  <path
     style="font-size:12px;fill:#d0d0d0;fill-rule:nonzero;stroke:#000000;stroke-width:1;stroke-linecap:butt;stroke-linejoin:bevel;stroke-miterlimit:4;stroke-opacity:1;stroke-dasharray:none;marker-start:none"
     d="m 71.224419,53.929947 -3.205,0.536 -0.114,-0.789 0.015,-0.063 0.102,-0.51 0.257,-0.82 1.109,-1.938 2.533,-1.613 0.464,-0.122 1.208,0.451 0.482,0.288 0.077,0.072 0.342,0.491 0.789,1.141 0.127,0.261 0.257,0.78 0.103,0.36 0.144,0.627 -4.69,0.848"
     id="Huron"
     inkscape:connector-curvature="0" />
  <path
     style="font-size:12px;fill:#d0d0d0;fill-rule:nonzero;stroke:#000000;stroke-width:1;stroke-linecap:butt;stroke-linejoin:bevel;stroke-miterlimit:4;stroke-opacity:1;stroke-dasharray:none;marker-start:none"
     d="m 61.022419,51.071947 1.114,-0.144 0.149,1.1 1.226,-0.145 -0.068,1.97 1.402,1.348 1.14,0.455 0.203,1.514 -0.757,-0.095 -0.41,-0.324 -1.185,0.148 -0.676,-0.112 -0.37,-0.334 -1.092,0.118 -0.404,-3.3 -0.272,-2.199"
     id="Bay"
     inkscape:connector-curvature="0" />
  <path
     style="font-size:12px;fill:#d0d0d0;fill-rule:nonzero;stroke:#000000;stroke-width:1;stroke-linecap:butt;stroke-linejoin:bevel;stroke-miterlimit:4;stroke-opacity:1;stroke-dasharray:none;marker-start:none"
     d="m 57.261419,53.906947 2.212,-0.257 -0.023,-0.189 1.844,-0.19 0.404,3.3 0.114,1.117 -1.843,0.23 0.021,0.203 -2.203,0.27 -0.526,-4.484"
     id="Midland"
     inkscape:connector-curvature="0" />
  <path
     style="font-size:12px;fill:#d0d0d0;fill-rule:nonzero;stroke:#000000;stroke-width:1;stroke-linecap:butt;stroke-linejoin:bevel;stroke-miterlimit:4;stroke-opacity:1;stroke-dasharray:none;marker-start:none"
     d="m 57.261419,53.906947 0.526,4.484 -2.213,0.262 -2.218,0.256 -0.549,-4.461 4.454,-0.541"
     id="Isabella"
     inkscape:connector-curvature="0" />
  <path
     style="font-size:12px;fill:#d0d0d0;fill-rule:nonzero;stroke:#000000;stroke-width:1;stroke-linecap:butt;stroke-linejoin:bevel;stroke-miterlimit:4;stroke-opacity:1;stroke-dasharray:none;marker-start:none"
     d="m 48.430419,54.915947 4.377,-0.468 0.549,4.461 -4.434,0.469 -0.492,-4.462"
     id="Mecosta"
     inkscape:connector-curvature="0" />
  <path
     style="font-size:12px;fill:#d0d0d0;fill-rule:nonzero;stroke:#000000;stroke-width:1;stroke-linecap:butt;stroke-linejoin:bevel;stroke-miterlimit:4;stroke-opacity:1;stroke-dasharray:none;marker-start:none"
     d="m 48.430419,54.915947 0.492,4.462 0.243,2.24 -2.118,0.253 -2.313,0.239 -0.243,-2.236 -0.465,-4.485 4.404,-0.473"
     id="Newaygo"
     inkscape:connector-curvature="0" />
  <path
     style="font-size:12px;fill:#d0d0d0;fill-rule:nonzero;stroke:#000000;stroke-width:1;stroke-linecap:butt;stroke-linejoin:bevel;stroke-miterlimit:4;stroke-opacity:1;stroke-dasharray:none;marker-start:none"
     d="m 40.394419,55.718947 3.632,-0.33 0.465,4.485 -3.934,0.338 -0.672,-1.289 -0.109,-0.207 -0.117,-0.302 -0.04,-0.198 -0.015,-0.149 0.006,-0.185 0.058,-0.257 0.149,-0.284 0.23,-0.365 0.163,-0.297 0.116,-0.338 0.05,-0.235 0.023,-0.347 -0.005,-0.04"
     id="Oceana"
     inkscape:connector-curvature="0" />
  <path
     style="font-size:12px;fill:#d0d0d0;fill-rule:nonzero;stroke:#000000;stroke-width:1;stroke-linecap:butt;stroke-linejoin:bevel;stroke-miterlimit:4;stroke-opacity:1;stroke-dasharray:none;marker-start:none"
     d="m 66.269419,48.218947 0.027,0.482 0.005,0.329 -0.023,0.586 -0.779,0.919 -0.753,0.212 -0.221,0.027 -0.387,0 -0.162,0.122 -0.055,0.063 -0.18,0.257 -0.207,0.563 -0.023,0.104 -1.226,0.145 -0.149,-1.1 -1.114,0.144 -0.26,-2.119 2.584,-0.329 2.923,-0.405"
     id="Arenac"
     inkscape:connector-curvature="0" />
  <path
     style="font-size:12px;fill:#d0d0d0;fill-rule:nonzero;stroke:#000000;stroke-width:1;stroke-linecap:butt;stroke-linejoin:bevel;stroke-miterlimit:4;stroke-opacity:1;stroke-dasharray:none;marker-start:none"
     d="m 60.762419,48.952947 0.532,4.318 -1.844,0.19 0.023,0.189 -2.212,0.257 -0.556,-4.44 2.204,-0.27 1.853,-0.244"
     id="Gladwin"
     inkscape:connector-curvature="0" />
  <path
     style="font-size:12px;fill:#d0d0d0;fill-rule:nonzero;stroke:#000000;stroke-width:1;stroke-linecap:butt;stroke-linejoin:bevel;stroke-miterlimit:4;stroke-opacity:1;stroke-dasharray:none;marker-start:none"
     d="m 54.470419,49.723947 2.235,-0.257 0.556,4.44 -4.454,0.541 -0.504,-4.512 2.167,-0.212"
     id="Clare"
     inkscape:connector-curvature="0" />
  <path
     style="font-size:12px;fill:#d0d0d0;fill-rule:nonzero;stroke:#000000;stroke-width:1;stroke-linecap:butt;stroke-linejoin:bevel;stroke-miterlimit:4;stroke-opacity:1;stroke-dasharray:none;marker-start:none"
     d="m 52.303419,49.935947 0.504,4.512 -4.377,0.468 -0.518,-4.489 2.113,-0.239 2.278,-0.252"
     id="Osceola"
     inkscape:connector-curvature="0" />
  <path
     style="font-size:12px;fill:#d0d0d0;fill-rule:nonzero;stroke:#000000;stroke-width:1;stroke-linecap:butt;stroke-linejoin:bevel;stroke-miterlimit:4;stroke-opacity:1;stroke-dasharray:none;marker-start:none"
     d="m 47.912419,50.426947 0.518,4.489 -4.404,0.473 -0.508,-4.529 2.037,-0.172 2.357,-0.261"
     id="Lake"
     inkscape:connector-curvature="0" />
  <path
     style="font-size:12px;fill:#d0d0d0;fill-rule:nonzero;stroke:#000000;stroke-width:1;stroke-linecap:butt;stroke-linejoin:bevel;stroke-miterlimit:4;stroke-opacity:1;stroke-dasharray:none;marker-start:none"
     d="m 40.336419,51.049947 3.182,-0.19 0.508,4.529 -3.632,0.33 -0.492,-1.925 0.114,-1.947 0.32,-0.797"
     id="Mason"
     inkscape:connector-curvature="0" />
  <path
     style="font-size:12px;fill:#d0d0d0;fill-rule:nonzero;stroke:#000000;stroke-width:1;stroke-linecap:butt;stroke-linejoin:bevel;stroke-miterlimit:4;stroke-opacity:1;stroke-dasharray:none;marker-start:none"
     d="m 62.754419,44.179947 5.184,-0.716 0.048,0.324 0.059,0.92 -0.113,1.095 -0.752,0.87 -0.171,-0.05 -0.15,0.005 -0.189,0.068 -0.071,0.049 -0.122,0.171 -0.099,0.19 -0.068,0.279 -0.041,0.834 -2.923,0.405 -0.592,-4.444"
     id="Iosco"
     inkscape:connector-curvature="0" />
  <path
     style="font-size:12px;fill:#d0d0d0;fill-rule:nonzero;stroke:#000000;stroke-width:1;stroke-linecap:butt;stroke-linejoin:bevel;stroke-miterlimit:4;stroke-opacity:1;stroke-dasharray:none;marker-start:none"
     d="m 62.754419,44.179947 0.592,4.444 -2.584,0.329 -1.853,0.244 -0.563,-4.444 4.408,-0.573"
     id="Ogemaw"
     inkscape:connector-curvature="0" />
  <path
     style="font-size:12px;fill:#d0d0d0;fill-rule:nonzero;stroke:#000000;stroke-width:1;stroke-linecap:butt;stroke-linejoin:bevel;stroke-miterlimit:4;stroke-opacity:1;stroke-dasharray:none;marker-start:none"
     d="m 53.947419,45.234947 4.399,-0.482 0.563,4.444 -2.204,0.27 -2.235,0.257 -0.523,-4.489"
     id="Roscommon"
     inkscape:connector-curvature="0" />
  <path
     style="font-size:12px;fill:#d0d0d0;fill-rule:nonzero;stroke:#000000;stroke-width:1;stroke-linecap:butt;stroke-linejoin:bevel;stroke-miterlimit:4;stroke-opacity:1;stroke-dasharray:none;marker-start:none"
     d="m 53.947419,45.234947 0.523,4.489 -2.167,0.212 -2.278,0.252 -0.496,-4.462 4.418,-0.491"
     id="Missaukee"
     inkscape:connector-curvature="0" />
  <path
     style="font-size:12px;fill:#d0d0d0;fill-rule:nonzero;stroke:#000000;stroke-width:1;stroke-linecap:butt;stroke-linejoin:bevel;stroke-miterlimit:4;stroke-opacity:1;stroke-dasharray:none;marker-start:none"
     d="m 45.108419,46.203947 4.421,-0.478 0.496,4.462 -2.113,0.239 -2.357,0.261 -0.447,-4.484"
     id="Wexford"
     inkscape:connector-curvature="0" />
  <path
     style="font-size:12px;fill:#d0d0d0;fill-rule:nonzero;stroke:#000000;stroke-width:1;stroke-linecap:butt;stroke-linejoin:bevel;stroke-miterlimit:4;stroke-opacity:1;stroke-dasharray:none;marker-start:none"
     d="m 45.108419,46.203947 0.447,4.484 -2.037,0.172 -3.182,0.19 0.865,-2.254 0.081,-0.735 0.009,-0.256 0.004,-1.263 3.813,-0.338"
     id="Manistee"
     inkscape:connector-curvature="0" />
  <path
     style="font-size:12px;fill:#d0d0d0;fill-rule:nonzero;stroke:#000000;stroke-width:1;stroke-linecap:butt;stroke-linejoin:bevel;stroke-miterlimit:4;stroke-opacity:1;stroke-dasharray:none;marker-start:none"
     d="m 62.168419,39.726947 5.146,-0.707 0.235,0.347 0.446,1.451 0.01,0.32 -0.067,2.326 -5.184,0.716 -0.586,-4.453"
     id="Alcona"
     inkscape:connector-curvature="0" />
  <path
     style="font-size:12px;fill:#d0d0d0;fill-rule:nonzero;stroke:#000000;stroke-width:1;stroke-linecap:butt;stroke-linejoin:bevel;stroke-miterlimit:4;stroke-opacity:1;stroke-dasharray:none;marker-start:none"
     d="m 57.783419,40.299947 4.385,-0.573 0.586,4.453 -4.408,0.573 -0.563,-4.453"
     id="Oscoda"
     inkscape:connector-curvature="0" />
  <path
     style="font-size:12px;fill:#d0d0d0;fill-rule:nonzero;stroke:#000000;stroke-width:1;stroke-linecap:butt;stroke-linejoin:bevel;stroke-miterlimit:4;stroke-opacity:1;stroke-dasharray:none;marker-start:none"
     d="m 53.451419,40.772947 4.332,-0.473 0.563,4.453 -4.399,0.482 -0.496,-4.462"
     id="Crawford"
     inkscape:connector-curvature="0" />
  <path
     style="font-size:12px;fill:#d0d0d0;fill-rule:nonzero;stroke:#000000;stroke-width:1;stroke-linecap:butt;stroke-linejoin:bevel;stroke-miterlimit:4;stroke-opacity:1;stroke-dasharray:none;marker-start:none"
     d="m 53.451419,40.772947 0.496,4.462 -4.418,0.491 -0.426,-3.858 0.026,-0.45 0.013,-0.064 0.271,-0.126 4.038,-0.455"
     id="Kalkaska"
     inkscape:connector-curvature="0" />
  <path
     style="font-size:12px;fill:#d0d0d0;fill-rule:nonzero;stroke:#000000;stroke-width:1;stroke-linecap:butt;stroke-linejoin:bevel;stroke-miterlimit:4;stroke-opacity:1;stroke-dasharray:none;marker-start:none"
     d="m 48.088419,41.259947 1.015,0.608 0.426,3.858 -4.421,0.478 -0.337,-3.357 1.585,-0.19 1.732,-1.397"
     id="Grand Treverse"
     inkscape:connector-curvature="0" />
  <path
     style="font-size:12px;fill:#d0d0d0;fill-rule:nonzero;stroke:#000000;stroke-width:1;stroke-linecap:butt;stroke-linejoin:bevel;stroke-miterlimit:4;stroke-opacity:1;stroke-dasharray:none;marker-start:none"
     d="m 44.771419,42.846947 0.337,3.357 -3.813,0.338 0.045,-0.41 0.01,-0.23 -0.081,-0.351 -0.081,-0.181 -0.252,-0.482 -0.069,-0.194 -0.009,-0.297 0.009,-0.072 0.05,-0.095 0.14,-0.108 0.527,-0.243 0.591,-0.195 0.139,-0.153 0.082,-0.225 0.022,-0.153 -0.005,-0.113 2.358,-0.193"
     id="Benzie"
     inkscape:connector-curvature="0" />
  <path
     style="font-size:12px;fill:#d0d0d0;fill-rule:nonzero;stroke:#000000;stroke-width:1;stroke-linecap:butt;stroke-linejoin:bevel;stroke-miterlimit:4;stroke-opacity:1;stroke-dasharray:none;marker-start:none"
     d="m 46.356419,42.656947 -1.585,0.19 -2.358,0.193 -0.099,-1.117 0.307,-0.577 0.743,-0.686 1.469,-0.95 0.176,-0.487 0.97,-1.862 0.577,-0.374 0.094,-0.004 0.158,0.252 -0.483,3.511 -0.035,0.027 -0.131,0.5 -0.018,0.131 0.005,0.32 0.036,0.226 0.174,0.707"
     id="Leelanau"
     inkscape:connector-curvature="0" />
  <path
     style="font-size:12px;fill:#d0d0d0;fill-rule:nonzero;stroke:#000000;stroke-width:1;stroke-linecap:butt;stroke-linejoin:bevel;stroke-miterlimit:4;stroke-opacity:1;stroke-dasharray:none;marker-start:none"
     d="m 66.116419,34.647947 0.735,0.807 0.671,1.352 -0.044,0.049 -0.155,-0.017 -0.5,-0.131 -0.171,-0.095 -0.108,-0.14 -0.303,-0.063 -0.287,0.203 -0.062,0.095 -0.078,0.216 -0.004,0.045 0.108,0.527 0.122,0.478 0.067,0.14 0.063,0.095 0.081,0.072 0.325,0.266 0.738,0.473 -5.146,0.707 -0.267,-1.983 0.005,-0.162 0.041,-0.09 -0.284,-2.195 4.453,-0.649"
     id="Alpena"
     inkscape:connector-curvature="0" />
  <path
     style="font-size:12px;fill:#d0d0d0;fill-rule:nonzero;stroke:#000000;stroke-width:1;stroke-linecap:butt;stroke-linejoin:bevel;stroke-miterlimit:4;stroke-opacity:1;stroke-dasharray:none;marker-start:none"
     d="m 61.663419,35.296947 0.284,2.195 -0.041,0.09 -0.005,0.162 0.267,1.983 -4.385,0.573 -0.501,-4.412 1.086,-0.136 3.295,-0.455"
     id="Montmorency"
     inkscape:connector-curvature="0" />
  <path
     style="font-size:12px;fill:#d0d0d0;fill-rule:nonzero;stroke:#000000;stroke-width:1;stroke-linecap:butt;stroke-linejoin:bevel;stroke-miterlimit:4;stroke-opacity:1;stroke-dasharray:none;marker-start:none"
     d="m 53.960419,36.247947 3.322,-0.36 0.501,4.412 -4.332,0.473 -0.472,-3.295 0.981,-1.23"
     id="Otsego"
     inkscape:connector-curvature="0" />
  <path
     style="font-size:12px;fill:#d0d0d0;fill-rule:nonzero;stroke:#000000;stroke-width:1;stroke-linecap:butt;stroke-linejoin:bevel;stroke-miterlimit:4;stroke-opacity:1;stroke-dasharray:none;marker-start:none"
     d="m 48.043419,36.860947 0.107,-0.014 1.384,-0.13 0.099,0.928 0.357,0.158 1.69,-0.198 1.299,-0.127 0.472,3.295 -4.038,0.455 -0.271,0.126 -0.013,0.064 -0.026,0.45 -1.015,-0.608 0.071,-0.18 0.136,-0.406 0.068,-0.257 0.064,-0.883 0.003,-0.92 -0.072,-0.613 -0.315,-1.14"
     id="Antrim"
     inkscape:connector-curvature="0" />
  <path
     style="font-size:12px;fill:#d0d0d0;fill-rule:nonzero;stroke:#000000;stroke-width:1;stroke-linecap:butt;stroke-linejoin:bevel;stroke-miterlimit:4;stroke-opacity:1;stroke-dasharray:none;marker-start:none"
     d="m 50.652419,34.516947 0.631,0.83 0.46,0.004 2.095,-0.221 0.122,1.118 -0.981,1.23 -1.299,0.127 -1.69,0.198 -0.357,-0.158 -0.099,-0.928 -1.384,0.13 -0.107,0.014 -0.055,-0.352 0.104,-0.477 0.131,-0.167 0.253,-0.298 0.134,-0.139 0.821,-0.663 0.112,-0.063 0.465,-0.176 0.644,-0.009"
     id="Charlevoix"
     inkscape:connector-curvature="0" />
  <path
     style="font-size:12px;fill:#d0d0d0;fill-rule:nonzero;stroke:#000000;stroke-width:1;stroke-linecap:butt;stroke-linejoin:bevel;stroke-miterlimit:4;stroke-opacity:1;stroke-dasharray:none;marker-start:none"
     d="m 66.116419,34.647947 -4.453,0.649 -3.295,0.455 -0.378,-2.984 -0.347,-2.479 0.427,-0.063 0.83,0.996 3.083,1.208 1.979,0.609 0.266,0.036 0.504,-0.059 0.145,-0.162 0.071,0.013 0.465,0.528 0.703,1.253"
     id="Presque Isle"
     inkscape:connector-curvature="0" />
  <path
     style="font-size:12px;fill:#d0d0d0;fill-rule:nonzero;stroke:#000000;stroke-width:1;stroke-linecap:butt;stroke-linejoin:bevel;stroke-miterlimit:4;stroke-opacity:1;stroke-dasharray:none;marker-start:none"
     d="m 53.838419,35.129947 -0.756,-6.382 0.18,0.262 2.456,1.176 0.762,-0.131 0.406,-0.167 1.072,0.253 0.112,0.085 -0.427,0.063 0.347,2.479 0.378,2.984 -1.086,0.136 -3.322,0.36 -0.122,-1.118"
     id="Cheboygan"
     inkscape:connector-curvature="0" />
  <path
     style="font-size:12px;fill:#d0d0d0;fill-rule:nonzero;stroke:#000000;stroke-width:1;stroke-linecap:butt;stroke-linejoin:bevel;stroke-miterlimit:4;stroke-opacity:1;stroke-dasharray:none;marker-start:none"
     d="m 53.838419,35.129947 -2.095,0.221 -0.46,-0.004 -0.631,-0.83 0.454,-0.072 0.555,-0.184 0.365,-0.267 0.018,-0.126 -0.012,-0.09 -0.042,-0.099 -0.062,-0.045 -0.541,-0.037 -0.081,0.064 -0.468,-0.095 -0.295,-0.257 -0.192,-0.207 -0.258,-0.549 -0.08,-0.222 -0.082,-0.374 0,-0.081 0.046,-0.144 0.27,-0.595 0.104,-0.144 0.951,-1.028 1.239,-0.627 0.091,-0.076 0.45,-0.514 0.756,6.382"
     id="Emmet"
     inkscape:connector-curvature="0" />
  <path
     style="font-size:12px;fill:#d0d0d0;fill-rule:nonzero;stroke:#000000;stroke-width:1;stroke-linecap:butt;stroke-linejoin:bevel;stroke-miterlimit:4;stroke-opacity:1;stroke-dasharray:none;marker-start:none"
     d="m 42.296419,24.051947 5.589,-0.631 1.109,-0.131 0.135,1.118 6.675,-0.793 1.05,0.996 0.32,0.996 1.136,0.031 -1.889,0.519 -1.893,-0.411 -1.744,0.988 -2.56,-0.541 -1.091,-0.329 -1.902,-0.388 -0.694,-0.036 -0.136,0.009 -0.643,0.135 -0.109,0.041 -0.077,0.054 -0.152,0.167 -0.496,0.693 -0.091,0.294 -0.283,0.482 -0.072,0.094 -0.289,0.118 -1.528,0.058 -0.365,-3.533"
     id="Mackinac"
     inkscape:connector-curvature="0" />
  <path
     style="font-size:12px;fill:#d0d0d0;fill-rule:nonzero;stroke:#000000;stroke-width:1;stroke-linecap:butt;stroke-linejoin:bevel;stroke-miterlimit:4;stroke-opacity:1;stroke-dasharray:none;marker-start:none"
     d="m 61.239419,24.966947 0.045,-0.045 0.076,-0.194 -0.017,-0.176 -0.113,-0.239 -0.211,-0.04 -0.167,-0.194 -0.154,-0.375 0.064,-0.071 0.032,-0.005 1.59,-0.144 0.086,0.009 0.415,0.112 1.053,1.073 0.074,0.09 0.013,0.05 -0.239,0.748 -0.05,0.081 -0.072,0.073 -0.31,0.121 -1.529,-0.004 -0.289,-0.208 -0.13,-0.171 -0.148,-0.167 -0.019,-0.189 0,-0.135 m -13.354,-1.546 -0.739,-6.517 0.558,-0.167 1.213,-0.099 0.302,0.383 -0.09,0.216 -0.041,0.198 -0.004,0.162 0.004,2.047 0.026,0.153 0.06,0.131 0.166,0.189 0.082,0.054 0.095,0.032 1.703,0.261 1.948,-0.396 1.393,-0.586 0.202,-0.18 1.947,-0.745 0.491,0.037 0.094,0.013 0.122,0.149 0.077,0.167 -0.031,1.713 0.014,2.464 1.09,1.087 0.392,0.374 0.379,0.239 0.852,0.329 0.206,0.031 0.109,0.356 -0.077,0.289 -1.222,-0.031 -0.662,-0.023 -0.144,-0.059 -0.09,-0.054 -1.136,-0.031 -0.32,-0.996 -1.05,-0.996 -6.675,0.793 -0.135,-1.118 -1.109,0.131"
     id="Chippewa"
     inkscape:connector-curvature="0" />
  <path
     style="font-size:12px;fill:#d0d0d0;fill-rule:nonzero;stroke:#000000;stroke-width:1;stroke-linecap:butt;stroke-linejoin:bevel;stroke-miterlimit:4;stroke-opacity:1;stroke-dasharray:none;marker-start:none"
     d="m 41.940419,20.720947 -0.238,-2.366 0.616,0.049 0.398,0.005 1.451,-0.122 0.396,-0.04 0.289,-0.054 0.24,-0.086 0.944,-0.536 1.11,-0.667 0.739,6.517 -5.589,0.631 -0.356,-3.331"
     id="Luce"
     inkscape:connector-curvature="0" />
  <path
     style="font-size:12px;fill:#d0d0d0;fill-rule:nonzero;stroke:#000000;stroke-width:1;stroke-linecap:butt;stroke-linejoin:bevel;stroke-miterlimit:4;stroke-opacity:1;stroke-dasharray:none;marker-start:none"
     d="m 41.940419,20.720947 0.356,3.331 0.365,3.533 -0.477,0.311 -1.357,-0.076 -0.208,0.005 -0.906,0.139 -0.207,0.076 -0.495,0.271 -0.302,0.379 -0.063,0.121 -0.005,0.703 -0.099,0.708 -0.099,0.113 -0.645,0.446 -0.14,0.063 -0.036,-0.009 -0.171,-1.771 -0.298,-1.1 -0.32,-2.226 -1.122,0.099 -0.221,-2.232 2.232,-0.202 -0.221,-2.231 4.439,-0.451"
     id="Schoolcraft"
     inkscape:connector-curvature="0" />
  <path
     style="font-size:12px;fill:#d0d0d0;fill-rule:nonzero;stroke:#000000;stroke-width:1;stroke-linecap:butt;stroke-linejoin:bevel;stroke-miterlimit:4;stroke-opacity:1;stroke-dasharray:none;marker-start:none"
     d="m 41.940419,20.720947 -4.439,0.451 0.221,2.231 -2.232,0.202 0.221,2.232 -4.471,0.432 -0.405,-4.308 0.324,-0.289 0.509,-0.284 0.077,0.004 0.288,0.05 0.126,0.117 0.195,0.397 0.612,0.496 0.082,0.049 0.229,0.018 2.308,-0.604 1.613,-1.451 1.677,-1.347 2.294,-0.636 0.533,-0.126 0.238,2.366"
     id="Alger"
     inkscape:connector-curvature="0" />
  <path
     style="font-size:12px;fill:#d0d0d0;fill-rule:nonzero;stroke:#000000;stroke-width:1;stroke-linecap:butt;stroke-linejoin:bevel;stroke-miterlimit:4;stroke-opacity:1;stroke-dasharray:none;marker-start:none"
     d="m 31.240419,26.268947 4.471,-0.432 1.122,-0.099 0.32,2.226 0.298,1.1 0.171,1.771 -0.487,0.122 -0.261,-1.28 -2.227,0.978 -1.654,0.694 -0.103,-0.496 -0.086,-0.23 -0.176,-0.257 -0.131,-0.077 -0.112,0.032 -0.072,0.045 -0.094,0.167 -1.362,3.146 -0.216,0.496 -0.005,0.018 -0.572,0.054 -0.392,-4.467 -0.279,-0.351 -0.199,-0.726 1.118,-0.099 -0.194,-2.231 1.122,-0.104"
     id="Delta"
     inkscape:connector-curvature="0" />
  <path
     style="font-size:12px;fill:#d0d0d0;fill-rule:nonzero;stroke:#000000;stroke-width:1;stroke-linecap:butt;stroke-linejoin:bevel;stroke-miterlimit:4;stroke-opacity:1;stroke-dasharray:none;marker-start:none"
     d="m 26.959419,28.891947 2.235,-0.189 0.199,0.726 0.279,0.351 0.392,4.467 0.572,-0.054 -0.166,0.649 -0.288,0.928 -0.826,1.871 -0.585,0.946 -0.56,1.722 -0.41,-0.064 -0.234,-0.04 -0.009,-0.004 -0.712,-0.753 -0.041,-0.068 -0.08,-0.265 -0.005,-0.009 -0.798,-3.836 -0.09,-2.326 -0.27,-0.333 -0.023,-0.022 -0.014,-0.01 -0.171,-0.139 1.18,-0.109 -0.192,-2.253 0.712,-0.064 -0.095,-1.122"
     id="Menominee"
     inkscape:connector-curvature="0" />
  <path
     style="font-size:12px;fill:#d0d0d0;fill-rule:nonzero;stroke:#000000;stroke-width:1;stroke-linecap:butt;stroke-linejoin:bevel;stroke-miterlimit:4;stroke-opacity:1;stroke-dasharray:none;marker-start:none"
     d="m 22.194419,25.935947 4.476,-0.388 0.289,3.344 0.095,1.122 -0.712,0.064 0.192,2.253 -1.18,0.109 -2.131,-0.573 -0.122,0.018 -0.009,-0.004 -0.122,-0.032 -0.076,-0.018 -0.344,-0.279 -0.009,-0.005 -0.058,-0.113 0.013,-0.045 0.005,-0.009 0.158,-0.202 0.063,-0.05 0.144,-0.203 0.126,-0.216 -0.013,-0.045 -0.028,-0.041 -0.265,-0.379 -0.139,-0.089 -0.353,-4.219"
     id="Dickinson"
     inkscape:connector-curvature="0" />
  <path
     style="font-size:12px;fill:#d0d0d0;fill-rule:nonzero;stroke:#000000;stroke-width:1;stroke-linecap:butt;stroke-linejoin:bevel;stroke-miterlimit:4;stroke-opacity:1;stroke-dasharray:none;marker-start:none"
     d="m 22.131419,17.353947 1.275,-0.072 0.795,0.208 0.283,0.081 1.393,0.753 0.369,0.342 0.077,0.378 0.094,0.284 1.957,2.484 0.076,0.085 0.145,0.117 0.143,0.068 0.37,0.081 0.469,0.005 1.159,-0.18 0.099,-0.027 0.405,4.308 -1.122,0.104 0.194,2.231 -1.118,0.099 -2.235,0.189 -0.289,-3.344 -4.476,0.388 -0.18,-2.218 -0.266,-3.317 1.101,-0.104 -0.091,-1.086 -0.022,-0.009 -0.451,0.032 -0.154,-1.88"
     id="Marquette"
     inkscape:connector-curvature="0" />
  <path
     style="font-size:12px;fill:#d0d0d0;fill-rule:nonzero;stroke:#000000;stroke-width:1;stroke-linecap:butt;stroke-linejoin:bevel;stroke-miterlimit:4;stroke-opacity:1;stroke-dasharray:none;marker-start:none"
     d="m 16.998419,24.114947 5.016,-0.397 0.18,2.218 0.353,4.219 -0.212,-0.141 -0.343,-0.166 -0.224,-0.036 -0.02,-0.005 -2.623,-0.329 -1.577,0.167 -0.185,-0.329 -2.289,-0.586 -0.546,-0.266 -0.22,-3.028 -0.086,-1.109 2.776,-0.212"
     id="Iron"
     inkscape:connector-curvature="0" />
  <path
     style="font-size:12px;fill:#d0d0d0;fill-rule:nonzero;stroke:#000000;stroke-width:1;stroke-linecap:butt;stroke-linejoin:bevel;stroke-miterlimit:4;stroke-opacity:1;stroke-dasharray:none;marker-start:none"
     d="m 15.281419,2.4359469 0.064,-0.122 0.016,-0.031 0.136,-0.163 0.36,-0.23 0.559,-0.301 1.063,-0.289 0.05,0.13 -0.004,0.127 -1.275,1.537 -0.739,0.662 -1.989,1.695 -1.793,0.933 -0.288,0.081 -0.294,-0.077 -0.405,-0.229 -0.203,-0.298 0.064,-0.162 0.26,-0.343 0.289,-0.293 0.7,-0.473 0.846,-0.504 1.92,-1.204 0.663,-0.446 m 2.33,10.4790001 0.414,-0.731 0.326,-0.428 0.243,-0.189 1.441,-0.942 0.302,-0.139 1.226,-0.338 0.533,-0.091 0.436,-0.027 1.127,-0.027 0.405,0.127 0.24,0.13 0.139,0.104 0.086,0.428 -0.008,0.063 -0.889,0.289 -0.104,-0.009 -1.198,0.252 -1.321,1.848 -0.247,0.32 -0.555,0.257 -0.622,0.054 -0.095,-1.104 -1.879,0.153"
     id="Keweenaw"
     inkscape:connector-curvature="0" />
  <path
     style="font-size:12px;fill:#d0d0d0;fill-rule:nonzero;stroke:#000000;stroke-width:1;stroke-linecap:butt;stroke-linejoin:bevel;stroke-miterlimit:4;stroke-opacity:1;stroke-dasharray:none;marker-start:none"
     d="m 17.611419,12.914947 1.879,-0.153 0.095,1.104 0.622,-0.054 -1.686,3.389 -0.91,0.185 -1.033,1.199 0.42,5.53 -2.776,0.212 -0.14,-1.884 -0.089,-1.456 1.108,-0.072 -0.078,-1.095 -0.608,0.045 -0.261,-3.421 0.207,-0.712 0.117,-0.194 0.614,-0.572 0.955,-0.889 0.224,-0.202 1.34,-0.96"
     id="Houghton"
     inkscape:connector-curvature="0" />
  <path
     style="font-size:12px;fill:#d0d0d0;fill-rule:nonzero;stroke:#000000;stroke-width:1;stroke-linecap:butt;stroke-linejoin:bevel;stroke-miterlimit:4;stroke-opacity:1;stroke-dasharray:none;marker-start:none"
     d="m 22.131419,17.353947 0.154,1.88 0.451,-0.032 0.022,0.009 0.091,1.086 -1.101,0.104 0.266,3.317 -5.016,0.397 -0.42,-5.53 1.033,-1.199 0.91,-0.185 -0.179,0.802 -0.015,0.699 0.015,0.072 0.102,0.248 0.118,0.243 0.211,-0.018 0.032,-0.09 0.149,-0.248 0.433,-0.604 0.956,-1.023 0.752,-0.518 0.099,-0.032 0.099,0.05 0.838,0.572"
     id="Baraga"
     inkscape:connector-curvature="0" />
</svg>
