<?xml version="1.0" encoding="UTF-8" standalone="no"?>
<!-- Created with Inkscape (http://www.inkscape.org/) -->

<svg
   xmlns:dc="http://purl.org/dc/elements/1.1/"
   xmlns:cc="http://creativecommons.org/ns#"
   xmlns:rdf="http://www.w3.org/1999/02/22-rdf-syntax-ns#"
   xmlns:svg="http://www.w3.org/2000/svg"
   xmlns="http://www.w3.org/2000/svg"
   xmlns:sodipodi="http://sodipodi.sourceforge.net/DTD/sodipodi-0.dtd"
   xmlns:inkscape="http://www.inkscape.org/namespaces/inkscape"
   version="1.0"
   width="84.470001"
   height="48.330002"
   sodipodi:version="0.32"
   inkscape:version="0.48.2 r9819"
   sodipodi:docname="va.svg"
   inkscape:output_extension="org.inkscape.output.svg.inkscape"
   id="svg3127">
  <metadata
     id="metadata3129">
    <rdf:RDF>
      <cc:Work
         rdf:about="">
        <dc:format>image/svg+xml</dc:format>
        <dc:type
           rdf:resource="http://purl.org/dc/dcmitype/StillImage" />
      </cc:Work>
    </rdf:RDF>
  </metadata>
  <defs
     id="defs3131" />
  <sodipodi:namedview
     pagecolor="#ffffff"
     bordercolor="#666666"
     borderopacity="1"
     objecttolerance="10"
     gridtolerance="10"
     guidetolerance="10"
     inkscape:pageopacity="0"
     inkscape:pageshadow="2"
     inkscape:window-width="1366"
     inkscape:window-height="716"
     fit-margin-top="0"
     fit-margin-left="0"
     fit-margin-right="0"
     fit-margin-bottom="0"
     inkscape:zoom="6.4335112"
     inkscape:cx="38.957601"
     inkscape:cy="17.76589"
     inkscape:window-x="-8"
     inkscape:window-y="-8"
     inkscape:window-maximized="1"
     inkscape:current-layer="svg3127"
     id="namedview3133"
     showgrid="false" />
  <path
     style="font-size:12px;fill:#d0d0d0;fill-opacity:1;fill-rule:nonzero;stroke:#000000;stroke-width:1;stroke-linecap:butt;stroke-linejoin:bevel;stroke-miterlimit:4;stroke-opacity:1;stroke-dasharray:none;marker-start:none"
     d="m 78.821553,15.007566 3.672,-1.249 -0.347,0.984 -0.789,1.297 -0.279,0.055 -0.082,0.058 -0.026,0.032 -0.032,0.035 -0.063,0.077 -0.04,0.064 -0.041,0.063 -0.037,0.058 -0.139,0.289 -0.18,0.476 -0.298,1.362 -0.035,0.248 -0.258,2.872 0.041,0.112 -0.514,0.23 -0.883,0.068 -0.068,-0.046 -0.041,-0.095 0.014,-0.031 0.059,-0.041 0.081,-0.135 -0.053,-0.523 -0.569,-0.23 -0.975,0.29 -0.058,-0.109 -0.012,-0.068 0.062,-0.495 0.091,-0.321 0.672,-2.001 0.468,-0.689 0.162,-0.217 0.047,-0.094 0.17,-0.506 0.008,-0.157 -0.058,-1.018 0.33,-0.645"
     id="Accomack"
     inkscape:connector-curvature="0" />
  <path
     style="font-size:12px;fill:#d0d0d0;fill-opacity:1;fill-rule:nonzero;stroke:#000000;stroke-width:1;stroke-linecap:butt;stroke-linejoin:bevel;stroke-miterlimit:4;stroke-opacity:1;stroke-dasharray:none;marker-start:none"
     d="m 76.939553,21.327566 0.975,-0.29 0.569,0.23 0.053,0.523 -0.081,0.135 -0.059,0.041 -0.014,0.031 0.041,0.095 0.068,0.046 0.883,-0.068 0.514,-0.23 0.049,0.094 0.005,0.212 -0.677,3.362 -0.102,0.19 -0.113,0.199 -0.003,0.013 -0.443,0.685 -0.015,0.027 -0.073,0.098 -0.08,0.072 -0.057,0 -0.614,-0.053 -0.64,-0.879 -0.266,-0.635 -0.062,-0.406 -0.032,-0.378 0.004,-0.185 0.049,-1.371 0.045,-0.888 0.032,-0.293 0.044,-0.377"
     id="Northampton"
     inkscape:connector-curvature="0" />
  <path
     style="font-size:12px;fill:#d0d0d0;fill-rule:nonzero;stroke:#000000;stroke-width:1;stroke-linecap:butt;stroke-linejoin:bevel;stroke-miterlimit:4;stroke-opacity:1;stroke-dasharray:none;marker-start:none"
     d="m 16.740553,32.395566 0.455,0.271 -0.141,0.063 -0.455,0.41 -0.027,0.086 0.072,0.193 0.87,1.235 0.848,0.739 0.004,0 0.117,0.06 1.146,0.414 -0.2,0.554 -1,0.645 -0.257,0.31 -0.91,0.398 -0.112,0.085 -0.068,0.212 -0.018,0.176 0.004,0.292 -0.09,0.154 -0.383,0.275 -0.654,0.09 -0.076,-0.014 -2.087,-3.088 2.962,-3.56"
     id="Buchanan"
     inkscape:connector-curvature="0" />
  <path
     style="font-size:12px;fill:#d0d0d0;fill-rule:nonzero;stroke:#000000;stroke-width:1;stroke-linecap:butt;stroke-linejoin:bevel;stroke-miterlimit:4;stroke-opacity:1;stroke-dasharray:none;marker-start:none"
     d="m 23.224553,34.040566 1.582,1.105 -0.265,0.855 -1.131,1.695 -0.293,0.672 -0.767,0.225 -0.603,0.257 -1.2,0.532 -0.797,0.176 -1.578,-2.182 0.257,-0.31 1,-0.645 0.2,-0.554 0.675,0.401 1.181,-0.234 0.032,-0.018 0.442,-0.406 0.008,-0.009 0.883,-0.808 0.374,-0.752"
     id="Tazewell"
     inkscape:connector-curvature="0" />
  <path
     style="font-size:12px;fill:#d0d0d0;fill-rule:nonzero;stroke:#000000;stroke-width:1;stroke-linecap:butt;stroke-linejoin:bevel;stroke-miterlimit:4;stroke-opacity:1;stroke-dasharray:none;marker-start:none"
     d="m 23.815553,39.017566 1.573,2.244 -3.244,2.136 -0.127,0.082 -1.118,-1.875 -1.663,-1.582 0.514,-0.465 0.797,-0.176 1.2,-0.532 0.603,-0.257 0.767,-0.225 0.698,0.65"
     id="Smyth"
     inkscape:connector-curvature="0" />
  <path
     style="font-size:12px;fill:#d0d0d0;fill-rule:nonzero;stroke:#000000;stroke-width:1;stroke-linecap:butt;stroke-linejoin:bevel;stroke-miterlimit:4;stroke-opacity:1;stroke-dasharray:none;marker-start:none"
     d="m 16.735553,44.785566 -0.992,0.135 0.509,-1.022 0.337,-0.203 0.263,-0.018 0.171,0.081 0.081,0.252 -0.022,0.279 -0.347,0.496"
     id="Bristol"
     inkscape:connector-curvature="0" />
  <path
     style="font-size:12px;fill:#d0d0d0;fill-rule:nonzero;stroke:#000000;stroke-width:1;stroke-linecap:butt;stroke-linejoin:bevel;stroke-miterlimit:4;stroke-opacity:1;stroke-dasharray:none;marker-start:none"
     d="m 19.236553,40.022566 1.663,1.582 1.118,1.875 0.127,-0.082 -0.366,0.41 -1.834,0.248 -0.979,0.117 -0.072,0.302 -2.158,0.311 0.347,-0.496 0.022,-0.279 -0.081,-0.252 -0.171,-0.081 -0.263,0.018 -0.337,0.203 -0.509,1.022 -0.513,0.077 -0.601,-1.41 1.988,-1.826 1.497,-0.735 1.122,-1.004"
     id="Washington"
     inkscape:connector-curvature="0" />
  <path
     style="font-size:12px;fill:#d0d0d0;fill-rule:nonzero;stroke:#000000;stroke-width:1;stroke-linecap:butt;stroke-linejoin:bevel;stroke-miterlimit:4;stroke-opacity:1;stroke-dasharray:none;marker-start:none"
     d="m 18.172553,37.375566 1.578,2.182 -0.514,0.465 -1.122,1.004 -1.497,0.735 -1.988,1.826 -1.067,-2.038 0.622,-1.329 1.681,-1.177 0.076,0.014 0.654,-0.09 0.383,-0.275 0.09,-0.154 -0.004,-0.292 0.018,-0.176 0.068,-0.212 0.112,-0.085 0.91,-0.398"
     id="Russell"
     inkscape:connector-curvature="0" />
  <path
     style="font-size:12px;fill:#d0d0d0;fill-rule:nonzero;stroke:#000000;stroke-width:1;stroke-linecap:butt;stroke-linejoin:bevel;stroke-miterlimit:4;stroke-opacity:1;stroke-dasharray:none;marker-start:none"
     d="m 11.294553,40.477566 0.014,-0.09 0.199,0.099 0.094,0.093 0.019,0.271 -0.231,0.497 -0.356,0.104 -0.306,-0.267 0.037,-0.226 0.174,-0.319 0.231,-0.145 0.125,-0.017"
     id="Norton"
     inkscape:connector-curvature="0" />
  <path
     style="font-size:12px;fill:#d0d0d0;fill-rule:nonzero;stroke:#000000;stroke-width:1;stroke-linecap:butt;stroke-linejoin:bevel;stroke-miterlimit:4;stroke-opacity:1;stroke-dasharray:none;marker-start:none"
     d="m 11.480553,37.587566 0.211,0.964 0.784,1.001 0.203,0.213 1.186,0.698 0.153,-0.072 0.167,-0.171 -0.622,1.329 -1.433,0.127 -0.712,0.121 -0.168,0.055 -1.077,0.766 -0.171,0.301 0,0.14 -1.3430002,-1.128 0.041,-0.977 2.6680002,-3.29 0.113,-0.077 z m -0.186,2.89 -0.125,0.017 -0.231,0.145 -0.174,0.319 -0.037,0.226 0.306,0.267 0.356,-0.104 0.231,-0.497 -0.019,-0.271 -0.094,-0.093 -0.199,-0.099 -0.014,0.09"
     id="Wise"
     inkscape:connector-curvature="0" />
  <path
     style="font-size:12px;fill:#d0d0d0;fill-rule:nonzero;stroke:#000000;stroke-width:1;stroke-linecap:butt;stroke-linejoin:bevel;stroke-miterlimit:4;stroke-opacity:1;stroke-dasharray:none;marker-start:none"
     d="m 13.778553,35.955566 2.087,3.088 -1.681,1.177 -0.167,0.171 -0.153,0.072 -1.186,-0.698 -0.203,-0.213 -0.784,-1.001 -0.211,-0.964 0.396,-0.284 1.523,-0.859 0.379,-0.489"
     id="Dickenson"
     inkscape:connector-curvature="0" />
  <path
     style="font-size:12px;fill:#d0d0d0;fill-rule:nonzero;stroke:#000000;stroke-width:1;stroke-linecap:butt;stroke-linejoin:bevel;stroke-miterlimit:4;stroke-opacity:1;stroke-dasharray:none;marker-start:none"
     d="m 10.001553,43.059566 0,-0.14 0.171,-0.301 1.077,-0.766 0.168,-0.055 0.712,-0.121 1.433,-0.127 1.067,2.038 0.601,1.41 -3.205,0.478 -2.2540002,0.32 -1.573,0.216 0.234,-1.104 0.402,-0.365 1.1670002,-1.483"
     id="Scott"
     inkscape:connector-curvature="0" />
  <path
     style="font-size:12px;fill:#d0d0d0;fill-rule:nonzero;stroke:#000000;stroke-width:1;stroke-linecap:butt;stroke-linejoin:bevel;stroke-miterlimit:4;stroke-opacity:1;stroke-dasharray:none;marker-start:none"
     d="m 10.001553,43.059566 -1.1670002,1.483 -0.402,0.365 -0.234,1.104 -4.971,0.627 -2.077,0.23 2.077,-1.114 1.036,-0.554 2.141,-1.212 2.042,-1.686 0.212,-0.371 1.3430002,1.128"
     id="Lee"
     inkscape:connector-curvature="0" />
  <path
     style="font-size:12px;fill:#d0d0d0;fill-rule:nonzero;stroke:#000000;stroke-width:1;stroke-linecap:butt;stroke-linejoin:bevel;stroke-miterlimit:4;stroke-opacity:1;stroke-dasharray:none;marker-start:none"
     d="m 24.806553,35.145566 2.354,-1.136 1.559,1.668 -0.432,1.045 -1.181,0.56 -0.852,0.324 -1.064,-0.059 -0.566,0.469 -0.809,1.001 -0.698,-0.65 0.293,-0.672 1.131,-1.695 0.265,-0.855"
     id="Bland"
     inkscape:connector-curvature="0" />
  <path
     style="font-size:12px;fill:#d0d0d0;fill-rule:nonzero;stroke:#000000;stroke-width:1;stroke-linecap:butt;stroke-linejoin:bevel;stroke-miterlimit:4;stroke-opacity:1;stroke-dasharray:none;marker-start:none"
     d="m 27.520553,40.355566 1.222,1.375 -0.069,0.09 -0.036,0.22 0.015,0.14 0.062,0.117 0.271,0.329 0.203,-0.049 0.095,-0.113 -0.014,-0.167 0.834,0.902 -0.654,0.068 -4.615,0.559 -3.322,0.334 0.266,-0.353 0.366,-0.41 3.244,-2.136 2.132,-0.906"
     id="Grayson"
     inkscape:connector-curvature="0" />
  <path
     style="font-size:12px;fill:#d0d0d0;fill-rule:nonzero;stroke:#000000;stroke-width:1;stroke-linecap:butt;stroke-linejoin:bevel;stroke-miterlimit:4;stroke-opacity:1;stroke-dasharray:none;marker-start:none"
     d="m 28.742553,41.730566 0.004,-0.005 0.091,-0.081 0.108,-0.149 0.328,-0.085 0.312,0.053 -0.131,0.375 -0.195,0.342 0.01,0.117 0.014,0.167 -0.095,0.113 -0.203,0.049 -0.271,-0.329 -0.062,-0.117 -0.015,-0.14 0.036,-0.22 0.069,-0.09"
     id="Galax"
     inkscape:connector-curvature="0" />
  <path
     style="font-size:12px;fill:#d0d0d0;fill-opacity:1;fill-rule:nonzero;stroke:#000000;stroke-width:1;stroke-linecap:butt;stroke-linejoin:bevel;stroke-miterlimit:4;stroke-opacity:1;stroke-dasharray:none;marker-start:none"
     d="m 30.427553,38.935566 -2.907,1.42 -2.132,0.906 -1.573,-2.244 0.809,-1.001 0.566,-0.469 1.064,0.059 0.852,-0.324 1.181,-0.56 2.14,2.213"
     id="Wythe"
     inkscape:connector-curvature="0" />
  <path
     style="font-size:12px;fill:#d0d0d0;fill-rule:nonzero;stroke:#000000;stroke-width:1;stroke-linecap:butt;stroke-linejoin:bevel;stroke-miterlimit:4;stroke-opacity:1;stroke-dasharray:none;marker-start:none"
     d="m 28.101553,32.079566 1.001,0.573 1.253,-0.941 0.104,-0.082 1.014,-0.802 0.483,0.694 0.653,1.316 -1.6,1.186 -2.29,1.654 -1.559,-1.668 0.929,-1.948 0.012,0.018"
     id="Giles"
     inkscape:connector-curvature="0" />
  <path
     style="font-size:12px;fill:#d0d0d0;fill-opacity:1;fill-rule:nonzero;stroke:#000000;stroke-width:1;stroke-linecap:butt;stroke-linejoin:bevel;stroke-miterlimit:4;stroke-opacity:1;stroke-dasharray:none;marker-start:none"
     d="m 31.653553,36.078566 -0.059,0.049 -0.21,-0.229 -0.087,-0.163 -0.041,-0.148 0.037,-0.145 0.204,-0.216 0.215,-0.145 0.099,-0.017 0.09,-0.014 0.08,-0.026 0.087,-0.069 0.211,0.054 0.091,0.244 -0.081,0.154 -0.384,0.476 -0.252,0.195"
     id="Radford"
     inkscape:connector-curvature="0" />
  <path
     style="font-size:12px;fill:#d0d0d0;fill-opacity:1;fill-rule:nonzero;stroke:#000000;stroke-width:1;stroke-linecap:butt;stroke-linejoin:bevel;stroke-miterlimit:4;stroke-opacity:1;stroke-dasharray:none;marker-start:none"
     d="m 31.009553,34.023566 0.802,1.041 -0.099,0.017 -0.215,0.145 -0.204,0.216 -0.037,0.145 0.041,0.148 0.087,0.163 0.21,0.229 0.059,-0.049 0.536,1.18 -0.797,0.825 -0.965,0.852 -2.14,-2.213 0.432,-1.045 2.29,-1.654"
     id="Pulaski"
     inkscape:connector-curvature="0" />
  <path
     style="font-size:12px;fill:#d0d0d0;fill-rule:nonzero;stroke:#000000;stroke-width:1;stroke-linecap:butt;stroke-linejoin:bevel;stroke-miterlimit:4;stroke-opacity:1;stroke-dasharray:none;marker-start:none"
     d="m 61.373553,7.1065664 -0.604,0.293 -0.343,-0.447 0.343,-0.279 0.072,0.05 0.532,0.383"
     id="Falls Church"
     inkscape:connector-curvature="0" />
  <path
     style="font-size:12px;fill:#d0d0d0;fill-rule:nonzero;stroke:#000000;stroke-width:1;stroke-linecap:butt;stroke-linejoin:bevel;stroke-miterlimit:4;stroke-opacity:1;stroke-dasharray:none;marker-start:none"
     d="m 61.638553,6.1195664 0.375,0.306 0.451,0.198 0.265,0.515 -0.765,0.116 -0.104,0.204 -0.487,-0.352 -0.532,-0.383 -0.072,-0.05 -0.023,-0.017 0.892,-0.537"
     id="Arlington"
     inkscape:connector-curvature="0" />
  <path
     style="font-size:12px;fill:#d0d0d0;fill-opacity:1;fill-rule:nonzero;stroke:#000000;stroke-width:1;stroke-linecap:butt;stroke-linejoin:bevel;stroke-miterlimit:4;stroke-opacity:1;stroke-dasharray:none;marker-start:none"
     d="m 31.392553,38.083566 2.186,2.578 -0.321,0.798 -0.162,0.13 -0.144,0.069 -0.081,-0.014 -0.347,-0.193 -0.117,0.008 -0.055,0.028 -0.138,0.517 -0.046,0.236 0.231,0.598 -2.295,0.361 -0.834,-0.902 -0.01,-0.117 0.195,-0.342 0.131,-0.375 -0.312,-0.053 -0.328,0.085 -0.108,0.149 -0.091,0.081 -0.004,0.005 -1.222,-1.375 2.907,-1.42 0.965,-0.852"
     id="Carroll"
     inkscape:connector-curvature="0" />
  <path
     style="font-size:12px;fill:#d0d0d0;fill-rule:nonzero;stroke:#000000;stroke-width:1;stroke-linecap:butt;stroke-linejoin:bevel;stroke-miterlimit:4;stroke-opacity:1;stroke-dasharray:none;marker-start:none"
     d="m 41.533553,41.517566 -3.169,0.533 -0.266,0.045 -0.113,-0.861 -0.185,-0.568 -0.076,-0.135 -0.153,-0.166 -0.266,-0.492 -0.134,-0.699 0,-0.045 0.112,-0.131 0.391,-0.149 0.667,-0.513 1.759,0.126 0.527,-0.185 0.96,-0.914 -0.054,4.154 z m -2.11,-1.996 -0.045,0.044 -0.211,0.487 0.193,0.186 0.641,0.329 0.22,-0.122 0.049,-0.23 -0.247,-0.663 -0.526,-0.103 -0.074,0.072"
     id="Henry"
     inkscape:connector-curvature="0" />
  <path
     style="font-size:12px;fill:#d0d0d0;fill-rule:nonzero;stroke:#000000;stroke-width:1;stroke-linecap:butt;stroke-linejoin:bevel;stroke-miterlimit:4;stroke-opacity:1;stroke-dasharray:none;marker-start:none"
     d="m 35.547553,38.183566 2.127,0.666 -0.391,0.149 -0.112,0.131 0,0.045 0.134,0.699 0.266,0.492 0.153,0.166 0.076,0.135 0.185,0.568 0.113,0.861 -3.938,0.554 -1.762,0.189 -0.231,-0.598 0.046,-0.236 0.138,-0.517 0.055,-0.028 0.117,-0.008 0.347,0.193 0.081,0.014 0.144,-0.069 0.162,-0.13 0.321,-0.798 1.969,-2.478"
     id="Patrick"
     inkscape:connector-curvature="0" />
  <path
     style="font-size:12px;fill:#d0d0d0;fill-rule:nonzero;stroke:#000000;stroke-width:1;stroke-linecap:butt;stroke-linejoin:bevel;stroke-miterlimit:4;stroke-opacity:1;stroke-dasharray:none;marker-start:none"
     d="m 36.089553,34.784566 -0.542,3.399 -1.969,2.478 -2.186,-2.578 0.797,-0.825 0.708,-0.224 0.757,-0.348 0.455,-0.27 0.027,-0.078 0.479,-0.724 0.991,-0.623 0.483,-0.207"
     id="Floyd"
     inkscape:connector-curvature="0" />
  <path
     style="font-size:12px;fill:#d0d0d0;fill-opacity:1;fill-rule:nonzero;stroke:#000000;stroke-width:1;stroke-linecap:butt;stroke-linejoin:bevel;stroke-miterlimit:4;stroke-opacity:1;stroke-dasharray:none;marker-start:none"
     d="m 34.271553,32.220566 0.353,0.657 0.594,0.61 0.361,1.288 0.027,0.216 -0.991,0.623 -0.479,0.724 -0.027,0.078 -0.455,0.27 -0.757,0.348 -0.708,0.224 -0.536,-1.18 0.252,-0.195 0.384,-0.476 0.081,-0.154 -0.091,-0.244 -0.211,-0.054 -0.087,0.069 -0.08,0.026 -0.09,0.014 -0.802,-1.041 1.6,-1.186 1.662,-0.617"
     id="Montgomery"
     inkscape:connector-curvature="0" />
  <path
     style="font-size:12px;fill:#d0d0d0;fill-opacity:1;fill-rule:nonzero;stroke:#000000;stroke-width:1;stroke-linecap:butt;stroke-linejoin:bevel;stroke-miterlimit:4;stroke-opacity:1;stroke-dasharray:none;marker-start:none"
     d="m 36.778553,32.179566 -0.027,0.059 -0.009,0.594 0.085,0.149 -0.666,-0.019 -0.06,-0.657 0.677,-0.126"
     id="Salem"
     inkscape:connector-curvature="0" />
  <path
     style="font-size:12px;fill:#d0d0d0;fill-rule:nonzero;stroke:#000000;stroke-width:1;stroke-linecap:butt;stroke-linejoin:bevel;stroke-miterlimit:4;stroke-opacity:1;stroke-dasharray:none;marker-start:none"
     d="m 38.689553,32.990566 2.952,1.907 -0.054,2.466 -0.96,0.914 -0.527,0.185 -1.759,-0.126 -0.667,0.513 -2.127,-0.666 0.542,-3.399 0.784,-0.725 0.621,0.229 0.225,0.037 0.081,-0.045 0.353,-0.402 0.536,-0.888"
     id="Franklin Co."
     inkscape:connector-curvature="0" />
  <path
     style="font-size:12px;fill:#d0d0d0;fill-opacity:1;fill-rule:nonzero;stroke:#000000;stroke-width:1;stroke-linecap:butt;stroke-linejoin:bevel;stroke-miterlimit:4;stroke-opacity:1;stroke-dasharray:none;marker-start:none"
     d="m 35.984553,30.855566 2.516,1.067 0.189,1.068 -0.536,0.888 -0.353,0.402 -0.081,0.045 -0.225,-0.037 -0.621,-0.229 -0.784,0.725 -0.483,0.207 -0.027,-0.216 -0.361,-1.288 -0.594,-0.61 -0.353,-0.657 0.096,-0.163 0.446,-0.428 0.631,-0.265 0.54,-0.509 z m 0.794,1.324 -0.677,0.126 0.06,0.657 0.666,0.019 0.032,0.059 0.743,0.306 0.092,0.005 0.179,-0.172 0.192,-0.329 0.178,-0.648 -0.05,-0.153 -0.045,-0.042 -0.248,-0.135 -0.663,-0.103 -0.437,0.365 -0.022,0.045"
     id="Roanoke Co."
     inkscape:connector-curvature="0" />
  <path
     style="font-size:12px;fill:#d0d0d0;fill-rule:nonzero;stroke:#000000;stroke-width:1;stroke-linecap:butt;stroke-linejoin:bevel;stroke-miterlimit:4;stroke-opacity:1;stroke-dasharray:none;marker-start:none"
     d="m 41.924553,27.262566 2.858,1.486 -0.766,0.232 0.302,1.311 -1.186,4.163 -1.491,0.443 -2.952,-1.907 -0.189,-1.068 0.504,-0.639 -0.149,-0.741 0.857,-1.036 0.103,-0.103 0.177,-0.055 0.076,0.023 0.145,0.109 0.185,0.188 0.342,0.023 0.049,-0.018 0.05,-0.041 0.513,-0.839 0.15,-0.346 0.422,-1.185 z m -0.527,3.569 -0.153,0 -0.013,0.244 0.226,0.244 0.152,0.062 0.424,-0.058 0.136,-0.55 -0.281,-0.181 -0.464,0.095 -0.027,0.144"
     id="Bedford Co."
     inkscape:connector-curvature="0" />
  <path
     style="font-size:12px;fill:#d0d0d0;fill-rule:nonzero;stroke:#000000;stroke-width:1;stroke-linecap:butt;stroke-linejoin:bevel;stroke-miterlimit:4;stroke-opacity:1;stroke-dasharray:none;marker-start:none"
     d="m 35.029553,24.035566 0.509,-0.194 0.672,-0.036 0.023,0.009 0.509,0.639 0.081,0.054 2.046,0.289 0.356,-0.419 0.009,1.429 -1.507,-0.238 -0.242,0.288 0.027,0.058 -0.049,0.185 -0.122,0.226 -0.347,0.531 -0.78,0.852 -0.185,0.172 -0.206,-0.054 -0.92,0.918 -0.653,-0.153 -0.181,-0.121 -0.889,-0.695 1.849,-3.74 z m 0.767,1.712 -0.017,0.69 0.138,0.131 0.18,0.117 0.333,-0.267 -0.076,-0.621 -0.049,-0.108 -0.361,-0.076 -0.148,0.134"
     id="Alleghany"
     sodipodi:nodetypes="cccccccccccccccccccccccccccccccc"
     inkscape:connector-curvature="0" />
  <path
     style="font-size:12px;fill:#d0d0d0;fill-rule:nonzero;stroke:#000000;stroke-width:1;stroke-linecap:butt;stroke-linejoin:bevel;stroke-miterlimit:4;stroke-opacity:1;stroke-dasharray:none;marker-start:none"
     d="m 36.029553,27.880566 -0.094,0.135 0.076,0.176 0.758,0.923 -0.568,1.433 -0.217,0.308 -0.54,0.509 -0.631,0.265 -0.446,0.428 -0.096,0.163 -1.662,0.617 -0.653,-1.316 0.293,-0.248 1.153,-1.019 -0.23,-0.427 0.316,-0.654 0.581,-0.703 0.181,0.121 0.653,0.153 0.92,-0.918 0.206,0.054"
     id="Craig"
     inkscape:connector-curvature="0" />
  <path
     style="font-size:12px;fill:#d0d0d0;fill-opacity:1;fill-rule:nonzero;stroke:#000000;stroke-width:1;stroke-linecap:butt;stroke-linejoin:bevel;stroke-miterlimit:4;stroke-opacity:1;stroke-dasharray:none;marker-start:none"
     d="m 39.234553,25.806566 2.268,2.641 -0.15,0.346 -0.513,0.839 -0.05,0.041 -0.049,0.018 -0.342,-0.023 -0.185,-0.188 -0.145,-0.109 -0.076,-0.023 -0.177,0.055 -0.103,0.103 -0.857,1.036 0.149,0.741 -0.504,0.639 -2.516,-1.067 0.217,-0.308 0.568,-1.433 -0.758,-0.923 -0.076,-0.176 0.094,-0.135 0.185,-0.172 0.78,-0.852 0.347,-0.531 0.122,-0.226 0.049,-0.185 -0.027,-0.058 0.242,-0.288 1.507,0.238"
     id="Botetourt"
     inkscape:connector-curvature="0" />
  <path
     style="font-size:12px;fill:#d0d0d0;fill-rule:nonzero;stroke:#000000;stroke-width:1;stroke-linecap:butt;stroke-linejoin:bevel;stroke-miterlimit:4;stroke-opacity:1;stroke-dasharray:none;marker-start:none"
     d="m 44.146553,24.413566 0.33,-0.193 0.688,0.292 0.043,0.037 1.036,0.938 0.265,0.292 0.942,1.432 0.321,-0.008 -1.235,1.708 -0.587,0.569 -1.167,-0.732 -2.858,-1.486 0.118,0 0.22,-0.181 0.317,-0.316 0.166,-0.225 0.213,-1 0.133,-0.446 0.096,-0.212 0.221,-0.365 0.098,-0.108 0.64,0.004"
     id="Amherst"
     inkscape:connector-curvature="0" />
  <path
     style="font-size:12px;fill:#d0d0d0;fill-opacity:1;fill-rule:nonzero;stroke:#000000;stroke-width:1;stroke-linecap:butt;stroke-linejoin:bevel;stroke-miterlimit:4;stroke-opacity:1;stroke-dasharray:none;marker-start:none"
     d="m 40.420553,21.335566 1.631,0.848 1.721,0.829 0.32,0.248 0.054,1.153 -0.64,-0.004 -0.098,0.108 -0.221,0.365 -0.096,0.212 -0.133,0.446 -0.213,1 -0.166,0.225 -0.317,0.316 -0.22,0.181 -0.118,0 -0.422,1.185 -2.268,-2.641 -0.009,-1.429 1.195,-3.042 z m 1.199,3.633 0.035,-0.262 -0.378,-0.086 -0.266,0.078 -0.153,0.219 0.108,0.353 0.18,0.153 0.162,-0.108 0.312,-0.347 z m 0.333,0.306 -0.162,0.081 -0.023,0.113 0.09,0.514 0.158,0.193 0.154,0.023 0.157,-0.171 0.05,-0.095 0.163,-0.55 -0.028,-0.383 -0.33,0.023 -0.229,0.234 0,0.018"
     id="Rockbridge"
     inkscape:connector-curvature="0" />
  <path
     style="font-size:12px;fill:#d0d0d0;fill-rule:nonzero;stroke:#000000;stroke-width:1;stroke-linecap:butt;stroke-linejoin:bevel;stroke-miterlimit:4;stroke-opacity:1;stroke-dasharray:none;marker-start:none"
     d="m 36.926553,19.586566 0.496,0.231 0.469,0.176 1.487,0.04 0.533,0.148 0.509,1.154 -1.195,3.042 -0.356,0.419 -2.046,-0.289 -0.081,-0.054 -0.509,-0.639 -0.023,-0.009 -0.672,0.036 -0.509,0.194 0.698,-1.591 1.199,-2.858"
     id="Bath"
     inkscape:connector-curvature="0" />
  <path
     style="font-size:12px;fill:#d0d0d0;fill-rule:nonzero;stroke:#000000;stroke-width:1;stroke-linecap:butt;stroke-linejoin:bevel;stroke-miterlimit:4;stroke-opacity:1;stroke-dasharray:none;marker-start:none"
     d="m 41.366553,16.869566 -0.086,0.126 -0.519,1.545 -0.045,0.186 0.037,0.135 -0.176,0.554 -0.666,0.766 -0.533,-0.148 -1.487,-0.04 -0.469,-0.176 -0.496,-0.231 -0.243,-0.491 0,-0.014 0.005,-0.045 0.617,-0.959 0.266,-0.947 0.05,-0.911 0.017,-1.068 0.997,0.239 0.203,0.09 0.189,0.189 0.612,0.907 1.727,0.293"
     id="Highland"
     inkscape:connector-curvature="0" />
  <path
     style="font-size:12px;fill:#d0d0d0;fill-rule:nonzero;stroke:#000000;stroke-width:1;stroke-linecap:butt;stroke-linejoin:bevel;stroke-miterlimit:4;stroke-opacity:1;stroke-dasharray:none;marker-start:none"
     d="m 49.502553,15.260566 0.198,-0.749 2.127,2.299 -0.612,1.262 -3.125,-0.649 1.412,-2.163"
     id="Greene"
     inkscape:connector-curvature="0" />
  <path
     style="font-size:12px;fill:#d0d0d0;fill-opacity:1;fill-rule:nonzero;stroke:#000000;stroke-width:1;stroke-linecap:butt;stroke-linejoin:bevel;stroke-miterlimit:4;stroke-opacity:1;stroke-dasharray:none;marker-start:none"
     d="m 43.079553,11.947566 1.843,-0.356 2.608,1.613 -0.265,1.285 0.795,0.409 0.752,0.304 0.157,0.048 0.533,0.01 -1.412,2.163 -0.685,1.068 -1.731,-0.992 -1.532,-0.644 -2.077,-0.995 1.014,-3.913 z m 2.474,3.168 -0.05,0.045 -0.239,0.469 -0.045,0.216 0.086,0.564 0.04,0.036 0.248,-0.073 0.541,-0.477 -0.004,-0.198 -0.149,-0.236 -0.428,-0.346"
     id="Rockingham"
     inkscape:connector-curvature="0" />
  <path
     style="font-size:12px;fill:#d0d0d0;fill-opacity:1;fill-rule:nonzero;stroke:#000000;stroke-width:1;stroke-linecap:butt;stroke-linejoin:bevel;stroke-miterlimit:4;stroke-opacity:1;stroke-dasharray:none;marker-start:none"
     d="m 41.366553,16.869566 0.699,-1.009 2.077,0.995 1.532,0.644 1.731,0.992 -0.063,0.361 -0.058,0.653 0.117,0.495 0,0.118 -0.136,0.239 -0.379,0.329 -0.769,1.578 -0.338,0.55 -0.776,-0.038 -0.17,0.042 -0.132,0.072 -0.609,0.37 -0.32,-0.248 -1.721,-0.829 -1.631,-0.848 -0.509,-1.154 0.666,-0.766 0.176,-0.554 -0.037,-0.135 0.045,-0.186 0.519,-1.545 0.086,-0.126 z m 3.218,2.285 -0.564,0.229 -0.067,0.212 -0.028,0.226 0.1,0.175 0.238,0.117 0.366,0.009 0.189,-0.197 0.068,-0.177 0.013,-0.265 -0.094,-0.199 -0.091,-0.13 -0.113,-0.033 -0.017,0.033 z m 1.442,0.932 -0.099,-0.014 -0.229,0.226 -0.159,0.243 0,0.06 0.063,0.153 0.343,0.148 0.437,-0.12 0.054,-0.136 0.04,-0.284 -0.004,-0.073 -0.143,-0.243 -0.264,0.013 -0.039,0.027"
     id="Augusta"
     inkscape:connector-curvature="0" />
  <path
     style="font-size:12px;fill:#d0d0d0;fill-rule:nonzero;stroke:#000000;stroke-width:1;stroke-linecap:butt;stroke-linejoin:bevel;stroke-miterlimit:4;stroke-opacity:1;stroke-dasharray:none;marker-start:none"
     d="m 46.886553,20.686566 2.683,3.664 -1.384,2.641 -0.414,0.212 -0.321,0.008 -0.942,-1.432 -0.265,-0.292 -1.036,-0.938 -0.043,-0.037 -0.688,-0.292 -0.33,0.193 -0.054,-1.153 0.609,-0.37 0.132,-0.072 0.17,-0.042 0.776,0.038 0.338,-0.55 0.769,-1.578"
     id="Nelson"
     inkscape:connector-curvature="0" />
  <path
     style="font-size:12px;fill:#d0d0d0;fill-rule:nonzero;stroke:#000000;stroke-width:1;stroke-linecap:butt;stroke-linejoin:bevel;stroke-miterlimit:4;stroke-opacity:1;stroke-dasharray:none;marker-start:none"
     d="m 53.694553,24.143566 0.04,0.721 -0.668,1.907 -0.779,2.275 -1.434,-0.504 -2.668,-1.551 1.384,-2.641 0.032,-0.085 0.23,-0.267 0.467,-0.135 0.537,-0.073 0.063,-0.04 0.05,-0.045 0.014,-0.048 -0.028,-0.402 2.76,0.888"
     id="Buckingham"
     inkscape:connector-curvature="0" />
  <path
     style="font-size:12px;fill:#d0d0d0;fill-rule:nonzero;stroke:#000000;stroke-width:1;stroke-linecap:butt;stroke-linejoin:bevel;stroke-miterlimit:4;stroke-opacity:1;stroke-dasharray:none;marker-start:none"
     d="m 50.853553,28.542566 -0.518,2.069 -1.329,0.82 -2.47,-2.52 1.235,-1.708 0.414,-0.212 2.668,1.551"
     id="Appomattox"
     inkscape:connector-curvature="0" />
  <path
     style="font-size:12px;fill:#d0d0d0;fill-rule:nonzero;stroke:#000000;stroke-width:1;stroke-linecap:butt;stroke-linejoin:bevel;stroke-miterlimit:4;stroke-opacity:1;stroke-dasharray:none;marker-start:none"
     d="m 45.949553,29.480566 0.587,-0.569 2.47,2.52 -0.378,2.487 -1.98,-0.161 -0.284,-0.231 -1.505,-0.392 -0.87,0.19 -0.243,0.302 -0.614,0.828 1.186,-4.163 0.622,0.36 1.009,-1.171"
     id="Campbell"
     inkscape:connector-curvature="0" />
  <path
     style="font-size:12px;fill:#d0d0d0;fill-rule:nonzero;stroke:#000000;stroke-width:1;stroke-linecap:butt;stroke-linejoin:bevel;stroke-miterlimit:4;stroke-opacity:1;stroke-dasharray:none;marker-start:none"
     d="m 46.648553,33.757566 1.98,0.161 1.865,0.582 0.896,1.38 0.041,1.239 0.011,0.027 0.327,0.365 0.199,0.081 -0.501,2.15 -0.626,0.122 -3.462,0.626 -0.815,0.144 0.085,-6.877"
     id="Halifax"
     inkscape:connector-curvature="0" />
  <path
     style="font-size:12px;fill:#d0d0d0;fill-rule:nonzero;stroke:#000000;stroke-width:1;stroke-linecap:butt;stroke-linejoin:bevel;stroke-miterlimit:4;stroke-opacity:1;stroke-dasharray:none;marker-start:none"
     d="m 43.132553,34.454566 0.614,-0.828 0.243,-0.302 0.87,-0.19 1.505,0.392 0.284,0.231 -0.085,6.877 -1.258,0.231 0.302,-0.42 0.031,-0.068 -0.036,-0.108 -0.567,-0.595 -1.299,0.203 -0.266,0.334 -0.085,0.139 -0.004,0.041 0.355,0.216 0.28,0.487 -0.41,0.076 -2.073,0.347 0.054,-4.154 0.054,-2.466 1.491,-0.443"
     id="Pittsylvania"
     inkscape:connector-curvature="0" />
  <path
     style="font-size:12px;fill:#d0d0d0;fill-rule:nonzero;stroke:#000000;stroke-width:1;stroke-linecap:butt;stroke-linejoin:bevel;stroke-miterlimit:4;stroke-opacity:1;stroke-dasharray:none;marker-start:none"
     d="m 39.423553,39.521566 0.074,-0.072 0.526,0.103 0.247,0.663 -0.049,0.23 -0.22,0.122 -0.641,-0.329 -0.193,-0.186 0.211,-0.487 0.045,-0.044"
     id="Martinsville"
     inkscape:connector-curvature="0" />
  <path
     style="font-size:12px;fill:#d0d0d0;fill-rule:nonzero;stroke:#000000;stroke-width:1;stroke-linecap:butt;stroke-linejoin:bevel;stroke-miterlimit:4;stroke-opacity:1;stroke-dasharray:none;marker-start:none"
     d="m 45.305553,40.865566 -1.289,0.229 -0.28,-0.487 -0.355,-0.216 0.004,-0.041 0.085,-0.139 0.266,-0.334 1.299,-0.203 0.567,0.595 0.036,0.108 -0.031,0.068 -0.302,0.42"
     id="Danville"
     inkscape:connector-curvature="0" />
  <path
     style="font-size:12px;fill:#d0d0d0;fill-rule:nonzero;stroke:#000000;stroke-width:1;stroke-linecap:butt;stroke-linejoin:bevel;stroke-miterlimit:4;stroke-opacity:1;stroke-dasharray:none;marker-start:none"
     d="m 45.949553,29.480566 -1.009,1.171 -0.622,-0.36 -0.302,-1.311 0.766,-0.232 1.167,0.732"
     id="Lynchburg"
     inkscape:connector-curvature="0" />
  <path
     style="font-size:12px;fill:#d0d0d0;fill-rule:nonzero;stroke:#000000;stroke-width:1;stroke-linecap:butt;stroke-linejoin:bevel;stroke-miterlimit:4;stroke-opacity:1;stroke-dasharray:none;marker-start:none"
     d="m 41.397553,30.831566 0.027,-0.144 0.464,-0.095 0.281,0.181 -0.136,0.55 -0.424,0.058 -0.152,-0.062 -0.226,-0.244 0.013,-0.244 0.153,0"
     id="Bedford"
     inkscape:connector-curvature="0" />
  <path
     style="font-size:12px;fill:#d0d0d0;fill-rule:nonzero;stroke:#000000;stroke-width:1;stroke-linecap:butt;stroke-linejoin:bevel;stroke-miterlimit:4;stroke-opacity:1;stroke-dasharray:none;marker-start:none"
     d="m 36.778553,32.179566 0.022,-0.045 0.437,-0.365 0.663,0.103 0.248,0.135 0.045,0.042 0.05,0.153 -0.178,0.648 -0.192,0.329 -0.179,0.172 -0.092,-0.005 -0.743,-0.306 -0.032,-0.059 -0.085,-0.149 0.009,-0.594 0.027,-0.059"
     id="Roanoke"
     inkscape:connector-curvature="0" />
  <path
     style="font-size:12px;fill:#d0d0d0;fill-rule:nonzero;stroke:#000000;stroke-width:1;stroke-linecap:butt;stroke-linejoin:bevel;stroke-miterlimit:4;stroke-opacity:1;stroke-dasharray:none;marker-start:none"
     d="m 41.952553,25.274566 0,-0.018 0.229,-0.234 0.33,-0.023 0.028,0.383 -0.163,0.55 -0.05,0.095 -0.157,0.171 -0.154,-0.023 -0.158,-0.193 -0.09,-0.514 0.023,-0.113 0.162,-0.081"
     id="Buena Vista"
     inkscape:connector-curvature="0" />
  <path
     style="font-size:12px;fill:#d0d0d0;fill-rule:nonzero;stroke:#000000;stroke-width:1;stroke-linecap:butt;stroke-linejoin:bevel;stroke-miterlimit:4;stroke-opacity:1;stroke-dasharray:none;marker-start:none"
     d="m 35.796553,25.747566 0.148,-0.134 0.361,0.076 0.049,0.108 0.076,0.621 -0.333,0.267 -0.18,-0.117 -0.138,-0.131 0.017,-0.69"
     id="Covington"
     inkscape:connector-curvature="0" />
  <path
     style="font-size:12px;fill:#d0d0d0;fill-rule:nonzero;stroke:#000000;stroke-width:1;stroke-linecap:butt;stroke-linejoin:bevel;stroke-miterlimit:4;stroke-opacity:1;stroke-dasharray:none;marker-start:none"
     d="m 41.619553,24.968566 -0.312,0.347 -0.162,0.108 -0.18,-0.153 -0.108,-0.353 0.153,-0.219 0.266,-0.078 0.378,0.086 -0.035,0.262"
     id="Lexington"
     inkscape:connector-curvature="0" />
  <path
     style="font-size:12px;fill:#d0d0d0;fill-rule:nonzero;stroke:#000000;stroke-width:1;stroke-linecap:butt;stroke-linejoin:bevel;stroke-miterlimit:4;stroke-opacity:1;stroke-dasharray:none;marker-start:none"
     d="m 46.026553,20.086566 0.039,-0.027 0.264,-0.013 0.143,0.243 0.004,0.073 -0.04,0.284 -0.054,0.136 -0.437,0.12 -0.343,-0.148 -0.063,-0.153 0,-0.06 0.159,-0.243 0.229,-0.226 0.099,0.014"
     id="Waynesboro"
     inkscape:connector-curvature="0" />
  <path
     style="font-size:12px;fill:#d0d0d0;fill-opacity:1;fill-rule:nonzero;stroke:#000000;stroke-width:1;stroke-linecap:butt;stroke-linejoin:bevel;stroke-miterlimit:4;stroke-opacity:1;stroke-dasharray:none;marker-start:none"
     d="m 44.584553,19.154566 0.017,-0.033 0.113,0.033 0.091,0.13 0.094,0.199 -0.013,0.265 -0.068,0.177 -0.189,0.197 -0.366,-0.009 -0.238,-0.117 -0.1,-0.175 0.028,-0.226 0.067,-0.212 0.564,-0.229"
     id="Staunton"
     inkscape:connector-curvature="0" />
  <path
     style="font-size:12px;fill:#d0d0d0;fill-rule:nonzero;stroke:#000000;stroke-width:1;stroke-linecap:butt;stroke-linejoin:bevel;stroke-miterlimit:4;stroke-opacity:1;stroke-dasharray:none;marker-start:none"
     d="m 50.322553,19.708566 0.221,-0.023 0.234,0.1 0.063,0.158 -0.068,0.391 -0.126,0.181 -0.405,0.116 -0.122,-0.004 -0.086,-0.139 -0.018,-0.108 0.032,-0.249 0.058,-0.188 0.217,-0.235"
     id="Charlottesville"
     inkscape:connector-curvature="0" />
  <path
     style="font-size:12px;fill:#d0d0d0;fill-opacity:1;fill-rule:nonzero;stroke:#000000;stroke-width:1;stroke-linecap:butt;stroke-linejoin:bevel;stroke-miterlimit:4;stroke-opacity:1;stroke-dasharray:none;marker-start:none"
     d="m 45.553553,15.115566 0.428,0.346 0.149,0.236 0.004,0.198 -0.541,0.477 -0.248,0.073 -0.04,-0.036 -0.086,-0.564 0.045,-0.216 0.239,-0.469 0.05,-0.045"
     id="Harrisonburg"
     inkscape:connector-curvature="0" />
  <path
     style="font-size:12px;fill:#d0d0d0;fill-rule:nonzero;stroke:#000000;stroke-width:1;stroke-linecap:butt;stroke-linejoin:bevel;stroke-miterlimit:4;stroke-opacity:1;stroke-dasharray:none;marker-start:none"
     d="m 48.090553,17.423566 3.125,0.649 1.724,0.355 -0.67,1.809 -1.335,3.019 0.028,0.402 -0.014,0.048 -0.05,0.045 -0.063,0.04 -0.537,0.073 -0.467,0.135 -0.23,0.267 -0.032,0.085 -2.683,-3.664 0.379,-0.329 0.136,-0.239 0,-0.118 -0.117,-0.495 0.058,-0.653 0.063,-0.361 0.685,-1.068 z m 2.232,2.285 -0.217,0.235 -0.058,0.188 -0.032,0.249 0.018,0.108 0.086,0.139 0.122,0.004 0.405,-0.116 0.126,-0.181 0.068,-0.391 -0.063,-0.158 -0.234,-0.1 -0.221,0.023"
     id="Albermarle"
     inkscape:connector-curvature="0" />
  <path
     style="font-size:12px;fill:#d0d0d0;fill-rule:nonzero;stroke:#000000;stroke-width:1;stroke-linecap:butt;stroke-linejoin:bevel;stroke-miterlimit:4;stroke-opacity:1;stroke-dasharray:none;marker-start:none"
     d="m 52.269553,20.236566 2.658,0.833 -0.572,2.186 -0.661,0.888 -2.76,-0.888 1.335,-3.019"
     id="Fluvanna"
     inkscape:connector-curvature="0" />
  <path
     style="font-size:12px;fill:#d0d0d0;fill-rule:nonzero;stroke:#000000;stroke-width:1;stroke-linecap:butt;stroke-linejoin:bevel;stroke-miterlimit:4;stroke-opacity:1;stroke-dasharray:none;marker-start:none"
     d="m 53.694553,24.143566 0.661,-0.888 1.086,0.996 -0.103,2.701 -0.822,1.301 -2.229,0.793 0.779,-2.275 0.668,-1.907 -0.04,-0.721"
     id="Cumberland"
     inkscape:connector-curvature="0" />
  <path
     style="font-size:12px;fill:#d0d0d0;fill-rule:nonzero;stroke:#000000;stroke-width:1;stroke-linecap:butt;stroke-linejoin:bevel;stroke-miterlimit:4;stroke-opacity:1;stroke-dasharray:none;marker-start:none"
     d="m 54.516553,28.253566 0.213,0.911 0.347,2.262 -1.951,0.906 -2.79,-1.721 0.518,-2.069 1.434,0.504 2.229,-0.793"
     id="Prince Edward"
     inkscape:connector-curvature="0" />
  <path
     style="font-size:12px;fill:#d0d0d0;fill-rule:nonzero;stroke:#000000;stroke-width:1;stroke-linecap:butt;stroke-linejoin:bevel;stroke-miterlimit:4;stroke-opacity:1;stroke-dasharray:none;marker-start:none"
     d="m 49.006553,31.431566 1.329,-0.82 2.79,1.721 -0.05,2.496 -1.108,2.764 -0.199,-0.081 -0.327,-0.365 -0.011,-0.027 -0.041,-1.239 -0.896,-1.38 -1.865,-0.582 0.378,-2.487"
     id="Charlotte"
     inkscape:connector-curvature="0" />
  <path
     style="font-size:12px;fill:#d0d0d0;fill-rule:nonzero;stroke:#000000;stroke-width:1;stroke-linecap:butt;stroke-linejoin:bevel;stroke-miterlimit:4;stroke-opacity:1;stroke-dasharray:none;marker-start:none"
     d="m 58.038553,35.392566 0.378,3.02 -2.803,0.537 -1.343,0.27 -2.804,0.523 0.501,-2.15 1.108,-2.764 4.963,0.564"
     id="Mecklenburg"
     inkscape:connector-curvature="0" />
  <path
     style="font-size:12px;fill:#d0d0d0;fill-rule:nonzero;stroke:#000000;stroke-width:1;stroke-linecap:butt;stroke-linejoin:bevel;stroke-miterlimit:4;stroke-opacity:1;stroke-dasharray:none;marker-start:none"
     d="m 62.964553,28.438566 -0.18,-0.333 -0.046,-0.207 0.072,-0.123 0.172,-0.202 0.221,-0.031 0.126,0.103 0.018,0.135 -0.022,0.073 0.059,0.347 -0.01,0.022 -0.077,0.054 -0.041,-0.009 -0.097,0.045 -0.123,0.077 -0.072,0.049"
     id="Colonial Heights"
     inkscape:connector-curvature="0" />
  <path
     style="font-size:12px;fill:#d0d0d0;fill-rule:nonzero;stroke:#000000;stroke-width:1;stroke-linecap:butt;stroke-linejoin:bevel;stroke-miterlimit:4;stroke-opacity:1;stroke-dasharray:none;marker-start:none"
     d="m 55.076553,31.426566 2.601,0.794 0.361,3.172 -4.963,-0.564 0.05,-2.496 1.951,-0.906"
     id="Lunenburg"
     inkscape:connector-curvature="0" />
  <path
     style="font-size:12px;fill:#d0d0d0;fill-opacity:1;fill-rule:nonzero;stroke:#000000;stroke-width:1;stroke-linecap:butt;stroke-linejoin:bevel;stroke-miterlimit:4;stroke-opacity:1;stroke-dasharray:none;marker-start:none"
     d="m 63.658553,27.216566 0.5,-0.107 0.05,-0.005 0.297,0.158 0.104,0.112 -0.068,0.253 -0.405,0.328 -0.256,-0.188 -0.222,-0.551"
     id="Hopewell"
     inkscape:connector-curvature="0" />
  <path
     style="font-size:12px;fill:#d0d0d0;fill-opacity:1;fill-rule:nonzero;stroke:#000000;stroke-width:1;stroke-linecap:butt;stroke-linejoin:bevel;stroke-miterlimit:4;stroke-opacity:1;stroke-dasharray:none;marker-start:none"
     d="m 62.729553,7.1385664 0.072,0.64 0.005,0.057 -0.617,0.281 -0.563,-0.113 0.234,-0.545 0.104,-0.204 0.765,-0.116"
     id="Alexandria"
     inkscape:connector-curvature="0" />
  <path
     style="font-size:12px;fill:#d0d0d0;fill-rule:nonzero;stroke:#000000;stroke-width:1;stroke-linecap:butt;stroke-linejoin:bevel;stroke-miterlimit:4;stroke-opacity:1;stroke-dasharray:none;marker-start:none"
     d="m 49.502553,9.8555659 1.167,0.7220001 -0.209,1.785 -0.76,2.149 -0.198,0.749 -0.533,-0.01 -0.157,-0.048 -0.752,-0.304 -0.795,-0.409 0.265,-1.285 0.317,-1.14 0.28,-0.738 0.418,0.089 0.297,-0.387 0.66,-1.1730001"
     id="Page"
     inkscape:connector-curvature="0" />
  <path
     style="font-size:12px;fill:#d0d0d0;fill-opacity:1;fill-rule:nonzero;stroke:#000000;stroke-width:1;stroke-linecap:butt;stroke-linejoin:bevel;stroke-miterlimit:4;stroke-opacity:1;stroke-dasharray:none;marker-start:none"
     d="m 49.784553,7.4525664 -0.282,2.4029995 -0.66,1.1730001 -0.297,0.387 -0.418,-0.089 -0.28,0.738 -0.317,1.14 -2.608,-1.613 0.383,-1.303 0.131,-0.4060001 0.023,-0.036 0.044,-0.071 0.514,-0.487 0.04,0.067 0.041,0.063 0.032,0.005 0.946,-0.8919995 0.316,-0.699 0.018,-0.09 0.008,-0.492 2.366,0.202"
     id="Shenandoah"
     inkscape:connector-curvature="0" />
  <path
     style="font-size:12px;fill:#d0d0d0;fill-rule:nonzero;stroke:#000000;stroke-width:1;stroke-linecap:butt;stroke-linejoin:bevel;stroke-miterlimit:4;stroke-opacity:1;stroke-dasharray:none;marker-start:none"
     d="m 51.908553,3.6555664 2.321,1.301 -1.018,1.767 -0.325,0.519 -1.587,-0.452 0.609,-3.135"
     id="Clarke"
     inkscape:connector-curvature="0" />
  <path
     style="font-size:12px;fill:#d0d0d0;fill-opacity:1;fill-rule:nonzero;stroke:#000000;stroke-width:1;stroke-linecap:butt;stroke-linejoin:bevel;stroke-miterlimit:4;stroke-opacity:1;stroke-dasharray:none;marker-start:none"
     d="m 50.610553,4.5955664 0.212,0.015 0.419,0.207 -0.419,1.014 -0.329,-0.257 -0.135,-0.523 0.018,-0.208 0.084,-0.266 0.15,0.018"
     id="Winchester"
     inkscape:connector-curvature="0" />
  <path
     style="font-size:12px;fill:#d0d0d0;fill-opacity:1;fill-rule:nonzero;stroke:#000000;stroke-width:1;stroke-linecap:butt;stroke-linejoin:bevel;stroke-miterlimit:4;stroke-opacity:1;stroke-dasharray:none;marker-start:none"
     d="m 48.361553,1.6625664 1.33,0.735 2.217,1.258 -0.609,3.135 -1.515,0.662 -2.366,-0.202 0.276,-0.473 0.112,-0.108 0.303,-0.299 0.152,-0.278 0.15,-0.351 0.036,-0.208 0.027,-2.46 -0.113,-1.411 z m 2.249,2.933 -0.15,-0.018 -0.084,0.266 -0.018,0.208 0.135,0.523 0.329,0.257 0.419,-1.014 -0.419,-0.207 -0.212,-0.015"
     id="Frederick"
     inkscape:connector-curvature="0" />
  <path
     style="font-size:12px;fill:#d0d0d0;fill-opacity:1;fill-rule:nonzero;stroke:#000000;stroke-width:1;stroke-linecap:butt;stroke-linejoin:bevel;stroke-miterlimit:4;stroke-opacity:1;stroke-dasharray:none;marker-start:none"
     d="m 51.299553,6.7905664 1.587,0.452 -0.951,1.7349995 -1.266,1.6000001 -1.167,-0.7220001 0.282,-2.4029995 1.515,-0.662"
     id="Warren"
     inkscape:connector-curvature="0" />
  <path
     style="font-size:12px;fill:#d0d0d0;fill-rule:nonzero;stroke:#000000;stroke-width:1;stroke-linecap:butt;stroke-linejoin:bevel;stroke-miterlimit:4;stroke-opacity:1;stroke-dasharray:none;marker-start:none"
     d="m 50.669553,10.577566 1.266,-1.6000001 0.479,0.356 0.819,0.8150001 0.203,0.361 0.059,0.058 0.135,0.095 0.427,0.122 0.195,-0.049 -0.911,1.108 -1.032,1.568 -0.567,-0.036 -1.282,-1.013 0.209,-1.785"
     id="Rappahannock"
     inkscape:connector-curvature="0" />
  <path
     style="font-size:12px;fill:#d0d0d0;fill-rule:nonzero;stroke:#000000;stroke-width:1;stroke-linecap:butt;stroke-linejoin:bevel;stroke-miterlimit:4;stroke-opacity:1;stroke-dasharray:none;marker-start:none"
     d="m 50.460553,12.362566 1.282,1.013 1.892,2.565 -1.807,0.87 -2.127,-2.299 0.76,-2.149"
     id="Madison"
     inkscape:connector-curvature="0" />
  <path
     style="font-size:12px;fill:#d0d0d0;fill-rule:nonzero;stroke:#000000;stroke-width:1;stroke-linecap:butt;stroke-linejoin:bevel;stroke-miterlimit:4;stroke-opacity:1;stroke-dasharray:none;marker-start:none"
     d="m 51.827553,16.810566 1.807,-0.87 0.897,-0.676 0.758,-0.5 0.536,-0.186 0.92,-0.238 0.472,0.144 0.159,0.082 -1.894,3.587 -2.543,0.274 -1.724,-0.355 0.612,-1.262"
     id="Orange"
     inkscape:connector-curvature="0" />
  <path
     style="font-size:12px;fill:#d0d0d0;fill-rule:nonzero;stroke:#000000;stroke-width:1;stroke-linecap:butt;stroke-linejoin:bevel;stroke-miterlimit:4;stroke-opacity:1;stroke-dasharray:none;marker-start:none"
     d="m 52.939553,18.427566 2.543,-0.274 2.916,0.883 -0.396,3.768 -1.528,-0.924 -0.261,-0.275 -0.794,-0.459 -0.492,-0.077 -2.658,-0.833 0.67,-1.809"
     id="Louisa"
     inkscape:connector-curvature="0" />
  <path
     style="font-size:12px;fill:#d0d0d0;fill-rule:nonzero;stroke:#000000;stroke-width:1;stroke-linecap:butt;stroke-linejoin:bevel;stroke-miterlimit:4;stroke-opacity:1;stroke-dasharray:none;marker-start:none"
     d="m 59.718553,22.786566 0.122,1.872 -0.613,-0.236 -1.212,-0.202 -1.244,0.036 -0.009,0.063 -0.032,0.068 -0.076,0.063 -0.167,0.044 -0.081,0.005 -0.857,-0.154 -0.108,-0.094 -1.086,-0.996 0.572,-2.186 0.492,0.077 0.794,0.459 0.261,0.275 1.528,0.924 1.716,-0.018"
     id="Goochland"
     inkscape:connector-curvature="0" />
  <path
     style="font-size:12px;fill:#d0d0d0;fill-rule:nonzero;stroke:#000000;stroke-width:1;stroke-linecap:butt;stroke-linejoin:bevel;stroke-miterlimit:4;stroke-opacity:1;stroke-dasharray:none;marker-start:none"
     d="m 59.840553,24.658566 -1.645,2.23 -0.207,-0.343 -0.329,-0.27 -0.045,-0.031 -0.271,-0.037 -0.643,0.058 -0.414,0.28 -0.363,0.325 -0.26,0.163 -0.222,0.021 -0.103,-0.102 0.103,-2.701 0.108,0.094 0.857,0.154 0.081,-0.005 0.167,-0.044 0.076,-0.063 0.032,-0.068 0.009,-0.063 1.244,-0.036 1.212,0.202 0.613,0.236"
     id="Powhatan"
     inkscape:connector-curvature="0" />
  <path
     style="font-size:12px;fill:#d0d0d0;fill-rule:nonzero;stroke:#000000;stroke-width:1;stroke-linecap:butt;stroke-linejoin:bevel;stroke-miterlimit:4;stroke-opacity:1;stroke-dasharray:none;marker-start:none"
     d="m 55.338553,26.952566 0.103,0.102 0.222,-0.021 0.26,-0.163 0.363,-0.325 0.414,-0.28 0.643,-0.058 0.271,0.037 0.045,0.031 0.329,0.27 0.207,0.343 -0.18,0.031 -0.018,0.023 0.05,0.437 0.054,0.221 1.369,0.987 0.069,0.023 0.121,-0.005 0.054,-0.031 0.013,-0.028 -0.009,-0.176 0.181,-0.234 0.05,-0.022 0.432,0.013 0.235,0.317 -1.276,1.206 -4.611,-0.486 -0.213,-0.911 0.822,-1.301"
     id="Amelia"
     inkscape:connector-curvature="0" />
  <path
     style="font-size:12px;fill:#d0d0d0;fill-rule:nonzero;stroke:#000000;stroke-width:1;stroke-linecap:butt;stroke-linejoin:bevel;stroke-miterlimit:4;stroke-opacity:1;stroke-dasharray:none;marker-start:none"
     d="m 55.076553,31.426566 -0.347,-2.262 4.611,0.486 -0.437,2.786 -1.226,-0.216 -2.601,-0.794"
     id="Nottoway"
     inkscape:connector-curvature="0" />
  <path
     style="font-size:12px;fill:#d0d0d0;fill-rule:nonzero;stroke:#000000;stroke-width:1;stroke-linecap:butt;stroke-linejoin:bevel;stroke-miterlimit:4;stroke-opacity:1;stroke-dasharray:none;marker-start:none"
     d="m 57.677553,32.220566 1.226,0.216 2.565,0.748 0.473,2.304 -0.708,2.375 -1.338,0.256 -1.479,0.293 -0.378,-3.02 -0.361,-3.172"
     id="Brunswick"
     inkscape:connector-curvature="0" />
  <path
     style="font-size:12px;fill:#d0d0d0;fill-rule:nonzero;stroke:#000000;stroke-width:1;stroke-linecap:butt;stroke-linejoin:bevel;stroke-miterlimit:4;stroke-opacity:1;stroke-dasharray:none;marker-start:none"
     d="m 60.616553,28.444566 2.14,0.143 -0.058,0.378 0.329,0.208 0.343,-0.023 0.455,2.267 -1.925,1.903 -0.432,-0.136 -2.565,-0.748 0.437,-2.786 1.276,-1.206"
     id="Dinwiddie"
     inkscape:connector-curvature="0" />
  <path
     style="font-size:12px;fill:#d0d0d0;fill-opacity:1;fill-rule:nonzero;stroke:#000000;stroke-width:1;stroke-linecap:butt;stroke-linejoin:bevel;stroke-miterlimit:4;stroke-opacity:1;stroke-dasharray:none;marker-start:none"
     d="m 63.397553,35.275566 0.108,0.38 -0.014,0.174 -0.411,0.267 -0.242,-0.032 -0.163,-0.423 -0.013,-0.087 0.067,-0.171 0.464,-0.202 0.118,0.009 0.086,0.085"
     id="Emporia"
     inkscape:connector-curvature="0" />
  <path
     style="font-size:12px;fill:#d0d0d0;fill-opacity:1;fill-rule:nonzero;stroke:#000000;stroke-width:1;stroke-linecap:butt;stroke-linejoin:bevel;stroke-miterlimit:4;stroke-opacity:1;stroke-dasharray:none;marker-start:none"
     d="m 64.226553,35.118566 1.762,1.807 -4.755,0.938 0.708,-2.375 -0.473,-2.304 0.432,0.136 0.708,0.293 0.982,1.451 0.636,0.054 z m -0.829,0.157 -0.086,-0.085 -0.118,-0.009 -0.464,0.202 -0.067,0.171 0.013,0.087 0.163,0.423 0.242,0.032 0.411,-0.267 0.014,-0.174 -0.108,-0.38"
     id="Greensville"
     inkscape:connector-curvature="0" />
  <path
     style="font-size:12px;fill:#d0d0d0;fill-rule:nonzero;stroke:#000000;stroke-width:1;stroke-linecap:butt;stroke-linejoin:bevel;stroke-miterlimit:4;stroke-opacity:1;stroke-dasharray:none;marker-start:none"
     d="m 73.583553,27.925566 -0.19,-0.731 0.028,-0.212 -0.019,-0.175 -0.009,-0.051 0.595,-0.066 0.505,0.48 0.127,0.38 -1.037,0.375"
     id="Poquoson"
     inkscape:connector-curvature="0" />
  <path
     style="font-size:12px;fill:#d0d0d0;fill-rule:nonzero;stroke:#000000;stroke-width:1;stroke-linecap:butt;stroke-linejoin:bevel;stroke-miterlimit:4;stroke-opacity:1;stroke-dasharray:none;marker-start:none"
     d="m 69.315553,34.095566 0.306,0.725 -0.005,0.023 -0.565,0.153 -0.251,-0.31 -0.086,-0.321 0.01,-0.189 0.135,-0.072 0.217,0.009 0.239,-0.018"
     id="Franklin"
     inkscape:connector-curvature="0" />
  <path
     style="font-size:12px;fill:#d0d0d0;fill-rule:nonzero;stroke:#000000;stroke-width:1;stroke-linecap:butt;stroke-linejoin:bevel;stroke-miterlimit:4;stroke-opacity:1;stroke-dasharray:none;marker-start:none"
     d="m 69.315553,34.095566 -0.239,0.018 -0.217,-0.009 -0.135,0.072 -0.01,0.189 0.086,0.321 0.251,0.31 0.565,-0.153 0.005,-0.023 0.131,0.032 0.058,1.315 -2.497,0.469 -1.325,0.289 -1.762,-1.807 4.187,-3.98 0.906,-0.87 -0.004,3.827"
     id="Southampton"
     inkscape:connector-curvature="0" />
  <path
     style="font-size:12px;fill:#d0d0d0;fill-opacity:1;fill-rule:nonzero;stroke:#000000;stroke-width:1;stroke-linecap:butt;stroke-linejoin:bevel;stroke-miterlimit:4;stroke-opacity:1;stroke-dasharray:none;marker-start:none"
     d="m 73.583553,27.925566 1.037,-0.375 0.648,1.032 -0.405,0.695 -0.991,0.279 -0.668,-1.401 0.379,-0.23"
     id="Hampton"
     inkscape:connector-curvature="0" />
  <path
     style="font-size:12px;fill:#d0d0d0;fill-opacity:1;fill-rule:nonzero;stroke:#000000;stroke-width:1;stroke-linecap:butt;stroke-linejoin:bevel;stroke-miterlimit:4;stroke-opacity:1;stroke-dasharray:none;marker-start:none"
     d="m 70.621553,26.631566 0.014,0.059 -0.108,0.085 -0.185,0.063 -0.342,0.04 -0.217,-0.012 -0.112,-0.095 -0.077,-0.104 -0.108,-0.613 0.212,-0.198 0.085,0.112 0.054,0.064 0.302,0.018 0.118,-0.032 0.27,0.229 0.094,0.384"
     id="Williamsburg"
     inkscape:connector-curvature="0" />
  <path
     style="font-size:12px;fill:#d0d0d0;fill-opacity:1;fill-rule:nonzero;stroke:#000000;stroke-width:1;stroke-linecap:butt;stroke-linejoin:bevel;stroke-miterlimit:4;stroke-opacity:1;stroke-dasharray:none;marker-start:none"
     d="m 71.329553,26.960566 1.875,1.195 0.668,1.401 -0.077,0.229 -0.077,0 -0.117,-0.053 -2.29,-1.51 -0.086,-0.082 -0.072,-0.73 0.176,-0.45"
     id="Newport News"
     inkscape:connector-curvature="0" />
  <path
     style="font-size:12px;fill:#d0d0d0;fill-rule:nonzero;stroke:#000000;stroke-width:1;stroke-linecap:butt;stroke-linejoin:bevel;stroke-miterlimit:4;stroke-opacity:1;stroke-dasharray:none;marker-start:none"
     d="m 73.979553,30.606566 0.605,-0.405 0.806,1.122 -0.982,0.379 -0.447,-0.672 0.018,-0.424"
     id="Portsmouth"
     inkscape:connector-curvature="0" />
  <path
     style="font-size:12px;fill:#d0d0d0;fill-opacity:1;fill-rule:nonzero;stroke:#000000;stroke-width:1;stroke-linecap:butt;stroke-linejoin:bevel;stroke-miterlimit:4;stroke-opacity:1;stroke-dasharray:none;marker-start:none"
     d="m 69.783553,25.968566 0.442,-0.982 1.96,1.441 -0.031,0.101 0.121,0.09 0.244,0.072 0.753,-0.28 0.049,0.023 0.072,0.323 0.009,0.051 0.019,0.175 -0.028,0.212 0.19,0.731 -0.379,0.23 -1.875,-1.195 -0.708,-0.329 -0.094,-0.384 -0.27,-0.229 -0.118,0.032 -0.302,-0.018 -0.054,-0.064"
     id="York"
     inkscape:connector-curvature="0" />
  <path
     style="font-size:12px;fill:#d0d0d0;fill-opacity:1;fill-rule:nonzero;stroke:#000000;stroke-width:1;stroke-linecap:butt;stroke-linejoin:bevel;stroke-miterlimit:4;stroke-opacity:1;stroke-dasharray:none;marker-start:none"
     d="m 69.165553,24.052566 0.388,0.393 0.672,0.541 -0.442,0.982 -0.085,-0.112 -0.212,0.198 0.108,0.613 0.077,0.104 0.112,0.095 0.217,0.012 0.342,-0.04 0.185,-0.063 0.108,-0.085 -0.014,-0.059 0.708,0.329 -0.176,0.45 -1.153,-0.184 -1.605,0.221 -0.613,-1.925 1.383,-1.47"
     id="James City"
     inkscape:connector-curvature="0" />
  <path
     style="font-size:12px;fill:#d0d0d0;fill-rule:nonzero;stroke:#000000;stroke-width:1;stroke-linecap:butt;stroke-linejoin:bevel;stroke-miterlimit:4;stroke-opacity:1;stroke-dasharray:none;marker-start:none"
     d="m 68.395553,27.447566 1.605,-0.221 0.789,0.874 -1.47,2.168 -0.906,0.87 -0.271,-0.686 -0.964,-0.67 -0.036,0.048 -0.271,0 -0.824,-0.301 -0.05,-0.032 -0.036,-0.049 -0.004,-0.037 1.477,-2.109 0.961,0.145"
     id="Surry"
     inkscape:connector-curvature="0" />
  <path
     style="font-size:12px;fill:#d0d0d0;fill-opacity:1;fill-rule:nonzero;stroke:#000000;stroke-width:1;stroke-linecap:butt;stroke-linejoin:bevel;stroke-miterlimit:4;stroke-opacity:1;stroke-dasharray:none;marker-start:none"
     d="m 65.957553,29.411566 0.004,0.037 0.036,0.049 0.05,0.032 0.824,0.301 0.271,0 0.036,-0.048 0.964,0.67 0.271,0.686 -4.187,3.98 -0.636,-0.054 -0.982,-1.451 -0.708,-0.293 1.925,-1.903 2.132,-2.006"
     id="Sussex"
     inkscape:connector-curvature="0" />
  <path
     style="font-size:12px;fill:#d0d0d0;fill-opacity:1;fill-rule:nonzero;stroke:#000000;stroke-width:1;stroke-linecap:butt;stroke-linejoin:bevel;stroke-miterlimit:4;stroke-opacity:1;stroke-dasharray:none;marker-start:none"
     d="m 64.158553,27.109566 0.113,-0.127 3.163,0.32 -1.477,2.109 -2.132,2.006 -0.455,-2.267 0.419,0.108 0.179,-0.531 -0.062,-0.317 -0.505,-0.247 0.257,-0.947 0.222,0.551 0.256,0.188 0.405,-0.328 0.068,-0.253 -0.104,-0.112 -0.297,-0.158 -0.05,0.005"
     id="Prince George"
     inkscape:connector-curvature="0" />
  <path
     style="font-size:12px;fill:#d0d0d0;fill-rule:nonzero;stroke:#000000;stroke-width:1;stroke-linecap:butt;stroke-linejoin:bevel;stroke-miterlimit:4;stroke-opacity:1;stroke-dasharray:none;marker-start:none"
     d="m 63.384553,28.200566 0.017,-0.037 0.505,0.247 0.062,0.317 -0.179,0.531 -0.419,-0.108 -0.343,0.023 -0.329,-0.208 0.058,-0.378 0.208,-0.149 0.072,-0.049 0.123,-0.077 0.097,-0.045 0.041,0.009 0.077,-0.054 0.01,-0.022"
     id="Petersburg"
     inkscape:connector-curvature="0" />
  <path
     style="font-size:12px;fill:#d0d0d0;fill-opacity:1;fill-rule:nonzero;stroke:#000000;stroke-width:1;stroke-linecap:butt;stroke-linejoin:bevel;stroke-miterlimit:4;stroke-opacity:1;stroke-dasharray:none;marker-start:none"
     d="m 59.718553,22.786566 1.001,0.005 1.51,0.833 0.527,0.19 1.172,0.325 0.212,0.018 0.626,0.477 -0.447,1.541 -1.864,-0.504 0.126,-0.794 -0.05,-0.415 -0.333,-0.5 -0.293,-0.188 -0.108,-0.032 -0.221,0.103 -0.581,0.283 -0.56,0.502 -0.595,0.028 -0.122,-1.872"
     id="Henrico"
     inkscape:connector-curvature="0" />
  <path
     style="font-size:12px;fill:#d0d0d0;fill-opacity:1;fill-rule:nonzero;stroke:#000000;stroke-width:1;stroke-linecap:butt;stroke-linejoin:bevel;stroke-miterlimit:4;stroke-opacity:1;stroke-dasharray:none;marker-start:none"
     d="m 59.840553,24.658566 0.595,-0.028 0.352,0.576 0.622,0.736 1.046,-0.271 1.864,0.504 -0.048,0.807 -0.113,0.127 -0.5,0.107 -0.257,0.947 -0.017,0.037 -0.059,-0.347 0.022,-0.073 -0.018,-0.135 -0.126,-0.103 -0.221,0.031 -0.172,0.202 -0.072,0.123 0.046,0.207 0.18,0.333 -0.208,0.149 -2.14,-0.143 -0.235,-0.317 -0.432,-0.013 -0.05,0.022 -0.181,0.234 0.009,0.176 -0.013,0.028 -0.054,0.031 -0.121,0.005 -0.069,-0.023 -1.369,-0.987 -0.054,-0.221 -0.05,-0.437 0.018,-0.023 0.18,-0.031 1.645,-2.23"
     id="Chesterfield"
     inkscape:connector-curvature="0" />
  <path
     style="font-size:12px;fill:#d0d0d0;fill-rule:nonzero;stroke:#000000;stroke-width:1;stroke-linecap:butt;stroke-linejoin:bevel;stroke-miterlimit:4;stroke-opacity:1;stroke-dasharray:none;marker-start:none"
     d="m 64.766553,24.634566 3.016,0.888 0.613,1.925 -0.961,-0.145 -3.163,-0.32 0.048,-0.807 0.447,-1.541"
     id="Charles City"
     inkscape:connector-curvature="0" />
  <path
     style="font-size:12px;fill:#d0d0d0;fill-opacity:1;fill-rule:nonzero;stroke:#000000;stroke-width:1;stroke-linecap:butt;stroke-linejoin:bevel;stroke-miterlimit:4;stroke-opacity:1;stroke-dasharray:none;marker-start:none"
     d="m 64.956553,22.786566 0.762,0.221 2.064,0.005 0.753,0.5 0.63,0.54 -1.383,1.47 -3.016,-0.888 -0.626,-0.477 0.816,-1.371"
     id="New Kent"
     inkscape:connector-curvature="0" />
  <path
     style="font-size:12px;fill:#d0d0d0;fill-opacity:1;fill-rule:nonzero;stroke:#000000;stroke-width:1;stroke-linecap:butt;stroke-linejoin:bevel;stroke-miterlimit:4;stroke-opacity:1;stroke-dasharray:none;marker-start:none"
     d="m 62.455553,25.671566 -1.046,0.271 -0.622,-0.736 -0.352,-0.576 0.56,-0.502 0.581,-0.283 0.221,-0.103 0.108,0.032 0.293,0.188 0.333,0.5 0.05,0.415 -0.126,0.794"
     id="Richmond"
     inkscape:connector-curvature="0" />
  <path
     style="font-size:12px;fill:#d0d0d0;fill-opacity:1;fill-rule:nonzero;stroke:#000000;stroke-width:1;stroke-linecap:butt;stroke-linejoin:bevel;stroke-miterlimit:4;stroke-opacity:1;stroke-dasharray:none;marker-start:none"
     d="m 60.080553,15.043566 -0.374,0.135 -0.51,-0.289 -0.064,-0.283 0.172,-0.127 0.126,-0.084 0.253,0.044 0.189,0.04 0.172,0.172 0.036,0.392"
     id="Fredericksburg"
     inkscape:connector-curvature="0" />
  <path
     style="font-size:12px;fill:#d0d0d0;fill-rule:nonzero;stroke:#000000;stroke-width:1;stroke-linecap:butt;stroke-linejoin:bevel;stroke-miterlimit:4;stroke-opacity:1;stroke-dasharray:none;marker-start:none"
     d="m 59.525553,7.4495664 0.338,-0.153 0.315,0.049 0.068,0.099 0.053,0.383 -0.238,0.149 -0.347,0.059 -0.31,-0.217 0,-0.158 0.121,-0.211"
     id="Fairfax"
     inkscape:connector-curvature="0" />
  <path
     style="font-size:12px;fill:#d0d0d0;fill-opacity:1;fill-rule:nonzero;stroke:#000000;stroke-width:1;stroke-linecap:butt;stroke-linejoin:bevel;stroke-miterlimit:4;stroke-opacity:1;stroke-dasharray:none;marker-start:none"
     d="m 58.335553,8.8695659 0.221,0.093 0.09,0.077 0.081,0.069 0.009,0.391 -0.491,0.496 -0.266,-0.117 -0.076,-0.216 0.021,-0.139 0.199,-0.447 0.203,-0.212 0.009,0.005"
     id="Manassas"
     inkscape:connector-curvature="0" />
  <path
     style="font-size:12px;fill:#d0d0d0;fill-rule:nonzero;stroke:#000000;stroke-width:1;stroke-linecap:butt;stroke-linejoin:bevel;stroke-miterlimit:4;stroke-opacity:1;stroke-dasharray:none;marker-start:none"
     d="m 54.825553,2.3425664 0.387,-0.045 2.393,0.839 -0.396,0.626 -0.041,0.108 -0.004,0.059 -0.024,0.162 -0.012,0.117 0.003,0.01 0.069,0.22 0.057,0.076 0.006,0 0.063,0.045 0.639,0.429 0.019,0.008 0.355,0.023 0.483,-0.023 0.469,-0.053 -1.496,3.096 -1.407,-0.992 -3.177,-0.324 1.018,-1.767 0.596,-2.614"
     id="Loudoun"
     inkscape:connector-curvature="0" />
  <path
     style="font-size:12px;fill:#d0d0d0;fill-rule:nonzero;stroke:#000000;stroke-width:1;stroke-linecap:butt;stroke-linejoin:bevel;stroke-miterlimit:4;stroke-opacity:1;stroke-dasharray:none;marker-start:none"
     d="m 53.211553,6.7235664 3.177,0.324 -0.347,1.385 0.032,0.139 2.113,2.6999996 0.383,0.469 -0.657,2.068 -0.917,0.067 -0.134,-0.017 -0.157,-0.055 -0.091,-0.09 -0.851,-1.103 -0.614,-0.965 -0.896,-0.91 -0.195,0.049 -0.427,-0.122 -0.135,-0.095 -0.059,-0.058 -0.203,-0.361 -0.819,-0.8150001 -0.479,-0.356 0.951,-1.7349994 0.325,-0.519"
     id="Fauquier"
     inkscape:connector-curvature="0" />
  <path
     style="font-size:12px;fill:#d0d0d0;fill-rule:nonzero;stroke:#000000;stroke-width:1;stroke-linecap:butt;stroke-linejoin:bevel;stroke-miterlimit:4;stroke-opacity:1;stroke-dasharray:none;marker-start:none"
     d="m 54.252553,10.735566 0.896,0.91 0.614,0.965 0.851,1.103 0.091,0.09 0.157,0.055 0.134,0.017 0.917,-0.067 0.27,0.505 -0.806,0.253 -0.159,-0.082 -0.472,-0.144 -0.92,0.238 -0.536,0.186 -0.758,0.5 -0.897,0.676 -1.892,-2.565 0.567,0.036 1.032,-1.568 0.911,-1.108"
     id="Culpeper"
     inkscape:connector-curvature="0" />
  <path
     style="font-size:12px;fill:#d0d0d0;fill-opacity:1;fill-rule:nonzero;stroke:#000000;stroke-width:1;stroke-linecap:butt;stroke-linejoin:bevel;stroke-miterlimit:4;stroke-opacity:1;stroke-dasharray:none;marker-start:none"
     d="m 58.182553,14.313566 1.014,0.576 0.51,0.289 0.374,-0.135 0.855,0.333 -2.046,3.786 -0.491,-0.126 -2.916,-0.883 1.894,-3.587 0.806,-0.253"
     id="Spotsylvania"
     inkscape:connector-curvature="0" />
  <path
     style="font-size:12px;fill:#d0d0d0;fill-opacity:1;fill-rule:nonzero;stroke:#000000;stroke-width:1;stroke-linecap:butt;stroke-linejoin:bevel;stroke-miterlimit:4;stroke-opacity:1;stroke-dasharray:none;marker-start:none"
     d="m 58.398553,19.036566 0.491,0.126 3.453,1.997 0.367,0.663 0.381,0.166 1.285,0.488 0.581,0.31 -0.816,1.371 -0.212,-0.018 -1.172,-0.325 -0.527,-0.19 -1.51,-0.833 -1.001,-0.005 -1.716,0.018 0.396,-3.768"
     id="Hanover"
     inkscape:connector-curvature="0" />
  <path
     style="font-size:12px;fill:#d0d0d0;fill-rule:nonzero;stroke:#000000;stroke-width:1;stroke-linecap:butt;stroke-linejoin:bevel;stroke-miterlimit:4;stroke-opacity:1;stroke-dasharray:none;marker-start:none"
     d="m 63.703553,19.528566 0.108,-0.095 0.238,0.158 0.974,1.379 1.835,0.626 1.456,1.01 0.266,0.406 0.017,0.045 -0.017,0.383 -0.045,0.072 -0.753,-0.5 -2.064,-0.005 -0.762,-0.221 -0.581,-0.31 -1.285,-0.488 -0.381,-0.166 -0.367,-0.663 1.361,-1.631"
     id="King William"
     inkscape:connector-curvature="0" />
  <path
     style="font-size:12px;fill:#d0d0d0;fill-rule:nonzero;stroke:#000000;stroke-width:1;stroke-linecap:butt;stroke-linejoin:bevel;stroke-miterlimit:4;stroke-opacity:1;stroke-dasharray:none;marker-start:none"
     d="m 63.703553,19.528566 0.915,-1.155 0.685,0.993 0.415,0.514 0.716,0.428 0.424,-0.082 0.47,-0.189 0.383,-0.037 0.133,0.082 0.461,0.464 0.085,0.194 1.293,1.398 0.041,0.973 0.04,0.108 0.262,0.275 0.051,0.122 0,0.062 -0.024,0.108 -0.081,0.176 -0.419,0.483 -0.388,-0.393 -0.63,-0.54 0.045,-0.072 0.017,-0.383 -0.017,-0.045 -0.266,-0.406 -1.456,-1.01 -1.835,-0.626 -0.974,-1.379 -0.238,-0.158 -0.108,0.095"
     id="King and Queen"
     inkscape:connector-curvature="0" />
  <path
     style="font-size:12px;fill:#d0d0d0;fill-rule:nonzero;stroke:#000000;stroke-width:1;stroke-linecap:butt;stroke-linejoin:bevel;stroke-miterlimit:4;stroke-opacity:1;stroke-dasharray:none;marker-start:none"
     d="m 68.959553,20.082566 1.405,1.338 0.389,0.317 0.098,0.036 1.168,-0.06 1.289,0.221 0.031,0.045 -0.027,0.096 -0.237,0.243 -0.186,0.049 -0.821,0.455 -2.385,-0.684 -1.293,-1.398 0.569,-0.658"
     id="Middlesex"
     inkscape:connector-curvature="0" />
  <path
     style="font-size:12px;fill:#d0d0d0;fill-rule:nonzero;stroke:#000000;stroke-width:1;stroke-linecap:butt;stroke-linejoin:bevel;stroke-miterlimit:4;stroke-opacity:1;stroke-dasharray:none;marker-start:none"
     d="m 72.068553,22.822566 0.596,1.384 -0.073,0 -0.163,0.329 -0.045,0.185 0.136,0.13 0.595,0.501 0.428,0.298 0.045,0.049 -0.117,0.072 -0.621,0.356 -0.664,0.301 -1.96,-1.441 -0.672,-0.541 0.419,-0.483 0.081,-0.176 0.024,-0.108 0,-0.062 -0.051,-0.122 -0.262,-0.275 -0.04,-0.108 -0.041,-0.973 2.385,0.684"
     id="Gloucester"
     inkscape:connector-curvature="0" />
  <path
     style="font-size:12px;fill:#d0d0d0;fill-rule:nonzero;stroke:#000000;stroke-width:1;stroke-linecap:butt;stroke-linejoin:bevel;stroke-miterlimit:4;stroke-opacity:1;stroke-dasharray:none;marker-start:none"
     d="m 69.305553,19.708566 1.203,-0.87 2.258,1.658 0.474,0.523 0.122,0.154 0.004,0.059 -0.807,0.211 -1.411,-0.447 -0.559,-0.315 -1.284,-0.973"
     id="Lancaster"
     inkscape:connector-curvature="0" />
  <path
     style="font-size:12px;fill:#d0d0d0;fill-rule:nonzero;stroke:#000000;stroke-width:1;stroke-linecap:butt;stroke-linejoin:bevel;stroke-miterlimit:4;stroke-opacity:1;stroke-dasharray:none;marker-start:none"
     d="m 65.646553,16.679566 -0.018,-0.1 0.486,-0.626 0.045,0.023 0.807,0.676 0.573,0.603 0.217,0.036 1.166,0.181 1.586,1.366 -1.203,0.87 -1.506,-0.806 -2.153,-2.223"
     id="Richmond Co."
     inkscape:connector-curvature="0" />
  <path
     style="font-size:12px;fill:#d0d0d0;fill-rule:nonzero;stroke:#000000;stroke-width:1;stroke-linecap:butt;stroke-linejoin:bevel;stroke-miterlimit:4;stroke-opacity:1;stroke-dasharray:none;marker-start:none"
     d="m 64.194553,15.850566 1.452,0.829 2.153,2.223 1.16,1.18 -0.569,0.658 -0.085,-0.194 -0.461,-0.464 -0.133,-0.082 -0.383,0.037 -0.47,0.189 -0.424,0.082 -0.716,-0.428 -0.415,-0.514 -0.685,-0.993 -0.928,-2.266 0.504,-0.257"
     id="Essex"
     inkscape:connector-curvature="0" />
  <path
     style="font-size:12px;fill:#d0d0d0;fill-opacity:1;fill-rule:nonzero;stroke:#000000;stroke-width:1;stroke-linecap:butt;stroke-linejoin:bevel;stroke-miterlimit:4;stroke-opacity:1;stroke-dasharray:none;marker-start:none"
     d="m 61.369553,15.309566 2.321,0.798 0.928,2.266 -0.915,1.155 -1.361,1.631 -3.453,-1.997 2.046,-3.786 0.434,-0.067"
     id="Caroline"
     inkscape:connector-curvature="0" />
  <path
     style="font-size:12px;fill:#d0d0d0;fill-opacity:1;fill-rule:nonzero;stroke:#000000;stroke-width:1;stroke-linecap:butt;stroke-linejoin:bevel;stroke-miterlimit:4;stroke-opacity:1;stroke-dasharray:none;marker-start:none"
     d="m 59.291553,4.9435664 2.347,1.176 -0.892,0.537 0.023,0.017 -0.343,0.279 0.343,0.447 0.604,-0.293 0.487,0.352 -0.234,0.545 0.563,0.113 0.617,-0.281 -0.243,1.1239995 -0.257,0.995 -0.884,0.1350001 -3.627,-2.0499996 1.496,-3.096 z m 0.234,2.506 -0.121,0.211 0,0.158 0.31,0.217 0.347,-0.059 0.238,-0.149 -0.053,-0.383 -0.068,-0.099 -0.315,-0.049 -0.338,0.153"
     id="Fairfax Co."
     inkscape:connector-curvature="0" />
  <path
     style="font-size:12px;fill:#d0d0d0;fill-opacity:1;fill-rule:nonzero;stroke:#000000;stroke-width:1;stroke-linecap:butt;stroke-linejoin:bevel;stroke-miterlimit:4;stroke-opacity:1;stroke-dasharray:none;marker-start:none"
     d="m 56.388553,7.0475664 1.407,0.992 3.627,2.0499996 -0.483,1.885 -2.37,-0.234 -0.383,-0.469 -2.113,-2.6999996 -0.032,-0.139 0.347,-1.385 z m 1.947,1.8219995 -0.009,-0.005 -0.203,0.212 -0.199,0.447 -0.021,0.139 0.076,0.216 0.266,0.117 0.491,-0.496 -0.009,-0.391 -0.081,-0.069 0.135,-0.067 0.181,-0.162 0,-0.085 -0.073,-0.046 -0.26,-0.086 -0.145,0.014 -0.058,0.099 -0.091,0.163 z m 0.618,0.26 0.189,0.073 0.085,-0.198 -0.054,-0.131 -0.13,-0.041 -0.181,0.194 0.019,0.091 0.072,0.012"
     id="Prince William"
     sodipodi:nodetypes="ccccccccccccccccccccccccccccccccccc"
     inkscape:connector-curvature="0" />
  <path
     style="font-size:12px;fill:#d0d0d0;fill-opacity:1;fill-rule:nonzero;stroke:#000000;stroke-width:1;stroke-linecap:butt;stroke-linejoin:bevel;stroke-miterlimit:4;stroke-opacity:1;stroke-dasharray:none;marker-start:none"
     d="m 58.182553,14.313566 -0.27,-0.505 0.657,-2.068 2.37,0.234 0.569,1.956 -0.139,1.379 -0.434,0.067 -0.855,-0.333 -0.036,-0.392 -0.172,-0.172 -0.189,-0.04 -0.253,-0.044 -0.126,0.084 -0.172,0.127 0.064,0.283 -1.014,-0.576"
     id="Stafford"
     inkscape:connector-curvature="0" />
  <path
     style="font-size:12px;fill:#d0d0d0;fill-rule:nonzero;stroke:#000000;stroke-width:1;stroke-linecap:butt;stroke-linejoin:bevel;stroke-miterlimit:4;stroke-opacity:1;stroke-dasharray:none;marker-start:none"
     d="m 61.508553,13.930566 3.02,0.307 -0.334,1.613 -0.504,0.257 -2.321,-0.798 0.139,-1.379"
     id="King George"
     inkscape:connector-curvature="0" />
  <path
     style="font-size:12px;fill:#d0d0d0;fill-rule:nonzero;stroke:#000000;stroke-width:1;stroke-linecap:butt;stroke-linejoin:bevel;stroke-miterlimit:4;stroke-opacity:1;stroke-dasharray:none;marker-start:none"
     d="m 64.528553,14.237566 0.514,0.748 0.964,0.354 0.383,0.042 0.96,-0.112 1.131,-0.181 0.132,0.018 0.036,0.009 0.883,0.766 0.095,0.077 0.202,0.316 0.05,0.095 -0.956,1.103 -1.166,-0.181 -0.217,-0.036 -0.573,-0.603 -0.807,-0.676 -0.045,-0.023 -0.486,0.626 0.018,0.1 -1.452,-0.829 0.334,-1.613"
     id="Westmoreland"
     inkscape:connector-curvature="0" />
  <path
     style="font-size:12px;fill:#d0d0d0;fill-rule:nonzero;stroke:#000000;stroke-width:1;stroke-linecap:butt;stroke-linejoin:bevel;stroke-miterlimit:4;stroke-opacity:1;stroke-dasharray:none;marker-start:none"
     d="m 69.878553,16.369566 0.171,0.13 1.028,0.523 0.266,0.05 0.329,0.017 0.081,0.014 0.09,0.018 0.022,0.004 0.848,0.288 0.346,0.222 0.005,0.743 -0.121,1.943 -0.177,0.175 -2.258,-1.658 -1.586,-1.366 0.956,-1.103"
     id="Northumberland"
     inkscape:connector-curvature="0" />
  <path
     style="font-size:12px;fill:#d0d0d0;fill-rule:nonzero;stroke:#000000;stroke-width:1;stroke-linecap:butt;stroke-linejoin:bevel;stroke-miterlimit:4;stroke-opacity:1;stroke-dasharray:none;marker-start:none"
     d="m 72.068553,22.822566 0.821,-0.455 0.604,0.127 0.062,0.022 0.086,0.062 0.231,0.302 0.217,0.411 0.174,0.536 0.059,0.216 0,0.154 -0.19,0.784 -0.341,-0.177 -1.127,-0.598 -0.596,-1.384"
     id="Mathews"
     inkscape:connector-curvature="0" />
  <path
     style="font-size:12px;fill:#d0d0d0;fill-opacity:1;fill-rule:nonzero;stroke:#000000;stroke-width:1;stroke-linecap:butt;stroke-linejoin:bevel;stroke-miterlimit:4;stroke-opacity:1;stroke-dasharray:none;marker-start:none"
     d="m 76.157553,29.718566 0.238,0.942 -0.415,0.297 -0.59,0.366 -0.806,-1.122 1.573,-0.483"
     id="Norfolk"
     inkscape:connector-curvature="0" />
  <path
     style="font-size:12px;fill:#d0d0d0;fill-rule:nonzero;stroke:#000000;stroke-width:1;stroke-linecap:butt;stroke-linejoin:bevel;stroke-miterlimit:4;stroke-opacity:1;stroke-dasharray:none;marker-start:none"
     d="m 69.315553,34.095566 0.004,-3.827 1.47,-2.168 2.392,2.345 -0.441,0.174 -0.04,0.023 -2.948,4.21 -0.131,-0.032 -0.306,-0.725"
     id="Isle of Wight"
     inkscape:connector-curvature="0" />
  <path
     style="font-size:12px;fill:#d0d0d0;fill-opacity:1;fill-rule:nonzero;stroke:#000000;stroke-width:1;stroke-linecap:butt;stroke-linejoin:bevel;stroke-miterlimit:4;stroke-opacity:1;stroke-dasharray:none;marker-start:none"
     d="m 73.979553,30.606566 -0.018,0.424 0.128,4.169 -0.506,0.108 -3.755,0.856 -0.018,0.004 -0.058,-1.315 2.948,-4.21 0.04,-0.023 0.441,-0.174 0.798,0.161"
     id="Suffolk"
     inkscape:connector-curvature="0" />
  <path
     style="font-size:12px;fill:#d0d0d0;fill-opacity:1;fill-rule:nonzero;stroke:#000000;stroke-width:1;stroke-linecap:butt;stroke-linejoin:bevel;stroke-miterlimit:4;stroke-opacity:1;stroke-dasharray:none;marker-start:none"
     d="m 75.390553,31.323566 0.59,-0.366 1.82,3.458 -1.919,0.405 -1.792,0.379 -0.128,-4.169 0.447,0.672 0.982,-0.379"
     id="Chesapeake"
     inkscape:connector-curvature="0" />
  <path
     style="font-size:12px;fill:#d0d0d0;fill-opacity:1;fill-rule:nonzero;stroke:#000000;stroke-width:1;stroke-linecap:butt;stroke-linejoin:bevel;stroke-miterlimit:4;stroke-opacity:1;stroke-dasharray:none;marker-start:none"
     d="m 76.157553,29.718566 1.505,-0.338 0.202,-0.027 0.068,0.01 0.13,0.061 0.077,0.132 2.068,3.903 0.164,0.406 -2.571,0.55 -1.82,-3.458 0.415,-0.297 -0.238,-0.942"
     id="Virginia Beach"
     inkscape:connector-curvature="0" />
  <path
     style="font-size:12px;fill:#d0d0d0;fill-opacity:1;fill-rule:nonzero;stroke:#000000;stroke-width:1;stroke-linecap:butt;stroke-linejoin:bevel;stroke-miterlimit:4;stroke-opacity:1;stroke-dasharray:none;marker-start:none"
     d="m 58.624073,8.5830664 -0.14453,0.0234 -0.0703,0.13671 -0.0742,0.12891 0.22265,0.0898 0.0977,0.0898 0.0586,-0.043 0.0625,-0.0352 0.0352,-0.0156 0.0586,0.0859 0.004,0.0703 0.11719,0.0274 0.16406,0.0664 0.0703,-0.19922 -0.0586,-0.14062 -0.13281,-0.0352 -0.0664,-0.0312 0,-0.0742 -0.0742,-0.043 -0.26953,-0.1015586 z"
     sodipodi:nodetypes="cccccccccccccccccccc"
     id="Manassas Park"
     inkscape:connector-curvature="0" />
</svg>
