<?xml version="1.0" encoding="UTF-8" standalone="no"?>
<!-- Created with Inkscape (http://www.inkscape.org/) -->

<svg
   xmlns:dc="http://purl.org/dc/elements/1.1/"
   xmlns:cc="http://creativecommons.org/ns#"
   xmlns:rdf="http://www.w3.org/1999/02/22-rdf-syntax-ns#"
   xmlns:svg="http://www.w3.org/2000/svg"
   xmlns="http://www.w3.org/2000/svg"
   xmlns:sodipodi="http://sodipodi.sourceforge.net/DTD/sodipodi-0.dtd"
   xmlns:inkscape="http://www.inkscape.org/namespaces/inkscape"
   version="1.0"
   width="109.78"
   height="71.489998"
   sodipodi:version="0.32"
   inkscape:version="0.48.2 r9819"
   sodipodi:docname="mt.svg"
   inkscape:output_extension="org.inkscape.output.svg.inkscape"
   id="svg3049">
  <metadata
     id="metadata3051">
    <rdf:RDF>
      <cc:Work
         rdf:about="">
        <dc:format>image/svg+xml</dc:format>
        <dc:type
           rdf:resource="http://purl.org/dc/dcmitype/StillImage" />
      </cc:Work>
    </rdf:RDF>
  </metadata>
  <sodipodi:namedview
     inkscape:window-height="746"
     inkscape:window-width="1366"
     inkscape:pageshadow="2"
     inkscape:pageopacity="0.0"
     guidetolerance="10.0"
     gridtolerance="10.0"
     objecttolerance="10.0"
     borderopacity="1.0"
     bordercolor="#666666"
     pagecolor="#ffffff"
     inkscape:zoom="2.5860959"
     inkscape:cx="113.30537"
     inkscape:cy="55.037805"
     inkscape:window-x="-8"
     inkscape:window-y="-8"
     inkscape:current-layer="svg3049"
     showguides="true"
     inkscape:guide-bbox="true"
     fit-margin-top="0"
     fit-margin-left="0"
     fit-margin-right="0"
     fit-margin-bottom="0"
     inkscape:window-maximized="0"
     id="namedview3053"
     showgrid="false" />
  <defs
     id="defs3055" />
  <path
     style="font-size:12px;fill:#d0d0d0;fill-rule:nonzero;stroke:#000000;stroke-width:1;stroke-linecap:butt;stroke-linejoin:bevel;stroke-miterlimit:4;stroke-opacity:1;stroke-dasharray:none;marker-start:none"
     d="m 107.0416,17.551735 -0.388,4.651 -0.257,3.11 -5.021,-0.437 0.104,-1.109 -1.019,-1.208 -1.857,-0.175 0.104,-1.1 -0.563,-0.059 0.153,-3.322 0.109,-1.122 8.635,0.771"
     id="Sheridan"
     inkscape:connector-curvature="0" />
  <path
     style="font-size:12px;fill:#d0d0d0;fill-rule:nonzero;stroke:#000000;stroke-width:1;stroke-linecap:butt;stroke-linejoin:bevel;stroke-miterlimit:4;stroke-opacity:1;stroke-dasharray:none;marker-start:none"
     d="m 98.6036,22.383735 1.857,0.175 1.019,1.208 -0.104,1.109 5.021,0.437 -0.401,5.012 -1.654,-0.573 -1.704,-0.991 -3.65,-0.919 -0.51,0.207 -0.23,0.306 -0.279,0.212 -0.185,0.094 -1.059,-0.004 -0.645,-0.126 -0.491,-0.356 -0.739,-0.144 -0.645,-0.027 -1.577,-0.023 -0.428,0.014 -0.469,0.257 -1.352,0.414 0.28,-2.654 0.337,0.036 0.451,-4.372 7.157,0.708"
     id="Roosevelt"
     inkscape:connector-curvature="0" />
  <path
     style="font-size:12px;fill:#d0d0d0;fill-rule:nonzero;stroke:#000000;stroke-width:1;stroke-linecap:butt;stroke-linejoin:bevel;stroke-miterlimit:4;stroke-opacity:1;stroke-dasharray:none;marker-start:none"
     d="m 41.5536,45.742735 2.465,0.397 -0.158,0.631 -0.302,1.803 -0.067,0.667 -0.145,0.929 -0.188,1.131 -0.438,2.483 -0.645,0.424 -0.599,0.23 -0.153,1.104 -0.18,1.113 -1.082,-0.171 -0.433,2.213 -0.158,0.964 -0.175,1.271 -0.784,4.26 -0.334,2.461 -0.734,-0.681 -0.104,-0.307 -0.401,-1.158 -0.74,-1.451 -0.433,-0.428 0.339,-2.037 0.951,-5.585 0.261,-0.36 0.536,-3.313 -1.654,-0.275 -0.612,-0.852 -0.352,-0.627 -0.419,-0.45 -0.329,-0.243 -0.352,-0.208 1.37,-0.234 1.925,-1.222 0.527,-0.482 0.121,-0.852 0.316,-0.518 0.6,-0.766 0.396,-0.144 1.298,0.139 0.866,0.144"
     id="Gallatin"
     inkscape:connector-curvature="0" />
  <path
     style="font-size:12px;fill:#d0d0d0;fill-rule:nonzero;stroke:#000000;stroke-width:1;stroke-linecap:butt;stroke-linejoin:bevel;stroke-miterlimit:4;stroke-opacity:1;stroke-dasharray:none;marker-start:none"
     d="m 30.6056,49.727735 0.05,0.018 0.176,-0.009 0.292,-0.217 0.262,-0.486 0.049,-0.248 0.104,-0.095 0.221,-0.076 0.581,-0.037 0.771,0.194 0.996,0.699 0.041,0.067 -0.014,0.14 0.352,0.208 0.329,0.243 0.419,0.45 0.352,0.627 0.612,0.852 1.654,0.275 -0.536,3.313 -0.261,0.36 -0.951,5.585 -0.339,2.037 -1.027,0.387 -2.718,-0.446 0.154,-0.919 -1.091,-0.18 -1.469,-0.289 -0.821,-0.703 -0.022,-1.131 0.189,-1.114 -1.289,-0.225 -0.91,-1.312 0.577,-3.321 0.035,-0.573 -0.257,-0.685 -0.274,-0.081 -0.244,0.054 -0.148,0.081 -0.167,-0.022 -0.266,-0.194 -0.451,-0.582 -0.022,-0.067 0.004,-0.653 0.36,-1.137 0.871,-0.333 0.432,-0.189 0.221,-0.162 0.108,-0.104 0.636,-0.347 2.429,0.347"
     id="Madison"
     inkscape:connector-curvature="0" />
  <path
     style="font-size:12px;fill:#d0d0d0;fill-rule:nonzero;stroke:#000000;stroke-width:1;stroke-linecap:butt;stroke-linejoin:bevel;stroke-miterlimit:4;stroke-opacity:1;stroke-dasharray:none;marker-start:none"
     d="m 35.9286,39.920735 1.334,0.05 0.333,-1.975 0.348,-0.423 0.049,-0.028 0.149,-0.027 0.744,0.374 2.204,4.471 0.405,2.624 0.059,0.756 -0.866,-0.144 -1.298,-0.139 -0.396,0.144 -0.6,0.766 -0.316,0.518 -0.121,0.852 -0.527,0.482 -1.925,1.222 0.451,-2.745 -1.1,-0.189 1.073,-6.589"
     id="Broadwater"
     inkscape:connector-curvature="0" />
  <path
     style="font-size:12px;fill:#d0d0d0;fill-rule:nonzero;stroke:#000000;stroke-width:1;stroke-linecap:butt;stroke-linejoin:bevel;stroke-miterlimit:4;stroke-opacity:1;stroke-dasharray:none;marker-start:none"
     d="m 31.0066,41.010735 0.339,0.131 0.333,-0.077 0.582,-0.288 0.022,-0.032 -0.027,-0.207 1.55,-0.978 2.123,0.361 -1.073,6.589 1.1,0.189 -0.451,2.745 -1.37,0.234 0.014,-0.14 -0.041,-0.067 -0.996,-0.699 -0.771,-0.194 -0.581,0.037 -0.221,0.076 -0.104,0.095 -0.049,0.248 -0.262,0.486 -0.292,0.217 -0.176,0.009 -0.05,-0.018 -1.528,-1.266 -0.256,-0.587 0.085,-2.69 0.004,-0.248 -0.468,-1.158 -0.321,-0.108 0.357,-1.074 0.005,-0.324 0.035,-0.194 0.329,-0.274 1.384,-0.433 0.775,-0.361"
     id="Jefferson"
     inkscape:connector-curvature="0" />
  <path
     style="font-size:12px;fill:#d0d0d0;fill-rule:nonzero;stroke:#000000;stroke-width:1;stroke-linecap:butt;stroke-linejoin:bevel;stroke-miterlimit:4;stroke-opacity:1;stroke-dasharray:none;marker-start:none"
     d="m 28.1216,43.670735 0.321,0.108 0.468,1.158 -0.004,0.248 -0.085,2.69 0.256,0.587 1.528,1.266 -2.429,-0.347 -0.636,0.347 -0.108,0.104 -0.221,0.162 -0.432,0.189 -0.871,0.333 -0.378,-1.266 -0.307,-0.609 -0.315,-0.306 -1.438,-0.748 -0.572,-0.69 0.581,-0.058 0.397,-0.194 0.523,-0.329 0.104,-0.099 0.892,-1.325 0.856,-0.992 1.095,-0.009 0.775,-0.22"
     id="Silver Bow"
     inkscape:connector-curvature="0" />
  <path
     style="font-size:12px;fill:#d0d0d0;fill-rule:nonzero;stroke:#000000;stroke-width:1;stroke-linecap:butt;stroke-linejoin:bevel;stroke-miterlimit:4;stroke-opacity:1;stroke-dasharray:none;marker-start:none"
     d="m 28.4786,42.596735 -0.357,1.074 -0.775,0.22 -1.095,0.009 -0.856,0.992 -0.892,1.325 -0.104,0.099 -0.523,0.329 -0.397,0.194 -0.581,0.058 0.009,-0.149 -0.085,-0.134 -0.063,-0.027 -0.627,-0.154 -0.338,0.073 -1.267,0.608 -0.153,0.185 -0.649,-0.374 -0.059,-0.681 -0.225,-0.965 -0.045,-0.08 -0.036,-0.005 -0.099,0.013 -0.009,-0.018 0.766,-0.397 0.766,-0.197 0.987,-1.506 0.203,-1.1 2.186,0.392 0.099,-0.549 4.219,0.765"
     id="Deer Lodge"
     inkscape:connector-curvature="0" />
  <path
     style="font-size:12px;fill:#d0d0d0;fill-rule:nonzero;stroke:#000000;stroke-width:1;stroke-linecap:butt;stroke-linejoin:bevel;stroke-miterlimit:4;stroke-opacity:1;stroke-dasharray:none;marker-start:none"
     d="m 19.2616,45.206735 0.099,-0.013 0.036,0.005 0.045,0.08 0.225,0.965 0.059,0.681 0.649,0.374 0.153,-0.185 1.267,-0.608 0.338,-0.073 0.627,0.154 0.063,0.027 0.085,0.134 -0.009,0.149 0.572,0.69 1.438,0.748 0.315,0.306 0.307,0.609 0.378,1.266 -0.36,1.137 -0.004,0.653 0.022,0.067 0.451,0.582 0.266,0.194 0.167,0.022 0.148,-0.081 0.244,-0.054 0.274,0.081 0.257,0.685 -0.035,0.573 -0.577,3.321 0.91,1.312 1.289,0.225 -0.189,1.114 0.022,1.131 0.821,0.703 1.469,0.289 1.091,0.18 -0.154,0.919 2.718,0.446 -1.559,1.79 -1.172,-0.032 -1.817,-0.518 -2.51,-0.257 -1.37,0.514 -3.223,-0.802 -0.608,0.144 -0.356,0.378 -0.131,0.203 -0.108,0.482 -0.005,0.032 -0.09,0.14 -0.185,0.103 -0.234,-0.085 -0.734,-0.821 -0.249,-0.36 -0.107,-0.609 0.013,-1.609 0.036,-0.027 0.054,-0.099 0,-0.099 -0.262,-1.122 -0.197,-0.618 -0.172,-0.266 -0.383,-0.428 -0.32,-0.252 -0.307,0.076 -1.496,-2.082 -1.411,-5.246 -0.013,-1.01 0.023,-0.766 0.117,-0.212 0.008,-0.383 -0.103,-1.023 -0.05,-0.162 -0.874,-1.235 -0.185,-0.194 0.185,0.014 0.298,-0.05 2.853,-1.262 0.563,-0.297 0.32,-0.226 0.284,-0.532"
     id="Beaverhead"
     inkscape:connector-curvature="0" />
  <path
     style="font-size:12px;fill:#d0d0d0;fill-rule:nonzero;stroke:#000000;stroke-width:1;stroke-linecap:butt;stroke-linejoin:bevel;stroke-miterlimit:4;stroke-opacity:1;stroke-dasharray:none;marker-start:none"
     d="m 18.2386,35.557735 -0.496,1.626 0.135,2.083 0.031,1.271 -0.459,1.172 0.054,1.721 0.654,1.222 0.545,0.451 0.55,0.085 0.009,0.018 -0.284,0.532 -0.32,0.226 -0.563,0.297 -2.853,1.262 -0.298,0.05 -0.185,-0.014 -0.793,0.455 -1.113,0.974 -1.767,0.811 -0.37,-0.058 0,-0.005 -0.081,-0.315 -0.6620004,-1.046 -0.113,-0.05 -0.356,-0.09 -0.397,-0.054 -0.027,-0.032 0.009,-0.045 0.158,-0.874 0.315,-1.726 2.5150004,-6.274 0.789,-1.753 0.527,-1.213 0.312,-0.883 0.054,-0.284 -0.032,-0.149 -0.049,-0.049 4.561,0.658"
     id="Ravalli"
     inkscape:connector-curvature="0" />
  <path
     style="font-size:12px;fill:#d0d0d0;fill-rule:nonzero;stroke:#000000;stroke-width:1;stroke-linecap:butt;stroke-linejoin:bevel;stroke-miterlimit:4;stroke-opacity:1;stroke-dasharray:none;marker-start:none"
     d="m 23.2326,34.254735 1.104,1.523 0.257,0.276 0.504,-0.127 0.136,-0.063 0.09,0.027 -0.568,3.241 -0.496,2.7 -0.099,0.549 -2.186,-0.392 -0.203,1.1 -0.987,1.506 -0.766,0.197 -0.766,0.397 -0.55,-0.085 -0.545,-0.451 -0.654,-1.222 -0.054,-1.721 0.459,-1.172 -0.031,-1.271 -0.135,-2.083 0.496,-1.626 0.293,0.09 1.104,0.207 1.856,-0.847 0.123,-0.667 0.626,-0.266 0.992,0.18"
     id="Granite"
     inkscape:connector-curvature="0" />
  <path
     style="font-size:12px;fill:#d0d0d0;fill-rule:nonzero;stroke:#000000;stroke-width:1;stroke-linecap:butt;stroke-linejoin:bevel;stroke-miterlimit:4;stroke-opacity:1;stroke-dasharray:none;marker-start:none"
     d="m 28.5686,20.611735 0.122,2.447 -0.086,0.942 0.036,0.122 0.293,0.663 0.284,0.446 0.315,0.176 0.068,0.013 1.018,-0.135 0.992,-0.207 0.045,0.009 0.983,0.811 0.072,0.266 -0.045,0.063 -0.009,0.288 0.013,0.028 0.974,0.694 0.581,0.216 0.907,0.126 0.558,-0.027 -0.676,4.092 0.816,0.803 0.333,0.284 0.19,0.022 0.031,-0.045 0.721,0.117 -0.46,2.723 1.155,0.198 1.086,2.145 -0.744,-0.374 -0.149,0.027 -0.049,0.028 -0.348,0.423 -0.333,1.975 -1.334,-0.05 -2.123,-0.361 -1.55,0.978 0.027,0.207 -0.022,0.032 -0.582,0.288 -0.333,0.077 -0.339,-0.131 0.117,-0.365 0.374,-1.83 -0.112,-0.806 -0.644,-0.681 -1.096,-0.176 0.303,-1.717 -1.164,-0.198 -0.099,0.013 -1.019,-0.185 0.744,-4.196 0.027,-0.171 -2.199,-0.392 -0.077,-0.045 0.699,-3.876 -0.158,0 -0.243,-1.001 -0.086,-0.518 0.104,-1.6 0.022,-0.099 1.235,-1.803 0.464,-0.491 0.37,-0.262"
     id="Lewis and Clark"
     inkscape:connector-curvature="0" />
  <path
     style="font-size:12px;fill:#d0d0d0;fill-rule:nonzero;stroke:#000000;stroke-width:1;stroke-linecap:butt;stroke-linejoin:bevel;stroke-miterlimit:4;stroke-opacity:1;stroke-dasharray:none;marker-start:none"
     d="m 23.6016,24.307735 2.772,0.559 0.086,0.518 0.243,1.001 0.158,0 -0.699,3.876 0.077,0.045 2.199,0.392 -0.027,0.171 -0.744,4.196 1.019,0.185 0.099,-0.013 1.164,0.198 -0.303,1.717 1.096,0.176 0.644,0.681 0.112,0.806 -0.374,1.83 -0.117,0.365 -0.775,0.361 -1.384,0.433 -0.329,0.274 -0.035,0.194 -0.005,0.324 -4.219,-0.765 0.496,-2.7 0.568,-3.241 -0.09,-0.027 -0.136,0.063 -0.504,0.127 -0.257,-0.276 -1.104,-1.523 0.806,-4.385 -1.42,-0.253 0.983,-5.309"
     id="Powell"
     inkscape:connector-curvature="0" />
  <path
     style="font-size:12px;fill:#d0d0d0;fill-rule:nonzero;stroke:#000000;stroke-width:1;stroke-linecap:butt;stroke-linejoin:bevel;stroke-miterlimit:4;stroke-opacity:1;stroke-dasharray:none;marker-start:none"
     d="m 22.1556,24.041735 -2.714,-0.523 0.288,4.309 0.018,0.077 -0.212,1.095 -1.076,0.365 -2.205,-0.424 0.113,-0.55 0.284,-2.217 -0.739,-0.144 -0.212,-0.095 -0.072,-0.081 -0.189,-0.352 0.221,-0.617 0.203,-0.32 0.045,-0.014 0.072,0.041 0.211,-0.311 0.032,-1.294 -0.049,-0.072 -0.19,-0.085 -0.541,-0.104 -1.469,-0.289 0.176,-1.852 0.112,-0.545 1.091,0.216 0.212,-1.073 -0.013,-0.383 0.103,-0.73 3.885,0.748 0.05,-0.346 -0.018,-0.095 -0.041,-0.054 -0.062,-0.01 -0.014,-0.301 0.166,-0.154 0.226,-0.144 1.216,0.243 1.474,2.312 0.018,0.068 0.145,2.222 -0.009,0.316 -0.041,0.198 -0.495,0.969"
     id="Lake"
     inkscape:connector-curvature="0" />
  <path
     style="font-size:12px;fill:#d0d0d0;fill-rule:nonzero;stroke:#000000;stroke-width:1;stroke-linecap:butt;stroke-linejoin:bevel;stroke-miterlimit:4;stroke-opacity:1;stroke-dasharray:none;marker-start:none"
     d="m 22.1556,24.041735 1.446,0.266 -0.983,5.309 1.42,0.253 -0.806,4.385 -0.992,-0.18 -0.626,0.266 -0.123,0.667 -1.856,0.847 -1.104,-0.207 -0.293,-0.09 -4.561,-0.658 -0.041,-0.041 -0.158,-0.131 -0.464,-0.063 -0.23,0.045 -0.14,0.054 -0.203,0.054 -0.96,-0.202 -0.018,-0.014 -0.487,-1.221 0.068,-0.352 1.213,-1.144 0.942,-1.858 -0.406,-0.838 -1.568,-2.578 0.067,-0.356 0.974,0.117 0.491,0.212 0.631,0.351 1.027,0.762 0.285,0.289 0.162,0.446 0.455,0.46 0.131,0.09 0.185,0.068 0.621,-0.109 2.205,0.424 1.076,-0.365 0.212,-1.095 -0.018,-0.077 -0.288,-4.309 2.714,0.523"
     id="Missoula"
     inkscape:connector-curvature="0" />
  <path
     style="font-size:12px;fill:#d0d0d0;fill-rule:nonzero;stroke:#000000;stroke-width:1;stroke-linecap:butt;stroke-linejoin:bevel;stroke-miterlimit:4;stroke-opacity:1;stroke-dasharray:none;marker-start:none"
     d="m 3.8695996,21.319735 0.311,0.541 0.198,0.229 0.424,0.145 0.352,0.117 1.171,0.203 0.298,-0.077 0.072,0.009 0.964,0.176 0.271,0.135 1.73,1.217 0.3790004,0.329 0.036,0.289 -0.1570004,0.77 0.9870004,0.776 0.387,0.076 -0.067,0.356 1.568,2.578 0.406,0.838 -0.942,1.858 -1.213,1.144 -0.068,0.352 -0.387,-0.005 -0.058,-0.018 -0.126,-0.036 -1.2990004,-1.735 -0.04,-0.109 0,-0.008 -0.172,-1.303 -0.225,-0.415 -0.415,-0.775 -0.734,-1.713 -0.784,-1.766 -0.149,-0.109 -0.685,-0.274 -0.473,-0.23 -0.149,-0.131 -0.189,-0.162 -1.38,-1.907 -0.009,-0.319 0,-0.009 0.167,-1.037"
     id="Mineral"
     inkscape:connector-curvature="0" />
  <path
     style="font-size:12px;fill:#d0d0d0;fill-rule:nonzero;stroke:#000000;stroke-width:1;stroke-linecap:butt;stroke-linejoin:bevel;stroke-miterlimit:4;stroke-opacity:1;stroke-dasharray:none;marker-start:none"
     d="m 3.0085996,12.165736 0.906,0.607999 0.5,-0.149 0.996,-0.436999 0.704,1.437999 0.491,2.628 0.469,0.649 0.09,0.072 1.568,0.636 0.879,-0.199 0.4230004,-0.491 0.091,-0.69 1.226,0.253 0.148,0.22 -0.333,1.632 1.1,0.221 0.739,0.126 1.469,0.28 -0.212,1.077 -0.112,0.545 -0.176,1.852 1.469,0.289 0.541,0.104 0.19,0.085 0.049,0.072 -0.032,1.294 -0.211,0.311 -0.072,-0.041 -0.045,0.014 -0.203,0.32 -0.221,0.617 0.189,0.352 0.072,0.081 0.212,0.095 0.739,0.144 -0.284,2.217 -0.113,0.55 -0.621,0.109 -0.185,-0.068 -0.131,-0.09 -0.455,-0.46 -0.162,-0.446 -0.285,-0.289 -1.027,-0.762 -0.631,-0.351 -0.491,-0.212 -0.974,-0.117 -0.387,-0.076 -0.9870004,-0.776 0.1570004,-0.77 -0.036,-0.289 -0.3790004,-0.329 -1.73,-1.217 -0.271,-0.135 -0.964,-0.176 -0.072,-0.009 -0.298,0.077 -1.171,-0.203 -0.352,-0.117 -0.424,-0.145 -0.198,-0.229 -0.311,-0.541 0.248,-0.564 0.293,-0.743 0.004,-0.722 0,-0.049 -0.004,-0.014 -0.014,-0.031 -0.013,-0.045 -1.735,-3.534 -0.266,-0.473 0.626,-2.978999"
     id="Sanders"
     inkscape:connector-curvature="0" />
  <path
     style="font-size:12px;fill:#d0d0d0;fill-rule:nonzero;stroke:#000000;stroke-width:1;stroke-linecap:butt;stroke-linejoin:bevel;stroke-miterlimit:4;stroke-opacity:1;stroke-dasharray:none;marker-start:none"
     d="m 3.7795996,8.5827369 1.33,-6.2240004 6.7110004,1.428 3.722,0.744 0.685,0.135 -0.013,1.776 0.374,1.492 0,0.036 -0.459,1.1180004 -2.115,-0.42 -0.031,0.730999 0.144,0.401 -0.856,4.3489991 -1.271,-0.257 -0.198,-0.036 -0.226,1.086 -0.225,1.542 -1.226,-0.253 -0.091,0.69 -0.4230004,0.491 -0.879,0.199 -1.568,-0.636 -0.09,-0.072 -0.469,-0.649 -0.491,-2.628 -0.704,-1.437999 -0.996,0.436999 -0.5,0.149 -0.906,-0.607999 0.771,-3.5829991"
     id="Lincoln"
     inkscape:connector-curvature="0" />
  <path
     style="font-size:12px;fill:#d0d0d0;fill-rule:nonzero;stroke:#000000;stroke-width:1;stroke-linecap:butt;stroke-linejoin:bevel;stroke-miterlimit:4;stroke-opacity:1;stroke-dasharray:none;marker-start:none"
     d="m 21.7856,5.7697365 0.157,2.204 0.357,0.252 1.838,1.3169994 1.672,2.8529991 -0.045,0.202 -0.058,0.136 -0.212,0.734 0.555,1.618 0.211,0.474 0.749,1.338 -0.081,0.532 0.022,0.072 0.789,0.541 0.054,0.036 0.063,0.023 0.757,0.234 0.086,-0.018 -0.131,2.294 -0.37,0.262 -0.464,0.491 -1.235,1.803 -0.022,0.099 -0.104,1.6 -2.772,-0.559 -1.446,-0.266 0.495,-0.969 0.041,-0.198 0.009,-0.316 -0.145,-2.222 -0.018,-0.068 -1.474,-2.312 -1.216,-0.243 -0.226,0.144 -0.166,0.154 0.014,0.301 0.062,0.01 0.041,0.054 0.018,0.095 -0.05,0.346 -3.885,-0.748 -0.103,0.73 0.013,0.383 -0.212,1.073 -1.091,-0.216 0.212,-1.077 -1.469,-0.28 -0.739,-0.126 -1.1,-0.221 0.333,-1.632 -0.148,-0.22 0.225,-1.542 0.226,-1.086 0.198,0.036 1.271,0.257 0.856,-4.3489991 -0.144,-0.401 0.031,-0.730999 2.115,0.42 0.459,-1.1180004 0,-0.036 -0.374,-1.492 0.013,-1.776 5.558,1.104"
     id="Flathead"
     inkscape:connector-curvature="0" />
  <path
     style="font-size:12px;fill:#d0d0d0;fill-rule:nonzero;stroke:#000000;stroke-width:1;stroke-linecap:butt;stroke-linejoin:bevel;stroke-miterlimit:4;stroke-opacity:1;stroke-dasharray:none;marker-start:none"
     d="m 36.5866,15.230735 -0.234,-0.095 -0.32,-0.081 -2.781,-0.482 -0.384,2.145 -0.036,0.031 -6.571,-1.189 -0.211,-0.474 -0.555,-1.618 0.212,-0.734 0.058,-0.136 0.045,-0.202 -1.672,-2.8529991 -1.838,-1.3169994 -0.357,-0.252 -0.157,-2.204 0.829,0.162 2.339,0.465 4.872,0.892 0.902,0.158 6.909,1.2260004 -1.05,6.5579981"
     id="Glacier"
     inkscape:connector-curvature="0" />
  <path
     style="font-size:12px;fill:#d0d0d0;fill-rule:nonzero;stroke:#000000;stroke-width:1;stroke-linecap:butt;stroke-linejoin:bevel;stroke-miterlimit:4;stroke-opacity:1;stroke-dasharray:none;marker-start:none"
     d="m 45.4566,9.9847359 4.475,0.7070001 -0.23,1.05 -0.676,4.380999 -0.333,1.807 -0.401,2.561 -0.613,-0.095 -0.171,1.09 -5.008,-0.788 0.181,-1.1 1.153,0.185 0.703,-4.376 0.753,-4.367999 0.167,-1.0540001"
     id="Liberty"
     inkscape:connector-curvature="0" />
  <path
     style="font-size:12px;fill:#d0d0d0;fill-rule:nonzero;stroke:#000000;stroke-width:1;stroke-linecap:butt;stroke-linejoin:bevel;stroke-miterlimit:4;stroke-opacity:1;stroke-dasharray:none;marker-start:none"
     d="m 36.5866,15.230735 1.05,-6.5579981 2.876,0.491 0.78,0.134999 2.149,0.356 2.015,0.33 -0.167,1.0540001 -0.753,4.367999 -0.703,4.376 -1.153,-0.185 -2.213,-0.365 0.279,-1.64 -1.05,-0.546 -0.807,-0.329 -0.829,-0.158 -1.406,-1.181 -0.068,-0.148"
     id="Toole"
     inkscape:connector-curvature="0" />
  <path
     style="font-size:12px;fill:#d0d0d0;fill-rule:nonzero;stroke:#000000;stroke-width:1;stroke-linecap:butt;stroke-linejoin:bevel;stroke-miterlimit:4;stroke-opacity:1;stroke-dasharray:none;marker-start:none"
     d="m 26.2606,15.559735 6.571,1.189 0.036,-0.031 0.384,-2.145 2.781,0.482 0.32,0.081 0.234,0.095 0.068,0.148 1.406,1.181 0.829,0.158 0.807,0.329 1.05,0.546 -0.279,1.64 2.213,0.365 -0.181,1.1 -0.293,1.83 -4.962,-0.794 0.09,-0.518 -1.442,-1.609 -7.193,-1.289 -0.086,0.018 -0.757,-0.234 -0.063,-0.023 -0.054,-0.036 -0.789,-0.541 -0.022,-0.072 0.081,-0.532 -0.749,-1.338"
     id="Pondera"
     inkscape:connector-curvature="0" />
  <path
     style="font-size:12px;fill:#d0d0d0;fill-rule:nonzero;stroke:#000000;stroke-width:1;stroke-linecap:butt;stroke-linejoin:bevel;stroke-miterlimit:4;stroke-opacity:1;stroke-dasharray:none;marker-start:none"
     d="m 28.6996,18.317735 7.193,1.289 1.442,1.609 -0.09,0.518 4.962,0.794 -0.604,3.651 -2.231,-0.366 -0.18,1.096 -2.217,-0.375 -0.397,1.303 -0.888,-0.284 -0.558,0.027 -0.907,-0.126 -0.581,-0.216 -0.974,-0.694 -0.013,-0.028 0.009,-0.288 0.045,-0.063 -0.072,-0.266 -0.983,-0.811 -0.045,-0.009 -0.992,0.207 -1.018,0.135 -0.068,-0.013 -0.315,-0.176 -0.284,-0.446 -0.293,-0.663 -0.036,-0.122 0.086,-0.942 -0.122,-2.447 0.131,-2.294"
     id="Teton"
     inkscape:connector-curvature="0" />
  <path
     style="font-size:12px;fill:#d0d0d0;fill-rule:nonzero;stroke:#000000;stroke-width:1;stroke-linecap:butt;stroke-linejoin:bevel;stroke-miterlimit:4;stroke-opacity:1;stroke-dasharray:none;marker-start:none"
     d="m 35.6896,27.552735 0.888,0.284 0.397,-1.303 2.217,0.375 0.18,-1.096 2.231,0.366 3.746,0.594 -0.297,0.374 -0.185,0.185 -0.302,0.455 -0.054,0.154 0.04,0.103 2.091,2.213 1.068,0.55 -0.108,0.726 -1.113,-0.176 -0.288,0.626 -0.113,0.731 -0.167,1.974 1.109,0.176 -0.257,2.19 -0.171,1.1 -0.172,0.149 -0.842,-0.907 -1.127,-1.437 -0.09,-0.077 -1.212,-0.969 -4.138,-0.095 -0.185,1.1 -1.036,-0.171 -1.155,-0.198 0.46,-2.723 -0.721,-0.117 -0.031,0.045 -0.19,-0.022 -0.333,-0.284 -0.816,-0.803 0.676,-4.092"
     id="Cascade"
     inkscape:connector-curvature="0" />
  <path
     style="font-size:12px;fill:#d0d0d0;fill-rule:nonzero;stroke:#000000;stroke-width:1;stroke-linecap:butt;stroke-linejoin:bevel;stroke-miterlimit:4;stroke-opacity:1;stroke-dasharray:none;marker-start:none"
     d="m 37.7996,35.746735 1.036,0.171 0.185,-1.1 4.138,0.095 1.212,0.969 0.09,0.077 1.127,1.437 0.842,0.907 -0.013,0.288 0.036,0.144 0.072,0.153 0.09,0.122 1.312,1.375 0.802,0.013 0.816,-0.149 -0.37,2.434 -0.369,1.956 -0.28,1.831 -0.067,0.459 -4.44,-0.789 -2.465,-0.397 -0.059,-0.756 -0.405,-2.624 -2.204,-4.471 -1.086,-2.145"
     id="Meagher"
     inkscape:connector-curvature="0" />
  <path
     style="font-size:12px;fill:#d0d0d0;fill-rule:nonzero;stroke:#000000;stroke-width:1;stroke-linecap:butt;stroke-linejoin:bevel;stroke-miterlimit:4;stroke-opacity:1;stroke-dasharray:none;marker-start:none"
     d="m 44.0186,46.139735 4.44,0.789 -0.194,0.631 -0.672,4.439 0.64,0.095 -0.324,2.33 -0.446,2.899 -0.145,0.319 -0.333,2.245 1.483,0.234 2.384,0.41 -0.311,2.11 -2.055,-0.32 -0.758,-0.118 -1.018,-0.049 -2.997,-0.406 -0.023,-0.004 -1.357,-0.212 -0.396,-0.136 -1.122,-0.229 -1.519,-0.235 0.175,-1.271 0.158,-0.964 0.433,-2.213 1.082,0.171 0.18,-1.113 0.153,-1.104 0.599,-0.23 0.645,-0.424 0.438,-2.483 0.188,-1.131 0.145,-0.929 0.067,-0.667 0.302,-1.803 0.158,-0.631"
     id="Park"
     inkscape:connector-curvature="0" />
  <path
     style="font-size:12px;fill:#d0d0d0;fill-rule:nonzero;stroke:#000000;stroke-width:1;stroke-linecap:butt;stroke-linejoin:bevel;stroke-miterlimit:4;stroke-opacity:1;stroke-dasharray:none;marker-start:none"
     d="m 49.9316,10.691736 10.66,1.569 -0.329,1.652999 -0.212,1.137 -0.374,2.654 -0.613,3.448 -0.419,1.983 -0.555,-0.05 -1.113,-0.157 0.167,-1.123 -0.865,-1.221 -6.698,-1.014 -0.171,1.095 -1.118,-0.175 0.401,-2.561 0.333,-1.807 0.676,-4.380999 0.23,-1.05"
     id="Hill"
     inkscape:connector-curvature="0" />
  <path
     style="font-size:12px;fill:#d0d0d0;fill-rule:nonzero;stroke:#000000;stroke-width:1;stroke-linecap:butt;stroke-linejoin:bevel;stroke-miterlimit:4;stroke-opacity:1;stroke-dasharray:none;marker-start:none"
     d="m 48.2916,20.490735 1.118,0.175 0.171,-1.095 6.698,1.014 0.865,1.221 -0.167,1.123 1.113,0.157 0.555,0.05 -0.757,5.012 -0.352,-0.162 -0.866,0.045 -0.991,0.189 -0.505,0.423 0.005,0.294 -0.302,1.257 -0.027,0.059 -0.234,0.176 -2.75,1.004 -0.442,-0.062 -3.714,-0.564 -1.068,-0.55 -2.091,-2.213 -0.04,-0.103 0.054,-0.154 0.302,-0.455 0.185,-0.185 0.297,-0.374 -3.746,-0.594 0.604,-3.651 0.293,-1.83 5.008,0.788 0.171,-1.09 0.613,0.095"
     id="Chouteau"
     inkscape:connector-curvature="0" />
  <path
     style="font-size:12px;fill:#d0d0d0;fill-rule:nonzero;stroke:#000000;stroke-width:1;stroke-linecap:butt;stroke-linejoin:bevel;stroke-miterlimit:4;stroke-opacity:1;stroke-dasharray:none;marker-start:none"
     d="m 47.7096,30.806735 3.714,0.564 -0.112,0.729 0.644,0.807 0.996,0.938 1.091,0.347 0.928,0.698 -0.522,3.678 -0.289,2.588 -0.649,-0.091 -0.387,-0.275 -0.555,-0.437 -0.081,-0.104 -0.185,-0.131 -0.748,-0.071 -0.446,0.004 -1.564,0.198 -0.816,0.149 -0.802,-0.013 -1.312,-1.375 -0.09,-0.122 -0.072,-0.153 -0.036,-0.144 0.013,-0.288 0.172,-0.149 0.171,-1.1 0.257,-2.19 -1.109,-0.176 0.167,-1.974 0.113,-0.731 0.288,-0.626 1.113,0.176 0.108,-0.726"
     id="Judith Basin"
     inkscape:connector-curvature="0" />
  <path
     style="font-size:12px;fill:#d0d0d0;fill-rule:nonzero;stroke:#000000;stroke-width:1;stroke-linecap:butt;stroke-linejoin:bevel;stroke-miterlimit:4;stroke-opacity:1;stroke-dasharray:none;marker-start:none"
     d="m 54.1596,41.155735 3.142,0.45 -0.239,1.699 -0.739,4.322 -2.231,-0.32 -5.567,-0.837 0.28,-1.831 0.369,-1.956 0.37,-2.434 1.564,-0.198 0.446,-0.004 0.748,0.071 0.185,0.131 0.081,0.104 0.555,0.437 0.387,0.275 0.649,0.091"
     id="Wheatland"
     inkscape:connector-curvature="0" />
  <path
     style="font-size:12px;fill:#d0d0d0;fill-rule:nonzero;stroke:#000000;stroke-width:1;stroke-linecap:butt;stroke-linejoin:bevel;stroke-miterlimit:4;stroke-opacity:1;stroke-dasharray:none;marker-start:none"
     d="m 48.5256,46.469735 5.567,0.837 -0.158,1.109 0.275,1.172 1.667,0.248 -0.153,0.698 -0.509,0.316 -0.825,1.032 -0.293,1.1 -0.302,2.222 -1.104,-0.158 -1.19,0.388 -1.185,0.392 -0.329,2.218 -1.177,-0.176 -0.342,2.253 -1.483,-0.234 0.333,-2.245 0.145,-0.319 0.446,-2.899 0.324,-2.33 -0.64,-0.095 0.672,-4.439 0.194,-0.631 0.067,-0.459"
     id="Sweet Grass"
     inkscape:connector-curvature="0" />
  <path
     style="font-size:12px;fill:#d0d0d0;fill-rule:nonzero;stroke:#000000;stroke-width:1;stroke-linecap:butt;stroke-linejoin:bevel;stroke-miterlimit:4;stroke-opacity:1;stroke-dasharray:none;marker-start:none"
     d="m 60.2446,56.082735 0.437,-0.253 0.153,-0.026 -0.049,0.329 -0.095,0.18 -0.072,0.113 -0.036,0.008 0.248,0.871 0.459,0.829 0.478,0.063 -0.388,0.351 -0.302,1.05 -0.225,1.682 5.165,0.644 -0.076,0.167 -1.388,2.52 -3.367,-0.456 -2.799,-0.37 -1.195,-0.162 -0.184,-0.026 -1.677,-0.307 -4.791,-0.649 0.311,-2.11 0.969,0.145 0.383,-1.168 0.848,-0.825 0.711,-0.653 0.424,-0.316 1.19,-0.401 1.478,0.212 0.672,-0.671 0.058,-0.424 0.307,-0.311 1.154,-0.271 0.094,0.027 0.271,0.19 0.207,0.045 0.176,0.023 0.451,-0.05"
     id="Carbon"
     inkscape:connector-curvature="0" />
  <path
     style="font-size:12px;fill:#d0d0d0;fill-rule:nonzero;stroke:#000000;stroke-width:1;stroke-linecap:butt;stroke-linejoin:bevel;stroke-miterlimit:4;stroke-opacity:1;stroke-dasharray:none;marker-start:none"
     d="m 60.4246,49.330735 -0.158,1.055 -0.126,1.149 -0.333,3.557 0.135,0.392 0.302,0.599 -0.451,0.05 -0.176,-0.023 -0.207,-0.045 -0.271,-0.19 -0.094,-0.027 -1.154,0.271 -0.307,0.311 -0.058,0.424 -0.672,0.671 -1.478,-0.212 -1.19,0.401 -0.424,0.316 -0.711,0.653 -0.848,0.825 -0.383,1.168 -0.969,-0.145 -2.384,-0.41 0.342,-2.253 1.177,0.176 0.329,-2.218 1.185,-0.392 1.19,-0.388 1.104,0.158 0.302,-2.222 0.293,-1.1 0.825,-1.032 0.509,-0.316 0.153,-0.698 0.177,-1.113 4.371,0.608"
     id="Stillwater"
     inkscape:connector-curvature="0" />
  <path
     style="font-size:12px;fill:#d0d0d0;fill-rule:nonzero;stroke:#000000;stroke-width:1;stroke-linecap:butt;stroke-linejoin:bevel;stroke-miterlimit:4;stroke-opacity:1;stroke-dasharray:none;marker-start:none"
     d="m 60.7496,41.348735 -0.221,1.641 0.103,0.577 0.582,1.235 0.748,2.861 -0.252,1.84 -1.285,-0.172 -4.371,-0.608 -0.177,1.113 -1.667,-0.248 -0.275,-1.172 0.158,-1.109 2.231,0.32 0.739,-4.322 0.239,-1.699 0.104,-0.73 3.344,0.473"
     id="Golden Valley"
     inkscape:connector-curvature="0" />
  <path
     style="font-size:12px;fill:#d0d0d0;fill-rule:nonzero;stroke:#000000;stroke-width:1;stroke-linecap:butt;stroke-linejoin:bevel;stroke-miterlimit:4;stroke-opacity:1;stroke-dasharray:none;marker-start:none"
     d="m 57.8876,28.147735 0.951,0.379 1.028,-0.339 0.233,-0.157 2.615,-0.036 0.144,0.027 0.32,0.207 0.32,0.762 0.392,0.252 0.194,0.181 0.252,0.36 0.013,0.086 -0.031,0.067 0.203,0.366 0.689,0.405 2.714,1.046 0.094,0.013 0.14,-0.04 0.117,-0.149 -0.32,2.249 -0.148,1.163 -0.199,0.067 -2.208,-0.275 -1.203,0.307 -0.298,1.073 -0.149,1.095 1.122,0.153 -0.464,3.322 -0.324,1.086 -3.335,-0.469 -3.344,-0.473 -0.104,0.73 -3.142,-0.45 0.289,-2.588 0.522,-3.678 -0.928,-0.698 -1.091,-0.347 -0.996,-0.938 -0.644,-0.807 0.112,-0.729 0.442,0.062 2.75,-1.004 0.234,-0.176 0.027,-0.059 0.302,-1.257 -0.005,-0.294 0.505,-0.423 0.991,-0.189 0.866,-0.045 0.352,0.162"
     id="Fergus"
     inkscape:connector-curvature="0" />
  <path
     style="font-size:12px;fill:#d0d0d0;fill-rule:nonzero;stroke:#000000;stroke-width:1;stroke-linecap:butt;stroke-linejoin:bevel;stroke-miterlimit:4;stroke-opacity:1;stroke-dasharray:none;marker-start:none"
     d="m 58.6446,23.135735 0.419,-1.983 0.613,-3.448 0.374,-2.654 0.212,-1.137 0.329,-1.652999 0.897,0.125999 2.753,0.397 0.51,0.076 0.049,0.005 3.845,0.518 0.473,0.063 2.141,0.279 -0.045,0.356 -0.117,0.726 -0.456,2.145 -1.36,3.723 -0.073,-0.045 -0.31,-0.072 -0.073,0.185 -0.545,2.632 -0.406,3.078 -2.028,0.442 -0.117,-0.045 -1.88,-0.243 -0.112,0.657 -0.239,1.727 -0.32,-0.762 -0.32,-0.207 -0.144,-0.027 -2.615,0.036 -0.233,0.157 -1.028,0.339 -0.951,-0.379 0.757,-5.012"
     id="Blaine"
     inkscape:connector-curvature="0" />
  <path
     style="font-size:12px;fill:#d0d0d0;fill-rule:nonzero;stroke:#000000;stroke-width:1;stroke-linecap:butt;stroke-linejoin:bevel;stroke-miterlimit:4;stroke-opacity:1;stroke-dasharray:none;marker-start:none"
     d="m 63.4986,28.990735 0.239,-1.727 0.112,-0.657 1.88,0.243 0.117,0.045 2.028,-0.442 0.406,-3.078 0.545,-2.632 0.073,-0.185 0.31,0.072 0.073,0.045 1.36,-3.723 0.456,-2.145 0.117,-0.726 0.045,-0.356 9.014,1.113 -0.356,1.073 -0.464,3.894 -0.92,3.755 -0.937,-0.118 -0.455,1.245 -0.6,4.227 -0.279,2.272 -0.1,0.41 -0.171,0.351 -0.044,0.054 -0.059,0.028 -0.433,-0.068 -0.748,-0.401 -0.104,-0.036 -0.356,-0.046 -0.532,0.249 -0.383,0.568 -0.315,0.346 -1.01,1.051 -0.374,0.045 -0.054,-0.018 0.059,-0.474 -0.063,-0.829 -0.045,-0.234 -0.334,-0.266 -0.077,-0.041 -1.09,-0.171 -0.284,0.036 -0.37,-0.009 -0.843,-0.068 -0.198,-0.04 -0.059,-0.045 -0.117,0.149 -0.14,0.04 -0.094,-0.013 -2.714,-1.046 -0.689,-0.405 -0.203,-0.366 0.031,-0.067 -0.013,-0.086 -0.252,-0.36 -0.194,-0.181 -0.392,-0.252"
     id="Phillips"
     inkscape:connector-curvature="0" />
  <path
     style="font-size:12px;fill:#d0d0d0;fill-rule:nonzero;stroke:#000000;stroke-width:1;stroke-linecap:butt;stroke-linejoin:bevel;stroke-miterlimit:4;stroke-opacity:1;stroke-dasharray:none;marker-start:none"
     d="m 68.2756,31.577735 0.059,0.045 0.198,0.04 0.843,0.068 0.37,0.009 0.284,-0.036 1.09,0.171 0.077,0.041 0.334,0.266 0.045,0.234 0.063,0.829 -0.059,0.474 -0.635,1.167 -0.194,1.294 -0.365,4.737 0.004,0.076 0.032,0.041 0.298,0.302 0.049,0.027 0.414,1.289 -3.894,-0.469 -0.982,-0.072 -2.222,-0.293 0.324,-1.086 0.464,-3.322 -1.122,-0.153 0.149,-1.095 0.298,-1.073 1.203,-0.307 2.208,0.275 0.199,-0.067 0.148,-1.163 0.32,-2.249"
     id="Petroleum"
     inkscape:connector-curvature="0" />
  <path
     style="font-size:12px;fill:#d0d0d0;fill-rule:nonzero;stroke:#000000;stroke-width:1;stroke-linecap:butt;stroke-linejoin:bevel;stroke-miterlimit:4;stroke-opacity:1;stroke-dasharray:none;marker-start:none"
     d="m 60.7496,41.348735 3.335,0.469 2.222,0.293 0.982,0.072 3.894,0.469 -0.004,3.367 -0.167,1.284 -1.298,-0.163 -0.833,0.654 -0.203,0.347 -0.077,0.564 -2.587,-0.338 -0.793,0.256 -0.176,1.321 -3.335,-0.441 0.252,-1.84 -0.748,-2.861 -0.582,-1.235 -0.103,-0.577 0.221,-1.641"
     id="Musselshell"
     inkscape:connector-curvature="0" />
  <path
     style="font-size:12px;fill:#d0d0d0;fill-rule:nonzero;stroke:#000000;stroke-width:1;stroke-linecap:butt;stroke-linejoin:bevel;stroke-miterlimit:4;stroke-opacity:1;stroke-dasharray:none;marker-start:none"
     d="m 71.1786,46.018735 0.356,0.229 0.167,0.208 0.748,1.591 0.843,2.357 -0.225,1.118 -0.203,0.572 -1.452,-0.18 -1.194,0.599 -0.424,0.325 -0.063,0.361 -0.396,0.297 -1.488,-0.158 -0.378,1.451 -0.442,3.394 -2.312,0.451 -1.154,-0.153 -1.794,-0.284 -0.478,-0.063 -0.459,-0.829 -0.248,-0.871 0.036,-0.008 0.072,-0.113 0.095,-0.18 0.049,-0.329 -0.153,0.026 -0.437,0.253 -0.302,-0.599 -0.135,-0.392 0.333,-3.557 0.126,-1.149 0.158,-1.055 1.285,0.172 3.335,0.441 0.176,-1.321 0.793,-0.256 2.587,0.338 0.077,-0.564 0.203,-0.347 0.833,-0.654 1.298,0.163 0.167,-1.284"
     id="Yellowstone"
     inkscape:connector-curvature="0" />
  <path
     style="font-size:12px;fill:#d0d0d0;fill-rule:nonzero;stroke:#000000;stroke-width:1;stroke-linecap:butt;stroke-linejoin:bevel;stroke-miterlimit:4;stroke-opacity:1;stroke-dasharray:none;marker-start:none"
     d="m 77.7226,54.914735 -0.059,0.492 0.018,1.916 0.582,0.162 0.865,0.103 0.181,0.068 -0.464,4.115 -0.316,0.703 -0.284,1.46 2.217,0.307 1.123,0.099 1.082,0.086 -0.113,2.402 -5.67,-0.663 -1.74,-0.212 -0.482,-0.099 -4.296,-0.527 -2.744,-0.342 -3.069,-0.374 1.388,-2.52 0.076,-0.167 -5.165,-0.644 0.225,-1.682 0.302,-1.05 0.388,-0.351 1.794,0.284 1.154,0.153 2.312,-0.451 0.442,-3.394 0.378,-1.451 1.488,0.158 0.396,-0.297 0.063,-0.361 0.424,-0.325 1.194,-0.599 1.452,0.18 0.775,0.095 -0.135,1.104 2.221,0.266 0.415,0.609 0.568,0.63 1.014,0.117"
     id="Big Horn"
     inkscape:connector-curvature="0" />
  <path
     style="font-size:12px;fill:#d0d0d0;fill-rule:nonzero;stroke:#000000;stroke-width:1;stroke-linecap:butt;stroke-linejoin:bevel;stroke-miterlimit:4;stroke-opacity:1;stroke-dasharray:none;marker-start:none"
     d="m 71.5346,46.247735 5.003,0.6 1.167,1.262 0.41,3.398 -0.392,3.407 -1.014,-0.117 -0.568,-0.63 -0.415,-0.609 -2.221,-0.266 0.135,-1.104 -0.775,-0.095 0.203,-0.572 0.225,-1.118 -0.843,-2.357 -0.748,-1.591 -0.167,-0.208"
     id="Treasure"
     inkscape:connector-curvature="0" />
  <path
     style="font-size:12px;fill:#d0d0d0;fill-rule:nonzero;stroke:#000000;stroke-width:1;stroke-linecap:butt;stroke-linejoin:bevel;stroke-miterlimit:4;stroke-opacity:1;stroke-dasharray:none;marker-start:none"
     d="m 70.7686,41.362735 3.75,0.464 0.175,-0.045 0.339,0.004 0.301,0.032 5.783,0.676 0.315,0.163 0.65,0.135 4.61,0.491 -0.324,0.157 -0.419,2.953 -0.361,1.46 -0.32,2.984 -0.005,0.333 -0.202,0.73 -0.271,0.347 -0.486,4.458 -0.379,-0.036 -0.221,2.095 -0.397,2.322 -0.4,1.154 -0.239,2.186 -1.082,-0.086 -1.123,-0.099 -2.217,-0.307 0.284,-1.46 0.316,-0.703 0.464,-4.115 -0.181,-0.068 -0.865,-0.103 -0.582,-0.162 -0.018,-1.916 0.059,-0.492 0.392,-3.407 -0.41,-3.398 -1.167,-1.262 -5.003,-0.6 -0.356,-0.229 0.004,-3.367 -0.414,-1.289"
     id="Rosebud"
     inkscape:connector-curvature="0" />
  <path
     style="font-size:12px;fill:#d0d0d0;fill-rule:nonzero;stroke:#000000;stroke-width:1;stroke-linecap:butt;stroke-linejoin:bevel;stroke-miterlimit:4;stroke-opacity:1;stroke-dasharray:none;marker-start:none"
     d="m 85.3176,28.805735 0.523,0.059 0.72,1.225 -0.464,4.318 -0.297,0.717 -0.275,1.474 1.117,0.117 -0.233,2.213 0.734,0.081 -0.433,4.092 -0.018,0.181 -4.61,-0.491 -0.65,-0.135 -0.315,-0.163 -5.783,-0.676 -0.301,-0.032 -0.339,-0.004 -0.175,0.045 -3.75,-0.464 -0.049,-0.027 -0.298,-0.302 -0.032,-0.041 -0.004,-0.076 0.365,-4.737 0.194,-1.294 0.635,-1.167 0.054,0.018 0.374,-0.045 1.01,-1.051 0.315,-0.346 0.383,-0.568 0.532,-0.249 0.356,0.046 0.104,0.036 0.748,0.401 0.433,0.068 0.059,-0.028 0.044,-0.054 0.171,-0.351 0.1,-0.41 1.411,0.559 1.906,0.238 0.131,-0.004 0.82,-0.027 0.217,-0.027 0.153,-0.045 2.217,-1.199 1.488,-1.979 0.442,-0.099 0.27,0.203"
     id="Garfield"
     inkscape:connector-curvature="0" />
  <path
     style="font-size:12px;fill:#d0d0d0;fill-rule:nonzero;stroke:#000000;stroke-width:1;stroke-linecap:butt;stroke-linejoin:bevel;stroke-miterlimit:4;stroke-opacity:1;stroke-dasharray:none;marker-start:none"
     d="m 89.3916,15.869735 9.015,0.911 -0.109,1.122 -0.153,3.322 0.563,0.059 -0.104,1.1 -7.157,-0.708 -1.415,-0.154 -0.37,-0.775 0.266,-2.573 -1.117,-0.117 0.121,-1.1 0.267,-0.352 0.193,-0.735"
     id="Daniels"
     inkscape:connector-curvature="0" />
  <path
     style="font-size:12px;fill:#d0d0d0;fill-rule:nonzero;stroke:#000000;stroke-width:1;stroke-linecap:butt;stroke-linejoin:bevel;stroke-miterlimit:4;stroke-opacity:1;stroke-dasharray:none;marker-start:none"
     d="m 89.3916,15.869735 -0.193,0.735 -0.267,0.352 -0.121,1.1 1.117,0.117 -0.266,2.573 0.37,0.775 1.415,0.154 -0.451,4.372 -0.337,-0.036 -0.28,2.654 -0.667,0.014 -2.659,-0.573 -0.126,-0.058 -0.221,-0.23 -1.028,-0.351 -0.059,0.026 -0.053,0.059 -0.122,0.167 -0.122,0.315 -0.004,0.771 -0.27,-0.203 -0.442,0.099 -1.488,1.979 -2.217,1.199 -0.153,0.045 -0.217,0.027 -0.82,0.027 -0.131,0.004 -1.906,-0.238 -1.411,-0.559 0.279,-2.272 0.6,-4.227 0.455,-1.245 0.937,0.118 0.92,-3.755 0.464,-3.894 0.356,-1.073 9.118,1.032"
     id="Valley"
     inkscape:connector-curvature="0" />
  <path
     style="font-size:12px;fill:#d0d0d0;fill-rule:nonzero;stroke:#000000;stroke-width:1;stroke-linecap:butt;stroke-linejoin:bevel;stroke-miterlimit:4;stroke-opacity:1;stroke-dasharray:none;marker-start:none"
     d="m 96.0796,28.530735 -0.071,0.834 -0.158,1.496 -0.36,0.149 -0.095,0.987 -1.123,-0.108 -0.347,2.208 -0.36,1.087 -0.437,4.434 -3.755,-0.374 -0.112,1.123 -0.379,-0.036 -0.744,-0.082 0.117,-1.122 -1.113,-0.117 -0.734,-0.081 0.233,-2.213 -1.117,-0.117 0.275,-1.474 0.297,-0.717 0.464,-4.318 -0.72,-1.225 -0.523,-0.059 0.004,-0.771 0.122,-0.315 0.122,-0.167 0.053,-0.059 0.059,-0.026 1.028,0.351 0.221,0.23 0.126,0.058 2.659,0.573 0.667,-0.014 1.352,-0.414 0.469,-0.257 0.428,-0.014 1.577,0.023 0.645,0.027 0.739,0.144 0.491,0.356"
     id="McCone"
     inkscape:connector-curvature="0" />
  <path
     style="font-size:12px;fill:#d0d0d0;fill-rule:nonzero;stroke:#000000;stroke-width:1;stroke-linecap:butt;stroke-linejoin:bevel;stroke-miterlimit:4;stroke-opacity:1;stroke-dasharray:none;marker-start:none"
     d="m 87.1426,39.009735 1.113,0.117 -0.117,1.122 0.744,0.082 0.379,0.036 0.112,-1.123 3.755,0.374 0.716,0.073 -0.261,2.61 1.131,0.107 1.054,0.853 0.167,0.193 0.162,0.275 -0.031,0.302 3.75,0.356 -0.234,2.249 -0.036,0.37 -1.114,-0.104 -0.049,0.554 -1.118,-0.099 -0.234,0.536 -0.974,0.28 -2.263,-0.225 -1.821,-0.564 -0.31,-0.41 -0.446,-0.794 -0.149,-1.135 -0.253,-1.154 -1.866,-0.554 -2.24,-0.235 0.433,-4.092"
     id="Prairie"
     inkscape:connector-curvature="0" />
  <path
     style="font-size:12px;fill:#d0d0d0;fill-rule:nonzero;stroke:#000000;stroke-width:1;stroke-linecap:butt;stroke-linejoin:bevel;stroke-miterlimit:4;stroke-opacity:1;stroke-dasharray:none;marker-start:none"
     d="m 84.3036,56.704735 10.861,1.122 -0.41,4.422 -0.162,1.153 -0.464,-0.04 -0.433,4.516 -0.464,-0.045 -6.891,-0.69 -0.649,-0.036 -0.97,-0.045 -2.167,-0.234 0.113,-2.402 0.239,-2.186 0.4,-1.154 0.397,-2.322 0.221,-2.095 0.379,0.036"
     id="Powder River"
     inkscape:connector-curvature="0" />
  <path
     style="font-size:12px;fill:#d0d0d0;fill-rule:nonzero;stroke:#000000;stroke-width:1;stroke-linecap:butt;stroke-linejoin:bevel;stroke-miterlimit:4;stroke-opacity:1;stroke-dasharray:none;marker-start:none"
     d="m 86.7096,43.101735 2.24,0.235 1.866,0.554 0.253,1.154 0.149,1.135 0.446,0.794 0.31,0.41 1.821,0.564 2.263,0.225 0.974,-0.28 0.234,-0.536 1.118,0.099 -0.158,1.672 -1.537,-0.144 -0.126,1.375 0.009,0.532 0.094,0.275 -0.215,2.262 -0.479,-0.045 -0.419,4.48 -0.388,-0.036 -10.861,-1.122 0.486,-4.458 0.271,-0.347 0.202,-0.73 0.005,-0.333 0.32,-2.984 0.361,-1.46 0.419,-2.953 0.324,-0.157 0.018,-0.181"
     id="Custer"
     inkscape:connector-curvature="0" />
  <path
     style="font-size:12px;fill:#d0d0d0;fill-rule:nonzero;stroke:#000000;stroke-width:1;stroke-linecap:butt;stroke-linejoin:bevel;stroke-miterlimit:4;stroke-opacity:1;stroke-dasharray:none;marker-start:none"
     d="m 96.4506,53.427735 2.312,0.221 0.986,0.203 0.492,0.978 0.451,1.131 0.775,0.104 1.519,0.117 -0.095,1.113 0.811,0.072 -0.694,8.596 -0.392,2.758 -8.92,-0.843 0.433,-4.516 0.464,0.04 0.162,-1.153 0.41,-4.422 0.388,0.036 0.419,-4.48 0.479,0.045"
     id="Carter"
     inkscape:connector-curvature="0" />
  <path
     style="font-size:12px;fill:#d0d0d0;fill-rule:nonzero;stroke:#000000;stroke-width:1;stroke-linecap:butt;stroke-linejoin:bevel;stroke-miterlimit:4;stroke-opacity:1;stroke-dasharray:none;marker-start:none"
     d="m 98.3836,47.455735 0.049,-0.554 1.114,0.104 0.036,-0.37 1.676,0.148 0.55,0.235 -0.032,0.374 2.741,0.234 -0.108,1.29 -0.289,3.34 -0.36,4.295 -0.059,0.815 -0.811,-0.072 0.095,-1.113 -1.519,-0.117 -0.775,-0.104 -0.451,-1.131 -0.492,-0.978 -0.986,-0.203 -2.312,-0.221 0.215,-2.262 -0.094,-0.275 -0.009,-0.532 0.126,-1.375 1.537,0.144 0.158,-1.672"
     id="Fallon"
     inkscape:connector-curvature="0" />
  <path
     style="font-size:12px;fill:#d0d0d0;fill-rule:nonzero;stroke:#000000;stroke-width:1;stroke-linecap:butt;stroke-linejoin:bevel;stroke-miterlimit:4;stroke-opacity:1;stroke-dasharray:none;marker-start:none"
     d="m 105.3426,37.959735 -0.077,0.861 -0.748,8.806 -2.741,-0.234 0.032,-0.374 -0.55,-0.235 -1.676,-0.148 0.234,-2.249 0.946,0.085 0.595,-0.319 0.203,-0.167 0.861,-1.235 0.235,-0.45 0.085,-1.024 -0.022,-0.748 -0.023,-0.189 -0.072,-0.285 -0.627,-1.834 2.538,0.23 0.049,-0.559 0.758,0.068"
     id="Wibaux"
     inkscape:connector-curvature="0" />
  <path
     style="font-size:12px;fill:#d0d0d0;fill-rule:nonzero;stroke:#000000;stroke-width:1;stroke-linecap:butt;stroke-linejoin:bevel;stroke-miterlimit:4;stroke-opacity:1;stroke-dasharray:none;marker-start:none"
     d="m 95.3956,31.996735 -0.113,1.109 2.244,0.216 -0.112,1.113 3.367,0.316 0.604,1.172 -0.203,2.226 0.815,0.072 0.627,1.834 0.072,0.285 0.023,0.189 0.022,0.748 -0.085,1.024 -0.235,0.45 -0.861,1.235 -0.203,0.167 -0.595,0.319 -0.946,-0.085 -3.75,-0.356 0.031,-0.302 -0.162,-0.275 -0.167,-0.193 -1.054,-0.853 -1.131,-0.107 0.261,-2.61 -0.716,-0.073 0.437,-4.434 0.36,-1.087 0.347,-2.208 1.123,0.108"
     id="Dawson"
     inkscape:connector-curvature="0" />
  <path
     style="font-size:12px;fill:#d0d0d0;fill-rule:nonzero;stroke:#000000;stroke-width:1;stroke-linecap:butt;stroke-linejoin:bevel;stroke-miterlimit:4;stroke-opacity:1;stroke-dasharray:none;marker-start:none"
     d="m 105.9956,30.324735 -0.653,7.635 -0.758,-0.068 -0.049,0.559 -2.538,-0.23 -0.815,-0.072 0.203,-2.226 -0.604,-1.172 -3.367,-0.316 0.112,-1.113 -2.244,-0.216 0.113,-1.109 0.095,-0.987 0.36,-0.149 0.158,-1.496 0.071,-0.834 0.645,0.126 1.059,0.004 0.185,-0.094 0.279,-0.212 0.23,-0.306 0.51,-0.207 3.65,0.919 1.704,0.991 1.654,0.573"
     id="Richland"
     inkscape:connector-curvature="0" />
</svg>
