<?xml version="1.0" encoding="UTF-8" standalone="no"?>
<!-- Created with Inkscape (http://www.inkscape.org/) -->

<svg
   xmlns:dc="http://purl.org/dc/elements/1.1/"
   xmlns:cc="http://creativecommons.org/ns#"
   xmlns:rdf="http://www.w3.org/1999/02/22-rdf-syntax-ns#"
   xmlns:svg="http://www.w3.org/2000/svg"
   xmlns="http://www.w3.org/2000/svg"
   xmlns:sodipodi="http://sodipodi.sourceforge.net/DTD/sodipodi-0.dtd"
   xmlns:inkscape="http://www.inkscape.org/namespaces/inkscape"
   version="1.0"
   width="39.91"
   height="63.540001"
   sodipodi:version="0.32"
   inkscape:version="0.48.2 r9819"
   sodipodi:docname="me.svg"
   inkscape:output_extension="org.inkscape.output.svg.inkscape"
   id="svg3009">
  <metadata
     id="metadata3011">
    <rdf:RDF>
      <cc:Work
         rdf:about="">
        <dc:format>image/svg+xml</dc:format>
        <dc:type
           rdf:resource="http://purl.org/dc/dcmitype/StillImage" />
      </cc:Work>
    </rdf:RDF>
  </metadata>
  <defs
     id="defs3013" />
  <sodipodi:namedview
     pagecolor="#ffffff"
     bordercolor="#666666"
     borderopacity="1"
     objecttolerance="10"
     gridtolerance="10"
     guidetolerance="10"
     inkscape:pageopacity="0"
     inkscape:pageshadow="2"
     inkscape:window-width="1366"
     inkscape:window-height="716"
     fit-margin-top="0"
     fit-margin-left="0"
     fit-margin-right="0"
     fit-margin-bottom="0"
     inkscape:zoom="4.5491794"
     inkscape:cx="-48.162402"
     inkscape:cy="26.065201"
     inkscape:window-x="-8"
     inkscape:window-y="-8"
     inkscape:window-maximized="1"
     inkscape:current-layer="svg3009"
     id="namedview3015"
     showgrid="false" />
  <path
     style="font-size:12px;fill:#d0d0d0;fill-rule:nonzero;stroke:#000000;stroke-width:1;stroke-linecap:butt;stroke-linejoin:bevel;stroke-miterlimit:4;stroke-opacity:1;stroke-dasharray:none;marker-start:none"
     d="m 17.247419,15.126297 -0.668,-2.172 -7.7059998,2.208 -2.592,0.73 -0.194,-1.523 -0.005,-0.04 0.01,-0.032 0.234,-0.694 0.657,-1.929 1.272,-3.6959986 1.713,-4.9580004 0.6979998,-0.058 0.83,-0.018 0.126,0.036 0.152,0.207 0.032,0.055 -0.063,0.085 -0.009,0.014 -0.018,0.301 0.451,1.452 0.131,0.117 0.072,0.032 1.348,0.441 0.346,-0.301 0.938,-0.893 1.036,-0.942 1.596,-1.393 0.221,-0.126 0.419,-0.131 0.392,-0.036 0.158,0.032 0.721,0.243 2.1,0.897 1.889,1.19 0.027,0.063 3.006,9.604999 1.763,5.697 -0.141,0.211 -0.009,0.122 0.284,1.276 0.153,0.126 -1.941,1.14 -1.664,0.96 -0.004,0.045 0.022,0.067 -0.614,0.348 -0.649,0.36 -0.202,-0.031 -0.608,-2.065 -0.145,-0.608 -0.279,-0.991 -0.271,-0.857 -1.681,-5.367 -2.267,0.495 -1.067,0.306"
     id="Aroostook"
     inkscape:connector-curvature="0" />
  <path
     style="font-size:12px;fill:#d0d0d0;fill-rule:nonzero;stroke:#000000;stroke-width:1;stroke-linecap:butt;stroke-linejoin:bevel;stroke-miterlimit:4;stroke-opacity:1;stroke-dasharray:none;marker-start:none"
     d="m 17.247419,15.126297 0.504,1.803 0.901,3.074 1.127,3.922 -1.086,0.617 0.5,1.866 0.875,-0.456 1.752,3.34 -0.347,1.415 -2.442,1.276 -1.682,0.852 -1.239,1.014 -0.865,0.433 -0.613,-1.023 -2.655,-5.183 -0.328,-2.759 0.364,-1.555 -0.748,-1.361 -0.604,-0.685 -1.2529998,-4.295 -0.535,-2.259 7.7059998,-2.208 0.668,2.172"
     id="Piscataquis"
     inkscape:connector-curvature="0" />
  <path
     style="font-size:12px;fill:#d0d0d0;fill-rule:nonzero;stroke:#000000;stroke-width:1;stroke-linecap:butt;stroke-linejoin:bevel;stroke-miterlimit:4;stroke-opacity:1;stroke-dasharray:none;marker-start:none"
     d="m 26.066419,44.021297 -0.126,0.28 -0.085,0.077 -0.37,0.202 -0.099,0.023 -0.166,-0.05 -0.757,-0.815 -0.024,-0.036 0.019,-0.244 0.095,-0.266 0.495,-0.613 0.184,-0.099 0.072,0.054 0.79,1.145 0.048,0.104 -0.037,0.17 -0.039,0.068 m -6.525,-1.798 0.081,-0.216 1.027,-0.595 2.051,0.847 0.455,0.239 -0.085,0.902 -0.007,0.053 0.007,0.055 0.143,0.482 0.135,0.329 0.33,0.275 -0.96,1.456 -0.708,0.45 -0.866,0.154 0.06,-0.744 0.378,-0.604 -0.405,-0.928 -0.578,-0.862 -0.293,0.136 -0.315,0.023 -0.297,-0.131 -0.276,-0.402 -0.198,-0.635 0.091,-0.166 0.23,-0.118"
     id="Knox"
     inkscape:connector-curvature="0" />
  <path
     style="font-size:12px;fill:#d0d0d0;fill-rule:nonzero;stroke:#000000;stroke-width:1;stroke-linecap:butt;stroke-linejoin:bevel;stroke-miterlimit:4;stroke-opacity:1;stroke-dasharray:none;marker-start:none"
     d="m 17.111419,45.454297 0.965,-0.044 -0.451,-1.285 -0.05,-0.69 0.974,-0.026 0.076,-0.072 0.091,-0.239 -0.091,-0.807 0.916,-0.068 -0.23,0.118 -0.091,0.166 0.198,0.635 0.276,0.402 0.297,0.131 0.315,-0.023 0.293,-0.136 0.578,0.862 0.405,0.928 -0.378,0.604 -0.06,0.744 -0.234,-0.027 -0.18,-0.023 -0.139,0.18 -0.039,0.045 -0.007,0.303 0.063,0.5 -0.157,0.928 -0.077,0.108 -1.19,0.532 -0.284,0.09 -0.212,0 -1.577,-3.836"
     id="Lincoln"
     inkscape:connector-curvature="0" />
  <path
     style="font-size:12px;fill:#d0d0d0;fill-rule:nonzero;stroke:#000000;stroke-width:1;stroke-linecap:butt;stroke-linejoin:bevel;stroke-miterlimit:4;stroke-opacity:1;stroke-dasharray:none;marker-start:none"
     d="m 17.111419,45.454297 1.577,3.836 -1.456,1.001 -0.202,-0.964 -0.464,-0.857 -0.199,0.252 -0.522,-0.004 -0.416,-0.244 -0.202,-0.288 -0.265,-1.924 0.684,-0.045 0.307,-0.24 0.022,-0.306 0.018,-0.09 0.081,-0.149 0.067,-0.085 0.874,-0.05 0.069,0.086 0.027,0.071"
     id="Sagadahoc"
     inkscape:connector-curvature="0" />
  <path
     style="font-size:12px;fill:#d0d0d0;fill-rule:nonzero;stroke:#000000;stroke-width:1;stroke-linecap:butt;stroke-linejoin:bevel;stroke-miterlimit:4;stroke-opacity:1;stroke-dasharray:none;marker-start:none"
     d="m 11.050419,48.592297 -0.006,0.027 0.027,0.04 0.334,0.135 0.51,0.082 2.821,0.373 0.243,-0.333 0.248,-0.73 0.202,0.288 0.416,0.244 0.522,0.004 0.199,-0.252 0.464,0.857 0.202,0.964 -0.599,0.293 -0.468,-0.284 -0.23,-0.663 -0.087,-0.062 -0.081,0.031 -0.874,1.144 -0.355,0.618 -0.244,1.005 0,0.086 0.18,0.189 0.05,1.28 -0.632,0.541 -0.4,-0.135 -1.091,-0.411 0.184,-0.527 -1.08,-0.689 -2.4259998,-0.654 0.104,-2.01 0.577,-1.514 0.148,0.234 0.2439998,0.226 0.063,0.031 0.352,0.054 0.483,-0.482"
     id="Cumberland"
     inkscape:connector-curvature="0" />
  <path
     style="font-size:12px;fill:#d0d0d0;fill-rule:nonzero;stroke:#000000;stroke-width:1;stroke-linecap:butt;stroke-linejoin:bevel;stroke-miterlimit:4;stroke-opacity:1;stroke-dasharray:none;marker-start:none"
     d="m 9.0794192,52.053297 2.4259998,0.654 1.08,0.689 -0.184,0.527 1.091,0.411 0.4,0.135 -0.04,0.897 -1.087,5.07 -0.121,0.546 -0.045,0.09 -0.24,0.207 -1.261,-0.505 -0.35,-1.406 -0.028,-0.031 -1.0899998,-0.65 -0.452,-0.225 -0.166,-0.086 -0.262,-0.364 -0.085,-0.181 -0.069,-0.288 -0.157,-1.758 -1.136,-2.961 1.776,-0.771"
     id="York"
     inkscape:connector-curvature="0" />
  <path
     style="font-size:12px;fill:#d0d0d0;fill-rule:nonzero;stroke:#000000;stroke-width:1;stroke-linecap:butt;stroke-linejoin:bevel;stroke-miterlimit:4;stroke-opacity:1;stroke-dasharray:none;marker-start:none"
     d="m 11.725419,42.679297 0.87,-0.627 0.604,1.194 0.851,2.172 0.912,0.844 0.265,1.924 -0.248,0.73 -0.243,0.333 -2.821,-0.373 -0.51,-0.082 -0.334,-0.135 -0.027,-0.04 0.006,-0.027 -0.145,-0.343 0.829,-2.244 0.085,-0.384 0,-1.686 -0.297,-0.616 -0.05,-0.33 0.253,-0.31"
     id="Androscoggin"
     inkscape:connector-curvature="0" />
  <path
     style="font-size:12px;fill:#d0d0d0;fill-rule:nonzero;stroke:#000000;stroke-width:1;stroke-linecap:butt;stroke-linejoin:bevel;stroke-miterlimit:4;stroke-opacity:1;stroke-dasharray:none;marker-start:none"
     d="m 3.7524192,34.119297 0.703,1.632 0.198,1.429 1.439,3.384 1.144,-1.162 1.501,1.843 2.2309998,0.158 0.496,0.748 0.261,0.528 -0.253,0.31 0.05,0.33 0.297,0.616 0,1.686 -0.085,0.384 -0.829,2.244 0.145,0.343 -0.483,0.482 -0.352,-0.054 -0.063,-0.031 -0.2439998,-0.226 -0.148,-0.234 -0.577,1.514 -0.104,2.01 -1.776,0.771 -1.842,-6.098 -1.691,-5.377 -0.135,-0.433 -1.907,-5.751 -0.347,-0.991 0.618,-0.347 1.244,0.689 0.126,0.063 0.262,0.004 0.004,0 0.108,-0.099 0.019,-0.049 -0.01,-0.316"
     id="Oxford"
     inkscape:connector-curvature="0" />
  <path
     style="font-size:12px;fill:#d0d0d0;fill-rule:nonzero;stroke:#000000;stroke-width:1;stroke-linecap:butt;stroke-linejoin:bevel;stroke-miterlimit:4;stroke-opacity:1;stroke-dasharray:none;marker-start:none"
     d="m 13.925419,40.024297 0.964,-0.23 2.029,-0.167 0.103,-0.121 -0.046,-0.564 -0.306,-0.225 -0.121,-0.036 -0.158,-0.163 -0.104,-0.216 -0.045,-0.135 1.244,-0.627 0.126,-0.004 0.064,0.117 0.012,0.198 0.273,0.541 0.611,-0.085 0.524,1.149 0.104,1.131 -0.461,0.045 -0.113,1.659 0.091,0.807 -0.091,0.239 -0.076,0.072 -0.974,0.026 0.05,0.69 0.451,1.285 -0.965,0.044 -0.027,-0.071 -0.069,-0.086 -0.874,0.05 -0.067,0.085 -0.081,0.149 -0.018,0.09 -0.022,0.306 -0.307,0.24 -0.684,0.045 -0.912,-0.844 -0.851,-2.172 -0.604,-1.194 1.33,-2.028"
     id="Kennebec"
     inkscape:connector-curvature="0" />
  <path
     style="font-size:12px;fill:#d0d0d0;fill-rule:nonzero;stroke:#000000;stroke-width:1;stroke-linecap:butt;stroke-linejoin:bevel;stroke-miterlimit:4;stroke-opacity:1;stroke-dasharray:none;marker-start:none"
     d="m 19.391419,36.973297 0.514,-0.253 0.501,1.005 2.839,-1.609 0.257,0.171 -0.064,0.803 0.019,0.072 0.057,0.081 0.236,0.148 0.303,0.267 0.337,0.892 0.049,0.248 0.009,0.072 -0.112,0.067 -0.968,0.69 -0.402,0.284 -0.032,0.163 0.121,0.207 0.087,0.117 0.121,0.032 0.077,0.063 0.185,0.202 0.058,0.41 0,0.131 -0.428,1.262 -0.455,-0.239 -2.051,-0.847 -1.027,0.595 -0.081,0.216 -0.916,0.068 0.113,-1.659 0.461,-0.045 -0.104,-1.131 -0.524,-1.149 -0.611,0.085 -0.273,-0.541 1.704,-0.878"
     id="Waldo"
     inkscape:connector-curvature="0" />
  <path
     style="font-size:12px;fill:#d0d0d0;fill-rule:nonzero;stroke:#000000;stroke-width:1;stroke-linecap:butt;stroke-linejoin:bevel;stroke-miterlimit:4;stroke-opacity:1;stroke-dasharray:none;marker-start:none"
     d="m 26.170419,40.948297 0.045,-0.018 0.077,0.022 0.473,0.14 0.145,0.104 0.103,0.157 0.067,0.649 -0.125,0.356 -0.186,0.311 -0.027,0.027 -0.063,0.005 -0.396,-0.212 -0.059,-0.072 -0.207,-0.617 -0.013,-0.05 0.017,-0.072 0.059,-0.023 0.081,-0.095 0.077,-0.4 0,-0.091 -0.023,-0.08 -0.045,-0.041 m 2.466,-1.965 0.479,-0.365 0.403,-0.23 0.524,-0.05 0.009,0.009 0.175,0.18 0.181,0.289 0.067,0.185 -0.076,0.306 -0.005,0.014 -0.036,0.036 -0.261,0.297 -0.37,0.108 -0.108,0.1 -0.049,0.117 0.029,0.121 0.025,0.04 0.027,0.01 0.09,0.162 -0.153,0.351 -0.186,0.086 -0.657,-0.202 -0.244,-0.226 -0.189,-0.27 -0.049,-0.172 0.058,-0.369 0.225,-0.401 0.091,-0.126 m -5.134,-2.696 0.253,-0.112 0.486,-0.271 0.222,-0.41 0.58,-0.433 1.416,-0.73 -0.956,-1.92 -0.338,-0.626 1.05,-0.537 0.542,-1.541 -0.745,-1.411 2.033,-1.063 0.802,1.509 0.667,1.42 0.154,0.645 -0.879,0.459 1.127,2.033 0.644,0.974 0.275,0.694 0.04,0.396 0.554,0.992 0.267,0.473 0.248,0.388 0.117,0.126 0.018,0.221 -0.104,0.194 -0.063,0.017 -0.049,-0.045 -0.1,-0.085 -0.112,0.166 -0.036,0.249 -0.032,0.175 -0.013,0.23 -0.005,0.072 0,0.104 -0.103,0.014 -0.005,0 -0.068,-0.027 -0.508,-0.514 -0.141,-0.181 -0.229,-0.522 -0.05,-0.176 0.009,-0.113 -0.05,-0.081 -0.063,-0.036 -0.257,0.032 -0.35,0.072 -0.313,0.063 -0.319,0.139 -0.05,0.455 -0.338,0.334 -0.302,0.208 -0.203,0.18 -0.153,0.297 -0.04,0.032 -0.06,0.013 -0.067,-0.045 -0.081,-0.311 -0.021,-0.166 -0.119,-0.082 -0.081,0.005 -0.053,0.04 -0.033,0.068 -0.008,0.09 0.13,0.32 0.109,0.392 -0.036,0.032 -0.114,0.022 -0.081,-0.112 -0.012,-0.122 -0.23,-0.158 -0.244,0.294 -0.137,0.356 0.146,0.725 0.022,0.054 0.036,0.054 0.095,0.072 0.163,-0.036 0.094,0.099 0.203,0.28 0.014,0.063 0.058,0.311 0.014,0.108 -0.089,0 -0.173,-0.045 -0.008,-0.023 -0.136,-0.09 -0.459,-0.22 -0.28,-0.073 -0.972,-0.189 -0.402,0.131 -0.162,0.22 -0.304,0.032 -0.026,-0.054 -0.28,-1.163 -0.009,-0.252 0.024,-0.032 0.072,-0.09 0.035,-0.383 -0.017,-0.144 -0.105,0.063 -0.009,-0.072 -0.049,-0.248 -0.337,-0.892 -0.303,-0.267 -0.236,-0.148 -0.057,-0.081 -0.019,-0.072 0.064,-0.803"
     id="Hancock"
     inkscape:connector-curvature="0" />
  <path
     style="font-size:12px;fill:#d0d0d0;fill-rule:nonzero;stroke:#000000;stroke-width:1;stroke-linecap:butt;stroke-linejoin:bevel;stroke-miterlimit:4;stroke-opacity:1;stroke-dasharray:none;marker-start:none"
     d="m 28.617419,21.324297 3.034,0.14 0.104,-0.073 0.18,-0.063 0.058,0.009 0.298,0.225 0.045,0.081 0.748,2.367 0.072,0.455 -0.103,0.613 -0.037,0.063 -0.15,0.126 0.011,0.136 0.364,0.387 0.808,0.811 0.531,0.28 0.018,0.009 0.032,0.014 0.094,0.022 0.045,-0.009 0.226,-0.329 -0.036,-0.212 0,-0.356 0.045,-0.072 0.112,-0.023 1.064,0.05 0.005,0 0.396,0.289 0.222,0.198 1.906,2.321 0.198,0.388 0.239,0.572 0.018,0.09 -0.238,0.577 -0.789,1.627 -0.208,0.388 -0.599,0.658 -0.339,0.072 -1.234,0.59 -2.956,3.25 -0.357,0.185 -0.302,0.135 -0.081,0.027 -0.117,-0.126 -0.248,-0.388 -0.267,-0.473 -0.554,-0.992 -0.04,-0.396 -0.275,-0.694 -0.644,-0.974 -1.127,-2.033 0.879,-0.459 -0.154,-0.645 -0.667,-1.42 -0.802,-1.509 0.253,-0.099 0.72,-0.361 -0.464,-1.023 -1.878,-3.286 1.941,-1.14"
     id="Washington"
     inkscape:connector-curvature="0" />
  <path
     style="font-size:12px;fill:#d0d0d0;fill-rule:nonzero;stroke:#000000;stroke-width:1;stroke-linecap:butt;stroke-linejoin:bevel;stroke-miterlimit:4;stroke-opacity:1;stroke-dasharray:none;marker-start:none"
     d="m 26.676419,22.464297 1.878,3.286 0.464,1.023 -0.72,0.361 -0.253,0.099 -2.033,1.063 0.745,1.411 -0.542,1.541 -1.05,0.537 0.338,0.626 0.956,1.92 -1.416,0.73 -0.58,0.433 -0.222,0.41 -0.486,0.271 -0.253,0.112 -0.257,-0.171 -2.839,1.609 -0.501,-1.005 -0.514,0.253 -2.042,-4.138 1.682,-0.852 2.442,-1.276 0.347,-1.415 -1.752,-3.34 -0.875,0.456 -0.5,-1.866 1.086,-0.617 -1.127,-3.922 -0.901,-3.074 -0.504,-1.803 1.067,-0.306 2.267,-0.495 1.681,5.367 0.271,0.857 0.279,0.991 0.145,0.608 0.608,2.065 0.202,0.031 0.649,-0.36 0.614,-0.348 -0.022,-0.067 0.004,-0.045 1.664,-0.96"
     id="Penobscot"
     inkscape:connector-curvature="0" />
  <path
     style="font-size:12px;fill:#d0d0d0;fill-rule:nonzero;stroke:#000000;stroke-width:1;stroke-linecap:butt;stroke-linejoin:bevel;stroke-miterlimit:4;stroke-opacity:1;stroke-dasharray:none;marker-start:none"
     d="m 4.8464192,28.472297 1.191,2.569 1.735,3.538 1.122,-0.045 1.014,-0.279 0.1979998,-0.104 3.31,5.07 0.509,0.803 -1.33,2.028 -0.87,0.627 -0.261,-0.528 -0.496,-0.748 -2.2309998,-0.158 -1.501,-1.843 -1.144,1.162 -1.439,-3.384 -0.198,-1.429 -0.703,-1.632 -0.009,-0.432 -0.009,-0.415 0.121,-2.569 0.126,-0.689 0.082,-0.163 0.094,-0.189 0.222,-0.401 0.341,-0.626 0.028,-0.046 0.098,-0.117"
     id="Franklin"
     inkscape:connector-curvature="0" />
  <path
     style="font-size:12px;fill:#d0d0d0;fill-rule:nonzero;stroke:#000000;stroke-width:1;stroke-linecap:butt;stroke-linejoin:bevel;stroke-miterlimit:4;stroke-opacity:1;stroke-dasharray:none;marker-start:none"
     d="m 8.8734192,15.162297 0.535,2.259 1.2529998,4.295 0.604,0.685 0.748,1.361 -0.364,1.555 0.328,2.759 2.655,5.183 0.613,1.023 0.865,-0.433 1.239,-1.014 2.042,4.138 -1.704,0.878 -0.012,-0.198 -0.064,-0.117 -0.126,0.004 -1.244,0.627 0.045,0.135 0.104,0.216 0.158,0.163 0.121,0.036 0.306,0.225 0.046,0.564 -0.103,0.121 -2.029,0.167 -0.964,0.23 -0.509,-0.803 -3.31,-5.07 -0.1979998,0.104 -1.014,0.279 -1.122,0.045 -1.735,-3.538 -1.191,-2.569 0.073,-0.09 0.501,-0.6 1.163,-2.812 0.021,-0.207 -0.021,-0.537 -0.14,-0.108 -0.144,-0.067 -0.433,0 -0.167,-0.551 -0.145,-0.603 -0.279,-1.618 0.113,-0.875 0.14,-1.05 0.005,-0.013 0.098,-0.28 0.087,-0.135 0.012,-0.009 0.024,-0.013 0.283,-0.208 0.5,-0.775 -0.103,-0.825 -0.153,-1.204 2.592,-0.73"
     id="Somerset"
     inkscape:connector-curvature="0" />
</svg>
