<?xml version="1.0" encoding="UTF-8" standalone="no"?>
<!-- Created with Inkscape (http://www.inkscape.org/) -->

<svg
   xmlns:dc="http://purl.org/dc/elements/1.1/"
   xmlns:cc="http://creativecommons.org/ns#"
   xmlns:rdf="http://www.w3.org/1999/02/22-rdf-syntax-ns#"
   xmlns:svg="http://www.w3.org/2000/svg"
   xmlns="http://www.w3.org/2000/svg"
   xmlns:sodipodi="http://sodipodi.sourceforge.net/DTD/sodipodi-0.dtd"
   xmlns:inkscape="http://www.inkscape.org/namespaces/inkscape"
   version="1.0"
   width="56.990002"
   height="60.43"
   sodipodi:version="0.32"
   inkscape:version="0.48.2 r9819"
   sodipodi:docname="wi.svg"
   inkscape:output_extension="org.inkscape.output.svg.inkscape"
   id="svg3065">
  <metadata
     id="metadata3067">
    <rdf:RDF>
      <cc:Work
         rdf:about="">
        <dc:format>image/svg+xml</dc:format>
        <dc:type
           rdf:resource="http://purl.org/dc/dcmitype/StillImage" />
      </cc:Work>
    </rdf:RDF>
  </metadata>
  <defs
     id="defs3069" />
  <sodipodi:namedview
     pagecolor="#ffffff"
     bordercolor="#666666"
     borderopacity="1"
     objecttolerance="10"
     gridtolerance="10"
     guidetolerance="10"
     inkscape:pageopacity="0"
     inkscape:pageshadow="2"
     inkscape:window-width="1366"
     inkscape:window-height="716"
     fit-margin-top="0"
     fit-margin-left="0"
     fit-margin-right="0"
     fit-margin-bottom="0"
     inkscape:zoom="4.5491794"
     inkscape:cx="-15.992404"
     inkscape:cy="30.772077"
     inkscape:window-x="-8"
     inkscape:window-y="-8"
     inkscape:window-maximized="1"
     inkscape:current-layer="svg3065"
     id="namedview3071"
     showgrid="false" />
  <path
     style="font-size:12px;fill:#d0d0d0;fill-rule:nonzero;stroke:#000000;stroke-width:1;stroke-linecap:butt;stroke-linejoin:bevel;stroke-miterlimit:4;stroke-opacity:1;stroke-dasharray:none;marker-start:none"
     d="m 49.191239,28.896762 0.086,-0.626 0.666,-1.212 0.217,-0.343 2.398,-2.754 1.668,-3.042 0.482,-0.42 0.297,-0.197 0.212,-0.005 0.098,0.023 0.055,0.054 0.086,0.153 0.013,0.414 -0.027,0.248 -0.464,1.835 -0.27,0.414 -0.794,1.808 -1.18,2.785 -0.225,0.591 -3.318,0.274"
     id="Door"
     inkscape:connector-curvature="0" />
  <path
     style="font-size:12px;fill:#d0d0d0;fill-rule:nonzero;stroke:#000000;stroke-width:1;stroke-linecap:butt;stroke-linejoin:bevel;stroke-miterlimit:4;stroke-opacity:1;stroke-dasharray:none;marker-start:none"
     d="m 49.191239,28.896762 3.318,-0.274 -0.506,0.955 -0.216,0.708 -0.095,0.536 -0.333,2.416 -2.051,0.184 -0.32,-4.087 0.203,-0.438"
     id="Kewaunee"
     inkscape:connector-curvature="0" />
  <path
     style="font-size:12px;fill:#d0d0d0;fill-rule:nonzero;stroke:#000000;stroke-width:1;stroke-linecap:butt;stroke-linejoin:bevel;stroke-miterlimit:4;stroke-opacity:1;stroke-dasharray:none;marker-start:none"
     d="m 3.0782391,29.293762 5.721,-0.158 0.103,2.236 -1.591,1.92 -0.032,-0.049 -0.089,-0.077 -0.104,-0.05 -0.158,-0.036 -1.239,-0.049 -0.392,-0.046 -0.145,-0.067 -0.667,-0.663 -0.023,-0.126 -0.099,-0.126 -0.95,-0.807 -0.654,-0.378 0.319,-1.524"
     id="Pierce"
     inkscape:connector-curvature="0" />
  <path
     style="font-size:12px;fill:#d0d0d0;fill-rule:nonzero;stroke:#000000;stroke-width:1;stroke-linecap:butt;stroke-linejoin:bevel;stroke-miterlimit:4;stroke-opacity:1;stroke-dasharray:none;marker-start:none"
     d="m 8.9022391,31.371762 4.4439999,-0.18 0.054,1.122 -3.241,0.14 -0.1759999,0.09 -0.057,0.054 -0.055,0.238 -0.32,1.749 -0.031,0.361 -1.478,-0.563 -0.731,-1.091 1.591,-1.92"
     id="Pepin"
     inkscape:connector-curvature="0" />
  <path
     style="font-size:12px;fill:#d0d0d0;fill-rule:nonzero;stroke:#000000;stroke-width:1;stroke-linecap:butt;stroke-linejoin:bevel;stroke-miterlimit:4;stroke-opacity:1;stroke-dasharray:none;marker-start:none"
     d="m 14.514239,32.268762 0.208,4.511 -0.087,1.812 -0.054,1.077 -2.907,-2.055 -2.1539999,-2.668 0.031,-0.361 0.32,-1.749 0.055,-0.238 0.057,-0.054 0.1759999,-0.09 3.241,-0.14 1.114,-0.045"
     id="Buffalo"
     inkscape:connector-curvature="0" />
  <path
     style="font-size:12px;fill:#d0d0d0;fill-rule:nonzero;stroke:#000000;stroke-width:1;stroke-linecap:butt;stroke-linejoin:bevel;stroke-miterlimit:4;stroke-opacity:1;stroke-dasharray:none;marker-start:none"
     d="m 17.849239,32.092762 0.225,4.511 0.113,-0.004 0.126,2.164 -0.33,-0.055 -1.099,0.32 -0.266,0.379 -0.012,0.045 -0.019,0.248 0.059,0.099 0.085,0.068 0.068,0.144 0,0.063 -0.906,0.045 -1.312,-0.451 0.054,-1.077 0.087,-1.812 -0.208,-4.511 3.335,-0.176"
     id="Trempealeau"
     inkscape:connector-curvature="0" />
  <path
     style="font-size:12px;fill:#d0d0d0;fill-rule:nonzero;stroke:#000000;stroke-width:1;stroke-linecap:butt;stroke-linejoin:bevel;stroke-miterlimit:4;stroke-opacity:1;stroke-dasharray:none;marker-start:none"
     d="m 17.849239,32.092762 2.23,-0.108 0.054,1.118 1.173,1.063 3.362,-0.189 1.108,-0.095 0.171,2.272 0.07,1.203 -1.223,0 -3.214,0.207 -0.977,0.063 -0.446,0.167 -0.249,0.239 0.064,0.762 -1.659,-0.031 -0.126,-2.164 -0.113,0.004 -0.225,-4.511"
     id="Jackson"
     inkscape:connector-curvature="0" />
  <path
     style="font-size:12px;fill:#d0d0d0;fill-rule:nonzero;stroke:#000000;stroke-width:1;stroke-linecap:butt;stroke-linejoin:bevel;stroke-miterlimit:4;stroke-opacity:1;stroke-dasharray:none;marker-start:none"
     d="m 19.899239,28.617762 0.18,3.367 -2.23,0.108 -3.335,0.176 -1.114,0.045 -0.054,-1.122 -0.104,-2.227 6.657,-0.347"
     id="Eau Claire"
     inkscape:connector-curvature="0" />
  <path
     style="font-size:12px;fill:#d0d0d0;fill-rule:nonzero;stroke:#000000;stroke-width:1;stroke-linecap:butt;stroke-linejoin:bevel;stroke-miterlimit:4;stroke-opacity:1;stroke-dasharray:none;marker-start:none"
     d="m 19.769239,26.377762 5.547,-0.347 0.258,4.493 0.202,3.358 -1.108,0.095 -3.362,0.189 -1.173,-1.063 -0.054,-1.118 -0.18,-3.367 -0.13,-2.24"
     id="Clark"
     inkscape:connector-curvature="0" />
  <path
     style="font-size:12px;fill:#d0d0d0;fill-rule:nonzero;stroke:#000000;stroke-width:1;stroke-linecap:butt;stroke-linejoin:bevel;stroke-miterlimit:4;stroke-opacity:1;stroke-dasharray:none;marker-start:none"
     d="m 13.978239,23.299762 5.597,-0.28 0.324,5.598 -6.657,0.347 -0.342,-4.529 1.078,-1.136"
     id="Chippewa"
     inkscape:connector-curvature="0" />
  <path
     style="font-size:12px;fill:#d0d0d0;fill-rule:nonzero;stroke:#000000;stroke-width:1;stroke-linecap:butt;stroke-linejoin:bevel;stroke-miterlimit:4;stroke-opacity:1;stroke-dasharray:none;marker-start:none"
     d="m 12.900239,24.435762 0.342,4.529 0.104,2.227 -4.4439999,0.18 -0.103,-2.236 -0.365,-4.529 4.4659999,-0.171"
     id="Dunn"
     inkscape:connector-curvature="0" />
  <path
     style="font-size:12px;fill:#d0d0d0;fill-rule:nonzero;stroke:#000000;stroke-width:1;stroke-linecap:butt;stroke-linejoin:bevel;stroke-miterlimit:4;stroke-opacity:1;stroke-dasharray:none;marker-start:none"
     d="m 8.4342391,24.606762 0.365,4.529 -5.721,0.158 0.07,-0.973 -0.196,-0.906 -0.224,-0.478 -0.028,-0.424 0.19,-1.699 5.544,-0.207"
     id="St. Croix"
     inkscape:connector-curvature="0" />
  <path
     style="font-size:12px;fill:#d0d0d0;fill-rule:nonzero;stroke:#000000;stroke-width:1;stroke-linecap:butt;stroke-linejoin:bevel;stroke-miterlimit:4;stroke-opacity:1;stroke-dasharray:none;marker-start:none"
     d="m 8.2212391,19.062762 0.213,5.544 -5.544,0.207 0.139,-1.122 0.109,-0.099 0.012,-0.01 0.24,-0.297 0.342,-0.874 -0.18,-0.911 -0.445,-0.842 -0.713,-0.384 -0.18,0.028 -0.433,-0.073 -0.122,-0.094 -0.031,-0.253 -0.023,-0.342 -0.004,-0.085 0.012,-0.204 3.224,-0.09 -0.031,-1.113 3.375,-0.09 0.04,1.104"
     id="Polk"
     inkscape:connector-curvature="0" />
  <path
     style="font-size:12px;fill:#d0d0d0;fill-rule:nonzero;stroke:#000000;stroke-width:1;stroke-linecap:butt;stroke-linejoin:bevel;stroke-miterlimit:4;stroke-opacity:1;stroke-dasharray:none;marker-start:none"
     d="m 9.3392391,19.017762 4.4399999,-0.167 0.199,4.449 -1.078,1.136 -4.4659999,0.171 -0.213,-5.544 1.118,-0.045"
     id="Barron"
     inkscape:connector-curvature="0" />
  <path
     style="font-size:12px;fill:#d0d0d0;fill-rule:nonzero;stroke:#000000;stroke-width:1;stroke-linecap:butt;stroke-linejoin:bevel;stroke-miterlimit:4;stroke-opacity:1;stroke-dasharray:none;marker-start:none"
     d="m 21.562239,18.440762 0.19,3.353 -2.177,1.226 -5.597,0.28 -0.199,-4.449 7.783,-0.41"
     id="Rusk"
     inkscape:connector-curvature="0" />
  <path
     style="font-size:12px;fill:#d0d0d0;fill-rule:nonzero;stroke:#000000;stroke-width:1;stroke-linecap:butt;stroke-linejoin:bevel;stroke-miterlimit:4;stroke-opacity:1;stroke-dasharray:none;marker-start:none"
     d="m 27.517239,21.396762 0.199,3.367 -0.88,0.054 -0.496,0.406 0.045,0.744 -1.069,0.063 -5.547,0.347 -0.194,-3.358 2.177,-1.226 2.001,-0.103 1.213,-0.118 1.798,-0.139 0.753,-0.037"
     id="Taylor"
     inkscape:connector-curvature="0" />
  <path
     style="font-size:12px;fill:#d0d0d0;fill-rule:nonzero;stroke:#000000;stroke-width:1;stroke-linecap:butt;stroke-linejoin:bevel;stroke-miterlimit:4;stroke-opacity:1;stroke-dasharray:none;marker-start:none"
     d="m 24.699239,13.829762 2.318,-0.148 0.081,1.09 0.27,4.399 0.149,2.226 -0.753,0.037 -1.798,0.139 -1.213,0.118 -2.001,0.103 -0.19,-3.353 -0.229,-4.417 3.366,-0.194"
     id="Price"
     inkscape:connector-curvature="0" />
  <path
     style="font-size:12px;fill:#d0d0d0;fill-rule:nonzero;stroke:#000000;stroke-width:1;stroke-linecap:butt;stroke-linejoin:bevel;stroke-miterlimit:4;stroke-opacity:1;stroke-dasharray:none;marker-start:none"
     d="m 13.369239,12.171762 5.62,-0.253 0.09,2.051 0.023,0.185 2.231,-0.131 0.229,4.417 -7.783,0.41 -0.41,-6.679"
     id="Sawyer"
     inkscape:connector-curvature="0" />
  <path
     style="font-size:12px;fill:#d0d0d0;fill-rule:nonzero;stroke:#000000;stroke-width:1;stroke-linecap:butt;stroke-linejoin:bevel;stroke-miterlimit:4;stroke-opacity:1;stroke-dasharray:none;marker-start:none"
     d="m 8.8982391,12.360762 4.4709999,-0.189 0.41,6.679 -4.4399999,0.167 -0.202,-4.426 -0.154,0.005 -0.085,-2.236"
     id="Washburn"
     inkscape:connector-curvature="0" />
  <path
     style="font-size:12px;fill:#d0d0d0;fill-rule:nonzero;stroke:#000000;stroke-width:1;stroke-linecap:butt;stroke-linejoin:bevel;stroke-miterlimit:4;stroke-opacity:1;stroke-dasharray:none;marker-start:none"
     d="m 6.7072391,12.455762 2.191,-0.095 0.085,2.236 0.154,-0.005 0.202,4.426 -1.118,0.045 -0.04,-1.104 -3.375,0.09 0.031,1.113 -3.224,0.09 0.367,-1.122 0.905,-1.812 0.112,-0.202 0.113,-0.149 0.448,-0.392 0.003,-0.005 1.875,-1.231 1.312,-0.819 -0.018,-0.505 -0.023,-0.559"
     id="Burnett"
     inkscape:connector-curvature="0" />
  <path
     style="font-size:12px;fill:#d0d0d0;fill-rule:nonzero;stroke:#000000;stroke-width:1;stroke-linecap:butt;stroke-linejoin:bevel;stroke-miterlimit:4;stroke-opacity:1;stroke-dasharray:none;marker-start:none"
     d="m 6.4692391,5.951761 0.202,0.14 0.248,0.022 0.267,-0.018 0.044,-0.027 0.041,-0.04 0.121,-0.316 -0.009,-0.144 -0.009,-0.009 -0.045,-0.05 0,-0.009 -0.031,-0.081 0.009,-0.095 0.05,-0.103 0.63,-0.429 0.24,-0.018 0.513,0.501 0.125,0.054 0.046,-0.032 0.248,0.167 0.135,0.077 0.105,0.045 0.17,0.027 1.0869999,-0.18 0.261,-0.073 2.091,-0.879 0.122,3.061 0.067,1.0999999 0.172,3.5290011 -4.4709999,0.189 -2.191,0.095 -0.121,-3.3450011 -0.117,-3.1589999"
     id="Douglas"
     inkscape:connector-curvature="0" />
  <path
     style="font-size:12px;fill:#d0d0d0;fill-rule:nonzero;stroke:#000000;stroke-width:1;stroke-linecap:butt;stroke-linejoin:bevel;stroke-miterlimit:4;stroke-opacity:1;stroke-dasharray:none;marker-start:none"
     d="m 18.665239,6.393761 0.324,5.525001 -5.62,0.253 -0.172,-3.5290011 -0.067,-1.0999999 -0.122,-3.061 0.127,0.01 0.229,-0.05 3.534,-1.461 0.077,-0.053 0.373,-0.275 0.113,-0.109 0.288,-0.36 0.262,-0.338 0.045,-0.036 0.852,-0.266 0.135,-0.023 0.162,0.055 0.483,0.373 0.296,0.343 0.037,0.068 0,0.063 -0.378,0.856 -0.56,0.784 -0.643,2.146 0.003,0.045 0.091,0.103 0.131,0.037"
     id="Bayfield"
     inkscape:connector-curvature="0" />
  <path
     style="font-size:12px;fill:#d0d0d0;fill-rule:nonzero;stroke:#000000;stroke-width:1;stroke-linecap:butt;stroke-linejoin:bevel;stroke-miterlimit:4;stroke-opacity:1;stroke-dasharray:none;marker-start:none"
     d="m 18.665239,6.393761 0.085,0.022 0.077,0 0.036,-0.013 0.956,-0.582 0.211,-0.157 0.127,-0.136 1.149,0.221 0.725,0.473 0.073,1.077 0.103,1.8389999 0.055,1.4920011 1.131,-0.063 1.162,1.037 0.095,1.113 0.049,1.113 -3.366,0.194 -2.231,0.131 -0.023,-0.185 -0.09,-2.051 -0.324,-5.525001"
     id="Ashland"
     inkscape:connector-curvature="0" />
  <path
     style="font-size:12px;fill:#d0d0d0;fill-rule:nonzero;stroke:#000000;stroke-width:1;stroke-linecap:butt;stroke-linejoin:bevel;stroke-miterlimit:4;stroke-opacity:1;stroke-dasharray:none;marker-start:none"
     d="m 23.217239,6.384761 1.018,0.554 1.812,2.2269999 0.829,0.175 0.91,0.189001 0.268,4.0840001 -1.037,0.068 -2.318,0.148 -0.049,-1.113 -0.095,-1.113 -1.162,-1.037 -1.131,0.063 -0.055,-1.4920011 -0.103,-1.8389999 -0.073,-1.077 1.186,0.163"
     id="Iron"
     inkscape:connector-curvature="0" />
  <path
     style="font-size:12px;fill:#d0d0d0;fill-rule:nonzero;stroke:#000000;stroke-width:1;stroke-linecap:butt;stroke-linejoin:bevel;stroke-miterlimit:4;stroke-opacity:1;stroke-dasharray:none;marker-start:none"
     d="m 27.786239,9.5297616 6.464,1.3260004 0.486,0.099 0.38,0.081 0.613,0.207 0.635,0.311 0.546,0.266 0.08,1.177 -1.027,0.072 0.085,1.118 -1.117,0.536 -1.717,-0.379 -6.116,0.428 -0.081,-1.09 1.037,-0.068 -0.268,-4.0840004"
     id="Vilas"
     inkscape:connector-curvature="0" />
  <path
     style="font-size:12px;fill:#d0d0d0;fill-rule:nonzero;stroke:#000000;stroke-width:1;stroke-linecap:butt;stroke-linejoin:bevel;stroke-miterlimit:4;stroke-opacity:1;stroke-dasharray:none;marker-start:none"
     d="m 36.048239,14.186762 0.415,5.53 -3.426,0.212 -0.108,-1.132 -2.213,0.149 -3.348,0.225 -0.27,-4.399 6.116,-0.428 1.717,0.379 1.117,-0.536"
     id="Oneida"
     inkscape:connector-curvature="0" />
  <path
     style="font-size:12px;fill:#d0d0d0;fill-rule:nonzero;stroke:#000000;stroke-width:1;stroke-linecap:butt;stroke-linejoin:bevel;stroke-miterlimit:4;stroke-opacity:1;stroke-dasharray:none;marker-start:none"
     d="m 33.037239,19.928762 0.298,4.479 -5.619,0.356 -0.199,-3.367 -0.149,-2.226 3.348,-0.225 2.213,-0.149 0.108,1.132"
     id="Lincoln"
     inkscape:connector-curvature="0" />
  <path
     style="font-size:12px;fill:#d0d0d0;fill-rule:nonzero;stroke:#000000;stroke-width:1;stroke-linecap:butt;stroke-linejoin:bevel;stroke-miterlimit:4;stroke-opacity:1;stroke-dasharray:none;marker-start:none"
     d="m 33.037239,19.928762 3.426,-0.212 1.113,-0.086 0.059,1.113 2.25,-0.171 0.147,2.236 0.383,-0.027 0.06,1.126 -3.102,0.226 0.091,1.149 -2.204,0.153 -1.925,-1.028 -0.298,-4.479"
     id="Langlade"
     inkscape:connector-curvature="0" />
  <path
     style="font-size:12px;fill:#d0d0d0;fill-rule:nonzero;stroke:#000000;stroke-width:1;stroke-linecap:butt;stroke-linejoin:bevel;stroke-miterlimit:4;stroke-opacity:1;stroke-dasharray:none;marker-start:none"
     d="m 27.716239,24.763762 5.619,-0.356 1.925,1.028 0.32,4.48 -5.693,0.343 -4.313,0.265 -0.258,-4.493 1.069,-0.063 -0.045,-0.744 0.496,-0.406 0.88,-0.054"
     id="Marathon"
     inkscape:connector-curvature="0" />
  <path
     style="font-size:12px;fill:#d0d0d0;fill-rule:nonzero;stroke:#000000;stroke-width:1;stroke-linecap:butt;stroke-linejoin:bevel;stroke-miterlimit:4;stroke-opacity:1;stroke-dasharray:none;marker-start:none"
     d="m 25.574239,30.523762 4.313,-0.265 0.153,2.235 1.082,-0.068 0.13,1.759 0.109,1.64 -1.64,0.086 -3.774,0.243 -0.171,-2.272 -0.202,-3.358"
     id="Wood"
     inkscape:connector-curvature="0" />
  <path
     style="font-size:12px;fill:#d0d0d0;fill-rule:nonzero;stroke:#000000;stroke-width:1;stroke-linecap:butt;stroke-linejoin:bevel;stroke-miterlimit:4;stroke-opacity:1;stroke-dasharray:none;marker-start:none"
     d="m 32.533239,35.769762 0.23,3.404 0.274,4.385 -1.724,0.135 -0.98,-1.879 -0.848,-0.902 -0.215,-0.59 -0.582,-2.285 0.135,-0.401 0.898,-1.726 1.64,-0.086 1.172,-0.055"
     id="Adams"
     inkscape:connector-curvature="0" />
  <path
     style="font-size:12px;fill:#d0d0d0;fill-rule:nonzero;stroke:#000000;stroke-width:1;stroke-linecap:butt;stroke-linejoin:bevel;stroke-miterlimit:4;stroke-opacity:1;stroke-dasharray:none;marker-start:none"
     d="m 25.947239,36.153762 3.774,-0.243 -0.898,1.726 -0.135,0.401 0.582,2.285 0.215,0.59 0.848,0.902 0.98,1.879 -4.901,0.307 -0.067,-1.168 -0.328,-5.476 -0.07,-1.203"
     id="Juneau"
     inkscape:connector-curvature="0" />
  <path
     style="font-size:12px;fill:#d0d0d0;fill-rule:nonzero;stroke:#000000;stroke-width:1;stroke-linecap:butt;stroke-linejoin:bevel;stroke-miterlimit:4;stroke-opacity:1;stroke-dasharray:none;marker-start:none"
     d="m 19.972239,38.794762 -0.064,-0.762 0.249,-0.239 0.446,-0.167 0.977,-0.063 3.214,-0.207 1.223,0 0.328,5.476 -5.553,0.393 -0.141,-2.623 -0.126,-1.844 -0.553,0.036"
     id="Monroe"
     inkscape:connector-curvature="0" />
  <path
     style="font-size:12px;fill:#d0d0d0;fill-rule:nonzero;stroke:#000000;stroke-width:1;stroke-linecap:butt;stroke-linejoin:bevel;stroke-miterlimit:4;stroke-opacity:1;stroke-dasharray:none;marker-start:none"
     d="m 18.313239,38.763762 1.659,0.031 0.553,-0.036 0.126,1.844 0.141,2.623 -3.326,0.166 -0.226,-1.559 -1.347,-1.713 0.906,-0.045 0,-0.063 -0.068,-0.144 -0.085,-0.068 -0.059,-0.099 0.019,-0.248 0.012,-0.045 0.266,-0.379 1.099,-0.32 0.33,0.055"
     id="La Crosse"
     inkscape:connector-curvature="0" />
  <path
     style="font-size:12px;fill:#d0d0d0;fill-rule:nonzero;stroke:#000000;stroke-width:1;stroke-linecap:butt;stroke-linejoin:bevel;stroke-miterlimit:4;stroke-opacity:1;stroke-dasharray:none;marker-start:none"
     d="m 26.345239,42.832762 0.067,1.168 0.081,1.122 -3.357,0.207 0.122,1.682 -5.013,0.265 -0.162,-0.996 -0.617,-2.889 3.326,-0.166 5.553,-0.393"
     id="Vernon"
     inkscape:connector-curvature="0" />
  <path
     style="font-size:12px;fill:#d0d0d0;fill-rule:nonzero;stroke:#000000;stroke-width:1;stroke-linecap:butt;stroke-linejoin:bevel;stroke-miterlimit:4;stroke-opacity:1;stroke-dasharray:none;marker-start:none"
     d="m 26.412239,44.000762 4.901,-0.307 0.476,0.528 1.266,0.374 0.063,0.053 0.141,2.299 -0.171,0.154 -0.226,0.112 -0.099,0.031 -0.135,-0.017 -0.086,0.027 -0.374,0.617 -0.023,0.176 0.072,0.103 -1.027,1.196 -3.294,0.748 0.008,-0.033 -0.301,-5.02 -1.11,0.081 -0.081,-1.122"
     id="Sauk"
     inkscape:connector-curvature="0" />
  <path
     style="font-size:12px;fill:#d0d0d0;fill-rule:nonzero;stroke:#000000;stroke-width:1;stroke-linecap:butt;stroke-linejoin:bevel;stroke-miterlimit:4;stroke-opacity:1;stroke-dasharray:none;marker-start:none"
     d="m 26.493239,45.122762 1.11,-0.081 0.301,5.02 -0.008,0.033 -2.242,-0.343 -2.194,0.505 -0.202,-3.245 -0.122,-1.682 3.357,-0.207"
     id="Richland"
     inkscape:connector-curvature="0" />
  <path
     style="font-size:12px;fill:#d0d0d0;fill-rule:nonzero;stroke:#000000;stroke-width:1;stroke-linecap:butt;stroke-linejoin:bevel;stroke-miterlimit:4;stroke-opacity:1;stroke-dasharray:none;marker-start:none"
     d="m 18.245239,47.276762 5.013,-0.265 0.202,3.245 -0.676,0.662 -2.862,1.835 -0.076,0.03 -0.91,0.141 -0.2,-1.226 0.245,-0.951 0.72,-1.213 0.036,-0.161 -0.283,-0.455 -0.217,-0.275 -1.001,-0.704 0.009,-0.663"
     id="Crawford"
     inkscape:connector-curvature="0" />
  <path
     style="font-size:12px;fill:#d0d0d0;fill-rule:nonzero;stroke:#000000;stroke-width:1;stroke-linecap:butt;stroke-linejoin:bevel;stroke-miterlimit:4;stroke-opacity:1;stroke-dasharray:none;marker-start:none"
     d="m 31.190239,49.346762 0.292,4.506 0.037,0.564 -5.544,0.355 -0.321,-5.02 2.242,0.343 3.294,-0.748"
     id="Iowa"
     inkscape:connector-curvature="0" />
  <path
     style="font-size:12px;fill:#d0d0d0;fill-rule:nonzero;stroke:#000000;stroke-width:1;stroke-linecap:butt;stroke-linejoin:bevel;stroke-miterlimit:4;stroke-opacity:1;stroke-dasharray:none;marker-start:none"
     d="m 23.460239,50.256762 2.194,-0.505 0.321,5.02 0.239,3.957 -2.027,0.1 0.036,-0.062 -0.006,-0.073 -0.103,-0.325 -0.6,-1.091 -0.068,-0.068 -0.108,-0.053 -0.473,-0.113 -1.221,-0.234 -0.496,-0.118 -0.262,-0.121 -0.761,-0.505 -0.117,-0.243 -0.861,-1.912 -0.211,-0.986 0.91,-0.141 0.076,-0.03 2.862,-1.835 0.676,-0.662"
     id="Grant"
     inkscape:connector-curvature="0" />
  <path
     style="font-size:12px;fill:#d0d0d0;fill-rule:nonzero;stroke:#000000;stroke-width:1;stroke-linecap:butt;stroke-linejoin:bevel;stroke-miterlimit:4;stroke-opacity:1;stroke-dasharray:none;marker-start:none"
     d="m 25.975239,54.771762 5.544,-0.355 0.266,3.988 -0.843,0.049 -4.728,0.275 -0.239,-3.957"
     id="Lafayette"
     inkscape:connector-curvature="0" />
  <path
     style="font-size:12px;fill:#d0d0d0;fill-rule:nonzero;stroke:#000000;stroke-width:1;stroke-linecap:butt;stroke-linejoin:bevel;stroke-miterlimit:4;stroke-opacity:1;stroke-dasharray:none;marker-start:none"
     d="m 31.482239,53.852762 4.422,-0.139 0.342,4.457 -0.338,0.021 -4.123,0.213 -0.266,-3.988 -0.037,-0.564"
     id="Green"
     inkscape:connector-curvature="0" />
  <path
     style="font-size:12px;fill:#d0d0d0;fill-rule:nonzero;stroke:#000000;stroke-width:1;stroke-linecap:butt;stroke-linejoin:bevel;stroke-miterlimit:4;stroke-opacity:1;stroke-dasharray:none;marker-start:none"
     d="m 36.733239,38.884762 0.104,1.375 -0.22,0.843 -0.397,0.631 0.112,1.591 -3.295,0.234 -0.274,-4.385 3.97,-0.289"
     id="Marquette"
     inkscape:connector-curvature="0" />
  <path
     style="font-size:12px;fill:#d0d0d0;fill-rule:nonzero;stroke:#000000;stroke-width:1;stroke-linecap:butt;stroke-linejoin:bevel;stroke-miterlimit:4;stroke-opacity:1;stroke-dasharray:none;marker-start:none"
     d="m 29.887239,30.258762 5.693,-0.343 0.392,5.647 -3.439,0.207 -1.172,0.055 -0.109,-1.64 -0.13,-1.759 -1.082,0.068 -0.153,-2.235"
     id="Portage"
     inkscape:connector-curvature="0" />
  <path
     style="font-size:12px;fill:#d0d0d0;fill-rule:nonzero;stroke:#000000;stroke-width:1;stroke-linecap:butt;stroke-linejoin:bevel;stroke-miterlimit:4;stroke-opacity:1;stroke-dasharray:none;marker-start:none"
     d="m 35.580239,29.915762 5.661,-0.383 0.081,1.132 -1.195,0.094 0.117,1.577 0.195,2.898 -1.352,0.113 -3.115,0.216 -0.392,-5.647"
     id="Waupaca"
     inkscape:connector-curvature="0" />
  <path
     style="font-size:12px;fill:#d0d0d0;fill-rule:nonzero;stroke:#000000;stroke-width:1;stroke-linecap:butt;stroke-linejoin:bevel;stroke-miterlimit:4;stroke-opacity:1;stroke-dasharray:none;marker-start:none"
     d="m 39.087239,35.346762 0.256,3.344 -2.61,0.194 -3.97,0.289 -0.23,-3.404 3.439,-0.207 3.115,-0.216"
     id="Waushara"
     inkscape:connector-curvature="0" />
  <path
     style="font-size:12px;fill:#d0d0d0;fill-rule:nonzero;stroke:#000000;stroke-width:1;stroke-linecap:butt;stroke-linejoin:bevel;stroke-miterlimit:4;stroke-opacity:1;stroke-dasharray:none;marker-start:none"
     d="m 39.343239,38.690762 0.086,1.132 0.252,3.38 -1.122,0.09 -1.119,0.099 -0.008,-0.153 -1.1,0.086 -0.112,-1.591 0.397,-0.631 0.22,-0.843 -0.104,-1.375 2.61,-0.194"
     id="Green Lake"
     inkscape:connector-curvature="0" />
  <path
     style="font-size:12px;fill:#d0d0d0;fill-rule:nonzero;stroke:#000000;stroke-width:1;stroke-linecap:butt;stroke-linejoin:bevel;stroke-miterlimit:4;stroke-opacity:1;stroke-dasharray:none;marker-start:none"
     d="m 36.332239,43.324762 1.1,-0.086 0.008,0.153 1.119,-0.099 0.312,4.499 -0.897,0.094 -2.408,0.189 -0.013,-0.166 -3.336,0.242 -0.072,-0.103 0.023,-0.176 0.374,-0.617 0.086,-0.027 0.135,0.017 0.099,-0.031 0.226,-0.112 0.171,-0.154 -0.141,-2.299 -0.063,-0.053 -1.266,-0.374 -0.476,-0.528 1.724,-0.135 3.295,-0.234"
     id="Columbia"
     inkscape:connector-curvature="0" />
  <path
     style="font-size:12px;fill:#d0d0d0;fill-rule:nonzero;stroke:#000000;stroke-width:1;stroke-linecap:butt;stroke-linejoin:bevel;stroke-miterlimit:4;stroke-opacity:1;stroke-dasharray:none;marker-start:none"
     d="m 38.871239,47.791762 0.085,1.121 0.287,4.535 -3.339,0.266 -4.422,0.139 -0.292,-4.506 1.027,-1.196 3.336,-0.242 0.013,0.166 2.408,-0.189 0.897,-0.094"
     id="Dane"
     inkscape:connector-curvature="0" />
  <path
     style="font-size:12px;fill:#d0d0d0;fill-rule:nonzero;stroke:#000000;stroke-width:1;stroke-linecap:butt;stroke-linejoin:bevel;stroke-miterlimit:4;stroke-opacity:1;stroke-dasharray:none;marker-start:none"
     d="m 41.471239,53.334762 0.351,4.512 -1.55,0.103 -4.026,0.221 -0.342,-4.457 3.339,-0.266 2.228,-0.113"
     id="Rock"
     inkscape:connector-curvature="0" />
  <path
     style="font-size:12px;fill:#d0d0d0;fill-rule:nonzero;stroke:#000000;stroke-width:1;stroke-linecap:butt;stroke-linejoin:bevel;stroke-miterlimit:4;stroke-opacity:1;stroke-dasharray:none;marker-start:none"
     d="m 46.145239,55.984762 1.113,-0.094 -0.064,-0.757 1.748,-0.149 1.854,-0.144 0.244,2.285 -3.778,0.261 -0.983,0.099 -0.134,-1.501"
     id="Kenosha"
     inkscape:connector-curvature="0" />
  <path
     style="font-size:12px;fill:#d0d0d0;fill-rule:nonzero;stroke:#000000;stroke-width:1;stroke-linecap:butt;stroke-linejoin:bevel;stroke-miterlimit:4;stroke-opacity:1;stroke-dasharray:none;marker-start:none"
     d="m 48.118239,52.797762 2.277,-0.189 0.401,2.232 -1.854,0.144 -1.748,0.149 0.064,0.757 -1.113,0.094 -0.248,-2.988 2.221,-0.199"
     id="Racine"
     inkscape:connector-curvature="0" />
  <path
     style="font-size:12px;fill:#d0d0d0;fill-rule:nonzero;stroke:#000000;stroke-width:1;stroke-linecap:butt;stroke-linejoin:bevel;stroke-miterlimit:4;stroke-opacity:1;stroke-dasharray:none;marker-start:none"
     d="m 43.689239,53.163762 2.208,-0.167 0.248,2.988 0.134,1.501 -3.803,0.316 -0.654,0.045 -0.351,-4.512 2.218,-0.171"
     id="Walworth"
     inkscape:connector-curvature="0" />
  <path
     style="font-size:12px;fill:#d0d0d0;fill-rule:nonzero;stroke:#000000;stroke-width:1;stroke-linecap:butt;stroke-linejoin:bevel;stroke-miterlimit:4;stroke-opacity:1;stroke-dasharray:none;marker-start:none"
     d="m 39.681239,43.202762 1.123,-0.081 3.388,-0.235 0.073,0.848 0.022,0.279 0.167,2.241 -0.158,0.013 0.186,2.262 -1.1,0.068 -4.426,0.315 -0.085,-1.121 -0.312,-4.499 1.122,-0.09"
     id="Dodge"
     inkscape:connector-curvature="0" />
  <path
     style="font-size:12px;fill:#d0d0d0;fill-rule:nonzero;stroke:#000000;stroke-width:1;stroke-linecap:butt;stroke-linejoin:bevel;stroke-miterlimit:4;stroke-opacity:1;stroke-dasharray:none;marker-start:none"
     d="m 38.956239,48.912762 4.426,-0.315 0.307,4.566 -2.218,0.171 -2.228,0.113 -0.287,-4.535"
     id="Jefferson"
     inkscape:connector-curvature="0" />
  <path
     style="font-size:12px;fill:#d0d0d0;fill-rule:nonzero;stroke:#000000;stroke-width:1;stroke-linecap:butt;stroke-linejoin:bevel;stroke-miterlimit:4;stroke-opacity:1;stroke-dasharray:none;marker-start:none"
     d="m 47.798239,48.291762 0.32,4.506 -2.221,0.199 -2.208,0.167 -0.307,-4.566 1.1,-0.068 3.316,-0.238"
     id="Waukesha"
     inkscape:connector-curvature="0" />
  <path
     style="font-size:12px;fill:#d0d0d0;fill-rule:nonzero;stroke:#000000;stroke-width:1;stroke-linecap:butt;stroke-linejoin:bevel;stroke-miterlimit:4;stroke-opacity:1;stroke-dasharray:none;marker-start:none"
     d="m 49.403239,48.160762 0.992,4.448 -2.277,0.189 -0.32,-4.506 1.605,-0.131"
     id="Milwaukee"
     inkscape:connector-curvature="0" />
  <path
     style="font-size:12px;fill:#d0d0d0;fill-rule:nonzero;stroke:#000000;stroke-width:1;stroke-linecap:butt;stroke-linejoin:bevel;stroke-miterlimit:4;stroke-opacity:1;stroke-dasharray:none;marker-start:none"
     d="m 47.636239,43.752762 2.29,-0.203 0.063,0.649 -0.099,0.419 -0.154,0.357 -0.23,0.401 -0.071,0.157 -0.059,0.181 -0.032,0.144 -0.19,1.564 0.033,0.184 0.171,0.487 0.045,0.068 -1.605,0.131 -0.175,-2.258 0.121,-0.956 -0.108,-1.325"
     id="Ozaukee"
     inkscape:connector-curvature="0" />
  <path
     style="font-size:12px;fill:#d0d0d0;fill-rule:nonzero;stroke:#000000;stroke-width:1;stroke-linecap:butt;stroke-linejoin:bevel;stroke-miterlimit:4;stroke-opacity:1;stroke-dasharray:none;marker-start:none"
     d="m 46.514239,43.837762 1.122,-0.085 0.108,1.325 -0.121,0.956 0.175,2.258 -3.316,0.238 -0.186,-2.262 0.158,-0.013 -0.167,-2.241 2.227,-0.176"
     id="Washington"
     inkscape:connector-curvature="0" />
  <path
     style="font-size:12px;fill:#d0d0d0;fill-rule:nonzero;stroke:#000000;stroke-width:1;stroke-linecap:butt;stroke-linejoin:bevel;stroke-miterlimit:4;stroke-opacity:1;stroke-dasharray:none;marker-start:none"
     d="m 43.530239,34.977762 0.374,4.534 -4.475,0.311 -0.086,-1.132 -0.256,-3.344 1.352,-0.113 3.091,-0.256"
     id="Winnebago"
     inkscape:connector-curvature="0" />
  <path
     style="font-size:12px;fill:#d0d0d0;fill-rule:nonzero;stroke:#000000;stroke-width:1;stroke-linecap:butt;stroke-linejoin:bevel;stroke-miterlimit:4;stroke-opacity:1;stroke-dasharray:none;marker-start:none"
     d="m 46.136239,39.344762 0.378,4.493 -2.227,0.176 -0.022,-0.279 -0.073,-0.848 -3.388,0.235 -1.123,0.081 -0.252,-3.38 4.475,-0.311 -0.049,-0.591 2.281,0.424"
     id="Fond du Lac"
     inkscape:connector-curvature="0" />
  <path
     style="font-size:12px;fill:#d0d0d0;fill-rule:nonzero;stroke:#000000;stroke-width:1;stroke-linecap:butt;stroke-linejoin:bevel;stroke-miterlimit:4;stroke-opacity:1;stroke-dasharray:none;marker-start:none"
     d="m 50.119239,38.983762 0.429,1.596 0.067,1.032 -0.026,0.108 -0.663,1.83 -2.29,0.203 -1.122,0.085 -0.378,-4.493 1.113,-0.095 2.87,-0.266"
     id="Sheboygan"
     inkscape:connector-curvature="0" />
  <path
     style="font-size:12px;fill:#d0d0d0;fill-rule:nonzero;stroke:#000000;stroke-width:1;stroke-linecap:butt;stroke-linejoin:bevel;stroke-miterlimit:4;stroke-opacity:1;stroke-dasharray:none;marker-start:none"
     d="m 45.478239,34.850762 1.379,-0.103 0.392,4.502 -1.113,0.095 -2.281,-0.424 -0.325,-3.943 1.948,-0.127"
     id="Calumet"
     inkscape:connector-curvature="0" />
  <path
     style="font-size:12px;fill:#d0d0d0;fill-rule:nonzero;stroke:#000000;stroke-width:1;stroke-linecap:butt;stroke-linejoin:bevel;stroke-miterlimit:4;stroke-opacity:1;stroke-dasharray:none;marker-start:none"
     d="m 49.308239,33.421762 2.051,-0.184 0.433,1.23 0.027,0.244 -0.027,0.234 -0.05,0.172 -0.162,0.279 -0.198,0.216 -0.329,0.194 -0.176,0.14 -0.217,0.243 -0.243,1.122 -0.076,0.401 -0.222,1.271 -2.87,0.266 -0.392,-4.502 1.428,-0.113 -0.095,-1.122 0.56,-0.045 0.558,-0.046"
     id="Manitowoc"
     inkscape:connector-curvature="0" />
  <path
     style="font-size:12px;fill:#d0d0d0;fill-rule:nonzero;stroke:#000000;stroke-width:1;stroke-linecap:butt;stroke-linejoin:bevel;stroke-miterlimit:4;stroke-opacity:1;stroke-dasharray:none;marker-start:none"
     d="m 44.558239,29.252762 2.312,-0.171 -0.095,0.189 -0.261,1.204 -0.004,0.081 0.369,0.325 0.329,0.085 0.248,-0.013 0.126,-0.09 0.099,-0.167 0.122,-0.28 0.012,-0.067 -0.048,-0.09 0.018,-0.045 0.288,-0.334 0.5,-0.405 0.415,-0.14 0.32,4.087 -0.558,0.046 -0.56,0.045 0.095,1.122 -1.428,0.113 -1.379,0.103 -0.046,-0.743 -0.302,-3.701 -0.495,0.068 -0.077,-1.222"
     id="Brown"
     inkscape:connector-curvature="0" />
  <path
     style="font-size:12px;fill:#d0d0d0;fill-rule:nonzero;stroke:#000000;stroke-width:1;stroke-linecap:butt;stroke-linejoin:bevel;stroke-miterlimit:4;stroke-opacity:1;stroke-dasharray:none;marker-start:none"
     d="m 41.322239,30.664762 3.313,-0.19 0.495,-0.068 0.302,3.701 0.046,0.743 -1.948,0.127 -3.091,0.256 -0.195,-2.898 -0.117,-1.577 1.195,-0.094"
     id="Outagamie"
     inkscape:connector-curvature="0" />
  <path
     style="font-size:12px;fill:#d0d0d0;fill-rule:nonzero;stroke:#000000;stroke-width:1;stroke-linecap:butt;stroke-linejoin:bevel;stroke-miterlimit:4;stroke-opacity:1;stroke-dasharray:none;marker-start:none"
     d="m 37.464239,25.282762 0.085,1.104 2.24,-0.171 0.077,1.117 2.258,-0.162 2.198,-0.139 0.236,2.221 0.077,1.222 -3.313,0.19 -0.081,-1.132 -5.661,0.383 -0.32,-4.48 2.204,-0.153"
     id="Shawano"
     inkscape:connector-curvature="0" />
  <path
     style="font-size:12px;fill:#d0d0d0;fill-rule:nonzero;stroke:#000000;stroke-width:1;stroke-linecap:butt;stroke-linejoin:bevel;stroke-miterlimit:4;stroke-opacity:1;stroke-dasharray:none;marker-start:none"
     d="m 37.464239,25.282762 -0.091,-1.149 3.102,-0.226 1.432,-0.108 0.118,1.996 0.099,1.375 -2.258,0.162 -0.077,-1.117 -2.24,0.171 -0.085,-1.104"
     id="Menominee"
     inkscape:connector-curvature="0" />
  <path
     style="font-size:12px;fill:#d0d0d0;fill-rule:nonzero;stroke:#000000;stroke-width:1;stroke-linecap:butt;stroke-linejoin:bevel;stroke-miterlimit:4;stroke-opacity:1;stroke-dasharray:none;marker-start:none"
     d="m 42.147239,20.415762 1.109,-0.055 1.974,3.259 0.072,1.113 1.639,0.262 1.705,0.202 -0.059,0.014 -0.405,0.18 -0.055,0.045 -0.157,0.261 -1.086,2.835 -0.023,0.438 0.009,0.112 -2.312,0.171 -0.236,-2.221 -2.198,0.139 -0.099,-1.375 -0.118,-1.996 -1.432,0.108 -0.06,-1.126 -0.383,0.027 -0.147,-2.236 2.262,-0.157"
     id="Oconto"
     inkscape:connector-curvature="0" />
  <path
     style="font-size:12px;fill:#d0d0d0;fill-rule:nonzero;stroke:#000000;stroke-width:1;stroke-linecap:butt;stroke-linejoin:bevel;stroke-miterlimit:4;stroke-opacity:1;stroke-dasharray:none;marker-start:none"
     d="m 36.910239,11.819762 2.289,0.586 0.116,0.428 0.24,3.313 2.259,-0.171 0.333,4.44 -2.262,0.157 -2.25,0.171 -0.059,-1.113 -1.113,0.086 -0.415,-5.53 -0.085,-1.118 1.027,-0.072 -0.08,-1.177"
     id="Forest"
     inkscape:connector-curvature="0" />
  <path
     style="font-size:12px;fill:#d0d0d0;fill-rule:nonzero;stroke:#000000;stroke-width:1;stroke-linecap:butt;stroke-linejoin:bevel;stroke-miterlimit:4;stroke-opacity:1;stroke-dasharray:none;marker-start:none"
     d="m 39.199239,12.405762 0.185,0.329 1.577,-0.167 2.623,0.329 0.02,0.005 0.224,0.036 0.343,0.166 0.212,0.141 0.139,0.089 0.265,0.379 0.028,0.041 0.013,0.045 -0.126,0.216 -0.144,0.203 -0.063,0.05 -0.158,0.202 -0.005,0.009 -0.013,0.045 0.058,0.113 0.009,0.005 0.344,0.279 0.076,0.018 0.122,0.032 0.009,0.004 0.122,-0.018 0.062,0.87 -1.073,0.023 -2.234,0.126 -2.259,0.171 -0.24,-3.313 -0.116,-0.428"
     id="Florence"
     inkscape:connector-curvature="0" />
  <path
     style="font-size:12px;fill:#d0d0d0;fill-rule:nonzero;stroke:#000000;stroke-width:1;stroke-linecap:butt;stroke-linejoin:bevel;stroke-miterlimit:4;stroke-opacity:1;stroke-dasharray:none;marker-start:none"
     d="m 45.059239,14.956762 2.131,0.573 0.171,0.139 0.014,0.01 0.023,0.022 0.27,0.333 0.09,2.326 0.798,3.836 0.005,0.009 0.08,0.265 0.041,0.068 0.712,0.753 0.009,0.004 0.234,0.04 0.41,0.064 -1.401,1.798 -1.705,-0.202 -1.639,-0.262 -0.072,-1.113 -1.974,-3.259 -1.109,0.055 -0.333,-4.44 2.234,-0.126 1.073,-0.023 -0.062,-0.87"
     id="Marinette"
     inkscape:connector-curvature="0" />
</svg>
