<?xml version="1.0" encoding="UTF-8" standalone="no"?>
<!-- Created with Inkscape (http://www.inkscape.org/) -->

<svg
   xmlns:dc="http://purl.org/dc/elements/1.1/"
   xmlns:cc="http://creativecommons.org/ns#"
   xmlns:rdf="http://www.w3.org/1999/02/22-rdf-syntax-ns#"
   xmlns:svg="http://www.w3.org/2000/svg"
   xmlns="http://www.w3.org/2000/svg"
   xmlns:sodipodi="http://sodipodi.sourceforge.net/DTD/sodipodi-0.dtd"
   xmlns:inkscape="http://www.inkscape.org/namespaces/inkscape"
   version="1.0"
   width="71.5"
   height="53.970001"
   sodipodi:version="0.32"
   inkscape:version="0.48.2 r9819"
   sodipodi:docname="wa.svg"
   inkscape:output_extension="org.inkscape.output.svg.inkscape"
   id="svg3032">
  <metadata
     id="metadata3034">
    <rdf:RDF>
      <cc:Work
         rdf:about="">
        <dc:format>image/svg+xml</dc:format>
        <dc:type
           rdf:resource="http://purl.org/dc/dcmitype/StillImage" />
      </cc:Work>
    </rdf:RDF>
  </metadata>
  <defs
     id="defs3036" />
  <sodipodi:namedview
     pagecolor="#ffffff"
     bordercolor="#666666"
     borderopacity="1"
     objecttolerance="10"
     gridtolerance="10"
     guidetolerance="10"
     inkscape:pageopacity="0"
     inkscape:pageshadow="2"
     inkscape:window-width="1366"
     inkscape:window-height="716"
     fit-margin-top="0"
     fit-margin-left="0"
     fit-margin-right="0"
     fit-margin-bottom="0"
     inkscape:zoom="4.5491794"
     inkscape:cx="55.481402"
     inkscape:cy="31.682268"
     inkscape:window-x="-8"
     inkscape:window-y="-8"
     inkscape:window-maximized="1"
     inkscape:current-layer="svg3032"
     id="namedview3038"
     showgrid="false" />
  <path
     style="font-size:12px;fill:#d0d0d0;fill-rule:nonzero;stroke:#000000;stroke-width:1;stroke-linecap:butt;stroke-linejoin:bevel;stroke-miterlimit:4;stroke-opacity:1;stroke-dasharray:none;marker-start:none"
     d="m 37.901419,6.7257561 9.551,2.5099998 4.741,1.1900001 2.466,0.609001 -0.262,1.113 -0.613,2.096 -0.45,1.018 -0.523,2.128 -0.027,1.023 -1.352,5.458 -0.068,0.063 -1.077,-0.082 -0.018,-0.247 0.23,-0.257 0.158,-0.23 0.053,-0.149 -0.378,-1.37 -0.063,-0.14 -0.135,-0.211 -0.537,-0.298 -0.189,0.018 -0.978,0.324 -0.928,0.474 -2.362,-0.103 -0.591,-0.537 0.176,-0.636 -0.739,-0.302 -0.649,0.167 -0.437,0.144 -0.045,0.027 -0.018,0.036 -0.167,0.983 0.005,0.045 0.071,0.144 -0.887,-0.23 -0.766,-0.346 -1.655,-3.372 -1.235,-2.731 -0.252,-1.992 -0.032,-0.158 -0.32,-0.059 -0.008,-1.667 0.144,-0.041 0.766,-0.558 0.022,-0.149001 -0.248,-2.4709999 -0.125,-0.536 -0.249,-0.698"
     id="Okanogan"
     inkscape:connector-curvature="0" />
  <path
     style="font-size:12px;fill:#d0d0d0;fill-rule:nonzero;stroke:#000000;stroke-width:1;stroke-linecap:butt;stroke-linejoin:bevel;stroke-miterlimit:4;stroke-opacity:1;stroke-dasharray:none;marker-start:none"
     d="m 37.901419,6.7257561 0.249,0.698 0.125,0.536 0.248,2.4709999 -0.022,0.149001 -0.766,0.558 -0.144,0.041 -0.902,-0.167 -0.478,0.018 -2.843,-0.771001 -7.198,-2.0589999 -2.885,-0.807 -0.19,-0.018 -0.026,-0.946 -0.803,-1.186 -0.748,-1.667 -0.144,-0.663 0.005,-0.045 0.081,-0.127 0.234,-0.184 0.243,-0.14 0.176,-0.099 2.907,0.834 2.542,0.725 2.858,0.861 5.192,1.37 2.289,0.618 m -18.533,-5.202 0.054,0.014 0.402,0.117 0.026,0.338 -0.067,0.023 -0.451,-0.163 0.036,-0.329"
     id="Whatcom"
     inkscape:connector-curvature="0" />
  <path
     style="font-size:12px;fill:#d0d0d0;fill-rule:nonzero;stroke:#000000;stroke-width:1;stroke-linecap:butt;stroke-linejoin:bevel;stroke-miterlimit:4;stroke-opacity:1;stroke-dasharray:none;marker-start:none"
     d="m 4.1304192,33.226757 0.369,-1.176 1.916,0.604 1.23,0.356 1.208,0.342 -0.73,2.637 -1.392,-0.058 -0.068,-0.023 -0.378,-0.59 0.197,-0.577 -0.094,-0.302 -0.131,-0.234 -0.036,-0.059 -0.027,-0.014 -0.05,-0.031 -0.581,-0.032 -1.433,-0.843"
     id="Wahkiakum"
     inkscape:connector-curvature="0" />
  <path
     style="font-size:12px;fill:#d0d0d0;fill-rule:nonzero;stroke:#000000;stroke-width:1;stroke-linecap:butt;stroke-linejoin:bevel;stroke-miterlimit:4;stroke-opacity:1;stroke-dasharray:none;marker-start:none"
     d="m 60.910419,45.892757 1.542,0.833 -0.189,0.563 0.283,1.141 0.013,0.045 0.086,0.712 0.055,1.108 -0.429,1.182 0.055,0.892 -4.945,-1.154 0.361,-1.554 0.527,0.121 0.572,-2.551 0.181,-0.726 0.225,-0.144 0.41,-0.094 1.109,0.265 0.144,-0.639"
     id="Asotin"
     inkscape:connector-curvature="0" />
  <path
     style="font-size:12px;fill:#d0d0d0;fill-rule:nonzero;stroke:#000000;stroke-width:1;stroke-linecap:butt;stroke-linejoin:bevel;stroke-miterlimit:4;stroke-opacity:1;stroke-dasharray:none;marker-start:none"
     d="m 55.961419,42.606757 1.064,-0.609 0.117,-0.041 0.532,0.01 0.225,0.086 1.298,0.531 0.42,0.257 0.441,0.356 0.871,1.609 0.071,0.55 -0.09,0.537 -0.144,0.639 -1.109,-0.265 -0.41,0.094 -0.225,0.144 -0.181,0.726 -0.572,2.551 -0.527,-0.121 -0.361,1.554 -1.077,-0.261 0.352,-1.533 0.559,-2.74 -0.708,-1.92 -1.096,-0.252 0.271,-1.109 0.279,-0.793"
     id="Garfield"
     inkscape:connector-curvature="0" />
  <path
     style="font-size:12px;fill:#d0d0d0;fill-rule:nonzero;stroke:#000000;stroke-width:1;stroke-linecap:butt;stroke-linejoin:bevel;stroke-miterlimit:4;stroke-opacity:1;stroke-dasharray:none;marker-start:none"
     d="m 52.599419,42.223757 0.099,0.089 0.279,0.487 0.086,0.05 0.383,0.063 0.077,-0.004 2.15,-0.136 0.288,-0.166 -0.279,0.793 -0.271,1.109 1.096,0.252 0.708,1.92 -0.559,2.74 -0.352,1.533 -3.277,-0.789 -0.166,-0.041 0.139,-0.423 0.523,-2.159 -1.095,-0.257 -0.83,-1.352 0.785,-3.322 0.216,-0.387"
     id="Columbia"
     inkscape:connector-curvature="0" />
  <path
     style="font-size:12px;fill:#d0d0d0;fill-rule:nonzero;stroke:#000000;stroke-width:1;stroke-linecap:butt;stroke-linejoin:bevel;stroke-miterlimit:4;stroke-opacity:1;stroke-dasharray:none;marker-start:none"
     d="m 52.599419,42.223757 -0.216,0.387 -0.785,3.322 0.83,1.352 1.095,0.257 -0.523,2.159 -0.139,0.423 -8.663,-2.077 0.122,-2.529 0.126,-0.162 0.103,-0.095 0.397,-0.117 0.221,-0.027 0.883,0.054 0.663,-0.361 1.14,-0.721 0.451,-0.396 0.261,-0.32 0.343,-0.73 0.067,-0.113 0.266,-0.217 0.473,-0.278 0.789,-0.362 0.041,-0.004 1.352,0.217 0.59,0.22 0.113,0.118"
     id="Walla Walla"
     inkscape:connector-curvature="0" />
  <path
     style="font-size:12px;fill:#d0d0d0;fill-rule:nonzero;stroke:#000000;stroke-width:1;stroke-linecap:butt;stroke-linejoin:bevel;stroke-miterlimit:4;stroke-opacity:1;stroke-dasharray:none;marker-start:none"
     d="m 43.166419,38.017757 1.555,0.379 3.596,0.924 4.629,1.072 -0.248,1.92 -0.099,-0.089 -0.113,-0.118 -0.59,-0.22 -1.352,-0.217 -0.041,0.004 -0.789,0.362 -0.473,0.278 -0.266,0.217 -0.067,0.113 -0.343,0.73 -0.261,0.32 -0.451,0.396 -1.14,0.721 -0.663,0.361 -0.883,-0.054 -0.221,0.027 -0.397,0.117 -0.103,0.095 -0.126,0.162 -0.568,-0.531 -0.203,-0.109 -0.252,-0.081 -0.267,-0.167 -0.414,-0.594 -0.014,-0.073 0.05,-0.108 0.703,-2.506 0,-0.41 -0.289,-0.469 -0.387,-0.545 -0.203,-0.46 -0.225,-0.748 0.013,-0.157 0.902,-0.542"
     id="Franklin"
     inkscape:connector-curvature="0" />
  <path
     style="font-size:12px;fill:#d0d0d0;fill-rule:nonzero;stroke:#000000;stroke-width:1;stroke-linecap:butt;stroke-linejoin:bevel;stroke-miterlimit:4;stroke-opacity:1;stroke-dasharray:none;marker-start:none"
     d="m 58.062419,34.718757 6.743,1.564 -0.375,1.65 -1.649,7.337 -0.329,1.456 -1.542,-0.833 0.09,-0.537 -0.071,-0.55 -0.871,-1.609 -0.441,-0.356 -0.42,-0.257 -1.298,-0.531 -0.225,-0.086 -0.532,-0.01 -0.117,0.041 -1.064,0.609 -0.288,0.166 -2.15,0.136 -0.077,0.004 -0.383,-0.063 -0.086,-0.05 -0.279,-0.487 0.248,-1.92 1.762,0.023 0.325,-0.297 0.248,-0.28 0.36,-0.505 0.244,-0.572 1.004,-4.318 1.173,0.275"
     id="Whitman"
     inkscape:connector-curvature="0" />
  <path
     style="font-size:12px;fill:#d0d0d0;fill-rule:nonzero;stroke:#000000;stroke-width:1;stroke-linecap:butt;stroke-linejoin:bevel;stroke-miterlimit:4;stroke-opacity:1;stroke-dasharray:none;marker-start:none"
     d="m 63.641419,25.668757 3.358,0.785 -0.194,0.851 -1.699,7.64 -0.301,1.338 -6.743,-1.564 1.672,-7.04 0.121,0.185 0.082,0.05 1.78,0.64 0.36,0.067 0.735,-3.15 0.829,0.198"
     id="Spokane"
     inkscape:connector-curvature="0" />
  <path
     style="font-size:12px;fill:#d0d0d0;fill-rule:nonzero;stroke:#000000;stroke-width:1;stroke-linecap:butt;stroke-linejoin:bevel;stroke-miterlimit:4;stroke-opacity:1;stroke-dasharray:none;marker-start:none"
     d="m 69.753419,14.594757 -0.437,1.898 -2.317,9.961 -3.358,-0.785 0.248,-1.091 -0.207,-1.532 1.172,-5.08 -1.091,-0.247 0.248,-1.082 0.888,-1.023 0.626,-0.528 0.676,-0.301 0.226,-0.956 3.326,0.766"
     id="Pend Oreille"
     inkscape:connector-curvature="0" />
  <path
     style="font-size:12px;fill:#d0d0d0;fill-rule:nonzero;stroke:#000000;stroke-width:1;stroke-linecap:butt;stroke-linejoin:bevel;stroke-miterlimit:4;stroke-opacity:1;stroke-dasharray:none;marker-start:none"
     d="m 66.427419,13.828757 -0.226,0.956 -0.676,0.301 -0.626,0.528 -0.888,1.023 -0.248,1.082 1.091,0.247 -1.172,5.08 0.207,1.532 -0.248,1.091 -0.829,-0.198 -0.735,3.15 -0.36,-0.067 -1.78,-0.64 -0.082,-0.05 -0.121,-0.185 -1.654,-0.207 -0.636,-0.126 -0.054,-0.257 -0.207,-0.672 -0.393,-0.987 -0.027,-0.031 -0.428,0.004 -0.563,0.225 -0.261,0.14 -0.131,-1.726 0.013,-0.054 0.055,-0.041 0.374,-0.144 0.166,0.036 1.032,-0.257 1.168,-1.789 0.135,-0.261 1.411,-4.629 0.153,-1.294 -0.022,-0.365 -0.194,-0.87 -0.117,-0.104 -0.045,-0.477 0.108,-0.721 0.099,-0.433 0.126,-0.162 0.162,-0.149 6.423,1.501"
     id="Stevens"
     inkscape:connector-curvature="0" />
  <path
     style="font-size:12px;fill:#d0d0d0;fill-rule:nonzero;stroke:#000000;stroke-width:1;stroke-linecap:butt;stroke-linejoin:bevel;stroke-miterlimit:4;stroke-opacity:1;stroke-dasharray:none;marker-start:none"
     d="m 50.287419,23.851757 1.077,0.082 0.131,0.405 0.067,0.113 0.613,0.433 0.213,0.013 0.036,-0.076 1.464,0.468 0.198,0.411 0.465,0.549 0.329,0.207 0.081,0.023 0.126,0 0.131,-0.085 0.293,-0.627 0.261,-0.14 0.563,-0.225 0.428,-0.004 0.027,0.031 0.393,0.987 0.207,0.672 0.054,0.257 0.636,0.126 1.654,0.207 -1.672,7.04 -1.173,-0.275 -8.743,-2.118 2.141,-8.474"
     id="Lincoln"
     inkscape:connector-curvature="0" />
  <path
     style="font-size:12px;fill:#d0d0d0;fill-rule:nonzero;stroke:#000000;stroke-width:1;stroke-linecap:butt;stroke-linejoin:bevel;stroke-miterlimit:4;stroke-opacity:1;stroke-dasharray:none;marker-start:none"
     d="m 56.889419,34.443757 -1.004,4.318 -0.244,0.572 -0.36,0.505 -0.248,0.28 -0.325,0.297 -1.762,-0.023 -4.629,-1.072 -3.596,-0.924 -1.555,-0.379 0.554,-2.181 1.185,0.297 2.137,0.546 1.104,-4.354 8.743,2.118"
     id="Adams"
     inkscape:connector-curvature="0" />
  <path
     style="font-size:12px;fill:#d0d0d0;fill-rule:nonzero;stroke:#000000;stroke-width:1;stroke-linecap:butt;stroke-linejoin:bevel;stroke-miterlimit:4;stroke-opacity:1;stroke-dasharray:none;marker-start:none"
     d="m 50.269419,23.604757 0.018,0.247 -2.141,8.474 -1.104,4.354 -2.137,-0.546 -1.185,-0.297 -0.554,2.181 -0.902,0.542 0.045,-0.046 -0.008,-0.085 -0.213,-0.42 -0.098,-0.121 -0.113,-0.063 -0.072,0.027 -0.361,0.279 -0.27,0.234 -0.28,0.158 -0.235,0.086 -0.215,0.004 -1.6,-0.207 -0.303,-0.099 -0.071,-0.04 -0.505,-1.569 0.396,-0.424 0.185,-0.23 0.063,-0.166 0.077,-1.722 -0.208,-1.506 0.248,-0.68 0.298,-0.487 0.202,-0.73 0.005,-0.076 -0.014,-0.059 0.528,-1.195 1.289,-1.212 2.929,0.694 2.398,-1.848 1.569,-2.366 0.162,-0.645 1.145,-0.694 1.032,0.253"
     id="Grant"
     inkscape:connector-curvature="0" />
  <path
     style="font-size:12px;fill:#d0d0d0;fill-rule:nonzero;stroke:#000000;stroke-width:1;stroke-linecap:butt;stroke-linejoin:bevel;stroke-miterlimit:4;stroke-opacity:1;stroke-dasharray:none;marker-start:none"
     d="m 38.470419,38.266757 0.071,0.04 0.303,0.099 1.6,0.207 0.215,-0.004 0.235,-0.086 0.28,-0.158 0.27,-0.234 0.361,-0.279 0.072,-0.027 0.113,0.063 0.098,0.121 0.213,0.42 0.008,0.085 -0.045,0.046 -0.013,0.157 0.225,0.748 0.203,0.46 0.387,0.545 0.289,0.469 0,0.41 -0.703,2.506 -0.05,0.108 0.014,0.073 0.414,0.594 0.267,0.167 0.252,0.081 0.203,0.109 0.568,0.531 -0.122,2.529 -0.253,0.212 -0.193,0.085 -0.658,0.19 -0.32,0.049 -0.392,-0.027 -0.23,-0.058 -0.248,-0.127 -1.352,-0.185 -0.51,-0.031 -0.509,-0.032 -1.749,0.216 -0.937,-0.089 -0.861,-0.09 0.933,-3.543 0.203,-0.834 0.022,-0.356 1.326,-5.16"
     id="Benton"
     inkscape:connector-curvature="0" />
  <path
     style="font-size:12px;fill:#d0d0d0;fill-rule:nonzero;stroke:#000000;stroke-width:1;stroke-linecap:butt;stroke-linejoin:bevel;stroke-miterlimit:4;stroke-opacity:1;stroke-dasharray:none;marker-start:none"
     d="m 36.658419,45.607757 -0.672,2.552 -1.24,0 -1.352,0.166 -0.288,0.072 -0.469,0.356 -1.776,-0.108 -0.703,-0.122 -0.184,-0.121 -0.109,-0.158 -0.234,-0.441 -0.252,-0.177 -0.384,-0.094 -0.189,0.063 -0.388,0.185 -0.964,0.135 -0.793,0.122 -0.469,0.144 -0.194,-0.257 -3.272,-1.532 -0.311,-0.063 -0.617,-0.091 -0.614,-0.532 0.235,-0.667 -0.789,-0.261 0.28,-1.154 0.586,-2.095 0.766,0.207 0.856,0.23 2.353,0.635 0.721,0.226 4.142,1.131 6.324,1.649"
     id="Klickitat"
     inkscape:connector-curvature="0" />
  <path
     style="font-size:12px;fill:#d0d0d0;fill-rule:nonzero;stroke:#000000;stroke-width:1;stroke-linecap:butt;stroke-linejoin:bevel;stroke-miterlimit:4;stroke-opacity:1;stroke-dasharray:none;marker-start:none"
     d="m 10.652419,41.046757 1.375,-0.703 1.374,-0.293 0.41,0.063 0.203,0.099 0.158,0.162 0.266,0.127 0.802,-0.311 0.807,-0.325 -0.51,1.817 -0.59,1.942 -0.708,2.506 -0.149,0.005 -0.018,0 -0.248,-0.063 -0.008,-0.005 -0.294,-0.144 -2.501,-1.541 -0.239,-0.181 -0.459,-0.482 -0.176,-0.225 -0.009,-0.316 0.086,-0.234 0.193,-0.325 0.235,-1.573"
     id="Clark"
     inkscape:connector-curvature="0" />
  <path
     style="font-size:12px;fill:#d0d0d0;fill-rule:nonzero;stroke:#000000;stroke-width:1;stroke-linecap:butt;stroke-linejoin:bevel;stroke-miterlimit:4;stroke-opacity:1;stroke-dasharray:none;marker-start:none"
     d="m 23.438419,37.467757 -1.176,4.269 -0.766,-0.207 -0.586,2.095 -0.28,1.154 0.789,0.261 -0.235,0.667 -0.968,-0.018 -0.744,-0.058 -0.244,-0.059 -0.621,-0.342 -0.532,0.031 -0.383,0.198 -0.253,0.226 -3.2,0.446 0.708,-2.506 0.59,-1.942 0.51,-1.817 1.198,-4.092 6.193,1.694"
     id="Skamania"
     inkscape:connector-curvature="0" />
  <path
     style="font-size:12px;fill:#d0d0d0;fill-rule:nonzero;stroke:#000000;stroke-width:1;stroke-linecap:butt;stroke-linejoin:bevel;stroke-miterlimit:4;stroke-opacity:1;stroke-dasharray:none;marker-start:none"
     d="m 17.245419,35.773757 -1.198,4.092 -0.807,0.325 -0.802,0.311 -0.266,-0.127 -0.158,-0.162 -0.203,-0.099 -0.41,-0.063 -1.374,0.293 -1.375,0.703 0.067,-0.212 0.081,-1.226 -0.252,-1.405 -0.086,-0.339 -1.4549998,-1.784 -0.424,-0.176 -0.46,0.085 0.73,-2.637 1.091,0.284 0.6899998,0.199 5.061,1.474 1.55,0.464"
     id="Cowlitz"
     inkscape:connector-curvature="0" />
  <path
     style="font-size:12px;fill:#d0d0d0;fill-rule:nonzero;stroke:#000000;stroke-width:1;stroke-linecap:butt;stroke-linejoin:bevel;stroke-miterlimit:4;stroke-opacity:1;stroke-dasharray:none;marker-start:none"
     d="m 2.8414192,26.064757 2.046,0.659 2.132,0.604 2.01,0.622 -0.568,2.077 -0.212,0.911 -0.248,0.906 -0.356,1.167 -1.23,-0.356 -1.916,-0.604 -0.369,1.176 -1.456,0.235 -0.266,-0.158 -1.027,-1.406 0.685,-2.028 0.153,0.455 0.198,0.099 0.104,-0.009 0.455,-0.05 0.568,-0.441 0.076,-0.167 0.532,-1.812 0.041,-0.761 -0.735,0.233 -0.153,0.023 -0.135,-0.13 -0.406,-0.474 -0.045,-0.076 -0.022,-0.032 -0.023,-0.067 0.167,-0.596"
     id="Pacific"
     inkscape:connector-curvature="0" />
  <path
     style="font-size:12px;fill:#d0d0d0;fill-rule:nonzero;stroke:#000000;stroke-width:1;stroke-linecap:butt;stroke-linejoin:bevel;stroke-miterlimit:4;stroke-opacity:1;stroke-dasharray:none;marker-start:none"
     d="m 9.0294192,27.949757 1.7939998,0.513 -0.108,0.361 1.969,0.581 6.216,1.799 1.352,0.653 1.722,0.622 0.139,-0.135 0.365,-0.23 0.117,-0.058 0.176,-0.045 2.605,0.716 0.316,0.843 0.04,0.383 -1.032,3.561 -0.135,0.243 -0.036,0.009 -0.063,-0.013 -1.028,-0.285 -6.193,-1.694 -1.55,-0.464 -5.061,-1.474 -0.6899998,-0.199 -1.091,-0.284 -1.208,-0.342 0.356,-1.167 0.248,-0.906 0.212,-0.911 0.568,-2.077"
     id="Lewis"
     inkscape:connector-curvature="0" />
  <path
     style="font-size:12px;fill:#d0d0d0;fill-rule:nonzero;stroke:#000000;stroke-width:1;stroke-linecap:butt;stroke-linejoin:bevel;stroke-miterlimit:4;stroke-opacity:1;stroke-dasharray:none;marker-start:none"
     d="m 11.526419,24.771757 1.077,0.32 1.915,-0.406 0.262,-0.104 0.37,-0.215 0.559,1.762 0.067,0.793 0.212,0.487 0.87,1.686 0.243,0.36 0.302,0.252 0.253,0.117 1.244,1.38 -6.216,-1.799 -1.969,-0.581 0.108,-0.361 0.703,-3.691"
     id="Thurston"
     inkscape:connector-curvature="0" />
  <path
     style="font-size:12px;fill:#d0d0d0;fill-rule:nonzero;stroke:#000000;stroke-width:1;stroke-linecap:butt;stroke-linejoin:bevel;stroke-miterlimit:4;stroke-opacity:1;stroke-dasharray:none;marker-start:none"
     d="m 16.069419,21.832757 2.393,0.704 -0.261,0.514 0.82,0.743 0.505,0.897 2.123,1.839 0.735,0.414 1.018,0.375 0.028,-0.041 0.297,-0.144 0.067,-0.027 0.05,0.009 0.108,0.031 1.186,0.591 0.586,0.568 1.018,0.739 0.306,0.108 -0.103,0.406 -1.38,1.496 -0.085,1.537 -0.018,0.045 -0.086,0.09 -2.605,-0.716 -0.176,0.045 -0.117,0.058 -0.365,0.23 -0.139,0.135 -1.722,-0.622 -1.352,-0.653 -1.244,-1.38 -0.253,-0.117 -0.302,-0.252 -0.243,-0.36 -0.87,-1.686 -0.212,-0.487 -0.067,-0.793 -0.559,-1.762 -0.05,-0.803 0.014,-0.067 0.076,-0.167 0.081,-0.09 0.185,-0.113 0.171,-0.144 0.145,-0.212 0.13,-0.383 0.167,-0.555"
     id="Pierce"
     inkscape:connector-curvature="0" />
  <path
     style="font-size:12px;fill:#d0d0d0;fill-rule:nonzero;stroke:#000000;stroke-width:1;stroke-linecap:butt;stroke-linejoin:bevel;stroke-miterlimit:4;stroke-opacity:1;stroke-dasharray:none;marker-start:none"
     d="m 27.048419,29.152757 0.848,0.202 0.184,0.141 0.74,0.96 0.284,0.491 0.009,0.04 0.018,0.293 0.248,0.695 0.103,0.171 3.358,0.893 -0.032,1.13 0.537,1.312 3.101,0.848 1.519,0.369 0.505,1.569 -1.326,5.16 -0.022,0.356 -0.203,0.834 -0.261,0.991 -6.324,-1.649 -4.142,-1.131 -0.721,-0.226 -2.353,-0.635 -0.856,-0.23 1.176,-4.269 1.028,0.285 0.063,0.013 0.036,-0.009 0.135,-0.243 1.032,-3.561 -0.04,-0.383 -0.316,-0.843 0.086,-0.09 0.018,-0.045 0.085,-1.537 1.38,-1.496 0.103,-0.406"
     id="Yakima"
     inkscape:connector-curvature="0" />
  <path
     style="font-size:12px;fill:#d0d0d0;fill-rule:nonzero;stroke:#000000;stroke-width:1;stroke-linecap:butt;stroke-linejoin:bevel;stroke-miterlimit:4;stroke-opacity:1;stroke-dasharray:none;marker-start:none"
     d="m 27.048419,29.152757 0.028,-0.581 0.171,-2.957 0.027,-0.153 1.117,-0.902 1.668,-1 0.974,-0.104 0.446,0.965 0.681,1.311 0.703,0.523 0.725,0.591 1.6,1.297 0.492,0.578 0.171,0.292 0.234,0.248 2.52,0.64 0.612,0.717 0.014,0.059 -0.005,0.076 -0.202,0.73 -0.298,0.487 -0.248,0.68 0.208,1.506 -0.077,1.722 -0.063,0.166 -0.185,0.23 -0.396,0.424 -1.519,-0.369 -3.101,-0.848 -0.537,-1.312 0.032,-1.13 -3.358,-0.893 -0.103,-0.171 -0.248,-0.695 -0.018,-0.293 -0.009,-0.04 -0.284,-0.491 -0.74,-0.96 -0.184,-0.141 -0.848,-0.202"
     id="Kittitas"
     inkscape:connector-curvature="0" />
  <path
     style="font-size:12px;fill:#d0d0d0;fill-rule:nonzero;stroke:#000000;stroke-width:1;stroke-linecap:butt;stroke-linejoin:bevel;stroke-miterlimit:4;stroke-opacity:1;stroke-dasharray:none;marker-start:none"
     d="m 50.269419,23.604757 -1.032,-0.253 -1.145,0.694 -0.162,0.645 -1.569,2.366 -2.398,1.848 -2.929,-0.694 -1.289,1.212 -0.528,1.195 -0.612,-0.717 0.09,-0.175 0.112,-0.307 0.126,-0.379 -0.008,-0.072 -0.284,-0.437 -0.871,-0.392 -0.13,-0.072 -0.248,-0.216 -0.036,-0.108 -0.027,-0.442 0,-0.312 0.063,-0.184 0.271,-0.563 1.406,-2.484 0.126,-0.14 0.081,-0.054 0.126,-0.049 0.55,-0.072 0.108,0.049 0.113,0.117 0.045,0.072 0.059,0.023 0.842,-0.023 1.037,-1.014 0.622,-0.68 0,-0.099 -0.032,-0.154 -0.071,-0.144 -0.005,-0.045 0.167,-0.983 0.018,-0.036 0.045,-0.027 0.437,-0.144 0.649,-0.167 0.739,0.302 -0.176,0.636 0.591,0.537 2.362,0.103 0.928,-0.474 0.978,-0.324 0.189,-0.018 0.537,0.298 0.135,0.211 0.063,0.14 0.378,1.37 -0.053,0.149 -0.158,0.23 -0.23,0.257"
     id="Douglas"
     inkscape:connector-curvature="0" />
  <path
     style="font-size:12px;fill:#d0d0d0;fill-rule:nonzero;stroke:#000000;stroke-width:1;stroke-linecap:butt;stroke-linejoin:bevel;stroke-miterlimit:4;stroke-opacity:1;stroke-dasharray:none;marker-start:none"
     d="m 54.659419,11.034757 5.345,1.293 -0.162,0.149 -0.126,0.162 -0.099,0.433 -0.108,0.721 0.045,0.477 0.117,0.104 0.194,0.87 0.022,0.365 -0.153,1.294 -1.411,4.629 -0.135,0.261 -1.168,1.789 -1.032,0.257 -0.166,-0.036 -0.374,0.144 -0.055,0.041 -0.013,0.054 0.131,1.726 -0.293,0.627 -0.131,0.085 -0.126,0 -0.081,-0.023 -0.329,-0.207 -0.465,-0.549 -0.198,-0.411 -1.464,-0.468 -0.036,0.076 -0.213,-0.013 -0.613,-0.433 -0.067,-0.113 -0.131,-0.405 0.068,-0.063 1.352,-5.458 0.027,-1.023 0.523,-2.128 0.45,-1.018 0.613,-2.096 0.262,-1.113"
     id="Ferry"
     inkscape:connector-curvature="0" />
  <path
     style="font-size:12px;fill:#d0d0d0;fill-rule:nonzero;stroke:#000000;stroke-width:1;stroke-linecap:butt;stroke-linejoin:bevel;stroke-miterlimit:4;stroke-opacity:1;stroke-dasharray:none;marker-start:none"
     d="m 18.868419,9.0647559 0.054,-0.451 0.176,-0.4369998 0.203,-0.266 0.405,0.013 0.654,-0.017 -0.126,0.297 -0.046,0.108 -0.486,0.9239998 -0.095,0.059 -0.531,-0.099 -0.077,-0.032 -0.131,-0.099 m -0.924,-2.9159998 -0.018,0.667 0.248,0.703 0.189,0.703 -0.265,0.2479998 -0.244,-0.1889998 -0.554,-0.595 -0.136,-0.208 -0.049,-0.13 -0.045,-0.221 -0.109,-0.838 0.018,-0.077 0.1,-0.113 0.198,-0.144 0.23,0.049 0.437,0.145 m 2.655,0.599 -0.077,0.005 -0.194,0.135 -0.009,0.045 -0.036,0.248 -0.004,0.14 0.036,0.058 -1.632,0.131 -0.108,-0.442 -0.126,-0.649 0,-0.207 0.342,-0.248 0.749,-0.468 0.22,-0.028 0.203,0.041 0.145,0.076 0.306,0.275 0.618,0.663 0.004,0.018 -0.149,0.103 -0.288,0.104"
     id="San Juan"
     inkscape:connector-curvature="0" />
  <path
     style="font-size:12px;fill:#d0d0d0;fill-rule:nonzero;stroke:#000000;stroke-width:1;stroke-linecap:butt;stroke-linejoin:bevel;stroke-miterlimit:4;stroke-opacity:1;stroke-dasharray:none;marker-start:none"
     d="m 21.131419,9.9837559 0.045,-0.036 0.081,-0.036 0.058,0.041 0.028,0.063 0.058,0.158 0.316,1.081001 0.04,0.149 -0.018,0.126 -0.018,0.028 -0.185,0.112 -0.081,0.018 -0.176,-0.041 -0.054,-0.022 -0.09,-0.198 -0.067,-0.059 -0.127,-0.041 -0.176,0.005 -0.085,0.045 -0.302,0.23 -0.225,0.261 -0.05,0.208 0.554,1.546 0.19,0.36 0.108,0.018 0.171,0.095 0.559,0.924 0.162,0.581 -0.085,0.374 -0.145,0.28 -0.315,0.23 -0.302,-0.036 -0.816,-1.628 -0.193,-0.775 -0.177,-0.622 -0.531,-1.342 0.243,-0.654 1.235,-1.5240011 0.18,0 0.19,0.081"
     id="Island"
     inkscape:connector-curvature="0" />
  <path
     style="font-size:12px;fill:#d0d0d0;fill-rule:nonzero;stroke:#000000;stroke-width:1;stroke-linecap:butt;stroke-linejoin:bevel;stroke-miterlimit:4;stroke-opacity:1;stroke-dasharray:none;marker-start:none"
     d="m 22.785419,11.863757 4.534,1.275 2.168,0.609 0.631,0.189 4.187,1.149 0.095,1.159 -0.149,0.703 -0.153,0.527 -0.717,0.234 -0.05,-0.008 -0.649,0.054 -0.365,0.126 -0.667,1.307 -0.121,1.108 0.067,0.889 -2.542,-0.699 -0.307,-0.059 -1.09,-0.279 -4.138,-1.141 -2.709,-0.793 0.005,-0.027 0.099,-0.284 1.248,-1.582 0.271,-0.022 0.252,0.032 0.204,-0.095 0.049,-0.059 0.148,-0.491 -0.008,-0.181 -0.343,-0.36 -0.356,-0.739 -0.081,-0.374 -0.005,-0.023 0.095,-0.316 0.09,-0.279 -0.076,-0.739 0,-0.32 0.383,-0.491"
     id="Snohomish"
     inkscape:connector-curvature="0" />
  <path
     style="font-size:12px;fill:#d0d0d0;fill-rule:nonzero;stroke:#000000;stroke-width:1;stroke-linecap:butt;stroke-linejoin:bevel;stroke-miterlimit:4;stroke-opacity:1;stroke-dasharray:none;marker-start:none"
     d="m 31.596419,21.184757 0.203,0.581 -0.095,0.198 -0.523,0.473 -0.027,0.055 -0.032,0.197 -0.089,0.767 -0.974,0.104 -1.668,1 -1.117,0.902 -0.027,0.153 -0.171,2.957 -0.028,0.581 -0.306,-0.108 -1.018,-0.739 -0.586,-0.568 -1.186,-0.591 -0.108,-0.031 -0.05,-0.009 -0.067,0.027 -0.297,0.144 -0.028,0.041 -1.018,-0.375 -0.735,-0.414 -2.123,-1.839 -0.505,-0.897 0.762,-0.059 0.126,-0.058 0.145,-0.532 0.008,-0.122 0.005,-1.072 0.369,-2.664 0.374,-1.073 2.709,0.793 4.138,1.141 1.09,0.279 0.307,0.059 2.542,0.699"
     id="King"
     inkscape:connector-curvature="0" />
  <path
     style="font-size:12px;fill:#d0d0d0;fill-rule:nonzero;stroke:#000000;stroke-width:1;stroke-linecap:butt;stroke-linejoin:bevel;stroke-miterlimit:4;stroke-opacity:1;stroke-dasharray:none;marker-start:none"
     d="m 17.696419,17.794757 1.613,-1.064 0.366,-0.77 0.352,0.148 0.13,0.212 0.027,0.343 -0.175,1.204 -0.686,2.438 -0.207,0.96 -0.654,1.271 -2.393,-0.704 0.428,-1.424 -1.262,-0.401 -0.374,-0.076 -0.374,-0.109 0.126,-0.139 0.681,-0.623 0.054,-0.036 0.185,-0.045 2.163,-1.185"
     id="Kitsap"
     inkscape:connector-curvature="0" />
  <path
     style="font-size:12px;fill:#d0d0d0;fill-rule:nonzero;stroke:#000000;stroke-width:1;stroke-linecap:butt;stroke-linejoin:bevel;stroke-miterlimit:4;stroke-opacity:1;stroke-dasharray:none;marker-start:none"
     d="m 10.544419,18.691757 0.328,-1.095 4.661,1.383 -0.185,0.045 -0.054,0.036 -0.681,0.623 -0.126,0.139 0.374,0.109 0.374,0.076 1.262,0.401 -0.595,1.979 -0.13,0.383 -0.145,0.212 -0.171,0.144 -0.185,0.113 -0.081,0.09 -0.076,0.167 -0.014,0.067 0.05,0.803 -0.37,0.215 -0.262,0.104 -1.915,0.406 -1.077,-0.32 -2.3979998,-0.676 -0.045,-0.018 0.5,-2.2 0.9609998,-3.186"
     id="Mason"
     inkscape:connector-curvature="0" />
  <path
     style="font-size:12px;fill:#d0d0d0;fill-rule:nonzero;stroke:#000000;stroke-width:1;stroke-linecap:butt;stroke-linejoin:bevel;stroke-miterlimit:4;stroke-opacity:1;stroke-dasharray:none;marker-start:none"
     d="m 3.4584192,16.334757 1.911,0.581 0.608,0.397 4.5669998,1.379 -0.9609998,3.186 -0.5,2.2 0.045,0.018 2.3979998,0.676 -0.703,3.691 -1.7939998,-0.513 -2.01,-0.622 -2.132,-0.604 -2.046,-0.659 0.112,-1.117 0.33,-0.185 0.374,0.212 1.559,-0.144 0.212,-0.045 0.013,-0.005 -0.09,-0.194 -1.018,-1.235 -0.294,-0.234 -0.337,-0.126 -0.627,-4.39 0.004,-0.158 0.077,-0.626 0.302,-1.483"
     id="Grays Harbor"
     inkscape:connector-curvature="0" />
  <path
     style="font-size:12px;fill:#d0d0d0;fill-rule:nonzero;stroke:#000000;stroke-width:1;stroke-linecap:butt;stroke-linejoin:bevel;stroke-miterlimit:4;stroke-opacity:1;stroke-dasharray:none;marker-start:none"
     d="m 2.6154192,11.421757 1.447,0.415 0.514,0.18 2.091,0.649 3.141,0.942 1.3259998,0.465 0.64,0.324 4.71,1.379 0.802,-2.844 1.122,-0.158 0.442,0.014 0.198,0.054 0.465,0.69 -0.379,2.361 -1.203,1.19 -0.235,0.505 -0.045,0.139 0.045,0.068 -2.163,1.185 -4.661,-1.383 -0.328,1.095 -4.5669998,-1.379 -0.608,-0.397 -1.911,-0.581 0.028,-0.153 0.053,-0.523 0.05,-0.609 0.04,-1.406 -0.013,-0.112 -0.23,-1.019 -0.049,-0.09 -0.37,-0.699 -0.009,-0.009 -0.013,-0.018 -0.149,-0.18 -0.181,-0.095"
     id="Jefferson"
     inkscape:connector-curvature="0" />
  <path
     style="font-size:12px;fill:#d0d0d0;fill-rule:nonzero;stroke:#000000;stroke-width:1;stroke-linecap:butt;stroke-linejoin:bevel;stroke-miterlimit:4;stroke-opacity:1;stroke-dasharray:none;marker-start:none"
     d="m 2.6154192,11.421757 -0.094,-0.248 -0.018,-1.149001 0.225,-2.2169999 0.785,-2.809 0.067,-0.044 0.085,-0.023 0.533,0.153 0.297,0.262 0.275,0.243 0.329,0.334 0.104,0.108 0.64,0.766 2.56,2.4289998 0.531,0.333 0.915,0.411 3.5569998,1.5550011 1.766,0.401 1.235,0.45 0.879,0.555 -0.802,2.844 -4.71,-1.379 -0.64,-0.324 -1.3259998,-0.465 -3.141,-0.942 -2.091,-0.649 -0.514,-0.18 -1.447,-0.415"
     id="Clallam"
     inkscape:connector-curvature="0" />
  <path
     style="font-size:12px;fill:#d0d0d0;fill-rule:nonzero;stroke:#000000;stroke-width:1;stroke-linecap:butt;stroke-linejoin:bevel;stroke-miterlimit:4;stroke-opacity:1;stroke-dasharray:none;marker-start:none"
     d="m 37.591419,11.178757 0.008,1.667 -1.289,-0.523 -0.793,-0.013 -0.969,0.316 -0.086,0.076 -0.117,0.226 -0.486,1.645 0.446,0.513 -4.187,-1.149 -0.631,-0.189 -2.168,-0.609 -4.534,-1.275 -0.154,-0.424 -0.292,-1.8700011 0.274,-0.054 0.023,-0.014 0.816,-1.4559998 -0.113,-0.338 -0.244,-0.333 0.19,0.018 2.885,0.807 7.198,2.0589999 2.843,0.771001 0.478,-0.018 0.902,0.167"
     id="Skagit"
     inkscape:connector-curvature="0" />
  <path
     style="font-size:12px;fill:#d0d0d0;fill-rule:nonzero;stroke:#000000;stroke-width:1;stroke-linecap:butt;stroke-linejoin:bevel;stroke-miterlimit:4;stroke-opacity:1;stroke-dasharray:none;marker-start:none"
     d="m 37.599419,12.845757 0.32,0.059 0.032,0.158 0.252,1.992 1.235,2.731 1.655,3.372 0.766,0.346 0.887,0.23 0.032,0.154 0,0.099 -0.622,0.68 -1.037,1.014 -0.842,0.023 -0.059,-0.023 -0.045,-0.072 -0.113,-0.117 -0.108,-0.049 -0.55,0.072 -0.126,0.049 -0.081,0.054 -0.126,0.14 -1.406,2.484 -0.271,0.563 -0.063,0.184 0,0.312 0.027,0.442 0.036,0.108 0.248,0.216 0.13,0.072 0.871,0.392 0.284,0.437 0.008,0.072 -0.126,0.379 -0.112,0.307 -0.09,0.175 -2.52,-0.64 -0.234,-0.248 -0.171,-0.292 -0.492,-0.578 -1.6,-1.297 -0.725,-0.591 -0.703,-0.523 -0.681,-1.311 -0.446,-0.965 0.089,-0.767 0.032,-0.197 0.027,-0.055 0.523,-0.473 0.095,-0.198 -0.203,-0.581 -0.067,-0.889 0.121,-1.108 0.667,-1.307 0.365,-0.126 0.649,-0.054 0.05,0.008 0.717,-0.234 0.153,-0.527 0.149,-0.703 -0.095,-1.159 -0.446,-0.513 0.486,-1.645 0.117,-0.226 0.086,-0.076 0.969,-0.316 0.793,0.013 1.289,0.523"
     id="Chelan"
     inkscape:connector-curvature="0" />
</svg>
